<?xml version="1.0" encoding="UTF-8"?>
<svg xmlns="http://www.w3.org/2000/svg" xmlns:xlink="http://www.w3.org/1999/xlink" width="375pt" height="375pt" viewBox="0 0 375 375" version="1.1">
<g id="surface231">
<rect x="0" y="0" width="375" height="375" style="fill:rgb(100%,100%,100%);fill-opacity:1;stroke:none;"/>
<path style="fill:none;stroke-width:2;stroke-linecap:butt;stroke-linejoin:miter;stroke:rgb(0%,0%,0%);stroke-opacity:1;stroke-miterlimit:4;" d="M 61.401042 179.401042 L 67.098958 190.098958 " transform="matrix(0.75,0,0,0.75,0,0)"/>
<path style="fill:none;stroke-width:2;stroke-linecap:butt;stroke-linejoin:miter;stroke:rgb(100%,0%,0%);stroke-opacity:1;stroke-miterlimit:4;" d="M 67.098958 190.098958 L 72.802083 200.901042 " transform="matrix(0.75,0,0,0.75,0,0)"/>
<path style="fill:none;stroke-width:2;stroke-linecap:butt;stroke-linejoin:miter;stroke:rgb(100%,0%,0%);stroke-opacity:1;stroke-miterlimit:4;" d="M 80.598958 206.5 L 91.197917 206.802083 " transform="matrix(0.75,0,0,0.75,0,0)"/>
<path style="fill:none;stroke-width:2;stroke-linecap:butt;stroke-linejoin:miter;stroke:rgb(0%,0%,100%);stroke-opacity:1;stroke-miterlimit:4;" d="M 91.197917 206.802083 L 101.802083 207.197917 " transform="matrix(0.75,0,0,0.75,0,0)"/>
<path style="fill:none;stroke-width:2;stroke-linecap:butt;stroke-linejoin:miter;stroke:rgb(0%,0%,100%);stroke-opacity:1;stroke-miterlimit:4;" d="M 108.901042 212.697917 L 114.598958 223.5 " transform="matrix(0.75,0,0,0.75,0,0)"/>
<path style="fill:none;stroke-width:2;stroke-linecap:butt;stroke-linejoin:miter;stroke:rgb(0%,0%,0%);stroke-opacity:1;stroke-miterlimit:4;" d="M 114.598958 223.5 L 120.302083 234.302083 " transform="matrix(0.75,0,0,0.75,0,0)"/>
<path style="fill:none;stroke-width:2;stroke-linecap:butt;stroke-linejoin:miter;stroke:rgb(0%,0%,100%);stroke-opacity:1;stroke-miterlimit:4;" d="M 105.197917 218.802083 L 109.197917 226.302083 " transform="matrix(0.75,0,0,0.75,0,0)"/>
<path style="fill:none;stroke-width:2;stroke-linecap:butt;stroke-linejoin:miter;stroke:rgb(0%,0%,0%);stroke-opacity:1;stroke-miterlimit:4;" d="M 109.197917 226.302083 L 113.197917 233.901042 " transform="matrix(0.75,0,0,0.75,0,0)"/>
<path style="fill:none;stroke-width:2;stroke-linecap:butt;stroke-linejoin:miter;stroke:rgb(0%,0%,0%);stroke-opacity:1;stroke-miterlimit:4;" d="M 120.302083 234.302083 L 150.697917 235.401042 " transform="matrix(0.75,0,0,0.75,0,0)"/>
<path style="fill:none;stroke-width:2;stroke-linecap:butt;stroke-linejoin:miter;stroke:rgb(0%,0%,0%);stroke-opacity:1;stroke-miterlimit:4;" d="M 148.197917 233.802083 L 154.5 223.598958 " transform="matrix(0.75,0,0,0.75,0,0)"/>
<path style="fill:none;stroke-width:2;stroke-linecap:butt;stroke-linejoin:miter;stroke:rgb(100%,0%,0%);stroke-opacity:1;stroke-miterlimit:4;" d="M 154.5 223.598958 L 160.901042 213.5 " transform="matrix(0.75,0,0,0.75,0,0)"/>
<path style="fill:none;stroke-width:2;stroke-linecap:butt;stroke-linejoin:miter;stroke:rgb(0%,0%,0%);stroke-opacity:1;stroke-miterlimit:4;" d="M 153.302083 237 L 159.697917 226.901042 " transform="matrix(0.75,0,0,0.75,0,0)"/>
<path style="fill:none;stroke-width:2;stroke-linecap:butt;stroke-linejoin:miter;stroke:rgb(100%,0%,0%);stroke-opacity:1;stroke-miterlimit:4;" d="M 159.697917 226.901042 L 166 216.697917 " transform="matrix(0.75,0,0,0.75,0,0)"/>
<path style="fill:none;stroke-width:2;stroke-linecap:butt;stroke-linejoin:miter;stroke:rgb(0%,0%,0%);stroke-opacity:1;stroke-miterlimit:4;" d="M 150.697917 235.401042 L 156.5 246.197917 " transform="matrix(0.75,0,0,0.75,0,0)"/>
<path style="fill:none;stroke-width:2;stroke-linecap:butt;stroke-linejoin:miter;stroke:rgb(0%,0%,100%);stroke-opacity:1;stroke-miterlimit:4;" d="M 156.5 246.197917 L 162.197917 257 " transform="matrix(0.75,0,0,0.75,0,0)"/>
<path style="fill-rule:evenodd;fill:rgb(0%,0%,0%);fill-opacity:1;stroke-width:1;stroke-linecap:butt;stroke-linejoin:miter;stroke:rgb(0%,0%,0%);stroke-opacity:1;stroke-miterlimit:4;" d="M 195.401042 263.401042 L 182.802083 264.5 L 182.901042 261.401042 Z M 195.401042 263.401042 " transform="matrix(0.75,0,0,0.75,0,0)"/>
<path style="fill-rule:evenodd;fill:rgb(0%,0%,100%);fill-opacity:1;stroke-width:1;stroke-linecap:butt;stroke-linejoin:miter;stroke:rgb(0%,0%,100%);stroke-opacity:1;stroke-miterlimit:4;" d="M 182.802083 264.5 L 170.401042 259.401042 L 170.197917 265.5 Z M 182.802083 264.5 " transform="matrix(0.75,0,0,0.75,0,0)"/>
<path style="fill-rule:evenodd;fill:rgb(0%,0%,100%);fill-opacity:1;stroke-width:1;stroke-linecap:butt;stroke-linejoin:miter;stroke:rgb(0%,0%,100%);stroke-opacity:1;stroke-miterlimit:4;" d="M 182.802083 264.5 L 182.901042 261.401042 L 170.401042 259.401042 Z M 182.802083 264.5 " transform="matrix(0.75,0,0,0.75,0,0)"/>
<path style="fill:none;stroke-width:2;stroke-linecap:butt;stroke-linejoin:miter;stroke:rgb(0%,0%,0%);stroke-opacity:1;stroke-miterlimit:4;" d="M 195.401042 263.401042 L 216.197917 285.697917 " transform="matrix(0.75,0,0,0.75,0,0)"/>
<path style="fill:none;stroke-width:2;stroke-linecap:butt;stroke-linejoin:miter;stroke:rgb(0%,0%,0%);stroke-opacity:1;stroke-miterlimit:4;" d="M 219.197917 285.802083 L 218.802083 298.302083 " transform="matrix(0.75,0,0,0.75,0,0)"/>
<path style="fill:none;stroke-width:2;stroke-linecap:butt;stroke-linejoin:miter;stroke:rgb(100%,0%,0%);stroke-opacity:1;stroke-miterlimit:4;" d="M 218.802083 298.302083 L 218.302083 310.901042 " transform="matrix(0.75,0,0,0.75,0,0)"/>
<path style="fill:none;stroke-width:2;stroke-linecap:butt;stroke-linejoin:miter;stroke:rgb(0%,0%,0%);stroke-opacity:1;stroke-miterlimit:4;" d="M 213.098958 285.598958 L 212.697917 298.098958 " transform="matrix(0.75,0,0,0.75,0,0)"/>
<path style="fill:none;stroke-width:2;stroke-linecap:butt;stroke-linejoin:miter;stroke:rgb(100%,0%,0%);stroke-opacity:1;stroke-miterlimit:4;" d="M 212.697917 298.098958 L 212.197917 310.697917 " transform="matrix(0.75,0,0,0.75,0,0)"/>
<path style="fill:none;stroke-width:2;stroke-linecap:butt;stroke-linejoin:miter;stroke:rgb(0%,0%,0%);stroke-opacity:1;stroke-miterlimit:4;" d="M 216.197917 285.697917 L 225.197917 277.302083 " transform="matrix(0.75,0,0,0.75,0,0)"/>
<path style="fill:none;stroke-width:2;stroke-linecap:butt;stroke-linejoin:miter;stroke:rgb(0%,0%,100%);stroke-opacity:1;stroke-miterlimit:4;" d="M 225.197917 277.302083 L 234.197917 268.901042 " transform="matrix(0.75,0,0,0.75,0,0)"/>
<path style="fill:none;stroke-width:2;stroke-linecap:butt;stroke-linejoin:miter;stroke:rgb(0%,0%,100%);stroke-opacity:1;stroke-miterlimit:4;" d="M 242.697917 264 L 255.401042 261.098958 " transform="matrix(0.75,0,0,0.75,0,0)"/>
<path style="fill:none;stroke-width:2;stroke-linecap:butt;stroke-linejoin:miter;stroke:rgb(0%,0%,0%);stroke-opacity:1;stroke-miterlimit:4;" d="M 255.401042 261.098958 L 268.098958 258.197917 " transform="matrix(0.75,0,0,0.75,0,0)"/>
<path style="fill:none;stroke-width:2;stroke-linecap:butt;stroke-linejoin:miter;stroke:rgb(0%,0%,0%);stroke-opacity:1;stroke-miterlimit:4;" d="M 268.098958 258.197917 L 288.901042 280.5 " transform="matrix(0.75,0,0,0.75,0,0)"/>
<path style="fill:none;stroke-width:2;stroke-linecap:butt;stroke-linejoin:miter;stroke:rgb(0%,0%,0%);stroke-opacity:1;stroke-miterlimit:4;" d="M 288.197917 277.5 L 300.598958 274.697917 " transform="matrix(0.75,0,0,0.75,0,0)"/>
<path style="fill:none;stroke-width:2;stroke-linecap:butt;stroke-linejoin:miter;stroke:rgb(100%,0%,0%);stroke-opacity:1;stroke-miterlimit:4;" d="M 300.598958 274.697917 L 312.901042 271.802083 " transform="matrix(0.75,0,0,0.75,0,0)"/>
<path style="fill:none;stroke-width:2;stroke-linecap:butt;stroke-linejoin:miter;stroke:rgb(0%,0%,0%);stroke-opacity:1;stroke-miterlimit:4;" d="M 289.598958 283.401042 L 301.901042 280.598958 " transform="matrix(0.75,0,0,0.75,0,0)"/>
<path style="fill:none;stroke-width:2;stroke-linecap:butt;stroke-linejoin:miter;stroke:rgb(100%,0%,0%);stroke-opacity:1;stroke-miterlimit:4;" d="M 301.901042 280.598958 L 314.302083 277.802083 " transform="matrix(0.75,0,0,0.75,0,0)"/>
<path style="fill:none;stroke-width:2;stroke-linecap:butt;stroke-linejoin:miter;stroke:rgb(0%,0%,0%);stroke-opacity:1;stroke-miterlimit:4;" d="M 288.901042 280.5 L 285.197917 292.302083 " transform="matrix(0.75,0,0,0.75,0,0)"/>
<path style="fill:none;stroke-width:2;stroke-linecap:butt;stroke-linejoin:miter;stroke:rgb(100%,0%,0%);stroke-opacity:1;stroke-miterlimit:4;" d="M 285.197917 292.302083 L 281.598958 304.197917 " transform="matrix(0.75,0,0,0.75,0,0)"/>
<path style="fill:none;stroke-width:2;stroke-linecap:butt;stroke-linejoin:miter;stroke:rgb(0%,0%,0%);stroke-opacity:1;stroke-miterlimit:4;" d="M 268.098958 258.197917 L 277.098958 229 " transform="matrix(0.75,0,0,0.75,0,0)"/>
<path style="fill:none;stroke-width:2;stroke-linecap:butt;stroke-linejoin:miter;stroke:rgb(0%,0%,0%);stroke-opacity:1;stroke-miterlimit:4;" d="M 263.697917 252 L 269.901042 231.598958 " transform="matrix(0.75,0,0,0.75,0,0)"/>
<path style="fill:none;stroke-width:2;stroke-linecap:butt;stroke-linejoin:miter;stroke:rgb(0%,0%,0%);stroke-opacity:1;stroke-miterlimit:4;" d="M 277.098958 229 L 306.802083 222.197917 " transform="matrix(0.75,0,0,0.75,0,0)"/>
<path style="fill:none;stroke-width:2;stroke-linecap:butt;stroke-linejoin:miter;stroke:rgb(0%,0%,0%);stroke-opacity:1;stroke-miterlimit:4;" d="M 306.802083 222.197917 L 315.197917 231.401042 " transform="matrix(0.75,0,0,0.75,0,0)"/>
<path style="fill:none;stroke-width:2;stroke-linecap:butt;stroke-linejoin:miter;stroke:rgb(80%,80%,0%);stroke-opacity:1;stroke-miterlimit:4;" d="M 315.197917 231.401042 L 323.697917 240.5 " transform="matrix(0.75,0,0,0.75,0,0)"/>
<path style="fill:none;stroke-width:2;stroke-linecap:butt;stroke-linejoin:miter;stroke:rgb(80%,80%,0%);stroke-opacity:1;stroke-miterlimit:4;" d="M 331.302083 243.697917 L 344.197917 240.697917 " transform="matrix(0.75,0,0,0.75,0,0)"/>
<path style="fill:none;stroke-width:2;stroke-linecap:butt;stroke-linejoin:miter;stroke:rgb(0%,0%,0%);stroke-opacity:1;stroke-miterlimit:4;" d="M 344.197917 240.697917 L 357.197917 237.697917 " transform="matrix(0.75,0,0,0.75,0,0)"/>
<path style="fill:none;stroke-width:2;stroke-linecap:butt;stroke-linejoin:miter;stroke:rgb(0%,0%,0%);stroke-opacity:1;stroke-miterlimit:4;" d="M 357.197917 237.697917 L 362 226.401042 " transform="matrix(0.75,0,0,0.75,0,0)"/>
<path style="fill:none;stroke-width:2;stroke-linecap:butt;stroke-linejoin:miter;stroke:rgb(0%,0%,100%);stroke-opacity:1;stroke-miterlimit:4;" d="M 362 226.401042 L 366.901042 215 " transform="matrix(0.75,0,0,0.75,0,0)"/>
<path style="fill:none;stroke-width:2;stroke-linecap:butt;stroke-linejoin:miter;stroke:rgb(0%,0%,0%);stroke-opacity:1;stroke-miterlimit:4;" d="M 364.197917 236.697917 L 367.598958 228.802083 " transform="matrix(0.75,0,0,0.75,0,0)"/>
<path style="fill:none;stroke-width:2;stroke-linecap:butt;stroke-linejoin:miter;stroke:rgb(0%,0%,100%);stroke-opacity:1;stroke-miterlimit:4;" d="M 367.598958 228.802083 L 371 220.802083 " transform="matrix(0.75,0,0,0.75,0,0)"/>
<path style="fill:none;stroke-width:2;stroke-linecap:butt;stroke-linejoin:miter;stroke:rgb(0%,0%,100%);stroke-opacity:1;stroke-miterlimit:4;" d="M 373.401042 210.098958 L 386.401042 211.302083 " transform="matrix(0.75,0,0,0.75,0,0)"/>
<path style="fill:none;stroke-width:2;stroke-linecap:butt;stroke-linejoin:miter;stroke:rgb(0%,0%,0%);stroke-opacity:1;stroke-miterlimit:4;" d="M 386.401042 211.302083 L 399.5 212.401042 " transform="matrix(0.75,0,0,0.75,0,0)"/>
<path style="fill:none;stroke-width:2;stroke-linecap:butt;stroke-linejoin:miter;stroke:rgb(0%,0%,0%);stroke-opacity:1;stroke-miterlimit:4;" d="M 399.5 212.401042 L 419.5 189.5 " transform="matrix(0.75,0,0,0.75,0,0)"/>
<path style="fill:none;stroke-width:2;stroke-linecap:butt;stroke-linejoin:miter;stroke:rgb(0%,0%,0%);stroke-opacity:1;stroke-miterlimit:4;" d="M 399.5 212.401042 L 406.302083 242.098958 " transform="matrix(0.75,0,0,0.75,0,0)"/>
<path style="fill:none;stroke-width:2;stroke-linecap:butt;stroke-linejoin:miter;stroke:rgb(0%,0%,0%);stroke-opacity:1;stroke-miterlimit:4;" d="M 394.5 218.197917 L 399.302083 239 " transform="matrix(0.75,0,0,0.75,0,0)"/>
<path style="fill:none;stroke-width:2;stroke-linecap:butt;stroke-linejoin:miter;stroke:rgb(0%,0%,0%);stroke-opacity:1;stroke-miterlimit:4;" d="M 406.302083 242.098958 L 434.302083 254 " transform="matrix(0.75,0,0,0.75,0,0)"/>
<path style="fill:none;stroke-width:2;stroke-linecap:butt;stroke-linejoin:miter;stroke:rgb(0%,0%,0%);stroke-opacity:1;stroke-miterlimit:4;" d="M 434.302083 254 L 437.901042 284.302083 " transform="matrix(0.75,0,0,0.75,0,0)"/>
<path style="fill:none;stroke-width:2;stroke-linecap:butt;stroke-linejoin:miter;stroke:rgb(0%,0%,0%);stroke-opacity:1;stroke-miterlimit:4;" d="M 439.802083 286.697917 L 430.098958 294 " transform="matrix(0.75,0,0,0.75,0,0)"/>
<path style="fill:none;stroke-width:2;stroke-linecap:butt;stroke-linejoin:miter;stroke:rgb(100%,0%,0%);stroke-opacity:1;stroke-miterlimit:4;" d="M 430.098958 294 L 420.401042 301.302083 " transform="matrix(0.75,0,0,0.75,0,0)"/>
<path style="fill:none;stroke-width:2;stroke-linecap:butt;stroke-linejoin:miter;stroke:rgb(0%,0%,0%);stroke-opacity:1;stroke-miterlimit:4;" d="M 436.098958 281.802083 L 426.401042 289.098958 " transform="matrix(0.75,0,0,0.75,0,0)"/>
<path style="fill:none;stroke-width:2;stroke-linecap:butt;stroke-linejoin:miter;stroke:rgb(100%,0%,0%);stroke-opacity:1;stroke-miterlimit:4;" d="M 426.401042 289.098958 L 416.697917 296.401042 " transform="matrix(0.75,0,0,0.75,0,0)"/>
<path style="fill:none;stroke-width:2;stroke-linecap:butt;stroke-linejoin:miter;stroke:rgb(0%,0%,0%);stroke-opacity:1;stroke-miterlimit:4;" d="M 437.901042 284.302083 L 449.5 289.197917 " transform="matrix(0.75,0,0,0.75,0,0)"/>
<path style="fill:none;stroke-width:2;stroke-linecap:butt;stroke-linejoin:miter;stroke:rgb(100%,0%,0%);stroke-opacity:1;stroke-miterlimit:4;" d="M 449.5 289.197917 L 461 294.098958 " transform="matrix(0.75,0,0,0.75,0,0)"/>
<path style="fill:none;stroke-width:2;stroke-linecap:butt;stroke-linejoin:miter;stroke:rgb(0%,0%,0%);stroke-opacity:1;stroke-miterlimit:4;" d="M 406.302083 242.098958 L 395.098958 248.802083 " transform="matrix(0.75,0,0,0.75,0,0)"/>
<path style="fill:none;stroke-width:2;stroke-linecap:butt;stroke-linejoin:miter;stroke:rgb(80%,80%,0%);stroke-opacity:1;stroke-miterlimit:4;" d="M 395.098958 248.802083 L 383.901042 255.5 " transform="matrix(0.75,0,0,0.75,0,0)"/>
<path style="fill:none;stroke-width:2;stroke-linecap:butt;stroke-linejoin:miter;stroke:rgb(0%,0%,0%);stroke-opacity:1;stroke-miterlimit:4;" d="M 277.098958 229 L 256.302083 206.697917 " transform="matrix(0.75,0,0,0.75,0,0)"/>
<path style="fill:none;stroke-width:2;stroke-linecap:butt;stroke-linejoin:miter;stroke:rgb(0%,0%,0%);stroke-opacity:1;stroke-miterlimit:4;" d="M 256.302083 206.697917 L 243.401042 209.697917 " transform="matrix(0.75,0,0,0.75,0,0)"/>
<path style="fill:none;stroke-width:2;stroke-linecap:butt;stroke-linejoin:miter;stroke:rgb(80%,80%,0%);stroke-opacity:1;stroke-miterlimit:4;" d="M 243.401042 209.697917 L 230.401042 212.697917 " transform="matrix(0.75,0,0,0.75,0,0)"/>
<path style="fill:none;stroke-width:2;stroke-linecap:butt;stroke-linejoin:miter;stroke:rgb(80%,80%,0%);stroke-opacity:1;stroke-miterlimit:4;" d="M 225 219.098958 L 221.302083 230.901042 " transform="matrix(0.75,0,0,0.75,0,0)"/>
<path style="fill:none;stroke-width:2;stroke-linecap:butt;stroke-linejoin:miter;stroke:rgb(0%,0%,0%);stroke-opacity:1;stroke-miterlimit:4;" d="M 221.302083 230.901042 L 217.697917 242.697917 " transform="matrix(0.75,0,0,0.75,0,0)"/>
<path style="fill:none;stroke-width:2;stroke-linecap:butt;stroke-linejoin:miter;stroke:rgb(0%,0%,0%);stroke-opacity:1;stroke-miterlimit:4;" d="M 120.302083 234.302083 L 104.098958 260.098958 " transform="matrix(0.75,0,0,0.75,0,0)"/>
<path style="fill:none;stroke-width:2;stroke-linecap:butt;stroke-linejoin:miter;stroke:rgb(0%,0%,0%);stroke-opacity:1;stroke-miterlimit:4;" d="M 104.098958 260.098958 L 115.5 288.302083 " transform="matrix(0.75,0,0,0.75,0,0)"/>
<path style="fill:none;stroke-width:2;stroke-linecap:butt;stroke-linejoin:miter;stroke:rgb(0%,0%,0%);stroke-opacity:1;stroke-miterlimit:4;" d="M 100.197917 266.598958 L 108.098958 286.401042 " transform="matrix(0.75,0,0,0.75,0,0)"/>
<path style="fill:none;stroke-width:2;stroke-linecap:butt;stroke-linejoin:miter;stroke:rgb(0%,0%,0%);stroke-opacity:1;stroke-miterlimit:4;" d="M 115.5 288.302083 L 105.697917 296.5 " transform="matrix(0.75,0,0,0.75,0,0)"/>
<path style="fill:none;stroke-width:2;stroke-linecap:butt;stroke-linejoin:miter;stroke:rgb(80%,80%,0%);stroke-opacity:1;stroke-miterlimit:4;" d="M 105.697917 296.5 L 95.901042 304.697917 " transform="matrix(0.75,0,0,0.75,0,0)"/>
<path style="fill:none;stroke-width:2;stroke-linecap:butt;stroke-linejoin:miter;stroke:rgb(80%,80%,0%);stroke-opacity:1;stroke-miterlimit:4;" d="M 88.401042 305.5 L 77.401042 298.598958 " transform="matrix(0.75,0,0,0.75,0,0)"/>
<path style="fill:none;stroke-width:2;stroke-linecap:butt;stroke-linejoin:miter;stroke:rgb(0%,0%,0%);stroke-opacity:1;stroke-miterlimit:4;" d="M 77.401042 298.598958 L 66.302083 291.697917 " transform="matrix(0.75,0,0,0.75,0,0)"/>
<path style="fill:none;stroke-width:2;stroke-linecap:butt;stroke-linejoin:miter;stroke:rgb(0%,0%,0%);stroke-opacity:1;stroke-miterlimit:4;" d="M 66.302083 291.697917 L 54.401042 296.5 " transform="matrix(0.75,0,0,0.75,0,0)"/>
<path style="fill:none;stroke-width:2;stroke-linecap:butt;stroke-linejoin:miter;stroke:rgb(0%,0%,100%);stroke-opacity:1;stroke-miterlimit:4;" d="M 54.401042 296.5 L 42.401042 301.401042 " transform="matrix(0.75,0,0,0.75,0,0)"/>
<path style="fill:none;stroke-width:2;stroke-linecap:butt;stroke-linejoin:miter;stroke:rgb(0%,0%,0%);stroke-opacity:1;stroke-miterlimit:4;" d="M 66.302083 291.697917 L 69.401042 279.598958 " transform="matrix(0.75,0,0,0.75,0,0)"/>
<path style="fill:none;stroke-width:2;stroke-linecap:butt;stroke-linejoin:miter;stroke:rgb(0%,0%,100%);stroke-opacity:1;stroke-miterlimit:4;" d="M 69.401042 279.598958 L 72.401042 267.5 " transform="matrix(0.75,0,0,0.75,0,0)"/>
<path style="fill:none;stroke-width:2;stroke-linecap:butt;stroke-linejoin:miter;stroke:rgb(0%,0%,0%);stroke-opacity:1;stroke-miterlimit:4;" d="M 73.197917 289.598958 L 75.302083 281.098958 " transform="matrix(0.75,0,0,0.75,0,0)"/>
<path style="fill:none;stroke-width:2;stroke-linecap:butt;stroke-linejoin:miter;stroke:rgb(0%,0%,100%);stroke-opacity:1;stroke-miterlimit:4;" d="M 75.302083 281.098958 L 77.401042 272.598958 " transform="matrix(0.75,0,0,0.75,0,0)"/>
<path style="fill:none;stroke-width:2;stroke-linecap:butt;stroke-linejoin:miter;stroke:rgb(0%,0%,0%);stroke-opacity:1;stroke-miterlimit:4;" d="M 217.697917 242.697917 L 195.401042 263.401042 " transform="matrix(0.75,0,0,0.75,0,0)"/>
<path style="fill:none;stroke-width:2;stroke-linecap:butt;stroke-linejoin:miter;stroke:rgb(0%,0%,100%);stroke-opacity:1;stroke-miterlimit:4;" d="M 78 261.901042 L 91.098958 261 " transform="matrix(0.75,0,0,0.75,0,0)"/>
<path style="fill:none;stroke-width:2;stroke-linecap:butt;stroke-linejoin:miter;stroke:rgb(0%,0%,0%);stroke-opacity:1;stroke-miterlimit:4;" d="M 91.098958 261 L 104.098958 260.098958 " transform="matrix(0.75,0,0,0.75,0,0)"/>
<path style="fill:none;stroke-width:2;stroke-linecap:butt;stroke-linejoin:miter;stroke:rgb(0%,0%,0%);stroke-opacity:1;stroke-miterlimit:4;" d="M 217.697917 242.697917 L 226 251.5 " transform="matrix(0.75,0,0,0.75,0,0)"/>
<path style="fill:none;stroke-width:2;stroke-linecap:butt;stroke-linejoin:miter;stroke:rgb(0%,0%,100%);stroke-opacity:1;stroke-miterlimit:4;" d="M 226 251.5 L 234.197917 260.401042 " transform="matrix(0.75,0,0,0.75,0,0)"/>
<path style="fill:none;stroke-width:2;stroke-linecap:butt;stroke-linejoin:miter;stroke:rgb(80%,80%,0%);stroke-opacity:1;stroke-miterlimit:4;" d="M 376.401042 254.5 L 366.802083 246.098958 " transform="matrix(0.75,0,0,0.75,0,0)"/>
<path style="fill:none;stroke-width:2;stroke-linecap:butt;stroke-linejoin:miter;stroke:rgb(0%,0%,0%);stroke-opacity:1;stroke-miterlimit:4;" d="M 366.802083 246.098958 L 357.197917 237.697917 " transform="matrix(0.75,0,0,0.75,0,0)"/>
<path style="fill:none;stroke-width:1;stroke-linecap:butt;stroke-linejoin:miter;stroke:rgb(0%,0%,0%);stroke-opacity:1;stroke-miterlimit:4;" d="M 213 238.802083 L 212.197917 240.098958 " transform="matrix(0.75,0,0,0.75,0,0)"/>
<path style="fill:none;stroke-width:1;stroke-linecap:butt;stroke-linejoin:miter;stroke:rgb(0%,0%,0%);stroke-opacity:1;stroke-miterlimit:4;" d="M 208.302083 235 L 206.697917 237.598958 " transform="matrix(0.75,0,0,0.75,0,0)"/>
<path style="fill:none;stroke-width:1;stroke-linecap:butt;stroke-linejoin:miter;stroke:rgb(0%,0%,0%);stroke-opacity:1;stroke-miterlimit:4;" d="M 203.598958 231.098958 L 201.197917 235 " transform="matrix(0.75,0,0,0.75,0,0)"/>
<path style="fill:none;stroke-width:1;stroke-linecap:butt;stroke-linejoin:miter;stroke:rgb(0%,0%,0%);stroke-opacity:1;stroke-miterlimit:4;" d="M 198.901042 227.302083 L 195.697917 232.401042 " transform="matrix(0.75,0,0,0.75,0,0)"/>
<path style=" stroke:none;fill-rule:nonzero;fill:rgb(100%,0%,0%);fill-opacity:1;" d="M 53.773438 154.726562 C 53.773438 153.675781 54.023438 152.875 54.523438 152.324219 C 55.023438 151.726562 55.75 151.425781 56.699219 151.425781 C 57.648438 151.425781 58.398438 151.726562 58.949219 152.324219 C 59.449219 152.875 59.699219 153.675781 59.699219 154.726562 C 59.699219 155.773438 59.425781 156.601562 58.875 157.199219 C 58.375 157.800781 57.648438 158.101562 56.699219 158.101562 C 55.75 158.101562 55.023438 157.800781 54.523438 157.199219 C 54.023438 156.601562 53.773438 155.773438 53.773438 154.726562 M 56.699219 157.351562 C 57.351562 157.351562 57.851562 157.125 58.199219 156.675781 C 58.601562 156.226562 58.800781 155.574219 58.800781 154.726562 C 58.800781 153.875 58.601562 153.25 58.199219 152.851562 C 57.851562 152.398438 57.351562 152.175781 56.699219 152.175781 C 56.050781 152.175781 55.550781 152.375 55.199219 152.773438 C 54.851562 153.226562 54.675781 153.875 54.675781 154.726562 C 54.675781 155.574219 54.851562 156.226562 55.199219 156.675781 C 55.550781 157.125 56.050781 157.351562 56.699219 157.351562 "/>
<path style=" stroke:none;fill-rule:nonzero;fill:rgb(0%,0%,100%);fill-opacity:1;" d="M 78.074219 152.324219 L 80.25 155.699219 C 80.351562 155.949219 80.523438 156.273438 80.773438 156.675781 C 80.976562 157.074219 81.101562 157.300781 81.148438 157.351562 L 81.148438 152.324219 L 81.976562 152.324219 L 81.976562 158.773438 L 81.074219 158.773438 L 78.824219 155.023438 C 78.625 154.726562 78.449219 154.398438 78.300781 154.050781 C 78.101562 153.75 77.976562 153.550781 77.925781 153.449219 L 77.925781 158.773438 L 77.101562 158.773438 L 77.101562 152.324219 L 78.074219 152.324219 "/>
<path style=" stroke:none;fill-rule:nonzero;fill:rgb(100%,0%,0%);fill-opacity:1;" d="M 122.25 157.199219 C 122.25 156.148438 122.5 155.351562 123 154.800781 C 123.5 154.199219 124.226562 153.898438 125.175781 153.898438 C 126.125 153.898438 126.851562 154.199219 127.351562 154.800781 C 127.898438 155.351562 128.175781 156.148438 128.175781 157.199219 C 128.175781 158.25 127.898438 159.074219 127.351562 159.675781 C 126.851562 160.273438 126.125 160.574219 125.175781 160.574219 C 124.226562 160.574219 123.5 160.273438 123 159.675781 C 122.5 159.074219 122.25 158.25 122.25 157.199219 M 125.175781 159.824219 C 125.824219 159.824219 126.324219 159.601562 126.675781 159.148438 C 127.023438 158.699219 127.199219 158.050781 127.199219 157.199219 C 127.199219 156.351562 127.023438 155.726562 126.675781 155.324219 C 126.324219 154.875 125.824219 154.648438 125.175781 154.648438 C 124.523438 154.648438 124.023438 154.875 123.675781 155.324219 C 123.324219 155.726562 123.148438 156.351562 123.148438 157.199219 C 123.148438 158.101562 123.324219 158.75 123.675781 159.148438 C 124.023438 159.601562 124.523438 159.824219 125.175781 159.824219 "/>
<path style=" stroke:none;fill-rule:nonzero;fill:rgb(0%,0%,100%);fill-opacity:1;" d="M 115.425781 193.5 L 116.324219 193.5 L 116.324219 196.273438 L 119.625 196.273438 L 119.625 193.5 L 120.523438 193.5 L 120.523438 199.949219 L 119.625 199.949219 L 119.625 196.949219 L 116.324219 196.949219 L 116.324219 199.949219 L 115.425781 199.949219 L 115.425781 193.5 "/>
<path style=" stroke:none;fill-rule:nonzero;fill:rgb(0%,0%,100%);fill-opacity:1;" d="M 122.324219 193.5 L 124.425781 196.949219 C 124.574219 197.148438 124.75 197.449219 124.949219 197.851562 C 125.199219 198.25 125.324219 198.476562 125.324219 198.523438 L 125.324219 193.5 L 126.226562 193.5 L 126.226562 199.949219 L 125.324219 199.949219 L 123.074219 196.199219 C 122.875 195.898438 122.675781 195.601562 122.476562 195.300781 C 122.324219 194.949219 122.199219 194.726562 122.101562 194.625 L 122.101562 199.949219 L 121.273438 199.949219 L 121.273438 193.5 L 122.324219 193.5 "/>
<path style=" stroke:none;fill-rule:nonzero;fill:rgb(100%,0%,0%);fill-opacity:1;" d="M 158.324219 237.148438 C 158.324219 236.101562 158.574219 235.273438 159.074219 234.675781 C 159.574219 234.125 160.324219 233.851562 161.324219 233.851562 C 162.273438 233.851562 163 234.125 163.5 234.675781 C 164 235.273438 164.25 236.101562 164.25 237.148438 C 164.25 238.199219 164 239 163.5 239.550781 C 162.949219 240.148438 162.226562 240.449219 161.324219 240.449219 C 160.375 240.449219 159.625 240.148438 159.074219 239.550781 C 158.574219 239 158.324219 238.199219 158.324219 237.148438 M 161.324219 239.773438 C 161.976562 239.773438 162.476562 239.550781 162.824219 239.101562 C 163.175781 238.648438 163.351562 238 163.351562 237.148438 C 163.351562 236.300781 163.175781 235.648438 162.824219 235.199219 C 162.476562 234.75 161.976562 234.523438 161.324219 234.523438 C 160.625 234.523438 160.101562 234.75 159.75 235.199219 C 159.398438 235.648438 159.226562 236.300781 159.226562 237.148438 C 159.226562 238 159.398438 238.648438 159.75 239.101562 C 160.101562 239.550781 160.625 239.773438 161.324219 239.773438 "/>
<path style=" stroke:none;fill-rule:nonzero;fill:rgb(0%,0%,100%);fill-opacity:1;" d="M 177.449219 195.523438 L 179.550781 198.898438 C 179.699219 199.148438 179.875 199.476562 180.074219 199.875 C 180.324219 200.273438 180.449219 200.5 180.449219 200.550781 L 180.449219 195.523438 L 181.273438 195.523438 L 181.273438 201.976562 L 180.449219 201.976562 L 178.125 198.226562 C 177.976562 197.925781 177.800781 197.601562 177.601562 197.25 C 177.398438 196.949219 177.273438 196.75 177.226562 196.648438 L 177.226562 201.976562 L 176.398438 201.976562 L 176.398438 195.523438 L 177.449219 195.523438 "/>
<path style=" stroke:none;fill-rule:nonzero;fill:rgb(100%,0%,0%);fill-opacity:1;" d="M 235.949219 205.273438 C 235.949219 204.226562 236.199219 203.398438 236.699219 202.800781 C 237.199219 202.25 237.949219 201.976562 238.949219 201.976562 C 239.898438 201.976562 240.625 202.25 241.125 202.800781 C 241.625 203.398438 241.875 204.226562 241.875 205.273438 C 241.875 206.324219 241.625 207.148438 241.125 207.75 C 240.574219 208.300781 239.851562 208.574219 238.949219 208.574219 C 238 208.574219 237.25 208.300781 236.699219 207.75 C 236.199219 207.148438 235.949219 206.324219 235.949219 205.273438 M 238.949219 207.898438 C 239.601562 207.898438 240.101562 207.675781 240.449219 207.226562 C 240.800781 206.773438 240.976562 206.125 240.976562 205.273438 C 240.976562 204.425781 240.800781 203.773438 240.449219 203.324219 C 240.101562 202.925781 239.601562 202.726562 238.949219 202.726562 C 238.25 202.726562 237.726562 202.925781 237.375 203.324219 C 237.023438 203.773438 236.851562 204.425781 236.851562 205.273438 C 236.851562 206.125 237.023438 206.773438 237.375 207.226562 C 237.726562 207.675781 238.25 207.898438 238.949219 207.898438 "/>
<path style=" stroke:none;fill-rule:nonzero;fill:rgb(100%,0%,0%);fill-opacity:1;" d="M 207 232.199219 C 207 231.148438 207.25 230.351562 207.75 229.800781 C 208.25 229.199219 208.976562 228.898438 209.925781 228.898438 C 210.875 228.898438 211.625 229.199219 212.175781 229.800781 C 212.675781 230.351562 212.925781 231.148438 212.925781 232.199219 C 212.925781 233.25 212.675781 234.074219 212.175781 234.675781 C 211.625 235.273438 210.875 235.574219 209.925781 235.574219 C 208.976562 235.574219 208.25 235.273438 207.75 234.675781 C 207.25 234.074219 207 233.25 207 232.199219 M 209.925781 234.824219 C 210.625 234.824219 211.148438 234.601562 211.5 234.148438 C 211.851562 233.699219 212.023438 233.050781 212.023438 232.199219 C 212.023438 231.351562 211.851562 230.699219 211.5 230.25 C 211.148438 229.851562 210.625 229.648438 209.925781 229.648438 C 209.273438 229.648438 208.773438 229.851562 208.425781 230.25 C 208.074219 230.699219 207.898438 231.351562 207.898438 232.199219 C 207.898438 233.050781 208.074219 233.699219 208.425781 234.148438 C 208.773438 234.601562 209.273438 234.824219 209.925781 234.824219 "/>
<path style=" stroke:none;fill-rule:nonzero;fill:rgb(100%,0%,0%);fill-opacity:1;" d="M 213.375 228.976562 L 214.273438 228.976562 L 214.273438 231.75 L 217.574219 231.75 L 217.574219 228.976562 L 218.476562 228.976562 L 218.476562 235.425781 L 217.574219 235.425781 L 217.574219 232.425781 L 214.273438 232.425781 L 214.273438 235.425781 L 213.375 235.425781 L 213.375 228.976562 "/>
<path style=" stroke:none;fill-rule:nonzero;fill:rgb(80%,80%,0%);fill-opacity:1;" d="M 243.824219 185.625 C 243.875 185.625 244 185.675781 244.199219 185.773438 C 244.398438 185.875 244.601562 185.949219 244.800781 186 C 245.050781 186.050781 245.273438 186.074219 245.476562 186.074219 C 245.875 186.074219 246.199219 185.976562 246.449219 185.773438 C 246.699219 185.574219 246.824219 185.300781 246.824219 184.949219 C 246.824219 184.699219 246.75 184.5 246.601562 184.351562 C 246.5 184.199219 246.351562 184.101562 246.148438 184.050781 C 246 183.949219 245.75 183.851562 245.398438 183.75 C 245.050781 183.648438 244.75 183.550781 244.5 183.449219 C 244.300781 183.351562 244.101562 183.175781 243.898438 182.925781 C 243.75 182.675781 243.675781 182.375 243.675781 182.023438 C 243.675781 181.476562 243.875 181.023438 244.273438 180.675781 C 244.625 180.324219 245.175781 180.148438 245.925781 180.148438 C 246.425781 180.148438 246.949219 180.273438 247.5 180.523438 L 247.273438 181.273438 C 246.773438 181.023438 246.324219 180.898438 245.925781 180.898438 C 245.523438 180.898438 245.199219 181 244.949219 181.199219 C 244.699219 181.351562 244.574219 181.574219 244.574219 181.875 C 244.574219 182.125 244.648438 182.324219 244.800781 182.476562 C 244.898438 182.574219 245.050781 182.675781 245.25 182.773438 C 245.398438 182.875 245.625 182.949219 245.925781 183 C 246.324219 183.148438 246.625 183.273438 246.824219 183.375 C 247.074219 183.523438 247.273438 183.726562 247.425781 183.976562 C 247.625 184.226562 247.726562 184.550781 247.726562 184.949219 C 247.726562 185.550781 247.523438 186 247.125 186.300781 C 246.726562 186.648438 246.175781 186.824219 245.476562 186.824219 C 245.125 186.824219 244.800781 186.773438 244.5 186.675781 C 244.199219 186.574219 243.875 186.476562 243.523438 186.375 L 243.824219 185.625 "/>
<path style=" stroke:none;fill-rule:nonzero;fill:rgb(0%,0%,100%);fill-opacity:1;" d="M 275.398438 154.050781 L 277.5 157.5 C 277.648438 157.699219 277.851562 158 278.101562 158.398438 C 278.300781 158.851562 278.398438 159.074219 278.398438 159.074219 L 278.398438 154.050781 L 279.300781 154.050781 L 279.300781 160.5 L 278.398438 160.5 L 276.148438 156.75 C 275.949219 156.449219 275.75 156.148438 275.550781 155.851562 C 275.398438 155.5 275.300781 155.273438 275.25 155.175781 L 275.25 160.5 L 274.351562 160.5 L 274.351562 154.050781 L 275.398438 154.050781 "/>
<path style=" stroke:none;fill-rule:nonzero;fill:rgb(100%,0%,0%);fill-opacity:1;" d="M 307.199219 226.949219 C 307.199219 225.898438 307.476562 225.074219 308.023438 224.476562 C 308.523438 223.925781 309.25 223.648438 310.199219 223.648438 C 311.148438 223.648438 311.875 223.925781 312.375 224.476562 C 312.925781 225.074219 313.199219 225.898438 313.199219 226.949219 C 313.199219 228 312.925781 228.824219 312.375 229.425781 C 311.875 229.976562 311.148438 230.25 310.199219 230.25 C 309.25 230.25 308.523438 229.976562 308.023438 229.425781 C 307.476562 228.824219 307.199219 228 307.199219 226.949219 M 310.199219 229.574219 C 310.851562 229.574219 311.351562 229.351562 311.699219 228.898438 C 312.050781 228.449219 312.226562 227.800781 312.226562 226.949219 C 312.226562 226.101562 312.050781 225.449219 311.699219 225 C 311.351562 224.601562 310.851562 224.398438 310.199219 224.398438 C 309.550781 224.398438 309.050781 224.601562 308.699219 225 C 308.351562 225.449219 308.175781 226.101562 308.175781 226.949219 C 308.175781 227.800781 308.351562 228.449219 308.699219 228.898438 C 309.050781 229.351562 309.550781 229.574219 310.199219 229.574219 "/>
<path style=" stroke:none;fill-rule:nonzero;fill:rgb(100%,0%,0%);fill-opacity:1;" d="M 346.5 222.148438 C 346.5 221.101562 346.75 220.300781 347.25 219.75 C 347.75 219.148438 348.5 218.851562 349.5 218.851562 C 350.449219 218.851562 351.175781 219.148438 351.675781 219.75 C 352.175781 220.300781 352.425781 221.101562 352.425781 222.148438 C 352.425781 223.199219 352.175781 224.023438 351.675781 224.625 C 351.125 225.226562 350.398438 225.523438 349.5 225.523438 C 348.550781 225.523438 347.800781 225.226562 347.25 224.625 C 346.75 224.023438 346.5 223.199219 346.5 222.148438 M 349.5 224.773438 C 350.148438 224.773438 350.648438 224.550781 351 224.101562 C 351.351562 223.648438 351.523438 223 351.523438 222.148438 C 351.523438 221.300781 351.351562 220.675781 351 220.273438 C 350.648438 219.824219 350.148438 219.601562 349.5 219.601562 C 348.800781 219.601562 348.273438 219.824219 347.925781 220.273438 C 347.574219 220.675781 347.398438 221.300781 347.398438 222.148438 C 347.398438 223.050781 347.574219 223.699219 347.925781 224.101562 C 348.273438 224.550781 348.800781 224.773438 349.5 224.773438 "/>
<path style=" stroke:none;fill-rule:nonzero;fill:rgb(100%,0%,0%);fill-opacity:1;" d="M 352.875 218.925781 L 353.773438 218.925781 L 353.773438 221.699219 L 357.074219 221.699219 L 357.074219 218.925781 L 357.976562 218.925781 L 357.976562 225.449219 L 357.074219 225.449219 L 357.074219 222.449219 L 353.773438 222.449219 L 353.773438 225.449219 L 352.875 225.449219 L 352.875 218.925781 "/>
<path style=" stroke:none;fill-rule:nonzero;fill:rgb(80%,80%,0%);fill-opacity:1;" d="M 283.273438 195.523438 C 283.324219 195.523438 283.449219 195.574219 283.648438 195.675781 C 283.851562 195.773438 284.050781 195.851562 284.25 195.898438 C 284.5 195.949219 284.726562 195.976562 284.925781 195.976562 C 285.324219 195.976562 285.648438 195.875 285.898438 195.675781 C 286.148438 195.476562 286.273438 195.199219 286.273438 194.851562 C 286.273438 194.601562 286.226562 194.398438 286.125 194.25 C 285.976562 194.101562 285.824219 194 285.675781 193.949219 C 285.476562 193.851562 285.226562 193.75 284.925781 193.648438 C 284.523438 193.550781 284.226562 193.449219 284.023438 193.351562 C 283.773438 193.25 283.574219 193.074219 283.425781 192.824219 C 283.273438 192.574219 283.199219 192.273438 283.199219 191.925781 C 283.199219 191.375 283.375 190.925781 283.726562 190.574219 C 284.074219 190.226562 284.625 190.050781 285.375 190.050781 C 285.875 190.050781 286.398438 190.175781 286.949219 190.425781 L 286.726562 191.175781 C 286.226562 190.925781 285.773438 190.800781 285.375 190.800781 C 284.976562 190.800781 284.648438 190.898438 284.398438 191.101562 C 284.199219 191.25 284.101562 191.476562 284.101562 191.773438 C 284.101562 192.023438 284.148438 192.226562 284.25 192.375 C 284.351562 192.476562 284.5 192.574219 284.699219 192.675781 C 284.851562 192.773438 285.074219 192.851562 285.375 192.898438 C 285.773438 193.050781 286.101562 193.175781 286.351562 193.273438 C 286.550781 193.425781 286.75 193.625 286.949219 193.875 C 287.101562 194.125 287.175781 194.449219 287.175781 194.851562 C 287.175781 195.449219 286.976562 195.898438 286.574219 196.199219 C 286.175781 196.550781 285.648438 196.726562 285 196.726562 C 284.601562 196.726562 284.25 196.675781 283.949219 196.574219 C 283.699219 196.476562 283.398438 196.375 283.050781 196.273438 L 283.273438 195.523438 "/>
<path style=" stroke:none;fill-rule:nonzero;fill:rgb(80%,80%,0%);fill-opacity:1;" d="M 168.148438 162.375 C 168.199219 162.425781 168.324219 162.476562 168.523438 162.523438 C 168.726562 162.625 168.949219 162.699219 169.199219 162.75 C 169.398438 162.800781 169.625 162.824219 169.875 162.824219 C 170.273438 162.824219 170.601562 162.726562 170.851562 162.523438 C 171.050781 162.324219 171.148438 162.050781 171.148438 161.699219 C 171.148438 161.449219 171.101562 161.25 171 161.101562 C 170.898438 161 170.75 160.898438 170.550781 160.800781 C 170.351562 160.699219 170.101562 160.625 169.800781 160.574219 C 169.398438 160.425781 169.101562 160.300781 168.898438 160.199219 C 168.648438 160.101562 168.449219 159.925781 168.300781 159.675781 C 168.148438 159.476562 168.074219 159.175781 168.074219 158.773438 C 168.074219 158.226562 168.25 157.773438 168.601562 157.425781 C 169 157.125 169.550781 156.976562 170.25 156.976562 C 170.75 156.976562 171.300781 157.074219 171.898438 157.273438 L 171.675781 158.023438 C 171.125 157.773438 170.675781 157.648438 170.324219 157.648438 C 169.875 157.648438 169.550781 157.75 169.351562 157.949219 C 169.101562 158.101562 168.976562 158.324219 168.976562 158.625 C 168.976562 158.875 169.023438 159.074219 169.125 159.226562 C 169.273438 159.375 169.425781 159.476562 169.574219 159.523438 C 169.773438 159.625 170.023438 159.726562 170.324219 159.824219 C 170.675781 159.925781 170.976562 160.023438 171.226562 160.125 C 171.476562 160.273438 171.675781 160.476562 171.824219 160.726562 C 171.976562 160.976562 172.050781 161.300781 172.050781 161.699219 C 172.050781 162.300781 171.851562 162.773438 171.449219 163.125 C 171.050781 163.425781 170.523438 163.574219 169.875 163.574219 C 169.476562 163.574219 169.148438 163.523438 168.898438 163.425781 C 168.601562 163.375 168.273438 163.273438 167.925781 163.125 L 168.148438 162.375 "/>
<path style=" stroke:none;fill-rule:nonzero;fill:rgb(80%,80%,0%);fill-opacity:1;" d="M 67.273438 233.101562 C 67.324219 233.148438 67.449219 233.199219 67.648438 233.25 C 67.851562 233.351562 68.074219 233.425781 68.324219 233.476562 C 68.523438 233.523438 68.726562 233.550781 68.925781 233.550781 C 69.375 233.550781 69.699219 233.449219 69.898438 233.25 C 70.148438 233.050781 70.273438 232.773438 70.273438 232.425781 C 70.273438 232.226562 70.226562 232.050781 70.125 231.898438 C 69.976562 231.75 69.824219 231.625 69.675781 231.523438 C 69.476562 231.476562 69.226562 231.398438 68.925781 231.300781 C 68.523438 231.148438 68.226562 231.023438 68.023438 230.925781 C 67.773438 230.824219 67.574219 230.648438 67.425781 230.398438 C 67.273438 230.199219 67.199219 229.898438 67.199219 229.5 C 67.199219 228.949219 67.375 228.523438 67.726562 228.226562 C 68.074219 227.875 68.625 227.699219 69.375 227.699219 C 69.875 227.699219 70.398438 227.824219 70.949219 228.074219 L 70.800781 228.75 C 70.25 228.550781 69.773438 228.449219 69.375 228.449219 C 68.976562 228.449219 68.648438 228.523438 68.398438 228.675781 C 68.199219 228.875 68.101562 229.125 68.101562 229.425781 C 68.101562 229.625 68.148438 229.800781 68.25 229.949219 C 68.398438 230.101562 68.550781 230.199219 68.699219 230.25 C 68.898438 230.351562 69.125 230.449219 69.375 230.550781 C 69.773438 230.648438 70.101562 230.773438 70.351562 230.925781 C 70.550781 231.023438 70.75 231.199219 70.949219 231.449219 C 71.101562 231.699219 71.175781 232.023438 71.175781 232.425781 C 71.175781 233.023438 70.976562 233.5 70.574219 233.851562 C 70.175781 234.148438 69.648438 234.300781 69 234.300781 C 68.601562 234.300781 68.25 234.25 67.949219 234.148438 C 67.699219 234.101562 67.398438 234 67.050781 233.851562 L 67.273438 233.101562 "/>
<path style=" stroke:none;fill-rule:nonzero;fill:rgb(0%,0%,100%);fill-opacity:1;" d="M 17.023438 224.101562 L 17.925781 224.101562 L 17.925781 226.800781 L 21.226562 226.800781 L 21.226562 224.101562 L 22.125 224.101562 L 22.125 230.550781 L 21.226562 230.550781 L 21.226562 227.550781 L 17.925781 227.550781 L 17.925781 230.550781 L 17.023438 230.550781 L 17.023438 224.101562 "/>
<path style=" stroke:none;fill-rule:nonzero;fill:rgb(0%,0%,100%);fill-opacity:1;" d="M 22.875 230.324219 C 22.976562 230.023438 23.148438 229.824219 23.398438 229.726562 C 23.648438 229.523438 23.949219 229.425781 24.300781 229.425781 C 24.75 229.425781 25.101562 229.550781 25.351562 229.800781 C 25.550781 230.050781 25.648438 230.375 25.648438 230.773438 C 25.648438 231.226562 25.5 231.625 25.199219 231.976562 C 24.898438 232.375 24.425781 232.824219 23.773438 233.324219 L 25.726562 233.324219 L 25.726562 233.773438 L 22.875 233.773438 L 22.875 233.398438 C 23.425781 233 23.851562 232.648438 24.148438 232.351562 C 24.449219 232.101562 24.675781 231.851562 24.824219 231.601562 C 24.976562 231.351562 25.050781 231.074219 25.050781 230.773438 C 25.050781 230.523438 25 230.324219 24.898438 230.175781 C 24.75 230.023438 24.550781 229.949219 24.300781 229.949219 C 24.101562 229.949219 23.925781 230 23.773438 230.101562 C 23.625 230.199219 23.476562 230.351562 23.324219 230.550781 L 22.875 230.324219 "/>
<path style=" stroke:none;fill-rule:nonzero;fill:rgb(0%,0%,100%);fill-opacity:1;" d="M 27.148438 224.101562 L 29.25 227.476562 C 29.398438 227.726562 29.574219 228.050781 29.773438 228.449219 C 30.023438 228.851562 30.148438 229.074219 30.148438 229.125 L 30.148438 224.101562 L 31.050781 224.101562 L 31.050781 230.550781 L 30.148438 230.550781 L 27.898438 226.800781 C 27.699219 226.5 27.5 226.175781 27.300781 225.824219 C 27.148438 225.523438 27.023438 225.324219 26.925781 225.226562 L 26.925781 230.550781 L 26.101562 230.550781 L 26.101562 224.101562 L 27.148438 224.101562 "/>
<path style=" stroke:none;fill-rule:nonzero;fill:rgb(0%,0%,100%);fill-opacity:1;" d="M 53.851562 193.425781 L 56.023438 196.800781 C 56.175781 197.050781 56.351562 197.375 56.550781 197.773438 C 56.800781 198.175781 56.925781 198.398438 56.925781 198.449219 L 56.925781 193.425781 L 57.75 193.425781 L 57.75 199.875 L 56.851562 199.875 L 54.601562 196.125 C 54.449219 195.824219 54.273438 195.5 54.074219 195.148438 C 53.875 194.851562 53.75 194.648438 53.699219 194.550781 L 53.699219 199.875 L 52.875 199.875 L 52.875 193.425781 L 53.851562 193.425781 "/>
<path style=" stroke:none;fill-rule:nonzero;fill:rgb(0%,0%,0%);fill-opacity:1;" d="M 141.375 166.648438 L 142.273438 166.648438 L 142.273438 169.351562 L 145.574219 169.351562 L 145.574219 166.648438 L 146.476562 166.648438 L 146.476562 173.101562 L 145.574219 173.101562 L 145.574219 170.101562 L 142.273438 170.101562 L 142.273438 173.101562 L 141.375 173.101562 L 141.375 166.648438 "/>
</g>
</svg>
