<?xml version="1.0" encoding="UTF-8"?>
<svg xmlns="http://www.w3.org/2000/svg" xmlns:xlink="http://www.w3.org/1999/xlink" width="375pt" height="375pt" viewBox="0 0 375 375" version="1.1">
<g id="surface66">
<rect x="0" y="0" width="375" height="375" style="fill:rgb(100%,100%,100%);fill-opacity:1;stroke:none;"/>
<path style="fill:none;stroke-width:2;stroke-linecap:butt;stroke-linejoin:miter;stroke:rgb(0%,0%,0%);stroke-opacity:1;stroke-miterlimit:4;" d="M 22.697917 244.5 L 33.401042 257.302083 " transform="matrix(0.75,0,0,0.75,0,0)"/>
<path style="fill:none;stroke-width:2;stroke-linecap:butt;stroke-linejoin:miter;stroke:rgb(0%,0%,0%);stroke-opacity:1;stroke-miterlimit:4;" d="M 33.401042 257.302083 L 49.802083 254.5 " transform="matrix(0.75,0,0,0.75,0,0)"/>
<path style="fill:none;stroke-width:2;stroke-linecap:butt;stroke-linejoin:miter;stroke:rgb(0%,0%,0%);stroke-opacity:1;stroke-miterlimit:4;" d="M 49.802083 254.5 L 60.401042 267.302083 " transform="matrix(0.75,0,0,0.75,0,0)"/>
<path style="fill:none;stroke-width:2;stroke-linecap:butt;stroke-linejoin:miter;stroke:rgb(0%,0%,0%);stroke-opacity:1;stroke-miterlimit:4;" d="M 60.401042 267.302083 L 76.802083 264.401042 " transform="matrix(0.75,0,0,0.75,0,0)"/>
<path style="fill:none;stroke-width:2;stroke-linecap:butt;stroke-linejoin:miter;stroke:rgb(0%,0%,0%);stroke-opacity:1;stroke-miterlimit:4;" d="M 76.802083 264.401042 L 80.901042 269.401042 " transform="matrix(0.75,0,0,0.75,0,0)"/>
<path style="fill:none;stroke-width:2;stroke-linecap:butt;stroke-linejoin:miter;stroke:rgb(100%,0%,0%);stroke-opacity:1;stroke-miterlimit:4;" d="M 80.901042 269.401042 L 85 274.302083 " transform="matrix(0.75,0,0,0.75,0,0)"/>
<path style="fill:none;stroke-width:2;stroke-linecap:butt;stroke-linejoin:miter;stroke:rgb(100%,0%,0%);stroke-opacity:1;stroke-miterlimit:4;" d="M 90.197917 276.697917 L 97 275.598958 " transform="matrix(0.75,0,0,0.75,0,0)"/>
<path style="fill:none;stroke-width:2;stroke-linecap:butt;stroke-linejoin:miter;stroke:rgb(0%,0%,0%);stroke-opacity:1;stroke-miterlimit:4;" d="M 97 275.598958 L 103.802083 274.401042 " transform="matrix(0.75,0,0,0.75,0,0)"/>
<path style="fill:none;stroke-width:2;stroke-linecap:butt;stroke-linejoin:miter;stroke:rgb(0%,0%,0%);stroke-opacity:1;stroke-miterlimit:4;" d="M 103.802083 274.401042 L 109.598958 258.802083 " transform="matrix(0.75,0,0,0.75,0,0)"/>
<path style="fill:none;stroke-width:2;stroke-linecap:butt;stroke-linejoin:miter;stroke:rgb(0%,0%,0%);stroke-opacity:1;stroke-miterlimit:4;" d="M 107.802083 273.197917 L 111.802083 262.302083 " transform="matrix(0.75,0,0,0.75,0,0)"/>
<path style="fill:none;stroke-width:2;stroke-linecap:butt;stroke-linejoin:miter;stroke:rgb(0%,0%,0%);stroke-opacity:1;stroke-miterlimit:4;" d="M 109.598958 258.802083 L 126 255.901042 " transform="matrix(0.75,0,0,0.75,0,0)"/>
<path style="fill:none;stroke-width:2;stroke-linecap:butt;stroke-linejoin:miter;stroke:rgb(0%,0%,0%);stroke-opacity:1;stroke-miterlimit:4;" d="M 126 255.901042 L 136.598958 268.697917 " transform="matrix(0.75,0,0,0.75,0,0)"/>
<path style="fill:none;stroke-width:2;stroke-linecap:butt;stroke-linejoin:miter;stroke:rgb(0%,0%,0%);stroke-opacity:1;stroke-miterlimit:4;" d="M 125 260 L 132.5 268.901042 " transform="matrix(0.75,0,0,0.75,0,0)"/>
<path style="fill:none;stroke-width:2;stroke-linecap:butt;stroke-linejoin:miter;stroke:rgb(0%,0%,0%);stroke-opacity:1;stroke-miterlimit:4;" d="M 136.598958 268.697917 L 153 265.901042 " transform="matrix(0.75,0,0,0.75,0,0)"/>
<path style="fill:none;stroke-width:2;stroke-linecap:butt;stroke-linejoin:miter;stroke:rgb(0%,0%,0%);stroke-opacity:1;stroke-miterlimit:4;" d="M 153 265.901042 L 163.697917 278.697917 " transform="matrix(0.75,0,0,0.75,0,0)"/>
<path style="fill:none;stroke-width:2;stroke-linecap:butt;stroke-linejoin:miter;stroke:rgb(0%,0%,0%);stroke-opacity:1;stroke-miterlimit:4;" d="M 157.197917 265.697917 L 164.598958 274.598958 " transform="matrix(0.75,0,0,0.75,0,0)"/>
<path style="fill:none;stroke-width:2;stroke-linecap:butt;stroke-linejoin:miter;stroke:rgb(0%,0%,0%);stroke-opacity:1;stroke-miterlimit:4;" d="M 163.697917 278.697917 L 180.098958 275.901042 " transform="matrix(0.75,0,0,0.75,0,0)"/>
<path style="fill:none;stroke-width:2;stroke-linecap:butt;stroke-linejoin:miter;stroke:rgb(0%,0%,0%);stroke-opacity:1;stroke-miterlimit:4;" d="M 180.098958 275.901042 L 185.802083 260.197917 " transform="matrix(0.75,0,0,0.75,0,0)"/>
<path style="fill:none;stroke-width:2;stroke-linecap:butt;stroke-linejoin:miter;stroke:rgb(0%,0%,0%);stroke-opacity:1;stroke-miterlimit:4;" d="M 177.802083 272.401042 L 181.802083 261.401042 " transform="matrix(0.75,0,0,0.75,0,0)"/>
<path style="fill:none;stroke-width:2;stroke-linecap:butt;stroke-linejoin:miter;stroke:rgb(0%,0%,0%);stroke-opacity:1;stroke-miterlimit:4;" d="M 185.802083 260.197917 L 202.197917 257.401042 " transform="matrix(0.75,0,0,0.75,0,0)"/>
<path style="fill:none;stroke-width:2;stroke-linecap:butt;stroke-linejoin:miter;stroke:rgb(0%,0%,0%);stroke-opacity:1;stroke-miterlimit:4;" d="M 202.197917 257.401042 L 212.802083 270.197917 " transform="matrix(0.75,0,0,0.75,0,0)"/>
<path style="fill:none;stroke-width:2;stroke-linecap:butt;stroke-linejoin:miter;stroke:rgb(0%,0%,0%);stroke-opacity:1;stroke-miterlimit:4;" d="M 206.302083 257.197917 L 213.802083 266.197917 " transform="matrix(0.75,0,0,0.75,0,0)"/>
<path style="fill:none;stroke-width:2;stroke-linecap:butt;stroke-linejoin:miter;stroke:rgb(0%,0%,0%);stroke-opacity:1;stroke-miterlimit:4;" d="M 212.802083 270.197917 L 229.197917 267.401042 " transform="matrix(0.75,0,0,0.75,0,0)"/>
<path style="fill:none;stroke-width:2;stroke-linecap:butt;stroke-linejoin:miter;stroke:rgb(0%,0%,0%);stroke-opacity:1;stroke-miterlimit:4;" d="M 229.197917 267.401042 L 235 251.802083 " transform="matrix(0.75,0,0,0.75,0,0)"/>
<path style="fill:none;stroke-width:2;stroke-linecap:butt;stroke-linejoin:miter;stroke:rgb(0%,0%,0%);stroke-opacity:1;stroke-miterlimit:4;" d="M 227 263.901042 L 231 253 " transform="matrix(0.75,0,0,0.75,0,0)"/>
<path style="fill:none;stroke-width:2;stroke-linecap:butt;stroke-linejoin:miter;stroke:rgb(0%,0%,0%);stroke-opacity:1;stroke-miterlimit:4;" d="M 235 251.802083 L 251.401042 248.901042 " transform="matrix(0.75,0,0,0.75,0,0)"/>
<path style="fill:none;stroke-width:2;stroke-linecap:butt;stroke-linejoin:miter;stroke:rgb(0%,0%,0%);stroke-opacity:1;stroke-miterlimit:4;" d="M 249.802083 248.401042 L 252.098958 242.098958 " transform="matrix(0.75,0,0,0.75,0,0)"/>
<path style="fill:none;stroke-width:2;stroke-linecap:butt;stroke-linejoin:miter;stroke:rgb(100%,0%,0%);stroke-opacity:1;stroke-miterlimit:4;" d="M 252.098958 242.098958 L 254.5 235.802083 " transform="matrix(0.75,0,0,0.75,0,0)"/>
<path style="fill:none;stroke-width:2;stroke-linecap:butt;stroke-linejoin:miter;stroke:rgb(0%,0%,0%);stroke-opacity:1;stroke-miterlimit:4;" d="M 252.901042 249.5 L 255.302083 243.197917 " transform="matrix(0.75,0,0,0.75,0,0)"/>
<path style="fill:none;stroke-width:2;stroke-linecap:butt;stroke-linejoin:miter;stroke:rgb(100%,0%,0%);stroke-opacity:1;stroke-miterlimit:4;" d="M 255.302083 243.197917 L 257.598958 236.901042 " transform="matrix(0.75,0,0,0.75,0,0)"/>
<path style="fill:none;stroke-width:2;stroke-linecap:butt;stroke-linejoin:miter;stroke:rgb(0%,0%,0%);stroke-opacity:1;stroke-miterlimit:4;" d="M 251.401042 248.901042 L 255.5 253.901042 " transform="matrix(0.75,0,0,0.75,0,0)"/>
<path style="fill:none;stroke-width:2;stroke-linecap:butt;stroke-linejoin:miter;stroke:rgb(0%,0%,100%);stroke-opacity:1;stroke-miterlimit:4;" d="M 255.5 253.901042 L 259.598958 258.802083 " transform="matrix(0.75,0,0,0.75,0,0)"/>
<path style="fill-rule:evenodd;fill:rgb(0%,0%,0%);fill-opacity:1;stroke-width:1;stroke-linecap:butt;stroke-linejoin:miter;stroke:rgb(0%,0%,0%);stroke-opacity:1;stroke-miterlimit:4;" d="M 278.401042 258.901042 L 271.802083 260.901042 L 271.5 259.197917 Z M 278.401042 258.901042 " transform="matrix(0.75,0,0,0.75,0,0)"/>
<path style="fill-rule:evenodd;fill:rgb(0%,0%,100%);fill-opacity:1;stroke-width:1;stroke-linecap:butt;stroke-linejoin:miter;stroke:rgb(0%,0%,100%);stroke-opacity:1;stroke-miterlimit:4;" d="M 271.802083 260.901042 L 264.598958 259.598958 L 265.197917 262.901042 Z M 271.802083 260.901042 " transform="matrix(0.75,0,0,0.75,0,0)"/>
<path style="fill-rule:evenodd;fill:rgb(0%,0%,100%);fill-opacity:1;stroke-width:1;stroke-linecap:butt;stroke-linejoin:miter;stroke:rgb(0%,0%,100%);stroke-opacity:1;stroke-miterlimit:4;" d="M 271.802083 260.901042 L 271.5 259.197917 L 264.598958 259.598958 Z M 271.802083 260.901042 " transform="matrix(0.75,0,0,0.75,0,0)"/>
<path style="fill:none;stroke-width:2;stroke-linecap:butt;stroke-linejoin:miter;stroke:rgb(0%,0%,0%);stroke-opacity:1;stroke-miterlimit:4;" d="M 278.401042 258.901042 L 278.098958 245.197917 " transform="matrix(0.75,0,0,0.75,0,0)"/>
<path style="fill:none;stroke-width:2;stroke-linecap:butt;stroke-linejoin:miter;stroke:rgb(0%,0%,0%);stroke-opacity:1;stroke-miterlimit:4;" d="M 278.901042 239.302083 L 282.598958 226.302083 " transform="matrix(0.75,0,0,0.75,0,0)"/>
<path style="fill-rule:evenodd;fill:rgb(0%,0%,0%);fill-opacity:1;stroke-width:1;stroke-linecap:butt;stroke-linejoin:miter;stroke:rgb(0%,0%,0%);stroke-opacity:1;stroke-miterlimit:4;" d="M 282.598958 226.302083 L 276.302083 224.302083 L 277 222.802083 Z M 282.598958 226.302083 " transform="matrix(0.75,0,0,0.75,0,0)"/>
<path style="fill-rule:evenodd;fill:rgb(100%,0%,0%);fill-opacity:1;stroke-width:1;stroke-linecap:butt;stroke-linejoin:miter;stroke:rgb(100%,0%,0%);stroke-opacity:1;stroke-miterlimit:4;" d="M 276.302083 224.302083 L 271.401042 219.302083 L 270.098958 222.401042 Z M 276.302083 224.302083 " transform="matrix(0.75,0,0,0.75,0,0)"/>
<path style="fill-rule:evenodd;fill:rgb(100%,0%,0%);fill-opacity:1;stroke-width:1;stroke-linecap:butt;stroke-linejoin:miter;stroke:rgb(100%,0%,0%);stroke-opacity:1;stroke-miterlimit:4;" d="M 276.302083 224.302083 L 277 222.802083 L 271.401042 219.302083 Z M 276.302083 224.302083 " transform="matrix(0.75,0,0,0.75,0,0)"/>
<path style="fill:none;stroke-width:2;stroke-linecap:butt;stroke-linejoin:miter;stroke:rgb(0%,0%,0%);stroke-opacity:1;stroke-miterlimit:4;" d="M 282.598958 226.302083 L 291.697917 212.302083 " transform="matrix(0.75,0,0,0.75,0,0)"/>
<path style="fill-rule:evenodd;fill:rgb(0%,0%,0%);fill-opacity:1;stroke-width:1;stroke-linecap:butt;stroke-linejoin:miter;stroke:rgb(0%,0%,0%);stroke-opacity:1;stroke-miterlimit:4;" d="M 291.697917 212.302083 L 286.598958 208.901042 L 287.697917 207.598958 Z M 291.697917 212.302083 " transform="matrix(0.75,0,0,0.75,0,0)"/>
<path style="fill-rule:evenodd;fill:rgb(100%,0%,0%);fill-opacity:1;stroke-width:1;stroke-linecap:butt;stroke-linejoin:miter;stroke:rgb(100%,0%,0%);stroke-opacity:1;stroke-miterlimit:4;" d="M 286.598958 208.901042 L 283.598958 202.901042 L 281.401042 205.401042 Z M 286.598958 208.901042 " transform="matrix(0.75,0,0,0.75,0,0)"/>
<path style="fill-rule:evenodd;fill:rgb(100%,0%,0%);fill-opacity:1;stroke-width:1;stroke-linecap:butt;stroke-linejoin:miter;stroke:rgb(100%,0%,0%);stroke-opacity:1;stroke-miterlimit:4;" d="M 286.598958 208.901042 L 287.697917 207.598958 L 283.598958 202.901042 Z M 286.598958 208.901042 " transform="matrix(0.75,0,0,0.75,0,0)"/>
<path style="fill:none;stroke-width:2;stroke-linecap:butt;stroke-linejoin:miter;stroke:rgb(0%,0%,0%);stroke-opacity:1;stroke-miterlimit:4;" d="M 291.697917 212.302083 L 296.302083 208.401042 " transform="matrix(0.75,0,0,0.75,0,0)"/>
<path style="fill:none;stroke-width:2;stroke-linecap:butt;stroke-linejoin:miter;stroke:rgb(0%,0%,100%);stroke-opacity:1;stroke-miterlimit:4;" d="M 296.302083 208.401042 L 301 204.598958 " transform="matrix(0.75,0,0,0.75,0,0)"/>
<path style="fill:none;stroke-width:2;stroke-linecap:butt;stroke-linejoin:miter;stroke:rgb(0%,0%,100%);stroke-opacity:1;stroke-miterlimit:4;" d="M 306.802083 200.697917 L 313.302083 198 " transform="matrix(0.75,0,0,0.75,0,0)"/>
<path style="fill:none;stroke-width:2;stroke-linecap:butt;stroke-linejoin:miter;stroke:rgb(0%,0%,0%);stroke-opacity:1;stroke-miterlimit:4;" d="M 313.302083 198 L 319.802083 195.302083 " transform="matrix(0.75,0,0,0.75,0,0)"/>
<path style="fill:none;stroke-width:2;stroke-linecap:butt;stroke-linejoin:miter;stroke:rgb(0%,0%,0%);stroke-opacity:1;stroke-miterlimit:4;" d="M 318.197917 195.697917 L 316.598958 189.098958 " transform="matrix(0.75,0,0,0.75,0,0)"/>
<path style="fill:none;stroke-width:2;stroke-linecap:butt;stroke-linejoin:miter;stroke:rgb(100%,0%,0%);stroke-opacity:1;stroke-miterlimit:4;" d="M 316.598958 189.098958 L 314.901042 182.5 " transform="matrix(0.75,0,0,0.75,0,0)"/>
<path style="fill:none;stroke-width:2;stroke-linecap:butt;stroke-linejoin:miter;stroke:rgb(0%,0%,0%);stroke-opacity:1;stroke-miterlimit:4;" d="M 321.401042 194.901042 L 319.802083 188.302083 " transform="matrix(0.75,0,0,0.75,0,0)"/>
<path style="fill:none;stroke-width:2;stroke-linecap:butt;stroke-linejoin:miter;stroke:rgb(100%,0%,0%);stroke-opacity:1;stroke-miterlimit:4;" d="M 319.802083 188.302083 L 318.197917 181.697917 " transform="matrix(0.75,0,0,0.75,0,0)"/>
<path style="fill:none;stroke-width:2;stroke-linecap:butt;stroke-linejoin:miter;stroke:rgb(0%,0%,0%);stroke-opacity:1;stroke-miterlimit:4;" d="M 319.802083 195.302083 L 336.401042 193.697917 " transform="matrix(0.75,0,0,0.75,0,0)"/>
<path style="fill:none;stroke-width:2;stroke-linecap:butt;stroke-linejoin:miter;stroke:rgb(0%,0%,0%);stroke-opacity:1;stroke-miterlimit:4;" d="M 336.401042 193.697917 L 334.5 177.098958 " transform="matrix(0.75,0,0,0.75,0,0)"/>
<path style="fill-rule:evenodd;fill:rgb(0%,0%,0%);fill-opacity:1;stroke-width:1;stroke-linecap:butt;stroke-linejoin:miter;stroke:rgb(0%,0%,0%);stroke-opacity:1;stroke-miterlimit:4;" d="M 334.5 177.098958 L 328.5 174.697917 L 329.401042 173.197917 Z M 334.5 177.098958 " transform="matrix(0.75,0,0,0.75,0,0)"/>
<path style="fill-rule:evenodd;fill:rgb(100%,0%,0%);fill-opacity:1;stroke-width:1;stroke-linecap:butt;stroke-linejoin:miter;stroke:rgb(100%,0%,0%);stroke-opacity:1;stroke-miterlimit:4;" d="M 328.5 174.697917 L 324.197917 169.302083 L 322.5 172.197917 Z M 328.5 174.697917 " transform="matrix(0.75,0,0,0.75,0,0)"/>
<path style="fill-rule:evenodd;fill:rgb(100%,0%,0%);fill-opacity:1;stroke-width:1;stroke-linecap:butt;stroke-linejoin:miter;stroke:rgb(100%,0%,0%);stroke-opacity:1;stroke-miterlimit:4;" d="M 328.5 174.697917 L 329.401042 173.197917 L 324.197917 169.302083 Z M 328.5 174.697917 " transform="matrix(0.75,0,0,0.75,0,0)"/>
<path style="fill:none;stroke-width:2;stroke-linecap:butt;stroke-linejoin:miter;stroke:rgb(0%,0%,0%);stroke-opacity:1;stroke-miterlimit:4;" d="M 334.5 177.098958 L 349.697917 170.302083 " transform="matrix(0.75,0,0,0.75,0,0)"/>
<path style="fill-rule:evenodd;fill:rgb(0%,0%,0%);fill-opacity:1;stroke-width:1;stroke-linecap:butt;stroke-linejoin:miter;stroke:rgb(0%,0%,0%);stroke-opacity:1;stroke-miterlimit:4;" d="M 349.697917 170.302083 L 351.401042 153.697917 L 354.697917 154.302083 Z M 349.697917 170.302083 " transform="matrix(0.75,0,0,0.75,0,0)"/>
<path style="fill:none;stroke-width:2;stroke-linecap:butt;stroke-linejoin:miter;stroke:rgb(0%,0%,0%);stroke-opacity:1;stroke-miterlimit:4;" d="M 349.697917 170.302083 L 360.901042 182.598958 " transform="matrix(0.75,0,0,0.75,0,0)"/>
<path style="fill:none;stroke-width:2;stroke-linecap:butt;stroke-linejoin:miter;stroke:rgb(0%,0%,0%);stroke-opacity:1;stroke-miterlimit:4;" d="M 360.901042 182.598958 L 357.598958 188.401042 " transform="matrix(0.75,0,0,0.75,0,0)"/>
<path style="fill:none;stroke-width:2;stroke-linecap:butt;stroke-linejoin:miter;stroke:rgb(0%,0%,100%);stroke-opacity:1;stroke-miterlimit:4;" d="M 357.598958 188.401042 L 354.302083 194.098958 " transform="matrix(0.75,0,0,0.75,0,0)"/>
<path style="fill:none;stroke-width:2;stroke-linecap:butt;stroke-linejoin:miter;stroke:rgb(0%,0%,100%);stroke-opacity:1;stroke-miterlimit:4;" d="M 355 198.302083 L 361.098958 201.697917 " transform="matrix(0.75,0,0,0.75,0,0)"/>
<path style="fill:none;stroke-width:2;stroke-linecap:butt;stroke-linejoin:miter;stroke:rgb(0%,0%,0%);stroke-opacity:1;stroke-miterlimit:4;" d="M 361.098958 201.697917 L 367.302083 205 " transform="matrix(0.75,0,0,0.75,0,0)"/>
<path style="fill:none;stroke-width:2;stroke-linecap:butt;stroke-linejoin:miter;stroke:rgb(0%,0%,0%);stroke-opacity:1;stroke-miterlimit:4;" d="M 365.901042 204 L 369.802083 198.901042 " transform="matrix(0.75,0,0,0.75,0,0)"/>
<path style="fill:none;stroke-width:2;stroke-linecap:butt;stroke-linejoin:miter;stroke:rgb(100%,0%,0%);stroke-opacity:1;stroke-miterlimit:4;" d="M 369.802083 198.901042 L 373.697917 193.802083 " transform="matrix(0.75,0,0,0.75,0,0)"/>
<path style="fill:none;stroke-width:2;stroke-linecap:butt;stroke-linejoin:miter;stroke:rgb(0%,0%,0%);stroke-opacity:1;stroke-miterlimit:4;" d="M 368.598958 206.098958 L 372.5 200.901042 " transform="matrix(0.75,0,0,0.75,0,0)"/>
<path style="fill:none;stroke-width:2;stroke-linecap:butt;stroke-linejoin:miter;stroke:rgb(100%,0%,0%);stroke-opacity:1;stroke-miterlimit:4;" d="M 372.5 200.901042 L 376.401042 195.802083 " transform="matrix(0.75,0,0,0.75,0,0)"/>
<path style="fill:none;stroke-width:2;stroke-linecap:butt;stroke-linejoin:miter;stroke:rgb(0%,0%,0%);stroke-opacity:1;stroke-miterlimit:4;" d="M 367.302083 205 L 378.802083 217 " transform="matrix(0.75,0,0,0.75,0,0)"/>
<path style="fill:none;stroke-width:2;stroke-linecap:butt;stroke-linejoin:miter;stroke:rgb(0%,0%,0%);stroke-opacity:1;stroke-miterlimit:4;" d="M 378.802083 217 L 392.401042 207.302083 " transform="matrix(0.75,0,0,0.75,0,0)"/>
<path style="fill:none;stroke-width:1;stroke-linecap:butt;stroke-linejoin:miter;stroke:rgb(0%,0%,0%);stroke-opacity:1;stroke-miterlimit:4;" d="M 397.197917 210.098958 L 397.697917 209.098958 " transform="matrix(0.75,0,0,0.75,0,0)"/>
<path style="fill:none;stroke-width:1;stroke-linecap:butt;stroke-linejoin:miter;stroke:rgb(0%,0%,0%);stroke-opacity:1;stroke-miterlimit:4;" d="M 402 212.901042 L 402.901042 210.901042 " transform="matrix(0.75,0,0,0.75,0,0)"/>
<path style="fill:none;stroke-width:1;stroke-linecap:butt;stroke-linejoin:miter;stroke:rgb(0%,0%,0%);stroke-opacity:1;stroke-miterlimit:4;" d="M 406.802083 215.697917 L 408.197917 212.697917 " transform="matrix(0.75,0,0,0.75,0,0)"/>
<path style="fill:none;stroke-width:2;stroke-linecap:butt;stroke-linejoin:miter;stroke:rgb(0%,0%,0%);stroke-opacity:1;stroke-miterlimit:4;" d="M 392.401042 207.302083 L 391.697917 200.598958 " transform="matrix(0.75,0,0,0.75,0,0)"/>
<path style="fill:none;stroke-width:2;stroke-linecap:butt;stroke-linejoin:miter;stroke:rgb(100%,0%,0%);stroke-opacity:1;stroke-miterlimit:4;" d="M 391.697917 200.598958 L 391.098958 193.802083 " transform="matrix(0.75,0,0,0.75,0,0)"/>
<path style="fill:none;stroke-width:2;stroke-linecap:butt;stroke-linejoin:miter;stroke:rgb(0%,0%,0%);stroke-opacity:1;stroke-miterlimit:4;" d="M 378.802083 217 L 381.901042 223 " transform="matrix(0.75,0,0,0.75,0,0)"/>
<path style="fill:none;stroke-width:2;stroke-linecap:butt;stroke-linejoin:miter;stroke:rgb(0%,0%,100%);stroke-opacity:1;stroke-miterlimit:4;" d="M 381.901042 223 L 384.901042 228.901042 " transform="matrix(0.75,0,0,0.75,0,0)"/>
<path style="fill:none;stroke-width:2;stroke-linecap:butt;stroke-linejoin:miter;stroke:rgb(0%,0%,100%);stroke-opacity:1;stroke-miterlimit:4;" d="M 386.901042 234.697917 L 388 241.5 " transform="matrix(0.75,0,0,0.75,0,0)"/>
<path style="fill:none;stroke-width:2;stroke-linecap:butt;stroke-linejoin:miter;stroke:rgb(0%,0%,0%);stroke-opacity:1;stroke-miterlimit:4;" d="M 388 241.5 L 389.197917 248.197917 " transform="matrix(0.75,0,0,0.75,0,0)"/>
<path style="fill:none;stroke-width:2;stroke-linecap:butt;stroke-linejoin:miter;stroke:rgb(0%,0%,0%);stroke-opacity:1;stroke-miterlimit:4;" d="M 389.197917 246.598958 L 396.098958 246.401042 " transform="matrix(0.75,0,0,0.75,0,0)"/>
<path style="fill:none;stroke-width:2;stroke-linecap:butt;stroke-linejoin:miter;stroke:rgb(100%,0%,0%);stroke-opacity:1;stroke-miterlimit:4;" d="M 396.098958 246.401042 L 403.098958 246.302083 " transform="matrix(0.75,0,0,0.75,0,0)"/>
<path style="fill:none;stroke-width:2;stroke-linecap:butt;stroke-linejoin:miter;stroke:rgb(0%,0%,0%);stroke-opacity:1;stroke-miterlimit:4;" d="M 389.197917 249.901042 L 396.197917 249.697917 " transform="matrix(0.75,0,0,0.75,0,0)"/>
<path style="fill:none;stroke-width:2;stroke-linecap:butt;stroke-linejoin:miter;stroke:rgb(100%,0%,0%);stroke-opacity:1;stroke-miterlimit:4;" d="M 396.197917 249.697917 L 403.197917 249.598958 " transform="matrix(0.75,0,0,0.75,0,0)"/>
<path style="fill:none;stroke-width:2;stroke-linecap:butt;stroke-linejoin:miter;stroke:rgb(0%,0%,0%);stroke-opacity:1;stroke-miterlimit:4;" d="M 389.197917 248.197917 L 387.098958 264.697917 " transform="matrix(0.75,0,0,0.75,0,0)"/>
<path style="fill:none;stroke-width:2;stroke-linecap:butt;stroke-linejoin:miter;stroke:rgb(0%,0%,0%);stroke-opacity:1;stroke-miterlimit:4;" d="M 387.098958 264.697917 L 403.098958 269.302083 " transform="matrix(0.75,0,0,0.75,0,0)"/>
<path style="fill-rule:evenodd;fill:rgb(0%,0%,0%);fill-opacity:1;stroke-width:1;stroke-linecap:butt;stroke-linejoin:miter;stroke:rgb(0%,0%,0%);stroke-opacity:1;stroke-miterlimit:4;" d="M 403.098958 269.302083 L 406.802083 264.5 L 408 265.697917 Z M 403.098958 269.302083 " transform="matrix(0.75,0,0,0.75,0,0)"/>
<path style="fill-rule:evenodd;fill:rgb(100%,0%,0%);fill-opacity:1;stroke-width:1;stroke-linecap:butt;stroke-linejoin:miter;stroke:rgb(100%,0%,0%);stroke-opacity:1;stroke-miterlimit:4;" d="M 406.802083 264.5 L 412.901042 262.098958 L 410.598958 259.697917 Z M 406.802083 264.5 " transform="matrix(0.75,0,0,0.75,0,0)"/>
<path style="fill-rule:evenodd;fill:rgb(100%,0%,0%);fill-opacity:1;stroke-width:1;stroke-linecap:butt;stroke-linejoin:miter;stroke:rgb(100%,0%,0%);stroke-opacity:1;stroke-miterlimit:4;" d="M 406.802083 264.5 L 408 265.697917 L 412.901042 262.098958 Z M 406.802083 264.5 " transform="matrix(0.75,0,0,0.75,0,0)"/>
<path style="fill:none;stroke-width:2;stroke-linecap:butt;stroke-linejoin:miter;stroke:rgb(0%,0%,0%);stroke-opacity:1;stroke-miterlimit:4;" d="M 403.098958 269.302083 L 407.098958 285.401042 " transform="matrix(0.75,0,0,0.75,0,0)"/>
<path style="fill-rule:evenodd;fill:rgb(0%,0%,0%);fill-opacity:1;stroke-width:1;stroke-linecap:butt;stroke-linejoin:miter;stroke:rgb(0%,0%,0%);stroke-opacity:1;stroke-miterlimit:4;" d="M 407.098958 285.401042 L 403.302083 290.197917 L 402.197917 289 Z M 407.098958 285.401042 " transform="matrix(0.75,0,0,0.75,0,0)"/>
<path style="fill-rule:evenodd;fill:rgb(100%,0%,0%);fill-opacity:1;stroke-width:1;stroke-linecap:butt;stroke-linejoin:miter;stroke:rgb(100%,0%,0%);stroke-opacity:1;stroke-miterlimit:4;" d="M 403.302083 290.197917 L 397.302083 292.598958 L 399.598958 295 Z M 403.302083 290.197917 " transform="matrix(0.75,0,0,0.75,0,0)"/>
<path style="fill-rule:evenodd;fill:rgb(100%,0%,0%);fill-opacity:1;stroke-width:1;stroke-linecap:butt;stroke-linejoin:miter;stroke:rgb(100%,0%,0%);stroke-opacity:1;stroke-miterlimit:4;" d="M 403.302083 290.197917 L 402.197917 289 L 397.302083 292.598958 Z M 403.302083 290.197917 " transform="matrix(0.75,0,0,0.75,0,0)"/>
<path style="fill:none;stroke-width:2;stroke-linecap:butt;stroke-linejoin:miter;stroke:rgb(0%,0%,0%);stroke-opacity:1;stroke-miterlimit:4;" d="M 407.098958 285.401042 L 423.098958 290 " transform="matrix(0.75,0,0,0.75,0,0)"/>
<path style="fill:none;stroke-width:2;stroke-linecap:butt;stroke-linejoin:miter;stroke:rgb(0%,0%,0%);stroke-opacity:1;stroke-miterlimit:4;" d="M 423.098958 290 L 427.098958 306.098958 " transform="matrix(0.75,0,0,0.75,0,0)"/>
<path style="fill:none;stroke-width:2;stroke-linecap:butt;stroke-linejoin:miter;stroke:rgb(0%,0%,0%);stroke-opacity:1;stroke-miterlimit:4;" d="M 426.901042 291.598958 L 429.802083 302.901042 " transform="matrix(0.75,0,0,0.75,0,0)"/>
<path style="fill:none;stroke-width:2;stroke-linecap:butt;stroke-linejoin:miter;stroke:rgb(0%,0%,0%);stroke-opacity:1;stroke-miterlimit:4;" d="M 427.098958 306.098958 L 443.098958 310.697917 " transform="matrix(0.75,0,0,0.75,0,0)"/>
<path style="fill:none;stroke-width:2;stroke-linecap:butt;stroke-linejoin:miter;stroke:rgb(0%,0%,0%);stroke-opacity:1;stroke-miterlimit:4;" d="M 443.098958 310.697917 L 455.098958 299.098958 " transform="matrix(0.75,0,0,0.75,0,0)"/>
<path style="fill:none;stroke-width:2;stroke-linecap:butt;stroke-linejoin:miter;stroke:rgb(0%,0%,0%);stroke-opacity:1;stroke-miterlimit:4;" d="M 442.598958 306.598958 L 451 298.5 " transform="matrix(0.75,0,0,0.75,0,0)"/>
<path style="fill:none;stroke-width:2;stroke-linecap:butt;stroke-linejoin:miter;stroke:rgb(0%,0%,0%);stroke-opacity:1;stroke-miterlimit:4;" d="M 455.098958 299.098958 L 461.697917 301 " transform="matrix(0.75,0,0,0.75,0,0)"/>
<path style="fill:none;stroke-width:2;stroke-linecap:butt;stroke-linejoin:miter;stroke:rgb(100%,0%,0%);stroke-opacity:1;stroke-miterlimit:4;" d="M 461.697917 301 L 468.401042 302.901042 " transform="matrix(0.75,0,0,0.75,0,0)"/>
<path style="fill:none;stroke-width:2;stroke-linecap:butt;stroke-linejoin:miter;stroke:rgb(0%,0%,0%);stroke-opacity:1;stroke-miterlimit:4;" d="M 455.098958 299.098958 L 451.098958 283 " transform="matrix(0.75,0,0,0.75,0,0)"/>
<path style="fill:none;stroke-width:2;stroke-linecap:butt;stroke-linejoin:miter;stroke:rgb(0%,0%,0%);stroke-opacity:1;stroke-miterlimit:4;" d="M 451.098958 283 L 435.098958 278.401042 " transform="matrix(0.75,0,0,0.75,0,0)"/>
<path style="fill:none;stroke-width:2;stroke-linecap:butt;stroke-linejoin:miter;stroke:rgb(0%,0%,0%);stroke-opacity:1;stroke-miterlimit:4;" d="M 447.697917 285.5 L 436.5 282.302083 " transform="matrix(0.75,0,0,0.75,0,0)"/>
<path style="fill:none;stroke-width:2;stroke-linecap:butt;stroke-linejoin:miter;stroke:rgb(0%,0%,0%);stroke-opacity:1;stroke-miterlimit:4;" d="M 387.098958 264.697917 L 384.302083 270.802083 " transform="matrix(0.75,0,0,0.75,0,0)"/>
<path style="fill:none;stroke-width:2;stroke-linecap:butt;stroke-linejoin:miter;stroke:rgb(0%,0%,100%);stroke-opacity:1;stroke-miterlimit:4;" d="M 384.302083 270.802083 L 381.5 276.901042 " transform="matrix(0.75,0,0,0.75,0,0)"/>
<path style="fill:none;stroke-width:2;stroke-linecap:butt;stroke-linejoin:miter;stroke:rgb(0%,0%,100%);stroke-opacity:1;stroke-miterlimit:4;" d="M 377.802083 282.5 L 373.5 287.401042 " transform="matrix(0.75,0,0,0.75,0,0)"/>
<path style="fill:none;stroke-width:2;stroke-linecap:butt;stroke-linejoin:miter;stroke:rgb(0%,0%,0%);stroke-opacity:1;stroke-miterlimit:4;" d="M 373.5 287.401042 L 369.098958 292.302083 " transform="matrix(0.75,0,0,0.75,0,0)"/>
<path style="fill:none;stroke-width:2;stroke-linecap:butt;stroke-linejoin:miter;stroke:rgb(0%,0%,0%);stroke-opacity:1;stroke-miterlimit:4;" d="M 370.401042 291.197917 L 374.5 296.098958 " transform="matrix(0.75,0,0,0.75,0,0)"/>
<path style="fill:none;stroke-width:2;stroke-linecap:butt;stroke-linejoin:miter;stroke:rgb(100%,0%,0%);stroke-opacity:1;stroke-miterlimit:4;" d="M 374.5 296.098958 L 378.598958 301.098958 " transform="matrix(0.75,0,0,0.75,0,0)"/>
<path style="fill:none;stroke-width:2;stroke-linecap:butt;stroke-linejoin:miter;stroke:rgb(0%,0%,0%);stroke-opacity:1;stroke-miterlimit:4;" d="M 367.802083 293.302083 L 371.901042 298.302083 " transform="matrix(0.75,0,0,0.75,0,0)"/>
<path style="fill:none;stroke-width:2;stroke-linecap:butt;stroke-linejoin:miter;stroke:rgb(100%,0%,0%);stroke-opacity:1;stroke-miterlimit:4;" d="M 371.901042 298.302083 L 376 303.197917 " transform="matrix(0.75,0,0,0.75,0,0)"/>
<path style="fill:none;stroke-width:2;stroke-linecap:butt;stroke-linejoin:miter;stroke:rgb(0%,0%,0%);stroke-opacity:1;stroke-miterlimit:4;" d="M 369.098958 292.302083 L 354.901042 300.901042 " transform="matrix(0.75,0,0,0.75,0,0)"/>
<path style="fill:none;stroke-width:2;stroke-linecap:butt;stroke-linejoin:miter;stroke:rgb(0%,0%,0%);stroke-opacity:1;stroke-miterlimit:4;" d="M 354.901042 300.901042 L 363.697917 315 " transform="matrix(0.75,0,0,0.75,0,0)"/>
<path style="fill:none;stroke-width:2;stroke-linecap:butt;stroke-linejoin:miter;stroke:rgb(0%,0%,0%);stroke-opacity:1;stroke-miterlimit:4;" d="M 363.697917 315 L 353 327.802083 " transform="matrix(0.75,0,0,0.75,0,0)"/>
<path style="fill-rule:evenodd;fill:rgb(0%,0%,0%);fill-opacity:1;stroke-width:1;stroke-linecap:butt;stroke-linejoin:miter;stroke:rgb(0%,0%,0%);stroke-opacity:1;stroke-miterlimit:4;" d="M 353 327.802083 L 355.401042 333.901042 L 353.802083 334.302083 Z M 353 327.802083 " transform="matrix(0.75,0,0,0.75,0,0)"/>
<path style="fill-rule:evenodd;fill:rgb(100%,0%,0%);fill-opacity:1;stroke-width:1;stroke-linecap:butt;stroke-linejoin:miter;stroke:rgb(100%,0%,0%);stroke-opacity:1;stroke-miterlimit:4;" d="M 355.401042 333.901042 L 354.598958 340.802083 L 357.802083 340 Z M 355.401042 333.901042 " transform="matrix(0.75,0,0,0.75,0,0)"/>
<path style="fill-rule:evenodd;fill:rgb(100%,0%,0%);fill-opacity:1;stroke-width:1;stroke-linecap:butt;stroke-linejoin:miter;stroke:rgb(100%,0%,0%);stroke-opacity:1;stroke-miterlimit:4;" d="M 355.401042 333.901042 L 353.802083 334.302083 L 354.598958 340.802083 Z M 355.401042 333.901042 " transform="matrix(0.75,0,0,0.75,0,0)"/>
<path style="fill:none;stroke-width:2;stroke-linecap:butt;stroke-linejoin:miter;stroke:rgb(0%,0%,0%);stroke-opacity:1;stroke-miterlimit:4;" d="M 353 327.802083 L 337.598958 321.5 " transform="matrix(0.75,0,0,0.75,0,0)"/>
<path style="fill:none;stroke-width:2;stroke-linecap:butt;stroke-linejoin:miter;stroke:rgb(0%,0%,0%);stroke-opacity:1;stroke-miterlimit:4;" d="M 337.598958 321.5 L 338.098958 314.697917 " transform="matrix(0.75,0,0,0.75,0,0)"/>
<path style="fill:none;stroke-width:2;stroke-linecap:butt;stroke-linejoin:miter;stroke:rgb(0%,0%,100%);stroke-opacity:1;stroke-miterlimit:4;" d="M 338.098958 314.697917 L 338.598958 307.901042 " transform="matrix(0.75,0,0,0.75,0,0)"/>
<path style="fill:none;stroke-width:2;stroke-linecap:butt;stroke-linejoin:miter;stroke:rgb(0%,0%,100%);stroke-opacity:1;stroke-miterlimit:4;" d="M 336.401042 304.802083 L 329.302083 304.401042 " transform="matrix(0.75,0,0,0.75,0,0)"/>
<path style="fill:none;stroke-width:2;stroke-linecap:butt;stroke-linejoin:miter;stroke:rgb(0%,0%,0%);stroke-opacity:1;stroke-miterlimit:4;" d="M 329.302083 304.401042 L 322.098958 304.098958 " transform="matrix(0.75,0,0,0.75,0,0)"/>
<path style="fill:none;stroke-width:2;stroke-linecap:butt;stroke-linejoin:miter;stroke:rgb(0%,0%,0%);stroke-opacity:1;stroke-miterlimit:4;" d="M 323.802083 304.401042 L 322.401042 311.098958 " transform="matrix(0.75,0,0,0.75,0,0)"/>
<path style="fill:none;stroke-width:2;stroke-linecap:butt;stroke-linejoin:miter;stroke:rgb(100%,0%,0%);stroke-opacity:1;stroke-miterlimit:4;" d="M 322.401042 311.098958 L 321 317.802083 " transform="matrix(0.75,0,0,0.75,0,0)"/>
<path style="fill:none;stroke-width:2;stroke-linecap:butt;stroke-linejoin:miter;stroke:rgb(0%,0%,0%);stroke-opacity:1;stroke-miterlimit:4;" d="M 320.5 303.697917 L 319.098958 310.401042 " transform="matrix(0.75,0,0,0.75,0,0)"/>
<path style="fill:none;stroke-width:2;stroke-linecap:butt;stroke-linejoin:miter;stroke:rgb(100%,0%,0%);stroke-opacity:1;stroke-miterlimit:4;" d="M 319.098958 310.401042 L 317.802083 317.098958 " transform="matrix(0.75,0,0,0.75,0,0)"/>
<path style="fill:none;stroke-width:2;stroke-linecap:butt;stroke-linejoin:miter;stroke:rgb(0%,0%,0%);stroke-opacity:1;stroke-miterlimit:4;" d="M 322.098958 304.098958 L 306.5 298.302083 " transform="matrix(0.75,0,0,0.75,0,0)"/>
<path style="fill:none;stroke-width:2;stroke-linecap:butt;stroke-linejoin:miter;stroke:rgb(0%,0%,0%);stroke-opacity:1;stroke-miterlimit:4;" d="M 306.5 298.302083 L 298.5 312.901042 " transform="matrix(0.75,0,0,0.75,0,0)"/>
<path style="fill:none;stroke-width:1;stroke-linecap:butt;stroke-linejoin:miter;stroke:rgb(0%,0%,0%);stroke-opacity:1;stroke-miterlimit:4;" d="M 293 312.5 L 293 313.598958 " transform="matrix(0.75,0,0,0.75,0,0)"/>
<path style="fill:none;stroke-width:1;stroke-linecap:butt;stroke-linejoin:miter;stroke:rgb(0%,0%,0%);stroke-opacity:1;stroke-miterlimit:4;" d="M 287.401042 312 L 287.5 314.197917 " transform="matrix(0.75,0,0,0.75,0,0)"/>
<path style="fill:none;stroke-width:1;stroke-linecap:butt;stroke-linejoin:miter;stroke:rgb(0%,0%,0%);stroke-opacity:1;stroke-miterlimit:4;" d="M 281.901042 311.598958 L 281.901042 314.901042 " transform="matrix(0.75,0,0,0.75,0,0)"/>
<path style="fill:none;stroke-width:2;stroke-linecap:butt;stroke-linejoin:miter;stroke:rgb(0%,0%,0%);stroke-opacity:1;stroke-miterlimit:4;" d="M 298.5 312.901042 L 301.901042 318.5 " transform="matrix(0.75,0,0,0.75,0,0)"/>
<path style="fill:none;stroke-width:2;stroke-linecap:butt;stroke-linejoin:miter;stroke:rgb(100%,0%,0%);stroke-opacity:1;stroke-miterlimit:4;" d="M 301.901042 318.5 L 305.401042 324.197917 " transform="matrix(0.75,0,0,0.75,0,0)"/>
<path style="fill:none;stroke-width:2;stroke-linecap:butt;stroke-linejoin:miter;stroke:rgb(0%,0%,0%);stroke-opacity:1;stroke-miterlimit:4;" d="M 306.5 298.302083 L 301.098958 294.197917 " transform="matrix(0.75,0,0,0.75,0,0)"/>
<path style="fill:none;stroke-width:2;stroke-linecap:butt;stroke-linejoin:miter;stroke:rgb(0%,0%,100%);stroke-opacity:1;stroke-miterlimit:4;" d="M 301.098958 294.197917 L 295.598958 290 " transform="matrix(0.75,0,0,0.75,0,0)"/>
<path style="fill:none;stroke-width:2;stroke-linecap:butt;stroke-linejoin:miter;stroke:rgb(0%,0%,100%);stroke-opacity:1;stroke-miterlimit:4;" d="M 291.197917 285.302083 L 287.401042 280 " transform="matrix(0.75,0,0,0.75,0,0)"/>
<path style="fill:none;stroke-width:2;stroke-linecap:butt;stroke-linejoin:miter;stroke:rgb(0%,0%,0%);stroke-opacity:1;stroke-miterlimit:4;" d="M 287.401042 280 L 283.598958 274.697917 " transform="matrix(0.75,0,0,0.75,0,0)"/>
<path style="fill:none;stroke-width:2;stroke-linecap:butt;stroke-linejoin:miter;stroke:rgb(0%,0%,0%);stroke-opacity:1;stroke-miterlimit:4;" d="M 284.401042 276.197917 L 278.302083 279.197917 " transform="matrix(0.75,0,0,0.75,0,0)"/>
<path style="fill:none;stroke-width:2;stroke-linecap:butt;stroke-linejoin:miter;stroke:rgb(100%,0%,0%);stroke-opacity:1;stroke-miterlimit:4;" d="M 278.302083 279.197917 L 272.302083 282.302083 " transform="matrix(0.75,0,0,0.75,0,0)"/>
<path style="fill:none;stroke-width:2;stroke-linecap:butt;stroke-linejoin:miter;stroke:rgb(0%,0%,0%);stroke-opacity:1;stroke-miterlimit:4;" d="M 282.901042 273.197917 L 276.802083 276.302083 " transform="matrix(0.75,0,0,0.75,0,0)"/>
<path style="fill:none;stroke-width:2;stroke-linecap:butt;stroke-linejoin:miter;stroke:rgb(100%,0%,0%);stroke-opacity:1;stroke-miterlimit:4;" d="M 276.802083 276.302083 L 270.802083 279.302083 " transform="matrix(0.75,0,0,0.75,0,0)"/>
<path style="fill:none;stroke-width:2;stroke-linecap:butt;stroke-linejoin:miter;stroke:rgb(0%,0%,0%);stroke-opacity:1;stroke-miterlimit:4;" d="M 235 251.802083 L 224.302083 239 " transform="matrix(0.75,0,0,0.75,0,0)"/>
<path style="fill:none;stroke-width:2;stroke-linecap:butt;stroke-linejoin:miter;stroke:rgb(0%,0%,0%);stroke-opacity:1;stroke-miterlimit:4;" d="M 224.302083 239 L 207.901042 241.802083 " transform="matrix(0.75,0,0,0.75,0,0)"/>
<path style="fill:none;stroke-width:2;stroke-linecap:butt;stroke-linejoin:miter;stroke:rgb(0%,0%,0%);stroke-opacity:1;stroke-miterlimit:4;" d="M 222.401042 242.697917 L 211 244.697917 " transform="matrix(0.75,0,0,0.75,0,0)"/>
<path style="fill:none;stroke-width:2;stroke-linecap:butt;stroke-linejoin:miter;stroke:rgb(0%,0%,0%);stroke-opacity:1;stroke-miterlimit:4;" d="M 185.802083 260.197917 L 175.197917 247.5 " transform="matrix(0.75,0,0,0.75,0,0)"/>
<path style="fill:none;stroke-width:2;stroke-linecap:butt;stroke-linejoin:miter;stroke:rgb(0%,0%,0%);stroke-opacity:1;stroke-miterlimit:4;" d="M 175.197917 247.5 L 158.802083 250.302083 " transform="matrix(0.75,0,0,0.75,0,0)"/>
<path style="fill:none;stroke-width:2;stroke-linecap:butt;stroke-linejoin:miter;stroke:rgb(0%,0%,0%);stroke-opacity:1;stroke-miterlimit:4;" d="M 173.302083 251.197917 L 161.802083 253.098958 " transform="matrix(0.75,0,0,0.75,0,0)"/>
<path style="fill:none;stroke-width:2;stroke-linecap:butt;stroke-linejoin:miter;stroke:rgb(0%,0%,0%);stroke-opacity:1;stroke-miterlimit:4;" d="M 136.598958 268.697917 L 130.901042 284.302083 " transform="matrix(0.75,0,0,0.75,0,0)"/>
<path style="fill:none;stroke-width:2;stroke-linecap:butt;stroke-linejoin:miter;stroke:rgb(0%,0%,0%);stroke-opacity:1;stroke-miterlimit:4;" d="M 130.901042 284.302083 L 114.5 287.197917 " transform="matrix(0.75,0,0,0.75,0,0)"/>
<path style="fill:none;stroke-width:2;stroke-linecap:butt;stroke-linejoin:miter;stroke:rgb(0%,0%,0%);stroke-opacity:1;stroke-miterlimit:4;" d="M 127.901042 281.5 L 116.401042 283.5 " transform="matrix(0.75,0,0,0.75,0,0)"/>
<path style="fill:none;stroke-width:2;stroke-linecap:butt;stroke-linejoin:miter;stroke:rgb(0%,0%,0%);stroke-opacity:1;stroke-miterlimit:4;" d="M 114.5 287.197917 L 103.802083 274.401042 " transform="matrix(0.75,0,0,0.75,0,0)"/>
<path style="fill:none;stroke-width:2;stroke-linecap:butt;stroke-linejoin:miter;stroke:rgb(0%,0%,0%);stroke-opacity:1;stroke-miterlimit:4;" d="M 158.802083 250.302083 L 153 265.901042 " transform="matrix(0.75,0,0,0.75,0,0)"/>
<path style="fill:none;stroke-width:2;stroke-linecap:butt;stroke-linejoin:miter;stroke:rgb(0%,0%,0%);stroke-opacity:1;stroke-miterlimit:4;" d="M 207.901042 241.802083 L 202.197917 257.401042 " transform="matrix(0.75,0,0,0.75,0,0)"/>
<path style="fill:none;stroke-width:2;stroke-linecap:butt;stroke-linejoin:miter;stroke:rgb(0%,0%,0%);stroke-opacity:1;stroke-miterlimit:4;" d="M 283.598958 274.697917 L 278.401042 258.901042 " transform="matrix(0.75,0,0,0.75,0,0)"/>
<path style="fill:none;stroke-width:2;stroke-linecap:butt;stroke-linejoin:miter;stroke:rgb(0%,0%,100%);stroke-opacity:1;stroke-miterlimit:4;" d="M 350.302083 196.598958 L 343.401042 195.098958 " transform="matrix(0.75,0,0,0.75,0,0)"/>
<path style="fill:none;stroke-width:2;stroke-linecap:butt;stroke-linejoin:miter;stroke:rgb(0%,0%,0%);stroke-opacity:1;stroke-miterlimit:4;" d="M 343.401042 195.098958 L 336.401042 193.697917 " transform="matrix(0.75,0,0,0.75,0,0)"/>
<path style="fill:none;stroke-width:2;stroke-linecap:butt;stroke-linejoin:miter;stroke:rgb(0%,0%,0%);stroke-opacity:1;stroke-miterlimit:4;" d="M 435.098958 278.401042 L 423.098958 290 " transform="matrix(0.75,0,0,0.75,0,0)"/>
<path style="fill:none;stroke-width:2;stroke-linecap:butt;stroke-linejoin:miter;stroke:rgb(0%,0%,100%);stroke-opacity:1;stroke-miterlimit:4;" d="M 341.098958 304.401042 L 348 302.598958 " transform="matrix(0.75,0,0,0.75,0,0)"/>
<path style="fill:none;stroke-width:2;stroke-linecap:butt;stroke-linejoin:miter;stroke:rgb(0%,0%,0%);stroke-opacity:1;stroke-miterlimit:4;" d="M 348 302.598958 L 354.901042 300.901042 " transform="matrix(0.75,0,0,0.75,0,0)"/>
<path style=" stroke:none;fill-rule:nonzero;fill:rgb(100%,0%,0%);fill-opacity:1;" d="M 63.976562 207.898438 C 63.976562 207.351562 64.101562 206.925781 64.351562 206.625 C 64.648438 206.273438 65.050781 206.101562 65.550781 206.101562 C 66.101562 206.101562 66.523438 206.273438 66.824219 206.625 C 67.074219 206.925781 67.199219 207.351562 67.199219 207.898438 C 67.199219 208.5 67.050781 208.949219 66.75 209.25 C 66.5 209.601562 66.101562 209.773438 65.550781 209.773438 C 65.050781 209.773438 64.648438 209.601562 64.351562 209.25 C 64.101562 208.949219 63.976562 208.5 63.976562 207.898438 M 65.550781 209.324219 C 65.949219 209.324219 66.25 209.226562 66.449219 209.023438 C 66.601562 208.773438 66.675781 208.398438 66.675781 207.898438 C 66.675781 207.449219 66.601562 207.101562 66.449219 206.851562 C 66.25 206.648438 65.949219 206.550781 65.550781 206.550781 C 65.199219 206.550781 64.925781 206.648438 64.726562 206.851562 C 64.574219 207.101562 64.5 207.449219 64.5 207.898438 C 64.5 208.398438 64.574219 208.773438 64.726562 209.023438 C 64.925781 209.226562 65.199219 209.324219 65.550781 209.324219 "/>
<path style=" stroke:none;fill-rule:nonzero;fill:rgb(100%,0%,0%);fill-opacity:1;" d="M 191.25 174.976562 C 191.25 174.425781 191.375 174 191.625 173.699219 C 191.925781 173.351562 192.324219 173.175781 192.824219 173.175781 C 193.375 173.175781 193.773438 173.351562 194.023438 173.699219 C 194.324219 174 194.476562 174.425781 194.476562 174.976562 C 194.476562 175.574219 194.324219 176.023438 194.023438 176.324219 C 193.773438 176.675781 193.375 176.851562 192.824219 176.851562 C 192.324219 176.851562 191.925781 176.675781 191.625 176.324219 C 191.375 176.023438 191.25 175.574219 191.25 174.976562 M 192.824219 176.398438 C 193.175781 176.398438 193.449219 176.300781 193.648438 176.101562 C 193.851562 175.851562 193.949219 175.476562 193.949219 174.976562 C 193.949219 174.523438 193.851562 174.175781 193.648438 173.925781 C 193.449219 173.726562 193.175781 173.625 192.824219 173.625 C 192.476562 173.625 192.199219 173.726562 192 173.925781 C 191.800781 174.175781 191.699219 174.523438 191.699219 174.976562 C 191.699219 175.476562 191.800781 175.851562 192 176.101562 C 192.199219 176.300781 192.476562 176.398438 192.824219 176.398438 "/>
<path style=" stroke:none;fill-rule:nonzero;fill:rgb(0%,0%,100%);fill-opacity:1;" d="M 192 194.550781 L 192.449219 194.550781 L 192.449219 196.050781 L 194.25 196.050781 L 194.25 194.550781 L 194.773438 194.550781 L 194.773438 198.074219 L 194.25 198.074219 L 194.25 196.425781 L 192.449219 196.425781 L 192.449219 198.074219 L 192 198.074219 L 192 194.550781 "/>
<path style=" stroke:none;fill-rule:nonzero;fill:rgb(0%,0%,100%);fill-opacity:1;" d="M 195.75 194.550781 L 196.875 196.425781 C 196.976562 196.523438 197.074219 196.675781 197.175781 196.875 C 197.324219 197.125 197.398438 197.25 197.398438 197.25 L 197.398438 194.550781 L 197.851562 194.550781 L 197.851562 198.074219 L 197.398438 198.074219 L 196.125 195.976562 C 196.023438 195.824219 195.925781 195.675781 195.824219 195.523438 C 195.726562 195.324219 195.648438 195.199219 195.601562 195.148438 L 195.601562 198.074219 L 195.148438 198.074219 L 195.148438 194.550781 L 195.75 194.550781 "/>
<path style=" stroke:none;fill-rule:nonzero;fill:rgb(0%,0%,0%);fill-opacity:1;" d="M 207.148438 181.726562 C 207.148438 181.125 207.300781 180.675781 207.601562 180.375 C 207.851562 180.074219 208.25 179.925781 208.800781 179.925781 C 209.300781 179.925781 209.675781 180.101562 209.925781 180.449219 L 209.550781 180.675781 C 209.398438 180.425781 209.148438 180.300781 208.800781 180.300781 C 208.449219 180.300781 208.175781 180.425781 207.976562 180.675781 C 207.773438 180.925781 207.675781 181.273438 207.675781 181.726562 C 207.675781 182.175781 207.773438 182.523438 207.976562 182.773438 C 208.175781 183.023438 208.476562 183.148438 208.875 183.148438 C 209.125 183.148438 209.398438 183.074219 209.699219 182.925781 L 209.851562 183.300781 C 209.699219 183.351562 209.523438 183.398438 209.324219 183.449219 C 209.175781 183.5 209 183.523438 208.800781 183.523438 C 208.25 183.523438 207.851562 183.375 207.601562 183.074219 C 207.300781 182.726562 207.148438 182.273438 207.148438 181.726562 "/>
<path style=" stroke:none;fill-rule:nonzero;fill:rgb(100%,0%,0%);fill-opacity:1;" d="M 195.824219 162.75 L 196.273438 162.75 L 196.273438 164.25 L 198.074219 164.25 L 198.074219 162.75 L 198.601562 162.75 L 198.601562 166.273438 L 198.074219 166.273438 L 198.074219 164.699219 L 196.273438 164.699219 L 196.273438 166.273438 L 195.824219 166.273438 L 195.824219 162.75 "/>
<path style=" stroke:none;fill-rule:nonzero;fill:rgb(100%,0%,0%);fill-opacity:1;" d="M 198.976562 164.550781 C 198.976562 163.949219 199.125 163.5 199.425781 163.199219 C 199.675781 162.898438 200.074219 162.75 200.625 162.75 C 201.125 162.75 201.523438 162.898438 201.824219 163.199219 C 202.074219 163.5 202.199219 163.949219 202.199219 164.550781 C 202.199219 165.101562 202.074219 165.550781 201.824219 165.898438 C 201.523438 166.199219 201.125 166.351562 200.625 166.351562 C 200.074219 166.351562 199.675781 166.199219 199.425781 165.898438 C 199.125 165.550781 198.976562 165.101562 198.976562 164.550781 M 200.625 165.976562 C 200.976562 165.976562 201.25 165.851562 201.449219 165.601562 C 201.648438 165.351562 201.75 165 201.75 164.550781 C 201.75 164.101562 201.648438 163.75 201.449219 163.5 C 201.25 163.25 200.976562 163.125 200.625 163.125 C 200.273438 163.125 200 163.25 199.800781 163.5 C 199.601562 163.699219 199.5 164.050781 199.5 164.550781 C 199.5 165 199.601562 165.351562 199.800781 165.601562 C 200 165.851562 200.273438 165.976562 200.625 165.976562 "/>
<path style=" stroke:none;fill-rule:nonzero;fill:rgb(100%,0%,0%);fill-opacity:1;" d="M 204.675781 149.175781 L 205.125 149.175781 L 205.125 150.675781 L 206.925781 150.675781 L 206.925781 149.175781 L 207.375 149.175781 L 207.375 152.699219 L 206.925781 152.699219 L 206.925781 151.125 L 205.125 151.125 L 205.125 152.699219 L 204.675781 152.699219 L 204.675781 149.175781 "/>
<path style=" stroke:none;fill-rule:nonzero;fill:rgb(100%,0%,0%);fill-opacity:1;" d="M 207.824219 150.976562 C 207.824219 150.375 207.976562 149.925781 208.273438 149.625 C 208.523438 149.324219 208.925781 149.175781 209.476562 149.175781 C 209.976562 149.175781 210.375 149.324219 210.675781 149.625 C 210.925781 149.925781 211.050781 150.375 211.050781 150.976562 C 211.050781 151.523438 210.925781 151.976562 210.675781 152.324219 C 210.375 152.625 209.976562 152.773438 209.476562 152.773438 C 208.925781 152.773438 208.523438 152.625 208.273438 152.324219 C 207.976562 151.976562 207.824219 151.523438 207.824219 150.976562 M 209.476562 152.398438 C 209.824219 152.398438 210.101562 152.273438 210.300781 152.023438 C 210.5 151.773438 210.601562 151.425781 210.601562 150.976562 C 210.601562 150.523438 210.5 150.175781 210.300781 149.925781 C 210.101562 149.675781 209.824219 149.550781 209.476562 149.550781 C 209.074219 149.550781 208.800781 149.675781 208.648438 149.925781 C 208.449219 150.125 208.351562 150.476562 208.351562 150.976562 C 208.351562 151.425781 208.449219 151.773438 208.648438 152.023438 C 208.800781 152.273438 209.074219 152.398438 209.476562 152.398438 "/>
<path style=" stroke:none;fill-rule:nonzero;fill:rgb(0%,0%,100%);fill-opacity:1;" d="M 223.800781 149.476562 L 224.324219 149.476562 L 224.324219 150.976562 L 226.125 150.976562 L 226.125 149.476562 L 226.574219 149.476562 L 226.574219 153 L 226.125 153 L 226.125 151.425781 L 224.324219 151.425781 L 224.324219 153 L 223.800781 153 L 223.800781 149.476562 "/>
<path style=" stroke:none;fill-rule:nonzero;fill:rgb(0%,0%,100%);fill-opacity:1;" d="M 227.550781 149.476562 L 228.75 151.351562 C 228.800781 151.5 228.898438 151.675781 229.050781 151.875 C 229.148438 152.125 229.199219 152.25 229.199219 152.25 L 229.199219 149.476562 L 229.726562 149.476562 L 229.726562 153 L 229.199219 153 L 228 150.976562 C 227.898438 150.824219 227.800781 150.648438 227.699219 150.449219 C 227.601562 150.300781 227.523438 150.175781 227.476562 150.074219 L 227.476562 153 L 227.023438 153 L 227.023438 149.476562 L 227.550781 149.476562 "/>
<path style=" stroke:none;fill-rule:nonzero;fill:rgb(100%,0%,0%);fill-opacity:1;" d="M 235.199219 134.324219 C 235.199219 133.773438 235.351562 133.351562 235.648438 133.050781 C 235.898438 132.75 236.300781 132.601562 236.851562 132.601562 C 237.351562 132.601562 237.75 132.75 238.050781 133.050781 C 238.351562 133.351562 238.5 133.773438 238.5 134.324219 C 238.5 134.925781 238.351562 135.375 238.050781 135.675781 C 237.75 136.023438 237.351562 136.199219 236.851562 136.199219 C 236.351562 136.199219 235.949219 136.023438 235.648438 135.675781 C 235.351562 135.375 235.199219 134.925781 235.199219 134.324219 M 236.851562 135.824219 C 237.199219 135.824219 237.476562 135.699219 237.675781 135.449219 C 237.875 135.199219 237.976562 134.824219 237.976562 134.324219 C 237.976562 133.875 237.875 133.550781 237.675781 133.351562 C 237.476562 133.101562 237.199219 132.976562 236.851562 132.976562 C 236.5 132.976562 236.226562 133.101562 236.023438 133.351562 C 235.824219 133.550781 235.726562 133.875 235.726562 134.324219 C 235.726562 134.824219 235.824219 135.199219 236.023438 135.449219 C 236.226562 135.699219 236.5 135.824219 236.851562 135.824219 "/>
<path style=" stroke:none;fill-rule:nonzero;fill:rgb(100%,0%,0%);fill-opacity:1;" d="M 235.273438 124.949219 L 235.726562 124.949219 L 235.726562 126.449219 L 237.523438 126.449219 L 237.523438 124.949219 L 238.050781 124.949219 L 238.050781 128.476562 L 237.523438 128.476562 L 237.523438 126.824219 L 235.726562 126.824219 L 235.726562 128.476562 L 235.273438 128.476562 L 235.273438 124.949219 "/>
<path style=" stroke:none;fill-rule:nonzero;fill:rgb(100%,0%,0%);fill-opacity:1;" d="M 238.425781 126.675781 C 238.425781 126.125 238.574219 125.699219 238.875 125.398438 C 239.125 125.050781 239.523438 124.875 240.074219 124.875 C 240.574219 124.875 240.976562 125.050781 241.273438 125.398438 C 241.574219 125.699219 241.726562 126.125 241.726562 126.675781 C 241.726562 127.273438 241.574219 127.726562 241.273438 128.023438 C 240.976562 128.375 240.574219 128.550781 240.074219 128.550781 C 239.574219 128.550781 239.175781 128.375 238.875 128.023438 C 238.574219 127.726562 238.425781 127.273438 238.425781 126.675781 M 240.074219 128.101562 C 240.425781 128.101562 240.699219 128 240.898438 127.800781 C 241.101562 127.550781 241.199219 127.175781 241.199219 126.675781 C 241.199219 126.226562 241.101562 125.875 240.898438 125.625 C 240.699219 125.425781 240.425781 125.324219 240.074219 125.324219 C 239.726562 125.324219 239.449219 125.425781 239.25 125.625 C 239.050781 125.875 238.949219 126.226562 238.949219 126.675781 C 238.949219 127.175781 239.050781 127.550781 239.25 127.800781 C 239.449219 128 239.726562 128.101562 240.074219 128.101562 "/>
<path style=" stroke:none;fill-rule:nonzero;fill:rgb(0%,0%,100%);fill-opacity:1;" d="M 263.699219 146.023438 L 264.898438 147.898438 C 264.949219 148 265.050781 148.175781 265.199219 148.425781 C 265.300781 148.625 265.351562 148.726562 265.351562 148.726562 L 265.351562 146.023438 L 265.875 146.023438 L 265.875 149.550781 L 265.351562 149.550781 L 264.148438 147.523438 C 264.050781 147.324219 263.949219 147.148438 263.851562 147 C 263.75 146.800781 263.675781 146.675781 263.625 146.625 L 263.625 149.550781 L 263.175781 149.550781 L 263.175781 146.023438 L 263.699219 146.023438 "/>
<path style=" stroke:none;fill-rule:nonzero;fill:rgb(100%,0%,0%);fill-opacity:1;" d="M 281.398438 143.851562 C 281.398438 143.300781 281.550781 142.875 281.851562 142.574219 C 282.101562 142.226562 282.5 142.050781 283.050781 142.050781 C 283.550781 142.050781 283.949219 142.226562 284.25 142.574219 C 284.5 142.875 284.625 143.300781 284.625 143.851562 C 284.625 144.449219 284.5 144.898438 284.25 145.199219 C 283.949219 145.550781 283.550781 145.726562 283.050781 145.726562 C 282.5 145.726562 282.101562 145.550781 281.851562 145.199219 C 281.550781 144.898438 281.398438 144.449219 281.398438 143.851562 M 283.050781 145.273438 C 283.398438 145.273438 283.675781 145.175781 283.875 144.976562 C 284.074219 144.726562 284.175781 144.351562 284.175781 143.851562 C 284.175781 143.398438 284.074219 143.050781 283.875 142.800781 C 283.675781 142.601562 283.398438 142.5 283.050781 142.5 C 282.648438 142.5 282.351562 142.601562 282.148438 142.800781 C 282 143.050781 281.925781 143.398438 281.925781 143.851562 C 281.925781 144.351562 282 144.726562 282.148438 144.976562 C 282.351562 145.175781 282.648438 145.273438 283.050781 145.273438 "/>
<path style=" stroke:none;fill-rule:nonzero;fill:rgb(100%,0%,0%);fill-opacity:1;" d="M 291.449219 143.101562 C 291.449219 142.550781 291.601562 142.101562 291.898438 141.75 C 292.148438 141.449219 292.550781 141.300781 293.101562 141.300781 C 293.601562 141.300781 294 141.449219 294.300781 141.75 C 294.550781 142.101562 294.675781 142.550781 294.675781 143.101562 C 294.675781 143.648438 294.550781 144.101562 294.300781 144.449219 C 294 144.75 293.601562 144.898438 293.101562 144.898438 C 292.550781 144.898438 292.148438 144.75 291.898438 144.449219 C 291.601562 144.101562 291.449219 143.648438 291.449219 143.101562 M 293.101562 144.523438 C 293.449219 144.523438 293.726562 144.398438 293.925781 144.148438 C 294.125 143.898438 294.226562 143.550781 294.226562 143.101562 C 294.226562 142.648438 294.125 142.300781 293.925781 142.050781 C 293.726562 141.800781 293.449219 141.675781 293.101562 141.675781 C 292.75 141.675781 292.476562 141.800781 292.273438 142.050781 C 292.074219 142.300781 291.976562 142.648438 291.976562 143.101562 C 291.976562 143.550781 292.074219 143.898438 292.273438 144.148438 C 292.476562 144.398438 292.75 144.523438 293.101562 144.523438 "/>
<path style=" stroke:none;fill-rule:nonzero;fill:rgb(100%,0%,0%);fill-opacity:1;" d="M 294.976562 141.300781 L 295.425781 141.300781 L 295.425781 142.800781 L 297.226562 142.800781 L 297.226562 141.300781 L 297.75 141.300781 L 297.75 144.898438 L 297.226562 144.898438 L 297.226562 143.25 L 295.425781 143.25 L 295.425781 144.898438 L 294.976562 144.898438 L 294.976562 141.300781 "/>
<path style=" stroke:none;fill-rule:nonzero;fill:rgb(0%,0%,100%);fill-opacity:1;" d="M 288.976562 172.125 L 290.175781 174 C 290.226562 174.101562 290.324219 174.273438 290.476562 174.523438 C 290.574219 174.726562 290.625 174.824219 290.625 174.824219 L 290.625 172.125 L 291.148438 172.125 L 291.148438 175.648438 L 290.625 175.648438 L 289.425781 173.625 C 289.324219 173.425781 289.226562 173.25 289.125 173.101562 C 289.023438 172.898438 288.949219 172.773438 288.898438 172.726562 L 288.898438 175.648438 L 288.449219 175.648438 L 288.449219 172.125 L 288.976562 172.125 "/>
<path style=" stroke:none;fill-rule:nonzero;fill:rgb(0%,0%,100%);fill-opacity:1;" d="M 291.523438 172.125 L 291.976562 172.125 L 291.976562 173.625 L 293.851562 173.625 L 293.851562 172.125 L 294.300781 172.125 L 294.300781 175.648438 L 293.851562 175.648438 L 293.851562 174 L 291.976562 174 L 291.976562 175.648438 L 291.523438 175.648438 L 291.523438 172.125 "/>
<path style=" stroke:none;fill-rule:nonzero;fill:rgb(100%,0%,0%);fill-opacity:1;" d="M 302.773438 185.925781 C 302.773438 185.324219 302.898438 184.875 303.148438 184.574219 C 303.449219 184.273438 303.851562 184.125 304.351562 184.125 C 304.898438 184.125 305.300781 184.273438 305.550781 184.574219 C 305.851562 184.875 306 185.324219 306 185.925781 C 306 186.476562 305.851562 186.925781 305.550781 187.273438 C 305.300781 187.574219 304.898438 187.726562 304.351562 187.726562 C 303.851562 187.726562 303.449219 187.574219 303.148438 187.273438 C 302.898438 186.925781 302.773438 186.476562 302.773438 185.925781 M 304.351562 187.351562 C 304.699219 187.351562 304.976562 187.226562 305.175781 186.976562 C 305.375 186.726562 305.476562 186.375 305.476562 185.925781 C 305.476562 185.476562 305.375 185.125 305.175781 184.875 C 304.976562 184.625 304.699219 184.5 304.351562 184.5 C 304 184.5 303.726562 184.625 303.523438 184.875 C 303.324219 185.074219 303.226562 185.425781 303.226562 185.925781 C 303.226562 186.375 303.324219 186.726562 303.523438 186.976562 C 303.726562 187.226562 304 187.351562 304.351562 187.351562 "/>
<path style=" stroke:none;fill-rule:nonzero;fill:rgb(100%,0%,0%);fill-opacity:1;" d="M 309.675781 193.273438 C 309.675781 192.726562 309.800781 192.300781 310.050781 192 C 310.351562 191.648438 310.75 191.476562 311.25 191.476562 C 311.800781 191.476562 312.199219 191.648438 312.449219 192 C 312.75 192.300781 312.898438 192.726562 312.898438 193.273438 C 312.898438 193.875 312.75 194.324219 312.449219 194.625 C 312.148438 194.976562 311.75 195.148438 311.25 195.148438 C 310.75 195.148438 310.351562 194.976562 310.050781 194.625 C 309.800781 194.324219 309.675781 193.875 309.675781 193.273438 M 311.25 194.699219 C 311.601562 194.699219 311.875 194.601562 312.074219 194.398438 C 312.273438 194.148438 312.375 193.773438 312.375 193.273438 C 312.375 192.824219 312.273438 192.476562 312.074219 192.226562 C 311.875 192.023438 311.601562 191.925781 311.25 191.925781 C 310.898438 191.925781 310.625 192.023438 310.425781 192.226562 C 310.226562 192.476562 310.125 192.824219 310.125 193.273438 C 310.125 193.773438 310.226562 194.148438 310.425781 194.398438 C 310.625 194.601562 310.898438 194.699219 311.25 194.699219 "/>
<path style=" stroke:none;fill-rule:nonzero;fill:rgb(100%,0%,0%);fill-opacity:1;" d="M 313.125 191.550781 L 313.574219 191.550781 L 313.574219 193.050781 L 315.449219 193.050781 L 315.449219 191.550781 L 315.898438 191.550781 L 315.898438 195.074219 L 315.449219 195.074219 L 315.449219 193.425781 L 313.574219 193.425781 L 313.574219 195.074219 L 313.125 195.074219 L 313.125 191.550781 "/>
<path style=" stroke:none;fill-rule:nonzero;fill:rgb(100%,0%,0%);fill-opacity:1;" d="M 291.523438 221.023438 L 292.050781 221.023438 L 292.050781 222.523438 L 293.851562 222.523438 L 293.851562 221.023438 L 294.300781 221.023438 L 294.300781 224.550781 L 293.851562 224.550781 L 293.851562 222.898438 L 292.050781 222.898438 L 292.050781 224.550781 L 291.523438 224.550781 L 291.523438 221.023438 "/>
<path style=" stroke:none;fill-rule:nonzero;fill:rgb(100%,0%,0%);fill-opacity:1;" d="M 294.75 222.75 C 294.75 222.199219 294.898438 221.75 295.199219 221.398438 C 295.449219 221.101562 295.851562 220.949219 296.398438 220.949219 C 296.898438 220.949219 297.300781 221.101562 297.601562 221.398438 C 297.851562 221.75 297.976562 222.199219 297.976562 222.75 C 297.976562 223.300781 297.851562 223.75 297.601562 224.101562 C 297.300781 224.398438 296.898438 224.550781 296.398438 224.550781 C 295.851562 224.550781 295.449219 224.398438 295.199219 224.101562 C 294.898438 223.75 294.75 223.300781 294.75 222.75 M 296.398438 224.175781 C 296.75 224.175781 297.023438 224.050781 297.226562 223.800781 C 297.425781 223.550781 297.523438 223.199219 297.523438 222.75 C 297.523438 222.300781 297.425781 221.949219 297.226562 221.699219 C 297.023438 221.449219 296.75 221.324219 296.398438 221.324219 C 296 221.324219 295.699219 221.449219 295.5 221.699219 C 295.351562 221.949219 295.273438 222.300781 295.273438 222.75 C 295.273438 223.199219 295.351562 223.550781 295.5 223.800781 C 295.699219 224.050781 296 224.175781 296.398438 224.175781 "/>
<path style=" stroke:none;fill-rule:nonzero;fill:rgb(100%,0%,0%);fill-opacity:1;" d="M 351.675781 227.773438 C 351.675781 227.226562 351.824219 226.773438 352.125 226.425781 C 352.375 226.125 352.773438 225.976562 353.324219 225.976562 C 353.824219 225.976562 354.226562 226.125 354.523438 226.425781 C 354.824219 226.773438 354.976562 227.226562 354.976562 227.773438 C 354.976562 228.324219 354.824219 228.773438 354.523438 229.125 C 354.226562 229.425781 353.824219 229.574219 353.324219 229.574219 C 352.824219 229.574219 352.425781 229.425781 352.125 229.125 C 351.824219 228.773438 351.675781 228.324219 351.675781 227.773438 M 353.324219 229.199219 C 353.675781 229.199219 353.949219 229.074219 354.148438 228.824219 C 354.351562 228.574219 354.449219 228.226562 354.449219 227.773438 C 354.449219 227.324219 354.351562 226.976562 354.148438 226.726562 C 353.949219 226.476562 353.675781 226.351562 353.324219 226.351562 C 352.976562 226.351562 352.699219 226.476562 352.5 226.726562 C 352.300781 226.976562 352.199219 227.324219 352.199219 227.773438 C 352.199219 228.226562 352.300781 228.574219 352.5 228.824219 C 352.699219 229.074219 352.976562 229.199219 353.324219 229.199219 "/>
<path style=" stroke:none;fill-rule:nonzero;fill:rgb(100%,0%,0%);fill-opacity:1;" d="M 355.199219 225.976562 L 355.648438 225.976562 L 355.648438 227.476562 L 357.449219 227.476562 L 357.449219 225.976562 L 357.976562 225.976562 L 357.976562 229.574219 L 357.449219 229.574219 L 357.449219 227.925781 L 355.648438 227.925781 L 355.648438 229.574219 L 355.199219 229.574219 L 355.199219 225.976562 "/>
<path style=" stroke:none;fill-rule:nonzero;fill:rgb(0%,0%,100%);fill-opacity:1;" d="M 284.324219 208.125 L 285.523438 210 C 285.574219 210.101562 285.675781 210.273438 285.824219 210.523438 C 285.925781 210.726562 285.976562 210.851562 285.976562 210.898438 L 285.976562 208.125 L 286.5 208.125 L 286.5 211.648438 L 285.976562 211.648438 L 284.773438 209.625 C 284.675781 209.476562 284.574219 209.300781 284.476562 209.101562 C 284.375 208.898438 284.300781 208.773438 284.25 208.726562 L 284.25 211.648438 L 283.800781 211.648438 L 283.800781 208.125 L 284.324219 208.125 "/>
<path style=" stroke:none;fill-rule:nonzero;fill:rgb(0%,0%,100%);fill-opacity:1;" d="M 286.875 208.125 L 287.324219 208.125 L 287.324219 209.625 L 289.199219 209.625 L 289.199219 208.125 L 289.648438 208.125 L 289.648438 211.648438 L 289.199219 211.648438 L 289.199219 210 L 287.324219 210 L 287.324219 211.648438 L 286.875 211.648438 L 286.875 208.125 "/>
<path style=" stroke:none;fill-rule:nonzero;fill:rgb(100%,0%,0%);fill-opacity:1;" d="M 283.199219 228.824219 C 283.199219 228.226562 283.351562 227.773438 283.648438 227.476562 C 283.898438 227.175781 284.300781 227.023438 284.851562 227.023438 C 285.351562 227.023438 285.75 227.175781 286.050781 227.476562 C 286.300781 227.773438 286.425781 228.226562 286.425781 228.824219 C 286.425781 229.375 286.300781 229.824219 286.050781 230.175781 C 285.75 230.476562 285.351562 230.625 284.851562 230.625 C 284.300781 230.625 283.898438 230.476562 283.648438 230.175781 C 283.351562 229.824219 283.199219 229.375 283.199219 228.824219 M 284.851562 230.25 C 285.199219 230.25 285.476562 230.125 285.675781 229.875 C 285.875 229.625 285.976562 229.273438 285.976562 228.824219 C 285.976562 228.375 285.875 228.023438 285.675781 227.773438 C 285.476562 227.523438 285.199219 227.398438 284.851562 227.398438 C 284.449219 227.398438 284.148438 227.523438 283.949219 227.773438 C 283.800781 227.976562 283.726562 228.324219 283.726562 228.824219 C 283.726562 229.273438 283.800781 229.625 283.949219 229.875 C 284.148438 230.125 284.449219 230.25 284.851562 230.25 "/>
<path style=" stroke:none;fill-rule:nonzero;fill:rgb(100%,0%,0%);fill-opacity:1;" d="M 266.175781 257.925781 C 266.175781 257.375 266.324219 256.925781 266.625 256.574219 C 266.875 256.273438 267.273438 256.125 267.824219 256.125 C 268.324219 256.125 268.726562 256.273438 269.023438 256.574219 C 269.324219 256.925781 269.476562 257.375 269.476562 257.925781 C 269.476562 258.476562 269.324219 258.925781 269.023438 259.273438 C 268.726562 259.574219 268.324219 259.726562 267.824219 259.726562 C 267.324219 259.726562 266.925781 259.574219 266.625 259.273438 C 266.324219 258.976562 266.175781 258.523438 266.175781 257.925781 M 267.824219 259.351562 C 268.175781 259.351562 268.449219 259.226562 268.648438 258.976562 C 268.851562 258.726562 268.949219 258.375 268.949219 257.925781 C 268.949219 257.476562 268.851562 257.125 268.648438 256.875 C 268.449219 256.625 268.175781 256.5 267.824219 256.5 C 267.476562 256.5 267.199219 256.625 267 256.875 C 266.800781 257.125 266.699219 257.476562 266.699219 257.925781 C 266.699219 258.425781 266.800781 258.773438 267 258.976562 C 267.199219 259.226562 267.476562 259.351562 267.824219 259.351562 "/>
<path style=" stroke:none;fill-rule:nonzero;fill:rgb(100%,0%,0%);fill-opacity:1;" d="M 269.699219 256.199219 L 270.148438 256.199219 L 270.148438 257.699219 L 271.949219 257.699219 L 271.949219 256.199219 L 272.476562 256.199219 L 272.476562 259.726562 L 271.949219 259.726562 L 271.949219 258.074219 L 270.148438 258.074219 L 270.148438 259.726562 L 269.699219 259.726562 L 269.699219 256.199219 "/>
<path style=" stroke:none;fill-rule:nonzero;fill:rgb(0%,0%,100%);fill-opacity:1;" d="M 253.273438 226.949219 L 254.476562 228.824219 C 254.523438 228.925781 254.625 229.101562 254.773438 229.351562 C 254.875 229.550781 254.925781 229.675781 254.925781 229.726562 L 254.925781 226.949219 L 255.375 226.949219 L 255.375 230.476562 L 254.925781 230.476562 L 253.648438 228.449219 C 253.550781 228.300781 253.449219 228.125 253.351562 227.925781 C 253.25 227.726562 253.199219 227.601562 253.199219 227.550781 L 253.199219 230.476562 L 252.75 230.476562 L 252.75 226.949219 L 253.273438 226.949219 "/>
<path style=" stroke:none;fill-rule:nonzero;fill:rgb(100%,0%,0%);fill-opacity:1;" d="M 237.449219 240.300781 C 237.449219 239.699219 237.601562 239.25 237.898438 238.949219 C 238.148438 238.648438 238.550781 238.5 239.101562 238.5 C 239.601562 238.5 240 238.648438 240.300781 238.949219 C 240.550781 239.25 240.675781 239.699219 240.675781 240.300781 C 240.675781 240.851562 240.550781 241.300781 240.300781 241.648438 C 240 241.949219 239.601562 242.101562 239.101562 242.101562 C 238.550781 242.101562 238.148438 241.949219 237.898438 241.648438 C 237.601562 241.300781 237.449219 240.851562 237.449219 240.300781 M 239.101562 241.726562 C 239.449219 241.726562 239.726562 241.601562 239.925781 241.351562 C 240.125 241.101562 240.226562 240.75 240.226562 240.300781 C 240.226562 239.800781 240.125 239.449219 239.925781 239.25 C 239.726562 239 239.449219 238.875 239.101562 238.875 C 238.75 238.875 238.476562 239 238.273438 239.25 C 238.074219 239.449219 237.976562 239.800781 237.976562 240.300781 C 237.976562 240.75 238.074219 241.101562 238.273438 241.351562 C 238.476562 241.601562 238.75 241.726562 239.101562 241.726562 "/>
<path style=" stroke:none;fill-rule:nonzero;fill:rgb(100%,0%,0%);fill-opacity:1;" d="M 228.75 245.324219 C 228.75 244.773438 228.875 244.351562 229.125 244.050781 C 229.425781 243.699219 229.824219 243.523438 230.324219 243.523438 C 230.875 243.523438 231.273438 243.699219 231.523438 244.050781 C 231.824219 244.351562 231.976562 244.773438 231.976562 245.324219 C 231.976562 245.925781 231.824219 246.375 231.523438 246.675781 C 231.273438 247.023438 230.875 247.199219 230.324219 247.199219 C 229.824219 247.199219 229.425781 247.023438 229.125 246.675781 C 228.875 246.375 228.75 245.925781 228.75 245.324219 M 230.324219 246.75 C 230.726562 246.75 231 246.648438 231.148438 246.449219 C 231.351562 246.199219 231.449219 245.824219 231.449219 245.324219 C 231.449219 244.875 231.351562 244.523438 231.148438 244.273438 C 231 244.074219 230.726562 243.976562 230.324219 243.976562 C 229.976562 243.976562 229.699219 244.074219 229.5 244.273438 C 229.300781 244.523438 229.199219 244.875 229.199219 245.324219 C 229.199219 245.824219 229.300781 246.199219 229.5 246.449219 C 229.699219 246.648438 229.976562 246.75 230.324219 246.75 "/>
<path style=" stroke:none;fill-rule:nonzero;fill:rgb(100%,0%,0%);fill-opacity:1;" d="M 232.199219 243.601562 L 232.726562 243.601562 L 232.726562 245.101562 L 234.523438 245.101562 L 234.523438 243.601562 L 234.976562 243.601562 L 234.976562 247.125 L 234.523438 247.125 L 234.523438 245.476562 L 232.726562 245.476562 L 232.726562 247.125 L 232.199219 247.125 L 232.199219 243.601562 "/>
<path style=" stroke:none;fill-rule:nonzero;fill:rgb(0%,0%,100%);fill-opacity:1;" d="M 215.476562 214.425781 L 215.925781 214.425781 L 215.925781 215.925781 L 217.726562 215.925781 L 217.726562 214.425781 L 218.25 214.425781 L 218.25 217.949219 L 217.726562 217.949219 L 217.726562 216.300781 L 215.925781 216.300781 L 215.925781 217.949219 L 215.476562 217.949219 L 215.476562 214.425781 "/>
<path style=" stroke:none;fill-rule:nonzero;fill:rgb(0%,0%,100%);fill-opacity:1;" d="M 219.226562 214.425781 L 220.351562 216.300781 C 220.449219 216.398438 220.550781 216.550781 220.648438 216.75 C 220.800781 217 220.875 217.125 220.875 217.125 L 220.875 214.425781 L 221.324219 214.425781 L 221.324219 217.949219 L 220.875 217.949219 L 219.601562 215.851562 C 219.5 215.699219 219.398438 215.550781 219.300781 215.398438 C 219.199219 215.199219 219.125 215.074219 219.074219 215.023438 L 219.074219 217.949219 L 218.625 217.949219 L 218.625 214.425781 L 219.226562 214.425781 "/>
<path style=" stroke:none;fill-rule:nonzero;fill:rgb(100%,0%,0%);fill-opacity:1;" d="M 200.023438 211.648438 C 200.023438 211.101562 200.148438 210.675781 200.398438 210.375 C 200.699219 210.023438 201.101562 209.851562 201.601562 209.851562 C 202.148438 209.851562 202.550781 210.023438 202.800781 210.375 C 203.101562 210.675781 203.25 211.101562 203.25 211.648438 C 203.25 212.25 203.101562 212.699219 202.800781 213 C 202.550781 213.351562 202.148438 213.523438 201.601562 213.523438 C 201.101562 213.523438 200.699219 213.351562 200.398438 213 C 200.148438 212.699219 200.023438 212.25 200.023438 211.648438 M 201.601562 213.074219 C 201.949219 213.074219 202.226562 212.976562 202.425781 212.773438 C 202.625 212.523438 202.726562 212.148438 202.726562 211.648438 C 202.726562 211.199219 202.625 210.851562 202.425781 210.601562 C 202.226562 210.398438 201.949219 210.300781 201.601562 210.300781 C 201.25 210.300781 200.976562 210.398438 200.773438 210.601562 C 200.574219 210.851562 200.476562 211.199219 200.476562 211.648438 C 200.476562 212.148438 200.574219 212.523438 200.773438 212.773438 C 200.976562 212.976562 201.25 213.074219 201.601562 213.074219 "/>
</g>
</svg>
