<?xml version="1.0" encoding="UTF-8"?>
<svg xmlns="http://www.w3.org/2000/svg" xmlns:xlink="http://www.w3.org/1999/xlink" width="375pt" height="375pt" viewBox="0 0 375 375" version="1.1">
<g id="surface194">
<rect x="0" y="0" width="375" height="375" style="fill:rgb(100%,100%,100%);fill-opacity:1;stroke:none;"/>
<path style="fill:none;stroke-width:2;stroke-linecap:butt;stroke-linejoin:miter;stroke:rgb(0%,0%,0%);stroke-opacity:1;stroke-miterlimit:4;" d="M 74.5 159.098958 L 81.697917 172.901042 " transform="matrix(0.75,0,0,0.75,0,0)"/>
<path style="fill:none;stroke-width:2;stroke-linecap:butt;stroke-linejoin:miter;stroke:rgb(100%,0%,0%);stroke-opacity:1;stroke-miterlimit:4;" d="M 81.697917 172.901042 L 89 186.802083 " transform="matrix(0.75,0,0,0.75,0,0)"/>
<path style="fill:none;stroke-width:2;stroke-linecap:butt;stroke-linejoin:miter;stroke:rgb(100%,0%,0%);stroke-opacity:1;stroke-miterlimit:4;" d="M 99 193.901042 L 112.598958 194.401042 " transform="matrix(0.75,0,0,0.75,0,0)"/>
<path style="fill:none;stroke-width:2;stroke-linecap:butt;stroke-linejoin:miter;stroke:rgb(0%,0%,100%);stroke-opacity:1;stroke-miterlimit:4;" d="M 112.598958 194.401042 L 126.197917 195 " transform="matrix(0.75,0,0,0.75,0,0)"/>
<path style="fill:none;stroke-width:2;stroke-linecap:butt;stroke-linejoin:miter;stroke:rgb(0%,0%,100%);stroke-opacity:1;stroke-miterlimit:4;" d="M 135.302083 202 L 142.5 215.901042 " transform="matrix(0.75,0,0,0.75,0,0)"/>
<path style="fill:none;stroke-width:2;stroke-linecap:butt;stroke-linejoin:miter;stroke:rgb(0%,0%,0%);stroke-opacity:1;stroke-miterlimit:4;" d="M 142.5 215.901042 L 149.802083 229.802083 " transform="matrix(0.75,0,0,0.75,0,0)"/>
<path style="fill:none;stroke-width:2;stroke-linecap:butt;stroke-linejoin:miter;stroke:rgb(0%,0%,100%);stroke-opacity:1;stroke-miterlimit:4;" d="M 131.401042 207.197917 L 137.197917 218.401042 " transform="matrix(0.75,0,0,0.75,0,0)"/>
<path style="fill:none;stroke-width:2;stroke-linecap:butt;stroke-linejoin:miter;stroke:rgb(0%,0%,0%);stroke-opacity:1;stroke-miterlimit:4;" d="M 137.197917 218.401042 L 143.098958 229.5 " transform="matrix(0.75,0,0,0.75,0,0)"/>
<path style="fill:none;stroke-width:2;stroke-linecap:butt;stroke-linejoin:miter;stroke:rgb(0%,0%,0%);stroke-opacity:1;stroke-miterlimit:4;" d="M 149.802083 229.802083 L 188.901042 231.302083 " transform="matrix(0.75,0,0,0.75,0,0)"/>
<path style="fill:none;stroke-width:2;stroke-linecap:butt;stroke-linejoin:miter;stroke:rgb(0%,0%,0%);stroke-opacity:1;stroke-miterlimit:4;" d="M 190.5 234.302083 L 199.098958 220.598958 " transform="matrix(0.75,0,0,0.75,0,0)"/>
<path style="fill:none;stroke-width:2;stroke-linecap:butt;stroke-linejoin:miter;stroke:rgb(100%,0%,0%);stroke-opacity:1;stroke-miterlimit:4;" d="M 199.098958 220.598958 L 207.802083 206.901042 " transform="matrix(0.75,0,0,0.75,0,0)"/>
<path style="fill:none;stroke-width:2;stroke-linecap:butt;stroke-linejoin:miter;stroke:rgb(0%,0%,0%);stroke-opacity:1;stroke-miterlimit:4;" d="M 185.5 231.197917 L 194.197917 217.5 " transform="matrix(0.75,0,0,0.75,0,0)"/>
<path style="fill:none;stroke-width:2;stroke-linecap:butt;stroke-linejoin:miter;stroke:rgb(100%,0%,0%);stroke-opacity:1;stroke-miterlimit:4;" d="M 194.197917 217.5 L 202.802083 203.802083 " transform="matrix(0.75,0,0,0.75,0,0)"/>
<path style="fill:none;stroke-width:2;stroke-linecap:butt;stroke-linejoin:miter;stroke:rgb(0%,0%,0%);stroke-opacity:1;stroke-miterlimit:4;" d="M 188.901042 231.302083 L 196.197917 245.197917 " transform="matrix(0.75,0,0,0.75,0,0)"/>
<path style="fill:none;stroke-width:2;stroke-linecap:butt;stroke-linejoin:miter;stroke:rgb(0%,0%,100%);stroke-opacity:1;stroke-miterlimit:4;" d="M 196.197917 245.197917 L 203.5 259.098958 " transform="matrix(0.75,0,0,0.75,0,0)"/>
<path style="fill-rule:evenodd;fill:rgb(0%,0%,0%);fill-opacity:1;stroke-width:0.5;stroke-linecap:butt;stroke-linejoin:miter;stroke:rgb(0%,0%,0%);stroke-opacity:1;stroke-miterlimit:4;" d="M 246.098958 267.401042 L 229.901042 268.302083 L 230 265.302083 Z M 246.098958 267.401042 " transform="matrix(0.75,0,0,0.75,0,0)"/>
<path style="fill-rule:evenodd;fill:rgb(0%,0%,100%);fill-opacity:1;stroke-width:0.5;stroke-linecap:butt;stroke-linejoin:miter;stroke:rgb(0%,0%,100%);stroke-opacity:1;stroke-miterlimit:4;" d="M 229.901042 268.302083 L 213.901042 263.197917 L 213.697917 269.098958 Z M 229.901042 268.302083 " transform="matrix(0.75,0,0,0.75,0,0)"/>
<path style="fill-rule:evenodd;fill:rgb(0%,0%,100%);fill-opacity:1;stroke-width:0.5;stroke-linecap:butt;stroke-linejoin:miter;stroke:rgb(0%,0%,100%);stroke-opacity:1;stroke-miterlimit:4;" d="M 229.901042 268.302083 L 230 265.302083 L 213.901042 263.197917 Z M 229.901042 268.302083 " transform="matrix(0.75,0,0,0.75,0,0)"/>
<path style="fill:none;stroke-width:2;stroke-linecap:butt;stroke-linejoin:miter;stroke:rgb(0%,0%,0%);stroke-opacity:1;stroke-miterlimit:4;" d="M 246.098958 267.401042 L 272.598958 296.098958 " transform="matrix(0.75,0,0,0.75,0,0)"/>
<path style="fill:none;stroke-width:2;stroke-linecap:butt;stroke-linejoin:miter;stroke:rgb(0%,0%,0%);stroke-opacity:1;stroke-miterlimit:4;" d="M 269.802083 293.098958 L 269.098958 310.598958 " transform="matrix(0.75,0,0,0.75,0,0)"/>
<path style="fill:none;stroke-width:2;stroke-linecap:butt;stroke-linejoin:miter;stroke:rgb(100%,0%,0%);stroke-opacity:1;stroke-miterlimit:4;" d="M 269.098958 310.598958 L 268.401042 328.197917 " transform="matrix(0.75,0,0,0.75,0,0)"/>
<path style="fill:none;stroke-width:2;stroke-linecap:butt;stroke-linejoin:miter;stroke:rgb(0%,0%,0%);stroke-opacity:1;stroke-miterlimit:4;" d="M 275.598958 293.302083 L 274.901042 310.901042 " transform="matrix(0.75,0,0,0.75,0,0)"/>
<path style="fill:none;stroke-width:2;stroke-linecap:butt;stroke-linejoin:miter;stroke:rgb(100%,0%,0%);stroke-opacity:1;stroke-miterlimit:4;" d="M 274.901042 310.901042 L 274.302083 328.401042 " transform="matrix(0.75,0,0,0.75,0,0)"/>
<path style="fill:none;stroke-width:2;stroke-linecap:butt;stroke-linejoin:miter;stroke:rgb(0%,0%,0%);stroke-opacity:1;stroke-miterlimit:4;" d="M 272.598958 296.098958 L 284.197917 285.401042 " transform="matrix(0.75,0,0,0.75,0,0)"/>
<path style="fill:none;stroke-width:2;stroke-linecap:butt;stroke-linejoin:miter;stroke:rgb(0%,0%,100%);stroke-opacity:1;stroke-miterlimit:4;" d="M 284.197917 285.401042 L 295.802083 274.697917 " transform="matrix(0.75,0,0,0.75,0,0)"/>
<path style="fill:none;stroke-width:2;stroke-linecap:butt;stroke-linejoin:miter;stroke:rgb(0%,0%,100%);stroke-opacity:1;stroke-miterlimit:4;" d="M 306.802083 268.401042 L 323.098958 264.697917 " transform="matrix(0.75,0,0,0.75,0,0)"/>
<path style="fill:none;stroke-width:2;stroke-linecap:butt;stroke-linejoin:miter;stroke:rgb(0%,0%,0%);stroke-opacity:1;stroke-miterlimit:4;" d="M 323.098958 264.697917 L 339.401042 261 " transform="matrix(0.75,0,0,0.75,0,0)"/>
<path style="fill:none;stroke-width:2;stroke-linecap:butt;stroke-linejoin:miter;stroke:rgb(0%,0%,0%);stroke-opacity:1;stroke-miterlimit:4;" d="M 339.401042 261 L 365.901042 289.697917 " transform="matrix(0.75,0,0,0.75,0,0)"/>
<path style="fill:none;stroke-width:2;stroke-linecap:butt;stroke-linejoin:miter;stroke:rgb(0%,0%,0%);stroke-opacity:1;stroke-miterlimit:4;" d="M 364.901042 293 L 381.598958 289.197917 " transform="matrix(0.75,0,0,0.75,0,0)"/>
<path style="fill:none;stroke-width:2;stroke-linecap:butt;stroke-linejoin:miter;stroke:rgb(100%,0%,0%);stroke-opacity:1;stroke-miterlimit:4;" d="M 381.598958 289.197917 L 398.302083 285.401042 " transform="matrix(0.75,0,0,0.75,0,0)"/>
<path style="fill:none;stroke-width:2;stroke-linecap:butt;stroke-linejoin:miter;stroke:rgb(0%,0%,0%);stroke-opacity:1;stroke-miterlimit:4;" d="M 363.598958 287.197917 L 380.302083 283.5 " transform="matrix(0.75,0,0,0.75,0,0)"/>
<path style="fill:none;stroke-width:2;stroke-linecap:butt;stroke-linejoin:miter;stroke:rgb(100%,0%,0%);stroke-opacity:1;stroke-miterlimit:4;" d="M 380.302083 283.5 L 397 279.697917 " transform="matrix(0.75,0,0,0.75,0,0)"/>
<path style="fill:none;stroke-width:2;stroke-linecap:butt;stroke-linejoin:miter;stroke:rgb(0%,0%,0%);stroke-opacity:1;stroke-miterlimit:4;" d="M 365.901042 289.697917 L 361.197917 304.901042 " transform="matrix(0.75,0,0,0.75,0,0)"/>
<path style="fill:none;stroke-width:2;stroke-linecap:butt;stroke-linejoin:miter;stroke:rgb(100%,0%,0%);stroke-opacity:1;stroke-miterlimit:4;" d="M 361.197917 304.901042 L 356.5 320.098958 " transform="matrix(0.75,0,0,0.75,0,0)"/>
<path style="fill:none;stroke-width:2;stroke-linecap:butt;stroke-linejoin:miter;stroke:rgb(0%,0%,0%);stroke-opacity:1;stroke-miterlimit:4;" d="M 339.401042 261 L 351 223.697917 " transform="matrix(0.75,0,0,0.75,0,0)"/>
<path style="fill:none;stroke-width:2;stroke-linecap:butt;stroke-linejoin:miter;stroke:rgb(0%,0%,0%);stroke-opacity:1;stroke-miterlimit:4;" d="M 334.802083 256.098958 L 344.401042 225.197917 " transform="matrix(0.75,0,0,0.75,0,0)"/>
<path style="fill:none;stroke-width:2;stroke-linecap:butt;stroke-linejoin:miter;stroke:rgb(0%,0%,0%);stroke-opacity:1;stroke-miterlimit:4;" d="M 351 223.697917 L 389.098958 215.098958 " transform="matrix(0.75,0,0,0.75,0,0)"/>
<path style="fill:none;stroke-width:2;stroke-linecap:butt;stroke-linejoin:miter;stroke:rgb(0%,0%,0%);stroke-opacity:1;stroke-miterlimit:4;" d="M 389.098958 215.098958 L 399.598958 226.5 " transform="matrix(0.75,0,0,0.75,0,0)"/>
<path style="fill:none;stroke-width:2;stroke-linecap:butt;stroke-linejoin:miter;stroke:rgb(0%,0%,100%);stroke-opacity:1;stroke-miterlimit:4;" d="M 399.598958 226.5 L 410.098958 237.901042 " transform="matrix(0.75,0,0,0.75,0,0)"/>
<path style="fill:none;stroke-width:2;stroke-linecap:butt;stroke-linejoin:miter;stroke:rgb(0%,0%,100%);stroke-opacity:1;stroke-miterlimit:4;" d="M 410.098958 247.901042 L 397.197917 257.5 " transform="matrix(0.75,0,0,0.75,0,0)"/>
<path style="fill:none;stroke-width:2;stroke-linecap:butt;stroke-linejoin:miter;stroke:rgb(0%,0%,0%);stroke-opacity:1;stroke-miterlimit:4;" d="M 397.197917 257.5 L 384.302083 267.197917 " transform="matrix(0.75,0,0,0.75,0,0)"/>
<path style="fill:none;stroke-width:2;stroke-linecap:butt;stroke-linejoin:miter;stroke:rgb(0%,0%,100%);stroke-opacity:1;stroke-miterlimit:4;" d="M 419.697917 250.598958 L 427.598958 264 " transform="matrix(0.75,0,0,0.75,0,0)"/>
<path style="fill:none;stroke-width:2;stroke-linecap:butt;stroke-linejoin:miter;stroke:rgb(0%,0%,0%);stroke-opacity:1;stroke-miterlimit:4;" d="M 427.598958 264 L 435.598958 277.401042 " transform="matrix(0.75,0,0,0.75,0,0)"/>
<path style="fill:none;stroke-width:2;stroke-linecap:butt;stroke-linejoin:miter;stroke:rgb(0%,0%,0%);stroke-opacity:1;stroke-miterlimit:4;" d="M 435.598958 277.401042 L 473.697917 268.802083 " transform="matrix(0.75,0,0,0.75,0,0)"/>
<path style="fill:none;stroke-width:2;stroke-linecap:butt;stroke-linejoin:miter;stroke:rgb(0%,0%,0%);stroke-opacity:1;stroke-miterlimit:4;" d="M 473.697917 268.802083 L 477.302083 229.901042 " transform="matrix(0.75,0,0,0.75,0,0)"/>
<path style="fill:none;stroke-width:2;stroke-linecap:butt;stroke-linejoin:miter;stroke:rgb(0%,0%,0%);stroke-opacity:1;stroke-miterlimit:4;" d="M 477.302083 229.901042 L 441.401042 214.401042 " transform="matrix(0.75,0,0,0.75,0,0)"/>
<path style="fill:none;stroke-width:2;stroke-linecap:butt;stroke-linejoin:miter;stroke:rgb(0%,0%,0%);stroke-opacity:1;stroke-miterlimit:4;" d="M 351 223.697917 L 324.5 195 " transform="matrix(0.75,0,0,0.75,0,0)"/>
<path style="fill:none;stroke-width:2;stroke-linecap:butt;stroke-linejoin:miter;stroke:rgb(0%,0%,0%);stroke-opacity:1;stroke-miterlimit:4;" d="M 324.5 195 L 307.901042 198.802083 " transform="matrix(0.75,0,0,0.75,0,0)"/>
<path style="fill:none;stroke-width:2;stroke-linecap:butt;stroke-linejoin:miter;stroke:rgb(80%,80%,0%);stroke-opacity:1;stroke-miterlimit:4;" d="M 307.901042 198.802083 L 291.197917 202.5 " transform="matrix(0.75,0,0,0.75,0,0)"/>
<path style="fill:none;stroke-width:2;stroke-linecap:butt;stroke-linejoin:miter;stroke:rgb(80%,80%,0%);stroke-opacity:1;stroke-miterlimit:4;" d="M 284.197917 210.697917 L 279.5 225.802083 " transform="matrix(0.75,0,0,0.75,0,0)"/>
<path style="fill:none;stroke-width:2;stroke-linecap:butt;stroke-linejoin:miter;stroke:rgb(0%,0%,0%);stroke-opacity:1;stroke-miterlimit:4;" d="M 279.5 225.802083 L 274.802083 240.901042 " transform="matrix(0.75,0,0,0.75,0,0)"/>
<path style="fill:none;stroke-width:2;stroke-linecap:butt;stroke-linejoin:miter;stroke:rgb(0%,0%,0%);stroke-opacity:1;stroke-miterlimit:4;" d="M 149.802083 229.802083 L 129 262.802083 " transform="matrix(0.75,0,0,0.75,0,0)"/>
<path style="fill:none;stroke-width:2;stroke-linecap:butt;stroke-linejoin:miter;stroke:rgb(0%,0%,0%);stroke-opacity:1;stroke-miterlimit:4;" d="M 129 262.802083 L 143.401042 299.098958 " transform="matrix(0.75,0,0,0.75,0,0)"/>
<path style="fill:none;stroke-width:2;stroke-linecap:butt;stroke-linejoin:miter;stroke:rgb(0%,0%,0%);stroke-opacity:1;stroke-miterlimit:4;" d="M 125.098958 268.901042 L 136.401042 297.302083 " transform="matrix(0.75,0,0,0.75,0,0)"/>
<path style="fill:none;stroke-width:2;stroke-linecap:butt;stroke-linejoin:miter;stroke:rgb(0%,0%,0%);stroke-opacity:1;stroke-miterlimit:4;" d="M 143.401042 299.098958 L 130.802083 309.598958 " transform="matrix(0.75,0,0,0.75,0,0)"/>
<path style="fill:none;stroke-width:2;stroke-linecap:butt;stroke-linejoin:miter;stroke:rgb(80%,80%,0%);stroke-opacity:1;stroke-miterlimit:4;" d="M 130.802083 309.598958 L 118.197917 320 " transform="matrix(0.75,0,0,0.75,0,0)"/>
<path style="fill:none;stroke-width:2;stroke-linecap:butt;stroke-linejoin:miter;stroke:rgb(80%,80%,0%);stroke-opacity:1;stroke-miterlimit:4;" d="M 108.598958 321 L 94.5 312.098958 " transform="matrix(0.75,0,0,0.75,0,0)"/>
<path style="fill:none;stroke-width:2;stroke-linecap:butt;stroke-linejoin:miter;stroke:rgb(0%,0%,0%);stroke-opacity:1;stroke-miterlimit:4;" d="M 94.5 312.098958 L 80.401042 303.197917 " transform="matrix(0.75,0,0,0.75,0,0)"/>
<path style="fill:none;stroke-width:2;stroke-linecap:butt;stroke-linejoin:miter;stroke:rgb(0%,0%,0%);stroke-opacity:1;stroke-miterlimit:4;" d="M 80.401042 303.197917 L 65 309.302083 " transform="matrix(0.75,0,0,0.75,0,0)"/>
<path style="fill:none;stroke-width:2;stroke-linecap:butt;stroke-linejoin:miter;stroke:rgb(0%,0%,100%);stroke-opacity:1;stroke-miterlimit:4;" d="M 65 309.302083 L 49.598958 315.5 " transform="matrix(0.75,0,0,0.75,0,0)"/>
<path style="fill:none;stroke-width:2;stroke-linecap:butt;stroke-linejoin:miter;stroke:rgb(0%,0%,0%);stroke-opacity:1;stroke-miterlimit:4;" d="M 80.401042 303.197917 L 84.302083 287.697917 " transform="matrix(0.75,0,0,0.75,0,0)"/>
<path style="fill:none;stroke-width:2;stroke-linecap:butt;stroke-linejoin:miter;stroke:rgb(0%,0%,100%);stroke-opacity:1;stroke-miterlimit:4;" d="M 84.302083 287.697917 L 88.302083 272.197917 " transform="matrix(0.75,0,0,0.75,0,0)"/>
<path style="fill:none;stroke-width:2;stroke-linecap:butt;stroke-linejoin:miter;stroke:rgb(0%,0%,0%);stroke-opacity:1;stroke-miterlimit:4;" d="M 87.098958 300.5 L 90.5 287.098958 " transform="matrix(0.75,0,0,0.75,0,0)"/>
<path style="fill:none;stroke-width:2;stroke-linecap:butt;stroke-linejoin:miter;stroke:rgb(0%,0%,100%);stroke-opacity:1;stroke-miterlimit:4;" d="M 90.5 287.098958 L 93.901042 273.598958 " transform="matrix(0.75,0,0,0.75,0,0)"/>
<path style="fill:none;stroke-width:2;stroke-linecap:butt;stroke-linejoin:miter;stroke:rgb(0%,0%,0%);stroke-opacity:1;stroke-miterlimit:4;" d="M 274.802083 240.901042 L 246.098958 267.401042 " transform="matrix(0.75,0,0,0.75,0,0)"/>
<path style="fill:none;stroke-width:2;stroke-linecap:butt;stroke-linejoin:miter;stroke:rgb(0%,0%,100%);stroke-opacity:1;stroke-miterlimit:4;" d="M 95.5 265 L 112.197917 263.901042 " transform="matrix(0.75,0,0,0.75,0,0)"/>
<path style="fill:none;stroke-width:2;stroke-linecap:butt;stroke-linejoin:miter;stroke:rgb(0%,0%,0%);stroke-opacity:1;stroke-miterlimit:4;" d="M 112.197917 263.901042 L 129 262.802083 " transform="matrix(0.75,0,0,0.75,0,0)"/>
<path style="fill:none;stroke-width:2;stroke-linecap:butt;stroke-linejoin:miter;stroke:rgb(0%,0%,0%);stroke-opacity:1;stroke-miterlimit:4;" d="M 274.802083 240.901042 L 285.302083 252.302083 " transform="matrix(0.75,0,0,0.75,0,0)"/>
<path style="fill:none;stroke-width:2;stroke-linecap:butt;stroke-linejoin:miter;stroke:rgb(0%,0%,100%);stroke-opacity:1;stroke-miterlimit:4;" d="M 285.302083 252.302083 L 295.802083 263.697917 " transform="matrix(0.75,0,0,0.75,0,0)"/>
<path style="fill:none;stroke-width:2;stroke-linecap:butt;stroke-linejoin:miter;stroke:rgb(0%,0%,0%);stroke-opacity:1;stroke-miterlimit:4;" d="M 441.401042 214.401042 L 431.5 225.697917 " transform="matrix(0.75,0,0,0.75,0,0)"/>
<path style="fill:none;stroke-width:2;stroke-linecap:butt;stroke-linejoin:miter;stroke:rgb(0%,0%,100%);stroke-opacity:1;stroke-miterlimit:4;" d="M 431.5 225.697917 L 421.697917 236.901042 " transform="matrix(0.75,0,0,0.75,0,0)"/>
<path style="fill:none;stroke-width:1;stroke-linecap:butt;stroke-linejoin:miter;stroke:rgb(0%,0%,0%);stroke-opacity:1;stroke-miterlimit:4;" d="M 271.697917 239.401042 L 272.098958 238.802083 " transform="matrix(0.75,0,0,0.75,0,0)"/>
<path style="fill:none;stroke-width:1;stroke-linecap:butt;stroke-linejoin:miter;stroke:rgb(0%,0%,0%);stroke-opacity:1;stroke-miterlimit:4;" d="M 268.598958 237.802083 L 269.302083 236.697917 " transform="matrix(0.75,0,0,0.75,0,0)"/>
<path style="fill:none;stroke-width:1;stroke-linecap:butt;stroke-linejoin:miter;stroke:rgb(0%,0%,0%);stroke-opacity:1;stroke-miterlimit:4;" d="M 265.598958 236.302083 L 266.598958 234.598958 " transform="matrix(0.75,0,0,0.75,0,0)"/>
<path style="fill:none;stroke-width:1;stroke-linecap:butt;stroke-linejoin:miter;stroke:rgb(0%,0%,0%);stroke-opacity:1;stroke-miterlimit:4;" d="M 262.5 234.697917 L 263.901042 232.5 " transform="matrix(0.75,0,0,0.75,0,0)"/>
<path style="fill:none;stroke-width:1;stroke-linecap:butt;stroke-linejoin:miter;stroke:rgb(0%,0%,0%);stroke-opacity:1;stroke-miterlimit:4;" d="M 259.401042 233.098958 L 261.098958 230.401042 " transform="matrix(0.75,0,0,0.75,0,0)"/>
<path style="fill:none;stroke-width:1;stroke-linecap:butt;stroke-linejoin:miter;stroke:rgb(0%,0%,0%);stroke-opacity:1;stroke-miterlimit:4;" d="M 256.302083 231.598958 L 258.401042 228.302083 " transform="matrix(0.75,0,0,0.75,0,0)"/>
<path style="fill:none;stroke-width:1;stroke-linecap:butt;stroke-linejoin:miter;stroke:rgb(0%,0%,0%);stroke-opacity:1;stroke-miterlimit:4;" d="M 253.302083 230 L 255.697917 226.197917 " transform="matrix(0.75,0,0,0.75,0,0)"/>
<path style="fill:none;stroke-width:1;stroke-linecap:butt;stroke-linejoin:miter;stroke:rgb(0%,0%,0%);stroke-opacity:1;stroke-miterlimit:4;" d="M 250.197917 228.5 L 253 224.098958 " transform="matrix(0.75,0,0,0.75,0,0)"/>
<path style="fill:none;stroke-width:1;stroke-linecap:butt;stroke-linejoin:miter;stroke:rgb(0%,0%,0%);stroke-opacity:1;stroke-miterlimit:4;" d="M 247.098958 226.901042 L 250.197917 222 " transform="matrix(0.75,0,0,0.75,0,0)"/>
<path style="fill:none;stroke-width:2;stroke-linecap:butt;stroke-linejoin:miter;stroke:rgb(0%,0%,0%);stroke-opacity:1;stroke-miterlimit:4;" d="M 186.901042 231.197917 L 188.901042 231.302083 L 189.197917 232 " transform="matrix(0.75,0,0,0.75,0,0)"/>
<path style="fill:none;stroke-width:2;stroke-linecap:butt;stroke-linejoin:miter;stroke:rgb(0%,0%,0%);stroke-opacity:1;stroke-miterlimit:4;" d="M 247.401042 268.901042 L 246.098958 267.401042 L 247.5 266.098958 " transform="matrix(0.75,0,0,0.75,0,0)"/>
<path style="fill:none;stroke-width:2;stroke-linecap:butt;stroke-linejoin:miter;stroke:rgb(0%,0%,0%);stroke-opacity:1;stroke-miterlimit:4;" d="M 271.302083 294.697917 L 272.598958 296.098958 L 273.197917 295.598958 " transform="matrix(0.75,0,0,0.75,0,0)"/>
<path style="fill:none;stroke-width:2;stroke-linecap:butt;stroke-linejoin:miter;stroke:rgb(0%,0%,0%);stroke-opacity:1;stroke-miterlimit:4;" d="M 364.598958 288.302083 L 365.901042 289.697917 L 365.697917 290.5 " transform="matrix(0.75,0,0,0.75,0,0)"/>
<path style="fill:none;stroke-width:2;stroke-linecap:butt;stroke-linejoin:miter;stroke:rgb(0%,0%,0%);stroke-opacity:1;stroke-miterlimit:4;" d="M 387.197917 215.5 L 389.098958 215.098958 L 389.598958 215.697917 " transform="matrix(0.75,0,0,0.75,0,0)"/>
<path style="fill:none;stroke-width:2;stroke-linecap:butt;stroke-linejoin:miter;stroke:rgb(0%,0%,0%);stroke-opacity:1;stroke-miterlimit:4;" d="M 435.197917 276.697917 L 435.598958 277.401042 L 437.5 277 " transform="matrix(0.75,0,0,0.75,0,0)"/>
<path style="fill:none;stroke-width:2;stroke-linecap:butt;stroke-linejoin:miter;stroke:rgb(0%,0%,0%);stroke-opacity:1;stroke-miterlimit:4;" d="M 471.802083 269.197917 L 473.697917 268.802083 L 473.901042 266.802083 " transform="matrix(0.75,0,0,0.75,0,0)"/>
<path style="fill:none;stroke-width:2;stroke-linecap:butt;stroke-linejoin:miter;stroke:rgb(0%,0%,0%);stroke-opacity:1;stroke-miterlimit:4;" d="M 477.098958 231.802083 L 477.302083 229.901042 L 475.5 229.098958 " transform="matrix(0.75,0,0,0.75,0,0)"/>
<path style="fill:none;stroke-width:2;stroke-linecap:butt;stroke-linejoin:miter;stroke:rgb(0%,0%,0%);stroke-opacity:1;stroke-miterlimit:4;" d="M 443.197917 215.197917 L 441.401042 214.401042 L 440.901042 215 " transform="matrix(0.75,0,0,0.75,0,0)"/>
<path style="fill:none;stroke-width:2;stroke-linecap:butt;stroke-linejoin:miter;stroke:rgb(0%,0%,0%);stroke-opacity:1;stroke-miterlimit:4;" d="M 325.802083 196.5 L 324.5 195 L 323.697917 195.197917 " transform="matrix(0.75,0,0,0.75,0,0)"/>
<path style="fill:none;stroke-width:2;stroke-linecap:butt;stroke-linejoin:miter;stroke:rgb(0%,0%,0%);stroke-opacity:1;stroke-miterlimit:4;" d="M 142.697917 297.302083 L 143.401042 299.098958 L 142.802083 299.598958 " transform="matrix(0.75,0,0,0.75,0,0)"/>
<path style=" stroke:none;fill-rule:nonzero;fill:rgb(100%,0%,0%);fill-opacity:1;" d="M 65.699219 145.273438 C 65.699219 143.925781 66.023438 142.875 66.675781 142.125 C 67.324219 141.375 68.25 141 69.449219 141 C 70.699219 141 71.648438 141.375 72.300781 142.125 C 72.949219 142.875 73.273438 143.925781 73.273438 145.273438 C 73.273438 146.625 72.949219 147.675781 72.300781 148.425781 C 71.648438 149.175781 70.699219 149.550781 69.449219 149.550781 C 68.25 149.550781 67.324219 149.175781 66.675781 148.425781 C 66.023438 147.675781 65.699219 146.625 65.699219 145.273438 M 69.449219 148.648438 C 70.300781 148.648438 70.949219 148.351562 71.398438 147.75 C 71.851562 147.199219 72.074219 146.375 72.074219 145.273438 C 72.074219 144.175781 71.851562 143.351562 71.398438 142.800781 C 70.949219 142.25 70.300781 141.976562 69.449219 141.976562 C 68.601562 141.976562 67.949219 142.25 67.5 142.800781 C 67.050781 143.351562 66.824219 144.175781 66.824219 145.273438 C 66.824219 146.375 67.050781 147.199219 67.5 147.75 C 67.949219 148.351562 68.601562 148.648438 69.449219 148.648438 "/>
<path style=" stroke:none;fill-rule:nonzero;fill:rgb(0%,0%,100%);fill-opacity:1;" d="M 96.898438 142.273438 L 99.601562 146.625 C 99.800781 146.925781 100.050781 147.324219 100.351562 147.824219 C 100.648438 148.375 100.800781 148.648438 100.800781 148.648438 L 100.800781 142.273438 L 101.925781 142.273438 L 101.925781 150.523438 L 100.726562 150.523438 L 97.875 145.726562 C 97.625 145.375 97.375 144.976562 97.125 144.523438 C 96.875 144.074219 96.726562 143.800781 96.675781 143.699219 L 96.675781 150.523438 L 95.625 150.523438 L 95.625 142.273438 L 96.898438 142.273438 "/>
<path style=" stroke:none;fill-rule:nonzero;fill:rgb(100%,0%,0%);fill-opacity:1;" d="M 153.523438 148.726562 C 153.523438 147.425781 153.851562 146.398438 154.5 145.648438 C 155.148438 144.898438 156.074219 144.523438 157.273438 144.523438 C 158.523438 144.523438 159.476562 144.898438 160.125 145.648438 C 160.773438 146.398438 161.101562 147.425781 161.101562 148.726562 C 161.101562 150.074219 160.773438 151.125 160.125 151.875 C 159.476562 152.625 158.523438 153 157.273438 153 C 156.074219 153 155.148438 152.625 154.5 151.875 C 153.851562 151.125 153.523438 150.074219 153.523438 148.726562 M 157.273438 152.101562 C 158.125 152.101562 158.773438 151.824219 159.226562 151.273438 C 159.726562 150.675781 159.976562 149.824219 159.976562 148.726562 C 159.976562 147.625 159.726562 146.800781 159.226562 146.25 C 158.773438 145.699219 158.125 145.425781 157.273438 145.425781 C 156.425781 145.425781 155.773438 145.699219 155.324219 146.25 C 154.875 146.800781 154.648438 147.625 154.648438 148.726562 C 154.648438 149.824219 154.875 150.675781 155.324219 151.273438 C 155.773438 151.824219 156.425781 152.101562 157.273438 152.101562 "/>
<path style=" stroke:none;fill-rule:nonzero;fill:rgb(0%,0%,100%);fill-opacity:1;" d="M 144 195.300781 L 145.125 195.300781 L 145.125 198.824219 L 149.398438 198.824219 L 149.398438 195.300781 L 150.523438 195.300781 L 150.523438 203.550781 L 149.398438 203.550781 L 149.398438 199.726562 L 145.125 199.726562 L 145.125 203.550781 L 144 203.550781 L 144 195.300781 "/>
<path style=" stroke:none;fill-rule:nonzero;fill:rgb(0%,0%,100%);fill-opacity:1;" d="M 153.449219 195.300781 L 156.148438 199.648438 C 156.351562 199.949219 156.601562 200.351562 156.898438 200.851562 C 157.199219 201.398438 157.351562 201.699219 157.351562 201.75 L 157.351562 195.300781 L 158.476562 195.300781 L 158.476562 203.550781 L 157.273438 203.550781 L 154.351562 198.75 C 154.148438 198.398438 153.925781 198 153.675781 197.550781 C 153.425781 197.148438 153.273438 196.875 153.226562 196.726562 L 153.226562 203.550781 L 152.175781 203.550781 L 152.175781 195.300781 L 153.449219 195.300781 "/>
<path style=" stroke:none;fill-rule:nonzero;fill:rgb(100%,0%,0%);fill-opacity:1;" d="M 199.5 251.398438 C 199.5 250.050781 199.824219 249.023438 200.476562 248.324219 C 201.125 247.574219 202.074219 247.199219 203.324219 247.199219 C 204.523438 247.199219 205.449219 247.574219 206.101562 248.324219 C 206.75 249.023438 207.074219 250.050781 207.074219 251.398438 C 207.074219 252.75 206.75 253.800781 206.101562 254.550781 C 205.449219 255.300781 204.523438 255.675781 203.324219 255.675781 C 202.074219 255.675781 201.125 255.300781 200.476562 254.550781 C 199.824219 253.800781 199.5 252.75 199.5 251.398438 M 203.324219 254.773438 C 204.125 254.773438 204.75 254.5 205.199219 253.949219 C 205.699219 253.351562 205.949219 252.5 205.949219 251.398438 C 205.949219 250.300781 205.699219 249.476562 205.199219 248.925781 C 204.75 248.375 204.125 248.101562 203.324219 248.101562 C 202.476562 248.101562 201.800781 248.375 201.300781 248.925781 C 200.851562 249.476562 200.625 250.300781 200.625 251.398438 C 200.625 252.5 200.851562 253.351562 201.300781 253.949219 C 201.800781 254.5 202.476562 254.773438 203.324219 254.773438 "/>
<path style=" stroke:none;fill-rule:nonzero;fill:rgb(0%,0%,100%);fill-opacity:1;" d="M 224.175781 198.074219 L 226.875 202.5 C 227.023438 202.75 227.25 203.148438 227.550781 203.699219 C 227.851562 204.199219 228 204.476562 228 204.523438 L 228 198.074219 L 229.125 198.074219 L 229.125 206.398438 L 228 206.398438 L 225.074219 201.601562 C 224.824219 201.199219 224.574219 200.773438 224.324219 200.324219 C 224.125 199.925781 223.976562 199.648438 223.875 199.5 L 223.875 206.398438 L 222.824219 206.398438 L 222.824219 198.074219 L 224.175781 198.074219 "/>
<path style=" stroke:none;fill-rule:nonzero;fill:rgb(100%,0%,0%);fill-opacity:1;" d="M 299.175781 210.824219 C 299.175781 209.523438 299.523438 208.5 300.226562 207.75 C 300.875 207 301.800781 206.625 303 206.625 C 304.25 206.625 305.199219 207 305.851562 207.75 C 306.5 208.5 306.824219 209.523438 306.824219 210.824219 C 306.824219 212.175781 306.5 213.25 305.851562 214.050781 C 305.148438 214.800781 304.199219 215.175781 303 215.175781 C 301.800781 215.175781 300.875 214.800781 300.226562 214.050781 C 299.523438 213.25 299.175781 212.175781 299.175781 210.824219 M 303 214.199219 C 303.851562 214.199219 304.5 213.925781 304.949219 213.375 C 305.398438 212.824219 305.625 211.976562 305.625 210.824219 C 305.625 209.773438 305.398438 208.976562 304.949219 208.425781 C 304.5 207.875 303.851562 207.601562 303 207.601562 C 302.148438 207.601562 301.5 207.875 301.050781 208.425781 C 300.601562 208.976562 300.375 209.773438 300.375 210.824219 C 300.375 211.976562 300.601562 212.824219 301.050781 213.375 C 301.5 213.925781 302.148438 214.199219 303 214.199219 "/>
<path style=" stroke:none;fill-rule:nonzero;fill:rgb(100%,0%,0%);fill-opacity:1;" d="M 261.898438 245.324219 C 261.898438 243.976562 262.226562 242.925781 262.875 242.175781 C 263.574219 241.425781 264.523438 241.050781 265.726562 241.050781 C 266.976562 241.050781 267.925781 241.425781 268.574219 242.175781 C 269.226562 242.925781 269.550781 243.976562 269.550781 245.324219 C 269.550781 246.625 269.226562 247.675781 268.574219 248.476562 C 267.875 249.226562 266.925781 249.601562 265.726562 249.601562 C 264.523438 249.601562 263.574219 249.226562 262.875 248.476562 C 262.226562 247.726562 261.898438 246.675781 261.898438 245.324219 M 265.726562 248.625 C 266.574219 248.625 267.226562 248.351562 267.675781 247.800781 C 268.125 247.25 268.351562 246.425781 268.351562 245.324219 C 268.351562 244.226562 268.125 243.398438 267.675781 242.851562 C 267.226562 242.300781 266.574219 242.023438 265.726562 242.023438 C 264.875 242.023438 264.226562 242.300781 263.773438 242.851562 C 263.324219 243.398438 263.101562 244.226562 263.101562 245.324219 C 263.101562 246.425781 263.324219 247.25 263.773438 247.800781 C 264.226562 248.351562 264.875 248.625 265.726562 248.625 "/>
<path style=" stroke:none;fill-rule:nonzero;fill:rgb(100%,0%,0%);fill-opacity:1;" d="M 270.75 242.398438 L 273.601562 242.398438 L 273.601562 243.074219 L 270.75 243.074219 L 270.75 242.398438 "/>
<path style=" stroke:none;fill-rule:nonzero;fill:rgb(0%,0%,100%);fill-opacity:1;" d="M 309.898438 178.726562 L 312.601562 183.074219 C 312.800781 183.375 313.023438 183.800781 313.273438 184.351562 C 313.574219 184.851562 313.726562 185.125 313.726562 185.175781 L 313.726562 178.726562 L 314.851562 178.726562 L 314.851562 186.976562 L 313.726562 186.976562 L 310.800781 182.175781 C 310.601562 181.824219 310.375 181.425781 310.125 180.976562 C 309.875 180.574219 309.726562 180.300781 309.675781 180.148438 L 309.675781 186.976562 L 308.550781 186.976562 L 308.550781 178.726562 L 309.898438 178.726562 "/>
<path style=" stroke:none;fill-rule:nonzero;fill:rgb(0%,0%,100%);fill-opacity:1;" d="M 316.425781 180.226562 L 317.851562 180.226562 L 317.851562 178.648438 L 318.523438 178.648438 L 318.523438 180.226562 L 320.023438 180.226562 L 320.023438 180.75 L 318.523438 180.75 L 318.523438 182.324219 L 317.851562 182.324219 L 317.851562 180.75 L 316.425781 180.75 L 316.425781 180.226562 "/>
<path style=" stroke:none;fill-rule:nonzero;fill:rgb(80%,80%,0%);fill-opacity:1;" d="M 212.476562 155.550781 C 212.523438 155.601562 212.675781 155.675781 212.925781 155.773438 C 213.175781 155.875 213.449219 155.976562 213.75 156.074219 C 214.050781 156.125 214.324219 156.148438 214.574219 156.148438 C 215.125 156.148438 215.550781 156.023438 215.851562 155.773438 C 216.148438 155.523438 216.300781 155.175781 216.300781 154.726562 C 216.300781 154.425781 216.226562 154.175781 216.074219 153.976562 C 215.925781 153.773438 215.726562 153.625 215.476562 153.523438 C 215.226562 153.425781 214.925781 153.324219 214.574219 153.226562 C 214.074219 153.074219 213.675781 152.925781 213.375 152.773438 C 213.074219 152.625 212.824219 152.398438 212.625 152.101562 C 212.425781 151.800781 212.324219 151.398438 212.324219 150.898438 C 212.324219 150.199219 212.550781 149.648438 213 149.25 C 213.5 148.800781 214.199219 148.574219 215.101562 148.574219 C 215.75 148.574219 216.449219 148.726562 217.199219 149.023438 L 216.898438 149.925781 C 216.25 149.675781 215.675781 149.550781 215.175781 149.550781 C 214.625 149.550781 214.199219 149.648438 213.898438 149.851562 C 213.601562 150.101562 213.449219 150.398438 213.449219 150.75 C 213.449219 151.050781 213.523438 151.300781 213.675781 151.5 C 213.824219 151.648438 214.023438 151.800781 214.273438 151.949219 C 214.476562 152.050781 214.773438 152.148438 215.175781 152.25 C 215.675781 152.398438 216.074219 152.550781 216.375 152.699219 C 216.675781 152.851562 216.925781 153.101562 217.125 153.449219 C 217.324219 153.75 217.425781 154.175781 217.425781 154.726562 C 217.425781 155.476562 217.175781 156.050781 216.675781 156.449219 C 216.175781 156.851562 215.5 157.050781 214.648438 157.050781 C 214.148438 157.050781 213.699219 157 213.300781 156.898438 C 212.949219 156.800781 212.550781 156.675781 212.101562 156.523438 L 212.476562 155.550781 "/>
<path style=" stroke:none;fill-rule:nonzero;fill:rgb(80%,80%,0%);fill-opacity:1;" d="M 82.726562 245.925781 C 82.773438 245.925781 82.925781 245.976562 83.175781 246.074219 C 83.425781 246.175781 83.699219 246.273438 84 246.375 C 84.300781 246.425781 84.574219 246.449219 84.824219 246.449219 C 85.375 246.449219 85.800781 246.324219 86.101562 246.074219 C 86.398438 245.824219 86.550781 245.476562 86.550781 245.023438 C 86.550781 244.726562 86.476562 244.476562 86.324219 244.273438 C 86.175781 244.074219 85.976562 243.925781 85.726562 243.824219 C 85.523438 243.726562 85.226562 243.625 84.824219 243.523438 C 84.324219 243.375 83.925781 243.226562 83.625 243.074219 C 83.324219 242.925781 83.074219 242.699219 82.875 242.398438 C 82.675781 242.148438 82.574219 241.773438 82.574219 241.273438 C 82.574219 240.574219 82.800781 240 83.25 239.550781 C 83.75 239.101562 84.476562 238.875 85.425781 238.875 C 86.023438 238.875 86.699219 239.050781 87.449219 239.398438 L 87.148438 240.300781 C 86.5 240 85.925781 239.851562 85.425781 239.851562 C 84.875 239.851562 84.449219 239.976562 84.148438 240.226562 C 83.851562 240.425781 83.726562 240.726562 83.773438 241.125 C 83.773438 241.425781 83.824219 241.648438 83.925781 241.800781 C 84.125 242 84.324219 242.148438 84.523438 242.25 C 84.773438 242.351562 85.074219 242.449219 85.425781 242.550781 C 85.925781 242.699219 86.324219 242.851562 86.625 243 C 86.925781 243.199219 87.175781 243.449219 87.375 243.75 C 87.625 244.050781 87.75 244.476562 87.75 245.023438 C 87.75 245.773438 87.476562 246.375 86.925781 246.824219 C 86.425781 247.226562 85.75 247.425781 84.898438 247.425781 C 84.398438 247.425781 83.976562 247.375 83.625 247.273438 C 83.226562 247.175781 82.824219 247.023438 82.425781 246.824219 L 82.726562 245.925781 "/>
<path style=" stroke:none;fill-rule:nonzero;fill:rgb(0%,0%,100%);fill-opacity:1;" d="M 17.023438 234.074219 L 18.148438 234.074219 L 18.148438 237.601562 L 22.425781 237.601562 L 22.425781 234.074219 L 23.550781 234.074219 L 23.550781 242.398438 L 22.425781 242.398438 L 22.425781 238.574219 L 18.148438 238.574219 L 18.148438 242.398438 L 17.023438 242.398438 L 17.023438 234.074219 "/>
<path style=" stroke:none;fill-rule:nonzero;fill:rgb(0%,0%,100%);fill-opacity:1;" d="M 25.199219 242.101562 C 25.300781 241.75 25.523438 241.476562 25.875 241.273438 C 26.175781 241.074219 26.550781 240.976562 27 240.976562 C 27.550781 240.976562 27.976562 241.125 28.273438 241.425781 C 28.574219 241.726562 28.726562 242.148438 28.726562 242.699219 C 28.726562 243.25 28.523438 243.773438 28.125 244.273438 C 27.726562 244.773438 27.125 245.324219 26.324219 245.925781 L 28.800781 245.925781 L 28.800781 246.523438 L 25.125 246.523438 L 25.125 246 C 25.824219 245.550781 26.375 245.125 26.773438 244.726562 C 27.175781 244.375 27.476562 244.050781 27.675781 243.75 C 27.875 243.398438 27.976562 243.074219 27.976562 242.773438 C 27.976562 242.425781 27.875 242.148438 27.675781 241.949219 C 27.523438 241.75 27.300781 241.648438 27 241.648438 C 26.699219 241.648438 26.449219 241.699219 26.25 241.800781 C 26.050781 241.898438 25.875 242.101562 25.726562 242.398438 L 25.199219 242.101562 "/>
<path style=" stroke:none;fill-rule:nonzero;fill:rgb(0%,0%,100%);fill-opacity:1;" d="M 31.199219 234.074219 L 33.976562 238.5 C 34.125 238.800781 34.351562 239.199219 34.648438 239.699219 C 34.949219 240.25 35.101562 240.523438 35.101562 240.523438 L 35.101562 234.074219 L 36.226562 234.074219 L 36.226562 242.398438 L 35.101562 242.398438 L 32.175781 237.601562 C 31.925781 237.199219 31.675781 236.800781 31.425781 236.398438 C 31.226562 235.949219 31.074219 235.675781 30.976562 235.574219 L 30.976562 242.398438 L 29.925781 242.398438 L 29.925781 234.074219 L 31.199219 234.074219 "/>
<path style=" stroke:none;fill-rule:nonzero;fill:rgb(0%,0%,100%);fill-opacity:1;" d="M 65.699219 194.851562 L 68.398438 199.273438 C 68.550781 199.523438 68.773438 199.925781 69.074219 200.476562 C 69.375 200.976562 69.523438 201.25 69.523438 201.300781 L 69.523438 194.851562 L 70.648438 194.851562 L 70.648438 203.175781 L 69.523438 203.175781 L 66.601562 198.375 C 66.351562 197.976562 66.125 197.574219 65.925781 197.175781 C 65.675781 196.726562 65.5 196.425781 65.398438 196.273438 L 65.398438 203.175781 L 64.351562 203.175781 L 64.351562 194.851562 L 65.699219 194.851562 "/>
<path style=" stroke:none;fill-rule:nonzero;fill:rgb(0%,0%,0%);fill-opacity:1;" d="M 178.050781 160.875 L 179.175781 160.875 L 179.175781 164.398438 L 183.449219 164.398438 L 183.449219 160.875 L 184.574219 160.875 L 184.574219 169.199219 L 183.449219 169.199219 L 183.449219 165.375 L 179.175781 165.375 L 179.175781 169.199219 L 178.050781 169.199219 L 178.050781 160.875 "/>
</g>
</svg>
