<?xml version="1.0" encoding="UTF-8"?>
<svg xmlns="http://www.w3.org/2000/svg" xmlns:xlink="http://www.w3.org/1999/xlink" width="375pt" height="375pt" viewBox="0 0 375 375" version="1.1">
<g id="surface311">
<rect x="0" y="0" width="375" height="375" style="fill:rgb(100%,100%,100%);fill-opacity:1;stroke:none;"/>
<path style="fill:none;stroke-width:1;stroke-linecap:butt;stroke-linejoin:miter;stroke:rgb(0%,0%,0%);stroke-opacity:1;stroke-miterlimit:4;" d="M 436.598958 173.197917 L 436.697917 171.598958 " transform="matrix(0.75,0,0,0.75,0,0)"/>
<path style="fill:none;stroke-width:1;stroke-linecap:butt;stroke-linejoin:miter;stroke:rgb(0%,0%,0%);stroke-opacity:1;stroke-miterlimit:4;" d="M 444.697917 174.401042 L 444.802083 171.197917 " transform="matrix(0.75,0,0,0.75,0,0)"/>
<path style="fill:none;stroke-width:1;stroke-linecap:butt;stroke-linejoin:miter;stroke:rgb(0%,0%,0%);stroke-opacity:1;stroke-miterlimit:4;" d="M 452.697917 175.697917 L 452.901042 170.802083 " transform="matrix(0.75,0,0,0.75,0,0)"/>
<path style="fill:none;stroke-width:1;stroke-linecap:butt;stroke-linejoin:miter;stroke:rgb(0%,0%,0%);stroke-opacity:1;stroke-miterlimit:4;" d="M 460.697917 176.901042 L 461 170.5 " transform="matrix(0.75,0,0,0.75,0,0)"/>
<path style="fill:none;stroke-width:1;stroke-linecap:butt;stroke-linejoin:miter;stroke:rgb(0%,0%,0%);stroke-opacity:1;stroke-miterlimit:4;" d="M 468.697917 178.197917 L 469.197917 170.098958 " transform="matrix(0.75,0,0,0.75,0,0)"/>
<path style="fill:none;stroke-width:1;stroke-linecap:butt;stroke-linejoin:miter;stroke:rgb(0%,0%,0%);stroke-opacity:1;stroke-miterlimit:4;" d="M 476.802083 179.401042 L 477.302083 169.697917 " transform="matrix(0.75,0,0,0.75,0,0)"/>
<path style="fill:none;stroke-width:2;stroke-linecap:butt;stroke-linejoin:miter;stroke:rgb(0%,0%,0%);stroke-opacity:1;stroke-miterlimit:4;" d="M 428.598958 172 L 419.802083 154.697917 " transform="matrix(0.75,0,0,0.75,0,0)"/>
<path style="fill:none;stroke-width:2;stroke-linecap:butt;stroke-linejoin:miter;stroke:rgb(100%,0%,0%);stroke-opacity:1;stroke-miterlimit:4;" d="M 419.802083 154.697917 L 411.098958 137.5 " transform="matrix(0.75,0,0,0.75,0,0)"/>
<path style="fill:none;stroke-width:2;stroke-linecap:butt;stroke-linejoin:miter;stroke:rgb(0%,0%,0%);stroke-opacity:1;stroke-miterlimit:4;" d="M 428.598958 172 L 402.197917 212.598958 " transform="matrix(0.75,0,0,0.75,0,0)"/>
<path style="fill-rule:evenodd;fill:rgb(0%,0%,0%);fill-opacity:1;stroke-width:1;stroke-linecap:butt;stroke-linejoin:miter;stroke:rgb(0%,0%,0%);stroke-opacity:1;stroke-miterlimit:4;" d="M 402.197917 212.598958 L 416.901042 259 L 407.401042 261.098958 Z M 402.197917 212.598958 " transform="matrix(0.75,0,0,0.75,0,0)"/>
<path style="fill:none;stroke-width:2;stroke-linecap:butt;stroke-linejoin:miter;stroke:rgb(0%,0%,0%);stroke-opacity:1;stroke-miterlimit:4;" d="M 414.802083 256 L 431.197917 266.598958 " transform="matrix(0.75,0,0,0.75,0,0)"/>
<path style="fill:none;stroke-width:2;stroke-linecap:butt;stroke-linejoin:miter;stroke:rgb(100%,0%,0%);stroke-opacity:1;stroke-miterlimit:4;" d="M 431.197917 266.598958 L 447.598958 277.302083 " transform="matrix(0.75,0,0,0.75,0,0)"/>
<path style="fill:none;stroke-width:2;stroke-linecap:butt;stroke-linejoin:miter;stroke:rgb(0%,0%,0%);stroke-opacity:1;stroke-miterlimit:4;" d="M 409.5 264.098958 L 425.901042 274.802083 " transform="matrix(0.75,0,0,0.75,0,0)"/>
<path style="fill:none;stroke-width:2;stroke-linecap:butt;stroke-linejoin:miter;stroke:rgb(100%,0%,0%);stroke-opacity:1;stroke-miterlimit:4;" d="M 425.901042 274.802083 L 442.302083 285.401042 " transform="matrix(0.75,0,0,0.75,0,0)"/>
<path style="fill:none;stroke-width:2;stroke-linecap:butt;stroke-linejoin:miter;stroke:rgb(0%,0%,0%);stroke-opacity:1;stroke-miterlimit:4;" d="M 412.197917 260 L 391.901042 264.302083 " transform="matrix(0.75,0,0,0.75,0,0)"/>
<path style="fill:none;stroke-width:2;stroke-linecap:butt;stroke-linejoin:miter;stroke:rgb(0%,0%,100%);stroke-opacity:1;stroke-miterlimit:4;" d="M 391.901042 264.302083 L 371.598958 268.598958 " transform="matrix(0.75,0,0,0.75,0,0)"/>
<path style="fill:none;stroke-width:2;stroke-linecap:butt;stroke-linejoin:miter;stroke:rgb(0%,0%,100%);stroke-opacity:1;stroke-miterlimit:4;" d="M 357.901042 274 L 340.302083 284.098958 " transform="matrix(0.75,0,0,0.75,0,0)"/>
<path style="fill:none;stroke-width:2;stroke-linecap:butt;stroke-linejoin:miter;stroke:rgb(0%,0%,0%);stroke-opacity:1;stroke-miterlimit:4;" d="M 340.302083 284.098958 L 322.697917 294.302083 " transform="matrix(0.75,0,0,0.75,0,0)"/>
<path style="fill:none;stroke-width:2;stroke-linecap:butt;stroke-linejoin:miter;stroke:rgb(0%,0%,0%);stroke-opacity:1;stroke-miterlimit:4;" d="M 322.697917 294.302083 L 317.598958 342.5 " transform="matrix(0.75,0,0,0.75,0,0)"/>
<path style="fill:none;stroke-width:2;stroke-linecap:butt;stroke-linejoin:miter;stroke:rgb(0%,0%,0%);stroke-opacity:1;stroke-miterlimit:4;" d="M 320.5 338.598958 L 336.098958 350 " transform="matrix(0.75,0,0,0.75,0,0)"/>
<path style="fill:none;stroke-width:2;stroke-linecap:butt;stroke-linejoin:miter;stroke:rgb(100%,0%,0%);stroke-opacity:1;stroke-miterlimit:4;" d="M 336.098958 350 L 351.802083 361.401042 " transform="matrix(0.75,0,0,0.75,0,0)"/>
<path style="fill:none;stroke-width:2;stroke-linecap:butt;stroke-linejoin:miter;stroke:rgb(0%,0%,0%);stroke-opacity:1;stroke-miterlimit:4;" d="M 314.802083 346.401042 L 330.401042 357.802083 " transform="matrix(0.75,0,0,0.75,0,0)"/>
<path style="fill:none;stroke-width:2;stroke-linecap:butt;stroke-linejoin:miter;stroke:rgb(100%,0%,0%);stroke-opacity:1;stroke-miterlimit:4;" d="M 330.401042 357.802083 L 346.098958 369.197917 " transform="matrix(0.75,0,0,0.75,0,0)"/>
<path style="fill:none;stroke-width:2;stroke-linecap:butt;stroke-linejoin:miter;stroke:rgb(0%,0%,0%);stroke-opacity:1;stroke-miterlimit:4;" d="M 317.598958 342.5 L 299.401042 350.598958 " transform="matrix(0.75,0,0,0.75,0,0)"/>
<path style="fill:none;stroke-width:2;stroke-linecap:butt;stroke-linejoin:miter;stroke:rgb(100%,0%,0%);stroke-opacity:1;stroke-miterlimit:4;" d="M 299.401042 350.598958 L 281.197917 358.697917 " transform="matrix(0.75,0,0,0.75,0,0)"/>
<path style="fill:none;stroke-width:2;stroke-linecap:butt;stroke-linejoin:miter;stroke:rgb(0%,0%,0%);stroke-opacity:1;stroke-miterlimit:4;" d="M 322.697917 294.302083 L 286.697917 261.802083 " transform="matrix(0.75,0,0,0.75,0,0)"/>
<path style="fill:none;stroke-width:2;stroke-linecap:butt;stroke-linejoin:miter;stroke:rgb(0%,0%,0%);stroke-opacity:1;stroke-miterlimit:4;" d="M 323.802083 282.197917 L 298.598958 259.5 " transform="matrix(0.75,0,0,0.75,0,0)"/>
<path style="fill:none;stroke-width:2;stroke-linecap:butt;stroke-linejoin:miter;stroke:rgb(0%,0%,0%);stroke-opacity:1;stroke-miterlimit:4;" d="M 286.697917 261.802083 L 266 266.197917 " transform="matrix(0.75,0,0,0.75,0,0)"/>
<path style="fill:none;stroke-width:2;stroke-linecap:butt;stroke-linejoin:miter;stroke:rgb(80%,80%,0%);stroke-opacity:1;stroke-miterlimit:4;" d="M 266 266.197917 L 245.302083 270.598958 " transform="matrix(0.75,0,0,0.75,0,0)"/>
<path style="fill:none;stroke-width:2;stroke-linecap:butt;stroke-linejoin:miter;stroke:rgb(80%,80%,0%);stroke-opacity:1;stroke-miterlimit:4;" d="M 233.302083 265.197917 L 220.098958 250.5 " transform="matrix(0.75,0,0,0.75,0,0)"/>
<path style="fill:none;stroke-width:2;stroke-linecap:butt;stroke-linejoin:miter;stroke:rgb(0%,0%,0%);stroke-opacity:1;stroke-miterlimit:4;" d="M 220.098958 250.5 L 206.901042 235.802083 " transform="matrix(0.75,0,0,0.75,0,0)"/>
<path style="fill:none;stroke-width:2;stroke-linecap:butt;stroke-linejoin:miter;stroke:rgb(0%,0%,0%);stroke-opacity:1;stroke-miterlimit:4;" d="M 206.901042 235.802083 L 159.5 245.802083 " transform="matrix(0.75,0,0,0.75,0,0)"/>
<path style="fill:none;stroke-width:2;stroke-linecap:butt;stroke-linejoin:miter;stroke:rgb(0%,0%,0%);stroke-opacity:1;stroke-miterlimit:4;" d="M 159.5 245.802083 L 146.697917 231.598958 " transform="matrix(0.75,0,0,0.75,0,0)"/>
<path style="fill:none;stroke-width:2;stroke-linecap:butt;stroke-linejoin:miter;stroke:rgb(0%,0%,100%);stroke-opacity:1;stroke-miterlimit:4;" d="M 146.697917 231.598958 L 133.901042 217.302083 " transform="matrix(0.75,0,0,0.75,0,0)"/>
<path style="fill:none;stroke-width:2;stroke-linecap:butt;stroke-linejoin:miter;stroke:rgb(0%,0%,100%);stroke-opacity:1;stroke-miterlimit:4;" d="M 120.197917 211.197917 L 99.901042 215.5 " transform="matrix(0.75,0,0,0.75,0,0)"/>
<path style="fill:none;stroke-width:2;stroke-linecap:butt;stroke-linejoin:miter;stroke:rgb(0%,0%,0%);stroke-opacity:1;stroke-miterlimit:4;" d="M 99.901042 215.5 L 79.598958 219.802083 " transform="matrix(0.75,0,0,0.75,0,0)"/>
<path style="fill:none;stroke-width:2;stroke-linecap:butt;stroke-linejoin:miter;stroke:rgb(0%,0%,100%);stroke-opacity:1;stroke-miterlimit:4;" d="M 116.197917 222 L 101.901042 225 " transform="matrix(0.75,0,0,0.75,0,0)"/>
<path style="fill:none;stroke-width:2;stroke-linecap:butt;stroke-linejoin:miter;stroke:rgb(0%,0%,0%);stroke-opacity:1;stroke-miterlimit:4;" d="M 101.901042 225 L 87.697917 228 " transform="matrix(0.75,0,0,0.75,0,0)"/>
<path style="fill:none;stroke-width:2;stroke-linecap:butt;stroke-linejoin:miter;stroke:rgb(0%,0%,0%);stroke-opacity:1;stroke-miterlimit:4;" d="M 79.598958 219.802083 L 66.802083 205.5 " transform="matrix(0.75,0,0,0.75,0,0)"/>
<path style="fill:none;stroke-width:2;stroke-linecap:butt;stroke-linejoin:miter;stroke:rgb(0%,0%,100%);stroke-opacity:1;stroke-miterlimit:4;" d="M 66.802083 205.5 L 54 191.302083 " transform="matrix(0.75,0,0,0.75,0,0)"/>
<path style="fill:none;stroke-width:2;stroke-linecap:butt;stroke-linejoin:miter;stroke:rgb(0%,0%,0%);stroke-opacity:1;stroke-miterlimit:4;" d="M 286.697917 261.802083 L 306.5 217.5 " transform="matrix(0.75,0,0,0.75,0,0)"/>
<path style="fill:none;stroke-width:2;stroke-linecap:butt;stroke-linejoin:miter;stroke:rgb(0%,0%,0%);stroke-opacity:1;stroke-miterlimit:4;" d="M 306.5 217.5 L 354.697917 222.598958 " transform="matrix(0.75,0,0,0.75,0,0)"/>
<path style="fill:none;stroke-width:2;stroke-linecap:butt;stroke-linejoin:miter;stroke:rgb(0%,0%,0%);stroke-opacity:1;stroke-miterlimit:4;" d="M 354.697917 222.598958 L 402.197917 212.598958 " transform="matrix(0.75,0,0,0.75,0,0)"/>
<path style="fill:none;stroke-width:2;stroke-linecap:butt;stroke-linejoin:miter;stroke:rgb(0%,0%,0%);stroke-opacity:1;stroke-miterlimit:4;" d="M 354.697917 222.598958 L 358.802083 242.098958 " transform="matrix(0.75,0,0,0.75,0,0)"/>
<path style="fill:none;stroke-width:2;stroke-linecap:butt;stroke-linejoin:miter;stroke:rgb(0%,0%,100%);stroke-opacity:1;stroke-miterlimit:4;" d="M 358.802083 242.098958 L 363 261.598958 " transform="matrix(0.75,0,0,0.75,0,0)"/>
<path style="fill-rule:evenodd;fill:rgb(0%,0%,0%);fill-opacity:1;stroke-width:1;stroke-linecap:butt;stroke-linejoin:miter;stroke:rgb(0%,0%,0%);stroke-opacity:1;stroke-miterlimit:4;" d="M 354.697917 222.598958 L 347.901042 184.5 L 357.598958 184 Z M 354.697917 222.598958 " transform="matrix(0.75,0,0,0.75,0,0)"/>
<path style=" stroke:none;fill-rule:nonzero;fill:rgb(100%,0%,0%);fill-opacity:1;" d="M 290.925781 91.5 L 292.351562 91.5 L 292.351562 95.851562 L 297.601562 95.851562 L 297.601562 91.5 L 299.023438 91.5 L 299.023438 101.773438 L 297.601562 101.773438 L 297.601562 97.050781 L 292.351562 97.050781 L 292.351562 101.773438 L 290.925781 101.773438 L 290.925781 91.5 "/>
<path style=" stroke:none;fill-rule:nonzero;fill:rgb(100%,0%,0%);fill-opacity:1;" d="M 300.226562 96.601562 C 300.226562 94.949219 300.648438 93.648438 301.5 92.699219 C 302.300781 91.800781 303.449219 91.351562 304.949219 91.351562 C 306.5 91.351562 307.675781 91.800781 308.476562 92.699219 C 309.273438 93.648438 309.675781 94.949219 309.675781 96.601562 C 309.675781 98.25 309.273438 99.550781 308.476562 100.5 C 307.625 101.449219 306.449219 101.925781 304.949219 101.925781 C 303.449219 101.925781 302.300781 101.449219 301.5 100.5 C 300.648438 99.550781 300.226562 98.25 300.226562 96.601562 M 304.949219 100.800781 C 306 100.800781 306.800781 100.449219 307.351562 99.75 C 307.949219 99 308.25 97.949219 308.25 96.601562 C 308.25 95.25 307.949219 94.226562 307.351562 93.523438 C 306.800781 92.875 306 92.550781 304.949219 92.550781 C 303.898438 92.550781 303.101562 92.875 302.550781 93.523438 C 302 94.226562 301.726562 95.25 301.726562 96.601562 C 301.726562 98 302 99.050781 302.550781 99.75 C 303.101562 100.449219 303.898438 100.800781 304.949219 100.800781 "/>
<path style=" stroke:none;fill-rule:nonzero;fill:rgb(100%,0%,0%);fill-opacity:1;" d="M 334.875 214.875 C 334.875 213.226562 335.273438 211.949219 336.074219 211.050781 C 336.925781 210.148438 338.101562 209.699219 339.601562 209.699219 C 341.148438 209.699219 342.324219 210.148438 343.125 211.050781 C 343.925781 211.949219 344.324219 213.226562 344.324219 214.875 C 344.324219 216.574219 343.925781 217.898438 343.125 218.851562 C 342.273438 219.800781 341.101562 220.273438 339.601562 220.273438 C 338.101562 220.273438 336.925781 219.800781 336.074219 218.851562 C 335.273438 217.898438 334.875 216.574219 334.875 214.875 M 339.601562 219.074219 C 340.648438 219.074219 341.449219 218.726562 342 218.023438 C 342.601562 217.324219 342.898438 216.273438 342.898438 214.875 C 342.898438 213.523438 342.601562 212.523438 342 211.875 C 341.449219 211.175781 340.648438 210.824219 339.601562 210.824219 C 338.550781 210.824219 337.75 211.175781 337.199219 211.875 C 336.648438 212.523438 336.375 213.523438 336.375 214.875 C 336.375 216.273438 336.648438 217.324219 337.199219 218.023438 C 337.75 218.726562 338.550781 219.074219 339.601562 219.074219 "/>
<path style=" stroke:none;fill-rule:nonzero;fill:rgb(0%,0%,100%);fill-opacity:1;" d="M 271.273438 197.398438 L 274.648438 202.875 C 274.898438 203.226562 275.199219 203.726562 275.550781 204.375 C 275.898438 205.023438 276.074219 205.375 276.074219 205.425781 L 276.074219 197.398438 L 277.5 197.398438 L 277.5 207.675781 L 276.074219 207.675781 L 272.398438 201.75 C 272.148438 201.300781 271.875 200.800781 271.574219 200.25 C 271.273438 199.699219 271.074219 199.351562 270.976562 199.199219 L 270.976562 207.675781 L 269.625 207.675781 L 269.625 197.398438 L 271.273438 197.398438 "/>
<path style=" stroke:none;fill-rule:nonzero;fill:rgb(100%,0%,0%);fill-opacity:1;" d="M 262.875 278.324219 C 262.875 276.675781 263.273438 275.375 264.074219 274.425781 C 264.925781 273.523438 266.101562 273.074219 267.601562 273.074219 C 269.148438 273.074219 270.324219 273.523438 271.125 274.425781 C 271.925781 275.375 272.324219 276.675781 272.324219 278.324219 C 272.324219 279.976562 271.925781 281.273438 271.125 282.226562 C 270.273438 283.175781 269.101562 283.648438 267.601562 283.648438 C 266.101562 283.648438 264.925781 283.175781 264.074219 282.226562 C 263.273438 281.273438 262.875 279.976562 262.875 278.324219 M 267.601562 282.449219 C 268.648438 282.449219 269.449219 282.101562 270 281.398438 C 270.601562 280.699219 270.898438 279.675781 270.898438 278.324219 C 270.898438 276.976562 270.601562 275.949219 270 275.25 C 269.449219 274.550781 268.648438 274.199219 267.601562 274.199219 C 266.550781 274.199219 265.75 274.550781 265.199219 275.25 C 264.648438 275.949219 264.375 276.976562 264.375 278.324219 C 264.375 279.675781 264.648438 280.699219 265.199219 281.398438 C 265.75 282.101562 266.550781 282.449219 267.601562 282.449219 "/>
<path style=" stroke:none;fill-rule:nonzero;fill:rgb(100%,0%,0%);fill-opacity:1;" d="M 190.949219 266.550781 L 192.375 266.550781 L 192.375 270.898438 L 197.625 270.898438 L 197.625 266.550781 L 199.050781 266.550781 L 199.050781 276.824219 L 197.625 276.824219 L 197.625 272.101562 L 192.375 272.101562 L 192.375 276.824219 L 190.949219 276.824219 L 190.949219 266.550781 "/>
<path style=" stroke:none;fill-rule:nonzero;fill:rgb(100%,0%,0%);fill-opacity:1;" d="M 200.25 271.648438 C 200.25 270 200.648438 268.726562 201.449219 267.824219 C 202.300781 266.875 203.476562 266.398438 204.976562 266.398438 C 206.523438 266.398438 207.699219 266.875 208.5 267.824219 C 209.300781 268.726562 209.699219 270 209.699219 271.648438 C 209.699219 273.351562 209.300781 274.675781 208.5 275.625 C 207.648438 276.523438 206.476562 276.976562 204.976562 276.976562 C 203.476562 276.976562 202.300781 276.523438 201.449219 275.625 C 200.648438 274.675781 200.25 273.351562 200.25 271.648438 M 204.976562 275.851562 C 206.023438 275.851562 206.824219 275.5 207.375 274.800781 C 207.976562 274.101562 208.273438 273.050781 208.273438 271.648438 C 208.273438 270.300781 207.976562 269.300781 207.375 268.648438 C 206.824219 267.949219 206.023438 267.601562 204.976562 267.601562 C 203.925781 267.601562 203.125 267.925781 202.574219 268.574219 C 201.976562 269.273438 201.675781 270.300781 201.675781 271.648438 C 201.675781 273.050781 201.976562 274.101562 202.574219 274.800781 C 203.125 275.5 203.925781 275.851562 204.976562 275.851562 "/>
<path style=" stroke:none;fill-rule:nonzero;fill:rgb(80%,80%,0%);fill-opacity:1;" d="M 176.550781 207.449219 C 176.648438 207.449219 176.851562 207.523438 177.148438 207.675781 C 177.5 207.824219 177.851562 207.925781 178.199219 207.976562 C 178.550781 208.074219 178.898438 208.125 179.25 208.125 C 179.898438 208.125 180.398438 207.976562 180.75 207.675781 C 181.148438 207.324219 181.351562 206.875 181.351562 206.324219 C 181.351562 205.976562 181.25 205.675781 181.050781 205.425781 C 180.851562 205.175781 180.601562 205 180.300781 204.898438 C 180.050781 204.75 179.675781 204.601562 179.175781 204.449219 C 178.574219 204.300781 178.074219 204.125 177.675781 203.925781 C 177.324219 203.773438 177.023438 203.5 176.773438 203.101562 C 176.523438 202.75 176.398438 202.273438 176.398438 201.675781 C 176.398438 200.773438 176.699219 200.074219 177.300781 199.574219 C 177.851562 199.023438 178.726562 198.75 179.925781 198.75 C 180.726562 198.75 181.574219 198.949219 182.476562 199.351562 L 182.101562 200.398438 C 181.300781 200.101562 180.574219 199.949219 179.925781 199.949219 C 179.273438 199.949219 178.75 200.074219 178.351562 200.324219 C 178 200.625 177.824219 201 177.824219 201.449219 C 177.824219 201.851562 177.925781 202.148438 178.125 202.351562 C 178.324219 202.550781 178.550781 202.726562 178.800781 202.875 C 179.101562 203.023438 179.476562 203.148438 179.925781 203.25 C 180.574219 203.449219 181.074219 203.648438 181.425781 203.851562 C 181.773438 204.050781 182.101562 204.351562 182.398438 204.75 C 182.648438 205.148438 182.773438 205.675781 182.773438 206.324219 C 182.773438 207.273438 182.449219 208 181.800781 208.5 C 181.199219 209.050781 180.351562 209.324219 179.25 209.324219 C 178.648438 209.324219 178.125 209.25 177.675781 209.101562 C 177.226562 208.949219 176.726562 208.773438 176.175781 208.574219 L 176.550781 207.449219 "/>
<path style=" stroke:none;fill-rule:nonzero;fill:rgb(0%,0%,100%);fill-opacity:1;" d="M 93 152.175781 L 96.375 157.648438 C 96.625 158 96.925781 158.5 97.273438 159.148438 C 97.625 159.800781 97.800781 160.125 97.800781 160.125 L 97.800781 152.175781 L 99.226562 152.175781 L 99.226562 162.449219 L 97.800781 162.449219 L 94.125 156.523438 C 93.875 156.023438 93.601562 155.523438 93.300781 155.023438 C 93 154.476562 92.800781 154.125 92.699219 153.976562 L 92.699219 162.449219 L 91.351562 162.449219 L 91.351562 152.175781 L 93 152.175781 "/>
<path style=" stroke:none;fill-rule:nonzero;fill:rgb(0%,0%,100%);fill-opacity:1;" d="M 17.023438 132.675781 L 18.449219 132.675781 L 18.449219 137.023438 L 23.699219 137.023438 L 23.699219 132.675781 L 25.125 132.675781 L 25.125 142.949219 L 23.699219 142.949219 L 23.699219 138.148438 L 18.449219 138.148438 L 18.449219 142.949219 L 17.023438 142.949219 L 17.023438 132.675781 "/>
<path style=" stroke:none;fill-rule:nonzero;fill:rgb(0%,0%,100%);fill-opacity:1;" d="M 26.324219 142.574219 C 26.523438 142.125 26.824219 141.800781 27.226562 141.601562 C 27.625 141.351562 28.101562 141.226562 28.648438 141.226562 C 29.300781 141.226562 29.824219 141.398438 30.226562 141.75 C 30.625 142.148438 30.824219 142.675781 30.824219 143.324219 C 30.824219 143.976562 30.574219 144.625 30.074219 145.273438 C 29.574219 145.875 28.800781 146.550781 27.75 147.300781 L 30.898438 147.300781 L 30.898438 148.050781 L 26.324219 148.050781 L 26.324219 147.449219 C 27.175781 146.851562 27.851562 146.324219 28.351562 145.875 C 28.851562 145.425781 29.226562 145 29.476562 144.601562 C 29.726562 144.199219 29.851562 143.800781 29.851562 143.398438 C 29.851562 142.949219 29.75 142.601562 29.550781 142.351562 C 29.300781 142.101562 29 141.976562 28.648438 141.976562 C 28.25 141.976562 27.949219 142.050781 27.75 142.199219 C 27.5 142.351562 27.273438 142.601562 27.074219 142.949219 L 26.324219 142.574219 "/>
<path style=" stroke:none;fill-rule:nonzero;fill:rgb(0%,0%,100%);fill-opacity:1;" d="M 33.148438 132.675781 L 36.523438 138.074219 C 36.726562 138.425781 37 138.925781 37.351562 139.574219 C 37.699219 140.226562 37.898438 140.574219 37.949219 140.625 L 37.949219 132.675781 L 39.300781 132.675781 L 39.300781 142.949219 L 37.875 142.949219 L 34.273438 136.949219 C 33.976562 136.5 33.675781 136 33.375 135.449219 C 33.125 134.949219 32.949219 134.601562 32.851562 134.398438 L 32.851562 142.949219 L 31.5 142.949219 L 31.5 132.675781 L 33.148438 132.675781 "/>
<path style=" stroke:none;fill-rule:nonzero;fill:rgb(0%,0%,0%);fill-opacity:1;" d="M 260.175781 125.550781 L 261.523438 125.550781 L 261.523438 129.898438 L 266.773438 129.898438 L 266.773438 125.550781 L 268.199219 125.550781 L 268.199219 135.824219 L 266.773438 135.824219 L 266.773438 131.023438 L 261.523438 131.023438 L 261.523438 135.824219 L 260.175781 135.824219 L 260.175781 125.550781 "/>
</g>
</svg>
