<?xml version="1.0" encoding="UTF-8"?>
<svg xmlns="http://www.w3.org/2000/svg" xmlns:xlink="http://www.w3.org/1999/xlink" width="375pt" height="375pt" viewBox="0 0 375 375" version="1.1">
<g id="surface291">
<rect x="0" y="0" width="375" height="375" style="fill:rgb(100%,100%,100%);fill-opacity:1;stroke:none;"/>
<path style="fill:none;stroke-width:2;stroke-linecap:butt;stroke-linejoin:miter;stroke:rgb(0%,0%,0%);stroke-opacity:1;stroke-miterlimit:4;" d="M 464.302083 139.901042 L 473.197917 204.901042 " transform="matrix(0.75,0,0,0.75,0,0)"/>
<path style="fill-rule:evenodd;fill:rgb(0%,0%,0%);fill-opacity:1;stroke-width:1;stroke-linecap:butt;stroke-linejoin:miter;stroke:rgb(0%,0%,0%);stroke-opacity:1;stroke-miterlimit:4;" d="M 421.401042 245.197917 L 469.197917 199.697917 L 477.302083 210.098958 Z M 421.401042 245.197917 " transform="matrix(0.75,0,0,0.75,0,0)"/>
<path style="fill:none;stroke-width:2;stroke-linecap:butt;stroke-linejoin:miter;stroke:rgb(0%,0%,0%);stroke-opacity:1;stroke-miterlimit:4;" d="M 421.401042 245.197917 L 430.302083 310.197917 " transform="matrix(0.75,0,0,0.75,0,0)"/>
<path style="fill:none;stroke-width:2;stroke-linecap:butt;stroke-linejoin:miter;stroke:rgb(0%,0%,0%);stroke-opacity:1;stroke-miterlimit:4;" d="M 430.302083 310.197917 L 409.802083 326.197917 " transform="matrix(0.75,0,0,0.75,0,0)"/>
<path style="fill:none;stroke-width:2;stroke-linecap:butt;stroke-linejoin:miter;stroke:rgb(100%,0%,0%);stroke-opacity:1;stroke-miterlimit:4;" d="M 409.802083 326.197917 L 389.197917 342.098958 " transform="matrix(0.75,0,0,0.75,0,0)"/>
<path style="fill:none;stroke-width:2;stroke-linecap:butt;stroke-linejoin:miter;stroke:rgb(0%,0%,0%);stroke-opacity:1;stroke-miterlimit:4;" d="M 421.401042 245.197917 L 395.598958 234.598958 " transform="matrix(0.75,0,0,0.75,0,0)"/>
<path style="fill:none;stroke-width:2;stroke-linecap:butt;stroke-linejoin:miter;stroke:rgb(0%,0%,100%);stroke-opacity:1;stroke-miterlimit:4;" d="M 395.598958 234.598958 L 369.802083 224.098958 " transform="matrix(0.75,0,0,0.75,0,0)"/>
<path style="fill:none;stroke-width:2;stroke-linecap:butt;stroke-linejoin:miter;stroke:rgb(0%,0%,100%);stroke-opacity:1;stroke-miterlimit:4;" d="M 351.401042 227.5 L 330.098958 244.098958 " transform="matrix(0.75,0,0,0.75,0,0)"/>
<path style="fill:none;stroke-width:2;stroke-linecap:butt;stroke-linejoin:miter;stroke:rgb(0%,0%,0%);stroke-opacity:1;stroke-miterlimit:4;" d="M 330.098958 244.098958 L 308.802083 260.598958 " transform="matrix(0.75,0,0,0.75,0,0)"/>
<path style="fill:none;stroke-width:2;stroke-linecap:butt;stroke-linejoin:miter;stroke:rgb(0%,0%,0%);stroke-opacity:1;stroke-miterlimit:4;" d="M 308.802083 260.598958 L 248 235.901042 " transform="matrix(0.75,0,0,0.75,0,0)"/>
<path style="fill:none;stroke-width:2;stroke-linecap:butt;stroke-linejoin:miter;stroke:rgb(0%,0%,0%);stroke-opacity:1;stroke-miterlimit:4;" d="M 248 235.901042 L 226.697917 252.401042 " transform="matrix(0.75,0,0,0.75,0,0)"/>
<path style="fill:none;stroke-width:2;stroke-linecap:butt;stroke-linejoin:miter;stroke:rgb(0%,0%,100%);stroke-opacity:1;stroke-miterlimit:4;" d="M 226.697917 252.401042 L 205.401042 269 " transform="matrix(0.75,0,0,0.75,0,0)"/>
<path style="fill:none;stroke-width:2;stroke-linecap:butt;stroke-linejoin:miter;stroke:rgb(0%,0%,100%);stroke-opacity:1;stroke-miterlimit:4;" d="M 186.901042 272.401042 L 161.098958 261.901042 " transform="matrix(0.75,0,0,0.75,0,0)"/>
<path style="fill:none;stroke-width:2;stroke-linecap:butt;stroke-linejoin:miter;stroke:rgb(0%,0%,0%);stroke-opacity:1;stroke-miterlimit:4;" d="M 161.098958 261.901042 L 135.401042 251.401042 " transform="matrix(0.75,0,0,0.75,0,0)"/>
<path style="fill-rule:evenodd;fill:rgb(0%,0%,0%);fill-opacity:1;stroke-width:1;stroke-linecap:butt;stroke-linejoin:miter;stroke:rgb(0%,0%,0%);stroke-opacity:1;stroke-miterlimit:4;" d="M 135.401042 251.401042 L 87.5 296.802083 L 79.5 286.401042 Z M 135.401042 251.401042 " transform="matrix(0.75,0,0,0.75,0,0)"/>
<path style="fill:none;stroke-width:2;stroke-linecap:butt;stroke-linejoin:miter;stroke:rgb(0%,0%,0%);stroke-opacity:1;stroke-miterlimit:4;" d="M 83.5 291.598958 L 22.697917 266.901042 " transform="matrix(0.75,0,0,0.75,0,0)"/>
<path style="fill:none;stroke-width:2;stroke-linecap:butt;stroke-linejoin:miter;stroke:rgb(0%,0%,0%);stroke-opacity:1;stroke-miterlimit:4;" d="M 135.401042 251.401042 L 126.401042 186.302083 " transform="matrix(0.75,0,0,0.75,0,0)"/>
<path style="fill:none;stroke-width:2;stroke-linecap:butt;stroke-linejoin:miter;stroke:rgb(0%,0%,0%);stroke-opacity:1;stroke-miterlimit:4;" d="M 126.401042 186.302083 L 101.401042 176.098958 " transform="matrix(0.75,0,0,0.75,0,0)"/>
<path style="fill:none;stroke-width:2;stroke-linecap:butt;stroke-linejoin:miter;stroke:rgb(100%,0%,0%);stroke-opacity:1;stroke-miterlimit:4;" d="M 101.401042 176.098958 L 76.302083 165.901042 " transform="matrix(0.75,0,0,0.75,0,0)"/>
<path style=" stroke:none;fill-rule:nonzero;fill:rgb(100%,0%,0%);fill-opacity:1;" d="M 264.898438 255.976562 L 266.773438 255.976562 L 266.773438 261.898438 L 273.898438 261.898438 L 273.898438 255.976562 L 275.773438 255.976562 L 275.773438 269.851562 L 273.898438 269.851562 L 273.898438 263.476562 L 266.773438 263.476562 L 266.773438 269.851562 L 264.898438 269.851562 L 264.898438 255.976562 "/>
<path style=" stroke:none;fill-rule:nonzero;fill:rgb(100%,0%,0%);fill-opacity:1;" d="M 277.5 262.875 C 277.5 260.625 278.050781 258.875 279.148438 257.625 C 280.25 256.375 281.824219 255.75 283.875 255.75 C 285.925781 255.75 287.5 256.375 288.601562 257.625 C 289.699219 258.875 290.25 260.625 290.25 262.875 C 290.25 265.125 289.699219 266.898438 288.601562 268.199219 C 287.5 269.449219 285.925781 270.074219 283.875 270.074219 C 281.824219 270.074219 280.25 269.449219 279.148438 268.199219 C 278.050781 266.898438 277.5 265.125 277.5 262.875 M 283.875 268.5 C 285.273438 268.5 286.375 268.023438 287.175781 267.074219 C 287.925781 266.125 288.300781 264.726562 288.300781 262.875 C 288.300781 261.023438 287.925781 259.648438 287.175781 258.75 C 286.375 257.800781 285.273438 257.324219 283.875 257.324219 C 282.476562 257.324219 281.375 257.800781 280.574219 258.75 C 279.824219 259.648438 279.449219 261.023438 279.449219 262.875 C 279.449219 264.726562 279.824219 266.125 280.574219 267.074219 C 281.375 268.023438 282.476562 268.5 283.875 268.5 "/>
<path style=" stroke:none;fill-rule:nonzero;fill:rgb(0%,0%,100%);fill-opacity:1;" d="M 267.375 158.324219 L 271.949219 165.675781 C 272.25 166.175781 272.648438 166.875 273.148438 167.773438 C 273.601562 168.625 273.851562 169.074219 273.898438 169.125 L 273.898438 158.324219 L 275.773438 158.324219 L 275.773438 172.273438 L 273.824219 172.273438 L 268.949219 164.175781 C 268.550781 163.574219 268.148438 162.898438 267.75 162.148438 C 267.351562 161.449219 267.101562 160.976562 267 160.726562 L 267 172.273438 L 265.199219 172.273438 L 265.199219 158.324219 L 267.375 158.324219 "/>
<path style=" stroke:none;fill-rule:nonzero;fill:rgb(0%,0%,100%);fill-opacity:1;" d="M 264.976562 142.949219 L 266.925781 142.949219 L 266.925781 148.875 L 274.050781 148.875 L 274.050781 142.949219 L 275.925781 142.949219 L 275.925781 156.898438 L 274.050781 156.898438 L 274.050781 150.449219 L 266.925781 150.449219 L 266.925781 156.898438 L 264.976562 156.898438 L 264.976562 142.949219 "/>
<path style=" stroke:none;fill-rule:nonzero;fill:rgb(0%,0%,100%);fill-opacity:1;" d="M 144 200.101562 L 148.574219 207.523438 C 148.875 208.023438 149.273438 208.699219 149.773438 209.550781 C 150.273438 210.449219 150.523438 210.925781 150.523438 210.976562 L 150.523438 200.101562 L 152.398438 200.101562 L 152.398438 214.050781 L 150.449219 214.050781 L 145.574219 206.023438 C 145.175781 205.375 144.773438 204.699219 144.375 204 C 143.976562 203.25 143.726562 202.773438 143.625 202.574219 L 143.625 214.050781 L 141.824219 214.050781 L 141.824219 200.101562 L 144 200.101562 "/>
<path style=" stroke:none;fill-rule:nonzero;fill:rgb(0%,0%,100%);fill-opacity:1;" d="M 141.675781 215.476562 L 143.550781 215.476562 L 143.550781 221.398438 L 150.675781 221.398438 L 150.675781 215.476562 L 152.550781 215.476562 L 152.550781 229.425781 L 150.675781 229.425781 L 150.675781 222.976562 L 143.550781 222.976562 L 143.550781 229.425781 L 141.675781 229.425781 L 141.675781 215.476562 "/>
<path style=" stroke:none;fill-rule:nonzero;fill:rgb(100%,0%,0%);fill-opacity:1;" d="M 30.226562 114.300781 L 32.101562 114.300781 L 32.101562 120.226562 L 39.226562 120.226562 L 39.226562 114.300781 L 41.175781 114.300781 L 41.175781 128.25 L 39.226562 128.25 L 39.226562 121.800781 L 32.101562 121.800781 L 32.101562 128.25 L 30.226562 128.25 L 30.226562 114.300781 "/>
<path style=" stroke:none;fill-rule:nonzero;fill:rgb(100%,0%,0%);fill-opacity:1;" d="M 42.824219 121.199219 C 42.824219 119 43.375 117.273438 44.476562 116.023438 C 45.574219 114.773438 47.148438 114.148438 49.199219 114.148438 C 51.300781 114.148438 52.898438 114.773438 54 116.023438 C 55.101562 117.273438 55.648438 119 55.648438 121.199219 C 55.648438 123.449219 55.074219 125.226562 53.925781 126.523438 C 52.824219 127.824219 51.25 128.476562 49.199219 128.476562 C 47.148438 128.476562 45.574219 127.824219 44.476562 126.523438 C 43.375 125.273438 42.824219 123.5 42.824219 121.199219 M 49.199219 126.898438 C 50.648438 126.898438 51.75 126.425781 52.5 125.476562 C 53.25 124.523438 53.625 123.101562 53.625 121.199219 C 53.625 119.398438 53.25 118.023438 52.5 117.074219 C 51.75 116.175781 50.648438 115.726562 49.199219 115.726562 C 47.800781 115.726562 46.699219 116.175781 45.898438 117.074219 C 45.148438 117.976562 44.773438 119.351562 44.773438 121.199219 C 44.773438 123.101562 45.148438 124.523438 45.898438 125.476562 C 46.699219 126.425781 47.800781 126.898438 49.199219 126.898438 "/>
</g>
</svg>
