<?xml version="1.0" encoding="UTF-8"?>
<svg xmlns="http://www.w3.org/2000/svg" xmlns:xlink="http://www.w3.org/1999/xlink" width="375pt" height="375pt" viewBox="0 0 375 375" version="1.1">
<g id="surface101">
<rect x="0" y="0" width="375" height="375" style="fill:rgb(100%,100%,100%);fill-opacity:1;stroke:none;"/>
<path style="fill:none;stroke-width:1;stroke-linecap:butt;stroke-linejoin:miter;stroke:rgb(0%,0%,0%);stroke-opacity:1;stroke-miterlimit:4;" d="M 140.401042 287.197917 L 142 287.5 " transform="matrix(0.75,0,0,0.75,0,0)"/>
<path style="fill:none;stroke-width:1;stroke-linecap:butt;stroke-linejoin:miter;stroke:rgb(0%,0%,0%);stroke-opacity:1;stroke-miterlimit:4;" d="M 138.401042 293.302083 L 141.598958 293.901042 " transform="matrix(0.75,0,0,0.75,0,0)"/>
<path style="fill:none;stroke-width:1;stroke-linecap:butt;stroke-linejoin:miter;stroke:rgb(0%,0%,0%);stroke-opacity:1;stroke-miterlimit:4;" d="M 136.5 299.401042 L 141.302083 300.302083 " transform="matrix(0.75,0,0,0.75,0,0)"/>
<path style="fill:none;stroke-width:1;stroke-linecap:butt;stroke-linejoin:miter;stroke:rgb(0%,0%,100%);stroke-opacity:1;stroke-miterlimit:4;" d="M 134.5 305.598958 L 140.901042 306.697917 " transform="matrix(0.75,0,0,0.75,0,0)"/>
<path style="fill:none;stroke-width:1;stroke-linecap:butt;stroke-linejoin:miter;stroke:rgb(0%,0%,100%);stroke-opacity:1;stroke-miterlimit:4;" d="M 132.598958 311.697917 L 140.5 313.197917 " transform="matrix(0.75,0,0,0.75,0,0)"/>
<path style="fill:none;stroke-width:1;stroke-linecap:butt;stroke-linejoin:miter;stroke:rgb(0%,0%,100%);stroke-opacity:1;stroke-miterlimit:4;" d="M 130.598958 317.802083 L 140.197917 319.598958 " transform="matrix(0.75,0,0,0.75,0,0)"/>
<path style="fill:none;stroke-width:2;stroke-linecap:butt;stroke-linejoin:miter;stroke:rgb(0%,0%,0%);stroke-opacity:1;stroke-miterlimit:4;" d="M 142.401042 281 L 188.098958 264.802083 " transform="matrix(0.75,0,0,0.75,0,0)"/>
<path style="fill:none;stroke-width:2;stroke-linecap:butt;stroke-linejoin:miter;stroke:rgb(0%,0%,0%);stroke-opacity:1;stroke-miterlimit:4;" d="M 183.302083 263.901042 L 186.901042 244.401042 " transform="matrix(0.75,0,0,0.75,0,0)"/>
<path style="fill:none;stroke-width:2;stroke-linecap:butt;stroke-linejoin:miter;stroke:rgb(100%,0%,0%);stroke-opacity:1;stroke-miterlimit:4;" d="M 186.901042 244.401042 L 190.5 224.901042 " transform="matrix(0.75,0,0,0.75,0,0)"/>
<path style="fill:none;stroke-width:2;stroke-linecap:butt;stroke-linejoin:miter;stroke:rgb(0%,0%,0%);stroke-opacity:1;stroke-miterlimit:4;" d="M 192.901042 265.697917 L 196.5 246.197917 " transform="matrix(0.75,0,0,0.75,0,0)"/>
<path style="fill:none;stroke-width:2;stroke-linecap:butt;stroke-linejoin:miter;stroke:rgb(100%,0%,0%);stroke-opacity:1;stroke-miterlimit:4;" d="M 196.5 246.197917 L 200 226.697917 " transform="matrix(0.75,0,0,0.75,0,0)"/>
<path style="fill:none;stroke-width:2;stroke-linecap:butt;stroke-linejoin:miter;stroke:rgb(0%,0%,0%);stroke-opacity:1;stroke-miterlimit:4;" d="M 188.098958 264.802083 L 203.197917 277.598958 " transform="matrix(0.75,0,0,0.75,0,0)"/>
<path style="fill:none;stroke-width:2;stroke-linecap:butt;stroke-linejoin:miter;stroke:rgb(0%,0%,100%);stroke-opacity:1;stroke-miterlimit:4;" d="M 203.197917 277.598958 L 218.197917 290.5 " transform="matrix(0.75,0,0,0.75,0,0)"/>
<path style="fill-rule:evenodd;fill:rgb(0%,0%,0%);fill-opacity:1;stroke-width:1;stroke-linecap:butt;stroke-linejoin:miter;stroke:rgb(0%,0%,0%);stroke-opacity:1;stroke-miterlimit:4;" d="M 270.802083 280 L 252.901042 288.901042 L 251.302083 284.401042 Z M 270.802083 280 " transform="matrix(0.75,0,0,0.75,0,0)"/>
<path style="fill-rule:evenodd;fill:rgb(0%,0%,100%);fill-opacity:1;stroke-width:1;stroke-linecap:butt;stroke-linejoin:miter;stroke:rgb(0%,0%,100%);stroke-opacity:1;stroke-miterlimit:4;" d="M 252.901042 288.901042 L 231.802083 288.697917 L 235.098958 297.901042 Z M 252.901042 288.901042 " transform="matrix(0.75,0,0,0.75,0,0)"/>
<path style="fill-rule:evenodd;fill:rgb(0%,0%,100%);fill-opacity:1;stroke-width:1;stroke-linecap:butt;stroke-linejoin:miter;stroke:rgb(0%,0%,100%);stroke-opacity:1;stroke-miterlimit:4;" d="M 252.901042 288.901042 L 251.302083 284.401042 L 231.802083 288.697917 Z M 252.901042 288.901042 " transform="matrix(0.75,0,0,0.75,0,0)"/>
<path style="fill:none;stroke-width:2;stroke-linecap:butt;stroke-linejoin:miter;stroke:rgb(0%,0%,0%);stroke-opacity:1;stroke-miterlimit:4;" d="M 270.802083 280 L 314.598958 300.901042 " transform="matrix(0.75,0,0,0.75,0,0)"/>
<path style="fill:none;stroke-width:2;stroke-linecap:butt;stroke-linejoin:miter;stroke:rgb(0%,0%,0%);stroke-opacity:1;stroke-miterlimit:4;" d="M 319.197917 299.302083 L 325.802083 317.802083 " transform="matrix(0.75,0,0,0.75,0,0)"/>
<path style="fill:none;stroke-width:2;stroke-linecap:butt;stroke-linejoin:miter;stroke:rgb(100%,0%,0%);stroke-opacity:1;stroke-miterlimit:4;" d="M 325.802083 317.802083 L 332.401042 336.401042 " transform="matrix(0.75,0,0,0.75,0,0)"/>
<path style="fill:none;stroke-width:2;stroke-linecap:butt;stroke-linejoin:miter;stroke:rgb(0%,0%,0%);stroke-opacity:1;stroke-miterlimit:4;" d="M 310 302.5 L 316.598958 321.098958 " transform="matrix(0.75,0,0,0.75,0,0)"/>
<path style="fill:none;stroke-width:2;stroke-linecap:butt;stroke-linejoin:miter;stroke:rgb(100%,0%,0%);stroke-opacity:1;stroke-miterlimit:4;" d="M 316.598958 321.098958 L 323.197917 339.697917 " transform="matrix(0.75,0,0,0.75,0,0)"/>
<path style="fill:none;stroke-width:2;stroke-linecap:butt;stroke-linejoin:miter;stroke:rgb(0%,0%,0%);stroke-opacity:1;stroke-miterlimit:4;" d="M 314.598958 300.901042 L 323 283.197917 " transform="matrix(0.75,0,0,0.75,0,0)"/>
<path style="fill:none;stroke-width:2;stroke-linecap:butt;stroke-linejoin:miter;stroke:rgb(0%,0%,100%);stroke-opacity:1;stroke-miterlimit:4;" d="M 323 283.197917 L 331.401042 265.5 " transform="matrix(0.75,0,0,0.75,0,0)"/>
<path style="fill:none;stroke-width:2;stroke-linecap:butt;stroke-linejoin:miter;stroke:rgb(0%,0%,100%);stroke-opacity:1;stroke-miterlimit:4;" d="M 342.302083 252.302083 L 358.802083 240.901042 " transform="matrix(0.75,0,0,0.75,0,0)"/>
<path style="fill:none;stroke-width:2;stroke-linecap:butt;stroke-linejoin:miter;stroke:rgb(0%,0%,0%);stroke-opacity:1;stroke-miterlimit:4;" d="M 358.802083 240.901042 L 375.401042 229.5 " transform="matrix(0.75,0,0,0.75,0,0)"/>
<path style="fill:none;stroke-width:2;stroke-linecap:butt;stroke-linejoin:miter;stroke:rgb(0%,0%,0%);stroke-opacity:1;stroke-miterlimit:4;" d="M 375.401042 229.5 L 419.302083 250.401042 " transform="matrix(0.75,0,0,0.75,0,0)"/>
<path style="fill:none;stroke-width:2;stroke-linecap:butt;stroke-linejoin:miter;stroke:rgb(0%,0%,0%);stroke-opacity:1;stroke-miterlimit:4;" d="M 424.098958 250 L 425.697917 269.901042 " transform="matrix(0.75,0,0,0.75,0,0)"/>
<path style="fill:none;stroke-width:2;stroke-linecap:butt;stroke-linejoin:miter;stroke:rgb(100%,0%,0%);stroke-opacity:1;stroke-miterlimit:4;" d="M 425.697917 269.901042 L 427.302083 289.802083 " transform="matrix(0.75,0,0,0.75,0,0)"/>
<path style="fill:none;stroke-width:2;stroke-linecap:butt;stroke-linejoin:miter;stroke:rgb(0%,0%,0%);stroke-opacity:1;stroke-miterlimit:4;" d="M 414.401042 250.697917 L 416 270.697917 " transform="matrix(0.75,0,0,0.75,0,0)"/>
<path style="fill:none;stroke-width:2;stroke-linecap:butt;stroke-linejoin:miter;stroke:rgb(100%,0%,0%);stroke-opacity:1;stroke-miterlimit:4;" d="M 416 270.697917 L 417.598958 290.598958 " transform="matrix(0.75,0,0,0.75,0,0)"/>
<path style="fill:none;stroke-width:2;stroke-linecap:butt;stroke-linejoin:miter;stroke:rgb(0%,0%,0%);stroke-opacity:1;stroke-miterlimit:4;" d="M 419.302083 250.401042 L 435.302083 239.302083 " transform="matrix(0.75,0,0,0.75,0,0)"/>
<path style="fill:none;stroke-width:2;stroke-linecap:butt;stroke-linejoin:miter;stroke:rgb(100%,0%,0%);stroke-opacity:1;stroke-miterlimit:4;" d="M 435.302083 239.302083 L 451.302083 228.302083 " transform="matrix(0.75,0,0,0.75,0,0)"/>
<path style="fill:none;stroke-width:2;stroke-linecap:butt;stroke-linejoin:miter;stroke:rgb(0%,0%,0%);stroke-opacity:1;stroke-miterlimit:4;" d="M 375.401042 229.5 L 371.598958 181.098958 " transform="matrix(0.75,0,0,0.75,0,0)"/>
<path style="fill:none;stroke-width:2;stroke-linecap:butt;stroke-linejoin:miter;stroke:rgb(0%,0%,0%);stroke-opacity:1;stroke-miterlimit:4;" d="M 365.197917 223 L 362.5 189.197917 " transform="matrix(0.75,0,0,0.75,0,0)"/>
<path style="fill:none;stroke-width:2;stroke-linecap:butt;stroke-linejoin:miter;stroke:rgb(0%,0%,0%);stroke-opacity:1;stroke-miterlimit:4;" d="M 371.598958 181.098958 L 388.098958 169.697917 " transform="matrix(0.75,0,0,0.75,0,0)"/>
<path style="fill:none;stroke-width:2;stroke-linecap:butt;stroke-linejoin:miter;stroke:rgb(0%,80%,0%);stroke-opacity:1;stroke-miterlimit:4;" d="M 388.098958 169.697917 L 404.598958 158.302083 " transform="matrix(0.75,0,0,0.75,0,0)"/>
<path style="fill:none;stroke-width:2;stroke-linecap:butt;stroke-linejoin:miter;stroke:rgb(0%,0%,0%);stroke-opacity:1;stroke-miterlimit:4;" d="M 371.598958 181.098958 L 327.697917 160.302083 " transform="matrix(0.75,0,0,0.75,0,0)"/>
<path style="fill:none;stroke-width:2;stroke-linecap:butt;stroke-linejoin:miter;stroke:rgb(0%,0%,0%);stroke-opacity:1;stroke-miterlimit:4;" d="M 327.697917 160.302083 L 310.802083 172 " transform="matrix(0.75,0,0,0.75,0,0)"/>
<path style="fill:none;stroke-width:2;stroke-linecap:butt;stroke-linejoin:miter;stroke:rgb(80%,80%,0%);stroke-opacity:1;stroke-miterlimit:4;" d="M 310.802083 172 L 293.802083 183.697917 " transform="matrix(0.75,0,0,0.75,0,0)"/>
<path style="fill:none;stroke-width:2;stroke-linecap:butt;stroke-linejoin:miter;stroke:rgb(80%,80%,0%);stroke-opacity:1;stroke-miterlimit:4;" d="M 288.5 196.598958 L 290 216.401042 " transform="matrix(0.75,0,0,0.75,0,0)"/>
<path style="fill:none;stroke-width:2;stroke-linecap:butt;stroke-linejoin:miter;stroke:rgb(0%,0%,0%);stroke-opacity:1;stroke-miterlimit:4;" d="M 290 216.401042 L 291.598958 236.197917 " transform="matrix(0.75,0,0,0.75,0,0)"/>
<path style="fill:none;stroke-width:2;stroke-linecap:butt;stroke-linejoin:miter;stroke:rgb(0%,0%,0%);stroke-opacity:1;stroke-miterlimit:4;" d="M 142.401042 281 L 105.401042 249.598958 " transform="matrix(0.75,0,0,0.75,0,0)"/>
<path style="fill:none;stroke-width:2;stroke-linecap:butt;stroke-linejoin:miter;stroke:rgb(0%,0%,0%);stroke-opacity:1;stroke-miterlimit:4;" d="M 105.401042 249.598958 L 114.197917 201.802083 " transform="matrix(0.75,0,0,0.75,0,0)"/>
<path style="fill:none;stroke-width:2;stroke-linecap:butt;stroke-linejoin:miter;stroke:rgb(0%,0%,0%);stroke-opacity:1;stroke-miterlimit:4;" d="M 97.197917 240.598958 L 103.302083 207.197917 " transform="matrix(0.75,0,0,0.75,0,0)"/>
<path style="fill:none;stroke-width:2;stroke-linecap:butt;stroke-linejoin:miter;stroke:rgb(0%,0%,0%);stroke-opacity:1;stroke-miterlimit:4;" d="M 114.197917 201.802083 L 77.302083 170.302083 " transform="matrix(0.75,0,0,0.75,0,0)"/>
<path style="fill:none;stroke-width:2;stroke-linecap:butt;stroke-linejoin:miter;stroke:rgb(0%,0%,0%);stroke-opacity:1;stroke-miterlimit:4;" d="M 77.302083 170.302083 L 31.5 186.598958 " transform="matrix(0.75,0,0,0.75,0,0)"/>
<path style="fill:none;stroke-width:2;stroke-linecap:butt;stroke-linejoin:miter;stroke:rgb(0%,0%,0%);stroke-opacity:1;stroke-miterlimit:4;" d="M 73.697917 181.901042 L 41.598958 193.302083 " transform="matrix(0.75,0,0,0.75,0,0)"/>
<path style="fill:none;stroke-width:2;stroke-linecap:butt;stroke-linejoin:miter;stroke:rgb(0%,0%,0%);stroke-opacity:1;stroke-miterlimit:4;" d="M 31.5 186.598958 L 22.697917 234.302083 " transform="matrix(0.75,0,0,0.75,0,0)"/>
<path style="fill:none;stroke-width:2;stroke-linecap:butt;stroke-linejoin:miter;stroke:rgb(0%,0%,0%);stroke-opacity:1;stroke-miterlimit:4;" d="M 22.697917 234.302083 L 59.697917 265.802083 " transform="matrix(0.75,0,0,0.75,0,0)"/>
<path style="fill:none;stroke-width:2;stroke-linecap:butt;stroke-linejoin:miter;stroke:rgb(0%,0%,0%);stroke-opacity:1;stroke-miterlimit:4;" d="M 34.598958 231.697917 L 60.401042 253.697917 " transform="matrix(0.75,0,0,0.75,0,0)"/>
<path style="fill:none;stroke-width:2;stroke-linecap:butt;stroke-linejoin:miter;stroke:rgb(0%,0%,0%);stroke-opacity:1;stroke-miterlimit:4;" d="M 291.598958 236.197917 L 270.802083 280 " transform="matrix(0.75,0,0,0.75,0,0)"/>
<path style="fill:none;stroke-width:2;stroke-linecap:butt;stroke-linejoin:miter;stroke:rgb(0%,0%,0%);stroke-opacity:1;stroke-miterlimit:4;" d="M 59.697917 265.802083 L 105.401042 249.598958 " transform="matrix(0.75,0,0,0.75,0,0)"/>
<path style="fill:none;stroke-width:2;stroke-linecap:butt;stroke-linejoin:miter;stroke:rgb(0%,0%,0%);stroke-opacity:1;stroke-miterlimit:4;" d="M 291.598958 236.197917 L 310.098958 245 " transform="matrix(0.75,0,0,0.75,0,0)"/>
<path style="fill:none;stroke-width:2;stroke-linecap:butt;stroke-linejoin:miter;stroke:rgb(0%,0%,100%);stroke-opacity:1;stroke-miterlimit:4;" d="M 310.098958 245 L 328.598958 253.802083 " transform="matrix(0.75,0,0,0.75,0,0)"/>
<path style="fill:none;stroke-width:1;stroke-linecap:butt;stroke-linejoin:miter;stroke:rgb(0%,0%,0%);stroke-opacity:1;stroke-miterlimit:4;" d="M 285.197917 234.197917 L 284.901042 235.802083 " transform="matrix(0.75,0,0,0.75,0,0)"/>
<path style="fill:none;stroke-width:1;stroke-linecap:butt;stroke-linejoin:miter;stroke:rgb(0%,0%,0%);stroke-opacity:1;stroke-miterlimit:4;" d="M 278.901042 232.197917 L 278.302083 235.401042 " transform="matrix(0.75,0,0,0.75,0,0)"/>
<path style="fill:none;stroke-width:1;stroke-linecap:butt;stroke-linejoin:miter;stroke:rgb(0%,0%,0%);stroke-opacity:1;stroke-miterlimit:4;" d="M 272.5 230.197917 L 271.598958 235 " transform="matrix(0.75,0,0,0.75,0,0)"/>
<path style="fill:none;stroke-width:1;stroke-linecap:butt;stroke-linejoin:miter;stroke:rgb(0%,0%,0%);stroke-opacity:1;stroke-miterlimit:4;" d="M 266.098958 228.197917 L 264.901042 234.598958 " transform="matrix(0.75,0,0,0.75,0,0)"/>
<path style="fill:none;stroke-width:1;stroke-linecap:butt;stroke-linejoin:miter;stroke:rgb(0%,0%,0%);stroke-opacity:1;stroke-miterlimit:4;" d="M 259.697917 226.197917 L 258.302083 234.197917 " transform="matrix(0.75,0,0,0.75,0,0)"/>
<path style="fill:none;stroke-width:1;stroke-linecap:butt;stroke-linejoin:miter;stroke:rgb(0%,0%,0%);stroke-opacity:1;stroke-miterlimit:4;" d="M 253.302083 224.197917 L 251.598958 233.802083 " transform="matrix(0.75,0,0,0.75,0,0)"/>
<path style=" stroke:none;fill-rule:nonzero;fill:rgb(0%,0%,100%);fill-opacity:1;" d="M 97.875 241.425781 L 101.25 246.898438 C 101.5 247.25 101.800781 247.75 102.148438 248.398438 C 102.5 249.050781 102.675781 249.398438 102.675781 249.449219 L 102.675781 241.425781 L 104.101562 241.425781 L 104.101562 251.773438 L 102.675781 251.773438 L 99.074219 245.773438 C 98.773438 245.324219 98.476562 244.824219 98.175781 244.273438 C 97.875 243.726562 97.675781 243.375 97.574219 243.226562 L 97.574219 251.773438 L 96.226562 251.773438 L 96.226562 241.425781 L 97.875 241.425781 "/>
<path style=" stroke:none;fill-rule:nonzero;fill:rgb(0%,0%,100%);fill-opacity:1;" d="M 105.300781 241.425781 L 106.648438 241.425781 L 106.648438 245.773438 L 111.976562 245.773438 L 111.976562 241.425781 L 113.324219 241.425781 L 113.324219 251.773438 L 111.976562 251.773438 L 111.976562 246.976562 L 106.648438 246.976562 L 106.648438 251.773438 L 105.300781 251.773438 L 105.300781 241.425781 "/>
<path style=" stroke:none;fill-rule:nonzero;fill:rgb(0%,0%,100%);fill-opacity:1;" d="M 114.601562 251.398438 C 114.75 250.949219 115.023438 250.601562 115.425781 250.351562 C 115.824219 250.101562 116.300781 249.976562 116.851562 249.976562 C 117.550781 249.976562 118.101562 250.175781 118.5 250.574219 C 118.851562 250.925781 119.023438 251.449219 119.023438 252.148438 C 119.023438 252.800781 118.773438 253.449219 118.273438 254.101562 C 117.824219 254.699219 117.074219 255.375 116.023438 256.125 L 119.175781 256.125 L 119.175781 256.875 L 114.601562 256.875 L 114.601562 256.273438 C 115.449219 255.675781 116.125 255.148438 116.625 254.699219 C 117.125 254.25 117.5 253.824219 117.75 253.425781 C 118 253.023438 118.125 252.601562 118.125 252.148438 C 118.125 251.699219 118 251.375 117.75 251.175781 C 117.550781 250.925781 117.25 250.800781 116.851562 250.800781 C 116.5 250.800781 116.199219 250.875 115.949219 251.023438 C 115.699219 251.175781 115.5 251.398438 115.351562 251.699219 L 114.601562 251.398438 "/>
<path style=" stroke:none;fill-rule:nonzero;fill:rgb(100%,0%,0%);fill-opacity:1;" d="M 142.949219 162.824219 C 142.949219 161.175781 143.351562 159.875 144.148438 158.925781 C 144.949219 158.023438 146.125 157.574219 147.675781 157.574219 C 149.175781 157.574219 150.351562 158.023438 151.199219 158.925781 C 152 159.875 152.398438 161.175781 152.398438 162.824219 C 152.398438 164.476562 151.976562 165.773438 151.125 166.726562 C 150.324219 167.675781 149.175781 168.148438 147.675781 168.148438 C 146.175781 168.148438 145 167.675781 144.148438 166.726562 C 143.351562 165.824219 142.949219 164.523438 142.949219 162.824219 M 147.675781 167.023438 C 148.726562 167.023438 149.523438 166.675781 150.074219 165.976562 C 150.675781 165.273438 150.976562 164.226562 150.976562 162.824219 C 150.976562 161.476562 150.675781 160.449219 150.074219 159.75 C 149.523438 159.101562 148.726562 158.773438 147.675781 158.773438 C 146.625 158.773438 145.800781 159.101562 145.199219 159.75 C 144.648438 160.449219 144.375 161.476562 144.375 162.824219 C 144.375 164.226562 144.648438 165.273438 145.199219 165.976562 C 145.800781 166.675781 146.625 167.023438 147.675781 167.023438 "/>
<path style=" stroke:none;fill-rule:nonzero;fill:rgb(0%,0%,100%);fill-opacity:1;" d="M 166.5 217.050781 L 169.875 222.523438 C 170.074219 222.875 170.375 223.375 170.773438 224.023438 C 171.125 224.675781 171.300781 225.023438 171.300781 225.074219 L 171.300781 217.050781 L 172.648438 217.050781 L 172.648438 227.324219 L 171.300781 227.324219 L 167.625 221.398438 C 167.375 220.949219 167.101562 220.449219 166.800781 219.898438 C 166.5 219.351562 166.300781 219 166.199219 218.851562 L 166.199219 227.324219 L 164.851562 227.324219 L 164.851562 217.050781 L 166.5 217.050781 "/>
<path style=" stroke:none;fill-rule:nonzero;fill:rgb(0%,0%,100%);fill-opacity:1;" d="M 164.773438 228.375 L 166.125 228.375 L 166.125 232.800781 L 171.375 232.800781 L 171.375 228.375 L 172.800781 228.375 L 172.800781 238.726562 L 171.375 238.726562 L 171.375 233.925781 L 166.125 233.925781 L 166.125 238.726562 L 164.773438 238.726562 L 164.773438 228.375 "/>
<path style=" stroke:none;fill-rule:nonzero;fill:rgb(100%,0%,0%);fill-opacity:1;" d="M 243.375 260.023438 C 243.375 258.375 243.800781 257.074219 244.648438 256.125 C 245.449219 255.226562 246.625 254.773438 248.175781 254.773438 C 249.675781 254.773438 250.824219 255.226562 251.625 256.125 C 252.476562 257.074219 252.898438 258.375 252.898438 260.023438 C 252.898438 261.675781 252.476562 262.976562 251.625 263.925781 C 250.824219 264.875 249.675781 265.351562 248.175781 265.351562 C 246.625 265.351562 245.449219 264.875 244.648438 263.925781 C 243.800781 262.976562 243.375 261.675781 243.375 260.023438 M 248.175781 264.148438 C 249.226562 264.148438 250.023438 263.800781 250.574219 263.101562 C 251.125 262.398438 251.398438 261.375 251.398438 260.023438 C 251.398438 258.675781 251.125 257.648438 250.574219 256.949219 C 250.023438 256.25 249.226562 255.898438 248.175781 255.898438 C 247.125 255.898438 246.300781 256.25 245.699219 256.949219 C 245.148438 257.601562 244.875 258.625 244.875 260.023438 C 244.875 261.375 245.148438 262.398438 245.699219 263.101562 C 246.300781 263.800781 247.125 264.148438 248.175781 264.148438 "/>
<path style=" stroke:none;fill-rule:nonzero;fill:rgb(0%,0%,100%);fill-opacity:1;" d="M 249.300781 187.648438 L 252.675781 193.125 C 252.925781 193.476562 253.226562 193.976562 253.574219 194.625 C 253.925781 195.273438 254.101562 195.601562 254.101562 195.601562 L 254.101562 187.648438 L 255.523438 187.648438 L 255.523438 197.925781 L 254.101562 197.925781 L 250.425781 192 C 250.175781 191.5 249.898438 191 249.601562 190.5 C 249.300781 189.949219 249.101562 189.601562 249 189.449219 L 249 197.925781 L 247.648438 197.925781 L 247.648438 187.648438 L 249.300781 187.648438 "/>
<path style=" stroke:none;fill-rule:nonzero;fill:rgb(100%,0%,0%);fill-opacity:1;" d="M 312.601562 224.101562 C 312.601562 222.449219 313 221.148438 313.800781 220.199219 C 314.648438 219.300781 315.824219 218.851562 317.324219 218.851562 C 318.875 218.851562 320.050781 219.300781 320.851562 220.199219 C 321.648438 221.148438 322.050781 222.449219 322.050781 224.101562 C 322.050781 225.75 321.648438 227.050781 320.851562 228 C 320 228.949219 318.824219 229.425781 317.324219 229.425781 C 315.824219 229.425781 314.648438 228.949219 313.800781 228 C 313 227.050781 312.601562 225.75 312.601562 224.101562 M 317.324219 228.300781 C 318.375 228.300781 319.175781 227.949219 319.726562 227.25 C 320.324219 226.5 320.625 225.449219 320.625 224.101562 C 320.625 222.75 320.324219 221.726562 319.726562 221.023438 C 319.175781 220.324219 318.375 219.976562 317.324219 219.976562 C 316.273438 219.976562 315.476562 220.324219 314.925781 221.023438 C 314.375 221.726562 314.101562 222.75 314.101562 224.101562 C 314.101562 225.5 314.375 226.550781 314.925781 227.25 C 315.476562 227.949219 316.273438 228.300781 317.324219 228.300781 "/>
<path style=" stroke:none;fill-rule:nonzero;fill:rgb(100%,0%,0%);fill-opacity:1;" d="M 339.675781 167.175781 C 339.675781 165.523438 340.101562 164.226562 340.949219 163.273438 C 341.75 162.375 342.898438 161.925781 344.398438 161.925781 C 345.949219 161.925781 347.125 162.375 347.925781 163.273438 C 348.726562 164.226562 349.125 165.523438 349.125 167.175781 C 349.125 168.824219 348.726562 170.125 347.925781 171.074219 C 347.074219 172.023438 345.898438 172.5 344.398438 172.5 C 342.898438 172.5 341.75 172.023438 340.949219 171.074219 C 340.101562 170.125 339.675781 168.824219 339.675781 167.175781 M 344.398438 171.300781 C 345.449219 171.300781 346.273438 170.949219 346.875 170.25 C 347.425781 169.550781 347.699219 168.523438 347.699219 167.175781 C 347.699219 165.824219 347.425781 164.800781 346.875 164.101562 C 346.273438 163.398438 345.449219 163.050781 344.398438 163.050781 C 343.351562 163.050781 342.550781 163.398438 342 164.101562 C 341.449219 164.75 341.175781 165.773438 341.175781 167.175781 C 341.175781 168.523438 341.449219 169.550781 342 170.25 C 342.550781 170.949219 343.351562 171.300781 344.398438 171.300781 "/>
<path style=" stroke:none;fill-rule:nonzero;fill:rgb(100%,0%,0%);fill-opacity:1;" d="M 349.875 162 L 351.300781 162 L 351.300781 166.425781 L 356.550781 166.425781 L 356.550781 162 L 357.976562 162 L 357.976562 172.351562 L 356.550781 172.351562 L 356.550781 167.550781 L 351.300781 167.550781 L 351.300781 172.351562 L 349.875 172.351562 L 349.875 162 "/>
<path style=" stroke:none;fill-rule:nonzero;fill:rgb(0%,80%,0%);fill-opacity:1;" d="M 304.648438 115.574219 C 304.648438 113.824219 305.050781 112.523438 305.851562 111.675781 C 306.648438 110.773438 307.824219 110.324219 309.375 110.324219 C 310.773438 110.324219 311.851562 110.824219 312.601562 111.824219 L 311.699219 112.574219 C 311.148438 111.824219 310.375 111.449219 309.375 111.449219 C 308.324219 111.449219 307.523438 111.800781 306.976562 112.5 C 306.425781 113.199219 306.148438 114.226562 306.148438 115.574219 C 306.148438 116.925781 306.425781 117.949219 306.976562 118.648438 C 307.574219 119.351562 308.425781 119.699219 309.523438 119.699219 C 310.273438 119.699219 311.101562 119.476562 312 119.023438 L 312.375 120.074219 C 312.023438 120.324219 311.574219 120.523438 311.023438 120.675781 C 310.476562 120.773438 309.898438 120.824219 309.300781 120.824219 C 307.800781 120.824219 306.648438 120.375 305.851562 119.476562 C 305.050781 118.574219 304.648438 117.273438 304.648438 115.574219 "/>
<path style=" stroke:none;fill-rule:nonzero;fill:rgb(0%,80%,0%);fill-opacity:1;" d="M 313.199219 109.648438 L 314.550781 109.648438 L 314.550781 120.75 L 313.199219 120.75 L 313.199219 109.648438 "/>
<path style=" stroke:none;fill-rule:nonzero;fill:rgb(80%,80%,0%);fill-opacity:1;" d="M 212.925781 144.375 C 212.976562 144.425781 213.175781 144.523438 213.523438 144.675781 C 213.824219 144.773438 214.148438 144.875 214.5 144.976562 C 214.851562 145.074219 215.199219 145.125 215.550781 145.125 C 216.199219 145.125 216.726562 144.949219 217.125 144.601562 C 217.476562 144.300781 217.648438 143.875 217.648438 143.324219 C 217.648438 142.925781 217.574219 142.625 217.425781 142.425781 C 217.226562 142.175781 216.976562 141.976562 216.675781 141.824219 C 216.375 141.726562 216 141.601562 215.550781 141.449219 C 214.898438 141.25 214.398438 141.074219 214.050781 140.925781 C 213.699219 140.726562 213.398438 140.449219 213.148438 140.101562 C 212.851562 139.75 212.699219 139.25 212.699219 138.601562 C 212.699219 137.75 213 137.050781 213.601562 136.5 C 214.199219 136 215.074219 135.75 216.226562 135.75 C 217.023438 135.75 217.875 135.925781 218.773438 136.273438 L 218.476562 137.398438 C 217.625 137.050781 216.898438 136.875 216.300781 136.875 C 215.601562 136.875 215.074219 137.023438 214.726562 137.324219 C 214.375 137.574219 214.199219 137.949219 214.199219 138.449219 C 214.199219 138.800781 214.300781 139.101562 214.5 139.351562 C 214.648438 139.550781 214.875 139.726562 215.175781 139.875 C 215.476562 139.976562 215.851562 140.101562 216.300781 140.25 C 216.898438 140.449219 217.398438 140.648438 217.800781 140.851562 C 218.148438 141.050781 218.449219 141.351562 218.699219 141.75 C 219 142.101562 219.148438 142.625 219.148438 143.324219 C 219.148438 144.273438 218.824219 145 218.175781 145.5 C 217.523438 146 216.675781 146.25 215.625 146.25 C 215.023438 146.25 214.5 146.199219 214.050781 146.101562 C 213.550781 145.949219 213.050781 145.773438 212.550781 145.574219 L 212.925781 144.375 "/>
<path style=" stroke:none;fill-rule:nonzero;fill:rgb(0%,0%,0%);fill-opacity:1;" d="M 178.875 165.375 L 180.300781 165.375 L 180.300781 169.800781 L 185.550781 169.800781 L 185.550781 165.375 L 186.976562 165.375 L 186.976562 175.726562 L 185.550781 175.726562 L 185.550781 170.925781 L 180.300781 170.925781 L 180.300781 175.726562 L 178.875 175.726562 L 178.875 165.375 "/>
</g>
</svg>
