<?xml version="1.0" encoding="UTF-8"?>
<svg xmlns="http://www.w3.org/2000/svg" xmlns:xlink="http://www.w3.org/1999/xlink" width="375pt" height="375pt" viewBox="0 0 375 375" version="1.1">
<g id="surface11">
<rect x="0" y="0" width="375" height="375" style="fill:rgb(100%,100%,100%);fill-opacity:1;stroke:none;"/>
<path style="fill:none;stroke-width:2;stroke-linecap:butt;stroke-linejoin:miter;stroke:rgb(0%,0%,0%);stroke-opacity:1;stroke-miterlimit:4;" d="M 448.302083 350.302083 L 409.901042 369.5 " transform="matrix(0.75,0,0,0.75,0,0)"/>
<path style="fill:none;stroke-width:2;stroke-linecap:butt;stroke-linejoin:miter;stroke:rgb(0%,0%,0%);stroke-opacity:1;stroke-miterlimit:4;" d="M 409.901042 369.5 L 433 405.697917 " transform="matrix(0.75,0,0,0.75,0,0)"/>
<path style="fill:none;stroke-width:2;stroke-linecap:butt;stroke-linejoin:miter;stroke:rgb(0%,0%,0%);stroke-opacity:1;stroke-miterlimit:4;" d="M 409.901042 369.5 L 394.802083 329.302083 " transform="matrix(0.75,0,0,0.75,0,0)"/>
<path style="fill-rule:evenodd;fill:rgb(0%,0%,0%);fill-opacity:1;stroke-width:1;stroke-linecap:butt;stroke-linejoin:miter;stroke:rgb(0%,0%,0%);stroke-opacity:1;stroke-miterlimit:4;" d="M 394.802083 329.302083 L 414.901042 291.098958 L 422 295.901042 Z M 394.802083 329.302083 " transform="matrix(0.75,0,0,0.75,0,0)"/>
<path style="fill:none;stroke-width:2;stroke-linecap:butt;stroke-linejoin:miter;stroke:rgb(0%,0%,0%);stroke-opacity:1;stroke-miterlimit:4;" d="M 418.5 293.5 L 436.401042 294.598958 " transform="matrix(0.75,0,0,0.75,0,0)"/>
<path style="fill:none;stroke-width:2;stroke-linecap:butt;stroke-linejoin:miter;stroke:rgb(100%,0%,0%);stroke-opacity:1;stroke-miterlimit:4;" d="M 436.401042 294.598958 L 454.302083 295.598958 " transform="matrix(0.75,0,0,0.75,0,0)"/>
<path style="fill:none;stroke-width:2;stroke-linecap:butt;stroke-linejoin:miter;stroke:rgb(0%,0%,0%);stroke-opacity:1;stroke-miterlimit:4;" d="M 414.598958 295.401042 L 406.901042 280.098958 " transform="matrix(0.75,0,0,0.75,0,0)"/>
<path style="fill:none;stroke-width:2;stroke-linecap:butt;stroke-linejoin:miter;stroke:rgb(100%,0%,0%);stroke-opacity:1;stroke-miterlimit:4;" d="M 406.901042 280.098958 L 399.302083 264.802083 " transform="matrix(0.75,0,0,0.75,0,0)"/>
<path style="fill:none;stroke-width:2;stroke-linecap:butt;stroke-linejoin:miter;stroke:rgb(0%,0%,0%);stroke-opacity:1;stroke-miterlimit:4;" d="M 422.302083 291.598958 L 414.598958 276.197917 " transform="matrix(0.75,0,0,0.75,0,0)"/>
<path style="fill:none;stroke-width:2;stroke-linecap:butt;stroke-linejoin:miter;stroke:rgb(100%,0%,0%);stroke-opacity:1;stroke-miterlimit:4;" d="M 414.598958 276.197917 L 407 260.901042 " transform="matrix(0.75,0,0,0.75,0,0)"/>
<path style="fill:none;stroke-width:2;stroke-linecap:butt;stroke-linejoin:miter;stroke:rgb(0%,0%,0%);stroke-opacity:1;stroke-miterlimit:4;" d="M 409.901042 369.5 L 395.802083 380.802083 " transform="matrix(0.75,0,0,0.75,0,0)"/>
<path style="fill:none;stroke-width:2;stroke-linecap:butt;stroke-linejoin:miter;stroke:rgb(80%,80%,0%);stroke-opacity:1;stroke-miterlimit:4;" d="M 395.802083 380.802083 L 381.697917 392.098958 " transform="matrix(0.75,0,0,0.75,0,0)"/>
<path style="fill:none;stroke-width:2;stroke-linecap:butt;stroke-linejoin:miter;stroke:rgb(80%,80%,0%);stroke-opacity:1;stroke-miterlimit:4;" d="M 371 392.802083 L 355.802083 382.697917 " transform="matrix(0.75,0,0,0.75,0,0)"/>
<path style="fill:none;stroke-width:2;stroke-linecap:butt;stroke-linejoin:miter;stroke:rgb(0%,0%,0%);stroke-opacity:1;stroke-miterlimit:4;" d="M 355.802083 382.697917 L 340.5 372.697917 " transform="matrix(0.75,0,0,0.75,0,0)"/>
<path style="fill:none;stroke-width:2;stroke-linecap:butt;stroke-linejoin:miter;stroke:rgb(0%,0%,0%);stroke-opacity:1;stroke-miterlimit:4;" d="M 340.5 372.697917 L 299.098958 361.197917 " transform="matrix(0.75,0,0,0.75,0,0)"/>
<path style="fill:none;stroke-width:1;stroke-linecap:butt;stroke-linejoin:miter;stroke:rgb(0%,0%,0%);stroke-opacity:1;stroke-miterlimit:4;" d="M 293.802083 363.401042 L 294.5 364.697917 " transform="matrix(0.75,0,0,0.75,0,0)"/>
<path style="fill:none;stroke-width:1;stroke-linecap:butt;stroke-linejoin:miter;stroke:rgb(0%,0%,0%);stroke-opacity:1;stroke-miterlimit:4;" d="M 288.401042 365.697917 L 289.802083 368.098958 " transform="matrix(0.75,0,0,0.75,0,0)"/>
<path style="fill:none;stroke-width:1;stroke-linecap:butt;stroke-linejoin:miter;stroke:rgb(0%,0%,0%);stroke-opacity:1;stroke-miterlimit:4;" d="M 283.098958 367.901042 L 285.197917 371.598958 " transform="matrix(0.75,0,0,0.75,0,0)"/>
<path style="fill:none;stroke-width:1;stroke-linecap:butt;stroke-linejoin:miter;stroke:rgb(0%,0%,100%);stroke-opacity:1;stroke-miterlimit:4;" d="M 277.802083 370.098958 L 280.598958 375 " transform="matrix(0.75,0,0,0.75,0,0)"/>
<path style="fill:none;stroke-width:1;stroke-linecap:butt;stroke-linejoin:miter;stroke:rgb(0%,0%,100%);stroke-opacity:1;stroke-miterlimit:4;" d="M 272.401042 372.302083 L 276 378.5 " transform="matrix(0.75,0,0,0.75,0,0)"/>
<path style="fill:none;stroke-width:1;stroke-linecap:butt;stroke-linejoin:miter;stroke:rgb(0%,0%,100%);stroke-opacity:1;stroke-miterlimit:4;" d="M 267.098958 374.5 L 271.302083 381.901042 " transform="matrix(0.75,0,0,0.75,0,0)"/>
<path style="fill:none;stroke-width:2;stroke-linecap:butt;stroke-linejoin:miter;stroke:rgb(0%,0%,100%);stroke-opacity:1;stroke-miterlimit:4;" d="M 255.697917 378.901042 L 240.197917 369.802083 " transform="matrix(0.75,0,0,0.75,0,0)"/>
<path style="fill:none;stroke-width:2;stroke-linecap:butt;stroke-linejoin:miter;stroke:rgb(0%,0%,0%);stroke-opacity:1;stroke-miterlimit:4;" d="M 240.197917 369.802083 L 224.697917 360.697917 " transform="matrix(0.75,0,0,0.75,0,0)"/>
<path style="fill:none;stroke-width:2;stroke-linecap:butt;stroke-linejoin:miter;stroke:rgb(0%,0%,0%);stroke-opacity:1;stroke-miterlimit:4;" d="M 224.697917 360.697917 L 187.401042 381.901042 " transform="matrix(0.75,0,0,0.75,0,0)"/>
<path style="fill:none;stroke-width:2;stroke-linecap:butt;stroke-linejoin:miter;stroke:rgb(0%,0%,0%);stroke-opacity:1;stroke-miterlimit:4;" d="M 187.401042 381.901042 L 150.401042 360.197917 " transform="matrix(0.75,0,0,0.75,0,0)"/>
<path style="fill:none;stroke-width:2;stroke-linecap:butt;stroke-linejoin:miter;stroke:rgb(0%,0%,0%);stroke-opacity:1;stroke-miterlimit:4;" d="M 150.401042 360.197917 L 150.697917 317.197917 " transform="matrix(0.75,0,0,0.75,0,0)"/>
<path style="fill:none;stroke-width:2;stroke-linecap:butt;stroke-linejoin:miter;stroke:rgb(0%,0%,0%);stroke-opacity:1;stroke-miterlimit:4;" d="M 141.802083 353.697917 L 142 323.598958 " transform="matrix(0.75,0,0,0.75,0,0)"/>
<path style="fill:none;stroke-width:2;stroke-linecap:butt;stroke-linejoin:miter;stroke:rgb(0%,0%,0%);stroke-opacity:1;stroke-miterlimit:4;" d="M 150.697917 317.197917 L 113.697917 295.5 " transform="matrix(0.75,0,0,0.75,0,0)"/>
<path style="fill:none;stroke-width:2;stroke-linecap:butt;stroke-linejoin:miter;stroke:rgb(0%,0%,0%);stroke-opacity:1;stroke-miterlimit:4;" d="M 150.401042 360.197917 L 113 381.401042 " transform="matrix(0.75,0,0,0.75,0,0)"/>
<path style="fill:none;stroke-width:2;stroke-linecap:butt;stroke-linejoin:miter;stroke:rgb(0%,0%,0%);stroke-opacity:1;stroke-miterlimit:4;" d="M 113 381.401042 L 76 359.598958 " transform="matrix(0.75,0,0,0.75,0,0)"/>
<path style="fill:none;stroke-width:2;stroke-linecap:butt;stroke-linejoin:miter;stroke:rgb(0%,0%,0%);stroke-opacity:1;stroke-miterlimit:4;" d="M 111.802083 370.697917 L 85.901042 355.5 " transform="matrix(0.75,0,0,0.75,0,0)"/>
<path style="fill:none;stroke-width:2;stroke-linecap:butt;stroke-linejoin:miter;stroke:rgb(0%,0%,0%);stroke-opacity:1;stroke-miterlimit:4;" d="M 76 359.598958 L 76.302083 316.697917 " transform="matrix(0.75,0,0,0.75,0,0)"/>
<path style="fill:none;stroke-width:2;stroke-linecap:butt;stroke-linejoin:miter;stroke:rgb(0%,0%,0%);stroke-opacity:1;stroke-miterlimit:4;" d="M 76.302083 316.697917 L 61.302083 307.901042 " transform="matrix(0.75,0,0,0.75,0,0)"/>
<path style="fill:none;stroke-width:2;stroke-linecap:butt;stroke-linejoin:miter;stroke:rgb(100%,0%,0%);stroke-opacity:1;stroke-miterlimit:4;" d="M 61.302083 307.901042 L 46.302083 299.098958 " transform="matrix(0.75,0,0,0.75,0,0)"/>
<path style="fill:none;stroke-width:1;stroke-linecap:butt;stroke-linejoin:miter;stroke:rgb(0%,0%,0%);stroke-opacity:1;stroke-miterlimit:4;" d="M 186.598958 387.598958 L 188.098958 387.598958 " transform="matrix(0.75,0,0,0.75,0,0)"/>
<path style="fill:none;stroke-width:1;stroke-linecap:butt;stroke-linejoin:miter;stroke:rgb(0%,0%,0%);stroke-opacity:1;stroke-miterlimit:4;" d="M 185.901042 393.197917 L 188.697917 393.302083 " transform="matrix(0.75,0,0,0.75,0,0)"/>
<path style="fill:none;stroke-width:1;stroke-linecap:butt;stroke-linejoin:miter;stroke:rgb(0%,0%,0%);stroke-opacity:1;stroke-miterlimit:4;" d="M 185.098958 398.901042 L 189.401042 398.901042 " transform="matrix(0.75,0,0,0.75,0,0)"/>
<path style="fill:none;stroke-width:1;stroke-linecap:butt;stroke-linejoin:miter;stroke:rgb(0%,0%,100%);stroke-opacity:1;stroke-miterlimit:4;" d="M 184.401042 404.598958 L 190.098958 404.598958 " transform="matrix(0.75,0,0,0.75,0,0)"/>
<path style="fill:none;stroke-width:1;stroke-linecap:butt;stroke-linejoin:miter;stroke:rgb(0%,0%,100%);stroke-opacity:1;stroke-miterlimit:4;" d="M 183.598958 410.197917 L 190.802083 410.302083 " transform="matrix(0.75,0,0,0.75,0,0)"/>
<path style="fill:none;stroke-width:1;stroke-linecap:butt;stroke-linejoin:miter;stroke:rgb(0%,0%,100%);stroke-opacity:1;stroke-miterlimit:4;" d="M 182.901042 415.901042 L 191.401042 416 " transform="matrix(0.75,0,0,0.75,0,0)"/>
<path style="fill:none;stroke-width:2;stroke-linecap:butt;stroke-linejoin:miter;stroke:rgb(0%,0%,0%);stroke-opacity:1;stroke-miterlimit:4;" d="M 220.401042 360.697917 L 220.598958 343.098958 " transform="matrix(0.75,0,0,0.75,0,0)"/>
<path style="fill:none;stroke-width:2;stroke-linecap:butt;stroke-linejoin:miter;stroke:rgb(100%,0%,0%);stroke-opacity:1;stroke-miterlimit:4;" d="M 220.598958 343.098958 L 220.697917 325.5 " transform="matrix(0.75,0,0,0.75,0,0)"/>
<path style="fill:none;stroke-width:2;stroke-linecap:butt;stroke-linejoin:miter;stroke:rgb(0%,0%,0%);stroke-opacity:1;stroke-miterlimit:4;" d="M 229 360.697917 L 229.197917 343.098958 " transform="matrix(0.75,0,0,0.75,0,0)"/>
<path style="fill:none;stroke-width:2;stroke-linecap:butt;stroke-linejoin:miter;stroke:rgb(100%,0%,0%);stroke-opacity:1;stroke-miterlimit:4;" d="M 229.197917 343.098958 L 229.302083 325.598958 " transform="matrix(0.75,0,0,0.75,0,0)"/>
<path style="fill:none;stroke-width:2;stroke-linecap:butt;stroke-linejoin:miter;stroke:rgb(0%,0%,0%);stroke-opacity:1;stroke-miterlimit:4;" d="M 340.5 372.697917 L 345.197917 355.697917 " transform="matrix(0.75,0,0,0.75,0,0)"/>
<path style="fill:none;stroke-width:2;stroke-linecap:butt;stroke-linejoin:miter;stroke:rgb(0%,0%,100%);stroke-opacity:1;stroke-miterlimit:4;" d="M 345.197917 355.697917 L 349.802083 338.802083 " transform="matrix(0.75,0,0,0.75,0,0)"/>
<path style="fill:none;stroke-width:2;stroke-linecap:butt;stroke-linejoin:miter;stroke:rgb(0%,0%,100%);stroke-opacity:1;stroke-miterlimit:4;" d="M 345.901042 329.598958 L 328.197917 324.697917 " transform="matrix(0.75,0,0,0.75,0,0)"/>
<path style="fill:none;stroke-width:2;stroke-linecap:butt;stroke-linejoin:miter;stroke:rgb(0%,0%,0%);stroke-opacity:1;stroke-miterlimit:4;" d="M 328.197917 324.697917 L 310.5 319.802083 " transform="matrix(0.75,0,0,0.75,0,0)"/>
<path style="fill:none;stroke-width:2;stroke-linecap:butt;stroke-linejoin:miter;stroke:rgb(0%,0%,0%);stroke-opacity:1;stroke-miterlimit:4;" d="M 306.802083 322 L 298.401042 307.197917 " transform="matrix(0.75,0,0,0.75,0,0)"/>
<path style="fill:none;stroke-width:2;stroke-linecap:butt;stroke-linejoin:miter;stroke:rgb(100%,0%,0%);stroke-opacity:1;stroke-miterlimit:4;" d="M 298.401042 307.197917 L 290 292.401042 " transform="matrix(0.75,0,0,0.75,0,0)"/>
<path style="fill:none;stroke-width:2;stroke-linecap:butt;stroke-linejoin:miter;stroke:rgb(0%,0%,0%);stroke-opacity:1;stroke-miterlimit:4;" d="M 314.302083 317.697917 L 305.901042 302.901042 " transform="matrix(0.75,0,0,0.75,0,0)"/>
<path style="fill:none;stroke-width:2;stroke-linecap:butt;stroke-linejoin:miter;stroke:rgb(100%,0%,0%);stroke-opacity:1;stroke-miterlimit:4;" d="M 305.901042 302.901042 L 297.5 288.098958 " transform="matrix(0.75,0,0,0.75,0,0)"/>
<path style="fill:none;stroke-width:2;stroke-linecap:butt;stroke-linejoin:miter;stroke:rgb(100%,0%,0%);stroke-opacity:1;stroke-miterlimit:4;" d="M 143.802083 173.302083 L 161.098958 168.802083 " transform="matrix(0.75,0,0,0.75,0,0)"/>
<path style="fill:none;stroke-width:2;stroke-linecap:butt;stroke-linejoin:miter;stroke:rgb(0%,0%,0%);stroke-opacity:1;stroke-miterlimit:4;" d="M 161.098958 168.802083 L 178.302083 164.197917 " transform="matrix(0.75,0,0,0.75,0,0)"/>
<path style="fill:none;stroke-width:2;stroke-linecap:butt;stroke-linejoin:miter;stroke:rgb(0%,0%,0%);stroke-opacity:1;stroke-miterlimit:4;" d="M 178.302083 164.197917 L 208.598958 194.598958 " transform="matrix(0.75,0,0,0.75,0,0)"/>
<path style="fill:none;stroke-width:2;stroke-linecap:butt;stroke-linejoin:miter;stroke:rgb(0%,0%,0%);stroke-opacity:1;stroke-miterlimit:4;" d="M 208.598958 194.598958 L 250.098958 183.5 " transform="matrix(0.75,0,0,0.75,0,0)"/>
<path style="fill:none;stroke-width:2;stroke-linecap:butt;stroke-linejoin:miter;stroke:rgb(0%,0%,0%);stroke-opacity:1;stroke-miterlimit:4;" d="M 212.697917 184.598958 L 241.697917 176.901042 " transform="matrix(0.75,0,0,0.75,0,0)"/>
<path style="fill:none;stroke-width:2;stroke-linecap:butt;stroke-linejoin:miter;stroke:rgb(0%,0%,0%);stroke-opacity:1;stroke-miterlimit:4;" d="M 250.098958 183.5 L 265.598958 143.401042 " transform="matrix(0.75,0,0,0.75,0,0)"/>
<path style="fill:none;stroke-width:1;stroke-linecap:butt;stroke-linejoin:miter;stroke:rgb(0%,0%,0%);stroke-opacity:1;stroke-miterlimit:4;" d="M 262.302083 137 L 261.098958 137.802083 " transform="matrix(0.75,0,0,0.75,0,0)"/>
<path style="fill:none;stroke-width:1;stroke-linecap:butt;stroke-linejoin:miter;stroke:rgb(0%,0%,0%);stroke-opacity:1;stroke-miterlimit:4;" d="M 259 130.598958 L 256.598958 132.197917 " transform="matrix(0.75,0,0,0.75,0,0)"/>
<path style="fill:none;stroke-width:1;stroke-linecap:butt;stroke-linejoin:miter;stroke:rgb(0%,0%,0%);stroke-opacity:1;stroke-miterlimit:4;" d="M 255.697917 124.197917 L 252.098958 126.598958 " transform="matrix(0.75,0,0,0.75,0,0)"/>
<path style="fill:none;stroke-width:1;stroke-linecap:butt;stroke-linejoin:miter;stroke:rgb(0%,0%,0%);stroke-opacity:1;stroke-miterlimit:4;" d="M 252.401042 117.802083 L 247.598958 121 " transform="matrix(0.75,0,0,0.75,0,0)"/>
<path style="fill:none;stroke-width:1;stroke-linecap:butt;stroke-linejoin:miter;stroke:rgb(0%,0%,0%);stroke-opacity:1;stroke-miterlimit:4;" d="M 249.098958 111.401042 L 243.098958 115.302083 " transform="matrix(0.75,0,0,0.75,0,0)"/>
<path style="fill:none;stroke-width:1;stroke-linecap:butt;stroke-linejoin:miter;stroke:rgb(0%,0%,0%);stroke-opacity:1;stroke-miterlimit:4;" d="M 245.802083 105.098958 L 238.598958 109.697917 " transform="matrix(0.75,0,0,0.75,0,0)"/>
<path style="fill:none;stroke-width:2;stroke-linecap:butt;stroke-linejoin:miter;stroke:rgb(0%,0%,0%);stroke-opacity:1;stroke-miterlimit:4;" d="M 242.197917 107.401042 L 250 92.098958 " transform="matrix(0.75,0,0,0.75,0,0)"/>
<path style="fill:none;stroke-width:2;stroke-linecap:butt;stroke-linejoin:miter;stroke:rgb(100%,0%,0%);stroke-opacity:1;stroke-miterlimit:4;" d="M 250 92.098958 L 257.802083 76.901042 " transform="matrix(0.75,0,0,0.75,0,0)"/>
<path style="fill:none;stroke-width:2;stroke-linecap:butt;stroke-linejoin:miter;stroke:rgb(0%,0%,0%);stroke-opacity:1;stroke-miterlimit:4;" d="M 242.401042 111.697917 L 224.5 112.598958 " transform="matrix(0.75,0,0,0.75,0,0)"/>
<path style="fill:none;stroke-width:2;stroke-linecap:butt;stroke-linejoin:miter;stroke:rgb(100%,0%,0%);stroke-opacity:1;stroke-miterlimit:4;" d="M 224.5 112.598958 L 206.598958 113.5 " transform="matrix(0.75,0,0,0.75,0,0)"/>
<path style="fill:none;stroke-width:2;stroke-linecap:butt;stroke-linejoin:miter;stroke:rgb(0%,0%,0%);stroke-opacity:1;stroke-miterlimit:4;" d="M 242 103.098958 L 224.098958 104 " transform="matrix(0.75,0,0,0.75,0,0)"/>
<path style="fill:none;stroke-width:2;stroke-linecap:butt;stroke-linejoin:miter;stroke:rgb(100%,0%,0%);stroke-opacity:1;stroke-miterlimit:4;" d="M 224.098958 104 L 206.098958 104.901042 " transform="matrix(0.75,0,0,0.75,0,0)"/>
<path style="fill:none;stroke-width:2;stroke-linecap:butt;stroke-linejoin:miter;stroke:rgb(0%,0%,0%);stroke-opacity:1;stroke-miterlimit:4;" d="M 250.098958 183.5 L 263.302083 194.197917 " transform="matrix(0.75,0,0,0.75,0,0)"/>
<path style="fill:none;stroke-width:2;stroke-linecap:butt;stroke-linejoin:miter;stroke:rgb(100%,0%,0%);stroke-opacity:1;stroke-miterlimit:4;" d="M 263.302083 194.197917 L 276.5 204.901042 " transform="matrix(0.75,0,0,0.75,0,0)"/>
<path style="fill:none;stroke-width:2;stroke-linecap:butt;stroke-linejoin:miter;stroke:rgb(100%,0%,0%);stroke-opacity:1;stroke-miterlimit:4;" d="M 290.5 206 L 305 196.598958 " transform="matrix(0.75,0,0,0.75,0,0)"/>
<path style="fill:none;stroke-width:2;stroke-linecap:butt;stroke-linejoin:miter;stroke:rgb(0%,0%,0%);stroke-opacity:1;stroke-miterlimit:4;" d="M 305 196.598958 L 319.5 187.197917 " transform="matrix(0.75,0,0,0.75,0,0)"/>
<path style="fill:none;stroke-width:2;stroke-linecap:butt;stroke-linejoin:miter;stroke:rgb(0%,0%,0%);stroke-opacity:1;stroke-miterlimit:4;" d="M 319.5 187.197917 L 361 176.197917 " transform="matrix(0.75,0,0,0.75,0,0)"/>
<path style="fill:none;stroke-width:2;stroke-linecap:butt;stroke-linejoin:miter;stroke:rgb(0%,0%,0%);stroke-opacity:1;stroke-miterlimit:4;" d="M 319.5 187.197917 L 315 170.197917 " transform="matrix(0.75,0,0,0.75,0,0)"/>
<path style="fill:none;stroke-width:2;stroke-linecap:butt;stroke-linejoin:miter;stroke:rgb(0%,0%,100%);stroke-opacity:1;stroke-miterlimit:4;" d="M 315 170.197917 L 310.401042 153.197917 " transform="matrix(0.75,0,0,0.75,0,0)"/>
<path style="fill:none;stroke-width:2;stroke-linecap:butt;stroke-linejoin:miter;stroke:rgb(0%,0%,100%);stroke-opacity:1;stroke-miterlimit:4;" d="M 314.5 144.098958 L 332.197917 139.401042 " transform="matrix(0.75,0,0,0.75,0,0)"/>
<path style="fill:none;stroke-width:2;stroke-linecap:butt;stroke-linejoin:miter;stroke:rgb(0%,0%,0%);stroke-opacity:1;stroke-miterlimit:4;" d="M 332.197917 139.401042 L 349.901042 134.697917 " transform="matrix(0.75,0,0,0.75,0,0)"/>
<path style="fill:none;stroke-width:2;stroke-linecap:butt;stroke-linejoin:miter;stroke:rgb(0%,0%,0%);stroke-opacity:1;stroke-miterlimit:4;" d="M 346.197917 132.5 L 354.697917 117.802083 " transform="matrix(0.75,0,0,0.75,0,0)"/>
<path style="fill:none;stroke-width:2;stroke-linecap:butt;stroke-linejoin:miter;stroke:rgb(100%,0%,0%);stroke-opacity:1;stroke-miterlimit:4;" d="M 354.697917 117.802083 L 363.197917 103.098958 " transform="matrix(0.75,0,0,0.75,0,0)"/>
<path style="fill:none;stroke-width:2;stroke-linecap:butt;stroke-linejoin:miter;stroke:rgb(0%,0%,0%);stroke-opacity:1;stroke-miterlimit:4;" d="M 353.697917 136.802083 L 362.197917 122.098958 " transform="matrix(0.75,0,0,0.75,0,0)"/>
<path style="fill:none;stroke-width:2;stroke-linecap:butt;stroke-linejoin:miter;stroke:rgb(100%,0%,0%);stroke-opacity:1;stroke-miterlimit:4;" d="M 362.197917 122.098958 L 370.697917 107.401042 " transform="matrix(0.75,0,0,0.75,0,0)"/>
<path style="fill:none;stroke-width:2;stroke-linecap:butt;stroke-linejoin:miter;stroke:rgb(0%,0%,100%);stroke-opacity:1;stroke-miterlimit:4;" d="M 357.901042 331 L 376.401042 330.197917 " transform="matrix(0.75,0,0,0.75,0,0)"/>
<path style="fill:none;stroke-width:2;stroke-linecap:butt;stroke-linejoin:miter;stroke:rgb(0%,0%,0%);stroke-opacity:1;stroke-miterlimit:4;" d="M 376.401042 330.197917 L 394.802083 329.302083 " transform="matrix(0.75,0,0,0.75,0,0)"/>
<path style="fill:none;stroke-width:2;stroke-linecap:butt;stroke-linejoin:miter;stroke:rgb(0%,0%,100%);stroke-opacity:1;stroke-miterlimit:4;" d="M 302.401042 145.401042 L 284 144.401042 " transform="matrix(0.75,0,0,0.75,0,0)"/>
<path style="fill:none;stroke-width:2;stroke-linecap:butt;stroke-linejoin:miter;stroke:rgb(0%,0%,0%);stroke-opacity:1;stroke-miterlimit:4;" d="M 284 144.401042 L 265.598958 143.401042 " transform="matrix(0.75,0,0,0.75,0,0)"/>
<path style="fill:none;stroke-width:2;stroke-linecap:butt;stroke-linejoin:miter;stroke:rgb(0%,0%,0%);stroke-opacity:1;stroke-miterlimit:4;" d="M 310.5 319.802083 L 299.098958 361.197917 " transform="matrix(0.75,0,0,0.75,0,0)"/>
<path style="fill:none;stroke-width:2;stroke-linecap:butt;stroke-linejoin:miter;stroke:rgb(0%,0%,0%);stroke-opacity:1;stroke-miterlimit:4;" d="M 349.901042 134.697917 L 361 176.197917 " transform="matrix(0.75,0,0,0.75,0,0)"/>
<path style="fill:none;stroke-width:2;stroke-linecap:butt;stroke-linejoin:miter;stroke:rgb(0%,0%,0%);stroke-opacity:1;stroke-miterlimit:4;" d="M 76.302083 316.697917 L 113.697917 295.5 " transform="matrix(0.75,0,0,0.75,0,0)"/>
<path style="fill:none;stroke-width:2;stroke-linecap:butt;stroke-linejoin:miter;stroke:rgb(0%,0%,0%);stroke-opacity:1;stroke-miterlimit:4;" d="M 86.197917 321 L 112.302083 306.098958 " transform="matrix(0.75,0,0,0.75,0,0)"/>
<path style="fill-rule:evenodd;fill:rgb(0%,0%,0%);fill-opacity:1;stroke-width:1;stroke-linecap:butt;stroke-linejoin:miter;stroke:rgb(0%,0%,0%);stroke-opacity:1;stroke-miterlimit:4;" d="M 340.5 372.697917 L 330.697917 404.598958 L 322.901042 401.098958 Z M 340.5 372.697917 " transform="matrix(0.75,0,0,0.75,0,0)"/>
<path style="fill:none;stroke-width:1;stroke-linecap:butt;stroke-linejoin:miter;stroke:rgb(0%,0%,0%);stroke-opacity:1;stroke-miterlimit:4;" d="M 321.098958 192.598958 L 322.401042 192 " transform="matrix(0.75,0,0,0.75,0,0)"/>
<path style="fill:none;stroke-width:1;stroke-linecap:butt;stroke-linejoin:miter;stroke:rgb(0%,0%,0%);stroke-opacity:1;stroke-miterlimit:4;" d="M 322.697917 197.901042 L 325.302083 196.697917 " transform="matrix(0.75,0,0,0.75,0,0)"/>
<path style="fill:none;stroke-width:1;stroke-linecap:butt;stroke-linejoin:miter;stroke:rgb(0%,0%,0%);stroke-opacity:1;stroke-miterlimit:4;" d="M 324.302083 203.302083 L 328.197917 201.5 " transform="matrix(0.75,0,0,0.75,0,0)"/>
<path style="fill:none;stroke-width:1;stroke-linecap:butt;stroke-linejoin:miter;stroke:rgb(0%,0%,0%);stroke-opacity:1;stroke-miterlimit:4;" d="M 325.901042 208.598958 L 331.098958 206.302083 " transform="matrix(0.75,0,0,0.75,0,0)"/>
<path style="fill:none;stroke-width:1;stroke-linecap:butt;stroke-linejoin:miter;stroke:rgb(0%,0%,0%);stroke-opacity:1;stroke-miterlimit:4;" d="M 327.5 213.901042 L 334 211 " transform="matrix(0.75,0,0,0.75,0,0)"/>
<path style="fill:none;stroke-width:1;stroke-linecap:butt;stroke-linejoin:miter;stroke:rgb(0%,0%,0%);stroke-opacity:1;stroke-miterlimit:4;" d="M 329 219.302083 L 336.901042 215.802083 " transform="matrix(0.75,0,0,0.75,0,0)"/>
<path style=" stroke:none;fill-rule:nonzero;fill:rgb(100%,0%,0%);fill-opacity:1;" d="M 341.773438 222.074219 C 341.773438 220.625 342.148438 219.476562 342.898438 218.625 C 343.601562 217.824219 344.625 217.425781 345.976562 217.425781 C 347.324219 217.425781 348.375 217.824219 349.125 218.625 C 349.824219 219.476562 350.175781 220.625 350.175781 222.074219 C 350.175781 223.523438 349.800781 224.675781 349.050781 225.523438 C 348.351562 226.375 347.324219 226.800781 345.976562 226.800781 C 344.625 226.800781 343.601562 226.375 342.898438 225.523438 C 342.148438 224.675781 341.773438 223.523438 341.773438 222.074219 M 345.976562 225.75 C 346.925781 225.75 347.648438 225.449219 348.148438 224.851562 C 348.648438 224.199219 348.898438 223.273438 348.898438 222.074219 C 348.898438 220.875 348.648438 219.976562 348.148438 219.375 C 347.648438 218.773438 346.925781 218.476562 345.976562 218.476562 C 345.074219 218.476562 344.351562 218.773438 343.800781 219.375 C 343.351562 219.976562 343.125 220.875 343.125 222.074219 C 343.125 223.273438 343.351562 224.199219 343.800781 224.851562 C 344.351562 225.449219 345.074219 225.75 345.976562 225.75 "/>
<path style=" stroke:none;fill-rule:nonzero;fill:rgb(100%,0%,0%);fill-opacity:1;" d="M 350.851562 217.5 L 352.050781 217.5 L 352.050781 221.398438 L 356.699219 221.398438 L 356.699219 217.5 L 357.976562 217.5 L 357.976562 226.648438 L 356.699219 226.648438 L 356.699219 222.449219 L 352.050781 222.449219 L 352.050781 226.648438 L 350.851562 226.648438 L 350.851562 217.5 "/>
<path style=" stroke:none;fill-rule:nonzero;fill:rgb(100%,0%,0%);fill-opacity:1;" d="M 295.273438 191.324219 C 295.273438 189.875 295.625 188.75 296.324219 187.949219 C 297.023438 187.101562 298.050781 186.675781 299.398438 186.675781 C 300.75 186.675781 301.800781 187.101562 302.550781 187.949219 C 303.25 188.75 303.601562 189.875 303.601562 191.324219 C 303.601562 192.824219 303.25 194 302.550781 194.851562 C 301.800781 195.648438 300.75 196.050781 299.398438 196.050781 C 298.101562 196.050781 297.074219 195.648438 296.324219 194.851562 C 295.625 194 295.273438 192.824219 295.273438 191.324219 M 299.398438 195.074219 C 300.351562 195.074219 301.074219 194.75 301.574219 194.101562 C 302.074219 193.5 302.324219 192.574219 302.324219 191.324219 C 302.324219 190.125 302.074219 189.226562 301.574219 188.625 C 301.074219 188.023438 300.351562 187.726562 299.398438 187.726562 C 298.5 187.726562 297.800781 188.023438 297.300781 188.625 C 296.800781 189.226562 296.550781 190.125 296.550781 191.324219 C 296.550781 192.574219 296.800781 193.5 297.300781 194.101562 C 297.800781 194.75 298.5 195.074219 299.398438 195.074219 "/>
<path style=" stroke:none;fill-rule:nonzero;fill:rgb(80%,80%,0%);fill-opacity:1;" d="M 279.675781 300.375 C 279.726562 300.375 279.898438 300.449219 280.199219 300.601562 C 280.5 300.699219 280.800781 300.800781 281.101562 300.898438 C 281.398438 300.949219 281.699219 300.976562 282 300.976562 C 282.601562 300.976562 283.074219 300.824219 283.425781 300.523438 C 283.726562 300.273438 283.875 299.898438 283.875 299.398438 C 283.875 299.050781 283.800781 298.773438 283.648438 298.574219 C 283.5 298.375 283.300781 298.226562 283.050781 298.125 C 282.75 298.023438 282.398438 297.898438 282 297.75 C 281.449219 297.601562 281 297.449219 280.648438 297.300781 C 280.351562 297.148438 280.074219 296.898438 279.824219 296.550781 C 279.625 296.25 279.523438 295.824219 279.523438 295.273438 C 279.523438 294.476562 279.773438 293.851562 280.273438 293.398438 C 280.824219 292.898438 281.601562 292.648438 282.601562 292.648438 C 283.300781 292.648438 284.050781 292.824219 284.851562 293.175781 L 284.550781 294.148438 C 283.851562 293.851562 283.226562 293.699219 282.675781 293.699219 C 282.074219 293.699219 281.625 293.824219 281.324219 294.074219 C 280.976562 294.324219 280.800781 294.675781 280.800781 295.125 C 280.800781 295.425781 280.875 295.675781 281.023438 295.875 C 281.226562 296.074219 281.449219 296.226562 281.699219 296.324219 C 281.949219 296.425781 282.273438 296.550781 282.675781 296.699219 C 283.226562 296.851562 283.648438 297.023438 283.949219 297.226562 C 284.300781 297.375 284.601562 297.625 284.851562 297.976562 C 285.050781 298.324219 285.148438 298.800781 285.148438 299.398438 C 285.148438 300.25 284.875 300.898438 284.324219 301.351562 C 283.773438 301.800781 283.023438 302.023438 282.074219 302.023438 C 281.523438 302.023438 281.050781 301.976562 280.648438 301.875 C 280.25 301.726562 279.800781 301.550781 279.300781 301.351562 L 279.675781 300.375 "/>
<path style=" stroke:none;fill-rule:nonzero;fill:rgb(0%,0%,100%);fill-opacity:1;" d="M 194.324219 282.300781 L 197.324219 287.101562 C 197.523438 287.398438 197.773438 287.851562 198.074219 288.449219 C 198.375 289 198.550781 289.300781 198.601562 289.351562 L 198.601562 282.300781 L 199.800781 282.300781 L 199.800781 291.375 L 198.523438 291.375 L 195.300781 286.125 C 195.050781 285.726562 194.800781 285.273438 194.550781 284.773438 C 194.300781 284.324219 194.125 284.023438 194.023438 283.875 L 194.023438 291.375 L 192.898438 291.375 L 192.898438 282.300781 L 194.324219 282.300781 "/>
<path style=" stroke:none;fill-rule:nonzero;fill:rgb(0%,0%,100%);fill-opacity:1;" d="M 192.75 292.273438 L 194.023438 292.273438 L 194.023438 296.175781 L 198.675781 296.175781 L 198.675781 292.273438 L 199.875 292.273438 L 199.875 301.425781 L 198.675781 301.425781 L 198.675781 297.226562 L 194.023438 297.226562 L 194.023438 301.425781 L 192.75 301.425781 L 192.75 292.273438 "/>
<path style=" stroke:none;fill-rule:nonzero;fill:rgb(100%,0%,0%);fill-opacity:1;" d="M 17.023438 216.675781 L 18.300781 216.675781 L 18.300781 220.574219 L 22.949219 220.574219 L 22.949219 216.675781 L 24.148438 216.675781 L 24.148438 225.824219 L 22.949219 225.824219 L 22.949219 221.625 L 18.300781 221.625 L 18.300781 225.824219 L 17.023438 225.824219 L 17.023438 216.675781 "/>
<path style=" stroke:none;fill-rule:nonzero;fill:rgb(100%,0%,0%);fill-opacity:1;" d="M 25.273438 221.25 C 25.273438 219.800781 25.625 218.648438 26.324219 217.800781 C 27.074219 217 28.125 216.601562 29.476562 216.601562 C 30.824219 216.601562 31.851562 217 32.550781 217.800781 C 33.300781 218.648438 33.675781 219.800781 33.675781 221.25 C 33.675781 222.699219 33.300781 223.851562 32.550781 224.699219 C 31.800781 225.550781 30.773438 225.976562 29.476562 225.976562 C 28.125 225.976562 27.074219 225.550781 26.324219 224.699219 C 25.625 223.898438 25.273438 222.75 25.273438 221.25 M 29.476562 224.925781 C 30.375 224.925781 31.074219 224.625 31.574219 224.023438 C 32.074219 223.375 32.324219 222.449219 32.324219 221.25 C 32.324219 220.050781 32.074219 219.148438 31.574219 218.550781 C 31.074219 217.949219 30.375 217.648438 29.476562 217.648438 C 28.523438 217.648438 27.800781 217.949219 27.300781 218.550781 C 26.800781 219.148438 26.550781 220.050781 26.550781 221.25 C 26.550781 222.449219 26.800781 223.375 27.300781 224.023438 C 27.800781 224.625 28.523438 224.925781 29.476562 224.925781 "/>
<path style=" stroke:none;fill-rule:nonzero;fill:rgb(0%,0%,100%);fill-opacity:1;" d="M 138.300781 314.101562 L 141.300781 318.898438 C 141.5 319.199219 141.75 319.648438 142.050781 320.25 C 142.351562 320.800781 142.523438 321.101562 142.574219 321.148438 L 142.574219 314.101562 L 143.773438 314.101562 L 143.773438 323.175781 L 142.5 323.175781 L 139.351562 317.925781 C 139.101562 317.523438 138.824219 317.074219 138.523438 316.574219 C 138.273438 316.125 138.125 315.824219 138.074219 315.675781 L 138.074219 323.175781 L 136.875 323.175781 L 136.875 314.101562 L 138.300781 314.101562 "/>
<path style=" stroke:none;fill-rule:nonzero;fill:rgb(0%,0%,100%);fill-opacity:1;" d="M 144.824219 314.101562 L 146.101562 314.101562 L 146.101562 317.925781 L 150.75 317.925781 L 150.75 314.101562 L 151.949219 314.101562 L 151.949219 323.175781 L 150.75 323.175781 L 150.75 318.976562 L 146.101562 318.976562 L 146.101562 323.175781 L 144.824219 323.175781 L 144.824219 314.101562 "/>
<path style=" stroke:none;fill-rule:nonzero;fill:rgb(0%,0%,100%);fill-opacity:1;" d="M 153.074219 322.875 C 153.226562 322.476562 153.476562 322.175781 153.824219 321.976562 C 154.175781 321.773438 154.601562 321.675781 155.101562 321.675781 C 155.699219 321.675781 156.175781 321.824219 156.523438 322.125 C 156.875 322.476562 157.050781 322.949219 157.050781 323.550781 C 157.050781 324.148438 156.824219 324.726562 156.375 325.273438 C 155.925781 325.824219 155.25 326.425781 154.351562 327.074219 L 157.125 327.074219 L 157.125 327.75 L 153.074219 327.75 L 153.074219 327.148438 C 153.824219 326.648438 154.425781 326.199219 154.875 325.800781 C 155.324219 325.398438 155.648438 325.023438 155.851562 324.675781 C 156.050781 324.324219 156.148438 323.949219 156.148438 323.550781 C 156.148438 323.148438 156.074219 322.851562 155.925781 322.648438 C 155.726562 322.449219 155.449219 322.351562 155.101562 322.351562 C 154.800781 322.351562 154.523438 322.398438 154.273438 322.5 C 154.074219 322.648438 153.898438 322.875 153.75 323.175781 L 153.074219 322.875 "/>
<path style=" stroke:none;fill-rule:nonzero;fill:rgb(100%,0%,0%);fill-opacity:1;" d="M 164.625 238.351562 C 164.625 236.898438 164.976562 235.75 165.675781 234.898438 C 166.425781 234.101562 167.476562 233.699219 168.824219 233.699219 C 170.125 233.699219 171.148438 234.101562 171.898438 234.898438 C 172.601562 235.75 172.949219 236.898438 172.949219 238.351562 C 172.949219 239.851562 172.601562 241 171.898438 241.800781 C 171.148438 242.648438 170.125 243.074219 168.824219 243.074219 C 167.476562 243.074219 166.425781 242.648438 165.675781 241.800781 C 164.976562 241 164.625 239.851562 164.625 238.351562 M 168.824219 242.023438 C 169.726562 242.023438 170.425781 241.726562 170.925781 241.125 C 171.425781 240.476562 171.675781 239.550781 171.675781 238.351562 C 171.675781 237.148438 171.425781 236.25 170.925781 235.648438 C 170.425781 235.050781 169.726562 234.75 168.824219 234.75 C 167.875 234.75 167.148438 235.050781 166.648438 235.648438 C 166.148438 236.25 165.898438 237.148438 165.898438 238.351562 C 165.898438 239.601562 166.148438 240.523438 166.648438 241.125 C 167.148438 241.726562 167.875 242.023438 168.824219 242.023438 "/>
<path style=" stroke:none;fill-rule:nonzero;fill:rgb(0%,0%,100%);fill-opacity:1;" d="M 261.898438 243.898438 L 264.898438 248.699219 C 265.101562 249.050781 265.351562 249.5 265.648438 250.050781 C 266 250.648438 266.175781 250.949219 266.175781 250.949219 L 266.175781 243.898438 L 267.375 243.898438 L 267.375 252.976562 L 266.175781 252.976562 L 262.949219 247.726562 C 262.699219 247.324219 262.449219 246.875 262.199219 246.375 C 261.898438 245.925781 261.726562 245.625 261.675781 245.476562 L 261.675781 252.976562 L 260.476562 252.976562 L 260.476562 243.898438 L 261.898438 243.898438 "/>
<path style=" stroke:none;fill-rule:nonzero;fill:rgb(100%,0%,0%);fill-opacity:1;" d="M 212.773438 211.875 C 212.773438 210.425781 213.148438 209.300781 213.898438 208.5 C 214.601562 207.699219 215.625 207.300781 216.976562 207.300781 C 218.324219 207.300781 219.375 207.699219 220.125 208.5 C 220.824219 209.300781 221.175781 210.425781 221.175781 211.875 C 221.175781 213.375 220.800781 214.550781 220.050781 215.398438 C 219.351562 216.199219 218.324219 216.601562 216.976562 216.601562 C 215.625 216.601562 214.601562 216.199219 213.898438 215.398438 C 213.148438 214.550781 212.773438 213.375 212.773438 211.875 M 216.976562 215.625 C 217.925781 215.625 218.648438 215.300781 219.148438 214.648438 C 219.648438 214.050781 219.898438 213.125 219.898438 211.875 C 219.898438 210.726562 219.648438 209.851562 219.148438 209.25 C 218.648438 208.601562 217.925781 208.273438 216.976562 208.273438 C 216.074219 208.273438 215.375 208.574219 214.875 209.175781 C 214.375 209.773438 214.125 210.675781 214.125 211.875 C 214.125 213.125 214.375 214.050781 214.875 214.648438 C 215.375 215.300781 216.074219 215.625 216.976562 215.625 "/>
<path style=" stroke:none;fill-rule:nonzero;fill:rgb(100%,0%,0%);fill-opacity:1;" d="M 90.226562 126.898438 L 91.425781 126.898438 L 91.425781 130.800781 L 96.074219 130.800781 L 96.074219 126.898438 L 97.351562 126.898438 L 97.351562 136.050781 L 96.074219 136.050781 L 96.074219 131.773438 L 91.425781 131.773438 L 91.425781 136.050781 L 90.226562 136.050781 L 90.226562 126.898438 "/>
<path style=" stroke:none;fill-rule:nonzero;fill:rgb(100%,0%,0%);fill-opacity:1;" d="M 98.476562 131.476562 C 98.476562 129.976562 98.824219 128.824219 99.523438 128.023438 C 100.226562 127.226562 101.25 126.824219 102.601562 126.824219 C 103.949219 126.824219 105 127.226562 105.75 128.023438 C 106.449219 128.824219 106.800781 129.976562 106.800781 131.476562 C 106.800781 132.925781 106.449219 134.074219 105.75 134.925781 C 105 135.773438 103.949219 136.199219 102.601562 136.199219 C 101.300781 136.199219 100.273438 135.773438 99.523438 134.925781 C 98.824219 134.074219 98.476562 132.925781 98.476562 131.476562 M 102.601562 135.148438 C 103.550781 135.148438 104.273438 134.824219 104.773438 134.175781 C 105.273438 133.574219 105.523438 132.675781 105.523438 131.476562 C 105.523438 130.273438 105.273438 129.375 104.773438 128.773438 C 104.273438 128.125 103.550781 127.800781 102.601562 127.800781 C 101.699219 127.800781 101 128.101562 100.5 128.699219 C 100 129.300781 99.75 130.226562 99.75 131.476562 C 99.75 132.675781 100 133.574219 100.5 134.175781 C 101 134.824219 101.699219 135.148438 102.601562 135.148438 "/>
<path style=" stroke:none;fill-rule:nonzero;fill:rgb(100%,0%,0%);fill-opacity:1;" d="M 192.148438 51.898438 C 192.148438 50.449219 192.5 49.300781 193.199219 48.449219 C 193.949219 47.648438 195 47.25 196.351562 47.25 C 197.699219 47.25 198.726562 47.648438 199.425781 48.449219 C 200.175781 49.300781 200.550781 50.449219 200.550781 51.898438 C 200.550781 53.351562 200.175781 54.5 199.425781 55.351562 C 198.675781 56.199219 197.648438 56.625 196.351562 56.625 C 195 56.625 193.949219 56.199219 193.199219 55.351562 C 192.5 54.550781 192.148438 53.398438 192.148438 51.898438 M 196.351562 55.574219 C 197.25 55.574219 197.949219 55.273438 198.449219 54.675781 C 198.949219 54.023438 199.199219 53.101562 199.199219 51.898438 C 199.199219 50.699219 198.949219 49.800781 198.449219 49.199219 C 197.949219 48.601562 197.25 48.300781 196.351562 48.300781 C 195.398438 48.300781 194.675781 48.601562 194.175781 49.199219 C 193.675781 49.800781 193.425781 50.699219 193.425781 51.898438 C 193.425781 53.101562 193.675781 54.023438 194.175781 54.675781 C 194.675781 55.273438 195.398438 55.574219 196.351562 55.574219 "/>
<path style=" stroke:none;fill-rule:nonzero;fill:rgb(100%,0%,0%);fill-opacity:1;" d="M 201.148438 47.324219 L 202.425781 47.324219 L 202.425781 51.226562 L 207.074219 51.226562 L 207.074219 47.324219 L 208.273438 47.324219 L 208.273438 56.476562 L 207.074219 56.476562 L 207.074219 52.273438 L 202.425781 52.273438 L 202.425781 56.476562 L 201.148438 56.476562 L 201.148438 47.324219 "/>
<path style=" stroke:none;fill-rule:nonzero;fill:rgb(100%,0%,0%);fill-opacity:1;" d="M 145.351562 82.199219 C 145.351562 80.75 145.699219 79.625 146.398438 78.824219 C 147.148438 77.976562 148.175781 77.550781 149.476562 77.550781 C 150.824219 77.550781 151.875 77.976562 152.625 78.824219 C 153.324219 79.625 153.675781 80.75 153.675781 82.199219 C 153.675781 83.699219 153.324219 84.875 152.625 85.726562 C 151.875 86.523438 150.824219 86.925781 149.476562 86.925781 C 148.175781 86.925781 147.148438 86.523438 146.398438 85.726562 C 145.699219 84.875 145.351562 83.699219 145.351562 82.199219 M 149.476562 85.875 C 150.425781 85.875 151.148438 85.574219 151.648438 84.976562 C 152.148438 84.375 152.398438 83.449219 152.398438 82.199219 C 152.398438 81 152.148438 80.101562 151.648438 79.5 C 151.148438 78.898438 150.425781 78.601562 149.476562 78.601562 C 148.574219 78.601562 147.875 78.898438 147.375 79.5 C 146.875 80.101562 146.625 81 146.625 82.199219 C 146.625 83.449219 146.875 84.375 147.375 84.976562 C 147.875 85.574219 148.574219 85.875 149.476562 85.875 "/>
<path style=" stroke:none;fill-rule:nonzero;fill:rgb(100%,0%,0%);fill-opacity:1;" d="M 208.425781 157.949219 C 208.425781 156.5 208.773438 155.351562 209.476562 154.5 C 210.226562 153.699219 211.273438 153.300781 212.625 153.300781 C 213.976562 153.300781 215 153.699219 215.699219 154.5 C 216.449219 155.351562 216.824219 156.5 216.824219 157.949219 C 216.824219 159.398438 216.449219 160.550781 215.699219 161.398438 C 214.949219 162.25 213.925781 162.675781 212.625 162.675781 C 211.273438 162.675781 210.226562 162.25 209.476562 161.398438 C 208.773438 160.601562 208.425781 159.449219 208.425781 157.949219 M 212.625 161.625 C 213.523438 161.625 214.226562 161.324219 214.726562 160.726562 C 215.226562 160.074219 215.476562 159.148438 215.476562 157.949219 C 215.476562 156.75 215.226562 155.851562 214.726562 155.25 C 214.226562 154.648438 213.523438 154.351562 212.625 154.351562 C 211.675781 154.351562 210.949219 154.648438 210.449219 155.25 C 209.949219 155.851562 209.699219 156.75 209.699219 157.949219 C 209.699219 159.148438 209.949219 160.074219 210.449219 160.726562 C 210.949219 161.324219 211.675781 161.625 212.625 161.625 "/>
<path style=" stroke:none;fill-rule:nonzero;fill:rgb(0%,0%,100%);fill-opacity:1;" d="M 229.351562 104.699219 L 232.273438 109.574219 C 232.476562 109.875 232.75 110.324219 233.101562 110.925781 C 233.398438 111.476562 233.550781 111.773438 233.550781 111.824219 L 233.550781 104.699219 L 234.824219 104.699219 L 234.824219 113.851562 L 233.550781 113.851562 L 230.324219 108.601562 C 230.074219 108.148438 229.824219 107.699219 229.574219 107.25 C 229.324219 106.800781 229.148438 106.5 229.050781 106.351562 L 229.050781 113.851562 L 227.851562 113.851562 L 227.851562 104.699219 L 229.351562 104.699219 "/>
<path style=" stroke:none;fill-rule:nonzero;fill:rgb(100%,0%,0%);fill-opacity:1;" d="M 274.425781 73.125 C 274.425781 71.675781 274.773438 70.550781 275.476562 69.75 C 276.226562 68.949219 277.273438 68.550781 278.625 68.550781 C 279.925781 68.550781 280.949219 68.949219 281.699219 69.75 C 282.398438 70.550781 282.75 71.675781 282.75 73.125 C 282.75 74.625 282.398438 75.800781 281.699219 76.648438 C 280.949219 77.449219 279.925781 77.851562 278.625 77.851562 C 277.273438 77.851562 276.226562 77.449219 275.476562 76.648438 C 274.773438 75.800781 274.425781 74.625 274.425781 73.125 M 278.625 76.875 C 279.523438 76.875 280.226562 76.550781 280.726562 75.898438 C 281.226562 75.300781 281.476562 74.375 281.476562 73.125 C 281.476562 71.976562 281.226562 71.101562 280.726562 70.5 C 280.226562 69.851562 279.523438 69.523438 278.625 69.523438 C 277.675781 69.523438 276.949219 69.824219 276.449219 70.425781 C 275.949219 71.023438 275.699219 71.925781 275.699219 73.125 C 275.699219 74.375 275.949219 75.300781 276.449219 75.898438 C 276.949219 76.550781 277.675781 76.875 278.625 76.875 "/>
<path style=" stroke:none;fill-rule:nonzero;fill:rgb(0%,0%,0%);fill-opacity:1;" d="M 238.5 304.273438 L 239.699219 304.273438 L 239.699219 308.101562 L 244.425781 308.101562 L 244.425781 304.273438 L 245.625 304.273438 L 245.625 313.351562 L 244.425781 313.351562 L 244.425781 309.148438 L 239.699219 309.148438 L 239.699219 313.351562 L 238.5 313.351562 L 238.5 304.273438 "/>
<path style=" stroke:none;fill-rule:nonzero;fill:rgb(0%,0%,0%);fill-opacity:1;" d="M 249.148438 165.300781 L 250.351562 165.300781 L 250.351562 169.199219 L 255 169.199219 L 255 165.300781 L 256.273438 165.300781 L 256.273438 174.375 L 255 174.375 L 255 170.175781 L 250.351562 170.175781 L 250.351562 174.375 L 249.148438 174.375 L 249.148438 165.300781 "/>
</g>
</svg>
