<?xml version="1.0" encoding="UTF-8"?>
<svg xmlns="http://www.w3.org/2000/svg" xmlns:xlink="http://www.w3.org/1999/xlink" width="375pt" height="375pt" viewBox="0 0 375 375" version="1.1">
<g id="surface211">
<rect x="0" y="0" width="375" height="375" style="fill:rgb(100%,100%,100%);fill-opacity:1;stroke:none;"/>
<path style="fill:none;stroke-width:2;stroke-linecap:butt;stroke-linejoin:miter;stroke:rgb(0%,0%,0%);stroke-opacity:1;stroke-miterlimit:4;" d="M 22.697917 287 L 55.197917 312.901042 " transform="matrix(0.75,0,0,0.75,0,0)"/>
<path style="fill:none;stroke-width:2;stroke-linecap:butt;stroke-linejoin:miter;stroke:rgb(0%,0%,0%);stroke-opacity:1;stroke-miterlimit:4;" d="M 26.598958 282.098958 L 56.302083 305.802083 " transform="matrix(0.75,0,0,0.75,0,0)"/>
<path style="fill:none;stroke-width:2;stroke-linecap:butt;stroke-linejoin:miter;stroke:rgb(0%,0%,0%);stroke-opacity:1;stroke-miterlimit:4;" d="M 55.197917 312.901042 L 93.901042 297.697917 " transform="matrix(0.75,0,0,0.75,0,0)"/>
<path style="fill:none;stroke-width:2;stroke-linecap:butt;stroke-linejoin:miter;stroke:rgb(0%,0%,0%);stroke-opacity:1;stroke-miterlimit:4;" d="M 93.901042 297.697917 L 100.098958 256.697917 " transform="matrix(0.75,0,0,0.75,0,0)"/>
<path style="fill:none;stroke-width:2;stroke-linecap:butt;stroke-linejoin:miter;stroke:rgb(0%,0%,0%);stroke-opacity:1;stroke-miterlimit:4;" d="M 100.598958 295.098958 L 105.697917 261.197917 " transform="matrix(0.75,0,0,0.75,0,0)"/>
<path style="fill:none;stroke-width:2;stroke-linecap:butt;stroke-linejoin:miter;stroke:rgb(0%,0%,0%);stroke-opacity:1;stroke-miterlimit:4;" d="M 100.098958 256.697917 L 67.598958 230.802083 " transform="matrix(0.75,0,0,0.75,0,0)"/>
<path style="fill:none;stroke-width:2;stroke-linecap:butt;stroke-linejoin:miter;stroke:rgb(0%,0%,0%);stroke-opacity:1;stroke-miterlimit:4;" d="M 68.098958 227.197917 L 51.302083 233.802083 " transform="matrix(0.75,0,0,0.75,0,0)"/>
<path style="fill:none;stroke-width:2;stroke-linecap:butt;stroke-linejoin:miter;stroke:rgb(100%,0%,0%);stroke-opacity:1;stroke-miterlimit:4;" d="M 51.302083 233.802083 L 34.598958 240.401042 " transform="matrix(0.75,0,0,0.75,0,0)"/>
<path style="fill:none;stroke-width:2;stroke-linecap:butt;stroke-linejoin:miter;stroke:rgb(0%,0%,0%);stroke-opacity:1;stroke-miterlimit:4;" d="M 70.401042 233 L 53.598958 239.598958 " transform="matrix(0.75,0,0,0.75,0,0)"/>
<path style="fill:none;stroke-width:2;stroke-linecap:butt;stroke-linejoin:miter;stroke:rgb(100%,0%,0%);stroke-opacity:1;stroke-miterlimit:4;" d="M 53.598958 239.598958 L 36.802083 246.197917 " transform="matrix(0.75,0,0,0.75,0,0)"/>
<path style="fill:none;stroke-width:2;stroke-linecap:butt;stroke-linejoin:miter;stroke:rgb(0%,0%,0%);stroke-opacity:1;stroke-miterlimit:4;" d="M 67.598958 230.802083 L 70.098958 214 " transform="matrix(0.75,0,0,0.75,0,0)"/>
<path style="fill:none;stroke-width:2;stroke-linecap:butt;stroke-linejoin:miter;stroke:rgb(100%,0%,0%);stroke-opacity:1;stroke-miterlimit:4;" d="M 70.098958 214 L 72.697917 197.197917 " transform="matrix(0.75,0,0,0.75,0,0)"/>
<path style="fill:none;stroke-width:2;stroke-linecap:butt;stroke-linejoin:miter;stroke:rgb(0%,0%,0%);stroke-opacity:1;stroke-miterlimit:4;" d="M 100.098958 256.697917 L 116.5 250.197917 " transform="matrix(0.75,0,0,0.75,0,0)"/>
<path style="fill:none;stroke-width:2;stroke-linecap:butt;stroke-linejoin:miter;stroke:rgb(0%,0%,100%);stroke-opacity:1;stroke-miterlimit:4;" d="M 116.5 250.197917 L 132.901042 243.802083 " transform="matrix(0.75,0,0,0.75,0,0)"/>
<path style="fill:none;stroke-width:2;stroke-linecap:butt;stroke-linejoin:miter;stroke:rgb(0%,0%,100%);stroke-opacity:1;stroke-miterlimit:4;" d="M 144.5 234.302083 L 154.598958 221.598958 " transform="matrix(0.75,0,0,0.75,0,0)"/>
<path style="fill:none;stroke-width:2;stroke-linecap:butt;stroke-linejoin:miter;stroke:rgb(0%,0%,0%);stroke-opacity:1;stroke-miterlimit:4;" d="M 154.598958 221.598958 L 164.598958 209 " transform="matrix(0.75,0,0,0.75,0,0)"/>
<path style="fill:none;stroke-width:2;stroke-linecap:butt;stroke-linejoin:miter;stroke:rgb(0%,0%,0%);stroke-opacity:1;stroke-miterlimit:4;" d="M 168.098958 211.802083 L 166 193.302083 " transform="matrix(0.75,0,0,0.75,0,0)"/>
<path style="fill:none;stroke-width:2;stroke-linecap:butt;stroke-linejoin:miter;stroke:rgb(100%,0%,0%);stroke-opacity:1;stroke-miterlimit:4;" d="M 166 193.302083 L 163.901042 174.901042 " transform="matrix(0.75,0,0,0.75,0,0)"/>
<path style="fill:none;stroke-width:2;stroke-linecap:butt;stroke-linejoin:miter;stroke:rgb(0%,0%,0%);stroke-opacity:1;stroke-miterlimit:4;" d="M 161.901042 212.5 L 159.802083 194 " transform="matrix(0.75,0,0,0.75,0,0)"/>
<path style="fill:none;stroke-width:2;stroke-linecap:butt;stroke-linejoin:miter;stroke:rgb(100%,0%,0%);stroke-opacity:1;stroke-miterlimit:4;" d="M 159.802083 194 L 157.697917 175.598958 " transform="matrix(0.75,0,0,0.75,0,0)"/>
<path style="fill:none;stroke-width:2;stroke-linecap:butt;stroke-linejoin:miter;stroke:rgb(0%,0%,0%);stroke-opacity:1;stroke-miterlimit:4;" d="M 164.598958 209 L 197.098958 234.901042 " transform="matrix(0.75,0,0,0.75,0,0)"/>
<path style="fill-rule:evenodd;fill:rgb(0%,0%,0%);fill-opacity:1;stroke-width:0.5;stroke-linecap:butt;stroke-linejoin:miter;stroke:rgb(0%,0%,0%);stroke-opacity:1;stroke-miterlimit:4;" d="M 197.098958 234.901042 L 214 231.5 L 214.302083 234.598958 Z M 197.098958 234.901042 " transform="matrix(0.75,0,0,0.75,0,0)"/>
<path style="fill-rule:evenodd;fill:rgb(0%,0%,100%);fill-opacity:1;stroke-width:0.5;stroke-linecap:butt;stroke-linejoin:miter;stroke:rgb(0%,0%,100%);stroke-opacity:1;stroke-miterlimit:4;" d="M 214 231.5 L 231.5 234.197917 L 230.802083 228 Z M 214 231.5 " transform="matrix(0.75,0,0,0.75,0,0)"/>
<path style="fill-rule:evenodd;fill:rgb(0%,0%,100%);fill-opacity:1;stroke-width:0.5;stroke-linecap:butt;stroke-linejoin:miter;stroke:rgb(0%,0%,100%);stroke-opacity:1;stroke-miterlimit:4;" d="M 214 231.5 L 214.302083 234.598958 L 231.5 234.197917 Z M 214 231.5 " transform="matrix(0.75,0,0,0.75,0,0)"/>
<path style="fill:none;stroke-width:2;stroke-linecap:butt;stroke-linejoin:miter;stroke:rgb(0%,0%,100%);stroke-opacity:1;stroke-miterlimit:4;" d="M 243.697917 237.5 L 253.401042 250.598958 " transform="matrix(0.75,0,0,0.75,0,0)"/>
<path style="fill:none;stroke-width:2;stroke-linecap:butt;stroke-linejoin:miter;stroke:rgb(0%,0%,0%);stroke-opacity:1;stroke-miterlimit:4;" d="M 253.401042 250.598958 L 263 263.697917 " transform="matrix(0.75,0,0,0.75,0,0)"/>
<path style="fill:none;stroke-width:2;stroke-linecap:butt;stroke-linejoin:miter;stroke:rgb(0%,0%,0%);stroke-opacity:1;stroke-miterlimit:4;" d="M 260.901042 260.802083 L 253.802083 277 " transform="matrix(0.75,0,0,0.75,0,0)"/>
<path style="fill:none;stroke-width:2;stroke-linecap:butt;stroke-linejoin:miter;stroke:rgb(100%,0%,0%);stroke-opacity:1;stroke-miterlimit:4;" d="M 253.802083 277 L 246.802083 293.197917 " transform="matrix(0.75,0,0,0.75,0,0)"/>
<path style="fill:none;stroke-width:2;stroke-linecap:butt;stroke-linejoin:miter;stroke:rgb(0%,0%,0%);stroke-opacity:1;stroke-miterlimit:4;" d="M 266.598958 263.302083 L 259.5 279.5 " transform="matrix(0.75,0,0,0.75,0,0)"/>
<path style="fill:none;stroke-width:2;stroke-linecap:butt;stroke-linejoin:miter;stroke:rgb(100%,0%,0%);stroke-opacity:1;stroke-miterlimit:4;" d="M 259.5 279.5 L 252.5 295.697917 " transform="matrix(0.75,0,0,0.75,0,0)"/>
<path style="fill:none;stroke-width:2;stroke-linecap:butt;stroke-linejoin:miter;stroke:rgb(0%,0%,0%);stroke-opacity:1;stroke-miterlimit:4;" d="M 263 263.697917 L 304.302083 259.098958 " transform="matrix(0.75,0,0,0.75,0,0)"/>
<path style="fill:none;stroke-width:2;stroke-linecap:butt;stroke-linejoin:miter;stroke:rgb(0%,0%,0%);stroke-opacity:1;stroke-miterlimit:4;" d="M 304.302083 259.098958 L 314 272.197917 " transform="matrix(0.75,0,0,0.75,0,0)"/>
<path style="fill:none;stroke-width:2;stroke-linecap:butt;stroke-linejoin:miter;stroke:rgb(0%,0%,100%);stroke-opacity:1;stroke-miterlimit:4;" d="M 314 272.197917 L 323.598958 285.197917 " transform="matrix(0.75,0,0,0.75,0,0)"/>
<path style="fill:none;stroke-width:2;stroke-linecap:butt;stroke-linejoin:miter;stroke:rgb(0%,0%,0%);stroke-opacity:1;stroke-miterlimit:4;" d="M 311.5 258.302083 L 319.197917 268.697917 " transform="matrix(0.75,0,0,0.75,0,0)"/>
<path style="fill:none;stroke-width:2;stroke-linecap:butt;stroke-linejoin:miter;stroke:rgb(0%,0%,100%);stroke-opacity:1;stroke-miterlimit:4;" d="M 319.197917 268.697917 L 326.901042 279.197917 " transform="matrix(0.75,0,0,0.75,0,0)"/>
<path style="fill:none;stroke-width:2;stroke-linecap:butt;stroke-linejoin:miter;stroke:rgb(0%,0%,100%);stroke-opacity:1;stroke-miterlimit:4;" d="M 334.802083 291.802083 L 349.098958 290.197917 " transform="matrix(0.75,0,0,0.75,0,0)"/>
<path style="fill:none;stroke-width:2;stroke-linecap:butt;stroke-linejoin:miter;stroke:rgb(100%,0%,0%);stroke-opacity:1;stroke-miterlimit:4;" d="M 349.098958 290.197917 L 363.5 288.598958 " transform="matrix(0.75,0,0,0.75,0,0)"/>
<path style="fill:none;stroke-width:2;stroke-linecap:butt;stroke-linejoin:miter;stroke:rgb(100%,0%,0%);stroke-opacity:1;stroke-miterlimit:4;" d="M 375.802083 295.401042 L 385.302083 308.302083 " transform="matrix(0.75,0,0,0.75,0,0)"/>
<path style="fill:none;stroke-width:2;stroke-linecap:butt;stroke-linejoin:miter;stroke:rgb(0%,0%,0%);stroke-opacity:1;stroke-miterlimit:4;" d="M 385.302083 308.302083 L 394.901042 321.302083 " transform="matrix(0.75,0,0,0.75,0,0)"/>
<path style="fill:none;stroke-width:2;stroke-linecap:butt;stroke-linejoin:miter;stroke:rgb(0%,0%,0%);stroke-opacity:1;stroke-miterlimit:4;" d="M 394.901042 321.302083 L 436.197917 316.598958 " transform="matrix(0.75,0,0,0.75,0,0)"/>
<path style="fill:none;stroke-width:2;stroke-linecap:butt;stroke-linejoin:miter;stroke:rgb(0%,0%,0%);stroke-opacity:1;stroke-miterlimit:4;" d="M 438.302083 319.5 L 445.302083 303.401042 " transform="matrix(0.75,0,0,0.75,0,0)"/>
<path style="fill:none;stroke-width:2;stroke-linecap:butt;stroke-linejoin:miter;stroke:rgb(100%,0%,0%);stroke-opacity:1;stroke-miterlimit:4;" d="M 445.302083 303.401042 L 452.401042 287.302083 " transform="matrix(0.75,0,0,0.75,0,0)"/>
<path style="fill:none;stroke-width:2;stroke-linecap:butt;stroke-linejoin:miter;stroke:rgb(0%,0%,0%);stroke-opacity:1;stroke-miterlimit:4;" d="M 432.598958 317 L 439.598958 300.901042 " transform="matrix(0.75,0,0,0.75,0,0)"/>
<path style="fill:none;stroke-width:2;stroke-linecap:butt;stroke-linejoin:miter;stroke:rgb(100%,0%,0%);stroke-opacity:1;stroke-miterlimit:4;" d="M 439.598958 300.901042 L 446.697917 284.802083 " transform="matrix(0.75,0,0,0.75,0,0)"/>
<path style="fill:none;stroke-width:2;stroke-linecap:butt;stroke-linejoin:miter;stroke:rgb(0%,0%,0%);stroke-opacity:1;stroke-miterlimit:4;" d="M 436.197917 316.598958 L 445.802083 329.697917 " transform="matrix(0.75,0,0,0.75,0,0)"/>
<path style="fill:none;stroke-width:2;stroke-linecap:butt;stroke-linejoin:miter;stroke:rgb(100%,0%,0%);stroke-opacity:1;stroke-miterlimit:4;" d="M 445.802083 329.697917 L 455.401042 342.697917 " transform="matrix(0.75,0,0,0.75,0,0)"/>
<path style="fill:none;stroke-width:2;stroke-linecap:butt;stroke-linejoin:miter;stroke:rgb(0%,0%,0%);stroke-opacity:1;stroke-miterlimit:4;" d="M 304.302083 259.098958 L 320.901042 221 " transform="matrix(0.75,0,0,0.75,0,0)"/>
<path style="fill:none;stroke-width:2;stroke-linecap:butt;stroke-linejoin:miter;stroke:rgb(0%,0%,0%);stroke-opacity:1;stroke-miterlimit:4;" d="M 320.901042 221 L 299.901042 185.197917 " transform="matrix(0.75,0,0,0.75,0,0)"/>
<path style="fill:none;stroke-width:2;stroke-linecap:butt;stroke-linejoin:miter;stroke:rgb(0%,0%,0%);stroke-opacity:1;stroke-miterlimit:4;" d="M 324 213.901042 L 307.598958 185.901042 " transform="matrix(0.75,0,0,0.75,0,0)"/>
<path style="fill:none;stroke-width:2;stroke-linecap:butt;stroke-linejoin:miter;stroke:rgb(0%,0%,0%);stroke-opacity:1;stroke-miterlimit:4;" d="M 299.901042 185.197917 L 311.098958 172.5 " transform="matrix(0.75,0,0,0.75,0,0)"/>
<path style="fill:none;stroke-width:2;stroke-linecap:butt;stroke-linejoin:miter;stroke:rgb(80%,80%,0%);stroke-opacity:1;stroke-miterlimit:4;" d="M 311.098958 172.5 L 322.302083 159.901042 " transform="matrix(0.75,0,0,0.75,0,0)"/>
<path style="fill:none;stroke-width:2;stroke-linecap:butt;stroke-linejoin:miter;stroke:rgb(80%,80%,0%);stroke-opacity:1;stroke-miterlimit:4;" d="M 332.598958 156.401042 L 349.098958 163.5 " transform="matrix(0.75,0,0,0.75,0,0)"/>
<path style="fill:none;stroke-width:2;stroke-linecap:butt;stroke-linejoin:miter;stroke:rgb(0%,0%,0%);stroke-opacity:1;stroke-miterlimit:4;" d="M 349.098958 163.5 L 365.5 170.697917 " transform="matrix(0.75,0,0,0.75,0,0)"/>
<path style="fill:none;stroke-width:2;stroke-linecap:butt;stroke-linejoin:miter;stroke:rgb(0%,0%,0%);stroke-opacity:1;stroke-miterlimit:4;" d="M 365.5 170.697917 L 380.5 161.901042 " transform="matrix(0.75,0,0,0.75,0,0)"/>
<path style="fill:none;stroke-width:2;stroke-linecap:butt;stroke-linejoin:miter;stroke:rgb(0%,0%,100%);stroke-opacity:1;stroke-miterlimit:4;" d="M 380.5 161.901042 L 395.5 153.098958 " transform="matrix(0.75,0,0,0.75,0,0)"/>
<path style="fill:none;stroke-width:2;stroke-linecap:butt;stroke-linejoin:miter;stroke:rgb(0%,0%,0%);stroke-opacity:1;stroke-miterlimit:4;" d="M 365.5 170.697917 L 363.901042 187.802083 " transform="matrix(0.75,0,0,0.75,0,0)"/>
<path style="fill:none;stroke-width:2;stroke-linecap:butt;stroke-linejoin:miter;stroke:rgb(0%,0%,100%);stroke-opacity:1;stroke-miterlimit:4;" d="M 363.901042 187.802083 L 362.197917 204.802083 " transform="matrix(0.75,0,0,0.75,0,0)"/>
<path style="fill:none;stroke-width:2;stroke-linecap:butt;stroke-linejoin:miter;stroke:rgb(0%,0%,0%);stroke-opacity:1;stroke-miterlimit:4;" d="M 358.901042 174.598958 L 357.401042 189.401042 " transform="matrix(0.75,0,0,0.75,0,0)"/>
<path style="fill:none;stroke-width:2;stroke-linecap:butt;stroke-linejoin:miter;stroke:rgb(0%,0%,100%);stroke-opacity:1;stroke-miterlimit:4;" d="M 357.401042 189.401042 L 356 204.197917 " transform="matrix(0.75,0,0,0.75,0,0)"/>
<path style="fill:none;stroke-width:2;stroke-linecap:butt;stroke-linejoin:miter;stroke:rgb(0%,0%,0%);stroke-opacity:1;stroke-miterlimit:4;" d="M 197.098958 234.901042 L 171.197917 267.401042 " transform="matrix(0.75,0,0,0.75,0,0)"/>
<path style="fill:none;stroke-width:2;stroke-linecap:butt;stroke-linejoin:miter;stroke:rgb(0%,0%,0%);stroke-opacity:1;stroke-miterlimit:4;" d="M 171.197917 267.401042 L 168.598958 284.302083 " transform="matrix(0.75,0,0,0.75,0,0)"/>
<path style="fill:none;stroke-width:2;stroke-linecap:butt;stroke-linejoin:miter;stroke:rgb(80%,80%,0%);stroke-opacity:1;stroke-miterlimit:4;" d="M 168.598958 284.302083 L 166.098958 301.197917 " transform="matrix(0.75,0,0,0.75,0,0)"/>
<path style="fill:none;stroke-width:2;stroke-linecap:butt;stroke-linejoin:miter;stroke:rgb(80%,80%,0%);stroke-opacity:1;stroke-miterlimit:4;" d="M 159.901042 310.5 L 143.098958 317.098958 " transform="matrix(0.75,0,0,0.75,0,0)"/>
<path style="fill:none;stroke-width:2;stroke-linecap:butt;stroke-linejoin:miter;stroke:rgb(0%,0%,0%);stroke-opacity:1;stroke-miterlimit:4;" d="M 143.098958 317.098958 L 126.302083 323.598958 " transform="matrix(0.75,0,0,0.75,0,0)"/>
<path style="fill:none;stroke-width:2;stroke-linecap:butt;stroke-linejoin:miter;stroke:rgb(0%,0%,0%);stroke-opacity:1;stroke-miterlimit:4;" d="M 126.302083 323.598958 L 93.901042 297.697917 " transform="matrix(0.75,0,0,0.75,0,0)"/>
<path style="fill:none;stroke-width:2;stroke-linecap:butt;stroke-linejoin:miter;stroke:rgb(0%,0%,0%);stroke-opacity:1;stroke-miterlimit:4;" d="M 171.197917 267.401042 L 157.901042 256.802083 " transform="matrix(0.75,0,0,0.75,0,0)"/>
<path style="fill:none;stroke-width:2;stroke-linecap:butt;stroke-linejoin:miter;stroke:rgb(0%,0%,100%);stroke-opacity:1;stroke-miterlimit:4;" d="M 157.901042 256.802083 L 144.598958 246.197917 " transform="matrix(0.75,0,0,0.75,0,0)"/>
<path style="fill:none;stroke-width:2;stroke-linecap:butt;stroke-linejoin:miter;stroke:rgb(0%,0%,100%);stroke-opacity:1;stroke-miterlimit:4;" d="M 355.697917 213.401042 L 338.302083 217.197917 " transform="matrix(0.75,0,0,0.75,0,0)"/>
<path style="fill:none;stroke-width:2;stroke-linecap:butt;stroke-linejoin:miter;stroke:rgb(0%,0%,0%);stroke-opacity:1;stroke-miterlimit:4;" d="M 338.302083 217.197917 L 320.901042 221 " transform="matrix(0.75,0,0,0.75,0,0)"/>
<path style="fill:none;stroke-width:1;stroke-linecap:butt;stroke-linejoin:miter;stroke:rgb(0%,0%,0%);stroke-opacity:1;stroke-miterlimit:4;" d="M 174.401042 268.5 L 174.098958 269 " transform="matrix(0.75,0,0,0.75,0,0)"/>
<path style="fill:none;stroke-width:1;stroke-linecap:butt;stroke-linejoin:miter;stroke:rgb(0%,0%,0%);stroke-opacity:1;stroke-miterlimit:4;" d="M 177.598958 269.5 L 177.098958 270.697917 " transform="matrix(0.75,0,0,0.75,0,0)"/>
<path style="fill:none;stroke-width:1;stroke-linecap:butt;stroke-linejoin:miter;stroke:rgb(0%,0%,0%);stroke-opacity:1;stroke-miterlimit:4;" d="M 180.802083 270.598958 L 180 272.302083 " transform="matrix(0.75,0,0,0.75,0,0)"/>
<path style="fill:none;stroke-width:1;stroke-linecap:butt;stroke-linejoin:miter;stroke:rgb(0%,0%,0%);stroke-opacity:1;stroke-miterlimit:4;" d="M 184 271.598958 L 183 273.901042 " transform="matrix(0.75,0,0,0.75,0,0)"/>
<path style="fill:none;stroke-width:1;stroke-linecap:butt;stroke-linejoin:miter;stroke:rgb(0%,0%,0%);stroke-opacity:1;stroke-miterlimit:4;" d="M 187.197917 272.697917 L 185.901042 275.5 " transform="matrix(0.75,0,0,0.75,0,0)"/>
<path style="fill:none;stroke-width:1;stroke-linecap:butt;stroke-linejoin:miter;stroke:rgb(0%,0%,0%);stroke-opacity:1;stroke-miterlimit:4;" d="M 190.401042 273.697917 L 188.901042 277.197917 " transform="matrix(0.75,0,0,0.75,0,0)"/>
<path style="fill:none;stroke-width:1;stroke-linecap:butt;stroke-linejoin:miter;stroke:rgb(0%,0%,0%);stroke-opacity:1;stroke-miterlimit:4;" d="M 193.598958 274.802083 L 191.802083 278.802083 " transform="matrix(0.75,0,0,0.75,0,0)"/>
<path style="fill:none;stroke-width:1;stroke-linecap:butt;stroke-linejoin:miter;stroke:rgb(0%,0%,0%);stroke-opacity:1;stroke-miterlimit:4;" d="M 196.802083 275.802083 L 194.802083 280.401042 " transform="matrix(0.75,0,0,0.75,0,0)"/>
<path style="fill:none;stroke-width:1;stroke-linecap:butt;stroke-linejoin:miter;stroke:rgb(0%,0%,0%);stroke-opacity:1;stroke-miterlimit:4;" d="M 200 276.901042 L 197.697917 282 " transform="matrix(0.75,0,0,0.75,0,0)"/>
<path style="fill:none;stroke-width:1;stroke-linecap:butt;stroke-linejoin:miter;stroke:rgb(0%,0%,0%);stroke-opacity:1;stroke-miterlimit:4;" d="M 203.197917 278 L 200.697917 283.697917 " transform="matrix(0.75,0,0,0.75,0,0)"/>
<path style="fill:none;stroke-width:2;stroke-linecap:butt;stroke-linejoin:miter;stroke:rgb(0%,0%,0%);stroke-opacity:1;stroke-miterlimit:4;" d="M 53.598958 311.598958 L 55.197917 312.901042 L 57.098958 312.197917 " transform="matrix(0.75,0,0,0.75,0,0)"/>
<path style="fill:none;stroke-width:2;stroke-linecap:butt;stroke-linejoin:miter;stroke:rgb(0%,0%,0%);stroke-opacity:1;stroke-miterlimit:4;" d="M 69.197917 232.098958 L 67.598958 230.802083 L 67.697917 229.901042 " transform="matrix(0.75,0,0,0.75,0,0)"/>
<path style="fill:none;stroke-width:2;stroke-linecap:butt;stroke-linejoin:miter;stroke:rgb(0%,0%,0%);stroke-opacity:1;stroke-miterlimit:4;" d="M 164.098958 209.697917 L 164.598958 209 L 166.302083 210.302083 " transform="matrix(0.75,0,0,0.75,0,0)"/>
<path style="fill:none;stroke-width:2;stroke-linecap:butt;stroke-linejoin:miter;stroke:rgb(0%,0%,0%);stroke-opacity:1;stroke-miterlimit:4;" d="M 195.5 233.598958 L 197.098958 234.901042 L 195.802083 236.598958 " transform="matrix(0.75,0,0,0.75,0,0)"/>
<path style="fill:none;stroke-width:2;stroke-linecap:butt;stroke-linejoin:miter;stroke:rgb(0%,0%,0%);stroke-opacity:1;stroke-miterlimit:4;" d="M 262.598958 263.098958 L 263 263.697917 L 265.098958 263.5 " transform="matrix(0.75,0,0,0.75,0,0)"/>
<path style="fill:none;stroke-width:2;stroke-linecap:butt;stroke-linejoin:miter;stroke:rgb(0%,0%,0%);stroke-opacity:1;stroke-miterlimit:4;" d="M 394.401042 320.598958 L 394.901042 321.302083 L 397 321 " transform="matrix(0.75,0,0,0.75,0,0)"/>
<path style="fill:none;stroke-width:2;stroke-linecap:butt;stroke-linejoin:miter;stroke:rgb(0%,0%,0%);stroke-opacity:1;stroke-miterlimit:4;" d="M 434.098958 316.901042 L 436.197917 316.598958 L 436.697917 317.302083 " transform="matrix(0.75,0,0,0.75,0,0)"/>
<path style="fill:none;stroke-width:2;stroke-linecap:butt;stroke-linejoin:miter;stroke:rgb(0%,0%,0%);stroke-opacity:1;stroke-miterlimit:4;" d="M 300.901042 187 L 299.901042 185.197917 L 300.5 184.598958 " transform="matrix(0.75,0,0,0.75,0,0)"/>
<path style="fill:none;stroke-width:2;stroke-linecap:butt;stroke-linejoin:miter;stroke:rgb(0%,0%,0%);stroke-opacity:1;stroke-miterlimit:4;" d="M 127.197917 323.302083 L 126.302083 323.598958 L 124.697917 322.302083 " transform="matrix(0.75,0,0,0.75,0,0)"/>
<path style=" stroke:none;fill-rule:nonzero;fill:rgb(100%,0%,0%);fill-opacity:1;" d="M 17.625 184.5 C 17.625 183.050781 17.976562 181.949219 18.675781 181.199219 C 19.375 180.398438 20.375 180 21.675781 180 C 22.976562 180 23.976562 180.398438 24.675781 181.199219 C 25.375 181.949219 25.726562 183.050781 25.726562 184.5 C 25.726562 185.898438 25.375 187.023438 24.675781 187.875 C 23.976562 188.675781 22.976562 189.074219 21.675781 189.074219 C 20.375 189.074219 19.375 188.675781 18.675781 187.875 C 17.976562 187.023438 17.625 185.898438 17.625 184.5 M 21.675781 188.023438 C 22.574219 188.023438 23.273438 187.726562 23.773438 187.125 C 24.273438 186.523438 24.523438 185.648438 24.523438 184.5 C 24.523438 183.351562 24.273438 182.476562 23.773438 181.875 C 23.273438 181.273438 22.574219 180.976562 21.675781 180.976562 C 20.773438 180.976562 20.074219 181.273438 19.574219 181.875 C 19.125 182.425781 18.898438 183.300781 18.898438 184.5 C 18.898438 185.648438 19.125 186.523438 19.574219 187.125 C 20.074219 187.726562 20.773438 188.023438 21.675781 188.023438 "/>
<path style=" stroke:none;fill-rule:nonzero;fill:rgb(100%,0%,0%);fill-opacity:1;" d="M 51.300781 142.273438 C 51.300781 140.875 51.648438 139.773438 52.351562 138.976562 C 53.050781 138.226562 54.050781 137.851562 55.351562 137.851562 C 56.648438 137.851562 57.648438 138.226562 58.351562 138.976562 C 59.050781 139.773438 59.398438 140.875 59.398438 142.273438 C 59.398438 143.726562 59.050781 144.851562 58.351562 145.648438 C 57.648438 146.449219 56.648438 146.851562 55.351562 146.851562 C 54.050781 146.851562 53.050781 146.449219 52.351562 145.648438 C 51.648438 144.851562 51.300781 143.726562 51.300781 142.273438 M 55.351562 145.875 C 56.25 145.875 56.925781 145.574219 57.375 144.976562 C 57.875 144.375 58.125 143.476562 58.125 142.273438 C 58.125 141.125 57.875 140.273438 57.375 139.726562 C 56.925781 139.125 56.25 138.824219 55.351562 138.824219 C 54.449219 138.824219 53.75 139.101562 53.25 139.648438 C 52.75 140.25 52.5 141.125 52.5 142.273438 C 52.5 143.476562 52.75 144.375 53.25 144.976562 C 53.75 145.574219 54.449219 145.875 55.351562 145.875 "/>
<path style=" stroke:none;fill-rule:nonzero;fill:rgb(100%,0%,0%);fill-opacity:1;" d="M 60.75 137.925781 L 61.949219 137.925781 L 61.949219 141.675781 L 66.449219 141.675781 L 66.449219 137.925781 L 67.648438 137.925781 L 67.648438 146.699219 L 66.449219 146.699219 L 66.449219 142.648438 L 61.949219 142.648438 L 61.949219 146.699219 L 60.75 146.699219 L 60.75 137.925781 "/>
<path style=" stroke:none;fill-rule:nonzero;fill:rgb(0%,0%,100%);fill-opacity:1;" d="M 102.074219 176.699219 L 105 181.425781 C 105.199219 181.726562 105.449219 182.148438 105.75 182.699219 C 106.050781 183.25 106.199219 183.550781 106.199219 183.601562 L 106.199219 176.699219 L 107.398438 176.699219 L 107.398438 185.550781 L 106.199219 185.550781 L 103.050781 180.449219 C 102.851562 180.050781 102.601562 179.625 102.300781 179.175781 C 102.050781 178.675781 101.898438 178.375 101.851562 178.273438 L 101.851562 185.550781 L 100.726562 185.550781 L 100.726562 176.699219 L 102.074219 176.699219 "/>
<path style=" stroke:none;fill-rule:nonzero;fill:rgb(100%,0%,0%);fill-opacity:1;" d="M 115.949219 125.851562 C 115.949219 124.449219 116.300781 123.351562 117 122.550781 C 117.699219 121.75 118.699219 121.351562 120 121.351562 C 121.300781 121.351562 122.300781 121.75 123 122.550781 C 123.699219 123.351562 124.050781 124.449219 124.050781 125.851562 C 124.050781 127.25 123.699219 128.375 123 129.226562 C 122.300781 130.023438 121.300781 130.425781 120 130.425781 C 118.699219 130.425781 117.699219 130.023438 117 129.226562 C 116.300781 128.425781 115.949219 127.300781 115.949219 125.851562 M 120 129.449219 C 120.898438 129.449219 121.574219 129.148438 122.023438 128.550781 C 122.523438 127.949219 122.773438 127.050781 122.773438 125.851562 C 122.773438 124.699219 122.523438 123.824219 122.023438 123.226562 C 121.574219 122.625 120.898438 122.324219 120 122.324219 C 119.101562 122.324219 118.398438 122.625 117.898438 123.226562 C 117.398438 123.824219 117.148438 124.699219 117.148438 125.851562 C 117.148438 127.050781 117.398438 127.949219 117.898438 128.550781 C 118.398438 129.148438 119.101562 129.449219 120 129.449219 "/>
<path style=" stroke:none;fill-rule:nonzero;fill:rgb(0%,0%,100%);fill-opacity:1;" d="M 176.851562 168.300781 L 179.699219 172.949219 C 179.898438 173.300781 180.148438 173.75 180.449219 174.300781 C 180.75 174.851562 180.925781 175.125 180.976562 175.125 L 180.976562 168.300781 L 182.101562 168.300781 L 182.101562 177.148438 L 180.898438 177.148438 L 177.824219 172.050781 C 177.574219 171.648438 177.324219 171.199219 177.074219 170.699219 C 176.824219 170.25 176.648438 169.976562 176.550781 169.875 L 176.550781 177.148438 L 175.425781 177.148438 L 175.425781 168.300781 L 176.851562 168.300781 "/>
<path style=" stroke:none;fill-rule:nonzero;fill:rgb(0%,0%,100%);fill-opacity:1;" d="M 183.824219 168.300781 L 185.023438 168.300781 L 185.023438 172.050781 L 189.523438 172.050781 L 189.523438 168.300781 L 190.726562 168.300781 L 190.726562 177.148438 L 189.523438 177.148438 L 189.523438 173.023438 L 185.023438 173.023438 L 185.023438 177.148438 L 183.824219 177.148438 L 183.824219 168.300781 "/>
<path style=" stroke:none;fill-rule:nonzero;fill:rgb(100%,0%,0%);fill-opacity:1;" d="M 180.75 226.351562 C 180.75 224.949219 181.101562 223.851562 181.800781 223.050781 C 182.5 222.25 183.5 221.851562 184.800781 221.851562 C 186.101562 221.851562 187.101562 222.25 187.800781 223.050781 C 188.5 223.851562 188.851562 224.949219 188.851562 226.351562 C 188.851562 227.800781 188.5 228.925781 187.800781 229.726562 C 187.101562 230.523438 186.101562 230.925781 184.800781 230.925781 C 183.5 230.925781 182.5 230.523438 181.800781 229.726562 C 181.101562 228.925781 180.75 227.800781 180.75 226.351562 M 184.800781 229.949219 C 185.699219 229.949219 186.398438 229.648438 186.898438 229.050781 C 187.398438 228.449219 187.648438 227.550781 187.648438 226.351562 C 187.648438 225.199219 187.398438 224.324219 186.898438 223.726562 C 186.398438 223.175781 185.699219 222.898438 184.800781 222.898438 C 183.898438 222.898438 183.199219 223.175781 182.699219 223.726562 C 182.25 224.324219 182.023438 225.199219 182.023438 226.351562 C 182.023438 227.550781 182.25 228.449219 182.699219 229.050781 C 183.199219 229.648438 183.898438 229.949219 184.800781 229.949219 "/>
<path style=" stroke:none;fill-rule:nonzero;fill:rgb(0%,0%,100%);fill-opacity:1;" d="M 244.800781 214.949219 L 247.648438 219.601562 C 247.851562 219.949219 248.101562 220.398438 248.398438 220.949219 C 248.699219 221.5 248.875 221.773438 248.925781 221.773438 L 248.925781 214.949219 L 250.050781 214.949219 L 250.050781 223.800781 L 248.851562 223.800781 L 245.773438 218.699219 C 245.523438 218.300781 245.273438 217.875 245.023438 217.425781 C 244.773438 216.925781 244.601562 216.625 244.5 216.523438 L 244.5 223.800781 L 243.375 223.800781 L 243.375 214.949219 L 244.800781 214.949219 "/>
<path style=" stroke:none;fill-rule:nonzero;fill:rgb(100%,0%,0%);fill-opacity:1;" d="M 273.601562 215.925781 C 273.601562 214.523438 273.949219 213.425781 274.648438 212.625 C 275.351562 211.824219 276.351562 211.425781 277.648438 211.425781 C 279 211.425781 280 211.824219 280.648438 212.625 C 281.351562 213.425781 281.699219 214.523438 281.699219 215.925781 C 281.699219 217.324219 281.351562 218.449219 280.648438 219.300781 C 279.949219 220.101562 278.949219 220.5 277.648438 220.5 C 276.398438 220.5 275.398438 220.101562 274.648438 219.300781 C 273.949219 218.5 273.601562 217.375 273.601562 215.925781 M 277.648438 219.523438 C 278.550781 219.523438 279.25 219.226562 279.75 218.625 C 280.25 217.976562 280.5 217.074219 280.5 215.925781 C 280.5 214.773438 280.25 213.898438 279.75 213.300781 C 279.25 212.699219 278.550781 212.398438 277.648438 212.398438 C 276.75 212.398438 276.074219 212.699219 275.625 213.300781 C 275.125 213.898438 274.875 214.773438 274.875 215.925781 C 274.875 217.125 275.125 218.023438 275.625 218.625 C 276.074219 219.226562 276.75 219.523438 277.648438 219.523438 "/>
<path style=" stroke:none;fill-rule:nonzero;fill:rgb(100%,0%,0%);fill-opacity:1;" d="M 335.550781 208.949219 C 335.550781 207.550781 335.898438 206.449219 336.601562 205.648438 C 337.300781 204.851562 338.300781 204.449219 339.601562 204.449219 C 340.898438 204.449219 341.898438 204.851562 342.601562 205.648438 C 343.300781 206.449219 343.648438 207.550781 343.648438 208.949219 C 343.648438 210.398438 343.300781 211.523438 342.601562 212.324219 C 341.898438 213.125 340.898438 213.523438 339.601562 213.523438 C 338.300781 213.523438 337.300781 213.125 336.601562 212.324219 C 335.898438 211.523438 335.550781 210.398438 335.550781 208.949219 M 339.601562 212.550781 C 340.5 212.550781 341.199219 212.25 341.699219 211.648438 C 342.148438 211.050781 342.375 210.148438 342.375 208.949219 C 342.375 207.800781 342.148438 206.925781 341.699219 206.324219 C 341.199219 205.726562 340.5 205.425781 339.601562 205.425781 C 338.699219 205.425781 338 205.726562 337.5 206.324219 C 337.050781 206.925781 336.824219 207.800781 336.824219 208.949219 C 336.824219 210.148438 337.050781 211.050781 337.5 211.648438 C 338 212.25 338.699219 212.550781 339.601562 212.550781 "/>
<path style=" stroke:none;fill-rule:nonzero;fill:rgb(100%,0%,0%);fill-opacity:1;" d="M 341.550781 262.574219 C 341.550781 261.175781 341.898438 260.074219 342.601562 259.273438 C 343.300781 258.476562 344.300781 258.074219 345.601562 258.074219 C 346.898438 258.074219 347.898438 258.476562 348.601562 259.273438 C 349.300781 260.074219 349.648438 261.175781 349.648438 262.574219 C 349.648438 263.976562 349.300781 265.101562 348.601562 265.949219 C 347.898438 266.75 346.898438 267.148438 345.601562 267.148438 C 344.300781 267.148438 343.300781 266.75 342.601562 265.949219 C 341.898438 265.148438 341.550781 264.023438 341.550781 262.574219 M 345.601562 266.175781 C 346.5 266.175781 347.199219 265.875 347.699219 265.273438 C 348.199219 264.625 348.449219 263.726562 348.449219 262.574219 C 348.449219 261.425781 348.199219 260.550781 347.699219 259.949219 C 347.199219 259.351562 346.5 259.050781 345.601562 259.050781 C 344.699219 259.050781 344.023438 259.351562 343.574219 259.949219 C 343.074219 260.550781 342.824219 261.425781 342.824219 262.574219 C 342.824219 263.773438 343.074219 264.675781 343.574219 265.273438 C 344.023438 265.875 344.699219 266.175781 345.601562 266.175781 "/>
<path style=" stroke:none;fill-rule:nonzero;fill:rgb(100%,0%,0%);fill-opacity:1;" d="M 351.074219 258.148438 L 352.273438 258.148438 L 352.273438 261.898438 L 356.773438 261.898438 L 356.773438 258.148438 L 357.976562 258.148438 L 357.976562 267 L 356.773438 267 L 356.773438 262.949219 L 352.273438 262.949219 L 352.273438 267 L 351.074219 267 L 351.074219 258.148438 "/>
<path style=" stroke:none;fill-rule:nonzero;fill:rgb(80%,80%,0%);fill-opacity:1;" d="M 243.074219 118.648438 C 243.175781 118.648438 243.351562 118.699219 243.601562 118.800781 C 243.898438 118.949219 244.199219 119.050781 244.5 119.101562 C 244.800781 119.148438 245.101562 119.175781 245.398438 119.175781 C 245.949219 119.175781 246.375 119.050781 246.675781 118.800781 C 247.023438 118.550781 247.199219 118.175781 247.199219 117.675781 C 247.199219 117.375 247.125 117.125 246.976562 116.925781 C 246.773438 116.726562 246.550781 116.574219 246.300781 116.476562 C 246.050781 116.324219 245.726562 116.199219 245.324219 116.101562 C 244.824219 115.949219 244.398438 115.800781 244.050781 115.648438 C 243.75 115.5 243.5 115.273438 243.300781 114.976562 C 243.050781 114.625 242.925781 114.199219 242.925781 113.699219 C 242.925781 112.949219 243.175781 112.351562 243.675781 111.898438 C 244.175781 111.449219 244.925781 111.226562 245.925781 111.226562 C 246.625 111.226562 247.351562 111.375 248.101562 111.675781 L 247.875 112.648438 C 247.175781 112.351562 246.550781 112.199219 246 112.199219 C 245.398438 112.199219 244.949219 112.324219 244.648438 112.574219 C 244.351562 112.773438 244.199219 113.101562 244.199219 113.550781 C 244.199219 113.851562 244.273438 114.101562 244.425781 114.300781 C 244.574219 114.5 244.773438 114.648438 245.023438 114.75 C 245.273438 114.851562 245.601562 114.949219 246 115.050781 C 246.550781 115.25 246.976562 115.425781 247.273438 115.574219 C 247.574219 115.726562 247.851562 115.976562 248.101562 116.324219 C 248.300781 116.675781 248.398438 117.125 248.398438 117.675781 C 248.398438 118.523438 248.125 119.148438 247.574219 119.550781 C 247.074219 120 246.351562 120.226562 245.398438 120.226562 C 244.898438 120.226562 244.449219 120.175781 244.050781 120.074219 C 243.648438 119.925781 243.226562 119.773438 242.773438 119.625 L 243.074219 118.648438 "/>
<path style=" stroke:none;fill-rule:nonzero;fill:rgb(0%,0%,100%);fill-opacity:1;" d="M 299.023438 107.851562 L 301.949219 112.5 C 302.148438 112.851562 302.398438 113.300781 302.699219 113.851562 C 303 114.398438 303.148438 114.699219 303.148438 114.75 L 303.148438 107.851562 L 304.351562 107.851562 L 304.351562 116.699219 L 303.148438 116.699219 L 300.074219 111.601562 C 299.824219 111.199219 299.574219 110.773438 299.324219 110.324219 C 299.074219 109.824219 298.898438 109.523438 298.800781 109.425781 L 298.800781 116.699219 L 297.675781 116.699219 L 297.675781 107.851562 L 299.023438 107.851562 "/>
<path style=" stroke:none;fill-rule:nonzero;fill:rgb(0%,0%,100%);fill-opacity:1;" d="M 306.074219 107.851562 L 307.199219 107.851562 L 307.199219 111.601562 L 311.773438 111.601562 L 311.773438 107.851562 L 312.976562 107.851562 L 312.976562 116.699219 L 311.773438 116.699219 L 311.773438 112.574219 L 307.199219 112.574219 L 307.199219 116.699219 L 306.074219 116.699219 L 306.074219 107.851562 "/>
<path style=" stroke:none;fill-rule:nonzero;fill:rgb(0%,0%,100%);fill-opacity:1;" d="M 314.699219 116.398438 C 314.800781 116 315.023438 115.699219 315.375 115.5 C 315.726562 115.300781 316.125 115.199219 316.574219 115.199219 C 317.175781 115.199219 317.648438 115.351562 318 115.648438 C 318.300781 116 318.449219 116.449219 318.449219 117 C 318.449219 117.601562 318.25 118.148438 317.851562 118.648438 C 317.398438 119.199219 316.75 119.800781 315.898438 120.449219 L 318.601562 120.449219 L 318.601562 121.125 L 314.625 121.125 L 314.625 120.523438 C 315.375 120.023438 315.949219 119.574219 316.351562 119.175781 C 316.800781 118.824219 317.125 118.476562 317.324219 118.125 C 317.523438 117.773438 317.625 117.425781 317.625 117.074219 C 317.625 116.675781 317.550781 116.375 317.398438 116.175781 C 317.199219 115.976562 316.925781 115.875 316.574219 115.875 C 316.273438 115.875 316.023438 115.925781 315.824219 116.023438 C 315.625 116.175781 315.449219 116.398438 315.300781 116.699219 L 314.699219 116.398438 "/>
<path style=" stroke:none;fill-rule:nonzero;fill:rgb(0%,0%,100%);fill-opacity:1;" d="M 269.175781 154.648438 L 272.023438 159.300781 C 272.226562 159.601562 272.476562 160.023438 272.773438 160.574219 C 273.125 161.175781 273.300781 161.476562 273.300781 161.476562 L 273.300781 154.648438 L 274.425781 154.648438 L 274.425781 163.5 L 273.226562 163.5 L 270.148438 158.324219 C 269.898438 157.925781 269.648438 157.5 269.398438 157.050781 C 269.148438 156.601562 269 156.300781 268.949219 156.148438 L 268.949219 163.5 L 267.75 163.5 L 267.75 154.648438 L 269.175781 154.648438 "/>
<path style=" stroke:none;fill-rule:nonzero;fill:rgb(80%,80%,0%);fill-opacity:1;" d="M 121.273438 234.375 C 121.324219 234.425781 121.5 234.5 121.800781 234.601562 C 122.050781 234.699219 122.324219 234.800781 122.625 234.898438 C 122.925781 234.949219 123.226562 234.976562 123.523438 234.976562 C 124.074219 234.976562 124.523438 234.851562 124.875 234.601562 C 125.175781 234.300781 125.324219 233.925781 125.324219 233.476562 C 125.324219 233.125 125.25 232.851562 125.101562 232.648438 C 124.949219 232.449219 124.75 232.300781 124.5 232.199219 C 124.25 232.101562 123.925781 232 123.523438 231.898438 C 122.976562 231.699219 122.550781 231.523438 122.25 231.375 C 121.949219 231.226562 121.675781 231 121.425781 230.699219 C 121.226562 230.398438 121.125 229.976562 121.125 229.425781 C 121.125 228.675781 121.375 228.074219 121.875 227.625 C 122.375 227.175781 123.125 226.949219 124.125 226.949219 C 124.773438 226.949219 125.5 227.125 126.300781 227.476562 L 126 228.375 C 125.300781 228.125 124.675781 228 124.125 228 C 123.574219 228 123.148438 228.101562 122.851562 228.300781 C 122.5 228.550781 122.324219 228.875 122.324219 229.273438 C 122.324219 229.574219 122.425781 229.824219 122.625 230.023438 C 122.773438 230.226562 122.976562 230.375 123.226562 230.476562 C 123.425781 230.574219 123.726562 230.699219 124.125 230.851562 C 124.675781 231 125.101562 231.175781 125.398438 231.375 C 125.75 231.523438 126.023438 231.773438 126.226562 232.125 C 126.476562 232.425781 126.601562 232.875 126.601562 233.476562 C 126.601562 234.273438 126.324219 234.898438 125.773438 235.351562 C 125.226562 235.800781 124.5 236.023438 123.601562 236.023438 C 123.050781 236.023438 122.574219 235.949219 122.175781 235.800781 C 121.824219 235.699219 121.398438 235.550781 120.898438 235.351562 L 121.273438 234.375 "/>
<path style=" stroke:none;fill-rule:nonzero;fill:rgb(0%,0%,0%);fill-opacity:1;" d="M 153.523438 208.574219 L 154.726562 208.574219 L 154.726562 212.324219 L 159.226562 212.324219 L 159.226562 208.574219 L 160.425781 208.574219 L 160.425781 217.425781 L 159.226562 217.425781 L 159.226562 213.375 L 154.726562 213.375 L 154.726562 217.425781 L 153.523438 217.425781 L 153.523438 208.574219 "/>
</g>
</svg>
