<?xml version="1.0" encoding="UTF-8"?>
<svg xmlns="http://www.w3.org/2000/svg" xmlns:xlink="http://www.w3.org/1999/xlink" width="375pt" height="375pt" viewBox="0 0 375 375" version="1.1">
<g id="surface351">
<rect x="0" y="0" width="375" height="375" style="fill:rgb(100%,100%,100%);fill-opacity:1;stroke:none;"/>
<path style="fill:none;stroke-width:2;stroke-linecap:butt;stroke-linejoin:miter;stroke:rgb(100%,0%,0%);stroke-opacity:1;stroke-miterlimit:4;" d="M 174.5 312.401042 L 186.697917 297.901042 " transform="matrix(0.75,0,0,0.75,0,0)"/>
<path style="fill:none;stroke-width:2;stroke-linecap:butt;stroke-linejoin:miter;stroke:rgb(0%,0%,0%);stroke-opacity:1;stroke-miterlimit:4;" d="M 186.697917 297.901042 L 198.901042 283.401042 " transform="matrix(0.75,0,0,0.75,0,0)"/>
<path style="fill:none;stroke-width:2;stroke-linecap:butt;stroke-linejoin:miter;stroke:rgb(100%,0%,0%);stroke-opacity:1;stroke-miterlimit:4;" d="M 182 318.697917 L 194.197917 304.197917 " transform="matrix(0.75,0,0,0.75,0,0)"/>
<path style="fill:none;stroke-width:2;stroke-linecap:butt;stroke-linejoin:miter;stroke:rgb(0%,0%,0%);stroke-opacity:1;stroke-miterlimit:4;" d="M 194.197917 304.197917 L 206.401042 289.802083 " transform="matrix(0.75,0,0,0.75,0,0)"/>
<path style="fill:none;stroke-width:2;stroke-linecap:butt;stroke-linejoin:miter;stroke:rgb(0%,0%,0%);stroke-opacity:1;stroke-miterlimit:4;" d="M 202.598958 286.598958 L 195.802083 267.697917 " transform="matrix(0.75,0,0,0.75,0,0)"/>
<path style="fill:none;stroke-width:2;stroke-linecap:butt;stroke-linejoin:miter;stroke:rgb(0%,0%,100%);stroke-opacity:1;stroke-miterlimit:4;" d="M 195.802083 267.697917 L 189 248.901042 " transform="matrix(0.75,0,0,0.75,0,0)"/>
<path style="fill:none;stroke-width:2;stroke-linecap:butt;stroke-linejoin:miter;stroke:rgb(0%,0%,100%);stroke-opacity:1;stroke-miterlimit:4;" d="M 179 239.098958 L 158.197917 235.401042 " transform="matrix(0.75,0,0,0.75,0,0)"/>
<path style="fill:none;stroke-width:2;stroke-linecap:butt;stroke-linejoin:miter;stroke:rgb(0%,0%,0%);stroke-opacity:1;stroke-miterlimit:4;" d="M 158.197917 235.401042 L 137.5 231.697917 " transform="matrix(0.75,0,0,0.75,0,0)"/>
<path style="fill:none;stroke-width:2;stroke-linecap:butt;stroke-linejoin:miter;stroke:rgb(0%,0%,0%);stroke-opacity:1;stroke-miterlimit:4;" d="M 137.5 231.697917 L 120.697917 185.401042 " transform="matrix(0.75,0,0,0.75,0,0)"/>
<path style="fill:none;stroke-width:2;stroke-linecap:butt;stroke-linejoin:miter;stroke:rgb(0%,0%,0%);stroke-opacity:1;stroke-miterlimit:4;" d="M 120.697917 185.401042 L 72.302083 176.802083 " transform="matrix(0.75,0,0,0.75,0,0)"/>
<path style="fill:none;stroke-width:2;stroke-linecap:butt;stroke-linejoin:miter;stroke:rgb(0%,0%,0%);stroke-opacity:1;stroke-miterlimit:4;" d="M 72.302083 176.802083 L 59.901042 191.5 " transform="matrix(0.75,0,0,0.75,0,0)"/>
<path style="fill:none;stroke-width:2;stroke-linecap:butt;stroke-linejoin:miter;stroke:rgb(0%,0%,100%);stroke-opacity:1;stroke-miterlimit:4;" d="M 59.901042 191.5 L 47.5 206.197917 " transform="matrix(0.75,0,0,0.75,0,0)"/>
<path style="fill:none;stroke-width:2;stroke-linecap:butt;stroke-linejoin:miter;stroke:rgb(0%,0%,100%);stroke-opacity:1;stroke-miterlimit:4;" d="M 43.697917 223 L 50.5 241.802083 " transform="matrix(0.75,0,0,0.75,0,0)"/>
<path style="fill:none;stroke-width:2;stroke-linecap:butt;stroke-linejoin:miter;stroke:rgb(0%,0%,0%);stroke-opacity:1;stroke-miterlimit:4;" d="M 50.5 241.802083 L 57.302083 260.697917 " transform="matrix(0.75,0,0,0.75,0,0)"/>
<path style="fill:none;stroke-width:2;stroke-linecap:butt;stroke-linejoin:miter;stroke:rgb(0%,0%,0%);stroke-opacity:1;stroke-miterlimit:4;" d="M 57.302083 260.697917 L 105.802083 269.302083 " transform="matrix(0.75,0,0,0.75,0,0)"/>
<path style="fill-rule:evenodd;fill:rgb(0%,0%,0%);fill-opacity:1;stroke-width:1;stroke-linecap:butt;stroke-linejoin:miter;stroke:rgb(0%,0%,0%);stroke-opacity:1;stroke-miterlimit:4;" d="M 251.098958 295.197917 L 201.802083 291.401042 L 203.5 281.697917 Z M 251.098958 295.197917 " transform="matrix(0.75,0,0,0.75,0,0)"/>
<path style="fill:none;stroke-width:2;stroke-linecap:butt;stroke-linejoin:miter;stroke:rgb(0%,0%,0%);stroke-opacity:1;stroke-miterlimit:4;" d="M 251.098958 295.197917 L 267.802083 341.5 " transform="matrix(0.75,0,0,0.75,0,0)"/>
<path style="fill:none;stroke-width:2;stroke-linecap:butt;stroke-linejoin:miter;stroke:rgb(0%,0%,0%);stroke-opacity:1;stroke-miterlimit:4;" d="M 267.802083 341.5 L 316.302083 350.098958 " transform="matrix(0.75,0,0,0.75,0,0)"/>
<path style="fill:none;stroke-width:2;stroke-linecap:butt;stroke-linejoin:miter;stroke:rgb(0%,0%,0%);stroke-opacity:1;stroke-miterlimit:4;" d="M 316.302083 350.098958 L 348 312.5 " transform="matrix(0.75,0,0,0.75,0,0)"/>
<path style="fill:none;stroke-width:2;stroke-linecap:butt;stroke-linejoin:miter;stroke:rgb(0%,0%,0%);stroke-opacity:1;stroke-miterlimit:4;" d="M 348 312.5 L 331.197917 266.197917 " transform="matrix(0.75,0,0,0.75,0,0)"/>
<path style="fill:none;stroke-width:2;stroke-linecap:butt;stroke-linejoin:miter;stroke:rgb(0%,0%,0%);stroke-opacity:1;stroke-miterlimit:4;" d="M 331.197917 266.197917 L 310.5 262.5 " transform="matrix(0.75,0,0,0.75,0,0)"/>
<path style="fill:none;stroke-width:2;stroke-linecap:butt;stroke-linejoin:miter;stroke:rgb(0%,0%,100%);stroke-opacity:1;stroke-miterlimit:4;" d="M 310.5 262.5 L 289.697917 258.802083 " transform="matrix(0.75,0,0,0.75,0,0)"/>
<path style="fill:none;stroke-width:2;stroke-linecap:butt;stroke-linejoin:miter;stroke:rgb(0%,0%,100%);stroke-opacity:1;stroke-miterlimit:4;" d="M 289.697917 253.302083 L 307.098958 242.401042 " transform="matrix(0.75,0,0,0.75,0,0)"/>
<path style="fill:none;stroke-width:2;stroke-linecap:butt;stroke-linejoin:miter;stroke:rgb(0%,0%,0%);stroke-opacity:1;stroke-miterlimit:4;" d="M 307.098958 242.401042 L 324.598958 231.598958 " transform="matrix(0.75,0,0,0.75,0,0)"/>
<path style="fill:none;stroke-width:2;stroke-linecap:butt;stroke-linejoin:miter;stroke:rgb(0%,0%,0%);stroke-opacity:1;stroke-miterlimit:4;" d="M 319.697917 231.197917 L 321.098958 211.098958 " transform="matrix(0.75,0,0,0.75,0,0)"/>
<path style="fill:none;stroke-width:2;stroke-linecap:butt;stroke-linejoin:miter;stroke:rgb(100%,0%,0%);stroke-opacity:1;stroke-miterlimit:4;" d="M 321.098958 211.098958 L 322.5 191 " transform="matrix(0.75,0,0,0.75,0,0)"/>
<path style="fill:none;stroke-width:2;stroke-linecap:butt;stroke-linejoin:miter;stroke:rgb(0%,0%,0%);stroke-opacity:1;stroke-miterlimit:4;" d="M 329.5 231.901042 L 330.901042 211.802083 " transform="matrix(0.75,0,0,0.75,0,0)"/>
<path style="fill:none;stroke-width:2;stroke-linecap:butt;stroke-linejoin:miter;stroke:rgb(100%,0%,0%);stroke-opacity:1;stroke-miterlimit:4;" d="M 330.901042 211.802083 L 332.401042 191.802083 " transform="matrix(0.75,0,0,0.75,0,0)"/>
<path style="fill:none;stroke-width:2;stroke-linecap:butt;stroke-linejoin:miter;stroke:rgb(0%,0%,0%);stroke-opacity:1;stroke-miterlimit:4;" d="M 324.598958 231.598958 L 339.901042 244.5 " transform="matrix(0.75,0,0,0.75,0,0)"/>
<path style="fill:none;stroke-width:2;stroke-linecap:butt;stroke-linejoin:miter;stroke:rgb(0%,0%,100%);stroke-opacity:1;stroke-miterlimit:4;" d="M 339.901042 244.5 L 355.302083 257.5 " transform="matrix(0.75,0,0,0.75,0,0)"/>
<path style="fill:none;stroke-width:2;stroke-linecap:butt;stroke-linejoin:miter;stroke:rgb(0%,0%,100%);stroke-opacity:1;stroke-miterlimit:4;" d="M 369.098958 261.598958 L 385.5 257.5 " transform="matrix(0.75,0,0,0.75,0,0)"/>
<path style="fill:none;stroke-width:2;stroke-linecap:butt;stroke-linejoin:miter;stroke:rgb(100%,0%,0%);stroke-opacity:1;stroke-miterlimit:4;" d="M 385.5 257.5 L 401.901042 253.5 " transform="matrix(0.75,0,0,0.75,0,0)"/>
<path style="fill:none;stroke-width:2;stroke-linecap:butt;stroke-linejoin:miter;stroke:rgb(100%,0%,0%);stroke-opacity:1;stroke-miterlimit:4;" d="M 412.5 242.802083 L 416.697917 228 " transform="matrix(0.75,0,0,0.75,0,0)"/>
<path style="fill:none;stroke-width:2;stroke-linecap:butt;stroke-linejoin:miter;stroke:rgb(80%,80%,0%);stroke-opacity:1;stroke-miterlimit:4;" d="M 416.697917 228 L 421 213.098958 " transform="matrix(0.75,0,0,0.75,0,0)"/>
<path style="fill:none;stroke-width:2;stroke-linecap:butt;stroke-linejoin:miter;stroke:rgb(80%,80%,0%);stroke-opacity:1;stroke-miterlimit:4;" d="M 431.098958 201.197917 L 447.598958 206 " transform="matrix(0.75,0,0,0.75,0,0)"/>
<path style="fill:none;stroke-width:2;stroke-linecap:butt;stroke-linejoin:miter;stroke:rgb(100%,0%,0%);stroke-opacity:1;stroke-miterlimit:4;" d="M 447.598958 206 L 464.197917 210.802083 " transform="matrix(0.75,0,0,0.75,0,0)"/>
<path style="fill:none;stroke-width:2;stroke-linecap:butt;stroke-linejoin:miter;stroke:rgb(80%,80%,0%);stroke-opacity:1;stroke-miterlimit:4;" d="M 428.302083 210.697917 L 444.901042 215.5 " transform="matrix(0.75,0,0,0.75,0,0)"/>
<path style="fill:none;stroke-width:2;stroke-linecap:butt;stroke-linejoin:miter;stroke:rgb(100%,0%,0%);stroke-opacity:1;stroke-miterlimit:4;" d="M 444.901042 215.5 L 461.5 220.302083 " transform="matrix(0.75,0,0,0.75,0,0)"/>
<path style="fill:none;stroke-width:2;stroke-linecap:butt;stroke-linejoin:miter;stroke:rgb(80%,80%,0%);stroke-opacity:1;stroke-miterlimit:4;" d="M 416.098958 207.197917 L 399.598958 202.401042 " transform="matrix(0.75,0,0,0.75,0,0)"/>
<path style="fill:none;stroke-width:2;stroke-linecap:butt;stroke-linejoin:miter;stroke:rgb(100%,0%,0%);stroke-opacity:1;stroke-miterlimit:4;" d="M 399.598958 202.401042 L 383 197.598958 " transform="matrix(0.75,0,0,0.75,0,0)"/>
<path style="fill:none;stroke-width:2;stroke-linecap:butt;stroke-linejoin:miter;stroke:rgb(80%,80%,0%);stroke-opacity:1;stroke-miterlimit:4;" d="M 418.901042 197.697917 L 402.302083 192.901042 " transform="matrix(0.75,0,0,0.75,0,0)"/>
<path style="fill:none;stroke-width:2;stroke-linecap:butt;stroke-linejoin:miter;stroke:rgb(100%,0%,0%);stroke-opacity:1;stroke-miterlimit:4;" d="M 402.302083 192.901042 L 385.697917 188.098958 " transform="matrix(0.75,0,0,0.75,0,0)"/>
<path style="fill:none;stroke-width:2;stroke-linecap:butt;stroke-linejoin:miter;stroke:rgb(80%,80%,0%);stroke-opacity:1;stroke-miterlimit:4;" d="M 426.098958 195.598958 L 430.401042 180.697917 " transform="matrix(0.75,0,0,0.75,0,0)"/>
<path style="fill:none;stroke-width:2;stroke-linecap:butt;stroke-linejoin:miter;stroke:rgb(100%,0%,0%);stroke-opacity:1;stroke-miterlimit:4;" d="M 430.401042 180.697917 L 434.697917 165.802083 " transform="matrix(0.75,0,0,0.75,0,0)"/>
<path style="fill:none;stroke-width:2;stroke-linecap:butt;stroke-linejoin:miter;stroke:rgb(0%,0%,0%);stroke-opacity:1;stroke-miterlimit:4;" d="M 105.802083 269.302083 L 137.5 231.697917 " transform="matrix(0.75,0,0,0.75,0,0)"/>
<path style="fill:none;stroke-width:2;stroke-linecap:butt;stroke-linejoin:miter;stroke:rgb(0%,0%,100%);stroke-opacity:1;stroke-miterlimit:4;" d="M 275.901042 265.802083 L 263.5 280.5 " transform="matrix(0.75,0,0,0.75,0,0)"/>
<path style="fill:none;stroke-width:2;stroke-linecap:butt;stroke-linejoin:miter;stroke:rgb(0%,0%,0%);stroke-opacity:1;stroke-miterlimit:4;" d="M 263.5 280.5 L 251.098958 295.197917 " transform="matrix(0.75,0,0,0.75,0,0)"/>
<path style="fill:none;stroke-width:2;stroke-linecap:butt;stroke-linejoin:miter;stroke:rgb(0%,0%,100%);stroke-opacity:1;stroke-miterlimit:4;" d="M 359.697917 271.901042 L 353.802083 292.197917 " transform="matrix(0.75,0,0,0.75,0,0)"/>
<path style="fill:none;stroke-width:2;stroke-linecap:butt;stroke-linejoin:miter;stroke:rgb(0%,0%,0%);stroke-opacity:1;stroke-miterlimit:4;" d="M 353.802083 292.197917 L 348 312.5 " transform="matrix(0.75,0,0,0.75,0,0)"/>
<path style="fill-rule:evenodd;fill:rgb(0%,0%,0%);fill-opacity:1;stroke-width:1;stroke-linecap:butt;stroke-linejoin:miter;stroke:rgb(0%,0%,0%);stroke-opacity:1;stroke-miterlimit:4;" d="M 348 312.5 L 388.598958 314.697917 L 386.802083 324.401042 Z M 348 312.5 " transform="matrix(0.75,0,0,0.75,0,0)"/>
<path style=" stroke:none;fill-rule:nonzero;fill:rgb(100%,0%,0%);fill-opacity:1;" d="M 123.449219 243.226562 C 123.449219 241.523438 123.851562 240.199219 124.648438 239.25 C 125.5 238.351562 126.699219 237.898438 128.25 237.898438 C 129.75 237.898438 130.925781 238.351562 131.773438 239.25 C 132.574219 240.199219 132.976562 241.523438 132.976562 243.226562 C 132.976562 244.875 132.574219 246.199219 131.773438 247.199219 C 130.925781 248.148438 129.75 248.625 128.25 248.625 C 126.699219 248.625 125.5 248.148438 124.648438 247.199219 C 123.851562 246.25 123.449219 244.925781 123.449219 243.226562 M 128.25 247.425781 C 129.300781 247.425781 130.101562 247.074219 130.648438 246.375 C 131.25 245.625 131.550781 244.574219 131.550781 243.226562 C 131.550781 241.824219 131.25 240.773438 130.648438 240.074219 C 130.101562 239.375 129.300781 239.023438 128.25 239.023438 C 127.148438 239.023438 126.324219 239.375 125.773438 240.074219 C 125.175781 240.773438 124.875 241.824219 124.875 243.226562 C 124.875 244.625 125.175781 245.675781 125.773438 246.375 C 126.324219 247.074219 127.148438 247.425781 128.25 247.425781 "/>
<path style=" stroke:none;fill-rule:nonzero;fill:rgb(0%,0%,100%);fill-opacity:1;" d="M 137.101562 174.976562 L 140.550781 180.523438 C 140.75 180.925781 141.050781 181.449219 141.449219 182.101562 C 141.800781 182.75 141.976562 183.101562 141.976562 183.148438 L 141.976562 174.976562 L 143.398438 174.976562 L 143.398438 185.476562 L 141.976562 185.476562 L 138.300781 179.398438 C 138 178.949219 137.699219 178.449219 137.398438 177.898438 C 137.101562 177.351562 136.898438 177 136.800781 176.851562 L 136.800781 185.476562 L 135.449219 185.476562 L 135.449219 174.976562 L 137.101562 174.976562 "/>
<path style=" stroke:none;fill-rule:nonzero;fill:rgb(0%,0%,100%);fill-opacity:1;" d="M 144.601562 174.976562 L 146.023438 174.976562 L 146.023438 179.476562 L 151.351562 179.476562 L 151.351562 174.976562 L 152.773438 174.976562 L 152.773438 185.476562 L 151.351562 185.476562 L 151.351562 180.601562 L 146.023438 180.601562 L 146.023438 185.476562 L 144.601562 185.476562 L 144.601562 174.976562 "/>
<path style=" stroke:none;fill-rule:nonzero;fill:rgb(0%,0%,100%);fill-opacity:1;" d="M 17.023438 155.550781 L 18.449219 155.550781 L 18.449219 160.050781 L 23.773438 160.050781 L 23.773438 155.550781 L 25.199219 155.550781 L 25.199219 166.050781 L 23.773438 166.050781 L 23.773438 161.175781 L 18.449219 161.175781 L 18.449219 166.050781 L 17.023438 166.050781 L 17.023438 155.550781 "/>
<path style=" stroke:none;fill-rule:nonzero;fill:rgb(0%,0%,100%);fill-opacity:1;" d="M 28.125 155.550781 L 31.574219 161.101562 C 31.773438 161.5 32.074219 162.023438 32.476562 162.675781 C 32.824219 163.324219 33 163.675781 33 163.726562 L 33 155.550781 L 34.425781 155.550781 L 34.425781 166.050781 L 33 166.050781 L 29.324219 159.976562 C 29.023438 159.523438 28.726562 159.023438 28.425781 158.476562 C 28.125 157.925781 27.925781 157.574219 27.824219 157.425781 L 27.824219 166.050781 L 26.476562 166.050781 L 26.476562 155.550781 L 28.125 155.550781 "/>
<path style=" stroke:none;fill-rule:nonzero;fill:rgb(0%,0%,100%);fill-opacity:1;" d="M 209.773438 187.949219 L 213.226562 193.5 C 213.425781 193.851562 213.726562 194.351562 214.125 195 C 214.476562 195.699219 214.648438 196.050781 214.648438 196.050781 L 214.648438 187.949219 L 216.074219 187.949219 L 216.074219 198.449219 L 214.648438 198.449219 L 210.976562 192.375 C 210.675781 191.875 210.375 191.375 210.074219 190.875 C 209.773438 190.324219 209.574219 189.949219 209.476562 189.75 L 209.476562 198.449219 L 208.125 198.449219 L 208.125 187.949219 L 209.773438 187.949219 "/>
<path style=" stroke:none;fill-rule:nonzero;fill:rgb(100%,0%,0%);fill-opacity:1;" d="M 241.273438 136.949219 C 241.273438 135.25 241.675781 133.925781 242.476562 132.976562 C 243.324219 132.074219 244.523438 131.625 246.074219 131.625 C 247.625 131.625 248.800781 132.074219 249.601562 132.976562 C 250.449219 133.925781 250.875 135.25 250.875 136.949219 C 250.875 138.601562 250.449219 139.925781 249.601562 140.925781 C 248.75 141.875 247.574219 142.351562 246.074219 142.351562 C 244.523438 142.351562 243.324219 141.875 242.476562 140.925781 C 241.675781 139.976562 241.273438 138.648438 241.273438 136.949219 M 246.074219 141.148438 C 247.125 141.148438 247.925781 140.800781 248.476562 140.101562 C 249.074219 139.351562 249.375 138.300781 249.375 136.949219 C 249.375 135.550781 249.074219 134.5 248.476562 133.800781 C 247.925781 133.101562 247.125 132.75 246.074219 132.75 C 245.023438 132.75 244.199219 133.101562 243.601562 133.800781 C 243.050781 134.5 242.773438 135.550781 242.773438 136.949219 C 242.773438 138.351562 243.050781 139.398438 243.601562 140.101562 C 244.199219 140.800781 245.023438 141.148438 246.074219 141.148438 "/>
<path style=" stroke:none;fill-rule:nonzero;fill:rgb(0%,0%,100%);fill-opacity:1;" d="M 269.324219 192.226562 L 272.773438 197.773438 C 272.976562 198.125 273.273438 198.625 273.675781 199.273438 C 274.023438 199.976562 274.199219 200.324219 274.199219 200.324219 L 274.199219 192.226562 L 275.625 192.226562 L 275.625 202.726562 L 274.199219 202.726562 L 270.523438 196.648438 C 270.226562 196.148438 269.925781 195.648438 269.625 195.148438 C 269.324219 194.601562 269.125 194.226562 269.023438 194.023438 L 269.023438 202.726562 L 267.675781 202.726562 L 267.675781 192.226562 L 269.324219 192.226562 "/>
<path style=" stroke:none;fill-rule:nonzero;fill:rgb(100%,0%,0%);fill-opacity:1;" d="M 302.699219 188.625 C 302.699219 186.976562 303.101562 185.675781 303.898438 184.726562 C 304.75 183.773438 305.949219 183.300781 307.5 183.300781 C 309 183.300781 310.175781 183.773438 311.023438 184.726562 C 311.875 185.675781 312.300781 186.976562 312.300781 188.625 C 312.300781 190.324219 311.875 191.648438 311.023438 192.601562 C 310.175781 193.550781 309 194.023438 307.5 194.023438 C 305.949219 194.023438 304.75 193.550781 303.898438 192.601562 C 303.101562 191.648438 302.699219 190.324219 302.699219 188.625 M 307.5 192.898438 C 308.550781 192.898438 309.351562 192.523438 309.898438 191.773438 C 310.5 191.074219 310.800781 190.023438 310.800781 188.625 C 310.800781 187.273438 310.5 186.25 309.898438 185.550781 C 309.351562 184.851562 308.550781 184.5 307.5 184.5 C 306.398438 184.5 305.574219 184.851562 305.023438 185.550781 C 304.425781 186.25 304.125 187.273438 304.125 188.625 C 304.125 190.023438 304.425781 191.074219 305.023438 191.773438 C 305.574219 192.523438 306.398438 192.898438 307.5 192.898438 "/>
<path style=" stroke:none;fill-rule:nonzero;fill:rgb(80%,80%,0%);fill-opacity:1;" d="M 314.773438 156.75 C 314.824219 156.75 315.023438 156.824219 315.375 156.976562 C 315.675781 157.125 316 157.25 316.351562 157.351562 C 316.75 157.398438 317.125 157.425781 317.476562 157.425781 C 318.125 157.425781 318.648438 157.273438 319.050781 156.976562 C 319.398438 156.625 319.574219 156.175781 319.574219 155.625 C 319.574219 155.273438 319.476562 154.976562 319.273438 154.726562 C 319.125 154.476562 318.898438 154.300781 318.601562 154.199219 C 318.300781 154.050781 317.898438 153.898438 317.398438 153.75 C 316.800781 153.550781 316.300781 153.375 315.898438 153.226562 C 315.550781 153.023438 315.226562 152.75 314.925781 152.398438 C 314.675781 152 314.550781 151.5 314.550781 150.898438 C 314.550781 150 314.851562 149.273438 315.449219 148.726562 C 316.050781 148.226562 316.949219 147.976562 318.148438 147.976562 C 318.949219 147.976562 319.800781 148.148438 320.699219 148.5 L 320.398438 149.625 C 319.550781 149.273438 318.800781 149.101562 318.148438 149.101562 C 317.5 149.101562 316.976562 149.25 316.574219 149.550781 C 316.226562 149.851562 316.050781 150.226562 316.050781 150.675781 C 316.050781 151.074219 316.148438 151.375 316.351562 151.574219 C 316.550781 151.824219 316.773438 152 317.023438 152.101562 C 317.324219 152.25 317.699219 152.398438 318.148438 152.550781 C 318.800781 152.75 319.300781 152.949219 319.648438 153.148438 C 320.050781 153.351562 320.375 153.648438 320.625 154.050781 C 320.925781 154.449219 321.074219 154.976562 321.074219 155.625 C 321.074219 156.625 320.75 157.375 320.101562 157.875 C 319.449219 158.375 318.574219 158.625 317.476562 158.625 C 316.875 158.625 316.351562 158.550781 315.898438 158.398438 C 315.398438 158.300781 314.875 158.125 314.324219 157.875 L 314.773438 156.75 "/>
<path style=" stroke:none;fill-rule:nonzero;fill:rgb(100%,0%,0%);fill-opacity:1;" d="M 348.375 163.425781 C 348.375 161.726562 348.773438 160.425781 349.574219 159.523438 C 350.425781 158.574219 351.625 158.101562 353.175781 158.101562 C 354.726562 158.101562 355.898438 158.574219 356.699219 159.523438 C 357.550781 160.425781 357.976562 161.726562 357.976562 163.425781 C 357.976562 165.125 357.550781 166.449219 356.699219 167.398438 C 355.851562 168.351562 354.675781 168.824219 353.175781 168.824219 C 351.625 168.824219 350.425781 168.351562 349.574219 167.398438 C 348.773438 166.449219 348.375 165.125 348.375 163.425781 M 353.175781 167.625 C 354.226562 167.625 355.023438 167.273438 355.574219 166.574219 C 356.175781 165.875 356.476562 164.824219 356.476562 163.425781 C 356.476562 162.074219 356.175781 161.050781 355.574219 160.351562 C 355.023438 159.648438 354.226562 159.300781 353.175781 159.300781 C 352.125 159.300781 351.300781 159.648438 350.699219 160.351562 C 350.101562 161 349.800781 162.023438 349.800781 163.425781 C 349.800781 164.824219 350.101562 165.875 350.699219 166.574219 C 351.300781 167.273438 352.125 167.625 353.175781 167.625 "/>
<path style=" stroke:none;fill-rule:nonzero;fill:rgb(100%,0%,0%);fill-opacity:1;" d="M 277.425781 142.949219 C 277.425781 141.25 277.851562 139.949219 278.699219 139.050781 C 279.5 138.101562 280.675781 137.625 282.226562 137.625 C 283.773438 137.625 284.976562 138.101562 285.824219 139.050781 C 286.625 139.949219 287.023438 141.25 287.023438 142.949219 C 287.023438 144.648438 286.625 145.976562 285.824219 146.925781 C 284.976562 147.875 283.773438 148.351562 282.226562 148.351562 C 280.726562 148.351562 279.550781 147.875 278.699219 146.925781 C 277.851562 145.976562 277.425781 144.648438 277.425781 142.949219 M 282.226562 147.148438 C 283.324219 147.148438 284.148438 146.800781 284.699219 146.101562 C 285.300781 145.398438 285.601562 144.351562 285.601562 142.949219 C 285.601562 141.601562 285.300781 140.574219 284.699219 139.875 C 284.148438 139.175781 283.324219 138.824219 282.226562 138.824219 C 281.175781 138.824219 280.351562 139.175781 279.75 139.875 C 279.199219 140.523438 278.925781 141.550781 278.925781 142.949219 C 278.925781 144.351562 279.199219 145.398438 279.75 146.101562 C 280.351562 146.800781 281.175781 147.148438 282.226562 147.148438 "/>
<path style=" stroke:none;fill-rule:nonzero;fill:rgb(100%,0%,0%);fill-opacity:1;" d="M 323.175781 117.75 C 323.175781 116.050781 323.574219 114.75 324.375 113.851562 C 325.226562 112.898438 326.425781 112.425781 327.976562 112.425781 C 329.476562 112.425781 330.648438 112.898438 331.5 113.851562 C 332.351562 114.75 332.773438 116.050781 332.773438 117.75 C 332.773438 119.449219 332.351562 120.773438 331.5 121.726562 C 330.648438 122.675781 329.476562 123.148438 327.976562 123.148438 C 326.425781 123.148438 325.226562 122.675781 324.375 121.726562 C 323.574219 120.773438 323.175781 119.449219 323.175781 117.75 M 327.976562 121.949219 C 329.023438 121.949219 329.824219 121.601562 330.375 120.898438 C 330.976562 120.199219 331.273438 119.148438 331.273438 117.75 C 331.273438 116.351562 330.976562 115.324219 330.375 114.675781 C 329.824219 113.976562 329.023438 113.625 327.976562 113.625 C 326.875 113.625 326.050781 113.949219 325.5 114.601562 C 324.898438 115.300781 324.601562 116.351562 324.601562 117.75 C 324.601562 119.148438 324.898438 120.199219 325.5 120.898438 C 326.050781 121.601562 326.875 121.949219 327.976562 121.949219 "/>
<path style=" stroke:none;fill-rule:nonzero;fill:rgb(100%,0%,0%);fill-opacity:1;" d="M 333.449219 112.5 L 334.875 112.5 L 334.875 117 L 340.199219 117 L 340.199219 112.5 L 341.625 112.5 L 341.625 123 L 340.199219 123 L 340.199219 118.125 L 334.875 118.125 L 334.875 123 L 333.449219 123 L 333.449219 112.5 "/>
<path style=" stroke:none;fill-rule:nonzero;fill:rgb(0%,0%,0%);fill-opacity:1;" d="M 293.25 235.648438 L 294.601562 235.648438 L 294.601562 240.074219 L 300 240.074219 L 300 235.648438 L 301.425781 235.648438 L 301.425781 246.074219 L 300 246.074219 L 300 241.273438 L 294.601562 241.273438 L 294.601562 246.074219 L 293.25 246.074219 L 293.25 235.648438 "/>
</g>
</svg>
