<?xml version="1.0" encoding="UTF-8"?>
<svg xmlns="http://www.w3.org/2000/svg" xmlns:xlink="http://www.w3.org/1999/xlink" width="375pt" height="375pt" viewBox="0 0 375 375" version="1.1">
<g id="surface6">
<rect x="0" y="0" width="375" height="375" style="fill:rgb(100%,100%,100%);fill-opacity:1;stroke:none;"/>
<path style="fill:none;stroke-width:2;stroke-linecap:butt;stroke-linejoin:miter;stroke:rgb(0%,0%,0%);stroke-opacity:1;stroke-miterlimit:4;" d="M 448.302083 257.302083 L 409.901042 276.598958 " transform="matrix(0.75,0,0,0.75,0,0)"/>
<path style="fill:none;stroke-width:2;stroke-linecap:butt;stroke-linejoin:miter;stroke:rgb(0%,0%,0%);stroke-opacity:1;stroke-miterlimit:4;" d="M 409.901042 276.598958 L 433 312.697917 " transform="matrix(0.75,0,0,0.75,0,0)"/>
<path style="fill:none;stroke-width:2;stroke-linecap:butt;stroke-linejoin:miter;stroke:rgb(0%,0%,0%);stroke-opacity:1;stroke-miterlimit:4;" d="M 409.901042 276.598958 L 394.802083 236.401042 " transform="matrix(0.75,0,0,0.75,0,0)"/>
<path style="fill-rule:evenodd;fill:rgb(0%,0%,0%);fill-opacity:1;stroke-width:1;stroke-linecap:butt;stroke-linejoin:miter;stroke:rgb(0%,0%,0%);stroke-opacity:1;stroke-miterlimit:4;" d="M 394.802083 236.401042 L 414.901042 198.197917 L 422 202.901042 Z M 394.802083 236.401042 " transform="matrix(0.75,0,0,0.75,0,0)"/>
<path style="fill:none;stroke-width:2;stroke-linecap:butt;stroke-linejoin:miter;stroke:rgb(0%,0%,0%);stroke-opacity:1;stroke-miterlimit:4;" d="M 418.5 200.5 L 436.401042 201.598958 " transform="matrix(0.75,0,0,0.75,0,0)"/>
<path style="fill:none;stroke-width:2;stroke-linecap:butt;stroke-linejoin:miter;stroke:rgb(100%,0%,0%);stroke-opacity:1;stroke-miterlimit:4;" d="M 436.401042 201.598958 L 454.302083 202.697917 " transform="matrix(0.75,0,0,0.75,0,0)"/>
<path style="fill:none;stroke-width:2;stroke-linecap:butt;stroke-linejoin:miter;stroke:rgb(0%,0%,0%);stroke-opacity:1;stroke-miterlimit:4;" d="M 414.598958 202.401042 L 406.901042 187.098958 " transform="matrix(0.75,0,0,0.75,0,0)"/>
<path style="fill:none;stroke-width:2;stroke-linecap:butt;stroke-linejoin:miter;stroke:rgb(100%,0%,0%);stroke-opacity:1;stroke-miterlimit:4;" d="M 406.901042 187.098958 L 399.302083 171.802083 " transform="matrix(0.75,0,0,0.75,0,0)"/>
<path style="fill:none;stroke-width:2;stroke-linecap:butt;stroke-linejoin:miter;stroke:rgb(0%,0%,0%);stroke-opacity:1;stroke-miterlimit:4;" d="M 422.302083 198.598958 L 414.598958 183.302083 " transform="matrix(0.75,0,0,0.75,0,0)"/>
<path style="fill:none;stroke-width:2;stroke-linecap:butt;stroke-linejoin:miter;stroke:rgb(100%,0%,0%);stroke-opacity:1;stroke-miterlimit:4;" d="M 414.598958 183.302083 L 407 168 " transform="matrix(0.75,0,0,0.75,0,0)"/>
<path style="fill:none;stroke-width:2;stroke-linecap:butt;stroke-linejoin:miter;stroke:rgb(0%,0%,0%);stroke-opacity:1;stroke-miterlimit:4;" d="M 409.901042 276.598958 L 395.802083 287.802083 " transform="matrix(0.75,0,0,0.75,0,0)"/>
<path style="fill:none;stroke-width:2;stroke-linecap:butt;stroke-linejoin:miter;stroke:rgb(80%,80%,0%);stroke-opacity:1;stroke-miterlimit:4;" d="M 395.802083 287.802083 L 381.697917 299.098958 " transform="matrix(0.75,0,0,0.75,0,0)"/>
<path style="fill:none;stroke-width:2;stroke-linecap:butt;stroke-linejoin:miter;stroke:rgb(80%,80%,0%);stroke-opacity:1;stroke-miterlimit:4;" d="M 371 299.802083 L 355.802083 289.802083 " transform="matrix(0.75,0,0,0.75,0,0)"/>
<path style="fill:none;stroke-width:2;stroke-linecap:butt;stroke-linejoin:miter;stroke:rgb(0%,0%,0%);stroke-opacity:1;stroke-miterlimit:4;" d="M 355.802083 289.802083 L 340.5 279.697917 " transform="matrix(0.75,0,0,0.75,0,0)"/>
<path style="fill:none;stroke-width:2;stroke-linecap:butt;stroke-linejoin:miter;stroke:rgb(0%,0%,0%);stroke-opacity:1;stroke-miterlimit:4;" d="M 340.5 279.697917 L 299.098958 268.302083 " transform="matrix(0.75,0,0,0.75,0,0)"/>
<path style="fill:none;stroke-width:1;stroke-linecap:butt;stroke-linejoin:miter;stroke:rgb(0%,0%,0%);stroke-opacity:1;stroke-miterlimit:4;" d="M 293.802083 270.5 L 294.5 271.697917 " transform="matrix(0.75,0,0,0.75,0,0)"/>
<path style="fill:none;stroke-width:1;stroke-linecap:butt;stroke-linejoin:miter;stroke:rgb(0%,0%,0%);stroke-opacity:1;stroke-miterlimit:4;" d="M 288.401042 272.697917 L 289.802083 275.197917 " transform="matrix(0.75,0,0,0.75,0,0)"/>
<path style="fill:none;stroke-width:1;stroke-linecap:butt;stroke-linejoin:miter;stroke:rgb(0%,0%,0%);stroke-opacity:1;stroke-miterlimit:4;" d="M 283.098958 274.901042 L 285.197917 278.598958 " transform="matrix(0.75,0,0,0.75,0,0)"/>
<path style="fill:none;stroke-width:1;stroke-linecap:butt;stroke-linejoin:miter;stroke:rgb(0%,0%,100%);stroke-opacity:1;stroke-miterlimit:4;" d="M 277.802083 277.098958 L 280.598958 282.098958 " transform="matrix(0.75,0,0,0.75,0,0)"/>
<path style="fill:none;stroke-width:1;stroke-linecap:butt;stroke-linejoin:miter;stroke:rgb(0%,0%,100%);stroke-opacity:1;stroke-miterlimit:4;" d="M 272.401042 279.302083 L 276 285.5 " transform="matrix(0.75,0,0,0.75,0,0)"/>
<path style="fill:none;stroke-width:1;stroke-linecap:butt;stroke-linejoin:miter;stroke:rgb(0%,0%,100%);stroke-opacity:1;stroke-miterlimit:4;" d="M 267.098958 281.5 L 271.302083 289 " transform="matrix(0.75,0,0,0.75,0,0)"/>
<path style="fill:none;stroke-width:2;stroke-linecap:butt;stroke-linejoin:miter;stroke:rgb(0%,0%,100%);stroke-opacity:1;stroke-miterlimit:4;" d="M 255.697917 285.901042 L 240.197917 276.802083 " transform="matrix(0.75,0,0,0.75,0,0)"/>
<path style="fill:none;stroke-width:2;stroke-linecap:butt;stroke-linejoin:miter;stroke:rgb(0%,0%,0%);stroke-opacity:1;stroke-miterlimit:4;" d="M 240.197917 276.802083 L 224.697917 267.697917 " transform="matrix(0.75,0,0,0.75,0,0)"/>
<path style="fill:none;stroke-width:2;stroke-linecap:butt;stroke-linejoin:miter;stroke:rgb(0%,0%,0%);stroke-opacity:1;stroke-miterlimit:4;" d="M 224.697917 267.697917 L 187.401042 288.901042 " transform="matrix(0.75,0,0,0.75,0,0)"/>
<path style="fill:none;stroke-width:2;stroke-linecap:butt;stroke-linejoin:miter;stroke:rgb(0%,0%,0%);stroke-opacity:1;stroke-miterlimit:4;" d="M 187.401042 288.901042 L 150.401042 267.197917 " transform="matrix(0.75,0,0,0.75,0,0)"/>
<path style="fill:none;stroke-width:2;stroke-linecap:butt;stroke-linejoin:miter;stroke:rgb(0%,0%,0%);stroke-opacity:1;stroke-miterlimit:4;" d="M 150.401042 267.197917 L 150.697917 224.302083 " transform="matrix(0.75,0,0,0.75,0,0)"/>
<path style="fill:none;stroke-width:2;stroke-linecap:butt;stroke-linejoin:miter;stroke:rgb(0%,0%,0%);stroke-opacity:1;stroke-miterlimit:4;" d="M 141.802083 260.697917 L 142 230.598958 " transform="matrix(0.75,0,0,0.75,0,0)"/>
<path style="fill:none;stroke-width:2;stroke-linecap:butt;stroke-linejoin:miter;stroke:rgb(0%,0%,0%);stroke-opacity:1;stroke-miterlimit:4;" d="M 150.697917 224.302083 L 113.697917 202.5 " transform="matrix(0.75,0,0,0.75,0,0)"/>
<path style="fill:none;stroke-width:2;stroke-linecap:butt;stroke-linejoin:miter;stroke:rgb(0%,0%,0%);stroke-opacity:1;stroke-miterlimit:4;" d="M 150.401042 267.197917 L 113 288.401042 " transform="matrix(0.75,0,0,0.75,0,0)"/>
<path style="fill:none;stroke-width:2;stroke-linecap:butt;stroke-linejoin:miter;stroke:rgb(0%,0%,0%);stroke-opacity:1;stroke-miterlimit:4;" d="M 113 288.401042 L 76 266.697917 " transform="matrix(0.75,0,0,0.75,0,0)"/>
<path style="fill:none;stroke-width:2;stroke-linecap:butt;stroke-linejoin:miter;stroke:rgb(0%,0%,0%);stroke-opacity:1;stroke-miterlimit:4;" d="M 111.802083 277.697917 L 85.901042 262.5 " transform="matrix(0.75,0,0,0.75,0,0)"/>
<path style="fill:none;stroke-width:2;stroke-linecap:butt;stroke-linejoin:miter;stroke:rgb(0%,0%,0%);stroke-opacity:1;stroke-miterlimit:4;" d="M 76 266.697917 L 76.302083 223.697917 " transform="matrix(0.75,0,0,0.75,0,0)"/>
<path style="fill:none;stroke-width:2;stroke-linecap:butt;stroke-linejoin:miter;stroke:rgb(0%,0%,0%);stroke-opacity:1;stroke-miterlimit:4;" d="M 76.302083 223.697917 L 61.302083 214.901042 " transform="matrix(0.75,0,0,0.75,0,0)"/>
<path style="fill:none;stroke-width:2;stroke-linecap:butt;stroke-linejoin:miter;stroke:rgb(100%,0%,0%);stroke-opacity:1;stroke-miterlimit:4;" d="M 61.302083 214.901042 L 46.302083 206.098958 " transform="matrix(0.75,0,0,0.75,0,0)"/>
<path style="fill:none;stroke-width:1;stroke-linecap:butt;stroke-linejoin:miter;stroke:rgb(0%,0%,0%);stroke-opacity:1;stroke-miterlimit:4;" d="M 186.598958 294.598958 L 188.098958 294.598958 " transform="matrix(0.75,0,0,0.75,0,0)"/>
<path style="fill:none;stroke-width:1;stroke-linecap:butt;stroke-linejoin:miter;stroke:rgb(0%,0%,0%);stroke-opacity:1;stroke-miterlimit:4;" d="M 185.901042 300.302083 L 188.697917 300.302083 " transform="matrix(0.75,0,0,0.75,0,0)"/>
<path style="fill:none;stroke-width:1;stroke-linecap:butt;stroke-linejoin:miter;stroke:rgb(0%,0%,0%);stroke-opacity:1;stroke-miterlimit:4;" d="M 185.098958 305.901042 L 189.401042 306 " transform="matrix(0.75,0,0,0.75,0,0)"/>
<path style="fill:none;stroke-width:1;stroke-linecap:butt;stroke-linejoin:miter;stroke:rgb(0%,0%,100%);stroke-opacity:1;stroke-miterlimit:4;" d="M 184.401042 311.598958 L 190.098958 311.598958 " transform="matrix(0.75,0,0,0.75,0,0)"/>
<path style="fill:none;stroke-width:1;stroke-linecap:butt;stroke-linejoin:miter;stroke:rgb(0%,0%,100%);stroke-opacity:1;stroke-miterlimit:4;" d="M 183.598958 317.302083 L 190.802083 317.302083 " transform="matrix(0.75,0,0,0.75,0,0)"/>
<path style="fill:none;stroke-width:1;stroke-linecap:butt;stroke-linejoin:miter;stroke:rgb(0%,0%,100%);stroke-opacity:1;stroke-miterlimit:4;" d="M 182.901042 322.901042 L 191.401042 323 " transform="matrix(0.75,0,0,0.75,0,0)"/>
<path style="fill:none;stroke-width:2;stroke-linecap:butt;stroke-linejoin:miter;stroke:rgb(0%,0%,0%);stroke-opacity:1;stroke-miterlimit:4;" d="M 220.401042 267.697917 L 220.598958 250.098958 " transform="matrix(0.75,0,0,0.75,0,0)"/>
<path style="fill:none;stroke-width:2;stroke-linecap:butt;stroke-linejoin:miter;stroke:rgb(100%,0%,0%);stroke-opacity:1;stroke-miterlimit:4;" d="M 220.598958 250.098958 L 220.697917 232.5 " transform="matrix(0.75,0,0,0.75,0,0)"/>
<path style="fill:none;stroke-width:2;stroke-linecap:butt;stroke-linejoin:miter;stroke:rgb(0%,0%,0%);stroke-opacity:1;stroke-miterlimit:4;" d="M 229 267.802083 L 229.197917 250.197917 " transform="matrix(0.75,0,0,0.75,0,0)"/>
<path style="fill:none;stroke-width:2;stroke-linecap:butt;stroke-linejoin:miter;stroke:rgb(100%,0%,0%);stroke-opacity:1;stroke-miterlimit:4;" d="M 229.197917 250.197917 L 229.302083 232.598958 " transform="matrix(0.75,0,0,0.75,0,0)"/>
<path style="fill:none;stroke-width:2;stroke-linecap:butt;stroke-linejoin:miter;stroke:rgb(0%,0%,0%);stroke-opacity:1;stroke-miterlimit:4;" d="M 340.5 279.697917 L 345.197917 262.697917 " transform="matrix(0.75,0,0,0.75,0,0)"/>
<path style="fill:none;stroke-width:2;stroke-linecap:butt;stroke-linejoin:miter;stroke:rgb(0%,0%,100%);stroke-opacity:1;stroke-miterlimit:4;" d="M 345.197917 262.697917 L 349.802083 245.802083 " transform="matrix(0.75,0,0,0.75,0,0)"/>
<path style="fill:none;stroke-width:2;stroke-linecap:butt;stroke-linejoin:miter;stroke:rgb(0%,0%,100%);stroke-opacity:1;stroke-miterlimit:4;" d="M 345.901042 236.598958 L 328.197917 231.802083 " transform="matrix(0.75,0,0,0.75,0,0)"/>
<path style="fill:none;stroke-width:2;stroke-linecap:butt;stroke-linejoin:miter;stroke:rgb(0%,0%,0%);stroke-opacity:1;stroke-miterlimit:4;" d="M 328.197917 231.802083 L 310.5 226.901042 " transform="matrix(0.75,0,0,0.75,0,0)"/>
<path style="fill:none;stroke-width:2;stroke-linecap:butt;stroke-linejoin:miter;stroke:rgb(0%,0%,0%);stroke-opacity:1;stroke-miterlimit:4;" d="M 306.802083 229 L 298.401042 214.197917 " transform="matrix(0.75,0,0,0.75,0,0)"/>
<path style="fill:none;stroke-width:2;stroke-linecap:butt;stroke-linejoin:miter;stroke:rgb(100%,0%,0%);stroke-opacity:1;stroke-miterlimit:4;" d="M 298.401042 214.197917 L 290 199.401042 " transform="matrix(0.75,0,0,0.75,0,0)"/>
<path style="fill:none;stroke-width:2;stroke-linecap:butt;stroke-linejoin:miter;stroke:rgb(0%,0%,0%);stroke-opacity:1;stroke-miterlimit:4;" d="M 314.302083 224.802083 L 305.901042 210 " transform="matrix(0.75,0,0,0.75,0,0)"/>
<path style="fill:none;stroke-width:2;stroke-linecap:butt;stroke-linejoin:miter;stroke:rgb(100%,0%,0%);stroke-opacity:1;stroke-miterlimit:4;" d="M 305.901042 210 L 297.5 195.197917 " transform="matrix(0.75,0,0,0.75,0,0)"/>
<path style="fill:none;stroke-width:2;stroke-linecap:butt;stroke-linejoin:miter;stroke:rgb(0%,0%,100%);stroke-opacity:1;stroke-miterlimit:4;" d="M 357.901042 238 L 376.401042 237.197917 " transform="matrix(0.75,0,0,0.75,0,0)"/>
<path style="fill:none;stroke-width:2;stroke-linecap:butt;stroke-linejoin:miter;stroke:rgb(0%,0%,0%);stroke-opacity:1;stroke-miterlimit:4;" d="M 376.401042 237.197917 L 394.802083 236.401042 " transform="matrix(0.75,0,0,0.75,0,0)"/>
<path style="fill:none;stroke-width:2;stroke-linecap:butt;stroke-linejoin:miter;stroke:rgb(0%,0%,0%);stroke-opacity:1;stroke-miterlimit:4;" d="M 310.5 226.901042 L 299.098958 268.302083 " transform="matrix(0.75,0,0,0.75,0,0)"/>
<path style="fill:none;stroke-width:2;stroke-linecap:butt;stroke-linejoin:miter;stroke:rgb(0%,0%,0%);stroke-opacity:1;stroke-miterlimit:4;" d="M 76.302083 223.697917 L 113.697917 202.5 " transform="matrix(0.75,0,0,0.75,0,0)"/>
<path style="fill:none;stroke-width:2;stroke-linecap:butt;stroke-linejoin:miter;stroke:rgb(0%,0%,0%);stroke-opacity:1;stroke-miterlimit:4;" d="M 86.197917 228 L 112.302083 213.197917 " transform="matrix(0.75,0,0,0.75,0,0)"/>
<path style="fill-rule:evenodd;fill:rgb(0%,0%,0%);fill-opacity:1;stroke-width:1;stroke-linecap:butt;stroke-linejoin:miter;stroke:rgb(0%,0%,0%);stroke-opacity:1;stroke-miterlimit:4;" d="M 340.5 279.697917 L 330.697917 311.598958 L 322.901042 308.098958 Z M 340.5 279.697917 " transform="matrix(0.75,0,0,0.75,0,0)"/>
<path style=" stroke:none;fill-rule:nonzero;fill:rgb(100%,0%,0%);fill-opacity:1;" d="M 341.773438 152.324219 C 341.773438 150.875 342.148438 149.75 342.898438 148.949219 C 343.601562 148.101562 344.625 147.675781 345.976562 147.675781 C 347.324219 147.675781 348.375 148.101562 349.125 148.949219 C 349.824219 149.75 350.175781 150.875 350.175781 152.324219 C 350.175781 153.824219 349.800781 154.976562 349.050781 155.773438 C 348.351562 156.625 347.324219 157.050781 345.976562 157.050781 C 344.625 157.050781 343.601562 156.625 342.898438 155.773438 C 342.148438 154.976562 341.773438 153.824219 341.773438 152.324219 M 345.976562 156 C 346.925781 156 347.648438 155.699219 348.148438 155.101562 C 348.648438 154.449219 348.898438 153.523438 348.898438 152.324219 C 348.898438 151.125 348.648438 150.226562 348.148438 149.625 C 347.648438 149.023438 346.925781 148.726562 345.976562 148.726562 C 345.074219 148.726562 344.351562 149.023438 343.800781 149.625 C 343.351562 150.226562 343.125 151.125 343.125 152.324219 C 343.125 153.574219 343.351562 154.5 343.800781 155.101562 C 344.351562 155.699219 345.074219 156 345.976562 156 "/>
<path style=" stroke:none;fill-rule:nonzero;fill:rgb(100%,0%,0%);fill-opacity:1;" d="M 350.851562 147.824219 L 352.050781 147.824219 L 352.050781 151.648438 L 356.699219 151.648438 L 356.699219 147.824219 L 357.976562 147.824219 L 357.976562 156.898438 L 356.699219 156.898438 L 356.699219 152.699219 L 352.050781 152.699219 L 352.050781 156.898438 L 350.851562 156.898438 L 350.851562 147.824219 "/>
<path style=" stroke:none;fill-rule:nonzero;fill:rgb(100%,0%,0%);fill-opacity:1;" d="M 295.273438 121.648438 C 295.273438 120.148438 295.625 119 296.324219 118.199219 C 297.023438 117.398438 298.050781 117 299.398438 117 C 300.75 117 301.800781 117.398438 302.550781 118.199219 C 303.25 119 303.601562 120.148438 303.601562 121.648438 C 303.601562 123.101562 303.25 124.25 302.550781 125.101562 C 301.800781 125.949219 300.75 126.375 299.398438 126.375 C 298.101562 126.375 297.074219 125.949219 296.324219 125.101562 C 295.625 124.25 295.273438 123.101562 295.273438 121.648438 M 299.398438 125.324219 C 300.351562 125.324219 301.074219 125 301.574219 124.351562 C 302.074219 123.75 302.324219 122.851562 302.324219 121.648438 C 302.324219 120.449219 302.074219 119.550781 301.574219 118.949219 C 301.074219 118.300781 300.351562 117.976562 299.398438 117.976562 C 298.5 117.976562 297.800781 118.273438 297.300781 118.875 C 296.800781 119.476562 296.550781 120.398438 296.550781 121.648438 C 296.550781 122.851562 296.800781 123.75 297.300781 124.351562 C 297.800781 125 298.5 125.324219 299.398438 125.324219 "/>
<path style=" stroke:none;fill-rule:nonzero;fill:rgb(80%,80%,0%);fill-opacity:1;" d="M 279.675781 230.625 C 279.726562 230.675781 279.898438 230.75 280.199219 230.851562 C 280.5 230.949219 280.800781 231.050781 281.101562 231.148438 C 281.398438 231.199219 281.699219 231.226562 282 231.226562 C 282.601562 231.226562 283.074219 231.101562 283.425781 230.851562 C 283.726562 230.550781 283.875 230.148438 283.875 229.648438 C 283.875 229.351562 283.800781 229.101562 283.648438 228.898438 C 283.5 228.648438 283.300781 228.476562 283.050781 228.375 C 282.75 228.273438 282.398438 228.148438 282 228 C 281.449219 227.851562 281 227.699219 280.648438 227.550781 C 280.351562 227.398438 280.074219 227.148438 279.824219 226.800781 C 279.625 226.5 279.523438 226.074219 279.523438 225.523438 C 279.523438 224.773438 279.773438 224.148438 280.273438 223.648438 C 280.824219 223.199219 281.601562 222.976562 282.601562 222.976562 C 283.300781 222.976562 284.050781 223.125 284.851562 223.425781 L 284.550781 224.476562 C 283.851562 224.175781 283.226562 224.023438 282.675781 224.023438 C 282.074219 224.023438 281.625 224.148438 281.324219 224.398438 C 280.976562 224.601562 280.800781 224.925781 280.800781 225.375 C 280.800781 225.675781 280.875 225.925781 281.023438 226.125 C 281.226562 226.324219 281.449219 226.476562 281.699219 226.574219 C 281.949219 226.726562 282.273438 226.851562 282.675781 226.949219 C 283.226562 227.148438 283.648438 227.324219 283.949219 227.476562 C 284.300781 227.675781 284.601562 227.949219 284.851562 228.300781 C 285.050781 228.648438 285.148438 229.101562 285.148438 229.648438 C 285.148438 230.5 284.875 231.148438 284.324219 231.601562 C 283.773438 232.050781 283.023438 232.273438 282.074219 232.273438 C 281.523438 232.273438 281.050781 232.226562 280.648438 232.125 C 280.25 232.023438 279.800781 231.875 279.300781 231.675781 L 279.675781 230.625 "/>
<path style=" stroke:none;fill-rule:nonzero;fill:rgb(0%,0%,100%);fill-opacity:1;" d="M 194.324219 212.550781 L 197.324219 217.351562 C 197.523438 217.699219 197.773438 218.148438 198.074219 218.699219 C 198.375 219.300781 198.550781 219.601562 198.601562 219.601562 L 198.601562 212.550781 L 199.800781 212.550781 L 199.800781 221.699219 L 198.523438 221.699219 L 195.300781 216.375 C 195.050781 215.976562 194.800781 215.523438 194.550781 215.023438 C 194.300781 214.574219 194.125 214.273438 194.023438 214.125 L 194.023438 221.699219 L 192.898438 221.699219 L 192.898438 212.550781 L 194.324219 212.550781 "/>
<path style=" stroke:none;fill-rule:nonzero;fill:rgb(0%,0%,100%);fill-opacity:1;" d="M 192.75 222.601562 L 194.023438 222.601562 L 194.023438 226.425781 L 198.675781 226.425781 L 198.675781 222.601562 L 199.875 222.601562 L 199.875 231.675781 L 198.675781 231.675781 L 198.675781 227.476562 L 194.023438 227.476562 L 194.023438 231.675781 L 192.75 231.675781 L 192.75 222.601562 "/>
<path style=" stroke:none;fill-rule:nonzero;fill:rgb(100%,0%,0%);fill-opacity:1;" d="M 17.023438 147 L 18.300781 147 L 18.300781 150.824219 L 22.949219 150.824219 L 22.949219 147 L 24.148438 147 L 24.148438 156.074219 L 22.949219 156.074219 L 22.949219 151.875 L 18.300781 151.875 L 18.300781 156.074219 L 17.023438 156.074219 L 17.023438 147 "/>
<path style=" stroke:none;fill-rule:nonzero;fill:rgb(100%,0%,0%);fill-opacity:1;" d="M 25.273438 151.5 C 25.273438 150.050781 25.625 148.925781 26.324219 148.125 C 27.074219 147.273438 28.125 146.851562 29.476562 146.851562 C 30.824219 146.851562 31.851562 147.273438 32.550781 148.125 C 33.300781 148.925781 33.675781 150.050781 33.675781 151.5 C 33.675781 153 33.300781 154.175781 32.550781 155.023438 C 31.800781 155.824219 30.773438 156.226562 29.476562 156.226562 C 28.125 156.226562 27.074219 155.824219 26.324219 155.023438 C 25.625 154.175781 25.273438 153 25.273438 151.5 M 29.476562 155.175781 C 30.375 155.175781 31.074219 154.875 31.574219 154.273438 C 32.074219 153.675781 32.324219 152.75 32.324219 151.5 C 32.324219 150.300781 32.074219 149.398438 31.574219 148.800781 C 31.074219 148.199219 30.375 147.898438 29.476562 147.898438 C 28.523438 147.898438 27.800781 148.199219 27.300781 148.800781 C 26.800781 149.398438 26.550781 150.300781 26.550781 151.5 C 26.550781 152.75 26.800781 153.675781 27.300781 154.273438 C 27.800781 154.875 28.523438 155.175781 29.476562 155.175781 "/>
<path style=" stroke:none;fill-rule:nonzero;fill:rgb(0%,0%,100%);fill-opacity:1;" d="M 138.300781 244.351562 L 141.300781 249.148438 C 141.5 249.5 141.75 249.949219 142.050781 250.5 C 142.351562 251.101562 142.523438 251.398438 142.574219 251.398438 L 142.574219 244.351562 L 143.773438 244.351562 L 143.773438 253.425781 L 142.5 253.425781 L 139.351562 248.175781 C 139.101562 247.773438 138.824219 247.324219 138.523438 246.824219 C 138.273438 246.375 138.125 246.074219 138.074219 245.925781 L 138.074219 253.425781 L 136.875 253.425781 L 136.875 244.351562 L 138.300781 244.351562 "/>
<path style=" stroke:none;fill-rule:nonzero;fill:rgb(0%,0%,100%);fill-opacity:1;" d="M 144.824219 244.351562 L 146.101562 244.351562 L 146.101562 248.25 L 150.75 248.25 L 150.75 244.351562 L 151.949219 244.351562 L 151.949219 253.425781 L 150.75 253.425781 L 150.75 249.226562 L 146.101562 249.226562 L 146.101562 253.425781 L 144.824219 253.425781 L 144.824219 244.351562 "/>
<path style=" stroke:none;fill-rule:nonzero;fill:rgb(0%,0%,100%);fill-opacity:1;" d="M 153.074219 253.125 C 153.226562 252.773438 153.476562 252.476562 153.824219 252.226562 C 154.175781 252.023438 154.601562 251.925781 155.101562 251.925781 C 155.699219 251.925781 156.175781 252.101562 156.523438 252.449219 C 156.875 252.75 157.050781 253.199219 157.050781 253.800781 C 157.050781 254.398438 156.824219 254.976562 156.375 255.523438 C 155.925781 256.074219 155.25 256.675781 154.351562 257.324219 L 157.125 257.324219 L 157.125 258 L 153.074219 258 L 153.074219 257.476562 C 153.824219 256.925781 154.425781 256.449219 154.875 256.050781 C 155.324219 255.648438 155.648438 255.273438 155.851562 254.925781 C 156.050781 254.574219 156.148438 254.226562 156.148438 253.875 C 156.148438 253.476562 156.074219 253.175781 155.925781 252.976562 C 155.726562 252.726562 155.449219 252.601562 155.101562 252.601562 C 154.800781 252.601562 154.523438 252.675781 154.273438 252.824219 C 154.074219 252.925781 153.898438 253.125 153.75 253.425781 L 153.074219 253.125 "/>
<path style=" stroke:none;fill-rule:nonzero;fill:rgb(100%,0%,0%);fill-opacity:1;" d="M 164.625 168.601562 C 164.625 167.148438 164.976562 166.023438 165.675781 165.226562 C 166.425781 164.375 167.476562 163.949219 168.824219 163.949219 C 170.125 163.949219 171.148438 164.375 171.898438 165.226562 C 172.601562 166.023438 172.949219 167.148438 172.949219 168.601562 C 172.949219 170.101562 172.601562 171.273438 171.898438 172.125 C 171.148438 172.925781 170.125 173.324219 168.824219 173.324219 C 167.476562 173.324219 166.425781 172.925781 165.675781 172.125 C 164.976562 171.273438 164.625 170.101562 164.625 168.601562 M 168.824219 172.351562 C 169.726562 172.351562 170.425781 172.023438 170.925781 171.375 C 171.425781 170.773438 171.675781 169.851562 171.675781 168.601562 C 171.675781 167.398438 171.425781 166.5 170.925781 165.898438 C 170.425781 165.300781 169.726562 165 168.824219 165 C 167.875 165 167.148438 165.300781 166.648438 165.898438 C 166.148438 166.5 165.898438 167.398438 165.898438 168.601562 C 165.898438 169.851562 166.148438 170.773438 166.648438 171.375 C 167.148438 172.023438 167.875 172.351562 168.824219 172.351562 "/>
<path style=" stroke:none;fill-rule:nonzero;fill:rgb(0%,0%,100%);fill-opacity:1;" d="M 261.898438 174.148438 L 264.898438 179.023438 C 265.101562 179.324219 265.351562 179.75 265.648438 180.300781 C 266 180.898438 266.175781 181.226562 266.175781 181.273438 L 266.175781 174.148438 L 267.375 174.148438 L 267.375 183.300781 L 266.175781 183.300781 L 262.949219 177.976562 C 262.699219 177.574219 262.449219 177.148438 262.199219 176.699219 C 261.898438 176.199219 261.726562 175.875 261.675781 175.726562 L 261.675781 183.300781 L 260.476562 183.300781 L 260.476562 174.148438 L 261.898438 174.148438 "/>
<path style=" stroke:none;fill-rule:nonzero;fill:rgb(100%,0%,0%);fill-opacity:1;" d="M 212.773438 142.199219 C 212.773438 140.75 213.148438 139.601562 213.898438 138.75 C 214.601562 137.949219 215.625 137.550781 216.976562 137.550781 C 218.324219 137.550781 219.375 137.949219 220.125 138.75 C 220.824219 139.601562 221.175781 140.75 221.175781 142.199219 C 221.175781 143.648438 220.800781 144.800781 220.050781 145.648438 C 219.351562 146.5 218.324219 146.925781 216.976562 146.925781 C 215.625 146.925781 214.601562 146.5 213.898438 145.648438 C 213.148438 144.800781 212.773438 143.648438 212.773438 142.199219 M 216.976562 145.875 C 217.925781 145.875 218.648438 145.574219 219.148438 144.976562 C 219.648438 144.324219 219.898438 143.398438 219.898438 142.199219 C 219.898438 141 219.648438 140.101562 219.148438 139.5 C 218.648438 138.898438 217.925781 138.601562 216.976562 138.601562 C 216.074219 138.601562 215.375 138.898438 214.875 139.5 C 214.375 140.101562 214.125 141 214.125 142.199219 C 214.125 143.398438 214.375 144.324219 214.875 144.976562 C 215.375 145.574219 216.074219 145.875 216.976562 145.875 "/>
<path style=" stroke:none;fill-rule:nonzero;fill:rgb(0%,0%,0%);fill-opacity:1;" d="M 238.5 234.523438 L 239.699219 234.523438 L 239.699219 238.425781 L 244.425781 238.425781 L 244.425781 234.523438 L 245.625 234.523438 L 245.625 243.675781 L 244.425781 243.675781 L 244.425781 239.398438 L 239.699219 239.398438 L 239.699219 243.675781 L 238.5 243.675781 L 238.5 234.523438 "/>
</g>
</svg>
