<?xml version="1.0" encoding="UTF-8"?>
<svg xmlns="http://www.w3.org/2000/svg" xmlns:xlink="http://www.w3.org/1999/xlink" width="375pt" height="375pt" viewBox="0 0 375 375" version="1.1">
<g id="surface281">
<rect x="0" y="0" width="375" height="375" style="fill:rgb(100%,100%,100%);fill-opacity:1;stroke:none;"/>
<path style="fill:none;stroke-width:2;stroke-linecap:butt;stroke-linejoin:miter;stroke:rgb(0%,0%,0%);stroke-opacity:1;stroke-miterlimit:4;" d="M 22.697917 237.697917 L 65.302083 231 " transform="matrix(0.75,0,0,0.75,0,0)"/>
<path style="fill:none;stroke-width:2;stroke-linecap:butt;stroke-linejoin:miter;stroke:rgb(0%,0%,0%);stroke-opacity:1;stroke-miterlimit:4;" d="M 65.302083 231 L 92.401042 264.5 " transform="matrix(0.75,0,0,0.75,0,0)"/>
<path style="fill-rule:evenodd;fill:rgb(0%,0%,0%);fill-opacity:1;stroke-width:1;stroke-linecap:butt;stroke-linejoin:miter;stroke:rgb(0%,0%,0%);stroke-opacity:1;stroke-miterlimit:4;" d="M 134.901042 257.802083 L 93 268.802083 L 91.697917 260.302083 Z M 134.901042 257.802083 " transform="matrix(0.75,0,0,0.75,0,0)"/>
<path style="fill:none;stroke-width:2;stroke-linecap:butt;stroke-linejoin:miter;stroke:rgb(0%,0%,0%);stroke-opacity:1;stroke-miterlimit:4;" d="M 134.901042 257.802083 L 165.401042 288.302083 " transform="matrix(0.75,0,0,0.75,0,0)"/>
<path style="fill:none;stroke-width:2;stroke-linecap:butt;stroke-linejoin:miter;stroke:rgb(0%,0%,0%);stroke-opacity:1;stroke-miterlimit:4;" d="M 165.401042 288.302083 L 203.802083 268.802083 " transform="matrix(0.75,0,0,0.75,0,0)"/>
<path style="fill:none;stroke-width:1;stroke-linecap:butt;stroke-linejoin:miter;stroke:rgb(0%,0%,0%);stroke-opacity:1;stroke-miterlimit:4;" d="M 209.802083 272.697917 L 210.5 271.401042 " transform="matrix(0.75,0,0,0.75,0,0)"/>
<path style="fill:none;stroke-width:1;stroke-linecap:butt;stroke-linejoin:miter;stroke:rgb(0%,0%,0%);stroke-opacity:1;stroke-miterlimit:4;" d="M 215.901042 276.598958 L 217.197917 274 " transform="matrix(0.75,0,0,0.75,0,0)"/>
<path style="fill:none;stroke-width:1;stroke-linecap:butt;stroke-linejoin:miter;stroke:rgb(0%,0%,0%);stroke-opacity:1;stroke-miterlimit:4;" d="M 222 280.5 L 223.901042 276.598958 " transform="matrix(0.75,0,0,0.75,0,0)"/>
<path style="fill:none;stroke-width:1;stroke-linecap:butt;stroke-linejoin:miter;stroke:rgb(0%,0%,0%);stroke-opacity:1;stroke-miterlimit:4;" d="M 228 284.401042 L 230.697917 279.302083 " transform="matrix(0.75,0,0,0.75,0,0)"/>
<path style="fill:none;stroke-width:1;stroke-linecap:butt;stroke-linejoin:miter;stroke:rgb(0%,0%,0%);stroke-opacity:1;stroke-miterlimit:4;" d="M 234.098958 288.302083 L 237.401042 281.901042 " transform="matrix(0.75,0,0,0.75,0,0)"/>
<path style="fill:none;stroke-width:1;stroke-linecap:butt;stroke-linejoin:miter;stroke:rgb(0%,0%,0%);stroke-opacity:1;stroke-miterlimit:4;" d="M 240.197917 292.197917 L 244.098958 284.5 " transform="matrix(0.75,0,0,0.75,0,0)"/>
<path style="fill:none;stroke-width:2;stroke-linecap:butt;stroke-linejoin:miter;stroke:rgb(0%,0%,0%);stroke-opacity:1;stroke-miterlimit:4;" d="M 246.401042 288.098958 L 247.401042 305.802083 " transform="matrix(0.75,0,0,0.75,0,0)"/>
<path style="fill:none;stroke-width:2;stroke-linecap:butt;stroke-linejoin:miter;stroke:rgb(100%,0%,0%);stroke-opacity:1;stroke-miterlimit:4;" d="M 247.401042 305.802083 L 248.302083 323.598958 " transform="matrix(0.75,0,0,0.75,0,0)"/>
<path style="fill:none;stroke-width:2;stroke-linecap:butt;stroke-linejoin:miter;stroke:rgb(0%,0%,0%);stroke-opacity:1;stroke-miterlimit:4;" d="M 237.802083 288.598958 L 238.802083 306.302083 " transform="matrix(0.75,0,0,0.75,0,0)"/>
<path style="fill:none;stroke-width:2;stroke-linecap:butt;stroke-linejoin:miter;stroke:rgb(100%,0%,0%);stroke-opacity:1;stroke-miterlimit:4;" d="M 238.802083 306.302083 L 239.697917 324 " transform="matrix(0.75,0,0,0.75,0,0)"/>
<path style="fill:none;stroke-width:2;stroke-linecap:butt;stroke-linejoin:miter;stroke:rgb(0%,0%,0%);stroke-opacity:1;stroke-miterlimit:4;" d="M 242.098958 288.401042 L 257.197917 278.598958 " transform="matrix(0.75,0,0,0.75,0,0)"/>
<path style="fill:none;stroke-width:2;stroke-linecap:butt;stroke-linejoin:miter;stroke:rgb(0%,0%,100%);stroke-opacity:1;stroke-miterlimit:4;" d="M 257.197917 278.598958 L 272.197917 268.802083 " transform="matrix(0.75,0,0,0.75,0,0)"/>
<path style="fill-rule:evenodd;fill:rgb(0%,0%,0%);fill-opacity:1;stroke-width:1;stroke-linecap:butt;stroke-linejoin:miter;stroke:rgb(0%,0%,0%);stroke-opacity:1;stroke-miterlimit:4;" d="M 316.697917 284.5 L 300.197917 278.5 L 302.197917 274.697917 Z M 316.697917 284.5 " transform="matrix(0.75,0,0,0.75,0,0)"/>
<path style="fill-rule:evenodd;fill:rgb(0%,0%,100%);fill-opacity:1;stroke-width:1;stroke-linecap:butt;stroke-linejoin:miter;stroke:rgb(0%,0%,100%);stroke-opacity:1;stroke-miterlimit:4;" d="M 300.197917 278.5 L 287.697917 264.901042 L 283.802083 272.598958 Z M 300.197917 278.5 " transform="matrix(0.75,0,0,0.75,0,0)"/>
<path style="fill-rule:evenodd;fill:rgb(0%,0%,100%);fill-opacity:1;stroke-width:1;stroke-linecap:butt;stroke-linejoin:miter;stroke:rgb(0%,0%,100%);stroke-opacity:1;stroke-miterlimit:4;" d="M 300.197917 278.5 L 302.197917 274.697917 L 287.697917 264.901042 Z M 300.197917 278.5 " transform="matrix(0.75,0,0,0.75,0,0)"/>
<path style="fill:none;stroke-width:2;stroke-linecap:butt;stroke-linejoin:miter;stroke:rgb(0%,0%,0%);stroke-opacity:1;stroke-miterlimit:4;" d="M 316.697917 284.5 L 318.901042 327.5 " transform="matrix(0.75,0,0,0.75,0,0)"/>
<path style="fill-rule:evenodd;fill:rgb(0%,0%,0%);fill-opacity:1;stroke-width:1;stroke-linecap:butt;stroke-linejoin:miter;stroke:rgb(0%,0%,0%);stroke-opacity:1;stroke-miterlimit:4;" d="M 318.901042 327.5 L 285.098958 354.598958 L 280.401042 347.401042 Z M 318.901042 327.5 " transform="matrix(0.75,0,0,0.75,0,0)"/>
<path style="fill:none;stroke-width:2;stroke-linecap:butt;stroke-linejoin:miter;stroke:rgb(0%,0%,0%);stroke-opacity:1;stroke-miterlimit:4;" d="M 318.901042 327.5 L 335 335.802083 " transform="matrix(0.75,0,0,0.75,0,0)"/>
<path style="fill:none;stroke-width:2;stroke-linecap:butt;stroke-linejoin:miter;stroke:rgb(0%,80%,0%);stroke-opacity:1;stroke-miterlimit:4;" d="M 335 335.802083 L 351.098958 344 " transform="matrix(0.75,0,0,0.75,0,0)"/>
<path style="fill:none;stroke-width:2;stroke-linecap:butt;stroke-linejoin:miter;stroke:rgb(0%,0%,0%);stroke-opacity:1;stroke-miterlimit:4;" d="M 316.697917 284.5 L 352.802083 261.098958 " transform="matrix(0.75,0,0,0.75,0,0)"/>
<path style="fill:none;stroke-width:1;stroke-linecap:butt;stroke-linejoin:miter;stroke:rgb(0%,0%,0%);stroke-opacity:1;stroke-miterlimit:4;" d="M 357.5 264.302083 L 358.098958 263 " transform="matrix(0.75,0,0,0.75,0,0)"/>
<path style="fill:none;stroke-width:1;stroke-linecap:butt;stroke-linejoin:miter;stroke:rgb(0%,0%,0%);stroke-opacity:1;stroke-miterlimit:4;" d="M 362.098958 267.401042 L 363.401042 264.901042 " transform="matrix(0.75,0,0,0.75,0,0)"/>
<path style="fill:none;stroke-width:1;stroke-linecap:butt;stroke-linejoin:miter;stroke:rgb(0%,0%,0%);stroke-opacity:1;stroke-miterlimit:4;" d="M 366.802083 270.598958 L 368.802083 266.802083 " transform="matrix(0.75,0,0,0.75,0,0)"/>
<path style="fill:none;stroke-width:1;stroke-linecap:butt;stroke-linejoin:miter;stroke:rgb(100%,0%,0%);stroke-opacity:1;stroke-miterlimit:4;" d="M 371.5 273.802083 L 374.098958 268.697917 " transform="matrix(0.75,0,0,0.75,0,0)"/>
<path style="fill:none;stroke-width:1;stroke-linecap:butt;stroke-linejoin:miter;stroke:rgb(100%,0%,0%);stroke-opacity:1;stroke-miterlimit:4;" d="M 376.098958 277 L 379.401042 270.598958 " transform="matrix(0.75,0,0,0.75,0,0)"/>
<path style="fill:none;stroke-width:1;stroke-linecap:butt;stroke-linejoin:miter;stroke:rgb(100%,0%,0%);stroke-opacity:1;stroke-miterlimit:4;" d="M 380.802083 280.197917 L 384.697917 272.5 " transform="matrix(0.75,0,0,0.75,0,0)"/>
<path style="fill:none;stroke-width:2;stroke-linecap:butt;stroke-linejoin:miter;stroke:rgb(100%,0%,0%);stroke-opacity:1;stroke-miterlimit:4;" d="M 398.197917 276.098958 L 412.802083 266.697917 " transform="matrix(0.75,0,0,0.75,0,0)"/>
<path style="fill:none;stroke-width:2;stroke-linecap:butt;stroke-linejoin:miter;stroke:rgb(0%,0%,0%);stroke-opacity:1;stroke-miterlimit:4;" d="M 412.802083 266.697917 L 427.302083 257.197917 " transform="matrix(0.75,0,0,0.75,0,0)"/>
<path style="fill-rule:evenodd;fill:rgb(0%,0%,0%);fill-opacity:1;stroke-width:1;stroke-linecap:butt;stroke-linejoin:miter;stroke:rgb(0%,0%,0%);stroke-opacity:1;stroke-miterlimit:4;" d="M 427.302083 257.197917 L 444.098958 263.401042 L 442.197917 267.197917 Z M 427.302083 257.197917 " transform="matrix(0.75,0,0,0.75,0,0)"/>
<path style="fill-rule:evenodd;fill:rgb(80%,80%,0%);fill-opacity:1;stroke-width:1;stroke-linecap:butt;stroke-linejoin:miter;stroke:rgb(80%,80%,0%);stroke-opacity:1;stroke-miterlimit:4;" d="M 444.098958 263.401042 L 457 277.197917 L 460.901042 269.5 Z M 444.098958 263.401042 " transform="matrix(0.75,0,0,0.75,0,0)"/>
<path style="fill-rule:evenodd;fill:rgb(80%,80%,0%);fill-opacity:1;stroke-width:1;stroke-linecap:butt;stroke-linejoin:miter;stroke:rgb(80%,80%,0%);stroke-opacity:1;stroke-miterlimit:4;" d="M 444.098958 263.401042 L 442.197917 267.197917 L 457 277.197917 Z M 444.098958 263.401042 " transform="matrix(0.75,0,0,0.75,0,0)"/>
<path style="fill:none;stroke-width:2;stroke-linecap:butt;stroke-linejoin:miter;stroke:rgb(80%,80%,0%);stroke-opacity:1;stroke-miterlimit:4;" d="M 466.098958 284.598958 L 467 302.197917 " transform="matrix(0.75,0,0,0.75,0,0)"/>
<path style="fill:none;stroke-width:2;stroke-linecap:butt;stroke-linejoin:miter;stroke:rgb(0%,0%,0%);stroke-opacity:1;stroke-miterlimit:4;" d="M 467 302.197917 L 467.901042 319.802083 " transform="matrix(0.75,0,0,0.75,0,0)"/>
<path style="fill:none;stroke-width:2;stroke-linecap:butt;stroke-linejoin:miter;stroke:rgb(0%,0%,0%);stroke-opacity:1;stroke-miterlimit:4;" d="M 427.302083 257.197917 L 425.098958 214.197917 " transform="matrix(0.75,0,0,0.75,0,0)"/>
<path style="fill-rule:evenodd;fill:rgb(0%,0%,0%);fill-opacity:1;stroke-width:1;stroke-linecap:butt;stroke-linejoin:miter;stroke:rgb(0%,0%,0%);stroke-opacity:1;stroke-miterlimit:4;" d="M 425.098958 214.197917 L 437.802083 203.401042 L 440.098958 207 Z M 425.098958 214.197917 " transform="matrix(0.75,0,0,0.75,0,0)"/>
<path style="fill-rule:evenodd;fill:rgb(100%,0%,0%);fill-opacity:1;stroke-width:1;stroke-linecap:butt;stroke-linejoin:miter;stroke:rgb(100%,0%,0%);stroke-opacity:1;stroke-miterlimit:4;" d="M 437.802083 203.401042 L 455.197917 199.901042 L 450.5 192.598958 Z M 437.802083 203.401042 " transform="matrix(0.75,0,0,0.75,0,0)"/>
<path style="fill-rule:evenodd;fill:rgb(100%,0%,0%);fill-opacity:1;stroke-width:1;stroke-linecap:butt;stroke-linejoin:miter;stroke:rgb(100%,0%,0%);stroke-opacity:1;stroke-miterlimit:4;" d="M 437.802083 203.401042 L 440.098958 207 L 455.197917 199.901042 Z M 437.802083 203.401042 " transform="matrix(0.75,0,0,0.75,0,0)"/>
<path style="fill:none;stroke-width:2;stroke-linecap:butt;stroke-linejoin:miter;stroke:rgb(0%,0%,0%);stroke-opacity:1;stroke-miterlimit:4;" d="M 425.098958 214.197917 L 386.697917 194.598958 " transform="matrix(0.75,0,0,0.75,0,0)"/>
<path style="fill:none;stroke-width:1;stroke-linecap:butt;stroke-linejoin:miter;stroke:rgb(0%,0%,0%);stroke-opacity:1;stroke-miterlimit:4;" d="M 387.197917 188.901042 L 385.697917 189 " transform="matrix(0.75,0,0,0.75,0,0)"/>
<path style="fill:none;stroke-width:1;stroke-linecap:butt;stroke-linejoin:miter;stroke:rgb(0%,0%,0%);stroke-opacity:1;stroke-miterlimit:4;" d="M 387.598958 183.302083 L 384.697917 183.401042 " transform="matrix(0.75,0,0,0.75,0,0)"/>
<path style="fill:none;stroke-width:1;stroke-linecap:butt;stroke-linejoin:miter;stroke:rgb(0%,0%,0%);stroke-opacity:1;stroke-miterlimit:4;" d="M 388 177.598958 L 383.697917 177.802083 " transform="matrix(0.75,0,0,0.75,0,0)"/>
<path style="fill:none;stroke-width:1;stroke-linecap:butt;stroke-linejoin:miter;stroke:rgb(100%,0%,0%);stroke-opacity:1;stroke-miterlimit:4;" d="M 388.401042 171.901042 L 382.697917 172.197917 " transform="matrix(0.75,0,0,0.75,0,0)"/>
<path style="fill:none;stroke-width:1;stroke-linecap:butt;stroke-linejoin:miter;stroke:rgb(100%,0%,0%);stroke-opacity:1;stroke-miterlimit:4;" d="M 388.901042 166.197917 L 381.697917 166.598958 " transform="matrix(0.75,0,0,0.75,0,0)"/>
<path style="fill:none;stroke-width:1;stroke-linecap:butt;stroke-linejoin:miter;stroke:rgb(100%,0%,0%);stroke-opacity:1;stroke-miterlimit:4;" d="M 389.302083 160.598958 L 380.697917 161 " transform="matrix(0.75,0,0,0.75,0,0)"/>
<path style="fill:none;stroke-width:2;stroke-linecap:butt;stroke-linejoin:miter;stroke:rgb(0%,0%,0%);stroke-opacity:1;stroke-miterlimit:4;" d="M 386.697917 194.598958 L 350.598958 218 " transform="matrix(0.75,0,0,0.75,0,0)"/>
<path style="fill:none;stroke-width:1;stroke-linecap:butt;stroke-linejoin:miter;stroke:rgb(0%,0%,0%);stroke-opacity:1;stroke-miterlimit:4;" d="M 345.901042 214.901042 L 345.302083 216.098958 " transform="matrix(0.75,0,0,0.75,0,0)"/>
<path style="fill:none;stroke-width:1;stroke-linecap:butt;stroke-linejoin:miter;stroke:rgb(0%,0%,0%);stroke-opacity:1;stroke-miterlimit:4;" d="M 341.302083 211.697917 L 340 214.197917 " transform="matrix(0.75,0,0,0.75,0,0)"/>
<path style="fill:none;stroke-width:1;stroke-linecap:butt;stroke-linejoin:miter;stroke:rgb(0%,0%,0%);stroke-opacity:1;stroke-miterlimit:4;" d="M 336.598958 208.5 L 334.598958 212.302083 " transform="matrix(0.75,0,0,0.75,0,0)"/>
<path style="fill:none;stroke-width:1;stroke-linecap:butt;stroke-linejoin:miter;stroke:rgb(100%,0%,0%);stroke-opacity:1;stroke-miterlimit:4;" d="M 331.901042 205.302083 L 329.302083 210.401042 " transform="matrix(0.75,0,0,0.75,0,0)"/>
<path style="fill:none;stroke-width:1;stroke-linecap:butt;stroke-linejoin:miter;stroke:rgb(100%,0%,0%);stroke-opacity:1;stroke-miterlimit:4;" d="M 327.302083 202.098958 L 324 208.5 " transform="matrix(0.75,0,0,0.75,0,0)"/>
<path style="fill:none;stroke-width:1;stroke-linecap:butt;stroke-linejoin:miter;stroke:rgb(100%,0%,0%);stroke-opacity:1;stroke-miterlimit:4;" d="M 322.598958 198.901042 L 318.697917 206.598958 " transform="matrix(0.75,0,0,0.75,0,0)"/>
<path style="fill:none;stroke-width:2;stroke-linecap:butt;stroke-linejoin:miter;stroke:rgb(0%,0%,0%);stroke-opacity:1;stroke-miterlimit:4;" d="M 203.802083 268.802083 L 201 251.197917 " transform="matrix(0.75,0,0,0.75,0,0)"/>
<path style="fill:none;stroke-width:2;stroke-linecap:butt;stroke-linejoin:miter;stroke:rgb(0%,0%,100%);stroke-opacity:1;stroke-miterlimit:4;" d="M 201 251.197917 L 198.197917 233.697917 " transform="matrix(0.75,0,0,0.75,0,0)"/>
<path style="fill:none;stroke-width:2;stroke-linecap:butt;stroke-linejoin:miter;stroke:rgb(0%,0%,100%);stroke-opacity:1;stroke-miterlimit:4;" d="M 203.098958 220.197917 L 215.302083 208 " transform="matrix(0.75,0,0,0.75,0,0)"/>
<path style="fill:none;stroke-width:2;stroke-linecap:butt;stroke-linejoin:miter;stroke:rgb(0%,0%,0%);stroke-opacity:1;stroke-miterlimit:4;" d="M 215.302083 208 L 227.598958 195.802083 " transform="matrix(0.75,0,0,0.75,0,0)"/>
<path style="fill:none;stroke-width:2;stroke-linecap:butt;stroke-linejoin:miter;stroke:rgb(0%,0%,100%);stroke-opacity:1;stroke-miterlimit:4;" d="M 191 225.197917 L 172.802083 222.302083 " transform="matrix(0.75,0,0,0.75,0,0)"/>
<path style="fill:none;stroke-width:2;stroke-linecap:butt;stroke-linejoin:miter;stroke:rgb(0%,0%,0%);stroke-opacity:1;stroke-miterlimit:4;" d="M 172.802083 222.302083 L 154.5 219.401042 " transform="matrix(0.75,0,0,0.75,0,0)"/>
<path style="fill:none;stroke-width:2;stroke-linecap:butt;stroke-linejoin:miter;stroke:rgb(0%,0%,0%);stroke-opacity:1;stroke-miterlimit:4;" d="M 154.5 219.401042 L 134.901042 257.802083 " transform="matrix(0.75,0,0,0.75,0,0)"/>
<path style="fill:none;stroke-width:2;stroke-linecap:butt;stroke-linejoin:miter;stroke:rgb(0%,0%,0%);stroke-opacity:1;stroke-miterlimit:4;" d="M 350.598958 218 L 352.802083 261.098958 " transform="matrix(0.75,0,0,0.75,0,0)"/>
<path style=" stroke:none;fill-rule:nonzero;fill:rgb(100%,0%,0%);fill-opacity:1;" d="M 179.101562 248.550781 C 179.101562 247.101562 179.449219 245.949219 180.148438 245.101562 C 180.898438 244.300781 181.949219 243.898438 183.300781 243.898438 C 184.648438 243.898438 185.675781 244.300781 186.375 245.101562 C 187.125 245.949219 187.5 247.101562 187.5 248.550781 C 187.5 250.050781 187.125 251.226562 186.375 252.074219 C 185.625 252.875 184.601562 253.273438 183.300781 253.273438 C 181.949219 253.273438 180.898438 252.875 180.148438 252.074219 C 179.449219 251.226562 179.101562 250.050781 179.101562 248.550781 M 183.300781 252.300781 C 184.199219 252.300781 184.898438 251.976562 185.398438 251.324219 C 185.898438 250.726562 186.148438 249.800781 186.148438 248.550781 C 186.148438 247.351562 185.898438 246.449219 185.398438 245.851562 C 184.898438 245.25 184.199219 244.949219 183.300781 244.949219 C 182.351562 244.949219 181.625 245.25 181.125 245.851562 C 180.625 246.449219 180.375 247.351562 180.375 248.550781 C 180.375 249.800781 180.625 250.726562 181.125 251.324219 C 181.625 251.976562 182.351562 252.300781 183.300781 252.300781 "/>
<path style=" stroke:none;fill-rule:nonzero;fill:rgb(0%,0%,100%);fill-opacity:1;" d="M 206.699219 194.101562 L 209.699219 198.976562 C 209.898438 199.273438 210.148438 199.726562 210.449219 200.324219 C 210.800781 200.875 210.976562 201.175781 210.976562 201.226562 L 210.976562 194.101562 L 212.175781 194.101562 L 212.175781 203.25 L 210.898438 203.25 L 207.75 198 C 207.5 197.550781 207.226562 197.101562 206.925781 196.648438 C 206.675781 196.148438 206.5 195.824219 206.398438 195.675781 L 206.398438 203.25 L 205.273438 203.25 L 205.273438 194.101562 L 206.699219 194.101562 "/>
<path style=" stroke:none;fill-rule:nonzero;fill:rgb(0%,0%,100%);fill-opacity:1;" d="M 205.125 184.050781 L 206.398438 184.050781 L 206.398438 187.949219 L 211.050781 187.949219 L 211.050781 184.050781 L 212.324219 184.050781 L 212.324219 193.199219 L 211.050781 193.199219 L 211.050781 189 L 206.398438 189 L 206.398438 193.199219 L 205.125 193.199219 L 205.125 184.050781 "/>
<path style=" stroke:none;fill-rule:nonzero;fill:rgb(0%,80%,0%);fill-opacity:1;" d="M 264.375 260.625 C 264.375 259.125 264.75 257.976562 265.5 257.175781 C 266.199219 256.375 267.226562 255.976562 268.574219 255.976562 C 269.824219 255.976562 270.800781 256.425781 271.5 257.324219 L 270.601562 258 C 270.101562 257.351562 269.425781 257.023438 268.574219 257.023438 C 267.675781 257.023438 266.976562 257.351562 266.476562 258 C 265.976562 258.601562 265.726562 259.476562 265.726562 260.625 C 265.726562 261.875 265.976562 262.800781 266.476562 263.398438 C 266.976562 264 267.726562 264.300781 268.726562 264.300781 C 269.375 264.300781 270.101562 264.101562 270.898438 263.699219 L 271.273438 264.675781 C 270.925781 264.875 270.523438 265.050781 270.074219 265.199219 C 269.574219 265.300781 269.050781 265.351562 268.5 265.351562 C 267.199219 265.351562 266.199219 264.949219 265.5 264.148438 C 264.75 263.351562 264.375 262.175781 264.375 260.625 "/>
<path style=" stroke:none;fill-rule:nonzero;fill:rgb(0%,80%,0%);fill-opacity:1;" d="M 271.949219 255.449219 L 273.148438 255.449219 L 273.148438 265.273438 L 271.949219 265.273438 L 271.949219 255.449219 "/>
<path style=" stroke:none;fill-rule:nonzero;fill:rgb(100%,0%,0%);fill-opacity:1;" d="M 289.199219 210.523438 C 289.199219 209.074219 289.550781 207.925781 290.25 207.074219 C 291 206.273438 292.050781 205.875 293.398438 205.875 C 294.75 205.875 295.773438 206.273438 296.476562 207.074219 C 297.226562 207.925781 297.601562 209.074219 297.601562 210.523438 C 297.601562 212.023438 297.226562 213.175781 296.476562 213.976562 C 295.773438 214.824219 294.75 215.25 293.398438 215.25 C 292.050781 215.25 291 214.824219 290.25 213.976562 C 289.550781 213.175781 289.199219 212.023438 289.199219 210.523438 M 293.398438 214.199219 C 294.300781 214.199219 295 213.898438 295.5 213.300781 C 296.050781 212.648438 296.324219 211.726562 296.324219 210.523438 C 296.324219 209.324219 296.050781 208.425781 295.5 207.824219 C 295 207.226562 294.300781 206.925781 293.398438 206.925781 C 292.449219 206.925781 291.726562 207.226562 291.226562 207.824219 C 290.726562 208.425781 290.476562 209.324219 290.476562 210.523438 C 290.476562 211.773438 290.726562 212.699219 291.226562 213.300781 C 291.726562 213.898438 292.449219 214.199219 293.398438 214.199219 "/>
<path style=" stroke:none;fill-rule:nonzero;fill:rgb(80%,80%,0%);fill-opacity:1;" d="M 346.726562 210.75 C 346.773438 210.800781 346.949219 210.875 347.25 210.976562 C 347.5 211.074219 347.800781 211.175781 348.148438 211.273438 C 348.449219 211.324219 348.75 211.351562 349.050781 211.351562 C 349.648438 211.351562 350.101562 211.226562 350.398438 210.976562 C 350.75 210.675781 350.925781 210.273438 350.925781 209.773438 C 350.925781 209.476562 350.851562 209.199219 350.699219 208.949219 C 350.5 208.75 350.273438 208.601562 350.023438 208.5 C 349.773438 208.398438 349.425781 208.273438 348.976562 208.125 C 348.476562 207.976562 348.050781 207.824219 347.699219 207.675781 C 347.398438 207.523438 347.125 207.273438 346.875 206.925781 C 346.675781 206.625 346.574219 206.199219 346.574219 205.648438 C 346.574219 204.851562 346.824219 204.226562 347.324219 203.773438 C 347.824219 203.273438 348.601562 203.023438 349.648438 203.023438 C 350.351562 203.023438 351.101562 203.199219 351.898438 203.550781 L 351.601562 204.523438 C 350.898438 204.226562 350.273438 204.074219 349.726562 204.074219 C 349.125 204.074219 348.648438 204.199219 348.300781 204.449219 C 348 204.699219 347.851562 205.050781 347.851562 205.5 C 347.851562 205.800781 347.925781 206.050781 348.074219 206.25 C 348.226562 206.449219 348.425781 206.601562 348.675781 206.699219 C 348.925781 206.851562 349.273438 206.976562 349.726562 207.074219 C 350.273438 207.273438 350.699219 207.449219 351 207.601562 C 351.351562 207.75 351.625 208.023438 351.824219 208.425781 C 352.074219 208.726562 352.199219 209.175781 352.199219 209.773438 C 352.199219 210.625 351.925781 211.273438 351.375 211.726562 C 350.824219 212.175781 350.074219 212.398438 349.125 212.398438 C 348.574219 212.398438 348.101562 212.351562 347.699219 212.25 C 347.300781 212.148438 346.851562 212 346.351562 211.800781 L 346.726562 210.75 "/>
<path style=" stroke:none;fill-rule:nonzero;fill:rgb(100%,0%,0%);fill-opacity:1;" d="M 341.773438 143.101562 C 341.773438 141.648438 342.125 140.5 342.824219 139.648438 C 343.574219 138.851562 344.625 138.449219 345.976562 138.449219 C 347.324219 138.449219 348.351562 138.851562 349.050781 139.648438 C 349.800781 140.5 350.175781 141.648438 350.175781 143.101562 C 350.175781 144.601562 349.800781 145.773438 349.050781 146.625 C 348.300781 147.425781 347.273438 147.824219 345.976562 147.824219 C 344.625 147.824219 343.574219 147.425781 342.824219 146.625 C 342.125 145.773438 341.773438 144.601562 341.773438 143.101562 M 345.976562 146.773438 C 346.875 146.773438 347.574219 146.476562 348.074219 145.875 C 348.574219 145.226562 348.824219 144.300781 348.824219 143.101562 C 348.824219 141.898438 348.574219 141 348.074219 140.398438 C 347.574219 139.800781 346.875 139.5 345.976562 139.5 C 345.023438 139.5 344.300781 139.800781 343.800781 140.398438 C 343.300781 141 343.050781 141.898438 343.050781 143.101562 C 343.050781 144.351562 343.300781 145.273438 343.800781 145.875 C 344.300781 146.476562 345.023438 146.773438 345.976562 146.773438 "/>
<path style=" stroke:none;fill-rule:nonzero;fill:rgb(100%,0%,0%);fill-opacity:1;" d="M 350.773438 138.523438 L 352.050781 138.523438 L 352.050781 142.425781 L 356.699219 142.425781 L 356.699219 138.523438 L 357.976562 138.523438 L 357.976562 147.675781 L 356.699219 147.675781 L 356.699219 143.476562 L 352.050781 143.476562 L 352.050781 147.675781 L 350.773438 147.675781 L 350.773438 138.523438 "/>
<path style=" stroke:none;fill-rule:nonzero;fill:rgb(100%,0%,0%);fill-opacity:1;" d="M 284.175781 113.699219 C 284.175781 112.25 284.550781 111.125 285.300781 110.324219 C 286 109.476562 287.023438 109.050781 288.375 109.050781 C 289.726562 109.050781 290.773438 109.476562 291.523438 110.324219 C 292.226562 111.125 292.574219 112.25 292.574219 113.699219 C 292.574219 115.199219 292.226562 116.375 291.523438 117.226562 C 290.773438 118.023438 289.726562 118.425781 288.375 118.425781 C 287.023438 118.425781 286 118.023438 285.300781 117.226562 C 284.550781 116.375 284.175781 115.199219 284.175781 113.699219 M 288.375 117.449219 C 289.324219 117.449219 290.050781 117.125 290.550781 116.476562 C 291.050781 115.875 291.300781 114.949219 291.300781 113.699219 C 291.300781 112.5 291.050781 111.601562 290.550781 111 C 290.050781 110.398438 289.324219 110.101562 288.375 110.101562 C 287.476562 110.101562 286.75 110.398438 286.199219 111 C 285.699219 111.601562 285.449219 112.5 285.449219 113.699219 C 285.449219 114.949219 285.699219 115.875 286.199219 116.476562 C 286.75 117.125 287.476562 117.449219 288.375 117.449219 "/>
<path style=" stroke:none;fill-rule:nonzero;fill:rgb(100%,0%,0%);fill-opacity:1;" d="M 293.25 109.199219 L 294.449219 109.199219 L 294.449219 113.023438 L 299.175781 113.023438 L 299.175781 109.199219 L 300.375 109.199219 L 300.375 118.351562 L 299.175781 118.351562 L 299.175781 114.074219 L 294.449219 114.074219 L 294.449219 118.351562 L 293.25 118.351562 L 293.25 109.199219 "/>
<path style=" stroke:none;fill-rule:nonzero;fill:rgb(100%,0%,0%);fill-opacity:1;" d="M 221.699219 144.300781 L 222.976562 144.300781 L 222.976562 148.199219 L 227.625 148.199219 L 227.625 144.300781 L 228.898438 144.300781 L 228.898438 153.449219 L 227.625 153.449219 L 227.625 149.25 L 222.976562 149.25 L 222.976562 153.449219 L 221.699219 153.449219 L 221.699219 144.300781 "/>
<path style=" stroke:none;fill-rule:nonzero;fill:rgb(100%,0%,0%);fill-opacity:1;" d="M 229.949219 148.875 C 229.949219 147.425781 230.324219 146.273438 231.074219 145.425781 C 231.773438 144.625 232.800781 144.226562 234.148438 144.226562 C 235.5 144.226562 236.550781 144.625 237.300781 145.425781 C 238 146.273438 238.351562 147.425781 238.351562 148.875 C 238.351562 150.375 238 151.523438 237.300781 152.324219 C 236.550781 153.175781 235.5 153.601562 234.148438 153.601562 C 232.800781 153.601562 231.773438 153.175781 231.074219 152.324219 C 230.324219 151.523438 229.949219 150.375 229.949219 148.875 M 234.148438 152.550781 C 235.101562 152.550781 235.824219 152.25 236.324219 151.648438 C 236.824219 151 237.074219 150.074219 237.074219 148.875 C 237.074219 147.675781 236.824219 146.773438 236.324219 146.175781 C 235.824219 145.574219 235.101562 145.273438 234.148438 145.273438 C 233.25 145.273438 232.523438 145.574219 231.976562 146.175781 C 231.476562 146.773438 231.226562 147.675781 231.226562 148.875 C 231.226562 150.125 231.476562 151.050781 231.976562 151.648438 C 232.523438 152.25 233.25 152.550781 234.148438 152.550781 "/>
<path style=" stroke:none;fill-rule:nonzero;fill:rgb(0%,0%,100%);fill-opacity:1;" d="M 145.800781 165.074219 L 148.800781 169.949219 C 149 170.25 149.25 170.699219 149.550781 171.300781 C 149.851562 171.851562 150.023438 172.148438 150.074219 172.199219 L 150.074219 165.074219 L 151.273438 165.074219 L 151.273438 174.226562 L 150 174.226562 L 146.773438 168.898438 C 146.523438 168.5 146.273438 168.074219 146.023438 167.625 C 145.773438 167.125 145.601562 166.800781 145.5 166.648438 L 145.5 174.226562 L 144.300781 174.226562 L 144.300781 165.074219 L 145.800781 165.074219 "/>
</g>
</svg>
