<?xml version="1.0" encoding="UTF-8"?>
<svg xmlns="http://www.w3.org/2000/svg" xmlns:xlink="http://www.w3.org/1999/xlink" width="375pt" height="375pt" viewBox="0 0 375 375" version="1.1">
<g id="surface41">
<rect x="0" y="0" width="375" height="375" style="fill:rgb(100%,100%,100%);fill-opacity:1;stroke:none;"/>
<path style="fill:none;stroke-width:2;stroke-linecap:butt;stroke-linejoin:miter;stroke:rgb(0%,0%,100%);stroke-opacity:1;stroke-miterlimit:4;" d="M 66.197917 185.401042 L 82.697917 204.098958 " transform="matrix(0.75,0,0,0.75,0,0)"/>
<path style="fill:none;stroke-width:2;stroke-linecap:butt;stroke-linejoin:miter;stroke:rgb(0%,0%,0%);stroke-opacity:1;stroke-miterlimit:4;" d="M 82.697917 204.098958 L 99.098958 222.802083 " transform="matrix(0.75,0,0,0.75,0,0)"/>
<path style="fill:none;stroke-width:2;stroke-linecap:butt;stroke-linejoin:miter;stroke:rgb(0%,0%,0%);stroke-opacity:1;stroke-miterlimit:4;" d="M 95.5 218.697917 L 86.901042 244.401042 " transform="matrix(0.75,0,0,0.75,0,0)"/>
<path style="fill:none;stroke-width:2;stroke-linecap:butt;stroke-linejoin:miter;stroke:rgb(100%,0%,0%);stroke-opacity:1;stroke-miterlimit:4;" d="M 86.901042 244.401042 L 78.197917 270.098958 " transform="matrix(0.75,0,0,0.75,0,0)"/>
<path style="fill:none;stroke-width:2;stroke-linecap:butt;stroke-linejoin:miter;stroke:rgb(0%,0%,0%);stroke-opacity:1;stroke-miterlimit:4;" d="M 104.5 221.697917 L 95.901042 247.401042 " transform="matrix(0.75,0,0,0.75,0,0)"/>
<path style="fill:none;stroke-width:2;stroke-linecap:butt;stroke-linejoin:miter;stroke:rgb(100%,0%,0%);stroke-opacity:1;stroke-miterlimit:4;" d="M 95.901042 247.401042 L 87.197917 273.098958 " transform="matrix(0.75,0,0,0.75,0,0)"/>
<path style="fill:none;stroke-width:1;stroke-linecap:butt;stroke-linejoin:miter;stroke:rgb(0%,0%,0%);stroke-opacity:1;stroke-miterlimit:4;" d="M 157.697917 210.697917 L 157.802083 211.197917 " transform="matrix(0.75,0,0,0.75,0,0)"/>
<path style="fill:none;stroke-width:1;stroke-linecap:butt;stroke-linejoin:miter;stroke:rgb(0%,0%,0%);stroke-opacity:1;stroke-miterlimit:4;" d="M 154.197917 211.098958 L 154.401042 212.197917 " transform="matrix(0.75,0,0,0.75,0,0)"/>
<path style="fill:none;stroke-width:1;stroke-linecap:butt;stroke-linejoin:miter;stroke:rgb(0%,0%,0%);stroke-opacity:1;stroke-miterlimit:4;" d="M 150.697917 211.5 L 151 213.197917 " transform="matrix(0.75,0,0,0.75,0,0)"/>
<path style="fill:none;stroke-width:1;stroke-linecap:butt;stroke-linejoin:miter;stroke:rgb(0%,0%,0%);stroke-opacity:1;stroke-miterlimit:4;" d="M 147.197917 212 L 147.598958 214.098958 " transform="matrix(0.75,0,0,0.75,0,0)"/>
<path style="fill:none;stroke-width:1;stroke-linecap:butt;stroke-linejoin:miter;stroke:rgb(0%,0%,0%);stroke-opacity:1;stroke-miterlimit:4;" d="M 143.697917 212.401042 L 144.197917 215.098958 " transform="matrix(0.75,0,0,0.75,0,0)"/>
<path style="fill:none;stroke-width:1;stroke-linecap:butt;stroke-linejoin:miter;stroke:rgb(0%,0%,0%);stroke-opacity:1;stroke-miterlimit:4;" d="M 140.197917 212.802083 L 140.802083 216.098958 " transform="matrix(0.75,0,0,0.75,0,0)"/>
<path style="fill:none;stroke-width:1;stroke-linecap:butt;stroke-linejoin:miter;stroke:rgb(0%,0%,0%);stroke-opacity:1;stroke-miterlimit:4;" d="M 136.697917 213.197917 L 137.401042 217.098958 " transform="matrix(0.75,0,0,0.75,0,0)"/>
<path style="fill:none;stroke-width:1;stroke-linecap:butt;stroke-linejoin:miter;stroke:rgb(0%,0%,0%);stroke-opacity:1;stroke-miterlimit:4;" d="M 133.197917 213.598958 L 134 218 " transform="matrix(0.75,0,0,0.75,0,0)"/>
<path style="fill:none;stroke-width:1;stroke-linecap:butt;stroke-linejoin:miter;stroke:rgb(0%,0%,0%);stroke-opacity:1;stroke-miterlimit:4;" d="M 129.697917 214.098958 L 130.697917 219 " transform="matrix(0.75,0,0,0.75,0,0)"/>
<path style="fill:none;stroke-width:1;stroke-linecap:butt;stroke-linejoin:miter;stroke:rgb(0%,0%,0%);stroke-opacity:1;stroke-miterlimit:4;" d="M 126.197917 214.5 L 127.302083 220 " transform="matrix(0.75,0,0,0.75,0,0)"/>
<path style="fill:none;stroke-width:1;stroke-linecap:butt;stroke-linejoin:miter;stroke:rgb(0%,0%,0%);stroke-opacity:1;stroke-miterlimit:4;" d="M 122.697917 214.901042 L 123.901042 220.901042 " transform="matrix(0.75,0,0,0.75,0,0)"/>
<path style="fill:none;stroke-width:1;stroke-linecap:butt;stroke-linejoin:miter;stroke:rgb(0%,0%,0%);stroke-opacity:1;stroke-miterlimit:4;" d="M 119.197917 215.302083 L 120.5 221.901042 " transform="matrix(0.75,0,0,0.75,0,0)"/>
<path style="fill:none;stroke-width:1;stroke-linecap:butt;stroke-linejoin:miter;stroke:rgb(0%,0%,0%);stroke-opacity:1;stroke-miterlimit:4;" d="M 115.697917 215.697917 L 117.098958 222.901042 " transform="matrix(0.75,0,0,0.75,0,0)"/>
<path style="fill:none;stroke-width:1;stroke-linecap:butt;stroke-linejoin:miter;stroke:rgb(0%,0%,0%);stroke-opacity:1;stroke-miterlimit:4;" d="M 112.197917 216.197917 L 113.697917 223.802083 " transform="matrix(0.75,0,0,0.75,0,0)"/>
<path style="fill:none;stroke-width:1;stroke-linecap:butt;stroke-linejoin:miter;stroke:rgb(0%,0%,0%);stroke-opacity:1;stroke-miterlimit:4;" d="M 108.697917 216.598958 L 110.302083 224.802083 " transform="matrix(0.75,0,0,0.75,0,0)"/>
<path style="fill:none;stroke-width:1;stroke-linecap:butt;stroke-linejoin:miter;stroke:rgb(0%,0%,0%);stroke-opacity:1;stroke-miterlimit:4;" d="M 105.197917 217 L 106.901042 225.802083 " transform="matrix(0.75,0,0,0.75,0,0)"/>
<path style="fill:none;stroke-width:1;stroke-linecap:butt;stroke-linejoin:miter;stroke:rgb(0%,0%,0%);stroke-opacity:1;stroke-miterlimit:4;" d="M 101.697917 217.401042 L 103.598958 226.802083 " transform="matrix(0.75,0,0,0.75,0,0)"/>
<path style="fill:none;stroke-width:2;stroke-linecap:butt;stroke-linejoin:miter;stroke:rgb(0%,0%,0%);stroke-opacity:1;stroke-miterlimit:4;" d="M 161.197917 210.302083 L 181.302083 150.302083 " transform="matrix(0.75,0,0,0.75,0,0)"/>
<path style="fill:none;stroke-width:2;stroke-linecap:butt;stroke-linejoin:miter;stroke:rgb(0%,0%,0%);stroke-opacity:1;stroke-miterlimit:4;" d="M 181.302083 150.302083 L 243.302083 137.802083 " transform="matrix(0.75,0,0,0.75,0,0)"/>
<path style="fill:none;stroke-width:2;stroke-linecap:butt;stroke-linejoin:miter;stroke:rgb(0%,0%,0%);stroke-opacity:1;stroke-miterlimit:4;" d="M 243.302083 137.802083 L 285.197917 185.197917 " transform="matrix(0.75,0,0,0.75,0,0)"/>
<path style="fill:none;stroke-width:2;stroke-linecap:butt;stroke-linejoin:miter;stroke:rgb(0%,0%,0%);stroke-opacity:1;stroke-miterlimit:4;" d="M 285.197917 185.197917 L 265 245.197917 " transform="matrix(0.75,0,0,0.75,0,0)"/>
<path style="fill:none;stroke-width:2;stroke-linecap:butt;stroke-linejoin:miter;stroke:rgb(0%,0%,0%);stroke-opacity:1;stroke-miterlimit:4;" d="M 265 245.197917 L 238.401042 250.598958 " transform="matrix(0.75,0,0,0.75,0,0)"/>
<path style="fill:none;stroke-width:2;stroke-linecap:butt;stroke-linejoin:miter;stroke:rgb(0%,0%,100%);stroke-opacity:1;stroke-miterlimit:4;" d="M 238.401042 250.598958 L 211.901042 255.901042 " transform="matrix(0.75,0,0,0.75,0,0)"/>
<path style="fill:none;stroke-width:2;stroke-linecap:butt;stroke-linejoin:miter;stroke:rgb(0%,0%,100%);stroke-opacity:1;stroke-miterlimit:4;" d="M 211.901042 263 L 234.697917 276.401042 " transform="matrix(0.75,0,0,0.75,0,0)"/>
<path style="fill:none;stroke-width:2;stroke-linecap:butt;stroke-linejoin:miter;stroke:rgb(0%,0%,0%);stroke-opacity:1;stroke-miterlimit:4;" d="M 234.697917 276.401042 L 257.5 289.901042 " transform="matrix(0.75,0,0,0.75,0,0)"/>
<path style="fill:none;stroke-width:2;stroke-linecap:butt;stroke-linejoin:miter;stroke:rgb(0%,0%,0%);stroke-opacity:1;stroke-miterlimit:4;" d="M 252.401042 286.901042 L 255 314.5 " transform="matrix(0.75,0,0,0.75,0,0)"/>
<path style="fill:none;stroke-width:2;stroke-linecap:butt;stroke-linejoin:miter;stroke:rgb(100%,0%,0%);stroke-opacity:1;stroke-miterlimit:4;" d="M 255 314.5 L 257.598958 342.197917 " transform="matrix(0.75,0,0,0.75,0,0)"/>
<path style="fill:none;stroke-width:2;stroke-linecap:butt;stroke-linejoin:miter;stroke:rgb(0%,0%,0%);stroke-opacity:1;stroke-miterlimit:4;" d="M 261.901042 286 L 264.5 313.598958 " transform="matrix(0.75,0,0,0.75,0,0)"/>
<path style="fill:none;stroke-width:2;stroke-linecap:butt;stroke-linejoin:miter;stroke:rgb(100%,0%,0%);stroke-opacity:1;stroke-miterlimit:4;" d="M 264.5 313.598958 L 267.098958 341.302083 " transform="matrix(0.75,0,0,0.75,0,0)"/>
<path style="fill:none;stroke-width:2;stroke-linecap:butt;stroke-linejoin:miter;stroke:rgb(0%,0%,0%);stroke-opacity:1;stroke-miterlimit:4;" d="M 257.5 289.901042 L 276.697917 272.901042 " transform="matrix(0.75,0,0,0.75,0,0)"/>
<path style="fill:none;stroke-width:2;stroke-linecap:butt;stroke-linejoin:miter;stroke:rgb(0%,0%,100%);stroke-opacity:1;stroke-miterlimit:4;" d="M 276.697917 272.901042 L 296 255.901042 " transform="matrix(0.75,0,0,0.75,0,0)"/>
<path style="fill:none;stroke-width:2;stroke-linecap:butt;stroke-linejoin:miter;stroke:rgb(0%,0%,100%);stroke-opacity:1;stroke-miterlimit:4;" d="M 313.802083 250 L 335.098958 254.802083 " transform="matrix(0.75,0,0,0.75,0,0)"/>
<path style="fill:none;stroke-width:2;stroke-linecap:butt;stroke-linejoin:miter;stroke:rgb(100%,0%,0%);stroke-opacity:1;stroke-miterlimit:4;" d="M 335.098958 254.802083 L 356.302083 259.5 " transform="matrix(0.75,0,0,0.75,0,0)"/>
<path style="fill:none;stroke-width:2;stroke-linecap:butt;stroke-linejoin:miter;stroke:rgb(100%,0%,0%);stroke-opacity:1;stroke-miterlimit:4;" d="M 376.901042 250.697917 L 389.197917 237.197917 " transform="matrix(0.75,0,0,0.75,0,0)"/>
<path style="fill:none;stroke-width:2;stroke-linecap:butt;stroke-linejoin:miter;stroke:rgb(80%,80%,0%);stroke-opacity:1;stroke-miterlimit:4;" d="M 389.197917 237.197917 L 401.598958 223.802083 " transform="matrix(0.75,0,0,0.75,0,0)"/>
<path style="fill:none;stroke-width:2;stroke-linecap:butt;stroke-linejoin:miter;stroke:rgb(80%,80%,0%);stroke-opacity:1;stroke-miterlimit:4;" d="M 404.802083 204.598958 L 390.598958 191.5 " transform="matrix(0.75,0,0,0.75,0,0)"/>
<path style="fill:none;stroke-width:2;stroke-linecap:butt;stroke-linejoin:miter;stroke:rgb(100%,0%,0%);stroke-opacity:1;stroke-miterlimit:4;" d="M 390.598958 191.5 L 376.401042 178.401042 " transform="matrix(0.75,0,0,0.75,0,0)"/>
<path style="fill:none;stroke-width:2;stroke-linecap:butt;stroke-linejoin:miter;stroke:rgb(80%,80%,0%);stroke-opacity:1;stroke-miterlimit:4;" d="M 398.401042 211.598958 L 384.197917 198.5 " transform="matrix(0.75,0,0,0.75,0,0)"/>
<path style="fill:none;stroke-width:2;stroke-linecap:butt;stroke-linejoin:miter;stroke:rgb(100%,0%,0%);stroke-opacity:1;stroke-miterlimit:4;" d="M 384.197917 198.5 L 370 185.401042 " transform="matrix(0.75,0,0,0.75,0,0)"/>
<path style="fill:none;stroke-width:2;stroke-linecap:butt;stroke-linejoin:miter;stroke:rgb(80%,80%,0%);stroke-opacity:1;stroke-miterlimit:4;" d="M 414.098958 226 L 428.302083 239 " transform="matrix(0.75,0,0,0.75,0,0)"/>
<path style="fill:none;stroke-width:2;stroke-linecap:butt;stroke-linejoin:miter;stroke:rgb(100%,0%,0%);stroke-opacity:1;stroke-miterlimit:4;" d="M 428.302083 239 L 442.5 252.098958 " transform="matrix(0.75,0,0,0.75,0,0)"/>
<path style="fill:none;stroke-width:2;stroke-linecap:butt;stroke-linejoin:miter;stroke:rgb(80%,80%,0%);stroke-opacity:1;stroke-miterlimit:4;" d="M 420.5 219 L 434.697917 232 " transform="matrix(0.75,0,0,0.75,0,0)"/>
<path style="fill:none;stroke-width:2;stroke-linecap:butt;stroke-linejoin:miter;stroke:rgb(100%,0%,0%);stroke-opacity:1;stroke-miterlimit:4;" d="M 434.697917 232 L 448.901042 245.098958 " transform="matrix(0.75,0,0,0.75,0,0)"/>
<path style="fill:none;stroke-width:2;stroke-linecap:butt;stroke-linejoin:miter;stroke:rgb(80%,80%,0%);stroke-opacity:1;stroke-miterlimit:4;" d="M 417.302083 206.697917 L 429.598958 193.302083 " transform="matrix(0.75,0,0,0.75,0,0)"/>
<path style="fill:none;stroke-width:2;stroke-linecap:butt;stroke-linejoin:miter;stroke:rgb(100%,0%,0%);stroke-opacity:1;stroke-miterlimit:4;" d="M 429.598958 193.302083 L 441.901042 179.901042 " transform="matrix(0.75,0,0,0.75,0,0)"/>
<path style="fill:none;stroke-width:2;stroke-linecap:butt;stroke-linejoin:miter;stroke:rgb(0%,0%,100%);stroke-opacity:1;stroke-miterlimit:4;" d="M 194.098958 247.598958 L 177.598958 229 " transform="matrix(0.75,0,0,0.75,0,0)"/>
<path style="fill:none;stroke-width:2;stroke-linecap:butt;stroke-linejoin:miter;stroke:rgb(0%,0%,0%);stroke-opacity:1;stroke-miterlimit:4;" d="M 177.598958 229 L 161.197917 210.302083 " transform="matrix(0.75,0,0,0.75,0,0)"/>
<path style="fill:none;stroke-width:2;stroke-linecap:butt;stroke-linejoin:miter;stroke:rgb(0%,0%,100%);stroke-opacity:1;stroke-miterlimit:4;" d="M 301.401042 237 L 293.302083 211.098958 " transform="matrix(0.75,0,0,0.75,0,0)"/>
<path style="fill:none;stroke-width:2;stroke-linecap:butt;stroke-linejoin:miter;stroke:rgb(0%,0%,0%);stroke-opacity:1;stroke-miterlimit:4;" d="M 293.302083 211.098958 L 285.197917 185.197917 " transform="matrix(0.75,0,0,0.75,0,0)"/>
<path style="fill:none;stroke-width:2;stroke-linecap:butt;stroke-linejoin:miter;stroke:rgb(0%,0%,0%);stroke-opacity:1;stroke-miterlimit:4;" d="M 162.197917 207.302083 L 161.197917 210.302083 L 162 211.197917 " transform="matrix(0.75,0,0,0.75,0,0)"/>
<path style="fill:none;stroke-width:2;stroke-linecap:butt;stroke-linejoin:miter;stroke:rgb(0%,0%,0%);stroke-opacity:1;stroke-miterlimit:4;" d="M 180.302083 153.302083 L 181.302083 150.302083 L 184.401042 149.697917 " transform="matrix(0.75,0,0,0.75,0,0)"/>
<path style="fill:none;stroke-width:2;stroke-linecap:butt;stroke-linejoin:miter;stroke:rgb(0%,0%,0%);stroke-opacity:1;stroke-miterlimit:4;" d="M 240.197917 138.401042 L 243.302083 137.802083 L 245.401042 140.197917 " transform="matrix(0.75,0,0,0.75,0,0)"/>
<path style="fill:none;stroke-width:2;stroke-linecap:butt;stroke-linejoin:miter;stroke:rgb(0%,0%,0%);stroke-opacity:1;stroke-miterlimit:4;" d="M 266 242.197917 L 265 245.197917 L 263.697917 245.5 " transform="matrix(0.75,0,0,0.75,0,0)"/>
<path style="fill:none;stroke-width:2;stroke-linecap:butt;stroke-linejoin:miter;stroke:rgb(0%,0%,0%);stroke-opacity:1;stroke-miterlimit:4;" d="M 256.302083 289.197917 L 257.5 289.901042 L 258.401042 289 " transform="matrix(0.75,0,0,0.75,0,0)"/>
<path style=" stroke:none;fill-rule:nonzero;fill:rgb(0%,0%,100%);fill-opacity:1;" d="M 17.023438 124.800781 L 18.898438 124.800781 L 18.898438 130.5 L 25.726562 130.5 L 25.726562 124.800781 L 27.523438 124.800781 L 27.523438 138.226562 L 25.726562 138.226562 L 25.726562 132 L 18.898438 132 L 18.898438 138.226562 L 17.023438 138.226562 L 17.023438 124.800781 "/>
<path style=" stroke:none;fill-rule:nonzero;fill:rgb(0%,0%,100%);fill-opacity:1;" d="M 30.226562 137.773438 C 30.425781 137.226562 30.773438 136.773438 31.273438 136.425781 C 31.824219 136.125 32.449219 135.976562 33.148438 135.976562 C 34.050781 135.976562 34.75 136.226562 35.25 136.726562 C 35.75 137.175781 36 137.851562 36 138.75 C 36 139.601562 35.675781 140.449219 35.023438 141.300781 C 34.375 142.101562 33.375 142.976562 32.023438 143.925781 L 36.148438 143.925781 L 36.148438 144.976562 L 30.148438 144.976562 L 30.148438 144.074219 C 31.25 143.324219 32.125 142.648438 32.773438 142.050781 C 33.425781 141.449219 33.925781 140.898438 34.273438 140.398438 C 34.574219 139.851562 34.726562 139.324219 34.726562 138.824219 C 34.726562 138.226562 34.574219 137.773438 34.273438 137.476562 C 34.023438 137.125 33.648438 136.949219 33.148438 136.949219 C 32.648438 136.949219 32.25 137.050781 31.949219 137.25 C 31.648438 137.449219 31.375 137.773438 31.125 138.226562 L 30.226562 137.773438 "/>
<path style=" stroke:none;fill-rule:nonzero;fill:rgb(0%,0%,100%);fill-opacity:1;" d="M 39.976562 124.800781 L 44.398438 131.925781 C 44.699219 132.375 45.074219 133.023438 45.523438 133.875 C 46.023438 134.726562 46.273438 135.175781 46.273438 135.226562 L 46.273438 124.800781 L 48.074219 124.800781 L 48.074219 138.226562 L 46.199219 138.226562 L 41.476562 130.425781 C 41.125 129.824219 40.75 129.175781 40.351562 128.476562 C 40 127.773438 39.75 127.324219 39.601562 127.125 L 39.601562 138.226562 L 37.875 138.226562 L 37.875 124.800781 L 39.976562 124.800781 "/>
<path style=" stroke:none;fill-rule:nonzero;fill:rgb(100%,0%,0%);fill-opacity:1;" d="M 53.101562 212.101562 C 53.101562 209.949219 53.625 208.273438 54.675781 207.074219 C 55.726562 205.875 57.25 205.273438 59.25 205.273438 C 61.25 205.273438 62.773438 205.875 63.824219 207.074219 C 64.875 208.273438 65.398438 209.949219 65.398438 212.101562 C 65.398438 214.300781 64.875 216 63.824219 217.199219 C 62.726562 218.449219 61.199219 219.074219 59.25 219.074219 C 57.25 219.074219 55.726562 218.449219 54.675781 217.199219 C 53.625 216 53.101562 214.300781 53.101562 212.101562 M 59.25 217.574219 C 60.601562 217.574219 61.648438 217.101562 62.398438 216.148438 C 63.148438 215.25 63.523438 213.898438 63.523438 212.101562 C 63.523438 210.351562 63.148438 209.023438 62.398438 208.125 C 61.648438 207.226562 60.601562 206.773438 59.25 206.773438 C 57.898438 206.773438 56.851562 207.226562 56.101562 208.125 C 55.351562 209.023438 54.976562 210.351562 54.976562 212.101562 C 54.976562 213.898438 55.351562 215.25 56.101562 216.148438 C 56.851562 217.101562 57.898438 217.574219 59.25 217.574219 "/>
<path style=" stroke:none;fill-rule:nonzero;fill:rgb(0%,0%,100%);fill-opacity:1;" d="M 149.25 186.601562 L 153.675781 193.648438 C 153.976562 194.148438 154.351562 194.824219 154.800781 195.675781 C 155.300781 196.523438 155.550781 196.976562 155.550781 197.023438 L 155.550781 186.601562 L 157.351562 186.601562 L 157.351562 200.023438 L 155.476562 200.023438 L 150.75 192.226562 C 150.398438 191.625 150.023438 190.976562 149.625 190.273438 C 149.273438 189.574219 149.023438 189.125 148.875 188.925781 L 148.875 200.023438 L 147.148438 200.023438 L 147.148438 186.601562 L 149.25 186.601562 "/>
<path style=" stroke:none;fill-rule:nonzero;fill:rgb(100%,0%,0%);fill-opacity:1;" d="M 191.398438 264.675781 C 191.398438 262.523438 191.925781 260.851562 192.976562 259.648438 C 194.074219 258.449219 195.601562 257.851562 197.550781 257.851562 C 199.550781 257.851562 201.074219 258.449219 202.125 259.648438 C 203.226562 260.851562 203.773438 262.523438 203.773438 264.675781 C 203.773438 266.875 203.226562 268.601562 202.125 269.851562 C 201.074219 271.050781 199.550781 271.648438 197.550781 271.648438 C 195.601562 271.648438 194.074219 271.050781 192.976562 269.851562 C 191.925781 268.601562 191.398438 266.875 191.398438 264.675781 M 197.550781 270.148438 C 198.949219 270.148438 200 269.699219 200.699219 268.800781 C 201.449219 267.851562 201.824219 266.476562 201.824219 264.675781 C 201.824219 262.925781 201.449219 261.601562 200.699219 260.699219 C 200 259.800781 198.949219 259.351562 197.550781 259.351562 C 196.199219 259.351562 195.148438 259.800781 194.398438 260.699219 C 193.648438 261.601562 193.273438 262.925781 193.273438 264.675781 C 193.273438 266.476562 193.648438 267.851562 194.398438 268.800781 C 195.148438 269.699219 196.199219 270.148438 197.550781 270.148438 "/>
<path style=" stroke:none;fill-rule:nonzero;fill:rgb(0%,0%,100%);fill-opacity:1;" d="M 225.675781 179.324219 L 230.101562 186.449219 C 230.398438 186.898438 230.773438 187.550781 231.226562 188.398438 C 231.726562 189.25 231.976562 189.699219 231.976562 189.75 L 231.976562 179.324219 L 233.773438 179.324219 L 233.773438 192.75 L 231.898438 192.75 L 227.175781 184.949219 C 226.824219 184.351562 226.449219 183.699219 226.050781 183 C 225.699219 182.300781 225.449219 181.851562 225.300781 181.648438 L 225.300781 192.75 L 223.574219 192.75 L 223.574219 179.324219 L 225.675781 179.324219 "/>
<path style=" stroke:none;fill-rule:nonzero;fill:rgb(100%,0%,0%);fill-opacity:1;" d="M 268.800781 196.425781 C 268.800781 194.273438 269.324219 192.601562 270.375 191.398438 C 271.476562 190.199219 273 189.601562 274.949219 189.601562 C 276.949219 189.601562 278.476562 190.199219 279.523438 191.398438 C 280.625 192.601562 281.175781 194.273438 281.175781 196.425781 C 281.175781 198.574219 280.625 200.273438 279.523438 201.523438 C 278.476562 202.773438 276.949219 203.398438 274.949219 203.398438 C 273 203.398438 271.476562 202.773438 270.375 201.523438 C 269.324219 200.324219 268.800781 198.625 268.800781 196.425781 M 274.949219 201.824219 C 276.351562 201.824219 277.398438 201.375 278.101562 200.476562 C 278.851562 199.574219 279.226562 198.226562 279.226562 196.425781 C 279.226562 194.675781 278.851562 193.351562 278.101562 192.449219 C 277.398438 191.550781 276.351562 191.101562 274.949219 191.101562 C 273.601562 191.101562 272.550781 191.550781 271.800781 192.449219 C 271.050781 193.300781 270.675781 194.625 270.675781 196.425781 C 270.675781 198.226562 271.050781 199.574219 271.800781 200.476562 C 272.550781 201.375 273.601562 201.824219 274.949219 201.824219 "/>
<path style=" stroke:none;fill-rule:nonzero;fill:rgb(80%,80%,0%);fill-opacity:1;" d="M 303.300781 166.050781 C 303.398438 166.101562 303.648438 166.199219 304.050781 166.351562 C 304.5 166.550781 304.949219 166.699219 305.398438 166.800781 C 305.851562 166.898438 306.300781 166.949219 306.75 166.949219 C 307.601562 166.949219 308.273438 166.75 308.773438 166.351562 C 309.273438 165.949219 309.523438 165.375 309.523438 164.625 C 309.523438 164.125 309.398438 163.726562 309.148438 163.425781 C 308.898438 163.125 308.574219 162.898438 308.175781 162.75 C 307.824219 162.601562 307.324219 162.425781 306.675781 162.226562 C 305.875 161.976562 305.25 161.75 304.800781 161.550781 C 304.300781 161.300781 303.875 160.925781 303.523438 160.425781 C 303.226562 159.976562 303.074219 159.351562 303.074219 158.550781 C 303.074219 157.398438 303.449219 156.476562 304.199219 155.773438 C 304.949219 155.074219 306.101562 154.726562 307.648438 154.726562 C 308.648438 154.726562 309.75 154.976562 310.949219 155.476562 L 310.5 156.976562 C 309.449219 156.523438 308.5 156.300781 307.648438 156.300781 C 306.800781 156.300781 306.125 156.476562 305.625 156.824219 C 305.175781 157.175781 304.949219 157.675781 304.949219 158.324219 C 304.949219 158.773438 305.074219 159.148438 305.324219 159.449219 C 305.574219 159.75 305.875 159.976562 306.226562 160.125 C 306.574219 160.273438 307.050781 160.449219 307.648438 160.648438 C 308.5 160.898438 309.148438 161.148438 309.601562 161.398438 C 310.101562 161.648438 310.523438 162.050781 310.875 162.601562 C 311.226562 163.101562 311.398438 163.773438 311.398438 164.625 C 311.398438 165.875 310.976562 166.851562 310.125 167.550781 C 309.324219 168.199219 308.226562 168.523438 306.824219 168.523438 C 306.023438 168.523438 305.324219 168.425781 304.726562 168.226562 C 304.125 168.074219 303.476562 167.851562 302.773438 167.550781 L 303.300781 166.050781 "/>
<path style=" stroke:none;fill-rule:nonzero;fill:rgb(100%,0%,0%);fill-opacity:1;" d="M 265.949219 129.375 C 265.949219 127.226562 266.5 125.550781 267.601562 124.351562 C 268.648438 123.148438 270.175781 122.550781 272.175781 122.550781 C 274.125 122.550781 275.648438 123.148438 276.75 124.351562 C 277.800781 125.550781 278.324219 127.226562 278.324219 129.375 C 278.324219 131.574219 277.773438 133.273438 276.675781 134.476562 C 275.625 135.726562 274.125 136.351562 272.175781 136.351562 C 270.175781 136.351562 268.648438 135.726562 267.601562 134.476562 C 266.5 133.273438 265.949219 131.574219 265.949219 129.375 M 272.175781 134.851562 C 273.523438 134.851562 274.574219 134.375 275.324219 133.425781 C 276.074219 132.523438 276.449219 131.175781 276.449219 129.375 C 276.449219 127.625 276.074219 126.300781 275.324219 125.398438 C 274.574219 124.5 273.523438 124.050781 272.175781 124.050781 C 270.773438 124.050781 269.699219 124.5 268.949219 125.398438 C 268.25 126.300781 267.898438 127.625 267.898438 129.375 C 267.898438 131.175781 268.25 132.523438 268.949219 133.425781 C 269.699219 134.375 270.773438 134.851562 272.175781 134.851562 "/>
<path style=" stroke:none;fill-rule:nonzero;fill:rgb(100%,0%,0%);fill-opacity:1;" d="M 335.851562 193.574219 C 335.851562 191.425781 336.375 189.75 337.425781 188.550781 C 338.476562 187.351562 340 186.75 342 186.75 C 344 186.75 345.523438 187.351562 346.574219 188.550781 C 347.625 189.75 348.148438 191.425781 348.148438 193.574219 C 348.148438 195.773438 347.625 197.476562 346.574219 198.675781 C 345.476562 199.925781 343.949219 200.550781 342 200.550781 C 340.050781 200.550781 338.523438 199.925781 337.425781 198.675781 C 336.375 197.476562 335.851562 195.773438 335.851562 193.574219 M 342 199.050781 C 343.351562 199.050781 344.398438 198.601562 345.148438 197.699219 C 345.898438 196.75 346.273438 195.375 346.273438 193.574219 C 346.273438 191.824219 345.898438 190.5 345.148438 189.601562 C 344.398438 188.699219 343.351562 188.25 342 188.25 C 340.648438 188.25 339.601562 188.699219 338.851562 189.601562 C 338.101562 190.5 337.726562 191.824219 337.726562 193.574219 C 337.726562 195.375 338.101562 196.75 338.851562 197.699219 C 339.601562 198.601562 340.648438 199.050781 342 199.050781 "/>
<path style=" stroke:none;fill-rule:nonzero;fill:rgb(100%,0%,0%);fill-opacity:1;" d="M 333 126.523438 C 333 124.375 333.523438 122.699219 334.574219 121.5 C 335.675781 120.300781 337.199219 119.699219 339.148438 119.699219 C 341.148438 119.699219 342.675781 120.300781 343.726562 121.5 C 344.824219 122.699219 345.375 124.375 345.375 126.523438 C 345.375 128.726562 344.824219 130.449219 343.726562 131.699219 C 342.675781 132.898438 341.148438 133.5 339.148438 133.5 C 337.199219 133.5 335.675781 132.898438 334.574219 131.699219 C 333.523438 130.449219 333 128.726562 333 126.523438 M 339.148438 132 C 340.550781 132 341.601562 131.550781 342.300781 130.648438 C 343.050781 129.699219 343.425781 128.324219 343.425781 126.523438 C 343.425781 124.773438 343.050781 123.449219 342.300781 122.550781 C 341.601562 121.648438 340.550781 121.199219 339.148438 121.199219 C 337.800781 121.199219 336.75 121.648438 336 122.550781 C 335.25 123.449219 334.875 124.773438 334.875 126.523438 C 334.875 128.324219 335.25 129.699219 336 130.648438 C 336.75 131.550781 337.800781 132 339.148438 132 "/>
<path style=" stroke:none;fill-rule:nonzero;fill:rgb(100%,0%,0%);fill-opacity:1;" d="M 347.476562 119.851562 L 349.273438 119.851562 L 349.273438 125.550781 L 356.101562 125.550781 L 356.101562 119.851562 L 357.976562 119.851562 L 357.976562 133.273438 L 356.101562 133.273438 L 356.101562 127.125 L 349.273438 127.125 L 349.273438 133.273438 L 347.476562 133.273438 L 347.476562 119.851562 "/>
<path style=" stroke:none;fill-rule:evenodd;fill:rgb(0%,0%,0%);fill-opacity:1;" d="M 220.5 138.898438 L 220.5 139.199219 L 220.425781 139.273438 L 220.425781 139.425781 L 220.351562 139.425781 L 220.273438 139.5 L 220.273438 139.574219 L 220.199219 139.648438 L 220.125 139.726562 L 220.050781 139.726562 L 219.976562 139.800781 L 219.824219 139.800781 L 219.75 139.875 L 219.375 139.875 L 219.300781 139.800781 L 219.226562 139.800781 L 219.148438 139.726562 L 219.074219 139.726562 L 219 139.648438 L 218.925781 139.648438 L 218.851562 139.574219 L 218.773438 139.5 L 218.773438 139.425781 L 218.699219 139.351562 L 218.699219 139.273438 L 218.625 139.199219 L 218.625 138.675781 L 218.699219 138.601562 L 218.699219 138.523438 L 218.773438 138.449219 L 218.773438 138.375 L 218.851562 138.300781 L 218.925781 138.226562 L 219 138.148438 L 219.074219 138.148438 L 219.148438 138.074219 L 219.226562 138.074219 L 219.300781 138 L 219.898438 138 L 219.976562 138.074219 L 220.050781 138.074219 L 220.125 138.148438 L 220.199219 138.226562 L 220.273438 138.226562 L 220.273438 138.300781 L 220.351562 138.375 L 220.425781 138.449219 L 220.425781 138.601562 L 220.5 138.675781 L 220.5 138.898438 L 219.601562 138.898438 Z M 220.5 138.898438 "/>
</g>
</svg>
