<?xml version="1.0" encoding="UTF-8"?>
<svg xmlns="http://www.w3.org/2000/svg" xmlns:xlink="http://www.w3.org/1999/xlink" width="375pt" height="375pt" viewBox="0 0 375 375" version="1.1">
<g id="surface286">
<rect x="0" y="0" width="375" height="375" style="fill:rgb(100%,100%,100%);fill-opacity:1;stroke:none;"/>
<path style="fill:none;stroke-width:1;stroke-linecap:butt;stroke-linejoin:miter;stroke:rgb(0%,0%,0%);stroke-opacity:1;stroke-miterlimit:4;" d="M 129.598958 197.197917 L 128.401042 197.302083 " transform="matrix(0.75,0,0,0.75,0,0)"/>
<path style="fill:none;stroke-width:1;stroke-linecap:butt;stroke-linejoin:miter;stroke:rgb(0%,0%,0%);stroke-opacity:1;stroke-miterlimit:4;" d="M 129.802083 191.302083 L 127.401042 191.5 " transform="matrix(0.75,0,0,0.75,0,0)"/>
<path style="fill:none;stroke-width:1;stroke-linecap:butt;stroke-linejoin:miter;stroke:rgb(0%,0%,0%);stroke-opacity:1;stroke-miterlimit:4;" d="M 129.901042 185.401042 L 126.401042 185.598958 " transform="matrix(0.75,0,0,0.75,0,0)"/>
<path style="fill:none;stroke-width:1;stroke-linecap:butt;stroke-linejoin:miter;stroke:rgb(0%,0%,0%);stroke-opacity:1;stroke-miterlimit:4;" d="M 130.098958 179.5 L 125.401042 179.802083 " transform="matrix(0.75,0,0,0.75,0,0)"/>
<path style="fill:none;stroke-width:1;stroke-linecap:butt;stroke-linejoin:miter;stroke:rgb(0%,0%,0%);stroke-opacity:1;stroke-miterlimit:4;" d="M 130.197917 173.5 L 124.302083 174 " transform="matrix(0.75,0,0,0.75,0,0)"/>
<path style="fill:none;stroke-width:2;stroke-linecap:butt;stroke-linejoin:miter;stroke:rgb(0%,0%,0%);stroke-opacity:1;stroke-miterlimit:4;" d="M 129.5 203.197917 L 158.5 197.901042 " transform="matrix(0.75,0,0,0.75,0,0)"/>
<path style="fill:none;stroke-width:2;stroke-linecap:butt;stroke-linejoin:miter;stroke:rgb(0%,0%,0%);stroke-opacity:1;stroke-miterlimit:4;" d="M 158.5 197.901042 L 165.802083 206.598958 " transform="matrix(0.75,0,0,0.75,0,0)"/>
<path style="fill:none;stroke-width:2;stroke-linecap:butt;stroke-linejoin:miter;stroke:rgb(100%,0%,0%);stroke-opacity:1;stroke-miterlimit:4;" d="M 165.802083 206.598958 L 173.197917 215.197917 " transform="matrix(0.75,0,0,0.75,0,0)"/>
<path style="fill:none;stroke-width:2;stroke-linecap:butt;stroke-linejoin:miter;stroke:rgb(100%,0%,0%);stroke-opacity:1;stroke-miterlimit:4;" d="M 182.401042 219.598958 L 194.5 217.401042 " transform="matrix(0.75,0,0,0.75,0,0)"/>
<path style="fill:none;stroke-width:2;stroke-linecap:butt;stroke-linejoin:miter;stroke:rgb(0%,0%,0%);stroke-opacity:1;stroke-miterlimit:4;" d="M 194.5 217.401042 L 206.598958 215.197917 " transform="matrix(0.75,0,0,0.75,0,0)"/>
<path style="fill:none;stroke-width:2;stroke-linecap:butt;stroke-linejoin:miter;stroke:rgb(0%,0%,0%);stroke-opacity:1;stroke-miterlimit:4;" d="M 206.598958 215.197917 L 225.598958 237.697917 " transform="matrix(0.75,0,0,0.75,0,0)"/>
<path style="fill:none;stroke-width:2;stroke-linecap:butt;stroke-linejoin:miter;stroke:rgb(0%,0%,0%);stroke-opacity:1;stroke-miterlimit:4;" d="M 213.901042 214.802083 L 227.302083 230.5 " transform="matrix(0.75,0,0,0.75,0,0)"/>
<path style="fill:none;stroke-width:2;stroke-linecap:butt;stroke-linejoin:miter;stroke:rgb(0%,0%,0%);stroke-opacity:1;stroke-miterlimit:4;" d="M 225.598958 237.697917 L 254.697917 232.5 " transform="matrix(0.75,0,0,0.75,0,0)"/>
<path style="fill:none;stroke-width:2;stroke-linecap:butt;stroke-linejoin:miter;stroke:rgb(0%,0%,0%);stroke-opacity:1;stroke-miterlimit:4;" d="M 254.697917 232.5 L 264.598958 204.697917 " transform="matrix(0.75,0,0,0.75,0,0)"/>
<path style="fill:none;stroke-width:2;stroke-linecap:butt;stroke-linejoin:miter;stroke:rgb(0%,0%,0%);stroke-opacity:1;stroke-miterlimit:4;" d="M 250.598958 226.302083 L 257.598958 206.901042 " transform="matrix(0.75,0,0,0.75,0,0)"/>
<path style="fill:none;stroke-width:2;stroke-linecap:butt;stroke-linejoin:miter;stroke:rgb(0%,0%,0%);stroke-opacity:1;stroke-miterlimit:4;" d="M 264.598958 204.697917 L 277.098958 202.5 " transform="matrix(0.75,0,0,0.75,0,0)"/>
<path style="fill:none;stroke-width:2;stroke-linecap:butt;stroke-linejoin:miter;stroke:rgb(0%,0%,100%);stroke-opacity:1;stroke-miterlimit:4;" d="M 277.098958 202.5 L 289.5 200.197917 " transform="matrix(0.75,0,0,0.75,0,0)"/>
<path style="fill:none;stroke-width:2;stroke-linecap:butt;stroke-linejoin:miter;stroke:rgb(0%,0%,100%);stroke-opacity:1;stroke-miterlimit:4;" d="M 297.802083 204.401042 L 305.302083 213.197917 " transform="matrix(0.75,0,0,0.75,0,0)"/>
<path style="fill:none;stroke-width:2;stroke-linecap:butt;stroke-linejoin:miter;stroke:rgb(0%,0%,0%);stroke-opacity:1;stroke-miterlimit:4;" d="M 305.302083 213.197917 L 312.697917 222 " transform="matrix(0.75,0,0,0.75,0,0)"/>
<path style="fill:none;stroke-width:2;stroke-linecap:butt;stroke-linejoin:miter;stroke:rgb(0%,0%,0%);stroke-opacity:1;stroke-miterlimit:4;" d="M 312.697917 222 L 341.802083 216.802083 " transform="matrix(0.75,0,0,0.75,0,0)"/>
<path style="fill:none;stroke-width:2;stroke-linecap:butt;stroke-linejoin:miter;stroke:rgb(0%,0%,0%);stroke-opacity:1;stroke-miterlimit:4;" d="M 341.802083 216.802083 L 351.697917 189 " transform="matrix(0.75,0,0,0.75,0,0)"/>
<path style="fill:none;stroke-width:2;stroke-linecap:butt;stroke-linejoin:miter;stroke:rgb(0%,0%,0%);stroke-opacity:1;stroke-miterlimit:4;" d="M 351.697917 189 L 363.901042 186.802083 " transform="matrix(0.75,0,0,0.75,0,0)"/>
<path style="fill:none;stroke-width:2;stroke-linecap:butt;stroke-linejoin:miter;stroke:rgb(100%,0%,0%);stroke-opacity:1;stroke-miterlimit:4;" d="M 363.901042 186.802083 L 376 184.598958 " transform="matrix(0.75,0,0,0.75,0,0)"/>
<path style="fill:none;stroke-width:2;stroke-linecap:butt;stroke-linejoin:miter;stroke:rgb(100%,0%,0%);stroke-opacity:1;stroke-miterlimit:4;" d="M 385.302083 189.098958 L 392.598958 197.697917 " transform="matrix(0.75,0,0,0.75,0,0)"/>
<path style="fill:none;stroke-width:2;stroke-linecap:butt;stroke-linejoin:miter;stroke:rgb(0%,0%,0%);stroke-opacity:1;stroke-miterlimit:4;" d="M 392.598958 197.697917 L 399.802083 206.302083 " transform="matrix(0.75,0,0,0.75,0,0)"/>
<path style="fill:none;stroke-width:2;stroke-linecap:butt;stroke-linejoin:miter;stroke:rgb(0%,0%,0%);stroke-opacity:1;stroke-miterlimit:4;" d="M 399.802083 206.302083 L 389.901042 234 " transform="matrix(0.75,0,0,0.75,0,0)"/>
<path style="fill:none;stroke-width:2;stroke-linecap:butt;stroke-linejoin:miter;stroke:rgb(0%,0%,0%);stroke-opacity:1;stroke-miterlimit:4;" d="M 403.901042 212.401042 L 396.901042 231.901042 " transform="matrix(0.75,0,0,0.75,0,0)"/>
<path style="fill:none;stroke-width:2;stroke-linecap:butt;stroke-linejoin:miter;stroke:rgb(0%,0%,0%);stroke-opacity:1;stroke-miterlimit:4;" d="M 389.901042 234 L 408.901042 256.598958 " transform="matrix(0.75,0,0,0.75,0,0)"/>
<path style="fill:none;stroke-width:2;stroke-linecap:butt;stroke-linejoin:miter;stroke:rgb(0%,0%,0%);stroke-opacity:1;stroke-miterlimit:4;" d="M 408.901042 256.598958 L 437.901042 251.302083 " transform="matrix(0.75,0,0,0.75,0,0)"/>
<path style="fill:none;stroke-width:2;stroke-linecap:butt;stroke-linejoin:miter;stroke:rgb(0%,0%,0%);stroke-opacity:1;stroke-miterlimit:4;" d="M 412.197917 250 L 432.5 246.302083 " transform="matrix(0.75,0,0,0.75,0,0)"/>
<path style="fill:none;stroke-width:2;stroke-linecap:butt;stroke-linejoin:miter;stroke:rgb(0%,0%,0%);stroke-opacity:1;stroke-miterlimit:4;" d="M 437.901042 251.302083 L 445.302083 260 " transform="matrix(0.75,0,0,0.75,0,0)"/>
<path style="fill:none;stroke-width:2;stroke-linecap:butt;stroke-linejoin:miter;stroke:rgb(100%,0%,0%);stroke-opacity:1;stroke-miterlimit:4;" d="M 445.302083 260 L 452.598958 268.598958 " transform="matrix(0.75,0,0,0.75,0,0)"/>
<path style="fill:none;stroke-width:2;stroke-linecap:butt;stroke-linejoin:miter;stroke:rgb(100%,0%,0%);stroke-opacity:1;stroke-miterlimit:4;" d="M 455.098958 279.197917 L 451.098958 290.401042 " transform="matrix(0.75,0,0,0.75,0,0)"/>
<path style="fill:none;stroke-width:2;stroke-linecap:butt;stroke-linejoin:miter;stroke:rgb(0%,0%,0%);stroke-opacity:1;stroke-miterlimit:4;" d="M 451.098958 290.401042 L 447 301.598958 " transform="matrix(0.75,0,0,0.75,0,0)"/>
<path style="fill:none;stroke-width:2;stroke-linecap:butt;stroke-linejoin:miter;stroke:rgb(0%,0%,0%);stroke-opacity:1;stroke-miterlimit:4;" d="M 447 301.598958 L 443 312.901042 " transform="matrix(0.75,0,0,0.75,0,0)"/>
<path style="fill:none;stroke-width:2;stroke-linecap:butt;stroke-linejoin:miter;stroke:rgb(20%,80%,80%);stroke-opacity:1;stroke-miterlimit:4;" d="M 443 312.901042 L 438.901042 324.197917 " transform="matrix(0.75,0,0,0.75,0,0)"/>
<path style="fill:none;stroke-width:2;stroke-linecap:butt;stroke-linejoin:miter;stroke:rgb(0%,0%,0%);stroke-opacity:1;stroke-miterlimit:4;" d="M 447 301.598958 L 459.197917 306 " transform="matrix(0.75,0,0,0.75,0,0)"/>
<path style="fill:none;stroke-width:2;stroke-linecap:butt;stroke-linejoin:miter;stroke:rgb(20%,80%,80%);stroke-opacity:1;stroke-miterlimit:4;" d="M 459.197917 306 L 471.302083 310.302083 " transform="matrix(0.75,0,0,0.75,0,0)"/>
<path style="fill:none;stroke-width:2;stroke-linecap:butt;stroke-linejoin:miter;stroke:rgb(0%,0%,0%);stroke-opacity:1;stroke-miterlimit:4;" d="M 447 301.598958 L 434.901042 297.197917 " transform="matrix(0.75,0,0,0.75,0,0)"/>
<path style="fill:none;stroke-width:2;stroke-linecap:butt;stroke-linejoin:miter;stroke:rgb(20%,80%,80%);stroke-opacity:1;stroke-miterlimit:4;" d="M 434.901042 297.197917 L 422.697917 292.901042 " transform="matrix(0.75,0,0,0.75,0,0)"/>
<path style="fill:none;stroke-width:2;stroke-linecap:butt;stroke-linejoin:miter;stroke:rgb(0%,0%,0%);stroke-opacity:1;stroke-miterlimit:4;" d="M 437.901042 251.302083 L 447.901042 223.5 " transform="matrix(0.75,0,0,0.75,0,0)"/>
<path style="fill:none;stroke-width:2;stroke-linecap:butt;stroke-linejoin:miter;stroke:rgb(0%,0%,0%);stroke-opacity:1;stroke-miterlimit:4;" d="M 447.901042 223.5 L 428.901042 201 " transform="matrix(0.75,0,0,0.75,0,0)"/>
<path style="fill:none;stroke-width:2;stroke-linecap:butt;stroke-linejoin:miter;stroke:rgb(0%,0%,0%);stroke-opacity:1;stroke-miterlimit:4;" d="M 440.598958 224 L 427.197917 208.197917 " transform="matrix(0.75,0,0,0.75,0,0)"/>
<path style="fill:none;stroke-width:2;stroke-linecap:butt;stroke-linejoin:miter;stroke:rgb(0%,0%,0%);stroke-opacity:1;stroke-miterlimit:4;" d="M 351.697917 189 L 332.697917 166.5 " transform="matrix(0.75,0,0,0.75,0,0)"/>
<path style="fill:none;stroke-width:2;stroke-linecap:butt;stroke-linejoin:miter;stroke:rgb(0%,0%,0%);stroke-opacity:1;stroke-miterlimit:4;" d="M 332.697917 166.5 L 303.697917 171.697917 " transform="matrix(0.75,0,0,0.75,0,0)"/>
<path style="fill:none;stroke-width:2;stroke-linecap:butt;stroke-linejoin:miter;stroke:rgb(0%,0%,0%);stroke-opacity:1;stroke-miterlimit:4;" d="M 264.598958 204.697917 L 245.598958 182.197917 " transform="matrix(0.75,0,0,0.75,0,0)"/>
<path style="fill:none;stroke-width:2;stroke-linecap:butt;stroke-linejoin:miter;stroke:rgb(0%,0%,0%);stroke-opacity:1;stroke-miterlimit:4;" d="M 245.598958 182.197917 L 216.598958 187.401042 " transform="matrix(0.75,0,0,0.75,0,0)"/>
<path style="fill:none;stroke-width:2;stroke-linecap:butt;stroke-linejoin:miter;stroke:rgb(0%,0%,0%);stroke-opacity:1;stroke-miterlimit:4;" d="M 242.302083 188.802083 L 222 192.5 " transform="matrix(0.75,0,0,0.75,0,0)"/>
<path style="fill:none;stroke-width:2;stroke-linecap:butt;stroke-linejoin:miter;stroke:rgb(0%,0%,0%);stroke-opacity:1;stroke-miterlimit:4;" d="M 129.5 203.197917 L 137.697917 231.5 " transform="matrix(0.75,0,0,0.75,0,0)"/>
<path style="fill:none;stroke-width:2;stroke-linecap:butt;stroke-linejoin:miter;stroke:rgb(0%,0%,0%);stroke-opacity:1;stroke-miterlimit:4;" d="M 137.697917 231.5 L 127.598958 238.401042 " transform="matrix(0.75,0,0,0.75,0,0)"/>
<path style="fill:none;stroke-width:2;stroke-linecap:butt;stroke-linejoin:miter;stroke:rgb(0%,0%,100%);stroke-opacity:1;stroke-miterlimit:4;" d="M 127.598958 238.401042 L 117.5 245.302083 " transform="matrix(0.75,0,0,0.75,0,0)"/>
<path style="fill:none;stroke-width:2;stroke-linecap:butt;stroke-linejoin:miter;stroke:rgb(0%,0%,100%);stroke-opacity:1;stroke-miterlimit:4;" d="M 111.5 253.197917 L 107.401042 264.5 " transform="matrix(0.75,0,0,0.75,0,0)"/>
<path style="fill:none;stroke-width:2;stroke-linecap:butt;stroke-linejoin:miter;stroke:rgb(0%,0%,0%);stroke-opacity:1;stroke-miterlimit:4;" d="M 107.401042 264.5 L 103.302083 275.901042 " transform="matrix(0.75,0,0,0.75,0,0)"/>
<path style="fill:none;stroke-width:2;stroke-linecap:butt;stroke-linejoin:miter;stroke:rgb(0%,0%,0%);stroke-opacity:1;stroke-miterlimit:4;" d="M 103.302083 275.901042 L 73.901042 274.901042 " transform="matrix(0.75,0,0,0.75,0,0)"/>
<path style="fill:none;stroke-width:2;stroke-linecap:butt;stroke-linejoin:miter;stroke:rgb(0%,0%,0%);stroke-opacity:1;stroke-miterlimit:4;" d="M 99.098958 269.802083 L 78.5 269.197917 " transform="matrix(0.75,0,0,0.75,0,0)"/>
<path style="fill:none;stroke-width:2;stroke-linecap:butt;stroke-linejoin:miter;stroke:rgb(0%,0%,0%);stroke-opacity:1;stroke-miterlimit:4;" d="M 73.901042 274.901042 L 66.802083 284 " transform="matrix(0.75,0,0,0.75,0,0)"/>
<path style="fill:none;stroke-width:2;stroke-linecap:butt;stroke-linejoin:miter;stroke:rgb(0%,0%,100%);stroke-opacity:1;stroke-miterlimit:4;" d="M 66.802083 284 L 59.802083 293.098958 " transform="matrix(0.75,0,0,0.75,0,0)"/>
<path style="fill:none;stroke-width:2;stroke-linecap:butt;stroke-linejoin:miter;stroke:rgb(0%,0%,100%);stroke-opacity:1;stroke-miterlimit:4;" d="M 60.598958 302.302083 L 64.098958 310.802083 " transform="matrix(0.75,0,0,0.75,0,0)"/>
<path style="fill:none;stroke-width:2;stroke-linecap:butt;stroke-linejoin:miter;stroke:rgb(100%,0%,0%);stroke-opacity:1;stroke-miterlimit:4;" d="M 64.098958 310.802083 L 67.598958 319.302083 " transform="matrix(0.75,0,0,0.75,0,0)"/>
<path style="fill:none;stroke-width:2;stroke-linecap:butt;stroke-linejoin:miter;stroke:rgb(0%,0%,100%);stroke-opacity:1;stroke-miterlimit:4;" d="M 55.197917 304.5 L 58.598958 313 " transform="matrix(0.75,0,0,0.75,0,0)"/>
<path style="fill:none;stroke-width:2;stroke-linecap:butt;stroke-linejoin:miter;stroke:rgb(100%,0%,0%);stroke-opacity:1;stroke-miterlimit:4;" d="M 58.598958 313 L 62.098958 321.5 " transform="matrix(0.75,0,0,0.75,0,0)"/>
<path style="fill:none;stroke-width:2;stroke-linecap:butt;stroke-linejoin:miter;stroke:rgb(0%,0%,100%);stroke-opacity:1;stroke-miterlimit:4;" d="M 51.697917 297.697917 L 41.5 296.302083 " transform="matrix(0.75,0,0,0.75,0,0)"/>
<path style="fill:none;stroke-width:2;stroke-linecap:butt;stroke-linejoin:miter;stroke:rgb(100%,0%,0%);stroke-opacity:1;stroke-miterlimit:4;" d="M 41.5 296.302083 L 31.401042 294.901042 " transform="matrix(0.75,0,0,0.75,0,0)"/>
<path style="fill:none;stroke-width:2;stroke-linecap:butt;stroke-linejoin:miter;stroke:rgb(0%,0%,0%);stroke-opacity:1;stroke-miterlimit:4;" d="M 73.901042 274.901042 L 70.5 263.401042 " transform="matrix(0.75,0,0,0.75,0,0)"/>
<path style="fill:none;stroke-width:2;stroke-linecap:butt;stroke-linejoin:miter;stroke:rgb(0%,0%,100%);stroke-opacity:1;stroke-miterlimit:4;" d="M 70.5 263.401042 L 67.098958 251.802083 " transform="matrix(0.75,0,0,0.75,0,0)"/>
<path style="fill:none;stroke-width:2;stroke-linecap:butt;stroke-linejoin:miter;stroke:rgb(0%,0%,100%);stroke-opacity:1;stroke-miterlimit:4;" d="M 69.802083 243.802083 L 79.901042 236.901042 " transform="matrix(0.75,0,0,0.75,0,0)"/>
<path style="fill:none;stroke-width:2;stroke-linecap:butt;stroke-linejoin:miter;stroke:rgb(0%,0%,0%);stroke-opacity:1;stroke-miterlimit:4;" d="M 79.901042 236.901042 L 90 230 " transform="matrix(0.75,0,0,0.75,0,0)"/>
<path style="fill:none;stroke-width:2;stroke-linecap:butt;stroke-linejoin:miter;stroke:rgb(0%,0%,100%);stroke-opacity:1;stroke-miterlimit:4;" d="M 76.098958 246.598958 L 83.197917 241.802083 " transform="matrix(0.75,0,0,0.75,0,0)"/>
<path style="fill:none;stroke-width:2;stroke-linecap:butt;stroke-linejoin:miter;stroke:rgb(0%,0%,0%);stroke-opacity:1;stroke-miterlimit:4;" d="M 83.197917 241.802083 L 90.302083 237 " transform="matrix(0.75,0,0,0.75,0,0)"/>
<path style="fill:none;stroke-width:2;stroke-linecap:butt;stroke-linejoin:miter;stroke:rgb(0%,0%,0%);stroke-opacity:1;stroke-miterlimit:4;" d="M 90 230 L 94 218.802083 " transform="matrix(0.75,0,0,0.75,0,0)"/>
<path style="fill:none;stroke-width:2;stroke-linecap:butt;stroke-linejoin:miter;stroke:rgb(100%,0%,0%);stroke-opacity:1;stroke-miterlimit:4;" d="M 94 218.802083 L 98.098958 207.598958 " transform="matrix(0.75,0,0,0.75,0,0)"/>
<path style="fill:none;stroke-width:2;stroke-linecap:butt;stroke-linejoin:miter;stroke:rgb(100%,0%,0%);stroke-opacity:1;stroke-miterlimit:4;" d="M 104.802083 202.401042 L 117.098958 202.802083 " transform="matrix(0.75,0,0,0.75,0,0)"/>
<path style="fill:none;stroke-width:2;stroke-linecap:butt;stroke-linejoin:miter;stroke:rgb(0%,0%,0%);stroke-opacity:1;stroke-miterlimit:4;" d="M 117.098958 202.802083 L 129.5 203.197917 " transform="matrix(0.75,0,0,0.75,0,0)"/>
<path style="fill:none;stroke-width:2;stroke-linecap:butt;stroke-linejoin:miter;stroke:rgb(0%,0%,0%);stroke-opacity:1;stroke-miterlimit:4;" d="M 216.598958 187.401042 L 206.598958 215.197917 " transform="matrix(0.75,0,0,0.75,0,0)"/>
<path style="fill:none;stroke-width:2;stroke-linecap:butt;stroke-linejoin:miter;stroke:rgb(0%,0%,0%);stroke-opacity:1;stroke-miterlimit:4;" d="M 90 230 L 99.598958 237.5 " transform="matrix(0.75,0,0,0.75,0,0)"/>
<path style="fill:none;stroke-width:2;stroke-linecap:butt;stroke-linejoin:miter;stroke:rgb(0%,0%,100%);stroke-opacity:1;stroke-miterlimit:4;" d="M 99.598958 237.5 L 109.197917 244.901042 " transform="matrix(0.75,0,0,0.75,0,0)"/>
<path style="fill:none;stroke-width:2;stroke-linecap:butt;stroke-linejoin:miter;stroke:rgb(0%,0%,0%);stroke-opacity:1;stroke-miterlimit:4;" d="M 303.697917 171.697917 L 299.598958 183 " transform="matrix(0.75,0,0,0.75,0,0)"/>
<path style="fill:none;stroke-width:2;stroke-linecap:butt;stroke-linejoin:miter;stroke:rgb(0%,0%,100%);stroke-opacity:1;stroke-miterlimit:4;" d="M 299.598958 183 L 295.5 194.302083 " transform="matrix(0.75,0,0,0.75,0,0)"/>
<path style="fill:none;stroke-width:2;stroke-linecap:butt;stroke-linejoin:miter;stroke:rgb(0%,0%,0%);stroke-opacity:1;stroke-miterlimit:4;" d="M 428.901042 201 L 399.802083 206.302083 " transform="matrix(0.75,0,0,0.75,0,0)"/>
<path style=" stroke:none;fill-rule:nonzero;fill:rgb(100%,0%,0%);fill-opacity:1;" d="M 130.273438 165.375 C 130.273438 164.375 130.523438 163.574219 131.023438 162.976562 C 131.523438 162.425781 132.25 162.148438 133.199219 162.148438 C 134.101562 162.148438 134.800781 162.425781 135.300781 162.976562 C 135.800781 163.574219 136.050781 164.375 136.050781 165.375 C 136.050781 166.375 135.800781 167.175781 135.300781 167.773438 C 134.800781 168.324219 134.101562 168.601562 133.199219 168.601562 C 132.25 168.601562 131.523438 168.324219 131.023438 167.773438 C 130.523438 167.175781 130.273438 166.375 130.273438 165.375 M 133.199219 167.925781 C 133.800781 167.925781 134.273438 167.699219 134.625 167.25 C 134.976562 166.800781 135.148438 166.175781 135.148438 165.375 C 135.148438 164.523438 134.976562 163.898438 134.625 163.5 C 134.273438 163.101562 133.800781 162.898438 133.199219 162.898438 C 132.550781 162.898438 132.050781 163.101562 131.699219 163.5 C 131.351562 163.898438 131.175781 164.523438 131.175781 165.375 C 131.175781 166.226562 131.351562 166.851562 131.699219 167.25 C 132.050781 167.699219 132.550781 167.925781 133.199219 167.925781 "/>
<path style=" stroke:none;fill-rule:nonzero;fill:rgb(0%,0%,100%);fill-opacity:1;" d="M 218.851562 146.476562 L 220.949219 149.773438 C 221.050781 150.023438 221.226562 150.324219 221.476562 150.675781 C 221.675781 151.074219 221.773438 151.300781 221.773438 151.351562 L 221.773438 146.476562 L 222.601562 146.476562 L 222.601562 152.773438 L 221.773438 152.773438 L 219.601562 149.101562 C 219.398438 148.800781 219.226562 148.5 219.074219 148.199219 C 218.875 147.851562 218.75 147.625 218.699219 147.523438 L 218.699219 152.773438 L 217.875 152.773438 L 217.875 146.476562 L 218.851562 146.476562 "/>
<path style=" stroke:none;fill-rule:nonzero;fill:rgb(100%,0%,0%);fill-opacity:1;" d="M 282.675781 137.851562 C 282.675781 136.851562 282.925781 136.050781 283.425781 135.449219 C 283.925781 134.898438 284.648438 134.625 285.601562 134.625 C 286.5 134.625 287.199219 134.898438 287.699219 135.449219 C 288.199219 136.050781 288.449219 136.851562 288.449219 137.851562 C 288.449219 138.851562 288.199219 139.648438 287.699219 140.25 C 287.199219 140.800781 286.5 141.074219 285.601562 141.074219 C 284.648438 141.074219 283.925781 140.800781 283.425781 140.25 C 282.925781 139.648438 282.675781 138.851562 282.675781 137.851562 M 285.601562 140.398438 C 286.199219 140.398438 286.675781 140.175781 287.023438 139.726562 C 287.375 139.273438 287.550781 138.648438 287.550781 137.851562 C 287.550781 137 287.375 136.375 287.023438 135.976562 C 286.675781 135.574219 286.199219 135.375 285.601562 135.375 C 284.949219 135.375 284.449219 135.574219 284.101562 135.976562 C 283.75 136.375 283.574219 137 283.574219 137.851562 C 283.574219 138.699219 283.75 139.324219 284.101562 139.726562 C 284.449219 140.175781 284.949219 140.398438 285.601562 140.398438 "/>
<path style=" stroke:none;fill-rule:nonzero;fill:rgb(100%,0%,0%);fill-opacity:1;" d="M 339.898438 205.425781 C 339.898438 204.375 340.148438 203.574219 340.648438 203.023438 C 341.101562 202.476562 341.800781 202.199219 342.75 202.199219 C 343.699219 202.199219 344.398438 202.476562 344.851562 203.023438 C 345.351562 203.574219 345.601562 204.375 345.601562 205.425781 C 345.601562 206.425781 345.351562 207.199219 344.851562 207.75 C 344.351562 208.351562 343.648438 208.648438 342.75 208.648438 C 341.851562 208.648438 341.148438 208.351562 340.648438 207.75 C 340.148438 207.199219 339.898438 206.425781 339.898438 205.425781 M 342.75 207.898438 C 343.398438 207.898438 343.898438 207.699219 344.25 207.300781 C 344.601562 206.851562 344.773438 206.226562 344.773438 205.425781 C 344.773438 204.574219 344.601562 203.949219 344.25 203.550781 C 343.898438 203.101562 343.398438 202.875 342.75 202.875 C 342.101562 202.875 341.601562 203.101562 341.25 203.550781 C 340.898438 203.949219 340.726562 204.574219 340.726562 205.425781 C 340.726562 206.226562 340.898438 206.851562 341.25 207.300781 C 341.601562 207.699219 342.101562 207.898438 342.75 207.898438 "/>
<path style=" stroke:none;fill-rule:nonzero;fill:rgb(20%,80%,80%);fill-opacity:1;" d="M 325.949219 243.898438 L 329.625 243.898438 L 329.625 244.574219 L 326.773438 244.574219 L 326.773438 246.523438 L 329.324219 246.523438 L 329.324219 247.199219 L 326.773438 247.199219 L 326.773438 250.125 L 325.949219 250.125 L 325.949219 243.898438 "/>
<path style=" stroke:none;fill-rule:nonzero;fill:rgb(20%,80%,80%);fill-opacity:1;" d="M 354.226562 230.550781 L 357.976562 230.550781 L 357.976562 231.226562 L 355.050781 231.226562 L 355.050781 233.175781 L 357.601562 233.175781 L 357.601562 233.925781 L 355.050781 233.925781 L 355.050781 236.773438 L 354.226562 236.773438 L 354.226562 230.550781 "/>
<path style=" stroke:none;fill-rule:nonzero;fill:rgb(20%,80%,80%);fill-opacity:1;" d="M 312.601562 215.550781 L 316.273438 215.550781 L 316.273438 216.300781 L 313.425781 216.300781 L 313.425781 218.175781 L 315.976562 218.175781 L 315.976562 218.925781 L 313.425781 218.925781 L 313.425781 221.851562 L 312.601562 221.851562 L 312.601562 215.550781 "/>
<path style=" stroke:none;fill-rule:nonzero;fill:rgb(0%,0%,100%);fill-opacity:1;" d="M 83.625 182.925781 L 85.648438 186.226562 C 85.800781 186.476562 85.976562 186.800781 86.175781 187.199219 C 86.425781 187.601562 86.550781 187.800781 86.550781 187.800781 L 86.550781 182.925781 L 87.375 182.925781 L 87.375 189.226562 L 86.476562 189.226562 L 84.300781 185.550781 C 84.148438 185.300781 83.976562 185 83.773438 184.648438 C 83.574219 184.351562 83.449219 184.148438 83.398438 184.050781 L 83.398438 189.226562 L 82.648438 189.226562 L 82.648438 182.925781 L 83.625 182.925781 "/>
<path style=" stroke:none;fill-rule:nonzero;fill:rgb(0%,0%,100%);fill-opacity:1;" d="M 40.425781 220.574219 L 42.523438 223.875 C 42.675781 224.125 42.851562 224.425781 43.050781 224.773438 C 43.25 225.175781 43.375 225.398438 43.425781 225.449219 L 43.425781 220.574219 L 44.25 220.574219 L 44.25 226.800781 L 43.351562 226.800781 L 41.175781 223.199219 C 40.976562 222.898438 40.800781 222.601562 40.648438 222.300781 C 40.449219 221.949219 40.324219 221.726562 40.273438 221.625 L 40.273438 226.800781 L 39.449219 226.800781 L 39.449219 220.574219 L 40.425781 220.574219 "/>
<path style=" stroke:none;fill-rule:nonzero;fill:rgb(0%,0%,100%);fill-opacity:1;" d="M 44.925781 221.699219 L 46.050781 221.699219 L 46.050781 220.5 L 46.574219 220.5 L 46.574219 221.699219 L 47.699219 221.699219 L 47.699219 222.148438 L 46.574219 222.148438 L 46.574219 223.273438 L 46.050781 223.273438 L 46.050781 222.148438 L 44.925781 222.148438 L 44.925781 221.699219 "/>
<path style=" stroke:none;fill-rule:nonzero;fill:rgb(100%,0%,0%);fill-opacity:1;" d="M 47.324219 244.199219 C 47.324219 243.199219 47.574219 242.425781 48.074219 241.875 C 48.574219 241.273438 49.300781 240.976562 50.25 240.976562 C 51.148438 240.976562 51.851562 241.273438 52.351562 241.875 C 52.851562 242.425781 53.101562 243.199219 53.101562 244.199219 C 53.101562 245.199219 52.851562 246 52.351562 246.601562 C 51.851562 247.148438 51.148438 247.425781 50.25 247.425781 C 49.300781 247.425781 48.574219 247.148438 48.074219 246.601562 C 47.574219 246 47.324219 245.199219 47.324219 244.199219 M 50.25 246.75 C 50.851562 246.75 51.324219 246.523438 51.675781 246.074219 C 52.023438 245.675781 52.199219 245.050781 52.199219 244.199219 C 52.199219 243.398438 52.023438 242.773438 51.675781 242.324219 C 51.324219 241.925781 50.851562 241.726562 50.25 241.726562 C 49.601562 241.726562 49.101562 241.925781 48.75 242.324219 C 48.398438 242.726562 48.226562 243.351562 48.226562 244.199219 C 48.226562 245.050781 48.398438 245.675781 48.75 246.074219 C 49.101562 246.523438 49.601562 246.75 50.25 246.75 "/>
<path style=" stroke:none;fill-rule:nonzero;fill:rgb(100%,0%,0%);fill-opacity:1;" d="M 17.023438 220.726562 C 17.023438 219.726562 17.273438 218.949219 17.773438 218.398438 C 18.273438 217.851562 19 217.574219 19.949219 217.574219 C 20.851562 217.574219 21.550781 217.851562 22.050781 218.398438 C 22.550781 218.949219 22.800781 219.726562 22.800781 220.726562 C 22.800781 221.726562 22.550781 222.523438 22.050781 223.125 C 21.550781 223.675781 20.851562 223.949219 19.949219 223.949219 C 19 223.949219 18.273438 223.675781 17.773438 223.125 C 17.273438 222.523438 17.023438 221.726562 17.023438 220.726562 M 19.949219 223.273438 C 20.550781 223.273438 21.023438 223.050781 21.375 222.601562 C 21.726562 222.199219 21.898438 221.574219 21.898438 220.726562 C 21.898438 219.925781 21.726562 219.300781 21.375 218.851562 C 21.023438 218.449219 20.550781 218.25 19.949219 218.25 C 19.300781 218.25 18.800781 218.449219 18.449219 218.851562 C 18.101562 219.300781 17.925781 219.925781 17.925781 220.726562 C 17.925781 221.574219 18.101562 222.199219 18.449219 222.601562 C 18.800781 223.050781 19.300781 223.273438 19.949219 223.273438 "/>
<path style=" stroke:none;fill-rule:nonzero;fill:rgb(100%,0%,0%);fill-opacity:1;" d="M 23.25 218.550781 L 25.351562 218.550781 L 25.351562 219 L 23.25 219 L 23.25 218.550781 "/>
<path style=" stroke:none;fill-rule:nonzero;fill:rgb(0%,0%,100%);fill-opacity:1;" d="M 47.851562 181.800781 L 49.875 185.175781 C 50.023438 185.375 50.199219 185.675781 50.398438 186.074219 C 50.601562 186.476562 50.726562 186.675781 50.773438 186.675781 L 50.773438 181.800781 L 51.601562 181.800781 L 51.601562 188.101562 L 50.699219 188.101562 L 48.523438 184.5 C 48.375 184.199219 48.199219 183.875 48 183.523438 C 47.800781 183.226562 47.675781 183.023438 47.625 182.925781 L 47.625 188.101562 L 46.800781 188.101562 L 46.800781 181.800781 L 47.851562 181.800781 "/>
<path style=" stroke:none;fill-rule:nonzero;fill:rgb(100%,0%,0%);fill-opacity:1;" d="M 72.074219 151.726562 C 72.074219 150.726562 72.324219 149.949219 72.824219 149.398438 C 73.324219 148.800781 74.050781 148.5 75 148.5 C 75.898438 148.5 76.601562 148.800781 77.101562 149.398438 C 77.601562 149.949219 77.851562 150.726562 77.851562 151.726562 C 77.851562 152.726562 77.601562 153.523438 77.101562 154.125 C 76.601562 154.675781 75.898438 154.949219 75 154.949219 C 74.050781 154.949219 73.324219 154.675781 72.824219 154.125 C 72.324219 153.523438 72.074219 152.726562 72.074219 151.726562 M 75 154.273438 C 75.648438 154.273438 76.125 154.050781 76.425781 153.601562 C 76.773438 153.199219 76.949219 152.574219 76.949219 151.726562 C 76.949219 150.875 76.773438 150.25 76.425781 149.851562 C 76.125 149.449219 75.648438 149.25 75 149.25 C 74.351562 149.25 73.851562 149.449219 73.5 149.851562 C 73.148438 150.25 72.976562 150.875 72.976562 151.726562 C 72.976562 152.574219 73.148438 153.199219 73.5 153.601562 C 73.851562 154.050781 74.351562 154.273438 75 154.273438 "/>
</g>
</svg>
