<?xml version="1.0" encoding="UTF-8"?>
<svg xmlns="http://www.w3.org/2000/svg" xmlns:xlink="http://www.w3.org/1999/xlink" width="375pt" height="375pt" viewBox="0 0 375 375" version="1.1">
<g id="surface276">
<rect x="0" y="0" width="375" height="375" style="fill:rgb(100%,100%,100%);fill-opacity:1;stroke:none;"/>
<path style="fill:none;stroke-width:2;stroke-linecap:butt;stroke-linejoin:miter;stroke:rgb(100%,0%,0%);stroke-opacity:1;stroke-miterlimit:4;" d="M 50.901042 227.598958 L 71.697917 214.802083 " transform="matrix(0.75,0,0,0.75,0,0)"/>
<path style="fill:none;stroke-width:2;stroke-linecap:butt;stroke-linejoin:miter;stroke:rgb(0%,0%,0%);stroke-opacity:1;stroke-miterlimit:4;" d="M 71.697917 214.802083 L 92.5 202 " transform="matrix(0.75,0,0,0.75,0,0)"/>
<path style="fill:none;stroke-width:2;stroke-linecap:butt;stroke-linejoin:miter;stroke:rgb(100%,0%,0%);stroke-opacity:1;stroke-miterlimit:4;" d="M 57.302083 237.901042 L 78 225.098958 " transform="matrix(0.75,0,0,0.75,0,0)"/>
<path style="fill:none;stroke-width:2;stroke-linecap:butt;stroke-linejoin:miter;stroke:rgb(0%,0%,0%);stroke-opacity:1;stroke-miterlimit:4;" d="M 78 225.098958 L 98.802083 212.302083 " transform="matrix(0.75,0,0,0.75,0,0)"/>
<path style="fill:none;stroke-width:2;stroke-linecap:butt;stroke-linejoin:miter;stroke:rgb(0%,0%,0%);stroke-opacity:1;stroke-miterlimit:4;" d="M 95.598958 207.098958 L 118 219.197917 " transform="matrix(0.75,0,0,0.75,0,0)"/>
<path style="fill:none;stroke-width:2;stroke-linecap:butt;stroke-linejoin:miter;stroke:rgb(0%,0%,100%);stroke-opacity:1;stroke-miterlimit:4;" d="M 118 219.197917 L 140.302083 231.197917 " transform="matrix(0.75,0,0,0.75,0,0)"/>
<path style="fill:none;stroke-width:2;stroke-linecap:butt;stroke-linejoin:miter;stroke:rgb(0%,0%,100%);stroke-opacity:1;stroke-miterlimit:4;" d="M 149.098958 246.302083 L 149.802083 271.197917 " transform="matrix(0.75,0,0,0.75,0,0)"/>
<path style="fill:none;stroke-width:2;stroke-linecap:butt;stroke-linejoin:miter;stroke:rgb(0%,0%,0%);stroke-opacity:1;stroke-miterlimit:4;" d="M 149.802083 271.197917 L 150.5 296.098958 " transform="matrix(0.75,0,0,0.75,0,0)"/>
<path style="fill-rule:evenodd;fill:rgb(0%,0%,0%);fill-opacity:1;stroke-width:1;stroke-linecap:butt;stroke-linejoin:miter;stroke:rgb(0%,0%,0%);stroke-opacity:1;stroke-miterlimit:4;" d="M 150.5 296.098958 L 102.302083 333 L 96 322.697917 Z M 150.5 296.098958 " transform="matrix(0.75,0,0,0.75,0,0)"/>
<path style="fill:none;stroke-width:2;stroke-linecap:butt;stroke-linejoin:miter;stroke:rgb(0%,0%,0%);stroke-opacity:1;stroke-miterlimit:4;" d="M 99.098958 327.802083 L 77.5 316.197917 " transform="matrix(0.75,0,0,0.75,0,0)"/>
<path style="fill:none;stroke-width:2;stroke-linecap:butt;stroke-linejoin:miter;stroke:rgb(100%,0%,0%);stroke-opacity:1;stroke-miterlimit:4;" d="M 77.5 316.197917 L 55.802083 304.5 " transform="matrix(0.75,0,0,0.75,0,0)"/>
<path style="fill:none;stroke-width:2;stroke-linecap:butt;stroke-linejoin:miter;stroke:rgb(0%,0%,0%);stroke-opacity:1;stroke-miterlimit:4;" d="M 150.5 296.098958 L 203.697917 324.802083 " transform="matrix(0.75,0,0,0.75,0,0)"/>
<path style="fill-rule:evenodd;fill:rgb(0%,0%,0%);fill-opacity:1;stroke-width:1;stroke-linecap:butt;stroke-linejoin:miter;stroke:rgb(0%,0%,0%);stroke-opacity:1;stroke-miterlimit:4;" d="M 203.697917 324.802083 L 207.401042 348.598958 L 201.302083 348.802083 Z M 203.697917 324.802083 " transform="matrix(0.75,0,0,0.75,0,0)"/>
<path style="fill-rule:evenodd;fill:rgb(100%,0%,0%);fill-opacity:1;stroke-width:1;stroke-linecap:butt;stroke-linejoin:miter;stroke:rgb(100%,0%,0%);stroke-opacity:1;stroke-miterlimit:4;" d="M 207.401042 348.598958 L 199 372.697917 L 211.098958 372.302083 Z M 207.401042 348.598958 " transform="matrix(0.75,0,0,0.75,0,0)"/>
<path style="fill-rule:evenodd;fill:rgb(100%,0%,0%);fill-opacity:1;stroke-width:1;stroke-linecap:butt;stroke-linejoin:miter;stroke:rgb(100%,0%,0%);stroke-opacity:1;stroke-miterlimit:4;" d="M 207.401042 348.598958 L 201.302083 348.802083 L 199 372.697917 Z M 207.401042 348.598958 " transform="matrix(0.75,0,0,0.75,0,0)"/>
<path style="fill:none;stroke-width:2;stroke-linecap:butt;stroke-linejoin:miter;stroke:rgb(0%,0%,0%);stroke-opacity:1;stroke-miterlimit:4;" d="M 203.697917 324.802083 L 255.098958 293.098958 " transform="matrix(0.75,0,0,0.75,0,0)"/>
<path style="fill:none;stroke-width:2;stroke-linecap:butt;stroke-linejoin:miter;stroke:rgb(0%,0%,0%);stroke-opacity:1;stroke-miterlimit:4;" d="M 255.098958 293.098958 L 253.302083 232.802083 " transform="matrix(0.75,0,0,0.75,0,0)"/>
<path style="fill:none;stroke-width:2;stroke-linecap:butt;stroke-linejoin:miter;stroke:rgb(0%,0%,0%);stroke-opacity:1;stroke-miterlimit:4;" d="M 266.901042 283.697917 L 265.598958 241.5 " transform="matrix(0.75,0,0,0.75,0,0)"/>
<path style="fill:none;stroke-width:2;stroke-linecap:butt;stroke-linejoin:miter;stroke:rgb(0%,0%,0%);stroke-opacity:1;stroke-miterlimit:4;" d="M 253.302083 232.802083 L 304.697917 201.098958 " transform="matrix(0.75,0,0,0.75,0,0)"/>
<path style="fill:none;stroke-width:2;stroke-linecap:butt;stroke-linejoin:miter;stroke:rgb(0%,0%,0%);stroke-opacity:1;stroke-miterlimit:4;" d="M 304.697917 201.098958 L 357.802083 229.697917 " transform="matrix(0.75,0,0,0.75,0,0)"/>
<path style="fill:none;stroke-width:2;stroke-linecap:butt;stroke-linejoin:miter;stroke:rgb(0%,0%,0%);stroke-opacity:1;stroke-miterlimit:4;" d="M 306.901042 216 L 344.098958 236.098958 " transform="matrix(0.75,0,0,0.75,0,0)"/>
<path style="fill:none;stroke-width:2;stroke-linecap:butt;stroke-linejoin:miter;stroke:rgb(0%,0%,0%);stroke-opacity:1;stroke-miterlimit:4;" d="M 357.802083 229.697917 L 379.302083 216.5 " transform="matrix(0.75,0,0,0.75,0,0)"/>
<path style="fill:none;stroke-width:2;stroke-linecap:butt;stroke-linejoin:miter;stroke:rgb(0%,0%,100%);stroke-opacity:1;stroke-miterlimit:4;" d="M 379.302083 216.5 L 400.802083 203.302083 " transform="matrix(0.75,0,0,0.75,0,0)"/>
<path style="fill:none;stroke-width:2;stroke-linecap:butt;stroke-linejoin:miter;stroke:rgb(0%,0%,100%);stroke-opacity:1;stroke-miterlimit:4;" d="M 402.901042 187.697917 L 402.302083 168.197917 " transform="matrix(0.75,0,0,0.75,0,0)"/>
<path style="fill:none;stroke-width:2;stroke-linecap:butt;stroke-linejoin:miter;stroke:rgb(100%,0%,0%);stroke-opacity:1;stroke-miterlimit:4;" d="M 402.302083 168.197917 L 401.802083 148.802083 " transform="matrix(0.75,0,0,0.75,0,0)"/>
<path style="fill:none;stroke-width:2;stroke-linecap:butt;stroke-linejoin:miter;stroke:rgb(0%,0%,100%);stroke-opacity:1;stroke-miterlimit:4;" d="M 415 187.302083 L 414.401042 167.901042 " transform="matrix(0.75,0,0,0.75,0,0)"/>
<path style="fill:none;stroke-width:2;stroke-linecap:butt;stroke-linejoin:miter;stroke:rgb(100%,0%,0%);stroke-opacity:1;stroke-miterlimit:4;" d="M 414.401042 167.901042 L 413.802083 148.401042 " transform="matrix(0.75,0,0,0.75,0,0)"/>
<path style="fill:none;stroke-width:2;stroke-linecap:butt;stroke-linejoin:miter;stroke:rgb(0%,0%,100%);stroke-opacity:1;stroke-miterlimit:4;" d="M 417.697917 202.598958 L 435.098958 212 " transform="matrix(0.75,0,0,0.75,0,0)"/>
<path style="fill:none;stroke-width:2;stroke-linecap:butt;stroke-linejoin:miter;stroke:rgb(100%,0%,0%);stroke-opacity:1;stroke-miterlimit:4;" d="M 435.098958 212 L 452.5 221.401042 " transform="matrix(0.75,0,0,0.75,0,0)"/>
<path style="fill:none;stroke-width:2;stroke-linecap:butt;stroke-linejoin:miter;stroke:rgb(0%,0%,0%);stroke-opacity:1;stroke-miterlimit:4;" d="M 357.802083 229.697917 L 359.598958 290.098958 " transform="matrix(0.75,0,0,0.75,0,0)"/>
<path style="fill:none;stroke-width:2;stroke-linecap:butt;stroke-linejoin:miter;stroke:rgb(0%,0%,0%);stroke-opacity:1;stroke-miterlimit:4;" d="M 359.598958 290.098958 L 308.197917 321.802083 " transform="matrix(0.75,0,0,0.75,0,0)"/>
<path style="fill:none;stroke-width:2;stroke-linecap:butt;stroke-linejoin:miter;stroke:rgb(0%,0%,0%);stroke-opacity:1;stroke-miterlimit:4;" d="M 345.5 284.598958 L 309.598958 306.697917 " transform="matrix(0.75,0,0,0.75,0,0)"/>
<path style="fill:none;stroke-width:2;stroke-linecap:butt;stroke-linejoin:miter;stroke:rgb(0%,0%,0%);stroke-opacity:1;stroke-miterlimit:4;" d="M 95.598958 207.098958 L 93.901042 146.802083 " transform="matrix(0.75,0,0,0.75,0,0)"/>
<path style="fill:none;stroke-width:2;stroke-linecap:butt;stroke-linejoin:miter;stroke:rgb(0%,0%,0%);stroke-opacity:1;stroke-miterlimit:4;" d="M 93.901042 146.802083 L 68.901042 133.302083 " transform="matrix(0.75,0,0,0.75,0,0)"/>
<path style="fill:none;stroke-width:2;stroke-linecap:butt;stroke-linejoin:miter;stroke:rgb(0%,80%,0%);stroke-opacity:1;stroke-miterlimit:4;" d="M 68.901042 133.302083 L 43.901042 119.802083 " transform="matrix(0.75,0,0,0.75,0,0)"/>
<path style="fill:none;stroke-width:2;stroke-linecap:butt;stroke-linejoin:miter;stroke:rgb(0%,0%,0%);stroke-opacity:1;stroke-miterlimit:4;" d="M 93.901042 146.802083 L 115.302083 133.598958 " transform="matrix(0.75,0,0,0.75,0,0)"/>
<path style="fill:none;stroke-width:2;stroke-linecap:butt;stroke-linejoin:miter;stroke:rgb(0%,80%,0%);stroke-opacity:1;stroke-miterlimit:4;" d="M 115.302083 133.598958 L 136.697917 120.401042 " transform="matrix(0.75,0,0,0.75,0,0)"/>
<path style="fill:none;stroke-width:2;stroke-linecap:butt;stroke-linejoin:miter;stroke:rgb(0%,0%,0%);stroke-opacity:1;stroke-miterlimit:4;" d="M 308.197917 321.802083 L 255.098958 293.098958 " transform="matrix(0.75,0,0,0.75,0,0)"/>
<path style=" stroke:none;fill-rule:nonzero;fill:rgb(100%,0%,0%);fill-opacity:1;" d="M 27.300781 179.175781 C 27.300781 177.125 27.800781 175.523438 28.800781 174.375 C 29.851562 173.226562 31.324219 172.648438 33.226562 172.648438 C 35.125 172.648438 36.574219 173.226562 37.574219 174.375 C 38.574219 175.523438 39.074219 177.125 39.074219 179.175781 C 39.074219 181.226562 38.574219 182.851562 37.574219 184.050781 C 36.523438 185.199219 35.074219 185.773438 33.226562 185.773438 C 31.324219 185.773438 29.851562 185.199219 28.800781 184.050781 C 27.800781 182.898438 27.300781 181.273438 27.300781 179.175781 M 33.226562 184.351562 C 34.523438 184.351562 35.523438 183.925781 36.226562 183.074219 C 36.925781 182.175781 37.273438 180.875 37.273438 179.175781 C 37.273438 177.476562 36.925781 176.199219 36.226562 175.351562 C 35.523438 174.5 34.523438 174.074219 33.226562 174.074219 C 31.925781 174.074219 30.898438 174.5 30.148438 175.351562 C 29.449219 176.199219 29.101562 177.476562 29.101562 179.175781 C 29.101562 180.875 29.449219 182.175781 30.148438 183.074219 C 30.898438 183.925781 31.925781 184.351562 33.226562 184.351562 "/>
<path style=" stroke:none;fill-rule:nonzero;fill:rgb(0%,0%,100%);fill-opacity:1;" d="M 108.75 170.398438 L 112.949219 177.226562 C 113.25 177.675781 113.625 178.300781 114.074219 179.101562 C 114.523438 179.898438 114.75 180.324219 114.75 180.375 L 114.75 170.398438 L 116.476562 170.398438 L 116.476562 183.226562 L 114.675781 183.226562 L 110.175781 175.800781 C 109.824219 175.25 109.476562 174.648438 109.125 174 C 108.726562 173.300781 108.476562 172.851562 108.375 172.648438 L 108.375 183.226562 L 106.726562 183.226562 L 106.726562 170.398438 L 108.75 170.398438 "/>
<path style=" stroke:none;fill-rule:nonzero;fill:rgb(0%,0%,100%);fill-opacity:1;" d="M 117.976562 170.398438 L 119.699219 170.398438 L 119.699219 175.875 L 126.226562 175.875 L 126.226562 170.398438 L 128.023438 170.398438 L 128.023438 183.226562 L 126.226562 183.226562 L 126.226562 177.300781 L 119.699219 177.300781 L 119.699219 183.226562 L 117.976562 183.226562 L 117.976562 170.398438 "/>
<path style=" stroke:none;fill-rule:nonzero;fill:rgb(100%,0%,0%);fill-opacity:1;" d="M 17.023438 218.023438 L 18.75 218.023438 L 18.75 223.5 L 25.351562 223.5 L 25.351562 218.023438 L 27.074219 218.023438 L 27.074219 230.851562 L 25.351562 230.851562 L 25.351562 224.925781 L 18.75 224.925781 L 18.75 230.851562 L 17.023438 230.851562 L 17.023438 218.023438 "/>
<path style=" stroke:none;fill-rule:nonzero;fill:rgb(100%,0%,0%);fill-opacity:1;" d="M 28.648438 224.398438 C 28.648438 222.351562 29.148438 220.75 30.148438 219.601562 C 31.148438 218.449219 32.601562 217.875 34.5 217.875 C 36.398438 217.875 37.851562 218.449219 38.851562 219.601562 C 39.898438 220.75 40.425781 222.351562 40.425781 224.398438 C 40.425781 226.5 39.898438 228.125 38.851562 229.273438 C 37.851562 230.476562 36.398438 231.074219 34.5 231.074219 C 32.601562 231.074219 31.148438 230.476562 30.148438 229.273438 C 29.148438 228.125 28.648438 226.5 28.648438 224.398438 M 34.5 229.648438 C 35.800781 229.648438 36.800781 229.199219 37.5 228.300781 C 38.199219 227.449219 38.550781 226.148438 38.550781 224.398438 C 38.550781 222.75 38.199219 221.5 37.5 220.648438 C 36.800781 219.800781 35.800781 219.375 34.5 219.375 C 33.199219 219.375 32.199219 219.800781 31.5 220.648438 C 30.800781 221.449219 30.449219 222.699219 30.449219 224.398438 C 30.449219 226.148438 30.800781 227.449219 31.5 228.300781 C 32.199219 229.199219 33.199219 229.648438 34.5 229.648438 "/>
<path style=" stroke:none;fill-rule:nonzero;fill:rgb(100%,0%,0%);fill-opacity:1;" d="M 148.199219 288.898438 C 148.199219 286.851562 148.699219 285.25 149.699219 284.101562 C 150.699219 282.949219 152.148438 282.375 154.050781 282.375 C 155.949219 282.375 157.398438 282.949219 158.398438 284.101562 C 159.449219 285.25 159.976562 286.851562 159.976562 288.898438 C 159.976562 291 159.449219 292.625 158.398438 293.773438 C 157.398438 294.976562 155.949219 295.574219 154.050781 295.574219 C 152.199219 295.574219 150.75 294.976562 149.699219 293.773438 C 148.699219 292.625 148.199219 291 148.199219 288.898438 M 154.050781 294.074219 C 155.351562 294.074219 156.351562 293.648438 157.050781 292.800781 C 157.800781 291.898438 158.175781 290.601562 158.175781 288.898438 C 158.175781 287.199219 157.800781 285.949219 157.050781 285.148438 C 156.351562 284.25 155.351562 283.800781 154.050781 283.800781 C 152.75 283.800781 151.75 284.226562 151.050781 285.074219 C 150.351562 285.925781 150 287.199219 150 288.898438 C 150 290.648438 150.351562 291.949219 151.050781 292.800781 C 151.75 293.648438 152.75 294.074219 154.050781 294.074219 "/>
<path style=" stroke:none;fill-rule:nonzero;fill:rgb(100%,0%,0%);fill-opacity:1;" d="M 160.875 282.523438 L 162.601562 282.523438 L 162.601562 288 L 169.125 288 L 169.125 282.523438 L 170.925781 282.523438 L 170.925781 295.351562 L 169.125 295.351562 L 169.125 289.425781 L 162.601562 289.425781 L 162.601562 295.351562 L 160.875 295.351562 L 160.875 282.523438 "/>
<path style=" stroke:none;fill-rule:nonzero;fill:rgb(0%,0%,100%);fill-opacity:1;" d="M 304.125 142.125 L 308.324219 148.949219 C 308.574219 149.398438 308.925781 150.023438 309.375 150.824219 C 309.824219 151.625 310.050781 152.050781 310.050781 152.101562 L 310.050781 142.125 L 311.773438 142.125 L 311.773438 154.949219 L 310.050781 154.949219 L 305.550781 147.523438 C 305.199219 146.925781 304.824219 146.300781 304.425781 145.648438 C 304.074219 145 303.851562 144.574219 303.75 144.375 L 303.75 154.949219 L 302.023438 154.949219 L 302.023438 142.125 L 304.125 142.125 "/>
<path style=" stroke:none;fill-rule:nonzero;fill:rgb(0%,0%,100%);fill-opacity:1;" d="M 313.273438 144.449219 L 315.523438 144.449219 L 315.523438 142.050781 L 316.574219 142.050781 L 316.574219 144.449219 L 318.898438 144.449219 L 318.898438 145.273438 L 316.574219 145.273438 L 316.574219 147.675781 L 315.523438 147.675781 L 315.523438 145.273438 L 313.273438 145.273438 L 313.273438 144.449219 "/>
<path style=" stroke:none;fill-rule:nonzero;fill:rgb(100%,0%,0%);fill-opacity:1;" d="M 299.699219 103.351562 C 299.699219 101.25 300.226562 99.648438 301.273438 98.550781 C 302.273438 97.398438 303.726562 96.824219 305.625 96.824219 C 307.523438 96.824219 308.976562 97.398438 309.976562 98.550781 C 310.976562 99.648438 311.476562 101.25 311.476562 103.351562 C 311.476562 105.398438 310.976562 107.023438 309.976562 108.226562 C 308.925781 109.375 307.476562 109.949219 305.625 109.949219 C 303.726562 109.949219 302.273438 109.375 301.273438 108.226562 C 300.226562 107.023438 299.699219 105.398438 299.699219 103.351562 M 305.625 108.523438 C 306.925781 108.523438 307.925781 108.074219 308.625 107.175781 C 309.324219 106.324219 309.675781 105.050781 309.675781 103.351562 C 309.675781 101.648438 309.324219 100.375 308.625 99.523438 C 307.925781 98.675781 306.925781 98.25 305.625 98.25 C 304.324219 98.25 303.300781 98.675781 302.550781 99.523438 C 301.851562 100.375 301.5 101.648438 301.5 103.351562 C 301.5 105.050781 301.851562 106.324219 302.550781 107.175781 C 303.300781 108.074219 304.324219 108.523438 305.625 108.523438 "/>
<path style=" stroke:none;fill-rule:nonzero;fill:rgb(100%,0%,0%);fill-opacity:1;" d="M 340.875 170.101562 C 340.875 168.050781 341.375 166.449219 342.375 165.300781 C 343.425781 164.148438 344.898438 163.574219 346.800781 163.574219 C 348.699219 163.574219 350.148438 164.148438 351.148438 165.300781 C 352.148438 166.449219 352.648438 168.050781 352.648438 170.101562 C 352.648438 172.148438 352.148438 173.773438 351.148438 174.976562 C 350.101562 176.125 348.648438 176.699219 346.800781 176.699219 C 344.898438 176.699219 343.425781 176.125 342.375 174.976562 C 341.375 173.773438 340.875 172.148438 340.875 170.101562 M 346.800781 175.273438 C 348.101562 175.273438 349.101562 174.851562 349.800781 174 C 350.5 173.101562 350.851562 171.800781 350.851562 170.101562 C 350.851562 168.398438 350.5 167.125 349.800781 166.273438 C 349.101562 165.425781 348.101562 165 346.800781 165 C 345.5 165 344.476562 165.425781 343.726562 166.273438 C 343.023438 167.125 342.675781 168.398438 342.675781 170.101562 C 342.675781 171.800781 343.023438 173.101562 343.726562 174 C 344.476562 174.851562 345.5 175.273438 346.800781 175.273438 "/>
<path style=" stroke:none;fill-rule:nonzero;fill:rgb(100%,0%,0%);fill-opacity:1;" d="M 353.550781 165.675781 L 357.976562 165.675781 L 357.976562 166.574219 L 353.550781 166.574219 L 353.550781 165.675781 "/>
<path style=" stroke:none;fill-rule:nonzero;fill:rgb(0%,80%,0%);fill-opacity:1;" d="M 19.125 89.023438 C 19.125 86.925781 19.625 85.300781 20.625 84.148438 C 21.625 83.050781 23.074219 82.5 24.976562 82.5 C 26.726562 82.5 28.074219 83.125 29.023438 84.375 L 27.824219 85.351562 C 27.125 84.449219 26.175781 84 24.976562 84 C 23.675781 84 22.675781 84.425781 21.976562 85.273438 C 21.324219 86.125 21 87.375 21 89.023438 C 21 90.726562 21.351562 92 22.050781 92.851562 C 22.75 93.75 23.773438 94.199219 25.125 94.199219 C 26.074219 94.199219 27.101562 93.898438 28.199219 93.300781 L 28.726562 94.726562 C 28.273438 94.976562 27.726562 95.199219 27.074219 95.398438 C 26.375 95.550781 25.648438 95.625 24.898438 95.625 C 23.050781 95.625 21.625 95.050781 20.625 93.898438 C 19.625 92.800781 19.125 91.175781 19.125 89.023438 "/>
<path style=" stroke:none;fill-rule:nonzero;fill:rgb(0%,80%,0%);fill-opacity:1;" d="M 29.773438 81.75 L 31.425781 81.75 L 31.425781 95.476562 L 29.773438 95.476562 L 29.773438 81.75 "/>
<path style=" stroke:none;fill-rule:nonzero;fill:rgb(0%,80%,0%);fill-opacity:1;" d="M 104.023438 86.773438 C 104.023438 84.625 104.523438 83 105.523438 81.898438 C 106.523438 80.800781 107.976562 80.25 109.875 80.25 C 111.625 80.25 112.976562 80.875 113.925781 82.125 L 112.726562 83.101562 C 112.023438 82.199219 111.074219 81.75 109.875 81.75 C 108.574219 81.75 107.574219 82.175781 106.875 83.023438 C 106.226562 83.875 105.898438 85.125 105.898438 86.773438 C 105.898438 88.476562 106.25 89.75 106.949219 90.601562 C 107.648438 91.449219 108.675781 91.875 110.023438 91.875 C 110.976562 91.875 112 91.601562 113.101562 91.050781 L 113.625 92.398438 C 113.175781 92.699219 112.625 92.925781 111.976562 93.074219 C 111.273438 93.273438 110.550781 93.375 109.800781 93.375 C 107.949219 93.375 106.523438 92.800781 105.523438 91.648438 C 104.523438 90.5 104.023438 88.875 104.023438 86.773438 "/>
<path style=" stroke:none;fill-rule:nonzero;fill:rgb(0%,80%,0%);fill-opacity:1;" d="M 114.601562 79.425781 L 116.324219 79.425781 L 116.324219 93.226562 L 114.601562 93.226562 L 114.601562 79.425781 "/>
</g>
</svg>
