<?xml version="1.0" encoding="UTF-8"?>
<svg xmlns="http://www.w3.org/2000/svg" xmlns:xlink="http://www.w3.org/1999/xlink" width="375pt" height="375pt" viewBox="0 0 375 375" version="1.1">
<g id="surface16">
<rect x="0" y="0" width="375" height="375" style="fill:rgb(100%,100%,100%);fill-opacity:1;stroke:none;"/>
<path style="fill:none;stroke-width:1;stroke-linecap:butt;stroke-linejoin:miter;stroke:rgb(0%,0%,0%);stroke-opacity:1;stroke-miterlimit:4;" d="M 455.197917 298.901042 L 455.197917 297.802083 " transform="matrix(0.75,0,0,0.75,0,0)"/>
<path style="fill:none;stroke-width:1;stroke-linecap:butt;stroke-linejoin:miter;stroke:rgb(0%,0%,0%);stroke-opacity:1;stroke-miterlimit:4;" d="M 460.697917 299.098958 L 460.598958 296.901042 " transform="matrix(0.75,0,0,0.75,0,0)"/>
<path style="fill:none;stroke-width:1;stroke-linecap:butt;stroke-linejoin:miter;stroke:rgb(0%,0%,0%);stroke-opacity:1;stroke-miterlimit:4;" d="M 466.197917 299.302083 L 466.098958 296 " transform="matrix(0.75,0,0,0.75,0,0)"/>
<path style="fill:none;stroke-width:1;stroke-linecap:butt;stroke-linejoin:miter;stroke:rgb(0%,0%,0%);stroke-opacity:1;stroke-miterlimit:4;" d="M 471.802083 299.5 L 471.5 295.197917 " transform="matrix(0.75,0,0,0.75,0,0)"/>
<path style="fill:none;stroke-width:1;stroke-linecap:butt;stroke-linejoin:miter;stroke:rgb(0%,0%,0%);stroke-opacity:1;stroke-miterlimit:4;" d="M 477.302083 299.697917 L 476.901042 294.302083 " transform="matrix(0.75,0,0,0.75,0,0)"/>
<path style="fill:none;stroke-width:2;stroke-linecap:butt;stroke-linejoin:miter;stroke:rgb(0%,0%,0%);stroke-opacity:1;stroke-miterlimit:4;" d="M 449.697917 298.697917 L 437.401042 323.197917 " transform="matrix(0.75,0,0,0.75,0,0)"/>
<path style="fill:none;stroke-width:2;stroke-linecap:butt;stroke-linejoin:miter;stroke:rgb(0%,0%,0%);stroke-opacity:1;stroke-miterlimit:4;" d="M 437.401042 323.197917 L 410 324.901042 " transform="matrix(0.75,0,0,0.75,0,0)"/>
<path style="fill:none;stroke-width:2;stroke-linecap:butt;stroke-linejoin:miter;stroke:rgb(0%,0%,0%);stroke-opacity:1;stroke-miterlimit:4;" d="M 410 324.901042 L 394.901042 302 " transform="matrix(0.75,0,0,0.75,0,0)"/>
<path style="fill:none;stroke-width:1;stroke-linecap:butt;stroke-linejoin:miter;stroke:rgb(0%,0%,0%);stroke-opacity:1;stroke-miterlimit:4;" d="M 389.401042 302.802083 L 389.901042 304.5 " transform="matrix(0.75,0,0,0.75,0,0)"/>
<path style="fill:none;stroke-width:1;stroke-linecap:butt;stroke-linejoin:miter;stroke:rgb(100%,0%,0%);stroke-opacity:1;stroke-miterlimit:4;" d="M 383.802083 303.598958 L 384.901042 307 " transform="matrix(0.75,0,0,0.75,0,0)"/>
<path style="fill:none;stroke-width:1;stroke-linecap:butt;stroke-linejoin:miter;stroke:rgb(100%,0%,0%);stroke-opacity:1;stroke-miterlimit:4;" d="M 378.302083 304.302083 L 379.901042 309.598958 " transform="matrix(0.75,0,0,0.75,0,0)"/>
<path style="fill:none;stroke-width:1;stroke-linecap:butt;stroke-linejoin:miter;stroke:rgb(0%,0%,0%);stroke-opacity:1;stroke-miterlimit:4;" d="M 407.098958 329.302083 L 408.302083 329.901042 " transform="matrix(0.75,0,0,0.75,0,0)"/>
<path style="fill:none;stroke-width:1;stroke-linecap:butt;stroke-linejoin:miter;stroke:rgb(0%,0%,0%);stroke-opacity:1;stroke-miterlimit:4;" d="M 404.098958 333.697917 L 406.598958 334.901042 " transform="matrix(0.75,0,0,0.75,0,0)"/>
<path style="fill:none;stroke-width:1;stroke-linecap:butt;stroke-linejoin:miter;stroke:rgb(0%,0%,100%);stroke-opacity:1;stroke-miterlimit:4;" d="M 401.098958 338.098958 L 404.802083 339.901042 " transform="matrix(0.75,0,0,0.75,0,0)"/>
<path style="fill:none;stroke-width:1;stroke-linecap:butt;stroke-linejoin:miter;stroke:rgb(0%,0%,100%);stroke-opacity:1;stroke-miterlimit:4;" d="M 398.197917 342.5 L 403.098958 345 " transform="matrix(0.75,0,0,0.75,0,0)"/>
<path style="fill-rule:evenodd;fill:rgb(0%,0%,0%);fill-opacity:1;stroke-width:1;stroke-linecap:butt;stroke-linejoin:miter;stroke:rgb(0%,0%,0%);stroke-opacity:1;stroke-miterlimit:4;" d="M 437.401042 323.197917 L 444.302083 331 L 442 332.598958 Z M 437.401042 323.197917 " transform="matrix(0.75,0,0,0.75,0,0)"/>
<path style="fill-rule:evenodd;fill:rgb(100%,0%,0%);fill-opacity:1;stroke-width:1;stroke-linecap:butt;stroke-linejoin:miter;stroke:rgb(100%,0%,0%);stroke-opacity:1;stroke-miterlimit:4;" d="M 444.302083 331 L 446.5 341.901042 L 451.098958 338.901042 Z M 444.302083 331 " transform="matrix(0.75,0,0,0.75,0,0)"/>
<path style="fill-rule:evenodd;fill:rgb(100%,0%,0%);fill-opacity:1;stroke-width:1;stroke-linecap:butt;stroke-linejoin:miter;stroke:rgb(100%,0%,0%);stroke-opacity:1;stroke-miterlimit:4;" d="M 444.302083 331 L 442 332.598958 L 446.5 341.901042 Z M 444.302083 331 " transform="matrix(0.75,0,0,0.75,0,0)"/>
<path style="fill:none;stroke-width:2;stroke-linecap:butt;stroke-linejoin:miter;stroke:rgb(0%,0%,0%);stroke-opacity:1;stroke-miterlimit:4;" d="M 449.697917 298.697917 L 443.802083 289.697917 " transform="matrix(0.75,0,0,0.75,0,0)"/>
<path style="fill:none;stroke-width:2;stroke-linecap:butt;stroke-linejoin:miter;stroke:rgb(100%,0%,0%);stroke-opacity:1;stroke-miterlimit:4;" d="M 443.802083 289.697917 L 437.802083 280.697917 " transform="matrix(0.75,0,0,0.75,0,0)"/>
<path style="fill:none;stroke-width:2;stroke-linecap:butt;stroke-linejoin:miter;stroke:rgb(100%,0%,0%);stroke-opacity:1;stroke-miterlimit:4;" d="M 430.098958 276 L 418.598958 276.697917 " transform="matrix(0.75,0,0,0.75,0,0)"/>
<path style="fill:none;stroke-width:2;stroke-linecap:butt;stroke-linejoin:miter;stroke:rgb(0%,0%,0%);stroke-opacity:1;stroke-miterlimit:4;" d="M 418.598958 276.697917 L 407.197917 277.401042 " transform="matrix(0.75,0,0,0.75,0,0)"/>
<path style="fill:none;stroke-width:1;stroke-linecap:butt;stroke-linejoin:miter;stroke:rgb(0%,0%,0%);stroke-opacity:1;stroke-miterlimit:4;" d="M 404.901042 272.802083 L 403.802083 273.5 " transform="matrix(0.75,0,0,0.75,0,0)"/>
<path style="fill:none;stroke-width:1;stroke-linecap:butt;stroke-linejoin:miter;stroke:rgb(0%,0%,0%);stroke-opacity:1;stroke-miterlimit:4;" d="M 402.697917 268.098958 L 400.401042 269.598958 " transform="matrix(0.75,0,0,0.75,0,0)"/>
<path style="fill:none;stroke-width:1;stroke-linecap:butt;stroke-linejoin:miter;stroke:rgb(100%,0%,0%);stroke-opacity:1;stroke-miterlimit:4;" d="M 400.401042 263.5 L 397 265.802083 " transform="matrix(0.75,0,0,0.75,0,0)"/>
<path style="fill:none;stroke-width:1;stroke-linecap:butt;stroke-linejoin:miter;stroke:rgb(100%,0%,0%);stroke-opacity:1;stroke-miterlimit:4;" d="M 398.197917 258.901042 L 393.598958 261.901042 " transform="matrix(0.75,0,0,0.75,0,0)"/>
<path style="fill:none;stroke-width:1;stroke-linecap:butt;stroke-linejoin:miter;stroke:rgb(0%,0%,0%);stroke-opacity:1;stroke-miterlimit:4;" d="M 370.197917 256.5 L 370.098958 255.197917 " transform="matrix(0.75,0,0,0.75,0,0)"/>
<path style="fill:none;stroke-width:1;stroke-linecap:butt;stroke-linejoin:miter;stroke:rgb(0%,0%,0%);stroke-opacity:1;stroke-miterlimit:4;" d="M 375.697917 256.901042 L 375.598958 254.098958 " transform="matrix(0.75,0,0,0.75,0,0)"/>
<path style="fill:none;stroke-width:1;stroke-linecap:butt;stroke-linejoin:miter;stroke:rgb(100%,0%,0%);stroke-opacity:1;stroke-miterlimit:4;" d="M 381.302083 257.197917 L 381 253.098958 " transform="matrix(0.75,0,0,0.75,0,0)"/>
<path style="fill:none;stroke-width:1;stroke-linecap:butt;stroke-linejoin:miter;stroke:rgb(100%,0%,0%);stroke-opacity:1;stroke-miterlimit:4;" d="M 386.802083 257.598958 L 386.5 252.098958 " transform="matrix(0.75,0,0,0.75,0,0)"/>
<path style="fill:none;stroke-width:2;stroke-linecap:butt;stroke-linejoin:miter;stroke:rgb(0%,0%,0%);stroke-opacity:1;stroke-miterlimit:4;" d="M 364.598958 256.197917 L 361.302083 233.901042 " transform="matrix(0.75,0,0,0.75,0,0)"/>
<path style="fill:none;stroke-width:2;stroke-linecap:butt;stroke-linejoin:miter;stroke:rgb(0%,0%,0%);stroke-opacity:1;stroke-miterlimit:4;" d="M 359 224.197917 L 351.901042 203 " transform="matrix(0.75,0,0,0.75,0,0)"/>
<path style="fill:none;stroke-width:2;stroke-linecap:butt;stroke-linejoin:miter;stroke:rgb(0%,0%,0%);stroke-opacity:1;stroke-miterlimit:4;" d="M 351.901042 203 L 374.802083 187.901042 " transform="matrix(0.75,0,0,0.75,0,0)"/>
<path style="fill:none;stroke-width:2;stroke-linecap:butt;stroke-linejoin:miter;stroke:rgb(0%,0%,0%);stroke-opacity:1;stroke-miterlimit:4;" d="M 374.802083 187.901042 L 373.197917 160.5 " transform="matrix(0.75,0,0,0.75,0,0)"/>
<path style="fill:none;stroke-width:2;stroke-linecap:butt;stroke-linejoin:miter;stroke:rgb(0%,0%,0%);stroke-opacity:1;stroke-miterlimit:4;" d="M 373.197917 160.5 L 348.598958 148.197917 " transform="matrix(0.75,0,0,0.75,0,0)"/>
<path style="fill:none;stroke-width:1;stroke-linecap:butt;stroke-linejoin:miter;stroke:rgb(0%,0%,0%);stroke-opacity:1;stroke-miterlimit:4;" d="M 377.901042 158.098958 L 377.197917 157 " transform="matrix(0.75,0,0,0.75,0,0)"/>
<path style="fill:none;stroke-width:1;stroke-linecap:butt;stroke-linejoin:miter;stroke:rgb(0%,0%,0%);stroke-opacity:1;stroke-miterlimit:4;" d="M 382.697917 155.802083 L 381.197917 153.5 " transform="matrix(0.75,0,0,0.75,0,0)"/>
<path style="fill:none;stroke-width:1;stroke-linecap:butt;stroke-linejoin:miter;stroke:rgb(100%,0%,0%);stroke-opacity:1;stroke-miterlimit:4;" d="M 387.401042 153.5 L 385.197917 150.098958 " transform="matrix(0.75,0,0,0.75,0,0)"/>
<path style="fill:none;stroke-width:1;stroke-linecap:butt;stroke-linejoin:miter;stroke:rgb(100%,0%,0%);stroke-opacity:1;stroke-miterlimit:4;" d="M 392.197917 151.098958 L 389.197917 146.598958 " transform="matrix(0.75,0,0,0.75,0,0)"/>
<path style="fill-rule:evenodd;fill:rgb(0%,0%,0%);fill-opacity:1;stroke-width:1;stroke-linecap:butt;stroke-linejoin:miter;stroke:rgb(0%,0%,0%);stroke-opacity:1;stroke-miterlimit:4;" d="M 374.802083 187.901042 L 400.598958 197.697917 L 398.197917 202.598958 Z M 374.802083 187.901042 " transform="matrix(0.75,0,0,0.75,0,0)"/>
<path style="fill:none;stroke-width:2;stroke-linecap:butt;stroke-linejoin:miter;stroke:rgb(0%,0%,0%);stroke-opacity:1;stroke-miterlimit:4;" d="M 399.401042 200.098958 L 408.598958 194 " transform="matrix(0.75,0,0,0.75,0,0)"/>
<path style="fill:none;stroke-width:2;stroke-linecap:butt;stroke-linejoin:miter;stroke:rgb(100%,0%,0%);stroke-opacity:1;stroke-miterlimit:4;" d="M 408.598958 194 L 417.802083 187.901042 " transform="matrix(0.75,0,0,0.75,0,0)"/>
<path style="fill:none;stroke-width:2;stroke-linecap:butt;stroke-linejoin:miter;stroke:rgb(0%,0%,0%);stroke-opacity:1;stroke-miterlimit:4;" d="M 402.098958 200 L 402.802083 211.197917 " transform="matrix(0.75,0,0,0.75,0,0)"/>
<path style="fill:none;stroke-width:2;stroke-linecap:butt;stroke-linejoin:miter;stroke:rgb(100%,0%,0%);stroke-opacity:1;stroke-miterlimit:4;" d="M 402.802083 211.197917 L 403.5 222.5 " transform="matrix(0.75,0,0,0.75,0,0)"/>
<path style="fill:none;stroke-width:2;stroke-linecap:butt;stroke-linejoin:miter;stroke:rgb(0%,0%,0%);stroke-opacity:1;stroke-miterlimit:4;" d="M 396.598958 200.302083 L 397.302083 211.598958 " transform="matrix(0.75,0,0,0.75,0,0)"/>
<path style="fill:none;stroke-width:2;stroke-linecap:butt;stroke-linejoin:miter;stroke:rgb(100%,0%,0%);stroke-opacity:1;stroke-miterlimit:4;" d="M 397.302083 211.598958 L 398 222.802083 " transform="matrix(0.75,0,0,0.75,0,0)"/>
<path style="fill:none;stroke-width:2;stroke-linecap:butt;stroke-linejoin:miter;stroke:rgb(0%,0%,0%);stroke-opacity:1;stroke-miterlimit:4;" d="M 351.901042 203 L 341.901042 198 " transform="matrix(0.75,0,0,0.75,0,0)"/>
<path style="fill:none;stroke-width:2;stroke-linecap:butt;stroke-linejoin:miter;stroke:rgb(100%,0%,0%);stroke-opacity:1;stroke-miterlimit:4;" d="M 341.901042 198 L 331.802083 193 " transform="matrix(0.75,0,0,0.75,0,0)"/>
<path style="fill:none;stroke-width:2;stroke-linecap:butt;stroke-linejoin:miter;stroke:rgb(100%,0%,0%);stroke-opacity:1;stroke-miterlimit:4;" d="M 327.098958 185.901042 L 326.401042 174.598958 " transform="matrix(0.75,0,0,0.75,0,0)"/>
<path style="fill:none;stroke-width:2;stroke-linecap:butt;stroke-linejoin:miter;stroke:rgb(0%,0%,0%);stroke-opacity:1;stroke-miterlimit:4;" d="M 326.401042 174.598958 L 325.697917 163.302083 " transform="matrix(0.75,0,0,0.75,0,0)"/>
<path style="fill:none;stroke-width:2;stroke-linecap:butt;stroke-linejoin:miter;stroke:rgb(0%,0%,0%);stroke-opacity:1;stroke-miterlimit:4;" d="M 325.697917 163.302083 L 305.098958 143 " transform="matrix(0.75,0,0,0.75,0,0)"/>
<path style="fill:none;stroke-width:2;stroke-linecap:butt;stroke-linejoin:miter;stroke:rgb(0%,0%,0%);stroke-opacity:1;stroke-miterlimit:4;" d="M 297.302083 136.802083 L 277.802083 124.802083 " transform="matrix(0.75,0,0,0.75,0,0)"/>
<path style="fill:none;stroke-width:2;stroke-linecap:butt;stroke-linejoin:miter;stroke:rgb(0%,0%,0%);stroke-opacity:1;stroke-miterlimit:4;" d="M 277.802083 124.802083 L 256.197917 116.302083 " transform="matrix(0.75,0,0,0.75,0,0)"/>
<path style="fill:none;stroke-width:2;stroke-linecap:butt;stroke-linejoin:miter;stroke:rgb(0%,0%,0%);stroke-opacity:1;stroke-miterlimit:4;" d="M 248.401042 113.901042 L 225.401042 109.197917 " transform="matrix(0.75,0,0,0.75,0,0)"/>
<path style="fill:none;stroke-width:2;stroke-linecap:butt;stroke-linejoin:miter;stroke:rgb(0%,0%,0%);stroke-opacity:1;stroke-miterlimit:4;" d="M 225.401042 109.197917 L 198 108.5 " transform="matrix(0.75,0,0,0.75,0,0)"/>
<path style="fill:none;stroke-width:2;stroke-linecap:butt;stroke-linejoin:miter;stroke:rgb(0%,0%,0%);stroke-opacity:1;stroke-miterlimit:4;" d="M 198 108.5 L 174.697917 111.901042 " transform="matrix(0.75,0,0,0.75,0,0)"/>
<path style="fill:none;stroke-width:2;stroke-linecap:butt;stroke-linejoin:miter;stroke:rgb(0%,0%,0%);stroke-opacity:1;stroke-miterlimit:4;" d="M 166.901042 113.802083 L 148.697917 119.901042 " transform="matrix(0.75,0,0,0.75,0,0)"/>
<path style="fill:none;stroke-width:2;stroke-linecap:butt;stroke-linejoin:miter;stroke:rgb(0%,0%,0%);stroke-opacity:1;stroke-miterlimit:4;" d="M 140.901042 123.302083 L 120.697917 134.302083 " transform="matrix(0.75,0,0,0.75,0,0)"/>
<path style="fill:none;stroke-width:2;stroke-linecap:butt;stroke-linejoin:miter;stroke:rgb(0%,0%,0%);stroke-opacity:1;stroke-miterlimit:4;" d="M 120.697917 134.302083 L 103.098958 148.302083 " transform="matrix(0.75,0,0,0.75,0,0)"/>
<path style="fill:none;stroke-width:2;stroke-linecap:butt;stroke-linejoin:miter;stroke:rgb(0%,0%,0%);stroke-opacity:1;stroke-miterlimit:4;" d="M 95.302083 155.802083 L 81 171.901042 " transform="matrix(0.75,0,0,0.75,0,0)"/>
<path style="fill:none;stroke-width:2;stroke-linecap:butt;stroke-linejoin:miter;stroke:rgb(0%,0%,0%);stroke-opacity:1;stroke-miterlimit:4;" d="M 81 171.901042 L 69.598958 190.5 " transform="matrix(0.75,0,0,0.75,0,0)"/>
<path style="fill:none;stroke-width:2;stroke-linecap:butt;stroke-linejoin:miter;stroke:rgb(0%,0%,0%);stroke-opacity:1;stroke-miterlimit:4;" d="M 64.697917 200.197917 L 56.5 220.802083 " transform="matrix(0.75,0,0,0.75,0,0)"/>
<path style="fill:none;stroke-width:2;stroke-linecap:butt;stroke-linejoin:miter;stroke:rgb(0%,0%,0%);stroke-opacity:1;stroke-miterlimit:4;" d="M 56.5 220.802083 L 54.302083 231.901042 " transform="matrix(0.75,0,0,0.75,0,0)"/>
<path style="fill:none;stroke-width:2;stroke-linecap:butt;stroke-linejoin:miter;stroke:rgb(100%,0%,0%);stroke-opacity:1;stroke-miterlimit:4;" d="M 54.302083 231.901042 L 52 242.901042 " transform="matrix(0.75,0,0,0.75,0,0)"/>
<path style="fill:none;stroke-width:2;stroke-linecap:butt;stroke-linejoin:miter;stroke:rgb(100%,0%,0%);stroke-opacity:1;stroke-miterlimit:4;" d="M 50.901042 252.697917 L 50.598958 263.901042 " transform="matrix(0.75,0,0,0.75,0,0)"/>
<path style="fill:none;stroke-width:2;stroke-linecap:butt;stroke-linejoin:miter;stroke:rgb(0%,0%,0%);stroke-opacity:1;stroke-miterlimit:4;" d="M 50.598958 263.901042 L 50.302083 275.197917 " transform="matrix(0.75,0,0,0.75,0,0)"/>
<path style="fill-rule:evenodd;fill:rgb(0%,0%,0%);fill-opacity:1;stroke-width:1;stroke-linecap:butt;stroke-linejoin:miter;stroke:rgb(0%,0%,0%);stroke-opacity:1;stroke-miterlimit:4;" d="M 50.302083 275.197917 L 23.098958 279.5 L 22.697917 274.098958 Z M 50.302083 275.197917 " transform="matrix(0.75,0,0,0.75,0,0)"/>
<path style="fill:none;stroke-width:2;stroke-linecap:butt;stroke-linejoin:miter;stroke:rgb(0%,0%,0%);stroke-opacity:1;stroke-miterlimit:4;" d="M 50.302083 275.197917 L 54.302083 302.302083 " transform="matrix(0.75,0,0,0.75,0,0)"/>
<path style="fill-rule:evenodd;fill:rgb(0%,0%,0%);fill-opacity:1;stroke-width:1;stroke-linecap:butt;stroke-linejoin:miter;stroke:rgb(0%,0%,0%);stroke-opacity:1;stroke-miterlimit:4;" d="M 54.302083 302.302083 L 28.302083 311.302083 L 27 306 Z M 54.302083 302.302083 " transform="matrix(0.75,0,0,0.75,0,0)"/>
<path style="fill:none;stroke-width:2;stroke-linecap:butt;stroke-linejoin:miter;stroke:rgb(0%,0%,0%);stroke-opacity:1;stroke-miterlimit:4;" d="M 55.697917 223.5 L 44.802083 220.197917 " transform="matrix(0.75,0,0,0.75,0,0)"/>
<path style="fill:none;stroke-width:2;stroke-linecap:butt;stroke-linejoin:miter;stroke:rgb(100%,0%,0%);stroke-opacity:1;stroke-miterlimit:4;" d="M 44.802083 220.197917 L 33.901042 217 " transform="matrix(0.75,0,0,0.75,0,0)"/>
<path style="fill:none;stroke-width:2;stroke-linecap:butt;stroke-linejoin:miter;stroke:rgb(0%,0%,0%);stroke-opacity:1;stroke-miterlimit:4;" d="M 57.302083 218.197917 L 46.401042 215 " transform="matrix(0.75,0,0,0.75,0,0)"/>
<path style="fill:none;stroke-width:2;stroke-linecap:butt;stroke-linejoin:miter;stroke:rgb(100%,0%,0%);stroke-opacity:1;stroke-miterlimit:4;" d="M 46.401042 215 L 35.5 211.697917 " transform="matrix(0.75,0,0,0.75,0,0)"/>
<path style="fill:none;stroke-width:1;stroke-linecap:butt;stroke-linejoin:miter;stroke:rgb(0%,0%,0%);stroke-opacity:1;stroke-miterlimit:4;" d="M 77.197917 168.302083 L 76.401042 169.401042 " transform="matrix(0.75,0,0,0.75,0,0)"/>
<path style="fill:none;stroke-width:1;stroke-linecap:butt;stroke-linejoin:miter;stroke:rgb(0%,0%,0%);stroke-opacity:1;stroke-miterlimit:4;" d="M 73.401042 164.598958 L 71.802083 166.802083 " transform="matrix(0.75,0,0,0.75,0,0)"/>
<path style="fill:none;stroke-width:1;stroke-linecap:butt;stroke-linejoin:miter;stroke:rgb(100%,0%,0%);stroke-opacity:1;stroke-miterlimit:4;" d="M 69.697917 161 L 67.197917 164.302083 " transform="matrix(0.75,0,0,0.75,0,0)"/>
<path style="fill:none;stroke-width:1;stroke-linecap:butt;stroke-linejoin:miter;stroke:rgb(100%,0%,0%);stroke-opacity:1;stroke-miterlimit:4;" d="M 65.901042 157.302083 L 62.697917 161.697917 " transform="matrix(0.75,0,0,0.75,0,0)"/>
<path style="fill:none;stroke-width:1;stroke-linecap:butt;stroke-linejoin:miter;stroke:rgb(0%,0%,0%);stroke-opacity:1;stroke-miterlimit:4;" d="M 118.401042 129.697917 L 117.302083 130.401042 " transform="matrix(0.75,0,0,0.75,0,0)"/>
<path style="fill:none;stroke-width:1;stroke-linecap:butt;stroke-linejoin:miter;stroke:rgb(0%,0%,0%);stroke-opacity:1;stroke-miterlimit:4;" d="M 116.197917 125 L 113.901042 126.5 " transform="matrix(0.75,0,0,0.75,0,0)"/>
<path style="fill:none;stroke-width:1;stroke-linecap:butt;stroke-linejoin:miter;stroke:rgb(100%,0%,0%);stroke-opacity:1;stroke-miterlimit:4;" d="M 113.901042 120.401042 L 110.5 122.598958 " transform="matrix(0.75,0,0,0.75,0,0)"/>
<path style="fill:none;stroke-width:1;stroke-linecap:butt;stroke-linejoin:miter;stroke:rgb(100%,0%,0%);stroke-opacity:1;stroke-miterlimit:4;" d="M 111.697917 115.697917 L 107.098958 118.697917 " transform="matrix(0.75,0,0,0.75,0,0)"/>
<path style="fill-rule:evenodd;fill:rgb(0%,0%,0%);fill-opacity:1;stroke-width:1;stroke-linecap:butt;stroke-linejoin:miter;stroke:rgb(0%,0%,0%);stroke-opacity:1;stroke-miterlimit:4;" d="M 198 108.5 L 196 97.802083 L 198.697917 97.598958 Z M 198 108.5 " transform="matrix(0.75,0,0,0.75,0,0)"/>
<path style="fill-rule:evenodd;fill:rgb(100%,0%,0%);fill-opacity:1;stroke-width:1;stroke-linecap:butt;stroke-linejoin:miter;stroke:rgb(100%,0%,0%);stroke-opacity:1;stroke-miterlimit:4;" d="M 196 97.802083 L 199.401042 86.802083 L 193.901042 87.098958 Z M 196 97.802083 " transform="matrix(0.75,0,0,0.75,0,0)"/>
<path style="fill-rule:evenodd;fill:rgb(100%,0%,0%);fill-opacity:1;stroke-width:1;stroke-linecap:butt;stroke-linejoin:miter;stroke:rgb(100%,0%,0%);stroke-opacity:1;stroke-miterlimit:4;" d="M 196 97.802083 L 198.697917 97.598958 L 199.401042 86.802083 Z M 196 97.802083 " transform="matrix(0.75,0,0,0.75,0,0)"/>
<path style="fill:none;stroke-width:1;stroke-linecap:butt;stroke-linejoin:miter;stroke:rgb(0%,0%,0%);stroke-opacity:1;stroke-miterlimit:4;" d="M 226.697917 103.901042 L 225.302083 103.802083 " transform="matrix(0.75,0,0,0.75,0,0)"/>
<path style="fill:none;stroke-width:1;stroke-linecap:butt;stroke-linejoin:miter;stroke:rgb(0%,0%,0%);stroke-opacity:1;stroke-miterlimit:4;" d="M 228 98.697917 L 225.302083 98.401042 " transform="matrix(0.75,0,0,0.75,0,0)"/>
<path style="fill:none;stroke-width:1;stroke-linecap:butt;stroke-linejoin:miter;stroke:rgb(100%,0%,0%);stroke-opacity:1;stroke-miterlimit:4;" d="M 229.302083 93.401042 L 225.197917 92.901042 " transform="matrix(0.75,0,0,0.75,0,0)"/>
<path style="fill:none;stroke-width:1;stroke-linecap:butt;stroke-linejoin:miter;stroke:rgb(100%,0%,0%);stroke-opacity:1;stroke-miterlimit:4;" d="M 230.598958 88.098958 L 225.197917 87.5 " transform="matrix(0.75,0,0,0.75,0,0)"/>
<path style="fill:none;stroke-width:1;stroke-linecap:butt;stroke-linejoin:miter;stroke:rgb(0%,0%,0%);stroke-opacity:1;stroke-miterlimit:4;" d="M 280.802083 120.401042 L 279.598958 119.802083 " transform="matrix(0.75,0,0,0.75,0,0)"/>
<path style="fill:none;stroke-width:1;stroke-linecap:butt;stroke-linejoin:miter;stroke:rgb(0%,0%,0%);stroke-opacity:1;stroke-miterlimit:4;" d="M 283.697917 116.098958 L 281.302083 114.802083 " transform="matrix(0.75,0,0,0.75,0,0)"/>
<path style="fill:none;stroke-width:1;stroke-linecap:butt;stroke-linejoin:miter;stroke:rgb(100%,0%,0%);stroke-opacity:1;stroke-miterlimit:4;" d="M 286.697917 111.697917 L 283 109.901042 " transform="matrix(0.75,0,0,0.75,0,0)"/>
<path style="fill:none;stroke-width:1;stroke-linecap:butt;stroke-linejoin:miter;stroke:rgb(100%,0%,0%);stroke-opacity:1;stroke-miterlimit:4;" d="M 289.598958 107.302083 L 284.697917 104.901042 " transform="matrix(0.75,0,0,0.75,0,0)"/>
<path style="fill-rule:evenodd;fill:rgb(0%,0%,0%);fill-opacity:1;stroke-width:1;stroke-linecap:butt;stroke-linejoin:miter;stroke:rgb(0%,0%,0%);stroke-opacity:1;stroke-miterlimit:4;" d="M 325.697917 163.302083 L 314.697917 162.302083 L 315.302083 159.598958 Z M 325.697917 163.302083 " transform="matrix(0.75,0,0,0.75,0,0)"/>
<path style="fill-rule:evenodd;fill:rgb(100%,0%,0%);fill-opacity:1;stroke-width:1;stroke-linecap:butt;stroke-linejoin:miter;stroke:rgb(100%,0%,0%);stroke-opacity:1;stroke-miterlimit:4;" d="M 314.697917 162.302083 L 304.901042 155.901042 L 303.697917 161.197917 Z M 314.697917 162.302083 " transform="matrix(0.75,0,0,0.75,0,0)"/>
<path style="fill-rule:evenodd;fill:rgb(100%,0%,0%);fill-opacity:1;stroke-width:1;stroke-linecap:butt;stroke-linejoin:miter;stroke:rgb(100%,0%,0%);stroke-opacity:1;stroke-miterlimit:4;" d="M 314.697917 162.302083 L 315.302083 159.598958 L 304.901042 155.901042 Z M 314.697917 162.302083 " transform="matrix(0.75,0,0,0.75,0,0)"/>
<path style="fill:none;stroke-width:2;stroke-linecap:butt;stroke-linejoin:miter;stroke:rgb(0%,0%,0%);stroke-opacity:1;stroke-miterlimit:4;" d="M 364.598958 256.197917 L 363.901042 283.598958 " transform="matrix(0.75,0,0,0.75,0,0)"/>
<path style="fill:none;stroke-width:2;stroke-linecap:butt;stroke-linejoin:miter;stroke:rgb(0%,0%,0%);stroke-opacity:1;stroke-miterlimit:4;" d="M 363.901042 283.598958 L 358.401042 310.5 " transform="matrix(0.75,0,0,0.75,0,0)"/>
<path style="fill:none;stroke-width:2;stroke-linecap:butt;stroke-linejoin:miter;stroke:rgb(0%,0%,0%);stroke-opacity:1;stroke-miterlimit:4;" d="M 357.697917 286.5 L 353.901042 305.401042 " transform="matrix(0.75,0,0,0.75,0,0)"/>
<path style="fill:none;stroke-width:2;stroke-linecap:butt;stroke-linejoin:miter;stroke:rgb(0%,0%,0%);stroke-opacity:1;stroke-miterlimit:4;" d="M 358.401042 310.5 L 348.302083 336 " transform="matrix(0.75,0,0,0.75,0,0)"/>
<path style="fill:none;stroke-width:2;stroke-linecap:butt;stroke-linejoin:miter;stroke:rgb(0%,0%,0%);stroke-opacity:1;stroke-miterlimit:4;" d="M 348.302083 336 L 334 359.401042 " transform="matrix(0.75,0,0,0.75,0,0)"/>
<path style="fill:none;stroke-width:2;stroke-linecap:butt;stroke-linejoin:miter;stroke:rgb(0%,0%,0%);stroke-opacity:1;stroke-miterlimit:4;" d="M 341.5 336.697917 L 331.5 353 " transform="matrix(0.75,0,0,0.75,0,0)"/>
<path style="fill:none;stroke-width:2;stroke-linecap:butt;stroke-linejoin:miter;stroke:rgb(0%,0%,0%);stroke-opacity:1;stroke-miterlimit:4;" d="M 334 359.401042 L 315.802083 380 " transform="matrix(0.75,0,0,0.75,0,0)"/>
<path style="fill:none;stroke-width:2;stroke-linecap:butt;stroke-linejoin:miter;stroke:rgb(0%,0%,0%);stroke-opacity:1;stroke-miterlimit:4;" d="M 315.802083 380 L 294.302083 397 " transform="matrix(0.75,0,0,0.75,0,0)"/>
<path style="fill:none;stroke-width:2;stroke-linecap:butt;stroke-linejoin:miter;stroke:rgb(0%,0%,0%);stroke-opacity:1;stroke-miterlimit:4;" d="M 309.098958 378.197917 L 294.098958 390.197917 " transform="matrix(0.75,0,0,0.75,0,0)"/>
<path style="fill:none;stroke-width:2;stroke-linecap:butt;stroke-linejoin:miter;stroke:rgb(0%,0%,0%);stroke-opacity:1;stroke-miterlimit:4;" d="M 294.302083 397 L 270.197917 410.098958 " transform="matrix(0.75,0,0,0.75,0,0)"/>
<path style="fill:none;stroke-width:2;stroke-linecap:butt;stroke-linejoin:miter;stroke:rgb(0%,0%,0%);stroke-opacity:1;stroke-miterlimit:4;" d="M 270.197917 410.098958 L 244.098958 418.802083 " transform="matrix(0.75,0,0,0.75,0,0)"/>
<path style="fill:none;stroke-width:2;stroke-linecap:butt;stroke-linejoin:miter;stroke:rgb(0%,0%,0%);stroke-opacity:1;stroke-miterlimit:4;" d="M 264.5 406.197917 L 246.302083 412.302083 " transform="matrix(0.75,0,0,0.75,0,0)"/>
<path style="fill:none;stroke-width:2;stroke-linecap:butt;stroke-linejoin:miter;stroke:rgb(0%,0%,0%);stroke-opacity:1;stroke-miterlimit:4;" d="M 244.098958 418.802083 L 217 422.802083 " transform="matrix(0.75,0,0,0.75,0,0)"/>
<path style="fill:none;stroke-width:2;stroke-linecap:butt;stroke-linejoin:miter;stroke:rgb(0%,0%,0%);stroke-opacity:1;stroke-miterlimit:4;" d="M 217 422.802083 L 189.5 422.098958 " transform="matrix(0.75,0,0,0.75,0,0)"/>
<path style="fill:none;stroke-width:2;stroke-linecap:butt;stroke-linejoin:miter;stroke:rgb(0%,0%,0%);stroke-opacity:1;stroke-miterlimit:4;" d="M 213 417.197917 L 193.802083 416.697917 " transform="matrix(0.75,0,0,0.75,0,0)"/>
<path style="fill:none;stroke-width:2;stroke-linecap:butt;stroke-linejoin:miter;stroke:rgb(0%,0%,0%);stroke-opacity:1;stroke-miterlimit:4;" d="M 189.5 422.098958 L 162.598958 416.598958 " transform="matrix(0.75,0,0,0.75,0,0)"/>
<path style="fill:none;stroke-width:2;stroke-linecap:butt;stroke-linejoin:miter;stroke:rgb(0%,0%,0%);stroke-opacity:1;stroke-miterlimit:4;" d="M 162.598958 416.598958 L 137.098958 406.5 " transform="matrix(0.75,0,0,0.75,0,0)"/>
<path style="fill:none;stroke-width:2;stroke-linecap:butt;stroke-linejoin:miter;stroke:rgb(0%,0%,0%);stroke-opacity:1;stroke-miterlimit:4;" d="M 160.802083 410 L 142.901042 402.901042 " transform="matrix(0.75,0,0,0.75,0,0)"/>
<path style="fill:none;stroke-width:2;stroke-linecap:butt;stroke-linejoin:miter;stroke:rgb(0%,0%,0%);stroke-opacity:1;stroke-miterlimit:4;" d="M 137.098958 406.5 L 113.697917 392.197917 " transform="matrix(0.75,0,0,0.75,0,0)"/>
<path style="fill:none;stroke-width:2;stroke-linecap:butt;stroke-linejoin:miter;stroke:rgb(0%,0%,0%);stroke-opacity:1;stroke-miterlimit:4;" d="M 113.697917 392.197917 L 93.197917 374 " transform="matrix(0.75,0,0,0.75,0,0)"/>
<path style="fill:none;stroke-width:2;stroke-linecap:butt;stroke-linejoin:miter;stroke:rgb(0%,0%,0%);stroke-opacity:1;stroke-miterlimit:4;" d="M 114.302083 385.302083 L 99.901042 372.598958 " transform="matrix(0.75,0,0,0.75,0,0)"/>
<path style="fill:none;stroke-width:2;stroke-linecap:butt;stroke-linejoin:miter;stroke:rgb(0%,0%,0%);stroke-opacity:1;stroke-miterlimit:4;" d="M 93.197917 374 L 76.098958 352.5 " transform="matrix(0.75,0,0,0.75,0,0)"/>
<path style="fill:none;stroke-width:1;stroke-linecap:butt;stroke-linejoin:miter;stroke:rgb(0%,0%,0%);stroke-opacity:1;stroke-miterlimit:4;" d="M 71.197917 355 L 71.802083 356 " transform="matrix(0.75,0,0,0.75,0,0)"/>
<path style="fill:none;stroke-width:1;stroke-linecap:butt;stroke-linejoin:miter;stroke:rgb(0%,0%,0%);stroke-opacity:1;stroke-miterlimit:4;" d="M 66.302083 357.598958 L 67.5 359.401042 " transform="matrix(0.75,0,0,0.75,0,0)"/>
<path style="fill:none;stroke-width:1;stroke-linecap:butt;stroke-linejoin:miter;stroke:rgb(0%,0%,0%);stroke-opacity:1;stroke-miterlimit:4;" d="M 61.5 360.197917 L 63.302083 362.901042 " transform="matrix(0.75,0,0,0.75,0,0)"/>
<path style="fill:none;stroke-width:1;stroke-linecap:butt;stroke-linejoin:miter;stroke:rgb(0%,0%,0%);stroke-opacity:1;stroke-miterlimit:4;" d="M 56.598958 362.802083 L 59 366.401042 " transform="matrix(0.75,0,0,0.75,0,0)"/>
<path style="fill:none;stroke-width:1;stroke-linecap:butt;stroke-linejoin:miter;stroke:rgb(0%,0%,0%);stroke-opacity:1;stroke-miterlimit:4;" d="M 51.697917 365.302083 L 54.697917 369.901042 " transform="matrix(0.75,0,0,0.75,0,0)"/>
<path style="fill:none;stroke-width:2;stroke-linecap:butt;stroke-linejoin:miter;stroke:rgb(0%,0%,0%);stroke-opacity:1;stroke-miterlimit:4;" d="M 76.098958 352.5 L 63 328.302083 " transform="matrix(0.75,0,0,0.75,0,0)"/>
<path style="fill-rule:evenodd;fill:rgb(0%,0%,0%);fill-opacity:1;stroke-width:1;stroke-linecap:butt;stroke-linejoin:miter;stroke:rgb(0%,0%,0%);stroke-opacity:1;stroke-miterlimit:4;" d="M 63 328.302083 L 53.697917 333.901042 L 52.598958 331.401042 Z M 63 328.302083 " transform="matrix(0.75,0,0,0.75,0,0)"/>
<path style="fill-rule:evenodd;fill:rgb(100%,0%,0%);fill-opacity:1;stroke-width:1;stroke-linecap:butt;stroke-linejoin:miter;stroke:rgb(100%,0%,0%);stroke-opacity:1;stroke-miterlimit:4;" d="M 53.697917 333.901042 L 42.098958 334.401042 L 44.302083 339.401042 Z M 53.697917 333.901042 " transform="matrix(0.75,0,0,0.75,0,0)"/>
<path style="fill-rule:evenodd;fill:rgb(100%,0%,0%);fill-opacity:1;stroke-width:1;stroke-linecap:butt;stroke-linejoin:miter;stroke:rgb(100%,0%,0%);stroke-opacity:1;stroke-miterlimit:4;" d="M 53.697917 333.901042 L 52.598958 331.401042 L 42.098958 334.401042 Z M 53.697917 333.901042 " transform="matrix(0.75,0,0,0.75,0,0)"/>
<path style="fill:none;stroke-width:2;stroke-linecap:butt;stroke-linejoin:miter;stroke:rgb(0%,0%,0%);stroke-opacity:1;stroke-miterlimit:4;" d="M 407.197917 277.401042 L 394.901042 302 " transform="matrix(0.75,0,0,0.75,0,0)"/>
<path style="fill:none;stroke-width:2;stroke-linecap:butt;stroke-linejoin:miter;stroke:rgb(0%,0%,0%);stroke-opacity:1;stroke-miterlimit:4;" d="M 325.697917 163.302083 L 348.598958 148.197917 " transform="matrix(0.75,0,0,0.75,0,0)"/>
<path style="fill:none;stroke-width:2;stroke-linecap:butt;stroke-linejoin:miter;stroke:rgb(0%,0%,0%);stroke-opacity:1;stroke-miterlimit:4;" d="M 63 328.302083 L 54.302083 302.302083 " transform="matrix(0.75,0,0,0.75,0,0)"/>
<path style="fill-rule:evenodd;fill:rgb(0%,0%,0%);fill-opacity:1;stroke-width:1;stroke-linecap:butt;stroke-linejoin:miter;stroke:rgb(0%,0%,0%);stroke-opacity:1;stroke-miterlimit:4;" d="M 351.901042 203 L 357.098958 210.401042 L 351.901042 212 Z M 351.901042 203 " transform="matrix(0.75,0,0,0.75,0,0)"/>
<path style=" stroke:none;fill-rule:nonzero;fill:rgb(100%,0%,0%);fill-opacity:1;" d="M 272.324219 228.601562 L 273.148438 228.601562 L 273.148438 231.074219 L 276.074219 231.074219 L 276.074219 228.601562 L 276.898438 228.601562 L 276.898438 234.449219 L 276.074219 234.449219 L 276.074219 231.75 L 273.148438 231.75 L 273.148438 234.449219 L 272.324219 234.449219 L 272.324219 228.601562 "/>
<path style=" stroke:none;fill-rule:nonzero;fill:rgb(100%,0%,0%);fill-opacity:1;" d="M 277.574219 231.523438 C 277.574219 230.574219 277.824219 229.851562 278.324219 229.351562 C 278.773438 228.800781 279.425781 228.523438 280.273438 228.523438 C 281.125 228.523438 281.800781 228.800781 282.300781 229.351562 C 282.75 229.851562 282.976562 230.574219 282.976562 231.523438 C 282.976562 232.476562 282.726562 233.199219 282.226562 233.699219 C 281.773438 234.25 281.125 234.523438 280.273438 234.523438 C 279.425781 234.523438 278.773438 234.25 278.324219 233.699219 C 277.824219 233.199219 277.574219 232.476562 277.574219 231.523438 M 280.273438 233.851562 C 280.875 233.851562 281.324219 233.648438 281.625 233.25 C 281.976562 232.851562 282.148438 232.273438 282.148438 231.523438 C 282.148438 230.726562 281.976562 230.148438 281.625 229.800781 C 281.324219 229.398438 280.875 229.199219 280.273438 229.199219 C 279.675781 229.199219 279.226562 229.398438 278.925781 229.800781 C 278.574219 230.148438 278.398438 230.726562 278.398438 231.523438 C 278.398438 232.273438 278.574219 232.851562 278.925781 233.25 C 279.226562 233.648438 279.675781 233.851562 280.273438 233.851562 "/>
<path style=" stroke:none;fill-rule:nonzero;fill:rgb(0%,0%,100%);fill-opacity:1;" d="M 287.925781 259.125 L 288.75 259.125 L 288.75 261.601562 L 291.75 261.601562 L 291.75 259.125 L 292.5 259.125 L 292.5 264.976562 L 291.75 264.976562 L 291.75 262.273438 L 288.75 262.273438 L 288.75 264.976562 L 287.925781 264.976562 L 287.925781 259.125 "/>
<path style=" stroke:none;fill-rule:nonzero;fill:rgb(0%,0%,100%);fill-opacity:1;" d="M 293.25 264.75 C 293.300781 264.550781 293.449219 264.375 293.699219 264.226562 C 293.898438 264.074219 294.175781 264 294.523438 264 C 294.875 264 295.175781 264.101562 295.425781 264.300781 C 295.625 264.550781 295.726562 264.851562 295.726562 265.199219 C 295.726562 265.601562 295.574219 265.976562 295.273438 266.324219 C 295.023438 266.675781 294.601562 267.050781 294 267.449219 L 295.800781 267.449219 L 295.800781 267.898438 L 293.175781 267.898438 L 293.175781 267.523438 C 293.675781 267.175781 294.074219 266.875 294.375 266.625 C 294.625 266.375 294.824219 266.148438 294.976562 265.949219 C 295.125 265.699219 295.199219 265.449219 295.199219 265.199219 C 295.199219 264.949219 295.125 264.773438 294.976562 264.675781 C 294.875 264.523438 294.726562 264.449219 294.523438 264.449219 C 294.324219 264.449219 294.148438 264.5 294 264.601562 C 293.851562 264.648438 293.726562 264.773438 293.625 264.976562 L 293.25 264.75 "/>
<path style=" stroke:none;fill-rule:nonzero;fill:rgb(0%,0%,100%);fill-opacity:1;" d="M 297.074219 259.125 L 298.949219 262.273438 C 299.101562 262.476562 299.273438 262.75 299.476562 263.101562 C 299.675781 263.449219 299.773438 263.648438 299.773438 263.699219 L 299.773438 259.125 L 300.523438 259.125 L 300.523438 264.976562 L 299.773438 264.976562 L 297.675781 261.601562 C 297.523438 261.351562 297.375 261.074219 297.226562 260.773438 C 297.023438 260.476562 296.898438 260.273438 296.851562 260.175781 L 296.851562 264.976562 L 296.101562 264.976562 L 296.101562 259.125 L 297.074219 259.125 "/>
<path style=" stroke:none;fill-rule:nonzero;fill:rgb(100%,0%,0%);fill-opacity:1;" d="M 336.75 259.574219 C 336.75 258.675781 336.976562 257.949219 337.425781 257.398438 C 337.925781 256.898438 338.601562 256.648438 339.449219 256.648438 C 340.300781 256.648438 340.949219 256.898438 341.398438 257.398438 C 341.851562 257.949219 342.074219 258.675781 342.074219 259.574219 C 342.074219 260.523438 341.851562 261.273438 341.398438 261.824219 C 340.949219 262.375 340.300781 262.648438 339.449219 262.648438 C 338.601562 262.648438 337.925781 262.375 337.425781 261.824219 C 336.976562 261.273438 336.75 260.523438 336.75 259.574219 M 339.449219 261.976562 C 340.050781 261.976562 340.5 261.773438 340.800781 261.375 C 341.101562 260.976562 341.25 260.375 341.25 259.574219 C 341.25 258.824219 341.101562 258.25 340.800781 257.851562 C 340.5 257.5 340.050781 257.324219 339.449219 257.324219 C 338.851562 257.324219 338.375 257.5 338.023438 257.851562 C 337.726562 258.25 337.574219 258.824219 337.574219 259.574219 C 337.574219 260.375 337.726562 260.976562 338.023438 261.375 C 338.375 261.773438 338.851562 261.976562 339.449219 261.976562 "/>
<path style=" stroke:none;fill-rule:nonzero;fill:rgb(100%,0%,0%);fill-opacity:1;" d="M 342.523438 256.726562 L 343.273438 256.726562 L 343.273438 259.199219 L 346.273438 259.199219 L 346.273438 256.726562 L 347.101562 256.726562 L 347.101562 262.5 L 346.273438 262.5 L 346.273438 259.875 L 343.273438 259.875 L 343.273438 262.5 L 342.523438 262.5 L 342.523438 256.726562 "/>
<path style=" stroke:none;fill-rule:nonzero;fill:rgb(100%,0%,0%);fill-opacity:1;" d="M 323.25 206.851562 C 323.25 205.898438 323.476562 205.175781 323.925781 204.675781 C 324.425781 204.125 325.101562 203.851562 325.949219 203.851562 C 326.800781 203.851562 327.449219 204.125 327.898438 204.675781 C 328.351562 205.175781 328.574219 205.898438 328.574219 206.851562 C 328.574219 207.800781 328.351562 208.523438 327.898438 209.023438 C 327.449219 209.574219 326.800781 209.851562 325.949219 209.851562 C 325.101562 209.851562 324.425781 209.574219 323.925781 209.023438 C 323.476562 208.523438 323.25 207.800781 323.25 206.851562 M 325.949219 209.175781 C 326.550781 209.175781 327 208.976562 327.300781 208.574219 C 327.601562 208.175781 327.75 207.601562 327.75 206.851562 C 327.75 206.101562 327.601562 205.523438 327.300781 205.125 C 327 204.726562 326.550781 204.523438 325.949219 204.523438 C 325.351562 204.523438 324.875 204.726562 324.523438 205.125 C 324.226562 205.476562 324.074219 206.050781 324.074219 206.851562 C 324.074219 207.648438 324.226562 208.226562 324.523438 208.574219 C 324.875 208.976562 325.351562 209.175781 325.949219 209.175781 "/>
<path style=" stroke:none;fill-rule:nonzero;fill:rgb(100%,0%,0%);fill-opacity:1;" d="M 291.375 190.875 C 291.375 189.976562 291.601562 189.25 292.050781 188.699219 C 292.5 188.199219 293.148438 187.949219 294 187.949219 C 294.898438 187.949219 295.574219 188.199219 296.023438 188.699219 C 296.476562 189.25 296.699219 189.976562 296.699219 190.875 C 296.699219 191.824219 296.476562 192.574219 296.023438 193.125 C 295.523438 193.675781 294.851562 193.949219 294 193.949219 C 293.148438 193.949219 292.5 193.675781 292.050781 193.125 C 291.601562 192.574219 291.375 191.824219 291.375 190.875 M 294 193.273438 C 294.601562 193.273438 295.074219 193.074219 295.425781 192.675781 C 295.726562 192.273438 295.875 191.675781 295.875 190.875 C 295.875 190.125 295.726562 189.550781 295.425781 189.148438 C 295.074219 188.800781 294.601562 188.625 294 188.625 C 293.449219 188.625 293 188.800781 292.648438 189.148438 C 292.351562 189.550781 292.199219 190.125 292.199219 190.875 C 292.199219 191.675781 292.351562 192.273438 292.648438 192.675781 C 293 193.074219 293.449219 193.273438 294 193.273438 "/>
<path style=" stroke:none;fill-rule:nonzero;fill:rgb(0%,0%,0%);fill-opacity:1;" d="M 268.199219 171.824219 C 268.199219 170.824219 268.425781 170.074219 268.875 169.574219 C 269.324219 169.074219 270 168.824219 270.898438 168.824219 C 271.699219 168.824219 272.300781 169.101562 272.699219 169.648438 L 272.175781 170.101562 C 271.875 169.699219 271.449219 169.5 270.898438 169.5 C 270.300781 169.5 269.824219 169.699219 269.476562 170.101562 C 269.175781 170.5 269.023438 171.074219 269.023438 171.824219 C 269.023438 172.574219 269.199219 173.148438 269.550781 173.550781 C 269.851562 173.949219 270.324219 174.148438 270.976562 174.148438 C 271.375 174.148438 271.824219 174.023438 272.324219 173.773438 L 272.550781 174.375 C 272.351562 174.476562 272.101562 174.574219 271.800781 174.675781 C 271.5 174.726562 271.175781 174.75 270.824219 174.75 C 269.976562 174.75 269.324219 174.5 268.875 174 C 268.425781 173.5 268.199219 172.773438 268.199219 171.824219 "/>
<path style=" stroke:none;fill-rule:nonzero;fill:rgb(100%,0%,0%);fill-opacity:1;" d="M 294.375 108.976562 C 294.375 108.074219 294.601562 107.351562 295.050781 106.800781 C 295.5 106.300781 296.175781 106.050781 297.074219 106.050781 C 297.925781 106.050781 298.574219 106.300781 299.023438 106.800781 C 299.476562 107.351562 299.699219 108.074219 299.699219 108.976562 C 299.699219 109.925781 299.476562 110.675781 299.023438 111.226562 C 298.574219 111.773438 297.925781 112.050781 297.074219 112.050781 C 296.226562 112.050781 295.550781 111.773438 295.050781 111.226562 C 294.601562 110.675781 294.375 109.925781 294.375 108.976562 M 297.074219 111.375 C 297.675781 111.375 298.125 111.175781 298.425781 110.773438 C 298.726562 110.375 298.875 109.773438 298.875 108.976562 C 298.875 108.226562 298.726562 107.648438 298.425781 107.25 C 298.125 106.898438 297.675781 106.726562 297.074219 106.726562 C 296.476562 106.726562 296 106.898438 295.648438 107.25 C 295.351562 107.648438 295.199219 108.226562 295.199219 108.976562 C 295.199219 109.773438 295.351562 110.375 295.648438 110.773438 C 296 111.175781 296.476562 111.375 297.074219 111.375 "/>
<path style=" stroke:none;fill-rule:nonzero;fill:rgb(100%,0%,0%);fill-opacity:1;" d="M 300.148438 106.125 L 300.898438 106.125 L 300.898438 108.601562 L 303.898438 108.601562 L 303.898438 106.125 L 304.726562 106.125 L 304.726562 111.976562 L 303.898438 111.976562 L 303.898438 109.273438 L 300.898438 109.273438 L 300.898438 111.976562 L 300.148438 111.976562 L 300.148438 106.125 "/>
<path style=" stroke:none;fill-rule:nonzero;fill:rgb(100%,0%,0%);fill-opacity:1;" d="M 314.023438 138.75 C 314.023438 137.800781 314.25 137.074219 314.699219 136.574219 C 315.199219 136.074219 315.875 135.824219 316.726562 135.824219 C 317.574219 135.824219 318.226562 136.074219 318.675781 136.574219 C 319.125 137.074219 319.351562 137.800781 319.351562 138.75 C 319.351562 139.699219 319.125 140.449219 318.675781 141 C 318.226562 141.5 317.574219 141.75 316.726562 141.75 C 315.875 141.75 315.199219 141.5 314.699219 141 C 314.25 140.449219 314.023438 139.699219 314.023438 138.75 M 316.726562 141.148438 C 317.324219 141.148438 317.773438 140.949219 318.074219 140.550781 C 318.375 140.148438 318.523438 139.550781 318.523438 138.75 C 318.523438 138 318.375 137.425781 318.074219 137.023438 C 317.773438 136.625 317.324219 136.425781 316.726562 136.425781 C 316.125 136.425781 315.648438 136.625 315.300781 137.023438 C 315 137.425781 314.851562 138 314.851562 138.75 C 314.851562 139.550781 315 140.148438 315.300781 140.550781 C 315.648438 140.949219 316.125 141.148438 316.726562 141.148438 "/>
<path style=" stroke:none;fill-rule:nonzero;fill:rgb(100%,0%,0%);fill-opacity:1;" d="M 319.800781 135.824219 L 320.550781 135.824219 L 320.550781 138.300781 L 323.550781 138.300781 L 323.550781 135.824219 L 324.375 135.824219 L 324.375 141.675781 L 323.550781 141.675781 L 323.550781 138.976562 L 320.550781 138.976562 L 320.550781 141.675781 L 319.800781 141.675781 L 319.800781 135.824219 "/>
<path style=" stroke:none;fill-rule:nonzero;fill:rgb(100%,0%,0%);fill-opacity:1;" d="M 298.125 170.625 C 298.125 169.726562 298.351562 169 298.800781 168.449219 C 299.25 167.949219 299.898438 167.699219 300.75 167.699219 C 301.648438 167.699219 302.324219 167.949219 302.773438 168.449219 C 303.226562 169 303.449219 169.726562 303.449219 170.625 C 303.449219 171.574219 303.226562 172.324219 302.773438 172.875 C 302.273438 173.425781 301.601562 173.699219 300.75 173.699219 C 299.898438 173.699219 299.25 173.425781 298.800781 172.875 C 298.351562 172.324219 298.125 171.574219 298.125 170.625 M 300.75 173.023438 C 301.351562 173.023438 301.824219 172.824219 302.175781 172.425781 C 302.476562 172.023438 302.625 171.425781 302.625 170.625 C 302.625 169.875 302.476562 169.300781 302.175781 168.898438 C 301.824219 168.550781 301.351562 168.375 300.75 168.375 C 300.148438 168.375 299.699219 168.550781 299.398438 168.898438 C 299.101562 169.300781 298.949219 169.875 298.949219 170.625 C 298.949219 171.425781 299.101562 172.023438 299.398438 172.425781 C 299.699219 172.824219 300.148438 173.023438 300.75 173.023438 "/>
<path style=" stroke:none;fill-rule:nonzero;fill:rgb(100%,0%,0%);fill-opacity:1;" d="M 242.851562 143.023438 C 242.851562 142.125 243.074219 141.398438 243.523438 140.851562 C 243.976562 140.351562 244.648438 140.101562 245.550781 140.101562 C 246.398438 140.101562 247.050781 140.351562 247.5 140.851562 C 247.949219 141.398438 248.175781 142.125 248.175781 143.023438 C 248.175781 143.976562 247.949219 144.726562 247.5 145.273438 C 247.050781 145.824219 246.398438 146.101562 245.550781 146.101562 C 244.699219 146.101562 244.023438 145.824219 243.523438 145.273438 C 243.074219 144.726562 242.851562 143.976562 242.851562 143.023438 M 245.550781 145.425781 C 246.148438 145.425781 246.601562 145.226562 246.898438 144.824219 C 247.199219 144.425781 247.351562 143.824219 247.351562 143.023438 C 247.351562 142.273438 247.199219 141.699219 246.898438 141.300781 C 246.601562 140.949219 246.148438 140.773438 245.550781 140.773438 C 244.949219 140.773438 244.476562 140.949219 244.125 141.300781 C 243.824219 141.699219 243.675781 142.273438 243.675781 143.023438 C 243.675781 143.824219 243.824219 144.425781 244.125 144.824219 C 244.476562 145.226562 244.949219 145.425781 245.550781 145.425781 "/>
<path style=" stroke:none;fill-rule:nonzero;fill:rgb(0%,0%,0%);fill-opacity:1;" d="M 223.648438 104.398438 C 223.648438 103.449219 223.875 102.699219 224.324219 102.148438 C 224.773438 101.648438 225.449219 101.398438 226.351562 101.398438 C 227.148438 101.398438 227.75 101.699219 228.148438 102.300781 L 227.625 102.675781 C 227.324219 102.273438 226.898438 102.074219 226.351562 102.074219 C 225.75 102.074219 225.300781 102.273438 225 102.675781 C 224.699219 103.074219 224.550781 103.648438 224.550781 104.398438 C 224.550781 105.148438 224.699219 105.726562 225 106.125 C 225.300781 106.523438 225.773438 106.726562 226.425781 106.726562 C 226.824219 106.726562 227.273438 106.601562 227.773438 106.351562 L 228.074219 106.949219 C 227.824219 107.101562 227.550781 107.199219 227.25 107.25 C 226.949219 107.351562 226.625 107.398438 226.273438 107.398438 C 225.425781 107.398438 224.773438 107.148438 224.324219 106.648438 C 223.875 106.101562 223.648438 105.351562 223.648438 104.398438 "/>
<path style=" stroke:none;fill-rule:nonzero;fill:rgb(0%,0%,0%);fill-opacity:1;" d="M 186.976562 86.023438 C 186.976562 85.074219 187.199219 84.351562 187.648438 83.851562 C 188.101562 83.351562 188.75 83.101562 189.601562 83.101562 C 190.398438 83.101562 191.023438 83.375 191.476562 83.925781 L 190.949219 84.375 C 190.648438 83.976562 190.199219 83.773438 189.601562 83.773438 C 189.050781 83.773438 188.601562 83.976562 188.25 84.375 C 187.949219 84.773438 187.800781 85.324219 187.800781 86.023438 C 187.800781 86.824219 187.976562 87.425781 188.324219 87.824219 C 188.625 88.226562 189.101562 88.425781 189.75 88.425781 C 190.148438 88.425781 190.601562 88.300781 191.101562 88.050781 L 191.324219 88.648438 C 191.125 88.75 190.875 88.851562 190.574219 88.949219 C 190.273438 89 189.949219 89.023438 189.601562 89.023438 C 188.75 89.023438 188.101562 88.773438 187.648438 88.273438 C 187.199219 87.773438 186.976562 87.023438 186.976562 86.023438 "/>
<path style=" stroke:none;fill-rule:nonzero;fill:rgb(0%,0%,0%);fill-opacity:1;" d="M 125.851562 84.449219 C 125.851562 83.449219 126.074219 82.699219 126.523438 82.199219 C 126.976562 81.699219 127.648438 81.449219 128.550781 81.449219 C 129.351562 81.449219 129.949219 81.726562 130.351562 82.273438 L 129.824219 82.726562 C 129.523438 82.324219 129.101562 82.125 128.550781 82.125 C 127.949219 82.125 127.5 82.324219 127.199219 82.726562 C 126.851562 83.125 126.675781 83.699219 126.675781 84.449219 C 126.675781 85.199219 126.851562 85.773438 127.199219 86.175781 C 127.5 86.574219 127.976562 86.773438 128.625 86.773438 C 129.023438 86.773438 129.476562 86.648438 129.976562 86.398438 L 130.199219 87 C 130 87.101562 129.75 87.199219 129.449219 87.300781 C 129.148438 87.398438 128.824219 87.449219 128.476562 87.449219 C 127.625 87.449219 126.976562 87.175781 126.523438 86.625 C 126.074219 86.125 125.851562 85.398438 125.851562 84.449219 "/>
<path style=" stroke:none;fill-rule:nonzero;fill:rgb(0%,0%,0%);fill-opacity:1;" d="M 106.351562 90.898438 C 106.351562 89.949219 106.574219 89.226562 107.023438 88.726562 C 107.476562 88.226562 108.125 87.976562 108.976562 87.976562 C 109.773438 87.976562 110.398438 88.25 110.851562 88.800781 L 110.324219 89.25 C 109.976562 88.851562 109.523438 88.648438 108.976562 88.648438 C 108.425781 88.648438 107.976562 88.851562 107.625 89.25 C 107.324219 89.648438 107.175781 90.199219 107.175781 90.898438 C 107.175781 91.699219 107.324219 92.300781 107.625 92.699219 C 107.976562 93.101562 108.449219 93.300781 109.050781 93.300781 C 109.5 93.300781 109.976562 93.148438 110.476562 92.851562 L 110.699219 93.523438 C 110.5 93.625 110.25 93.726562 109.949219 93.824219 C 109.648438 93.875 109.324219 93.898438 108.976562 93.898438 C 108.125 93.898438 107.476562 93.648438 107.023438 93.148438 C 106.574219 92.648438 106.351562 91.898438 106.351562 90.898438 "/>
<path style=" stroke:none;fill-rule:nonzero;fill:rgb(0%,0%,0%);fill-opacity:1;" d="M 72.148438 113.550781 C 72.148438 112.601562 72.375 111.875 72.824219 111.375 C 73.273438 110.824219 73.925781 110.550781 74.773438 110.550781 C 75.574219 110.550781 76.199219 110.851562 76.648438 111.449219 L 76.050781 111.898438 C 75.75 111.449219 75.324219 111.226562 74.773438 111.226562 C 74.175781 111.226562 73.726562 111.425781 73.425781 111.824219 C 73.125 112.226562 72.976562 112.800781 72.976562 113.550781 C 72.976562 114.300781 73.125 114.875 73.425781 115.273438 C 73.773438 115.675781 74.25 115.875 74.851562 115.875 C 75.300781 115.875 75.773438 115.75 76.273438 115.5 L 76.5 116.101562 C 76.300781 116.25 76.050781 116.351562 75.75 116.398438 C 75.398438 116.5 75.074219 116.550781 74.773438 116.550781 C 73.925781 116.550781 73.273438 116.300781 72.824219 115.800781 C 72.375 115.25 72.148438 114.5 72.148438 113.550781 "/>
<path style=" stroke:none;fill-rule:nonzero;fill:rgb(0%,0%,0%);fill-opacity:1;" d="M 47.699219 146.476562 C 47.699219 145.523438 47.925781 144.800781 48.375 144.300781 C 48.824219 143.800781 49.476562 143.550781 50.324219 143.550781 C 51.125 143.550781 51.75 143.824219 52.199219 144.375 L 51.675781 144.824219 C 51.324219 144.425781 50.875 144.226562 50.324219 144.226562 C 49.773438 144.226562 49.324219 144.425781 48.976562 144.824219 C 48.675781 145.175781 48.523438 145.726562 48.523438 146.476562 C 48.523438 147.273438 48.699219 147.875 49.050781 148.273438 C 49.351562 148.625 49.824219 148.800781 50.476562 148.800781 C 50.875 148.800781 51.324219 148.675781 51.824219 148.425781 L 52.050781 149.101562 C 51.851562 149.199219 51.601562 149.300781 51.300781 149.398438 C 51 149.449219 50.675781 149.476562 50.324219 149.476562 C 49.476562 149.476562 48.824219 149.226562 48.375 148.726562 C 47.925781 148.226562 47.699219 147.476562 47.699219 146.476562 "/>
<path style=" stroke:none;fill-rule:nonzero;fill:rgb(100%,0%,0%);fill-opacity:1;" d="M 35.625 185.773438 C 35.625 184.875 35.851562 184.148438 36.300781 183.601562 C 36.75 183.101562 37.398438 182.851562 38.25 182.851562 C 39.148438 182.851562 39.824219 183.101562 40.273438 183.601562 C 40.726562 184.148438 40.949219 184.875 40.949219 185.773438 C 40.949219 186.726562 40.726562 187.476562 40.273438 188.023438 C 39.773438 188.574219 39.101562 188.851562 38.25 188.851562 C 37.398438 188.851562 36.75 188.574219 36.300781 188.023438 C 35.851562 187.476562 35.625 186.726562 35.625 185.773438 M 38.25 188.175781 C 38.851562 188.175781 39.324219 187.976562 39.675781 187.574219 C 39.976562 187.175781 40.125 186.574219 40.125 185.773438 C 40.125 185.023438 39.976562 184.449219 39.675781 184.050781 C 39.324219 183.699219 38.851562 183.523438 38.25 183.523438 C 37.648438 183.523438 37.199219 183.699219 36.898438 184.050781 C 36.601562 184.449219 36.449219 185.023438 36.449219 185.773438 C 36.449219 186.574219 36.601562 187.175781 36.898438 187.574219 C 37.199219 187.976562 37.648438 188.175781 38.25 188.175781 "/>
<path style=" stroke:none;fill-rule:nonzero;fill:rgb(100%,0%,0%);fill-opacity:1;" d="M 19.949219 159.75 C 19.949219 158.851562 20.199219 158.125 20.699219 157.574219 C 21.148438 157.074219 21.800781 156.824219 22.648438 156.824219 C 23.5 156.824219 24.175781 157.074219 24.675781 157.574219 C 25.125 158.125 25.351562 158.851562 25.351562 159.75 C 25.351562 160.699219 25.101562 161.449219 24.601562 162 C 24.148438 162.550781 23.5 162.824219 22.648438 162.824219 C 21.800781 162.824219 21.148438 162.550781 20.699219 162 C 20.199219 161.449219 19.949219 160.699219 19.949219 159.75 M 22.648438 162.148438 C 23.25 162.148438 23.699219 161.949219 24 161.550781 C 24.351562 161.148438 24.523438 160.550781 24.523438 159.75 C 24.523438 159 24.351562 158.425781 24 158.023438 C 23.699219 157.675781 23.25 157.5 22.648438 157.5 C 22.050781 157.5 21.601562 157.675781 21.300781 158.023438 C 20.949219 158.425781 20.773438 159 20.773438 159.75 C 20.773438 160.550781 20.949219 161.148438 21.300781 161.550781 C 21.601562 161.949219 22.050781 162.148438 22.648438 162.148438 "/>
<path style=" stroke:none;fill-rule:nonzero;fill:rgb(100%,0%,0%);fill-opacity:1;" d="M 36.226562 113.773438 L 37.050781 113.773438 L 37.050781 116.25 L 40.050781 116.25 L 40.050781 113.773438 L 40.800781 113.773438 L 40.800781 119.625 L 40.050781 119.625 L 40.050781 116.925781 L 37.050781 116.925781 L 37.050781 119.625 L 36.226562 119.625 L 36.226562 113.773438 "/>
<path style=" stroke:none;fill-rule:nonzero;fill:rgb(100%,0%,0%);fill-opacity:1;" d="M 41.476562 116.699219 C 41.476562 115.75 41.726562 115.023438 42.226562 114.523438 C 42.675781 113.976562 43.324219 113.699219 44.175781 113.699219 C 45.023438 113.699219 45.699219 113.976562 46.199219 114.523438 C 46.648438 115.023438 46.875 115.75 46.875 116.699219 C 46.875 117.648438 46.625 118.375 46.125 118.875 C 45.675781 119.425781 45.023438 119.699219 44.175781 119.699219 C 43.324219 119.699219 42.675781 119.425781 42.226562 118.875 C 41.726562 118.375 41.476562 117.648438 41.476562 116.699219 M 44.175781 119.023438 C 44.773438 119.023438 45.226562 118.824219 45.523438 118.425781 C 45.875 118.023438 46.050781 117.449219 46.050781 116.699219 C 46.050781 115.949219 45.875 115.375 45.523438 114.976562 C 45.226562 114.574219 44.773438 114.375 44.175781 114.375 C 43.574219 114.375 43.125 114.574219 42.824219 114.976562 C 42.476562 115.324219 42.300781 115.898438 42.300781 116.699219 C 42.300781 117.5 42.476562 118.074219 42.824219 118.425781 C 43.125 118.824219 43.574219 119.023438 44.175781 119.023438 "/>
<path style=" stroke:none;fill-rule:nonzero;fill:rgb(100%,0%,0%);fill-opacity:1;" d="M 71.175781 80.625 L 72 80.625 L 72 83.175781 L 75 83.175781 L 75 80.625 L 75.75 80.625 L 75.75 86.476562 L 75 86.476562 L 75 83.773438 L 72 83.773438 L 72 86.476562 L 71.175781 86.476562 L 71.175781 80.625 "/>
<path style=" stroke:none;fill-rule:nonzero;fill:rgb(100%,0%,0%);fill-opacity:1;" d="M 76.5 83.550781 C 76.5 82.601562 76.726562 81.875 77.175781 81.375 C 77.625 80.875 78.273438 80.625 79.125 80.625 C 79.976562 80.625 80.648438 80.875 81.148438 81.375 C 81.601562 81.875 81.824219 82.601562 81.824219 83.550781 C 81.824219 84.5 81.601562 85.25 81.148438 85.800781 C 80.648438 86.300781 79.976562 86.550781 79.125 86.550781 C 78.273438 86.550781 77.625 86.300781 77.175781 85.800781 C 76.726562 85.25 76.5 84.5 76.5 83.550781 M 79.125 85.949219 C 79.726562 85.949219 80.175781 85.75 80.476562 85.351562 C 80.824219 84.949219 81 84.351562 81 83.550781 C 81 82.800781 80.824219 82.226562 80.476562 81.824219 C 80.175781 81.425781 79.726562 81.226562 79.125 81.226562 C 78.523438 81.226562 78.074219 81.425781 77.773438 81.824219 C 77.476562 82.226562 77.324219 82.800781 77.324219 83.550781 C 77.324219 84.351562 77.476562 84.949219 77.773438 85.351562 C 78.074219 85.75 78.523438 85.949219 79.125 85.949219 "/>
<path style=" stroke:none;fill-rule:nonzero;fill:rgb(100%,0%,0%);fill-opacity:1;" d="M 144.601562 60.824219 C 144.601562 59.875 144.824219 59.148438 145.273438 58.648438 C 145.726562 58.148438 146.375 57.898438 147.226562 57.898438 C 148.074219 57.898438 148.75 58.148438 149.25 58.648438 C 149.699219 59.148438 149.925781 59.875 149.925781 60.824219 C 149.925781 61.773438 149.699219 62.523438 149.25 63.074219 C 148.75 63.574219 148.074219 63.824219 147.226562 63.824219 C 146.375 63.824219 145.726562 63.574219 145.273438 63.074219 C 144.824219 62.523438 144.601562 61.773438 144.601562 60.824219 M 147.226562 63.226562 C 147.824219 63.226562 148.273438 63.023438 148.574219 62.625 C 148.925781 62.226562 149.101562 61.625 149.101562 60.824219 C 149.101562 60.074219 148.925781 59.5 148.574219 59.101562 C 148.273438 58.699219 147.824219 58.5 147.226562 58.5 C 146.625 58.5 146.175781 58.699219 145.875 59.101562 C 145.523438 59.5 145.351562 60.074219 145.351562 60.824219 C 145.351562 61.625 145.523438 62.226562 145.875 62.625 C 146.175781 63.023438 146.625 63.226562 147.226562 63.226562 "/>
<path style=" stroke:none;fill-rule:nonzero;fill:rgb(100%,0%,0%);fill-opacity:1;" d="M 150.300781 57.898438 L 151.125 57.898438 L 151.125 60.375 L 154.125 60.375 L 154.125 57.898438 L 154.875 57.898438 L 154.875 63.75 L 154.125 63.75 L 154.125 61.050781 L 151.125 61.050781 L 151.125 63.75 L 150.300781 63.75 L 150.300781 57.898438 "/>
<path style=" stroke:none;fill-rule:nonzero;fill:rgb(100%,0%,0%);fill-opacity:1;" d="M 168.75 61.5 C 168.75 60.550781 168.976562 59.824219 169.425781 59.324219 C 169.875 58.773438 170.523438 58.5 171.375 58.5 C 172.273438 58.5 172.949219 58.773438 173.398438 59.324219 C 173.851562 59.824219 174.074219 60.550781 174.074219 61.5 C 174.074219 62.449219 173.851562 63.175781 173.398438 63.675781 C 172.898438 64.226562 172.226562 64.5 171.375 64.5 C 170.523438 64.5 169.875 64.226562 169.425781 63.675781 C 168.976562 63.175781 168.75 62.449219 168.75 61.5 M 171.375 63.824219 C 171.976562 63.824219 172.449219 63.625 172.800781 63.226562 C 173.101562 62.824219 173.25 62.25 173.25 61.5 C 173.25 60.75 173.101562 60.175781 172.800781 59.773438 C 172.449219 59.375 171.976562 59.175781 171.375 59.175781 C 170.824219 59.175781 170.375 59.375 170.023438 59.773438 C 169.726562 60.125 169.574219 60.699219 169.574219 61.5 C 169.574219 62.25 169.726562 62.824219 170.023438 63.226562 C 170.375 63.625 170.824219 63.824219 171.375 63.824219 "/>
<path style=" stroke:none;fill-rule:nonzero;fill:rgb(100%,0%,0%);fill-opacity:1;" d="M 174.523438 58.574219 L 175.273438 58.574219 L 175.273438 61.050781 L 178.273438 61.050781 L 178.273438 58.574219 L 179.023438 58.574219 L 179.023438 64.425781 L 178.273438 64.425781 L 178.273438 61.726562 L 175.273438 61.726562 L 175.273438 64.425781 L 174.523438 64.425781 L 174.523438 58.574219 "/>
<path style=" stroke:none;fill-rule:nonzero;fill:rgb(100%,0%,0%);fill-opacity:1;" d="M 214.875 75.226562 C 214.875 74.273438 215.125 73.550781 215.625 73.050781 C 216.074219 72.5 216.726562 72.226562 217.574219 72.226562 C 218.425781 72.226562 219.074219 72.5 219.523438 73.050781 C 220.023438 73.550781 220.273438 74.273438 220.273438 75.226562 C 220.273438 76.175781 220.023438 76.898438 219.523438 77.398438 C 219.074219 77.949219 218.425781 78.226562 217.574219 78.226562 C 216.726562 78.226562 216.074219 77.949219 215.625 77.398438 C 215.125 76.898438 214.875 76.175781 214.875 75.226562 M 217.574219 77.550781 C 218.175781 77.550781 218.625 77.351562 218.925781 76.949219 C 219.273438 76.550781 219.449219 75.976562 219.449219 75.226562 C 219.449219 74.425781 219.273438 73.851562 218.925781 73.5 C 218.625 73.101562 218.175781 72.898438 217.574219 72.898438 C 216.976562 72.898438 216.523438 73.101562 216.226562 73.5 C 215.875 73.851562 215.699219 74.425781 215.699219 75.226562 C 215.699219 75.976562 215.875 76.550781 216.226562 76.949219 C 216.523438 77.351562 216.976562 77.550781 217.574219 77.550781 "/>
<path style=" stroke:none;fill-rule:nonzero;fill:rgb(100%,0%,0%);fill-opacity:1;" d="M 220.648438 72.300781 L 221.476562 72.300781 L 221.476562 74.773438 L 224.398438 74.773438 L 224.398438 72.300781 L 225.226562 72.300781 L 225.226562 78.148438 L 224.398438 78.148438 L 224.398438 75.449219 L 221.476562 75.449219 L 221.476562 78.148438 L 220.648438 78.148438 L 220.648438 72.300781 "/>
<path style=" stroke:none;fill-rule:nonzero;fill:rgb(100%,0%,0%);fill-opacity:1;" d="M 216.226562 115.125 L 217.050781 115.125 L 217.050781 117.601562 L 220.050781 117.601562 L 220.050781 115.125 L 220.800781 115.125 L 220.800781 120.976562 L 220.050781 120.976562 L 220.050781 118.273438 L 217.050781 118.273438 L 217.050781 120.976562 L 216.226562 120.976562 L 216.226562 115.125 "/>
<path style=" stroke:none;fill-rule:nonzero;fill:rgb(100%,0%,0%);fill-opacity:1;" d="M 221.550781 118.050781 C 221.550781 117.101562 221.773438 116.375 222.226562 115.875 C 222.675781 115.324219 223.324219 115.050781 224.175781 115.050781 C 225.023438 115.050781 225.699219 115.324219 226.199219 115.875 C 226.648438 116.375 226.875 117.101562 226.875 118.050781 C 226.875 119 226.648438 119.726562 226.199219 120.226562 C 225.699219 120.773438 225.023438 121.050781 224.175781 121.050781 C 223.324219 121.050781 222.675781 120.773438 222.226562 120.226562 C 221.773438 119.726562 221.550781 119 221.550781 118.050781 M 224.175781 120.375 C 224.773438 120.375 225.226562 120.175781 225.523438 119.773438 C 225.875 119.375 226.050781 118.800781 226.050781 118.050781 C 226.050781 117.300781 225.875 116.726562 225.523438 116.324219 C 225.226562 115.925781 224.773438 115.726562 224.175781 115.726562 C 223.574219 115.726562 223.125 115.925781 222.824219 116.324219 C 222.476562 116.675781 222.300781 117.25 222.300781 118.050781 C 222.300781 118.851562 222.476562 119.425781 222.824219 119.773438 C 223.125 120.175781 223.574219 120.375 224.175781 120.375 "/>
<path style=" stroke:none;fill-rule:nonzero;fill:rgb(100%,0%,0%);fill-opacity:1;" d="M 20.476562 251.550781 L 21.226562 251.550781 L 21.226562 254.023438 L 24.226562 254.023438 L 24.226562 251.550781 L 24.976562 251.550781 L 24.976562 257.398438 L 24.226562 257.398438 L 24.226562 254.699219 L 21.226562 254.699219 L 21.226562 257.398438 L 20.476562 257.398438 L 20.476562 251.550781 "/>
<path style=" stroke:none;fill-rule:nonzero;fill:rgb(100%,0%,0%);fill-opacity:1;" d="M 25.726562 254.476562 C 25.726562 253.523438 25.949219 252.800781 26.398438 252.300781 C 26.851562 251.75 27.5 251.476562 28.351562 251.476562 C 29.25 251.476562 29.925781 251.75 30.375 252.300781 C 30.824219 252.800781 31.050781 253.523438 31.050781 254.476562 C 31.050781 255.425781 30.824219 256.175781 30.375 256.726562 C 29.875 257.226562 29.199219 257.476562 28.351562 257.476562 C 27.5 257.476562 26.851562 257.226562 26.398438 256.726562 C 25.949219 256.175781 25.726562 255.425781 25.726562 254.476562 M 28.351562 256.800781 C 28.949219 256.800781 29.425781 256.625 29.773438 256.273438 C 30.074219 255.875 30.226562 255.273438 30.226562 254.476562 C 30.226562 253.726562 30.074219 253.148438 29.773438 252.75 C 29.425781 252.351562 28.949219 252.148438 28.351562 252.148438 C 27.800781 252.148438 27.351562 252.351562 27 252.75 C 26.699219 253.148438 26.550781 253.726562 26.550781 254.476562 C 26.550781 255.273438 26.699219 255.875 27 256.273438 C 27.351562 256.625 27.800781 256.800781 28.351562 256.800781 "/>
<path style=" stroke:none;fill-rule:nonzero;fill:rgb(0%,0%,0%);fill-opacity:1;" d="M 264.976562 159.75 L 265.726562 159.75 L 265.726562 162.226562 L 268.726562 162.226562 L 268.726562 159.75 L 269.476562 159.75 L 269.476562 165.601562 L 268.726562 165.601562 L 268.726562 162.898438 L 265.726562 162.898438 L 265.726562 165.601562 L 264.976562 165.601562 L 264.976562 159.75 "/>
</g>
</svg>
