<?xml version="1.0" encoding="UTF-8"?>
<svg xmlns="http://www.w3.org/2000/svg" xmlns:xlink="http://www.w3.org/1999/xlink" width="375pt" height="375pt" viewBox="0 0 375 375" version="1.1">
<g id="surface301">
<rect x="0" y="0" width="375" height="375" style="fill:rgb(100%,100%,100%);fill-opacity:1;stroke:none;"/>
<path style="fill:none;stroke-width:2;stroke-linecap:butt;stroke-linejoin:miter;stroke:rgb(0%,0%,0%);stroke-opacity:1;stroke-miterlimit:4;" d="M 25.302083 378.302083 L 64.802083 370.098958 " transform="matrix(0.75,0,0,0.75,0,0)"/>
<path style="fill:none;stroke-width:2;stroke-linecap:butt;stroke-linejoin:miter;stroke:rgb(0%,0%,0%);stroke-opacity:1;stroke-miterlimit:4;" d="M 64.802083 370.098958 L 77.5 331.802083 " transform="matrix(0.75,0,0,0.75,0,0)"/>
<path style="fill:none;stroke-width:2;stroke-linecap:butt;stroke-linejoin:miter;stroke:rgb(0%,0%,0%);stroke-opacity:1;stroke-miterlimit:4;" d="M 77.5 331.802083 L 94.5 328.302083 " transform="matrix(0.75,0,0,0.75,0,0)"/>
<path style="fill:none;stroke-width:2;stroke-linecap:butt;stroke-linejoin:miter;stroke:rgb(0%,0%,100%);stroke-opacity:1;stroke-miterlimit:4;" d="M 94.5 328.302083 L 111.401042 324.802083 " transform="matrix(0.75,0,0,0.75,0,0)"/>
<path style="fill:none;stroke-width:2;stroke-linecap:butt;stroke-linejoin:miter;stroke:rgb(0%,0%,100%);stroke-opacity:1;stroke-miterlimit:4;" d="M 120.098958 330.697917 L 126.697917 345.697917 " transform="matrix(0.75,0,0,0.75,0,0)"/>
<path style="fill:none;stroke-width:2;stroke-linecap:butt;stroke-linejoin:miter;stroke:rgb(0%,0%,0%);stroke-opacity:1;stroke-miterlimit:4;" d="M 126.697917 345.697917 L 133.197917 360.598958 " transform="matrix(0.75,0,0,0.75,0,0)"/>
<path style="fill:none;stroke-width:2;stroke-linecap:butt;stroke-linejoin:miter;stroke:rgb(0%,0%,0%);stroke-opacity:1;stroke-miterlimit:4;" d="M 133.197917 360.598958 L 163 387.802083 " transform="matrix(0.75,0,0,0.75,0,0)"/>
<path style="fill-rule:evenodd;fill:rgb(0%,0%,0%);fill-opacity:1;stroke-width:1;stroke-linecap:butt;stroke-linejoin:miter;stroke:rgb(0%,0%,0%);stroke-opacity:1;stroke-miterlimit:4;" d="M 163 387.802083 L 146.098958 424.598958 L 139.197917 420.598958 Z M 163 387.802083 " transform="matrix(0.75,0,0,0.75,0,0)"/>
<path style="fill:none;stroke-width:2;stroke-linecap:butt;stroke-linejoin:miter;stroke:rgb(0%,0%,0%);stroke-opacity:1;stroke-miterlimit:4;" d="M 163 387.802083 L 201.302083 400.5 " transform="matrix(0.75,0,0,0.75,0,0)"/>
<path style="fill:none;stroke-width:1;stroke-linecap:butt;stroke-linejoin:miter;stroke:rgb(0%,0%,0%);stroke-opacity:1;stroke-miterlimit:4;" d="M 200.098958 405.697917 L 201.401042 405.901042 " transform="matrix(0.75,0,0,0.75,0,0)"/>
<path style="fill:none;stroke-width:1;stroke-linecap:butt;stroke-linejoin:miter;stroke:rgb(0%,0%,0%);stroke-opacity:1;stroke-miterlimit:4;" d="M 198.802083 411 L 201.5 411.197917 " transform="matrix(0.75,0,0,0.75,0,0)"/>
<path style="fill:none;stroke-width:1;stroke-linecap:butt;stroke-linejoin:miter;stroke:rgb(0%,0%,0%);stroke-opacity:1;stroke-miterlimit:4;" d="M 197.598958 416.197917 L 201.5 416.598958 " transform="matrix(0.75,0,0,0.75,0,0)"/>
<path style="fill:none;stroke-width:1;stroke-linecap:butt;stroke-linejoin:miter;stroke:rgb(100%,0%,0%);stroke-opacity:1;stroke-miterlimit:4;" d="M 196.401042 421.401042 L 201.598958 422 " transform="matrix(0.75,0,0,0.75,0,0)"/>
<path style="fill:none;stroke-width:1;stroke-linecap:butt;stroke-linejoin:miter;stroke:rgb(100%,0%,0%);stroke-opacity:1;stroke-miterlimit:4;" d="M 195.098958 426.598958 L 201.697917 427.302083 " transform="matrix(0.75,0,0,0.75,0,0)"/>
<path style="fill:none;stroke-width:1;stroke-linecap:butt;stroke-linejoin:miter;stroke:rgb(100%,0%,0%);stroke-opacity:1;stroke-miterlimit:4;" d="M 193.901042 431.802083 L 201.697917 432.697917 " transform="matrix(0.75,0,0,0.75,0,0)"/>
<path style="fill:none;stroke-width:2;stroke-linecap:butt;stroke-linejoin:miter;stroke:rgb(0%,0%,0%);stroke-opacity:1;stroke-miterlimit:4;" d="M 201.302083 400.5 L 241.5 396.598958 " transform="matrix(0.75,0,0,0.75,0,0)"/>
<path style="fill:none;stroke-width:1;stroke-linecap:butt;stroke-linejoin:miter;stroke:rgb(0%,0%,0%);stroke-opacity:1;stroke-miterlimit:4;" d="M 246.302083 401.302083 L 247.197917 400.197917 " transform="matrix(0.75,0,0,0.75,0,0)"/>
<path style="fill:none;stroke-width:1;stroke-linecap:butt;stroke-linejoin:miter;stroke:rgb(0%,0%,0%);stroke-opacity:1;stroke-miterlimit:4;" d="M 251.197917 405.901042 L 252.901042 403.901042 " transform="matrix(0.75,0,0,0.75,0,0)"/>
<path style="fill:none;stroke-width:1;stroke-linecap:butt;stroke-linejoin:miter;stroke:rgb(0%,0%,0%);stroke-opacity:1;stroke-miterlimit:4;" d="M 256.098958 410.598958 L 258.5 407.5 " transform="matrix(0.75,0,0,0.75,0,0)"/>
<path style="fill:none;stroke-width:1;stroke-linecap:butt;stroke-linejoin:miter;stroke:rgb(0%,0%,0%);stroke-opacity:1;stroke-miterlimit:4;" d="M 260.901042 415.302083 L 264.197917 411.197917 " transform="matrix(0.75,0,0,0.75,0,0)"/>
<path style="fill:none;stroke-width:1;stroke-linecap:butt;stroke-linejoin:miter;stroke:rgb(0%,0%,0%);stroke-opacity:1;stroke-miterlimit:4;" d="M 265.802083 420 L 269.901042 414.802083 " transform="matrix(0.75,0,0,0.75,0,0)"/>
<path style="fill:none;stroke-width:1;stroke-linecap:butt;stroke-linejoin:miter;stroke:rgb(0%,0%,0%);stroke-opacity:1;stroke-miterlimit:4;" d="M 270.697917 424.697917 L 275.598958 418.5 " transform="matrix(0.75,0,0,0.75,0,0)"/>
<path style="fill:none;stroke-width:2;stroke-linecap:butt;stroke-linejoin:miter;stroke:rgb(0%,0%,0%);stroke-opacity:1;stroke-miterlimit:4;" d="M 241.5 396.598958 L 236.802083 412.401042 " transform="matrix(0.75,0,0,0.75,0,0)"/>
<path style="fill:none;stroke-width:2;stroke-linecap:butt;stroke-linejoin:miter;stroke:rgb(100%,0%,0%);stroke-opacity:1;stroke-miterlimit:4;" d="M 236.802083 412.401042 L 232.197917 428.197917 " transform="matrix(0.75,0,0,0.75,0,0)"/>
<path style="fill:none;stroke-width:2;stroke-linecap:butt;stroke-linejoin:miter;stroke:rgb(0%,0%,0%);stroke-opacity:1;stroke-miterlimit:4;" d="M 241.5 396.598958 L 276.598958 376.598958 " transform="matrix(0.75,0,0,0.75,0,0)"/>
<path style="fill:none;stroke-width:1;stroke-linecap:butt;stroke-linejoin:miter;stroke:rgb(0%,0%,0%);stroke-opacity:1;stroke-miterlimit:4;" d="M 280.5 382.098958 L 281.5 381.197917 " transform="matrix(0.75,0,0,0.75,0,0)"/>
<path style="fill:none;stroke-width:1;stroke-linecap:butt;stroke-linejoin:miter;stroke:rgb(0%,0%,0%);stroke-opacity:1;stroke-miterlimit:4;" d="M 284.5 387.5 L 286.5 385.802083 " transform="matrix(0.75,0,0,0.75,0,0)"/>
<path style="fill:none;stroke-width:1;stroke-linecap:butt;stroke-linejoin:miter;stroke:rgb(0%,0%,0%);stroke-opacity:1;stroke-miterlimit:4;" d="M 288.5 393 L 291.401042 390.401042 " transform="matrix(0.75,0,0,0.75,0,0)"/>
<path style="fill:none;stroke-width:1;stroke-linecap:butt;stroke-linejoin:miter;stroke:rgb(0%,0%,0%);stroke-opacity:1;stroke-miterlimit:4;" d="M 292.5 398.5 L 296.401042 395 " transform="matrix(0.75,0,0,0.75,0,0)"/>
<path style="fill:none;stroke-width:1;stroke-linecap:butt;stroke-linejoin:miter;stroke:rgb(0%,0%,0%);stroke-opacity:1;stroke-miterlimit:4;" d="M 296.401042 403.901042 L 301.401042 399.5 " transform="matrix(0.75,0,0,0.75,0,0)"/>
<path style="fill:none;stroke-width:1;stroke-linecap:butt;stroke-linejoin:miter;stroke:rgb(0%,0%,0%);stroke-opacity:1;stroke-miterlimit:4;" d="M 300.401042 409.401042 L 306.302083 404.098958 " transform="matrix(0.75,0,0,0.75,0,0)"/>
<path style="fill:none;stroke-width:2;stroke-linecap:butt;stroke-linejoin:miter;stroke:rgb(0%,0%,0%);stroke-opacity:1;stroke-miterlimit:4;" d="M 303.401042 406.802083 L 290.697917 445.098958 " transform="matrix(0.75,0,0,0.75,0,0)"/>
<path style="fill:none;stroke-width:2;stroke-linecap:butt;stroke-linejoin:miter;stroke:rgb(0%,0%,0%);stroke-opacity:1;stroke-miterlimit:4;" d="M 276.598958 376.598958 L 285.802083 364 " transform="matrix(0.75,0,0,0.75,0,0)"/>
<path style="fill:none;stroke-width:2;stroke-linecap:butt;stroke-linejoin:miter;stroke:rgb(100%,0%,0%);stroke-opacity:1;stroke-miterlimit:4;" d="M 285.802083 364 L 295.098958 351.401042 " transform="matrix(0.75,0,0,0.75,0,0)"/>
<path style="fill:none;stroke-width:2;stroke-linecap:butt;stroke-linejoin:miter;stroke:rgb(100%,0%,0%);stroke-opacity:1;stroke-miterlimit:4;" d="M 302 337 L 305.598958 320.901042 " transform="matrix(0.75,0,0,0.75,0,0)"/>
<path style="fill:none;stroke-width:2;stroke-linecap:butt;stroke-linejoin:miter;stroke:rgb(0%,0%,0%);stroke-opacity:1;stroke-miterlimit:4;" d="M 305.598958 320.901042 L 309.098958 304.697917 " transform="matrix(0.75,0,0,0.75,0,0)"/>
<path style="fill:none;stroke-width:2;stroke-linecap:butt;stroke-linejoin:miter;stroke:rgb(0%,0%,0%);stroke-opacity:1;stroke-miterlimit:4;" d="M 309.098958 300.697917 L 326 300.802083 " transform="matrix(0.75,0,0,0.75,0,0)"/>
<path style="fill:none;stroke-width:2;stroke-linecap:butt;stroke-linejoin:miter;stroke:rgb(100%,0%,0%);stroke-opacity:1;stroke-miterlimit:4;" d="M 326 300.802083 L 342.901042 300.901042 " transform="matrix(0.75,0,0,0.75,0,0)"/>
<path style="fill:none;stroke-width:2;stroke-linecap:butt;stroke-linejoin:miter;stroke:rgb(0%,0%,0%);stroke-opacity:1;stroke-miterlimit:4;" d="M 309.098958 308.697917 L 326 308.802083 " transform="matrix(0.75,0,0,0.75,0,0)"/>
<path style="fill:none;stroke-width:2;stroke-linecap:butt;stroke-linejoin:miter;stroke:rgb(100%,0%,0%);stroke-opacity:1;stroke-miterlimit:4;" d="M 326 308.802083 L 342.901042 308.901042 " transform="matrix(0.75,0,0,0.75,0,0)"/>
<path style="fill:none;stroke-width:2;stroke-linecap:butt;stroke-linejoin:miter;stroke:rgb(0%,0%,0%);stroke-opacity:1;stroke-miterlimit:4;" d="M 309.098958 304.697917 L 301 265.197917 " transform="matrix(0.75,0,0,0.75,0,0)"/>
<path style="fill-rule:evenodd;fill:rgb(0%,0%,0%);fill-opacity:1;stroke-width:1;stroke-linecap:butt;stroke-linejoin:miter;stroke:rgb(0%,0%,0%);stroke-opacity:1;stroke-miterlimit:4;" d="M 301 265.197917 L 336.098958 255.197917 L 337.401042 263 Z M 301 265.197917 " transform="matrix(0.75,0,0,0.75,0,0)"/>
<path style="fill:none;stroke-width:2;stroke-linecap:butt;stroke-linejoin:miter;stroke:rgb(0%,0%,0%);stroke-opacity:1;stroke-miterlimit:4;" d="M 301 265.197917 L 277.401042 232.401042 " transform="matrix(0.75,0,0,0.75,0,0)"/>
<path style="fill:none;stroke-width:1;stroke-linecap:butt;stroke-linejoin:miter;stroke:rgb(0%,0%,0%);stroke-opacity:1;stroke-miterlimit:4;" d="M 281.901042 228.697917 L 280.697917 227.598958 " transform="matrix(0.75,0,0,0.75,0,0)"/>
<path style="fill:none;stroke-width:1;stroke-linecap:butt;stroke-linejoin:miter;stroke:rgb(0%,0%,0%);stroke-opacity:1;stroke-miterlimit:4;" d="M 286.401042 225 L 284 222.802083 " transform="matrix(0.75,0,0,0.75,0,0)"/>
<path style="fill:none;stroke-width:1;stroke-linecap:butt;stroke-linejoin:miter;stroke:rgb(100%,0%,0%);stroke-opacity:1;stroke-miterlimit:4;" d="M 290.802083 221.302083 L 287.302083 218 " transform="matrix(0.75,0,0,0.75,0,0)"/>
<path style="fill:none;stroke-width:1;stroke-linecap:butt;stroke-linejoin:miter;stroke:rgb(100%,0%,0%);stroke-opacity:1;stroke-miterlimit:4;" d="M 295.302083 217.5 L 290.598958 213.302083 " transform="matrix(0.75,0,0,0.75,0,0)"/>
<path style="fill:none;stroke-width:1;stroke-linecap:butt;stroke-linejoin:miter;stroke:rgb(100%,0%,0%);stroke-opacity:1;stroke-miterlimit:4;" d="M 299.697917 213.802083 L 293.901042 208.5 " transform="matrix(0.75,0,0,0.75,0,0)"/>
<path style="fill-rule:evenodd;fill:rgb(0%,0%,0%);fill-opacity:1;stroke-width:1;stroke-linecap:butt;stroke-linejoin:miter;stroke:rgb(0%,0%,0%);stroke-opacity:1;stroke-miterlimit:4;" d="M 344 211.197917 L 327.802083 209.697917 L 328.697917 205.802083 Z M 344 211.197917 " transform="matrix(0.75,0,0,0.75,0,0)"/>
<path style="fill-rule:evenodd;fill:rgb(100%,0%,0%);fill-opacity:1;stroke-width:1;stroke-linecap:butt;stroke-linejoin:miter;stroke:rgb(100%,0%,0%);stroke-opacity:1;stroke-miterlimit:4;" d="M 327.802083 209.697917 L 313.302083 200.401042 L 311.598958 208.197917 Z M 327.802083 209.697917 " transform="matrix(0.75,0,0,0.75,0,0)"/>
<path style="fill-rule:evenodd;fill:rgb(100%,0%,0%);fill-opacity:1;stroke-width:1;stroke-linecap:butt;stroke-linejoin:miter;stroke:rgb(100%,0%,0%);stroke-opacity:1;stroke-miterlimit:4;" d="M 327.802083 209.697917 L 328.697917 205.802083 L 313.302083 200.401042 Z M 327.802083 209.697917 " transform="matrix(0.75,0,0,0.75,0,0)"/>
<path style="fill:none;stroke-width:2;stroke-linecap:butt;stroke-linejoin:miter;stroke:rgb(0%,0%,0%);stroke-opacity:1;stroke-miterlimit:4;" d="M 344 211.197917 L 371.197917 181.401042 " transform="matrix(0.75,0,0,0.75,0,0)"/>
<path style="fill:none;stroke-width:2;stroke-linecap:butt;stroke-linejoin:miter;stroke:rgb(0%,0%,0%);stroke-opacity:1;stroke-miterlimit:4;" d="M 371.197917 181.401042 L 410.598958 190 " transform="matrix(0.75,0,0,0.75,0,0)"/>
<path style="fill:none;stroke-width:1;stroke-linecap:butt;stroke-linejoin:miter;stroke:rgb(0%,0%,0%);stroke-opacity:1;stroke-miterlimit:4;" d="M 417.401042 189.802083 L 417.197917 188.5 " transform="matrix(0.75,0,0,0.75,0,0)"/>
<path style="fill:none;stroke-width:1;stroke-linecap:butt;stroke-linejoin:miter;stroke:rgb(0%,0%,0%);stroke-opacity:1;stroke-miterlimit:4;" d="M 424.098958 189.598958 L 423.802083 186.901042 " transform="matrix(0.75,0,0,0.75,0,0)"/>
<path style="fill:none;stroke-width:1;stroke-linecap:butt;stroke-linejoin:miter;stroke:rgb(0%,0%,0%);stroke-opacity:1;stroke-miterlimit:4;" d="M 430.901042 189.302083 L 430.401042 185.401042 " transform="matrix(0.75,0,0,0.75,0,0)"/>
<path style="fill:none;stroke-width:1;stroke-linecap:butt;stroke-linejoin:miter;stroke:rgb(0%,0%,0%);stroke-opacity:1;stroke-miterlimit:4;" d="M 437.598958 189.098958 L 436.901042 183.802083 " transform="matrix(0.75,0,0,0.75,0,0)"/>
<path style="fill:none;stroke-width:1;stroke-linecap:butt;stroke-linejoin:miter;stroke:rgb(0%,0%,0%);stroke-opacity:1;stroke-miterlimit:4;" d="M 444.401042 188.802083 L 443.5 182.302083 " transform="matrix(0.75,0,0,0.75,0,0)"/>
<path style="fill:none;stroke-width:1;stroke-linecap:butt;stroke-linejoin:miter;stroke:rgb(0%,0%,0%);stroke-opacity:1;stroke-miterlimit:4;" d="M 451.197917 188.598958 L 450.098958 180.697917 " transform="matrix(0.75,0,0,0.75,0,0)"/>
<path style="fill:none;stroke-width:2;stroke-linecap:butt;stroke-linejoin:miter;stroke:rgb(0%,0%,0%);stroke-opacity:1;stroke-miterlimit:4;" d="M 410.598958 190 L 411.302083 173.5 " transform="matrix(0.75,0,0,0.75,0,0)"/>
<path style="fill:none;stroke-width:2;stroke-linecap:butt;stroke-linejoin:miter;stroke:rgb(100%,0%,0%);stroke-opacity:1;stroke-miterlimit:4;" d="M 411.302083 173.5 L 412 157 " transform="matrix(0.75,0,0,0.75,0,0)"/>
<path style="fill:none;stroke-width:2;stroke-linecap:butt;stroke-linejoin:miter;stroke:rgb(100%,0%,0%);stroke-opacity:1;stroke-miterlimit:4;" d="M 418.901042 146.302083 L 433.401042 138.598958 " transform="matrix(0.75,0,0,0.75,0,0)"/>
<path style="fill:none;stroke-width:2;stroke-linecap:butt;stroke-linejoin:miter;stroke:rgb(0%,0%,0%);stroke-opacity:1;stroke-miterlimit:4;" d="M 433.401042 138.598958 L 448 131 " transform="matrix(0.75,0,0,0.75,0,0)"/>
<path style="fill:none;stroke-width:2;stroke-linecap:butt;stroke-linejoin:miter;stroke:rgb(0%,0%,0%);stroke-opacity:1;stroke-miterlimit:4;" d="M 410.598958 190 L 422.901042 228.5 " transform="matrix(0.75,0,0,0.75,0,0)"/>
<path style="fill-rule:evenodd;fill:rgb(0%,0%,0%);fill-opacity:1;stroke-width:1;stroke-linecap:butt;stroke-linejoin:miter;stroke:rgb(0%,0%,0%);stroke-opacity:1;stroke-miterlimit:4;" d="M 422.901042 228.5 L 439.098958 230 L 438.197917 233.901042 Z M 422.901042 228.5 " transform="matrix(0.75,0,0,0.75,0,0)"/>
<path style="fill-rule:evenodd;fill:rgb(100%,0%,0%);fill-opacity:1;stroke-width:1;stroke-linecap:butt;stroke-linejoin:miter;stroke:rgb(100%,0%,0%);stroke-opacity:1;stroke-miterlimit:4;" d="M 439.098958 230 L 453.598958 239.302083 L 455.302083 231.5 Z M 439.098958 230 " transform="matrix(0.75,0,0,0.75,0,0)"/>
<path style="fill-rule:evenodd;fill:rgb(100%,0%,0%);fill-opacity:1;stroke-width:1;stroke-linecap:butt;stroke-linejoin:miter;stroke:rgb(100%,0%,0%);stroke-opacity:1;stroke-miterlimit:4;" d="M 439.098958 230 L 438.197917 233.901042 L 453.598958 239.302083 Z M 439.098958 230 " transform="matrix(0.75,0,0,0.75,0,0)"/>
<path style="fill:none;stroke-width:2;stroke-linecap:butt;stroke-linejoin:miter;stroke:rgb(0%,0%,0%);stroke-opacity:1;stroke-miterlimit:4;" d="M 422.901042 228.5 L 395.697917 258.302083 " transform="matrix(0.75,0,0,0.75,0,0)"/>
<path style="fill:none;stroke-width:1;stroke-linecap:butt;stroke-linejoin:miter;stroke:rgb(0%,0%,0%);stroke-opacity:1;stroke-miterlimit:4;" d="M 397.098958 264.901042 L 398.401042 264.5 " transform="matrix(0.75,0,0,0.75,0,0)"/>
<path style="fill:none;stroke-width:1;stroke-linecap:butt;stroke-linejoin:miter;stroke:rgb(0%,0%,0%);stroke-opacity:1;stroke-miterlimit:4;" d="M 398.5 271.5 L 401 270.697917 " transform="matrix(0.75,0,0,0.75,0,0)"/>
<path style="fill:none;stroke-width:1;stroke-linecap:butt;stroke-linejoin:miter;stroke:rgb(0%,0%,0%);stroke-opacity:1;stroke-miterlimit:4;" d="M 399.901042 278.098958 L 403.697917 276.901042 " transform="matrix(0.75,0,0,0.75,0,0)"/>
<path style="fill:none;stroke-width:1;stroke-linecap:butt;stroke-linejoin:miter;stroke:rgb(0%,0%,0%);stroke-opacity:1;stroke-miterlimit:4;" d="M 401.302083 284.697917 L 406.401042 283.098958 " transform="matrix(0.75,0,0,0.75,0,0)"/>
<path style="fill:none;stroke-width:1;stroke-linecap:butt;stroke-linejoin:miter;stroke:rgb(0%,0%,0%);stroke-opacity:1;stroke-miterlimit:4;" d="M 402.697917 291.302083 L 409 289.302083 " transform="matrix(0.75,0,0,0.75,0,0)"/>
<path style="fill:none;stroke-width:1;stroke-linecap:butt;stroke-linejoin:miter;stroke:rgb(0%,0%,0%);stroke-opacity:1;stroke-miterlimit:4;" d="M 404.098958 297.901042 L 411.697917 295.5 " transform="matrix(0.75,0,0,0.75,0,0)"/>
<path style="fill:none;stroke-width:2;stroke-linecap:butt;stroke-linejoin:miter;stroke:rgb(0%,0%,0%);stroke-opacity:1;stroke-miterlimit:4;" d="M 395.697917 258.302083 L 379.302083 254.697917 " transform="matrix(0.75,0,0,0.75,0,0)"/>
<path style="fill:none;stroke-width:2;stroke-linecap:butt;stroke-linejoin:miter;stroke:rgb(100%,0%,0%);stroke-opacity:1;stroke-miterlimit:4;" d="M 379.302083 254.697917 L 362.802083 251.098958 " transform="matrix(0.75,0,0,0.75,0,0)"/>
<path style="fill:none;stroke-width:2;stroke-linecap:butt;stroke-linejoin:miter;stroke:rgb(0%,0%,0%);stroke-opacity:1;stroke-miterlimit:4;" d="M 277.401042 232.401042 L 242.598958 212 " transform="matrix(0.75,0,0,0.75,0,0)"/>
<path style="fill-rule:evenodd;fill:rgb(0%,0%,0%);fill-opacity:1;stroke-width:1;stroke-linecap:butt;stroke-linejoin:miter;stroke:rgb(0%,0%,0%);stroke-opacity:1;stroke-miterlimit:4;" d="M 242.598958 212 L 251.598958 172.5 L 259.098958 175 Z M 242.598958 212 " transform="matrix(0.75,0,0,0.75,0,0)"/>
<path style="fill:none;stroke-width:2;stroke-linecap:butt;stroke-linejoin:miter;stroke:rgb(0%,0%,0%);stroke-opacity:1;stroke-miterlimit:4;" d="M 242.598958 212 L 202.5 207.5 " transform="matrix(0.75,0,0,0.75,0,0)"/>
<path style="fill:none;stroke-width:1;stroke-linecap:butt;stroke-linejoin:miter;stroke:rgb(0%,0%,0%);stroke-opacity:1;stroke-miterlimit:4;" d="M 202.697917 202.197917 L 201.401042 202.302083 " transform="matrix(0.75,0,0,0.75,0,0)"/>
<path style="fill:none;stroke-width:1;stroke-linecap:butt;stroke-linejoin:miter;stroke:rgb(0%,0%,0%);stroke-opacity:1;stroke-miterlimit:4;" d="M 202.802083 196.901042 L 200.197917 197.098958 " transform="matrix(0.75,0,0,0.75,0,0)"/>
<path style="fill:none;stroke-width:1;stroke-linecap:butt;stroke-linejoin:miter;stroke:rgb(0%,0%,0%);stroke-opacity:1;stroke-miterlimit:4;" d="M 202.901042 191.598958 L 199 191.901042 " transform="matrix(0.75,0,0,0.75,0,0)"/>
<path style="fill:none;stroke-width:1;stroke-linecap:butt;stroke-linejoin:miter;stroke:rgb(100%,0%,0%);stroke-opacity:1;stroke-miterlimit:4;" d="M 203.098958 186.197917 L 197.802083 186.697917 " transform="matrix(0.75,0,0,0.75,0,0)"/>
<path style="fill:none;stroke-width:1;stroke-linecap:butt;stroke-linejoin:miter;stroke:rgb(100%,0%,0%);stroke-opacity:1;stroke-miterlimit:4;" d="M 203.197917 180.901042 L 196.697917 181.5 " transform="matrix(0.75,0,0,0.75,0,0)"/>
<path style="fill:none;stroke-width:1;stroke-linecap:butt;stroke-linejoin:miter;stroke:rgb(100%,0%,0%);stroke-opacity:1;stroke-miterlimit:4;" d="M 203.401042 175.598958 L 195.5 176.302083 " transform="matrix(0.75,0,0,0.75,0,0)"/>
<path style="fill-rule:evenodd;fill:rgb(0%,0%,0%);fill-opacity:1;stroke-width:1;stroke-linecap:butt;stroke-linejoin:miter;stroke:rgb(0%,0%,0%);stroke-opacity:1;stroke-miterlimit:4;" d="M 161.802083 150.697917 L 177.098958 155.5 L 175.401042 159.098958 Z M 161.802083 150.697917 " transform="matrix(0.75,0,0,0.75,0,0)"/>
<path style="fill-rule:evenodd;fill:rgb(100%,0%,0%);fill-opacity:1;stroke-width:1;stroke-linecap:butt;stroke-linejoin:miter;stroke:rgb(100%,0%,0%);stroke-opacity:1;stroke-miterlimit:4;" d="M 177.098958 155.5 L 189.098958 167.401042 L 192.302083 160.197917 Z M 177.098958 155.5 " transform="matrix(0.75,0,0,0.75,0,0)"/>
<path style="fill-rule:evenodd;fill:rgb(100%,0%,0%);fill-opacity:1;stroke-width:1;stroke-linecap:butt;stroke-linejoin:miter;stroke:rgb(100%,0%,0%);stroke-opacity:1;stroke-miterlimit:4;" d="M 177.098958 155.5 L 175.401042 159.098958 L 189.098958 167.401042 Z M 177.098958 155.5 " transform="matrix(0.75,0,0,0.75,0,0)"/>
<path style="fill:none;stroke-width:2;stroke-linecap:butt;stroke-linejoin:miter;stroke:rgb(0%,0%,0%);stroke-opacity:1;stroke-miterlimit:4;" d="M 161.802083 150.697917 L 160.197917 134.302083 " transform="matrix(0.75,0,0,0.75,0,0)"/>
<path style="fill:none;stroke-width:2;stroke-linecap:butt;stroke-linejoin:miter;stroke:rgb(100%,0%,0%);stroke-opacity:1;stroke-miterlimit:4;" d="M 160.197917 134.302083 L 158.598958 117.901042 " transform="matrix(0.75,0,0,0.75,0,0)"/>
<path style="fill:none;stroke-width:2;stroke-linecap:butt;stroke-linejoin:miter;stroke:rgb(100%,0%,0%);stroke-opacity:1;stroke-miterlimit:4;" d="M 151.302083 107.598958 L 136.197917 100.802083 " transform="matrix(0.75,0,0,0.75,0,0)"/>
<path style="fill:none;stroke-width:2;stroke-linecap:butt;stroke-linejoin:miter;stroke:rgb(0%,0%,0%);stroke-opacity:1;stroke-miterlimit:4;" d="M 136.197917 100.802083 L 121.098958 94 " transform="matrix(0.75,0,0,0.75,0,0)"/>
<path style="fill-rule:evenodd;fill:rgb(0%,0%,0%);fill-opacity:1;stroke-width:1;stroke-linecap:butt;stroke-linejoin:miter;stroke:rgb(0%,0%,0%);stroke-opacity:1;stroke-miterlimit:4;" d="M 121.098958 94 L 113.197917 54.197917 L 121.098958 53.401042 Z M 121.098958 94 " transform="matrix(0.75,0,0,0.75,0,0)"/>
<path style="fill:none;stroke-width:2;stroke-linecap:butt;stroke-linejoin:miter;stroke:rgb(0%,0%,0%);stroke-opacity:1;stroke-miterlimit:4;" d="M 121.098958 94 L 88.302083 117.5 " transform="matrix(0.75,0,0,0.75,0,0)"/>
<path style="fill:none;stroke-width:2;stroke-linecap:butt;stroke-linejoin:miter;stroke:rgb(0%,0%,0%);stroke-opacity:1;stroke-miterlimit:4;" d="M 88.302083 117.5 L 92.302083 157.598958 " transform="matrix(0.75,0,0,0.75,0,0)"/>
<path style="fill-rule:evenodd;fill:rgb(0%,0%,0%);fill-opacity:1;stroke-width:1;stroke-linecap:butt;stroke-linejoin:miter;stroke:rgb(0%,0%,0%);stroke-opacity:1;stroke-miterlimit:4;" d="M 92.302083 157.598958 L 80.5 168.5 L 78.197917 165.302083 Z M 92.302083 157.598958 " transform="matrix(0.75,0,0,0.75,0,0)"/>
<path style="fill-rule:evenodd;fill:rgb(0%,0%,100%);fill-opacity:1;stroke-width:1;stroke-linecap:butt;stroke-linejoin:miter;stroke:rgb(0%,0%,100%);stroke-opacity:1;stroke-miterlimit:4;" d="M 80.5 168.5 L 64.098958 172.901042 L 68.697917 179.401042 Z M 80.5 168.5 " transform="matrix(0.75,0,0,0.75,0,0)"/>
<path style="fill-rule:evenodd;fill:rgb(0%,0%,100%);fill-opacity:1;stroke-width:1;stroke-linecap:butt;stroke-linejoin:miter;stroke:rgb(0%,0%,100%);stroke-opacity:1;stroke-miterlimit:4;" d="M 80.5 168.5 L 78.197917 165.302083 L 64.098958 172.901042 Z M 80.5 168.5 " transform="matrix(0.75,0,0,0.75,0,0)"/>
<path style="fill:none;stroke-width:2;stroke-linecap:butt;stroke-linejoin:miter;stroke:rgb(0%,0%,100%);stroke-opacity:1;stroke-miterlimit:4;" d="M 53.802083 178.598958 L 38.302083 171.5 " transform="matrix(0.75,0,0,0.75,0,0)"/>
<path style="fill:none;stroke-width:2;stroke-linecap:butt;stroke-linejoin:miter;stroke:rgb(0%,0%,0%);stroke-opacity:1;stroke-miterlimit:4;" d="M 38.302083 171.5 L 22.697917 164.5 " transform="matrix(0.75,0,0,0.75,0,0)"/>
<path style="fill:none;stroke-width:2;stroke-linecap:butt;stroke-linejoin:miter;stroke:rgb(0%,0%,100%);stroke-opacity:1;stroke-miterlimit:4;" d="M 60.197917 188.197917 L 61.802083 204.697917 " transform="matrix(0.75,0,0,0.75,0,0)"/>
<path style="fill:none;stroke-width:2;stroke-linecap:butt;stroke-linejoin:miter;stroke:rgb(0%,0%,0%);stroke-opacity:1;stroke-miterlimit:4;" d="M 61.802083 204.697917 L 63.401042 221.302083 " transform="matrix(0.75,0,0,0.75,0,0)"/>
<path style="fill:none;stroke-width:2;stroke-linecap:butt;stroke-linejoin:miter;stroke:rgb(0%,0%,0%);stroke-opacity:1;stroke-miterlimit:4;" d="M 92.302083 157.598958 L 129 174.302083 " transform="matrix(0.75,0,0,0.75,0,0)"/>
<path style="fill:none;stroke-width:1;stroke-linecap:butt;stroke-linejoin:miter;stroke:rgb(0%,0%,0%);stroke-opacity:1;stroke-miterlimit:4;" d="M 127.598958 178.598958 L 130.197917 178.598958 " transform="matrix(0.75,0,0,0.75,0,0)"/>
<path style="fill:none;stroke-width:1;stroke-linecap:butt;stroke-linejoin:miter;stroke:rgb(100%,0%,0%);stroke-opacity:1;stroke-miterlimit:4;" d="M 126.197917 182.901042 L 131.5 183 " transform="matrix(0.75,0,0,0.75,0,0)"/>
<path style="fill:none;stroke-width:1;stroke-linecap:butt;stroke-linejoin:miter;stroke:rgb(100%,0%,0%);stroke-opacity:1;stroke-miterlimit:4;" d="M 124.802083 187.197917 L 132.697917 187.401042 " transform="matrix(0.75,0,0,0.75,0,0)"/>
<path style="fill:none;stroke-width:2;stroke-linecap:butt;stroke-linejoin:miter;stroke:rgb(0%,0%,0%);stroke-opacity:1;stroke-miterlimit:4;" d="M 202.5 207.5 L 164.098958 219.802083 " transform="matrix(0.75,0,0,0.75,0,0)"/>
<path style="fill:none;stroke-width:1;stroke-linecap:butt;stroke-linejoin:miter;stroke:rgb(0%,0%,0%);stroke-opacity:1;stroke-miterlimit:4;" d="M 159.401042 217.098958 L 158.697917 218.901042 " transform="matrix(0.75,0,0,0.75,0,0)"/>
<path style="fill:none;stroke-width:1;stroke-linecap:butt;stroke-linejoin:miter;stroke:rgb(0%,0%,0%);stroke-opacity:1;stroke-miterlimit:4;" d="M 154.598958 214.302083 L 153.302083 218.098958 " transform="matrix(0.75,0,0,0.75,0,0)"/>
<path style="fill:none;stroke-width:1;stroke-linecap:butt;stroke-linejoin:miter;stroke:rgb(0%,0%,0%);stroke-opacity:1;stroke-miterlimit:4;" d="M 149.901042 211.598958 L 147.901042 217.197917 " transform="matrix(0.75,0,0,0.75,0,0)"/>
<path style="fill:none;stroke-width:1;stroke-linecap:butt;stroke-linejoin:miter;stroke:rgb(0%,0%,0%);stroke-opacity:1;stroke-miterlimit:4;" d="M 145.197917 208.901042 L 142.5 216.401042 " transform="matrix(0.75,0,0,0.75,0,0)"/>
<path style="fill:none;stroke-width:2;stroke-linecap:butt;stroke-linejoin:miter;stroke:rgb(0%,0%,0%);stroke-opacity:1;stroke-miterlimit:4;" d="M 164.098958 219.802083 L 165.302083 203.302083 " transform="matrix(0.75,0,0,0.75,0,0)"/>
<path style="fill:none;stroke-width:2;stroke-linecap:butt;stroke-linejoin:miter;stroke:rgb(100%,0%,0%);stroke-opacity:1;stroke-miterlimit:4;" d="M 165.302083 203.302083 L 166.598958 186.802083 " transform="matrix(0.75,0,0,0.75,0,0)"/>
<path style="fill:none;stroke-width:2;stroke-linecap:butt;stroke-linejoin:miter;stroke:rgb(0%,0%,0%);stroke-opacity:1;stroke-miterlimit:4;" d="M 164.098958 219.802083 L 133.901042 246.598958 " transform="matrix(0.75,0,0,0.75,0,0)"/>
<path style="fill:none;stroke-width:2;stroke-linecap:butt;stroke-linejoin:miter;stroke:rgb(0%,0%,0%);stroke-opacity:1;stroke-miterlimit:4;" d="M 133.901042 246.598958 L 117.302083 283.302083 " transform="matrix(0.75,0,0,0.75,0,0)"/>
<path style="fill:none;stroke-width:1;stroke-linecap:butt;stroke-linejoin:miter;stroke:rgb(0%,0%,0%);stroke-opacity:1;stroke-miterlimit:4;" d="M 110.901042 281.197917 L 110.598958 282.5 " transform="matrix(0.75,0,0,0.75,0,0)"/>
<path style="fill:none;stroke-width:1;stroke-linecap:butt;stroke-linejoin:miter;stroke:rgb(0%,0%,0%);stroke-opacity:1;stroke-miterlimit:4;" d="M 104.401042 279.197917 L 103.901042 281.697917 " transform="matrix(0.75,0,0,0.75,0,0)"/>
<path style="fill:none;stroke-width:1;stroke-linecap:butt;stroke-linejoin:miter;stroke:rgb(0%,0%,0%);stroke-opacity:1;stroke-miterlimit:4;" d="M 98 277.098958 L 97.197917 281 " transform="matrix(0.75,0,0,0.75,0,0)"/>
<path style="fill:none;stroke-width:1;stroke-linecap:butt;stroke-linejoin:miter;stroke:rgb(0%,0%,0%);stroke-opacity:1;stroke-miterlimit:4;" d="M 91.598958 275 L 90.5 280.197917 " transform="matrix(0.75,0,0,0.75,0,0)"/>
<path style="fill:none;stroke-width:1;stroke-linecap:butt;stroke-linejoin:miter;stroke:rgb(0%,0%,0%);stroke-opacity:1;stroke-miterlimit:4;" d="M 85.197917 272.901042 L 83.697917 279.401042 " transform="matrix(0.75,0,0,0.75,0,0)"/>
<path style="fill:none;stroke-width:1;stroke-linecap:butt;stroke-linejoin:miter;stroke:rgb(0%,0%,0%);stroke-opacity:1;stroke-miterlimit:4;" d="M 78.697917 270.802083 L 77 278.598958 " transform="matrix(0.75,0,0,0.75,0,0)"/>
<path style="fill:none;stroke-width:2;stroke-linecap:butt;stroke-linejoin:miter;stroke:rgb(0%,0%,0%);stroke-opacity:1;stroke-miterlimit:4;" d="M 117.302083 283.302083 L 117.197917 300 " transform="matrix(0.75,0,0,0.75,0,0)"/>
<path style="fill:none;stroke-width:2;stroke-linecap:butt;stroke-linejoin:miter;stroke:rgb(0%,0%,100%);stroke-opacity:1;stroke-miterlimit:4;" d="M 117.197917 300 L 117.098958 316.697917 " transform="matrix(0.75,0,0,0.75,0,0)"/>
<path style="fill:none;stroke-width:2;stroke-linecap:butt;stroke-linejoin:miter;stroke:rgb(100%,0%,0%);stroke-opacity:1;stroke-miterlimit:4;" d="M 354 242.598958 L 349 226.901042 " transform="matrix(0.75,0,0,0.75,0,0)"/>
<path style="fill:none;stroke-width:2;stroke-linecap:butt;stroke-linejoin:miter;stroke:rgb(0%,0%,0%);stroke-opacity:1;stroke-miterlimit:4;" d="M 349 226.901042 L 344 211.197917 " transform="matrix(0.75,0,0,0.75,0,0)"/>
<path style="fill:none;stroke-width:2;stroke-linecap:butt;stroke-linejoin:miter;stroke:rgb(0%,0%,0%);stroke-opacity:1;stroke-miterlimit:4;" d="M 129 174.302083 L 161.802083 150.697917 " transform="matrix(0.75,0,0,0.75,0,0)"/>
<path style=" stroke:none;fill-rule:nonzero;fill:rgb(0%,0%,100%);fill-opacity:1;" d="M 85.875 238.5 L 88.726562 243 C 88.875 243.300781 89.101562 243.726562 89.398438 244.273438 C 89.699219 244.824219 89.875 245.101562 89.925781 245.101562 L 89.925781 238.5 L 91.050781 238.5 L 91.050781 247.050781 L 89.851562 247.050781 L 86.851562 242.101562 C 86.601562 241.699219 86.351562 241.273438 86.101562 240.824219 C 85.851562 240.375 85.699219 240.101562 85.648438 240 L 85.648438 247.050781 L 84.523438 247.050781 L 84.523438 238.5 L 85.875 238.5 "/>
<path style=" stroke:none;fill-rule:nonzero;fill:rgb(100%,0%,0%);fill-opacity:1;" d="M 143.699219 330.523438 C 143.699219 329.125 144.050781 328.050781 144.75 327.300781 C 145.398438 326.5 146.375 326.101562 147.675781 326.101562 C 148.925781 326.101562 149.898438 326.5 150.601562 327.300781 C 151.25 328.050781 151.574219 329.125 151.574219 330.523438 C 151.574219 331.875 151.226562 332.949219 150.523438 333.75 C 149.875 334.550781 148.925781 334.949219 147.675781 334.949219 C 146.375 334.949219 145.398438 334.550781 144.75 333.75 C 144.050781 333 143.699219 331.925781 143.699219 330.523438 M 147.675781 333.976562 C 148.523438 333.976562 149.175781 333.675781 149.625 333.074219 C 150.125 332.523438 150.375 331.675781 150.375 330.523438 C 150.375 329.375 150.125 328.523438 149.625 327.976562 C 149.175781 327.375 148.523438 327.074219 147.675781 327.074219 C 146.773438 327.074219 146.101562 327.375 145.648438 327.976562 C 145.148438 328.523438 144.898438 329.375 144.898438 330.523438 C 144.898438 331.675781 145.148438 332.523438 145.648438 333.074219 C 146.101562 333.675781 146.773438 333.976562 147.675781 333.976562 "/>
<path style=" stroke:none;fill-rule:nonzero;fill:rgb(100%,0%,0%);fill-opacity:1;" d="M 152.175781 326.25 L 153.375 326.25 L 153.375 329.851562 L 157.726562 329.851562 L 157.726562 326.25 L 158.925781 326.25 L 158.925781 334.800781 L 157.726562 334.800781 L 157.726562 330.824219 L 153.375 330.824219 L 153.375 334.800781 L 152.175781 334.800781 L 152.175781 326.25 "/>
<path style=" stroke:none;fill-rule:nonzero;fill:rgb(100%,0%,0%);fill-opacity:1;" d="M 168.675781 326.476562 C 168.675781 325.125 169 324.050781 169.648438 323.25 C 170.351562 322.5 171.324219 322.125 172.574219 322.125 C 173.875 322.125 174.851562 322.5 175.5 323.25 C 176.199219 324.050781 176.550781 325.125 176.550781 326.476562 C 176.550781 327.875 176.199219 328.976562 175.5 329.773438 C 174.800781 330.523438 173.824219 330.898438 172.574219 330.898438 C 171.324219 330.898438 170.351562 330.523438 169.648438 329.773438 C 169 328.976562 168.675781 327.875 168.675781 326.476562 M 172.574219 329.925781 C 173.476562 329.925781 174.148438 329.648438 174.601562 329.101562 C 175.101562 328.5 175.351562 327.625 175.351562 326.476562 C 175.351562 325.375 175.101562 324.523438 174.601562 323.925781 C 174.148438 323.375 173.476562 323.101562 172.574219 323.101562 C 171.726562 323.101562 171.050781 323.375 170.550781 323.925781 C 170.101562 324.476562 169.875 325.324219 169.875 326.476562 C 169.875 327.625 170.101562 328.5 170.550781 329.101562 C 171.050781 329.648438 171.726562 329.925781 172.574219 329.925781 "/>
<path style=" stroke:none;fill-rule:nonzero;fill:rgb(100%,0%,0%);fill-opacity:1;" d="M 177.148438 322.199219 L 178.273438 322.199219 L 178.273438 325.875 L 182.699219 325.875 L 182.699219 322.199219 L 183.824219 322.199219 L 183.824219 330.824219 L 182.699219 330.824219 L 182.699219 326.851562 L 178.273438 326.851562 L 178.273438 330.824219 L 177.148438 330.824219 L 177.148438 322.199219 "/>
<path style=" stroke:none;fill-rule:nonzero;fill:rgb(100%,0%,0%);fill-opacity:1;" d="M 221.398438 258.074219 C 221.398438 256.726562 221.75 255.675781 222.449219 254.925781 C 223.101562 254.125 224.074219 253.726562 225.375 253.726562 C 226.625 253.726562 227.601562 254.125 228.300781 254.925781 C 228.949219 255.675781 229.273438 256.726562 229.273438 258.074219 C 229.273438 259.476562 228.925781 260.574219 228.226562 261.375 C 227.574219 262.175781 226.625 262.574219 225.375 262.574219 C 224.125 262.574219 223.148438 262.175781 222.449219 261.375 C 221.75 260.574219 221.398438 259.476562 221.398438 258.074219 M 225.375 261.601562 C 226.226562 261.601562 226.875 261.300781 227.324219 260.699219 C 227.824219 260.101562 228.074219 259.226562 228.074219 258.074219 C 228.074219 256.976562 227.824219 256.148438 227.324219 255.601562 C 226.875 255 226.226562 254.699219 225.375 254.699219 C 224.476562 254.699219 223.800781 255 223.351562 255.601562 C 222.851562 256.148438 222.601562 256.976562 222.601562 258.074219 C 222.601562 259.273438 222.851562 260.148438 223.351562 260.699219 C 223.800781 261.300781 224.476562 261.601562 225.375 261.601562 "/>
<path style=" stroke:none;fill-rule:nonzero;fill:rgb(100%,0%,0%);fill-opacity:1;" d="M 258.148438 228.75 C 258.148438 227.351562 258.5 226.273438 259.199219 225.523438 C 259.851562 224.773438 260.800781 224.398438 262.050781 224.398438 C 263.351562 224.398438 264.324219 224.773438 264.976562 225.523438 C 265.675781 226.273438 266.023438 227.351562 266.023438 228.75 C 266.023438 230.148438 265.675781 231.226562 264.976562 231.976562 C 264.324219 232.773438 263.351562 233.175781 262.050781 233.175781 C 260.800781 233.175781 259.851562 232.773438 259.199219 231.976562 C 258.5 231.226562 258.148438 230.148438 258.148438 228.75 M 262.050781 232.199219 C 262.949219 232.199219 263.625 231.925781 264.074219 231.375 C 264.574219 230.773438 264.824219 229.898438 264.824219 228.75 C 264.824219 227.601562 264.574219 226.75 264.074219 226.199219 C 263.625 225.648438 262.949219 225.375 262.050781 225.375 C 261.199219 225.375 260.550781 225.648438 260.101562 226.199219 C 259.601562 226.75 259.351562 227.601562 259.351562 228.75 C 259.351562 229.898438 259.601562 230.773438 260.101562 231.375 C 260.550781 231.925781 261.199219 232.199219 262.050781 232.199219 "/>
<path style=" stroke:none;fill-rule:nonzero;fill:rgb(100%,0%,0%);fill-opacity:1;" d="M 224.550781 151.949219 C 224.550781 150.601562 224.875 149.523438 225.523438 148.726562 C 226.226562 147.976562 227.199219 147.601562 228.449219 147.601562 C 229.75 147.601562 230.726562 147.976562 231.375 148.726562 C 232.074219 149.523438 232.425781 150.601562 232.425781 151.949219 C 232.425781 153.351562 232.074219 154.449219 231.375 155.25 C 230.675781 156 229.699219 156.375 228.449219 156.375 C 227.199219 156.375 226.226562 156 225.523438 155.25 C 224.875 154.449219 224.550781 153.351562 224.550781 151.949219 M 228.449219 155.398438 C 229.351562 155.398438 230.023438 155.125 230.476562 154.574219 C 230.976562 153.976562 231.226562 153.101562 231.226562 151.949219 C 231.226562 150.851562 230.976562 150 230.476562 149.398438 C 230.023438 148.851562 229.351562 148.574219 228.449219 148.574219 C 227.601562 148.574219 226.925781 148.851562 226.425781 149.398438 C 225.976562 150 225.75 150.851562 225.75 151.949219 C 225.75 153.101562 225.976562 153.976562 226.425781 154.574219 C 226.925781 155.125 227.601562 155.398438 228.449219 155.398438 "/>
<path style=" stroke:none;fill-rule:nonzero;fill:rgb(100%,0%,0%);fill-opacity:1;" d="M 305.324219 112.351562 C 305.324219 110.949219 305.648438 109.875 306.300781 109.125 C 307 108.324219 307.976562 107.925781 309.226562 107.925781 C 310.476562 107.925781 311.449219 108.324219 312.148438 109.125 C 312.800781 109.875 313.125 110.949219 313.125 112.351562 C 313.125 113.699219 312.800781 114.773438 312.148438 115.574219 C 311.449219 116.375 310.476562 116.773438 309.226562 116.773438 C 307.976562 116.773438 307 116.375 306.300781 115.574219 C 305.648438 114.773438 305.324219 113.699219 305.324219 112.351562 M 309.226562 115.800781 C 310.074219 115.800781 310.75 115.5 311.25 114.898438 C 311.699219 114.300781 311.925781 113.449219 311.925781 112.351562 C 311.925781 111.199219 311.699219 110.351562 311.25 109.800781 C 310.75 109.199219 310.074219 108.898438 309.226562 108.898438 C 308.375 108.898438 307.699219 109.199219 307.199219 109.800781 C 306.75 110.351562 306.523438 111.199219 306.523438 112.351562 C 306.523438 113.5 306.75 114.351562 307.199219 114.898438 C 307.699219 115.5 308.375 115.800781 309.226562 115.800781 "/>
<path style=" stroke:none;fill-rule:nonzero;fill:rgb(100%,0%,0%);fill-opacity:1;" d="M 342.75 177.898438 C 342.75 176.5 343.101562 175.425781 343.800781 174.675781 C 344.449219 173.875 345.425781 173.476562 346.726562 173.476562 C 347.976562 173.476562 348.949219 173.875 349.648438 174.675781 C 350.300781 175.425781 350.625 176.5 350.625 177.898438 C 350.625 179.25 350.300781 180.324219 349.648438 181.125 C 348.949219 181.925781 347.976562 182.324219 346.726562 182.324219 C 345.476562 182.324219 344.5 181.925781 343.800781 181.125 C 343.101562 180.324219 342.75 179.25 342.75 177.898438 M 346.726562 181.351562 C 347.574219 181.351562 348.25 181.050781 348.75 180.449219 C 349.199219 179.851562 349.425781 179 349.425781 177.898438 C 349.425781 176.75 349.199219 175.898438 348.75 175.351562 C 348.25 174.75 347.574219 174.449219 346.726562 174.449219 C 345.824219 174.449219 345.148438 174.75 344.699219 175.351562 C 344.199219 175.898438 343.949219 176.75 343.949219 177.898438 C 343.949219 179.050781 344.199219 179.898438 344.699219 180.449219 C 345.148438 181.050781 345.824219 181.351562 346.726562 181.351562 "/>
<path style=" stroke:none;fill-rule:nonzero;fill:rgb(100%,0%,0%);fill-opacity:1;" d="M 351.226562 173.625 L 352.425781 173.625 L 352.425781 177.226562 L 356.773438 177.226562 L 356.773438 173.625 L 357.976562 173.625 L 357.976562 182.175781 L 356.773438 182.175781 L 356.773438 178.199219 L 352.425781 178.199219 L 352.425781 182.175781 L 351.226562 182.175781 L 351.226562 173.625 "/>
<path style=" stroke:none;fill-rule:nonzero;fill:rgb(100%,0%,0%);fill-opacity:1;" d="M 263.25 187.273438 C 263.25 185.925781 263.601562 184.851562 264.300781 184.050781 C 264.949219 183.300781 265.925781 182.925781 267.226562 182.925781 C 268.476562 182.925781 269.449219 183.300781 270.148438 184.050781 C 270.800781 184.851562 271.125 185.925781 271.125 187.273438 C 271.125 188.675781 270.773438 189.773438 270.074219 190.574219 C 269.425781 191.324219 268.476562 191.699219 267.226562 191.699219 C 265.976562 191.699219 265 191.324219 264.300781 190.574219 C 263.601562 189.773438 263.25 188.675781 263.25 187.273438 M 267.226562 190.726562 C 268.074219 190.726562 268.75 190.449219 269.25 189.898438 C 269.699219 189.300781 269.925781 188.425781 269.925781 187.273438 C 269.925781 186.175781 269.699219 185.324219 269.25 184.726562 C 268.75 184.175781 268.074219 183.898438 267.226562 183.898438 C 266.324219 183.898438 265.648438 184.175781 265.199219 184.726562 C 264.699219 185.273438 264.449219 186.125 264.449219 187.273438 C 264.449219 188.425781 264.699219 189.300781 265.199219 189.898438 C 265.648438 190.449219 266.324219 190.726562 267.226562 190.726562 "/>
<path style=" stroke:none;fill-rule:nonzero;fill:rgb(100%,0%,0%);fill-opacity:1;" d="M 144.976562 125.550781 C 144.976562 124.199219 145.324219 123.125 146.023438 122.324219 C 146.675781 121.574219 147.648438 121.199219 148.949219 121.199219 C 150.199219 121.199219 151.175781 121.574219 151.875 122.324219 C 152.523438 123.125 152.851562 124.199219 152.851562 125.550781 C 152.851562 126.949219 152.5 128.050781 151.800781 128.851562 C 151.148438 129.601562 150.199219 129.976562 148.949219 129.976562 C 147.699219 129.976562 146.726562 129.601562 146.023438 128.851562 C 145.324219 128.050781 144.976562 126.949219 144.976562 125.550781 M 148.949219 129.074219 C 149.800781 129.074219 150.449219 128.773438 150.898438 128.175781 C 151.398438 127.574219 151.648438 126.699219 151.648438 125.550781 C 151.648438 124.449219 151.398438 123.601562 150.898438 123 C 150.449219 122.449219 149.800781 122.175781 148.949219 122.175781 C 148.050781 122.175781 147.375 122.449219 146.925781 123 C 146.425781 123.601562 146.175781 124.449219 146.175781 125.550781 C 146.175781 126.699219 146.425781 127.574219 146.925781 128.175781 C 147.375 128.773438 148.050781 129.074219 148.949219 129.074219 "/>
<path style=" stroke:none;fill-rule:nonzero;fill:rgb(100%,0%,0%);fill-opacity:1;" d="M 114.449219 82.949219 C 114.449219 81.601562 114.800781 80.550781 115.5 79.800781 C 116.148438 79 117.101562 78.601562 118.351562 78.601562 C 119.648438 78.601562 120.625 79 121.273438 79.800781 C 121.976562 80.550781 122.324219 81.601562 122.324219 82.949219 C 122.324219 84.351562 121.976562 85.449219 121.273438 86.25 C 120.574219 87.050781 119.601562 87.449219 118.351562 87.449219 C 117.101562 87.449219 116.148438 87.050781 115.5 86.25 C 114.800781 85.449219 114.449219 84.351562 114.449219 82.949219 M 118.351562 86.476562 C 119.25 86.476562 119.925781 86.175781 120.375 85.574219 C 120.875 84.976562 121.125 84.101562 121.125 82.949219 C 121.125 81.851562 120.875 81.023438 120.375 80.476562 C 119.925781 79.875 119.25 79.574219 118.351562 79.574219 C 117.5 79.574219 116.851562 79.851562 116.398438 80.398438 C 115.898438 81 115.648438 81.851562 115.648438 82.949219 C 115.648438 84.101562 115.898438 84.976562 116.398438 85.574219 C 116.851562 86.175781 117.5 86.476562 118.351562 86.476562 "/>
<path style=" stroke:none;fill-rule:nonzero;fill:rgb(0%,0%,100%);fill-opacity:1;" d="M 42.75 131.550781 L 45.523438 136.125 C 45.726562 136.425781 45.976562 136.824219 46.273438 137.324219 C 46.574219 137.875 46.726562 138.175781 46.726562 138.226562 L 46.726562 131.550781 L 47.851562 131.550781 L 47.851562 140.101562 L 46.726562 140.101562 L 43.648438 135.148438 C 43.449219 134.800781 43.226562 134.398438 42.976562 133.949219 C 42.726562 133.5 42.550781 133.199219 42.449219 133.050781 L 42.449219 140.101562 L 41.324219 140.101562 L 41.324219 131.550781 L 42.75 131.550781 "/>
<path style=" stroke:none;fill-rule:nonzero;fill:rgb(100%,0%,0%);fill-opacity:1;" d="M 92.476562 146.773438 C 92.476562 145.425781 92.800781 144.375 93.449219 143.625 C 94.148438 142.824219 95.125 142.425781 96.375 142.425781 C 97.675781 142.425781 98.648438 142.824219 99.300781 143.625 C 100 144.375 100.351562 145.425781 100.351562 146.773438 C 100.351562 148.175781 100 149.273438 99.300781 150.074219 C 98.601562 150.875 97.625 151.273438 96.375 151.273438 C 95.125 151.273438 94.148438 150.875 93.449219 150.074219 C 92.800781 149.273438 92.476562 148.175781 92.476562 146.773438 M 96.375 150.300781 C 97.273438 150.300781 97.949219 150 98.398438 149.398438 C 98.851562 148.800781 99.074219 147.925781 99.074219 146.773438 C 99.074219 145.675781 98.851562 144.851562 98.398438 144.300781 C 97.949219 143.699219 97.273438 143.398438 96.375 143.398438 C 95.523438 143.398438 94.851562 143.675781 94.351562 144.226562 C 93.898438 144.824219 93.675781 145.675781 93.675781 146.773438 C 93.675781 147.925781 93.898438 148.800781 94.351562 149.398438 C 94.851562 150 95.523438 150.300781 96.375 150.300781 "/>
<path style=" stroke:none;fill-rule:nonzero;fill:rgb(100%,0%,0%);fill-opacity:1;" d="M 100.949219 142.5 L 102.074219 142.5 L 102.074219 146.175781 L 106.5 146.175781 L 106.5 142.5 L 107.625 142.5 L 107.625 151.125 L 106.5 151.125 L 106.5 147.148438 L 102.074219 147.148438 L 102.074219 151.125 L 100.949219 151.125 L 100.949219 142.5 "/>
<path style=" stroke:none;fill-rule:nonzero;fill:rgb(100%,0%,0%);fill-opacity:1;" d="M 121.425781 134.699219 C 121.425781 133.300781 121.773438 132.226562 122.476562 131.476562 C 123.125 130.726562 124.101562 130.351562 125.398438 130.351562 C 126.648438 130.351562 127.601562 130.726562 128.25 131.476562 C 128.949219 132.226562 129.300781 133.300781 129.300781 134.699219 C 129.300781 136.050781 128.949219 137.125 128.25 137.925781 C 127.601562 138.726562 126.648438 139.125 125.398438 139.125 C 124.101562 139.125 123.125 138.726562 122.476562 137.925781 C 121.773438 137.175781 121.425781 136.101562 121.425781 134.699219 M 125.398438 138.148438 C 126.25 138.148438 126.898438 137.851562 127.351562 137.25 C 127.851562 136.699219 128.101562 135.851562 128.101562 134.699219 C 128.101562 133.550781 127.851562 132.699219 127.351562 132.148438 C 126.898438 131.601562 126.25 131.324219 125.398438 131.324219 C 124.5 131.324219 123.824219 131.601562 123.375 132.148438 C 122.875 132.699219 122.625 133.550781 122.625 134.699219 C 122.625 135.851562 122.875 136.699219 123.375 137.25 C 123.824219 137.851562 124.5 138.148438 125.398438 138.148438 "/>
<path style=" stroke:none;fill-rule:nonzero;fill:rgb(100%,0%,0%);fill-opacity:1;" d="M 129.898438 130.425781 L 131.101562 130.425781 L 131.101562 134.023438 L 135.449219 134.023438 L 135.449219 130.425781 L 136.574219 130.425781 L 136.574219 138.976562 L 135.449219 138.976562 L 135.449219 135 L 131.101562 135 L 131.101562 138.976562 L 129.898438 138.976562 L 129.898438 130.425781 "/>
</g>
</svg>
