<?xml version="1.0" encoding="UTF-8"?>
<svg xmlns="http://www.w3.org/2000/svg" xmlns:xlink="http://www.w3.org/1999/xlink" width="375pt" height="375pt" viewBox="0 0 375 375" version="1.1">
<g id="surface36">
<rect x="0" y="0" width="375" height="375" style="fill:rgb(100%,100%,100%);fill-opacity:1;stroke:none;"/>
<path style="fill:none;stroke-width:2;stroke-linecap:butt;stroke-linejoin:miter;stroke:rgb(0%,0%,0%);stroke-opacity:1;stroke-miterlimit:4;" d="M 245.697917 135 L 234.302083 145 " transform="matrix(0.75,0,0,0.75,0,0)"/>
<path style="fill:none;stroke-width:2;stroke-linecap:butt;stroke-linejoin:miter;stroke:rgb(0%,0%,100%);stroke-opacity:1;stroke-miterlimit:4;" d="M 234.302083 145 L 222.901042 155 " transform="matrix(0.75,0,0,0.75,0,0)"/>
<path style="fill-rule:evenodd;fill:rgb(0%,0%,0%);fill-opacity:1;stroke-width:1;stroke-linecap:butt;stroke-linejoin:miter;stroke:rgb(0%,0%,0%);stroke-opacity:1;stroke-miterlimit:4;" d="M 225 196.197917 L 220.302083 182.197917 L 223.901042 181.401042 Z M 225 196.197917 " transform="matrix(0.75,0,0,0.75,0,0)"/>
<path style="fill-rule:evenodd;fill:rgb(0%,0%,100%);fill-opacity:1;stroke-width:1;stroke-linecap:butt;stroke-linejoin:miter;stroke:rgb(0%,0%,100%);stroke-opacity:1;stroke-miterlimit:4;" d="M 220.302083 182.197917 L 222.901042 166.598958 L 215.598958 168.098958 Z M 220.302083 182.197917 " transform="matrix(0.75,0,0,0.75,0,0)"/>
<path style="fill-rule:evenodd;fill:rgb(0%,0%,100%);fill-opacity:1;stroke-width:1;stroke-linecap:butt;stroke-linejoin:miter;stroke:rgb(0%,0%,100%);stroke-opacity:1;stroke-miterlimit:4;" d="M 220.302083 182.197917 L 223.901042 181.401042 L 222.901042 166.598958 Z M 220.302083 182.197917 " transform="matrix(0.75,0,0,0.75,0,0)"/>
<path style="fill:none;stroke-width:2;stroke-linecap:butt;stroke-linejoin:miter;stroke:rgb(0%,0%,0%);stroke-opacity:1;stroke-miterlimit:4;" d="M 225 196.197917 L 197 220.901042 " transform="matrix(0.75,0,0,0.75,0,0)"/>
<path style="fill:none;stroke-width:1;stroke-linecap:butt;stroke-linejoin:miter;stroke:rgb(0%,0%,0%);stroke-opacity:1;stroke-miterlimit:4;" d="M 191.598958 218.302083 L 191.197917 219.697917 " transform="matrix(0.75,0,0,0.75,0,0)"/>
<path style="fill:none;stroke-width:1;stroke-linecap:butt;stroke-linejoin:miter;stroke:rgb(0%,0%,0%);stroke-opacity:1;stroke-miterlimit:4;" d="M 186.302083 215.697917 L 185.302083 218.5 " transform="matrix(0.75,0,0,0.75,0,0)"/>
<path style="fill:none;stroke-width:1;stroke-linecap:butt;stroke-linejoin:miter;stroke:rgb(100%,0%,0%);stroke-opacity:1;stroke-miterlimit:4;" d="M 180.901042 213.098958 L 179.5 217.302083 " transform="matrix(0.75,0,0,0.75,0,0)"/>
<path style="fill:none;stroke-width:1;stroke-linecap:butt;stroke-linejoin:miter;stroke:rgb(100%,0%,0%);stroke-opacity:1;stroke-miterlimit:4;" d="M 175.5 210.5 L 173.598958 216.098958 " transform="matrix(0.75,0,0,0.75,0,0)"/>
<path style="fill:none;stroke-width:1;stroke-linecap:butt;stroke-linejoin:miter;stroke:rgb(100%,0%,0%);stroke-opacity:1;stroke-miterlimit:4;" d="M 170.197917 207.901042 L 167.802083 214.901042 " transform="matrix(0.75,0,0,0.75,0,0)"/>
<path style="fill:none;stroke-width:1;stroke-linecap:butt;stroke-linejoin:miter;stroke:rgb(0%,0%,0%);stroke-opacity:1;stroke-miterlimit:4;" d="M 138.302083 230.5 L 137.302083 229.401042 " transform="matrix(0.75,0,0,0.75,0,0)"/>
<path style="fill:none;stroke-width:1;stroke-linecap:butt;stroke-linejoin:miter;stroke:rgb(0%,0%,0%);stroke-opacity:1;stroke-miterlimit:4;" d="M 142.901042 227.401042 L 140.901042 225.197917 " transform="matrix(0.75,0,0,0.75,0,0)"/>
<path style="fill:none;stroke-width:1;stroke-linecap:butt;stroke-linejoin:miter;stroke:rgb(100%,0%,0%);stroke-opacity:1;stroke-miterlimit:4;" d="M 147.5 224.302083 L 144.598958 221 " transform="matrix(0.75,0,0,0.75,0,0)"/>
<path style="fill:none;stroke-width:1;stroke-linecap:butt;stroke-linejoin:miter;stroke:rgb(100%,0%,0%);stroke-opacity:1;stroke-miterlimit:4;" d="M 152.197917 221.302083 L 148.197917 216.802083 " transform="matrix(0.75,0,0,0.75,0,0)"/>
<path style="fill:none;stroke-width:1;stroke-linecap:butt;stroke-linejoin:miter;stroke:rgb(100%,0%,0%);stroke-opacity:1;stroke-miterlimit:4;" d="M 156.802083 218.197917 L 151.901042 212.598958 " transform="matrix(0.75,0,0,0.75,0,0)"/>
<path style="fill:none;stroke-width:2;stroke-linecap:butt;stroke-linejoin:miter;stroke:rgb(0%,0%,0%);stroke-opacity:1;stroke-miterlimit:4;" d="M 133.598958 233.598958 L 119 228.697917 " transform="matrix(0.75,0,0,0.75,0,0)"/>
<path style="fill:none;stroke-width:2;stroke-linecap:butt;stroke-linejoin:miter;stroke:rgb(100%,0%,0%);stroke-opacity:1;stroke-miterlimit:4;" d="M 119 228.697917 L 104.401042 223.697917 " transform="matrix(0.75,0,0,0.75,0,0)"/>
<path style="fill:none;stroke-width:2;stroke-linecap:butt;stroke-linejoin:miter;stroke:rgb(100%,0%,0%);stroke-opacity:1;stroke-miterlimit:4;" d="M 92.197917 227 L 81.197917 236.697917 " transform="matrix(0.75,0,0,0.75,0,0)"/>
<path style="fill:none;stroke-width:2;stroke-linecap:butt;stroke-linejoin:miter;stroke:rgb(0%,0%,0%);stroke-opacity:1;stroke-miterlimit:4;" d="M 81.197917 236.697917 L 70.302083 246.302083 " transform="matrix(0.75,0,0,0.75,0,0)"/>
<path style="fill-rule:evenodd;fill:rgb(0%,0%,0%);fill-opacity:1;stroke-width:1;stroke-linecap:butt;stroke-linejoin:miter;stroke:rgb(0%,0%,0%);stroke-opacity:1;stroke-miterlimit:4;" d="M 70.302083 246.302083 L 33.697917 237.901042 L 36.098958 230.901042 Z M 70.302083 246.302083 " transform="matrix(0.75,0,0,0.75,0,0)"/>
<path style="fill:none;stroke-width:2;stroke-linecap:butt;stroke-linejoin:miter;stroke:rgb(0%,0%,0%);stroke-opacity:1;stroke-miterlimit:4;" d="M 34.901042 234.401042 L 31.901042 219.5 " transform="matrix(0.75,0,0,0.75,0,0)"/>
<path style="fill:none;stroke-width:2;stroke-linecap:butt;stroke-linejoin:miter;stroke:rgb(100%,0%,0%);stroke-opacity:1;stroke-miterlimit:4;" d="M 31.901042 219.5 L 28.901042 204.598958 " transform="matrix(0.75,0,0,0.75,0,0)"/>
<path style="fill:none;stroke-width:2;stroke-linecap:butt;stroke-linejoin:miter;stroke:rgb(0%,0%,0%);stroke-opacity:1;stroke-miterlimit:4;" d="M 70.302083 246.302083 L 77.598958 282.901042 " transform="matrix(0.75,0,0,0.75,0,0)"/>
<path style="fill:none;stroke-width:1;stroke-linecap:butt;stroke-linejoin:miter;stroke:rgb(0%,0%,0%);stroke-opacity:1;stroke-miterlimit:4;" d="M 72.802083 286.098958 L 73.802083 287.302083 " transform="matrix(0.75,0,0,0.75,0,0)"/>
<path style="fill:none;stroke-width:1;stroke-linecap:butt;stroke-linejoin:miter;stroke:rgb(0%,0%,0%);stroke-opacity:1;stroke-miterlimit:4;" d="M 68 289.401042 L 70 291.598958 " transform="matrix(0.75,0,0,0.75,0,0)"/>
<path style="fill:none;stroke-width:1;stroke-linecap:butt;stroke-linejoin:miter;stroke:rgb(0%,0%,100%);stroke-opacity:1;stroke-miterlimit:4;" d="M 63.197917 292.598958 L 66.197917 296 " transform="matrix(0.75,0,0,0.75,0,0)"/>
<path style="fill:none;stroke-width:1;stroke-linecap:butt;stroke-linejoin:miter;stroke:rgb(0%,0%,100%);stroke-opacity:1;stroke-miterlimit:4;" d="M 58.401042 295.802083 L 62.401042 300.302083 " transform="matrix(0.75,0,0,0.75,0,0)"/>
<path style="fill:none;stroke-width:1;stroke-linecap:butt;stroke-linejoin:miter;stroke:rgb(0%,0%,100%);stroke-opacity:1;stroke-miterlimit:4;" d="M 53.598958 299.098958 L 58.598958 304.697917 " transform="matrix(0.75,0,0,0.75,0,0)"/>
<path style="fill:none;stroke-width:2;stroke-linecap:butt;stroke-linejoin:miter;stroke:rgb(0%,0%,0%);stroke-opacity:1;stroke-miterlimit:4;" d="M 77.598958 282.901042 L 113 294.802083 " transform="matrix(0.75,0,0,0.75,0,0)"/>
<path style="fill-rule:evenodd;fill:rgb(0%,0%,0%);fill-opacity:1;stroke-width:1;stroke-linecap:butt;stroke-linejoin:miter;stroke:rgb(0%,0%,0%);stroke-opacity:1;stroke-miterlimit:4;" d="M 113 294.802083 L 117.697917 308.901042 L 114 309.598958 Z M 113 294.802083 " transform="matrix(0.75,0,0,0.75,0,0)"/>
<path style="fill-rule:evenodd;fill:rgb(100%,0%,0%);fill-opacity:1;stroke-width:1;stroke-linecap:butt;stroke-linejoin:miter;stroke:rgb(100%,0%,0%);stroke-opacity:1;stroke-miterlimit:4;" d="M 117.697917 308.901042 L 115.098958 324.302083 L 122.401042 322.901042 Z M 117.697917 308.901042 " transform="matrix(0.75,0,0,0.75,0,0)"/>
<path style="fill-rule:evenodd;fill:rgb(100%,0%,0%);fill-opacity:1;stroke-width:1;stroke-linecap:butt;stroke-linejoin:miter;stroke:rgb(100%,0%,0%);stroke-opacity:1;stroke-miterlimit:4;" d="M 117.697917 308.901042 L 114 309.598958 L 115.098958 324.302083 Z M 117.697917 308.901042 " transform="matrix(0.75,0,0,0.75,0,0)"/>
<path style="fill:none;stroke-width:2;stroke-linecap:butt;stroke-linejoin:miter;stroke:rgb(0%,0%,0%);stroke-opacity:1;stroke-miterlimit:4;" d="M 113 294.802083 L 141 270.197917 " transform="matrix(0.75,0,0,0.75,0,0)"/>
<path style="fill:none;stroke-width:1;stroke-linecap:butt;stroke-linejoin:miter;stroke:rgb(0%,0%,0%);stroke-opacity:1;stroke-miterlimit:4;" d="M 146.401042 272.802083 L 146.802083 271.401042 " transform="matrix(0.75,0,0,0.75,0,0)"/>
<path style="fill:none;stroke-width:1;stroke-linecap:butt;stroke-linejoin:miter;stroke:rgb(0%,0%,0%);stroke-opacity:1;stroke-miterlimit:4;" d="M 151.697917 275.401042 L 152.697917 272.5 " transform="matrix(0.75,0,0,0.75,0,0)"/>
<path style="fill:none;stroke-width:1;stroke-linecap:butt;stroke-linejoin:miter;stroke:rgb(100%,0%,0%);stroke-opacity:1;stroke-miterlimit:4;" d="M 157.098958 278 L 158.5 273.697917 " transform="matrix(0.75,0,0,0.75,0,0)"/>
<path style="fill:none;stroke-width:1;stroke-linecap:butt;stroke-linejoin:miter;stroke:rgb(100%,0%,0%);stroke-opacity:1;stroke-miterlimit:4;" d="M 162.5 280.598958 L 164.401042 274.901042 " transform="matrix(0.75,0,0,0.75,0,0)"/>
<path style="fill:none;stroke-width:1;stroke-linecap:butt;stroke-linejoin:miter;stroke:rgb(100%,0%,0%);stroke-opacity:1;stroke-miterlimit:4;" d="M 167.802083 283.197917 L 170.197917 276.098958 " transform="matrix(0.75,0,0,0.75,0,0)"/>
<path style="fill:none;stroke-width:2;stroke-linecap:butt;stroke-linejoin:miter;stroke:rgb(0%,0%,0%);stroke-opacity:1;stroke-miterlimit:4;" d="M 197 220.901042 L 200 235.901042 " transform="matrix(0.75,0,0,0.75,0,0)"/>
<path style="fill:none;stroke-width:2;stroke-linecap:butt;stroke-linejoin:miter;stroke:rgb(100%,0%,0%);stroke-opacity:1;stroke-miterlimit:4;" d="M 200 235.901042 L 203 250.901042 " transform="matrix(0.75,0,0,0.75,0,0)"/>
<path style="fill:none;stroke-width:2;stroke-linecap:butt;stroke-linejoin:miter;stroke:rgb(100%,0%,0%);stroke-opacity:1;stroke-miterlimit:4;" d="M 210.401042 259.5 L 225.098958 264.401042 " transform="matrix(0.75,0,0,0.75,0,0)"/>
<path style="fill:none;stroke-width:2;stroke-linecap:butt;stroke-linejoin:miter;stroke:rgb(0%,0%,0%);stroke-opacity:1;stroke-miterlimit:4;" d="M 225.098958 264.401042 L 239.697917 269.401042 " transform="matrix(0.75,0,0,0.75,0,0)"/>
<path style="fill:none;stroke-width:2;stroke-linecap:butt;stroke-linejoin:miter;stroke:rgb(0%,0%,0%);stroke-opacity:1;stroke-miterlimit:4;" d="M 239.697917 269.401042 L 247.098958 306 " transform="matrix(0.75,0,0,0.75,0,0)"/>
<path style="fill:none;stroke-width:2;stroke-linecap:butt;stroke-linejoin:miter;stroke:rgb(0%,0%,0%);stroke-opacity:1;stroke-miterlimit:4;" d="M 247.098958 306 L 282.401042 317.901042 " transform="matrix(0.75,0,0,0.75,0,0)"/>
<path style="fill:none;stroke-width:1;stroke-linecap:butt;stroke-linejoin:miter;stroke:rgb(0%,0%,0%);stroke-opacity:1;stroke-miterlimit:4;" d="M 282.802083 323.802083 L 284.302083 323.5 " transform="matrix(0.75,0,0,0.75,0,0)"/>
<path style="fill:none;stroke-width:1;stroke-linecap:butt;stroke-linejoin:miter;stroke:rgb(0%,0%,0%);stroke-opacity:1;stroke-miterlimit:4;" d="M 283.302083 329.697917 L 286.197917 329.098958 " transform="matrix(0.75,0,0,0.75,0,0)"/>
<path style="fill:none;stroke-width:1;stroke-linecap:butt;stroke-linejoin:miter;stroke:rgb(0%,0%,100%);stroke-opacity:1;stroke-miterlimit:4;" d="M 283.697917 335.598958 L 288.098958 334.697917 " transform="matrix(0.75,0,0,0.75,0,0)"/>
<path style="fill:none;stroke-width:1;stroke-linecap:butt;stroke-linejoin:miter;stroke:rgb(0%,0%,100%);stroke-opacity:1;stroke-miterlimit:4;" d="M 284.098958 341.5 L 290 340.401042 " transform="matrix(0.75,0,0,0.75,0,0)"/>
<path style="fill:none;stroke-width:1;stroke-linecap:butt;stroke-linejoin:miter;stroke:rgb(0%,0%,100%);stroke-opacity:1;stroke-miterlimit:4;" d="M 284.5 347.401042 L 291.901042 346 " transform="matrix(0.75,0,0,0.75,0,0)"/>
<path style="fill:none;stroke-width:2;stroke-linecap:butt;stroke-linejoin:miter;stroke:rgb(0%,0%,0%);stroke-opacity:1;stroke-miterlimit:4;" d="M 282.401042 317.901042 L 310.401042 293.197917 " transform="matrix(0.75,0,0,0.75,0,0)"/>
<path style="fill:none;stroke-width:1;stroke-linecap:butt;stroke-linejoin:miter;stroke:rgb(0%,0%,0%);stroke-opacity:1;stroke-miterlimit:4;" d="M 315.802083 295.802083 L 316.302083 294.401042 " transform="matrix(0.75,0,0,0.75,0,0)"/>
<path style="fill:none;stroke-width:1;stroke-linecap:butt;stroke-linejoin:miter;stroke:rgb(0%,0%,0%);stroke-opacity:1;stroke-miterlimit:4;" d="M 321.197917 298.401042 L 322.098958 295.598958 " transform="matrix(0.75,0,0,0.75,0,0)"/>
<path style="fill:none;stroke-width:1;stroke-linecap:butt;stroke-linejoin:miter;stroke:rgb(100%,0%,0%);stroke-opacity:1;stroke-miterlimit:4;" d="M 326.5 301 L 328 296.802083 " transform="matrix(0.75,0,0,0.75,0,0)"/>
<path style="fill:none;stroke-width:1;stroke-linecap:butt;stroke-linejoin:miter;stroke:rgb(100%,0%,0%);stroke-opacity:1;stroke-miterlimit:4;" d="M 331.901042 303.598958 L 333.802083 298 " transform="matrix(0.75,0,0,0.75,0,0)"/>
<path style="fill:none;stroke-width:1;stroke-linecap:butt;stroke-linejoin:miter;stroke:rgb(100%,0%,0%);stroke-opacity:1;stroke-miterlimit:4;" d="M 337.302083 306.197917 L 339.697917 299.098958 " transform="matrix(0.75,0,0,0.75,0,0)"/>
<path style="fill-rule:evenodd;fill:rgb(0%,0%,0%);fill-opacity:1;stroke-width:1;stroke-linecap:butt;stroke-linejoin:miter;stroke:rgb(0%,0%,0%);stroke-opacity:1;stroke-miterlimit:4;" d="M 373.802083 280.5 L 364.697917 291 L 362.197917 288.197917 Z M 373.802083 280.5 " transform="matrix(0.75,0,0,0.75,0,0)"/>
<path style="fill-rule:evenodd;fill:rgb(100%,0%,0%);fill-opacity:1;stroke-width:1;stroke-linecap:butt;stroke-linejoin:miter;stroke:rgb(100%,0%,0%);stroke-opacity:1;stroke-miterlimit:4;" d="M 364.697917 291 L 350.598958 295.901042 L 355.5 301.5 Z M 364.697917 291 " transform="matrix(0.75,0,0,0.75,0,0)"/>
<path style="fill-rule:evenodd;fill:rgb(100%,0%,0%);fill-opacity:1;stroke-width:1;stroke-linecap:butt;stroke-linejoin:miter;stroke:rgb(100%,0%,0%);stroke-opacity:1;stroke-miterlimit:4;" d="M 364.697917 291 L 362.197917 288.197917 L 350.598958 295.901042 Z M 364.697917 291 " transform="matrix(0.75,0,0,0.75,0,0)"/>
<path style="fill:none;stroke-width:2;stroke-linecap:butt;stroke-linejoin:miter;stroke:rgb(0%,0%,0%);stroke-opacity:1;stroke-miterlimit:4;" d="M 373.802083 280.5 L 409.098958 292.401042 " transform="matrix(0.75,0,0,0.75,0,0)"/>
<path style="fill:none;stroke-width:1;stroke-linecap:butt;stroke-linejoin:miter;stroke:rgb(0%,0%,0%);stroke-opacity:1;stroke-miterlimit:4;" d="M 409.598958 298.302083 L 411 298 " transform="matrix(0.75,0,0,0.75,0,0)"/>
<path style="fill:none;stroke-width:1;stroke-linecap:butt;stroke-linejoin:miter;stroke:rgb(0%,0%,0%);stroke-opacity:1;stroke-miterlimit:4;" d="M 410 304.197917 L 412.901042 303.697917 " transform="matrix(0.75,0,0,0.75,0,0)"/>
<path style="fill:none;stroke-width:1;stroke-linecap:butt;stroke-linejoin:miter;stroke:rgb(0%,0%,100%);stroke-opacity:1;stroke-miterlimit:4;" d="M 410.401042 310.197917 L 414.802083 309.302083 " transform="matrix(0.75,0,0,0.75,0,0)"/>
<path style="fill:none;stroke-width:1;stroke-linecap:butt;stroke-linejoin:miter;stroke:rgb(0%,0%,100%);stroke-opacity:1;stroke-miterlimit:4;" d="M 410.802083 316.098958 L 416.697917 314.901042 " transform="matrix(0.75,0,0,0.75,0,0)"/>
<path style="fill:none;stroke-width:1;stroke-linecap:butt;stroke-linejoin:miter;stroke:rgb(0%,0%,100%);stroke-opacity:1;stroke-miterlimit:4;" d="M 411.302083 322 L 418.598958 320.5 " transform="matrix(0.75,0,0,0.75,0,0)"/>
<path style="fill:none;stroke-width:2;stroke-linecap:butt;stroke-linejoin:miter;stroke:rgb(0%,0%,0%);stroke-opacity:1;stroke-miterlimit:4;" d="M 409.098958 292.401042 L 437.098958 267.802083 " transform="matrix(0.75,0,0,0.75,0,0)"/>
<path style="fill:none;stroke-width:2;stroke-linecap:butt;stroke-linejoin:miter;stroke:rgb(0%,0%,0%);stroke-opacity:1;stroke-miterlimit:4;" d="M 437.098958 267.802083 L 429.802083 231.197917 " transform="matrix(0.75,0,0,0.75,0,0)"/>
<path style="fill:none;stroke-width:1;stroke-linecap:butt;stroke-linejoin:miter;stroke:rgb(0%,0%,0%);stroke-opacity:1;stroke-miterlimit:4;" d="M 434.598958 228 L 433.598958 226.802083 " transform="matrix(0.75,0,0,0.75,0,0)"/>
<path style="fill:none;stroke-width:1;stroke-linecap:butt;stroke-linejoin:miter;stroke:rgb(0%,0%,0%);stroke-opacity:1;stroke-miterlimit:4;" d="M 439.401042 224.697917 L 437.401042 222.5 " transform="matrix(0.75,0,0,0.75,0,0)"/>
<path style="fill:none;stroke-width:1;stroke-linecap:butt;stroke-linejoin:miter;stroke:rgb(0%,0%,100%);stroke-opacity:1;stroke-miterlimit:4;" d="M 444.197917 221.5 L 441.197917 218.098958 " transform="matrix(0.75,0,0,0.75,0,0)"/>
<path style="fill:none;stroke-width:1;stroke-linecap:butt;stroke-linejoin:miter;stroke:rgb(0%,0%,100%);stroke-opacity:1;stroke-miterlimit:4;" d="M 449 218.302083 L 445 213.802083 " transform="matrix(0.75,0,0,0.75,0,0)"/>
<path style="fill:none;stroke-width:1;stroke-linecap:butt;stroke-linejoin:miter;stroke:rgb(0%,0%,100%);stroke-opacity:1;stroke-miterlimit:4;" d="M 453.802083 215 L 448.901042 209.401042 " transform="matrix(0.75,0,0,0.75,0,0)"/>
<path style="fill:none;stroke-width:2;stroke-linecap:butt;stroke-linejoin:miter;stroke:rgb(0%,0%,0%);stroke-opacity:1;stroke-miterlimit:4;" d="M 429.802083 231.197917 L 394.401042 219.302083 " transform="matrix(0.75,0,0,0.75,0,0)"/>
<path style="fill-rule:evenodd;fill:rgb(0%,0%,0%);fill-opacity:1;stroke-width:1;stroke-linecap:butt;stroke-linejoin:miter;stroke:rgb(0%,0%,0%);stroke-opacity:1;stroke-miterlimit:4;" d="M 394.401042 219.302083 L 389.697917 205.302083 L 393.401042 204.598958 Z M 394.401042 219.302083 " transform="matrix(0.75,0,0,0.75,0,0)"/>
<path style="fill-rule:evenodd;fill:rgb(100%,0%,0%);fill-opacity:1;stroke-width:1;stroke-linecap:butt;stroke-linejoin:miter;stroke:rgb(100%,0%,0%);stroke-opacity:1;stroke-miterlimit:4;" d="M 389.697917 205.302083 L 392.302083 189.901042 L 385 191.401042 Z M 389.697917 205.302083 " transform="matrix(0.75,0,0,0.75,0,0)"/>
<path style="fill-rule:evenodd;fill:rgb(100%,0%,0%);fill-opacity:1;stroke-width:1;stroke-linecap:butt;stroke-linejoin:miter;stroke:rgb(100%,0%,0%);stroke-opacity:1;stroke-miterlimit:4;" d="M 389.697917 205.302083 L 393.401042 204.598958 L 392.302083 189.901042 Z M 389.697917 205.302083 " transform="matrix(0.75,0,0,0.75,0,0)"/>
<path style="fill:none;stroke-width:2;stroke-linecap:butt;stroke-linejoin:miter;stroke:rgb(0%,0%,0%);stroke-opacity:1;stroke-miterlimit:4;" d="M 394.401042 219.302083 L 366.401042 243.901042 " transform="matrix(0.75,0,0,0.75,0,0)"/>
<path style="fill:none;stroke-width:1;stroke-linecap:butt;stroke-linejoin:miter;stroke:rgb(0%,0%,0%);stroke-opacity:1;stroke-miterlimit:4;" d="M 361.098958 241.302083 L 360.598958 242.697917 " transform="matrix(0.75,0,0,0.75,0,0)"/>
<path style="fill:none;stroke-width:1;stroke-linecap:butt;stroke-linejoin:miter;stroke:rgb(0%,0%,0%);stroke-opacity:1;stroke-miterlimit:4;" d="M 355.697917 238.697917 L 354.697917 241.5 " transform="matrix(0.75,0,0,0.75,0,0)"/>
<path style="fill:none;stroke-width:1;stroke-linecap:butt;stroke-linejoin:miter;stroke:rgb(100%,0%,0%);stroke-opacity:1;stroke-miterlimit:4;" d="M 350.302083 236.098958 L 348.901042 240.401042 " transform="matrix(0.75,0,0,0.75,0,0)"/>
<path style="fill:none;stroke-width:1;stroke-linecap:butt;stroke-linejoin:miter;stroke:rgb(100%,0%,0%);stroke-opacity:1;stroke-miterlimit:4;" d="M 344.901042 233.5 L 343 239.197917 " transform="matrix(0.75,0,0,0.75,0,0)"/>
<path style="fill:none;stroke-width:1;stroke-linecap:butt;stroke-linejoin:miter;stroke:rgb(100%,0%,0%);stroke-opacity:1;stroke-miterlimit:4;" d="M 339.598958 230.901042 L 337.197917 238 " transform="matrix(0.75,0,0,0.75,0,0)"/>
<path style="fill:none;stroke-width:2;stroke-linecap:butt;stroke-linejoin:miter;stroke:rgb(0%,0%,0%);stroke-opacity:1;stroke-miterlimit:4;" d="M 310.401042 293.197917 L 307.401042 278.302083 " transform="matrix(0.75,0,0,0.75,0,0)"/>
<path style="fill:none;stroke-width:2;stroke-linecap:butt;stroke-linejoin:miter;stroke:rgb(100%,0%,0%);stroke-opacity:1;stroke-miterlimit:4;" d="M 307.401042 278.302083 L 304.401042 263.401042 " transform="matrix(0.75,0,0,0.75,0,0)"/>
<path style="fill:none;stroke-width:2;stroke-linecap:butt;stroke-linejoin:miter;stroke:rgb(100%,0%,0%);stroke-opacity:1;stroke-miterlimit:4;" d="M 297 254.598958 L 282.302083 249.697917 " transform="matrix(0.75,0,0,0.75,0,0)"/>
<path style="fill:none;stroke-width:2;stroke-linecap:butt;stroke-linejoin:miter;stroke:rgb(0%,0%,0%);stroke-opacity:1;stroke-miterlimit:4;" d="M 282.302083 249.697917 L 267.697917 244.697917 " transform="matrix(0.75,0,0,0.75,0,0)"/>
<path style="fill:none;stroke-width:2;stroke-linecap:butt;stroke-linejoin:miter;stroke:rgb(0%,0%,0%);stroke-opacity:1;stroke-miterlimit:4;" d="M 267.697917 244.697917 L 260.401042 208.098958 " transform="matrix(0.75,0,0,0.75,0,0)"/>
<path style="fill-rule:evenodd;fill:rgb(0%,0%,0%);fill-opacity:1;stroke-width:1;stroke-linecap:butt;stroke-linejoin:miter;stroke:rgb(0%,0%,0%);stroke-opacity:1;stroke-miterlimit:4;" d="M 260.401042 208.098958 L 269.5 197.598958 L 271.901042 200.401042 Z M 260.401042 208.098958 " transform="matrix(0.75,0,0,0.75,0,0)"/>
<path style="fill-rule:evenodd;fill:rgb(100%,0%,0%);fill-opacity:1;stroke-width:1;stroke-linecap:butt;stroke-linejoin:miter;stroke:rgb(100%,0%,0%);stroke-opacity:1;stroke-miterlimit:4;" d="M 269.5 197.598958 L 283.5 192.697917 L 278.598958 187.098958 Z M 269.5 197.598958 " transform="matrix(0.75,0,0,0.75,0,0)"/>
<path style="fill-rule:evenodd;fill:rgb(100%,0%,0%);fill-opacity:1;stroke-width:1;stroke-linecap:butt;stroke-linejoin:miter;stroke:rgb(100%,0%,0%);stroke-opacity:1;stroke-miterlimit:4;" d="M 269.5 197.598958 L 271.901042 200.401042 L 283.5 192.697917 Z M 269.5 197.598958 " transform="matrix(0.75,0,0,0.75,0,0)"/>
<path style="fill:none;stroke-width:2;stroke-linecap:butt;stroke-linejoin:miter;stroke:rgb(0%,0%,0%);stroke-opacity:1;stroke-miterlimit:4;" d="M 260.401042 208.098958 L 225 196.197917 " transform="matrix(0.75,0,0,0.75,0,0)"/>
<path style="fill:none;stroke-width:2;stroke-linecap:butt;stroke-linejoin:miter;stroke:rgb(0%,0%,0%);stroke-opacity:1;stroke-miterlimit:4;" d="M 141 270.197917 L 133.598958 233.598958 " transform="matrix(0.75,0,0,0.75,0,0)"/>
<path style="fill:none;stroke-width:2;stroke-linecap:butt;stroke-linejoin:miter;stroke:rgb(0%,0%,0%);stroke-opacity:1;stroke-miterlimit:4;" d="M 267.697917 244.697917 L 239.697917 269.401042 " transform="matrix(0.75,0,0,0.75,0,0)"/>
<path style="fill:none;stroke-width:2;stroke-linecap:butt;stroke-linejoin:miter;stroke:rgb(0%,0%,0%);stroke-opacity:1;stroke-miterlimit:4;" d="M 366.401042 243.901042 L 373.802083 280.5 " transform="matrix(0.75,0,0,0.75,0,0)"/>
<path style="fill-rule:evenodd;fill:rgb(0%,0%,0%);fill-opacity:1;stroke-width:1;stroke-linecap:butt;stroke-linejoin:miter;stroke:rgb(0%,0%,0%);stroke-opacity:1;stroke-miterlimit:4;" d="M 239.697917 269.401042 L 220.802083 291 L 215.802083 285.401042 Z M 239.697917 269.401042 " transform="matrix(0.75,0,0,0.75,0,0)"/>
<path style="fill:none;stroke-width:1;stroke-linecap:butt;stroke-linejoin:miter;stroke:rgb(0%,0%,0%);stroke-opacity:1;stroke-miterlimit:4;" d="M 272.5 241.5 L 271.5 240.401042 " transform="matrix(0.75,0,0,0.75,0,0)"/>
<path style="fill:none;stroke-width:1;stroke-linecap:butt;stroke-linejoin:miter;stroke:rgb(0%,0%,0%);stroke-opacity:1;stroke-miterlimit:4;" d="M 277.302083 238.302083 L 275.302083 236.098958 " transform="matrix(0.75,0,0,0.75,0,0)"/>
<path style="fill:none;stroke-width:1;stroke-linecap:butt;stroke-linejoin:miter;stroke:rgb(0%,0%,0%);stroke-opacity:1;stroke-miterlimit:4;" d="M 282 235.098958 L 279.098958 231.697917 " transform="matrix(0.75,0,0,0.75,0,0)"/>
<path style="fill:none;stroke-width:1;stroke-linecap:butt;stroke-linejoin:miter;stroke:rgb(0%,0%,0%);stroke-opacity:1;stroke-miterlimit:4;" d="M 286.802083 231.901042 L 282.901042 227.401042 " transform="matrix(0.75,0,0,0.75,0,0)"/>
<path style="fill:none;stroke-width:1;stroke-linecap:butt;stroke-linejoin:miter;stroke:rgb(0%,0%,0%);stroke-opacity:1;stroke-miterlimit:4;" d="M 291.598958 228.697917 L 286.697917 223.098958 " transform="matrix(0.75,0,0,0.75,0,0)"/>
<path style=" stroke:none;fill-rule:nonzero;fill:rgb(0%,0%,100%);fill-opacity:1;" d="M 153.074219 115.726562 L 154.125 115.726562 L 154.125 119.101562 L 158.175781 119.101562 L 158.175781 115.726562 L 159.300781 115.726562 L 159.300781 123.675781 L 158.175781 123.675781 L 158.175781 120 L 154.125 120 L 154.125 123.675781 L 153.074219 123.675781 L 153.074219 115.726562 "/>
<path style=" stroke:none;fill-rule:nonzero;fill:rgb(0%,0%,100%);fill-opacity:1;" d="M 161.476562 115.726562 L 164.101562 119.925781 C 164.25 120.226562 164.476562 120.625 164.773438 121.125 C 165.023438 121.625 165.175781 121.898438 165.226562 121.949219 L 165.226562 115.726562 L 166.273438 115.726562 L 166.273438 123.675781 L 165.148438 123.675781 L 162.375 119.101562 C 162.175781 118.75 161.949219 118.375 161.699219 117.976562 C 161.5 117.523438 161.351562 117.25 161.25 117.148438 L 161.25 123.675781 L 160.273438 123.675781 L 160.273438 115.726562 L 161.476562 115.726562 "/>
<path style=" stroke:none;fill-rule:nonzero;fill:rgb(100%,0%,0%);fill-opacity:1;" d="M 117.601562 156.75 C 117.601562 155.449219 117.925781 154.449219 118.574219 153.75 C 119.175781 153.050781 120.050781 152.699219 121.199219 152.699219 C 122.398438 152.699219 123.300781 153.050781 123.898438 153.75 C 124.550781 154.449219 124.875 155.449219 124.875 156.75 C 124.875 158 124.550781 159 123.898438 159.75 C 123.300781 160.449219 122.398438 160.800781 121.199219 160.800781 C 120.050781 160.800781 119.175781 160.449219 118.574219 159.75 C 117.925781 159.050781 117.601562 158.050781 117.601562 156.75 M 121.199219 159.976562 C 122.050781 159.976562 122.675781 159.699219 123.074219 159.148438 C 123.523438 158.601562 123.75 157.800781 123.75 156.75 C 123.75 155.699219 123.523438 154.925781 123.074219 154.425781 C 122.675781 153.875 122.050781 153.601562 121.199219 153.601562 C 120.398438 153.601562 119.800781 153.851562 119.398438 154.351562 C 118.949219 154.898438 118.726562 155.699219 118.726562 156.75 C 118.726562 157.800781 118.949219 158.601562 119.398438 159.148438 C 119.800781 159.699219 120.398438 159.976562 121.199219 159.976562 "/>
<path style=" stroke:none;fill-rule:nonzero;fill:rgb(100%,0%,0%);fill-opacity:1;" d="M 70.050781 166.273438 C 70.050781 165.023438 70.375 164.023438 71.023438 163.273438 C 71.625 162.574219 72.523438 162.226562 73.726562 162.226562 C 74.875 162.226562 75.773438 162.574219 76.425781 163.273438 C 77.023438 164.023438 77.324219 165.023438 77.324219 166.273438 C 77.324219 167.574219 77.023438 168.574219 76.425781 169.273438 C 75.773438 170.023438 74.875 170.398438 73.726562 170.398438 C 72.574219 170.398438 71.675781 170.023438 71.023438 169.273438 C 70.375 168.574219 70.050781 167.574219 70.050781 166.273438 M 73.726562 169.5 C 74.523438 169.5 75.148438 169.226562 75.601562 168.675781 C 76 168.125 76.199219 167.324219 76.199219 166.273438 C 76.199219 165.226562 76 164.449219 75.601562 163.949219 C 75.148438 163.398438 74.523438 163.125 73.726562 163.125 C 72.925781 163.125 72.300781 163.398438 71.851562 163.949219 C 71.398438 164.449219 71.175781 165.226562 71.175781 166.273438 C 71.175781 167.324219 71.398438 168.125 71.851562 168.675781 C 72.300781 169.226562 72.925781 169.5 73.726562 169.5 "/>
<path style=" stroke:none;fill-rule:nonzero;fill:rgb(100%,0%,0%);fill-opacity:1;" d="M 17.023438 148.351562 C 17.023438 147.101562 17.351562 146.125 18 145.425781 C 18.601562 144.726562 19.5 144.375 20.699219 144.375 C 21.851562 144.375 22.75 144.726562 23.398438 145.425781 C 24 146.125 24.300781 147.101562 24.300781 148.351562 C 24.300781 149.648438 24 150.675781 23.398438 151.425781 C 22.75 152.125 21.851562 152.476562 20.699219 152.476562 C 19.5 152.476562 18.601562 152.125 18 151.425781 C 17.351562 150.675781 17.023438 149.648438 17.023438 148.351562 M 20.699219 151.574219 C 21.5 151.574219 22.125 151.324219 22.574219 150.824219 C 22.976562 150.273438 23.175781 149.449219 23.175781 148.351562 C 23.175781 147.351562 22.976562 146.574219 22.574219 146.023438 C 22.125 145.523438 21.5 145.273438 20.699219 145.273438 C 19.898438 145.273438 19.273438 145.523438 18.824219 146.023438 C 18.375 146.574219 18.148438 147.351562 18.148438 148.351562 C 18.148438 149.449219 18.375 150.273438 18.824219 150.824219 C 19.273438 151.324219 19.898438 151.574219 20.699219 151.574219 "/>
<path style=" stroke:none;fill-rule:nonzero;fill:rgb(100%,0%,0%);fill-opacity:1;" d="M 24.898438 144.449219 L 25.949219 144.449219 L 25.949219 147.824219 L 30 147.824219 L 30 144.449219 L 31.050781 144.449219 L 31.050781 152.398438 L 30 152.398438 L 30 148.726562 L 25.949219 148.726562 L 25.949219 152.398438 L 24.898438 152.398438 L 24.898438 144.449219 "/>
<path style=" stroke:none;fill-rule:nonzero;fill:rgb(0%,0%,100%);fill-opacity:1;" d="M 23.101562 226.726562 L 24.148438 226.726562 L 24.148438 230.101562 L 28.199219 230.101562 L 28.199219 226.726562 L 29.324219 226.726562 L 29.324219 234.601562 L 28.199219 234.601562 L 28.199219 231 L 24.148438 231 L 24.148438 234.601562 L 23.101562 234.601562 L 23.101562 226.726562 "/>
<path style=" stroke:none;fill-rule:nonzero;fill:rgb(0%,0%,100%);fill-opacity:1;" d="M 30.226562 234.375 C 30.375 234.023438 30.601562 233.773438 30.898438 233.625 C 31.199219 233.425781 31.574219 233.324219 32.023438 233.324219 C 32.523438 233.324219 32.925781 233.449219 33.226562 233.699219 C 33.523438 234 33.675781 234.398438 33.675781 234.898438 C 33.675781 235.449219 33.476562 235.949219 33.074219 236.398438 C 32.726562 236.898438 32.148438 237.425781 31.351562 237.976562 L 33.75 237.976562 L 33.75 238.574219 L 30.226562 238.574219 L 30.226562 238.125 C 30.875 237.625 31.398438 237.226562 31.800781 236.925781 C 32.199219 236.574219 32.5 236.226562 32.699219 235.875 C 32.851562 235.574219 32.925781 235.273438 32.925781 234.976562 C 32.925781 234.625 32.851562 234.351562 32.699219 234.148438 C 32.550781 234 32.324219 233.925781 32.023438 233.925781 C 31.726562 233.925781 31.476562 233.976562 31.273438 234.074219 C 31.125 234.175781 30.976562 234.351562 30.824219 234.601562 L 30.226562 234.375 "/>
<path style=" stroke:none;fill-rule:nonzero;fill:rgb(0%,0%,100%);fill-opacity:1;" d="M 35.476562 226.726562 L 38.101562 230.925781 C 38.25 231.175781 38.449219 231.550781 38.699219 232.050781 C 39 232.550781 39.148438 232.824219 39.148438 232.875 L 39.148438 226.726562 L 40.199219 226.726562 L 40.199219 234.601562 L 39.148438 234.601562 L 36.375 230.023438 C 36.125 229.675781 35.898438 229.300781 35.699219 228.898438 C 35.449219 228.5 35.300781 228.226562 35.25 228.074219 L 35.25 234.601562 L 34.199219 234.601562 L 34.199219 226.726562 L 35.476562 226.726562 "/>
<path style=" stroke:none;fill-rule:nonzero;fill:rgb(100%,0%,0%);fill-opacity:1;" d="M 86.625 248.550781 C 86.625 247.300781 86.925781 246.324219 87.523438 245.625 C 88.175781 244.925781 89.074219 244.574219 90.226562 244.574219 C 91.425781 244.574219 92.324219 244.925781 92.925781 245.625 C 93.574219 246.324219 93.898438 247.300781 93.898438 248.550781 C 93.898438 249.851562 93.574219 250.875 92.925781 251.625 C 92.273438 252.324219 91.375 252.675781 90.226562 252.675781 C 89.074219 252.675781 88.175781 252.324219 87.523438 251.625 C 86.925781 250.875 86.625 249.851562 86.625 248.550781 M 90.226562 251.773438 C 91.023438 251.773438 91.648438 251.523438 92.101562 251.023438 C 92.550781 250.476562 92.773438 249.648438 92.773438 248.550781 C 92.773438 247.550781 92.550781 246.773438 92.101562 246.226562 C 91.648438 245.726562 91.023438 245.476562 90.226562 245.476562 C 89.425781 245.476562 88.800781 245.726562 88.351562 246.226562 C 87.949219 246.773438 87.75 247.550781 87.75 248.550781 C 87.75 249.648438 87.949219 250.476562 88.351562 251.023438 C 88.800781 251.523438 89.425781 251.773438 90.226562 251.773438 "/>
<path style=" stroke:none;fill-rule:nonzero;fill:rgb(100%,0%,0%);fill-opacity:1;" d="M 94.425781 244.648438 L 95.550781 244.648438 L 95.550781 248.023438 L 99.601562 248.023438 L 99.601562 244.648438 L 100.648438 244.648438 L 100.648438 252.601562 L 99.601562 252.601562 L 99.601562 248.925781 L 95.550781 248.925781 L 95.550781 252.601562 L 94.425781 252.601562 L 94.425781 244.648438 "/>
<path style=" stroke:none;fill-rule:nonzero;fill:rgb(100%,0%,0%);fill-opacity:1;" d="M 128.625 211.574219 C 128.625 210.324219 128.925781 209.351562 129.523438 208.648438 C 130.175781 207.949219 131.074219 207.601562 132.226562 207.601562 C 133.425781 207.601562 134.324219 207.949219 134.925781 208.648438 C 135.574219 209.351562 135.898438 210.324219 135.898438 211.574219 C 135.898438 212.875 135.574219 213.898438 134.925781 214.648438 C 134.324219 215.351562 133.425781 215.699219 132.226562 215.699219 C 131.074219 215.699219 130.175781 215.351562 129.523438 214.648438 C 128.925781 213.898438 128.625 212.875 128.625 211.574219 M 132.226562 214.800781 C 133.074219 214.800781 133.699219 214.523438 134.101562 213.976562 C 134.550781 213.476562 134.773438 212.675781 134.773438 211.574219 C 134.773438 210.574219 134.550781 209.800781 134.101562 209.25 C 133.699219 208.75 133.074219 208.5 132.226562 208.5 C 131.425781 208.5 130.824219 208.75 130.425781 209.25 C 129.976562 209.75 129.75 210.523438 129.75 211.574219 C 129.75 212.675781 129.976562 213.476562 130.425781 213.976562 C 130.824219 214.523438 131.425781 214.800781 132.226562 214.800781 "/>
<path style=" stroke:none;fill-rule:nonzero;fill:rgb(100%,0%,0%);fill-opacity:1;" d="M 136.425781 207.675781 L 137.550781 207.675781 L 137.550781 211.050781 L 141.601562 211.050781 L 141.601562 207.675781 L 142.648438 207.675781 L 142.648438 215.550781 L 141.601562 215.550781 L 141.601562 211.949219 L 137.550781 211.949219 L 137.550781 215.550781 L 136.425781 215.550781 L 136.425781 207.675781 "/>
<path style=" stroke:none;fill-rule:nonzero;fill:rgb(100%,0%,0%);fill-opacity:1;" d="M 149.625 193.125 C 149.625 191.824219 149.949219 190.824219 150.601562 190.125 C 151.199219 189.425781 152.101562 189.074219 153.300781 189.074219 C 154.449219 189.074219 155.324219 189.425781 155.925781 190.125 C 156.574219 190.824219 156.898438 191.824219 156.898438 193.125 C 156.898438 194.375 156.574219 195.375 155.925781 196.125 C 155.324219 196.875 154.449219 197.25 153.300781 197.25 C 152.101562 197.25 151.199219 196.875 150.601562 196.125 C 149.949219 195.425781 149.625 194.425781 149.625 193.125 M 153.300781 196.351562 C 154.101562 196.351562 154.699219 196.074219 155.101562 195.523438 C 155.550781 194.976562 155.773438 194.175781 155.773438 193.125 C 155.773438 192.074219 155.550781 191.300781 155.101562 190.800781 C 154.699219 190.25 154.101562 189.976562 153.300781 189.976562 C 152.449219 189.976562 151.824219 190.226562 151.425781 190.726562 C 150.976562 191.273438 150.75 192.074219 150.75 193.125 C 150.75 194.175781 150.976562 194.976562 151.425781 195.523438 C 151.824219 196.074219 152.449219 196.351562 153.300781 196.351562 "/>
<path style=" stroke:none;fill-rule:nonzero;fill:rgb(0%,0%,100%);fill-opacity:1;" d="M 215.550781 261.898438 L 218.175781 266.101562 C 218.324219 266.351562 218.550781 266.726562 218.851562 267.226562 C 219.101562 267.726562 219.25 268 219.300781 268.050781 L 219.300781 261.898438 L 220.351562 261.898438 L 220.351562 269.773438 L 219.226562 269.773438 L 216.449219 265.199219 C 216.25 264.851562 216.023438 264.476562 215.773438 264.074219 C 215.574219 263.675781 215.425781 263.398438 215.324219 263.25 L 215.324219 269.773438 L 214.351562 269.773438 L 214.351562 261.898438 L 215.550781 261.898438 "/>
<path style=" stroke:none;fill-rule:nonzero;fill:rgb(0%,0%,100%);fill-opacity:1;" d="M 221.25 261.898438 L 222.300781 261.898438 L 222.300781 265.273438 L 226.351562 265.273438 L 226.351562 261.898438 L 227.476562 261.898438 L 227.476562 269.773438 L 226.351562 269.773438 L 226.351562 266.175781 L 222.300781 266.175781 L 222.300781 269.773438 L 221.25 269.773438 L 221.25 261.898438 "/>
<path style=" stroke:none;fill-rule:nonzero;fill:rgb(0%,0%,100%);fill-opacity:1;" d="M 228.449219 269.550781 C 228.550781 269.199219 228.75 268.925781 229.050781 268.726562 C 229.351562 268.574219 229.726562 268.5 230.175781 268.5 C 230.675781 268.5 231.074219 268.625 231.375 268.875 C 231.675781 269.175781 231.824219 269.574219 231.824219 270.074219 C 231.824219 270.625 231.648438 271.125 231.300781 271.574219 C 230.898438 272.074219 230.300781 272.601562 229.5 273.148438 L 231.898438 273.148438 L 231.898438 273.75 L 228.375 273.75 L 228.375 273.300781 C 229.023438 272.800781 229.550781 272.398438 229.949219 272.101562 C 230.351562 271.75 230.648438 271.398438 230.851562 271.050781 C 231 270.75 231.074219 270.449219 231.074219 270.148438 C 231.074219 269.800781 231 269.523438 230.851562 269.324219 C 230.699219 269.175781 230.476562 269.101562 230.175781 269.101562 C 229.875 269.101562 229.648438 269.148438 229.5 269.25 C 229.300781 269.351562 229.125 269.523438 228.976562 269.773438 L 228.449219 269.550781 "/>
<path style=" stroke:none;fill-rule:nonzero;fill:rgb(100%,0%,0%);fill-opacity:1;" d="M 255.675781 228.898438 C 255.675781 227.601562 256 226.601562 256.648438 225.898438 C 257.25 225.199219 258.148438 224.851562 259.351562 224.851562 C 260.5 224.851562 261.398438 225.199219 262.050781 225.898438 C 262.648438 226.601562 262.949219 227.601562 262.949219 228.898438 C 262.949219 230.148438 262.648438 231.148438 262.050781 231.898438 C 261.398438 232.648438 260.5 233.023438 259.351562 233.023438 C 258.148438 233.023438 257.25 232.648438 256.648438 231.898438 C 256 231.199219 255.675781 230.199219 255.675781 228.898438 M 259.351562 232.125 C 260.148438 232.125 260.75 231.851562 261.148438 231.300781 C 261.601562 230.75 261.824219 229.949219 261.824219 228.898438 C 261.824219 227.851562 261.601562 227.074219 261.148438 226.574219 C 260.75 226.023438 260.148438 225.75 259.351562 225.75 C 258.550781 225.75 257.925781 226 257.476562 226.5 C 257.023438 227.050781 256.800781 227.851562 256.800781 228.898438 C 256.800781 229.949219 257.023438 230.75 257.476562 231.300781 C 257.925781 231.851562 258.550781 232.125 259.351562 232.125 "/>
<path style=" stroke:none;fill-rule:nonzero;fill:rgb(0%,0%,100%);fill-opacity:1;" d="M 310.574219 242.773438 L 313.199219 246.976562 C 313.398438 247.273438 313.625 247.675781 313.875 248.175781 C 314.175781 248.675781 314.324219 248.925781 314.324219 248.925781 L 314.324219 242.773438 L 315.375 242.773438 L 315.375 250.726562 L 314.25 250.726562 L 311.476562 246.148438 C 311.273438 245.75 311.050781 245.351562 310.800781 244.949219 C 310.601562 244.550781 310.449219 244.300781 310.351562 244.199219 L 310.351562 250.726562 L 309.375 250.726562 L 309.375 242.773438 L 310.574219 242.773438 "/>
<path style=" stroke:none;fill-rule:nonzero;fill:rgb(0%,0%,100%);fill-opacity:1;" d="M 316.273438 242.773438 L 317.398438 242.773438 L 317.398438 246.148438 L 321.449219 246.148438 L 321.449219 242.773438 L 322.5 242.773438 L 322.5 250.726562 L 321.449219 250.726562 L 321.449219 247.050781 L 317.398438 247.050781 L 317.398438 250.726562 L 316.273438 250.726562 L 316.273438 242.773438 "/>
<path style=" stroke:none;fill-rule:nonzero;fill:rgb(0%,0%,100%);fill-opacity:1;" d="M 323.476562 250.425781 C 323.574219 250.125 323.773438 249.875 324.074219 249.675781 C 324.425781 249.476562 324.800781 249.375 325.199219 249.375 C 325.75 249.375 326.175781 249.523438 326.476562 249.824219 C 326.726562 250.125 326.851562 250.523438 326.851562 251.023438 C 326.851562 251.523438 326.675781 252.023438 326.324219 252.523438 C 325.925781 252.976562 325.324219 253.5 324.523438 254.101562 L 327 254.101562 L 327 254.699219 L 323.476562 254.699219 L 323.476562 254.175781 C 324.125 253.726562 324.625 253.324219 324.976562 252.976562 C 325.375 252.625 325.675781 252.300781 325.875 252 C 326.074219 251.699219 326.175781 251.375 326.175781 251.023438 C 326.175781 250.675781 326.074219 250.425781 325.875 250.273438 C 325.726562 250.074219 325.5 249.976562 325.199219 249.976562 C 324.898438 249.976562 324.675781 250.023438 324.523438 250.125 C 324.324219 250.273438 324.148438 250.476562 324 250.726562 L 323.476562 250.425781 "/>
<path style=" stroke:none;fill-rule:nonzero;fill:rgb(0%,0%,100%);fill-opacity:1;" d="M 341.625 150.898438 L 344.175781 155.101562 C 344.375 155.398438 344.601562 155.800781 344.851562 156.300781 C 345.148438 156.800781 345.300781 157.074219 345.300781 157.125 L 345.300781 150.898438 L 346.351562 150.898438 L 346.351562 158.851562 L 345.300781 158.851562 L 342.449219 154.273438 C 342.25 153.925781 342.023438 153.550781 341.773438 153.148438 C 341.574219 152.699219 341.449219 152.425781 341.398438 152.324219 L 341.398438 158.851562 L 340.351562 158.851562 L 340.351562 150.898438 L 341.625 150.898438 "/>
<path style=" stroke:none;fill-rule:nonzero;fill:rgb(0%,0%,100%);fill-opacity:1;" d="M 347.25 150.898438 L 348.375 150.898438 L 348.375 154.273438 L 352.425781 154.273438 L 352.425781 150.898438 L 353.476562 150.898438 L 353.476562 158.851562 L 352.425781 158.851562 L 352.425781 155.175781 L 348.375 155.175781 L 348.375 158.851562 L 347.25 158.851562 L 347.25 150.898438 "/>
<path style=" stroke:none;fill-rule:nonzero;fill:rgb(0%,0%,100%);fill-opacity:1;" d="M 354.449219 158.550781 C 354.550781 158.25 354.773438 158 355.125 157.800781 C 355.425781 157.601562 355.773438 157.5 356.175781 157.5 C 356.726562 157.5 357.148438 157.648438 357.449219 157.949219 C 357.75 158.25 357.898438 158.648438 357.898438 159.148438 C 357.898438 159.648438 357.699219 160.148438 357.300781 160.648438 C 356.898438 161.148438 356.324219 161.675781 355.574219 162.226562 L 357.976562 162.226562 L 357.976562 162.824219 L 354.449219 162.824219 L 354.449219 162.300781 C 355.101562 161.851562 355.601562 161.449219 355.949219 161.101562 C 356.351562 160.75 356.648438 160.425781 356.851562 160.125 C 357.050781 159.824219 357.148438 159.5 357.148438 159.148438 C 357.148438 158.851562 357.050781 158.601562 356.851562 158.398438 C 356.699219 158.199219 356.476562 158.101562 356.175781 158.101562 C 355.925781 158.101562 355.699219 158.175781 355.5 158.324219 C 355.300781 158.425781 355.125 158.601562 354.976562 158.851562 L 354.449219 158.550781 "/>
<path style=" stroke:none;fill-rule:nonzero;fill:rgb(100%,0%,0%);fill-opacity:1;" d="M 286.648438 137.023438 C 286.648438 135.773438 286.976562 134.800781 287.625 134.101562 C 288.226562 133.351562 289.125 132.976562 290.324219 132.976562 C 291.476562 132.976562 292.375 133.351562 293.023438 134.101562 C 293.625 134.800781 293.925781 135.773438 293.925781 137.023438 C 293.925781 138.324219 293.625 139.324219 293.023438 140.023438 C 292.375 140.773438 291.476562 141.148438 290.324219 141.148438 C 289.175781 141.148438 288.273438 140.773438 287.625 140.023438 C 286.976562 139.324219 286.648438 138.324219 286.648438 137.023438 M 290.324219 140.25 C 291.125 140.25 291.75 139.976562 292.199219 139.425781 C 292.601562 138.875 292.800781 138.074219 292.800781 137.023438 C 292.800781 135.976562 292.601562 135.199219 292.199219 134.699219 C 291.75 134.148438 291.125 133.875 290.324219 133.875 C 289.523438 133.875 288.898438 134.148438 288.449219 134.699219 C 288 135.199219 287.773438 135.976562 287.773438 137.023438 C 287.773438 138.074219 288 138.875 288.449219 139.425781 C 288.898438 139.976562 289.523438 140.25 290.324219 140.25 "/>
<path style=" stroke:none;fill-rule:nonzero;fill:rgb(100%,0%,0%);fill-opacity:1;" d="M 294.523438 133.125 L 295.574219 133.125 L 295.574219 136.425781 L 299.625 136.425781 L 299.625 133.125 L 300.675781 133.125 L 300.675781 141 L 299.625 141 L 299.625 137.324219 L 295.574219 137.324219 L 295.574219 141 L 294.523438 141 L 294.523438 133.125 "/>
<path style=" stroke:none;fill-rule:nonzero;fill:rgb(100%,0%,0%);fill-opacity:1;" d="M 237.523438 170.101562 L 238.574219 170.101562 L 238.574219 173.476562 L 242.625 173.476562 L 242.625 170.101562 L 243.75 170.101562 L 243.75 177.976562 L 242.625 177.976562 L 242.625 174.300781 L 238.574219 174.300781 L 238.574219 177.976562 L 237.523438 177.976562 L 237.523438 170.101562 "/>
<path style=" stroke:none;fill-rule:nonzero;fill:rgb(100%,0%,0%);fill-opacity:1;" d="M 244.648438 174 C 244.648438 172.75 244.976562 171.773438 245.625 171.074219 C 246.226562 170.324219 247.125 169.949219 248.324219 169.949219 C 249.476562 169.949219 250.375 170.324219 251.023438 171.074219 C 251.625 171.773438 251.925781 172.75 251.925781 174 C 251.925781 175.300781 251.625 176.300781 251.023438 177 C 250.375 177.75 249.476562 178.125 248.324219 178.125 C 247.125 178.125 246.226562 177.75 245.625 177 C 244.976562 176.300781 244.648438 175.300781 244.648438 174 M 248.324219 177.226562 C 249.125 177.226562 249.726562 176.949219 250.125 176.398438 C 250.574219 175.851562 250.800781 175.050781 250.800781 174 C 250.800781 172.949219 250.574219 172.175781 250.125 171.675781 C 249.726562 171.125 249.125 170.851562 248.324219 170.851562 C 247.523438 170.851562 246.898438 171.125 246.449219 171.675781 C 246 172.175781 245.773438 172.949219 245.773438 174 C 245.773438 175.101562 246 175.898438 246.449219 176.398438 C 246.898438 176.949219 247.523438 177.226562 248.324219 177.226562 "/>
<path style=" stroke:none;fill-rule:nonzero;fill:rgb(100%,0%,0%);fill-opacity:1;" d="M 223.648438 192.523438 C 223.648438 191.226562 223.976562 190.226562 224.625 189.523438 C 225.226562 188.824219 226.125 188.476562 227.324219 188.476562 C 228.476562 188.476562 229.375 188.824219 230.023438 189.523438 C 230.625 190.226562 230.925781 191.226562 230.925781 192.523438 C 230.925781 193.773438 230.601562 194.773438 229.949219 195.523438 C 229.351562 196.226562 228.476562 196.574219 227.324219 196.574219 C 226.125 196.574219 225.226562 196.226562 224.625 195.523438 C 223.976562 194.824219 223.648438 193.824219 223.648438 192.523438 M 227.324219 195.75 C 228.125 195.75 228.726562 195.476562 229.125 194.925781 C 229.574219 194.375 229.800781 193.574219 229.800781 192.523438 C 229.800781 191.476562 229.574219 190.699219 229.125 190.199219 C 228.726562 189.648438 228.125 189.375 227.324219 189.375 C 226.523438 189.375 225.898438 189.625 225.449219 190.125 C 225 190.675781 224.773438 191.476562 224.773438 192.523438 C 224.773438 193.574219 225 194.375 225.449219 194.925781 C 225.898438 195.476562 226.523438 195.75 227.324219 195.75 "/>
<path style=" stroke:none;fill-rule:nonzero;fill:rgb(100%,0%,0%);fill-opacity:1;" d="M 212.625 137.625 C 212.625 136.375 212.949219 135.398438 213.601562 134.699219 C 214.199219 133.949219 215.101562 133.574219 216.300781 133.574219 C 217.449219 133.574219 218.351562 133.949219 219 134.699219 C 219.601562 135.398438 219.898438 136.375 219.898438 137.625 C 219.898438 138.925781 219.574219 139.925781 218.925781 140.625 C 218.324219 141.375 217.449219 141.75 216.300781 141.75 C 215.101562 141.75 214.199219 141.375 213.601562 140.625 C 212.949219 139.925781 212.625 138.925781 212.625 137.625 M 216.300781 140.851562 C 217.101562 140.851562 217.699219 140.574219 218.101562 140.023438 C 218.550781 139.476562 218.773438 138.675781 218.773438 137.625 C 218.773438 136.574219 218.550781 135.800781 218.101562 135.300781 C 217.699219 134.75 217.101562 134.476562 216.300781 134.476562 C 215.5 134.476562 214.875 134.75 214.425781 135.300781 C 213.976562 135.800781 213.75 136.574219 213.75 137.625 C 213.75 138.675781 213.976562 139.476562 214.425781 140.023438 C 214.875 140.574219 215.5 140.851562 216.300781 140.851562 "/>
<path style=" stroke:none;fill-rule:nonzero;fill:rgb(100%,0%,0%);fill-opacity:1;" d="M 220.5 133.726562 L 221.550781 133.726562 L 221.550781 137.023438 L 225.601562 137.023438 L 225.601562 133.726562 L 226.648438 133.726562 L 226.648438 141.601562 L 225.601562 141.601562 L 225.601562 137.925781 L 221.550781 137.925781 L 221.550781 141.601562 L 220.5 141.601562 L 220.5 133.726562 "/>
<path style=" stroke:none;fill-rule:nonzero;fill:rgb(0%,0%,0%);fill-opacity:1;" d="M 155.699219 216.523438 L 156.75 216.523438 L 156.75 219.898438 L 160.800781 219.898438 L 160.800781 216.523438 L 161.851562 216.523438 L 161.851562 224.476562 L 160.800781 224.476562 L 160.800781 220.800781 L 156.75 220.800781 L 156.75 224.476562 L 155.699219 224.476562 L 155.699219 216.523438 "/>
<path style=" stroke:none;fill-rule:nonzero;fill:rgb(0%,0%,0%);fill-opacity:1;" d="M 218.699219 161.101562 L 219.75 161.101562 L 219.75 164.476562 L 223.800781 164.476562 L 223.800781 161.101562 L 224.925781 161.101562 L 224.925781 168.976562 L 223.800781 168.976562 L 223.800781 165.375 L 219.75 165.375 L 219.75 168.976562 L 218.699219 168.976562 L 218.699219 161.101562 "/>
</g>
</svg>
