<?xml version="1.0" encoding="UTF-8"?>
<svg xmlns="http://www.w3.org/2000/svg" xmlns:xlink="http://www.w3.org/1999/xlink" width="375pt" height="375pt" viewBox="0 0 375 375" version="1.1">
<g id="surface171">
<rect x="0" y="0" width="375" height="375" style="fill:rgb(100%,100%,100%);fill-opacity:1;stroke:none;"/>
<path style="fill:none;stroke-width:2;stroke-linecap:butt;stroke-linejoin:miter;stroke:rgb(0%,0%,0%);stroke-opacity:1;stroke-miterlimit:4;" d="M 181.901042 129 L 182.5 142.901042 " transform="matrix(0.75,0,0,0.75,0,0)"/>
<path style="fill:none;stroke-width:2;stroke-linecap:butt;stroke-linejoin:miter;stroke:rgb(100%,0%,0%);stroke-opacity:1;stroke-miterlimit:4;" d="M 182.5 142.901042 L 183.098958 156.802083 " transform="matrix(0.75,0,0,0.75,0,0)"/>
<path style="fill:none;stroke-width:2;stroke-linecap:butt;stroke-linejoin:miter;stroke:rgb(100%,0%,0%);stroke-opacity:1;stroke-miterlimit:4;" d="M 177.901042 166.197917 L 168.697917 172 " transform="matrix(0.75,0,0,0.75,0,0)"/>
<path style="fill:none;stroke-width:2;stroke-linecap:butt;stroke-linejoin:miter;stroke:rgb(0%,0%,100%);stroke-opacity:1;stroke-miterlimit:4;" d="M 168.697917 172 L 159.598958 177.802083 " transform="matrix(0.75,0,0,0.75,0,0)"/>
<path style="fill:none;stroke-width:2;stroke-linecap:butt;stroke-linejoin:miter;stroke:rgb(0%,0%,100%);stroke-opacity:1;stroke-miterlimit:4;" d="M 155.098958 186.697917 L 155.697917 200.598958 " transform="matrix(0.75,0,0,0.75,0,0)"/>
<path style="fill:none;stroke-width:2;stroke-linecap:butt;stroke-linejoin:miter;stroke:rgb(0%,0%,0%);stroke-opacity:1;stroke-miterlimit:4;" d="M 155.697917 200.598958 L 156.302083 214.5 " transform="matrix(0.75,0,0,0.75,0,0)"/>
<path style="fill:none;stroke-width:2;stroke-linecap:butt;stroke-linejoin:miter;stroke:rgb(0%,0%,100%);stroke-opacity:1;stroke-miterlimit:4;" d="M 160.098958 188.901042 L 160.598958 200.197917 " transform="matrix(0.75,0,0,0.75,0,0)"/>
<path style="fill:none;stroke-width:2;stroke-linecap:butt;stroke-linejoin:miter;stroke:rgb(0%,0%,0%);stroke-opacity:1;stroke-miterlimit:4;" d="M 160.598958 200.197917 L 161.098958 211.5 " transform="matrix(0.75,0,0,0.75,0,0)"/>
<path style="fill:none;stroke-width:2;stroke-linecap:butt;stroke-linejoin:miter;stroke:rgb(0%,0%,0%);stroke-opacity:1;stroke-miterlimit:4;" d="M 156.302083 214.5 L 186.197917 230.197917 " transform="matrix(0.75,0,0,0.75,0,0)"/>
<path style="fill:none;stroke-width:2;stroke-linecap:butt;stroke-linejoin:miter;stroke:rgb(0%,0%,0%);stroke-opacity:1;stroke-miterlimit:4;" d="M 186.302083 233 L 198.401042 225.302083 " transform="matrix(0.75,0,0,0.75,0,0)"/>
<path style="fill:none;stroke-width:2;stroke-linecap:butt;stroke-linejoin:miter;stroke:rgb(100%,0%,0%);stroke-opacity:1;stroke-miterlimit:4;" d="M 198.401042 225.302083 L 210.5 217.598958 " transform="matrix(0.75,0,0,0.75,0,0)"/>
<path style="fill:none;stroke-width:2;stroke-linecap:butt;stroke-linejoin:miter;stroke:rgb(0%,0%,0%);stroke-opacity:1;stroke-miterlimit:4;" d="M 183.697917 228.802083 L 195.802083 221.098958 " transform="matrix(0.75,0,0,0.75,0,0)"/>
<path style="fill:none;stroke-width:2;stroke-linecap:butt;stroke-linejoin:miter;stroke:rgb(100%,0%,0%);stroke-opacity:1;stroke-miterlimit:4;" d="M 195.802083 221.098958 L 207.901042 213.5 " transform="matrix(0.75,0,0,0.75,0,0)"/>
<path style="fill:none;stroke-width:2;stroke-linecap:butt;stroke-linejoin:miter;stroke:rgb(0%,0%,0%);stroke-opacity:1;stroke-miterlimit:4;" d="M 186.197917 230.197917 L 186.802083 244.098958 " transform="matrix(0.75,0,0,0.75,0,0)"/>
<path style="fill:none;stroke-width:2;stroke-linecap:butt;stroke-linejoin:miter;stroke:rgb(0%,0%,100%);stroke-opacity:1;stroke-miterlimit:4;" d="M 186.802083 244.098958 L 187.401042 258 " transform="matrix(0.75,0,0,0.75,0,0)"/>
<path style="fill-rule:evenodd;fill:rgb(0%,0%,0%);fill-opacity:1;stroke-width:0.5;stroke-linecap:butt;stroke-linejoin:miter;stroke:rgb(0%,0%,0%);stroke-opacity:1;stroke-miterlimit:4;" d="M 217.5 279.5 L 204.901042 274.302083 L 206 272.098958 Z M 217.5 279.5 " transform="matrix(0.75,0,0,0.75,0,0)"/>
<path style="fill-rule:evenodd;fill:rgb(0%,0%,100%);fill-opacity:1;stroke-width:0.5;stroke-linecap:butt;stroke-linejoin:miter;stroke:rgb(0%,0%,100%);stroke-opacity:1;stroke-miterlimit:4;" d="M 204.901042 274.302083 L 194.598958 264.697917 L 192.302083 269.098958 Z M 204.901042 274.302083 " transform="matrix(0.75,0,0,0.75,0,0)"/>
<path style="fill-rule:evenodd;fill:rgb(0%,0%,100%);fill-opacity:1;stroke-width:0.5;stroke-linecap:butt;stroke-linejoin:miter;stroke:rgb(0%,0%,100%);stroke-opacity:1;stroke-miterlimit:4;" d="M 204.901042 274.302083 L 206 272.098958 L 194.598958 264.697917 Z M 204.901042 274.302083 " transform="matrix(0.75,0,0,0.75,0,0)"/>
<path style="fill:none;stroke-width:2;stroke-linecap:butt;stroke-linejoin:miter;stroke:rgb(0%,0%,0%);stroke-opacity:1;stroke-miterlimit:4;" d="M 217.5 279.5 L 227.598958 311.697917 " transform="matrix(0.75,0,0,0.75,0,0)"/>
<path style="fill:none;stroke-width:2;stroke-linecap:butt;stroke-linejoin:miter;stroke:rgb(0%,0%,0%);stroke-opacity:1;stroke-miterlimit:4;" d="M 226.598958 308.401042 L 219.697917 321.5 " transform="matrix(0.75,0,0,0.75,0,0)"/>
<path style="fill:none;stroke-width:2;stroke-linecap:butt;stroke-linejoin:miter;stroke:rgb(100%,0%,0%);stroke-opacity:1;stroke-miterlimit:4;" d="M 219.697917 321.5 L 212.901042 334.598958 " transform="matrix(0.75,0,0,0.75,0,0)"/>
<path style="fill:none;stroke-width:2;stroke-linecap:butt;stroke-linejoin:miter;stroke:rgb(0%,0%,0%);stroke-opacity:1;stroke-miterlimit:4;" d="M 231 310.697917 L 224.098958 323.802083 " transform="matrix(0.75,0,0,0.75,0,0)"/>
<path style="fill:none;stroke-width:2;stroke-linecap:butt;stroke-linejoin:miter;stroke:rgb(100%,0%,0%);stroke-opacity:1;stroke-miterlimit:4;" d="M 224.098958 323.802083 L 217.302083 336.901042 " transform="matrix(0.75,0,0,0.75,0,0)"/>
<path style="fill:none;stroke-width:2;stroke-linecap:butt;stroke-linejoin:miter;stroke:rgb(0%,0%,0%);stroke-opacity:1;stroke-miterlimit:4;" d="M 227.598958 311.697917 L 241.401042 307.401042 " transform="matrix(0.75,0,0,0.75,0,0)"/>
<path style="fill:none;stroke-width:2;stroke-linecap:butt;stroke-linejoin:miter;stroke:rgb(0%,0%,100%);stroke-opacity:1;stroke-miterlimit:4;" d="M 241.401042 307.401042 L 255.098958 303.098958 " transform="matrix(0.75,0,0,0.75,0,0)"/>
<path style="fill:none;stroke-width:2;stroke-linecap:butt;stroke-linejoin:miter;stroke:rgb(0%,0%,100%);stroke-opacity:1;stroke-miterlimit:4;" d="M 264.598958 302.697917 L 278.697917 305.802083 " transform="matrix(0.75,0,0,0.75,0,0)"/>
<path style="fill:none;stroke-width:2;stroke-linecap:butt;stroke-linejoin:miter;stroke:rgb(0%,0%,0%);stroke-opacity:1;stroke-miterlimit:4;" d="M 278.697917 305.802083 L 292.802083 309 " transform="matrix(0.75,0,0,0.75,0,0)"/>
<path style="fill:none;stroke-width:2;stroke-linecap:butt;stroke-linejoin:miter;stroke:rgb(0%,0%,0%);stroke-opacity:1;stroke-miterlimit:4;" d="M 292.802083 309 L 302.901042 341.197917 " transform="matrix(0.75,0,0,0.75,0,0)"/>
<path style="fill:none;stroke-width:2;stroke-linecap:butt;stroke-linejoin:miter;stroke:rgb(0%,0%,0%);stroke-opacity:1;stroke-miterlimit:4;" d="M 301 343.302083 L 315.401042 346.5 " transform="matrix(0.75,0,0,0.75,0,0)"/>
<path style="fill:none;stroke-width:2;stroke-linecap:butt;stroke-linejoin:miter;stroke:rgb(100%,0%,0%);stroke-opacity:1;stroke-miterlimit:4;" d="M 315.401042 346.5 L 329.802083 349.697917 " transform="matrix(0.75,0,0,0.75,0,0)"/>
<path style="fill:none;stroke-width:2;stroke-linecap:butt;stroke-linejoin:miter;stroke:rgb(0%,0%,0%);stroke-opacity:1;stroke-miterlimit:4;" d="M 302 338.5 L 316.5 341.697917 " transform="matrix(0.75,0,0,0.75,0,0)"/>
<path style="fill:none;stroke-width:2;stroke-linecap:butt;stroke-linejoin:miter;stroke:rgb(100%,0%,0%);stroke-opacity:1;stroke-miterlimit:4;" d="M 316.5 341.697917 L 330.901042 344.901042 " transform="matrix(0.75,0,0,0.75,0,0)"/>
<path style="fill:none;stroke-width:2;stroke-linecap:butt;stroke-linejoin:miter;stroke:rgb(0%,0%,0%);stroke-opacity:1;stroke-miterlimit:4;" d="M 302.901042 341.197917 L 294.197917 350.598958 " transform="matrix(0.75,0,0,0.75,0,0)"/>
<path style="fill:none;stroke-width:2;stroke-linecap:butt;stroke-linejoin:miter;stroke:rgb(100%,0%,0%);stroke-opacity:1;stroke-miterlimit:4;" d="M 294.197917 350.598958 L 285.5 360.098958 " transform="matrix(0.75,0,0,0.75,0,0)"/>
<path style="fill:none;stroke-width:2;stroke-linecap:butt;stroke-linejoin:miter;stroke:rgb(0%,0%,0%);stroke-opacity:1;stroke-miterlimit:4;" d="M 292.802083 309 L 315.598958 284.098958 " transform="matrix(0.75,0,0,0.75,0,0)"/>
<path style="fill:none;stroke-width:2;stroke-linecap:butt;stroke-linejoin:miter;stroke:rgb(0%,0%,0%);stroke-opacity:1;stroke-miterlimit:4;" d="M 291.098958 303.5 L 310.098958 282.901042 " transform="matrix(0.75,0,0,0.75,0,0)"/>
<path style="fill:none;stroke-width:2;stroke-linecap:butt;stroke-linejoin:miter;stroke:rgb(0%,0%,0%);stroke-opacity:1;stroke-miterlimit:4;" d="M 315.598958 284.098958 L 348.598958 291.5 " transform="matrix(0.75,0,0,0.75,0,0)"/>
<path style="fill:none;stroke-width:2;stroke-linecap:butt;stroke-linejoin:miter;stroke:rgb(0%,0%,0%);stroke-opacity:1;stroke-miterlimit:4;" d="M 348.598958 291.5 L 357.598958 281.598958 " transform="matrix(0.75,0,0,0.75,0,0)"/>
<path style="fill:none;stroke-width:2;stroke-linecap:butt;stroke-linejoin:miter;stroke:rgb(0%,0%,100%);stroke-opacity:1;stroke-miterlimit:4;" d="M 357.598958 281.598958 L 366.697917 271.697917 " transform="matrix(0.75,0,0,0.75,0,0)"/>
<path style="fill:none;stroke-width:2;stroke-linecap:butt;stroke-linejoin:miter;stroke:rgb(0%,0%,100%);stroke-opacity:1;stroke-miterlimit:4;" d="M 369.598958 260.802083 L 365.401042 247.598958 " transform="matrix(0.75,0,0,0.75,0,0)"/>
<path style="fill:none;stroke-width:2;stroke-linecap:butt;stroke-linejoin:miter;stroke:rgb(0%,0%,0%);stroke-opacity:1;stroke-miterlimit:4;" d="M 365.401042 247.598958 L 361.302083 234.401042 " transform="matrix(0.75,0,0,0.75,0,0)"/>
<path style="fill:none;stroke-width:2;stroke-linecap:butt;stroke-linejoin:miter;stroke:rgb(0%,0%,0%);stroke-opacity:1;stroke-miterlimit:4;" d="M 361.302083 234.401042 L 384.197917 209.598958 " transform="matrix(0.75,0,0,0.75,0,0)"/>
<path style="fill:none;stroke-width:2;stroke-linecap:butt;stroke-linejoin:miter;stroke:rgb(0%,0%,0%);stroke-opacity:1;stroke-miterlimit:4;" d="M 384.197917 209.598958 L 417.098958 216.901042 " transform="matrix(0.75,0,0,0.75,0,0)"/>
<path style="fill:none;stroke-width:2;stroke-linecap:butt;stroke-linejoin:miter;stroke:rgb(0%,0%,0%);stroke-opacity:1;stroke-miterlimit:4;" d="M 417.098958 216.901042 L 439.901042 192.098958 " transform="matrix(0.75,0,0,0.75,0,0)"/>
<path style="fill:none;stroke-width:2;stroke-linecap:butt;stroke-linejoin:miter;stroke:rgb(0%,0%,0%);stroke-opacity:1;stroke-miterlimit:4;" d="M 439.901042 192.098958 L 435.802083 178.901042 " transform="matrix(0.75,0,0,0.75,0,0)"/>
<path style="fill:none;stroke-width:2;stroke-linecap:butt;stroke-linejoin:miter;stroke:rgb(0%,0%,100%);stroke-opacity:1;stroke-miterlimit:4;" d="M 435.802083 178.901042 L 431.697917 165.697917 " transform="matrix(0.75,0,0,0.75,0,0)"/>
<path style="fill:none;stroke-width:2;stroke-linecap:butt;stroke-linejoin:miter;stroke:rgb(0%,0%,0%);stroke-opacity:1;stroke-miterlimit:4;" d="M 438 194.197917 L 452.401042 197.401042 " transform="matrix(0.75,0,0,0.75,0,0)"/>
<path style="fill:none;stroke-width:2;stroke-linecap:butt;stroke-linejoin:miter;stroke:rgb(100%,0%,0%);stroke-opacity:1;stroke-miterlimit:4;" d="M 452.401042 197.401042 L 466.901042 200.598958 " transform="matrix(0.75,0,0,0.75,0,0)"/>
<path style="fill:none;stroke-width:2;stroke-linecap:butt;stroke-linejoin:miter;stroke:rgb(0%,0%,0%);stroke-opacity:1;stroke-miterlimit:4;" d="M 439.098958 189.302083 L 453.5 192.598958 " transform="matrix(0.75,0,0,0.75,0,0)"/>
<path style="fill:none;stroke-width:2;stroke-linecap:butt;stroke-linejoin:miter;stroke:rgb(100%,0%,0%);stroke-opacity:1;stroke-miterlimit:4;" d="M 453.5 192.598958 L 467.901042 195.802083 " transform="matrix(0.75,0,0,0.75,0,0)"/>
<path style="fill:none;stroke-width:2;stroke-linecap:butt;stroke-linejoin:miter;stroke:rgb(0%,0%,0%);stroke-opacity:1;stroke-miterlimit:4;" d="M 417.098958 216.901042 L 427.197917 249.098958 " transform="matrix(0.75,0,0,0.75,0,0)"/>
<path style="fill:none;stroke-width:2;stroke-linecap:butt;stroke-linejoin:miter;stroke:rgb(0%,0%,0%);stroke-opacity:1;stroke-miterlimit:4;" d="M 427.197917 249.098958 L 404.401042 274 " transform="matrix(0.75,0,0,0.75,0,0)"/>
<path style="fill:none;stroke-width:2;stroke-linecap:butt;stroke-linejoin:miter;stroke:rgb(0%,0%,0%);stroke-opacity:1;stroke-miterlimit:4;" d="M 417.098958 216.901042 L 410.197917 225.401042 " transform="matrix(0.75,0,0,0.75,0,0)"/>
<path style="fill:none;stroke-width:2;stroke-linecap:butt;stroke-linejoin:miter;stroke:rgb(0%,0%,0%);stroke-opacity:1;stroke-miterlimit:4;" d="M 400.598958 236.5 L 389.5 248.598958 " transform="matrix(0.75,0,0,0.75,0,0)"/>
<path style="fill:none;stroke-width:2;stroke-linecap:butt;stroke-linejoin:miter;stroke:rgb(0%,0%,0%);stroke-opacity:1;stroke-miterlimit:4;" d="M 315.598958 284.098958 L 305.5 251.901042 " transform="matrix(0.75,0,0,0.75,0,0)"/>
<path style="fill:none;stroke-width:2;stroke-linecap:butt;stroke-linejoin:miter;stroke:rgb(0%,0%,0%);stroke-opacity:1;stroke-miterlimit:4;" d="M 305.5 251.901042 L 291.098958 248.697917 " transform="matrix(0.75,0,0,0.75,0,0)"/>
<path style="fill:none;stroke-width:2;stroke-linecap:butt;stroke-linejoin:miter;stroke:rgb(80%,80%,0%);stroke-opacity:1;stroke-miterlimit:4;" d="M 291.098958 248.697917 L 276.697917 245.5 " transform="matrix(0.75,0,0,0.75,0,0)"/>
<path style="fill:none;stroke-width:2;stroke-linecap:butt;stroke-linejoin:miter;stroke:rgb(80%,80%,0%);stroke-opacity:1;stroke-miterlimit:4;" d="M 268.401042 249.098958 L 259.098958 259.197917 " transform="matrix(0.75,0,0,0.75,0,0)"/>
<path style="fill:none;stroke-width:2;stroke-linecap:butt;stroke-linejoin:miter;stroke:rgb(0%,0%,0%);stroke-opacity:1;stroke-miterlimit:4;" d="M 259.098958 259.197917 L 249.697917 269.401042 " transform="matrix(0.75,0,0,0.75,0,0)"/>
<path style="fill:none;stroke-width:2;stroke-linecap:butt;stroke-linejoin:miter;stroke:rgb(0%,0%,0%);stroke-opacity:1;stroke-miterlimit:4;" d="M 156.302083 214.5 L 127.802083 232.598958 " transform="matrix(0.75,0,0,0.75,0,0)"/>
<path style="fill:none;stroke-width:2;stroke-linecap:butt;stroke-linejoin:miter;stroke:rgb(0%,0%,0%);stroke-opacity:1;stroke-miterlimit:4;" d="M 127.802083 232.598958 L 126.901042 246.5 " transform="matrix(0.75,0,0,0.75,0,0)"/>
<path style="fill:none;stroke-width:2;stroke-linecap:butt;stroke-linejoin:miter;stroke:rgb(0%,0%,100%);stroke-opacity:1;stroke-miterlimit:4;" d="M 126.901042 246.5 L 126 260.401042 " transform="matrix(0.75,0,0,0.75,0,0)"/>
<path style="fill:none;stroke-width:2;stroke-linecap:butt;stroke-linejoin:miter;stroke:rgb(0%,0%,0%);stroke-opacity:1;stroke-miterlimit:4;" d="M 122.598958 235.901042 L 121.901042 248 " transform="matrix(0.75,0,0,0.75,0,0)"/>
<path style="fill:none;stroke-width:2;stroke-linecap:butt;stroke-linejoin:miter;stroke:rgb(0%,0%,100%);stroke-opacity:1;stroke-miterlimit:4;" d="M 121.901042 248 L 121.098958 260.098958 " transform="matrix(0.75,0,0,0.75,0,0)"/>
<path style="fill:none;stroke-width:2;stroke-linecap:butt;stroke-linejoin:miter;stroke:rgb(0%,0%,100%);stroke-opacity:1;stroke-miterlimit:4;" d="M 120.901042 267.5 L 109 270.598958 " transform="matrix(0.75,0,0,0.75,0,0)"/>
<path style="fill:none;stroke-width:2;stroke-linecap:butt;stroke-linejoin:miter;stroke:rgb(80%,80%,0%);stroke-opacity:1;stroke-miterlimit:4;" d="M 109 270.598958 L 97.098958 273.697917 " transform="matrix(0.75,0,0,0.75,0,0)"/>
<path style="fill:none;stroke-width:2;stroke-linecap:butt;stroke-linejoin:miter;stroke:rgb(80%,80%,0%);stroke-opacity:1;stroke-miterlimit:4;" d="M 89.197917 268.901042 L 82.098958 257.5 " transform="matrix(0.75,0,0,0.75,0,0)"/>
<path style="fill:none;stroke-width:2;stroke-linecap:butt;stroke-linejoin:miter;stroke:rgb(0%,0%,0%);stroke-opacity:1;stroke-miterlimit:4;" d="M 82.098958 257.5 L 74.901042 246.197917 " transform="matrix(0.75,0,0,0.75,0,0)"/>
<path style="fill:none;stroke-width:2;stroke-linecap:butt;stroke-linejoin:miter;stroke:rgb(0%,0%,0%);stroke-opacity:1;stroke-miterlimit:4;" d="M 74.901042 246.197917 L 60.401042 245.302083 " transform="matrix(0.75,0,0,0.75,0,0)"/>
<path style="fill:none;stroke-width:2;stroke-linecap:butt;stroke-linejoin:miter;stroke:rgb(0%,0%,100%);stroke-opacity:1;stroke-miterlimit:4;" d="M 60.401042 245.302083 L 45.901042 244.401042 " transform="matrix(0.75,0,0,0.75,0,0)"/>
<path style="fill:none;stroke-width:2;stroke-linecap:butt;stroke-linejoin:miter;stroke:rgb(0%,0%,0%);stroke-opacity:1;stroke-miterlimit:4;" d="M 74.901042 246.197917 L 83.302083 236.098958 " transform="matrix(0.75,0,0,0.75,0,0)"/>
<path style="fill:none;stroke-width:2;stroke-linecap:butt;stroke-linejoin:miter;stroke:rgb(0%,0%,100%);stroke-opacity:1;stroke-miterlimit:4;" d="M 83.302083 236.098958 L 91.697917 225.901042 " transform="matrix(0.75,0,0,0.75,0,0)"/>
<path style="fill:none;stroke-width:2;stroke-linecap:butt;stroke-linejoin:miter;stroke:rgb(0%,0%,0%);stroke-opacity:1;stroke-miterlimit:4;" d="M 81 246.598958 L 88.197917 237.802083 " transform="matrix(0.75,0,0,0.75,0,0)"/>
<path style="fill:none;stroke-width:2;stroke-linecap:butt;stroke-linejoin:miter;stroke:rgb(0%,0%,100%);stroke-opacity:1;stroke-miterlimit:4;" d="M 88.197917 237.802083 L 95.5 229.098958 " transform="matrix(0.75,0,0,0.75,0,0)"/>
<path style="fill:none;stroke-width:2;stroke-linecap:butt;stroke-linejoin:miter;stroke:rgb(0%,0%,0%);stroke-opacity:1;stroke-miterlimit:4;" d="M 249.697917 269.401042 L 217.5 279.5 " transform="matrix(0.75,0,0,0.75,0,0)"/>
<path style="fill:none;stroke-width:2;stroke-linecap:butt;stroke-linejoin:miter;stroke:rgb(0%,0%,100%);stroke-opacity:1;stroke-miterlimit:4;" d="M 101.098958 222.098958 L 114.401042 227.302083 " transform="matrix(0.75,0,0,0.75,0,0)"/>
<path style="fill:none;stroke-width:2;stroke-linecap:butt;stroke-linejoin:miter;stroke:rgb(0%,0%,0%);stroke-opacity:1;stroke-miterlimit:4;" d="M 114.401042 227.302083 L 127.802083 232.598958 " transform="matrix(0.75,0,0,0.75,0,0)"/>
<path style="fill:none;stroke-width:2;stroke-linecap:butt;stroke-linejoin:miter;stroke:rgb(0%,0%,0%);stroke-opacity:1;stroke-miterlimit:4;" d="M 249.697917 269.401042 L 253.901042 282.598958 " transform="matrix(0.75,0,0,0.75,0,0)"/>
<path style="fill:none;stroke-width:2;stroke-linecap:butt;stroke-linejoin:miter;stroke:rgb(0%,0%,100%);stroke-opacity:1;stroke-miterlimit:4;" d="M 253.901042 282.598958 L 258 295.802083 " transform="matrix(0.75,0,0,0.75,0,0)"/>
<path style="fill:none;stroke-width:2;stroke-linecap:butt;stroke-linejoin:miter;stroke:rgb(0%,0%,0%);stroke-opacity:1;stroke-miterlimit:4;" d="M 404.401042 274 L 390.197917 270.802083 " transform="matrix(0.75,0,0,0.75,0,0)"/>
<path style="fill:none;stroke-width:2;stroke-linecap:butt;stroke-linejoin:miter;stroke:rgb(0%,0%,100%);stroke-opacity:1;stroke-miterlimit:4;" d="M 390.197917 270.802083 L 376.098958 267.697917 " transform="matrix(0.75,0,0,0.75,0,0)"/>
<path style="fill:none;stroke-width:2;stroke-linecap:butt;stroke-linejoin:miter;stroke:rgb(0%,0%,0%);stroke-opacity:1;stroke-miterlimit:4;" d="M 380 258.401042 L 378.802083 259.5 " transform="matrix(0.75,0,0,0.75,0,0)"/>
<path style="fill:none;stroke-width:2;stroke-linecap:butt;stroke-linejoin:miter;stroke:rgb(0%,0%,100%);stroke-opacity:1;stroke-miterlimit:4;" d="M 378.802083 259.5 L 377.598958 260.697917 " transform="matrix(0.75,0,0,0.75,0,0)"/>
<path style="fill:none;stroke-width:1;stroke-linecap:butt;stroke-linejoin:miter;stroke:rgb(0%,0%,0%);stroke-opacity:1;stroke-miterlimit:4;" d="M 247.5 266.5 L 248.098958 266.098958 " transform="matrix(0.75,0,0,0.75,0,0)"/>
<path style="fill:none;stroke-width:1;stroke-linecap:butt;stroke-linejoin:miter;stroke:rgb(0%,0%,0%);stroke-opacity:1;stroke-miterlimit:4;" d="M 245.197917 263.598958 L 246.401042 262.901042 " transform="matrix(0.75,0,0,0.75,0,0)"/>
<path style="fill:none;stroke-width:1;stroke-linecap:butt;stroke-linejoin:miter;stroke:rgb(0%,0%,0%);stroke-opacity:1;stroke-miterlimit:4;" d="M 243 260.697917 L 244.802083 259.598958 " transform="matrix(0.75,0,0,0.75,0,0)"/>
<path style="fill:none;stroke-width:1;stroke-linecap:butt;stroke-linejoin:miter;stroke:rgb(0%,0%,0%);stroke-opacity:1;stroke-miterlimit:4;" d="M 240.697917 257.901042 L 243.098958 256.302083 " transform="matrix(0.75,0,0,0.75,0,0)"/>
<path style="fill:none;stroke-width:1;stroke-linecap:butt;stroke-linejoin:miter;stroke:rgb(0%,0%,0%);stroke-opacity:1;stroke-miterlimit:4;" d="M 238.5 255 L 241.5 253.098958 " transform="matrix(0.75,0,0,0.75,0,0)"/>
<path style="fill:none;stroke-width:1;stroke-linecap:butt;stroke-linejoin:miter;stroke:rgb(0%,0%,0%);stroke-opacity:1;stroke-miterlimit:4;" d="M 236.197917 252.098958 L 239.802083 249.802083 " transform="matrix(0.75,0,0,0.75,0,0)"/>
<path style="fill:none;stroke-width:1;stroke-linecap:butt;stroke-linejoin:miter;stroke:rgb(0%,0%,0%);stroke-opacity:1;stroke-miterlimit:4;" d="M 234 249.197917 L 238.098958 246.5 " transform="matrix(0.75,0,0,0.75,0,0)"/>
<path style="fill:none;stroke-width:2;stroke-linecap:butt;stroke-linejoin:miter;stroke:rgb(0%,0%,0%);stroke-opacity:1;stroke-miterlimit:4;" d="M 184.697917 229.401042 L 186.197917 230.197917 L 186.197917 230.901042 " transform="matrix(0.75,0,0,0.75,0,0)"/>
<path style="fill:none;stroke-width:2;stroke-linecap:butt;stroke-linejoin:miter;stroke:rgb(0%,0%,0%);stroke-opacity:1;stroke-miterlimit:4;" d="M 218 281.098958 L 217.5 279.5 L 219.098958 279 " transform="matrix(0.75,0,0,0.75,0,0)"/>
<path style="fill:none;stroke-width:2;stroke-linecap:butt;stroke-linejoin:miter;stroke:rgb(0%,0%,0%);stroke-opacity:1;stroke-miterlimit:4;" d="M 227.098958 310.098958 L 227.598958 311.697917 L 228.302083 311.5 " transform="matrix(0.75,0,0,0.75,0,0)"/>
<path style="fill:none;stroke-width:2;stroke-linecap:butt;stroke-linejoin:miter;stroke:rgb(0%,0%,0%);stroke-opacity:1;stroke-miterlimit:4;" d="M 302.401042 339.598958 L 302.901042 341.197917 L 302.5 341.697917 " transform="matrix(0.75,0,0,0.75,0,0)"/>
<path style="fill:none;stroke-width:2;stroke-linecap:butt;stroke-linejoin:miter;stroke:rgb(0%,0%,0%);stroke-opacity:1;stroke-miterlimit:4;" d="M 346.901042 291.098958 L 348.598958 291.5 L 349 291 " transform="matrix(0.75,0,0,0.75,0,0)"/>
<path style="fill:none;stroke-width:2;stroke-linecap:butt;stroke-linejoin:miter;stroke:rgb(0%,0%,0%);stroke-opacity:1;stroke-miterlimit:4;" d="M 361.5 235.098958 L 361.302083 234.401042 L 362.5 233.197917 " transform="matrix(0.75,0,0,0.75,0,0)"/>
<path style="fill:none;stroke-width:2;stroke-linecap:butt;stroke-linejoin:miter;stroke:rgb(0%,0%,0%);stroke-opacity:1;stroke-miterlimit:4;" d="M 383 210.802083 L 384.197917 209.598958 L 385.802083 209.901042 " transform="matrix(0.75,0,0,0.75,0,0)"/>
<path style="fill:none;stroke-width:2;stroke-linecap:butt;stroke-linejoin:miter;stroke:rgb(0%,0%,0%);stroke-opacity:1;stroke-miterlimit:4;" d="M 438.802083 193.302083 L 439.901042 192.098958 L 439.697917 191.401042 " transform="matrix(0.75,0,0,0.75,0,0)"/>
<path style="fill:none;stroke-width:2;stroke-linecap:butt;stroke-linejoin:miter;stroke:rgb(0%,0%,0%);stroke-opacity:1;stroke-miterlimit:4;" d="M 426.697917 247.5 L 427.197917 249.098958 L 426.098958 250.401042 " transform="matrix(0.75,0,0,0.75,0,0)"/>
<path style="fill:none;stroke-width:2;stroke-linecap:butt;stroke-linejoin:miter;stroke:rgb(0%,0%,0%);stroke-opacity:1;stroke-miterlimit:4;" d="M 405.5 272.697917 L 404.401042 274 L 403.697917 273.802083 " transform="matrix(0.75,0,0,0.75,0,0)"/>
<path style="fill:none;stroke-width:2;stroke-linecap:butt;stroke-linejoin:miter;stroke:rgb(0%,0%,0%);stroke-opacity:1;stroke-miterlimit:4;" d="M 306 253.5 L 305.5 251.901042 L 304.802083 251.697917 " transform="matrix(0.75,0,0,0.75,0,0)"/>
<path style=" stroke:none;fill-rule:nonzero;fill:rgb(100%,0%,0%);fill-opacity:1;" d="M 134.175781 122.023438 C 134.175781 120.875 134.476562 120 135.074219 119.398438 C 135.625 118.75 136.425781 118.425781 137.476562 118.425781 C 138.574219 118.425781 139.398438 118.75 139.949219 119.398438 C 140.5 120 140.773438 120.875 140.773438 122.023438 C 140.773438 123.226562 140.5 124.148438 139.949219 124.800781 C 139.351562 125.449219 138.523438 125.773438 137.476562 125.773438 C 136.425781 125.773438 135.625 125.449219 135.074219 124.800781 C 134.476562 124.148438 134.175781 123.226562 134.175781 122.023438 M 137.476562 124.949219 C 138.226562 124.949219 138.800781 124.699219 139.199219 124.199219 C 139.601562 123.75 139.800781 123.023438 139.800781 122.023438 C 139.800781 121.125 139.601562 120.425781 139.199219 119.925781 C 138.800781 119.476562 138.226562 119.25 137.476562 119.25 C 136.773438 119.25 136.226562 119.476562 135.824219 119.925781 C 135.425781 120.375 135.226562 121.074219 135.226562 122.023438 C 135.226562 123.023438 135.425781 123.75 135.824219 124.199219 C 136.226562 124.699219 136.773438 124.949219 137.476562 124.949219 "/>
<path style=" stroke:none;fill-rule:nonzero;fill:rgb(0%,0%,100%);fill-opacity:1;" d="M 114.523438 132 L 116.925781 135.824219 C 117.074219 136.074219 117.273438 136.425781 117.523438 136.875 C 117.773438 137.324219 117.898438 137.550781 117.898438 137.550781 L 117.898438 132 L 118.875 132 L 118.875 139.199219 L 117.898438 139.199219 L 115.351562 135 C 115.148438 134.699219 114.949219 134.375 114.75 134.023438 C 114.550781 133.625 114.425781 133.375 114.375 133.273438 L 114.375 139.199219 L 113.398438 139.199219 L 113.398438 132 L 114.523438 132 "/>
<path style=" stroke:none;fill-rule:nonzero;fill:rgb(100%,0%,0%);fill-opacity:1;" d="M 157.726562 159.074219 C 157.726562 157.925781 158 157.023438 158.550781 156.375 C 159.148438 155.726562 159.976562 155.398438 161.023438 155.398438 C 162.074219 155.398438 162.875 155.726562 163.425781 156.375 C 164.023438 157.023438 164.324219 157.925781 164.324219 159.074219 C 164.324219 160.226562 164.023438 161.125 163.425781 161.773438 C 162.875 162.425781 162.074219 162.75 161.023438 162.75 C 159.976562 162.75 159.148438 162.425781 158.550781 161.773438 C 158 161.125 157.726562 160.226562 157.726562 159.074219 M 161.023438 162 C 161.726562 162 162.273438 161.75 162.675781 161.25 C 163.074219 160.75 163.273438 160.023438 163.273438 159.074219 C 163.273438 158.125 163.074219 157.425781 162.675781 156.976562 C 162.273438 156.476562 161.726562 156.226562 161.023438 156.226562 C 160.273438 156.226562 159.699219 156.476562 159.300781 156.976562 C 158.898438 157.425781 158.699219 158.125 158.699219 159.074219 C 158.699219 160.023438 158.898438 160.75 159.300781 161.25 C 159.699219 161.75 160.273438 162 161.023438 162 "/>
<path style=" stroke:none;fill-rule:nonzero;fill:rgb(0%,0%,100%);fill-opacity:1;" d="M 130.949219 194.324219 L 131.925781 194.324219 L 131.925781 197.398438 L 135.601562 197.398438 L 135.601562 194.324219 L 136.574219 194.324219 L 136.574219 201.523438 L 135.601562 201.523438 L 135.601562 198.226562 L 131.925781 198.226562 L 131.925781 201.523438 L 130.949219 201.523438 L 130.949219 194.324219 "/>
<path style=" stroke:none;fill-rule:nonzero;fill:rgb(0%,0%,100%);fill-opacity:1;" d="M 139.125 194.324219 L 141.449219 198.148438 C 141.601562 198.398438 141.800781 198.75 142.050781 199.199219 C 142.300781 199.648438 142.449219 199.875 142.5 199.875 L 142.5 194.324219 L 143.398438 194.324219 L 143.398438 201.523438 L 142.425781 201.523438 L 139.949219 197.324219 C 139.75 197.023438 139.550781 196.675781 139.351562 196.273438 C 139.101562 195.925781 138.949219 195.699219 138.898438 195.601562 L 138.898438 201.523438 L 138 201.523438 L 138 194.324219 L 139.125 194.324219 "/>
<path style=" stroke:none;fill-rule:nonzero;fill:rgb(100%,0%,0%);fill-opacity:1;" d="M 155.699219 256.273438 C 155.699219 255.125 155.976562 254.226562 156.523438 253.574219 C 157.125 252.925781 157.949219 252.601562 159 252.601562 C 160.050781 252.601562 160.875 252.925781 161.476562 253.574219 C 162.023438 254.226562 162.300781 255.125 162.300781 256.273438 C 162.300781 257.425781 162 258.324219 161.398438 258.976562 C 160.851562 259.625 160.050781 259.949219 159 259.949219 C 157.949219 259.949219 157.125 259.625 156.523438 258.976562 C 155.976562 258.324219 155.699219 257.425781 155.699219 256.273438 M 159 259.125 C 159.75 259.125 160.300781 258.898438 160.648438 258.449219 C 161.050781 257.949219 161.25 257.226562 161.25 256.273438 C 161.25 255.324219 161.050781 254.601562 160.648438 254.101562 C 160.300781 253.648438 159.75 253.425781 159 253.425781 C 158.25 253.425781 157.675781 253.648438 157.273438 254.101562 C 156.925781 254.601562 156.75 255.324219 156.75 256.273438 C 156.75 257.226562 156.925781 257.949219 157.273438 258.449219 C 157.675781 258.898438 158.25 259.125 159 259.125 "/>
<path style=" stroke:none;fill-rule:nonzero;fill:rgb(0%,0%,100%);fill-opacity:1;" d="M 193.273438 222.601562 L 195.675781 226.425781 C 195.824219 226.675781 196.023438 227.023438 196.273438 227.476562 C 196.523438 227.925781 196.648438 228.175781 196.648438 228.226562 L 196.648438 222.601562 L 197.625 222.601562 L 197.625 229.800781 L 196.648438 229.800781 L 194.101562 225.675781 C 193.898438 225.324219 193.699219 224.976562 193.5 224.625 C 193.300781 224.226562 193.175781 223.976562 193.125 223.875 L 193.125 229.800781 L 192.148438 229.800781 L 192.148438 222.601562 L 193.273438 222.601562 "/>
<path style=" stroke:none;fill-rule:nonzero;fill:rgb(100%,0%,0%);fill-opacity:1;" d="M 248.550781 261.449219 C 248.550781 260.300781 248.851562 259.398438 249.449219 258.75 C 250 258.101562 250.800781 257.773438 251.851562 257.773438 C 252.949219 257.773438 253.773438 258.101562 254.324219 258.75 C 254.875 259.398438 255.148438 260.300781 255.148438 261.449219 C 255.148438 262.601562 254.875 263.5 254.324219 264.148438 C 253.726562 264.800781 252.898438 265.125 251.851562 265.125 C 250.800781 265.125 250 264.800781 249.449219 264.148438 C 248.851562 263.5 248.550781 262.601562 248.550781 261.449219 M 251.851562 264.300781 C 252.601562 264.300781 253.175781 264.074219 253.574219 263.625 C 253.976562 263.125 254.175781 262.398438 254.175781 261.449219 C 254.175781 260.5 253.976562 259.773438 253.574219 259.273438 C 253.175781 258.824219 252.601562 258.601562 251.851562 258.601562 C 251.148438 258.601562 250.601562 258.824219 250.199219 259.273438 C 249.800781 259.773438 249.601562 260.5 249.601562 261.449219 C 249.601562 262.398438 249.800781 263.125 250.199219 263.625 C 250.601562 264.074219 251.148438 264.300781 251.851562 264.300781 "/>
<path style=" stroke:none;fill-rule:nonzero;fill:rgb(100%,0%,0%);fill-opacity:1;" d="M 206.773438 274.574219 C 206.773438 273.425781 207.050781 272.523438 207.601562 271.875 C 208.148438 271.226562 208.949219 270.898438 210 270.898438 C 211.101562 270.898438 211.925781 271.226562 212.476562 271.875 C 213.023438 272.523438 213.300781 273.425781 213.300781 274.574219 C 213.300781 275.726562 213.023438 276.625 212.476562 277.273438 C 211.875 277.925781 211.050781 278.25 210 278.25 C 208.949219 278.25 208.148438 277.925781 207.601562 277.273438 C 207.050781 276.625 206.773438 275.726562 206.773438 274.574219 M 210 277.425781 C 210.75 277.425781 211.324219 277.199219 211.726562 276.75 C 212.125 276.25 212.324219 275.523438 212.324219 274.574219 C 212.324219 273.625 212.125 272.898438 211.726562 272.398438 C 211.324219 271.949219 210.75 271.726562 210 271.726562 C 209.300781 271.726562 208.75 271.949219 208.351562 272.398438 C 207.949219 272.898438 207.75 273.625 207.75 274.574219 C 207.75 275.523438 207.949219 276.25 208.351562 276.75 C 208.75 277.199219 209.300781 277.425781 210 277.425781 "/>
<path style=" stroke:none;fill-rule:nonzero;fill:rgb(100%,0%,0%);fill-opacity:1;" d="M 214.351562 272.101562 L 216.824219 272.101562 L 216.824219 272.625 L 214.351562 272.625 L 214.351562 272.101562 "/>
<path style=" stroke:none;fill-rule:nonzero;fill:rgb(0%,0%,100%);fill-opacity:1;" d="M 276.976562 196.351562 L 279.300781 200.175781 C 279.449219 200.425781 279.648438 200.773438 279.898438 201.226562 C 280.148438 201.675781 280.300781 201.925781 280.351562 201.976562 L 280.351562 196.351562 L 281.25 196.351562 L 281.25 203.550781 L 280.273438 203.550781 L 277.800781 199.425781 C 277.601562 199.074219 277.398438 198.726562 277.199219 198.375 C 277 197.976562 276.851562 197.726562 276.75 197.625 L 276.75 203.550781 L 275.851562 203.550781 L 275.851562 196.351562 L 276.976562 196.351562 "/>
<path style=" stroke:none;fill-rule:nonzero;fill:rgb(0%,0%,100%);fill-opacity:1;" d="M 282.601562 197.699219 L 283.875 197.699219 L 283.875 196.351562 L 284.476562 196.351562 L 284.476562 197.699219 L 285.75 197.699219 L 285.75 198.148438 L 284.476562 198.148438 L 284.476562 199.5 L 283.875 199.5 L 283.875 198.148438 L 282.601562 198.148438 L 282.601562 197.699219 "/>
<path style=" stroke:none;fill-rule:nonzero;fill:rgb(0%,0%,100%);fill-opacity:1;" d="M 320.773438 116.324219 L 323.175781 120.074219 C 323.324219 120.324219 323.523438 120.675781 323.773438 121.125 C 324.023438 121.574219 324.148438 121.824219 324.148438 121.875 L 324.148438 116.324219 L 325.125 116.324219 L 325.125 123.449219 L 324.148438 123.449219 L 321.601562 119.324219 C 321.398438 118.976562 321.199219 118.625 321 118.273438 C 320.800781 117.925781 320.675781 117.675781 320.625 117.523438 L 320.625 123.449219 L 319.648438 123.449219 L 319.648438 116.324219 L 320.773438 116.324219 "/>
<path style=" stroke:none;fill-rule:nonzero;fill:rgb(0%,0%,100%);fill-opacity:1;" d="M 326.476562 116.324219 L 327.449219 116.324219 L 327.449219 119.324219 L 331.125 119.324219 L 331.125 116.324219 L 332.101562 116.324219 L 332.101562 123.449219 L 331.125 123.449219 L 331.125 120.148438 L 327.449219 120.148438 L 327.449219 123.449219 L 326.476562 123.449219 L 326.476562 116.324219 "/>
<path style=" stroke:none;fill-rule:nonzero;fill:rgb(0%,0%,100%);fill-opacity:1;" d="M 333.449219 123.226562 C 333.601562 122.925781 333.800781 122.699219 334.050781 122.550781 C 334.351562 122.351562 334.675781 122.25 335.023438 122.25 C 335.523438 122.25 335.898438 122.375 336.148438 122.625 C 336.449219 122.925781 336.601562 123.300781 336.601562 123.75 C 336.601562 124.199219 336.425781 124.648438 336.074219 125.101562 C 335.726562 125.550781 335.199219 126.023438 334.5 126.523438 L 336.675781 126.523438 L 336.675781 127.050781 L 333.449219 127.050781 L 333.449219 126.601562 C 334.050781 126.199219 334.523438 125.824219 334.875 125.476562 C 335.226562 125.175781 335.476562 124.898438 335.625 124.648438 C 335.824219 124.351562 335.925781 124.050781 335.925781 123.75 C 335.925781 123.449219 335.851562 123.226562 335.699219 123.074219 C 335.550781 122.875 335.324219 122.773438 335.023438 122.773438 C 334.773438 122.773438 334.574219 122.824219 334.425781 122.925781 C 334.273438 123.023438 334.125 123.199219 333.976562 123.449219 L 333.449219 123.226562 "/>
<path style=" stroke:none;fill-rule:nonzero;fill:rgb(100%,0%,0%);fill-opacity:1;" d="M 351.375 149.550781 C 351.375 148.398438 351.648438 147.523438 352.199219 146.925781 C 352.800781 146.273438 353.625 145.949219 354.675781 145.949219 C 355.726562 145.949219 356.523438 146.273438 357.074219 146.925781 C 357.675781 147.523438 357.976562 148.398438 357.976562 149.550781 C 357.976562 150.75 357.675781 151.675781 357.074219 152.324219 C 356.523438 152.976562 355.726562 153.300781 354.675781 153.300781 C 353.625 153.300781 352.800781 152.976562 352.199219 152.324219 C 351.648438 151.675781 351.375 150.75 351.375 149.550781 M 354.675781 152.476562 C 355.375 152.476562 355.925781 152.226562 356.324219 151.726562 C 356.726562 151.273438 356.925781 150.550781 356.925781 149.550781 C 356.925781 148.648438 356.726562 147.949219 356.324219 147.449219 C 355.925781 147 355.375 146.773438 354.675781 146.773438 C 353.925781 146.773438 353.351562 147 352.949219 147.449219 C 352.550781 147.898438 352.351562 148.601562 352.351562 149.550781 C 352.351562 150.550781 352.550781 151.273438 352.949219 151.726562 C 353.351562 152.226562 353.925781 152.476562 354.675781 152.476562 "/>
<path style=" stroke:none;fill-rule:nonzero;fill:rgb(0%,0%,0%);fill-opacity:1;" d="M 301.273438 173.476562 C 301.273438 172.324219 301.550781 171.425781 302.101562 170.773438 C 302.699219 170.175781 303.523438 169.875 304.574219 169.875 C 305.574219 169.875 306.324219 170.226562 306.824219 170.925781 L 306.148438 171.449219 C 305.75 170.949219 305.226562 170.699219 304.574219 170.699219 C 303.824219 170.699219 303.273438 170.925781 302.925781 171.375 C 302.523438 171.875 302.324219 172.574219 302.324219 173.476562 C 302.324219 174.425781 302.523438 175.148438 302.925781 175.648438 C 303.324219 176.148438 303.898438 176.398438 304.648438 176.398438 C 305.199219 176.398438 305.773438 176.226562 306.375 175.875 L 306.675781 176.625 C 306.425781 176.824219 306.101562 176.976562 305.699219 177.074219 C 305.351562 177.175781 304.949219 177.226562 304.5 177.226562 C 303.5 177.226562 302.699219 176.898438 302.101562 176.25 C 301.550781 175.601562 301.273438 174.675781 301.273438 173.476562 "/>
<path style=" stroke:none;fill-rule:nonzero;fill:rgb(0%,0%,0%);fill-opacity:1;" d="M 285.824219 190.351562 C 285.824219 189.148438 286.101562 188.25 286.648438 187.648438 C 287.199219 187 288 186.675781 289.050781 186.675781 C 290.050781 186.675781 290.824219 187.023438 291.375 187.726562 L 290.699219 188.324219 C 290.300781 187.773438 289.75 187.5 289.050781 187.5 C 288.351562 187.5 287.800781 187.75 287.398438 188.25 C 287.050781 188.75 286.875 189.449219 286.875 190.351562 C 286.875 191.300781 287.050781 192.023438 287.398438 192.523438 C 287.800781 192.976562 288.398438 193.199219 289.199219 193.199219 C 289.699219 193.199219 290.273438 193.050781 290.925781 192.75 L 291.148438 193.5 C 290.898438 193.648438 290.601562 193.773438 290.25 193.875 C 289.851562 193.976562 289.449219 194.023438 289.050781 194.023438 C 288 194.023438 287.199219 193.726562 286.648438 193.125 C 286.101562 192.476562 285.824219 191.550781 285.824219 190.351562 "/>
<path style=" stroke:none;fill-rule:nonzero;fill:rgb(80%,80%,0%);fill-opacity:1;" d="M 202.425781 185.851562 C 202.476562 185.898438 202.601562 185.976562 202.800781 186.074219 C 203.050781 186.175781 203.300781 186.25 203.550781 186.300781 C 203.800781 186.351562 204.023438 186.375 204.226562 186.375 C 204.726562 186.375 205.101562 186.273438 205.351562 186.074219 C 205.601562 185.824219 205.726562 185.5 205.726562 185.101562 C 205.726562 184.851562 205.648438 184.648438 205.5 184.5 C 205.398438 184.351562 205.25 184.226562 205.050781 184.125 C 204.851562 184.023438 204.574219 183.925781 204.226562 183.824219 C 203.773438 183.726562 203.425781 183.601562 203.175781 183.449219 C 202.925781 183.351562 202.726562 183.175781 202.574219 182.925781 C 202.375 182.625 202.273438 182.273438 202.273438 181.875 C 202.273438 181.273438 202.476562 180.773438 202.875 180.375 C 203.273438 180.023438 203.898438 179.851562 204.75 179.851562 C 205.300781 179.851562 205.875 179.976562 206.476562 180.226562 L 206.25 181.050781 C 205.699219 180.800781 205.199219 180.675781 204.75 180.675781 C 204.300781 180.675781 203.949219 180.773438 203.699219 180.976562 C 203.449219 181.175781 203.324219 181.425781 203.324219 181.726562 C 203.324219 181.976562 203.375 182.175781 203.476562 182.324219 C 203.625 182.476562 203.800781 182.601562 204 182.699219 C 204.199219 182.800781 204.449219 182.898438 204.75 183 C 205.199219 183.148438 205.550781 183.273438 205.800781 183.375 C 206.050781 183.523438 206.273438 183.75 206.476562 184.050781 C 206.625 184.300781 206.699219 184.648438 206.699219 185.101562 C 206.699219 185.800781 206.5 186.324219 206.101562 186.675781 C 205.648438 187.023438 205.050781 187.199219 204.300781 187.199219 C 203.898438 187.199219 203.523438 187.148438 203.175781 187.050781 C 202.875 186.949219 202.523438 186.824219 202.125 186.675781 L 202.425781 185.851562 "/>
<path style=" stroke:none;fill-rule:nonzero;fill:rgb(0%,0%,100%);fill-opacity:1;" d="M 92.625 196.125 L 95.023438 199.949219 C 95.175781 200.199219 95.375 200.550781 95.625 201 C 95.875 201.449219 96 201.699219 96 201.75 L 96 196.125 L 96.976562 196.125 L 96.976562 203.324219 L 96 203.324219 L 93.449219 199.199219 C 93.25 198.851562 93.050781 198.5 92.851562 198.148438 C 92.648438 197.75 92.523438 197.5 92.476562 197.398438 L 92.476562 203.324219 L 91.5 203.324219 L 91.5 196.125 L 92.625 196.125 "/>
<path style=" stroke:none;fill-rule:nonzero;fill:rgb(80%,80%,0%);fill-opacity:1;" d="M 67.726562 208.5 C 67.773438 208.5 67.898438 208.550781 68.101562 208.648438 C 68.351562 208.75 68.574219 208.824219 68.773438 208.875 C 69.023438 208.925781 69.273438 208.949219 69.523438 208.949219 C 69.976562 208.949219 70.351562 208.851562 70.648438 208.648438 C 70.898438 208.449219 71.023438 208.148438 71.023438 207.75 C 71.023438 207.5 70.949219 207.300781 70.800781 207.148438 C 70.699219 206.949219 70.550781 206.824219 70.351562 206.773438 C 70.148438 206.675781 69.875 206.574219 69.523438 206.476562 C 69.074219 206.324219 68.726562 206.199219 68.476562 206.101562 C 68.226562 205.949219 68.023438 205.75 67.875 205.5 C 67.675781 205.25 67.574219 204.898438 67.574219 204.449219 C 67.574219 203.851562 67.773438 203.375 68.175781 203.023438 C 68.574219 202.675781 69.199219 202.5 70.050781 202.5 C 70.601562 202.5 71.175781 202.625 71.773438 202.875 L 71.550781 203.625 C 71 203.375 70.5 203.25 70.050781 203.25 C 69.601562 203.25 69.25 203.351562 69 203.550781 C 68.699219 203.75 68.574219 204.023438 68.625 204.375 C 68.625 204.625 68.675781 204.824219 68.773438 204.976562 C 68.925781 205.125 69.101562 205.25 69.300781 205.351562 C 69.449219 205.449219 69.699219 205.550781 70.050781 205.648438 C 70.5 205.75 70.851562 205.875 71.101562 206.023438 C 71.351562 206.175781 71.574219 206.375 71.773438 206.625 C 71.925781 206.925781 72 207.300781 72 207.75 C 72 208.398438 71.773438 208.898438 71.324219 209.25 C 70.925781 209.601562 70.351562 209.773438 69.601562 209.773438 C 69.148438 209.773438 68.773438 209.75 68.476562 209.699219 C 68.175781 209.601562 67.824219 209.476562 67.425781 209.324219 L 67.726562 208.5 "/>
<path style=" stroke:none;fill-rule:nonzero;fill:rgb(0%,0%,100%);fill-opacity:1;" d="M 17.023438 179.476562 L 18 179.476562 L 18 182.550781 L 21.675781 182.550781 L 21.675781 179.476562 L 22.648438 179.476562 L 22.648438 186.675781 L 21.675781 186.675781 L 21.675781 183.375 L 18 183.375 L 18 186.675781 L 17.023438 186.675781 L 17.023438 179.476562 "/>
<path style=" stroke:none;fill-rule:nonzero;fill:rgb(0%,0%,100%);fill-opacity:1;" d="M 24.074219 186.449219 C 24.175781 186.148438 24.375 185.898438 24.675781 185.699219 C 24.925781 185.550781 25.25 185.476562 25.648438 185.476562 C 26.101562 185.476562 26.476562 185.601562 26.773438 185.851562 C 27.023438 186.101562 27.148438 186.449219 27.148438 186.898438 C 27.148438 187.398438 26.976562 187.875 26.625 188.324219 C 26.273438 188.726562 25.75 189.199219 25.050781 189.75 L 27.226562 189.75 L 27.226562 190.273438 L 24.074219 190.273438 L 24.074219 189.824219 C 24.625 189.375 25.074219 189 25.425781 188.699219 C 25.773438 188.398438 26.050781 188.101562 26.25 187.800781 C 26.398438 187.550781 26.476562 187.273438 26.476562 186.976562 C 26.476562 186.675781 26.398438 186.425781 26.25 186.226562 C 26.101562 186.074219 25.898438 186 25.648438 186 C 25.398438 186 25.175781 186.050781 24.976562 186.148438 C 24.824219 186.25 24.699219 186.425781 24.601562 186.675781 L 24.074219 186.449219 "/>
<path style=" stroke:none;fill-rule:nonzero;fill:rgb(0%,0%,100%);fill-opacity:1;" d="M 29.324219 179.476562 L 31.648438 183.300781 C 31.800781 183.550781 32 183.898438 32.25 184.351562 C 32.5 184.800781 32.625 185.050781 32.625 185.101562 L 32.625 179.476562 L 33.601562 179.476562 L 33.601562 186.675781 L 32.625 186.675781 L 30.074219 182.550781 C 29.875 182.199219 29.675781 181.851562 29.476562 181.5 C 29.273438 181.101562 29.148438 180.851562 29.101562 180.75 L 29.101562 186.675781 L 28.199219 186.675781 L 28.199219 179.476562 L 29.324219 179.476562 "/>
<path style=" stroke:none;fill-rule:nonzero;fill:rgb(0%,0%,100%);fill-opacity:1;" d="M 70.726562 161.550781 L 73.050781 165.375 C 73.199219 165.625 73.398438 165.976562 73.648438 166.425781 C 73.898438 166.875 74.023438 167.125 74.023438 167.175781 L 74.023438 161.550781 L 75 161.550781 L 75 168.75 L 74.023438 168.75 L 71.476562 164.625 C 71.273438 164.273438 71.074219 163.925781 70.875 163.574219 C 70.675781 163.175781 70.550781 162.925781 70.5 162.824219 L 70.5 168.75 L 69.601562 168.75 L 69.601562 161.550781 L 70.726562 161.550781 "/>
<path style=" stroke:none;fill-rule:nonzero;fill:rgb(0%,0%,0%);fill-opacity:1;" d="M 170.925781 177.074219 L 171.898438 177.074219 L 171.898438 180.148438 L 175.574219 180.148438 L 175.574219 177.074219 L 176.550781 177.074219 L 176.550781 184.273438 L 175.574219 184.273438 L 175.574219 180.976562 L 171.898438 180.976562 L 171.898438 184.273438 L 170.925781 184.273438 L 170.925781 177.074219 "/>
</g>
</svg>
