<?xml version="1.0" encoding="UTF-8"?>
<svg xmlns="http://www.w3.org/2000/svg" xmlns:xlink="http://www.w3.org/1999/xlink" width="375pt" height="375pt" viewBox="0 0 375 375" version="1.1">
<g id="surface236">
<rect x="0" y="0" width="375" height="375" style="fill:rgb(100%,100%,100%);fill-opacity:1;stroke:none;"/>
<path style="fill:none;stroke-width:2;stroke-linecap:butt;stroke-linejoin:miter;stroke:rgb(0%,0%,0%);stroke-opacity:1;stroke-miterlimit:4;" d="M 73 158.697917 L 80.302083 172.598958 " transform="matrix(0.75,0,0,0.75,0,0)"/>
<path style="fill:none;stroke-width:2;stroke-linecap:butt;stroke-linejoin:miter;stroke:rgb(100%,0%,0%);stroke-opacity:1;stroke-miterlimit:4;" d="M 80.302083 172.598958 L 87.598958 186.5 " transform="matrix(0.75,0,0,0.75,0,0)"/>
<path style="fill:none;stroke-width:2;stroke-linecap:butt;stroke-linejoin:miter;stroke:rgb(100%,0%,0%);stroke-opacity:1;stroke-miterlimit:4;" d="M 97.598958 193.697917 L 111.302083 194.197917 " transform="matrix(0.75,0,0,0.75,0,0)"/>
<path style="fill:none;stroke-width:2;stroke-linecap:butt;stroke-linejoin:miter;stroke:rgb(0%,0%,100%);stroke-opacity:1;stroke-miterlimit:4;" d="M 111.302083 194.197917 L 124.901042 194.802083 " transform="matrix(0.75,0,0,0.75,0,0)"/>
<path style="fill:none;stroke-width:2;stroke-linecap:butt;stroke-linejoin:miter;stroke:rgb(0%,0%,100%);stroke-opacity:1;stroke-miterlimit:4;" d="M 134 201.802083 L 141.302083 215.802083 " transform="matrix(0.75,0,0,0.75,0,0)"/>
<path style="fill:none;stroke-width:2;stroke-linecap:butt;stroke-linejoin:miter;stroke:rgb(0%,0%,0%);stroke-opacity:1;stroke-miterlimit:4;" d="M 141.302083 215.802083 L 148.697917 229.697917 " transform="matrix(0.75,0,0,0.75,0,0)"/>
<path style="fill:none;stroke-width:2;stroke-linecap:butt;stroke-linejoin:miter;stroke:rgb(0%,0%,100%);stroke-opacity:1;stroke-miterlimit:4;" d="M 129.302083 209.697917 L 134.401042 219.401042 " transform="matrix(0.75,0,0,0.75,0,0)"/>
<path style="fill:none;stroke-width:2;stroke-linecap:butt;stroke-linejoin:miter;stroke:rgb(0%,0%,0%);stroke-opacity:1;stroke-miterlimit:4;" d="M 134.401042 219.401042 L 139.5 229.197917 " transform="matrix(0.75,0,0,0.75,0,0)"/>
<path style="fill:none;stroke-width:2;stroke-linecap:butt;stroke-linejoin:miter;stroke:rgb(0%,0%,0%);stroke-opacity:1;stroke-miterlimit:4;" d="M 148.697917 229.697917 L 187.802083 231.197917 " transform="matrix(0.75,0,0,0.75,0,0)"/>
<path style="fill:none;stroke-width:2;stroke-linecap:butt;stroke-linejoin:miter;stroke:rgb(0%,0%,0%);stroke-opacity:1;stroke-miterlimit:4;" d="M 184.5 229.197917 L 192.802083 216.098958 " transform="matrix(0.75,0,0,0.75,0,0)"/>
<path style="fill:none;stroke-width:2;stroke-linecap:butt;stroke-linejoin:miter;stroke:rgb(100%,0%,0%);stroke-opacity:1;stroke-miterlimit:4;" d="M 192.802083 216.098958 L 201 203.098958 " transform="matrix(0.75,0,0,0.75,0,0)"/>
<path style="fill:none;stroke-width:2;stroke-linecap:butt;stroke-linejoin:miter;stroke:rgb(0%,0%,0%);stroke-opacity:1;stroke-miterlimit:4;" d="M 191.197917 233.302083 L 199.401042 220.302083 " transform="matrix(0.75,0,0,0.75,0,0)"/>
<path style="fill:none;stroke-width:2;stroke-linecap:butt;stroke-linejoin:miter;stroke:rgb(100%,0%,0%);stroke-opacity:1;stroke-miterlimit:4;" d="M 199.401042 220.302083 L 207.598958 207.302083 " transform="matrix(0.75,0,0,0.75,0,0)"/>
<path style="fill:none;stroke-width:2;stroke-linecap:butt;stroke-linejoin:miter;stroke:rgb(0%,0%,0%);stroke-opacity:1;stroke-miterlimit:4;" d="M 187.802083 231.197917 L 195.197917 245.197917 " transform="matrix(0.75,0,0,0.75,0,0)"/>
<path style="fill:none;stroke-width:2;stroke-linecap:butt;stroke-linejoin:miter;stroke:rgb(0%,0%,100%);stroke-opacity:1;stroke-miterlimit:4;" d="M 195.197917 245.197917 L 202.5 259.098958 " transform="matrix(0.75,0,0,0.75,0,0)"/>
<path style="fill-rule:evenodd;fill:rgb(0%,0%,0%);fill-opacity:1;stroke-width:1;stroke-linecap:butt;stroke-linejoin:miter;stroke:rgb(0%,0%,0%);stroke-opacity:1;stroke-miterlimit:4;" d="M 245.302083 267.5 L 229 268.802083 L 229.098958 264.901042 Z M 245.302083 267.5 " transform="matrix(0.75,0,0,0.75,0,0)"/>
<path style="fill-rule:evenodd;fill:rgb(0%,0%,100%);fill-opacity:1;stroke-width:1;stroke-linecap:butt;stroke-linejoin:miter;stroke:rgb(0%,0%,100%);stroke-opacity:1;stroke-miterlimit:4;" d="M 229 268.802083 L 213 262.302083 L 212.697917 270.098958 Z M 229 268.802083 " transform="matrix(0.75,0,0,0.75,0,0)"/>
<path style="fill-rule:evenodd;fill:rgb(0%,0%,100%);fill-opacity:1;stroke-width:1;stroke-linecap:butt;stroke-linejoin:miter;stroke:rgb(0%,0%,100%);stroke-opacity:1;stroke-miterlimit:4;" d="M 229 268.802083 L 229.098958 264.901042 L 213 262.302083 Z M 229 268.802083 " transform="matrix(0.75,0,0,0.75,0,0)"/>
<path style="fill:none;stroke-width:2;stroke-linecap:butt;stroke-linejoin:miter;stroke:rgb(0%,0%,0%);stroke-opacity:1;stroke-miterlimit:4;" d="M 245.302083 267.5 L 271.901042 296.302083 " transform="matrix(0.75,0,0,0.75,0,0)"/>
<path style="fill:none;stroke-width:2;stroke-linecap:butt;stroke-linejoin:miter;stroke:rgb(0%,0%,0%);stroke-opacity:1;stroke-miterlimit:4;" d="M 275.802083 296.5 L 275.098958 312.598958 " transform="matrix(0.75,0,0,0.75,0,0)"/>
<path style="fill:none;stroke-width:2;stroke-linecap:butt;stroke-linejoin:miter;stroke:rgb(100%,0%,0%);stroke-opacity:1;stroke-miterlimit:4;" d="M 275.098958 312.598958 L 274.5 328.697917 " transform="matrix(0.75,0,0,0.75,0,0)"/>
<path style="fill:none;stroke-width:2;stroke-linecap:butt;stroke-linejoin:miter;stroke:rgb(0%,0%,0%);stroke-opacity:1;stroke-miterlimit:4;" d="M 267.901042 296.098958 L 267.302083 312.302083 " transform="matrix(0.75,0,0,0.75,0,0)"/>
<path style="fill:none;stroke-width:2;stroke-linecap:butt;stroke-linejoin:miter;stroke:rgb(100%,0%,0%);stroke-opacity:1;stroke-miterlimit:4;" d="M 267.302083 312.302083 L 266.697917 328.401042 " transform="matrix(0.75,0,0,0.75,0,0)"/>
<path style="fill:none;stroke-width:2;stroke-linecap:butt;stroke-linejoin:miter;stroke:rgb(0%,0%,0%);stroke-opacity:1;stroke-miterlimit:4;" d="M 271.901042 296.302083 L 283.5 285.5 " transform="matrix(0.75,0,0,0.75,0,0)"/>
<path style="fill:none;stroke-width:2;stroke-linecap:butt;stroke-linejoin:miter;stroke:rgb(0%,0%,100%);stroke-opacity:1;stroke-miterlimit:4;" d="M 283.5 285.5 L 295.197917 274.802083 " transform="matrix(0.75,0,0,0.75,0,0)"/>
<path style="fill:none;stroke-width:2;stroke-linecap:butt;stroke-linejoin:miter;stroke:rgb(0%,0%,100%);stroke-opacity:1;stroke-miterlimit:4;" d="M 306.197917 268.5 L 322.5 264.802083 " transform="matrix(0.75,0,0,0.75,0,0)"/>
<path style="fill:none;stroke-width:2;stroke-linecap:butt;stroke-linejoin:miter;stroke:rgb(0%,0%,0%);stroke-opacity:1;stroke-miterlimit:4;" d="M 322.5 264.802083 L 338.901042 261.098958 " transform="matrix(0.75,0,0,0.75,0,0)"/>
<path style="fill:none;stroke-width:2;stroke-linecap:butt;stroke-linejoin:miter;stroke:rgb(0%,0%,0%);stroke-opacity:1;stroke-miterlimit:4;" d="M 338.901042 261.098958 L 365.5 289.901042 " transform="matrix(0.75,0,0,0.75,0,0)"/>
<path style="fill:none;stroke-width:2;stroke-linecap:butt;stroke-linejoin:miter;stroke:rgb(0%,0%,0%);stroke-opacity:1;stroke-miterlimit:4;" d="M 364.598958 286 L 380.598958 282.401042 " transform="matrix(0.75,0,0,0.75,0,0)"/>
<path style="fill:none;stroke-width:2;stroke-linecap:butt;stroke-linejoin:miter;stroke:rgb(100%,0%,0%);stroke-opacity:1;stroke-miterlimit:4;" d="M 380.598958 282.401042 L 396.5 278.802083 " transform="matrix(0.75,0,0,0.75,0,0)"/>
<path style="fill:none;stroke-width:2;stroke-linecap:butt;stroke-linejoin:miter;stroke:rgb(0%,0%,0%);stroke-opacity:1;stroke-miterlimit:4;" d="M 366.401042 293.697917 L 382.302083 290.098958 " transform="matrix(0.75,0,0,0.75,0,0)"/>
<path style="fill:none;stroke-width:2;stroke-linecap:butt;stroke-linejoin:miter;stroke:rgb(100%,0%,0%);stroke-opacity:1;stroke-miterlimit:4;" d="M 382.302083 290.098958 L 398.197917 286.5 " transform="matrix(0.75,0,0,0.75,0,0)"/>
<path style="fill:none;stroke-width:2;stroke-linecap:butt;stroke-linejoin:miter;stroke:rgb(0%,0%,0%);stroke-opacity:1;stroke-miterlimit:4;" d="M 365.5 289.901042 L 360.802083 305.098958 " transform="matrix(0.75,0,0,0.75,0,0)"/>
<path style="fill:none;stroke-width:2;stroke-linecap:butt;stroke-linejoin:miter;stroke:rgb(100%,0%,0%);stroke-opacity:1;stroke-miterlimit:4;" d="M 360.802083 305.098958 L 356 320.401042 " transform="matrix(0.75,0,0,0.75,0,0)"/>
<path style="fill:none;stroke-width:2;stroke-linecap:butt;stroke-linejoin:miter;stroke:rgb(0%,0%,0%);stroke-opacity:1;stroke-miterlimit:4;" d="M 338.901042 261.098958 L 350.5 223.598958 " transform="matrix(0.75,0,0,0.75,0,0)"/>
<path style="fill:none;stroke-width:2;stroke-linecap:butt;stroke-linejoin:miter;stroke:rgb(0%,0%,0%);stroke-opacity:1;stroke-miterlimit:4;" d="M 333.197917 253.098958 L 341.302083 226.901042 " transform="matrix(0.75,0,0,0.75,0,0)"/>
<path style="fill:none;stroke-width:2;stroke-linecap:butt;stroke-linejoin:miter;stroke:rgb(0%,0%,0%);stroke-opacity:1;stroke-miterlimit:4;" d="M 350.5 223.598958 L 388.802083 215 " transform="matrix(0.75,0,0,0.75,0,0)"/>
<path style="fill:none;stroke-width:2;stroke-linecap:butt;stroke-linejoin:miter;stroke:rgb(0%,0%,0%);stroke-opacity:1;stroke-miterlimit:4;" d="M 388.802083 215 L 399.302083 226.401042 " transform="matrix(0.75,0,0,0.75,0,0)"/>
<path style="fill:none;stroke-width:2;stroke-linecap:butt;stroke-linejoin:miter;stroke:rgb(0%,0%,100%);stroke-opacity:1;stroke-miterlimit:4;" d="M 399.302083 226.401042 L 409.901042 237.802083 " transform="matrix(0.75,0,0,0.75,0,0)"/>
<path style="fill:none;stroke-width:2;stroke-linecap:butt;stroke-linejoin:miter;stroke:rgb(0%,0%,100%);stroke-opacity:1;stroke-miterlimit:4;" d="M 409.901042 247.901042 L 396.901042 257.598958 " transform="matrix(0.75,0,0,0.75,0,0)"/>
<path style="fill:none;stroke-width:2;stroke-linecap:butt;stroke-linejoin:miter;stroke:rgb(0%,0%,0%);stroke-opacity:1;stroke-miterlimit:4;" d="M 396.901042 257.598958 L 384 267.197917 " transform="matrix(0.75,0,0,0.75,0,0)"/>
<path style="fill:none;stroke-width:2;stroke-linecap:butt;stroke-linejoin:miter;stroke:rgb(0%,0%,100%);stroke-opacity:1;stroke-miterlimit:4;" d="M 419.5 250.598958 L 427.401042 264.098958 " transform="matrix(0.75,0,0,0.75,0,0)"/>
<path style="fill:none;stroke-width:2;stroke-linecap:butt;stroke-linejoin:miter;stroke:rgb(0%,0%,0%);stroke-opacity:1;stroke-miterlimit:4;" d="M 427.401042 264.098958 L 435.401042 277.5 " transform="matrix(0.75,0,0,0.75,0,0)"/>
<path style="fill:none;stroke-width:2;stroke-linecap:butt;stroke-linejoin:miter;stroke:rgb(0%,0%,0%);stroke-opacity:1;stroke-miterlimit:4;" d="M 435.401042 277.5 L 473.697917 268.802083 " transform="matrix(0.75,0,0,0.75,0,0)"/>
<path style="fill:none;stroke-width:2;stroke-linecap:butt;stroke-linejoin:miter;stroke:rgb(0%,0%,0%);stroke-opacity:1;stroke-miterlimit:4;" d="M 473.697917 268.802083 L 477.302083 229.802083 " transform="matrix(0.75,0,0,0.75,0,0)"/>
<path style="fill:none;stroke-width:2;stroke-linecap:butt;stroke-linejoin:miter;stroke:rgb(0%,0%,0%);stroke-opacity:1;stroke-miterlimit:4;" d="M 477.302083 229.802083 L 441.302083 214.302083 " transform="matrix(0.75,0,0,0.75,0,0)"/>
<path style="fill:none;stroke-width:2;stroke-linecap:butt;stroke-linejoin:miter;stroke:rgb(0%,0%,0%);stroke-opacity:1;stroke-miterlimit:4;" d="M 350.5 223.598958 L 323.901042 194.802083 " transform="matrix(0.75,0,0,0.75,0,0)"/>
<path style="fill:none;stroke-width:2;stroke-linecap:butt;stroke-linejoin:miter;stroke:rgb(0%,0%,0%);stroke-opacity:1;stroke-miterlimit:4;" d="M 323.901042 194.802083 L 307.197917 198.598958 " transform="matrix(0.75,0,0,0.75,0,0)"/>
<path style="fill:none;stroke-width:2;stroke-linecap:butt;stroke-linejoin:miter;stroke:rgb(80%,80%,0%);stroke-opacity:1;stroke-miterlimit:4;" d="M 307.197917 198.598958 L 290.598958 202.401042 " transform="matrix(0.75,0,0,0.75,0,0)"/>
<path style="fill:none;stroke-width:2;stroke-linecap:butt;stroke-linejoin:miter;stroke:rgb(80%,80%,0%);stroke-opacity:1;stroke-miterlimit:4;" d="M 283.5 210.598958 L 278.802083 225.697917 " transform="matrix(0.75,0,0,0.75,0,0)"/>
<path style="fill:none;stroke-width:2;stroke-linecap:butt;stroke-linejoin:miter;stroke:rgb(0%,0%,0%);stroke-opacity:1;stroke-miterlimit:4;" d="M 278.802083 225.697917 L 274.098958 240.901042 " transform="matrix(0.75,0,0,0.75,0,0)"/>
<path style="fill:none;stroke-width:2;stroke-linecap:butt;stroke-linejoin:miter;stroke:rgb(0%,0%,0%);stroke-opacity:1;stroke-miterlimit:4;" d="M 148.697917 229.697917 L 127.697917 262.802083 " transform="matrix(0.75,0,0,0.75,0,0)"/>
<path style="fill:none;stroke-width:2;stroke-linecap:butt;stroke-linejoin:miter;stroke:rgb(0%,0%,0%);stroke-opacity:1;stroke-miterlimit:4;" d="M 127.697917 262.802083 L 142.197917 299.302083 " transform="matrix(0.75,0,0,0.75,0,0)"/>
<path style="fill:none;stroke-width:2;stroke-linecap:butt;stroke-linejoin:miter;stroke:rgb(0%,0%,0%);stroke-opacity:1;stroke-miterlimit:4;" d="M 122.598958 271.197917 L 132.802083 296.697917 " transform="matrix(0.75,0,0,0.75,0,0)"/>
<path style="fill:none;stroke-width:2;stroke-linecap:butt;stroke-linejoin:miter;stroke:rgb(0%,0%,0%);stroke-opacity:1;stroke-miterlimit:4;" d="M 142.197917 299.302083 L 129.598958 309.802083 " transform="matrix(0.75,0,0,0.75,0,0)"/>
<path style="fill:none;stroke-width:2;stroke-linecap:butt;stroke-linejoin:miter;stroke:rgb(80%,80%,0%);stroke-opacity:1;stroke-miterlimit:4;" d="M 129.598958 309.802083 L 116.901042 320.302083 " transform="matrix(0.75,0,0,0.75,0,0)"/>
<path style="fill:none;stroke-width:2;stroke-linecap:butt;stroke-linejoin:miter;stroke:rgb(80%,80%,0%);stroke-opacity:1;stroke-miterlimit:4;" d="M 107.197917 321.302083 L 93.098958 312.302083 " transform="matrix(0.75,0,0,0.75,0,0)"/>
<path style="fill:none;stroke-width:2;stroke-linecap:butt;stroke-linejoin:miter;stroke:rgb(0%,0%,0%);stroke-opacity:1;stroke-miterlimit:4;" d="M 93.098958 312.302083 L 78.901042 303.401042 " transform="matrix(0.75,0,0,0.75,0,0)"/>
<path style="fill:none;stroke-width:2;stroke-linecap:butt;stroke-linejoin:miter;stroke:rgb(0%,0%,0%);stroke-opacity:1;stroke-miterlimit:4;" d="M 78.901042 303.401042 L 63.5 309.598958 " transform="matrix(0.75,0,0,0.75,0,0)"/>
<path style="fill:none;stroke-width:2;stroke-linecap:butt;stroke-linejoin:miter;stroke:rgb(0%,0%,100%);stroke-opacity:1;stroke-miterlimit:4;" d="M 63.5 309.598958 L 48 315.697917 " transform="matrix(0.75,0,0,0.75,0,0)"/>
<path style="fill:none;stroke-width:2;stroke-linecap:butt;stroke-linejoin:miter;stroke:rgb(0%,0%,0%);stroke-opacity:1;stroke-miterlimit:4;" d="M 78.901042 303.401042 L 82.901042 287.802083 " transform="matrix(0.75,0,0,0.75,0,0)"/>
<path style="fill:none;stroke-width:2;stroke-linecap:butt;stroke-linejoin:miter;stroke:rgb(0%,0%,100%);stroke-opacity:1;stroke-miterlimit:4;" d="M 82.901042 287.802083 L 86.901042 272.197917 " transform="matrix(0.75,0,0,0.75,0,0)"/>
<path style="fill:none;stroke-width:2;stroke-linecap:butt;stroke-linejoin:miter;stroke:rgb(0%,0%,0%);stroke-opacity:1;stroke-miterlimit:4;" d="M 87.697917 300.697917 L 90.5 289.697917 " transform="matrix(0.75,0,0,0.75,0,0)"/>
<path style="fill:none;stroke-width:2;stroke-linecap:butt;stroke-linejoin:miter;stroke:rgb(0%,0%,100%);stroke-opacity:1;stroke-miterlimit:4;" d="M 90.5 289.697917 L 93.302083 278.802083 " transform="matrix(0.75,0,0,0.75,0,0)"/>
<path style="fill:none;stroke-width:2;stroke-linecap:butt;stroke-linejoin:miter;stroke:rgb(0%,0%,0%);stroke-opacity:1;stroke-miterlimit:4;" d="M 274.098958 240.901042 L 245.302083 267.5 " transform="matrix(0.75,0,0,0.75,0,0)"/>
<path style="fill:none;stroke-width:2;stroke-linecap:butt;stroke-linejoin:miter;stroke:rgb(0%,0%,100%);stroke-opacity:1;stroke-miterlimit:4;" d="M 94.098958 265 L 110.901042 263.901042 " transform="matrix(0.75,0,0,0.75,0,0)"/>
<path style="fill:none;stroke-width:2;stroke-linecap:butt;stroke-linejoin:miter;stroke:rgb(0%,0%,0%);stroke-opacity:1;stroke-miterlimit:4;" d="M 110.901042 263.901042 L 127.697917 262.802083 " transform="matrix(0.75,0,0,0.75,0,0)"/>
<path style="fill:none;stroke-width:2;stroke-linecap:butt;stroke-linejoin:miter;stroke:rgb(0%,0%,0%);stroke-opacity:1;stroke-miterlimit:4;" d="M 274.098958 240.901042 L 284.598958 252.302083 " transform="matrix(0.75,0,0,0.75,0,0)"/>
<path style="fill:none;stroke-width:2;stroke-linecap:butt;stroke-linejoin:miter;stroke:rgb(0%,0%,100%);stroke-opacity:1;stroke-miterlimit:4;" d="M 284.598958 252.302083 L 295.197917 263.697917 " transform="matrix(0.75,0,0,0.75,0,0)"/>
<path style="fill:none;stroke-width:2;stroke-linecap:butt;stroke-linejoin:miter;stroke:rgb(0%,0%,0%);stroke-opacity:1;stroke-miterlimit:4;" d="M 441.302083 214.302083 L 431.401042 225.598958 " transform="matrix(0.75,0,0,0.75,0,0)"/>
<path style="fill:none;stroke-width:2;stroke-linecap:butt;stroke-linejoin:miter;stroke:rgb(0%,0%,100%);stroke-opacity:1;stroke-miterlimit:4;" d="M 431.401042 225.598958 L 421.5 236.901042 " transform="matrix(0.75,0,0,0.75,0,0)"/>
<path style="fill:none;stroke-width:1;stroke-linecap:butt;stroke-linejoin:miter;stroke:rgb(0%,0%,0%);stroke-opacity:1;stroke-miterlimit:4;" d="M 270 237.598958 L 269.302083 238.697917 " transform="matrix(0.75,0,0,0.75,0,0)"/>
<path style="fill:none;stroke-width:1;stroke-linecap:butt;stroke-linejoin:miter;stroke:rgb(0%,0%,0%);stroke-opacity:1;stroke-miterlimit:4;" d="M 266 234.302083 L 264.598958 236.5 " transform="matrix(0.75,0,0,0.75,0,0)"/>
<path style="fill:none;stroke-width:1;stroke-linecap:butt;stroke-linejoin:miter;stroke:rgb(0%,0%,0%);stroke-opacity:1;stroke-miterlimit:4;" d="M 262 231 L 259.901042 234.302083 " transform="matrix(0.75,0,0,0.75,0,0)"/>
<path style="fill:none;stroke-width:1;stroke-linecap:butt;stroke-linejoin:miter;stroke:rgb(0%,0%,0%);stroke-opacity:1;stroke-miterlimit:4;" d="M 258 227.697917 L 255.197917 232.098958 " transform="matrix(0.75,0,0,0.75,0,0)"/>
<path style="fill:none;stroke-width:1;stroke-linecap:butt;stroke-linejoin:miter;stroke:rgb(0%,0%,0%);stroke-opacity:1;stroke-miterlimit:4;" d="M 254 224.302083 L 250.5 229.901042 " transform="matrix(0.75,0,0,0.75,0,0)"/>
<path style="fill:none;stroke-width:1;stroke-linecap:butt;stroke-linejoin:miter;stroke:rgb(0%,0%,0%);stroke-opacity:1;stroke-miterlimit:4;" d="M 249.901042 221 L 245.697917 227.697917 " transform="matrix(0.75,0,0,0.75,0,0)"/>
<path style=" stroke:none;fill-rule:nonzero;fill:rgb(100%,0%,0%);fill-opacity:1;" d="M 64.574219 145.125 C 64.574219 143.773438 64.925781 142.726562 65.625 141.976562 C 66.273438 141.226562 67.199219 140.851562 68.398438 140.851562 C 69.648438 140.851562 70.601562 141.226562 71.25 141.976562 C 71.898438 142.726562 72.226562 143.773438 72.226562 145.125 C 72.226562 146.476562 71.898438 147.523438 71.25 148.273438 C 70.601562 149.023438 69.648438 149.398438 68.398438 149.398438 C 67.199219 149.398438 66.273438 149.023438 65.625 148.273438 C 64.925781 147.523438 64.574219 146.476562 64.574219 145.125 M 68.398438 148.5 C 69.25 148.5 69.898438 148.199219 70.351562 147.601562 C 70.851562 147.050781 71.101562 146.226562 71.101562 145.125 C 71.101562 144.023438 70.851562 143.199219 70.351562 142.648438 C 69.898438 142.101562 69.25 141.824219 68.398438 141.824219 C 67.550781 141.824219 66.898438 142.101562 66.449219 142.648438 C 66 143.199219 65.773438 144.023438 65.773438 145.125 C 65.773438 146.226562 66 147.050781 66.449219 147.601562 C 66.898438 148.199219 67.550781 148.5 68.398438 148.5 "/>
<path style=" stroke:none;fill-rule:nonzero;fill:rgb(0%,0%,100%);fill-opacity:1;" d="M 96 142.050781 L 98.699219 146.476562 C 98.898438 146.773438 99.125 147.175781 99.375 147.675781 C 99.675781 148.226562 99.851562 148.523438 99.898438 148.574219 L 99.898438 142.050781 L 100.949219 142.050781 L 100.949219 150.375 L 99.824219 150.375 L 96.898438 145.574219 C 96.648438 145.226562 96.425781 144.824219 96.226562 144.375 C 95.976562 143.925781 95.824219 143.648438 95.773438 143.550781 L 95.773438 150.375 L 94.648438 150.375 L 94.648438 142.050781 L 96 142.050781 "/>
<path style=" stroke:none;fill-rule:nonzero;fill:rgb(100%,0%,0%);fill-opacity:1;" d="M 152.773438 148.574219 C 152.773438 147.273438 153.101562 146.25 153.75 145.5 C 154.398438 144.75 155.351562 144.375 156.601562 144.375 C 157.800781 144.375 158.75 144.75 159.449219 145.5 C 160.101562 146.25 160.425781 147.273438 160.425781 148.574219 C 160.425781 149.925781 160.074219 151 159.375 151.800781 C 158.726562 152.550781 157.800781 152.925781 156.601562 152.925781 C 155.351562 152.925781 154.398438 152.550781 153.75 151.800781 C 153.101562 151 152.773438 149.925781 152.773438 148.574219 M 156.601562 151.949219 C 157.449219 151.949219 158.101562 151.675781 158.550781 151.125 C 159 150.574219 159.226562 149.726562 159.226562 148.574219 C 159.226562 147.476562 159 146.648438 158.550781 146.101562 C 158.101562 145.550781 157.449219 145.273438 156.601562 145.273438 C 155.75 145.273438 155.101562 145.550781 154.648438 146.101562 C 154.148438 146.648438 153.898438 147.476562 153.898438 148.574219 C 153.898438 149.726562 154.148438 150.574219 154.648438 151.125 C 155.101562 151.675781 155.75 151.949219 156.601562 151.949219 "/>
<path style=" stroke:none;fill-rule:nonzero;fill:rgb(0%,0%,100%);fill-opacity:1;" d="M 143.851562 195.300781 L 145.050781 195.300781 L 145.050781 198.824219 L 149.25 198.824219 L 149.25 195.300781 L 150.375 195.300781 L 150.375 203.625 L 149.25 203.625 L 149.25 199.800781 L 145.050781 199.800781 L 145.050781 203.625 L 143.851562 203.625 L 143.851562 195.300781 "/>
<path style=" stroke:none;fill-rule:nonzero;fill:rgb(0%,0%,100%);fill-opacity:1;" d="M 152.699219 195.300781 L 155.476562 199.726562 C 155.625 200.023438 155.851562 200.425781 156.148438 200.925781 C 156.449219 201.476562 156.601562 201.75 156.601562 201.75 L 156.601562 195.300781 L 157.726562 195.300781 L 157.726562 203.625 L 156.601562 203.625 L 153.675781 198.824219 C 153.425781 198.425781 153.175781 198.023438 152.925781 197.625 C 152.726562 197.175781 152.574219 196.875 152.476562 196.726562 L 152.476562 203.625 L 151.425781 203.625 L 151.425781 195.300781 L 152.699219 195.300781 "/>
<path style=" stroke:none;fill-rule:nonzero;fill:rgb(100%,0%,0%);fill-opacity:1;" d="M 198.898438 251.625 C 198.898438 250.273438 199.226562 249.25 199.875 248.550781 C 200.523438 247.800781 201.476562 247.425781 202.726562 247.425781 C 203.976562 247.425781 204.925781 247.800781 205.574219 248.550781 C 206.226562 249.25 206.550781 250.273438 206.550781 251.625 C 206.550781 252.976562 206.226562 254.023438 205.574219 254.773438 C 204.875 255.574219 203.925781 255.976562 202.726562 255.976562 C 201.523438 255.976562 200.574219 255.574219 199.875 254.773438 C 199.226562 254.023438 198.898438 252.976562 198.898438 251.625 M 202.726562 255 C 203.574219 255 204.226562 254.726562 204.675781 254.175781 C 205.125 253.574219 205.351562 252.726562 205.351562 251.625 C 205.351562 250.523438 205.125 249.699219 204.675781 249.148438 C 204.226562 248.601562 203.574219 248.324219 202.726562 248.324219 C 201.875 248.324219 201.226562 248.601562 200.773438 249.148438 C 200.324219 249.699219 200.101562 250.523438 200.101562 251.625 C 200.101562 252.773438 200.324219 253.625 200.773438 254.175781 C 201.226562 254.726562 201.875 255 202.726562 255 "/>
<path style=" stroke:none;fill-rule:nonzero;fill:rgb(0%,0%,100%);fill-opacity:1;" d="M 223.648438 198.074219 L 226.351562 202.5 C 226.550781 202.800781 226.800781 203.226562 227.101562 203.773438 C 227.398438 204.273438 227.550781 204.550781 227.550781 204.601562 L 227.550781 198.074219 L 228.675781 198.074219 L 228.675781 206.476562 L 227.550781 206.476562 L 224.550781 201.601562 C 224.351562 201.25 224.125 200.851562 223.875 200.398438 C 223.625 199.949219 223.476562 199.675781 223.425781 199.574219 L 223.425781 206.476562 L 222.375 206.476562 L 222.375 198.074219 L 223.648438 198.074219 "/>
<path style=" stroke:none;fill-rule:nonzero;fill:rgb(100%,0%,0%);fill-opacity:1;" d="M 299.023438 210.976562 C 299.023438 209.625 299.351562 208.574219 300 207.824219 C 300.648438 207.074219 301.601562 206.699219 302.851562 206.699219 C 304.050781 206.699219 304.976562 207.074219 305.625 207.824219 C 306.324219 208.574219 306.675781 209.625 306.675781 210.976562 C 306.675781 212.324219 306.324219 213.375 305.625 214.125 C 304.976562 214.875 304.050781 215.25 302.851562 215.25 C 301.601562 215.25 300.648438 214.875 300 214.125 C 299.351562 213.375 299.023438 212.324219 299.023438 210.976562 M 302.851562 214.351562 C 303.648438 214.351562 304.300781 214.050781 304.800781 213.449219 C 305.25 212.898438 305.476562 212.074219 305.476562 210.976562 C 305.476562 209.875 305.25 209.050781 304.800781 208.5 C 304.300781 207.949219 303.648438 207.675781 302.851562 207.675781 C 302 207.675781 301.324219 207.949219 300.824219 208.5 C 300.375 209.050781 300.148438 209.875 300.148438 210.976562 C 300.148438 212.074219 300.375 212.898438 300.824219 213.449219 C 301.324219 214.050781 302 214.351562 302.851562 214.351562 "/>
<path style=" stroke:none;fill-rule:nonzero;fill:rgb(100%,0%,0%);fill-opacity:1;" d="M 261.601562 245.476562 C 261.601562 244.175781 261.925781 243.148438 262.574219 242.398438 C 263.226562 241.648438 264.175781 241.273438 265.425781 241.273438 C 266.625 241.273438 267.550781 241.648438 268.199219 242.398438 C 268.898438 243.148438 269.25 244.175781 269.25 245.476562 C 269.25 246.824219 268.898438 247.898438 268.199219 248.699219 C 267.550781 249.449219 266.625 249.824219 265.425781 249.824219 C 264.175781 249.824219 263.226562 249.449219 262.574219 248.699219 C 261.925781 247.898438 261.601562 246.824219 261.601562 245.476562 M 265.425781 248.851562 C 266.273438 248.851562 266.925781 248.574219 267.375 248.023438 C 267.824219 247.476562 268.050781 246.625 268.050781 245.476562 C 268.050781 244.425781 267.824219 243.625 267.375 243.074219 C 266.925781 242.476562 266.273438 242.175781 265.425781 242.175781 C 264.574219 242.175781 263.925781 242.449219 263.476562 243 C 262.976562 243.550781 262.726562 244.375 262.726562 245.476562 C 262.726562 246.625 262.976562 247.476562 263.476562 248.023438 C 263.925781 248.574219 264.574219 248.851562 265.425781 248.851562 "/>
<path style=" stroke:none;fill-rule:nonzero;fill:rgb(100%,0%,0%);fill-opacity:1;" d="M 269.851562 242.625 L 272.625 242.625 L 272.625 243.226562 L 269.851562 243.226562 L 269.851562 242.625 "/>
<path style=" stroke:none;fill-rule:nonzero;fill:rgb(0%,0%,100%);fill-opacity:1;" d="M 309.675781 178.648438 L 312.449219 183.074219 C 312.601562 183.375 312.824219 183.773438 313.125 184.273438 C 313.425781 184.824219 313.574219 185.125 313.574219 185.175781 L 313.574219 178.648438 L 314.699219 178.648438 L 314.699219 186.976562 L 313.574219 186.976562 L 310.648438 182.175781 C 310.398438 181.824219 310.148438 181.425781 309.898438 180.976562 C 309.699219 180.523438 309.550781 180.25 309.449219 180.148438 L 309.449219 186.976562 L 308.398438 186.976562 L 308.398438 178.648438 L 309.675781 178.648438 "/>
<path style=" stroke:none;fill-rule:nonzero;fill:rgb(0%,0%,100%);fill-opacity:1;" d="M 315.675781 180.148438 L 317.175781 180.148438 L 317.175781 178.648438 L 317.773438 178.648438 L 317.773438 180.148438 L 319.273438 180.148438 L 319.273438 180.75 L 317.773438 180.75 L 317.773438 182.25 L 317.175781 182.25 L 317.175781 180.75 L 315.675781 180.75 L 315.675781 180.148438 "/>
<path style=" stroke:none;fill-rule:nonzero;fill:rgb(80%,80%,0%);fill-opacity:1;" d="M 211.949219 155.476562 C 212 155.476562 212.148438 155.523438 212.398438 155.625 C 212.648438 155.773438 212.925781 155.875 213.226562 155.925781 C 213.523438 155.976562 213.800781 156 214.050781 156 C 214.601562 156 215.023438 155.875 215.324219 155.625 C 215.625 155.375 215.773438 155.023438 215.773438 154.574219 C 215.773438 154.273438 215.699219 154.023438 215.550781 153.824219 C 215.398438 153.625 215.199219 153.476562 214.949219 153.375 C 214.75 153.273438 214.449219 153.175781 214.050781 153.074219 C 213.550781 152.925781 213.148438 152.773438 212.851562 152.625 C 212.550781 152.476562 212.300781 152.25 212.101562 151.949219 C 211.898438 151.699219 211.800781 151.300781 211.800781 150.75 C 211.800781 150.101562 212.023438 149.550781 212.476562 149.101562 C 212.976562 148.648438 213.699219 148.425781 214.648438 148.425781 C 215.25 148.425781 215.925781 148.574219 216.675781 148.875 L 216.375 149.773438 C 215.726562 149.523438 215.148438 149.398438 214.648438 149.398438 C 214.101562 149.398438 213.675781 149.523438 213.375 149.773438 C 213.074219 149.976562 212.925781 150.273438 212.925781 150.675781 C 212.925781 150.976562 213 151.199219 213.148438 151.351562 C 213.351562 151.550781 213.550781 151.699219 213.75 151.800781 C 213.949219 151.898438 214.25 152 214.648438 152.101562 C 215.148438 152.25 215.550781 152.398438 215.851562 152.550781 C 216.148438 152.75 216.398438 153 216.601562 153.300781 C 216.851562 153.601562 216.976562 154.023438 216.976562 154.574219 C 216.976562 155.324219 216.699219 155.925781 216.148438 156.375 C 215.648438 156.773438 214.976562 156.976562 214.125 156.976562 C 213.625 156.976562 213.199219 156.925781 212.851562 156.824219 C 212.449219 156.726562 212.023438 156.574219 211.574219 156.375 L 211.949219 155.476562 "/>
<path style=" stroke:none;fill-rule:nonzero;fill:rgb(80%,80%,0%);fill-opacity:1;" d="M 81.75 246.074219 C 81.800781 246.125 81.949219 246.199219 82.199219 246.300781 C 82.449219 246.398438 82.726562 246.5 83.023438 246.601562 C 83.324219 246.648438 83.601562 246.675781 83.851562 246.675781 C 84.398438 246.675781 84.824219 246.550781 85.125 246.300781 C 85.425781 246.050781 85.574219 245.699219 85.574219 245.25 C 85.574219 244.949219 85.5 244.699219 85.351562 244.5 C 85.199219 244.300781 85 244.148438 84.75 244.050781 C 84.5 243.949219 84.199219 243.851562 83.851562 243.75 C 83.351562 243.601562 82.949219 243.449219 82.648438 243.300781 C 82.351562 243.148438 82.101562 242.925781 81.898438 242.625 C 81.699219 242.324219 81.601562 241.925781 81.601562 241.425781 C 81.601562 240.726562 81.824219 240.175781 82.273438 239.773438 C 82.773438 239.324219 83.476562 239.101562 84.375 239.101562 C 85.023438 239.101562 85.726562 239.25 86.476562 239.550781 L 86.175781 240.449219 C 85.523438 240.199219 84.949219 240.074219 84.449219 240.074219 C 83.898438 240.074219 83.476562 240.175781 83.175781 240.375 C 82.875 240.625 82.726562 240.925781 82.726562 241.273438 C 82.726562 241.574219 82.800781 241.824219 82.949219 242.023438 C 83.101562 242.175781 83.300781 242.300781 83.550781 242.398438 C 83.75 242.5 84.050781 242.625 84.449219 242.773438 C 84.949219 242.925781 85.351562 243.074219 85.648438 243.226562 C 85.949219 243.375 86.199219 243.625 86.398438 243.976562 C 86.648438 244.273438 86.773438 244.699219 86.773438 245.25 C 86.773438 246 86.5 246.574219 85.949219 246.976562 C 85.449219 247.425781 84.773438 247.648438 83.925781 247.648438 C 83.425781 247.648438 82.976562 247.574219 82.574219 247.425781 C 82.226562 247.324219 81.824219 247.199219 81.375 247.050781 L 81.75 246.074219 "/>
<path style=" stroke:none;fill-rule:nonzero;fill:rgb(0%,0%,100%);fill-opacity:1;" d="M 17.023438 234.300781 L 18.148438 234.300781 L 18.148438 237.824219 L 22.425781 237.824219 L 22.425781 234.300781 L 23.550781 234.300781 L 23.550781 242.625 L 22.425781 242.625 L 22.425781 238.726562 L 18.148438 238.726562 L 18.148438 242.625 L 17.023438 242.625 L 17.023438 234.300781 "/>
<path style=" stroke:none;fill-rule:nonzero;fill:rgb(0%,0%,100%);fill-opacity:1;" d="M 24.601562 242.324219 C 24.699219 241.976562 24.925781 241.699219 25.273438 241.5 C 25.574219 241.300781 25.949219 241.199219 26.398438 241.199219 C 26.949219 241.199219 27.375 241.351562 27.675781 241.648438 C 28.023438 241.949219 28.199219 242.375 28.199219 242.925781 C 28.199219 243.476562 28 244 27.601562 244.5 C 27.199219 245 26.574219 245.550781 25.726562 246.148438 L 28.273438 246.148438 L 28.273438 246.75 L 24.523438 246.75 L 24.523438 246.226562 C 25.226562 245.726562 25.773438 245.300781 26.175781 244.949219 C 26.574219 244.601562 26.875 244.25 27.074219 243.898438 C 27.273438 243.601562 27.375 243.273438 27.375 242.925781 C 27.375 242.574219 27.300781 242.300781 27.148438 242.101562 C 26.949219 241.898438 26.699219 241.800781 26.398438 241.800781 C 26.101562 241.800781 25.851562 241.875 25.648438 242.023438 C 25.449219 242.125 25.300781 242.300781 25.199219 242.550781 L 24.601562 242.324219 "/>
<path style=" stroke:none;fill-rule:nonzero;fill:rgb(0%,0%,100%);fill-opacity:1;" d="M 30.074219 234.300781 L 32.773438 238.648438 C 32.976562 238.949219 33.199219 239.375 33.449219 239.925781 C 33.75 240.425781 33.925781 240.699219 33.976562 240.75 L 33.976562 234.300781 L 35.023438 234.300781 L 35.023438 242.625 L 33.898438 242.625 L 30.976562 237.75 C 30.726562 237.398438 30.5 237 30.300781 236.550781 C 30.050781 236.148438 29.875 235.875 29.773438 235.726562 L 29.773438 242.625 L 28.726562 242.625 L 28.726562 234.300781 L 30.074219 234.300781 "/>
<path style=" stroke:none;fill-rule:nonzero;fill:rgb(0%,0%,100%);fill-opacity:1;" d="M 64.574219 194.851562 L 67.351562 199.273438 C 67.5 199.574219 67.726562 200 68.023438 200.550781 C 68.324219 201.050781 68.476562 201.324219 68.476562 201.375 L 68.476562 194.851562 L 69.601562 194.851562 L 69.601562 203.175781 L 68.476562 203.175781 L 65.550781 198.375 C 65.300781 198.023438 65.050781 197.625 64.800781 197.175781 C 64.601562 196.726562 64.449219 196.449219 64.351562 196.351562 L 64.351562 203.175781 L 63.300781 203.175781 L 63.300781 194.851562 L 64.574219 194.851562 "/>
<path style=" stroke:none;fill-rule:nonzero;fill:rgb(0%,0%,0%);fill-opacity:1;" d="M 177.449219 160.800781 L 178.574219 160.800781 L 178.574219 164.324219 L 182.773438 164.324219 L 182.773438 160.800781 L 183.976562 160.800781 L 183.976562 169.125 L 182.773438 169.125 L 182.773438 165.300781 L 178.574219 165.300781 L 178.574219 169.125 L 177.449219 169.125 L 177.449219 160.800781 "/>
</g>
</svg>
