<?xml version="1.0" encoding="UTF-8"?>
<svg xmlns="http://www.w3.org/2000/svg" xmlns:xlink="http://www.w3.org/1999/xlink" width="375pt" height="375pt" viewBox="0 0 375 375" version="1.1">
<g id="surface86">
<rect x="0" y="0" width="375" height="375" style="fill:rgb(100%,100%,100%);fill-opacity:1;stroke:none;"/>
<path style="fill:none;stroke-width:2;stroke-linecap:butt;stroke-linejoin:miter;stroke:rgb(0%,0%,0%);stroke-opacity:1;stroke-miterlimit:4;" d="M 126.598958 335.802083 L 133.697917 286 " transform="matrix(0.75,0,0,0.75,0,0)"/>
<path style="fill:none;stroke-width:2;stroke-linecap:butt;stroke-linejoin:miter;stroke:rgb(0%,0%,0%);stroke-opacity:1;stroke-miterlimit:4;" d="M 133.697917 286 L 83.5 284.098958 " transform="matrix(0.75,0,0,0.75,0,0)"/>
<path style="fill:none;stroke-width:2;stroke-linecap:butt;stroke-linejoin:miter;stroke:rgb(0%,0%,0%);stroke-opacity:1;stroke-miterlimit:4;" d="M 133.697917 286 L 155 291.302083 " transform="matrix(0.75,0,0,0.75,0,0)"/>
<path style="fill:none;stroke-width:2;stroke-linecap:butt;stroke-linejoin:miter;stroke:rgb(80%,80%,0%);stroke-opacity:1;stroke-miterlimit:4;" d="M 155 291.302083 L 176.302083 296.697917 " transform="matrix(0.75,0,0,0.75,0,0)"/>
<path style="fill:none;stroke-width:2;stroke-linecap:butt;stroke-linejoin:miter;stroke:rgb(80%,80%,0%);stroke-opacity:1;stroke-miterlimit:4;" d="M 188 289.5 L 198.697917 272.598958 " transform="matrix(0.75,0,0,0.75,0,0)"/>
<path style="fill:none;stroke-width:2;stroke-linecap:butt;stroke-linejoin:miter;stroke:rgb(0%,0%,0%);stroke-opacity:1;stroke-miterlimit:4;" d="M 198.697917 272.598958 L 209.302083 255.697917 " transform="matrix(0.75,0,0,0.75,0,0)"/>
<path style="fill:none;stroke-width:2;stroke-linecap:butt;stroke-linejoin:miter;stroke:rgb(0%,0%,0%);stroke-opacity:1;stroke-miterlimit:4;" d="M 209.302083 255.697917 L 247.901042 223.5 " transform="matrix(0.75,0,0,0.75,0,0)"/>
<path style="fill-rule:evenodd;fill:rgb(0%,0%,0%);fill-opacity:1;stroke-width:0.5;stroke-linecap:butt;stroke-linejoin:miter;stroke:rgb(0%,0%,0%);stroke-opacity:1;stroke-miterlimit:4;" d="M 247.901042 223.5 L 268.802083 223.5 L 268.401042 227.302083 Z M 247.901042 223.5 " transform="matrix(0.75,0,0,0.75,0,0)"/>
<path style="fill-rule:evenodd;fill:rgb(0%,0%,100%);fill-opacity:1;stroke-width:0.5;stroke-linecap:butt;stroke-linejoin:miter;stroke:rgb(0%,0%,100%);stroke-opacity:1;stroke-miterlimit:4;" d="M 268.802083 223.5 L 289 231 L 289.598958 223.5 Z M 268.802083 223.5 " transform="matrix(0.75,0,0,0.75,0,0)"/>
<path style="fill-rule:evenodd;fill:rgb(0%,0%,100%);fill-opacity:1;stroke-width:0.5;stroke-linecap:butt;stroke-linejoin:miter;stroke:rgb(0%,0%,100%);stroke-opacity:1;stroke-miterlimit:4;" d="M 268.802083 223.5 L 268.401042 227.302083 L 289 231 Z M 268.802083 223.5 " transform="matrix(0.75,0,0,0.75,0,0)"/>
<path style="fill:none;stroke-width:2;stroke-linecap:butt;stroke-linejoin:miter;stroke:rgb(0%,0%,100%);stroke-opacity:1;stroke-miterlimit:4;" d="M 302.098958 236.802083 L 310.598958 255.302083 " transform="matrix(0.75,0,0,0.75,0,0)"/>
<path style="fill:none;stroke-width:2;stroke-linecap:butt;stroke-linejoin:miter;stroke:rgb(0%,0%,0%);stroke-opacity:1;stroke-miterlimit:4;" d="M 310.598958 255.302083 L 319.098958 273.697917 " transform="matrix(0.75,0,0,0.75,0,0)"/>
<path style="fill:none;stroke-width:2;stroke-linecap:butt;stroke-linejoin:miter;stroke:rgb(0%,0%,0%);stroke-opacity:1;stroke-miterlimit:4;" d="M 317.302083 269.697917 L 305.302083 286.802083 " transform="matrix(0.75,0,0,0.75,0,0)"/>
<path style="fill:none;stroke-width:2;stroke-linecap:butt;stroke-linejoin:miter;stroke:rgb(100%,0%,0%);stroke-opacity:1;stroke-miterlimit:4;" d="M 305.302083 286.802083 L 293.302083 303.802083 " transform="matrix(0.75,0,0,0.75,0,0)"/>
<path style="fill:none;stroke-width:2;stroke-linecap:butt;stroke-linejoin:miter;stroke:rgb(0%,0%,0%);stroke-opacity:1;stroke-miterlimit:4;" d="M 323.5 274.098958 L 311.5 291.098958 " transform="matrix(0.75,0,0,0.75,0,0)"/>
<path style="fill:none;stroke-width:2;stroke-linecap:butt;stroke-linejoin:miter;stroke:rgb(100%,0%,0%);stroke-opacity:1;stroke-miterlimit:4;" d="M 311.5 291.098958 L 299.5 308.098958 " transform="matrix(0.75,0,0,0.75,0,0)"/>
<path style="fill:none;stroke-width:2;stroke-linecap:butt;stroke-linejoin:miter;stroke:rgb(0%,0%,0%);stroke-opacity:1;stroke-miterlimit:4;" d="M 319.098958 273.697917 L 369.197917 278.197917 " transform="matrix(0.75,0,0,0.75,0,0)"/>
<path style="fill:none;stroke-width:2;stroke-linecap:butt;stroke-linejoin:miter;stroke:rgb(0%,0%,0%);stroke-opacity:1;stroke-miterlimit:4;" d="M 369.197917 278.197917 L 390.302083 323.901042 " transform="matrix(0.75,0,0,0.75,0,0)"/>
<path style="fill:none;stroke-width:2;stroke-linecap:butt;stroke-linejoin:miter;stroke:rgb(0%,0%,0%);stroke-opacity:1;stroke-miterlimit:4;" d="M 387.802083 327.401042 L 409.901042 329.401042 " transform="matrix(0.75,0,0,0.75,0,0)"/>
<path style="fill:none;stroke-width:2;stroke-linecap:butt;stroke-linejoin:miter;stroke:rgb(100%,0%,0%);stroke-opacity:1;stroke-miterlimit:4;" d="M 409.901042 329.401042 L 431.901042 331.401042 " transform="matrix(0.75,0,0,0.75,0,0)"/>
<path style="fill:none;stroke-width:2;stroke-linecap:butt;stroke-linejoin:miter;stroke:rgb(0%,0%,0%);stroke-opacity:1;stroke-miterlimit:4;" d="M 388.5 319.901042 L 410.5 321.901042 " transform="matrix(0.75,0,0,0.75,0,0)"/>
<path style="fill:none;stroke-width:2;stroke-linecap:butt;stroke-linejoin:miter;stroke:rgb(100%,0%,0%);stroke-opacity:1;stroke-miterlimit:4;" d="M 410.5 321.901042 L 432.598958 323.901042 " transform="matrix(0.75,0,0,0.75,0,0)"/>
<path style="fill:none;stroke-width:2;stroke-linecap:butt;stroke-linejoin:miter;stroke:rgb(0%,0%,0%);stroke-opacity:1;stroke-miterlimit:4;" d="M 390.302083 323.901042 L 379 340 " transform="matrix(0.75,0,0,0.75,0,0)"/>
<path style="fill:none;stroke-width:2;stroke-linecap:butt;stroke-linejoin:miter;stroke:rgb(100%,0%,0%);stroke-opacity:1;stroke-miterlimit:4;" d="M 379 340 L 367.598958 356.098958 " transform="matrix(0.75,0,0,0.75,0,0)"/>
<path style="fill:none;stroke-width:2;stroke-linecap:butt;stroke-linejoin:miter;stroke:rgb(0%,0%,0%);stroke-opacity:1;stroke-miterlimit:4;" d="M 369.197917 278.197917 L 398.197917 237.098958 " transform="matrix(0.75,0,0,0.75,0,0)"/>
<path style="fill:none;stroke-width:2;stroke-linecap:butt;stroke-linejoin:miter;stroke:rgb(0%,0%,0%);stroke-opacity:1;stroke-miterlimit:4;" d="M 398.197917 237.098958 L 448.302083 241.697917 " transform="matrix(0.75,0,0,0.75,0,0)"/>
<path style="fill:none;stroke-width:2;stroke-linecap:butt;stroke-linejoin:miter;stroke:rgb(0%,0%,0%);stroke-opacity:1;stroke-miterlimit:4;" d="M 403.197917 230 L 444.598958 233.697917 " transform="matrix(0.75,0,0,0.75,0,0)"/>
<path style="fill:none;stroke-width:2;stroke-linecap:butt;stroke-linejoin:miter;stroke:rgb(0%,0%,0%);stroke-opacity:1;stroke-miterlimit:4;" d="M 448.302083 241.697917 L 477.302083 200.5 " transform="matrix(0.75,0,0,0.75,0,0)"/>
<path style="fill:none;stroke-width:2;stroke-linecap:butt;stroke-linejoin:miter;stroke:rgb(0%,0%,0%);stroke-opacity:1;stroke-miterlimit:4;" d="M 477.302083 200.5 L 456.197917 154.901042 " transform="matrix(0.75,0,0,0.75,0,0)"/>
<path style="fill:none;stroke-width:2;stroke-linecap:butt;stroke-linejoin:miter;stroke:rgb(0%,0%,0%);stroke-opacity:1;stroke-miterlimit:4;" d="M 468.598958 199.802083 L 451.098958 162 " transform="matrix(0.75,0,0,0.75,0,0)"/>
<path style="fill:none;stroke-width:2;stroke-linecap:butt;stroke-linejoin:miter;stroke:rgb(0%,0%,0%);stroke-opacity:1;stroke-miterlimit:4;" d="M 456.197917 154.901042 L 406.098958 150.401042 " transform="matrix(0.75,0,0,0.75,0,0)"/>
<path style="fill:none;stroke-width:2;stroke-linecap:butt;stroke-linejoin:miter;stroke:rgb(0%,0%,0%);stroke-opacity:1;stroke-miterlimit:4;" d="M 406.098958 150.401042 L 377.098958 191.5 " transform="matrix(0.75,0,0,0.75,0,0)"/>
<path style="fill:none;stroke-width:2;stroke-linecap:butt;stroke-linejoin:miter;stroke:rgb(0%,0%,0%);stroke-opacity:1;stroke-miterlimit:4;" d="M 409.697917 158.302083 L 385.802083 192.302083 " transform="matrix(0.75,0,0,0.75,0,0)"/>
<path style="fill:none;stroke-width:2;stroke-linecap:butt;stroke-linejoin:miter;stroke:rgb(0%,0%,0%);stroke-opacity:1;stroke-miterlimit:4;" d="M 247.901042 223.5 L 215.697917 184.901042 " transform="matrix(0.75,0,0,0.75,0,0)"/>
<path style="fill:none;stroke-width:2;stroke-linecap:butt;stroke-linejoin:miter;stroke:rgb(0%,0%,0%);stroke-opacity:1;stroke-miterlimit:4;" d="M 219.098958 189 L 221.197917 166.598958 " transform="matrix(0.75,0,0,0.75,0,0)"/>
<path style="fill:none;stroke-width:2;stroke-linecap:butt;stroke-linejoin:miter;stroke:rgb(100%,0%,0%);stroke-opacity:1;stroke-miterlimit:4;" d="M 221.197917 166.598958 L 223.197917 144.197917 " transform="matrix(0.75,0,0,0.75,0,0)"/>
<path style="fill:none;stroke-width:2;stroke-linecap:butt;stroke-linejoin:miter;stroke:rgb(0%,0%,0%);stroke-opacity:1;stroke-miterlimit:4;" d="M 211.598958 188.302083 L 213.598958 165.901042 " transform="matrix(0.75,0,0,0.75,0,0)"/>
<path style="fill:none;stroke-width:2;stroke-linecap:butt;stroke-linejoin:miter;stroke:rgb(100%,0%,0%);stroke-opacity:1;stroke-miterlimit:4;" d="M 213.598958 165.901042 L 215.697917 143.5 " transform="matrix(0.75,0,0,0.75,0,0)"/>
<path style="fill:none;stroke-width:2;stroke-linecap:butt;stroke-linejoin:miter;stroke:rgb(0%,0%,0%);stroke-opacity:1;stroke-miterlimit:4;" d="M 215.697917 184.901042 L 199.901042 198 " transform="matrix(0.75,0,0,0.75,0,0)"/>
<path style="fill:none;stroke-width:2;stroke-linecap:butt;stroke-linejoin:miter;stroke:rgb(0%,0%,100%);stroke-opacity:1;stroke-miterlimit:4;" d="M 199.901042 198 L 184.098958 211.197917 " transform="matrix(0.75,0,0,0.75,0,0)"/>
<path style="fill:none;stroke-width:2;stroke-linecap:butt;stroke-linejoin:miter;stroke:rgb(0%,0%,100%);stroke-opacity:1;stroke-miterlimit:4;" d="M 170 219.901042 L 150.197917 227.901042 " transform="matrix(0.75,0,0,0.75,0,0)"/>
<path style="fill:none;stroke-width:2;stroke-linecap:butt;stroke-linejoin:miter;stroke:rgb(0%,0%,0%);stroke-opacity:1;stroke-miterlimit:4;" d="M 150.197917 227.901042 L 130.401042 235.802083 " transform="matrix(0.75,0,0,0.75,0,0)"/>
<path style="fill:none;stroke-width:1;stroke-linecap:butt;stroke-linejoin:miter;stroke:rgb(0%,0%,0%);stroke-opacity:1;stroke-miterlimit:4;" d="M 127.5 233.598958 L 127.197917 234.098958 " transform="matrix(0.75,0,0,0.75,0,0)"/>
<path style="fill:none;stroke-width:1;stroke-linecap:butt;stroke-linejoin:miter;stroke:rgb(0%,0%,0%);stroke-opacity:1;stroke-miterlimit:4;" d="M 124.598958 231.5 L 124 232.5 " transform="matrix(0.75,0,0,0.75,0,0)"/>
<path style="fill:none;stroke-width:1;stroke-linecap:butt;stroke-linejoin:miter;stroke:rgb(0%,0%,0%);stroke-opacity:1;stroke-miterlimit:4;" d="M 121.697917 229.302083 L 120.802083 230.802083 " transform="matrix(0.75,0,0,0.75,0,0)"/>
<path style="fill:none;stroke-width:1;stroke-linecap:butt;stroke-linejoin:miter;stroke:rgb(0%,0%,0%);stroke-opacity:1;stroke-miterlimit:4;" d="M 118.802083 227.197917 L 117.598958 229.098958 " transform="matrix(0.75,0,0,0.75,0,0)"/>
<path style="fill:none;stroke-width:1;stroke-linecap:butt;stroke-linejoin:miter;stroke:rgb(0%,0%,0%);stroke-opacity:1;stroke-miterlimit:4;" d="M 116 225 L 114.401042 227.5 " transform="matrix(0.75,0,0,0.75,0,0)"/>
<path style="fill:none;stroke-width:1;stroke-linecap:butt;stroke-linejoin:miter;stroke:rgb(0%,0%,0%);stroke-opacity:1;stroke-miterlimit:4;" d="M 113.098958 222.802083 L 111.197917 225.802083 " transform="matrix(0.75,0,0,0.75,0,0)"/>
<path style="fill:none;stroke-width:1;stroke-linecap:butt;stroke-linejoin:miter;stroke:rgb(0%,0%,0%);stroke-opacity:1;stroke-miterlimit:4;" d="M 110.197917 220.697917 L 108 224.098958 " transform="matrix(0.75,0,0,0.75,0,0)"/>
<path style="fill:none;stroke-width:1;stroke-linecap:butt;stroke-linejoin:miter;stroke:rgb(0%,0%,0%);stroke-opacity:1;stroke-miterlimit:4;" d="M 107.302083 218.5 L 104.802083 222.5 " transform="matrix(0.75,0,0,0.75,0,0)"/>
<path style="fill:none;stroke-width:1;stroke-linecap:butt;stroke-linejoin:miter;stroke:rgb(0%,0%,0%);stroke-opacity:1;stroke-miterlimit:4;" d="M 104.401042 216.401042 L 101.598958 220.802083 " transform="matrix(0.75,0,0,0.75,0,0)"/>
<path style="fill:none;stroke-width:1;stroke-linecap:butt;stroke-linejoin:miter;stroke:rgb(0%,0%,0%);stroke-opacity:1;stroke-miterlimit:4;" d="M 101.5 214.197917 L 98.401042 219.098958 " transform="matrix(0.75,0,0,0.75,0,0)"/>
<path style="fill:none;stroke-width:1;stroke-linecap:butt;stroke-linejoin:miter;stroke:rgb(0%,0%,0%);stroke-opacity:1;stroke-miterlimit:4;" d="M 98.697917 212.098958 L 95.302083 217.5 " transform="matrix(0.75,0,0,0.75,0,0)"/>
<path style="fill:none;stroke-width:1;stroke-linecap:butt;stroke-linejoin:miter;stroke:rgb(0%,0%,0%);stroke-opacity:1;stroke-miterlimit:4;" d="M 95.802083 209.901042 L 92.098958 215.802083 " transform="matrix(0.75,0,0,0.75,0,0)"/>
<path style="fill:none;stroke-width:1;stroke-linecap:butt;stroke-linejoin:miter;stroke:rgb(0%,0%,0%);stroke-opacity:1;stroke-miterlimit:4;" d="M 92.901042 207.697917 L 88.901042 214.098958 " transform="matrix(0.75,0,0,0.75,0,0)"/>
<path style="fill:none;stroke-width:2;stroke-linecap:butt;stroke-linejoin:miter;stroke:rgb(0%,0%,0%);stroke-opacity:1;stroke-miterlimit:4;" d="M 91.5 211.302083 L 92.302083 189.598958 " transform="matrix(0.75,0,0,0.75,0,0)"/>
<path style="fill:none;stroke-width:2;stroke-linecap:butt;stroke-linejoin:miter;stroke:rgb(100%,0%,0%);stroke-opacity:1;stroke-miterlimit:4;" d="M 92.302083 189.598958 L 93.197917 168 " transform="matrix(0.75,0,0,0.75,0,0)"/>
<path style="fill:none;stroke-width:2;stroke-linecap:butt;stroke-linejoin:miter;stroke:rgb(0%,0%,0%);stroke-opacity:1;stroke-miterlimit:4;" d="M 84 211 L 84.802083 189.401042 " transform="matrix(0.75,0,0,0.75,0,0)"/>
<path style="fill:none;stroke-width:2;stroke-linecap:butt;stroke-linejoin:miter;stroke:rgb(100%,0%,0%);stroke-opacity:1;stroke-miterlimit:4;" d="M 84.802083 189.401042 L 85.598958 167.697917 " transform="matrix(0.75,0,0,0.75,0,0)"/>
<path style="fill:none;stroke-width:2;stroke-linecap:butt;stroke-linejoin:miter;stroke:rgb(0%,0%,0%);stroke-opacity:1;stroke-miterlimit:4;" d="M 87.802083 209 L 69.697917 218.598958 " transform="matrix(0.75,0,0,0.75,0,0)"/>
<path style="fill:none;stroke-width:2;stroke-linecap:butt;stroke-linejoin:miter;stroke:rgb(100%,0%,0%);stroke-opacity:1;stroke-miterlimit:4;" d="M 69.697917 218.598958 L 51.5 228.197917 " transform="matrix(0.75,0,0,0.75,0,0)"/>
<path style="fill:none;stroke-width:2;stroke-linecap:butt;stroke-linejoin:miter;stroke:rgb(0%,0%,0%);stroke-opacity:1;stroke-miterlimit:4;" d="M 130.401042 235.802083 L 133.697917 286 " transform="matrix(0.75,0,0,0.75,0,0)"/>
<path style="fill:none;stroke-width:2;stroke-linecap:butt;stroke-linejoin:miter;stroke:rgb(0%,0%,100%);stroke-opacity:1;stroke-miterlimit:4;" d="M 184.098958 225.598958 L 196.697917 240.598958 " transform="matrix(0.75,0,0,0.75,0,0)"/>
<path style="fill:none;stroke-width:2;stroke-linecap:butt;stroke-linejoin:miter;stroke:rgb(0%,0%,0%);stroke-opacity:1;stroke-miterlimit:4;" d="M 196.697917 240.598958 L 209.302083 255.697917 " transform="matrix(0.75,0,0,0.75,0,0)"/>
<path style="fill:none;stroke-width:2;stroke-linecap:butt;stroke-linejoin:miter;stroke:rgb(0%,0%,0%);stroke-opacity:1;stroke-miterlimit:4;" d="M 377.098958 191.5 L 398.197917 237.098958 " transform="matrix(0.75,0,0,0.75,0,0)"/>
<path style="fill:none;stroke-width:1;stroke-linecap:butt;stroke-linejoin:miter;stroke:rgb(0%,0%,0%);stroke-opacity:1;stroke-miterlimit:4;" d="M 212.197917 257.802083 L 211.697917 258.302083 " transform="matrix(0.75,0,0,0.75,0,0)"/>
<path style="fill:none;stroke-width:1;stroke-linecap:butt;stroke-linejoin:miter;stroke:rgb(0%,0%,0%);stroke-opacity:1;stroke-miterlimit:4;" d="M 215 259.802083 L 214.098958 260.802083 " transform="matrix(0.75,0,0,0.75,0,0)"/>
<path style="fill:none;stroke-width:1;stroke-linecap:butt;stroke-linejoin:miter;stroke:rgb(0%,0%,0%);stroke-opacity:1;stroke-miterlimit:4;" d="M 217.901042 261.901042 L 216.5 263.401042 " transform="matrix(0.75,0,0,0.75,0,0)"/>
<path style="fill:none;stroke-width:1;stroke-linecap:butt;stroke-linejoin:miter;stroke:rgb(0%,0%,0%);stroke-opacity:1;stroke-miterlimit:4;" d="M 220.697917 263.901042 L 218.901042 266 " transform="matrix(0.75,0,0,0.75,0,0)"/>
<path style="fill:none;stroke-width:1;stroke-linecap:butt;stroke-linejoin:miter;stroke:rgb(0%,0%,0%);stroke-opacity:1;stroke-miterlimit:4;" d="M 223.598958 265.901042 L 221.302083 268.5 " transform="matrix(0.75,0,0,0.75,0,0)"/>
<path style="fill:none;stroke-width:1;stroke-linecap:butt;stroke-linejoin:miter;stroke:rgb(0%,0%,0%);stroke-opacity:1;stroke-miterlimit:4;" d="M 226.401042 268 L 223.697917 271.098958 " transform="matrix(0.75,0,0,0.75,0,0)"/>
<path style="fill:none;stroke-width:1;stroke-linecap:butt;stroke-linejoin:miter;stroke:rgb(0%,0%,0%);stroke-opacity:1;stroke-miterlimit:4;" d="M 229.302083 270 L 226.098958 273.598958 " transform="matrix(0.75,0,0,0.75,0,0)"/>
<path style="fill:none;stroke-width:1;stroke-linecap:butt;stroke-linejoin:miter;stroke:rgb(0%,0%,0%);stroke-opacity:1;stroke-miterlimit:4;" d="M 232.197917 272.098958 L 228.598958 276.197917 " transform="matrix(0.75,0,0,0.75,0,0)"/>
<path style="fill:none;stroke-width:1;stroke-linecap:butt;stroke-linejoin:miter;stroke:rgb(0%,0%,0%);stroke-opacity:1;stroke-miterlimit:4;" d="M 235 274.098958 L 231 278.802083 " transform="matrix(0.75,0,0,0.75,0,0)"/>
<path style="fill:none;stroke-width:1;stroke-linecap:butt;stroke-linejoin:miter;stroke:rgb(0%,0%,0%);stroke-opacity:1;stroke-miterlimit:4;" d="M 237.901042 276.197917 L 233.401042 281.302083 " transform="matrix(0.75,0,0,0.75,0,0)"/>
<path style="fill:none;stroke-width:1;stroke-linecap:butt;stroke-linejoin:miter;stroke:rgb(0%,0%,0%);stroke-opacity:1;stroke-miterlimit:4;" d="M 240.697917 278.197917 L 235.802083 283.901042 " transform="matrix(0.75,0,0,0.75,0,0)"/>
<path style="fill:none;stroke-width:2;stroke-linecap:butt;stroke-linejoin:miter;stroke:rgb(0%,0%,0%);stroke-opacity:1;stroke-miterlimit:4;" d="M 246 225.098958 L 247.901042 223.5 L 246.302083 221.598958 " transform="matrix(0.75,0,0,0.75,0,0)"/>
<path style="fill:none;stroke-width:2;stroke-linecap:butt;stroke-linejoin:miter;stroke:rgb(0%,0%,0%);stroke-opacity:1;stroke-miterlimit:4;" d="M 318.697917 272.802083 L 319.098958 273.697917 L 321.598958 273.901042 " transform="matrix(0.75,0,0,0.75,0,0)"/>
<path style="fill:none;stroke-width:2;stroke-linecap:butt;stroke-linejoin:miter;stroke:rgb(0%,0%,0%);stroke-opacity:1;stroke-miterlimit:4;" d="M 389.302083 321.598958 L 390.302083 323.901042 L 389.802083 324.697917 " transform="matrix(0.75,0,0,0.75,0,0)"/>
<path style="fill:none;stroke-width:2;stroke-linecap:butt;stroke-linejoin:miter;stroke:rgb(0%,0%,0%);stroke-opacity:1;stroke-miterlimit:4;" d="M 445.802083 241.401042 L 448.302083 241.697917 L 449.697917 239.598958 " transform="matrix(0.75,0,0,0.75,0,0)"/>
<path style="fill:none;stroke-width:2;stroke-linecap:butt;stroke-linejoin:miter;stroke:rgb(0%,0%,0%);stroke-opacity:1;stroke-miterlimit:4;" d="M 475.802083 202.598958 L 477.302083 200.5 L 476.197917 198.302083 " transform="matrix(0.75,0,0,0.75,0,0)"/>
<path style="fill:none;stroke-width:2;stroke-linecap:butt;stroke-linejoin:miter;stroke:rgb(0%,0%,0%);stroke-opacity:1;stroke-miterlimit:4;" d="M 457.197917 157.197917 L 456.197917 154.901042 L 453.697917 154.697917 " transform="matrix(0.75,0,0,0.75,0,0)"/>
<path style="fill:none;stroke-width:2;stroke-linecap:butt;stroke-linejoin:miter;stroke:rgb(0%,0%,0%);stroke-opacity:1;stroke-miterlimit:4;" d="M 408.598958 150.598958 L 406.098958 150.401042 L 404.598958 152.401042 " transform="matrix(0.75,0,0,0.75,0,0)"/>
<path style="fill:none;stroke-width:2;stroke-linecap:butt;stroke-linejoin:miter;stroke:rgb(0%,0%,0%);stroke-opacity:1;stroke-miterlimit:4;" d="M 378.5 189.401042 L 377.098958 191.5 L 378.098958 193.802083 " transform="matrix(0.75,0,0,0.75,0,0)"/>
<path style="fill:none;stroke-width:2;stroke-linecap:butt;stroke-linejoin:miter;stroke:rgb(0%,0%,0%);stroke-opacity:1;stroke-miterlimit:4;" d="M 217.302083 186.802083 L 215.697917 184.901042 L 214.901042 185.5 " transform="matrix(0.75,0,0,0.75,0,0)"/>
<path style="fill:none;stroke-width:2;stroke-linecap:butt;stroke-linejoin:miter;stroke:rgb(0%,0%,0%);stroke-opacity:1;stroke-miterlimit:4;" d="M 131.401042 235.401042 L 130.401042 235.802083 L 130.598958 238.302083 " transform="matrix(0.75,0,0,0.75,0,0)"/>
<path style=" stroke:none;fill-rule:nonzero;fill:rgb(80%,80%,0%);fill-opacity:1;" d="M 133.875 227.398438 C 133.925781 227.398438 134.125 227.476562 134.476562 227.625 C 134.824219 227.773438 135.175781 227.898438 135.523438 228 C 135.875 228.050781 136.25 228.074219 136.648438 228.074219 C 137.300781 228.074219 137.824219 227.925781 138.226562 227.625 C 138.625 227.273438 138.824219 226.824219 138.824219 226.273438 C 138.824219 225.875 138.726562 225.550781 138.523438 225.300781 C 138.324219 225.050781 138.074219 224.875 137.773438 224.773438 C 137.476562 224.625 137.074219 224.476562 136.574219 224.324219 C 135.925781 224.125 135.425781 223.949219 135.074219 223.800781 C 134.675781 223.601562 134.351562 223.300781 134.101562 222.898438 C 133.800781 222.550781 133.648438 222.050781 133.648438 221.398438 C 133.648438 220.5 133.976562 219.773438 134.625 219.226562 C 135.226562 218.675781 136.125 218.398438 137.324219 218.398438 C 138.125 218.398438 139 218.601562 139.949219 219 L 139.648438 220.125 C 138.75 219.773438 138 219.601562 137.398438 219.601562 C 136.699219 219.601562 136.148438 219.75 135.75 220.050781 C 135.351562 220.351562 135.175781 220.75 135.226562 221.25 C 135.226562 221.601562 135.300781 221.898438 135.449219 222.148438 C 135.648438 222.351562 135.898438 222.523438 136.199219 222.675781 C 136.5 222.824219 136.898438 222.976562 137.398438 223.125 C 138 223.324219 138.5 223.523438 138.898438 223.726562 C 139.300781 223.925781 139.625 224.226562 139.875 224.625 C 140.175781 225.023438 140.324219 225.574219 140.324219 226.273438 C 140.324219 227.273438 139.976562 228.023438 139.273438 228.523438 C 138.625 229.074219 137.75 229.351562 136.648438 229.351562 C 136.050781 229.351562 135.5 229.273438 135 229.125 C 134.550781 228.976562 134.023438 228.800781 133.425781 228.601562 L 133.875 227.398438 "/>
<path style=" stroke:none;fill-rule:nonzero;fill:rgb(0%,0%,100%);fill-opacity:1;" d="M 221.175781 165.675781 L 224.625 171.375 C 224.875 171.726562 225.175781 172.25 225.523438 172.949219 C 225.925781 173.601562 226.125 173.949219 226.125 174 L 226.125 165.675781 L 227.550781 165.675781 L 227.550781 176.398438 L 226.125 176.398438 L 222.375 170.175781 C 222.074219 169.726562 221.773438 169.199219 221.476562 168.601562 C 221.125 168.050781 220.925781 167.699219 220.875 167.550781 L 220.875 176.398438 L 219.449219 176.398438 L 219.449219 165.675781 L 221.175781 165.675781 "/>
<path style=" stroke:none;fill-rule:nonzero;fill:rgb(0%,0%,100%);fill-opacity:1;" d="M 229.648438 165.675781 L 231.074219 165.675781 L 231.074219 170.25 L 236.550781 170.25 L 236.550781 165.675781 L 237.976562 165.675781 L 237.976562 176.398438 L 236.550781 176.398438 L 236.550781 171.449219 L 231.074219 171.449219 L 231.074219 176.398438 L 229.648438 176.398438 L 229.648438 165.675781 "/>
<path style=" stroke:none;fill-rule:nonzero;fill:rgb(100%,0%,0%);fill-opacity:1;" d="M 212.699219 236.101562 C 212.699219 234.398438 213.125 233.074219 213.976562 232.125 C 214.824219 231.175781 216.050781 230.699219 217.648438 230.699219 C 219.199219 230.699219 220.398438 231.175781 221.25 232.125 C 222.101562 233.074219 222.523438 234.398438 222.523438 236.101562 C 222.523438 237.851562 222.101562 239.226562 221.25 240.226562 C 220.398438 241.175781 219.199219 241.648438 217.648438 241.648438 C 216.050781 241.648438 214.824219 241.175781 213.976562 240.226562 C 213.125 239.226562 212.699219 237.851562 212.699219 236.101562 M 217.648438 240.449219 C 218.699219 240.449219 219.523438 240.101562 220.125 239.398438 C 220.726562 238.648438 221.023438 237.550781 221.023438 236.101562 C 221.023438 234.75 220.726562 233.699219 220.125 232.949219 C 219.523438 232.25 218.699219 231.898438 217.648438 231.898438 C 216.550781 231.898438 215.699219 232.25 215.101562 232.949219 C 214.5 233.648438 214.199219 234.699219 214.199219 236.101562 C 214.199219 237.550781 214.5 238.648438 215.101562 239.398438 C 215.699219 240.101562 216.550781 240.449219 217.648438 240.449219 "/>
<path style=" stroke:none;fill-rule:nonzero;fill:rgb(100%,0%,0%);fill-opacity:1;" d="M 325.425781 246.375 C 325.425781 244.625 325.851562 243.273438 326.699219 242.324219 C 327.550781 241.375 328.75 240.898438 330.300781 240.898438 C 331.898438 240.898438 333.125 241.375 333.976562 242.324219 C 334.824219 243.273438 335.25 244.625 335.25 246.375 C 335.25 248.074219 334.824219 249.425781 333.976562 250.425781 C 333.125 251.375 331.898438 251.851562 330.300781 251.851562 C 328.75 251.851562 327.550781 251.375 326.699219 250.425781 C 325.851562 249.425781 325.425781 248.074219 325.425781 246.375 M 330.300781 250.648438 C 331.398438 250.648438 332.25 250.300781 332.851562 249.601562 C 333.449219 248.851562 333.75 247.773438 333.75 246.375 C 333.75 244.976562 333.449219 243.925781 332.851562 243.226562 C 332.25 242.476562 331.398438 242.101562 330.300781 242.101562 C 329.25 242.101562 328.425781 242.449219 327.824219 243.148438 C 327.226562 243.851562 326.925781 244.925781 326.925781 246.375 C 326.925781 247.773438 327.226562 248.851562 327.824219 249.601562 C 328.425781 250.300781 329.25 250.648438 330.300781 250.648438 "/>
<path style=" stroke:none;fill-rule:nonzero;fill:rgb(100%,0%,0%);fill-opacity:1;" d="M 255.601562 268.5 L 257.023438 268.5 L 257.023438 273 L 262.5 273 L 262.5 268.5 L 263.925781 268.5 L 263.925781 279.148438 L 262.5 279.148438 L 262.5 274.199219 L 257.023438 274.199219 L 257.023438 279.148438 L 255.601562 279.148438 L 255.601562 268.5 "/>
<path style=" stroke:none;fill-rule:nonzero;fill:rgb(100%,0%,0%);fill-opacity:1;" d="M 266.101562 273.75 C 266.101562 272.050781 266.523438 270.726562 267.375 269.773438 C 268.226562 268.824219 269.449219 268.351562 271.050781 268.351562 C 272.601562 268.351562 273.800781 268.824219 274.648438 269.773438 C 275.5 270.726562 275.925781 272.050781 275.925781 273.75 C 275.925781 275.5 275.5 276.875 274.648438 277.875 C 273.800781 278.824219 272.601562 279.300781 271.050781 279.300781 C 269.449219 279.300781 268.226562 278.824219 267.375 277.875 C 266.523438 276.875 266.101562 275.5 266.101562 273.75 M 271.050781 278.101562 C 272.101562 278.101562 272.925781 277.75 273.523438 277.050781 C 274.125 276.300781 274.425781 275.199219 274.425781 273.75 C 274.425781 272.351562 274.125 271.300781 273.523438 270.601562 C 272.925781 269.898438 272.101562 269.550781 271.050781 269.550781 C 269.949219 269.550781 269.101562 269.898438 268.5 270.601562 C 267.898438 271.300781 267.601562 272.351562 267.601562 273.75 C 267.601562 275.199219 267.898438 276.300781 268.5 277.050781 C 269.101562 277.75 269.949219 278.101562 271.050781 278.101562 "/>
<path style=" stroke:none;fill-rule:nonzero;fill:rgb(100%,0%,0%);fill-opacity:1;" d="M 160.273438 101.101562 C 160.273438 99.398438 160.699219 98.074219 161.550781 97.125 C 162.398438 96.175781 163.625 95.699219 165.226562 95.699219 C 166.773438 95.699219 167.976562 96.175781 168.824219 97.125 C 169.675781 98.074219 170.101562 99.398438 170.101562 101.101562 C 170.101562 102.851562 169.675781 104.226562 168.824219 105.226562 C 167.976562 106.175781 166.773438 106.648438 165.226562 106.648438 C 163.625 106.648438 162.398438 106.175781 161.550781 105.226562 C 160.699219 104.226562 160.273438 102.851562 160.273438 101.101562 M 165.226562 105.449219 C 166.273438 105.449219 167.101562 105.074219 167.699219 104.324219 C 168.300781 103.625 168.601562 102.550781 168.601562 101.101562 C 168.601562 99.699219 168.300781 98.648438 167.699219 97.949219 C 167.101562 97.25 166.273438 96.898438 165.226562 96.898438 C 164.125 96.898438 163.273438 97.25 162.675781 97.949219 C 162.074219 98.648438 161.773438 99.699219 161.773438 101.101562 C 161.773438 102.550781 162.074219 103.625 162.675781 104.324219 C 163.273438 105.074219 164.125 105.449219 165.226562 105.449219 "/>
<path style=" stroke:none;fill-rule:nonzero;fill:rgb(0%,0%,100%);fill-opacity:1;" d="M 130.425781 157.5 L 133.949219 163.125 C 134.199219 163.523438 134.5 164.050781 134.851562 164.699219 C 135.25 165.398438 135.449219 165.75 135.449219 165.75 L 135.449219 157.5 L 136.875 157.5 L 136.875 168.148438 L 135.375 168.148438 L 131.625 162 C 131.324219 161.5 131.023438 160.976562 130.726562 160.425781 C 130.425781 159.875 130.226562 159.5 130.125 159.300781 L 130.125 168.148438 L 128.773438 168.148438 L 128.773438 157.5 L 130.425781 157.5 "/>
<path style=" stroke:none;fill-rule:nonzero;fill:rgb(100%,0%,0%);fill-opacity:1;" d="M 62.398438 119.101562 C 62.398438 117.398438 62.824219 116.050781 63.675781 115.050781 C 64.523438 114.101562 65.726562 113.625 67.273438 113.625 C 68.875 113.625 70.101562 114.101562 70.949219 115.050781 C 71.800781 116.050781 72.226562 117.398438 72.226562 119.101562 C 72.226562 120.800781 71.800781 122.148438 70.949219 123.148438 C 70.050781 124.148438 68.824219 124.648438 67.273438 124.648438 C 65.726562 124.648438 64.523438 124.148438 63.675781 123.148438 C 62.824219 122.199219 62.398438 120.851562 62.398438 119.101562 M 67.273438 123.449219 C 68.375 123.449219 69.226562 123.074219 69.824219 122.324219 C 70.425781 121.574219 70.726562 120.5 70.726562 119.101562 C 70.726562 117.699219 70.425781 116.648438 69.824219 115.949219 C 69.226562 115.199219 68.375 114.824219 67.273438 114.824219 C 66.226562 114.824219 65.398438 115.199219 64.800781 115.949219 C 64.199219 116.648438 63.898438 117.699219 63.898438 119.101562 C 63.898438 120.550781 64.199219 121.625 64.800781 122.324219 C 65.398438 123.074219 66.226562 123.449219 67.273438 123.449219 "/>
<path style=" stroke:none;fill-rule:nonzero;fill:rgb(100%,0%,0%);fill-opacity:1;" d="M 17.023438 169.050781 L 18.523438 169.050781 L 18.523438 173.625 L 23.925781 173.625 L 23.925781 169.050781 L 25.425781 169.050781 L 25.425781 179.773438 L 23.925781 179.773438 L 23.925781 174.824219 L 18.523438 174.824219 L 18.523438 179.773438 L 17.023438 179.773438 L 17.023438 169.050781 "/>
<path style=" stroke:none;fill-rule:nonzero;fill:rgb(100%,0%,0%);fill-opacity:1;" d="M 27.601562 174.375 C 27.601562 172.675781 28.023438 171.351562 28.875 170.398438 C 29.726562 169.449219 30.925781 168.976562 32.476562 168.976562 C 34.074219 168.976562 35.300781 169.449219 36.148438 170.398438 C 37 171.351562 37.425781 172.675781 37.425781 174.375 C 37.425781 176.125 37 177.5 36.148438 178.5 C 35.300781 179.449219 34.074219 179.925781 32.476562 179.925781 C 30.925781 179.925781 29.726562 179.449219 28.875 178.5 C 28.023438 177.5 27.601562 176.125 27.601562 174.375 M 32.476562 178.726562 C 33.574219 178.726562 34.425781 178.351562 35.023438 177.601562 C 35.625 176.898438 35.925781 175.824219 35.925781 174.375 C 35.925781 172.976562 35.625 171.925781 35.023438 171.226562 C 34.425781 170.523438 33.574219 170.175781 32.476562 170.175781 C 31.425781 170.175781 30.601562 170.523438 30 171.226562 C 29.398438 171.925781 29.101562 172.976562 29.101562 174.375 C 29.101562 175.824219 29.398438 176.898438 30 177.601562 C 30.601562 178.351562 31.425781 178.726562 32.476562 178.726562 "/>
<path style=" stroke:none;fill-rule:nonzero;fill:rgb(0%,0%,0%);fill-opacity:1;" d="M 181.199219 211.273438 L 182.625 211.273438 L 182.625 215.851562 L 188.101562 215.851562 L 188.101562 211.273438 L 189.523438 211.273438 L 189.523438 222 L 188.101562 222 L 188.101562 217.050781 L 182.625 217.050781 L 182.625 222 L 181.199219 222 L 181.199219 211.273438 "/>
</g>
</svg>
