<?xml version="1.0" encoding="UTF-8"?>
<svg xmlns="http://www.w3.org/2000/svg" xmlns:xlink="http://www.w3.org/1999/xlink" width="375pt" height="375pt" viewBox="0 0 375 375" version="1.1">
<g id="surface296">
<rect x="0" y="0" width="375" height="375" style="fill:rgb(100%,100%,100%);fill-opacity:1;stroke:none;"/>
<path style="fill:none;stroke-width:2;stroke-linecap:butt;stroke-linejoin:miter;stroke:rgb(0%,0%,0%);stroke-opacity:1;stroke-miterlimit:4;" d="M 477.302083 378.302083 L 475.401042 284.901042 " transform="matrix(0.75,0,0,0.75,0,0)"/>
<path style="fill:none;stroke-width:2;stroke-linecap:butt;stroke-linejoin:miter;stroke:rgb(0%,0%,0%);stroke-opacity:1;stroke-miterlimit:4;" d="M 475.401042 284.901042 L 393.5 239.802083 " transform="matrix(0.75,0,0,0.75,0,0)"/>
<path style="fill:none;stroke-width:2;stroke-linecap:butt;stroke-linejoin:miter;stroke:rgb(0%,0%,0%);stroke-opacity:1;stroke-miterlimit:4;" d="M 393.5 239.802083 L 313.598958 288.098958 " transform="matrix(0.75,0,0,0.75,0,0)"/>
<path style="fill:none;stroke-width:2;stroke-linecap:butt;stroke-linejoin:miter;stroke:rgb(0%,0%,0%);stroke-opacity:1;stroke-miterlimit:4;" d="M 371.901042 231 L 315.901042 264.901042 " transform="matrix(0.75,0,0,0.75,0,0)"/>
<path style="fill:none;stroke-width:2;stroke-linecap:butt;stroke-linejoin:miter;stroke:rgb(0%,0%,0%);stroke-opacity:1;stroke-miterlimit:4;" d="M 313.598958 288.098958 L 231.697917 243 " transform="matrix(0.75,0,0,0.75,0,0)"/>
<path style="fill:none;stroke-width:2;stroke-linecap:butt;stroke-linejoin:miter;stroke:rgb(0%,0%,0%);stroke-opacity:1;stroke-miterlimit:4;" d="M 231.697917 243 L 151.697917 291.401042 " transform="matrix(0.75,0,0,0.75,0,0)"/>
<path style="fill:none;stroke-width:2;stroke-linecap:butt;stroke-linejoin:miter;stroke:rgb(0%,0%,0%);stroke-opacity:1;stroke-miterlimit:4;" d="M 151.697917 291.401042 L 117.401042 272.5 " transform="matrix(0.75,0,0,0.75,0,0)"/>
<path style="fill:none;stroke-width:2;stroke-linecap:butt;stroke-linejoin:miter;stroke:rgb(0%,0%,100%);stroke-opacity:1;stroke-miterlimit:4;" d="M 117.401042 272.5 L 83 253.5 " transform="matrix(0.75,0,0,0.75,0,0)"/>
<path style="fill:none;stroke-width:2;stroke-linecap:butt;stroke-linejoin:miter;stroke:rgb(0%,0%,0%);stroke-opacity:1;stroke-miterlimit:4;" d="M 161.098958 291.197917 L 161.901042 329.802083 " transform="matrix(0.75,0,0,0.75,0,0)"/>
<path style="fill:none;stroke-width:2;stroke-linecap:butt;stroke-linejoin:miter;stroke:rgb(80%,80%,0%);stroke-opacity:1;stroke-miterlimit:4;" d="M 161.901042 329.802083 L 162.598958 368.401042 " transform="matrix(0.75,0,0,0.75,0,0)"/>
<path style="fill:none;stroke-width:2;stroke-linecap:butt;stroke-linejoin:miter;stroke:rgb(0%,0%,0%);stroke-opacity:1;stroke-miterlimit:4;" d="M 142.401042 291.598958 L 143.197917 330.197917 " transform="matrix(0.75,0,0,0.75,0,0)"/>
<path style="fill:none;stroke-width:2;stroke-linecap:butt;stroke-linejoin:miter;stroke:rgb(80%,80%,0%);stroke-opacity:1;stroke-miterlimit:4;" d="M 143.197917 330.197917 L 144 368.697917 " transform="matrix(0.75,0,0,0.75,0,0)"/>
<path style="fill:none;stroke-width:2;stroke-linecap:butt;stroke-linejoin:miter;stroke:rgb(0%,0%,0%);stroke-opacity:1;stroke-miterlimit:4;" d="M 231.697917 243 L 229.802083 149.598958 " transform="matrix(0.75,0,0,0.75,0,0)"/>
<path style="fill:none;stroke-width:2;stroke-linecap:butt;stroke-linejoin:miter;stroke:rgb(0%,0%,0%);stroke-opacity:1;stroke-miterlimit:4;" d="M 250.098958 228.697917 L 248.802083 163.302083 " transform="matrix(0.75,0,0,0.75,0,0)"/>
<path style="fill:none;stroke-width:2;stroke-linecap:butt;stroke-linejoin:miter;stroke:rgb(0%,0%,0%);stroke-opacity:1;stroke-miterlimit:4;" d="M 229.802083 149.598958 L 309.802083 101.302083 " transform="matrix(0.75,0,0,0.75,0,0)"/>
<path style="fill:none;stroke-width:2;stroke-linecap:butt;stroke-linejoin:miter;stroke:rgb(0%,0%,0%);stroke-opacity:1;stroke-miterlimit:4;" d="M 309.802083 101.302083 L 344.197917 120.197917 " transform="matrix(0.75,0,0,0.75,0,0)"/>
<path style="fill:none;stroke-width:2;stroke-linecap:butt;stroke-linejoin:miter;stroke:rgb(0%,0%,100%);stroke-opacity:1;stroke-miterlimit:4;" d="M 344.197917 120.197917 L 378.5 139.098958 " transform="matrix(0.75,0,0,0.75,0,0)"/>
<path style="fill:none;stroke-width:2;stroke-linecap:butt;stroke-linejoin:miter;stroke:rgb(0%,0%,0%);stroke-opacity:1;stroke-miterlimit:4;" d="M 311.098958 123.302083 L 335.197917 136.598958 " transform="matrix(0.75,0,0,0.75,0,0)"/>
<path style="fill:none;stroke-width:2;stroke-linecap:butt;stroke-linejoin:miter;stroke:rgb(0%,0%,100%);stroke-opacity:1;stroke-miterlimit:4;" d="M 335.197917 136.598958 L 359.197917 149.802083 " transform="matrix(0.75,0,0,0.75,0,0)"/>
<path style="fill:none;stroke-width:2;stroke-linecap:butt;stroke-linejoin:miter;stroke:rgb(0%,0%,100%);stroke-opacity:1;stroke-miterlimit:4;" d="M 392 162.697917 L 392.802083 201.197917 " transform="matrix(0.75,0,0,0.75,0,0)"/>
<path style="fill:none;stroke-width:2;stroke-linecap:butt;stroke-linejoin:miter;stroke:rgb(0%,0%,0%);stroke-opacity:1;stroke-miterlimit:4;" d="M 392.802083 201.197917 L 393.5 239.802083 " transform="matrix(0.75,0,0,0.75,0,0)"/>
<path style=" stroke:none;fill-rule:nonzero;fill:rgb(0%,0%,100%);fill-opacity:1;" d="M 17.023438 174.824219 L 19.726562 174.824219 L 19.726562 183.226562 L 29.851562 183.226562 L 29.851562 174.824219 L 32.550781 174.824219 L 32.550781 194.625 L 29.851562 194.625 L 29.851562 185.476562 L 19.726562 185.476562 L 19.726562 194.625 L 17.023438 194.625 L 17.023438 174.824219 "/>
<path style=" stroke:none;fill-rule:nonzero;fill:rgb(0%,0%,100%);fill-opacity:1;" d="M 35.023438 193.949219 C 35.324219 193.148438 35.851562 192.5 36.601562 192 C 37.398438 191.550781 38.324219 191.324219 39.375 191.324219 C 40.675781 191.324219 41.699219 191.675781 42.449219 192.375 C 43.199219 193.125 43.574219 194.125 43.574219 195.375 C 43.574219 196.675781 43.101562 197.925781 42.148438 199.125 C 41.199219 200.324219 39.726562 201.648438 37.726562 203.101562 L 43.800781 203.101562 L 43.800781 204.601562 L 34.949219 204.601562 L 34.949219 203.324219 C 36.601562 202.175781 37.898438 201.175781 38.851562 200.324219 C 39.800781 199.425781 40.523438 198.601562 41.023438 197.851562 C 41.476562 197.050781 41.699219 196.25 41.699219 195.449219 C 41.699219 194.648438 41.5 194 41.101562 193.5 C 40.648438 193.050781 40.074219 192.824219 39.375 192.824219 C 38.675781 192.824219 38.074219 192.949219 37.574219 193.199219 C 37.125 193.5 36.726562 193.976562 36.375 194.625 L 35.023438 193.949219 "/>
<path style=" stroke:none;fill-rule:nonzero;fill:rgb(0%,0%,100%);fill-opacity:1;" d="M 48 174.824219 L 54.523438 185.324219 C 54.976562 186.023438 55.550781 187 56.25 188.25 C 56.898438 189.5 57.25 190.148438 57.300781 190.199219 L 57.300781 174.824219 L 59.925781 174.824219 L 59.925781 194.625 L 57.226562 194.625 L 50.25 183.148438 C 49.699219 182.25 49.148438 181.300781 48.601562 180.300781 C 48 179.25 47.625 178.574219 47.476562 178.273438 L 47.476562 194.625 L 44.925781 194.625 L 44.925781 174.824219 L 48 174.824219 "/>
<path style=" stroke:none;fill-rule:nonzero;fill:rgb(80%,80%,0%);fill-opacity:1;" d="M 109.648438 295.425781 C 109.800781 295.476562 110.175781 295.625 110.773438 295.875 C 111.375 296.175781 112.023438 296.398438 112.726562 296.550781 C 113.375 296.699219 114.050781 296.773438 114.75 296.773438 C 116 296.773438 117 296.476562 117.75 295.875 C 118.449219 295.273438 118.800781 294.425781 118.800781 293.324219 C 118.800781 292.625 118.625 292.050781 118.273438 291.601562 C 117.925781 291.148438 117.449219 290.800781 116.851562 290.550781 C 116.300781 290.300781 115.550781 290.050781 114.601562 289.800781 C 113.449219 289.398438 112.523438 289.050781 111.824219 288.75 C 111.125 288.398438 110.523438 287.875 110.023438 287.175781 C 109.523438 286.476562 109.273438 285.523438 109.273438 284.324219 C 109.273438 282.625 109.824219 281.273438 110.925781 280.273438 C 112.074219 279.226562 113.773438 278.699219 116.023438 278.699219 C 117.574219 278.699219 119.226562 279.074219 120.976562 279.824219 L 120.300781 282 C 118.699219 281.351562 117.300781 281.023438 116.101562 281.023438 C 114.800781 281.023438 113.800781 281.273438 113.101562 281.773438 C 112.398438 282.324219 112.050781 283.050781 112.050781 283.949219 C 112.050781 284.648438 112.25 285.226562 112.648438 285.675781 C 113 286.125 113.425781 286.449219 113.925781 286.648438 C 114.476562 286.898438 115.199219 287.175781 116.101562 287.476562 C 117.300781 287.824219 118.25 288.199219 118.949219 288.601562 C 119.699219 288.949219 120.324219 289.523438 120.824219 290.324219 C 121.324219 291.074219 121.574219 292.074219 121.574219 293.324219 C 121.574219 295.175781 120.949219 296.601562 119.699219 297.601562 C 118.5 298.550781 116.875 299.023438 114.824219 299.023438 C 113.675781 299.023438 112.648438 298.898438 111.75 298.648438 C 110.851562 298.398438 109.875 298.074219 108.824219 297.675781 L 109.648438 295.425781 "/>
<path style=" stroke:none;fill-rule:nonzero;fill:rgb(0%,0%,100%);fill-opacity:1;" d="M 289.351562 99.824219 L 295.875 110.324219 C 296.273438 111.023438 296.824219 112 297.523438 113.25 C 298.226562 114.5 298.601562 115.175781 298.648438 115.273438 L 298.648438 99.824219 L 301.273438 99.824219 L 301.273438 119.699219 L 298.574219 119.699219 L 291.601562 108.226562 C 291.050781 107.324219 290.476562 106.351562 289.875 105.300781 C 289.324219 104.300781 288.976562 103.625 288.824219 103.273438 L 288.824219 119.699219 L 286.199219 119.699219 L 286.199219 99.824219 L 289.351562 99.824219 "/>
</g>
</svg>
