<?xml version="1.0" encoding="UTF-8"?>
<svg xmlns="http://www.w3.org/2000/svg" xmlns:xlink="http://www.w3.org/1999/xlink" width="375pt" height="375pt" viewBox="0 0 375 375" version="1.1">
<g id="surface306">
<rect x="0" y="0" width="375" height="375" style="fill:rgb(100%,100%,100%);fill-opacity:1;stroke:none;"/>
<path style="fill:none;stroke-width:2;stroke-linecap:butt;stroke-linejoin:miter;stroke:rgb(0%,0%,0%);stroke-opacity:1;stroke-miterlimit:4;" d="M 91 371.5 L 93.098958 354.098958 " transform="matrix(0.75,0,0,0.75,0,0)"/>
<path style="fill:none;stroke-width:2;stroke-linecap:butt;stroke-linejoin:miter;stroke:rgb(0%,0%,100%);stroke-opacity:1;stroke-miterlimit:4;" d="M 93.098958 354.098958 L 95.098958 336.598958 " transform="matrix(0.75,0,0,0.75,0,0)"/>
<path style="fill:none;stroke-width:2;stroke-linecap:butt;stroke-linejoin:miter;stroke:rgb(0%,0%,100%);stroke-opacity:1;stroke-miterlimit:4;" d="M 90 324.697917 L 75.901042 314.197917 " transform="matrix(0.75,0,0,0.75,0,0)"/>
<path style="fill:none;stroke-width:2;stroke-linecap:butt;stroke-linejoin:miter;stroke:rgb(0%,0%,0%);stroke-opacity:1;stroke-miterlimit:4;" d="M 75.901042 314.197917 L 61.802083 303.802083 " transform="matrix(0.75,0,0,0.75,0,0)"/>
<path style="fill:none;stroke-width:2;stroke-linecap:butt;stroke-linejoin:miter;stroke:rgb(0%,0%,0%);stroke-opacity:1;stroke-miterlimit:4;" d="M 61.802083 303.802083 L 22.697917 320.598958 " transform="matrix(0.75,0,0,0.75,0,0)"/>
<path style="fill:none;stroke-width:1;stroke-linecap:butt;stroke-linejoin:miter;stroke:rgb(0%,0%,0%);stroke-opacity:1;stroke-miterlimit:4;" d="M 65.302083 268.401042 L 66.697917 268.598958 " transform="matrix(0.75,0,0,0.75,0,0)"/>
<path style="fill:none;stroke-width:1;stroke-linecap:butt;stroke-linejoin:miter;stroke:rgb(0%,0%,0%);stroke-opacity:1;stroke-miterlimit:4;" d="M 63.697917 275.401042 L 66.598958 275.697917 " transform="matrix(0.75,0,0,0.75,0,0)"/>
<path style="fill:none;stroke-width:1;stroke-linecap:butt;stroke-linejoin:miter;stroke:rgb(0%,0%,0%);stroke-opacity:1;stroke-miterlimit:4;" d="M 62.197917 282.302083 L 66.401042 282.802083 " transform="matrix(0.75,0,0,0.75,0,0)"/>
<path style="fill:none;stroke-width:1;stroke-linecap:butt;stroke-linejoin:miter;stroke:rgb(0%,0%,0%);stroke-opacity:1;stroke-miterlimit:4;" d="M 60.697917 289.302083 L 66.302083 290 " transform="matrix(0.75,0,0,0.75,0,0)"/>
<path style="fill:none;stroke-width:1;stroke-linecap:butt;stroke-linejoin:miter;stroke:rgb(0%,0%,0%);stroke-opacity:1;stroke-miterlimit:4;" d="M 59.098958 296.302083 L 66.197917 297.098958 " transform="matrix(0.75,0,0,0.75,0,0)"/>
<path style="fill:none;stroke-width:1;stroke-linecap:butt;stroke-linejoin:miter;stroke:rgb(0%,0%,0%);stroke-opacity:1;stroke-miterlimit:4;" d="M 57.598958 303.302083 L 66.098958 304.197917 " transform="matrix(0.75,0,0,0.75,0,0)"/>
<path style="fill:none;stroke-width:2;stroke-linecap:butt;stroke-linejoin:miter;stroke:rgb(0%,0%,0%);stroke-opacity:1;stroke-miterlimit:4;" d="M 66.802083 261.401042 L 32.598958 236 " transform="matrix(0.75,0,0,0.75,0,0)"/>
<path style="fill:none;stroke-width:2;stroke-linecap:butt;stroke-linejoin:miter;stroke:rgb(0%,0%,0%);stroke-opacity:1;stroke-miterlimit:4;" d="M 32.598958 236 L 37.598958 193.697917 " transform="matrix(0.75,0,0,0.75,0,0)"/>
<path style="fill:none;stroke-width:2;stroke-linecap:butt;stroke-linejoin:miter;stroke:rgb(0%,0%,0%);stroke-opacity:1;stroke-miterlimit:4;" d="M 37.598958 193.697917 L 76.697917 176.802083 " transform="matrix(0.75,0,0,0.75,0,0)"/>
<path style="fill-rule:evenodd;fill:rgb(0%,0%,0%);fill-opacity:1;stroke-width:1;stroke-linecap:butt;stroke-linejoin:miter;stroke:rgb(0%,0%,0%);stroke-opacity:1;stroke-miterlimit:4;" d="M 76.697917 176.802083 L 76.598958 159.901042 L 80.802083 160.302083 Z M 76.697917 176.802083 " transform="matrix(0.75,0,0,0.75,0,0)"/>
<path style="fill-rule:evenodd;fill:rgb(0%,0%,100%);fill-opacity:1;stroke-width:1;stroke-linecap:butt;stroke-linejoin:miter;stroke:rgb(0%,0%,100%);stroke-opacity:1;stroke-miterlimit:4;" d="M 76.598958 159.901042 L 84.901042 143.901042 L 76.401042 142.901042 Z M 76.598958 159.901042 " transform="matrix(0.75,0,0,0.75,0,0)"/>
<path style="fill-rule:evenodd;fill:rgb(0%,0%,100%);fill-opacity:1;stroke-width:1;stroke-linecap:butt;stroke-linejoin:miter;stroke:rgb(0%,0%,100%);stroke-opacity:1;stroke-miterlimit:4;" d="M 76.598958 159.901042 L 80.802083 160.302083 L 84.901042 143.901042 Z M 76.598958 159.901042 " transform="matrix(0.75,0,0,0.75,0,0)"/>
<path style="fill:none;stroke-width:2;stroke-linecap:butt;stroke-linejoin:miter;stroke:rgb(0%,0%,0%);stroke-opacity:1;stroke-miterlimit:4;" d="M 76.697917 176.802083 L 110.901042 202.302083 " transform="matrix(0.75,0,0,0.75,0,0)"/>
<path style="fill-rule:evenodd;fill:rgb(0%,0%,0%);fill-opacity:1;stroke-width:1;stroke-linecap:butt;stroke-linejoin:miter;stroke:rgb(0%,0%,0%);stroke-opacity:1;stroke-miterlimit:4;" d="M 110.901042 202.302083 L 125.401042 193.697917 L 127.098958 197.598958 Z M 110.901042 202.302083 " transform="matrix(0.75,0,0,0.75,0,0)"/>
<path style="fill-rule:evenodd;fill:rgb(100%,0%,0%);fill-opacity:1;stroke-width:1;stroke-linecap:butt;stroke-linejoin:miter;stroke:rgb(100%,0%,0%);stroke-opacity:1;stroke-miterlimit:4;" d="M 125.401042 193.697917 L 143.302083 192.901042 L 140 185.098958 Z M 125.401042 193.697917 " transform="matrix(0.75,0,0,0.75,0,0)"/>
<path style="fill-rule:evenodd;fill:rgb(100%,0%,0%);fill-opacity:1;stroke-width:1;stroke-linecap:butt;stroke-linejoin:miter;stroke:rgb(100%,0%,0%);stroke-opacity:1;stroke-miterlimit:4;" d="M 125.401042 193.697917 L 127.098958 197.598958 L 143.302083 192.901042 Z M 125.401042 193.697917 " transform="matrix(0.75,0,0,0.75,0,0)"/>
<path style="fill-rule:evenodd;fill:rgb(0%,0%,0%);fill-opacity:1;stroke-width:1;stroke-linecap:butt;stroke-linejoin:miter;stroke:rgb(0%,0%,0%);stroke-opacity:1;stroke-miterlimit:4;" d="M 184.197917 210.901042 L 170 203 L 172.5 199.5 Z M 184.197917 210.901042 " transform="matrix(0.75,0,0,0.75,0,0)"/>
<path style="fill-rule:evenodd;fill:rgb(100%,0%,0%);fill-opacity:1;stroke-width:1;stroke-linecap:butt;stroke-linejoin:miter;stroke:rgb(100%,0%,0%);stroke-opacity:1;stroke-miterlimit:4;" d="M 170 203 L 160.901042 188.197917 L 155.802083 195.098958 Z M 170 203 " transform="matrix(0.75,0,0,0.75,0,0)"/>
<path style="fill-rule:evenodd;fill:rgb(100%,0%,0%);fill-opacity:1;stroke-width:1;stroke-linecap:butt;stroke-linejoin:miter;stroke:rgb(100%,0%,0%);stroke-opacity:1;stroke-miterlimit:4;" d="M 170 203 L 172.5 199.5 L 160.901042 188.197917 Z M 170 203 " transform="matrix(0.75,0,0,0.75,0,0)"/>
<path style="fill:none;stroke-width:2;stroke-linecap:butt;stroke-linejoin:miter;stroke:rgb(0%,0%,0%);stroke-opacity:1;stroke-miterlimit:4;" d="M 184.197917 210.901042 L 179.197917 253.197917 " transform="matrix(0.75,0,0,0.75,0,0)"/>
<path style="fill:none;stroke-width:1;stroke-linecap:butt;stroke-linejoin:miter;stroke:rgb(0%,0%,0%);stroke-opacity:1;stroke-miterlimit:4;" d="M 173.598958 254.802083 L 174.197917 256.098958 " transform="matrix(0.75,0,0,0.75,0,0)"/>
<path style="fill:none;stroke-width:1;stroke-linecap:butt;stroke-linejoin:miter;stroke:rgb(0%,0%,0%);stroke-opacity:1;stroke-miterlimit:4;" d="M 168.098958 256.401042 L 169.197917 259 " transform="matrix(0.75,0,0,0.75,0,0)"/>
<path style="fill:none;stroke-width:1;stroke-linecap:butt;stroke-linejoin:miter;stroke:rgb(0%,0%,0%);stroke-opacity:1;stroke-miterlimit:4;" d="M 162.5 258.098958 L 164.197917 262 " transform="matrix(0.75,0,0,0.75,0,0)"/>
<path style="fill:none;stroke-width:1;stroke-linecap:butt;stroke-linejoin:miter;stroke:rgb(0%,0%,100%);stroke-opacity:1;stroke-miterlimit:4;" d="M 156.901042 259.697917 L 159.197917 264.901042 " transform="matrix(0.75,0,0,0.75,0,0)"/>
<path style="fill:none;stroke-width:1;stroke-linecap:butt;stroke-linejoin:miter;stroke:rgb(0%,0%,100%);stroke-opacity:1;stroke-miterlimit:4;" d="M 151.401042 261.302083 L 154.197917 267.802083 " transform="matrix(0.75,0,0,0.75,0,0)"/>
<path style="fill:none;stroke-width:1;stroke-linecap:butt;stroke-linejoin:miter;stroke:rgb(0%,0%,100%);stroke-opacity:1;stroke-miterlimit:4;" d="M 145.802083 262.901042 L 149.197917 270.802083 " transform="matrix(0.75,0,0,0.75,0,0)"/>
<path style="fill:none;stroke-width:2;stroke-linecap:butt;stroke-linejoin:miter;stroke:rgb(0%,0%,0%);stroke-opacity:1;stroke-miterlimit:4;" d="M 179.197917 253.197917 L 213.401042 278.598958 " transform="matrix(0.75,0,0,0.75,0,0)"/>
<path style="fill:none;stroke-width:2;stroke-linecap:butt;stroke-linejoin:miter;stroke:rgb(0%,0%,0%);stroke-opacity:1;stroke-miterlimit:4;" d="M 213.401042 278.598958 L 252.5 261.802083 " transform="matrix(0.75,0,0,0.75,0,0)"/>
<path style="fill:none;stroke-width:1;stroke-linecap:butt;stroke-linejoin:miter;stroke:rgb(0%,0%,0%);stroke-opacity:1;stroke-miterlimit:4;" d="M 256.5 265.697917 L 257.401042 264.5 " transform="matrix(0.75,0,0,0.75,0,0)"/>
<path style="fill:none;stroke-width:1;stroke-linecap:butt;stroke-linejoin:miter;stroke:rgb(0%,0%,0%);stroke-opacity:1;stroke-miterlimit:4;" d="M 260.598958 269.598958 L 262.302083 267.302083 " transform="matrix(0.75,0,0,0.75,0,0)"/>
<path style="fill:none;stroke-width:1;stroke-linecap:butt;stroke-linejoin:miter;stroke:rgb(0%,0%,0%);stroke-opacity:1;stroke-miterlimit:4;" d="M 264.598958 273.5 L 267.098958 270 " transform="matrix(0.75,0,0,0.75,0,0)"/>
<path style="fill:none;stroke-width:1;stroke-linecap:butt;stroke-linejoin:miter;stroke:rgb(0%,0%,100%);stroke-opacity:1;stroke-miterlimit:4;" d="M 268.598958 277.302083 L 272 272.802083 " transform="matrix(0.75,0,0,0.75,0,0)"/>
<path style="fill:none;stroke-width:1;stroke-linecap:butt;stroke-linejoin:miter;stroke:rgb(0%,0%,100%);stroke-opacity:1;stroke-miterlimit:4;" d="M 272.697917 281.197917 L 276.901042 275.5 " transform="matrix(0.75,0,0,0.75,0,0)"/>
<path style="fill:none;stroke-width:1;stroke-linecap:butt;stroke-linejoin:miter;stroke:rgb(0%,0%,100%);stroke-opacity:1;stroke-miterlimit:4;" d="M 276.697917 285.098958 L 281.802083 278.302083 " transform="matrix(0.75,0,0,0.75,0,0)"/>
<path style="fill:none;stroke-width:2;stroke-linecap:butt;stroke-linejoin:miter;stroke:rgb(0%,0%,0%);stroke-opacity:1;stroke-miterlimit:4;" d="M 252.5 261.802083 L 257.401042 219.5 " transform="matrix(0.75,0,0,0.75,0,0)"/>
<path style="fill-rule:evenodd;fill:rgb(0%,0%,0%);fill-opacity:1;stroke-width:1;stroke-linecap:butt;stroke-linejoin:miter;stroke:rgb(0%,0%,0%);stroke-opacity:1;stroke-miterlimit:4;" d="M 257.401042 219.5 L 272 210.901042 L 273.697917 214.802083 Z M 257.401042 219.5 " transform="matrix(0.75,0,0,0.75,0,0)"/>
<path style="fill-rule:evenodd;fill:rgb(100%,0%,0%);fill-opacity:1;stroke-width:1;stroke-linecap:butt;stroke-linejoin:miter;stroke:rgb(100%,0%,0%);stroke-opacity:1;stroke-miterlimit:4;" d="M 272 210.901042 L 289.901042 210.098958 L 286.5 202.302083 Z M 272 210.901042 " transform="matrix(0.75,0,0,0.75,0,0)"/>
<path style="fill-rule:evenodd;fill:rgb(100%,0%,0%);fill-opacity:1;stroke-width:1;stroke-linecap:butt;stroke-linejoin:miter;stroke:rgb(100%,0%,0%);stroke-opacity:1;stroke-miterlimit:4;" d="M 272 210.901042 L 273.697917 214.802083 L 289.901042 210.098958 Z M 272 210.901042 " transform="matrix(0.75,0,0,0.75,0,0)"/>
<path style="fill:none;stroke-width:1;stroke-linecap:butt;stroke-linejoin:miter;stroke:rgb(0%,0%,0%);stroke-opacity:1;stroke-miterlimit:4;" d="M 326.802083 224.302083 L 326 225.401042 " transform="matrix(0.75,0,0,0.75,0,0)"/>
<path style="fill:none;stroke-width:1;stroke-linecap:butt;stroke-linejoin:miter;stroke:rgb(0%,0%,0%);stroke-opacity:1;stroke-miterlimit:4;" d="M 323 220.5 L 321.302083 222.802083 " transform="matrix(0.75,0,0,0.75,0,0)"/>
<path style="fill:none;stroke-width:1;stroke-linecap:butt;stroke-linejoin:miter;stroke:rgb(0%,0%,0%);stroke-opacity:1;stroke-miterlimit:4;" d="M 319.098958 216.697917 L 316.5 220.098958 " transform="matrix(0.75,0,0,0.75,0,0)"/>
<path style="fill:none;stroke-width:1;stroke-linecap:butt;stroke-linejoin:miter;stroke:rgb(100%,0%,0%);stroke-opacity:1;stroke-miterlimit:4;" d="M 315.197917 213 L 311.802083 217.5 " transform="matrix(0.75,0,0,0.75,0,0)"/>
<path style="fill:none;stroke-width:1;stroke-linecap:butt;stroke-linejoin:miter;stroke:rgb(100%,0%,0%);stroke-opacity:1;stroke-miterlimit:4;" d="M 311.302083 209.197917 L 307.098958 214.901042 " transform="matrix(0.75,0,0,0.75,0,0)"/>
<path style="fill:none;stroke-width:1;stroke-linecap:butt;stroke-linejoin:miter;stroke:rgb(100%,0%,0%);stroke-opacity:1;stroke-miterlimit:4;" d="M 307.5 205.401042 L 302.401042 212.197917 " transform="matrix(0.75,0,0,0.75,0,0)"/>
<path style="fill:none;stroke-width:2;stroke-linecap:butt;stroke-linejoin:miter;stroke:rgb(0%,0%,0%);stroke-opacity:1;stroke-miterlimit:4;" d="M 330.697917 228.098958 L 328.697917 245.5 " transform="matrix(0.75,0,0,0.75,0,0)"/>
<path style="fill:none;stroke-width:2;stroke-linecap:butt;stroke-linejoin:miter;stroke:rgb(100%,0%,0%);stroke-opacity:1;stroke-miterlimit:4;" d="M 328.697917 245.5 L 326.598958 262.901042 " transform="matrix(0.75,0,0,0.75,0,0)"/>
<path style="fill:none;stroke-width:2;stroke-linecap:butt;stroke-linejoin:miter;stroke:rgb(100%,0%,0%);stroke-opacity:1;stroke-miterlimit:4;" d="M 332.697917 275.5 L 346.302083 285.697917 " transform="matrix(0.75,0,0,0.75,0,0)"/>
<path style="fill:none;stroke-width:2;stroke-linecap:butt;stroke-linejoin:miter;stroke:rgb(0%,0%,0%);stroke-opacity:1;stroke-miterlimit:4;" d="M 346.302083 285.697917 L 359.901042 295.802083 " transform="matrix(0.75,0,0,0.75,0,0)"/>
<path style="fill:none;stroke-width:2;stroke-linecap:butt;stroke-linejoin:miter;stroke:rgb(0%,0%,0%);stroke-opacity:1;stroke-miterlimit:4;" d="M 359.901042 295.802083 L 399 279 " transform="matrix(0.75,0,0,0.75,0,0)"/>
<path style="fill:none;stroke-width:1;stroke-linecap:butt;stroke-linejoin:miter;stroke:rgb(0%,0%,0%);stroke-opacity:1;stroke-miterlimit:4;" d="M 406.197917 279.302083 L 406.098958 277.802083 " transform="matrix(0.75,0,0,0.75,0,0)"/>
<path style="fill:none;stroke-width:1;stroke-linecap:butt;stroke-linejoin:miter;stroke:rgb(0%,0%,0%);stroke-opacity:1;stroke-miterlimit:4;" d="M 413.302083 279.598958 L 413.098958 276.697917 " transform="matrix(0.75,0,0,0.75,0,0)"/>
<path style="fill:none;stroke-width:1;stroke-linecap:butt;stroke-linejoin:miter;stroke:rgb(0%,0%,0%);stroke-opacity:1;stroke-miterlimit:4;" d="M 420.401042 279.802083 L 420.197917 275.598958 " transform="matrix(0.75,0,0,0.75,0,0)"/>
<path style="fill:none;stroke-width:1;stroke-linecap:butt;stroke-linejoin:miter;stroke:rgb(0%,0%,0%);stroke-opacity:1;stroke-miterlimit:4;" d="M 427.5 280.098958 L 427.197917 274.5 " transform="matrix(0.75,0,0,0.75,0,0)"/>
<path style="fill:none;stroke-width:1;stroke-linecap:butt;stroke-linejoin:miter;stroke:rgb(0%,0%,0%);stroke-opacity:1;stroke-miterlimit:4;" d="M 434.697917 280.401042 L 434.302083 273.401042 " transform="matrix(0.75,0,0,0.75,0,0)"/>
<path style="fill:none;stroke-width:1;stroke-linecap:butt;stroke-linejoin:miter;stroke:rgb(0%,0%,0%);stroke-opacity:1;stroke-miterlimit:4;" d="M 441.802083 280.697917 L 441.302083 272.197917 " transform="matrix(0.75,0,0,0.75,0,0)"/>
<path style="fill:none;stroke-width:2;stroke-linecap:butt;stroke-linejoin:miter;stroke:rgb(0%,0%,0%);stroke-opacity:1;stroke-miterlimit:4;" d="M 399 279 L 403.098958 295.901042 " transform="matrix(0.75,0,0,0.75,0,0)"/>
<path style="fill:none;stroke-width:2;stroke-linecap:butt;stroke-linejoin:miter;stroke:rgb(100%,0%,0%);stroke-opacity:1;stroke-miterlimit:4;" d="M 403.098958 295.901042 L 407.098958 312.901042 " transform="matrix(0.75,0,0,0.75,0,0)"/>
<path style="fill:none;stroke-width:2;stroke-linecap:butt;stroke-linejoin:miter;stroke:rgb(0%,0%,0%);stroke-opacity:1;stroke-miterlimit:4;" d="M 399 279 L 404 236.598958 " transform="matrix(0.75,0,0,0.75,0,0)"/>
<path style="fill-rule:evenodd;fill:rgb(0%,0%,0%);fill-opacity:1;stroke-width:1;stroke-linecap:butt;stroke-linejoin:miter;stroke:rgb(0%,0%,0%);stroke-opacity:1;stroke-miterlimit:4;" d="M 404 236.598958 L 419 227.901042 L 420.697917 231.802083 Z M 404 236.598958 " transform="matrix(0.75,0,0,0.75,0,0)"/>
<path style="fill-rule:evenodd;fill:rgb(0%,0%,100%);fill-opacity:1;stroke-width:1;stroke-linecap:butt;stroke-linejoin:miter;stroke:rgb(0%,0%,100%);stroke-opacity:1;stroke-miterlimit:4;" d="M 419 227.901042 L 437.401042 226.901042 L 434 219.098958 Z M 419 227.901042 " transform="matrix(0.75,0,0,0.75,0,0)"/>
<path style="fill-rule:evenodd;fill:rgb(0%,0%,100%);fill-opacity:1;stroke-width:1;stroke-linecap:butt;stroke-linejoin:miter;stroke:rgb(0%,0%,100%);stroke-opacity:1;stroke-miterlimit:4;" d="M 419 227.901042 L 420.697917 231.802083 L 437.401042 226.901042 Z M 419 227.901042 " transform="matrix(0.75,0,0,0.75,0,0)"/>
<path style="fill:none;stroke-width:2;stroke-linecap:butt;stroke-linejoin:miter;stroke:rgb(0%,0%,100%);stroke-opacity:1;stroke-miterlimit:4;" d="M 449.098958 224.197917 L 463.197917 234.697917 " transform="matrix(0.75,0,0,0.75,0,0)"/>
<path style="fill:none;stroke-width:2;stroke-linecap:butt;stroke-linejoin:miter;stroke:rgb(0%,0%,0%);stroke-opacity:1;stroke-miterlimit:4;" d="M 463.197917 234.697917 L 477.302083 245.197917 " transform="matrix(0.75,0,0,0.75,0,0)"/>
<path style="fill:none;stroke-width:2;stroke-linecap:butt;stroke-linejoin:miter;stroke:rgb(0%,0%,0%);stroke-opacity:1;stroke-miterlimit:4;" d="M 404 236.598958 L 369.802083 211.197917 " transform="matrix(0.75,0,0,0.75,0,0)"/>
<path style="fill:none;stroke-width:1;stroke-linecap:butt;stroke-linejoin:miter;stroke:rgb(0%,0%,0%);stroke-opacity:1;stroke-miterlimit:4;" d="M 371.197917 205.697917 L 369.802083 205.598958 " transform="matrix(0.75,0,0,0.75,0,0)"/>
<path style="fill:none;stroke-width:1;stroke-linecap:butt;stroke-linejoin:miter;stroke:rgb(0%,0%,0%);stroke-opacity:1;stroke-miterlimit:4;" d="M 372.5 200.302083 L 369.697917 200 " transform="matrix(0.75,0,0,0.75,0,0)"/>
<path style="fill:none;stroke-width:1;stroke-linecap:butt;stroke-linejoin:miter;stroke:rgb(0%,0%,0%);stroke-opacity:1;stroke-miterlimit:4;" d="M 373.901042 194.802083 L 369.697917 194.302083 " transform="matrix(0.75,0,0,0.75,0,0)"/>
<path style="fill:none;stroke-width:1;stroke-linecap:butt;stroke-linejoin:miter;stroke:rgb(100%,0%,0%);stroke-opacity:1;stroke-miterlimit:4;" d="M 375.302083 189.401042 L 369.598958 188.697917 " transform="matrix(0.75,0,0,0.75,0,0)"/>
<path style="fill:none;stroke-width:1;stroke-linecap:butt;stroke-linejoin:miter;stroke:rgb(100%,0%,0%);stroke-opacity:1;stroke-miterlimit:4;" d="M 376.598958 183.901042 L 369.598958 183.098958 " transform="matrix(0.75,0,0,0.75,0,0)"/>
<path style="fill:none;stroke-width:1;stroke-linecap:butt;stroke-linejoin:miter;stroke:rgb(100%,0%,0%);stroke-opacity:1;stroke-miterlimit:4;" d="M 378 178.5 L 369.5 177.5 " transform="matrix(0.75,0,0,0.75,0,0)"/>
<path style="fill:none;stroke-width:2;stroke-linecap:butt;stroke-linejoin:miter;stroke:rgb(0%,0%,0%);stroke-opacity:1;stroke-miterlimit:4;" d="M 257.401042 219.5 L 223.302083 194 " transform="matrix(0.75,0,0,0.75,0,0)"/>
<path style="fill:none;stroke-width:1;stroke-linecap:butt;stroke-linejoin:miter;stroke:rgb(0%,0%,0%);stroke-opacity:1;stroke-miterlimit:4;" d="M 224.598958 188.598958 L 223.197917 188.401042 " transform="matrix(0.75,0,0,0.75,0,0)"/>
<path style="fill:none;stroke-width:1;stroke-linecap:butt;stroke-linejoin:miter;stroke:rgb(0%,0%,0%);stroke-opacity:1;stroke-miterlimit:4;" d="M 226 183.098958 L 223.197917 182.802083 " transform="matrix(0.75,0,0,0.75,0,0)"/>
<path style="fill:none;stroke-width:1;stroke-linecap:butt;stroke-linejoin:miter;stroke:rgb(0%,0%,0%);stroke-opacity:1;stroke-miterlimit:4;" d="M 227.302083 177.697917 L 223.098958 177.197917 " transform="matrix(0.75,0,0,0.75,0,0)"/>
<path style="fill:none;stroke-width:1;stroke-linecap:butt;stroke-linejoin:miter;stroke:rgb(100%,0%,0%);stroke-opacity:1;stroke-miterlimit:4;" d="M 228.697917 172.197917 L 223.098958 171.5 " transform="matrix(0.75,0,0,0.75,0,0)"/>
<path style="fill:none;stroke-width:1;stroke-linecap:butt;stroke-linejoin:miter;stroke:rgb(100%,0%,0%);stroke-opacity:1;stroke-miterlimit:4;" d="M 230.098958 166.802083 L 223 165.901042 " transform="matrix(0.75,0,0,0.75,0,0)"/>
<path style="fill:none;stroke-width:1;stroke-linecap:butt;stroke-linejoin:miter;stroke:rgb(100%,0%,0%);stroke-opacity:1;stroke-miterlimit:4;" d="M 231.401042 161.302083 L 222.901042 160.302083 " transform="matrix(0.75,0,0,0.75,0,0)"/>
<path style="fill:none;stroke-width:2;stroke-linecap:butt;stroke-linejoin:miter;stroke:rgb(0%,0%,0%);stroke-opacity:1;stroke-miterlimit:4;" d="M 110.901042 202.302083 L 108.802083 219.697917 " transform="matrix(0.75,0,0,0.75,0,0)"/>
<path style="fill:none;stroke-width:2;stroke-linecap:butt;stroke-linejoin:miter;stroke:rgb(100%,0%,0%);stroke-opacity:1;stroke-miterlimit:4;" d="M 108.802083 219.697917 L 106.802083 237.098958 " transform="matrix(0.75,0,0,0.75,0,0)"/>
<path style="fill:none;stroke-width:2;stroke-linecap:butt;stroke-linejoin:miter;stroke:rgb(100%,0%,0%);stroke-opacity:1;stroke-miterlimit:4;" d="M 99 247.598958 L 82.901042 254.5 " transform="matrix(0.75,0,0,0.75,0,0)"/>
<path style="fill:none;stroke-width:2;stroke-linecap:butt;stroke-linejoin:miter;stroke:rgb(0%,0%,0%);stroke-opacity:1;stroke-miterlimit:4;" d="M 82.901042 254.5 L 66.802083 261.401042 " transform="matrix(0.75,0,0,0.75,0,0)"/>
<path style="fill:none;stroke-width:2;stroke-linecap:butt;stroke-linejoin:miter;stroke:rgb(0%,0%,0%);stroke-opacity:1;stroke-miterlimit:4;" d="M 223.302083 194 L 184.197917 210.901042 " transform="matrix(0.75,0,0,0.75,0,0)"/>
<path style="fill:none;stroke-width:2;stroke-linecap:butt;stroke-linejoin:miter;stroke:rgb(0%,0%,0%);stroke-opacity:1;stroke-miterlimit:4;" d="M 369.802083 211.197917 L 330.697917 228.098958 " transform="matrix(0.75,0,0,0.75,0,0)"/>
<path style=" stroke:none;fill-rule:nonzero;fill:rgb(0%,0%,100%);fill-opacity:1;" d="M 69.976562 242.398438 L 72.976562 247.199219 C 73.175781 247.5 73.425781 247.925781 73.726562 248.476562 C 74.023438 249.074219 74.199219 249.375 74.25 249.375 L 74.25 242.398438 L 75.449219 242.398438 L 75.449219 251.398438 L 74.175781 251.398438 L 71.023438 246.148438 C 70.773438 245.75 70.523438 245.324219 70.273438 244.875 C 70.023438 244.425781 69.851562 244.125 69.75 243.976562 L 69.75 251.398438 L 68.550781 251.398438 L 68.550781 242.398438 L 69.976562 242.398438 "/>
<path style=" stroke:none;fill-rule:nonzero;fill:rgb(0%,0%,100%);fill-opacity:1;" d="M 76.5 242.398438 L 77.699219 242.398438 L 77.699219 246.226562 L 82.351562 246.226562 L 82.351562 242.398438 L 83.550781 242.398438 L 83.550781 251.398438 L 82.351562 251.398438 L 82.351562 247.273438 L 77.699219 247.273438 L 77.699219 251.398438 L 76.5 251.398438 L 76.5 242.398438 "/>
<path style=" stroke:none;fill-rule:nonzero;fill:rgb(0%,0%,100%);fill-opacity:1;" d="M 59.25 96.375 L 62.25 101.175781 C 62.449219 101.476562 62.699219 101.925781 63 102.523438 C 63.300781 103.074219 63.476562 103.375 63.523438 103.425781 L 63.523438 96.375 L 64.726562 96.375 L 64.726562 105.449219 L 63.449219 105.449219 L 60.300781 100.199219 C 60.050781 99.800781 59.773438 99.351562 59.476562 98.851562 C 59.226562 98.398438 59.074219 98.101562 59.023438 97.949219 L 59.023438 105.449219 L 57.824219 105.449219 L 57.824219 96.375 L 59.25 96.375 "/>
<path style=" stroke:none;fill-rule:nonzero;fill:rgb(0%,0%,100%);fill-opacity:1;" d="M 65.773438 96.375 L 66.976562 96.375 L 66.976562 100.199219 L 71.625 100.199219 L 71.625 96.375 L 72.824219 96.375 L 72.824219 105.449219 L 71.625 105.449219 L 71.625 101.25 L 66.976562 101.25 L 66.976562 105.449219 L 65.773438 105.449219 L 65.773438 96.375 "/>
<path style=" stroke:none;fill-rule:nonzero;fill:rgb(0%,0%,100%);fill-opacity:1;" d="M 73.949219 105.074219 C 74.101562 104.726562 74.351562 104.449219 74.699219 104.25 C 75.050781 104 75.449219 103.875 75.898438 103.875 C 76.5 103.875 76.976562 104.050781 77.324219 104.398438 C 77.675781 104.699219 77.851562 105.148438 77.851562 105.75 C 77.851562 106.351562 77.625 106.925781 77.175781 107.476562 C 76.773438 108.023438 76.125 108.625 75.226562 109.273438 L 77.925781 109.273438 L 77.925781 109.949219 L 73.949219 109.949219 L 73.949219 109.351562 C 74.648438 108.851562 75.226562 108.398438 75.675781 108 C 76.125 107.601562 76.449219 107.226562 76.648438 106.875 C 76.898438 106.523438 77.023438 106.175781 77.023438 105.824219 C 77.023438 105.425781 76.925781 105.125 76.726562 104.925781 C 76.523438 104.675781 76.25 104.550781 75.898438 104.550781 C 75.601562 104.550781 75.351562 104.625 75.148438 104.773438 C 74.898438 104.925781 74.699219 105.125 74.550781 105.375 L 73.949219 105.074219 "/>
<path style=" stroke:none;fill-rule:nonzero;fill:rgb(100%,0%,0%);fill-opacity:1;" d="M 108.375 139.125 C 108.375 137.675781 108.726562 136.523438 109.425781 135.675781 C 110.125 134.875 111.148438 134.476562 112.5 134.476562 C 113.851562 134.476562 114.875 134.875 115.574219 135.675781 C 116.273438 136.523438 116.625 137.675781 116.625 139.125 C 116.625 140.574219 116.273438 141.726562 115.574219 142.574219 C 114.824219 143.375 113.800781 143.773438 112.5 143.773438 C 111.148438 143.773438 110.125 143.375 109.425781 142.574219 C 108.726562 141.726562 108.375 140.574219 108.375 139.125 M 112.5 142.726562 C 113.398438 142.726562 114.101562 142.425781 114.601562 141.824219 C 115.101562 141.226562 115.351562 140.324219 115.351562 139.125 C 115.351562 137.925781 115.101562 137.023438 114.601562 136.425781 C 114.101562 135.824219 113.398438 135.523438 112.5 135.523438 C 111.601562 135.523438 110.898438 135.824219 110.398438 136.425781 C 109.898438 137.023438 109.648438 137.925781 109.648438 139.125 C 109.648438 140.324219 109.898438 141.226562 110.398438 141.824219 C 110.898438 142.425781 111.601562 142.726562 112.5 142.726562 "/>
<path style=" stroke:none;fill-rule:nonzero;fill:rgb(0%,0%,100%);fill-opacity:1;" d="M 88.949219 198 L 90.148438 198 L 90.148438 201.824219 L 94.800781 201.824219 L 94.800781 198 L 96 198 L 96 207.074219 L 94.800781 207.074219 L 94.800781 202.875 L 90.148438 202.875 L 90.148438 207.074219 L 88.949219 207.074219 L 88.949219 198 "/>
<path style=" stroke:none;fill-rule:nonzero;fill:rgb(0%,0%,100%);fill-opacity:1;" d="M 97.125 206.699219 C 97.273438 206.351562 97.523438 206.074219 97.875 205.875 C 98.226562 205.625 98.625 205.5 99.074219 205.5 C 99.675781 205.5 100.148438 205.675781 100.5 206.023438 C 100.851562 206.375 101.023438 206.824219 101.023438 207.375 C 101.023438 207.976562 100.800781 208.550781 100.351562 209.101562 C 99.949219 209.648438 99.300781 210.25 98.398438 210.898438 L 101.101562 210.898438 L 101.101562 211.574219 L 97.125 211.574219 L 97.125 210.976562 C 97.875 210.476562 98.449219 210.023438 98.851562 209.625 C 99.300781 209.226562 99.625 208.851562 99.824219 208.5 C 100.074219 208.148438 100.199219 207.800781 100.199219 207.449219 C 100.199219 207.050781 100.101562 206.75 99.898438 206.550781 C 99.699219 206.300781 99.425781 206.175781 99.074219 206.175781 C 98.773438 206.175781 98.523438 206.25 98.324219 206.398438 C 98.125 206.550781 97.925781 206.75 97.726562 207 L 97.125 206.699219 "/>
<path style=" stroke:none;fill-rule:nonzero;fill:rgb(0%,0%,100%);fill-opacity:1;" d="M 103.050781 198 L 106.050781 202.800781 C 106.25 203.101562 106.5 203.550781 106.800781 204.148438 C 107.101562 204.699219 107.273438 205 107.324219 205.050781 L 107.324219 198 L 108.523438 198 L 108.523438 207.074219 L 107.25 207.074219 L 104.101562 201.824219 C 103.851562 201.425781 103.574219 200.976562 103.273438 200.476562 C 103.023438 200.023438 102.875 199.726562 102.824219 199.574219 L 102.824219 207.074219 L 101.625 207.074219 L 101.625 198 L 103.050781 198 "/>
<path style=" stroke:none;fill-rule:nonzero;fill:rgb(0%,0%,100%);fill-opacity:1;" d="M 213 210.898438 L 215.925781 215.699219 C 216.125 216 216.375 216.425781 216.675781 216.976562 C 217.023438 217.574219 217.199219 217.898438 217.199219 217.949219 L 217.199219 210.898438 L 218.398438 210.898438 L 218.398438 219.976562 L 217.199219 219.976562 L 213.976562 214.726562 C 213.726562 214.273438 213.476562 213.824219 213.226562 213.375 C 212.976562 212.925781 212.800781 212.625 212.699219 212.476562 L 212.699219 219.976562 L 211.574219 219.976562 L 211.574219 210.898438 L 213 210.898438 "/>
<path style=" stroke:none;fill-rule:nonzero;fill:rgb(0%,0%,100%);fill-opacity:1;" d="M 219.449219 210.898438 L 220.726562 210.898438 L 220.726562 214.726562 L 225.300781 214.726562 L 225.300781 210.898438 L 226.574219 210.898438 L 226.574219 219.976562 L 225.300781 219.976562 L 225.300781 215.773438 L 220.726562 215.773438 L 220.726562 219.976562 L 219.449219 219.976562 L 219.449219 210.898438 "/>
<path style=" stroke:none;fill-rule:nonzero;fill:rgb(0%,0%,100%);fill-opacity:1;" d="M 227.625 219.601562 C 227.773438 219.25 228.023438 218.976562 228.375 218.773438 C 228.726562 218.523438 229.148438 218.398438 229.648438 218.398438 C 230.25 218.398438 230.726562 218.574219 231.074219 218.925781 C 231.375 219.226562 231.523438 219.675781 231.523438 220.273438 C 231.523438 220.875 231.324219 221.449219 230.925781 222 C 230.476562 222.550781 229.800781 223.148438 228.898438 223.800781 L 231.675781 223.800781 L 231.675781 224.476562 L 227.625 224.476562 L 227.625 223.875 C 228.375 223.375 228.976562 222.925781 229.425781 222.523438 C 229.875 222.125 230.199219 221.75 230.398438 221.398438 C 230.601562 221.050781 230.699219 220.699219 230.699219 220.351562 C 230.699219 219.949219 230.601562 219.648438 230.398438 219.449219 C 230.25 219.199219 230 219.074219 229.648438 219.074219 C 229.351562 219.074219 229.074219 219.148438 228.824219 219.300781 C 228.625 219.398438 228.449219 219.601562 228.300781 219.898438 L 227.625 219.601562 "/>
<path style=" stroke:none;fill-rule:nonzero;fill:rgb(100%,0%,0%);fill-opacity:1;" d="M 218.25 151.949219 C 218.25 150.5 218.625 149.375 219.375 148.574219 C 220.074219 147.773438 221.101562 147.375 222.449219 147.375 C 223.75 147.375 224.773438 147.773438 225.523438 148.574219 C 226.226562 149.375 226.574219 150.5 226.574219 151.949219 C 226.574219 153.449219 226.199219 154.601562 225.449219 155.398438 C 224.75 156.25 223.75 156.675781 222.449219 156.675781 C 221.101562 156.675781 220.074219 156.25 219.375 155.398438 C 218.625 154.601562 218.25 153.449219 218.25 151.949219 M 222.449219 155.625 C 223.351562 155.625 224.050781 155.324219 224.550781 154.726562 C 225.050781 154.125 225.300781 153.199219 225.300781 151.949219 C 225.300781 150.800781 225.050781 149.925781 224.550781 149.324219 C 224.050781 148.726562 223.351562 148.425781 222.449219 148.425781 C 221.5 148.425781 220.773438 148.726562 220.273438 149.324219 C 219.773438 149.925781 219.523438 150.800781 219.523438 151.949219 C 219.523438 153.199219 219.773438 154.125 220.273438 154.726562 C 220.773438 155.324219 221.5 155.625 222.449219 155.625 "/>
<path style=" stroke:none;fill-rule:nonzero;fill:rgb(100%,0%,0%);fill-opacity:1;" d="M 240.148438 202.800781 C 240.148438 201.351562 240.523438 200.226562 241.273438 199.425781 C 241.976562 198.625 243 198.226562 244.351562 198.226562 C 245.648438 198.226562 246.675781 198.625 247.425781 199.425781 C 248.125 200.226562 248.476562 201.351562 248.476562 202.800781 C 248.476562 204.25 248.101562 205.398438 247.351562 206.25 C 246.648438 207.050781 245.648438 207.449219 244.351562 207.449219 C 243 207.449219 241.976562 207.050781 241.273438 206.25 C 240.523438 205.398438 240.148438 204.25 240.148438 202.800781 M 244.351562 206.476562 C 245.25 206.476562 245.949219 206.175781 246.449219 205.574219 C 246.949219 204.925781 247.199219 204 247.199219 202.800781 C 247.199219 201.601562 246.949219 200.699219 246.449219 200.101562 C 245.949219 199.5 245.25 199.199219 244.351562 199.199219 C 243.398438 199.199219 242.675781 199.5 242.175781 200.101562 C 241.675781 200.699219 241.425781 201.601562 241.425781 202.800781 C 241.425781 204 241.675781 204.925781 242.175781 205.574219 C 242.675781 206.175781 243.398438 206.476562 244.351562 206.476562 "/>
<path style=" stroke:none;fill-rule:nonzero;fill:rgb(100%,0%,0%);fill-opacity:1;" d="M 302.476562 240.300781 C 302.476562 238.851562 302.824219 237.726562 303.523438 236.925781 C 304.273438 236.125 305.300781 235.726562 306.601562 235.726562 C 307.949219 235.726562 308.976562 236.125 309.675781 236.925781 C 310.425781 237.726562 310.800781 238.851562 310.800781 240.300781 C 310.800781 241.800781 310.425781 242.949219 309.675781 243.75 C 308.976562 244.601562 307.949219 245.023438 306.601562 245.023438 C 305.300781 245.023438 304.273438 244.601562 303.523438 243.75 C 302.824219 242.949219 302.476562 241.800781 302.476562 240.300781 M 306.601562 243.976562 C 307.550781 243.976562 308.273438 243.675781 308.773438 243.074219 C 309.273438 242.476562 309.523438 241.550781 309.523438 240.300781 C 309.523438 239.148438 309.273438 238.273438 308.773438 237.675781 C 308.273438 237.074219 307.550781 236.773438 306.601562 236.773438 C 305.699219 236.773438 305 237.074219 304.5 237.675781 C 304 238.273438 303.75 239.148438 303.75 240.300781 C 303.75 241.550781 304 242.476562 304.5 243.074219 C 305 243.675781 305.699219 243.976562 306.601562 243.976562 "/>
<path style=" stroke:none;fill-rule:nonzero;fill:rgb(100%,0%,0%);fill-opacity:1;" d="M 311.398438 235.800781 L 312.675781 235.800781 L 312.675781 239.699219 L 317.25 239.699219 L 317.25 235.800781 L 318.523438 235.800781 L 318.523438 244.875 L 317.25 244.875 L 317.25 240.675781 L 312.675781 240.675781 L 312.675781 244.875 L 311.398438 244.875 L 311.398438 235.800781 "/>
<path style=" stroke:none;fill-rule:nonzero;fill:rgb(0%,0%,100%);fill-opacity:1;" d="M 330.300781 160.351562 L 333.300781 165.074219 C 333.5 165.425781 333.75 165.875 334.050781 166.425781 C 334.398438 167.023438 334.574219 167.324219 334.574219 167.324219 L 334.574219 160.351562 L 335.773438 160.351562 L 335.773438 169.351562 L 334.5 169.351562 L 331.351562 164.101562 C 331.101562 163.699219 330.851562 163.273438 330.601562 162.824219 C 330.351562 162.324219 330.175781 162.023438 330.074219 161.925781 L 330.074219 169.351562 L 328.875 169.351562 L 328.875 160.351562 L 330.300781 160.351562 "/>
<path style=" stroke:none;fill-rule:nonzero;fill:rgb(0%,0%,100%);fill-opacity:1;" d="M 328.800781 150.375 L 330 150.375 L 330 154.199219 L 334.648438 154.199219 L 334.648438 150.375 L 335.851562 150.375 L 335.851562 159.449219 L 334.648438 159.449219 L 334.648438 155.25 L 330 155.25 L 330 159.449219 L 328.800781 159.449219 L 328.800781 150.375 "/>
<path style=" stroke:none;fill-rule:nonzero;fill:rgb(100%,0%,0%);fill-opacity:1;" d="M 276.976562 126.675781 C 276.976562 125.226562 277.324219 124.101562 278.023438 123.300781 C 278.726562 122.5 279.75 122.101562 281.101562 122.101562 C 282.449219 122.101562 283.476562 122.5 284.175781 123.300781 C 284.875 124.101562 285.226562 125.226562 285.226562 126.675781 C 285.226562 128.175781 284.875 129.324219 284.175781 130.125 C 283.425781 130.976562 282.398438 131.398438 281.101562 131.398438 C 279.75 131.398438 278.726562 130.976562 278.023438 130.125 C 277.324219 129.324219 276.976562 128.175781 276.976562 126.675781 M 281.101562 130.351562 C 282 130.351562 282.699219 130.050781 283.199219 129.449219 C 283.699219 128.800781 283.949219 127.875 283.949219 126.675781 C 283.949219 125.523438 283.699219 124.648438 283.199219 124.050781 C 282.699219 123.449219 282 123.148438 281.101562 123.148438 C 280.199219 123.148438 279.5 123.425781 279 123.976562 C 278.5 124.574219 278.25 125.476562 278.25 126.675781 C 278.25 127.925781 278.5 128.851562 279 129.449219 C 279.5 130.050781 280.199219 130.351562 281.101562 130.351562 "/>
<path style=" stroke:none;fill-rule:nonzero;fill:rgb(100%,0%,0%);fill-opacity:1;" d="M 285.898438 122.175781 L 287.101562 122.175781 L 287.101562 126.074219 L 291.75 126.074219 L 291.75 122.175781 L 292.949219 122.175781 L 292.949219 131.25 L 291.75 131.25 L 291.75 127.050781 L 287.101562 127.050781 L 287.101562 131.25 L 285.898438 131.25 L 285.898438 122.175781 "/>
<path style=" stroke:none;fill-rule:nonzero;fill:rgb(100%,0%,0%);fill-opacity:1;" d="M 167.023438 113.773438 C 167.023438 112.324219 167.375 111.199219 168.074219 110.398438 C 168.824219 109.601562 169.851562 109.199219 171.148438 109.199219 C 172.5 109.199219 173.523438 109.601562 174.226562 110.398438 C 174.976562 111.199219 175.351562 112.324219 175.351562 113.773438 C 175.351562 115.273438 174.976562 116.425781 174.226562 117.226562 C 173.523438 118.074219 172.5 118.5 171.148438 118.5 C 169.851562 118.5 168.824219 118.074219 168.074219 117.226562 C 167.375 116.425781 167.023438 115.273438 167.023438 113.773438 M 171.148438 117.449219 C 172.101562 117.449219 172.824219 117.148438 173.324219 116.550781 C 173.824219 115.949219 174.074219 115.023438 174.074219 113.773438 C 174.074219 112.625 173.824219 111.75 173.324219 111.148438 C 172.824219 110.550781 172.101562 110.25 171.148438 110.25 C 170.25 110.25 169.550781 110.550781 169.050781 111.148438 C 168.550781 111.75 168.300781 112.625 168.300781 113.773438 C 168.300781 115.023438 168.550781 115.949219 169.050781 116.550781 C 169.550781 117.148438 170.25 117.449219 171.148438 117.449219 "/>
<path style=" stroke:none;fill-rule:nonzero;fill:rgb(100%,0%,0%);fill-opacity:1;" d="M 175.949219 109.273438 L 177.226562 109.273438 L 177.226562 113.175781 L 181.800781 113.175781 L 181.800781 109.273438 L 183.074219 109.273438 L 183.074219 118.351562 L 181.800781 118.351562 L 181.800781 114.148438 L 177.226562 114.148438 L 177.226562 118.351562 L 175.949219 118.351562 L 175.949219 109.273438 "/>
<path style=" stroke:none;fill-rule:nonzero;fill:rgb(100%,0%,0%);fill-opacity:1;" d="M 75.300781 183.449219 C 75.300781 182 75.648438 180.875 76.351562 180.074219 C 77.101562 179.273438 78.125 178.875 79.425781 178.875 C 80.773438 178.875 81.800781 179.273438 82.5 180.074219 C 83.25 180.875 83.625 182 83.625 183.449219 C 83.625 184.949219 83.25 186.101562 82.5 186.898438 C 81.800781 187.75 80.773438 188.175781 79.425781 188.175781 C 78.125 188.175781 77.101562 187.75 76.351562 186.898438 C 75.648438 186.101562 75.300781 184.949219 75.300781 183.449219 M 79.425781 187.125 C 80.375 187.125 81.101562 186.824219 81.601562 186.226562 C 82.101562 185.574219 82.351562 184.648438 82.351562 183.449219 C 82.351562 182.300781 82.101562 181.425781 81.601562 180.824219 C 81.101562 180.226562 80.375 179.925781 79.425781 179.925781 C 78.523438 179.925781 77.824219 180.199219 77.324219 180.75 C 76.824219 181.351562 76.574219 182.25 76.574219 183.449219 C 76.574219 184.699219 76.824219 185.625 77.324219 186.226562 C 77.824219 186.824219 78.523438 187.125 79.425781 187.125 "/>
</g>
</svg>
