<?xml version="1.0" encoding="UTF-8"?>
<svg xmlns="http://www.w3.org/2000/svg" xmlns:xlink="http://www.w3.org/1999/xlink" width="375pt" height="375pt" viewBox="0 0 375 375" version="1.1">
<g id="surface361">
<rect x="0" y="0" width="375" height="375" style="fill:rgb(100%,100%,100%);fill-opacity:1;stroke:none;"/>
<path style="fill:none;stroke-width:2;stroke-linecap:butt;stroke-linejoin:miter;stroke:rgb(0%,0%,0%);stroke-opacity:1;stroke-miterlimit:4;" d="M 332.901042 428.697917 L 343.401042 418.197917 " transform="matrix(0.75,0,0,0.75,0,0)"/>
<path style="fill:none;stroke-width:2;stroke-linecap:butt;stroke-linejoin:miter;stroke:rgb(100%,0%,0%);stroke-opacity:1;stroke-miterlimit:4;" d="M 343.401042 418.197917 L 353.901042 407.802083 " transform="matrix(0.75,0,0,0.75,0,0)"/>
<path style="fill:none;stroke-width:2;stroke-linecap:butt;stroke-linejoin:miter;stroke:rgb(100%,0%,0%);stroke-opacity:1;stroke-miterlimit:4;" d="M 358.401042 394.802083 L 354.401042 379.598958 " transform="matrix(0.75,0,0,0.75,0,0)"/>
<path style="fill:none;stroke-width:2;stroke-linecap:butt;stroke-linejoin:miter;stroke:rgb(0%,0%,0%);stroke-opacity:1;stroke-miterlimit:4;" d="M 354.401042 379.598958 L 350.401042 364.401042 " transform="matrix(0.75,0,0,0.75,0,0)"/>
<path style="fill:none;stroke-width:2;stroke-linecap:butt;stroke-linejoin:miter;stroke:rgb(0%,0%,0%);stroke-opacity:1;stroke-miterlimit:4;" d="M 350.401042 364.401042 L 320.802083 389 " transform="matrix(0.75,0,0,0.75,0,0)"/>
<path style="fill:none;stroke-width:2;stroke-linecap:butt;stroke-linejoin:miter;stroke:rgb(0%,0%,0%);stroke-opacity:1;stroke-miterlimit:4;" d="M 320.802083 389 L 285.901042 405.098958 " transform="matrix(0.75,0,0,0.75,0,0)"/>
<path style="fill:none;stroke-width:2;stroke-linecap:butt;stroke-linejoin:miter;stroke:rgb(0%,0%,0%);stroke-opacity:1;stroke-miterlimit:4;" d="M 312.401042 384.401042 L 287.901042 395.697917 " transform="matrix(0.75,0,0,0.75,0,0)"/>
<path style="fill:none;stroke-width:2;stroke-linecap:butt;stroke-linejoin:miter;stroke:rgb(0%,0%,0%);stroke-opacity:1;stroke-miterlimit:4;" d="M 285.901042 405.098958 L 270.098958 407.802083 " transform="matrix(0.75,0,0,0.75,0,0)"/>
<path style="fill:none;stroke-width:2;stroke-linecap:butt;stroke-linejoin:miter;stroke:rgb(100%,0%,0%);stroke-opacity:1;stroke-miterlimit:4;" d="M 270.098958 407.802083 L 254.302083 410.5 " transform="matrix(0.75,0,0,0.75,0,0)"/>
<path style="fill:none;stroke-width:2;stroke-linecap:butt;stroke-linejoin:miter;stroke:rgb(100%,0%,0%);stroke-opacity:1;stroke-miterlimit:4;" d="M 241.697917 408.098958 L 217.302083 394.697917 " transform="matrix(0.75,0,0,0.75,0,0)"/>
<path style="fill:none;stroke-width:2;stroke-linecap:butt;stroke-linejoin:miter;stroke:rgb(0%,0%,0%);stroke-opacity:1;stroke-miterlimit:4;" d="M 217.302083 394.697917 L 192.901042 381.302083 " transform="matrix(0.75,0,0,0.75,0,0)"/>
<path style="fill:none;stroke-width:1;stroke-linecap:butt;stroke-linejoin:miter;stroke:rgb(0%,0%,0%);stroke-opacity:1;stroke-miterlimit:4;" d="M 198 385.197917 L 198.598958 384.098958 " transform="matrix(0.75,0,0,0.75,0,0)"/>
<path style="fill:none;stroke-width:1;stroke-linecap:butt;stroke-linejoin:miter;stroke:rgb(0%,0%,0%);stroke-opacity:1;stroke-miterlimit:4;" d="M 203 389.098958 L 204.401042 387 " transform="matrix(0.75,0,0,0.75,0,0)"/>
<path style="fill:none;stroke-width:1;stroke-linecap:butt;stroke-linejoin:miter;stroke:rgb(0%,0%,0%);stroke-opacity:1;stroke-miterlimit:4;" d="M 208.098958 393.098958 L 210.197917 389.802083 " transform="matrix(0.75,0,0,0.75,0,0)"/>
<path style="fill:none;stroke-width:1;stroke-linecap:butt;stroke-linejoin:miter;stroke:rgb(0%,0%,0%);stroke-opacity:1;stroke-miterlimit:4;" d="M 213.197917 397 L 216 392.598958 " transform="matrix(0.75,0,0,0.75,0,0)"/>
<path style="fill:none;stroke-width:1;stroke-linecap:butt;stroke-linejoin:miter;stroke:rgb(0%,0%,0%);stroke-opacity:1;stroke-miterlimit:4;" d="M 218.302083 401 L 221.802083 395.5 " transform="matrix(0.75,0,0,0.75,0,0)"/>
<path style="fill:none;stroke-width:1;stroke-linecap:butt;stroke-linejoin:miter;stroke:rgb(0%,0%,0%);stroke-opacity:1;stroke-miterlimit:4;" d="M 223.401042 404.901042 L 227.5 398.302083 " transform="matrix(0.75,0,0,0.75,0,0)"/>
<path style="fill:none;stroke-width:2;stroke-linecap:butt;stroke-linejoin:miter;stroke:rgb(0%,0%,0%);stroke-opacity:1;stroke-miterlimit:4;" d="M 192.901042 381.302083 L 178.197917 387.197917 " transform="matrix(0.75,0,0,0.75,0,0)"/>
<path style="fill:none;stroke-width:2;stroke-linecap:butt;stroke-linejoin:miter;stroke:rgb(100%,0%,0%);stroke-opacity:1;stroke-miterlimit:4;" d="M 178.197917 387.197917 L 163.5 393.098958 " transform="matrix(0.75,0,0,0.75,0,0)"/>
<path style="fill:none;stroke-width:2;stroke-linecap:butt;stroke-linejoin:miter;stroke:rgb(100%,0%,0%);stroke-opacity:1;stroke-miterlimit:4;" d="M 151.5 388.901042 L 142 377.598958 " transform="matrix(0.75,0,0,0.75,0,0)"/>
<path style="fill:none;stroke-width:2;stroke-linecap:butt;stroke-linejoin:miter;stroke:rgb(0%,0%,0%);stroke-opacity:1;stroke-miterlimit:4;" d="M 142 377.598958 L 132.5 366.197917 " transform="matrix(0.75,0,0,0.75,0,0)"/>
<path style="fill:none;stroke-width:2;stroke-linecap:butt;stroke-linejoin:miter;stroke:rgb(0%,0%,0%);stroke-opacity:1;stroke-miterlimit:4;" d="M 132.5 366.197917 L 94.098958 364.901042 " transform="matrix(0.75,0,0,0.75,0,0)"/>
<path style="fill:none;stroke-width:2;stroke-linecap:butt;stroke-linejoin:miter;stroke:rgb(0%,0%,0%);stroke-opacity:1;stroke-miterlimit:4;" d="M 127 358.302083 L 100.098958 357.401042 " transform="matrix(0.75,0,0,0.75,0,0)"/>
<path style="fill:none;stroke-width:2;stroke-linecap:butt;stroke-linejoin:miter;stroke:rgb(0%,0%,0%);stroke-opacity:1;stroke-miterlimit:4;" d="M 94.098958 364.901042 L 73.697917 397.5 " transform="matrix(0.75,0,0,0.75,0,0)"/>
<path style="fill:none;stroke-width:2;stroke-linecap:butt;stroke-linejoin:miter;stroke:rgb(0%,0%,0%);stroke-opacity:1;stroke-miterlimit:4;" d="M 94.098958 364.901042 L 76 330.901042 " transform="matrix(0.75,0,0,0.75,0,0)"/>
<path style="fill:none;stroke-width:2;stroke-linecap:butt;stroke-linejoin:miter;stroke:rgb(0%,0%,0%);stroke-opacity:1;stroke-miterlimit:4;" d="M 76 330.901042 L 59.901042 330.401042 " transform="matrix(0.75,0,0,0.75,0,0)"/>
<path style="fill:none;stroke-width:2;stroke-linecap:butt;stroke-linejoin:miter;stroke:rgb(100%,0%,0%);stroke-opacity:1;stroke-miterlimit:4;" d="M 59.901042 330.401042 L 43.802083 329.802083 " transform="matrix(0.75,0,0,0.75,0,0)"/>
<path style="fill:none;stroke-width:2;stroke-linecap:butt;stroke-linejoin:miter;stroke:rgb(0%,0%,0%);stroke-opacity:1;stroke-miterlimit:4;" d="M 76 330.901042 L 96.401042 298.302083 " transform="matrix(0.75,0,0,0.75,0,0)"/>
<path style="fill:none;stroke-width:2;stroke-linecap:butt;stroke-linejoin:miter;stroke:rgb(0%,0%,0%);stroke-opacity:1;stroke-miterlimit:4;" d="M 85.598958 330.098958 L 99.802083 307.302083 " transform="matrix(0.75,0,0,0.75,0,0)"/>
<path style="fill:none;stroke-width:2;stroke-linecap:butt;stroke-linejoin:miter;stroke:rgb(0%,0%,0%);stroke-opacity:1;stroke-miterlimit:4;" d="M 96.401042 298.302083 L 78.302083 264.401042 " transform="matrix(0.75,0,0,0.75,0,0)"/>
<path style="fill:none;stroke-width:2;stroke-linecap:butt;stroke-linejoin:miter;stroke:rgb(0%,0%,0%);stroke-opacity:1;stroke-miterlimit:4;" d="M 78.302083 264.401042 L 62.197917 263.802083 " transform="matrix(0.75,0,0,0.75,0,0)"/>
<path style="fill:none;stroke-width:2;stroke-linecap:butt;stroke-linejoin:miter;stroke:rgb(100%,0%,0%);stroke-opacity:1;stroke-miterlimit:4;" d="M 62.197917 263.802083 L 46.098958 263.302083 " transform="matrix(0.75,0,0,0.75,0,0)"/>
<path style="fill:none;stroke-width:2;stroke-linecap:butt;stroke-linejoin:miter;stroke:rgb(0%,0%,0%);stroke-opacity:1;stroke-miterlimit:4;" d="M 78.302083 264.401042 L 98.697917 231.802083 " transform="matrix(0.75,0,0,0.75,0,0)"/>
<path style="fill:none;stroke-width:2;stroke-linecap:butt;stroke-linejoin:miter;stroke:rgb(0%,0%,0%);stroke-opacity:1;stroke-miterlimit:4;" d="M 87.901042 263.598958 L 102.098958 240.697917 " transform="matrix(0.75,0,0,0.75,0,0)"/>
<path style="fill:none;stroke-width:2;stroke-linecap:butt;stroke-linejoin:miter;stroke:rgb(0%,0%,0%);stroke-opacity:1;stroke-miterlimit:4;" d="M 98.697917 231.802083 L 137.098958 233.098958 " transform="matrix(0.75,0,0,0.75,0,0)"/>
<path style="fill:none;stroke-width:2;stroke-linecap:butt;stroke-linejoin:miter;stroke:rgb(0%,0%,0%);stroke-opacity:1;stroke-miterlimit:4;" d="M 137.098958 233.098958 L 157.5 200.5 " transform="matrix(0.75,0,0,0.75,0,0)"/>
<path style="fill:none;stroke-width:2;stroke-linecap:butt;stroke-linejoin:miter;stroke:rgb(0%,0%,0%);stroke-opacity:1;stroke-miterlimit:4;" d="M 157.5 200.5 L 174 201 " transform="matrix(0.75,0,0,0.75,0,0)"/>
<path style="fill:none;stroke-width:2;stroke-linecap:butt;stroke-linejoin:miter;stroke:rgb(0%,0%,100%);stroke-opacity:1;stroke-miterlimit:4;" d="M 174 201 L 190.5 201.598958 " transform="matrix(0.75,0,0,0.75,0,0)"/>
<path style="fill:none;stroke-width:2;stroke-linecap:butt;stroke-linejoin:miter;stroke:rgb(0%,0%,0%);stroke-opacity:1;stroke-miterlimit:4;" d="M 162.098958 208.302083 L 173.697917 208.697917 " transform="matrix(0.75,0,0,0.75,0,0)"/>
<path style="fill:none;stroke-width:2;stroke-linecap:butt;stroke-linejoin:miter;stroke:rgb(0%,0%,100%);stroke-opacity:1;stroke-miterlimit:4;" d="M 173.697917 208.697917 L 185.302083 209.098958 " transform="matrix(0.75,0,0,0.75,0,0)"/>
<path style="fill:none;stroke-width:2;stroke-linecap:butt;stroke-linejoin:miter;stroke:rgb(0%,0%,100%);stroke-opacity:1;stroke-miterlimit:4;" d="M 200.098958 195.098958 L 212.098958 175.901042 " transform="matrix(0.75,0,0,0.75,0,0)"/>
<path style="fill:none;stroke-width:2;stroke-linecap:butt;stroke-linejoin:miter;stroke:rgb(0%,0%,100%);stroke-opacity:1;stroke-miterlimit:4;" d="M 221.697917 169.401042 L 238.197917 169.901042 " transform="matrix(0.75,0,0,0.75,0,0)"/>
<path style="fill:none;stroke-width:2;stroke-linecap:butt;stroke-linejoin:miter;stroke:rgb(0%,0%,0%);stroke-opacity:1;stroke-miterlimit:4;" d="M 238.197917 169.901042 L 254.697917 170.5 " transform="matrix(0.75,0,0,0.75,0,0)"/>
<path style="fill:none;stroke-width:2;stroke-linecap:butt;stroke-linejoin:miter;stroke:rgb(0%,0%,0%);stroke-opacity:1;stroke-miterlimit:4;" d="M 254.697917 170.5 L 275.098958 137.901042 " transform="matrix(0.75,0,0,0.75,0,0)"/>
<path style="fill:none;stroke-width:2;stroke-linecap:butt;stroke-linejoin:miter;stroke:rgb(0%,0%,0%);stroke-opacity:1;stroke-miterlimit:4;" d="M 275.098958 137.901042 L 267.802083 124.302083 " transform="matrix(0.75,0,0,0.75,0,0)"/>
<path style="fill:none;stroke-width:2;stroke-linecap:butt;stroke-linejoin:miter;stroke:rgb(0%,0%,100%);stroke-opacity:1;stroke-miterlimit:4;" d="M 267.802083 124.302083 L 260.598958 110.697917 " transform="matrix(0.75,0,0,0.75,0,0)"/>
<path style="fill:none;stroke-width:2;stroke-linecap:butt;stroke-linejoin:miter;stroke:rgb(0%,0%,100%);stroke-opacity:1;stroke-miterlimit:4;" d="M 261.197917 97.197917 L 269.302083 84.302083 " transform="matrix(0.75,0,0,0.75,0,0)"/>
<path style="fill:none;stroke-width:2;stroke-linecap:butt;stroke-linejoin:miter;stroke:rgb(0%,0%,0%);stroke-opacity:1;stroke-miterlimit:4;" d="M 269.302083 84.302083 L 277.401042 71.302083 " transform="matrix(0.75,0,0,0.75,0,0)"/>
<path style="fill:none;stroke-width:2;stroke-linecap:butt;stroke-linejoin:miter;stroke:rgb(0%,0%,100%);stroke-opacity:1;stroke-miterlimit:4;" d="M 251.598958 103.802083 L 235.098958 103.197917 " transform="matrix(0.75,0,0,0.75,0,0)"/>
<path style="fill:none;stroke-width:2;stroke-linecap:butt;stroke-linejoin:miter;stroke:rgb(0%,0%,0%);stroke-opacity:1;stroke-miterlimit:4;" d="M 235.098958 103.197917 L 218.598958 102.598958 " transform="matrix(0.75,0,0,0.75,0,0)"/>
<path style="fill:none;stroke-width:2;stroke-linecap:butt;stroke-linejoin:miter;stroke:rgb(0%,0%,0%);stroke-opacity:1;stroke-miterlimit:4;" d="M 218.598958 102.598958 L 198.197917 135.197917 " transform="matrix(0.75,0,0,0.75,0,0)"/>
<path style="fill:none;stroke-width:2;stroke-linecap:butt;stroke-linejoin:miter;stroke:rgb(0%,0%,0%);stroke-opacity:1;stroke-miterlimit:4;" d="M 137.098958 233.098958 L 155.197917 267 " transform="matrix(0.75,0,0,0.75,0,0)"/>
<path style="fill:none;stroke-width:2;stroke-linecap:butt;stroke-linejoin:miter;stroke:rgb(0%,0%,0%);stroke-opacity:1;stroke-miterlimit:4;" d="M 133 241.802083 L 145.697917 265.598958 " transform="matrix(0.75,0,0,0.75,0,0)"/>
<path style="fill:none;stroke-width:2;stroke-linecap:butt;stroke-linejoin:miter;stroke:rgb(0%,0%,0%);stroke-opacity:1;stroke-miterlimit:4;" d="M 155.197917 267 L 171.197917 267.598958 " transform="matrix(0.75,0,0,0.75,0,0)"/>
<path style="fill:none;stroke-width:2;stroke-linecap:butt;stroke-linejoin:miter;stroke:rgb(100%,0%,0%);stroke-opacity:1;stroke-miterlimit:4;" d="M 171.197917 267.598958 L 187.302083 268.197917 " transform="matrix(0.75,0,0,0.75,0,0)"/>
<path style="fill:none;stroke-width:2;stroke-linecap:butt;stroke-linejoin:miter;stroke:rgb(0%,0%,0%);stroke-opacity:1;stroke-miterlimit:4;" d="M 155.197917 267 L 134.802083 299.697917 " transform="matrix(0.75,0,0,0.75,0,0)"/>
<path style="fill:none;stroke-width:2;stroke-linecap:butt;stroke-linejoin:miter;stroke:rgb(0%,0%,0%);stroke-opacity:1;stroke-miterlimit:4;" d="M 134.802083 299.697917 L 152.802083 333.598958 " transform="matrix(0.75,0,0,0.75,0,0)"/>
<path style="fill:none;stroke-width:2;stroke-linecap:butt;stroke-linejoin:miter;stroke:rgb(0%,0%,0%);stroke-opacity:1;stroke-miterlimit:4;" d="M 130.697917 308.401042 L 143.401042 332.098958 " transform="matrix(0.75,0,0,0.75,0,0)"/>
<path style="fill:none;stroke-width:2;stroke-linecap:butt;stroke-linejoin:miter;stroke:rgb(0%,0%,0%);stroke-opacity:1;stroke-miterlimit:4;" d="M 152.802083 333.598958 L 190.197917 342.901042 " transform="matrix(0.75,0,0,0.75,0,0)"/>
<path style="fill:none;stroke-width:2;stroke-linecap:butt;stroke-linejoin:miter;stroke:rgb(0%,0%,0%);stroke-opacity:1;stroke-miterlimit:4;" d="M 187.697917 340 L 199.302083 330.197917 " transform="matrix(0.75,0,0,0.75,0,0)"/>
<path style="fill:none;stroke-width:2;stroke-linecap:butt;stroke-linejoin:miter;stroke:rgb(100%,0%,0%);stroke-opacity:1;stroke-miterlimit:4;" d="M 199.302083 330.197917 L 210.901042 320.5 " transform="matrix(0.75,0,0,0.75,0,0)"/>
<path style="fill:none;stroke-width:2;stroke-linecap:butt;stroke-linejoin:miter;stroke:rgb(0%,0%,0%);stroke-opacity:1;stroke-miterlimit:4;" d="M 192.598958 345.802083 L 204.197917 336.098958 " transform="matrix(0.75,0,0,0.75,0,0)"/>
<path style="fill:none;stroke-width:2;stroke-linecap:butt;stroke-linejoin:miter;stroke:rgb(100%,0%,0%);stroke-opacity:1;stroke-miterlimit:4;" d="M 204.197917 336.098958 L 215.802083 326.401042 " transform="matrix(0.75,0,0,0.75,0,0)"/>
<path style="fill:none;stroke-width:2;stroke-linecap:butt;stroke-linejoin:miter;stroke:rgb(0%,0%,0%);stroke-opacity:1;stroke-miterlimit:4;" d="M 98.697917 231.802083 L 104.098958 217.098958 " transform="matrix(0.75,0,0,0.75,0,0)"/>
<path style="fill:none;stroke-width:2;stroke-linecap:butt;stroke-linejoin:miter;stroke:rgb(0%,0%,100%);stroke-opacity:1;stroke-miterlimit:4;" d="M 104.098958 217.098958 L 109.5 202.401042 " transform="matrix(0.75,0,0,0.75,0,0)"/>
<path style="fill:none;stroke-width:2;stroke-linecap:butt;stroke-linejoin:miter;stroke:rgb(0%,0%,100%);stroke-opacity:1;stroke-miterlimit:4;" d="M 116.697917 189 L 125.5 176.598958 " transform="matrix(0.75,0,0,0.75,0,0)"/>
<path style="fill:none;stroke-width:2;stroke-linecap:butt;stroke-linejoin:miter;stroke:rgb(0%,0%,0%);stroke-opacity:1;stroke-miterlimit:4;" d="M 125.5 176.598958 L 134.197917 164.302083 " transform="matrix(0.75,0,0,0.75,0,0)"/>
<path style="fill:none;stroke-width:2;stroke-linecap:butt;stroke-linejoin:miter;stroke:rgb(0%,0%,0%);stroke-opacity:1;stroke-miterlimit:4;" d="M 131.598958 167.098958 L 120.598958 157 " transform="matrix(0.75,0,0,0.75,0,0)"/>
<path style="fill:none;stroke-width:2;stroke-linecap:butt;stroke-linejoin:miter;stroke:rgb(100%,0%,0%);stroke-opacity:1;stroke-miterlimit:4;" d="M 120.598958 157 L 109.598958 146.802083 " transform="matrix(0.75,0,0,0.75,0,0)"/>
<path style="fill:none;stroke-width:2;stroke-linecap:butt;stroke-linejoin:miter;stroke:rgb(0%,0%,0%);stroke-opacity:1;stroke-miterlimit:4;" d="M 136.802083 161.5 L 125.802083 151.302083 " transform="matrix(0.75,0,0,0.75,0,0)"/>
<path style="fill:none;stroke-width:2;stroke-linecap:butt;stroke-linejoin:miter;stroke:rgb(100%,0%,0%);stroke-opacity:1;stroke-miterlimit:4;" d="M 125.802083 151.302083 L 114.901042 141.197917 " transform="matrix(0.75,0,0,0.75,0,0)"/>
<path style="fill:none;stroke-width:2;stroke-linecap:butt;stroke-linejoin:miter;stroke:rgb(0%,0%,0%);stroke-opacity:1;stroke-miterlimit:4;" d="M 134.197917 164.302083 L 163.802083 139.697917 " transform="matrix(0.75,0,0,0.75,0,0)"/>
<path style="fill:none;stroke-width:2;stroke-linecap:butt;stroke-linejoin:miter;stroke:rgb(0%,0%,0%);stroke-opacity:1;stroke-miterlimit:4;" d="M 163.802083 139.697917 L 143.302083 107.197917 " transform="matrix(0.75,0,0,0.75,0,0)"/>
<path style="fill:none;stroke-width:2;stroke-linecap:butt;stroke-linejoin:miter;stroke:rgb(0%,0%,0%);stroke-opacity:1;stroke-miterlimit:4;" d="M 163.802083 139.697917 L 198.697917 123.697917 " transform="matrix(0.75,0,0,0.75,0,0)"/>
<path style="fill:none;stroke-width:2;stroke-linecap:butt;stroke-linejoin:miter;stroke:rgb(0%,0%,0%);stroke-opacity:1;stroke-miterlimit:4;" d="M 172.197917 144.302083 L 196.697917 133.098958 " transform="matrix(0.75,0,0,0.75,0,0)"/>
<path style="fill:none;stroke-width:2;stroke-linecap:butt;stroke-linejoin:miter;stroke:rgb(0%,0%,0%);stroke-opacity:1;stroke-miterlimit:4;" d="M 198.697917 123.697917 L 236.598958 117.197917 " transform="matrix(0.75,0,0,0.75,0,0)"/>
<path style="fill:none;stroke-width:2;stroke-linecap:butt;stroke-linejoin:miter;stroke:rgb(0%,0%,0%);stroke-opacity:1;stroke-miterlimit:4;" d="M 236.598958 117.197917 L 274.901042 120.697917 " transform="matrix(0.75,0,0,0.75,0,0)"/>
<path style="fill:none;stroke-width:2;stroke-linecap:butt;stroke-linejoin:miter;stroke:rgb(0%,0%,0%);stroke-opacity:1;stroke-miterlimit:4;" d="M 241.697917 125.401042 L 268.5 127.802083 " transform="matrix(0.75,0,0,0.75,0,0)"/>
<path style="fill:none;stroke-width:2;stroke-linecap:butt;stroke-linejoin:miter;stroke:rgb(0%,0%,0%);stroke-opacity:1;stroke-miterlimit:4;" d="M 274.901042 120.697917 L 311 134 " transform="matrix(0.75,0,0,0.75,0,0)"/>
<path style="fill:none;stroke-width:2;stroke-linecap:butt;stroke-linejoin:miter;stroke:rgb(0%,0%,0%);stroke-opacity:1;stroke-miterlimit:4;" d="M 311 134 L 341.802083 111 " transform="matrix(0.75,0,0,0.75,0,0)"/>
<path style="fill:none;stroke-width:2;stroke-linecap:butt;stroke-linejoin:miter;stroke:rgb(0%,0%,0%);stroke-opacity:1;stroke-miterlimit:4;" d="M 311 134 L 342.401042 156.197917 " transform="matrix(0.75,0,0,0.75,0,0)"/>
<path style="fill:none;stroke-width:2;stroke-linecap:butt;stroke-linejoin:miter;stroke:rgb(0%,0%,0%);stroke-opacity:1;stroke-miterlimit:4;" d="M 342.401042 156.197917 L 357.098958 150.401042 " transform="matrix(0.75,0,0,0.75,0,0)"/>
<path style="fill:none;stroke-width:2;stroke-linecap:butt;stroke-linejoin:miter;stroke:rgb(100%,0%,0%);stroke-opacity:1;stroke-miterlimit:4;" d="M 357.098958 150.401042 L 371.802083 144.5 " transform="matrix(0.75,0,0,0.75,0,0)"/>
<path style="fill:none;stroke-width:2;stroke-linecap:butt;stroke-linejoin:miter;stroke:rgb(0%,0%,0%);stroke-opacity:1;stroke-miterlimit:4;" d="M 342.401042 156.197917 L 366.901042 185.802083 " transform="matrix(0.75,0,0,0.75,0,0)"/>
<path style="fill:none;stroke-width:2;stroke-linecap:butt;stroke-linejoin:miter;stroke:rgb(0%,0%,0%);stroke-opacity:1;stroke-miterlimit:4;" d="M 366.901042 185.802083 L 405.098958 181.302083 " transform="matrix(0.75,0,0,0.75,0,0)"/>
<path style="fill:none;stroke-width:2;stroke-linecap:butt;stroke-linejoin:miter;stroke:rgb(0%,0%,0%);stroke-opacity:1;stroke-miterlimit:4;" d="M 366.901042 185.802083 L 383 220.802083 " transform="matrix(0.75,0,0,0.75,0,0)"/>
<path style="fill:none;stroke-width:2;stroke-linecap:butt;stroke-linejoin:miter;stroke:rgb(0%,0%,0%);stroke-opacity:1;stroke-miterlimit:4;" d="M 383 220.802083 L 398.901042 223.098958 " transform="matrix(0.75,0,0,0.75,0,0)"/>
<path style="fill:none;stroke-width:2;stroke-linecap:butt;stroke-linejoin:miter;stroke:rgb(100%,0%,0%);stroke-opacity:1;stroke-miterlimit:4;" d="M 398.901042 223.098958 L 414.802083 225.401042 " transform="matrix(0.75,0,0,0.75,0,0)"/>
<path style="fill:none;stroke-width:2;stroke-linecap:butt;stroke-linejoin:miter;stroke:rgb(0%,0%,0%);stroke-opacity:1;stroke-miterlimit:4;" d="M 383 220.802083 L 389.5 258.697917 " transform="matrix(0.75,0,0,0.75,0,0)"/>
<path style="fill:none;stroke-width:2;stroke-linecap:butt;stroke-linejoin:miter;stroke:rgb(0%,0%,0%);stroke-opacity:1;stroke-miterlimit:4;" d="M 389.5 258.697917 L 424.802083 273.901042 " transform="matrix(0.75,0,0,0.75,0,0)"/>
<path style="fill:none;stroke-width:2;stroke-linecap:butt;stroke-linejoin:miter;stroke:rgb(0%,0%,0%);stroke-opacity:1;stroke-miterlimit:4;" d="M 389.5 258.697917 L 386 297 " transform="matrix(0.75,0,0,0.75,0,0)"/>
<path style="fill:none;stroke-width:2;stroke-linecap:butt;stroke-linejoin:miter;stroke:rgb(0%,0%,0%);stroke-opacity:1;stroke-miterlimit:4;" d="M 386 297 L 396.401042 307.401042 " transform="matrix(0.75,0,0,0.75,0,0)"/>
<path style="fill:none;stroke-width:2;stroke-linecap:butt;stroke-linejoin:miter;stroke:rgb(100%,0%,0%);stroke-opacity:1;stroke-miterlimit:4;" d="M 396.401042 307.401042 L 406.697917 317.901042 " transform="matrix(0.75,0,0,0.75,0,0)"/>
<path style="fill:none;stroke-width:2;stroke-linecap:butt;stroke-linejoin:miter;stroke:rgb(100%,0%,0%);stroke-opacity:1;stroke-miterlimit:4;" d="M 419.302083 322.598958 L 434.802083 318.598958 " transform="matrix(0.75,0,0,0.75,0,0)"/>
<path style="fill:none;stroke-width:2;stroke-linecap:butt;stroke-linejoin:miter;stroke:rgb(0%,0%,0%);stroke-opacity:1;stroke-miterlimit:4;" d="M 434.802083 318.598958 L 450.197917 314.5 " transform="matrix(0.75,0,0,0.75,0,0)"/>
<path style="fill:none;stroke-width:2;stroke-linecap:butt;stroke-linejoin:miter;stroke:rgb(0%,0%,0%);stroke-opacity:1;stroke-miterlimit:4;" d="M 450.197917 314.5 L 477.302083 341.802083 " transform="matrix(0.75,0,0,0.75,0,0)"/>
<path style="fill:none;stroke-width:2;stroke-linecap:butt;stroke-linejoin:miter;stroke:rgb(0%,0%,0%);stroke-opacity:1;stroke-miterlimit:4;" d="M 446.5 313.5 L 450.598958 298.401042 " transform="matrix(0.75,0,0,0.75,0,0)"/>
<path style="fill:none;stroke-width:2;stroke-linecap:butt;stroke-linejoin:miter;stroke:rgb(100%,0%,0%);stroke-opacity:1;stroke-miterlimit:4;" d="M 450.598958 298.401042 L 454.697917 283.401042 " transform="matrix(0.75,0,0,0.75,0,0)"/>
<path style="fill:none;stroke-width:2;stroke-linecap:butt;stroke-linejoin:miter;stroke:rgb(0%,0%,0%);stroke-opacity:1;stroke-miterlimit:4;" d="M 453.901042 315.5 L 458 300.5 " transform="matrix(0.75,0,0,0.75,0,0)"/>
<path style="fill:none;stroke-width:2;stroke-linecap:butt;stroke-linejoin:miter;stroke:rgb(100%,0%,0%);stroke-opacity:1;stroke-miterlimit:4;" d="M 458 300.5 L 462.197917 285.401042 " transform="matrix(0.75,0,0,0.75,0,0)"/>
<path style="fill:none;stroke-width:2;stroke-linecap:butt;stroke-linejoin:miter;stroke:rgb(0%,0%,0%);stroke-opacity:1;stroke-miterlimit:4;" d="M 386 297 L 372.598958 333 " transform="matrix(0.75,0,0,0.75,0,0)"/>
<path style="fill:none;stroke-width:2;stroke-linecap:butt;stroke-linejoin:miter;stroke:rgb(0%,0%,0%);stroke-opacity:1;stroke-miterlimit:4;" d="M 372.598958 333 L 395.598958 363.802083 " transform="matrix(0.75,0,0,0.75,0,0)"/>
<path style="fill:none;stroke-width:2;stroke-linecap:butt;stroke-linejoin:miter;stroke:rgb(0%,0%,0%);stroke-opacity:1;stroke-miterlimit:4;" d="M 372.598958 333 L 350.401042 364.401042 " transform="matrix(0.75,0,0,0.75,0,0)"/>
<path style="fill:none;stroke-width:2;stroke-linecap:butt;stroke-linejoin:miter;stroke:rgb(0%,0%,0%);stroke-opacity:1;stroke-miterlimit:4;" d="M 190.197917 342.901042 L 192.901042 381.302083 " transform="matrix(0.75,0,0,0.75,0,0)"/>
<path style="fill:none;stroke-width:2;stroke-linecap:butt;stroke-linejoin:miter;stroke:rgb(0%,0%,0%);stroke-opacity:1;stroke-miterlimit:4;" d="M 152.802083 333.598958 L 132.5 366.197917 " transform="matrix(0.75,0,0,0.75,0,0)"/>
<path style="fill:none;stroke-width:2;stroke-linecap:butt;stroke-linejoin:miter;stroke:rgb(0%,0%,0%);stroke-opacity:1;stroke-miterlimit:4;" d="M 134.802083 299.697917 L 96.401042 298.302083 " transform="matrix(0.75,0,0,0.75,0,0)"/>
<path style="fill:none;stroke-width:2;stroke-linecap:butt;stroke-linejoin:miter;stroke:rgb(0%,0%,0%);stroke-opacity:1;stroke-miterlimit:4;" d="M 198.197917 135.197917 L 205.401042 148.901042 " transform="matrix(0.75,0,0,0.75,0,0)"/>
<path style="fill:none;stroke-width:2;stroke-linecap:butt;stroke-linejoin:miter;stroke:rgb(0%,0%,100%);stroke-opacity:1;stroke-miterlimit:4;" d="M 205.401042 148.901042 L 212.697917 162.5 " transform="matrix(0.75,0,0,0.75,0,0)"/>
<path style="fill:none;stroke-width:1;stroke-linecap:butt;stroke-linejoin:miter;stroke:rgb(0%,0%,0%);stroke-opacity:1;stroke-miterlimit:4;" d="M 355.197917 366.598958 L 355.598958 365.302083 " transform="matrix(0.75,0,0,0.75,0,0)"/>
<path style="fill:none;stroke-width:1;stroke-linecap:butt;stroke-linejoin:miter;stroke:rgb(0%,0%,0%);stroke-opacity:1;stroke-miterlimit:4;" d="M 360 368.802083 L 360.802083 366.302083 " transform="matrix(0.75,0,0,0.75,0,0)"/>
<path style="fill:none;stroke-width:1;stroke-linecap:butt;stroke-linejoin:miter;stroke:rgb(0%,0%,0%);stroke-opacity:1;stroke-miterlimit:4;" d="M 364.802083 370.901042 L 365.901042 367.197917 " transform="matrix(0.75,0,0,0.75,0,0)"/>
<path style="fill:none;stroke-width:1;stroke-linecap:butt;stroke-linejoin:miter;stroke:rgb(0%,0%,0%);stroke-opacity:1;stroke-miterlimit:4;" d="M 369.598958 373.098958 L 371.098958 368.098958 " transform="matrix(0.75,0,0,0.75,0,0)"/>
<path style="fill:none;stroke-width:1;stroke-linecap:butt;stroke-linejoin:miter;stroke:rgb(0%,0%,0%);stroke-opacity:1;stroke-miterlimit:4;" d="M 374.401042 375.302083 L 376.302083 369.098958 " transform="matrix(0.75,0,0,0.75,0,0)"/>
<path style="fill:none;stroke-width:1;stroke-linecap:butt;stroke-linejoin:miter;stroke:rgb(0%,0%,0%);stroke-opacity:1;stroke-miterlimit:4;" d="M 379.197917 377.401042 L 381.5 370 " transform="matrix(0.75,0,0,0.75,0,0)"/>
<path style="fill-rule:evenodd;fill:rgb(0%,0%,0%);fill-opacity:1;stroke-width:1;stroke-linecap:butt;stroke-linejoin:miter;stroke:rgb(0%,0%,0%);stroke-opacity:1;stroke-miterlimit:4;" d="M 311 134 L 304.598958 104 L 312.302083 103.401042 Z M 311 134 " transform="matrix(0.75,0,0,0.75,0,0)"/>
<path style="fill-rule:evenodd;fill:rgb(0%,0%,0%);fill-opacity:1;stroke-width:1;stroke-linecap:butt;stroke-linejoin:miter;stroke:rgb(0%,0%,0%);stroke-opacity:1;stroke-miterlimit:4;" d="M 342.401042 156.197917 L 347.598958 126.401042 L 355 128.697917 Z M 342.401042 156.197917 " transform="matrix(0.75,0,0,0.75,0,0)"/>
<path style="fill:none;stroke-width:1;stroke-linecap:butt;stroke-linejoin:miter;stroke:rgb(0%,0%,0%);stroke-opacity:1;stroke-miterlimit:4;" d="M 370.697917 181.302083 L 369.401042 180.5 " transform="matrix(0.75,0,0,0.75,0,0)"/>
<path style="fill:none;stroke-width:1;stroke-linecap:butt;stroke-linejoin:miter;stroke:rgb(0%,0%,0%);stroke-opacity:1;stroke-miterlimit:4;" d="M 374.401042 176.901042 L 371.802083 175.197917 " transform="matrix(0.75,0,0,0.75,0,0)"/>
<path style="fill:none;stroke-width:1;stroke-linecap:butt;stroke-linejoin:miter;stroke:rgb(0%,0%,0%);stroke-opacity:1;stroke-miterlimit:4;" d="M 378.197917 172.401042 L 374.302083 169.901042 " transform="matrix(0.75,0,0,0.75,0,0)"/>
<path style="fill:none;stroke-width:1;stroke-linecap:butt;stroke-linejoin:miter;stroke:rgb(0%,0%,0%);stroke-opacity:1;stroke-miterlimit:4;" d="M 382 167.901042 L 376.697917 164.598958 " transform="matrix(0.75,0,0,0.75,0,0)"/>
<path style="fill:none;stroke-width:1;stroke-linecap:butt;stroke-linejoin:miter;stroke:rgb(0%,0%,0%);stroke-opacity:1;stroke-miterlimit:4;" d="M 385.697917 163.401042 L 379.098958 159.302083 " transform="matrix(0.75,0,0,0.75,0,0)"/>
<path style="fill:none;stroke-width:1;stroke-linecap:butt;stroke-linejoin:miter;stroke:rgb(0%,0%,0%);stroke-opacity:1;stroke-miterlimit:4;" d="M 387.802083 217.401042 L 386.802083 216.197917 " transform="matrix(0.75,0,0,0.75,0,0)"/>
<path style="fill:none;stroke-width:1;stroke-linecap:butt;stroke-linejoin:miter;stroke:rgb(0%,0%,0%);stroke-opacity:1;stroke-miterlimit:4;" d="M 392.598958 214 L 390.5 211.697917 " transform="matrix(0.75,0,0,0.75,0,0)"/>
<path style="fill:none;stroke-width:1;stroke-linecap:butt;stroke-linejoin:miter;stroke:rgb(0%,0%,0%);stroke-opacity:1;stroke-miterlimit:4;" d="M 397.5 210.598958 L 394.302083 207.197917 " transform="matrix(0.75,0,0,0.75,0,0)"/>
<path style="fill:none;stroke-width:1;stroke-linecap:butt;stroke-linejoin:miter;stroke:rgb(0%,0%,0%);stroke-opacity:1;stroke-miterlimit:4;" d="M 402.302083 207.197917 L 398.098958 202.598958 " transform="matrix(0.75,0,0,0.75,0,0)"/>
<path style="fill:none;stroke-width:1;stroke-linecap:butt;stroke-linejoin:miter;stroke:rgb(0%,0%,0%);stroke-opacity:1;stroke-miterlimit:4;" d="M 407.098958 203.802083 L 401.802083 198.098958 " transform="matrix(0.75,0,0,0.75,0,0)"/>
<path style="fill:none;stroke-width:1;stroke-linecap:butt;stroke-linejoin:miter;stroke:rgb(0%,0%,0%);stroke-opacity:1;stroke-miterlimit:4;" d="M 394.302083 256.901042 L 393.697917 255.697917 " transform="matrix(0.75,0,0,0.75,0,0)"/>
<path style="fill:none;stroke-width:1;stroke-linecap:butt;stroke-linejoin:miter;stroke:rgb(0%,0%,0%);stroke-opacity:1;stroke-miterlimit:4;" d="M 399.197917 255 L 398 252.802083 " transform="matrix(0.75,0,0,0.75,0,0)"/>
<path style="fill:none;stroke-width:1;stroke-linecap:butt;stroke-linejoin:miter;stroke:rgb(0%,0%,0%);stroke-opacity:1;stroke-miterlimit:4;" d="M 404 253.197917 L 402.197917 249.802083 " transform="matrix(0.75,0,0,0.75,0,0)"/>
<path style="fill:none;stroke-width:1;stroke-linecap:butt;stroke-linejoin:miter;stroke:rgb(0%,0%,0%);stroke-opacity:1;stroke-miterlimit:4;" d="M 408.901042 251.401042 L 406.5 246.802083 " transform="matrix(0.75,0,0,0.75,0,0)"/>
<path style="fill:none;stroke-width:1;stroke-linecap:butt;stroke-linejoin:miter;stroke:rgb(0%,0%,0%);stroke-opacity:1;stroke-miterlimit:4;" d="M 413.697917 249.598958 L 410.697917 243.901042 " transform="matrix(0.75,0,0,0.75,0,0)"/>
<path style="fill:none;stroke-width:1;stroke-linecap:butt;stroke-linejoin:miter;stroke:rgb(0%,0%,0%);stroke-opacity:1;stroke-miterlimit:4;" d="M 418.5 247.802083 L 414.901042 240.901042 " transform="matrix(0.75,0,0,0.75,0,0)"/>
<path style="fill-rule:evenodd;fill:rgb(0%,0%,0%);fill-opacity:1;stroke-width:1;stroke-linecap:butt;stroke-linejoin:miter;stroke:rgb(0%,0%,0%);stroke-opacity:1;stroke-miterlimit:4;" d="M 386 297 L 415.802083 286.197917 L 417.5 293.802083 Z M 386 297 " transform="matrix(0.75,0,0,0.75,0,0)"/>
<path style="fill-rule:evenodd;fill:rgb(0%,0%,0%);fill-opacity:1;stroke-width:1;stroke-linecap:butt;stroke-linejoin:miter;stroke:rgb(0%,0%,0%);stroke-opacity:1;stroke-miterlimit:4;" d="M 372.598958 333 L 404.401042 334.302083 L 403.098958 341.901042 Z M 372.598958 333 " transform="matrix(0.75,0,0,0.75,0,0)"/>
<path style=" stroke:none;fill-rule:nonzero;fill:rgb(100%,0%,0%);fill-opacity:1;" d="M 266.398438 301.199219 C 266.398438 299.898438 266.726562 298.898438 267.375 298.199219 C 268.023438 297.449219 268.949219 297.074219 270.148438 297.074219 C 271.351562 297.074219 272.273438 297.449219 272.925781 298.199219 C 273.574219 298.898438 273.898438 299.898438 273.898438 301.199219 C 273.898438 302.550781 273.574219 303.601562 272.925781 304.351562 C 272.273438 305.101562 271.351562 305.476562 270.148438 305.476562 C 268.949219 305.476562 268.023438 305.101562 267.375 304.351562 C 266.726562 303.601562 266.398438 302.550781 266.398438 301.199219 M 270.148438 304.574219 C 271 304.574219 271.625 304.273438 272.023438 303.675781 C 272.523438 303.125 272.773438 302.300781 272.773438 301.199219 C 272.773438 300.148438 272.523438 299.351562 272.023438 298.800781 C 271.625 298.25 271 297.976562 270.148438 297.976562 C 269.300781 297.976562 268.648438 298.25 268.199219 298.800781 C 267.75 299.351562 267.523438 300.148438 267.523438 301.199219 C 267.523438 302.300781 267.75 303.125 268.199219 303.675781 C 268.648438 304.273438 269.300781 304.574219 270.148438 304.574219 "/>
<path style=" stroke:none;fill-rule:nonzero;fill:rgb(100%,0%,0%);fill-opacity:1;" d="M 182.25 308.699219 C 182.25 307.398438 182.574219 306.375 183.226562 305.625 C 183.875 304.875 184.800781 304.5 186 304.5 C 187.199219 304.5 188.125 304.875 188.773438 305.625 C 189.425781 306.375 189.75 307.398438 189.75 308.699219 C 189.75 310 189.425781 311.023438 188.773438 311.773438 C 188.125 312.523438 187.199219 312.898438 186 312.898438 C 184.800781 312.898438 183.875 312.523438 183.226562 311.773438 C 182.574219 311.023438 182.25 310 182.25 308.699219 M 186 312 C 186.851562 312 187.5 311.726562 187.949219 311.175781 C 188.398438 310.625 188.625 309.800781 188.625 308.699219 C 188.625 307.601562 188.398438 306.800781 187.949219 306.300781 C 187.5 305.75 186.851562 305.476562 186 305.476562 C 185.148438 305.476562 184.5 305.75 184.050781 306.300781 C 183.601562 306.800781 183.375 307.601562 183.375 308.699219 C 183.375 309.800781 183.601562 310.625 184.050781 311.175781 C 184.5 311.726562 185.148438 312 186 312 "/>
<path style=" stroke:none;fill-rule:nonzero;fill:rgb(100%,0%,0%);fill-opacity:1;" d="M 114.148438 296.773438 C 114.148438 295.476562 114.476562 294.449219 115.125 293.699219 C 115.773438 293 116.699219 292.648438 117.898438 292.648438 C 119.101562 292.648438 120.023438 293 120.675781 293.699219 C 121.324219 294.449219 121.648438 295.476562 121.648438 296.773438 C 121.648438 298.125 121.324219 299.175781 120.675781 299.925781 C 120.023438 300.625 119.101562 300.976562 117.898438 300.976562 C 116.699219 300.976562 115.773438 300.625 115.125 299.925781 C 114.476562 299.175781 114.148438 298.125 114.148438 296.773438 M 117.898438 300.074219 C 118.75 300.074219 119.398438 299.800781 119.851562 299.25 C 120.300781 298.699219 120.523438 297.875 120.523438 296.773438 C 120.523438 295.726562 120.300781 294.925781 119.851562 294.375 C 119.398438 293.824219 118.75 293.550781 117.898438 293.550781 C 117.050781 293.550781 116.398438 293.824219 115.949219 294.375 C 115.5 294.925781 115.273438 295.726562 115.273438 296.773438 C 115.273438 297.875 115.5 298.699219 115.949219 299.25 C 116.398438 299.800781 117.050781 300.074219 117.898438 300.074219 "/>
<path style=" stroke:none;fill-rule:nonzero;fill:rgb(100%,0%,0%);fill-opacity:1;" d="M 17.023438 243.148438 L 18.148438 243.148438 L 18.148438 246.675781 L 22.351562 246.675781 L 22.351562 243.148438 L 23.398438 243.148438 L 23.398438 251.324219 L 22.351562 251.324219 L 22.351562 247.574219 L 18.148438 247.574219 L 18.148438 251.324219 L 17.023438 251.324219 L 17.023438 243.148438 "/>
<path style=" stroke:none;fill-rule:nonzero;fill:rgb(100%,0%,0%);fill-opacity:1;" d="M 24.449219 247.199219 C 24.449219 245.898438 24.75 244.898438 25.351562 244.199219 C 26 243.449219 26.949219 243.074219 28.199219 243.074219 C 29.398438 243.074219 30.324219 243.449219 30.976562 244.199219 C 31.625 244.898438 31.949219 245.898438 31.949219 247.199219 C 31.949219 248.550781 31.601562 249.601562 30.898438 250.351562 C 30.25 251.101562 29.351562 251.476562 28.199219 251.476562 C 27 251.476562 26.050781 251.101562 25.351562 250.351562 C 24.75 249.601562 24.449219 248.550781 24.449219 247.199219 M 28.199219 250.574219 C 29 250.574219 29.625 250.300781 30.074219 249.75 C 30.523438 249.148438 30.75 248.300781 30.75 247.199219 C 30.75 246.148438 30.523438 245.351562 30.074219 244.800781 C 29.625 244.25 29 243.976562 28.199219 243.976562 C 27.351562 243.976562 26.699219 244.25 26.25 244.800781 C 25.800781 245.351562 25.574219 246.148438 25.574219 247.199219 C 25.574219 248.300781 25.800781 249.148438 26.25 249.75 C 26.699219 250.300781 27.351562 250.574219 28.199219 250.574219 "/>
<path style=" stroke:none;fill-rule:nonzero;fill:rgb(100%,0%,0%);fill-opacity:1;" d="M 18.75 193.273438 L 19.875 193.273438 L 19.875 196.726562 L 24.074219 196.726562 L 24.074219 193.273438 L 25.199219 193.273438 L 25.199219 201.449219 L 24.074219 201.449219 L 24.074219 197.625 L 19.875 197.625 L 19.875 201.449219 L 18.75 201.449219 L 18.75 193.273438 "/>
<path style=" stroke:none;fill-rule:nonzero;fill:rgb(100%,0%,0%);fill-opacity:1;" d="M 26.175781 197.324219 C 26.175781 196.023438 26.5 195 27.148438 194.25 C 27.75 193.5 28.675781 193.125 29.925781 193.125 C 31.125 193.125 32.050781 193.5 32.699219 194.25 C 33.351562 195 33.675781 196.023438 33.675781 197.324219 C 33.675781 198.625 33.351562 199.648438 32.699219 200.398438 C 32 201.148438 31.074219 201.523438 29.925781 201.523438 C 28.726562 201.523438 27.800781 201.148438 27.148438 200.398438 C 26.5 199.648438 26.175781 198.625 26.175781 197.324219 M 29.925781 200.625 C 30.726562 200.625 31.351562 200.351562 31.800781 199.800781 C 32.25 199.25 32.476562 198.425781 32.476562 197.324219 C 32.476562 196.226562 32.25 195.425781 31.800781 194.925781 C 31.351562 194.375 30.726562 194.101562 29.925781 194.101562 C 29.074219 194.101562 28.425781 194.375 27.976562 194.925781 C 27.523438 195.425781 27.300781 196.226562 27.300781 197.324219 C 27.300781 198.425781 27.523438 199.25 27.976562 199.800781 C 28.425781 200.351562 29.074219 200.625 29.925781 200.625 "/>
<path style=" stroke:none;fill-rule:nonzero;fill:rgb(0%,0%,100%);fill-opacity:1;" d="M 145.125 147.300781 L 147.824219 151.574219 C 147.976562 151.875 148.199219 152.273438 148.5 152.773438 C 148.75 153.324219 148.898438 153.601562 148.949219 153.601562 L 148.949219 147.300781 L 150 147.300781 L 150 155.476562 L 148.875 155.476562 L 146.023438 150.675781 C 145.824219 150.324219 145.601562 149.949219 145.351562 149.550781 C 145.101562 149.101562 144.949219 148.824219 144.898438 148.726562 L 144.898438 155.476562 L 143.851562 155.476562 L 143.851562 147.300781 L 145.125 147.300781 "/>
<path style=" stroke:none;fill-rule:nonzero;fill:rgb(0%,0%,100%);fill-opacity:1;" d="M 160.425781 122.773438 L 163.050781 127.125 C 163.25 127.425781 163.476562 127.824219 163.726562 128.324219 C 164.023438 128.824219 164.175781 129.101562 164.175781 129.148438 L 164.175781 122.773438 L 165.300781 122.773438 L 165.300781 130.949219 L 164.175781 130.949219 L 161.324219 126.226562 C 161.074219 125.875 160.824219 125.476562 160.574219 125.023438 C 160.375 124.625 160.226562 124.351562 160.125 124.199219 L 160.125 130.949219 L 159.074219 130.949219 L 159.074219 122.773438 L 160.425781 122.773438 "/>
<path style=" stroke:none;fill-rule:nonzero;fill:rgb(0%,0%,100%);fill-opacity:1;" d="M 190.949219 73.875 L 193.648438 78.226562 C 193.800781 78.476562 194.023438 78.875 194.324219 79.425781 C 194.574219 79.925781 194.726562 80.199219 194.773438 80.25 L 194.773438 73.875 L 195.824219 73.875 L 195.824219 82.050781 L 194.699219 82.050781 L 191.851562 77.324219 C 191.648438 76.976562 191.425781 76.574219 191.175781 76.125 C 190.925781 75.726562 190.773438 75.449219 190.726562 75.300781 L 190.726562 82.050781 L 189.675781 82.050781 L 189.675781 73.875 L 190.949219 73.875 "/>
<path style=" stroke:none;fill-rule:nonzero;fill:rgb(100%,0%,0%);fill-opacity:1;" d="M 141.449219 201.300781 C 141.449219 200 141.773438 198.976562 142.425781 198.226562 C 143.074219 197.523438 144 197.175781 145.199219 197.175781 C 146.398438 197.175781 147.324219 197.523438 147.976562 198.226562 C 148.625 198.976562 148.949219 200 148.949219 201.300781 C 148.949219 202.601562 148.625 203.648438 147.976562 204.449219 C 147.324219 205.148438 146.398438 205.5 145.199219 205.5 C 144 205.5 143.074219 205.148438 142.425781 204.449219 C 141.773438 203.699219 141.449219 202.648438 141.449219 201.300781 M 145.199219 204.601562 C 146 204.601562 146.625 204.324219 147.074219 203.773438 C 147.523438 203.226562 147.75 202.398438 147.75 201.300781 C 147.75 200.25 147.523438 199.449219 147.074219 198.898438 C 146.625 198.351562 146 198.074219 145.199219 198.074219 C 144.351562 198.074219 143.699219 198.351562 143.25 198.898438 C 142.800781 199.398438 142.574219 200.199219 142.574219 201.300781 C 142.574219 202.398438 142.800781 203.226562 143.25 203.773438 C 143.699219 204.324219 144.351562 204.601562 145.199219 204.601562 "/>
<path style=" stroke:none;fill-rule:nonzero;fill:rgb(100%,0%,0%);fill-opacity:1;" d="M 149.550781 197.25 L 150.601562 197.25 L 150.601562 200.699219 L 154.800781 200.699219 L 154.800781 197.25 L 155.925781 197.25 L 155.925781 205.425781 L 154.800781 205.425781 L 154.800781 201.601562 L 150.601562 201.601562 L 150.601562 205.425781 L 149.550781 205.425781 L 149.550781 197.25 "/>
<path style=" stroke:none;fill-rule:nonzero;fill:rgb(100%,0%,0%);fill-opacity:1;" d="M 160.949219 238.648438 C 160.949219 237.351562 161.273438 236.324219 161.925781 235.574219 C 162.574219 234.875 163.5 234.523438 164.699219 234.523438 C 165.898438 234.523438 166.824219 234.875 167.476562 235.574219 C 168.125 236.324219 168.449219 237.351562 168.449219 238.648438 C 168.449219 239.949219 168.125 241 167.476562 241.800781 C 166.824219 242.5 165.898438 242.851562 164.699219 242.851562 C 163.5 242.851562 162.574219 242.5 161.925781 241.800781 C 161.273438 241.050781 160.949219 240 160.949219 238.648438 M 164.699219 241.949219 C 165.550781 241.949219 166.199219 241.675781 166.648438 241.125 C 167.101562 240.574219 167.324219 239.75 167.324219 238.648438 C 167.324219 237.601562 167.101562 236.800781 166.648438 236.25 C 166.199219 235.699219 165.550781 235.425781 164.699219 235.425781 C 163.898438 235.425781 163.25 235.699219 162.75 236.25 C 162.351562 236.75 162.148438 237.550781 162.148438 238.648438 C 162.148438 239.75 162.351562 240.574219 162.75 241.125 C 163.25 241.675781 163.898438 241.949219 164.699219 241.949219 "/>
<path style=" stroke:none;fill-rule:nonzero;fill:rgb(0%,0%,100%);fill-opacity:1;" d="M 73.5 142.648438 L 74.625 142.648438 L 74.625 146.175781 L 78.824219 146.175781 L 78.824219 142.648438 L 79.949219 142.648438 L 79.949219 150.824219 L 78.824219 150.824219 L 78.824219 147.074219 L 74.625 147.074219 L 74.625 150.824219 L 73.5 150.824219 L 73.5 142.648438 "/>
<path style=" stroke:none;fill-rule:nonzero;fill:rgb(0%,0%,100%);fill-opacity:1;" d="M 82.199219 142.648438 L 84.898438 147 C 85.050781 147.300781 85.273438 147.699219 85.574219 148.199219 C 85.824219 148.699219 85.976562 148.976562 86.023438 149.023438 L 86.023438 142.648438 L 87.074219 142.648438 L 87.074219 150.824219 L 85.949219 150.824219 L 83.101562 146.101562 C 82.898438 145.75 82.675781 145.351562 82.425781 144.898438 C 82.175781 144.5 82.023438 144.226562 81.976562 144.074219 L 81.976562 150.824219 L 80.925781 150.824219 L 80.925781 142.648438 L 82.199219 142.648438 "/>
<path style=" stroke:none;fill-rule:nonzero;fill:rgb(100%,0%,0%);fill-opacity:1;" d="M 75.75 103.648438 C 75.75 102.351562 76.074219 101.324219 76.726562 100.574219 C 77.375 99.875 78.300781 99.523438 79.5 99.523438 C 80.699219 99.523438 81.625 99.875 82.273438 100.574219 C 82.925781 101.324219 83.25 102.351562 83.25 103.648438 C 83.25 105 82.925781 106.050781 82.273438 106.800781 C 81.625 107.550781 80.699219 107.925781 79.5 107.925781 C 78.300781 107.925781 77.375 107.550781 76.726562 106.800781 C 76.074219 106.050781 75.75 105 75.75 103.648438 M 79.5 106.949219 C 80.300781 106.949219 80.925781 106.675781 81.375 106.125 C 81.824219 105.574219 82.050781 104.75 82.050781 103.648438 C 82.050781 102.601562 81.824219 101.800781 81.375 101.25 C 80.925781 100.699219 80.300781 100.425781 79.5 100.425781 C 78.648438 100.425781 78 100.699219 77.550781 101.25 C 77.101562 101.800781 76.875 102.601562 76.875 103.648438 C 76.875 104.75 77.101562 105.574219 77.550781 106.125 C 78 106.675781 78.648438 106.949219 79.5 106.949219 "/>
<path style=" stroke:none;fill-rule:nonzero;fill:rgb(100%,0%,0%);fill-opacity:1;" d="M 279.824219 106.5 C 279.824219 105.199219 280.148438 104.199219 280.800781 103.5 C 281.449219 102.75 282.375 102.375 283.574219 102.375 C 284.773438 102.375 285.699219 102.75 286.351562 103.5 C 287 104.199219 287.324219 105.199219 287.324219 106.5 C 287.324219 107.851562 287 108.898438 286.351562 109.648438 C 285.699219 110.398438 284.773438 110.773438 283.574219 110.773438 C 282.375 110.773438 281.449219 110.398438 280.800781 109.648438 C 280.148438 108.898438 279.824219 107.851562 279.824219 106.5 M 283.574219 109.875 C 284.425781 109.875 285.050781 109.601562 285.449219 109.050781 C 285.949219 108.449219 286.199219 107.601562 286.199219 106.5 C 286.199219 105.449219 285.949219 104.648438 285.449219 104.101562 C 285.050781 103.550781 284.425781 103.273438 283.574219 103.273438 C 282.726562 103.273438 282.074219 103.550781 281.625 104.101562 C 281.175781 104.648438 280.949219 105.449219 280.949219 106.5 C 280.949219 107.601562 281.175781 108.449219 281.625 109.050781 C 282.074219 109.601562 282.726562 109.875 283.574219 109.875 "/>
<path style=" stroke:none;fill-rule:nonzero;fill:rgb(100%,0%,0%);fill-opacity:1;" d="M 287.925781 102.449219 L 288.976562 102.449219 L 288.976562 105.976562 L 293.175781 105.976562 L 293.175781 102.449219 L 294.300781 102.449219 L 294.300781 110.625 L 293.175781 110.625 L 293.175781 106.875 L 288.976562 106.875 L 288.976562 110.625 L 287.925781 110.625 L 287.925781 102.449219 "/>
<path style=" stroke:none;fill-rule:nonzero;fill:rgb(100%,0%,0%);fill-opacity:1;" d="M 312.074219 169.726562 C 312.074219 168.425781 312.398438 167.425781 313.050781 166.726562 C 313.699219 165.976562 314.625 165.601562 315.824219 165.601562 C 317.023438 165.601562 317.949219 165.976562 318.601562 166.726562 C 319.25 167.425781 319.574219 168.425781 319.574219 169.726562 C 319.574219 171.074219 319.25 172.125 318.601562 172.875 C 317.949219 173.625 317.023438 174 315.824219 174 C 314.625 174 313.699219 173.625 313.050781 172.875 C 312.398438 172.125 312.074219 171.074219 312.074219 169.726562 M 315.824219 173.023438 C 316.625 173.023438 317.25 172.75 317.699219 172.199219 C 318.148438 171.648438 318.375 170.824219 318.375 169.726562 C 318.375 168.675781 318.148438 167.875 317.699219 167.324219 C 317.25 166.773438 316.625 166.5 315.824219 166.5 C 314.976562 166.5 314.324219 166.773438 313.875 167.324219 C 313.425781 167.875 313.199219 168.675781 313.199219 169.726562 C 313.199219 170.824219 313.425781 171.648438 313.875 172.199219 C 314.324219 172.75 314.976562 173.023438 315.824219 173.023438 "/>
<path style=" stroke:none;fill-rule:nonzero;fill:rgb(100%,0%,0%);fill-opacity:1;" d="M 320.101562 165.675781 L 321.226562 165.675781 L 321.226562 169.125 L 325.425781 169.125 L 325.425781 165.675781 L 326.550781 165.675781 L 326.550781 173.851562 L 325.425781 173.851562 L 325.425781 170.101562 L 321.226562 170.101562 L 321.226562 173.851562 L 320.101562 173.851562 L 320.101562 165.675781 "/>
<path style=" stroke:none;fill-rule:nonzero;fill:rgb(100%,0%,0%);fill-opacity:1;" d="M 306 243.226562 C 306 241.925781 306.324219 240.898438 306.976562 240.148438 C 307.625 239.449219 308.550781 239.101562 309.75 239.101562 C 310.949219 239.101562 311.875 239.449219 312.523438 240.148438 C 313.175781 240.898438 313.5 241.925781 313.5 243.226562 C 313.5 244.574219 313.175781 245.625 312.523438 246.375 C 311.875 247.125 310.949219 247.5 309.75 247.5 C 308.550781 247.5 307.625 247.125 306.976562 246.375 C 306.324219 245.625 306 244.574219 306 243.226562 M 309.75 246.523438 C 310.601562 246.523438 311.25 246.25 311.699219 245.699219 C 312.148438 245.148438 312.375 244.324219 312.375 243.226562 C 312.375 242.175781 312.148438 241.375 311.699219 240.824219 C 311.25 240.273438 310.601562 240 309.75 240 C 308.949219 240 308.324219 240.273438 307.875 240.824219 C 307.425781 241.375 307.199219 242.175781 307.199219 243.226562 C 307.199219 244.324219 307.425781 245.148438 307.875 245.699219 C 308.324219 246.25 308.949219 246.523438 309.75 246.523438 "/>
<path style=" stroke:none;fill-rule:nonzero;fill:rgb(100%,0%,0%);fill-opacity:1;" d="M 341.550781 208.050781 C 341.550781 206.75 341.851562 205.75 342.449219 205.050781 C 343.101562 204.300781 344.050781 203.925781 345.300781 203.925781 C 346.5 203.925781 347.425781 204.300781 348.074219 205.050781 C 348.726562 205.75 349.050781 206.75 349.050781 208.050781 C 349.050781 209.398438 348.699219 210.449219 348 211.199219 C 347.351562 211.949219 346.449219 212.324219 345.300781 212.324219 C 344.101562 212.324219 343.148438 211.949219 342.449219 211.199219 C 341.851562 210.449219 341.550781 209.398438 341.550781 208.050781 M 345.300781 211.425781 C 346.101562 211.425781 346.726562 211.148438 347.175781 210.601562 C 347.625 210 347.851562 209.148438 347.851562 208.050781 C 347.851562 207 347.625 206.199219 347.175781 205.648438 C 346.726562 205.101562 346.101562 204.824219 345.300781 204.824219 C 344.449219 204.824219 343.800781 205.101562 343.351562 205.648438 C 342.898438 206.199219 342.675781 207 342.675781 208.050781 C 342.675781 209.148438 342.898438 210 343.351562 210.601562 C 343.800781 211.148438 344.449219 211.425781 345.300781 211.425781 "/>
<path style=" stroke:none;fill-rule:nonzero;fill:rgb(0%,0%,0%);fill-opacity:1;" d="M 287.175781 277.800781 L 288.300781 277.800781 L 288.300781 281.25 L 292.425781 281.25 L 292.425781 277.800781 L 293.550781 277.800781 L 293.550781 285.976562 L 292.425781 285.976562 L 292.425781 282.226562 L 288.300781 282.226562 L 288.300781 285.976562 L 287.175781 285.976562 L 287.175781 277.800781 "/>
<path style=" stroke:none;fill-rule:nonzero;fill:rgb(0%,0%,0%);fill-opacity:1;" d="M 227.699219 67.726562 L 228.75 67.726562 L 228.75 71.175781 L 232.949219 71.175781 L 232.949219 67.726562 L 234.074219 67.726562 L 234.074219 75.898438 L 232.949219 75.898438 L 232.949219 72.074219 L 228.75 72.074219 L 228.75 75.898438 L 227.699219 75.898438 L 227.699219 67.726562 "/>
<path style=" stroke:none;fill-rule:nonzero;fill:rgb(0%,0%,0%);fill-opacity:1;" d="M 262.125 85.574219 L 263.25 85.574219 L 263.25 89.023438 L 267.449219 89.023438 L 267.449219 85.574219 L 268.574219 85.574219 L 268.574219 93.75 L 267.449219 93.75 L 267.449219 89.925781 L 263.25 89.925781 L 263.25 93.75 L 262.125 93.75 L 262.125 85.574219 "/>
<path style=" stroke:none;fill-rule:nonzero;fill:rgb(0%,0%,0%);fill-opacity:1;" d="M 287.398438 110.925781 L 288.523438 110.925781 L 288.523438 114.375 L 292.726562 114.375 L 292.726562 110.925781 L 293.773438 110.925781 L 293.773438 119.101562 L 292.726562 119.101562 L 292.726562 115.273438 L 288.523438 115.273438 L 288.523438 119.101562 L 287.398438 119.101562 L 287.398438 110.925781 "/>
<path style=" stroke:none;fill-rule:nonzero;fill:rgb(0%,0%,0%);fill-opacity:1;" d="M 305.25 141.898438 L 306.375 141.898438 L 306.375 145.425781 L 310.574219 145.425781 L 310.574219 141.898438 L 311.625 141.898438 L 311.625 150.074219 L 310.574219 150.074219 L 310.574219 146.324219 L 306.375 146.324219 L 306.375 150.074219 L 305.25 150.074219 L 305.25 141.898438 "/>
<path style=" stroke:none;fill-rule:nonzero;fill:rgb(0%,0%,0%);fill-opacity:1;" d="M 314.476562 176.476562 L 315.601562 176.476562 L 315.601562 180 L 319.726562 180 L 319.726562 176.476562 L 320.851562 176.476562 L 320.851562 184.648438 L 319.726562 184.648438 L 319.726562 180.898438 L 315.601562 180.898438 L 315.601562 184.648438 L 314.476562 184.648438 L 314.476562 176.476562 "/>
<path style=" stroke:none;fill-rule:nonzero;fill:rgb(0%,0%,0%);fill-opacity:1;" d="M 314.398438 212.25 L 315.523438 212.25 L 315.523438 215.773438 L 319.726562 215.773438 L 319.726562 212.25 L 320.773438 212.25 L 320.773438 220.425781 L 319.726562 220.425781 L 319.726562 216.675781 L 315.523438 216.675781 L 315.523438 220.425781 L 314.398438 220.425781 L 314.398438 212.25 "/>
<path style=" stroke:none;fill-rule:nonzero;fill:rgb(0%,0%,0%);fill-opacity:1;" d="M 304.726562 250.351562 L 305.851562 250.351562 L 305.851562 253.800781 L 310.050781 253.800781 L 310.050781 250.351562 L 311.101562 250.351562 L 311.101562 258.523438 L 310.050781 258.523438 L 310.050781 254.699219 L 305.851562 254.699219 L 305.851562 258.523438 L 304.726562 258.523438 L 304.726562 250.351562 "/>
</g>
</svg>
