<?xml version="1.0" encoding="UTF-8"?>
<svg xmlns="http://www.w3.org/2000/svg" xmlns:xlink="http://www.w3.org/1999/xlink" width="375pt" height="375pt" viewBox="0 0 375 375" version="1.1">
<g id="surface116">
<rect x="0" y="0" width="375" height="375" style="fill:rgb(100%,100%,100%);fill-opacity:1;stroke:none;"/>
<path style="fill:none;stroke-width:2;stroke-linecap:butt;stroke-linejoin:miter;stroke:rgb(0%,0%,0%);stroke-opacity:1;stroke-miterlimit:4;" d="M 22.697917 281.098958 L 58 304.598958 " transform="matrix(0.75,0,0,0.75,0,0)"/>
<path style="fill:none;stroke-width:2;stroke-linecap:butt;stroke-linejoin:miter;stroke:rgb(0%,0%,0%);stroke-opacity:1;stroke-miterlimit:4;" d="M 54.901042 302.598958 L 53.697917 320.901042 " transform="matrix(0.75,0,0,0.75,0,0)"/>
<path style="fill:none;stroke-width:2;stroke-linecap:butt;stroke-linejoin:miter;stroke:rgb(100%,0%,0%);stroke-opacity:1;stroke-miterlimit:4;" d="M 53.697917 320.901042 L 52.5 339.302083 " transform="matrix(0.75,0,0,0.75,0,0)"/>
<path style="fill:none;stroke-width:2;stroke-linecap:butt;stroke-linejoin:miter;stroke:rgb(0%,0%,0%);stroke-opacity:1;stroke-miterlimit:4;" d="M 61.302083 303 L 60 321.302083 " transform="matrix(0.75,0,0,0.75,0,0)"/>
<path style="fill:none;stroke-width:2;stroke-linecap:butt;stroke-linejoin:miter;stroke:rgb(100%,0%,0%);stroke-opacity:1;stroke-miterlimit:4;" d="M 60 321.302083 L 58.802083 339.697917 " transform="matrix(0.75,0,0,0.75,0,0)"/>
<path style="fill:none;stroke-width:2;stroke-linecap:butt;stroke-linejoin:miter;stroke:rgb(0%,0%,0%);stroke-opacity:1;stroke-miterlimit:4;" d="M 58 304.598958 L 73.5 297 " transform="matrix(0.75,0,0,0.75,0,0)"/>
<path style="fill:none;stroke-width:2;stroke-linecap:butt;stroke-linejoin:miter;stroke:rgb(100%,0%,0%);stroke-opacity:1;stroke-miterlimit:4;" d="M 73.5 297 L 89.098958 289.302083 " transform="matrix(0.75,0,0,0.75,0,0)"/>
<path style="fill:none;stroke-width:2;stroke-linecap:butt;stroke-linejoin:miter;stroke:rgb(100%,0%,0%);stroke-opacity:1;stroke-miterlimit:4;" d="M 102.901042 290.5 L 117 300 " transform="matrix(0.75,0,0,0.75,0,0)"/>
<path style="fill:none;stroke-width:2;stroke-linecap:butt;stroke-linejoin:miter;stroke:rgb(0%,0%,0%);stroke-opacity:1;stroke-miterlimit:4;" d="M 117 300 L 131.197917 309.401042 " transform="matrix(0.75,0,0,0.75,0,0)"/>
<path style="fill:none;stroke-width:2;stroke-linecap:butt;stroke-linejoin:miter;stroke:rgb(0%,0%,0%);stroke-opacity:1;stroke-miterlimit:4;" d="M 131.197917 309.401042 L 169.197917 290.697917 " transform="matrix(0.75,0,0,0.75,0,0)"/>
<path style="fill:none;stroke-width:2;stroke-linecap:butt;stroke-linejoin:miter;stroke:rgb(0%,0%,0%);stroke-opacity:1;stroke-miterlimit:4;" d="M 169.197917 290.697917 L 172 248.401042 " transform="matrix(0.75,0,0,0.75,0,0)"/>
<path style="fill:none;stroke-width:2;stroke-linecap:butt;stroke-linejoin:miter;stroke:rgb(0%,0%,0%);stroke-opacity:1;stroke-miterlimit:4;" d="M 175.802083 287.5 L 178.098958 252.5 " transform="matrix(0.75,0,0,0.75,0,0)"/>
<path style="fill:none;stroke-width:2;stroke-linecap:butt;stroke-linejoin:miter;stroke:rgb(0%,0%,0%);stroke-opacity:1;stroke-miterlimit:4;" d="M 172 248.401042 L 136.802083 224.901042 " transform="matrix(0.75,0,0,0.75,0,0)"/>
<path style="fill:none;stroke-width:2;stroke-linecap:butt;stroke-linejoin:miter;stroke:rgb(0%,0%,0%);stroke-opacity:1;stroke-miterlimit:4;" d="M 139.802083 226.901042 L 141 208.697917 " transform="matrix(0.75,0,0,0.75,0,0)"/>
<path style="fill:none;stroke-width:2;stroke-linecap:butt;stroke-linejoin:miter;stroke:rgb(100%,0%,0%);stroke-opacity:1;stroke-miterlimit:4;" d="M 141 208.697917 L 142.197917 190.5 " transform="matrix(0.75,0,0,0.75,0,0)"/>
<path style="fill:none;stroke-width:2;stroke-linecap:butt;stroke-linejoin:miter;stroke:rgb(0%,0%,0%);stroke-opacity:1;stroke-miterlimit:4;" d="M 133.5 226.5 L 134.697917 208.302083 " transform="matrix(0.75,0,0,0.75,0,0)"/>
<path style="fill:none;stroke-width:2;stroke-linecap:butt;stroke-linejoin:miter;stroke:rgb(100%,0%,0%);stroke-opacity:1;stroke-miterlimit:4;" d="M 134.697917 208.302083 L 135.901042 190 " transform="matrix(0.75,0,0,0.75,0,0)"/>
<path style="fill:none;stroke-width:2;stroke-linecap:butt;stroke-linejoin:miter;stroke:rgb(0%,0%,0%);stroke-opacity:1;stroke-miterlimit:4;" d="M 136.802083 224.901042 L 121.197917 232.5 " transform="matrix(0.75,0,0,0.75,0,0)"/>
<path style="fill:none;stroke-width:2;stroke-linecap:butt;stroke-linejoin:miter;stroke:rgb(100%,0%,0%);stroke-opacity:1;stroke-miterlimit:4;" d="M 121.197917 232.5 L 105.697917 240.197917 " transform="matrix(0.75,0,0,0.75,0,0)"/>
<path style="fill:none;stroke-width:2;stroke-linecap:butt;stroke-linejoin:miter;stroke:rgb(0%,0%,0%);stroke-opacity:1;stroke-miterlimit:4;" d="M 172 248.401042 L 188 240.5 " transform="matrix(0.75,0,0,0.75,0,0)"/>
<path style="fill:none;stroke-width:2;stroke-linecap:butt;stroke-linejoin:miter;stroke:rgb(0%,0%,100%);stroke-opacity:1;stroke-miterlimit:4;" d="M 188 240.5 L 204 232.598958 " transform="matrix(0.75,0,0,0.75,0,0)"/>
<path style="fill:none;stroke-width:2;stroke-linecap:butt;stroke-linejoin:miter;stroke:rgb(0%,0%,100%);stroke-opacity:1;stroke-miterlimit:4;" d="M 214.901042 222.302083 L 224.197917 208.401042 " transform="matrix(0.75,0,0,0.75,0,0)"/>
<path style="fill:none;stroke-width:2;stroke-linecap:butt;stroke-linejoin:miter;stroke:rgb(0%,0%,0%);stroke-opacity:1;stroke-miterlimit:4;" d="M 224.197917 208.401042 L 233.5 194.5 " transform="matrix(0.75,0,0,0.75,0,0)"/>
<path style="fill:none;stroke-width:2;stroke-linecap:butt;stroke-linejoin:miter;stroke:rgb(0%,0%,0%);stroke-opacity:1;stroke-miterlimit:4;" d="M 237.302083 196.901042 L 233.598958 178.401042 " transform="matrix(0.75,0,0,0.75,0,0)"/>
<path style="fill:none;stroke-width:2;stroke-linecap:butt;stroke-linejoin:miter;stroke:rgb(100%,0%,0%);stroke-opacity:1;stroke-miterlimit:4;" d="M 233.598958 178.401042 L 229.901042 159.901042 " transform="matrix(0.75,0,0,0.75,0,0)"/>
<path style="fill:none;stroke-width:2;stroke-linecap:butt;stroke-linejoin:miter;stroke:rgb(0%,0%,0%);stroke-opacity:1;stroke-miterlimit:4;" d="M 231 198.197917 L 227.401042 179.697917 " transform="matrix(0.75,0,0,0.75,0,0)"/>
<path style="fill:none;stroke-width:2;stroke-linecap:butt;stroke-linejoin:miter;stroke:rgb(100%,0%,0%);stroke-opacity:1;stroke-miterlimit:4;" d="M 227.401042 179.697917 L 223.697917 161.197917 " transform="matrix(0.75,0,0,0.75,0,0)"/>
<path style="fill:none;stroke-width:2;stroke-linecap:butt;stroke-linejoin:miter;stroke:rgb(0%,0%,0%);stroke-opacity:1;stroke-miterlimit:4;" d="M 233.5 194.5 L 268.802083 218 " transform="matrix(0.75,0,0,0.75,0,0)"/>
<path style="fill-rule:evenodd;fill:rgb(0%,0%,0%);fill-opacity:1;stroke-width:0.5;stroke-linecap:butt;stroke-linejoin:miter;stroke:rgb(0%,0%,0%);stroke-opacity:1;stroke-miterlimit:4;" d="M 268.802083 218 L 285.598958 213 L 286.197917 216.197917 Z M 268.802083 218 " transform="matrix(0.75,0,0,0.75,0,0)"/>
<path style="fill-rule:evenodd;fill:rgb(0%,0%,100%);fill-opacity:1;stroke-width:0.5;stroke-linecap:butt;stroke-linejoin:miter;stroke:rgb(0%,0%,100%);stroke-opacity:1;stroke-miterlimit:4;" d="M 285.598958 213 L 303.598958 214.302083 L 302.401042 208.098958 Z M 285.598958 213 " transform="matrix(0.75,0,0,0.75,0,0)"/>
<path style="fill-rule:evenodd;fill:rgb(0%,0%,100%);fill-opacity:1;stroke-width:0.5;stroke-linecap:butt;stroke-linejoin:miter;stroke:rgb(0%,0%,100%);stroke-opacity:1;stroke-miterlimit:4;" d="M 285.598958 213 L 286.197917 216.197917 L 303.598958 214.302083 Z M 285.598958 213 " transform="matrix(0.75,0,0,0.75,0,0)"/>
<path style="fill:none;stroke-width:2;stroke-linecap:butt;stroke-linejoin:miter;stroke:rgb(0%,0%,100%);stroke-opacity:1;stroke-miterlimit:4;" d="M 316.302083 216.5 L 327.302083 229.098958 " transform="matrix(0.75,0,0,0.75,0,0)"/>
<path style="fill:none;stroke-width:2;stroke-linecap:butt;stroke-linejoin:miter;stroke:rgb(0%,0%,0%);stroke-opacity:1;stroke-miterlimit:4;" d="M 327.302083 229.098958 L 338.302083 241.598958 " transform="matrix(0.75,0,0,0.75,0,0)"/>
<path style="fill:none;stroke-width:2;stroke-linecap:butt;stroke-linejoin:miter;stroke:rgb(0%,0%,0%);stroke-opacity:1;stroke-miterlimit:4;" d="M 335.901042 238.802083 L 330 256 " transform="matrix(0.75,0,0,0.75,0,0)"/>
<path style="fill:none;stroke-width:2;stroke-linecap:butt;stroke-linejoin:miter;stroke:rgb(100%,0%,0%);stroke-opacity:1;stroke-miterlimit:4;" d="M 330 256 L 324.197917 273.197917 " transform="matrix(0.75,0,0,0.75,0,0)"/>
<path style="fill:none;stroke-width:2;stroke-linecap:butt;stroke-linejoin:miter;stroke:rgb(0%,0%,0%);stroke-opacity:1;stroke-miterlimit:4;" d="M 341.901042 240.901042 L 336 258.098958 " transform="matrix(0.75,0,0,0.75,0,0)"/>
<path style="fill:none;stroke-width:2;stroke-linecap:butt;stroke-linejoin:miter;stroke:rgb(100%,0%,0%);stroke-opacity:1;stroke-miterlimit:4;" d="M 336 258.098958 L 330.197917 275.302083 " transform="matrix(0.75,0,0,0.75,0,0)"/>
<path style="fill:none;stroke-width:2;stroke-linecap:butt;stroke-linejoin:miter;stroke:rgb(0%,0%,0%);stroke-opacity:1;stroke-miterlimit:4;" d="M 338.302083 241.598958 L 379.802083 233.302083 " transform="matrix(0.75,0,0,0.75,0,0)"/>
<path style="fill:none;stroke-width:1;stroke-linecap:butt;stroke-linejoin:miter;stroke:rgb(0%,0%,0%);stroke-opacity:1;stroke-miterlimit:4;" d="M 380.697917 229.697917 L 381.401042 230 " transform="matrix(0.75,0,0,0.75,0,0)"/>
<path style="fill:none;stroke-width:1;stroke-linecap:butt;stroke-linejoin:miter;stroke:rgb(0%,0%,0%);stroke-opacity:1;stroke-miterlimit:4;" d="M 381.5 226.098958 L 382.901042 226.598958 " transform="matrix(0.75,0,0,0.75,0,0)"/>
<path style="fill:none;stroke-width:1;stroke-linecap:butt;stroke-linejoin:miter;stroke:rgb(0%,0%,0%);stroke-opacity:1;stroke-miterlimit:4;" d="M 382.401042 222.5 L 384.401042 223.197917 " transform="matrix(0.75,0,0,0.75,0,0)"/>
<path style="fill:none;stroke-width:1;stroke-linecap:butt;stroke-linejoin:miter;stroke:rgb(0%,0%,0%);stroke-opacity:1;stroke-miterlimit:4;" d="M 383.197917 219 L 385.901042 219.901042 " transform="matrix(0.75,0,0,0.75,0,0)"/>
<path style="fill:none;stroke-width:1;stroke-linecap:butt;stroke-linejoin:miter;stroke:rgb(0%,0%,100%);stroke-opacity:1;stroke-miterlimit:4;" d="M 384.098958 215.401042 L 387.401042 216.5 " transform="matrix(0.75,0,0,0.75,0,0)"/>
<path style="fill:none;stroke-width:1;stroke-linecap:butt;stroke-linejoin:miter;stroke:rgb(0%,0%,100%);stroke-opacity:1;stroke-miterlimit:4;" d="M 384.901042 211.802083 L 388.901042 213.098958 " transform="matrix(0.75,0,0,0.75,0,0)"/>
<path style="fill:none;stroke-width:1;stroke-linecap:butt;stroke-linejoin:miter;stroke:rgb(0%,0%,100%);stroke-opacity:1;stroke-miterlimit:4;" d="M 385.802083 208.197917 L 390.401042 209.802083 " transform="matrix(0.75,0,0,0.75,0,0)"/>
<path style="fill:none;stroke-width:1;stroke-linecap:butt;stroke-linejoin:miter;stroke:rgb(0%,0%,100%);stroke-opacity:1;stroke-miterlimit:4;" d="M 386.598958 204.598958 L 392 206.401042 " transform="matrix(0.75,0,0,0.75,0,0)"/>
<path style="fill:none;stroke-width:1;stroke-linecap:butt;stroke-linejoin:miter;stroke:rgb(0%,0%,100%);stroke-opacity:1;stroke-miterlimit:4;" d="M 387.5 201 L 393.5 203 " transform="matrix(0.75,0,0,0.75,0,0)"/>
<path style="fill:none;stroke-width:2;stroke-linecap:butt;stroke-linejoin:miter;stroke:rgb(0%,0%,0%);stroke-opacity:1;stroke-miterlimit:4;" d="M 379.802083 233.302083 L 407.802083 265.197917 " transform="matrix(0.75,0,0,0.75,0,0)"/>
<path style="fill:none;stroke-width:2;stroke-linecap:butt;stroke-linejoin:miter;stroke:rgb(0%,0%,0%);stroke-opacity:1;stroke-miterlimit:4;" d="M 407.802083 265.197917 L 394.098958 305.302083 " transform="matrix(0.75,0,0,0.75,0,0)"/>
<path style="fill:none;stroke-width:2;stroke-linecap:butt;stroke-linejoin:miter;stroke:rgb(0%,0%,0%);stroke-opacity:1;stroke-miterlimit:4;" d="M 412.598958 270.697917 L 401.302083 303.901042 " transform="matrix(0.75,0,0,0.75,0,0)"/>
<path style="fill:none;stroke-width:2;stroke-linecap:butt;stroke-linejoin:miter;stroke:rgb(0%,0%,0%);stroke-opacity:1;stroke-miterlimit:4;" d="M 394.098958 305.302083 L 422.098958 337.197917 " transform="matrix(0.75,0,0,0.75,0,0)"/>
<path style="fill:none;stroke-width:2;stroke-linecap:butt;stroke-linejoin:miter;stroke:rgb(0%,0%,0%);stroke-opacity:1;stroke-miterlimit:4;" d="M 422.098958 337.197917 L 463.598958 328.901042 " transform="matrix(0.75,0,0,0.75,0,0)"/>
<path style="fill:none;stroke-width:2;stroke-linecap:butt;stroke-linejoin:miter;stroke:rgb(0%,0%,0%);stroke-opacity:1;stroke-miterlimit:4;" d="M 424.401042 330.197917 L 458.802083 323.401042 " transform="matrix(0.75,0,0,0.75,0,0)"/>
<path style="fill:none;stroke-width:2;stroke-linecap:butt;stroke-linejoin:miter;stroke:rgb(0%,0%,0%);stroke-opacity:1;stroke-miterlimit:4;" d="M 463.598958 328.901042 L 477.302083 288.802083 " transform="matrix(0.75,0,0,0.75,0,0)"/>
<path style="fill:none;stroke-width:2;stroke-linecap:butt;stroke-linejoin:miter;stroke:rgb(0%,0%,0%);stroke-opacity:1;stroke-miterlimit:4;" d="M 477.302083 288.802083 L 449.302083 256.901042 " transform="matrix(0.75,0,0,0.75,0,0)"/>
<path style="fill:none;stroke-width:2;stroke-linecap:butt;stroke-linejoin:miter;stroke:rgb(0%,0%,0%);stroke-opacity:1;stroke-miterlimit:4;" d="M 470.098958 290.197917 L 447 263.901042 " transform="matrix(0.75,0,0,0.75,0,0)"/>
<path style="fill:none;stroke-width:2;stroke-linecap:butt;stroke-linejoin:miter;stroke:rgb(0%,0%,0%);stroke-opacity:1;stroke-miterlimit:4;" d="M 268.802083 218 L 245.197917 253.197917 " transform="matrix(0.75,0,0,0.75,0,0)"/>
<path style="fill:none;stroke-width:2;stroke-linecap:butt;stroke-linejoin:miter;stroke:rgb(0%,0%,0%);stroke-opacity:1;stroke-miterlimit:4;" d="M 245.197917 253.197917 L 244.098958 270.697917 " transform="matrix(0.75,0,0,0.75,0,0)"/>
<path style="fill:none;stroke-width:2;stroke-linecap:butt;stroke-linejoin:miter;stroke:rgb(80%,80%,0%);stroke-opacity:1;stroke-miterlimit:4;" d="M 244.098958 270.697917 L 242.901042 288.098958 " transform="matrix(0.75,0,0,0.75,0,0)"/>
<path style="fill:none;stroke-width:2;stroke-linecap:butt;stroke-linejoin:miter;stroke:rgb(80%,80%,0%);stroke-opacity:1;stroke-miterlimit:4;" d="M 237.197917 298.098958 L 220.802083 306.197917 " transform="matrix(0.75,0,0,0.75,0,0)"/>
<path style="fill:none;stroke-width:2;stroke-linecap:butt;stroke-linejoin:miter;stroke:rgb(0%,0%,0%);stroke-opacity:1;stroke-miterlimit:4;" d="M 220.802083 306.197917 L 204.401042 314.302083 " transform="matrix(0.75,0,0,0.75,0,0)"/>
<path style="fill:none;stroke-width:2;stroke-linecap:butt;stroke-linejoin:miter;stroke:rgb(0%,0%,0%);stroke-opacity:1;stroke-miterlimit:4;" d="M 204.401042 314.302083 L 169.197917 290.697917 " transform="matrix(0.75,0,0,0.75,0,0)"/>
<path style="fill:none;stroke-width:2;stroke-linecap:butt;stroke-linejoin:miter;stroke:rgb(0%,0%,0%);stroke-opacity:1;stroke-miterlimit:4;" d="M 245.197917 253.197917 L 230.598958 243.401042 " transform="matrix(0.75,0,0,0.75,0,0)"/>
<path style="fill:none;stroke-width:2;stroke-linecap:butt;stroke-linejoin:miter;stroke:rgb(0%,0%,100%);stroke-opacity:1;stroke-miterlimit:4;" d="M 230.598958 243.401042 L 215.901042 233.697917 " transform="matrix(0.75,0,0,0.75,0,0)"/>
<path style="fill:none;stroke-width:2;stroke-linecap:butt;stroke-linejoin:miter;stroke:rgb(0%,0%,0%);stroke-opacity:1;stroke-miterlimit:4;" d="M 449.302083 256.901042 L 407.802083 265.197917 " transform="matrix(0.75,0,0,0.75,0,0)"/>
<path style="fill:none;stroke-width:1;stroke-linecap:butt;stroke-linejoin:miter;stroke:rgb(0%,0%,0%);stroke-opacity:1;stroke-miterlimit:4;" d="M 248.598958 254 L 248.401042 254.598958 " transform="matrix(0.75,0,0,0.75,0,0)"/>
<path style="fill:none;stroke-width:1;stroke-linecap:butt;stroke-linejoin:miter;stroke:rgb(0%,0%,0%);stroke-opacity:1;stroke-miterlimit:4;" d="M 252 254.802083 L 251.5 256 " transform="matrix(0.75,0,0,0.75,0,0)"/>
<path style="fill:none;stroke-width:1;stroke-linecap:butt;stroke-linejoin:miter;stroke:rgb(0%,0%,0%);stroke-opacity:1;stroke-miterlimit:4;" d="M 255.302083 255.697917 L 254.697917 257.5 " transform="matrix(0.75,0,0,0.75,0,0)"/>
<path style="fill:none;stroke-width:1;stroke-linecap:butt;stroke-linejoin:miter;stroke:rgb(0%,0%,0%);stroke-opacity:1;stroke-miterlimit:4;" d="M 258.697917 256.5 L 257.901042 258.901042 " transform="matrix(0.75,0,0,0.75,0,0)"/>
<path style="fill:none;stroke-width:1;stroke-linecap:butt;stroke-linejoin:miter;stroke:rgb(0%,0%,0%);stroke-opacity:1;stroke-miterlimit:4;" d="M 262.098958 257.302083 L 261 260.302083 " transform="matrix(0.75,0,0,0.75,0,0)"/>
<path style="fill:none;stroke-width:1;stroke-linecap:butt;stroke-linejoin:miter;stroke:rgb(0%,0%,0%);stroke-opacity:1;stroke-miterlimit:4;" d="M 265.401042 258.098958 L 264.197917 261.697917 " transform="matrix(0.75,0,0,0.75,0,0)"/>
<path style="fill:none;stroke-width:1;stroke-linecap:butt;stroke-linejoin:miter;stroke:rgb(0%,0%,0%);stroke-opacity:1;stroke-miterlimit:4;" d="M 268.802083 258.901042 L 267.401042 263.098958 " transform="matrix(0.75,0,0,0.75,0,0)"/>
<path style="fill:none;stroke-width:1;stroke-linecap:butt;stroke-linejoin:miter;stroke:rgb(0%,0%,0%);stroke-opacity:1;stroke-miterlimit:4;" d="M 272.098958 259.697917 L 270.5 264.5 " transform="matrix(0.75,0,0,0.75,0,0)"/>
<path style="fill:none;stroke-width:1;stroke-linecap:butt;stroke-linejoin:miter;stroke:rgb(0%,0%,0%);stroke-opacity:1;stroke-miterlimit:4;" d="M 275.5 260.5 L 273.697917 265.901042 " transform="matrix(0.75,0,0,0.75,0,0)"/>
<path style="fill:none;stroke-width:1;stroke-linecap:butt;stroke-linejoin:miter;stroke:rgb(0%,0%,0%);stroke-opacity:1;stroke-miterlimit:4;" d="M 278.901042 261.302083 L 276.802083 267.302083 " transform="matrix(0.75,0,0,0.75,0,0)"/>
<path style="fill:none;stroke-width:2;stroke-linecap:butt;stroke-linejoin:miter;stroke:rgb(0%,0%,0%);stroke-opacity:1;stroke-miterlimit:4;" d="M 56.197917 303.5 L 58 304.598958 L 58.697917 304.302083 " transform="matrix(0.75,0,0,0.75,0,0)"/>
<path style="fill:none;stroke-width:2;stroke-linecap:butt;stroke-linejoin:miter;stroke:rgb(0%,0%,0%);stroke-opacity:1;stroke-miterlimit:4;" d="M 130.5 309 L 131.197917 309.401042 L 133.098958 308.5 " transform="matrix(0.75,0,0,0.75,0,0)"/>
<path style="fill:none;stroke-width:2;stroke-linecap:butt;stroke-linejoin:miter;stroke:rgb(0%,0%,0%);stroke-opacity:1;stroke-miterlimit:4;" d="M 138.5 226.098958 L 136.802083 224.901042 L 136 225.302083 " transform="matrix(0.75,0,0,0.75,0,0)"/>
<path style="fill:none;stroke-width:2;stroke-linecap:butt;stroke-linejoin:miter;stroke:rgb(0%,0%,0%);stroke-opacity:1;stroke-miterlimit:4;" d="M 233.098958 195.098958 L 233.5 194.5 L 235.302083 195.598958 " transform="matrix(0.75,0,0,0.75,0,0)"/>
<path style="fill:none;stroke-width:2;stroke-linecap:butt;stroke-linejoin:miter;stroke:rgb(0%,0%,0%);stroke-opacity:1;stroke-miterlimit:4;" d="M 267 216.802083 L 268.802083 218 L 267.598958 219.802083 " transform="matrix(0.75,0,0,0.75,0,0)"/>
<path style="fill:none;stroke-width:2;stroke-linecap:butt;stroke-linejoin:miter;stroke:rgb(0%,0%,0%);stroke-opacity:1;stroke-miterlimit:4;" d="M 337.697917 241 L 338.302083 241.598958 L 340.302083 241.197917 " transform="matrix(0.75,0,0,0.75,0,0)"/>
<path style="fill:none;stroke-width:2;stroke-linecap:butt;stroke-linejoin:miter;stroke:rgb(0%,0%,0%);stroke-opacity:1;stroke-miterlimit:4;" d="M 377.802083 233.697917 L 379.802083 233.302083 L 381.197917 234.901042 " transform="matrix(0.75,0,0,0.75,0,0)"/>
<path style="fill:none;stroke-width:2;stroke-linecap:butt;stroke-linejoin:miter;stroke:rgb(0%,0%,0%);stroke-opacity:1;stroke-miterlimit:4;" d="M 394.802083 303.302083 L 394.098958 305.302083 L 395.5 306.901042 " transform="matrix(0.75,0,0,0.75,0,0)"/>
<path style="fill:none;stroke-width:2;stroke-linecap:butt;stroke-linejoin:miter;stroke:rgb(0%,0%,0%);stroke-opacity:1;stroke-miterlimit:4;" d="M 420.697917 335.598958 L 422.098958 337.197917 L 424.197917 336.802083 " transform="matrix(0.75,0,0,0.75,0,0)"/>
<path style="fill:none;stroke-width:2;stroke-linecap:butt;stroke-linejoin:miter;stroke:rgb(0%,0%,0%);stroke-opacity:1;stroke-miterlimit:4;" d="M 461.598958 329.302083 L 463.598958 328.901042 L 464.302083 326.901042 " transform="matrix(0.75,0,0,0.75,0,0)"/>
<path style="fill:none;stroke-width:2;stroke-linecap:butt;stroke-linejoin:miter;stroke:rgb(0%,0%,0%);stroke-opacity:1;stroke-miterlimit:4;" d="M 476.598958 290.802083 L 477.302083 288.802083 L 475.901042 287.197917 " transform="matrix(0.75,0,0,0.75,0,0)"/>
<path style="fill:none;stroke-width:2;stroke-linecap:butt;stroke-linejoin:miter;stroke:rgb(0%,0%,0%);stroke-opacity:1;stroke-miterlimit:4;" d="M 450.697917 258.5 L 449.302083 256.901042 L 447.302083 257.302083 " transform="matrix(0.75,0,0,0.75,0,0)"/>
<path style="fill:none;stroke-width:2;stroke-linecap:butt;stroke-linejoin:miter;stroke:rgb(0%,0%,0%);stroke-opacity:1;stroke-miterlimit:4;" d="M 205.302083 313.901042 L 204.401042 314.302083 L 202.697917 313.098958 " transform="matrix(0.75,0,0,0.75,0,0)"/>
<path style=" stroke:none;fill-rule:nonzero;fill:rgb(100%,0%,0%);fill-opacity:1;" d="M 37.273438 260.25 C 37.273438 258.800781 37.625 257.675781 38.324219 256.875 C 39.023438 256.074219 40.050781 255.675781 41.398438 255.675781 C 42.699219 255.675781 43.726562 256.074219 44.476562 256.875 C 45.175781 257.675781 45.523438 258.800781 45.523438 260.25 C 45.523438 261.699219 45.175781 262.824219 44.476562 263.625 C 43.726562 264.476562 42.699219 264.898438 41.398438 264.898438 C 40.050781 264.898438 39.023438 264.476562 38.324219 263.625 C 37.625 262.824219 37.273438 261.699219 37.273438 260.25 M 41.398438 263.851562 C 42.300781 263.851562 43 263.550781 43.5 262.949219 C 44 262.351562 44.25 261.449219 44.25 260.25 C 44.25 259.050781 44 258.148438 43.5 257.550781 C 43 256.949219 42.300781 256.648438 41.398438 256.648438 C 40.5 256.648438 39.800781 256.949219 39.300781 257.550781 C 38.800781 258.148438 38.550781 259.050781 38.550781 260.25 C 38.550781 261.449219 38.800781 262.351562 39.300781 262.949219 C 39.800781 263.550781 40.5 263.851562 41.398438 263.851562 "/>
<path style=" stroke:none;fill-rule:nonzero;fill:rgb(100%,0%,0%);fill-opacity:1;" d="M 67.875 214.425781 C 67.875 213.023438 68.226562 211.898438 68.925781 211.050781 C 69.625 210.25 70.648438 209.851562 72 209.851562 C 73.300781 209.851562 74.324219 210.25 75.074219 211.050781 C 75.773438 211.898438 76.125 213.023438 76.125 214.425781 C 76.125 215.925781 75.75 217.074219 75 217.875 C 74.300781 218.726562 73.300781 219.148438 72 219.148438 C 70.648438 219.148438 69.625 218.726562 68.925781 217.875 C 68.226562 217.074219 67.875 215.925781 67.875 214.425781 M 72 218.101562 C 72.898438 218.101562 73.601562 217.800781 74.101562 217.199219 C 74.601562 216.550781 74.851562 215.625 74.851562 214.425781 C 74.851562 213.273438 74.601562 212.398438 74.101562 211.800781 C 73.601562 211.199219 72.898438 210.898438 72 210.898438 C 71.050781 210.898438 70.324219 211.199219 69.824219 211.800781 C 69.375 212.398438 69.148438 213.273438 69.148438 214.425781 C 69.148438 215.675781 69.375 216.601562 69.824219 217.199219 C 70.324219 217.800781 71.050781 218.101562 72 218.101562 "/>
<path style=" stroke:none;fill-rule:nonzero;fill:rgb(100%,0%,0%);fill-opacity:1;" d="M 100.5 136.949219 C 100.5 135.5 100.851562 134.375 101.550781 133.574219 C 102.300781 132.773438 103.324219 132.375 104.625 132.375 C 105.976562 132.375 107 132.773438 107.699219 133.574219 C 108.398438 134.375 108.75 135.5 108.75 136.949219 C 108.75 138.398438 108.398438 139.550781 107.699219 140.398438 C 107 141.199219 105.976562 141.601562 104.625 141.601562 C 103.324219 141.601562 102.300781 141.199219 101.550781 140.398438 C 100.851562 139.601562 100.5 138.449219 100.5 136.949219 M 104.625 140.625 C 105.574219 140.625 106.273438 140.324219 106.726562 139.726562 C 107.226562 139.074219 107.476562 138.148438 107.476562 136.949219 C 107.476562 135.800781 107.226562 134.925781 106.726562 134.324219 C 106.273438 133.726562 105.574219 133.425781 104.625 133.425781 C 103.726562 133.425781 103.023438 133.726562 102.523438 134.324219 C 102.023438 134.925781 101.773438 135.800781 101.773438 136.949219 C 101.773438 138.148438 102.023438 139.074219 102.523438 139.726562 C 103.023438 140.324219 103.726562 140.625 104.625 140.625 "/>
<path style=" stroke:none;fill-rule:nonzero;fill:rgb(100%,0%,0%);fill-opacity:1;" d="M 61.050781 178.273438 L 62.25 178.273438 L 62.25 182.101562 L 66.824219 182.101562 L 66.824219 178.273438 L 68.101562 178.273438 L 68.101562 187.273438 L 66.824219 187.273438 L 66.824219 183.074219 L 62.25 183.074219 L 62.25 187.273438 L 61.050781 187.273438 L 61.050781 178.273438 "/>
<path style=" stroke:none;fill-rule:nonzero;fill:rgb(100%,0%,0%);fill-opacity:1;" d="M 69.898438 182.699219 C 69.898438 181.300781 70.273438 180.199219 71.023438 179.398438 C 71.726562 178.550781 72.726562 178.125 74.023438 178.125 C 75.375 178.125 76.398438 178.550781 77.101562 179.398438 C 77.851562 180.199219 78.226562 181.300781 78.226562 182.699219 C 78.226562 184.199219 77.851562 185.351562 77.101562 186.148438 C 76.398438 187 75.375 187.425781 74.023438 187.425781 C 72.726562 187.425781 71.726562 187 71.023438 186.148438 C 70.273438 185.351562 69.898438 184.199219 69.898438 182.699219 M 74.023438 186.375 C 74.976562 186.375 75.699219 186.074219 76.199219 185.476562 C 76.699219 184.875 76.949219 183.949219 76.949219 182.699219 C 76.949219 181.550781 76.699219 180.675781 76.199219 180.074219 C 75.699219 179.476562 74.976562 179.175781 74.023438 179.175781 C 73.125 179.175781 72.425781 179.476562 71.925781 180.074219 C 71.425781 180.675781 71.175781 181.550781 71.175781 182.699219 C 71.175781 183.949219 71.425781 184.875 71.925781 185.476562 C 72.425781 186.074219 73.125 186.375 74.023438 186.375 "/>
<path style=" stroke:none;fill-rule:nonzero;fill:rgb(0%,0%,100%);fill-opacity:1;" d="M 155.476562 167.773438 L 158.476562 172.5 C 158.675781 172.851562 158.925781 173.300781 159.226562 173.851562 C 159.523438 174.398438 159.675781 174.699219 159.675781 174.75 L 159.675781 167.773438 L 160.875 167.773438 L 160.875 176.773438 L 159.675781 176.773438 L 156.523438 171.523438 C 156.273438 171.125 156.023438 170.699219 155.773438 170.25 C 155.523438 169.800781 155.351562 169.5 155.25 169.351562 L 155.25 176.773438 L 154.050781 176.773438 L 154.050781 167.773438 L 155.476562 167.773438 "/>
<path style=" stroke:none;fill-rule:nonzero;fill:rgb(100%,0%,0%);fill-opacity:1;" d="M 164.851562 114.675781 C 164.851562 113.226562 165.199219 112.101562 165.898438 111.300781 C 166.601562 110.5 167.625 110.101562 168.976562 110.101562 C 170.273438 110.101562 171.300781 110.5 172.050781 111.300781 C 172.75 112.101562 173.101562 113.226562 173.101562 114.675781 C 173.101562 116.125 172.726562 117.273438 171.976562 118.125 C 171.273438 118.925781 170.273438 119.324219 168.976562 119.324219 C 167.625 119.324219 166.601562 118.925781 165.898438 118.125 C 165.199219 117.324219 164.851562 116.175781 164.851562 114.675781 M 168.976562 118.351562 C 169.875 118.351562 170.574219 118.050781 171.074219 117.449219 C 171.574219 116.800781 171.824219 115.875 171.824219 114.675781 C 171.824219 113.523438 171.574219 112.648438 171.074219 112.050781 C 170.574219 111.449219 169.875 111.148438 168.976562 111.148438 C 168.023438 111.148438 167.300781 111.449219 166.800781 112.050781 C 166.351562 112.601562 166.125 113.476562 166.125 114.675781 C 166.125 115.875 166.351562 116.800781 166.800781 117.449219 C 167.300781 118.050781 168.023438 118.351562 168.976562 118.351562 "/>
<path style=" stroke:none;fill-rule:nonzero;fill:rgb(0%,0%,100%);fill-opacity:1;" d="M 230.773438 152.773438 L 233.699219 157.574219 C 233.898438 157.875 234.148438 158.324219 234.449219 158.925781 C 234.800781 159.476562 234.976562 159.773438 234.976562 159.824219 L 234.976562 152.773438 L 236.175781 152.773438 L 236.175781 161.773438 L 234.898438 161.773438 L 231.75 156.601562 C 231.5 156.199219 231.25 155.75 231 155.25 C 230.75 154.800781 230.574219 154.5 230.476562 154.351562 L 230.476562 161.773438 L 229.351562 161.773438 L 229.351562 152.773438 L 230.773438 152.773438 "/>
<path style=" stroke:none;fill-rule:nonzero;fill:rgb(0%,0%,100%);fill-opacity:1;" d="M 229.199219 142.875 L 230.476562 142.875 L 230.476562 146.699219 L 235.050781 146.699219 L 235.050781 142.875 L 236.25 142.875 L 236.25 151.875 L 235.050781 151.875 L 235.050781 147.75 L 230.476562 147.75 L 230.476562 151.875 L 229.199219 151.875 L 229.199219 142.875 "/>
<path style=" stroke:none;fill-rule:nonzero;fill:rgb(100%,0%,0%);fill-opacity:1;" d="M 239.324219 211.351562 C 239.324219 209.898438 239.699219 208.773438 240.449219 207.976562 C 241.148438 207.175781 242.148438 206.773438 243.449219 206.773438 C 244.800781 206.773438 245.824219 207.175781 246.523438 207.976562 C 247.273438 208.773438 247.648438 209.898438 247.648438 211.351562 C 247.648438 212.800781 247.273438 213.925781 246.523438 214.726562 C 245.824219 215.574219 244.800781 216 243.449219 216 C 242.148438 216 241.148438 215.574219 240.449219 214.726562 C 239.699219 213.925781 239.324219 212.800781 239.324219 211.351562 M 243.449219 214.949219 C 244.398438 214.949219 245.125 214.648438 245.625 214.050781 C 246.125 213.449219 246.375 212.550781 246.375 211.351562 C 246.375 210.148438 246.125 209.25 245.625 208.648438 C 245.125 208.050781 244.398438 207.75 243.449219 207.75 C 242.550781 207.75 241.851562 208.050781 241.351562 208.648438 C 240.851562 209.25 240.601562 210.148438 240.601562 211.351562 C 240.601562 212.550781 240.851562 213.449219 241.351562 214.050781 C 241.851562 214.648438 242.550781 214.949219 243.449219 214.949219 "/>
<path style=" stroke:none;fill-rule:nonzero;fill:rgb(0%,0%,100%);fill-opacity:1;" d="M 293.101562 140.398438 L 296.023438 145.199219 C 296.226562 145.5 296.5 145.925781 296.851562 146.476562 C 297.148438 147.074219 297.300781 147.375 297.300781 147.375 L 297.300781 140.398438 L 298.5 140.398438 L 298.5 149.398438 L 297.300781 149.398438 L 294.074219 144.226562 C 293.875 143.773438 293.625 143.324219 293.324219 142.875 C 293.074219 142.425781 292.925781 142.125 292.875 141.976562 L 292.875 149.398438 L 291.675781 149.398438 L 291.675781 140.398438 L 293.101562 140.398438 "/>
<path style=" stroke:none;fill-rule:nonzero;fill:rgb(0%,0%,100%);fill-opacity:1;" d="M 300.226562 140.398438 L 301.425781 140.398438 L 301.425781 144.226562 L 306.074219 144.226562 L 306.074219 140.398438 L 307.273438 140.398438 L 307.273438 149.398438 L 306.074219 149.398438 L 306.074219 145.273438 L 301.425781 145.273438 L 301.425781 149.398438 L 300.226562 149.398438 L 300.226562 140.398438 "/>
<path style=" stroke:none;fill-rule:nonzero;fill:rgb(0%,0%,100%);fill-opacity:1;" d="M 309 149.101562 C 309.148438 148.699219 309.398438 148.398438 309.75 148.199219 C 310.101562 148 310.523438 147.898438 311.023438 147.898438 C 311.625 147.898438 312.101562 148.050781 312.449219 148.351562 C 312.75 148.699219 312.898438 149.148438 312.898438 149.699219 C 312.898438 150.300781 312.675781 150.875 312.226562 151.425781 C 311.824219 151.976562 311.175781 152.574219 310.273438 153.226562 L 313.050781 153.226562 L 313.050781 153.898438 L 309 153.898438 L 309 153.375 C 309.75 152.824219 310.351562 152.351562 310.800781 151.949219 C 311.25 151.550781 311.574219 151.175781 311.773438 150.824219 C 311.976562 150.476562 312.074219 150.125 312.074219 149.773438 C 312.074219 149.375 311.976562 149.074219 311.773438 148.875 C 311.574219 148.675781 311.324219 148.574219 311.023438 148.574219 C 310.675781 148.574219 310.398438 148.625 310.199219 148.726562 C 310 148.875 309.824219 149.101562 309.675781 149.398438 L 309 149.101562 "/>
<path style=" stroke:none;fill-rule:nonzero;fill:rgb(80%,80%,0%);fill-opacity:1;" d="M 179.324219 224.699219 C 179.375 224.75 179.550781 224.824219 179.851562 224.925781 C 180.101562 225.074219 180.375 225.175781 180.675781 225.226562 C 181.023438 225.273438 181.351562 225.300781 181.648438 225.300781 C 182.199219 225.300781 182.648438 225.175781 183 224.925781 C 183.300781 224.625 183.449219 224.25 183.449219 223.800781 C 183.449219 223.449219 183.375 223.175781 183.226562 222.976562 C 183.074219 222.773438 182.851562 222.625 182.550781 222.523438 C 182.300781 222.425781 181.976562 222.300781 181.574219 222.148438 C 181.023438 222 180.601562 221.851562 180.300781 221.699219 C 180 221.550781 179.726562 221.300781 179.476562 220.949219 C 179.273438 220.648438 179.175781 220.226562 179.175781 219.675781 C 179.175781 218.925781 179.425781 218.324219 179.925781 217.875 C 180.425781 217.375 181.175781 217.125 182.175781 217.125 C 182.875 217.125 183.625 217.300781 184.425781 217.648438 L 184.125 218.625 C 183.425781 218.324219 182.800781 218.175781 182.25 218.175781 C 181.648438 218.175781 181.199219 218.300781 180.898438 218.550781 C 180.550781 218.800781 180.398438 219.125 180.449219 219.523438 C 180.449219 219.824219 180.523438 220.074219 180.675781 220.273438 C 180.824219 220.476562 181.023438 220.625 181.273438 220.726562 C 181.523438 220.875 181.851562 221 182.25 221.101562 C 182.800781 221.300781 183.226562 221.476562 183.523438 221.625 C 183.875 221.773438 184.148438 222.023438 184.351562 222.375 C 184.601562 222.726562 184.726562 223.199219 184.726562 223.800781 C 184.726562 224.601562 184.449219 225.226562 183.898438 225.675781 C 183.351562 226.125 182.601562 226.351562 181.648438 226.351562 C 181.148438 226.351562 180.675781 226.300781 180.226562 226.199219 C 179.875 226.101562 179.449219 225.949219 178.949219 225.75 L 179.324219 224.699219 "/>
<path style=" stroke:none;fill-rule:nonzero;fill:rgb(0%,0%,0%);fill-opacity:1;" d="M 210.523438 195.675781 L 211.726562 195.675781 L 211.726562 199.5 L 216.300781 199.5 L 216.300781 195.675781 L 217.5 195.675781 L 217.5 204.675781 L 216.300781 204.675781 L 216.300781 200.476562 L 211.726562 200.476562 L 211.726562 204.675781 L 210.523438 204.675781 L 210.523438 195.675781 "/>
</g>
</svg>
