<?xml version="1.0" encoding="UTF-8"?>
<svg xmlns="http://www.w3.org/2000/svg" xmlns:xlink="http://www.w3.org/1999/xlink" width="375pt" height="375pt" viewBox="0 0 375 375" version="1.1">
<g id="surface166">
<rect x="0" y="0" width="375" height="375" style="fill:rgb(100%,100%,100%);fill-opacity:1;stroke:none;"/>
<path style="fill:none;stroke-width:2;stroke-linecap:butt;stroke-linejoin:miter;stroke:rgb(0%,0%,0%);stroke-opacity:1;stroke-miterlimit:4;" d="M 73.901042 161.302083 L 90.401042 194.598958 " transform="matrix(0.75,0,0,0.75,0,0)"/>
<path style="fill:none;stroke-width:2;stroke-linecap:butt;stroke-linejoin:miter;stroke:rgb(0%,0%,0%);stroke-opacity:1;stroke-miterlimit:4;" d="M 90.401042 194.598958 L 127.5 196.901042 " transform="matrix(0.75,0,0,0.75,0,0)"/>
<path style="fill:none;stroke-width:2;stroke-linecap:butt;stroke-linejoin:miter;stroke:rgb(0%,0%,0%);stroke-opacity:1;stroke-miterlimit:4;" d="M 127.5 196.901042 L 144.098958 230.197917 " transform="matrix(0.75,0,0,0.75,0,0)"/>
<path style="fill:none;stroke-width:2;stroke-linecap:butt;stroke-linejoin:miter;stroke:rgb(0%,0%,0%);stroke-opacity:1;stroke-miterlimit:4;" d="M 123.401042 205.197917 L 135 228.598958 " transform="matrix(0.75,0,0,0.75,0,0)"/>
<path style="fill:none;stroke-width:2;stroke-linecap:butt;stroke-linejoin:miter;stroke:rgb(0%,0%,0%);stroke-opacity:1;stroke-miterlimit:4;" d="M 144.098958 230.197917 L 181.197917 232.598958 " transform="matrix(0.75,0,0,0.75,0,0)"/>
<path style="fill:none;stroke-width:2;stroke-linecap:butt;stroke-linejoin:miter;stroke:rgb(0%,0%,0%);stroke-opacity:1;stroke-miterlimit:4;" d="M 178.098958 230.5 L 186.197917 218.401042 " transform="matrix(0.75,0,0,0.75,0,0)"/>
<path style="fill:none;stroke-width:2;stroke-linecap:butt;stroke-linejoin:miter;stroke:rgb(100%,0%,0%);stroke-opacity:1;stroke-miterlimit:4;" d="M 186.197917 218.401042 L 194.197917 206.197917 " transform="matrix(0.75,0,0,0.75,0,0)"/>
<path style="fill:none;stroke-width:2;stroke-linecap:butt;stroke-linejoin:miter;stroke:rgb(0%,0%,0%);stroke-opacity:1;stroke-miterlimit:4;" d="M 184.302083 234.598958 L 192.401042 222.5 " transform="matrix(0.75,0,0,0.75,0,0)"/>
<path style="fill:none;stroke-width:2;stroke-linecap:butt;stroke-linejoin:miter;stroke:rgb(100%,0%,0%);stroke-opacity:1;stroke-miterlimit:4;" d="M 192.401042 222.5 L 200.401042 210.401042 " transform="matrix(0.75,0,0,0.75,0,0)"/>
<path style="fill:none;stroke-width:2;stroke-linecap:butt;stroke-linejoin:miter;stroke:rgb(0%,0%,0%);stroke-opacity:1;stroke-miterlimit:4;" d="M 181.197917 232.598958 L 187.901042 246 " transform="matrix(0.75,0,0,0.75,0,0)"/>
<path style="fill:none;stroke-width:2;stroke-linecap:butt;stroke-linejoin:miter;stroke:rgb(0%,0%,100%);stroke-opacity:1;stroke-miterlimit:4;" d="M 187.901042 246 L 194.5 259.401042 " transform="matrix(0.75,0,0,0.75,0,0)"/>
<path style="fill-rule:evenodd;fill:rgb(0%,0%,0%);fill-opacity:1;stroke-width:1;stroke-linecap:butt;stroke-linejoin:miter;stroke:rgb(0%,0%,0%);stroke-opacity:1;stroke-miterlimit:4;" d="M 234.901042 268.197917 L 219.401042 269.098958 L 219.697917 265.401042 Z M 234.901042 268.197917 " transform="matrix(0.75,0,0,0.75,0,0)"/>
<path style="fill-rule:evenodd;fill:rgb(0%,0%,100%);fill-opacity:1;stroke-width:1;stroke-linecap:butt;stroke-linejoin:miter;stroke:rgb(0%,0%,100%);stroke-opacity:1;stroke-miterlimit:4;" d="M 219.401042 269.098958 L 204.5 262.598958 L 204 270 Z M 219.401042 269.098958 " transform="matrix(0.75,0,0,0.75,0,0)"/>
<path style="fill-rule:evenodd;fill:rgb(0%,0%,100%);fill-opacity:1;stroke-width:1;stroke-linecap:butt;stroke-linejoin:miter;stroke:rgb(0%,0%,100%);stroke-opacity:1;stroke-miterlimit:4;" d="M 219.401042 269.098958 L 219.697917 265.401042 L 204.5 262.598958 Z M 219.401042 269.098958 " transform="matrix(0.75,0,0,0.75,0,0)"/>
<path style="fill:none;stroke-width:2;stroke-linecap:butt;stroke-linejoin:miter;stroke:rgb(0%,0%,0%);stroke-opacity:1;stroke-miterlimit:4;" d="M 234.901042 268.197917 L 259.5 296.098958 " transform="matrix(0.75,0,0,0.75,0,0)"/>
<path style="fill:none;stroke-width:2;stroke-linecap:butt;stroke-linejoin:miter;stroke:rgb(0%,0%,0%);stroke-opacity:1;stroke-miterlimit:4;" d="M 263.197917 296.302083 L 262.302083 311.598958 " transform="matrix(0.75,0,0,0.75,0,0)"/>
<path style="fill:none;stroke-width:2;stroke-linecap:butt;stroke-linejoin:miter;stroke:rgb(100%,0%,0%);stroke-opacity:1;stroke-miterlimit:4;" d="M 262.302083 311.598958 L 261.302083 326.901042 " transform="matrix(0.75,0,0,0.75,0,0)"/>
<path style="fill:none;stroke-width:2;stroke-linecap:butt;stroke-linejoin:miter;stroke:rgb(0%,0%,0%);stroke-opacity:1;stroke-miterlimit:4;" d="M 255.802083 295.901042 L 254.802083 311.197917 " transform="matrix(0.75,0,0,0.75,0,0)"/>
<path style="fill:none;stroke-width:2;stroke-linecap:butt;stroke-linejoin:miter;stroke:rgb(100%,0%,0%);stroke-opacity:1;stroke-miterlimit:4;" d="M 254.802083 311.197917 L 253.901042 326.401042 " transform="matrix(0.75,0,0,0.75,0,0)"/>
<path style="fill:none;stroke-width:2;stroke-linecap:butt;stroke-linejoin:miter;stroke:rgb(0%,0%,0%);stroke-opacity:1;stroke-miterlimit:4;" d="M 259.5 296.098958 L 270.802083 286.098958 " transform="matrix(0.75,0,0,0.75,0,0)"/>
<path style="fill:none;stroke-width:2;stroke-linecap:butt;stroke-linejoin:miter;stroke:rgb(0%,0%,100%);stroke-opacity:1;stroke-miterlimit:4;" d="M 270.802083 286.098958 L 282.197917 276.098958 " transform="matrix(0.75,0,0,0.75,0,0)"/>
<path style="fill:none;stroke-width:2;stroke-linecap:butt;stroke-linejoin:miter;stroke:rgb(0%,0%,100%);stroke-opacity:1;stroke-miterlimit:4;" d="M 292.598958 270.401042 L 308.197917 267.302083 " transform="matrix(0.75,0,0,0.75,0,0)"/>
<path style="fill:none;stroke-width:2;stroke-linecap:butt;stroke-linejoin:miter;stroke:rgb(0%,0%,0%);stroke-opacity:1;stroke-miterlimit:4;" d="M 308.197917 267.302083 L 323.901042 264.098958 " transform="matrix(0.75,0,0,0.75,0,0)"/>
<path style="fill:none;stroke-width:2;stroke-linecap:butt;stroke-linejoin:miter;stroke:rgb(0%,0%,0%);stroke-opacity:1;stroke-miterlimit:4;" d="M 323.901042 264.098958 L 348.5 292 " transform="matrix(0.75,0,0,0.75,0,0)"/>
<path style="fill:none;stroke-width:2;stroke-linecap:butt;stroke-linejoin:miter;stroke:rgb(0%,0%,0%);stroke-opacity:1;stroke-miterlimit:4;" d="M 347.697917 288.401042 L 362.901042 285.302083 " transform="matrix(0.75,0,0,0.75,0,0)"/>
<path style="fill:none;stroke-width:2;stroke-linecap:butt;stroke-linejoin:miter;stroke:rgb(100%,0%,0%);stroke-opacity:1;stroke-miterlimit:4;" d="M 362.901042 285.302083 L 378.098958 282.197917 " transform="matrix(0.75,0,0,0.75,0,0)"/>
<path style="fill:none;stroke-width:2;stroke-linecap:butt;stroke-linejoin:miter;stroke:rgb(0%,0%,0%);stroke-opacity:1;stroke-miterlimit:4;" d="M 349.197917 295.697917 L 364.401042 292.598958 " transform="matrix(0.75,0,0,0.75,0,0)"/>
<path style="fill:none;stroke-width:2;stroke-linecap:butt;stroke-linejoin:miter;stroke:rgb(100%,0%,0%);stroke-opacity:1;stroke-miterlimit:4;" d="M 364.401042 292.598958 L 379.598958 289.5 " transform="matrix(0.75,0,0,0.75,0,0)"/>
<path style="fill:none;stroke-width:2;stroke-linecap:butt;stroke-linejoin:miter;stroke:rgb(0%,0%,0%);stroke-opacity:1;stroke-miterlimit:4;" d="M 348.5 292 L 343.598958 306.401042 " transform="matrix(0.75,0,0,0.75,0,0)"/>
<path style="fill:none;stroke-width:2;stroke-linecap:butt;stroke-linejoin:miter;stroke:rgb(100%,0%,0%);stroke-opacity:1;stroke-miterlimit:4;" d="M 343.598958 306.401042 L 338.802083 320.697917 " transform="matrix(0.75,0,0,0.75,0,0)"/>
<path style="fill:none;stroke-width:2;stroke-linecap:butt;stroke-linejoin:miter;stroke:rgb(0%,0%,0%);stroke-opacity:1;stroke-miterlimit:4;" d="M 323.901042 264.098958 L 335.697917 228.901042 " transform="matrix(0.75,0,0,0.75,0,0)"/>
<path style="fill:none;stroke-width:2;stroke-linecap:butt;stroke-linejoin:miter;stroke:rgb(0%,0%,0%);stroke-opacity:1;stroke-miterlimit:4;" d="M 318.598958 256.5 L 326.901042 231.802083 " transform="matrix(0.75,0,0,0.75,0,0)"/>
<path style="fill:none;stroke-width:2;stroke-linecap:butt;stroke-linejoin:miter;stroke:rgb(0%,0%,0%);stroke-opacity:1;stroke-miterlimit:4;" d="M 335.697917 228.901042 L 372.197917 221.5 " transform="matrix(0.75,0,0,0.75,0,0)"/>
<path style="fill:none;stroke-width:2;stroke-linecap:butt;stroke-linejoin:miter;stroke:rgb(0%,0%,0%);stroke-opacity:1;stroke-miterlimit:4;" d="M 372.197917 221.5 L 381.598958 232.197917 " transform="matrix(0.75,0,0,0.75,0,0)"/>
<path style="fill:none;stroke-width:2;stroke-linecap:butt;stroke-linejoin:miter;stroke:rgb(100%,0%,0%);stroke-opacity:1;stroke-miterlimit:4;" d="M 381.598958 232.197917 L 391 242.802083 " transform="matrix(0.75,0,0,0.75,0,0)"/>
<path style="fill:none;stroke-width:2;stroke-linecap:butt;stroke-linejoin:miter;stroke:rgb(100%,0%,0%);stroke-opacity:1;stroke-miterlimit:4;" d="M 402.802083 248.197917 L 418 245.098958 " transform="matrix(0.75,0,0,0.75,0,0)"/>
<path style="fill:none;stroke-width:2;stroke-linecap:butt;stroke-linejoin:miter;stroke:rgb(0%,0%,0%);stroke-opacity:1;stroke-miterlimit:4;" d="M 418 245.098958 L 433.197917 242 " transform="matrix(0.75,0,0,0.75,0,0)"/>
<path style="fill:none;stroke-width:2;stroke-linecap:butt;stroke-linejoin:miter;stroke:rgb(0%,0%,0%);stroke-opacity:1;stroke-miterlimit:4;" d="M 433.197917 242 L 442.901042 253 " transform="matrix(0.75,0,0,0.75,0,0)"/>
<path style="fill:none;stroke-width:2;stroke-linecap:butt;stroke-linejoin:miter;stroke:rgb(0%,0%,100%);stroke-opacity:1;stroke-miterlimit:4;" d="M 442.901042 253 L 452.598958 264 " transform="matrix(0.75,0,0,0.75,0,0)"/>
<path style="fill:none;stroke-width:2;stroke-linecap:butt;stroke-linejoin:miter;stroke:rgb(0%,0%,0%);stroke-opacity:1;stroke-miterlimit:4;" d="M 429.697917 240.901042 L 434.5 226.598958 " transform="matrix(0.75,0,0,0.75,0,0)"/>
<path style="fill:none;stroke-width:2;stroke-linecap:butt;stroke-linejoin:miter;stroke:rgb(100%,0%,0%);stroke-opacity:1;stroke-miterlimit:4;" d="M 434.5 226.598958 L 439.302083 212.302083 " transform="matrix(0.75,0,0,0.75,0,0)"/>
<path style="fill:none;stroke-width:2;stroke-linecap:butt;stroke-linejoin:miter;stroke:rgb(0%,0%,0%);stroke-opacity:1;stroke-miterlimit:4;" d="M 436.802083 243.197917 L 441.598958 229 " transform="matrix(0.75,0,0,0.75,0,0)"/>
<path style="fill:none;stroke-width:2;stroke-linecap:butt;stroke-linejoin:miter;stroke:rgb(100%,0%,0%);stroke-opacity:1;stroke-miterlimit:4;" d="M 441.598958 229 L 446.401042 214.697917 " transform="matrix(0.75,0,0,0.75,0,0)"/>
<path style="fill:none;stroke-width:2;stroke-linecap:butt;stroke-linejoin:miter;stroke:rgb(0%,0%,0%);stroke-opacity:1;stroke-miterlimit:4;" d="M 335.697917 228.901042 L 311.098958 201 " transform="matrix(0.75,0,0,0.75,0,0)"/>
<path style="fill:none;stroke-width:2;stroke-linecap:butt;stroke-linejoin:miter;stroke:rgb(0%,0%,0%);stroke-opacity:1;stroke-miterlimit:4;" d="M 311.098958 201 L 295.197917 204.197917 " transform="matrix(0.75,0,0,0.75,0,0)"/>
<path style="fill:none;stroke-width:2;stroke-linecap:butt;stroke-linejoin:miter;stroke:rgb(80%,80%,0%);stroke-opacity:1;stroke-miterlimit:4;" d="M 295.197917 204.197917 L 279.302083 207.401042 " transform="matrix(0.75,0,0,0.75,0,0)"/>
<path style="fill:none;stroke-width:2;stroke-linecap:butt;stroke-linejoin:miter;stroke:rgb(80%,80%,0%);stroke-opacity:1;stroke-miterlimit:4;" d="M 272.401042 215.098958 L 267.598958 229.302083 " transform="matrix(0.75,0,0,0.75,0,0)"/>
<path style="fill:none;stroke-width:2;stroke-linecap:butt;stroke-linejoin:miter;stroke:rgb(0%,0%,0%);stroke-opacity:1;stroke-miterlimit:4;" d="M 267.598958 229.302083 L 262.802083 243.598958 " transform="matrix(0.75,0,0,0.75,0,0)"/>
<path style="fill:none;stroke-width:2;stroke-linecap:butt;stroke-linejoin:miter;stroke:rgb(0%,0%,0%);stroke-opacity:1;stroke-miterlimit:4;" d="M 144.098958 230.197917 L 123.5 261.197917 " transform="matrix(0.75,0,0,0.75,0,0)"/>
<path style="fill:none;stroke-width:2;stroke-linecap:butt;stroke-linejoin:miter;stroke:rgb(0%,0%,0%);stroke-opacity:1;stroke-miterlimit:4;" d="M 123.5 261.197917 L 136.5 296.098958 " transform="matrix(0.75,0,0,0.75,0,0)"/>
<path style="fill:none;stroke-width:2;stroke-linecap:butt;stroke-linejoin:miter;stroke:rgb(0%,0%,0%);stroke-opacity:1;stroke-miterlimit:4;" d="M 118.5 269.098958 L 127.598958 293.5 " transform="matrix(0.75,0,0,0.75,0,0)"/>
<path style="fill:none;stroke-width:2;stroke-linecap:butt;stroke-linejoin:miter;stroke:rgb(0%,0%,0%);stroke-opacity:1;stroke-miterlimit:4;" d="M 136.5 296.098958 L 124.197917 305.802083 " transform="matrix(0.75,0,0,0.75,0,0)"/>
<path style="fill:none;stroke-width:2;stroke-linecap:butt;stroke-linejoin:miter;stroke:rgb(80%,80%,0%);stroke-opacity:1;stroke-miterlimit:4;" d="M 124.197917 305.802083 L 112 315.5 " transform="matrix(0.75,0,0,0.75,0,0)"/>
<path style="fill:none;stroke-width:2;stroke-linecap:butt;stroke-linejoin:miter;stroke:rgb(80%,80%,0%);stroke-opacity:1;stroke-miterlimit:4;" d="M 102.697917 316.098958 L 89.598958 307.401042 " transform="matrix(0.75,0,0,0.75,0,0)"/>
<path style="fill:none;stroke-width:2;stroke-linecap:butt;stroke-linejoin:miter;stroke:rgb(0%,0%,0%);stroke-opacity:1;stroke-miterlimit:4;" d="M 89.598958 307.401042 L 76.401042 298.598958 " transform="matrix(0.75,0,0,0.75,0,0)"/>
<path style="fill:none;stroke-width:2;stroke-linecap:butt;stroke-linejoin:miter;stroke:rgb(0%,0%,0%);stroke-opacity:1;stroke-miterlimit:4;" d="M 76.401042 298.598958 L 61.5 304.098958 " transform="matrix(0.75,0,0,0.75,0,0)"/>
<path style="fill:none;stroke-width:2;stroke-linecap:butt;stroke-linejoin:miter;stroke:rgb(0%,0%,100%);stroke-opacity:1;stroke-miterlimit:4;" d="M 61.5 304.098958 L 46.697917 309.697917 " transform="matrix(0.75,0,0,0.75,0,0)"/>
<path style="fill:none;stroke-width:2;stroke-linecap:butt;stroke-linejoin:miter;stroke:rgb(0%,0%,0%);stroke-opacity:1;stroke-miterlimit:4;" d="M 76.401042 298.598958 L 80.5 284 " transform="matrix(0.75,0,0,0.75,0,0)"/>
<path style="fill:none;stroke-width:2;stroke-linecap:butt;stroke-linejoin:miter;stroke:rgb(0%,0%,100%);stroke-opacity:1;stroke-miterlimit:4;" d="M 80.5 284 L 84.5 269.302083 " transform="matrix(0.75,0,0,0.75,0,0)"/>
<path style="fill:none;stroke-width:2;stroke-linecap:butt;stroke-linejoin:miter;stroke:rgb(0%,0%,0%);stroke-opacity:1;stroke-miterlimit:4;" d="M 84.802083 296.197917 L 87.598958 286 " transform="matrix(0.75,0,0,0.75,0,0)"/>
<path style="fill:none;stroke-width:2;stroke-linecap:butt;stroke-linejoin:miter;stroke:rgb(0%,0%,100%);stroke-opacity:1;stroke-miterlimit:4;" d="M 87.598958 286 L 90.5 275.697917 " transform="matrix(0.75,0,0,0.75,0,0)"/>
<path style="fill:none;stroke-width:2;stroke-linecap:butt;stroke-linejoin:miter;stroke:rgb(0%,0%,0%);stroke-opacity:1;stroke-miterlimit:4;" d="M 262.802083 243.598958 L 234.901042 268.197917 " transform="matrix(0.75,0,0,0.75,0,0)"/>
<path style="fill:none;stroke-width:2;stroke-linecap:butt;stroke-linejoin:miter;stroke:rgb(0%,0%,100%);stroke-opacity:1;stroke-miterlimit:4;" d="M 91.598958 262.598958 L 107.598958 261.901042 " transform="matrix(0.75,0,0,0.75,0,0)"/>
<path style="fill:none;stroke-width:2;stroke-linecap:butt;stroke-linejoin:miter;stroke:rgb(0%,0%,0%);stroke-opacity:1;stroke-miterlimit:4;" d="M 107.598958 261.901042 L 123.5 261.197917 " transform="matrix(0.75,0,0,0.75,0,0)"/>
<path style="fill:none;stroke-width:2;stroke-linecap:butt;stroke-linejoin:miter;stroke:rgb(0%,0%,0%);stroke-opacity:1;stroke-miterlimit:4;" d="M 262.802083 243.598958 L 272.5 254.598958 " transform="matrix(0.75,0,0,0.75,0,0)"/>
<path style="fill:none;stroke-width:2;stroke-linecap:butt;stroke-linejoin:miter;stroke:rgb(0%,0%,100%);stroke-opacity:1;stroke-miterlimit:4;" d="M 272.5 254.598958 L 282.197917 265.598958 " transform="matrix(0.75,0,0,0.75,0,0)"/>
<path style="fill:none;stroke-width:1;stroke-linecap:butt;stroke-linejoin:miter;stroke:rgb(0%,0%,0%);stroke-opacity:1;stroke-miterlimit:4;" d="M 258.302083 239.697917 L 257.5 241 " transform="matrix(0.75,0,0,0.75,0,0)"/>
<path style="fill:none;stroke-width:1;stroke-linecap:butt;stroke-linejoin:miter;stroke:rgb(0%,0%,0%);stroke-opacity:1;stroke-miterlimit:4;" d="M 253.802083 235.901042 L 252.197917 238.401042 " transform="matrix(0.75,0,0,0.75,0,0)"/>
<path style="fill:none;stroke-width:1;stroke-linecap:butt;stroke-linejoin:miter;stroke:rgb(0%,0%,0%);stroke-opacity:1;stroke-miterlimit:4;" d="M 249.401042 232 L 246.901042 235.697917 " transform="matrix(0.75,0,0,0.75,0,0)"/>
<path style="fill:none;stroke-width:1;stroke-linecap:butt;stroke-linejoin:miter;stroke:rgb(0%,0%,0%);stroke-opacity:1;stroke-miterlimit:4;" d="M 244.901042 228.098958 L 241.598958 233.098958 " transform="matrix(0.75,0,0,0.75,0,0)"/>
<path style="fill:none;stroke-width:1;stroke-linecap:butt;stroke-linejoin:miter;stroke:rgb(0%,0%,0%);stroke-opacity:1;stroke-miterlimit:4;" d="M 240.401042 224.302083 L 236.302083 230.5 " transform="matrix(0.75,0,0,0.75,0,0)"/>
<path style=" stroke:none;fill-rule:nonzero;fill:rgb(100%,0%,0%);fill-opacity:1;" d="M 147.75 151.199219 C 147.75 149.949219 148.050781 148.976562 148.648438 148.273438 C 149.300781 147.523438 150.199219 147.148438 151.351562 147.148438 C 152.5 147.148438 153.398438 147.523438 154.050781 148.273438 C 154.648438 148.976562 154.949219 149.949219 154.949219 151.199219 C 154.949219 152.5 154.648438 153.5 154.050781 154.199219 C 153.398438 154.949219 152.5 155.324219 151.351562 155.324219 C 150.199219 155.324219 149.300781 154.949219 148.648438 154.199219 C 148.050781 153.5 147.75 152.5 147.75 151.199219 M 151.351562 154.425781 C 152.148438 154.425781 152.773438 154.148438 153.226562 153.601562 C 153.625 153.050781 153.824219 152.25 153.824219 151.199219 C 153.824219 150.148438 153.625 149.375 153.226562 148.875 C 152.773438 148.324219 152.148438 148.050781 151.351562 148.050781 C 150.550781 148.050781 149.925781 148.324219 149.476562 148.875 C 149.074219 149.375 148.875 150.148438 148.875 151.199219 C 148.875 152.25 149.074219 153.050781 149.476562 153.601562 C 149.925781 154.148438 150.550781 154.425781 151.351562 154.425781 "/>
<path style=" stroke:none;fill-rule:nonzero;fill:rgb(0%,0%,100%);fill-opacity:1;" d="M 138.226562 195.449219 L 139.273438 195.449219 L 139.273438 198.824219 L 143.324219 198.824219 L 143.324219 195.449219 L 144.375 195.449219 L 144.375 203.324219 L 143.324219 203.324219 L 143.324219 199.726562 L 139.273438 199.726562 L 139.273438 203.324219 L 138.226562 203.324219 L 138.226562 195.449219 "/>
<path style=" stroke:none;fill-rule:nonzero;fill:rgb(0%,0%,100%);fill-opacity:1;" d="M 146.550781 195.449219 L 149.175781 199.648438 C 149.324219 199.898438 149.550781 200.273438 149.851562 200.773438 C 150.101562 201.273438 150.25 201.550781 150.300781 201.601562 L 150.300781 195.449219 L 151.351562 195.449219 L 151.351562 203.324219 L 150.226562 203.324219 L 147.449219 198.75 C 147.25 198.398438 147.023438 198.023438 146.773438 197.625 C 146.574219 197.226562 146.425781 196.949219 146.324219 196.800781 L 146.324219 203.324219 L 145.351562 203.324219 L 145.351562 195.449219 L 146.550781 195.449219 "/>
<path style=" stroke:none;fill-rule:nonzero;fill:rgb(100%,0%,0%);fill-opacity:1;" d="M 189.226562 249.976562 C 189.226562 248.675781 189.550781 247.675781 190.199219 246.976562 C 190.800781 246.273438 191.699219 245.925781 192.898438 245.925781 C 194.050781 245.925781 194.949219 246.273438 195.601562 246.976562 C 196.199219 247.675781 196.5 248.675781 196.5 249.976562 C 196.5 251.226562 196.175781 252.226562 195.523438 252.976562 C 194.925781 253.675781 194.050781 254.023438 192.898438 254.023438 C 191.75 254.023438 190.851562 253.675781 190.199219 252.976562 C 189.550781 252.226562 189.226562 251.226562 189.226562 249.976562 M 192.898438 253.125 C 193.699219 253.125 194.300781 252.875 194.699219 252.375 C 195.148438 251.824219 195.375 251.023438 195.375 249.976562 C 195.375 248.925781 195.148438 248.125 194.699219 247.574219 C 194.300781 247.074219 193.699219 246.824219 192.898438 246.824219 C 192.101562 246.824219 191.476562 247.074219 191.023438 247.574219 C 190.574219 248.125 190.351562 248.925781 190.351562 249.976562 C 190.351562 251.023438 190.574219 251.824219 191.023438 252.375 C 191.476562 252.875 192.101562 253.125 192.898438 253.125 "/>
<path style=" stroke:none;fill-rule:nonzero;fill:rgb(0%,0%,100%);fill-opacity:1;" d="M 213.824219 199.648438 L 216.375 203.851562 C 216.574219 204.148438 216.800781 204.550781 217.050781 205.050781 C 217.351562 205.5 217.5 205.75 217.5 205.800781 L 217.5 199.648438 L 218.550781 199.648438 L 218.550781 207.601562 L 217.425781 207.601562 L 214.648438 203.023438 C 214.449219 202.625 214.25 202.226562 214.050781 201.824219 C 213.800781 201.425781 213.648438 201.175781 213.601562 201.074219 L 213.601562 207.601562 L 212.550781 207.601562 L 212.550781 199.648438 L 213.824219 199.648438 "/>
<path style=" stroke:none;fill-rule:nonzero;fill:rgb(100%,0%,0%);fill-opacity:1;" d="M 285.074219 213.523438 C 285.074219 212.273438 285.375 211.273438 285.976562 210.523438 C 286.625 209.824219 287.523438 209.476562 288.675781 209.476562 C 289.875 209.476562 290.773438 209.824219 291.375 210.523438 C 292.023438 211.273438 292.351562 212.273438 292.351562 213.523438 C 292.351562 214.824219 292.023438 215.824219 291.375 216.523438 C 290.726562 217.273438 289.824219 217.648438 288.675781 217.648438 C 287.523438 217.648438 286.625 217.273438 285.976562 216.523438 C 285.375 215.824219 285.074219 214.824219 285.074219 213.523438 M 288.675781 216.75 C 289.476562 216.75 290.101562 216.476562 290.550781 215.925781 C 291 215.375 291.226562 214.574219 291.226562 213.523438 C 291.226562 212.476562 291 211.699219 290.550781 211.199219 C 290.101562 210.648438 289.476562 210.375 288.675781 210.375 C 287.875 210.375 287.25 210.648438 286.800781 211.199219 C 286.398438 211.699219 286.199219 212.476562 286.199219 213.523438 C 286.199219 214.574219 286.398438 215.375 286.800781 215.925781 C 287.25 216.476562 287.875 216.75 288.675781 216.75 "/>
<path style=" stroke:none;fill-rule:nonzero;fill:rgb(100%,0%,0%);fill-opacity:1;" d="M 248.851562 245.476562 C 248.851562 244.226562 249.148438 243.25 249.75 242.550781 C 250.398438 241.851562 251.300781 241.5 252.449219 241.5 C 253.601562 241.5 254.5 241.851562 255.148438 242.550781 C 255.75 243.25 256.050781 244.226562 256.050781 245.476562 C 256.050781 246.773438 255.75 247.773438 255.148438 248.476562 C 254.5 249.226562 253.601562 249.601562 252.449219 249.601562 C 251.300781 249.601562 250.398438 249.226562 249.75 248.476562 C 249.148438 247.773438 248.851562 246.773438 248.851562 245.476562 M 252.449219 248.699219 C 253.25 248.699219 253.875 248.425781 254.324219 247.875 C 254.773438 247.324219 255 246.523438 255 245.476562 C 255 244.425781 254.773438 243.648438 254.324219 243.148438 C 253.875 242.601562 253.25 242.324219 252.449219 242.324219 C 251.648438 242.324219 251.023438 242.601562 250.574219 243.148438 C 250.175781 243.648438 249.976562 244.425781 249.976562 245.476562 C 249.976562 246.523438 250.175781 247.324219 250.574219 247.875 C 251.023438 248.425781 251.648438 248.699219 252.449219 248.699219 "/>
<path style=" stroke:none;fill-rule:nonzero;fill:rgb(100%,0%,0%);fill-opacity:1;" d="M 256.648438 241.574219 L 257.699219 241.574219 L 257.699219 244.949219 L 261.75 244.949219 L 261.75 241.574219 L 262.800781 241.574219 L 262.800781 249.449219 L 261.75 249.449219 L 261.75 245.773438 L 257.699219 245.773438 L 257.699219 249.449219 L 256.648438 249.449219 L 256.648438 241.574219 "/>
<path style=" stroke:none;fill-rule:nonzero;fill:rgb(100%,0%,0%);fill-opacity:1;" d="M 293.925781 187.050781 C 293.925781 185.800781 294.25 184.824219 294.898438 184.125 C 295.5 183.425781 296.398438 183.074219 297.601562 183.074219 C 298.75 183.074219 299.648438 183.425781 300.300781 184.125 C 300.898438 184.824219 301.199219 185.800781 301.199219 187.050781 C 301.199219 188.351562 300.898438 189.375 300.300781 190.125 C 299.648438 190.824219 298.75 191.175781 297.601562 191.175781 C 296.449219 191.175781 295.550781 190.824219 294.898438 190.125 C 294.25 189.375 293.925781 188.351562 293.925781 187.050781 M 297.601562 190.273438 C 298.398438 190.273438 299.023438 190 299.476562 189.449219 C 299.875 188.898438 300.074219 188.101562 300.074219 187.050781 C 300.074219 186.050781 299.875 185.273438 299.476562 184.726562 C 299.023438 184.226562 298.398438 183.976562 297.601562 183.976562 C 296.800781 183.976562 296.175781 184.226562 295.726562 184.726562 C 295.273438 185.273438 295.050781 186.050781 295.050781 187.050781 C 295.050781 188.148438 295.273438 188.949219 295.726562 189.449219 C 296.175781 190 296.800781 190.273438 297.601562 190.273438 "/>
<path style=" stroke:none;fill-rule:nonzero;fill:rgb(0%,0%,100%);fill-opacity:1;" d="M 341.625 198.523438 L 344.25 202.648438 C 344.398438 202.949219 344.625 203.351562 344.925781 203.851562 C 345.175781 204.351562 345.300781 204.625 345.300781 204.675781 L 345.300781 198.523438 L 346.351562 198.523438 L 346.351562 206.398438 L 345.300781 206.398438 L 342.523438 201.824219 C 342.324219 201.476562 342.101562 201.101562 341.851562 200.699219 C 341.648438 200.300781 341.5 200.023438 341.398438 199.875 L 341.398438 206.398438 L 340.425781 206.398438 L 340.425781 198.523438 L 341.625 198.523438 "/>
<path style=" stroke:none;fill-rule:nonzero;fill:rgb(0%,0%,100%);fill-opacity:1;" d="M 347.324219 198.523438 L 348.375 198.523438 L 348.375 201.824219 L 352.425781 201.824219 L 352.425781 198.523438 L 353.476562 198.523438 L 353.476562 206.398438 L 352.425781 206.398438 L 352.425781 202.726562 L 348.375 202.726562 L 348.375 206.398438 L 347.324219 206.398438 L 347.324219 198.523438 "/>
<path style=" stroke:none;fill-rule:nonzero;fill:rgb(0%,0%,100%);fill-opacity:1;" d="M 354.449219 206.101562 C 354.601562 205.800781 354.824219 205.550781 355.125 205.351562 C 355.425781 205.148438 355.773438 205.050781 356.175781 205.050781 C 356.726562 205.050781 357.148438 205.199219 357.449219 205.5 C 357.75 205.800781 357.898438 206.199219 357.898438 206.699219 C 357.898438 207.199219 357.699219 207.699219 357.300781 208.199219 C 356.898438 208.648438 356.324219 209.175781 355.574219 209.773438 L 357.976562 209.773438 L 357.976562 210.375 L 354.449219 210.375 L 354.449219 209.851562 C 355.101562 209.398438 355.625 209 356.023438 208.648438 C 356.375 208.300781 356.648438 207.976562 356.851562 207.675781 C 357.050781 207.375 357.148438 207.050781 357.148438 206.699219 C 357.148438 206.398438 357.050781 206.148438 356.851562 205.949219 C 356.699219 205.75 356.476562 205.648438 356.175781 205.648438 C 355.925781 205.648438 355.699219 205.726562 355.5 205.875 C 355.300781 205.976562 355.148438 206.148438 355.050781 206.398438 L 354.449219 206.101562 "/>
<path style=" stroke:none;fill-rule:nonzero;fill:rgb(100%,0%,0%);fill-opacity:1;" d="M 330.226562 155.101562 C 330.226562 153.851562 330.523438 152.875 331.125 152.175781 C 331.773438 151.476562 332.675781 151.125 333.824219 151.125 C 334.976562 151.125 335.875 151.476562 336.523438 152.175781 C 337.125 152.875 337.425781 153.851562 337.425781 155.101562 C 337.425781 156.398438 337.125 157.398438 336.523438 158.101562 C 335.875 158.851562 334.976562 159.226562 333.824219 159.226562 C 332.675781 159.226562 331.773438 158.851562 331.125 158.101562 C 330.523438 157.398438 330.226562 156.398438 330.226562 155.101562 M 333.824219 158.324219 C 334.625 158.324219 335.25 158.050781 335.699219 157.5 C 336.101562 156.949219 336.300781 156.148438 336.300781 155.101562 C 336.300781 154.050781 336.101562 153.273438 335.699219 152.773438 C 335.25 152.226562 334.625 151.949219 333.824219 151.949219 C 333.023438 151.949219 332.398438 152.226562 331.949219 152.773438 C 331.550781 153.273438 331.351562 154.050781 331.351562 155.101562 C 331.351562 156.148438 331.550781 156.949219 331.949219 157.5 C 332.398438 158.050781 333.023438 158.324219 333.824219 158.324219 "/>
<path style=" stroke:none;fill-rule:nonzero;fill:rgb(80%,80%,0%);fill-opacity:1;" d="M 203.773438 159 C 203.824219 159 203.976562 159.050781 204.226562 159.148438 C 204.476562 159.25 204.726562 159.324219 204.976562 159.375 C 205.273438 159.476562 205.550781 159.523438 205.800781 159.523438 C 206.300781 159.523438 206.699219 159.398438 207 159.148438 C 207.300781 158.898438 207.449219 158.574219 207.449219 158.175781 C 207.449219 157.875 207.375 157.625 207.226562 157.425781 C 207.074219 157.273438 206.875 157.148438 206.625 157.050781 C 206.425781 156.949219 206.125 156.824219 205.726562 156.675781 C 205.273438 156.574219 204.898438 156.449219 204.601562 156.300781 C 204.351562 156.148438 204.125 155.949219 203.925781 155.699219 C 203.726562 155.398438 203.625 155 203.625 154.5 C 203.625 153.851562 203.851562 153.324219 204.300781 152.925781 C 204.75 152.523438 205.425781 152.324219 206.324219 152.324219 C 206.925781 152.324219 207.574219 152.476562 208.273438 152.773438 L 207.976562 153.601562 C 207.375 153.351562 206.824219 153.226562 206.324219 153.226562 C 205.824219 153.226562 205.425781 153.324219 205.125 153.523438 C 204.875 153.726562 204.75 154.023438 204.75 154.425781 C 204.75 154.675781 204.824219 154.898438 204.976562 155.101562 C 205.125 155.25 205.300781 155.375 205.5 155.476562 C 205.699219 155.574219 205.976562 155.675781 206.324219 155.773438 C 206.824219 155.925781 207.199219 156.074219 207.449219 156.226562 C 207.75 156.375 208 156.601562 208.199219 156.898438 C 208.398438 157.199219 208.5 157.625 208.5 158.175781 C 208.5 158.875 208.25 159.425781 207.75 159.824219 C 207.300781 160.226562 206.675781 160.425781 205.875 160.425781 C 205.375 160.425781 204.949219 160.375 204.601562 160.273438 C 204.25 160.175781 203.875 160.023438 203.476562 159.824219 L 203.773438 159 "/>
<path style=" stroke:none;fill-rule:nonzero;fill:rgb(80%,80%,0%);fill-opacity:1;" d="M 78.300781 242.101562 C 78.351562 242.148438 78.5 242.226562 78.75 242.324219 C 79 242.425781 79.25 242.5 79.5 242.550781 C 79.800781 242.601562 80.074219 242.625 80.324219 242.625 C 80.824219 242.625 81.226562 242.523438 81.523438 242.324219 C 81.824219 242.074219 81.976562 241.726562 81.976562 241.273438 C 81.976562 240.976562 81.898438 240.75 81.75 240.601562 C 81.601562 240.398438 81.398438 240.25 81.148438 240.148438 C 80.949219 240.050781 80.648438 239.949219 80.25 239.851562 C 79.800781 239.699219 79.425781 239.574219 79.125 239.476562 C 78.875 239.324219 78.648438 239.101562 78.449219 238.800781 C 78.25 238.550781 78.148438 238.175781 78.148438 237.675781 C 78.148438 237.023438 78.375 236.5 78.824219 236.101562 C 79.273438 235.648438 79.949219 235.425781 80.851562 235.425781 C 81.449219 235.425781 82.101562 235.574219 82.800781 235.875 L 82.5 236.773438 C 81.898438 236.523438 81.351562 236.398438 80.851562 236.398438 C 80.351562 236.398438 79.949219 236.5 79.648438 236.699219 C 79.398438 236.898438 79.273438 237.175781 79.273438 237.523438 C 79.273438 237.824219 79.351562 238.050781 79.5 238.199219 C 79.648438 238.398438 79.824219 238.550781 80.023438 238.648438 C 80.226562 238.75 80.5 238.851562 80.851562 238.949219 C 81.351562 239.101562 81.726562 239.25 81.976562 239.398438 C 82.273438 239.550781 82.523438 239.773438 82.726562 240.074219 C 82.925781 240.375 83.023438 240.773438 83.023438 241.273438 C 83.023438 242.023438 82.773438 242.601562 82.273438 243 C 81.824219 243.351562 81.199219 243.523438 80.398438 243.523438 C 79.898438 243.523438 79.476562 243.476562 79.125 243.375 C 78.773438 243.273438 78.398438 243.148438 78 243 L 78.300781 242.101562 "/>
<path style=" stroke:none;fill-rule:nonzero;fill:rgb(0%,0%,100%);fill-opacity:1;" d="M 17.023438 229.726562 L 18.148438 229.726562 L 18.148438 233.101562 L 22.125 233.101562 L 22.125 229.726562 L 23.25 229.726562 L 23.25 237.675781 L 22.125 237.675781 L 22.125 234 L 18.148438 234 L 18.148438 237.675781 L 17.023438 237.675781 L 17.023438 229.726562 "/>
<path style=" stroke:none;fill-rule:nonzero;fill:rgb(0%,0%,100%);fill-opacity:1;" d="M 24.226562 237.375 C 24.324219 237.023438 24.523438 236.773438 24.824219 236.625 C 25.125 236.425781 25.5 236.324219 25.949219 236.324219 C 26.449219 236.324219 26.851562 236.476562 27.148438 236.773438 C 27.449219 237.023438 27.601562 237.425781 27.601562 237.976562 C 27.601562 238.476562 27.398438 238.949219 27 239.398438 C 26.648438 239.898438 26.074219 240.425781 25.273438 240.976562 L 27.675781 240.976562 L 27.675781 241.574219 L 24.148438 241.574219 L 24.148438 241.125 C 24.800781 240.675781 25.324219 240.273438 25.726562 239.925781 C 26.125 239.574219 26.398438 239.25 26.550781 238.949219 C 26.75 238.601562 26.851562 238.273438 26.851562 237.976562 C 26.851562 237.625 26.773438 237.375 26.625 237.226562 C 26.476562 237.023438 26.25 236.925781 25.949219 236.925781 C 25.648438 236.925781 25.398438 236.976562 25.199219 237.074219 C 25.050781 237.175781 24.898438 237.351562 24.75 237.601562 L 24.226562 237.375 "/>
<path style=" stroke:none;fill-rule:nonzero;fill:rgb(0%,0%,100%);fill-opacity:1;" d="M 29.398438 229.726562 L 31.949219 233.925781 C 32.148438 234.226562 32.375 234.625 32.625 235.125 C 32.925781 235.625 33.074219 235.875 33.074219 235.875 L 33.074219 229.726562 L 34.125 229.726562 L 34.125 237.675781 L 33.074219 237.675781 L 30.300781 233.101562 C 30.050781 232.75 29.824219 232.351562 29.625 231.898438 C 29.375 231.5 29.226562 231.25 29.175781 231.148438 L 29.175781 237.675781 L 28.125 237.675781 L 28.125 229.726562 L 29.398438 229.726562 "/>
<path style=" stroke:none;fill-rule:nonzero;fill:rgb(0%,0%,100%);fill-opacity:1;" d="M 63 193.125 L 65.625 197.324219 C 65.773438 197.625 66 198.023438 66.300781 198.523438 C 66.550781 199.023438 66.699219 199.273438 66.75 199.273438 L 66.75 193.125 L 67.800781 193.125 L 67.800781 201.074219 L 66.675781 201.074219 L 63.898438 196.5 C 63.699219 196.101562 63.476562 195.699219 63.226562 195.300781 C 63.023438 194.898438 62.875 194.648438 62.773438 194.550781 L 62.773438 201.074219 L 61.800781 201.074219 L 61.800781 193.125 L 63 193.125 "/>
<path style=" stroke:none;fill-rule:nonzero;fill:rgb(0%,0%,0%);fill-opacity:1;" d="M 170.773438 163.351562 L 171.824219 163.351562 L 171.824219 166.648438 L 175.875 166.648438 L 175.875 163.351562 L 176.925781 163.351562 L 176.925781 171.226562 L 175.875 171.226562 L 175.875 167.550781 L 171.824219 167.550781 L 171.824219 171.226562 L 170.773438 171.226562 L 170.773438 163.351562 "/>
</g>
</svg>
