<?xml version="1.0" encoding="UTF-8"?>
<svg xmlns="http://www.w3.org/2000/svg" xmlns:xlink="http://www.w3.org/1999/xlink" width="375pt" height="375pt" viewBox="0 0 375 375" version="1.1">
<g id="surface331">
<rect x="0" y="0" width="375" height="375" style="fill:rgb(100%,100%,100%);fill-opacity:1;stroke:none;"/>
<path style="fill:none;stroke-width:2;stroke-linecap:butt;stroke-linejoin:miter;stroke:rgb(0%,0%,100%);stroke-opacity:1;stroke-miterlimit:4;" d="M 76.901042 230.5 L 112.802083 228.5 " transform="matrix(0.75,0,0,0.75,0,0)"/>
<path style="fill:none;stroke-width:2;stroke-linecap:butt;stroke-linejoin:miter;stroke:rgb(0%,0%,0%);stroke-opacity:1;stroke-miterlimit:4;" d="M 112.802083 228.5 L 148.802083 226.5 " transform="matrix(0.75,0,0,0.75,0,0)"/>
<path style="fill:none;stroke-width:2;stroke-linecap:butt;stroke-linejoin:miter;stroke:rgb(0%,0%,0%);stroke-opacity:1;stroke-miterlimit:4;" d="M 148.802083 226.5 L 186.697917 151.598958 " transform="matrix(0.75,0,0,0.75,0,0)"/>
<path style="fill:none;stroke-width:2;stroke-linecap:butt;stroke-linejoin:miter;stroke:rgb(0%,0%,0%);stroke-opacity:1;stroke-miterlimit:4;" d="M 169.5 222.802083 L 196 170.401042 " transform="matrix(0.75,0,0,0.75,0,0)"/>
<path style="fill:none;stroke-width:2;stroke-linecap:butt;stroke-linejoin:miter;stroke:rgb(0%,0%,0%);stroke-opacity:1;stroke-miterlimit:4;" d="M 186.697917 151.598958 L 270.401042 146.901042 " transform="matrix(0.75,0,0,0.75,0,0)"/>
<path style="fill:none;stroke-width:2;stroke-linecap:butt;stroke-linejoin:miter;stroke:rgb(0%,0%,0%);stroke-opacity:1;stroke-miterlimit:4;" d="M 270.401042 146.901042 L 316.401042 217.098958 " transform="matrix(0.75,0,0,0.75,0,0)"/>
<path style="fill:none;stroke-width:2;stroke-linecap:butt;stroke-linejoin:miter;stroke:rgb(0%,0%,0%);stroke-opacity:1;stroke-miterlimit:4;" d="M 263.302083 166.598958 L 295.401042 215.697917 " transform="matrix(0.75,0,0,0.75,0,0)"/>
<path style="fill:none;stroke-width:2;stroke-linecap:butt;stroke-linejoin:miter;stroke:rgb(0%,0%,0%);stroke-opacity:1;stroke-miterlimit:4;" d="M 316.401042 217.098958 L 400.098958 212.401042 " transform="matrix(0.75,0,0,0.75,0,0)"/>
<path style="fill:none;stroke-width:2;stroke-linecap:butt;stroke-linejoin:miter;stroke:rgb(0%,0%,0%);stroke-opacity:1;stroke-miterlimit:4;" d="M 392.697917 208.598958 L 407.697917 178.697917 " transform="matrix(0.75,0,0,0.75,0,0)"/>
<path style="fill:none;stroke-width:2;stroke-linecap:butt;stroke-linejoin:miter;stroke:rgb(100%,0%,0%);stroke-opacity:1;stroke-miterlimit:4;" d="M 407.697917 178.697917 L 422.802083 148.802083 " transform="matrix(0.75,0,0,0.75,0,0)"/>
<path style="fill:none;stroke-width:2;stroke-linecap:butt;stroke-linejoin:miter;stroke:rgb(0%,0%,0%);stroke-opacity:1;stroke-miterlimit:4;" d="M 407.598958 216.197917 L 422.697917 186.302083 " transform="matrix(0.75,0,0,0.75,0,0)"/>
<path style="fill:none;stroke-width:2;stroke-linecap:butt;stroke-linejoin:miter;stroke:rgb(100%,0%,0%);stroke-opacity:1;stroke-miterlimit:4;" d="M 422.697917 186.302083 L 437.802083 156.401042 " transform="matrix(0.75,0,0,0.75,0,0)"/>
<path style="fill:none;stroke-width:2;stroke-linecap:butt;stroke-linejoin:miter;stroke:rgb(0%,0%,0%);stroke-opacity:1;stroke-miterlimit:4;" d="M 400.098958 212.401042 L 418.302083 240.098958 " transform="matrix(0.75,0,0,0.75,0,0)"/>
<path style="fill:none;stroke-width:2;stroke-linecap:butt;stroke-linejoin:miter;stroke:rgb(100%,0%,0%);stroke-opacity:1;stroke-miterlimit:4;" d="M 418.302083 240.098958 L 436.401042 267.802083 " transform="matrix(0.75,0,0,0.75,0,0)"/>
<path style="fill:none;stroke-width:2;stroke-linecap:butt;stroke-linejoin:miter;stroke:rgb(0%,0%,0%);stroke-opacity:1;stroke-miterlimit:4;" d="M 316.401042 217.098958 L 278.598958 292 " transform="matrix(0.75,0,0,0.75,0,0)"/>
<path style="fill:none;stroke-width:2;stroke-linecap:butt;stroke-linejoin:miter;stroke:rgb(0%,0%,0%);stroke-opacity:1;stroke-miterlimit:4;" d="M 278.598958 292 L 296.697917 319.697917 " transform="matrix(0.75,0,0,0.75,0,0)"/>
<path style="fill:none;stroke-width:2;stroke-linecap:butt;stroke-linejoin:miter;stroke:rgb(100%,0%,0%);stroke-opacity:1;stroke-miterlimit:4;" d="M 296.697917 319.697917 L 314.802083 347.401042 " transform="matrix(0.75,0,0,0.75,0,0)"/>
<path style="fill:none;stroke-width:2;stroke-linecap:butt;stroke-linejoin:miter;stroke:rgb(0%,0%,0%);stroke-opacity:1;stroke-miterlimit:4;" d="M 278.598958 292 L 194.802083 296.697917 " transform="matrix(0.75,0,0,0.75,0,0)"/>
<path style="fill:none;stroke-width:2;stroke-linecap:butt;stroke-linejoin:miter;stroke:rgb(0%,0%,0%);stroke-opacity:1;stroke-miterlimit:4;" d="M 265.098958 275.901042 L 206.401042 279.197917 " transform="matrix(0.75,0,0,0.75,0,0)"/>
<path style="fill:none;stroke-width:2;stroke-linecap:butt;stroke-linejoin:miter;stroke:rgb(0%,0%,0%);stroke-opacity:1;stroke-miterlimit:4;" d="M 194.802083 296.697917 L 148.802083 226.5 " transform="matrix(0.75,0,0,0.75,0,0)"/>
<path style=" stroke:none;fill-rule:nonzero;fill:rgb(0%,0%,100%);fill-opacity:1;" d="M 17.023438 164.476562 L 19.425781 164.476562 L 19.425781 172.050781 L 28.574219 172.050781 L 28.574219 164.476562 L 30.976562 164.476562 L 30.976562 182.25 L 28.574219 182.25 L 28.574219 174.074219 L 19.425781 174.074219 L 19.425781 182.25 L 17.023438 182.25 L 17.023438 164.476562 "/>
<path style=" stroke:none;fill-rule:nonzero;fill:rgb(0%,0%,100%);fill-opacity:1;" d="M 33.148438 181.648438 C 33.449219 180.898438 33.949219 180.324219 34.648438 179.925781 C 35.300781 179.523438 36.101562 179.324219 37.050781 179.324219 C 38.25 179.324219 39.175781 179.625 39.824219 180.226562 C 40.523438 180.875 40.875 181.773438 40.875 182.925781 C 40.875 184.074219 40.425781 185.199219 39.523438 186.300781 C 38.675781 187.398438 37.375 188.574219 35.625 189.824219 L 41.023438 189.824219 L 41.023438 191.175781 L 33.148438 191.175781 L 33.148438 190.050781 C 34.601562 189 35.75 188.101562 36.601562 187.351562 C 37.5 186.550781 38.148438 185.824219 38.550781 185.175781 C 39 184.476562 39.226562 183.75 39.226562 183 C 39.226562 182.25 39.023438 181.675781 38.625 181.273438 C 38.273438 180.824219 37.75 180.601562 37.050781 180.601562 C 36.449219 180.601562 35.925781 180.726562 35.476562 180.976562 C 35.074219 181.226562 34.726562 181.648438 34.425781 182.25 L 33.148438 181.648438 "/>
<path style=" stroke:none;fill-rule:nonzero;fill:rgb(0%,0%,100%);fill-opacity:1;" d="M 44.851562 164.476562 L 50.699219 173.925781 C 51.101562 174.523438 51.601562 175.375 52.199219 176.476562 C 52.851562 177.625 53.175781 178.226562 53.175781 178.273438 L 53.175781 164.476562 L 55.574219 164.476562 L 55.574219 182.25 L 53.101562 182.25 L 46.875 171.976562 C 46.375 171.175781 45.875 170.300781 45.375 169.351562 C 44.875 168.449219 44.550781 167.851562 44.398438 167.550781 L 44.398438 182.25 L 42.074219 182.25 L 42.074219 164.476562 L 44.851562 164.476562 "/>
<path style=" stroke:none;fill-rule:nonzero;fill:rgb(100%,0%,0%);fill-opacity:1;" d="M 320.324219 103.125 C 320.324219 100.273438 321.023438 98.074219 322.425781 96.523438 C 323.824219 94.925781 325.851562 94.125 328.5 94.125 C 331.101562 94.125 333.125 94.925781 334.574219 96.523438 C 335.976562 98.074219 336.675781 100.273438 336.675781 103.125 C 336.675781 106.023438 335.949219 108.300781 334.5 109.949219 C 333.101562 111.601562 331.101562 112.425781 328.5 112.425781 C 325.851562 112.425781 323.824219 111.601562 322.425781 109.949219 C 321.023438 108.300781 320.324219 106.023438 320.324219 103.125 M 328.5 110.398438 C 330.300781 110.398438 331.675781 109.800781 332.625 108.601562 C 333.625 107.351562 334.125 105.523438 334.125 103.125 C 334.125 100.824219 333.625 99.074219 332.625 97.875 C 331.675781 96.675781 330.300781 96.074219 328.5 96.074219 C 326.648438 96.074219 325.25 96.675781 324.300781 97.875 C 323.300781 99.023438 322.800781 100.773438 322.800781 103.125 C 322.800781 105.523438 323.300781 107.351562 324.300781 108.601562 C 325.25 109.800781 326.648438 110.398438 328.5 110.398438 "/>
<path style=" stroke:none;fill-rule:nonzero;fill:rgb(100%,0%,0%);fill-opacity:1;" d="M 326.398438 211.949219 C 326.398438 209.101562 327.101562 206.875 328.5 205.273438 C 329.898438 203.726562 331.925781 202.949219 334.574219 202.949219 C 337.226562 202.949219 339.25 203.726562 340.648438 205.273438 C 342.050781 206.875 342.75 209.101562 342.75 211.949219 C 342.75 214.851562 342.050781 217.125 340.648438 218.773438 C 339.199219 220.375 337.175781 221.175781 334.574219 221.175781 C 331.976562 221.175781 329.949219 220.375 328.5 218.773438 C 327.101562 217.125 326.398438 214.851562 326.398438 211.949219 M 334.574219 219.226562 C 336.375 219.226562 337.773438 218.601562 338.773438 217.351562 C 339.726562 216.148438 340.199219 214.351562 340.199219 211.949219 C 340.199219 209.648438 339.726562 207.898438 338.773438 206.699219 C 337.773438 205.5 336.375 204.898438 334.574219 204.898438 C 332.773438 204.898438 331.375 205.5 330.375 206.699219 C 329.375 207.851562 328.875 209.601562 328.875 211.949219 C 328.875 214.351562 329.375 216.148438 330.375 217.351562 C 331.375 218.601562 332.773438 219.226562 334.574219 219.226562 "/>
<path style=" stroke:none;fill-rule:nonzero;fill:rgb(100%,0%,0%);fill-opacity:1;" d="M 344.023438 203.101562 L 346.425781 203.101562 L 346.425781 210.675781 L 355.574219 210.675781 L 355.574219 203.101562 L 357.976562 203.101562 L 357.976562 220.949219 L 355.574219 220.949219 L 355.574219 212.699219 L 346.425781 212.699219 L 346.425781 220.949219 L 344.023438 220.949219 L 344.023438 203.101562 "/>
<path style=" stroke:none;fill-rule:nonzero;fill:rgb(100%,0%,0%);fill-opacity:1;" d="M 235.199219 271.648438 C 235.199219 268.800781 235.898438 266.574219 237.300781 264.976562 C 238.699219 263.375 240.726562 262.574219 243.375 262.574219 C 246.023438 262.574219 248.050781 263.375 249.449219 264.976562 C 250.851562 266.574219 251.550781 268.800781 251.550781 271.648438 C 251.550781 274.550781 250.851562 276.824219 249.449219 278.476562 C 248 280.074219 245.976562 280.875 243.375 280.875 C 240.773438 280.875 238.75 280.074219 237.300781 278.476562 C 235.898438 276.824219 235.199219 274.550781 235.199219 271.648438 M 243.375 278.925781 C 245.175781 278.925781 246.574219 278.300781 247.574219 277.050781 C 248.574219 275.851562 249.074219 274.050781 249.074219 271.648438 C 249.074219 269.351562 248.574219 267.601562 247.574219 266.398438 C 246.574219 265.199219 245.175781 264.601562 243.375 264.601562 C 241.574219 264.601562 240.175781 265.199219 239.175781 266.398438 C 238.226562 267.550781 237.75 269.300781 237.75 271.648438 C 237.75 274.050781 238.226562 275.851562 239.175781 277.050781 C 240.175781 278.300781 241.574219 278.925781 243.375 278.925781 "/>
<path style=" stroke:none;fill-rule:nonzero;fill:rgb(100%,0%,0%);fill-opacity:1;" d="M 252.824219 262.800781 L 255.226562 262.800781 L 255.226562 270.375 L 264.375 270.375 L 264.375 262.800781 L 266.773438 262.800781 L 266.773438 280.648438 L 264.375 280.648438 L 264.375 272.398438 L 255.226562 272.398438 L 255.226562 280.648438 L 252.824219 280.648438 L 252.824219 262.800781 "/>
</g>
</svg>
