<?xml version="1.0" encoding="UTF-8"?>
<svg xmlns="http://www.w3.org/2000/svg" xmlns:xlink="http://www.w3.org/1999/xlink" width="375pt" height="375pt" viewBox="0 0 375 375" version="1.1">
<g id="surface61">
<rect x="0" y="0" width="375" height="375" style="fill:rgb(100%,100%,100%);fill-opacity:1;stroke:none;"/>
<path style="fill-rule:evenodd;fill:rgb(0%,0%,0%);fill-opacity:1;stroke-width:1;stroke-linecap:butt;stroke-linejoin:miter;stroke:rgb(0%,0%,0%);stroke-opacity:1;stroke-miterlimit:4;" d="M 332 359.098958 L 335.197917 404 L 326.302083 403.697917 Z M 332 359.098958 " transform="matrix(0.75,0,0,0.75,0,0)"/>
<path style="fill:none;stroke-width:2;stroke-linecap:butt;stroke-linejoin:miter;stroke:rgb(0%,0%,0%);stroke-opacity:1;stroke-miterlimit:4;" d="M 332 359.098958 L 301.302083 326.598958 " transform="matrix(0.75,0,0,0.75,0,0)"/>
<path style="fill:none;stroke-width:1;stroke-linecap:butt;stroke-linejoin:miter;stroke:rgb(0%,0%,0%);stroke-opacity:1;stroke-miterlimit:4;" d="M 295.197917 325.697917 L 295.098958 327.197917 " transform="matrix(0.75,0,0,0.75,0,0)"/>
<path style="fill:none;stroke-width:1;stroke-linecap:butt;stroke-linejoin:miter;stroke:rgb(0%,0%,0%);stroke-opacity:1;stroke-miterlimit:4;" d="M 289 324.802083 L 289 327.802083 " transform="matrix(0.75,0,0,0.75,0,0)"/>
<path style="fill:none;stroke-width:1;stroke-linecap:butt;stroke-linejoin:miter;stroke:rgb(0%,0%,0%);stroke-opacity:1;stroke-miterlimit:4;" d="M 282.901042 323.901042 L 282.802083 328.302083 " transform="matrix(0.75,0,0,0.75,0,0)"/>
<path style="fill:none;stroke-width:1;stroke-linecap:butt;stroke-linejoin:miter;stroke:rgb(0%,0%,100%);stroke-opacity:1;stroke-miterlimit:4;" d="M 276.802083 322.901042 L 276.598958 328.901042 " transform="matrix(0.75,0,0,0.75,0,0)"/>
<path style="fill:none;stroke-width:1;stroke-linecap:butt;stroke-linejoin:miter;stroke:rgb(0%,0%,100%);stroke-opacity:1;stroke-miterlimit:4;" d="M 270.598958 322 L 270.401042 329.5 " transform="matrix(0.75,0,0,0.75,0,0)"/>
<path style="fill:none;stroke-width:1;stroke-linecap:butt;stroke-linejoin:miter;stroke:rgb(0%,0%,100%);stroke-opacity:1;stroke-miterlimit:4;" d="M 264.5 321.098958 L 264.197917 330 " transform="matrix(0.75,0,0,0.75,0,0)"/>
<path style="fill:none;stroke-width:2;stroke-linecap:butt;stroke-linejoin:miter;stroke:rgb(0%,0%,100%);stroke-opacity:1;stroke-miterlimit:4;" d="M 251.802083 333.197917 L 242.401042 348.302083 " transform="matrix(0.75,0,0,0.75,0,0)"/>
<path style="fill:none;stroke-width:2;stroke-linecap:butt;stroke-linejoin:miter;stroke:rgb(0%,0%,0%);stroke-opacity:1;stroke-miterlimit:4;" d="M 242.401042 348.302083 L 233.098958 363.401042 " transform="matrix(0.75,0,0,0.75,0,0)"/>
<path style="fill:none;stroke-width:2;stroke-linecap:butt;stroke-linejoin:miter;stroke:rgb(0%,0%,0%);stroke-opacity:1;stroke-miterlimit:4;" d="M 237.098958 361.302083 L 245.598958 377.098958 " transform="matrix(0.75,0,0,0.75,0,0)"/>
<path style="fill:none;stroke-width:2;stroke-linecap:butt;stroke-linejoin:miter;stroke:rgb(100%,0%,0%);stroke-opacity:1;stroke-miterlimit:4;" d="M 245.598958 377.098958 L 254.098958 392.802083 " transform="matrix(0.75,0,0,0.75,0,0)"/>
<path style="fill:none;stroke-width:2;stroke-linecap:butt;stroke-linejoin:miter;stroke:rgb(0%,0%,0%);stroke-opacity:1;stroke-miterlimit:4;" d="M 229.197917 365.598958 L 237.697917 381.302083 " transform="matrix(0.75,0,0,0.75,0,0)"/>
<path style="fill:none;stroke-width:2;stroke-linecap:butt;stroke-linejoin:miter;stroke:rgb(100%,0%,0%);stroke-opacity:1;stroke-miterlimit:4;" d="M 237.697917 381.302083 L 246.197917 397.098958 " transform="matrix(0.75,0,0,0.75,0,0)"/>
<path style="fill:none;stroke-width:2;stroke-linecap:butt;stroke-linejoin:miter;stroke:rgb(0%,0%,0%);stroke-opacity:1;stroke-miterlimit:4;" d="M 233.098958 363.401042 L 188.401042 362.197917 " transform="matrix(0.75,0,0,0.75,0,0)"/>
<path style="fill:none;stroke-width:2;stroke-linecap:butt;stroke-linejoin:miter;stroke:rgb(0%,0%,0%);stroke-opacity:1;stroke-miterlimit:4;" d="M 188.401042 362.197917 L 179.901042 346.401042 " transform="matrix(0.75,0,0,0.75,0,0)"/>
<path style="fill:none;stroke-width:2;stroke-linecap:butt;stroke-linejoin:miter;stroke:rgb(0%,0%,100%);stroke-opacity:1;stroke-miterlimit:4;" d="M 179.901042 346.401042 L 171.401042 330.598958 " transform="matrix(0.75,0,0,0.75,0,0)"/>
<path style="fill:none;stroke-width:2;stroke-linecap:butt;stroke-linejoin:miter;stroke:rgb(0%,0%,0%);stroke-opacity:1;stroke-miterlimit:4;" d="M 193.697917 353.197917 L 187.802083 342.098958 " transform="matrix(0.75,0,0,0.75,0,0)"/>
<path style="fill:none;stroke-width:2;stroke-linecap:butt;stroke-linejoin:miter;stroke:rgb(0%,0%,100%);stroke-opacity:1;stroke-miterlimit:4;" d="M 187.802083 342.098958 L 181.802083 331.098958 " transform="matrix(0.75,0,0,0.75,0,0)"/>
<path style="fill:none;stroke-width:2;stroke-linecap:butt;stroke-linejoin:miter;stroke:rgb(0%,0%,100%);stroke-opacity:1;stroke-miterlimit:4;" d="M 160.901042 322.598958 L 145.302083 322.197917 " transform="matrix(0.75,0,0,0.75,0,0)"/>
<path style="fill:none;stroke-width:2;stroke-linecap:butt;stroke-linejoin:miter;stroke:rgb(100%,0%,0%);stroke-opacity:1;stroke-miterlimit:4;" d="M 145.302083 322.197917 L 129.697917 321.697917 " transform="matrix(0.75,0,0,0.75,0,0)"/>
<path style="fill:none;stroke-width:2;stroke-linecap:butt;stroke-linejoin:miter;stroke:rgb(100%,0%,0%);stroke-opacity:1;stroke-miterlimit:4;" d="M 118.197917 313.598958 L 109.697917 297.901042 " transform="matrix(0.75,0,0,0.75,0,0)"/>
<path style="fill:none;stroke-width:2;stroke-linecap:butt;stroke-linejoin:miter;stroke:rgb(0%,0%,0%);stroke-opacity:1;stroke-miterlimit:4;" d="M 109.697917 297.901042 L 101.197917 282.098958 " transform="matrix(0.75,0,0,0.75,0,0)"/>
<path style="fill:none;stroke-width:2;stroke-linecap:butt;stroke-linejoin:miter;stroke:rgb(0%,0%,0%);stroke-opacity:1;stroke-miterlimit:4;" d="M 101.197917 282.098958 L 61.802083 303.401042 " transform="matrix(0.75,0,0,0.75,0,0)"/>
<path style="fill:none;stroke-width:2;stroke-linecap:butt;stroke-linejoin:miter;stroke:rgb(0%,0%,0%);stroke-opacity:1;stroke-miterlimit:4;" d="M 101.197917 282.098958 L 140.5 260.901042 " transform="matrix(0.75,0,0,0.75,0,0)"/>
<path style="fill:none;stroke-width:2;stroke-linecap:butt;stroke-linejoin:miter;stroke:rgb(0%,0%,0%);stroke-opacity:1;stroke-miterlimit:4;" d="M 101.197917 282.098958 L 79.901042 242.802083 " transform="matrix(0.75,0,0,0.75,0,0)"/>
<path style="fill:none;stroke-width:2;stroke-linecap:butt;stroke-linejoin:miter;stroke:rgb(0%,0%,0%);stroke-opacity:1;stroke-miterlimit:4;" d="M 79.802083 247.302083 L 61.098958 246.697917 " transform="matrix(0.75,0,0,0.75,0,0)"/>
<path style="fill:none;stroke-width:2;stroke-linecap:butt;stroke-linejoin:miter;stroke:rgb(100%,0%,0%);stroke-opacity:1;stroke-miterlimit:4;" d="M 61.098958 246.697917 L 42.302083 246.197917 " transform="matrix(0.75,0,0,0.75,0,0)"/>
<path style="fill:none;stroke-width:2;stroke-linecap:butt;stroke-linejoin:miter;stroke:rgb(0%,0%,0%);stroke-opacity:1;stroke-miterlimit:4;" d="M 80 238.302083 L 61.302083 237.802083 " transform="matrix(0.75,0,0,0.75,0,0)"/>
<path style="fill:none;stroke-width:2;stroke-linecap:butt;stroke-linejoin:miter;stroke:rgb(100%,0%,0%);stroke-opacity:1;stroke-miterlimit:4;" d="M 61.302083 237.802083 L 42.598958 237.197917 " transform="matrix(0.75,0,0,0.75,0,0)"/>
<path style="fill:none;stroke-width:2;stroke-linecap:butt;stroke-linejoin:miter;stroke:rgb(0%,0%,0%);stroke-opacity:1;stroke-miterlimit:4;" d="M 79.901042 242.802083 L 89.098958 227.802083 " transform="matrix(0.75,0,0,0.75,0,0)"/>
<path style="fill:none;stroke-width:2;stroke-linecap:butt;stroke-linejoin:miter;stroke:rgb(100%,0%,0%);stroke-opacity:1;stroke-miterlimit:4;" d="M 89.098958 227.802083 L 98.401042 212.802083 " transform="matrix(0.75,0,0,0.75,0,0)"/>
<path style="fill:none;stroke-width:2;stroke-linecap:butt;stroke-linejoin:miter;stroke:rgb(0%,0%,0%);stroke-opacity:1;stroke-miterlimit:4;" d="M 188.401042 362.197917 L 164.901042 400.302083 " transform="matrix(0.75,0,0,0.75,0,0)"/>
<path style="fill:none;stroke-width:2;stroke-linecap:butt;stroke-linejoin:miter;stroke:rgb(0%,0%,0%);stroke-opacity:1;stroke-miterlimit:4;" d="M 164.901042 400.302083 L 182 441.598958 " transform="matrix(0.75,0,0,0.75,0,0)"/>
<path style="fill:none;stroke-width:2;stroke-linecap:butt;stroke-linejoin:miter;stroke:rgb(0%,0%,0%);stroke-opacity:1;stroke-miterlimit:4;" d="M 159.197917 409.901042 L 171.098958 438.802083 " transform="matrix(0.75,0,0,0.75,0,0)"/>
<path style="fill:none;stroke-width:2;stroke-linecap:butt;stroke-linejoin:miter;stroke:rgb(0%,0%,0%);stroke-opacity:1;stroke-miterlimit:4;" d="M 182 441.598958 L 167.697917 453.802083 " transform="matrix(0.75,0,0,0.75,0,0)"/>
<path style="fill:none;stroke-width:2;stroke-linecap:butt;stroke-linejoin:miter;stroke:rgb(80%,80%,0%);stroke-opacity:1;stroke-miterlimit:4;" d="M 167.697917 453.802083 L 153.401042 465.901042 " transform="matrix(0.75,0,0,0.75,0,0)"/>
<path style="fill:none;stroke-width:2;stroke-linecap:butt;stroke-linejoin:miter;stroke:rgb(80%,80%,0%);stroke-opacity:1;stroke-miterlimit:4;" d="M 142.302083 467.197917 L 126 457.197917 " transform="matrix(0.75,0,0,0.75,0,0)"/>
<path style="fill:none;stroke-width:2;stroke-linecap:butt;stroke-linejoin:miter;stroke:rgb(0%,0%,0%);stroke-opacity:1;stroke-miterlimit:4;" d="M 126 457.197917 L 109.802083 447.098958 " transform="matrix(0.75,0,0,0.75,0,0)"/>
<path style="fill:none;stroke-width:2;stroke-linecap:butt;stroke-linejoin:miter;stroke:rgb(0%,0%,0%);stroke-opacity:1;stroke-miterlimit:4;" d="M 109.802083 447.098958 L 92.197917 454.401042 " transform="matrix(0.75,0,0,0.75,0,0)"/>
<path style="fill:none;stroke-width:2;stroke-linecap:butt;stroke-linejoin:miter;stroke:rgb(0%,0%,100%);stroke-opacity:1;stroke-miterlimit:4;" d="M 92.197917 454.401042 L 74.697917 461.598958 " transform="matrix(0.75,0,0,0.75,0,0)"/>
<path style="fill:none;stroke-width:2;stroke-linecap:butt;stroke-linejoin:miter;stroke:rgb(0%,0%,0%);stroke-opacity:1;stroke-miterlimit:4;" d="M 109.802083 447.098958 L 114.098958 429.302083 " transform="matrix(0.75,0,0,0.75,0,0)"/>
<path style="fill:none;stroke-width:2;stroke-linecap:butt;stroke-linejoin:miter;stroke:rgb(0%,0%,100%);stroke-opacity:1;stroke-miterlimit:4;" d="M 114.098958 429.302083 L 118.401042 411.5 " transform="matrix(0.75,0,0,0.75,0,0)"/>
<path style="fill:none;stroke-width:2;stroke-linecap:butt;stroke-linejoin:miter;stroke:rgb(0%,0%,0%);stroke-opacity:1;stroke-miterlimit:4;" d="M 119.802083 443.901042 L 122.802083 431.401042 " transform="matrix(0.75,0,0,0.75,0,0)"/>
<path style="fill:none;stroke-width:2;stroke-linecap:butt;stroke-linejoin:miter;stroke:rgb(0%,0%,100%);stroke-opacity:1;stroke-miterlimit:4;" d="M 122.802083 431.401042 L 125.802083 418.901042 " transform="matrix(0.75,0,0,0.75,0,0)"/>
<path style="fill:none;stroke-width:2;stroke-linecap:butt;stroke-linejoin:miter;stroke:rgb(0%,0%,0%);stroke-opacity:1;stroke-miterlimit:4;" d="M 301.302083 326.598958 L 333.802083 295.901042 " transform="matrix(0.75,0,0,0.75,0,0)"/>
<path style="fill:none;stroke-width:2;stroke-linecap:butt;stroke-linejoin:miter;stroke:rgb(0%,0%,0%);stroke-opacity:1;stroke-miterlimit:4;" d="M 329.401042 295.802083 L 329.901042 277.5 " transform="matrix(0.75,0,0,0.75,0,0)"/>
<path style="fill:none;stroke-width:2;stroke-linecap:butt;stroke-linejoin:miter;stroke:rgb(100%,0%,0%);stroke-opacity:1;stroke-miterlimit:4;" d="M 329.901042 277.5 L 330.401042 259.098958 " transform="matrix(0.75,0,0,0.75,0,0)"/>
<path style="fill:none;stroke-width:2;stroke-linecap:butt;stroke-linejoin:miter;stroke:rgb(0%,0%,0%);stroke-opacity:1;stroke-miterlimit:4;" d="M 338.302083 296 L 338.802083 277.697917 " transform="matrix(0.75,0,0,0.75,0,0)"/>
<path style="fill:none;stroke-width:2;stroke-linecap:butt;stroke-linejoin:miter;stroke:rgb(100%,0%,0%);stroke-opacity:1;stroke-miterlimit:4;" d="M 338.802083 277.697917 L 339.401042 259.401042 " transform="matrix(0.75,0,0,0.75,0,0)"/>
<path style="fill:none;stroke-width:2;stroke-linecap:butt;stroke-linejoin:miter;stroke:rgb(0%,0%,0%);stroke-opacity:1;stroke-miterlimit:4;" d="M 333.802083 295.901042 L 346.098958 308.802083 " transform="matrix(0.75,0,0,0.75,0,0)"/>
<path style="fill:none;stroke-width:2;stroke-linecap:butt;stroke-linejoin:miter;stroke:rgb(0%,0%,100%);stroke-opacity:1;stroke-miterlimit:4;" d="M 346.098958 308.802083 L 358.302083 321.802083 " transform="matrix(0.75,0,0,0.75,0,0)"/>
<path style="fill:none;stroke-width:2;stroke-linecap:butt;stroke-linejoin:miter;stroke:rgb(0%,0%,100%);stroke-opacity:1;stroke-miterlimit:4;" d="M 370.802083 328.598958 L 387.302083 329.098958 " transform="matrix(0.75,0,0,0.75,0,0)"/>
<path style="fill:none;stroke-width:2;stroke-linecap:butt;stroke-linejoin:miter;stroke:rgb(80%,80%,0%);stroke-opacity:1;stroke-miterlimit:4;" d="M 387.302083 329.098958 L 403.697917 329.5 " transform="matrix(0.75,0,0,0.75,0,0)"/>
<path style="fill:none;stroke-width:2;stroke-linecap:butt;stroke-linejoin:miter;stroke:rgb(80%,80%,0%);stroke-opacity:1;stroke-miterlimit:4;" d="M 413.5 338 L 413.098958 352.302083 " transform="matrix(0.75,0,0,0.75,0,0)"/>
<path style="fill:none;stroke-width:2;stroke-linecap:butt;stroke-linejoin:miter;stroke:rgb(100%,0%,0%);stroke-opacity:1;stroke-miterlimit:4;" d="M 413.098958 352.302083 L 412.697917 366.697917 " transform="matrix(0.75,0,0,0.75,0,0)"/>
<path style="fill:none;stroke-width:2;stroke-linecap:butt;stroke-linejoin:miter;stroke:rgb(80%,80%,0%);stroke-opacity:1;stroke-miterlimit:4;" d="M 404.598958 337.697917 L 404.197917 352.098958 " transform="matrix(0.75,0,0,0.75,0,0)"/>
<path style="fill:none;stroke-width:2;stroke-linecap:butt;stroke-linejoin:miter;stroke:rgb(100%,0%,0%);stroke-opacity:1;stroke-miterlimit:4;" d="M 404.197917 352.098958 L 403.802083 366.401042 " transform="matrix(0.75,0,0,0.75,0,0)"/>
<path style="fill:none;stroke-width:2;stroke-linecap:butt;stroke-linejoin:miter;stroke:rgb(80%,80%,0%);stroke-opacity:1;stroke-miterlimit:4;" d="M 405 321.802083 L 405.5 307.401042 " transform="matrix(0.75,0,0,0.75,0,0)"/>
<path style="fill:none;stroke-width:2;stroke-linecap:butt;stroke-linejoin:miter;stroke:rgb(100%,0%,0%);stroke-opacity:1;stroke-miterlimit:4;" d="M 405.5 307.401042 L 405.901042 292.901042 " transform="matrix(0.75,0,0,0.75,0,0)"/>
<path style="fill:none;stroke-width:2;stroke-linecap:butt;stroke-linejoin:miter;stroke:rgb(80%,80%,0%);stroke-opacity:1;stroke-miterlimit:4;" d="M 414 322 L 414.401042 307.598958 " transform="matrix(0.75,0,0,0.75,0,0)"/>
<path style="fill:none;stroke-width:2;stroke-linecap:butt;stroke-linejoin:miter;stroke:rgb(100%,0%,0%);stroke-opacity:1;stroke-miterlimit:4;" d="M 414.401042 307.598958 L 414.802083 293.197917 " transform="matrix(0.75,0,0,0.75,0,0)"/>
<path style="fill:none;stroke-width:2;stroke-linecap:butt;stroke-linejoin:miter;stroke:rgb(80%,80%,0%);stroke-opacity:1;stroke-miterlimit:4;" d="M 414.802083 329.901042 L 430.802083 330.302083 " transform="matrix(0.75,0,0,0.75,0,0)"/>
<path style="fill:none;stroke-width:2;stroke-linecap:butt;stroke-linejoin:miter;stroke:rgb(100%,0%,0%);stroke-opacity:1;stroke-miterlimit:4;" d="M 430.802083 330.302083 L 446.697917 330.802083 " transform="matrix(0.75,0,0,0.75,0,0)"/>
<path style="fill:none;stroke-width:2;stroke-linecap:butt;stroke-linejoin:miter;stroke:rgb(0%,0%,100%);stroke-opacity:1;stroke-miterlimit:4;" d="M 83.802083 56.401042 L 95.5 69.598958 " transform="matrix(0.75,0,0,0.75,0,0)"/>
<path style="fill:none;stroke-width:2;stroke-linecap:butt;stroke-linejoin:miter;stroke:rgb(0%,0%,0%);stroke-opacity:1;stroke-miterlimit:4;" d="M 95.5 69.598958 L 107.098958 82.802083 " transform="matrix(0.75,0,0,0.75,0,0)"/>
<path style="fill:none;stroke-width:2;stroke-linecap:butt;stroke-linejoin:miter;stroke:rgb(0%,0%,0%);stroke-opacity:1;stroke-miterlimit:4;" d="M 111.401042 84.302083 L 105.598958 101.5 " transform="matrix(0.75,0,0,0.75,0,0)"/>
<path style="fill:none;stroke-width:2;stroke-linecap:butt;stroke-linejoin:miter;stroke:rgb(100%,0%,0%);stroke-opacity:1;stroke-miterlimit:4;" d="M 105.598958 101.5 L 99.697917 118.802083 " transform="matrix(0.75,0,0,0.75,0,0)"/>
<path style="fill:none;stroke-width:2;stroke-linecap:butt;stroke-linejoin:miter;stroke:rgb(0%,0%,0%);stroke-opacity:1;stroke-miterlimit:4;" d="M 102.901042 81.401042 L 97.098958 98.697917 " transform="matrix(0.75,0,0,0.75,0,0)"/>
<path style="fill:none;stroke-width:2;stroke-linecap:butt;stroke-linejoin:miter;stroke:rgb(100%,0%,0%);stroke-opacity:1;stroke-miterlimit:4;" d="M 97.098958 98.697917 L 91.302083 115.901042 " transform="matrix(0.75,0,0,0.75,0,0)"/>
<path style="fill:none;stroke-width:1;stroke-linecap:butt;stroke-linejoin:miter;stroke:rgb(0%,0%,0%);stroke-opacity:1;stroke-miterlimit:4;" d="M 143.5 74.697917 L 143.802083 76.197917 " transform="matrix(0.75,0,0,0.75,0,0)"/>
<path style="fill:none;stroke-width:1;stroke-linecap:butt;stroke-linejoin:miter;stroke:rgb(0%,0%,0%);stroke-opacity:1;stroke-miterlimit:4;" d="M 136.098958 75.5 L 136.598958 78.401042 " transform="matrix(0.75,0,0,0.75,0,0)"/>
<path style="fill:none;stroke-width:1;stroke-linecap:butt;stroke-linejoin:miter;stroke:rgb(0%,0%,0%);stroke-opacity:1;stroke-miterlimit:4;" d="M 128.598958 76.197917 L 129.5 80.598958 " transform="matrix(0.75,0,0,0.75,0,0)"/>
<path style="fill:none;stroke-width:1;stroke-linecap:butt;stroke-linejoin:miter;stroke:rgb(0%,0%,0%);stroke-opacity:1;stroke-miterlimit:4;" d="M 121.098958 77 L 122.302083 82.802083 " transform="matrix(0.75,0,0,0.75,0,0)"/>
<path style="fill:none;stroke-width:1;stroke-linecap:butt;stroke-linejoin:miter;stroke:rgb(0%,0%,0%);stroke-opacity:1;stroke-miterlimit:4;" d="M 113.697917 77.697917 L 115.197917 85 " transform="matrix(0.75,0,0,0.75,0,0)"/>
<path style="fill:none;stroke-width:1;stroke-linecap:butt;stroke-linejoin:miter;stroke:rgb(0%,0%,0%);stroke-opacity:1;stroke-miterlimit:4;" d="M 106.197917 78.5 L 108 87.197917 " transform="matrix(0.75,0,0,0.75,0,0)"/>
<path style="fill:none;stroke-width:2;stroke-linecap:butt;stroke-linejoin:miter;stroke:rgb(0%,0%,0%);stroke-opacity:1;stroke-miterlimit:4;" d="M 151 74 L 165.197917 31.598958 " transform="matrix(0.75,0,0,0.75,0,0)"/>
<path style="fill:none;stroke-width:2;stroke-linecap:butt;stroke-linejoin:miter;stroke:rgb(0%,0%,0%);stroke-opacity:1;stroke-miterlimit:4;" d="M 165.197917 31.598958 L 209.098958 22.697917 " transform="matrix(0.75,0,0,0.75,0,0)"/>
<path style="fill:none;stroke-width:2;stroke-linecap:butt;stroke-linejoin:miter;stroke:rgb(0%,0%,0%);stroke-opacity:1;stroke-miterlimit:4;" d="M 209.098958 22.697917 L 238.697917 56.302083 " transform="matrix(0.75,0,0,0.75,0,0)"/>
<path style="fill:none;stroke-width:2;stroke-linecap:butt;stroke-linejoin:miter;stroke:rgb(0%,0%,0%);stroke-opacity:1;stroke-miterlimit:4;" d="M 238.697917 56.302083 L 224.401042 98.697917 " transform="matrix(0.75,0,0,0.75,0,0)"/>
<path style="fill:none;stroke-width:2;stroke-linecap:butt;stroke-linejoin:miter;stroke:rgb(0%,0%,0%);stroke-opacity:1;stroke-miterlimit:4;" d="M 224.401042 98.697917 L 205.598958 102.5 " transform="matrix(0.75,0,0,0.75,0,0)"/>
<path style="fill:none;stroke-width:2;stroke-linecap:butt;stroke-linejoin:miter;stroke:rgb(0%,0%,100%);stroke-opacity:1;stroke-miterlimit:4;" d="M 205.598958 102.5 L 186.901042 106.302083 " transform="matrix(0.75,0,0,0.75,0,0)"/>
<path style="fill:none;stroke-width:2;stroke-linecap:butt;stroke-linejoin:miter;stroke:rgb(0%,0%,100%);stroke-opacity:1;stroke-miterlimit:4;" d="M 186.901042 111.302083 L 203 120.802083 " transform="matrix(0.75,0,0,0.75,0,0)"/>
<path style="fill:none;stroke-width:2;stroke-linecap:butt;stroke-linejoin:miter;stroke:rgb(0%,0%,0%);stroke-opacity:1;stroke-miterlimit:4;" d="M 203 120.802083 L 219.098958 130.302083 " transform="matrix(0.75,0,0,0.75,0,0)"/>
<path style="fill:none;stroke-width:2;stroke-linecap:butt;stroke-linejoin:miter;stroke:rgb(0%,0%,0%);stroke-opacity:1;stroke-miterlimit:4;" d="M 223.5 129.901042 L 225.302083 148.197917 " transform="matrix(0.75,0,0,0.75,0,0)"/>
<path style="fill:none;stroke-width:2;stroke-linecap:butt;stroke-linejoin:miter;stroke:rgb(100%,0%,0%);stroke-opacity:1;stroke-miterlimit:4;" d="M 225.302083 148.197917 L 227 166.5 " transform="matrix(0.75,0,0,0.75,0,0)"/>
<path style="fill:none;stroke-width:2;stroke-linecap:butt;stroke-linejoin:miter;stroke:rgb(0%,0%,0%);stroke-opacity:1;stroke-miterlimit:4;" d="M 214.598958 130.697917 L 216.401042 149.098958 " transform="matrix(0.75,0,0,0.75,0,0)"/>
<path style="fill:none;stroke-width:2;stroke-linecap:butt;stroke-linejoin:miter;stroke:rgb(100%,0%,0%);stroke-opacity:1;stroke-miterlimit:4;" d="M 216.401042 149.098958 L 218.098958 167.401042 " transform="matrix(0.75,0,0,0.75,0,0)"/>
<path style="fill:none;stroke-width:2;stroke-linecap:butt;stroke-linejoin:miter;stroke:rgb(0%,0%,0%);stroke-opacity:1;stroke-miterlimit:4;" d="M 219.098958 130.302083 L 232.697917 118.302083 " transform="matrix(0.75,0,0,0.75,0,0)"/>
<path style="fill:none;stroke-width:2;stroke-linecap:butt;stroke-linejoin:miter;stroke:rgb(0%,0%,100%);stroke-opacity:1;stroke-miterlimit:4;" d="M 232.697917 118.302083 L 246.401042 106.302083 " transform="matrix(0.75,0,0,0.75,0,0)"/>
<path style="fill:none;stroke-width:2;stroke-linecap:butt;stroke-linejoin:miter;stroke:rgb(0%,0%,100%);stroke-opacity:1;stroke-miterlimit:4;" d="M 258.901042 102.098958 L 274 105.5 " transform="matrix(0.75,0,0,0.75,0,0)"/>
<path style="fill:none;stroke-width:2;stroke-linecap:butt;stroke-linejoin:miter;stroke:rgb(100%,0%,0%);stroke-opacity:1;stroke-miterlimit:4;" d="M 274 105.5 L 289 108.802083 " transform="matrix(0.75,0,0,0.75,0,0)"/>
<path style="fill:none;stroke-width:2;stroke-linecap:butt;stroke-linejoin:miter;stroke:rgb(100%,0%,0%);stroke-opacity:1;stroke-miterlimit:4;" d="M 303.598958 102.598958 L 312.302083 93.098958 " transform="matrix(0.75,0,0,0.75,0,0)"/>
<path style="fill:none;stroke-width:2;stroke-linecap:butt;stroke-linejoin:miter;stroke:rgb(80%,80%,0%);stroke-opacity:1;stroke-miterlimit:4;" d="M 312.302083 93.098958 L 321 83.5 " transform="matrix(0.75,0,0,0.75,0,0)"/>
<path style="fill:none;stroke-width:2;stroke-linecap:butt;stroke-linejoin:miter;stroke:rgb(80%,80%,0%);stroke-opacity:1;stroke-miterlimit:4;" d="M 318 75.697917 L 308 66.5 " transform="matrix(0.75,0,0,0.75,0,0)"/>
<path style="fill:none;stroke-width:2;stroke-linecap:butt;stroke-linejoin:miter;stroke:rgb(100%,0%,0%);stroke-opacity:1;stroke-miterlimit:4;" d="M 308 66.5 L 297.901042 57.197917 " transform="matrix(0.75,0,0,0.75,0,0)"/>
<path style="fill:none;stroke-width:2;stroke-linecap:butt;stroke-linejoin:miter;stroke:rgb(80%,80%,0%);stroke-opacity:1;stroke-miterlimit:4;" d="M 324.098958 69.098958 L 314 59.901042 " transform="matrix(0.75,0,0,0.75,0,0)"/>
<path style="fill:none;stroke-width:2;stroke-linecap:butt;stroke-linejoin:miter;stroke:rgb(100%,0%,0%);stroke-opacity:1;stroke-miterlimit:4;" d="M 314 59.901042 L 304 50.697917 " transform="matrix(0.75,0,0,0.75,0,0)"/>
<path style="fill:none;stroke-width:2;stroke-linecap:butt;stroke-linejoin:miter;stroke:rgb(80%,80%,0%);stroke-opacity:1;stroke-miterlimit:4;" d="M 335.197917 79.302083 L 345.197917 88.598958 " transform="matrix(0.75,0,0,0.75,0,0)"/>
<path style="fill:none;stroke-width:2;stroke-linecap:butt;stroke-linejoin:miter;stroke:rgb(100%,0%,0%);stroke-opacity:1;stroke-miterlimit:4;" d="M 345.197917 88.598958 L 355.302083 97.802083 " transform="matrix(0.75,0,0,0.75,0,0)"/>
<path style="fill:none;stroke-width:2;stroke-linecap:butt;stroke-linejoin:miter;stroke:rgb(80%,80%,0%);stroke-opacity:1;stroke-miterlimit:4;" d="M 329.098958 85.901042 L 339.197917 95.098958 " transform="matrix(0.75,0,0,0.75,0,0)"/>
<path style="fill:none;stroke-width:2;stroke-linecap:butt;stroke-linejoin:miter;stroke:rgb(100%,0%,0%);stroke-opacity:1;stroke-miterlimit:4;" d="M 339.197917 95.098958 L 349.197917 104.401042 " transform="matrix(0.75,0,0,0.75,0,0)"/>
<path style="fill:none;stroke-width:2;stroke-linecap:butt;stroke-linejoin:miter;stroke:rgb(80%,80%,0%);stroke-opacity:1;stroke-miterlimit:4;" d="M 332.098958 71.5 L 340.802083 62 " transform="matrix(0.75,0,0,0.75,0,0)"/>
<path style="fill:none;stroke-width:2;stroke-linecap:butt;stroke-linejoin:miter;stroke:rgb(100%,0%,0%);stroke-opacity:1;stroke-miterlimit:4;" d="M 340.802083 62 L 349.598958 52.5 " transform="matrix(0.75,0,0,0.75,0,0)"/>
<path style="fill:none;stroke-width:2;stroke-linecap:butt;stroke-linejoin:miter;stroke:rgb(0%,0%,100%);stroke-opacity:1;stroke-miterlimit:4;" d="M 358.302083 334.401042 L 345.197917 346.802083 " transform="matrix(0.75,0,0,0.75,0,0)"/>
<path style="fill:none;stroke-width:2;stroke-linecap:butt;stroke-linejoin:miter;stroke:rgb(0%,0%,0%);stroke-opacity:1;stroke-miterlimit:4;" d="M 345.197917 346.802083 L 332 359.098958 " transform="matrix(0.75,0,0,0.75,0,0)"/>
<path style="fill:none;stroke-width:2;stroke-linecap:butt;stroke-linejoin:miter;stroke:rgb(0%,0%,100%);stroke-opacity:1;stroke-miterlimit:4;" d="M 174.302083 100.401042 L 162.598958 87.197917 " transform="matrix(0.75,0,0,0.75,0,0)"/>
<path style="fill:none;stroke-width:2;stroke-linecap:butt;stroke-linejoin:miter;stroke:rgb(0%,0%,0%);stroke-opacity:1;stroke-miterlimit:4;" d="M 162.598958 87.197917 L 151 74 " transform="matrix(0.75,0,0,0.75,0,0)"/>
<path style="fill:none;stroke-width:2;stroke-linecap:butt;stroke-linejoin:miter;stroke:rgb(0%,0%,100%);stroke-opacity:1;stroke-miterlimit:4;" d="M 126.598958 403.197917 L 145.802083 401.697917 " transform="matrix(0.75,0,0,0.75,0,0)"/>
<path style="fill:none;stroke-width:2;stroke-linecap:butt;stroke-linejoin:miter;stroke:rgb(0%,0%,0%);stroke-opacity:1;stroke-miterlimit:4;" d="M 145.802083 401.697917 L 164.901042 400.302083 " transform="matrix(0.75,0,0,0.75,0,0)"/>
<path style="fill:none;stroke-width:2;stroke-linecap:butt;stroke-linejoin:miter;stroke:rgb(0%,0%,100%);stroke-opacity:1;stroke-miterlimit:4;" d="M 250.197917 92.901042 L 244.401042 74.598958 " transform="matrix(0.75,0,0,0.75,0,0)"/>
<path style="fill:none;stroke-width:2;stroke-linecap:butt;stroke-linejoin:miter;stroke:rgb(0%,0%,0%);stroke-opacity:1;stroke-miterlimit:4;" d="M 244.401042 74.598958 L 238.697917 56.302083 " transform="matrix(0.75,0,0,0.75,0,0)"/>
<path style=" stroke:none;fill-rule:nonzero;fill:rgb(0%,0%,100%);fill-opacity:1;" d="M 180.226562 239.25 L 181.574219 239.25 L 181.574219 243.300781 L 186.375 243.300781 L 186.375 239.25 L 187.726562 239.25 L 187.726562 248.773438 L 186.375 248.773438 L 186.375 244.351562 L 181.574219 244.351562 L 181.574219 248.773438 L 180.226562 248.773438 L 180.226562 239.25 "/>
<path style=" stroke:none;fill-rule:nonzero;fill:rgb(0%,0%,100%);fill-opacity:1;" d="M 190.351562 239.25 L 193.425781 244.273438 C 193.675781 244.625 193.949219 245.101562 194.25 245.699219 C 194.601562 246.300781 194.773438 246.625 194.773438 246.675781 L 194.773438 239.25 L 196.050781 239.25 L 196.050781 248.773438 L 194.773438 248.773438 L 191.398438 243.226562 C 191.148438 242.824219 190.875 242.375 190.574219 241.875 C 190.324219 241.375 190.148438 241.050781 190.050781 240.898438 L 190.050781 248.773438 L 188.851562 248.773438 L 188.851562 239.25 L 190.351562 239.25 "/>
<path style=" stroke:none;fill-rule:nonzero;fill:rgb(100%,0%,0%);fill-opacity:1;" d="M 186.449219 302.101562 C 186.449219 300.601562 186.824219 299.425781 187.574219 298.574219 C 188.324219 297.726562 189.398438 297.300781 190.800781 297.300781 C 192.199219 297.300781 193.273438 297.726562 194.023438 298.574219 C 194.773438 299.425781 195.148438 300.601562 195.148438 302.101562 C 195.148438 303.648438 194.773438 304.875 194.023438 305.773438 C 193.273438 306.625 192.199219 307.050781 190.800781 307.050781 C 189.398438 307.050781 188.324219 306.625 187.574219 305.773438 C 186.824219 304.875 186.449219 303.648438 186.449219 302.101562 M 190.800781 306 C 191.75 306 192.5 305.675781 193.050781 305.023438 C 193.550781 304.375 193.800781 303.398438 193.800781 302.101562 C 193.800781 300.898438 193.550781 299.976562 193.050781 299.324219 C 192.5 298.675781 191.75 298.351562 190.800781 298.351562 C 189.800781 298.351562 189.050781 298.675781 188.550781 299.324219 C 188.050781 299.925781 187.800781 300.851562 187.800781 302.101562 C 187.800781 303.398438 188.050781 304.375 188.550781 305.023438 C 189.050781 305.675781 189.800781 306 190.800781 306 "/>
<path style=" stroke:none;fill-rule:nonzero;fill:rgb(0%,0%,100%);fill-opacity:1;" d="M 123.226562 237.375 L 126.375 242.398438 C 126.574219 242.699219 126.851562 243.148438 127.199219 243.75 C 127.5 244.351562 127.675781 244.675781 127.726562 244.726562 L 127.726562 237.375 L 128.925781 237.375 L 128.925781 246.824219 L 127.648438 246.824219 L 124.351562 241.351562 C 124.050781 240.898438 123.773438 240.425781 123.523438 239.925781 C 123.226562 239.476562 123.050781 239.175781 123 239.023438 L 123 246.824219 L 121.726562 246.824219 L 121.726562 237.375 L 123.226562 237.375 "/>
<path style=" stroke:none;fill-rule:nonzero;fill:rgb(100%,0%,0%);fill-opacity:1;" d="M 87.449219 241.199219 C 87.449219 239.648438 87.824219 238.449219 88.574219 237.601562 C 89.324219 236.75 90.398438 236.324219 91.800781 236.324219 C 93.199219 236.324219 94.273438 236.75 95.023438 237.601562 C 95.773438 238.449219 96.148438 239.648438 96.148438 241.199219 C 96.148438 242.699219 95.773438 243.898438 95.023438 244.800781 C 94.273438 245.648438 93.199219 246.074219 91.800781 246.074219 C 90.398438 246.074219 89.324219 245.648438 88.574219 244.800781 C 87.824219 243.949219 87.449219 242.75 87.449219 241.199219 M 91.800781 245.023438 C 92.75 245.023438 93.5 244.699219 94.050781 244.050781 C 94.550781 243.398438 94.800781 242.449219 94.800781 241.199219 C 94.800781 239.949219 94.550781 239 94.050781 238.351562 C 93.5 237.699219 92.75 237.375 91.800781 237.375 C 90.851562 237.375 90.101562 237.699219 89.550781 238.351562 C 89.050781 238.949219 88.800781 239.898438 88.800781 241.199219 C 88.800781 242.449219 89.050781 243.398438 89.550781 244.050781 C 90.101562 244.699219 90.851562 245.023438 91.800781 245.023438 "/>
<path style=" stroke:none;fill-rule:nonzero;fill:rgb(100%,0%,0%);fill-opacity:1;" d="M 22.050781 181.125 C 22.050781 179.625 22.425781 178.449219 23.175781 177.601562 C 23.925781 176.75 25 176.324219 26.398438 176.324219 C 27.800781 176.324219 28.875 176.75 29.625 177.601562 C 30.375 178.449219 30.75 179.625 30.75 181.125 C 30.75 182.675781 30.375 183.898438 29.625 184.800781 C 28.875 185.648438 27.800781 186.074219 26.398438 186.074219 C 25 186.074219 23.925781 185.648438 23.175781 184.800781 C 22.425781 183.898438 22.050781 182.675781 22.050781 181.125 M 26.398438 185.023438 C 27.351562 185.023438 28.074219 184.699219 28.574219 184.050781 C 29.125 183.398438 29.398438 182.425781 29.398438 181.125 C 29.398438 179.925781 29.125 179 28.574219 178.351562 C 28.074219 177.699219 27.351562 177.375 26.398438 177.375 C 25.398438 177.375 24.648438 177.699219 24.148438 178.351562 C 23.601562 178.949219 23.324219 179.875 23.324219 181.125 C 23.324219 182.425781 23.601562 183.398438 24.148438 184.050781 C 24.648438 184.699219 25.398438 185.023438 26.398438 185.023438 "/>
<path style=" stroke:none;fill-rule:nonzero;fill:rgb(100%,0%,0%);fill-opacity:1;" d="M 73.199219 153.523438 C 73.199219 152.023438 73.574219 150.851562 74.324219 150 C 75.074219 149.148438 76.148438 148.726562 77.550781 148.726562 C 78.949219 148.726562 80.023438 149.148438 80.773438 150 C 81.523438 150.851562 81.898438 152.023438 81.898438 153.523438 C 81.898438 155.074219 81.523438 156.300781 80.773438 157.199219 C 79.976562 158.050781 78.898438 158.476562 77.550781 158.476562 C 76.148438 158.476562 75.074219 158.050781 74.324219 157.199219 C 73.574219 156.300781 73.199219 155.074219 73.199219 153.523438 M 77.550781 157.425781 C 78.5 157.425781 79.226562 157.101562 79.726562 156.449219 C 80.273438 155.800781 80.550781 154.824219 80.550781 153.523438 C 80.550781 152.273438 80.273438 151.351562 79.726562 150.75 C 79.226562 150.101562 78.5 149.773438 77.550781 149.773438 C 76.550781 149.773438 75.800781 150.101562 75.300781 150.75 C 74.75 151.351562 74.476562 152.273438 74.476562 153.523438 C 74.476562 154.824219 74.75 155.800781 75.300781 156.449219 C 75.800781 157.101562 76.550781 157.425781 77.550781 157.425781 "/>
<path style=" stroke:none;fill-rule:nonzero;fill:rgb(100%,0%,0%);fill-opacity:1;" d="M 82.574219 148.800781 L 83.851562 148.800781 L 83.851562 152.851562 L 88.726562 152.851562 L 88.726562 148.800781 L 90 148.800781 L 90 158.324219 L 88.726562 158.324219 L 88.726562 153.898438 L 83.851562 153.898438 L 83.851562 158.324219 L 82.574219 158.324219 L 82.574219 148.800781 "/>
<path style=" stroke:none;fill-rule:nonzero;fill:rgb(80%,80%,0%);fill-opacity:1;" d="M 108.226562 356.25 C 108.273438 356.25 108.449219 356.324219 108.75 356.476562 C 109.050781 356.574219 109.375 356.675781 109.726562 356.773438 C 110.023438 356.824219 110.351562 356.851562 110.699219 356.851562 C 111.300781 356.851562 111.773438 356.726562 112.125 356.476562 C 112.476562 356.175781 112.648438 355.75 112.648438 355.199219 C 112.648438 354.851562 112.550781 354.574219 112.351562 354.375 C 112.199219 354.175781 111.976562 354 111.675781 353.851562 C 111.425781 353.75 111.074219 353.625 110.625 353.476562 C 110.074219 353.324219 109.625 353.175781 109.273438 353.023438 C 108.925781 352.875 108.625 352.625 108.375 352.273438 C 108.175781 351.925781 108.074219 351.476562 108.074219 350.925781 C 108.074219 350.125 108.324219 349.476562 108.824219 348.976562 C 109.375 348.476562 110.199219 348.226562 111.300781 348.226562 C 112.050781 348.226562 112.824219 348.398438 113.625 348.75 L 113.324219 349.800781 C 112.574219 349.449219 111.898438 349.273438 111.300781 349.273438 C 110.699219 349.273438 110.226562 349.425781 109.875 349.726562 C 109.523438 349.976562 109.375 350.300781 109.425781 350.699219 C 109.425781 351.050781 109.5 351.324219 109.648438 351.523438 C 109.851562 351.726562 110.074219 351.898438 110.324219 352.050781 C 110.574219 352.148438 110.898438 352.273438 111.300781 352.425781 C 111.898438 352.574219 112.375 352.75 112.726562 352.949219 C 113.023438 353.148438 113.300781 353.425781 113.550781 353.773438 C 113.800781 354.125 113.925781 354.601562 113.925781 355.199219 C 113.925781 356.101562 113.625 356.773438 113.023438 357.226562 C 112.476562 357.726562 111.699219 357.976562 110.699219 357.976562 C 110.148438 357.976562 109.648438 357.898438 109.199219 357.75 C 108.800781 357.648438 108.351562 357.5 107.851562 357.300781 L 108.226562 356.25 "/>
<path style=" stroke:none;fill-rule:nonzero;fill:rgb(0%,0%,100%);fill-opacity:1;" d="M 34.351562 343.351562 L 35.625 343.351562 L 35.625 347.398438 L 40.5 347.398438 L 40.5 343.351562 L 41.773438 343.351562 L 41.773438 352.875 L 40.5 352.875 L 40.5 348.523438 L 35.625 348.523438 L 35.625 352.875 L 34.351562 352.875 L 34.351562 343.351562 "/>
<path style=" stroke:none;fill-rule:nonzero;fill:rgb(0%,0%,100%);fill-opacity:1;" d="M 42.976562 352.574219 C 43.125 352.175781 43.375 351.851562 43.726562 351.601562 C 44.074219 351.398438 44.523438 351.300781 45.074219 351.300781 C 45.675781 351.300781 46.148438 351.476562 46.5 351.824219 C 46.851562 352.175781 47.023438 352.648438 47.023438 353.25 C 47.023438 353.851562 46.800781 354.449219 46.351562 355.050781 C 45.898438 355.601562 45.199219 356.226562 44.25 356.925781 L 47.175781 356.925781 L 47.175781 357.601562 L 42.898438 357.601562 L 42.898438 357.074219 C 43.699219 356.476562 44.324219 355.976562 44.773438 355.574219 C 45.273438 355.175781 45.625 354.773438 45.824219 354.375 C 46.074219 354.023438 46.199219 353.648438 46.199219 353.25 C 46.199219 352.851562 46.101562 352.550781 45.898438 352.351562 C 45.699219 352.101562 45.425781 351.976562 45.074219 351.976562 C 44.726562 351.976562 44.425781 352.050781 44.175781 352.199219 C 43.976562 352.351562 43.800781 352.574219 43.648438 352.875 L 42.976562 352.574219 "/>
<path style=" stroke:none;fill-rule:nonzero;fill:rgb(0%,0%,100%);fill-opacity:1;" d="M 49.199219 343.351562 L 52.273438 348.375 C 52.523438 348.726562 52.800781 349.199219 53.101562 349.800781 C 53.449219 350.398438 53.625 350.726562 53.625 350.773438 L 53.625 343.351562 L 54.898438 343.351562 L 54.898438 352.875 L 53.625 352.875 L 50.25 347.398438 C 50 346.949219 49.726562 346.476562 49.425781 345.976562 C 49.175781 345.476562 49 345.148438 48.898438 345 L 48.898438 352.875 L 47.699219 352.875 L 47.699219 343.351562 L 49.199219 343.351562 "/>
<path style=" stroke:none;fill-rule:nonzero;fill:rgb(0%,0%,100%);fill-opacity:1;" d="M 88.125 297.976562 L 91.273438 303 C 91.476562 303.351562 91.726562 303.824219 92.023438 304.425781 C 92.375 305.023438 92.550781 305.351562 92.550781 305.398438 L 92.550781 297.976562 L 93.824219 297.976562 L 93.824219 307.5 L 92.550781 307.5 L 89.175781 302.023438 C 88.925781 301.574219 88.675781 301.101562 88.425781 300.601562 C 88.125 300.101562 87.949219 299.773438 87.898438 299.625 L 87.898438 307.5 L 86.625 307.5 L 86.625 297.976562 L 88.125 297.976562 "/>
<path style=" stroke:none;fill-rule:nonzero;fill:rgb(100%,0%,0%);fill-opacity:1;" d="M 246.976562 188.398438 C 246.976562 186.898438 247.351562 185.726562 248.101562 184.875 C 248.851562 184.023438 249.925781 183.601562 251.324219 183.601562 C 252.726562 183.601562 253.800781 184.023438 254.550781 184.875 C 255.300781 185.726562 255.675781 186.898438 255.675781 188.398438 C 255.675781 189.949219 255.300781 191.148438 254.550781 192 C 253.800781 192.898438 252.726562 193.351562 251.324219 193.351562 C 249.925781 193.351562 248.851562 192.898438 248.101562 192 C 247.351562 191.148438 246.976562 189.949219 246.976562 188.398438 M 251.324219 192.226562 C 252.324219 192.226562 253.074219 191.925781 253.574219 191.324219 C 254.074219 190.675781 254.324219 189.699219 254.324219 188.398438 C 254.324219 187.148438 254.074219 186.226562 253.574219 185.625 C 253.074219 184.976562 252.324219 184.648438 251.324219 184.648438 C 250.375 184.648438 249.625 184.976562 249.074219 185.625 C 248.574219 186.226562 248.324219 187.148438 248.324219 188.398438 C 248.324219 189.699219 248.574219 190.675781 249.074219 191.324219 C 249.625 191.925781 250.375 192.226562 251.324219 192.226562 "/>
<path style=" stroke:none;fill-rule:nonzero;fill:rgb(0%,0%,100%);fill-opacity:1;" d="M 271.351562 241.574219 L 274.425781 246.601562 C 274.625 246.949219 274.898438 247.425781 275.25 248.023438 C 275.601562 248.625 275.773438 248.925781 275.773438 248.925781 L 275.773438 241.574219 L 277.050781 241.574219 L 277.050781 251.101562 L 275.699219 251.101562 L 272.398438 245.550781 C 272.148438 245.148438 271.875 244.699219 271.574219 244.199219 C 271.324219 243.699219 271.148438 243.375 271.050781 243.226562 L 271.050781 251.101562 L 269.851562 251.101562 L 269.851562 241.574219 L 271.351562 241.574219 "/>
<path style=" stroke:none;fill-rule:nonzero;fill:rgb(80%,80%,0%);fill-opacity:1;" d="M 304.273438 250.574219 C 304.375 250.574219 304.550781 250.648438 304.800781 250.800781 C 305.101562 250.898438 305.425781 251 305.773438 251.101562 C 306.074219 251.148438 306.398438 251.175781 306.75 251.175781 C 307.351562 251.175781 307.824219 251.023438 308.175781 250.726562 C 308.523438 250.425781 308.699219 250.023438 308.699219 249.523438 C 308.699219 249.175781 308.601562 248.898438 308.398438 248.699219 C 308.25 248.5 308.023438 248.324219 307.726562 248.175781 C 307.476562 248.074219 307.125 247.949219 306.675781 247.800781 C 306.125 247.648438 305.675781 247.5 305.324219 247.351562 C 304.976562 247.199219 304.699219 246.949219 304.5 246.601562 C 304.25 246.25 304.125 245.773438 304.125 245.175781 C 304.125 244.425781 304.398438 243.800781 304.949219 243.300781 C 305.5 242.800781 306.300781 242.550781 307.351562 242.550781 C 308.101562 242.550781 308.875 242.726562 309.675781 243.074219 L 309.375 244.125 C 308.625 243.773438 307.976562 243.601562 307.425781 243.601562 C 306.773438 243.601562 306.273438 243.75 305.925781 244.050781 C 305.625 244.300781 305.476562 244.625 305.476562 245.023438 C 305.476562 245.375 305.550781 245.648438 305.699219 245.851562 C 305.898438 246.050781 306.125 246.226562 306.375 246.375 C 306.625 246.476562 306.976562 246.601562 307.425781 246.75 C 307.976562 246.898438 308.425781 247.074219 308.773438 247.273438 C 309.125 247.425781 309.425781 247.699219 309.675781 248.101562 C 309.925781 248.449219 310.050781 248.925781 310.050781 249.523438 C 310.050781 250.425781 309.75 251.101562 309.148438 251.550781 C 308.550781 252.050781 307.773438 252.300781 306.824219 252.300781 C 306.226562 252.300781 305.726562 252.226562 305.324219 252.074219 C 304.875 251.976562 304.398438 251.824219 303.898438 251.625 L 304.273438 250.574219 "/>
<path style=" stroke:none;fill-rule:nonzero;fill:rgb(100%,0%,0%);fill-opacity:1;" d="M 301.648438 280.875 C 301.648438 279.324219 302.023438 278.125 302.773438 277.273438 C 303.523438 276.425781 304.601562 276 306 276 C 307.398438 276 308.476562 276.425781 309.226562 277.273438 C 309.976562 278.125 310.351562 279.324219 310.351562 280.875 C 310.351562 282.375 309.976562 283.574219 309.226562 284.476562 C 308.476562 285.324219 307.398438 285.75 306 285.75 C 304.601562 285.75 303.523438 285.324219 302.773438 284.476562 C 302.023438 283.625 301.648438 282.425781 301.648438 280.875 M 306 284.699219 C 306.949219 284.699219 307.699219 284.375 308.25 283.726562 C 308.75 283.074219 309 282.125 309 280.875 C 309 279.625 308.75 278.675781 308.25 278.023438 C 307.699219 277.425781 306.949219 277.125 306 277.125 C 305.050781 277.125 304.300781 277.425781 303.75 278.023438 C 303.25 278.675781 303 279.625 303 280.875 C 303 282.125 303.25 283.074219 303.75 283.726562 C 304.300781 284.375 305.050781 284.699219 306 284.699219 "/>
<path style=" stroke:none;fill-rule:nonzero;fill:rgb(100%,0%,0%);fill-opacity:1;" d="M 303.523438 213.75 C 303.523438 212.25 303.925781 211.074219 304.726562 210.226562 C 305.476562 209.375 306.550781 208.949219 307.949219 208.949219 C 309.351562 208.949219 310.425781 209.375 311.175781 210.226562 C 311.925781 211.074219 312.300781 212.25 312.300781 213.75 C 312.300781 215.300781 311.925781 216.5 311.175781 217.351562 C 310.375 218.25 309.300781 218.699219 307.949219 218.699219 C 306.550781 218.699219 305.476562 218.25 304.726562 217.351562 C 303.925781 216.5 303.523438 215.300781 303.523438 213.75 M 307.949219 217.574219 C 308.898438 217.574219 309.625 217.273438 310.125 216.675781 C 310.675781 216.023438 310.949219 215.050781 310.949219 213.75 C 310.949219 212.5 310.675781 211.574219 310.125 210.976562 C 309.625 210.324219 308.898438 210 307.949219 210 C 306.949219 210 306.199219 210.324219 305.699219 210.976562 C 305.148438 211.574219 304.875 212.5 304.875 213.75 C 304.875 215.050781 305.148438 216.023438 305.699219 216.675781 C 306.199219 217.273438 306.949219 217.574219 307.949219 217.574219 "/>
<path style=" stroke:none;fill-rule:nonzero;fill:rgb(100%,0%,0%);fill-opacity:1;" d="M 336.148438 248.25 C 336.148438 246.75 336.523438 245.574219 337.273438 244.726562 C 338.023438 243.875 339.101562 243.449219 340.5 243.449219 C 341.898438 243.449219 342.976562 243.875 343.726562 244.726562 C 344.476562 245.574219 344.851562 246.75 344.851562 248.25 C 344.851562 249.800781 344.476562 251 343.726562 251.851562 C 342.976562 252.75 341.898438 253.199219 340.5 253.199219 C 339.101562 253.199219 338.023438 252.75 337.273438 251.851562 C 336.523438 251 336.148438 249.800781 336.148438 248.25 M 340.5 252.074219 C 341.449219 252.074219 342.199219 251.773438 342.75 251.175781 C 343.25 250.523438 343.5 249.550781 343.5 248.25 C 343.5 247 343.25 246.074219 342.75 245.476562 C 342.199219 244.824219 341.449219 244.5 340.5 244.5 C 339.550781 244.5 338.800781 244.824219 338.25 245.476562 C 337.75 246.074219 337.5 247 337.5 248.25 C 337.5 249.550781 337.75 250.523438 338.25 251.175781 C 338.800781 251.773438 339.550781 252.074219 340.5 252.074219 "/>
<path style=" stroke:none;fill-rule:nonzero;fill:rgb(100%,0%,0%);fill-opacity:1;" d="M 345.523438 243.523438 L 346.800781 243.523438 L 346.800781 247.574219 L 351.675781 247.574219 L 351.675781 243.523438 L 352.949219 243.523438 L 352.949219 253.050781 L 351.675781 253.050781 L 351.675781 248.625 L 346.800781 248.625 L 346.800781 253.050781 L 345.523438 253.050781 L 345.523438 243.523438 "/>
<path style=" stroke:none;fill-rule:nonzero;fill:rgb(0%,0%,100%);fill-opacity:1;" d="M 41.175781 32.25 L 42.449219 32.25 L 42.449219 36.226562 L 47.324219 36.226562 L 47.324219 32.25 L 48.601562 32.25 L 48.601562 41.699219 L 47.324219 41.699219 L 47.324219 37.351562 L 42.449219 37.351562 L 42.449219 41.699219 L 41.175781 41.699219 L 41.175781 32.25 "/>
<path style=" stroke:none;fill-rule:nonzero;fill:rgb(0%,0%,100%);fill-opacity:1;" d="M 49.800781 41.398438 C 49.949219 41 50.199219 40.699219 50.550781 40.5 C 50.949219 40.25 51.398438 40.125 51.898438 40.125 C 52.5 40.125 53 40.300781 53.398438 40.648438 C 53.75 41 53.925781 41.476562 53.925781 42.074219 C 53.925781 42.675781 53.675781 43.273438 53.175781 43.875 C 52.726562 44.476562 52.023438 45.101562 51.074219 45.75 L 54 45.75 L 54 46.5 L 49.800781 46.5 L 49.800781 45.898438 C 50.550781 45.351562 51.148438 44.851562 51.601562 44.398438 C 52.101562 44 52.449219 43.625 52.648438 43.273438 C 52.898438 42.875 53.023438 42.5 53.023438 42.148438 C 53.023438 41.75 52.925781 41.425781 52.726562 41.175781 C 52.523438 40.976562 52.25 40.875 51.898438 40.875 C 51.550781 40.875 51.273438 40.925781 51.074219 41.023438 C 50.824219 41.175781 50.625 41.398438 50.476562 41.699219 L 49.800781 41.398438 "/>
<path style=" stroke:none;fill-rule:nonzero;fill:rgb(0%,0%,100%);fill-opacity:1;" d="M 56.023438 32.25 L 59.175781 37.273438 C 59.375 37.574219 59.625 38.023438 59.925781 38.625 C 60.273438 39.226562 60.449219 39.550781 60.449219 39.601562 L 60.449219 32.25 L 61.726562 32.25 L 61.726562 41.699219 L 60.449219 41.699219 L 57.074219 36.226562 C 56.824219 35.773438 56.574219 35.300781 56.324219 34.800781 C 56.023438 34.351562 55.851562 34.050781 55.800781 33.898438 L 55.800781 41.699219 L 54.523438 41.699219 L 54.523438 32.25 L 56.023438 32.25 "/>
<path style=" stroke:none;fill-rule:nonzero;fill:rgb(100%,0%,0%);fill-opacity:1;" d="M 65.25 93.976562 C 65.25 92.476562 65.625 91.300781 66.375 90.449219 C 67.125 89.601562 68.226562 89.175781 69.675781 89.175781 C 71.074219 89.175781 72.148438 89.601562 72.898438 90.449219 C 73.648438 91.300781 74.023438 92.476562 74.023438 93.976562 C 74.023438 95.523438 73.648438 96.726562 72.898438 97.574219 C 72.101562 98.476562 71.023438 98.925781 69.675781 98.925781 C 68.273438 98.925781 67.175781 98.476562 66.375 97.574219 C 65.625 96.726562 65.25 95.523438 65.25 93.976562 M 69.675781 97.800781 C 70.625 97.800781 71.351562 97.476562 71.851562 96.824219 C 72.398438 96.175781 72.675781 95.226562 72.675781 93.976562 C 72.675781 92.726562 72.398438 91.800781 71.851562 91.199219 C 71.351562 90.550781 70.625 90.226562 69.675781 90.226562 C 68.675781 90.226562 67.925781 90.523438 67.425781 91.125 C 66.875 91.773438 66.601562 92.726562 66.601562 93.976562 C 66.601562 95.273438 66.875 96.226562 67.425781 96.824219 C 67.925781 97.476562 68.675781 97.800781 69.675781 97.800781 "/>
<path style=" stroke:none;fill-rule:nonzero;fill:rgb(0%,0%,100%);fill-opacity:1;" d="M 133.351562 75.898438 L 136.425781 80.925781 C 136.625 81.273438 136.898438 81.75 137.25 82.351562 C 137.601562 82.949219 137.773438 83.273438 137.773438 83.324219 L 137.773438 75.898438 L 139.050781 75.898438 L 139.050781 85.425781 L 137.699219 85.425781 L 134.398438 79.875 C 134.148438 79.476562 133.875 79.023438 133.574219 78.523438 C 133.324219 78.023438 133.148438 77.699219 133.050781 77.550781 L 133.050781 85.425781 L 131.851562 85.425781 L 131.851562 75.898438 L 133.351562 75.898438 "/>
<path style=" stroke:none;fill-rule:nonzero;fill:rgb(100%,0%,0%);fill-opacity:1;" d="M 163.125 131.175781 C 163.125 129.625 163.5 128.425781 164.25 127.574219 C 165 126.726562 166.074219 126.300781 167.476562 126.300781 C 168.875 126.300781 169.949219 126.726562 170.699219 127.574219 C 171.449219 128.425781 171.824219 129.625 171.824219 131.175781 C 171.824219 132.726562 171.449219 133.925781 170.699219 134.773438 C 169.949219 135.675781 168.875 136.125 167.476562 136.125 C 166.074219 136.125 165 135.675781 164.25 134.773438 C 163.5 133.925781 163.125 132.726562 163.125 131.175781 M 167.476562 135 C 168.425781 135 169.175781 134.675781 169.726562 134.023438 C 170.226562 133.375 170.476562 132.425781 170.476562 131.175781 C 170.476562 129.925781 170.226562 129 169.726562 128.398438 C 169.175781 127.75 168.425781 127.425781 167.476562 127.425781 C 166.523438 127.425781 165.773438 127.726562 165.226562 128.324219 C 164.726562 128.976562 164.476562 129.925781 164.476562 131.175781 C 164.476562 132.425781 164.726562 133.375 165.226562 134.023438 C 165.773438 134.675781 166.523438 135 167.476562 135 "/>
<path style=" stroke:none;fill-rule:nonzero;fill:rgb(0%,0%,100%);fill-opacity:1;" d="M 187.351562 70.800781 L 190.5 75.824219 C 190.699219 76.175781 190.976562 76.648438 191.324219 77.25 C 191.625 77.800781 191.800781 78.101562 191.851562 78.148438 L 191.851562 70.800781 L 193.050781 70.800781 L 193.050781 80.25 L 191.773438 80.25 L 188.476562 74.773438 C 188.175781 74.375 187.898438 73.925781 187.648438 73.425781 C 187.351562 72.925781 187.175781 72.601562 187.125 72.449219 L 187.125 80.25 L 185.851562 80.25 L 185.851562 70.800781 L 187.351562 70.800781 "/>
<path style=" stroke:none;fill-rule:nonzero;fill:rgb(100%,0%,0%);fill-opacity:1;" d="M 217.875 82.875 C 217.875 81.375 218.25 80.199219 219 79.351562 C 219.75 78.5 220.824219 78.074219 222.226562 78.074219 C 223.625 78.074219 224.699219 78.5 225.449219 79.351562 C 226.199219 80.199219 226.574219 81.375 226.574219 82.875 C 226.574219 84.425781 226.199219 85.625 225.449219 86.476562 C 224.699219 87.375 223.625 87.824219 222.226562 87.824219 C 220.824219 87.824219 219.75 87.375 219 86.476562 C 218.25 85.625 217.875 84.425781 217.875 82.875 M 222.226562 86.699219 C 223.175781 86.699219 223.925781 86.375 224.476562 85.726562 C 224.976562 85.074219 225.226562 84.125 225.226562 82.875 C 225.226562 81.625 224.976562 80.699219 224.476562 80.101562 C 223.925781 79.449219 223.175781 79.125 222.226562 79.125 C 221.273438 79.125 220.523438 79.425781 219.976562 80.023438 C 219.476562 80.675781 219.226562 81.625 219.226562 82.875 C 219.226562 84.175781 219.476562 85.125 219.976562 85.726562 C 220.523438 86.375 221.273438 86.699219 222.226562 86.699219 "/>
<path style=" stroke:none;fill-rule:nonzero;fill:rgb(80%,80%,0%);fill-opacity:1;" d="M 242.25 61.425781 C 242.351562 61.425781 242.523438 61.5 242.773438 61.648438 C 243.074219 61.75 243.398438 61.851562 243.75 61.949219 C 244.050781 62 244.375 62.023438 244.726562 62.023438 C 245.324219 62.023438 245.800781 61.898438 246.148438 61.648438 C 246.5 61.351562 246.675781 60.925781 246.675781 60.375 C 246.675781 60.023438 246.574219 59.75 246.375 59.550781 C 246.226562 59.351562 246 59.199219 245.699219 59.101562 C 245.449219 58.949219 245.101562 58.824219 244.648438 58.726562 C 244.101562 58.523438 243.648438 58.351562 243.300781 58.199219 C 242.949219 58.050781 242.675781 57.800781 242.476562 57.449219 C 242.226562 57.101562 242.101562 56.648438 242.101562 56.101562 C 242.101562 55.300781 242.375 54.648438 242.925781 54.148438 C 243.476562 53.648438 244.273438 53.398438 245.324219 53.398438 C 246.074219 53.398438 246.851562 53.574219 247.648438 53.925781 L 247.351562 54.976562 C 246.601562 54.675781 245.949219 54.523438 245.398438 54.523438 C 244.75 54.523438 244.25 54.648438 243.898438 54.898438 C 243.601562 55.148438 243.449219 55.476562 243.449219 55.875 C 243.449219 56.226562 243.523438 56.5 243.675781 56.699219 C 243.875 56.949219 244.101562 57.125 244.351562 57.226562 C 244.601562 57.324219 244.949219 57.449219 245.398438 57.601562 C 245.949219 57.75 246.398438 57.925781 246.75 58.125 C 247.101562 58.324219 247.375 58.601562 247.574219 58.949219 C 247.824219 59.300781 247.949219 59.773438 247.949219 60.375 C 247.949219 61.273438 247.675781 61.949219 247.125 62.398438 C 246.523438 62.898438 245.75 63.148438 244.800781 63.148438 C 244.199219 63.148438 243.699219 63.074219 243.300781 62.925781 C 242.851562 62.824219 242.375 62.675781 241.875 62.476562 L 242.25 61.425781 "/>
<path style=" stroke:none;fill-rule:nonzero;fill:rgb(100%,0%,0%);fill-opacity:1;" d="M 215.851562 35.476562 C 215.851562 33.925781 216.226562 32.726562 216.976562 31.875 C 217.726562 31.023438 218.800781 30.601562 220.199219 30.601562 C 221.648438 30.601562 222.75 31.023438 223.5 31.875 C 224.25 32.726562 224.625 33.925781 224.625 35.476562 C 224.625 37.023438 224.226562 38.226562 223.425781 39.074219 C 222.675781 39.925781 221.601562 40.351562 220.199219 40.351562 C 218.851562 40.351562 217.773438 39.925781 216.976562 39.074219 C 216.226562 38.226562 215.851562 37.023438 215.851562 35.476562 M 220.199219 39.300781 C 221.199219 39.300781 221.949219 38.976562 222.449219 38.324219 C 223 37.675781 223.273438 36.726562 223.273438 35.476562 C 223.273438 34.226562 223 33.273438 222.449219 32.625 C 221.949219 32.023438 221.199219 31.726562 220.199219 31.726562 C 219.25 31.726562 218.523438 32.023438 218.023438 32.625 C 217.476562 33.273438 217.199219 34.226562 217.199219 35.476562 C 217.199219 36.726562 217.476562 37.675781 218.023438 38.324219 C 218.523438 38.976562 219.25 39.300781 220.199219 39.300781 "/>
<path style=" stroke:none;fill-rule:nonzero;fill:rgb(100%,0%,0%);fill-opacity:1;" d="M 265.273438 80.851562 C 265.273438 79.351562 265.648438 78.175781 266.398438 77.324219 C 267.148438 76.476562 268.226562 76.050781 269.625 76.050781 C 271.023438 76.050781 272.101562 76.476562 272.851562 77.324219 C 273.601562 78.175781 273.976562 79.351562 273.976562 80.851562 C 273.976562 82.398438 273.601562 83.625 272.851562 84.523438 C 272.101562 85.375 271.023438 85.800781 269.625 85.800781 C 268.226562 85.800781 267.148438 85.375 266.398438 84.523438 C 265.648438 83.625 265.273438 82.398438 265.273438 80.851562 M 269.625 84.75 C 270.625 84.75 271.375 84.425781 271.875 83.773438 C 272.425781 83.125 272.699219 82.148438 272.699219 80.851562 C 272.699219 79.601562 272.425781 78.675781 271.875 78.074219 C 271.375 77.425781 270.625 77.101562 269.625 77.101562 C 268.675781 77.101562 267.925781 77.425781 267.375 78.074219 C 266.875 78.675781 266.625 79.601562 266.625 80.851562 C 266.625 82.148438 266.875 83.125 267.375 83.773438 C 267.925781 84.425781 268.675781 84.75 269.625 84.75 "/>
<path style=" stroke:none;fill-rule:nonzero;fill:rgb(100%,0%,0%);fill-opacity:1;" d="M 263.25 33.449219 C 263.25 31.949219 263.625 30.773438 264.375 29.925781 C 265.175781 29.074219 266.273438 28.648438 267.675781 28.648438 C 269.074219 28.648438 270.148438 29.074219 270.898438 29.925781 C 271.648438 30.773438 272.023438 31.949219 272.023438 33.449219 C 272.023438 35 271.648438 36.199219 270.898438 37.050781 C 270.101562 37.949219 269.023438 38.398438 267.675781 38.398438 C 266.273438 38.398438 265.175781 37.949219 264.375 37.050781 C 263.625 36.199219 263.25 35 263.25 33.449219 M 267.675781 37.273438 C 268.625 37.273438 269.351562 36.976562 269.851562 36.375 C 270.398438 35.726562 270.675781 34.75 270.675781 33.449219 C 270.675781 32.199219 270.398438 31.273438 269.851562 30.675781 C 269.351562 30.023438 268.625 29.699219 267.675781 29.699219 C 266.675781 29.699219 265.925781 30.023438 265.425781 30.675781 C 264.875 31.273438 264.601562 32.199219 264.601562 33.449219 C 264.601562 34.75 264.875 35.726562 265.425781 36.375 C 265.925781 36.976562 266.675781 37.273438 267.675781 37.273438 "/>
<path style=" stroke:none;fill-rule:nonzero;fill:rgb(100%,0%,0%);fill-opacity:1;" d="M 272.699219 28.726562 L 273.976562 28.726562 L 273.976562 32.773438 L 278.851562 32.773438 L 278.851562 28.726562 L 280.125 28.726562 L 280.125 38.25 L 278.851562 38.25 L 278.851562 33.824219 L 273.976562 33.824219 L 273.976562 38.25 L 272.699219 38.25 L 272.699219 28.726562 "/>
<path style=" stroke:none;fill-rule:evenodd;fill:rgb(0%,0%,0%);fill-opacity:1;" d="M 183.75 42.226562 L 183.675781 42.300781 L 183.675781 42.523438 L 183.601562 42.523438 L 183.601562 42.601562 L 183.523438 42.601562 L 183.523438 42.675781 L 183.449219 42.75 L 183.375 42.75 L 183.300781 42.824219 L 183.226562 42.824219 L 183.148438 42.898438 L 182.851562 42.898438 L 182.851562 42.824219 L 182.699219 42.824219 L 182.699219 42.75 L 182.625 42.75 L 182.476562 42.601562 L 182.476562 42.523438 L 182.398438 42.449219 L 182.398438 41.925781 L 182.476562 41.925781 L 182.476562 41.773438 L 182.550781 41.773438 L 182.550781 41.699219 L 182.625 41.699219 L 182.699219 41.625 L 182.773438 41.625 L 182.851562 41.550781 L 183.300781 41.550781 L 183.300781 41.625 L 183.375 41.625 L 183.675781 41.925781 L 183.675781 42.148438 L 183.75 42.226562 L 183.074219 42.226562 Z M 183.75 42.226562 "/>
</g>
</svg>
