<?xml version="1.0" encoding="UTF-8"?>
<svg xmlns="http://www.w3.org/2000/svg" xmlns:xlink="http://www.w3.org/1999/xlink" width="375pt" height="375pt" viewBox="0 0 375 375" version="1.1">
<g id="surface216">
<rect x="0" y="0" width="375" height="375" style="fill:rgb(100%,100%,100%);fill-opacity:1;stroke:none;"/>
<path style="fill:none;stroke-width:2;stroke-linecap:butt;stroke-linejoin:miter;stroke:rgb(0%,0%,0%);stroke-opacity:1;stroke-miterlimit:4;" d="M 477.302083 242.302083 L 446.598958 255.302083 " transform="matrix(0.75,0,0,0.75,0,0)"/>
<path style="fill:none;stroke-width:2;stroke-linecap:butt;stroke-linejoin:miter;stroke:rgb(0%,0%,0%);stroke-opacity:1;stroke-miterlimit:4;" d="M 446.598958 255.302083 L 435.697917 247 " transform="matrix(0.75,0,0,0.75,0,0)"/>
<path style="fill:none;stroke-width:2;stroke-linecap:butt;stroke-linejoin:miter;stroke:rgb(0%,0%,100%);stroke-opacity:1;stroke-miterlimit:4;" d="M 435.697917 247 L 424.802083 238.802083 " transform="matrix(0.75,0,0,0.75,0,0)"/>
<path style="fill:none;stroke-width:2;stroke-linecap:butt;stroke-linejoin:miter;stroke:rgb(0%,0%,100%);stroke-opacity:1;stroke-miterlimit:4;" d="M 415.401042 231.697917 L 404.5 223.401042 " transform="matrix(0.75,0,0,0.75,0,0)"/>
<path style="fill:none;stroke-width:2;stroke-linecap:butt;stroke-linejoin:miter;stroke:rgb(0%,0%,0%);stroke-opacity:1;stroke-miterlimit:4;" d="M 404.5 223.401042 L 393.5 215.197917 " transform="matrix(0.75,0,0,0.75,0,0)"/>
<path style="fill:none;stroke-width:2;stroke-linecap:butt;stroke-linejoin:miter;stroke:rgb(0%,0%,100%);stroke-opacity:1;stroke-miterlimit:4;" d="M 415.697917 241 L 407.901042 251.401042 " transform="matrix(0.75,0,0,0.75,0,0)"/>
<path style="fill:none;stroke-width:2;stroke-linecap:butt;stroke-linejoin:miter;stroke:rgb(0%,0%,0%);stroke-opacity:1;stroke-miterlimit:4;" d="M 407.901042 251.401042 L 400 261.802083 " transform="matrix(0.75,0,0,0.75,0,0)"/>
<path style="fill:none;stroke-width:2;stroke-linecap:butt;stroke-linejoin:miter;stroke:rgb(0%,0%,0%);stroke-opacity:1;stroke-miterlimit:4;" d="M 400 261.802083 L 367 257.697917 " transform="matrix(0.75,0,0,0.75,0,0)"/>
<path style="fill:none;stroke-width:2;stroke-linecap:butt;stroke-linejoin:miter;stroke:rgb(0%,0%,0%);stroke-opacity:1;stroke-miterlimit:4;" d="M 367 257.697917 L 347 284.197917 " transform="matrix(0.75,0,0,0.75,0,0)"/>
<path style="fill:none;stroke-width:2;stroke-linecap:butt;stroke-linejoin:miter;stroke:rgb(0%,0%,0%);stroke-opacity:1;stroke-miterlimit:4;" d="M 369.302083 263 L 350.901042 287.197917 " transform="matrix(0.75,0,0,0.75,0,0)"/>
<path style="fill:none;stroke-width:2;stroke-linecap:butt;stroke-linejoin:miter;stroke:rgb(0%,0%,0%);stroke-opacity:1;stroke-miterlimit:4;" d="M 347 284.197917 L 313.901042 280.098958 " transform="matrix(0.75,0,0,0.75,0,0)"/>
<path style="fill:none;stroke-width:2;stroke-linecap:butt;stroke-linejoin:miter;stroke:rgb(0%,0%,0%);stroke-opacity:1;stroke-miterlimit:4;" d="M 313.901042 280.098958 L 293.901042 306.598958 " transform="matrix(0.75,0,0,0.75,0,0)"/>
<path style="fill:none;stroke-width:2;stroke-linecap:butt;stroke-linejoin:miter;stroke:rgb(0%,0%,0%);stroke-opacity:1;stroke-miterlimit:4;" d="M 308.197917 279.401042 L 291.598958 301.302083 " transform="matrix(0.75,0,0,0.75,0,0)"/>
<path style="fill:none;stroke-width:2;stroke-linecap:butt;stroke-linejoin:miter;stroke:rgb(0%,0%,0%);stroke-opacity:1;stroke-miterlimit:4;" d="M 293.901042 306.598958 L 306.802083 337.302083 " transform="matrix(0.75,0,0,0.75,0,0)"/>
<path style="fill:none;stroke-width:2;stroke-linecap:butt;stroke-linejoin:miter;stroke:rgb(0%,0%,0%);stroke-opacity:1;stroke-miterlimit:4;" d="M 305.098958 339.598958 L 319.598958 341.401042 " transform="matrix(0.75,0,0,0.75,0,0)"/>
<path style="fill:none;stroke-width:2;stroke-linecap:butt;stroke-linejoin:miter;stroke:rgb(100%,0%,0%);stroke-opacity:1;stroke-miterlimit:4;" d="M 319.598958 341.401042 L 334.098958 343.197917 " transform="matrix(0.75,0,0,0.75,0,0)"/>
<path style="fill:none;stroke-width:2;stroke-linecap:butt;stroke-linejoin:miter;stroke:rgb(0%,0%,0%);stroke-opacity:1;stroke-miterlimit:4;" d="M 305.697917 334.598958 L 320.197917 336.401042 " transform="matrix(0.75,0,0,0.75,0,0)"/>
<path style="fill:none;stroke-width:2;stroke-linecap:butt;stroke-linejoin:miter;stroke:rgb(100%,0%,0%);stroke-opacity:1;stroke-miterlimit:4;" d="M 320.197917 336.401042 L 334.697917 338.197917 " transform="matrix(0.75,0,0,0.75,0,0)"/>
<path style="fill:none;stroke-width:2;stroke-linecap:butt;stroke-linejoin:miter;stroke:rgb(0%,0%,0%);stroke-opacity:1;stroke-miterlimit:4;" d="M 306.802083 337.302083 L 299 347.598958 " transform="matrix(0.75,0,0,0.75,0,0)"/>
<path style="fill:none;stroke-width:2;stroke-linecap:butt;stroke-linejoin:miter;stroke:rgb(100%,0%,0%);stroke-opacity:1;stroke-miterlimit:4;" d="M 299 347.598958 L 291.197917 358 " transform="matrix(0.75,0,0,0.75,0,0)"/>
<path style="fill:none;stroke-width:2;stroke-linecap:butt;stroke-linejoin:miter;stroke:rgb(0%,0%,0%);stroke-opacity:1;stroke-miterlimit:4;" d="M 293.901042 306.598958 L 279.697917 304.901042 " transform="matrix(0.75,0,0,0.75,0,0)"/>
<path style="fill:none;stroke-width:2;stroke-linecap:butt;stroke-linejoin:miter;stroke:rgb(0%,0%,100%);stroke-opacity:1;stroke-miterlimit:4;" d="M 279.697917 304.901042 L 265.5 303.098958 " transform="matrix(0.75,0,0,0.75,0,0)"/>
<path style="fill:none;stroke-width:2;stroke-linecap:butt;stroke-linejoin:miter;stroke:rgb(0%,0%,100%);stroke-opacity:1;stroke-miterlimit:4;" d="M 256.197917 304.5 L 243.197917 310 " transform="matrix(0.75,0,0,0.75,0,0)"/>
<path style="fill:none;stroke-width:2;stroke-linecap:butt;stroke-linejoin:miter;stroke:rgb(0%,0%,0%);stroke-opacity:1;stroke-miterlimit:4;" d="M 243.197917 310 L 230.197917 315.5 " transform="matrix(0.75,0,0,0.75,0,0)"/>
<path style="fill:none;stroke-width:2;stroke-linecap:butt;stroke-linejoin:miter;stroke:rgb(0%,0%,0%);stroke-opacity:1;stroke-miterlimit:4;" d="M 228.802083 312.197917 L 223.302083 325.901042 " transform="matrix(0.75,0,0,0.75,0,0)"/>
<path style="fill:none;stroke-width:2;stroke-linecap:butt;stroke-linejoin:miter;stroke:rgb(100%,0%,0%);stroke-opacity:1;stroke-miterlimit:4;" d="M 223.302083 325.901042 L 217.802083 339.5 " transform="matrix(0.75,0,0,0.75,0,0)"/>
<path style="fill:none;stroke-width:2;stroke-linecap:butt;stroke-linejoin:miter;stroke:rgb(0%,0%,0%);stroke-opacity:1;stroke-miterlimit:4;" d="M 233.5 314.098958 L 227.901042 327.802083 " transform="matrix(0.75,0,0,0.75,0,0)"/>
<path style="fill:none;stroke-width:2;stroke-linecap:butt;stroke-linejoin:miter;stroke:rgb(100%,0%,0%);stroke-opacity:1;stroke-miterlimit:4;" d="M 227.901042 327.802083 L 222.401042 341.401042 " transform="matrix(0.75,0,0,0.75,0,0)"/>
<path style="fill:none;stroke-width:2;stroke-linecap:butt;stroke-linejoin:miter;stroke:rgb(0%,0%,0%);stroke-opacity:1;stroke-miterlimit:4;" d="M 230.197917 315.5 L 217.302083 284.901042 " transform="matrix(0.75,0,0,0.75,0,0)"/>
<path style="fill-rule:evenodd;fill:rgb(0%,0%,0%);fill-opacity:1;stroke-width:0.5;stroke-linecap:butt;stroke-linejoin:miter;stroke:rgb(0%,0%,0%);stroke-opacity:1;stroke-miterlimit:4;" d="M 217.302083 284.901042 L 204.302083 280.901042 L 205.197917 278.598958 Z M 217.302083 284.901042 " transform="matrix(0.75,0,0,0.75,0,0)"/>
<path style="fill-rule:evenodd;fill:rgb(0%,0%,100%);fill-opacity:1;stroke-width:0.5;stroke-linecap:butt;stroke-linejoin:miter;stroke:rgb(0%,0%,100%);stroke-opacity:1;stroke-miterlimit:4;" d="M 204.302083 280.901042 L 193.098958 272.401042 L 191.302083 277 Z M 204.302083 280.901042 " transform="matrix(0.75,0,0,0.75,0,0)"/>
<path style="fill-rule:evenodd;fill:rgb(0%,0%,100%);fill-opacity:1;stroke-width:0.5;stroke-linecap:butt;stroke-linejoin:miter;stroke:rgb(0%,0%,100%);stroke-opacity:1;stroke-miterlimit:4;" d="M 204.302083 280.901042 L 205.197917 278.598958 L 193.098958 272.401042 Z M 204.302083 280.901042 " transform="matrix(0.75,0,0,0.75,0,0)"/>
<path style="fill:none;stroke-width:2;stroke-linecap:butt;stroke-linejoin:miter;stroke:rgb(0%,0%,100%);stroke-opacity:1;stroke-miterlimit:4;" d="M 185.598958 266.5 L 183.697917 253 " transform="matrix(0.75,0,0,0.75,0,0)"/>
<path style="fill:none;stroke-width:2;stroke-linecap:butt;stroke-linejoin:miter;stroke:rgb(0%,0%,0%);stroke-opacity:1;stroke-miterlimit:4;" d="M 183.697917 253 L 181.802083 239.401042 " transform="matrix(0.75,0,0,0.75,0,0)"/>
<path style="fill:none;stroke-width:2;stroke-linecap:butt;stroke-linejoin:miter;stroke:rgb(0%,0%,0%);stroke-opacity:1;stroke-miterlimit:4;" d="M 182.197917 242.302083 L 193.197917 233.697917 " transform="matrix(0.75,0,0,0.75,0,0)"/>
<path style="fill:none;stroke-width:2;stroke-linecap:butt;stroke-linejoin:miter;stroke:rgb(100%,0%,0%);stroke-opacity:1;stroke-miterlimit:4;" d="M 193.197917 233.697917 L 204.197917 225.098958 " transform="matrix(0.75,0,0,0.75,0,0)"/>
<path style="fill:none;stroke-width:2;stroke-linecap:butt;stroke-linejoin:miter;stroke:rgb(0%,0%,0%);stroke-opacity:1;stroke-miterlimit:4;" d="M 179.197917 238.302083 L 190.197917 229.802083 " transform="matrix(0.75,0,0,0.75,0,0)"/>
<path style="fill:none;stroke-width:2;stroke-linecap:butt;stroke-linejoin:miter;stroke:rgb(100%,0%,0%);stroke-opacity:1;stroke-miterlimit:4;" d="M 190.197917 229.802083 L 201.098958 221.197917 " transform="matrix(0.75,0,0,0.75,0,0)"/>
<path style="fill:none;stroke-width:2;stroke-linecap:butt;stroke-linejoin:miter;stroke:rgb(0%,0%,0%);stroke-opacity:1;stroke-miterlimit:4;" d="M 181.802083 239.401042 L 151 226.901042 " transform="matrix(0.75,0,0,0.75,0,0)"/>
<path style="fill:none;stroke-width:2;stroke-linecap:butt;stroke-linejoin:miter;stroke:rgb(0%,0%,0%);stroke-opacity:1;stroke-miterlimit:4;" d="M 151 226.901042 L 149.098958 213.302083 " transform="matrix(0.75,0,0,0.75,0,0)"/>
<path style="fill:none;stroke-width:2;stroke-linecap:butt;stroke-linejoin:miter;stroke:rgb(0%,0%,100%);stroke-opacity:1;stroke-miterlimit:4;" d="M 149.098958 213.302083 L 147.197917 199.697917 " transform="matrix(0.75,0,0,0.75,0,0)"/>
<path style="fill:none;stroke-width:2;stroke-linecap:butt;stroke-linejoin:miter;stroke:rgb(0%,0%,0%);stroke-opacity:1;stroke-miterlimit:4;" d="M 145.697917 224.697917 L 144.197917 213.802083 " transform="matrix(0.75,0,0,0.75,0,0)"/>
<path style="fill:none;stroke-width:2;stroke-linecap:butt;stroke-linejoin:miter;stroke:rgb(0%,0%,100%);stroke-opacity:1;stroke-miterlimit:4;" d="M 144.197917 213.802083 L 142.598958 202.802083 " transform="matrix(0.75,0,0,0.75,0,0)"/>
<path style="fill:none;stroke-width:2;stroke-linecap:butt;stroke-linejoin:miter;stroke:rgb(0%,0%,100%);stroke-opacity:1;stroke-miterlimit:4;" d="M 141.802083 192 L 131.401042 187.802083 " transform="matrix(0.75,0,0,0.75,0,0)"/>
<path style="fill:none;stroke-width:2;stroke-linecap:butt;stroke-linejoin:miter;stroke:rgb(100%,0%,0%);stroke-opacity:1;stroke-miterlimit:4;" d="M 131.401042 187.802083 L 121 183.598958 " transform="matrix(0.75,0,0,0.75,0,0)"/>
<path style="fill:none;stroke-width:2;stroke-linecap:butt;stroke-linejoin:miter;stroke:rgb(100%,0%,0%);stroke-opacity:1;stroke-miterlimit:4;" d="M 114.802083 175.598958 L 112.901042 162 " transform="matrix(0.75,0,0,0.75,0,0)"/>
<path style="fill:none;stroke-width:2;stroke-linecap:butt;stroke-linejoin:miter;stroke:rgb(0%,0%,0%);stroke-opacity:1;stroke-miterlimit:4;" d="M 112.901042 162 L 111 148.5 " transform="matrix(0.75,0,0,0.75,0,0)"/>
<path style="fill:none;stroke-width:2;stroke-linecap:butt;stroke-linejoin:miter;stroke:rgb(0%,0%,0%);stroke-opacity:1;stroke-miterlimit:4;" d="M 111 148.5 L 97.598958 143 " transform="matrix(0.75,0,0,0.75,0,0)"/>
<path style="fill:none;stroke-width:2;stroke-linecap:butt;stroke-linejoin:miter;stroke:rgb(20%,80%,80%);stroke-opacity:1;stroke-miterlimit:4;" d="M 97.598958 143 L 84.098958 137.598958 " transform="matrix(0.75,0,0,0.75,0,0)"/>
<path style="fill:none;stroke-width:2;stroke-linecap:butt;stroke-linejoin:miter;stroke:rgb(0%,0%,0%);stroke-opacity:1;stroke-miterlimit:4;" d="M 151 226.901042 L 124.802083 247.302083 " transform="matrix(0.75,0,0,0.75,0,0)"/>
<path style="fill:none;stroke-width:2;stroke-linecap:butt;stroke-linejoin:miter;stroke:rgb(0%,0%,0%);stroke-opacity:1;stroke-miterlimit:4;" d="M 124.802083 247.302083 L 125.197917 261.098958 " transform="matrix(0.75,0,0,0.75,0,0)"/>
<path style="fill:none;stroke-width:2;stroke-linecap:butt;stroke-linejoin:miter;stroke:rgb(0%,0%,100%);stroke-opacity:1;stroke-miterlimit:4;" d="M 125.197917 261.098958 L 125.697917 274.802083 " transform="matrix(0.75,0,0,0.75,0,0)"/>
<path style="fill:none;stroke-width:2;stroke-linecap:butt;stroke-linejoin:miter;stroke:rgb(0%,0%,0%);stroke-opacity:1;stroke-miterlimit:4;" d="M 119.901042 251.098958 L 120.302083 263 " transform="matrix(0.75,0,0,0.75,0,0)"/>
<path style="fill:none;stroke-width:2;stroke-linecap:butt;stroke-linejoin:miter;stroke:rgb(0%,0%,100%);stroke-opacity:1;stroke-miterlimit:4;" d="M 120.302083 263 L 120.697917 274.901042 " transform="matrix(0.75,0,0,0.75,0,0)"/>
<path style="fill:none;stroke-width:2;stroke-linecap:butt;stroke-linejoin:miter;stroke:rgb(0%,0%,100%);stroke-opacity:1;stroke-miterlimit:4;" d="M 121.197917 282.302083 L 110 286.401042 " transform="matrix(0.75,0,0,0.75,0,0)"/>
<path style="fill:none;stroke-width:2;stroke-linecap:butt;stroke-linejoin:miter;stroke:rgb(80%,80%,0%);stroke-opacity:1;stroke-miterlimit:4;" d="M 110 286.401042 L 98.697917 290.401042 " transform="matrix(0.75,0,0,0.75,0,0)"/>
<path style="fill:none;stroke-width:2;stroke-linecap:butt;stroke-linejoin:miter;stroke:rgb(80%,80%,0%);stroke-opacity:1;stroke-miterlimit:4;" d="M 90.5 286.598958 L 82.302083 276.197917 " transform="matrix(0.75,0,0,0.75,0,0)"/>
<path style="fill:none;stroke-width:2;stroke-linecap:butt;stroke-linejoin:miter;stroke:rgb(0%,0%,0%);stroke-opacity:1;stroke-miterlimit:4;" d="M 82.302083 276.197917 L 74.197917 265.697917 " transform="matrix(0.75,0,0,0.75,0,0)"/>
<path style="fill:none;stroke-width:2;stroke-linecap:butt;stroke-linejoin:miter;stroke:rgb(0%,0%,0%);stroke-opacity:1;stroke-miterlimit:4;" d="M 74.197917 265.697917 L 59.901042 266.197917 " transform="matrix(0.75,0,0,0.75,0,0)"/>
<path style="fill:none;stroke-width:2;stroke-linecap:butt;stroke-linejoin:miter;stroke:rgb(0%,0%,100%);stroke-opacity:1;stroke-miterlimit:4;" d="M 59.901042 266.197917 L 45.598958 266.598958 " transform="matrix(0.75,0,0,0.75,0,0)"/>
<path style="fill:none;stroke-width:2;stroke-linecap:butt;stroke-linejoin:miter;stroke:rgb(0%,0%,0%);stroke-opacity:1;stroke-miterlimit:4;" d="M 74.197917 265.697917 L 81.5 254.802083 " transform="matrix(0.75,0,0,0.75,0,0)"/>
<path style="fill:none;stroke-width:2;stroke-linecap:butt;stroke-linejoin:miter;stroke:rgb(0%,0%,100%);stroke-opacity:1;stroke-miterlimit:4;" d="M 81.5 254.802083 L 88.901042 243.901042 " transform="matrix(0.75,0,0,0.75,0,0)"/>
<path style="fill:none;stroke-width:2;stroke-linecap:butt;stroke-linejoin:miter;stroke:rgb(0%,0%,0%);stroke-opacity:1;stroke-miterlimit:4;" d="M 80.302083 265.5 L 86.697917 256.098958 " transform="matrix(0.75,0,0,0.75,0,0)"/>
<path style="fill:none;stroke-width:2;stroke-linecap:butt;stroke-linejoin:miter;stroke:rgb(0%,0%,100%);stroke-opacity:1;stroke-miterlimit:4;" d="M 86.697917 256.098958 L 93 246.697917 " transform="matrix(0.75,0,0,0.75,0,0)"/>
<path style="fill:none;stroke-width:2;stroke-linecap:butt;stroke-linejoin:miter;stroke:rgb(0%,0%,0%);stroke-opacity:1;stroke-miterlimit:4;" d="M 217.302083 284.901042 L 247.901042 271.901042 " transform="matrix(0.75,0,0,0.75,0,0)"/>
<path style="fill:none;stroke-width:2;stroke-linecap:butt;stroke-linejoin:miter;stroke:rgb(0%,0%,0%);stroke-opacity:1;stroke-miterlimit:4;" d="M 247.901042 271.901042 L 255.901042 261.401042 " transform="matrix(0.75,0,0,0.75,0,0)"/>
<path style="fill:none;stroke-width:2;stroke-linecap:butt;stroke-linejoin:miter;stroke:rgb(80%,80%,0%);stroke-opacity:1;stroke-miterlimit:4;" d="M 255.901042 261.401042 L 263.802083 250.802083 " transform="matrix(0.75,0,0,0.75,0,0)"/>
<path style="fill:none;stroke-width:2;stroke-linecap:butt;stroke-linejoin:miter;stroke:rgb(80%,80%,0%);stroke-opacity:1;stroke-miterlimit:4;" d="M 272.098958 245.901042 L 286.5 247.697917 " transform="matrix(0.75,0,0,0.75,0,0)"/>
<path style="fill:none;stroke-width:2;stroke-linecap:butt;stroke-linejoin:miter;stroke:rgb(0%,0%,0%);stroke-opacity:1;stroke-miterlimit:4;" d="M 286.5 247.697917 L 301 249.5 " transform="matrix(0.75,0,0,0.75,0,0)"/>
<path style="fill:none;stroke-width:2;stroke-linecap:butt;stroke-linejoin:miter;stroke:rgb(0%,0%,100%);stroke-opacity:1;stroke-miterlimit:4;" d="M 424.5 229.401042 L 432.302083 219 " transform="matrix(0.75,0,0,0.75,0,0)"/>
<path style="fill:none;stroke-width:2;stroke-linecap:butt;stroke-linejoin:miter;stroke:rgb(0%,0%,0%);stroke-opacity:1;stroke-miterlimit:4;" d="M 432.302083 219 L 440.098958 208.697917 " transform="matrix(0.75,0,0,0.75,0,0)"/>
<path style="fill:none;stroke-width:2;stroke-linecap:butt;stroke-linejoin:miter;stroke:rgb(0%,0%,0%);stroke-opacity:1;stroke-miterlimit:4;" d="M 440.098958 208.697917 L 427.197917 178 " transform="matrix(0.75,0,0,0.75,0,0)"/>
<path style="fill:none;stroke-width:2;stroke-linecap:butt;stroke-linejoin:miter;stroke:rgb(0%,0%,0%);stroke-opacity:1;stroke-miterlimit:4;" d="M 427.197917 178 L 435 167.697917 " transform="matrix(0.75,0,0,0.75,0,0)"/>
<path style="fill:none;stroke-width:2;stroke-linecap:butt;stroke-linejoin:miter;stroke:rgb(0%,0%,100%);stroke-opacity:1;stroke-miterlimit:4;" d="M 435 167.697917 L 442.901042 157.302083 " transform="matrix(0.75,0,0,0.75,0,0)"/>
<path style="fill:none;stroke-width:2;stroke-linecap:butt;stroke-linejoin:miter;stroke:rgb(0%,0%,0%);stroke-opacity:1;stroke-miterlimit:4;" d="M 428.901042 175.697917 L 414.401042 173.901042 " transform="matrix(0.75,0,0,0.75,0,0)"/>
<path style="fill:none;stroke-width:2;stroke-linecap:butt;stroke-linejoin:miter;stroke:rgb(100%,0%,0%);stroke-opacity:1;stroke-miterlimit:4;" d="M 414.401042 173.901042 L 399.901042 172.098958 " transform="matrix(0.75,0,0,0.75,0,0)"/>
<path style="fill:none;stroke-width:2;stroke-linecap:butt;stroke-linejoin:miter;stroke:rgb(0%,0%,0%);stroke-opacity:1;stroke-miterlimit:4;" d="M 428.302083 180.697917 L 413.802083 178.901042 " transform="matrix(0.75,0,0,0.75,0,0)"/>
<path style="fill:none;stroke-width:2;stroke-linecap:butt;stroke-linejoin:miter;stroke:rgb(100%,0%,0%);stroke-opacity:1;stroke-miterlimit:4;" d="M 413.802083 178.901042 L 399.302083 177.098958 " transform="matrix(0.75,0,0,0.75,0,0)"/>
<path style="fill:none;stroke-width:2;stroke-linecap:butt;stroke-linejoin:miter;stroke:rgb(0%,0%,0%);stroke-opacity:1;stroke-miterlimit:4;" d="M 301 249.5 L 313.901042 280.098958 " transform="matrix(0.75,0,0,0.75,0,0)"/>
<path style="fill:none;stroke-width:2;stroke-linecap:butt;stroke-linejoin:miter;stroke:rgb(0%,0%,0%);stroke-opacity:1;stroke-miterlimit:4;" d="M 247.901042 271.901042 L 253.197917 284.302083 " transform="matrix(0.75,0,0,0.75,0,0)"/>
<path style="fill:none;stroke-width:2;stroke-linecap:butt;stroke-linejoin:miter;stroke:rgb(0%,0%,100%);stroke-opacity:1;stroke-miterlimit:4;" d="M 253.197917 284.302083 L 258.401042 296.697917 " transform="matrix(0.75,0,0,0.75,0,0)"/>
<path style="fill:none;stroke-width:2;stroke-linecap:butt;stroke-linejoin:miter;stroke:rgb(0%,0%,100%);stroke-opacity:1;stroke-miterlimit:4;" d="M 97.5 239.5 L 111.098958 243.401042 " transform="matrix(0.75,0,0,0.75,0,0)"/>
<path style="fill:none;stroke-width:2;stroke-linecap:butt;stroke-linejoin:miter;stroke:rgb(0%,0%,0%);stroke-opacity:1;stroke-miterlimit:4;" d="M 111.098958 243.401042 L 124.802083 247.302083 " transform="matrix(0.75,0,0,0.75,0,0)"/>
<path style="fill:none;stroke-width:1;stroke-linecap:butt;stroke-linejoin:miter;stroke:rgb(0%,0%,0%);stroke-opacity:1;stroke-miterlimit:4;" d="M 245.5 269.401042 L 246 268.901042 " transform="matrix(0.75,0,0,0.75,0,0)"/>
<path style="fill:none;stroke-width:1;stroke-linecap:butt;stroke-linejoin:miter;stroke:rgb(0%,0%,0%);stroke-opacity:1;stroke-miterlimit:4;" d="M 243 266.802083 L 244.197917 265.901042 " transform="matrix(0.75,0,0,0.75,0,0)"/>
<path style="fill:none;stroke-width:1;stroke-linecap:butt;stroke-linejoin:miter;stroke:rgb(0%,0%,0%);stroke-opacity:1;stroke-miterlimit:4;" d="M 240.598958 264.302083 L 242.302083 263 " transform="matrix(0.75,0,0,0.75,0,0)"/>
<path style="fill:none;stroke-width:1;stroke-linecap:butt;stroke-linejoin:miter;stroke:rgb(0%,0%,0%);stroke-opacity:1;stroke-miterlimit:4;" d="M 238.197917 261.697917 L 240.401042 260 " transform="matrix(0.75,0,0,0.75,0,0)"/>
<path style="fill:none;stroke-width:1;stroke-linecap:butt;stroke-linejoin:miter;stroke:rgb(0%,0%,0%);stroke-opacity:1;stroke-miterlimit:4;" d="M 235.697917 259.197917 L 238.5 257 " transform="matrix(0.75,0,0,0.75,0,0)"/>
<path style="fill:none;stroke-width:1;stroke-linecap:butt;stroke-linejoin:miter;stroke:rgb(0%,0%,0%);stroke-opacity:1;stroke-miterlimit:4;" d="M 233.302083 256.598958 L 236.697917 254 " transform="matrix(0.75,0,0,0.75,0,0)"/>
<path style="fill:none;stroke-width:1;stroke-linecap:butt;stroke-linejoin:miter;stroke:rgb(0%,0%,0%);stroke-opacity:1;stroke-miterlimit:4;" d="M 230.901042 254.098958 L 234.802083 251 " transform="matrix(0.75,0,0,0.75,0,0)"/>
<path style="fill:none;stroke-width:2;stroke-linecap:butt;stroke-linejoin:miter;stroke:rgb(0%,0%,0%);stroke-opacity:1;stroke-miterlimit:4;" d="M 448.197917 254.598958 L 446.598958 255.302083 L 446.098958 254.901042 " transform="matrix(0.75,0,0,0.75,0,0)"/>
<path style="fill:none;stroke-width:2;stroke-linecap:butt;stroke-linejoin:miter;stroke:rgb(0%,0%,0%);stroke-opacity:1;stroke-miterlimit:4;" d="M 400.401042 261.197917 L 400 261.802083 L 398.401042 261.598958 " transform="matrix(0.75,0,0,0.75,0,0)"/>
<path style="fill:none;stroke-width:2;stroke-linecap:butt;stroke-linejoin:miter;stroke:rgb(0%,0%,0%);stroke-opacity:1;stroke-miterlimit:4;" d="M 368.697917 257.901042 L 367 257.697917 L 366 259 " transform="matrix(0.75,0,0,0.75,0,0)"/>
<path style="fill:none;stroke-width:2;stroke-linecap:butt;stroke-linejoin:miter;stroke:rgb(0%,0%,0%);stroke-opacity:1;stroke-miterlimit:4;" d="M 348 282.901042 L 347 284.197917 L 345.302083 284 " transform="matrix(0.75,0,0,0.75,0,0)"/>
<path style="fill:none;stroke-width:2;stroke-linecap:butt;stroke-linejoin:miter;stroke:rgb(0%,0%,0%);stroke-opacity:1;stroke-miterlimit:4;" d="M 306.197917 335.802083 L 306.802083 337.302083 L 306.401042 337.802083 " transform="matrix(0.75,0,0,0.75,0,0)"/>
<path style="fill:none;stroke-width:2;stroke-linecap:butt;stroke-linejoin:miter;stroke:rgb(0%,0%,0%);stroke-opacity:1;stroke-miterlimit:4;" d="M 230.901042 315.197917 L 230.197917 315.5 L 229.598958 314 " transform="matrix(0.75,0,0,0.75,0,0)"/>
<path style="fill:none;stroke-width:2;stroke-linecap:butt;stroke-linejoin:miter;stroke:rgb(0%,0%,0%);stroke-opacity:1;stroke-miterlimit:4;" d="M 217.901042 286.401042 L 217.302083 284.901042 L 218.802083 284.197917 " transform="matrix(0.75,0,0,0.75,0,0)"/>
<path style="fill:none;stroke-width:2;stroke-linecap:butt;stroke-linejoin:miter;stroke:rgb(0%,0%,0%);stroke-opacity:1;stroke-miterlimit:4;" d="M 181.901042 240.098958 L 181.802083 239.401042 L 180.302083 238.802083 " transform="matrix(0.75,0,0,0.75,0,0)"/>
<path style="fill:none;stroke-width:2;stroke-linecap:butt;stroke-linejoin:miter;stroke:rgb(0%,0%,0%);stroke-opacity:1;stroke-miterlimit:4;" d="M 111.098958 149.197917 L 111 148.5 L 110.401042 148.197917 " transform="matrix(0.75,0,0,0.75,0,0)"/>
<path style="fill:none;stroke-width:2;stroke-linecap:butt;stroke-linejoin:miter;stroke:rgb(0%,0%,0%);stroke-opacity:1;stroke-miterlimit:4;" d="M 300.302083 249.401042 L 301 249.5 L 301.598958 251 " transform="matrix(0.75,0,0,0.75,0,0)"/>
<path style="fill:none;stroke-width:2;stroke-linecap:butt;stroke-linejoin:miter;stroke:rgb(0%,0%,0%);stroke-opacity:1;stroke-miterlimit:4;" d="M 439.802083 209.197917 L 440.098958 208.697917 L 439.5 207.197917 " transform="matrix(0.75,0,0,0.75,0,0)"/>
<path style="fill:none;stroke-width:2;stroke-linecap:butt;stroke-linejoin:miter;stroke:rgb(0%,0%,0%);stroke-opacity:1;stroke-miterlimit:4;" d="M 427.802083 179.598958 L 427.197917 178 L 427.598958 177.5 " transform="matrix(0.75,0,0,0.75,0,0)"/>
<path style=" stroke:none;fill-rule:nonzero;fill:rgb(0%,0%,100%);fill-opacity:1;" d="M 313.5 172.875 L 315.824219 176.625 C 315.976562 176.875 316.175781 177.226562 316.425781 177.675781 C 316.675781 178.125 316.800781 178.351562 316.800781 178.351562 L 316.800781 172.875 L 317.773438 172.875 L 317.773438 179.925781 L 316.800781 179.925781 L 314.324219 175.875 C 314.125 175.523438 313.925781 175.175781 313.726562 174.824219 C 313.523438 174.476562 313.375 174.25 313.273438 174.148438 L 313.273438 179.925781 L 312.375 179.925781 L 312.375 172.875 L 313.5 172.875 "/>
<path style=" stroke:none;fill-rule:nonzero;fill:rgb(0%,0%,100%);fill-opacity:1;" d="M 319.050781 174.148438 L 320.324219 174.148438 L 320.324219 172.875 L 320.851562 172.875 L 320.851562 174.148438 L 322.125 174.148438 L 322.125 174.601562 L 320.851562 174.601562 L 320.851562 175.949219 L 320.324219 175.949219 L 320.324219 174.601562 L 319.050781 174.601562 L 319.050781 174.148438 "/>
<path style=" stroke:none;fill-rule:nonzero;fill:rgb(100%,0%,0%);fill-opacity:1;" d="M 251.625 256.050781 C 251.625 254.949219 251.898438 254.074219 252.449219 253.425781 C 253.050781 252.773438 253.851562 252.449219 254.851562 252.449219 C 255.898438 252.449219 256.726562 252.773438 257.324219 253.425781 C 257.875 254.074219 258.148438 254.949219 258.148438 256.050781 C 258.148438 257.199219 257.851562 258.101562 257.25 258.75 C 256.699219 259.398438 255.898438 259.726562 254.851562 259.726562 C 253.851562 259.726562 253.050781 259.398438 252.449219 258.75 C 251.898438 258.101562 251.625 257.199219 251.625 256.050781 M 254.851562 258.898438 C 255.601562 258.898438 256.175781 258.675781 256.574219 258.226562 C 256.925781 257.726562 257.101562 257 257.101562 256.050781 C 257.101562 255.148438 256.925781 254.449219 256.574219 253.949219 C 256.175781 253.5 255.601562 253.273438 254.851562 253.273438 C 254.148438 253.273438 253.601562 253.5 253.199219 253.949219 C 252.851562 254.449219 252.675781 255.148438 252.675781 256.050781 C 252.675781 257 252.851562 257.726562 253.199219 258.226562 C 253.601562 258.675781 254.148438 258.898438 254.851562 258.898438 "/>
<path style=" stroke:none;fill-rule:nonzero;fill:rgb(100%,0%,0%);fill-opacity:1;" d="M 211.800781 272.925781 C 211.800781 271.773438 212.101562 270.875 212.699219 270.226562 C 213.25 269.625 214.050781 269.324219 215.101562 269.324219 C 216.148438 269.324219 216.949219 269.625 217.5 270.226562 C 218.050781 270.875 218.324219 271.773438 218.324219 272.925781 C 218.324219 274.023438 218.050781 274.925781 217.5 275.625 C 216.898438 276.226562 216.101562 276.523438 215.101562 276.523438 C 214.050781 276.523438 213.25 276.226562 212.699219 275.625 C 212.101562 274.976562 211.800781 274.074219 211.800781 272.925781 M 215.101562 275.773438 C 215.800781 275.773438 216.351562 275.523438 216.75 275.023438 C 217.148438 274.523438 217.351562 273.824219 217.351562 272.925781 C 217.351562 271.976562 217.148438 271.273438 216.75 270.824219 C 216.351562 270.324219 215.800781 270.074219 215.101562 270.074219 C 214.351562 270.074219 213.773438 270.324219 213.375 270.824219 C 213.023438 271.273438 212.851562 271.976562 212.851562 272.925781 C 212.851562 273.875 213.023438 274.574219 213.375 275.023438 C 213.773438 275.523438 214.351562 275.773438 215.101562 275.773438 "/>
<path style=" stroke:none;fill-rule:nonzero;fill:rgb(100%,0%,0%);fill-opacity:1;" d="M 219.300781 270.449219 L 221.773438 270.449219 L 221.773438 270.976562 L 219.300781 270.976562 L 219.300781 270.449219 "/>
<path style=" stroke:none;fill-rule:nonzero;fill:rgb(0%,0%,100%);fill-opacity:1;" d="M 194.101562 223.351562 L 196.425781 227.101562 C 196.574219 227.351562 196.773438 227.699219 197.023438 228.148438 C 197.273438 228.601562 197.398438 228.851562 197.398438 228.898438 L 197.398438 223.351562 L 198.300781 223.351562 L 198.300781 230.476562 L 197.324219 230.476562 L 194.851562 226.351562 C 194.648438 226.050781 194.449219 225.699219 194.25 225.300781 C 194.050781 224.949219 193.925781 224.726562 193.875 224.625 L 193.875 230.476562 L 192.976562 230.476562 L 192.976562 223.351562 L 194.101562 223.351562 "/>
<path style=" stroke:none;fill-rule:nonzero;fill:rgb(100%,0%,0%);fill-opacity:1;" d="M 160.050781 259.800781 C 160.050781 258.648438 160.324219 257.75 160.875 257.101562 C 161.425781 256.5 162.226562 256.199219 163.273438 256.199219 C 164.324219 256.199219 165.125 256.5 165.675781 257.101562 C 166.226562 257.75 166.5 258.648438 166.5 259.800781 C 166.5 260.898438 166.226562 261.773438 165.675781 262.425781 C 165.125 263.074219 164.324219 263.398438 163.273438 263.398438 C 162.226562 263.398438 161.425781 263.074219 160.875 262.425781 C 160.324219 261.824219 160.050781 260.949219 160.050781 259.800781 M 163.273438 262.648438 C 163.976562 262.648438 164.523438 262.398438 164.925781 261.898438 C 165.324219 261.398438 165.523438 260.699219 165.523438 259.800781 C 165.523438 258.851562 165.324219 258.148438 164.925781 257.699219 C 164.523438 257.199219 163.976562 256.949219 163.273438 256.949219 C 162.574219 256.949219 162.023438 257.199219 161.625 257.699219 C 161.226562 258.148438 161.023438 258.851562 161.023438 259.800781 C 161.023438 260.75 161.226562 261.449219 161.625 261.898438 C 162.023438 262.398438 162.574219 262.648438 163.273438 262.648438 "/>
<path style=" stroke:none;fill-rule:nonzero;fill:rgb(0%,0%,100%);fill-opacity:1;" d="M 130.199219 200.699219 L 131.175781 200.699219 L 131.175781 203.699219 L 134.773438 203.699219 L 134.773438 200.699219 L 135.75 200.699219 L 135.75 207.824219 L 134.773438 207.824219 L 134.773438 204.523438 L 131.175781 204.523438 L 131.175781 207.824219 L 130.199219 207.824219 L 130.199219 200.699219 "/>
<path style=" stroke:none;fill-rule:nonzero;fill:rgb(0%,0%,100%);fill-opacity:1;" d="M 138.226562 200.699219 L 140.550781 204.449219 C 140.699219 204.699219 140.898438 205.050781 141.148438 205.5 C 141.398438 205.949219 141.550781 206.199219 141.601562 206.25 L 141.601562 200.699219 L 142.5 200.699219 L 142.5 207.824219 L 141.523438 207.824219 L 139.050781 203.699219 C 138.851562 203.398438 138.648438 203.050781 138.449219 202.648438 C 138.25 202.300781 138.125 202.074219 138.074219 201.976562 L 138.074219 207.824219 L 137.175781 207.824219 L 137.175781 200.699219 L 138.226562 200.699219 "/>
<path style=" stroke:none;fill-rule:nonzero;fill:rgb(100%,0%,0%);fill-opacity:1;" d="M 152.851562 164.25 C 152.851562 163.101562 153.125 162.226562 153.675781 161.625 C 154.226562 160.976562 155.023438 160.648438 156.074219 160.648438 C 157.125 160.648438 157.925781 160.976562 158.476562 161.625 C 159.023438 162.226562 159.300781 163.101562 159.300781 164.25 C 159.300781 165.398438 159.023438 166.300781 158.476562 166.949219 C 157.925781 167.601562 157.125 167.925781 156.074219 167.925781 C 155.023438 167.925781 154.226562 167.601562 153.675781 166.949219 C 153.125 166.300781 152.851562 165.398438 152.851562 164.25 M 156.074219 167.101562 C 156.773438 167.101562 157.324219 166.851562 157.726562 166.351562 C 158.125 165.898438 158.324219 165.199219 158.324219 164.25 C 158.324219 163.300781 158.125 162.601562 157.726562 162.148438 C 157.324219 161.699219 156.773438 161.476562 156.074219 161.476562 C 155.375 161.476562 154.824219 161.699219 154.425781 162.148438 C 154.023438 162.601562 153.824219 163.300781 153.824219 164.25 C 153.824219 165.199219 154.023438 165.898438 154.425781 166.351562 C 154.824219 166.851562 155.375 167.101562 156.074219 167.101562 "/>
<path style=" stroke:none;fill-rule:nonzero;fill:rgb(0%,0%,100%);fill-opacity:1;" d="M 108.300781 141.898438 L 110.550781 145.648438 C 110.699219 145.898438 110.898438 146.25 111.148438 146.699219 C 111.398438 147.148438 111.550781 147.375 111.601562 147.375 L 111.601562 141.898438 L 112.5 141.898438 L 112.5 148.949219 L 111.523438 148.949219 L 109.050781 144.898438 C 108.851562 144.601562 108.648438 144.25 108.449219 143.851562 C 108.25 143.5 108.125 143.273438 108.074219 143.175781 L 108.074219 148.949219 L 107.175781 148.949219 L 107.175781 141.898438 L 108.300781 141.898438 "/>
<path style=" stroke:none;fill-rule:nonzero;fill:rgb(100%,0%,0%);fill-opacity:1;" d="M 83.476562 136.125 C 83.476562 134.976562 83.75 134.074219 84.300781 133.425781 C 84.851562 132.824219 85.648438 132.523438 86.699219 132.523438 C 87.75 132.523438 88.550781 132.824219 89.101562 133.425781 C 89.648438 134.074219 89.925781 134.976562 89.925781 136.125 C 89.925781 137.226562 89.648438 138.101562 89.101562 138.75 C 88.550781 139.398438 87.75 139.726562 86.699219 139.726562 C 85.648438 139.726562 84.851562 139.398438 84.300781 138.75 C 83.75 138.148438 83.476562 137.273438 83.476562 136.125 M 86.699219 138.976562 C 87.398438 138.976562 87.949219 138.726562 88.351562 138.226562 C 88.75 137.726562 88.949219 137.023438 88.949219 136.125 C 88.949219 135.175781 88.75 134.476562 88.351562 134.023438 C 87.949219 133.523438 87.398438 133.273438 86.699219 133.273438 C 86 133.273438 85.449219 133.523438 85.050781 134.023438 C 84.648438 134.476562 84.449219 135.175781 84.449219 136.125 C 84.449219 137.074219 84.648438 137.773438 85.050781 138.226562 C 85.449219 138.726562 86 138.976562 86.699219 138.976562 "/>
<path style=" stroke:none;fill-rule:nonzero;fill:rgb(20%,80%,80%);fill-opacity:1;" d="M 58.050781 98.476562 L 62.25 98.476562 L 62.25 99.226562 L 59.023438 99.226562 L 59.023438 101.398438 L 61.875 101.398438 L 61.875 102.226562 L 59.023438 102.226562 L 59.023438 105.523438 L 58.050781 105.523438 L 58.050781 98.476562 "/>
<path style=" stroke:none;fill-rule:nonzero;fill:rgb(0%,0%,100%);fill-opacity:1;" d="M 92.851562 206.925781 L 95.175781 210.675781 C 95.324219 210.925781 95.523438 211.25 95.773438 211.648438 C 96.023438 212.101562 96.148438 212.351562 96.148438 212.398438 L 96.148438 206.925781 L 97.125 206.925781 L 97.125 213.976562 L 96.148438 213.976562 L 93.675781 209.851562 C 93.476562 209.550781 93.273438 209.226562 93.074219 208.875 C 92.875 208.476562 92.726562 208.226562 92.625 208.125 L 92.625 213.976562 L 91.726562 213.976562 L 91.726562 206.925781 L 92.851562 206.925781 "/>
<path style=" stroke:none;fill-rule:nonzero;fill:rgb(80%,80%,0%);fill-opacity:1;" d="M 68.925781 221.398438 C 69.023438 221.398438 69.175781 221.449219 69.375 221.550781 C 69.574219 221.648438 69.800781 221.726562 70.050781 221.773438 C 70.300781 221.824219 70.550781 221.851562 70.800781 221.851562 C 71.25 221.851562 71.601562 221.75 71.851562 221.550781 C 72.101562 221.300781 72.226562 221 72.226562 220.648438 C 72.226562 220.351562 72.148438 220.125 72 219.976562 C 71.898438 219.824219 71.75 219.699219 71.550781 219.601562 C 71.351562 219.550781 71.074219 219.476562 70.726562 219.375 C 70.324219 219.226562 70 219.101562 69.75 219 C 69.5 218.851562 69.273438 218.648438 69.074219 218.398438 C 68.925781 218.148438 68.851562 217.824219 68.851562 217.425781 C 68.851562 216.824219 69.050781 216.351562 69.449219 216 C 69.851562 215.601562 70.449219 215.398438 71.25 215.398438 C 71.800781 215.398438 72.375 215.523438 72.976562 215.773438 L 72.75 216.601562 C 72.199219 216.351562 71.699219 216.226562 71.25 216.226562 C 70.800781 216.226562 70.449219 216.324219 70.199219 216.523438 C 69.949219 216.726562 69.824219 216.976562 69.824219 217.273438 C 69.824219 217.523438 69.898438 217.726562 70.050781 217.875 C 70.148438 218.023438 70.300781 218.148438 70.5 218.25 C 70.699219 218.351562 70.949219 218.449219 71.25 218.550781 C 71.699219 218.648438 72.050781 218.773438 72.300781 218.925781 C 72.550781 219.074219 72.773438 219.273438 72.976562 219.523438 C 73.125 219.773438 73.199219 220.148438 73.199219 220.648438 C 73.199219 221.300781 73 221.800781 72.601562 222.148438 C 72.148438 222.5 71.550781 222.675781 70.800781 222.675781 C 70.398438 222.675781 70.050781 222.625 69.75 222.523438 C 69.398438 222.425781 69.050781 222.300781 68.699219 222.148438 L 68.925781 221.398438 "/>
<path style=" stroke:none;fill-rule:nonzero;fill:rgb(0%,0%,100%);fill-opacity:1;" d="M 17.023438 196.574219 L 18 196.574219 L 18 199.574219 L 21.601562 199.574219 L 21.601562 196.574219 L 22.574219 196.574219 L 22.574219 203.625 L 21.601562 203.625 L 21.601562 200.324219 L 18 200.324219 L 18 203.625 L 17.023438 203.625 L 17.023438 196.574219 "/>
<path style=" stroke:none;fill-rule:nonzero;fill:rgb(0%,0%,100%);fill-opacity:1;" d="M 23.925781 203.398438 C 24.074219 203.101562 24.273438 202.875 24.523438 202.726562 C 24.824219 202.523438 25.148438 202.425781 25.5 202.425781 C 26 202.425781 26.375 202.550781 26.625 202.800781 C 26.875 203.050781 27 203.398438 27 203.851562 C 27 204.351562 26.824219 204.800781 26.476562 205.199219 C 26.125 205.648438 25.601562 206.125 24.898438 206.625 L 27.074219 206.625 L 27.074219 207.148438 L 23.925781 207.148438 L 23.925781 206.699219 C 24.523438 206.300781 25 205.949219 25.351562 205.648438 C 25.699219 205.351562 25.949219 205.050781 26.101562 204.75 C 26.25 204.5 26.324219 204.226562 26.324219 203.925781 C 26.324219 203.625 26.25 203.398438 26.101562 203.25 C 25.949219 203.050781 25.75 202.949219 25.5 202.949219 C 25.25 202.949219 25.050781 203 24.898438 203.101562 C 24.699219 203.199219 24.550781 203.375 24.449219 203.625 L 23.925781 203.398438 "/>
<path style=" stroke:none;fill-rule:nonzero;fill:rgb(0%,0%,100%);fill-opacity:1;" d="M 29.101562 196.574219 L 31.425781 200.324219 C 31.574219 200.574219 31.773438 200.898438 32.023438 201.300781 C 32.273438 201.75 32.398438 202 32.398438 202.050781 L 32.398438 196.574219 L 33.375 196.574219 L 33.375 203.625 L 32.398438 203.625 L 29.925781 199.5 C 29.726562 199.199219 29.523438 198.875 29.324219 198.523438 C 29.125 198.125 29 197.875 28.949219 197.773438 L 28.949219 203.625 L 27.976562 203.625 L 27.976562 196.574219 L 29.101562 196.574219 "/>
<path style=" stroke:none;fill-rule:nonzero;fill:rgb(0%,0%,100%);fill-opacity:1;" d="M 68.023438 175.050781 L 70.351562 178.800781 C 70.5 179.050781 70.699219 179.398438 70.949219 179.851562 C 71.199219 180.300781 71.324219 180.523438 71.324219 180.523438 L 71.324219 175.050781 L 72.300781 175.050781 L 72.300781 182.101562 L 71.324219 182.101562 L 68.851562 178.050781 C 68.648438 177.699219 68.449219 177.351562 68.25 177 C 68.050781 176.648438 67.925781 176.398438 67.875 176.25 L 67.875 182.101562 L 66.898438 182.101562 L 66.898438 175.050781 L 68.023438 175.050781 "/>
<path style=" stroke:none;fill-rule:nonzero;fill:rgb(80%,80%,0%);fill-opacity:1;" d="M 198.976562 186.449219 C 199.023438 186.449219 199.148438 186.5 199.351562 186.601562 C 199.601562 186.699219 199.851562 186.773438 200.101562 186.824219 C 200.351562 186.875 200.574219 186.898438 200.773438 186.898438 C 201.226562 186.898438 201.574219 186.800781 201.824219 186.601562 C 202.125 186.398438 202.273438 186.101562 202.273438 185.699219 C 202.273438 185.449219 202.199219 185.25 202.050781 185.101562 C 201.898438 184.949219 201.726562 184.824219 201.523438 184.726562 C 201.375 184.625 201.125 184.523438 200.773438 184.425781 C 200.324219 184.324219 199.976562 184.199219 199.726562 184.050781 C 199.476562 183.949219 199.273438 183.773438 199.125 183.523438 C 198.925781 183.273438 198.824219 182.925781 198.824219 182.476562 C 198.824219 181.875 199.023438 181.398438 199.425781 181.050781 C 199.875 180.699219 200.5 180.523438 201.300781 180.523438 C 201.800781 180.523438 202.375 180.648438 203.023438 180.898438 L 202.800781 181.648438 C 202.199219 181.398438 201.699219 181.273438 201.300781 181.273438 C 200.851562 181.273438 200.5 181.375 200.25 181.574219 C 200 181.773438 199.875 182.050781 199.875 182.398438 C 199.875 182.648438 199.925781 182.851562 200.023438 183 C 200.175781 183.148438 200.351562 183.25 200.550781 183.300781 C 200.75 183.398438 201 183.5 201.300781 183.601562 C 201.699219 183.75 202.023438 183.875 202.273438 183.976562 C 202.574219 184.125 202.800781 184.351562 202.949219 184.648438 C 203.148438 184.898438 203.25 185.25 203.25 185.699219 C 203.25 186.351562 203.023438 186.851562 202.574219 187.199219 C 202.125 187.550781 201.550781 187.726562 200.851562 187.726562 C 200.449219 187.726562 200.074219 187.675781 199.726562 187.574219 C 199.425781 187.523438 199.074219 187.398438 198.675781 187.199219 L 198.976562 186.449219 "/>
<path style=" stroke:none;fill-rule:nonzero;fill:rgb(0%,0%,100%);fill-opacity:1;" d="M 333.898438 110.101562 L 336.226562 113.851562 C 336.375 114.101562 336.574219 114.449219 336.824219 114.898438 C 337.023438 115.351562 337.148438 115.574219 337.199219 115.574219 L 337.199219 110.101562 L 338.101562 110.101562 L 338.101562 117.148438 L 337.125 117.148438 L 334.648438 113.101562 C 334.449219 112.75 334.25 112.398438 334.050781 112.050781 C 333.851562 111.699219 333.726562 111.449219 333.675781 111.300781 L 333.675781 117.148438 L 332.773438 117.148438 L 332.773438 110.101562 L 333.898438 110.101562 "/>
<path style=" stroke:none;fill-rule:nonzero;fill:rgb(0%,0%,100%);fill-opacity:1;" d="M 339.449219 110.101562 L 340.425781 110.101562 L 340.425781 113.101562 L 344.023438 113.101562 L 344.023438 110.101562 L 345 110.101562 L 345 117.148438 L 344.023438 117.148438 L 344.023438 113.925781 L 340.425781 113.925781 L 340.425781 117.148438 L 339.449219 117.148438 L 339.449219 110.101562 "/>
<path style=" stroke:none;fill-rule:nonzero;fill:rgb(0%,0%,100%);fill-opacity:1;" d="M 346.351562 116.925781 C 346.5 116.625 346.699219 116.398438 346.949219 116.25 C 347.25 116.050781 347.574219 115.949219 347.925781 115.949219 C 348.425781 115.949219 348.800781 116.074219 349.050781 116.324219 C 349.300781 116.625 349.425781 117 349.425781 117.449219 C 349.425781 117.898438 349.25 118.324219 348.898438 118.726562 C 348.550781 119.175781 348.023438 119.648438 347.324219 120.148438 L 349.5 120.148438 L 349.5 120.675781 L 346.351562 120.675781 L 346.351562 120.226562 C 346.949219 119.824219 347.425781 119.476562 347.773438 119.175781 C 348.125 118.875 348.375 118.574219 348.523438 118.273438 C 348.675781 118.023438 348.75 117.75 348.75 117.449219 C 348.75 117.148438 348.675781 116.925781 348.523438 116.773438 C 348.375 116.574219 348.175781 116.476562 347.925781 116.476562 C 347.675781 116.476562 347.476562 116.523438 347.324219 116.625 C 347.125 116.726562 346.976562 116.898438 346.875 117.148438 L 346.351562 116.925781 "/>
<path style=" stroke:none;fill-rule:nonzero;fill:rgb(100%,0%,0%);fill-opacity:1;" d="M 292.425781 130.5 C 292.425781 129.351562 292.699219 128.449219 293.25 127.800781 C 293.800781 127.199219 294.601562 126.898438 295.648438 126.898438 C 296.699219 126.898438 297.5 127.199219 298.050781 127.800781 C 298.601562 128.449219 298.875 129.351562 298.875 130.5 C 298.875 131.648438 298.601562 132.550781 298.050781 133.199219 C 297.449219 133.800781 296.648438 134.101562 295.648438 134.101562 C 294.601562 134.101562 293.800781 133.800781 293.25 133.199219 C 292.699219 132.550781 292.425781 131.648438 292.425781 130.5 M 295.648438 133.351562 C 296.351562 133.351562 296.898438 133.101562 297.300781 132.601562 C 297.699219 132.148438 297.898438 131.449219 297.898438 130.5 C 297.898438 129.550781 297.699219 128.851562 297.300781 128.398438 C 296.898438 127.898438 296.351562 127.648438 295.648438 127.648438 C 294.898438 127.648438 294.351562 127.898438 294 128.398438 C 293.601562 128.851562 293.398438 129.550781 293.398438 130.5 C 293.398438 131.449219 293.601562 132.148438 294 132.601562 C 294.351562 133.101562 294.898438 133.351562 295.648438 133.351562 "/>
<path style=" stroke:none;fill-rule:nonzero;fill:rgb(0%,0%,0%);fill-opacity:1;" d="M 167.851562 180.675781 L 168.824219 180.675781 L 168.824219 183.675781 L 172.425781 183.675781 L 172.425781 180.675781 L 173.324219 180.675781 L 173.324219 187.800781 L 172.425781 187.800781 L 172.425781 184.5 L 168.824219 184.5 L 168.824219 187.800781 L 167.851562 187.800781 L 167.851562 180.675781 "/>
</g>
</svg>
