<?xml version="1.0" encoding="UTF-8"?>
<svg xmlns="http://www.w3.org/2000/svg" xmlns:xlink="http://www.w3.org/1999/xlink" width="375pt" height="375pt" viewBox="0 0 375 375" version="1.1">
<g id="surface46">
<rect x="0" y="0" width="375" height="375" style="fill:rgb(100%,100%,100%);fill-opacity:1;stroke:none;"/>
<path style="fill:none;stroke-width:2;stroke-linecap:butt;stroke-linejoin:miter;stroke:rgb(0%,0%,0%);stroke-opacity:1;stroke-miterlimit:4;" d="M 332.401042 415.302083 L 337.901042 375.901042 " transform="matrix(0.75,0,0,0.75,0,0)"/>
<path style="fill:none;stroke-width:1;stroke-linecap:butt;stroke-linejoin:miter;stroke:rgb(0%,0%,0%);stroke-opacity:1;stroke-miterlimit:4;" d="M 309.197917 353.901042 L 309.598958 353.5 " transform="matrix(0.75,0,0,0.75,0,0)"/>
<path style="fill:none;stroke-width:1;stroke-linecap:butt;stroke-linejoin:miter;stroke:rgb(0%,0%,0%);stroke-opacity:1;stroke-miterlimit:4;" d="M 311.901042 356.401042 L 312.598958 355.401042 " transform="matrix(0.75,0,0,0.75,0,0)"/>
<path style="fill:none;stroke-width:1;stroke-linecap:butt;stroke-linejoin:miter;stroke:rgb(0%,0%,0%);stroke-opacity:1;stroke-miterlimit:4;" d="M 314.5 358.802083 L 315.598958 357.401042 " transform="matrix(0.75,0,0,0.75,0,0)"/>
<path style="fill:none;stroke-width:1;stroke-linecap:butt;stroke-linejoin:miter;stroke:rgb(0%,0%,0%);stroke-opacity:1;stroke-miterlimit:4;" d="M 317.197917 361.302083 L 318.598958 359.401042 " transform="matrix(0.75,0,0,0.75,0,0)"/>
<path style="fill:none;stroke-width:1;stroke-linecap:butt;stroke-linejoin:miter;stroke:rgb(0%,0%,0%);stroke-opacity:1;stroke-miterlimit:4;" d="M 319.901042 363.697917 L 321.697917 361.401042 " transform="matrix(0.75,0,0,0.75,0,0)"/>
<path style="fill:none;stroke-width:1;stroke-linecap:butt;stroke-linejoin:miter;stroke:rgb(0%,0%,0%);stroke-opacity:1;stroke-miterlimit:4;" d="M 322.5 366.197917 L 324.697917 363.401042 " transform="matrix(0.75,0,0,0.75,0,0)"/>
<path style="fill:none;stroke-width:1;stroke-linecap:butt;stroke-linejoin:miter;stroke:rgb(0%,0%,0%);stroke-opacity:1;stroke-miterlimit:4;" d="M 325.197917 368.598958 L 327.697917 365.401042 " transform="matrix(0.75,0,0,0.75,0,0)"/>
<path style="fill:none;stroke-width:1;stroke-linecap:butt;stroke-linejoin:miter;stroke:rgb(0%,0%,0%);stroke-opacity:1;stroke-miterlimit:4;" d="M 327.901042 371.098958 L 330.802083 367.401042 " transform="matrix(0.75,0,0,0.75,0,0)"/>
<path style="fill:none;stroke-width:1;stroke-linecap:butt;stroke-linejoin:miter;stroke:rgb(0%,0%,0%);stroke-opacity:1;stroke-miterlimit:4;" d="M 330.5 373.5 L 333.802083 369.401042 " transform="matrix(0.75,0,0,0.75,0,0)"/>
<path style="fill:none;stroke-width:1;stroke-linecap:butt;stroke-linejoin:miter;stroke:rgb(0%,0%,0%);stroke-opacity:1;stroke-miterlimit:4;" d="M 333.197917 376 L 336.802083 371.401042 " transform="matrix(0.75,0,0,0.75,0,0)"/>
<path style="fill:none;stroke-width:2;stroke-linecap:butt;stroke-linejoin:miter;stroke:rgb(0%,0%,0%);stroke-opacity:1;stroke-miterlimit:4;" d="M 306.5 351.5 L 313.5 337.197917 " transform="matrix(0.75,0,0,0.75,0,0)"/>
<path style="fill:none;stroke-width:2;stroke-linecap:butt;stroke-linejoin:miter;stroke:rgb(100%,0%,0%);stroke-opacity:1;stroke-miterlimit:4;" d="M 313.5 337.197917 L 320.401042 322.901042 " transform="matrix(0.75,0,0,0.75,0,0)"/>
<path style="fill:none;stroke-width:2;stroke-linecap:butt;stroke-linejoin:miter;stroke:rgb(100%,0%,0%);stroke-opacity:1;stroke-miterlimit:4;" d="M 324.098958 308.697917 L 324.697917 292.401042 " transform="matrix(0.75,0,0,0.75,0,0)"/>
<path style="fill:none;stroke-width:2;stroke-linecap:butt;stroke-linejoin:miter;stroke:rgb(0%,0%,0%);stroke-opacity:1;stroke-miterlimit:4;" d="M 324.697917 292.401042 L 325.197917 276 " transform="matrix(0.75,0,0,0.75,0,0)"/>
<path style="fill:none;stroke-width:2;stroke-linecap:butt;stroke-linejoin:miter;stroke:rgb(0%,0%,0%);stroke-opacity:1;stroke-miterlimit:4;" d="M 325.098958 279 L 341.802083 276 " transform="matrix(0.75,0,0,0.75,0,0)"/>
<path style="fill:none;stroke-width:2;stroke-linecap:butt;stroke-linejoin:miter;stroke:rgb(100%,0%,0%);stroke-opacity:1;stroke-miterlimit:4;" d="M 341.802083 276 L 358.401042 273.098958 " transform="matrix(0.75,0,0,0.75,0,0)"/>
<path style="fill:none;stroke-width:2;stroke-linecap:butt;stroke-linejoin:miter;stroke:rgb(0%,0%,0%);stroke-opacity:1;stroke-miterlimit:4;" d="M 324.098958 273.197917 L 340.697917 270.302083 " transform="matrix(0.75,0,0,0.75,0,0)"/>
<path style="fill:none;stroke-width:2;stroke-linecap:butt;stroke-linejoin:miter;stroke:rgb(100%,0%,0%);stroke-opacity:1;stroke-miterlimit:4;" d="M 340.697917 270.302083 L 357.401042 267.302083 " transform="matrix(0.75,0,0,0.75,0,0)"/>
<path style="fill:none;stroke-width:2;stroke-linecap:butt;stroke-linejoin:miter;stroke:rgb(0%,0%,0%);stroke-opacity:1;stroke-miterlimit:4;" d="M 325.197917 276 L 310.302083 239.197917 " transform="matrix(0.75,0,0,0.75,0,0)"/>
<path style="fill-rule:evenodd;fill:rgb(0%,0%,0%);fill-opacity:1;stroke-width:0.5;stroke-linecap:butt;stroke-linejoin:miter;stroke:rgb(0%,0%,0%);stroke-opacity:1;stroke-miterlimit:4;" d="M 310.302083 239.197917 L 342.901042 224.098958 L 344.901042 229.598958 Z M 310.302083 239.197917 " transform="matrix(0.75,0,0,0.75,0,0)"/>
<path style="fill:none;stroke-width:2;stroke-linecap:butt;stroke-linejoin:miter;stroke:rgb(0%,0%,0%);stroke-opacity:1;stroke-miterlimit:4;" d="M 310.302083 239.197917 L 281.598958 211.598958 " transform="matrix(0.75,0,0,0.75,0,0)"/>
<path style="fill:none;stroke-width:1;stroke-linecap:butt;stroke-linejoin:miter;stroke:rgb(0%,0%,0%);stroke-opacity:1;stroke-miterlimit:4;" d="M 283.697917 209 L 283.098958 208.598958 " transform="matrix(0.75,0,0,0.75,0,0)"/>
<path style="fill:none;stroke-width:1;stroke-linecap:butt;stroke-linejoin:miter;stroke:rgb(0%,0%,0%);stroke-opacity:1;stroke-miterlimit:4;" d="M 285.802083 206.401042 L 284.5 205.598958 " transform="matrix(0.75,0,0,0.75,0,0)"/>
<path style="fill:none;stroke-width:1;stroke-linecap:butt;stroke-linejoin:miter;stroke:rgb(0%,0%,0%);stroke-opacity:1;stroke-miterlimit:4;" d="M 287.802083 203.802083 L 286 202.598958 " transform="matrix(0.75,0,0,0.75,0,0)"/>
<path style="fill:none;stroke-width:1;stroke-linecap:butt;stroke-linejoin:miter;stroke:rgb(0%,0%,0%);stroke-opacity:1;stroke-miterlimit:4;" d="M 289.901042 201.098958 L 287.401042 199.598958 " transform="matrix(0.75,0,0,0.75,0,0)"/>
<path style="fill:none;stroke-width:1;stroke-linecap:butt;stroke-linejoin:miter;stroke:rgb(100%,0%,0%);stroke-opacity:1;stroke-miterlimit:4;" d="M 291.901042 198.5 L 288.802083 196.598958 " transform="matrix(0.75,0,0,0.75,0,0)"/>
<path style="fill:none;stroke-width:1;stroke-linecap:butt;stroke-linejoin:miter;stroke:rgb(100%,0%,0%);stroke-opacity:1;stroke-miterlimit:4;" d="M 294 195.901042 L 290.302083 193.598958 " transform="matrix(0.75,0,0,0.75,0,0)"/>
<path style="fill:none;stroke-width:1;stroke-linecap:butt;stroke-linejoin:miter;stroke:rgb(100%,0%,0%);stroke-opacity:1;stroke-miterlimit:4;" d="M 296 193.302083 L 291.697917 190.598958 " transform="matrix(0.75,0,0,0.75,0,0)"/>
<path style="fill:none;stroke-width:1;stroke-linecap:butt;stroke-linejoin:miter;stroke:rgb(100%,0%,0%);stroke-opacity:1;stroke-miterlimit:4;" d="M 298.098958 190.697917 L 293.098958 187.598958 " transform="matrix(0.75,0,0,0.75,0,0)"/>
<path style="fill-rule:evenodd;fill:rgb(0%,0%,0%);fill-opacity:1;stroke-width:0.5;stroke-linecap:butt;stroke-linejoin:miter;stroke:rgb(0%,0%,0%);stroke-opacity:1;stroke-miterlimit:4;" d="M 342.401042 179.197917 L 326.302083 180.098958 L 326.401042 177.197917 Z M 342.401042 179.197917 " transform="matrix(0.75,0,0,0.75,0,0)"/>
<path style="fill-rule:evenodd;fill:rgb(100%,0%,0%);fill-opacity:1;stroke-width:0.5;stroke-linecap:butt;stroke-linejoin:miter;stroke:rgb(100%,0%,0%);stroke-opacity:1;stroke-miterlimit:4;" d="M 326.302083 180.098958 L 310.5 175.197917 L 310.302083 181 Z M 326.302083 180.098958 " transform="matrix(0.75,0,0,0.75,0,0)"/>
<path style="fill-rule:evenodd;fill:rgb(100%,0%,0%);fill-opacity:1;stroke-width:0.5;stroke-linecap:butt;stroke-linejoin:miter;stroke:rgb(100%,0%,0%);stroke-opacity:1;stroke-miterlimit:4;" d="M 326.302083 180.098958 L 326.401042 177.197917 L 310.5 175.197917 Z M 326.302083 180.098958 " transform="matrix(0.75,0,0,0.75,0,0)"/>
<path style="fill:none;stroke-width:2;stroke-linecap:butt;stroke-linejoin:miter;stroke:rgb(0%,0%,0%);stroke-opacity:1;stroke-miterlimit:4;" d="M 342.401042 179.197917 L 363.401042 145.401042 " transform="matrix(0.75,0,0,0.75,0,0)"/>
<path style="fill:none;stroke-width:2;stroke-linecap:butt;stroke-linejoin:miter;stroke:rgb(0%,0%,0%);stroke-opacity:1;stroke-miterlimit:4;" d="M 363.401042 145.401042 L 403.098958 146.802083 " transform="matrix(0.75,0,0,0.75,0,0)"/>
<path style="fill:none;stroke-width:1;stroke-linecap:butt;stroke-linejoin:miter;stroke:rgb(0%,0%,0%);stroke-opacity:1;stroke-miterlimit:4;" d="M 406.5 145.401042 L 406.598958 145.901042 " transform="matrix(0.75,0,0,0.75,0,0)"/>
<path style="fill:none;stroke-width:1;stroke-linecap:butt;stroke-linejoin:miter;stroke:rgb(0%,0%,0%);stroke-opacity:1;stroke-miterlimit:4;" d="M 409.802083 144 L 410.098958 145 " transform="matrix(0.75,0,0,0.75,0,0)"/>
<path style="fill:none;stroke-width:1;stroke-linecap:butt;stroke-linejoin:miter;stroke:rgb(0%,0%,0%);stroke-opacity:1;stroke-miterlimit:4;" d="M 413.197917 142.598958 L 413.697917 144.197917 " transform="matrix(0.75,0,0,0.75,0,0)"/>
<path style="fill:none;stroke-width:1;stroke-linecap:butt;stroke-linejoin:miter;stroke:rgb(0%,0%,0%);stroke-opacity:1;stroke-miterlimit:4;" d="M 416.5 141.302083 L 417.197917 143.302083 " transform="matrix(0.75,0,0,0.75,0,0)"/>
<path style="fill:none;stroke-width:1;stroke-linecap:butt;stroke-linejoin:miter;stroke:rgb(0%,0%,0%);stroke-opacity:1;stroke-miterlimit:4;" d="M 419.901042 139.901042 L 420.697917 142.401042 " transform="matrix(0.75,0,0,0.75,0,0)"/>
<path style="fill:none;stroke-width:1;stroke-linecap:butt;stroke-linejoin:miter;stroke:rgb(0%,0%,0%);stroke-opacity:1;stroke-miterlimit:4;" d="M 423.197917 138.5 L 424.197917 141.598958 " transform="matrix(0.75,0,0,0.75,0,0)"/>
<path style="fill:none;stroke-width:1;stroke-linecap:butt;stroke-linejoin:miter;stroke:rgb(0%,0%,0%);stroke-opacity:1;stroke-miterlimit:4;" d="M 426.598958 137.098958 L 427.697917 140.697917 " transform="matrix(0.75,0,0,0.75,0,0)"/>
<path style="fill:none;stroke-width:1;stroke-linecap:butt;stroke-linejoin:miter;stroke:rgb(0%,0%,0%);stroke-opacity:1;stroke-miterlimit:4;" d="M 429.901042 135.802083 L 431.197917 139.802083 " transform="matrix(0.75,0,0,0.75,0,0)"/>
<path style="fill:none;stroke-width:1;stroke-linecap:butt;stroke-linejoin:miter;stroke:rgb(0%,0%,0%);stroke-opacity:1;stroke-miterlimit:4;" d="M 433.302083 134.401042 L 434.802083 138.901042 " transform="matrix(0.75,0,0,0.75,0,0)"/>
<path style="fill:none;stroke-width:1;stroke-linecap:butt;stroke-linejoin:miter;stroke:rgb(0%,0%,0%);stroke-opacity:1;stroke-miterlimit:4;" d="M 436.598958 133 L 438.302083 138.098958 " transform="matrix(0.75,0,0,0.75,0,0)"/>
<path style="fill:none;stroke-width:1;stroke-linecap:butt;stroke-linejoin:miter;stroke:rgb(0%,0%,0%);stroke-opacity:1;stroke-miterlimit:4;" d="M 440 131.598958 L 441.802083 137.197917 " transform="matrix(0.75,0,0,0.75,0,0)"/>
<path style="fill:none;stroke-width:2;stroke-linecap:butt;stroke-linejoin:miter;stroke:rgb(0%,0%,0%);stroke-opacity:1;stroke-miterlimit:4;" d="M 403.098958 146.802083 L 400.802083 130.697917 " transform="matrix(0.75,0,0,0.75,0,0)"/>
<path style="fill:none;stroke-width:2;stroke-linecap:butt;stroke-linejoin:miter;stroke:rgb(100%,0%,0%);stroke-opacity:1;stroke-miterlimit:4;" d="M 400.802083 130.697917 L 398.5 114.598958 " transform="matrix(0.75,0,0,0.75,0,0)"/>
<path style="fill:none;stroke-width:2;stroke-linecap:butt;stroke-linejoin:miter;stroke:rgb(100%,0%,0%);stroke-opacity:1;stroke-miterlimit:4;" d="M 404 102.401042 L 416.401042 92.598958 " transform="matrix(0.75,0,0,0.75,0,0)"/>
<path style="fill:none;stroke-width:2;stroke-linecap:butt;stroke-linejoin:miter;stroke:rgb(0%,0%,0%);stroke-opacity:1;stroke-miterlimit:4;" d="M 416.401042 92.598958 L 428.802083 82.901042 " transform="matrix(0.75,0,0,0.75,0,0)"/>
<path style="fill:none;stroke-width:2;stroke-linecap:butt;stroke-linejoin:miter;stroke:rgb(0%,0%,0%);stroke-opacity:1;stroke-miterlimit:4;" d="M 403.098958 146.802083 L 421.802083 181.802083 " transform="matrix(0.75,0,0,0.75,0,0)"/>
<path style="fill-rule:evenodd;fill:rgb(0%,0%,0%);fill-opacity:1;stroke-width:0.5;stroke-linecap:butt;stroke-linejoin:miter;stroke:rgb(0%,0%,0%);stroke-opacity:1;stroke-miterlimit:4;" d="M 421.802083 181.802083 L 437.901042 180.901042 L 437.802083 183.802083 Z M 421.802083 181.802083 " transform="matrix(0.75,0,0,0.75,0,0)"/>
<path style="fill-rule:evenodd;fill:rgb(100%,0%,0%);fill-opacity:1;stroke-width:0.5;stroke-linecap:butt;stroke-linejoin:miter;stroke:rgb(100%,0%,0%);stroke-opacity:1;stroke-miterlimit:4;" d="M 437.901042 180.901042 L 453.697917 185.802083 L 453.901042 180 Z M 437.901042 180.901042 " transform="matrix(0.75,0,0,0.75,0,0)"/>
<path style="fill-rule:evenodd;fill:rgb(100%,0%,0%);fill-opacity:1;stroke-width:0.5;stroke-linecap:butt;stroke-linejoin:miter;stroke:rgb(100%,0%,0%);stroke-opacity:1;stroke-miterlimit:4;" d="M 437.901042 180.901042 L 437.802083 183.802083 L 453.697917 185.802083 Z M 437.901042 180.901042 " transform="matrix(0.75,0,0,0.75,0,0)"/>
<path style="fill:none;stroke-width:2;stroke-linecap:butt;stroke-linejoin:miter;stroke:rgb(0%,0%,0%);stroke-opacity:1;stroke-miterlimit:4;" d="M 421.802083 181.802083 L 400.802083 215.598958 " transform="matrix(0.75,0,0,0.75,0,0)"/>
<path style="fill:none;stroke-width:1;stroke-linecap:butt;stroke-linejoin:miter;stroke:rgb(0%,0%,0%);stroke-opacity:1;stroke-miterlimit:4;" d="M 402.697917 218.598958 L 402.302083 218.901042 " transform="matrix(0.75,0,0,0.75,0,0)"/>
<path style="fill:none;stroke-width:1;stroke-linecap:butt;stroke-linejoin:miter;stroke:rgb(0%,0%,0%);stroke-opacity:1;stroke-miterlimit:4;" d="M 404.697917 221.697917 L 403.697917 222.197917 " transform="matrix(0.75,0,0,0.75,0,0)"/>
<path style="fill:none;stroke-width:1;stroke-linecap:butt;stroke-linejoin:miter;stroke:rgb(0%,0%,0%);stroke-opacity:1;stroke-miterlimit:4;" d="M 406.598958 224.802083 L 405.197917 225.5 " transform="matrix(0.75,0,0,0.75,0,0)"/>
<path style="fill:none;stroke-width:1;stroke-linecap:butt;stroke-linejoin:miter;stroke:rgb(0%,0%,0%);stroke-opacity:1;stroke-miterlimit:4;" d="M 408.598958 227.802083 L 406.697917 228.802083 " transform="matrix(0.75,0,0,0.75,0,0)"/>
<path style="fill:none;stroke-width:1;stroke-linecap:butt;stroke-linejoin:miter;stroke:rgb(0%,0%,0%);stroke-opacity:1;stroke-miterlimit:4;" d="M 410.5 230.901042 L 408.098958 232.098958 " transform="matrix(0.75,0,0,0.75,0,0)"/>
<path style="fill:none;stroke-width:1;stroke-linecap:butt;stroke-linejoin:miter;stroke:rgb(0%,0%,0%);stroke-opacity:1;stroke-miterlimit:4;" d="M 412.401042 234 L 409.598958 235.5 " transform="matrix(0.75,0,0,0.75,0,0)"/>
<path style="fill:none;stroke-width:1;stroke-linecap:butt;stroke-linejoin:miter;stroke:rgb(0%,0%,0%);stroke-opacity:1;stroke-miterlimit:4;" d="M 414.401042 237 L 411.098958 238.802083 " transform="matrix(0.75,0,0,0.75,0,0)"/>
<path style="fill:none;stroke-width:1;stroke-linecap:butt;stroke-linejoin:miter;stroke:rgb(0%,0%,0%);stroke-opacity:1;stroke-miterlimit:4;" d="M 416.302083 240.098958 L 412.5 242.098958 " transform="matrix(0.75,0,0,0.75,0,0)"/>
<path style="fill:none;stroke-width:1;stroke-linecap:butt;stroke-linejoin:miter;stroke:rgb(0%,0%,0%);stroke-opacity:1;stroke-miterlimit:4;" d="M 418.197917 243.098958 L 414 245.401042 " transform="matrix(0.75,0,0,0.75,0,0)"/>
<path style="fill:none;stroke-width:1;stroke-linecap:butt;stroke-linejoin:miter;stroke:rgb(0%,0%,0%);stroke-opacity:1;stroke-miterlimit:4;" d="M 420.197917 246.197917 L 415.5 248.697917 " transform="matrix(0.75,0,0,0.75,0,0)"/>
<path style="fill:none;stroke-width:1;stroke-linecap:butt;stroke-linejoin:miter;stroke:rgb(0%,0%,0%);stroke-opacity:1;stroke-miterlimit:4;" d="M 422.098958 249.302083 L 416.901042 252 " transform="matrix(0.75,0,0,0.75,0,0)"/>
<path style="fill:none;stroke-width:2;stroke-linecap:butt;stroke-linejoin:miter;stroke:rgb(0%,0%,0%);stroke-opacity:1;stroke-miterlimit:4;" d="M 400.802083 215.598958 L 384.197917 215 " transform="matrix(0.75,0,0,0.75,0,0)"/>
<path style="fill:none;stroke-width:2;stroke-linecap:butt;stroke-linejoin:miter;stroke:rgb(100%,0%,0%);stroke-opacity:1;stroke-miterlimit:4;" d="M 384.197917 215 L 367.5 214.5 " transform="matrix(0.75,0,0,0.75,0,0)"/>
<path style="fill:none;stroke-width:2;stroke-linecap:butt;stroke-linejoin:miter;stroke:rgb(0%,0%,0%);stroke-opacity:1;stroke-miterlimit:4;" d="M 281.598958 211.598958 L 244.302083 198.098958 " transform="matrix(0.75,0,0,0.75,0,0)"/>
<path style="fill-rule:evenodd;fill:rgb(0%,0%,0%);fill-opacity:1;stroke-width:0.5;stroke-linecap:butt;stroke-linejoin:miter;stroke:rgb(0%,0%,0%);stroke-opacity:1;stroke-miterlimit:4;" d="M 244.302083 198.098958 L 246.802083 158.302083 L 252.598958 159.098958 Z M 244.302083 198.098958 " transform="matrix(0.75,0,0,0.75,0,0)"/>
<path style="fill:none;stroke-width:2;stroke-linecap:butt;stroke-linejoin:miter;stroke:rgb(0%,0%,0%);stroke-opacity:1;stroke-miterlimit:4;" d="M 244.302083 198.098958 L 204.598958 200.901042 " transform="matrix(0.75,0,0,0.75,0,0)"/>
<path style="fill:none;stroke-width:1;stroke-linecap:butt;stroke-linejoin:miter;stroke:rgb(0%,0%,0%);stroke-opacity:1;stroke-miterlimit:4;" d="M 204 197.5 L 203.302083 197.697917 " transform="matrix(0.75,0,0,0.75,0,0)"/>
<path style="fill:none;stroke-width:1;stroke-linecap:butt;stroke-linejoin:miter;stroke:rgb(0%,0%,0%);stroke-opacity:1;stroke-miterlimit:4;" d="M 203.401042 194.098958 L 202 194.5 " transform="matrix(0.75,0,0,0.75,0,0)"/>
<path style="fill:none;stroke-width:1;stroke-linecap:butt;stroke-linejoin:miter;stroke:rgb(0%,0%,0%);stroke-opacity:1;stroke-miterlimit:4;" d="M 202.802083 190.697917 L 200.697917 191.302083 " transform="matrix(0.75,0,0,0.75,0,0)"/>
<path style="fill:none;stroke-width:1;stroke-linecap:butt;stroke-linejoin:miter;stroke:rgb(0%,0%,0%);stroke-opacity:1;stroke-miterlimit:4;" d="M 202.197917 187.302083 L 199.401042 188.098958 " transform="matrix(0.75,0,0,0.75,0,0)"/>
<path style="fill:none;stroke-width:1;stroke-linecap:butt;stroke-linejoin:miter;stroke:rgb(100%,0%,0%);stroke-opacity:1;stroke-miterlimit:4;" d="M 201.598958 183.901042 L 198.098958 184.901042 " transform="matrix(0.75,0,0,0.75,0,0)"/>
<path style="fill:none;stroke-width:1;stroke-linecap:butt;stroke-linejoin:miter;stroke:rgb(100%,0%,0%);stroke-opacity:1;stroke-miterlimit:4;" d="M 201 180.5 L 196.802083 181.697917 " transform="matrix(0.75,0,0,0.75,0,0)"/>
<path style="fill:none;stroke-width:1;stroke-linecap:butt;stroke-linejoin:miter;stroke:rgb(100%,0%,0%);stroke-opacity:1;stroke-miterlimit:4;" d="M 200.401042 177.098958 L 195.5 178.5 " transform="matrix(0.75,0,0,0.75,0,0)"/>
<path style="fill:none;stroke-width:1;stroke-linecap:butt;stroke-linejoin:miter;stroke:rgb(100%,0%,0%);stroke-opacity:1;stroke-miterlimit:4;" d="M 199.802083 173.697917 L 194.197917 175.302083 " transform="matrix(0.75,0,0,0.75,0,0)"/>
<path style="fill-rule:evenodd;fill:rgb(0%,0%,0%);fill-opacity:1;stroke-width:0.5;stroke-linecap:butt;stroke-linejoin:miter;stroke:rgb(0%,0%,0%);stroke-opacity:1;stroke-miterlimit:4;" d="M 155 153.197917 L 170.802083 155.598958 L 170.098958 158.401042 Z M 155 153.197917 " transform="matrix(0.75,0,0,0.75,0,0)"/>
<path style="fill-rule:evenodd;fill:rgb(100%,0%,0%);fill-opacity:1;stroke-width:0.5;stroke-linecap:butt;stroke-linejoin:miter;stroke:rgb(100%,0%,0%);stroke-opacity:1;stroke-miterlimit:4;" d="M 170.802083 155.598958 L 185.197917 163.598958 L 186.598958 158 Z M 170.802083 155.598958 " transform="matrix(0.75,0,0,0.75,0,0)"/>
<path style="fill-rule:evenodd;fill:rgb(100%,0%,0%);fill-opacity:1;stroke-width:0.5;stroke-linecap:butt;stroke-linejoin:miter;stroke:rgb(100%,0%,0%);stroke-opacity:1;stroke-miterlimit:4;" d="M 170.802083 155.598958 L 170.098958 158.401042 L 185.197917 163.598958 Z M 170.802083 155.598958 " transform="matrix(0.75,0,0,0.75,0,0)"/>
<path style="fill:none;stroke-width:2;stroke-linecap:butt;stroke-linejoin:miter;stroke:rgb(0%,0%,0%);stroke-opacity:1;stroke-miterlimit:4;" d="M 155 153.197917 L 150.5 137.598958 " transform="matrix(0.75,0,0,0.75,0,0)"/>
<path style="fill:none;stroke-width:2;stroke-linecap:butt;stroke-linejoin:miter;stroke:rgb(100%,0%,0%);stroke-opacity:1;stroke-miterlimit:4;" d="M 150.5 137.598958 L 146.098958 122.098958 " transform="matrix(0.75,0,0,0.75,0,0)"/>
<path style="fill:none;stroke-width:2;stroke-linecap:butt;stroke-linejoin:miter;stroke:rgb(100%,0%,0%);stroke-opacity:1;stroke-miterlimit:4;" d="M 137.598958 113.401042 L 121.5 109.401042 " transform="matrix(0.75,0,0,0.75,0,0)"/>
<path style="fill:none;stroke-width:2;stroke-linecap:butt;stroke-linejoin:miter;stroke:rgb(0%,0%,0%);stroke-opacity:1;stroke-miterlimit:4;" d="M 121.5 109.401042 L 105.401042 105.401042 " transform="matrix(0.75,0,0,0.75,0,0)"/>
<path style="fill-rule:evenodd;fill:rgb(0%,0%,0%);fill-opacity:1;stroke-width:0.5;stroke-linecap:butt;stroke-linejoin:miter;stroke:rgb(0%,0%,0%);stroke-opacity:1;stroke-miterlimit:4;" d="M 105.401042 105.401042 L 91.598958 68 L 97.197917 66.401042 Z M 105.401042 105.401042 " transform="matrix(0.75,0,0,0.75,0,0)"/>
<path style="fill:none;stroke-width:2;stroke-linecap:butt;stroke-linejoin:miter;stroke:rgb(0%,0%,0%);stroke-opacity:1;stroke-miterlimit:4;" d="M 105.401042 105.401042 L 77.901042 134 " transform="matrix(0.75,0,0,0.75,0,0)"/>
<path style="fill:none;stroke-width:2;stroke-linecap:butt;stroke-linejoin:miter;stroke:rgb(0%,0%,0%);stroke-opacity:1;stroke-miterlimit:4;" d="M 77.901042 134 L 88.901042 172.197917 " transform="matrix(0.75,0,0,0.75,0,0)"/>
<path style="fill-rule:evenodd;fill:rgb(0%,0%,0%);fill-opacity:1;stroke-width:0.5;stroke-linecap:butt;stroke-linejoin:miter;stroke:rgb(0%,0%,0%);stroke-opacity:1;stroke-miterlimit:4;" d="M 88.901042 172.197917 L 79.598958 184 L 77.5 182 Z M 88.901042 172.197917 " transform="matrix(0.75,0,0,0.75,0,0)"/>
<path style="fill-rule:evenodd;fill:rgb(0%,0%,100%);fill-opacity:1;stroke-width:0.5;stroke-linecap:butt;stroke-linejoin:miter;stroke:rgb(0%,0%,100%);stroke-opacity:1;stroke-miterlimit:4;" d="M 79.598958 184 L 66 191.697917 L 70.302083 195.802083 Z M 79.598958 184 " transform="matrix(0.75,0,0,0.75,0,0)"/>
<path style="fill-rule:evenodd;fill:rgb(0%,0%,100%);fill-opacity:1;stroke-width:0.5;stroke-linecap:butt;stroke-linejoin:miter;stroke:rgb(0%,0%,100%);stroke-opacity:1;stroke-miterlimit:4;" d="M 79.598958 184 L 77.5 182 L 66 191.697917 Z M 79.598958 184 " transform="matrix(0.75,0,0,0.75,0,0)"/>
<path style="fill:none;stroke-width:2;stroke-linecap:butt;stroke-linejoin:miter;stroke:rgb(0%,0%,100%);stroke-opacity:1;stroke-miterlimit:4;" d="M 55.802083 199.5 L 39.197917 195.401042 " transform="matrix(0.75,0,0,0.75,0,0)"/>
<path style="fill:none;stroke-width:2;stroke-linecap:butt;stroke-linejoin:miter;stroke:rgb(0%,0%,0%);stroke-opacity:1;stroke-miterlimit:4;" d="M 39.197917 195.401042 L 22.697917 191.302083 " transform="matrix(0.75,0,0,0.75,0,0)"/>
<path style="fill:none;stroke-width:2;stroke-linecap:butt;stroke-linejoin:miter;stroke:rgb(0%,0%,100%);stroke-opacity:1;stroke-miterlimit:4;" d="M 63.302083 207.802083 L 67.802083 223.401042 " transform="matrix(0.75,0,0,0.75,0,0)"/>
<path style="fill:none;stroke-width:2;stroke-linecap:butt;stroke-linejoin:miter;stroke:rgb(0%,0%,0%);stroke-opacity:1;stroke-miterlimit:4;" d="M 67.802083 223.401042 L 72.302083 239.098958 " transform="matrix(0.75,0,0,0.75,0,0)"/>
<path style="fill:none;stroke-width:2;stroke-linecap:butt;stroke-linejoin:miter;stroke:rgb(0%,0%,0%);stroke-opacity:1;stroke-miterlimit:4;" d="M 88.901042 172.197917 L 127.5 181.802083 " transform="matrix(0.75,0,0,0.75,0,0)"/>
<path style="fill:none;stroke-width:1;stroke-linecap:butt;stroke-linejoin:miter;stroke:rgb(0%,0%,0%);stroke-opacity:1;stroke-miterlimit:4;" d="M 128.697917 184.802083 L 127.197917 185 " transform="matrix(0.75,0,0,0.75,0,0)"/>
<path style="fill:none;stroke-width:1;stroke-linecap:butt;stroke-linejoin:miter;stroke:rgb(0%,0%,0%);stroke-opacity:1;stroke-miterlimit:4;" d="M 129.901042 187.901042 L 127 188.302083 " transform="matrix(0.75,0,0,0.75,0,0)"/>
<path style="fill:none;stroke-width:1;stroke-linecap:butt;stroke-linejoin:miter;stroke:rgb(100%,0%,0%);stroke-opacity:1;stroke-miterlimit:4;" d="M 131.098958 190.901042 L 126.802083 191.598958 " transform="matrix(0.75,0,0,0.75,0,0)"/>
<path style="fill:none;stroke-width:1;stroke-linecap:butt;stroke-linejoin:miter;stroke:rgb(100%,0%,0%);stroke-opacity:1;stroke-miterlimit:4;" d="M 132.401042 193.901042 L 126.598958 194.802083 " transform="matrix(0.75,0,0,0.75,0,0)"/>
<path style="fill:none;stroke-width:2;stroke-linecap:butt;stroke-linejoin:miter;stroke:rgb(0%,0%,0%);stroke-opacity:1;stroke-miterlimit:4;" d="M 204.598958 200.901042 L 169.598958 219.598958 " transform="matrix(0.75,0,0,0.75,0,0)"/>
<path style="fill:none;stroke-width:1;stroke-linecap:butt;stroke-linejoin:miter;stroke:rgb(0%,0%,0%);stroke-opacity:1;stroke-miterlimit:4;" d="M 166 219.5 L 166.197917 218.598958 " transform="matrix(0.75,0,0,0.75,0,0)"/>
<path style="fill:none;stroke-width:1;stroke-linecap:butt;stroke-linejoin:miter;stroke:rgb(0%,0%,0%);stroke-opacity:1;stroke-miterlimit:4;" d="M 162.401042 219.5 L 162.697917 217.598958 " transform="matrix(0.75,0,0,0.75,0,0)"/>
<path style="fill:none;stroke-width:1;stroke-linecap:butt;stroke-linejoin:miter;stroke:rgb(0%,0%,0%);stroke-opacity:1;stroke-miterlimit:4;" d="M 158.901042 219.401042 L 159.302083 216.5 " transform="matrix(0.75,0,0,0.75,0,0)"/>
<path style="fill:none;stroke-width:1;stroke-linecap:butt;stroke-linejoin:miter;stroke:rgb(0%,0%,0%);stroke-opacity:1;stroke-miterlimit:4;" d="M 155.302083 219.401042 L 155.901042 215.5 " transform="matrix(0.75,0,0,0.75,0,0)"/>
<path style="fill:none;stroke-width:1;stroke-linecap:butt;stroke-linejoin:miter;stroke:rgb(0%,0%,0%);stroke-opacity:1;stroke-miterlimit:4;" d="M 151.802083 219.302083 L 152.5 214.5 " transform="matrix(0.75,0,0,0.75,0,0)"/>
<path style="fill:none;stroke-width:1;stroke-linecap:butt;stroke-linejoin:miter;stroke:rgb(0%,0%,0%);stroke-opacity:1;stroke-miterlimit:4;" d="M 148.197917 219.197917 L 149.098958 213.5 " transform="matrix(0.75,0,0,0.75,0,0)"/>
<path style="fill:none;stroke-width:2;stroke-linecap:butt;stroke-linejoin:miter;stroke:rgb(0%,0%,0%);stroke-opacity:1;stroke-miterlimit:4;" d="M 169.598958 219.598958 L 167.802083 203.401042 " transform="matrix(0.75,0,0,0.75,0,0)"/>
<path style="fill:none;stroke-width:2;stroke-linecap:butt;stroke-linejoin:miter;stroke:rgb(100%,0%,0%);stroke-opacity:1;stroke-miterlimit:4;" d="M 167.802083 203.401042 L 166.098958 187.197917 " transform="matrix(0.75,0,0,0.75,0,0)"/>
<path style="fill:none;stroke-width:2;stroke-linecap:butt;stroke-linejoin:miter;stroke:rgb(0%,0%,0%);stroke-opacity:1;stroke-miterlimit:4;" d="M 169.598958 219.598958 L 145.098958 251 " transform="matrix(0.75,0,0,0.75,0,0)"/>
<path style="fill:none;stroke-width:2;stroke-linecap:butt;stroke-linejoin:miter;stroke:rgb(0%,0%,0%);stroke-opacity:1;stroke-miterlimit:4;" d="M 145.098958 251 L 135.598958 289.598958 " transform="matrix(0.75,0,0,0.75,0,0)"/>
<path style="fill:none;stroke-width:1;stroke-linecap:butt;stroke-linejoin:miter;stroke:rgb(0%,0%,0%);stroke-opacity:1;stroke-miterlimit:4;" d="M 132 289.697917 L 132 289.197917 " transform="matrix(0.75,0,0,0.75,0,0)"/>
<path style="fill:none;stroke-width:1;stroke-linecap:butt;stroke-linejoin:miter;stroke:rgb(0%,0%,0%);stroke-opacity:1;stroke-miterlimit:4;" d="M 128.302083 289.802083 L 128.401042 288.802083 " transform="matrix(0.75,0,0,0.75,0,0)"/>
<path style="fill:none;stroke-width:1;stroke-linecap:butt;stroke-linejoin:miter;stroke:rgb(0%,0%,0%);stroke-opacity:1;stroke-miterlimit:4;" d="M 124.697917 290 L 124.802083 288.401042 " transform="matrix(0.75,0,0,0.75,0,0)"/>
<path style="fill:none;stroke-width:1;stroke-linecap:butt;stroke-linejoin:miter;stroke:rgb(0%,0%,0%);stroke-opacity:1;stroke-miterlimit:4;" d="M 121.098958 290.098958 L 121.197917 288 " transform="matrix(0.75,0,0,0.75,0,0)"/>
<path style="fill:none;stroke-width:1;stroke-linecap:butt;stroke-linejoin:miter;stroke:rgb(0%,0%,0%);stroke-opacity:1;stroke-miterlimit:4;" d="M 117.5 290.302083 L 117.598958 287.598958 " transform="matrix(0.75,0,0,0.75,0,0)"/>
<path style="fill:none;stroke-width:1;stroke-linecap:butt;stroke-linejoin:miter;stroke:rgb(0%,0%,0%);stroke-opacity:1;stroke-miterlimit:4;" d="M 113.901042 290.401042 L 114 287.197917 " transform="matrix(0.75,0,0,0.75,0,0)"/>
<path style="fill:none;stroke-width:1;stroke-linecap:butt;stroke-linejoin:miter;stroke:rgb(0%,0%,0%);stroke-opacity:1;stroke-miterlimit:4;" d="M 110.197917 290.598958 L 110.401042 286.802083 " transform="matrix(0.75,0,0,0.75,0,0)"/>
<path style="fill:none;stroke-width:1;stroke-linecap:butt;stroke-linejoin:miter;stroke:rgb(0%,0%,0%);stroke-opacity:1;stroke-miterlimit:4;" d="M 106.598958 290.697917 L 106.802083 286.5 " transform="matrix(0.75,0,0,0.75,0,0)"/>
<path style="fill:none;stroke-width:1;stroke-linecap:butt;stroke-linejoin:miter;stroke:rgb(0%,0%,0%);stroke-opacity:1;stroke-miterlimit:4;" d="M 103 290.901042 L 103.197917 286.098958 " transform="matrix(0.75,0,0,0.75,0,0)"/>
<path style="fill:none;stroke-width:1;stroke-linecap:butt;stroke-linejoin:miter;stroke:rgb(0%,0%,0%);stroke-opacity:1;stroke-miterlimit:4;" d="M 99.401042 291 L 99.598958 285.697917 " transform="matrix(0.75,0,0,0.75,0,0)"/>
<path style="fill:none;stroke-width:1;stroke-linecap:butt;stroke-linejoin:miter;stroke:rgb(0%,0%,0%);stroke-opacity:1;stroke-miterlimit:4;" d="M 95.802083 291.098958 L 95.901042 285.302083 " transform="matrix(0.75,0,0,0.75,0,0)"/>
<path style="fill:none;stroke-width:2;stroke-linecap:butt;stroke-linejoin:miter;stroke:rgb(0%,0%,0%);stroke-opacity:1;stroke-miterlimit:4;" d="M 135.598958 289.598958 L 142.5 328.697917 " transform="matrix(0.75,0,0,0.75,0,0)"/>
<path style="fill:none;stroke-width:2;stroke-linecap:butt;stroke-linejoin:miter;stroke:rgb(0%,0%,0%);stroke-opacity:1;stroke-miterlimit:4;" d="M 142.5 328.697917 L 151.302083 341.697917 " transform="matrix(0.75,0,0,0.75,0,0)"/>
<path style="fill:none;stroke-width:2;stroke-linecap:butt;stroke-linejoin:miter;stroke:rgb(0%,0%,100%);stroke-opacity:1;stroke-miterlimit:4;" d="M 151.302083 341.697917 L 160.098958 354.697917 " transform="matrix(0.75,0,0,0.75,0,0)"/>
<path style="fill:none;stroke-width:2;stroke-linecap:butt;stroke-linejoin:miter;stroke:rgb(0%,0%,100%);stroke-opacity:1;stroke-miterlimit:4;" d="M 159.302083 367.401042 L 148.302083 378.802083 " transform="matrix(0.75,0,0,0.75,0,0)"/>
<path style="fill:none;stroke-width:2;stroke-linecap:butt;stroke-linejoin:miter;stroke:rgb(0%,0%,0%);stroke-opacity:1;stroke-miterlimit:4;" d="M 148.302083 378.802083 L 137.197917 390.197917 " transform="matrix(0.75,0,0,0.75,0,0)"/>
<path style="fill:none;stroke-width:2;stroke-linecap:butt;stroke-linejoin:miter;stroke:rgb(0%,0%,100%);stroke-opacity:1;stroke-miterlimit:4;" d="M 170.401042 365.098958 L 184.5 373.802083 " transform="matrix(0.75,0,0,0.75,0,0)"/>
<path style="fill:none;stroke-width:2;stroke-linecap:butt;stroke-linejoin:miter;stroke:rgb(0%,0%,0%);stroke-opacity:1;stroke-miterlimit:4;" d="M 184.5 373.802083 L 198.598958 382.598958 " transform="matrix(0.75,0,0,0.75,0,0)"/>
<path style="fill-rule:evenodd;fill:rgb(0%,0%,0%);fill-opacity:1;stroke-width:0.5;stroke-linecap:butt;stroke-linejoin:miter;stroke:rgb(0%,0%,0%);stroke-opacity:1;stroke-miterlimit:4;" d="M 198.598958 382.598958 L 187.802083 421 L 182.302083 419 Z M 198.598958 382.598958 " transform="matrix(0.75,0,0,0.75,0,0)"/>
<path style="fill:none;stroke-width:2;stroke-linecap:butt;stroke-linejoin:miter;stroke:rgb(0%,0%,0%);stroke-opacity:1;stroke-miterlimit:4;" d="M 198.598958 382.598958 L 237.901042 388.098958 " transform="matrix(0.75,0,0,0.75,0,0)"/>
<path style="fill:none;stroke-width:1;stroke-linecap:butt;stroke-linejoin:miter;stroke:rgb(0%,0%,0%);stroke-opacity:1;stroke-miterlimit:4;" d="M 238.5 391.5 L 237.802083 391.598958 " transform="matrix(0.75,0,0,0.75,0,0)"/>
<path style="fill:none;stroke-width:1;stroke-linecap:butt;stroke-linejoin:miter;stroke:rgb(0%,0%,0%);stroke-opacity:1;stroke-miterlimit:4;" d="M 239.098958 395 L 237.802083 395.098958 " transform="matrix(0.75,0,0,0.75,0,0)"/>
<path style="fill:none;stroke-width:1;stroke-linecap:butt;stroke-linejoin:miter;stroke:rgb(0%,0%,0%);stroke-opacity:1;stroke-miterlimit:4;" d="M 239.598958 398.5 L 237.697917 398.598958 " transform="matrix(0.75,0,0,0.75,0,0)"/>
<path style="fill:none;stroke-width:1;stroke-linecap:butt;stroke-linejoin:miter;stroke:rgb(0%,0%,0%);stroke-opacity:1;stroke-miterlimit:4;" d="M 240.197917 401.901042 L 237.598958 402.098958 " transform="matrix(0.75,0,0,0.75,0,0)"/>
<path style="fill:none;stroke-width:1;stroke-linecap:butt;stroke-linejoin:miter;stroke:rgb(100%,0%,0%);stroke-opacity:1;stroke-miterlimit:4;" d="M 240.802083 405.401042 L 237.598958 405.598958 " transform="matrix(0.75,0,0,0.75,0,0)"/>
<path style="fill:none;stroke-width:1;stroke-linecap:butt;stroke-linejoin:miter;stroke:rgb(100%,0%,0%);stroke-opacity:1;stroke-miterlimit:4;" d="M 241.401042 408.901042 L 237.5 409.098958 " transform="matrix(0.75,0,0,0.75,0,0)"/>
<path style="fill:none;stroke-width:1;stroke-linecap:butt;stroke-linejoin:miter;stroke:rgb(100%,0%,0%);stroke-opacity:1;stroke-miterlimit:4;" d="M 241.901042 412.302083 L 237.401042 412.697917 " transform="matrix(0.75,0,0,0.75,0,0)"/>
<path style="fill:none;stroke-width:1;stroke-linecap:butt;stroke-linejoin:miter;stroke:rgb(100%,0%,0%);stroke-opacity:1;stroke-miterlimit:4;" d="M 242.5 415.802083 L 237.302083 416.197917 " transform="matrix(0.75,0,0,0.75,0,0)"/>
<path style="fill:none;stroke-width:1;stroke-linecap:butt;stroke-linejoin:miter;stroke:rgb(100%,0%,0%);stroke-opacity:1;stroke-miterlimit:4;" d="M 243.098958 419.302083 L 237.302083 419.697917 " transform="matrix(0.75,0,0,0.75,0,0)"/>
<path style="fill:none;stroke-width:2;stroke-linecap:butt;stroke-linejoin:miter;stroke:rgb(0%,0%,0%);stroke-opacity:1;stroke-miterlimit:4;" d="M 237.901042 388.098958 L 276.098958 377.098958 " transform="matrix(0.75,0,0,0.75,0,0)"/>
<path style="fill:none;stroke-width:1;stroke-linecap:butt;stroke-linejoin:miter;stroke:rgb(0%,0%,0%);stroke-opacity:1;stroke-miterlimit:4;" d="M 279.401042 378.5 L 279.197917 379 " transform="matrix(0.75,0,0,0.75,0,0)"/>
<path style="fill:none;stroke-width:1;stroke-linecap:butt;stroke-linejoin:miter;stroke:rgb(0%,0%,0%);stroke-opacity:1;stroke-miterlimit:4;" d="M 282.697917 380 L 282.302083 380.901042 " transform="matrix(0.75,0,0,0.75,0,0)"/>
<path style="fill:none;stroke-width:1;stroke-linecap:butt;stroke-linejoin:miter;stroke:rgb(0%,0%,0%);stroke-opacity:1;stroke-miterlimit:4;" d="M 286.098958 381.401042 L 285.302083 382.802083 " transform="matrix(0.75,0,0,0.75,0,0)"/>
<path style="fill:none;stroke-width:1;stroke-linecap:butt;stroke-linejoin:miter;stroke:rgb(0%,0%,0%);stroke-opacity:1;stroke-miterlimit:4;" d="M 289.401042 382.901042 L 288.401042 384.802083 " transform="matrix(0.75,0,0,0.75,0,0)"/>
<path style="fill:none;stroke-width:1;stroke-linecap:butt;stroke-linejoin:miter;stroke:rgb(0%,0%,0%);stroke-opacity:1;stroke-miterlimit:4;" d="M 292.697917 384.401042 L 291.5 386.697917 " transform="matrix(0.75,0,0,0.75,0,0)"/>
<path style="fill:none;stroke-width:1;stroke-linecap:butt;stroke-linejoin:miter;stroke:rgb(0%,0%,0%);stroke-opacity:1;stroke-miterlimit:4;" d="M 296 385.802083 L 294.5 388.598958 " transform="matrix(0.75,0,0,0.75,0,0)"/>
<path style="fill:none;stroke-width:1;stroke-linecap:butt;stroke-linejoin:miter;stroke:rgb(0%,0%,0%);stroke-opacity:1;stroke-miterlimit:4;" d="M 299.302083 387.302083 L 297.598958 390.598958 " transform="matrix(0.75,0,0,0.75,0,0)"/>
<path style="fill:none;stroke-width:1;stroke-linecap:butt;stroke-linejoin:miter;stroke:rgb(0%,0%,0%);stroke-opacity:1;stroke-miterlimit:4;" d="M 302.697917 388.697917 L 300.697917 392.5 " transform="matrix(0.75,0,0,0.75,0,0)"/>
<path style="fill:none;stroke-width:1;stroke-linecap:butt;stroke-linejoin:miter;stroke:rgb(0%,0%,0%);stroke-opacity:1;stroke-miterlimit:4;" d="M 306 390.197917 L 303.697917 394.401042 " transform="matrix(0.75,0,0,0.75,0,0)"/>
<path style="fill:none;stroke-width:1;stroke-linecap:butt;stroke-linejoin:miter;stroke:rgb(0%,0%,0%);stroke-opacity:1;stroke-miterlimit:4;" d="M 309.302083 391.598958 L 306.802083 396.302083 " transform="matrix(0.75,0,0,0.75,0,0)"/>
<path style="fill:none;stroke-width:1;stroke-linecap:butt;stroke-linejoin:miter;stroke:rgb(0%,0%,0%);stroke-opacity:1;stroke-miterlimit:4;" d="M 312.598958 393.098958 L 309.901042 398.302083 " transform="matrix(0.75,0,0,0.75,0,0)"/>
<path style="fill:none;stroke-width:2;stroke-linecap:butt;stroke-linejoin:miter;stroke:rgb(0%,0%,0%);stroke-opacity:1;stroke-miterlimit:4;" d="M 276.098958 377.098958 L 274.401042 393.302083 " transform="matrix(0.75,0,0,0.75,0,0)"/>
<path style="fill:none;stroke-width:2;stroke-linecap:butt;stroke-linejoin:miter;stroke:rgb(100%,0%,0%);stroke-opacity:1;stroke-miterlimit:4;" d="M 274.401042 393.302083 L 272.697917 409.598958 " transform="matrix(0.75,0,0,0.75,0,0)"/>
<path style="fill:none;stroke-width:2;stroke-linecap:butt;stroke-linejoin:miter;stroke:rgb(0%,0%,0%);stroke-opacity:1;stroke-miterlimit:4;" d="M 276.098958 377.098958 L 306.5 351.5 " transform="matrix(0.75,0,0,0.75,0,0)"/>
<path style="fill:none;stroke-width:2;stroke-linecap:butt;stroke-linejoin:miter;stroke:rgb(100%,0%,0%);stroke-opacity:1;stroke-miterlimit:4;" d="M 357.401042 207.302083 L 349.901042 193.197917 " transform="matrix(0.75,0,0,0.75,0,0)"/>
<path style="fill:none;stroke-width:2;stroke-linecap:butt;stroke-linejoin:miter;stroke:rgb(0%,0%,0%);stroke-opacity:1;stroke-miterlimit:4;" d="M 349.901042 193.197917 L 342.401042 179.197917 " transform="matrix(0.75,0,0,0.75,0,0)"/>
<path style="fill:none;stroke-width:2;stroke-linecap:butt;stroke-linejoin:miter;stroke:rgb(0%,0%,0%);stroke-opacity:1;stroke-miterlimit:4;" d="M 127.5 181.802083 L 155 153.197917 " transform="matrix(0.75,0,0,0.75,0,0)"/>
<path style="fill:none;stroke-width:2;stroke-linecap:butt;stroke-linejoin:miter;stroke:rgb(0%,0%,0%);stroke-opacity:1;stroke-miterlimit:4;" d="M 306.901042 350.802083 L 306.5 351.5 L 305 352.802083 " transform="matrix(0.75,0,0,0.75,0,0)"/>
<path style="fill:none;stroke-width:2;stroke-linecap:butt;stroke-linejoin:miter;stroke:rgb(0%,0%,0%);stroke-opacity:1;stroke-miterlimit:4;" d="M 325.197917 276.802083 L 325.197917 276 L 324.5 274.197917 " transform="matrix(0.75,0,0,0.75,0,0)"/>
<path style="fill:none;stroke-width:2;stroke-linecap:butt;stroke-linejoin:miter;stroke:rgb(0%,0%,0%);stroke-opacity:1;stroke-miterlimit:4;" d="M 311 241 L 310.302083 239.197917 L 308.802083 237.802083 " transform="matrix(0.75,0,0,0.75,0,0)"/>
<path style="fill:none;stroke-width:2;stroke-linecap:butt;stroke-linejoin:miter;stroke:rgb(0%,0%,0%);stroke-opacity:1;stroke-miterlimit:4;" d="M 283.098958 213 L 281.598958 211.598958 L 279.802083 210.901042 " transform="matrix(0.75,0,0,0.75,0,0)"/>
<path style="fill:none;stroke-width:2;stroke-linecap:butt;stroke-linejoin:miter;stroke:rgb(0%,0%,0%);stroke-opacity:1;stroke-miterlimit:4;" d="M 343.401042 177.5 L 342.401042 179.197917 L 342.697917 179.901042 " transform="matrix(0.75,0,0,0.75,0,0)"/>
<path style="fill:none;stroke-width:2;stroke-linecap:butt;stroke-linejoin:miter;stroke:rgb(0%,0%,0%);stroke-opacity:1;stroke-miterlimit:4;" d="M 362.302083 147.098958 L 363.401042 145.401042 L 365.401042 145.5 " transform="matrix(0.75,0,0,0.75,0,0)"/>
<path style="fill:none;stroke-width:2;stroke-linecap:butt;stroke-linejoin:miter;stroke:rgb(0%,0%,0%);stroke-opacity:1;stroke-miterlimit:4;" d="M 420.901042 180.098958 L 421.802083 181.802083 L 420.802083 183.5 " transform="matrix(0.75,0,0,0.75,0,0)"/>
<path style="fill:none;stroke-width:2;stroke-linecap:butt;stroke-linejoin:miter;stroke:rgb(0%,0%,0%);stroke-opacity:1;stroke-miterlimit:4;" d="M 401.901042 213.901042 L 400.802083 215.598958 L 400 215.5 " transform="matrix(0.75,0,0,0.75,0,0)"/>
<path style="fill:none;stroke-width:2;stroke-linecap:butt;stroke-linejoin:miter;stroke:rgb(0%,0%,0%);stroke-opacity:1;stroke-miterlimit:4;" d="M 246.098958 198.697917 L 244.302083 198.098958 L 242.302083 198.197917 " transform="matrix(0.75,0,0,0.75,0,0)"/>
<path style="fill:none;stroke-width:2;stroke-linecap:butt;stroke-linejoin:miter;stroke:rgb(0%,0%,0%);stroke-opacity:1;stroke-miterlimit:4;" d="M 206.598958 200.802083 L 204.598958 200.901042 L 202.901042 201.802083 " transform="matrix(0.75,0,0,0.75,0,0)"/>
<path style="fill:none;stroke-width:2;stroke-linecap:butt;stroke-linejoin:miter;stroke:rgb(0%,0%,0%);stroke-opacity:1;stroke-miterlimit:4;" d="M 154.802083 152.401042 L 155 153.197917 L 153.598958 154.598958 " transform="matrix(0.75,0,0,0.75,0,0)"/>
<path style="fill:none;stroke-width:2;stroke-linecap:butt;stroke-linejoin:miter;stroke:rgb(0%,0%,0%);stroke-opacity:1;stroke-miterlimit:4;" d="M 106.197917 105.598958 L 105.401042 105.401042 L 104 106.802083 " transform="matrix(0.75,0,0,0.75,0,0)"/>
<path style="fill:none;stroke-width:2;stroke-linecap:butt;stroke-linejoin:miter;stroke:rgb(0%,0%,0%);stroke-opacity:1;stroke-miterlimit:4;" d="M 79.197917 132.598958 L 77.901042 134 L 78.401042 135.901042 " transform="matrix(0.75,0,0,0.75,0,0)"/>
<path style="fill:none;stroke-width:2;stroke-linecap:butt;stroke-linejoin:miter;stroke:rgb(0%,0%,0%);stroke-opacity:1;stroke-miterlimit:4;" d="M 88.302083 170.302083 L 88.901042 172.197917 L 90.802083 172.697917 " transform="matrix(0.75,0,0,0.75,0,0)"/>
<path style="fill:none;stroke-width:2;stroke-linecap:butt;stroke-linejoin:miter;stroke:rgb(0%,0%,0%);stroke-opacity:1;stroke-miterlimit:4;" d="M 125.5 181.302083 L 127.5 181.802083 L 128.802083 180.401042 " transform="matrix(0.75,0,0,0.75,0,0)"/>
<path style="fill:none;stroke-width:2;stroke-linecap:butt;stroke-linejoin:miter;stroke:rgb(0%,0%,0%);stroke-opacity:1;stroke-miterlimit:4;" d="M 146.401042 249.401042 L 145.098958 251 L 144.697917 252.901042 " transform="matrix(0.75,0,0,0.75,0,0)"/>
<path style="fill:none;stroke-width:2;stroke-linecap:butt;stroke-linejoin:miter;stroke:rgb(0%,0%,0%);stroke-opacity:1;stroke-miterlimit:4;" d="M 136.098958 287.598958 L 135.598958 289.598958 L 135.901042 291.5 " transform="matrix(0.75,0,0,0.75,0,0)"/>
<path style="fill:none;stroke-width:2;stroke-linecap:butt;stroke-linejoin:miter;stroke:rgb(0%,0%,0%);stroke-opacity:1;stroke-miterlimit:4;" d="M 142.197917 326.697917 L 142.5 328.697917 L 143 329.302083 " transform="matrix(0.75,0,0,0.75,0,0)"/>
<path style="fill:none;stroke-width:2;stroke-linecap:butt;stroke-linejoin:miter;stroke:rgb(0%,0%,0%);stroke-opacity:1;stroke-miterlimit:4;" d="M 197.901042 382.197917 L 198.598958 382.598958 L 200.5 382.901042 " transform="matrix(0.75,0,0,0.75,0,0)"/>
<path style="fill:none;stroke-width:2;stroke-linecap:butt;stroke-linejoin:miter;stroke:rgb(0%,0%,0%);stroke-opacity:1;stroke-miterlimit:4;" d="M 236 387.802083 L 237.901042 388.098958 L 239.802083 387.5 " transform="matrix(0.75,0,0,0.75,0,0)"/>
<path style=" stroke:none;fill-rule:nonzero;fill:rgb(100%,0%,0%);fill-opacity:1;" d="M 239.023438 236.851562 C 239.023438 235.449219 239.375 234.375 240.074219 233.625 C 240.726562 232.875 241.675781 232.5 242.925781 232.5 C 244.175781 232.5 245.125 232.875 245.773438 233.625 C 246.476562 234.375 246.824219 235.449219 246.824219 236.851562 C 246.824219 238.199219 246.476562 239.25 245.773438 240 C 245.125 240.800781 244.175781 241.199219 242.925781 241.199219 C 241.675781 241.199219 240.726562 240.800781 240.074219 240 C 239.375 239.25 239.023438 238.199219 239.023438 236.851562 M 242.925781 240.226562 C 243.773438 240.226562 244.425781 239.949219 244.875 239.398438 C 245.375 238.800781 245.625 237.949219 245.625 236.851562 C 245.625 235.699219 245.375 234.851562 244.875 234.300781 C 244.425781 233.75 243.773438 233.476562 242.925781 233.476562 C 242.074219 233.476562 241.398438 233.75 240.898438 234.300781 C 240.449219 234.851562 240.226562 235.699219 240.226562 236.851562 C 240.226562 237.949219 240.449219 238.800781 240.898438 239.398438 C 241.398438 239.949219 242.074219 240.226562 242.925781 240.226562 "/>
<path style=" stroke:none;fill-rule:nonzero;fill:rgb(100%,0%,0%);fill-opacity:1;" d="M 269.398438 201.824219 C 269.398438 200.476562 269.726562 199.425781 270.375 198.675781 C 271.074219 197.875 272.023438 197.476562 273.226562 197.476562 C 274.476562 197.476562 275.449219 197.875 276.148438 198.675781 C 276.800781 199.425781 277.125 200.476562 277.125 201.824219 C 277.125 203.175781 276.800781 204.25 276.148438 205.050781 C 275.449219 205.800781 274.476562 206.175781 273.226562 206.175781 C 272.023438 206.175781 271.074219 205.800781 270.375 205.050781 C 269.726562 204.25 269.398438 203.175781 269.398438 201.824219 M 273.226562 205.199219 C 274.125 205.199219 274.800781 204.925781 275.25 204.375 C 275.699219 203.773438 275.925781 202.925781 275.925781 201.824219 C 275.925781 200.726562 275.699219 199.875 275.25 199.273438 C 274.800781 198.726562 274.125 198.449219 273.226562 198.449219 C 272.375 198.449219 271.726562 198.726562 271.273438 199.273438 C 270.824219 199.824219 270.601562 200.675781 270.601562 201.824219 C 270.601562 202.925781 270.824219 203.773438 271.273438 204.375 C 271.726562 204.925781 272.375 205.199219 273.226562 205.199219 "/>
<path style=" stroke:none;fill-rule:nonzero;fill:rgb(100%,0%,0%);fill-opacity:1;" d="M 223.125 133.425781 C 223.125 132.074219 223.449219 131.023438 224.101562 130.273438 C 224.75 129.523438 225.699219 129.148438 226.949219 129.148438 C 228.199219 129.148438 229.175781 129.523438 229.875 130.273438 C 230.523438 131.023438 230.851562 132.074219 230.851562 133.425781 C 230.851562 134.773438 230.523438 135.851562 229.875 136.648438 C 229.175781 137.398438 228.199219 137.773438 226.949219 137.773438 C 225.75 137.773438 224.800781 137.398438 224.101562 136.648438 C 223.449219 135.851562 223.125 134.773438 223.125 133.425781 M 226.949219 136.875 C 227.851562 136.875 228.523438 136.574219 228.976562 135.976562 C 229.425781 135.375 229.648438 134.523438 229.648438 133.425781 C 229.648438 132.324219 229.425781 131.5 228.976562 130.949219 C 228.523438 130.351562 227.851562 130.050781 226.949219 130.050781 C 226.101562 130.050781 225.449219 130.351562 225 130.949219 C 224.550781 131.5 224.324219 132.324219 224.324219 133.425781 C 224.324219 134.574219 224.550781 135.425781 225 135.976562 C 225.449219 136.574219 226.101562 136.875 226.949219 136.875 "/>
<path style=" stroke:none;fill-rule:nonzero;fill:rgb(100%,0%,0%);fill-opacity:1;" d="M 294.226562 80.625 C 294.226562 79.226562 294.574219 78.148438 295.273438 77.398438 C 295.925781 76.648438 296.875 76.273438 298.125 76.273438 C 299.375 76.273438 300.324219 76.648438 300.976562 77.398438 C 301.675781 78.148438 302.023438 79.226562 302.023438 80.625 C 302.023438 81.976562 301.675781 83.023438 300.976562 83.773438 C 300.324219 84.574219 299.375 84.976562 298.125 84.976562 C 296.875 84.976562 295.925781 84.574219 295.273438 83.773438 C 294.574219 83.023438 294.226562 81.976562 294.226562 80.625 M 298.125 84 C 298.976562 84 299.648438 83.726562 300.148438 83.175781 C 300.601562 82.574219 300.824219 81.726562 300.824219 80.625 C 300.824219 79.476562 300.601562 78.625 300.148438 78.074219 C 299.648438 77.523438 298.976562 77.25 298.125 77.25 C 297.273438 77.25 296.625 77.523438 296.175781 78.074219 C 295.675781 78.625 295.425781 79.476562 295.425781 80.625 C 295.425781 81.726562 295.675781 82.574219 296.175781 83.175781 C 296.625 83.726562 297.273438 84 298.125 84 "/>
<path style=" stroke:none;fill-rule:nonzero;fill:rgb(100%,0%,0%);fill-opacity:1;" d="M 342.300781 137.398438 C 342.300781 136.050781 342.625 135 343.273438 134.25 C 343.925781 133.5 344.875 133.125 346.125 133.125 C 347.375 133.125 348.351562 133.5 349.050781 134.25 C 349.699219 135 350.023438 136.050781 350.023438 137.398438 C 350.023438 138.75 349.699219 139.824219 349.050781 140.625 C 348.351562 141.375 347.375 141.75 346.125 141.75 C 344.925781 141.75 343.976562 141.375 343.273438 140.625 C 342.625 139.824219 342.300781 138.75 342.300781 137.398438 M 346.125 140.851562 C 347.023438 140.851562 347.699219 140.550781 348.148438 139.949219 C 348.601562 139.398438 348.824219 138.550781 348.824219 137.398438 C 348.824219 136.300781 348.601562 135.476562 348.148438 134.925781 C 347.699219 134.324219 347.023438 134.023438 346.125 134.023438 C 345.273438 134.023438 344.625 134.324219 344.175781 134.925781 C 343.726562 135.476562 343.5 136.300781 343.5 137.398438 C 343.5 138.550781 343.726562 139.398438 344.175781 139.949219 C 344.625 140.550781 345.273438 140.851562 346.125 140.851562 "/>
<path style=" stroke:none;fill-rule:nonzero;fill:rgb(100%,0%,0%);fill-opacity:1;" d="M 351.375 133.199219 L 352.5 133.199219 L 352.5 136.800781 L 356.773438 136.800781 L 356.773438 133.199219 L 357.976562 133.199219 L 357.976562 141.675781 L 356.773438 141.675781 L 356.773438 137.773438 L 352.5 137.773438 L 352.5 141.675781 L 351.375 141.675781 L 351.375 133.199219 "/>
<path style=" stroke:none;fill-rule:nonzero;fill:rgb(100%,0%,0%);fill-opacity:1;" d="M 266.925781 160.726562 C 266.925781 159.375 267.273438 158.324219 267.976562 157.574219 C 268.625 156.824219 269.574219 156.449219 270.824219 156.449219 C 272.074219 156.449219 273.023438 156.824219 273.675781 157.574219 C 274.375 158.324219 274.726562 159.375 274.726562 160.726562 C 274.726562 162.074219 274.375 163.148438 273.675781 163.949219 C 272.976562 164.699219 272.023438 165.074219 270.824219 165.074219 C 269.574219 165.074219 268.625 164.699219 267.976562 163.949219 C 267.273438 163.148438 266.925781 162.074219 266.925781 160.726562 M 270.824219 164.101562 C 271.675781 164.101562 272.324219 163.824219 272.773438 163.273438 C 273.273438 162.675781 273.523438 161.824219 273.523438 160.726562 C 273.523438 159.625 273.273438 158.800781 272.773438 158.25 C 272.324219 157.648438 271.675781 157.351562 270.824219 157.351562 C 269.976562 157.351562 269.300781 157.625 268.800781 158.175781 C 268.351562 158.773438 268.125 159.625 268.125 160.726562 C 268.125 161.875 268.351562 162.726562 268.800781 163.273438 C 269.300781 163.824219 269.976562 164.101562 270.824219 164.101562 "/>
<path style=" stroke:none;fill-rule:nonzero;fill:rgb(100%,0%,0%);fill-opacity:1;" d="M 141.300781 122.023438 C 141.300781 120.675781 141.648438 119.625 142.351562 118.875 C 143 118.125 143.949219 117.75 145.199219 117.75 C 146.449219 117.75 147.398438 118.125 148.050781 118.875 C 148.75 119.625 149.101562 120.675781 149.101562 122.023438 C 149.101562 123.425781 148.75 124.5 148.050781 125.25 C 147.398438 126.050781 146.449219 126.449219 145.199219 126.449219 C 143.949219 126.449219 143 126.050781 142.351562 125.25 C 141.648438 124.5 141.300781 123.425781 141.300781 122.023438 M 145.199219 125.476562 C 146.050781 125.476562 146.699219 125.199219 147.148438 124.648438 C 147.648438 124.050781 147.898438 123.175781 147.898438 122.023438 C 147.898438 120.925781 147.648438 120.101562 147.148438 119.550781 C 146.699219 119 146.050781 118.726562 145.199219 118.726562 C 144.351562 118.726562 143.675781 119 143.175781 119.550781 C 142.726562 120.101562 142.5 120.925781 142.5 122.023438 C 142.5 123.175781 142.726562 124.050781 143.175781 124.648438 C 143.675781 125.199219 144.351562 125.476562 145.199219 125.476562 "/>
<path style=" stroke:none;fill-rule:nonzero;fill:rgb(100%,0%,0%);fill-opacity:1;" d="M 104.101562 86.25 C 104.101562 84.898438 104.449219 83.851562 105.148438 83.101562 C 105.800781 82.351562 106.75 81.976562 108 81.976562 C 109.25 81.976562 110.199219 82.351562 110.851562 83.101562 C 111.550781 83.851562 111.898438 84.898438 111.898438 86.25 C 111.898438 87.601562 111.550781 88.675781 110.851562 89.476562 C 110.199219 90.226562 109.25 90.601562 108 90.601562 C 106.75 90.601562 105.800781 90.226562 105.148438 89.476562 C 104.449219 88.675781 104.101562 87.601562 104.101562 86.25 M 108 89.699219 C 108.851562 89.699219 109.5 89.398438 109.949219 88.800781 C 110.449219 88.25 110.699219 87.398438 110.699219 86.25 C 110.699219 85.148438 110.449219 84.324219 109.949219 83.773438 C 109.5 83.175781 108.851562 82.875 108 82.875 C 107.148438 82.875 106.5 83.175781 106.050781 83.773438 C 105.550781 84.324219 105.300781 85.148438 105.300781 86.25 C 105.300781 87.398438 105.550781 88.25 106.050781 88.800781 C 106.5 89.398438 107.148438 89.699219 108 89.699219 "/>
<path style=" stroke:none;fill-rule:nonzero;fill:rgb(0%,0%,100%);fill-opacity:1;" d="M 44.101562 146.398438 L 46.875 150.898438 C 47.074219 151.199219 47.324219 151.625 47.625 152.175781 C 47.925781 152.675781 48.074219 152.949219 48.074219 153 L 48.074219 146.398438 L 49.199219 146.398438 L 49.199219 154.875 L 48 154.875 L 45.074219 150 C 44.824219 149.601562 44.574219 149.175781 44.324219 148.726562 C 44.074219 148.324219 43.925781 148.050781 43.875 147.898438 L 43.875 154.875 L 42.75 154.875 L 42.75 146.398438 L 44.101562 146.398438 "/>
<path style=" stroke:none;fill-rule:nonzero;fill:rgb(100%,0%,0%);fill-opacity:1;" d="M 94.199219 152.023438 C 94.199219 150.675781 94.550781 149.625 95.25 148.875 C 95.898438 148.125 96.851562 147.75 98.101562 147.75 C 99.351562 147.75 100.300781 148.125 100.949219 148.875 C 101.648438 149.625 102 150.675781 102 152.023438 C 102 153.375 101.648438 154.449219 100.949219 155.25 C 100.300781 156 99.351562 156.375 98.101562 156.375 C 96.851562 156.375 95.898438 156 95.25 155.25 C 94.550781 154.449219 94.199219 153.375 94.199219 152.023438 M 98.101562 155.398438 C 98.949219 155.398438 99.601562 155.125 100.050781 154.574219 C 100.550781 153.976562 100.800781 153.125 100.800781 152.023438 C 100.800781 150.925781 100.550781 150.101562 100.050781 149.550781 C 99.601562 148.949219 98.949219 148.648438 98.101562 148.648438 C 97.25 148.648438 96.574219 148.925781 96.074219 149.476562 C 95.625 150.023438 95.398438 150.875 95.398438 152.023438 C 95.398438 153.125 95.625 153.976562 96.074219 154.574219 C 96.574219 155.125 97.25 155.398438 98.101562 155.398438 "/>
<path style=" stroke:none;fill-rule:nonzero;fill:rgb(100%,0%,0%);fill-opacity:1;" d="M 103.273438 147.824219 L 104.398438 147.824219 L 104.398438 151.425781 L 108.75 151.425781 L 108.75 147.824219 L 109.875 147.824219 L 109.875 156.226562 L 108.75 156.226562 L 108.75 152.324219 L 104.398438 152.324219 L 104.398438 156.226562 L 103.273438 156.226562 L 103.273438 147.824219 "/>
<path style=" stroke:none;fill-rule:nonzero;fill:rgb(100%,0%,0%);fill-opacity:1;" d="M 120.148438 135.074219 C 120.148438 133.726562 120.476562 132.675781 121.125 131.925781 C 121.773438 131.175781 122.726562 130.800781 123.976562 130.800781 C 125.226562 130.800781 126.199219 131.175781 126.898438 131.925781 C 127.550781 132.675781 127.875 133.726562 127.875 135.074219 C 127.875 136.476562 127.550781 137.550781 126.898438 138.300781 C 126.199219 139.101562 125.226562 139.5 123.976562 139.5 C 122.773438 139.5 121.824219 139.101562 121.125 138.300781 C 120.476562 137.550781 120.148438 136.476562 120.148438 135.074219 M 123.976562 138.523438 C 124.875 138.523438 125.550781 138.226562 126 137.625 C 126.449219 137.074219 126.675781 136.226562 126.675781 135.074219 C 126.675781 133.976562 126.449219 133.148438 126 132.601562 C 125.550781 132.050781 124.875 131.773438 123.976562 131.773438 C 123.125 131.773438 122.476562 132.050781 122.023438 132.601562 C 121.574219 133.148438 121.351562 133.976562 121.351562 135.074219 C 121.351562 136.226562 121.574219 137.074219 122.023438 137.625 C 122.476562 138.226562 123.125 138.523438 123.976562 138.523438 "/>
<path style=" stroke:none;fill-rule:nonzero;fill:rgb(100%,0%,0%);fill-opacity:1;" d="M 129.226562 130.875 L 130.351562 130.875 L 130.351562 134.476562 L 134.625 134.476562 L 134.625 130.875 L 135.824219 130.875 L 135.824219 139.351562 L 134.625 139.351562 L 134.625 135.449219 L 130.351562 135.449219 L 130.351562 139.351562 L 129.226562 139.351562 L 129.226562 130.875 "/>
<path style=" stroke:none;fill-rule:nonzero;fill:rgb(0%,0%,100%);fill-opacity:1;" d="M 121.726562 267 L 124.5 271.425781 C 124.699219 271.726562 124.949219 272.148438 125.25 272.699219 C 125.550781 273.25 125.699219 273.523438 125.699219 273.523438 L 125.699219 267 L 126.824219 267 L 126.824219 275.398438 L 125.625 275.398438 L 122.699219 270.523438 C 122.449219 270.125 122.199219 269.726562 121.949219 269.324219 C 121.75 268.875 121.601562 268.574219 121.5 268.425781 L 121.5 275.398438 L 120.375 275.398438 L 120.375 267 L 121.726562 267 "/>
<path style=" stroke:none;fill-rule:nonzero;fill:rgb(100%,0%,0%);fill-opacity:1;" d="M 176.699219 320.851562 C 176.699219 319.5 177.023438 318.425781 177.675781 317.625 C 178.375 316.875 179.351562 316.5 180.601562 316.5 C 181.851562 316.5 182.800781 316.875 183.449219 317.625 C 184.101562 318.425781 184.425781 319.5 184.425781 320.851562 C 184.425781 322.199219 184.101562 323.273438 183.449219 324.074219 C 182.75 324.824219 181.800781 325.199219 180.601562 325.199219 C 179.351562 325.199219 178.375 324.824219 177.675781 324.074219 C 177.023438 323.273438 176.699219 322.199219 176.699219 320.851562 M 180.601562 324.226562 C 181.449219 324.226562 182.101562 323.949219 182.550781 323.398438 C 183 322.800781 183.226562 321.949219 183.226562 320.851562 C 183.226562 319.75 183 318.898438 182.550781 318.300781 C 182.101562 317.75 181.449219 317.476562 180.601562 317.476562 C 179.699219 317.476562 179.023438 317.75 178.574219 318.300781 C 178.125 318.851562 177.898438 319.699219 177.898438 320.851562 C 177.898438 321.949219 178.125 322.800781 178.574219 323.398438 C 179.023438 323.949219 179.699219 324.226562 180.601562 324.226562 "/>
<path style=" stroke:none;fill-rule:nonzero;fill:rgb(100%,0%,0%);fill-opacity:1;" d="M 185.773438 316.648438 L 186.898438 316.648438 L 186.898438 320.175781 L 191.25 320.175781 L 191.25 316.648438 L 192.375 316.648438 L 192.375 325.050781 L 191.25 325.050781 L 191.25 321.148438 L 186.898438 321.148438 L 186.898438 325.050781 L 185.773438 325.050781 L 185.773438 316.648438 "/>
<path style=" stroke:none;fill-rule:nonzero;fill:rgb(100%,0%,0%);fill-opacity:1;" d="M 200.175781 312.449219 C 200.175781 311.101562 200.5 310.050781 201.148438 309.300781 C 201.800781 308.550781 202.75 308.175781 204 308.175781 C 205.25 308.175781 206.226562 308.550781 206.925781 309.300781 C 207.574219 310.050781 207.898438 311.101562 207.898438 312.449219 C 207.898438 313.851562 207.550781 314.925781 206.851562 315.675781 C 206.199219 316.476562 205.25 316.875 204 316.875 C 202.75 316.875 201.800781 316.476562 201.148438 315.675781 C 200.5 314.925781 200.175781 313.851562 200.175781 312.449219 M 204 315.898438 C 204.851562 315.898438 205.523438 315.625 206.023438 315.074219 C 206.476562 314.476562 206.699219 313.601562 206.699219 312.449219 C 206.699219 311.351562 206.476562 310.523438 206.023438 309.976562 C 205.523438 309.425781 204.851562 309.148438 204 309.148438 C 203.148438 309.148438 202.5 309.425781 202.050781 309.976562 C 201.550781 310.523438 201.300781 311.351562 201.300781 312.449219 C 201.300781 313.601562 201.550781 314.476562 202.050781 315.074219 C 202.5 315.625 203.148438 315.898438 204 315.898438 "/>
<path style=" stroke:none;fill-rule:nonzero;fill:rgb(100%,0%,0%);fill-opacity:1;" d="M 209.175781 308.25 L 210.375 308.25 L 210.375 311.851562 L 214.648438 311.851562 L 214.648438 308.25 L 215.773438 308.25 L 215.773438 316.726562 L 214.648438 316.726562 L 214.648438 312.824219 L 210.375 312.824219 L 210.375 316.726562 L 209.175781 316.726562 L 209.175781 308.25 "/>
</g>
</svg>
