<?xml version="1.0" encoding="UTF-8"?>
<svg xmlns="http://www.w3.org/2000/svg" xmlns:xlink="http://www.w3.org/1999/xlink" width="375pt" height="375pt" viewBox="0 0 375 375" version="1.1">
<g id="surface56">
<rect x="0" y="0" width="375" height="375" style="fill:rgb(100%,100%,100%);fill-opacity:1;stroke:none;"/>
<path style="fill:none;stroke-width:2;stroke-linecap:butt;stroke-linejoin:miter;stroke:rgb(0%,0%,0%);stroke-opacity:1;stroke-miterlimit:4;" d="M 156.697917 363 L 144.598958 314.802083 " transform="matrix(0.75,0,0,0.75,0,0)"/>
<path style="fill:none;stroke-width:2;stroke-linecap:butt;stroke-linejoin:miter;stroke:rgb(0%,0%,0%);stroke-opacity:1;stroke-miterlimit:4;" d="M 144.598958 314.802083 L 97.901042 331.901042 " transform="matrix(0.75,0,0,0.75,0,0)"/>
<path style="fill:none;stroke-width:2;stroke-linecap:butt;stroke-linejoin:miter;stroke:rgb(0%,0%,0%);stroke-opacity:1;stroke-miterlimit:4;" d="M 144.598958 314.802083 L 166.098958 311.697917 " transform="matrix(0.75,0,0,0.75,0,0)"/>
<path style="fill:none;stroke-width:2;stroke-linecap:butt;stroke-linejoin:miter;stroke:rgb(80%,80%,0%);stroke-opacity:1;stroke-miterlimit:4;" d="M 166.098958 311.697917 L 187.598958 308.598958 " transform="matrix(0.75,0,0,0.75,0,0)"/>
<path style="fill:none;stroke-width:2;stroke-linecap:butt;stroke-linejoin:miter;stroke:rgb(80%,80%,0%);stroke-opacity:1;stroke-miterlimit:4;" d="M 195.302083 299.098958 L 198.802083 278.901042 " transform="matrix(0.75,0,0,0.75,0,0)"/>
<path style="fill:none;stroke-width:2;stroke-linecap:butt;stroke-linejoin:miter;stroke:rgb(0%,0%,0%);stroke-opacity:1;stroke-miterlimit:4;" d="M 198.802083 278.901042 L 202.302083 258.802083 " transform="matrix(0.75,0,0,0.75,0,0)"/>
<path style="fill:none;stroke-width:2;stroke-linecap:butt;stroke-linejoin:miter;stroke:rgb(0%,0%,0%);stroke-opacity:1;stroke-miterlimit:4;" d="M 202.302083 258.802083 L 225.5 214.901042 " transform="matrix(0.75,0,0,0.75,0,0)"/>
<path style="fill-rule:evenodd;fill:rgb(0%,0%,0%);fill-opacity:1;stroke-width:1;stroke-linecap:butt;stroke-linejoin:miter;stroke:rgb(0%,0%,0%);stroke-opacity:1;stroke-miterlimit:4;" d="M 225.5 214.901042 L 244.197917 206.5 L 245.697917 211.302083 Z M 225.5 214.901042 " transform="matrix(0.75,0,0,0.75,0,0)"/>
<path style="fill-rule:evenodd;fill:rgb(0%,0%,100%);fill-opacity:1;stroke-width:1;stroke-linecap:butt;stroke-linejoin:miter;stroke:rgb(0%,0%,100%);stroke-opacity:1;stroke-miterlimit:4;" d="M 244.197917 206.5 L 265.901042 207.598958 L 262.901042 198.098958 Z M 244.197917 206.5 " transform="matrix(0.75,0,0,0.75,0,0)"/>
<path style="fill-rule:evenodd;fill:rgb(0%,0%,100%);fill-opacity:1;stroke-width:1;stroke-linecap:butt;stroke-linejoin:miter;stroke:rgb(0%,0%,100%);stroke-opacity:1;stroke-miterlimit:4;" d="M 244.197917 206.5 L 245.697917 211.302083 L 265.901042 207.598958 Z M 244.197917 206.5 " transform="matrix(0.75,0,0,0.75,0,0)"/>
<path style="fill:none;stroke-width:2;stroke-linecap:butt;stroke-linejoin:miter;stroke:rgb(0%,0%,100%);stroke-opacity:1;stroke-miterlimit:4;" d="M 280 206.697917 L 294.697917 220.401042 " transform="matrix(0.75,0,0,0.75,0,0)"/>
<path style="fill:none;stroke-width:2;stroke-linecap:butt;stroke-linejoin:miter;stroke:rgb(0%,0%,0%);stroke-opacity:1;stroke-miterlimit:4;" d="M 294.697917 220.401042 L 309.5 234 " transform="matrix(0.75,0,0,0.75,0,0)"/>
<path style="fill:none;stroke-width:2;stroke-linecap:butt;stroke-linejoin:miter;stroke:rgb(0%,0%,0%);stroke-opacity:1;stroke-miterlimit:4;" d="M 314.302083 235.098958 L 309.802083 255 " transform="matrix(0.75,0,0,0.75,0,0)"/>
<path style="fill:none;stroke-width:2;stroke-linecap:butt;stroke-linejoin:miter;stroke:rgb(100%,0%,0%);stroke-opacity:1;stroke-miterlimit:4;" d="M 309.802083 255 L 305.197917 274.802083 " transform="matrix(0.75,0,0,0.75,0,0)"/>
<path style="fill:none;stroke-width:2;stroke-linecap:butt;stroke-linejoin:miter;stroke:rgb(0%,0%,0%);stroke-opacity:1;stroke-miterlimit:4;" d="M 304.598958 232.901042 L 300.098958 252.802083 " transform="matrix(0.75,0,0,0.75,0,0)"/>
<path style="fill:none;stroke-width:2;stroke-linecap:butt;stroke-linejoin:miter;stroke:rgb(100%,0%,0%);stroke-opacity:1;stroke-miterlimit:4;" d="M 300.098958 252.802083 L 295.5 272.598958 " transform="matrix(0.75,0,0,0.75,0,0)"/>
<path style="fill:none;stroke-width:2;stroke-linecap:butt;stroke-linejoin:miter;stroke:rgb(0%,0%,0%);stroke-opacity:1;stroke-miterlimit:4;" d="M 309.5 234 L 356.901042 219.401042 " transform="matrix(0.75,0,0,0.75,0,0)"/>
<path style="fill:none;stroke-width:1;stroke-linecap:butt;stroke-linejoin:miter;stroke:rgb(0%,0%,0%);stroke-opacity:1;stroke-miterlimit:4;" d="M 359.197917 213.197917 L 357.598958 212.901042 " transform="matrix(0.75,0,0,0.75,0,0)"/>
<path style="fill:none;stroke-width:1;stroke-linecap:butt;stroke-linejoin:miter;stroke:rgb(0%,0%,0%);stroke-opacity:1;stroke-miterlimit:4;" d="M 361.5 207.098958 L 358.197917 206.302083 " transform="matrix(0.75,0,0,0.75,0,0)"/>
<path style="fill:none;stroke-width:1;stroke-linecap:butt;stroke-linejoin:miter;stroke:rgb(0%,0%,0%);stroke-opacity:1;stroke-miterlimit:4;" d="M 363.697917 200.901042 L 358.901042 199.802083 " transform="matrix(0.75,0,0,0.75,0,0)"/>
<path style="fill:none;stroke-width:1;stroke-linecap:butt;stroke-linejoin:miter;stroke:rgb(0%,0%,100%);stroke-opacity:1;stroke-miterlimit:4;" d="M 366 194.697917 L 359.5 193.197917 " transform="matrix(0.75,0,0,0.75,0,0)"/>
<path style="fill:none;stroke-width:1;stroke-linecap:butt;stroke-linejoin:miter;stroke:rgb(0%,0%,100%);stroke-opacity:1;stroke-miterlimit:4;" d="M 368.197917 188.598958 L 360.197917 186.697917 " transform="matrix(0.75,0,0,0.75,0,0)"/>
<path style="fill:none;stroke-width:1;stroke-linecap:butt;stroke-linejoin:miter;stroke:rgb(0%,0%,100%);stroke-opacity:1;stroke-miterlimit:4;" d="M 370.5 182.401042 L 360.802083 180.197917 " transform="matrix(0.75,0,0,0.75,0,0)"/>
<path style="fill:none;stroke-width:2;stroke-linecap:butt;stroke-linejoin:miter;stroke:rgb(0%,0%,0%);stroke-opacity:1;stroke-miterlimit:4;" d="M 356.901042 219.401042 L 393.401042 253.197917 " transform="matrix(0.75,0,0,0.75,0,0)"/>
<path style="fill:none;stroke-width:2;stroke-linecap:butt;stroke-linejoin:miter;stroke:rgb(0%,0%,0%);stroke-opacity:1;stroke-miterlimit:4;" d="M 393.401042 253.197917 L 382.302083 301.697917 " transform="matrix(0.75,0,0,0.75,0,0)"/>
<path style="fill:none;stroke-width:2;stroke-linecap:butt;stroke-linejoin:miter;stroke:rgb(0%,0%,0%);stroke-opacity:1;stroke-miterlimit:4;" d="M 401.401042 262.697917 L 393.598958 296.598958 " transform="matrix(0.75,0,0,0.75,0,0)"/>
<path style="fill:none;stroke-width:2;stroke-linecap:butt;stroke-linejoin:miter;stroke:rgb(0%,0%,0%);stroke-opacity:1;stroke-miterlimit:4;" d="M 382.302083 301.697917 L 418.697917 335.5 " transform="matrix(0.75,0,0,0.75,0,0)"/>
<path style="fill:none;stroke-width:2;stroke-linecap:butt;stroke-linejoin:miter;stroke:rgb(0%,0%,0%);stroke-opacity:1;stroke-miterlimit:4;" d="M 418.697917 335.5 L 466.197917 320.802083 " transform="matrix(0.75,0,0,0.75,0,0)"/>
<path style="fill:none;stroke-width:2;stroke-linecap:butt;stroke-linejoin:miter;stroke:rgb(0%,0%,0%);stroke-opacity:1;stroke-miterlimit:4;" d="M 422.901042 323.802083 L 456.197917 313.5 " transform="matrix(0.75,0,0,0.75,0,0)"/>
<path style="fill:none;stroke-width:2;stroke-linecap:butt;stroke-linejoin:miter;stroke:rgb(0%,0%,0%);stroke-opacity:1;stroke-miterlimit:4;" d="M 466.197917 320.802083 L 477.302083 272.401042 " transform="matrix(0.75,0,0,0.75,0,0)"/>
<path style="fill:none;stroke-width:2;stroke-linecap:butt;stroke-linejoin:miter;stroke:rgb(0%,0%,0%);stroke-opacity:1;stroke-miterlimit:4;" d="M 477.302083 272.401042 L 440.901042 238.598958 " transform="matrix(0.75,0,0,0.75,0,0)"/>
<path style="fill:none;stroke-width:2;stroke-linecap:butt;stroke-linejoin:miter;stroke:rgb(0%,0%,0%);stroke-opacity:1;stroke-miterlimit:4;" d="M 465 274.598958 L 439.598958 250.901042 " transform="matrix(0.75,0,0,0.75,0,0)"/>
<path style="fill:none;stroke-width:2;stroke-linecap:butt;stroke-linejoin:miter;stroke:rgb(0%,0%,0%);stroke-opacity:1;stroke-miterlimit:4;" d="M 225.5 214.901042 L 181.598958 191.598958 " transform="matrix(0.75,0,0,0.75,0,0)"/>
<path style="fill:none;stroke-width:2;stroke-linecap:butt;stroke-linejoin:miter;stroke:rgb(0%,0%,0%);stroke-opacity:1;stroke-miterlimit:4;" d="M 176.901042 193.098958 L 170.901042 173.802083 " transform="matrix(0.75,0,0,0.75,0,0)"/>
<path style="fill:none;stroke-width:2;stroke-linecap:butt;stroke-linejoin:miter;stroke:rgb(100%,0%,0%);stroke-opacity:1;stroke-miterlimit:4;" d="M 170.901042 173.802083 L 165 154.598958 " transform="matrix(0.75,0,0,0.75,0,0)"/>
<path style="fill:none;stroke-width:2;stroke-linecap:butt;stroke-linejoin:miter;stroke:rgb(0%,0%,0%);stroke-opacity:1;stroke-miterlimit:4;" d="M 186.401042 190.197917 L 180.401042 170.901042 " transform="matrix(0.75,0,0,0.75,0,0)"/>
<path style="fill:none;stroke-width:2;stroke-linecap:butt;stroke-linejoin:miter;stroke:rgb(100%,0%,0%);stroke-opacity:1;stroke-miterlimit:4;" d="M 180.401042 170.901042 L 174.5 151.697917 " transform="matrix(0.75,0,0,0.75,0,0)"/>
<path style="fill:none;stroke-width:2;stroke-linecap:butt;stroke-linejoin:miter;stroke:rgb(0%,0%,0%);stroke-opacity:1;stroke-miterlimit:4;" d="M 181.598958 191.598958 L 172.302083 209.302083 " transform="matrix(0.75,0,0,0.75,0,0)"/>
<path style="fill:none;stroke-width:2;stroke-linecap:butt;stroke-linejoin:miter;stroke:rgb(0%,0%,100%);stroke-opacity:1;stroke-miterlimit:4;" d="M 172.302083 209.302083 L 163 226.901042 " transform="matrix(0.75,0,0,0.75,0,0)"/>
<path style="fill:none;stroke-width:2;stroke-linecap:butt;stroke-linejoin:miter;stroke:rgb(0%,0%,100%);stroke-opacity:1;stroke-miterlimit:4;" d="M 151.401042 242.302083 L 137.098958 256.197917 " transform="matrix(0.75,0,0,0.75,0,0)"/>
<path style="fill:none;stroke-width:2;stroke-linecap:butt;stroke-linejoin:miter;stroke:rgb(0%,0%,0%);stroke-opacity:1;stroke-miterlimit:4;" d="M 137.098958 256.197917 L 122.697917 270.197917 " transform="matrix(0.75,0,0,0.75,0,0)"/>
<path style="fill:none;stroke-width:1;stroke-linecap:butt;stroke-linejoin:miter;stroke:rgb(0%,0%,0%);stroke-opacity:1;stroke-miterlimit:4;" d="M 114.697917 267.901042 L 114.401042 269.598958 " transform="matrix(0.75,0,0,0.75,0,0)"/>
<path style="fill:none;stroke-width:1;stroke-linecap:butt;stroke-linejoin:miter;stroke:rgb(0%,0%,0%);stroke-opacity:1;stroke-miterlimit:4;" d="M 106.697917 265.697917 L 106.098958 269 " transform="matrix(0.75,0,0,0.75,0,0)"/>
<path style="fill:none;stroke-width:1;stroke-linecap:butt;stroke-linejoin:miter;stroke:rgb(0%,0%,0%);stroke-opacity:1;stroke-miterlimit:4;" d="M 98.697917 263.5 L 97.802083 268.401042 " transform="matrix(0.75,0,0,0.75,0,0)"/>
<path style="fill:none;stroke-width:1;stroke-linecap:butt;stroke-linejoin:miter;stroke:rgb(0%,0%,0%);stroke-opacity:1;stroke-miterlimit:4;" d="M 90.598958 261.197917 L 89.5 267.697917 " transform="matrix(0.75,0,0,0.75,0,0)"/>
<path style="fill:none;stroke-width:1;stroke-linecap:butt;stroke-linejoin:miter;stroke:rgb(0%,0%,0%);stroke-opacity:1;stroke-miterlimit:4;" d="M 82.598958 259 L 81.197917 267.098958 " transform="matrix(0.75,0,0,0.75,0,0)"/>
<path style="fill:none;stroke-width:1;stroke-linecap:butt;stroke-linejoin:miter;stroke:rgb(0%,0%,0%);stroke-opacity:1;stroke-miterlimit:4;" d="M 74.598958 256.697917 L 72.901042 266.5 " transform="matrix(0.75,0,0,0.75,0,0)"/>
<path style="fill:none;stroke-width:2;stroke-linecap:butt;stroke-linejoin:miter;stroke:rgb(0%,0%,0%);stroke-opacity:1;stroke-miterlimit:4;" d="M 69.098958 263.401042 L 62.197917 244.5 " transform="matrix(0.75,0,0,0.75,0,0)"/>
<path style="fill:none;stroke-width:2;stroke-linecap:butt;stroke-linejoin:miter;stroke:rgb(100%,0%,0%);stroke-opacity:1;stroke-miterlimit:4;" d="M 62.197917 244.5 L 55.302083 225.697917 " transform="matrix(0.75,0,0,0.75,0,0)"/>
<path style="fill:none;stroke-width:2;stroke-linecap:butt;stroke-linejoin:miter;stroke:rgb(0%,0%,0%);stroke-opacity:1;stroke-miterlimit:4;" d="M 78.401042 259.901042 L 71.5 241.098958 " transform="matrix(0.75,0,0,0.75,0,0)"/>
<path style="fill:none;stroke-width:2;stroke-linecap:butt;stroke-linejoin:miter;stroke:rgb(100%,0%,0%);stroke-opacity:1;stroke-miterlimit:4;" d="M 71.5 241.098958 L 64.598958 222.197917 " transform="matrix(0.75,0,0,0.75,0,0)"/>
<path style="fill:none;stroke-width:2;stroke-linecap:butt;stroke-linejoin:miter;stroke:rgb(0%,0%,0%);stroke-opacity:1;stroke-miterlimit:4;" d="M 73.697917 261.598958 L 61.5 276.302083 " transform="matrix(0.75,0,0,0.75,0,0)"/>
<path style="fill:none;stroke-width:2;stroke-linecap:butt;stroke-linejoin:miter;stroke:rgb(100%,0%,0%);stroke-opacity:1;stroke-miterlimit:4;" d="M 61.5 276.302083 L 49.197917 291 " transform="matrix(0.75,0,0,0.75,0,0)"/>
<path style="fill:none;stroke-width:2;stroke-linecap:butt;stroke-linejoin:miter;stroke:rgb(0%,0%,0%);stroke-opacity:1;stroke-miterlimit:4;" d="M 122.697917 270.197917 L 144.598958 314.802083 " transform="matrix(0.75,0,0,0.75,0,0)"/>
<path style="fill:none;stroke-width:2;stroke-linecap:butt;stroke-linejoin:miter;stroke:rgb(0%,0%,100%);stroke-opacity:1;stroke-miterlimit:4;" d="M 165.401042 239.302083 L 183.802083 249 " transform="matrix(0.75,0,0,0.75,0,0)"/>
<path style="fill:none;stroke-width:2;stroke-linecap:butt;stroke-linejoin:miter;stroke:rgb(0%,0%,0%);stroke-opacity:1;stroke-miterlimit:4;" d="M 183.802083 249 L 202.302083 258.802083 " transform="matrix(0.75,0,0,0.75,0,0)"/>
<path style="fill:none;stroke-width:2;stroke-linecap:butt;stroke-linejoin:miter;stroke:rgb(0%,0%,0%);stroke-opacity:1;stroke-miterlimit:4;" d="M 440.901042 238.598958 L 393.401042 253.197917 " transform="matrix(0.75,0,0,0.75,0,0)"/>
<path style="fill:none;stroke-width:1;stroke-linecap:butt;stroke-linejoin:miter;stroke:rgb(0%,0%,0%);stroke-opacity:1;stroke-miterlimit:4;" d="M 208.401042 261.802083 L 208.901042 260.197917 " transform="matrix(0.75,0,0,0.75,0,0)"/>
<path style="fill:none;stroke-width:1;stroke-linecap:butt;stroke-linejoin:miter;stroke:rgb(0%,0%,0%);stroke-opacity:1;stroke-miterlimit:4;" d="M 214.5 264.697917 L 215.598958 261.598958 " transform="matrix(0.75,0,0,0.75,0,0)"/>
<path style="fill:none;stroke-width:1;stroke-linecap:butt;stroke-linejoin:miter;stroke:rgb(0%,0%,0%);stroke-opacity:1;stroke-miterlimit:4;" d="M 220.598958 267.697917 L 222.197917 263 " transform="matrix(0.75,0,0,0.75,0,0)"/>
<path style="fill:none;stroke-width:1;stroke-linecap:butt;stroke-linejoin:miter;stroke:rgb(0%,0%,0%);stroke-opacity:1;stroke-miterlimit:4;" d="M 226.697917 270.598958 L 228.901042 264.401042 " transform="matrix(0.75,0,0,0.75,0,0)"/>
<path style="fill:none;stroke-width:1;stroke-linecap:butt;stroke-linejoin:miter;stroke:rgb(0%,0%,0%);stroke-opacity:1;stroke-miterlimit:4;" d="M 232.802083 273.598958 L 235.5 265.802083 " transform="matrix(0.75,0,0,0.75,0,0)"/>
<path style="fill:none;stroke-width:1;stroke-linecap:butt;stroke-linejoin:miter;stroke:rgb(0%,0%,0%);stroke-opacity:1;stroke-miterlimit:4;" d="M 238.901042 276.598958 L 242.197917 267.197917 " transform="matrix(0.75,0,0,0.75,0,0)"/>
<path style=" stroke:none;fill-rule:nonzero;fill:rgb(80%,80%,0%);fill-opacity:1;" d="M 142.351562 234.449219 C 142.449219 234.449219 142.648438 234.523438 142.949219 234.675781 C 143.300781 234.824219 143.648438 234.949219 144 235.050781 C 144.351562 235.101562 144.699219 235.125 145.050781 235.125 C 145.75 235.125 146.300781 234.976562 146.699219 234.675781 C 147.050781 234.324219 147.226562 233.875 147.226562 233.324219 C 147.226562 232.925781 147.125 232.625 146.925781 232.425781 C 146.773438 232.175781 146.550781 231.976562 146.25 231.824219 C 145.949219 231.726562 145.550781 231.601562 145.050781 231.449219 C 144.398438 231.25 143.898438 231.050781 143.550781 230.851562 C 143.148438 230.699219 142.824219 230.425781 142.574219 230.023438 C 142.324219 229.675781 142.199219 229.175781 142.199219 228.523438 C 142.199219 227.625 142.5 226.898438 143.101562 226.351562 C 143.699219 225.800781 144.601562 225.523438 145.800781 225.523438 C 146.601562 225.523438 147.449219 225.726562 148.351562 226.125 L 148.050781 227.25 C 147.199219 226.898438 146.449219 226.726562 145.800781 226.726562 C 145.148438 226.726562 144.625 226.875 144.226562 227.175781 C 143.824219 227.476562 143.648438 227.875 143.699219 228.375 C 143.699219 228.726562 143.773438 229.023438 143.925781 229.273438 C 144.125 229.476562 144.375 229.648438 144.675781 229.800781 C 144.976562 229.898438 145.351562 230.023438 145.800781 230.175781 C 146.449219 230.375 146.976562 230.574219 147.375 230.773438 C 147.726562 230.976562 148.023438 231.273438 148.273438 231.675781 C 148.574219 232.074219 148.726562 232.625 148.726562 233.324219 C 148.726562 234.324219 148.398438 235.074219 147.75 235.574219 C 147.101562 236.074219 146.226562 236.324219 145.125 236.324219 C 144.523438 236.324219 143.976562 236.273438 143.476562 236.175781 C 143.023438 236.023438 142.523438 235.851562 141.976562 235.648438 L 142.351562 234.449219 "/>
<path style=" stroke:none;fill-rule:nonzero;fill:rgb(0%,0%,100%);fill-opacity:1;" d="M 202.425781 144.898438 L 205.875 150.449219 C 206.125 150.851562 206.425781 151.375 206.773438 152.023438 C 207.175781 152.675781 207.375 153.023438 207.375 153.074219 L 207.375 144.898438 L 208.800781 144.898438 L 208.800781 155.476562 L 207.300781 155.476562 L 203.625 149.324219 C 203.324219 148.875 203.023438 148.375 202.726562 147.824219 C 202.425781 147.273438 202.226562 146.898438 202.125 146.699219 L 202.125 155.476562 L 200.773438 155.476562 L 200.773438 144.898438 L 202.425781 144.898438 "/>
<path style=" stroke:none;fill-rule:nonzero;fill:rgb(0%,0%,100%);fill-opacity:1;" d="M 200.625 133.273438 L 202.050781 133.273438 L 202.050781 137.773438 L 207.449219 137.773438 L 207.449219 133.273438 L 208.875 133.273438 L 208.875 143.851562 L 207.449219 143.851562 L 207.449219 138.976562 L 202.050781 138.976562 L 202.050781 143.851562 L 200.625 143.851562 L 200.625 133.273438 "/>
<path style=" stroke:none;fill-rule:nonzero;fill:rgb(100%,0%,0%);fill-opacity:1;" d="M 218.925781 211.875 C 218.925781 210.175781 219.351562 208.875 220.199219 207.976562 C 221.050781 207.023438 222.25 206.550781 223.800781 206.550781 C 225.351562 206.550781 226.550781 207.023438 227.398438 207.976562 C 228.199219 208.875 228.601562 210.175781 228.601562 211.875 C 228.601562 213.574219 228.199219 214.925781 227.398438 215.925781 C 226.550781 216.875 225.351562 217.351562 223.800781 217.351562 C 222.25 217.351562 221.050781 216.875 220.199219 215.925781 C 219.351562 214.976562 218.925781 213.625 218.925781 211.875 M 223.800781 216.148438 C 224.851562 216.148438 225.675781 215.800781 226.273438 215.101562 C 226.875 214.351562 227.175781 213.273438 227.175781 211.875 C 227.175781 210.523438 226.875 209.5 226.273438 208.800781 C 225.675781 208.101562 224.851562 207.75 223.800781 207.75 C 222.699219 207.75 221.875 208.101562 221.324219 208.800781 C 220.726562 209.449219 220.425781 210.476562 220.425781 211.875 C 220.425781 213.324219 220.726562 214.398438 221.324219 215.101562 C 221.875 215.800781 222.699219 216.148438 223.800781 216.148438 "/>
<path style=" stroke:none;fill-rule:nonzero;fill:rgb(0%,0%,100%);fill-opacity:1;" d="M 273.675781 122.925781 L 277.125 128.550781 C 277.375 128.898438 277.675781 129.398438 278.023438 130.050781 C 278.375 130.75 278.574219 131.125 278.625 131.175781 L 278.625 122.925781 L 279.976562 122.925781 L 279.976562 133.5 L 278.550781 133.5 L 274.875 127.351562 C 274.574219 126.898438 274.273438 126.398438 273.976562 125.851562 C 273.675781 125.300781 273.476562 124.949219 273.375 124.800781 L 273.375 133.5 L 272.023438 133.5 L 272.023438 122.925781 L 273.675781 122.925781 "/>
<path style=" stroke:none;fill-rule:nonzero;fill:rgb(0%,0%,100%);fill-opacity:1;" d="M 281.25 122.925781 L 282.675781 122.925781 L 282.675781 127.425781 L 288.074219 127.425781 L 288.074219 122.925781 L 289.5 122.925781 L 289.5 133.5 L 288.074219 133.5 L 288.074219 128.625 L 282.675781 128.625 L 282.675781 133.5 L 281.25 133.5 L 281.25 122.925781 "/>
<path style=" stroke:none;fill-rule:nonzero;fill:rgb(0%,0%,100%);fill-opacity:1;" d="M 290.773438 133.125 C 290.976562 132.675781 291.273438 132.324219 291.675781 132.074219 C 292.074219 131.824219 292.550781 131.699219 293.101562 131.699219 C 293.800781 131.699219 294.351562 131.898438 294.75 132.300781 C 295.148438 132.699219 295.351562 133.226562 295.351562 133.875 C 295.351562 134.574219 295.101562 135.25 294.601562 135.898438 C 294.101562 136.550781 293.324219 137.25 292.273438 138 L 295.5 138 L 295.5 138.75 L 290.773438 138.75 L 290.773438 138.148438 C 291.625 137.5 292.324219 136.949219 292.875 136.5 C 293.375 136.050781 293.75 135.625 294 135.226562 C 294.25 134.773438 294.375 134.351562 294.375 133.949219 C 294.375 133.5 294.25 133.148438 294 132.898438 C 293.800781 132.648438 293.5 132.523438 293.101562 132.523438 C 292.75 132.523438 292.449219 132.601562 292.199219 132.75 C 291.949219 132.898438 291.726562 133.148438 291.523438 133.5 L 290.773438 133.125 "/>
<path style=" stroke:none;fill-rule:nonzero;fill:rgb(100%,0%,0%);fill-opacity:1;" d="M 120.375 108.148438 C 120.375 106.449219 120.800781 105.125 121.648438 104.175781 C 122.5 103.226562 123.699219 102.75 125.25 102.75 C 126.800781 102.75 128 103.226562 128.851562 104.175781 C 129.648438 105.125 130.050781 106.449219 130.050781 108.148438 C 130.050781 109.851562 129.625 111.175781 128.773438 112.125 C 127.976562 113.125 126.800781 113.625 125.25 113.625 C 123.699219 113.625 122.5 113.125 121.648438 112.125 C 120.800781 111.175781 120.375 109.851562 120.375 108.148438 M 125.25 112.425781 C 126.300781 112.425781 127.125 112.074219 127.726562 111.375 C 128.273438 110.625 128.550781 109.550781 128.550781 108.148438 C 128.550781 106.75 128.273438 105.699219 127.726562 105 C 127.125 104.300781 126.300781 103.949219 125.25 103.949219 C 124.148438 103.949219 123.324219 104.300781 122.773438 105 C 122.175781 105.699219 121.875 106.75 121.875 108.148438 C 121.875 109.550781 122.175781 110.625 122.773438 111.375 C 123.324219 112.074219 124.148438 112.425781 125.25 112.425781 "/>
<path style=" stroke:none;fill-rule:nonzero;fill:rgb(0%,0%,100%);fill-opacity:1;" d="M 116.476562 171.375 L 119.925781 177 C 120.125 177.351562 120.425781 177.851562 120.824219 178.5 C 121.175781 179.199219 121.351562 179.574219 121.351562 179.625 L 121.351562 171.375 L 122.773438 171.375 L 122.773438 181.949219 L 121.351562 181.949219 L 117.601562 175.875 C 117.351562 175.375 117.050781 174.851562 116.699219 174.300781 C 116.398438 173.75 116.226562 173.398438 116.175781 173.25 L 116.175781 181.949219 L 114.75 181.949219 L 114.75 171.375 L 116.476562 171.375 "/>
<path style=" stroke:none;fill-rule:nonzero;fill:rgb(100%,0%,0%);fill-opacity:1;" d="M 37.648438 161.25 C 37.648438 159.550781 38.074219 158.25 38.925781 157.351562 C 39.726562 156.398438 40.898438 155.925781 42.449219 155.925781 C 44.050781 155.925781 45.25 156.398438 46.050781 157.351562 C 46.898438 158.25 47.324219 159.550781 47.324219 161.25 C 47.324219 162.949219 46.898438 164.300781 46.050781 165.300781 C 45.199219 166.25 44 166.726562 42.449219 166.726562 C 40.898438 166.726562 39.726562 166.25 38.925781 165.300781 C 38.074219 164.351562 37.648438 163 37.648438 161.25 M 42.449219 165.523438 C 43.550781 165.523438 44.375 165.175781 44.925781 164.476562 C 45.523438 163.726562 45.824219 162.648438 45.824219 161.25 C 45.824219 159.898438 45.523438 158.875 44.925781 158.175781 C 44.375 157.476562 43.550781 157.125 42.449219 157.125 C 41.398438 157.125 40.574219 157.476562 39.976562 158.175781 C 39.425781 158.824219 39.148438 159.851562 39.148438 161.25 C 39.148438 162.699219 39.425781 163.773438 39.976562 164.476562 C 40.574219 165.175781 41.398438 165.523438 42.449219 165.523438 "/>
<path style=" stroke:none;fill-rule:nonzero;fill:rgb(100%,0%,0%);fill-opacity:1;" d="M 17.023438 219.601562 L 18.449219 219.601562 L 18.449219 224.101562 L 23.851562 224.101562 L 23.851562 219.601562 L 25.273438 219.601562 L 25.273438 230.175781 L 23.851562 230.175781 L 23.851562 225.300781 L 18.449219 225.300781 L 18.449219 230.175781 L 17.023438 230.175781 L 17.023438 219.601562 "/>
<path style=" stroke:none;fill-rule:nonzero;fill:rgb(100%,0%,0%);fill-opacity:1;" d="M 26.550781 224.851562 C 26.550781 223.148438 26.976562 221.851562 27.824219 220.949219 C 28.675781 220 29.875 219.523438 31.425781 219.523438 C 32.976562 219.523438 34.175781 220 35.023438 220.949219 C 35.824219 221.851562 36.226562 223.148438 36.226562 224.851562 C 36.226562 226.550781 35.824219 227.898438 35.023438 228.898438 C 34.175781 229.851562 32.976562 230.324219 31.425781 230.324219 C 29.875 230.324219 28.675781 229.851562 27.824219 228.898438 C 26.976562 227.949219 26.550781 226.601562 26.550781 224.851562 M 31.425781 229.125 C 32.476562 229.125 33.300781 228.773438 33.898438 228.074219 C 34.5 227.324219 34.800781 226.25 34.800781 224.851562 C 34.800781 223.5 34.5 222.476562 33.898438 221.773438 C 33.300781 221.074219 32.476562 220.726562 31.425781 220.726562 C 30.324219 220.726562 29.5 221.050781 28.949219 221.699219 C 28.351562 222.398438 28.050781 223.449219 28.050781 224.851562 C 28.050781 226.300781 28.351562 227.375 28.949219 228.074219 C 29.5 228.773438 30.324219 229.125 31.425781 229.125 "/>
<path style=" stroke:none;fill-rule:nonzero;fill:rgb(0%,0%,0%);fill-opacity:1;" d="M 182.851562 200.851562 L 184.273438 200.851562 L 184.273438 205.351562 L 189.675781 205.351562 L 189.675781 200.851562 L 191.101562 200.851562 L 191.101562 211.425781 L 189.675781 211.425781 L 189.675781 206.550781 L 184.273438 206.550781 L 184.273438 211.425781 L 182.851562 211.425781 L 182.851562 200.851562 "/>
</g>
</svg>
