<?xml version="1.0" encoding="UTF-8"?>
<svg xmlns="http://www.w3.org/2000/svg" xmlns:xlink="http://www.w3.org/1999/xlink" width="375pt" height="375pt" viewBox="0 0 375 375" version="1.1">
<g id="surface241">
<rect x="0" y="0" width="375" height="375" style="fill:rgb(100%,100%,100%);fill-opacity:1;stroke:none;"/>
<path style="fill:none;stroke-width:2;stroke-linecap:butt;stroke-linejoin:miter;stroke:rgb(0%,0%,0%);stroke-opacity:1;stroke-miterlimit:4;" d="M 22.697917 341.598958 L 52.302083 350.197917 " transform="matrix(0.75,0,0,0.75,0,0)"/>
<path style="fill:none;stroke-width:2;stroke-linecap:butt;stroke-linejoin:miter;stroke:rgb(0%,0%,0%);stroke-opacity:1;stroke-miterlimit:4;" d="M 52.302083 350.197917 L 61.302083 341.697917 " transform="matrix(0.75,0,0,0.75,0,0)"/>
<path style="fill:none;stroke-width:2;stroke-linecap:butt;stroke-linejoin:miter;stroke:rgb(0%,0%,100%);stroke-opacity:1;stroke-miterlimit:4;" d="M 61.302083 341.697917 L 70.302083 333.098958 " transform="matrix(0.75,0,0,0.75,0,0)"/>
<path style="fill:none;stroke-width:2;stroke-linecap:butt;stroke-linejoin:miter;stroke:rgb(0%,0%,100%);stroke-opacity:1;stroke-miterlimit:4;" d="M 73.302083 323.5 L 70.302083 311.197917 " transform="matrix(0.75,0,0,0.75,0,0)"/>
<path style="fill:none;stroke-width:2;stroke-linecap:butt;stroke-linejoin:miter;stroke:rgb(0%,0%,0%);stroke-opacity:1;stroke-miterlimit:4;" d="M 70.302083 311.197917 L 67.302083 299 " transform="matrix(0.75,0,0,0.75,0,0)"/>
<path style="fill:none;stroke-width:2;stroke-linecap:butt;stroke-linejoin:miter;stroke:rgb(0%,0%,0%);stroke-opacity:1;stroke-miterlimit:4;" d="M 67.302083 299 L 89.5 277.598958 " transform="matrix(0.75,0,0,0.75,0,0)"/>
<path style="fill:none;stroke-width:2;stroke-linecap:butt;stroke-linejoin:miter;stroke:rgb(0%,0%,0%);stroke-opacity:1;stroke-miterlimit:4;" d="M 89.5 277.598958 L 102.197917 281.302083 " transform="matrix(0.75,0,0,0.75,0,0)"/>
<path style="fill:none;stroke-width:2;stroke-linecap:butt;stroke-linejoin:miter;stroke:rgb(0%,0%,100%);stroke-opacity:1;stroke-miterlimit:4;" d="M 102.197917 281.302083 L 114.802083 285 " transform="matrix(0.75,0,0,0.75,0,0)"/>
<path style="fill:none;stroke-width:2;stroke-linecap:butt;stroke-linejoin:miter;stroke:rgb(0%,0%,100%);stroke-opacity:1;stroke-miterlimit:4;" d="M 123.5 282.098958 L 132.401042 273.5 " transform="matrix(0.75,0,0,0.75,0,0)"/>
<path style="fill:none;stroke-width:2;stroke-linecap:butt;stroke-linejoin:miter;stroke:rgb(0%,0%,0%);stroke-opacity:1;stroke-miterlimit:4;" d="M 132.401042 273.5 L 141.401042 264.901042 " transform="matrix(0.75,0,0,0.75,0,0)"/>
<path style="fill:none;stroke-width:2;stroke-linecap:butt;stroke-linejoin:miter;stroke:rgb(0%,0%,0%);stroke-opacity:1;stroke-miterlimit:4;" d="M 138.401042 265.598958 L 135.401042 253.5 " transform="matrix(0.75,0,0,0.75,0,0)"/>
<path style="fill:none;stroke-width:2;stroke-linecap:butt;stroke-linejoin:miter;stroke:rgb(100%,0%,0%);stroke-opacity:1;stroke-miterlimit:4;" d="M 135.401042 253.5 L 132.401042 241.302083 " transform="matrix(0.75,0,0,0.75,0,0)"/>
<path style="fill:none;stroke-width:2;stroke-linecap:butt;stroke-linejoin:miter;stroke:rgb(0%,0%,0%);stroke-opacity:1;stroke-miterlimit:4;" d="M 144.401042 264.197917 L 141.401042 252 " transform="matrix(0.75,0,0,0.75,0,0)"/>
<path style="fill:none;stroke-width:2;stroke-linecap:butt;stroke-linejoin:miter;stroke:rgb(100%,0%,0%);stroke-opacity:1;stroke-miterlimit:4;" d="M 141.401042 252 L 138.401042 239.802083 " transform="matrix(0.75,0,0,0.75,0,0)"/>
<path style="fill:none;stroke-width:2;stroke-linecap:butt;stroke-linejoin:miter;stroke:rgb(0%,0%,0%);stroke-opacity:1;stroke-miterlimit:4;" d="M 141.401042 264.901042 L 154 268.598958 " transform="matrix(0.75,0,0,0.75,0,0)"/>
<path style="fill:none;stroke-width:2;stroke-linecap:butt;stroke-linejoin:miter;stroke:rgb(0%,0%,100%);stroke-opacity:1;stroke-miterlimit:4;" d="M 154 268.598958 L 166.697917 272.302083 " transform="matrix(0.75,0,0,0.75,0,0)"/>
<path style="fill:none;stroke-width:1;stroke-linecap:butt;stroke-linejoin:miter;stroke:rgb(0%,0%,0%);stroke-opacity:1;stroke-miterlimit:4;" d="M 188.5 255.697917 L 189.598958 256.802083 " transform="matrix(0.75,0,0,0.75,0,0)"/>
<path style="fill:none;stroke-width:1;stroke-linecap:butt;stroke-linejoin:miter;stroke:rgb(0%,0%,0%);stroke-opacity:1;stroke-miterlimit:4;" d="M 183.802083 259.197917 L 185.901042 261.401042 " transform="matrix(0.75,0,0,0.75,0,0)"/>
<path style="fill:none;stroke-width:1;stroke-linecap:butt;stroke-linejoin:miter;stroke:rgb(0%,0%,100%);stroke-opacity:1;stroke-miterlimit:4;" d="M 179 262.697917 L 182.197917 266 " transform="matrix(0.75,0,0,0.75,0,0)"/>
<path style="fill:none;stroke-width:1;stroke-linecap:butt;stroke-linejoin:miter;stroke:rgb(0%,0%,100%);stroke-opacity:1;stroke-miterlimit:4;" d="M 174.197917 266.197917 L 178.5 270.598958 " transform="matrix(0.75,0,0,0.75,0,0)"/>
<path style="fill:none;stroke-width:2;stroke-linecap:butt;stroke-linejoin:miter;stroke:rgb(0%,0%,0%);stroke-opacity:1;stroke-miterlimit:4;" d="M 193.302083 252.197917 L 222.901042 260.802083 " transform="matrix(0.75,0,0,0.75,0,0)"/>
<path style="fill:none;stroke-width:2;stroke-linecap:butt;stroke-linejoin:miter;stroke:rgb(0%,0%,0%);stroke-opacity:1;stroke-miterlimit:4;" d="M 220.802083 258.598958 L 229.401042 250.302083 " transform="matrix(0.75,0,0,0.75,0,0)"/>
<path style="fill:none;stroke-width:2;stroke-linecap:butt;stroke-linejoin:miter;stroke:rgb(100%,0%,0%);stroke-opacity:1;stroke-miterlimit:4;" d="M 229.401042 250.302083 L 238 242.098958 " transform="matrix(0.75,0,0,0.75,0,0)"/>
<path style="fill:none;stroke-width:2;stroke-linecap:butt;stroke-linejoin:miter;stroke:rgb(0%,0%,0%);stroke-opacity:1;stroke-miterlimit:4;" d="M 225 263 L 233.598958 254.802083 " transform="matrix(0.75,0,0,0.75,0,0)"/>
<path style="fill:none;stroke-width:2;stroke-linecap:butt;stroke-linejoin:miter;stroke:rgb(100%,0%,0%);stroke-opacity:1;stroke-miterlimit:4;" d="M 233.598958 254.802083 L 242.302083 246.5 " transform="matrix(0.75,0,0,0.75,0,0)"/>
<path style="fill:none;stroke-width:2;stroke-linecap:butt;stroke-linejoin:miter;stroke:rgb(0%,0%,0%);stroke-opacity:1;stroke-miterlimit:4;" d="M 222.901042 260.802083 L 225.901042 273.098958 " transform="matrix(0.75,0,0,0.75,0,0)"/>
<path style="fill:none;stroke-width:2;stroke-linecap:butt;stroke-linejoin:miter;stroke:rgb(0%,0%,100%);stroke-opacity:1;stroke-miterlimit:4;" d="M 225.901042 273.098958 L 228.901042 285.401042 " transform="matrix(0.75,0,0,0.75,0,0)"/>
<path style="fill-rule:evenodd;fill:rgb(0%,0%,0%);fill-opacity:1;stroke-width:1;stroke-linecap:butt;stroke-linejoin:miter;stroke:rgb(0%,0%,0%);stroke-opacity:1;stroke-miterlimit:4;" d="M 259.802083 299.401042 L 247.302083 297.302083 L 248.098958 294.401042 Z M 259.802083 299.401042 " transform="matrix(0.75,0,0,0.75,0,0)"/>
<path style="fill-rule:evenodd;fill:rgb(0%,0%,100%);fill-opacity:1;stroke-width:1;stroke-linecap:butt;stroke-linejoin:miter;stroke:rgb(0%,0%,100%);stroke-opacity:1;stroke-miterlimit:4;" d="M 247.302083 297.302083 L 236.401042 289.401042 L 234.697917 295.302083 Z M 247.302083 297.302083 " transform="matrix(0.75,0,0,0.75,0,0)"/>
<path style="fill-rule:evenodd;fill:rgb(0%,0%,100%);fill-opacity:1;stroke-width:1;stroke-linecap:butt;stroke-linejoin:miter;stroke:rgb(0%,0%,100%);stroke-opacity:1;stroke-miterlimit:4;" d="M 247.302083 297.302083 L 248.098958 294.401042 L 236.401042 289.401042 Z M 247.302083 297.302083 " transform="matrix(0.75,0,0,0.75,0,0)"/>
<path style="fill:none;stroke-width:2;stroke-linecap:butt;stroke-linejoin:miter;stroke:rgb(0%,0%,0%);stroke-opacity:1;stroke-miterlimit:4;" d="M 259.802083 299.401042 L 274.697917 326.401042 " transform="matrix(0.75,0,0,0.75,0,0)"/>
<path style="fill:none;stroke-width:2;stroke-linecap:butt;stroke-linejoin:miter;stroke:rgb(0%,0%,0%);stroke-opacity:1;stroke-miterlimit:4;" d="M 277.697917 327.302083 L 274.098958 339.401042 " transform="matrix(0.75,0,0,0.75,0,0)"/>
<path style="fill:none;stroke-width:2;stroke-linecap:butt;stroke-linejoin:miter;stroke:rgb(100%,0%,0%);stroke-opacity:1;stroke-miterlimit:4;" d="M 274.098958 339.401042 L 270.598958 351.401042 " transform="matrix(0.75,0,0,0.75,0,0)"/>
<path style="fill:none;stroke-width:2;stroke-linecap:butt;stroke-linejoin:miter;stroke:rgb(0%,0%,0%);stroke-opacity:1;stroke-miterlimit:4;" d="M 271.697917 325.5 L 268.197917 337.598958 " transform="matrix(0.75,0,0,0.75,0,0)"/>
<path style="fill:none;stroke-width:2;stroke-linecap:butt;stroke-linejoin:miter;stroke:rgb(100%,0%,0%);stroke-opacity:1;stroke-miterlimit:4;" d="M 268.197917 337.598958 L 264.697917 349.697917 " transform="matrix(0.75,0,0,0.75,0,0)"/>
<path style="fill:none;stroke-width:2;stroke-linecap:butt;stroke-linejoin:miter;stroke:rgb(0%,0%,0%);stroke-opacity:1;stroke-miterlimit:4;" d="M 274.697917 326.401042 L 286 320.197917 " transform="matrix(0.75,0,0,0.75,0,0)"/>
<path style="fill:none;stroke-width:2;stroke-linecap:butt;stroke-linejoin:miter;stroke:rgb(0%,0%,100%);stroke-opacity:1;stroke-miterlimit:4;" d="M 286 320.197917 L 297.401042 313.901042 " transform="matrix(0.75,0,0,0.75,0,0)"/>
<path style="fill:none;stroke-width:2;stroke-linecap:butt;stroke-linejoin:miter;stroke:rgb(0%,0%,100%);stroke-opacity:1;stroke-miterlimit:4;" d="M 306.098958 311.697917 L 319.302083 311.901042 " transform="matrix(0.75,0,0,0.75,0,0)"/>
<path style="fill:none;stroke-width:2;stroke-linecap:butt;stroke-linejoin:miter;stroke:rgb(0%,0%,0%);stroke-opacity:1;stroke-miterlimit:4;" d="M 319.302083 311.901042 L 332.598958 312.197917 " transform="matrix(0.75,0,0,0.75,0,0)"/>
<path style="fill:none;stroke-width:2;stroke-linecap:butt;stroke-linejoin:miter;stroke:rgb(0%,0%,0%);stroke-opacity:1;stroke-miterlimit:4;" d="M 332.598958 312.197917 L 347.401042 339.197917 " transform="matrix(0.75,0,0,0.75,0,0)"/>
<path style="fill:none;stroke-width:2;stroke-linecap:butt;stroke-linejoin:miter;stroke:rgb(0%,0%,0%);stroke-opacity:1;stroke-miterlimit:4;" d="M 350 340.802083 L 343.697917 351.302083 " transform="matrix(0.75,0,0,0.75,0,0)"/>
<path style="fill:none;stroke-width:2;stroke-linecap:butt;stroke-linejoin:miter;stroke:rgb(100%,0%,0%);stroke-opacity:1;stroke-miterlimit:4;" d="M 343.697917 351.302083 L 337.302083 361.802083 " transform="matrix(0.75,0,0,0.75,0,0)"/>
<path style="fill:none;stroke-width:2;stroke-linecap:butt;stroke-linejoin:miter;stroke:rgb(0%,0%,0%);stroke-opacity:1;stroke-miterlimit:4;" d="M 344.802083 337.598958 L 338.401042 348.098958 " transform="matrix(0.75,0,0,0.75,0,0)"/>
<path style="fill:none;stroke-width:2;stroke-linecap:butt;stroke-linejoin:miter;stroke:rgb(100%,0%,0%);stroke-opacity:1;stroke-miterlimit:4;" d="M 338.401042 348.098958 L 332.098958 358.598958 " transform="matrix(0.75,0,0,0.75,0,0)"/>
<path style="fill:none;stroke-width:2;stroke-linecap:butt;stroke-linejoin:miter;stroke:rgb(0%,0%,0%);stroke-opacity:1;stroke-miterlimit:4;" d="M 347.401042 339.197917 L 360.302083 339.5 " transform="matrix(0.75,0,0,0.75,0,0)"/>
<path style="fill:none;stroke-width:2;stroke-linecap:butt;stroke-linejoin:miter;stroke:rgb(100%,0%,0%);stroke-opacity:1;stroke-miterlimit:4;" d="M 360.302083 339.5 L 373.197917 339.802083 " transform="matrix(0.75,0,0,0.75,0,0)"/>
<path style="fill:none;stroke-width:2;stroke-linecap:butt;stroke-linejoin:miter;stroke:rgb(0%,0%,0%);stroke-opacity:1;stroke-miterlimit:4;" d="M 332.598958 312.197917 L 348.5 285.802083 " transform="matrix(0.75,0,0,0.75,0,0)"/>
<path style="fill:none;stroke-width:2;stroke-linecap:butt;stroke-linejoin:miter;stroke:rgb(0%,0%,0%);stroke-opacity:1;stroke-miterlimit:4;" d="M 329.697917 305.098958 L 340.901042 286.598958 " transform="matrix(0.75,0,0,0.75,0,0)"/>
<path style="fill:none;stroke-width:2;stroke-linecap:butt;stroke-linejoin:miter;stroke:rgb(0%,0%,0%);stroke-opacity:1;stroke-miterlimit:4;" d="M 348.5 285.802083 L 379.401042 286.5 " transform="matrix(0.75,0,0,0.75,0,0)"/>
<path style="fill:none;stroke-width:2;stroke-linecap:butt;stroke-linejoin:miter;stroke:rgb(0%,0%,0%);stroke-opacity:1;stroke-miterlimit:4;" d="M 379.401042 286.5 L 385.697917 276.098958 " transform="matrix(0.75,0,0,0.75,0,0)"/>
<path style="fill:none;stroke-width:2;stroke-linecap:butt;stroke-linejoin:miter;stroke:rgb(80%,80%,0%);stroke-opacity:1;stroke-miterlimit:4;" d="M 385.697917 276.098958 L 392 265.697917 " transform="matrix(0.75,0,0,0.75,0,0)"/>
<path style="fill:none;stroke-width:2;stroke-linecap:butt;stroke-linejoin:miter;stroke:rgb(80%,80%,0%);stroke-opacity:1;stroke-miterlimit:4;" d="M 399.197917 260.197917 L 412.697917 260.5 " transform="matrix(0.75,0,0,0.75,0,0)"/>
<path style="fill:none;stroke-width:2;stroke-linecap:butt;stroke-linejoin:miter;stroke:rgb(0%,0%,0%);stroke-opacity:1;stroke-miterlimit:4;" d="M 412.697917 260.5 L 426.197917 260.802083 " transform="matrix(0.75,0,0,0.75,0,0)"/>
<path style="fill:none;stroke-width:2;stroke-linecap:butt;stroke-linejoin:miter;stroke:rgb(0%,0%,0%);stroke-opacity:1;stroke-miterlimit:4;" d="M 426.197917 260.802083 L 433.5 251.197917 " transform="matrix(0.75,0,0,0.75,0,0)"/>
<path style="fill:none;stroke-width:2;stroke-linecap:butt;stroke-linejoin:miter;stroke:rgb(0%,0%,100%);stroke-opacity:1;stroke-miterlimit:4;" d="M 433.5 251.197917 L 440.802083 241.598958 " transform="matrix(0.75,0,0,0.75,0,0)"/>
<path style="fill:none;stroke-width:2;stroke-linecap:butt;stroke-linejoin:miter;stroke:rgb(0%,0%,0%);stroke-opacity:1;stroke-miterlimit:4;" d="M 433.302083 261.598958 L 438.401042 254.901042 " transform="matrix(0.75,0,0,0.75,0,0)"/>
<path style="fill:none;stroke-width:2;stroke-linecap:butt;stroke-linejoin:miter;stroke:rgb(0%,0%,100%);stroke-opacity:1;stroke-miterlimit:4;" d="M 438.401042 254.901042 L 443.5 248.197917 " transform="matrix(0.75,0,0,0.75,0,0)"/>
<path style="fill:none;stroke-width:2;stroke-linecap:butt;stroke-linejoin:miter;stroke:rgb(0%,0%,100%);stroke-opacity:1;stroke-miterlimit:4;" d="M 449.197917 237.697917 L 469.598958 244.901042 " transform="matrix(0.75,0,0,0.75,0,0)"/>
<path style="fill:none;stroke-width:2;stroke-linecap:butt;stroke-linejoin:miter;stroke:rgb(0%,0%,100%);stroke-opacity:1;stroke-miterlimit:4;" d="M 473.802083 251.802083 L 473.401042 271.802083 " transform="matrix(0.75,0,0,0.75,0,0)"/>
<path style="fill:none;stroke-width:2;stroke-linecap:butt;stroke-linejoin:miter;stroke:rgb(0%,0%,100%);stroke-opacity:1;stroke-miterlimit:4;" d="M 467.598958 254.697917 L 467.302083 268.697917 " transform="matrix(0.75,0,0,0.75,0,0)"/>
<path style="fill:none;stroke-width:2;stroke-linecap:butt;stroke-linejoin:miter;stroke:rgb(0%,0%,100%);stroke-opacity:1;stroke-miterlimit:4;" d="M 469 278.5 L 448.098958 284.802083 " transform="matrix(0.75,0,0,0.75,0,0)"/>
<path style="fill:none;stroke-width:2;stroke-linecap:butt;stroke-linejoin:miter;stroke:rgb(0%,0%,100%);stroke-opacity:1;stroke-miterlimit:4;" d="M 441.901042 291.5 L 437.802083 303.401042 " transform="matrix(0.75,0,0,0.75,0,0)"/>
<path style="fill:none;stroke-width:2;stroke-linecap:butt;stroke-linejoin:miter;stroke:rgb(0%,0%,0%);stroke-opacity:1;stroke-miterlimit:4;" d="M 437.802083 303.401042 L 433.598958 315.197917 " transform="matrix(0.75,0,0,0.75,0,0)"/>
<path style="fill:none;stroke-width:2;stroke-linecap:butt;stroke-linejoin:miter;stroke:rgb(0%,0%,0%);stroke-opacity:1;stroke-miterlimit:4;" d="M 348.5 285.802083 L 333.697917 258.802083 " transform="matrix(0.75,0,0,0.75,0,0)"/>
<path style="fill:none;stroke-width:2;stroke-linecap:butt;stroke-linejoin:miter;stroke:rgb(0%,0%,0%);stroke-opacity:1;stroke-miterlimit:4;" d="M 333.697917 258.802083 L 320.197917 258.5 " transform="matrix(0.75,0,0,0.75,0,0)"/>
<path style="fill:none;stroke-width:2;stroke-linecap:butt;stroke-linejoin:miter;stroke:rgb(80%,80%,0%);stroke-opacity:1;stroke-miterlimit:4;" d="M 320.197917 258.5 L 306.697917 258.197917 " transform="matrix(0.75,0,0,0.75,0,0)"/>
<path style="fill:none;stroke-width:2;stroke-linecap:butt;stroke-linejoin:miter;stroke:rgb(80%,80%,0%);stroke-opacity:1;stroke-miterlimit:4;" d="M 299.5 263.802083 L 293.197917 274.098958 " transform="matrix(0.75,0,0,0.75,0,0)"/>
<path style="fill:none;stroke-width:2;stroke-linecap:butt;stroke-linejoin:miter;stroke:rgb(0%,0%,0%);stroke-opacity:1;stroke-miterlimit:4;" d="M 293.197917 274.098958 L 286.901042 284.5 " transform="matrix(0.75,0,0,0.75,0,0)"/>
<path style="fill:none;stroke-width:2;stroke-linecap:butt;stroke-linejoin:miter;stroke:rgb(0%,0%,0%);stroke-opacity:1;stroke-miterlimit:4;" d="M 193.302083 252.197917 L 185.901042 222.197917 " transform="matrix(0.75,0,0,0.75,0,0)"/>
<path style="fill:none;stroke-width:2;stroke-linecap:butt;stroke-linejoin:miter;stroke:rgb(0%,0%,0%);stroke-opacity:1;stroke-miterlimit:4;" d="M 185.901042 222.197917 L 208.197917 200.901042 " transform="matrix(0.75,0,0,0.75,0,0)"/>
<path style="fill:none;stroke-width:2;stroke-linecap:butt;stroke-linejoin:miter;stroke:rgb(0%,0%,0%);stroke-opacity:1;stroke-miterlimit:4;" d="M 185 214.598958 L 200.598958 199.598958 " transform="matrix(0.75,0,0,0.75,0,0)"/>
<path style="fill:none;stroke-width:2;stroke-linecap:butt;stroke-linejoin:miter;stroke:rgb(0%,0%,0%);stroke-opacity:1;stroke-miterlimit:4;" d="M 208.197917 200.901042 L 200.901042 171 " transform="matrix(0.75,0,0,0.75,0,0)"/>
<path style="fill:none;stroke-width:2;stroke-linecap:butt;stroke-linejoin:miter;stroke:rgb(0%,0%,0%);stroke-opacity:1;stroke-miterlimit:4;" d="M 200.901042 171 L 171.302083 162.302083 " transform="matrix(0.75,0,0,0.75,0,0)"/>
<path style="fill:none;stroke-width:2;stroke-linecap:butt;stroke-linejoin:miter;stroke:rgb(0%,0%,0%);stroke-opacity:1;stroke-miterlimit:4;" d="M 194.697917 175.598958 L 174 169.5 " transform="matrix(0.75,0,0,0.75,0,0)"/>
<path style="fill:none;stroke-width:2;stroke-linecap:butt;stroke-linejoin:miter;stroke:rgb(0%,0%,0%);stroke-opacity:1;stroke-miterlimit:4;" d="M 171.302083 162.302083 L 168.302083 150.098958 " transform="matrix(0.75,0,0,0.75,0,0)"/>
<path style="fill:none;stroke-width:2;stroke-linecap:butt;stroke-linejoin:miter;stroke:rgb(100%,0%,0%);stroke-opacity:1;stroke-miterlimit:4;" d="M 168.302083 150.098958 L 165.302083 138 " transform="matrix(0.75,0,0,0.75,0,0)"/>
<path style="fill:none;stroke-width:2;stroke-linecap:butt;stroke-linejoin:miter;stroke:rgb(0%,0%,0%);stroke-opacity:1;stroke-miterlimit:4;" d="M 171.302083 162.302083 L 149 183.697917 " transform="matrix(0.75,0,0,0.75,0,0)"/>
<path style="fill:none;stroke-width:2;stroke-linecap:butt;stroke-linejoin:miter;stroke:rgb(0%,0%,0%);stroke-opacity:1;stroke-miterlimit:4;" d="M 149 183.697917 L 156.302083 213.598958 " transform="matrix(0.75,0,0,0.75,0,0)"/>
<path style="fill:none;stroke-width:2;stroke-linecap:butt;stroke-linejoin:miter;stroke:rgb(0%,0%,0%);stroke-opacity:1;stroke-miterlimit:4;" d="M 156.098958 186.697917 L 161.197917 207.697917 " transform="matrix(0.75,0,0,0.75,0,0)"/>
<path style="fill:none;stroke-width:2;stroke-linecap:butt;stroke-linejoin:miter;stroke:rgb(0%,0%,100%);stroke-opacity:1;stroke-miterlimit:4;" d="M 120.5 291.598958 L 123.5 303.901042 " transform="matrix(0.75,0,0,0.75,0,0)"/>
<path style="fill:none;stroke-width:2;stroke-linecap:butt;stroke-linejoin:miter;stroke:rgb(0%,0%,0%);stroke-opacity:1;stroke-miterlimit:4;" d="M 123.5 303.901042 L 126.5 316.197917 " transform="matrix(0.75,0,0,0.75,0,0)"/>
<path style="fill:none;stroke-width:2;stroke-linecap:butt;stroke-linejoin:miter;stroke:rgb(0%,0%,0%);stroke-opacity:1;stroke-miterlimit:4;" d="M 127.302083 313.197917 L 139.598958 316.802083 " transform="matrix(0.75,0,0,0.75,0,0)"/>
<path style="fill:none;stroke-width:2;stroke-linecap:butt;stroke-linejoin:miter;stroke:rgb(100%,0%,0%);stroke-opacity:1;stroke-miterlimit:4;" d="M 139.598958 316.802083 L 151.901042 320.401042 " transform="matrix(0.75,0,0,0.75,0,0)"/>
<path style="fill:none;stroke-width:2;stroke-linecap:butt;stroke-linejoin:miter;stroke:rgb(0%,0%,0%);stroke-opacity:1;stroke-miterlimit:4;" d="M 125.598958 319.197917 L 137.901042 322.697917 " transform="matrix(0.75,0,0,0.75,0,0)"/>
<path style="fill:none;stroke-width:2;stroke-linecap:butt;stroke-linejoin:miter;stroke:rgb(100%,0%,0%);stroke-opacity:1;stroke-miterlimit:4;" d="M 137.901042 322.697917 L 150.197917 326.302083 " transform="matrix(0.75,0,0,0.75,0,0)"/>
<path style="fill:none;stroke-width:2;stroke-linecap:butt;stroke-linejoin:miter;stroke:rgb(0%,0%,0%);stroke-opacity:1;stroke-miterlimit:4;" d="M 126.5 316.197917 L 104.197917 337.5 " transform="matrix(0.75,0,0,0.75,0,0)"/>
<path style="fill:none;stroke-width:2;stroke-linecap:butt;stroke-linejoin:miter;stroke:rgb(0%,0%,0%);stroke-opacity:1;stroke-miterlimit:4;" d="M 107.197917 336.802083 L 110.197917 349.098958 " transform="matrix(0.75,0,0,0.75,0,0)"/>
<path style="fill:none;stroke-width:2;stroke-linecap:butt;stroke-linejoin:miter;stroke:rgb(100%,0%,0%);stroke-opacity:1;stroke-miterlimit:4;" d="M 110.197917 349.098958 L 113.197917 361.302083 " transform="matrix(0.75,0,0,0.75,0,0)"/>
<path style="fill:none;stroke-width:2;stroke-linecap:butt;stroke-linejoin:miter;stroke:rgb(0%,0%,0%);stroke-opacity:1;stroke-miterlimit:4;" d="M 101.197917 338.302083 L 104.197917 350.5 " transform="matrix(0.75,0,0,0.75,0,0)"/>
<path style="fill:none;stroke-width:2;stroke-linecap:butt;stroke-linejoin:miter;stroke:rgb(100%,0%,0%);stroke-opacity:1;stroke-miterlimit:4;" d="M 104.197917 350.5 L 107.197917 362.802083 " transform="matrix(0.75,0,0,0.75,0,0)"/>
<path style="fill:none;stroke-width:2;stroke-linecap:butt;stroke-linejoin:miter;stroke:rgb(0%,0%,0%);stroke-opacity:1;stroke-miterlimit:4;" d="M 104.197917 337.5 L 91.598958 333.901042 " transform="matrix(0.75,0,0,0.75,0,0)"/>
<path style="fill:none;stroke-width:2;stroke-linecap:butt;stroke-linejoin:miter;stroke:rgb(0%,0%,100%);stroke-opacity:1;stroke-miterlimit:4;" d="M 91.598958 333.901042 L 78.901042 330.197917 " transform="matrix(0.75,0,0,0.75,0,0)"/>
<path style="fill:none;stroke-width:2;stroke-linecap:butt;stroke-linejoin:miter;stroke:rgb(0%,0%,0%);stroke-opacity:1;stroke-miterlimit:4;" d="M 286.901042 284.5 L 259.802083 299.401042 " transform="matrix(0.75,0,0,0.75,0,0)"/>
<path style="fill:none;stroke-width:2;stroke-linecap:butt;stroke-linejoin:miter;stroke:rgb(0%,0%,0%);stroke-opacity:1;stroke-miterlimit:4;" d="M 156.302083 213.598958 L 185.901042 222.197917 " transform="matrix(0.75,0,0,0.75,0,0)"/>
<path style="fill:none;stroke-width:2;stroke-linecap:butt;stroke-linejoin:miter;stroke:rgb(0%,0%,0%);stroke-opacity:1;stroke-miterlimit:4;" d="M 286.901042 284.5 L 292.802083 295.401042 " transform="matrix(0.75,0,0,0.75,0,0)"/>
<path style="fill:none;stroke-width:2;stroke-linecap:butt;stroke-linejoin:miter;stroke:rgb(0%,0%,100%);stroke-opacity:1;stroke-miterlimit:4;" d="M 292.802083 295.401042 L 298.802083 306.197917 " transform="matrix(0.75,0,0,0.75,0,0)"/>
<path style="fill:none;stroke-width:2;stroke-linecap:butt;stroke-linejoin:miter;stroke:rgb(0%,0%,100%);stroke-opacity:1;stroke-miterlimit:4;" d="M 440 280.697917 L 433.098958 270.802083 " transform="matrix(0.75,0,0,0.75,0,0)"/>
<path style="fill:none;stroke-width:2;stroke-linecap:butt;stroke-linejoin:miter;stroke:rgb(0%,0%,0%);stroke-opacity:1;stroke-miterlimit:4;" d="M 433.098958 270.802083 L 426.197917 260.802083 " transform="matrix(0.75,0,0,0.75,0,0)"/>
<path style="fill:none;stroke-width:1;stroke-linecap:butt;stroke-linejoin:miter;stroke:rgb(0%,0%,0%);stroke-opacity:1;stroke-miterlimit:4;" d="M 283.5 279.901042 L 282.302083 280.901042 " transform="matrix(0.75,0,0,0.75,0,0)"/>
<path style="fill:none;stroke-width:1;stroke-linecap:butt;stroke-linejoin:miter;stroke:rgb(0%,0%,0%);stroke-opacity:1;stroke-miterlimit:4;" d="M 280 275.197917 L 277.802083 277.302083 " transform="matrix(0.75,0,0,0.75,0,0)"/>
<path style="fill:none;stroke-width:1;stroke-linecap:butt;stroke-linejoin:miter;stroke:rgb(0%,0%,0%);stroke-opacity:1;stroke-miterlimit:4;" d="M 276.598958 270.5 L 273.302083 273.697917 " transform="matrix(0.75,0,0,0.75,0,0)"/>
<path style="fill:none;stroke-width:1;stroke-linecap:butt;stroke-linejoin:miter;stroke:rgb(0%,0%,0%);stroke-opacity:1;stroke-miterlimit:4;" d="M 273.197917 265.802083 L 268.802083 270.098958 " transform="matrix(0.75,0,0,0.75,0,0)"/>
<path style=" stroke:none;fill-rule:nonzero;fill:rgb(0%,0%,100%);fill-opacity:1;" d="M 54.523438 243.375 L 56.625 246.898438 C 56.773438 247.101562 56.976562 247.425781 57.226562 247.875 C 57.425781 248.273438 57.550781 248.476562 57.601562 248.476562 L 57.601562 243.375 L 58.425781 243.375 L 58.425781 249.976562 L 57.523438 249.976562 L 55.199219 246.148438 C 55.050781 245.851562 54.875 245.550781 54.675781 245.25 C 54.476562 244.898438 54.351562 244.675781 54.300781 244.574219 L 54.300781 249.976562 L 53.476562 249.976562 L 53.476562 243.375 L 54.523438 243.375 "/>
<path style=" stroke:none;fill-rule:nonzero;fill:rgb(0%,0%,100%);fill-opacity:1;" d="M 87.898438 211.425781 L 90.074219 214.875 C 90.226562 215.125 90.398438 215.449219 90.601562 215.851562 C 90.851562 216.25 90.976562 216.476562 90.976562 216.523438 L 90.976562 211.425781 L 91.875 211.425781 L 91.875 217.949219 L 90.976562 217.949219 L 88.648438 214.199219 C 88.449219 213.898438 88.25 213.574219 88.050781 213.226562 C 87.898438 212.875 87.800781 212.648438 87.75 212.550781 L 87.75 217.949219 L 86.851562 217.949219 L 86.851562 211.425781 L 87.898438 211.425781 "/>
<path style=" stroke:none;fill-rule:nonzero;fill:rgb(100%,0%,0%);fill-opacity:1;" d="M 97.574219 176.25 C 97.574219 175.199219 97.824219 174.375 98.324219 173.773438 C 98.824219 173.175781 99.574219 172.875 100.574219 172.875 C 101.523438 172.875 102.25 173.175781 102.75 173.773438 C 103.300781 174.375 103.574219 175.199219 103.574219 176.25 C 103.574219 177.300781 103.300781 178.125 102.75 178.726562 C 102.25 179.324219 101.523438 179.625 100.574219 179.625 C 99.574219 179.625 98.824219 179.324219 98.324219 178.726562 C 97.824219 178.125 97.574219 177.300781 97.574219 176.25 M 100.574219 178.875 C 101.226562 178.875 101.726562 178.648438 102.074219 178.199219 C 102.425781 177.75 102.601562 177.101562 102.601562 176.25 C 102.601562 175.398438 102.425781 174.75 102.074219 174.300781 C 101.726562 173.851562 101.226562 173.625 100.574219 173.625 C 99.875 173.625 99.351562 173.851562 99 174.300781 C 98.648438 174.75 98.476562 175.398438 98.476562 176.25 C 98.476562 177.101562 98.648438 177.75 99 178.199219 C 99.351562 178.648438 99.875 178.875 100.574219 178.875 "/>
<path style=" stroke:none;fill-rule:nonzero;fill:rgb(0%,0%,100%);fill-opacity:1;" d="M 126.824219 201.898438 L 128.925781 205.351562 C 129.074219 205.550781 129.273438 205.875 129.523438 206.324219 C 129.726562 206.726562 129.851562 206.925781 129.898438 206.925781 L 129.898438 201.898438 L 130.726562 201.898438 L 130.726562 208.425781 L 129.824219 208.425781 L 127.574219 204.601562 C 127.375 204.300781 127.175781 204 126.976562 203.699219 C 126.773438 203.351562 126.648438 203.125 126.601562 203.023438 L 126.601562 208.425781 L 125.773438 208.425781 L 125.773438 201.898438 L 126.824219 201.898438 "/>
<path style=" stroke:none;fill-rule:nonzero;fill:rgb(0%,0%,100%);fill-opacity:1;" d="M 125.699219 209.101562 L 126.601562 209.101562 L 126.601562 211.875 L 129.898438 211.875 L 129.898438 209.101562 L 130.800781 209.101562 L 130.800781 215.625 L 129.898438 215.625 L 129.898438 212.625 L 126.601562 212.625 L 126.601562 215.625 L 125.699219 215.625 L 125.699219 209.101562 "/>
<path style=" stroke:none;fill-rule:nonzero;fill:rgb(100%,0%,0%);fill-opacity:1;" d="M 180.898438 179.625 C 180.898438 178.574219 181.148438 177.75 181.648438 177.148438 C 182.148438 176.601562 182.898438 176.324219 183.898438 176.324219 C 184.851562 176.324219 185.574219 176.601562 186.074219 177.148438 C 186.625 177.75 186.898438 178.574219 186.898438 179.625 C 186.898438 180.675781 186.625 181.5 186.074219 182.101562 C 185.574219 182.699219 184.851562 183 183.898438 183 C 182.898438 183 182.148438 182.699219 181.648438 182.101562 C 181.148438 181.5 180.898438 180.675781 180.898438 179.625 M 183.898438 182.25 C 184.550781 182.25 185.050781 182.023438 185.398438 181.574219 C 185.75 181.125 185.925781 180.476562 185.925781 179.625 C 185.925781 178.773438 185.75 178.125 185.398438 177.675781 C 185.050781 177.226562 184.550781 177 183.898438 177 C 183.199219 177 182.675781 177.226562 182.324219 177.675781 C 181.976562 178.125 181.800781 178.773438 181.800781 179.625 C 181.800781 180.523438 181.976562 181.175781 182.324219 181.574219 C 182.675781 182.023438 183.199219 182.25 183.898438 182.25 "/>
<path style=" stroke:none;fill-rule:nonzero;fill:rgb(0%,0%,100%);fill-opacity:1;" d="M 164.25 214.800781 L 165.148438 214.800781 L 165.148438 217.574219 L 168.523438 217.574219 L 168.523438 214.800781 L 169.425781 214.800781 L 169.425781 221.324219 L 168.523438 221.324219 L 168.523438 218.324219 L 165.148438 218.324219 L 165.148438 221.324219 L 164.25 221.324219 L 164.25 214.800781 "/>
<path style=" stroke:none;fill-rule:nonzero;fill:rgb(0%,0%,100%);fill-opacity:1;" d="M 171.226562 214.800781 L 173.398438 218.25 C 173.550781 218.5 173.726562 218.824219 173.925781 219.226562 C 174.175781 219.625 174.300781 219.851562 174.300781 219.898438 L 174.300781 214.800781 L 175.125 214.800781 L 175.125 221.324219 L 174.300781 221.324219 L 171.976562 217.574219 C 171.773438 217.273438 171.574219 216.949219 171.375 216.601562 C 171.226562 216.25 171.125 216.023438 171.074219 215.925781 L 171.074219 221.324219 L 170.175781 221.324219 L 170.175781 214.800781 L 171.226562 214.800781 "/>
<path style=" stroke:none;fill-rule:nonzero;fill:rgb(100%,0%,0%);fill-opacity:1;" d="M 196.574219 267 C 196.574219 265.949219 196.824219 265.148438 197.324219 264.601562 C 197.824219 264 198.574219 263.699219 199.574219 263.699219 C 200.523438 263.699219 201.25 264 201.75 264.601562 C 202.300781 265.148438 202.574219 265.949219 202.574219 267 C 202.574219 268.101562 202.300781 268.949219 201.75 269.550781 C 201.25 270.148438 200.523438 270.449219 199.574219 270.449219 C 198.625 270.449219 197.875 270.148438 197.324219 269.550781 C 196.824219 268.949219 196.574219 268.101562 196.574219 267 M 199.574219 269.699219 C 200.226562 269.699219 200.726562 269.476562 201.074219 269.023438 C 201.425781 268.574219 201.601562 267.898438 201.601562 267 C 201.601562 266.148438 201.425781 265.523438 201.074219 265.125 C 200.726562 264.675781 200.226562 264.449219 199.574219 264.449219 C 198.875 264.449219 198.351562 264.648438 198 265.050781 C 197.648438 265.5 197.476562 266.148438 197.476562 267 C 197.476562 267.898438 197.648438 268.574219 198 269.023438 C 198.351562 269.476562 198.875 269.699219 199.574219 269.699219 "/>
<path style=" stroke:none;fill-rule:nonzero;fill:rgb(0%,0%,100%);fill-opacity:1;" d="M 224.851562 230.398438 L 227.023438 233.851562 C 227.125 234.101562 227.300781 234.425781 227.550781 234.824219 C 227.75 235.226562 227.875 235.449219 227.925781 235.5 L 227.925781 230.398438 L 228.75 230.398438 L 228.75 236.925781 L 227.851562 236.925781 L 225.601562 233.175781 C 225.398438 232.875 225.199219 232.550781 225 232.199219 C 224.851562 231.851562 224.726562 231.625 224.625 231.523438 L 224.625 236.925781 L 223.800781 236.925781 L 223.800781 230.398438 L 224.851562 230.398438 "/>
<path style=" stroke:none;fill-rule:nonzero;fill:rgb(100%,0%,0%);fill-opacity:1;" d="M 245.550781 274.199219 C 245.550781 273.148438 245.800781 272.351562 246.300781 271.800781 C 246.851562 271.199219 247.601562 270.898438 248.550781 270.898438 C 249.5 270.898438 250.25 271.199219 250.800781 271.800781 C 251.300781 272.351562 251.550781 273.148438 251.550781 274.199219 C 251.550781 275.300781 251.300781 276.148438 250.800781 276.75 C 250.25 277.351562 249.5 277.648438 248.550781 277.648438 C 247.601562 277.648438 246.851562 277.351562 246.300781 276.75 C 245.800781 276.148438 245.550781 275.300781 245.550781 274.199219 M 248.550781 276.898438 C 249.199219 276.898438 249.726562 276.675781 250.125 276.226562 C 250.476562 275.773438 250.648438 275.101562 250.648438 274.199219 C 250.648438 273.351562 250.476562 272.726562 250.125 272.324219 C 249.726562 271.875 249.199219 271.648438 248.550781 271.648438 C 247.898438 271.648438 247.398438 271.875 247.050781 272.324219 C 246.648438 272.726562 246.449219 273.351562 246.449219 274.199219 C 246.449219 275.101562 246.648438 275.773438 247.050781 276.226562 C 247.398438 276.675781 247.898438 276.898438 248.550781 276.898438 "/>
<path style=" stroke:none;fill-rule:nonzero;fill:rgb(100%,0%,0%);fill-opacity:1;" d="M 280.648438 254.925781 C 280.648438 253.875 280.925781 253.074219 281.476562 252.523438 C 281.976562 251.925781 282.699219 251.625 283.648438 251.625 C 284.648438 251.625 285.398438 251.925781 285.898438 252.523438 C 286.398438 253.074219 286.648438 253.875 286.648438 254.925781 C 286.648438 256.023438 286.398438 256.875 285.898438 257.476562 C 285.351562 258.074219 284.601562 258.375 283.648438 258.375 C 282.699219 258.375 281.976562 258.074219 281.476562 257.476562 C 280.925781 256.875 280.648438 256.023438 280.648438 254.925781 M 283.648438 257.625 C 284.351562 257.625 284.875 257.398438 285.226562 256.949219 C 285.574219 256.5 285.75 255.824219 285.75 254.925781 C 285.75 254.074219 285.574219 253.449219 285.226562 253.050781 C 284.875 252.601562 284.351562 252.375 283.648438 252.375 C 283 252.375 282.5 252.574219 282.148438 252.976562 C 281.800781 253.425781 281.625 254.074219 281.625 254.925781 C 281.625 255.824219 281.800781 256.5 282.148438 256.949219 C 282.5 257.398438 283 257.625 283.648438 257.625 "/>
<path style=" stroke:none;fill-rule:nonzero;fill:rgb(100%,0%,0%);fill-opacity:1;" d="M 287.175781 251.699219 L 288 251.699219 L 288 254.476562 L 291.375 254.476562 L 291.375 251.699219 L 292.273438 251.699219 L 292.273438 258.226562 L 291.375 258.226562 L 291.375 255.226562 L 288 255.226562 L 288 258.226562 L 287.175781 258.226562 L 287.175781 251.699219 "/>
<path style=" stroke:none;fill-rule:nonzero;fill:rgb(80%,80%,0%);fill-opacity:1;" d="M 294.675781 197.324219 C 294.726562 197.375 294.851562 197.425781 295.050781 197.476562 C 295.25 197.574219 295.449219 197.648438 295.648438 197.699219 C 295.898438 197.75 296.125 197.773438 296.324219 197.773438 C 296.773438 197.773438 297.125 197.675781 297.375 197.476562 C 297.574219 197.273438 297.675781 197 297.675781 196.648438 C 297.675781 196.398438 297.625 196.199219 297.523438 196.050781 C 297.425781 195.898438 297.273438 195.800781 297.074219 195.75 C 296.875 195.648438 296.625 195.550781 296.324219 195.449219 C 295.925781 195.351562 295.625 195.25 295.425781 195.148438 C 295.175781 195.050781 294.976562 194.875 294.824219 194.625 C 294.625 194.375 294.523438 194.050781 294.523438 193.648438 C 294.523438 193.101562 294.726562 192.675781 295.125 192.375 C 295.476562 192.023438 296.023438 191.851562 296.773438 191.851562 C 297.273438 191.851562 297.824219 191.976562 298.425781 192.226562 L 298.199219 192.898438 C 297.648438 192.699219 297.199219 192.601562 296.851562 192.601562 C 296.398438 192.601562 296.050781 192.675781 295.800781 192.824219 C 295.601562 193.023438 295.5 193.273438 295.5 193.574219 C 295.5 193.824219 295.550781 194 295.648438 194.101562 C 295.800781 194.25 295.949219 194.375 296.101562 194.476562 C 296.300781 194.523438 296.550781 194.601562 296.851562 194.699219 C 297.199219 194.851562 297.5 194.976562 297.75 195.074219 C 298 195.226562 298.199219 195.425781 298.351562 195.675781 C 298.550781 195.925781 298.648438 196.25 298.648438 196.648438 C 298.648438 197.25 298.425781 197.726562 297.976562 198.074219 C 297.574219 198.375 297.050781 198.523438 296.398438 198.523438 C 296 198.523438 295.648438 198.476562 295.351562 198.375 C 295.050781 198.324219 294.75 198.226562 294.449219 198.074219 L 294.675781 197.324219 "/>
<path style=" stroke:none;fill-rule:nonzero;fill:rgb(0%,0%,100%);fill-opacity:1;" d="M 332.175781 173.925781 L 334.351562 177.375 C 334.5 177.625 334.675781 177.949219 334.875 178.351562 C 335.125 178.75 335.25 178.976562 335.25 179.023438 L 335.25 173.925781 L 336.148438 173.925781 L 336.148438 180.449219 L 335.25 180.449219 L 332.925781 176.625 C 332.726562 176.375 332.523438 176.074219 332.324219 175.726562 C 332.175781 175.375 332.074219 175.148438 332.023438 175.050781 L 332.023438 180.449219 L 331.125 180.449219 L 331.125 173.925781 L 332.175781 173.925781 "/>
<path style=" stroke:none;fill-rule:nonzero;fill:rgb(0%,0%,100%);fill-opacity:1;" d="M 354 181.5 L 356.175781 184.949219 C 356.324219 185.199219 356.5 185.523438 356.699219 185.925781 C 356.949219 186.375 357.074219 186.601562 357.074219 186.601562 L 357.074219 181.5 L 357.976562 181.5 L 357.976562 188.101562 L 357.074219 188.101562 L 354.75 184.273438 C 354.550781 183.976562 354.375 183.648438 354.226562 183.300781 C 354.023438 183 353.898438 182.773438 353.851562 182.625 L 353.851562 188.101562 L 352.949219 188.101562 L 352.949219 181.5 L 354 181.5 "/>
<path style=" stroke:none;fill-rule:nonzero;fill:rgb(0%,0%,100%);fill-opacity:1;" d="M 353.550781 204.675781 L 355.648438 208.125 C 355.800781 208.324219 356 208.648438 356.25 209.101562 C 356.449219 209.5 356.574219 209.699219 356.625 209.699219 L 356.625 204.675781 L 357.449219 204.675781 L 357.449219 211.199219 L 356.550781 211.199219 L 354.226562 207.375 C 354.074219 207.074219 353.898438 206.773438 353.699219 206.476562 C 353.5 206.125 353.375 205.898438 353.324219 205.800781 L 353.324219 211.199219 L 352.5 211.199219 L 352.5 204.675781 L 353.550781 204.675781 "/>
<path style=" stroke:none;fill-rule:nonzero;fill:rgb(0%,0%,100%);fill-opacity:1;" d="M 331.351562 211.351562 L 333.523438 214.800781 C 333.675781 215 333.851562 215.324219 334.050781 215.773438 C 334.300781 216.175781 334.425781 216.375 334.425781 216.375 L 334.425781 211.351562 L 335.324219 211.351562 L 335.324219 217.875 L 334.425781 217.875 L 332.101562 214.050781 C 331.949219 213.75 331.773438 213.449219 331.574219 213.148438 C 331.375 212.800781 331.25 212.574219 331.199219 212.476562 L 331.199219 217.875 L 330.375 217.875 L 330.375 211.351562 L 331.351562 211.351562 "/>
<path style=" stroke:none;fill-rule:nonzero;fill:rgb(80%,80%,0%);fill-opacity:1;" d="M 225.300781 195.898438 C 225.351562 195.898438 225.476562 195.949219 225.675781 196.050781 C 225.875 196.101562 226.101562 196.148438 226.351562 196.199219 C 226.550781 196.25 226.773438 196.273438 227.023438 196.273438 C 227.425781 196.273438 227.75 196.199219 228 196.050781 C 228.199219 195.800781 228.300781 195.5 228.300781 195.148438 C 228.300781 194.949219 228.25 194.773438 228.148438 194.625 C 228.050781 194.476562 227.898438 194.351562 227.699219 194.25 C 227.5 194.148438 227.25 194.074219 226.949219 194.023438 C 226.550781 193.875 226.25 193.75 226.050781 193.648438 C 225.800781 193.550781 225.601562 193.375 225.449219 193.125 C 225.25 192.875 225.148438 192.574219 225.148438 192.226562 C 225.148438 191.675781 225.351562 191.226562 225.75 190.875 C 226.101562 190.523438 226.648438 190.351562 227.398438 190.351562 C 227.898438 190.351562 228.449219 190.476562 229.050781 190.726562 L 228.824219 191.398438 C 228.273438 191.199219 227.824219 191.101562 227.476562 191.101562 C 227.023438 191.101562 226.675781 191.199219 226.425781 191.398438 C 226.226562 191.550781 226.125 191.773438 226.125 192.074219 C 226.125 192.324219 226.175781 192.523438 226.273438 192.675781 C 226.425781 192.773438 226.574219 192.875 226.726562 192.976562 C 226.925781 193.074219 227.175781 193.175781 227.476562 193.273438 C 227.824219 193.375 228.125 193.476562 228.375 193.574219 C 228.625 193.726562 228.824219 193.925781 228.976562 194.175781 C 229.175781 194.425781 229.273438 194.75 229.273438 195.148438 C 229.273438 195.800781 229.050781 196.273438 228.601562 196.574219 C 228.199219 196.875 227.675781 197.023438 227.023438 197.023438 C 226.625 197.023438 226.273438 197 225.976562 196.949219 C 225.726562 196.851562 225.425781 196.726562 225.074219 196.574219 L 225.300781 195.898438 "/>
<path style=" stroke:none;fill-rule:nonzero;fill:rgb(100%,0%,0%);fill-opacity:1;" d="M 119.925781 99.300781 C 119.925781 98.25 120.175781 97.425781 120.675781 96.824219 C 121.226562 96.273438 121.976562 96 122.925781 96 C 123.875 96 124.625 96.273438 125.175781 96.824219 C 125.675781 97.425781 125.925781 98.25 125.925781 99.300781 C 125.925781 100.351562 125.675781 101.175781 125.175781 101.773438 C 124.625 102.375 123.875 102.675781 122.925781 102.675781 C 121.976562 102.675781 121.226562 102.375 120.675781 101.773438 C 120.175781 101.175781 119.925781 100.351562 119.925781 99.300781 M 122.925781 101.925781 C 123.574219 101.925781 124.101562 101.726562 124.5 101.324219 C 124.851562 100.875 125.023438 100.199219 125.023438 99.300781 C 125.023438 98.449219 124.851562 97.800781 124.5 97.351562 C 124.101562 96.949219 123.574219 96.75 122.925781 96.75 C 122.273438 96.75 121.75 96.949219 121.351562 97.351562 C 121 97.800781 120.824219 98.449219 120.824219 99.300781 C 120.824219 100.199219 121 100.875 121.351562 101.324219 C 121.75 101.726562 122.273438 101.925781 122.925781 101.925781 "/>
<path style=" stroke:none;fill-rule:nonzero;fill:rgb(100%,0%,0%);fill-opacity:1;" d="M 126.375 96.074219 L 127.273438 96.074219 L 127.273438 98.851562 L 130.648438 98.851562 L 130.648438 96.074219 L 131.550781 96.074219 L 131.550781 102.601562 L 130.648438 102.601562 L 130.648438 99.601562 L 127.273438 99.601562 L 127.273438 102.601562 L 126.375 102.601562 L 126.375 96.074219 "/>
<path style=" stroke:none;fill-rule:nonzero;fill:rgb(100%,0%,0%);fill-opacity:1;" d="M 114.074219 243.601562 C 114.074219 242.550781 114.324219 241.75 114.824219 241.199219 C 115.375 240.601562 116.125 240.300781 117.074219 240.300781 C 118.023438 240.300781 118.773438 240.601562 119.324219 241.199219 C 119.824219 241.75 120.074219 242.550781 120.074219 243.601562 C 120.074219 244.699219 119.824219 245.550781 119.324219 246.148438 C 118.773438 246.75 118.023438 247.050781 117.074219 247.050781 C 116.125 247.050781 115.375 246.75 114.824219 246.148438 C 114.324219 245.550781 114.074219 244.699219 114.074219 243.601562 M 117.074219 246.300781 C 117.726562 246.300781 118.226562 246.074219 118.574219 245.625 C 118.976562 245.175781 119.175781 244.5 119.175781 243.601562 C 119.175781 242.75 118.976562 242.125 118.574219 241.726562 C 118.226562 241.273438 117.726562 241.050781 117.074219 241.050781 C 116.425781 241.050781 115.898438 241.25 115.5 241.648438 C 115.148438 242.101562 114.976562 242.75 114.976562 243.601562 C 114.976562 244.5 115.148438 245.175781 115.5 245.625 C 115.898438 246.074219 116.425781 246.300781 117.074219 246.300781 "/>
<path style=" stroke:none;fill-rule:nonzero;fill:rgb(100%,0%,0%);fill-opacity:1;" d="M 80.625 275.625 C 80.625 274.574219 80.898438 273.75 81.449219 273.148438 C 81.949219 272.601562 82.699219 272.324219 83.699219 272.324219 C 84.648438 272.324219 85.375 272.601562 85.875 273.148438 C 86.425781 273.75 86.699219 274.574219 86.699219 275.625 C 86.699219 276.675781 86.425781 277.5 85.875 278.101562 C 85.375 278.699219 84.648438 279 83.699219 279 C 82.699219 279 81.949219 278.699219 81.449219 278.101562 C 80.898438 277.5 80.625 276.675781 80.625 275.625 M 83.699219 278.25 C 84.351562 278.25 84.851562 278.050781 85.199219 277.648438 C 85.550781 277.199219 85.726562 276.523438 85.726562 275.625 C 85.726562 274.773438 85.550781 274.125 85.199219 273.675781 C 84.851562 273.273438 84.351562 273.074219 83.699219 273.074219 C 83 273.074219 82.476562 273.273438 82.125 273.675781 C 81.773438 274.125 81.601562 274.773438 81.601562 275.625 C 81.601562 276.523438 81.773438 277.199219 82.125 277.648438 C 82.476562 278.050781 83 278.25 83.699219 278.25 "/>
<path style=" stroke:none;fill-rule:nonzero;fill:rgb(0%,0%,0%);fill-opacity:1;" d="M 196.574219 193.425781 L 197.476562 193.425781 L 197.476562 196.199219 L 200.851562 196.199219 L 200.851562 193.425781 L 201.75 193.425781 L 201.75 199.949219 L 200.851562 199.949219 L 200.851562 196.949219 L 197.476562 196.949219 L 197.476562 199.949219 L 196.574219 199.949219 L 196.574219 193.425781 "/>
</g>
</svg>
