<?xml version="1.0" encoding="UTF-8"?>
<svg xmlns="http://www.w3.org/2000/svg" xmlns:xlink="http://www.w3.org/1999/xlink" width="375pt" height="375pt" viewBox="0 0 375 375" version="1.1">
<g id="surface121">
<rect x="0" y="0" width="375" height="375" style="fill:rgb(100%,100%,100%);fill-opacity:1;stroke:none;"/>
<path style="fill:none;stroke-width:2;stroke-linecap:butt;stroke-linejoin:miter;stroke:rgb(0%,0%,100%);stroke-opacity:1;stroke-miterlimit:4;" d="M 60.802083 169.901042 L 59.697917 184.197917 " transform="matrix(0.75,0,0,0.75,0,0)"/>
<path style="fill:none;stroke-width:2;stroke-linecap:butt;stroke-linejoin:miter;stroke:rgb(0%,0%,0%);stroke-opacity:1;stroke-miterlimit:4;" d="M 59.697917 184.197917 L 58.598958 198.5 " transform="matrix(0.75,0,0,0.75,0,0)"/>
<path style="fill:none;stroke-width:2;stroke-linecap:butt;stroke-linejoin:miter;stroke:rgb(0%,0%,0%);stroke-opacity:1;stroke-miterlimit:4;" d="M 58.901042 195.5 L 45.302083 202 " transform="matrix(0.75,0,0,0.75,0,0)"/>
<path style="fill:none;stroke-width:2;stroke-linecap:butt;stroke-linejoin:miter;stroke:rgb(100%,0%,0%);stroke-opacity:1;stroke-miterlimit:4;" d="M 45.302083 202 L 31.802083 208.5 " transform="matrix(0.75,0,0,0.75,0,0)"/>
<path style="fill:none;stroke-width:2;stroke-linecap:butt;stroke-linejoin:miter;stroke:rgb(0%,0%,0%);stroke-opacity:1;stroke-miterlimit:4;" d="M 61.098958 200.197917 L 47.598958 206.697917 " transform="matrix(0.75,0,0,0.75,0,0)"/>
<path style="fill:none;stroke-width:2;stroke-linecap:butt;stroke-linejoin:miter;stroke:rgb(100%,0%,0%);stroke-opacity:1;stroke-miterlimit:4;" d="M 47.598958 206.697917 L 34.098958 213.197917 " transform="matrix(0.75,0,0,0.75,0,0)"/>
<path style="fill:none;stroke-width:2;stroke-linecap:butt;stroke-linejoin:miter;stroke:rgb(0%,0%,0%);stroke-opacity:1;stroke-miterlimit:4;" d="M 58.598958 198.5 L 87.401042 218.197917 " transform="matrix(0.75,0,0,0.75,0,0)"/>
<path style="fill:none;stroke-width:2;stroke-linecap:butt;stroke-linejoin:miter;stroke:rgb(0%,0%,0%);stroke-opacity:1;stroke-miterlimit:4;" d="M 87.401042 218.197917 L 118.802083 203.098958 " transform="matrix(0.75,0,0,0.75,0,0)"/>
<path style="fill:none;stroke-width:2;stroke-linecap:butt;stroke-linejoin:miter;stroke:rgb(0%,0%,0%);stroke-opacity:1;stroke-miterlimit:4;" d="M 92.401042 221.598958 L 118.302083 209.098958 " transform="matrix(0.75,0,0,0.75,0,0)"/>
<path style="fill:none;stroke-width:2;stroke-linecap:butt;stroke-linejoin:miter;stroke:rgb(0%,0%,0%);stroke-opacity:1;stroke-miterlimit:4;" d="M 118.802083 203.098958 L 147.5 222.697917 " transform="matrix(0.75,0,0,0.75,0,0)"/>
<path style="fill:none;stroke-width:2;stroke-linecap:butt;stroke-linejoin:miter;stroke:rgb(0%,0%,0%);stroke-opacity:1;stroke-miterlimit:4;" d="M 147.5 222.697917 L 146.401042 237 " transform="matrix(0.75,0,0,0.75,0,0)"/>
<path style="fill:none;stroke-width:2;stroke-linecap:butt;stroke-linejoin:miter;stroke:rgb(0%,0%,100%);stroke-opacity:1;stroke-miterlimit:4;" d="M 146.401042 237 L 145.302083 251.401042 " transform="matrix(0.75,0,0,0.75,0,0)"/>
<path style="fill:none;stroke-width:2;stroke-linecap:butt;stroke-linejoin:miter;stroke:rgb(0%,0%,0%);stroke-opacity:1;stroke-miterlimit:4;" d="M 142.098958 225.302083 L 141.098958 238.098958 " transform="matrix(0.75,0,0,0.75,0,0)"/>
<path style="fill:none;stroke-width:2;stroke-linecap:butt;stroke-linejoin:miter;stroke:rgb(0%,0%,100%);stroke-opacity:1;stroke-miterlimit:4;" d="M 141.098958 238.098958 L 140.098958 251 " transform="matrix(0.75,0,0,0.75,0,0)"/>
<path style="fill:none;stroke-width:2;stroke-linecap:butt;stroke-linejoin:miter;stroke:rgb(0%,0%,100%);stroke-opacity:1;stroke-miterlimit:4;" d="M 149.802083 260.802083 L 161.697917 268.901042 " transform="matrix(0.75,0,0,0.75,0,0)"/>
<path style="fill:none;stroke-width:2;stroke-linecap:butt;stroke-linejoin:miter;stroke:rgb(0%,0%,0%);stroke-opacity:1;stroke-miterlimit:4;" d="M 161.697917 268.901042 L 173.598958 277.098958 " transform="matrix(0.75,0,0,0.75,0,0)"/>
<path style="fill:none;stroke-width:2;stroke-linecap:butt;stroke-linejoin:miter;stroke:rgb(0%,0%,0%);stroke-opacity:1;stroke-miterlimit:4;" d="M 173.598958 277.098958 L 205 262 " transform="matrix(0.75,0,0,0.75,0,0)"/>
<path style="fill:none;stroke-width:2;stroke-linecap:butt;stroke-linejoin:miter;stroke:rgb(0%,0%,0%);stroke-opacity:1;stroke-miterlimit:4;" d="M 205 262 L 233.697917 281.598958 " transform="matrix(0.75,0,0,0.75,0,0)"/>
<path style="fill:none;stroke-width:2;stroke-linecap:butt;stroke-linejoin:miter;stroke:rgb(0%,0%,0%);stroke-opacity:1;stroke-miterlimit:4;" d="M 210.401042 259.401042 L 234.197917 275.598958 " transform="matrix(0.75,0,0,0.75,0,0)"/>
<path style="fill:none;stroke-width:2;stroke-linecap:butt;stroke-linejoin:miter;stroke:rgb(0%,0%,0%);stroke-opacity:1;stroke-miterlimit:4;" d="M 233.697917 281.598958 L 231.098958 316.302083 " transform="matrix(0.75,0,0,0.75,0,0)"/>
<path style="fill:none;stroke-width:2;stroke-linecap:butt;stroke-linejoin:miter;stroke:rgb(0%,0%,0%);stroke-opacity:1;stroke-miterlimit:4;" d="M 228.401042 317.598958 L 240.5 325.901042 " transform="matrix(0.75,0,0,0.75,0,0)"/>
<path style="fill:none;stroke-width:2;stroke-linecap:butt;stroke-linejoin:miter;stroke:rgb(100%,0%,0%);stroke-opacity:1;stroke-miterlimit:4;" d="M 240.5 325.901042 L 252.697917 334.197917 " transform="matrix(0.75,0,0,0.75,0,0)"/>
<path style="fill:none;stroke-width:2;stroke-linecap:butt;stroke-linejoin:miter;stroke:rgb(0%,0%,0%);stroke-opacity:1;stroke-miterlimit:4;" d="M 231.302083 313.302083 L 243.5 321.598958 " transform="matrix(0.75,0,0,0.75,0,0)"/>
<path style="fill:none;stroke-width:2;stroke-linecap:butt;stroke-linejoin:miter;stroke:rgb(100%,0%,0%);stroke-opacity:1;stroke-miterlimit:4;" d="M 243.5 321.598958 L 255.697917 329.901042 " transform="matrix(0.75,0,0,0.75,0,0)"/>
<path style="fill:none;stroke-width:2;stroke-linecap:butt;stroke-linejoin:miter;stroke:rgb(0%,0%,0%);stroke-opacity:1;stroke-miterlimit:4;" d="M 231.098958 316.302083 L 220.098958 321.598958 " transform="matrix(0.75,0,0,0.75,0,0)"/>
<path style="fill:none;stroke-width:2;stroke-linecap:butt;stroke-linejoin:miter;stroke:rgb(100%,0%,0%);stroke-opacity:1;stroke-miterlimit:4;" d="M 220.098958 321.598958 L 209.098958 326.901042 " transform="matrix(0.75,0,0,0.75,0,0)"/>
<path style="fill:none;stroke-width:2;stroke-linecap:butt;stroke-linejoin:miter;stroke:rgb(0%,0%,0%);stroke-opacity:1;stroke-miterlimit:4;" d="M 233.697917 281.598958 L 247 275.302083 " transform="matrix(0.75,0,0,0.75,0,0)"/>
<path style="fill:none;stroke-width:2;stroke-linecap:butt;stroke-linejoin:miter;stroke:rgb(0%,0%,100%);stroke-opacity:1;stroke-miterlimit:4;" d="M 247 275.302083 L 260.197917 268.901042 " transform="matrix(0.75,0,0,0.75,0,0)"/>
<path style="fill:none;stroke-width:2;stroke-linecap:butt;stroke-linejoin:miter;stroke:rgb(0%,0%,100%);stroke-opacity:1;stroke-miterlimit:4;" d="M 270 266.901042 L 284.901042 268 " transform="matrix(0.75,0,0,0.75,0,0)"/>
<path style="fill:none;stroke-width:2;stroke-linecap:butt;stroke-linejoin:miter;stroke:rgb(0%,0%,0%);stroke-opacity:1;stroke-miterlimit:4;" d="M 284.901042 268 L 299.802083 269.197917 " transform="matrix(0.75,0,0,0.75,0,0)"/>
<path style="fill:none;stroke-width:2;stroke-linecap:butt;stroke-linejoin:miter;stroke:rgb(0%,0%,0%);stroke-opacity:1;stroke-miterlimit:4;" d="M 296.098958 268.901042 L 305.697917 280 " transform="matrix(0.75,0,0,0.75,0,0)"/>
<path style="fill:none;stroke-width:2;stroke-linecap:butt;stroke-linejoin:miter;stroke:rgb(100%,0%,0%);stroke-opacity:1;stroke-miterlimit:4;" d="M 305.697917 280 L 315.302083 291.098958 " transform="matrix(0.75,0,0,0.75,0,0)"/>
<path style="fill:none;stroke-width:2;stroke-linecap:butt;stroke-linejoin:miter;stroke:rgb(0%,0%,0%);stroke-opacity:1;stroke-miterlimit:4;" d="M 300.098958 265.5 L 309.697917 276.598958 " transform="matrix(0.75,0,0,0.75,0,0)"/>
<path style="fill:none;stroke-width:2;stroke-linecap:butt;stroke-linejoin:miter;stroke:rgb(100%,0%,0%);stroke-opacity:1;stroke-miterlimit:4;" d="M 309.697917 276.598958 L 319.197917 287.697917 " transform="matrix(0.75,0,0,0.75,0,0)"/>
<path style="fill:none;stroke-width:2;stroke-linecap:butt;stroke-linejoin:miter;stroke:rgb(0%,0%,0%);stroke-opacity:1;stroke-miterlimit:4;" d="M 299.802083 269.197917 L 302.5 234.5 " transform="matrix(0.75,0,0,0.75,0,0)"/>
<path style="fill:none;stroke-width:1;stroke-linecap:butt;stroke-linejoin:miter;stroke:rgb(0%,0%,0%);stroke-opacity:1;stroke-miterlimit:4;" d="M 305.197917 232.598958 L 304.802083 232 " transform="matrix(0.75,0,0,0.75,0,0)"/>
<path style="fill:none;stroke-width:1;stroke-linecap:butt;stroke-linejoin:miter;stroke:rgb(0%,0%,0%);stroke-opacity:1;stroke-miterlimit:4;" d="M 308 230.697917 L 307.098958 229.5 " transform="matrix(0.75,0,0,0.75,0,0)"/>
<path style="fill:none;stroke-width:1;stroke-linecap:butt;stroke-linejoin:miter;stroke:rgb(0%,0%,0%);stroke-opacity:1;stroke-miterlimit:4;" d="M 310.802083 228.802083 L 309.401042 227.098958 " transform="matrix(0.75,0,0,0.75,0,0)"/>
<path style="fill:none;stroke-width:1;stroke-linecap:butt;stroke-linejoin:miter;stroke:rgb(0%,0%,0%);stroke-opacity:1;stroke-miterlimit:4;" d="M 313.598958 226.901042 L 311.697917 224.598958 " transform="matrix(0.75,0,0,0.75,0,0)"/>
<path style="fill:none;stroke-width:1;stroke-linecap:butt;stroke-linejoin:miter;stroke:rgb(0%,0%,100%);stroke-opacity:1;stroke-miterlimit:4;" d="M 316.401042 225 L 314 222.098958 " transform="matrix(0.75,0,0,0.75,0,0)"/>
<path style="fill:none;stroke-width:1;stroke-linecap:butt;stroke-linejoin:miter;stroke:rgb(0%,0%,100%);stroke-opacity:1;stroke-miterlimit:4;" d="M 319.197917 223.098958 L 316.302083 219.697917 " transform="matrix(0.75,0,0,0.75,0,0)"/>
<path style="fill:none;stroke-width:1;stroke-linecap:butt;stroke-linejoin:miter;stroke:rgb(0%,0%,100%);stroke-opacity:1;stroke-miterlimit:4;" d="M 322 221.197917 L 318.598958 217.197917 " transform="matrix(0.75,0,0,0.75,0,0)"/>
<path style="fill:none;stroke-width:2;stroke-linecap:butt;stroke-linejoin:miter;stroke:rgb(0%,0%,100%);stroke-opacity:1;stroke-miterlimit:4;" d="M 333.697917 213.5 L 347.697917 218.401042 " transform="matrix(0.75,0,0,0.75,0,0)"/>
<path style="fill:none;stroke-width:2;stroke-linecap:butt;stroke-linejoin:miter;stroke:rgb(0%,0%,0%);stroke-opacity:1;stroke-miterlimit:4;" d="M 347.697917 218.401042 L 361.697917 223.302083 " transform="matrix(0.75,0,0,0.75,0,0)"/>
<path style="fill:none;stroke-width:2;stroke-linecap:butt;stroke-linejoin:miter;stroke:rgb(0%,0%,0%);stroke-opacity:1;stroke-miterlimit:4;" d="M 358.901042 222.302083 L 361.598958 237.098958 " transform="matrix(0.75,0,0,0.75,0,0)"/>
<path style="fill:none;stroke-width:2;stroke-linecap:butt;stroke-linejoin:miter;stroke:rgb(100%,0%,0%);stroke-opacity:1;stroke-miterlimit:4;" d="M 361.598958 237.098958 L 364.401042 251.901042 " transform="matrix(0.75,0,0,0.75,0,0)"/>
<path style="fill:none;stroke-width:2;stroke-linecap:butt;stroke-linejoin:miter;stroke:rgb(0%,0%,0%);stroke-opacity:1;stroke-miterlimit:4;" d="M 364 221.302083 L 366.802083 236.098958 " transform="matrix(0.75,0,0,0.75,0,0)"/>
<path style="fill:none;stroke-width:2;stroke-linecap:butt;stroke-linejoin:miter;stroke:rgb(100%,0%,0%);stroke-opacity:1;stroke-miterlimit:4;" d="M 366.802083 236.098958 L 369.598958 250.901042 " transform="matrix(0.75,0,0,0.75,0,0)"/>
<path style="fill:none;stroke-width:2;stroke-linecap:butt;stroke-linejoin:miter;stroke:rgb(0%,0%,0%);stroke-opacity:1;stroke-miterlimit:4;" d="M 361.697917 223.302083 L 388.098958 200.598958 " transform="matrix(0.75,0,0,0.75,0,0)"/>
<path style="fill:none;stroke-width:2;stroke-linecap:butt;stroke-linejoin:miter;stroke:rgb(0%,0%,0%);stroke-opacity:1;stroke-miterlimit:4;" d="M 388.098958 200.598958 L 421 212.098958 " transform="matrix(0.75,0,0,0.75,0,0)"/>
<path style="fill:none;stroke-width:2;stroke-linecap:butt;stroke-linejoin:miter;stroke:rgb(0%,0%,0%);stroke-opacity:1;stroke-miterlimit:4;" d="M 421 212.098958 L 449.598958 192.302083 " transform="matrix(0.75,0,0,0.75,0,0)"/>
<path style="fill:none;stroke-width:2;stroke-linecap:butt;stroke-linejoin:miter;stroke:rgb(0%,0%,0%);stroke-opacity:1;stroke-miterlimit:4;" d="M 427.098958 214.302083 L 449.401042 198.802083 " transform="matrix(0.75,0,0,0.75,0,0)"/>
<path style="fill:none;stroke-width:2;stroke-linecap:butt;stroke-linejoin:miter;stroke:rgb(0%,0%,0%);stroke-opacity:1;stroke-miterlimit:4;" d="M 449.598958 192.302083 L 477.302083 213.5 " transform="matrix(0.75,0,0,0.75,0,0)"/>
<path style="fill:none;stroke-width:2;stroke-linecap:butt;stroke-linejoin:miter;stroke:rgb(0%,0%,0%);stroke-opacity:1;stroke-miterlimit:4;" d="M 477.302083 213.5 L 465.697917 246.302083 " transform="matrix(0.75,0,0,0.75,0,0)"/>
<path style="fill:none;stroke-width:2;stroke-linecap:butt;stroke-linejoin:miter;stroke:rgb(0%,0%,0%);stroke-opacity:1;stroke-miterlimit:4;" d="M 471.098958 215.302083 L 462.098958 241 " transform="matrix(0.75,0,0,0.75,0,0)"/>
<path style="fill:none;stroke-width:2;stroke-linecap:butt;stroke-linejoin:miter;stroke:rgb(0%,0%,0%);stroke-opacity:1;stroke-miterlimit:4;" d="M 465.697917 246.302083 L 450.5 245.901042 " transform="matrix(0.75,0,0,0.75,0,0)"/>
<path style="fill:none;stroke-width:2;stroke-linecap:butt;stroke-linejoin:miter;stroke:rgb(80%,80%,0%);stroke-opacity:1;stroke-miterlimit:4;" d="M 450.5 245.901042 L 435.302083 245.598958 " transform="matrix(0.75,0,0,0.75,0,0)"/>
<path style="fill:none;stroke-width:2;stroke-linecap:butt;stroke-linejoin:miter;stroke:rgb(0%,0%,0%);stroke-opacity:1;stroke-miterlimit:4;" d="M 302.5 234.5 L 267.697917 231.802083 " transform="matrix(0.75,0,0,0.75,0,0)"/>
<path style="fill:none;stroke-width:2;stroke-linecap:butt;stroke-linejoin:miter;stroke:rgb(0%,0%,0%);stroke-opacity:1;stroke-miterlimit:4;" d="M 267.697917 231.802083 L 255.5 223.5 " transform="matrix(0.75,0,0,0.75,0,0)"/>
<path style="fill:none;stroke-width:2;stroke-linecap:butt;stroke-linejoin:miter;stroke:rgb(80%,80%,0%);stroke-opacity:1;stroke-miterlimit:4;" d="M 255.5 223.5 L 243.302083 215.098958 " transform="matrix(0.75,0,0,0.75,0,0)"/>
<path style="fill:none;stroke-width:2;stroke-linecap:butt;stroke-linejoin:miter;stroke:rgb(80%,80%,0%);stroke-opacity:1;stroke-miterlimit:4;" d="M 234.697917 214.302083 L 221.197917 220.802083 " transform="matrix(0.75,0,0,0.75,0,0)"/>
<path style="fill:none;stroke-width:2;stroke-linecap:butt;stroke-linejoin:miter;stroke:rgb(0%,0%,0%);stroke-opacity:1;stroke-miterlimit:4;" d="M 221.197917 220.802083 L 207.598958 227.302083 " transform="matrix(0.75,0,0,0.75,0,0)"/>
<path style="fill:none;stroke-width:2;stroke-linecap:butt;stroke-linejoin:miter;stroke:rgb(0%,0%,100%);stroke-opacity:1;stroke-miterlimit:4;" d="M 140 259.802083 L 126.697917 266.098958 " transform="matrix(0.75,0,0,0.75,0,0)"/>
<path style="fill:none;stroke-width:2;stroke-linecap:butt;stroke-linejoin:miter;stroke:rgb(0%,0%,0%);stroke-opacity:1;stroke-miterlimit:4;" d="M 126.697917 266.098958 L 113.5 272.5 " transform="matrix(0.75,0,0,0.75,0,0)"/>
<path style="fill:none;stroke-width:2;stroke-linecap:butt;stroke-linejoin:miter;stroke:rgb(0%,0%,0%);stroke-opacity:1;stroke-miterlimit:4;" d="M 113.5 272.5 L 84.697917 252.901042 " transform="matrix(0.75,0,0,0.75,0,0)"/>
<path style="fill:none;stroke-width:2;stroke-linecap:butt;stroke-linejoin:miter;stroke:rgb(0%,0%,0%);stroke-opacity:1;stroke-miterlimit:4;" d="M 113.901042 266.5 L 90.197917 250.302083 " transform="matrix(0.75,0,0,0.75,0,0)"/>
<path style="fill:none;stroke-width:2;stroke-linecap:butt;stroke-linejoin:miter;stroke:rgb(0%,0%,0%);stroke-opacity:1;stroke-miterlimit:4;" d="M 84.697917 252.901042 L 87.401042 218.197917 " transform="matrix(0.75,0,0,0.75,0,0)"/>
<path style="fill:none;stroke-width:2;stroke-linecap:butt;stroke-linejoin:miter;stroke:rgb(0%,0%,0%);stroke-opacity:1;stroke-miterlimit:4;" d="M 207.598958 227.302083 L 205 262 " transform="matrix(0.75,0,0,0.75,0,0)"/>
<path style="fill:none;stroke-width:2;stroke-linecap:butt;stroke-linejoin:miter;stroke:rgb(0%,0%,0%);stroke-opacity:1;stroke-miterlimit:4;" d="M 267.697917 231.802083 L 266.697917 246.197917 " transform="matrix(0.75,0,0,0.75,0,0)"/>
<path style="fill:none;stroke-width:2;stroke-linecap:butt;stroke-linejoin:miter;stroke:rgb(0%,0%,100%);stroke-opacity:1;stroke-miterlimit:4;" d="M 266.697917 246.197917 L 265.598958 260.5 " transform="matrix(0.75,0,0,0.75,0,0)"/>
<path style="fill:none;stroke-width:2;stroke-linecap:butt;stroke-linejoin:miter;stroke:rgb(80%,80%,0%);stroke-opacity:1;stroke-miterlimit:4;" d="M 429.098958 239.401042 L 425 225.802083 " transform="matrix(0.75,0,0,0.75,0,0)"/>
<path style="fill:none;stroke-width:2;stroke-linecap:butt;stroke-linejoin:miter;stroke:rgb(0%,0%,0%);stroke-opacity:1;stroke-miterlimit:4;" d="M 425 225.802083 L 421 212.098958 " transform="matrix(0.75,0,0,0.75,0,0)"/>
<path style="fill-rule:evenodd;fill:rgb(0%,0%,0%);fill-opacity:1;stroke-width:0.5;stroke-linecap:butt;stroke-linejoin:miter;stroke:rgb(0%,0%,0%);stroke-opacity:1;stroke-miterlimit:4;" d="M 267.697917 231.802083 L 274.302083 205.302083 L 279.197917 207.098958 Z M 267.697917 231.802083 " transform="matrix(0.75,0,0,0.75,0,0)"/>
<path style="fill:none;stroke-width:2;stroke-linecap:butt;stroke-linejoin:miter;stroke:rgb(0%,0%,0%);stroke-opacity:1;stroke-miterlimit:4;" d="M 58.697917 197.802083 L 58.598958 198.5 L 60.098958 199.5 " transform="matrix(0.75,0,0,0.75,0,0)"/>
<path style="fill:none;stroke-width:2;stroke-linecap:butt;stroke-linejoin:miter;stroke:rgb(0%,0%,0%);stroke-opacity:1;stroke-miterlimit:4;" d="M 117.197917 203.802083 L 118.802083 203.098958 L 120.197917 204.098958 " transform="matrix(0.75,0,0,0.75,0,0)"/>
<path style="fill:none;stroke-width:2;stroke-linecap:butt;stroke-linejoin:miter;stroke:rgb(0%,0%,0%);stroke-opacity:1;stroke-miterlimit:4;" d="M 146.098958 221.697917 L 147.5 222.697917 L 147.401042 223.401042 " transform="matrix(0.75,0,0,0.75,0,0)"/>
<path style="fill:none;stroke-width:2;stroke-linecap:butt;stroke-linejoin:miter;stroke:rgb(0%,0%,0%);stroke-opacity:1;stroke-miterlimit:4;" d="M 173 276.697917 L 173.598958 277.098958 L 175.197917 276.302083 " transform="matrix(0.75,0,0,0.75,0,0)"/>
<path style="fill:none;stroke-width:2;stroke-linecap:butt;stroke-linejoin:miter;stroke:rgb(0%,0%,0%);stroke-opacity:1;stroke-miterlimit:4;" d="M 231.197917 314.598958 L 231.098958 316.302083 L 230.598958 316.598958 " transform="matrix(0.75,0,0,0.75,0,0)"/>
<path style="fill:none;stroke-width:2;stroke-linecap:butt;stroke-linejoin:miter;stroke:rgb(0%,0%,0%);stroke-opacity:1;stroke-miterlimit:4;" d="M 299.098958 269.098958 L 299.802083 269.197917 L 300 267.401042 " transform="matrix(0.75,0,0,0.75,0,0)"/>
<path style="fill:none;stroke-width:2;stroke-linecap:butt;stroke-linejoin:miter;stroke:rgb(0%,0%,0%);stroke-opacity:1;stroke-miterlimit:4;" d="M 302.302083 236.197917 L 302.5 234.5 L 300.697917 234.302083 " transform="matrix(0.75,0,0,0.75,0,0)"/>
<path style="fill:none;stroke-width:2;stroke-linecap:butt;stroke-linejoin:miter;stroke:rgb(0%,0%,0%);stroke-opacity:1;stroke-miterlimit:4;" d="M 361 223.098958 L 361.697917 223.302083 L 363 222.197917 " transform="matrix(0.75,0,0,0.75,0,0)"/>
<path style="fill:none;stroke-width:2;stroke-linecap:butt;stroke-linejoin:miter;stroke:rgb(0%,0%,0%);stroke-opacity:1;stroke-miterlimit:4;" d="M 386.802083 201.802083 L 388.098958 200.598958 L 389.802083 201.197917 " transform="matrix(0.75,0,0,0.75,0,0)"/>
<path style="fill:none;stroke-width:2;stroke-linecap:butt;stroke-linejoin:miter;stroke:rgb(0%,0%,0%);stroke-opacity:1;stroke-miterlimit:4;" d="M 448.197917 193.302083 L 449.598958 192.302083 L 451 193.401042 " transform="matrix(0.75,0,0,0.75,0,0)"/>
<path style="fill:none;stroke-width:2;stroke-linecap:butt;stroke-linejoin:miter;stroke:rgb(0%,0%,0%);stroke-opacity:1;stroke-miterlimit:4;" d="M 475.901042 212.401042 L 477.302083 213.5 L 476.697917 215.098958 " transform="matrix(0.75,0,0,0.75,0,0)"/>
<path style="fill:none;stroke-width:2;stroke-linecap:butt;stroke-linejoin:miter;stroke:rgb(0%,0%,0%);stroke-opacity:1;stroke-miterlimit:4;" d="M 466.302083 244.697917 L 465.697917 246.302083 L 465 246.302083 " transform="matrix(0.75,0,0,0.75,0,0)"/>
<path style="fill:none;stroke-width:2;stroke-linecap:butt;stroke-linejoin:miter;stroke:rgb(0%,0%,0%);stroke-opacity:1;stroke-miterlimit:4;" d="M 208.302083 227 L 207.598958 227.302083 L 207.5 229 " transform="matrix(0.75,0,0,0.75,0,0)"/>
<path style="fill:none;stroke-width:2;stroke-linecap:butt;stroke-linejoin:miter;stroke:rgb(0%,0%,0%);stroke-opacity:1;stroke-miterlimit:4;" d="M 114.197917 272.197917 L 113.5 272.5 L 112.098958 271.5 " transform="matrix(0.75,0,0,0.75,0,0)"/>
<path style="fill:none;stroke-width:2;stroke-linecap:butt;stroke-linejoin:miter;stroke:rgb(0%,0%,0%);stroke-opacity:1;stroke-miterlimit:4;" d="M 86.197917 253.901042 L 84.697917 252.901042 L 84.901042 251.098958 " transform="matrix(0.75,0,0,0.75,0,0)"/>
<path style=" stroke:none;fill-rule:nonzero;fill:rgb(0%,0%,100%);fill-opacity:1;" d="M 44.324219 119.175781 L 46.726562 123.074219 C 46.875 123.324219 47.074219 123.699219 47.324219 124.199219 C 47.625 124.648438 47.773438 124.898438 47.773438 124.949219 L 47.773438 119.175781 L 48.75 119.175781 L 48.75 126.601562 L 47.699219 126.601562 L 45.148438 122.25 C 44.949219 121.949219 44.726562 121.601562 44.476562 121.199219 C 44.273438 120.800781 44.148438 120.550781 44.101562 120.449219 L 44.101562 126.601562 L 43.125 126.601562 L 43.125 119.175781 L 44.324219 119.175781 "/>
<path style=" stroke:none;fill-rule:nonzero;fill:rgb(0%,0%,100%);fill-opacity:1;" d="M 50.175781 119.175781 L 51.148438 119.175781 L 51.148438 122.324219 L 54.976562 122.324219 L 54.976562 119.175781 L 55.949219 119.175781 L 55.949219 126.601562 L 54.976562 126.601562 L 54.976562 123.148438 L 51.148438 123.148438 L 51.148438 126.601562 L 50.175781 126.601562 L 50.175781 119.175781 "/>
<path style=" stroke:none;fill-rule:nonzero;fill:rgb(0%,0%,100%);fill-opacity:1;" d="M 57.375 126.300781 C 57.523438 126 57.726562 125.75 57.976562 125.550781 C 58.273438 125.398438 58.625 125.324219 59.023438 125.324219 C 59.523438 125.324219 59.898438 125.449219 60.148438 125.699219 C 60.449219 126 60.601562 126.375 60.601562 126.824219 C 60.601562 127.324219 60.425781 127.800781 60.074219 128.25 C 59.726562 128.699219 59.175781 129.175781 58.425781 129.675781 L 60.675781 129.675781 L 60.675781 130.273438 L 57.375 130.273438 L 57.375 129.824219 C 57.976562 129.375 58.449219 129 58.800781 128.699219 C 59.199219 128.351562 59.476562 128.023438 59.625 127.726562 C 59.824219 127.476562 59.925781 127.199219 59.925781 126.898438 C 59.925781 126.550781 59.824219 126.300781 59.625 126.148438 C 59.476562 125.949219 59.273438 125.851562 59.023438 125.851562 C 58.773438 125.851562 58.550781 125.898438 58.351562 126 C 58.199219 126.148438 58.050781 126.324219 57.898438 126.523438 L 57.375 126.300781 "/>
<path style=" stroke:none;fill-rule:nonzero;fill:rgb(100%,0%,0%);fill-opacity:1;" d="M 17.023438 160.199219 C 17.023438 159.050781 17.324219 158.125 17.925781 157.425781 C 18.523438 156.773438 19.375 156.449219 20.476562 156.449219 C 21.523438 156.449219 22.351562 156.773438 22.949219 157.425781 C 23.550781 158.125 23.851562 159.050781 23.851562 160.199219 C 23.851562 161.398438 23.550781 162.351562 22.949219 163.050781 C 22.351562 163.75 21.523438 164.101562 20.476562 164.101562 C 19.375 164.101562 18.523438 163.75 17.925781 163.050781 C 17.324219 162.351562 17.023438 161.398438 17.023438 160.199219 M 20.476562 163.199219 C 21.226562 163.199219 21.800781 162.949219 22.199219 162.449219 C 22.601562 161.949219 22.800781 161.199219 22.800781 160.199219 C 22.800781 159.25 22.601562 158.523438 22.199219 158.023438 C 21.800781 157.523438 21.226562 157.273438 20.476562 157.273438 C 19.675781 157.273438 19.074219 157.523438 18.675781 158.023438 C 18.273438 158.523438 18.074219 159.25 18.074219 160.199219 C 18.074219 161.199219 18.273438 161.949219 18.675781 162.449219 C 19.074219 162.949219 19.675781 163.199219 20.476562 163.199219 "/>
<path style=" stroke:none;fill-rule:nonzero;fill:rgb(0%,0%,100%);fill-opacity:1;" d="M 107.023438 189.375 L 109.425781 193.273438 C 109.574219 193.523438 109.800781 193.898438 110.101562 194.398438 C 110.351562 194.851562 110.476562 195.101562 110.476562 195.148438 L 110.476562 189.375 L 111.449219 189.375 L 111.449219 196.800781 L 110.476562 196.800781 L 107.851562 192.523438 C 107.648438 192.175781 107.449219 191.800781 107.25 191.398438 C 107 191.050781 106.851562 190.800781 106.800781 190.648438 L 106.800781 196.800781 L 105.824219 196.800781 L 105.824219 189.375 L 107.023438 189.375 "/>
<path style=" stroke:none;fill-rule:nonzero;fill:rgb(0%,0%,100%);fill-opacity:1;" d="M 112.875 190.726562 L 114.148438 190.726562 L 114.148438 189.375 L 114.75 189.375 L 114.75 190.726562 L 116.101562 190.726562 L 116.101562 191.175781 L 114.75 191.175781 L 114.75 192.601562 L 114.148438 192.601562 L 114.148438 191.175781 L 112.875 191.175781 L 112.875 190.726562 "/>
<path style=" stroke:none;fill-rule:nonzero;fill:rgb(100%,0%,0%);fill-opacity:1;" d="M 191.476562 252 C 191.476562 250.800781 191.773438 249.875 192.375 249.226562 C 192.976562 248.574219 193.824219 248.25 194.925781 248.25 C 195.976562 248.25 196.800781 248.574219 197.398438 249.226562 C 198 249.875 198.300781 250.800781 198.300781 252 C 198.300781 253.199219 198 254.148438 197.398438 254.851562 C 196.800781 255.5 195.976562 255.824219 194.925781 255.824219 C 193.824219 255.824219 192.976562 255.5 192.375 254.851562 C 191.773438 254.148438 191.476562 253.199219 191.476562 252 M 194.925781 255 C 195.675781 255 196.25 254.75 196.648438 254.25 C 197.050781 253.75 197.25 253 197.25 252 C 197.25 251.050781 197.050781 250.324219 196.648438 249.824219 C 196.25 249.324219 195.675781 249.074219 194.925781 249.074219 C 194.125 249.074219 193.523438 249.324219 193.125 249.824219 C 192.726562 250.273438 192.523438 251 192.523438 252 C 192.523438 253 192.726562 253.75 193.125 254.25 C 193.523438 254.75 194.125 255 194.925781 255 "/>
<path style=" stroke:none;fill-rule:nonzero;fill:rgb(100%,0%,0%);fill-opacity:1;" d="M 146.398438 248.550781 C 146.398438 247.398438 146.699219 246.5 147.300781 245.851562 C 147.851562 245.148438 148.675781 244.800781 149.773438 244.800781 C 150.875 244.800781 151.726562 245.148438 152.324219 245.851562 C 152.925781 246.5 153.226562 247.398438 153.226562 248.550781 C 153.226562 249.75 152.925781 250.699219 152.324219 251.398438 C 151.726562 252.101562 150.875 252.449219 149.773438 252.449219 C 148.726562 252.449219 147.898438 252.101562 147.300781 251.398438 C 146.699219 250.75 146.398438 249.800781 146.398438 248.550781 M 149.773438 251.550781 C 150.523438 251.550781 151.101562 251.300781 151.5 250.800781 C 151.949219 250.300781 152.175781 249.550781 152.175781 248.550781 C 152.175781 247.601562 151.949219 246.875 151.5 246.375 C 151.101562 245.875 150.523438 245.625 149.773438 245.625 C 149.023438 245.625 148.449219 245.875 148.050781 246.375 C 147.648438 246.875 147.449219 247.601562 147.449219 248.550781 C 147.449219 249.550781 147.648438 250.300781 148.050781 250.800781 C 148.449219 251.300781 149.023438 251.550781 149.773438 251.550781 "/>
<path style=" stroke:none;fill-rule:nonzero;fill:rgb(100%,0%,0%);fill-opacity:1;" d="M 154.273438 246 L 156.75 246 L 156.75 246.601562 L 154.273438 246.601562 L 154.273438 246 "/>
<path style=" stroke:none;fill-rule:nonzero;fill:rgb(0%,0%,100%);fill-opacity:1;" d="M 197.175781 196.199219 L 199.648438 200.101562 C 199.800781 200.398438 200 200.773438 200.25 201.226562 C 200.5 201.675781 200.625 201.925781 200.625 201.976562 L 200.625 196.199219 L 201.675781 196.199219 L 201.675781 203.625 L 200.625 203.625 L 198 199.351562 C 197.800781 199 197.601562 198.625 197.398438 198.226562 C 197.199219 197.875 197.074219 197.625 197.023438 197.476562 L 197.023438 203.625 L 196.050781 203.625 L 196.050781 196.199219 L 197.175781 196.199219 "/>
<path style=" stroke:none;fill-rule:nonzero;fill:rgb(100%,0%,0%);fill-opacity:1;" d="M 238.5 221.699219 C 238.5 220.5 238.800781 219.574219 239.398438 218.925781 C 239.949219 218.273438 240.773438 217.949219 241.875 217.949219 C 242.976562 217.949219 243.824219 218.273438 244.425781 218.925781 C 244.976562 219.574219 245.25 220.5 245.25 221.699219 C 245.25 222.898438 244.976562 223.851562 244.425781 224.550781 C 243.824219 225.199219 242.976562 225.523438 241.875 225.523438 C 240.773438 225.523438 239.949219 225.199219 239.398438 224.550781 C 238.800781 223.851562 238.5 222.898438 238.5 221.699219 M 241.875 224.699219 C 242.625 224.699219 243.199219 224.449219 243.601562 223.949219 C 244 223.449219 244.199219 222.699219 244.199219 221.699219 C 244.199219 220.75 244 220.023438 243.601562 219.523438 C 243.199219 219.023438 242.625 218.773438 241.875 218.773438 C 241.125 218.773438 240.550781 219.023438 240.148438 219.523438 C 239.75 220.023438 239.550781 220.75 239.550781 221.699219 C 239.550781 222.699219 239.75 223.449219 240.148438 223.949219 C 240.550781 224.449219 241.125 224.699219 241.875 224.699219 "/>
<path style=" stroke:none;fill-rule:nonzero;fill:rgb(0%,0%,100%);fill-opacity:1;" d="M 245.023438 155.101562 L 247.425781 159.074219 C 247.574219 159.324219 247.773438 159.675781 248.023438 160.125 C 248.324219 160.625 248.476562 160.875 248.476562 160.875 L 248.476562 155.101562 L 249.449219 155.101562 L 249.449219 162.523438 L 248.398438 162.523438 L 245.851562 158.25 C 245.648438 157.898438 245.425781 157.550781 245.175781 157.199219 C 244.976562 156.800781 244.851562 156.550781 244.800781 156.449219 L 244.800781 162.523438 L 243.824219 162.523438 L 243.824219 155.101562 L 245.023438 155.101562 "/>
<path style=" stroke:none;fill-rule:nonzero;fill:rgb(0%,0%,100%);fill-opacity:1;" d="M 243.75 147 L 244.726562 147 L 244.726562 150.148438 L 248.550781 150.148438 L 248.550781 147 L 249.523438 147 L 249.523438 154.425781 L 248.550781 154.425781 L 248.550781 150.976562 L 244.726562 150.976562 L 244.726562 154.425781 L 243.75 154.425781 L 243.75 147 "/>
<path style=" stroke:none;fill-rule:nonzero;fill:rgb(100%,0%,0%);fill-opacity:1;" d="M 272.699219 193.125 C 272.699219 191.976562 273 191.074219 273.601562 190.425781 C 274.199219 189.726562 275.050781 189.375 276.148438 189.375 C 277.199219 189.375 278.023438 189.726562 278.625 190.425781 C 279.226562 191.074219 279.523438 191.976562 279.523438 193.125 C 279.523438 194.324219 279.226562 195.273438 278.625 195.976562 C 278.023438 196.675781 277.199219 197.023438 276.148438 197.023438 C 275.050781 197.023438 274.199219 196.675781 273.601562 195.976562 C 273 195.273438 272.699219 194.324219 272.699219 193.125 M 276.148438 196.125 C 276.898438 196.125 277.476562 195.875 277.875 195.375 C 278.273438 194.875 278.476562 194.125 278.476562 193.125 C 278.476562 192.175781 278.273438 191.449219 277.875 190.949219 C 277.476562 190.449219 276.898438 190.199219 276.148438 190.199219 C 275.351562 190.199219 274.75 190.449219 274.351562 190.949219 C 273.949219 191.449219 273.75 192.175781 273.75 193.125 C 273.75 194.125 273.949219 194.875 274.351562 195.375 C 274.75 195.875 275.351562 196.125 276.148438 196.125 "/>
<path style=" stroke:none;fill-rule:nonzero;fill:rgb(80%,80%,0%);fill-opacity:1;" d="M 321.148438 186.675781 C 321.199219 186.675781 321.324219 186.726562 321.523438 186.824219 C 321.773438 186.925781 322.023438 187 322.273438 187.050781 C 322.523438 187.101562 322.773438 187.125 323.023438 187.125 C 323.476562 187.125 323.851562 187.023438 324.148438 186.824219 C 324.398438 186.574219 324.523438 186.25 324.523438 185.851562 C 324.523438 185.601562 324.476562 185.398438 324.375 185.25 C 324.226562 185.050781 324.050781 184.925781 323.851562 184.875 C 323.648438 184.773438 323.375 184.675781 323.023438 184.574219 C 322.574219 184.425781 322.199219 184.273438 321.898438 184.125 C 321.648438 184.023438 321.449219 183.851562 321.300781 183.601562 C 321.101562 183.300781 321 182.925781 321 182.476562 C 321 181.875 321.199219 181.375 321.601562 180.976562 C 322.050781 180.625 322.699219 180.449219 323.550781 180.449219 C 324.101562 180.449219 324.699219 180.574219 325.351562 180.824219 L 325.125 181.648438 C 324.523438 181.398438 324 181.273438 323.550781 181.273438 C 323.050781 181.273438 322.675781 181.375 322.425781 181.574219 C 322.175781 181.773438 322.050781 182.050781 322.050781 182.398438 C 322.050781 182.648438 322.125 182.851562 322.273438 183 C 322.375 183.148438 322.523438 183.273438 322.726562 183.375 C 322.925781 183.476562 323.199219 183.574219 323.550781 183.675781 C 324 183.824219 324.351562 183.976562 324.601562 184.125 C 324.851562 184.273438 325.074219 184.476562 325.273438 184.726562 C 325.476562 185.023438 325.574219 185.398438 325.574219 185.851562 C 325.574219 186.550781 325.351562 187.074219 324.898438 187.425781 C 324.449219 187.824219 323.851562 188.023438 323.101562 188.023438 C 322.648438 188.023438 322.25 187.976562 321.898438 187.875 C 321.601562 187.773438 321.25 187.648438 320.851562 187.5 L 321.148438 186.675781 "/>
<path style=" stroke:none;fill-rule:nonzero;fill:rgb(80%,80%,0%);fill-opacity:1;" d="M 177.148438 161.699219 C 177.199219 161.699219 177.351562 161.75 177.601562 161.851562 C 177.800781 161.949219 178.023438 162.023438 178.273438 162.074219 C 178.574219 162.175781 178.851562 162.226562 179.101562 162.226562 C 179.550781 162.226562 179.898438 162.101562 180.148438 161.851562 C 180.449219 161.601562 180.601562 161.300781 180.601562 160.949219 C 180.601562 160.648438 180.523438 160.425781 180.375 160.273438 C 180.226562 160.074219 180.050781 159.949219 179.851562 159.898438 C 179.648438 159.800781 179.375 159.699219 179.023438 159.601562 C 178.574219 159.449219 178.226562 159.324219 177.976562 159.226562 C 177.726562 159.074219 177.5 158.875 177.300781 158.625 C 177.101562 158.324219 177 157.976562 177 157.574219 C 177 156.925781 177.226562 156.425781 177.675781 156.074219 C 178.074219 155.675781 178.699219 155.476562 179.550781 155.476562 C 180.101562 155.476562 180.699219 155.601562 181.351562 155.851562 L 181.125 156.675781 C 180.523438 156.425781 180 156.300781 179.550781 156.300781 C 179.101562 156.300781 178.75 156.398438 178.5 156.601562 C 178.199219 156.800781 178.050781 157.074219 178.050781 157.425781 C 178.050781 157.675781 178.125 157.875 178.273438 158.023438 C 178.425781 158.226562 178.601562 158.351562 178.800781 158.398438 C 179 158.5 179.25 158.601562 179.550781 158.699219 C 180 158.851562 180.375 159 180.675781 159.148438 C 180.925781 159.300781 181.148438 159.5 181.351562 159.75 C 181.550781 160.050781 181.648438 160.449219 181.648438 160.949219 C 181.648438 161.601562 181.398438 162.125 180.898438 162.523438 C 180.449219 162.875 179.851562 163.050781 179.101562 163.050781 C 178.648438 163.050781 178.273438 163 177.976562 162.898438 C 177.625 162.800781 177.25 162.675781 176.851562 162.523438 L 177.148438 161.699219 "/>
<path style=" stroke:none;fill-rule:nonzero;fill:rgb(0%,0%,0%);fill-opacity:1;" d="M 206.550781 145.574219 L 207.523438 145.574219 L 207.523438 148.648438 L 211.351562 148.648438 L 211.351562 145.574219 L 212.324219 145.574219 L 212.324219 152.925781 L 211.351562 152.925781 L 211.351562 149.550781 L 207.523438 149.550781 L 207.523438 152.925781 L 206.550781 152.925781 L 206.550781 145.574219 "/>
</g>
</svg>
