<?xml version="1.0" encoding="UTF-8"?>
<svg xmlns="http://www.w3.org/2000/svg" xmlns:xlink="http://www.w3.org/1999/xlink" width="375pt" height="375pt" viewBox="0 0 375 375" version="1.1">
<g id="surface256">
<rect x="0" y="0" width="375" height="375" style="fill:rgb(100%,100%,100%);fill-opacity:1;stroke:none;"/>
<path style="fill:none;stroke-width:2;stroke-linecap:butt;stroke-linejoin:miter;stroke:rgb(0%,0%,0%);stroke-opacity:1;stroke-miterlimit:4;" d="M 186.697917 236.401042 L 150.598958 253 " transform="matrix(0.75,0,0,0.75,0,0)"/>
<path style="fill:none;stroke-width:2;stroke-linecap:butt;stroke-linejoin:miter;stroke:rgb(0%,0%,0%);stroke-opacity:1;stroke-miterlimit:4;" d="M 150.598958 253 L 114.401042 269.598958 " transform="matrix(0.75,0,0,0.75,0,0)"/>
<path style="fill:none;stroke-width:2;stroke-linecap:butt;stroke-linejoin:miter;stroke:rgb(0%,0%,0%);stroke-opacity:1;stroke-miterlimit:4;" d="M 150.598958 253 L 157.302083 267.598958 " transform="matrix(0.75,0,0,0.75,0,0)"/>
<path style="fill:none;stroke-width:2;stroke-linecap:butt;stroke-linejoin:miter;stroke:rgb(100%,0%,0%);stroke-opacity:1;stroke-miterlimit:4;" d="M 157.302083 267.598958 L 163.901042 282.098958 " transform="matrix(0.75,0,0,0.75,0,0)"/>
<path style="fill:none;stroke-width:2;stroke-linecap:butt;stroke-linejoin:miter;stroke:rgb(100%,0%,0%);stroke-opacity:1;stroke-miterlimit:4;" d="M 162.098958 296.302083 L 155.598958 305.5 " transform="matrix(0.75,0,0,0.75,0,0)"/>
<path style="fill:none;stroke-width:2;stroke-linecap:butt;stroke-linejoin:miter;stroke:rgb(0%,0%,100%);stroke-opacity:1;stroke-miterlimit:4;" d="M 155.598958 305.5 L 149.098958 314.598958 " transform="matrix(0.75,0,0,0.75,0,0)"/>
<path style="fill:none;stroke-width:2;stroke-linecap:butt;stroke-linejoin:miter;stroke:rgb(0%,0%,100%);stroke-opacity:1;stroke-miterlimit:4;" d="M 147.401042 328.5 L 154.098958 343.098958 " transform="matrix(0.75,0,0,0.75,0,0)"/>
<path style="fill:none;stroke-width:2;stroke-linecap:butt;stroke-linejoin:miter;stroke:rgb(0%,0%,0%);stroke-opacity:1;stroke-miterlimit:4;" d="M 154.098958 343.098958 L 160.802083 357.697917 " transform="matrix(0.75,0,0,0.75,0,0)"/>
<path style="fill:none;stroke-width:2;stroke-linecap:butt;stroke-linejoin:miter;stroke:rgb(0%,0%,100%);stroke-opacity:1;stroke-miterlimit:4;" d="M 156.598958 329.598958 L 161.302083 339.802083 " transform="matrix(0.75,0,0,0.75,0,0)"/>
<path style="fill:none;stroke-width:2;stroke-linecap:butt;stroke-linejoin:miter;stroke:rgb(0%,0%,0%);stroke-opacity:1;stroke-miterlimit:4;" d="M 161.302083 339.802083 L 166 350 " transform="matrix(0.75,0,0,0.75,0,0)"/>
<path style="fill:none;stroke-width:2;stroke-linecap:butt;stroke-linejoin:miter;stroke:rgb(0%,0%,0%);stroke-opacity:1;stroke-miterlimit:4;" d="M 160.802083 357.697917 L 200.401042 361.401042 " transform="matrix(0.75,0,0,0.75,0,0)"/>
<path style="fill:none;stroke-width:2;stroke-linecap:butt;stroke-linejoin:miter;stroke:rgb(0%,0%,0%);stroke-opacity:1;stroke-miterlimit:4;" d="M 197.098958 359.098958 L 206.098958 346.5 " transform="matrix(0.75,0,0,0.75,0,0)"/>
<path style="fill:none;stroke-width:2;stroke-linecap:butt;stroke-linejoin:miter;stroke:rgb(100%,0%,0%);stroke-opacity:1;stroke-miterlimit:4;" d="M 206.098958 346.5 L 215 333.802083 " transform="matrix(0.75,0,0,0.75,0,0)"/>
<path style="fill:none;stroke-width:2;stroke-linecap:butt;stroke-linejoin:miter;stroke:rgb(0%,0%,0%);stroke-opacity:1;stroke-miterlimit:4;" d="M 203.598958 363.697917 L 212.598958 351.098958 " transform="matrix(0.75,0,0,0.75,0,0)"/>
<path style="fill:none;stroke-width:2;stroke-linecap:butt;stroke-linejoin:miter;stroke:rgb(100%,0%,0%);stroke-opacity:1;stroke-miterlimit:4;" d="M 212.598958 351.098958 L 221.5 338.401042 " transform="matrix(0.75,0,0,0.75,0,0)"/>
<path style="fill:none;stroke-width:2;stroke-linecap:butt;stroke-linejoin:miter;stroke:rgb(0%,0%,0%);stroke-opacity:1;stroke-miterlimit:4;" d="M 200.401042 361.401042 L 207.098958 376 " transform="matrix(0.75,0,0,0.75,0,0)"/>
<path style="fill:none;stroke-width:2;stroke-linecap:butt;stroke-linejoin:miter;stroke:rgb(0%,0%,100%);stroke-opacity:1;stroke-miterlimit:4;" d="M 207.098958 376 L 213.802083 390.598958 " transform="matrix(0.75,0,0,0.75,0,0)"/>
<path style="fill-rule:evenodd;fill:rgb(0%,0%,0%);fill-opacity:1;stroke-width:1;stroke-linecap:butt;stroke-linejoin:miter;stroke:rgb(0%,0%,0%);stroke-opacity:1;stroke-miterlimit:4;" d="M 256.5 401.197917 L 240 401.697917 L 240.401042 397.697917 Z M 256.5 401.197917 " transform="matrix(0.75,0,0,0.75,0,0)"/>
<path style="fill-rule:evenodd;fill:rgb(0%,0%,100%);fill-opacity:1;stroke-width:1;stroke-linecap:butt;stroke-linejoin:miter;stroke:rgb(0%,0%,100%);stroke-opacity:1;stroke-miterlimit:4;" d="M 240 401.697917 L 224.197917 394.197917 L 223.5 402.098958 Z M 240 401.697917 " transform="matrix(0.75,0,0,0.75,0,0)"/>
<path style="fill-rule:evenodd;fill:rgb(0%,0%,100%);fill-opacity:1;stroke-width:1;stroke-linecap:butt;stroke-linejoin:miter;stroke:rgb(0%,0%,100%);stroke-opacity:1;stroke-miterlimit:4;" d="M 240 401.697917 L 240.401042 397.697917 L 224.197917 394.197917 Z M 240 401.697917 " transform="matrix(0.75,0,0,0.75,0,0)"/>
<path style="fill:none;stroke-width:2;stroke-linecap:butt;stroke-linejoin:miter;stroke:rgb(0%,0%,0%);stroke-opacity:1;stroke-miterlimit:4;" d="M 256.5 401.197917 L 281.901042 431.802083 " transform="matrix(0.75,0,0,0.75,0,0)"/>
<path style="fill:none;stroke-width:2;stroke-linecap:butt;stroke-linejoin:miter;stroke:rgb(0%,0%,0%);stroke-opacity:1;stroke-miterlimit:4;" d="M 285.901042 432.197917 L 284.401042 448.5 " transform="matrix(0.75,0,0,0.75,0,0)"/>
<path style="fill:none;stroke-width:2;stroke-linecap:butt;stroke-linejoin:miter;stroke:rgb(100%,0%,0%);stroke-opacity:1;stroke-miterlimit:4;" d="M 284.401042 448.5 L 282.802083 464.802083 " transform="matrix(0.75,0,0,0.75,0,0)"/>
<path style="fill:none;stroke-width:2;stroke-linecap:butt;stroke-linejoin:miter;stroke:rgb(0%,0%,0%);stroke-opacity:1;stroke-miterlimit:4;" d="M 278 431.401042 L 276.401042 447.697917 " transform="matrix(0.75,0,0,0.75,0,0)"/>
<path style="fill:none;stroke-width:2;stroke-linecap:butt;stroke-linejoin:miter;stroke:rgb(100%,0%,0%);stroke-opacity:1;stroke-miterlimit:4;" d="M 276.401042 447.697917 L 274.901042 464 " transform="matrix(0.75,0,0,0.75,0,0)"/>
<path style="fill:none;stroke-width:2;stroke-linecap:butt;stroke-linejoin:miter;stroke:rgb(0%,0%,0%);stroke-opacity:1;stroke-miterlimit:4;" d="M 281.901042 431.802083 L 294.401042 421.401042 " transform="matrix(0.75,0,0,0.75,0,0)"/>
<path style="fill:none;stroke-width:2;stroke-linecap:butt;stroke-linejoin:miter;stroke:rgb(0%,0%,100%);stroke-opacity:1;stroke-miterlimit:4;" d="M 294.401042 421.401042 L 306.901042 411.098958 " transform="matrix(0.75,0,0,0.75,0,0)"/>
<path style="fill:none;stroke-width:2;stroke-linecap:butt;stroke-linejoin:miter;stroke:rgb(0%,0%,100%);stroke-opacity:1;stroke-miterlimit:4;" d="M 318.098958 405.5 L 334.901042 402.598958 " transform="matrix(0.75,0,0,0.75,0,0)"/>
<path style="fill:none;stroke-width:2;stroke-linecap:butt;stroke-linejoin:miter;stroke:rgb(0%,0%,0%);stroke-opacity:1;stroke-miterlimit:4;" d="M 334.901042 402.598958 L 351.697917 399.802083 " transform="matrix(0.75,0,0,0.75,0,0)"/>
<path style="fill:none;stroke-width:2;stroke-linecap:butt;stroke-linejoin:miter;stroke:rgb(0%,0%,0%);stroke-opacity:1;stroke-miterlimit:4;" d="M 351.697917 399.802083 L 377.098958 430.401042 " transform="matrix(0.75,0,0,0.75,0,0)"/>
<path style="fill:none;stroke-width:2;stroke-linecap:butt;stroke-linejoin:miter;stroke:rgb(0%,0%,0%);stroke-opacity:1;stroke-miterlimit:4;" d="M 376.401042 426.401042 L 392.802083 423.697917 " transform="matrix(0.75,0,0,0.75,0,0)"/>
<path style="fill:none;stroke-width:2;stroke-linecap:butt;stroke-linejoin:miter;stroke:rgb(100%,0%,0%);stroke-opacity:1;stroke-miterlimit:4;" d="M 392.802083 423.697917 L 409.197917 420.901042 " transform="matrix(0.75,0,0,0.75,0,0)"/>
<path style="fill:none;stroke-width:2;stroke-linecap:butt;stroke-linejoin:miter;stroke:rgb(0%,0%,0%);stroke-opacity:1;stroke-miterlimit:4;" d="M 377.802083 434.302083 L 394.098958 431.5 " transform="matrix(0.75,0,0,0.75,0,0)"/>
<path style="fill:none;stroke-width:2;stroke-linecap:butt;stroke-linejoin:miter;stroke:rgb(100%,0%,0%);stroke-opacity:1;stroke-miterlimit:4;" d="M 394.098958 431.5 L 410.5 428.697917 " transform="matrix(0.75,0,0,0.75,0,0)"/>
<path style="fill:none;stroke-width:2;stroke-linecap:butt;stroke-linejoin:miter;stroke:rgb(0%,0%,0%);stroke-opacity:1;stroke-miterlimit:4;" d="M 377.098958 430.401042 L 371.5 445.5 " transform="matrix(0.75,0,0,0.75,0,0)"/>
<path style="fill:none;stroke-width:2;stroke-linecap:butt;stroke-linejoin:miter;stroke:rgb(100%,0%,0%);stroke-opacity:1;stroke-miterlimit:4;" d="M 371.5 445.5 L 365.901042 460.598958 " transform="matrix(0.75,0,0,0.75,0,0)"/>
<path style="fill:none;stroke-width:2;stroke-linecap:butt;stroke-linejoin:miter;stroke:rgb(0%,0%,0%);stroke-opacity:1;stroke-miterlimit:4;" d="M 351.697917 399.802083 L 365.5 362.5 " transform="matrix(0.75,0,0,0.75,0,0)"/>
<path style="fill:none;stroke-width:2;stroke-linecap:butt;stroke-linejoin:miter;stroke:rgb(0%,0%,0%);stroke-opacity:1;stroke-miterlimit:4;" d="M 346.302083 391.401042 L 356 365.302083 " transform="matrix(0.75,0,0,0.75,0,0)"/>
<path style="fill:none;stroke-width:2;stroke-linecap:butt;stroke-linejoin:miter;stroke:rgb(0%,0%,0%);stroke-opacity:1;stroke-miterlimit:4;" d="M 365.5 362.5 L 404.697917 355.802083 " transform="matrix(0.75,0,0,0.75,0,0)"/>
<path style="fill:none;stroke-width:2;stroke-linecap:butt;stroke-linejoin:miter;stroke:rgb(0%,0%,0%);stroke-opacity:1;stroke-miterlimit:4;" d="M 404.697917 355.802083 L 410.401042 340.598958 " transform="matrix(0.75,0,0,0.75,0,0)"/>
<path style="fill:none;stroke-width:2;stroke-linecap:butt;stroke-linejoin:miter;stroke:rgb(0%,0%,100%);stroke-opacity:1;stroke-miterlimit:4;" d="M 410.401042 340.598958 L 416 325.401042 " transform="matrix(0.75,0,0,0.75,0,0)"/>
<path style="fill:none;stroke-width:2;stroke-linecap:butt;stroke-linejoin:miter;stroke:rgb(0%,0%,100%);stroke-opacity:1;stroke-miterlimit:4;" d="M 413 311.802083 L 403.098958 299.802083 " transform="matrix(0.75,0,0,0.75,0,0)"/>
<path style="fill:none;stroke-width:2;stroke-linecap:butt;stroke-linejoin:miter;stroke:rgb(0%,0%,0%);stroke-opacity:1;stroke-miterlimit:4;" d="M 403.098958 299.802083 L 393.197917 287.901042 " transform="matrix(0.75,0,0,0.75,0,0)"/>
<path style="fill:none;stroke-width:2;stroke-linecap:butt;stroke-linejoin:miter;stroke:rgb(0%,0%,100%);stroke-opacity:1;stroke-miterlimit:4;" d="M 416.098958 303.098958 L 409.197917 294.802083 " transform="matrix(0.75,0,0,0.75,0,0)"/>
<path style="fill:none;stroke-width:2;stroke-linecap:butt;stroke-linejoin:miter;stroke:rgb(0%,0%,0%);stroke-opacity:1;stroke-miterlimit:4;" d="M 409.197917 294.802083 L 402.302083 286.401042 " transform="matrix(0.75,0,0,0.75,0,0)"/>
<path style="fill:none;stroke-width:2;stroke-linecap:butt;stroke-linejoin:miter;stroke:rgb(0%,0%,0%);stroke-opacity:1;stroke-miterlimit:4;" d="M 393.197917 287.901042 L 407 250.598958 " transform="matrix(0.75,0,0,0.75,0,0)"/>
<path style="fill:none;stroke-width:2;stroke-linecap:butt;stroke-linejoin:miter;stroke:rgb(0%,0%,0%);stroke-opacity:1;stroke-miterlimit:4;" d="M 407 250.598958 L 446.197917 243.901042 " transform="matrix(0.75,0,0,0.75,0,0)"/>
<path style="fill:none;stroke-width:2;stroke-linecap:butt;stroke-linejoin:miter;stroke:rgb(0%,0%,0%);stroke-opacity:1;stroke-miterlimit:4;" d="M 414.197917 257.5 L 441.598958 252.802083 " transform="matrix(0.75,0,0,0.75,0,0)"/>
<path style="fill:none;stroke-width:2;stroke-linecap:butt;stroke-linejoin:miter;stroke:rgb(0%,0%,0%);stroke-opacity:1;stroke-miterlimit:4;" d="M 446.197917 243.901042 L 471.598958 274.5 " transform="matrix(0.75,0,0,0.75,0,0)"/>
<path style="fill:none;stroke-width:2;stroke-linecap:butt;stroke-linejoin:miter;stroke:rgb(0%,0%,0%);stroke-opacity:1;stroke-miterlimit:4;" d="M 471.598958 274.5 L 457.697917 311.802083 " transform="matrix(0.75,0,0,0.75,0,0)"/>
<path style="fill:none;stroke-width:2;stroke-linecap:butt;stroke-linejoin:miter;stroke:rgb(0%,0%,0%);stroke-opacity:1;stroke-miterlimit:4;" d="M 462 277.401042 L 452.401042 303.5 " transform="matrix(0.75,0,0,0.75,0,0)"/>
<path style="fill:none;stroke-width:2;stroke-linecap:butt;stroke-linejoin:miter;stroke:rgb(0%,0%,0%);stroke-opacity:1;stroke-miterlimit:4;" d="M 365.5 362.5 L 340.197917 331.901042 " transform="matrix(0.75,0,0,0.75,0,0)"/>
<path style="fill:none;stroke-width:2;stroke-linecap:butt;stroke-linejoin:miter;stroke:rgb(0%,0%,0%);stroke-opacity:1;stroke-miterlimit:4;" d="M 340.197917 331.901042 L 323 334.802083 " transform="matrix(0.75,0,0,0.75,0,0)"/>
<path style="fill:none;stroke-width:2;stroke-linecap:butt;stroke-linejoin:miter;stroke:rgb(80%,80%,0%);stroke-opacity:1;stroke-miterlimit:4;" d="M 323 334.802083 L 305.901042 337.697917 " transform="matrix(0.75,0,0,0.75,0,0)"/>
<path style="fill:none;stroke-width:2;stroke-linecap:butt;stroke-linejoin:miter;stroke:rgb(80%,80%,0%);stroke-opacity:1;stroke-miterlimit:4;" d="M 298.302083 345.802083 L 292.697917 360.802083 " transform="matrix(0.75,0,0,0.75,0,0)"/>
<path style="fill:none;stroke-width:2;stroke-linecap:butt;stroke-linejoin:miter;stroke:rgb(0%,0%,0%);stroke-opacity:1;stroke-miterlimit:4;" d="M 292.697917 360.802083 L 287.197917 375.802083 " transform="matrix(0.75,0,0,0.75,0,0)"/>
<path style="fill:none;stroke-width:2;stroke-linecap:butt;stroke-linejoin:miter;stroke:rgb(0%,0%,0%);stroke-opacity:1;stroke-miterlimit:4;" d="M 160.802083 357.697917 L 137.802083 390.098958 " transform="matrix(0.75,0,0,0.75,0,0)"/>
<path style="fill:none;stroke-width:2;stroke-linecap:butt;stroke-linejoin:miter;stroke:rgb(0%,0%,0%);stroke-opacity:1;stroke-miterlimit:4;" d="M 137.802083 390.098958 L 150.5 427.802083 " transform="matrix(0.75,0,0,0.75,0,0)"/>
<path style="fill:none;stroke-width:2;stroke-linecap:butt;stroke-linejoin:miter;stroke:rgb(0%,0%,0%);stroke-opacity:1;stroke-miterlimit:4;" d="M 132.197917 398.302083 L 141.098958 424.697917 " transform="matrix(0.75,0,0,0.75,0,0)"/>
<path style="fill:none;stroke-width:2;stroke-linecap:butt;stroke-linejoin:miter;stroke:rgb(0%,0%,0%);stroke-opacity:1;stroke-miterlimit:4;" d="M 150.5 427.802083 L 137 437.802083 " transform="matrix(0.75,0,0,0.75,0,0)"/>
<path style="fill:none;stroke-width:2;stroke-linecap:butt;stroke-linejoin:miter;stroke:rgb(80%,80%,0%);stroke-opacity:1;stroke-miterlimit:4;" d="M 137 437.802083 L 123.5 447.901042 " transform="matrix(0.75,0,0,0.75,0,0)"/>
<path style="fill:none;stroke-width:2;stroke-linecap:butt;stroke-linejoin:miter;stroke:rgb(80%,80%,0%);stroke-opacity:1;stroke-miterlimit:4;" d="M 113.697917 448.098958 L 99.901042 438.302083 " transform="matrix(0.75,0,0,0.75,0,0)"/>
<path style="fill:none;stroke-width:2;stroke-linecap:butt;stroke-linejoin:miter;stroke:rgb(0%,0%,0%);stroke-opacity:1;stroke-miterlimit:4;" d="M 99.901042 438.302083 L 86.197917 428.598958 " transform="matrix(0.75,0,0,0.75,0,0)"/>
<path style="fill:none;stroke-width:2;stroke-linecap:butt;stroke-linejoin:miter;stroke:rgb(0%,0%,0%);stroke-opacity:1;stroke-miterlimit:4;" d="M 86.197917 428.598958 L 70.098958 434 " transform="matrix(0.75,0,0,0.75,0,0)"/>
<path style="fill:none;stroke-width:2;stroke-linecap:butt;stroke-linejoin:miter;stroke:rgb(0%,0%,100%);stroke-opacity:1;stroke-miterlimit:4;" d="M 70.098958 434 L 54.098958 439.401042 " transform="matrix(0.75,0,0,0.75,0,0)"/>
<path style="fill:none;stroke-width:2;stroke-linecap:butt;stroke-linejoin:miter;stroke:rgb(0%,0%,0%);stroke-opacity:1;stroke-miterlimit:4;" d="M 86.197917 428.598958 L 91 413 " transform="matrix(0.75,0,0,0.75,0,0)"/>
<path style="fill:none;stroke-width:2;stroke-linecap:butt;stroke-linejoin:miter;stroke:rgb(0%,0%,100%);stroke-opacity:1;stroke-miterlimit:4;" d="M 91 413 L 95.901042 397.5 " transform="matrix(0.75,0,0,0.75,0,0)"/>
<path style="fill:none;stroke-width:2;stroke-linecap:butt;stroke-linejoin:miter;stroke:rgb(0%,0%,0%);stroke-opacity:1;stroke-miterlimit:4;" d="M 95.197917 426.302083 L 98.598958 415.401042 " transform="matrix(0.75,0,0,0.75,0,0)"/>
<path style="fill:none;stroke-width:2;stroke-linecap:butt;stroke-linejoin:miter;stroke:rgb(0%,0%,100%);stroke-opacity:1;stroke-miterlimit:4;" d="M 98.598958 415.401042 L 102 404.598958 " transform="matrix(0.75,0,0,0.75,0,0)"/>
<path style="fill:none;stroke-width:2;stroke-linecap:butt;stroke-linejoin:miter;stroke:rgb(0%,0%,0%);stroke-opacity:1;stroke-miterlimit:4;" d="M 150.598958 253 L 134 216.901042 " transform="matrix(0.75,0,0,0.75,0,0)"/>
<path style="fill:none;stroke-width:2;stroke-linecap:butt;stroke-linejoin:miter;stroke:rgb(0%,0%,0%);stroke-opacity:1;stroke-miterlimit:4;" d="M 130.697917 214.598958 L 139.697917 201.901042 " transform="matrix(0.75,0,0,0.75,0,0)"/>
<path style="fill:none;stroke-width:2;stroke-linecap:butt;stroke-linejoin:miter;stroke:rgb(100%,0%,0%);stroke-opacity:1;stroke-miterlimit:4;" d="M 139.697917 201.901042 L 148.598958 189.302083 " transform="matrix(0.75,0,0,0.75,0,0)"/>
<path style="fill:none;stroke-width:2;stroke-linecap:butt;stroke-linejoin:miter;stroke:rgb(0%,0%,0%);stroke-opacity:1;stroke-miterlimit:4;" d="M 137.197917 219.197917 L 146.197917 206.5 " transform="matrix(0.75,0,0,0.75,0,0)"/>
<path style="fill:none;stroke-width:2;stroke-linecap:butt;stroke-linejoin:miter;stroke:rgb(100%,0%,0%);stroke-opacity:1;stroke-miterlimit:4;" d="M 146.197917 206.5 L 155.098958 193.901042 " transform="matrix(0.75,0,0,0.75,0,0)"/>
<path style="fill:none;stroke-width:2;stroke-linecap:butt;stroke-linejoin:miter;stroke:rgb(0%,0%,0%);stroke-opacity:1;stroke-miterlimit:4;" d="M 134 216.901042 L 117.401042 215.302083 " transform="matrix(0.75,0,0,0.75,0,0)"/>
<path style="fill:none;stroke-width:2;stroke-linecap:butt;stroke-linejoin:miter;stroke:rgb(100%,0%,0%);stroke-opacity:1;stroke-miterlimit:4;" d="M 117.401042 215.302083 L 100.901042 213.802083 " transform="matrix(0.75,0,0,0.75,0,0)"/>
<path style="fill:none;stroke-width:2;stroke-linecap:butt;stroke-linejoin:miter;stroke:rgb(0%,0%,100%);stroke-opacity:1;stroke-miterlimit:4;" d="M 134.401042 52.697917 L 144.802083 64.401042 " transform="matrix(0.75,0,0,0.75,0,0)"/>
<path style="fill:none;stroke-width:2;stroke-linecap:butt;stroke-linejoin:miter;stroke:rgb(0%,0%,0%);stroke-opacity:1;stroke-miterlimit:4;" d="M 144.802083 64.401042 L 155.098958 76.197917 " transform="matrix(0.75,0,0,0.75,0,0)"/>
<path style="fill:none;stroke-width:2;stroke-linecap:butt;stroke-linejoin:miter;stroke:rgb(0%,0%,0%);stroke-opacity:1;stroke-miterlimit:4;" d="M 158.901042 77.401042 L 153.697917 92.802083 " transform="matrix(0.75,0,0,0.75,0,0)"/>
<path style="fill:none;stroke-width:2;stroke-linecap:butt;stroke-linejoin:miter;stroke:rgb(100%,0%,0%);stroke-opacity:1;stroke-miterlimit:4;" d="M 153.697917 92.802083 L 148.598958 108.098958 " transform="matrix(0.75,0,0,0.75,0,0)"/>
<path style="fill:none;stroke-width:2;stroke-linecap:butt;stroke-linejoin:miter;stroke:rgb(0%,0%,0%);stroke-opacity:1;stroke-miterlimit:4;" d="M 151.302083 74.901042 L 146.197917 90.197917 " transform="matrix(0.75,0,0,0.75,0,0)"/>
<path style="fill:none;stroke-width:2;stroke-linecap:butt;stroke-linejoin:miter;stroke:rgb(100%,0%,0%);stroke-opacity:1;stroke-miterlimit:4;" d="M 146.197917 90.197917 L 141 105.598958 " transform="matrix(0.75,0,0,0.75,0,0)"/>
<path style="fill:none;stroke-width:1;stroke-linecap:butt;stroke-linejoin:miter;stroke:rgb(0%,0%,0%);stroke-opacity:1;stroke-miterlimit:4;" d="M 187.5 68.901042 L 187.697917 70.197917 " transform="matrix(0.75,0,0,0.75,0,0)"/>
<path style="fill:none;stroke-width:1;stroke-linecap:butt;stroke-linejoin:miter;stroke:rgb(0%,0%,0%);stroke-opacity:1;stroke-miterlimit:4;" d="M 180.802083 69.598958 L 181.401042 72.197917 " transform="matrix(0.75,0,0,0.75,0,0)"/>
<path style="fill:none;stroke-width:1;stroke-linecap:butt;stroke-linejoin:miter;stroke:rgb(0%,0%,0%);stroke-opacity:1;stroke-miterlimit:4;" d="M 174.197917 70.302083 L 175 74.197917 " transform="matrix(0.75,0,0,0.75,0,0)"/>
<path style="fill:none;stroke-width:1;stroke-linecap:butt;stroke-linejoin:miter;stroke:rgb(0%,0%,0%);stroke-opacity:1;stroke-miterlimit:4;" d="M 167.598958 70.901042 L 168.598958 76.098958 " transform="matrix(0.75,0,0,0.75,0,0)"/>
<path style="fill:none;stroke-width:1;stroke-linecap:butt;stroke-linejoin:miter;stroke:rgb(0%,0%,0%);stroke-opacity:1;stroke-miterlimit:4;" d="M 160.901042 71.598958 L 162.302083 78.098958 " transform="matrix(0.75,0,0,0.75,0,0)"/>
<path style="fill:none;stroke-width:1;stroke-linecap:butt;stroke-linejoin:miter;stroke:rgb(0%,0%,0%);stroke-opacity:1;stroke-miterlimit:4;" d="M 154.302083 72.302083 L 155.901042 80.098958 " transform="matrix(0.75,0,0,0.75,0,0)"/>
<path style="fill:none;stroke-width:2;stroke-linecap:butt;stroke-linejoin:miter;stroke:rgb(0%,0%,0%);stroke-opacity:1;stroke-miterlimit:4;" d="M 194.098958 68.302083 L 206.802083 30.598958 " transform="matrix(0.75,0,0,0.75,0,0)"/>
<path style="fill:none;stroke-width:2;stroke-linecap:butt;stroke-linejoin:miter;stroke:rgb(0%,0%,0%);stroke-opacity:1;stroke-miterlimit:4;" d="M 206.802083 30.598958 L 245.697917 22.697917 " transform="matrix(0.75,0,0,0.75,0,0)"/>
<path style="fill:none;stroke-width:2;stroke-linecap:butt;stroke-linejoin:miter;stroke:rgb(0%,0%,0%);stroke-opacity:1;stroke-miterlimit:4;" d="M 245.697917 22.697917 L 272 52.5 " transform="matrix(0.75,0,0,0.75,0,0)"/>
<path style="fill:none;stroke-width:2;stroke-linecap:butt;stroke-linejoin:miter;stroke:rgb(0%,0%,0%);stroke-opacity:1;stroke-miterlimit:4;" d="M 272 52.5 L 259.401042 90.197917 " transform="matrix(0.75,0,0,0.75,0,0)"/>
<path style="fill:none;stroke-width:2;stroke-linecap:butt;stroke-linejoin:miter;stroke:rgb(0%,0%,0%);stroke-opacity:1;stroke-miterlimit:4;" d="M 259.401042 90.197917 L 242.697917 93.598958 " transform="matrix(0.75,0,0,0.75,0,0)"/>
<path style="fill:none;stroke-width:2;stroke-linecap:butt;stroke-linejoin:miter;stroke:rgb(0%,0%,100%);stroke-opacity:1;stroke-miterlimit:4;" d="M 242.697917 93.598958 L 226 97 " transform="matrix(0.75,0,0,0.75,0,0)"/>
<path style="fill:none;stroke-width:2;stroke-linecap:butt;stroke-linejoin:miter;stroke:rgb(0%,0%,100%);stroke-opacity:1;stroke-miterlimit:4;" d="M 226 101.401042 L 240.302083 109.901042 " transform="matrix(0.75,0,0,0.75,0,0)"/>
<path style="fill:none;stroke-width:2;stroke-linecap:butt;stroke-linejoin:miter;stroke:rgb(0%,0%,0%);stroke-opacity:1;stroke-miterlimit:4;" d="M 240.302083 109.901042 L 254.598958 118.302083 " transform="matrix(0.75,0,0,0.75,0,0)"/>
<path style="fill:none;stroke-width:2;stroke-linecap:butt;stroke-linejoin:miter;stroke:rgb(0%,0%,0%);stroke-opacity:1;stroke-miterlimit:4;" d="M 258.598958 118 L 260.098958 134.197917 " transform="matrix(0.75,0,0,0.75,0,0)"/>
<path style="fill:none;stroke-width:2;stroke-linecap:butt;stroke-linejoin:miter;stroke:rgb(100%,0%,0%);stroke-opacity:1;stroke-miterlimit:4;" d="M 260.098958 134.197917 L 261.697917 150.5 " transform="matrix(0.75,0,0,0.75,0,0)"/>
<path style="fill:none;stroke-width:2;stroke-linecap:butt;stroke-linejoin:miter;stroke:rgb(0%,0%,0%);stroke-opacity:1;stroke-miterlimit:4;" d="M 250.697917 118.697917 L 252.197917 135 " transform="matrix(0.75,0,0,0.75,0,0)"/>
<path style="fill:none;stroke-width:2;stroke-linecap:butt;stroke-linejoin:miter;stroke:rgb(100%,0%,0%);stroke-opacity:1;stroke-miterlimit:4;" d="M 252.197917 135 L 253.697917 151.302083 " transform="matrix(0.75,0,0,0.75,0,0)"/>
<path style="fill:none;stroke-width:2;stroke-linecap:butt;stroke-linejoin:miter;stroke:rgb(0%,0%,0%);stroke-opacity:1;stroke-miterlimit:4;" d="M 254.598958 118.302083 L 266.697917 107.598958 " transform="matrix(0.75,0,0,0.75,0,0)"/>
<path style="fill:none;stroke-width:2;stroke-linecap:butt;stroke-linejoin:miter;stroke:rgb(0%,0%,100%);stroke-opacity:1;stroke-miterlimit:4;" d="M 266.697917 107.598958 L 278.802083 97 " transform="matrix(0.75,0,0,0.75,0,0)"/>
<path style="fill:none;stroke-width:2;stroke-linecap:butt;stroke-linejoin:miter;stroke:rgb(0%,0%,100%);stroke-opacity:1;stroke-miterlimit:4;" d="M 290 93.302083 L 303.401042 96.302083 " transform="matrix(0.75,0,0,0.75,0,0)"/>
<path style="fill:none;stroke-width:2;stroke-linecap:butt;stroke-linejoin:miter;stroke:rgb(100%,0%,0%);stroke-opacity:1;stroke-miterlimit:4;" d="M 303.401042 96.302083 L 316.802083 99.197917 " transform="matrix(0.75,0,0,0.75,0,0)"/>
<path style="fill:none;stroke-width:2;stroke-linecap:butt;stroke-linejoin:miter;stroke:rgb(100%,0%,0%);stroke-opacity:1;stroke-miterlimit:4;" d="M 329.697917 93.697917 L 337.401042 85.197917 " transform="matrix(0.75,0,0,0.75,0,0)"/>
<path style="fill:none;stroke-width:2;stroke-linecap:butt;stroke-linejoin:miter;stroke:rgb(80%,80%,0%);stroke-opacity:1;stroke-miterlimit:4;" d="M 337.401042 85.197917 L 345.197917 76.802083 " transform="matrix(0.75,0,0,0.75,0,0)"/>
<path style="fill:none;stroke-width:2;stroke-linecap:butt;stroke-linejoin:miter;stroke:rgb(80%,80%,0%);stroke-opacity:1;stroke-miterlimit:4;" d="M 342.5 69.802083 L 333.598958 61.598958 " transform="matrix(0.75,0,0,0.75,0,0)"/>
<path style="fill:none;stroke-width:2;stroke-linecap:butt;stroke-linejoin:miter;stroke:rgb(100%,0%,0%);stroke-opacity:1;stroke-miterlimit:4;" d="M 333.598958 61.598958 L 324.697917 53.401042 " transform="matrix(0.75,0,0,0.75,0,0)"/>
<path style="fill:none;stroke-width:2;stroke-linecap:butt;stroke-linejoin:miter;stroke:rgb(80%,80%,0%);stroke-opacity:1;stroke-miterlimit:4;" d="M 347.901042 64 L 339 55.802083 " transform="matrix(0.75,0,0,0.75,0,0)"/>
<path style="fill:none;stroke-width:2;stroke-linecap:butt;stroke-linejoin:miter;stroke:rgb(100%,0%,0%);stroke-opacity:1;stroke-miterlimit:4;" d="M 339 55.802083 L 330 47.5 " transform="matrix(0.75,0,0,0.75,0,0)"/>
<path style="fill:none;stroke-width:2;stroke-linecap:butt;stroke-linejoin:miter;stroke:rgb(80%,80%,0%);stroke-opacity:1;stroke-miterlimit:4;" d="M 357.802083 73 L 366.697917 81.197917 " transform="matrix(0.75,0,0,0.75,0,0)"/>
<path style="fill:none;stroke-width:2;stroke-linecap:butt;stroke-linejoin:miter;stroke:rgb(100%,0%,0%);stroke-opacity:1;stroke-miterlimit:4;" d="M 366.697917 81.197917 L 375.598958 89.401042 " transform="matrix(0.75,0,0,0.75,0,0)"/>
<path style="fill:none;stroke-width:2;stroke-linecap:butt;stroke-linejoin:miter;stroke:rgb(80%,80%,0%);stroke-opacity:1;stroke-miterlimit:4;" d="M 352.401042 78.901042 L 361.302083 87.098958 " transform="matrix(0.75,0,0,0.75,0,0)"/>
<path style="fill:none;stroke-width:2;stroke-linecap:butt;stroke-linejoin:miter;stroke:rgb(100%,0%,0%);stroke-opacity:1;stroke-miterlimit:4;" d="M 361.302083 87.098958 L 370.197917 95.302083 " transform="matrix(0.75,0,0,0.75,0,0)"/>
<path style="fill:none;stroke-width:2;stroke-linecap:butt;stroke-linejoin:miter;stroke:rgb(80%,80%,0%);stroke-opacity:1;stroke-miterlimit:4;" d="M 355.098958 66.098958 L 362.802083 57.598958 " transform="matrix(0.75,0,0,0.75,0,0)"/>
<path style="fill:none;stroke-width:2;stroke-linecap:butt;stroke-linejoin:miter;stroke:rgb(100%,0%,0%);stroke-opacity:1;stroke-miterlimit:4;" d="M 362.802083 57.598958 L 370.598958 49.197917 " transform="matrix(0.75,0,0,0.75,0,0)"/>
<path style="fill:none;stroke-width:2;stroke-linecap:butt;stroke-linejoin:miter;stroke:rgb(0%,0%,0%);stroke-opacity:1;stroke-miterlimit:4;" d="M 287.197917 375.802083 L 256.5 401.197917 " transform="matrix(0.75,0,0,0.75,0,0)"/>
<path style="fill:none;stroke-width:2;stroke-linecap:butt;stroke-linejoin:miter;stroke:rgb(0%,0%,100%);stroke-opacity:1;stroke-miterlimit:4;" d="M 103.598958 390.5 L 120.697917 390.302083 " transform="matrix(0.75,0,0,0.75,0,0)"/>
<path style="fill:none;stroke-width:2;stroke-linecap:butt;stroke-linejoin:miter;stroke:rgb(0%,0%,0%);stroke-opacity:1;stroke-miterlimit:4;" d="M 120.697917 390.302083 L 137.802083 390.098958 " transform="matrix(0.75,0,0,0.75,0,0)"/>
<path style="fill:none;stroke-width:2;stroke-linecap:butt;stroke-linejoin:miter;stroke:rgb(0%,0%,100%);stroke-opacity:1;stroke-miterlimit:4;" d="M 214.802083 91.802083 L 204.401042 80 " transform="matrix(0.75,0,0,0.75,0,0)"/>
<path style="fill:none;stroke-width:2;stroke-linecap:butt;stroke-linejoin:miter;stroke:rgb(0%,0%,0%);stroke-opacity:1;stroke-miterlimit:4;" d="M 204.401042 80 L 194.098958 68.302083 " transform="matrix(0.75,0,0,0.75,0,0)"/>
<path style="fill:none;stroke-width:2;stroke-linecap:butt;stroke-linejoin:miter;stroke:rgb(0%,0%,0%);stroke-opacity:1;stroke-miterlimit:4;" d="M 287.197917 375.802083 L 297 387.802083 " transform="matrix(0.75,0,0,0.75,0,0)"/>
<path style="fill:none;stroke-width:2;stroke-linecap:butt;stroke-linejoin:miter;stroke:rgb(0%,0%,100%);stroke-opacity:1;stroke-miterlimit:4;" d="M 297 387.802083 L 306.901042 399.697917 " transform="matrix(0.75,0,0,0.75,0,0)"/>
<path style="fill:none;stroke-width:2;stroke-linecap:butt;stroke-linejoin:miter;stroke:rgb(0%,0%,100%);stroke-opacity:1;stroke-miterlimit:4;" d="M 282.302083 85.098958 L 277.098958 68.802083 " transform="matrix(0.75,0,0,0.75,0,0)"/>
<path style="fill:none;stroke-width:2;stroke-linecap:butt;stroke-linejoin:miter;stroke:rgb(0%,0%,0%);stroke-opacity:1;stroke-miterlimit:4;" d="M 277.098958 68.802083 L 272 52.5 " transform="matrix(0.75,0,0,0.75,0,0)"/>
<path style="fill:none;stroke-width:2;stroke-linecap:butt;stroke-linejoin:miter;stroke:rgb(0%,0%,0%);stroke-opacity:1;stroke-miterlimit:4;" d="M 457.697917 311.802083 L 444.098958 314.197917 " transform="matrix(0.75,0,0,0.75,0,0)"/>
<path style="fill:none;stroke-width:2;stroke-linecap:butt;stroke-linejoin:miter;stroke:rgb(0%,0%,100%);stroke-opacity:1;stroke-miterlimit:4;" d="M 444.098958 314.197917 L 430.401042 316.5 " transform="matrix(0.75,0,0,0.75,0,0)"/>
<path style="fill:none;stroke-width:1;stroke-linecap:butt;stroke-linejoin:miter;stroke:rgb(0%,0%,0%);stroke-opacity:1;stroke-miterlimit:4;" d="M 283.302083 372.302083 L 282.5 373.401042 " transform="matrix(0.75,0,0,0.75,0,0)"/>
<path style="fill:none;stroke-width:1;stroke-linecap:butt;stroke-linejoin:miter;stroke:rgb(0%,0%,0%);stroke-opacity:1;stroke-miterlimit:4;" d="M 279.401042 368.697917 L 277.901042 370.901042 " transform="matrix(0.75,0,0,0.75,0,0)"/>
<path style="fill:none;stroke-width:1;stroke-linecap:butt;stroke-linejoin:miter;stroke:rgb(0%,0%,0%);stroke-opacity:1;stroke-miterlimit:4;" d="M 275.598958 365.197917 L 273.302083 368.401042 " transform="matrix(0.75,0,0,0.75,0,0)"/>
<path style="fill:none;stroke-width:1;stroke-linecap:butt;stroke-linejoin:miter;stroke:rgb(0%,0%,0%);stroke-opacity:1;stroke-miterlimit:4;" d="M 271.697917 361.697917 L 268.697917 366 " transform="matrix(0.75,0,0,0.75,0,0)"/>
<path style="fill:none;stroke-width:1;stroke-linecap:butt;stroke-linejoin:miter;stroke:rgb(0%,0%,0%);stroke-opacity:1;stroke-miterlimit:4;" d="M 267.901042 358.098958 L 264.098958 363.5 " transform="matrix(0.75,0,0,0.75,0,0)"/>
<path style="fill:none;stroke-width:1;stroke-linecap:butt;stroke-linejoin:miter;stroke:rgb(0%,0%,0%);stroke-opacity:1;stroke-miterlimit:4;" d="M 264 354.598958 L 259.401042 361.098958 " transform="matrix(0.75,0,0,0.75,0,0)"/>
<path style=" stroke:none;fill-rule:nonzero;fill:rgb(100%,0%,0%);fill-opacity:1;" d="M 121.5 216.898438 C 121.5 215.550781 121.824219 214.476562 122.476562 213.675781 C 123.175781 212.925781 124.148438 212.550781 125.398438 212.550781 C 126.648438 212.550781 127.601562 212.925781 128.25 213.675781 C 128.898438 214.476562 129.226562 215.550781 129.226562 216.898438 C 129.226562 218.25 128.898438 219.300781 128.25 220.050781 C 127.550781 220.851562 126.601562 221.25 125.398438 221.25 C 124.148438 221.25 123.175781 220.851562 122.476562 220.050781 C 121.824219 219.300781 121.5 218.25 121.5 216.898438 M 125.398438 220.273438 C 126.25 220.273438 126.898438 220 127.351562 219.449219 C 127.800781 218.851562 128.023438 218 128.023438 216.898438 C 128.023438 215.75 127.800781 214.898438 127.351562 214.351562 C 126.898438 213.800781 126.25 213.523438 125.398438 213.523438 C 124.550781 213.523438 123.875 213.800781 123.375 214.351562 C 122.925781 214.898438 122.699219 215.75 122.699219 216.898438 C 122.699219 218 122.925781 218.851562 123.375 219.449219 C 123.875 220 124.550781 220.273438 125.398438 220.273438 "/>
<path style=" stroke:none;fill-rule:nonzero;fill:rgb(0%,0%,100%);fill-opacity:1;" d="M 106.273438 236.925781 L 109.050781 241.425781 C 109.199219 241.726562 109.425781 242.148438 109.726562 242.699219 C 110.023438 243.199219 110.199219 243.476562 110.25 243.523438 L 110.25 236.925781 L 111.300781 236.925781 L 111.300781 245.398438 L 110.175781 245.398438 L 107.175781 240.523438 C 106.976562 240.125 106.75 239.699219 106.5 239.25 C 106.25 238.851562 106.101562 238.574219 106.050781 238.425781 L 106.050781 245.398438 L 104.925781 245.398438 L 104.925781 236.925781 L 106.273438 236.925781 "/>
<path style=" stroke:none;fill-rule:nonzero;fill:rgb(100%,0%,0%);fill-opacity:1;" d="M 163.648438 246.75 C 163.648438 245.398438 163.976562 244.351562 164.625 243.601562 C 165.324219 242.851562 166.300781 242.476562 167.550781 242.476562 C 168.800781 242.476562 169.75 242.851562 170.398438 243.601562 C 171.050781 244.351562 171.375 245.398438 171.375 246.75 C 171.375 248.101562 171.050781 249.175781 170.398438 249.976562 C 169.699219 250.726562 168.75 251.101562 167.550781 251.101562 C 166.300781 251.101562 165.324219 250.726562 164.625 249.976562 C 163.976562 249.175781 163.648438 248.101562 163.648438 246.75 M 167.550781 250.125 C 168.398438 250.125 169.050781 249.851562 169.5 249.300781 C 169.949219 248.699219 170.175781 247.851562 170.175781 246.75 C 170.175781 245.648438 169.949219 244.824219 169.5 244.273438 C 169.050781 243.675781 168.398438 243.375 167.550781 243.375 C 166.648438 243.375 165.976562 243.648438 165.523438 244.199219 C 165.074219 244.800781 164.851562 245.648438 164.851562 246.75 C 164.851562 247.898438 165.074219 248.75 165.523438 249.300781 C 165.976562 249.851562 166.648438 250.125 167.550781 250.125 "/>
<path style=" stroke:none;fill-rule:nonzero;fill:rgb(0%,0%,100%);fill-opacity:1;" d="M 151.875 293.925781 L 153.074219 293.925781 L 153.074219 297.523438 L 157.351562 297.523438 L 157.351562 293.925781 L 158.476562 293.925781 L 158.476562 302.324219 L 157.351562 302.324219 L 157.351562 298.425781 L 153.074219 298.425781 L 153.074219 302.324219 L 151.875 302.324219 L 151.875 293.925781 "/>
<path style=" stroke:none;fill-rule:nonzero;fill:rgb(0%,0%,100%);fill-opacity:1;" d="M 160.875 293.925781 L 163.648438 298.425781 C 163.800781 298.675781 164.023438 299.074219 164.324219 299.625 C 164.625 300.175781 164.773438 300.449219 164.773438 300.449219 L 164.773438 293.925781 L 165.898438 293.925781 L 165.898438 302.324219 L 164.773438 302.324219 L 161.773438 297.449219 C 161.574219 297.101562 161.351562 296.699219 161.101562 296.25 C 160.851562 295.800781 160.675781 295.5 160.574219 295.351562 L 160.574219 302.324219 L 159.523438 302.324219 L 159.523438 293.925781 L 160.875 293.925781 "/>
<path style=" stroke:none;fill-rule:nonzero;fill:rgb(100%,0%,0%);fill-opacity:1;" d="M 204.824219 353.550781 C 204.824219 352.199219 205.148438 351.148438 205.800781 350.398438 C 206.449219 349.648438 207.398438 349.273438 208.648438 349.273438 C 209.898438 349.273438 210.875 349.648438 211.574219 350.398438 C 212.226562 351.148438 212.550781 352.199219 212.550781 353.550781 C 212.550781 354.949219 212.226562 356.023438 211.574219 356.773438 C 210.875 357.574219 209.898438 357.976562 208.648438 357.976562 C 207.449219 357.976562 206.5 357.574219 205.800781 356.773438 C 205.148438 356.023438 204.824219 354.949219 204.824219 353.550781 M 208.648438 357 C 209.550781 357 210.226562 356.726562 210.675781 356.175781 C 211.125 355.574219 211.351562 354.699219 211.351562 353.550781 C 211.351562 352.449219 211.125 351.625 210.675781 351.074219 C 210.226562 350.523438 209.550781 350.25 208.648438 350.25 C 207.800781 350.25 207.148438 350.523438 206.699219 351.074219 C 206.25 351.625 206.023438 352.449219 206.023438 353.550781 C 206.023438 354.699219 206.25 355.574219 206.699219 356.175781 C 207.148438 356.726562 207.800781 357 208.648438 357 "/>
<path style=" stroke:none;fill-rule:nonzero;fill:rgb(0%,0%,100%);fill-opacity:1;" d="M 232.5 300.601562 L 235.273438 305.101562 C 235.476562 305.398438 235.726562 305.800781 236.023438 306.300781 C 236.324219 306.851562 236.476562 307.148438 236.476562 307.199219 L 236.476562 300.601562 L 237.601562 300.601562 L 237.601562 309.074219 L 236.476562 309.074219 L 233.476562 304.125 C 233.226562 303.773438 232.976562 303.375 232.726562 302.925781 C 232.523438 302.476562 232.375 302.199219 232.273438 302.101562 L 232.273438 309.074219 L 231.226562 309.074219 L 231.226562 300.601562 L 232.5 300.601562 "/>
<path style=" stroke:none;fill-rule:nonzero;fill:rgb(100%,0%,0%);fill-opacity:1;" d="M 308.324219 317.773438 C 308.324219 316.425781 308.675781 315.375 309.375 314.625 C 310.023438 313.875 310.976562 313.5 312.226562 313.5 C 313.476562 313.5 314.425781 313.875 315.074219 314.625 C 315.773438 315.375 316.125 316.425781 316.125 317.773438 C 316.125 319.125 315.773438 320.199219 315.074219 321 C 314.425781 321.75 313.476562 322.125 312.226562 322.125 C 310.976562 322.125 310.023438 321.75 309.375 321 C 308.675781 320.25 308.324219 319.175781 308.324219 317.773438 M 312.226562 321.226562 C 313.074219 321.226562 313.726562 320.925781 314.175781 320.324219 C 314.675781 319.773438 314.925781 318.925781 314.925781 317.773438 C 314.925781 316.675781 314.675781 315.851562 314.175781 315.300781 C 313.726562 314.75 313.074219 314.476562 312.226562 314.476562 C 311.375 314.476562 310.726562 314.75 310.273438 315.300781 C 309.773438 315.851562 309.523438 316.675781 309.523438 317.773438 C 309.523438 318.925781 309.773438 319.773438 310.273438 320.324219 C 310.726562 320.925781 311.375 321.226562 312.226562 321.226562 "/>
<path style=" stroke:none;fill-rule:nonzero;fill:rgb(100%,0%,0%);fill-opacity:1;" d="M 268.574219 350.773438 C 268.574219 349.425781 268.925781 348.375 269.625 347.625 C 270.273438 346.824219 271.226562 346.425781 272.476562 346.425781 C 273.726562 346.425781 274.675781 346.824219 275.324219 347.625 C 276.023438 348.375 276.375 349.425781 276.375 350.773438 C 276.375 352.125 276.023438 353.199219 275.324219 354 C 274.675781 354.75 273.726562 355.125 272.476562 355.125 C 271.226562 355.125 270.273438 354.75 269.625 354 C 268.925781 353.199219 268.574219 352.125 268.574219 350.773438 M 272.476562 354.148438 C 273.324219 354.148438 273.976562 353.875 274.425781 353.324219 C 274.925781 352.726562 275.175781 351.875 275.175781 350.773438 C 275.175781 349.675781 274.925781 348.851562 274.425781 348.300781 C 273.976562 347.699219 273.324219 347.398438 272.476562 347.398438 C 271.625 347.398438 270.949219 347.675781 270.449219 348.226562 C 270 348.773438 269.773438 349.625 269.773438 350.773438 C 269.773438 351.875 270 352.726562 270.449219 353.324219 C 270.949219 353.875 271.625 354.148438 272.476562 354.148438 "/>
<path style=" stroke:none;fill-rule:nonzero;fill:rgb(100%,0%,0%);fill-opacity:1;" d="M 276.976562 347.851562 L 279.824219 347.851562 L 279.824219 348.449219 L 276.976562 348.449219 L 276.976562 347.851562 "/>
<path style=" stroke:none;fill-rule:nonzero;fill:rgb(0%,0%,100%);fill-opacity:1;" d="M 312.074219 234.675781 L 314.851562 239.101562 C 315 239.398438 315.226562 239.824219 315.523438 240.375 C 315.824219 240.925781 315.976562 241.199219 315.976562 241.199219 L 315.976562 234.675781 L 317.101562 234.675781 L 317.101562 243.074219 L 315.976562 243.074219 L 312.976562 238.199219 C 312.773438 237.851562 312.550781 237.449219 312.300781 237 C 312.050781 236.550781 311.875 236.25 311.773438 236.101562 L 311.773438 243.074219 L 310.726562 243.074219 L 310.726562 234.675781 L 312.074219 234.675781 "/>
<path style=" stroke:none;fill-rule:nonzero;fill:rgb(0%,0%,100%);fill-opacity:1;" d="M 318.074219 236.175781 L 319.574219 236.175781 L 319.574219 234.601562 L 320.25 234.601562 L 320.25 236.175781 L 321.75 236.175781 L 321.75 236.773438 L 320.25 236.773438 L 320.25 238.351562 L 319.574219 238.351562 L 319.574219 236.773438 L 318.074219 236.773438 L 318.074219 236.175781 "/>
<path style=" stroke:none;fill-rule:nonzero;fill:rgb(80%,80%,0%);fill-opacity:1;" d="M 223.351562 256.800781 C 223.398438 256.851562 223.550781 256.925781 223.800781 257.023438 C 224.101562 257.125 224.375 257.199219 224.625 257.25 C 224.925781 257.351562 225.226562 257.398438 225.523438 257.398438 C 226.074219 257.398438 226.5 257.273438 226.800781 257.023438 C 227.101562 256.726562 227.25 256.351562 227.25 255.898438 C 227.25 255.601562 227.175781 255.351562 227.023438 255.148438 C 226.875 254.949219 226.675781 254.800781 226.425781 254.699219 C 226.175781 254.601562 225.851562 254.5 225.449219 254.398438 C 224.949219 254.25 224.550781 254.101562 224.25 253.949219 C 223.949219 253.800781 223.699219 253.574219 223.5 253.273438 C 223.300781 252.976562 223.199219 252.574219 223.199219 252.074219 C 223.199219 251.375 223.425781 250.800781 223.875 250.351562 C 224.375 249.898438 225.101562 249.675781 226.050781 249.675781 C 226.699219 249.675781 227.398438 249.851562 228.148438 250.199219 L 227.851562 251.101562 C 227.199219 250.800781 226.625 250.648438 226.125 250.648438 C 225.574219 250.648438 225.148438 250.773438 224.851562 251.023438 C 224.550781 251.226562 224.398438 251.523438 224.398438 251.925781 C 224.398438 252.226562 224.476562 252.476562 224.625 252.675781 C 224.773438 252.824219 224.949219 252.949219 225.148438 253.050781 C 225.398438 253.199219 225.726562 253.324219 226.125 253.425781 C 226.625 253.574219 227.023438 253.726562 227.324219 253.875 C 227.625 254.023438 227.875 254.273438 228.074219 254.625 C 228.324219 254.925781 228.449219 255.351562 228.449219 255.898438 C 228.449219 256.699219 228.175781 257.300781 227.625 257.699219 C 227.125 258.148438 226.449219 258.375 225.601562 258.375 C 225.101562 258.375 224.648438 258.300781 224.25 258.148438 C 223.851562 258.050781 223.449219 257.925781 223.050781 257.773438 L 223.351562 256.800781 "/>
<path style=" stroke:none;fill-rule:nonzero;fill:rgb(80%,80%,0%);fill-opacity:1;" d="M 86.550781 341.550781 C 86.648438 341.601562 86.824219 341.675781 87.074219 341.773438 C 87.324219 341.875 87.601562 341.949219 87.898438 342 C 88.199219 342.101562 88.476562 342.148438 88.726562 342.148438 C 89.273438 342.148438 89.699219 342.023438 90 341.773438 C 90.351562 341.476562 90.523438 341.101562 90.523438 340.648438 C 90.523438 340.351562 90.425781 340.101562 90.226562 339.898438 C 90.074219 339.699219 89.898438 339.550781 89.699219 339.449219 C 89.449219 339.351562 89.125 339.25 88.726562 339.148438 C 88.226562 339 87.824219 338.851562 87.523438 338.699219 C 87.226562 338.550781 86.976562 338.324219 86.773438 338.023438 C 86.523438 337.726562 86.398438 337.324219 86.398438 336.824219 C 86.398438 336.125 86.648438 335.550781 87.148438 335.101562 C 87.648438 334.648438 88.375 334.425781 89.324219 334.425781 C 89.976562 334.425781 90.675781 334.601562 91.425781 334.949219 L 91.125 335.851562 C 90.425781 335.550781 89.824219 335.398438 89.324219 335.398438 C 88.773438 335.398438 88.351562 335.523438 88.050781 335.773438 C 87.75 335.976562 87.601562 336.273438 87.601562 336.675781 C 87.601562 336.976562 87.675781 337.226562 87.824219 337.425781 C 88.023438 337.574219 88.226562 337.699219 88.425781 337.800781 C 88.675781 337.949219 88.976562 338.074219 89.324219 338.175781 C 89.824219 338.324219 90.226562 338.476562 90.523438 338.625 C 90.875 338.773438 91.148438 339.023438 91.351562 339.375 C 91.550781 339.675781 91.648438 340.101562 91.648438 340.648438 C 91.648438 341.449219 91.398438 342.050781 90.898438 342.449219 C 90.351562 342.898438 89.648438 343.125 88.800781 343.125 C 88.300781 343.125 87.851562 343.050781 87.449219 342.898438 C 87.101562 342.800781 86.699219 342.675781 86.25 342.523438 L 86.550781 341.550781 "/>
<path style=" stroke:none;fill-rule:nonzero;fill:rgb(0%,0%,100%);fill-opacity:1;" d="M 21.300781 326.773438 L 22.5 326.773438 L 22.5 330.300781 L 26.773438 330.300781 L 26.773438 326.773438 L 27.976562 326.773438 L 27.976562 335.175781 L 26.773438 335.175781 L 26.773438 331.273438 L 22.5 331.273438 L 22.5 335.175781 L 21.300781 335.175781 L 21.300781 326.773438 "/>
<path style=" stroke:none;fill-rule:nonzero;fill:rgb(0%,0%,100%);fill-opacity:1;" d="M 28.949219 334.875 C 29.101562 334.523438 29.324219 334.25 29.625 334.050781 C 29.976562 333.851562 30.375 333.75 30.824219 333.75 C 31.375 333.75 31.824219 333.898438 32.175781 334.199219 C 32.476562 334.5 32.625 334.925781 32.625 335.476562 C 32.625 336.023438 32.425781 336.574219 32.023438 337.125 C 31.625 337.625 31 338.175781 30.148438 338.773438 L 32.699219 338.773438 L 32.699219 339.375 L 28.949219 339.375 L 28.949219 338.851562 C 29.648438 338.398438 30.199219 337.976562 30.601562 337.574219 C 31 337.226562 31.300781 336.875 31.5 336.523438 C 31.699219 336.226562 31.800781 335.898438 31.800781 335.550781 C 31.800781 335.199219 31.726562 334.925781 31.574219 334.726562 C 31.375 334.523438 31.125 334.425781 30.824219 334.425781 C 30.523438 334.425781 30.273438 334.476562 30.074219 334.574219 C 29.875 334.675781 29.699219 334.875 29.550781 335.175781 L 28.949219 334.875 "/>
<path style=" stroke:none;fill-rule:nonzero;fill:rgb(0%,0%,100%);fill-opacity:1;" d="M 34.5 326.773438 L 37.273438 331.199219 C 37.476562 331.5 37.726562 331.925781 38.023438 332.476562 C 38.324219 332.976562 38.476562 333.25 38.476562 333.300781 L 38.476562 326.773438 L 39.601562 326.773438 L 39.601562 335.175781 L 38.398438 335.175781 L 35.476562 330.300781 C 35.226562 329.898438 34.976562 329.5 34.726562 329.101562 C 34.476562 328.648438 34.324219 328.351562 34.273438 328.199219 L 34.273438 335.175781 L 33.148438 335.175781 L 33.148438 326.773438 L 34.5 326.773438 "/>
<path style=" stroke:none;fill-rule:nonzero;fill:rgb(0%,0%,100%);fill-opacity:1;" d="M 71.625 288.75 L 74.398438 293.175781 C 74.601562 293.476562 74.851562 293.898438 75.148438 294.449219 C 75.449219 295 75.601562 295.273438 75.601562 295.273438 L 75.601562 288.75 L 76.726562 288.75 L 76.726562 297.148438 L 75.523438 297.148438 L 72.601562 292.273438 C 72.351562 291.875 72.101562 291.476562 71.851562 291.074219 C 71.648438 290.625 71.5 290.324219 71.398438 290.175781 L 71.398438 297.148438 L 70.351562 297.148438 L 70.351562 288.75 L 71.625 288.75 "/>
<path style=" stroke:none;fill-rule:nonzero;fill:rgb(100%,0%,0%);fill-opacity:1;" d="M 113.851562 138.375 C 113.851562 137.023438 114.175781 135.949219 114.824219 135.148438 C 115.523438 134.398438 116.5 134.023438 117.75 134.023438 C 119 134.023438 119.949219 134.398438 120.601562 135.148438 C 121.25 135.949219 121.574219 137.023438 121.574219 138.375 C 121.574219 139.726562 121.25 140.773438 120.601562 141.523438 C 119.898438 142.324219 118.949219 142.726562 117.75 142.726562 C 116.5 142.726562 115.523438 142.324219 114.824219 141.523438 C 114.175781 140.773438 113.851562 139.726562 113.851562 138.375 M 117.75 141.75 C 118.601562 141.75 119.25 141.476562 119.699219 140.925781 C 120.148438 140.324219 120.375 139.476562 120.375 138.375 C 120.375 137.226562 120.148438 136.375 119.699219 135.824219 C 119.25 135.273438 118.601562 135 117.75 135 C 116.898438 135 116.226562 135.273438 115.726562 135.824219 C 115.273438 136.375 115.050781 137.226562 115.050781 138.375 C 115.050781 139.476562 115.273438 140.324219 115.726562 140.925781 C 116.226562 141.476562 116.898438 141.75 117.75 141.75 "/>
<path style=" stroke:none;fill-rule:nonzero;fill:rgb(100%,0%,0%);fill-opacity:1;" d="M 59.324219 155.699219 L 60.449219 155.699219 L 60.449219 159.300781 L 64.726562 159.300781 L 64.726562 155.699219 L 65.925781 155.699219 L 65.925781 164.175781 L 64.726562 164.175781 L 64.726562 160.273438 L 60.449219 160.273438 L 60.449219 164.175781 L 59.324219 164.175781 L 59.324219 155.699219 "/>
<path style=" stroke:none;fill-rule:nonzero;fill:rgb(100%,0%,0%);fill-opacity:1;" d="M 66.898438 159.898438 C 66.898438 158.550781 67.25 157.5 67.949219 156.75 C 68.601562 156 69.550781 155.625 70.800781 155.625 C 72.050781 155.625 73 156 73.648438 156.75 C 74.351562 157.5 74.699219 158.550781 74.699219 159.898438 C 74.699219 161.25 74.351562 162.324219 73.648438 163.125 C 73 163.875 72.050781 164.25 70.800781 164.25 C 69.550781 164.25 68.601562 163.875 67.949219 163.125 C 67.25 162.375 66.898438 161.300781 66.898438 159.898438 M 70.800781 163.351562 C 71.648438 163.351562 72.300781 163.050781 72.75 162.449219 C 73.25 161.898438 73.5 161.050781 73.5 159.898438 C 73.5 158.800781 73.25 157.976562 72.75 157.425781 C 72.300781 156.824219 71.648438 156.523438 70.800781 156.523438 C 69.949219 156.523438 69.273438 156.824219 68.773438 157.425781 C 68.324219 157.976562 68.101562 158.800781 68.101562 159.898438 C 68.101562 161.050781 68.324219 161.898438 68.773438 162.449219 C 69.273438 163.050781 69.949219 163.351562 70.800781 163.351562 "/>
<path style=" stroke:none;fill-rule:nonzero;fill:rgb(0%,0%,100%);fill-opacity:1;" d="M 81.523438 30.523438 L 82.726562 30.523438 L 82.726562 34.125 L 87 34.125 L 87 30.523438 L 88.125 30.523438 L 88.125 39 L 87 39 L 87 35.101562 L 82.726562 35.101562 L 82.726562 39 L 81.523438 39 L 81.523438 30.523438 "/>
<path style=" stroke:none;fill-rule:nonzero;fill:rgb(0%,0%,100%);fill-opacity:1;" d="M 89.175781 38.699219 C 89.324219 38.351562 89.550781 38.074219 89.851562 37.875 C 90.199219 37.675781 90.601562 37.574219 91.050781 37.574219 C 91.601562 37.574219 92.050781 37.726562 92.398438 38.023438 C 92.699219 38.324219 92.851562 38.75 92.851562 39.300781 C 92.851562 39.851562 92.648438 40.375 92.25 40.875 C 91.851562 41.375 91.226562 41.949219 90.375 42.601562 L 92.925781 42.601562 L 92.925781 43.199219 L 89.175781 43.199219 L 89.175781 42.675781 C 89.875 42.175781 90.425781 41.75 90.824219 41.398438 C 91.226562 41 91.523438 40.648438 91.726562 40.351562 C 91.925781 40 92.023438 39.648438 92.023438 39.300781 C 92.023438 38.949219 91.949219 38.675781 91.800781 38.476562 C 91.601562 38.273438 91.351562 38.175781 91.050781 38.175781 C 90.75 38.175781 90.5 38.25 90.300781 38.398438 C 90.101562 38.5 89.925781 38.675781 89.773438 38.925781 L 89.175781 38.699219 "/>
<path style=" stroke:none;fill-rule:nonzero;fill:rgb(0%,0%,100%);fill-opacity:1;" d="M 94.726562 30.523438 L 97.5 35.023438 C 97.699219 35.324219 97.949219 35.726562 98.25 36.226562 C 98.550781 36.773438 98.699219 37.074219 98.699219 37.125 L 98.699219 30.523438 L 99.824219 30.523438 L 99.824219 39 L 98.625 39 L 95.699219 34.050781 C 95.449219 33.699219 95.199219 33.300781 94.949219 32.851562 C 94.699219 32.398438 94.550781 32.125 94.5 32.023438 L 94.5 39 L 93.375 39 L 93.375 30.523438 L 94.726562 30.523438 "/>
<path style=" stroke:none;fill-rule:nonzero;fill:rgb(100%,0%,0%);fill-opacity:1;" d="M 102.976562 85.425781 C 102.976562 84.074219 103.300781 83.023438 103.949219 82.273438 C 104.601562 81.476562 105.550781 81.074219 106.800781 81.074219 C 108.050781 81.074219 109.023438 81.476562 109.726562 82.273438 C 110.375 83.023438 110.699219 84.074219 110.699219 85.425781 C 110.699219 86.773438 110.375 87.851562 109.726562 88.648438 C 109.023438 89.398438 108.050781 89.773438 106.800781 89.773438 C 105.601562 89.773438 104.648438 89.398438 103.949219 88.648438 C 103.300781 87.851562 102.976562 86.773438 102.976562 85.425781 M 106.800781 88.800781 C 107.699219 88.800781 108.375 88.523438 108.824219 87.976562 C 109.273438 87.375 109.5 86.523438 109.5 85.425781 C 109.5 84.324219 109.273438 83.476562 108.824219 82.875 C 108.375 82.324219 107.699219 82.050781 106.800781 82.050781 C 105.949219 82.050781 105.300781 82.324219 104.851562 82.875 C 104.398438 83.425781 104.175781 84.273438 104.175781 85.425781 C 104.175781 86.523438 104.398438 87.375 104.851562 87.976562 C 105.300781 88.523438 105.949219 88.800781 106.800781 88.800781 "/>
<path style=" stroke:none;fill-rule:nonzero;fill:rgb(0%,0%,100%);fill-opacity:1;" d="M 163.425781 69.375 L 166.199219 73.800781 C 166.398438 74.101562 166.625 74.523438 166.875 75.074219 C 167.175781 75.625 167.351562 75.898438 167.398438 75.898438 L 167.398438 69.375 L 168.523438 69.375 L 168.523438 77.773438 L 167.324219 77.773438 L 164.398438 72.898438 C 164.148438 72.5 163.898438 72.101562 163.648438 71.699219 C 163.398438 71.25 163.25 70.949219 163.199219 70.800781 L 163.199219 77.773438 L 162.074219 77.773438 L 162.074219 69.375 L 163.425781 69.375 "/>
<path style=" stroke:none;fill-rule:nonzero;fill:rgb(100%,0%,0%);fill-opacity:1;" d="M 189.898438 118.425781 C 189.898438 117.074219 190.226562 116.023438 190.875 115.273438 C 191.574219 114.523438 192.550781 114.148438 193.800781 114.148438 C 195.050781 114.148438 196 114.523438 196.648438 115.273438 C 197.300781 116.023438 197.625 117.074219 197.625 118.425781 C 197.625 119.824219 197.300781 120.898438 196.648438 121.648438 C 195.949219 122.449219 195 122.851562 193.800781 122.851562 C 192.550781 122.851562 191.574219 122.449219 190.875 121.648438 C 190.226562 120.898438 189.898438 119.824219 189.898438 118.425781 M 193.800781 121.875 C 194.648438 121.875 195.300781 121.601562 195.75 121.050781 C 196.199219 120.449219 196.425781 119.574219 196.425781 118.425781 C 196.425781 117.324219 196.199219 116.5 195.75 115.949219 C 195.300781 115.398438 194.648438 115.125 193.800781 115.125 C 192.949219 115.125 192.273438 115.398438 191.773438 115.949219 C 191.324219 116.5 191.101562 117.324219 191.101562 118.425781 C 191.101562 119.574219 191.324219 120.449219 191.773438 121.050781 C 192.273438 121.601562 192.949219 121.875 193.800781 121.875 "/>
<path style=" stroke:none;fill-rule:nonzero;fill:rgb(0%,0%,100%);fill-opacity:1;" d="M 211.425781 64.800781 L 214.199219 69.300781 C 214.398438 69.601562 214.648438 70 214.949219 70.5 C 215.25 71.050781 215.398438 71.324219 215.398438 71.324219 L 215.398438 64.800781 L 216.523438 64.800781 L 216.523438 73.273438 L 215.398438 73.273438 L 212.398438 68.324219 C 212.148438 67.976562 211.898438 67.574219 211.648438 67.125 C 211.449219 66.675781 211.300781 66.398438 211.199219 66.300781 L 211.199219 73.273438 L 210.148438 73.273438 L 210.148438 64.800781 L 211.425781 64.800781 "/>
<path style=" stroke:none;fill-rule:nonzero;fill:rgb(100%,0%,0%);fill-opacity:1;" d="M 238.574219 75.523438 C 238.574219 74.175781 238.898438 73.125 239.550781 72.375 C 240.199219 71.625 241.148438 71.25 242.398438 71.25 C 243.648438 71.25 244.625 71.625 245.324219 72.375 C 245.976562 73.125 246.300781 74.175781 246.300781 75.523438 C 246.300781 76.925781 245.976562 78 245.324219 78.75 C 244.625 79.550781 243.648438 79.949219 242.398438 79.949219 C 241.199219 79.949219 240.25 79.550781 239.550781 78.75 C 238.898438 78 238.574219 76.925781 238.574219 75.523438 M 242.398438 78.976562 C 243.300781 78.976562 243.976562 78.675781 244.425781 78.074219 C 244.875 77.523438 245.101562 76.675781 245.101562 75.523438 C 245.101562 74.425781 244.875 73.601562 244.425781 73.050781 C 243.976562 72.5 243.300781 72.226562 242.398438 72.226562 C 241.550781 72.226562 240.898438 72.5 240.449219 73.050781 C 240 73.601562 239.773438 74.425781 239.773438 75.523438 C 239.773438 76.675781 240 77.523438 240.449219 78.074219 C 240.898438 78.675781 241.550781 78.976562 242.398438 78.976562 "/>
<path style=" stroke:none;fill-rule:nonzero;fill:rgb(80%,80%,0%);fill-opacity:1;" d="M 260.25 56.476562 C 260.300781 56.476562 260.449219 56.550781 260.699219 56.699219 C 260.949219 56.800781 261.226562 56.875 261.523438 56.925781 C 261.824219 56.976562 262.125 57 262.425781 57 C 262.925781 57 263.351562 56.875 263.699219 56.625 C 264 56.375 264.148438 56.023438 264.148438 55.574219 C 264.148438 55.273438 264.074219 55.023438 263.925781 54.824219 C 263.773438 54.625 263.574219 54.476562 263.324219 54.375 C 263.074219 54.273438 262.75 54.175781 262.351562 54.074219 C 261.851562 53.925781 261.449219 53.773438 261.148438 53.625 C 260.851562 53.476562 260.601562 53.25 260.398438 52.949219 C 260.199219 52.648438 260.101562 52.25 260.101562 51.75 C 260.101562 51.050781 260.324219 50.476562 260.773438 50.023438 C 261.273438 49.574219 262 49.351562 262.949219 49.351562 C 263.601562 49.351562 264.300781 49.5 265.050781 49.800781 L 264.75 50.699219 C 264.101562 50.449219 263.523438 50.324219 263.023438 50.324219 C 262.476562 50.324219 262.050781 50.449219 261.75 50.699219 C 261.398438 50.898438 261.25 51.199219 261.300781 51.601562 C 261.300781 51.898438 261.375 52.125 261.523438 52.273438 C 261.675781 52.476562 261.851562 52.625 262.050781 52.726562 C 262.300781 52.824219 262.625 52.949219 263.023438 53.101562 C 263.523438 53.25 263.925781 53.398438 264.226562 53.550781 C 264.523438 53.699219 264.773438 53.949219 264.976562 54.300781 C 265.226562 54.601562 265.351562 55.023438 265.351562 55.574219 C 265.351562 56.375 265.074219 56.976562 264.523438 57.375 C 264.023438 57.773438 263.324219 57.976562 262.425781 57.976562 C 261.925781 57.976562 261.5 57.925781 261.148438 57.824219 C 260.75 57.726562 260.324219 57.574219 259.875 57.375 L 260.25 56.476562 "/>
<path style=" stroke:none;fill-rule:nonzero;fill:rgb(100%,0%,0%);fill-opacity:1;" d="M 236.773438 33.375 C 236.773438 32.023438 237.101562 30.976562 237.75 30.226562 C 238.449219 29.476562 239.425781 29.101562 240.675781 29.101562 C 241.925781 29.101562 242.875 29.476562 243.523438 30.226562 C 244.175781 30.976562 244.5 32.023438 244.5 33.375 C 244.5 34.773438 244.175781 35.851562 243.523438 36.601562 C 242.824219 37.398438 241.875 37.800781 240.675781 37.800781 C 239.425781 37.800781 238.449219 37.398438 237.75 36.601562 C 237.101562 35.851562 236.773438 34.773438 236.773438 33.375 M 240.675781 36.824219 C 241.523438 36.824219 242.175781 36.550781 242.625 36 C 243.074219 35.398438 243.300781 34.523438 243.300781 33.375 C 243.300781 32.273438 243.074219 31.449219 242.625 30.898438 C 242.175781 30.351562 241.523438 30.074219 240.675781 30.074219 C 239.824219 30.074219 239.148438 30.351562 238.648438 30.898438 C 238.199219 31.449219 237.976562 32.273438 237.976562 33.375 C 237.976562 34.523438 238.199219 35.398438 238.648438 36 C 239.148438 36.550781 239.824219 36.824219 240.675781 36.824219 "/>
<path style=" stroke:none;fill-rule:nonzero;fill:rgb(100%,0%,0%);fill-opacity:1;" d="M 280.648438 73.800781 C 280.648438 72.449219 281 71.375 281.699219 70.574219 C 282.351562 69.824219 283.300781 69.449219 284.550781 69.449219 C 285.800781 69.449219 286.773438 69.824219 287.476562 70.574219 C 288.125 71.375 288.449219 72.449219 288.449219 73.800781 C 288.449219 75.148438 288.101562 76.199219 287.398438 76.949219 C 286.75 77.75 285.800781 78.148438 284.550781 78.148438 C 283.300781 78.148438 282.351562 77.75 281.699219 76.949219 C 281 76.199219 280.648438 75.148438 280.648438 73.800781 M 284.550781 77.175781 C 285.398438 77.175781 286.074219 76.898438 286.574219 76.351562 C 287.023438 75.75 287.25 74.898438 287.25 73.800781 C 287.25 72.648438 287.023438 71.800781 286.574219 71.25 C 286.074219 70.699219 285.398438 70.425781 284.550781 70.425781 C 283.699219 70.425781 283.050781 70.699219 282.601562 71.25 C 282.101562 71.800781 281.851562 72.648438 281.851562 73.800781 C 281.851562 74.898438 282.101562 75.75 282.601562 76.351562 C 283.050781 76.898438 283.699219 77.175781 284.550781 77.175781 "/>
<path style=" stroke:none;fill-rule:nonzero;fill:rgb(100%,0%,0%);fill-opacity:1;" d="M 278.925781 31.648438 C 278.925781 30.300781 279.25 29.25 279.898438 28.5 C 280.601562 27.699219 281.550781 27.300781 282.75 27.300781 C 284 27.300781 284.976562 27.699219 285.675781 28.5 C 286.324219 29.25 286.648438 30.300781 286.648438 31.648438 C 286.648438 33 286.324219 34.074219 285.675781 34.875 C 284.976562 35.625 284 36 282.75 36 C 281.550781 36 280.601562 35.625 279.898438 34.875 C 279.25 34.074219 278.925781 33 278.925781 31.648438 M 282.75 35.023438 C 283.648438 35.023438 284.324219 34.75 284.773438 34.199219 C 285.226562 33.601562 285.449219 32.75 285.449219 31.648438 C 285.449219 30.550781 285.226562 29.726562 284.773438 29.175781 C 284.324219 28.574219 283.648438 28.273438 282.75 28.273438 C 281.898438 28.273438 281.25 28.550781 280.800781 29.101562 C 280.351562 29.648438 280.125 30.5 280.125 31.648438 C 280.125 32.75 280.351562 33.601562 280.800781 34.199219 C 281.25 34.75 281.898438 35.023438 282.75 35.023438 "/>
<path style=" stroke:none;fill-rule:nonzero;fill:rgb(100%,0%,0%);fill-opacity:1;" d="M 287.25 27.449219 L 288.375 27.449219 L 288.375 31.050781 L 292.726562 31.050781 L 292.726562 27.449219 L 293.851562 27.449219 L 293.851562 35.851562 L 292.726562 35.851562 L 292.726562 31.949219 L 288.375 31.949219 L 288.375 35.851562 L 287.25 35.851562 L 287.25 27.449219 "/>
<path style=" stroke:none;fill-rule:nonzero;fill:rgb(0%,0%,0%);fill-opacity:1;" d="M 187.726562 260.398438 L 188.851562 260.398438 L 188.851562 264 L 193.199219 264 L 193.199219 260.398438 L 194.324219 260.398438 L 194.324219 268.875 L 193.199219 268.875 L 193.199219 264.976562 L 188.851562 264.976562 L 188.851562 268.875 L 187.726562 268.875 L 187.726562 260.398438 "/>
<path style=" stroke:none;fill-rule:evenodd;fill:rgb(0%,0%,0%);fill-opacity:1;" d="M 208.199219 39.375 L 208.199219 39.601562 L 208.125 39.675781 L 208.125 39.75 L 208.050781 39.824219 L 207.976562 39.824219 L 207.976562 39.898438 L 207.898438 39.898438 L 207.898438 39.976562 L 207.375 39.976562 L 207.300781 39.898438 L 207.226562 39.898438 L 207.226562 39.824219 L 207.148438 39.824219 L 207.148438 39.75 L 207.074219 39.75 L 207.074219 39.601562 L 207 39.601562 L 207 39.226562 L 207.074219 39.148438 L 207.074219 39.074219 L 207.148438 39.074219 L 207.148438 39 L 207.226562 39 L 207.226562 38.925781 L 207.300781 38.925781 L 207.300781 38.851562 L 207.601562 38.851562 L 207.601562 38.773438 L 207.675781 38.851562 L 207.898438 38.851562 L 207.898438 38.925781 L 207.976562 38.925781 L 208.125 39.074219 L 208.125 39.148438 L 208.199219 39.226562 L 208.199219 39.375 L 207.601562 39.375 Z M 208.199219 39.375 "/>
</g>
</svg>
