<?xml version="1.0" encoding="UTF-8"?>
<svg xmlns="http://www.w3.org/2000/svg" xmlns:xlink="http://www.w3.org/1999/xlink" width="375pt" height="375pt" viewBox="0 0 375 375" version="1.1">
<g id="surface216">
<rect x="0" y="0" width="375" height="375" style="fill:rgb(100%,100%,100%);fill-opacity:1;stroke:none;"/>
<path style="fill:none;stroke-width:2;stroke-linecap:butt;stroke-linejoin:miter;stroke:rgb(0%,0%,0%);stroke-opacity:1;stroke-miterlimit:4;" d="M 477.302083 242.302083 L 446.5 255.302083 " transform="matrix(0.75,0,0,0.75,0,0)"/>
<path style="fill:none;stroke-width:2;stroke-linecap:butt;stroke-linejoin:miter;stroke:rgb(0%,0%,0%);stroke-opacity:1;stroke-miterlimit:4;" d="M 446.5 255.302083 L 435.598958 247 " transform="matrix(0.75,0,0,0.75,0,0)"/>
<path style="fill:none;stroke-width:2;stroke-linecap:butt;stroke-linejoin:miter;stroke:rgb(0%,0%,100%);stroke-opacity:1;stroke-miterlimit:4;" d="M 435.598958 247 L 424.598958 238.697917 " transform="matrix(0.75,0,0,0.75,0,0)"/>
<path style="fill:none;stroke-width:2;stroke-linecap:butt;stroke-linejoin:miter;stroke:rgb(0%,0%,100%);stroke-opacity:1;stroke-miterlimit:4;" d="M 415.197917 231.598958 L 404.302083 223.302083 " transform="matrix(0.75,0,0,0.75,0,0)"/>
<path style="fill:none;stroke-width:2;stroke-linecap:butt;stroke-linejoin:miter;stroke:rgb(0%,0%,0%);stroke-opacity:1;stroke-miterlimit:4;" d="M 404.302083 223.302083 L 393.302083 215.098958 " transform="matrix(0.75,0,0,0.75,0,0)"/>
<path style="fill:none;stroke-width:2;stroke-linecap:butt;stroke-linejoin:miter;stroke:rgb(0%,0%,100%);stroke-opacity:1;stroke-miterlimit:4;" d="M 415.5 241 L 407.598958 251.401042 " transform="matrix(0.75,0,0,0.75,0,0)"/>
<path style="fill:none;stroke-width:2;stroke-linecap:butt;stroke-linejoin:miter;stroke:rgb(0%,0%,0%);stroke-opacity:1;stroke-miterlimit:4;" d="M 407.598958 251.401042 L 399.802083 261.802083 " transform="matrix(0.75,0,0,0.75,0,0)"/>
<path style="fill:none;stroke-width:2;stroke-linecap:butt;stroke-linejoin:miter;stroke:rgb(0%,0%,0%);stroke-opacity:1;stroke-miterlimit:4;" d="M 399.802083 261.802083 L 366.697917 257.697917 " transform="matrix(0.75,0,0,0.75,0,0)"/>
<path style="fill:none;stroke-width:2;stroke-linecap:butt;stroke-linejoin:miter;stroke:rgb(0%,0%,0%);stroke-opacity:1;stroke-miterlimit:4;" d="M 366.697917 257.697917 L 346.598958 284.302083 " transform="matrix(0.75,0,0,0.75,0,0)"/>
<path style="fill:none;stroke-width:2;stroke-linecap:butt;stroke-linejoin:miter;stroke:rgb(0%,0%,0%);stroke-opacity:1;stroke-miterlimit:4;" d="M 369 265.697917 L 354.901042 284.302083 " transform="matrix(0.75,0,0,0.75,0,0)"/>
<path style="fill:none;stroke-width:2;stroke-linecap:butt;stroke-linejoin:miter;stroke:rgb(0%,0%,0%);stroke-opacity:1;stroke-miterlimit:4;" d="M 346.598958 284.302083 L 313.401042 280.197917 " transform="matrix(0.75,0,0,0.75,0,0)"/>
<path style="fill:none;stroke-width:2;stroke-linecap:butt;stroke-linejoin:miter;stroke:rgb(0%,0%,0%);stroke-opacity:1;stroke-miterlimit:4;" d="M 313.401042 280.197917 L 293.302083 306.802083 " transform="matrix(0.75,0,0,0.75,0,0)"/>
<path style="fill:none;stroke-width:2;stroke-linecap:butt;stroke-linejoin:miter;stroke:rgb(0%,0%,0%);stroke-opacity:1;stroke-miterlimit:4;" d="M 305.098958 280.197917 L 291 298.802083 " transform="matrix(0.75,0,0,0.75,0,0)"/>
<path style="fill:none;stroke-width:2;stroke-linecap:butt;stroke-linejoin:miter;stroke:rgb(0%,0%,0%);stroke-opacity:1;stroke-miterlimit:4;" d="M 293.302083 306.802083 L 306.302083 337.598958 " transform="matrix(0.75,0,0,0.75,0,0)"/>
<path style="fill:none;stroke-width:2;stroke-linecap:butt;stroke-linejoin:miter;stroke:rgb(0%,0%,0%);stroke-opacity:1;stroke-miterlimit:4;" d="M 306.697917 334.197917 L 320.598958 336 " transform="matrix(0.75,0,0,0.75,0,0)"/>
<path style="fill:none;stroke-width:2;stroke-linecap:butt;stroke-linejoin:miter;stroke:rgb(100%,0%,0%);stroke-opacity:1;stroke-miterlimit:4;" d="M 320.598958 336 L 334.401042 337.697917 " transform="matrix(0.75,0,0,0.75,0,0)"/>
<path style="fill:none;stroke-width:2;stroke-linecap:butt;stroke-linejoin:miter;stroke:rgb(0%,0%,0%);stroke-opacity:1;stroke-miterlimit:4;" d="M 305.901042 340.901042 L 319.697917 342.598958 " transform="matrix(0.75,0,0,0.75,0,0)"/>
<path style="fill:none;stroke-width:2;stroke-linecap:butt;stroke-linejoin:miter;stroke:rgb(100%,0%,0%);stroke-opacity:1;stroke-miterlimit:4;" d="M 319.697917 342.598958 L 333.598958 344.302083 " transform="matrix(0.75,0,0,0.75,0,0)"/>
<path style="fill:none;stroke-width:2;stroke-linecap:butt;stroke-linejoin:miter;stroke:rgb(0%,0%,0%);stroke-opacity:1;stroke-miterlimit:4;" d="M 306.302083 337.598958 L 298.5 347.901042 " transform="matrix(0.75,0,0,0.75,0,0)"/>
<path style="fill:none;stroke-width:2;stroke-linecap:butt;stroke-linejoin:miter;stroke:rgb(100%,0%,0%);stroke-opacity:1;stroke-miterlimit:4;" d="M 298.5 347.901042 L 290.598958 358.302083 " transform="matrix(0.75,0,0,0.75,0,0)"/>
<path style="fill:none;stroke-width:2;stroke-linecap:butt;stroke-linejoin:miter;stroke:rgb(0%,0%,0%);stroke-opacity:1;stroke-miterlimit:4;" d="M 293.302083 306.802083 L 279.098958 305.098958 " transform="matrix(0.75,0,0,0.75,0,0)"/>
<path style="fill:none;stroke-width:2;stroke-linecap:butt;stroke-linejoin:miter;stroke:rgb(0%,0%,100%);stroke-opacity:1;stroke-miterlimit:4;" d="M 279.098958 305.098958 L 264.901042 303.302083 " transform="matrix(0.75,0,0,0.75,0,0)"/>
<path style="fill:none;stroke-width:2;stroke-linecap:butt;stroke-linejoin:miter;stroke:rgb(0%,0%,100%);stroke-opacity:1;stroke-miterlimit:4;" d="M 255.5 304.697917 L 242.5 310.197917 " transform="matrix(0.75,0,0,0.75,0,0)"/>
<path style="fill:none;stroke-width:2;stroke-linecap:butt;stroke-linejoin:miter;stroke:rgb(0%,0%,0%);stroke-opacity:1;stroke-miterlimit:4;" d="M 242.5 310.197917 L 229.5 315.697917 " transform="matrix(0.75,0,0,0.75,0,0)"/>
<path style="fill:none;stroke-width:2;stroke-linecap:butt;stroke-linejoin:miter;stroke:rgb(0%,0%,0%);stroke-opacity:1;stroke-miterlimit:4;" d="M 232.598958 317 L 227.5 329.5 " transform="matrix(0.75,0,0,0.75,0,0)"/>
<path style="fill:none;stroke-width:2;stroke-linecap:butt;stroke-linejoin:miter;stroke:rgb(100%,0%,0%);stroke-opacity:1;stroke-miterlimit:4;" d="M 227.5 329.5 L 222.401042 342 " transform="matrix(0.75,0,0,0.75,0,0)"/>
<path style="fill:none;stroke-width:2;stroke-linecap:butt;stroke-linejoin:miter;stroke:rgb(0%,0%,0%);stroke-opacity:1;stroke-miterlimit:4;" d="M 226.401042 314.401042 L 221.302083 327 " transform="matrix(0.75,0,0,0.75,0,0)"/>
<path style="fill:none;stroke-width:2;stroke-linecap:butt;stroke-linejoin:miter;stroke:rgb(100%,0%,0%);stroke-opacity:1;stroke-miterlimit:4;" d="M 221.302083 327 L 216.197917 339.5 " transform="matrix(0.75,0,0,0.75,0,0)"/>
<path style="fill:none;stroke-width:2;stroke-linecap:butt;stroke-linejoin:miter;stroke:rgb(0%,0%,0%);stroke-opacity:1;stroke-miterlimit:4;" d="M 229.5 315.697917 L 216.5 285 " transform="matrix(0.75,0,0,0.75,0,0)"/>
<path style="fill-rule:evenodd;fill:rgb(0%,0%,0%);fill-opacity:1;stroke-width:1;stroke-linecap:butt;stroke-linejoin:miter;stroke:rgb(0%,0%,0%);stroke-opacity:1;stroke-miterlimit:4;" d="M 216.5 285 L 203.302083 281.401042 L 204.5 278.302083 Z M 216.5 285 " transform="matrix(0.75,0,0,0.75,0,0)"/>
<path style="fill-rule:evenodd;fill:rgb(0%,0%,100%);fill-opacity:1;stroke-width:1;stroke-linecap:butt;stroke-linejoin:miter;stroke:rgb(0%,0%,100%);stroke-opacity:1;stroke-miterlimit:4;" d="M 203.302083 281.401042 L 192.598958 271.697917 L 190.098958 277.901042 Z M 203.302083 281.401042 " transform="matrix(0.75,0,0,0.75,0,0)"/>
<path style="fill-rule:evenodd;fill:rgb(0%,0%,100%);fill-opacity:1;stroke-width:1;stroke-linecap:butt;stroke-linejoin:miter;stroke:rgb(0%,0%,100%);stroke-opacity:1;stroke-miterlimit:4;" d="M 203.302083 281.401042 L 204.5 278.302083 L 192.598958 271.697917 Z M 203.302083 281.401042 " transform="matrix(0.75,0,0,0.75,0,0)"/>
<path style="fill:none;stroke-width:2;stroke-linecap:butt;stroke-linejoin:miter;stroke:rgb(0%,0%,100%);stroke-opacity:1;stroke-miterlimit:4;" d="M 184.697917 266.598958 L 182.802083 253 " transform="matrix(0.75,0,0,0.75,0,0)"/>
<path style="fill:none;stroke-width:2;stroke-linecap:butt;stroke-linejoin:miter;stroke:rgb(0%,0%,0%);stroke-opacity:1;stroke-miterlimit:4;" d="M 182.802083 253 L 180.901042 239.401042 " transform="matrix(0.75,0,0,0.75,0,0)"/>
<path style="fill:none;stroke-width:2;stroke-linecap:butt;stroke-linejoin:miter;stroke:rgb(0%,0%,0%);stroke-opacity:1;stroke-miterlimit:4;" d="M 178.901042 236.697917 L 189.302083 228.598958 " transform="matrix(0.75,0,0,0.75,0,0)"/>
<path style="fill:none;stroke-width:2;stroke-linecap:butt;stroke-linejoin:miter;stroke:rgb(100%,0%,0%);stroke-opacity:1;stroke-miterlimit:4;" d="M 189.302083 228.598958 L 199.802083 220.5 " transform="matrix(0.75,0,0,0.75,0,0)"/>
<path style="fill:none;stroke-width:2;stroke-linecap:butt;stroke-linejoin:miter;stroke:rgb(0%,0%,0%);stroke-opacity:1;stroke-miterlimit:4;" d="M 183 242 L 193.401042 233.901042 " transform="matrix(0.75,0,0,0.75,0,0)"/>
<path style="fill:none;stroke-width:2;stroke-linecap:butt;stroke-linejoin:miter;stroke:rgb(100%,0%,0%);stroke-opacity:1;stroke-miterlimit:4;" d="M 193.401042 233.901042 L 203.901042 225.697917 " transform="matrix(0.75,0,0,0.75,0,0)"/>
<path style="fill:none;stroke-width:2;stroke-linecap:butt;stroke-linejoin:miter;stroke:rgb(0%,0%,0%);stroke-opacity:1;stroke-miterlimit:4;" d="M 180.901042 239.401042 L 150 226.802083 " transform="matrix(0.75,0,0,0.75,0,0)"/>
<path style="fill:none;stroke-width:2;stroke-linecap:butt;stroke-linejoin:miter;stroke:rgb(0%,0%,0%);stroke-opacity:1;stroke-miterlimit:4;" d="M 150 226.802083 L 148.098958 213.197917 " transform="matrix(0.75,0,0,0.75,0,0)"/>
<path style="fill:none;stroke-width:2;stroke-linecap:butt;stroke-linejoin:miter;stroke:rgb(0%,0%,100%);stroke-opacity:1;stroke-miterlimit:4;" d="M 148.098958 213.197917 L 146.197917 199.598958 " transform="matrix(0.75,0,0,0.75,0,0)"/>
<path style="fill:none;stroke-width:2;stroke-linecap:butt;stroke-linejoin:miter;stroke:rgb(0%,0%,0%);stroke-opacity:1;stroke-miterlimit:4;" d="M 156.098958 221.802083 L 154.697917 212.302083 " transform="matrix(0.75,0,0,0.75,0,0)"/>
<path style="fill:none;stroke-width:2;stroke-linecap:butt;stroke-linejoin:miter;stroke:rgb(0%,0%,100%);stroke-opacity:1;stroke-miterlimit:4;" d="M 154.697917 212.302083 L 153.401042 202.802083 " transform="matrix(0.75,0,0,0.75,0,0)"/>
<path style="fill:none;stroke-width:2;stroke-linecap:butt;stroke-linejoin:miter;stroke:rgb(0%,0%,100%);stroke-opacity:1;stroke-miterlimit:4;" d="M 140.697917 191.901042 L 130.302083 187.598958 " transform="matrix(0.75,0,0,0.75,0,0)"/>
<path style="fill:none;stroke-width:2;stroke-linecap:butt;stroke-linejoin:miter;stroke:rgb(100%,0%,0%);stroke-opacity:1;stroke-miterlimit:4;" d="M 130.302083 187.598958 L 119.901042 183.401042 " transform="matrix(0.75,0,0,0.75,0,0)"/>
<path style="fill:none;stroke-width:2;stroke-linecap:butt;stroke-linejoin:miter;stroke:rgb(100%,0%,0%);stroke-opacity:1;stroke-miterlimit:4;" d="M 113.697917 175.302083 L 111.802083 161.802083 " transform="matrix(0.75,0,0,0.75,0,0)"/>
<path style="fill:none;stroke-width:2;stroke-linecap:butt;stroke-linejoin:miter;stroke:rgb(0%,0%,0%);stroke-opacity:1;stroke-miterlimit:4;" d="M 111.802083 161.802083 L 109.901042 148.197917 " transform="matrix(0.75,0,0,0.75,0,0)"/>
<path style="fill:none;stroke-width:2;stroke-linecap:butt;stroke-linejoin:miter;stroke:rgb(0%,0%,0%);stroke-opacity:1;stroke-miterlimit:4;" d="M 109.901042 148.197917 L 96.401042 142.697917 " transform="matrix(0.75,0,0,0.75,0,0)"/>
<path style="fill:none;stroke-width:2;stroke-linecap:butt;stroke-linejoin:miter;stroke:rgb(20%,80%,80%);stroke-opacity:1;stroke-miterlimit:4;" d="M 96.401042 142.697917 L 82.901042 137.197917 " transform="matrix(0.75,0,0,0.75,0,0)"/>
<path style="fill:none;stroke-width:2;stroke-linecap:butt;stroke-linejoin:miter;stroke:rgb(0%,0%,0%);stroke-opacity:1;stroke-miterlimit:4;" d="M 150 226.802083 L 123.697917 247.302083 " transform="matrix(0.75,0,0,0.75,0,0)"/>
<path style="fill:none;stroke-width:2;stroke-linecap:butt;stroke-linejoin:miter;stroke:rgb(0%,0%,0%);stroke-opacity:1;stroke-miterlimit:4;" d="M 123.697917 247.302083 L 124.197917 261.098958 " transform="matrix(0.75,0,0,0.75,0,0)"/>
<path style="fill:none;stroke-width:2;stroke-linecap:butt;stroke-linejoin:miter;stroke:rgb(0%,0%,100%);stroke-opacity:1;stroke-miterlimit:4;" d="M 124.197917 261.098958 L 124.598958 274.901042 " transform="matrix(0.75,0,0,0.75,0,0)"/>
<path style="fill:none;stroke-width:2;stroke-linecap:butt;stroke-linejoin:miter;stroke:rgb(0%,0%,0%);stroke-opacity:1;stroke-miterlimit:4;" d="M 117.197917 251.697917 L 117.5 261.302083 " transform="matrix(0.75,0,0,0.75,0,0)"/>
<path style="fill:none;stroke-width:2;stroke-linecap:butt;stroke-linejoin:miter;stroke:rgb(0%,0%,100%);stroke-opacity:1;stroke-miterlimit:4;" d="M 117.5 261.302083 L 117.802083 270.901042 " transform="matrix(0.75,0,0,0.75,0,0)"/>
<path style="fill:none;stroke-width:2;stroke-linecap:butt;stroke-linejoin:miter;stroke:rgb(0%,0%,100%);stroke-opacity:1;stroke-miterlimit:4;" d="M 120.098958 282.401042 L 108.802083 286.5 " transform="matrix(0.75,0,0,0.75,0,0)"/>
<path style="fill:none;stroke-width:2;stroke-linecap:butt;stroke-linejoin:miter;stroke:rgb(80%,80%,0%);stroke-opacity:1;stroke-miterlimit:4;" d="M 108.802083 286.5 L 97.598958 290.598958 " transform="matrix(0.75,0,0,0.75,0,0)"/>
<path style="fill:none;stroke-width:2;stroke-linecap:butt;stroke-linejoin:miter;stroke:rgb(80%,80%,0%);stroke-opacity:1;stroke-miterlimit:4;" d="M 89.302083 286.697917 L 81.098958 276.197917 " transform="matrix(0.75,0,0,0.75,0,0)"/>
<path style="fill:none;stroke-width:2;stroke-linecap:butt;stroke-linejoin:miter;stroke:rgb(0%,0%,0%);stroke-opacity:1;stroke-miterlimit:4;" d="M 81.098958 276.197917 L 72.901042 265.697917 " transform="matrix(0.75,0,0,0.75,0,0)"/>
<path style="fill:none;stroke-width:2;stroke-linecap:butt;stroke-linejoin:miter;stroke:rgb(0%,0%,0%);stroke-opacity:1;stroke-miterlimit:4;" d="M 72.901042 265.697917 L 58.598958 266.197917 " transform="matrix(0.75,0,0,0.75,0,0)"/>
<path style="fill:none;stroke-width:2;stroke-linecap:butt;stroke-linejoin:miter;stroke:rgb(0%,0%,100%);stroke-opacity:1;stroke-miterlimit:4;" d="M 58.598958 266.197917 L 44.302083 266.697917 " transform="matrix(0.75,0,0,0.75,0,0)"/>
<path style="fill:none;stroke-width:2;stroke-linecap:butt;stroke-linejoin:miter;stroke:rgb(0%,0%,0%);stroke-opacity:1;stroke-miterlimit:4;" d="M 72.901042 265.697917 L 80.302083 254.802083 " transform="matrix(0.75,0,0,0.75,0,0)"/>
<path style="fill:none;stroke-width:2;stroke-linecap:butt;stroke-linejoin:miter;stroke:rgb(0%,0%,100%);stroke-opacity:1;stroke-miterlimit:4;" d="M 80.302083 254.802083 L 87.697917 243.901042 " transform="matrix(0.75,0,0,0.75,0,0)"/>
<path style="fill:none;stroke-width:2;stroke-linecap:butt;stroke-linejoin:miter;stroke:rgb(0%,0%,0%);stroke-opacity:1;stroke-miterlimit:4;" d="M 80.697917 266.197917 L 85.802083 258.598958 " transform="matrix(0.75,0,0,0.75,0,0)"/>
<path style="fill:none;stroke-width:2;stroke-linecap:butt;stroke-linejoin:miter;stroke:rgb(0%,0%,100%);stroke-opacity:1;stroke-miterlimit:4;" d="M 85.802083 258.598958 L 91 250.901042 " transform="matrix(0.75,0,0,0.75,0,0)"/>
<path style="fill:none;stroke-width:2;stroke-linecap:butt;stroke-linejoin:miter;stroke:rgb(0%,0%,0%);stroke-opacity:1;stroke-miterlimit:4;" d="M 216.5 285 L 247.197917 272 " transform="matrix(0.75,0,0,0.75,0,0)"/>
<path style="fill:none;stroke-width:2;stroke-linecap:butt;stroke-linejoin:miter;stroke:rgb(0%,0%,0%);stroke-opacity:1;stroke-miterlimit:4;" d="M 247.197917 272 L 255.197917 261.401042 " transform="matrix(0.75,0,0,0.75,0,0)"/>
<path style="fill:none;stroke-width:2;stroke-linecap:butt;stroke-linejoin:miter;stroke:rgb(80%,80%,0%);stroke-opacity:1;stroke-miterlimit:4;" d="M 255.197917 261.401042 L 263.197917 250.802083 " transform="matrix(0.75,0,0,0.75,0,0)"/>
<path style="fill:none;stroke-width:2;stroke-linecap:butt;stroke-linejoin:miter;stroke:rgb(80%,80%,0%);stroke-opacity:1;stroke-miterlimit:4;" d="M 271.5 245.901042 L 285.901042 247.697917 " transform="matrix(0.75,0,0,0.75,0,0)"/>
<path style="fill:none;stroke-width:2;stroke-linecap:butt;stroke-linejoin:miter;stroke:rgb(0%,0%,0%);stroke-opacity:1;stroke-miterlimit:4;" d="M 285.901042 247.697917 L 300.401042 249.5 " transform="matrix(0.75,0,0,0.75,0,0)"/>
<path style="fill:none;stroke-width:2;stroke-linecap:butt;stroke-linejoin:miter;stroke:rgb(0%,0%,100%);stroke-opacity:1;stroke-miterlimit:4;" d="M 424.401042 229.302083 L 432.197917 218.901042 " transform="matrix(0.75,0,0,0.75,0,0)"/>
<path style="fill:none;stroke-width:2;stroke-linecap:butt;stroke-linejoin:miter;stroke:rgb(0%,0%,0%);stroke-opacity:1;stroke-miterlimit:4;" d="M 432.197917 218.901042 L 440 208.598958 " transform="matrix(0.75,0,0,0.75,0,0)"/>
<path style="fill:none;stroke-width:2;stroke-linecap:butt;stroke-linejoin:miter;stroke:rgb(0%,0%,0%);stroke-opacity:1;stroke-miterlimit:4;" d="M 440 208.598958 L 427 177.802083 " transform="matrix(0.75,0,0,0.75,0,0)"/>
<path style="fill:none;stroke-width:2;stroke-linecap:butt;stroke-linejoin:miter;stroke:rgb(0%,0%,0%);stroke-opacity:1;stroke-miterlimit:4;" d="M 427 177.802083 L 434.901042 167.401042 " transform="matrix(0.75,0,0,0.75,0,0)"/>
<path style="fill:none;stroke-width:2;stroke-linecap:butt;stroke-linejoin:miter;stroke:rgb(0%,0%,100%);stroke-opacity:1;stroke-miterlimit:4;" d="M 434.901042 167.401042 L 442.802083 157 " transform="matrix(0.75,0,0,0.75,0,0)"/>
<path style="fill:none;stroke-width:2;stroke-linecap:butt;stroke-linejoin:miter;stroke:rgb(0%,0%,0%);stroke-opacity:1;stroke-miterlimit:4;" d="M 426.598958 181.098958 L 412.802083 179.401042 " transform="matrix(0.75,0,0,0.75,0,0)"/>
<path style="fill:none;stroke-width:2;stroke-linecap:butt;stroke-linejoin:miter;stroke:rgb(100%,0%,0%);stroke-opacity:1;stroke-miterlimit:4;" d="M 412.802083 179.401042 L 399 177.697917 " transform="matrix(0.75,0,0,0.75,0,0)"/>
<path style="fill:none;stroke-width:2;stroke-linecap:butt;stroke-linejoin:miter;stroke:rgb(0%,0%,0%);stroke-opacity:1;stroke-miterlimit:4;" d="M 427.5 174.5 L 413.598958 172.802083 " transform="matrix(0.75,0,0,0.75,0,0)"/>
<path style="fill:none;stroke-width:2;stroke-linecap:butt;stroke-linejoin:miter;stroke:rgb(100%,0%,0%);stroke-opacity:1;stroke-miterlimit:4;" d="M 413.598958 172.802083 L 399.802083 171.098958 " transform="matrix(0.75,0,0,0.75,0,0)"/>
<path style="fill:none;stroke-width:2;stroke-linecap:butt;stroke-linejoin:miter;stroke:rgb(0%,0%,0%);stroke-opacity:1;stroke-miterlimit:4;" d="M 300.401042 249.5 L 313.401042 280.197917 " transform="matrix(0.75,0,0,0.75,0,0)"/>
<path style="fill:none;stroke-width:2;stroke-linecap:butt;stroke-linejoin:miter;stroke:rgb(0%,0%,0%);stroke-opacity:1;stroke-miterlimit:4;" d="M 247.197917 272 L 252.5 284.401042 " transform="matrix(0.75,0,0,0.75,0,0)"/>
<path style="fill:none;stroke-width:2;stroke-linecap:butt;stroke-linejoin:miter;stroke:rgb(0%,0%,100%);stroke-opacity:1;stroke-miterlimit:4;" d="M 252.5 284.401042 L 257.697917 296.901042 " transform="matrix(0.75,0,0,0.75,0,0)"/>
<path style="fill:none;stroke-width:2;stroke-linecap:butt;stroke-linejoin:miter;stroke:rgb(0%,0%,100%);stroke-opacity:1;stroke-miterlimit:4;" d="M 96.302083 239.401042 L 110 243.401042 " transform="matrix(0.75,0,0,0.75,0,0)"/>
<path style="fill:none;stroke-width:2;stroke-linecap:butt;stroke-linejoin:miter;stroke:rgb(0%,0%,0%);stroke-opacity:1;stroke-miterlimit:4;" d="M 110 243.401042 L 123.697917 247.302083 " transform="matrix(0.75,0,0,0.75,0,0)"/>
<path style="fill:none;stroke-width:1;stroke-linecap:butt;stroke-linejoin:miter;stroke:rgb(0%,0%,0%);stroke-opacity:1;stroke-miterlimit:4;" d="M 244.098958 266.598958 L 242.802083 267.598958 " transform="matrix(0.75,0,0,0.75,0,0)"/>
<path style="fill:none;stroke-width:1;stroke-linecap:butt;stroke-linejoin:miter;stroke:rgb(0%,0%,0%);stroke-opacity:1;stroke-miterlimit:4;" d="M 241 261.197917 L 238.302083 263.302083 " transform="matrix(0.75,0,0,0.75,0,0)"/>
<path style="fill:none;stroke-width:1;stroke-linecap:butt;stroke-linejoin:miter;stroke:rgb(0%,0%,0%);stroke-opacity:1;stroke-miterlimit:4;" d="M 237.802083 255.901042 L 233.901042 259 " transform="matrix(0.75,0,0,0.75,0,0)"/>
<path style="fill:none;stroke-width:1;stroke-linecap:butt;stroke-linejoin:miter;stroke:rgb(0%,0%,0%);stroke-opacity:1;stroke-miterlimit:4;" d="M 234.697917 250.5 L 229.5 254.598958 " transform="matrix(0.75,0,0,0.75,0,0)"/>
<path style=" stroke:none;fill-rule:nonzero;fill:rgb(0%,0%,100%);fill-opacity:1;" d="M 313.351562 172.875 L 315.675781 176.625 C 315.824219 176.875 316.023438 177.199219 316.273438 177.601562 C 316.523438 178.050781 316.648438 178.300781 316.648438 178.351562 L 316.648438 172.875 L 317.625 172.875 L 317.625 179.925781 L 316.648438 179.925781 L 314.175781 175.800781 C 313.976562 175.5 313.773438 175.175781 313.574219 174.824219 C 313.375 174.425781 313.25 174.175781 313.199219 174.074219 L 313.199219 179.925781 L 312.226562 179.925781 L 312.226562 172.875 L 313.351562 172.875 "/>
<path style=" stroke:none;fill-rule:nonzero;fill:rgb(0%,0%,100%);fill-opacity:1;" d="M 318.449219 174.148438 L 319.726562 174.148438 L 319.726562 172.800781 L 320.25 172.800781 L 320.25 174.148438 L 321.523438 174.148438 L 321.523438 174.601562 L 320.25 174.601562 L 320.25 175.949219 L 319.726562 175.949219 L 319.726562 174.601562 L 318.449219 174.601562 L 318.449219 174.148438 "/>
<path style=" stroke:none;fill-rule:nonzero;fill:rgb(100%,0%,0%);fill-opacity:1;" d="M 251.324219 256.273438 C 251.324219 255.125 251.601562 254.25 252.148438 253.648438 C 252.699219 253 253.5 252.675781 254.550781 252.675781 C 255.601562 252.675781 256.398438 253 256.949219 253.648438 C 257.550781 254.25 257.851562 255.125 257.851562 256.273438 C 257.851562 257.425781 257.550781 258.324219 256.949219 258.976562 C 256.398438 259.625 255.601562 259.949219 254.550781 259.949219 C 253.5 259.949219 252.699219 259.625 252.148438 258.976562 C 251.601562 258.324219 251.324219 257.425781 251.324219 256.273438 M 254.550781 259.125 C 255.300781 259.125 255.851562 258.898438 256.199219 258.449219 C 256.601562 257.949219 256.800781 257.226562 256.800781 256.273438 C 256.800781 255.324219 256.601562 254.625 256.199219 254.175781 C 255.851562 253.726562 255.300781 253.5 254.550781 253.5 C 253.851562 253.5 253.300781 253.726562 252.898438 254.175781 C 252.5 254.625 252.300781 255.324219 252.300781 256.273438 C 252.300781 257.226562 252.5 257.949219 252.898438 258.449219 C 253.300781 258.898438 253.851562 259.125 254.550781 259.125 "/>
<path style=" stroke:none;fill-rule:nonzero;fill:rgb(100%,0%,0%);fill-opacity:1;" d="M 211.351562 273.148438 C 211.351562 272 211.648438 271.125 212.25 270.523438 C 212.800781 269.875 213.601562 269.550781 214.648438 269.550781 C 215.699219 269.550781 216.5 269.875 217.050781 270.523438 C 217.601562 271.125 217.875 272 217.875 273.148438 C 217.875 274.300781 217.601562 275.199219 217.050781 275.851562 C 216.5 276.5 215.699219 276.824219 214.648438 276.824219 C 213.601562 276.824219 212.800781 276.5 212.25 275.851562 C 211.648438 275.199219 211.351562 274.300781 211.351562 273.148438 M 214.648438 276 C 215.351562 276 215.898438 275.773438 216.300781 275.324219 C 216.699219 274.824219 216.898438 274.101562 216.898438 273.148438 C 216.898438 272.25 216.699219 271.550781 216.300781 271.050781 C 215.898438 270.601562 215.351562 270.375 214.648438 270.375 C 213.898438 270.375 213.351562 270.601562 213 271.050781 C 212.601562 271.5 212.398438 272.199219 212.398438 273.148438 C 212.398438 274.101562 212.601562 274.824219 213 275.324219 C 213.351562 275.773438 213.898438 276 214.648438 276 "/>
<path style=" stroke:none;fill-rule:nonzero;fill:rgb(100%,0%,0%);fill-opacity:1;" d="M 218.398438 270.675781 L 220.800781 270.675781 L 220.800781 271.199219 L 218.398438 271.199219 L 218.398438 270.675781 "/>
<path style=" stroke:none;fill-rule:nonzero;fill:rgb(0%,0%,100%);fill-opacity:1;" d="M 193.574219 223.5 L 195.898438 227.25 C 196.050781 227.5 196.25 227.851562 196.5 228.300781 C 196.75 228.75 196.875 228.976562 196.875 228.976562 L 196.875 223.5 L 197.851562 223.5 L 197.851562 230.550781 L 196.875 230.550781 L 194.398438 226.5 C 194.199219 226.148438 194 225.800781 193.800781 225.449219 C 193.601562 225.050781 193.449219 224.800781 193.351562 224.699219 L 193.351562 230.550781 L 192.449219 230.550781 L 192.449219 223.5 L 193.574219 223.5 "/>
<path style=" stroke:none;fill-rule:nonzero;fill:rgb(100%,0%,0%);fill-opacity:1;" d="M 159.449219 260.023438 C 159.449219 258.875 159.726562 257.976562 160.273438 257.324219 C 160.824219 256.675781 161.625 256.351562 162.675781 256.351562 C 163.726562 256.351562 164.523438 256.675781 165.074219 257.324219 C 165.675781 257.976562 165.976562 258.875 165.976562 260.023438 C 165.976562 261.125 165.675781 262.023438 165.074219 262.726562 C 164.523438 263.324219 163.726562 263.625 162.675781 263.625 C 161.625 263.625 160.824219 263.324219 160.273438 262.726562 C 159.726562 262.074219 159.449219 261.175781 159.449219 260.023438 M 162.675781 262.875 C 163.425781 262.875 163.976562 262.625 164.324219 262.125 C 164.726562 261.625 164.925781 260.925781 164.925781 260.023438 C 164.925781 259.074219 164.726562 258.375 164.324219 257.925781 C 163.976562 257.425781 163.425781 257.175781 162.675781 257.175781 C 161.976562 257.175781 161.425781 257.398438 161.023438 257.851562 C 160.625 258.351562 160.425781 259.074219 160.425781 260.023438 C 160.425781 260.976562 160.625 261.675781 161.023438 262.125 C 161.425781 262.625 161.976562 262.875 162.675781 262.875 "/>
<path style=" stroke:none;fill-rule:nonzero;fill:rgb(0%,0%,100%);fill-opacity:1;" d="M 130.050781 200.773438 L 131.023438 200.773438 L 131.023438 203.773438 L 134.625 203.773438 L 134.625 200.773438 L 135.601562 200.773438 L 135.601562 207.824219 L 134.625 207.824219 L 134.625 204.601562 L 131.023438 204.601562 L 131.023438 207.824219 L 130.050781 207.824219 L 130.050781 200.773438 "/>
<path style=" stroke:none;fill-rule:nonzero;fill:rgb(0%,0%,100%);fill-opacity:1;" d="M 137.625 200.773438 L 139.875 204.523438 C 140.074219 204.773438 140.273438 205.125 140.476562 205.574219 C 140.726562 206.023438 140.875 206.25 140.925781 206.25 L 140.925781 200.773438 L 141.824219 200.773438 L 141.824219 207.824219 L 140.851562 207.824219 L 138.375 203.773438 C 138.175781 203.425781 137.976562 203.074219 137.773438 202.726562 C 137.574219 202.375 137.449219 202.125 137.398438 201.976562 L 137.398438 207.824219 L 136.5 207.824219 L 136.5 200.773438 L 137.625 200.773438 "/>
<path style=" stroke:none;fill-rule:nonzero;fill:rgb(100%,0%,0%);fill-opacity:1;" d="M 152.175781 164.175781 C 152.175781 163.023438 152.476562 162.125 153.074219 161.476562 C 153.625 160.875 154.425781 160.574219 155.476562 160.574219 C 156.523438 160.574219 157.324219 160.875 157.875 161.476562 C 158.425781 162.125 158.699219 163.023438 158.699219 164.175781 C 158.699219 165.324219 158.425781 166.226562 157.875 166.875 C 157.273438 167.523438 156.476562 167.851562 155.476562 167.851562 C 154.425781 167.851562 153.625 167.523438 153.074219 166.875 C 152.476562 166.226562 152.175781 165.324219 152.175781 164.175781 M 155.476562 167.023438 C 156.175781 167.023438 156.726562 166.800781 157.125 166.351562 C 157.523438 165.851562 157.726562 165.125 157.726562 164.175781 C 157.726562 163.226562 157.523438 162.523438 157.125 162.074219 C 156.726562 161.574219 156.175781 161.324219 155.476562 161.324219 C 154.726562 161.324219 154.148438 161.574219 153.75 162.074219 C 153.398438 162.523438 153.226562 163.226562 153.226562 164.175781 C 153.226562 165.125 153.398438 165.851562 153.75 166.351562 C 154.148438 166.800781 154.726562 167.023438 155.476562 167.023438 "/>
<path style=" stroke:none;fill-rule:nonzero;fill:rgb(0%,0%,100%);fill-opacity:1;" d="M 107.476562 141.75 L 109.800781 145.5 C 109.949219 145.75 110.148438 146.101562 110.398438 146.550781 C 110.648438 147 110.800781 147.25 110.851562 147.300781 L 110.851562 141.75 L 111.75 141.75 L 111.75 148.875 L 110.773438 148.875 L 108.300781 144.75 C 108.101562 144.449219 107.898438 144.101562 107.699219 143.699219 C 107.5 143.351562 107.375 143.125 107.324219 143.023438 L 107.324219 148.875 L 106.351562 148.875 L 106.351562 141.75 L 107.476562 141.75 "/>
<path style=" stroke:none;fill-rule:nonzero;fill:rgb(100%,0%,0%);fill-opacity:1;" d="M 82.648438 135.898438 C 82.648438 134.800781 82.925781 133.925781 83.476562 133.273438 C 84.023438 132.625 84.824219 132.300781 85.875 132.300781 C 86.925781 132.300781 87.726562 132.625 88.273438 133.273438 C 88.824219 133.925781 89.101562 134.800781 89.101562 135.898438 C 89.101562 137.050781 88.824219 137.949219 88.273438 138.601562 C 87.726562 139.25 86.925781 139.574219 85.875 139.574219 C 84.824219 139.574219 84.023438 139.25 83.476562 138.601562 C 82.925781 138 82.648438 137.101562 82.648438 135.898438 M 85.875 138.824219 C 86.574219 138.824219 87.125 138.574219 87.523438 138.074219 C 87.925781 137.574219 88.125 136.851562 88.125 135.898438 C 88.125 135 87.925781 134.324219 87.523438 133.875 C 87.125 133.375 86.574219 133.125 85.875 133.125 C 85.175781 133.125 84.625 133.351562 84.226562 133.800781 C 83.824219 134.300781 83.625 135 83.625 135.898438 C 83.625 136.898438 83.824219 137.625 84.226562 138.074219 C 84.625 138.574219 85.175781 138.824219 85.875 138.824219 "/>
<path style=" stroke:none;fill-rule:nonzero;fill:rgb(20%,80%,80%);fill-opacity:1;" d="M 57.148438 98.175781 L 61.351562 98.175781 L 61.351562 99 L 58.050781 99 L 58.050781 101.101562 L 60.976562 101.101562 L 60.976562 101.925781 L 58.050781 101.925781 L 58.050781 105.226562 L 57.148438 105.226562 L 57.148438 98.175781 "/>
<path style=" stroke:none;fill-rule:nonzero;fill:rgb(0%,0%,100%);fill-opacity:1;" d="M 92.023438 207 L 94.351562 210.75 C 94.5 211 94.699219 211.324219 94.949219 211.726562 C 95.199219 212.175781 95.324219 212.425781 95.324219 212.476562 L 95.324219 207 L 96.300781 207 L 96.300781 214.050781 L 95.324219 214.050781 L 92.851562 209.925781 C 92.648438 209.625 92.449219 209.300781 92.25 208.949219 C 92.050781 208.550781 91.925781 208.300781 91.875 208.199219 L 91.875 214.050781 L 90.898438 214.050781 L 90.898438 207 L 92.023438 207 "/>
<path style=" stroke:none;fill-rule:nonzero;fill:rgb(80%,80%,0%);fill-opacity:1;" d="M 68.101562 221.476562 C 68.148438 221.476562 68.273438 221.523438 68.476562 221.625 C 68.726562 221.726562 68.949219 221.800781 69.148438 221.851562 C 69.398438 221.898438 69.648438 221.925781 69.898438 221.925781 C 70.351562 221.925781 70.699219 221.824219 70.949219 221.625 C 71.199219 221.425781 71.324219 221.125 71.324219 220.726562 C 71.324219 220.476562 71.273438 220.273438 71.175781 220.125 C 71.023438 219.925781 70.851562 219.800781 70.648438 219.75 C 70.449219 219.648438 70.199219 219.550781 69.898438 219.449219 C 69.449219 219.300781 69.101562 219.175781 68.851562 219.074219 C 68.601562 218.976562 68.398438 218.800781 68.25 218.550781 C 68.050781 218.25 67.949219 217.898438 67.949219 217.5 C 67.949219 216.898438 68.148438 216.425781 68.550781 216.074219 C 68.949219 215.675781 69.550781 215.476562 70.351562 215.476562 C 70.898438 215.476562 71.5 215.625 72.148438 215.925781 L 71.851562 216.675781 C 71.300781 216.425781 70.824219 216.300781 70.425781 216.300781 C 69.925781 216.300781 69.550781 216.398438 69.300781 216.601562 C 69.050781 216.800781 68.925781 217.050781 68.925781 217.351562 C 68.925781 217.601562 69 217.800781 69.148438 217.949219 C 69.300781 218.148438 69.449219 218.273438 69.601562 218.324219 C 69.800781 218.425781 70.074219 218.523438 70.425781 218.625 C 70.824219 218.773438 71.148438 218.898438 71.398438 219 C 71.648438 219.148438 71.875 219.351562 72.074219 219.601562 C 72.273438 219.898438 72.375 220.273438 72.375 220.726562 C 72.375 221.375 72.148438 221.875 71.699219 222.226562 C 71.25 222.574219 70.675781 222.75 69.976562 222.75 C 69.523438 222.75 69.148438 222.699219 68.851562 222.601562 C 68.550781 222.550781 68.199219 222.425781 67.800781 222.226562 L 68.101562 221.476562 "/>
<path style=" stroke:none;fill-rule:nonzero;fill:rgb(0%,0%,100%);fill-opacity:1;" d="M 17.023438 196.574219 L 18 196.574219 L 18 199.574219 L 21.601562 199.574219 L 21.601562 196.574219 L 22.574219 196.574219 L 22.574219 203.699219 L 21.601562 203.699219 L 21.601562 200.398438 L 18 200.398438 L 18 203.699219 L 17.023438 203.699219 L 17.023438 196.574219 "/>
<path style=" stroke:none;fill-rule:nonzero;fill:rgb(0%,0%,100%);fill-opacity:1;" d="M 23.476562 203.398438 C 23.574219 203.101562 23.75 202.875 24 202.726562 C 24.300781 202.574219 24.648438 202.5 25.050781 202.5 C 25.5 202.5 25.851562 202.625 26.101562 202.875 C 26.398438 203.125 26.550781 203.476562 26.550781 203.925781 C 26.550781 204.375 26.375 204.824219 26.023438 205.273438 C 25.675781 205.726562 25.148438 206.199219 24.449219 206.699219 L 26.625 206.699219 L 26.625 207.226562 L 23.476562 207.226562 L 23.476562 206.773438 C 24.023438 206.375 24.476562 206.023438 24.824219 205.726562 C 25.175781 205.375 25.425781 205.074219 25.574219 204.824219 C 25.773438 204.523438 25.875 204.25 25.875 204 C 25.875 203.699219 25.800781 203.449219 25.648438 203.25 C 25.5 203.101562 25.300781 203.023438 25.050781 203.023438 C 24.800781 203.023438 24.574219 203.074219 24.375 203.175781 C 24.226562 203.273438 24.074219 203.425781 23.925781 203.625 L 23.476562 203.398438 "/>
<path style=" stroke:none;fill-rule:nonzero;fill:rgb(0%,0%,100%);fill-opacity:1;" d="M 28.125 196.574219 L 30.449219 200.324219 C 30.601562 200.574219 30.800781 200.925781 31.050781 201.375 C 31.300781 201.824219 31.425781 202.074219 31.425781 202.125 L 31.425781 196.574219 L 32.398438 196.574219 L 32.398438 203.699219 L 31.425781 203.699219 L 28.875 199.574219 C 28.726562 199.226562 28.523438 198.875 28.273438 198.523438 C 28.074219 198.175781 27.949219 197.949219 27.898438 197.851562 L 27.898438 203.699219 L 27 203.699219 L 27 196.574219 L 28.125 196.574219 "/>
<path style=" stroke:none;fill-rule:nonzero;fill:rgb(0%,0%,100%);fill-opacity:1;" d="M 67.125 175.050781 L 69.449219 178.800781 C 69.601562 179.050781 69.800781 179.375 70.050781 179.773438 C 70.300781 180.226562 70.449219 180.476562 70.5 180.523438 L 70.5 175.050781 L 71.398438 175.050781 L 71.398438 182.101562 L 70.425781 182.101562 L 67.949219 177.976562 C 67.75 177.675781 67.550781 177.351562 67.351562 177 C 67.148438 176.601562 67.023438 176.351562 66.976562 176.25 L 66.976562 182.101562 L 66 182.101562 L 66 175.050781 L 67.125 175.050781 "/>
<path style=" stroke:none;fill-rule:nonzero;fill:rgb(80%,80%,0%);fill-opacity:1;" d="M 198.523438 186.449219 C 198.574219 186.449219 198.699219 186.5 198.898438 186.601562 C 199.101562 186.699219 199.324219 186.773438 199.574219 186.824219 C 199.824219 186.875 200.074219 186.898438 200.324219 186.898438 C 200.773438 186.898438 201.125 186.800781 201.375 186.601562 C 201.625 186.398438 201.75 186.101562 201.75 185.699219 C 201.75 185.449219 201.699219 185.25 201.601562 185.101562 C 201.449219 184.898438 201.273438 184.773438 201.074219 184.726562 C 200.875 184.625 200.601562 184.523438 200.25 184.425781 C 199.851562 184.273438 199.523438 184.148438 199.273438 184.050781 C 199.023438 183.949219 198.800781 183.773438 198.601562 183.523438 C 198.449219 183.226562 198.375 182.875 198.375 182.476562 C 198.375 181.875 198.574219 181.398438 198.976562 181.050781 C 199.375 180.648438 199.976562 180.449219 200.773438 180.449219 C 201.324219 180.449219 201.898438 180.601562 202.5 180.898438 L 202.273438 181.648438 C 201.726562 181.398438 201.226562 181.273438 200.773438 181.273438 C 200.324219 181.273438 199.976562 181.375 199.726562 181.574219 C 199.476562 181.773438 199.351562 182.023438 199.351562 182.324219 C 199.351562 182.574219 199.425781 182.773438 199.574219 182.925781 C 199.675781 183.125 199.824219 183.25 200.023438 183.300781 C 200.226562 183.398438 200.476562 183.5 200.773438 183.601562 C 201.226562 183.75 201.574219 183.875 201.824219 183.976562 C 202.074219 184.125 202.300781 184.324219 202.5 184.574219 C 202.699219 184.875 202.800781 185.25 202.800781 185.699219 C 202.800781 186.351562 202.574219 186.851562 202.125 187.199219 C 201.675781 187.550781 201.074219 187.726562 200.324219 187.726562 C 199.925781 187.726562 199.574219 187.675781 199.273438 187.574219 C 198.925781 187.523438 198.574219 187.398438 198.226562 187.199219 L 198.523438 186.449219 "/>
<path style=" stroke:none;fill-rule:nonzero;fill:rgb(0%,0%,100%);fill-opacity:1;" d="M 333.824219 109.875 L 336.148438 113.625 C 336.300781 113.875 336.5 114.226562 336.75 114.675781 C 337 115.125 337.125 115.351562 337.125 115.351562 L 337.125 109.875 L 338.023438 109.875 L 338.023438 116.925781 L 337.125 116.925781 L 334.574219 112.875 C 334.375 112.523438 334.175781 112.175781 333.976562 111.824219 C 333.773438 111.425781 333.648438 111.175781 333.601562 111.074219 L 333.601562 116.925781 L 332.699219 116.925781 L 332.699219 109.875 L 333.824219 109.875 "/>
<path style=" stroke:none;fill-rule:nonzero;fill:rgb(0%,0%,100%);fill-opacity:1;" d="M 338.925781 109.875 L 339.824219 109.875 L 339.824219 112.875 L 343.5 112.875 L 343.5 109.875 L 344.398438 109.875 L 344.398438 116.925781 L 343.5 116.925781 L 343.5 113.699219 L 339.824219 113.699219 L 339.824219 116.925781 L 338.925781 116.925781 L 338.925781 109.875 "/>
<path style=" stroke:none;fill-rule:nonzero;fill:rgb(0%,0%,100%);fill-opacity:1;" d="M 345.300781 116.699219 C 345.398438 116.398438 345.601562 116.175781 345.898438 116.023438 C 346.148438 115.824219 346.476562 115.726562 346.875 115.726562 C 347.324219 115.726562 347.699219 115.875 348 116.175781 C 348.25 116.425781 348.375 116.773438 348.375 117.226562 C 348.375 117.675781 348.199219 118.125 347.851562 118.574219 C 347.5 118.976562 346.976562 119.425781 346.273438 119.925781 L 348.449219 119.925781 L 348.449219 120.449219 L 345.300781 120.449219 L 345.300781 120.074219 C 345.851562 119.625 346.300781 119.25 346.648438 118.949219 C 347 118.648438 347.273438 118.351562 347.476562 118.050781 C 347.625 117.800781 347.699219 117.523438 347.699219 117.226562 C 347.699219 116.925781 347.625 116.699219 347.476562 116.550781 C 347.324219 116.351562 347.125 116.25 346.875 116.25 C 346.625 116.25 346.398438 116.300781 346.199219 116.398438 C 346.050781 116.550781 345.925781 116.726562 345.824219 116.925781 L 345.300781 116.699219 "/>
<path style=" stroke:none;fill-rule:nonzero;fill:rgb(100%,0%,0%);fill-opacity:1;" d="M 292.199219 130.273438 C 292.199219 129.175781 292.476562 128.300781 293.023438 127.648438 C 293.574219 127 294.375 126.675781 295.425781 126.675781 C 296.476562 126.675781 297.273438 127 297.824219 127.648438 C 298.425781 128.300781 298.726562 129.175781 298.726562 130.273438 C 298.726562 131.425781 298.425781 132.324219 297.824219 132.976562 C 297.273438 133.625 296.476562 133.949219 295.425781 133.949219 C 294.375 133.949219 293.574219 133.625 293.023438 132.976562 C 292.476562 132.324219 292.199219 131.425781 292.199219 130.273438 M 295.425781 133.199219 C 296.175781 133.199219 296.726562 132.949219 297.074219 132.449219 C 297.476562 131.949219 297.675781 131.226562 297.675781 130.273438 C 297.675781 129.375 297.476562 128.675781 297.074219 128.175781 C 296.726562 127.726562 296.175781 127.5 295.425781 127.5 C 294.726562 127.5 294.175781 127.726562 293.773438 128.175781 C 293.375 128.675781 293.175781 129.375 293.175781 130.273438 C 293.175781 131.226562 293.375 131.949219 293.773438 132.449219 C 294.175781 132.949219 294.726562 133.199219 295.425781 133.199219 "/>
<path style=" stroke:none;fill-rule:nonzero;fill:rgb(0%,0%,0%);fill-opacity:1;" d="M 167.25 180.675781 L 168.226562 180.675781 L 168.226562 183.675781 L 171.824219 183.675781 L 171.824219 180.675781 L 172.800781 180.675781 L 172.800781 187.800781 L 171.824219 187.800781 L 171.824219 184.5 L 168.226562 184.5 L 168.226562 187.800781 L 167.25 187.800781 L 167.25 180.675781 "/>
</g>
</svg>
