<?xml version="1.0" encoding="UTF-8"?>
<svg xmlns="http://www.w3.org/2000/svg" xmlns:xlink="http://www.w3.org/1999/xlink" width="375pt" height="375pt" viewBox="0 0 375 375" version="1.1">
<g id="surface36">
<rect x="0" y="0" width="375" height="375" style="fill:rgb(100%,100%,100%);fill-opacity:1;stroke:none;"/>
<path style="fill:none;stroke-width:2;stroke-linecap:butt;stroke-linejoin:miter;stroke:rgb(0%,0%,0%);stroke-opacity:1;stroke-miterlimit:4;" d="M 249.697917 135 L 237.901042 144.598958 " transform="matrix(0.75,0,0,0.75,0,0)"/>
<path style="fill:none;stroke-width:2;stroke-linecap:butt;stroke-linejoin:miter;stroke:rgb(0%,0%,100%);stroke-opacity:1;stroke-miterlimit:4;" d="M 237.901042 144.598958 L 226.197917 154.302083 " transform="matrix(0.75,0,0,0.75,0,0)"/>
<path style="fill-rule:evenodd;fill:rgb(0%,0%,0%);fill-opacity:1;stroke-width:1;stroke-linecap:butt;stroke-linejoin:miter;stroke:rgb(0%,0%,0%);stroke-opacity:1;stroke-miterlimit:4;" d="M 227.098958 195.098958 L 222.901042 181 L 226.5 180.401042 Z M 227.098958 195.098958 " transform="matrix(0.75,0,0,0.75,0,0)"/>
<path style="fill-rule:evenodd;fill:rgb(0%,0%,100%);fill-opacity:1;stroke-width:1;stroke-linecap:butt;stroke-linejoin:miter;stroke:rgb(0%,0%,100%);stroke-opacity:1;stroke-miterlimit:4;" d="M 222.901042 181 L 226 165.598958 L 218.598958 166.901042 Z M 222.901042 181 " transform="matrix(0.75,0,0,0.75,0,0)"/>
<path style="fill-rule:evenodd;fill:rgb(0%,0%,100%);fill-opacity:1;stroke-width:1;stroke-linecap:butt;stroke-linejoin:miter;stroke:rgb(0%,0%,100%);stroke-opacity:1;stroke-miterlimit:4;" d="M 222.901042 181 L 226.5 180.401042 L 226 165.598958 Z M 222.901042 181 " transform="matrix(0.75,0,0,0.75,0,0)"/>
<path style="fill:none;stroke-width:2;stroke-linecap:butt;stroke-linejoin:miter;stroke:rgb(0%,0%,0%);stroke-opacity:1;stroke-miterlimit:4;" d="M 227.098958 195.098958 L 261.802083 208.197917 " transform="matrix(0.75,0,0,0.75,0,0)"/>
<path style="fill-rule:evenodd;fill:rgb(0%,0%,0%);fill-opacity:1;stroke-width:1;stroke-linecap:butt;stroke-linejoin:miter;stroke:rgb(0%,0%,0%);stroke-opacity:1;stroke-miterlimit:4;" d="M 261.802083 208.197917 L 271.302083 198 L 273.697917 200.802083 Z M 261.802083 208.197917 " transform="matrix(0.75,0,0,0.75,0,0)"/>
<path style="fill-rule:evenodd;fill:rgb(100%,0%,0%);fill-opacity:1;stroke-width:1;stroke-linecap:butt;stroke-linejoin:miter;stroke:rgb(100%,0%,0%);stroke-opacity:1;stroke-miterlimit:4;" d="M 271.302083 198 L 285.5 193.5 L 280.802083 187.697917 Z M 271.302083 198 " transform="matrix(0.75,0,0,0.75,0,0)"/>
<path style="fill-rule:evenodd;fill:rgb(100%,0%,0%);fill-opacity:1;stroke-width:1;stroke-linecap:butt;stroke-linejoin:miter;stroke:rgb(100%,0%,0%);stroke-opacity:1;stroke-miterlimit:4;" d="M 271.302083 198 L 273.697917 200.802083 L 285.5 193.5 Z M 271.302083 198 " transform="matrix(0.75,0,0,0.75,0,0)"/>
<path style="fill:none;stroke-width:2;stroke-linecap:butt;stroke-linejoin:miter;stroke:rgb(0%,0%,0%);stroke-opacity:1;stroke-miterlimit:4;" d="M 227.098958 195.098958 L 198.401042 218.697917 " transform="matrix(0.75,0,0,0.75,0,0)"/>
<path style="fill:none;stroke-width:1;stroke-linecap:butt;stroke-linejoin:miter;stroke:rgb(0%,0%,0%);stroke-opacity:1;stroke-miterlimit:4;" d="M 193.197917 215.901042 L 192.697917 217.302083 " transform="matrix(0.75,0,0,0.75,0,0)"/>
<path style="fill:none;stroke-width:1;stroke-linecap:butt;stroke-linejoin:miter;stroke:rgb(0%,0%,0%);stroke-opacity:1;stroke-miterlimit:4;" d="M 188 213.197917 L 186.901042 215.901042 " transform="matrix(0.75,0,0,0.75,0,0)"/>
<path style="fill:none;stroke-width:1;stroke-linecap:butt;stroke-linejoin:miter;stroke:rgb(100%,0%,0%);stroke-opacity:1;stroke-miterlimit:4;" d="M 182.802083 210.401042 L 181.197917 214.598958 " transform="matrix(0.75,0,0,0.75,0,0)"/>
<path style="fill:none;stroke-width:1;stroke-linecap:butt;stroke-linejoin:miter;stroke:rgb(100%,0%,0%);stroke-opacity:1;stroke-miterlimit:4;" d="M 177.5 207.697917 L 175.401042 213.197917 " transform="matrix(0.75,0,0,0.75,0,0)"/>
<path style="fill:none;stroke-width:1;stroke-linecap:butt;stroke-linejoin:miter;stroke:rgb(100%,0%,0%);stroke-opacity:1;stroke-miterlimit:4;" d="M 172.302083 204.901042 L 169.697917 211.802083 " transform="matrix(0.75,0,0,0.75,0,0)"/>
<path style="fill-rule:evenodd;fill:rgb(0%,0%,0%);fill-opacity:1;stroke-width:1;stroke-linecap:butt;stroke-linejoin:miter;stroke:rgb(0%,0%,0%);stroke-opacity:1;stroke-miterlimit:4;" d="M 135.098958 229.197917 L 144.598958 219 L 147 221.802083 Z M 135.098958 229.197917 " transform="matrix(0.75,0,0,0.75,0,0)"/>
<path style="fill-rule:evenodd;fill:rgb(100%,0%,0%);fill-opacity:1;stroke-width:1;stroke-linecap:butt;stroke-linejoin:miter;stroke:rgb(100%,0%,0%);stroke-opacity:1;stroke-miterlimit:4;" d="M 144.598958 219 L 158.802083 214.5 L 154.098958 208.697917 Z M 144.598958 219 " transform="matrix(0.75,0,0,0.75,0,0)"/>
<path style="fill-rule:evenodd;fill:rgb(100%,0%,0%);fill-opacity:1;stroke-width:1;stroke-linecap:butt;stroke-linejoin:miter;stroke:rgb(100%,0%,0%);stroke-opacity:1;stroke-miterlimit:4;" d="M 144.598958 219 L 147 221.802083 L 158.802083 214.5 Z M 144.598958 219 " transform="matrix(0.75,0,0,0.75,0,0)"/>
<path style="fill:none;stroke-width:2;stroke-linecap:butt;stroke-linejoin:miter;stroke:rgb(0%,0%,0%);stroke-opacity:1;stroke-miterlimit:4;" d="M 135.098958 229.197917 L 100.401042 216.098958 " transform="matrix(0.75,0,0,0.75,0,0)"/>
<path style="fill:none;stroke-width:2;stroke-linecap:butt;stroke-linejoin:miter;stroke:rgb(0%,0%,0%);stroke-opacity:1;stroke-miterlimit:4;" d="M 100.401042 216.098958 L 71.697917 239.697917 " transform="matrix(0.75,0,0,0.75,0,0)"/>
<path style="fill:none;stroke-width:1;stroke-linecap:butt;stroke-linejoin:miter;stroke:rgb(0%,0%,0%);stroke-opacity:1;stroke-miterlimit:4;" d="M 66.5 236.901042 L 66 238.302083 " transform="matrix(0.75,0,0,0.75,0,0)"/>
<path style="fill:none;stroke-width:1;stroke-linecap:butt;stroke-linejoin:miter;stroke:rgb(0%,0%,0%);stroke-opacity:1;stroke-miterlimit:4;" d="M 61.302083 234.197917 L 60.197917 236.901042 " transform="matrix(0.75,0,0,0.75,0,0)"/>
<path style="fill:none;stroke-width:1;stroke-linecap:butt;stroke-linejoin:miter;stroke:rgb(100%,0%,0%);stroke-opacity:1;stroke-miterlimit:4;" d="M 56 231.401042 L 54.5 235.598958 " transform="matrix(0.75,0,0,0.75,0,0)"/>
<path style="fill:none;stroke-width:1;stroke-linecap:butt;stroke-linejoin:miter;stroke:rgb(100%,0%,0%);stroke-opacity:1;stroke-miterlimit:4;" d="M 50.802083 228.697917 L 48.697917 234.197917 " transform="matrix(0.75,0,0,0.75,0,0)"/>
<path style="fill:none;stroke-width:1;stroke-linecap:butt;stroke-linejoin:miter;stroke:rgb(100%,0%,0%);stroke-opacity:1;stroke-miterlimit:4;" d="M 45.598958 225.901042 L 43 232.802083 " transform="matrix(0.75,0,0,0.75,0,0)"/>
<path style="fill-rule:evenodd;fill:rgb(0%,0%,0%);fill-opacity:1;stroke-width:1;stroke-linecap:butt;stroke-linejoin:miter;stroke:rgb(0%,0%,0%);stroke-opacity:1;stroke-miterlimit:4;" d="M 100.401042 216.098958 L 96.197917 202.098958 L 99.802083 201.5 Z M 100.401042 216.098958 " transform="matrix(0.75,0,0,0.75,0,0)"/>
<path style="fill-rule:evenodd;fill:rgb(100%,0%,0%);fill-opacity:1;stroke-width:1;stroke-linecap:butt;stroke-linejoin:miter;stroke:rgb(100%,0%,0%);stroke-opacity:1;stroke-miterlimit:4;" d="M 96.197917 202.098958 L 99.302083 186.901042 L 92 188.098958 Z M 96.197917 202.098958 " transform="matrix(0.75,0,0,0.75,0,0)"/>
<path style="fill-rule:evenodd;fill:rgb(100%,0%,0%);fill-opacity:1;stroke-width:1;stroke-linecap:butt;stroke-linejoin:miter;stroke:rgb(100%,0%,0%);stroke-opacity:1;stroke-miterlimit:4;" d="M 96.197917 202.098958 L 99.802083 201.5 L 99.302083 186.901042 Z M 96.197917 202.098958 " transform="matrix(0.75,0,0,0.75,0,0)"/>
<path style="fill:none;stroke-width:2;stroke-linecap:butt;stroke-linejoin:miter;stroke:rgb(0%,0%,0%);stroke-opacity:1;stroke-miterlimit:4;" d="M 135.098958 229.197917 L 137.598958 244.197917 " transform="matrix(0.75,0,0,0.75,0,0)"/>
<path style="fill:none;stroke-width:2;stroke-linecap:butt;stroke-linejoin:miter;stroke:rgb(100%,0%,0%);stroke-opacity:1;stroke-miterlimit:4;" d="M 137.598958 244.197917 L 140.098958 259.197917 " transform="matrix(0.75,0,0,0.75,0,0)"/>
<path style="fill:none;stroke-width:2;stroke-linecap:butt;stroke-linejoin:miter;stroke:rgb(100%,0%,0%);stroke-opacity:1;stroke-miterlimit:4;" d="M 135.098958 270.697917 L 123.802083 280 " transform="matrix(0.75,0,0,0.75,0,0)"/>
<path style="fill:none;stroke-width:2;stroke-linecap:butt;stroke-linejoin:miter;stroke:rgb(0%,0%,0%);stroke-opacity:1;stroke-miterlimit:4;" d="M 123.802083 280 L 112.5 289.302083 " transform="matrix(0.75,0,0,0.75,0,0)"/>
<path style="fill:none;stroke-width:1;stroke-linecap:butt;stroke-linejoin:miter;stroke:rgb(0%,0%,0%);stroke-opacity:1;stroke-miterlimit:4;" d="M 112.901042 295.5 L 114.098958 295.302083 " transform="matrix(0.75,0,0,0.75,0,0)"/>
<path style="fill:none;stroke-width:1;stroke-linecap:butt;stroke-linejoin:miter;stroke:rgb(0%,0%,0%);stroke-opacity:1;stroke-miterlimit:4;" d="M 113.302083 301.697917 L 115.697917 301.302083 " transform="matrix(0.75,0,0,0.75,0,0)"/>
<path style="fill:none;stroke-width:1;stroke-linecap:butt;stroke-linejoin:miter;stroke:rgb(0%,0%,0%);stroke-opacity:1;stroke-miterlimit:4;" d="M 113.697917 307.901042 L 117.401042 307.302083 " transform="matrix(0.75,0,0,0.75,0,0)"/>
<path style="fill:none;stroke-width:1;stroke-linecap:butt;stroke-linejoin:miter;stroke:rgb(0%,0%,0%);stroke-opacity:1;stroke-miterlimit:4;" d="M 114.098958 314.098958 L 119 313.302083 " transform="matrix(0.75,0,0,0.75,0,0)"/>
<path style="fill:none;stroke-width:1;stroke-linecap:butt;stroke-linejoin:miter;stroke:rgb(0%,0%,0%);stroke-opacity:1;stroke-miterlimit:4;" d="M 114.5 320.302083 L 120.598958 319.302083 " transform="matrix(0.75,0,0,0.75,0,0)"/>
<path style="fill:none;stroke-width:1;stroke-linecap:butt;stroke-linejoin:miter;stroke:rgb(0%,0%,0%);stroke-opacity:1;stroke-miterlimit:4;" d="M 114.901042 326.5 L 122.197917 325.302083 " transform="matrix(0.75,0,0,0.75,0,0)"/>
<path style="fill:none;stroke-width:2;stroke-linecap:butt;stroke-linejoin:miter;stroke:rgb(0%,0%,0%);stroke-opacity:1;stroke-miterlimit:4;" d="M 118.598958 325.901042 L 107.302083 335.197917 " transform="matrix(0.75,0,0,0.75,0,0)"/>
<path style="fill:none;stroke-width:2;stroke-linecap:butt;stroke-linejoin:miter;stroke:rgb(100%,0%,0%);stroke-opacity:1;stroke-miterlimit:4;" d="M 107.302083 335.197917 L 96 344.401042 " transform="matrix(0.75,0,0,0.75,0,0)"/>
<path style="fill:none;stroke-width:2;stroke-linecap:butt;stroke-linejoin:miter;stroke:rgb(0%,0%,0%);stroke-opacity:1;stroke-miterlimit:4;" d="M 112.5 289.302083 L 77.802083 276.302083 " transform="matrix(0.75,0,0,0.75,0,0)"/>
<path style="fill-rule:evenodd;fill:rgb(0%,0%,0%);fill-opacity:1;stroke-width:1;stroke-linecap:butt;stroke-linejoin:miter;stroke:rgb(0%,0%,0%);stroke-opacity:1;stroke-miterlimit:4;" d="M 77.802083 276.302083 L 67.901042 286.802083 L 65.5 283.901042 Z M 77.802083 276.302083 " transform="matrix(0.75,0,0,0.75,0,0)"/>
<path style="fill-rule:evenodd;fill:rgb(0%,0%,100%);fill-opacity:1;stroke-width:1;stroke-linecap:butt;stroke-linejoin:miter;stroke:rgb(0%,0%,100%);stroke-opacity:1;stroke-miterlimit:4;" d="M 67.901042 286.802083 L 53.197917 291.598958 L 57.901042 297.401042 Z M 67.901042 286.802083 " transform="matrix(0.75,0,0,0.75,0,0)"/>
<path style="fill-rule:evenodd;fill:rgb(0%,0%,100%);fill-opacity:1;stroke-width:1;stroke-linecap:butt;stroke-linejoin:miter;stroke:rgb(0%,0%,100%);stroke-opacity:1;stroke-miterlimit:4;" d="M 67.901042 286.802083 L 65.5 283.901042 L 53.197917 291.598958 Z M 67.901042 286.802083 " transform="matrix(0.75,0,0,0.75,0,0)"/>
<path style="fill:none;stroke-width:2;stroke-linecap:butt;stroke-linejoin:miter;stroke:rgb(0%,0%,0%);stroke-opacity:1;stroke-miterlimit:4;" d="M 198.401042 218.697917 L 200.901042 233.697917 " transform="matrix(0.75,0,0,0.75,0,0)"/>
<path style="fill:none;stroke-width:2;stroke-linecap:butt;stroke-linejoin:miter;stroke:rgb(100%,0%,0%);stroke-opacity:1;stroke-miterlimit:4;" d="M 200.901042 233.697917 L 203.401042 248.697917 " transform="matrix(0.75,0,0,0.75,0,0)"/>
<path style="fill:none;stroke-width:2;stroke-linecap:butt;stroke-linejoin:miter;stroke:rgb(100%,0%,0%);stroke-opacity:1;stroke-miterlimit:4;" d="M 210.5 257.5 L 224.901042 262.901042 " transform="matrix(0.75,0,0,0.75,0,0)"/>
<path style="fill:none;stroke-width:2;stroke-linecap:butt;stroke-linejoin:miter;stroke:rgb(0%,0%,0%);stroke-opacity:1;stroke-miterlimit:4;" d="M 224.901042 262.901042 L 239.197917 268.302083 " transform="matrix(0.75,0,0,0.75,0,0)"/>
<path style="fill:none;stroke-width:2;stroke-linecap:butt;stroke-linejoin:miter;stroke:rgb(0%,0%,0%);stroke-opacity:1;stroke-miterlimit:4;" d="M 239.197917 268.302083 L 245.302083 304.901042 " transform="matrix(0.75,0,0,0.75,0,0)"/>
<path style="fill:none;stroke-width:2;stroke-linecap:butt;stroke-linejoin:miter;stroke:rgb(0%,0%,0%);stroke-opacity:1;stroke-miterlimit:4;" d="M 245.302083 304.901042 L 280 317.901042 " transform="matrix(0.75,0,0,0.75,0,0)"/>
<path style="fill:none;stroke-width:1;stroke-linecap:butt;stroke-linejoin:miter;stroke:rgb(0%,0%,0%);stroke-opacity:1;stroke-miterlimit:4;" d="M 280.197917 323.802083 L 281.697917 323.598958 " transform="matrix(0.75,0,0,0.75,0,0)"/>
<path style="fill:none;stroke-width:1;stroke-linecap:butt;stroke-linejoin:miter;stroke:rgb(0%,0%,0%);stroke-opacity:1;stroke-miterlimit:4;" d="M 280.401042 329.697917 L 283.401042 329.197917 " transform="matrix(0.75,0,0,0.75,0,0)"/>
<path style="fill:none;stroke-width:1;stroke-linecap:butt;stroke-linejoin:miter;stroke:rgb(0%,0%,100%);stroke-opacity:1;stroke-miterlimit:4;" d="M 280.697917 335.598958 L 285 334.901042 " transform="matrix(0.75,0,0,0.75,0,0)"/>
<path style="fill:none;stroke-width:1;stroke-linecap:butt;stroke-linejoin:miter;stroke:rgb(0%,0%,100%);stroke-opacity:1;stroke-miterlimit:4;" d="M 280.901042 341.5 L 286.697917 340.5 " transform="matrix(0.75,0,0,0.75,0,0)"/>
<path style="fill:none;stroke-width:1;stroke-linecap:butt;stroke-linejoin:miter;stroke:rgb(0%,0%,100%);stroke-opacity:1;stroke-miterlimit:4;" d="M 281.098958 347.401042 L 288.401042 346.197917 " transform="matrix(0.75,0,0,0.75,0,0)"/>
<path style="fill:none;stroke-width:2;stroke-linecap:butt;stroke-linejoin:miter;stroke:rgb(0%,0%,0%);stroke-opacity:1;stroke-miterlimit:4;" d="M 239.197917 268.302083 L 267.901042 244.802083 " transform="matrix(0.75,0,0,0.75,0,0)"/>
<path style="fill:none;stroke-width:2;stroke-linecap:butt;stroke-linejoin:miter;stroke:rgb(0%,0%,0%);stroke-opacity:1;stroke-miterlimit:4;" d="M 267.901042 244.802083 L 282.197917 250.098958 " transform="matrix(0.75,0,0,0.75,0,0)"/>
<path style="fill:none;stroke-width:2;stroke-linecap:butt;stroke-linejoin:miter;stroke:rgb(100%,0%,0%);stroke-opacity:1;stroke-miterlimit:4;" d="M 282.197917 250.098958 L 296.5 255.5 " transform="matrix(0.75,0,0,0.75,0,0)"/>
<path style="fill:none;stroke-width:2;stroke-linecap:butt;stroke-linejoin:miter;stroke:rgb(100%,0%,0%);stroke-opacity:1;stroke-miterlimit:4;" d="M 303.697917 264.5 L 306.098958 279.401042 " transform="matrix(0.75,0,0,0.75,0,0)"/>
<path style="fill:none;stroke-width:2;stroke-linecap:butt;stroke-linejoin:miter;stroke:rgb(0%,0%,0%);stroke-opacity:1;stroke-miterlimit:4;" d="M 306.098958 279.401042 L 308.598958 294.401042 " transform="matrix(0.75,0,0,0.75,0,0)"/>
<path style="fill:none;stroke-width:1;stroke-linecap:butt;stroke-linejoin:miter;stroke:rgb(0%,0%,0%);stroke-opacity:1;stroke-miterlimit:4;" d="M 313.901042 297.098958 L 314.401042 295.697917 " transform="matrix(0.75,0,0,0.75,0,0)"/>
<path style="fill:none;stroke-width:1;stroke-linecap:butt;stroke-linejoin:miter;stroke:rgb(0%,0%,0%);stroke-opacity:1;stroke-miterlimit:4;" d="M 319.098958 299.901042 L 320.098958 297.098958 " transform="matrix(0.75,0,0,0.75,0,0)"/>
<path style="fill:none;stroke-width:1;stroke-linecap:butt;stroke-linejoin:miter;stroke:rgb(100%,0%,0%);stroke-opacity:1;stroke-miterlimit:4;" d="M 324.302083 302.598958 L 325.901042 298.5 " transform="matrix(0.75,0,0,0.75,0,0)"/>
<path style="fill:none;stroke-width:1;stroke-linecap:butt;stroke-linejoin:miter;stroke:rgb(100%,0%,0%);stroke-opacity:1;stroke-miterlimit:4;" d="M 329.5 305.401042 L 331.598958 299.802083 " transform="matrix(0.75,0,0,0.75,0,0)"/>
<path style="fill:none;stroke-width:1;stroke-linecap:butt;stroke-linejoin:miter;stroke:rgb(100%,0%,0%);stroke-opacity:1;stroke-miterlimit:4;" d="M 334.802083 308.098958 L 337.401042 301.197917 " transform="matrix(0.75,0,0,0.75,0,0)"/>
<path style="fill-rule:evenodd;fill:rgb(0%,0%,0%);fill-opacity:1;stroke-width:1;stroke-linecap:butt;stroke-linejoin:miter;stroke:rgb(0%,0%,0%);stroke-opacity:1;stroke-miterlimit:4;" d="M 372 283.901042 L 362.5 294.098958 L 360.098958 291.197917 Z M 372 283.901042 " transform="matrix(0.75,0,0,0.75,0,0)"/>
<path style="fill-rule:evenodd;fill:rgb(100%,0%,0%);fill-opacity:1;stroke-width:1;stroke-linecap:butt;stroke-linejoin:miter;stroke:rgb(100%,0%,0%);stroke-opacity:1;stroke-miterlimit:4;" d="M 362.5 294.098958 L 348.197917 298.598958 L 353 304.302083 Z M 362.5 294.098958 " transform="matrix(0.75,0,0,0.75,0,0)"/>
<path style="fill-rule:evenodd;fill:rgb(100%,0%,0%);fill-opacity:1;stroke-width:1;stroke-linecap:butt;stroke-linejoin:miter;stroke:rgb(100%,0%,0%);stroke-opacity:1;stroke-miterlimit:4;" d="M 362.5 294.098958 L 360.098958 291.197917 L 348.197917 298.598958 Z M 362.5 294.098958 " transform="matrix(0.75,0,0,0.75,0,0)"/>
<path style="fill:none;stroke-width:2;stroke-linecap:butt;stroke-linejoin:miter;stroke:rgb(0%,0%,0%);stroke-opacity:1;stroke-miterlimit:4;" d="M 372 283.901042 L 406.697917 296.901042 " transform="matrix(0.75,0,0,0.75,0,0)"/>
<path style="fill:none;stroke-width:2;stroke-linecap:butt;stroke-linejoin:miter;stroke:rgb(0%,0%,0%);stroke-opacity:1;stroke-miterlimit:4;" d="M 406.697917 296.901042 L 435.302083 273.401042 " transform="matrix(0.75,0,0,0.75,0,0)"/>
<path style="fill:none;stroke-width:2;stroke-linecap:butt;stroke-linejoin:miter;stroke:rgb(0%,0%,0%);stroke-opacity:1;stroke-miterlimit:4;" d="M 435.302083 273.401042 L 429.302083 236.802083 " transform="matrix(0.75,0,0,0.75,0,0)"/>
<path style="fill:none;stroke-width:2;stroke-linecap:butt;stroke-linejoin:miter;stroke:rgb(0%,0%,0%);stroke-opacity:1;stroke-miterlimit:4;" d="M 429.302083 236.802083 L 394.598958 223.697917 " transform="matrix(0.75,0,0,0.75,0,0)"/>
<path style="fill-rule:evenodd;fill:rgb(0%,0%,0%);fill-opacity:1;stroke-width:1;stroke-linecap:butt;stroke-linejoin:miter;stroke:rgb(0%,0%,0%);stroke-opacity:1;stroke-miterlimit:4;" d="M 394.598958 223.697917 L 390.401042 209.697917 L 394 209.098958 Z M 394.598958 223.697917 " transform="matrix(0.75,0,0,0.75,0,0)"/>
<path style="fill-rule:evenodd;fill:rgb(100%,0%,0%);fill-opacity:1;stroke-width:1;stroke-linecap:butt;stroke-linejoin:miter;stroke:rgb(100%,0%,0%);stroke-opacity:1;stroke-miterlimit:4;" d="M 390.401042 209.697917 L 393.5 194.5 L 386.197917 195.697917 Z M 390.401042 209.697917 " transform="matrix(0.75,0,0,0.75,0,0)"/>
<path style="fill-rule:evenodd;fill:rgb(100%,0%,0%);fill-opacity:1;stroke-width:1;stroke-linecap:butt;stroke-linejoin:miter;stroke:rgb(100%,0%,0%);stroke-opacity:1;stroke-miterlimit:4;" d="M 390.401042 209.697917 L 394 209.098958 L 393.5 194.5 Z M 390.401042 209.697917 " transform="matrix(0.75,0,0,0.75,0,0)"/>
<path style="fill:none;stroke-width:1;stroke-linecap:butt;stroke-linejoin:miter;stroke:rgb(0%,0%,0%);stroke-opacity:1;stroke-miterlimit:4;" d="M 434.197917 233.697917 L 433.197917 232.598958 " transform="matrix(0.75,0,0,0.75,0,0)"/>
<path style="fill:none;stroke-width:1;stroke-linecap:butt;stroke-linejoin:miter;stroke:rgb(0%,0%,0%);stroke-opacity:1;stroke-miterlimit:4;" d="M 439.098958 230.598958 L 437.197917 228.302083 " transform="matrix(0.75,0,0,0.75,0,0)"/>
<path style="fill:none;stroke-width:1;stroke-linecap:butt;stroke-linejoin:miter;stroke:rgb(0%,0%,100%);stroke-opacity:1;stroke-miterlimit:4;" d="M 444 227.598958 L 441.197917 224.098958 " transform="matrix(0.75,0,0,0.75,0,0)"/>
<path style="fill:none;stroke-width:1;stroke-linecap:butt;stroke-linejoin:miter;stroke:rgb(0%,0%,100%);stroke-opacity:1;stroke-miterlimit:4;" d="M 448.901042 224.5 L 445.197917 219.901042 " transform="matrix(0.75,0,0,0.75,0,0)"/>
<path style="fill:none;stroke-width:1;stroke-linecap:butt;stroke-linejoin:miter;stroke:rgb(0%,0%,100%);stroke-opacity:1;stroke-miterlimit:4;" d="M 453.802083 221.401042 L 449.098958 215.697917 " transform="matrix(0.75,0,0,0.75,0,0)"/>
<path style="fill:none;stroke-width:1;stroke-linecap:butt;stroke-linejoin:miter;stroke:rgb(0%,0%,0%);stroke-opacity:1;stroke-miterlimit:4;" d="M 406.901042 302.802083 L 408.401042 302.598958 " transform="matrix(0.75,0,0,0.75,0,0)"/>
<path style="fill:none;stroke-width:1;stroke-linecap:butt;stroke-linejoin:miter;stroke:rgb(0%,0%,0%);stroke-opacity:1;stroke-miterlimit:4;" d="M 407.098958 308.697917 L 410.098958 308.197917 " transform="matrix(0.75,0,0,0.75,0,0)"/>
<path style="fill:none;stroke-width:1;stroke-linecap:butt;stroke-linejoin:miter;stroke:rgb(0%,0%,100%);stroke-opacity:1;stroke-miterlimit:4;" d="M 407.401042 314.598958 L 411.802083 313.901042 " transform="matrix(0.75,0,0,0.75,0,0)"/>
<path style="fill:none;stroke-width:1;stroke-linecap:butt;stroke-linejoin:miter;stroke:rgb(0%,0%,100%);stroke-opacity:1;stroke-miterlimit:4;" d="M 407.598958 320.5 L 413.401042 319.5 " transform="matrix(0.75,0,0,0.75,0,0)"/>
<path style="fill:none;stroke-width:1;stroke-linecap:butt;stroke-linejoin:miter;stroke:rgb(0%,0%,100%);stroke-opacity:1;stroke-miterlimit:4;" d="M 407.802083 326.401042 L 415.098958 325.197917 " transform="matrix(0.75,0,0,0.75,0,0)"/>
<path style="fill:none;stroke-width:2;stroke-linecap:butt;stroke-linejoin:miter;stroke:rgb(0%,0%,0%);stroke-opacity:1;stroke-miterlimit:4;" d="M 372 283.901042 L 365.901042 247.302083 " transform="matrix(0.75,0,0,0.75,0,0)"/>
<path style="fill:none;stroke-width:1;stroke-linecap:butt;stroke-linejoin:miter;stroke:rgb(0%,0%,0%);stroke-opacity:1;stroke-miterlimit:4;" d="M 360.697917 244.5 L 360.197917 245.901042 " transform="matrix(0.75,0,0,0.75,0,0)"/>
<path style="fill:none;stroke-width:1;stroke-linecap:butt;stroke-linejoin:miter;stroke:rgb(0%,0%,0%);stroke-opacity:1;stroke-miterlimit:4;" d="M 355.5 241.802083 L 354.401042 244.598958 " transform="matrix(0.75,0,0,0.75,0,0)"/>
<path style="fill:none;stroke-width:1;stroke-linecap:butt;stroke-linejoin:miter;stroke:rgb(100%,0%,0%);stroke-opacity:1;stroke-miterlimit:4;" d="M 350.197917 239 L 348.697917 243.197917 " transform="matrix(0.75,0,0,0.75,0,0)"/>
<path style="fill:none;stroke-width:1;stroke-linecap:butt;stroke-linejoin:miter;stroke:rgb(100%,0%,0%);stroke-opacity:1;stroke-miterlimit:4;" d="M 345 236.302083 L 342.901042 241.802083 " transform="matrix(0.75,0,0,0.75,0,0)"/>
<path style="fill:none;stroke-width:1;stroke-linecap:butt;stroke-linejoin:miter;stroke:rgb(100%,0%,0%);stroke-opacity:1;stroke-miterlimit:4;" d="M 339.802083 233.5 L 337.197917 240.401042 " transform="matrix(0.75,0,0,0.75,0,0)"/>
<path style="fill:none;stroke-width:2;stroke-linecap:butt;stroke-linejoin:miter;stroke:rgb(0%,0%,0%);stroke-opacity:1;stroke-miterlimit:4;" d="M 267.901042 244.802083 L 261.802083 208.197917 " transform="matrix(0.75,0,0,0.75,0,0)"/>
<path style="fill:none;stroke-width:2;stroke-linecap:butt;stroke-linejoin:miter;stroke:rgb(0%,0%,0%);stroke-opacity:1;stroke-miterlimit:4;" d="M 365.901042 247.302083 L 394.598958 223.697917 " transform="matrix(0.75,0,0,0.75,0,0)"/>
<path style="fill:none;stroke-width:2;stroke-linecap:butt;stroke-linejoin:miter;stroke:rgb(0%,0%,0%);stroke-opacity:1;stroke-miterlimit:4;" d="M 77.802083 276.302083 L 71.697917 239.697917 " transform="matrix(0.75,0,0,0.75,0,0)"/>
<path style="fill:none;stroke-width:2;stroke-linecap:butt;stroke-linejoin:miter;stroke:rgb(0%,0%,0%);stroke-opacity:1;stroke-miterlimit:4;" d="M 308.598958 294.401042 L 280 317.901042 " transform="matrix(0.75,0,0,0.75,0,0)"/>
<path style="fill-rule:evenodd;fill:rgb(0%,0%,0%);fill-opacity:1;stroke-width:1;stroke-linecap:butt;stroke-linejoin:miter;stroke:rgb(0%,0%,0%);stroke-opacity:1;stroke-miterlimit:4;" d="M 239.197917 268.302083 L 219.5 289.302083 L 214.802083 283.598958 Z M 239.197917 268.302083 " transform="matrix(0.75,0,0,0.75,0,0)"/>
<path style="fill:none;stroke-width:1;stroke-linecap:butt;stroke-linejoin:miter;stroke:rgb(0%,0%,0%);stroke-opacity:1;stroke-miterlimit:4;" d="M 272.697917 241.697917 L 271.802083 240.5 " transform="matrix(0.75,0,0,0.75,0,0)"/>
<path style="fill:none;stroke-width:1;stroke-linecap:butt;stroke-linejoin:miter;stroke:rgb(0%,0%,0%);stroke-opacity:1;stroke-miterlimit:4;" d="M 277.598958 238.598958 L 275.697917 236.302083 " transform="matrix(0.75,0,0,0.75,0,0)"/>
<path style="fill:none;stroke-width:1;stroke-linecap:butt;stroke-linejoin:miter;stroke:rgb(0%,0%,0%);stroke-opacity:1;stroke-miterlimit:4;" d="M 282.5 235.598958 L 279.697917 232.098958 " transform="matrix(0.75,0,0,0.75,0,0)"/>
<path style="fill:none;stroke-width:1;stroke-linecap:butt;stroke-linejoin:miter;stroke:rgb(0%,0%,0%);stroke-opacity:1;stroke-miterlimit:4;" d="M 287.401042 232.5 L 283.598958 227.901042 " transform="matrix(0.75,0,0,0.75,0,0)"/>
<path style="fill:none;stroke-width:1;stroke-linecap:butt;stroke-linejoin:miter;stroke:rgb(0%,0%,0%);stroke-opacity:1;stroke-miterlimit:4;" d="M 292.302083 229.5 L 287.598958 223.697917 " transform="matrix(0.75,0,0,0.75,0,0)"/>
<path style=" stroke:none;fill-rule:nonzero;fill:rgb(0%,0%,100%);fill-opacity:1;" d="M 155.699219 114.976562 L 156.75 114.976562 L 156.75 118.351562 L 160.800781 118.351562 L 160.800781 114.976562 L 161.851562 114.976562 L 161.851562 122.851562 L 160.800781 122.851562 L 160.800781 119.25 L 156.75 119.25 L 156.75 122.851562 L 155.699219 122.851562 L 155.699219 114.976562 "/>
<path style=" stroke:none;fill-rule:nonzero;fill:rgb(0%,0%,100%);fill-opacity:1;" d="M 164.023438 114.976562 L 166.574219 119.175781 C 166.773438 119.425781 167 119.800781 167.25 120.300781 C 167.550781 120.800781 167.699219 121.074219 167.699219 121.125 L 167.699219 114.976562 L 168.75 114.976562 L 168.75 122.851562 L 167.699219 122.851562 L 164.925781 118.273438 C 164.675781 117.925781 164.449219 117.550781 164.25 117.148438 C 164 116.75 163.851562 116.476562 163.800781 116.324219 L 163.800781 122.851562 L 162.75 122.851562 L 162.75 114.976562 L 164.023438 114.976562 "/>
<path style=" stroke:none;fill-rule:nonzero;fill:rgb(100%,0%,0%);fill-opacity:1;" d="M 214.199219 138.523438 C 214.199219 137.226562 214.523438 136.226562 215.175781 135.523438 C 215.773438 134.824219 216.648438 134.476562 217.800781 134.476562 C 219 134.476562 219.898438 134.824219 220.5 135.523438 C 221.148438 136.226562 221.476562 137.226562 221.476562 138.523438 C 221.476562 139.773438 221.148438 140.773438 220.5 141.523438 C 219.851562 142.226562 218.949219 142.574219 217.800781 142.574219 C 216.648438 142.574219 215.773438 142.226562 215.175781 141.523438 C 214.523438 140.773438 214.199219 139.773438 214.199219 138.523438 M 217.800781 141.675781 C 218.601562 141.675781 219.226562 141.425781 219.675781 140.925781 C 220.125 140.375 220.351562 139.574219 220.351562 138.523438 C 220.351562 137.476562 220.125 136.699219 219.675781 136.199219 C 219.226562 135.648438 218.601562 135.375 217.800781 135.375 C 217 135.375 216.398438 135.625 216 136.125 C 215.550781 136.675781 215.324219 137.476562 215.324219 138.523438 C 215.324219 139.574219 215.550781 140.375 216 140.925781 C 216.398438 141.425781 217 141.675781 217.800781 141.675781 "/>
<path style=" stroke:none;fill-rule:nonzero;fill:rgb(100%,0%,0%);fill-opacity:1;" d="M 222 134.550781 L 223.050781 134.550781 L 223.050781 137.925781 L 227.101562 137.925781 L 227.101562 134.550781 L 228.148438 134.550781 L 228.148438 142.425781 L 227.101562 142.425781 L 227.101562 138.824219 L 223.050781 138.824219 L 223.050781 142.425781 L 222 142.425781 L 222 134.550781 "/>
<path style=" stroke:none;fill-rule:nonzero;fill:rgb(100%,0%,0%);fill-opacity:1;" d="M 119.175781 154.273438 C 119.175781 152.976562 119.5 151.976562 120.148438 151.273438 C 120.75 150.574219 121.625 150.226562 122.773438 150.226562 C 123.976562 150.226562 124.875 150.574219 125.476562 151.273438 C 126.125 151.976562 126.449219 152.976562 126.449219 154.273438 C 126.449219 155.523438 126.125 156.523438 125.476562 157.273438 C 124.824219 157.976562 123.925781 158.324219 122.773438 158.324219 C 121.625 158.324219 120.75 157.976562 120.148438 157.273438 C 119.5 156.523438 119.175781 155.523438 119.175781 154.273438 M 122.773438 157.425781 C 123.574219 157.425781 124.199219 157.175781 124.648438 156.675781 C 125.101562 156.125 125.324219 155.324219 125.324219 154.273438 C 125.324219 153.226562 125.101562 152.449219 124.648438 151.949219 C 124.199219 151.398438 123.574219 151.125 122.773438 151.125 C 121.976562 151.125 121.375 151.398438 120.976562 151.949219 C 120.523438 152.449219 120.300781 153.226562 120.300781 154.273438 C 120.300781 155.324219 120.523438 156.125 120.976562 156.675781 C 121.375 157.175781 121.976562 157.425781 122.773438 157.425781 "/>
<path style=" stroke:none;fill-rule:nonzero;fill:rgb(100%,0%,0%);fill-opacity:1;" d="M 17.023438 166.050781 L 18.148438 166.050781 L 18.148438 169.425781 L 22.125 169.425781 L 22.125 166.050781 L 23.175781 166.050781 L 23.175781 173.925781 L 22.125 173.925781 L 22.125 170.324219 L 18.148438 170.324219 L 18.148438 173.925781 L 17.023438 173.925781 L 17.023438 166.050781 "/>
<path style=" stroke:none;fill-rule:nonzero;fill:rgb(100%,0%,0%);fill-opacity:1;" d="M 24.148438 170.023438 C 24.148438 168.726562 24.449219 167.726562 25.050781 167.023438 C 25.699219 166.324219 26.601562 165.976562 27.75 165.976562 C 28.949219 165.976562 29.851562 166.324219 30.449219 167.023438 C 31.050781 167.726562 31.351562 168.726562 31.351562 170.023438 C 31.351562 171.273438 31.050781 172.273438 30.449219 173.023438 C 29.800781 173.726562 28.898438 174.074219 27.75 174.074219 C 26.601562 174.074219 25.699219 173.726562 25.050781 173.023438 C 24.449219 172.273438 24.148438 171.273438 24.148438 170.023438 M 27.75 173.175781 C 28.550781 173.175781 29.175781 172.925781 29.625 172.425781 C 30.074219 171.875 30.300781 171.074219 30.300781 170.023438 C 30.300781 168.976562 30.074219 168.199219 29.625 167.699219 C 29.175781 167.148438 28.550781 166.875 27.75 166.875 C 26.949219 166.875 26.324219 167.148438 25.875 167.699219 C 25.476562 168.199219 25.273438 168.976562 25.273438 170.023438 C 25.273438 171.074219 25.476562 171.875 25.875 172.425781 C 26.324219 172.925781 26.949219 173.175781 27.75 173.175781 "/>
<path style=" stroke:none;fill-rule:nonzero;fill:rgb(100%,0%,0%);fill-opacity:1;" d="M 67.125 134.699219 C 67.125 133.449219 67.425781 132.476562 68.023438 131.773438 C 68.675781 131.074219 69.574219 130.726562 70.726562 130.726562 C 71.875 130.726562 72.773438 131.074219 73.425781 131.773438 C 74.023438 132.476562 74.324219 133.449219 74.324219 134.699219 C 74.324219 135.949219 74.023438 136.949219 73.425781 137.699219 C 72.773438 138.398438 71.875 138.75 70.726562 138.75 C 69.574219 138.75 68.675781 138.398438 68.023438 137.699219 C 67.425781 137 67.125 136 67.125 134.699219 M 70.726562 137.851562 C 71.523438 137.851562 72.148438 137.601562 72.601562 137.101562 C 73.050781 136.550781 73.273438 135.75 73.273438 134.699219 C 73.273438 133.648438 73.050781 132.875 72.601562 132.375 C 72.148438 131.824219 71.523438 131.550781 70.726562 131.550781 C 69.925781 131.550781 69.300781 131.824219 68.851562 132.375 C 68.449219 132.875 68.25 133.648438 68.25 134.699219 C 68.25 135.75 68.449219 136.550781 68.851562 137.101562 C 69.300781 137.601562 69.925781 137.851562 70.726562 137.851562 "/>
<path style=" stroke:none;fill-rule:nonzero;fill:rgb(100%,0%,0%);fill-opacity:1;" d="M 74.925781 130.800781 L 75.976562 130.800781 L 75.976562 134.101562 L 80.023438 134.101562 L 80.023438 130.800781 L 81.074219 130.800781 L 81.074219 138.675781 L 80.023438 138.675781 L 80.023438 135 L 75.976562 135 L 75.976562 138.675781 L 74.925781 138.675781 L 74.925781 130.800781 "/>
<path style=" stroke:none;fill-rule:nonzero;fill:rgb(100%,0%,0%);fill-opacity:1;" d="M 102.226562 199.351562 C 102.226562 198.101562 102.550781 197.125 103.199219 196.425781 C 103.800781 195.675781 104.675781 195.300781 105.824219 195.300781 C 107.023438 195.300781 107.925781 195.675781 108.523438 196.425781 C 109.175781 197.125 109.5 198.101562 109.5 199.351562 C 109.5 200.601562 109.175781 201.601562 108.523438 202.351562 C 107.875 203.050781 106.976562 203.398438 105.824219 203.398438 C 104.675781 203.398438 103.800781 203.050781 103.199219 202.351562 C 102.550781 201.601562 102.226562 200.601562 102.226562 199.351562 M 105.824219 202.5 C 106.625 202.5 107.25 202.25 107.699219 201.75 C 108.148438 201.199219 108.375 200.398438 108.375 199.351562 C 108.375 198.300781 108.148438 197.523438 107.699219 197.023438 C 107.25 196.476562 106.625 196.199219 105.824219 196.199219 C 105.023438 196.199219 104.425781 196.476562 104.023438 197.023438 C 103.574219 197.523438 103.351562 198.300781 103.351562 199.351562 C 103.351562 200.398438 103.574219 201.199219 104.023438 201.75 C 104.425781 202.25 105.023438 202.5 105.824219 202.5 "/>
<path style=" stroke:none;fill-rule:nonzero;fill:rgb(100%,0%,0%);fill-opacity:1;" d="M 56.699219 258.148438 L 57.75 258.148438 L 57.75 261.523438 L 61.800781 261.523438 L 61.800781 258.148438 L 62.851562 258.148438 L 62.851562 266.023438 L 61.800781 266.023438 L 61.800781 262.425781 L 57.75 262.425781 L 57.75 266.023438 L 56.699219 266.023438 L 56.699219 258.148438 "/>
<path style=" stroke:none;fill-rule:nonzero;fill:rgb(100%,0%,0%);fill-opacity:1;" d="M 63.824219 262.050781 C 63.824219 260.800781 64.125 259.824219 64.726562 259.125 C 65.375 258.425781 66.273438 258.074219 67.425781 258.074219 C 68.574219 258.074219 69.476562 258.425781 70.125 259.125 C 70.726562 259.824219 71.023438 260.800781 71.023438 262.050781 C 71.023438 263.351562 70.726562 264.351562 70.125 265.050781 C 69.476562 265.800781 68.574219 266.175781 67.425781 266.175781 C 66.273438 266.175781 65.375 265.800781 64.726562 265.050781 C 64.125 264.351562 63.824219 263.351562 63.824219 262.050781 M 67.425781 265.273438 C 68.226562 265.273438 68.851562 265 69.300781 264.449219 C 69.75 263.898438 69.976562 263.101562 69.976562 262.050781 C 69.976562 261.050781 69.75 260.273438 69.300781 259.726562 C 68.851562 259.226562 68.226562 258.976562 67.425781 258.976562 C 66.625 258.976562 66 259.226562 65.550781 259.726562 C 65.148438 260.273438 64.949219 261.050781 64.949219 262.050781 C 64.949219 263.148438 65.148438 263.949219 65.550781 264.449219 C 66 265 66.625 265.273438 67.425781 265.273438 "/>
<path style=" stroke:none;fill-rule:nonzero;fill:rgb(0%,0%,100%);fill-opacity:1;" d="M 22.800781 220.875 L 23.925781 220.875 L 23.925781 224.25 L 27.898438 224.25 L 27.898438 220.875 L 29.023438 220.875 L 29.023438 228.75 L 27.898438 228.75 L 27.898438 225.148438 L 23.925781 225.148438 L 23.925781 228.75 L 22.800781 228.75 L 22.800781 220.875 "/>
<path style=" stroke:none;fill-rule:nonzero;fill:rgb(0%,0%,100%);fill-opacity:1;" d="M 29.925781 228.523438 C 30.074219 228.175781 30.300781 227.925781 30.601562 227.773438 C 30.898438 227.574219 31.25 227.476562 31.648438 227.476562 C 32.199219 227.476562 32.625 227.625 32.925781 227.925781 C 33.226562 228.175781 33.375 228.550781 33.375 229.050781 C 33.375 229.601562 33.175781 230.101562 32.773438 230.550781 C 32.375 231.050781 31.800781 231.574219 31.050781 232.125 L 33.449219 232.125 L 33.449219 232.726562 L 29.925781 232.726562 L 29.925781 232.199219 C 30.574219 231.75 31.101562 231.351562 31.5 231 C 31.851562 230.648438 32.125 230.324219 32.324219 230.023438 C 32.523438 229.726562 32.625 229.425781 32.625 229.125 C 32.625 228.773438 32.550781 228.5 32.398438 228.300781 C 32.199219 228.148438 31.949219 228.074219 31.648438 228.074219 C 31.398438 228.074219 31.175781 228.125 30.976562 228.226562 C 30.773438 228.324219 30.625 228.5 30.523438 228.75 L 29.925781 228.523438 "/>
<path style=" stroke:none;fill-rule:nonzero;fill:rgb(0%,0%,100%);fill-opacity:1;" d="M 35.101562 220.875 L 37.726562 225.074219 C 37.875 225.375 38.101562 225.75 38.398438 226.199219 C 38.648438 226.699219 38.773438 226.976562 38.773438 227.023438 L 38.773438 220.875 L 39.824219 220.875 L 39.824219 228.75 L 38.773438 228.75 L 36 224.25 C 35.800781 223.851562 35.574219 223.449219 35.324219 223.050781 C 35.125 222.648438 34.976562 222.398438 34.875 222.300781 L 34.875 228.75 L 33.898438 228.75 L 33.898438 220.875 L 35.101562 220.875 "/>
<path style=" stroke:none;fill-rule:nonzero;fill:rgb(100%,0%,0%);fill-opacity:1;" d="M 149.773438 191.476562 C 149.773438 190.226562 150.074219 189.25 150.675781 188.550781 C 151.324219 187.800781 152.226562 187.425781 153.375 187.425781 C 154.523438 187.425781 155.425781 187.800781 156.074219 188.550781 C 156.675781 189.25 156.976562 190.226562 156.976562 191.476562 C 156.976562 192.726562 156.675781 193.726562 156.074219 194.476562 C 155.425781 195.175781 154.523438 195.523438 153.375 195.523438 C 152.226562 195.523438 151.324219 195.175781 150.675781 194.476562 C 150.074219 193.726562 149.773438 192.726562 149.773438 191.476562 M 153.375 194.625 C 154.175781 194.625 154.800781 194.375 155.25 193.875 C 155.648438 193.324219 155.851562 192.523438 155.851562 191.476562 C 155.851562 190.425781 155.648438 189.648438 155.25 189.148438 C 154.800781 188.601562 154.175781 188.324219 153.375 188.324219 C 152.574219 188.324219 151.949219 188.601562 151.5 189.148438 C 151.101562 189.648438 150.898438 190.425781 150.898438 191.476562 C 150.898438 192.523438 151.101562 193.324219 151.5 193.875 C 151.949219 194.375 152.574219 194.625 153.375 194.625 "/>
<path style=" stroke:none;fill-rule:nonzero;fill:rgb(0%,0%,100%);fill-opacity:1;" d="M 212.773438 261.898438 L 215.398438 266.101562 C 215.550781 266.351562 215.773438 266.726562 216.074219 267.226562 C 216.324219 267.726562 216.449219 268 216.449219 268.050781 L 216.449219 261.898438 L 217.5 261.898438 L 217.5 269.773438 L 216.449219 269.773438 L 213.675781 265.273438 C 213.476562 264.875 213.25 264.476562 213 264.074219 C 212.800781 263.675781 212.648438 263.425781 212.550781 263.324219 L 212.550781 269.773438 L 211.574219 269.773438 L 211.574219 261.898438 L 212.773438 261.898438 "/>
<path style=" stroke:none;fill-rule:nonzero;fill:rgb(0%,0%,100%);fill-opacity:1;" d="M 218.476562 261.898438 L 219.523438 261.898438 L 219.523438 265.273438 L 223.5 265.273438 L 223.5 261.898438 L 224.625 261.898438 L 224.625 269.773438 L 223.5 269.773438 L 223.5 266.175781 L 219.523438 266.175781 L 219.523438 269.773438 L 218.476562 269.773438 L 218.476562 261.898438 "/>
<path style=" stroke:none;fill-rule:nonzero;fill:rgb(0%,0%,100%);fill-opacity:1;" d="M 225.601562 269.550781 C 225.699219 269.199219 225.898438 268.925781 226.199219 268.726562 C 226.5 268.574219 226.875 268.5 227.324219 268.5 C 227.824219 268.5 228.226562 268.625 228.523438 268.875 C 228.824219 269.175781 228.976562 269.574219 228.976562 270.074219 C 228.976562 270.574219 228.773438 271.074219 228.375 271.574219 C 228.023438 272.074219 227.449219 272.601562 226.648438 273.148438 L 229.050781 273.148438 L 229.050781 273.75 L 225.523438 273.75 L 225.523438 273.226562 C 226.175781 272.773438 226.699219 272.375 227.101562 272.023438 C 227.5 271.675781 227.773438 271.351562 227.925781 271.050781 C 228.125 270.75 228.226562 270.449219 228.226562 270.148438 C 228.226562 269.800781 228.148438 269.523438 228 269.324219 C 227.800781 269.175781 227.574219 269.101562 227.324219 269.101562 C 227.023438 269.101562 226.773438 269.148438 226.574219 269.25 C 226.425781 269.351562 226.273438 269.523438 226.125 269.773438 L 225.601562 269.550781 "/>
<path style=" stroke:none;fill-rule:nonzero;fill:rgb(100%,0%,0%);fill-opacity:1;" d="M 223.273438 193.351562 C 223.273438 192.101562 223.601562 191.125 224.25 190.425781 C 224.851562 189.726562 225.75 189.375 226.949219 189.375 C 228.101562 189.375 228.976562 189.726562 229.574219 190.425781 C 230.226562 191.125 230.550781 192.101562 230.550781 193.351562 C 230.550781 194.648438 230.226562 195.648438 229.574219 196.351562 C 228.976562 197.101562 228.101562 197.476562 226.949219 197.476562 C 225.75 197.476562 224.851562 197.101562 224.25 196.351562 C 223.601562 195.648438 223.273438 194.648438 223.273438 193.351562 M 226.949219 196.574219 C 227.75 196.574219 228.351562 196.300781 228.75 195.75 C 229.199219 195.199219 229.425781 194.398438 229.425781 193.351562 C 229.425781 192.351562 229.199219 191.574219 228.75 191.023438 C 228.351562 190.523438 227.75 190.273438 226.949219 190.273438 C 226.148438 190.273438 225.523438 190.523438 225.074219 191.023438 C 224.625 191.523438 224.398438 192.300781 224.398438 193.351562 C 224.398438 194.398438 224.625 195.199219 225.074219 195.75 C 225.523438 196.300781 226.148438 196.574219 226.949219 196.574219 "/>
<path style=" stroke:none;fill-rule:nonzero;fill:rgb(100%,0%,0%);fill-opacity:1;" d="M 253.875 230.550781 C 253.875 229.300781 254.199219 228.324219 254.851562 227.625 C 255.449219 226.925781 256.324219 226.574219 257.476562 226.574219 C 258.675781 226.574219 259.574219 226.925781 260.175781 227.625 C 260.824219 228.324219 261.148438 229.300781 261.148438 230.550781 C 261.148438 231.851562 260.824219 232.851562 260.175781 233.550781 C 259.523438 234.300781 258.625 234.675781 257.476562 234.675781 C 256.324219 234.675781 255.449219 234.300781 254.851562 233.550781 C 254.199219 232.851562 253.875 231.851562 253.875 230.550781 M 257.476562 233.773438 C 258.273438 233.773438 258.898438 233.5 259.351562 232.949219 C 259.800781 232.398438 260.023438 231.601562 260.023438 230.550781 C 260.023438 229.550781 259.800781 228.773438 259.351562 228.226562 C 258.898438 227.726562 258.273438 227.476562 257.476562 227.476562 C 256.675781 227.476562 256.074219 227.726562 255.675781 228.226562 C 255.226562 228.773438 255 229.550781 255 230.550781 C 255 231.648438 255.226562 232.449219 255.675781 232.949219 C 256.074219 233.5 256.675781 233.773438 257.476562 233.773438 "/>
<path style=" stroke:none;fill-rule:nonzero;fill:rgb(100%,0%,0%);fill-opacity:1;" d="M 287.773438 140.398438 C 287.773438 139.148438 288.074219 138.175781 288.675781 137.476562 C 289.324219 136.773438 290.226562 136.425781 291.375 136.425781 C 292.523438 136.425781 293.425781 136.773438 294.074219 137.476562 C 294.675781 138.175781 294.976562 139.148438 294.976562 140.398438 C 294.976562 141.699219 294.675781 142.699219 294.074219 143.398438 C 293.425781 144.101562 292.523438 144.449219 291.375 144.449219 C 290.226562 144.449219 289.324219 144.101562 288.675781 143.398438 C 288.074219 142.699219 287.773438 141.699219 287.773438 140.398438 M 291.375 143.625 C 292.175781 143.625 292.800781 143.351562 293.25 142.800781 C 293.648438 142.25 293.851562 141.449219 293.851562 140.398438 C 293.851562 139.351562 293.648438 138.574219 293.25 138.074219 C 292.800781 137.523438 292.175781 137.25 291.375 137.25 C 290.574219 137.25 289.949219 137.523438 289.5 138.074219 C 289.101562 138.574219 288.898438 139.351562 288.898438 140.398438 C 288.898438 141.449219 289.101562 142.25 289.5 142.800781 C 289.949219 143.351562 290.574219 143.625 291.375 143.625 "/>
<path style=" stroke:none;fill-rule:nonzero;fill:rgb(100%,0%,0%);fill-opacity:1;" d="M 295.574219 136.5 L 296.625 136.5 L 296.625 139.800781 L 300.675781 139.800781 L 300.675781 136.5 L 301.726562 136.5 L 301.726562 144.375 L 300.675781 144.375 L 300.675781 140.699219 L 296.625 140.699219 L 296.625 144.375 L 295.574219 144.375 L 295.574219 136.5 "/>
<path style=" stroke:none;fill-rule:nonzero;fill:rgb(0%,0%,100%);fill-opacity:1;" d="M 341.699219 156 L 344.25 160.199219 C 344.449219 160.449219 344.675781 160.824219 344.925781 161.324219 C 345.226562 161.824219 345.375 162.101562 345.375 162.148438 L 345.375 156 L 346.425781 156 L 346.425781 163.875 L 345.375 163.875 L 342.601562 159.300781 C 342.351562 158.949219 342.125 158.574219 341.925781 158.175781 C 341.675781 157.773438 341.523438 157.5 341.476562 157.351562 L 341.476562 163.875 L 340.425781 163.875 L 340.425781 156 L 341.699219 156 "/>
<path style=" stroke:none;fill-rule:nonzero;fill:rgb(0%,0%,100%);fill-opacity:1;" d="M 347.324219 156 L 348.449219 156 L 348.449219 159.375 L 352.425781 159.375 L 352.425781 156 L 353.476562 156 L 353.476562 163.875 L 352.425781 163.875 L 352.425781 160.199219 L 348.449219 160.199219 L 348.449219 163.875 L 347.324219 163.875 L 347.324219 156 "/>
<path style=" stroke:none;fill-rule:nonzero;fill:rgb(0%,0%,100%);fill-opacity:1;" d="M 354.449219 163.574219 C 354.601562 163.273438 354.824219 163.023438 355.125 162.824219 C 355.425781 162.625 355.773438 162.523438 356.175781 162.523438 C 356.726562 162.523438 357.148438 162.675781 357.449219 162.976562 C 357.75 163.273438 357.898438 163.675781 357.898438 164.175781 C 357.898438 164.675781 357.699219 165.175781 357.300781 165.675781 C 356.898438 166.125 356.324219 166.648438 355.574219 167.25 L 357.976562 167.25 L 357.976562 167.773438 L 354.449219 167.773438 L 354.449219 167.324219 C 355.101562 166.875 355.625 166.476562 356.023438 166.125 C 356.375 165.773438 356.648438 165.449219 356.851562 165.148438 C 357.050781 164.851562 357.148438 164.523438 357.148438 164.175781 C 357.148438 163.875 357.050781 163.625 356.851562 163.425781 C 356.699219 163.226562 356.476562 163.125 356.175781 163.125 C 355.925781 163.125 355.699219 163.175781 355.5 163.273438 C 355.300781 163.425781 355.148438 163.625 355.050781 163.875 L 354.449219 163.574219 "/>
<path style=" stroke:none;fill-rule:nonzero;fill:rgb(0%,0%,100%);fill-opacity:1;" d="M 307.800781 246.148438 L 310.425781 250.351562 C 310.574219 250.601562 310.800781 250.976562 311.101562 251.476562 C 311.351562 251.976562 311.476562 252.25 311.476562 252.300781 L 311.476562 246.148438 L 312.523438 246.148438 L 312.523438 254.023438 L 311.476562 254.023438 L 308.699219 249.449219 C 308.5 249.101562 308.273438 248.726562 308.023438 248.324219 C 307.824219 247.925781 307.675781 247.675781 307.574219 247.574219 L 307.574219 254.023438 L 306.601562 254.023438 L 306.601562 246.148438 L 307.800781 246.148438 "/>
<path style=" stroke:none;fill-rule:nonzero;fill:rgb(0%,0%,100%);fill-opacity:1;" d="M 313.5 246.148438 L 314.550781 246.148438 L 314.550781 249.523438 L 318.601562 249.523438 L 318.601562 246.148438 L 319.648438 246.148438 L 319.648438 254.023438 L 318.601562 254.023438 L 318.601562 250.425781 L 314.550781 250.425781 L 314.550781 254.023438 L 313.5 254.023438 L 313.5 246.148438 "/>
<path style=" stroke:none;fill-rule:nonzero;fill:rgb(0%,0%,100%);fill-opacity:1;" d="M 320.625 253.800781 C 320.726562 253.449219 320.925781 253.175781 321.226562 252.976562 C 321.523438 252.824219 321.898438 252.75 322.351562 252.75 C 322.851562 252.75 323.25 252.875 323.550781 253.125 C 323.851562 253.425781 324 253.824219 324 254.324219 C 324 254.824219 323.800781 255.324219 323.398438 255.824219 C 323.050781 256.324219 322.476562 256.851562 321.675781 257.398438 L 324.074219 257.398438 L 324.074219 258 L 320.550781 258 L 320.550781 257.476562 C 321.199219 257.023438 321.726562 256.625 322.125 256.273438 C 322.523438 255.925781 322.800781 255.601562 322.949219 255.300781 C 323.148438 255 323.25 254.699219 323.25 254.398438 C 323.25 254.050781 323.175781 253.773438 323.023438 253.574219 C 322.824219 253.425781 322.601562 253.351562 322.351562 253.351562 C 322.050781 253.351562 321.800781 253.398438 321.601562 253.5 C 321.449219 253.601562 321.300781 253.773438 321.148438 254.023438 L 320.625 253.800781 "/>
<path style=" stroke:none;fill-rule:nonzero;fill:rgb(100%,0%,0%);fill-opacity:1;" d="M 237.675781 171.824219 L 238.726562 171.824219 L 238.726562 175.125 L 242.773438 175.125 L 242.773438 171.824219 L 243.824219 171.824219 L 243.824219 179.699219 L 242.773438 179.699219 L 242.773438 176.023438 L 238.726562 176.023438 L 238.726562 179.699219 L 237.675781 179.699219 L 237.675781 171.824219 "/>
<path style=" stroke:none;fill-rule:nonzero;fill:rgb(100%,0%,0%);fill-opacity:1;" d="M 244.800781 175.726562 C 244.800781 174.476562 245.101562 173.476562 245.699219 172.726562 C 246.351562 172.023438 247.25 171.675781 248.398438 171.675781 C 249.550781 171.675781 250.449219 172.023438 251.101562 172.726562 C 251.699219 173.476562 252 174.476562 252 175.726562 C 252 176.976562 251.699219 177.976562 251.101562 178.726562 C 250.449219 179.425781 249.550781 179.773438 248.398438 179.773438 C 247.25 179.773438 246.351562 179.425781 245.699219 178.726562 C 245.101562 177.976562 244.800781 176.976562 244.800781 175.726562 M 248.398438 178.875 C 249.199219 178.875 249.824219 178.625 250.273438 178.125 C 250.675781 177.574219 250.875 176.773438 250.875 175.726562 C 250.875 174.675781 250.675781 173.898438 250.273438 173.398438 C 249.824219 172.851562 249.199219 172.574219 248.398438 172.574219 C 247.601562 172.574219 246.976562 172.851562 246.523438 173.398438 C 246.125 173.898438 245.925781 174.675781 245.925781 175.726562 C 245.925781 176.773438 246.125 177.574219 246.523438 178.125 C 246.976562 178.625 247.601562 178.875 248.398438 178.875 "/>
<path style=" stroke:none;fill-rule:nonzero;fill:rgb(0%,0%,0%);fill-opacity:1;" d="M 154.875 214.949219 L 155.925781 214.949219 L 155.925781 218.25 L 159.898438 218.25 L 159.898438 214.949219 L 161.023438 214.949219 L 161.023438 222.824219 L 159.898438 222.824219 L 159.898438 219.148438 L 155.925781 219.148438 L 155.925781 222.824219 L 154.875 222.824219 L 154.875 214.949219 "/>
<path style=" stroke:none;fill-rule:nonzero;fill:rgb(0%,0%,0%);fill-opacity:1;" d="M 219.300781 162 L 220.351562 162 L 220.351562 165.300781 L 224.398438 165.300781 L 224.398438 162 L 225.449219 162 L 225.449219 169.875 L 224.398438 169.875 L 224.398438 166.199219 L 220.351562 166.199219 L 220.351562 169.875 L 219.300781 169.875 L 219.300781 162 "/>
</g>
</svg>
