<?xml version="1.0" encoding="UTF-8"?>
<svg xmlns="http://www.w3.org/2000/svg" xmlns:xlink="http://www.w3.org/1999/xlink" width="375pt" height="375pt" viewBox="0 0 375 375" version="1.1">
<g id="surface226">
<rect x="0" y="0" width="375" height="375" style="fill:rgb(100%,100%,100%);fill-opacity:1;stroke:none;"/>
<path style="fill:none;stroke-width:2;stroke-linecap:butt;stroke-linejoin:miter;stroke:rgb(0%,0%,0%);stroke-opacity:1;stroke-miterlimit:4;" d="M 194.197917 113.802083 L 196.598958 130 " transform="matrix(0.75,0,0,0.75,0,0)"/>
<path style="fill:none;stroke-width:2;stroke-linecap:butt;stroke-linejoin:miter;stroke:rgb(100%,0%,0%);stroke-opacity:1;stroke-miterlimit:4;" d="M 196.598958 130 L 198.901042 146.197917 " transform="matrix(0.75,0,0,0.75,0,0)"/>
<path style="fill:none;stroke-width:2;stroke-linecap:butt;stroke-linejoin:miter;stroke:rgb(100%,0%,0%);stroke-opacity:1;stroke-miterlimit:4;" d="M 193.401042 158.302083 L 183.802083 165.901042 " transform="matrix(0.75,0,0,0.75,0,0)"/>
<path style="fill:none;stroke-width:2;stroke-linecap:butt;stroke-linejoin:miter;stroke:rgb(0%,0%,100%);stroke-opacity:1;stroke-miterlimit:4;" d="M 183.802083 165.901042 L 174.197917 173.5 " transform="matrix(0.75,0,0,0.75,0,0)"/>
<path style="fill:none;stroke-width:2;stroke-linecap:butt;stroke-linejoin:miter;stroke:rgb(0%,0%,100%);stroke-opacity:1;stroke-miterlimit:4;" d="M 169.598958 184.802083 L 172 201 " transform="matrix(0.75,0,0,0.75,0,0)"/>
<path style="fill:none;stroke-width:2;stroke-linecap:butt;stroke-linejoin:miter;stroke:rgb(0%,0%,0%);stroke-opacity:1;stroke-miterlimit:4;" d="M 172 201 L 174.302083 217.302083 " transform="matrix(0.75,0,0,0.75,0,0)"/>
<path style="fill:none;stroke-width:2;stroke-linecap:butt;stroke-linejoin:miter;stroke:rgb(0%,0%,100%);stroke-opacity:1;stroke-miterlimit:4;" d="M 178.197917 188.5 L 179.901042 199.901042 " transform="matrix(0.75,0,0,0.75,0,0)"/>
<path style="fill:none;stroke-width:2;stroke-linecap:butt;stroke-linejoin:miter;stroke:rgb(0%,0%,0%);stroke-opacity:1;stroke-miterlimit:4;" d="M 179.901042 199.901042 L 181.5 211.302083 " transform="matrix(0.75,0,0,0.75,0,0)"/>
<path style="fill:none;stroke-width:2;stroke-linecap:butt;stroke-linejoin:miter;stroke:rgb(0%,0%,0%);stroke-opacity:1;stroke-miterlimit:4;" d="M 174.302083 217.302083 L 211.302083 232 " transform="matrix(0.75,0,0,0.75,0,0)"/>
<path style="fill:none;stroke-width:2;stroke-linecap:butt;stroke-linejoin:miter;stroke:rgb(0%,0%,0%);stroke-opacity:1;stroke-miterlimit:4;" d="M 208.802083 228.901042 L 221.197917 219.197917 " transform="matrix(0.75,0,0,0.75,0,0)"/>
<path style="fill:none;stroke-width:2;stroke-linecap:butt;stroke-linejoin:miter;stroke:rgb(100%,0%,0%);stroke-opacity:1;stroke-miterlimit:4;" d="M 221.197917 219.197917 L 233.598958 209.401042 " transform="matrix(0.75,0,0,0.75,0,0)"/>
<path style="fill:none;stroke-width:2;stroke-linecap:butt;stroke-linejoin:miter;stroke:rgb(0%,0%,0%);stroke-opacity:1;stroke-miterlimit:4;" d="M 213.697917 235.197917 L 226.098958 225.401042 " transform="matrix(0.75,0,0,0.75,0,0)"/>
<path style="fill:none;stroke-width:2;stroke-linecap:butt;stroke-linejoin:miter;stroke:rgb(100%,0%,0%);stroke-opacity:1;stroke-miterlimit:4;" d="M 226.098958 225.401042 L 238.5 215.697917 " transform="matrix(0.75,0,0,0.75,0,0)"/>
<path style="fill:none;stroke-width:2;stroke-linecap:butt;stroke-linejoin:miter;stroke:rgb(0%,0%,0%);stroke-opacity:1;stroke-miterlimit:4;" d="M 211.302083 232 L 213.598958 248.302083 " transform="matrix(0.75,0,0,0.75,0,0)"/>
<path style="fill:none;stroke-width:2;stroke-linecap:butt;stroke-linejoin:miter;stroke:rgb(0%,0%,100%);stroke-opacity:1;stroke-miterlimit:4;" d="M 213.598958 248.302083 L 216 264.5 " transform="matrix(0.75,0,0,0.75,0,0)"/>
<path style="fill-rule:evenodd;fill:rgb(0%,0%,0%);fill-opacity:1;stroke-width:1;stroke-linecap:butt;stroke-linejoin:miter;stroke:rgb(0%,0%,0%);stroke-opacity:1;stroke-miterlimit:4;" d="M 253.901042 286.197917 L 238.197917 282.098958 L 239.598958 278.401042 Z M 253.901042 286.197917 " transform="matrix(0.75,0,0,0.75,0,0)"/>
<path style="fill-rule:evenodd;fill:rgb(0%,0%,100%);fill-opacity:1;stroke-width:1;stroke-linecap:butt;stroke-linejoin:miter;stroke:rgb(0%,0%,100%);stroke-opacity:1;stroke-miterlimit:4;" d="M 238.197917 282.098958 L 225.302083 270.5 L 222.401042 277.901042 Z M 238.197917 282.098958 " transform="matrix(0.75,0,0,0.75,0,0)"/>
<path style="fill-rule:evenodd;fill:rgb(0%,0%,100%);fill-opacity:1;stroke-width:1;stroke-linecap:butt;stroke-linejoin:miter;stroke:rgb(0%,0%,100%);stroke-opacity:1;stroke-miterlimit:4;" d="M 238.197917 282.098958 L 239.598958 278.401042 L 225.302083 270.5 Z M 238.197917 282.098958 " transform="matrix(0.75,0,0,0.75,0,0)"/>
<path style="fill:none;stroke-width:2;stroke-linecap:butt;stroke-linejoin:miter;stroke:rgb(0%,0%,0%);stroke-opacity:1;stroke-miterlimit:4;" d="M 253.901042 286.197917 L 269.598958 322.802083 " transform="matrix(0.75,0,0,0.75,0,0)"/>
<path style="fill:none;stroke-width:2;stroke-linecap:butt;stroke-linejoin:miter;stroke:rgb(0%,0%,0%);stroke-opacity:1;stroke-miterlimit:4;" d="M 273.302083 324.302083 L 267.302083 339.302083 " transform="matrix(0.75,0,0,0.75,0,0)"/>
<path style="fill:none;stroke-width:2;stroke-linecap:butt;stroke-linejoin:miter;stroke:rgb(100%,0%,0%);stroke-opacity:1;stroke-miterlimit:4;" d="M 267.302083 339.302083 L 261.302083 354.197917 " transform="matrix(0.75,0,0,0.75,0,0)"/>
<path style="fill:none;stroke-width:2;stroke-linecap:butt;stroke-linejoin:miter;stroke:rgb(0%,0%,0%);stroke-opacity:1;stroke-miterlimit:4;" d="M 265.901042 321.302083 L 259.901042 336.302083 " transform="matrix(0.75,0,0,0.75,0,0)"/>
<path style="fill:none;stroke-width:2;stroke-linecap:butt;stroke-linejoin:miter;stroke:rgb(100%,0%,0%);stroke-opacity:1;stroke-miterlimit:4;" d="M 259.901042 336.302083 L 253.901042 351.302083 " transform="matrix(0.75,0,0,0.75,0,0)"/>
<path style="fill:none;stroke-width:2;stroke-linecap:butt;stroke-linejoin:miter;stroke:rgb(0%,0%,0%);stroke-opacity:1;stroke-miterlimit:4;" d="M 269.598958 322.802083 L 285.098958 316.197917 " transform="matrix(0.75,0,0,0.75,0,0)"/>
<path style="fill:none;stroke-width:2;stroke-linecap:butt;stroke-linejoin:miter;stroke:rgb(0%,0%,100%);stroke-opacity:1;stroke-miterlimit:4;" d="M 285.098958 316.197917 L 300.598958 309.5 " transform="matrix(0.75,0,0,0.75,0,0)"/>
<path style="fill:none;stroke-width:2;stroke-linecap:butt;stroke-linejoin:miter;stroke:rgb(0%,0%,100%);stroke-opacity:1;stroke-miterlimit:4;" d="M 311.802083 307.802083 L 328.802083 309.802083 " transform="matrix(0.75,0,0,0.75,0,0)"/>
<path style="fill:none;stroke-width:2;stroke-linecap:butt;stroke-linejoin:miter;stroke:rgb(0%,0%,0%);stroke-opacity:1;stroke-miterlimit:4;" d="M 328.802083 309.802083 L 345.697917 311.802083 " transform="matrix(0.75,0,0,0.75,0,0)"/>
<path style="fill:none;stroke-width:2;stroke-linecap:butt;stroke-linejoin:miter;stroke:rgb(0%,0%,0%);stroke-opacity:1;stroke-miterlimit:4;" d="M 345.697917 311.802083 L 361.401042 348.401042 " transform="matrix(0.75,0,0,0.75,0,0)"/>
<path style="fill:none;stroke-width:2;stroke-linecap:butt;stroke-linejoin:miter;stroke:rgb(0%,0%,0%);stroke-opacity:1;stroke-miterlimit:4;" d="M 361.901042 344.5 L 378.401042 346.401042 " transform="matrix(0.75,0,0,0.75,0,0)"/>
<path style="fill:none;stroke-width:2;stroke-linecap:butt;stroke-linejoin:miter;stroke:rgb(100%,0%,0%);stroke-opacity:1;stroke-miterlimit:4;" d="M 378.401042 346.401042 L 394.901042 348.401042 " transform="matrix(0.75,0,0,0.75,0,0)"/>
<path style="fill:none;stroke-width:2;stroke-linecap:butt;stroke-linejoin:miter;stroke:rgb(0%,0%,0%);stroke-opacity:1;stroke-miterlimit:4;" d="M 360.901042 352.401042 L 377.5 354.302083 " transform="matrix(0.75,0,0,0.75,0,0)"/>
<path style="fill:none;stroke-width:2;stroke-linecap:butt;stroke-linejoin:miter;stroke:rgb(100%,0%,0%);stroke-opacity:1;stroke-miterlimit:4;" d="M 377.5 354.302083 L 394 356.302083 " transform="matrix(0.75,0,0,0.75,0,0)"/>
<path style="fill:none;stroke-width:2;stroke-linecap:butt;stroke-linejoin:miter;stroke:rgb(0%,0%,0%);stroke-opacity:1;stroke-miterlimit:4;" d="M 361.401042 348.401042 L 352.098958 360.802083 " transform="matrix(0.75,0,0,0.75,0,0)"/>
<path style="fill:none;stroke-width:2;stroke-linecap:butt;stroke-linejoin:miter;stroke:rgb(100%,0%,0%);stroke-opacity:1;stroke-miterlimit:4;" d="M 352.098958 360.802083 L 342.802083 373.302083 " transform="matrix(0.75,0,0,0.75,0,0)"/>
<path style="fill:none;stroke-width:2;stroke-linecap:butt;stroke-linejoin:miter;stroke:rgb(0%,0%,0%);stroke-opacity:1;stroke-miterlimit:4;" d="M 345.697917 311.802083 L 369.598958 279.901042 " transform="matrix(0.75,0,0,0.75,0,0)"/>
<path style="fill:none;stroke-width:2;stroke-linecap:butt;stroke-linejoin:miter;stroke:rgb(0%,0%,0%);stroke-opacity:1;stroke-miterlimit:4;" d="M 342.901042 302.302083 L 359.598958 280 " transform="matrix(0.75,0,0,0.75,0,0)"/>
<path style="fill:none;stroke-width:2;stroke-linecap:butt;stroke-linejoin:miter;stroke:rgb(0%,0%,0%);stroke-opacity:1;stroke-miterlimit:4;" d="M 369.598958 279.901042 L 409.098958 284.598958 " transform="matrix(0.75,0,0,0.75,0,0)"/>
<path style="fill:none;stroke-width:2;stroke-linecap:butt;stroke-linejoin:miter;stroke:rgb(0%,0%,0%);stroke-opacity:1;stroke-miterlimit:4;" d="M 409.098958 284.598958 L 432.901042 252.802083 " transform="matrix(0.75,0,0,0.75,0,0)"/>
<path style="fill:none;stroke-width:2;stroke-linecap:butt;stroke-linejoin:miter;stroke:rgb(0%,0%,0%);stroke-opacity:1;stroke-miterlimit:4;" d="M 406.302083 275.098958 L 423 252.802083 " transform="matrix(0.75,0,0,0.75,0,0)"/>
<path style="fill:none;stroke-width:2;stroke-linecap:butt;stroke-linejoin:miter;stroke:rgb(0%,0%,0%);stroke-opacity:1;stroke-miterlimit:4;" d="M 432.901042 252.802083 L 417.302083 216.197917 " transform="matrix(0.75,0,0,0.75,0,0)"/>
<path style="fill:none;stroke-width:2;stroke-linecap:butt;stroke-linejoin:miter;stroke:rgb(0%,0%,0%);stroke-opacity:1;stroke-miterlimit:4;" d="M 417.302083 216.197917 L 400.302083 212.302083 " transform="matrix(0.75,0,0,0.75,0,0)"/>
<path style="fill:none;stroke-width:2;stroke-linecap:butt;stroke-linejoin:miter;stroke:rgb(80%,80%,0%);stroke-opacity:1;stroke-miterlimit:4;" d="M 400.302083 212.302083 L 383.401042 208.5 " transform="matrix(0.75,0,0,0.75,0,0)"/>
<path style="fill:none;stroke-width:2;stroke-linecap:butt;stroke-linejoin:miter;stroke:rgb(80%,80%,0%);stroke-opacity:1;stroke-miterlimit:4;" d="M 377.802083 200.401042 L 376.302083 184.098958 " transform="matrix(0.75,0,0,0.75,0,0)"/>
<path style="fill:none;stroke-width:2;stroke-linecap:butt;stroke-linejoin:miter;stroke:rgb(0%,0%,0%);stroke-opacity:1;stroke-miterlimit:4;" d="M 376.302083 184.098958 L 374.802083 167.697917 " transform="matrix(0.75,0,0,0.75,0,0)"/>
<path style="fill:none;stroke-width:2;stroke-linecap:butt;stroke-linejoin:miter;stroke:rgb(0%,0%,0%);stroke-opacity:1;stroke-miterlimit:4;" d="M 374.802083 167.697917 L 390.302083 161.098958 " transform="matrix(0.75,0,0,0.75,0,0)"/>
<path style="fill:none;stroke-width:2;stroke-linecap:butt;stroke-linejoin:miter;stroke:rgb(0%,0%,100%);stroke-opacity:1;stroke-miterlimit:4;" d="M 390.302083 161.098958 L 405.802083 154.401042 " transform="matrix(0.75,0,0,0.75,0,0)"/>
<path style="fill:none;stroke-width:2;stroke-linecap:butt;stroke-linejoin:miter;stroke:rgb(0%,0%,0%);stroke-opacity:1;stroke-miterlimit:4;" d="M 382.598958 173.098958 L 393.5 168.401042 " transform="matrix(0.75,0,0,0.75,0,0)"/>
<path style="fill:none;stroke-width:2;stroke-linecap:butt;stroke-linejoin:miter;stroke:rgb(0%,0%,100%);stroke-opacity:1;stroke-miterlimit:4;" d="M 393.5 168.401042 L 404.302083 163.697917 " transform="matrix(0.75,0,0,0.75,0,0)"/>
<path style="fill:none;stroke-width:2;stroke-linecap:butt;stroke-linejoin:miter;stroke:rgb(0%,0%,100%);stroke-opacity:1;stroke-miterlimit:4;" d="M 417 158.401042 L 427.302083 170.197917 " transform="matrix(0.75,0,0,0.75,0,0)"/>
<path style="fill:none;stroke-width:2;stroke-linecap:butt;stroke-linejoin:miter;stroke:rgb(0%,0%,0%);stroke-opacity:1;stroke-miterlimit:4;" d="M 427.302083 170.197917 L 437.598958 182 " transform="matrix(0.75,0,0,0.75,0,0)"/>
<path style="fill:none;stroke-width:2;stroke-linecap:butt;stroke-linejoin:miter;stroke:rgb(0%,0%,0%);stroke-opacity:1;stroke-miterlimit:4;" d="M 437.598958 182 L 477.302083 178.401042 " transform="matrix(0.75,0,0,0.75,0,0)"/>
<path style="fill:none;stroke-width:2;stroke-linecap:butt;stroke-linejoin:miter;stroke:rgb(0%,0%,0%);stroke-opacity:1;stroke-miterlimit:4;" d="M 369.598958 279.901042 L 353.901042 243.401042 " transform="matrix(0.75,0,0,0.75,0,0)"/>
<path style="fill:none;stroke-width:2;stroke-linecap:butt;stroke-linejoin:miter;stroke:rgb(0%,0%,0%);stroke-opacity:1;stroke-miterlimit:4;" d="M 353.901042 243.401042 L 336.598958 241.302083 " transform="matrix(0.75,0,0,0.75,0,0)"/>
<path style="fill:none;stroke-width:2;stroke-linecap:butt;stroke-linejoin:miter;stroke:rgb(80%,80%,0%);stroke-opacity:1;stroke-miterlimit:4;" d="M 336.598958 241.302083 L 319.302083 239.197917 " transform="matrix(0.75,0,0,0.75,0,0)"/>
<path style="fill:none;stroke-width:2;stroke-linecap:butt;stroke-linejoin:miter;stroke:rgb(80%,80%,0%);stroke-opacity:1;stroke-miterlimit:4;" d="M 309.401042 245.197917 L 300 257.901042 " transform="matrix(0.75,0,0,0.75,0,0)"/>
<path style="fill:none;stroke-width:2;stroke-linecap:butt;stroke-linejoin:miter;stroke:rgb(0%,0%,0%);stroke-opacity:1;stroke-miterlimit:4;" d="M 300 257.901042 L 290.5 270.5 " transform="matrix(0.75,0,0,0.75,0,0)"/>
<path style="fill:none;stroke-width:2;stroke-linecap:butt;stroke-linejoin:miter;stroke:rgb(0%,0%,0%);stroke-opacity:1;stroke-miterlimit:4;" d="M 174.302083 217.302083 L 143 241.901042 " transform="matrix(0.75,0,0,0.75,0,0)"/>
<path style="fill:none;stroke-width:2;stroke-linecap:butt;stroke-linejoin:miter;stroke:rgb(0%,0%,0%);stroke-opacity:1;stroke-miterlimit:4;" d="M 143 241.901042 L 144.598958 281.697917 " transform="matrix(0.75,0,0,0.75,0,0)"/>
<path style="fill:none;stroke-width:2;stroke-linecap:butt;stroke-linejoin:miter;stroke:rgb(0%,0%,0%);stroke-opacity:1;stroke-miterlimit:4;" d="M 135.302083 248.197917 L 136.401042 276 " transform="matrix(0.75,0,0,0.75,0,0)"/>
<path style="fill:none;stroke-width:2;stroke-linecap:butt;stroke-linejoin:miter;stroke:rgb(0%,0%,0%);stroke-opacity:1;stroke-miterlimit:4;" d="M 144.598958 281.697917 L 128.401042 287.598958 " transform="matrix(0.75,0,0,0.75,0,0)"/>
<path style="fill:none;stroke-width:2;stroke-linecap:butt;stroke-linejoin:miter;stroke:rgb(80%,80%,0%);stroke-opacity:1;stroke-miterlimit:4;" d="M 128.401042 287.598958 L 112.098958 293.598958 " transform="matrix(0.75,0,0,0.75,0,0)"/>
<path style="fill:none;stroke-width:2;stroke-linecap:butt;stroke-linejoin:miter;stroke:rgb(80%,80%,0%);stroke-opacity:1;stroke-miterlimit:4;" d="M 102.302083 289.197917 L 92.401042 276.598958 " transform="matrix(0.75,0,0,0.75,0,0)"/>
<path style="fill:none;stroke-width:2;stroke-linecap:butt;stroke-linejoin:miter;stroke:rgb(0%,0%,0%);stroke-opacity:1;stroke-miterlimit:4;" d="M 92.401042 276.598958 L 82.598958 264.098958 " transform="matrix(0.75,0,0,0.75,0,0)"/>
<path style="fill:none;stroke-width:2;stroke-linecap:butt;stroke-linejoin:miter;stroke:rgb(0%,0%,0%);stroke-opacity:1;stroke-miterlimit:4;" d="M 82.598958 264.098958 L 65.5 264.802083 " transform="matrix(0.75,0,0,0.75,0,0)"/>
<path style="fill:none;stroke-width:2;stroke-linecap:butt;stroke-linejoin:miter;stroke:rgb(0%,0%,100%);stroke-opacity:1;stroke-miterlimit:4;" d="M 65.5 264.802083 L 48.401042 265.5 " transform="matrix(0.75,0,0,0.75,0,0)"/>
<path style="fill:none;stroke-width:2;stroke-linecap:butt;stroke-linejoin:miter;stroke:rgb(0%,0%,0%);stroke-opacity:1;stroke-miterlimit:4;" d="M 82.598958 264.098958 L 91.302083 251.098958 " transform="matrix(0.75,0,0,0.75,0,0)"/>
<path style="fill:none;stroke-width:2;stroke-linecap:butt;stroke-linejoin:miter;stroke:rgb(0%,0%,100%);stroke-opacity:1;stroke-miterlimit:4;" d="M 91.302083 251.098958 L 100.098958 238 " transform="matrix(0.75,0,0,0.75,0,0)"/>
<path style="fill:none;stroke-width:2;stroke-linecap:butt;stroke-linejoin:miter;stroke:rgb(0%,0%,0%);stroke-opacity:1;stroke-miterlimit:4;" d="M 91.802083 264.598958 L 98 255.5 " transform="matrix(0.75,0,0,0.75,0,0)"/>
<path style="fill:none;stroke-width:2;stroke-linecap:butt;stroke-linejoin:miter;stroke:rgb(0%,0%,100%);stroke-opacity:1;stroke-miterlimit:4;" d="M 98 255.5 L 104.098958 246.302083 " transform="matrix(0.75,0,0,0.75,0,0)"/>
<path style="fill:none;stroke-width:2;stroke-linecap:butt;stroke-linejoin:miter;stroke:rgb(0%,0%,0%);stroke-opacity:1;stroke-miterlimit:4;" d="M 290.5 270.5 L 253.901042 286.197917 " transform="matrix(0.75,0,0,0.75,0,0)"/>
<path style="fill:none;stroke-width:2;stroke-linecap:butt;stroke-linejoin:miter;stroke:rgb(0%,0%,100%);stroke-opacity:1;stroke-miterlimit:4;" d="M 110.302083 232.598958 L 126.697917 237.302083 " transform="matrix(0.75,0,0,0.75,0,0)"/>
<path style="fill:none;stroke-width:2;stroke-linecap:butt;stroke-linejoin:miter;stroke:rgb(0%,0%,0%);stroke-opacity:1;stroke-miterlimit:4;" d="M 126.697917 237.302083 L 143 241.901042 " transform="matrix(0.75,0,0,0.75,0,0)"/>
<path style="fill:none;stroke-width:2;stroke-linecap:butt;stroke-linejoin:miter;stroke:rgb(0%,0%,0%);stroke-opacity:1;stroke-miterlimit:4;" d="M 290.5 270.5 L 296.901042 285.302083 " transform="matrix(0.75,0,0,0.75,0,0)"/>
<path style="fill:none;stroke-width:2;stroke-linecap:butt;stroke-linejoin:miter;stroke:rgb(0%,0%,100%);stroke-opacity:1;stroke-miterlimit:4;" d="M 296.901042 285.302083 L 303.197917 300.197917 " transform="matrix(0.75,0,0,0.75,0,0)"/>
<path style="fill:none;stroke-width:2;stroke-linecap:butt;stroke-linejoin:miter;stroke:rgb(0%,0%,0%);stroke-opacity:1;stroke-miterlimit:4;" d="M 437.598958 182 L 417.302083 216.197917 " transform="matrix(0.75,0,0,0.75,0,0)"/>
<path style="fill:none;stroke-width:2;stroke-linecap:butt;stroke-linejoin:miter;stroke:rgb(0%,0%,0%);stroke-opacity:1;stroke-miterlimit:4;" d="M 427.697917 183 L 413.5 207 " transform="matrix(0.75,0,0,0.75,0,0)"/>
<path style="fill:none;stroke-width:1;stroke-linecap:butt;stroke-linejoin:miter;stroke:rgb(0%,0%,0%);stroke-opacity:1;stroke-miterlimit:4;" d="M 287.5 265.401042 L 286.302083 266.401042 " transform="matrix(0.75,0,0,0.75,0,0)"/>
<path style="fill:none;stroke-width:1;stroke-linecap:butt;stroke-linejoin:miter;stroke:rgb(0%,0%,0%);stroke-opacity:1;stroke-miterlimit:4;" d="M 284.5 260.302083 L 282 262.302083 " transform="matrix(0.75,0,0,0.75,0,0)"/>
<path style="fill:none;stroke-width:1;stroke-linecap:butt;stroke-linejoin:miter;stroke:rgb(0%,0%,0%);stroke-opacity:1;stroke-miterlimit:4;" d="M 281.5 255.197917 L 277.802083 258.197917 " transform="matrix(0.75,0,0,0.75,0,0)"/>
<path style="fill:none;stroke-width:1;stroke-linecap:butt;stroke-linejoin:miter;stroke:rgb(0%,0%,0%);stroke-opacity:1;stroke-miterlimit:4;" d="M 278.5 250.098958 L 273.5 254.098958 " transform="matrix(0.75,0,0,0.75,0,0)"/>
<path style="fill:none;stroke-width:1;stroke-linecap:butt;stroke-linejoin:miter;stroke:rgb(0%,0%,0%);stroke-opacity:1;stroke-miterlimit:4;" d="M 275.5 245.098958 L 269.302083 250 " transform="matrix(0.75,0,0,0.75,0,0)"/>
<path style=" stroke:none;fill-rule:nonzero;fill:rgb(100%,0%,0%);fill-opacity:1;" d="M 146.023438 114.976562 C 146.023438 113.625 146.375 112.574219 147.074219 111.824219 C 147.726562 111.023438 148.675781 110.625 149.925781 110.625 C 151.175781 110.625 152.148438 111.023438 152.851562 111.824219 C 153.5 112.574219 153.824219 113.625 153.824219 114.976562 C 153.824219 116.324219 153.476562 117.398438 152.773438 118.199219 C 152.125 118.949219 151.175781 119.324219 149.925781 119.324219 C 148.675781 119.324219 147.726562 118.949219 147.074219 118.199219 C 146.375 117.398438 146.023438 116.324219 146.023438 114.976562 M 149.925781 118.351562 C 150.773438 118.351562 151.449219 118.074219 151.949219 117.523438 C 152.398438 116.925781 152.625 116.074219 152.625 114.976562 C 152.625 113.875 152.398438 113.023438 151.949219 112.425781 C 151.449219 111.875 150.773438 111.601562 149.925781 111.601562 C 149.074219 111.601562 148.425781 111.875 147.976562 112.425781 C 147.476562 112.976562 147.226562 113.824219 147.226562 114.976562 C 147.226562 116.074219 147.476562 116.925781 147.976562 117.523438 C 148.425781 118.074219 149.074219 118.351562 149.925781 118.351562 "/>
<path style=" stroke:none;fill-rule:nonzero;fill:rgb(0%,0%,100%);fill-opacity:1;" d="M 124.574219 129.148438 L 127.351562 133.648438 C 127.550781 133.949219 127.800781 134.375 128.101562 134.925781 C 128.398438 135.425781 128.550781 135.699219 128.550781 135.75 L 128.550781 129.148438 L 129.675781 129.148438 L 129.675781 137.625 L 128.550781 137.625 L 125.550781 132.75 C 125.300781 132.351562 125.050781 131.925781 124.800781 131.476562 C 124.601562 131.074219 124.449219 130.800781 124.351562 130.648438 L 124.351562 137.625 L 123.300781 137.625 L 123.300781 129.148438 L 124.574219 129.148438 "/>
<path style=" stroke:none;fill-rule:nonzero;fill:rgb(100%,0%,0%);fill-opacity:1;" d="M 178.050781 155.550781 C 178.050781 154.199219 178.375 153.148438 179.023438 152.398438 C 179.726562 151.648438 180.699219 151.273438 181.949219 151.273438 C 183.199219 151.273438 184.148438 151.648438 184.800781 152.398438 C 185.449219 153.148438 185.773438 154.199219 185.773438 155.550781 C 185.773438 156.949219 185.449219 158.023438 184.800781 158.773438 C 184.101562 159.574219 183.148438 159.976562 181.949219 159.976562 C 180.699219 159.976562 179.726562 159.574219 179.023438 158.773438 C 178.375 158.023438 178.050781 156.949219 178.050781 155.550781 M 181.949219 159 C 182.800781 159 183.449219 158.726562 183.898438 158.175781 C 184.351562 157.574219 184.574219 156.699219 184.574219 155.550781 C 184.574219 154.449219 184.351562 153.625 183.898438 153.074219 C 183.449219 152.523438 182.800781 152.25 181.949219 152.25 C 181.050781 152.25 180.375 152.523438 179.925781 153.074219 C 179.476562 153.625 179.25 154.449219 179.25 155.550781 C 179.25 156.699219 179.476562 157.574219 179.925781 158.175781 C 180.375 158.726562 181.050781 159 181.949219 159 "/>
<path style=" stroke:none;fill-rule:nonzero;fill:rgb(0%,0%,100%);fill-opacity:1;" d="M 151.875 199.351562 L 153 199.351562 L 153 202.949219 L 157.351562 202.949219 L 157.351562 199.351562 L 158.476562 199.351562 L 158.476562 207.824219 L 157.351562 207.824219 L 157.351562 203.925781 L 153 203.925781 L 153 207.824219 L 151.875 207.824219 L 151.875 199.351562 "/>
<path style=" stroke:none;fill-rule:nonzero;fill:rgb(0%,0%,100%);fill-opacity:1;" d="M 160.875 199.351562 L 163.648438 203.851562 C 163.800781 204.148438 164.023438 204.550781 164.324219 205.050781 C 164.625 205.601562 164.773438 205.898438 164.773438 205.949219 L 164.773438 199.351562 L 165.898438 199.351562 L 165.898438 207.824219 L 164.773438 207.824219 L 161.773438 202.875 C 161.574219 202.523438 161.351562 202.125 161.101562 201.675781 C 160.851562 201.226562 160.699219 200.949219 160.648438 200.851562 L 160.648438 207.824219 L 159.523438 207.824219 L 159.523438 199.351562 L 160.875 199.351562 "/>
<path style=" stroke:none;fill-rule:nonzero;fill:rgb(100%,0%,0%);fill-opacity:1;" d="M 187.273438 269.851562 C 187.273438 268.5 187.601562 267.449219 188.25 266.699219 C 188.898438 265.949219 189.851562 265.574219 191.101562 265.574219 C 192.351562 265.574219 193.324219 265.949219 194.023438 266.699219 C 194.675781 267.449219 195 268.5 195 269.851562 C 195 271.199219 194.675781 272.273438 194.023438 273.074219 C 193.324219 273.824219 192.351562 274.199219 191.101562 274.199219 C 189.898438 274.199219 188.949219 273.824219 188.25 273.074219 C 187.601562 272.273438 187.273438 271.199219 187.273438 269.851562 M 191.101562 273.300781 C 192 273.300781 192.675781 273 193.125 272.398438 C 193.574219 271.851562 193.800781 271 193.800781 269.851562 C 193.800781 268.75 193.574219 267.925781 193.125 267.375 C 192.675781 266.773438 192 266.476562 191.101562 266.476562 C 190.25 266.476562 189.601562 266.773438 189.148438 267.375 C 188.699219 267.925781 188.476562 268.75 188.476562 269.851562 C 188.476562 271 188.699219 271.851562 189.148438 272.398438 C 189.601562 273 190.25 273.300781 191.101562 273.300781 "/>
<path style=" stroke:none;fill-rule:nonzero;fill:rgb(0%,0%,100%);fill-opacity:1;" d="M 227.773438 226.125 L 230.550781 230.550781 C 230.75 230.851562 231 231.273438 231.300781 231.824219 C 231.601562 232.375 231.75 232.648438 231.75 232.648438 L 231.75 226.125 L 232.875 226.125 L 232.875 234.523438 L 231.675781 234.523438 L 228.75 229.648438 C 228.5 229.300781 228.25 228.898438 228 228.449219 C 227.75 228 227.601562 227.699219 227.550781 227.550781 L 227.550781 234.523438 L 226.425781 234.523438 L 226.425781 226.125 L 227.773438 226.125 "/>
<path style=" stroke:none;fill-rule:nonzero;fill:rgb(100%,0%,0%);fill-opacity:1;" d="M 296.851562 264.824219 C 296.851562 263.476562 297.175781 262.425781 297.824219 261.675781 C 298.476562 260.925781 299.425781 260.550781 300.675781 260.550781 C 301.925781 260.550781 302.898438 260.925781 303.601562 261.675781 C 304.25 262.425781 304.574219 263.476562 304.574219 264.824219 C 304.574219 266.226562 304.25 267.300781 303.601562 268.050781 C 302.898438 268.851562 301.925781 269.25 300.675781 269.25 C 299.476562 269.25 298.523438 268.851562 297.824219 268.050781 C 297.175781 267.300781 296.851562 266.226562 296.851562 264.824219 M 300.675781 268.273438 C 301.574219 268.273438 302.25 268 302.699219 267.449219 C 303.148438 266.851562 303.375 265.976562 303.375 264.824219 C 303.375 263.726562 303.148438 262.898438 302.699219 262.351562 C 302.25 261.800781 301.574219 261.523438 300.675781 261.523438 C 299.824219 261.523438 299.175781 261.800781 298.726562 262.351562 C 298.273438 262.898438 298.050781 263.726562 298.050781 264.824219 C 298.050781 265.976562 298.273438 266.851562 298.726562 267.449219 C 299.175781 268 299.824219 268.273438 300.675781 268.273438 "/>
<path style=" stroke:none;fill-rule:nonzero;fill:rgb(100%,0%,0%);fill-opacity:1;" d="M 241.648438 281.023438 L 242.851562 281.023438 L 242.851562 284.625 L 247.125 284.625 L 247.125 281.023438 L 248.324219 281.023438 L 248.324219 289.5 L 247.125 289.5 L 247.125 285.601562 L 242.851562 285.601562 L 242.851562 289.5 L 241.648438 289.5 L 241.648438 281.023438 "/>
<path style=" stroke:none;fill-rule:nonzero;fill:rgb(100%,0%,0%);fill-opacity:1;" d="M 249.300781 285.226562 C 249.300781 283.875 249.625 282.824219 250.273438 282.074219 C 250.976562 281.324219 251.949219 280.949219 253.199219 280.949219 C 254.449219 280.949219 255.398438 281.324219 256.050781 282.074219 C 256.75 282.824219 257.101562 283.875 257.101562 285.226562 C 257.101562 286.625 256.75 287.699219 256.050781 288.449219 C 255.351562 289.25 254.398438 289.648438 253.199219 289.648438 C 251.949219 289.648438 250.976562 289.25 250.273438 288.449219 C 249.625 287.699219 249.300781 286.625 249.300781 285.226562 M 253.199219 288.675781 C 254.050781 288.675781 254.699219 288.375 255.148438 287.773438 C 255.648438 287.226562 255.898438 286.375 255.898438 285.226562 C 255.898438 284.125 255.648438 283.300781 255.148438 282.75 C 254.699219 282.199219 254.050781 281.925781 253.199219 281.925781 C 252.351562 281.925781 251.675781 282.199219 251.175781 282.75 C 250.726562 283.300781 250.5 284.125 250.5 285.226562 C 250.5 286.375 250.726562 287.226562 251.175781 287.773438 C 251.675781 288.375 252.351562 288.675781 253.199219 288.675781 "/>
<path style=" stroke:none;fill-rule:nonzero;fill:rgb(80%,80%,0%);fill-opacity:1;" d="M 281.398438 158.398438 C 281.5 158.449219 281.675781 158.523438 281.925781 158.625 C 282.175781 158.726562 282.449219 158.824219 282.75 158.925781 C 283.050781 158.976562 283.351562 159 283.648438 159 C 284.148438 159 284.574219 158.875 284.925781 158.625 C 285.226562 158.375 285.375 158.023438 285.375 157.574219 C 285.375 157.226562 285.300781 156.976562 285.148438 156.824219 C 285 156.625 284.800781 156.476562 284.550781 156.375 C 284.300781 156.273438 283.976562 156.148438 283.574219 156 C 283.074219 155.851562 282.675781 155.699219 282.375 155.550781 C 282.074219 155.398438 281.824219 155.175781 281.625 154.875 C 281.425781 154.574219 281.324219 154.175781 281.324219 153.675781 C 281.324219 152.976562 281.550781 152.398438 282 151.949219 C 282.5 151.5 283.226562 151.273438 284.175781 151.273438 C 284.824219 151.273438 285.523438 151.449219 286.273438 151.800781 L 285.976562 152.699219 C 285.324219 152.398438 284.726562 152.25 284.175781 152.25 C 283.625 152.25 283.199219 152.375 282.898438 152.625 C 282.601562 152.824219 282.449219 153.125 282.449219 153.523438 C 282.449219 153.824219 282.550781 154.074219 282.75 154.273438 C 282.898438 154.476562 283.074219 154.625 283.273438 154.726562 C 283.523438 154.824219 283.824219 154.925781 284.175781 155.023438 C 284.726562 155.175781 285.148438 155.351562 285.449219 155.550781 C 285.75 155.699219 286 155.925781 286.199219 156.226562 C 286.398438 156.574219 286.5 157.023438 286.5 157.574219 C 286.5 158.324219 286.25 158.925781 285.75 159.375 C 285.25 159.773438 284.550781 159.976562 283.648438 159.976562 C 283.148438 159.976562 282.726562 159.925781 282.375 159.824219 C 281.976562 159.726562 281.550781 159.574219 281.101562 159.375 L 281.398438 158.398438 "/>
<path style=" stroke:none;fill-rule:nonzero;fill:rgb(0%,0%,100%);fill-opacity:1;" d="M 306.675781 109.800781 L 309.449219 114.300781 C 309.648438 114.601562 309.898438 115 310.199219 115.5 C 310.5 116.050781 310.648438 116.351562 310.648438 116.398438 L 310.648438 109.800781 L 311.773438 109.800781 L 311.773438 118.273438 L 310.574219 118.273438 L 307.648438 113.324219 C 307.398438 112.976562 307.148438 112.574219 306.898438 112.125 C 306.648438 111.675781 306.5 111.398438 306.449219 111.300781 L 306.449219 118.273438 L 305.324219 118.273438 L 305.324219 109.800781 L 306.675781 109.800781 "/>
<path style=" stroke:none;fill-rule:nonzero;fill:rgb(80%,80%,0%);fill-opacity:1;" d="M 233.398438 181.875 C 233.449219 181.925781 233.601562 182 233.851562 182.101562 C 234.148438 182.199219 234.425781 182.300781 234.675781 182.398438 C 234.976562 182.449219 235.273438 182.476562 235.574219 182.476562 C 236.125 182.476562 236.550781 182.351562 236.851562 182.101562 C 237.148438 181.800781 237.300781 181.425781 237.300781 180.976562 C 237.300781 180.675781 237.226562 180.425781 237.074219 180.226562 C 236.925781 180.074219 236.726562 179.925781 236.476562 179.773438 C 236.226562 179.675781 235.898438 179.574219 235.5 179.476562 C 235 179.324219 234.601562 179.175781 234.300781 179.023438 C 234 178.875 233.75 178.648438 233.550781 178.351562 C 233.351562 178.050781 233.25 177.648438 233.25 177.148438 C 233.25 176.449219 233.476562 175.875 233.925781 175.425781 C 234.425781 174.976562 235.148438 174.75 236.101562 174.75 C 236.75 174.75 237.449219 174.898438 238.199219 175.199219 L 237.898438 176.175781 C 237.25 175.875 236.675781 175.726562 236.175781 175.726562 C 235.625 175.726562 235.199219 175.851562 234.898438 176.101562 C 234.601562 176.300781 234.449219 176.601562 234.449219 177 C 234.449219 177.300781 234.523438 177.550781 234.675781 177.75 C 234.824219 177.898438 235 178.023438 235.199219 178.125 C 235.449219 178.273438 235.773438 178.398438 236.175781 178.5 C 236.675781 178.648438 237.074219 178.800781 237.375 178.949219 C 237.675781 179.148438 237.925781 179.398438 238.125 179.699219 C 238.375 180 238.5 180.425781 238.5 180.976562 C 238.5 181.773438 238.226562 182.375 237.675781 182.773438 C 237.175781 183.226562 236.476562 183.449219 235.574219 183.449219 C 235.074219 183.449219 234.648438 183.375 234.300781 183.226562 C 233.898438 183.125 233.476562 183 233.023438 182.851562 L 233.398438 181.875 "/>
<path style=" stroke:none;fill-rule:nonzero;fill:rgb(80%,80%,0%);fill-opacity:1;" d="M 78 224.476562 C 78.101562 224.476562 78.273438 224.550781 78.523438 224.699219 C 78.773438 224.800781 79.050781 224.875 79.351562 224.925781 C 79.648438 224.976562 79.925781 225 80.175781 225 C 80.726562 225 81.148438 224.875 81.449219 224.625 C 81.800781 224.375 81.976562 224.023438 81.976562 223.574219 C 81.976562 223.273438 81.875 223.023438 81.675781 222.824219 C 81.523438 222.625 81.351562 222.476562 81.148438 222.375 C 80.898438 222.273438 80.574219 222.175781 80.175781 222.074219 C 79.675781 221.925781 79.273438 221.773438 78.976562 221.625 C 78.675781 221.476562 78.425781 221.25 78.226562 220.949219 C 77.976562 220.648438 77.851562 220.25 77.851562 219.75 C 77.851562 219 78.101562 218.425781 78.601562 218.023438 C 79.101562 217.574219 79.824219 217.351562 80.773438 217.351562 C 81.425781 217.351562 82.125 217.5 82.875 217.800781 L 82.574219 218.699219 C 81.875 218.449219 81.273438 218.324219 80.773438 218.324219 C 80.226562 218.324219 79.800781 218.425781 79.5 218.625 C 79.199219 218.875 79.050781 219.199219 79.050781 219.601562 C 79.050781 219.898438 79.125 220.125 79.273438 220.273438 C 79.476562 220.476562 79.675781 220.625 79.875 220.726562 C 80.125 220.824219 80.425781 220.949219 80.773438 221.101562 C 81.273438 221.25 81.699219 221.398438 82.050781 221.550781 C 82.351562 221.699219 82.601562 221.949219 82.800781 222.300781 C 83 222.601562 83.101562 223.023438 83.101562 223.574219 C 83.101562 224.375 82.851562 224.976562 82.351562 225.375 C 81.800781 225.773438 81.101562 225.976562 80.25 225.976562 C 79.75 225.976562 79.300781 225.925781 78.898438 225.824219 C 78.550781 225.726562 78.148438 225.574219 77.699219 225.375 L 78 224.476562 "/>
<path style=" stroke:none;fill-rule:nonzero;fill:rgb(0%,0%,100%);fill-opacity:1;" d="M 17.023438 195 L 18.226562 195 L 18.226562 198.601562 L 22.5 198.601562 L 22.5 195 L 23.625 195 L 23.625 203.476562 L 22.5 203.476562 L 22.5 199.574219 L 18.226562 199.574219 L 18.226562 203.476562 L 17.023438 203.476562 L 17.023438 195 "/>
<path style=" stroke:none;fill-rule:nonzero;fill:rgb(0%,0%,100%);fill-opacity:1;" d="M 24.675781 203.175781 C 24.824219 202.824219 25.050781 202.550781 25.351562 202.351562 C 25.699219 202.148438 26.101562 202.050781 26.550781 202.050781 C 27.101562 202.050781 27.550781 202.199219 27.898438 202.5 C 28.199219 202.800781 28.351562 203.226562 28.351562 203.773438 C 28.351562 204.324219 28.148438 204.875 27.75 205.425781 C 27.351562 205.925781 26.726562 206.476562 25.875 207.074219 L 28.425781 207.074219 L 28.425781 207.675781 L 24.675781 207.675781 L 24.675781 207.148438 C 25.375 206.699219 25.925781 206.273438 26.324219 205.875 C 26.726562 205.523438 27.023438 205.175781 27.226562 204.824219 C 27.425781 204.523438 27.523438 204.199219 27.523438 203.851562 C 27.523438 203.5 27.449219 203.226562 27.300781 203.023438 C 27.101562 202.824219 26.851562 202.726562 26.550781 202.726562 C 26.25 202.726562 26 202.773438 25.800781 202.875 C 25.601562 202.976562 25.425781 203.175781 25.273438 203.476562 L 24.675781 203.175781 "/>
<path style=" stroke:none;fill-rule:nonzero;fill:rgb(0%,0%,100%);fill-opacity:1;" d="M 30.226562 195 L 33 199.5 C 33.199219 199.800781 33.449219 200.226562 33.75 200.773438 C 34.050781 201.273438 34.199219 201.550781 34.199219 201.601562 L 34.199219 195 L 35.324219 195 L 35.324219 203.476562 L 34.199219 203.476562 L 31.199219 198.601562 C 30.949219 198.199219 30.699219 197.773438 30.449219 197.324219 C 30.25 196.925781 30.101562 196.648438 30 196.5 L 30 203.476562 L 28.875 203.476562 L 28.875 195 L 30.226562 195 "/>
<path style=" stroke:none;fill-rule:nonzero;fill:rgb(0%,0%,100%);fill-opacity:1;" d="M 76.648438 169.050781 L 79.425781 173.550781 C 79.625 173.851562 79.875 174.25 80.175781 174.75 C 80.476562 175.300781 80.625 175.601562 80.625 175.648438 L 80.625 169.050781 L 81.75 169.050781 L 81.75 177.523438 L 80.625 177.523438 L 77.625 172.648438 C 77.375 172.25 77.125 171.824219 76.875 171.375 C 76.675781 170.925781 76.523438 170.648438 76.425781 170.550781 L 76.425781 177.523438 L 75.375 177.523438 L 75.375 169.050781 L 76.648438 169.050781 "/>
<path style=" stroke:none;fill-rule:nonzero;fill:rgb(0%,0%,0%);fill-opacity:1;" d="M 196.125 175.199219 L 197.25 175.199219 L 197.25 178.800781 L 201.601562 178.800781 L 201.601562 175.199219 L 202.726562 175.199219 L 202.726562 183.675781 L 201.601562 183.675781 L 201.601562 179.773438 L 197.25 179.773438 L 197.25 183.675781 L 196.125 183.675781 L 196.125 175.199219 "/>
</g>
</svg>
