<?xml version="1.0" encoding="UTF-8"?>
<svg xmlns="http://www.w3.org/2000/svg" xmlns:xlink="http://www.w3.org/1999/xlink" width="375pt" height="375pt" viewBox="0 0 375 375" version="1.1">
<g id="surface126">
<rect x="0" y="0" width="375" height="375" style="fill:rgb(100%,100%,100%);fill-opacity:1;stroke:none;"/>
<path style="fill:none;stroke-width:2;stroke-linecap:butt;stroke-linejoin:miter;stroke:rgb(0%,0%,0%);stroke-opacity:1;stroke-miterlimit:4;" d="M 477.302083 233 L 459.901042 239.401042 " transform="matrix(0.75,0,0,0.75,0,0)"/>
<path style="fill:none;stroke-width:2;stroke-linecap:butt;stroke-linejoin:miter;stroke:rgb(0%,0%,0%);stroke-opacity:1;stroke-miterlimit:4;" d="M 459.901042 239.401042 L 445.697917 227.697917 " transform="matrix(0.75,0,0,0.75,0,0)"/>
<path style="fill-rule:evenodd;fill:rgb(0%,0%,0%);fill-opacity:1;stroke-width:1;stroke-linecap:butt;stroke-linejoin:miter;stroke:rgb(0%,0%,0%);stroke-opacity:1;stroke-miterlimit:4;" d="M 445.697917 227.697917 L 446.901042 209.098958 L 450.598958 209.697917 Z M 445.697917 227.697917 " transform="matrix(0.75,0,0,0.75,0,0)"/>
<path style="fill:none;stroke-width:2;stroke-linecap:butt;stroke-linejoin:miter;stroke:rgb(0%,0%,0%);stroke-opacity:1;stroke-miterlimit:4;" d="M 445.697917 227.697917 L 428.302083 234.098958 " transform="matrix(0.75,0,0,0.75,0,0)"/>
<path style="fill:none;stroke-width:2;stroke-linecap:butt;stroke-linejoin:miter;stroke:rgb(0%,0%,0%);stroke-opacity:1;stroke-miterlimit:4;" d="M 428.302083 234.098958 L 425.197917 252.401042 " transform="matrix(0.75,0,0,0.75,0,0)"/>
<path style="fill:none;stroke-width:1;stroke-linecap:butt;stroke-linejoin:miter;stroke:rgb(0%,0%,0%);stroke-opacity:1;stroke-miterlimit:4;" d="M 429.598958 256.802083 L 430.401042 255.802083 " transform="matrix(0.75,0,0,0.75,0,0)"/>
<path style="fill:none;stroke-width:1;stroke-linecap:butt;stroke-linejoin:miter;stroke:rgb(0%,0%,0%);stroke-opacity:1;stroke-miterlimit:4;" d="M 434 261.197917 L 435.5 259.302083 " transform="matrix(0.75,0,0,0.75,0,0)"/>
<path style="fill:none;stroke-width:1;stroke-linecap:butt;stroke-linejoin:miter;stroke:rgb(0%,0%,0%);stroke-opacity:1;stroke-miterlimit:4;" d="M 438.302083 265.598958 L 440.697917 262.697917 " transform="matrix(0.75,0,0,0.75,0,0)"/>
<path style="fill:none;stroke-width:2;stroke-linecap:butt;stroke-linejoin:miter;stroke:rgb(0%,0%,0%);stroke-opacity:1;stroke-miterlimit:4;" d="M 425.197917 252.401042 L 407.901042 258.802083 " transform="matrix(0.75,0,0,0.75,0,0)"/>
<path style="fill:none;stroke-width:2;stroke-linecap:butt;stroke-linejoin:miter;stroke:rgb(0%,0%,0%);stroke-opacity:1;stroke-miterlimit:4;" d="M 407.901042 258.802083 L 393.598958 247 " transform="matrix(0.75,0,0,0.75,0,0)"/>
<path style="fill:none;stroke-width:2;stroke-linecap:butt;stroke-linejoin:miter;stroke:rgb(0%,0%,0%);stroke-opacity:1;stroke-miterlimit:4;" d="M 393.598958 247 L 376.302083 253.5 " transform="matrix(0.75,0,0,0.75,0,0)"/>
<path style="fill:none;stroke-width:2;stroke-linecap:butt;stroke-linejoin:miter;stroke:rgb(0%,0%,0%);stroke-opacity:1;stroke-miterlimit:4;" d="M 376.302083 253.5 L 362 241.697917 " transform="matrix(0.75,0,0,0.75,0,0)"/>
<path style="fill:none;stroke-width:2;stroke-linecap:butt;stroke-linejoin:miter;stroke:rgb(0%,0%,0%);stroke-opacity:1;stroke-miterlimit:4;" d="M 362 241.697917 L 344.697917 248.197917 " transform="matrix(0.75,0,0,0.75,0,0)"/>
<path style="fill:none;stroke-width:2;stroke-linecap:butt;stroke-linejoin:miter;stroke:rgb(0%,0%,0%);stroke-opacity:1;stroke-miterlimit:4;" d="M 344.697917 248.197917 L 330.401042 236.401042 " transform="matrix(0.75,0,0,0.75,0,0)"/>
<path style="fill:none;stroke-width:2;stroke-linecap:butt;stroke-linejoin:miter;stroke:rgb(0%,0%,0%);stroke-opacity:1;stroke-miterlimit:4;" d="M 330.401042 236.401042 L 313 242.901042 " transform="matrix(0.75,0,0,0.75,0,0)"/>
<path style="fill:none;stroke-width:2;stroke-linecap:butt;stroke-linejoin:miter;stroke:rgb(0%,0%,0%);stroke-opacity:1;stroke-miterlimit:4;" d="M 313 242.901042 L 298.802083 231.098958 " transform="matrix(0.75,0,0,0.75,0,0)"/>
<path style="fill:none;stroke-width:2;stroke-linecap:butt;stroke-linejoin:miter;stroke:rgb(0%,0%,0%);stroke-opacity:1;stroke-miterlimit:4;" d="M 298.802083 231.098958 L 281.401042 237.5 " transform="matrix(0.75,0,0,0.75,0,0)"/>
<path style="fill:none;stroke-width:2;stroke-linecap:butt;stroke-linejoin:miter;stroke:rgb(0%,0%,0%);stroke-opacity:1;stroke-miterlimit:4;" d="M 283.197917 237.901042 L 282 245.302083 " transform="matrix(0.75,0,0,0.75,0,0)"/>
<path style="fill:none;stroke-width:2;stroke-linecap:butt;stroke-linejoin:miter;stroke:rgb(100%,0%,0%);stroke-opacity:1;stroke-miterlimit:4;" d="M 282 245.302083 L 280.697917 252.802083 " transform="matrix(0.75,0,0,0.75,0,0)"/>
<path style="fill:none;stroke-width:2;stroke-linecap:butt;stroke-linejoin:miter;stroke:rgb(0%,0%,0%);stroke-opacity:1;stroke-miterlimit:4;" d="M 279.598958 237.197917 L 278.302083 244.697917 " transform="matrix(0.75,0,0,0.75,0,0)"/>
<path style="fill:none;stroke-width:2;stroke-linecap:butt;stroke-linejoin:miter;stroke:rgb(100%,0%,0%);stroke-opacity:1;stroke-miterlimit:4;" d="M 278.302083 244.697917 L 277.098958 252.197917 " transform="matrix(0.75,0,0,0.75,0,0)"/>
<path style="fill:none;stroke-width:2;stroke-linecap:butt;stroke-linejoin:miter;stroke:rgb(0%,0%,0%);stroke-opacity:1;stroke-miterlimit:4;" d="M 281.401042 237.5 L 275.598958 232.697917 " transform="matrix(0.75,0,0,0.75,0,0)"/>
<path style="fill:none;stroke-width:2;stroke-linecap:butt;stroke-linejoin:miter;stroke:rgb(0%,0%,100%);stroke-opacity:1;stroke-miterlimit:4;" d="M 275.598958 232.697917 L 269.697917 227.901042 " transform="matrix(0.75,0,0,0.75,0,0)"/>
<path style="fill-rule:evenodd;fill:rgb(0%,0%,0%);fill-opacity:1;stroke-width:1;stroke-linecap:butt;stroke-linejoin:miter;stroke:rgb(0%,0%,0%);stroke-opacity:1;stroke-miterlimit:4;" d="M 249.802083 232.197917 L 256.5 228.697917 L 257.197917 230.5 Z M 249.802083 232.197917 " transform="matrix(0.75,0,0,0.75,0,0)"/>
<path style="fill-rule:evenodd;fill:rgb(0%,0%,100%);fill-opacity:1;stroke-width:1;stroke-linecap:butt;stroke-linejoin:miter;stroke:rgb(0%,0%,100%);stroke-opacity:1;stroke-miterlimit:4;" d="M 256.5 228.697917 L 264.598958 228.697917 L 263.302083 225.197917 Z M 256.5 228.697917 " transform="matrix(0.75,0,0,0.75,0,0)"/>
<path style="fill-rule:evenodd;fill:rgb(0%,0%,100%);fill-opacity:1;stroke-width:1;stroke-linecap:butt;stroke-linejoin:miter;stroke:rgb(0%,0%,100%);stroke-opacity:1;stroke-miterlimit:4;" d="M 256.5 228.697917 L 257.197917 230.5 L 264.598958 228.697917 Z M 256.5 228.697917 " transform="matrix(0.75,0,0,0.75,0,0)"/>
<path style="fill:none;stroke-width:2;stroke-linecap:butt;stroke-linejoin:miter;stroke:rgb(0%,0%,0%);stroke-opacity:1;stroke-miterlimit:4;" d="M 249.802083 232.197917 L 252.901042 247.098958 " transform="matrix(0.75,0,0,0.75,0,0)"/>
<path style="fill:none;stroke-width:2;stroke-linecap:butt;stroke-linejoin:miter;stroke:rgb(0%,0%,0%);stroke-opacity:1;stroke-miterlimit:4;" d="M 253.302083 253.697917 L 251.901042 268.802083 " transform="matrix(0.75,0,0,0.75,0,0)"/>
<path style="fill-rule:evenodd;fill:rgb(0%,0%,0%);fill-opacity:1;stroke-width:1;stroke-linecap:butt;stroke-linejoin:miter;stroke:rgb(0%,0%,0%);stroke-opacity:1;stroke-miterlimit:4;" d="M 251.901042 268.802083 L 259.302083 269.598958 L 258.901042 271.401042 Z M 251.901042 268.802083 " transform="matrix(0.75,0,0,0.75,0,0)"/>
<path style="fill-rule:evenodd;fill:rgb(100%,0%,0%);fill-opacity:1;stroke-width:1;stroke-linecap:butt;stroke-linejoin:miter;stroke:rgb(100%,0%,0%);stroke-opacity:1;stroke-miterlimit:4;" d="M 259.302083 269.598958 L 265.802083 274.098958 L 266.697917 270.5 Z M 259.302083 269.598958 " transform="matrix(0.75,0,0,0.75,0,0)"/>
<path style="fill-rule:evenodd;fill:rgb(100%,0%,0%);fill-opacity:1;stroke-width:1;stroke-linecap:butt;stroke-linejoin:miter;stroke:rgb(100%,0%,0%);stroke-opacity:1;stroke-miterlimit:4;" d="M 259.302083 269.598958 L 258.901042 271.401042 L 265.802083 274.098958 Z M 259.302083 269.598958 " transform="matrix(0.75,0,0,0.75,0,0)"/>
<path style="fill:none;stroke-width:2;stroke-linecap:butt;stroke-linejoin:miter;stroke:rgb(0%,0%,0%);stroke-opacity:1;stroke-miterlimit:4;" d="M 251.901042 268.802083 L 244.901042 285.901042 " transform="matrix(0.75,0,0,0.75,0,0)"/>
<path style="fill-rule:evenodd;fill:rgb(0%,0%,0%);fill-opacity:1;stroke-width:1;stroke-linecap:butt;stroke-linejoin:miter;stroke:rgb(0%,0%,0%);stroke-opacity:1;stroke-miterlimit:4;" d="M 244.901042 285.901042 L 251.697917 288.901042 L 250.697917 290.5 Z M 244.901042 285.901042 " transform="matrix(0.75,0,0,0.75,0,0)"/>
<path style="fill-rule:evenodd;fill:rgb(0%,0%,100%);fill-opacity:1;stroke-width:1;stroke-linecap:butt;stroke-linejoin:miter;stroke:rgb(0%,0%,100%);stroke-opacity:1;stroke-miterlimit:4;" d="M 251.697917 288.901042 L 256.598958 295.098958 L 258.5 291.901042 Z M 251.697917 288.901042 " transform="matrix(0.75,0,0,0.75,0,0)"/>
<path style="fill-rule:evenodd;fill:rgb(0%,0%,100%);fill-opacity:1;stroke-width:1;stroke-linecap:butt;stroke-linejoin:miter;stroke:rgb(0%,0%,100%);stroke-opacity:1;stroke-miterlimit:4;" d="M 251.697917 288.901042 L 250.697917 290.5 L 256.598958 295.098958 Z M 251.697917 288.901042 " transform="matrix(0.75,0,0,0.75,0,0)"/>
<path style="fill:none;stroke-width:2;stroke-linecap:butt;stroke-linejoin:miter;stroke:rgb(0%,0%,100%);stroke-opacity:1;stroke-miterlimit:4;" d="M 260.697917 298.598958 L 260.5 306.302083 " transform="matrix(0.75,0,0,0.75,0,0)"/>
<path style="fill:none;stroke-width:2;stroke-linecap:butt;stroke-linejoin:miter;stroke:rgb(0%,0%,0%);stroke-opacity:1;stroke-miterlimit:4;" d="M 260.5 306.302083 L 260.401042 313.901042 " transform="matrix(0.75,0,0,0.75,0,0)"/>
<path style="fill:none;stroke-width:2;stroke-linecap:butt;stroke-linejoin:miter;stroke:rgb(0%,0%,0%);stroke-opacity:1;stroke-miterlimit:4;" d="M 260.401042 313.901042 L 276.302083 323.5 " transform="matrix(0.75,0,0,0.75,0,0)"/>
<path style="fill:none;stroke-width:2;stroke-linecap:butt;stroke-linejoin:miter;stroke:rgb(0%,0%,0%);stroke-opacity:1;stroke-miterlimit:4;" d="M 276.302083 323.5 L 276.098958 331.098958 " transform="matrix(0.75,0,0,0.75,0,0)"/>
<path style="fill:none;stroke-width:2;stroke-linecap:butt;stroke-linejoin:miter;stroke:rgb(0%,0%,100%);stroke-opacity:1;stroke-miterlimit:4;" d="M 276.098958 331.098958 L 276 338.697917 " transform="matrix(0.75,0,0,0.75,0,0)"/>
<path style="fill:none;stroke-width:2;stroke-linecap:butt;stroke-linejoin:miter;stroke:rgb(0%,0%,0%);stroke-opacity:1;stroke-miterlimit:4;" d="M 244.901042 285.901042 L 240.302083 291.401042 " transform="matrix(0.75,0,0,0.75,0,0)"/>
<path style="fill:none;stroke-width:2;stroke-linecap:butt;stroke-linejoin:miter;stroke:rgb(0%,0%,100%);stroke-opacity:1;stroke-miterlimit:4;" d="M 240.302083 291.401042 L 235.697917 296.901042 " transform="matrix(0.75,0,0,0.75,0,0)"/>
<path style="fill:none;stroke-width:2;stroke-linecap:butt;stroke-linejoin:miter;stroke:rgb(0%,0%,100%);stroke-opacity:1;stroke-miterlimit:4;" d="M 230.5 301.901042 L 224 306.098958 " transform="matrix(0.75,0,0,0.75,0,0)"/>
<path style="fill:none;stroke-width:2;stroke-linecap:butt;stroke-linejoin:miter;stroke:rgb(0%,0%,0%);stroke-opacity:1;stroke-miterlimit:4;" d="M 224 306.098958 L 217.598958 310.302083 " transform="matrix(0.75,0,0,0.75,0,0)"/>
<path style="fill:none;stroke-width:2;stroke-linecap:butt;stroke-linejoin:miter;stroke:rgb(0%,0%,0%);stroke-opacity:1;stroke-miterlimit:4;" d="M 219.197917 309.302083 L 223 315.598958 " transform="matrix(0.75,0,0,0.75,0,0)"/>
<path style="fill:none;stroke-width:2;stroke-linecap:butt;stroke-linejoin:miter;stroke:rgb(100%,0%,0%);stroke-opacity:1;stroke-miterlimit:4;" d="M 223 315.598958 L 226.901042 321.802083 " transform="matrix(0.75,0,0,0.75,0,0)"/>
<path style="fill:none;stroke-width:2;stroke-linecap:butt;stroke-linejoin:miter;stroke:rgb(0%,0%,0%);stroke-opacity:1;stroke-miterlimit:4;" d="M 216 311.302083 L 219.901042 317.5 " transform="matrix(0.75,0,0,0.75,0,0)"/>
<path style="fill:none;stroke-width:2;stroke-linecap:butt;stroke-linejoin:miter;stroke:rgb(100%,0%,0%);stroke-opacity:1;stroke-miterlimit:4;" d="M 219.901042 317.5 L 223.697917 323.802083 " transform="matrix(0.75,0,0,0.75,0,0)"/>
<path style="fill:none;stroke-width:2;stroke-linecap:butt;stroke-linejoin:miter;stroke:rgb(0%,0%,0%);stroke-opacity:1;stroke-miterlimit:4;" d="M 217.598958 310.302083 L 199.802083 315.5 " transform="matrix(0.75,0,0,0.75,0,0)"/>
<path style="fill:none;stroke-width:2;stroke-linecap:butt;stroke-linejoin:miter;stroke:rgb(0%,0%,0%);stroke-opacity:1;stroke-miterlimit:4;" d="M 199.802083 315.5 L 205.197917 333.197917 " transform="matrix(0.75,0,0,0.75,0,0)"/>
<path style="fill-rule:evenodd;fill:rgb(0%,0%,0%);fill-opacity:1;stroke-width:1;stroke-linecap:butt;stroke-linejoin:miter;stroke:rgb(0%,0%,0%);stroke-opacity:1;stroke-miterlimit:4;" d="M 205.197917 333.197917 L 212.5 334.697917 L 211.901042 336.401042 Z M 205.197917 333.197917 " transform="matrix(0.75,0,0,0.75,0,0)"/>
<path style="fill-rule:evenodd;fill:rgb(100%,0%,0%);fill-opacity:1;stroke-width:1;stroke-linecap:butt;stroke-linejoin:miter;stroke:rgb(100%,0%,0%);stroke-opacity:1;stroke-miterlimit:4;" d="M 212.5 334.697917 L 218.5 339.697917 L 219.697917 336.197917 Z M 212.5 334.697917 " transform="matrix(0.75,0,0,0.75,0,0)"/>
<path style="fill-rule:evenodd;fill:rgb(100%,0%,0%);fill-opacity:1;stroke-width:1;stroke-linecap:butt;stroke-linejoin:miter;stroke:rgb(100%,0%,0%);stroke-opacity:1;stroke-miterlimit:4;" d="M 212.5 334.697917 L 211.901042 336.401042 L 218.5 339.697917 Z M 212.5 334.697917 " transform="matrix(0.75,0,0,0.75,0,0)"/>
<path style="fill:none;stroke-width:2;stroke-linecap:butt;stroke-linejoin:miter;stroke:rgb(0%,0%,0%);stroke-opacity:1;stroke-miterlimit:4;" d="M 205.197917 333.197917 L 190.098958 343.802083 " transform="matrix(0.75,0,0,0.75,0,0)"/>
<path style="fill:none;stroke-width:2;stroke-linecap:butt;stroke-linejoin:miter;stroke:rgb(0%,0%,0%);stroke-opacity:1;stroke-miterlimit:4;" d="M 190.098958 343.802083 L 175.302083 332.697917 " transform="matrix(0.75,0,0,0.75,0,0)"/>
<path style="fill:none;stroke-width:2;stroke-linecap:butt;stroke-linejoin:miter;stroke:rgb(0%,0%,0%);stroke-opacity:1;stroke-miterlimit:4;" d="M 175.302083 332.697917 L 177.697917 325.5 " transform="matrix(0.75,0,0,0.75,0,0)"/>
<path style="fill:none;stroke-width:2;stroke-linecap:butt;stroke-linejoin:miter;stroke:rgb(0%,0%,100%);stroke-opacity:1;stroke-miterlimit:4;" d="M 177.697917 325.5 L 180.197917 318.401042 " transform="matrix(0.75,0,0,0.75,0,0)"/>
<path style="fill:none;stroke-width:2;stroke-linecap:butt;stroke-linejoin:miter;stroke:rgb(0%,0%,100%);stroke-opacity:1;stroke-miterlimit:4;" d="M 178.697917 314.302083 L 171.197917 311.802083 " transform="matrix(0.75,0,0,0.75,0,0)"/>
<path style="fill:none;stroke-width:2;stroke-linecap:butt;stroke-linejoin:miter;stroke:rgb(0%,0%,0%);stroke-opacity:1;stroke-miterlimit:4;" d="M 171.197917 311.802083 L 163.697917 309.401042 " transform="matrix(0.75,0,0,0.75,0,0)"/>
<path style="fill:none;stroke-width:2;stroke-linecap:butt;stroke-linejoin:miter;stroke:rgb(0%,0%,0%);stroke-opacity:1;stroke-miterlimit:4;" d="M 165.401042 310.197917 L 162 316.901042 " transform="matrix(0.75,0,0,0.75,0,0)"/>
<path style="fill:none;stroke-width:2;stroke-linecap:butt;stroke-linejoin:miter;stroke:rgb(100%,0%,0%);stroke-opacity:1;stroke-miterlimit:4;" d="M 162 316.901042 L 158.697917 323.5 " transform="matrix(0.75,0,0,0.75,0,0)"/>
<path style="fill:none;stroke-width:2;stroke-linecap:butt;stroke-linejoin:miter;stroke:rgb(0%,0%,0%);stroke-opacity:1;stroke-miterlimit:4;" d="M 162.098958 308.598958 L 158.697917 315.197917 " transform="matrix(0.75,0,0,0.75,0,0)"/>
<path style="fill:none;stroke-width:2;stroke-linecap:butt;stroke-linejoin:miter;stroke:rgb(100%,0%,0%);stroke-opacity:1;stroke-miterlimit:4;" d="M 158.697917 315.197917 L 155.401042 321.802083 " transform="matrix(0.75,0,0,0.75,0,0)"/>
<path style="fill:none;stroke-width:2;stroke-linecap:butt;stroke-linejoin:miter;stroke:rgb(0%,0%,0%);stroke-opacity:1;stroke-miterlimit:4;" d="M 163.697917 309.401042 L 148.598958 298.697917 " transform="matrix(0.75,0,0,0.75,0,0)"/>
<path style="fill:none;stroke-width:2;stroke-linecap:butt;stroke-linejoin:miter;stroke:rgb(0%,0%,0%);stroke-opacity:1;stroke-miterlimit:4;" d="M 148.598958 298.697917 L 135.802083 312.098958 " transform="matrix(0.75,0,0,0.75,0,0)"/>
<path style="fill:none;stroke-width:1;stroke-linecap:butt;stroke-linejoin:miter;stroke:rgb(0%,0%,0%);stroke-opacity:1;stroke-miterlimit:4;" d="M 136.5 316.901042 L 137.697917 316.5 " transform="matrix(0.75,0,0,0.75,0,0)"/>
<path style="fill:none;stroke-width:1;stroke-linecap:butt;stroke-linejoin:miter;stroke:rgb(100%,0%,0%);stroke-opacity:1;stroke-miterlimit:4;" d="M 137.302083 321.697917 L 139.598958 321 " transform="matrix(0.75,0,0,0.75,0,0)"/>
<path style="fill:none;stroke-width:1;stroke-linecap:butt;stroke-linejoin:miter;stroke:rgb(100%,0%,0%);stroke-opacity:1;stroke-miterlimit:4;" d="M 138 326.5 L 141.598958 325.401042 " transform="matrix(0.75,0,0,0.75,0,0)"/>
<path style="fill:none;stroke-width:2;stroke-linecap:butt;stroke-linejoin:miter;stroke:rgb(0%,0%,0%);stroke-opacity:1;stroke-miterlimit:4;" d="M 135.802083 312.098958 L 117.802083 307.598958 " transform="matrix(0.75,0,0,0.75,0,0)"/>
<path style="fill:none;stroke-width:2;stroke-linecap:butt;stroke-linejoin:miter;stroke:rgb(0%,0%,0%);stroke-opacity:1;stroke-miterlimit:4;" d="M 117.802083 307.598958 L 105 321 " transform="matrix(0.75,0,0,0.75,0,0)"/>
<path style="fill:none;stroke-width:2;stroke-linecap:butt;stroke-linejoin:miter;stroke:rgb(0%,0%,0%);stroke-opacity:1;stroke-miterlimit:4;" d="M 105 321 L 97.302083 319.098958 " transform="matrix(0.75,0,0,0.75,0,0)"/>
<path style="fill:none;stroke-width:2;stroke-linecap:butt;stroke-linejoin:miter;stroke:rgb(0%,0%,100%);stroke-opacity:1;stroke-miterlimit:4;" d="M 97.302083 319.098958 L 89.598958 317.197917 " transform="matrix(0.75,0,0,0.75,0,0)"/>
<path style="fill:none;stroke-width:1;stroke-linecap:butt;stroke-linejoin:miter;stroke:rgb(0%,0%,0%);stroke-opacity:1;stroke-miterlimit:4;" d="M 146.302083 294.697917 L 145.302083 295.5 " transform="matrix(0.75,0,0,0.75,0,0)"/>
<path style="fill:none;stroke-width:1;stroke-linecap:butt;stroke-linejoin:miter;stroke:rgb(0%,0%,100%);stroke-opacity:1;stroke-miterlimit:4;" d="M 144 290.697917 L 142.098958 292.197917 " transform="matrix(0.75,0,0,0.75,0,0)"/>
<path style="fill:none;stroke-width:1;stroke-linecap:butt;stroke-linejoin:miter;stroke:rgb(0%,0%,100%);stroke-opacity:1;stroke-miterlimit:4;" d="M 141.697917 286.697917 L 138.802083 289 " transform="matrix(0.75,0,0,0.75,0,0)"/>
<path style="fill:none;stroke-width:2;stroke-linecap:butt;stroke-linejoin:miter;stroke:rgb(0%,0%,100%);stroke-opacity:1;stroke-miterlimit:4;" d="M 136.098958 280.802083 L 133.5 273.697917 " transform="matrix(0.75,0,0,0.75,0,0)"/>
<path style="fill:none;stroke-width:2;stroke-linecap:butt;stroke-linejoin:miter;stroke:rgb(0%,0%,0%);stroke-opacity:1;stroke-miterlimit:4;" d="M 133.5 273.697917 L 130.802083 266.697917 " transform="matrix(0.75,0,0,0.75,0,0)"/>
<path style="fill:none;stroke-width:2;stroke-linecap:butt;stroke-linejoin:miter;stroke:rgb(0%,0%,0%);stroke-opacity:1;stroke-miterlimit:4;" d="M 131.197917 268.5 L 123.697917 270.098958 " transform="matrix(0.75,0,0,0.75,0,0)"/>
<path style="fill:none;stroke-width:2;stroke-linecap:butt;stroke-linejoin:miter;stroke:rgb(100%,0%,0%);stroke-opacity:1;stroke-miterlimit:4;" d="M 123.697917 270.098958 L 116.098958 271.697917 " transform="matrix(0.75,0,0,0.75,0,0)"/>
<path style="fill:none;stroke-width:2;stroke-linecap:butt;stroke-linejoin:miter;stroke:rgb(0%,0%,0%);stroke-opacity:1;stroke-miterlimit:4;" d="M 130.5 264.901042 L 122.901042 266.5 " transform="matrix(0.75,0,0,0.75,0,0)"/>
<path style="fill:none;stroke-width:2;stroke-linecap:butt;stroke-linejoin:miter;stroke:rgb(100%,0%,0%);stroke-opacity:1;stroke-miterlimit:4;" d="M 122.901042 266.5 L 115.401042 268.098958 " transform="matrix(0.75,0,0,0.75,0,0)"/>
<path style="fill:none;stroke-width:2;stroke-linecap:butt;stroke-linejoin:miter;stroke:rgb(0%,0%,0%);stroke-opacity:1;stroke-miterlimit:4;" d="M 130.802083 266.697917 L 129.802083 248.197917 " transform="matrix(0.75,0,0,0.75,0,0)"/>
<path style="fill:none;stroke-width:2;stroke-linecap:butt;stroke-linejoin:miter;stroke:rgb(0%,0%,0%);stroke-opacity:1;stroke-miterlimit:4;" d="M 129.802083 248.197917 L 111.302083 246.5 " transform="matrix(0.75,0,0,0.75,0,0)"/>
<path style="fill:none;stroke-width:1;stroke-linecap:butt;stroke-linejoin:miter;stroke:rgb(0%,0%,0%);stroke-opacity:1;stroke-miterlimit:4;" d="M 108.197917 249.901042 L 109.197917 250.598958 " transform="matrix(0.75,0,0,0.75,0,0)"/>
<path style="fill:none;stroke-width:1;stroke-linecap:butt;stroke-linejoin:miter;stroke:rgb(100%,0%,0%);stroke-opacity:1;stroke-miterlimit:4;" d="M 105 253.302083 L 107 254.697917 " transform="matrix(0.75,0,0,0.75,0,0)"/>
<path style="fill:none;stroke-width:1;stroke-linecap:butt;stroke-linejoin:miter;stroke:rgb(100%,0%,0%);stroke-opacity:1;stroke-miterlimit:4;" d="M 101.901042 256.697917 L 104.901042 258.802083 " transform="matrix(0.75,0,0,0.75,0,0)"/>
<path style="fill:none;stroke-width:2;stroke-linecap:butt;stroke-linejoin:miter;stroke:rgb(0%,0%,0%);stroke-opacity:1;stroke-miterlimit:4;" d="M 111.302083 246.5 L 103.598958 229.697917 " transform="matrix(0.75,0,0,0.75,0,0)"/>
<path style="fill:none;stroke-width:1;stroke-linecap:butt;stroke-linejoin:miter;stroke:rgb(0%,0%,0%);stroke-opacity:1;stroke-miterlimit:4;" d="M 106.697917 226.302083 L 105.697917 225.598958 " transform="matrix(0.75,0,0,0.75,0,0)"/>
<path style="fill:none;stroke-width:1;stroke-linecap:butt;stroke-linejoin:miter;stroke:rgb(100%,0%,0%);stroke-opacity:1;stroke-miterlimit:4;" d="M 109.901042 223 L 107.901042 221.5 " transform="matrix(0.75,0,0,0.75,0,0)"/>
<path style="fill:none;stroke-width:1;stroke-linecap:butt;stroke-linejoin:miter;stroke:rgb(100%,0%,0%);stroke-opacity:1;stroke-miterlimit:4;" d="M 113 219.598958 L 110 217.5 " transform="matrix(0.75,0,0,0.75,0,0)"/>
<path style="fill:none;stroke-width:2;stroke-linecap:butt;stroke-linejoin:miter;stroke:rgb(0%,0%,0%);stroke-opacity:1;stroke-miterlimit:4;" d="M 103.598958 229.697917 L 85.197917 228 " transform="matrix(0.75,0,0,0.75,0,0)"/>
<path style="fill:none;stroke-width:2;stroke-linecap:butt;stroke-linejoin:miter;stroke:rgb(0%,0%,0%);stroke-opacity:1;stroke-miterlimit:4;" d="M 85.197917 228 L 77.401042 211.197917 " transform="matrix(0.75,0,0,0.75,0,0)"/>
<path style="fill:none;stroke-width:2;stroke-linecap:butt;stroke-linejoin:miter;stroke:rgb(0%,0%,0%);stroke-opacity:1;stroke-miterlimit:4;" d="M 80.598958 227 L 75.197917 215.197917 " transform="matrix(0.75,0,0,0.75,0,0)"/>
<path style="fill:none;stroke-width:2;stroke-linecap:butt;stroke-linejoin:miter;stroke:rgb(0%,0%,0%);stroke-opacity:1;stroke-miterlimit:4;" d="M 77.401042 211.197917 L 59 209.5 " transform="matrix(0.75,0,0,0.75,0,0)"/>
<path style="fill:none;stroke-width:2;stroke-linecap:butt;stroke-linejoin:miter;stroke:rgb(0%,0%,0%);stroke-opacity:1;stroke-miterlimit:4;" d="M 59 209.5 L 48.302083 224.598958 " transform="matrix(0.75,0,0,0.75,0,0)"/>
<path style="fill:none;stroke-width:2;stroke-linecap:butt;stroke-linejoin:miter;stroke:rgb(0%,0%,0%);stroke-opacity:1;stroke-miterlimit:4;" d="M 60.401042 213.901042 L 52.901042 224.5 " transform="matrix(0.75,0,0,0.75,0,0)"/>
<path style="fill:none;stroke-width:2;stroke-linecap:butt;stroke-linejoin:miter;stroke:rgb(0%,0%,0%);stroke-opacity:1;stroke-miterlimit:4;" d="M 48.302083 224.598958 L 40.598958 223.901042 " transform="matrix(0.75,0,0,0.75,0,0)"/>
<path style="fill:none;stroke-width:2;stroke-linecap:butt;stroke-linejoin:miter;stroke:rgb(100%,0%,0%);stroke-opacity:1;stroke-miterlimit:4;" d="M 40.598958 223.901042 L 32.901042 223.197917 " transform="matrix(0.75,0,0,0.75,0,0)"/>
<path style="fill:none;stroke-width:2;stroke-linecap:butt;stroke-linejoin:miter;stroke:rgb(0%,0%,0%);stroke-opacity:1;stroke-miterlimit:4;" d="M 48.302083 224.598958 L 56 241.401042 " transform="matrix(0.75,0,0,0.75,0,0)"/>
<path style="fill:none;stroke-width:2;stroke-linecap:butt;stroke-linejoin:miter;stroke:rgb(0%,0%,0%);stroke-opacity:1;stroke-miterlimit:4;" d="M 56 241.401042 L 74.5 243.098958 " transform="matrix(0.75,0,0,0.75,0,0)"/>
<path style="fill:none;stroke-width:2;stroke-linecap:butt;stroke-linejoin:miter;stroke:rgb(0%,0%,0%);stroke-opacity:1;stroke-miterlimit:4;" d="M 59.098958 238 L 72.098958 239.197917 " transform="matrix(0.75,0,0,0.75,0,0)"/>
<path style="fill:none;stroke-width:1;stroke-linecap:butt;stroke-linejoin:miter;stroke:rgb(0%,0%,0%);stroke-opacity:1;stroke-miterlimit:4;" d="M 131.5 243.598958 L 130.302083 243.302083 " transform="matrix(0.75,0,0,0.75,0,0)"/>
<path style="fill:none;stroke-width:1;stroke-linecap:butt;stroke-linejoin:miter;stroke:rgb(0%,0%,100%);stroke-opacity:1;stroke-miterlimit:4;" d="M 133.302083 239.098958 L 130.901042 238.5 " transform="matrix(0.75,0,0,0.75,0,0)"/>
<path style="fill:none;stroke-width:1;stroke-linecap:butt;stroke-linejoin:miter;stroke:rgb(0%,0%,100%);stroke-opacity:1;stroke-miterlimit:4;" d="M 135.098958 234.5 L 131.5 233.598958 " transform="matrix(0.75,0,0,0.75,0,0)"/>
<path style="fill:none;stroke-width:2;stroke-linecap:butt;stroke-linejoin:miter;stroke:rgb(0%,0%,100%);stroke-opacity:1;stroke-miterlimit:4;" d="M 136.098958 227 L 139.901042 220.697917 " transform="matrix(0.75,0,0,0.75,0,0)"/>
<path style="fill:none;stroke-width:2;stroke-linecap:butt;stroke-linejoin:miter;stroke:rgb(0%,0%,0%);stroke-opacity:1;stroke-miterlimit:4;" d="M 139.901042 220.697917 L 143.697917 214.401042 " transform="matrix(0.75,0,0,0.75,0,0)"/>
<path style="fill:none;stroke-width:2;stroke-linecap:butt;stroke-linejoin:miter;stroke:rgb(0%,0%,0%);stroke-opacity:1;stroke-miterlimit:4;" d="M 142.697917 215.901042 L 136.401042 211.901042 " transform="matrix(0.75,0,0,0.75,0,0)"/>
<path style="fill:none;stroke-width:2;stroke-linecap:butt;stroke-linejoin:miter;stroke:rgb(100%,0%,0%);stroke-opacity:1;stroke-miterlimit:4;" d="M 136.401042 211.901042 L 130.197917 207.901042 " transform="matrix(0.75,0,0,0.75,0,0)"/>
<path style="fill:none;stroke-width:2;stroke-linecap:butt;stroke-linejoin:miter;stroke:rgb(0%,0%,0%);stroke-opacity:1;stroke-miterlimit:4;" d="M 144.697917 212.802083 L 138.401042 208.802083 " transform="matrix(0.75,0,0,0.75,0,0)"/>
<path style="fill:none;stroke-width:2;stroke-linecap:butt;stroke-linejoin:miter;stroke:rgb(100%,0%,0%);stroke-opacity:1;stroke-miterlimit:4;" d="M 138.401042 208.802083 L 132.098958 204.802083 " transform="matrix(0.75,0,0,0.75,0,0)"/>
<path style="fill:none;stroke-width:2;stroke-linecap:butt;stroke-linejoin:miter;stroke:rgb(0%,0%,0%);stroke-opacity:1;stroke-miterlimit:4;" d="M 143.697917 214.401042 L 157.5 202 " transform="matrix(0.75,0,0,0.75,0,0)"/>
<path style="fill:none;stroke-width:2;stroke-linecap:butt;stroke-linejoin:miter;stroke:rgb(0%,0%,0%);stroke-opacity:1;stroke-miterlimit:4;" d="M 157.5 202 L 145 188.401042 " transform="matrix(0.75,0,0,0.75,0,0)"/>
<path style="fill:none;stroke-width:2;stroke-linecap:butt;stroke-linejoin:miter;stroke:rgb(0%,0%,0%);stroke-opacity:1;stroke-miterlimit:4;" d="M 145 188.401042 L 154 172.302083 " transform="matrix(0.75,0,0,0.75,0,0)"/>
<path style="fill-rule:evenodd;fill:rgb(0%,0%,0%);fill-opacity:1;stroke-width:1;stroke-linecap:butt;stroke-linejoin:miter;stroke:rgb(0%,0%,0%);stroke-opacity:1;stroke-miterlimit:4;" d="M 154 172.302083 L 150.197917 166.197917 L 151.901042 165.401042 Z M 154 172.302083 " transform="matrix(0.75,0,0,0.75,0,0)"/>
<path style="fill-rule:evenodd;fill:rgb(100%,0%,0%);fill-opacity:1;stroke-width:1;stroke-linecap:butt;stroke-linejoin:miter;stroke:rgb(100%,0%,0%);stroke-opacity:1;stroke-miterlimit:4;" d="M 150.197917 166.197917 L 149.802083 158.598958 L 146.401042 160.197917 Z M 150.197917 166.197917 " transform="matrix(0.75,0,0,0.75,0,0)"/>
<path style="fill-rule:evenodd;fill:rgb(100%,0%,0%);fill-opacity:1;stroke-width:1;stroke-linecap:butt;stroke-linejoin:miter;stroke:rgb(100%,0%,0%);stroke-opacity:1;stroke-miterlimit:4;" d="M 150.197917 166.197917 L 151.901042 165.401042 L 149.802083 158.598958 Z M 150.197917 166.197917 " transform="matrix(0.75,0,0,0.75,0,0)"/>
<path style="fill:none;stroke-width:2;stroke-linecap:butt;stroke-linejoin:miter;stroke:rgb(0%,0%,0%);stroke-opacity:1;stroke-miterlimit:4;" d="M 154 172.302083 L 172.197917 175.901042 " transform="matrix(0.75,0,0,0.75,0,0)"/>
<path style="fill:none;stroke-width:2;stroke-linecap:butt;stroke-linejoin:miter;stroke:rgb(0%,0%,0%);stroke-opacity:1;stroke-miterlimit:4;" d="M 172.197917 175.901042 L 173.098958 183.5 " transform="matrix(0.75,0,0,0.75,0,0)"/>
<path style="fill:none;stroke-width:2;stroke-linecap:butt;stroke-linejoin:miter;stroke:rgb(0%,0%,100%);stroke-opacity:1;stroke-miterlimit:4;" d="M 173.098958 183.5 L 173.901042 191 " transform="matrix(0.75,0,0,0.75,0,0)"/>
<path style="fill:none;stroke-width:2;stroke-linecap:butt;stroke-linejoin:miter;stroke:rgb(0%,0%,100%);stroke-opacity:1;stroke-miterlimit:4;" d="M 176.901042 193.901042 L 184.802083 192.901042 " transform="matrix(0.75,0,0,0.75,0,0)"/>
<path style="fill:none;stroke-width:2;stroke-linecap:butt;stroke-linejoin:miter;stroke:rgb(0%,0%,0%);stroke-opacity:1;stroke-miterlimit:4;" d="M 184.802083 192.901042 L 192.697917 191.802083 " transform="matrix(0.75,0,0,0.75,0,0)"/>
<path style="fill:none;stroke-width:2;stroke-linecap:butt;stroke-linejoin:miter;stroke:rgb(0%,0%,0%);stroke-opacity:1;stroke-miterlimit:4;" d="M 190.802083 191.802083 L 191 184.197917 " transform="matrix(0.75,0,0,0.75,0,0)"/>
<path style="fill:none;stroke-width:2;stroke-linecap:butt;stroke-linejoin:miter;stroke:rgb(100%,0%,0%);stroke-opacity:1;stroke-miterlimit:4;" d="M 191 184.197917 L 191.098958 176.598958 " transform="matrix(0.75,0,0,0.75,0,0)"/>
<path style="fill:none;stroke-width:2;stroke-linecap:butt;stroke-linejoin:miter;stroke:rgb(0%,0%,0%);stroke-opacity:1;stroke-miterlimit:4;" d="M 194.5 191.901042 L 194.697917 184.302083 " transform="matrix(0.75,0,0,0.75,0,0)"/>
<path style="fill:none;stroke-width:2;stroke-linecap:butt;stroke-linejoin:miter;stroke:rgb(100%,0%,0%);stroke-opacity:1;stroke-miterlimit:4;" d="M 194.697917 184.302083 L 194.802083 176.697917 " transform="matrix(0.75,0,0,0.75,0,0)"/>
<path style="fill:none;stroke-width:2;stroke-linecap:butt;stroke-linejoin:miter;stroke:rgb(0%,0%,0%);stroke-opacity:1;stroke-miterlimit:4;" d="M 192.697917 191.802083 L 210.901042 194.901042 " transform="matrix(0.75,0,0,0.75,0,0)"/>
<path style="fill:none;stroke-width:2;stroke-linecap:butt;stroke-linejoin:miter;stroke:rgb(0%,0%,0%);stroke-opacity:1;stroke-miterlimit:4;" d="M 210.901042 194.901042 L 216.697917 177.302083 " transform="matrix(0.75,0,0,0.75,0,0)"/>
<path style="fill:none;stroke-width:1;stroke-linecap:butt;stroke-linejoin:miter;stroke:rgb(0%,0%,0%);stroke-opacity:1;stroke-miterlimit:4;" d="M 222.901042 176.598958 L 222.598958 175.401042 " transform="matrix(0.75,0,0,0.75,0,0)"/>
<path style="fill:none;stroke-width:1;stroke-linecap:butt;stroke-linejoin:miter;stroke:rgb(0%,0%,0%);stroke-opacity:1;stroke-miterlimit:4;" d="M 229 176 L 228.5 173.598958 " transform="matrix(0.75,0,0,0.75,0,0)"/>
<path style="fill:none;stroke-width:1;stroke-linecap:butt;stroke-linejoin:miter;stroke:rgb(0%,0%,0%);stroke-opacity:1;stroke-miterlimit:4;" d="M 235.197917 175.302083 L 234.401042 171.697917 " transform="matrix(0.75,0,0,0.75,0,0)"/>
<path style="fill:none;stroke-width:2;stroke-linecap:butt;stroke-linejoin:miter;stroke:rgb(0%,0%,0%);stroke-opacity:1;stroke-miterlimit:4;" d="M 216.697917 177.302083 L 212 172.098958 " transform="matrix(0.75,0,0,0.75,0,0)"/>
<path style="fill:none;stroke-width:2;stroke-linecap:butt;stroke-linejoin:miter;stroke:rgb(100%,0%,0%);stroke-opacity:1;stroke-miterlimit:4;" d="M 212 172.098958 L 207.302083 166.901042 " transform="matrix(0.75,0,0,0.75,0,0)"/>
<path style="fill:none;stroke-width:1;stroke-linecap:butt;stroke-linejoin:miter;stroke:rgb(0%,0%,0%);stroke-opacity:1;stroke-miterlimit:4;" d="M 215.098958 197.697917 L 215.697917 196.598958 " transform="matrix(0.75,0,0,0.75,0,0)"/>
<path style="fill:none;stroke-width:1;stroke-linecap:butt;stroke-linejoin:miter;stroke:rgb(0%,0%,100%);stroke-opacity:1;stroke-miterlimit:4;" d="M 219.302083 200.5 L 220.401042 198.302083 " transform="matrix(0.75,0,0,0.75,0,0)"/>
<path style="fill:none;stroke-width:1;stroke-linecap:butt;stroke-linejoin:miter;stroke:rgb(0%,0%,100%);stroke-opacity:1;stroke-miterlimit:4;" d="M 223.401042 203.302083 L 225.098958 199.901042 " transform="matrix(0.75,0,0,0.75,0,0)"/>
<path style="fill:none;stroke-width:2;stroke-linecap:butt;stroke-linejoin:miter;stroke:rgb(0%,0%,100%);stroke-opacity:1;stroke-miterlimit:4;" d="M 230.802083 206.401042 L 235.802083 211.197917 " transform="matrix(0.75,0,0,0.75,0,0)"/>
<path style="fill:none;stroke-width:2;stroke-linecap:butt;stroke-linejoin:miter;stroke:rgb(0%,0%,0%);stroke-opacity:1;stroke-miterlimit:4;" d="M 235.802083 211.197917 L 240.802083 216 " transform="matrix(0.75,0,0,0.75,0,0)"/>
<path style="fill:none;stroke-width:2;stroke-linecap:butt;stroke-linejoin:miter;stroke:rgb(0%,0%,0%);stroke-opacity:1;stroke-miterlimit:4;" d="M 239.697917 214.598958 L 245.5 210.098958 " transform="matrix(0.75,0,0,0.75,0,0)"/>
<path style="fill:none;stroke-width:2;stroke-linecap:butt;stroke-linejoin:miter;stroke:rgb(100%,0%,0%);stroke-opacity:1;stroke-miterlimit:4;" d="M 245.5 210.098958 L 251.302083 205.598958 " transform="matrix(0.75,0,0,0.75,0,0)"/>
<path style="fill:none;stroke-width:2;stroke-linecap:butt;stroke-linejoin:miter;stroke:rgb(0%,0%,0%);stroke-opacity:1;stroke-miterlimit:4;" d="M 242 217.5 L 247.802083 213 " transform="matrix(0.75,0,0,0.75,0,0)"/>
<path style="fill:none;stroke-width:2;stroke-linecap:butt;stroke-linejoin:miter;stroke:rgb(100%,0%,0%);stroke-opacity:1;stroke-miterlimit:4;" d="M 247.802083 213 L 253.598958 208.5 " transform="matrix(0.75,0,0,0.75,0,0)"/>
<path style="fill:none;stroke-width:2;stroke-linecap:butt;stroke-linejoin:miter;stroke:rgb(0%,0%,0%);stroke-opacity:1;stroke-miterlimit:4;" d="M 240.802083 216 L 249.802083 232.197917 " transform="matrix(0.75,0,0,0.75,0,0)"/>
<path style="fill:none;stroke-width:2;stroke-linecap:butt;stroke-linejoin:miter;stroke:rgb(0%,0%,100%);stroke-opacity:1;stroke-miterlimit:4;" d="M 183.901042 315.197917 L 191.901042 315.302083 " transform="matrix(0.75,0,0,0.75,0,0)"/>
<path style="fill:none;stroke-width:2;stroke-linecap:butt;stroke-linejoin:miter;stroke:rgb(0%,0%,0%);stroke-opacity:1;stroke-miterlimit:4;" d="M 191.901042 315.302083 L 199.802083 315.5 " transform="matrix(0.75,0,0,0.75,0,0)"/>
<path style="fill:none;stroke-width:2;stroke-linecap:butt;stroke-linejoin:miter;stroke:rgb(0%,0%,0%);stroke-opacity:1;stroke-miterlimit:4;" d="M 74.5 243.098958 L 85.197917 228 " transform="matrix(0.75,0,0,0.75,0,0)"/>
<path style="fill:none;stroke-width:2;stroke-linecap:butt;stroke-linejoin:miter;stroke:rgb(0%,0%,100%);stroke-opacity:1;stroke-miterlimit:4;" d="M 171.697917 195.5 L 164.598958 198.697917 " transform="matrix(0.75,0,0,0.75,0,0)"/>
<path style="fill:none;stroke-width:2;stroke-linecap:butt;stroke-linejoin:miter;stroke:rgb(0%,0%,0%);stroke-opacity:1;stroke-miterlimit:4;" d="M 164.598958 198.697917 L 157.5 202 " transform="matrix(0.75,0,0,0.75,0,0)"/>
<path style="fill-rule:evenodd;fill:rgb(0%,0%,0%);fill-opacity:1;stroke-width:1;stroke-linecap:butt;stroke-linejoin:miter;stroke:rgb(0%,0%,0%);stroke-opacity:1;stroke-miterlimit:4;" d="M 199.802083 315.5 L 212.697917 322.401042 L 210.598958 325.401042 Z M 199.802083 315.5 " transform="matrix(0.75,0,0,0.75,0,0)"/>
<path style="fill-rule:evenodd;fill:rgb(0%,0%,0%);fill-opacity:1;stroke-width:1;stroke-linecap:butt;stroke-linejoin:miter;stroke:rgb(0%,0%,0%);stroke-opacity:1;stroke-miterlimit:4;" d="M 157.5 202 L 142.197917 201.302083 L 142.901042 197.598958 Z M 157.5 202 " transform="matrix(0.75,0,0,0.75,0,0)"/>
<path style=" stroke:none;fill-rule:nonzero;fill:rgb(100%,0%,0%);fill-opacity:1;" d="M 206.925781 191.851562 C 206.925781 191.25 207.101562 190.773438 207.449219 190.425781 C 207.75 190.023438 208.175781 189.824219 208.726562 189.824219 C 209.324219 189.824219 209.773438 190.023438 210.074219 190.425781 C 210.425781 190.773438 210.601562 191.25 210.601562 191.851562 C 210.601562 192.5 210.425781 193 210.074219 193.351562 C 209.773438 193.699219 209.324219 193.875 208.726562 193.875 C 208.175781 193.875 207.75 193.699219 207.449219 193.351562 C 207.101562 193 206.925781 192.5 206.925781 191.851562 M 208.726562 193.425781 C 209.125 193.425781 209.449219 193.300781 209.699219 193.050781 C 209.898438 192.800781 210 192.398438 210 191.851562 C 210 191.351562 209.898438 190.976562 209.699219 190.726562 C 209.449219 190.425781 209.125 190.273438 208.726562 190.273438 C 208.324219 190.273438 208.023438 190.425781 207.824219 190.726562 C 207.625 190.976562 207.523438 191.351562 207.523438 191.851562 C 207.523438 192.398438 207.625 192.800781 207.824219 193.050781 C 208.023438 193.300781 208.324219 193.425781 208.726562 193.425781 "/>
<path style=" stroke:none;fill-rule:nonzero;fill:rgb(0%,0%,100%);fill-opacity:1;" d="M 199.5 167.324219 L 200.773438 169.425781 C 200.875 169.574219 201 169.773438 201.148438 170.023438 C 201.25 170.273438 201.300781 170.398438 201.300781 170.398438 L 201.300781 167.324219 L 201.824219 167.324219 L 201.824219 171.300781 L 201.300781 171.300781 L 199.949219 168.976562 C 199.851562 168.824219 199.726562 168.648438 199.574219 168.449219 C 199.476562 168.25 199.398438 168.101562 199.351562 168 L 199.351562 171.300781 L 198.898438 171.300781 L 198.898438 167.324219 L 199.5 167.324219 "/>
<path style=" stroke:none;fill-rule:nonzero;fill:rgb(0%,0%,100%);fill-opacity:1;" d="M 198.824219 163.050781 L 199.351562 163.050781 L 199.351562 164.699219 L 201.375 164.699219 L 201.375 163.050781 L 201.898438 163.050781 L 201.898438 166.949219 L 201.375 166.949219 L 201.375 165.148438 L 199.351562 165.148438 L 199.351562 166.949219 L 198.824219 166.949219 L 198.824219 163.050781 "/>
<path style=" stroke:none;fill-rule:nonzero;fill:rgb(0%,0%,0%);fill-opacity:1;" d="M 188.699219 187.800781 C 188.699219 187.148438 188.851562 186.648438 189.148438 186.300781 C 189.449219 185.949219 189.898438 185.773438 190.5 185.773438 C 191.050781 185.773438 191.449219 185.949219 191.699219 186.300781 L 191.324219 186.601562 C 191.125 186.351562 190.851562 186.226562 190.5 186.226562 C 190.101562 186.226562 189.800781 186.351562 189.601562 186.601562 C 189.351562 186.898438 189.226562 187.300781 189.226562 187.800781 C 189.226562 188.300781 189.351562 188.675781 189.601562 188.925781 C 189.800781 189.226562 190.125 189.375 190.574219 189.375 C 190.824219 189.375 191.125 189.273438 191.476562 189.074219 L 191.625 189.523438 C 191.476562 189.574219 191.300781 189.648438 191.101562 189.75 C 190.898438 189.800781 190.699219 189.824219 190.5 189.824219 C 189.898438 189.824219 189.449219 189.648438 189.148438 189.300781 C 188.851562 188.949219 188.699219 188.449219 188.699219 187.800781 "/>
<path style=" stroke:none;fill-rule:nonzero;fill:rgb(100%,0%,0%);fill-opacity:1;" d="M 200.625 204.898438 C 200.625 204.300781 200.773438 203.824219 201.074219 203.476562 C 201.375 203.074219 201.824219 202.875 202.425781 202.875 C 202.976562 202.875 203.425781 203.074219 203.773438 203.476562 C 204.074219 203.824219 204.226562 204.300781 204.226562 204.898438 C 204.226562 205.550781 204.074219 206.050781 203.773438 206.398438 C 203.425781 206.75 202.976562 206.925781 202.425781 206.925781 C 201.824219 206.925781 201.375 206.75 201.074219 206.398438 C 200.773438 206.050781 200.625 205.550781 200.625 204.898438 M 202.425781 206.476562 C 202.824219 206.476562 203.125 206.351562 203.324219 206.101562 C 203.574219 205.851562 203.699219 205.449219 203.699219 204.898438 C 203.699219 204.398438 203.574219 204.023438 203.324219 203.773438 C 203.125 203.476562 202.824219 203.324219 202.425781 203.324219 C 202.023438 203.324219 201.699219 203.476562 201.449219 203.773438 C 201.25 204.023438 201.148438 204.398438 201.148438 204.898438 C 201.148438 205.449219 201.25 205.851562 201.449219 206.101562 C 201.699219 206.351562 202.023438 206.476562 202.425781 206.476562 "/>
<path style=" stroke:none;fill-rule:nonzero;fill:rgb(100%,0%,0%);fill-opacity:1;" d="M 204.523438 202.949219 L 205.050781 202.949219 L 205.050781 204.601562 L 207.074219 204.601562 L 207.074219 202.949219 L 207.601562 202.949219 L 207.601562 206.851562 L 207.074219 206.851562 L 207.074219 205.050781 L 205.050781 205.050781 L 205.050781 206.851562 L 204.523438 206.851562 L 204.523438 202.949219 "/>
<path style=" stroke:none;fill-rule:nonzero;fill:rgb(0%,0%,100%);fill-opacity:1;" d="M 194.699219 219.601562 L 195.976562 221.699219 C 196.074219 221.800781 196.175781 221.976562 196.273438 222.226562 C 196.425781 222.476562 196.5 222.625 196.5 222.675781 L 196.5 219.601562 L 197.023438 219.601562 L 197.023438 223.5 L 196.5 223.5 L 195.074219 221.25 C 194.976562 221.050781 194.875 220.851562 194.773438 220.648438 C 194.675781 220.449219 194.601562 220.324219 194.550781 220.273438 L 194.550781 223.5 L 194.023438 223.5 L 194.023438 219.601562 L 194.699219 219.601562 "/>
<path style=" stroke:none;fill-rule:nonzero;fill:rgb(0%,0%,100%);fill-opacity:1;" d="M 197.476562 219.601562 L 198 219.601562 L 198 221.25 L 200.023438 221.25 L 200.023438 219.601562 L 200.550781 219.601562 L 200.550781 223.5 L 200.023438 223.5 L 200.023438 221.699219 L 198 221.699219 L 198 223.5 L 197.476562 223.5 L 197.476562 219.601562 "/>
<path style=" stroke:none;fill-rule:nonzero;fill:rgb(0%,0%,100%);fill-opacity:1;" d="M 206.101562 254.476562 L 207.375 256.574219 C 207.476562 256.726562 207.601562 256.925781 207.75 257.175781 C 207.851562 257.425781 207.898438 257.550781 207.898438 257.550781 L 207.898438 254.476562 L 208.425781 254.476562 L 208.425781 258.449219 L 207.898438 258.449219 L 206.550781 256.125 C 206.449219 255.976562 206.324219 255.800781 206.175781 255.601562 C 206.074219 255.398438 206 255.25 205.949219 255.148438 L 205.949219 258.449219 L 205.5 258.449219 L 205.5 254.476562 L 206.101562 254.476562 "/>
<path style=" stroke:none;fill-rule:nonzero;fill:rgb(0%,0%,100%);fill-opacity:1;" d="M 208.949219 254.476562 L 209.476562 254.476562 L 209.476562 256.199219 L 211.425781 256.199219 L 211.425781 254.476562 L 212.023438 254.476562 L 212.023438 258.449219 L 211.425781 258.449219 L 211.425781 256.648438 L 209.476562 256.648438 L 209.476562 258.449219 L 208.949219 258.449219 L 208.949219 254.476562 "/>
<path style=" stroke:none;fill-rule:nonzero;fill:rgb(0%,0%,100%);fill-opacity:1;" d="M 212.476562 258.300781 C 212.523438 258.148438 212.625 258.023438 212.773438 257.925781 C 212.925781 257.824219 213.125 257.773438 213.375 257.773438 C 213.625 257.773438 213.824219 257.851562 213.976562 258 C 214.125 258.148438 214.199219 258.351562 214.199219 258.601562 C 214.199219 258.851562 214.101562 259.101562 213.898438 259.351562 C 213.699219 259.550781 213.398438 259.800781 213 260.101562 L 214.199219 260.101562 L 214.199219 260.398438 L 212.476562 260.398438 L 212.476562 260.175781 C 212.773438 259.925781 213.023438 259.726562 213.226562 259.574219 C 213.425781 259.375 213.574219 259.199219 213.675781 259.050781 C 213.773438 258.898438 213.824219 258.75 213.824219 258.601562 C 213.824219 258.449219 213.773438 258.324219 213.675781 258.226562 C 213.574219 258.125 213.476562 258.074219 213.375 258.074219 C 213.226562 258.074219 213.101562 258.101562 213 258.148438 C 212.898438 258.199219 212.824219 258.300781 212.773438 258.449219 L 212.476562 258.300781 "/>
<path style=" stroke:none;fill-rule:nonzero;fill:rgb(0%,0%,100%);fill-opacity:1;" d="M 173.925781 223.125 L 175.199219 225.226562 C 175.300781 225.375 175.425781 225.574219 175.574219 225.824219 C 175.675781 226.074219 175.75 226.199219 175.800781 226.199219 L 175.800781 223.125 L 176.324219 223.125 L 176.324219 227.101562 L 175.726562 227.101562 L 174.375 224.773438 C 174.273438 224.625 174.148438 224.449219 174 224.25 C 173.898438 224.050781 173.851562 223.898438 173.851562 223.800781 L 173.851562 227.101562 L 173.324219 227.101562 L 173.324219 223.125 L 173.925781 223.125 "/>
<path style=" stroke:none;fill-rule:nonzero;fill:rgb(0%,0%,100%);fill-opacity:1;" d="M 176.773438 223.125 L 177.300781 223.125 L 177.300781 224.851562 L 179.324219 224.851562 L 179.324219 223.125 L 179.851562 223.125 L 179.851562 227.101562 L 179.324219 227.101562 L 179.324219 225.300781 L 177.300781 225.300781 L 177.300781 227.101562 L 176.773438 227.101562 L 176.773438 223.125 "/>
<path style=" stroke:none;fill-rule:nonzero;fill:rgb(100%,0%,0%);fill-opacity:1;" d="M 168.675781 244.574219 C 168.675781 243.925781 168.824219 243.425781 169.125 243.074219 C 169.476562 242.726562 169.925781 242.550781 170.476562 242.550781 C 171.074219 242.550781 171.523438 242.726562 171.824219 243.074219 C 172.125 243.425781 172.273438 243.925781 172.273438 244.574219 C 172.273438 245.226562 172.125 245.726562 171.824219 246.074219 C 171.523438 246.425781 171.074219 246.601562 170.476562 246.601562 C 169.925781 246.601562 169.476562 246.425781 169.125 246.074219 C 168.824219 245.726562 168.675781 245.226562 168.675781 244.574219 M 170.476562 246.148438 C 170.875 246.148438 171.199219 246.023438 171.449219 245.773438 C 171.648438 245.476562 171.75 245.074219 171.75 244.574219 C 171.75 244.023438 171.648438 243.625 171.449219 243.375 C 171.199219 243.125 170.875 243 170.476562 243 C 170.074219 243 169.773438 243.125 169.574219 243.375 C 169.375 243.625 169.273438 244.023438 169.273438 244.574219 C 169.273438 245.074219 169.375 245.476562 169.574219 245.773438 C 169.773438 246.023438 170.074219 246.148438 170.476562 246.148438 "/>
<path style=" stroke:none;fill-rule:nonzero;fill:rgb(100%,0%,0%);fill-opacity:1;" d="M 165.226562 254.398438 C 165.226562 253.75 165.375 253.25 165.675781 252.898438 C 166.023438 252.550781 166.476562 252.375 167.023438 252.375 C 167.625 252.375 168.074219 252.550781 168.375 252.898438 C 168.675781 253.25 168.824219 253.75 168.824219 254.398438 C 168.824219 255.050781 168.675781 255.550781 168.375 255.898438 C 168.074219 256.25 167.625 256.425781 167.023438 256.425781 C 166.476562 256.425781 166.023438 256.25 165.675781 255.898438 C 165.375 255.550781 165.226562 255.050781 165.226562 254.398438 M 167.023438 255.976562 C 167.425781 255.976562 167.75 255.851562 168 255.601562 C 168.199219 255.351562 168.300781 254.949219 168.300781 254.398438 C 168.300781 253.898438 168.199219 253.523438 168 253.273438 C 167.75 252.976562 167.425781 252.824219 167.023438 252.824219 C 166.625 252.824219 166.324219 252.976562 166.125 253.273438 C 165.925781 253.523438 165.824219 253.898438 165.824219 254.398438 C 165.824219 254.949219 165.925781 255.351562 166.125 255.601562 C 166.324219 255.851562 166.625 255.976562 167.023438 255.976562 "/>
<path style=" stroke:none;fill-rule:nonzero;fill:rgb(100%,0%,0%);fill-opacity:1;" d="M 169.125 252.449219 L 169.648438 252.449219 L 169.648438 254.101562 L 171.675781 254.101562 L 171.675781 252.449219 L 172.199219 252.449219 L 172.199219 256.351562 L 171.675781 256.351562 L 171.675781 254.550781 L 169.648438 254.550781 L 169.648438 256.351562 L 169.125 256.351562 L 169.125 252.449219 "/>
<path style=" stroke:none;fill-rule:nonzero;fill:rgb(0%,0%,100%);fill-opacity:1;" d="M 135.074219 234.375 L 136.425781 236.476562 C 136.476562 236.625 136.574219 236.824219 136.726562 237.074219 C 136.875 237.324219 136.949219 237.449219 136.949219 237.449219 L 136.949219 234.375 L 137.476562 234.375 L 137.476562 238.351562 L 136.949219 238.351562 L 135.523438 236.023438 C 135.425781 235.875 135.324219 235.699219 135.226562 235.5 C 135.125 235.300781 135.050781 235.148438 135 235.050781 L 135 238.351562 L 134.476562 238.351562 L 134.476562 234.375 L 135.074219 234.375 "/>
<path style=" stroke:none;fill-rule:nonzero;fill:rgb(100%,0%,0%);fill-opacity:1;" d="M 114.75 244.425781 C 114.75 243.824219 114.898438 243.351562 115.199219 243 C 115.5 242.648438 115.949219 242.476562 116.550781 242.476562 C 117.148438 242.476562 117.601562 242.648438 117.898438 243 C 118.199219 243.351562 118.351562 243.824219 118.351562 244.425781 C 118.351562 245.074219 118.199219 245.574219 117.898438 245.925781 C 117.550781 246.324219 117.101562 246.523438 116.550781 246.523438 C 115.949219 246.523438 115.5 246.324219 115.199219 245.925781 C 114.898438 245.574219 114.75 245.074219 114.75 244.425781 M 116.550781 246.074219 C 116.949219 246.074219 117.25 245.925781 117.449219 245.625 C 117.699219 245.375 117.824219 244.976562 117.824219 244.425781 C 117.824219 243.925781 117.699219 243.550781 117.449219 243.300781 C 117.25 243.050781 116.949219 242.925781 116.550781 242.925781 C 116.148438 242.925781 115.851562 243.050781 115.648438 243.300781 C 115.398438 243.550781 115.273438 243.925781 115.273438 244.425781 C 115.273438 244.976562 115.398438 245.375 115.648438 245.625 C 115.851562 245.925781 116.148438 246.074219 116.550781 246.074219 "/>
<path style=" stroke:none;fill-rule:nonzero;fill:rgb(100%,0%,0%);fill-opacity:1;" d="M 103.875 247.351562 C 103.875 246.75 104.023438 246.273438 104.324219 245.925781 C 104.675781 245.574219 105.125 245.398438 105.675781 245.398438 C 106.273438 245.398438 106.726562 245.574219 107.023438 245.925781 C 107.324219 246.273438 107.476562 246.75 107.476562 247.351562 C 107.476562 248 107.324219 248.5 107.023438 248.851562 C 106.726562 249.25 106.273438 249.449219 105.675781 249.449219 C 105.125 249.449219 104.675781 249.25 104.324219 248.851562 C 104.023438 248.5 103.875 248 103.875 247.351562 M 105.675781 249 C 106.074219 249 106.398438 248.851562 106.648438 248.550781 C 106.851562 248.300781 106.949219 247.898438 106.949219 247.351562 C 106.949219 246.851562 106.851562 246.476562 106.648438 246.226562 C 106.398438 245.976562 106.074219 245.851562 105.675781 245.851562 C 105.273438 245.851562 104.976562 245.976562 104.773438 246.226562 C 104.574219 246.476562 104.476562 246.851562 104.476562 247.351562 C 104.476562 247.898438 104.574219 248.300781 104.773438 248.550781 C 104.976562 248.851562 105.273438 249 105.675781 249 "/>
<path style=" stroke:none;fill-rule:nonzero;fill:rgb(100%,0%,0%);fill-opacity:1;" d="M 107.773438 245.398438 L 108.300781 245.398438 L 108.300781 247.125 L 110.324219 247.125 L 110.324219 245.398438 L 110.851562 245.398438 L 110.851562 249.375 L 110.324219 249.375 L 110.324219 247.574219 L 108.300781 247.574219 L 108.300781 249.375 L 107.773438 249.375 L 107.773438 245.398438 "/>
<path style=" stroke:none;fill-rule:nonzero;fill:rgb(0%,0%,100%);fill-opacity:1;" d="M 58.273438 235.425781 L 58.800781 235.425781 L 58.800781 237.148438 L 60.824219 237.148438 L 60.824219 235.425781 L 61.351562 235.425781 L 61.351562 239.398438 L 60.824219 239.398438 L 60.824219 237.523438 L 58.800781 237.523438 L 58.800781 239.398438 L 58.273438 239.398438 L 58.273438 235.425781 "/>
<path style=" stroke:none;fill-rule:nonzero;fill:rgb(0%,0%,100%);fill-opacity:1;" d="M 61.800781 239.25 C 61.851562 239.101562 61.949219 238.976562 62.101562 238.875 C 62.25 238.773438 62.449219 238.726562 62.699219 238.726562 C 62.949219 238.726562 63.148438 238.800781 63.300781 238.949219 C 63.449219 239.101562 63.523438 239.300781 63.523438 239.550781 C 63.523438 239.800781 63.425781 240.050781 63.226562 240.300781 C 63.023438 240.5 62.726562 240.75 62.324219 241.050781 L 63.523438 241.050781 L 63.523438 241.351562 L 61.800781 241.351562 L 61.800781 241.125 C 62.101562 240.875 62.351562 240.675781 62.550781 240.523438 C 62.75 240.324219 62.898438 240.148438 63 240 C 63.101562 239.851562 63.148438 239.699219 63.148438 239.550781 C 63.148438 239.398438 63.101562 239.273438 63 239.175781 C 62.898438 239.074219 62.800781 239.023438 62.699219 239.023438 C 62.550781 239.023438 62.425781 239.050781 62.324219 239.101562 C 62.226562 239.148438 62.148438 239.25 62.101562 239.398438 L 61.800781 239.25 "/>
<path style=" stroke:none;fill-rule:nonzero;fill:rgb(0%,0%,100%);fill-opacity:1;" d="M 64.351562 235.425781 L 65.699219 237.523438 C 65.75 237.675781 65.851562 237.875 66 238.125 C 66.148438 238.375 66.226562 238.5 66.226562 238.5 L 66.226562 235.425781 L 66.75 235.425781 L 66.75 239.398438 L 66.226562 239.398438 L 64.800781 237.074219 C 64.699219 236.925781 64.601562 236.75 64.5 236.550781 C 64.398438 236.351562 64.324219 236.199219 64.273438 236.101562 L 64.273438 239.398438 L 63.75 239.398438 L 63.75 235.425781 L 64.351562 235.425781 "/>
<path style=" stroke:none;fill-rule:nonzero;fill:rgb(0%,0%,100%);fill-opacity:1;" d="M 97.949219 211.050781 L 98.476562 211.050781 L 98.476562 212.699219 L 100.5 212.699219 L 100.5 211.050781 L 101.023438 211.050781 L 101.023438 215.023438 L 100.5 215.023438 L 100.5 213.148438 L 98.476562 213.148438 L 98.476562 215.023438 L 97.949219 215.023438 L 97.949219 211.050781 "/>
<path style=" stroke:none;fill-rule:nonzero;fill:rgb(0%,0%,100%);fill-opacity:1;" d="M 102.074219 211.050781 L 103.425781 213.148438 C 103.476562 213.300781 103.574219 213.5 103.726562 213.75 C 103.875 214 103.949219 214.125 103.949219 214.125 L 103.949219 211.050781 L 104.476562 211.050781 L 104.476562 215.023438 L 103.949219 215.023438 L 102.523438 212.699219 C 102.425781 212.550781 102.324219 212.375 102.226562 212.175781 C 102.125 211.925781 102.050781 211.773438 102 211.726562 L 102 215.023438 L 101.476562 215.023438 L 101.476562 211.050781 L 102.074219 211.050781 "/>
<path style=" stroke:none;fill-rule:nonzero;fill:rgb(100%,0%,0%);fill-opacity:1;" d="M 82.726562 202.875 C 82.726562 202.273438 82.875 201.773438 83.175781 201.375 C 83.523438 201.023438 83.976562 200.851562 84.523438 200.851562 C 85.125 200.851562 85.574219 201.023438 85.875 201.375 C 86.175781 201.773438 86.324219 202.273438 86.324219 202.875 C 86.324219 203.523438 86.175781 204.023438 85.875 204.375 C 85.574219 204.726562 85.125 204.898438 84.523438 204.898438 C 83.976562 204.898438 83.523438 204.726562 83.175781 204.375 C 82.875 204.023438 82.726562 203.523438 82.726562 202.875 M 84.523438 204.449219 C 84.925781 204.449219 85.25 204.324219 85.5 204.074219 C 85.699219 203.824219 85.800781 203.425781 85.800781 202.875 C 85.800781 202.375 85.699219 202 85.5 201.75 C 85.25 201.449219 84.925781 201.300781 84.523438 201.300781 C 84.125 201.300781 83.824219 201.449219 83.625 201.75 C 83.425781 202 83.324219 202.375 83.324219 202.875 C 83.324219 203.425781 83.425781 203.824219 83.625 204.074219 C 83.824219 204.324219 84.125 204.449219 84.523438 204.449219 "/>
<path style=" stroke:none;fill-rule:nonzero;fill:rgb(100%,0%,0%);fill-opacity:1;" d="M 70.125 194.25 L 70.648438 194.25 L 70.648438 195.976562 L 72.675781 195.976562 L 72.675781 194.25 L 73.199219 194.25 L 73.199219 198.226562 L 72.675781 198.226562 L 72.675781 196.351562 L 70.648438 196.351562 L 70.648438 198.226562 L 70.125 198.226562 L 70.125 194.25 "/>
<path style=" stroke:none;fill-rule:nonzero;fill:rgb(100%,0%,0%);fill-opacity:1;" d="M 73.648438 196.199219 C 73.648438 195.601562 73.824219 195.125 74.175781 194.773438 C 74.476562 194.425781 74.925781 194.25 75.523438 194.25 C 76.074219 194.25 76.5 194.425781 76.800781 194.773438 C 77.148438 195.125 77.324219 195.601562 77.324219 196.199219 C 77.324219 196.851562 77.148438 197.351562 76.800781 197.699219 C 76.5 198.101562 76.074219 198.300781 75.523438 198.300781 C 74.925781 198.300781 74.476562 198.101562 74.175781 197.699219 C 73.824219 197.351562 73.648438 196.851562 73.648438 196.199219 M 75.523438 197.851562 C 75.925781 197.851562 76.226562 197.699219 76.425781 197.398438 C 76.625 197.148438 76.726562 196.75 76.726562 196.199219 C 76.726562 195.699219 76.625 195.324219 76.425781 195.074219 C 76.226562 194.824219 75.925781 194.699219 75.523438 194.699219 C 75.125 194.699219 74.800781 194.824219 74.550781 195.074219 C 74.351562 195.324219 74.25 195.699219 74.25 196.199219 C 74.25 196.75 74.351562 197.148438 74.550781 197.398438 C 74.800781 197.699219 75.125 197.851562 75.523438 197.851562 "/>
<path style=" stroke:none;fill-rule:nonzero;fill:rgb(100%,0%,0%);fill-opacity:1;" d="M 83.925781 160.949219 C 83.925781 160.300781 84.074219 159.800781 84.375 159.449219 C 84.675781 159.101562 85.125 158.925781 85.726562 158.925781 C 86.273438 158.925781 86.726562 159.101562 87.074219 159.449219 C 87.375 159.800781 87.523438 160.300781 87.523438 160.949219 C 87.523438 161.601562 87.375 162.101562 87.074219 162.449219 C 86.726562 162.800781 86.273438 162.976562 85.726562 162.976562 C 85.125 162.976562 84.675781 162.800781 84.375 162.449219 C 84.074219 162.101562 83.925781 161.601562 83.925781 160.949219 M 85.726562 162.523438 C 86.125 162.523438 86.425781 162.398438 86.625 162.148438 C 86.875 161.851562 87 161.449219 87 160.949219 C 87 160.449219 86.875 160.050781 86.625 159.75 C 86.425781 159.5 86.125 159.375 85.726562 159.375 C 85.324219 159.375 85.023438 159.5 84.824219 159.75 C 84.574219 160.050781 84.449219 160.449219 84.449219 160.949219 C 84.449219 161.5 84.574219 161.898438 84.824219 162.148438 C 85.023438 162.398438 85.324219 162.523438 85.726562 162.523438 "/>
<path style=" stroke:none;fill-rule:nonzero;fill:rgb(100%,0%,0%);fill-opacity:1;" d="M 87.824219 159 L 88.351562 159 L 88.351562 160.648438 L 90.375 160.648438 L 90.375 159 L 90.898438 159 L 90.898438 162.898438 L 90.375 162.898438 L 90.375 161.101562 L 88.351562 161.101562 L 88.351562 162.898438 L 87.824219 162.898438 L 87.824219 159 "/>
<path style=" stroke:none;fill-rule:nonzero;fill:rgb(100%,0%,0%);fill-opacity:1;" d="M 17.023438 165.226562 L 17.550781 165.226562 L 17.550781 166.875 L 19.574219 166.875 L 19.574219 165.226562 L 20.101562 165.226562 L 20.101562 169.125 L 19.574219 169.125 L 19.574219 167.324219 L 17.550781 167.324219 L 17.550781 169.125 L 17.023438 169.125 L 17.023438 165.226562 "/>
<path style=" stroke:none;fill-rule:nonzero;fill:rgb(100%,0%,0%);fill-opacity:1;" d="M 20.625 167.175781 C 20.625 166.523438 20.773438 166.023438 21.074219 165.675781 C 21.375 165.324219 21.824219 165.148438 22.425781 165.148438 C 22.976562 165.148438 23.398438 165.324219 23.699219 165.675781 C 24.050781 166.023438 24.226562 166.523438 24.226562 167.175781 C 24.226562 167.824219 24.050781 168.324219 23.699219 168.675781 C 23.398438 169.023438 22.976562 169.199219 22.425781 169.199219 C 21.824219 169.199219 21.375 169.023438 21.074219 168.675781 C 20.773438 168.324219 20.625 167.824219 20.625 167.175781 M 22.425781 168.75 C 22.824219 168.75 23.125 168.625 23.324219 168.375 C 23.523438 168.125 23.625 167.726562 23.625 167.175781 C 23.625 166.675781 23.523438 166.300781 23.324219 166.050781 C 23.125 165.75 22.824219 165.601562 22.425781 165.601562 C 22.023438 165.601562 21.699219 165.75 21.449219 166.050781 C 21.25 166.300781 21.148438 166.675781 21.148438 167.175781 C 21.148438 167.726562 21.25 168.125 21.449219 168.375 C 21.699219 168.625 22.023438 168.75 22.425781 168.75 "/>
<path style=" stroke:none;fill-rule:nonzero;fill:rgb(0%,0%,100%);fill-opacity:1;" d="M 95.625 170.699219 L 96.148438 170.699219 L 96.148438 172.351562 L 98.175781 172.351562 L 98.175781 170.699219 L 98.699219 170.699219 L 98.699219 174.675781 L 98.175781 174.675781 L 98.175781 172.800781 L 96.148438 172.800781 L 96.148438 174.675781 L 95.625 174.675781 L 95.625 170.699219 "/>
<path style=" stroke:none;fill-rule:nonzero;fill:rgb(0%,0%,100%);fill-opacity:1;" d="M 99.75 170.699219 L 101.101562 172.800781 C 101.148438 172.949219 101.25 173.148438 101.398438 173.398438 C 101.550781 173.648438 101.625 173.773438 101.625 173.773438 L 101.625 170.699219 L 102.148438 170.699219 L 102.148438 174.675781 L 101.625 174.675781 L 100.199219 172.351562 C 100.101562 172.199219 100 172.023438 99.898438 171.824219 C 99.800781 171.574219 99.726562 171.425781 99.675781 171.375 L 99.675781 174.675781 L 99.148438 174.675781 L 99.148438 170.699219 L 99.75 170.699219 "/>
<path style=" stroke:none;fill-rule:nonzero;fill:rgb(100%,0%,0%);fill-opacity:1;" d="M 94.273438 153.300781 C 94.273438 152.699219 94.425781 152.226562 94.726562 151.875 C 95.074219 151.523438 95.523438 151.351562 96.074219 151.351562 C 96.675781 151.351562 97.125 151.523438 97.425781 151.875 C 97.726562 152.226562 97.875 152.699219 97.875 153.300781 C 97.875 153.949219 97.726562 154.449219 97.425781 154.800781 C 97.125 155.148438 96.675781 155.324219 96.074219 155.324219 C 95.523438 155.324219 95.074219 155.148438 94.726562 154.800781 C 94.425781 154.449219 94.273438 153.949219 94.273438 153.300781 M 96.074219 154.875 C 96.476562 154.875 96.800781 154.75 97.050781 154.5 C 97.25 154.25 97.351562 153.851562 97.351562 153.300781 C 97.351562 152.800781 97.25 152.425781 97.050781 152.175781 C 96.800781 151.875 96.476562 151.726562 96.074219 151.726562 C 95.675781 151.726562 95.375 151.875 95.175781 152.175781 C 94.976562 152.425781 94.875 152.800781 94.875 153.300781 C 94.875 153.851562 94.976562 154.25 95.175781 154.5 C 95.375 154.75 95.675781 154.875 96.074219 154.875 "/>
<path style=" stroke:none;fill-rule:nonzero;fill:rgb(100%,0%,0%);fill-opacity:1;" d="M 104.324219 114.675781 L 104.851562 114.675781 L 104.851562 116.324219 L 106.875 116.324219 L 106.875 114.675781 L 107.398438 114.675781 L 107.398438 118.574219 L 106.875 118.574219 L 106.875 116.773438 L 104.851562 116.773438 L 104.851562 118.574219 L 104.324219 118.574219 L 104.324219 114.675781 "/>
<path style=" stroke:none;fill-rule:nonzero;fill:rgb(100%,0%,0%);fill-opacity:1;" d="M 107.925781 116.625 C 107.925781 115.976562 108.074219 115.476562 108.375 115.125 C 108.675781 114.773438 109.125 114.601562 109.726562 114.601562 C 110.273438 114.601562 110.699219 114.773438 111 115.125 C 111.351562 115.476562 111.523438 115.976562 111.523438 116.625 C 111.523438 117.226562 111.351562 117.726562 111 118.125 C 110.699219 118.476562 110.273438 118.648438 109.726562 118.648438 C 109.125 118.648438 108.675781 118.476562 108.375 118.125 C 108.074219 117.726562 107.925781 117.226562 107.925781 116.625 M 109.726562 118.199219 C 110.125 118.199219 110.425781 118.074219 110.625 117.824219 C 110.824219 117.523438 110.925781 117.125 110.925781 116.625 C 110.925781 116.074219 110.824219 115.675781 110.625 115.425781 C 110.425781 115.175781 110.125 115.050781 109.726562 115.050781 C 109.324219 115.050781 109 115.175781 108.75 115.425781 C 108.550781 115.675781 108.449219 116.074219 108.449219 116.625 C 108.449219 117.125 108.550781 117.523438 108.75 117.824219 C 109 118.074219 109.324219 118.199219 109.726562 118.199219 "/>
<path style=" stroke:none;fill-rule:nonzero;fill:rgb(0%,0%,100%);fill-opacity:1;" d="M 129.898438 143.699219 L 131.175781 145.800781 C 131.273438 145.949219 131.375 146.148438 131.476562 146.398438 C 131.625 146.648438 131.699219 146.773438 131.699219 146.773438 L 131.699219 143.699219 L 132.226562 143.699219 L 132.226562 147.675781 L 131.699219 147.675781 L 130.351562 145.351562 C 130.199219 145.199219 130.074219 145.023438 129.976562 144.824219 C 129.875 144.625 129.800781 144.5 129.75 144.449219 L 129.75 147.675781 L 129.226562 147.675781 L 129.226562 143.699219 L 129.898438 143.699219 "/>
<path style=" stroke:none;fill-rule:nonzero;fill:rgb(100%,0%,0%);fill-opacity:1;" d="M 142.949219 129.976562 C 142.949219 129.375 143.101562 128.898438 143.398438 128.550781 C 143.699219 128.199219 144.148438 128.023438 144.75 128.023438 C 145.351562 128.023438 145.800781 128.199219 146.101562 128.550781 C 146.398438 128.898438 146.550781 129.375 146.550781 129.976562 C 146.550781 130.625 146.398438 131.125 146.101562 131.476562 C 145.75 131.824219 145.300781 132 144.75 132 C 144.148438 132 143.699219 131.824219 143.398438 131.476562 C 143.101562 131.125 142.949219 130.625 142.949219 129.976562 M 144.75 131.625 C 145.148438 131.625 145.449219 131.476562 145.648438 131.175781 C 145.898438 130.925781 146.023438 130.523438 146.023438 129.976562 C 146.023438 129.476562 145.898438 129.101562 145.648438 128.851562 C 145.449219 128.601562 145.148438 128.476562 144.75 128.476562 C 144.351562 128.476562 144.050781 128.601562 143.851562 128.851562 C 143.601562 129.101562 143.476562 129.476562 143.476562 129.976562 C 143.476562 130.523438 143.601562 130.925781 143.851562 131.175781 C 144.050781 131.476562 144.351562 131.625 144.75 131.625 "/>
<path style=" stroke:none;fill-rule:nonzero;fill:rgb(100%,0%,0%);fill-opacity:1;" d="M 147.898438 120.675781 L 148.425781 120.675781 L 148.425781 122.398438 L 150.449219 122.398438 L 150.449219 120.675781 L 150.976562 120.675781 L 150.976562 124.648438 L 150.449219 124.648438 L 150.449219 122.773438 L 148.425781 122.773438 L 148.425781 124.648438 L 147.898438 124.648438 L 147.898438 120.675781 "/>
<path style=" stroke:none;fill-rule:nonzero;fill:rgb(100%,0%,0%);fill-opacity:1;" d="M 151.425781 122.625 C 151.425781 122.023438 151.601562 121.550781 151.949219 121.199219 C 152.25 120.851562 152.675781 120.675781 153.226562 120.675781 C 153.824219 120.675781 154.273438 120.851562 154.574219 121.199219 C 154.875 121.550781 155.023438 122.023438 155.023438 122.625 C 155.023438 123.273438 154.875 123.773438 154.574219 124.125 C 154.273438 124.476562 153.824219 124.648438 153.226562 124.648438 C 152.675781 124.648438 152.25 124.476562 151.949219 124.125 C 151.601562 123.773438 151.425781 123.273438 151.425781 122.625 M 153.226562 124.273438 C 153.625 124.273438 153.949219 124.125 154.199219 123.824219 C 154.398438 123.574219 154.5 123.175781 154.5 122.625 C 154.5 122.125 154.398438 121.75 154.199219 121.5 C 153.949219 121.25 153.625 121.125 153.226562 121.125 C 152.824219 121.125 152.523438 121.25 152.324219 121.5 C 152.125 121.75 152.023438 122.125 152.023438 122.625 C 152.023438 123.175781 152.125 123.574219 152.324219 123.824219 C 152.523438 124.125 152.824219 124.273438 153.226562 124.273438 "/>
<path style=" stroke:none;fill-rule:nonzero;fill:rgb(0%,0%,100%);fill-opacity:1;" d="M 169.726562 150.449219 L 171 152.550781 C 171.101562 152.648438 171.226562 152.824219 171.375 153.074219 C 171.476562 153.324219 171.550781 153.476562 171.601562 153.523438 L 171.601562 150.449219 L 172.125 150.449219 L 172.125 154.351562 L 171.523438 154.351562 L 170.175781 152.101562 C 170.074219 151.898438 169.976562 151.699219 169.875 151.5 C 169.726562 151.300781 169.648438 151.175781 169.648438 151.125 L 169.648438 154.351562 L 169.125 154.351562 L 169.125 150.449219 L 169.726562 150.449219 "/>
<path style=" stroke:none;fill-rule:nonzero;fill:rgb(0%,0%,100%);fill-opacity:1;" d="M 172.574219 150.449219 L 173.101562 150.449219 L 173.101562 152.101562 L 175.125 152.101562 L 175.125 150.449219 L 175.648438 150.449219 L 175.648438 154.351562 L 175.125 154.351562 L 175.125 152.550781 L 173.101562 152.550781 L 173.101562 154.351562 L 172.574219 154.351562 L 172.574219 150.449219 "/>
<path style=" stroke:none;fill-rule:nonzero;fill:rgb(100%,0%,0%);fill-opacity:1;" d="M 189.824219 153.601562 C 189.824219 152.949219 189.976562 152.449219 190.273438 152.101562 C 190.574219 151.75 191.023438 151.574219 191.625 151.574219 C 192.226562 151.574219 192.675781 151.75 192.976562 152.101562 C 193.273438 152.449219 193.425781 152.949219 193.425781 153.601562 C 193.425781 154.199219 193.273438 154.699219 192.976562 155.101562 C 192.625 155.449219 192.175781 155.625 191.625 155.625 C 191.023438 155.625 190.574219 155.449219 190.273438 155.101562 C 189.976562 154.699219 189.824219 154.199219 189.824219 153.601562 M 191.625 155.175781 C 192.023438 155.175781 192.324219 155.023438 192.523438 154.726562 C 192.773438 154.476562 192.898438 154.101562 192.898438 153.601562 C 192.898438 153.050781 192.773438 152.648438 192.523438 152.398438 C 192.324219 152.148438 192.023438 152.023438 191.625 152.023438 C 191.226562 152.023438 190.925781 152.148438 190.726562 152.398438 C 190.476562 152.648438 190.351562 153.050781 190.351562 153.601562 C 190.351562 154.101562 190.476562 154.476562 190.726562 154.726562 C 190.925781 155.023438 191.226562 155.175781 191.625 155.175781 "/>
<path style=" stroke:none;fill-rule:nonzero;fill:rgb(0%,0%,0%);fill-opacity:1;" d="M 159.601562 242.699219 L 160.199219 242.699219 L 160.199219 244.351562 L 162.148438 244.351562 L 162.148438 242.699219 L 162.675781 242.699219 L 162.675781 246.601562 L 162.148438 246.601562 L 162.148438 244.800781 L 160.199219 244.800781 L 160.199219 246.601562 L 159.601562 246.601562 L 159.601562 242.699219 "/>
<path style=" stroke:none;fill-rule:nonzero;fill:rgb(0%,0%,0%);fill-opacity:1;" d="M 102.898438 147.226562 L 103.425781 147.226562 L 103.425781 148.875 L 105.449219 148.875 L 105.449219 147.226562 L 105.976562 147.226562 L 105.976562 151.125 L 105.449219 151.125 L 105.449219 149.324219 L 103.425781 149.324219 L 103.425781 151.125 L 102.898438 151.125 L 102.898438 147.226562 "/>
</g>
</svg>
