<?xml version="1.0" encoding="UTF-8"?>
<svg xmlns="http://www.w3.org/2000/svg" xmlns:xlink="http://www.w3.org/1999/xlink" width="375pt" height="375pt" viewBox="0 0 375 375" version="1.1">
<g id="surface11">
<rect x="0" y="0" width="375" height="375" style="fill:rgb(100%,100%,100%);fill-opacity:1;stroke:none;"/>
<path style="fill:none;stroke-width:2;stroke-linecap:butt;stroke-linejoin:miter;stroke:rgb(0%,0%,0%);stroke-opacity:1;stroke-miterlimit:4;" d="M 141.197917 453.5 L 127.5 409.697917 " transform="matrix(0.75,0,0,0.75,0,0)"/>
<path style="fill:none;stroke-width:2;stroke-linecap:butt;stroke-linejoin:miter;stroke:rgb(0%,0%,0%);stroke-opacity:1;stroke-miterlimit:4;" d="M 127.5 409.697917 L 85.5 427.802083 " transform="matrix(0.75,0,0,0.75,0,0)"/>
<path style="fill:none;stroke-width:2;stroke-linecap:butt;stroke-linejoin:miter;stroke:rgb(0%,0%,0%);stroke-opacity:1;stroke-miterlimit:4;" d="M 127.5 409.697917 L 147.197917 405.802083 " transform="matrix(0.75,0,0,0.75,0,0)"/>
<path style="fill:none;stroke-width:2;stroke-linecap:butt;stroke-linejoin:miter;stroke:rgb(80%,80%,0%);stroke-opacity:1;stroke-miterlimit:4;" d="M 147.197917 405.802083 L 166.802083 401.901042 " transform="matrix(0.75,0,0,0.75,0,0)"/>
<path style="fill:none;stroke-width:2;stroke-linecap:butt;stroke-linejoin:miter;stroke:rgb(80%,80%,0%);stroke-opacity:1;stroke-miterlimit:4;" d="M 173.401042 392.802083 L 175.598958 374 " transform="matrix(0.75,0,0,0.75,0,0)"/>
<path style="fill:none;stroke-width:2;stroke-linecap:butt;stroke-linejoin:miter;stroke:rgb(0%,0%,0%);stroke-opacity:1;stroke-miterlimit:4;" d="M 175.598958 374 L 177.802083 355.197917 " transform="matrix(0.75,0,0,0.75,0,0)"/>
<path style="fill:none;stroke-width:2;stroke-linecap:butt;stroke-linejoin:miter;stroke:rgb(0%,0%,0%);stroke-opacity:1;stroke-miterlimit:4;" d="M 177.802083 355.197917 L 197 313.598958 " transform="matrix(0.75,0,0,0.75,0,0)"/>
<path style="fill-rule:evenodd;fill:rgb(0%,0%,0%);fill-opacity:1;stroke-width:0.5;stroke-linecap:butt;stroke-linejoin:miter;stroke:rgb(0%,0%,0%);stroke-opacity:1;stroke-miterlimit:4;" d="M 197 313.598958 L 213.901042 305.5 L 215.098958 308.697917 Z M 197 313.598958 " transform="matrix(0.75,0,0,0.75,0,0)"/>
<path style="fill-rule:evenodd;fill:rgb(0%,0%,100%);fill-opacity:1;stroke-width:0.5;stroke-linecap:butt;stroke-linejoin:miter;stroke:rgb(0%,0%,100%);stroke-opacity:1;stroke-miterlimit:4;" d="M 213.901042 305.5 L 233.197917 303.901042 L 230.802083 297.401042 Z M 213.901042 305.5 " transform="matrix(0.75,0,0,0.75,0,0)"/>
<path style="fill-rule:evenodd;fill:rgb(0%,0%,100%);fill-opacity:1;stroke-width:0.5;stroke-linecap:butt;stroke-linejoin:miter;stroke:rgb(0%,0%,100%);stroke-opacity:1;stroke-miterlimit:4;" d="M 213.901042 305.5 L 215.098958 308.697917 L 233.197917 303.901042 Z M 213.901042 305.5 " transform="matrix(0.75,0,0,0.75,0,0)"/>
<path style="fill:none;stroke-width:2;stroke-linecap:butt;stroke-linejoin:miter;stroke:rgb(0%,0%,100%);stroke-opacity:1;stroke-miterlimit:4;" d="M 246.401042 303.098958 L 260.802083 315 " transform="matrix(0.75,0,0,0.75,0,0)"/>
<path style="fill:none;stroke-width:2;stroke-linecap:butt;stroke-linejoin:miter;stroke:rgb(0%,0%,0%);stroke-opacity:1;stroke-miterlimit:4;" d="M 260.802083 315 L 275.197917 327 " transform="matrix(0.75,0,0,0.75,0,0)"/>
<path style="fill:none;stroke-width:2;stroke-linecap:butt;stroke-linejoin:miter;stroke:rgb(0%,0%,0%);stroke-opacity:1;stroke-miterlimit:4;" d="M 272.098958 324.401042 L 268.802083 344 " transform="matrix(0.75,0,0,0.75,0,0)"/>
<path style="fill:none;stroke-width:2;stroke-linecap:butt;stroke-linejoin:miter;stroke:rgb(100%,0%,0%);stroke-opacity:1;stroke-miterlimit:4;" d="M 268.802083 344 L 265.5 363.5 " transform="matrix(0.75,0,0,0.75,0,0)"/>
<path style="fill:none;stroke-width:2;stroke-linecap:butt;stroke-linejoin:miter;stroke:rgb(0%,0%,0%);stroke-opacity:1;stroke-miterlimit:4;" d="M 278.901042 325.598958 L 275.598958 345.098958 " transform="matrix(0.75,0,0,0.75,0,0)"/>
<path style="fill:none;stroke-width:2;stroke-linecap:butt;stroke-linejoin:miter;stroke:rgb(100%,0%,0%);stroke-opacity:1;stroke-miterlimit:4;" d="M 275.598958 345.098958 L 272.197917 364.598958 " transform="matrix(0.75,0,0,0.75,0,0)"/>
<path style="fill:none;stroke-width:2;stroke-linecap:butt;stroke-linejoin:miter;stroke:rgb(0%,0%,0%);stroke-opacity:1;stroke-miterlimit:4;" d="M 275.197917 327 L 318.098958 311.098958 " transform="matrix(0.75,0,0,0.75,0,0)"/>
<path style="fill:none;stroke-width:1;stroke-linecap:butt;stroke-linejoin:miter;stroke:rgb(0%,0%,0%);stroke-opacity:1;stroke-miterlimit:4;" d="M 318.401042 307.5 L 319.098958 307.598958 " transform="matrix(0.75,0,0,0.75,0,0)"/>
<path style="fill:none;stroke-width:1;stroke-linecap:butt;stroke-linejoin:miter;stroke:rgb(0%,0%,0%);stroke-opacity:1;stroke-miterlimit:4;" d="M 318.697917 303.802083 L 320 304.098958 " transform="matrix(0.75,0,0,0.75,0,0)"/>
<path style="fill:none;stroke-width:1;stroke-linecap:butt;stroke-linejoin:miter;stroke:rgb(0%,0%,0%);stroke-opacity:1;stroke-miterlimit:4;" d="M 319 300.197917 L 321 300.598958 " transform="matrix(0.75,0,0,0.75,0,0)"/>
<path style="fill:none;stroke-width:1;stroke-linecap:butt;stroke-linejoin:miter;stroke:rgb(0%,0%,0%);stroke-opacity:1;stroke-miterlimit:4;" d="M 319.197917 296.598958 L 321.901042 297.098958 " transform="matrix(0.75,0,0,0.75,0,0)"/>
<path style="fill:none;stroke-width:1;stroke-linecap:butt;stroke-linejoin:miter;stroke:rgb(0%,0%,0%);stroke-opacity:1;stroke-miterlimit:4;" d="M 319.5 293 L 322.901042 293.598958 " transform="matrix(0.75,0,0,0.75,0,0)"/>
<path style="fill:none;stroke-width:1;stroke-linecap:butt;stroke-linejoin:miter;stroke:rgb(0%,0%,100%);stroke-opacity:1;stroke-miterlimit:4;" d="M 319.802083 289.401042 L 323.802083 290 " transform="matrix(0.75,0,0,0.75,0,0)"/>
<path style="fill:none;stroke-width:1;stroke-linecap:butt;stroke-linejoin:miter;stroke:rgb(0%,0%,100%);stroke-opacity:1;stroke-miterlimit:4;" d="M 320 285.697917 L 324.802083 286.5 " transform="matrix(0.75,0,0,0.75,0,0)"/>
<path style="fill:none;stroke-width:1;stroke-linecap:butt;stroke-linejoin:miter;stroke:rgb(0%,0%,100%);stroke-opacity:1;stroke-miterlimit:4;" d="M 320.302083 282.098958 L 325.697917 283 " transform="matrix(0.75,0,0,0.75,0,0)"/>
<path style="fill:none;stroke-width:1;stroke-linecap:butt;stroke-linejoin:miter;stroke:rgb(0%,0%,100%);stroke-opacity:1;stroke-miterlimit:4;" d="M 320.598958 278.5 L 326.697917 279.5 " transform="matrix(0.75,0,0,0.75,0,0)"/>
<path style="fill:none;stroke-width:1;stroke-linecap:butt;stroke-linejoin:miter;stroke:rgb(0%,0%,100%);stroke-opacity:1;stroke-miterlimit:4;" d="M 320.901042 274.901042 L 327.598958 276 " transform="matrix(0.75,0,0,0.75,0,0)"/>
<path style="fill:none;stroke-width:2;stroke-linecap:butt;stroke-linejoin:miter;stroke:rgb(0%,0%,0%);stroke-opacity:1;stroke-miterlimit:4;" d="M 318.098958 311.098958 L 353.401042 340.401042 " transform="matrix(0.75,0,0,0.75,0,0)"/>
<path style="fill:none;stroke-width:2;stroke-linecap:butt;stroke-linejoin:miter;stroke:rgb(0%,0%,0%);stroke-opacity:1;stroke-miterlimit:4;" d="M 353.401042 340.401042 L 345.697917 385.5 " transform="matrix(0.75,0,0,0.75,0,0)"/>
<path style="fill:none;stroke-width:2;stroke-linecap:butt;stroke-linejoin:miter;stroke:rgb(0%,0%,0%);stroke-opacity:1;stroke-miterlimit:4;" d="M 359.5 345.401042 L 353.098958 382.802083 " transform="matrix(0.75,0,0,0.75,0,0)"/>
<path style="fill:none;stroke-width:2;stroke-linecap:butt;stroke-linejoin:miter;stroke:rgb(0%,0%,0%);stroke-opacity:1;stroke-miterlimit:4;" d="M 345.697917 385.5 L 380.901042 414.802083 " transform="matrix(0.75,0,0,0.75,0,0)"/>
<path style="fill:none;stroke-width:2;stroke-linecap:butt;stroke-linejoin:miter;stroke:rgb(0%,0%,0%);stroke-opacity:1;stroke-miterlimit:4;" d="M 380.901042 414.802083 L 423.901042 398.901042 " transform="matrix(0.75,0,0,0.75,0,0)"/>
<path style="fill:none;stroke-width:2;stroke-linecap:butt;stroke-linejoin:miter;stroke:rgb(0%,0%,0%);stroke-opacity:1;stroke-miterlimit:4;" d="M 382.302083 407 L 417.802083 393.802083 " transform="matrix(0.75,0,0,0.75,0,0)"/>
<path style="fill:none;stroke-width:2;stroke-linecap:butt;stroke-linejoin:miter;stroke:rgb(0%,0%,0%);stroke-opacity:1;stroke-miterlimit:4;" d="M 423.901042 398.901042 L 437.802083 410.401042 " transform="matrix(0.75,0,0,0.75,0,0)"/>
<path style="fill:none;stroke-width:2;stroke-linecap:butt;stroke-linejoin:miter;stroke:rgb(100%,0%,0%);stroke-opacity:1;stroke-miterlimit:4;" d="M 437.802083 410.401042 L 451.697917 421.901042 " transform="matrix(0.75,0,0,0.75,0,0)"/>
<path style="fill:none;stroke-width:2;stroke-linecap:butt;stroke-linejoin:miter;stroke:rgb(0%,0%,0%);stroke-opacity:1;stroke-miterlimit:4;" d="M 423.901042 398.901042 L 431.598958 353.697917 " transform="matrix(0.75,0,0,0.75,0,0)"/>
<path style="fill:none;stroke-width:2;stroke-linecap:butt;stroke-linejoin:miter;stroke:rgb(0%,0%,0%);stroke-opacity:1;stroke-miterlimit:4;" d="M 431.598958 353.697917 L 396.401042 324.5 " transform="matrix(0.75,0,0,0.75,0,0)"/>
<path style="fill:none;stroke-width:2;stroke-linecap:butt;stroke-linejoin:miter;stroke:rgb(0%,0%,0%);stroke-opacity:1;stroke-miterlimit:4;" d="M 424.197917 356.5 L 395 332.302083 " transform="matrix(0.75,0,0,0.75,0,0)"/>
<path style="fill:none;stroke-width:2;stroke-linecap:butt;stroke-linejoin:miter;stroke:rgb(0%,0%,0%);stroke-opacity:1;stroke-miterlimit:4;" d="M 197 313.598958 L 155.302083 294.5 " transform="matrix(0.75,0,0,0.75,0,0)"/>
<path style="fill:none;stroke-width:2;stroke-linecap:butt;stroke-linejoin:miter;stroke:rgb(0%,0%,0%);stroke-opacity:1;stroke-miterlimit:4;" d="M 159.697917 296.5 L 152.697917 277.5 " transform="matrix(0.75,0,0,0.75,0,0)"/>
<path style="fill:none;stroke-width:2;stroke-linecap:butt;stroke-linejoin:miter;stroke:rgb(100%,0%,0%);stroke-opacity:1;stroke-miterlimit:4;" d="M 152.697917 277.5 L 145.697917 258.598958 " transform="matrix(0.75,0,0,0.75,0,0)"/>
<path style="fill:none;stroke-width:2;stroke-linecap:butt;stroke-linejoin:miter;stroke:rgb(0%,0%,0%);stroke-opacity:1;stroke-miterlimit:4;" d="M 153.302083 298.901042 L 146.302083 279.901042 " transform="matrix(0.75,0,0,0.75,0,0)"/>
<path style="fill:none;stroke-width:2;stroke-linecap:butt;stroke-linejoin:miter;stroke:rgb(100%,0%,0%);stroke-opacity:1;stroke-miterlimit:4;" d="M 146.302083 279.901042 L 139.302083 261 " transform="matrix(0.75,0,0,0.75,0,0)"/>
<path style="fill:none;stroke-width:2;stroke-linecap:butt;stroke-linejoin:miter;stroke:rgb(0%,0%,0%);stroke-opacity:1;stroke-miterlimit:4;" d="M 155.302083 294.5 L 147.598958 311.302083 " transform="matrix(0.75,0,0,0.75,0,0)"/>
<path style="fill:none;stroke-width:2;stroke-linecap:butt;stroke-linejoin:miter;stroke:rgb(0%,0%,100%);stroke-opacity:1;stroke-miterlimit:4;" d="M 147.598958 311.302083 L 139.901042 328.098958 " transform="matrix(0.75,0,0,0.75,0,0)"/>
<path style="fill:none;stroke-width:2;stroke-linecap:butt;stroke-linejoin:miter;stroke:rgb(0%,0%,100%);stroke-opacity:1;stroke-miterlimit:4;" d="M 129.802083 343.098958 L 117.401042 356.401042 " transform="matrix(0.75,0,0,0.75,0,0)"/>
<path style="fill:none;stroke-width:2;stroke-linecap:butt;stroke-linejoin:miter;stroke:rgb(0%,0%,0%);stroke-opacity:1;stroke-miterlimit:4;" d="M 117.401042 356.401042 L 105.098958 369.802083 " transform="matrix(0.75,0,0,0.75,0,0)"/>
<path style="fill:none;stroke-width:1;stroke-linecap:butt;stroke-linejoin:miter;stroke:rgb(0%,0%,0%);stroke-opacity:1;stroke-miterlimit:4;" d="M 101.697917 369.098958 L 101.598958 369.598958 " transform="matrix(0.75,0,0,0.75,0,0)"/>
<path style="fill:none;stroke-width:1;stroke-linecap:butt;stroke-linejoin:miter;stroke:rgb(0%,0%,0%);stroke-opacity:1;stroke-miterlimit:4;" d="M 98.197917 368.401042 L 98.098958 369.5 " transform="matrix(0.75,0,0,0.75,0,0)"/>
<path style="fill:none;stroke-width:1;stroke-linecap:butt;stroke-linejoin:miter;stroke:rgb(0%,0%,0%);stroke-opacity:1;stroke-miterlimit:4;" d="M 94.697917 367.697917 L 94.5 369.401042 " transform="matrix(0.75,0,0,0.75,0,0)"/>
<path style="fill:none;stroke-width:1;stroke-linecap:butt;stroke-linejoin:miter;stroke:rgb(0%,0%,0%);stroke-opacity:1;stroke-miterlimit:4;" d="M 91.302083 367 L 91 369.302083 " transform="matrix(0.75,0,0,0.75,0,0)"/>
<path style="fill:none;stroke-width:1;stroke-linecap:butt;stroke-linejoin:miter;stroke:rgb(0%,0%,0%);stroke-opacity:1;stroke-miterlimit:4;" d="M 87.802083 366.302083 L 87.5 369.098958 " transform="matrix(0.75,0,0,0.75,0,0)"/>
<path style="fill:none;stroke-width:1;stroke-linecap:butt;stroke-linejoin:miter;stroke:rgb(0%,0%,0%);stroke-opacity:1;stroke-miterlimit:4;" d="M 84.302083 365.598958 L 83.901042 369 " transform="matrix(0.75,0,0,0.75,0,0)"/>
<path style="fill:none;stroke-width:1;stroke-linecap:butt;stroke-linejoin:miter;stroke:rgb(0%,0%,0%);stroke-opacity:1;stroke-miterlimit:4;" d="M 80.901042 364.901042 L 80.401042 368.901042 " transform="matrix(0.75,0,0,0.75,0,0)"/>
<path style="fill:none;stroke-width:1;stroke-linecap:butt;stroke-linejoin:miter;stroke:rgb(0%,0%,0%);stroke-opacity:1;stroke-miterlimit:4;" d="M 77.401042 364.197917 L 76.901042 368.697917 " transform="matrix(0.75,0,0,0.75,0,0)"/>
<path style="fill:none;stroke-width:1;stroke-linecap:butt;stroke-linejoin:miter;stroke:rgb(0%,0%,0%);stroke-opacity:1;stroke-miterlimit:4;" d="M 73.901042 363.5 L 73.302083 368.598958 " transform="matrix(0.75,0,0,0.75,0,0)"/>
<path style="fill:none;stroke-width:1;stroke-linecap:butt;stroke-linejoin:miter;stroke:rgb(0%,0%,0%);stroke-opacity:1;stroke-miterlimit:4;" d="M 70.5 362.802083 L 69.802083 368.5 " transform="matrix(0.75,0,0,0.75,0,0)"/>
<path style="fill:none;stroke-width:1;stroke-linecap:butt;stroke-linejoin:miter;stroke:rgb(0%,0%,0%);stroke-opacity:1;stroke-miterlimit:4;" d="M 67 362.098958 L 66.302083 368.401042 " transform="matrix(0.75,0,0,0.75,0,0)"/>
<path style="fill:none;stroke-width:1;stroke-linecap:butt;stroke-linejoin:miter;stroke:rgb(0%,0%,0%);stroke-opacity:1;stroke-miterlimit:4;" d="M 63.5 361.401042 L 62.697917 368.197917 " transform="matrix(0.75,0,0,0.75,0,0)"/>
<path style="fill:none;stroke-width:2;stroke-linecap:butt;stroke-linejoin:miter;stroke:rgb(0%,0%,0%);stroke-opacity:1;stroke-miterlimit:4;" d="M 58 360.802083 L 46.802083 375.901042 " transform="matrix(0.75,0,0,0.75,0,0)"/>
<path style="fill:none;stroke-width:2;stroke-linecap:butt;stroke-linejoin:miter;stroke:rgb(100%,0%,0%);stroke-opacity:1;stroke-miterlimit:4;" d="M 46.802083 375.901042 L 35.5 391 " transform="matrix(0.75,0,0,0.75,0,0)"/>
<path style="fill:none;stroke-width:2;stroke-linecap:butt;stroke-linejoin:miter;stroke:rgb(0%,0%,0%);stroke-opacity:1;stroke-miterlimit:4;" d="M 63.598958 364.901042 L 52.302083 380 " transform="matrix(0.75,0,0,0.75,0,0)"/>
<path style="fill:none;stroke-width:2;stroke-linecap:butt;stroke-linejoin:miter;stroke:rgb(100%,0%,0%);stroke-opacity:1;stroke-miterlimit:4;" d="M 52.302083 380 L 41 395.098958 " transform="matrix(0.75,0,0,0.75,0,0)"/>
<path style="fill:none;stroke-width:2;stroke-linecap:butt;stroke-linejoin:miter;stroke:rgb(0%,0%,0%);stroke-opacity:1;stroke-miterlimit:4;" d="M 59.598958 364.401042 L 52.302083 347.5 " transform="matrix(0.75,0,0,0.75,0,0)"/>
<path style="fill:none;stroke-width:2;stroke-linecap:butt;stroke-linejoin:miter;stroke:rgb(100%,0%,0%);stroke-opacity:1;stroke-miterlimit:4;" d="M 52.302083 347.5 L 45.098958 330.598958 " transform="matrix(0.75,0,0,0.75,0,0)"/>
<path style="fill:none;stroke-width:2;stroke-linecap:butt;stroke-linejoin:miter;stroke:rgb(100%,0%,0%);stroke-opacity:1;stroke-miterlimit:4;" d="M 161.401042 92.401042 L 181.5 91.401042 " transform="matrix(0.75,0,0,0.75,0,0)"/>
<path style="fill:none;stroke-width:2;stroke-linecap:butt;stroke-linejoin:miter;stroke:rgb(0%,0%,0%);stroke-opacity:1;stroke-miterlimit:4;" d="M 181.5 91.401042 L 201.697917 90.401042 " transform="matrix(0.75,0,0,0.75,0,0)"/>
<path style="fill:none;stroke-width:2;stroke-linecap:butt;stroke-linejoin:miter;stroke:rgb(100%,0%,0%);stroke-opacity:1;stroke-miterlimit:4;" d="M 161.697917 99.302083 L 181.901042 98.302083 " transform="matrix(0.75,0,0,0.75,0,0)"/>
<path style="fill:none;stroke-width:2;stroke-linecap:butt;stroke-linejoin:miter;stroke:rgb(0%,0%,0%);stroke-opacity:1;stroke-miterlimit:4;" d="M 181.901042 98.302083 L 202 97.197917 " transform="matrix(0.75,0,0,0.75,0,0)"/>
<path style="fill:none;stroke-width:2;stroke-linecap:butt;stroke-linejoin:miter;stroke:rgb(0%,0%,0%);stroke-opacity:1;stroke-miterlimit:4;" d="M 199.901042 93.901042 L 208.197917 77.598958 " transform="matrix(0.75,0,0,0.75,0,0)"/>
<path style="fill:none;stroke-width:2;stroke-linecap:butt;stroke-linejoin:miter;stroke:rgb(100%,0%,0%);stroke-opacity:1;stroke-miterlimit:4;" d="M 208.197917 77.598958 L 216.5 61.401042 " transform="matrix(0.75,0,0,0.75,0,0)"/>
<path style="fill:none;stroke-width:1;stroke-linecap:butt;stroke-linejoin:miter;stroke:rgb(0%,0%,0%);stroke-opacity:1;stroke-miterlimit:4;" d="M 223.098958 129.197917 L 222.598958 129.598958 " transform="matrix(0.75,0,0,0.75,0,0)"/>
<path style="fill:none;stroke-width:1;stroke-linecap:butt;stroke-linejoin:miter;stroke:rgb(0%,0%,0%);stroke-opacity:1;stroke-miterlimit:4;" d="M 221.401042 126.098958 L 220.5 126.802083 " transform="matrix(0.75,0,0,0.75,0,0)"/>
<path style="fill:none;stroke-width:1;stroke-linecap:butt;stroke-linejoin:miter;stroke:rgb(0%,0%,0%);stroke-opacity:1;stroke-miterlimit:4;" d="M 219.697917 123 L 218.302083 124 " transform="matrix(0.75,0,0,0.75,0,0)"/>
<path style="fill:none;stroke-width:1;stroke-linecap:butt;stroke-linejoin:miter;stroke:rgb(0%,0%,0%);stroke-opacity:1;stroke-miterlimit:4;" d="M 218.098958 119.901042 L 216.098958 121.197917 " transform="matrix(0.75,0,0,0.75,0,0)"/>
<path style="fill:none;stroke-width:1;stroke-linecap:butt;stroke-linejoin:miter;stroke:rgb(0%,0%,0%);stroke-opacity:1;stroke-miterlimit:4;" d="M 216.401042 116.802083 L 214 118.302083 " transform="matrix(0.75,0,0,0.75,0,0)"/>
<path style="fill:none;stroke-width:1;stroke-linecap:butt;stroke-linejoin:miter;stroke:rgb(0%,0%,0%);stroke-opacity:1;stroke-miterlimit:4;" d="M 214.697917 113.697917 L 211.802083 115.5 " transform="matrix(0.75,0,0,0.75,0,0)"/>
<path style="fill:none;stroke-width:1;stroke-linecap:butt;stroke-linejoin:miter;stroke:rgb(0%,0%,0%);stroke-opacity:1;stroke-miterlimit:4;" d="M 213 110.598958 L 209.697917 112.697917 " transform="matrix(0.75,0,0,0.75,0,0)"/>
<path style="fill:none;stroke-width:1;stroke-linecap:butt;stroke-linejoin:miter;stroke:rgb(0%,0%,0%);stroke-opacity:1;stroke-miterlimit:4;" d="M 211.401042 107.5 L 207.5 109.901042 " transform="matrix(0.75,0,0,0.75,0,0)"/>
<path style="fill:none;stroke-width:1;stroke-linecap:butt;stroke-linejoin:miter;stroke:rgb(0%,0%,0%);stroke-opacity:1;stroke-miterlimit:4;" d="M 209.697917 104.302083 L 205.401042 107.098958 " transform="matrix(0.75,0,0,0.75,0,0)"/>
<path style="fill:none;stroke-width:1;stroke-linecap:butt;stroke-linejoin:miter;stroke:rgb(0%,0%,0%);stroke-opacity:1;stroke-miterlimit:4;" d="M 208 101.197917 L 203.197917 104.302083 " transform="matrix(0.75,0,0,0.75,0,0)"/>
<path style="fill:none;stroke-width:1;stroke-linecap:butt;stroke-linejoin:miter;stroke:rgb(0%,0%,0%);stroke-opacity:1;stroke-miterlimit:4;" d="M 206.302083 98.098958 L 201.098958 101.5 " transform="matrix(0.75,0,0,0.75,0,0)"/>
<path style="fill:none;stroke-width:1;stroke-linecap:butt;stroke-linejoin:miter;stroke:rgb(0%,0%,0%);stroke-opacity:1;stroke-miterlimit:4;" d="M 204.697917 95 L 198.901042 98.697917 " transform="matrix(0.75,0,0,0.75,0,0)"/>
<path style="fill:none;stroke-width:2;stroke-linecap:butt;stroke-linejoin:miter;stroke:rgb(0%,0%,0%);stroke-opacity:1;stroke-miterlimit:4;" d="M 224.802083 132.401042 L 208.302083 175.098958 " transform="matrix(0.75,0,0,0.75,0,0)"/>
<path style="fill:none;stroke-width:2;stroke-linecap:butt;stroke-linejoin:miter;stroke:rgb(0%,0%,0%);stroke-opacity:1;stroke-miterlimit:4;" d="M 208.302083 175.098958 L 164 186.901042 " transform="matrix(0.75,0,0,0.75,0,0)"/>
<path style="fill:none;stroke-width:2;stroke-linecap:butt;stroke-linejoin:miter;stroke:rgb(0%,0%,0%);stroke-opacity:1;stroke-miterlimit:4;" d="M 203.098958 169.401042 L 166.098958 179.197917 " transform="matrix(0.75,0,0,0.75,0,0)"/>
<path style="fill:none;stroke-width:2;stroke-linecap:butt;stroke-linejoin:miter;stroke:rgb(0%,0%,0%);stroke-opacity:1;stroke-miterlimit:4;" d="M 164 186.901042 L 131.697917 154.5 " transform="matrix(0.75,0,0,0.75,0,0)"/>
<path style="fill:none;stroke-width:2;stroke-linecap:butt;stroke-linejoin:miter;stroke:rgb(0%,0%,0%);stroke-opacity:1;stroke-miterlimit:4;" d="M 131.697917 154.5 L 113.302083 159.401042 " transform="matrix(0.75,0,0,0.75,0,0)"/>
<path style="fill:none;stroke-width:2;stroke-linecap:butt;stroke-linejoin:miter;stroke:rgb(100%,0%,0%);stroke-opacity:1;stroke-miterlimit:4;" d="M 113.302083 159.401042 L 94.901042 164.302083 " transform="matrix(0.75,0,0,0.75,0,0)"/>
<path style="fill:none;stroke-width:2;stroke-linecap:butt;stroke-linejoin:miter;stroke:rgb(0%,0%,0%);stroke-opacity:1;stroke-miterlimit:4;" d="M 208.302083 175.098958 L 222.302083 186.5 " transform="matrix(0.75,0,0,0.75,0,0)"/>
<path style="fill:none;stroke-width:2;stroke-linecap:butt;stroke-linejoin:miter;stroke:rgb(100%,0%,0%);stroke-opacity:1;stroke-miterlimit:4;" d="M 222.302083 186.5 L 236.401042 197.901042 " transform="matrix(0.75,0,0,0.75,0,0)"/>
<path style="fill:none;stroke-width:2;stroke-linecap:butt;stroke-linejoin:miter;stroke:rgb(100%,0%,0%);stroke-opacity:1;stroke-miterlimit:4;" d="M 251.302083 199.098958 L 266.802083 189.098958 " transform="matrix(0.75,0,0,0.75,0,0)"/>
<path style="fill:none;stroke-width:2;stroke-linecap:butt;stroke-linejoin:miter;stroke:rgb(0%,0%,0%);stroke-opacity:1;stroke-miterlimit:4;" d="M 266.802083 189.098958 L 282.302083 179.098958 " transform="matrix(0.75,0,0,0.75,0,0)"/>
<path style="fill:none;stroke-width:2;stroke-linecap:butt;stroke-linejoin:miter;stroke:rgb(0%,0%,0%);stroke-opacity:1;stroke-miterlimit:4;" d="M 282.302083 179.098958 L 326.598958 167.302083 " transform="matrix(0.75,0,0,0.75,0,0)"/>
<path style="fill:none;stroke-width:2;stroke-linecap:butt;stroke-linejoin:miter;stroke:rgb(0%,0%,0%);stroke-opacity:1;stroke-miterlimit:4;" d="M 326.598958 167.302083 L 314.802083 123 " transform="matrix(0.75,0,0,0.75,0,0)"/>
<path style="fill:none;stroke-width:2;stroke-linecap:butt;stroke-linejoin:miter;stroke:rgb(0%,0%,0%);stroke-opacity:1;stroke-miterlimit:4;" d="M 316 127.697917 L 326 110.5 " transform="matrix(0.75,0,0,0.75,0,0)"/>
<path style="fill:none;stroke-width:2;stroke-linecap:butt;stroke-linejoin:miter;stroke:rgb(100%,0%,0%);stroke-opacity:1;stroke-miterlimit:4;" d="M 326 110.5 L 335.901042 93.401042 " transform="matrix(0.75,0,0,0.75,0,0)"/>
<path style="fill:none;stroke-width:2;stroke-linecap:butt;stroke-linejoin:miter;stroke:rgb(0%,0%,0%);stroke-opacity:1;stroke-miterlimit:4;" d="M 310.098958 124.302083 L 320 107.098958 " transform="matrix(0.75,0,0,0.75,0,0)"/>
<path style="fill:none;stroke-width:2;stroke-linecap:butt;stroke-linejoin:miter;stroke:rgb(100%,0%,0%);stroke-opacity:1;stroke-miterlimit:4;" d="M 320 107.098958 L 330 89.901042 " transform="matrix(0.75,0,0,0.75,0,0)"/>
<path style="fill:none;stroke-width:2;stroke-linecap:butt;stroke-linejoin:miter;stroke:rgb(0%,0%,0%);stroke-opacity:1;stroke-miterlimit:4;" d="M 314.802083 123 L 295.901042 128.098958 " transform="matrix(0.75,0,0,0.75,0,0)"/>
<path style="fill:none;stroke-width:2;stroke-linecap:butt;stroke-linejoin:miter;stroke:rgb(0%,0%,100%);stroke-opacity:1;stroke-miterlimit:4;" d="M 295.901042 128.098958 L 276.901042 133.098958 " transform="matrix(0.75,0,0,0.75,0,0)"/>
<path style="fill:none;stroke-width:2;stroke-linecap:butt;stroke-linejoin:miter;stroke:rgb(0%,0%,0%);stroke-opacity:1;stroke-miterlimit:4;" d="M 105.098958 369.802083 L 127.5 409.697917 " transform="matrix(0.75,0,0,0.75,0,0)"/>
<path style="fill:none;stroke-width:2;stroke-linecap:butt;stroke-linejoin:miter;stroke:rgb(0%,0%,100%);stroke-opacity:1;stroke-miterlimit:4;" d="M 264.098958 134.5 L 244.401042 133.401042 " transform="matrix(0.75,0,0,0.75,0,0)"/>
<path style="fill:none;stroke-width:2;stroke-linecap:butt;stroke-linejoin:miter;stroke:rgb(0%,0%,0%);stroke-opacity:1;stroke-miterlimit:4;" d="M 244.401042 133.401042 L 224.802083 132.401042 " transform="matrix(0.75,0,0,0.75,0,0)"/>
<path style="fill:none;stroke-width:2;stroke-linecap:butt;stroke-linejoin:miter;stroke:rgb(0%,0%,100%);stroke-opacity:1;stroke-miterlimit:4;" d="M 142.598958 339 L 160.197917 347.098958 " transform="matrix(0.75,0,0,0.75,0,0)"/>
<path style="fill:none;stroke-width:2;stroke-linecap:butt;stroke-linejoin:miter;stroke:rgb(0%,0%,0%);stroke-opacity:1;stroke-miterlimit:4;" d="M 160.197917 347.098958 L 177.802083 355.197917 " transform="matrix(0.75,0,0,0.75,0,0)"/>
<path style="fill:none;stroke-width:2;stroke-linecap:butt;stroke-linejoin:miter;stroke:rgb(0%,0%,100%);stroke-opacity:1;stroke-miterlimit:4;" d="M 272.598958 142.802083 L 277.5 160.901042 " transform="matrix(0.75,0,0,0.75,0,0)"/>
<path style="fill:none;stroke-width:2;stroke-linecap:butt;stroke-linejoin:miter;stroke:rgb(0%,0%,0%);stroke-opacity:1;stroke-miterlimit:4;" d="M 277.5 160.901042 L 282.302083 179.098958 " transform="matrix(0.75,0,0,0.75,0,0)"/>
<path style="fill:none;stroke-width:2;stroke-linecap:butt;stroke-linejoin:miter;stroke:rgb(0%,0%,0%);stroke-opacity:1;stroke-miterlimit:4;" d="M 396.401042 324.5 L 353.401042 340.401042 " transform="matrix(0.75,0,0,0.75,0,0)"/>
<path style="fill:none;stroke-width:1;stroke-linecap:butt;stroke-linejoin:miter;stroke:rgb(0%,0%,0%);stroke-opacity:1;stroke-miterlimit:4;" d="M 181.197917 355.901042 L 181 356.5 " transform="matrix(0.75,0,0,0.75,0,0)"/>
<path style="fill:none;stroke-width:1;stroke-linecap:butt;stroke-linejoin:miter;stroke:rgb(0%,0%,0%);stroke-opacity:1;stroke-miterlimit:4;" d="M 184.5 356.5 L 184.197917 357.697917 " transform="matrix(0.75,0,0,0.75,0,0)"/>
<path style="fill:none;stroke-width:1;stroke-linecap:butt;stroke-linejoin:miter;stroke:rgb(0%,0%,0%);stroke-opacity:1;stroke-miterlimit:4;" d="M 187.901042 357.098958 L 187.401042 358.901042 " transform="matrix(0.75,0,0,0.75,0,0)"/>
<path style="fill:none;stroke-width:1;stroke-linecap:butt;stroke-linejoin:miter;stroke:rgb(0%,0%,0%);stroke-opacity:1;stroke-miterlimit:4;" d="M 191.197917 357.697917 L 190.598958 360.098958 " transform="matrix(0.75,0,0,0.75,0,0)"/>
<path style="fill:none;stroke-width:1;stroke-linecap:butt;stroke-linejoin:miter;stroke:rgb(0%,0%,0%);stroke-opacity:1;stroke-miterlimit:4;" d="M 194.598958 358.302083 L 193.802083 361.302083 " transform="matrix(0.75,0,0,0.75,0,0)"/>
<path style="fill:none;stroke-width:1;stroke-linecap:butt;stroke-linejoin:miter;stroke:rgb(0%,0%,0%);stroke-opacity:1;stroke-miterlimit:4;" d="M 198 359 L 196.901042 362.598958 " transform="matrix(0.75,0,0,0.75,0,0)"/>
<path style="fill:none;stroke-width:1;stroke-linecap:butt;stroke-linejoin:miter;stroke:rgb(0%,0%,0%);stroke-opacity:1;stroke-miterlimit:4;" d="M 201.302083 359.598958 L 200.098958 363.802083 " transform="matrix(0.75,0,0,0.75,0,0)"/>
<path style="fill:none;stroke-width:1;stroke-linecap:butt;stroke-linejoin:miter;stroke:rgb(0%,0%,0%);stroke-opacity:1;stroke-miterlimit:4;" d="M 204.697917 360.197917 L 203.302083 365 " transform="matrix(0.75,0,0,0.75,0,0)"/>
<path style="fill:none;stroke-width:1;stroke-linecap:butt;stroke-linejoin:miter;stroke:rgb(0%,0%,0%);stroke-opacity:1;stroke-miterlimit:4;" d="M 208 360.802083 L 206.5 366.197917 " transform="matrix(0.75,0,0,0.75,0,0)"/>
<path style="fill:none;stroke-width:1;stroke-linecap:butt;stroke-linejoin:miter;stroke:rgb(0%,0%,0%);stroke-opacity:1;stroke-miterlimit:4;" d="M 211.401042 361.401042 L 209.697917 367.401042 " transform="matrix(0.75,0,0,0.75,0,0)"/>
<path style="fill:none;stroke-width:1;stroke-linecap:butt;stroke-linejoin:miter;stroke:rgb(0%,0%,0%);stroke-opacity:1;stroke-miterlimit:4;" d="M 214.697917 362 L 212.901042 368.697917 " transform="matrix(0.75,0,0,0.75,0,0)"/>
<path style="fill:none;stroke-width:1;stroke-linecap:butt;stroke-linejoin:miter;stroke:rgb(0%,0%,0%);stroke-opacity:1;stroke-miterlimit:4;" d="M 284.098958 182.197917 L 283.401042 182.5 " transform="matrix(0.75,0,0,0.75,0,0)"/>
<path style="fill:none;stroke-width:1;stroke-linecap:butt;stroke-linejoin:miter;stroke:rgb(0%,0%,0%);stroke-opacity:1;stroke-miterlimit:4;" d="M 285.802083 185.302083 L 284.598958 185.802083 " transform="matrix(0.75,0,0,0.75,0,0)"/>
<path style="fill:none;stroke-width:1;stroke-linecap:butt;stroke-linejoin:miter;stroke:rgb(0%,0%,0%);stroke-opacity:1;stroke-miterlimit:4;" d="M 287.598958 188.401042 L 285.697917 189.197917 " transform="matrix(0.75,0,0,0.75,0,0)"/>
<path style="fill:none;stroke-width:1;stroke-linecap:butt;stroke-linejoin:miter;stroke:rgb(0%,0%,0%);stroke-opacity:1;stroke-miterlimit:4;" d="M 289.302083 191.5 L 286.802083 192.598958 " transform="matrix(0.75,0,0,0.75,0,0)"/>
<path style="fill:none;stroke-width:1;stroke-linecap:butt;stroke-linejoin:miter;stroke:rgb(0%,0%,0%);stroke-opacity:1;stroke-miterlimit:4;" d="M 291.098958 194.598958 L 287.901042 196 " transform="matrix(0.75,0,0,0.75,0,0)"/>
<path style="fill:none;stroke-width:1;stroke-linecap:butt;stroke-linejoin:miter;stroke:rgb(0%,0%,0%);stroke-opacity:1;stroke-miterlimit:4;" d="M 292.802083 197.697917 L 289 199.302083 " transform="matrix(0.75,0,0,0.75,0,0)"/>
<path style="fill:none;stroke-width:1;stroke-linecap:butt;stroke-linejoin:miter;stroke:rgb(0%,0%,0%);stroke-opacity:1;stroke-miterlimit:4;" d="M 294.598958 200.802083 L 290.197917 202.697917 " transform="matrix(0.75,0,0,0.75,0,0)"/>
<path style="fill:none;stroke-width:1;stroke-linecap:butt;stroke-linejoin:miter;stroke:rgb(0%,0%,0%);stroke-opacity:1;stroke-miterlimit:4;" d="M 296.302083 203.901042 L 291.302083 206.098958 " transform="matrix(0.75,0,0,0.75,0,0)"/>
<path style="fill:none;stroke-width:1;stroke-linecap:butt;stroke-linejoin:miter;stroke:rgb(0%,0%,0%);stroke-opacity:1;stroke-miterlimit:4;" d="M 298.098958 207 L 292.401042 209.5 " transform="matrix(0.75,0,0,0.75,0,0)"/>
<path style="fill:none;stroke-width:1;stroke-linecap:butt;stroke-linejoin:miter;stroke:rgb(0%,0%,0%);stroke-opacity:1;stroke-miterlimit:4;" d="M 299.802083 210 L 293.5 212.802083 " transform="matrix(0.75,0,0,0.75,0,0)"/>
<path style="fill:none;stroke-width:2;stroke-linecap:butt;stroke-linejoin:miter;stroke:rgb(0%,0%,0%);stroke-opacity:1;stroke-miterlimit:4;" d="M 196 315.697917 L 197 313.598958 L 194.901042 312.697917 " transform="matrix(0.75,0,0,0.75,0,0)"/>
<path style="fill:none;stroke-width:2;stroke-linecap:butt;stroke-linejoin:miter;stroke:rgb(0%,0%,0%);stroke-opacity:1;stroke-miterlimit:4;" d="M 274.5 326.401042 L 275.197917 327 L 277.302083 326.197917 " transform="matrix(0.75,0,0,0.75,0,0)"/>
<path style="fill:none;stroke-width:2;stroke-linecap:butt;stroke-linejoin:miter;stroke:rgb(0%,0%,0%);stroke-opacity:1;stroke-miterlimit:4;" d="M 316 311.901042 L 318.098958 311.098958 L 319.901042 312.598958 " transform="matrix(0.75,0,0,0.75,0,0)"/>
<path style="fill:none;stroke-width:2;stroke-linecap:butt;stroke-linejoin:miter;stroke:rgb(0%,0%,0%);stroke-opacity:1;stroke-miterlimit:4;" d="M 346.098958 383.302083 L 345.697917 385.5 L 347.401042 387 " transform="matrix(0.75,0,0,0.75,0,0)"/>
<path style="fill:none;stroke-width:2;stroke-linecap:butt;stroke-linejoin:miter;stroke:rgb(0%,0%,0%);stroke-opacity:1;stroke-miterlimit:4;" d="M 379.197917 413.302083 L 380.901042 414.802083 L 383.098958 414 " transform="matrix(0.75,0,0,0.75,0,0)"/>
<path style="fill:none;stroke-width:2;stroke-linecap:butt;stroke-linejoin:miter;stroke:rgb(0%,0%,0%);stroke-opacity:1;stroke-miterlimit:4;" d="M 431.197917 356 L 431.598958 353.697917 L 429.901042 352.302083 " transform="matrix(0.75,0,0,0.75,0,0)"/>
<path style="fill:none;stroke-width:2;stroke-linecap:butt;stroke-linejoin:miter;stroke:rgb(0%,0%,0%);stroke-opacity:1;stroke-miterlimit:4;" d="M 398.098958 325.901042 L 396.401042 324.5 L 394.197917 325.302083 " transform="matrix(0.75,0,0,0.75,0,0)"/>
<path style="fill:none;stroke-width:2;stroke-linecap:butt;stroke-linejoin:miter;stroke:rgb(0%,0%,0%);stroke-opacity:1;stroke-miterlimit:4;" d="M 157.401042 295.401042 L 155.302083 294.5 L 154.901042 295.302083 " transform="matrix(0.75,0,0,0.75,0,0)"/>
<path style="fill:none;stroke-width:2;stroke-linecap:butt;stroke-linejoin:miter;stroke:rgb(0%,0%,0%);stroke-opacity:1;stroke-miterlimit:4;" d="M 105.697917 369.098958 L 105.098958 369.802083 L 106.197917 371.802083 " transform="matrix(0.75,0,0,0.75,0,0)"/>
<path style="fill:none;stroke-width:2;stroke-linecap:butt;stroke-linejoin:miter;stroke:rgb(0%,0%,0%);stroke-opacity:1;stroke-miterlimit:4;" d="M 223.901042 134.5 L 224.802083 132.401042 L 225.697917 132.401042 " transform="matrix(0.75,0,0,0.75,0,0)"/>
<path style="fill:none;stroke-width:2;stroke-linecap:butt;stroke-linejoin:miter;stroke:rgb(0%,0%,0%);stroke-opacity:1;stroke-miterlimit:4;" d="M 166.197917 186.302083 L 164 186.901042 L 162.401042 185.302083 " transform="matrix(0.75,0,0,0.75,0,0)"/>
<path style="fill:none;stroke-width:2;stroke-linecap:butt;stroke-linejoin:miter;stroke:rgb(0%,0%,0%);stroke-opacity:1;stroke-miterlimit:4;" d="M 133.302083 156.098958 L 131.697917 154.5 L 130.697917 154.697917 " transform="matrix(0.75,0,0,0.75,0,0)"/>
<path style="fill:none;stroke-width:2;stroke-linecap:butt;stroke-linejoin:miter;stroke:rgb(0%,0%,0%);stroke-opacity:1;stroke-miterlimit:4;" d="M 324.401042 167.901042 L 326.598958 167.302083 L 326 165.098958 " transform="matrix(0.75,0,0,0.75,0,0)"/>
<path style="fill:none;stroke-width:2;stroke-linecap:butt;stroke-linejoin:miter;stroke:rgb(0%,0%,0%);stroke-opacity:1;stroke-miterlimit:4;" d="M 315.401042 125.197917 L 314.802083 123 L 313.802083 123.302083 " transform="matrix(0.75,0,0,0.75,0,0)"/>
<path style=" stroke:none;fill-rule:nonzero;fill:rgb(80%,80%,0%);fill-opacity:1;" d="M 126.601562 303.898438 C 126.648438 303.898438 126.851562 303.976562 127.199219 304.125 C 127.5 304.273438 127.800781 304.375 128.101562 304.425781 C 128.449219 304.523438 128.800781 304.574219 129.148438 304.574219 C 129.75 304.574219 130.226562 304.425781 130.574219 304.125 C 130.925781 303.824219 131.101562 303.398438 131.101562 302.851562 C 131.101562 302.5 131 302.226562 130.800781 302.023438 C 130.648438 301.773438 130.425781 301.601562 130.125 301.5 C 129.875 301.398438 129.523438 301.273438 129.074219 301.125 C 128.476562 300.925781 128 300.75 127.648438 300.601562 C 127.351562 300.449219 127.074219 300.199219 126.824219 299.851562 C 126.574219 299.5 126.449219 299.023438 126.449219 298.425781 C 126.449219 297.625 126.726562 296.976562 127.273438 296.476562 C 127.824219 295.976562 128.648438 295.726562 129.75 295.726562 C 130.5 295.726562 131.300781 295.898438 132.148438 296.25 L 131.851562 297.300781 C 131.050781 297 130.375 296.851562 129.824219 296.851562 C 129.175781 296.851562 128.675781 296.976562 128.324219 297.226562 C 127.976562 297.476562 127.800781 297.824219 127.800781 298.273438 C 127.800781 298.625 127.898438 298.898438 128.101562 299.101562 C 128.25 299.300781 128.449219 299.476562 128.699219 299.625 C 129 299.726562 129.375 299.851562 129.824219 300 C 130.375 300.199219 130.824219 300.375 131.175781 300.523438 C 131.523438 300.726562 131.824219 301 132.074219 301.351562 C 132.324219 301.75 132.449219 302.25 132.449219 302.851562 C 132.449219 303.75 132.148438 304.449219 131.550781 304.949219 C 130.949219 305.449219 130.148438 305.699219 129.148438 305.699219 C 128.601562 305.699219 128.101562 305.625 127.648438 305.476562 C 127.199219 305.375 126.726562 305.199219 126.226562 304.949219 L 126.601562 303.898438 "/>
<path style=" stroke:none;fill-rule:nonzero;fill:rgb(0%,0%,100%);fill-opacity:1;" d="M 177.824219 218.398438 L 180.976562 223.574219 C 181.175781 223.925781 181.449219 224.398438 181.800781 225 C 182.148438 225.601562 182.324219 225.925781 182.324219 225.976562 L 182.324219 218.398438 L 183.601562 218.398438 L 183.601562 228.148438 L 182.324219 228.148438 L 178.875 222.523438 C 178.625 222.074219 178.351562 221.601562 178.050781 221.101562 C 177.800781 220.601562 177.625 220.273438 177.523438 220.125 L 177.523438 228.148438 L 176.25 228.148438 L 176.25 218.398438 L 177.824219 218.398438 "/>
<path style=" stroke:none;fill-rule:nonzero;fill:rgb(0%,0%,100%);fill-opacity:1;" d="M 176.175781 207.75 L 177.449219 207.75 L 177.449219 211.875 L 182.398438 211.875 L 182.398438 207.75 L 183.75 207.75 L 183.75 217.425781 L 182.398438 217.425781 L 182.398438 212.925781 L 177.449219 212.925781 L 177.449219 217.425781 L 176.175781 217.425781 L 176.175781 207.75 "/>
<path style=" stroke:none;fill-rule:nonzero;fill:rgb(100%,0%,0%);fill-opacity:1;" d="M 196.125 279.148438 C 196.125 277.601562 196.5 276.375 197.25 275.476562 C 198.050781 274.625 199.175781 274.199219 200.625 274.199219 C 202.023438 274.199219 203.125 274.625 203.925781 275.476562 C 204.675781 276.375 205.050781 277.601562 205.050781 279.148438 C 205.050781 280.699219 204.675781 281.925781 203.925781 282.824219 C 203.125 283.726562 202.023438 284.175781 200.625 284.175781 C 199.175781 284.175781 198.050781 283.726562 197.25 282.824219 C 196.5 281.925781 196.125 280.699219 196.125 279.148438 M 200.625 283.050781 C 201.574219 283.050781 202.324219 282.726562 202.875 282.074219 C 203.425781 281.425781 203.699219 280.449219 203.699219 279.148438 C 203.699219 277.851562 203.425781 276.875 202.875 276.226562 C 202.324219 275.574219 201.574219 275.25 200.625 275.25 C 199.625 275.25 198.851562 275.574219 198.300781 276.226562 C 197.75 276.875 197.476562 277.851562 197.476562 279.148438 C 197.476562 280.449219 197.75 281.425781 198.300781 282.074219 C 198.851562 282.726562 199.625 283.050781 200.625 283.050781 "/>
<path style=" stroke:none;fill-rule:nonzero;fill:rgb(0%,0%,100%);fill-opacity:1;" d="M 242.25 194.550781 L 245.398438 199.726562 C 245.648438 200.074219 245.925781 200.550781 246.226562 201.148438 C 246.574219 201.75 246.773438 202.074219 246.824219 202.125 L 246.824219 194.550781 L 248.101562 194.550781 L 248.101562 204.300781 L 246.75 204.300781 L 243.300781 198.675781 C 243.050781 198.226562 242.773438 197.75 242.476562 197.25 C 242.226562 196.75 242.050781 196.425781 241.949219 196.273438 L 241.949219 204.300781 L 240.675781 204.300781 L 240.675781 194.550781 L 242.25 194.550781 "/>
<path style=" stroke:none;fill-rule:nonzero;fill:rgb(0%,0%,100%);fill-opacity:1;" d="M 249.976562 194.550781 L 251.25 194.550781 L 251.25 198.75 L 256.273438 198.75 L 256.273438 194.550781 L 257.550781 194.550781 L 257.550781 204.300781 L 256.273438 204.300781 L 256.273438 199.800781 L 251.25 199.800781 L 251.25 204.300781 L 249.976562 204.300781 L 249.976562 194.550781 "/>
<path style=" stroke:none;fill-rule:nonzero;fill:rgb(0%,0%,100%);fill-opacity:1;" d="M 259.5 204 C 259.648438 203.550781 259.898438 203.226562 260.25 203.023438 C 260.648438 202.773438 261.101562 202.648438 261.601562 202.648438 C 262.25 202.648438 262.75 202.824219 263.101562 203.175781 C 263.5 203.523438 263.699219 204.023438 263.699219 204.675781 C 263.699219 205.324219 263.449219 205.925781 262.949219 206.476562 C 262.5 207.074219 261.773438 207.726562 260.773438 208.425781 L 263.773438 208.425781 L 263.773438 209.175781 L 259.425781 209.175781 L 259.425781 208.574219 C 260.226562 208.023438 260.875 207.523438 261.375 207.074219 C 261.824219 206.675781 262.175781 206.273438 262.425781 205.875 C 262.625 205.476562 262.726562 205.101562 262.726562 204.75 C 262.726562 204.300781 262.625 203.976562 262.425781 203.773438 C 262.226562 203.523438 261.949219 203.398438 261.601562 203.398438 C 261.25 203.398438 260.976562 203.476562 260.773438 203.625 C 260.523438 203.773438 260.324219 204 260.175781 204.300781 L 259.5 204 "/>
<path style=" stroke:none;fill-rule:nonzero;fill:rgb(100%,0%,0%);fill-opacity:1;" d="M 339.898438 321.148438 C 339.898438 319.601562 340.273438 318.375 341.023438 317.476562 C 341.824219 316.625 342.925781 316.199219 344.324219 316.199219 C 345.773438 316.199219 346.898438 316.625 347.699219 317.476562 C 348.449219 318.375 348.824219 319.601562 348.824219 321.148438 C 348.824219 322.699219 348.425781 323.925781 347.625 324.824219 C 346.875 325.726562 345.773438 326.175781 344.324219 326.175781 C 342.925781 326.175781 341.824219 325.726562 341.023438 324.824219 C 340.273438 323.976562 339.898438 322.75 339.898438 321.148438 M 344.324219 325.050781 C 345.324219 325.050781 346.101562 324.726562 346.648438 324.074219 C 347.199219 323.425781 347.476562 322.449219 347.476562 321.148438 C 347.476562 319.851562 347.199219 318.898438 346.648438 318.300781 C 346.101562 317.648438 345.324219 317.324219 344.324219 317.324219 C 343.375 317.324219 342.625 317.625 342.074219 318.226562 C 341.523438 318.875 341.25 319.851562 341.25 321.148438 C 341.25 322.449219 341.523438 323.425781 342.074219 324.074219 C 342.625 324.726562 343.375 325.050781 344.324219 325.050781 "/>
<path style=" stroke:none;fill-rule:nonzero;fill:rgb(100%,0%,0%);fill-opacity:1;" d="M 350.324219 316.273438 L 351.675781 316.273438 L 351.675781 320.476562 L 356.625 320.476562 L 356.625 316.273438 L 357.976562 316.273438 L 357.976562 326.023438 L 356.625 326.023438 L 356.625 321.523438 L 351.675781 321.523438 L 351.675781 326.023438 L 350.324219 326.023438 L 350.324219 316.273438 "/>
<path style=" stroke:none;fill-rule:nonzero;fill:rgb(100%,0%,0%);fill-opacity:1;" d="M 100.125 188.625 C 100.125 187.074219 100.5 185.875 101.25 185.023438 C 102.050781 184.125 103.148438 183.675781 104.550781 183.675781 C 106 183.675781 107.125 184.125 107.925781 185.023438 C 108.675781 185.875 109.050781 187.074219 109.050781 188.625 C 109.050781 190.226562 108.648438 191.476562 107.851562 192.375 C 107.101562 193.273438 106 193.726562 104.550781 193.726562 C 103.148438 193.726562 102.050781 193.273438 101.25 192.375 C 100.5 191.476562 100.125 190.226562 100.125 188.625 M 104.550781 192.601562 C 105.550781 192.601562 106.324219 192.273438 106.875 191.625 C 107.425781 190.925781 107.699219 189.925781 107.699219 188.625 C 107.699219 187.375 107.425781 186.425781 106.875 185.773438 C 106.324219 185.125 105.550781 184.800781 104.550781 184.800781 C 103.601562 184.800781 102.851562 185.125 102.300781 185.773438 C 101.75 186.425781 101.476562 187.375 101.476562 188.625 C 101.476562 189.976562 101.75 190.976562 102.300781 191.625 C 102.851562 192.273438 103.601562 192.601562 104.550781 192.601562 "/>
<path style=" stroke:none;fill-rule:nonzero;fill:rgb(0%,0%,100%);fill-opacity:1;" d="M 99.976562 247.199219 L 103.199219 252.375 C 103.398438 252.726562 103.675781 253.199219 104.023438 253.800781 C 104.375 254.398438 104.550781 254.726562 104.550781 254.773438 L 104.550781 247.199219 L 105.824219 247.199219 L 105.824219 256.949219 L 104.476562 256.949219 L 101.101562 251.324219 C 100.800781 250.875 100.523438 250.398438 100.273438 249.898438 C 99.976562 249.398438 99.800781 249.074219 99.75 248.925781 L 99.75 256.949219 L 98.476562 256.949219 L 98.476562 247.199219 L 99.976562 247.199219 "/>
<path style=" stroke:none;fill-rule:nonzero;fill:rgb(100%,0%,0%);fill-opacity:1;" d="M 19.726562 300.898438 C 19.726562 299.351562 20.101562 298.125 20.851562 297.226562 C 21.648438 296.375 22.75 295.949219 24.148438 295.949219 C 25.601562 295.949219 26.726562 296.375 27.523438 297.226562 C 28.273438 298.125 28.648438 299.351562 28.648438 300.898438 C 28.648438 302.449219 28.25 303.675781 27.449219 304.574219 C 26.699219 305.476562 25.601562 305.925781 24.148438 305.925781 C 22.75 305.925781 21.648438 305.476562 20.851562 304.574219 C 20.101562 303.726562 19.726562 302.5 19.726562 300.898438 M 24.148438 304.800781 C 25.148438 304.800781 25.925781 304.476562 26.476562 303.824219 C 27.023438 303.175781 27.300781 302.199219 27.300781 300.898438 C 27.300781 299.601562 27.023438 298.648438 26.476562 298.050781 C 25.925781 297.398438 25.148438 297.074219 24.148438 297.074219 C 23.199219 297.074219 22.449219 297.375 21.898438 297.976562 C 21.351562 298.625 21.074219 299.601562 21.074219 300.898438 C 21.074219 302.199219 21.351562 303.175781 21.898438 303.824219 C 22.449219 304.476562 23.199219 304.800781 24.148438 304.800781 "/>
<path style=" stroke:none;fill-rule:nonzero;fill:rgb(100%,0%,0%);fill-opacity:1;" d="M 17.023438 236.925781 L 18.375 236.925781 L 18.375 241.050781 L 23.324219 241.050781 L 23.324219 236.925781 L 24.675781 236.925781 L 24.675781 246.675781 L 23.324219 246.675781 L 23.324219 242.175781 L 18.375 242.175781 L 18.375 246.675781 L 17.023438 246.675781 L 17.023438 236.925781 "/>
<path style=" stroke:none;fill-rule:nonzero;fill:rgb(100%,0%,0%);fill-opacity:1;" d="M 26.625 241.800781 C 26.625 240.25 27.023438 239.023438 27.824219 238.125 C 28.574219 237.273438 29.675781 236.851562 31.125 236.851562 C 32.574219 236.851562 33.675781 237.273438 34.425781 238.125 C 35.226562 239.023438 35.625 240.25 35.625 241.800781 C 35.625 243.351562 35.226562 244.574219 34.425781 245.476562 C 33.625 246.375 32.523438 246.824219 31.125 246.824219 C 29.675781 246.824219 28.574219 246.375 27.824219 245.476562 C 27.023438 244.574219 26.625 243.351562 26.625 241.800781 M 31.125 245.699219 C 32.125 245.699219 32.875 245.375 33.375 244.726562 C 33.925781 244.074219 34.199219 243.101562 34.199219 241.800781 C 34.199219 240.5 33.925781 239.523438 33.375 238.875 C 32.875 238.226562 32.125 237.898438 31.125 237.898438 C 30.125 237.898438 29.351562 238.226562 28.800781 238.875 C 28.300781 239.523438 28.050781 240.5 28.050781 241.800781 C 28.050781 243.101562 28.300781 244.074219 28.800781 244.726562 C 29.351562 245.375 30.125 245.699219 31.125 245.699219 "/>
<path style=" stroke:none;fill-rule:nonzero;fill:rgb(100%,0%,0%);fill-opacity:1;" d="M 111.074219 72.226562 C 111.074219 70.675781 111.476562 69.449219 112.273438 68.550781 C 113.023438 67.699219 114.125 67.273438 115.574219 67.273438 C 117.023438 67.273438 118.125 67.699219 118.875 68.550781 C 119.675781 69.449219 120.074219 70.675781 120.074219 72.226562 C 120.074219 73.773438 119.675781 75 118.875 75.898438 C 118.074219 76.800781 116.976562 77.25 115.574219 77.25 C 114.125 77.25 113.023438 76.800781 112.273438 75.898438 C 111.476562 75 111.074219 73.773438 111.074219 72.226562 M 115.574219 76.125 C 116.574219 76.125 117.324219 75.800781 117.824219 75.148438 C 118.375 74.5 118.648438 73.523438 118.648438 72.226562 C 118.648438 70.925781 118.375 69.949219 117.824219 69.300781 C 117.324219 68.648438 116.574219 68.324219 115.574219 68.324219 C 114.574219 68.324219 113.800781 68.648438 113.25 69.300781 C 112.75 69.949219 112.5 70.925781 112.5 72.226562 C 112.5 73.523438 112.75 74.5 113.25 75.148438 C 113.800781 75.800781 114.574219 76.125 115.574219 76.125 "/>
<path style=" stroke:none;fill-rule:nonzero;fill:rgb(100%,0%,0%);fill-opacity:1;" d="M 161.101562 39.824219 C 161.101562 38.273438 161.476562 37.074219 162.226562 36.226562 C 162.976562 35.324219 164.074219 34.875 165.523438 34.875 C 166.976562 34.875 168.074219 35.324219 168.824219 36.226562 C 169.625 37.074219 170.023438 38.273438 170.023438 39.824219 C 170.023438 41.425781 169.625 42.675781 168.824219 43.574219 C 168.023438 44.476562 166.925781 44.925781 165.523438 44.925781 C 164.125 44.925781 163.023438 44.476562 162.226562 43.574219 C 161.476562 42.675781 161.101562 41.425781 161.101562 39.824219 M 165.523438 43.800781 C 166.523438 43.800781 167.300781 43.476562 167.851562 42.824219 C 168.351562 42.125 168.601562 41.125 168.601562 39.824219 C 168.601562 38.574219 168.351562 37.625 167.851562 36.976562 C 167.300781 36.324219 166.523438 36 165.523438 36 C 164.523438 36 163.75 36.324219 163.199219 36.976562 C 162.699219 37.625 162.449219 38.574219 162.449219 39.824219 C 162.449219 41.175781 162.699219 42.175781 163.199219 42.824219 C 163.75 43.476562 164.523438 43.800781 165.523438 43.800781 "/>
<path style=" stroke:none;fill-rule:nonzero;fill:rgb(100%,0%,0%);fill-opacity:1;" d="M 171.523438 35.023438 L 172.800781 35.023438 L 172.800781 39.148438 L 177.824219 39.148438 L 177.824219 35.023438 L 179.101562 35.023438 L 179.101562 44.773438 L 177.824219 44.773438 L 177.824219 40.273438 L 172.800781 40.273438 L 172.800781 44.773438 L 171.523438 44.773438 L 171.523438 35.023438 "/>
<path style=" stroke:none;fill-rule:nonzero;fill:rgb(100%,0%,0%);fill-opacity:1;" d="M 51.449219 119.925781 L 52.800781 119.925781 L 52.800781 124.050781 L 57.75 124.050781 L 57.75 119.925781 L 59.101562 119.925781 L 59.101562 129.601562 L 57.75 129.601562 L 57.75 125.101562 L 52.800781 125.101562 L 52.800781 129.601562 L 51.449219 129.601562 L 51.449219 119.925781 "/>
<path style=" stroke:none;fill-rule:nonzero;fill:rgb(100%,0%,0%);fill-opacity:1;" d="M 61.050781 124.726562 C 61.050781 123.175781 61.449219 121.976562 62.25 121.125 C 63 120.226562 64.101562 119.773438 65.550781 119.773438 C 67 119.773438 68.101562 120.226562 68.851562 121.125 C 69.648438 121.976562 70.050781 123.175781 70.050781 124.726562 C 70.050781 126.324219 69.648438 127.574219 68.851562 128.476562 C 68.050781 129.324219 66.949219 129.75 65.550781 129.75 C 64.101562 129.75 63 129.324219 62.25 128.476562 C 61.449219 127.574219 61.050781 126.324219 61.050781 124.726562 M 65.550781 128.699219 C 66.550781 128.699219 67.300781 128.375 67.800781 127.726562 C 68.351562 127.023438 68.625 126.023438 68.625 124.726562 C 68.625 123.476562 68.351562 122.523438 67.800781 121.875 C 67.300781 121.226562 66.550781 120.898438 65.550781 120.898438 C 64.550781 120.898438 63.773438 121.226562 63.226562 121.875 C 62.726562 122.476562 62.476562 123.425781 62.476562 124.726562 C 62.476562 126.023438 62.726562 127.023438 63.226562 127.726562 C 63.773438 128.375 64.550781 128.699219 65.550781 128.699219 "/>
<path style=" stroke:none;fill-rule:nonzero;fill:rgb(100%,0%,0%);fill-opacity:1;" d="M 178.425781 153 C 178.425781 151.449219 178.800781 150.25 179.550781 149.398438 C 180.351562 148.5 181.476562 148.050781 182.925781 148.050781 C 184.324219 148.050781 185.425781 148.5 186.226562 149.398438 C 186.976562 150.25 187.351562 151.449219 187.351562 153 C 187.351562 154.601562 186.976562 155.851562 186.226562 156.75 C 185.425781 157.601562 184.324219 158.023438 182.925781 158.023438 C 181.476562 158.023438 180.351562 157.601562 179.550781 156.75 C 178.800781 155.851562 178.425781 154.601562 178.425781 153 M 182.925781 156.976562 C 183.875 156.976562 184.625 156.648438 185.175781 156 C 185.726562 155.300781 186 154.300781 186 153 C 186 151.75 185.726562 150.800781 185.175781 150.148438 C 184.625 149.5 183.875 149.175781 182.925781 149.175781 C 181.925781 149.175781 181.148438 149.5 180.601562 150.148438 C 180.050781 150.800781 179.773438 151.75 179.773438 153 C 179.773438 154.300781 180.050781 155.300781 180.601562 156 C 181.148438 156.648438 181.925781 156.976562 182.925781 156.976562 "/>
<path style=" stroke:none;fill-rule:nonzero;fill:rgb(100%,0%,0%);fill-opacity:1;" d="M 248.851562 62.550781 C 248.851562 61 249.226562 59.773438 249.976562 58.875 C 250.773438 58.023438 251.875 57.601562 253.273438 57.601562 C 254.726562 57.601562 255.851562 58.023438 256.648438 58.875 C 257.398438 59.773438 257.773438 61 257.773438 62.550781 C 257.773438 64.101562 257.375 65.324219 256.574219 66.226562 C 255.824219 67.125 254.726562 67.574219 253.273438 67.574219 C 251.875 67.574219 250.773438 67.125 249.976562 66.226562 C 249.226562 65.375 248.851562 64.148438 248.851562 62.550781 M 253.273438 66.523438 C 254.273438 66.523438 255.050781 66.175781 255.601562 65.476562 C 256.148438 64.824219 256.425781 63.851562 256.425781 62.550781 C 256.425781 61.25 256.148438 60.300781 255.601562 59.699219 C 255.050781 59.050781 254.273438 58.726562 253.273438 58.726562 C 252.324219 58.726562 251.574219 59.023438 251.023438 59.625 C 250.476562 60.273438 250.199219 61.25 250.199219 62.550781 C 250.199219 63.851562 250.476562 64.824219 251.023438 65.476562 C 251.574219 66.175781 252.324219 66.523438 253.273438 66.523438 "/>
<path style=" stroke:none;fill-rule:nonzero;fill:rgb(0%,0%,100%);fill-opacity:1;" d="M 200.699219 96.226562 L 203.925781 101.398438 C 204.125 101.75 204.398438 102.226562 204.75 102.824219 C 205.101562 103.425781 205.273438 103.75 205.273438 103.800781 L 205.273438 96.226562 L 206.550781 96.226562 L 206.550781 105.976562 L 205.273438 105.976562 L 201.824219 100.351562 C 201.574219 99.898438 201.300781 99.425781 201 98.925781 C 200.699219 98.425781 200.523438 98.101562 200.476562 97.949219 L 200.476562 105.976562 L 199.199219 105.976562 L 199.199219 96.226562 L 200.699219 96.226562 "/>
<path style=" stroke:none;fill-rule:nonzero;fill:rgb(0%,0%,0%);fill-opacity:1;" d="M 162.601562 270.824219 L 163.949219 270.824219 L 163.949219 275.023438 L 168.898438 275.023438 L 168.898438 270.824219 L 170.25 270.824219 L 170.25 280.574219 L 168.898438 280.574219 L 168.898438 276.074219 L 163.949219 276.074219 L 163.949219 280.574219 L 162.601562 280.574219 L 162.601562 270.824219 "/>
<path style=" stroke:none;fill-rule:nonzero;fill:rgb(0%,0%,0%);fill-opacity:1;" d="M 221.851562 160.875 L 223.199219 160.875 L 223.199219 165 L 228.148438 165 L 228.148438 160.875 L 229.5 160.875 L 229.5 170.550781 L 228.148438 170.550781 L 228.148438 166.050781 L 223.199219 166.050781 L 223.199219 170.550781 L 221.851562 170.550781 L 221.851562 160.875 "/>
</g>
</svg>
