<?xml version="1.0" encoding="UTF-8"?>
<svg xmlns="http://www.w3.org/2000/svg" xmlns:xlink="http://www.w3.org/1999/xlink" width="375pt" height="375pt" viewBox="0 0 375 375" version="1.1">
<g id="surface106">
<rect x="0" y="0" width="375" height="375" style="fill:rgb(100%,100%,100%);fill-opacity:1;stroke:none;"/>
<path style="fill:none;stroke-width:2;stroke-linecap:butt;stroke-linejoin:miter;stroke:rgb(0%,0%,0%);stroke-opacity:1;stroke-miterlimit:4;" d="M 86.401042 341.401042 L 121 315 " transform="matrix(0.75,0,0,0.75,0,0)"/>
<path style="fill:none;stroke-width:2;stroke-linecap:butt;stroke-linejoin:miter;stroke:rgb(0%,0%,0%);stroke-opacity:1;stroke-miterlimit:4;" d="M 121 315 L 115.401042 271.802083 " transform="matrix(0.75,0,0,0.75,0,0)"/>
<path style="fill:none;stroke-width:2;stroke-linecap:butt;stroke-linejoin:miter;stroke:rgb(0%,0%,0%);stroke-opacity:1;stroke-miterlimit:4;" d="M 127 310.401042 L 122.302083 274.697917 " transform="matrix(0.75,0,0,0.75,0,0)"/>
<path style="fill:none;stroke-width:2;stroke-linecap:butt;stroke-linejoin:miter;stroke:rgb(0%,0%,0%);stroke-opacity:1;stroke-miterlimit:4;" d="M 115.401042 271.802083 L 75.197917 255.098958 " transform="matrix(0.75,0,0,0.75,0,0)"/>
<path style="fill:none;stroke-width:2;stroke-linecap:butt;stroke-linejoin:miter;stroke:rgb(0%,0%,0%);stroke-opacity:1;stroke-miterlimit:4;" d="M 78.598958 256.5 L 76.197917 237.901042 " transform="matrix(0.75,0,0,0.75,0,0)"/>
<path style="fill:none;stroke-width:2;stroke-linecap:butt;stroke-linejoin:miter;stroke:rgb(100%,0%,0%);stroke-opacity:1;stroke-miterlimit:4;" d="M 76.197917 237.901042 L 73.802083 219.302083 " transform="matrix(0.75,0,0,0.75,0,0)"/>
<path style="fill:none;stroke-width:2;stroke-linecap:butt;stroke-linejoin:miter;stroke:rgb(0%,0%,0%);stroke-opacity:1;stroke-miterlimit:4;" d="M 72.197917 257.401042 L 69.697917 238.802083 " transform="matrix(0.75,0,0,0.75,0,0)"/>
<path style="fill:none;stroke-width:2;stroke-linecap:butt;stroke-linejoin:miter;stroke:rgb(100%,0%,0%);stroke-opacity:1;stroke-miterlimit:4;" d="M 69.697917 238.802083 L 67.302083 220.197917 " transform="matrix(0.75,0,0,0.75,0,0)"/>
<path style="fill:none;stroke-width:2;stroke-linecap:butt;stroke-linejoin:miter;stroke:rgb(0%,0%,0%);stroke-opacity:1;stroke-miterlimit:4;" d="M 75.197917 255.098958 L 61.401042 265.598958 " transform="matrix(0.75,0,0,0.75,0,0)"/>
<path style="fill:none;stroke-width:2;stroke-linecap:butt;stroke-linejoin:miter;stroke:rgb(100%,0%,0%);stroke-opacity:1;stroke-miterlimit:4;" d="M 61.401042 265.598958 L 47.697917 276.098958 " transform="matrix(0.75,0,0,0.75,0,0)"/>
<path style="fill:none;stroke-width:2;stroke-linecap:butt;stroke-linejoin:miter;stroke:rgb(0%,0%,0%);stroke-opacity:1;stroke-miterlimit:4;" d="M 115.401042 271.802083 L 129.598958 260.901042 " transform="matrix(0.75,0,0,0.75,0,0)"/>
<path style="fill:none;stroke-width:2;stroke-linecap:butt;stroke-linejoin:miter;stroke:rgb(0%,0%,100%);stroke-opacity:1;stroke-miterlimit:4;" d="M 129.598958 260.901042 L 143.802083 250 " transform="matrix(0.75,0,0,0.75,0,0)"/>
<path style="fill:none;stroke-width:2;stroke-linecap:butt;stroke-linejoin:miter;stroke:rgb(0%,0%,100%);stroke-opacity:1;stroke-miterlimit:4;" d="M 153.098958 237.697917 L 159.901042 221.401042 " transform="matrix(0.75,0,0,0.75,0,0)"/>
<path style="fill:none;stroke-width:2;stroke-linecap:butt;stroke-linejoin:miter;stroke:rgb(0%,0%,0%);stroke-opacity:1;stroke-miterlimit:4;" d="M 159.901042 221.401042 L 166.697917 205.098958 " transform="matrix(0.75,0,0,0.75,0,0)"/>
<path style="fill:none;stroke-width:2;stroke-linecap:butt;stroke-linejoin:miter;stroke:rgb(0%,0%,0%);stroke-opacity:1;stroke-miterlimit:4;" d="M 170.901042 206.802083 L 163.598958 189.098958 " transform="matrix(0.75,0,0,0.75,0,0)"/>
<path style="fill:none;stroke-width:2;stroke-linecap:butt;stroke-linejoin:miter;stroke:rgb(100%,0%,0%);stroke-opacity:1;stroke-miterlimit:4;" d="M 163.598958 189.098958 L 156.302083 171.401042 " transform="matrix(0.75,0,0,0.75,0,0)"/>
<path style="fill:none;stroke-width:2;stroke-linecap:butt;stroke-linejoin:miter;stroke:rgb(0%,0%,0%);stroke-opacity:1;stroke-miterlimit:4;" d="M 164.901042 209.302083 L 157.598958 191.598958 " transform="matrix(0.75,0,0,0.75,0,0)"/>
<path style="fill:none;stroke-width:2;stroke-linecap:butt;stroke-linejoin:miter;stroke:rgb(100%,0%,0%);stroke-opacity:1;stroke-miterlimit:4;" d="M 157.598958 191.598958 L 150.302083 173.901042 " transform="matrix(0.75,0,0,0.75,0,0)"/>
<path style="fill:none;stroke-width:2;stroke-linecap:butt;stroke-linejoin:miter;stroke:rgb(0%,0%,0%);stroke-opacity:1;stroke-miterlimit:4;" d="M 166.697917 205.098958 L 206.901042 221.802083 " transform="matrix(0.75,0,0,0.75,0,0)"/>
<path style="fill-rule:evenodd;fill:rgb(0%,0%,0%);fill-opacity:1;stroke-width:0.5;stroke-linecap:butt;stroke-linejoin:miter;stroke:rgb(0%,0%,0%);stroke-opacity:1;stroke-miterlimit:4;" d="M 206.901042 221.802083 L 222.598958 213.5 L 223.901042 216.5 Z M 206.901042 221.802083 " transform="matrix(0.75,0,0,0.75,0,0)"/>
<path style="fill-rule:evenodd;fill:rgb(0%,0%,100%);fill-opacity:1;stroke-width:0.5;stroke-linecap:butt;stroke-linejoin:miter;stroke:rgb(0%,0%,100%);stroke-opacity:1;stroke-miterlimit:4;" d="M 222.598958 213.5 L 240.802083 211.302083 L 238.302083 205.197917 Z M 222.598958 213.5 " transform="matrix(0.75,0,0,0.75,0,0)"/>
<path style="fill-rule:evenodd;fill:rgb(0%,0%,100%);fill-opacity:1;stroke-width:0.5;stroke-linecap:butt;stroke-linejoin:miter;stroke:rgb(0%,0%,100%);stroke-opacity:1;stroke-miterlimit:4;" d="M 222.598958 213.5 L 223.901042 216.5 L 240.802083 211.302083 Z M 222.598958 213.5 " transform="matrix(0.75,0,0,0.75,0,0)"/>
<path style="fill:none;stroke-width:2;stroke-linecap:butt;stroke-linejoin:miter;stroke:rgb(0%,0%,100%);stroke-opacity:1;stroke-miterlimit:4;" d="M 253.302083 209.802083 L 267.5 220.802083 " transform="matrix(0.75,0,0,0.75,0,0)"/>
<path style="fill:none;stroke-width:2;stroke-linecap:butt;stroke-linejoin:miter;stroke:rgb(0%,0%,0%);stroke-opacity:1;stroke-miterlimit:4;" d="M 267.5 220.802083 L 281.697917 231.697917 " transform="matrix(0.75,0,0,0.75,0,0)"/>
<path style="fill:none;stroke-width:2;stroke-linecap:butt;stroke-linejoin:miter;stroke:rgb(0%,0%,0%);stroke-opacity:1;stroke-miterlimit:4;" d="M 278.697917 229.401042 L 276.197917 248.098958 " transform="matrix(0.75,0,0,0.75,0,0)"/>
<path style="fill:none;stroke-width:2;stroke-linecap:butt;stroke-linejoin:miter;stroke:rgb(100%,0%,0%);stroke-opacity:1;stroke-miterlimit:4;" d="M 276.197917 248.098958 L 273.697917 266.802083 " transform="matrix(0.75,0,0,0.75,0,0)"/>
<path style="fill:none;stroke-width:2;stroke-linecap:butt;stroke-linejoin:miter;stroke:rgb(0%,0%,0%);stroke-opacity:1;stroke-miterlimit:4;" d="M 285.197917 230.197917 L 282.697917 248.901042 " transform="matrix(0.75,0,0,0.75,0,0)"/>
<path style="fill:none;stroke-width:2;stroke-linecap:butt;stroke-linejoin:miter;stroke:rgb(100%,0%,0%);stroke-opacity:1;stroke-miterlimit:4;" d="M 282.697917 248.901042 L 280.197917 267.598958 " transform="matrix(0.75,0,0,0.75,0,0)"/>
<path style="fill:none;stroke-width:2;stroke-linecap:butt;stroke-linejoin:miter;stroke:rgb(0%,0%,0%);stroke-opacity:1;stroke-miterlimit:4;" d="M 281.697917 231.697917 L 321.901042 215.098958 " transform="matrix(0.75,0,0,0.75,0,0)"/>
<path style="fill:none;stroke-width:1;stroke-linecap:butt;stroke-linejoin:miter;stroke:rgb(0%,0%,0%);stroke-opacity:1;stroke-miterlimit:4;" d="M 322.098958 211.598958 L 322.697917 211.697917 " transform="matrix(0.75,0,0,0.75,0,0)"/>
<path style="fill:none;stroke-width:1;stroke-linecap:butt;stroke-linejoin:miter;stroke:rgb(0%,0%,0%);stroke-opacity:1;stroke-miterlimit:4;" d="M 322.197917 208.098958 L 323.5 208.302083 " transform="matrix(0.75,0,0,0.75,0,0)"/>
<path style="fill:none;stroke-width:1;stroke-linecap:butt;stroke-linejoin:miter;stroke:rgb(0%,0%,0%);stroke-opacity:1;stroke-miterlimit:4;" d="M 322.302083 204.697917 L 324.302083 204.901042 " transform="matrix(0.75,0,0,0.75,0,0)"/>
<path style="fill:none;stroke-width:1;stroke-linecap:butt;stroke-linejoin:miter;stroke:rgb(0%,0%,0%);stroke-opacity:1;stroke-miterlimit:4;" d="M 322.401042 201.197917 L 325 201.598958 " transform="matrix(0.75,0,0,0.75,0,0)"/>
<path style="fill:none;stroke-width:1;stroke-linecap:butt;stroke-linejoin:miter;stroke:rgb(0%,0%,0%);stroke-opacity:1;stroke-miterlimit:4;" d="M 322.598958 197.802083 L 325.802083 198.197917 " transform="matrix(0.75,0,0,0.75,0,0)"/>
<path style="fill:none;stroke-width:1;stroke-linecap:butt;stroke-linejoin:miter;stroke:rgb(0%,0%,100%);stroke-opacity:1;stroke-miterlimit:4;" d="M 322.697917 194.302083 L 326.598958 194.802083 " transform="matrix(0.75,0,0,0.75,0,0)"/>
<path style="fill:none;stroke-width:1;stroke-linecap:butt;stroke-linejoin:miter;stroke:rgb(0%,0%,100%);stroke-opacity:1;stroke-miterlimit:4;" d="M 322.802083 190.901042 L 327.401042 191.5 " transform="matrix(0.75,0,0,0.75,0,0)"/>
<path style="fill:none;stroke-width:1;stroke-linecap:butt;stroke-linejoin:miter;stroke:rgb(0%,0%,100%);stroke-opacity:1;stroke-miterlimit:4;" d="M 323 187.401042 L 328.098958 188.098958 " transform="matrix(0.75,0,0,0.75,0,0)"/>
<path style="fill:none;stroke-width:1;stroke-linecap:butt;stroke-linejoin:miter;stroke:rgb(0%,0%,100%);stroke-opacity:1;stroke-miterlimit:4;" d="M 323.098958 184 L 328.901042 184.697917 " transform="matrix(0.75,0,0,0.75,0,0)"/>
<path style="fill:none;stroke-width:1;stroke-linecap:butt;stroke-linejoin:miter;stroke:rgb(0%,0%,100%);stroke-opacity:1;stroke-miterlimit:4;" d="M 323.197917 180.5 L 329.697917 181.401042 " transform="matrix(0.75,0,0,0.75,0,0)"/>
<path style="fill:none;stroke-width:2;stroke-linecap:butt;stroke-linejoin:miter;stroke:rgb(0%,0%,0%);stroke-opacity:1;stroke-miterlimit:4;" d="M 321.901042 215.098958 L 356.5 241.598958 " transform="matrix(0.75,0,0,0.75,0,0)"/>
<path style="fill:none;stroke-width:2;stroke-linecap:butt;stroke-linejoin:miter;stroke:rgb(0%,0%,0%);stroke-opacity:1;stroke-miterlimit:4;" d="M 356.5 241.598958 L 350.697917 284.802083 " transform="matrix(0.75,0,0,0.75,0,0)"/>
<path style="fill:none;stroke-width:2;stroke-linecap:butt;stroke-linejoin:miter;stroke:rgb(0%,0%,0%);stroke-opacity:1;stroke-miterlimit:4;" d="M 362.401042 246.197917 L 357.697917 281.901042 " transform="matrix(0.75,0,0,0.75,0,0)"/>
<path style="fill:none;stroke-width:2;stroke-linecap:butt;stroke-linejoin:miter;stroke:rgb(0%,0%,0%);stroke-opacity:1;stroke-miterlimit:4;" d="M 350.697917 284.802083 L 385.302083 311.302083 " transform="matrix(0.75,0,0,0.75,0,0)"/>
<path style="fill:none;stroke-width:2;stroke-linecap:butt;stroke-linejoin:miter;stroke:rgb(0%,0%,0%);stroke-opacity:1;stroke-miterlimit:4;" d="M 385.302083 311.302083 L 425.5 294.697917 " transform="matrix(0.75,0,0,0.75,0,0)"/>
<path style="fill:none;stroke-width:2;stroke-linecap:butt;stroke-linejoin:miter;stroke:rgb(0%,0%,0%);stroke-opacity:1;stroke-miterlimit:4;" d="M 386.197917 303.901042 L 419.5 290.098958 " transform="matrix(0.75,0,0,0.75,0,0)"/>
<path style="fill:none;stroke-width:2;stroke-linecap:butt;stroke-linejoin:miter;stroke:rgb(0%,0%,0%);stroke-opacity:1;stroke-miterlimit:4;" d="M 425.5 294.697917 L 439.197917 305.197917 " transform="matrix(0.75,0,0,0.75,0,0)"/>
<path style="fill:none;stroke-width:2;stroke-linecap:butt;stroke-linejoin:miter;stroke:rgb(100%,0%,0%);stroke-opacity:1;stroke-miterlimit:4;" d="M 439.197917 305.197917 L 452.901042 315.802083 " transform="matrix(0.75,0,0,0.75,0,0)"/>
<path style="fill:none;stroke-width:2;stroke-linecap:butt;stroke-linejoin:miter;stroke:rgb(0%,0%,0%);stroke-opacity:1;stroke-miterlimit:4;" d="M 425.5 294.697917 L 431.197917 251.5 " transform="matrix(0.75,0,0,0.75,0,0)"/>
<path style="fill:none;stroke-width:2;stroke-linecap:butt;stroke-linejoin:miter;stroke:rgb(0%,0%,0%);stroke-opacity:1;stroke-miterlimit:4;" d="M 431.197917 251.5 L 396.697917 225 " transform="matrix(0.75,0,0,0.75,0,0)"/>
<path style="fill:none;stroke-width:2;stroke-linecap:butt;stroke-linejoin:miter;stroke:rgb(0%,0%,0%);stroke-opacity:1;stroke-miterlimit:4;" d="M 424.302083 254.401042 L 395.697917 232.5 " transform="matrix(0.75,0,0,0.75,0,0)"/>
<path style="fill:none;stroke-width:2;stroke-linecap:butt;stroke-linejoin:miter;stroke:rgb(0%,0%,0%);stroke-opacity:1;stroke-miterlimit:4;" d="M 206.901042 221.802083 L 190.197917 262 " transform="matrix(0.75,0,0,0.75,0,0)"/>
<path style="fill:none;stroke-width:2;stroke-linecap:butt;stroke-linejoin:miter;stroke:rgb(0%,0%,0%);stroke-opacity:1;stroke-miterlimit:4;" d="M 190.197917 262 L 192.5 279.802083 " transform="matrix(0.75,0,0,0.75,0,0)"/>
<path style="fill:none;stroke-width:2;stroke-linecap:butt;stroke-linejoin:miter;stroke:rgb(80%,80%,0%);stroke-opacity:1;stroke-miterlimit:4;" d="M 192.5 279.802083 L 194.802083 297.598958 " transform="matrix(0.75,0,0,0.75,0,0)"/>
<path style="fill:none;stroke-width:2;stroke-linecap:butt;stroke-linejoin:miter;stroke:rgb(80%,80%,0%);stroke-opacity:1;stroke-miterlimit:4;" d="M 190.401042 309.302083 L 175.802083 320.5 " transform="matrix(0.75,0,0,0.75,0,0)"/>
<path style="fill:none;stroke-width:2;stroke-linecap:butt;stroke-linejoin:miter;stroke:rgb(0%,0%,0%);stroke-opacity:1;stroke-miterlimit:4;" d="M 175.802083 320.5 L 161.197917 331.697917 " transform="matrix(0.75,0,0,0.75,0,0)"/>
<path style="fill:none;stroke-width:2;stroke-linecap:butt;stroke-linejoin:miter;stroke:rgb(0%,0%,0%);stroke-opacity:1;stroke-miterlimit:4;" d="M 161.197917 331.697917 L 121 315 " transform="matrix(0.75,0,0,0.75,0,0)"/>
<path style="fill:none;stroke-width:2;stroke-linecap:butt;stroke-linejoin:miter;stroke:rgb(0%,0%,0%);stroke-opacity:1;stroke-miterlimit:4;" d="M 190.197917 262 L 173.098958 254.901042 " transform="matrix(0.75,0,0,0.75,0,0)"/>
<path style="fill:none;stroke-width:2;stroke-linecap:butt;stroke-linejoin:miter;stroke:rgb(0%,0%,100%);stroke-opacity:1;stroke-miterlimit:4;" d="M 173.098958 254.901042 L 156.098958 247.802083 " transform="matrix(0.75,0,0,0.75,0,0)"/>
<path style="fill:none;stroke-width:2;stroke-linecap:butt;stroke-linejoin:miter;stroke:rgb(0%,0%,0%);stroke-opacity:1;stroke-miterlimit:4;" d="M 396.697917 225 L 356.5 241.598958 " transform="matrix(0.75,0,0,0.75,0,0)"/>
<path style="fill:none;stroke-width:1;stroke-linecap:butt;stroke-linejoin:miter;stroke:rgb(0%,0%,0%);stroke-opacity:1;stroke-miterlimit:4;" d="M 193.802083 262.098958 L 193.697917 262.802083 " transform="matrix(0.75,0,0,0.75,0,0)"/>
<path style="fill:none;stroke-width:1;stroke-linecap:butt;stroke-linejoin:miter;stroke:rgb(0%,0%,0%);stroke-opacity:1;stroke-miterlimit:4;" d="M 197.401042 262.302083 L 197.197917 263.598958 " transform="matrix(0.75,0,0,0.75,0,0)"/>
<path style="fill:none;stroke-width:1;stroke-linecap:butt;stroke-linejoin:miter;stroke:rgb(0%,0%,0%);stroke-opacity:1;stroke-miterlimit:4;" d="M 200.901042 262.401042 L 200.697917 264.401042 " transform="matrix(0.75,0,0,0.75,0,0)"/>
<path style="fill:none;stroke-width:1;stroke-linecap:butt;stroke-linejoin:miter;stroke:rgb(0%,0%,0%);stroke-opacity:1;stroke-miterlimit:4;" d="M 204.5 262.598958 L 204.197917 265.197917 " transform="matrix(0.75,0,0,0.75,0,0)"/>
<path style="fill:none;stroke-width:1;stroke-linecap:butt;stroke-linejoin:miter;stroke:rgb(0%,0%,0%);stroke-opacity:1;stroke-miterlimit:4;" d="M 208.098958 262.697917 L 207.697917 266 " transform="matrix(0.75,0,0,0.75,0,0)"/>
<path style="fill:none;stroke-width:1;stroke-linecap:butt;stroke-linejoin:miter;stroke:rgb(0%,0%,0%);stroke-opacity:1;stroke-miterlimit:4;" d="M 211.697917 262.901042 L 211.197917 266.802083 " transform="matrix(0.75,0,0,0.75,0,0)"/>
<path style="fill:none;stroke-width:1;stroke-linecap:butt;stroke-linejoin:miter;stroke:rgb(0%,0%,0%);stroke-opacity:1;stroke-miterlimit:4;" d="M 215.302083 263 L 214.697917 267.598958 " transform="matrix(0.75,0,0,0.75,0,0)"/>
<path style="fill:none;stroke-width:1;stroke-linecap:butt;stroke-linejoin:miter;stroke:rgb(0%,0%,0%);stroke-opacity:1;stroke-miterlimit:4;" d="M 218.901042 263.197917 L 218.197917 268.302083 " transform="matrix(0.75,0,0,0.75,0,0)"/>
<path style="fill:none;stroke-width:1;stroke-linecap:butt;stroke-linejoin:miter;stroke:rgb(0%,0%,0%);stroke-opacity:1;stroke-miterlimit:4;" d="M 222.5 263.302083 L 221.697917 269.098958 " transform="matrix(0.75,0,0,0.75,0,0)"/>
<path style="fill:none;stroke-width:1;stroke-linecap:butt;stroke-linejoin:miter;stroke:rgb(0%,0%,0%);stroke-opacity:1;stroke-miterlimit:4;" d="M 226.098958 263.5 L 225.197917 269.901042 " transform="matrix(0.75,0,0,0.75,0,0)"/>
<path style="fill:none;stroke-width:2;stroke-linecap:butt;stroke-linejoin:miter;stroke:rgb(0%,0%,0%);stroke-opacity:1;stroke-miterlimit:4;" d="M 77.197917 255.901042 L 75.197917 255.098958 L 74.5 255.598958 " transform="matrix(0.75,0,0,0.75,0,0)"/>
<path style="fill:none;stroke-width:2;stroke-linecap:butt;stroke-linejoin:miter;stroke:rgb(0%,0%,0%);stroke-opacity:1;stroke-miterlimit:4;" d="M 166.302083 205.901042 L 166.697917 205.098958 L 168.697917 205.901042 " transform="matrix(0.75,0,0,0.75,0,0)"/>
<path style="fill:none;stroke-width:2;stroke-linecap:butt;stroke-linejoin:miter;stroke:rgb(0%,0%,0%);stroke-opacity:1;stroke-miterlimit:4;" d="M 204.901042 220.901042 L 206.901042 221.802083 L 206 223.802083 " transform="matrix(0.75,0,0,0.75,0,0)"/>
<path style="fill:none;stroke-width:2;stroke-linecap:butt;stroke-linejoin:miter;stroke:rgb(0%,0%,0%);stroke-opacity:1;stroke-miterlimit:4;" d="M 281 231.098958 L 281.697917 231.697917 L 283.697917 230.901042 " transform="matrix(0.75,0,0,0.75,0,0)"/>
<path style="fill:none;stroke-width:2;stroke-linecap:butt;stroke-linejoin:miter;stroke:rgb(0%,0%,0%);stroke-opacity:1;stroke-miterlimit:4;" d="M 319.901042 215.901042 L 321.901042 215.098958 L 323.697917 216.401042 " transform="matrix(0.75,0,0,0.75,0,0)"/>
<path style="fill:none;stroke-width:2;stroke-linecap:butt;stroke-linejoin:miter;stroke:rgb(0%,0%,0%);stroke-opacity:1;stroke-miterlimit:4;" d="M 351 282.598958 L 350.697917 284.802083 L 352.5 286.098958 " transform="matrix(0.75,0,0,0.75,0,0)"/>
<path style="fill:none;stroke-width:2;stroke-linecap:butt;stroke-linejoin:miter;stroke:rgb(0%,0%,0%);stroke-opacity:1;stroke-miterlimit:4;" d="M 383.5 310 L 385.302083 311.302083 L 387.302083 310.5 " transform="matrix(0.75,0,0,0.75,0,0)"/>
<path style="fill:none;stroke-width:2;stroke-linecap:butt;stroke-linejoin:miter;stroke:rgb(0%,0%,0%);stroke-opacity:1;stroke-miterlimit:4;" d="M 431 253.697917 L 431.197917 251.5 L 429.5 250.197917 " transform="matrix(0.75,0,0,0.75,0,0)"/>
<path style="fill:none;stroke-width:2;stroke-linecap:butt;stroke-linejoin:miter;stroke:rgb(0%,0%,0%);stroke-opacity:1;stroke-miterlimit:4;" d="M 398.401042 226.302083 L 396.697917 225 L 394.697917 225.802083 " transform="matrix(0.75,0,0,0.75,0,0)"/>
<path style="fill:none;stroke-width:2;stroke-linecap:butt;stroke-linejoin:miter;stroke:rgb(0%,0%,0%);stroke-opacity:1;stroke-miterlimit:4;" d="M 162 331.098958 L 161.197917 331.697917 L 159.197917 330.802083 " transform="matrix(0.75,0,0,0.75,0,0)"/>
<path style=" stroke:none;fill-rule:nonzero;fill:rgb(100%,0%,0%);fill-opacity:1;" d="M 47.851562 158.925781 C 47.851562 157.425781 48.226562 156.273438 48.976562 155.476562 C 49.726562 154.625 50.773438 154.199219 52.125 154.199219 C 53.476562 154.199219 54.523438 154.625 55.273438 155.476562 C 56.023438 156.273438 56.398438 157.425781 56.398438 158.925781 C 56.398438 160.425781 56.023438 161.601562 55.273438 162.449219 C 54.523438 163.300781 53.476562 163.726562 52.125 163.726562 C 50.773438 163.726562 49.726562 163.300781 48.976562 162.449219 C 48.226562 161.601562 47.851562 160.425781 47.851562 158.925781 M 52.125 162.675781 C 53.074219 162.675781 53.800781 162.351562 54.300781 161.699219 C 54.800781 161.101562 55.050781 160.175781 55.050781 158.925781 C 55.050781 157.726562 54.800781 156.824219 54.300781 156.226562 C 53.800781 155.574219 53.074219 155.25 52.125 155.25 C 51.175781 155.25 50.449219 155.550781 49.949219 156.148438 C 49.449219 156.800781 49.199219 157.726562 49.199219 158.925781 C 49.199219 160.175781 49.449219 161.101562 49.949219 161.699219 C 50.449219 162.351562 51.175781 162.675781 52.125 162.675781 "/>
<path style=" stroke:none;fill-rule:nonzero;fill:rgb(100%,0%,0%);fill-opacity:1;" d="M 17.023438 206.550781 L 18.300781 206.550781 L 18.300781 210.523438 L 23.023438 210.523438 L 23.023438 206.550781 L 24.300781 206.550781 L 24.300781 215.851562 L 23.023438 215.851562 L 23.023438 211.574219 L 18.300781 211.574219 L 18.300781 215.851562 L 17.023438 215.851562 L 17.023438 206.550781 "/>
<path style=" stroke:none;fill-rule:nonzero;fill:rgb(100%,0%,0%);fill-opacity:1;" d="M 26.175781 211.199219 C 26.175781 209.699219 26.550781 208.550781 27.300781 207.75 C 28 206.898438 29.050781 206.476562 30.449219 206.476562 C 31.800781 206.476562 32.851562 206.898438 33.601562 207.75 C 34.300781 208.550781 34.648438 209.699219 34.648438 211.199219 C 34.648438 212.699219 34.300781 213.875 33.601562 214.726562 C 32.851562 215.574219 31.800781 216 30.449219 216 C 29.101562 216 28.050781 215.574219 27.300781 214.726562 C 26.550781 213.875 26.175781 212.699219 26.175781 211.199219 M 30.449219 214.949219 C 31.398438 214.949219 32.125 214.625 32.625 213.976562 C 33.125 213.324219 33.375 212.398438 33.375 211.199219 C 33.375 210 33.125 209.074219 32.625 208.425781 C 32.125 207.824219 31.398438 207.523438 30.449219 207.523438 C 29.5 207.523438 28.773438 207.824219 28.273438 208.425781 C 27.773438 209.023438 27.523438 209.949219 27.523438 211.199219 C 27.523438 212.449219 27.773438 213.375 28.273438 213.976562 C 28.773438 214.625 29.5 214.949219 30.449219 214.949219 "/>
<path style=" stroke:none;fill-rule:nonzero;fill:rgb(0%,0%,100%);fill-opacity:1;" d="M 110.398438 179.324219 L 113.476562 184.199219 C 113.675781 184.550781 113.925781 185.023438 114.226562 185.625 C 114.574219 186.175781 114.75 186.476562 114.75 186.523438 L 114.75 179.324219 L 115.949219 179.324219 L 115.949219 188.625 L 114.675781 188.625 L 111.449219 183.226562 C 111.199219 182.824219 110.949219 182.375 110.699219 181.875 C 110.398438 181.425781 110.226562 181.125 110.175781 180.976562 L 110.175781 188.625 L 108.976562 188.625 L 108.976562 179.324219 L 110.398438 179.324219 "/>
<path style=" stroke:none;fill-rule:nonzero;fill:rgb(100%,0%,0%);fill-opacity:1;" d="M 108.300781 123.601562 C 108.300781 122.148438 108.648438 121 109.351562 120.148438 C 110.101562 119.351562 111.148438 118.949219 112.5 118.949219 C 113.898438 118.949219 114.949219 119.351562 115.648438 120.148438 C 116.398438 121 116.773438 122.148438 116.773438 123.601562 C 116.773438 125.101562 116.398438 126.273438 115.648438 127.125 C 114.898438 127.976562 113.851562 128.398438 112.5 128.398438 C 111.148438 128.398438 110.101562 127.976562 109.351562 127.125 C 108.648438 126.324219 108.300781 125.148438 108.300781 123.601562 M 112.5 127.351562 C 113.449219 127.351562 114.175781 127.050781 114.675781 126.449219 C 115.226562 125.800781 115.5 124.851562 115.5 123.601562 C 115.5 122.398438 115.226562 121.5 114.675781 120.898438 C 114.175781 120.300781 113.449219 120 112.5 120 C 111.601562 120 110.875 120.300781 110.324219 120.898438 C 109.824219 121.5 109.574219 122.398438 109.574219 123.601562 C 109.574219 124.851562 109.824219 125.800781 110.324219 126.449219 C 110.875 127.050781 111.601562 127.351562 112.5 127.351562 "/>
<path style=" stroke:none;fill-rule:nonzero;fill:rgb(0%,0%,100%);fill-opacity:1;" d="M 183.300781 149.25 L 186.375 154.125 C 186.574219 154.425781 186.824219 154.875 187.125 155.476562 C 187.425781 156.074219 187.601562 156.398438 187.648438 156.449219 L 187.648438 149.25 L 188.851562 149.25 L 188.851562 158.476562 L 187.574219 158.476562 L 184.351562 153.148438 C 184.101562 152.699219 183.824219 152.25 183.523438 151.800781 C 183.273438 151.300781 183.125 150.976562 183.074219 150.824219 L 183.074219 158.476562 L 181.875 158.476562 L 181.875 149.25 L 183.300781 149.25 "/>
<path style=" stroke:none;fill-rule:nonzero;fill:rgb(0%,0%,100%);fill-opacity:1;" d="M 181.726562 139.050781 L 183 139.050781 L 183 142.949219 L 187.726562 142.949219 L 187.726562 139.050781 L 189 139.050781 L 189 148.273438 L 187.726562 148.273438 L 187.726562 144 L 183 144 L 183 148.273438 L 181.726562 148.273438 L 181.726562 139.050781 "/>
<path style=" stroke:none;fill-rule:nonzero;fill:rgb(100%,0%,0%);fill-opacity:1;" d="M 202.726562 206.175781 C 202.726562 204.675781 203.074219 203.523438 203.773438 202.726562 C 204.523438 201.875 205.574219 201.449219 206.925781 201.449219 C 208.324219 201.449219 209.375 201.875 210.074219 202.726562 C 210.824219 203.523438 211.199219 204.675781 211.199219 206.175781 C 211.199219 207.675781 210.824219 208.851562 210.074219 209.699219 C 209.324219 210.550781 208.273438 210.976562 206.925781 210.976562 C 205.574219 210.976562 204.523438 210.550781 203.773438 209.699219 C 203.074219 208.851562 202.726562 207.675781 202.726562 206.175781 M 206.925781 209.925781 C 207.875 209.925781 208.601562 209.601562 209.101562 208.949219 C 209.648438 208.351562 209.925781 207.425781 209.925781 206.175781 C 209.925781 204.976562 209.648438 204.074219 209.101562 203.476562 C 208.601562 202.824219 207.875 202.5 206.925781 202.5 C 206.023438 202.5 205.300781 202.800781 204.75 203.398438 C 204.25 204.050781 204 204.976562 204 206.175781 C 204 207.425781 204.25 208.351562 204.75 208.949219 C 205.300781 209.601562 206.023438 209.925781 206.925781 209.925781 "/>
<path style=" stroke:none;fill-rule:nonzero;fill:rgb(0%,0%,100%);fill-opacity:1;" d="M 243.675781 124.273438 L 246.75 129.148438 C 246.949219 129.5 247.199219 129.976562 247.5 130.574219 C 247.851562 131.125 248.023438 131.425781 248.023438 131.476562 L 248.023438 124.273438 L 249.226562 124.273438 L 249.226562 133.574219 L 247.949219 133.574219 L 244.726562 128.175781 C 244.476562 127.773438 244.226562 127.324219 243.976562 126.824219 C 243.675781 126.375 243.5 126.074219 243.449219 125.925781 L 243.449219 133.574219 L 242.25 133.574219 L 242.25 124.273438 L 243.675781 124.273438 "/>
<path style=" stroke:none;fill-rule:nonzero;fill:rgb(0%,0%,100%);fill-opacity:1;" d="M 251.023438 124.273438 L 252.300781 124.273438 L 252.300781 128.25 L 257.023438 128.25 L 257.023438 124.273438 L 258.226562 124.273438 L 258.226562 133.574219 L 257.023438 133.574219 L 257.023438 129.300781 L 252.300781 129.300781 L 252.300781 133.574219 L 251.023438 133.574219 L 251.023438 124.273438 "/>
<path style=" stroke:none;fill-rule:nonzero;fill:rgb(0%,0%,100%);fill-opacity:1;" d="M 260.101562 133.199219 C 260.25 132.800781 260.5 132.5 260.851562 132.300781 C 261.199219 132.101562 261.625 132 262.125 132 C 262.726562 132 263.199219 132.175781 263.550781 132.523438 C 263.898438 132.824219 264.074219 133.273438 264.074219 133.875 C 264.074219 134.476562 263.851562 135.050781 263.398438 135.601562 C 262.949219 136.199219 262.273438 136.824219 261.375 137.476562 L 264.148438 137.476562 L 264.148438 138.148438 L 260.023438 138.148438 L 260.023438 137.550781 C 260.773438 137.050781 261.375 136.601562 261.824219 136.199219 C 262.324219 135.800781 262.675781 135.398438 262.875 135 C 263.074219 134.648438 263.175781 134.300781 263.175781 133.949219 C 263.175781 133.550781 263.074219 133.226562 262.875 132.976562 C 262.675781 132.773438 262.425781 132.675781 262.125 132.675781 C 261.773438 132.675781 261.5 132.75 261.300781 132.898438 C 261.050781 133 260.851562 133.199219 260.699219 133.5 L 260.101562 133.199219 "/>
<path style=" stroke:none;fill-rule:nonzero;fill:rgb(100%,0%,0%);fill-opacity:1;" d="M 340.800781 240.976562 C 340.800781 239.476562 341.148438 238.324219 341.851562 237.523438 C 342.601562 236.675781 343.648438 236.25 345 236.25 C 346.398438 236.25 347.449219 236.675781 348.148438 237.523438 C 348.898438 238.324219 349.273438 239.476562 349.273438 240.976562 C 349.273438 242.476562 348.898438 243.648438 348.148438 244.5 C 347.398438 245.351562 346.351562 245.773438 345 245.773438 C 343.648438 245.773438 342.601562 245.351562 341.851562 244.5 C 341.148438 243.648438 340.800781 242.476562 340.800781 240.976562 M 345 244.726562 C 345.949219 244.726562 346.675781 244.398438 347.175781 243.75 C 347.726562 243.148438 348 242.226562 348 240.976562 C 348 239.773438 347.726562 238.851562 347.175781 238.199219 C 346.675781 237.601562 345.949219 237.300781 345 237.300781 C 344.101562 237.300781 343.375 237.601562 342.824219 238.199219 C 342.324219 238.800781 342.074219 239.726562 342.074219 240.976562 C 342.074219 242.226562 342.324219 243.148438 342.824219 243.75 C 343.375 244.398438 344.101562 244.726562 345 244.726562 "/>
<path style=" stroke:none;fill-rule:nonzero;fill:rgb(100%,0%,0%);fill-opacity:1;" d="M 350.699219 236.398438 L 351.976562 236.398438 L 351.976562 240.300781 L 356.699219 240.300781 L 356.699219 236.398438 L 357.976562 236.398438 L 357.976562 245.625 L 356.699219 245.625 L 356.699219 241.351562 L 351.976562 241.351562 L 351.976562 245.625 L 350.699219 245.625 L 350.699219 236.398438 "/>
<path style=" stroke:none;fill-rule:nonzero;fill:rgb(80%,80%,0%);fill-opacity:1;" d="M 144.226562 232.050781 C 144.324219 232.101562 144.523438 232.175781 144.824219 232.273438 C 145.074219 232.425781 145.375 232.523438 145.726562 232.574219 C 146.023438 232.625 146.324219 232.648438 146.625 232.648438 C 147.226562 232.648438 147.699219 232.523438 148.050781 232.273438 C 148.398438 231.976562 148.574219 231.574219 148.574219 231.074219 C 148.574219 230.726562 148.476562 230.449219 148.273438 230.25 C 148.125 230.050781 147.898438 229.898438 147.601562 229.800781 C 147.351562 229.699219 147.023438 229.574219 146.625 229.425781 C 146.074219 229.273438 145.625 229.101562 145.273438 228.898438 C 144.976562 228.75 144.699219 228.523438 144.449219 228.226562 C 144.199219 227.875 144.074219 227.425781 144.074219 226.875 C 144.074219 226.074219 144.351562 225.449219 144.898438 225 C 145.398438 224.5 146.175781 224.25 147.226562 224.25 C 147.976562 224.25 148.75 224.425781 149.550781 224.773438 L 149.25 225.75 C 148.5 225.449219 147.851562 225.300781 147.300781 225.300781 C 146.699219 225.300781 146.226562 225.425781 145.875 225.675781 C 145.574219 225.925781 145.425781 226.273438 145.425781 226.726562 C 145.425781 227.023438 145.5 227.273438 145.648438 227.476562 C 145.800781 227.675781 146 227.851562 146.25 228 C 146.5 228.101562 146.851562 228.226562 147.300781 228.375 C 147.851562 228.523438 148.300781 228.699219 148.648438 228.898438 C 148.949219 229.050781 149.226562 229.300781 149.476562 229.648438 C 149.726562 230 149.851562 230.476562 149.851562 231.074219 C 149.851562 231.925781 149.550781 232.601562 148.949219 233.101562 C 148.398438 233.550781 147.648438 233.773438 146.699219 233.773438 C 146.148438 233.773438 145.675781 233.699219 145.273438 233.550781 C 144.824219 233.449219 144.375 233.300781 143.925781 233.101562 L 144.226562 232.050781 "/>
<path style=" stroke:none;fill-rule:nonzero;fill:rgb(0%,0%,0%);fill-opacity:1;" d="M 171.375 196.199219 L 172.648438 196.199219 L 172.648438 200.101562 L 177.375 200.101562 L 177.375 196.199219 L 178.648438 196.199219 L 178.648438 205.425781 L 177.375 205.425781 L 177.375 201.148438 L 172.648438 201.148438 L 172.648438 205.425781 L 171.375 205.425781 L 171.375 196.199219 "/>
</g>
</svg>
