<?xml version="1.0" encoding="UTF-8"?>
<svg xmlns="http://www.w3.org/2000/svg" xmlns:xlink="http://www.w3.org/1999/xlink" width="375pt" height="375pt" viewBox="0 0 375 375" version="1.1">
<g id="surface16">
<rect x="0" y="0" width="375" height="375" style="fill:rgb(100%,100%,100%);fill-opacity:1;stroke:none;"/>
<path style="fill-rule:evenodd;fill:rgb(0%,0%,0%);fill-opacity:1;stroke-width:1;stroke-linecap:butt;stroke-linejoin:miter;stroke:rgb(0%,0%,0%);stroke-opacity:1;stroke-miterlimit:4;" d="M 436.098958 307.697917 L 461.802083 313 L 460.197917 318 Z M 436.098958 307.697917 " transform="matrix(0.75,0,0,0.75,0,0)"/>
<path style="fill:none;stroke-width:2;stroke-linecap:butt;stroke-linejoin:miter;stroke:rgb(0%,0%,0%);stroke-opacity:1;stroke-miterlimit:4;" d="M 436.098958 307.697917 L 426.197917 331.802083 " transform="matrix(0.75,0,0,0.75,0,0)"/>
<path style="fill:none;stroke-width:2;stroke-linecap:butt;stroke-linejoin:miter;stroke:rgb(0%,0%,0%);stroke-opacity:1;stroke-miterlimit:4;" d="M 426.197917 331.802083 L 412.197917 353.802083 " transform="matrix(0.75,0,0,0.75,0,0)"/>
<path style="fill:none;stroke-width:2;stroke-linecap:butt;stroke-linejoin:miter;stroke:rgb(0%,0%,0%);stroke-opacity:1;stroke-miterlimit:4;" d="M 419.697917 332.302083 L 409.901042 347.697917 " transform="matrix(0.75,0,0,0.75,0,0)"/>
<path style="fill:none;stroke-width:2;stroke-linecap:butt;stroke-linejoin:miter;stroke:rgb(0%,0%,0%);stroke-opacity:1;stroke-miterlimit:4;" d="M 412.197917 353.802083 L 394.598958 373 " transform="matrix(0.75,0,0,0.75,0,0)"/>
<path style="fill:none;stroke-width:2;stroke-linecap:butt;stroke-linejoin:miter;stroke:rgb(0%,0%,0%);stroke-opacity:1;stroke-miterlimit:4;" d="M 394.598958 373 L 373.901042 388.901042 " transform="matrix(0.75,0,0,0.75,0,0)"/>
<path style="fill:none;stroke-width:2;stroke-linecap:butt;stroke-linejoin:miter;stroke:rgb(0%,0%,0%);stroke-opacity:1;stroke-miterlimit:4;" d="M 388.302083 371.302083 L 373.901042 382.401042 " transform="matrix(0.75,0,0,0.75,0,0)"/>
<path style="fill:none;stroke-width:2;stroke-linecap:butt;stroke-linejoin:miter;stroke:rgb(0%,0%,0%);stroke-opacity:1;stroke-miterlimit:4;" d="M 373.901042 388.901042 L 350.802083 401 " transform="matrix(0.75,0,0,0.75,0,0)"/>
<path style="fill:none;stroke-width:2;stroke-linecap:butt;stroke-linejoin:miter;stroke:rgb(0%,0%,0%);stroke-opacity:1;stroke-miterlimit:4;" d="M 350.802083 401 L 326 408.802083 " transform="matrix(0.75,0,0,0.75,0,0)"/>
<path style="fill:none;stroke-width:2;stroke-linecap:butt;stroke-linejoin:miter;stroke:rgb(0%,0%,0%);stroke-opacity:1;stroke-miterlimit:4;" d="M 345.5 397.197917 L 328.098958 402.697917 " transform="matrix(0.75,0,0,0.75,0,0)"/>
<path style="fill:none;stroke-width:2;stroke-linecap:butt;stroke-linejoin:miter;stroke:rgb(0%,0%,0%);stroke-opacity:1;stroke-miterlimit:4;" d="M 326 408.802083 L 300.098958 412.302083 " transform="matrix(0.75,0,0,0.75,0,0)"/>
<path style="fill:none;stroke-width:2;stroke-linecap:butt;stroke-linejoin:miter;stroke:rgb(0%,0%,0%);stroke-opacity:1;stroke-miterlimit:4;" d="M 300.098958 412.302083 L 274.098958 411.197917 " transform="matrix(0.75,0,0,0.75,0,0)"/>
<path style="fill:none;stroke-width:2;stroke-linecap:butt;stroke-linejoin:miter;stroke:rgb(0%,0%,0%);stroke-opacity:1;stroke-miterlimit:4;" d="M 296.5 406.901042 L 278.197917 406.098958 " transform="matrix(0.75,0,0,0.75,0,0)"/>
<path style="fill:none;stroke-width:2;stroke-linecap:butt;stroke-linejoin:miter;stroke:rgb(0%,0%,0%);stroke-opacity:1;stroke-miterlimit:4;" d="M 274.098958 411.197917 L 248.598958 405.5 " transform="matrix(0.75,0,0,0.75,0,0)"/>
<path style="fill:none;stroke-width:2;stroke-linecap:butt;stroke-linejoin:miter;stroke:rgb(0%,0%,0%);stroke-opacity:1;stroke-miterlimit:4;" d="M 248.598958 405.5 L 224.5 395.598958 " transform="matrix(0.75,0,0,0.75,0,0)"/>
<path style="fill:none;stroke-width:2;stroke-linecap:butt;stroke-linejoin:miter;stroke:rgb(0%,0%,0%);stroke-opacity:1;stroke-miterlimit:4;" d="M 247 399.197917 L 230.098958 392.302083 " transform="matrix(0.75,0,0,0.75,0,0)"/>
<path style="fill:none;stroke-width:2;stroke-linecap:butt;stroke-linejoin:miter;stroke:rgb(0%,0%,0%);stroke-opacity:1;stroke-miterlimit:4;" d="M 224.5 395.598958 L 202.5 381.598958 " transform="matrix(0.75,0,0,0.75,0,0)"/>
<path style="fill:none;stroke-width:2;stroke-linecap:butt;stroke-linejoin:miter;stroke:rgb(0%,0%,0%);stroke-opacity:1;stroke-miterlimit:4;" d="M 202.5 381.598958 L 183.302083 364 " transform="matrix(0.75,0,0,0.75,0,0)"/>
<path style="fill:none;stroke-width:2;stroke-linecap:butt;stroke-linejoin:miter;stroke:rgb(0%,0%,0%);stroke-opacity:1;stroke-miterlimit:4;" d="M 203.197917 375.098958 L 189.697917 362.802083 " transform="matrix(0.75,0,0,0.75,0,0)"/>
<path style="fill:none;stroke-width:2;stroke-linecap:butt;stroke-linejoin:miter;stroke:rgb(0%,0%,0%);stroke-opacity:1;stroke-miterlimit:4;" d="M 183.302083 364 L 167.401042 343.401042 " transform="matrix(0.75,0,0,0.75,0,0)"/>
<path style="fill:none;stroke-width:2;stroke-linecap:butt;stroke-linejoin:miter;stroke:rgb(0%,0%,0%);stroke-opacity:1;stroke-miterlimit:4;" d="M 167.401042 343.401042 L 155.302083 320.302083 " transform="matrix(0.75,0,0,0.75,0,0)"/>
<path style="fill:none;stroke-width:2;stroke-linecap:butt;stroke-linejoin:miter;stroke:rgb(0%,0%,0%);stroke-opacity:1;stroke-miterlimit:4;" d="M 170.197917 337.5 L 161.802083 321.302083 " transform="matrix(0.75,0,0,0.75,0,0)"/>
<path style="fill:none;stroke-width:2;stroke-linecap:butt;stroke-linejoin:miter;stroke:rgb(0%,0%,0%);stroke-opacity:1;stroke-miterlimit:4;" d="M 155.302083 320.302083 L 147.5 295.401042 " transform="matrix(0.75,0,0,0.75,0,0)"/>
<path style="fill-rule:evenodd;fill:rgb(0%,0%,0%);fill-opacity:1;stroke-width:1;stroke-linecap:butt;stroke-linejoin:miter;stroke:rgb(0%,0%,0%);stroke-opacity:1;stroke-miterlimit:4;" d="M 147.5 295.401042 L 137.598958 298.901042 L 137 296.401042 Z M 147.5 295.401042 " transform="matrix(0.75,0,0,0.75,0,0)"/>
<path style="fill-rule:evenodd;fill:rgb(100%,0%,0%);fill-opacity:1;stroke-width:1;stroke-linecap:butt;stroke-linejoin:miter;stroke:rgb(100%,0%,0%);stroke-opacity:1;stroke-miterlimit:4;" d="M 137.598958 298.901042 L 126.598958 297.401042 L 127.697917 302.5 Z M 137.598958 298.901042 " transform="matrix(0.75,0,0,0.75,0,0)"/>
<path style="fill-rule:evenodd;fill:rgb(100%,0%,0%);fill-opacity:1;stroke-width:1;stroke-linecap:butt;stroke-linejoin:miter;stroke:rgb(100%,0%,0%);stroke-opacity:1;stroke-miterlimit:4;" d="M 137.598958 298.901042 L 137 296.401042 L 126.598958 297.401042 Z M 137.598958 298.901042 " transform="matrix(0.75,0,0,0.75,0,0)"/>
<path style="fill-rule:evenodd;fill:rgb(0%,0%,0%);fill-opacity:1;stroke-width:1;stroke-linecap:butt;stroke-linejoin:miter;stroke:rgb(0%,0%,0%);stroke-opacity:1;stroke-miterlimit:4;" d="M 104.401042 281.901042 L 111.697917 287.901042 L 109.802083 289.598958 Z M 104.401042 281.901042 " transform="matrix(0.75,0,0,0.75,0,0)"/>
<path style="fill-rule:evenodd;fill:rgb(100%,0%,0%);fill-opacity:1;stroke-width:1;stroke-linecap:butt;stroke-linejoin:miter;stroke:rgb(100%,0%,0%);stroke-opacity:1;stroke-miterlimit:4;" d="M 111.697917 287.901042 L 115.098958 297.401042 L 118.901042 293.901042 Z M 111.697917 287.901042 " transform="matrix(0.75,0,0,0.75,0,0)"/>
<path style="fill-rule:evenodd;fill:rgb(100%,0%,0%);fill-opacity:1;stroke-width:1;stroke-linecap:butt;stroke-linejoin:miter;stroke:rgb(100%,0%,0%);stroke-opacity:1;stroke-miterlimit:4;" d="M 111.697917 287.901042 L 109.802083 289.598958 L 115.098958 297.401042 Z M 111.697917 287.901042 " transform="matrix(0.75,0,0,0.75,0,0)"/>
<path style="fill:none;stroke-width:2;stroke-linecap:butt;stroke-linejoin:miter;stroke:rgb(0%,0%,0%);stroke-opacity:1;stroke-miterlimit:4;" d="M 104.401042 281.901042 L 107.598958 271.802083 " transform="matrix(0.75,0,0,0.75,0,0)"/>
<path style="fill:none;stroke-width:2;stroke-linecap:butt;stroke-linejoin:miter;stroke:rgb(100%,0%,0%);stroke-opacity:1;stroke-miterlimit:4;" d="M 107.598958 271.802083 L 110.697917 261.697917 " transform="matrix(0.75,0,0,0.75,0,0)"/>
<path style="fill:none;stroke-width:2;stroke-linecap:butt;stroke-linejoin:miter;stroke:rgb(100%,0%,0%);stroke-opacity:1;stroke-miterlimit:4;" d="M 108 252.401042 L 101.302083 245.098958 " transform="matrix(0.75,0,0,0.75,0,0)"/>
<path style="fill:none;stroke-width:2;stroke-linecap:butt;stroke-linejoin:miter;stroke:rgb(0%,0%,0%);stroke-opacity:1;stroke-miterlimit:4;" d="M 101.302083 245.098958 L 94.598958 237.802083 " transform="matrix(0.75,0,0,0.75,0,0)"/>
<path style="fill-rule:evenodd;fill:rgb(0%,0%,0%);fill-opacity:1;stroke-width:1;stroke-linecap:butt;stroke-linejoin:miter;stroke:rgb(0%,0%,0%);stroke-opacity:1;stroke-miterlimit:4;" d="M 94.598958 237.802083 L 99.901042 212.197917 L 104.901042 213.697917 Z M 94.598958 237.802083 " transform="matrix(0.75,0,0,0.75,0,0)"/>
<path style="fill:none;stroke-width:2;stroke-linecap:butt;stroke-linejoin:miter;stroke:rgb(0%,0%,0%);stroke-opacity:1;stroke-miterlimit:4;" d="M 94.598958 237.802083 L 69.098958 243.5 " transform="matrix(0.75,0,0,0.75,0,0)"/>
<path style="fill:none;stroke-width:1;stroke-linecap:butt;stroke-linejoin:miter;stroke:rgb(0%,0%,0%);stroke-opacity:1;stroke-miterlimit:4;" d="M 65.598958 238.302083 L 64.302083 239.5 " transform="matrix(0.75,0,0,0.75,0,0)"/>
<path style="fill:none;stroke-width:1;stroke-linecap:butt;stroke-linejoin:miter;stroke:rgb(100%,0%,0%);stroke-opacity:1;stroke-miterlimit:4;" d="M 62.098958 233.197917 L 59.5 235.598958 " transform="matrix(0.75,0,0,0.75,0,0)"/>
<path style="fill:none;stroke-width:1;stroke-linecap:butt;stroke-linejoin:miter;stroke:rgb(100%,0%,0%);stroke-opacity:1;stroke-miterlimit:4;" d="M 58.5 228.098958 L 54.697917 231.598958 " transform="matrix(0.75,0,0,0.75,0,0)"/>
<path style="fill:none;stroke-width:2;stroke-linecap:butt;stroke-linejoin:miter;stroke:rgb(0%,0%,0%);stroke-opacity:1;stroke-miterlimit:4;" d="M 69.098958 243.5 L 61.302083 268.302083 " transform="matrix(0.75,0,0,0.75,0,0)"/>
<path style="fill-rule:evenodd;fill:rgb(0%,0%,0%);fill-opacity:1;stroke-width:1;stroke-linecap:butt;stroke-linejoin:miter;stroke:rgb(0%,0%,0%);stroke-opacity:1;stroke-miterlimit:4;" d="M 61.302083 268.302083 L 51.098958 271.901042 L 50.598958 269.401042 Z M 61.302083 268.302083 " transform="matrix(0.75,0,0,0.75,0,0)"/>
<path style="fill-rule:evenodd;fill:rgb(0%,0%,100%);fill-opacity:1;stroke-width:1;stroke-linecap:butt;stroke-linejoin:miter;stroke:rgb(0%,0%,100%);stroke-opacity:1;stroke-miterlimit:4;" d="M 51.098958 271.901042 L 39.802083 270.5 L 41 275.5 Z M 51.098958 271.901042 " transform="matrix(0.75,0,0,0.75,0,0)"/>
<path style="fill-rule:evenodd;fill:rgb(0%,0%,100%);fill-opacity:1;stroke-width:1;stroke-linecap:butt;stroke-linejoin:miter;stroke:rgb(0%,0%,100%);stroke-opacity:1;stroke-miterlimit:4;" d="M 51.098958 271.901042 L 50.598958 269.401042 L 39.802083 270.5 Z M 51.098958 271.901042 " transform="matrix(0.75,0,0,0.75,0,0)"/>
<path style="fill:none;stroke-width:2;stroke-linecap:butt;stroke-linejoin:miter;stroke:rgb(0%,0%,0%);stroke-opacity:1;stroke-miterlimit:4;" d="M 61.302083 268.302083 L 79 287.5 " transform="matrix(0.75,0,0,0.75,0,0)"/>
<path style="fill-rule:evenodd;fill:rgb(0%,0%,0%);fill-opacity:1;stroke-width:1;stroke-linecap:butt;stroke-linejoin:miter;stroke:rgb(0%,0%,0%);stroke-opacity:1;stroke-miterlimit:4;" d="M 79 287.5 L 77.197917 297.598958 L 74.697917 296.901042 Z M 79 287.5 " transform="matrix(0.75,0,0,0.75,0,0)"/>
<path style="fill-rule:evenodd;fill:rgb(100%,0%,0%);fill-opacity:1;stroke-width:1;stroke-linecap:butt;stroke-linejoin:miter;stroke:rgb(100%,0%,0%);stroke-opacity:1;stroke-miterlimit:4;" d="M 77.197917 297.598958 L 70.401042 306.197917 L 75.302083 307.697917 Z M 77.197917 297.598958 " transform="matrix(0.75,0,0,0.75,0,0)"/>
<path style="fill-rule:evenodd;fill:rgb(100%,0%,0%);fill-opacity:1;stroke-width:1;stroke-linecap:butt;stroke-linejoin:miter;stroke:rgb(100%,0%,0%);stroke-opacity:1;stroke-miterlimit:4;" d="M 77.197917 297.598958 L 74.697917 296.901042 L 70.401042 306.197917 Z M 77.197917 297.598958 " transform="matrix(0.75,0,0,0.75,0,0)"/>
<path style="fill:none;stroke-width:2;stroke-linecap:butt;stroke-linejoin:miter;stroke:rgb(0%,0%,0%);stroke-opacity:1;stroke-miterlimit:4;" d="M 147.5 295.401042 L 144.697917 274.197917 " transform="matrix(0.75,0,0,0.75,0,0)"/>
<path style="fill:none;stroke-width:2;stroke-linecap:butt;stroke-linejoin:miter;stroke:rgb(0%,0%,0%);stroke-opacity:1;stroke-miterlimit:4;" d="M 144.5 265 L 147.197917 237 " transform="matrix(0.75,0,0,0.75,0,0)"/>
<path style="fill:none;stroke-width:2;stroke-linecap:butt;stroke-linejoin:miter;stroke:rgb(0%,0%,0%);stroke-opacity:1;stroke-miterlimit:4;" d="M 147.197917 237 L 154.697917 230.197917 " transform="matrix(0.75,0,0,0.75,0,0)"/>
<path style="fill:none;stroke-width:2;stroke-linecap:butt;stroke-linejoin:miter;stroke:rgb(100%,0%,0%);stroke-opacity:1;stroke-miterlimit:4;" d="M 154.697917 230.197917 L 162.098958 223.302083 " transform="matrix(0.75,0,0,0.75,0,0)"/>
<path style="fill:none;stroke-width:2;stroke-linecap:butt;stroke-linejoin:miter;stroke:rgb(100%,0%,0%);stroke-opacity:1;stroke-miterlimit:4;" d="M 165.401042 214.802083 L 163 204.401042 " transform="matrix(0.75,0,0,0.75,0,0)"/>
<path style="fill:none;stroke-width:2;stroke-linecap:butt;stroke-linejoin:miter;stroke:rgb(0%,0%,0%);stroke-opacity:1;stroke-miterlimit:4;" d="M 163 204.401042 L 160.697917 194 " transform="matrix(0.75,0,0,0.75,0,0)"/>
<path style="fill:none;stroke-width:1;stroke-linecap:butt;stroke-linejoin:miter;stroke:rgb(0%,0%,0%);stroke-opacity:1;stroke-miterlimit:4;" d="M 163.901042 193.197917 L 163.098958 191.697917 " transform="matrix(0.75,0,0,0.75,0,0)"/>
<path style="fill:none;stroke-width:1;stroke-linecap:butt;stroke-linejoin:miter;stroke:rgb(100%,0%,0%);stroke-opacity:1;stroke-miterlimit:4;" d="M 167.197917 192.401042 L 165.5 189.401042 " transform="matrix(0.75,0,0,0.75,0,0)"/>
<path style="fill:none;stroke-width:1;stroke-linecap:butt;stroke-linejoin:miter;stroke:rgb(100%,0%,0%);stroke-opacity:1;stroke-miterlimit:4;" d="M 170.401042 191.697917 L 167.901042 187.098958 " transform="matrix(0.75,0,0,0.75,0,0)"/>
<path style="fill:none;stroke-width:2;stroke-linecap:butt;stroke-linejoin:miter;stroke:rgb(0%,0%,0%);stroke-opacity:1;stroke-miterlimit:4;" d="M 160.697917 194 L 171.697917 176.697917 " transform="matrix(0.75,0,0,0.75,0,0)"/>
<path style="fill:none;stroke-width:2;stroke-linecap:butt;stroke-linejoin:miter;stroke:rgb(0%,0%,0%);stroke-opacity:1;stroke-miterlimit:4;" d="M 178.401042 167.901042 L 192.302083 152.697917 " transform="matrix(0.75,0,0,0.75,0,0)"/>
<path style="fill-rule:evenodd;fill:rgb(0%,0%,0%);fill-opacity:1;stroke-width:1;stroke-linecap:butt;stroke-linejoin:miter;stroke:rgb(0%,0%,0%);stroke-opacity:1;stroke-miterlimit:4;" d="M 192.302083 152.697917 L 185.098958 146.802083 L 187 145 Z M 192.302083 152.697917 " transform="matrix(0.75,0,0,0.75,0,0)"/>
<path style="fill-rule:evenodd;fill:rgb(100%,0%,0%);fill-opacity:1;stroke-width:1;stroke-linecap:butt;stroke-linejoin:miter;stroke:rgb(100%,0%,0%);stroke-opacity:1;stroke-miterlimit:4;" d="M 185.098958 146.802083 L 181.697917 137.302083 L 177.802083 140.802083 Z M 185.098958 146.802083 " transform="matrix(0.75,0,0,0.75,0,0)"/>
<path style="fill-rule:evenodd;fill:rgb(100%,0%,0%);fill-opacity:1;stroke-width:1;stroke-linecap:butt;stroke-linejoin:miter;stroke:rgb(100%,0%,0%);stroke-opacity:1;stroke-miterlimit:4;" d="M 185.098958 146.802083 L 187 145 L 181.697917 137.302083 Z M 185.098958 146.802083 " transform="matrix(0.75,0,0,0.75,0,0)"/>
<path style="fill:none;stroke-width:2;stroke-linecap:butt;stroke-linejoin:miter;stroke:rgb(0%,0%,0%);stroke-opacity:1;stroke-miterlimit:4;" d="M 192.302083 152.697917 L 209.302083 139.697917 " transform="matrix(0.75,0,0,0.75,0,0)"/>
<path style="fill:none;stroke-width:2;stroke-linecap:butt;stroke-linejoin:miter;stroke:rgb(0%,0%,0%);stroke-opacity:1;stroke-miterlimit:4;" d="M 216.697917 134.901042 L 236.098958 124.802083 " transform="matrix(0.75,0,0,0.75,0,0)"/>
<path style="fill-rule:evenodd;fill:rgb(0%,0%,0%);fill-opacity:1;stroke-width:1;stroke-linecap:butt;stroke-linejoin:miter;stroke:rgb(0%,0%,0%);stroke-opacity:1;stroke-miterlimit:4;" d="M 236.098958 124.802083 L 231 116 L 233.401042 115 Z M 236.098958 124.802083 " transform="matrix(0.75,0,0,0.75,0,0)"/>
<path style="fill-rule:evenodd;fill:rgb(100%,0%,0%);fill-opacity:1;stroke-width:1;stroke-linecap:butt;stroke-linejoin:miter;stroke:rgb(100%,0%,0%);stroke-opacity:1;stroke-miterlimit:4;" d="M 231 116 L 230.802083 105.302083 L 226 107.302083 Z M 231 116 " transform="matrix(0.75,0,0,0.75,0,0)"/>
<path style="fill-rule:evenodd;fill:rgb(100%,0%,0%);fill-opacity:1;stroke-width:1;stroke-linecap:butt;stroke-linejoin:miter;stroke:rgb(100%,0%,0%);stroke-opacity:1;stroke-miterlimit:4;" d="M 231 116 L 233.401042 115 L 230.802083 105.302083 Z M 231 116 " transform="matrix(0.75,0,0,0.75,0,0)"/>
<path style="fill:none;stroke-width:2;stroke-linecap:butt;stroke-linejoin:miter;stroke:rgb(0%,0%,0%);stroke-opacity:1;stroke-miterlimit:4;" d="M 236.098958 124.802083 L 260.901042 116.901042 " transform="matrix(0.75,0,0,0.75,0,0)"/>
<path style="fill:none;stroke-width:1;stroke-linecap:butt;stroke-linejoin:miter;stroke:rgb(0%,0%,0%);stroke-opacity:1;stroke-miterlimit:4;" d="M 260.401042 111.802083 L 259.197917 112.098958 " transform="matrix(0.75,0,0,0.75,0,0)"/>
<path style="fill:none;stroke-width:1;stroke-linecap:butt;stroke-linejoin:miter;stroke:rgb(0%,0%,0%);stroke-opacity:1;stroke-miterlimit:4;" d="M 260 106.697917 L 257.401042 107.197917 " transform="matrix(0.75,0,0,0.75,0,0)"/>
<path style="fill:none;stroke-width:1;stroke-linecap:butt;stroke-linejoin:miter;stroke:rgb(100%,0%,0%);stroke-opacity:1;stroke-miterlimit:4;" d="M 259.5 101.598958 L 255.697917 102.401042 " transform="matrix(0.75,0,0,0.75,0,0)"/>
<path style="fill:none;stroke-width:1;stroke-linecap:butt;stroke-linejoin:miter;stroke:rgb(100%,0%,0%);stroke-opacity:1;stroke-miterlimit:4;" d="M 259 96.5 L 253.901042 97.598958 " transform="matrix(0.75,0,0,0.75,0,0)"/>
<path style="fill:none;stroke-width:2;stroke-linecap:butt;stroke-linejoin:miter;stroke:rgb(0%,0%,0%);stroke-opacity:1;stroke-miterlimit:4;" d="M 260.901042 116.901042 L 283.098958 114 " transform="matrix(0.75,0,0,0.75,0,0)"/>
<path style="fill:none;stroke-width:2;stroke-linecap:butt;stroke-linejoin:miter;stroke:rgb(0%,0%,0%);stroke-opacity:1;stroke-miterlimit:4;" d="M 290.5 113.598958 L 309.098958 114.401042 " transform="matrix(0.75,0,0,0.75,0,0)"/>
<path style="fill:none;stroke-width:2;stroke-linecap:butt;stroke-linejoin:miter;stroke:rgb(0%,0%,0%);stroke-opacity:1;stroke-miterlimit:4;" d="M 316.5 115.401042 L 338.302083 120.197917 " transform="matrix(0.75,0,0,0.75,0,0)"/>
<path style="fill-rule:evenodd;fill:rgb(0%,0%,0%);fill-opacity:1;stroke-width:1;stroke-linecap:butt;stroke-linejoin:miter;stroke:rgb(0%,0%,0%);stroke-opacity:1;stroke-miterlimit:4;" d="M 338.302083 120.197917 L 340 110.197917 L 342.5 110.901042 Z M 338.302083 120.197917 " transform="matrix(0.75,0,0,0.75,0,0)"/>
<path style="fill-rule:evenodd;fill:rgb(100%,0%,0%);fill-opacity:1;stroke-width:1;stroke-linecap:butt;stroke-linejoin:miter;stroke:rgb(100%,0%,0%);stroke-opacity:1;stroke-miterlimit:4;" d="M 340 110.197917 L 346.802083 101.697917 L 341.802083 100.098958 Z M 340 110.197917 " transform="matrix(0.75,0,0,0.75,0,0)"/>
<path style="fill-rule:evenodd;fill:rgb(100%,0%,0%);fill-opacity:1;stroke-width:1;stroke-linecap:butt;stroke-linejoin:miter;stroke:rgb(100%,0%,0%);stroke-opacity:1;stroke-miterlimit:4;" d="M 340 110.197917 L 342.5 110.901042 L 346.802083 101.697917 Z M 340 110.197917 " transform="matrix(0.75,0,0,0.75,0,0)"/>
<path style="fill:none;stroke-width:2;stroke-linecap:butt;stroke-linejoin:miter;stroke:rgb(0%,0%,0%);stroke-opacity:1;stroke-miterlimit:4;" d="M 338.302083 120.197917 L 358.598958 128.598958 " transform="matrix(0.75,0,0,0.75,0,0)"/>
<path style="fill:none;stroke-width:2;stroke-linecap:butt;stroke-linejoin:miter;stroke:rgb(0%,0%,0%);stroke-opacity:1;stroke-miterlimit:4;" d="M 366.098958 132.5 L 384.401042 144.098958 " transform="matrix(0.75,0,0,0.75,0,0)"/>
<path style="fill-rule:evenodd;fill:rgb(0%,0%,0%);fill-opacity:1;stroke-width:1;stroke-linecap:butt;stroke-linejoin:miter;stroke:rgb(0%,0%,0%);stroke-opacity:1;stroke-miterlimit:4;" d="M 384.401042 144.098958 L 389.098958 135.802083 L 391.197917 137.401042 Z M 384.401042 144.098958 " transform="matrix(0.75,0,0,0.75,0,0)"/>
<path style="fill-rule:evenodd;fill:rgb(100%,0%,0%);fill-opacity:1;stroke-width:1;stroke-linecap:butt;stroke-linejoin:miter;stroke:rgb(100%,0%,0%);stroke-opacity:1;stroke-miterlimit:4;" d="M 389.098958 135.802083 L 398 130.598958 L 393.901042 127.401042 Z M 389.098958 135.802083 " transform="matrix(0.75,0,0,0.75,0,0)"/>
<path style="fill-rule:evenodd;fill:rgb(100%,0%,0%);fill-opacity:1;stroke-width:1;stroke-linecap:butt;stroke-linejoin:miter;stroke:rgb(100%,0%,0%);stroke-opacity:1;stroke-miterlimit:4;" d="M 389.098958 135.802083 L 391.197917 137.401042 L 398 130.598958 Z M 389.098958 135.802083 " transform="matrix(0.75,0,0,0.75,0,0)"/>
<path style="fill:none;stroke-width:2;stroke-linecap:butt;stroke-linejoin:miter;stroke:rgb(0%,0%,0%);stroke-opacity:1;stroke-miterlimit:4;" d="M 384.401042 144.098958 L 399.901042 158.302083 " transform="matrix(0.75,0,0,0.75,0,0)"/>
<path style="fill:none;stroke-width:2;stroke-linecap:butt;stroke-linejoin:miter;stroke:rgb(0%,0%,0%);stroke-opacity:1;stroke-miterlimit:4;" d="M 407.197917 166.401042 L 419.5 182.401042 " transform="matrix(0.75,0,0,0.75,0,0)"/>
<path style="fill:none;stroke-width:2;stroke-linecap:butt;stroke-linejoin:miter;stroke:rgb(0%,0%,0%);stroke-opacity:1;stroke-miterlimit:4;" d="M 418.098958 180.197917 L 426.901042 174.5 " transform="matrix(0.75,0,0,0.75,0,0)"/>
<path style="fill:none;stroke-width:2;stroke-linecap:butt;stroke-linejoin:miter;stroke:rgb(100%,0%,0%);stroke-opacity:1;stroke-miterlimit:4;" d="M 426.901042 174.5 L 435.802083 168.901042 " transform="matrix(0.75,0,0,0.75,0,0)"/>
<path style="fill:none;stroke-width:2;stroke-linecap:butt;stroke-linejoin:miter;stroke:rgb(0%,0%,0%);stroke-opacity:1;stroke-miterlimit:4;" d="M 420.901042 184.598958 L 429.697917 178.901042 " transform="matrix(0.75,0,0,0.75,0,0)"/>
<path style="fill:none;stroke-width:2;stroke-linecap:butt;stroke-linejoin:miter;stroke:rgb(100%,0%,0%);stroke-opacity:1;stroke-miterlimit:4;" d="M 429.697917 178.901042 L 438.598958 173.302083 " transform="matrix(0.75,0,0,0.75,0,0)"/>
<path style="fill:none;stroke-width:2;stroke-linecap:butt;stroke-linejoin:miter;stroke:rgb(0%,0%,0%);stroke-opacity:1;stroke-miterlimit:4;" d="M 419.5 182.401042 L 424.302083 191.598958 " transform="matrix(0.75,0,0,0.75,0,0)"/>
<path style="fill:none;stroke-width:2;stroke-linecap:butt;stroke-linejoin:miter;stroke:rgb(100%,0%,0%);stroke-opacity:1;stroke-miterlimit:4;" d="M 424.302083 191.598958 L 429.197917 200.901042 " transform="matrix(0.75,0,0,0.75,0,0)"/>
<path style="fill:none;stroke-width:2;stroke-linecap:butt;stroke-linejoin:miter;stroke:rgb(100%,0%,0%);stroke-opacity:1;stroke-miterlimit:4;" d="M 433 210.197917 L 436.197917 220.302083 " transform="matrix(0.75,0,0,0.75,0,0)"/>
<path style="fill:none;stroke-width:2;stroke-linecap:butt;stroke-linejoin:miter;stroke:rgb(0%,0%,0%);stroke-opacity:1;stroke-miterlimit:4;" d="M 436.197917 220.302083 L 439.401042 230.302083 " transform="matrix(0.75,0,0,0.75,0,0)"/>
<path style="fill:none;stroke-width:1;stroke-linecap:butt;stroke-linejoin:miter;stroke:rgb(0%,0%,0%);stroke-opacity:1;stroke-miterlimit:4;" d="M 444.598958 229.697917 L 444.401042 228.697917 " transform="matrix(0.75,0,0,0.75,0,0)"/>
<path style="fill:none;stroke-width:1;stroke-linecap:butt;stroke-linejoin:miter;stroke:rgb(0%,0%,0%);stroke-opacity:1;stroke-miterlimit:4;" d="M 449.802083 229.098958 L 449.401042 227.098958 " transform="matrix(0.75,0,0,0.75,0,0)"/>
<path style="fill:none;stroke-width:1;stroke-linecap:butt;stroke-linejoin:miter;stroke:rgb(0%,0%,0%);stroke-opacity:1;stroke-miterlimit:4;" d="M 455 228.5 L 454.302083 225.401042 " transform="matrix(0.75,0,0,0.75,0,0)"/>
<path style="fill:none;stroke-width:1;stroke-linecap:butt;stroke-linejoin:miter;stroke:rgb(0%,0%,0%);stroke-opacity:1;stroke-miterlimit:4;" d="M 460.197917 227.802083 L 459.302083 223.802083 " transform="matrix(0.75,0,0,0.75,0,0)"/>
<path style="fill:none;stroke-width:1;stroke-linecap:butt;stroke-linejoin:miter;stroke:rgb(0%,0%,0%);stroke-opacity:1;stroke-miterlimit:4;" d="M 465.401042 227.197917 L 464.302083 222.098958 " transform="matrix(0.75,0,0,0.75,0,0)"/>
<path style="fill:none;stroke-width:2;stroke-linecap:butt;stroke-linejoin:miter;stroke:rgb(0%,0%,0%);stroke-opacity:1;stroke-miterlimit:4;" d="M 439.401042 230.302083 L 442.802083 256.197917 " transform="matrix(0.75,0,0,0.75,0,0)"/>
<path style="fill:none;stroke-width:1;stroke-linecap:butt;stroke-linejoin:miter;stroke:rgb(0%,0%,0%);stroke-opacity:1;stroke-miterlimit:4;" d="M 448.098958 256.5 L 448 255.401042 " transform="matrix(0.75,0,0,0.75,0,0)"/>
<path style="fill:none;stroke-width:1;stroke-linecap:butt;stroke-linejoin:miter;stroke:rgb(0%,0%,0%);stroke-opacity:1;stroke-miterlimit:4;" d="M 453.302083 256.802083 L 453.197917 254.697917 " transform="matrix(0.75,0,0,0.75,0,0)"/>
<path style="fill:none;stroke-width:1;stroke-linecap:butt;stroke-linejoin:miter;stroke:rgb(0%,0%,0%);stroke-opacity:1;stroke-miterlimit:4;" d="M 458.5 257 L 458.401042 253.901042 " transform="matrix(0.75,0,0,0.75,0,0)"/>
<path style="fill:none;stroke-width:1;stroke-linecap:butt;stroke-linejoin:miter;stroke:rgb(0%,0%,0%);stroke-opacity:1;stroke-miterlimit:4;" d="M 463.802083 257.302083 L 463.598958 253.197917 " transform="matrix(0.75,0,0,0.75,0,0)"/>
<path style="fill:none;stroke-width:1;stroke-linecap:butt;stroke-linejoin:miter;stroke:rgb(0%,0%,0%);stroke-opacity:1;stroke-miterlimit:4;" d="M 469 257.598958 L 468.802083 252.401042 " transform="matrix(0.75,0,0,0.75,0,0)"/>
<path style="fill:none;stroke-width:2;stroke-linecap:butt;stroke-linejoin:miter;stroke:rgb(0%,0%,0%);stroke-opacity:1;stroke-miterlimit:4;" d="M 442.802083 256.197917 L 441.697917 282.197917 " transform="matrix(0.75,0,0,0.75,0,0)"/>
<path style="fill:none;stroke-width:1;stroke-linecap:butt;stroke-linejoin:miter;stroke:rgb(0%,0%,0%);stroke-opacity:1;stroke-miterlimit:4;" d="M 446.802083 283.5 L 447 282.302083 " transform="matrix(0.75,0,0,0.75,0,0)"/>
<path style="fill:none;stroke-width:1;stroke-linecap:butt;stroke-linejoin:miter;stroke:rgb(0%,0%,0%);stroke-opacity:1;stroke-miterlimit:4;" d="M 451.901042 284.901042 L 452.302083 282.302083 " transform="matrix(0.75,0,0,0.75,0,0)"/>
<path style="fill:none;stroke-width:1;stroke-linecap:butt;stroke-linejoin:miter;stroke:rgb(100%,0%,0%);stroke-opacity:1;stroke-miterlimit:4;" d="M 457 286.197917 L 457.5 282.302083 " transform="matrix(0.75,0,0,0.75,0,0)"/>
<path style="fill:none;stroke-width:1;stroke-linecap:butt;stroke-linejoin:miter;stroke:rgb(100%,0%,0%);stroke-opacity:1;stroke-miterlimit:4;" d="M 462.098958 287.5 L 462.802083 282.401042 " transform="matrix(0.75,0,0,0.75,0,0)"/>
<path style="fill:none;stroke-width:2;stroke-linecap:butt;stroke-linejoin:miter;stroke:rgb(0%,0%,0%);stroke-opacity:1;stroke-miterlimit:4;" d="M 160.697917 194 L 135.901042 186.197917 " transform="matrix(0.75,0,0,0.75,0,0)"/>
<path style="fill:none;stroke-width:2;stroke-linecap:butt;stroke-linejoin:miter;stroke:rgb(0%,0%,0%);stroke-opacity:1;stroke-miterlimit:4;" d="M 135.901042 186.197917 L 116.697917 203.802083 " transform="matrix(0.75,0,0,0.75,0,0)"/>
<path style="fill-rule:evenodd;fill:rgb(0%,0%,0%);fill-opacity:1;stroke-width:1;stroke-linecap:butt;stroke-linejoin:miter;stroke:rgb(0%,0%,0%);stroke-opacity:1;stroke-miterlimit:4;" d="M 116.697917 203.802083 L 106.401042 201.901042 L 107.197917 199.401042 Z M 116.697917 203.802083 " transform="matrix(0.75,0,0,0.75,0,0)"/>
<path style="fill-rule:evenodd;fill:rgb(100%,0%,0%);fill-opacity:1;stroke-width:1;stroke-linecap:butt;stroke-linejoin:miter;stroke:rgb(100%,0%,0%);stroke-opacity:1;stroke-miterlimit:4;" d="M 106.401042 201.901042 L 97.697917 195.098958 L 96.098958 200.098958 Z M 106.401042 201.901042 " transform="matrix(0.75,0,0,0.75,0,0)"/>
<path style="fill-rule:evenodd;fill:rgb(100%,0%,0%);fill-opacity:1;stroke-width:1;stroke-linecap:butt;stroke-linejoin:miter;stroke:rgb(100%,0%,0%);stroke-opacity:1;stroke-miterlimit:4;" d="M 106.401042 201.901042 L 107.197917 199.401042 L 97.697917 195.098958 Z M 106.401042 201.901042 " transform="matrix(0.75,0,0,0.75,0,0)"/>
<path style="fill:none;stroke-width:2;stroke-linecap:butt;stroke-linejoin:miter;stroke:rgb(0%,0%,0%);stroke-opacity:1;stroke-miterlimit:4;" d="M 116.697917 203.802083 L 122.302083 229.197917 " transform="matrix(0.75,0,0,0.75,0,0)"/>
<path style="fill:none;stroke-width:1;stroke-linecap:butt;stroke-linejoin:miter;stroke:rgb(0%,0%,0%);stroke-opacity:1;stroke-miterlimit:4;" d="M 118.098958 232.401042 L 118.802083 233.098958 " transform="matrix(0.75,0,0,0.75,0,0)"/>
<path style="fill:none;stroke-width:1;stroke-linecap:butt;stroke-linejoin:miter;stroke:rgb(0%,0%,0%);stroke-opacity:1;stroke-miterlimit:4;" d="M 113.901042 235.5 L 115.302083 237.098958 " transform="matrix(0.75,0,0,0.75,0,0)"/>
<path style="fill:none;stroke-width:1;stroke-linecap:butt;stroke-linejoin:miter;stroke:rgb(0%,0%,0%);stroke-opacity:1;stroke-miterlimit:4;" d="M 109.697917 238.697917 L 111.901042 241 " transform="matrix(0.75,0,0,0.75,0,0)"/>
<path style="fill:none;stroke-width:1;stroke-linecap:butt;stroke-linejoin:miter;stroke:rgb(0%,0%,0%);stroke-opacity:1;stroke-miterlimit:4;" d="M 105.598958 241.802083 L 108.401042 244.901042 " transform="matrix(0.75,0,0,0.75,0,0)"/>
<path style="fill:none;stroke-width:1;stroke-linecap:butt;stroke-linejoin:miter;stroke:rgb(0%,0%,0%);stroke-opacity:1;stroke-miterlimit:4;" d="M 101.401042 244.901042 L 104.901042 248.802083 " transform="matrix(0.75,0,0,0.75,0,0)"/>
<path style="fill:none;stroke-width:2;stroke-linecap:butt;stroke-linejoin:miter;stroke:rgb(0%,0%,0%);stroke-opacity:1;stroke-miterlimit:4;" d="M 105.598958 247.598958 L 102.802083 257.802083 " transform="matrix(0.75,0,0,0.75,0,0)"/>
<path style="fill:none;stroke-width:2;stroke-linecap:butt;stroke-linejoin:miter;stroke:rgb(100%,0%,0%);stroke-opacity:1;stroke-miterlimit:4;" d="M 102.802083 257.802083 L 100 268.098958 " transform="matrix(0.75,0,0,0.75,0,0)"/>
<path style="fill:none;stroke-width:2;stroke-linecap:butt;stroke-linejoin:miter;stroke:rgb(0%,0%,0%);stroke-opacity:1;stroke-miterlimit:4;" d="M 100.598958 246.197917 L 97.802083 256.401042 " transform="matrix(0.75,0,0,0.75,0,0)"/>
<path style="fill:none;stroke-width:2;stroke-linecap:butt;stroke-linejoin:miter;stroke:rgb(100%,0%,0%);stroke-opacity:1;stroke-miterlimit:4;" d="M 97.802083 256.401042 L 94.901042 266.697917 " transform="matrix(0.75,0,0,0.75,0,0)"/>
<path style="fill:none;stroke-width:2;stroke-linecap:butt;stroke-linejoin:miter;stroke:rgb(0%,0%,0%);stroke-opacity:1;stroke-miterlimit:4;" d="M 103.098958 246.901042 L 92.197917 246.197917 " transform="matrix(0.75,0,0,0.75,0,0)"/>
<path style="fill:none;stroke-width:2;stroke-linecap:butt;stroke-linejoin:miter;stroke:rgb(100%,0%,0%);stroke-opacity:1;stroke-miterlimit:4;" d="M 92.197917 246.197917 L 81.302083 245.598958 " transform="matrix(0.75,0,0,0.75,0,0)"/>
<path style="fill:none;stroke-width:2;stroke-linecap:butt;stroke-linejoin:miter;stroke:rgb(0%,0%,0%);stroke-opacity:1;stroke-miterlimit:4;" d="M 441.697917 282.197917 L 436.098958 307.697917 " transform="matrix(0.75,0,0,0.75,0,0)"/>
<path style="fill:none;stroke-width:2;stroke-linecap:butt;stroke-linejoin:miter;stroke:rgb(0%,0%,0%);stroke-opacity:1;stroke-miterlimit:4;" d="M 79 287.5 L 104.401042 281.901042 " transform="matrix(0.75,0,0,0.75,0,0)"/>
<path style="fill:none;stroke-width:2;stroke-linecap:butt;stroke-linejoin:miter;stroke:rgb(0%,0%,0%);stroke-opacity:1;stroke-miterlimit:4;" d="M 122.302083 229.197917 L 147.197917 237 " transform="matrix(0.75,0,0,0.75,0,0)"/>
<path style="fill:none;stroke-width:1;stroke-linecap:butt;stroke-linejoin:miter;stroke:rgb(0%,0%,0%);stroke-opacity:1;stroke-miterlimit:4;" d="M 148.802083 241.802083 L 150 241.197917 " transform="matrix(0.75,0,0,0.75,0,0)"/>
<path style="fill:none;stroke-width:1;stroke-linecap:butt;stroke-linejoin:miter;stroke:rgb(0%,0%,0%);stroke-opacity:1;stroke-miterlimit:4;" d="M 150.5 246.598958 L 152.802083 245.401042 " transform="matrix(0.75,0,0,0.75,0,0)"/>
<path style="fill:none;stroke-width:1;stroke-linecap:butt;stroke-linejoin:miter;stroke:rgb(0%,0%,0%);stroke-opacity:1;stroke-miterlimit:4;" d="M 152.197917 251.302083 L 155.697917 249.598958 " transform="matrix(0.75,0,0,0.75,0,0)"/>
<path style="fill:none;stroke-width:1;stroke-linecap:butt;stroke-linejoin:miter;stroke:rgb(0%,0%,0%);stroke-opacity:1;stroke-miterlimit:4;" d="M 153.802083 256.098958 L 158.5 253.802083 " transform="matrix(0.75,0,0,0.75,0,0)"/>
<path style=" stroke:none;fill-rule:nonzero;fill:rgb(100%,0%,0%);fill-opacity:1;" d="M 88.949219 225.824219 C 88.949219 224.925781 89.175781 224.226562 89.625 223.726562 C 90.074219 223.226562 90.699219 222.976562 91.5 222.976562 C 92.351562 222.976562 93 223.226562 93.449219 223.726562 C 93.851562 224.226562 94.050781 224.925781 94.050781 225.824219 C 94.050781 226.726562 93.824219 227.425781 93.375 227.925781 C 92.976562 228.425781 92.351562 228.675781 91.5 228.675781 C 90.699219 228.675781 90.074219 228.425781 89.625 227.925781 C 89.175781 227.425781 88.949219 226.726562 88.949219 225.824219 M 91.5 228.074219 C 92.101562 228.074219 92.550781 227.875 92.851562 227.476562 C 93.148438 227.125 93.300781 226.574219 93.300781 225.824219 C 93.300781 225.074219 93.148438 224.523438 92.851562 224.175781 C 92.550781 223.824219 92.101562 223.648438 91.5 223.648438 C 90.949219 223.648438 90.523438 223.824219 90.226562 224.175781 C 89.925781 224.523438 89.773438 225.074219 89.773438 225.824219 C 89.773438 226.574219 89.925781 227.125 90.226562 227.476562 C 90.523438 227.875 90.949219 228.074219 91.5 228.074219 "/>
<path style=" stroke:none;fill-rule:nonzero;fill:rgb(100%,0%,0%);fill-opacity:1;" d="M 81.601562 192.75 C 81.601562 191.898438 81.824219 191.226562 82.273438 190.726562 C 82.726562 190.226562 83.351562 189.976562 84.148438 189.976562 C 85 189.976562 85.625 190.226562 86.023438 190.726562 C 86.476562 191.226562 86.699219 191.898438 86.699219 192.75 C 86.699219 193.648438 86.476562 194.351562 86.023438 194.851562 C 85.574219 195.398438 84.949219 195.675781 84.148438 195.675781 C 83.351562 195.675781 82.726562 195.398438 82.273438 194.851562 C 81.824219 194.351562 81.601562 193.648438 81.601562 192.75 M 84.148438 195 C 84.699219 195 85.125 194.824219 85.425781 194.476562 C 85.773438 194.074219 85.949219 193.5 85.949219 192.75 C 85.949219 192.050781 85.773438 191.5 85.425781 191.101562 C 85.125 190.75 84.699219 190.574219 84.148438 190.574219 C 83.601562 190.574219 83.175781 190.75 82.875 191.101562 C 82.574219 191.5 82.425781 192.050781 82.425781 192.75 C 82.425781 193.5 82.574219 194.074219 82.875 194.476562 C 83.175781 194.824219 83.601562 195 84.148438 195 "/>
<path style=" stroke:none;fill-rule:nonzero;fill:rgb(100%,0%,0%);fill-opacity:1;" d="M 31.125 165.449219 L 31.875 165.449219 L 31.875 167.851562 L 34.648438 167.851562 L 34.648438 165.449219 L 35.398438 165.449219 L 35.398438 171 L 34.648438 171 L 34.648438 168.449219 L 31.875 168.449219 L 31.875 171 L 31.125 171 L 31.125 165.449219 "/>
<path style=" stroke:none;fill-rule:nonzero;fill:rgb(100%,0%,0%);fill-opacity:1;" d="M 36.074219 168.226562 C 36.074219 167.324219 36.300781 166.625 36.75 166.125 C 37.199219 165.625 37.824219 165.375 38.625 165.375 C 39.425781 165.375 40.050781 165.625 40.5 166.125 C 40.949219 166.625 41.175781 167.324219 41.175781 168.226562 C 41.175781 169.125 40.949219 169.824219 40.5 170.324219 C 40.050781 170.824219 39.425781 171.074219 38.625 171.074219 C 37.824219 171.074219 37.199219 170.824219 36.75 170.324219 C 36.300781 169.824219 36.074219 169.125 36.074219 168.226562 M 38.625 170.476562 C 39.175781 170.476562 39.601562 170.273438 39.898438 169.875 C 40.25 169.523438 40.425781 168.976562 40.425781 168.226562 C 40.425781 167.476562 40.25 166.925781 39.898438 166.574219 C 39.601562 166.226562 39.175781 166.050781 38.625 166.050781 C 38.074219 166.050781 37.648438 166.226562 37.351562 166.574219 C 37.050781 166.925781 36.898438 167.476562 36.898438 168.226562 C 36.898438 168.976562 37.050781 169.523438 37.351562 169.875 C 37.648438 170.273438 38.074219 170.476562 38.625 170.476562 "/>
<path style=" stroke:none;fill-rule:nonzero;fill:rgb(0%,0%,100%);fill-opacity:1;" d="M 17.023438 202.726562 L 17.773438 202.726562 L 17.773438 205.125 L 20.625 205.125 L 20.625 202.726562 L 21.375 202.726562 L 21.375 208.273438 L 20.625 208.273438 L 20.625 205.726562 L 17.773438 205.726562 L 17.773438 208.273438 L 17.023438 208.273438 L 17.023438 202.726562 "/>
<path style=" stroke:none;fill-rule:nonzero;fill:rgb(0%,0%,100%);fill-opacity:1;" d="M 22.050781 208.050781 C 22.148438 207.851562 22.300781 207.675781 22.5 207.523438 C 22.699219 207.425781 22.949219 207.375 23.25 207.375 C 23.648438 207.375 23.949219 207.476562 24.148438 207.675781 C 24.351562 207.875 24.449219 208.148438 24.449219 208.5 C 24.449219 208.851562 24.324219 209.199219 24.074219 209.550781 C 23.773438 209.851562 23.351562 210.199219 22.800781 210.601562 L 24.523438 210.601562 L 24.523438 211.050781 L 22.050781 211.050781 L 22.050781 210.675781 C 22.5 210.375 22.851562 210.101562 23.101562 209.851562 C 23.398438 209.601562 23.601562 209.375 23.699219 209.175781 C 23.851562 208.976562 23.925781 208.75 23.925781 208.5 C 23.925781 208.25 23.875 208.074219 23.773438 207.976562 C 23.625 207.824219 23.449219 207.75 23.25 207.75 C 23.050781 207.75 22.898438 207.800781 22.800781 207.898438 C 22.648438 207.949219 22.523438 208.074219 22.425781 208.273438 L 22.050781 208.050781 "/>
<path style=" stroke:none;fill-rule:nonzero;fill:rgb(0%,0%,100%);fill-opacity:1;" d="M 25.726562 202.726562 L 27.523438 205.648438 C 27.625 205.851562 27.773438 206.125 27.976562 206.476562 C 28.175781 206.824219 28.273438 207.023438 28.273438 207.074219 L 28.273438 202.726562 L 29.023438 202.726562 L 29.023438 208.273438 L 28.273438 208.273438 L 26.324219 205.050781 C 26.175781 204.800781 26.023438 204.550781 25.875 204.300781 C 25.675781 204 25.550781 203.800781 25.5 203.699219 L 25.5 208.273438 L 24.824219 208.273438 L 24.824219 202.726562 L 25.726562 202.726562 "/>
<path style=" stroke:none;fill-rule:nonzero;fill:rgb(100%,0%,0%);fill-opacity:1;" d="M 50.851562 234.300781 C 50.851562 233.449219 51.050781 232.773438 51.449219 232.273438 C 51.898438 231.773438 52.550781 231.523438 53.398438 231.523438 C 54.199219 231.523438 54.824219 231.773438 55.273438 232.273438 C 55.675781 232.773438 55.875 233.449219 55.875 234.300781 C 55.875 235.199219 55.675781 235.925781 55.273438 236.476562 C 54.824219 236.976562 54.199219 237.226562 53.398438 237.226562 C 52.550781 237.226562 51.898438 236.976562 51.449219 236.476562 C 51.050781 235.925781 50.851562 235.199219 50.851562 234.300781 M 53.398438 236.550781 C 53.949219 236.550781 54.375 236.375 54.675781 236.023438 C 54.976562 235.625 55.125 235.050781 55.125 234.300781 C 55.125 233.601562 54.976562 233.074219 54.675781 232.726562 C 54.375 232.324219 53.949219 232.125 53.398438 232.125 C 52.800781 232.125 52.351562 232.300781 52.050781 232.648438 C 51.75 233.050781 51.601562 233.601562 51.601562 234.300781 C 51.601562 235.050781 51.75 235.625 52.050781 236.023438 C 52.351562 236.375 52.800781 236.550781 53.398438 236.550781 "/>
<path style=" stroke:none;fill-rule:nonzero;fill:rgb(100%,0%,0%);fill-opacity:1;" d="M 56.324219 231.601562 L 57.074219 231.601562 L 57.074219 233.925781 L 59.851562 233.925781 L 59.851562 231.601562 L 60.601562 231.601562 L 60.601562 237.074219 L 59.851562 237.074219 L 59.851562 234.523438 L 57.074219 234.523438 L 57.074219 237.074219 L 56.324219 237.074219 L 56.324219 231.601562 "/>
<path style=" stroke:none;fill-rule:nonzero;fill:rgb(0%,0%,0%);fill-opacity:1;" d="M 105.898438 202.199219 C 105.898438 201.300781 106.125 200.601562 106.574219 200.101562 C 106.976562 199.601562 107.601562 199.351562 108.449219 199.351562 C 109.199219 199.351562 109.773438 199.625 110.175781 200.175781 L 109.648438 200.625 C 109.351562 200.226562 108.949219 200.023438 108.449219 200.023438 C 107.851562 200.023438 107.425781 200.199219 107.175781 200.550781 C 106.875 200.949219 106.726562 201.5 106.726562 202.199219 C 106.726562 202.949219 106.875 203.5 107.175781 203.851562 C 107.476562 204.25 107.925781 204.449219 108.523438 204.449219 C 108.925781 204.449219 109.351562 204.324219 109.800781 204.074219 L 110.023438 204.601562 C 109.824219 204.75 109.601562 204.851562 109.351562 204.898438 C 109.050781 205 108.726562 205.050781 108.375 205.050781 C 107.574219 205.050781 106.976562 204.800781 106.574219 204.300781 C 106.125 203.800781 105.898438 203.101562 105.898438 202.199219 "/>
<path style=" stroke:none;fill-rule:nonzero;fill:rgb(100%,0%,0%);fill-opacity:1;" d="M 122.25 164.550781 C 122.25 163.699219 122.476562 163.023438 122.925781 162.523438 C 123.375 162.023438 124 161.773438 124.800781 161.773438 C 125.601562 161.773438 126.226562 162.023438 126.675781 162.523438 C 127.125 163.023438 127.351562 163.699219 127.351562 164.550781 C 127.351562 165.449219 127.125 166.148438 126.675781 166.648438 C 126.226562 167.199219 125.601562 167.476562 124.800781 167.476562 C 124 167.476562 123.375 167.199219 122.925781 166.648438 C 122.476562 166.148438 122.25 165.449219 122.25 164.550781 M 124.800781 166.800781 C 125.351562 166.800781 125.773438 166.625 126.074219 166.273438 C 126.375 165.875 126.523438 165.300781 126.523438 164.550781 C 126.523438 163.851562 126.375 163.324219 126.074219 162.976562 C 125.773438 162.574219 125.351562 162.375 124.800781 162.375 C 124.25 162.375 123.800781 162.550781 123.449219 162.898438 C 123.148438 163.300781 123 163.851562 123 164.550781 C 123 165.300781 123.148438 165.875 123.449219 166.273438 C 123.800781 166.625 124.25 166.800781 124.800781 166.800781 "/>
<path style=" stroke:none;fill-rule:nonzero;fill:rgb(100%,0%,0%);fill-opacity:1;" d="M 128.175781 139.949219 C 128.175781 139.101562 128.375 138.425781 128.773438 137.925781 C 129.226562 137.425781 129.851562 137.175781 130.648438 137.175781 C 131.5 137.175781 132.148438 137.425781 132.601562 137.925781 C 133 138.425781 133.199219 139.101562 133.199219 139.949219 C 133.199219 140.851562 132.976562 141.550781 132.523438 142.050781 C 132.125 142.601562 131.5 142.875 130.648438 142.875 C 129.851562 142.875 129.226562 142.601562 128.773438 142.050781 C 128.375 141.550781 128.175781 140.851562 128.175781 139.949219 M 130.648438 142.199219 C 131.25 142.199219 131.699219 142.023438 132 141.675781 C 132.300781 141.273438 132.449219 140.699219 132.449219 139.949219 C 132.449219 139.25 132.300781 138.699219 132 138.300781 C 131.699219 137.949219 131.25 137.773438 130.648438 137.773438 C 130.101562 137.773438 129.675781 137.949219 129.375 138.300781 C 129.074219 138.699219 128.925781 139.25 128.925781 139.949219 C 128.925781 140.699219 129.074219 141.273438 129.375 141.675781 C 129.675781 142.023438 130.101562 142.199219 130.648438 142.199219 "/>
<path style=" stroke:none;fill-rule:nonzero;fill:rgb(100%,0%,0%);fill-opacity:1;" d="M 133.648438 137.25 L 134.398438 137.25 L 134.398438 139.574219 L 137.175781 139.574219 L 137.175781 137.25 L 137.925781 137.25 L 137.925781 142.726562 L 137.175781 142.726562 L 137.175781 140.175781 L 134.398438 140.175781 L 134.398438 142.726562 L 133.648438 142.726562 L 133.648438 137.25 "/>
<path style=" stroke:none;fill-rule:nonzero;fill:rgb(0%,0%,0%);fill-opacity:1;" d="M 128.925781 129 C 128.925781 128.101562 129.125 127.398438 129.523438 126.898438 C 129.976562 126.398438 130.601562 126.148438 131.398438 126.148438 C 132.148438 126.148438 132.726562 126.425781 133.125 126.976562 L 132.675781 127.425781 C 132.375 127.023438 131.949219 126.824219 131.398438 126.824219 C 130.851562 126.824219 130.425781 127 130.125 127.351562 C 129.824219 127.75 129.675781 128.300781 129.675781 129 C 129.675781 129.75 129.824219 130.300781 130.125 130.648438 C 130.425781 131.050781 130.875 131.25 131.476562 131.25 C 131.875 131.25 132.324219 131.125 132.824219 130.875 L 133.050781 131.476562 C 132.851562 131.574219 132.601562 131.648438 132.300781 131.699219 C 132 131.800781 131.699219 131.851562 131.398438 131.851562 C 130.601562 131.851562 129.976562 131.601562 129.523438 131.101562 C 129.125 130.601562 128.925781 129.898438 128.925781 129 "/>
<path style=" stroke:none;fill-rule:nonzero;fill:rgb(100%,0%,0%);fill-opacity:1;" d="M 123.449219 97.425781 L 124.199219 97.425781 L 124.199219 99.75 L 127.050781 99.75 L 127.050781 97.425781 L 127.800781 97.425781 L 127.800781 102.976562 L 127.050781 102.976562 L 127.050781 100.425781 L 124.199219 100.425781 L 124.199219 102.976562 L 123.449219 102.976562 L 123.449219 97.425781 "/>
<path style=" stroke:none;fill-rule:nonzero;fill:rgb(100%,0%,0%);fill-opacity:1;" d="M 128.476562 100.125 C 128.476562 99.273438 128.675781 98.601562 129.074219 98.101562 C 129.523438 97.601562 130.175781 97.351562 131.023438 97.351562 C 131.824219 97.351562 132.449219 97.601562 132.898438 98.101562 C 133.300781 98.601562 133.5 99.273438 133.5 100.125 C 133.5 101.023438 133.300781 101.75 132.898438 102.300781 C 132.449219 102.800781 131.824219 103.050781 131.023438 103.050781 C 130.175781 103.050781 129.523438 102.800781 129.074219 102.300781 C 128.675781 101.800781 128.476562 101.074219 128.476562 100.125 M 131.023438 102.375 C 131.574219 102.375 132 102.199219 132.300781 101.851562 C 132.601562 101.449219 132.75 100.875 132.75 100.125 C 132.75 99.425781 132.601562 98.898438 132.300781 98.550781 C 132 98.148438 131.574219 97.949219 131.023438 97.949219 C 130.425781 97.949219 129.976562 98.148438 129.675781 98.550781 C 129.375 98.898438 129.226562 99.425781 129.226562 100.125 C 129.226562 100.875 129.375 101.449219 129.675781 101.851562 C 129.976562 102.199219 130.425781 102.375 131.023438 102.375 "/>
<path style=" stroke:none;fill-rule:nonzero;fill:rgb(0%,0%,0%);fill-opacity:1;" d="M 157.574219 102.675781 C 157.574219 101.726562 157.800781 101.023438 158.25 100.574219 C 158.648438 100.074219 159.273438 99.824219 160.125 99.824219 C 160.875 99.824219 161.449219 100.101562 161.851562 100.648438 L 161.324219 101.023438 C 161.023438 100.675781 160.625 100.5 160.125 100.5 C 159.574219 100.5 159.148438 100.675781 158.851562 101.023438 C 158.550781 101.375 158.398438 101.925781 158.398438 102.675781 C 158.398438 103.375 158.550781 103.925781 158.851562 104.324219 C 159.148438 104.675781 159.601562 104.851562 160.199219 104.851562 C 160.601562 104.851562 161.023438 104.726562 161.476562 104.476562 L 161.699219 105.074219 C 161.5 105.226562 161.273438 105.324219 161.023438 105.375 C 160.726562 105.476562 160.398438 105.523438 160.050781 105.523438 C 159.25 105.523438 158.648438 105.273438 158.25 104.773438 C 157.800781 104.273438 157.574219 103.574219 157.574219 102.675781 "/>
<path style=" stroke:none;fill-rule:nonzero;fill:rgb(100%,0%,0%);fill-opacity:1;" d="M 162 72.824219 L 162.75 72.824219 L 162.75 75.148438 L 165.601562 75.148438 L 165.601562 72.824219 L 166.351562 72.824219 L 166.351562 78.300781 L 165.601562 78.300781 L 165.601562 75.75 L 162.75 75.75 L 162.75 78.300781 L 162 78.300781 L 162 72.824219 "/>
<path style=" stroke:none;fill-rule:nonzero;fill:rgb(100%,0%,0%);fill-opacity:1;" d="M 167.023438 75.523438 C 167.023438 74.625 167.226562 73.949219 167.625 73.5 C 168.074219 73 168.726562 72.75 169.574219 72.75 C 170.375 72.75 171 73 171.449219 73.5 C 171.898438 73.949219 172.125 74.625 172.125 75.523438 C 172.125 76.425781 171.898438 77.125 171.449219 77.625 C 171 78.125 170.375 78.375 169.574219 78.375 C 168.726562 78.375 168.074219 78.125 167.625 77.625 C 167.226562 77.125 167.023438 76.425781 167.023438 75.523438 M 169.574219 77.773438 C 170.125 77.773438 170.550781 77.601562 170.851562 77.25 C 171.148438 76.851562 171.300781 76.273438 171.300781 75.523438 C 171.300781 74.824219 171.148438 74.273438 170.851562 73.875 C 170.550781 73.523438 170.125 73.351562 169.574219 73.351562 C 168.976562 73.351562 168.523438 73.523438 168.226562 73.875 C 167.925781 74.273438 167.773438 74.824219 167.773438 75.523438 C 167.773438 76.273438 167.925781 76.851562 168.226562 77.25 C 168.523438 77.601562 168.976562 77.773438 169.574219 77.773438 "/>
<path style=" stroke:none;fill-rule:nonzero;fill:rgb(100%,0%,0%);fill-opacity:1;" d="M 188.925781 68.625 C 188.925781 67.726562 189.125 67.023438 189.523438 66.523438 C 189.976562 66.023438 190.601562 65.773438 191.398438 65.773438 C 192.25 65.773438 192.898438 66.023438 193.351562 66.523438 C 193.75 67.023438 193.949219 67.726562 193.949219 68.625 C 193.949219 69.523438 193.726562 70.226562 193.273438 70.726562 C 192.875 71.226562 192.25 71.476562 191.398438 71.476562 C 190.601562 71.476562 189.976562 71.226562 189.523438 70.726562 C 189.125 70.226562 188.925781 69.523438 188.925781 68.625 M 191.398438 70.875 C 192 70.875 192.449219 70.675781 192.75 70.273438 C 193.050781 69.925781 193.199219 69.375 193.199219 68.625 C 193.199219 67.875 193.050781 67.324219 192.75 66.976562 C 192.449219 66.625 192 66.449219 191.398438 66.449219 C 190.851562 66.449219 190.425781 66.625 190.125 66.976562 C 189.824219 67.324219 189.675781 67.875 189.675781 68.625 C 189.675781 69.375 189.824219 69.925781 190.125 70.273438 C 190.425781 70.675781 190.851562 70.875 191.398438 70.875 "/>
<path style=" stroke:none;fill-rule:nonzero;fill:rgb(100%,0%,0%);fill-opacity:1;" d="M 194.398438 65.851562 L 195.148438 65.851562 L 195.148438 68.25 L 197.925781 68.25 L 197.925781 65.851562 L 198.675781 65.851562 L 198.675781 71.398438 L 197.925781 71.398438 L 197.925781 68.851562 L 195.148438 68.851562 L 195.148438 71.398438 L 194.398438 71.398438 L 194.398438 65.851562 "/>
<path style=" stroke:none;fill-rule:nonzero;fill:rgb(0%,0%,0%);fill-opacity:1;" d="M 212.925781 85.125 C 212.925781 84.226562 213.148438 83.523438 213.601562 83.023438 C 214 82.523438 214.625 82.273438 215.476562 82.273438 C 216.226562 82.273438 216.800781 82.550781 217.199219 83.101562 L 216.675781 83.550781 C 216.375 83.148438 215.976562 82.949219 215.476562 82.949219 C 214.925781 82.949219 214.5 83.125 214.199219 83.476562 C 213.898438 83.875 213.75 84.425781 213.75 85.125 C 213.75 85.875 213.898438 86.425781 214.199219 86.773438 C 214.5 87.175781 214.949219 87.375 215.550781 87.375 C 215.949219 87.375 216.375 87.25 216.824219 87 L 217.050781 87.601562 C 216.898438 87.699219 216.675781 87.800781 216.375 87.898438 C 216.074219 87.949219 215.75 87.976562 215.398438 87.976562 C 214.601562 87.976562 214 87.726562 213.601562 87.226562 C 213.148438 86.726562 212.925781 86.023438 212.925781 85.125 "/>
<path style=" stroke:none;fill-rule:nonzero;fill:rgb(0%,0%,0%);fill-opacity:1;" d="M 232.5 85.949219 C 232.5 85.050781 232.699219 84.351562 233.101562 83.851562 C 233.550781 83.398438 234.175781 83.175781 234.976562 83.175781 C 235.726562 83.175781 236.300781 83.425781 236.699219 83.925781 L 236.25 84.375 C 235.949219 83.976562 235.523438 83.773438 234.976562 83.773438 C 234.425781 83.773438 234 83.976562 233.699219 84.375 C 233.398438 84.726562 233.25 85.25 233.25 85.949219 C 233.25 86.699219 233.398438 87.25 233.699219 87.601562 C 234 88 234.449219 88.199219 235.050781 88.199219 C 235.449219 88.199219 235.898438 88.074219 236.398438 87.824219 L 236.625 88.425781 C 236.425781 88.523438 236.175781 88.625 235.875 88.726562 C 235.574219 88.773438 235.273438 88.800781 234.976562 88.800781 C 234.175781 88.800781 233.550781 88.550781 233.101562 88.050781 C 232.699219 87.550781 232.5 86.851562 232.5 85.949219 "/>
<path style=" stroke:none;fill-rule:nonzero;fill:rgb(100%,0%,0%);fill-opacity:1;" d="M 257.023438 71.476562 C 257.023438 70.625 257.25 69.949219 257.699219 69.449219 C 258.101562 68.949219 258.726562 68.699219 259.574219 68.699219 C 260.375 68.699219 261 68.949219 261.449219 69.449219 C 261.898438 69.949219 262.125 70.625 262.125 71.476562 C 262.125 72.375 261.898438 73.101562 261.449219 73.648438 C 261 74.148438 260.375 74.398438 259.574219 74.398438 C 258.726562 74.398438 258.101562 74.148438 257.699219 73.648438 C 257.25 73.148438 257.023438 72.425781 257.023438 71.476562 M 259.574219 73.726562 C 260.125 73.726562 260.550781 73.550781 260.851562 73.199219 C 261.148438 72.800781 261.300781 72.226562 261.300781 71.476562 C 261.300781 70.773438 261.148438 70.25 260.851562 69.898438 C 260.550781 69.5 260.125 69.300781 259.574219 69.300781 C 258.976562 69.300781 258.523438 69.5 258.226562 69.898438 C 257.925781 70.25 257.773438 70.773438 257.773438 71.476562 C 257.773438 72.226562 257.925781 72.800781 258.226562 73.199219 C 258.523438 73.550781 258.976562 73.726562 259.574219 73.726562 "/>
<path style=" stroke:none;fill-rule:nonzero;fill:rgb(100%,0%,0%);fill-opacity:1;" d="M 262.5 68.773438 L 263.25 68.773438 L 263.25 71.101562 L 266.101562 71.101562 L 266.101562 68.773438 L 266.851562 68.773438 L 266.851562 74.324219 L 266.101562 74.324219 L 266.101562 71.699219 L 263.25 71.699219 L 263.25 74.324219 L 262.5 74.324219 L 262.5 68.773438 "/>
<path style=" stroke:none;fill-rule:nonzero;fill:rgb(0%,0%,0%);fill-opacity:1;" d="M 269.625 97.648438 C 269.625 96.699219 269.851562 96 270.300781 95.550781 C 270.699219 95.050781 271.324219 94.800781 272.175781 94.800781 C 272.925781 94.800781 273.5 95.074219 273.898438 95.625 L 273.375 96 C 273.074219 95.648438 272.675781 95.476562 272.175781 95.476562 C 271.574219 95.476562 271.148438 95.648438 270.898438 96 C 270.601562 96.398438 270.449219 96.949219 270.449219 97.648438 C 270.449219 98.351562 270.601562 98.898438 270.898438 99.300781 C 271.199219 99.648438 271.648438 99.824219 272.25 99.824219 C 272.648438 99.824219 273.074219 99.699219 273.523438 99.449219 L 273.75 100.050781 C 273.550781 100.199219 273.324219 100.300781 273.074219 100.351562 C 272.773438 100.449219 272.449219 100.5 272.101562 100.5 C 271.300781 100.5 270.699219 100.25 270.300781 99.75 C 269.851562 99.25 269.625 98.550781 269.625 97.648438 "/>
<path style=" stroke:none;fill-rule:nonzero;fill:rgb(100%,0%,0%);fill-opacity:1;" d="M 297.601562 92.550781 C 297.601562 91.699219 297.824219 91.023438 298.273438 90.523438 C 298.726562 90.023438 299.351562 89.773438 300.148438 89.773438 C 300.949219 89.773438 301.574219 90.023438 302.023438 90.523438 C 302.476562 91.023438 302.699219 91.699219 302.699219 92.550781 C 302.699219 93.449219 302.476562 94.175781 302.023438 94.726562 C 301.574219 95.226562 300.949219 95.476562 300.148438 95.476562 C 299.351562 95.476562 298.726562 95.226562 298.273438 94.726562 C 297.824219 94.226562 297.601562 93.5 297.601562 92.550781 M 300.148438 94.800781 C 300.699219 94.800781 301.125 94.625 301.425781 94.273438 C 301.726562 93.875 301.875 93.300781 301.875 92.550781 C 301.875 91.851562 301.726562 91.324219 301.425781 90.976562 C 301.125 90.574219 300.699219 90.375 300.148438 90.375 C 299.601562 90.375 299.175781 90.574219 298.875 90.976562 C 298.574219 91.324219 298.425781 91.851562 298.425781 92.550781 C 298.425781 93.300781 298.574219 93.875 298.875 94.273438 C 299.175781 94.625 299.601562 94.800781 300.148438 94.800781 "/>
<path style=" stroke:none;fill-rule:nonzero;fill:rgb(100%,0%,0%);fill-opacity:1;" d="M 303.074219 89.851562 L 303.824219 89.851562 L 303.824219 92.175781 L 306.675781 92.175781 L 306.675781 89.851562 L 307.425781 89.851562 L 307.425781 95.398438 L 306.675781 95.398438 L 306.675781 92.851562 L 303.824219 92.851562 L 303.824219 95.398438 L 303.074219 95.398438 L 303.074219 89.851562 "/>
<path style=" stroke:none;fill-rule:nonzero;fill:rgb(0%,0%,0%);fill-opacity:1;" d="M 300.523438 121.273438 C 300.523438 120.375 300.75 119.699219 301.199219 119.25 C 301.648438 118.75 302.273438 118.5 303.074219 118.5 C 303.824219 118.5 304.398438 118.773438 304.800781 119.324219 L 304.351562 119.699219 C 304.050781 119.300781 303.625 119.101562 303.074219 119.101562 C 302.523438 119.101562 302.101562 119.300781 301.800781 119.699219 C 301.5 120.050781 301.351562 120.574219 301.351562 121.273438 C 301.351562 122.023438 301.5 122.601562 301.800781 123 C 302.101562 123.351562 302.550781 123.523438 303.148438 123.523438 C 303.550781 123.523438 304 123.398438 304.5 123.148438 L 304.726562 123.75 C 304.523438 123.898438 304.273438 124 303.976562 124.050781 C 303.675781 124.101562 303.375 124.125 303.074219 124.125 C 302.273438 124.125 301.648438 123.898438 301.199219 123.449219 C 300.75 122.949219 300.523438 122.226562 300.523438 121.273438 "/>
<path style=" stroke:none;fill-rule:nonzero;fill:rgb(100%,0%,0%);fill-opacity:1;" d="M 328.574219 126.300781 C 328.574219 125.398438 328.773438 124.699219 329.175781 124.199219 C 329.625 123.699219 330.273438 123.449219 331.125 123.449219 C 331.925781 123.449219 332.550781 123.699219 333 124.199219 C 333.398438 124.699219 333.601562 125.398438 333.601562 126.300781 C 333.601562 127.199219 333.398438 127.898438 333 128.398438 C 332.550781 128.898438 331.925781 129.148438 331.125 129.148438 C 330.273438 129.148438 329.625 128.898438 329.175781 128.398438 C 328.773438 127.898438 328.574219 127.199219 328.574219 126.300781 M 331.125 128.550781 C 331.675781 128.550781 332.101562 128.351562 332.398438 127.949219 C 332.699219 127.601562 332.851562 127.050781 332.851562 126.300781 C 332.851562 125.550781 332.699219 125 332.398438 124.648438 C 332.101562 124.300781 331.675781 124.125 331.125 124.125 C 330.523438 124.125 330.074219 124.300781 329.773438 124.648438 C 329.476562 125 329.324219 125.550781 329.324219 126.300781 C 329.324219 127.050781 329.476562 127.601562 329.773438 127.949219 C 330.074219 128.351562 330.523438 128.550781 331.125 128.550781 "/>
<path style=" stroke:none;fill-rule:nonzero;fill:rgb(100%,0%,0%);fill-opacity:1;" d="M 321.148438 154.125 C 321.148438 153.226562 321.351562 152.523438 321.75 152.023438 C 322.199219 151.574219 322.824219 151.351562 323.625 151.351562 C 324.476562 151.351562 325.125 151.574219 325.574219 152.023438 C 325.976562 152.523438 326.175781 153.226562 326.175781 154.125 C 326.175781 155.023438 325.976562 155.726562 325.574219 156.226562 C 325.125 156.726562 324.476562 156.976562 323.625 156.976562 C 322.824219 156.976562 322.199219 156.726562 321.75 156.226562 C 321.351562 155.726562 321.148438 155.023438 321.148438 154.125 M 323.625 156.375 C 324.226562 156.375 324.675781 156.199219 324.976562 155.851562 C 325.273438 155.449219 325.425781 154.875 325.425781 154.125 C 325.425781 153.425781 325.273438 152.875 324.976562 152.476562 C 324.675781 152.125 324.226562 151.949219 323.625 151.949219 C 323.074219 151.949219 322.648438 152.125 322.351562 152.476562 C 322.050781 152.875 321.898438 153.425781 321.898438 154.125 C 321.898438 154.875 322.050781 155.449219 322.351562 155.851562 C 322.648438 156.199219 323.074219 156.375 323.625 156.375 "/>
<path style=" stroke:none;fill-rule:nonzero;fill:rgb(100%,0%,0%);fill-opacity:1;" d="M 348.148438 214.199219 C 348.148438 213.300781 348.375 212.625 348.824219 212.175781 C 349.226562 211.675781 349.851562 211.425781 350.699219 211.425781 C 351.5 211.425781 352.125 211.675781 352.574219 212.175781 C 353.023438 212.625 353.25 213.300781 353.25 214.199219 C 353.25 215.101562 353.023438 215.800781 352.574219 216.300781 C 352.125 216.800781 351.5 217.050781 350.699219 217.050781 C 349.898438 217.050781 349.273438 216.800781 348.824219 216.300781 C 348.375 215.800781 348.148438 215.101562 348.148438 214.199219 M 350.699219 216.449219 C 351.25 216.449219 351.675781 216.273438 351.976562 215.925781 C 352.273438 215.523438 352.425781 214.949219 352.425781 214.199219 C 352.425781 213.5 352.273438 212.949219 351.976562 212.550781 C 351.675781 212.199219 351.25 212.023438 350.699219 212.023438 C 350.148438 212.023438 349.699219 212.199219 349.351562 212.550781 C 349.050781 212.949219 348.898438 213.5 348.898438 214.199219 C 348.898438 214.949219 349.050781 215.523438 349.351562 215.925781 C 349.699219 216.273438 350.148438 216.449219 350.699219 216.449219 "/>
<path style=" stroke:none;fill-rule:nonzero;fill:rgb(100%,0%,0%);fill-opacity:1;" d="M 353.625 211.5 L 354.375 211.5 L 354.375 213.824219 L 357.226562 213.824219 L 357.226562 211.5 L 357.976562 211.5 L 357.976562 216.976562 L 357.226562 216.976562 L 357.226562 214.425781 L 354.375 214.425781 L 354.375 216.976562 L 353.625 216.976562 L 353.625 211.5 "/>
<path style=" stroke:none;fill-rule:nonzero;fill:rgb(100%,0%,0%);fill-opacity:1;" d="M 61.273438 144.226562 L 62.023438 144.226562 L 62.023438 146.625 L 64.875 146.625 L 64.875 144.226562 L 65.625 144.226562 L 65.625 149.773438 L 64.875 149.773438 L 64.875 147.226562 L 62.023438 147.226562 L 62.023438 149.773438 L 61.273438 149.773438 L 61.273438 144.226562 "/>
<path style=" stroke:none;fill-rule:nonzero;fill:rgb(100%,0%,0%);fill-opacity:1;" d="M 66.300781 147 C 66.300781 146.101562 66.523438 145.398438 66.976562 144.898438 C 67.375 144.398438 68 144.148438 68.851562 144.148438 C 69.648438 144.148438 70.273438 144.398438 70.726562 144.898438 C 71.175781 145.398438 71.398438 146.101562 71.398438 147 C 71.398438 147.898438 71.175781 148.601562 70.726562 149.101562 C 70.273438 149.601562 69.648438 149.851562 68.851562 149.851562 C 68.050781 149.851562 67.425781 149.601562 66.976562 149.101562 C 66.523438 148.601562 66.300781 147.898438 66.300781 147 M 68.851562 149.25 C 69.398438 149.25 69.824219 149.050781 70.125 148.648438 C 70.425781 148.300781 70.574219 147.75 70.574219 147 C 70.574219 146.25 70.425781 145.699219 70.125 145.351562 C 69.824219 145 69.398438 144.824219 68.851562 144.824219 C 68.300781 144.824219 67.851562 145 67.5 145.351562 C 67.199219 145.699219 67.050781 146.25 67.050781 147 C 67.050781 147.75 67.199219 148.300781 67.5 148.648438 C 67.851562 149.050781 68.300781 149.25 68.851562 149.25 "/>
<path style=" stroke:none;fill-rule:nonzero;fill:rgb(100%,0%,0%);fill-opacity:1;" d="M 69.601562 204 C 69.601562 203.101562 69.824219 202.398438 70.273438 201.898438 C 70.675781 201.449219 71.300781 201.226562 72.148438 201.226562 C 72.949219 201.226562 73.574219 201.449219 74.023438 201.898438 C 74.476562 202.398438 74.699219 203.101562 74.699219 204 C 74.699219 204.898438 74.476562 205.601562 74.023438 206.101562 C 73.574219 206.601562 72.949219 206.851562 72.148438 206.851562 C 71.351562 206.851562 70.726562 206.601562 70.273438 206.101562 C 69.824219 205.601562 69.601562 204.898438 69.601562 204 M 72.148438 206.25 C 72.699219 206.25 73.125 206.074219 73.425781 205.726562 C 73.726562 205.324219 73.875 204.75 73.875 204 C 73.875 203.300781 73.726562 202.75 73.425781 202.351562 C 73.125 202 72.699219 201.824219 72.148438 201.824219 C 71.601562 201.824219 71.148438 202 70.800781 202.351562 C 70.5 202.75 70.351562 203.300781 70.351562 204 C 70.351562 204.75 70.5 205.324219 70.800781 205.726562 C 71.148438 206.074219 71.601562 206.25 72.148438 206.25 "/>
<path style=" stroke:none;fill-rule:nonzero;fill:rgb(100%,0%,0%);fill-opacity:1;" d="M 50.25 181.273438 L 51.074219 181.273438 L 51.074219 183.601562 L 53.851562 183.601562 L 53.851562 181.273438 L 54.601562 181.273438 L 54.601562 186.75 L 53.851562 186.75 L 53.851562 184.199219 L 51.074219 184.199219 L 51.074219 186.75 L 50.25 186.75 L 50.25 181.273438 "/>
<path style=" stroke:none;fill-rule:nonzero;fill:rgb(100%,0%,0%);fill-opacity:1;" d="M 55.273438 183.976562 C 55.273438 183.125 55.5 182.449219 55.949219 181.949219 C 56.398438 181.449219 57.023438 181.199219 57.824219 181.199219 C 58.625 181.199219 59.25 181.449219 59.699219 181.949219 C 60.148438 182.449219 60.375 183.125 60.375 183.976562 C 60.375 184.875 60.148438 185.574219 59.699219 186.074219 C 59.25 186.625 58.625 186.898438 57.824219 186.898438 C 57.023438 186.898438 56.398438 186.625 55.949219 186.074219 C 55.5 185.574219 55.273438 184.875 55.273438 183.976562 M 57.824219 186.226562 C 58.375 186.226562 58.800781 186.050781 59.101562 185.699219 C 59.398438 185.300781 59.550781 184.726562 59.550781 183.976562 C 59.550781 183.273438 59.398438 182.726562 59.101562 182.324219 C 58.800781 181.976562 58.375 181.800781 57.824219 181.800781 C 57.273438 181.800781 56.851562 181.976562 56.550781 182.324219 C 56.25 182.726562 56.101562 183.273438 56.101562 183.976562 C 56.101562 184.726562 56.25 185.300781 56.550781 185.699219 C 56.851562 186.050781 57.273438 186.226562 57.824219 186.226562 "/>
<path style=" stroke:none;fill-rule:nonzero;fill:rgb(0%,0%,0%);fill-opacity:1;" d="M 117 192.523438 L 117.75 192.523438 L 117.75 194.851562 L 120.523438 194.851562 L 120.523438 192.523438 L 121.273438 192.523438 L 121.273438 198.074219 L 120.523438 198.074219 L 120.523438 195.449219 L 117.75 195.449219 L 117.75 198.074219 L 117 198.074219 L 117 192.523438 "/>
</g>
</svg>
