<?xml version="1.0" encoding="UTF-8"?>
<svg xmlns="http://www.w3.org/2000/svg" xmlns:xlink="http://www.w3.org/1999/xlink" width="375pt" height="375pt" viewBox="0 0 375 375" version="1.1">
<g id="surface21">
<rect x="0" y="0" width="375" height="375" style="fill:rgb(100%,100%,100%);fill-opacity:1;stroke:none;"/>
<path style="fill:none;stroke-width:2;stroke-linecap:butt;stroke-linejoin:miter;stroke:rgb(0%,0%,0%);stroke-opacity:1;stroke-miterlimit:4;" d="M 157.598958 362.697917 L 145.5 314.598958 " transform="matrix(0.75,0,0,0.75,0,0)"/>
<path style="fill:none;stroke-width:2;stroke-linecap:butt;stroke-linejoin:miter;stroke:rgb(0%,0%,0%);stroke-opacity:1;stroke-miterlimit:4;" d="M 145.5 314.598958 L 98.901042 331.697917 " transform="matrix(0.75,0,0,0.75,0,0)"/>
<path style="fill:none;stroke-width:2;stroke-linecap:butt;stroke-linejoin:miter;stroke:rgb(0%,0%,0%);stroke-opacity:1;stroke-miterlimit:4;" d="M 145.5 314.598958 L 166.901042 311.5 " transform="matrix(0.75,0,0,0.75,0,0)"/>
<path style="fill:none;stroke-width:2;stroke-linecap:butt;stroke-linejoin:miter;stroke:rgb(80%,80%,0%);stroke-opacity:1;stroke-miterlimit:4;" d="M 166.901042 311.5 L 188.401042 308.5 " transform="matrix(0.75,0,0,0.75,0,0)"/>
<path style="fill:none;stroke-width:2;stroke-linecap:butt;stroke-linejoin:miter;stroke:rgb(80%,80%,0%);stroke-opacity:1;stroke-miterlimit:4;" d="M 196 299 L 199.5 278.901042 " transform="matrix(0.75,0,0,0.75,0,0)"/>
<path style="fill:none;stroke-width:2;stroke-linecap:butt;stroke-linejoin:miter;stroke:rgb(0%,0%,0%);stroke-opacity:1;stroke-miterlimit:4;" d="M 199.5 278.901042 L 203 258.802083 " transform="matrix(0.75,0,0,0.75,0,0)"/>
<path style="fill:none;stroke-width:2;stroke-linecap:butt;stroke-linejoin:miter;stroke:rgb(0%,0%,0%);stroke-opacity:1;stroke-miterlimit:4;" d="M 203 258.802083 L 226.197917 215 " transform="matrix(0.75,0,0,0.75,0,0)"/>
<path style="fill-rule:evenodd;fill:rgb(0%,0%,0%);fill-opacity:1;stroke-width:0.5;stroke-linecap:butt;stroke-linejoin:miter;stroke:rgb(0%,0%,0%);stroke-opacity:1;stroke-miterlimit:4;" d="M 226.197917 215 L 245 207.197917 L 246.098958 210.802083 Z M 226.197917 215 " transform="matrix(0.75,0,0,0.75,0,0)"/>
<path style="fill-rule:evenodd;fill:rgb(0%,0%,100%);fill-opacity:1;stroke-width:0.5;stroke-linecap:butt;stroke-linejoin:miter;stroke:rgb(0%,0%,100%);stroke-opacity:1;stroke-miterlimit:4;" d="M 245 207.197917 L 266.098958 206.598958 L 263.901042 199.5 Z M 245 207.197917 " transform="matrix(0.75,0,0,0.75,0,0)"/>
<path style="fill-rule:evenodd;fill:rgb(0%,0%,100%);fill-opacity:1;stroke-width:0.5;stroke-linecap:butt;stroke-linejoin:miter;stroke:rgb(0%,0%,100%);stroke-opacity:1;stroke-miterlimit:4;" d="M 245 207.197917 L 246.098958 210.802083 L 266.098958 206.598958 Z M 245 207.197917 " transform="matrix(0.75,0,0,0.75,0,0)"/>
<path style="fill:none;stroke-width:2;stroke-linecap:butt;stroke-linejoin:miter;stroke:rgb(0%,0%,100%);stroke-opacity:1;stroke-miterlimit:4;" d="M 280.5 206.802083 L 295.197917 220.5 " transform="matrix(0.75,0,0,0.75,0,0)"/>
<path style="fill:none;stroke-width:2;stroke-linecap:butt;stroke-linejoin:miter;stroke:rgb(0%,0%,0%);stroke-opacity:1;stroke-miterlimit:4;" d="M 295.197917 220.5 L 309.901042 234.098958 " transform="matrix(0.75,0,0,0.75,0,0)"/>
<path style="fill:none;stroke-width:2;stroke-linecap:butt;stroke-linejoin:miter;stroke:rgb(0%,0%,0%);stroke-opacity:1;stroke-miterlimit:4;" d="M 306.697917 231.197917 L 302 252 " transform="matrix(0.75,0,0,0.75,0,0)"/>
<path style="fill:none;stroke-width:2;stroke-linecap:butt;stroke-linejoin:miter;stroke:rgb(100%,0%,0%);stroke-opacity:1;stroke-miterlimit:4;" d="M 302 252 L 297.197917 272.802083 " transform="matrix(0.75,0,0,0.75,0,0)"/>
<path style="fill:none;stroke-width:2;stroke-linecap:butt;stroke-linejoin:miter;stroke:rgb(0%,0%,0%);stroke-opacity:1;stroke-miterlimit:4;" d="M 314 232.802083 L 309.197917 253.697917 " transform="matrix(0.75,0,0,0.75,0,0)"/>
<path style="fill:none;stroke-width:2;stroke-linecap:butt;stroke-linejoin:miter;stroke:rgb(100%,0%,0%);stroke-opacity:1;stroke-miterlimit:4;" d="M 309.197917 253.697917 L 304.5 274.5 " transform="matrix(0.75,0,0,0.75,0,0)"/>
<path style="fill:none;stroke-width:2;stroke-linecap:butt;stroke-linejoin:miter;stroke:rgb(0%,0%,0%);stroke-opacity:1;stroke-miterlimit:4;" d="M 309.901042 234.098958 L 357.302083 219.5 " transform="matrix(0.75,0,0,0.75,0,0)"/>
<path style="fill:none;stroke-width:1;stroke-linecap:butt;stroke-linejoin:miter;stroke:rgb(0%,0%,0%);stroke-opacity:1;stroke-miterlimit:4;" d="M 357.697917 216 L 358.401042 216.098958 " transform="matrix(0.75,0,0,0.75,0,0)"/>
<path style="fill:none;stroke-width:1;stroke-linecap:butt;stroke-linejoin:miter;stroke:rgb(0%,0%,0%);stroke-opacity:1;stroke-miterlimit:4;" d="M 358.197917 212.401042 L 359.5 212.697917 " transform="matrix(0.75,0,0,0.75,0,0)"/>
<path style="fill:none;stroke-width:1;stroke-linecap:butt;stroke-linejoin:miter;stroke:rgb(0%,0%,0%);stroke-opacity:1;stroke-miterlimit:4;" d="M 358.598958 208.901042 L 360.598958 209.302083 " transform="matrix(0.75,0,0,0.75,0,0)"/>
<path style="fill:none;stroke-width:1;stroke-linecap:butt;stroke-linejoin:miter;stroke:rgb(0%,0%,0%);stroke-opacity:1;stroke-miterlimit:4;" d="M 359.098958 205.401042 L 361.697917 206 " transform="matrix(0.75,0,0,0.75,0,0)"/>
<path style="fill:none;stroke-width:1;stroke-linecap:butt;stroke-linejoin:miter;stroke:rgb(0%,0%,0%);stroke-opacity:1;stroke-miterlimit:4;" d="M 359.598958 201.802083 L 362.901042 202.598958 " transform="matrix(0.75,0,0,0.75,0,0)"/>
<path style="fill:none;stroke-width:1;stroke-linecap:butt;stroke-linejoin:miter;stroke:rgb(0%,0%,100%);stroke-opacity:1;stroke-miterlimit:4;" d="M 360 198.302083 L 364 199.197917 " transform="matrix(0.75,0,0,0.75,0,0)"/>
<path style="fill:none;stroke-width:1;stroke-linecap:butt;stroke-linejoin:miter;stroke:rgb(0%,0%,100%);stroke-opacity:1;stroke-miterlimit:4;" d="M 360.5 194.802083 L 365.098958 195.802083 " transform="matrix(0.75,0,0,0.75,0,0)"/>
<path style="fill:none;stroke-width:1;stroke-linecap:butt;stroke-linejoin:miter;stroke:rgb(0%,0%,100%);stroke-opacity:1;stroke-miterlimit:4;" d="M 360.901042 191.197917 L 366.197917 192.401042 " transform="matrix(0.75,0,0,0.75,0,0)"/>
<path style="fill:none;stroke-width:1;stroke-linecap:butt;stroke-linejoin:miter;stroke:rgb(0%,0%,100%);stroke-opacity:1;stroke-miterlimit:4;" d="M 361.401042 187.697917 L 367.302083 189 " transform="matrix(0.75,0,0,0.75,0,0)"/>
<path style="fill:none;stroke-width:1;stroke-linecap:butt;stroke-linejoin:miter;stroke:rgb(0%,0%,100%);stroke-opacity:1;stroke-miterlimit:4;" d="M 361.901042 184.197917 L 368.5 185.697917 " transform="matrix(0.75,0,0,0.75,0,0)"/>
<path style="fill:none;stroke-width:1;stroke-linecap:butt;stroke-linejoin:miter;stroke:rgb(0%,0%,100%);stroke-opacity:1;stroke-miterlimit:4;" d="M 362.302083 180.598958 L 369.598958 182.302083 " transform="matrix(0.75,0,0,0.75,0,0)"/>
<path style="fill:none;stroke-width:2;stroke-linecap:butt;stroke-linejoin:miter;stroke:rgb(0%,0%,0%);stroke-opacity:1;stroke-miterlimit:4;" d="M 357.302083 219.5 L 393.598958 253.197917 " transform="matrix(0.75,0,0,0.75,0,0)"/>
<path style="fill:none;stroke-width:2;stroke-linecap:butt;stroke-linejoin:miter;stroke:rgb(0%,0%,0%);stroke-opacity:1;stroke-miterlimit:4;" d="M 393.598958 253.197917 L 382.5 301.5 " transform="matrix(0.75,0,0,0.75,0,0)"/>
<path style="fill:none;stroke-width:2;stroke-linecap:butt;stroke-linejoin:miter;stroke:rgb(0%,0%,0%);stroke-opacity:1;stroke-miterlimit:4;" d="M 399.901042 259 L 390.697917 299 " transform="matrix(0.75,0,0,0.75,0,0)"/>
<path style="fill:none;stroke-width:2;stroke-linecap:butt;stroke-linejoin:miter;stroke:rgb(0%,0%,0%);stroke-opacity:1;stroke-miterlimit:4;" d="M 382.5 301.5 L 418.901042 335.197917 " transform="matrix(0.75,0,0,0.75,0,0)"/>
<path style="fill:none;stroke-width:2;stroke-linecap:butt;stroke-linejoin:miter;stroke:rgb(0%,0%,0%);stroke-opacity:1;stroke-miterlimit:4;" d="M 418.901042 335.197917 L 466.197917 320.697917 " transform="matrix(0.75,0,0,0.75,0,0)"/>
<path style="fill:none;stroke-width:2;stroke-linecap:butt;stroke-linejoin:miter;stroke:rgb(0%,0%,0%);stroke-opacity:1;stroke-miterlimit:4;" d="M 420.802083 326.901042 L 459.901042 314.802083 " transform="matrix(0.75,0,0,0.75,0,0)"/>
<path style="fill:none;stroke-width:2;stroke-linecap:butt;stroke-linejoin:miter;stroke:rgb(0%,0%,0%);stroke-opacity:1;stroke-miterlimit:4;" d="M 466.197917 320.697917 L 477.302083 272.302083 " transform="matrix(0.75,0,0,0.75,0,0)"/>
<path style="fill:none;stroke-width:2;stroke-linecap:butt;stroke-linejoin:miter;stroke:rgb(0%,0%,0%);stroke-opacity:1;stroke-miterlimit:4;" d="M 477.302083 272.302083 L 440.901042 238.598958 " transform="matrix(0.75,0,0,0.75,0,0)"/>
<path style="fill:none;stroke-width:2;stroke-linecap:butt;stroke-linejoin:miter;stroke:rgb(0%,0%,0%);stroke-opacity:1;stroke-miterlimit:4;" d="M 469.098958 274.901042 L 439 247 " transform="matrix(0.75,0,0,0.75,0,0)"/>
<path style="fill:none;stroke-width:2;stroke-linecap:butt;stroke-linejoin:miter;stroke:rgb(0%,0%,0%);stroke-opacity:1;stroke-miterlimit:4;" d="M 226.197917 215 L 182.401042 191.802083 " transform="matrix(0.75,0,0,0.75,0,0)"/>
<path style="fill:none;stroke-width:2;stroke-linecap:butt;stroke-linejoin:miter;stroke:rgb(0%,0%,0%);stroke-opacity:1;stroke-miterlimit:4;" d="M 187 194.197917 L 180.598958 173.302083 " transform="matrix(0.75,0,0,0.75,0,0)"/>
<path style="fill:none;stroke-width:2;stroke-linecap:butt;stroke-linejoin:miter;stroke:rgb(100%,0%,0%);stroke-opacity:1;stroke-miterlimit:4;" d="M 180.598958 173.302083 L 174.098958 152.302083 " transform="matrix(0.75,0,0,0.75,0,0)"/>
<path style="fill:none;stroke-width:2;stroke-linecap:butt;stroke-linejoin:miter;stroke:rgb(0%,0%,0%);stroke-opacity:1;stroke-miterlimit:4;" d="M 179.901042 196.401042 L 173.5 175.5 " transform="matrix(0.75,0,0,0.75,0,0)"/>
<path style="fill:none;stroke-width:2;stroke-linecap:butt;stroke-linejoin:miter;stroke:rgb(100%,0%,0%);stroke-opacity:1;stroke-miterlimit:4;" d="M 173.5 175.5 L 167 154.5 " transform="matrix(0.75,0,0,0.75,0,0)"/>
<path style="fill:none;stroke-width:2;stroke-linecap:butt;stroke-linejoin:miter;stroke:rgb(0%,0%,0%);stroke-opacity:1;stroke-miterlimit:4;" d="M 182.401042 191.802083 L 173.098958 209.401042 " transform="matrix(0.75,0,0,0.75,0,0)"/>
<path style="fill:none;stroke-width:2;stroke-linecap:butt;stroke-linejoin:miter;stroke:rgb(0%,0%,100%);stroke-opacity:1;stroke-miterlimit:4;" d="M 173.098958 209.401042 L 163.802083 226.901042 " transform="matrix(0.75,0,0,0.75,0,0)"/>
<path style="fill:none;stroke-width:2;stroke-linecap:butt;stroke-linejoin:miter;stroke:rgb(0%,0%,100%);stroke-opacity:1;stroke-miterlimit:4;" d="M 152.302083 242.401042 L 137.901042 256.197917 " transform="matrix(0.75,0,0,0.75,0,0)"/>
<path style="fill:none;stroke-width:2;stroke-linecap:butt;stroke-linejoin:miter;stroke:rgb(0%,0%,0%);stroke-opacity:1;stroke-miterlimit:4;" d="M 137.901042 256.197917 L 123.598958 270.098958 " transform="matrix(0.75,0,0,0.75,0,0)"/>
<path style="fill:none;stroke-width:1;stroke-linecap:butt;stroke-linejoin:miter;stroke:rgb(0%,0%,0%);stroke-opacity:1;stroke-miterlimit:4;" d="M 120.197917 269.197917 L 120.098958 269.802083 " transform="matrix(0.75,0,0,0.75,0,0)"/>
<path style="fill:none;stroke-width:1;stroke-linecap:butt;stroke-linejoin:miter;stroke:rgb(0%,0%,0%);stroke-opacity:1;stroke-miterlimit:4;" d="M 116.802083 268.302083 L 116.598958 269.5 " transform="matrix(0.75,0,0,0.75,0,0)"/>
<path style="fill:none;stroke-width:1;stroke-linecap:butt;stroke-linejoin:miter;stroke:rgb(0%,0%,0%);stroke-opacity:1;stroke-miterlimit:4;" d="M 113.302083 267.401042 L 113 269.098958 " transform="matrix(0.75,0,0,0.75,0,0)"/>
<path style="fill:none;stroke-width:1;stroke-linecap:butt;stroke-linejoin:miter;stroke:rgb(0%,0%,0%);stroke-opacity:1;stroke-miterlimit:4;" d="M 109.901042 266.598958 L 109.5 268.802083 " transform="matrix(0.75,0,0,0.75,0,0)"/>
<path style="fill:none;stroke-width:1;stroke-linecap:butt;stroke-linejoin:miter;stroke:rgb(0%,0%,0%);stroke-opacity:1;stroke-miterlimit:4;" d="M 106.5 265.697917 L 106 268.5 " transform="matrix(0.75,0,0,0.75,0,0)"/>
<path style="fill:none;stroke-width:1;stroke-linecap:butt;stroke-linejoin:miter;stroke:rgb(0%,0%,0%);stroke-opacity:1;stroke-miterlimit:4;" d="M 103 264.802083 L 102.401042 268.197917 " transform="matrix(0.75,0,0,0.75,0,0)"/>
<path style="fill:none;stroke-width:1;stroke-linecap:butt;stroke-linejoin:miter;stroke:rgb(0%,0%,0%);stroke-opacity:1;stroke-miterlimit:4;" d="M 99.598958 263.901042 L 98.901042 267.802083 " transform="matrix(0.75,0,0,0.75,0,0)"/>
<path style="fill:none;stroke-width:1;stroke-linecap:butt;stroke-linejoin:miter;stroke:rgb(0%,0%,0%);stroke-opacity:1;stroke-miterlimit:4;" d="M 96.098958 263 L 95.401042 267.5 " transform="matrix(0.75,0,0,0.75,0,0)"/>
<path style="fill:none;stroke-width:1;stroke-linecap:butt;stroke-linejoin:miter;stroke:rgb(0%,0%,0%);stroke-opacity:1;stroke-miterlimit:4;" d="M 92.697917 262.098958 L 91.802083 267.197917 " transform="matrix(0.75,0,0,0.75,0,0)"/>
<path style="fill:none;stroke-width:1;stroke-linecap:butt;stroke-linejoin:miter;stroke:rgb(0%,0%,0%);stroke-opacity:1;stroke-miterlimit:4;" d="M 89.302083 261.197917 L 88.302083 266.901042 " transform="matrix(0.75,0,0,0.75,0,0)"/>
<path style="fill:none;stroke-width:1;stroke-linecap:butt;stroke-linejoin:miter;stroke:rgb(0%,0%,0%);stroke-opacity:1;stroke-miterlimit:4;" d="M 85.802083 260.302083 L 84.697917 266.5 " transform="matrix(0.75,0,0,0.75,0,0)"/>
<path style="fill:none;stroke-width:1;stroke-linecap:butt;stroke-linejoin:miter;stroke:rgb(0%,0%,0%);stroke-opacity:1;stroke-miterlimit:4;" d="M 82.401042 259.5 L 81.197917 266.197917 " transform="matrix(0.75,0,0,0.75,0,0)"/>
<path style="fill:none;stroke-width:1;stroke-linecap:butt;stroke-linejoin:miter;stroke:rgb(0%,0%,0%);stroke-opacity:1;stroke-miterlimit:4;" d="M 79 258.598958 L 77.697917 265.901042 " transform="matrix(0.75,0,0,0.75,0,0)"/>
<path style="fill:none;stroke-width:2;stroke-linecap:butt;stroke-linejoin:miter;stroke:rgb(0%,0%,0%);stroke-opacity:1;stroke-miterlimit:4;" d="M 79 262.302083 L 71.802083 242.5 " transform="matrix(0.75,0,0,0.75,0,0)"/>
<path style="fill:none;stroke-width:2;stroke-linecap:butt;stroke-linejoin:miter;stroke:rgb(100%,0%,0%);stroke-opacity:1;stroke-miterlimit:4;" d="M 71.802083 242.5 L 64.5 222.697917 " transform="matrix(0.75,0,0,0.75,0,0)"/>
<path style="fill:none;stroke-width:2;stroke-linecap:butt;stroke-linejoin:miter;stroke:rgb(0%,0%,0%);stroke-opacity:1;stroke-miterlimit:4;" d="M 72.098958 264.901042 L 64.802083 245.098958 " transform="matrix(0.75,0,0,0.75,0,0)"/>
<path style="fill:none;stroke-width:2;stroke-linecap:butt;stroke-linejoin:miter;stroke:rgb(100%,0%,0%);stroke-opacity:1;stroke-miterlimit:4;" d="M 64.802083 245.098958 L 57.5 225.302083 " transform="matrix(0.75,0,0,0.75,0,0)"/>
<path style="fill:none;stroke-width:2;stroke-linecap:butt;stroke-linejoin:miter;stroke:rgb(0%,0%,0%);stroke-opacity:1;stroke-miterlimit:4;" d="M 74.802083 261.598958 L 62.598958 276.302083 " transform="matrix(0.75,0,0,0.75,0,0)"/>
<path style="fill:none;stroke-width:2;stroke-linecap:butt;stroke-linejoin:miter;stroke:rgb(100%,0%,0%);stroke-opacity:1;stroke-miterlimit:4;" d="M 62.598958 276.302083 L 50.302083 290.901042 " transform="matrix(0.75,0,0,0.75,0,0)"/>
<path style="fill:none;stroke-width:2;stroke-linecap:butt;stroke-linejoin:miter;stroke:rgb(0%,0%,0%);stroke-opacity:1;stroke-miterlimit:4;" d="M 123.598958 270.098958 L 145.5 314.598958 " transform="matrix(0.75,0,0,0.75,0,0)"/>
<path style="fill:none;stroke-width:2;stroke-linecap:butt;stroke-linejoin:miter;stroke:rgb(0%,0%,100%);stroke-opacity:1;stroke-miterlimit:4;" d="M 166.197917 239.302083 L 184.598958 249 " transform="matrix(0.75,0,0,0.75,0,0)"/>
<path style="fill:none;stroke-width:2;stroke-linecap:butt;stroke-linejoin:miter;stroke:rgb(0%,0%,0%);stroke-opacity:1;stroke-miterlimit:4;" d="M 184.598958 249 L 203 258.802083 " transform="matrix(0.75,0,0,0.75,0,0)"/>
<path style="fill:none;stroke-width:2;stroke-linecap:butt;stroke-linejoin:miter;stroke:rgb(0%,0%,0%);stroke-opacity:1;stroke-miterlimit:4;" d="M 440.901042 238.598958 L 393.598958 253.197917 " transform="matrix(0.75,0,0,0.75,0,0)"/>
<path style="fill:none;stroke-width:1;stroke-linecap:butt;stroke-linejoin:miter;stroke:rgb(0%,0%,0%);stroke-opacity:1;stroke-miterlimit:4;" d="M 206.302083 259.598958 L 206.098958 260.197917 " transform="matrix(0.75,0,0,0.75,0,0)"/>
<path style="fill:none;stroke-width:1;stroke-linecap:butt;stroke-linejoin:miter;stroke:rgb(0%,0%,0%);stroke-opacity:1;stroke-miterlimit:4;" d="M 209.598958 260.401042 L 209.197917 261.5 " transform="matrix(0.75,0,0,0.75,0,0)"/>
<path style="fill:none;stroke-width:1;stroke-linecap:butt;stroke-linejoin:miter;stroke:rgb(0%,0%,0%);stroke-opacity:1;stroke-miterlimit:4;" d="M 212.901042 261.197917 L 212.302083 262.901042 " transform="matrix(0.75,0,0,0.75,0,0)"/>
<path style="fill:none;stroke-width:1;stroke-linecap:butt;stroke-linejoin:miter;stroke:rgb(0%,0%,0%);stroke-opacity:1;stroke-miterlimit:4;" d="M 216.098958 261.901042 L 215.302083 264.302083 " transform="matrix(0.75,0,0,0.75,0,0)"/>
<path style="fill:none;stroke-width:1;stroke-linecap:butt;stroke-linejoin:miter;stroke:rgb(0%,0%,0%);stroke-opacity:1;stroke-miterlimit:4;" d="M 219.401042 262.697917 L 218.401042 265.697917 " transform="matrix(0.75,0,0,0.75,0,0)"/>
<path style="fill:none;stroke-width:1;stroke-linecap:butt;stroke-linejoin:miter;stroke:rgb(0%,0%,0%);stroke-opacity:1;stroke-miterlimit:4;" d="M 222.697917 263.5 L 221.5 267.098958 " transform="matrix(0.75,0,0,0.75,0,0)"/>
<path style="fill:none;stroke-width:1;stroke-linecap:butt;stroke-linejoin:miter;stroke:rgb(0%,0%,0%);stroke-opacity:1;stroke-miterlimit:4;" d="M 226 264.302083 L 224.598958 268.401042 " transform="matrix(0.75,0,0,0.75,0,0)"/>
<path style="fill:none;stroke-width:1;stroke-linecap:butt;stroke-linejoin:miter;stroke:rgb(0%,0%,0%);stroke-opacity:1;stroke-miterlimit:4;" d="M 229.302083 265.098958 L 227.697917 269.802083 " transform="matrix(0.75,0,0,0.75,0,0)"/>
<path style="fill:none;stroke-width:1;stroke-linecap:butt;stroke-linejoin:miter;stroke:rgb(0%,0%,0%);stroke-opacity:1;stroke-miterlimit:4;" d="M 232.5 265.901042 L 230.697917 271.197917 " transform="matrix(0.75,0,0,0.75,0,0)"/>
<path style="fill:none;stroke-width:1;stroke-linecap:butt;stroke-linejoin:miter;stroke:rgb(0%,0%,0%);stroke-opacity:1;stroke-miterlimit:4;" d="M 235.802083 266.697917 L 233.802083 272.598958 " transform="matrix(0.75,0,0,0.75,0,0)"/>
<path style="fill:none;stroke-width:1;stroke-linecap:butt;stroke-linejoin:miter;stroke:rgb(0%,0%,0%);stroke-opacity:1;stroke-miterlimit:4;" d="M 239.098958 267.5 L 236.901042 273.901042 " transform="matrix(0.75,0,0,0.75,0,0)"/>
<path style="fill:none;stroke-width:1;stroke-linecap:butt;stroke-linejoin:miter;stroke:rgb(0%,0%,0%);stroke-opacity:1;stroke-miterlimit:4;" d="M 242.401042 268.302083 L 240 275.302083 " transform="matrix(0.75,0,0,0.75,0,0)"/>
<path style="fill:none;stroke-width:2;stroke-linecap:butt;stroke-linejoin:miter;stroke:rgb(0%,0%,0%);stroke-opacity:1;stroke-miterlimit:4;" d="M 225 217.098958 L 226.197917 215 L 224 213.802083 " transform="matrix(0.75,0,0,0.75,0,0)"/>
<path style="fill:none;stroke-width:2;stroke-linecap:butt;stroke-linejoin:miter;stroke:rgb(0%,0%,0%);stroke-opacity:1;stroke-miterlimit:4;" d="M 309.197917 233.401042 L 309.901042 234.098958 L 312.302083 233.401042 " transform="matrix(0.75,0,0,0.75,0,0)"/>
<path style="fill:none;stroke-width:2;stroke-linecap:butt;stroke-linejoin:miter;stroke:rgb(0%,0%,0%);stroke-opacity:1;stroke-miterlimit:4;" d="M 354.901042 220.197917 L 357.302083 219.5 L 359.098958 221.197917 " transform="matrix(0.75,0,0,0.75,0,0)"/>
<path style="fill:none;stroke-width:2;stroke-linecap:butt;stroke-linejoin:miter;stroke:rgb(0%,0%,0%);stroke-opacity:1;stroke-miterlimit:4;" d="M 383.098958 299.098958 L 382.5 301.5 L 384.401042 303.197917 " transform="matrix(0.75,0,0,0.75,0,0)"/>
<path style="fill:none;stroke-width:2;stroke-linecap:butt;stroke-linejoin:miter;stroke:rgb(0%,0%,0%);stroke-opacity:1;stroke-miterlimit:4;" d="M 417 333.598958 L 418.901042 335.197917 L 421.197917 334.5 " transform="matrix(0.75,0,0,0.75,0,0)"/>
<path style="fill:none;stroke-width:2;stroke-linecap:butt;stroke-linejoin:miter;stroke:rgb(0%,0%,0%);stroke-opacity:1;stroke-miterlimit:4;" d="M 463.901042 321.401042 L 466.197917 320.697917 L 466.802083 318.197917 " transform="matrix(0.75,0,0,0.75,0,0)"/>
<path style="fill:none;stroke-width:2;stroke-linecap:butt;stroke-linejoin:miter;stroke:rgb(0%,0%,0%);stroke-opacity:1;stroke-miterlimit:4;" d="M 476.697917 274.697917 L 477.302083 272.302083 L 475.5 270.598958 " transform="matrix(0.75,0,0,0.75,0,0)"/>
<path style="fill:none;stroke-width:2;stroke-linecap:butt;stroke-linejoin:miter;stroke:rgb(0%,0%,0%);stroke-opacity:1;stroke-miterlimit:4;" d="M 442.802083 240.302083 L 440.901042 238.598958 L 438.598958 239.302083 " transform="matrix(0.75,0,0,0.75,0,0)"/>
<path style="fill:none;stroke-width:2;stroke-linecap:butt;stroke-linejoin:miter;stroke:rgb(0%,0%,0%);stroke-opacity:1;stroke-miterlimit:4;" d="M 184.598958 192.901042 L 182.401042 191.802083 L 181.901042 192.697917 " transform="matrix(0.75,0,0,0.75,0,0)"/>
<path style="fill:none;stroke-width:2;stroke-linecap:butt;stroke-linejoin:miter;stroke:rgb(0%,0%,0%);stroke-opacity:1;stroke-miterlimit:4;" d="M 124.401042 269.401042 L 123.598958 270.098958 L 124.697917 272.302083 " transform="matrix(0.75,0,0,0.75,0,0)"/>
<path style=" stroke:none;fill-rule:nonzero;fill:rgb(80%,80%,0%);fill-opacity:1;" d="M 142.949219 234.300781 C 143 234.351562 143.199219 234.449219 143.550781 234.601562 C 143.851562 234.699219 144.175781 234.800781 144.523438 234.898438 C 144.925781 235 145.300781 235.050781 145.648438 235.050781 C 146.300781 235.050781 146.824219 234.875 147.226562 234.523438 C 147.625 234.226562 147.824219 233.800781 147.824219 233.25 C 147.824219 232.851562 147.726562 232.523438 147.523438 232.273438 C 147.324219 232.023438 147.074219 231.851562 146.773438 231.75 C 146.476562 231.601562 146.074219 231.449219 145.574219 231.300781 C 144.976562 231.101562 144.476562 230.925781 144.074219 230.773438 C 143.726562 230.574219 143.398438 230.300781 143.101562 229.949219 C 142.851562 229.550781 142.726562 229.050781 142.726562 228.449219 C 142.726562 227.550781 143.023438 226.824219 143.625 226.273438 C 144.226562 225.726562 145.125 225.449219 146.324219 225.449219 C 147.125 225.449219 148 225.648438 148.949219 226.050781 L 148.574219 227.175781 C 147.726562 226.824219 147 226.648438 146.398438 226.648438 C 145.699219 226.648438 145.148438 226.800781 144.75 227.101562 C 144.398438 227.351562 144.226562 227.726562 144.226562 228.226562 C 144.226562 228.625 144.324219 228.925781 144.523438 229.125 C 144.726562 229.375 144.949219 229.550781 145.199219 229.648438 C 145.5 229.800781 145.898438 229.949219 146.398438 230.101562 C 147 230.300781 147.5 230.5 147.898438 230.699219 C 148.25 230.898438 148.574219 231.199219 148.875 231.601562 C 149.125 232 149.25 232.550781 149.25 233.25 C 149.25 234.199219 148.925781 234.925781 148.273438 235.425781 C 147.625 235.976562 146.773438 236.25 145.726562 236.25 C 145.074219 236.25 144.523438 236.175781 144.074219 236.023438 C 143.574219 235.875 143.050781 235.699219 142.5 235.5 L 142.949219 234.300781 "/>
<path style=" stroke:none;fill-rule:nonzero;fill:rgb(0%,0%,100%);fill-opacity:1;" d="M 202.875 144.976562 L 206.324219 150.601562 C 206.523438 150.949219 206.824219 151.449219 207.226562 152.101562 C 207.574219 152.800781 207.75 153.148438 207.75 153.148438 L 207.75 144.976562 L 209.175781 144.976562 L 209.175781 155.550781 L 207.75 155.550781 L 204 149.476562 C 203.75 148.976562 203.449219 148.449219 203.101562 147.898438 C 202.800781 147.351562 202.625 147 202.574219 146.851562 L 202.574219 155.550781 L 201.148438 155.550781 L 201.148438 144.976562 L 202.875 144.976562 "/>
<path style=" stroke:none;fill-rule:nonzero;fill:rgb(0%,0%,100%);fill-opacity:1;" d="M 201.074219 133.425781 L 202.5 133.425781 L 202.5 137.925781 L 207.898438 137.925781 L 207.898438 133.425781 L 209.324219 133.425781 L 209.324219 143.925781 L 207.898438 143.925781 L 207.898438 139.125 L 202.5 139.125 L 202.5 143.925781 L 201.074219 143.925781 L 201.074219 133.425781 "/>
<path style=" stroke:none;fill-rule:nonzero;fill:rgb(100%,0%,0%);fill-opacity:1;" d="M 219.300781 211.800781 C 219.300781 210.148438 219.726562 208.851562 220.574219 207.898438 C 221.375 206.949219 222.550781 206.476562 224.101562 206.476562 C 225.699219 206.476562 226.898438 206.949219 227.699219 207.898438 C 228.550781 208.851562 228.976562 210.148438 228.976562 211.800781 C 228.976562 213.550781 228.550781 214.898438 227.699219 215.851562 C 226.851562 216.800781 225.648438 217.273438 224.101562 217.273438 C 222.601562 217.273438 221.425781 216.800781 220.574219 215.851562 C 219.726562 214.898438 219.300781 213.550781 219.300781 211.800781 M 224.101562 216.074219 C 225.199219 216.074219 226.023438 215.726562 226.574219 215.023438 C 227.175781 214.324219 227.476562 213.25 227.476562 211.800781 C 227.476562 210.449219 227.175781 209.425781 226.574219 208.726562 C 226.023438 208.023438 225.199219 207.675781 224.101562 207.675781 C 223.050781 207.675781 222.226562 208.023438 221.625 208.726562 C 221.074219 209.425781 220.800781 210.449219 220.800781 211.800781 C 220.800781 213.25 221.074219 214.324219 221.625 215.023438 C 222.226562 215.726562 223.050781 216.074219 224.101562 216.074219 "/>
<path style=" stroke:none;fill-rule:nonzero;fill:rgb(0%,0%,100%);fill-opacity:1;" d="M 273.898438 123.074219 L 277.351562 128.699219 C 277.601562 129.050781 277.898438 129.550781 278.25 130.199219 C 278.601562 130.898438 278.800781 131.273438 278.851562 131.324219 L 278.851562 123.074219 L 280.199219 123.074219 L 280.199219 133.648438 L 278.773438 133.648438 L 275.101562 127.574219 C 274.800781 127.074219 274.5 126.550781 274.199219 126 C 273.898438 125.449219 273.699219 125.101562 273.601562 124.949219 L 273.601562 133.648438 L 272.25 133.648438 L 272.25 123.074219 L 273.898438 123.074219 "/>
<path style=" stroke:none;fill-rule:nonzero;fill:rgb(0%,0%,100%);fill-opacity:1;" d="M 282.226562 123.074219 L 283.648438 123.074219 L 283.648438 127.574219 L 289.050781 127.574219 L 289.050781 123.074219 L 290.476562 123.074219 L 290.476562 133.648438 L 289.050781 133.648438 L 289.050781 128.773438 L 283.648438 128.773438 L 283.648438 133.648438 L 282.226562 133.648438 L 282.226562 123.074219 "/>
<path style=" stroke:none;fill-rule:nonzero;fill:rgb(0%,0%,100%);fill-opacity:1;" d="M 292.5 133.273438 C 292.699219 132.824219 293 132.476562 293.398438 132.226562 C 293.800781 131.976562 294.273438 131.851562 294.824219 131.851562 C 295.523438 131.851562 296.074219 132.050781 296.476562 132.449219 C 296.875 132.851562 297.074219 133.375 297.074219 134.023438 C 297.074219 134.726562 296.824219 135.398438 296.324219 136.050781 C 295.824219 136.648438 295.050781 137.351562 294 138.148438 L 297.226562 138.148438 L 297.226562 138.898438 L 292.5 138.898438 L 292.5 138.226562 C 293.351562 137.625 294.050781 137.101562 294.601562 136.648438 C 295.101562 136.199219 295.476562 135.75 295.726562 135.300781 C 295.976562 134.898438 296.101562 134.5 296.101562 134.101562 C 296.101562 133.648438 295.976562 133.300781 295.726562 133.050781 C 295.523438 132.800781 295.226562 132.675781 294.824219 132.675781 C 294.476562 132.675781 294.175781 132.75 293.925781 132.898438 C 293.675781 133.050781 293.449219 133.300781 293.25 133.648438 L 292.5 133.273438 "/>
<path style=" stroke:none;fill-rule:nonzero;fill:rgb(100%,0%,0%);fill-opacity:1;" d="M 120.976562 108.375 C 120.976562 106.675781 121.398438 105.351562 122.25 104.398438 C 123.101562 103.449219 124.300781 102.976562 125.851562 102.976562 C 127.398438 102.976562 128.601562 103.449219 129.449219 104.398438 C 130.25 105.351562 130.648438 106.675781 130.648438 108.375 C 130.648438 110.074219 130.226562 111.398438 129.375 112.351562 C 128.574219 113.300781 127.398438 113.773438 125.851562 113.773438 C 124.300781 113.773438 123.101562 113.300781 122.25 112.351562 C 121.398438 111.398438 120.976562 110.074219 120.976562 108.375 M 125.851562 112.648438 C 126.898438 112.648438 127.726562 112.273438 128.324219 111.523438 C 128.875 110.824219 129.148438 109.773438 129.148438 108.375 C 129.148438 106.976562 128.875 105.925781 128.324219 105.226562 C 127.726562 104.523438 126.898438 104.175781 125.851562 104.175781 C 124.75 104.175781 123.925781 104.523438 123.375 105.226562 C 122.773438 105.925781 122.476562 106.976562 122.476562 108.375 C 122.476562 109.773438 122.773438 110.824219 123.375 111.523438 C 123.925781 112.273438 124.75 112.648438 125.851562 112.648438 "/>
<path style=" stroke:none;fill-rule:nonzero;fill:rgb(0%,0%,100%);fill-opacity:1;" d="M 117.074219 171.449219 L 120.523438 177 C 120.773438 177.398438 121.074219 177.925781 121.425781 178.574219 C 121.773438 179.226562 121.976562 179.574219 122.023438 179.625 L 122.023438 171.449219 L 123.375 171.449219 L 123.375 181.949219 L 121.949219 181.949219 L 118.273438 175.875 C 117.976562 175.375 117.675781 174.851562 117.375 174.300781 C 117.074219 173.800781 116.875 173.449219 116.773438 173.25 L 116.773438 181.949219 L 115.425781 181.949219 L 115.425781 171.449219 L 117.074219 171.449219 "/>
<path style=" stroke:none;fill-rule:nonzero;fill:rgb(100%,0%,0%);fill-opacity:1;" d="M 38.476562 161.324219 C 38.476562 159.625 38.898438 158.324219 39.75 157.425781 C 40.550781 156.476562 41.75 156 43.351562 156 C 44.898438 156 46.074219 156.476562 46.875 157.425781 C 47.726562 158.324219 48.148438 159.625 48.148438 161.324219 C 48.148438 163.023438 47.726562 164.375 46.875 165.375 C 46.023438 166.324219 44.851562 166.800781 43.351562 166.800781 C 41.800781 166.800781 40.601562 166.324219 39.75 165.375 C 38.898438 164.375 38.476562 163.023438 38.476562 161.324219 M 43.351562 165.601562 C 44.398438 165.601562 45.199219 165.25 45.75 164.550781 C 46.351562 163.800781 46.648438 162.726562 46.648438 161.324219 C 46.648438 159.976562 46.351562 158.949219 45.75 158.25 C 45.199219 157.550781 44.398438 157.199219 43.351562 157.199219 C 42.25 157.199219 41.398438 157.550781 40.800781 158.25 C 40.25 158.898438 39.976562 159.925781 39.976562 161.324219 C 39.976562 162.773438 40.25 163.851562 40.800781 164.550781 C 41.398438 165.25 42.25 165.601562 43.351562 165.601562 "/>
<path style=" stroke:none;fill-rule:nonzero;fill:rgb(100%,0%,0%);fill-opacity:1;" d="M 17.023438 219.523438 L 18.449219 219.523438 L 18.449219 224.023438 L 23.851562 224.023438 L 23.851562 219.523438 L 25.273438 219.523438 L 25.273438 230.101562 L 23.851562 230.101562 L 23.851562 225.226562 L 18.449219 225.226562 L 18.449219 230.101562 L 17.023438 230.101562 L 17.023438 219.523438 "/>
<path style=" stroke:none;fill-rule:nonzero;fill:rgb(100%,0%,0%);fill-opacity:1;" d="M 27.449219 224.773438 C 27.449219 223.074219 27.875 221.75 28.726562 220.800781 C 29.523438 219.898438 30.699219 219.449219 32.25 219.449219 C 33.800781 219.449219 35 219.898438 35.851562 220.800781 C 36.699219 221.75 37.125 223.074219 37.125 224.773438 C 37.125 226.476562 36.699219 227.800781 35.851562 228.75 C 35 229.75 33.800781 230.25 32.25 230.25 C 30.699219 230.25 29.523438 229.75 28.726562 228.75 C 27.875 227.800781 27.449219 226.476562 27.449219 224.773438 M 32.25 229.050781 C 33.351562 229.050781 34.175781 228.699219 34.726562 228 C 35.324219 227.25 35.625 226.175781 35.625 224.773438 C 35.625 223.375 35.324219 222.324219 34.726562 221.625 C 34.175781 220.925781 33.351562 220.574219 32.25 220.574219 C 31.199219 220.574219 30.375 220.925781 29.773438 221.625 C 29.226562 222.324219 28.949219 223.375 28.949219 224.773438 C 28.949219 226.175781 29.226562 227.25 29.773438 228 C 30.375 228.699219 31.199219 229.050781 32.25 229.050781 "/>
<path style=" stroke:none;fill-rule:nonzero;fill:rgb(0%,0%,0%);fill-opacity:1;" d="M 183.300781 200.851562 L 184.726562 200.851562 L 184.726562 205.351562 L 190.125 205.351562 L 190.125 200.851562 L 191.550781 200.851562 L 191.550781 211.351562 L 190.125 211.351562 L 190.125 206.476562 L 184.726562 206.476562 L 184.726562 211.351562 L 183.300781 211.351562 L 183.300781 200.851562 "/>
</g>
</svg>
