<?xml version="1.0" encoding="UTF-8"?>
<svg xmlns="http://www.w3.org/2000/svg" xmlns:xlink="http://www.w3.org/1999/xlink" width="375pt" height="375pt" viewBox="0 0 375 375" version="1.1">
<g id="surface206">
<rect x="0" y="0" width="375" height="375" style="fill:rgb(100%,100%,100%);fill-opacity:1;stroke:none;"/>
<path style="fill:none;stroke-width:2;stroke-linecap:butt;stroke-linejoin:miter;stroke:rgb(0%,0%,0%);stroke-opacity:1;stroke-miterlimit:4;" d="M 77.901042 144.901042 L 86.802083 161.098958 " transform="matrix(0.75,0,0,0.75,0,0)"/>
<path style="fill:none;stroke-width:2;stroke-linecap:butt;stroke-linejoin:miter;stroke:rgb(100%,0%,0%);stroke-opacity:1;stroke-miterlimit:4;" d="M 86.802083 161.098958 L 95.802083 177.197917 " transform="matrix(0.75,0,0,0.75,0,0)"/>
<path style="fill:none;stroke-width:2;stroke-linecap:butt;stroke-linejoin:miter;stroke:rgb(100%,0%,0%);stroke-opacity:1;stroke-miterlimit:4;" d="M 107.802083 185.5 L 123.901042 185.802083 " transform="matrix(0.75,0,0,0.75,0,0)"/>
<path style="fill:none;stroke-width:2;stroke-linecap:butt;stroke-linejoin:miter;stroke:rgb(0%,0%,100%);stroke-opacity:1;stroke-miterlimit:4;" d="M 123.901042 185.802083 L 140.098958 186.098958 " transform="matrix(0.75,0,0,0.75,0,0)"/>
<path style="fill:none;stroke-width:2;stroke-linecap:butt;stroke-linejoin:miter;stroke:rgb(0%,0%,100%);stroke-opacity:1;stroke-miterlimit:4;" d="M 151 194.302083 L 160 210.5 " transform="matrix(0.75,0,0,0.75,0,0)"/>
<path style="fill:none;stroke-width:2;stroke-linecap:butt;stroke-linejoin:miter;stroke:rgb(0%,0%,0%);stroke-opacity:1;stroke-miterlimit:4;" d="M 160 210.5 L 169 226.598958 " transform="matrix(0.75,0,0,0.75,0,0)"/>
<path style="fill:none;stroke-width:2;stroke-linecap:butt;stroke-linejoin:miter;stroke:rgb(0%,0%,100%);stroke-opacity:1;stroke-miterlimit:4;" d="M 145.598958 203.598958 L 151.901042 214.901042 " transform="matrix(0.75,0,0,0.75,0,0)"/>
<path style="fill:none;stroke-width:2;stroke-linecap:butt;stroke-linejoin:miter;stroke:rgb(0%,0%,0%);stroke-opacity:1;stroke-miterlimit:4;" d="M 151.901042 214.901042 L 158.197917 226.302083 " transform="matrix(0.75,0,0,0.75,0,0)"/>
<path style="fill:none;stroke-width:2;stroke-linecap:butt;stroke-linejoin:miter;stroke:rgb(0%,0%,0%);stroke-opacity:1;stroke-miterlimit:4;" d="M 169 226.598958 L 215.197917 227.5 " transform="matrix(0.75,0,0,0.75,0,0)"/>
<path style="fill:none;stroke-width:2;stroke-linecap:butt;stroke-linejoin:miter;stroke:rgb(0%,0%,0%);stroke-opacity:1;stroke-miterlimit:4;" d="M 211.302083 225.098958 L 220.697917 209.401042 " transform="matrix(0.75,0,0,0.75,0,0)"/>
<path style="fill:none;stroke-width:2;stroke-linecap:butt;stroke-linejoin:miter;stroke:rgb(100%,0%,0%);stroke-opacity:1;stroke-miterlimit:4;" d="M 220.697917 209.401042 L 230.098958 193.802083 " transform="matrix(0.75,0,0,0.75,0,0)"/>
<path style="fill:none;stroke-width:2;stroke-linecap:butt;stroke-linejoin:miter;stroke:rgb(0%,0%,0%);stroke-opacity:1;stroke-miterlimit:4;" d="M 219.197917 229.802083 L 228.598958 214.197917 " transform="matrix(0.75,0,0,0.75,0,0)"/>
<path style="fill:none;stroke-width:2;stroke-linecap:butt;stroke-linejoin:miter;stroke:rgb(100%,0%,0%);stroke-opacity:1;stroke-miterlimit:4;" d="M 228.598958 214.197917 L 238 198.5 " transform="matrix(0.75,0,0,0.75,0,0)"/>
<path style="fill:none;stroke-width:2;stroke-linecap:butt;stroke-linejoin:miter;stroke:rgb(0%,0%,0%);stroke-opacity:1;stroke-miterlimit:4;" d="M 215.197917 227.5 L 224.197917 243.598958 " transform="matrix(0.75,0,0,0.75,0,0)"/>
<path style="fill:none;stroke-width:2;stroke-linecap:butt;stroke-linejoin:miter;stroke:rgb(0%,0%,100%);stroke-opacity:1;stroke-miterlimit:4;" d="M 224.197917 243.598958 L 233.197917 259.802083 " transform="matrix(0.75,0,0,0.75,0,0)"/>
<path style="fill-rule:evenodd;fill:rgb(0%,0%,0%);fill-opacity:1;stroke-width:1;stroke-linecap:butt;stroke-linejoin:miter;stroke:rgb(0%,0%,0%);stroke-opacity:1;stroke-miterlimit:4;" d="M 283.901042 268.697917 L 264.802083 270.697917 L 264.802083 266.098958 Z M 283.901042 268.697917 " transform="matrix(0.75,0,0,0.75,0,0)"/>
<path style="fill-rule:evenodd;fill:rgb(0%,0%,100%);fill-opacity:1;stroke-width:1;stroke-linecap:butt;stroke-linejoin:miter;stroke:rgb(0%,0%,100%);stroke-opacity:1;stroke-miterlimit:4;" d="M 264.802083 270.697917 L 245.802083 263.401042 L 245.598958 272.697917 Z M 264.802083 270.697917 " transform="matrix(0.75,0,0,0.75,0,0)"/>
<path style="fill-rule:evenodd;fill:rgb(0%,0%,100%);fill-opacity:1;stroke-width:1;stroke-linecap:butt;stroke-linejoin:miter;stroke:rgb(0%,0%,100%);stroke-opacity:1;stroke-miterlimit:4;" d="M 264.802083 270.697917 L 264.802083 266.098958 L 245.802083 263.401042 Z M 264.802083 270.697917 " transform="matrix(0.75,0,0,0.75,0,0)"/>
<path style="fill:none;stroke-width:2;stroke-linecap:butt;stroke-linejoin:miter;stroke:rgb(0%,0%,0%);stroke-opacity:1;stroke-miterlimit:4;" d="M 283.901042 268.697917 L 316.098958 302 " transform="matrix(0.75,0,0,0.75,0,0)"/>
<path style="fill:none;stroke-width:2;stroke-linecap:butt;stroke-linejoin:miter;stroke:rgb(0%,0%,0%);stroke-opacity:1;stroke-miterlimit:4;" d="M 320.697917 302.098958 L 320.401042 321.098958 " transform="matrix(0.75,0,0,0.75,0,0)"/>
<path style="fill:none;stroke-width:2;stroke-linecap:butt;stroke-linejoin:miter;stroke:rgb(100%,0%,0%);stroke-opacity:1;stroke-miterlimit:4;" d="M 320.401042 321.098958 L 320 340.197917 " transform="matrix(0.75,0,0,0.75,0,0)"/>
<path style="fill:none;stroke-width:2;stroke-linecap:butt;stroke-linejoin:miter;stroke:rgb(0%,0%,0%);stroke-opacity:1;stroke-miterlimit:4;" d="M 311.401042 301.901042 L 311.098958 321 " transform="matrix(0.75,0,0,0.75,0,0)"/>
<path style="fill:none;stroke-width:2;stroke-linecap:butt;stroke-linejoin:miter;stroke:rgb(100%,0%,0%);stroke-opacity:1;stroke-miterlimit:4;" d="M 311.098958 321 L 310.802083 340 " transform="matrix(0.75,0,0,0.75,0,0)"/>
<path style="fill:none;stroke-width:2;stroke-linecap:butt;stroke-linejoin:miter;stroke:rgb(0%,0%,0%);stroke-opacity:1;stroke-miterlimit:4;" d="M 316.098958 302 L 329.5 289.098958 " transform="matrix(0.75,0,0,0.75,0,0)"/>
<path style="fill:none;stroke-width:2;stroke-linecap:butt;stroke-linejoin:miter;stroke:rgb(0%,0%,100%);stroke-opacity:1;stroke-miterlimit:4;" d="M 329.5 289.098958 L 342.802083 276.098958 " transform="matrix(0.75,0,0,0.75,0,0)"/>
<path style="fill:none;stroke-width:2;stroke-linecap:butt;stroke-linejoin:miter;stroke:rgb(0%,0%,100%);stroke-opacity:1;stroke-miterlimit:4;" d="M 355.802083 268.197917 L 375 263.401042 " transform="matrix(0.75,0,0,0.75,0,0)"/>
<path style="fill:none;stroke-width:2;stroke-linecap:butt;stroke-linejoin:miter;stroke:rgb(0%,0%,0%);stroke-opacity:1;stroke-miterlimit:4;" d="M 375 263.401042 L 394.197917 258.697917 " transform="matrix(0.75,0,0,0.75,0,0)"/>
<path style="fill:none;stroke-width:2;stroke-linecap:butt;stroke-linejoin:miter;stroke:rgb(0%,0%,0%);stroke-opacity:1;stroke-miterlimit:4;" d="M 394.197917 258.697917 L 426.401042 291.901042 " transform="matrix(0.75,0,0,0.75,0,0)"/>
<path style="fill:none;stroke-width:2;stroke-linecap:butt;stroke-linejoin:miter;stroke:rgb(0%,0%,0%);stroke-opacity:1;stroke-miterlimit:4;" d="M 425.302083 287.5 L 443.901042 282.802083 " transform="matrix(0.75,0,0,0.75,0,0)"/>
<path style="fill:none;stroke-width:2;stroke-linecap:butt;stroke-linejoin:miter;stroke:rgb(100%,0%,0%);stroke-opacity:1;stroke-miterlimit:4;" d="M 443.901042 282.802083 L 462.598958 278.098958 " transform="matrix(0.75,0,0,0.75,0,0)"/>
<path style="fill:none;stroke-width:2;stroke-linecap:butt;stroke-linejoin:miter;stroke:rgb(0%,0%,0%);stroke-opacity:1;stroke-miterlimit:4;" d="M 427.5 296.401042 L 446.197917 291.802083 " transform="matrix(0.75,0,0,0.75,0,0)"/>
<path style="fill:none;stroke-width:2;stroke-linecap:butt;stroke-linejoin:miter;stroke:rgb(100%,0%,0%);stroke-opacity:1;stroke-miterlimit:4;" d="M 446.197917 291.802083 L 464.802083 287.098958 " transform="matrix(0.75,0,0,0.75,0,0)"/>
<path style="fill:none;stroke-width:2;stroke-linecap:butt;stroke-linejoin:miter;stroke:rgb(0%,0%,0%);stroke-opacity:1;stroke-miterlimit:4;" d="M 426.401042 291.901042 L 421.197917 310.098958 " transform="matrix(0.75,0,0,0.75,0,0)"/>
<path style="fill:none;stroke-width:2;stroke-linecap:butt;stroke-linejoin:miter;stroke:rgb(100%,0%,0%);stroke-opacity:1;stroke-miterlimit:4;" d="M 421.197917 310.098958 L 416 328.302083 " transform="matrix(0.75,0,0,0.75,0,0)"/>
<path style="fill:none;stroke-width:2;stroke-linecap:butt;stroke-linejoin:miter;stroke:rgb(0%,0%,0%);stroke-opacity:1;stroke-miterlimit:4;" d="M 394.197917 258.697917 L 407 214.197917 " transform="matrix(0.75,0,0,0.75,0,0)"/>
<path style="fill:none;stroke-width:2;stroke-linecap:butt;stroke-linejoin:miter;stroke:rgb(0%,0%,0%);stroke-opacity:1;stroke-miterlimit:4;" d="M 387.197917 249.401042 L 396.197917 218.302083 " transform="matrix(0.75,0,0,0.75,0,0)"/>
<path style="fill:none;stroke-width:2;stroke-linecap:butt;stroke-linejoin:miter;stroke:rgb(0%,0%,0%);stroke-opacity:1;stroke-miterlimit:4;" d="M 407 214.197917 L 451.901042 203 " transform="matrix(0.75,0,0,0.75,0,0)"/>
<path style="fill:none;stroke-width:2;stroke-linecap:butt;stroke-linejoin:miter;stroke:rgb(0%,0%,0%);stroke-opacity:1;stroke-miterlimit:4;" d="M 407 214.197917 L 374.802083 180.901042 " transform="matrix(0.75,0,0,0.75,0,0)"/>
<path style="fill:none;stroke-width:2;stroke-linecap:butt;stroke-linejoin:miter;stroke:rgb(0%,0%,0%);stroke-opacity:1;stroke-miterlimit:4;" d="M 374.802083 180.901042 L 355.302083 185.802083 " transform="matrix(0.75,0,0,0.75,0,0)"/>
<path style="fill:none;stroke-width:2;stroke-linecap:butt;stroke-linejoin:miter;stroke:rgb(80%,80%,0%);stroke-opacity:1;stroke-miterlimit:4;" d="M 355.302083 185.802083 L 335.697917 190.697917 " transform="matrix(0.75,0,0,0.75,0,0)"/>
<path style="fill:none;stroke-width:2;stroke-linecap:butt;stroke-linejoin:miter;stroke:rgb(80%,80%,0%);stroke-opacity:1;stroke-miterlimit:4;" d="M 327.5 200.5 L 322.401042 218.5 " transform="matrix(0.75,0,0,0.75,0,0)"/>
<path style="fill:none;stroke-width:2;stroke-linecap:butt;stroke-linejoin:miter;stroke:rgb(0%,0%,0%);stroke-opacity:1;stroke-miterlimit:4;" d="M 322.401042 218.5 L 317.197917 236.598958 " transform="matrix(0.75,0,0,0.75,0,0)"/>
<path style="fill:none;stroke-width:2;stroke-linecap:butt;stroke-linejoin:miter;stroke:rgb(0%,0%,0%);stroke-opacity:1;stroke-miterlimit:4;" d="M 169 226.598958 L 145.197917 266.302083 " transform="matrix(0.75,0,0,0.75,0,0)"/>
<path style="fill:none;stroke-width:2;stroke-linecap:butt;stroke-linejoin:miter;stroke:rgb(0%,0%,0%);stroke-opacity:1;stroke-miterlimit:4;" d="M 145.197917 266.302083 L 163.197917 308.901042 " transform="matrix(0.75,0,0,0.75,0,0)"/>
<path style="fill:none;stroke-width:2;stroke-linecap:butt;stroke-linejoin:miter;stroke:rgb(0%,0%,0%);stroke-opacity:1;stroke-miterlimit:4;" d="M 139.401042 276.302083 L 152 306.098958 " transform="matrix(0.75,0,0,0.75,0,0)"/>
<path style="fill:none;stroke-width:2;stroke-linecap:butt;stroke-linejoin:miter;stroke:rgb(0%,0%,0%);stroke-opacity:1;stroke-miterlimit:4;" d="M 163.197917 308.901042 L 148.598958 321.598958 " transform="matrix(0.75,0,0,0.75,0,0)"/>
<path style="fill:none;stroke-width:2;stroke-linecap:butt;stroke-linejoin:miter;stroke:rgb(80%,80%,0%);stroke-opacity:1;stroke-miterlimit:4;" d="M 148.598958 321.598958 L 134 334.302083 " transform="matrix(0.75,0,0,0.75,0,0)"/>
<path style="fill:none;stroke-width:2;stroke-linecap:butt;stroke-linejoin:miter;stroke:rgb(80%,80%,0%);stroke-opacity:1;stroke-miterlimit:4;" d="M 122.598958 335.802083 L 105.598958 325.598958 " transform="matrix(0.75,0,0,0.75,0,0)"/>
<path style="fill:none;stroke-width:2;stroke-linecap:butt;stroke-linejoin:miter;stroke:rgb(0%,0%,0%);stroke-opacity:1;stroke-miterlimit:4;" d="M 105.598958 325.598958 L 88.697917 315.401042 " transform="matrix(0.75,0,0,0.75,0,0)"/>
<path style="fill:none;stroke-width:2;stroke-linecap:butt;stroke-linejoin:miter;stroke:rgb(0%,0%,0%);stroke-opacity:1;stroke-miterlimit:4;" d="M 88.697917 315.401042 L 70.598958 323.098958 " transform="matrix(0.75,0,0,0.75,0,0)"/>
<path style="fill:none;stroke-width:2;stroke-linecap:butt;stroke-linejoin:miter;stroke:rgb(0%,0%,100%);stroke-opacity:1;stroke-miterlimit:4;" d="M 70.598958 323.098958 L 52.598958 330.697917 " transform="matrix(0.75,0,0,0.75,0,0)"/>
<path style="fill:none;stroke-width:2;stroke-linecap:butt;stroke-linejoin:miter;stroke:rgb(0%,0%,0%);stroke-opacity:1;stroke-miterlimit:4;" d="M 88.697917 315.401042 L 92.901042 296.901042 " transform="matrix(0.75,0,0,0.75,0,0)"/>
<path style="fill:none;stroke-width:2;stroke-linecap:butt;stroke-linejoin:miter;stroke:rgb(0%,0%,100%);stroke-opacity:1;stroke-miterlimit:4;" d="M 92.901042 296.901042 L 97.197917 278.401042 " transform="matrix(0.75,0,0,0.75,0,0)"/>
<path style="fill:none;stroke-width:2;stroke-linecap:butt;stroke-linejoin:miter;stroke:rgb(0%,0%,0%);stroke-opacity:1;stroke-miterlimit:4;" d="M 99 311.901042 L 102 299 " transform="matrix(0.75,0,0,0.75,0,0)"/>
<path style="fill:none;stroke-width:2;stroke-linecap:butt;stroke-linejoin:miter;stroke:rgb(0%,0%,100%);stroke-opacity:1;stroke-miterlimit:4;" d="M 102 299 L 104.901042 286 " transform="matrix(0.75,0,0,0.75,0,0)"/>
<path style="fill:none;stroke-width:2;stroke-linecap:butt;stroke-linejoin:miter;stroke:rgb(0%,0%,0%);stroke-opacity:1;stroke-miterlimit:4;" d="M 317.197917 236.598958 L 283.901042 268.697917 " transform="matrix(0.75,0,0,0.75,0,0)"/>
<path style="fill:none;stroke-width:2;stroke-linecap:butt;stroke-linejoin:miter;stroke:rgb(0%,0%,100%);stroke-opacity:1;stroke-miterlimit:4;" d="M 105.598958 269.802083 L 125.401042 268 " transform="matrix(0.75,0,0,0.75,0,0)"/>
<path style="fill:none;stroke-width:2;stroke-linecap:butt;stroke-linejoin:miter;stroke:rgb(0%,0%,0%);stroke-opacity:1;stroke-miterlimit:4;" d="M 125.401042 268 L 145.197917 266.302083 " transform="matrix(0.75,0,0,0.75,0,0)"/>
<path style="fill:none;stroke-width:2;stroke-linecap:butt;stroke-linejoin:miter;stroke:rgb(0%,0%,0%);stroke-opacity:1;stroke-miterlimit:4;" d="M 317.197917 236.598958 L 330 249.901042 " transform="matrix(0.75,0,0,0.75,0,0)"/>
<path style="fill:none;stroke-width:2;stroke-linecap:butt;stroke-linejoin:miter;stroke:rgb(0%,0%,100%);stroke-opacity:1;stroke-miterlimit:4;" d="M 330 249.901042 L 342.802083 263.098958 " transform="matrix(0.75,0,0,0.75,0,0)"/>
<path style="fill:none;stroke-width:1;stroke-linecap:butt;stroke-linejoin:miter;stroke:rgb(0%,0%,0%);stroke-opacity:1;stroke-miterlimit:4;" d="M 312.401042 232.802083 L 311.598958 234.098958 " transform="matrix(0.75,0,0,0.75,0,0)"/>
<path style="fill:none;stroke-width:1;stroke-linecap:butt;stroke-linejoin:miter;stroke:rgb(0%,0%,0%);stroke-opacity:1;stroke-miterlimit:4;" d="M 307.5 229 L 305.901042 231.598958 " transform="matrix(0.75,0,0,0.75,0,0)"/>
<path style="fill:none;stroke-width:1;stroke-linecap:butt;stroke-linejoin:miter;stroke:rgb(0%,0%,0%);stroke-opacity:1;stroke-miterlimit:4;" d="M 302.697917 225.098958 L 300.302083 229.098958 " transform="matrix(0.75,0,0,0.75,0,0)"/>
<path style="fill:none;stroke-width:1;stroke-linecap:butt;stroke-linejoin:miter;stroke:rgb(0%,0%,0%);stroke-opacity:1;stroke-miterlimit:4;" d="M 297.802083 221.302083 L 294.598958 226.598958 " transform="matrix(0.75,0,0,0.75,0,0)"/>
<path style="fill:none;stroke-width:1;stroke-linecap:butt;stroke-linejoin:miter;stroke:rgb(0%,0%,0%);stroke-opacity:1;stroke-miterlimit:4;" d="M 293 217.5 L 289 224.098958 " transform="matrix(0.75,0,0,0.75,0,0)"/>
<path style="fill:none;stroke-width:1;stroke-linecap:butt;stroke-linejoin:miter;stroke:rgb(0%,0%,0%);stroke-opacity:1;stroke-miterlimit:4;" d="M 288.098958 213.697917 L 283.302083 221.598958 " transform="matrix(0.75,0,0,0.75,0,0)"/>
<path style=" stroke:none;fill-rule:nonzero;fill:rgb(100%,0%,0%);fill-opacity:1;" d="M 70.726562 139.050781 C 70.726562 137.5 71.101562 136.273438 71.851562 135.375 C 72.648438 134.523438 73.773438 134.101562 75.226562 134.101562 C 76.675781 134.101562 77.800781 134.523438 78.601562 135.375 C 79.351562 136.273438 79.726562 137.5 79.726562 139.050781 C 79.726562 140.648438 79.324219 141.898438 78.523438 142.800781 C 77.773438 143.699219 76.675781 144.148438 75.226562 144.148438 C 73.773438 144.148438 72.648438 143.699219 71.851562 142.800781 C 71.101562 141.898438 70.726562 140.648438 70.726562 139.050781 M 75.226562 143.023438 C 76.226562 143.023438 77 142.699219 77.550781 142.050781 C 78.101562 141.351562 78.375 140.351562 78.375 139.050781 C 78.375 137.75 78.101562 136.773438 77.550781 136.125 C 77 135.476562 76.226562 135.148438 75.226562 135.148438 C 74.226562 135.148438 73.449219 135.476562 72.898438 136.125 C 72.351562 136.773438 72.074219 137.75 72.074219 139.050781 C 72.074219 140.398438 72.351562 141.398438 72.898438 142.050781 C 73.449219 142.699219 74.226562 143.023438 75.226562 143.023438 "/>
<path style=" stroke:none;fill-rule:nonzero;fill:rgb(0%,0%,100%);fill-opacity:1;" d="M 107.773438 134.699219 L 110.925781 139.949219 C 111.175781 140.300781 111.476562 140.773438 111.824219 141.375 C 112.125 141.976562 112.300781 142.300781 112.351562 142.351562 L 112.351562 134.699219 L 113.625 134.699219 L 113.625 144.523438 L 112.273438 144.523438 L 108.824219 138.824219 C 108.574219 138.425781 108.300781 137.949219 108 137.398438 C 107.75 136.898438 107.574219 136.574219 107.476562 136.425781 L 107.476562 144.523438 L 106.199219 144.523438 L 106.199219 134.699219 L 107.773438 134.699219 "/>
<path style=" stroke:none;fill-rule:nonzero;fill:rgb(100%,0%,0%);fill-opacity:1;" d="M 174.75 140.851562 C 174.75 139.300781 175.148438 138.074219 175.949219 137.175781 C 176.75 136.324219 177.875 135.898438 179.324219 135.898438 C 180.773438 135.898438 181.875 136.324219 182.625 137.175781 C 183.425781 138.074219 183.824219 139.300781 183.824219 140.851562 C 183.824219 142.449219 183.425781 143.699219 182.625 144.601562 C 181.824219 145.5 180.726562 145.949219 179.324219 145.949219 C 177.875 145.949219 176.75 145.5 175.949219 144.601562 C 175.148438 143.699219 174.75 142.449219 174.75 140.851562 M 179.324219 144.824219 C 180.324219 144.824219 181.074219 144.5 181.574219 143.851562 C 182.125 143.199219 182.398438 142.199219 182.398438 140.851562 C 182.398438 139.601562 182.125 138.648438 181.574219 138 C 181.074219 137.351562 180.324219 137.023438 179.324219 137.023438 C 178.324219 137.023438 177.550781 137.324219 177 137.925781 C 176.449219 138.574219 176.175781 139.550781 176.175781 140.851562 C 176.175781 142.199219 176.449219 143.199219 177 143.851562 C 177.550781 144.5 178.324219 144.824219 179.324219 144.824219 "/>
<path style=" stroke:none;fill-rule:nonzero;fill:rgb(0%,0%,100%);fill-opacity:1;" d="M 165.675781 196.050781 L 167.023438 196.050781 L 167.023438 200.175781 L 172.050781 200.175781 L 172.050781 196.050781 L 173.324219 196.050781 L 173.324219 205.875 L 172.050781 205.875 L 172.050781 201.300781 L 167.023438 201.300781 L 167.023438 205.875 L 165.675781 205.875 L 165.675781 196.050781 "/>
<path style=" stroke:none;fill-rule:nonzero;fill:rgb(0%,0%,100%);fill-opacity:1;" d="M 176.101562 196.050781 L 179.324219 201.226562 C 179.523438 201.574219 179.800781 202.050781 180.148438 202.648438 C 180.5 203.300781 180.675781 203.625 180.675781 203.625 L 180.675781 196.050781 L 181.949219 196.050781 L 181.949219 205.875 L 180.601562 205.875 L 177.148438 200.175781 C 176.898438 199.726562 176.625 199.25 176.324219 198.75 C 176.074219 198.25 175.898438 197.898438 175.800781 197.699219 L 175.800781 205.875 L 174.523438 205.875 L 174.523438 196.050781 L 176.101562 196.050781 "/>
<path style=" stroke:none;fill-rule:nonzero;fill:rgb(100%,0%,0%);fill-opacity:1;" d="M 231.898438 261.226562 C 231.898438 259.625 232.300781 258.398438 233.101562 257.550781 C 233.898438 256.648438 235.023438 256.199219 236.476562 256.199219 C 237.925781 256.199219 239.023438 256.648438 239.773438 257.550781 C 240.574219 258.398438 240.976562 259.625 240.976562 261.226562 C 240.976562 262.824219 240.574219 264.074219 239.773438 264.976562 C 238.976562 265.875 237.875 266.324219 236.476562 266.324219 C 235.023438 266.324219 233.898438 265.875 233.101562 264.976562 C 232.300781 264.074219 231.898438 262.824219 231.898438 261.226562 M 236.476562 265.199219 C 237.476562 265.199219 238.226562 264.875 238.726562 264.226562 C 239.273438 263.523438 239.550781 262.523438 239.550781 261.226562 C 239.550781 259.925781 239.273438 258.949219 238.726562 258.300781 C 238.226562 257.648438 237.476562 257.324219 236.476562 257.324219 C 235.476562 257.324219 234.699219 257.648438 234.148438 258.300781 C 233.601562 258.949219 233.324219 259.925781 233.324219 261.226562 C 233.324219 262.523438 233.601562 263.523438 234.148438 264.226562 C 234.699219 264.875 235.476562 265.199219 236.476562 265.199219 "/>
<path style=" stroke:none;fill-rule:nonzero;fill:rgb(0%,0%,100%);fill-opacity:1;" d="M 259.800781 197.476562 L 263.023438 202.648438 C 263.273438 203 263.550781 203.5 263.851562 204.148438 C 264.199219 204.75 264.398438 205.074219 264.449219 205.125 L 264.449219 197.476562 L 265.726562 197.476562 L 265.726562 207.300781 L 264.375 207.300781 L 260.925781 201.601562 C 260.675781 201.148438 260.398438 200.675781 260.101562 200.175781 C 259.800781 199.675781 259.625 199.351562 259.574219 199.199219 L 259.574219 207.300781 L 258.300781 207.300781 L 258.300781 197.476562 L 259.800781 197.476562 "/>
<path style=" stroke:none;fill-rule:nonzero;fill:rgb(100%,0%,0%);fill-opacity:1;" d="M 348.898438 210.601562 C 348.898438 209 349.300781 207.773438 350.101562 206.925781 C 350.898438 206.023438 352.023438 205.574219 353.476562 205.574219 C 354.925781 205.574219 356.023438 206.023438 356.773438 206.925781 C 357.574219 207.773438 357.976562 209 357.976562 210.601562 C 357.976562 212.199219 357.574219 213.449219 356.773438 214.351562 C 355.976562 215.25 354.875 215.699219 353.476562 215.699219 C 352.023438 215.699219 350.898438 215.25 350.101562 214.351562 C 349.300781 213.449219 348.898438 212.199219 348.898438 210.601562 M 353.476562 214.574219 C 354.476562 214.574219 355.226562 214.25 355.726562 213.601562 C 356.273438 212.898438 356.550781 211.898438 356.550781 210.601562 C 356.550781 209.300781 356.273438 208.324219 355.726562 207.675781 C 355.226562 207.023438 354.476562 206.699219 353.476562 206.699219 C 352.476562 206.699219 351.699219 207.023438 351.148438 207.675781 C 350.601562 208.324219 350.324219 209.300781 350.324219 210.601562 C 350.324219 211.898438 350.601562 212.898438 351.148438 213.601562 C 351.699219 214.25 352.476562 214.574219 353.476562 214.574219 "/>
<path style=" stroke:none;fill-rule:nonzero;fill:rgb(100%,0%,0%);fill-opacity:1;" d="M 305.699219 252.300781 C 305.699219 250.75 306.101562 249.523438 306.898438 248.625 C 307.648438 247.773438 308.75 247.351562 310.199219 247.351562 C 311.648438 247.351562 312.773438 247.773438 313.574219 248.625 C 314.324219 249.523438 314.699219 250.75 314.699219 252.300781 C 314.699219 253.898438 314.324219 255.148438 313.574219 256.050781 C 312.773438 256.949219 311.648438 257.398438 310.199219 257.398438 C 308.75 257.398438 307.648438 256.949219 306.898438 256.050781 C 306.101562 255.199219 305.699219 253.949219 305.699219 252.300781 M 310.199219 256.351562 C 311.199219 256.351562 311.976562 256 312.523438 255.300781 C 313.074219 254.648438 313.351562 253.648438 313.351562 252.300781 C 313.351562 251.050781 313.074219 250.101562 312.523438 249.449219 C 311.976562 248.800781 311.199219 248.476562 310.199219 248.476562 C 309.199219 248.476562 308.425781 248.800781 307.875 249.449219 C 307.375 250.101562 307.125 251.050781 307.125 252.300781 C 307.125 253.648438 307.375 254.648438 307.875 255.300781 C 308.425781 256 309.199219 256.351562 310.199219 256.351562 "/>
<path style=" stroke:none;fill-rule:nonzero;fill:rgb(100%,0%,0%);fill-opacity:1;" d="M 315.449219 247.425781 L 316.726562 247.425781 L 316.726562 251.625 L 321.75 251.625 L 321.75 247.425781 L 323.101562 247.425781 L 323.101562 257.25 L 321.75 257.25 L 321.75 252.75 L 316.726562 252.75 L 316.726562 257.25 L 315.449219 257.25 L 315.449219 247.425781 "/>
<path style=" stroke:none;fill-rule:nonzero;fill:rgb(80%,80%,0%);fill-opacity:1;" d="M 244.726562 147.449219 C 244.773438 147.5 244.949219 147.574219 245.25 147.675781 C 245.550781 147.824219 245.875 147.925781 246.226562 147.976562 C 246.574219 148.074219 246.898438 148.125 247.199219 148.125 C 247.851562 148.125 248.351562 147.976562 248.699219 147.675781 C 249.050781 147.375 249.226562 146.949219 249.226562 146.398438 C 249.226562 146.050781 249.148438 145.773438 249 145.574219 C 248.800781 145.324219 248.550781 145.148438 248.25 145.050781 C 248 144.898438 247.648438 144.773438 247.199219 144.675781 C 246.601562 144.476562 246.125 144.300781 245.773438 144.148438 C 245.425781 143.949219 245.125 143.675781 244.875 143.324219 C 244.625 142.976562 244.5 142.523438 244.5 141.976562 C 244.5 141.125 244.773438 140.449219 245.324219 139.949219 C 245.925781 139.449219 246.773438 139.199219 247.875 139.199219 C 248.625 139.199219 249.425781 139.375 250.273438 139.726562 L 249.976562 140.773438 C 249.175781 140.476562 248.476562 140.324219 247.875 140.324219 C 247.273438 140.324219 246.800781 140.449219 246.449219 140.699219 C 246.101562 140.949219 245.925781 141.300781 245.925781 141.75 C 245.925781 142.101562 246 142.398438 246.148438 142.648438 C 246.351562 142.851562 246.574219 143 246.824219 143.101562 C 247.125 143.25 247.476562 143.375 247.875 143.476562 C 248.476562 143.675781 248.949219 143.875 249.300781 144.074219 C 249.648438 144.273438 249.949219 144.550781 250.199219 144.898438 C 250.5 145.300781 250.648438 145.800781 250.648438 146.398438 C 250.648438 147.300781 250.324219 148 249.675781 148.5 C 249.074219 149 248.273438 149.25 247.273438 149.25 C 246.675781 149.25 246.175781 149.175781 245.773438 149.023438 C 245.324219 148.925781 244.851562 148.773438 244.351562 148.574219 L 244.726562 147.449219 "/>
<path style=" stroke:none;fill-rule:nonzero;fill:rgb(80%,80%,0%);fill-opacity:1;" d="M 93.449219 257.773438 C 93.550781 257.824219 93.75 257.925781 94.050781 258.074219 C 94.351562 258.175781 94.675781 258.273438 95.023438 258.375 C 95.324219 258.425781 95.648438 258.449219 96 258.449219 C 96.601562 258.449219 97.101562 258.300781 97.5 258 C 97.851562 257.699219 98.023438 257.300781 98.023438 256.800781 C 98.023438 256.398438 97.925781 256.101562 97.726562 255.898438 C 97.574219 255.699219 97.351562 255.523438 97.050781 255.375 C 96.800781 255.273438 96.425781 255.148438 95.925781 255 C 95.375 254.800781 94.925781 254.625 94.574219 254.476562 C 94.226562 254.324219 93.925781 254.074219 93.675781 253.726562 C 93.425781 253.375 93.300781 252.898438 93.300781 252.300781 C 93.300781 251.449219 93.574219 250.773438 94.125 250.273438 C 94.675781 249.773438 95.523438 249.523438 96.675781 249.523438 C 97.425781 249.523438 98.226562 249.699219 99.074219 250.050781 L 98.773438 251.175781 C 97.976562 250.824219 97.273438 250.648438 96.675781 250.648438 C 96.023438 250.648438 95.523438 250.773438 95.175781 251.023438 C 94.824219 251.324219 94.648438 251.699219 94.648438 252.148438 C 94.648438 252.5 94.75 252.773438 94.949219 252.976562 C 95.148438 253.175781 95.375 253.351562 95.625 253.5 C 95.875 253.601562 96.226562 253.726562 96.675781 253.875 C 97.273438 254.074219 97.75 254.25 98.101562 254.398438 C 98.449219 254.601562 98.75 254.898438 99 255.300781 C 99.25 255.648438 99.375 256.148438 99.375 256.800781 C 99.375 257.699219 99.074219 258.398438 98.476562 258.898438 C 97.875 259.351562 97.074219 259.574219 96.074219 259.574219 C 95.476562 259.574219 94.949219 259.523438 94.5 259.425781 C 94.101562 259.273438 93.625 259.101562 93.074219 258.898438 L 93.449219 257.773438 "/>
<path style=" stroke:none;fill-rule:nonzero;fill:rgb(0%,0%,100%);fill-opacity:1;" d="M 17.023438 245.175781 L 18.375 245.175781 L 18.375 249.375 L 23.398438 249.375 L 23.398438 245.175781 L 24.75 245.175781 L 24.75 255 L 23.398438 255 L 23.398438 250.5 L 18.375 250.5 L 18.375 255 L 17.023438 255 L 17.023438 245.175781 "/>
<path style=" stroke:none;fill-rule:nonzero;fill:rgb(0%,0%,100%);fill-opacity:1;" d="M 25.949219 254.699219 C 26.101562 254.300781 26.375 253.976562 26.773438 253.726562 C 27.125 253.523438 27.574219 253.425781 28.125 253.425781 C 28.773438 253.425781 29.273438 253.601562 29.625 253.949219 C 29.976562 254.300781 30.148438 254.773438 30.148438 255.375 C 30.148438 256.023438 29.925781 256.648438 29.476562 257.25 C 28.976562 257.851562 28.25 258.5 27.300781 259.199219 L 30.300781 259.199219 L 30.300781 259.949219 L 25.949219 259.949219 L 25.949219 259.351562 C 26.75 258.75 27.375 258.25 27.824219 257.851562 C 28.324219 257.398438 28.675781 257 28.875 256.648438 C 29.125 256.25 29.25 255.851562 29.25 255.449219 C 29.25 255.050781 29.148438 254.726562 28.949219 254.476562 C 28.75 254.226562 28.476562 254.101562 28.125 254.101562 C 27.773438 254.101562 27.476562 254.175781 27.226562 254.324219 C 26.976562 254.476562 26.773438 254.699219 26.625 255 L 25.949219 254.699219 "/>
<path style=" stroke:none;fill-rule:nonzero;fill:rgb(0%,0%,100%);fill-opacity:1;" d="M 32.398438 245.175781 L 35.625 250.425781 C 35.824219 250.773438 36.101562 251.25 36.449219 251.851562 C 36.800781 252.449219 36.976562 252.773438 36.976562 252.824219 L 36.976562 245.175781 L 38.25 245.175781 L 38.25 255 L 36.976562 255 L 33.449219 249.375 C 33.199219 248.925781 32.925781 248.449219 32.625 247.949219 C 32.375 247.398438 32.199219 247.050781 32.101562 246.898438 L 32.101562 255 L 30.824219 255 L 30.824219 245.175781 L 32.398438 245.175781 "/>
<path style=" stroke:none;fill-rule:nonzero;fill:rgb(0%,0%,100%);fill-opacity:1;" d="M 72.148438 197.851562 L 75.375 203.023438 C 75.574219 203.375 75.851562 203.875 76.199219 204.523438 C 76.550781 205.125 76.726562 205.449219 76.726562 205.5 L 76.726562 197.851562 L 78 197.851562 L 78 207.675781 L 76.648438 207.675781 L 73.199219 201.976562 C 72.949219 201.523438 72.675781 201.050781 72.375 200.550781 C 72.125 200.050781 71.949219 199.726562 71.851562 199.574219 L 71.851562 207.675781 L 70.574219 207.675781 L 70.574219 197.851562 L 72.148438 197.851562 "/>
<path style=" stroke:none;fill-rule:nonzero;fill:rgb(0%,0%,0%);fill-opacity:1;" d="M 204.300781 154.648438 L 205.648438 154.648438 L 205.648438 158.851562 L 210.675781 158.851562 L 210.675781 154.648438 L 212.023438 154.648438 L 212.023438 164.476562 L 210.675781 164.476562 L 210.675781 159.976562 L 205.648438 159.976562 L 205.648438 164.476562 L 204.300781 164.476562 L 204.300781 154.648438 "/>
</g>
</svg>
