<?xml version="1.0" encoding="UTF-8"?>
<svg xmlns="http://www.w3.org/2000/svg" xmlns:xlink="http://www.w3.org/1999/xlink" width="375pt" height="375pt" viewBox="0 0 375 375" version="1.1">
<g id="surface226">
<rect x="0" y="0" width="375" height="375" style="fill:rgb(100%,100%,100%);fill-opacity:1;stroke:none;"/>
<path style="fill:none;stroke-width:2;stroke-linecap:butt;stroke-linejoin:miter;stroke:rgb(0%,0%,0%);stroke-opacity:1;stroke-miterlimit:4;" d="M 22.697917 391.5 L 44.802083 397.697917 " transform="matrix(0.75,0,0,0.75,0,0)"/>
<path style="fill:none;stroke-width:2;stroke-linecap:butt;stroke-linejoin:miter;stroke:rgb(100%,0%,0%);stroke-opacity:1;stroke-miterlimit:4;" d="M 44.802083 397.697917 L 66.802083 403.802083 " transform="matrix(0.75,0,0,0.75,0,0)"/>
<path style="fill:none;stroke-width:2;stroke-linecap:butt;stroke-linejoin:miter;stroke:rgb(100%,0%,0%);stroke-opacity:1;stroke-miterlimit:4;" d="M 84.802083 397.5 L 99.901042 382.598958 " transform="matrix(0.75,0,0,0.75,0,0)"/>
<path style="fill:none;stroke-width:2;stroke-linecap:butt;stroke-linejoin:miter;stroke:rgb(0%,0%,0%);stroke-opacity:1;stroke-miterlimit:4;" d="M 99.901042 382.598958 L 115.098958 367.697917 " transform="matrix(0.75,0,0,0.75,0,0)"/>
<path style="fill-rule:evenodd;fill:rgb(0%,0%,0%);fill-opacity:1;stroke-width:1;stroke-linecap:butt;stroke-linejoin:miter;stroke:rgb(0%,0%,0%);stroke-opacity:1;stroke-miterlimit:4;" d="M 115.098958 367.697917 L 98.598958 354.901042 L 102.5 351 Z M 115.098958 367.697917 " transform="matrix(0.75,0,0,0.75,0,0)"/>
<path style="fill-rule:evenodd;fill:rgb(0%,0%,100%);fill-opacity:1;stroke-width:1;stroke-linecap:butt;stroke-linejoin:miter;stroke:rgb(0%,0%,100%);stroke-opacity:1;stroke-miterlimit:4;" d="M 98.598958 354.901042 L 90 334.302083 L 82.098958 342 Z M 98.598958 354.901042 " transform="matrix(0.75,0,0,0.75,0,0)"/>
<path style="fill-rule:evenodd;fill:rgb(0%,0%,100%);fill-opacity:1;stroke-width:1;stroke-linecap:butt;stroke-linejoin:miter;stroke:rgb(0%,0%,100%);stroke-opacity:1;stroke-miterlimit:4;" d="M 98.598958 354.901042 L 102.5 351 L 90 334.302083 Z M 98.598958 354.901042 " transform="matrix(0.75,0,0,0.75,0,0)"/>
<path style="fill:none;stroke-width:2;stroke-linecap:butt;stroke-linejoin:miter;stroke:rgb(0%,0%,100%);stroke-opacity:1;stroke-miterlimit:4;" d="M 79.197917 318.802083 L 85.197917 297.098958 " transform="matrix(0.75,0,0,0.75,0,0)"/>
<path style="fill:none;stroke-width:2;stroke-linecap:butt;stroke-linejoin:miter;stroke:rgb(0%,0%,0%);stroke-opacity:1;stroke-miterlimit:4;" d="M 85.197917 297.098958 L 91.302083 275.401042 " transform="matrix(0.75,0,0,0.75,0,0)"/>
<path style="fill:none;stroke-width:2;stroke-linecap:butt;stroke-linejoin:miter;stroke:rgb(0%,0%,0%);stroke-opacity:1;stroke-miterlimit:4;" d="M 88.598958 270.5 L 108.302083 259.802083 " transform="matrix(0.75,0,0,0.75,0,0)"/>
<path style="fill:none;stroke-width:2;stroke-linecap:butt;stroke-linejoin:miter;stroke:rgb(100%,0%,0%);stroke-opacity:1;stroke-miterlimit:4;" d="M 108.302083 259.802083 L 128.098958 249.098958 " transform="matrix(0.75,0,0,0.75,0,0)"/>
<path style="fill:none;stroke-width:2;stroke-linecap:butt;stroke-linejoin:miter;stroke:rgb(0%,0%,0%);stroke-opacity:1;stroke-miterlimit:4;" d="M 93.901042 280.197917 L 113.598958 269.5 " transform="matrix(0.75,0,0,0.75,0,0)"/>
<path style="fill:none;stroke-width:2;stroke-linecap:butt;stroke-linejoin:miter;stroke:rgb(100%,0%,0%);stroke-opacity:1;stroke-miterlimit:4;" d="M 113.598958 269.5 L 133.302083 258.802083 " transform="matrix(0.75,0,0,0.75,0,0)"/>
<path style="fill:none;stroke-width:2;stroke-linecap:butt;stroke-linejoin:miter;stroke:rgb(0%,0%,0%);stroke-opacity:1;stroke-miterlimit:4;" d="M 91.302083 275.401042 L 52.697917 236.098958 " transform="matrix(0.75,0,0,0.75,0,0)"/>
<path style="fill:none;stroke-width:2;stroke-linecap:butt;stroke-linejoin:miter;stroke:rgb(0%,0%,0%);stroke-opacity:1;stroke-miterlimit:4;" d="M 52.697917 236.098958 L 58.697917 214.5 " transform="matrix(0.75,0,0,0.75,0,0)"/>
<path style="fill:none;stroke-width:2;stroke-linecap:butt;stroke-linejoin:miter;stroke:rgb(80%,80%,0%);stroke-opacity:1;stroke-miterlimit:4;" d="M 58.697917 214.5 L 64.598958 193 " transform="matrix(0.75,0,0,0.75,0,0)"/>
<path style="fill:none;stroke-width:2;stroke-linecap:butt;stroke-linejoin:miter;stroke:rgb(80%,80%,0%);stroke-opacity:1;stroke-miterlimit:4;" d="M 60.598958 176.098958 L 44.697917 159.901042 " transform="matrix(0.75,0,0,0.75,0,0)"/>
<path style="fill:none;stroke-width:2;stroke-linecap:butt;stroke-linejoin:miter;stroke:rgb(0%,0%,0%);stroke-opacity:1;stroke-miterlimit:4;" d="M 44.697917 159.901042 L 28.802083 143.697917 " transform="matrix(0.75,0,0,0.75,0,0)"/>
<path style="fill:none;stroke-width:2;stroke-linecap:butt;stroke-linejoin:miter;stroke:rgb(0%,0%,0%);stroke-opacity:1;stroke-miterlimit:4;" d="M 28.802083 143.697917 L 43.598958 90.598958 " transform="matrix(0.75,0,0,0.75,0,0)"/>
<path style="fill:none;stroke-width:2;stroke-linecap:butt;stroke-linejoin:miter;stroke:rgb(0%,0%,0%);stroke-opacity:1;stroke-miterlimit:4;" d="M 43.598958 90.598958 L 49.598958 68.901042 " transform="matrix(0.75,0,0,0.75,0,0)"/>
<path style="fill:none;stroke-width:2;stroke-linecap:butt;stroke-linejoin:miter;stroke:rgb(0%,0%,100%);stroke-opacity:1;stroke-miterlimit:4;" d="M 49.598958 68.901042 L 55.697917 47.197917 " transform="matrix(0.75,0,0,0.75,0,0)"/>
<path style="fill:none;stroke-width:2;stroke-linecap:butt;stroke-linejoin:miter;stroke:rgb(0%,0%,0%);stroke-opacity:1;stroke-miterlimit:4;" d="M 34.802083 81.197917 L 39.901042 62.697917 " transform="matrix(0.75,0,0,0.75,0,0)"/>
<path style="fill:none;stroke-width:2;stroke-linecap:butt;stroke-linejoin:miter;stroke:rgb(0%,0%,100%);stroke-opacity:1;stroke-miterlimit:4;" d="M 39.901042 62.697917 L 45.098958 44.302083 " transform="matrix(0.75,0,0,0.75,0,0)"/>
<path style="fill:none;stroke-width:2;stroke-linecap:butt;stroke-linejoin:miter;stroke:rgb(0%,0%,0%);stroke-opacity:1;stroke-miterlimit:4;" d="M 56 87.098958 L 61.098958 68.598958 " transform="matrix(0.75,0,0,0.75,0,0)"/>
<path style="fill:none;stroke-width:2;stroke-linecap:butt;stroke-linejoin:miter;stroke:rgb(0%,0%,100%);stroke-opacity:1;stroke-miterlimit:4;" d="M 61.098958 68.598958 L 66.302083 50.098958 " transform="matrix(0.75,0,0,0.75,0,0)"/>
<path style="fill:none;stroke-width:2;stroke-linecap:butt;stroke-linejoin:miter;stroke:rgb(0%,0%,0%);stroke-opacity:1;stroke-miterlimit:4;" d="M 115.098958 367.697917 L 153.697917 407 " transform="matrix(0.75,0,0,0.75,0,0)"/>
<path style="fill:none;stroke-width:2;stroke-linecap:butt;stroke-linejoin:miter;stroke:rgb(0%,0%,0%);stroke-opacity:1;stroke-miterlimit:4;" d="M 159.197917 407.098958 L 159 429.802083 " transform="matrix(0.75,0,0,0.75,0,0)"/>
<path style="fill:none;stroke-width:2;stroke-linecap:butt;stroke-linejoin:miter;stroke:rgb(100%,0%,0%);stroke-opacity:1;stroke-miterlimit:4;" d="M 159 429.802083 L 158.697917 452.401042 " transform="matrix(0.75,0,0,0.75,0,0)"/>
<path style="fill:none;stroke-width:2;stroke-linecap:butt;stroke-linejoin:miter;stroke:rgb(0%,0%,0%);stroke-opacity:1;stroke-miterlimit:4;" d="M 148.197917 407 L 147.901042 429.598958 " transform="matrix(0.75,0,0,0.75,0,0)"/>
<path style="fill:none;stroke-width:2;stroke-linecap:butt;stroke-linejoin:miter;stroke:rgb(100%,0%,0%);stroke-opacity:1;stroke-miterlimit:4;" d="M 147.901042 429.598958 L 147.697917 452.302083 " transform="matrix(0.75,0,0,0.75,0,0)"/>
<path style="fill:none;stroke-width:2;stroke-linecap:butt;stroke-linejoin:miter;stroke:rgb(0%,0%,0%);stroke-opacity:1;stroke-miterlimit:4;" d="M 153.697917 407 L 169.401042 391.5 " transform="matrix(0.75,0,0,0.75,0,0)"/>
<path style="fill:none;stroke-width:2;stroke-linecap:butt;stroke-linejoin:miter;stroke:rgb(0%,0%,100%);stroke-opacity:1;stroke-miterlimit:4;" d="M 169.401042 391.5 L 185.197917 376 " transform="matrix(0.75,0,0,0.75,0,0)"/>
<path style="fill:none;stroke-width:2;stroke-linecap:butt;stroke-linejoin:miter;stroke:rgb(0%,0%,100%);stroke-opacity:1;stroke-miterlimit:4;" d="M 200.697917 366.401042 L 223.5 360.598958 " transform="matrix(0.75,0,0,0.75,0,0)"/>
<path style="fill:none;stroke-width:2;stroke-linecap:butt;stroke-linejoin:miter;stroke:rgb(0%,0%,0%);stroke-opacity:1;stroke-miterlimit:4;" d="M 223.5 360.598958 L 246.302083 354.697917 " transform="matrix(0.75,0,0,0.75,0,0)"/>
<path style="fill:none;stroke-width:2;stroke-linecap:butt;stroke-linejoin:miter;stroke:rgb(0%,0%,0%);stroke-opacity:1;stroke-miterlimit:4;" d="M 246.302083 354.697917 L 284.901042 394 " transform="matrix(0.75,0,0,0.75,0,0)"/>
<path style="fill:none;stroke-width:2;stroke-linecap:butt;stroke-linejoin:miter;stroke:rgb(0%,0%,0%);stroke-opacity:1;stroke-miterlimit:4;" d="M 290.197917 395.5 L 284.098958 417.098958 " transform="matrix(0.75,0,0,0.75,0,0)"/>
<path style="fill:none;stroke-width:2;stroke-linecap:butt;stroke-linejoin:miter;stroke:rgb(100%,0%,0%);stroke-opacity:1;stroke-miterlimit:4;" d="M 284.098958 417.098958 L 278.098958 438.802083 " transform="matrix(0.75,0,0,0.75,0,0)"/>
<path style="fill:none;stroke-width:2;stroke-linecap:butt;stroke-linejoin:miter;stroke:rgb(0%,0%,0%);stroke-opacity:1;stroke-miterlimit:4;" d="M 279.598958 392.5 L 273.5 414.197917 " transform="matrix(0.75,0,0,0.75,0,0)"/>
<path style="fill:none;stroke-width:2;stroke-linecap:butt;stroke-linejoin:miter;stroke:rgb(100%,0%,0%);stroke-opacity:1;stroke-miterlimit:4;" d="M 273.5 414.197917 L 267.5 435.901042 " transform="matrix(0.75,0,0,0.75,0,0)"/>
<path style="fill:none;stroke-width:2;stroke-linecap:butt;stroke-linejoin:miter;stroke:rgb(0%,0%,0%);stroke-opacity:1;stroke-miterlimit:4;" d="M 284.901042 394 L 307 388.302083 " transform="matrix(0.75,0,0,0.75,0,0)"/>
<path style="fill:none;stroke-width:2;stroke-linecap:butt;stroke-linejoin:miter;stroke:rgb(100%,0%,0%);stroke-opacity:1;stroke-miterlimit:4;" d="M 307 388.302083 L 329.197917 382.5 " transform="matrix(0.75,0,0,0.75,0,0)"/>
<path style="fill:none;stroke-width:2;stroke-linecap:butt;stroke-linejoin:miter;stroke:rgb(0%,0%,0%);stroke-opacity:1;stroke-miterlimit:4;" d="M 246.302083 354.697917 L 261 301.598958 " transform="matrix(0.75,0,0,0.75,0,0)"/>
<path style="fill:none;stroke-width:2;stroke-linecap:butt;stroke-linejoin:miter;stroke:rgb(0%,0%,0%);stroke-opacity:1;stroke-miterlimit:4;" d="M 237.901042 343.802083 L 248.197917 306.598958 " transform="matrix(0.75,0,0,0.75,0,0)"/>
<path style="fill:none;stroke-width:2;stroke-linecap:butt;stroke-linejoin:miter;stroke:rgb(0%,0%,0%);stroke-opacity:1;stroke-miterlimit:4;" d="M 261 301.598958 L 314.401042 287.901042 " transform="matrix(0.75,0,0,0.75,0,0)"/>
<path style="fill:none;stroke-width:2;stroke-linecap:butt;stroke-linejoin:miter;stroke:rgb(0%,0%,0%);stroke-opacity:1;stroke-miterlimit:4;" d="M 314.401042 287.901042 L 320.302083 266.302083 " transform="matrix(0.75,0,0,0.75,0,0)"/>
<path style="fill:none;stroke-width:2;stroke-linecap:butt;stroke-linejoin:miter;stroke:rgb(80%,80%,0%);stroke-opacity:1;stroke-miterlimit:4;" d="M 320.302083 266.302083 L 326.302083 244.802083 " transform="matrix(0.75,0,0,0.75,0,0)"/>
<path style="fill:none;stroke-width:2;stroke-linecap:butt;stroke-linejoin:miter;stroke:rgb(80%,80%,0%);stroke-opacity:1;stroke-miterlimit:4;" d="M 335.901042 233 L 359.197917 227 " transform="matrix(0.75,0,0,0.75,0,0)"/>
<path style="fill:none;stroke-width:2;stroke-linecap:butt;stroke-linejoin:miter;stroke:rgb(0%,0%,0%);stroke-opacity:1;stroke-miterlimit:4;" d="M 359.197917 227 L 382.401042 221 " transform="matrix(0.75,0,0,0.75,0,0)"/>
<path style="fill:none;stroke-width:2;stroke-linecap:butt;stroke-linejoin:miter;stroke:rgb(0%,0%,0%);stroke-opacity:1;stroke-miterlimit:4;" d="M 382.401042 221 L 390.598958 200.197917 " transform="matrix(0.75,0,0,0.75,0,0)"/>
<path style="fill:none;stroke-width:2;stroke-linecap:butt;stroke-linejoin:miter;stroke:rgb(0%,0%,100%);stroke-opacity:1;stroke-miterlimit:4;" d="M 390.598958 200.197917 L 398.802083 179.401042 " transform="matrix(0.75,0,0,0.75,0,0)"/>
<path style="fill:none;stroke-width:2;stroke-linecap:butt;stroke-linejoin:miter;stroke:rgb(0%,0%,0%);stroke-opacity:1;stroke-miterlimit:4;" d="M 395.098958 218.802083 L 400.901042 204.302083 " transform="matrix(0.75,0,0,0.75,0,0)"/>
<path style="fill:none;stroke-width:2;stroke-linecap:butt;stroke-linejoin:miter;stroke:rgb(0%,0%,100%);stroke-opacity:1;stroke-miterlimit:4;" d="M 400.901042 204.302083 L 406.598958 189.697917 " transform="matrix(0.75,0,0,0.75,0,0)"/>
<path style="fill:none;stroke-width:2;stroke-linecap:butt;stroke-linejoin:miter;stroke:rgb(0%,0%,100%);stroke-opacity:1;stroke-miterlimit:4;" d="M 410.401042 170.302083 L 449.901042 172.697917 " transform="matrix(0.75,0,0,0.75,0,0)"/>
<path style="fill:none;stroke-width:2;stroke-linecap:butt;stroke-linejoin:miter;stroke:rgb(0%,0%,100%);stroke-opacity:1;stroke-miterlimit:4;" d="M 460.098958 182.802083 L 468.901042 216.901042 " transform="matrix(0.75,0,0,0.75,0,0)"/>
<path style="fill:none;stroke-width:2;stroke-linecap:butt;stroke-linejoin:miter;stroke:rgb(0%,0%,100%);stroke-opacity:1;stroke-miterlimit:4;" d="M 450.697917 190.697917 L 456.901042 214.598958 " transform="matrix(0.75,0,0,0.75,0,0)"/>
<path style="fill:none;stroke-width:2;stroke-linecap:butt;stroke-linejoin:miter;stroke:rgb(0%,0%,100%);stroke-opacity:1;stroke-miterlimit:4;" d="M 463.598958 231.5 L 432.598958 251.197917 " transform="matrix(0.75,0,0,0.75,0,0)"/>
<path style="fill:none;stroke-width:2;stroke-linecap:butt;stroke-linejoin:miter;stroke:rgb(0%,0%,100%);stroke-opacity:1;stroke-miterlimit:4;" d="M 424.302083 265.697917 L 422.901042 288.401042 " transform="matrix(0.75,0,0,0.75,0,0)"/>
<path style="fill:none;stroke-width:2;stroke-linecap:butt;stroke-linejoin:miter;stroke:rgb(0%,0%,0%);stroke-opacity:1;stroke-miterlimit:4;" d="M 422.901042 288.401042 L 421.5 311.098958 " transform="matrix(0.75,0,0,0.75,0,0)"/>
<path style="fill:none;stroke-width:2;stroke-linecap:butt;stroke-linejoin:miter;stroke:rgb(0%,0%,0%);stroke-opacity:1;stroke-miterlimit:4;" d="M 261 301.598958 L 222.5 262.302083 " transform="matrix(0.75,0,0,0.75,0,0)"/>
<path style="fill:none;stroke-width:2;stroke-linecap:butt;stroke-linejoin:miter;stroke:rgb(0%,0%,0%);stroke-opacity:1;stroke-miterlimit:4;" d="M 222.5 262.302083 L 199.197917 268.302083 " transform="matrix(0.75,0,0,0.75,0,0)"/>
<path style="fill:none;stroke-width:2;stroke-linecap:butt;stroke-linejoin:miter;stroke:rgb(80%,80%,0%);stroke-opacity:1;stroke-miterlimit:4;" d="M 199.197917 268.302083 L 175.901042 274.302083 " transform="matrix(0.75,0,0,0.75,0,0)"/>
<path style="fill:none;stroke-width:2;stroke-linecap:butt;stroke-linejoin:miter;stroke:rgb(80%,80%,0%);stroke-opacity:1;stroke-miterlimit:4;" d="M 166.302083 286.098958 L 160.401042 307.598958 " transform="matrix(0.75,0,0,0.75,0,0)"/>
<path style="fill:none;stroke-width:2;stroke-linecap:butt;stroke-linejoin:miter;stroke:rgb(0%,0%,0%);stroke-opacity:1;stroke-miterlimit:4;" d="M 160.401042 307.598958 L 154.401042 329.098958 " transform="matrix(0.75,0,0,0.75,0,0)"/>
<path style="fill:none;stroke-width:2;stroke-linecap:butt;stroke-linejoin:miter;stroke:rgb(0%,0%,0%);stroke-opacity:1;stroke-miterlimit:4;" d="M 154.401042 329.098958 L 115.098958 367.697917 " transform="matrix(0.75,0,0,0.75,0,0)"/>
<path style="fill:none;stroke-width:2;stroke-linecap:butt;stroke-linejoin:miter;stroke:rgb(0%,0%,0%);stroke-opacity:1;stroke-miterlimit:4;" d="M 154.401042 329.098958 L 169.802083 344.901042 " transform="matrix(0.75,0,0,0.75,0,0)"/>
<path style="fill:none;stroke-width:2;stroke-linecap:butt;stroke-linejoin:miter;stroke:rgb(0%,0%,100%);stroke-opacity:1;stroke-miterlimit:4;" d="M 169.802083 344.901042 L 185.197917 360.598958 " transform="matrix(0.75,0,0,0.75,0,0)"/>
<path style="fill:none;stroke-width:2;stroke-linecap:butt;stroke-linejoin:miter;stroke:rgb(0%,0%,100%);stroke-opacity:1;stroke-miterlimit:4;" d="M 417.197917 249.697917 L 399.802083 235.401042 " transform="matrix(0.75,0,0,0.75,0,0)"/>
<path style="fill:none;stroke-width:2;stroke-linecap:butt;stroke-linejoin:miter;stroke:rgb(0%,0%,0%);stroke-opacity:1;stroke-miterlimit:4;" d="M 399.802083 235.401042 L 382.401042 221 " transform="matrix(0.75,0,0,0.75,0,0)"/>
<path style="fill:none;stroke-width:1;stroke-linecap:butt;stroke-linejoin:miter;stroke:rgb(0%,0%,0%);stroke-opacity:1;stroke-miterlimit:4;" d="M 148.598958 324.598958 L 147.598958 326.197917 " transform="matrix(0.75,0,0,0.75,0,0)"/>
<path style="fill:none;stroke-width:1;stroke-linecap:butt;stroke-linejoin:miter;stroke:rgb(0%,0%,0%);stroke-opacity:1;stroke-miterlimit:4;" d="M 142.802083 320.098958 L 140.901042 323.302083 " transform="matrix(0.75,0,0,0.75,0,0)"/>
<path style="fill:none;stroke-width:1;stroke-linecap:butt;stroke-linejoin:miter;stroke:rgb(0%,0%,0%);stroke-opacity:1;stroke-miterlimit:4;" d="M 136.901042 315.697917 L 134.098958 320.401042 " transform="matrix(0.75,0,0,0.75,0,0)"/>
<path style="fill:none;stroke-width:1;stroke-linecap:butt;stroke-linejoin:miter;stroke:rgb(0%,0%,0%);stroke-opacity:1;stroke-miterlimit:4;" d="M 131.098958 311.197917 L 127.401042 317.5 " transform="matrix(0.75,0,0,0.75,0,0)"/>
<path style="fill:none;stroke-width:1;stroke-linecap:butt;stroke-linejoin:miter;stroke:rgb(0%,0%,0%);stroke-opacity:1;stroke-miterlimit:4;" d="M 125.302083 306.697917 L 120.598958 314.598958 " transform="matrix(0.75,0,0,0.75,0,0)"/>
<path style="fill:none;stroke-width:1;stroke-linecap:butt;stroke-linejoin:miter;stroke:rgb(0%,0%,0%);stroke-opacity:1;stroke-miterlimit:4;" d="M 119.5 302.197917 L 113.901042 311.697917 " transform="matrix(0.75,0,0,0.75,0,0)"/>
<path style=" stroke:none;fill-rule:nonzero;fill:rgb(100%,0%,0%);fill-opacity:1;" d="M 51.449219 304.726562 C 51.449219 302.875 51.925781 301.425781 52.875 300.375 C 53.773438 299.324219 55.101562 298.800781 56.851562 298.800781 C 58.550781 298.800781 59.875 299.324219 60.824219 300.375 C 61.726562 301.425781 62.175781 302.875 62.175781 304.726562 C 62.175781 306.625 61.726562 308.125 60.824219 309.226562 C 59.875 310.273438 58.550781 310.800781 56.851562 310.800781 C 55.101562 310.800781 53.773438 310.273438 52.875 309.226562 C 51.925781 308.125 51.449219 306.625 51.449219 304.726562 M 56.851562 309.523438 C 58.050781 309.523438 58.949219 309.125 59.550781 308.324219 C 60.199219 307.523438 60.523438 306.324219 60.523438 304.726562 C 60.523438 303.226562 60.199219 302.074219 59.550781 301.273438 C 58.949219 300.523438 58.050781 300.148438 56.851562 300.148438 C 55.648438 300.148438 54.726562 300.523438 54.074219 301.273438 C 53.425781 302.074219 53.101562 303.226562 53.101562 304.726562 C 53.101562 306.324219 53.425781 307.523438 54.074219 308.324219 C 54.726562 309.125 55.648438 309.523438 56.851562 309.523438 "/>
<path style=" stroke:none;fill-rule:nonzero;fill:rgb(0%,0%,100%);fill-opacity:1;" d="M 42.375 240.449219 L 43.949219 240.449219 L 43.949219 245.476562 L 49.949219 245.476562 L 49.949219 240.449219 L 51.523438 240.449219 L 51.523438 252.148438 L 49.949219 252.148438 L 49.949219 246.75 L 43.949219 246.75 L 43.949219 252.148438 L 42.375 252.148438 L 42.375 240.449219 "/>
<path style=" stroke:none;fill-rule:nonzero;fill:rgb(0%,0%,100%);fill-opacity:1;" d="M 54.824219 240.449219 L 58.648438 246.675781 C 58.898438 247.074219 59.226562 247.648438 59.625 248.398438 C 60.023438 249.101562 60.25 249.476562 60.300781 249.523438 L 60.300781 240.449219 L 61.800781 240.449219 L 61.800781 252.148438 L 60.226562 252.148438 L 56.101562 245.398438 C 55.800781 244.851562 55.476562 244.273438 55.125 243.675781 C 54.773438 243.074219 54.550781 242.675781 54.449219 242.476562 L 54.449219 252.148438 L 52.949219 252.148438 L 52.949219 240.449219 L 54.824219 240.449219 "/>
<path style=" stroke:none;fill-rule:nonzero;fill:rgb(100%,0%,0%);fill-opacity:1;" d="M 99.375 186.898438 C 99.375 185 99.851562 183.523438 100.800781 182.476562 C 101.699219 181.425781 103.023438 180.898438 104.773438 180.898438 C 106.476562 180.898438 107.800781 181.425781 108.75 182.476562 C 109.648438 183.523438 110.101562 185 110.101562 186.898438 C 110.101562 188.75 109.648438 190.226562 108.75 191.324219 C 107.800781 192.375 106.476562 192.898438 104.773438 192.898438 C 103.023438 192.898438 101.699219 192.375 100.800781 191.324219 C 99.851562 190.273438 99.375 188.800781 99.375 186.898438 M 104.773438 191.625 C 105.925781 191.625 106.824219 191.226562 107.476562 190.425781 C 108.125 189.625 108.449219 188.449219 108.449219 186.898438 C 108.449219 185.351562 108.125 184.175781 107.476562 183.375 C 106.824219 182.625 105.925781 182.25 104.773438 182.25 C 103.574219 182.25 102.648438 182.625 102 183.375 C 101.351562 184.175781 101.023438 185.351562 101.023438 186.898438 C 101.023438 188.449219 101.351562 189.625 102 190.425781 C 102.648438 191.226562 103.574219 191.625 104.773438 191.625 "/>
<path style=" stroke:none;fill-rule:nonzero;fill:rgb(80%,80%,0%);fill-opacity:1;" d="M 47.25 141.300781 C 47.351562 141.300781 47.574219 141.375 47.925781 141.523438 C 48.273438 141.675781 48.648438 141.800781 49.050781 141.898438 C 49.5 142 49.898438 142.050781 50.25 142.050781 C 51 142.050781 51.601562 141.875 52.050781 141.523438 C 52.449219 141.175781 52.648438 140.675781 52.648438 140.023438 C 52.648438 139.625 52.550781 139.273438 52.351562 138.976562 C 52.148438 138.726562 51.875 138.523438 51.523438 138.375 C 51.226562 138.226562 50.800781 138.074219 50.25 137.925781 C 49.550781 137.726562 48.976562 137.523438 48.523438 137.324219 C 48.125 137.125 47.773438 136.824219 47.476562 136.425781 C 47.226562 135.976562 47.101562 135.398438 47.101562 134.699219 C 47.101562 133.699219 47.425781 132.898438 48.074219 132.300781 C 48.726562 131.699219 49.726562 131.398438 51.074219 131.398438 C 51.976562 131.398438 52.925781 131.625 53.925781 132.074219 L 53.550781 133.351562 C 52.601562 132.949219 51.773438 132.75 51.074219 132.75 C 50.324219 132.75 49.75 132.898438 49.351562 133.199219 C 48.898438 133.550781 48.699219 133.976562 48.75 134.476562 C 48.75 134.925781 48.851562 135.273438 49.050781 135.523438 C 49.25 135.773438 49.5 135.976562 49.800781 136.125 C 50.148438 136.273438 50.574219 136.425781 51.074219 136.574219 C 51.773438 136.773438 52.351562 137 52.800781 137.25 C 53.199219 137.449219 53.550781 137.773438 53.851562 138.226562 C 54.148438 138.675781 54.300781 139.273438 54.300781 140.023438 C 54.300781 141.125 53.949219 141.976562 53.25 142.574219 C 52.5 143.125 51.523438 143.398438 50.324219 143.398438 C 49.625 143.398438 49.023438 143.324219 48.523438 143.175781 C 48.023438 143.023438 47.449219 142.824219 46.800781 142.574219 L 47.25 141.300781 "/>
<path style=" stroke:none;fill-rule:nonzero;fill:rgb(0%,0%,100%);fill-opacity:1;" d="M 41.175781 22.351562 L 45 28.5 C 45.25 28.949219 45.574219 29.523438 45.976562 30.226562 C 46.375 30.976562 46.601562 31.375 46.648438 31.425781 L 46.648438 22.351562 L 48.226562 22.351562 L 48.226562 34.050781 L 46.574219 34.050781 L 42.449219 27.300781 C 42.148438 26.75 41.824219 26.175781 41.476562 25.574219 C 41.125 24.976562 40.898438 24.574219 40.800781 24.375 L 40.800781 34.050781 L 39.300781 34.050781 L 39.300781 22.351562 L 41.175781 22.351562 "/>
<path style=" stroke:none;fill-rule:nonzero;fill:rgb(100%,0%,0%);fill-opacity:1;" d="M 109.5 346.574219 C 109.5 344.726562 109.949219 343.273438 110.851562 342.226562 C 111.800781 341.175781 113.148438 340.648438 114.898438 340.648438 C 116.601562 340.648438 117.925781 341.175781 118.875 342.226562 C 119.773438 343.273438 120.226562 344.726562 120.226562 346.574219 C 120.226562 348.476562 119.75 349.976562 118.800781 351.074219 C 117.898438 352.125 116.601562 352.648438 114.898438 352.648438 C 113.148438 352.648438 111.800781 352.125 110.851562 351.074219 C 109.949219 349.976562 109.5 348.476562 109.5 346.574219 M 114.898438 351.375 C 116.050781 351.375 116.949219 350.976562 117.601562 350.175781 C 118.25 349.375 118.574219 348.175781 118.574219 346.574219 C 118.574219 345.074219 118.25 343.925781 117.601562 343.125 C 116.949219 342.375 116.050781 342 114.898438 342 C 113.699219 342 112.773438 342.375 112.125 343.125 C 111.476562 343.875 111.148438 345.023438 111.148438 346.574219 C 111.148438 348.175781 111.476562 349.375 112.125 350.175781 C 112.773438 350.976562 113.699219 351.375 114.898438 351.375 "/>
<path style=" stroke:none;fill-rule:nonzero;fill:rgb(0%,0%,100%);fill-opacity:1;" d="M 142.125 270.449219 L 145.949219 276.675781 C 146.199219 277.074219 146.523438 277.648438 146.925781 278.398438 C 147.375 279.148438 147.601562 279.550781 147.601562 279.601562 L 147.601562 270.449219 L 149.175781 270.449219 L 149.175781 282.148438 L 147.523438 282.148438 L 143.476562 275.398438 C 143.125 274.851562 142.773438 274.273438 142.425781 273.675781 C 142.125 273.074219 141.925781 272.699219 141.824219 272.550781 L 141.824219 282.148438 L 140.25 282.148438 L 140.25 270.449219 L 142.125 270.449219 "/>
<path style=" stroke:none;fill-rule:nonzero;fill:rgb(100%,0%,0%);fill-opacity:1;" d="M 197.25 335.324219 C 197.25 333.425781 197.699219 331.949219 198.601562 330.898438 C 199.550781 329.898438 200.875 329.398438 202.574219 329.398438 C 204.324219 329.398438 205.648438 329.898438 206.550781 330.898438 C 207.5 331.949219 207.976562 333.425781 207.976562 335.324219 C 207.976562 337.226562 207.5 338.699219 206.550781 339.75 C 205.601562 340.851562 204.273438 341.398438 202.574219 341.398438 C 200.875 341.398438 199.550781 340.851562 198.601562 339.75 C 197.699219 338.699219 197.25 337.226562 197.25 335.324219 M 202.574219 340.050781 C 203.773438 340.050781 204.699219 339.648438 205.351562 338.851562 C 206 338.050781 206.324219 336.875 206.324219 335.324219 C 206.324219 333.773438 206 332.625 205.351562 331.875 C 204.699219 331.074219 203.773438 330.675781 202.574219 330.675781 C 201.375 330.675781 200.449219 331.074219 199.800781 331.875 C 199.199219 332.625 198.898438 333.773438 198.898438 335.324219 C 198.898438 336.875 199.199219 338.050781 199.800781 338.851562 C 200.449219 339.648438 201.375 340.050781 202.574219 340.050781 "/>
<path style=" stroke:none;fill-rule:nonzero;fill:rgb(100%,0%,0%);fill-opacity:1;" d="M 248.25 285.226562 C 248.25 283.324219 248.726562 281.851562 249.675781 280.800781 C 250.574219 279.75 251.898438 279.226562 253.648438 279.226562 C 255.351562 279.226562 256.675781 279.75 257.625 280.800781 C 258.523438 281.851562 258.976562 283.324219 258.976562 285.226562 C 258.976562 287.125 258.523438 288.601562 257.625 289.648438 C 256.675781 290.75 255.351562 291.300781 253.648438 291.300781 C 251.898438 291.300781 250.574219 290.75 249.675781 289.648438 C 248.726562 288.601562 248.25 287.125 248.25 285.226562 M 253.648438 289.949219 C 254.851562 289.949219 255.75 289.550781 256.351562 288.75 C 257 287.949219 257.324219 286.773438 257.324219 285.226562 C 257.324219 283.675781 257 282.523438 256.351562 281.773438 C 255.75 280.976562 254.851562 280.574219 253.648438 280.574219 C 252.449219 280.574219 251.523438 280.949219 250.875 281.699219 C 250.226562 282.5 249.898438 283.675781 249.898438 285.226562 C 249.898438 286.773438 250.226562 287.949219 250.875 288.75 C 251.523438 289.550781 252.449219 289.949219 253.648438 289.949219 "/>
<path style=" stroke:none;fill-rule:nonzero;fill:rgb(100%,0%,0%);fill-opacity:1;" d="M 259.800781 279.375 L 261.449219 279.375 L 261.449219 284.324219 L 267.375 284.324219 L 267.375 279.375 L 268.949219 279.375 L 268.949219 291.074219 L 267.375 291.074219 L 267.375 285.675781 L 261.449219 285.675781 L 261.449219 291.074219 L 259.800781 291.074219 L 259.800781 279.375 "/>
<path style=" stroke:none;fill-rule:nonzero;fill:rgb(80%,80%,0%);fill-opacity:1;" d="M 243.523438 180.148438 C 243.625 180.148438 243.851562 180.226562 244.199219 180.375 C 244.550781 180.523438 244.925781 180.648438 245.324219 180.75 C 245.726562 180.851562 246.125 180.898438 246.523438 180.898438 C 247.273438 180.898438 247.875 180.726562 248.324219 180.375 C 248.726562 180.023438 248.925781 179.523438 248.925781 178.875 C 248.925781 178.476562 248.824219 178.125 248.625 177.824219 C 248.425781 177.574219 248.148438 177.375 247.800781 177.226562 C 247.449219 177.074219 247 176.925781 246.449219 176.773438 C 245.75 176.574219 245.199219 176.375 244.800781 176.175781 C 244.398438 175.976562 244.050781 175.675781 243.75 175.273438 C 243.449219 174.824219 243.300781 174.25 243.300781 173.550781 C 243.300781 172.601562 243.648438 171.800781 244.351562 171.148438 C 245 170.550781 245.976562 170.25 247.273438 170.25 C 248.175781 170.25 249.148438 170.476562 250.199219 170.925781 L 249.824219 172.199219 C 248.875 171.800781 248.050781 171.601562 247.351562 171.601562 C 246.601562 171.601562 246 171.773438 245.550781 172.125 C 245.148438 172.425781 244.949219 172.824219 244.949219 173.324219 C 244.949219 173.773438 245.074219 174.125 245.324219 174.375 C 245.523438 174.625 245.773438 174.824219 246.074219 174.976562 C 246.375 175.125 246.800781 175.273438 247.351562 175.425781 C 248.050781 175.625 248.625 175.851562 249.074219 176.101562 C 249.476562 176.300781 249.824219 176.625 250.125 177.074219 C 250.425781 177.523438 250.574219 178.125 250.574219 178.875 C 250.574219 179.976562 250.199219 180.824219 249.449219 181.425781 C 248.75 181.976562 247.800781 182.25 246.601562 182.25 C 245.898438 182.25 245.300781 182.175781 244.800781 182.023438 C 244.25 181.875 243.675781 181.675781 243.074219 181.425781 L 243.523438 180.148438 "/>
<path style=" stroke:none;fill-rule:nonzero;fill:rgb(0%,0%,100%);fill-opacity:1;" d="M 299.398438 121.5 L 303.226562 127.726562 C 303.476562 128.125 303.800781 128.699219 304.199219 129.449219 C 304.601562 130.148438 304.824219 130.523438 304.875 130.574219 L 304.875 121.5 L 306.375 121.5 L 306.375 133.199219 L 304.800781 133.199219 L 300.675781 126.449219 C 300.375 125.898438 300.050781 125.324219 299.699219 124.726562 C 299.351562 124.125 299.125 123.726562 299.023438 123.523438 L 299.023438 133.199219 L 297.523438 133.199219 L 297.523438 121.5 L 299.398438 121.5 "/>
<path style=" stroke:none;fill-rule:nonzero;fill:rgb(0%,0%,100%);fill-opacity:1;" d="M 340.648438 124.050781 L 344.476562 130.273438 C 344.726562 130.675781 345.050781 131.25 345.449219 132 C 345.851562 132.699219 346.050781 133.074219 346.050781 133.125 L 346.050781 124.050781 L 347.625 124.050781 L 347.625 135.75 L 346.050781 135.75 L 341.925781 129 C 341.625 128.449219 341.300781 127.875 340.949219 127.273438 C 340.601562 126.675781 340.375 126.273438 340.273438 126.074219 L 340.273438 135.75 L 338.773438 135.75 L 338.773438 124.050781 L 340.648438 124.050781 "/>
<path style=" stroke:none;fill-rule:nonzero;fill:rgb(0%,0%,100%);fill-opacity:1;" d="M 350.925781 164.023438 L 354.75 170.25 C 355 170.648438 355.324219 171.226562 355.726562 171.976562 C 356.175781 172.726562 356.398438 173.125 356.398438 173.175781 L 356.398438 164.023438 L 357.976562 164.023438 L 357.976562 175.726562 L 356.324219 175.726562 L 352.273438 168.976562 C 351.925781 168.425781 351.574219 167.851562 351.226562 167.25 C 350.925781 166.648438 350.726562 166.25 350.625 166.050781 L 350.625 175.726562 L 349.050781 175.726562 L 349.050781 164.023438 L 350.925781 164.023438 "/>
<path style=" stroke:none;fill-rule:nonzero;fill:rgb(0%,0%,100%);fill-opacity:1;" d="M 316.050781 186.226562 L 319.949219 192.449219 C 320.199219 192.851562 320.523438 193.425781 320.925781 194.175781 C 321.324219 194.875 321.523438 195.25 321.523438 195.300781 L 321.523438 186.226562 L 323.101562 186.226562 L 323.101562 197.925781 L 321.523438 197.925781 L 317.398438 191.175781 C 317.101562 190.625 316.773438 190.050781 316.425781 189.449219 C 316.074219 188.851562 315.851562 188.449219 315.75 188.25 L 315.75 197.925781 L 314.25 197.925781 L 314.25 186.226562 L 316.050781 186.226562 "/>
<path style=" stroke:none;fill-rule:nonzero;fill:rgb(80%,80%,0%);fill-opacity:1;" d="M 123.523438 211.050781 C 123.625 211.101562 123.851562 211.199219 124.199219 211.351562 C 124.601562 211.5 124.976562 211.625 125.324219 211.726562 C 125.773438 211.824219 126.199219 211.875 126.601562 211.875 C 127.300781 211.875 127.875 211.699219 128.324219 211.351562 C 128.773438 211 129 210.5 129 209.851562 C 129 209.398438 128.875 209.050781 128.625 208.800781 C 128.425781 208.550781 128.148438 208.351562 127.800781 208.199219 C 127.5 208.050781 127.074219 207.898438 126.523438 207.75 C 125.824219 207.550781 125.25 207.351562 124.800781 207.148438 C 124.398438 206.949219 124.050781 206.625 123.75 206.175781 C 123.5 205.773438 123.375 205.226562 123.375 204.523438 C 123.375 203.523438 123.699219 202.726562 124.351562 202.125 C 125 201.523438 126 201.226562 127.351562 201.226562 C 128.25 201.226562 129.199219 201.449219 130.199219 201.898438 L 129.824219 203.175781 C 128.875 202.773438 128.050781 202.574219 127.351562 202.574219 C 126.601562 202.574219 126.023438 202.726562 125.625 203.023438 C 125.175781 203.324219 124.976562 203.75 125.023438 204.300781 C 125.023438 204.75 125.125 205.101562 125.324219 205.351562 C 125.523438 205.601562 125.773438 205.800781 126.074219 205.949219 C 126.425781 206.050781 126.851562 206.199219 127.351562 206.398438 C 128.050781 206.601562 128.625 206.824219 129.074219 207.074219 C 129.476562 207.273438 129.824219 207.601562 130.125 208.050781 C 130.425781 208.5 130.574219 209.101562 130.574219 209.851562 C 130.574219 210.949219 130.226562 211.773438 129.523438 212.324219 C 128.773438 212.925781 127.800781 213.226562 126.601562 213.226562 C 125.949219 213.226562 125.351562 213.148438 124.800781 213 C 124.300781 212.851562 123.726562 212.648438 123.074219 212.398438 L 123.523438 211.050781 "/>
<path style=" stroke:none;fill-rule:nonzero;fill:rgb(0%,0%,0%);fill-opacity:1;" d="M 75.601562 220.050781 L 77.25 220.050781 L 77.25 225 L 83.175781 225 L 83.175781 220.050781 L 84.824219 220.050781 L 84.824219 231.75 L 83.175781 231.75 L 83.175781 226.351562 L 77.25 226.351562 L 77.25 231.75 L 75.601562 231.75 L 75.601562 220.050781 "/>
</g>
</svg>
