<?xml version="1.0" encoding="UTF-8"?>
<svg xmlns="http://www.w3.org/2000/svg" xmlns:xlink="http://www.w3.org/1999/xlink" width="375pt" height="375pt" viewBox="0 0 375 375" version="1.1">
<g id="surface236">
<rect x="0" y="0" width="375" height="375" style="fill:rgb(100%,100%,100%);fill-opacity:1;stroke:none;"/>
<path style="fill:none;stroke-width:2;stroke-linecap:butt;stroke-linejoin:miter;stroke:rgb(100%,0%,0%);stroke-opacity:1;stroke-miterlimit:4;" d="M 200.098958 320.5 L 213.598958 315.197917 " transform="matrix(0.75,0,0,0.75,0,0)"/>
<path style="fill:none;stroke-width:2;stroke-linecap:butt;stroke-linejoin:miter;stroke:rgb(0%,0%,0%);stroke-opacity:1;stroke-miterlimit:4;" d="M 213.598958 315.197917 L 227.098958 309.901042 " transform="matrix(0.75,0,0,0.75,0,0)"/>
<path style="fill:none;stroke-width:2;stroke-linecap:butt;stroke-linejoin:miter;stroke:rgb(100%,0%,0%);stroke-opacity:1;stroke-miterlimit:4;" d="M 202 325.197917 L 215.5 319.901042 " transform="matrix(0.75,0,0,0.75,0,0)"/>
<path style="fill:none;stroke-width:2;stroke-linecap:butt;stroke-linejoin:miter;stroke:rgb(0%,0%,0%);stroke-opacity:1;stroke-miterlimit:4;" d="M 215.5 319.901042 L 229 314.598958 " transform="matrix(0.75,0,0,0.75,0,0)"/>
<path style="fill:none;stroke-width:2;stroke-linecap:butt;stroke-linejoin:miter;stroke:rgb(0%,0%,0%);stroke-opacity:1;stroke-miterlimit:4;" d="M 226.697917 312.802083 L 237.098958 321 " transform="matrix(0.75,0,0,0.75,0,0)"/>
<path style="fill:none;stroke-width:2;stroke-linecap:butt;stroke-linejoin:miter;stroke:rgb(100%,0%,0%);stroke-opacity:1;stroke-miterlimit:4;" d="M 237.098958 321 L 247.401042 329.302083 " transform="matrix(0.75,0,0,0.75,0,0)"/>
<path style="fill:none;stroke-width:2;stroke-linecap:butt;stroke-linejoin:miter;stroke:rgb(0%,0%,0%);stroke-opacity:1;stroke-miterlimit:4;" d="M 226.697917 312.802083 L 231.697917 279.697917 " transform="matrix(0.75,0,0,0.75,0,0)"/>
<path style="fill:none;stroke-width:2;stroke-linecap:butt;stroke-linejoin:miter;stroke:rgb(0%,0%,0%);stroke-opacity:1;stroke-miterlimit:4;" d="M 231.697917 279.697917 L 205.5 258.901042 " transform="matrix(0.75,0,0,0.75,0,0)"/>
<path style="fill:none;stroke-width:2;stroke-linecap:butt;stroke-linejoin:miter;stroke:rgb(0%,0%,0%);stroke-opacity:1;stroke-miterlimit:4;" d="M 232.5 274 L 210.901042 256.697917 " transform="matrix(0.75,0,0,0.75,0,0)"/>
<path style="fill:none;stroke-width:2;stroke-linecap:butt;stroke-linejoin:miter;stroke:rgb(0%,0%,0%);stroke-opacity:1;stroke-miterlimit:4;" d="M 205.5 258.901042 L 174.401042 271.098958 " transform="matrix(0.75,0,0,0.75,0,0)"/>
<path style="fill:none;stroke-width:2;stroke-linecap:butt;stroke-linejoin:miter;stroke:rgb(0%,0%,0%);stroke-opacity:1;stroke-miterlimit:4;" d="M 174.401042 271.098958 L 163.401042 262.302083 " transform="matrix(0.75,0,0,0.75,0,0)"/>
<path style="fill:none;stroke-width:2;stroke-linecap:butt;stroke-linejoin:miter;stroke:rgb(80%,80%,0%);stroke-opacity:1;stroke-miterlimit:4;" d="M 163.401042 262.302083 L 152.401042 253.5 " transform="matrix(0.75,0,0,0.75,0,0)"/>
<path style="fill:none;stroke-width:2;stroke-linecap:butt;stroke-linejoin:miter;stroke:rgb(80%,80%,0%);stroke-opacity:1;stroke-miterlimit:4;" d="M 144.098958 251.901042 L 130.598958 257.197917 " transform="matrix(0.75,0,0,0.75,0,0)"/>
<path style="fill:none;stroke-width:2;stroke-linecap:butt;stroke-linejoin:miter;stroke:rgb(0%,0%,0%);stroke-opacity:1;stroke-miterlimit:4;" d="M 130.598958 257.197917 L 117.098958 262.5 " transform="matrix(0.75,0,0,0.75,0,0)"/>
<path style="fill:none;stroke-width:2;stroke-linecap:butt;stroke-linejoin:miter;stroke:rgb(0%,0%,0%);stroke-opacity:1;stroke-miterlimit:4;" d="M 117.098958 262.5 L 113.697917 275.697917 " transform="matrix(0.75,0,0,0.75,0,0)"/>
<path style="fill:none;stroke-width:2;stroke-linecap:butt;stroke-linejoin:miter;stroke:rgb(0%,0%,100%);stroke-opacity:1;stroke-miterlimit:4;" d="M 113.697917 275.697917 L 110.197917 289 " transform="matrix(0.75,0,0,0.75,0,0)"/>
<path style="fill:none;stroke-width:2;stroke-linecap:butt;stroke-linejoin:miter;stroke:rgb(0%,0%,0%);stroke-opacity:1;stroke-miterlimit:4;" d="M 111.302083 264.802083 L 108.401042 276.302083 " transform="matrix(0.75,0,0,0.75,0,0)"/>
<path style="fill:none;stroke-width:2;stroke-linecap:butt;stroke-linejoin:miter;stroke:rgb(0%,0%,100%);stroke-opacity:1;stroke-miterlimit:4;" d="M 108.401042 276.302083 L 105.401042 287.802083 " transform="matrix(0.75,0,0,0.75,0,0)"/>
<path style="fill:none;stroke-width:2;stroke-linecap:butt;stroke-linejoin:miter;stroke:rgb(0%,0%,100%);stroke-opacity:1;stroke-miterlimit:4;" d="M 104 295.098958 L 80 296.598958 " transform="matrix(0.75,0,0,0.75,0,0)"/>
<path style="fill:none;stroke-width:2;stroke-linecap:butt;stroke-linejoin:miter;stroke:rgb(0%,0%,100%);stroke-opacity:1;stroke-miterlimit:4;" d="M 73 291 L 65.401042 271.598958 " transform="matrix(0.75,0,0,0.75,0,0)"/>
<path style="fill:none;stroke-width:2;stroke-linecap:butt;stroke-linejoin:miter;stroke:rgb(0%,0%,100%);stroke-opacity:1;stroke-miterlimit:4;" d="M 77.697917 289.197917 L 70.098958 269.697917 " transform="matrix(0.75,0,0,0.75,0,0)"/>
<path style="fill:none;stroke-width:2;stroke-linecap:butt;stroke-linejoin:miter;stroke:rgb(0%,0%,100%);stroke-opacity:1;stroke-miterlimit:4;" d="M 67.802083 261.901042 L 84.197917 248.401042 " transform="matrix(0.75,0,0,0.75,0,0)"/>
<path style="fill:none;stroke-width:2;stroke-linecap:butt;stroke-linejoin:miter;stroke:rgb(0%,0%,100%);stroke-opacity:1;stroke-miterlimit:4;" d="M 88.598958 238.697917 L 87.697917 224.901042 " transform="matrix(0.75,0,0,0.75,0,0)"/>
<path style="fill:none;stroke-width:2;stroke-linecap:butt;stroke-linejoin:miter;stroke:rgb(0%,0%,0%);stroke-opacity:1;stroke-miterlimit:4;" d="M 87.697917 224.901042 L 86.901042 211.098958 " transform="matrix(0.75,0,0,0.75,0,0)"/>
<path style="fill:none;stroke-width:2;stroke-linecap:butt;stroke-linejoin:miter;stroke:rgb(0%,0%,0%);stroke-opacity:1;stroke-miterlimit:4;" d="M 86.901042 211.098958 L 74 204.697917 " transform="matrix(0.75,0,0,0.75,0,0)"/>
<path style="fill:none;stroke-width:2;stroke-linecap:butt;stroke-linejoin:miter;stroke:rgb(80%,80%,0%);stroke-opacity:1;stroke-miterlimit:4;" d="M 74 204.697917 L 61.098958 198.197917 " transform="matrix(0.75,0,0,0.75,0,0)"/>
<path style="fill:none;stroke-width:2;stroke-linecap:butt;stroke-linejoin:miter;stroke:rgb(80%,80%,0%);stroke-opacity:1;stroke-miterlimit:4;" d="M 54 191.901042 L 43.802083 186.802083 " transform="matrix(0.75,0,0,0.75,0,0)"/>
<path style="fill:none;stroke-width:2;stroke-linecap:butt;stroke-linejoin:miter;stroke:rgb(100%,0%,0%);stroke-opacity:1;stroke-miterlimit:4;" d="M 43.802083 186.802083 L 33.598958 181.697917 " transform="matrix(0.75,0,0,0.75,0,0)"/>
<path style="fill:none;stroke-width:2;stroke-linecap:butt;stroke-linejoin:miter;stroke:rgb(80%,80%,0%);stroke-opacity:1;stroke-miterlimit:4;" d="M 51.697917 196.302083 L 41.598958 191.302083 " transform="matrix(0.75,0,0,0.75,0,0)"/>
<path style="fill:none;stroke-width:2;stroke-linecap:butt;stroke-linejoin:miter;stroke:rgb(100%,0%,0%);stroke-opacity:1;stroke-miterlimit:4;" d="M 41.598958 191.302083 L 31.401042 186.197917 " transform="matrix(0.75,0,0,0.75,0,0)"/>
<path style="fill:none;stroke-width:2;stroke-linecap:butt;stroke-linejoin:miter;stroke:rgb(80%,80%,0%);stroke-opacity:1;stroke-miterlimit:4;" d="M 62.098958 191.5 L 66.697917 182.401042 " transform="matrix(0.75,0,0,0.75,0,0)"/>
<path style="fill:none;stroke-width:2;stroke-linecap:butt;stroke-linejoin:miter;stroke:rgb(100%,0%,0%);stroke-opacity:1;stroke-miterlimit:4;" d="M 66.697917 182.401042 L 71.197917 173.401042 " transform="matrix(0.75,0,0,0.75,0,0)"/>
<path style="fill:none;stroke-width:2;stroke-linecap:butt;stroke-linejoin:miter;stroke:rgb(80%,80%,0%);stroke-opacity:1;stroke-miterlimit:4;" d="M 57.697917 189.197917 L 62.197917 180.197917 " transform="matrix(0.75,0,0,0.75,0,0)"/>
<path style="fill:none;stroke-width:2;stroke-linecap:butt;stroke-linejoin:miter;stroke:rgb(100%,0%,0%);stroke-opacity:1;stroke-miterlimit:4;" d="M 62.197917 180.197917 L 66.697917 171.197917 " transform="matrix(0.75,0,0,0.75,0,0)"/>
<path style="fill:none;stroke-width:2;stroke-linecap:butt;stroke-linejoin:miter;stroke:rgb(80%,80%,0%);stroke-opacity:1;stroke-miterlimit:4;" d="M 54 202.197917 L 49.5 211.197917 " transform="matrix(0.75,0,0,0.75,0,0)"/>
<path style="fill:none;stroke-width:2;stroke-linecap:butt;stroke-linejoin:miter;stroke:rgb(100%,0%,0%);stroke-opacity:1;stroke-miterlimit:4;" d="M 49.5 211.197917 L 45 220.197917 " transform="matrix(0.75,0,0,0.75,0,0)"/>
<path style="fill:none;stroke-width:2;stroke-linecap:butt;stroke-linejoin:miter;stroke:rgb(0%,0%,0%);stroke-opacity:1;stroke-miterlimit:4;" d="M 205.5 258.901042 L 210.5 225.802083 " transform="matrix(0.75,0,0,0.75,0,0)"/>
<path style="fill:none;stroke-width:2;stroke-linecap:butt;stroke-linejoin:miter;stroke:rgb(0%,0%,0%);stroke-opacity:1;stroke-miterlimit:4;" d="M 210.5 225.802083 L 224 220.5 " transform="matrix(0.75,0,0,0.75,0,0)"/>
<path style="fill:none;stroke-width:2;stroke-linecap:butt;stroke-linejoin:miter;stroke:rgb(80%,80%,0%);stroke-opacity:1;stroke-miterlimit:4;" d="M 224 220.5 L 237.5 215.197917 " transform="matrix(0.75,0,0,0.75,0,0)"/>
<path style="fill:none;stroke-width:2;stroke-linecap:butt;stroke-linejoin:miter;stroke:rgb(80%,80%,0%);stroke-opacity:1;stroke-miterlimit:4;" d="M 245.802083 216.901042 L 256.802083 225.598958 " transform="matrix(0.75,0,0,0.75,0,0)"/>
<path style="fill:none;stroke-width:2;stroke-linecap:butt;stroke-linejoin:miter;stroke:rgb(0%,0%,0%);stroke-opacity:1;stroke-miterlimit:4;" d="M 256.802083 225.598958 L 267.802083 234.401042 " transform="matrix(0.75,0,0,0.75,0,0)"/>
<path style="fill:none;stroke-width:2;stroke-linecap:butt;stroke-linejoin:miter;stroke:rgb(0%,0%,0%);stroke-opacity:1;stroke-miterlimit:4;" d="M 267.802083 234.401042 L 300.802083 239.401042 " transform="matrix(0.75,0,0,0.75,0,0)"/>
<path style="fill:none;stroke-width:1;stroke-linecap:butt;stroke-linejoin:miter;stroke:rgb(0%,0%,0%);stroke-opacity:1;stroke-miterlimit:4;" d="M 304.098958 237.5 L 303.598958 236.802083 " transform="matrix(0.75,0,0,0.75,0,0)"/>
<path style="fill:none;stroke-width:1;stroke-linecap:butt;stroke-linejoin:miter;stroke:rgb(0%,0%,0%);stroke-opacity:1;stroke-miterlimit:4;" d="M 307.401042 235.598958 L 306.401042 234.197917 " transform="matrix(0.75,0,0,0.75,0,0)"/>
<path style="fill:none;stroke-width:1;stroke-linecap:butt;stroke-linejoin:miter;stroke:rgb(0%,0%,0%);stroke-opacity:1;stroke-miterlimit:4;" d="M 310.598958 233.697917 L 309.098958 231.697917 " transform="matrix(0.75,0,0,0.75,0,0)"/>
<path style="fill:none;stroke-width:1;stroke-linecap:butt;stroke-linejoin:miter;stroke:rgb(0%,0%,100%);stroke-opacity:1;stroke-miterlimit:4;" d="M 313.901042 231.802083 L 311.901042 229.098958 " transform="matrix(0.75,0,0,0.75,0,0)"/>
<path style="fill:none;stroke-width:1;stroke-linecap:butt;stroke-linejoin:miter;stroke:rgb(0%,0%,100%);stroke-opacity:1;stroke-miterlimit:4;" d="M 317.098958 229.901042 L 314.598958 226.598958 " transform="matrix(0.75,0,0,0.75,0,0)"/>
<path style="fill:none;stroke-width:1;stroke-linecap:butt;stroke-linejoin:miter;stroke:rgb(0%,0%,100%);stroke-opacity:1;stroke-miterlimit:4;" d="M 320.401042 228 L 317.401042 224 " transform="matrix(0.75,0,0,0.75,0,0)"/>
<path style="fill:none;stroke-width:2;stroke-linecap:butt;stroke-linejoin:miter;stroke:rgb(0%,0%,100%);stroke-opacity:1;stroke-miterlimit:4;" d="M 332.401042 221.5 L 345.401042 227.197917 " transform="matrix(0.75,0,0,0.75,0,0)"/>
<path style="fill:none;stroke-width:2;stroke-linecap:butt;stroke-linejoin:miter;stroke:rgb(0%,0%,0%);stroke-opacity:1;stroke-miterlimit:4;" d="M 345.401042 227.197917 L 358.401042 232.802083 " transform="matrix(0.75,0,0,0.75,0,0)"/>
<path style="fill:none;stroke-width:2;stroke-linecap:butt;stroke-linejoin:miter;stroke:rgb(0%,0%,0%);stroke-opacity:1;stroke-miterlimit:4;" d="M 355.697917 231.697917 L 357.401042 246.098958 " transform="matrix(0.75,0,0,0.75,0,0)"/>
<path style="fill:none;stroke-width:2;stroke-linecap:butt;stroke-linejoin:miter;stroke:rgb(100%,0%,0%);stroke-opacity:1;stroke-miterlimit:4;" d="M 357.401042 246.098958 L 359 260.5 " transform="matrix(0.75,0,0,0.75,0,0)"/>
<path style="fill:none;stroke-width:2;stroke-linecap:butt;stroke-linejoin:miter;stroke:rgb(0%,0%,0%);stroke-opacity:1;stroke-miterlimit:4;" d="M 360.697917 231.098958 L 362.401042 245.5 " transform="matrix(0.75,0,0,0.75,0,0)"/>
<path style="fill:none;stroke-width:2;stroke-linecap:butt;stroke-linejoin:miter;stroke:rgb(100%,0%,0%);stroke-opacity:1;stroke-miterlimit:4;" d="M 362.401042 245.5 L 364 259.901042 " transform="matrix(0.75,0,0,0.75,0,0)"/>
<path style="fill:none;stroke-width:2;stroke-linecap:butt;stroke-linejoin:miter;stroke:rgb(0%,0%,0%);stroke-opacity:1;stroke-miterlimit:4;" d="M 358.401042 232.802083 L 385.302083 213 " transform="matrix(0.75,0,0,0.75,0,0)"/>
<path style="fill:none;stroke-width:1;stroke-linecap:butt;stroke-linejoin:miter;stroke:rgb(0%,0%,0%);stroke-opacity:1;stroke-miterlimit:4;" d="M 384.598958 209.697917 L 385.197917 209.697917 " transform="matrix(0.75,0,0,0.75,0,0)"/>
<path style="fill:none;stroke-width:1;stroke-linecap:butt;stroke-linejoin:miter;stroke:rgb(0%,0%,0%);stroke-opacity:1;stroke-miterlimit:4;" d="M 383.901042 206.5 L 385.197917 206.401042 " transform="matrix(0.75,0,0,0.75,0,0)"/>
<path style="fill:none;stroke-width:1;stroke-linecap:butt;stroke-linejoin:miter;stroke:rgb(0%,0%,0%);stroke-opacity:1;stroke-miterlimit:4;" d="M 383.302083 203.302083 L 385.098958 203.098958 " transform="matrix(0.75,0,0,0.75,0,0)"/>
<path style="fill:none;stroke-width:1;stroke-linecap:butt;stroke-linejoin:miter;stroke:rgb(0%,0%,0%);stroke-opacity:1;stroke-miterlimit:4;" d="M 382.598958 200.098958 L 385.098958 199.802083 " transform="matrix(0.75,0,0,0.75,0,0)"/>
<path style="fill:none;stroke-width:1;stroke-linecap:butt;stroke-linejoin:miter;stroke:rgb(100%,0%,0%);stroke-opacity:1;stroke-miterlimit:4;" d="M 381.901042 196.802083 L 385 196.5 " transform="matrix(0.75,0,0,0.75,0,0)"/>
<path style="fill:none;stroke-width:1;stroke-linecap:butt;stroke-linejoin:miter;stroke:rgb(100%,0%,0%);stroke-opacity:1;stroke-miterlimit:4;" d="M 381.197917 193.598958 L 385 193.197917 " transform="matrix(0.75,0,0,0.75,0,0)"/>
<path style="fill:none;stroke-width:1;stroke-linecap:butt;stroke-linejoin:miter;stroke:rgb(100%,0%,0%);stroke-opacity:1;stroke-miterlimit:4;" d="M 380.5 190.401042 L 384.901042 189.901042 " transform="matrix(0.75,0,0,0.75,0,0)"/>
<path style="fill:none;stroke-width:1;stroke-linecap:butt;stroke-linejoin:miter;stroke:rgb(100%,0%,0%);stroke-opacity:1;stroke-miterlimit:4;" d="M 379.901042 187.197917 L 384.802083 186.598958 " transform="matrix(0.75,0,0,0.75,0,0)"/>
<path style="fill:none;stroke-width:2;stroke-linecap:butt;stroke-linejoin:miter;stroke:rgb(0%,0%,0%);stroke-opacity:1;stroke-miterlimit:4;" d="M 385.302083 213 L 416 226.302083 " transform="matrix(0.75,0,0,0.75,0,0)"/>
<path style="fill:none;stroke-width:2;stroke-linecap:butt;stroke-linejoin:miter;stroke:rgb(0%,0%,0%);stroke-opacity:1;stroke-miterlimit:4;" d="M 416 226.302083 L 419.697917 259.598958 " transform="matrix(0.75,0,0,0.75,0,0)"/>
<path style="fill:none;stroke-width:2;stroke-linecap:butt;stroke-linejoin:miter;stroke:rgb(0%,0%,0%);stroke-opacity:1;stroke-miterlimit:4;" d="M 421.302083 228.598958 L 424.401042 256.098958 " transform="matrix(0.75,0,0,0.75,0,0)"/>
<path style="fill:none;stroke-width:2;stroke-linecap:butt;stroke-linejoin:miter;stroke:rgb(0%,0%,0%);stroke-opacity:1;stroke-miterlimit:4;" d="M 419.697917 259.598958 L 450.401042 272.901042 " transform="matrix(0.75,0,0,0.75,0,0)"/>
<path style="fill:none;stroke-width:2;stroke-linecap:butt;stroke-linejoin:miter;stroke:rgb(0%,0%,0%);stroke-opacity:1;stroke-miterlimit:4;" d="M 450.401042 272.901042 L 477.302083 253 " transform="matrix(0.75,0,0,0.75,0,0)"/>
<path style="fill:none;stroke-width:2;stroke-linecap:butt;stroke-linejoin:miter;stroke:rgb(0%,0%,0%);stroke-opacity:1;stroke-miterlimit:4;" d="M 449.697917 267.197917 L 472 250.697917 " transform="matrix(0.75,0,0,0.75,0,0)"/>
<path style="fill:none;stroke-width:2;stroke-linecap:butt;stroke-linejoin:miter;stroke:rgb(0%,0%,0%);stroke-opacity:1;stroke-miterlimit:4;" d="M 477.302083 253 L 473.5 219.802083 " transform="matrix(0.75,0,0,0.75,0,0)"/>
<path style="fill:none;stroke-width:2;stroke-linecap:butt;stroke-linejoin:miter;stroke:rgb(0%,0%,0%);stroke-opacity:1;stroke-miterlimit:4;" d="M 473.5 219.802083 L 442.901042 206.5 " transform="matrix(0.75,0,0,0.75,0,0)"/>
<path style="fill:none;stroke-width:2;stroke-linecap:butt;stroke-linejoin:miter;stroke:rgb(0%,0%,0%);stroke-opacity:1;stroke-miterlimit:4;" d="M 468.901042 223.302083 L 443.5 212.197917 " transform="matrix(0.75,0,0,0.75,0,0)"/>
<path style="fill:none;stroke-width:2;stroke-linecap:butt;stroke-linejoin:miter;stroke:rgb(0%,0%,0%);stroke-opacity:1;stroke-miterlimit:4;" d="M 300.802083 239.401042 L 295.901042 272.401042 " transform="matrix(0.75,0,0,0.75,0,0)"/>
<path style="fill:none;stroke-width:2;stroke-linecap:butt;stroke-linejoin:miter;stroke:rgb(0%,0%,0%);stroke-opacity:1;stroke-miterlimit:4;" d="M 292.401042 271.901042 L 300.901042 283.401042 " transform="matrix(0.75,0,0,0.75,0,0)"/>
<path style="fill:none;stroke-width:2;stroke-linecap:butt;stroke-linejoin:miter;stroke:rgb(100%,0%,0%);stroke-opacity:1;stroke-miterlimit:4;" d="M 300.901042 283.401042 L 309.401042 294.901042 " transform="matrix(0.75,0,0,0.75,0,0)"/>
<path style="fill:none;stroke-width:2;stroke-linecap:butt;stroke-linejoin:miter;stroke:rgb(0%,0%,0%);stroke-opacity:1;stroke-miterlimit:4;" d="M 296.401042 268.901042 L 304.901042 280.401042 " transform="matrix(0.75,0,0,0.75,0,0)"/>
<path style="fill:none;stroke-width:2;stroke-linecap:butt;stroke-linejoin:miter;stroke:rgb(100%,0%,0%);stroke-opacity:1;stroke-miterlimit:4;" d="M 304.901042 280.401042 L 313.401042 291.901042 " transform="matrix(0.75,0,0,0.75,0,0)"/>
<path style="fill:none;stroke-width:2;stroke-linecap:butt;stroke-linejoin:miter;stroke:rgb(0%,0%,0%);stroke-opacity:1;stroke-miterlimit:4;" d="M 295.901042 272.401042 L 281.697917 270.302083 " transform="matrix(0.75,0,0,0.75,0,0)"/>
<path style="fill:none;stroke-width:2;stroke-linecap:butt;stroke-linejoin:miter;stroke:rgb(0%,0%,100%);stroke-opacity:1;stroke-miterlimit:4;" d="M 281.697917 270.302083 L 267.5 268.197917 " transform="matrix(0.75,0,0,0.75,0,0)"/>
<path style="fill:none;stroke-width:2;stroke-linecap:butt;stroke-linejoin:miter;stroke:rgb(0%,0%,100%);stroke-opacity:1;stroke-miterlimit:4;" d="M 258.098958 269.302083 L 244.901042 274.5 " transform="matrix(0.75,0,0,0.75,0,0)"/>
<path style="fill:none;stroke-width:2;stroke-linecap:butt;stroke-linejoin:miter;stroke:rgb(0%,0%,0%);stroke-opacity:1;stroke-miterlimit:4;" d="M 244.901042 274.5 L 231.697917 279.697917 " transform="matrix(0.75,0,0,0.75,0,0)"/>
<path style="fill:none;stroke-width:2;stroke-linecap:butt;stroke-linejoin:miter;stroke:rgb(0%,0%,100%);stroke-opacity:1;stroke-miterlimit:4;" d="M 93.598958 247.5 L 105.401042 255 " transform="matrix(0.75,0,0,0.75,0,0)"/>
<path style="fill:none;stroke-width:2;stroke-linecap:butt;stroke-linejoin:miter;stroke:rgb(0%,0%,0%);stroke-opacity:1;stroke-miterlimit:4;" d="M 105.401042 255 L 117.098958 262.5 " transform="matrix(0.75,0,0,0.75,0,0)"/>
<path style="fill:none;stroke-width:2;stroke-linecap:butt;stroke-linejoin:miter;stroke:rgb(0%,0%,100%);stroke-opacity:1;stroke-miterlimit:4;" d="M 263.697917 261.598958 L 265.697917 248 " transform="matrix(0.75,0,0,0.75,0,0)"/>
<path style="fill:none;stroke-width:2;stroke-linecap:butt;stroke-linejoin:miter;stroke:rgb(0%,0%,0%);stroke-opacity:1;stroke-miterlimit:4;" d="M 265.697917 248 L 267.802083 234.401042 " transform="matrix(0.75,0,0,0.75,0,0)"/>
<path style="fill:none;stroke-width:2;stroke-linecap:butt;stroke-linejoin:miter;stroke:rgb(0%,0%,0%);stroke-opacity:1;stroke-miterlimit:4;" d="M 442.901042 206.5 L 416 226.302083 " transform="matrix(0.75,0,0,0.75,0,0)"/>
<path style="fill-rule:evenodd;fill:rgb(0%,0%,0%);fill-opacity:1;stroke-width:0.5;stroke-linecap:butt;stroke-linejoin:miter;stroke:rgb(0%,0%,0%);stroke-opacity:1;stroke-miterlimit:4;" d="M 267.802083 234.401042 L 275.802083 209.697917 L 280.401042 211.697917 Z M 267.802083 234.401042 " transform="matrix(0.75,0,0,0.75,0,0)"/>
<path style="fill:none;stroke-width:2;stroke-linecap:butt;stroke-linejoin:miter;stroke:rgb(0%,0%,0%);stroke-opacity:1;stroke-miterlimit:4;" d="M 227.197917 313.197917 L 226.697917 312.802083 L 227 311.098958 " transform="matrix(0.75,0,0,0.75,0,0)"/>
<path style="fill:none;stroke-width:2;stroke-linecap:butt;stroke-linejoin:miter;stroke:rgb(0%,0%,0%);stroke-opacity:1;stroke-miterlimit:4;" d="M 176 270.5 L 174.401042 271.098958 L 173.802083 270.697917 " transform="matrix(0.75,0,0,0.75,0,0)"/>
<path style="fill:none;stroke-width:2;stroke-linecap:butt;stroke-linejoin:miter;stroke:rgb(0%,0%,0%);stroke-opacity:1;stroke-miterlimit:4;" d="M 87 211.802083 L 86.901042 211.098958 L 86.302083 210.802083 " transform="matrix(0.75,0,0,0.75,0,0)"/>
<path style="fill:none;stroke-width:2;stroke-linecap:butt;stroke-linejoin:miter;stroke:rgb(0%,0%,0%);stroke-opacity:1;stroke-miterlimit:4;" d="M 210.197917 227.401042 L 210.5 225.802083 L 211.197917 225.5 " transform="matrix(0.75,0,0,0.75,0,0)"/>
<path style="fill:none;stroke-width:2;stroke-linecap:butt;stroke-linejoin:miter;stroke:rgb(0%,0%,0%);stroke-opacity:1;stroke-miterlimit:4;" d="M 299.197917 239.098958 L 300.802083 239.401042 L 300.598958 241 " transform="matrix(0.75,0,0,0.75,0,0)"/>
<path style="fill:none;stroke-width:2;stroke-linecap:butt;stroke-linejoin:miter;stroke:rgb(0%,0%,0%);stroke-opacity:1;stroke-miterlimit:4;" d="M 357.802083 232.598958 L 358.401042 232.802083 L 359.697917 231.901042 " transform="matrix(0.75,0,0,0.75,0,0)"/>
<path style="fill:none;stroke-width:2;stroke-linecap:butt;stroke-linejoin:miter;stroke:rgb(0%,0%,0%);stroke-opacity:1;stroke-miterlimit:4;" d="M 384 214 L 385.302083 213 L 386.802083 213.598958 " transform="matrix(0.75,0,0,0.75,0,0)"/>
<path style="fill:none;stroke-width:2;stroke-linecap:butt;stroke-linejoin:miter;stroke:rgb(0%,0%,0%);stroke-opacity:1;stroke-miterlimit:4;" d="M 419.5 257.901042 L 419.697917 259.598958 L 421.197917 260.197917 " transform="matrix(0.75,0,0,0.75,0,0)"/>
<path style="fill:none;stroke-width:2;stroke-linecap:butt;stroke-linejoin:miter;stroke:rgb(0%,0%,0%);stroke-opacity:1;stroke-miterlimit:4;" d="M 448.802083 272.302083 L 450.401042 272.901042 L 451.697917 271.901042 " transform="matrix(0.75,0,0,0.75,0,0)"/>
<path style="fill:none;stroke-width:2;stroke-linecap:butt;stroke-linejoin:miter;stroke:rgb(0%,0%,0%);stroke-opacity:1;stroke-miterlimit:4;" d="M 475.901042 254 L 477.302083 253 L 477.098958 251.401042 " transform="matrix(0.75,0,0,0.75,0,0)"/>
<path style="fill:none;stroke-width:2;stroke-linecap:butt;stroke-linejoin:miter;stroke:rgb(0%,0%,0%);stroke-opacity:1;stroke-miterlimit:4;" d="M 473.697917 221.5 L 473.5 219.802083 L 472 219.197917 " transform="matrix(0.75,0,0,0.75,0,0)"/>
<path style="fill:none;stroke-width:2;stroke-linecap:butt;stroke-linejoin:miter;stroke:rgb(0%,0%,0%);stroke-opacity:1;stroke-miterlimit:4;" d="M 444.401042 207.098958 L 442.901042 206.5 L 441.5 207.5 " transform="matrix(0.75,0,0,0.75,0,0)"/>
<path style="fill:none;stroke-width:2;stroke-linecap:butt;stroke-linejoin:miter;stroke:rgb(0%,0%,0%);stroke-opacity:1;stroke-miterlimit:4;" d="M 296.098958 270.802083 L 295.901042 272.401042 L 295.197917 272.302083 " transform="matrix(0.75,0,0,0.75,0,0)"/>
<path style=" stroke:none;fill-rule:nonzero;fill:rgb(100%,0%,0%);fill-opacity:1;" d="M 143.398438 243.75 C 143.398438 242.648438 143.699219 241.773438 144.300781 241.125 C 144.851562 240.476562 145.648438 240.148438 146.699219 240.148438 C 147.75 240.148438 148.550781 240.476562 149.101562 241.125 C 149.648438 241.773438 149.925781 242.648438 149.925781 243.75 C 149.925781 244.898438 149.648438 245.800781 149.101562 246.449219 C 148.550781 247.101562 147.75 247.425781 146.699219 247.425781 C 145.648438 247.425781 144.851562 247.101562 144.300781 246.449219 C 143.699219 245.800781 143.398438 244.898438 143.398438 243.75 M 146.699219 246.675781 C 147.398438 246.675781 147.949219 246.425781 148.351562 245.925781 C 148.75 245.425781 148.949219 244.699219 148.949219 243.75 C 148.949219 242.851562 148.75 242.148438 148.351562 241.648438 C 147.949219 241.199219 147.398438 240.976562 146.699219 240.976562 C 145.949219 240.976562 145.398438 241.199219 145.050781 241.648438 C 144.648438 242.148438 144.449219 242.851562 144.449219 243.75 C 144.449219 244.699219 144.648438 245.425781 145.050781 245.925781 C 145.398438 246.425781 145.949219 246.675781 146.699219 246.675781 "/>
<path style=" stroke:none;fill-rule:nonzero;fill:rgb(100%,0%,0%);fill-opacity:1;" d="M 186.375 250.199219 C 186.375 249.101562 186.648438 248.226562 187.199219 247.574219 C 187.800781 246.925781 188.625 246.601562 189.675781 246.601562 C 190.726562 246.601562 191.523438 246.925781 192.074219 247.574219 C 192.625 248.226562 192.898438 249.101562 192.898438 250.199219 C 192.898438 251.351562 192.625 252.25 192.074219 252.898438 C 191.476562 253.550781 190.675781 253.875 189.675781 253.875 C 188.625 253.875 187.800781 253.550781 187.199219 252.898438 C 186.648438 252.25 186.375 251.351562 186.375 250.199219 M 189.675781 253.125 C 190.375 253.125 190.925781 252.875 191.324219 252.375 C 191.726562 251.875 191.925781 251.148438 191.925781 250.199219 C 191.925781 249.300781 191.726562 248.601562 191.324219 248.101562 C 190.925781 247.648438 190.375 247.425781 189.675781 247.425781 C 188.925781 247.425781 188.351562 247.648438 187.949219 248.101562 C 187.601562 248.601562 187.425781 249.300781 187.425781 250.199219 C 187.425781 251.148438 187.601562 251.875 187.949219 252.375 C 188.351562 252.875 188.925781 253.125 189.675781 253.125 "/>
<path style=" stroke:none;fill-rule:nonzero;fill:rgb(100%,0%,0%);fill-opacity:1;" d="M 194.023438 246.675781 L 195 246.675781 L 195 249.675781 L 198.601562 249.675781 L 198.601562 246.675781 L 199.574219 246.675781 L 199.574219 253.800781 L 198.601562 253.800781 L 198.601562 250.5 L 195 250.5 L 195 253.800781 L 194.023438 253.800781 L 194.023438 246.675781 "/>
<path style=" stroke:none;fill-rule:nonzero;fill:rgb(80%,80%,0%);fill-opacity:1;" d="M 109.199219 190.125 C 109.25 190.125 109.375 190.175781 109.574219 190.273438 C 109.824219 190.375 110.050781 190.449219 110.25 190.5 C 110.5 190.550781 110.75 190.574219 111 190.574219 C 111.449219 190.574219 111.800781 190.476562 112.050781 190.273438 C 112.351562 190.074219 112.5 189.773438 112.5 189.375 C 112.5 189.125 112.425781 188.925781 112.273438 188.773438 C 112.125 188.574219 111.949219 188.449219 111.75 188.398438 C 111.550781 188.300781 111.300781 188.199219 111 188.101562 C 110.550781 187.949219 110.199219 187.824219 109.949219 187.726562 C 109.699219 187.625 109.5 187.449219 109.351562 187.199219 C 109.148438 186.898438 109.050781 186.550781 109.050781 186.148438 C 109.050781 185.550781 109.25 185.074219 109.648438 184.726562 C 110.050781 184.324219 110.648438 184.125 111.449219 184.125 C 112 184.125 112.601562 184.25 113.25 184.5 L 113.023438 185.324219 C 112.425781 185.074219 111.925781 184.949219 111.523438 184.949219 C 111.023438 184.949219 110.648438 185.050781 110.398438 185.25 C 110.148438 185.449219 110.023438 185.699219 110.023438 186 C 110.023438 186.25 110.101562 186.449219 110.25 186.601562 C 110.398438 186.800781 110.550781 186.925781 110.699219 186.976562 C 110.898438 187.074219 111.175781 187.175781 111.523438 187.273438 C 111.925781 187.425781 112.25 187.550781 112.5 187.648438 C 112.75 187.800781 112.976562 188.023438 113.175781 188.324219 C 113.375 188.574219 113.476562 188.925781 113.476562 189.375 C 113.476562 190.023438 113.25 190.523438 112.800781 190.875 C 112.351562 191.226562 111.773438 191.398438 111.074219 191.398438 C 110.625 191.398438 110.25 191.351562 109.949219 191.25 C 109.648438 191.199219 109.300781 191.101562 108.898438 190.949219 L 109.199219 190.125 "/>
<path style=" stroke:none;fill-rule:nonzero;fill:rgb(0%,0%,100%);fill-opacity:1;" d="M 79.949219 217.574219 L 82.273438 221.324219 C 82.425781 221.574219 82.625 221.925781 82.875 222.375 C 83.125 222.824219 83.273438 223.074219 83.324219 223.125 L 83.324219 217.574219 L 84.226562 217.574219 L 84.226562 224.699219 L 83.25 224.699219 L 80.773438 220.574219 C 80.574219 220.273438 80.375 219.925781 80.175781 219.523438 C 79.976562 219.175781 79.851562 218.949219 79.800781 218.851562 L 79.800781 224.699219 L 78.824219 224.699219 L 78.824219 217.574219 L 79.949219 217.574219 "/>
<path style=" stroke:none;fill-rule:nonzero;fill:rgb(0%,0%,100%);fill-opacity:1;" d="M 54.898438 219.074219 L 57.226562 222.898438 C 57.425781 223.101562 57.625 223.425781 57.824219 223.875 C 58.074219 224.324219 58.226562 224.574219 58.273438 224.625 L 58.273438 219.074219 L 59.175781 219.074219 L 59.175781 226.199219 L 58.199219 226.199219 L 55.726562 222.074219 C 55.523438 221.773438 55.324219 221.425781 55.125 221.023438 C 54.925781 220.675781 54.800781 220.449219 54.75 220.351562 L 54.75 226.199219 L 53.773438 226.199219 L 53.773438 219.074219 L 54.898438 219.074219 "/>
<path style=" stroke:none;fill-rule:nonzero;fill:rgb(0%,0%,100%);fill-opacity:1;" d="M 45.75 195.75 L 48.074219 199.5 C 48.226562 199.75 48.425781 200.101562 48.675781 200.550781 C 48.925781 201 49.050781 201.25 49.050781 201.300781 L 49.050781 195.75 L 50.023438 195.75 L 50.023438 202.875 L 49.050781 202.875 L 46.574219 198.75 C 46.375 198.449219 46.175781 198.101562 45.976562 197.699219 C 45.773438 197.351562 45.625 197.125 45.523438 197.023438 L 45.523438 202.875 L 44.625 202.875 L 44.625 195.75 L 45.75 195.75 "/>
<path style=" stroke:none;fill-rule:nonzero;fill:rgb(0%,0%,100%);fill-opacity:1;" d="M 65.101562 179.851562 L 67.425781 183.601562 C 67.574219 183.851562 67.773438 184.199219 68.023438 184.648438 C 68.273438 185.101562 68.425781 185.324219 68.476562 185.324219 L 68.476562 179.851562 L 69.375 179.851562 L 69.375 186.898438 L 68.398438 186.898438 L 65.925781 182.773438 C 65.726562 182.476562 65.523438 182.148438 65.324219 181.800781 C 65.125 181.398438 65 181.148438 64.949219 181.050781 L 64.949219 186.898438 L 63.976562 186.898438 L 63.976562 179.851562 L 65.101562 179.851562 "/>
<path style=" stroke:none;fill-rule:nonzero;fill:rgb(80%,80%,0%);fill-opacity:1;" d="M 40.726562 149.550781 C 40.773438 149.601562 40.925781 149.648438 41.175781 149.699219 C 41.375 149.800781 41.601562 149.898438 41.851562 150 C 42.101562 150.050781 42.351562 150.074219 42.601562 150.074219 C 43.050781 150.074219 43.398438 149.949219 43.648438 149.699219 C 43.898438 149.5 44.023438 149.199219 44.023438 148.800781 C 44.023438 148.550781 43.949219 148.351562 43.800781 148.199219 C 43.699219 148.050781 43.550781 147.925781 43.351562 147.824219 C 43.148438 147.726562 42.875 147.625 42.523438 147.523438 C 42.125 147.425781 41.800781 147.300781 41.550781 147.148438 C 41.300781 147.050781 41.074219 146.875 40.875 146.625 C 40.726562 146.375 40.648438 146.023438 40.648438 145.574219 C 40.648438 144.976562 40.851562 144.5 41.25 144.148438 C 41.648438 143.75 42.25 143.550781 43.050781 143.550781 C 43.601562 143.550781 44.175781 143.699219 44.773438 144 L 44.550781 144.75 C 44 144.5 43.5 144.375 43.050781 144.375 C 42.601562 144.375 42.25 144.476562 42 144.675781 C 41.75 144.875 41.625 145.125 41.625 145.425781 C 41.625 145.726562 41.675781 145.949219 41.773438 146.101562 C 41.925781 146.25 42.101562 146.351562 42.300781 146.398438 C 42.5 146.5 42.75 146.601562 43.050781 146.699219 C 43.5 146.851562 43.851562 147 44.101562 147.148438 C 44.351562 147.25 44.574219 147.449219 44.773438 147.75 C 44.925781 148 45 148.351562 45 148.800781 C 45 149.449219 44.773438 149.949219 44.324219 150.300781 C 43.925781 150.648438 43.351562 150.824219 42.601562 150.824219 C 42.199219 150.824219 41.824219 150.800781 41.476562 150.75 C 41.175781 150.648438 40.851562 150.523438 40.5 150.375 L 40.726562 149.550781 "/>
<path style=" stroke:none;fill-rule:nonzero;fill:rgb(100%,0%,0%);fill-opacity:1;" d="M 17.023438 135.898438 C 17.023438 134.800781 17.324219 133.925781 17.925781 133.273438 C 18.476562 132.625 19.273438 132.300781 20.324219 132.300781 C 21.375 132.300781 22.175781 132.625 22.726562 133.273438 C 23.273438 133.925781 23.550781 134.800781 23.550781 135.898438 C 23.550781 137.050781 23.273438 137.976562 22.726562 138.675781 C 22.125 139.324219 21.324219 139.648438 20.324219 139.648438 C 19.273438 139.648438 18.476562 139.324219 17.925781 138.675781 C 17.324219 138.023438 17.023438 137.101562 17.023438 135.898438 M 20.324219 138.824219 C 21.023438 138.824219 21.574219 138.574219 21.976562 138.074219 C 22.375 137.574219 22.574219 136.851562 22.574219 135.898438 C 22.574219 135 22.375 134.324219 21.976562 133.875 C 21.574219 133.375 21.023438 133.125 20.324219 133.125 C 19.574219 133.125 19 133.351562 18.601562 133.800781 C 18.25 134.300781 18.074219 135 18.074219 135.898438 C 18.074219 136.898438 18.25 137.625 18.601562 138.074219 C 19 138.574219 19.574219 138.824219 20.324219 138.824219 "/>
<path style=" stroke:none;fill-rule:nonzero;fill:rgb(100%,0%,0%);fill-opacity:1;" d="M 50.699219 124.726562 C 50.699219 123.574219 50.976562 122.675781 51.523438 122.023438 C 52.074219 121.425781 52.875 121.125 53.925781 121.125 C 54.976562 121.125 55.800781 121.425781 56.398438 122.023438 C 56.949219 122.675781 57.226562 123.574219 57.226562 124.726562 C 57.226562 125.875 56.925781 126.773438 56.324219 127.425781 C 55.773438 128.074219 54.976562 128.398438 53.925781 128.398438 C 52.925781 128.398438 52.125 128.074219 51.523438 127.425781 C 50.976562 126.773438 50.699219 125.875 50.699219 124.726562 M 53.925781 127.574219 C 54.675781 127.574219 55.25 127.351562 55.648438 126.898438 C 56 126.398438 56.175781 125.675781 56.175781 124.726562 C 56.175781 123.773438 56 123.074219 55.648438 122.625 C 55.25 122.125 54.675781 121.875 53.925781 121.875 C 53.226562 121.875 52.675781 122.125 52.273438 122.625 C 51.875 123.074219 51.675781 123.773438 51.675781 124.726562 C 51.675781 125.675781 51.875 126.398438 52.273438 126.898438 C 52.675781 127.351562 53.226562 127.574219 53.925781 127.574219 "/>
<path style=" stroke:none;fill-rule:nonzero;fill:rgb(100%,0%,0%);fill-opacity:1;" d="M 21.226562 166.050781 L 22.199219 166.050781 L 22.199219 169.050781 L 25.875 169.050781 L 25.875 166.050781 L 26.851562 166.050781 L 26.851562 173.175781 L 25.875 173.175781 L 25.875 169.875 L 22.199219 169.875 L 22.199219 173.175781 L 21.226562 173.175781 L 21.226562 166.050781 "/>
<path style=" stroke:none;fill-rule:nonzero;fill:rgb(100%,0%,0%);fill-opacity:1;" d="M 28.273438 169.574219 C 28.273438 168.425781 28.550781 167.550781 29.101562 166.949219 C 29.648438 166.300781 30.449219 165.976562 31.5 165.976562 C 32.550781 165.976562 33.375 166.300781 33.976562 166.949219 C 34.523438 167.550781 34.800781 168.425781 34.800781 169.574219 C 34.800781 170.726562 34.523438 171.625 33.976562 172.273438 C 33.375 172.925781 32.550781 173.25 31.5 173.25 C 30.5 173.25 29.699219 172.925781 29.101562 172.273438 C 28.550781 171.625 28.273438 170.726562 28.273438 169.574219 M 31.5 172.425781 C 32.25 172.425781 32.824219 172.199219 33.226562 171.75 C 33.625 171.25 33.824219 170.523438 33.824219 169.574219 C 33.824219 168.675781 33.625 167.976562 33.226562 167.476562 C 32.824219 167.023438 32.25 166.800781 31.5 166.800781 C 30.800781 166.800781 30.25 167.023438 29.851562 167.476562 C 29.449219 167.925781 29.25 168.625 29.25 169.574219 C 29.25 170.523438 29.449219 171.25 29.851562 171.75 C 30.25 172.199219 30.800781 172.425781 31.5 172.425781 "/>
<path style=" stroke:none;fill-rule:nonzero;fill:rgb(80%,80%,0%);fill-opacity:1;" d="M 179.175781 162.601562 C 179.226562 162.601562 179.375 162.648438 179.625 162.75 C 179.824219 162.851562 180.050781 162.925781 180.300781 162.976562 C 180.550781 163.023438 180.800781 163.050781 181.050781 163.050781 C 181.5 163.050781 181.851562 162.949219 182.101562 162.75 C 182.351562 162.550781 182.476562 162.25 182.476562 161.851562 C 182.476562 161.601562 182.425781 161.398438 182.324219 161.25 C 182.175781 161.050781 182 160.925781 181.800781 160.875 C 181.601562 160.773438 181.324219 160.675781 180.976562 160.574219 C 180.574219 160.425781 180.25 160.300781 180 160.199219 C 179.75 160.101562 179.523438 159.925781 179.324219 159.675781 C 179.175781 159.375 179.101562 159.023438 179.101562 158.625 C 179.101562 158.023438 179.300781 157.550781 179.699219 157.199219 C 180.101562 156.800781 180.699219 156.601562 181.5 156.601562 C 182.050781 156.601562 182.625 156.75 183.226562 157.050781 L 183 157.800781 C 182.449219 157.550781 181.949219 157.425781 181.5 157.425781 C 181.050781 157.425781 180.699219 157.523438 180.449219 157.726562 C 180.199219 157.925781 180.074219 158.175781 180.074219 158.476562 C 180.074219 158.726562 180.148438 158.925781 180.300781 159.074219 C 180.398438 159.273438 180.550781 159.398438 180.75 159.449219 C 180.949219 159.550781 181.199219 159.648438 181.5 159.75 C 181.949219 159.898438 182.300781 160.023438 182.550781 160.125 C 182.800781 160.273438 183.023438 160.5 183.226562 160.800781 C 183.425781 161.050781 183.523438 161.398438 183.523438 161.851562 C 183.523438 162.5 183.300781 163 182.851562 163.351562 C 182.398438 163.699219 181.800781 163.875 181.050781 163.875 C 180.648438 163.875 180.300781 163.824219 180 163.726562 C 179.648438 163.675781 179.300781 163.574219 178.949219 163.425781 L 179.175781 162.601562 "/>
<path style=" stroke:none;fill-rule:nonzero;fill:rgb(0%,0%,100%);fill-opacity:1;" d="M 244.199219 161.101562 L 246.601562 164.851562 C 246.75 165.101562 246.949219 165.449219 247.199219 165.898438 C 247.398438 166.351562 247.523438 166.574219 247.574219 166.574219 L 247.574219 161.101562 L 248.476562 161.101562 L 248.476562 168.148438 L 247.5 168.148438 L 245.023438 164.023438 C 244.824219 163.726562 244.625 163.398438 244.425781 163.050781 C 244.226562 162.648438 244.101562 162.398438 244.050781 162.300781 L 244.050781 168.148438 L 243.074219 168.148438 L 243.074219 161.101562 L 244.199219 161.101562 "/>
<path style=" stroke:none;fill-rule:nonzero;fill:rgb(0%,0%,100%);fill-opacity:1;" d="M 243 153.226562 L 243.976562 153.226562 L 243.976562 156.300781 L 247.648438 156.300781 L 247.648438 153.226562 L 248.550781 153.226562 L 248.550781 160.351562 L 247.648438 160.351562 L 247.648438 157.050781 L 243.976562 157.050781 L 243.976562 160.351562 L 243 160.351562 L 243 153.226562 "/>
<path style=" stroke:none;fill-rule:nonzero;fill:rgb(100%,0%,0%);fill-opacity:1;" d="M 268.351562 199.574219 C 268.351562 198.425781 268.625 197.550781 269.175781 196.949219 C 269.773438 196.300781 270.601562 195.976562 271.648438 195.976562 C 272.699219 195.976562 273.5 196.300781 274.050781 196.949219 C 274.601562 197.550781 274.875 198.425781 274.875 199.574219 C 274.875 200.726562 274.601562 201.625 274.050781 202.273438 C 273.449219 202.925781 272.648438 203.25 271.648438 203.25 C 270.601562 203.25 269.773438 202.925781 269.175781 202.273438 C 268.625 201.625 268.351562 200.726562 268.351562 199.574219 M 271.648438 202.425781 C 272.351562 202.425781 272.898438 202.199219 273.300781 201.75 C 273.699219 201.25 273.898438 200.523438 273.898438 199.574219 C 273.898438 198.625 273.699219 197.925781 273.300781 197.476562 C 272.898438 197.023438 272.351562 196.800781 271.648438 196.800781 C 270.898438 196.800781 270.324219 197.023438 269.925781 197.476562 C 269.523438 197.925781 269.324219 198.625 269.324219 199.574219 C 269.324219 200.523438 269.523438 201.25 269.925781 201.75 C 270.324219 202.199219 270.898438 202.425781 271.648438 202.425781 "/>
<path style=" stroke:none;fill-rule:nonzero;fill:rgb(100%,0%,0%);fill-opacity:1;" d="M 282.898438 134.851562 C 282.898438 133.699219 283.175781 132.800781 283.726562 132.148438 C 284.273438 131.550781 285.074219 131.25 286.125 131.25 C 287.175781 131.25 288 131.550781 288.601562 132.148438 C 289.148438 132.800781 289.425781 133.699219 289.425781 134.851562 C 289.425781 136 289.125 136.898438 288.523438 137.550781 C 287.976562 138.199219 287.175781 138.523438 286.125 138.523438 C 285.125 138.523438 284.324219 138.199219 283.726562 137.550781 C 283.175781 136.898438 282.898438 136 282.898438 134.851562 M 286.125 137.699219 C 286.875 137.699219 287.449219 137.449219 287.851562 136.949219 C 288.199219 136.5 288.375 135.800781 288.375 134.851562 C 288.375 133.898438 288.199219 133.199219 287.851562 132.75 C 287.449219 132.25 286.875 132 286.125 132 C 285.425781 132 284.875 132.25 284.476562 132.75 C 284.074219 133.199219 283.875 133.898438 283.875 134.851562 C 283.875 135.800781 284.074219 136.5 284.476562 136.949219 C 284.875 137.449219 285.425781 137.699219 286.125 137.699219 "/>
<path style=" stroke:none;fill-rule:nonzero;fill:rgb(100%,0%,0%);fill-opacity:1;" d="M 290.550781 131.324219 L 291.449219 131.324219 L 291.449219 134.324219 L 295.125 134.324219 L 295.125 131.324219 L 296.101562 131.324219 L 296.101562 138.375 L 295.125 138.375 L 295.125 135.148438 L 291.449219 135.148438 L 291.449219 138.375 L 290.550781 138.375 L 290.550781 131.324219 "/>
<path style=" stroke:none;fill-rule:nonzero;fill:rgb(100%,0%,0%);fill-opacity:1;" d="M 233.550781 224.550781 C 233.550781 223.398438 233.824219 222.5 234.375 221.851562 C 234.925781 221.199219 235.726562 220.875 236.773438 220.875 C 237.824219 220.875 238.648438 221.199219 239.25 221.851562 C 239.800781 222.5 240.074219 223.398438 240.074219 224.550781 C 240.074219 225.699219 239.800781 226.601562 239.25 227.25 C 238.648438 227.898438 237.824219 228.226562 236.773438 228.226562 C 235.773438 228.226562 234.976562 227.898438 234.375 227.25 C 233.824219 226.601562 233.550781 225.699219 233.550781 224.550781 M 236.773438 227.398438 C 237.523438 227.398438 238.101562 227.148438 238.5 226.648438 C 238.898438 226.199219 239.101562 225.5 239.101562 224.550781 C 239.101562 223.601562 238.898438 222.898438 238.5 222.449219 C 238.101562 221.949219 237.523438 221.699219 236.773438 221.699219 C 236.074219 221.699219 235.523438 221.925781 235.125 222.375 C 234.726562 222.875 234.523438 223.601562 234.523438 224.550781 C 234.523438 225.5 234.726562 226.199219 235.125 226.648438 C 235.523438 227.148438 236.074219 227.398438 236.773438 227.398438 "/>
<path style=" stroke:none;fill-rule:nonzero;fill:rgb(0%,0%,100%);fill-opacity:1;" d="M 195.523438 197.023438 L 197.851562 200.773438 C 198 201.023438 198.199219 201.375 198.449219 201.824219 C 198.699219 202.273438 198.824219 202.523438 198.824219 202.574219 L 198.824219 197.023438 L 199.800781 197.023438 L 199.800781 204.148438 L 198.824219 204.148438 L 196.351562 200.023438 C 196.148438 199.726562 195.949219 199.375 195.75 198.976562 C 195.550781 198.625 195.398438 198.398438 195.300781 198.300781 L 195.300781 204.148438 L 194.398438 204.148438 L 194.398438 197.023438 L 195.523438 197.023438 "/>
<path style=" stroke:none;fill-rule:nonzero;fill:rgb(0%,0%,0%);fill-opacity:1;" d="M 208.050781 149.25 L 209.023438 149.25 L 209.023438 152.25 L 212.699219 152.25 L 212.699219 149.25 L 213.601562 149.25 L 213.601562 156.375 L 212.699219 156.375 L 212.699219 153.074219 L 209.023438 153.074219 L 209.023438 156.375 L 208.050781 156.375 L 208.050781 149.25 "/>
</g>
</svg>
