<?xml version="1.0" encoding="UTF-8"?>
<svg xmlns="http://www.w3.org/2000/svg" xmlns:xlink="http://www.w3.org/1999/xlink" width="375pt" height="375pt" viewBox="0 0 375 375" version="1.1">
<g id="surface106">
<rect x="0" y="0" width="375" height="375" style="fill:rgb(100%,100%,100%);fill-opacity:1;stroke:none;"/>
<path style="fill:none;stroke-width:2;stroke-linecap:butt;stroke-linejoin:miter;stroke:rgb(0%,0%,100%);stroke-opacity:1;stroke-miterlimit:4;" d="M 301 353 L 319.098958 352.401042 " transform="matrix(0.75,0,0,0.75,0,0)"/>
<path style="fill:none;stroke-width:2;stroke-linecap:butt;stroke-linejoin:miter;stroke:rgb(0%,0%,0%);stroke-opacity:1;stroke-miterlimit:4;" d="M 319.098958 352.401042 L 337.302083 351.802083 " transform="matrix(0.75,0,0,0.75,0,0)"/>
<path style="fill-rule:evenodd;fill:rgb(0%,0%,0%);fill-opacity:1;stroke-width:1;stroke-linecap:butt;stroke-linejoin:miter;stroke:rgb(0%,0%,0%);stroke-opacity:1;stroke-miterlimit:4;" d="M 357.197917 314.5 L 341 353.802083 L 333.598958 349.802083 Z M 357.197917 314.5 " transform="matrix(0.75,0,0,0.75,0,0)"/>
<path style="fill:none;stroke-width:2;stroke-linecap:butt;stroke-linejoin:miter;stroke:rgb(0%,0%,0%);stroke-opacity:1;stroke-miterlimit:4;" d="M 357.197917 314.5 L 348.401042 300.302083 " transform="matrix(0.75,0,0,0.75,0,0)"/>
<path style="fill:none;stroke-width:2;stroke-linecap:butt;stroke-linejoin:miter;stroke:rgb(100%,0%,0%);stroke-opacity:1;stroke-miterlimit:4;" d="M 348.401042 300.302083 L 339.598958 286.197917 " transform="matrix(0.75,0,0,0.75,0,0)"/>
<path style="fill:none;stroke-width:2;stroke-linecap:butt;stroke-linejoin:miter;stroke:rgb(100%,0%,0%);stroke-opacity:1;stroke-miterlimit:4;" d="M 338.802083 271.098958 L 346.697917 256.197917 " transform="matrix(0.75,0,0,0.75,0,0)"/>
<path style="fill:none;stroke-width:2;stroke-linecap:butt;stroke-linejoin:miter;stroke:rgb(0%,0%,0%);stroke-opacity:1;stroke-miterlimit:4;" d="M 346.697917 256.197917 L 354.697917 241.302083 " transform="matrix(0.75,0,0,0.75,0,0)"/>
<path style="fill:none;stroke-width:1;stroke-linecap:butt;stroke-linejoin:miter;stroke:rgb(0%,0%,0%);stroke-opacity:1;stroke-miterlimit:4;" d="M 352.5 236.401042 L 351.302083 237.197917 " transform="matrix(0.75,0,0,0.75,0,0)"/>
<path style="fill:none;stroke-width:1;stroke-linecap:butt;stroke-linejoin:miter;stroke:rgb(0%,0%,0%);stroke-opacity:1;stroke-miterlimit:4;" d="M 350.302083 231.598958 L 347.901042 233.098958 " transform="matrix(0.75,0,0,0.75,0,0)"/>
<path style="fill:none;stroke-width:1;stroke-linecap:butt;stroke-linejoin:miter;stroke:rgb(0%,0%,0%);stroke-opacity:1;stroke-miterlimit:4;" d="M 348.098958 226.697917 L 344.5 229 " transform="matrix(0.75,0,0,0.75,0,0)"/>
<path style="fill:none;stroke-width:1;stroke-linecap:butt;stroke-linejoin:miter;stroke:rgb(100%,0%,0%);stroke-opacity:1;stroke-miterlimit:4;" d="M 345.901042 221.901042 L 341.098958 224.901042 " transform="matrix(0.75,0,0,0.75,0,0)"/>
<path style="fill:none;stroke-width:1;stroke-linecap:butt;stroke-linejoin:miter;stroke:rgb(100%,0%,0%);stroke-opacity:1;stroke-miterlimit:4;" d="M 343.697917 217 L 337.697917 220.802083 " transform="matrix(0.75,0,0,0.75,0,0)"/>
<path style="fill:none;stroke-width:1;stroke-linecap:butt;stroke-linejoin:miter;stroke:rgb(100%,0%,0%);stroke-opacity:1;stroke-miterlimit:4;" d="M 341.5 212.197917 L 334.401042 216.697917 " transform="matrix(0.75,0,0,0.75,0,0)"/>
<path style="fill-rule:evenodd;fill:rgb(0%,0%,0%);fill-opacity:1;stroke-width:1;stroke-linecap:butt;stroke-linejoin:miter;stroke:rgb(0%,0%,0%);stroke-opacity:1;stroke-miterlimit:4;" d="M 290.098958 206.802083 L 307 204.098958 L 307.098958 208.401042 Z M 290.098958 206.802083 " transform="matrix(0.75,0,0,0.75,0,0)"/>
<path style="fill-rule:evenodd;fill:rgb(100%,0%,0%);fill-opacity:1;stroke-width:1;stroke-linecap:butt;stroke-linejoin:miter;stroke:rgb(100%,0%,0%);stroke-opacity:1;stroke-miterlimit:4;" d="M 307 204.098958 L 324.197917 209.901042 L 323.901042 201.5 Z M 307 204.098958 " transform="matrix(0.75,0,0,0.75,0,0)"/>
<path style="fill-rule:evenodd;fill:rgb(100%,0%,0%);fill-opacity:1;stroke-width:1;stroke-linecap:butt;stroke-linejoin:miter;stroke:rgb(100%,0%,0%);stroke-opacity:1;stroke-miterlimit:4;" d="M 307 204.098958 L 307.098958 208.401042 L 324.197917 209.901042 Z M 307 204.098958 " transform="matrix(0.75,0,0,0.75,0,0)"/>
<path style="fill:none;stroke-width:2;stroke-linecap:butt;stroke-linejoin:miter;stroke:rgb(0%,0%,0%);stroke-opacity:1;stroke-miterlimit:4;" d="M 290.098958 206.802083 L 267.697917 171 " transform="matrix(0.75,0,0,0.75,0,0)"/>
<path style="fill:none;stroke-width:1;stroke-linecap:butt;stroke-linejoin:miter;stroke:rgb(0%,0%,0%);stroke-opacity:1;stroke-miterlimit:4;" d="M 270.901042 166.5 L 269.598958 165.901042 " transform="matrix(0.75,0,0,0.75,0,0)"/>
<path style="fill:none;stroke-width:1;stroke-linecap:butt;stroke-linejoin:miter;stroke:rgb(0%,0%,0%);stroke-opacity:1;stroke-miterlimit:4;" d="M 274 162.098958 L 271.5 160.802083 " transform="matrix(0.75,0,0,0.75,0,0)"/>
<path style="fill:none;stroke-width:1;stroke-linecap:butt;stroke-linejoin:miter;stroke:rgb(0%,0%,0%);stroke-opacity:1;stroke-miterlimit:4;" d="M 277.197917 157.697917 L 273.401042 155.697917 " transform="matrix(0.75,0,0,0.75,0,0)"/>
<path style="fill:none;stroke-width:1;stroke-linecap:butt;stroke-linejoin:miter;stroke:rgb(0%,0%,100%);stroke-opacity:1;stroke-miterlimit:4;" d="M 280.302083 153.302083 L 275.302083 150.598958 " transform="matrix(0.75,0,0,0.75,0,0)"/>
<path style="fill:none;stroke-width:1;stroke-linecap:butt;stroke-linejoin:miter;stroke:rgb(0%,0%,100%);stroke-opacity:1;stroke-miterlimit:4;" d="M 283.5 148.802083 L 277.302083 145.5 " transform="matrix(0.75,0,0,0.75,0,0)"/>
<path style="fill:none;stroke-width:1;stroke-linecap:butt;stroke-linejoin:miter;stroke:rgb(0%,0%,100%);stroke-opacity:1;stroke-miterlimit:4;" d="M 286.598958 144.401042 L 279.197917 140.401042 " transform="matrix(0.75,0,0,0.75,0,0)"/>
<path style="fill:none;stroke-width:2;stroke-linecap:butt;stroke-linejoin:miter;stroke:rgb(0%,0%,0%);stroke-opacity:1;stroke-miterlimit:4;" d="M 267.697917 171 L 225.401042 172.401042 " transform="matrix(0.75,0,0,0.75,0,0)"/>
<path style="fill:none;stroke-width:2;stroke-linecap:butt;stroke-linejoin:miter;stroke:rgb(0%,0%,0%);stroke-opacity:1;stroke-miterlimit:4;" d="M 225.401042 172.401042 L 205.598958 209.697917 " transform="matrix(0.75,0,0,0.75,0,0)"/>
<path style="fill:none;stroke-width:1;stroke-linecap:butt;stroke-linejoin:miter;stroke:rgb(0%,0%,0%);stroke-opacity:1;stroke-miterlimit:4;" d="M 199.697917 209.197917 L 199.802083 210.598958 " transform="matrix(0.75,0,0,0.75,0,0)"/>
<path style="fill:none;stroke-width:1;stroke-linecap:butt;stroke-linejoin:miter;stroke:rgb(0%,0%,0%);stroke-opacity:1;stroke-miterlimit:4;" d="M 193.901042 208.697917 L 194 211.5 " transform="matrix(0.75,0,0,0.75,0,0)"/>
<path style="fill:none;stroke-width:1;stroke-linecap:butt;stroke-linejoin:miter;stroke:rgb(0%,0%,0%);stroke-opacity:1;stroke-miterlimit:4;" d="M 188 208.197917 L 188.197917 212.401042 " transform="matrix(0.75,0,0,0.75,0,0)"/>
<path style="fill:none;stroke-width:1;stroke-linecap:butt;stroke-linejoin:miter;stroke:rgb(0%,0%,100%);stroke-opacity:1;stroke-miterlimit:4;" d="M 182.197917 207.697917 L 182.401042 213.302083 " transform="matrix(0.75,0,0,0.75,0,0)"/>
<path style="fill:none;stroke-width:1;stroke-linecap:butt;stroke-linejoin:miter;stroke:rgb(0%,0%,100%);stroke-opacity:1;stroke-miterlimit:4;" d="M 176.302083 207.197917 L 176.598958 214.197917 " transform="matrix(0.75,0,0,0.75,0,0)"/>
<path style="fill:none;stroke-width:1;stroke-linecap:butt;stroke-linejoin:miter;stroke:rgb(0%,0%,100%);stroke-opacity:1;stroke-miterlimit:4;" d="M 170.5 206.697917 L 170.802083 215.098958 " transform="matrix(0.75,0,0,0.75,0,0)"/>
<path style="fill:none;stroke-width:2;stroke-linecap:butt;stroke-linejoin:miter;stroke:rgb(0%,0%,0%);stroke-opacity:1;stroke-miterlimit:4;" d="M 205.598958 209.697917 L 227.901042 245.598958 " transform="matrix(0.75,0,0,0.75,0,0)"/>
<path style="fill-rule:evenodd;fill:rgb(0%,0%,0%);fill-opacity:1;stroke-width:1;stroke-linecap:butt;stroke-linejoin:miter;stroke:rgb(0%,0%,0%);stroke-opacity:1;stroke-miterlimit:4;" d="M 227.901042 245.598958 L 222.197917 260.802083 L 218.5 258.802083 Z M 227.901042 245.598958 " transform="matrix(0.75,0,0,0.75,0,0)"/>
<path style="fill-rule:evenodd;fill:rgb(100%,0%,0%);fill-opacity:1;stroke-width:1;stroke-linecap:butt;stroke-linejoin:miter;stroke:rgb(100%,0%,0%);stroke-opacity:1;stroke-miterlimit:4;" d="M 222.197917 260.802083 L 209 272 L 216.5 276 Z M 222.197917 260.802083 " transform="matrix(0.75,0,0,0.75,0,0)"/>
<path style="fill-rule:evenodd;fill:rgb(100%,0%,0%);fill-opacity:1;stroke-width:1;stroke-linecap:butt;stroke-linejoin:miter;stroke:rgb(100%,0%,0%);stroke-opacity:1;stroke-miterlimit:4;" d="M 222.197917 260.802083 L 218.5 258.802083 L 209 272 Z M 222.197917 260.802083 " transform="matrix(0.75,0,0,0.75,0,0)"/>
<path style="fill:none;stroke-width:1;stroke-linecap:butt;stroke-linejoin:miter;stroke:rgb(0%,0%,0%);stroke-opacity:1;stroke-miterlimit:4;" d="M 171.5 284.802083 L 171.401042 283.401042 " transform="matrix(0.75,0,0,0.75,0,0)"/>
<path style="fill:none;stroke-width:1;stroke-linecap:butt;stroke-linejoin:miter;stroke:rgb(0%,0%,0%);stroke-opacity:1;stroke-miterlimit:4;" d="M 177.197917 285.302083 L 177.098958 282.5 " transform="matrix(0.75,0,0,0.75,0,0)"/>
<path style="fill:none;stroke-width:1;stroke-linecap:butt;stroke-linejoin:miter;stroke:rgb(0%,0%,0%);stroke-opacity:1;stroke-miterlimit:4;" d="M 182.802083 285.901042 L 182.697917 281.598958 " transform="matrix(0.75,0,0,0.75,0,0)"/>
<path style="fill:none;stroke-width:1;stroke-linecap:butt;stroke-linejoin:miter;stroke:rgb(100%,0%,0%);stroke-opacity:1;stroke-miterlimit:4;" d="M 188.5 286.401042 L 188.302083 280.697917 " transform="matrix(0.75,0,0,0.75,0,0)"/>
<path style="fill:none;stroke-width:1;stroke-linecap:butt;stroke-linejoin:miter;stroke:rgb(100%,0%,0%);stroke-opacity:1;stroke-miterlimit:4;" d="M 194.197917 286.901042 L 194 279.802083 " transform="matrix(0.75,0,0,0.75,0,0)"/>
<path style="fill:none;stroke-width:1;stroke-linecap:butt;stroke-linejoin:miter;stroke:rgb(100%,0%,0%);stroke-opacity:1;stroke-miterlimit:4;" d="M 199.901042 287.401042 L 199.598958 278.901042 " transform="matrix(0.75,0,0,0.75,0,0)"/>
<path style="fill:none;stroke-width:2;stroke-linecap:butt;stroke-linejoin:miter;stroke:rgb(0%,0%,0%);stroke-opacity:1;stroke-miterlimit:4;" d="M 165.802083 284.302083 L 157 270.197917 " transform="matrix(0.75,0,0,0.75,0,0)"/>
<path style="fill:none;stroke-width:2;stroke-linecap:butt;stroke-linejoin:miter;stroke:rgb(100%,0%,0%);stroke-opacity:1;stroke-miterlimit:4;" d="M 157 270.197917 L 148.197917 256.098958 " transform="matrix(0.75,0,0,0.75,0,0)"/>
<path style="fill:none;stroke-width:2;stroke-linecap:butt;stroke-linejoin:miter;stroke:rgb(100%,0%,0%);stroke-opacity:1;stroke-miterlimit:4;" d="M 136.5 248.697917 L 118.802083 249.302083 " transform="matrix(0.75,0,0,0.75,0,0)"/>
<path style="fill:none;stroke-width:2;stroke-linecap:butt;stroke-linejoin:miter;stroke:rgb(0%,0%,0%);stroke-opacity:1;stroke-miterlimit:4;" d="M 118.802083 249.302083 L 101.197917 249.901042 " transform="matrix(0.75,0,0,0.75,0,0)"/>
<path style="fill-rule:evenodd;fill:rgb(0%,0%,0%);fill-opacity:1;stroke-width:1;stroke-linecap:butt;stroke-linejoin:miter;stroke:rgb(0%,0%,0%);stroke-opacity:1;stroke-miterlimit:4;" d="M 101.197917 249.901042 L 75.197917 216.197917 L 82.401042 211.802083 Z M 101.197917 249.901042 " transform="matrix(0.75,0,0,0.75,0,0)"/>
<path style="fill:none;stroke-width:2;stroke-linecap:butt;stroke-linejoin:miter;stroke:rgb(0%,0%,0%);stroke-opacity:1;stroke-miterlimit:4;" d="M 78.802083 214 L 86.697917 199.197917 " transform="matrix(0.75,0,0,0.75,0,0)"/>
<path style="fill:none;stroke-width:2;stroke-linecap:butt;stroke-linejoin:miter;stroke:rgb(100%,0%,0%);stroke-opacity:1;stroke-miterlimit:4;" d="M 86.697917 199.197917 L 94.598958 184.302083 " transform="matrix(0.75,0,0,0.75,0,0)"/>
<path style="fill:none;stroke-width:2;stroke-linecap:butt;stroke-linejoin:miter;stroke:rgb(0%,0%,0%);stroke-opacity:1;stroke-miterlimit:4;" d="M 101.197917 249.901042 L 81.302083 287.197917 " transform="matrix(0.75,0,0,0.75,0,0)"/>
<path style="fill:none;stroke-width:1;stroke-linecap:butt;stroke-linejoin:miter;stroke:rgb(0%,0%,0%);stroke-opacity:1;stroke-miterlimit:4;" d="M 75.598958 286.697917 L 75.598958 288.098958 " transform="matrix(0.75,0,0,0.75,0,0)"/>
<path style="fill:none;stroke-width:1;stroke-linecap:butt;stroke-linejoin:miter;stroke:rgb(0%,0%,0%);stroke-opacity:1;stroke-miterlimit:4;" d="M 69.901042 286.197917 L 70 289 " transform="matrix(0.75,0,0,0.75,0,0)"/>
<path style="fill:none;stroke-width:1;stroke-linecap:butt;stroke-linejoin:miter;stroke:rgb(0%,0%,0%);stroke-opacity:1;stroke-miterlimit:4;" d="M 64.197917 285.598958 L 64.401042 289.901042 " transform="matrix(0.75,0,0,0.75,0,0)"/>
<path style="fill:none;stroke-width:1;stroke-linecap:butt;stroke-linejoin:miter;stroke:rgb(100%,0%,0%);stroke-opacity:1;stroke-miterlimit:4;" d="M 58.5 285.098958 L 58.697917 290.802083 " transform="matrix(0.75,0,0,0.75,0,0)"/>
<path style="fill:none;stroke-width:1;stroke-linecap:butt;stroke-linejoin:miter;stroke:rgb(100%,0%,0%);stroke-opacity:1;stroke-miterlimit:4;" d="M 52.901042 284.598958 L 53.098958 291.697917 " transform="matrix(0.75,0,0,0.75,0,0)"/>
<path style="fill:none;stroke-width:1;stroke-linecap:butt;stroke-linejoin:miter;stroke:rgb(100%,0%,0%);stroke-opacity:1;stroke-miterlimit:4;" d="M 47.197917 284.098958 L 47.5 292.598958 " transform="matrix(0.75,0,0,0.75,0,0)"/>
<path style="fill:none;stroke-width:2;stroke-linecap:butt;stroke-linejoin:miter;stroke:rgb(0%,0%,0%);stroke-opacity:1;stroke-miterlimit:4;" d="M 81.302083 287.197917 L 103.697917 323.098958 " transform="matrix(0.75,0,0,0.75,0,0)"/>
<path style="fill-rule:evenodd;fill:rgb(0%,0%,0%);fill-opacity:1;stroke-width:1;stroke-linecap:butt;stroke-linejoin:miter;stroke:rgb(0%,0%,0%);stroke-opacity:1;stroke-miterlimit:4;" d="M 103.697917 323.098958 L 97.901042 338.302083 L 94.197917 336.302083 Z M 103.697917 323.098958 " transform="matrix(0.75,0,0,0.75,0,0)"/>
<path style="fill-rule:evenodd;fill:rgb(0%,0%,100%);fill-opacity:1;stroke-width:1;stroke-linecap:butt;stroke-linejoin:miter;stroke:rgb(0%,0%,100%);stroke-opacity:1;stroke-miterlimit:4;" d="M 97.901042 338.302083 L 84.697917 349.598958 L 92.197917 353.598958 Z M 97.901042 338.302083 " transform="matrix(0.75,0,0,0.75,0,0)"/>
<path style="fill-rule:evenodd;fill:rgb(0%,0%,100%);fill-opacity:1;stroke-width:1;stroke-linecap:butt;stroke-linejoin:miter;stroke:rgb(0%,0%,100%);stroke-opacity:1;stroke-miterlimit:4;" d="M 97.901042 338.302083 L 94.197917 336.302083 L 84.697917 349.598958 Z M 97.901042 338.302083 " transform="matrix(0.75,0,0,0.75,0,0)"/>
<path style="fill:none;stroke-width:2;stroke-linecap:butt;stroke-linejoin:miter;stroke:rgb(0%,0%,0%);stroke-opacity:1;stroke-miterlimit:4;" d="M 103.697917 323.098958 L 145.901042 321.598958 " transform="matrix(0.75,0,0,0.75,0,0)"/>
<path style="fill:none;stroke-width:1;stroke-linecap:butt;stroke-linejoin:miter;stroke:rgb(0%,0%,0%);stroke-opacity:1;stroke-miterlimit:4;" d="M 148.098958 326.5 L 149.302083 325.802083 " transform="matrix(0.75,0,0,0.75,0,0)"/>
<path style="fill:none;stroke-width:1;stroke-linecap:butt;stroke-linejoin:miter;stroke:rgb(0%,0%,0%);stroke-opacity:1;stroke-miterlimit:4;" d="M 150.302083 331.401042 L 152.697917 329.901042 " transform="matrix(0.75,0,0,0.75,0,0)"/>
<path style="fill:none;stroke-width:1;stroke-linecap:butt;stroke-linejoin:miter;stroke:rgb(0%,0%,0%);stroke-opacity:1;stroke-miterlimit:4;" d="M 152.5 336.302083 L 156.098958 334 " transform="matrix(0.75,0,0,0.75,0,0)"/>
<path style="fill:none;stroke-width:1;stroke-linecap:butt;stroke-linejoin:miter;stroke:rgb(100%,0%,0%);stroke-opacity:1;stroke-miterlimit:4;" d="M 154.697917 341.098958 L 159.5 338.197917 " transform="matrix(0.75,0,0,0.75,0,0)"/>
<path style="fill:none;stroke-width:1;stroke-linecap:butt;stroke-linejoin:miter;stroke:rgb(100%,0%,0%);stroke-opacity:1;stroke-miterlimit:4;" d="M 157 346 L 162.901042 342.302083 " transform="matrix(0.75,0,0,0.75,0,0)"/>
<path style="fill:none;stroke-width:1;stroke-linecap:butt;stroke-linejoin:miter;stroke:rgb(100%,0%,0%);stroke-opacity:1;stroke-miterlimit:4;" d="M 159.197917 350.901042 L 166.302083 346.401042 " transform="matrix(0.75,0,0,0.75,0,0)"/>
<path style="fill:none;stroke-width:2;stroke-linecap:butt;stroke-linejoin:miter;stroke:rgb(0%,0%,0%);stroke-opacity:1;stroke-miterlimit:4;" d="M 227.901042 245.598958 L 270.197917 244.098958 " transform="matrix(0.75,0,0,0.75,0,0)"/>
<path style="fill:none;stroke-width:1;stroke-linecap:butt;stroke-linejoin:miter;stroke:rgb(0%,0%,0%);stroke-opacity:1;stroke-miterlimit:4;" d="M 272.401042 249 L 273.598958 248.302083 " transform="matrix(0.75,0,0,0.75,0,0)"/>
<path style="fill:none;stroke-width:1;stroke-linecap:butt;stroke-linejoin:miter;stroke:rgb(0%,0%,0%);stroke-opacity:1;stroke-miterlimit:4;" d="M 274.598958 253.901042 L 277 252.401042 " transform="matrix(0.75,0,0,0.75,0,0)"/>
<path style="fill:none;stroke-width:1;stroke-linecap:butt;stroke-linejoin:miter;stroke:rgb(0%,0%,0%);stroke-opacity:1;stroke-miterlimit:4;" d="M 276.802083 258.802083 L 280.401042 256.5 " transform="matrix(0.75,0,0,0.75,0,0)"/>
<path style="fill:none;stroke-width:1;stroke-linecap:butt;stroke-linejoin:miter;stroke:rgb(100%,0%,0%);stroke-opacity:1;stroke-miterlimit:4;" d="M 279 263.697917 L 283.802083 260.697917 " transform="matrix(0.75,0,0,0.75,0,0)"/>
<path style="fill:none;stroke-width:1;stroke-linecap:butt;stroke-linejoin:miter;stroke:rgb(100%,0%,0%);stroke-opacity:1;stroke-miterlimit:4;" d="M 281.197917 268.5 L 287.197917 264.802083 " transform="matrix(0.75,0,0,0.75,0,0)"/>
<path style="fill:none;stroke-width:1;stroke-linecap:butt;stroke-linejoin:miter;stroke:rgb(100%,0%,0%);stroke-opacity:1;stroke-miterlimit:4;" d="M 283.401042 273.401042 L 290.598958 268.901042 " transform="matrix(0.75,0,0,0.75,0,0)"/>
<path style="fill:none;stroke-width:2;stroke-linecap:butt;stroke-linejoin:miter;stroke:rgb(0%,0%,0%);stroke-opacity:1;stroke-miterlimit:4;" d="M 354.697917 241.302083 L 396.901042 239.802083 " transform="matrix(0.75,0,0,0.75,0,0)"/>
<path style="fill:none;stroke-width:1;stroke-linecap:butt;stroke-linejoin:miter;stroke:rgb(0%,0%,0%);stroke-opacity:1;stroke-miterlimit:4;" d="M 400.098958 235.401042 L 398.901042 234.802083 " transform="matrix(0.75,0,0,0.75,0,0)"/>
<path style="fill:none;stroke-width:1;stroke-linecap:butt;stroke-linejoin:miter;stroke:rgb(0%,0%,0%);stroke-opacity:1;stroke-miterlimit:4;" d="M 403.302083 231 L 400.802083 229.697917 " transform="matrix(0.75,0,0,0.75,0,0)"/>
<path style="fill:none;stroke-width:1;stroke-linecap:butt;stroke-linejoin:miter;stroke:rgb(0%,0%,0%);stroke-opacity:1;stroke-miterlimit:4;" d="M 406.401042 226.598958 L 402.697917 224.598958 " transform="matrix(0.75,0,0,0.75,0,0)"/>
<path style="fill:none;stroke-width:1;stroke-linecap:butt;stroke-linejoin:miter;stroke:rgb(0%,0%,100%);stroke-opacity:1;stroke-miterlimit:4;" d="M 409.598958 222.098958 L 404.598958 219.5 " transform="matrix(0.75,0,0,0.75,0,0)"/>
<path style="fill:none;stroke-width:1;stroke-linecap:butt;stroke-linejoin:miter;stroke:rgb(0%,0%,100%);stroke-opacity:1;stroke-miterlimit:4;" d="M 412.697917 217.697917 L 406.5 214.401042 " transform="matrix(0.75,0,0,0.75,0,0)"/>
<path style="fill:none;stroke-width:1;stroke-linecap:butt;stroke-linejoin:miter;stroke:rgb(0%,0%,100%);stroke-opacity:1;stroke-miterlimit:4;" d="M 415.901042 213.302083 L 408.401042 209.302083 " transform="matrix(0.75,0,0,0.75,0,0)"/>
<path style="fill:none;stroke-width:2;stroke-linecap:butt;stroke-linejoin:miter;stroke:rgb(0%,0%,0%);stroke-opacity:1;stroke-miterlimit:4;" d="M 396.901042 239.802083 L 419.302083 275.697917 " transform="matrix(0.75,0,0,0.75,0,0)"/>
<path style="fill-rule:evenodd;fill:rgb(0%,0%,0%);fill-opacity:1;stroke-width:1;stroke-linecap:butt;stroke-linejoin:miter;stroke:rgb(0%,0%,0%);stroke-opacity:1;stroke-miterlimit:4;" d="M 419.302083 275.697917 L 436.197917 273 L 436.401042 277.302083 Z M 419.302083 275.697917 " transform="matrix(0.75,0,0,0.75,0,0)"/>
<path style="fill-rule:evenodd;fill:rgb(100%,0%,0%);fill-opacity:1;stroke-width:1;stroke-linecap:butt;stroke-linejoin:miter;stroke:rgb(100%,0%,0%);stroke-opacity:1;stroke-miterlimit:4;" d="M 436.197917 273 L 453.401042 278.802083 L 453.098958 270.302083 Z M 436.197917 273 " transform="matrix(0.75,0,0,0.75,0,0)"/>
<path style="fill-rule:evenodd;fill:rgb(100%,0%,0%);fill-opacity:1;stroke-width:1;stroke-linecap:butt;stroke-linejoin:miter;stroke:rgb(100%,0%,0%);stroke-opacity:1;stroke-miterlimit:4;" d="M 436.197917 273 L 436.401042 277.302083 L 453.401042 278.802083 Z M 436.197917 273 " transform="matrix(0.75,0,0,0.75,0,0)"/>
<path style="fill:none;stroke-width:2;stroke-linecap:butt;stroke-linejoin:miter;stroke:rgb(0%,0%,0%);stroke-opacity:1;stroke-miterlimit:4;" d="M 419.302083 275.697917 L 399.401042 313 " transform="matrix(0.75,0,0,0.75,0,0)"/>
<path style="fill:none;stroke-width:1;stroke-linecap:butt;stroke-linejoin:miter;stroke:rgb(0%,0%,0%);stroke-opacity:1;stroke-miterlimit:4;" d="M 401.598958 317.901042 L 402.802083 317.197917 " transform="matrix(0.75,0,0,0.75,0,0)"/>
<path style="fill:none;stroke-width:1;stroke-linecap:butt;stroke-linejoin:miter;stroke:rgb(0%,0%,0%);stroke-opacity:1;stroke-miterlimit:4;" d="M 403.802083 322.802083 L 406.197917 321.302083 " transform="matrix(0.75,0,0,0.75,0,0)"/>
<path style="fill:none;stroke-width:1;stroke-linecap:butt;stroke-linejoin:miter;stroke:rgb(0%,0%,0%);stroke-opacity:1;stroke-miterlimit:4;" d="M 406.098958 327.697917 L 409.598958 325.401042 " transform="matrix(0.75,0,0,0.75,0,0)"/>
<path style="fill:none;stroke-width:1;stroke-linecap:butt;stroke-linejoin:miter;stroke:rgb(100%,0%,0%);stroke-opacity:1;stroke-miterlimit:4;" d="M 408.302083 332.5 L 413.098958 329.598958 " transform="matrix(0.75,0,0,0.75,0,0)"/>
<path style="fill:none;stroke-width:1;stroke-linecap:butt;stroke-linejoin:miter;stroke:rgb(100%,0%,0%);stroke-opacity:1;stroke-miterlimit:4;" d="M 410.5 337.401042 L 416.5 333.697917 " transform="matrix(0.75,0,0,0.75,0,0)"/>
<path style="fill:none;stroke-width:1;stroke-linecap:butt;stroke-linejoin:miter;stroke:rgb(100%,0%,0%);stroke-opacity:1;stroke-miterlimit:4;" d="M 412.697917 342.302083 L 419.901042 337.802083 " transform="matrix(0.75,0,0,0.75,0,0)"/>
<path style="fill:none;stroke-width:2;stroke-linecap:butt;stroke-linejoin:miter;stroke:rgb(0%,0%,0%);stroke-opacity:1;stroke-miterlimit:4;" d="M 399.401042 313 L 357.197917 314.5 " transform="matrix(0.75,0,0,0.75,0,0)"/>
<path style="fill:none;stroke-width:2;stroke-linecap:butt;stroke-linejoin:miter;stroke:rgb(0%,0%,0%);stroke-opacity:1;stroke-miterlimit:4;" d="M 270.197917 244.098958 L 290.098958 206.802083 " transform="matrix(0.75,0,0,0.75,0,0)"/>
<path style="fill:none;stroke-width:2;stroke-linecap:butt;stroke-linejoin:miter;stroke:rgb(0%,0%,0%);stroke-opacity:1;stroke-miterlimit:4;" d="M 145.901042 321.598958 L 165.802083 284.302083 " transform="matrix(0.75,0,0,0.75,0,0)"/>
<path style=" stroke:none;fill-rule:nonzero;fill:rgb(0%,0%,100%);fill-opacity:1;" d="M 205.273438 260.398438 L 206.476562 260.398438 L 206.476562 264.226562 L 211.050781 264.226562 L 211.050781 260.398438 L 212.324219 260.398438 L 212.324219 269.398438 L 211.050781 269.398438 L 211.050781 265.273438 L 206.476562 265.273438 L 206.476562 269.398438 L 205.273438 269.398438 L 205.273438 260.398438 "/>
<path style=" stroke:none;fill-rule:nonzero;fill:rgb(0%,0%,100%);fill-opacity:1;" d="M 213.375 269.101562 C 213.523438 268.699219 213.773438 268.398438 214.125 268.199219 C 214.476562 268 214.898438 267.898438 215.398438 267.898438 C 215.949219 267.898438 216.398438 268.050781 216.75 268.351562 C 217.101562 268.699219 217.273438 269.148438 217.273438 269.699219 C 217.273438 270.300781 217.050781 270.875 216.601562 271.425781 C 216.199219 271.976562 215.550781 272.574219 214.648438 273.226562 L 217.351562 273.226562 L 217.351562 273.898438 L 213.375 273.898438 L 213.375 273.300781 C 214.125 272.800781 214.699219 272.351562 215.101562 271.949219 C 215.550781 271.550781 215.875 271.175781 216.074219 270.824219 C 216.324219 270.476562 216.449219 270.125 216.449219 269.773438 C 216.449219 269.375 216.351562 269.074219 216.148438 268.875 C 215.949219 268.675781 215.699219 268.574219 215.398438 268.574219 C 215.050781 268.574219 214.773438 268.625 214.574219 268.726562 C 214.375 268.875 214.199219 269.101562 214.050781 269.398438 L 213.375 269.101562 "/>
<path style=" stroke:none;fill-rule:nonzero;fill:rgb(0%,0%,100%);fill-opacity:1;" d="M 219.300781 260.398438 L 222.226562 265.199219 C 222.425781 265.5 222.675781 265.925781 222.976562 266.476562 C 223.273438 267.023438 223.449219 267.324219 223.5 267.375 L 223.5 260.398438 L 224.699219 260.398438 L 224.699219 269.398438 L 223.425781 269.398438 L 220.273438 264.226562 C 220.023438 263.773438 219.773438 263.324219 219.523438 262.875 C 219.273438 262.425781 219.101562 262.125 219 261.976562 L 219 269.398438 L 217.875 269.398438 L 217.875 260.398438 L 219.300781 260.398438 "/>
<path style=" stroke:none;fill-rule:nonzero;fill:rgb(100%,0%,0%);fill-opacity:1;" d="M 246.976562 208.949219 C 246.976562 207.5 247.324219 206.375 248.023438 205.574219 C 248.726562 204.773438 249.75 204.375 251.101562 204.375 C 252.449219 204.375 253.476562 204.773438 254.175781 205.574219 C 254.875 206.375 255.226562 207.5 255.226562 208.949219 C 255.226562 210.398438 254.875 211.550781 254.175781 212.398438 C 253.425781 213.199219 252.398438 213.601562 251.101562 213.601562 C 249.800781 213.601562 248.773438 213.199219 248.023438 212.398438 C 247.324219 211.550781 246.976562 210.398438 246.976562 208.949219 M 251.101562 212.625 C 252 212.625 252.699219 212.324219 253.199219 211.726562 C 253.699219 211.074219 253.949219 210.148438 253.949219 208.949219 C 253.949219 207.800781 253.699219 206.925781 253.199219 206.324219 C 252.699219 205.726562 252 205.425781 251.101562 205.425781 C 250.199219 205.425781 249.5 205.726562 249 206.324219 C 248.5 206.875 248.25 207.75 248.25 208.949219 C 248.25 210.148438 248.5 211.074219 249 211.726562 C 249.5 212.324219 250.199219 212.625 251.101562 212.625 "/>
<path style=" stroke:none;fill-rule:nonzero;fill:rgb(100%,0%,0%);fill-opacity:1;" d="M 245.101562 154.050781 C 245.101562 152.648438 245.449219 151.523438 246.148438 150.675781 C 246.898438 149.875 247.925781 149.476562 249.226562 149.476562 C 250.574219 149.476562 251.601562 149.875 252.300781 150.675781 C 253 151.523438 253.351562 152.648438 253.351562 154.050781 C 253.351562 155.5 253 156.648438 252.300781 157.5 C 251.550781 158.300781 250.523438 158.699219 249.226562 158.699219 C 247.925781 158.699219 246.898438 158.300781 246.148438 157.5 C 245.449219 156.699219 245.101562 155.550781 245.101562 154.050781 M 249.226562 157.726562 C 250.125 157.726562 250.824219 157.425781 251.324219 156.824219 C 251.824219 156.175781 252.074219 155.25 252.074219 154.050781 C 252.074219 152.898438 251.824219 152.023438 251.324219 151.425781 C 250.824219 150.824219 250.125 150.523438 249.226562 150.523438 C 248.324219 150.523438 247.625 150.824219 247.125 151.425781 C 246.625 152.023438 246.375 152.898438 246.375 154.050781 C 246.375 155.25 246.625 156.175781 247.125 156.824219 C 247.625 157.425781 248.324219 157.726562 249.226562 157.726562 "/>
<path style=" stroke:none;fill-rule:nonzero;fill:rgb(0%,0%,100%);fill-opacity:1;" d="M 213.675781 95.773438 L 216.675781 100.5 C 216.824219 100.800781 217.074219 101.25 217.425781 101.851562 C 217.726562 102.398438 217.875 102.699219 217.875 102.75 L 217.875 95.773438 L 219.074219 95.773438 L 219.074219 104.699219 L 217.875 104.699219 L 214.726562 99.523438 C 214.476562 99.125 214.226562 98.699219 213.976562 98.25 C 213.726562 97.75 213.550781 97.425781 213.449219 97.273438 L 213.449219 104.699219 L 212.25 104.699219 L 212.25 95.773438 L 213.675781 95.773438 "/>
<path style=" stroke:none;fill-rule:nonzero;fill:rgb(0%,0%,100%);fill-opacity:1;" d="M 220.125 95.773438 L 221.398438 95.773438 L 221.398438 99.523438 L 225.976562 99.523438 L 225.976562 95.773438 L 227.175781 95.773438 L 227.175781 104.699219 L 225.976562 104.699219 L 225.976562 100.574219 L 221.398438 100.574219 L 221.398438 104.699219 L 220.125 104.699219 L 220.125 95.773438 "/>
<path style=" stroke:none;fill-rule:nonzero;fill:rgb(0%,0%,100%);fill-opacity:1;" d="M 228.300781 104.398438 C 228.398438 104.050781 228.625 103.773438 228.976562 103.574219 C 229.324219 103.324219 229.75 103.199219 230.25 103.199219 C 230.851562 103.199219 231.324219 103.375 231.675781 103.726562 C 231.976562 104.023438 232.125 104.476562 232.125 105.074219 C 232.125 105.625 231.925781 106.175781 231.523438 106.726562 C 231.074219 107.273438 230.398438 107.875 229.5 108.523438 L 232.273438 108.523438 L 232.273438 109.199219 L 228.226562 109.199219 L 228.226562 108.675781 C 228.976562 108.125 229.574219 107.648438 230.023438 107.25 C 230.476562 106.898438 230.800781 106.550781 231 106.199219 C 231.199219 105.851562 231.300781 105.476562 231.300781 105.074219 C 231.300781 104.726562 231.199219 104.425781 231 104.175781 C 230.800781 103.976562 230.550781 103.875 230.25 103.875 C 229.949219 103.875 229.675781 103.949219 229.425781 104.101562 C 229.226562 104.199219 229.050781 104.398438 228.898438 104.699219 L 228.300781 104.398438 "/>
<path style=" stroke:none;fill-rule:nonzero;fill:rgb(0%,0%,100%);fill-opacity:1;" d="M 106.5 153.824219 L 107.699219 153.824219 L 107.699219 157.648438 L 112.273438 157.648438 L 112.273438 153.824219 L 113.476562 153.824219 L 113.476562 162.824219 L 112.273438 162.824219 L 112.273438 158.699219 L 107.699219 158.699219 L 107.699219 162.824219 L 106.5 162.824219 L 106.5 153.824219 "/>
<path style=" stroke:none;fill-rule:nonzero;fill:rgb(0%,0%,100%);fill-opacity:1;" d="M 114.601562 162.523438 C 114.75 162.125 115 161.824219 115.351562 161.625 C 115.699219 161.425781 116.101562 161.324219 116.550781 161.324219 C 117.148438 161.324219 117.625 161.5 117.976562 161.851562 C 118.324219 162.148438 118.5 162.601562 118.5 163.199219 C 118.5 163.75 118.273438 164.300781 117.824219 164.851562 C 117.375 165.398438 116.699219 166 115.800781 166.648438 L 118.574219 166.648438 L 118.574219 167.324219 L 114.601562 167.324219 L 114.601562 166.800781 C 115.300781 166.25 115.875 165.773438 116.324219 165.375 C 116.773438 164.976562 117.101562 164.601562 117.300781 164.25 C 117.5 163.898438 117.601562 163.550781 117.601562 163.199219 C 117.601562 162.851562 117.523438 162.550781 117.375 162.300781 C 117.175781 162.101562 116.898438 162 116.550781 162 C 116.25 162 116 162.074219 115.800781 162.226562 C 115.550781 162.324219 115.351562 162.523438 115.199219 162.824219 L 114.601562 162.523438 "/>
<path style=" stroke:none;fill-rule:nonzero;fill:rgb(0%,0%,100%);fill-opacity:1;" d="M 120.523438 153.824219 L 123.449219 158.625 C 123.648438 158.925781 123.898438 159.351562 124.199219 159.898438 C 124.5 160.5 124.675781 160.800781 124.726562 160.800781 L 124.726562 153.824219 L 125.851562 153.824219 L 125.851562 162.824219 L 124.648438 162.824219 L 121.5 157.648438 C 121.25 157.25 121 156.800781 120.75 156.300781 C 120.5 155.851562 120.324219 155.550781 120.226562 155.398438 L 120.226562 162.824219 L 119.101562 162.824219 L 119.101562 153.824219 L 120.523438 153.824219 "/>
<path style=" stroke:none;fill-rule:nonzero;fill:rgb(100%,0%,0%);fill-opacity:1;" d="M 151.875 212.175781 C 151.875 210.726562 152.25 209.601562 153 208.800781 C 153.699219 208 154.699219 207.601562 156 207.601562 C 157.351562 207.601562 158.375 208 159.074219 208.800781 C 159.773438 209.601562 160.125 210.726562 160.125 212.175781 C 160.125 213.625 159.773438 214.773438 159.074219 215.625 C 158.375 216.425781 157.351562 216.824219 156 216.824219 C 154.699219 216.824219 153.699219 216.425781 153 215.625 C 152.25 214.773438 151.875 213.625 151.875 212.175781 M 156 215.851562 C 156.949219 215.851562 157.648438 215.550781 158.101562 214.949219 C 158.601562 214.300781 158.851562 213.375 158.851562 212.175781 C 158.851562 211.023438 158.601562 210.148438 158.101562 209.550781 C 157.648438 208.949219 156.949219 208.648438 156 208.648438 C 155.101562 208.648438 154.398438 208.949219 153.898438 209.550781 C 153.398438 210.101562 153.148438 210.976562 153.148438 212.175781 C 153.148438 213.375 153.398438 214.300781 153.898438 214.949219 C 154.398438 215.550781 155.101562 215.851562 156 215.851562 "/>
<path style=" stroke:none;fill-rule:nonzero;fill:rgb(100%,0%,0%);fill-opacity:1;" d="M 103.425781 186.375 C 103.425781 184.925781 103.773438 183.800781 104.476562 183 C 105.226562 182.199219 106.25 181.800781 107.550781 181.800781 C 108.898438 181.800781 109.925781 182.199219 110.625 183 C 111.324219 183.800781 111.675781 184.925781 111.675781 186.375 C 111.675781 187.824219 111.324219 188.949219 110.625 189.75 C 109.875 190.601562 108.851562 191.023438 107.550781 191.023438 C 106.25 191.023438 105.226562 190.601562 104.476562 189.75 C 103.773438 188.949219 103.425781 187.824219 103.425781 186.375 M 107.550781 189.976562 C 108.449219 189.976562 109.148438 189.675781 109.648438 189.074219 C 110.148438 188.476562 110.398438 187.574219 110.398438 186.375 C 110.398438 185.175781 110.148438 184.273438 109.648438 183.675781 C 109.148438 183.074219 108.449219 182.773438 107.550781 182.773438 C 106.648438 182.773438 105.949219 183.074219 105.449219 183.675781 C 104.949219 184.273438 104.699219 185.175781 104.699219 186.375 C 104.699219 187.574219 104.949219 188.476562 105.449219 189.074219 C 105.949219 189.675781 106.648438 189.976562 107.550781 189.976562 "/>
<path style=" stroke:none;fill-rule:nonzero;fill:rgb(100%,0%,0%);fill-opacity:1;" d="M 69.898438 132.523438 C 69.898438 131.074219 70.25 129.949219 70.949219 129.148438 C 71.648438 128.351562 72.675781 127.949219 74.023438 127.949219 C 75.324219 127.949219 76.351562 128.351562 77.101562 129.148438 C 77.800781 129.949219 78.148438 131.074219 78.148438 132.523438 C 78.148438 133.976562 77.773438 135.125 77.023438 135.976562 C 76.324219 136.773438 75.324219 137.175781 74.023438 137.175781 C 72.675781 137.175781 71.648438 136.773438 70.949219 135.976562 C 70.25 135.125 69.898438 133.976562 69.898438 132.523438 M 74.023438 136.199219 C 74.925781 136.199219 75.625 135.898438 76.125 135.300781 C 76.625 134.648438 76.875 133.726562 76.875 132.523438 C 76.875 131.375 76.625 130.5 76.125 129.898438 C 75.625 129.300781 74.925781 129 74.023438 129 C 73.125 129 72.425781 129.300781 71.925781 129.898438 C 71.425781 130.5 71.175781 131.375 71.175781 132.523438 C 71.175781 133.726562 71.425781 134.648438 71.925781 135.300781 C 72.425781 135.898438 73.125 136.199219 74.023438 136.199219 "/>
<path style=" stroke:none;fill-rule:nonzero;fill:rgb(100%,0%,0%);fill-opacity:1;" d="M 78.75 128.101562 L 79.949219 128.101562 L 79.949219 131.925781 L 84.601562 131.925781 L 84.601562 128.101562 L 85.800781 128.101562 L 85.800781 137.023438 L 84.601562 137.023438 L 84.601562 132.898438 L 79.949219 132.898438 L 79.949219 137.023438 L 78.75 137.023438 L 78.75 128.101562 "/>
<path style=" stroke:none;fill-rule:nonzero;fill:rgb(100%,0%,0%);fill-opacity:1;" d="M 17.023438 212.023438 L 18.300781 212.023438 L 18.300781 215.851562 L 22.875 215.851562 L 22.875 212.023438 L 24.074219 212.023438 L 24.074219 221.023438 L 22.875 221.023438 L 22.875 216.824219 L 18.300781 216.824219 L 18.300781 221.023438 L 17.023438 221.023438 L 17.023438 212.023438 "/>
<path style=" stroke:none;fill-rule:nonzero;fill:rgb(100%,0%,0%);fill-opacity:1;" d="M 25.125 216.523438 C 25.125 215.074219 25.5 213.949219 26.25 213.148438 C 26.949219 212.351562 27.949219 211.949219 29.25 211.949219 C 30.601562 211.949219 31.625 212.351562 32.324219 213.148438 C 33.023438 213.949219 33.375 215.074219 33.375 216.523438 C 33.375 217.976562 33.023438 219.101562 32.324219 219.898438 C 31.625 220.75 30.601562 221.175781 29.25 221.175781 C 27.949219 221.175781 26.949219 220.75 26.25 219.898438 C 25.5 219.101562 25.125 217.976562 25.125 216.523438 M 29.25 220.125 C 30.199219 220.125 30.898438 219.824219 31.351562 219.226562 C 31.851562 218.625 32.101562 217.726562 32.101562 216.523438 C 32.101562 215.324219 31.851562 214.425781 31.351562 213.824219 C 30.898438 213.226562 30.199219 212.925781 29.25 212.925781 C 28.351562 212.925781 27.648438 213.226562 27.148438 213.824219 C 26.648438 214.425781 26.398438 215.324219 26.398438 216.523438 C 26.398438 217.726562 26.648438 218.625 27.148438 219.226562 C 27.648438 219.824219 28.351562 220.125 29.25 220.125 "/>
<path style=" stroke:none;fill-rule:nonzero;fill:rgb(0%,0%,100%);fill-opacity:1;" d="M 46.800781 265.800781 L 48 265.800781 L 48 269.625 L 52.648438 269.625 L 52.648438 265.800781 L 53.851562 265.800781 L 53.851562 274.800781 L 52.648438 274.800781 L 52.648438 270.601562 L 48 270.601562 L 48 274.800781 L 46.800781 274.800781 L 46.800781 265.800781 "/>
<path style=" stroke:none;fill-rule:nonzero;fill:rgb(0%,0%,100%);fill-opacity:1;" d="M 54.976562 274.425781 C 55.074219 274.074219 55.300781 273.800781 55.648438 273.601562 C 56 273.351562 56.425781 273.226562 56.925781 273.226562 C 57.523438 273.226562 58 273.398438 58.351562 273.75 C 58.648438 274.050781 58.800781 274.5 58.800781 275.101562 C 58.800781 275.699219 58.601562 276.273438 58.199219 276.824219 C 57.75 277.375 57.074219 277.949219 56.175781 278.550781 L 58.949219 278.550781 L 58.949219 279.226562 L 54.898438 279.226562 L 54.898438 278.699219 C 55.648438 278.148438 56.25 277.699219 56.699219 277.351562 C 57.148438 276.949219 57.476562 276.574219 57.675781 276.226562 C 57.875 275.875 57.976562 275.5 57.976562 275.101562 C 57.976562 274.75 57.875 274.476562 57.675781 274.273438 C 57.476562 274.023438 57.226562 273.898438 56.925781 273.898438 C 56.625 273.898438 56.351562 273.976562 56.101562 274.125 C 55.898438 274.273438 55.726562 274.476562 55.574219 274.726562 L 54.976562 274.425781 "/>
<path style=" stroke:none;fill-rule:nonzero;fill:rgb(0%,0%,100%);fill-opacity:1;" d="M 60.824219 265.800781 L 63.75 270.523438 C 63.949219 270.824219 64.226562 271.273438 64.574219 271.875 C 64.875 272.425781 65.023438 272.726562 65.023438 272.773438 L 65.023438 265.800781 L 66.226562 265.800781 L 66.226562 274.800781 L 65.023438 274.800781 L 61.875 269.550781 C 61.625 269.148438 61.351562 268.726562 61.050781 268.273438 C 60.800781 267.773438 60.648438 267.476562 60.601562 267.375 L 60.601562 274.800781 L 59.398438 274.800781 L 59.398438 265.800781 L 60.824219 265.800781 "/>
<path style=" stroke:none;fill-rule:nonzero;fill:rgb(100%,0%,0%);fill-opacity:1;" d="M 122.101562 268.125 C 122.101562 266.726562 122.449219 265.625 123.148438 264.824219 C 123.851562 263.976562 124.875 263.550781 126.226562 263.550781 C 127.523438 263.550781 128.523438 263.976562 129.226562 264.824219 C 129.976562 265.625 130.351562 266.726562 130.351562 268.125 C 130.351562 269.574219 129.976562 270.726562 129.226562 271.574219 C 128.523438 272.375 127.523438 272.773438 126.226562 272.773438 C 124.875 272.773438 123.851562 272.375 123.148438 271.574219 C 122.449219 270.773438 122.101562 269.625 122.101562 268.125 M 126.226562 271.800781 C 127.125 271.800781 127.824219 271.5 128.324219 270.898438 C 128.824219 270.25 129.074219 269.324219 129.074219 268.125 C 129.074219 266.976562 128.824219 266.101562 128.324219 265.5 C 127.824219 264.898438 127.125 264.601562 126.226562 264.601562 C 125.273438 264.601562 124.550781 264.898438 124.050781 265.5 C 123.601562 266.101562 123.375 266.976562 123.375 268.125 C 123.375 269.375 123.601562 270.300781 124.050781 270.898438 C 124.550781 271.5 125.273438 271.800781 126.226562 271.800781 "/>
<path style=" stroke:none;fill-rule:nonzero;fill:rgb(100%,0%,0%);fill-opacity:1;" d="M 130.949219 263.699219 L 132.148438 263.699219 L 132.148438 267.523438 L 136.800781 267.523438 L 136.800781 263.699219 L 138 263.699219 L 138 272.699219 L 136.800781 272.699219 L 136.800781 268.5 L 132.148438 268.5 L 132.148438 272.699219 L 130.949219 272.699219 L 130.949219 263.699219 "/>
<path style=" stroke:none;fill-rule:nonzero;fill:rgb(100%,0%,0%);fill-opacity:1;" d="M 215.324219 210 C 215.324219 208.601562 215.675781 207.5 216.375 206.699219 C 217.074219 205.898438 218.074219 205.5 219.375 205.5 C 220.726562 205.5 221.75 205.898438 222.449219 206.699219 C 223.148438 207.5 223.5 208.601562 223.5 210 C 223.5 211.5 223.148438 212.648438 222.449219 213.449219 C 221.75 214.300781 220.726562 214.726562 219.375 214.726562 C 218.074219 214.726562 217.074219 214.300781 216.375 213.449219 C 215.675781 212.648438 215.324219 211.5 215.324219 210 M 219.375 213.675781 C 220.324219 213.675781 221.050781 213.375 221.550781 212.773438 C 222.050781 212.175781 222.300781 211.25 222.300781 210 C 222.300781 208.851562 222.050781 207.976562 221.550781 207.375 C 221.050781 206.773438 220.324219 206.476562 219.375 206.476562 C 218.476562 206.476562 217.773438 206.773438 217.273438 207.375 C 216.773438 207.976562 216.523438 208.851562 216.523438 210 C 216.523438 211.25 216.773438 212.175781 217.273438 212.773438 C 217.773438 213.375 218.476562 213.675781 219.375 213.675781 "/>
<path style=" stroke:none;fill-rule:nonzero;fill:rgb(100%,0%,0%);fill-opacity:1;" d="M 224.175781 205.574219 L 225.375 205.574219 L 225.375 209.398438 L 229.949219 209.398438 L 229.949219 205.574219 L 231.226562 205.574219 L 231.226562 214.574219 L 229.949219 214.574219 L 229.949219 210.375 L 225.375 210.375 L 225.375 214.574219 L 224.175781 214.574219 L 224.175781 205.574219 "/>
<path style=" stroke:none;fill-rule:nonzero;fill:rgb(0%,0%,100%);fill-opacity:1;" d="M 310.648438 147.375 L 313.574219 152.175781 C 313.773438 152.476562 314.023438 152.898438 314.324219 153.449219 C 314.625 154.050781 314.800781 154.351562 314.851562 154.351562 L 314.851562 147.375 L 316.050781 147.375 L 316.050781 156.375 L 314.773438 156.375 L 311.625 151.199219 C 311.375 150.800781 311.125 150.351562 310.875 149.851562 C 310.625 149.398438 310.449219 149.101562 310.351562 148.949219 L 310.351562 156.375 L 309.226562 156.375 L 309.226562 147.375 L 310.648438 147.375 "/>
<path style=" stroke:none;fill-rule:nonzero;fill:rgb(0%,0%,100%);fill-opacity:1;" d="M 317.101562 147.375 L 318.300781 147.375 L 318.300781 151.199219 L 322.875 151.199219 L 322.875 147.375 L 324.074219 147.375 L 324.074219 156.375 L 322.875 156.375 L 322.875 152.25 L 318.300781 152.25 L 318.300781 156.375 L 317.101562 156.375 L 317.101562 147.375 "/>
<path style=" stroke:none;fill-rule:nonzero;fill:rgb(0%,0%,100%);fill-opacity:1;" d="M 325.199219 156.074219 C 325.351562 155.675781 325.601562 155.375 325.949219 155.175781 C 326.300781 154.976562 326.699219 154.875 327.148438 154.875 C 327.75 154.875 328.226562 155.050781 328.574219 155.398438 C 328.925781 155.699219 329.101562 156.148438 329.101562 156.75 C 329.101562 157.300781 328.875 157.851562 328.425781 158.398438 C 327.976562 158.949219 327.324219 159.550781 326.476562 160.199219 L 329.175781 160.199219 L 329.175781 160.875 L 325.199219 160.875 L 325.199219 160.351562 C 325.898438 159.800781 326.476562 159.324219 326.925781 158.925781 C 327.375 158.523438 327.699219 158.148438 327.898438 157.800781 C 328.148438 157.449219 328.273438 157.101562 328.273438 156.75 C 328.273438 156.398438 328.175781 156.101562 327.976562 155.851562 C 327.773438 155.648438 327.5 155.550781 327.148438 155.550781 C 326.851562 155.550781 326.601562 155.625 326.398438 155.773438 C 326.148438 155.875 325.949219 156.074219 325.800781 156.375 L 325.199219 156.074219 "/>
<path style=" stroke:none;fill-rule:nonzero;fill:rgb(100%,0%,0%);fill-opacity:1;" d="M 342.074219 205.726562 C 342.074219 204.273438 342.425781 203.148438 343.125 202.351562 C 343.824219 201.550781 344.851562 201.148438 346.199219 201.148438 C 347.5 201.148438 348.5 201.550781 349.199219 202.351562 C 349.949219 203.148438 350.324219 204.273438 350.324219 205.726562 C 350.324219 207.175781 349.949219 208.324219 349.199219 209.175781 C 348.5 209.976562 347.5 210.375 346.199219 210.375 C 344.851562 210.375 343.824219 209.976562 343.125 209.175781 C 342.425781 208.324219 342.074219 207.175781 342.074219 205.726562 M 346.199219 209.398438 C 347.101562 209.398438 347.800781 209.074219 348.300781 208.425781 C 348.800781 207.824219 349.050781 206.925781 349.050781 205.726562 C 349.050781 204.574219 348.800781 203.699219 348.300781 203.101562 C 347.800781 202.5 347.101562 202.199219 346.199219 202.199219 C 345.25 202.199219 344.523438 202.5 344.023438 203.101562 C 343.574219 203.648438 343.351562 204.523438 343.351562 205.726562 C 343.351562 206.925781 343.574219 207.824219 344.023438 208.425781 C 344.523438 209.074219 345.25 209.398438 346.199219 209.398438 "/>
<path style=" stroke:none;fill-rule:nonzero;fill:rgb(100%,0%,0%);fill-opacity:1;" d="M 350.925781 201.300781 L 352.125 201.300781 L 352.125 205.125 L 356.699219 205.125 L 356.699219 201.300781 L 357.976562 201.300781 L 357.976562 210.226562 L 356.699219 210.226562 L 356.699219 206.101562 L 352.125 206.101562 L 352.125 210.226562 L 350.925781 210.226562 L 350.925781 201.300781 "/>
<path style=" stroke:none;fill-rule:nonzero;fill:rgb(100%,0%,0%);fill-opacity:1;" d="M 312.226562 261.675781 C 312.226562 260.273438 312.574219 259.175781 313.273438 258.375 C 313.976562 257.523438 315 257.101562 316.351562 257.101562 C 317.648438 257.101562 318.675781 257.523438 319.425781 258.375 C 320.125 259.175781 320.476562 260.273438 320.476562 261.675781 C 320.476562 263.125 320.125 264.273438 319.425781 265.125 C 318.675781 265.925781 317.648438 266.324219 316.351562 266.324219 C 315.050781 266.324219 314.023438 265.925781 313.273438 265.125 C 312.574219 264.324219 312.226562 263.175781 312.226562 261.675781 M 316.351562 265.351562 C 317.25 265.351562 317.949219 265.050781 318.449219 264.449219 C 318.949219 263.800781 319.199219 262.875 319.199219 261.675781 C 319.199219 260.523438 318.949219 259.648438 318.449219 259.050781 C 317.949219 258.449219 317.25 258.148438 316.351562 258.148438 C 315.449219 258.148438 314.75 258.449219 314.25 259.050781 C 313.75 259.648438 313.5 260.523438 313.5 261.675781 C 313.5 262.925781 313.75 263.851562 314.25 264.449219 C 314.75 265.050781 315.449219 265.351562 316.351562 265.351562 "/>
<path style=" stroke:none;fill-rule:nonzero;fill:rgb(100%,0%,0%);fill-opacity:1;" d="M 321.074219 257.25 L 322.351562 257.25 L 322.351562 261.074219 L 326.925781 261.074219 L 326.925781 257.25 L 328.125 257.25 L 328.125 266.25 L 326.925781 266.25 L 326.925781 262.050781 L 322.351562 262.050781 L 322.351562 266.25 L 321.074219 266.25 L 321.074219 257.25 "/>
</g>
</svg>
