<?xml version="1.0" encoding="UTF-8"?>
<svg xmlns="http://www.w3.org/2000/svg" xmlns:xlink="http://www.w3.org/1999/xlink" width="375pt" height="375pt" viewBox="0 0 375 375" version="1.1">
<g id="surface71">
<rect x="0" y="0" width="375" height="375" style="fill:rgb(100%,100%,100%);fill-opacity:1;stroke:none;"/>
<path style="fill:none;stroke-width:2;stroke-linecap:butt;stroke-linejoin:miter;stroke:rgb(0%,0%,100%);stroke-opacity:1;stroke-miterlimit:4;" d="M 300.697917 352.5 L 318.802083 351.901042 " transform="matrix(0.75,0,0,0.75,0,0)"/>
<path style="fill:none;stroke-width:2;stroke-linecap:butt;stroke-linejoin:miter;stroke:rgb(0%,0%,0%);stroke-opacity:1;stroke-miterlimit:4;" d="M 318.802083 351.901042 L 340.401042 351.197917 " transform="matrix(0.75,0,0,0.75,0,0)"/>
<path style="fill-rule:evenodd;fill:rgb(0%,0%,0%);fill-opacity:1;stroke-width:0.5;stroke-linecap:butt;stroke-linejoin:miter;stroke:rgb(0%,0%,0%);stroke-opacity:1;stroke-miterlimit:4;" d="M 356.697917 314.197917 L 340.401042 351.197917 L 333.098958 351.401042 Z M 356.697917 314.197917 " transform="matrix(0.75,0,0,0.75,0,0)"/>
<path style="fill:none;stroke-width:2;stroke-linecap:butt;stroke-linejoin:miter;stroke:rgb(0%,0%,0%);stroke-opacity:1;stroke-miterlimit:4;" d="M 356.697917 314.197917 L 347.901042 300.098958 " transform="matrix(0.75,0,0,0.75,0,0)"/>
<path style="fill:none;stroke-width:2;stroke-linecap:butt;stroke-linejoin:miter;stroke:rgb(100%,0%,0%);stroke-opacity:1;stroke-miterlimit:4;" d="M 347.901042 300.098958 L 339.197917 286.098958 " transform="matrix(0.75,0,0,0.75,0,0)"/>
<path style="fill:none;stroke-width:2;stroke-linecap:butt;stroke-linejoin:miter;stroke:rgb(100%,0%,0%);stroke-opacity:1;stroke-miterlimit:4;" d="M 338.401042 271 L 346.302083 256.197917 " transform="matrix(0.75,0,0,0.75,0,0)"/>
<path style="fill:none;stroke-width:2;stroke-linecap:butt;stroke-linejoin:miter;stroke:rgb(0%,0%,0%);stroke-opacity:1;stroke-miterlimit:4;" d="M 346.302083 256.197917 L 354.197917 241.302083 " transform="matrix(0.75,0,0,0.75,0,0)"/>
<path style="fill:none;stroke-width:1;stroke-linecap:butt;stroke-linejoin:miter;stroke:rgb(0%,0%,0%);stroke-opacity:1;stroke-miterlimit:4;" d="M 352.697917 238.098958 L 352 238.598958 " transform="matrix(0.75,0,0,0.75,0,0)"/>
<path style="fill:none;stroke-width:1;stroke-linecap:butt;stroke-linejoin:miter;stroke:rgb(0%,0%,0%);stroke-opacity:1;stroke-miterlimit:4;" d="M 351.197917 235 L 349.901042 235.802083 " transform="matrix(0.75,0,0,0.75,0,0)"/>
<path style="fill:none;stroke-width:1;stroke-linecap:butt;stroke-linejoin:miter;stroke:rgb(0%,0%,0%);stroke-opacity:1;stroke-miterlimit:4;" d="M 349.697917 231.802083 L 347.697917 233 " transform="matrix(0.75,0,0,0.75,0,0)"/>
<path style="fill:none;stroke-width:1;stroke-linecap:butt;stroke-linejoin:miter;stroke:rgb(0%,0%,0%);stroke-opacity:1;stroke-miterlimit:4;" d="M 348.197917 228.598958 L 345.5 230.302083 " transform="matrix(0.75,0,0,0.75,0,0)"/>
<path style="fill:none;stroke-width:1;stroke-linecap:butt;stroke-linejoin:miter;stroke:rgb(100%,0%,0%);stroke-opacity:1;stroke-miterlimit:4;" d="M 346.598958 225.401042 L 343.302083 227.5 " transform="matrix(0.75,0,0,0.75,0,0)"/>
<path style="fill:none;stroke-width:1;stroke-linecap:butt;stroke-linejoin:miter;stroke:rgb(100%,0%,0%);stroke-opacity:1;stroke-miterlimit:4;" d="M 345.098958 222.302083 L 341.098958 224.802083 " transform="matrix(0.75,0,0,0.75,0,0)"/>
<path style="fill:none;stroke-width:1;stroke-linecap:butt;stroke-linejoin:miter;stroke:rgb(100%,0%,0%);stroke-opacity:1;stroke-miterlimit:4;" d="M 343.598958 219.098958 L 338.901042 222 " transform="matrix(0.75,0,0,0.75,0,0)"/>
<path style="fill:none;stroke-width:1;stroke-linecap:butt;stroke-linejoin:miter;stroke:rgb(100%,0%,0%);stroke-opacity:1;stroke-miterlimit:4;" d="M 342.098958 215.901042 L 336.802083 219.302083 " transform="matrix(0.75,0,0,0.75,0,0)"/>
<path style="fill-rule:evenodd;fill:rgb(0%,0%,0%);fill-opacity:1;stroke-width:0.5;stroke-linecap:butt;stroke-linejoin:miter;stroke:rgb(0%,0%,0%);stroke-opacity:1;stroke-miterlimit:4;" d="M 289.901042 207 L 306.697917 204.901042 L 306.802083 208 Z M 289.901042 207 " transform="matrix(0.75,0,0,0.75,0,0)"/>
<path style="fill-rule:evenodd;fill:rgb(100%,0%,0%);fill-opacity:1;stroke-width:0.5;stroke-linecap:butt;stroke-linejoin:miter;stroke:rgb(100%,0%,0%);stroke-opacity:1;stroke-miterlimit:4;" d="M 306.697917 204.901042 L 323.802083 209 L 323.598958 202.697917 Z M 306.697917 204.901042 " transform="matrix(0.75,0,0,0.75,0,0)"/>
<path style="fill-rule:evenodd;fill:rgb(100%,0%,0%);fill-opacity:1;stroke-width:0.5;stroke-linecap:butt;stroke-linejoin:miter;stroke:rgb(100%,0%,0%);stroke-opacity:1;stroke-miterlimit:4;" d="M 306.697917 204.901042 L 306.802083 208 L 323.802083 209 Z M 306.697917 204.901042 " transform="matrix(0.75,0,0,0.75,0,0)"/>
<path style="fill:none;stroke-width:2;stroke-linecap:butt;stroke-linejoin:miter;stroke:rgb(0%,0%,0%);stroke-opacity:1;stroke-miterlimit:4;" d="M 289.901042 207 L 267.598958 171.302083 " transform="matrix(0.75,0,0,0.75,0,0)"/>
<path style="fill:none;stroke-width:1;stroke-linecap:butt;stroke-linejoin:miter;stroke:rgb(0%,0%,0%);stroke-opacity:1;stroke-miterlimit:4;" d="M 269 168 L 269.598958 168.302083 " transform="matrix(0.75,0,0,0.75,0,0)"/>
<path style="fill:none;stroke-width:1;stroke-linecap:butt;stroke-linejoin:miter;stroke:rgb(0%,0%,0%);stroke-opacity:1;stroke-miterlimit:4;" d="M 270.401042 164.697917 L 271.598958 165.302083 " transform="matrix(0.75,0,0,0.75,0,0)"/>
<path style="fill:none;stroke-width:1;stroke-linecap:butt;stroke-linejoin:miter;stroke:rgb(0%,0%,0%);stroke-opacity:1;stroke-miterlimit:4;" d="M 271.697917 161.302083 L 273.598958 162.302083 " transform="matrix(0.75,0,0,0.75,0,0)"/>
<path style="fill:none;stroke-width:1;stroke-linecap:butt;stroke-linejoin:miter;stroke:rgb(0%,0%,0%);stroke-opacity:1;stroke-miterlimit:4;" d="M 273.098958 158 L 275.598958 159.302083 " transform="matrix(0.75,0,0,0.75,0,0)"/>
<path style="fill:none;stroke-width:1;stroke-linecap:butt;stroke-linejoin:miter;stroke:rgb(0%,0%,100%);stroke-opacity:1;stroke-miterlimit:4;" d="M 274.5 154.697917 L 277.598958 156.401042 " transform="matrix(0.75,0,0,0.75,0,0)"/>
<path style="fill:none;stroke-width:1;stroke-linecap:butt;stroke-linejoin:miter;stroke:rgb(0%,0%,100%);stroke-opacity:1;stroke-miterlimit:4;" d="M 275.901042 151.401042 L 279.598958 153.401042 " transform="matrix(0.75,0,0,0.75,0,0)"/>
<path style="fill:none;stroke-width:1;stroke-linecap:butt;stroke-linejoin:miter;stroke:rgb(0%,0%,100%);stroke-opacity:1;stroke-miterlimit:4;" d="M 277.197917 148.098958 L 281.598958 150.401042 " transform="matrix(0.75,0,0,0.75,0,0)"/>
<path style="fill:none;stroke-width:1;stroke-linecap:butt;stroke-linejoin:miter;stroke:rgb(0%,0%,100%);stroke-opacity:1;stroke-miterlimit:4;" d="M 278.598958 144.697917 L 283.598958 147.401042 " transform="matrix(0.75,0,0,0.75,0,0)"/>
<path style="fill:none;stroke-width:1;stroke-linecap:butt;stroke-linejoin:miter;stroke:rgb(0%,0%,100%);stroke-opacity:1;stroke-miterlimit:4;" d="M 280 141.401042 L 285.5 144.401042 " transform="matrix(0.75,0,0,0.75,0,0)"/>
<path style="fill:none;stroke-width:2;stroke-linecap:butt;stroke-linejoin:miter;stroke:rgb(0%,0%,0%);stroke-opacity:1;stroke-miterlimit:4;" d="M 267.598958 171.302083 L 225.598958 172.697917 " transform="matrix(0.75,0,0,0.75,0,0)"/>
<path style="fill:none;stroke-width:2;stroke-linecap:butt;stroke-linejoin:miter;stroke:rgb(0%,0%,0%);stroke-opacity:1;stroke-miterlimit:4;" d="M 225.598958 172.697917 L 205.802083 209.901042 " transform="matrix(0.75,0,0,0.75,0,0)"/>
<path style="fill:none;stroke-width:1;stroke-linecap:butt;stroke-linejoin:miter;stroke:rgb(0%,0%,0%);stroke-opacity:1;stroke-miterlimit:4;" d="M 202.302083 210.302083 L 202.302083 209.697917 " transform="matrix(0.75,0,0,0.75,0,0)"/>
<path style="fill:none;stroke-width:1;stroke-linecap:butt;stroke-linejoin:miter;stroke:rgb(0%,0%,0%);stroke-opacity:1;stroke-miterlimit:4;" d="M 198.802083 210.697917 L 198.802083 209.5 " transform="matrix(0.75,0,0,0.75,0,0)"/>
<path style="fill:none;stroke-width:1;stroke-linecap:butt;stroke-linejoin:miter;stroke:rgb(0%,0%,0%);stroke-opacity:1;stroke-miterlimit:4;" d="M 195.401042 211.197917 L 195.302083 209.302083 " transform="matrix(0.75,0,0,0.75,0,0)"/>
<path style="fill:none;stroke-width:1;stroke-linecap:butt;stroke-linejoin:miter;stroke:rgb(0%,0%,0%);stroke-opacity:1;stroke-miterlimit:4;" d="M 191.901042 211.598958 L 191.802083 209.098958 " transform="matrix(0.75,0,0,0.75,0,0)"/>
<path style="fill:none;stroke-width:1;stroke-linecap:butt;stroke-linejoin:miter;stroke:rgb(0%,0%,0%);stroke-opacity:1;stroke-miterlimit:4;" d="M 188.401042 212 L 188.302083 208.901042 " transform="matrix(0.75,0,0,0.75,0,0)"/>
<path style="fill:none;stroke-width:1;stroke-linecap:butt;stroke-linejoin:miter;stroke:rgb(0%,0%,100%);stroke-opacity:1;stroke-miterlimit:4;" d="M 185 212.5 L 184.802083 208.697917 " transform="matrix(0.75,0,0,0.75,0,0)"/>
<path style="fill:none;stroke-width:1;stroke-linecap:butt;stroke-linejoin:miter;stroke:rgb(0%,0%,100%);stroke-opacity:1;stroke-miterlimit:4;" d="M 181.5 212.901042 L 181.302083 208.5 " transform="matrix(0.75,0,0,0.75,0,0)"/>
<path style="fill:none;stroke-width:1;stroke-linecap:butt;stroke-linejoin:miter;stroke:rgb(0%,0%,100%);stroke-opacity:1;stroke-miterlimit:4;" d="M 178 213.302083 L 177.901042 208.302083 " transform="matrix(0.75,0,0,0.75,0,0)"/>
<path style="fill:none;stroke-width:1;stroke-linecap:butt;stroke-linejoin:miter;stroke:rgb(0%,0%,100%);stroke-opacity:1;stroke-miterlimit:4;" d="M 174.598958 213.802083 L 174.401042 208.098958 " transform="matrix(0.75,0,0,0.75,0,0)"/>
<path style="fill:none;stroke-width:1;stroke-linecap:butt;stroke-linejoin:miter;stroke:rgb(0%,0%,100%);stroke-opacity:1;stroke-miterlimit:4;" d="M 171.098958 214.197917 L 170.901042 207.901042 " transform="matrix(0.75,0,0,0.75,0,0)"/>
<path style="fill:none;stroke-width:2;stroke-linecap:butt;stroke-linejoin:miter;stroke:rgb(0%,0%,0%);stroke-opacity:1;stroke-miterlimit:4;" d="M 205.802083 209.901042 L 228 245.598958 " transform="matrix(0.75,0,0,0.75,0,0)"/>
<path style="fill-rule:evenodd;fill:rgb(0%,0%,0%);fill-opacity:1;stroke-width:0.5;stroke-linecap:butt;stroke-linejoin:miter;stroke:rgb(0%,0%,0%);stroke-opacity:1;stroke-miterlimit:4;" d="M 228 245.598958 L 221.901042 260.5 L 219.098958 259 Z M 228 245.598958 " transform="matrix(0.75,0,0,0.75,0,0)"/>
<path style="fill-rule:evenodd;fill:rgb(100%,0%,0%);fill-opacity:1;stroke-width:0.5;stroke-linecap:butt;stroke-linejoin:miter;stroke:rgb(100%,0%,0%);stroke-opacity:1;stroke-miterlimit:4;" d="M 221.901042 260.5 L 210.098958 272.401042 L 215.697917 275.401042 Z M 221.901042 260.5 " transform="matrix(0.75,0,0,0.75,0,0)"/>
<path style="fill-rule:evenodd;fill:rgb(100%,0%,0%);fill-opacity:1;stroke-width:0.5;stroke-linecap:butt;stroke-linejoin:miter;stroke:rgb(100%,0%,0%);stroke-opacity:1;stroke-miterlimit:4;" d="M 221.901042 260.5 L 219.098958 259 L 210.098958 272.401042 Z M 221.901042 260.5 " transform="matrix(0.75,0,0,0.75,0,0)"/>
<path style="fill:none;stroke-width:1;stroke-linecap:butt;stroke-linejoin:miter;stroke:rgb(0%,0%,0%);stroke-opacity:1;stroke-miterlimit:4;" d="M 169.598958 284.401042 L 169.5 283.697917 " transform="matrix(0.75,0,0,0.75,0,0)"/>
<path style="fill:none;stroke-width:1;stroke-linecap:butt;stroke-linejoin:miter;stroke:rgb(0%,0%,0%);stroke-opacity:1;stroke-miterlimit:4;" d="M 172.901042 284.598958 L 172.901042 283.197917 " transform="matrix(0.75,0,0,0.75,0,0)"/>
<path style="fill:none;stroke-width:1;stroke-linecap:butt;stroke-linejoin:miter;stroke:rgb(0%,0%,0%);stroke-opacity:1;stroke-miterlimit:4;" d="M 176.302083 284.901042 L 176.302083 282.802083 " transform="matrix(0.75,0,0,0.75,0,0)"/>
<path style="fill:none;stroke-width:1;stroke-linecap:butt;stroke-linejoin:miter;stroke:rgb(0%,0%,0%);stroke-opacity:1;stroke-miterlimit:4;" d="M 179.697917 285.098958 L 179.598958 282.302083 " transform="matrix(0.75,0,0,0.75,0,0)"/>
<path style="fill:none;stroke-width:1;stroke-linecap:butt;stroke-linejoin:miter;stroke:rgb(0%,0%,0%);stroke-opacity:1;stroke-miterlimit:4;" d="M 183.098958 285.302083 L 183 281.802083 " transform="matrix(0.75,0,0,0.75,0,0)"/>
<path style="fill:none;stroke-width:1;stroke-linecap:butt;stroke-linejoin:miter;stroke:rgb(100%,0%,0%);stroke-opacity:1;stroke-miterlimit:4;" d="M 186.5 285.598958 L 186.401042 281.401042 " transform="matrix(0.75,0,0,0.75,0,0)"/>
<path style="fill:none;stroke-width:1;stroke-linecap:butt;stroke-linejoin:miter;stroke:rgb(100%,0%,0%);stroke-opacity:1;stroke-miterlimit:4;" d="M 189.901042 285.802083 L 189.697917 280.901042 " transform="matrix(0.75,0,0,0.75,0,0)"/>
<path style="fill:none;stroke-width:1;stroke-linecap:butt;stroke-linejoin:miter;stroke:rgb(100%,0%,0%);stroke-opacity:1;stroke-miterlimit:4;" d="M 193.302083 286 L 193.098958 280.401042 " transform="matrix(0.75,0,0,0.75,0,0)"/>
<path style="fill:none;stroke-width:1;stroke-linecap:butt;stroke-linejoin:miter;stroke:rgb(100%,0%,0%);stroke-opacity:1;stroke-miterlimit:4;" d="M 196.697917 286.302083 L 196.5 280 " transform="matrix(0.75,0,0,0.75,0,0)"/>
<path style="fill:none;stroke-width:2;stroke-linecap:butt;stroke-linejoin:miter;stroke:rgb(0%,0%,0%);stroke-opacity:1;stroke-miterlimit:4;" d="M 166.197917 284.197917 L 157.401042 270.098958 " transform="matrix(0.75,0,0,0.75,0,0)"/>
<path style="fill:none;stroke-width:2;stroke-linecap:butt;stroke-linejoin:miter;stroke:rgb(100%,0%,0%);stroke-opacity:1;stroke-miterlimit:4;" d="M 157.401042 270.098958 L 148.598958 256 " transform="matrix(0.75,0,0,0.75,0,0)"/>
<path style="fill:none;stroke-width:2;stroke-linecap:butt;stroke-linejoin:miter;stroke:rgb(100%,0%,0%);stroke-opacity:1;stroke-miterlimit:4;" d="M 137 248.697917 L 119.401042 249.302083 " transform="matrix(0.75,0,0,0.75,0,0)"/>
<path style="fill:none;stroke-width:2;stroke-linecap:butt;stroke-linejoin:miter;stroke:rgb(0%,0%,0%);stroke-opacity:1;stroke-miterlimit:4;" d="M 119.401042 249.302083 L 101.802083 249.901042 " transform="matrix(0.75,0,0,0.75,0,0)"/>
<path style="fill-rule:evenodd;fill:rgb(0%,0%,0%);fill-opacity:1;stroke-width:0.5;stroke-linecap:butt;stroke-linejoin:miter;stroke:rgb(0%,0%,0%);stroke-opacity:1;stroke-miterlimit:4;" d="M 101.802083 249.901042 L 77.901042 217.197917 L 81.401042 210.802083 Z M 101.802083 249.901042 " transform="matrix(0.75,0,0,0.75,0,0)"/>
<path style="fill:none;stroke-width:2;stroke-linecap:butt;stroke-linejoin:miter;stroke:rgb(0%,0%,0%);stroke-opacity:1;stroke-miterlimit:4;" d="M 77.901042 217.197917 L 87.401042 199.401042 " transform="matrix(0.75,0,0,0.75,0,0)"/>
<path style="fill:none;stroke-width:2;stroke-linecap:butt;stroke-linejoin:miter;stroke:rgb(100%,0%,0%);stroke-opacity:1;stroke-miterlimit:4;" d="M 87.401042 199.401042 L 95.302083 184.598958 " transform="matrix(0.75,0,0,0.75,0,0)"/>
<path style="fill:none;stroke-width:2;stroke-linecap:butt;stroke-linejoin:miter;stroke:rgb(0%,0%,0%);stroke-opacity:1;stroke-miterlimit:4;" d="M 101.802083 249.901042 L 82 287 " transform="matrix(0.75,0,0,0.75,0,0)"/>
<path style="fill:none;stroke-width:1;stroke-linecap:butt;stroke-linejoin:miter;stroke:rgb(0%,0%,0%);stroke-opacity:1;stroke-miterlimit:4;" d="M 78.697917 287.401042 L 78.598958 286.802083 " transform="matrix(0.75,0,0,0.75,0,0)"/>
<path style="fill:none;stroke-width:1;stroke-linecap:butt;stroke-linejoin:miter;stroke:rgb(0%,0%,0%);stroke-opacity:1;stroke-miterlimit:4;" d="M 75.302083 287.901042 L 75.302083 286.598958 " transform="matrix(0.75,0,0,0.75,0,0)"/>
<path style="fill:none;stroke-width:1;stroke-linecap:butt;stroke-linejoin:miter;stroke:rgb(0%,0%,0%);stroke-opacity:1;stroke-miterlimit:4;" d="M 71.901042 288.302083 L 71.901042 286.401042 " transform="matrix(0.75,0,0,0.75,0,0)"/>
<path style="fill:none;stroke-width:1;stroke-linecap:butt;stroke-linejoin:miter;stroke:rgb(0%,0%,0%);stroke-opacity:1;stroke-miterlimit:4;" d="M 68.598958 288.697917 L 68.5 286.197917 " transform="matrix(0.75,0,0,0.75,0,0)"/>
<path style="fill:none;stroke-width:1;stroke-linecap:butt;stroke-linejoin:miter;stroke:rgb(0%,0%,0%);stroke-opacity:1;stroke-miterlimit:4;" d="M 65.197917 289.197917 L 65.098958 286 " transform="matrix(0.75,0,0,0.75,0,0)"/>
<path style="fill:none;stroke-width:1;stroke-linecap:butt;stroke-linejoin:miter;stroke:rgb(100%,0%,0%);stroke-opacity:1;stroke-miterlimit:4;" d="M 61.802083 289.598958 L 61.697917 285.802083 " transform="matrix(0.75,0,0,0.75,0,0)"/>
<path style="fill:none;stroke-width:1;stroke-linecap:butt;stroke-linejoin:miter;stroke:rgb(100%,0%,0%);stroke-opacity:1;stroke-miterlimit:4;" d="M 58.401042 290 L 58.302083 285.598958 " transform="matrix(0.75,0,0,0.75,0,0)"/>
<path style="fill:none;stroke-width:1;stroke-linecap:butt;stroke-linejoin:miter;stroke:rgb(100%,0%,0%);stroke-opacity:1;stroke-miterlimit:4;" d="M 55.098958 290.5 L 54.901042 285.401042 " transform="matrix(0.75,0,0,0.75,0,0)"/>
<path style="fill:none;stroke-width:1;stroke-linecap:butt;stroke-linejoin:miter;stroke:rgb(100%,0%,0%);stroke-opacity:1;stroke-miterlimit:4;" d="M 51.697917 290.901042 L 51.5 285.197917 " transform="matrix(0.75,0,0,0.75,0,0)"/>
<path style="fill:none;stroke-width:1;stroke-linecap:butt;stroke-linejoin:miter;stroke:rgb(100%,0%,0%);stroke-opacity:1;stroke-miterlimit:4;" d="M 48.302083 291.302083 L 48.098958 285 " transform="matrix(0.75,0,0,0.75,0,0)"/>
<path style="fill:none;stroke-width:2;stroke-linecap:butt;stroke-linejoin:miter;stroke:rgb(0%,0%,0%);stroke-opacity:1;stroke-miterlimit:4;" d="M 82 287 L 104.302083 322.697917 " transform="matrix(0.75,0,0,0.75,0,0)"/>
<path style="fill-rule:evenodd;fill:rgb(0%,0%,0%);fill-opacity:1;stroke-width:0.5;stroke-linecap:butt;stroke-linejoin:miter;stroke:rgb(0%,0%,0%);stroke-opacity:1;stroke-miterlimit:4;" d="M 104.302083 322.697917 L 98.098958 337.697917 L 95.302083 336.197917 Z M 104.302083 322.697917 " transform="matrix(0.75,0,0,0.75,0,0)"/>
<path style="fill-rule:evenodd;fill:rgb(0%,0%,100%);fill-opacity:1;stroke-width:0.5;stroke-linecap:butt;stroke-linejoin:miter;stroke:rgb(0%,0%,100%);stroke-opacity:1;stroke-miterlimit:4;" d="M 98.098958 337.697917 L 86.401042 349.697917 L 92 352.598958 Z M 98.098958 337.697917 " transform="matrix(0.75,0,0,0.75,0,0)"/>
<path style="fill-rule:evenodd;fill:rgb(0%,0%,100%);fill-opacity:1;stroke-width:0.5;stroke-linecap:butt;stroke-linejoin:miter;stroke:rgb(0%,0%,100%);stroke-opacity:1;stroke-miterlimit:4;" d="M 98.098958 337.697917 L 95.302083 336.197917 L 86.401042 349.697917 Z M 98.098958 337.697917 " transform="matrix(0.75,0,0,0.75,0,0)"/>
<path style="fill:none;stroke-width:2;stroke-linecap:butt;stroke-linejoin:miter;stroke:rgb(0%,0%,0%);stroke-opacity:1;stroke-miterlimit:4;" d="M 104.302083 322.697917 L 146.401042 321.302083 " transform="matrix(0.75,0,0,0.75,0,0)"/>
<path style="fill:none;stroke-width:1;stroke-linecap:butt;stroke-linejoin:miter;stroke:rgb(0%,0%,0%);stroke-opacity:1;stroke-miterlimit:4;" d="M 148.5 324.098958 L 147.901042 324.5 " transform="matrix(0.75,0,0,0.75,0,0)"/>
<path style="fill:none;stroke-width:1;stroke-linecap:butt;stroke-linejoin:miter;stroke:rgb(0%,0%,0%);stroke-opacity:1;stroke-miterlimit:4;" d="M 150.697917 326.901042 L 149.5 327.697917 " transform="matrix(0.75,0,0,0.75,0,0)"/>
<path style="fill:none;stroke-width:1;stroke-linecap:butt;stroke-linejoin:miter;stroke:rgb(0%,0%,0%);stroke-opacity:1;stroke-miterlimit:4;" d="M 152.901042 329.697917 L 151.098958 330.802083 " transform="matrix(0.75,0,0,0.75,0,0)"/>
<path style="fill:none;stroke-width:1;stroke-linecap:butt;stroke-linejoin:miter;stroke:rgb(0%,0%,0%);stroke-opacity:1;stroke-miterlimit:4;" d="M 155 332.5 L 152.598958 334 " transform="matrix(0.75,0,0,0.75,0,0)"/>
<path style="fill:none;stroke-width:1;stroke-linecap:butt;stroke-linejoin:miter;stroke:rgb(100%,0%,0%);stroke-opacity:1;stroke-miterlimit:4;" d="M 157.197917 335.302083 L 154.197917 337.197917 " transform="matrix(0.75,0,0,0.75,0,0)"/>
<path style="fill:none;stroke-width:1;stroke-linecap:butt;stroke-linejoin:miter;stroke:rgb(100%,0%,0%);stroke-opacity:1;stroke-miterlimit:4;" d="M 159.302083 338.098958 L 155.802083 340.401042 " transform="matrix(0.75,0,0,0.75,0,0)"/>
<path style="fill:none;stroke-width:1;stroke-linecap:butt;stroke-linejoin:miter;stroke:rgb(100%,0%,0%);stroke-opacity:1;stroke-miterlimit:4;" d="M 161.5 340.901042 L 157.302083 343.5 " transform="matrix(0.75,0,0,0.75,0,0)"/>
<path style="fill:none;stroke-width:1;stroke-linecap:butt;stroke-linejoin:miter;stroke:rgb(100%,0%,0%);stroke-opacity:1;stroke-miterlimit:4;" d="M 163.697917 343.697917 L 158.901042 346.697917 " transform="matrix(0.75,0,0,0.75,0,0)"/>
<path style="fill:none;stroke-width:1;stroke-linecap:butt;stroke-linejoin:miter;stroke:rgb(100%,0%,0%);stroke-opacity:1;stroke-miterlimit:4;" d="M 165.802083 346.5 L 160.5 349.901042 " transform="matrix(0.75,0,0,0.75,0,0)"/>
<path style="fill:none;stroke-width:2;stroke-linecap:butt;stroke-linejoin:miter;stroke:rgb(0%,0%,0%);stroke-opacity:1;stroke-miterlimit:4;" d="M 228 245.598958 L 270.098958 244.197917 " transform="matrix(0.75,0,0,0.75,0,0)"/>
<path style="fill:none;stroke-width:1;stroke-linecap:butt;stroke-linejoin:miter;stroke:rgb(0%,0%,0%);stroke-opacity:1;stroke-miterlimit:4;" d="M 272.302083 247 L 271.697917 247.302083 " transform="matrix(0.75,0,0,0.75,0,0)"/>
<path style="fill:none;stroke-width:1;stroke-linecap:butt;stroke-linejoin:miter;stroke:rgb(0%,0%,0%);stroke-opacity:1;stroke-miterlimit:4;" d="M 274.401042 249.802083 L 273.197917 250.5 " transform="matrix(0.75,0,0,0.75,0,0)"/>
<path style="fill:none;stroke-width:1;stroke-linecap:butt;stroke-linejoin:miter;stroke:rgb(0%,0%,0%);stroke-opacity:1;stroke-miterlimit:4;" d="M 276.598958 252.598958 L 274.802083 253.697917 " transform="matrix(0.75,0,0,0.75,0,0)"/>
<path style="fill:none;stroke-width:1;stroke-linecap:butt;stroke-linejoin:miter;stroke:rgb(0%,0%,0%);stroke-opacity:1;stroke-miterlimit:4;" d="M 278.697917 255.401042 L 276.401042 256.901042 " transform="matrix(0.75,0,0,0.75,0,0)"/>
<path style="fill:none;stroke-width:1;stroke-linecap:butt;stroke-linejoin:miter;stroke:rgb(100%,0%,0%);stroke-opacity:1;stroke-miterlimit:4;" d="M 280.901042 258.197917 L 277.901042 260 " transform="matrix(0.75,0,0,0.75,0,0)"/>
<path style="fill:none;stroke-width:1;stroke-linecap:butt;stroke-linejoin:miter;stroke:rgb(100%,0%,0%);stroke-opacity:1;stroke-miterlimit:4;" d="M 283.098958 261 L 279.5 263.197917 " transform="matrix(0.75,0,0,0.75,0,0)"/>
<path style="fill:none;stroke-width:1;stroke-linecap:butt;stroke-linejoin:miter;stroke:rgb(100%,0%,0%);stroke-opacity:1;stroke-miterlimit:4;" d="M 285.197917 263.802083 L 281.098958 266.401042 " transform="matrix(0.75,0,0,0.75,0,0)"/>
<path style="fill:none;stroke-width:1;stroke-linecap:butt;stroke-linejoin:miter;stroke:rgb(100%,0%,0%);stroke-opacity:1;stroke-miterlimit:4;" d="M 287.401042 266.598958 L 282.598958 269.598958 " transform="matrix(0.75,0,0,0.75,0,0)"/>
<path style="fill:none;stroke-width:1;stroke-linecap:butt;stroke-linejoin:miter;stroke:rgb(100%,0%,0%);stroke-opacity:1;stroke-miterlimit:4;" d="M 289.5 269.401042 L 284.197917 272.697917 " transform="matrix(0.75,0,0,0.75,0,0)"/>
<path style="fill:none;stroke-width:2;stroke-linecap:butt;stroke-linejoin:miter;stroke:rgb(0%,0%,0%);stroke-opacity:1;stroke-miterlimit:4;" d="M 354.197917 241.302083 L 396.302083 239.901042 " transform="matrix(0.75,0,0,0.75,0,0)"/>
<path style="fill:none;stroke-width:1;stroke-linecap:butt;stroke-linejoin:miter;stroke:rgb(0%,0%,0%);stroke-opacity:1;stroke-miterlimit:4;" d="M 397.697917 236.598958 L 398.302083 236.901042 " transform="matrix(0.75,0,0,0.75,0,0)"/>
<path style="fill:none;stroke-width:1;stroke-linecap:butt;stroke-linejoin:miter;stroke:rgb(0%,0%,0%);stroke-opacity:1;stroke-miterlimit:4;" d="M 399 233.197917 L 400.302083 233.901042 " transform="matrix(0.75,0,0,0.75,0,0)"/>
<path style="fill:none;stroke-width:1;stroke-linecap:butt;stroke-linejoin:miter;stroke:rgb(0%,0%,0%);stroke-opacity:1;stroke-miterlimit:4;" d="M 400.401042 229.901042 L 402.302083 230.901042 " transform="matrix(0.75,0,0,0.75,0,0)"/>
<path style="fill:none;stroke-width:1;stroke-linecap:butt;stroke-linejoin:miter;stroke:rgb(0%,0%,0%);stroke-opacity:1;stroke-miterlimit:4;" d="M 401.802083 226.598958 L 404.302083 227.901042 " transform="matrix(0.75,0,0,0.75,0,0)"/>
<path style="fill:none;stroke-width:1;stroke-linecap:butt;stroke-linejoin:miter;stroke:rgb(0%,0%,100%);stroke-opacity:1;stroke-miterlimit:4;" d="M 403.098958 223.302083 L 406.197917 224.901042 " transform="matrix(0.75,0,0,0.75,0,0)"/>
<path style="fill:none;stroke-width:1;stroke-linecap:butt;stroke-linejoin:miter;stroke:rgb(0%,0%,100%);stroke-opacity:1;stroke-miterlimit:4;" d="M 404.5 220 L 408.197917 221.901042 " transform="matrix(0.75,0,0,0.75,0,0)"/>
<path style="fill:none;stroke-width:1;stroke-linecap:butt;stroke-linejoin:miter;stroke:rgb(0%,0%,100%);stroke-opacity:1;stroke-miterlimit:4;" d="M 405.901042 216.598958 L 410.197917 218.901042 " transform="matrix(0.75,0,0,0.75,0,0)"/>
<path style="fill:none;stroke-width:1;stroke-linecap:butt;stroke-linejoin:miter;stroke:rgb(0%,0%,100%);stroke-opacity:1;stroke-miterlimit:4;" d="M 407.302083 213.302083 L 412.197917 216 " transform="matrix(0.75,0,0,0.75,0,0)"/>
<path style="fill:none;stroke-width:1;stroke-linecap:butt;stroke-linejoin:miter;stroke:rgb(0%,0%,100%);stroke-opacity:1;stroke-miterlimit:4;" d="M 408.598958 210 L 414.197917 213 " transform="matrix(0.75,0,0,0.75,0,0)"/>
<path style="fill:none;stroke-width:2;stroke-linecap:butt;stroke-linejoin:miter;stroke:rgb(0%,0%,0%);stroke-opacity:1;stroke-miterlimit:4;" d="M 396.302083 239.901042 L 418.598958 275.598958 " transform="matrix(0.75,0,0,0.75,0,0)"/>
<path style="fill-rule:evenodd;fill:rgb(0%,0%,0%);fill-opacity:1;stroke-width:0.5;stroke-linecap:butt;stroke-linejoin:miter;stroke:rgb(0%,0%,0%);stroke-opacity:1;stroke-miterlimit:4;" d="M 418.598958 275.598958 L 435.401042 273.401042 L 435.5 276.598958 Z M 418.598958 275.598958 " transform="matrix(0.75,0,0,0.75,0,0)"/>
<path style="fill-rule:evenodd;fill:rgb(100%,0%,0%);fill-opacity:1;stroke-width:0.5;stroke-linecap:butt;stroke-linejoin:miter;stroke:rgb(100%,0%,0%);stroke-opacity:1;stroke-miterlimit:4;" d="M 435.401042 273.401042 L 452.5 277.598958 L 452.302083 271.302083 Z M 435.401042 273.401042 " transform="matrix(0.75,0,0,0.75,0,0)"/>
<path style="fill-rule:evenodd;fill:rgb(100%,0%,0%);fill-opacity:1;stroke-width:0.5;stroke-linecap:butt;stroke-linejoin:miter;stroke:rgb(100%,0%,0%);stroke-opacity:1;stroke-miterlimit:4;" d="M 435.401042 273.401042 L 435.5 276.598958 L 452.5 277.598958 Z M 435.401042 273.401042 " transform="matrix(0.75,0,0,0.75,0,0)"/>
<path style="fill:none;stroke-width:2;stroke-linecap:butt;stroke-linejoin:miter;stroke:rgb(0%,0%,0%);stroke-opacity:1;stroke-miterlimit:4;" d="M 418.598958 275.598958 L 398.802083 312.697917 " transform="matrix(0.75,0,0,0.75,0,0)"/>
<path style="fill:none;stroke-width:1;stroke-linecap:butt;stroke-linejoin:miter;stroke:rgb(0%,0%,0%);stroke-opacity:1;stroke-miterlimit:4;" d="M 400.901042 315.5 L 400.302083 315.901042 " transform="matrix(0.75,0,0,0.75,0,0)"/>
<path style="fill:none;stroke-width:1;stroke-linecap:butt;stroke-linejoin:miter;stroke:rgb(0%,0%,0%);stroke-opacity:1;stroke-miterlimit:4;" d="M 403.098958 318.401042 L 401.901042 319.098958 " transform="matrix(0.75,0,0,0.75,0,0)"/>
<path style="fill:none;stroke-width:1;stroke-linecap:butt;stroke-linejoin:miter;stroke:rgb(0%,0%,0%);stroke-opacity:1;stroke-miterlimit:4;" d="M 405.197917 321.197917 L 403.5 322.302083 " transform="matrix(0.75,0,0,0.75,0,0)"/>
<path style="fill:none;stroke-width:1;stroke-linecap:butt;stroke-linejoin:miter;stroke:rgb(0%,0%,0%);stroke-opacity:1;stroke-miterlimit:4;" d="M 407.401042 324 L 405 325.401042 " transform="matrix(0.75,0,0,0.75,0,0)"/>
<path style="fill:none;stroke-width:1;stroke-linecap:butt;stroke-linejoin:miter;stroke:rgb(100%,0%,0%);stroke-opacity:1;stroke-miterlimit:4;" d="M 409.598958 326.802083 L 406.598958 328.598958 " transform="matrix(0.75,0,0,0.75,0,0)"/>
<path style="fill:none;stroke-width:1;stroke-linecap:butt;stroke-linejoin:miter;stroke:rgb(100%,0%,0%);stroke-opacity:1;stroke-miterlimit:4;" d="M 411.697917 329.598958 L 408.197917 331.802083 " transform="matrix(0.75,0,0,0.75,0,0)"/>
<path style="fill:none;stroke-width:1;stroke-linecap:butt;stroke-linejoin:miter;stroke:rgb(100%,0%,0%);stroke-opacity:1;stroke-miterlimit:4;" d="M 413.901042 332.401042 L 409.697917 335 " transform="matrix(0.75,0,0,0.75,0,0)"/>
<path style="fill:none;stroke-width:1;stroke-linecap:butt;stroke-linejoin:miter;stroke:rgb(100%,0%,0%);stroke-opacity:1;stroke-miterlimit:4;" d="M 416.098958 335.197917 L 411.302083 338.098958 " transform="matrix(0.75,0,0,0.75,0,0)"/>
<path style="fill:none;stroke-width:1;stroke-linecap:butt;stroke-linejoin:miter;stroke:rgb(100%,0%,0%);stroke-opacity:1;stroke-miterlimit:4;" d="M 418.197917 338 L 412.901042 341.302083 " transform="matrix(0.75,0,0,0.75,0,0)"/>
<path style="fill:none;stroke-width:2;stroke-linecap:butt;stroke-linejoin:miter;stroke:rgb(0%,0%,0%);stroke-opacity:1;stroke-miterlimit:4;" d="M 398.802083 312.697917 L 356.697917 314.197917 " transform="matrix(0.75,0,0,0.75,0,0)"/>
<path style="fill:none;stroke-width:2;stroke-linecap:butt;stroke-linejoin:miter;stroke:rgb(0%,0%,0%);stroke-opacity:1;stroke-miterlimit:4;" d="M 270.098958 244.197917 L 289.901042 207 " transform="matrix(0.75,0,0,0.75,0,0)"/>
<path style="fill:none;stroke-width:2;stroke-linecap:butt;stroke-linejoin:miter;stroke:rgb(0%,0%,0%);stroke-opacity:1;stroke-miterlimit:4;" d="M 146.401042 321.302083 L 166.197917 284.197917 " transform="matrix(0.75,0,0,0.75,0,0)"/>
<path style="fill:none;stroke-width:2;stroke-linecap:butt;stroke-linejoin:miter;stroke:rgb(0%,0%,0%);stroke-opacity:1;stroke-miterlimit:4;" d="M 356.302083 313.5 L 356.697917 314.197917 L 358.802083 314.098958 " transform="matrix(0.75,0,0,0.75,0,0)"/>
<path style="fill:none;stroke-width:2;stroke-linecap:butt;stroke-linejoin:miter;stroke:rgb(0%,0%,0%);stroke-opacity:1;stroke-miterlimit:4;" d="M 353.802083 242.098958 L 354.197917 241.302083 L 356.302083 241.197917 " transform="matrix(0.75,0,0,0.75,0,0)"/>
<path style="fill:none;stroke-width:2;stroke-linecap:butt;stroke-linejoin:miter;stroke:rgb(0%,0%,0%);stroke-opacity:1;stroke-miterlimit:4;" d="M 288.802083 205.197917 L 289.901042 207 L 288.901042 208.901042 " transform="matrix(0.75,0,0,0.75,0,0)"/>
<path style="fill:none;stroke-width:2;stroke-linecap:butt;stroke-linejoin:miter;stroke:rgb(0%,0%,0%);stroke-opacity:1;stroke-miterlimit:4;" d="M 268.697917 173.098958 L 267.598958 171.302083 L 265.5 171.401042 " transform="matrix(0.75,0,0,0.75,0,0)"/>
<path style="fill:none;stroke-width:2;stroke-linecap:butt;stroke-linejoin:miter;stroke:rgb(0%,0%,0%);stroke-opacity:1;stroke-miterlimit:4;" d="M 227.697917 172.697917 L 225.598958 172.697917 L 224.598958 174.598958 " transform="matrix(0.75,0,0,0.75,0,0)"/>
<path style="fill:none;stroke-width:2;stroke-linecap:butt;stroke-linejoin:miter;stroke:rgb(0%,0%,0%);stroke-opacity:1;stroke-miterlimit:4;" d="M 206.697917 208 L 205.802083 209.901042 L 206.901042 211.697917 " transform="matrix(0.75,0,0,0.75,0,0)"/>
<path style="fill:none;stroke-width:2;stroke-linecap:butt;stroke-linejoin:miter;stroke:rgb(0%,0%,0%);stroke-opacity:1;stroke-miterlimit:4;" d="M 226.901042 243.802083 L 228 245.598958 L 230.098958 245.5 " transform="matrix(0.75,0,0,0.75,0,0)"/>
<path style="fill:none;stroke-width:2;stroke-linecap:butt;stroke-linejoin:miter;stroke:rgb(0%,0%,0%);stroke-opacity:1;stroke-miterlimit:4;" d="M 165.697917 283.5 L 166.197917 284.197917 L 165.197917 286 " transform="matrix(0.75,0,0,0.75,0,0)"/>
<path style="fill:none;stroke-width:2;stroke-linecap:butt;stroke-linejoin:miter;stroke:rgb(0%,0%,0%);stroke-opacity:1;stroke-miterlimit:4;" d="M 102.697917 249.802083 L 101.802083 249.901042 L 100.802083 251.697917 " transform="matrix(0.75,0,0,0.75,0,0)"/>
<path style="fill:none;stroke-width:2;stroke-linecap:butt;stroke-linejoin:miter;stroke:rgb(0%,0%,0%);stroke-opacity:1;stroke-miterlimit:4;" d="M 83 285.197917 L 82 287 L 83.098958 288.802083 " transform="matrix(0.75,0,0,0.75,0,0)"/>
<path style="fill:none;stroke-width:2;stroke-linecap:butt;stroke-linejoin:miter;stroke:rgb(0%,0%,0%);stroke-opacity:1;stroke-miterlimit:4;" d="M 103.197917 320.901042 L 104.302083 322.697917 L 106.401042 322.697917 " transform="matrix(0.75,0,0,0.75,0,0)"/>
<path style="fill:none;stroke-width:2;stroke-linecap:butt;stroke-linejoin:miter;stroke:rgb(0%,0%,0%);stroke-opacity:1;stroke-miterlimit:4;" d="M 144.302083 321.401042 L 146.401042 321.302083 L 147.401042 319.401042 " transform="matrix(0.75,0,0,0.75,0,0)"/>
<path style="fill:none;stroke-width:2;stroke-linecap:butt;stroke-linejoin:miter;stroke:rgb(0%,0%,0%);stroke-opacity:1;stroke-miterlimit:4;" d="M 268 244.197917 L 270.098958 244.197917 L 271.098958 242.302083 " transform="matrix(0.75,0,0,0.75,0,0)"/>
<path style="fill:none;stroke-width:2;stroke-linecap:butt;stroke-linejoin:miter;stroke:rgb(0%,0%,0%);stroke-opacity:1;stroke-miterlimit:4;" d="M 394.197917 240 L 396.302083 239.901042 L 397.401042 241.697917 " transform="matrix(0.75,0,0,0.75,0,0)"/>
<path style="fill:none;stroke-width:2;stroke-linecap:butt;stroke-linejoin:miter;stroke:rgb(0%,0%,0%);stroke-opacity:1;stroke-miterlimit:4;" d="M 417.401042 273.802083 L 418.598958 275.598958 L 417.598958 277.5 " transform="matrix(0.75,0,0,0.75,0,0)"/>
<path style="fill:none;stroke-width:2;stroke-linecap:butt;stroke-linejoin:miter;stroke:rgb(0%,0%,0%);stroke-opacity:1;stroke-miterlimit:4;" d="M 399.697917 310.901042 L 398.802083 312.697917 L 396.697917 312.802083 " transform="matrix(0.75,0,0,0.75,0,0)"/>
<path style=" stroke:none;fill-rule:nonzero;fill:rgb(0%,0%,100%);fill-opacity:1;" d="M 203.851562 260.101562 L 205.050781 260.101562 L 205.050781 263.851562 L 209.625 263.851562 L 209.625 260.101562 L 210.898438 260.101562 L 210.898438 269.023438 L 209.625 269.023438 L 209.625 264.898438 L 205.050781 264.898438 L 205.050781 269.023438 L 203.851562 269.023438 L 203.851562 260.101562 "/>
<path style=" stroke:none;fill-rule:nonzero;fill:rgb(0%,0%,100%);fill-opacity:1;" d="M 212.625 268.726562 C 212.773438 268.324219 213.023438 268.023438 213.375 267.824219 C 213.726562 267.625 214.125 267.523438 214.574219 267.523438 C 215.175781 267.523438 215.648438 267.675781 216 267.976562 C 216.300781 268.324219 216.449219 268.773438 216.449219 269.324219 C 216.449219 269.925781 216.25 270.5 215.851562 271.050781 C 215.398438 271.601562 214.726562 272.199219 213.824219 272.851562 L 216.601562 272.851562 L 216.601562 273.523438 L 212.625 273.523438 L 212.625 272.925781 C 213.324219 272.425781 213.898438 271.976562 214.351562 271.574219 C 214.800781 271.175781 215.125 270.800781 215.324219 270.449219 C 215.523438 270.101562 215.625 269.75 215.625 269.398438 C 215.625 269 215.523438 268.699219 215.324219 268.5 C 215.175781 268.300781 214.925781 268.199219 214.574219 268.199219 C 214.273438 268.199219 214.023438 268.25 213.824219 268.351562 C 213.574219 268.5 213.375 268.726562 213.226562 269.023438 L 212.625 268.726562 "/>
<path style=" stroke:none;fill-rule:nonzero;fill:rgb(0%,0%,100%);fill-opacity:1;" d="M 219.148438 260.101562 L 222.074219 264.824219 C 222.273438 265.125 222.523438 265.550781 222.824219 266.101562 C 223.125 266.699219 223.300781 267 223.351562 267 L 223.351562 260.101562 L 224.550781 260.101562 L 224.550781 269.023438 L 223.273438 269.023438 L 220.125 263.851562 C 219.875 263.449219 219.625 263.023438 219.375 262.574219 C 219.125 262.074219 218.976562 261.773438 218.925781 261.675781 L 218.925781 269.023438 L 217.726562 269.023438 L 217.726562 260.101562 L 219.148438 260.101562 "/>
<path style=" stroke:none;fill-rule:nonzero;fill:rgb(100%,0%,0%);fill-opacity:1;" d="M 246.75 208.875 C 246.75 207.425781 247.101562 206.300781 247.800781 205.5 C 248.5 204.699219 249.5 204.300781 250.800781 204.300781 C 252.148438 204.300781 253.175781 204.699219 253.875 205.5 C 254.574219 206.300781 254.925781 207.425781 254.925781 208.875 C 254.925781 210.324219 254.574219 211.449219 253.875 212.25 C 253.125 213.101562 252.101562 213.523438 250.800781 213.523438 C 249.5 213.523438 248.5 213.101562 247.800781 212.25 C 247.101562 211.449219 246.75 210.324219 246.75 208.875 M 250.800781 212.476562 C 251.699219 212.476562 252.398438 212.175781 252.898438 211.574219 C 253.398438 210.976562 253.648438 210.074219 253.648438 208.875 C 253.648438 207.675781 253.398438 206.800781 252.898438 206.25 C 252.398438 205.648438 251.699219 205.351562 250.800781 205.351562 C 249.898438 205.351562 249.199219 205.648438 248.699219 206.25 C 248.199219 206.800781 247.949219 207.675781 247.949219 208.875 C 247.949219 210.074219 248.199219 210.976562 248.699219 211.574219 C 249.199219 212.175781 249.898438 212.476562 250.800781 212.476562 "/>
<path style=" stroke:none;fill-rule:nonzero;fill:rgb(100%,0%,0%);fill-opacity:1;" d="M 244.875 154.199219 C 244.875 152.800781 245.226562 151.699219 245.925781 150.898438 C 246.625 150.101562 247.648438 149.699219 249 149.699219 C 250.300781 149.699219 251.300781 150.101562 252 150.898438 C 252.699219 151.699219 253.050781 152.800781 253.050781 154.199219 C 253.050781 155.648438 252.699219 156.800781 252 157.648438 C 251.300781 158.449219 250.300781 158.851562 249 158.851562 C 247.648438 158.851562 246.625 158.449219 245.925781 157.648438 C 245.226562 156.800781 244.875 155.648438 244.875 154.199219 M 249 157.875 C 249.898438 157.875 250.574219 157.550781 251.023438 156.898438 C 251.523438 156.300781 251.773438 155.398438 251.773438 154.199219 C 251.773438 153.050781 251.523438 152.175781 251.023438 151.574219 C 250.574219 150.976562 249.898438 150.675781 249 150.675781 C 248.050781 150.675781 247.324219 150.976562 246.824219 151.574219 C 246.375 152.175781 246.148438 153.050781 246.148438 154.199219 C 246.148438 155.398438 246.375 156.300781 246.824219 156.898438 C 247.324219 157.550781 248.050781 157.875 249 157.875 "/>
<path style=" stroke:none;fill-rule:nonzero;fill:rgb(0%,0%,100%);fill-opacity:1;" d="M 213.601562 96.148438 L 216.523438 100.875 C 216.726562 101.175781 216.976562 101.625 217.273438 102.226562 C 217.574219 102.773438 217.75 103.074219 217.800781 103.125 L 217.800781 96.148438 L 218.925781 96.148438 L 218.925781 105.074219 L 217.726562 105.074219 L 214.574219 99.898438 C 214.324219 99.5 214.074219 99.074219 213.824219 98.625 C 213.574219 98.175781 213.398438 97.875 213.300781 97.726562 L 213.300781 105.074219 L 212.175781 105.074219 L 212.175781 96.148438 L 213.601562 96.148438 "/>
<path style=" stroke:none;fill-rule:nonzero;fill:rgb(0%,0%,100%);fill-opacity:1;" d="M 220.648438 96.148438 L 221.851562 96.148438 L 221.851562 99.976562 L 226.425781 99.976562 L 226.425781 96.148438 L 227.625 96.148438 L 227.625 105.074219 L 226.425781 105.074219 L 226.425781 100.949219 L 221.851562 100.949219 L 221.851562 105.074219 L 220.648438 105.074219 L 220.648438 96.148438 "/>
<path style=" stroke:none;fill-rule:nonzero;fill:rgb(0%,0%,100%);fill-opacity:1;" d="M 229.425781 104.773438 C 229.574219 104.425781 229.824219 104.148438 230.175781 103.949219 C 230.476562 103.699219 230.875 103.574219 231.375 103.574219 C 231.976562 103.574219 232.449219 103.75 232.800781 104.101562 C 233.101562 104.398438 233.25 104.851562 233.25 105.449219 C 233.25 106 233.050781 106.550781 232.648438 107.101562 C 232.199219 107.648438 231.523438 108.25 230.625 108.898438 L 233.398438 108.898438 L 233.398438 109.574219 L 229.425781 109.574219 L 229.425781 108.976562 C 230.125 108.476562 230.699219 108.023438 231.148438 107.625 C 231.601562 107.226562 231.925781 106.851562 232.125 106.5 C 232.324219 106.148438 232.425781 105.800781 232.425781 105.449219 C 232.425781 105.101562 232.324219 104.800781 232.125 104.550781 C 231.976562 104.351562 231.726562 104.25 231.375 104.25 C 231.074219 104.25 230.800781 104.324219 230.550781 104.476562 C 230.351562 104.574219 230.175781 104.773438 230.023438 105.074219 L 229.425781 104.773438 "/>
<path style=" stroke:none;fill-rule:nonzero;fill:rgb(0%,0%,100%);fill-opacity:1;" d="M 105.523438 153.976562 L 106.726562 153.976562 L 106.726562 157.800781 L 111.300781 157.800781 L 111.300781 153.976562 L 112.5 153.976562 L 112.5 162.976562 L 111.300781 162.976562 L 111.300781 158.851562 L 106.726562 158.851562 L 106.726562 162.976562 L 105.523438 162.976562 L 105.523438 153.976562 "/>
<path style=" stroke:none;fill-rule:nonzero;fill:rgb(0%,0%,100%);fill-opacity:1;" d="M 114.226562 162.601562 C 114.375 162.25 114.625 161.976562 114.976562 161.773438 C 115.324219 161.574219 115.75 161.476562 116.25 161.476562 C 116.851562 161.476562 117.300781 161.625 117.601562 161.925781 C 117.949219 162.273438 118.125 162.726562 118.125 163.273438 C 118.125 163.875 117.898438 164.449219 117.449219 165 C 117.050781 165.5 116.398438 166.074219 115.5 166.726562 L 118.199219 166.726562 L 118.199219 167.398438 L 114.226562 167.398438 L 114.226562 166.875 C 114.976562 166.324219 115.574219 165.875 116.023438 165.523438 C 116.425781 165.125 116.75 164.75 117 164.398438 C 117.199219 164.050781 117.300781 163.699219 117.300781 163.351562 C 117.300781 162.949219 117.199219 162.648438 117 162.449219 C 116.800781 162.25 116.550781 162.148438 116.25 162.148438 C 115.898438 162.148438 115.625 162.199219 115.425781 162.300781 C 115.226562 162.449219 115.050781 162.648438 114.898438 162.898438 L 114.226562 162.601562 "/>
<path style=" stroke:none;fill-rule:nonzero;fill:rgb(0%,0%,100%);fill-opacity:1;" d="M 120.824219 153.976562 L 123.75 158.773438 C 123.949219 159.074219 124.199219 159.5 124.5 160.050781 C 124.800781 160.601562 124.949219 160.898438 124.949219 160.949219 L 124.949219 153.976562 L 126.148438 153.976562 L 126.148438 162.976562 L 124.949219 162.976562 L 121.800781 157.800781 C 121.550781 157.398438 121.300781 156.949219 121.050781 156.449219 C 120.800781 156 120.625 155.699219 120.523438 155.550781 L 120.523438 162.976562 L 119.398438 162.976562 L 119.398438 153.976562 L 120.824219 153.976562 "/>
<path style=" stroke:none;fill-rule:nonzero;fill:rgb(100%,0%,0%);fill-opacity:1;" d="M 152.101562 212.101562 C 152.101562 210.648438 152.449219 209.523438 153.148438 208.726562 C 153.851562 207.925781 154.851562 207.523438 156.148438 207.523438 C 157.5 207.523438 158.523438 207.925781 159.226562 208.726562 C 159.925781 209.523438 160.273438 210.648438 160.273438 212.101562 C 160.273438 213.550781 159.925781 214.675781 159.226562 215.476562 C 158.476562 216.273438 157.449219 216.675781 156.148438 216.675781 C 154.851562 216.675781 153.851562 216.273438 153.148438 215.476562 C 152.449219 214.675781 152.101562 213.550781 152.101562 212.101562 M 156.148438 215.699219 C 157.050781 215.699219 157.75 215.398438 158.25 214.800781 C 158.75 214.199219 159 213.300781 159 212.101562 C 159 210.898438 158.75 210.023438 158.25 209.476562 C 157.75 208.875 157.050781 208.574219 156.148438 208.574219 C 155.25 208.574219 154.550781 208.851562 154.050781 209.398438 C 153.550781 210 153.300781 210.898438 153.300781 212.101562 C 153.300781 213.300781 153.550781 214.199219 154.050781 214.800781 C 154.550781 215.398438 155.25 215.699219 156.148438 215.699219 "/>
<path style=" stroke:none;fill-rule:nonzero;fill:rgb(100%,0%,0%);fill-opacity:1;" d="M 103.800781 186.375 C 103.800781 184.925781 104.148438 183.800781 104.851562 183 C 105.601562 182.199219 106.625 181.800781 107.925781 181.800781 C 109.226562 181.800781 110.25 182.199219 111 183 C 111.699219 183.800781 112.050781 184.925781 112.050781 186.375 C 112.050781 187.824219 111.675781 188.949219 110.925781 189.75 C 110.226562 190.601562 109.226562 191.023438 107.925781 191.023438 C 106.625 191.023438 105.601562 190.601562 104.851562 189.75 C 104.148438 188.949219 103.800781 187.824219 103.800781 186.375 M 107.925781 189.976562 C 108.824219 189.976562 109.523438 189.675781 110.023438 189.074219 C 110.523438 188.476562 110.773438 187.574219 110.773438 186.375 C 110.773438 185.175781 110.523438 184.300781 110.023438 183.75 C 109.523438 183.148438 108.824219 182.851562 107.925781 182.851562 C 107.023438 182.851562 106.324219 183.125 105.824219 183.675781 C 105.324219 184.273438 105.074219 185.175781 105.074219 186.375 C 105.074219 187.574219 105.324219 188.476562 105.824219 189.074219 C 106.324219 189.675781 107.023438 189.976562 107.925781 189.976562 "/>
<path style=" stroke:none;fill-rule:nonzero;fill:rgb(100%,0%,0%);fill-opacity:1;" d="M 70.425781 132.75 C 70.425781 131.351562 70.773438 130.25 71.476562 129.449219 C 72.175781 128.648438 73.199219 128.25 74.550781 128.25 C 75.851562 128.25 76.851562 128.648438 77.550781 129.449219 C 78.25 130.25 78.601562 131.351562 78.601562 132.75 C 78.601562 134.199219 78.25 135.351562 77.550781 136.199219 C 76.851562 137 75.851562 137.398438 74.550781 137.398438 C 73.199219 137.398438 72.175781 137 71.476562 136.199219 C 70.773438 135.398438 70.425781 134.25 70.425781 132.75 M 74.550781 136.425781 C 75.449219 136.425781 76.148438 136.125 76.648438 135.523438 C 77.101562 134.875 77.324219 133.949219 77.324219 132.75 C 77.324219 131.601562 77.101562 130.726562 76.648438 130.125 C 76.148438 129.523438 75.449219 129.226562 74.550781 129.226562 C 73.601562 129.226562 72.875 129.523438 72.375 130.125 C 71.925781 130.726562 71.699219 131.601562 71.699219 132.75 C 71.699219 134 71.925781 134.925781 72.375 135.523438 C 72.875 136.125 73.601562 136.425781 74.550781 136.425781 "/>
<path style=" stroke:none;fill-rule:nonzero;fill:rgb(100%,0%,0%);fill-opacity:1;" d="M 80.023438 128.324219 L 81.226562 128.324219 L 81.226562 132.148438 L 85.800781 132.148438 L 85.800781 128.324219 L 87 128.324219 L 87 137.25 L 85.800781 137.25 L 85.800781 133.125 L 81.226562 133.125 L 81.226562 137.25 L 80.023438 137.25 L 80.023438 128.324219 "/>
<path style=" stroke:none;fill-rule:nonzero;fill:rgb(100%,0%,0%);fill-opacity:1;" d="M 17.023438 211.949219 L 18.226562 211.949219 L 18.226562 215.699219 L 22.800781 215.699219 L 22.800781 211.949219 L 24.074219 211.949219 L 24.074219 220.875 L 22.800781 220.875 L 22.800781 216.75 L 18.226562 216.75 L 18.226562 220.875 L 17.023438 220.875 L 17.023438 211.949219 "/>
<path style=" stroke:none;fill-rule:nonzero;fill:rgb(100%,0%,0%);fill-opacity:1;" d="M 25.875 216.375 C 25.875 214.925781 26.226562 213.800781 26.925781 213 C 27.625 212.199219 28.648438 211.800781 30 211.800781 C 31.300781 211.800781 32.300781 212.199219 33 213 C 33.699219 213.800781 34.050781 214.925781 34.050781 216.375 C 34.050781 217.824219 33.699219 218.949219 33 219.75 C 32.300781 220.601562 31.300781 221.023438 30 221.023438 C 28.648438 221.023438 27.625 220.601562 26.925781 219.75 C 26.226562 218.949219 25.875 217.824219 25.875 216.375 M 30 219.976562 C 30.898438 219.976562 31.601562 219.675781 32.101562 219.074219 C 32.601562 218.476562 32.851562 217.574219 32.851562 216.375 C 32.851562 215.175781 32.601562 214.300781 32.101562 213.75 C 31.601562 213.148438 30.898438 212.851562 30 212.851562 C 29.101562 212.851562 28.398438 213.125 27.898438 213.675781 C 27.398438 214.273438 27.148438 215.175781 27.148438 216.375 C 27.148438 217.574219 27.398438 218.476562 27.898438 219.074219 C 28.398438 219.675781 29.101562 219.976562 30 219.976562 "/>
<path style=" stroke:none;fill-rule:nonzero;fill:rgb(0%,0%,100%);fill-opacity:1;" d="M 46.125 265.425781 L 47.324219 265.425781 L 47.324219 269.25 L 51.898438 269.25 L 51.898438 265.425781 L 53.101562 265.425781 L 53.101562 274.351562 L 51.898438 274.351562 L 51.898438 270.226562 L 47.324219 270.226562 L 47.324219 274.351562 L 46.125 274.351562 L 46.125 265.425781 "/>
<path style=" stroke:none;fill-rule:nonzero;fill:rgb(0%,0%,100%);fill-opacity:1;" d="M 54.898438 274.050781 C 55.050781 273.699219 55.273438 273.425781 55.574219 273.226562 C 55.925781 272.976562 56.351562 272.851562 56.851562 272.851562 C 57.449219 272.851562 57.898438 273.023438 58.199219 273.375 C 58.550781 273.675781 58.726562 274.125 58.726562 274.726562 C 58.726562 275.273438 58.5 275.824219 58.050781 276.375 C 57.648438 276.925781 57 277.523438 56.101562 278.175781 L 58.800781 278.175781 L 58.800781 278.851562 L 54.824219 278.851562 L 54.824219 278.324219 C 55.574219 277.773438 56.175781 277.300781 56.625 276.898438 C 57.074219 276.550781 57.398438 276.199219 57.601562 275.851562 C 57.800781 275.5 57.898438 275.125 57.898438 274.726562 C 57.898438 274.375 57.800781 274.101562 57.601562 273.898438 C 57.398438 273.648438 57.148438 273.523438 56.851562 273.523438 C 56.550781 273.523438 56.273438 273.601562 56.023438 273.75 C 55.824219 273.851562 55.648438 274.050781 55.5 274.351562 L 54.898438 274.050781 "/>
<path style=" stroke:none;fill-rule:nonzero;fill:rgb(0%,0%,100%);fill-opacity:1;" d="M 61.425781 265.425781 L 64.351562 270.148438 C 64.550781 270.5 64.800781 270.949219 65.101562 271.5 C 65.398438 272.050781 65.550781 272.351562 65.550781 272.398438 L 65.550781 265.425781 L 66.75 265.425781 L 66.75 274.351562 L 65.550781 274.351562 L 62.398438 269.175781 C 62.148438 268.773438 61.898438 268.351562 61.648438 267.898438 C 61.398438 267.449219 61.226562 267.148438 61.125 267 L 61.125 274.351562 L 60 274.351562 L 60 265.425781 L 61.425781 265.425781 "/>
<path style=" stroke:none;fill-rule:nonzero;fill:rgb(100%,0%,0%);fill-opacity:1;" d="M 122.398438 267.824219 C 122.398438 266.375 122.75 265.25 123.449219 264.449219 C 124.148438 263.648438 125.148438 263.25 126.449219 263.25 C 127.800781 263.25 128.824219 263.648438 129.523438 264.449219 C 130.226562 265.25 130.574219 266.375 130.574219 267.824219 C 130.574219 269.273438 130.226562 270.398438 129.523438 271.199219 C 128.773438 272 127.75 272.398438 126.449219 272.398438 C 125.148438 272.398438 124.148438 272 123.449219 271.199219 C 122.75 270.398438 122.398438 269.273438 122.398438 267.824219 M 126.449219 271.425781 C 127.398438 271.425781 128.101562 271.125 128.550781 270.523438 C 129.050781 269.875 129.300781 268.976562 129.300781 267.824219 C 129.300781 266.625 129.050781 265.726562 128.550781 265.125 C 128.101562 264.523438 127.398438 264.226562 126.449219 264.226562 C 125.550781 264.226562 124.851562 264.523438 124.351562 265.125 C 123.851562 265.726562 123.601562 266.625 123.601562 267.824219 C 123.601562 269.023438 123.851562 269.925781 124.351562 270.523438 C 124.851562 271.125 125.550781 271.425781 126.449219 271.425781 "/>
<path style=" stroke:none;fill-rule:nonzero;fill:rgb(100%,0%,0%);fill-opacity:1;" d="M 132 263.324219 L 133.199219 263.324219 L 133.199219 267.148438 L 137.773438 267.148438 L 137.773438 263.324219 L 138.976562 263.324219 L 138.976562 272.25 L 137.773438 272.25 L 137.773438 268.125 L 133.199219 268.125 L 133.199219 272.25 L 132 272.25 L 132 263.324219 "/>
<path style=" stroke:none;fill-rule:nonzero;fill:rgb(100%,0%,0%);fill-opacity:1;" d="M 215.175781 209.925781 C 215.175781 208.523438 215.523438 207.425781 216.226562 206.625 C 216.925781 205.824219 217.949219 205.425781 219.300781 205.425781 C 220.601562 205.425781 221.601562 205.824219 222.300781 206.625 C 223 207.425781 223.351562 208.523438 223.351562 209.925781 C 223.351562 211.375 223 212.523438 222.300781 213.375 C 221.601562 214.175781 220.601562 214.574219 219.300781 214.574219 C 217.949219 214.574219 216.925781 214.175781 216.226562 213.375 C 215.523438 212.523438 215.175781 211.375 215.175781 209.925781 M 219.300781 213.523438 C 220.199219 213.523438 220.898438 213.226562 221.398438 212.625 C 221.851562 212.023438 222.074219 211.125 222.074219 209.925781 C 222.074219 208.773438 221.851562 207.898438 221.398438 207.300781 C 220.898438 206.699219 220.199219 206.398438 219.300781 206.398438 C 218.351562 206.398438 217.625 206.699219 217.125 207.300781 C 216.675781 207.898438 216.449219 208.773438 216.449219 209.925781 C 216.449219 211.125 216.675781 212.023438 217.125 212.625 C 217.625 213.226562 218.351562 213.523438 219.300781 213.523438 "/>
<path style=" stroke:none;fill-rule:nonzero;fill:rgb(100%,0%,0%);fill-opacity:1;" d="M 224.773438 205.5 L 225.976562 205.5 L 225.976562 209.324219 L 230.550781 209.324219 L 230.550781 205.5 L 231.75 205.5 L 231.75 214.425781 L 230.550781 214.425781 L 230.550781 210.300781 L 225.976562 210.300781 L 225.976562 214.425781 L 224.773438 214.425781 L 224.773438 205.5 "/>
<path style=" stroke:none;fill-rule:nonzero;fill:rgb(0%,0%,100%);fill-opacity:1;" d="M 310.050781 147.601562 L 313.050781 152.324219 C 313.199219 152.625 313.449219 153.050781 313.800781 153.601562 C 314.101562 154.199219 314.25 154.5 314.25 154.5 L 314.25 147.601562 L 315.449219 147.601562 L 315.449219 156.523438 L 314.25 156.523438 L 311.101562 151.351562 C 310.851562 150.949219 310.601562 150.523438 310.351562 150.074219 C 310.101562 149.574219 309.925781 149.273438 309.824219 149.175781 L 309.824219 156.523438 L 308.699219 156.523438 L 308.699219 147.601562 L 310.050781 147.601562 "/>
<path style=" stroke:none;fill-rule:nonzero;fill:rgb(0%,0%,100%);fill-opacity:1;" d="M 317.175781 147.601562 L 318.375 147.601562 L 318.375 151.351562 L 322.949219 151.351562 L 322.949219 147.601562 L 324.148438 147.601562 L 324.148438 156.523438 L 322.949219 156.523438 L 322.949219 152.398438 L 318.375 152.398438 L 318.375 156.523438 L 317.175781 156.523438 L 317.175781 147.601562 "/>
<path style=" stroke:none;fill-rule:nonzero;fill:rgb(0%,0%,100%);fill-opacity:1;" d="M 325.875 156.226562 C 326.023438 155.824219 326.273438 155.523438 326.625 155.324219 C 326.976562 155.125 327.398438 155.023438 327.898438 155.023438 C 328.5 155.023438 328.949219 155.175781 329.25 155.476562 C 329.601562 155.824219 329.773438 156.273438 329.773438 156.824219 C 329.773438 157.425781 329.550781 158 329.101562 158.550781 C 328.699219 159.101562 328.050781 159.699219 327.148438 160.351562 L 329.851562 160.351562 L 329.851562 161.023438 L 325.875 161.023438 L 325.875 160.425781 C 326.625 159.925781 327.226562 159.476562 327.675781 159.074219 C 328.074219 158.675781 328.398438 158.300781 328.648438 157.949219 C 328.851562 157.601562 328.949219 157.25 328.949219 156.898438 C 328.949219 156.5 328.851562 156.199219 328.648438 156 C 328.449219 155.800781 328.199219 155.699219 327.898438 155.699219 C 327.550781 155.699219 327.273438 155.75 327.074219 155.851562 C 326.875 156 326.699219 156.226562 326.550781 156.523438 L 325.875 156.226562 "/>
<path style=" stroke:none;fill-rule:nonzero;fill:rgb(100%,0%,0%);fill-opacity:1;" d="M 341.324219 205.648438 C 341.324219 204.199219 341.699219 203.074219 342.449219 202.273438 C 343.148438 201.476562 344.148438 201.074219 345.449219 201.074219 C 346.800781 201.074219 347.824219 201.476562 348.523438 202.273438 C 349.226562 203.074219 349.574219 204.199219 349.574219 205.648438 C 349.574219 207.101562 349.226562 208.25 348.523438 209.101562 C 347.773438 209.898438 346.75 210.300781 345.449219 210.300781 C 344.148438 210.300781 343.148438 209.898438 342.449219 209.101562 C 341.699219 208.25 341.324219 207.101562 341.324219 205.648438 M 345.449219 209.25 C 346.351562 209.25 347.050781 208.949219 347.550781 208.351562 C 348.050781 207.75 348.300781 206.851562 348.300781 205.648438 C 348.300781 204.5 348.050781 203.625 347.550781 203.023438 C 347.050781 202.425781 346.351562 202.125 345.449219 202.125 C 344.550781 202.125 343.851562 202.425781 343.351562 203.023438 C 342.851562 203.574219 342.601562 204.449219 342.601562 205.648438 C 342.601562 206.851562 342.851562 207.75 343.351562 208.351562 C 343.851562 208.949219 344.550781 209.25 345.449219 209.25 "/>
<path style=" stroke:none;fill-rule:nonzero;fill:rgb(100%,0%,0%);fill-opacity:1;" d="M 350.925781 201.226562 L 352.199219 201.226562 L 352.199219 204.976562 L 356.773438 204.976562 L 356.773438 201.226562 L 357.976562 201.226562 L 357.976562 210.148438 L 356.773438 210.148438 L 356.773438 206.023438 L 352.199219 206.023438 L 352.199219 210.148438 L 350.925781 210.148438 L 350.925781 201.226562 "/>
<path style=" stroke:none;fill-rule:nonzero;fill:rgb(100%,0%,0%);fill-opacity:1;" d="M 311.699219 261.375 C 311.699219 259.925781 312.050781 258.800781 312.75 258 C 313.449219 257.199219 314.449219 256.800781 315.75 256.800781 C 317.101562 256.800781 318.125 257.199219 318.824219 258 C 319.523438 258.800781 319.875 259.925781 319.875 261.375 C 319.875 262.824219 319.523438 263.949219 318.824219 264.75 C 318.074219 265.601562 317.050781 266.023438 315.75 266.023438 C 314.449219 266.023438 313.449219 265.601562 312.75 264.75 C 312.050781 263.949219 311.699219 262.824219 311.699219 261.375 M 315.75 264.976562 C 316.648438 264.976562 317.351562 264.675781 317.851562 264.074219 C 318.351562 263.476562 318.601562 262.574219 318.601562 261.375 C 318.601562 260.226562 318.351562 259.351562 317.851562 258.75 C 317.351562 258.148438 316.648438 257.851562 315.75 257.851562 C 314.851562 257.851562 314.148438 258.148438 313.648438 258.75 C 313.148438 259.300781 312.898438 260.175781 312.898438 261.375 C 312.898438 262.574219 313.148438 263.476562 313.648438 264.074219 C 314.148438 264.675781 314.851562 264.976562 315.75 264.976562 "/>
<path style=" stroke:none;fill-rule:nonzero;fill:rgb(100%,0%,0%);fill-opacity:1;" d="M 321.300781 256.949219 L 322.5 256.949219 L 322.5 260.699219 L 327.074219 260.699219 L 327.074219 256.949219 L 328.273438 256.949219 L 328.273438 265.875 L 327.074219 265.875 L 327.074219 261.75 L 322.5 261.75 L 322.5 265.875 L 321.300781 265.875 L 321.300781 256.949219 "/>
</g>
</svg>
