<?xml version="1.0" encoding="UTF-8"?>
<svg xmlns="http://www.w3.org/2000/svg" xmlns:xlink="http://www.w3.org/1999/xlink" width="375pt" height="375pt" viewBox="0 0 375 375" version="1.1">
<g id="surface76">
<rect x="0" y="0" width="375" height="375" style="fill:rgb(100%,100%,100%);fill-opacity:1;stroke:none;"/>
<path style="fill:none;stroke-width:2;stroke-linecap:butt;stroke-linejoin:miter;stroke:rgb(0%,0%,0%);stroke-opacity:1;stroke-miterlimit:4;" d="M 159.802083 363 L 146.197917 315.302083 " transform="matrix(0.75,0,0,0.75,0,0)"/>
<path style="fill:none;stroke-width:2;stroke-linecap:butt;stroke-linejoin:miter;stroke:rgb(0%,0%,0%);stroke-opacity:1;stroke-miterlimit:4;" d="M 146.197917 315.302083 L 100.098958 333.802083 " transform="matrix(0.75,0,0,0.75,0,0)"/>
<path style="fill:none;stroke-width:2;stroke-linecap:butt;stroke-linejoin:miter;stroke:rgb(0%,0%,0%);stroke-opacity:1;stroke-miterlimit:4;" d="M 146.197917 315.302083 L 167.598958 311.5 " transform="matrix(0.75,0,0,0.75,0,0)"/>
<path style="fill:none;stroke-width:2;stroke-linecap:butt;stroke-linejoin:miter;stroke:rgb(80%,80%,0%);stroke-opacity:1;stroke-miterlimit:4;" d="M 167.598958 311.5 L 189 307.802083 " transform="matrix(0.75,0,0,0.75,0,0)"/>
<path style="fill:none;stroke-width:2;stroke-linecap:butt;stroke-linejoin:miter;stroke:rgb(80%,80%,0%);stroke-opacity:1;stroke-miterlimit:4;" d="M 196.302083 298.098958 L 199.197917 277.802083 " transform="matrix(0.75,0,0,0.75,0,0)"/>
<path style="fill:none;stroke-width:2;stroke-linecap:butt;stroke-linejoin:miter;stroke:rgb(0%,0%,0%);stroke-opacity:1;stroke-miterlimit:4;" d="M 199.197917 277.802083 L 202.098958 257.5 " transform="matrix(0.75,0,0,0.75,0,0)"/>
<path style="fill:none;stroke-width:2;stroke-linecap:butt;stroke-linejoin:miter;stroke:rgb(0%,0%,0%);stroke-opacity:1;stroke-miterlimit:4;" d="M 202.098958 257.5 L 223.901042 212.901042 " transform="matrix(0.75,0,0,0.75,0,0)"/>
<path style="fill-rule:evenodd;fill:rgb(0%,0%,0%);fill-opacity:1;stroke-width:0.5;stroke-linecap:butt;stroke-linejoin:miter;stroke:rgb(0%,0%,0%);stroke-opacity:1;stroke-miterlimit:4;" d="M 223.901042 212.901042 L 242.5 204.598958 L 243.697917 208.098958 Z M 223.901042 212.901042 " transform="matrix(0.75,0,0,0.75,0,0)"/>
<path style="fill-rule:evenodd;fill:rgb(0%,0%,100%);fill-opacity:1;stroke-width:0.5;stroke-linecap:butt;stroke-linejoin:miter;stroke:rgb(0%,0%,100%);stroke-opacity:1;stroke-miterlimit:4;" d="M 242.5 204.598958 L 263.5 203.302083 L 261.098958 196.197917 Z M 242.5 204.598958 " transform="matrix(0.75,0,0,0.75,0,0)"/>
<path style="fill-rule:evenodd;fill:rgb(0%,0%,100%);fill-opacity:1;stroke-width:0.5;stroke-linecap:butt;stroke-linejoin:miter;stroke:rgb(0%,0%,100%);stroke-opacity:1;stroke-miterlimit:4;" d="M 242.5 204.598958 L 243.697917 208.098958 L 263.5 203.302083 Z M 242.5 204.598958 " transform="matrix(0.75,0,0,0.75,0,0)"/>
<path style="fill:none;stroke-width:2;stroke-linecap:butt;stroke-linejoin:miter;stroke:rgb(0%,0%,100%);stroke-opacity:1;stroke-miterlimit:4;" d="M 277.901042 202.901042 L 293.197917 216.197917 " transform="matrix(0.75,0,0,0.75,0,0)"/>
<path style="fill:none;stroke-width:2;stroke-linecap:butt;stroke-linejoin:miter;stroke:rgb(0%,0%,0%);stroke-opacity:1;stroke-miterlimit:4;" d="M 293.197917 216.197917 L 308.401042 229.5 " transform="matrix(0.75,0,0,0.75,0,0)"/>
<path style="fill:none;stroke-width:2;stroke-linecap:butt;stroke-linejoin:miter;stroke:rgb(0%,0%,0%);stroke-opacity:1;stroke-miterlimit:4;" d="M 305.098958 226.598958 L 301 247.697917 " transform="matrix(0.75,0,0,0.75,0,0)"/>
<path style="fill:none;stroke-width:2;stroke-linecap:butt;stroke-linejoin:miter;stroke:rgb(100%,0%,0%);stroke-opacity:1;stroke-miterlimit:4;" d="M 301 247.697917 L 296.901042 268.697917 " transform="matrix(0.75,0,0,0.75,0,0)"/>
<path style="fill:none;stroke-width:2;stroke-linecap:butt;stroke-linejoin:miter;stroke:rgb(0%,0%,0%);stroke-opacity:1;stroke-miterlimit:4;" d="M 312.5 228.098958 L 308.302083 249.098958 " transform="matrix(0.75,0,0,0.75,0,0)"/>
<path style="fill:none;stroke-width:2;stroke-linecap:butt;stroke-linejoin:miter;stroke:rgb(100%,0%,0%);stroke-opacity:1;stroke-miterlimit:4;" d="M 308.302083 249.098958 L 304.197917 270.197917 " transform="matrix(0.75,0,0,0.75,0,0)"/>
<path style="fill:none;stroke-width:2;stroke-linecap:butt;stroke-linejoin:miter;stroke:rgb(0%,0%,0%);stroke-opacity:1;stroke-miterlimit:4;" d="M 308.401042 229.5 L 355.401042 213.401042 " transform="matrix(0.75,0,0,0.75,0,0)"/>
<path style="fill:none;stroke-width:2;stroke-linecap:butt;stroke-linejoin:miter;stroke:rgb(0%,0%,0%);stroke-opacity:1;stroke-miterlimit:4;" d="M 355.401042 213.401042 L 392.802083 246 " transform="matrix(0.75,0,0,0.75,0,0)"/>
<path style="fill:none;stroke-width:2;stroke-linecap:butt;stroke-linejoin:miter;stroke:rgb(0%,0%,0%);stroke-opacity:1;stroke-miterlimit:4;" d="M 392.802083 246 L 383.302083 294.802083 " transform="matrix(0.75,0,0,0.75,0,0)"/>
<path style="fill:none;stroke-width:2;stroke-linecap:butt;stroke-linejoin:miter;stroke:rgb(0%,0%,0%);stroke-opacity:1;stroke-miterlimit:4;" d="M 399.302083 251.697917 L 391.401042 292 " transform="matrix(0.75,0,0,0.75,0,0)"/>
<path style="fill:none;stroke-width:2;stroke-linecap:butt;stroke-linejoin:miter;stroke:rgb(0%,0%,0%);stroke-opacity:1;stroke-miterlimit:4;" d="M 383.302083 294.802083 L 420.697917 327.401042 " transform="matrix(0.75,0,0,0.75,0,0)"/>
<path style="fill:none;stroke-width:2;stroke-linecap:butt;stroke-linejoin:miter;stroke:rgb(0%,0%,0%);stroke-opacity:1;stroke-miterlimit:4;" d="M 420.697917 327.401042 L 467.697917 311.302083 " transform="matrix(0.75,0,0,0.75,0,0)"/>
<path style="fill:none;stroke-width:2;stroke-linecap:butt;stroke-linejoin:miter;stroke:rgb(0%,0%,0%);stroke-opacity:1;stroke-miterlimit:4;" d="M 422.401042 319 L 461.197917 305.598958 " transform="matrix(0.75,0,0,0.75,0,0)"/>
<path style="fill:none;stroke-width:2;stroke-linecap:butt;stroke-linejoin:miter;stroke:rgb(0%,0%,0%);stroke-opacity:1;stroke-miterlimit:4;" d="M 467.697917 311.302083 L 477.302083 262.598958 " transform="matrix(0.75,0,0,0.75,0,0)"/>
<path style="fill:none;stroke-width:2;stroke-linecap:butt;stroke-linejoin:miter;stroke:rgb(0%,0%,0%);stroke-opacity:1;stroke-miterlimit:4;" d="M 477.302083 262.598958 L 439.802083 229.901042 " transform="matrix(0.75,0,0,0.75,0,0)"/>
<path style="fill:none;stroke-width:2;stroke-linecap:butt;stroke-linejoin:miter;stroke:rgb(0%,0%,0%);stroke-opacity:1;stroke-miterlimit:4;" d="M 469.098958 265.302083 L 438.197917 238.302083 " transform="matrix(0.75,0,0,0.75,0,0)"/>
<path style="fill:none;stroke-width:2;stroke-linecap:butt;stroke-linejoin:miter;stroke:rgb(0%,0%,0%);stroke-opacity:1;stroke-miterlimit:4;" d="M 223.901042 212.901042 L 179.302083 191.098958 " transform="matrix(0.75,0,0,0.75,0,0)"/>
<path style="fill:none;stroke-width:2;stroke-linecap:butt;stroke-linejoin:miter;stroke:rgb(0%,0%,0%);stroke-opacity:1;stroke-miterlimit:4;" d="M 184.098958 193.401042 L 176.901042 172.598958 " transform="matrix(0.75,0,0,0.75,0,0)"/>
<path style="fill:none;stroke-width:2;stroke-linecap:butt;stroke-linejoin:miter;stroke:rgb(100%,0%,0%);stroke-opacity:1;stroke-miterlimit:4;" d="M 176.901042 172.598958 L 169.802083 151.802083 " transform="matrix(0.75,0,0,0.75,0,0)"/>
<path style="fill:none;stroke-width:2;stroke-linecap:butt;stroke-linejoin:miter;stroke:rgb(0%,0%,0%);stroke-opacity:1;stroke-miterlimit:4;" d="M 177 195.802083 L 169.901042 175 " transform="matrix(0.75,0,0,0.75,0,0)"/>
<path style="fill:none;stroke-width:2;stroke-linecap:butt;stroke-linejoin:miter;stroke:rgb(100%,0%,0%);stroke-opacity:1;stroke-miterlimit:4;" d="M 169.901042 175 L 162.802083 154.197917 " transform="matrix(0.75,0,0,0.75,0,0)"/>
<path style="fill:none;stroke-width:2;stroke-linecap:butt;stroke-linejoin:miter;stroke:rgb(0%,0%,0%);stroke-opacity:1;stroke-miterlimit:4;" d="M 179.302083 191.098958 L 170.5 209 " transform="matrix(0.75,0,0,0.75,0,0)"/>
<path style="fill:none;stroke-width:2;stroke-linecap:butt;stroke-linejoin:miter;stroke:rgb(0%,0%,100%);stroke-opacity:1;stroke-miterlimit:4;" d="M 170.5 209 L 161.697917 227 " transform="matrix(0.75,0,0,0.75,0,0)"/>
<path style="fill:none;stroke-width:2;stroke-linecap:butt;stroke-linejoin:miter;stroke:rgb(0%,0%,100%);stroke-opacity:1;stroke-miterlimit:4;" d="M 150.5 242.901042 L 136.697917 257.098958 " transform="matrix(0.75,0,0,0.75,0,0)"/>
<path style="fill:none;stroke-width:2;stroke-linecap:butt;stroke-linejoin:miter;stroke:rgb(0%,0%,0%);stroke-opacity:1;stroke-miterlimit:4;" d="M 136.697917 257.098958 L 122.901042 271.401042 " transform="matrix(0.75,0,0,0.75,0,0)"/>
<path style="fill:none;stroke-width:1;stroke-linecap:butt;stroke-linejoin:miter;stroke:rgb(0%,0%,0%);stroke-opacity:1;stroke-miterlimit:4;" d="M 119.401042 270.598958 L 119.401042 271.197917 " transform="matrix(0.75,0,0,0.75,0,0)"/>
<path style="fill:none;stroke-width:1;stroke-linecap:butt;stroke-linejoin:miter;stroke:rgb(0%,0%,0%);stroke-opacity:1;stroke-miterlimit:4;" d="M 116 269.802083 L 115.802083 270.901042 " transform="matrix(0.75,0,0,0.75,0,0)"/>
<path style="fill:none;stroke-width:1;stroke-linecap:butt;stroke-linejoin:miter;stroke:rgb(0%,0%,0%);stroke-opacity:1;stroke-miterlimit:4;" d="M 112.5 269 L 112.302083 270.697917 " transform="matrix(0.75,0,0,0.75,0,0)"/>
<path style="fill:none;stroke-width:1;stroke-linecap:butt;stroke-linejoin:miter;stroke:rgb(0%,0%,0%);stroke-opacity:1;stroke-miterlimit:4;" d="M 109 268.197917 L 108.697917 270.5 " transform="matrix(0.75,0,0,0.75,0,0)"/>
<path style="fill:none;stroke-width:1;stroke-linecap:butt;stroke-linejoin:miter;stroke:rgb(0%,0%,0%);stroke-opacity:1;stroke-miterlimit:4;" d="M 105.598958 267.5 L 105.197917 270.302083 " transform="matrix(0.75,0,0,0.75,0,0)"/>
<path style="fill:none;stroke-width:1;stroke-linecap:butt;stroke-linejoin:miter;stroke:rgb(0%,0%,0%);stroke-opacity:1;stroke-miterlimit:4;" d="M 102.098958 266.697917 L 101.598958 270.098958 " transform="matrix(0.75,0,0,0.75,0,0)"/>
<path style="fill:none;stroke-width:1;stroke-linecap:butt;stroke-linejoin:miter;stroke:rgb(0%,0%,0%);stroke-opacity:1;stroke-miterlimit:4;" d="M 98.598958 265.901042 L 98 269.901042 " transform="matrix(0.75,0,0,0.75,0,0)"/>
<path style="fill:none;stroke-width:1;stroke-linecap:butt;stroke-linejoin:miter;stroke:rgb(0%,0%,0%);stroke-opacity:1;stroke-miterlimit:4;" d="M 95.098958 265.098958 L 94.5 269.598958 " transform="matrix(0.75,0,0,0.75,0,0)"/>
<path style="fill:none;stroke-width:1;stroke-linecap:butt;stroke-linejoin:miter;stroke:rgb(0%,0%,0%);stroke-opacity:1;stroke-miterlimit:4;" d="M 91.697917 264.302083 L 90.901042 269.401042 " transform="matrix(0.75,0,0,0.75,0,0)"/>
<path style="fill:none;stroke-width:1;stroke-linecap:butt;stroke-linejoin:miter;stroke:rgb(0%,0%,0%);stroke-opacity:1;stroke-miterlimit:4;" d="M 88.197917 263.5 L 87.401042 269.197917 " transform="matrix(0.75,0,0,0.75,0,0)"/>
<path style="fill:none;stroke-width:1;stroke-linecap:butt;stroke-linejoin:miter;stroke:rgb(0%,0%,0%);stroke-opacity:1;stroke-miterlimit:4;" d="M 84.697917 262.802083 L 83.802083 269 " transform="matrix(0.75,0,0,0.75,0,0)"/>
<path style="fill:none;stroke-width:1;stroke-linecap:butt;stroke-linejoin:miter;stroke:rgb(0%,0%,0%);stroke-opacity:1;stroke-miterlimit:4;" d="M 81.302083 262 L 80.302083 268.802083 " transform="matrix(0.75,0,0,0.75,0,0)"/>
<path style="fill:none;stroke-width:1;stroke-linecap:butt;stroke-linejoin:miter;stroke:rgb(0%,0%,0%);stroke-opacity:1;stroke-miterlimit:4;" d="M 77.802083 261.197917 L 76.697917 268.598958 " transform="matrix(0.75,0,0,0.75,0,0)"/>
<path style="fill:none;stroke-width:2;stroke-linecap:butt;stroke-linejoin:miter;stroke:rgb(0%,0%,0%);stroke-opacity:1;stroke-miterlimit:4;" d="M 78 265 L 70.098958 245.401042 " transform="matrix(0.75,0,0,0.75,0,0)"/>
<path style="fill:none;stroke-width:2;stroke-linecap:butt;stroke-linejoin:miter;stroke:rgb(100%,0%,0%);stroke-opacity:1;stroke-miterlimit:4;" d="M 70.098958 245.401042 L 62.302083 225.901042 " transform="matrix(0.75,0,0,0.75,0,0)"/>
<path style="fill:none;stroke-width:2;stroke-linecap:butt;stroke-linejoin:miter;stroke:rgb(0%,0%,0%);stroke-opacity:1;stroke-miterlimit:4;" d="M 71.098958 267.802083 L 63.197917 248.197917 " transform="matrix(0.75,0,0,0.75,0,0)"/>
<path style="fill:none;stroke-width:2;stroke-linecap:butt;stroke-linejoin:miter;stroke:rgb(100%,0%,0%);stroke-opacity:1;stroke-miterlimit:4;" d="M 63.197917 248.197917 L 55.302083 228.697917 " transform="matrix(0.75,0,0,0.75,0,0)"/>
<path style="fill:none;stroke-width:2;stroke-linecap:butt;stroke-linejoin:miter;stroke:rgb(0%,0%,0%);stroke-opacity:1;stroke-miterlimit:4;" d="M 73.697917 264.401042 L 61.802083 279.598958 " transform="matrix(0.75,0,0,0.75,0,0)"/>
<path style="fill:none;stroke-width:2;stroke-linecap:butt;stroke-linejoin:miter;stroke:rgb(100%,0%,0%);stroke-opacity:1;stroke-miterlimit:4;" d="M 61.802083 279.598958 L 49.901042 294.697917 " transform="matrix(0.75,0,0,0.75,0,0)"/>
<path style="fill:none;stroke-width:2;stroke-linecap:butt;stroke-linejoin:miter;stroke:rgb(0%,0%,0%);stroke-opacity:1;stroke-miterlimit:4;" d="M 122.901042 271.401042 L 146.197917 315.302083 " transform="matrix(0.75,0,0,0.75,0,0)"/>
<path style="fill:none;stroke-width:2;stroke-linecap:butt;stroke-linejoin:miter;stroke:rgb(0%,0%,100%);stroke-opacity:1;stroke-miterlimit:4;" d="M 164.5 239.098958 L 183.302083 248.302083 " transform="matrix(0.75,0,0,0.75,0,0)"/>
<path style="fill:none;stroke-width:2;stroke-linecap:butt;stroke-linejoin:miter;stroke:rgb(0%,0%,0%);stroke-opacity:1;stroke-miterlimit:4;" d="M 183.302083 248.302083 L 202.098958 257.5 " transform="matrix(0.75,0,0,0.75,0,0)"/>
<path style="fill:none;stroke-width:2;stroke-linecap:butt;stroke-linejoin:miter;stroke:rgb(0%,0%,0%);stroke-opacity:1;stroke-miterlimit:4;" d="M 439.802083 229.901042 L 392.802083 246 " transform="matrix(0.75,0,0,0.75,0,0)"/>
<path style="fill:none;stroke-width:1;stroke-linecap:butt;stroke-linejoin:miter;stroke:rgb(0%,0%,0%);stroke-opacity:1;stroke-miterlimit:4;" d="M 205.401042 258.197917 L 205.197917 258.802083 " transform="matrix(0.75,0,0,0.75,0,0)"/>
<path style="fill:none;stroke-width:1;stroke-linecap:butt;stroke-linejoin:miter;stroke:rgb(0%,0%,0%);stroke-opacity:1;stroke-miterlimit:4;" d="M 208.697917 258.901042 L 208.401042 260.098958 " transform="matrix(0.75,0,0,0.75,0,0)"/>
<path style="fill:none;stroke-width:1;stroke-linecap:butt;stroke-linejoin:miter;stroke:rgb(0%,0%,0%);stroke-opacity:1;stroke-miterlimit:4;" d="M 212 259.598958 L 211.5 261.401042 " transform="matrix(0.75,0,0,0.75,0,0)"/>
<path style="fill:none;stroke-width:1;stroke-linecap:butt;stroke-linejoin:miter;stroke:rgb(0%,0%,0%);stroke-opacity:1;stroke-miterlimit:4;" d="M 215.401042 260.302083 L 214.598958 262.697917 " transform="matrix(0.75,0,0,0.75,0,0)"/>
<path style="fill:none;stroke-width:1;stroke-linecap:butt;stroke-linejoin:miter;stroke:rgb(0%,0%,0%);stroke-opacity:1;stroke-miterlimit:4;" d="M 218.697917 261 L 217.802083 264 " transform="matrix(0.75,0,0,0.75,0,0)"/>
<path style="fill:none;stroke-width:1;stroke-linecap:butt;stroke-linejoin:miter;stroke:rgb(0%,0%,0%);stroke-opacity:1;stroke-miterlimit:4;" d="M 222 261.697917 L 220.901042 265.302083 " transform="matrix(0.75,0,0,0.75,0,0)"/>
<path style="fill:none;stroke-width:1;stroke-linecap:butt;stroke-linejoin:miter;stroke:rgb(0%,0%,0%);stroke-opacity:1;stroke-miterlimit:4;" d="M 225.302083 262.401042 L 224 266.5 " transform="matrix(0.75,0,0,0.75,0,0)"/>
<path style="fill:none;stroke-width:1;stroke-linecap:butt;stroke-linejoin:miter;stroke:rgb(0%,0%,0%);stroke-opacity:1;stroke-miterlimit:4;" d="M 228.598958 263.098958 L 227.197917 267.802083 " transform="matrix(0.75,0,0,0.75,0,0)"/>
<path style="fill:none;stroke-width:1;stroke-linecap:butt;stroke-linejoin:miter;stroke:rgb(0%,0%,0%);stroke-opacity:1;stroke-miterlimit:4;" d="M 231.901042 263.802083 L 230.302083 269.098958 " transform="matrix(0.75,0,0,0.75,0,0)"/>
<path style="fill:none;stroke-width:1;stroke-linecap:butt;stroke-linejoin:miter;stroke:rgb(0%,0%,0%);stroke-opacity:1;stroke-miterlimit:4;" d="M 235.302083 264.5 L 233.401042 270.401042 " transform="matrix(0.75,0,0,0.75,0,0)"/>
<path style="fill:none;stroke-width:1;stroke-linecap:butt;stroke-linejoin:miter;stroke:rgb(0%,0%,0%);stroke-opacity:1;stroke-miterlimit:4;" d="M 238.598958 265.197917 L 236.598958 271.697917 " transform="matrix(0.75,0,0,0.75,0,0)"/>
<path style="fill:none;stroke-width:1;stroke-linecap:butt;stroke-linejoin:miter;stroke:rgb(0%,0%,0%);stroke-opacity:1;stroke-miterlimit:4;" d="M 241.901042 265.901042 L 239.697917 273 " transform="matrix(0.75,0,0,0.75,0,0)"/>
<path style="fill:none;stroke-width:2;stroke-linecap:butt;stroke-linejoin:miter;stroke:rgb(0%,0%,0%);stroke-opacity:1;stroke-miterlimit:4;" d="M 222.901042 215.098958 L 223.901042 212.901042 L 221.697917 211.802083 " transform="matrix(0.75,0,0,0.75,0,0)"/>
<path style="fill:none;stroke-width:2;stroke-linecap:butt;stroke-linejoin:miter;stroke:rgb(0%,0%,0%);stroke-opacity:1;stroke-miterlimit:4;" d="M 307.598958 228.802083 L 308.401042 229.5 L 310.697917 228.697917 " transform="matrix(0.75,0,0,0.75,0,0)"/>
<path style="fill:none;stroke-width:2;stroke-linecap:butt;stroke-linejoin:miter;stroke:rgb(0%,0%,0%);stroke-opacity:1;stroke-miterlimit:4;" d="M 353 214.197917 L 355.401042 213.401042 L 357.302083 215 " transform="matrix(0.75,0,0,0.75,0,0)"/>
<path style="fill:none;stroke-width:2;stroke-linecap:butt;stroke-linejoin:miter;stroke:rgb(0%,0%,0%);stroke-opacity:1;stroke-miterlimit:4;" d="M 383.802083 292.302083 L 383.302083 294.802083 L 385.098958 296.401042 " transform="matrix(0.75,0,0,0.75,0,0)"/>
<path style="fill:none;stroke-width:2;stroke-linecap:butt;stroke-linejoin:miter;stroke:rgb(0%,0%,0%);stroke-opacity:1;stroke-miterlimit:4;" d="M 418.802083 325.802083 L 420.697917 327.401042 L 423.098958 326.598958 " transform="matrix(0.75,0,0,0.75,0,0)"/>
<path style="fill:none;stroke-width:2;stroke-linecap:butt;stroke-linejoin:miter;stroke:rgb(0%,0%,0%);stroke-opacity:1;stroke-miterlimit:4;" d="M 465.401042 312.098958 L 467.697917 311.302083 L 468.197917 308.901042 " transform="matrix(0.75,0,0,0.75,0,0)"/>
<path style="fill:none;stroke-width:2;stroke-linecap:butt;stroke-linejoin:miter;stroke:rgb(0%,0%,0%);stroke-opacity:1;stroke-miterlimit:4;" d="M 476.802083 265 L 477.302083 262.598958 L 475.401042 260.901042 " transform="matrix(0.75,0,0,0.75,0,0)"/>
<path style="fill:none;stroke-width:2;stroke-linecap:butt;stroke-linejoin:miter;stroke:rgb(0%,0%,0%);stroke-opacity:1;stroke-miterlimit:4;" d="M 441.697917 231.5 L 439.802083 229.901042 L 437.5 230.697917 " transform="matrix(0.75,0,0,0.75,0,0)"/>
<path style="fill:none;stroke-width:2;stroke-linecap:butt;stroke-linejoin:miter;stroke:rgb(0%,0%,0%);stroke-opacity:1;stroke-miterlimit:4;" d="M 181.598958 192.197917 L 179.302083 191.098958 L 178.901042 192 " transform="matrix(0.75,0,0,0.75,0,0)"/>
<path style="fill:none;stroke-width:2;stroke-linecap:butt;stroke-linejoin:miter;stroke:rgb(0%,0%,0%);stroke-opacity:1;stroke-miterlimit:4;" d="M 123.598958 270.697917 L 122.901042 271.401042 L 124.098958 273.598958 " transform="matrix(0.75,0,0,0.75,0,0)"/>
<path style=" stroke:none;fill-rule:nonzero;fill:rgb(80%,80%,0%);fill-opacity:1;" d="M 143.324219 233.625 C 143.425781 233.675781 143.625 233.773438 143.925781 233.925781 C 144.273438 234.074219 144.625 234.175781 144.976562 234.226562 C 145.375 234.324219 145.75 234.375 146.101562 234.375 C 146.75 234.375 147.273438 234.226562 147.675781 233.925781 C 148.074219 233.574219 148.273438 233.125 148.273438 232.574219 C 148.273438 232.175781 148.175781 231.851562 147.976562 231.601562 C 147.773438 231.351562 147.523438 231.175781 147.226562 231.074219 C 146.925781 230.925781 146.523438 230.773438 146.023438 230.625 C 145.375 230.476562 144.875 230.300781 144.523438 230.101562 C 144.125 229.898438 143.800781 229.625 143.550781 229.273438 C 143.300781 228.875 143.175781 228.375 143.175781 227.773438 C 143.175781 226.875 143.476562 226.148438 144.074219 225.601562 C 144.675781 225.050781 145.574219 224.773438 146.773438 224.773438 C 147.574219 224.773438 148.449219 224.976562 149.398438 225.375 L 149.023438 226.5 C 148.175781 226.148438 147.425781 225.976562 146.773438 225.976562 C 146.125 225.976562 145.601562 226.125 145.199219 226.425781 C 144.851562 226.675781 144.675781 227.050781 144.675781 227.550781 C 144.675781 227.949219 144.773438 228.25 144.976562 228.449219 C 145.175781 228.699219 145.398438 228.875 145.648438 228.976562 C 145.949219 229.125 146.324219 229.273438 146.773438 229.425781 C 147.425781 229.625 147.949219 229.824219 148.351562 230.023438 C 148.699219 230.226562 149.023438 230.523438 149.324219 230.925781 C 149.574219 231.324219 149.699219 231.875 149.699219 232.574219 C 149.699219 233.523438 149.375 234.273438 148.726562 234.824219 C 148.074219 235.324219 147.226562 235.574219 146.175781 235.574219 C 145.523438 235.574219 144.949219 235.5 144.449219 235.351562 C 144 235.25 143.5 235.074219 142.949219 234.824219 L 143.324219 233.625 "/>
<path style=" stroke:none;fill-rule:nonzero;fill:rgb(0%,0%,100%);fill-opacity:1;" d="M 200.851562 142.351562 L 204.300781 147.898438 C 204.550781 148.300781 204.851562 148.824219 205.199219 149.476562 C 205.601562 150.125 205.800781 150.476562 205.800781 150.523438 L 205.800781 142.351562 L 207.226562 142.351562 L 207.226562 152.851562 L 205.726562 152.851562 L 202.050781 146.773438 C 201.75 146.273438 201.449219 145.75 201.148438 145.199219 C 200.851562 144.699219 200.648438 144.351562 200.550781 144.148438 L 200.550781 152.851562 L 199.199219 152.851562 L 199.199219 142.351562 L 200.851562 142.351562 "/>
<path style=" stroke:none;fill-rule:nonzero;fill:rgb(0%,0%,100%);fill-opacity:1;" d="M 199.050781 130.726562 L 200.476562 130.726562 L 200.476562 135.226562 L 205.875 135.226562 L 205.875 130.726562 L 207.300781 130.726562 L 207.300781 141.300781 L 205.875 141.300781 L 205.875 136.425781 L 200.476562 136.425781 L 200.476562 141.300781 L 199.050781 141.300781 L 199.050781 130.726562 "/>
<path style=" stroke:none;fill-rule:nonzero;fill:rgb(100%,0%,0%);fill-opacity:1;" d="M 219.300781 208.726562 C 219.300781 207.023438 219.699219 205.699219 220.5 204.75 C 221.351562 203.800781 222.550781 203.324219 224.101562 203.324219 C 225.699219 203.324219 226.898438 203.800781 227.699219 204.75 C 228.550781 205.699219 228.976562 207.023438 228.976562 208.726562 C 228.976562 210.425781 228.550781 211.75 227.699219 212.699219 C 226.851562 213.648438 225.648438 214.125 224.101562 214.125 C 222.550781 214.125 221.351562 213.648438 220.5 212.699219 C 219.699219 211.75 219.300781 210.425781 219.300781 208.726562 M 224.101562 213 C 225.199219 213 226.023438 212.625 226.574219 211.875 C 227.175781 211.175781 227.476562 210.125 227.476562 208.726562 C 227.476562 207.324219 227.175781 206.273438 226.574219 205.574219 C 226.023438 204.875 225.199219 204.523438 224.101562 204.523438 C 223.050781 204.523438 222.226562 204.875 221.625 205.574219 C 221.074219 206.273438 220.800781 207.324219 220.800781 208.726562 C 220.800781 210.125 221.074219 211.175781 221.625 211.875 C 222.226562 212.625 223.050781 213 224.101562 213 "/>
<path style=" stroke:none;fill-rule:nonzero;fill:rgb(100%,0%,0%);fill-opacity:1;" d="M 117.601562 108.074219 C 117.601562 106.375 118 105.050781 118.800781 104.101562 C 119.648438 103.199219 120.851562 102.75 122.398438 102.75 C 123.949219 102.75 125.148438 103.199219 126 104.101562 C 126.851562 105.050781 127.273438 106.375 127.273438 108.074219 C 127.273438 109.773438 126.851562 111.125 126 112.125 C 125.148438 113.074219 123.949219 113.550781 122.398438 113.550781 C 120.851562 113.550781 119.648438 113.074219 118.800781 112.125 C 118 111.125 117.601562 109.773438 117.601562 108.074219 M 122.398438 112.351562 C 123.5 112.351562 124.324219 112 124.875 111.300781 C 125.476562 110.550781 125.773438 109.476562 125.773438 108.074219 C 125.773438 106.675781 125.476562 105.648438 124.875 105 C 124.324219 104.25 123.5 103.875 122.398438 103.875 C 121.351562 103.875 120.523438 104.226562 119.925781 104.925781 C 119.324219 105.625 119.023438 106.675781 119.023438 108.074219 C 119.023438 109.476562 119.324219 110.550781 119.925781 111.300781 C 120.523438 112 121.351562 112.351562 122.398438 112.351562 "/>
<path style=" stroke:none;fill-rule:nonzero;fill:rgb(0%,0%,100%);fill-opacity:1;" d="M 115.800781 171.523438 L 119.25 177.074219 C 119.449219 177.425781 119.75 177.949219 120.148438 178.648438 C 120.5 179.300781 120.675781 179.648438 120.675781 179.699219 L 120.675781 171.523438 L 122.101562 171.523438 L 122.101562 182.023438 L 120.675781 182.023438 L 116.925781 175.949219 C 116.675781 175.449219 116.375 174.925781 116.023438 174.375 C 115.726562 173.824219 115.550781 173.476562 115.5 173.324219 L 115.5 182.023438 L 114.074219 182.023438 L 114.074219 171.523438 L 115.800781 171.523438 "/>
<path style=" stroke:none;fill-rule:nonzero;fill:rgb(100%,0%,0%);fill-opacity:1;" d="M 36.523438 163.726562 C 36.523438 162.074219 36.949219 160.773438 37.800781 159.824219 C 38.648438 158.875 39.851562 158.398438 41.398438 158.398438 C 42.949219 158.398438 44.148438 158.875 45 159.824219 C 45.800781 160.773438 46.199219 162.074219 46.199219 163.726562 C 46.199219 165.425781 45.800781 166.773438 45 167.773438 C 44.148438 168.726562 42.949219 169.199219 41.398438 169.199219 C 39.851562 169.199219 38.648438 168.726562 37.800781 167.773438 C 36.949219 166.824219 36.523438 165.476562 36.523438 163.726562 M 41.398438 168 C 42.449219 168 43.273438 167.648438 43.875 166.949219 C 44.476562 166.25 44.773438 165.175781 44.773438 163.726562 C 44.773438 162.375 44.476562 161.351562 43.875 160.648438 C 43.273438 159.949219 42.449219 159.601562 41.398438 159.601562 C 40.300781 159.601562 39.476562 159.949219 38.925781 160.648438 C 38.324219 161.300781 38.023438 162.324219 38.023438 163.726562 C 38.023438 165.175781 38.324219 166.25 38.925781 166.949219 C 39.476562 167.648438 40.300781 168 41.398438 168 "/>
<path style=" stroke:none;fill-rule:nonzero;fill:rgb(100%,0%,0%);fill-opacity:1;" d="M 17.023438 222.375 L 18.449219 222.375 L 18.449219 226.875 L 23.851562 226.875 L 23.851562 222.375 L 25.273438 222.375 L 25.273438 232.949219 L 23.851562 232.949219 L 23.851562 228.074219 L 18.449219 228.074219 L 18.449219 232.949219 L 17.023438 232.949219 L 17.023438 222.375 "/>
<path style=" stroke:none;fill-rule:nonzero;fill:rgb(100%,0%,0%);fill-opacity:1;" d="M 27.449219 227.625 C 27.449219 225.925781 27.875 224.625 28.726562 223.726562 C 29.574219 222.773438 30.773438 222.300781 32.324219 222.300781 C 33.875 222.300781 35.074219 222.773438 35.925781 223.726562 C 36.726562 224.625 37.125 225.925781 37.125 227.625 C 37.125 229.324219 36.699219 230.675781 35.851562 231.675781 C 35.050781 232.625 33.875 233.101562 32.324219 233.101562 C 30.773438 233.101562 29.574219 232.625 28.726562 231.675781 C 27.875 230.726562 27.449219 229.375 27.449219 227.625 M 32.324219 231.898438 C 33.375 231.898438 34.199219 231.550781 34.800781 230.851562 C 35.398438 230.101562 35.699219 229.023438 35.699219 227.625 C 35.699219 226.273438 35.398438 225.25 34.800781 224.550781 C 34.199219 223.851562 33.375 223.5 32.324219 223.5 C 31.226562 223.5 30.398438 223.851562 29.851562 224.550781 C 29.25 225.199219 28.949219 226.226562 28.949219 227.625 C 28.949219 229.074219 29.25 230.148438 29.851562 230.851562 C 30.398438 231.550781 31.226562 231.898438 32.324219 231.898438 "/>
<path style=" stroke:none;fill-rule:nonzero;fill:rgb(0%,0%,0%);fill-opacity:1;" d="M 183.074219 198.824219 L 184.5 198.824219 L 184.5 203.324219 L 189.898438 203.324219 L 189.898438 198.824219 L 191.324219 198.824219 L 191.324219 209.398438 L 189.898438 209.398438 L 189.898438 204.523438 L 184.5 204.523438 L 184.5 209.398438 L 183.074219 209.398438 L 183.074219 198.824219 "/>
</g>
</svg>
