<?xml version="1.0" encoding="UTF-8"?>
<svg xmlns="http://www.w3.org/2000/svg" xmlns:xlink="http://www.w3.org/1999/xlink" width="375pt" height="375pt" viewBox="0 0 375 375" version="1.1">
<g id="surface26">
<rect x="0" y="0" width="375" height="375" style="fill:rgb(100%,100%,100%);fill-opacity:1;stroke:none;"/>
<path style="fill:none;stroke-width:2;stroke-linecap:butt;stroke-linejoin:miter;stroke:rgb(0%,0%,100%);stroke-opacity:1;stroke-miterlimit:4;" d="M 90.802083 86.802083 L 103.302083 98.302083 " transform="matrix(0.75,0,0,0.75,0,0)"/>
<path style="fill:none;stroke-width:2;stroke-linecap:butt;stroke-linejoin:miter;stroke:rgb(0%,0%,0%);stroke-opacity:1;stroke-miterlimit:4;" d="M 103.302083 98.302083 L 115.802083 109.802083 " transform="matrix(0.75,0,0,0.75,0,0)"/>
<path style="fill:none;stroke-width:2;stroke-linecap:butt;stroke-linejoin:miter;stroke:rgb(0%,0%,0%);stroke-opacity:1;stroke-miterlimit:4;" d="M 115.802083 109.802083 L 106.598958 150.802083 " transform="matrix(0.75,0,0,0.75,0,0)"/>
<path style="fill:none;stroke-width:2;stroke-linecap:butt;stroke-linejoin:miter;stroke:rgb(0%,0%,0%);stroke-opacity:1;stroke-miterlimit:4;" d="M 106.598958 150.802083 L 137.5 179.302083 " transform="matrix(0.75,0,0,0.75,0,0)"/>
<path style="fill:none;stroke-width:1;stroke-linecap:butt;stroke-linejoin:miter;stroke:rgb(0%,0%,0%);stroke-opacity:1;stroke-miterlimit:4;" d="M 143 178.302083 L 142.598958 176.901042 " transform="matrix(0.75,0,0,0.75,0,0)"/>
<path style="fill:none;stroke-width:1;stroke-linecap:butt;stroke-linejoin:miter;stroke:rgb(0%,0%,0%);stroke-opacity:1;stroke-miterlimit:4;" d="M 148.598958 177.302083 L 147.697917 174.598958 " transform="matrix(0.75,0,0,0.75,0,0)"/>
<path style="fill:none;stroke-width:1;stroke-linecap:butt;stroke-linejoin:miter;stroke:rgb(0%,0%,0%);stroke-opacity:1;stroke-miterlimit:4;" d="M 154.098958 176.302083 L 152.802083 172.302083 " transform="matrix(0.75,0,0,0.75,0,0)"/>
<path style="fill:none;stroke-width:1;stroke-linecap:butt;stroke-linejoin:miter;stroke:rgb(100%,0%,0%);stroke-opacity:1;stroke-miterlimit:4;" d="M 159.598958 175.302083 L 157.901042 169.901042 " transform="matrix(0.75,0,0,0.75,0,0)"/>
<path style="fill:none;stroke-width:1;stroke-linecap:butt;stroke-linejoin:miter;stroke:rgb(100%,0%,0%);stroke-opacity:1;stroke-miterlimit:4;" d="M 165.098958 174.302083 L 163 167.598958 " transform="matrix(0.75,0,0,0.75,0,0)"/>
<path style="fill:none;stroke-width:1;stroke-linecap:butt;stroke-linejoin:miter;stroke:rgb(100%,0%,0%);stroke-opacity:1;stroke-miterlimit:4;" d="M 170.598958 173.302083 L 168.098958 165.302083 " transform="matrix(0.75,0,0,0.75,0,0)"/>
<path style="fill:none;stroke-width:2;stroke-linecap:butt;stroke-linejoin:miter;stroke:rgb(0%,0%,0%);stroke-opacity:1;stroke-miterlimit:4;" d="M 137.5 179.302083 L 128.302083 220.302083 " transform="matrix(0.75,0,0,0.75,0,0)"/>
<path style="fill:none;stroke-width:2;stroke-linecap:butt;stroke-linejoin:miter;stroke:rgb(0%,0%,0%);stroke-opacity:1;stroke-miterlimit:4;" d="M 129.598958 224.302083 L 112.901042 229.5 " transform="matrix(0.75,0,0,0.75,0,0)"/>
<path style="fill:none;stroke-width:2;stroke-linecap:butt;stroke-linejoin:miter;stroke:rgb(100%,0%,0%);stroke-opacity:1;stroke-miterlimit:4;" d="M 112.901042 229.5 L 96.302083 234.697917 " transform="matrix(0.75,0,0,0.75,0,0)"/>
<path style="fill:none;stroke-width:2;stroke-linecap:butt;stroke-linejoin:miter;stroke:rgb(0%,0%,0%);stroke-opacity:1;stroke-miterlimit:4;" d="M 127.098958 216.197917 L 110.401042 221.401042 " transform="matrix(0.75,0,0,0.75,0,0)"/>
<path style="fill:none;stroke-width:2;stroke-linecap:butt;stroke-linejoin:miter;stroke:rgb(100%,0%,0%);stroke-opacity:1;stroke-miterlimit:4;" d="M 110.401042 221.401042 L 93.802083 226.598958 " transform="matrix(0.75,0,0,0.75,0,0)"/>
<path style="fill:none;stroke-width:2;stroke-linecap:butt;stroke-linejoin:miter;stroke:rgb(0%,0%,0%);stroke-opacity:1;stroke-miterlimit:4;" d="M 128.302083 220.302083 L 140.802083 231.802083 " transform="matrix(0.75,0,0,0.75,0,0)"/>
<path style="fill:none;stroke-width:2;stroke-linecap:butt;stroke-linejoin:miter;stroke:rgb(0%,0%,100%);stroke-opacity:1;stroke-miterlimit:4;" d="M 140.802083 231.802083 L 153.302083 243.302083 " transform="matrix(0.75,0,0,0.75,0,0)"/>
<path style="fill:none;stroke-width:1;stroke-linecap:butt;stroke-linejoin:miter;stroke:rgb(0%,0%,0%);stroke-opacity:1;stroke-miterlimit:4;" d="M 193.697917 237.197917 L 194.098958 238.598958 " transform="matrix(0.75,0,0,0.75,0,0)"/>
<path style="fill:none;stroke-width:1;stroke-linecap:butt;stroke-linejoin:miter;stroke:rgb(0%,0%,0%);stroke-opacity:1;stroke-miterlimit:4;" d="M 188 238.302083 L 188.802083 240.901042 " transform="matrix(0.75,0,0,0.75,0,0)"/>
<path style="fill:none;stroke-width:1;stroke-linecap:butt;stroke-linejoin:miter;stroke:rgb(0%,0%,0%);stroke-opacity:1;stroke-miterlimit:4;" d="M 182.302083 239.302083 L 183.598958 243.302083 " transform="matrix(0.75,0,0,0.75,0,0)"/>
<path style="fill:none;stroke-width:1;stroke-linecap:butt;stroke-linejoin:miter;stroke:rgb(0%,0%,100%);stroke-opacity:1;stroke-miterlimit:4;" d="M 176.598958 240.302083 L 178.302083 245.697917 " transform="matrix(0.75,0,0,0.75,0,0)"/>
<path style="fill:none;stroke-width:1;stroke-linecap:butt;stroke-linejoin:miter;stroke:rgb(0%,0%,100%);stroke-opacity:1;stroke-miterlimit:4;" d="M 170.901042 241.401042 L 173 248.098958 " transform="matrix(0.75,0,0,0.75,0,0)"/>
<path style="fill:none;stroke-width:1;stroke-linecap:butt;stroke-linejoin:miter;stroke:rgb(0%,0%,100%);stroke-opacity:1;stroke-miterlimit:4;" d="M 165.302083 242.401042 L 167.802083 250.401042 " transform="matrix(0.75,0,0,0.75,0,0)"/>
<path style="fill:none;stroke-width:2;stroke-linecap:butt;stroke-linejoin:miter;stroke:rgb(0%,0%,0%);stroke-opacity:1;stroke-miterlimit:4;" d="M 199.302083 236.197917 L 208.5 195.197917 " transform="matrix(0.75,0,0,0.75,0,0)"/>
<path style="fill:none;stroke-width:2;stroke-linecap:butt;stroke-linejoin:miter;stroke:rgb(0%,0%,0%);stroke-opacity:1;stroke-miterlimit:4;" d="M 208.5 195.197917 L 248.598958 182.598958 " transform="matrix(0.75,0,0,0.75,0,0)"/>
<path style="fill:none;stroke-width:1;stroke-linecap:butt;stroke-linejoin:miter;stroke:rgb(0%,0%,0%);stroke-opacity:1;stroke-miterlimit:4;" d="M 250.5 177.401042 L 249.098958 177.098958 " transform="matrix(0.75,0,0,0.75,0,0)"/>
<path style="fill:none;stroke-width:1;stroke-linecap:butt;stroke-linejoin:miter;stroke:rgb(0%,0%,0%);stroke-opacity:1;stroke-miterlimit:4;" d="M 252.401042 172.197917 L 249.697917 171.598958 " transform="matrix(0.75,0,0,0.75,0,0)"/>
<path style="fill:none;stroke-width:1;stroke-linecap:butt;stroke-linejoin:miter;stroke:rgb(0%,0%,0%);stroke-opacity:1;stroke-miterlimit:4;" d="M 254.302083 167 L 250.197917 166 " transform="matrix(0.75,0,0,0.75,0,0)"/>
<path style="fill:none;stroke-width:1;stroke-linecap:butt;stroke-linejoin:miter;stroke:rgb(0%,0%,100%);stroke-opacity:1;stroke-miterlimit:4;" d="M 256.197917 161.697917 L 250.697917 160.5 " transform="matrix(0.75,0,0,0.75,0,0)"/>
<path style="fill:none;stroke-width:1;stroke-linecap:butt;stroke-linejoin:miter;stroke:rgb(0%,0%,100%);stroke-opacity:1;stroke-miterlimit:4;" d="M 258.098958 156.5 L 251.197917 155 " transform="matrix(0.75,0,0,0.75,0,0)"/>
<path style="fill:none;stroke-width:1;stroke-linecap:butt;stroke-linejoin:miter;stroke:rgb(0%,0%,100%);stroke-opacity:1;stroke-miterlimit:4;" d="M 260 151.302083 L 251.802083 149.401042 " transform="matrix(0.75,0,0,0.75,0,0)"/>
<path style="fill:none;stroke-width:2;stroke-linecap:butt;stroke-linejoin:miter;stroke:rgb(0%,0%,0%);stroke-opacity:1;stroke-miterlimit:4;" d="M 248.598958 182.598958 L 279.5 211.098958 " transform="matrix(0.75,0,0,0.75,0,0)"/>
<path style="fill-rule:evenodd;fill:rgb(0%,0%,0%);fill-opacity:1;stroke-width:1;stroke-linecap:butt;stroke-linejoin:miter;stroke:rgb(0%,0%,0%);stroke-opacity:1;stroke-miterlimit:4;" d="M 279.5 211.098958 L 294.802083 204.098958 L 296.098958 208.098958 Z M 279.5 211.098958 " transform="matrix(0.75,0,0,0.75,0,0)"/>
<path style="fill-rule:evenodd;fill:rgb(100%,0%,0%);fill-opacity:1;stroke-width:1;stroke-linecap:butt;stroke-linejoin:miter;stroke:rgb(100%,0%,0%);stroke-opacity:1;stroke-miterlimit:4;" d="M 294.802083 204.098958 L 312.697917 205.098958 L 310.098958 197.098958 Z M 294.802083 204.098958 " transform="matrix(0.75,0,0,0.75,0,0)"/>
<path style="fill-rule:evenodd;fill:rgb(100%,0%,0%);fill-opacity:1;stroke-width:1;stroke-linecap:butt;stroke-linejoin:miter;stroke:rgb(100%,0%,0%);stroke-opacity:1;stroke-miterlimit:4;" d="M 294.802083 204.098958 L 296.098958 208.098958 L 312.697917 205.098958 Z M 294.802083 204.098958 " transform="matrix(0.75,0,0,0.75,0,0)"/>
<path style="fill:none;stroke-width:1;stroke-linecap:butt;stroke-linejoin:miter;stroke:rgb(0%,0%,0%);stroke-opacity:1;stroke-miterlimit:4;" d="M 347.197917 223 L 346.302083 224.098958 " transform="matrix(0.75,0,0,0.75,0,0)"/>
<path style="fill:none;stroke-width:1;stroke-linecap:butt;stroke-linejoin:miter;stroke:rgb(0%,0%,0%);stroke-opacity:1;stroke-miterlimit:4;" d="M 343.901042 219 L 342 221.098958 " transform="matrix(0.75,0,0,0.75,0,0)"/>
<path style="fill:none;stroke-width:1;stroke-linecap:butt;stroke-linejoin:miter;stroke:rgb(0%,0%,0%);stroke-opacity:1;stroke-miterlimit:4;" d="M 340.598958 215 L 337.802083 218.098958 " transform="matrix(0.75,0,0,0.75,0,0)"/>
<path style="fill:none;stroke-width:1;stroke-linecap:butt;stroke-linejoin:miter;stroke:rgb(100%,0%,0%);stroke-opacity:1;stroke-miterlimit:4;" d="M 337.302083 211 L 333.5 215.197917 " transform="matrix(0.75,0,0,0.75,0,0)"/>
<path style="fill:none;stroke-width:1;stroke-linecap:butt;stroke-linejoin:miter;stroke:rgb(100%,0%,0%);stroke-opacity:1;stroke-miterlimit:4;" d="M 334 207 L 329.302083 212.197917 " transform="matrix(0.75,0,0,0.75,0,0)"/>
<path style="fill:none;stroke-width:1;stroke-linecap:butt;stroke-linejoin:miter;stroke:rgb(100%,0%,0%);stroke-opacity:1;stroke-miterlimit:4;" d="M 330.697917 203 L 325 209.197917 " transform="matrix(0.75,0,0,0.75,0,0)"/>
<path style="fill:none;stroke-width:2;stroke-linecap:butt;stroke-linejoin:miter;stroke:rgb(0%,0%,0%);stroke-opacity:1;stroke-miterlimit:4;" d="M 350.5 227 L 346.802083 243.802083 " transform="matrix(0.75,0,0,0.75,0,0)"/>
<path style="fill:none;stroke-width:2;stroke-linecap:butt;stroke-linejoin:miter;stroke:rgb(100%,0%,0%);stroke-opacity:1;stroke-miterlimit:4;" d="M 346.802083 243.802083 L 343 260.598958 " transform="matrix(0.75,0,0,0.75,0,0)"/>
<path style="fill:none;stroke-width:2;stroke-linecap:butt;stroke-linejoin:miter;stroke:rgb(100%,0%,0%);stroke-opacity:1;stroke-miterlimit:4;" d="M 348.197917 274.302083 L 360.197917 285.401042 " transform="matrix(0.75,0,0,0.75,0,0)"/>
<path style="fill:none;stroke-width:2;stroke-linecap:butt;stroke-linejoin:miter;stroke:rgb(0%,0%,0%);stroke-opacity:1;stroke-miterlimit:4;" d="M 360.197917 285.401042 L 372.302083 296.5 " transform="matrix(0.75,0,0,0.75,0,0)"/>
<path style="fill-rule:evenodd;fill:rgb(0%,0%,0%);fill-opacity:1;stroke-width:1;stroke-linecap:butt;stroke-linejoin:miter;stroke:rgb(0%,0%,0%);stroke-opacity:1;stroke-miterlimit:4;" d="M 372.302083 296.5 L 367.197917 338.401042 L 359 336.598958 Z M 372.302083 296.5 " transform="matrix(0.75,0,0,0.75,0,0)"/>
<path style="fill:none;stroke-width:2;stroke-linecap:butt;stroke-linejoin:miter;stroke:rgb(0%,0%,0%);stroke-opacity:1;stroke-miterlimit:4;" d="M 363.098958 337.5 L 375.598958 349 " transform="matrix(0.75,0,0,0.75,0,0)"/>
<path style="fill:none;stroke-width:2;stroke-linecap:butt;stroke-linejoin:miter;stroke:rgb(0%,0%,100%);stroke-opacity:1;stroke-miterlimit:4;" d="M 375.598958 349 L 388.098958 360.5 " transform="matrix(0.75,0,0,0.75,0,0)"/>
<path style="fill:none;stroke-width:2;stroke-linecap:butt;stroke-linejoin:miter;stroke:rgb(0%,0%,0%);stroke-opacity:1;stroke-miterlimit:4;" d="M 372.302083 296.5 L 412.401042 283.901042 " transform="matrix(0.75,0,0,0.75,0,0)"/>
<path style="fill:none;stroke-width:1;stroke-linecap:butt;stroke-linejoin:miter;stroke:rgb(0%,0%,0%);stroke-opacity:1;stroke-miterlimit:4;" d="M 415.697917 287.901042 L 416.598958 286.901042 " transform="matrix(0.75,0,0,0.75,0,0)"/>
<path style="fill:none;stroke-width:1;stroke-linecap:butt;stroke-linejoin:miter;stroke:rgb(0%,0%,0%);stroke-opacity:1;stroke-miterlimit:4;" d="M 419 291.901042 L 420.901042 289.901042 " transform="matrix(0.75,0,0,0.75,0,0)"/>
<path style="fill:none;stroke-width:1;stroke-linecap:butt;stroke-linejoin:miter;stroke:rgb(0%,0%,0%);stroke-opacity:1;stroke-miterlimit:4;" d="M 422.302083 295.901042 L 425.098958 292.802083 " transform="matrix(0.75,0,0,0.75,0,0)"/>
<path style="fill:none;stroke-width:1;stroke-linecap:butt;stroke-linejoin:miter;stroke:rgb(100%,0%,0%);stroke-opacity:1;stroke-miterlimit:4;" d="M 425.598958 299.901042 L 429.401042 295.802083 " transform="matrix(0.75,0,0,0.75,0,0)"/>
<path style="fill:none;stroke-width:1;stroke-linecap:butt;stroke-linejoin:miter;stroke:rgb(100%,0%,0%);stroke-opacity:1;stroke-miterlimit:4;" d="M 428.901042 303.901042 L 433.598958 298.802083 " transform="matrix(0.75,0,0,0.75,0,0)"/>
<path style="fill:none;stroke-width:1;stroke-linecap:butt;stroke-linejoin:miter;stroke:rgb(100%,0%,0%);stroke-opacity:1;stroke-miterlimit:4;" d="M 432.197917 307.901042 L 437.901042 301.697917 " transform="matrix(0.75,0,0,0.75,0,0)"/>
<path style="fill:none;stroke-width:2;stroke-linecap:butt;stroke-linejoin:miter;stroke:rgb(0%,0%,0%);stroke-opacity:1;stroke-miterlimit:4;" d="M 412.401042 283.901042 L 421.598958 242.901042 " transform="matrix(0.75,0,0,0.75,0,0)"/>
<path style="fill-rule:evenodd;fill:rgb(0%,0%,0%);fill-opacity:1;stroke-width:1;stroke-linecap:butt;stroke-linejoin:miter;stroke:rgb(0%,0%,0%);stroke-opacity:1;stroke-miterlimit:4;" d="M 421.598958 242.901042 L 436.901042 235.901042 L 438.098958 240 Z M 421.598958 242.901042 " transform="matrix(0.75,0,0,0.75,0,0)"/>
<path style="fill-rule:evenodd;fill:rgb(100%,0%,0%);fill-opacity:1;stroke-width:1;stroke-linecap:butt;stroke-linejoin:miter;stroke:rgb(100%,0%,0%);stroke-opacity:1;stroke-miterlimit:4;" d="M 436.901042 235.901042 L 454.697917 237 L 452.197917 229 Z M 436.901042 235.901042 " transform="matrix(0.75,0,0,0.75,0,0)"/>
<path style="fill-rule:evenodd;fill:rgb(100%,0%,0%);fill-opacity:1;stroke-width:1;stroke-linecap:butt;stroke-linejoin:miter;stroke:rgb(100%,0%,0%);stroke-opacity:1;stroke-miterlimit:4;" d="M 436.901042 235.901042 L 438.098958 240 L 454.697917 237 Z M 436.901042 235.901042 " transform="matrix(0.75,0,0,0.75,0,0)"/>
<path style="fill:none;stroke-width:2;stroke-linecap:butt;stroke-linejoin:miter;stroke:rgb(0%,0%,0%);stroke-opacity:1;stroke-miterlimit:4;" d="M 421.598958 242.901042 L 390.598958 214.5 " transform="matrix(0.75,0,0,0.75,0,0)"/>
<path style="fill:none;stroke-width:1;stroke-linecap:butt;stroke-linejoin:miter;stroke:rgb(0%,0%,0%);stroke-opacity:1;stroke-miterlimit:4;" d="M 392.5 209.302083 L 391.197917 209 " transform="matrix(0.75,0,0,0.75,0,0)"/>
<path style="fill:none;stroke-width:1;stroke-linecap:butt;stroke-linejoin:miter;stroke:rgb(0%,0%,0%);stroke-opacity:1;stroke-miterlimit:4;" d="M 394.401042 204.098958 L 391.697917 203.5 " transform="matrix(0.75,0,0,0.75,0,0)"/>
<path style="fill:none;stroke-width:1;stroke-linecap:butt;stroke-linejoin:miter;stroke:rgb(0%,0%,0%);stroke-opacity:1;stroke-miterlimit:4;" d="M 396.302083 198.901042 L 392.197917 198 " transform="matrix(0.75,0,0,0.75,0,0)"/>
<path style="fill:none;stroke-width:1;stroke-linecap:butt;stroke-linejoin:miter;stroke:rgb(100%,0%,0%);stroke-opacity:1;stroke-miterlimit:4;" d="M 398.197917 193.697917 L 392.697917 192.5 " transform="matrix(0.75,0,0,0.75,0,0)"/>
<path style="fill:none;stroke-width:1;stroke-linecap:butt;stroke-linejoin:miter;stroke:rgb(100%,0%,0%);stroke-opacity:1;stroke-miterlimit:4;" d="M 400 188.598958 L 393.197917 187 " transform="matrix(0.75,0,0,0.75,0,0)"/>
<path style="fill:none;stroke-width:1;stroke-linecap:butt;stroke-linejoin:miter;stroke:rgb(100%,0%,0%);stroke-opacity:1;stroke-miterlimit:4;" d="M 401.901042 183.401042 L 393.697917 181.5 " transform="matrix(0.75,0,0,0.75,0,0)"/>
<path style="fill:none;stroke-width:2;stroke-linecap:butt;stroke-linejoin:miter;stroke:rgb(0%,0%,0%);stroke-opacity:1;stroke-miterlimit:4;" d="M 279.5 211.098958 L 270.302083 252.098958 " transform="matrix(0.75,0,0,0.75,0,0)"/>
<path style="fill:none;stroke-width:1;stroke-linecap:butt;stroke-linejoin:miter;stroke:rgb(0%,0%,0%);stroke-opacity:1;stroke-miterlimit:4;" d="M 273.598958 256.098958 L 274.598958 255.098958 " transform="matrix(0.75,0,0,0.75,0,0)"/>
<path style="fill:none;stroke-width:1;stroke-linecap:butt;stroke-linejoin:miter;stroke:rgb(0%,0%,0%);stroke-opacity:1;stroke-miterlimit:4;" d="M 277 260.098958 L 278.901042 258 " transform="matrix(0.75,0,0,0.75,0,0)"/>
<path style="fill:none;stroke-width:1;stroke-linecap:butt;stroke-linejoin:miter;stroke:rgb(0%,0%,0%);stroke-opacity:1;stroke-miterlimit:4;" d="M 280.302083 264.098958 L 283.098958 261 " transform="matrix(0.75,0,0,0.75,0,0)"/>
<path style="fill:none;stroke-width:1;stroke-linecap:butt;stroke-linejoin:miter;stroke:rgb(100%,0%,0%);stroke-opacity:1;stroke-miterlimit:4;" d="M 283.598958 268.098958 L 287.401042 264 " transform="matrix(0.75,0,0,0.75,0,0)"/>
<path style="fill:none;stroke-width:1;stroke-linecap:butt;stroke-linejoin:miter;stroke:rgb(100%,0%,0%);stroke-opacity:1;stroke-miterlimit:4;" d="M 286.901042 272.098958 L 291.598958 266.901042 " transform="matrix(0.75,0,0,0.75,0,0)"/>
<path style="fill:none;stroke-width:1;stroke-linecap:butt;stroke-linejoin:miter;stroke:rgb(100%,0%,0%);stroke-opacity:1;stroke-miterlimit:4;" d="M 290.197917 276.098958 L 295.901042 269.901042 " transform="matrix(0.75,0,0,0.75,0,0)"/>
<path style="fill:none;stroke-width:2;stroke-linecap:butt;stroke-linejoin:miter;stroke:rgb(0%,0%,0%);stroke-opacity:1;stroke-miterlimit:4;" d="M 270.302083 252.098958 L 230.197917 264.598958 " transform="matrix(0.75,0,0,0.75,0,0)"/>
<path style="fill-rule:evenodd;fill:rgb(0%,0%,0%);fill-opacity:1;stroke-width:1;stroke-linecap:butt;stroke-linejoin:miter;stroke:rgb(0%,0%,0%);stroke-opacity:1;stroke-miterlimit:4;" d="M 230.197917 264.598958 L 228.697917 281.197917 L 224.598958 280.302083 Z M 230.197917 264.598958 " transform="matrix(0.75,0,0,0.75,0,0)"/>
<path style="fill-rule:evenodd;fill:rgb(100%,0%,0%);fill-opacity:1;stroke-width:1;stroke-linecap:butt;stroke-linejoin:miter;stroke:rgb(100%,0%,0%);stroke-opacity:1;stroke-miterlimit:4;" d="M 228.697917 281.197917 L 218.901042 295.901042 L 227.098958 297.802083 Z M 228.697917 281.197917 " transform="matrix(0.75,0,0,0.75,0,0)"/>
<path style="fill-rule:evenodd;fill:rgb(100%,0%,0%);fill-opacity:1;stroke-width:1;stroke-linecap:butt;stroke-linejoin:miter;stroke:rgb(100%,0%,0%);stroke-opacity:1;stroke-miterlimit:4;" d="M 228.697917 281.197917 L 224.598958 280.302083 L 218.901042 295.901042 Z M 228.697917 281.197917 " transform="matrix(0.75,0,0,0.75,0,0)"/>
<path style="fill:none;stroke-width:1;stroke-linecap:butt;stroke-linejoin:miter;stroke:rgb(0%,0%,0%);stroke-opacity:1;stroke-miterlimit:4;" d="M 186.5 317.197917 L 186.098958 315.802083 " transform="matrix(0.75,0,0,0.75,0,0)"/>
<path style="fill:none;stroke-width:1;stroke-linecap:butt;stroke-linejoin:miter;stroke:rgb(0%,0%,0%);stroke-opacity:1;stroke-miterlimit:4;" d="M 192 316.197917 L 191.197917 313.5 " transform="matrix(0.75,0,0,0.75,0,0)"/>
<path style="fill:none;stroke-width:1;stroke-linecap:butt;stroke-linejoin:miter;stroke:rgb(0%,0%,0%);stroke-opacity:1;stroke-miterlimit:4;" d="M 197.5 315.197917 L 196.302083 311.197917 " transform="matrix(0.75,0,0,0.75,0,0)"/>
<path style="fill:none;stroke-width:1;stroke-linecap:butt;stroke-linejoin:miter;stroke:rgb(100%,0%,0%);stroke-opacity:1;stroke-miterlimit:4;" d="M 203 314.197917 L 201.401042 308.901042 " transform="matrix(0.75,0,0,0.75,0,0)"/>
<path style="fill:none;stroke-width:1;stroke-linecap:butt;stroke-linejoin:miter;stroke:rgb(100%,0%,0%);stroke-opacity:1;stroke-miterlimit:4;" d="M 208.598958 313.197917 L 206.5 306.5 " transform="matrix(0.75,0,0,0.75,0,0)"/>
<path style="fill:none;stroke-width:1;stroke-linecap:butt;stroke-linejoin:miter;stroke:rgb(100%,0%,0%);stroke-opacity:1;stroke-miterlimit:4;" d="M 214.098958 312.197917 L 211.598958 304.197917 " transform="matrix(0.75,0,0,0.75,0,0)"/>
<path style="fill:none;stroke-width:2;stroke-linecap:butt;stroke-linejoin:miter;stroke:rgb(0%,0%,0%);stroke-opacity:1;stroke-miterlimit:4;" d="M 181 318.197917 L 168.901042 307.098958 " transform="matrix(0.75,0,0,0.75,0,0)"/>
<path style="fill:none;stroke-width:2;stroke-linecap:butt;stroke-linejoin:miter;stroke:rgb(100%,0%,0%);stroke-opacity:1;stroke-miterlimit:4;" d="M 168.901042 307.098958 L 156.901042 296 " transform="matrix(0.75,0,0,0.75,0,0)"/>
<path style="fill:none;stroke-width:2;stroke-linecap:butt;stroke-linejoin:miter;stroke:rgb(100%,0%,0%);stroke-opacity:1;stroke-miterlimit:4;" d="M 143.197917 291.901042 L 126.598958 297.098958 " transform="matrix(0.75,0,0,0.75,0,0)"/>
<path style="fill:none;stroke-width:2;stroke-linecap:butt;stroke-linejoin:miter;stroke:rgb(0%,0%,0%);stroke-opacity:1;stroke-miterlimit:4;" d="M 126.598958 297.098958 L 109.901042 302.302083 " transform="matrix(0.75,0,0,0.75,0,0)"/>
<path style="fill-rule:evenodd;fill:rgb(0%,0%,0%);fill-opacity:1;stroke-width:1;stroke-linecap:butt;stroke-linejoin:miter;stroke:rgb(0%,0%,0%);stroke-opacity:1;stroke-miterlimit:4;" d="M 109.901042 302.302083 L 76.197917 276.901042 L 81.901042 270.697917 Z M 109.901042 302.302083 " transform="matrix(0.75,0,0,0.75,0,0)"/>
<path style="fill:none;stroke-width:2;stroke-linecap:butt;stroke-linejoin:miter;stroke:rgb(0%,0%,0%);stroke-opacity:1;stroke-miterlimit:4;" d="M 79 273.802083 L 62.401042 279 " transform="matrix(0.75,0,0,0.75,0,0)"/>
<path style="fill:none;stroke-width:2;stroke-linecap:butt;stroke-linejoin:miter;stroke:rgb(100%,0%,0%);stroke-opacity:1;stroke-miterlimit:4;" d="M 62.401042 279 L 45.802083 284.197917 " transform="matrix(0.75,0,0,0.75,0,0)"/>
<path style="fill:none;stroke-width:2;stroke-linecap:butt;stroke-linejoin:miter;stroke:rgb(0%,0%,0%);stroke-opacity:1;stroke-miterlimit:4;" d="M 109.901042 302.302083 L 100.697917 343.302083 " transform="matrix(0.75,0,0,0.75,0,0)"/>
<path style="fill:none;stroke-width:1;stroke-linecap:butt;stroke-linejoin:miter;stroke:rgb(0%,0%,0%);stroke-opacity:1;stroke-miterlimit:4;" d="M 95.197917 344.197917 L 95.598958 345.598958 " transform="matrix(0.75,0,0,0.75,0,0)"/>
<path style="fill:none;stroke-width:1;stroke-linecap:butt;stroke-linejoin:miter;stroke:rgb(0%,0%,0%);stroke-opacity:1;stroke-miterlimit:4;" d="M 89.697917 345.197917 L 90.5 347.901042 " transform="matrix(0.75,0,0,0.75,0,0)"/>
<path style="fill:none;stroke-width:1;stroke-linecap:butt;stroke-linejoin:miter;stroke:rgb(0%,0%,0%);stroke-opacity:1;stroke-miterlimit:4;" d="M 84.197917 346.197917 L 85.401042 350.197917 " transform="matrix(0.75,0,0,0.75,0,0)"/>
<path style="fill:none;stroke-width:1;stroke-linecap:butt;stroke-linejoin:miter;stroke:rgb(100%,0%,0%);stroke-opacity:1;stroke-miterlimit:4;" d="M 78.697917 347.197917 L 80.302083 352.598958 " transform="matrix(0.75,0,0,0.75,0,0)"/>
<path style="fill:none;stroke-width:1;stroke-linecap:butt;stroke-linejoin:miter;stroke:rgb(100%,0%,0%);stroke-opacity:1;stroke-miterlimit:4;" d="M 73.098958 348.197917 L 75.197917 354.901042 " transform="matrix(0.75,0,0,0.75,0,0)"/>
<path style="fill:none;stroke-width:1;stroke-linecap:butt;stroke-linejoin:miter;stroke:rgb(100%,0%,0%);stroke-opacity:1;stroke-miterlimit:4;" d="M 67.598958 349.197917 L 70.098958 357.197917 " transform="matrix(0.75,0,0,0.75,0,0)"/>
<path style="fill:none;stroke-width:2;stroke-linecap:butt;stroke-linejoin:miter;stroke:rgb(0%,0%,0%);stroke-opacity:1;stroke-miterlimit:4;" d="M 100.697917 343.302083 L 131.697917 371.697917 " transform="matrix(0.75,0,0,0.75,0,0)"/>
<path style="fill-rule:evenodd;fill:rgb(0%,0%,0%);fill-opacity:1;stroke-width:1;stroke-linecap:butt;stroke-linejoin:miter;stroke:rgb(0%,0%,0%);stroke-opacity:1;stroke-miterlimit:4;" d="M 131.697917 371.697917 L 130.098958 388.302083 L 126 387.401042 Z M 131.697917 371.697917 " transform="matrix(0.75,0,0,0.75,0,0)"/>
<path style="fill-rule:evenodd;fill:rgb(0%,0%,100%);fill-opacity:1;stroke-width:1;stroke-linecap:butt;stroke-linejoin:miter;stroke:rgb(0%,0%,100%);stroke-opacity:1;stroke-miterlimit:4;" d="M 130.098958 388.302083 L 120.302083 403.098958 L 128.5 404.901042 Z M 130.098958 388.302083 " transform="matrix(0.75,0,0,0.75,0,0)"/>
<path style="fill-rule:evenodd;fill:rgb(0%,0%,100%);fill-opacity:1;stroke-width:1;stroke-linecap:butt;stroke-linejoin:miter;stroke:rgb(0%,0%,100%);stroke-opacity:1;stroke-miterlimit:4;" d="M 130.098958 388.302083 L 126 387.401042 L 120.302083 403.098958 Z M 130.098958 388.302083 " transform="matrix(0.75,0,0,0.75,0,0)"/>
<path style="fill:none;stroke-width:2;stroke-linecap:butt;stroke-linejoin:miter;stroke:rgb(0%,0%,0%);stroke-opacity:1;stroke-miterlimit:4;" d="M 131.697917 371.697917 L 171.802083 359.197917 " transform="matrix(0.75,0,0,0.75,0,0)"/>
<path style="fill:none;stroke-width:1;stroke-linecap:butt;stroke-linejoin:miter;stroke:rgb(0%,0%,0%);stroke-opacity:1;stroke-miterlimit:4;" d="M 175.098958 363.197917 L 176 362.098958 " transform="matrix(0.75,0,0,0.75,0,0)"/>
<path style="fill:none;stroke-width:1;stroke-linecap:butt;stroke-linejoin:miter;stroke:rgb(0%,0%,0%);stroke-opacity:1;stroke-miterlimit:4;" d="M 178.401042 367.197917 L 180.302083 365.098958 " transform="matrix(0.75,0,0,0.75,0,0)"/>
<path style="fill:none;stroke-width:1;stroke-linecap:butt;stroke-linejoin:miter;stroke:rgb(0%,0%,0%);stroke-opacity:1;stroke-miterlimit:4;" d="M 181.697917 371.197917 L 184.5 368.098958 " transform="matrix(0.75,0,0,0.75,0,0)"/>
<path style="fill:none;stroke-width:1;stroke-linecap:butt;stroke-linejoin:miter;stroke:rgb(100%,0%,0%);stroke-opacity:1;stroke-miterlimit:4;" d="M 185 375.098958 L 188.802083 371 " transform="matrix(0.75,0,0,0.75,0,0)"/>
<path style="fill:none;stroke-width:1;stroke-linecap:butt;stroke-linejoin:miter;stroke:rgb(100%,0%,0%);stroke-opacity:1;stroke-miterlimit:4;" d="M 188.302083 379.098958 L 193 374 " transform="matrix(0.75,0,0,0.75,0,0)"/>
<path style="fill:none;stroke-width:1;stroke-linecap:butt;stroke-linejoin:miter;stroke:rgb(100%,0%,0%);stroke-opacity:1;stroke-miterlimit:4;" d="M 191.598958 383.098958 L 197.302083 377 " transform="matrix(0.75,0,0,0.75,0,0)"/>
<path style="fill:none;stroke-width:2;stroke-linecap:butt;stroke-linejoin:miter;stroke:rgb(0%,0%,0%);stroke-opacity:1;stroke-miterlimit:4;" d="M 230.197917 264.598958 L 199.302083 236.197917 " transform="matrix(0.75,0,0,0.75,0,0)"/>
<path style="fill:none;stroke-width:2;stroke-linecap:butt;stroke-linejoin:miter;stroke:rgb(0%,0%,0%);stroke-opacity:1;stroke-miterlimit:4;" d="M 171.802083 359.197917 L 181 318.197917 " transform="matrix(0.75,0,0,0.75,0,0)"/>
<path style="fill:none;stroke-width:2;stroke-linecap:butt;stroke-linejoin:miter;stroke:rgb(0%,0%,0%);stroke-opacity:1;stroke-miterlimit:4;" d="M 390.598958 214.5 L 350.5 227 " transform="matrix(0.75,0,0,0.75,0,0)"/>
<path style=" stroke:none;fill-rule:nonzero;fill:rgb(0%,0%,100%);fill-opacity:1;" d="M 47.773438 56.550781 L 48.976562 56.550781 L 48.976562 60.375 L 53.550781 60.375 L 53.550781 56.550781 L 54.75 56.550781 L 54.75 65.476562 L 53.550781 65.476562 L 53.550781 61.351562 L 48.976562 61.351562 L 48.976562 65.476562 L 47.773438 65.476562 L 47.773438 56.550781 "/>
<path style=" stroke:none;fill-rule:nonzero;fill:rgb(0%,0%,100%);fill-opacity:1;" d="M 55.800781 65.175781 C 55.949219 64.773438 56.199219 64.476562 56.550781 64.273438 C 56.898438 64.074219 57.324219 63.976562 57.824219 63.976562 C 58.375 63.976562 58.824219 64.125 59.175781 64.425781 C 59.523438 64.773438 59.699219 65.226562 59.699219 65.773438 C 59.699219 66.375 59.476562 66.949219 59.023438 67.5 C 58.625 68.050781 57.976562 68.648438 57.074219 69.300781 L 59.773438 69.300781 L 59.773438 69.898438 L 55.800781 69.898438 L 55.800781 69.375 C 56.550781 68.875 57.125 68.425781 57.523438 68.023438 C 57.976562 67.625 58.300781 67.25 58.5 66.898438 C 58.75 66.550781 58.875 66.199219 58.875 65.851562 C 58.875 65.449219 58.773438 65.148438 58.574219 64.949219 C 58.375 64.75 58.125 64.648438 57.824219 64.648438 C 57.476562 64.648438 57.199219 64.699219 57 64.800781 C 56.800781 64.949219 56.625 65.175781 56.476562 65.476562 L 55.800781 65.175781 "/>
<path style=" stroke:none;fill-rule:nonzero;fill:rgb(0%,0%,100%);fill-opacity:1;" d="M 61.726562 56.550781 L 64.648438 61.273438 C 64.800781 61.574219 65.050781 62 65.398438 62.550781 C 65.699219 63.148438 65.851562 63.449219 65.851562 63.449219 L 65.851562 56.550781 L 67.050781 56.550781 L 67.050781 65.476562 L 65.851562 65.476562 L 62.699219 60.300781 C 62.449219 59.898438 62.199219 59.476562 61.949219 59.023438 C 61.699219 58.523438 61.523438 58.226562 61.425781 58.125 L 61.425781 65.476562 L 60.300781 65.476562 L 60.300781 56.550781 L 61.726562 56.550781 "/>
<path style=" stroke:none;fill-rule:nonzero;fill:rgb(100%,0%,0%);fill-opacity:1;" d="M 129.148438 125.101562 C 129.148438 123.648438 129.5 122.523438 130.199219 121.726562 C 130.898438 120.925781 131.898438 120.523438 133.199219 120.523438 C 134.550781 120.523438 135.574219 120.925781 136.273438 121.726562 C 136.976562 122.523438 137.324219 123.648438 137.324219 125.101562 C 137.324219 126.5 136.949219 127.625 136.199219 128.476562 C 135.5 129.273438 134.5 129.675781 133.199219 129.675781 C 131.898438 129.675781 130.898438 129.273438 130.199219 128.476562 C 129.5 127.675781 129.148438 126.550781 129.148438 125.101562 M 133.199219 128.699219 C 134.101562 128.699219 134.800781 128.398438 135.300781 127.800781 C 135.800781 127.148438 136.050781 126.25 136.050781 125.101562 C 136.050781 123.898438 135.800781 123 135.300781 122.398438 C 134.800781 121.800781 134.101562 121.5 133.199219 121.5 C 132.300781 121.5 131.601562 121.800781 131.101562 122.398438 C 130.601562 123 130.351562 123.898438 130.351562 125.101562 C 130.351562 126.300781 130.601562 127.199219 131.101562 127.800781 C 131.601562 128.398438 132.300781 128.699219 133.199219 128.699219 "/>
<path style=" stroke:none;fill-rule:nonzero;fill:rgb(100%,0%,0%);fill-opacity:1;" d="M 137.925781 120.601562 L 139.125 120.601562 L 139.125 124.425781 L 143.699219 124.425781 L 143.699219 120.601562 L 144.898438 120.601562 L 144.898438 129.523438 L 143.699219 129.523438 L 143.699219 125.398438 L 139.125 125.398438 L 139.125 129.523438 L 137.925781 129.523438 L 137.925781 120.601562 "/>
<path style=" stroke:none;fill-rule:nonzero;fill:rgb(100%,0%,0%);fill-opacity:1;" d="M 62.101562 174.601562 C 62.101562 173.199219 62.449219 172.101562 63.148438 171.300781 C 63.851562 170.5 64.851562 170.101562 66.148438 170.101562 C 67.5 170.101562 68.523438 170.5 69.226562 171.300781 C 69.925781 172.101562 70.273438 173.199219 70.273438 174.601562 C 70.273438 176.050781 69.925781 177.199219 69.226562 178.050781 C 68.476562 178.851562 67.449219 179.25 66.148438 179.25 C 64.851562 179.25 63.851562 178.851562 63.148438 178.050781 C 62.449219 177.199219 62.101562 176.050781 62.101562 174.601562 M 66.148438 178.273438 C 67.050781 178.273438 67.75 177.949219 68.25 177.300781 C 68.75 176.699219 69 175.800781 69 174.601562 C 69 173.449219 68.75 172.574219 68.25 171.976562 C 67.75 171.375 67.050781 171.074219 66.148438 171.074219 C 65.25 171.074219 64.550781 171.375 64.050781 171.976562 C 63.550781 172.574219 63.300781 173.449219 63.300781 174.601562 C 63.300781 175.800781 63.550781 176.699219 64.050781 177.300781 C 64.550781 177.949219 65.25 178.273438 66.148438 178.273438 "/>
<path style=" stroke:none;fill-rule:nonzero;fill:rgb(0%,0%,100%);fill-opacity:1;" d="M 117.449219 182.101562 L 120.375 186.824219 C 120.574219 187.125 120.824219 187.550781 121.125 188.101562 C 121.425781 188.648438 121.601562 188.949219 121.648438 189 L 121.648438 182.101562 L 122.773438 182.101562 L 122.773438 191.023438 L 121.574219 191.023438 L 118.425781 185.851562 C 118.175781 185.449219 117.925781 185 117.675781 184.5 C 117.425781 184.050781 117.273438 183.75 117.226562 183.601562 L 117.226562 191.023438 L 116.023438 191.023438 L 116.023438 182.101562 L 117.449219 182.101562 "/>
<path style=" stroke:none;fill-rule:nonzero;fill:rgb(0%,0%,100%);fill-opacity:1;" d="M 115.949219 191.925781 L 117.148438 191.925781 L 117.148438 195.675781 L 121.726562 195.675781 L 121.726562 191.925781 L 122.925781 191.925781 L 122.925781 200.851562 L 121.726562 200.851562 L 121.726562 196.726562 L 117.148438 196.726562 L 117.148438 200.851562 L 115.949219 200.851562 L 115.949219 191.925781 "/>
<path style=" stroke:none;fill-rule:nonzero;fill:rgb(0%,0%,100%);fill-opacity:1;" d="M 191.398438 101.773438 L 194.324219 106.5 C 194.523438 106.800781 194.773438 107.226562 195.074219 107.773438 C 195.375 108.375 195.523438 108.675781 195.523438 108.675781 L 195.523438 101.773438 L 196.726562 101.773438 L 196.726562 110.699219 L 195.523438 110.699219 L 192.375 105.523438 C 192.125 105.125 191.875 104.699219 191.625 104.25 C 191.375 103.75 191.226562 103.449219 191.175781 103.351562 L 191.175781 110.699219 L 189.976562 110.699219 L 189.976562 101.773438 L 191.398438 101.773438 "/>
<path style=" stroke:none;fill-rule:nonzero;fill:rgb(0%,0%,100%);fill-opacity:1;" d="M 197.773438 101.773438 L 198.976562 101.773438 L 198.976562 105.523438 L 203.550781 105.523438 L 203.550781 101.773438 L 204.75 101.773438 L 204.75 110.699219 L 203.550781 110.699219 L 203.550781 106.574219 L 198.976562 106.574219 L 198.976562 110.699219 L 197.773438 110.699219 L 197.773438 101.773438 "/>
<path style=" stroke:none;fill-rule:nonzero;fill:rgb(0%,0%,100%);fill-opacity:1;" d="M 205.875 110.398438 C 206.023438 110 206.273438 109.699219 206.625 109.5 C 206.925781 109.300781 207.324219 109.199219 207.824219 109.199219 C 208.425781 109.199219 208.898438 109.351562 209.25 109.648438 C 209.550781 110 209.699219 110.449219 209.699219 111 C 209.699219 111.601562 209.5 112.175781 209.101562 112.726562 C 208.648438 113.273438 207.976562 113.875 207.074219 114.523438 L 209.851562 114.523438 L 209.851562 115.125 L 205.875 115.125 L 205.875 114.601562 C 206.574219 114.101562 207.148438 113.648438 207.601562 113.25 C 208.050781 112.851562 208.375 112.476562 208.574219 112.125 C 208.773438 111.773438 208.875 111.425781 208.875 111.074219 C 208.875 110.675781 208.773438 110.375 208.574219 110.175781 C 208.425781 109.976562 208.175781 109.875 207.824219 109.875 C 207.523438 109.875 207.25 109.925781 207 110.023438 C 206.800781 110.175781 206.625 110.398438 206.476562 110.699219 L 205.875 110.398438 "/>
<path style=" stroke:none;fill-rule:nonzero;fill:rgb(100%,0%,0%);fill-opacity:1;" d="M 235.648438 148.949219 C 235.648438 147.5 236 146.375 236.699219 145.574219 C 237.398438 144.773438 238.398438 144.375 239.699219 144.375 C 241.050781 144.375 242.074219 144.773438 242.773438 145.574219 C 243.476562 146.375 243.824219 147.5 243.824219 148.949219 C 243.824219 150.398438 243.476562 151.523438 242.773438 152.324219 C 242.023438 153.175781 241 153.601562 239.699219 153.601562 C 238.398438 153.601562 237.398438 153.175781 236.699219 152.324219 C 236 151.523438 235.648438 150.398438 235.648438 148.949219 M 239.699219 152.550781 C 240.648438 152.550781 241.351562 152.25 241.800781 151.648438 C 242.300781 151.050781 242.550781 150.148438 242.550781 148.949219 C 242.550781 147.800781 242.300781 146.925781 241.800781 146.324219 C 241.351562 145.726562 240.648438 145.425781 239.699219 145.425781 C 238.800781 145.425781 238.101562 145.726562 237.601562 146.324219 C 237.148438 146.875 236.925781 147.75 236.925781 148.949219 C 236.925781 150.148438 237.148438 151.050781 237.601562 151.648438 C 238.101562 152.25 238.800781 152.550781 239.699219 152.550781 "/>
<path style=" stroke:none;fill-rule:nonzero;fill:rgb(100%,0%,0%);fill-opacity:1;" d="M 251.925781 201 C 251.925781 199.601562 252.273438 198.5 252.976562 197.699219 C 253.675781 196.898438 254.699219 196.5 256.050781 196.5 C 257.351562 196.5 258.351562 196.898438 259.050781 197.699219 C 259.75 198.5 260.101562 199.601562 260.101562 201 C 260.101562 202.449219 259.75 203.601562 259.050781 204.449219 C 258.351562 205.25 257.351562 205.648438 256.050781 205.648438 C 254.699219 205.648438 253.675781 205.25 252.976562 204.449219 C 252.273438 203.648438 251.925781 202.5 251.925781 201 M 256.050781 204.675781 C 256.949219 204.675781 257.625 204.375 258.074219 203.773438 C 258.574219 203.125 258.824219 202.199219 258.824219 201 C 258.824219 199.851562 258.574219 198.976562 258.074219 198.375 C 257.625 197.773438 256.949219 197.476562 256.050781 197.476562 C 255.101562 197.476562 254.375 197.773438 253.875 198.375 C 253.425781 198.976562 253.199219 199.851562 253.199219 201 C 253.199219 202.25 253.425781 203.175781 253.875 203.773438 C 254.375 204.375 255.101562 204.675781 256.050781 204.675781 "/>
<path style=" stroke:none;fill-rule:nonzero;fill:rgb(0%,0%,100%);fill-opacity:1;" d="M 293.550781 270 L 296.476562 274.726562 C 296.625 275.023438 296.875 275.449219 297.226562 276 C 297.523438 276.601562 297.675781 276.898438 297.675781 276.898438 L 297.675781 270 L 298.875 270 L 298.875 278.925781 L 297.675781 278.925781 L 294.523438 273.75 C 294.273438 273.351562 294.023438 272.925781 293.773438 272.476562 C 293.523438 271.976562 293.351562 271.648438 293.25 271.5 L 293.25 278.925781 L 292.125 278.925781 L 292.125 270 L 293.550781 270 "/>
<path style=" stroke:none;fill-rule:nonzero;fill:rgb(0%,0%,100%);fill-opacity:1;" d="M 299.925781 270 L 301.125 270 L 301.125 273.75 L 305.699219 273.75 L 305.699219 270 L 306.898438 270 L 306.898438 278.925781 L 305.699219 278.925781 L 305.699219 274.800781 L 301.125 274.800781 L 301.125 278.925781 L 299.925781 278.925781 L 299.925781 270 "/>
<path style=" stroke:none;fill-rule:nonzero;fill:rgb(0%,0%,100%);fill-opacity:1;" d="M 308.023438 278.625 C 308.125 278.226562 308.351562 277.925781 308.699219 277.726562 C 309.050781 277.523438 309.476562 277.425781 309.976562 277.425781 C 310.574219 277.425781 311.023438 277.574219 311.324219 277.875 C 311.675781 278.226562 311.851562 278.675781 311.851562 279.226562 C 311.851562 279.824219 311.625 280.398438 311.175781 280.949219 C 310.773438 281.5 310.125 282.074219 309.226562 282.675781 L 311.925781 282.675781 L 311.925781 283.351562 L 307.949219 283.351562 L 307.949219 282.824219 C 308.699219 282.273438 309.300781 281.824219 309.75 281.476562 C 310.148438 281.074219 310.476562 280.699219 310.726562 280.351562 C 310.925781 280 311.023438 279.648438 311.023438 279.300781 C 311.023438 278.898438 310.925781 278.601562 310.726562 278.398438 C 310.523438 278.199219 310.273438 278.101562 309.976562 278.101562 C 309.625 278.101562 309.351562 278.148438 309.148438 278.25 C 308.949219 278.398438 308.773438 278.625 308.625 278.925781 L 308.023438 278.625 "/>
<path style=" stroke:none;fill-rule:nonzero;fill:rgb(100%,0%,0%);fill-opacity:1;" d="M 328.351562 234.300781 C 328.351562 232.898438 328.699219 231.800781 329.398438 231 C 330.101562 230.199219 331.125 229.800781 332.476562 229.800781 C 333.773438 229.800781 334.773438 230.199219 335.476562 231 C 336.175781 231.800781 336.523438 232.898438 336.523438 234.300781 C 336.523438 235.75 336.175781 236.898438 335.476562 237.75 C 334.773438 238.550781 333.773438 238.949219 332.476562 238.949219 C 331.175781 238.949219 330.148438 238.550781 329.398438 237.75 C 328.699219 236.898438 328.351562 235.75 328.351562 234.300781 M 332.476562 237.976562 C 333.375 237.976562 334.074219 237.648438 334.574219 237 C 335.074219 236.398438 335.324219 235.5 335.324219 234.300781 C 335.324219 233.148438 335.074219 232.273438 334.574219 231.675781 C 334.074219 231.074219 333.375 230.773438 332.476562 230.773438 C 331.574219 230.773438 330.875 231.074219 330.375 231.675781 C 329.875 232.273438 329.625 233.148438 329.625 234.300781 C 329.625 235.5 329.875 236.398438 330.375 237 C 330.875 237.648438 331.574219 237.976562 332.476562 237.976562 "/>
<path style=" stroke:none;fill-rule:nonzero;fill:rgb(100%,0%,0%);fill-opacity:1;" d="M 337.199219 229.875 L 338.398438 229.875 L 338.398438 233.699219 L 342.976562 233.699219 L 342.976562 229.875 L 344.175781 229.875 L 344.175781 238.800781 L 342.976562 238.800781 L 342.976562 234.675781 L 338.398438 234.675781 L 338.398438 238.800781 L 337.199219 238.800781 L 337.199219 229.875 "/>
<path style=" stroke:none;fill-rule:nonzero;fill:rgb(100%,0%,0%);fill-opacity:1;" d="M 342.148438 172.800781 C 342.148438 171.398438 342.5 170.300781 343.199219 169.5 C 343.898438 168.699219 344.925781 168.300781 346.273438 168.300781 C 347.574219 168.300781 348.574219 168.699219 349.273438 169.5 C 349.976562 170.300781 350.324219 171.398438 350.324219 172.800781 C 350.324219 174.25 349.976562 175.398438 349.273438 176.25 C 348.574219 177.050781 347.574219 177.449219 346.273438 177.449219 C 344.925781 177.449219 343.898438 177.050781 343.199219 176.25 C 342.5 175.398438 342.148438 174.25 342.148438 172.800781 M 346.273438 176.476562 C 347.175781 176.476562 347.851562 176.148438 348.300781 175.5 C 348.800781 174.898438 349.050781 174 349.050781 172.800781 C 349.050781 171.648438 348.800781 170.773438 348.300781 170.175781 C 347.851562 169.574219 347.175781 169.273438 346.273438 169.273438 C 345.324219 169.273438 344.625 169.574219 344.175781 170.175781 C 343.675781 170.773438 343.425781 171.648438 343.425781 172.800781 C 343.425781 174 343.675781 174.898438 344.175781 175.5 C 344.625 176.148438 345.324219 176.476562 346.273438 176.476562 "/>
<path style=" stroke:none;fill-rule:nonzero;fill:rgb(100%,0%,0%);fill-opacity:1;" d="M 351 168.375 L 352.199219 168.375 L 352.199219 172.199219 L 356.773438 172.199219 L 356.773438 168.375 L 357.976562 168.375 L 357.976562 177.300781 L 356.773438 177.300781 L 356.773438 173.175781 L 352.199219 173.175781 L 352.199219 177.300781 L 351 177.300781 L 351 168.375 "/>
<path style=" stroke:none;fill-rule:nonzero;fill:rgb(100%,0%,0%);fill-opacity:1;" d="M 295.800781 130.125 C 295.800781 128.726562 296.148438 127.625 296.851562 126.824219 C 297.550781 126.023438 298.550781 125.625 299.851562 125.625 C 301.199219 125.625 302.226562 126.023438 302.925781 126.824219 C 303.625 127.625 303.976562 128.726562 303.976562 130.125 C 303.976562 131.574219 303.625 132.699219 302.925781 133.5 C 302.175781 134.351562 301.148438 134.773438 299.851562 134.773438 C 298.550781 134.773438 297.550781 134.351562 296.851562 133.5 C 296.148438 132.699219 295.800781 131.574219 295.800781 130.125 M 299.851562 133.726562 C 300.800781 133.726562 301.5 133.425781 301.949219 132.824219 C 302.449219 132.226562 302.699219 131.324219 302.699219 130.125 C 302.699219 128.976562 302.449219 128.101562 301.949219 127.5 C 301.5 126.898438 300.800781 126.601562 299.851562 126.601562 C 298.949219 126.601562 298.25 126.898438 297.75 127.5 C 297.300781 128.101562 297.074219 128.976562 297.074219 130.125 C 297.074219 131.324219 297.300781 132.226562 297.75 132.824219 C 298.25 133.425781 298.949219 133.726562 299.851562 133.726562 "/>
<path style=" stroke:none;fill-rule:nonzero;fill:rgb(100%,0%,0%);fill-opacity:1;" d="M 304.574219 125.699219 L 305.851562 125.699219 L 305.851562 129.523438 L 310.351562 129.523438 L 310.351562 125.699219 L 311.625 125.699219 L 311.625 134.625 L 310.351562 134.625 L 310.351562 130.5 L 305.851562 130.5 L 305.851562 134.625 L 304.574219 134.625 L 304.574219 125.699219 "/>
<path style=" stroke:none;fill-rule:nonzero;fill:rgb(100%,0%,0%);fill-opacity:1;" d="M 221.851562 210.449219 C 221.851562 209 222.199219 207.875 222.898438 207.074219 C 223.601562 206.273438 224.625 205.875 225.976562 205.875 C 227.273438 205.875 228.273438 206.273438 228.976562 207.074219 C 229.675781 207.875 230.023438 209 230.023438 210.449219 C 230.023438 211.898438 229.675781 213.023438 228.976562 213.824219 C 228.273438 214.675781 227.273438 215.101562 225.976562 215.101562 C 224.625 215.101562 223.601562 214.675781 222.898438 213.824219 C 222.199219 213.023438 221.851562 211.898438 221.851562 210.449219 M 225.976562 214.050781 C 226.875 214.050781 227.550781 213.75 228 213.148438 C 228.5 212.550781 228.75 211.648438 228.75 210.449219 C 228.75 209.300781 228.5 208.425781 228 207.824219 C 227.550781 207.226562 226.875 206.925781 225.976562 206.925781 C 225.023438 206.925781 224.300781 207.226562 223.800781 207.824219 C 223.351562 208.375 223.125 209.25 223.125 210.449219 C 223.125 211.648438 223.351562 212.550781 223.800781 213.148438 C 224.300781 213.75 225.023438 214.050781 225.976562 214.050781 "/>
<path style=" stroke:none;fill-rule:nonzero;fill:rgb(100%,0%,0%);fill-opacity:1;" d="M 230.699219 206.023438 L 231.898438 206.023438 L 231.898438 209.773438 L 236.476562 209.773438 L 236.476562 206.023438 L 237.675781 206.023438 L 237.675781 214.949219 L 236.476562 214.949219 L 236.476562 210.824219 L 231.898438 210.824219 L 231.898438 214.949219 L 230.699219 214.949219 L 230.699219 206.023438 "/>
<path style=" stroke:none;fill-rule:nonzero;fill:rgb(100%,0%,0%);fill-opacity:1;" d="M 161.699219 229.273438 C 161.699219 227.824219 162.050781 226.699219 162.75 225.898438 C 163.449219 225.101562 164.476562 224.699219 165.824219 224.699219 C 167.125 224.699219 168.125 225.101562 168.824219 225.898438 C 169.523438 226.699219 169.875 227.824219 169.875 229.273438 C 169.875 230.726562 169.523438 231.851562 168.824219 232.648438 C 168.125 233.449219 167.125 233.851562 165.824219 233.851562 C 164.476562 233.851562 163.449219 233.449219 162.75 232.648438 C 162.050781 231.851562 161.699219 230.726562 161.699219 229.273438 M 165.824219 232.875 C 166.726562 232.875 167.398438 232.574219 167.851562 231.976562 C 168.351562 231.375 168.601562 230.476562 168.601562 229.273438 C 168.601562 228.074219 168.351562 227.199219 167.851562 226.648438 C 167.398438 226.050781 166.726562 225.75 165.824219 225.75 C 164.875 225.75 164.148438 226.023438 163.648438 226.574219 C 163.199219 227.175781 162.976562 228.074219 162.976562 229.273438 C 162.976562 230.476562 163.199219 231.375 163.648438 231.976562 C 164.148438 232.574219 164.875 232.875 165.824219 232.875 "/>
<path style=" stroke:none;fill-rule:nonzero;fill:rgb(100%,0%,0%);fill-opacity:1;" d="M 108.449219 217.273438 C 108.449219 215.875 108.800781 214.773438 109.5 213.976562 C 110.199219 213.175781 111.199219 212.773438 112.5 212.773438 C 113.851562 212.773438 114.875 213.175781 115.574219 213.976562 C 116.273438 214.773438 116.625 215.875 116.625 217.273438 C 116.625 218.726562 116.273438 219.875 115.574219 220.726562 C 114.824219 221.523438 113.800781 221.925781 112.5 221.925781 C 111.199219 221.925781 110.199219 221.523438 109.5 220.726562 C 108.800781 219.925781 108.449219 218.773438 108.449219 217.273438 M 112.5 220.949219 C 113.449219 220.949219 114.148438 220.648438 114.601562 220.050781 C 115.101562 219.398438 115.351562 218.476562 115.351562 217.273438 C 115.351562 216.125 115.101562 215.25 114.601562 214.648438 C 114.148438 214.050781 113.449219 213.75 112.5 213.75 C 111.601562 213.75 110.898438 214.050781 110.398438 214.648438 C 109.949219 215.25 109.726562 216.125 109.726562 217.273438 C 109.726562 218.523438 109.949219 219.449219 110.398438 220.050781 C 110.898438 220.648438 111.601562 220.949219 112.5 220.949219 "/>
<path style=" stroke:none;fill-rule:nonzero;fill:rgb(100%,0%,0%);fill-opacity:1;" d="M 17.023438 210.375 L 18.226562 210.375 L 18.226562 214.125 L 22.800781 214.125 L 22.800781 210.375 L 24 210.375 L 24 219.300781 L 22.800781 219.300781 L 22.800781 215.175781 L 18.226562 215.175781 L 18.226562 219.300781 L 17.023438 219.300781 L 17.023438 210.375 "/>
<path style=" stroke:none;fill-rule:nonzero;fill:rgb(100%,0%,0%);fill-opacity:1;" d="M 25.125 214.800781 C 25.125 213.351562 25.476562 212.226562 26.175781 211.425781 C 26.875 210.625 27.875 210.226562 29.175781 210.226562 C 30.523438 210.226562 31.550781 210.625 32.25 211.425781 C 32.949219 212.226562 33.300781 213.351562 33.300781 214.800781 C 33.300781 216.25 32.949219 217.375 32.25 218.175781 C 31.5 218.976562 30.476562 219.375 29.175781 219.375 C 27.875 219.375 26.875 218.976562 26.175781 218.175781 C 25.476562 217.375 25.125 216.25 25.125 214.800781 M 29.175781 218.398438 C 30.074219 218.398438 30.773438 218.101562 31.273438 217.5 C 31.773438 216.898438 32.023438 216 32.023438 214.800781 C 32.023438 213.601562 31.773438 212.726562 31.273438 212.175781 C 30.773438 211.574219 30.074219 211.273438 29.175781 211.273438 C 28.273438 211.273438 27.574219 211.550781 27.074219 212.101562 C 26.574219 212.699219 26.324219 213.601562 26.324219 214.800781 C 26.324219 216 26.574219 216.898438 27.074219 217.5 C 27.574219 218.101562 28.273438 218.398438 29.175781 218.398438 "/>
<path style=" stroke:none;fill-rule:nonzero;fill:rgb(100%,0%,0%);fill-opacity:1;" d="M 33.300781 262.425781 L 34.574219 262.425781 L 34.574219 266.25 L 39.074219 266.25 L 39.074219 262.425781 L 40.351562 262.425781 L 40.351562 271.351562 L 39.074219 271.351562 L 39.074219 267.226562 L 34.574219 267.226562 L 34.574219 271.351562 L 33.300781 271.351562 L 33.300781 262.425781 "/>
<path style=" stroke:none;fill-rule:nonzero;fill:rgb(100%,0%,0%);fill-opacity:1;" d="M 41.398438 266.851562 C 41.398438 265.449219 41.75 264.351562 42.449219 263.550781 C 43.148438 262.75 44.148438 262.351562 45.449219 262.351562 C 46.800781 262.351562 47.824219 262.75 48.523438 263.550781 C 49.226562 264.351562 49.574219 265.449219 49.574219 266.851562 C 49.574219 268.300781 49.226562 269.449219 48.523438 270.300781 C 47.824219 271.101562 46.800781 271.5 45.449219 271.5 C 44.148438 271.5 43.148438 271.101562 42.449219 270.300781 C 41.75 269.449219 41.398438 268.300781 41.398438 266.851562 M 45.449219 270.449219 C 46.398438 270.449219 47.101562 270.148438 47.550781 269.550781 C 48.050781 268.949219 48.300781 268.050781 48.300781 266.851562 C 48.300781 265.699219 48.050781 264.824219 47.550781 264.226562 C 47.101562 263.625 46.398438 263.324219 45.449219 263.324219 C 44.550781 263.324219 43.851562 263.625 43.351562 264.226562 C 42.898438 264.824219 42.675781 265.699219 42.675781 266.851562 C 42.675781 268.050781 42.898438 268.949219 43.351562 269.550781 C 43.851562 270.148438 44.550781 270.449219 45.449219 270.449219 "/>
<path style=" stroke:none;fill-rule:nonzero;fill:rgb(0%,0%,100%);fill-opacity:1;" d="M 89.851562 305.101562 L 92.773438 309.824219 C 92.976562 310.125 93.226562 310.550781 93.523438 311.101562 C 93.875 311.648438 94.050781 311.949219 94.050781 312 L 94.050781 305.101562 L 95.25 305.101562 L 95.25 314.023438 L 94.050781 314.023438 L 90.898438 308.851562 C 90.648438 308.449219 90.398438 308 90.148438 307.5 C 89.898438 307.050781 89.726562 306.75 89.625 306.601562 L 89.625 314.023438 L 88.5 314.023438 L 88.5 305.101562 L 89.851562 305.101562 "/>
<path style=" stroke:none;fill-rule:nonzero;fill:rgb(0%,0%,100%);fill-opacity:1;" d="M 96.300781 305.101562 L 97.5 305.101562 L 97.5 308.851562 L 102.074219 308.851562 L 102.074219 305.101562 L 103.273438 305.101562 L 103.273438 314.023438 L 102.074219 314.023438 L 102.074219 309.898438 L 97.5 309.898438 L 97.5 314.023438 L 96.300781 314.023438 L 96.300781 305.101562 "/>
<path style=" stroke:none;fill-rule:nonzero;fill:rgb(0%,0%,100%);fill-opacity:1;" d="M 104.324219 313.648438 C 104.476562 313.300781 104.726562 313.023438 105.074219 312.824219 C 105.425781 312.625 105.851562 312.523438 106.351562 312.523438 C 106.898438 312.523438 107.351562 312.675781 107.699219 312.976562 C 108.050781 313.324219 108.226562 313.773438 108.226562 314.324219 C 108.226562 314.925781 108 315.476562 107.550781 315.976562 C 107.148438 316.523438 106.5 317.125 105.601562 317.773438 L 108.300781 317.773438 L 108.300781 318.449219 L 104.324219 318.449219 L 104.324219 317.925781 C 105.074219 317.375 105.648438 316.898438 106.050781 316.5 C 106.5 316.148438 106.824219 315.800781 107.023438 315.449219 C 107.273438 315.101562 107.398438 314.75 107.398438 314.398438 C 107.398438 314 107.300781 313.699219 107.101562 313.5 C 106.898438 313.300781 106.648438 313.199219 106.351562 313.199219 C 106 313.199219 105.726562 313.25 105.523438 313.351562 C 105.324219 313.5 105.148438 313.699219 105 313.949219 L 104.324219 313.648438 "/>
<path style=" stroke:none;fill-rule:nonzero;fill:rgb(100%,0%,0%);fill-opacity:1;" d="M 147.898438 290.773438 C 147.898438 289.324219 148.25 288.199219 148.949219 287.398438 C 149.648438 286.601562 150.675781 286.199219 152.023438 286.199219 C 153.324219 286.199219 154.324219 286.601562 155.023438 287.398438 C 155.726562 288.199219 156.074219 289.324219 156.074219 290.773438 C 156.074219 292.226562 155.726562 293.351562 155.023438 294.148438 C 154.324219 294.949219 153.324219 295.351562 152.023438 295.351562 C 150.675781 295.351562 149.648438 294.949219 148.949219 294.148438 C 148.25 293.351562 147.898438 292.226562 147.898438 290.773438 M 152.023438 294.375 C 152.925781 294.375 153.625 294.074219 154.125 293.476562 C 154.625 292.875 154.875 291.976562 154.875 290.773438 C 154.875 289.574219 154.625 288.699219 154.125 288.148438 C 153.625 287.550781 152.925781 287.25 152.023438 287.25 C 151.125 287.25 150.425781 287.523438 149.925781 288.074219 C 149.425781 288.675781 149.175781 289.574219 149.175781 290.773438 C 149.175781 291.976562 149.425781 292.875 149.925781 293.476562 C 150.425781 294.074219 151.125 294.375 152.023438 294.375 "/>
<path style=" stroke:none;fill-rule:nonzero;fill:rgb(100%,0%,0%);fill-opacity:1;" d="M 156.75 286.273438 L 157.949219 286.273438 L 157.949219 290.101562 L 162.523438 290.101562 L 162.523438 286.273438 L 163.726562 286.273438 L 163.726562 295.199219 L 162.523438 295.199219 L 162.523438 291.148438 L 157.949219 291.148438 L 157.949219 295.199219 L 156.75 295.199219 L 156.75 286.273438 "/>
</g>
</svg>
