<?xml version="1.0" encoding="UTF-8"?>
<svg xmlns="http://www.w3.org/2000/svg" xmlns:xlink="http://www.w3.org/1999/xlink" width="375pt" height="375pt" viewBox="0 0 375 375" version="1.1">
<g id="surface129">
<rect x="0" y="0" width="375" height="375" style="fill:rgb(100%,100%,100%);fill-opacity:1;stroke:none;"/>
<path style="fill:none;stroke-width:2;stroke-linecap:butt;stroke-linejoin:miter;stroke:rgb(0%,0%,0%);stroke-opacity:1;stroke-miterlimit:4;" d="M 22.697917 281.302083 L 58.697917 305.598958 " transform="matrix(0.75,0,0,0.75,0,0)"/>
<path style="fill:none;stroke-width:2;stroke-linecap:butt;stroke-linejoin:miter;stroke:rgb(0%,0%,0%);stroke-opacity:1;stroke-miterlimit:4;" d="M 55.598958 303.5 L 54.302083 322.197917 " transform="matrix(0.75,0,0,0.75,0,0)"/>
<path style="fill:none;stroke-width:2;stroke-linecap:butt;stroke-linejoin:miter;stroke:rgb(100%,0%,0%);stroke-opacity:1;stroke-miterlimit:4;" d="M 54.302083 322.197917 L 52.901042 341 " transform="matrix(0.75,0,0,0.75,0,0)"/>
<path style="fill:none;stroke-width:2;stroke-linecap:butt;stroke-linejoin:miter;stroke:rgb(0%,0%,0%);stroke-opacity:1;stroke-miterlimit:4;" d="M 62.098958 303.901042 L 60.802083 322.697917 " transform="matrix(0.75,0,0,0.75,0,0)"/>
<path style="fill:none;stroke-width:2;stroke-linecap:butt;stroke-linejoin:miter;stroke:rgb(100%,0%,0%);stroke-opacity:1;stroke-miterlimit:4;" d="M 60.802083 322.697917 L 59.401042 341.401042 " transform="matrix(0.75,0,0,0.75,0,0)"/>
<path style="fill:none;stroke-width:2;stroke-linecap:butt;stroke-linejoin:miter;stroke:rgb(0%,0%,0%);stroke-opacity:1;stroke-miterlimit:4;" d="M 58.697917 305.598958 L 74.697917 297.802083 " transform="matrix(0.75,0,0,0.75,0,0)"/>
<path style="fill:none;stroke-width:2;stroke-linecap:butt;stroke-linejoin:miter;stroke:rgb(100%,0%,0%);stroke-opacity:1;stroke-miterlimit:4;" d="M 74.697917 297.802083 L 90.598958 290 " transform="matrix(0.75,0,0,0.75,0,0)"/>
<path style="fill:none;stroke-width:2;stroke-linecap:butt;stroke-linejoin:miter;stroke:rgb(100%,0%,0%);stroke-opacity:1;stroke-miterlimit:4;" d="M 104.802083 291.302083 L 119.197917 301.098958 " transform="matrix(0.75,0,0,0.75,0,0)"/>
<path style="fill:none;stroke-width:2;stroke-linecap:butt;stroke-linejoin:miter;stroke:rgb(0%,0%,0%);stroke-opacity:1;stroke-miterlimit:4;" d="M 119.197917 301.098958 L 133.697917 310.802083 " transform="matrix(0.75,0,0,0.75,0,0)"/>
<path style="fill:none;stroke-width:2;stroke-linecap:butt;stroke-linejoin:miter;stroke:rgb(0%,0%,0%);stroke-opacity:1;stroke-miterlimit:4;" d="M 133.697917 310.802083 L 172.697917 291.802083 " transform="matrix(0.75,0,0,0.75,0,0)"/>
<path style="fill:none;stroke-width:2;stroke-linecap:butt;stroke-linejoin:miter;stroke:rgb(0%,0%,0%);stroke-opacity:1;stroke-miterlimit:4;" d="M 172.697917 291.802083 L 175.697917 248.5 " transform="matrix(0.75,0,0,0.75,0,0)"/>
<path style="fill:none;stroke-width:2;stroke-linecap:butt;stroke-linejoin:miter;stroke:rgb(0%,0%,0%);stroke-opacity:1;stroke-miterlimit:4;" d="M 179.401042 288.5 L 182 252.697917 " transform="matrix(0.75,0,0,0.75,0,0)"/>
<path style="fill:none;stroke-width:2;stroke-linecap:butt;stroke-linejoin:miter;stroke:rgb(0%,0%,0%);stroke-opacity:1;stroke-miterlimit:4;" d="M 175.697917 248.5 L 139.802083 224.302083 " transform="matrix(0.75,0,0,0.75,0,0)"/>
<path style="fill:none;stroke-width:2;stroke-linecap:butt;stroke-linejoin:miter;stroke:rgb(0%,0%,0%);stroke-opacity:1;stroke-miterlimit:4;" d="M 142.901042 226.401042 L 144.197917 207.697917 " transform="matrix(0.75,0,0,0.75,0,0)"/>
<path style="fill:none;stroke-width:2;stroke-linecap:butt;stroke-linejoin:miter;stroke:rgb(100%,0%,0%);stroke-opacity:1;stroke-miterlimit:4;" d="M 144.197917 207.697917 L 145.5 189 " transform="matrix(0.75,0,0,0.75,0,0)"/>
<path style="fill:none;stroke-width:2;stroke-linecap:butt;stroke-linejoin:miter;stroke:rgb(0%,0%,0%);stroke-opacity:1;stroke-miterlimit:4;" d="M 136.401042 225.901042 L 137.697917 207.197917 " transform="matrix(0.75,0,0,0.75,0,0)"/>
<path style="fill:none;stroke-width:2;stroke-linecap:butt;stroke-linejoin:miter;stroke:rgb(100%,0%,0%);stroke-opacity:1;stroke-miterlimit:4;" d="M 137.697917 207.197917 L 139 188.598958 " transform="matrix(0.75,0,0,0.75,0,0)"/>
<path style="fill:none;stroke-width:2;stroke-linecap:butt;stroke-linejoin:miter;stroke:rgb(0%,0%,0%);stroke-opacity:1;stroke-miterlimit:4;" d="M 139.802083 224.302083 L 123.802083 232 " transform="matrix(0.75,0,0,0.75,0,0)"/>
<path style="fill:none;stroke-width:2;stroke-linecap:butt;stroke-linejoin:miter;stroke:rgb(100%,0%,0%);stroke-opacity:1;stroke-miterlimit:4;" d="M 123.802083 232 L 107.802083 239.802083 " transform="matrix(0.75,0,0,0.75,0,0)"/>
<path style="fill:none;stroke-width:2;stroke-linecap:butt;stroke-linejoin:miter;stroke:rgb(0%,0%,0%);stroke-opacity:1;stroke-miterlimit:4;" d="M 175.697917 248.5 L 192.197917 240.5 " transform="matrix(0.75,0,0,0.75,0,0)"/>
<path style="fill:none;stroke-width:2;stroke-linecap:butt;stroke-linejoin:miter;stroke:rgb(0%,0%,100%);stroke-opacity:1;stroke-miterlimit:4;" d="M 192.197917 240.5 L 208.598958 232.5 " transform="matrix(0.75,0,0,0.75,0,0)"/>
<path style="fill:none;stroke-width:2;stroke-linecap:butt;stroke-linejoin:miter;stroke:rgb(0%,0%,100%);stroke-opacity:1;stroke-miterlimit:4;" d="M 219.901042 222 L 229.401042 207.802083 " transform="matrix(0.75,0,0,0.75,0,0)"/>
<path style="fill:none;stroke-width:2;stroke-linecap:butt;stroke-linejoin:miter;stroke:rgb(0%,0%,0%);stroke-opacity:1;stroke-miterlimit:4;" d="M 229.401042 207.802083 L 239 193.598958 " transform="matrix(0.75,0,0,0.75,0,0)"/>
<path style="fill:none;stroke-width:2;stroke-linecap:butt;stroke-linejoin:miter;stroke:rgb(0%,0%,0%);stroke-opacity:1;stroke-miterlimit:4;" d="M 242.802083 196.098958 L 239.197917 177.197917 " transform="matrix(0.75,0,0,0.75,0,0)"/>
<path style="fill:none;stroke-width:2;stroke-linecap:butt;stroke-linejoin:miter;stroke:rgb(100%,0%,0%);stroke-opacity:1;stroke-miterlimit:4;" d="M 239.197917 177.197917 L 235.5 158.197917 " transform="matrix(0.75,0,0,0.75,0,0)"/>
<path style="fill:none;stroke-width:2;stroke-linecap:butt;stroke-linejoin:miter;stroke:rgb(0%,0%,0%);stroke-opacity:1;stroke-miterlimit:4;" d="M 236.401042 197.401042 L 232.802083 178.401042 " transform="matrix(0.75,0,0,0.75,0,0)"/>
<path style="fill:none;stroke-width:2;stroke-linecap:butt;stroke-linejoin:miter;stroke:rgb(100%,0%,0%);stroke-opacity:1;stroke-miterlimit:4;" d="M 232.802083 178.401042 L 229.098958 159.401042 " transform="matrix(0.75,0,0,0.75,0,0)"/>
<path style="fill:none;stroke-width:2;stroke-linecap:butt;stroke-linejoin:miter;stroke:rgb(0%,0%,0%);stroke-opacity:1;stroke-miterlimit:4;" d="M 239 193.598958 L 275 217.802083 " transform="matrix(0.75,0,0,0.75,0,0)"/>
<path style="fill-rule:evenodd;fill:rgb(0%,0%,0%);fill-opacity:1;stroke-width:0.5;stroke-linecap:butt;stroke-linejoin:miter;stroke:rgb(0%,0%,0%);stroke-opacity:1;stroke-miterlimit:4;" d="M 275 217.802083 L 292.197917 212.901042 L 292.802083 216 Z M 275 217.802083 " transform="matrix(0.75,0,0,0.75,0,0)"/>
<path style="fill-rule:evenodd;fill:rgb(0%,0%,100%);fill-opacity:1;stroke-width:0.5;stroke-linecap:butt;stroke-linejoin:miter;stroke:rgb(0%,0%,100%);stroke-opacity:1;stroke-miterlimit:4;" d="M 292.197917 212.901042 L 310.697917 214.197917 L 309.401042 207.901042 Z M 292.197917 212.901042 " transform="matrix(0.75,0,0,0.75,0,0)"/>
<path style="fill-rule:evenodd;fill:rgb(0%,0%,100%);fill-opacity:1;stroke-width:0.5;stroke-linecap:butt;stroke-linejoin:miter;stroke:rgb(0%,0%,100%);stroke-opacity:1;stroke-miterlimit:4;" d="M 292.197917 212.901042 L 292.802083 216 L 310.697917 214.197917 Z M 292.197917 212.901042 " transform="matrix(0.75,0,0,0.75,0,0)"/>
<path style="fill:none;stroke-width:2;stroke-linecap:butt;stroke-linejoin:miter;stroke:rgb(0%,0%,100%);stroke-opacity:1;stroke-miterlimit:4;" d="M 323.697917 216.598958 L 334.901042 229.5 " transform="matrix(0.75,0,0,0.75,0,0)"/>
<path style="fill:none;stroke-width:2;stroke-linecap:butt;stroke-linejoin:miter;stroke:rgb(0%,0%,0%);stroke-opacity:1;stroke-miterlimit:4;" d="M 334.901042 229.5 L 346 242.401042 " transform="matrix(0.75,0,0,0.75,0,0)"/>
<path style="fill:none;stroke-width:2;stroke-linecap:butt;stroke-linejoin:miter;stroke:rgb(0%,0%,0%);stroke-opacity:1;stroke-miterlimit:4;" d="M 343.598958 239.5 L 337.5 257.098958 " transform="matrix(0.75,0,0,0.75,0,0)"/>
<path style="fill:none;stroke-width:2;stroke-linecap:butt;stroke-linejoin:miter;stroke:rgb(100%,0%,0%);stroke-opacity:1;stroke-miterlimit:4;" d="M 337.5 257.098958 L 331.5 274.697917 " transform="matrix(0.75,0,0,0.75,0,0)"/>
<path style="fill:none;stroke-width:2;stroke-linecap:butt;stroke-linejoin:miter;stroke:rgb(0%,0%,0%);stroke-opacity:1;stroke-miterlimit:4;" d="M 349.697917 241.598958 L 343.697917 259.197917 " transform="matrix(0.75,0,0,0.75,0,0)"/>
<path style="fill:none;stroke-width:2;stroke-linecap:butt;stroke-linejoin:miter;stroke:rgb(100%,0%,0%);stroke-opacity:1;stroke-miterlimit:4;" d="M 343.697917 259.197917 L 337.598958 276.802083 " transform="matrix(0.75,0,0,0.75,0,0)"/>
<path style="fill:none;stroke-width:2;stroke-linecap:butt;stroke-linejoin:miter;stroke:rgb(0%,0%,0%);stroke-opacity:1;stroke-miterlimit:4;" d="M 346 242.401042 L 388.598958 234.098958 " transform="matrix(0.75,0,0,0.75,0,0)"/>
<path style="fill:none;stroke-width:2;stroke-linecap:butt;stroke-linejoin:miter;stroke:rgb(0%,0%,0%);stroke-opacity:1;stroke-miterlimit:4;" d="M 388.598958 234.098958 L 417.098958 266.901042 " transform="matrix(0.75,0,0,0.75,0,0)"/>
<path style="fill:none;stroke-width:2;stroke-linecap:butt;stroke-linejoin:miter;stroke:rgb(0%,0%,0%);stroke-opacity:1;stroke-miterlimit:4;" d="M 417.098958 266.901042 L 460.302083 263.098958 " transform="matrix(0.75,0,0,0.75,0,0)"/>
<path style="fill:none;stroke-width:2;stroke-linecap:butt;stroke-linejoin:miter;stroke:rgb(0%,0%,0%);stroke-opacity:1;stroke-miterlimit:4;" d="M 422.401042 272.901042 L 456.197917 270 " transform="matrix(0.75,0,0,0.75,0,0)"/>
<path style="fill:none;stroke-width:2;stroke-linecap:butt;stroke-linejoin:miter;stroke:rgb(0%,0%,0%);stroke-opacity:1;stroke-miterlimit:4;" d="M 460.302083 263.098958 L 477.302083 303 " transform="matrix(0.75,0,0,0.75,0,0)"/>
<path style="fill:none;stroke-width:2;stroke-linecap:butt;stroke-linejoin:miter;stroke:rgb(0%,0%,0%);stroke-opacity:1;stroke-miterlimit:4;" d="M 477.302083 303 L 444.5 331.5 " transform="matrix(0.75,0,0,0.75,0,0)"/>
<path style="fill:none;stroke-width:2;stroke-linecap:butt;stroke-linejoin:miter;stroke:rgb(0%,0%,0%);stroke-opacity:1;stroke-miterlimit:4;" d="M 469.401042 301.197917 L 443.802083 323.5 " transform="matrix(0.75,0,0,0.75,0,0)"/>
<path style="fill:none;stroke-width:2;stroke-linecap:butt;stroke-linejoin:miter;stroke:rgb(0%,0%,0%);stroke-opacity:1;stroke-miterlimit:4;" d="M 444.5 331.5 L 428.598958 321.901042 " transform="matrix(0.75,0,0,0.75,0,0)"/>
<path style="fill:none;stroke-width:2;stroke-linecap:butt;stroke-linejoin:miter;stroke:rgb(80%,80%,0%);stroke-opacity:1;stroke-miterlimit:4;" d="M 428.598958 321.901042 L 412.697917 312.401042 " transform="matrix(0.75,0,0,0.75,0,0)"/>
<path style="fill:none;stroke-width:2;stroke-linecap:butt;stroke-linejoin:miter;stroke:rgb(0%,0%,0%);stroke-opacity:1;stroke-miterlimit:4;" d="M 275 217.802083 L 250.697917 253.802083 " transform="matrix(0.75,0,0,0.75,0,0)"/>
<path style="fill:none;stroke-width:2;stroke-linecap:butt;stroke-linejoin:miter;stroke:rgb(0%,0%,0%);stroke-opacity:1;stroke-miterlimit:4;" d="M 250.697917 253.802083 L 249.401042 271.697917 " transform="matrix(0.75,0,0,0.75,0,0)"/>
<path style="fill:none;stroke-width:2;stroke-linecap:butt;stroke-linejoin:miter;stroke:rgb(80%,80%,0%);stroke-opacity:1;stroke-miterlimit:4;" d="M 249.401042 271.697917 L 248.197917 289.5 " transform="matrix(0.75,0,0,0.75,0,0)"/>
<path style="fill:none;stroke-width:2;stroke-linecap:butt;stroke-linejoin:miter;stroke:rgb(80%,80%,0%);stroke-opacity:1;stroke-miterlimit:4;" d="M 242.302083 299.697917 L 225.5 307.901042 " transform="matrix(0.75,0,0,0.75,0,0)"/>
<path style="fill:none;stroke-width:2;stroke-linecap:butt;stroke-linejoin:miter;stroke:rgb(0%,0%,0%);stroke-opacity:1;stroke-miterlimit:4;" d="M 225.5 307.901042 L 208.598958 316.098958 " transform="matrix(0.75,0,0,0.75,0,0)"/>
<path style="fill:none;stroke-width:2;stroke-linecap:butt;stroke-linejoin:miter;stroke:rgb(0%,0%,0%);stroke-opacity:1;stroke-miterlimit:4;" d="M 208.598958 316.098958 L 172.697917 291.802083 " transform="matrix(0.75,0,0,0.75,0,0)"/>
<path style="fill:none;stroke-width:2;stroke-linecap:butt;stroke-linejoin:miter;stroke:rgb(0%,0%,0%);stroke-opacity:1;stroke-miterlimit:4;" d="M 250.697917 253.802083 L 235.802083 243.697917 " transform="matrix(0.75,0,0,0.75,0,0)"/>
<path style="fill:none;stroke-width:2;stroke-linecap:butt;stroke-linejoin:miter;stroke:rgb(0%,0%,100%);stroke-opacity:1;stroke-miterlimit:4;" d="M 235.802083 243.697917 L 220.802083 233.598958 " transform="matrix(0.75,0,0,0.75,0,0)"/>
<path style="fill:none;stroke-width:2;stroke-linecap:butt;stroke-linejoin:miter;stroke:rgb(80%,80%,0%);stroke-opacity:1;stroke-miterlimit:4;" d="M 409.098958 301.598958 L 413.098958 284.197917 " transform="matrix(0.75,0,0,0.75,0,0)"/>
<path style="fill:none;stroke-width:2;stroke-linecap:butt;stroke-linejoin:miter;stroke:rgb(0%,0%,0%);stroke-opacity:1;stroke-miterlimit:4;" d="M 413.098958 284.197917 L 417.098958 266.901042 " transform="matrix(0.75,0,0,0.75,0,0)"/>
<path style="fill:none;stroke-width:1;stroke-linecap:butt;stroke-linejoin:miter;stroke:rgb(0%,0%,0%);stroke-opacity:1;stroke-miterlimit:4;" d="M 254.098958 254.697917 L 253.901042 255.302083 " transform="matrix(0.75,0,0,0.75,0,0)"/>
<path style="fill:none;stroke-width:1;stroke-linecap:butt;stroke-linejoin:miter;stroke:rgb(0%,0%,0%);stroke-opacity:1;stroke-miterlimit:4;" d="M 257.598958 255.5 L 257.197917 256.697917 " transform="matrix(0.75,0,0,0.75,0,0)"/>
<path style="fill:none;stroke-width:1;stroke-linecap:butt;stroke-linejoin:miter;stroke:rgb(0%,0%,0%);stroke-opacity:1;stroke-miterlimit:4;" d="M 261 256.302083 L 260.401042 258.197917 " transform="matrix(0.75,0,0,0.75,0,0)"/>
<path style="fill:none;stroke-width:1;stroke-linecap:butt;stroke-linejoin:miter;stroke:rgb(0%,0%,0%);stroke-opacity:1;stroke-miterlimit:4;" d="M 264.5 257.197917 L 263.598958 259.598958 " transform="matrix(0.75,0,0,0.75,0,0)"/>
<path style="fill:none;stroke-width:1;stroke-linecap:butt;stroke-linejoin:miter;stroke:rgb(0%,0%,0%);stroke-opacity:1;stroke-miterlimit:4;" d="M 267.901042 258 L 266.901042 261.098958 " transform="matrix(0.75,0,0,0.75,0,0)"/>
<path style="fill:none;stroke-width:1;stroke-linecap:butt;stroke-linejoin:miter;stroke:rgb(0%,0%,0%);stroke-opacity:1;stroke-miterlimit:4;" d="M 271.401042 258.901042 L 270.098958 262.598958 " transform="matrix(0.75,0,0,0.75,0,0)"/>
<path style="fill:none;stroke-width:1;stroke-linecap:butt;stroke-linejoin:miter;stroke:rgb(0%,0%,0%);stroke-opacity:1;stroke-miterlimit:4;" d="M 274.802083 259.697917 L 273.302083 264 " transform="matrix(0.75,0,0,0.75,0,0)"/>
<path style="fill:none;stroke-width:1;stroke-linecap:butt;stroke-linejoin:miter;stroke:rgb(0%,0%,0%);stroke-opacity:1;stroke-miterlimit:4;" d="M 278.197917 260.598958 L 276.5 265.5 " transform="matrix(0.75,0,0,0.75,0,0)"/>
<path style="fill:none;stroke-width:1;stroke-linecap:butt;stroke-linejoin:miter;stroke:rgb(0%,0%,0%);stroke-opacity:1;stroke-miterlimit:4;" d="M 281.697917 261.401042 L 279.802083 266.901042 " transform="matrix(0.75,0,0,0.75,0,0)"/>
<path style="fill:none;stroke-width:1;stroke-linecap:butt;stroke-linejoin:miter;stroke:rgb(0%,0%,0%);stroke-opacity:1;stroke-miterlimit:4;" d="M 285.098958 262.197917 L 283 268.401042 " transform="matrix(0.75,0,0,0.75,0,0)"/>
<path style="fill:none;stroke-width:2;stroke-linecap:butt;stroke-linejoin:miter;stroke:rgb(0%,0%,0%);stroke-opacity:1;stroke-miterlimit:4;" d="M 56.901042 304.302083 L 58.697917 305.598958 L 59.5 305.197917 " transform="matrix(0.75,0,0,0.75,0,0)"/>
<path style="fill:none;stroke-width:2;stroke-linecap:butt;stroke-linejoin:miter;stroke:rgb(0%,0%,0%);stroke-opacity:1;stroke-miterlimit:4;" d="M 132.901042 310.302083 L 133.697917 310.802083 L 135.598958 309.901042 " transform="matrix(0.75,0,0,0.75,0,0)"/>
<path style="fill:none;stroke-width:2;stroke-linecap:butt;stroke-linejoin:miter;stroke:rgb(0%,0%,0%);stroke-opacity:1;stroke-miterlimit:4;" d="M 141.598958 225.5 L 139.802083 224.302083 L 139 224.598958 " transform="matrix(0.75,0,0,0.75,0,0)"/>
<path style="fill:none;stroke-width:2;stroke-linecap:butt;stroke-linejoin:miter;stroke:rgb(0%,0%,0%);stroke-opacity:1;stroke-miterlimit:4;" d="M 238.5 194.302083 L 239 193.598958 L 240.802083 194.802083 " transform="matrix(0.75,0,0,0.75,0,0)"/>
<path style="fill:none;stroke-width:2;stroke-linecap:butt;stroke-linejoin:miter;stroke:rgb(0%,0%,0%);stroke-opacity:1;stroke-miterlimit:4;" d="M 273.197917 216.598958 L 275 217.802083 L 273.802083 219.598958 " transform="matrix(0.75,0,0,0.75,0,0)"/>
<path style="fill:none;stroke-width:2;stroke-linecap:butt;stroke-linejoin:miter;stroke:rgb(0%,0%,0%);stroke-opacity:1;stroke-miterlimit:4;" d="M 345.5 241.697917 L 346 242.401042 L 348.197917 241.901042 " transform="matrix(0.75,0,0,0.75,0,0)"/>
<path style="fill:none;stroke-width:2;stroke-linecap:butt;stroke-linejoin:miter;stroke:rgb(0%,0%,0%);stroke-opacity:1;stroke-miterlimit:4;" d="M 386.5 234.5 L 388.598958 234.098958 L 390.098958 235.697917 " transform="matrix(0.75,0,0,0.75,0,0)"/>
<path style="fill:none;stroke-width:2;stroke-linecap:butt;stroke-linejoin:miter;stroke:rgb(0%,0%,0%);stroke-opacity:1;stroke-miterlimit:4;" d="M 458.197917 263.302083 L 460.302083 263.098958 L 461.197917 265.098958 " transform="matrix(0.75,0,0,0.75,0,0)"/>
<path style="fill:none;stroke-width:2;stroke-linecap:butt;stroke-linejoin:miter;stroke:rgb(0%,0%,0%);stroke-opacity:1;stroke-miterlimit:4;" d="M 476.401042 301 L 477.302083 303 L 475.598958 304.5 " transform="matrix(0.75,0,0,0.75,0,0)"/>
<path style="fill:none;stroke-width:2;stroke-linecap:butt;stroke-linejoin:miter;stroke:rgb(0%,0%,0%);stroke-opacity:1;stroke-miterlimit:4;" d="M 446.098958 330.098958 L 444.5 331.5 L 443.697917 331 " transform="matrix(0.75,0,0,0.75,0,0)"/>
<path style="fill:none;stroke-width:2;stroke-linecap:butt;stroke-linejoin:miter;stroke:rgb(0%,0%,0%);stroke-opacity:1;stroke-miterlimit:4;" d="M 209.5 315.697917 L 208.598958 316.098958 L 206.802083 314.901042 " transform="matrix(0.75,0,0,0.75,0,0)"/>
<path style=" stroke:none;fill-rule:nonzero;fill:rgb(100%,0%,0%);fill-opacity:1;" d="M 37.5 261.675781 C 37.5 260.175781 37.875 259.023438 38.625 258.226562 C 39.324219 257.375 40.351562 256.949219 41.699219 256.949219 C 43.101562 256.949219 44.148438 257.375 44.851562 258.226562 C 45.601562 259.023438 45.976562 260.175781 45.976562 261.675781 C 45.976562 263.175781 45.601562 264.351562 44.851562 265.199219 C 44.101562 266 43.050781 266.398438 41.699219 266.398438 C 40.351562 266.398438 39.324219 266 38.625 265.199219 C 37.875 264.351562 37.5 263.175781 37.5 261.675781 M 41.699219 265.425781 C 42.648438 265.425781 43.375 265.101562 43.875 264.449219 C 44.425781 263.800781 44.699219 262.875 44.699219 261.675781 C 44.699219 260.476562 44.425781 259.574219 43.875 258.976562 C 43.375 258.324219 42.648438 258 41.699219 258 C 40.800781 258 40.074219 258.300781 39.523438 258.898438 C 39.023438 259.5 38.773438 260.425781 38.773438 261.675781 C 38.773438 262.925781 39.023438 263.851562 39.523438 264.449219 C 40.074219 265.101562 40.800781 265.425781 41.699219 265.425781 "/>
<path style=" stroke:none;fill-rule:nonzero;fill:rgb(100%,0%,0%);fill-opacity:1;" d="M 69.074219 214.949219 C 69.074219 213.449219 69.425781 212.300781 70.125 211.5 C 70.875 210.648438 71.925781 210.226562 73.273438 210.226562 C 74.625 210.226562 75.675781 210.648438 76.425781 211.5 C 77.125 212.300781 77.476562 213.449219 77.476562 214.949219 C 77.476562 216.449219 77.125 217.625 76.425781 218.476562 C 75.675781 219.324219 74.625 219.75 73.273438 219.75 C 71.925781 219.75 70.875 219.324219 70.125 218.476562 C 69.425781 217.625 69.074219 216.449219 69.074219 214.949219 M 73.273438 218.699219 C 74.226562 218.699219 74.949219 218.375 75.449219 217.726562 C 75.949219 217.074219 76.199219 216.148438 76.199219 214.949219 C 76.199219 213.75 75.949219 212.851562 75.449219 212.25 C 74.949219 211.601562 74.226562 211.273438 73.273438 211.273438 C 72.324219 211.273438 71.601562 211.574219 71.101562 212.175781 C 70.601562 212.824219 70.351562 213.75 70.351562 214.949219 C 70.351562 216.199219 70.601562 217.125 71.101562 217.726562 C 71.601562 218.375 72.324219 218.699219 73.273438 218.699219 "/>
<path style=" stroke:none;fill-rule:nonzero;fill:rgb(100%,0%,0%);fill-opacity:1;" d="M 102.898438 135.75 C 102.898438 134.300781 103.25 133.148438 103.949219 132.300781 C 104.699219 131.5 105.75 131.101562 107.101562 131.101562 C 108.449219 131.101562 109.5 131.5 110.25 132.300781 C 111 133.148438 111.375 134.300781 111.375 135.75 C 111.375 137.25 111 138.425781 110.25 139.273438 C 109.5 140.125 108.449219 140.550781 107.101562 140.550781 C 105.75 140.550781 104.699219 140.125 103.949219 139.273438 C 103.25 138.425781 102.898438 137.25 102.898438 135.75 M 107.101562 139.5 C 108.050781 139.5 108.773438 139.175781 109.273438 138.523438 C 109.773438 137.925781 110.023438 137 110.023438 135.75 C 110.023438 134.550781 109.773438 133.648438 109.273438 133.050781 C 108.773438 132.398438 108.050781 132.074219 107.101562 132.074219 C 106.148438 132.074219 105.425781 132.398438 104.925781 133.050781 C 104.425781 133.648438 104.175781 134.550781 104.175781 135.75 C 104.175781 137 104.425781 137.925781 104.925781 138.523438 C 105.425781 139.175781 106.148438 139.5 107.101562 139.5 "/>
<path style=" stroke:none;fill-rule:nonzero;fill:rgb(100%,0%,0%);fill-opacity:1;" d="M 62.25 177.898438 L 63.449219 177.898438 L 63.449219 181.800781 L 68.175781 181.800781 L 68.175781 177.898438 L 69.449219 177.898438 L 69.449219 187.125 L 68.175781 187.125 L 68.175781 182.851562 L 63.449219 182.851562 L 63.449219 187.125 L 62.25 187.125 L 62.25 177.898438 "/>
<path style=" stroke:none;fill-rule:nonzero;fill:rgb(100%,0%,0%);fill-opacity:1;" d="M 71.324219 182.476562 C 71.324219 180.976562 71.699219 179.824219 72.449219 179.023438 C 73.148438 178.175781 74.199219 177.75 75.601562 177.75 C 76.949219 177.75 77.976562 178.175781 78.675781 179.023438 C 79.425781 179.824219 79.800781 180.976562 79.800781 182.476562 C 79.800781 183.976562 79.425781 185.148438 78.675781 186 C 77.925781 186.851562 76.898438 187.273438 75.601562 187.273438 C 74.199219 187.273438 73.148438 186.851562 72.449219 186 C 71.699219 185.148438 71.324219 183.976562 71.324219 182.476562 M 75.601562 186.226562 C 76.5 186.226562 77.199219 185.898438 77.699219 185.25 C 78.25 184.648438 78.523438 183.726562 78.523438 182.476562 C 78.523438 181.273438 78.25 180.375 77.699219 179.773438 C 77.199219 179.125 76.5 178.800781 75.601562 178.800781 C 74.648438 178.800781 73.925781 179.125 73.425781 179.773438 C 72.875 180.375 72.601562 181.273438 72.601562 182.476562 C 72.601562 183.726562 72.875 184.648438 73.425781 185.25 C 73.925781 185.898438 74.648438 186.226562 75.601562 186.226562 "/>
<path style=" stroke:none;fill-rule:nonzero;fill:rgb(0%,0%,100%);fill-opacity:1;" d="M 159 167.550781 L 162.074219 172.425781 C 162.273438 172.726562 162.523438 173.175781 162.824219 173.773438 C 163.125 174.375 163.300781 174.675781 163.351562 174.675781 L 163.351562 167.550781 L 164.550781 167.550781 L 164.550781 176.773438 L 163.273438 176.773438 L 160.050781 171.449219 C 159.800781 171 159.550781 170.550781 159.300781 170.101562 C 159 169.601562 158.824219 169.273438 158.773438 169.125 L 158.773438 176.773438 L 157.574219 176.773438 L 157.574219 167.550781 L 159 167.550781 "/>
<path style=" stroke:none;fill-rule:nonzero;fill:rgb(100%,0%,0%);fill-opacity:1;" d="M 168.824219 113.25 C 168.824219 111.75 169.199219 110.601562 169.949219 109.800781 C 170.648438 109 171.699219 108.601562 173.101562 108.601562 C 174.449219 108.601562 175.476562 109 176.175781 109.800781 C 176.925781 110.601562 177.300781 111.75 177.300781 113.25 C 177.300781 114.75 176.925781 115.925781 176.175781 116.773438 C 175.476562 117.625 174.449219 118.050781 173.101562 118.050781 C 171.75 118.050781 170.699219 117.625 169.949219 116.773438 C 169.199219 115.925781 168.824219 114.75 168.824219 113.25 M 173.101562 117 C 174 117 174.699219 116.675781 175.199219 116.023438 C 175.75 115.425781 176.023438 114.5 176.023438 113.25 C 176.023438 112.050781 175.75 111.148438 175.199219 110.550781 C 174.699219 109.898438 174 109.574219 173.101562 109.574219 C 172.148438 109.574219 171.425781 109.898438 170.925781 110.550781 C 170.425781 111.148438 170.175781 112.050781 170.175781 113.25 C 170.175781 114.5 170.425781 115.425781 170.925781 116.023438 C 171.425781 116.675781 172.148438 117 173.101562 117 "/>
<path style=" stroke:none;fill-rule:nonzero;fill:rgb(0%,0%,100%);fill-opacity:1;" d="M 236.175781 152.550781 L 239.175781 157.5 C 239.375 157.800781 239.625 158.25 239.925781 158.851562 C 240.273438 159.398438 240.449219 159.699219 240.449219 159.75 L 240.449219 152.550781 L 241.726562 152.550781 L 241.726562 161.773438 L 240.449219 161.773438 L 237.148438 156.449219 C 236.898438 156.050781 236.648438 155.601562 236.398438 155.101562 C 236.148438 154.648438 235.976562 154.351562 235.875 154.199219 L 235.875 161.773438 L 234.675781 161.773438 L 234.675781 152.550781 L 236.175781 152.550781 "/>
<path style=" stroke:none;fill-rule:nonzero;fill:rgb(0%,0%,100%);fill-opacity:1;" d="M 234.601562 142.425781 L 235.800781 142.425781 L 235.800781 146.398438 L 240.523438 146.398438 L 240.523438 142.425781 L 241.800781 142.425781 L 241.800781 151.648438 L 240.523438 151.648438 L 240.523438 147.375 L 235.800781 147.375 L 235.800781 151.648438 L 234.601562 151.648438 L 234.601562 142.425781 "/>
<path style=" stroke:none;fill-rule:nonzero;fill:rgb(100%,0%,0%);fill-opacity:1;" d="M 244.726562 212.550781 C 244.726562 211.101562 245.074219 209.949219 245.773438 209.101562 C 246.523438 208.300781 247.574219 207.898438 248.925781 207.898438 C 250.273438 207.898438 251.324219 208.300781 252.074219 209.101562 C 252.773438 209.949219 253.125 211.101562 253.125 212.550781 C 253.125 214.050781 252.773438 215.226562 252.074219 216.074219 C 251.324219 216.925781 250.273438 217.351562 248.925781 217.351562 C 247.574219 217.351562 246.523438 216.925781 245.773438 216.074219 C 245.074219 215.226562 244.726562 214.050781 244.726562 212.550781 M 248.925781 216.300781 C 249.875 216.300781 250.601562 215.976562 251.101562 215.324219 C 251.601562 214.726562 251.851562 213.800781 251.851562 212.550781 C 251.851562 211.351562 251.601562 210.449219 251.101562 209.851562 C 250.601562 209.25 249.875 208.949219 248.925781 208.949219 C 247.976562 208.949219 247.25 209.25 246.75 209.851562 C 246.25 210.449219 246 211.351562 246 212.550781 C 246 213.800781 246.25 214.726562 246.75 215.324219 C 247.25 215.976562 247.976562 216.300781 248.925781 216.300781 "/>
<path style=" stroke:none;fill-rule:nonzero;fill:rgb(80%,80%,0%);fill-opacity:1;" d="M 302.925781 235.050781 C 302.976562 235.050781 303.148438 235.101562 303.449219 235.199219 C 303.699219 235.351562 304 235.449219 304.351562 235.5 C 304.648438 235.601562 304.949219 235.648438 305.25 235.648438 C 305.851562 235.648438 306.324219 235.5 306.675781 235.199219 C 306.976562 234.949219 307.125 234.574219 307.125 234.074219 C 307.125 233.726562 307.050781 233.449219 306.898438 233.25 C 306.75 233.050781 306.523438 232.875 306.226562 232.726562 C 305.976562 232.625 305.648438 232.5 305.25 232.351562 C 304.699219 232.199219 304.25 232.050781 303.898438 231.898438 C 303.601562 231.75 303.324219 231.5 303.074219 231.148438 C 302.824219 230.851562 302.699219 230.425781 302.699219 229.875 C 302.699219 229.074219 302.976562 228.449219 303.523438 228 C 304.023438 227.5 304.800781 227.25 305.851562 227.25 C 306.550781 227.25 307.324219 227.425781 308.175781 227.773438 L 307.875 228.75 C 307.125 228.449219 306.476562 228.300781 305.925781 228.300781 C 305.324219 228.300781 304.851562 228.425781 304.5 228.675781 C 304.199219 228.925781 304.050781 229.273438 304.050781 229.726562 C 304.050781 230.023438 304.125 230.273438 304.273438 230.476562 C 304.476562 230.675781 304.675781 230.824219 304.875 230.925781 C 305.125 231.074219 305.476562 231.199219 305.925781 231.300781 C 306.476562 231.5 306.898438 231.675781 307.199219 231.824219 C 307.550781 232.023438 307.851562 232.300781 308.101562 232.648438 C 308.351562 233 308.476562 233.476562 308.476562 234.074219 C 308.476562 234.925781 308.175781 235.574219 307.574219 236.023438 C 307.023438 236.476562 306.273438 236.699219 305.324219 236.699219 C 304.773438 236.699219 304.300781 236.625 303.898438 236.476562 C 303.5 236.375 303.050781 236.226562 302.550781 236.023438 L 302.925781 235.050781 "/>
<path style=" stroke:none;fill-rule:nonzero;fill:rgb(80%,80%,0%);fill-opacity:1;" d="M 183.148438 225.976562 C 183.199219 226.023438 183.375 226.101562 183.675781 226.199219 C 183.976562 226.351562 184.273438 226.449219 184.574219 226.5 C 184.875 226.601562 185.199219 226.648438 185.550781 226.648438 C 186.101562 226.648438 186.550781 226.5 186.898438 226.199219 C 187.25 225.898438 187.425781 225.5 187.425781 225 C 187.425781 224.699219 187.324219 224.425781 187.125 224.175781 C 186.976562 223.976562 186.773438 223.824219 186.523438 223.726562 C 186.273438 223.625 185.925781 223.5 185.476562 223.351562 C 184.925781 223.199219 184.476562 223.050781 184.125 222.898438 C 183.824219 222.75 183.550781 222.5 183.300781 222.148438 C 183.101562 221.800781 183 221.351562 183 220.800781 C 183 220.050781 183.25 219.425781 183.75 218.925781 C 184.300781 218.476562 185.101562 218.25 186.148438 218.25 C 186.851562 218.25 187.601562 218.425781 188.398438 218.773438 L 188.101562 219.75 C 187.351562 219.449219 186.699219 219.300781 186.148438 219.300781 C 185.550781 219.300781 185.101562 219.425781 184.800781 219.675781 C 184.449219 219.925781 184.273438 220.25 184.273438 220.648438 C 184.273438 221 184.351562 221.273438 184.5 221.476562 C 184.699219 221.675781 184.925781 221.824219 185.175781 221.925781 C 185.425781 222.023438 185.75 222.148438 186.148438 222.300781 C 186.699219 222.449219 187.148438 222.625 187.5 222.824219 C 187.800781 222.976562 188.074219 223.226562 188.324219 223.574219 C 188.574219 223.925781 188.699219 224.398438 188.699219 225 C 188.699219 225.851562 188.425781 226.523438 187.875 227.023438 C 187.273438 227.476562 186.5 227.699219 185.550781 227.699219 C 185 227.699219 184.523438 227.625 184.125 227.476562 C 183.726562 227.375 183.273438 227.226562 182.773438 227.023438 L 183.148438 225.976562 "/>
<path style=" stroke:none;fill-rule:nonzero;fill:rgb(0%,0%,0%);fill-opacity:1;" d="M 215.175781 196.351562 L 216.449219 196.351562 L 216.449219 200.25 L 221.175781 200.25 L 221.175781 196.351562 L 222.375 196.351562 L 222.375 205.574219 L 221.175781 205.574219 L 221.175781 201.300781 L 216.449219 201.300781 L 216.449219 205.574219 L 215.175781 205.574219 L 215.175781 196.351562 "/>
</g>
</svg>
