<?xml version="1.0" encoding="UTF-8"?>
<svg xmlns="http://www.w3.org/2000/svg" xmlns:xlink="http://www.w3.org/1999/xlink" width="375pt" height="375pt" viewBox="0 0 375 375" version="1.1">
<g id="surface36">
<rect x="0" y="0" width="375" height="375" style="fill:rgb(100%,100%,100%);fill-opacity:1;stroke:none;"/>
<path style="fill:none;stroke-width:2;stroke-linecap:butt;stroke-linejoin:miter;stroke:rgb(0%,0%,0%);stroke-opacity:1;stroke-miterlimit:4;" d="M 244.901042 135.401042 L 233.598958 145.401042 " transform="matrix(0.75,0,0,0.75,0,0)"/>
<path style="fill:none;stroke-width:2;stroke-linecap:butt;stroke-linejoin:miter;stroke:rgb(0%,0%,100%);stroke-opacity:1;stroke-miterlimit:4;" d="M 233.598958 145.401042 L 222.197917 155.302083 " transform="matrix(0.75,0,0,0.75,0,0)"/>
<path style="fill-rule:evenodd;fill:rgb(0%,0%,0%);fill-opacity:1;stroke-width:0.5;stroke-linecap:butt;stroke-linejoin:miter;stroke:rgb(0%,0%,0%);stroke-opacity:1;stroke-miterlimit:4;" d="M 224.302083 196.401042 L 220.098958 182.302083 L 222.802083 181.802083 Z M 224.302083 196.401042 " transform="matrix(0.75,0,0,0.75,0,0)"/>
<path style="fill-rule:evenodd;fill:rgb(0%,0%,100%);fill-opacity:1;stroke-width:0.5;stroke-linecap:butt;stroke-linejoin:miter;stroke:rgb(0%,0%,100%);stroke-opacity:1;stroke-miterlimit:4;" d="M 220.098958 182.302083 L 221.302083 167.098958 L 215.802083 168.197917 Z M 220.098958 182.302083 " transform="matrix(0.75,0,0,0.75,0,0)"/>
<path style="fill-rule:evenodd;fill:rgb(0%,0%,100%);fill-opacity:1;stroke-width:0.5;stroke-linecap:butt;stroke-linejoin:miter;stroke:rgb(0%,0%,100%);stroke-opacity:1;stroke-miterlimit:4;" d="M 220.098958 182.302083 L 222.802083 181.802083 L 221.302083 167.098958 Z M 220.098958 182.302083 " transform="matrix(0.75,0,0,0.75,0,0)"/>
<path style="fill:none;stroke-width:2;stroke-linecap:butt;stroke-linejoin:miter;stroke:rgb(0%,0%,0%);stroke-opacity:1;stroke-miterlimit:4;" d="M 224.302083 196.401042 L 196.401042 221 " transform="matrix(0.75,0,0,0.75,0,0)"/>
<path style="fill:none;stroke-width:1;stroke-linecap:butt;stroke-linejoin:miter;stroke:rgb(0%,0%,0%);stroke-opacity:1;stroke-miterlimit:4;" d="M 193 219.401042 L 192.802083 220.197917 " transform="matrix(0.75,0,0,0.75,0,0)"/>
<path style="fill:none;stroke-width:1;stroke-linecap:butt;stroke-linejoin:miter;stroke:rgb(0%,0%,0%);stroke-opacity:1;stroke-miterlimit:4;" d="M 189.697917 217.901042 L 189.197917 219.401042 " transform="matrix(0.75,0,0,0.75,0,0)"/>
<path style="fill:none;stroke-width:1;stroke-linecap:butt;stroke-linejoin:miter;stroke:rgb(0%,0%,0%);stroke-opacity:1;stroke-miterlimit:4;" d="M 186.302083 216.302083 L 185.598958 218.598958 " transform="matrix(0.75,0,0,0.75,0,0)"/>
<path style="fill:none;stroke-width:1;stroke-linecap:butt;stroke-linejoin:miter;stroke:rgb(0%,0%,0%);stroke-opacity:1;stroke-miterlimit:4;" d="M 183 214.802083 L 181.901042 217.802083 " transform="matrix(0.75,0,0,0.75,0,0)"/>
<path style="fill:none;stroke-width:1;stroke-linecap:butt;stroke-linejoin:miter;stroke:rgb(100%,0%,0%);stroke-opacity:1;stroke-miterlimit:4;" d="M 179.598958 213.197917 L 178.302083 217 " transform="matrix(0.75,0,0,0.75,0,0)"/>
<path style="fill:none;stroke-width:1;stroke-linecap:butt;stroke-linejoin:miter;stroke:rgb(100%,0%,0%);stroke-opacity:1;stroke-miterlimit:4;" d="M 176.197917 211.598958 L 174.697917 216.197917 " transform="matrix(0.75,0,0,0.75,0,0)"/>
<path style="fill:none;stroke-width:1;stroke-linecap:butt;stroke-linejoin:miter;stroke:rgb(100%,0%,0%);stroke-opacity:1;stroke-miterlimit:4;" d="M 172.901042 210.098958 L 171.098958 215.401042 " transform="matrix(0.75,0,0,0.75,0,0)"/>
<path style="fill:none;stroke-width:1;stroke-linecap:butt;stroke-linejoin:miter;stroke:rgb(0%,0%,0%);stroke-opacity:1;stroke-miterlimit:4;" d="M 136.098958 231.697917 L 135.598958 231.098958 " transform="matrix(0.75,0,0,0.75,0,0)"/>
<path style="fill:none;stroke-width:1;stroke-linecap:butt;stroke-linejoin:miter;stroke:rgb(0%,0%,0%);stroke-opacity:1;stroke-miterlimit:4;" d="M 138.901042 229.697917 L 137.901042 228.5 " transform="matrix(0.75,0,0,0.75,0,0)"/>
<path style="fill:none;stroke-width:1;stroke-linecap:butt;stroke-linejoin:miter;stroke:rgb(0%,0%,0%);stroke-opacity:1;stroke-miterlimit:4;" d="M 141.802083 227.802083 L 140.197917 226 " transform="matrix(0.75,0,0,0.75,0,0)"/>
<path style="fill:none;stroke-width:1;stroke-linecap:butt;stroke-linejoin:miter;stroke:rgb(0%,0%,0%);stroke-opacity:1;stroke-miterlimit:4;" d="M 144.598958 225.802083 L 142.5 223.401042 " transform="matrix(0.75,0,0,0.75,0,0)"/>
<path style="fill:none;stroke-width:1;stroke-linecap:butt;stroke-linejoin:miter;stroke:rgb(100%,0%,0%);stroke-opacity:1;stroke-miterlimit:4;" d="M 147.401042 223.802083 L 144.802083 220.802083 " transform="matrix(0.75,0,0,0.75,0,0)"/>
<path style="fill:none;stroke-width:1;stroke-linecap:butt;stroke-linejoin:miter;stroke:rgb(100%,0%,0%);stroke-opacity:1;stroke-miterlimit:4;" d="M 150.302083 221.802083 L 147.098958 218.302083 " transform="matrix(0.75,0,0,0.75,0,0)"/>
<path style="fill:none;stroke-width:1;stroke-linecap:butt;stroke-linejoin:miter;stroke:rgb(100%,0%,0%);stroke-opacity:1;stroke-miterlimit:4;" d="M 153.098958 219.901042 L 149.401042 215.697917 " transform="matrix(0.75,0,0,0.75,0,0)"/>
<path style="fill:none;stroke-width:2;stroke-linecap:butt;stroke-linejoin:miter;stroke:rgb(0%,0%,0%);stroke-opacity:1;stroke-miterlimit:4;" d="M 133.302083 233.697917 L 118.697917 228.697917 " transform="matrix(0.75,0,0,0.75,0,0)"/>
<path style="fill:none;stroke-width:2;stroke-linecap:butt;stroke-linejoin:miter;stroke:rgb(100%,0%,0%);stroke-opacity:1;stroke-miterlimit:4;" d="M 118.697917 228.697917 L 104.098958 223.802083 " transform="matrix(0.75,0,0,0.75,0,0)"/>
<path style="fill:none;stroke-width:2;stroke-linecap:butt;stroke-linejoin:miter;stroke:rgb(100%,0%,0%);stroke-opacity:1;stroke-miterlimit:4;" d="M 92 227.098958 L 81 236.697917 " transform="matrix(0.75,0,0,0.75,0,0)"/>
<path style="fill:none;stroke-width:2;stroke-linecap:butt;stroke-linejoin:miter;stroke:rgb(0%,0%,0%);stroke-opacity:1;stroke-miterlimit:4;" d="M 81 236.697917 L 70.098958 246.302083 " transform="matrix(0.75,0,0,0.75,0,0)"/>
<path style="fill-rule:evenodd;fill:rgb(0%,0%,0%);fill-opacity:1;stroke-width:0.5;stroke-linecap:butt;stroke-linejoin:miter;stroke:rgb(0%,0%,0%);stroke-opacity:1;stroke-miterlimit:4;" d="M 70.098958 246.302083 L 35.5 237.5 L 34.197917 231.197917 Z M 70.098958 246.302083 " transform="matrix(0.75,0,0,0.75,0,0)"/>
<path style="fill:none;stroke-width:2;stroke-linecap:butt;stroke-linejoin:miter;stroke:rgb(0%,0%,0%);stroke-opacity:1;stroke-miterlimit:4;" d="M 35.5 237.5 L 31.901042 219.598958 " transform="matrix(0.75,0,0,0.75,0,0)"/>
<path style="fill:none;stroke-width:2;stroke-linecap:butt;stroke-linejoin:miter;stroke:rgb(100%,0%,0%);stroke-opacity:1;stroke-miterlimit:4;" d="M 31.901042 219.598958 L 28.901042 204.697917 " transform="matrix(0.75,0,0,0.75,0,0)"/>
<path style="fill:none;stroke-width:2;stroke-linecap:butt;stroke-linejoin:miter;stroke:rgb(0%,0%,0%);stroke-opacity:1;stroke-miterlimit:4;" d="M 70.098958 246.302083 L 77.401042 282.802083 " transform="matrix(0.75,0,0,0.75,0,0)"/>
<path style="fill:none;stroke-width:1;stroke-linecap:butt;stroke-linejoin:miter;stroke:rgb(0%,0%,0%);stroke-opacity:1;stroke-miterlimit:4;" d="M 75 285.401042 L 74.5 284.901042 " transform="matrix(0.75,0,0,0.75,0,0)"/>
<path style="fill:none;stroke-width:1;stroke-linecap:butt;stroke-linejoin:miter;stroke:rgb(0%,0%,0%);stroke-opacity:1;stroke-miterlimit:4;" d="M 72.5 288 L 71.598958 287 " transform="matrix(0.75,0,0,0.75,0,0)"/>
<path style="fill:none;stroke-width:1;stroke-linecap:butt;stroke-linejoin:miter;stroke:rgb(0%,0%,0%);stroke-opacity:1;stroke-miterlimit:4;" d="M 70.098958 290.697917 L 68.697917 289.098958 " transform="matrix(0.75,0,0,0.75,0,0)"/>
<path style="fill:none;stroke-width:1;stroke-linecap:butt;stroke-linejoin:miter;stroke:rgb(0%,0%,0%);stroke-opacity:1;stroke-miterlimit:4;" d="M 67.598958 293.302083 L 65.802083 291.197917 " transform="matrix(0.75,0,0,0.75,0,0)"/>
<path style="fill:none;stroke-width:1;stroke-linecap:butt;stroke-linejoin:miter;stroke:rgb(0%,0%,100%);stroke-opacity:1;stroke-miterlimit:4;" d="M 65.197917 295.901042 L 62.901042 293.302083 " transform="matrix(0.75,0,0,0.75,0,0)"/>
<path style="fill:none;stroke-width:1;stroke-linecap:butt;stroke-linejoin:miter;stroke:rgb(0%,0%,100%);stroke-opacity:1;stroke-miterlimit:4;" d="M 62.697917 298.5 L 60 295.401042 " transform="matrix(0.75,0,0,0.75,0,0)"/>
<path style="fill:none;stroke-width:1;stroke-linecap:butt;stroke-linejoin:miter;stroke:rgb(0%,0%,100%);stroke-opacity:1;stroke-miterlimit:4;" d="M 60.302083 301.197917 L 57.098958 297.5 " transform="matrix(0.75,0,0,0.75,0,0)"/>
<path style="fill:none;stroke-width:1;stroke-linecap:butt;stroke-linejoin:miter;stroke:rgb(0%,0%,100%);stroke-opacity:1;stroke-miterlimit:4;" d="M 57.802083 303.802083 L 54.098958 299.598958 " transform="matrix(0.75,0,0,0.75,0,0)"/>
<path style="fill:none;stroke-width:2;stroke-linecap:butt;stroke-linejoin:miter;stroke:rgb(0%,0%,0%);stroke-opacity:1;stroke-miterlimit:4;" d="M 77.401042 282.802083 L 112.697917 294.697917 " transform="matrix(0.75,0,0,0.75,0,0)"/>
<path style="fill-rule:evenodd;fill:rgb(0%,0%,0%);fill-opacity:1;stroke-width:0.5;stroke-linecap:butt;stroke-linejoin:miter;stroke:rgb(0%,0%,0%);stroke-opacity:1;stroke-miterlimit:4;" d="M 112.697917 294.697917 L 116.901042 308.697917 L 114.197917 309.302083 Z M 112.697917 294.697917 " transform="matrix(0.75,0,0,0.75,0,0)"/>
<path style="fill-rule:evenodd;fill:rgb(100%,0%,0%);fill-opacity:1;stroke-width:0.5;stroke-linecap:butt;stroke-linejoin:miter;stroke:rgb(100%,0%,0%);stroke-opacity:1;stroke-miterlimit:4;" d="M 116.901042 308.697917 L 115.697917 323.901042 L 121.197917 322.802083 Z M 116.901042 308.697917 " transform="matrix(0.75,0,0,0.75,0,0)"/>
<path style="fill-rule:evenodd;fill:rgb(100%,0%,0%);fill-opacity:1;stroke-width:0.5;stroke-linecap:butt;stroke-linejoin:miter;stroke:rgb(100%,0%,0%);stroke-opacity:1;stroke-miterlimit:4;" d="M 116.901042 308.697917 L 114.197917 309.302083 L 115.697917 323.901042 Z M 116.901042 308.697917 " transform="matrix(0.75,0,0,0.75,0,0)"/>
<path style="fill:none;stroke-width:2;stroke-linecap:butt;stroke-linejoin:miter;stroke:rgb(0%,0%,0%);stroke-opacity:1;stroke-miterlimit:4;" d="M 112.697917 294.697917 L 140.598958 270.098958 " transform="matrix(0.75,0,0,0.75,0,0)"/>
<path style="fill:none;stroke-width:1;stroke-linecap:butt;stroke-linejoin:miter;stroke:rgb(0%,0%,0%);stroke-opacity:1;stroke-miterlimit:4;" d="M 144.197917 271 L 144 271.598958 " transform="matrix(0.75,0,0,0.75,0,0)"/>
<path style="fill:none;stroke-width:1;stroke-linecap:butt;stroke-linejoin:miter;stroke:rgb(0%,0%,0%);stroke-opacity:1;stroke-miterlimit:4;" d="M 147.802083 271.802083 L 147.401042 273.098958 " transform="matrix(0.75,0,0,0.75,0,0)"/>
<path style="fill:none;stroke-width:1;stroke-linecap:butt;stroke-linejoin:miter;stroke:rgb(0%,0%,0%);stroke-opacity:1;stroke-miterlimit:4;" d="M 151.401042 272.697917 L 150.697917 274.598958 " transform="matrix(0.75,0,0,0.75,0,0)"/>
<path style="fill:none;stroke-width:1;stroke-linecap:butt;stroke-linejoin:miter;stroke:rgb(0%,0%,0%);stroke-opacity:1;stroke-miterlimit:4;" d="M 155 273.5 L 154.098958 276.098958 " transform="matrix(0.75,0,0,0.75,0,0)"/>
<path style="fill:none;stroke-width:1;stroke-linecap:butt;stroke-linejoin:miter;stroke:rgb(100%,0%,0%);stroke-opacity:1;stroke-miterlimit:4;" d="M 158.598958 274.302083 L 157.5 277.697917 " transform="matrix(0.75,0,0,0.75,0,0)"/>
<path style="fill:none;stroke-width:1;stroke-linecap:butt;stroke-linejoin:miter;stroke:rgb(100%,0%,0%);stroke-opacity:1;stroke-miterlimit:4;" d="M 162.197917 275.197917 L 160.901042 279.197917 " transform="matrix(0.75,0,0,0.75,0,0)"/>
<path style="fill:none;stroke-width:1;stroke-linecap:butt;stroke-linejoin:miter;stroke:rgb(100%,0%,0%);stroke-opacity:1;stroke-miterlimit:4;" d="M 165.802083 276 L 164.302083 280.697917 " transform="matrix(0.75,0,0,0.75,0,0)"/>
<path style="fill:none;stroke-width:1;stroke-linecap:butt;stroke-linejoin:miter;stroke:rgb(100%,0%,0%);stroke-opacity:1;stroke-miterlimit:4;" d="M 169.401042 276.901042 L 167.598958 282.197917 " transform="matrix(0.75,0,0,0.75,0,0)"/>
<path style="fill:none;stroke-width:2;stroke-linecap:butt;stroke-linejoin:miter;stroke:rgb(0%,0%,0%);stroke-opacity:1;stroke-miterlimit:4;" d="M 196.401042 221 L 199.401042 235.901042 " transform="matrix(0.75,0,0,0.75,0,0)"/>
<path style="fill:none;stroke-width:2;stroke-linecap:butt;stroke-linejoin:miter;stroke:rgb(100%,0%,0%);stroke-opacity:1;stroke-miterlimit:4;" d="M 199.401042 235.901042 L 202.401042 250.901042 " transform="matrix(0.75,0,0,0.75,0,0)"/>
<path style="fill:none;stroke-width:2;stroke-linecap:butt;stroke-linejoin:miter;stroke:rgb(100%,0%,0%);stroke-opacity:1;stroke-miterlimit:4;" d="M 209.802083 259.5 L 224.401042 264.401042 " transform="matrix(0.75,0,0,0.75,0,0)"/>
<path style="fill:none;stroke-width:2;stroke-linecap:butt;stroke-linejoin:miter;stroke:rgb(0%,0%,0%);stroke-opacity:1;stroke-miterlimit:4;" d="M 224.401042 264.401042 L 239 269.302083 " transform="matrix(0.75,0,0,0.75,0,0)"/>
<path style="fill:none;stroke-width:2;stroke-linecap:butt;stroke-linejoin:miter;stroke:rgb(0%,0%,0%);stroke-opacity:1;stroke-miterlimit:4;" d="M 239 269.302083 L 246.302083 305.802083 " transform="matrix(0.75,0,0,0.75,0,0)"/>
<path style="fill:none;stroke-width:2;stroke-linecap:butt;stroke-linejoin:miter;stroke:rgb(0%,0%,0%);stroke-opacity:1;stroke-miterlimit:4;" d="M 246.302083 305.802083 L 281.5 317.598958 " transform="matrix(0.75,0,0,0.75,0,0)"/>
<path style="fill:none;stroke-width:1;stroke-linecap:butt;stroke-linejoin:miter;stroke:rgb(0%,0%,0%);stroke-opacity:1;stroke-miterlimit:4;" d="M 282.598958 321.197917 L 281.901042 321.302083 " transform="matrix(0.75,0,0,0.75,0,0)"/>
<path style="fill:none;stroke-width:1;stroke-linecap:butt;stroke-linejoin:miter;stroke:rgb(0%,0%,0%);stroke-opacity:1;stroke-miterlimit:4;" d="M 283.598958 324.697917 L 282.302083 325 " transform="matrix(0.75,0,0,0.75,0,0)"/>
<path style="fill:none;stroke-width:1;stroke-linecap:butt;stroke-linejoin:miter;stroke:rgb(0%,0%,0%);stroke-opacity:1;stroke-miterlimit:4;" d="M 284.697917 328.197917 L 282.697917 328.598958 " transform="matrix(0.75,0,0,0.75,0,0)"/>
<path style="fill:none;stroke-width:1;stroke-linecap:butt;stroke-linejoin:miter;stroke:rgb(0%,0%,0%);stroke-opacity:1;stroke-miterlimit:4;" d="M 285.802083 331.697917 L 283 332.302083 " transform="matrix(0.75,0,0,0.75,0,0)"/>
<path style="fill:none;stroke-width:1;stroke-linecap:butt;stroke-linejoin:miter;stroke:rgb(0%,0%,100%);stroke-opacity:1;stroke-miterlimit:4;" d="M 286.802083 335.302083 L 283.401042 335.901042 " transform="matrix(0.75,0,0,0.75,0,0)"/>
<path style="fill:none;stroke-width:1;stroke-linecap:butt;stroke-linejoin:miter;stroke:rgb(0%,0%,100%);stroke-opacity:1;stroke-miterlimit:4;" d="M 287.901042 338.802083 L 283.802083 339.598958 " transform="matrix(0.75,0,0,0.75,0,0)"/>
<path style="fill:none;stroke-width:1;stroke-linecap:butt;stroke-linejoin:miter;stroke:rgb(0%,0%,100%);stroke-opacity:1;stroke-miterlimit:4;" d="M 289 342.302083 L 284.197917 343.302083 " transform="matrix(0.75,0,0,0.75,0,0)"/>
<path style="fill:none;stroke-width:1;stroke-linecap:butt;stroke-linejoin:miter;stroke:rgb(0%,0%,100%);stroke-opacity:1;stroke-miterlimit:4;" d="M 290 345.802083 L 284.598958 346.901042 " transform="matrix(0.75,0,0,0.75,0,0)"/>
<path style="fill:none;stroke-width:2;stroke-linecap:butt;stroke-linejoin:miter;stroke:rgb(0%,0%,0%);stroke-opacity:1;stroke-miterlimit:4;" d="M 281.5 317.598958 L 309.401042 293.098958 " transform="matrix(0.75,0,0,0.75,0,0)"/>
<path style="fill:none;stroke-width:1;stroke-linecap:butt;stroke-linejoin:miter;stroke:rgb(0%,0%,0%);stroke-opacity:1;stroke-miterlimit:4;" d="M 312.802083 294.598958 L 313 293.901042 " transform="matrix(0.75,0,0,0.75,0,0)"/>
<path style="fill:none;stroke-width:1;stroke-linecap:butt;stroke-linejoin:miter;stroke:rgb(0%,0%,0%);stroke-opacity:1;stroke-miterlimit:4;" d="M 316.197917 296.197917 L 316.697917 294.697917 " transform="matrix(0.75,0,0,0.75,0,0)"/>
<path style="fill:none;stroke-width:1;stroke-linecap:butt;stroke-linejoin:miter;stroke:rgb(0%,0%,0%);stroke-opacity:1;stroke-miterlimit:4;" d="M 319.5 297.697917 L 320.302083 295.5 " transform="matrix(0.75,0,0,0.75,0,0)"/>
<path style="fill:none;stroke-width:1;stroke-linecap:butt;stroke-linejoin:miter;stroke:rgb(0%,0%,0%);stroke-opacity:1;stroke-miterlimit:4;" d="M 322.901042 299.302083 L 323.901042 296.302083 " transform="matrix(0.75,0,0,0.75,0,0)"/>
<path style="fill:none;stroke-width:1;stroke-linecap:butt;stroke-linejoin:miter;stroke:rgb(100%,0%,0%);stroke-opacity:1;stroke-miterlimit:4;" d="M 326.197917 300.802083 L 327.5 297.098958 " transform="matrix(0.75,0,0,0.75,0,0)"/>
<path style="fill:none;stroke-width:1;stroke-linecap:butt;stroke-linejoin:miter;stroke:rgb(100%,0%,0%);stroke-opacity:1;stroke-miterlimit:4;" d="M 329.598958 302.401042 L 331.098958 297.901042 " transform="matrix(0.75,0,0,0.75,0,0)"/>
<path style="fill:none;stroke-width:1;stroke-linecap:butt;stroke-linejoin:miter;stroke:rgb(100%,0%,0%);stroke-opacity:1;stroke-miterlimit:4;" d="M 333 304 L 334.697917 298.697917 " transform="matrix(0.75,0,0,0.75,0,0)"/>
<path style="fill-rule:evenodd;fill:rgb(0%,0%,0%);fill-opacity:1;stroke-width:0.5;stroke-linecap:butt;stroke-linejoin:miter;stroke:rgb(0%,0%,0%);stroke-opacity:1;stroke-miterlimit:4;" d="M 372.598958 280.401042 L 363.197917 290.5 L 361.302083 288.401042 Z M 372.598958 280.401042 " transform="matrix(0.75,0,0,0.75,0,0)"/>
<path style="fill-rule:evenodd;fill:rgb(100%,0%,0%);fill-opacity:1;stroke-width:0.5;stroke-linecap:butt;stroke-linejoin:miter;stroke:rgb(100%,0%,0%);stroke-opacity:1;stroke-miterlimit:4;" d="M 363.197917 290.5 L 350.098958 296.5 L 353.802083 300.598958 Z M 363.197917 290.5 " transform="matrix(0.75,0,0,0.75,0,0)"/>
<path style="fill-rule:evenodd;fill:rgb(100%,0%,0%);fill-opacity:1;stroke-width:0.5;stroke-linecap:butt;stroke-linejoin:miter;stroke:rgb(100%,0%,0%);stroke-opacity:1;stroke-miterlimit:4;" d="M 363.197917 290.5 L 361.302083 288.401042 L 350.098958 296.5 Z M 363.197917 290.5 " transform="matrix(0.75,0,0,0.75,0,0)"/>
<path style="fill:none;stroke-width:2;stroke-linecap:butt;stroke-linejoin:miter;stroke:rgb(0%,0%,0%);stroke-opacity:1;stroke-miterlimit:4;" d="M 372.598958 280.401042 L 407.802083 292.302083 " transform="matrix(0.75,0,0,0.75,0,0)"/>
<path style="fill:none;stroke-width:1;stroke-linecap:butt;stroke-linejoin:miter;stroke:rgb(0%,0%,0%);stroke-opacity:1;stroke-miterlimit:4;" d="M 408.901042 295.802083 L 408.197917 295.901042 " transform="matrix(0.75,0,0,0.75,0,0)"/>
<path style="fill:none;stroke-width:1;stroke-linecap:butt;stroke-linejoin:miter;stroke:rgb(0%,0%,0%);stroke-opacity:1;stroke-miterlimit:4;" d="M 409.901042 299.302083 L 408.598958 299.598958 " transform="matrix(0.75,0,0,0.75,0,0)"/>
<path style="fill:none;stroke-width:1;stroke-linecap:butt;stroke-linejoin:miter;stroke:rgb(0%,0%,0%);stroke-opacity:1;stroke-miterlimit:4;" d="M 411 302.802083 L 408.901042 303.302083 " transform="matrix(0.75,0,0,0.75,0,0)"/>
<path style="fill:none;stroke-width:1;stroke-linecap:butt;stroke-linejoin:miter;stroke:rgb(0%,0%,0%);stroke-opacity:1;stroke-miterlimit:4;" d="M 412.098958 306.401042 L 409.302083 306.901042 " transform="matrix(0.75,0,0,0.75,0,0)"/>
<path style="fill:none;stroke-width:1;stroke-linecap:butt;stroke-linejoin:miter;stroke:rgb(0%,0%,100%);stroke-opacity:1;stroke-miterlimit:4;" d="M 413.098958 309.901042 L 409.697917 310.598958 " transform="matrix(0.75,0,0,0.75,0,0)"/>
<path style="fill:none;stroke-width:1;stroke-linecap:butt;stroke-linejoin:miter;stroke:rgb(0%,0%,100%);stroke-opacity:1;stroke-miterlimit:4;" d="M 414.197917 313.401042 L 410.098958 314.197917 " transform="matrix(0.75,0,0,0.75,0,0)"/>
<path style="fill:none;stroke-width:1;stroke-linecap:butt;stroke-linejoin:miter;stroke:rgb(0%,0%,100%);stroke-opacity:1;stroke-miterlimit:4;" d="M 415.302083 316.901042 L 410.5 317.901042 " transform="matrix(0.75,0,0,0.75,0,0)"/>
<path style="fill:none;stroke-width:1;stroke-linecap:butt;stroke-linejoin:miter;stroke:rgb(0%,0%,100%);stroke-opacity:1;stroke-miterlimit:4;" d="M 416.302083 320.5 L 410.802083 321.598958 " transform="matrix(0.75,0,0,0.75,0,0)"/>
<path style="fill:none;stroke-width:2;stroke-linecap:butt;stroke-linejoin:miter;stroke:rgb(0%,0%,0%);stroke-opacity:1;stroke-miterlimit:4;" d="M 407.802083 292.302083 L 435.697917 267.697917 " transform="matrix(0.75,0,0,0.75,0,0)"/>
<path style="fill:none;stroke-width:2;stroke-linecap:butt;stroke-linejoin:miter;stroke:rgb(0%,0%,0%);stroke-opacity:1;stroke-miterlimit:4;" d="M 435.697917 267.697917 L 428.401042 231.197917 " transform="matrix(0.75,0,0,0.75,0,0)"/>
<path style="fill:none;stroke-width:1;stroke-linecap:butt;stroke-linejoin:miter;stroke:rgb(0%,0%,0%);stroke-opacity:1;stroke-miterlimit:4;" d="M 430.802083 228.598958 L 431.302083 229.098958 " transform="matrix(0.75,0,0,0.75,0,0)"/>
<path style="fill:none;stroke-width:1;stroke-linecap:butt;stroke-linejoin:miter;stroke:rgb(0%,0%,0%);stroke-opacity:1;stroke-miterlimit:4;" d="M 433.302083 226 L 434.197917 227 " transform="matrix(0.75,0,0,0.75,0,0)"/>
<path style="fill:none;stroke-width:1;stroke-linecap:butt;stroke-linejoin:miter;stroke:rgb(0%,0%,0%);stroke-opacity:1;stroke-miterlimit:4;" d="M 435.802083 223.401042 L 437.098958 224.901042 " transform="matrix(0.75,0,0,0.75,0,0)"/>
<path style="fill:none;stroke-width:1;stroke-linecap:butt;stroke-linejoin:miter;stroke:rgb(0%,0%,0%);stroke-opacity:1;stroke-miterlimit:4;" d="M 438.197917 220.802083 L 440 222.802083 " transform="matrix(0.75,0,0,0.75,0,0)"/>
<path style="fill:none;stroke-width:1;stroke-linecap:butt;stroke-linejoin:miter;stroke:rgb(0%,0%,100%);stroke-opacity:1;stroke-miterlimit:4;" d="M 440.697917 218.098958 L 443 220.697917 " transform="matrix(0.75,0,0,0.75,0,0)"/>
<path style="fill:none;stroke-width:1;stroke-linecap:butt;stroke-linejoin:miter;stroke:rgb(0%,0%,100%);stroke-opacity:1;stroke-miterlimit:4;" d="M 443.098958 215.5 L 445.901042 218.598958 " transform="matrix(0.75,0,0,0.75,0,0)"/>
<path style="fill:none;stroke-width:1;stroke-linecap:butt;stroke-linejoin:miter;stroke:rgb(0%,0%,100%);stroke-opacity:1;stroke-miterlimit:4;" d="M 445.598958 212.901042 L 448.802083 216.5 " transform="matrix(0.75,0,0,0.75,0,0)"/>
<path style="fill:none;stroke-width:1;stroke-linecap:butt;stroke-linejoin:miter;stroke:rgb(0%,0%,100%);stroke-opacity:1;stroke-miterlimit:4;" d="M 448 210.302083 L 451.697917 214.401042 " transform="matrix(0.75,0,0,0.75,0,0)"/>
<path style="fill:none;stroke-width:2;stroke-linecap:butt;stroke-linejoin:miter;stroke:rgb(0%,0%,0%);stroke-opacity:1;stroke-miterlimit:4;" d="M 428.401042 231.197917 L 393.197917 219.401042 " transform="matrix(0.75,0,0,0.75,0,0)"/>
<path style="fill-rule:evenodd;fill:rgb(0%,0%,0%);fill-opacity:1;stroke-width:0.5;stroke-linecap:butt;stroke-linejoin:miter;stroke:rgb(0%,0%,0%);stroke-opacity:1;stroke-miterlimit:4;" d="M 393.197917 219.401042 L 388.901042 205.401042 L 391.697917 204.802083 Z M 393.197917 219.401042 " transform="matrix(0.75,0,0,0.75,0,0)"/>
<path style="fill-rule:evenodd;fill:rgb(100%,0%,0%);fill-opacity:1;stroke-width:0.5;stroke-linecap:butt;stroke-linejoin:miter;stroke:rgb(100%,0%,0%);stroke-opacity:1;stroke-miterlimit:4;" d="M 388.901042 205.401042 L 390.197917 190.302083 L 384.697917 191.401042 Z M 388.901042 205.401042 " transform="matrix(0.75,0,0,0.75,0,0)"/>
<path style="fill-rule:evenodd;fill:rgb(100%,0%,0%);fill-opacity:1;stroke-width:0.5;stroke-linecap:butt;stroke-linejoin:miter;stroke:rgb(100%,0%,0%);stroke-opacity:1;stroke-miterlimit:4;" d="M 388.901042 205.401042 L 391.697917 204.802083 L 390.197917 190.302083 Z M 388.901042 205.401042 " transform="matrix(0.75,0,0,0.75,0,0)"/>
<path style="fill:none;stroke-width:2;stroke-linecap:butt;stroke-linejoin:miter;stroke:rgb(0%,0%,0%);stroke-opacity:1;stroke-miterlimit:4;" d="M 393.197917 219.401042 L 365.302083 243.901042 " transform="matrix(0.75,0,0,0.75,0,0)"/>
<path style="fill:none;stroke-width:1;stroke-linecap:butt;stroke-linejoin:miter;stroke:rgb(0%,0%,0%);stroke-opacity:1;stroke-miterlimit:4;" d="M 361.598958 243.098958 L 361.901042 242.401042 " transform="matrix(0.75,0,0,0.75,0,0)"/>
<path style="fill:none;stroke-width:1;stroke-linecap:butt;stroke-linejoin:miter;stroke:rgb(0%,0%,0%);stroke-opacity:1;stroke-miterlimit:4;" d="M 358 242.197917 L 358.5 240.901042 " transform="matrix(0.75,0,0,0.75,0,0)"/>
<path style="fill:none;stroke-width:1;stroke-linecap:butt;stroke-linejoin:miter;stroke:rgb(0%,0%,0%);stroke-opacity:1;stroke-miterlimit:4;" d="M 354.401042 241.401042 L 355.098958 239.401042 " transform="matrix(0.75,0,0,0.75,0,0)"/>
<path style="fill:none;stroke-width:1;stroke-linecap:butt;stroke-linejoin:miter;stroke:rgb(0%,0%,0%);stroke-opacity:1;stroke-miterlimit:4;" d="M 350.802083 240.5 L 351.697917 237.901042 " transform="matrix(0.75,0,0,0.75,0,0)"/>
<path style="fill:none;stroke-width:1;stroke-linecap:butt;stroke-linejoin:miter;stroke:rgb(100%,0%,0%);stroke-opacity:1;stroke-miterlimit:4;" d="M 347.197917 239.697917 L 348.302083 236.401042 " transform="matrix(0.75,0,0,0.75,0,0)"/>
<path style="fill:none;stroke-width:1;stroke-linecap:butt;stroke-linejoin:miter;stroke:rgb(100%,0%,0%);stroke-opacity:1;stroke-miterlimit:4;" d="M 343.598958 238.802083 L 345 234.901042 " transform="matrix(0.75,0,0,0.75,0,0)"/>
<path style="fill:none;stroke-width:1;stroke-linecap:butt;stroke-linejoin:miter;stroke:rgb(100%,0%,0%);stroke-opacity:1;stroke-miterlimit:4;" d="M 340 238 L 341.598958 233.401042 " transform="matrix(0.75,0,0,0.75,0,0)"/>
<path style="fill:none;stroke-width:1;stroke-linecap:butt;stroke-linejoin:miter;stroke:rgb(100%,0%,0%);stroke-opacity:1;stroke-miterlimit:4;" d="M 336.401042 237.098958 L 338.197917 231.901042 " transform="matrix(0.75,0,0,0.75,0,0)"/>
<path style="fill:none;stroke-width:2;stroke-linecap:butt;stroke-linejoin:miter;stroke:rgb(0%,0%,0%);stroke-opacity:1;stroke-miterlimit:4;" d="M 309.401042 293.098958 L 306.401042 278.197917 " transform="matrix(0.75,0,0,0.75,0,0)"/>
<path style="fill:none;stroke-width:2;stroke-linecap:butt;stroke-linejoin:miter;stroke:rgb(100%,0%,0%);stroke-opacity:1;stroke-miterlimit:4;" d="M 306.401042 278.197917 L 303.5 263.302083 " transform="matrix(0.75,0,0,0.75,0,0)"/>
<path style="fill:none;stroke-width:2;stroke-linecap:butt;stroke-linejoin:miter;stroke:rgb(100%,0%,0%);stroke-opacity:1;stroke-miterlimit:4;" d="M 296 254.598958 L 281.5 249.697917 " transform="matrix(0.75,0,0,0.75,0,0)"/>
<path style="fill:none;stroke-width:2;stroke-linecap:butt;stroke-linejoin:miter;stroke:rgb(0%,0%,0%);stroke-opacity:1;stroke-miterlimit:4;" d="M 281.5 249.697917 L 266.901042 244.697917 " transform="matrix(0.75,0,0,0.75,0,0)"/>
<path style="fill:none;stroke-width:2;stroke-linecap:butt;stroke-linejoin:miter;stroke:rgb(0%,0%,0%);stroke-opacity:1;stroke-miterlimit:4;" d="M 266.901042 244.697917 L 259.5 208.302083 " transform="matrix(0.75,0,0,0.75,0,0)"/>
<path style="fill-rule:evenodd;fill:rgb(0%,0%,0%);fill-opacity:1;stroke-width:0.5;stroke-linecap:butt;stroke-linejoin:miter;stroke:rgb(0%,0%,0%);stroke-opacity:1;stroke-miterlimit:4;" d="M 259.5 208.302083 L 268.901042 198.197917 L 270.802083 200.197917 Z M 259.5 208.302083 " transform="matrix(0.75,0,0,0.75,0,0)"/>
<path style="fill-rule:evenodd;fill:rgb(100%,0%,0%);fill-opacity:1;stroke-width:0.5;stroke-linecap:butt;stroke-linejoin:miter;stroke:rgb(100%,0%,0%);stroke-opacity:1;stroke-miterlimit:4;" d="M 268.901042 198.197917 L 282 192.197917 L 278.302083 188 Z M 268.901042 198.197917 " transform="matrix(0.75,0,0,0.75,0,0)"/>
<path style="fill-rule:evenodd;fill:rgb(100%,0%,0%);fill-opacity:1;stroke-width:0.5;stroke-linecap:butt;stroke-linejoin:miter;stroke:rgb(100%,0%,0%);stroke-opacity:1;stroke-miterlimit:4;" d="M 268.901042 198.197917 L 270.802083 200.197917 L 282 192.197917 Z M 268.901042 198.197917 " transform="matrix(0.75,0,0,0.75,0,0)"/>
<path style="fill:none;stroke-width:2;stroke-linecap:butt;stroke-linejoin:miter;stroke:rgb(0%,0%,0%);stroke-opacity:1;stroke-miterlimit:4;" d="M 259.5 208.302083 L 224.302083 196.401042 " transform="matrix(0.75,0,0,0.75,0,0)"/>
<path style="fill:none;stroke-width:2;stroke-linecap:butt;stroke-linejoin:miter;stroke:rgb(0%,0%,0%);stroke-opacity:1;stroke-miterlimit:4;" d="M 140.598958 270.098958 L 133.302083 233.697917 " transform="matrix(0.75,0,0,0.75,0,0)"/>
<path style="fill:none;stroke-width:2;stroke-linecap:butt;stroke-linejoin:miter;stroke:rgb(0%,0%,0%);stroke-opacity:1;stroke-miterlimit:4;" d="M 266.901042 244.697917 L 239 269.302083 " transform="matrix(0.75,0,0,0.75,0,0)"/>
<path style="fill:none;stroke-width:2;stroke-linecap:butt;stroke-linejoin:miter;stroke:rgb(0%,0%,0%);stroke-opacity:1;stroke-miterlimit:4;" d="M 365.302083 243.901042 L 372.598958 280.401042 " transform="matrix(0.75,0,0,0.75,0,0)"/>
<path style="fill-rule:evenodd;fill:rgb(0%,0%,0%);fill-opacity:1;stroke-width:0.5;stroke-linecap:butt;stroke-linejoin:miter;stroke:rgb(0%,0%,0%);stroke-opacity:1;stroke-miterlimit:4;" d="M 239 269.302083 L 219.5 290.197917 L 215.802083 286 Z M 239 269.302083 " transform="matrix(0.75,0,0,0.75,0,0)"/>
<path style="fill:none;stroke-width:1;stroke-linecap:butt;stroke-linejoin:miter;stroke:rgb(0%,0%,0%);stroke-opacity:1;stroke-miterlimit:4;" d="M 269.302083 242.098958 L 269.802083 242.598958 " transform="matrix(0.75,0,0,0.75,0,0)"/>
<path style="fill:none;stroke-width:1;stroke-linecap:butt;stroke-linejoin:miter;stroke:rgb(0%,0%,0%);stroke-opacity:1;stroke-miterlimit:4;" d="M 271.697917 239.5 L 272.697917 240.598958 " transform="matrix(0.75,0,0,0.75,0,0)"/>
<path style="fill:none;stroke-width:1;stroke-linecap:butt;stroke-linejoin:miter;stroke:rgb(0%,0%,0%);stroke-opacity:1;stroke-miterlimit:4;" d="M 274.197917 236.901042 L 275.598958 238.5 " transform="matrix(0.75,0,0,0.75,0,0)"/>
<path style="fill:none;stroke-width:1;stroke-linecap:butt;stroke-linejoin:miter;stroke:rgb(0%,0%,0%);stroke-opacity:1;stroke-miterlimit:4;" d="M 276.598958 234.302083 L 278.5 236.401042 " transform="matrix(0.75,0,0,0.75,0,0)"/>
<path style="fill:none;stroke-width:1;stroke-linecap:butt;stroke-linejoin:miter;stroke:rgb(0%,0%,0%);stroke-opacity:1;stroke-miterlimit:4;" d="M 279.098958 231.697917 L 281.401042 234.302083 " transform="matrix(0.75,0,0,0.75,0,0)"/>
<path style="fill:none;stroke-width:1;stroke-linecap:butt;stroke-linejoin:miter;stroke:rgb(0%,0%,0%);stroke-opacity:1;stroke-miterlimit:4;" d="M 281.5 229.098958 L 284.302083 232.197917 " transform="matrix(0.75,0,0,0.75,0,0)"/>
<path style="fill:none;stroke-width:1;stroke-linecap:butt;stroke-linejoin:miter;stroke:rgb(0%,0%,0%);stroke-opacity:1;stroke-miterlimit:4;" d="M 283.901042 226.5 L 287.197917 230.098958 " transform="matrix(0.75,0,0,0.75,0,0)"/>
<path style="fill:none;stroke-width:1;stroke-linecap:butt;stroke-linejoin:miter;stroke:rgb(0%,0%,0%);stroke-opacity:1;stroke-miterlimit:4;" d="M 286.401042 223.901042 L 290.098958 228 " transform="matrix(0.75,0,0,0.75,0,0)"/>
<path style="fill:none;stroke-width:2;stroke-linecap:butt;stroke-linejoin:miter;stroke:rgb(0%,0%,0%);stroke-opacity:1;stroke-miterlimit:4;" d="M 222.901042 197.598958 L 224.302083 196.401042 L 226.098958 197 " transform="matrix(0.75,0,0,0.75,0,0)"/>
<path style="fill:none;stroke-width:2;stroke-linecap:butt;stroke-linejoin:miter;stroke:rgb(0%,0%,0%);stroke-opacity:1;stroke-miterlimit:4;" d="M 197.802083 219.697917 L 196.401042 221 L 196.598958 221.697917 " transform="matrix(0.75,0,0,0.75,0,0)"/>
<path style="fill:none;stroke-width:2;stroke-linecap:butt;stroke-linejoin:miter;stroke:rgb(0%,0%,0%);stroke-opacity:1;stroke-miterlimit:4;" d="M 132.5 233.401042 L 133.302083 233.697917 L 133.598958 235.5 " transform="matrix(0.75,0,0,0.75,0,0)"/>
<path style="fill:none;stroke-width:2;stroke-linecap:butt;stroke-linejoin:miter;stroke:rgb(0%,0%,0%);stroke-opacity:1;stroke-miterlimit:4;" d="M 70.697917 245.901042 L 70.098958 246.302083 L 70.5 248.197917 " transform="matrix(0.75,0,0,0.75,0,0)"/>
<path style="fill:none;stroke-width:2;stroke-linecap:butt;stroke-linejoin:miter;stroke:rgb(0%,0%,0%);stroke-opacity:1;stroke-miterlimit:4;" d="M 77.098958 281 L 77.401042 282.802083 L 79.197917 283.401042 " transform="matrix(0.75,0,0,0.75,0,0)"/>
<path style="fill:none;stroke-width:2;stroke-linecap:butt;stroke-linejoin:miter;stroke:rgb(0%,0%,0%);stroke-opacity:1;stroke-miterlimit:4;" d="M 110.901042 294.098958 L 112.697917 294.697917 L 114.098958 293.5 " transform="matrix(0.75,0,0,0.75,0,0)"/>
<path style="fill:none;stroke-width:2;stroke-linecap:butt;stroke-linejoin:miter;stroke:rgb(0%,0%,0%);stroke-opacity:1;stroke-miterlimit:4;" d="M 139.197917 271.302083 L 140.598958 270.098958 L 140.197917 268.302083 " transform="matrix(0.75,0,0,0.75,0,0)"/>
<path style="fill:none;stroke-width:2;stroke-linecap:butt;stroke-linejoin:miter;stroke:rgb(0%,0%,0%);stroke-opacity:1;stroke-miterlimit:4;" d="M 245.901042 303.901042 L 246.302083 305.802083 L 248.098958 306.401042 " transform="matrix(0.75,0,0,0.75,0,0)"/>
<path style="fill:none;stroke-width:2;stroke-linecap:butt;stroke-linejoin:miter;stroke:rgb(0%,0%,0%);stroke-opacity:1;stroke-miterlimit:4;" d="M 279.802083 317.098958 L 281.5 317.598958 L 282.901042 316.401042 " transform="matrix(0.75,0,0,0.75,0,0)"/>
<path style="fill:none;stroke-width:2;stroke-linecap:butt;stroke-linejoin:miter;stroke:rgb(0%,0%,0%);stroke-opacity:1;stroke-miterlimit:4;" d="M 308 294.302083 L 309.401042 293.098958 L 309.302083 292.302083 " transform="matrix(0.75,0,0,0.75,0,0)"/>
<path style="fill:none;stroke-width:2;stroke-linecap:butt;stroke-linejoin:miter;stroke:rgb(0%,0%,0%);stroke-opacity:1;stroke-miterlimit:4;" d="M 374.302083 281 L 372.598958 280.401042 L 372.197917 278.598958 " transform="matrix(0.75,0,0,0.75,0,0)"/>
<path style="fill:none;stroke-width:2;stroke-linecap:butt;stroke-linejoin:miter;stroke:rgb(0%,0%,0%);stroke-opacity:1;stroke-miterlimit:4;" d="M 406 291.697917 L 407.802083 292.302083 L 409.197917 291 " transform="matrix(0.75,0,0,0.75,0,0)"/>
<path style="fill:none;stroke-width:2;stroke-linecap:butt;stroke-linejoin:miter;stroke:rgb(0%,0%,0%);stroke-opacity:1;stroke-miterlimit:4;" d="M 434.302083 268.901042 L 435.697917 267.697917 L 435.401042 265.901042 " transform="matrix(0.75,0,0,0.75,0,0)"/>
<path style="fill:none;stroke-width:2;stroke-linecap:butt;stroke-linejoin:miter;stroke:rgb(0%,0%,0%);stroke-opacity:1;stroke-miterlimit:4;" d="M 428.802083 233.098958 L 428.401042 231.197917 L 426.598958 230.697917 " transform="matrix(0.75,0,0,0.75,0,0)"/>
<path style="fill:none;stroke-width:2;stroke-linecap:butt;stroke-linejoin:miter;stroke:rgb(0%,0%,0%);stroke-opacity:1;stroke-miterlimit:4;" d="M 394.901042 220 L 393.197917 219.401042 L 391.802083 220.598958 " transform="matrix(0.75,0,0,0.75,0,0)"/>
<path style="fill:none;stroke-width:2;stroke-linecap:butt;stroke-linejoin:miter;stroke:rgb(0%,0%,0%);stroke-opacity:1;stroke-miterlimit:4;" d="M 366.598958 242.697917 L 365.302083 243.901042 L 365.598958 245.802083 " transform="matrix(0.75,0,0,0.75,0,0)"/>
<path style="fill:none;stroke-width:2;stroke-linecap:butt;stroke-linejoin:miter;stroke:rgb(0%,0%,0%);stroke-opacity:1;stroke-miterlimit:4;" d="M 259.901042 210.098958 L 259.5 208.302083 L 257.802083 207.697917 " transform="matrix(0.75,0,0,0.75,0,0)"/>
<path style=" stroke:none;fill-rule:nonzero;fill:rgb(0%,0%,100%);fill-opacity:1;" d="M 152.023438 116.023438 L 153.074219 116.023438 L 153.074219 119.398438 L 157.125 119.398438 L 157.125 116.023438 L 158.175781 116.023438 L 158.175781 123.898438 L 157.125 123.898438 L 157.125 120.226562 L 153.074219 120.226562 L 153.074219 123.898438 L 152.023438 123.898438 L 152.023438 116.023438 "/>
<path style=" stroke:none;fill-rule:nonzero;fill:rgb(0%,0%,100%);fill-opacity:1;" d="M 161.023438 116.023438 L 163.574219 120.226562 C 163.773438 120.476562 164 120.851562 164.25 121.351562 C 164.550781 121.851562 164.699219 122.125 164.699219 122.175781 L 164.699219 116.023438 L 165.75 116.023438 L 165.75 123.898438 L 164.625 123.898438 L 161.851562 119.324219 C 161.648438 118.976562 161.425781 118.601562 161.175781 118.199219 C 160.976562 117.800781 160.851562 117.523438 160.800781 117.375 L 160.800781 123.898438 L 159.75 123.898438 L 159.75 116.023438 L 161.023438 116.023438 "/>
<path style=" stroke:none;fill-rule:nonzero;fill:rgb(100%,0%,0%);fill-opacity:1;" d="M 117.226562 156.824219 C 117.226562 155.574219 117.550781 154.601562 118.199219 153.898438 C 118.800781 153.199219 119.699219 152.851562 120.898438 152.851562 C 122.050781 152.851562 122.949219 153.199219 123.601562 153.898438 C 124.199219 154.601562 124.5 155.574219 124.5 156.824219 C 124.5 158.125 124.175781 159.125 123.523438 159.824219 C 122.925781 160.574219 122.050781 160.949219 120.898438 160.949219 C 119.75 160.949219 118.851562 160.574219 118.199219 159.824219 C 117.550781 159.125 117.226562 158.125 117.226562 156.824219 M 120.898438 160.050781 C 121.699219 160.050781 122.300781 159.773438 122.699219 159.226562 C 123.148438 158.675781 123.375 157.875 123.375 156.824219 C 123.375 155.773438 123.148438 155 122.699219 154.5 C 122.300781 153.949219 121.699219 153.675781 120.898438 153.675781 C 120.101562 153.675781 119.476562 153.949219 119.023438 154.5 C 118.574219 155 118.351562 155.773438 118.351562 156.824219 C 118.351562 157.875 118.574219 158.675781 119.023438 159.226562 C 119.476562 159.773438 120.101562 160.050781 120.898438 160.050781 "/>
<path style=" stroke:none;fill-rule:nonzero;fill:rgb(100%,0%,0%);fill-opacity:1;" d="M 69.898438 166.351562 C 69.898438 165.101562 70.199219 164.125 70.800781 163.425781 C 71.449219 162.675781 72.351562 162.300781 73.5 162.300781 C 74.699219 162.300781 75.601562 162.675781 76.199219 163.425781 C 76.851562 164.125 77.175781 165.101562 77.175781 166.351562 C 77.175781 167.648438 76.851562 168.648438 76.199219 169.351562 C 75.550781 170.101562 74.648438 170.476562 73.5 170.476562 C 72.351562 170.476562 71.449219 170.101562 70.800781 169.351562 C 70.199219 168.648438 69.898438 167.648438 69.898438 166.351562 M 73.5 169.574219 C 74.300781 169.574219 74.925781 169.300781 75.375 168.75 C 75.824219 168.199219 76.050781 167.398438 76.050781 166.351562 C 76.050781 165.300781 75.824219 164.523438 75.375 164.023438 C 74.925781 163.476562 74.300781 163.199219 73.5 163.199219 C 72.699219 163.199219 72.074219 163.476562 71.625 164.023438 C 71.226562 164.523438 71.023438 165.300781 71.023438 166.351562 C 71.023438 167.398438 71.226562 168.199219 71.625 168.75 C 72.074219 169.300781 72.699219 169.574219 73.5 169.574219 "/>
<path style=" stroke:none;fill-rule:nonzero;fill:rgb(100%,0%,0%);fill-opacity:1;" d="M 17.023438 148.5 C 17.023438 147.25 17.351562 146.273438 18 145.574219 C 18.601562 144.875 19.5 144.523438 20.699219 144.523438 C 21.851562 144.523438 22.726562 144.875 23.324219 145.574219 C 23.976562 146.273438 24.300781 147.25 24.300781 148.5 C 24.300781 149.800781 23.976562 150.800781 23.324219 151.5 C 22.726562 152.25 21.851562 152.625 20.699219 152.625 C 19.5 152.625 18.601562 152.25 18 151.5 C 17.351562 150.800781 17.023438 149.800781 17.023438 148.5 M 20.699219 151.726562 C 21.5 151.726562 22.101562 151.449219 22.5 150.898438 C 22.949219 150.351562 23.175781 149.550781 23.175781 148.5 C 23.175781 147.5 22.949219 146.726562 22.5 146.175781 C 22.101562 145.675781 21.5 145.425781 20.699219 145.425781 C 19.898438 145.425781 19.273438 145.675781 18.824219 146.175781 C 18.375 146.675781 18.148438 147.449219 18.148438 148.5 C 18.148438 149.601562 18.375 150.398438 18.824219 150.898438 C 19.273438 151.449219 19.898438 151.726562 20.699219 151.726562 "/>
<path style=" stroke:none;fill-rule:nonzero;fill:rgb(100%,0%,0%);fill-opacity:1;" d="M 25.5 144.601562 L 26.625 144.601562 L 26.625 147.976562 L 30.601562 147.976562 L 30.601562 144.601562 L 31.726562 144.601562 L 31.726562 152.476562 L 30.601562 152.476562 L 30.601562 148.875 L 26.625 148.875 L 26.625 152.476562 L 25.5 152.476562 L 25.5 144.601562 "/>
<path style=" stroke:none;fill-rule:nonzero;fill:rgb(0%,0%,100%);fill-opacity:1;" d="M 21.898438 226.574219 L 22.949219 226.574219 L 22.949219 229.949219 L 27 229.949219 L 27 226.574219 L 28.125 226.574219 L 28.125 234.449219 L 27 234.449219 L 27 230.851562 L 22.949219 230.851562 L 22.949219 234.449219 L 21.898438 234.449219 L 21.898438 226.574219 "/>
<path style=" stroke:none;fill-rule:nonzero;fill:rgb(0%,0%,100%);fill-opacity:1;" d="M 29.625 234.226562 C 29.773438 233.875 30 233.601562 30.300781 233.398438 C 30.601562 233.25 30.949219 233.175781 31.351562 233.175781 C 31.898438 233.175781 32.324219 233.300781 32.625 233.550781 C 32.925781 233.851562 33.074219 234.25 33.074219 234.75 C 33.074219 235.25 32.875 235.75 32.476562 236.25 C 32.074219 236.75 31.5 237.273438 30.75 237.824219 L 33.148438 237.824219 L 33.148438 238.425781 L 29.625 238.425781 L 29.625 237.898438 C 30.273438 237.449219 30.800781 237.050781 31.199219 236.699219 C 31.550781 236.351562 31.824219 236.023438 32.023438 235.726562 C 32.226562 235.425781 32.324219 235.125 32.324219 234.824219 C 32.324219 234.476562 32.226562 234.199219 32.023438 234 C 31.875 233.851562 31.648438 233.773438 31.351562 233.773438 C 31.101562 233.773438 30.875 233.824219 30.675781 233.925781 C 30.476562 234.023438 30.324219 234.199219 30.226562 234.449219 L 29.625 234.226562 "/>
<path style=" stroke:none;fill-rule:nonzero;fill:rgb(0%,0%,100%);fill-opacity:1;" d="M 35.398438 226.574219 L 38.023438 230.773438 C 38.175781 231.023438 38.398438 231.398438 38.699219 231.898438 C 38.949219 232.398438 39.074219 232.675781 39.074219 232.726562 L 39.074219 226.574219 L 40.125 226.574219 L 40.125 234.449219 L 39.074219 234.449219 L 36.300781 229.875 C 36.101562 229.523438 35.875 229.148438 35.625 228.75 C 35.375 228.351562 35.226562 228.074219 35.175781 227.925781 L 35.175781 234.449219 L 34.125 234.449219 L 34.125 226.574219 L 35.398438 226.574219 "/>
<path style=" stroke:none;fill-rule:nonzero;fill:rgb(100%,0%,0%);fill-opacity:1;" d="M 86.398438 248.398438 C 86.398438 247.101562 86.699219 246.101562 87.300781 245.398438 C 87.949219 244.699219 88.851562 244.351562 90 244.351562 C 91.148438 244.351562 92.050781 244.699219 92.699219 245.398438 C 93.300781 246.101562 93.601562 247.101562 93.601562 248.398438 C 93.601562 249.648438 93.300781 250.648438 92.699219 251.398438 C 92.050781 252.101562 91.148438 252.449219 90 252.449219 C 88.851562 252.449219 87.949219 252.101562 87.300781 251.398438 C 86.699219 250.648438 86.398438 249.648438 86.398438 248.398438 M 90 251.550781 C 90.800781 251.550781 91.425781 251.300781 91.875 250.800781 C 92.273438 250.25 92.476562 249.449219 92.476562 248.398438 C 92.476562 247.351562 92.273438 246.574219 91.875 246.074219 C 91.425781 245.523438 90.800781 245.25 90 245.25 C 89.199219 245.25 88.574219 245.5 88.125 246 C 87.726562 246.550781 87.523438 247.351562 87.523438 248.398438 C 87.523438 249.449219 87.726562 250.25 88.125 250.800781 C 88.574219 251.300781 89.199219 251.550781 90 251.550781 "/>
<path style=" stroke:none;fill-rule:nonzero;fill:rgb(100%,0%,0%);fill-opacity:1;" d="M 94.875 244.425781 L 95.925781 244.425781 L 95.925781 247.800781 L 99.976562 247.800781 L 99.976562 244.425781 L 101.023438 244.425781 L 101.023438 252.375 L 99.976562 252.375 L 99.976562 248.699219 L 95.925781 248.699219 L 95.925781 252.375 L 94.875 252.375 L 94.875 244.425781 "/>
<path style=" stroke:none;fill-rule:nonzero;fill:rgb(100%,0%,0%);fill-opacity:1;" d="M 128.25 211.5 C 128.25 210.25 128.550781 209.273438 129.148438 208.574219 C 129.800781 207.875 130.699219 207.523438 131.851562 207.523438 C 133.050781 207.523438 133.949219 207.875 134.550781 208.574219 C 135.199219 209.273438 135.523438 210.25 135.523438 211.5 C 135.523438 212.800781 135.199219 213.800781 134.550781 214.5 C 133.898438 215.25 133 215.625 131.851562 215.625 C 130.699219 215.625 129.800781 215.25 129.148438 214.5 C 128.550781 213.800781 128.25 212.800781 128.25 211.5 M 131.851562 214.726562 C 132.648438 214.726562 133.273438 214.449219 133.726562 213.898438 C 134.175781 213.351562 134.398438 212.550781 134.398438 211.5 C 134.398438 210.5 134.175781 209.726562 133.726562 209.175781 C 133.273438 208.675781 132.648438 208.425781 131.851562 208.425781 C 131.050781 208.425781 130.425781 208.675781 129.976562 209.175781 C 129.574219 209.675781 129.375 210.449219 129.375 211.5 C 129.375 212.550781 129.574219 213.351562 129.976562 213.898438 C 130.425781 214.449219 131.050781 214.726562 131.851562 214.726562 "/>
<path style=" stroke:none;fill-rule:nonzero;fill:rgb(100%,0%,0%);fill-opacity:1;" d="M 136.726562 207.601562 L 137.773438 207.601562 L 137.773438 210.976562 L 141.824219 210.976562 L 141.824219 207.601562 L 142.875 207.601562 L 142.875 215.476562 L 141.824219 215.476562 L 141.824219 211.875 L 137.773438 211.875 L 137.773438 215.476562 L 136.726562 215.476562 L 136.726562 207.601562 "/>
<path style=" stroke:none;fill-rule:nonzero;fill:rgb(100%,0%,0%);fill-opacity:1;" d="M 149.175781 193.125 C 149.175781 191.824219 149.476562 190.824219 150.074219 190.125 C 150.726562 189.425781 151.625 189.074219 152.773438 189.074219 C 153.976562 189.074219 154.875 189.425781 155.476562 190.125 C 156.125 190.824219 156.449219 191.824219 156.449219 193.125 C 156.449219 194.375 156.125 195.375 155.476562 196.125 C 154.824219 196.824219 153.925781 197.175781 152.773438 197.175781 C 151.625 197.175781 150.726562 196.824219 150.074219 196.125 C 149.476562 195.375 149.175781 194.375 149.175781 193.125 M 152.773438 196.273438 C 153.574219 196.273438 154.199219 196 154.648438 195.449219 C 155.101562 194.949219 155.324219 194.175781 155.324219 193.125 C 155.324219 192.074219 155.101562 191.273438 154.648438 190.726562 C 154.199219 190.226562 153.574219 189.976562 152.773438 189.976562 C 151.976562 189.976562 151.351562 190.226562 150.898438 190.726562 C 150.5 191.273438 150.300781 192.074219 150.300781 193.125 C 150.300781 194.175781 150.5 194.949219 150.898438 195.449219 C 151.351562 196 151.976562 196.273438 152.773438 196.273438 "/>
<path style=" stroke:none;fill-rule:nonzero;fill:rgb(0%,0%,100%);fill-opacity:1;" d="M 214.875 261.601562 L 217.5 265.800781 C 217.648438 266.101562 217.875 266.5 218.175781 267 C 218.425781 267.5 218.550781 267.75 218.550781 267.75 L 218.550781 261.601562 L 219.601562 261.601562 L 219.601562 269.550781 L 218.550781 269.550781 L 215.773438 264.976562 C 215.574219 264.625 215.351562 264.226562 215.101562 263.773438 C 214.898438 263.375 214.75 263.125 214.648438 263.023438 L 214.648438 269.550781 L 213.675781 269.550781 L 213.675781 261.601562 L 214.875 261.601562 "/>
<path style=" stroke:none;fill-rule:nonzero;fill:rgb(0%,0%,100%);fill-opacity:1;" d="M 221.175781 261.601562 L 222.226562 261.601562 L 222.226562 264.976562 L 226.273438 264.976562 L 226.273438 261.601562 L 227.324219 261.601562 L 227.324219 269.550781 L 226.273438 269.550781 L 226.273438 265.875 L 222.226562 265.875 L 222.226562 269.550781 L 221.175781 269.550781 L 221.175781 261.601562 "/>
<path style=" stroke:none;fill-rule:nonzero;fill:rgb(0%,0%,100%);fill-opacity:1;" d="M 228.898438 269.25 C 229 268.898438 229.199219 268.648438 229.5 268.5 C 229.800781 268.300781 230.175781 268.199219 230.625 268.199219 C 231.125 268.199219 231.523438 268.351562 231.824219 268.648438 C 232.125 268.898438 232.273438 269.300781 232.273438 269.851562 C 232.273438 270.351562 232.074219 270.824219 231.675781 271.273438 C 231.324219 271.773438 230.75 272.300781 229.949219 272.851562 L 232.351562 272.851562 L 232.351562 273.449219 L 228.824219 273.449219 L 228.824219 273 C 229.476562 272.550781 230 272.148438 230.398438 271.800781 C 230.800781 271.449219 231.074219 271.125 231.226562 270.824219 C 231.425781 270.476562 231.523438 270.148438 231.523438 269.851562 C 231.523438 269.5 231.449219 269.25 231.300781 269.101562 C 231.101562 268.898438 230.875 268.800781 230.625 268.800781 C 230.324219 268.800781 230.074219 268.851562 229.875 268.949219 C 229.726562 269.050781 229.574219 269.226562 229.425781 269.476562 L 228.898438 269.25 "/>
<path style=" stroke:none;fill-rule:nonzero;fill:rgb(100%,0%,0%);fill-opacity:1;" d="M 254.851562 228.75 C 254.851562 227.5 255.175781 226.5 255.824219 225.75 C 256.425781 225.050781 257.324219 224.699219 258.523438 224.699219 C 259.675781 224.699219 260.574219 225.050781 261.226562 225.75 C 261.824219 226.5 262.125 227.5 262.125 228.75 C 262.125 230 261.800781 231 261.148438 231.75 C 260.550781 232.449219 259.675781 232.800781 258.523438 232.800781 C 257.324219 232.800781 256.425781 232.449219 255.824219 231.75 C 255.175781 231.050781 254.851562 230.050781 254.851562 228.75 M 258.523438 231.976562 C 259.324219 231.976562 259.925781 231.699219 260.324219 231.148438 C 260.773438 230.601562 261 229.800781 261 228.75 C 261 227.699219 260.773438 226.925781 260.324219 226.425781 C 259.925781 225.875 259.324219 225.601562 258.523438 225.601562 C 257.726562 225.601562 257.101562 225.875 256.648438 226.425781 C 256.199219 226.925781 255.976562 227.699219 255.976562 228.75 C 255.976562 229.800781 256.199219 230.601562 256.648438 231.148438 C 257.101562 231.699219 257.726562 231.976562 258.523438 231.976562 "/>
<path style=" stroke:none;fill-rule:nonzero;fill:rgb(0%,0%,100%);fill-opacity:1;" d="M 309.601562 242.625 L 312.226562 246.75 C 312.375 247.050781 312.574219 247.449219 312.824219 247.949219 C 313.125 248.449219 313.273438 248.699219 313.273438 248.699219 L 313.273438 242.625 L 314.324219 242.625 L 314.324219 250.5 L 313.273438 250.5 L 310.5 245.925781 C 310.25 245.574219 310.023438 245.199219 309.824219 244.800781 C 309.574219 244.351562 309.425781 244.074219 309.375 243.976562 L 309.375 250.5 L 308.324219 250.5 L 308.324219 242.625 L 309.601562 242.625 "/>
<path style=" stroke:none;fill-rule:nonzero;fill:rgb(0%,0%,100%);fill-opacity:1;" d="M 315.824219 242.625 L 316.949219 242.625 L 316.949219 245.925781 L 321 245.925781 L 321 242.625 L 322.050781 242.625 L 322.050781 250.5 L 321 250.5 L 321 246.824219 L 316.949219 246.824219 L 316.949219 250.5 L 315.824219 250.5 L 315.824219 242.625 "/>
<path style=" stroke:none;fill-rule:nonzero;fill:rgb(0%,0%,100%);fill-opacity:1;" d="M 323.550781 250.199219 C 323.699219 249.898438 323.925781 249.648438 324.226562 249.449219 C 324.523438 249.25 324.898438 249.148438 325.351562 249.148438 C 325.851562 249.148438 326.25 249.300781 326.550781 249.601562 C 326.851562 249.898438 327 250.300781 327 250.800781 C 327 251.300781 326.800781 251.800781 326.398438 252.300781 C 326.050781 252.75 325.476562 253.273438 324.675781 253.875 L 327.074219 253.875 L 327.074219 254.476562 L 323.550781 254.476562 L 323.550781 253.949219 C 324.199219 253.5 324.726562 253.101562 325.125 252.75 C 325.523438 252.398438 325.800781 252.074219 325.949219 251.773438 C 326.148438 251.476562 326.25 251.148438 326.25 250.800781 C 326.25 250.5 326.175781 250.25 326.023438 250.050781 C 325.824219 249.851562 325.601562 249.75 325.351562 249.75 C 325.050781 249.75 324.800781 249.800781 324.601562 249.898438 C 324.449219 250.050781 324.300781 250.25 324.148438 250.5 L 323.550781 250.199219 "/>
<path style=" stroke:none;fill-rule:nonzero;fill:rgb(0%,0%,100%);fill-opacity:1;" d="M 340.5 151.050781 L 343.050781 155.25 C 343.25 155.5 343.476562 155.875 343.726562 156.375 C 344.023438 156.875 344.175781 157.148438 344.175781 157.199219 L 344.175781 151.050781 L 345.226562 151.050781 L 345.226562 158.925781 L 344.175781 158.925781 L 341.398438 154.351562 C 341.148438 154 340.925781 153.625 340.726562 153.226562 C 340.476562 152.824219 340.324219 152.550781 340.273438 152.398438 L 340.273438 158.925781 L 339.226562 158.925781 L 339.226562 151.050781 L 340.5 151.050781 "/>
<path style=" stroke:none;fill-rule:nonzero;fill:rgb(0%,0%,100%);fill-opacity:1;" d="M 346.726562 151.050781 L 347.773438 151.050781 L 347.773438 154.425781 L 351.824219 154.425781 L 351.824219 151.050781 L 352.875 151.050781 L 352.875 158.925781 L 351.824219 158.925781 L 351.824219 155.324219 L 347.773438 155.324219 L 347.773438 158.925781 L 346.726562 158.925781 L 346.726562 151.050781 "/>
<path style=" stroke:none;fill-rule:nonzero;fill:rgb(0%,0%,100%);fill-opacity:1;" d="M 354.449219 158.699219 C 354.601562 158.351562 354.824219 158.101562 355.125 157.949219 C 355.425781 157.75 355.773438 157.648438 356.175781 157.648438 C 356.726562 157.648438 357.148438 157.773438 357.449219 158.023438 C 357.75 158.324219 357.898438 158.726562 357.898438 159.226562 C 357.898438 159.773438 357.699219 160.273438 357.300781 160.726562 C 356.898438 161.226562 356.324219 161.75 355.574219 162.300781 L 357.976562 162.300781 L 357.976562 162.898438 L 354.449219 162.898438 L 354.449219 162.375 C 355.101562 161.925781 355.625 161.523438 356.023438 161.175781 C 356.375 160.875 356.648438 160.550781 356.851562 160.199219 C 357.050781 159.898438 357.148438 159.601562 357.148438 159.300781 C 357.148438 158.949219 357.050781 158.675781 356.851562 158.476562 C 356.699219 158.324219 356.476562 158.25 356.175781 158.25 C 355.925781 158.25 355.699219 158.300781 355.5 158.398438 C 355.300781 158.5 355.148438 158.675781 355.050781 158.925781 L 354.449219 158.699219 "/>
<path style=" stroke:none;fill-rule:nonzero;fill:rgb(100%,0%,0%);fill-opacity:1;" d="M 285.75 137.175781 C 285.75 135.925781 286.074219 134.949219 286.726562 134.25 C 287.324219 133.550781 288.199219 133.199219 289.351562 133.199219 C 290.550781 133.199219 291.449219 133.550781 292.050781 134.25 C 292.699219 134.949219 293.023438 135.925781 293.023438 137.175781 C 293.023438 138.476562 292.699219 139.5 292.050781 140.25 C 291.398438 140.949219 290.5 141.300781 289.351562 141.300781 C 288.199219 141.300781 287.324219 140.949219 286.726562 140.25 C 286.074219 139.5 285.75 138.476562 285.75 137.175781 M 289.351562 140.398438 C 290.148438 140.398438 290.773438 140.125 291.226562 139.574219 C 291.675781 139.023438 291.898438 138.226562 291.898438 137.175781 C 291.898438 136.175781 291.675781 135.398438 291.226562 134.851562 C 290.773438 134.351562 290.148438 134.101562 289.351562 134.101562 C 288.550781 134.101562 287.949219 134.351562 287.550781 134.851562 C 287.101562 135.398438 286.875 136.175781 286.875 137.175781 C 286.875 138.273438 287.101562 139.074219 287.550781 139.574219 C 287.949219 140.125 288.550781 140.398438 289.351562 140.398438 "/>
<path style=" stroke:none;fill-rule:nonzero;fill:rgb(100%,0%,0%);fill-opacity:1;" d="M 294.226562 133.273438 L 295.273438 133.273438 L 295.273438 136.648438 L 299.324219 136.648438 L 299.324219 133.273438 L 300.375 133.273438 L 300.375 141.148438 L 299.324219 141.148438 L 299.324219 137.550781 L 295.273438 137.550781 L 295.273438 141.148438 L 294.226562 141.148438 L 294.226562 133.273438 "/>
<path style=" stroke:none;fill-rule:nonzero;fill:rgb(100%,0%,0%);fill-opacity:1;" d="M 236.101562 170.101562 L 237.148438 170.101562 L 237.148438 173.476562 L 241.199219 173.476562 L 241.199219 170.101562 L 242.25 170.101562 L 242.25 178.050781 L 241.199219 178.050781 L 241.199219 174.375 L 237.148438 174.375 L 237.148438 178.050781 L 236.101562 178.050781 L 236.101562 170.101562 "/>
<path style=" stroke:none;fill-rule:nonzero;fill:rgb(100%,0%,0%);fill-opacity:1;" d="M 243.898438 174.074219 C 243.898438 172.773438 244.199219 171.773438 244.800781 171.074219 C 245.449219 170.375 246.351562 170.023438 247.5 170.023438 C 248.699219 170.023438 249.601562 170.375 250.199219 171.074219 C 250.851562 171.773438 251.175781 172.773438 251.175781 174.074219 C 251.175781 175.324219 250.851562 176.324219 250.199219 177.074219 C 249.550781 177.773438 248.648438 178.125 247.5 178.125 C 246.351562 178.125 245.449219 177.773438 244.800781 177.074219 C 244.199219 176.375 243.898438 175.375 243.898438 174.074219 M 247.5 177.226562 C 248.300781 177.226562 248.925781 176.976562 249.375 176.476562 C 249.824219 175.925781 250.050781 175.125 250.050781 174.074219 C 250.050781 173.023438 249.824219 172.25 249.375 171.75 C 248.925781 171.199219 248.300781 170.925781 247.5 170.925781 C 246.699219 170.925781 246.074219 171.199219 245.625 171.75 C 245.226562 172.25 245.023438 173.023438 245.023438 174.074219 C 245.023438 175.125 245.226562 175.925781 245.625 176.476562 C 246.074219 176.976562 246.699219 177.226562 247.5 177.226562 "/>
<path style=" stroke:none;fill-rule:nonzero;fill:rgb(100%,0%,0%);fill-opacity:1;" d="M 222.976562 192.449219 C 222.976562 191.199219 223.273438 190.226562 223.875 189.523438 C 224.523438 188.824219 225.425781 188.476562 226.574219 188.476562 C 227.726562 188.476562 228.625 188.824219 229.273438 189.523438 C 229.875 190.226562 230.175781 191.199219 230.175781 192.449219 C 230.175781 193.75 229.875 194.773438 229.273438 195.523438 C 228.625 196.226562 227.726562 196.574219 226.574219 196.574219 C 225.425781 196.574219 224.523438 196.226562 223.875 195.523438 C 223.273438 194.773438 222.976562 193.75 222.976562 192.449219 M 226.574219 195.675781 C 227.375 195.675781 228 195.398438 228.449219 194.851562 C 228.898438 194.351562 229.125 193.550781 229.125 192.449219 C 229.125 191.449219 228.898438 190.675781 228.449219 190.125 C 228 189.625 227.375 189.375 226.574219 189.375 C 225.773438 189.375 225.148438 189.625 224.699219 190.125 C 224.300781 190.675781 224.101562 191.449219 224.101562 192.449219 C 224.101562 193.550781 224.300781 194.351562 224.699219 194.851562 C 225.148438 195.398438 225.773438 195.675781 226.574219 195.675781 "/>
<path style=" stroke:none;fill-rule:nonzero;fill:rgb(100%,0%,0%);fill-opacity:1;" d="M 211.949219 137.773438 C 211.949219 136.523438 212.273438 135.550781 212.925781 134.851562 C 213.523438 134.148438 214.425781 133.800781 215.625 133.800781 C 216.773438 133.800781 217.648438 134.148438 218.25 134.851562 C 218.898438 135.550781 219.226562 136.523438 219.226562 137.773438 C 219.226562 139.074219 218.898438 140.101562 218.25 140.851562 C 217.648438 141.550781 216.773438 141.898438 215.625 141.898438 C 214.425781 141.898438 213.523438 141.550781 212.925781 140.851562 C 212.273438 140.101562 211.949219 139.074219 211.949219 137.773438 M 215.625 141 C 216.425781 141 217.023438 140.726562 217.425781 140.175781 C 217.875 139.625 218.101562 138.824219 218.101562 137.773438 C 218.101562 136.773438 217.875 136 217.425781 135.449219 C 217.023438 134.949219 216.425781 134.699219 215.625 134.699219 C 214.824219 134.699219 214.199219 134.949219 213.75 135.449219 C 213.300781 136 213.074219 136.773438 213.074219 137.773438 C 213.074219 138.875 213.300781 139.675781 213.75 140.175781 C 214.199219 140.726562 214.824219 141 215.625 141 "/>
<path style=" stroke:none;fill-rule:nonzero;fill:rgb(100%,0%,0%);fill-opacity:1;" d="M 220.425781 133.875 L 221.550781 133.875 L 221.550781 137.25 L 225.523438 137.25 L 225.523438 133.875 L 226.648438 133.875 L 226.648438 141.75 L 225.523438 141.75 L 225.523438 138.148438 L 221.550781 138.148438 L 221.550781 141.75 L 220.425781 141.75 L 220.425781 133.875 "/>
<path style=" stroke:none;fill-rule:nonzero;fill:rgb(0%,0%,0%);fill-opacity:1;" d="M 155.175781 216.449219 L 156.300781 216.449219 L 156.300781 219.824219 L 160.273438 219.824219 L 160.273438 216.449219 L 161.398438 216.449219 L 161.398438 224.324219 L 160.273438 224.324219 L 160.273438 220.726562 L 156.300781 220.726562 L 156.300781 224.324219 L 155.175781 224.324219 L 155.175781 216.449219 "/>
<path style=" stroke:none;fill-rule:nonzero;fill:rgb(0%,0%,0%);fill-opacity:1;" d="M 218.023438 161.175781 L 219.074219 161.175781 L 219.074219 164.550781 L 223.125 164.550781 L 223.125 161.175781 L 224.175781 161.175781 L 224.175781 169.050781 L 223.125 169.050781 L 223.125 165.449219 L 219.074219 165.449219 L 219.074219 169.050781 L 218.023438 169.050781 L 218.023438 161.175781 "/>
</g>
</svg>
