<?xml version="1.0" encoding="UTF-8"?>
<svg xmlns="http://www.w3.org/2000/svg" xmlns:xlink="http://www.w3.org/1999/xlink" width="375pt" height="375pt" viewBox="0 0 375 375" version="1.1">
<g id="surface164">
<rect x="0" y="0" width="375" height="375" style="fill:rgb(100%,100%,100%);fill-opacity:1;stroke:none;"/>
<path style="fill:none;stroke-width:2;stroke-linecap:butt;stroke-linejoin:miter;stroke:rgb(0%,0%,0%);stroke-opacity:1;stroke-miterlimit:4;" d="M 75.098958 161.901042 L 91.5 195 " transform="matrix(0.75,0,0,0.75,0,0)"/>
<path style="fill:none;stroke-width:2;stroke-linecap:butt;stroke-linejoin:miter;stroke:rgb(0%,0%,0%);stroke-opacity:1;stroke-miterlimit:4;" d="M 91.5 195 L 128.401042 197.302083 " transform="matrix(0.75,0,0,0.75,0,0)"/>
<path style="fill:none;stroke-width:2;stroke-linecap:butt;stroke-linejoin:miter;stroke:rgb(0%,0%,0%);stroke-opacity:1;stroke-miterlimit:4;" d="M 128.401042 197.302083 L 144.802083 230.401042 " transform="matrix(0.75,0,0,0.75,0,0)"/>
<path style="fill:none;stroke-width:2;stroke-linecap:butt;stroke-linejoin:miter;stroke:rgb(0%,0%,0%);stroke-opacity:1;stroke-miterlimit:4;" d="M 124.802083 202.598958 L 138.401042 230 " transform="matrix(0.75,0,0,0.75,0,0)"/>
<path style="fill:none;stroke-width:2;stroke-linecap:butt;stroke-linejoin:miter;stroke:rgb(0%,0%,0%);stroke-opacity:1;stroke-miterlimit:4;" d="M 144.802083 230.401042 L 181.697917 232.697917 " transform="matrix(0.75,0,0,0.75,0,0)"/>
<path style="fill:none;stroke-width:2;stroke-linecap:butt;stroke-linejoin:miter;stroke:rgb(0%,0%,0%);stroke-opacity:1;stroke-miterlimit:4;" d="M 183.098958 235.5 L 191.598958 222.802083 " transform="matrix(0.75,0,0,0.75,0,0)"/>
<path style="fill:none;stroke-width:2;stroke-linecap:butt;stroke-linejoin:miter;stroke:rgb(100%,0%,0%);stroke-opacity:1;stroke-miterlimit:4;" d="M 191.598958 222.802083 L 200 210.098958 " transform="matrix(0.75,0,0,0.75,0,0)"/>
<path style="fill:none;stroke-width:2;stroke-linecap:butt;stroke-linejoin:miter;stroke:rgb(0%,0%,0%);stroke-opacity:1;stroke-miterlimit:4;" d="M 178.5 232.5 L 186.901042 219.802083 " transform="matrix(0.75,0,0,0.75,0,0)"/>
<path style="fill:none;stroke-width:2;stroke-linecap:butt;stroke-linejoin:miter;stroke:rgb(100%,0%,0%);stroke-opacity:1;stroke-miterlimit:4;" d="M 186.901042 219.802083 L 195.401042 207 " transform="matrix(0.75,0,0,0.75,0,0)"/>
<path style="fill:none;stroke-width:2;stroke-linecap:butt;stroke-linejoin:miter;stroke:rgb(0%,0%,0%);stroke-opacity:1;stroke-miterlimit:4;" d="M 181.697917 232.697917 L 188.302083 246 " transform="matrix(0.75,0,0,0.75,0,0)"/>
<path style="fill:none;stroke-width:2;stroke-linecap:butt;stroke-linejoin:miter;stroke:rgb(0%,0%,100%);stroke-opacity:1;stroke-miterlimit:4;" d="M 188.302083 246 L 194.901042 259.302083 " transform="matrix(0.75,0,0,0.75,0,0)"/>
<path style="fill-rule:evenodd;fill:rgb(0%,0%,0%);fill-opacity:1;stroke-width:0.5;stroke-linecap:butt;stroke-linejoin:miter;stroke:rgb(0%,0%,0%);stroke-opacity:1;stroke-miterlimit:4;" d="M 235 268.098958 L 219.697917 268.5 L 219.901042 265.697917 Z M 235 268.098958 " transform="matrix(0.75,0,0,0.75,0,0)"/>
<path style="fill-rule:evenodd;fill:rgb(0%,0%,100%);fill-opacity:1;stroke-width:0.5;stroke-linecap:butt;stroke-linejoin:miter;stroke:rgb(0%,0%,100%);stroke-opacity:1;stroke-miterlimit:4;" d="M 219.697917 268.5 L 204.697917 263.401042 L 204.401042 268.901042 Z M 219.697917 268.5 " transform="matrix(0.75,0,0,0.75,0,0)"/>
<path style="fill-rule:evenodd;fill:rgb(0%,0%,100%);fill-opacity:1;stroke-width:0.5;stroke-linecap:butt;stroke-linejoin:miter;stroke:rgb(0%,0%,100%);stroke-opacity:1;stroke-miterlimit:4;" d="M 219.697917 268.5 L 219.901042 265.697917 L 204.697917 263.401042 Z M 219.697917 268.5 " transform="matrix(0.75,0,0,0.75,0,0)"/>
<path style="fill:none;stroke-width:2;stroke-linecap:butt;stroke-linejoin:miter;stroke:rgb(0%,0%,0%);stroke-opacity:1;stroke-miterlimit:4;" d="M 235 268.098958 L 259.401042 295.802083 " transform="matrix(0.75,0,0,0.75,0,0)"/>
<path style="fill:none;stroke-width:2;stroke-linecap:butt;stroke-linejoin:miter;stroke:rgb(0%,0%,0%);stroke-opacity:1;stroke-miterlimit:4;" d="M 256.802083 292.802083 L 255.802083 309.401042 " transform="matrix(0.75,0,0,0.75,0,0)"/>
<path style="fill:none;stroke-width:2;stroke-linecap:butt;stroke-linejoin:miter;stroke:rgb(100%,0%,0%);stroke-opacity:1;stroke-miterlimit:4;" d="M 255.802083 309.401042 L 254.802083 326 " transform="matrix(0.75,0,0,0.75,0,0)"/>
<path style="fill:none;stroke-width:2;stroke-linecap:butt;stroke-linejoin:miter;stroke:rgb(0%,0%,0%);stroke-opacity:1;stroke-miterlimit:4;" d="M 262.401042 293.197917 L 261.302083 309.802083 " transform="matrix(0.75,0,0,0.75,0,0)"/>
<path style="fill:none;stroke-width:2;stroke-linecap:butt;stroke-linejoin:miter;stroke:rgb(100%,0%,0%);stroke-opacity:1;stroke-miterlimit:4;" d="M 261.302083 309.802083 L 260.302083 326.302083 " transform="matrix(0.75,0,0,0.75,0,0)"/>
<path style="fill:none;stroke-width:2;stroke-linecap:butt;stroke-linejoin:miter;stroke:rgb(0%,0%,0%);stroke-opacity:1;stroke-miterlimit:4;" d="M 259.401042 295.802083 L 270.697917 285.901042 " transform="matrix(0.75,0,0,0.75,0,0)"/>
<path style="fill:none;stroke-width:2;stroke-linecap:butt;stroke-linejoin:miter;stroke:rgb(0%,0%,100%);stroke-opacity:1;stroke-miterlimit:4;" d="M 270.697917 285.901042 L 282 275.901042 " transform="matrix(0.75,0,0,0.75,0,0)"/>
<path style="fill:none;stroke-width:2;stroke-linecap:butt;stroke-linejoin:miter;stroke:rgb(0%,0%,100%);stroke-opacity:1;stroke-miterlimit:4;" d="M 292.302083 270.302083 L 307.802083 267.197917 " transform="matrix(0.75,0,0,0.75,0,0)"/>
<path style="fill:none;stroke-width:2;stroke-linecap:butt;stroke-linejoin:miter;stroke:rgb(0%,0%,0%);stroke-opacity:1;stroke-miterlimit:4;" d="M 307.802083 267.197917 L 323.401042 264 " transform="matrix(0.75,0,0,0.75,0,0)"/>
<path style="fill:none;stroke-width:2;stroke-linecap:butt;stroke-linejoin:miter;stroke:rgb(0%,0%,0%);stroke-opacity:1;stroke-miterlimit:4;" d="M 323.401042 264 L 347.802083 291.697917 " transform="matrix(0.75,0,0,0.75,0,0)"/>
<path style="fill:none;stroke-width:2;stroke-linecap:butt;stroke-linejoin:miter;stroke:rgb(0%,0%,0%);stroke-opacity:1;stroke-miterlimit:4;" d="M 346.802083 294.802083 L 362.697917 291.598958 " transform="matrix(0.75,0,0,0.75,0,0)"/>
<path style="fill:none;stroke-width:2;stroke-linecap:butt;stroke-linejoin:miter;stroke:rgb(100%,0%,0%);stroke-opacity:1;stroke-miterlimit:4;" d="M 362.697917 291.598958 L 378.5 288.401042 " transform="matrix(0.75,0,0,0.75,0,0)"/>
<path style="fill:none;stroke-width:2;stroke-linecap:butt;stroke-linejoin:miter;stroke:rgb(0%,0%,0%);stroke-opacity:1;stroke-miterlimit:4;" d="M 345.697917 289.302083 L 361.598958 286.098958 " transform="matrix(0.75,0,0,0.75,0,0)"/>
<path style="fill:none;stroke-width:2;stroke-linecap:butt;stroke-linejoin:miter;stroke:rgb(100%,0%,0%);stroke-opacity:1;stroke-miterlimit:4;" d="M 361.598958 286.098958 L 377.401042 282.901042 " transform="matrix(0.75,0,0,0.75,0,0)"/>
<path style="fill:none;stroke-width:2;stroke-linecap:butt;stroke-linejoin:miter;stroke:rgb(0%,0%,0%);stroke-opacity:1;stroke-miterlimit:4;" d="M 347.802083 291.697917 L 343 306 " transform="matrix(0.75,0,0,0.75,0,0)"/>
<path style="fill:none;stroke-width:2;stroke-linecap:butt;stroke-linejoin:miter;stroke:rgb(100%,0%,0%);stroke-opacity:1;stroke-miterlimit:4;" d="M 343 306 L 338.197917 320.197917 " transform="matrix(0.75,0,0,0.75,0,0)"/>
<path style="fill:none;stroke-width:2;stroke-linecap:butt;stroke-linejoin:miter;stroke:rgb(0%,0%,0%);stroke-opacity:1;stroke-miterlimit:4;" d="M 323.401042 264 L 335.098958 229 " transform="matrix(0.75,0,0,0.75,0,0)"/>
<path style="fill:none;stroke-width:2;stroke-linecap:butt;stroke-linejoin:miter;stroke:rgb(0%,0%,0%);stroke-opacity:1;stroke-miterlimit:4;" d="M 319.098958 259.197917 L 328.901042 230.302083 " transform="matrix(0.75,0,0,0.75,0,0)"/>
<path style="fill:none;stroke-width:2;stroke-linecap:butt;stroke-linejoin:miter;stroke:rgb(0%,0%,0%);stroke-opacity:1;stroke-miterlimit:4;" d="M 335.098958 229 L 371.302083 221.697917 " transform="matrix(0.75,0,0,0.75,0,0)"/>
<path style="fill:none;stroke-width:2;stroke-linecap:butt;stroke-linejoin:miter;stroke:rgb(0%,0%,0%);stroke-opacity:1;stroke-miterlimit:4;" d="M 371.302083 221.697917 L 380.697917 232.302083 " transform="matrix(0.75,0,0,0.75,0,0)"/>
<path style="fill:none;stroke-width:2;stroke-linecap:butt;stroke-linejoin:miter;stroke:rgb(100%,0%,0%);stroke-opacity:1;stroke-miterlimit:4;" d="M 380.697917 232.302083 L 390 242.901042 " transform="matrix(0.75,0,0,0.75,0,0)"/>
<path style="fill:none;stroke-width:2;stroke-linecap:butt;stroke-linejoin:miter;stroke:rgb(100%,0%,0%);stroke-opacity:1;stroke-miterlimit:4;" d="M 401.802083 248.197917 L 416.901042 245.098958 " transform="matrix(0.75,0,0,0.75,0,0)"/>
<path style="fill:none;stroke-width:2;stroke-linecap:butt;stroke-linejoin:miter;stroke:rgb(0%,0%,0%);stroke-opacity:1;stroke-miterlimit:4;" d="M 416.901042 245.098958 L 432 242.098958 " transform="matrix(0.75,0,0,0.75,0,0)"/>
<path style="fill:none;stroke-width:2;stroke-linecap:butt;stroke-linejoin:miter;stroke:rgb(0%,0%,0%);stroke-opacity:1;stroke-miterlimit:4;" d="M 432 242.098958 L 441.598958 253 " transform="matrix(0.75,0,0,0.75,0,0)"/>
<path style="fill:none;stroke-width:2;stroke-linecap:butt;stroke-linejoin:miter;stroke:rgb(0%,0%,100%);stroke-opacity:1;stroke-miterlimit:4;" d="M 441.598958 253 L 451.302083 263.901042 " transform="matrix(0.75,0,0,0.75,0,0)"/>
<path style="fill:none;stroke-width:2;stroke-linecap:butt;stroke-linejoin:miter;stroke:rgb(0%,0%,0%);stroke-opacity:1;stroke-miterlimit:4;" d="M 434.098958 244.5 L 439.098958 229.598958 " transform="matrix(0.75,0,0,0.75,0,0)"/>
<path style="fill:none;stroke-width:2;stroke-linecap:butt;stroke-linejoin:miter;stroke:rgb(100%,0%,0%);stroke-opacity:1;stroke-miterlimit:4;" d="M 439.098958 229.598958 L 444.197917 214.598958 " transform="matrix(0.75,0,0,0.75,0,0)"/>
<path style="fill:none;stroke-width:2;stroke-linecap:butt;stroke-linejoin:miter;stroke:rgb(0%,0%,0%);stroke-opacity:1;stroke-miterlimit:4;" d="M 428.901042 242.697917 L 433.901042 227.802083 " transform="matrix(0.75,0,0,0.75,0,0)"/>
<path style="fill:none;stroke-width:2;stroke-linecap:butt;stroke-linejoin:miter;stroke:rgb(100%,0%,0%);stroke-opacity:1;stroke-miterlimit:4;" d="M 433.901042 227.802083 L 438.901042 212.901042 " transform="matrix(0.75,0,0,0.75,0,0)"/>
<path style="fill:none;stroke-width:2;stroke-linecap:butt;stroke-linejoin:miter;stroke:rgb(0%,0%,0%);stroke-opacity:1;stroke-miterlimit:4;" d="M 335.098958 229 L 310.697917 201.302083 " transform="matrix(0.75,0,0,0.75,0,0)"/>
<path style="fill:none;stroke-width:2;stroke-linecap:butt;stroke-linejoin:miter;stroke:rgb(0%,0%,0%);stroke-opacity:1;stroke-miterlimit:4;" d="M 310.697917 201.302083 L 294.901042 204.5 " transform="matrix(0.75,0,0,0.75,0,0)"/>
<path style="fill:none;stroke-width:2;stroke-linecap:butt;stroke-linejoin:miter;stroke:rgb(80%,80%,0%);stroke-opacity:1;stroke-miterlimit:4;" d="M 294.901042 204.5 L 279.098958 207.697917 " transform="matrix(0.75,0,0,0.75,0,0)"/>
<path style="fill:none;stroke-width:2;stroke-linecap:butt;stroke-linejoin:miter;stroke:rgb(80%,80%,0%);stroke-opacity:1;stroke-miterlimit:4;" d="M 272.197917 215.302083 L 267.5 229.5 " transform="matrix(0.75,0,0,0.75,0,0)"/>
<path style="fill:none;stroke-width:2;stroke-linecap:butt;stroke-linejoin:miter;stroke:rgb(0%,0%,0%);stroke-opacity:1;stroke-miterlimit:4;" d="M 267.5 229.5 L 262.697917 243.598958 " transform="matrix(0.75,0,0,0.75,0,0)"/>
<path style="fill:none;stroke-width:2;stroke-linecap:butt;stroke-linejoin:miter;stroke:rgb(0%,0%,0%);stroke-opacity:1;stroke-miterlimit:4;" d="M 144.802083 230.401042 L 124.401042 261.197917 " transform="matrix(0.75,0,0,0.75,0,0)"/>
<path style="fill:none;stroke-width:2;stroke-linecap:butt;stroke-linejoin:miter;stroke:rgb(0%,0%,0%);stroke-opacity:1;stroke-miterlimit:4;" d="M 124.401042 261.197917 L 137.302083 295.802083 " transform="matrix(0.75,0,0,0.75,0,0)"/>
<path style="fill:none;stroke-width:2;stroke-linecap:butt;stroke-linejoin:miter;stroke:rgb(0%,0%,0%);stroke-opacity:1;stroke-miterlimit:4;" d="M 120.598958 266.901042 L 130.697917 293.901042 " transform="matrix(0.75,0,0,0.75,0,0)"/>
<path style="fill:none;stroke-width:2;stroke-linecap:butt;stroke-linejoin:miter;stroke:rgb(0%,0%,0%);stroke-opacity:1;stroke-miterlimit:4;" d="M 137.302083 295.802083 L 125.098958 305.401042 " transform="matrix(0.75,0,0,0.75,0,0)"/>
<path style="fill:none;stroke-width:2;stroke-linecap:butt;stroke-linejoin:miter;stroke:rgb(80%,80%,0%);stroke-opacity:1;stroke-miterlimit:4;" d="M 125.098958 305.401042 L 112.901042 315.098958 " transform="matrix(0.75,0,0,0.75,0,0)"/>
<path style="fill:none;stroke-width:2;stroke-linecap:butt;stroke-linejoin:miter;stroke:rgb(80%,80%,0%);stroke-opacity:1;stroke-miterlimit:4;" d="M 103.697917 315.697917 L 90.598958 307 " transform="matrix(0.75,0,0,0.75,0,0)"/>
<path style="fill:none;stroke-width:2;stroke-linecap:butt;stroke-linejoin:miter;stroke:rgb(0%,0%,0%);stroke-opacity:1;stroke-miterlimit:4;" d="M 90.598958 307 L 77.5 298.302083 " transform="matrix(0.75,0,0,0.75,0,0)"/>
<path style="fill:none;stroke-width:2;stroke-linecap:butt;stroke-linejoin:miter;stroke:rgb(0%,0%,0%);stroke-opacity:1;stroke-miterlimit:4;" d="M 77.5 298.302083 L 62.802083 303.802083 " transform="matrix(0.75,0,0,0.75,0,0)"/>
<path style="fill:none;stroke-width:2;stroke-linecap:butt;stroke-linejoin:miter;stroke:rgb(0%,0%,100%);stroke-opacity:1;stroke-miterlimit:4;" d="M 62.802083 303.802083 L 48.098958 309.302083 " transform="matrix(0.75,0,0,0.75,0,0)"/>
<path style="fill:none;stroke-width:2;stroke-linecap:butt;stroke-linejoin:miter;stroke:rgb(0%,0%,0%);stroke-opacity:1;stroke-miterlimit:4;" d="M 77.5 298.302083 L 81.598958 283.697917 " transform="matrix(0.75,0,0,0.75,0,0)"/>
<path style="fill:none;stroke-width:2;stroke-linecap:butt;stroke-linejoin:miter;stroke:rgb(0%,0%,100%);stroke-opacity:1;stroke-miterlimit:4;" d="M 81.598958 283.697917 L 85.697917 269.197917 " transform="matrix(0.75,0,0,0.75,0,0)"/>
<path style="fill:none;stroke-width:2;stroke-linecap:butt;stroke-linejoin:miter;stroke:rgb(0%,0%,0%);stroke-opacity:1;stroke-miterlimit:4;" d="M 84 295.901042 L 87.5 283.302083 " transform="matrix(0.75,0,0,0.75,0,0)"/>
<path style="fill:none;stroke-width:2;stroke-linecap:butt;stroke-linejoin:miter;stroke:rgb(0%,0%,100%);stroke-opacity:1;stroke-miterlimit:4;" d="M 87.5 283.302083 L 91 270.598958 " transform="matrix(0.75,0,0,0.75,0,0)"/>
<path style="fill:none;stroke-width:2;stroke-linecap:butt;stroke-linejoin:miter;stroke:rgb(0%,0%,0%);stroke-opacity:1;stroke-miterlimit:4;" d="M 262.697917 243.598958 L 235 268.098958 " transform="matrix(0.75,0,0,0.75,0,0)"/>
<path style="fill:none;stroke-width:2;stroke-linecap:butt;stroke-linejoin:miter;stroke:rgb(0%,0%,100%);stroke-opacity:1;stroke-miterlimit:4;" d="M 92.697917 262.5 L 108.5 261.802083 " transform="matrix(0.75,0,0,0.75,0,0)"/>
<path style="fill:none;stroke-width:2;stroke-linecap:butt;stroke-linejoin:miter;stroke:rgb(0%,0%,0%);stroke-opacity:1;stroke-miterlimit:4;" d="M 108.5 261.802083 L 124.401042 261.197917 " transform="matrix(0.75,0,0,0.75,0,0)"/>
<path style="fill:none;stroke-width:2;stroke-linecap:butt;stroke-linejoin:miter;stroke:rgb(0%,0%,0%);stroke-opacity:1;stroke-miterlimit:4;" d="M 262.697917 243.598958 L 272.302083 254.598958 " transform="matrix(0.75,0,0,0.75,0,0)"/>
<path style="fill:none;stroke-width:2;stroke-linecap:butt;stroke-linejoin:miter;stroke:rgb(0%,0%,100%);stroke-opacity:1;stroke-miterlimit:4;" d="M 272.302083 254.598958 L 282 265.5 " transform="matrix(0.75,0,0,0.75,0,0)"/>
<path style="fill:none;stroke-width:1;stroke-linecap:butt;stroke-linejoin:miter;stroke:rgb(0%,0%,0%);stroke-opacity:1;stroke-miterlimit:4;" d="M 259.5 241.901042 L 259.901042 241.302083 " transform="matrix(0.75,0,0,0.75,0,0)"/>
<path style="fill:none;stroke-width:1;stroke-linecap:butt;stroke-linejoin:miter;stroke:rgb(0%,0%,0%);stroke-opacity:1;stroke-miterlimit:4;" d="M 256.302083 240.197917 L 257 239 " transform="matrix(0.75,0,0,0.75,0,0)"/>
<path style="fill:none;stroke-width:1;stroke-linecap:butt;stroke-linejoin:miter;stroke:rgb(0%,0%,0%);stroke-opacity:1;stroke-miterlimit:4;" d="M 253 238.5 L 254.197917 236.697917 " transform="matrix(0.75,0,0,0.75,0,0)"/>
<path style="fill:none;stroke-width:1;stroke-linecap:butt;stroke-linejoin:miter;stroke:rgb(0%,0%,0%);stroke-opacity:1;stroke-miterlimit:4;" d="M 249.802083 236.697917 L 251.302083 234.401042 " transform="matrix(0.75,0,0,0.75,0,0)"/>
<path style="fill:none;stroke-width:1;stroke-linecap:butt;stroke-linejoin:miter;stroke:rgb(0%,0%,0%);stroke-opacity:1;stroke-miterlimit:4;" d="M 246.598958 235 L 248.5 232.098958 " transform="matrix(0.75,0,0,0.75,0,0)"/>
<path style="fill:none;stroke-width:1;stroke-linecap:butt;stroke-linejoin:miter;stroke:rgb(0%,0%,0%);stroke-opacity:1;stroke-miterlimit:4;" d="M 243.401042 233.302083 L 245.697917 229.802083 " transform="matrix(0.75,0,0,0.75,0,0)"/>
<path style="fill:none;stroke-width:1;stroke-linecap:butt;stroke-linejoin:miter;stroke:rgb(0%,0%,0%);stroke-opacity:1;stroke-miterlimit:4;" d="M 240.098958 231.598958 L 242.802083 227.5 " transform="matrix(0.75,0,0,0.75,0,0)"/>
<path style="fill:none;stroke-width:1;stroke-linecap:butt;stroke-linejoin:miter;stroke:rgb(0%,0%,0%);stroke-opacity:1;stroke-miterlimit:4;" d="M 236.901042 229.802083 L 240 225.197917 " transform="matrix(0.75,0,0,0.75,0,0)"/>
<path style="fill:none;stroke-width:2;stroke-linecap:butt;stroke-linejoin:miter;stroke:rgb(0%,0%,0%);stroke-opacity:1;stroke-miterlimit:4;" d="M 90.697917 193.302083 L 91.5 195 L 93.401042 195.098958 " transform="matrix(0.75,0,0,0.75,0,0)"/>
<path style="fill:none;stroke-width:2;stroke-linecap:butt;stroke-linejoin:miter;stroke:rgb(0%,0%,0%);stroke-opacity:1;stroke-miterlimit:4;" d="M 126.5 197.197917 L 128.401042 197.302083 L 129.197917 198.901042 " transform="matrix(0.75,0,0,0.75,0,0)"/>
<path style="fill:none;stroke-width:2;stroke-linecap:butt;stroke-linejoin:miter;stroke:rgb(0%,0%,0%);stroke-opacity:1;stroke-miterlimit:4;" d="M 179.802083 232.598958 L 181.697917 232.697917 L 182 233.302083 " transform="matrix(0.75,0,0,0.75,0,0)"/>
<path style="fill:none;stroke-width:2;stroke-linecap:butt;stroke-linejoin:miter;stroke:rgb(0%,0%,0%);stroke-opacity:1;stroke-miterlimit:4;" d="M 236.197917 269.5 L 235 268.098958 L 236.401042 266.901042 " transform="matrix(0.75,0,0,0.75,0,0)"/>
<path style="fill:none;stroke-width:2;stroke-linecap:butt;stroke-linejoin:miter;stroke:rgb(0%,0%,0%);stroke-opacity:1;stroke-miterlimit:4;" d="M 258.197917 294.401042 L 259.401042 295.802083 L 260 295.302083 " transform="matrix(0.75,0,0,0.75,0,0)"/>
<path style="fill:none;stroke-width:2;stroke-linecap:butt;stroke-linejoin:miter;stroke:rgb(0%,0%,0%);stroke-opacity:1;stroke-miterlimit:4;" d="M 346.598958 290.401042 L 347.802083 291.697917 L 347.598958 292.5 " transform="matrix(0.75,0,0,0.75,0,0)"/>
<path style="fill:none;stroke-width:2;stroke-linecap:butt;stroke-linejoin:miter;stroke:rgb(0%,0%,0%);stroke-opacity:1;stroke-miterlimit:4;" d="M 369.5 222.098958 L 371.302083 221.697917 L 371.802083 222.197917 " transform="matrix(0.75,0,0,0.75,0,0)"/>
<path style="fill:none;stroke-width:2;stroke-linecap:butt;stroke-linejoin:miter;stroke:rgb(0%,0%,0%);stroke-opacity:1;stroke-miterlimit:4;" d="M 431.197917 242.197917 L 432 242.098958 L 432.5 242.598958 " transform="matrix(0.75,0,0,0.75,0,0)"/>
<path style="fill:none;stroke-width:2;stroke-linecap:butt;stroke-linejoin:miter;stroke:rgb(0%,0%,0%);stroke-opacity:1;stroke-miterlimit:4;" d="M 311.901042 202.697917 L 310.697917 201.302083 L 309.901042 201.5 " transform="matrix(0.75,0,0,0.75,0,0)"/>
<path style="fill:none;stroke-width:2;stroke-linecap:butt;stroke-linejoin:miter;stroke:rgb(0%,0%,0%);stroke-opacity:1;stroke-miterlimit:4;" d="M 136.598958 294 L 137.302083 295.802083 L 136.697917 296.302083 " transform="matrix(0.75,0,0,0.75,0,0)"/>
<path style=" stroke:none;fill-rule:nonzero;fill:rgb(100%,0%,0%);fill-opacity:1;" d="M 147.976562 151.425781 C 147.976562 150.175781 148.300781 149.199219 148.949219 148.5 C 149.550781 147.800781 150.425781 147.449219 151.574219 147.449219 C 152.726562 147.449219 153.625 147.800781 154.273438 148.5 C 154.875 149.199219 155.175781 150.175781 155.175781 151.425781 C 155.175781 152.726562 154.875 153.726562 154.273438 154.425781 C 153.625 155.175781 152.726562 155.550781 151.574219 155.550781 C 150.425781 155.550781 149.550781 155.175781 148.949219 154.425781 C 148.300781 153.726562 147.976562 152.726562 147.976562 151.425781 M 151.574219 154.648438 C 152.375 154.648438 153 154.375 153.449219 153.824219 C 153.898438 153.273438 154.125 152.476562 154.125 151.425781 C 154.125 150.425781 153.898438 149.648438 153.449219 149.101562 C 153 148.601562 152.375 148.351562 151.574219 148.351562 C 150.773438 148.351562 150.175781 148.601562 149.773438 149.101562 C 149.324219 149.648438 149.101562 150.425781 149.101562 151.425781 C 149.101562 152.476562 149.324219 153.273438 149.773438 153.824219 C 150.175781 154.375 150.773438 154.648438 151.574219 154.648438 "/>
<path style=" stroke:none;fill-rule:nonzero;fill:rgb(0%,0%,100%);fill-opacity:1;" d="M 137.925781 195.375 L 138.976562 195.375 L 138.976562 198.75 L 143.023438 198.75 L 143.023438 195.375 L 144.074219 195.375 L 144.074219 203.25 L 143.023438 203.25 L 143.023438 199.648438 L 138.976562 199.648438 L 138.976562 203.25 L 137.925781 203.25 L 137.925781 195.375 "/>
<path style=" stroke:none;fill-rule:nonzero;fill:rgb(0%,0%,100%);fill-opacity:1;" d="M 146.851562 195.375 L 149.398438 199.574219 C 149.601562 199.824219 149.824219 200.199219 150.074219 200.699219 C 150.375 201.199219 150.523438 201.476562 150.523438 201.523438 L 150.523438 195.375 L 151.574219 195.375 L 151.574219 203.25 L 150.523438 203.25 L 147.75 198.675781 C 147.550781 198.324219 147.324219 197.949219 147.074219 197.550781 C 146.875 197.148438 146.726562 196.898438 146.625 196.800781 L 146.625 203.25 L 145.648438 203.25 L 145.648438 195.375 L 146.851562 195.375 "/>
<path style=" stroke:none;fill-rule:nonzero;fill:rgb(100%,0%,0%);fill-opacity:1;" d="M 189.226562 249.523438 C 189.226562 248.273438 189.550781 247.300781 190.199219 246.601562 C 190.800781 245.898438 191.675781 245.550781 192.824219 245.550781 C 193.976562 245.550781 194.875 245.898438 195.523438 246.601562 C 196.125 247.300781 196.425781 248.273438 196.425781 249.523438 C 196.425781 250.773438 196.125 251.773438 195.523438 252.523438 C 194.875 253.226562 193.976562 253.574219 192.824219 253.574219 C 191.675781 253.574219 190.800781 253.226562 190.199219 252.523438 C 189.550781 251.773438 189.226562 250.773438 189.226562 249.523438 M 192.824219 252.675781 C 193.625 252.675781 194.25 252.425781 194.699219 251.925781 C 195.148438 251.375 195.375 250.574219 195.375 249.523438 C 195.375 248.476562 195.148438 247.699219 194.699219 247.199219 C 194.25 246.648438 193.625 246.375 192.824219 246.375 C 192.023438 246.375 191.425781 246.648438 191.023438 247.199219 C 190.574219 247.699219 190.351562 248.476562 190.351562 249.523438 C 190.351562 250.574219 190.574219 251.375 191.023438 251.925781 C 191.425781 252.425781 192.023438 252.675781 192.824219 252.675781 "/>
<path style=" stroke:none;fill-rule:nonzero;fill:rgb(0%,0%,100%);fill-opacity:1;" d="M 213.601562 199.574219 L 216.226562 203.773438 C 216.375 204.023438 216.574219 204.398438 216.824219 204.898438 C 217.125 205.398438 217.273438 205.648438 217.273438 205.648438 L 217.273438 199.574219 L 218.324219 199.574219 L 218.324219 207.449219 L 217.273438 207.449219 L 214.5 202.875 C 214.300781 202.523438 214.074219 202.148438 213.824219 201.75 C 213.625 201.351562 213.476562 201.074219 213.375 200.925781 L 213.375 207.449219 L 212.398438 207.449219 L 212.398438 199.574219 L 213.601562 199.574219 "/>
<path style=" stroke:none;fill-rule:nonzero;fill:rgb(100%,0%,0%);fill-opacity:1;" d="M 284.398438 213.375 C 284.398438 212.074219 284.699219 211.074219 285.300781 210.375 C 285.949219 209.675781 286.851562 209.324219 288 209.324219 C 289.148438 209.324219 290.050781 209.675781 290.699219 210.375 C 291.300781 211.074219 291.601562 212.074219 291.601562 213.375 C 291.601562 214.625 291.300781 215.601562 290.699219 216.300781 C 290.050781 217.050781 289.148438 217.425781 288 217.425781 C 286.851562 217.425781 285.949219 217.050781 285.300781 216.300781 C 284.699219 215.601562 284.398438 214.625 284.398438 213.375 M 288 216.523438 C 288.800781 216.523438 289.425781 216.25 289.875 215.699219 C 290.273438 215.199219 290.476562 214.425781 290.476562 213.375 C 290.476562 212.324219 290.273438 211.550781 289.875 211.050781 C 289.425781 210.5 288.800781 210.226562 288 210.226562 C 287.199219 210.226562 286.574219 210.5 286.125 211.050781 C 285.726562 211.550781 285.523438 212.324219 285.523438 213.375 C 285.523438 214.425781 285.726562 215.199219 286.125 215.699219 C 286.574219 216.25 287.199219 216.523438 288 216.523438 "/>
<path style=" stroke:none;fill-rule:nonzero;fill:rgb(100%,0%,0%);fill-opacity:1;" d="M 248.398438 245.101562 C 248.398438 243.851562 248.726562 242.875 249.375 242.175781 C 249.976562 241.476562 250.851562 241.125 252 241.125 C 253.148438 241.125 254.050781 241.476562 254.699219 242.175781 C 255.300781 242.875 255.601562 243.851562 255.601562 245.101562 C 255.601562 246.351562 255.300781 247.351562 254.699219 248.101562 C 254.050781 248.800781 253.148438 249.148438 252 249.148438 C 250.851562 249.148438 249.976562 248.800781 249.375 248.101562 C 248.726562 247.351562 248.398438 246.351562 248.398438 245.101562 M 252 248.25 C 252.800781 248.25 253.425781 248 253.875 247.5 C 254.273438 246.949219 254.476562 246.148438 254.476562 245.101562 C 254.476562 244.050781 254.273438 243.273438 253.875 242.773438 C 253.425781 242.226562 252.800781 241.949219 252 241.949219 C 251.199219 241.949219 250.601562 242.226562 250.199219 242.773438 C 249.75 243.273438 249.523438 244.050781 249.523438 245.101562 C 249.523438 246.148438 249.75 246.949219 250.199219 247.5 C 250.601562 248 251.199219 248.25 252 248.25 "/>
<path style=" stroke:none;fill-rule:nonzero;fill:rgb(100%,0%,0%);fill-opacity:1;" d="M 256.875 241.199219 L 257.925781 241.199219 L 257.925781 244.5 L 261.898438 244.5 L 261.898438 241.199219 L 262.949219 241.199219 L 262.949219 249 L 261.898438 249 L 261.898438 245.398438 L 257.925781 245.398438 L 257.925781 249 L 256.875 249 L 256.875 241.199219 "/>
<path style=" stroke:none;fill-rule:nonzero;fill:rgb(100%,0%,0%);fill-opacity:1;" d="M 293.25 187.050781 C 293.25 185.800781 293.550781 184.824219 294.148438 184.125 C 294.800781 183.425781 295.699219 183.074219 296.851562 183.074219 C 298 183.074219 298.875 183.425781 299.476562 184.125 C 300.125 184.824219 300.449219 185.800781 300.449219 187.050781 C 300.449219 188.351562 300.125 189.351562 299.476562 190.050781 C 298.875 190.800781 298 191.175781 296.851562 191.175781 C 295.699219 191.175781 294.800781 190.800781 294.148438 190.050781 C 293.550781 189.351562 293.25 188.351562 293.25 187.050781 M 296.851562 190.273438 C 297.648438 190.273438 298.25 190 298.648438 189.449219 C 299.101562 188.898438 299.324219 188.101562 299.324219 187.050781 C 299.324219 186.050781 299.101562 185.273438 298.648438 184.726562 C 298.25 184.226562 297.648438 183.976562 296.851562 183.976562 C 296.050781 183.976562 295.425781 184.226562 294.976562 184.726562 C 294.574219 185.273438 294.375 186.050781 294.375 187.050781 C 294.375 188.148438 294.574219 188.949219 294.976562 189.449219 C 295.425781 190 296.050781 190.273438 296.851562 190.273438 "/>
<path style=" stroke:none;fill-rule:nonzero;fill:rgb(0%,0%,100%);fill-opacity:1;" d="M 340.574219 198.449219 L 343.199219 202.574219 C 343.351562 202.875 343.550781 203.25 343.800781 203.699219 C 344.101562 204.199219 344.25 204.476562 344.25 204.523438 L 344.25 198.449219 L 345.300781 198.449219 L 345.300781 206.25 L 344.25 206.25 L 341.476562 201.75 C 341.273438 201.398438 341.050781 201.023438 340.800781 200.625 C 340.601562 200.175781 340.449219 199.898438 340.351562 199.800781 L 340.351562 206.25 L 339.375 206.25 L 339.375 198.449219 L 340.574219 198.449219 "/>
<path style=" stroke:none;fill-rule:nonzero;fill:rgb(0%,0%,100%);fill-opacity:1;" d="M 346.800781 198.449219 L 347.851562 198.449219 L 347.851562 201.75 L 351.898438 201.75 L 351.898438 198.449219 L 352.949219 198.449219 L 352.949219 206.25 L 351.898438 206.25 L 351.898438 202.648438 L 347.851562 202.648438 L 347.851562 206.25 L 346.800781 206.25 L 346.800781 198.449219 "/>
<path style=" stroke:none;fill-rule:nonzero;fill:rgb(0%,0%,100%);fill-opacity:1;" d="M 354.449219 206.023438 C 354.601562 205.675781 354.824219 205.425781 355.125 205.273438 C 355.425781 205.074219 355.773438 204.976562 356.175781 204.976562 C 356.726562 204.976562 357.148438 205.101562 357.449219 205.351562 C 357.75 205.648438 357.898438 206.050781 357.898438 206.550781 C 357.898438 207.050781 357.699219 207.550781 357.300781 208.050781 C 356.898438 208.550781 356.324219 209.074219 355.574219 209.625 L 357.976562 209.625 L 357.976562 210.226562 L 354.449219 210.226562 L 354.449219 209.699219 C 355.101562 209.25 355.625 208.851562 356.023438 208.5 C 356.375 208.148438 356.648438 207.824219 356.851562 207.523438 C 357.050781 207.226562 357.148438 206.925781 357.148438 206.625 C 357.148438 206.273438 357.050781 206 356.851562 205.800781 C 356.699219 205.648438 356.476562 205.574219 356.175781 205.574219 C 355.925781 205.574219 355.699219 205.625 355.5 205.726562 C 355.300781 205.824219 355.148438 206 355.050781 206.25 L 354.449219 206.023438 "/>
<path style=" stroke:none;fill-rule:nonzero;fill:rgb(100%,0%,0%);fill-opacity:1;" d="M 329.25 155.324219 C 329.25 154.074219 329.550781 153.101562 330.148438 152.398438 C 330.800781 151.699219 331.699219 151.351562 332.851562 151.351562 C 334 151.351562 334.875 151.699219 335.476562 152.398438 C 336.125 153.101562 336.449219 154.074219 336.449219 155.324219 C 336.449219 156.574219 336.125 157.574219 335.476562 158.324219 C 334.875 159.023438 334 159.375 332.851562 159.375 C 331.699219 159.375 330.800781 159.023438 330.148438 158.324219 C 329.550781 157.625 329.25 156.625 329.25 155.324219 M 332.851562 158.476562 C 333.648438 158.476562 334.25 158.226562 334.648438 157.726562 C 335.101562 157.175781 335.324219 156.375 335.324219 155.324219 C 335.324219 154.324219 335.101562 153.550781 334.648438 153 C 334.25 152.5 333.648438 152.25 332.851562 152.25 C 332.050781 152.25 331.425781 152.5 330.976562 153 C 330.523438 153.5 330.300781 154.273438 330.300781 155.324219 C 330.300781 156.375 330.523438 157.175781 330.976562 157.726562 C 331.425781 158.226562 332.050781 158.476562 332.851562 158.476562 "/>
<path style=" stroke:none;fill-rule:nonzero;fill:rgb(80%,80%,0%);fill-opacity:1;" d="M 203.625 159.148438 C 203.675781 159.199219 203.824219 159.273438 204.074219 159.375 C 204.324219 159.476562 204.574219 159.550781 204.824219 159.601562 C 205.125 159.648438 205.398438 159.675781 205.648438 159.675781 C 206.148438 159.675781 206.550781 159.550781 206.851562 159.300781 C 207.148438 159.101562 207.300781 158.773438 207.300781 158.324219 C 207.300781 158.023438 207.226562 157.800781 207.074219 157.648438 C 206.925781 157.449219 206.75 157.300781 206.550781 157.199219 C 206.300781 157.101562 206 157 205.648438 156.898438 C 205.148438 156.75 204.773438 156.625 204.523438 156.523438 C 204.226562 156.375 203.976562 156.175781 203.773438 155.925781 C 203.574219 155.625 203.476562 155.226562 203.476562 154.726562 C 203.476562 154.074219 203.699219 153.550781 204.148438 153.148438 C 204.601562 152.75 205.273438 152.550781 206.175781 152.550781 C 206.773438 152.550781 207.425781 152.699219 208.125 153 L 207.898438 153.824219 C 207.25 153.574219 206.699219 153.449219 206.25 153.449219 C 205.699219 153.449219 205.300781 153.550781 205.050781 153.75 C 204.75 153.949219 204.601562 154.25 204.601562 154.648438 C 204.601562 154.898438 204.675781 155.125 204.824219 155.324219 C 204.976562 155.476562 205.148438 155.601562 205.351562 155.699219 C 205.550781 155.800781 205.851562 155.898438 206.25 156 C 206.699219 156.148438 207.074219 156.300781 207.375 156.449219 C 207.625 156.601562 207.851562 156.824219 208.050781 157.125 C 208.25 157.425781 208.351562 157.824219 208.351562 158.324219 C 208.351562 159.074219 208.125 159.648438 207.675781 160.050781 C 207.175781 160.398438 206.523438 160.574219 205.726562 160.574219 C 205.273438 160.574219 204.851562 160.523438 204.449219 160.425781 C 204.148438 160.324219 203.773438 160.199219 203.324219 160.050781 L 203.625 159.148438 "/>
<path style=" stroke:none;fill-rule:nonzero;fill:rgb(80%,80%,0%);fill-opacity:1;" d="M 79.050781 241.726562 C 79.101562 241.773438 79.25 241.851562 79.5 241.949219 C 79.75 242.050781 80 242.125 80.25 242.175781 C 80.5 242.226562 80.773438 242.25 81.074219 242.25 C 81.574219 242.25 81.949219 242.148438 82.199219 241.949219 C 82.5 241.699219 82.648438 241.351562 82.648438 240.898438 C 82.648438 240.648438 82.574219 240.425781 82.425781 240.226562 C 82.273438 240.023438 82.101562 239.898438 81.898438 239.851562 C 81.699219 239.75 81.398438 239.625 81 239.476562 C 80.550781 239.375 80.175781 239.25 79.875 239.101562 C 79.625 238.949219 79.398438 238.75 79.199219 238.5 C 79 238.199219 78.898438 237.824219 78.898438 237.375 C 78.898438 236.675781 79.125 236.125 79.574219 235.726562 C 80.023438 235.324219 80.699219 235.125 81.601562 235.125 C 82.199219 235.125 82.824219 235.273438 83.476562 235.574219 L 83.25 236.398438 C 82.601562 236.148438 82.050781 236.023438 81.601562 236.023438 C 81.101562 236.023438 80.699219 236.125 80.398438 236.324219 C 80.148438 236.574219 80.023438 236.875 80.023438 237.226562 C 80.023438 237.476562 80.074219 237.699219 80.175781 237.898438 C 80.324219 238.050781 80.523438 238.175781 80.773438 238.273438 C 80.976562 238.375 81.25 238.476562 81.601562 238.574219 C 82.050781 238.726562 82.425781 238.875 82.726562 239.023438 C 83.023438 239.175781 83.273438 239.398438 83.476562 239.699219 C 83.675781 240 83.773438 240.398438 83.773438 240.898438 C 83.773438 241.648438 83.523438 242.226562 83.023438 242.625 C 82.523438 242.976562 81.875 243.148438 81.074219 243.148438 C 80.625 243.148438 80.226562 243.101562 79.875 243 C 79.523438 242.898438 79.148438 242.773438 78.75 242.625 L 79.050781 241.726562 "/>
<path style=" stroke:none;fill-rule:nonzero;fill:rgb(0%,0%,100%);fill-opacity:1;" d="M 17.023438 229.5 L 18.074219 229.5 L 18.074219 232.800781 L 22.125 232.800781 L 22.125 229.5 L 23.175781 229.5 L 23.175781 237.300781 L 22.125 237.300781 L 22.125 233.699219 L 18.074219 233.699219 L 18.074219 237.300781 L 17.023438 237.300781 L 17.023438 229.5 "/>
<path style=" stroke:none;fill-rule:nonzero;fill:rgb(0%,0%,100%);fill-opacity:1;" d="M 24.75 237 C 24.851562 236.699219 25.050781 236.449219 25.351562 236.25 C 25.648438 236.101562 26.023438 236.023438 26.476562 236.023438 C 26.976562 236.023438 27.375 236.148438 27.675781 236.398438 C 27.976562 236.699219 28.125 237.101562 28.125 237.601562 C 28.125 238.101562 27.925781 238.601562 27.523438 239.101562 C 27.175781 239.550781 26.601562 240.074219 25.800781 240.675781 L 28.199219 240.675781 L 28.199219 241.199219 L 24.675781 241.199219 L 24.675781 240.75 C 25.324219 240.300781 25.851562 239.898438 26.25 239.550781 C 26.648438 239.199219 26.925781 238.875 27.074219 238.574219 C 27.273438 238.273438 27.375 237.949219 27.375 237.601562 C 27.375 237.300781 27.300781 237.050781 27.148438 236.851562 C 26.949219 236.648438 26.726562 236.550781 26.476562 236.550781 C 26.175781 236.550781 25.925781 236.625 25.726562 236.773438 C 25.574219 236.875 25.425781 237.050781 25.273438 237.300781 L 24.75 237 "/>
<path style=" stroke:none;fill-rule:nonzero;fill:rgb(0%,0%,100%);fill-opacity:1;" d="M 30.449219 229.5 L 33 233.625 C 33.199219 233.875 33.425781 234.25 33.675781 234.75 C 33.976562 235.25 34.125 235.523438 34.125 235.574219 L 34.125 229.5 L 35.175781 229.5 L 35.175781 237.300781 L 34.125 237.300781 L 31.351562 232.800781 C 31.101562 232.398438 30.875 232 30.675781 231.601562 C 30.425781 231.199219 30.273438 230.949219 30.226562 230.851562 L 30.226562 237.300781 L 29.25 237.300781 L 29.25 229.5 L 30.449219 229.5 "/>
<path style=" stroke:none;fill-rule:nonzero;fill:rgb(0%,0%,100%);fill-opacity:1;" d="M 63.898438 193.125 L 66.449219 197.25 C 66.601562 197.550781 66.824219 197.949219 67.125 198.449219 C 67.375 198.898438 67.5 199.148438 67.5 199.199219 L 67.5 193.125 L 68.550781 193.125 L 68.550781 200.925781 L 67.5 200.925781 L 64.726562 196.425781 C 64.523438 196.074219 64.300781 195.699219 64.050781 195.300781 C 63.851562 194.851562 63.726562 194.574219 63.675781 194.476562 L 63.675781 200.925781 L 62.625 200.925781 L 62.625 193.125 L 63.898438 193.125 "/>
<path style=" stroke:none;fill-rule:nonzero;fill:rgb(0%,0%,0%);fill-opacity:1;" d="M 170.851562 163.5 L 171.976562 163.5 L 171.976562 166.800781 L 175.949219 166.800781 L 175.949219 163.5 L 177 163.5 L 177 171.300781 L 175.949219 171.300781 L 175.949219 167.699219 L 171.976562 167.699219 L 171.976562 171.300781 L 170.851562 171.300781 L 170.851562 163.5 "/>
</g>
</svg>
