<?xml version="1.0" encoding="UTF-8"?>
<svg xmlns="http://www.w3.org/2000/svg" xmlns:xlink="http://www.w3.org/1999/xlink" width="375pt" height="375pt" viewBox="0 0 375 375" version="1.1">
<g id="surface26">
<rect x="0" y="0" width="375" height="375" style="fill:rgb(100%,100%,100%);fill-opacity:1;stroke:none;"/>
<path style="fill:none;stroke-width:2;stroke-linecap:butt;stroke-linejoin:miter;stroke:rgb(0%,0%,0%);stroke-opacity:1;stroke-miterlimit:4;" d="M 442.302083 385.197917 L 398.302083 405.197917 " transform="matrix(0.75,0,0,0.75,0,0)"/>
<path style="fill:none;stroke-width:2;stroke-linecap:butt;stroke-linejoin:miter;stroke:rgb(0%,0%,0%);stroke-opacity:1;stroke-miterlimit:4;" d="M 398.302083 405.197917 L 422.802083 447 " transform="matrix(0.75,0,0,0.75,0,0)"/>
<path style="fill:none;stroke-width:2;stroke-linecap:butt;stroke-linejoin:miter;stroke:rgb(0%,0%,0%);stroke-opacity:1;stroke-miterlimit:4;" d="M 398.302083 405.197917 L 383 359.302083 " transform="matrix(0.75,0,0,0.75,0,0)"/>
<path style="fill-rule:evenodd;fill:rgb(0%,0%,0%);fill-opacity:1;stroke-width:1;stroke-linecap:butt;stroke-linejoin:miter;stroke:rgb(0%,0%,0%);stroke-opacity:1;stroke-miterlimit:4;" d="M 383 359.302083 L 407.197917 317.197917 L 415.098958 322.802083 Z M 383 359.302083 " transform="matrix(0.75,0,0,0.75,0,0)"/>
<path style="fill:none;stroke-width:2;stroke-linecap:butt;stroke-linejoin:miter;stroke:rgb(0%,0%,0%);stroke-opacity:1;stroke-miterlimit:4;" d="M 411.098958 320 L 431.302083 322 " transform="matrix(0.75,0,0,0.75,0,0)"/>
<path style="fill:none;stroke-width:2;stroke-linecap:butt;stroke-linejoin:miter;stroke:rgb(100%,0%,0%);stroke-opacity:1;stroke-miterlimit:4;" d="M 431.302083 322 L 451.401042 323.901042 " transform="matrix(0.75,0,0,0.75,0,0)"/>
<path style="fill:none;stroke-width:2;stroke-linecap:butt;stroke-linejoin:miter;stroke:rgb(0%,0%,0%);stroke-opacity:1;stroke-miterlimit:4;" d="M 406.697917 322 L 398.697917 304.302083 " transform="matrix(0.75,0,0,0.75,0,0)"/>
<path style="fill:none;stroke-width:2;stroke-linecap:butt;stroke-linejoin:miter;stroke:rgb(100%,0%,0%);stroke-opacity:1;stroke-miterlimit:4;" d="M 398.697917 304.302083 L 390.697917 286.697917 " transform="matrix(0.75,0,0,0.75,0,0)"/>
<path style="fill:none;stroke-width:2;stroke-linecap:butt;stroke-linejoin:miter;stroke:rgb(0%,0%,0%);stroke-opacity:1;stroke-miterlimit:4;" d="M 415.5 318 L 407.5 300.302083 " transform="matrix(0.75,0,0,0.75,0,0)"/>
<path style="fill:none;stroke-width:2;stroke-linecap:butt;stroke-linejoin:miter;stroke:rgb(100%,0%,0%);stroke-opacity:1;stroke-miterlimit:4;" d="M 407.5 300.302083 L 399.5 282.697917 " transform="matrix(0.75,0,0,0.75,0,0)"/>
<path style="fill:none;stroke-width:2;stroke-linecap:butt;stroke-linejoin:miter;stroke:rgb(0%,0%,0%);stroke-opacity:1;stroke-miterlimit:4;" d="M 398.302083 405.197917 L 381.802083 417.401042 " transform="matrix(0.75,0,0,0.75,0,0)"/>
<path style="fill:none;stroke-width:2;stroke-linecap:butt;stroke-linejoin:miter;stroke:rgb(80%,80%,0%);stroke-opacity:1;stroke-miterlimit:4;" d="M 381.802083 417.401042 L 365.302083 429.5 " transform="matrix(0.75,0,0,0.75,0,0)"/>
<path style="fill:none;stroke-width:2;stroke-linecap:butt;stroke-linejoin:miter;stroke:rgb(80%,80%,0%);stroke-opacity:1;stroke-miterlimit:4;" d="M 353.401042 429.697917 L 336.697917 417.697917 " transform="matrix(0.75,0,0,0.75,0,0)"/>
<path style="fill:none;stroke-width:2;stroke-linecap:butt;stroke-linejoin:miter;stroke:rgb(0%,0%,0%);stroke-opacity:1;stroke-miterlimit:4;" d="M 336.697917 417.697917 L 320 405.802083 " transform="matrix(0.75,0,0,0.75,0,0)"/>
<path style="fill:none;stroke-width:2;stroke-linecap:butt;stroke-linejoin:miter;stroke:rgb(0%,0%,0%);stroke-opacity:1;stroke-miterlimit:4;" d="M 320 405.802083 L 273.901042 391.197917 " transform="matrix(0.75,0,0,0.75,0,0)"/>
<path style="fill:none;stroke-width:1;stroke-linecap:butt;stroke-linejoin:miter;stroke:rgb(0%,0%,0%);stroke-opacity:1;stroke-miterlimit:4;" d="M 267.697917 393.5 L 268.5 394.901042 " transform="matrix(0.75,0,0,0.75,0,0)"/>
<path style="fill:none;stroke-width:1;stroke-linecap:butt;stroke-linejoin:miter;stroke:rgb(0%,0%,0%);stroke-opacity:1;stroke-miterlimit:4;" d="M 261.598958 395.697917 L 263.098958 398.598958 " transform="matrix(0.75,0,0,0.75,0,0)"/>
<path style="fill:none;stroke-width:1;stroke-linecap:butt;stroke-linejoin:miter;stroke:rgb(0%,0%,0%);stroke-opacity:1;stroke-miterlimit:4;" d="M 255.5 398 L 257.697917 402.302083 " transform="matrix(0.75,0,0,0.75,0,0)"/>
<path style="fill:none;stroke-width:1;stroke-linecap:butt;stroke-linejoin:miter;stroke:rgb(0%,0%,100%);stroke-opacity:1;stroke-miterlimit:4;" d="M 249.302083 400.302083 L 252.302083 406 " transform="matrix(0.75,0,0,0.75,0,0)"/>
<path style="fill:none;stroke-width:1;stroke-linecap:butt;stroke-linejoin:miter;stroke:rgb(0%,0%,100%);stroke-opacity:1;stroke-miterlimit:4;" d="M 243.197917 402.598958 L 246.901042 409.697917 " transform="matrix(0.75,0,0,0.75,0,0)"/>
<path style="fill:none;stroke-width:1;stroke-linecap:butt;stroke-linejoin:miter;stroke:rgb(0%,0%,100%);stroke-opacity:1;stroke-miterlimit:4;" d="M 237.098958 404.802083 L 241.5 413.401042 " transform="matrix(0.75,0,0,0.75,0,0)"/>
<path style="fill:none;stroke-width:2;stroke-linecap:butt;stroke-linejoin:miter;stroke:rgb(0%,0%,100%);stroke-opacity:1;stroke-miterlimit:4;" d="M 224.098958 409.098958 L 207.098958 398.302083 " transform="matrix(0.75,0,0,0.75,0,0)"/>
<path style="fill:none;stroke-width:2;stroke-linecap:butt;stroke-linejoin:miter;stroke:rgb(0%,0%,0%);stroke-opacity:1;stroke-miterlimit:4;" d="M 207.098958 398.302083 L 190.197917 387.401042 " transform="matrix(0.75,0,0,0.75,0,0)"/>
<path style="fill:none;stroke-width:2;stroke-linecap:butt;stroke-linejoin:miter;stroke:rgb(0%,0%,0%);stroke-opacity:1;stroke-miterlimit:4;" d="M 190.197917 387.401042 L 147.197917 409.697917 " transform="matrix(0.75,0,0,0.75,0,0)"/>
<path style="fill:none;stroke-width:2;stroke-linecap:butt;stroke-linejoin:miter;stroke:rgb(0%,0%,0%);stroke-opacity:1;stroke-miterlimit:4;" d="M 147.197917 409.697917 L 106.401042 383.598958 " transform="matrix(0.75,0,0,0.75,0,0)"/>
<path style="fill:none;stroke-width:2;stroke-linecap:butt;stroke-linejoin:miter;stroke:rgb(0%,0%,0%);stroke-opacity:1;stroke-miterlimit:4;" d="M 106.401042 383.598958 L 108.598958 335.302083 " transform="matrix(0.75,0,0,0.75,0,0)"/>
<path style="fill:none;stroke-width:2;stroke-linecap:butt;stroke-linejoin:miter;stroke:rgb(0%,0%,0%);stroke-opacity:1;stroke-miterlimit:4;" d="M 97.098958 376 L 98.598958 342.098958 " transform="matrix(0.75,0,0,0.75,0,0)"/>
<path style="fill:none;stroke-width:2;stroke-linecap:butt;stroke-linejoin:miter;stroke:rgb(0%,0%,0%);stroke-opacity:1;stroke-miterlimit:4;" d="M 108.598958 335.302083 L 67.901042 309.302083 " transform="matrix(0.75,0,0,0.75,0,0)"/>
<path style="fill:none;stroke-width:2;stroke-linecap:butt;stroke-linejoin:miter;stroke:rgb(0%,0%,0%);stroke-opacity:1;stroke-miterlimit:4;" d="M 67.901042 309.302083 L 24.901042 331.5 " transform="matrix(0.75,0,0,0.75,0,0)"/>
<path style="fill:none;stroke-width:2;stroke-linecap:butt;stroke-linejoin:miter;stroke:rgb(0%,0%,0%);stroke-opacity:1;stroke-miterlimit:4;" d="M 65.901042 321.197917 L 35.802083 336.802083 " transform="matrix(0.75,0,0,0.75,0,0)"/>
<path style="fill:none;stroke-width:2;stroke-linecap:butt;stroke-linejoin:miter;stroke:rgb(0%,0%,0%);stroke-opacity:1;stroke-miterlimit:4;" d="M 24.901042 331.5 L 22.697917 379.901042 " transform="matrix(0.75,0,0,0.75,0,0)"/>
<path style="fill:none;stroke-width:2;stroke-linecap:butt;stroke-linejoin:miter;stroke:rgb(0%,0%,0%);stroke-opacity:1;stroke-miterlimit:4;" d="M 22.697917 379.901042 L 63.5 405.901042 " transform="matrix(0.75,0,0,0.75,0,0)"/>
<path style="fill:none;stroke-width:2;stroke-linecap:butt;stroke-linejoin:miter;stroke:rgb(0%,0%,0%);stroke-opacity:1;stroke-miterlimit:4;" d="M 34.098958 375.598958 L 62.598958 393.901042 " transform="matrix(0.75,0,0,0.75,0,0)"/>
<path style="fill:none;stroke-width:1;stroke-linecap:butt;stroke-linejoin:miter;stroke:rgb(0%,0%,0%);stroke-opacity:1;stroke-miterlimit:4;" d="M 146.098958 416 L 147.697917 416.098958 " transform="matrix(0.75,0,0,0.75,0,0)"/>
<path style="fill:none;stroke-width:1;stroke-linecap:butt;stroke-linejoin:miter;stroke:rgb(0%,0%,0%);stroke-opacity:1;stroke-miterlimit:4;" d="M 145 422.401042 L 148.197917 422.5 " transform="matrix(0.75,0,0,0.75,0,0)"/>
<path style="fill:none;stroke-width:1;stroke-linecap:butt;stroke-linejoin:miter;stroke:rgb(0%,0%,0%);stroke-opacity:1;stroke-miterlimit:4;" d="M 143.901042 428.697917 L 148.802083 429 " transform="matrix(0.75,0,0,0.75,0,0)"/>
<path style="fill:none;stroke-width:1;stroke-linecap:butt;stroke-linejoin:miter;stroke:rgb(0%,0%,100%);stroke-opacity:1;stroke-miterlimit:4;" d="M 142.802083 435.098958 L 149.302083 435.401042 " transform="matrix(0.75,0,0,0.75,0,0)"/>
<path style="fill:none;stroke-width:1;stroke-linecap:butt;stroke-linejoin:miter;stroke:rgb(0%,0%,100%);stroke-opacity:1;stroke-miterlimit:4;" d="M 141.697917 441.401042 L 149.802083 441.802083 " transform="matrix(0.75,0,0,0.75,0,0)"/>
<path style="fill:none;stroke-width:1;stroke-linecap:butt;stroke-linejoin:miter;stroke:rgb(0%,0%,100%);stroke-opacity:1;stroke-miterlimit:4;" d="M 140.697917 447.802083 L 150.302083 448.197917 " transform="matrix(0.75,0,0,0.75,0,0)"/>
<path style="fill:none;stroke-width:2;stroke-linecap:butt;stroke-linejoin:miter;stroke:rgb(0%,0%,0%);stroke-opacity:1;stroke-miterlimit:4;" d="M 185.302083 387.197917 L 186.197917 367.401042 " transform="matrix(0.75,0,0,0.75,0,0)"/>
<path style="fill:none;stroke-width:2;stroke-linecap:butt;stroke-linejoin:miter;stroke:rgb(100%,0%,0%);stroke-opacity:1;stroke-miterlimit:4;" d="M 186.197917 367.401042 L 187.098958 347.598958 " transform="matrix(0.75,0,0,0.75,0,0)"/>
<path style="fill:none;stroke-width:2;stroke-linecap:butt;stroke-linejoin:miter;stroke:rgb(0%,0%,0%);stroke-opacity:1;stroke-miterlimit:4;" d="M 195 387.598958 L 195.901042 367.802083 " transform="matrix(0.75,0,0,0.75,0,0)"/>
<path style="fill:none;stroke-width:2;stroke-linecap:butt;stroke-linejoin:miter;stroke:rgb(100%,0%,0%);stroke-opacity:1;stroke-miterlimit:4;" d="M 195.901042 367.802083 L 196.802083 348 " transform="matrix(0.75,0,0,0.75,0,0)"/>
<path style="fill:none;stroke-width:2;stroke-linecap:butt;stroke-linejoin:miter;stroke:rgb(0%,0%,0%);stroke-opacity:1;stroke-miterlimit:4;" d="M 320 405.802083 L 326 387 " transform="matrix(0.75,0,0,0.75,0,0)"/>
<path style="fill:none;stroke-width:2;stroke-linecap:butt;stroke-linejoin:miter;stroke:rgb(0%,0%,100%);stroke-opacity:1;stroke-miterlimit:4;" d="M 326 387 L 331.901042 368.098958 " transform="matrix(0.75,0,0,0.75,0,0)"/>
<path style="fill:none;stroke-width:2;stroke-linecap:butt;stroke-linejoin:miter;stroke:rgb(0%,0%,100%);stroke-opacity:1;stroke-miterlimit:4;" d="M 327.802083 357.5 L 308.197917 351.302083 " transform="matrix(0.75,0,0,0.75,0,0)"/>
<path style="fill:none;stroke-width:2;stroke-linecap:butt;stroke-linejoin:miter;stroke:rgb(0%,0%,0%);stroke-opacity:1;stroke-miterlimit:4;" d="M 308.197917 351.302083 L 288.5 345.098958 " transform="matrix(0.75,0,0,0.75,0,0)"/>
<path style="fill:none;stroke-width:2;stroke-linecap:butt;stroke-linejoin:miter;stroke:rgb(0%,0%,0%);stroke-opacity:1;stroke-miterlimit:4;" d="M 284.197917 347.302083 L 275.302083 330.197917 " transform="matrix(0.75,0,0,0.75,0,0)"/>
<path style="fill:none;stroke-width:2;stroke-linecap:butt;stroke-linejoin:miter;stroke:rgb(100%,0%,0%);stroke-opacity:1;stroke-miterlimit:4;" d="M 275.302083 330.197917 L 266.401042 313.098958 " transform="matrix(0.75,0,0,0.75,0,0)"/>
<path style="fill:none;stroke-width:2;stroke-linecap:butt;stroke-linejoin:miter;stroke:rgb(0%,0%,0%);stroke-opacity:1;stroke-miterlimit:4;" d="M 292.802083 342.802083 L 283.901042 325.697917 " transform="matrix(0.75,0,0,0.75,0,0)"/>
<path style="fill:none;stroke-width:2;stroke-linecap:butt;stroke-linejoin:miter;stroke:rgb(100%,0%,0%);stroke-opacity:1;stroke-miterlimit:4;" d="M 283.901042 325.697917 L 275 308.598958 " transform="matrix(0.75,0,0,0.75,0,0)"/>
<path style="fill:none;stroke-width:2;stroke-linecap:butt;stroke-linejoin:miter;stroke:rgb(0%,0%,0%);stroke-opacity:1;stroke-miterlimit:4;" d="M 313.401042 63.401042 L 267.401042 78.401042 " transform="matrix(0.75,0,0,0.75,0,0)"/>
<path style="fill:none;stroke-width:2;stroke-linecap:butt;stroke-linejoin:miter;stroke:rgb(0%,0%,0%);stroke-opacity:1;stroke-miterlimit:4;" d="M 267.401042 78.401042 L 257.197917 31.098958 " transform="matrix(0.75,0,0,0.75,0,0)"/>
<path style="fill:none;stroke-width:2;stroke-linecap:butt;stroke-linejoin:miter;stroke:rgb(0%,0%,0%);stroke-opacity:1;stroke-miterlimit:4;" d="M 267.401042 78.401042 L 287.197917 122.598958 " transform="matrix(0.75,0,0,0.75,0,0)"/>
<path style="fill:none;stroke-width:1;stroke-linecap:butt;stroke-linejoin:miter;stroke:rgb(0%,0%,0%);stroke-opacity:1;stroke-miterlimit:4;" d="M 294.901042 125 L 295.302083 123.401042 " transform="matrix(0.75,0,0,0.75,0,0)"/>
<path style="fill:none;stroke-width:1;stroke-linecap:butt;stroke-linejoin:miter;stroke:rgb(0%,0%,0%);stroke-opacity:1;stroke-miterlimit:4;" d="M 302.598958 127.5 L 303.302083 124.302083 " transform="matrix(0.75,0,0,0.75,0,0)"/>
<path style="fill:none;stroke-width:1;stroke-linecap:butt;stroke-linejoin:miter;stroke:rgb(0%,0%,0%);stroke-opacity:1;stroke-miterlimit:4;" d="M 310.401042 129.901042 L 311.401042 125.197917 " transform="matrix(0.75,0,0,0.75,0,0)"/>
<path style="fill:none;stroke-width:1;stroke-linecap:butt;stroke-linejoin:miter;stroke:rgb(0%,0%,0%);stroke-opacity:1;stroke-miterlimit:4;" d="M 318.098958 132.401042 L 319.401042 126 " transform="matrix(0.75,0,0,0.75,0,0)"/>
<path style="fill:none;stroke-width:1;stroke-linecap:butt;stroke-linejoin:miter;stroke:rgb(0%,0%,0%);stroke-opacity:1;stroke-miterlimit:4;" d="M 325.802083 134.802083 L 327.5 126.901042 " transform="matrix(0.75,0,0,0.75,0,0)"/>
<path style="fill:none;stroke-width:1;stroke-linecap:butt;stroke-linejoin:miter;stroke:rgb(0%,0%,0%);stroke-opacity:1;stroke-miterlimit:4;" d="M 333.5 137.197917 L 335.5 127.802083 " transform="matrix(0.75,0,0,0.75,0,0)"/>
<path style="fill:none;stroke-width:2;stroke-linecap:butt;stroke-linejoin:miter;stroke:rgb(0%,0%,0%);stroke-opacity:1;stroke-miterlimit:4;" d="M 334.5 132.5 L 340.697917 151.197917 " transform="matrix(0.75,0,0,0.75,0,0)"/>
<path style="fill:none;stroke-width:2;stroke-linecap:butt;stroke-linejoin:miter;stroke:rgb(100%,0%,0%);stroke-opacity:1;stroke-miterlimit:4;" d="M 340.697917 151.197917 L 346.802083 170 " transform="matrix(0.75,0,0,0.75,0,0)"/>
<path style="fill:none;stroke-width:2;stroke-linecap:butt;stroke-linejoin:miter;stroke:rgb(0%,0%,0%);stroke-opacity:1;stroke-miterlimit:4;" d="M 330.901042 129.302083 L 343.197917 115.598958 " transform="matrix(0.75,0,0,0.75,0,0)"/>
<path style="fill:none;stroke-width:2;stroke-linecap:butt;stroke-linejoin:miter;stroke:rgb(100%,0%,0%);stroke-opacity:1;stroke-miterlimit:4;" d="M 343.197917 115.598958 L 355.401042 102 " transform="matrix(0.75,0,0,0.75,0,0)"/>
<path style="fill:none;stroke-width:2;stroke-linecap:butt;stroke-linejoin:miter;stroke:rgb(0%,0%,0%);stroke-opacity:1;stroke-miterlimit:4;" d="M 338.098958 135.697917 L 350.401042 122.098958 " transform="matrix(0.75,0,0,0.75,0,0)"/>
<path style="fill:none;stroke-width:2;stroke-linecap:butt;stroke-linejoin:miter;stroke:rgb(100%,0%,0%);stroke-opacity:1;stroke-miterlimit:4;" d="M 350.401042 122.098958 L 362.598958 108.401042 " transform="matrix(0.75,0,0,0.75,0,0)"/>
<path style="fill:none;stroke-width:2;stroke-linecap:butt;stroke-linejoin:miter;stroke:rgb(0%,0%,0%);stroke-opacity:1;stroke-miterlimit:4;" d="M 287.197917 122.598958 L 272.598958 135.697917 " transform="matrix(0.75,0,0,0.75,0,0)"/>
<path style="fill:none;stroke-width:2;stroke-linecap:butt;stroke-linejoin:miter;stroke:rgb(0%,0%,100%);stroke-opacity:1;stroke-miterlimit:4;" d="M 272.598958 135.697917 L 258.098958 148.901042 " transform="matrix(0.75,0,0,0.75,0,0)"/>
<path style="fill:none;stroke-width:2;stroke-linecap:butt;stroke-linejoin:miter;stroke:rgb(0%,0%,100%);stroke-opacity:1;stroke-miterlimit:4;" d="M 244.5 151.098958 L 226.901042 141 " transform="matrix(0.75,0,0,0.75,0,0)"/>
<path style="fill:none;stroke-width:2;stroke-linecap:butt;stroke-linejoin:miter;stroke:rgb(0%,0%,0%);stroke-opacity:1;stroke-miterlimit:4;" d="M 226.901042 141 L 209.401042 130.901042 " transform="matrix(0.75,0,0,0.75,0,0)"/>
<path style="fill:none;stroke-width:2;stroke-linecap:butt;stroke-linejoin:miter;stroke:rgb(0%,0%,0%);stroke-opacity:1;stroke-miterlimit:4;" d="M 209.401042 130.901042 L 185.302083 172.901042 " transform="matrix(0.75,0,0,0.75,0,0)"/>
<path style="fill:none;stroke-width:2;stroke-linecap:butt;stroke-linejoin:miter;stroke:rgb(0%,0%,100%);stroke-opacity:1;stroke-miterlimit:4;" d="M 246.5 163.5 L 236.802083 180.197917 " transform="matrix(0.75,0,0,0.75,0,0)"/>
<path style="fill:none;stroke-width:2;stroke-linecap:butt;stroke-linejoin:miter;stroke:rgb(0%,0%,0%);stroke-opacity:1;stroke-miterlimit:4;" d="M 236.802083 180.197917 L 227.197917 197 " transform="matrix(0.75,0,0,0.75,0,0)"/>
<path style="fill:none;stroke-width:2;stroke-linecap:butt;stroke-linejoin:miter;stroke:rgb(0%,0%,0%);stroke-opacity:1;stroke-miterlimit:4;" d="M 231.901042 195.697917 L 237.098958 214.802083 " transform="matrix(0.75,0,0,0.75,0,0)"/>
<path style="fill:none;stroke-width:2;stroke-linecap:butt;stroke-linejoin:miter;stroke:rgb(100%,0%,0%);stroke-opacity:1;stroke-miterlimit:4;" d="M 237.098958 214.802083 L 242.197917 233.901042 " transform="matrix(0.75,0,0,0.75,0,0)"/>
<path style="fill:none;stroke-width:2;stroke-linecap:butt;stroke-linejoin:miter;stroke:rgb(0%,0%,0%);stroke-opacity:1;stroke-miterlimit:4;" d="M 222.5 198.197917 L 227.697917 217.302083 " transform="matrix(0.75,0,0,0.75,0,0)"/>
<path style="fill:none;stroke-width:2;stroke-linecap:butt;stroke-linejoin:miter;stroke:rgb(100%,0%,0%);stroke-opacity:1;stroke-miterlimit:4;" d="M 227.697917 217.302083 L 232.901042 236.401042 " transform="matrix(0.75,0,0,0.75,0,0)"/>
<path style="fill:none;stroke-width:2;stroke-linecap:butt;stroke-linejoin:miter;stroke:rgb(0%,0%,0%);stroke-opacity:1;stroke-miterlimit:4;" d="M 267.401042 78.401042 L 246.401042 80.697917 " transform="matrix(0.75,0,0,0.75,0,0)"/>
<path style="fill:none;stroke-width:2;stroke-linecap:butt;stroke-linejoin:miter;stroke:rgb(80%,80%,0%);stroke-opacity:1;stroke-miterlimit:4;" d="M 246.401042 80.697917 L 225.302083 82.901042 " transform="matrix(0.75,0,0,0.75,0,0)"/>
<path style="fill:none;stroke-width:2;stroke-linecap:butt;stroke-linejoin:miter;stroke:rgb(80%,80%,0%);stroke-opacity:1;stroke-miterlimit:4;" d="M 214.5 75.197917 L 214.401042 59.598958 " transform="matrix(0.75,0,0,0.75,0,0)"/>
<path style="fill:none;stroke-width:2;stroke-linecap:butt;stroke-linejoin:miter;stroke:rgb(100%,0%,0%);stroke-opacity:1;stroke-miterlimit:4;" d="M 214.401042 59.598958 L 214.401042 43.901042 " transform="matrix(0.75,0,0,0.75,0,0)"/>
<path style="fill:none;stroke-width:2;stroke-linecap:butt;stroke-linejoin:miter;stroke:rgb(80%,80%,0%);stroke-opacity:1;stroke-miterlimit:4;" d="M 224.098958 75.098958 L 224.098958 59.5 " transform="matrix(0.75,0,0,0.75,0,0)"/>
<path style="fill:none;stroke-width:2;stroke-linecap:butt;stroke-linejoin:miter;stroke:rgb(100%,0%,0%);stroke-opacity:1;stroke-miterlimit:4;" d="M 224.098958 59.5 L 224.098958 43.901042 " transform="matrix(0.75,0,0,0.75,0,0)"/>
<path style="fill:none;stroke-width:2;stroke-linecap:butt;stroke-linejoin:miter;stroke:rgb(80%,80%,0%);stroke-opacity:1;stroke-miterlimit:4;" d="M 212.802083 87.802083 L 195.697917 86 " transform="matrix(0.75,0,0,0.75,0,0)"/>
<path style="fill:none;stroke-width:2;stroke-linecap:butt;stroke-linejoin:miter;stroke:rgb(100%,0%,0%);stroke-opacity:1;stroke-miterlimit:4;" d="M 195.697917 86 L 178.598958 84.302083 " transform="matrix(0.75,0,0,0.75,0,0)"/>
<path style="fill:none;stroke-width:2;stroke-linecap:butt;stroke-linejoin:miter;stroke:rgb(80%,80%,0%);stroke-opacity:1;stroke-miterlimit:4;" d="M 213.802083 78.098958 L 196.697917 76.401042 " transform="matrix(0.75,0,0,0.75,0,0)"/>
<path style="fill:none;stroke-width:2;stroke-linecap:butt;stroke-linejoin:miter;stroke:rgb(100%,0%,0%);stroke-opacity:1;stroke-miterlimit:4;" d="M 196.697917 76.401042 L 179.598958 74.598958 " transform="matrix(0.75,0,0,0.75,0,0)"/>
<path style="fill:none;stroke-width:2;stroke-linecap:butt;stroke-linejoin:miter;stroke:rgb(0%,0%,100%);stroke-opacity:1;stroke-miterlimit:4;" d="M 341.401042 359.598958 L 362.197917 359.5 " transform="matrix(0.75,0,0,0.75,0,0)"/>
<path style="fill:none;stroke-width:2;stroke-linecap:butt;stroke-linejoin:miter;stroke:rgb(0%,0%,0%);stroke-opacity:1;stroke-miterlimit:4;" d="M 362.197917 359.5 L 383 359.302083 " transform="matrix(0.75,0,0,0.75,0,0)"/>
<path style="fill:none;stroke-width:2;stroke-linecap:butt;stroke-linejoin:miter;stroke:rgb(80%,80%,0%);stroke-opacity:1;stroke-miterlimit:4;" d="M 217.5 92.401042 L 213.401042 111.598958 " transform="matrix(0.75,0,0,0.75,0,0)"/>
<path style="fill:none;stroke-width:2;stroke-linecap:butt;stroke-linejoin:miter;stroke:rgb(0%,0%,0%);stroke-opacity:1;stroke-miterlimit:4;" d="M 213.401042 111.598958 L 209.401042 130.901042 " transform="matrix(0.75,0,0,0.75,0,0)"/>
<path style="fill:none;stroke-width:2;stroke-linecap:butt;stroke-linejoin:miter;stroke:rgb(0%,0%,0%);stroke-opacity:1;stroke-miterlimit:4;" d="M 288.5 345.098958 L 273.901042 391.197917 " transform="matrix(0.75,0,0,0.75,0,0)"/>
<path style="fill:none;stroke-width:2;stroke-linecap:butt;stroke-linejoin:miter;stroke:rgb(0%,0%,0%);stroke-opacity:1;stroke-miterlimit:4;" d="M 227.197917 197 L 185.302083 172.901042 " transform="matrix(0.75,0,0,0.75,0,0)"/>
<path style="fill:none;stroke-width:2;stroke-linecap:butt;stroke-linejoin:miter;stroke:rgb(0%,0%,0%);stroke-opacity:1;stroke-miterlimit:4;" d="M 63.5 405.901042 L 106.401042 383.598958 " transform="matrix(0.75,0,0,0.75,0,0)"/>
<path style="fill-rule:evenodd;fill:rgb(0%,0%,0%);fill-opacity:1;stroke-width:1;stroke-linecap:butt;stroke-linejoin:miter;stroke:rgb(0%,0%,0%);stroke-opacity:1;stroke-miterlimit:4;" d="M 320 405.802083 L 307.697917 441.197917 L 299 436.901042 Z M 320 405.802083 " transform="matrix(0.75,0,0,0.75,0,0)"/>
<path style="fill:none;stroke-width:1;stroke-linecap:butt;stroke-linejoin:miter;stroke:rgb(0%,0%,0%);stroke-opacity:1;stroke-miterlimit:4;" d="M 203.5 127.802083 L 203 129.302083 " transform="matrix(0.75,0,0,0.75,0,0)"/>
<path style="fill:none;stroke-width:1;stroke-linecap:butt;stroke-linejoin:miter;stroke:rgb(0%,0%,0%);stroke-opacity:1;stroke-miterlimit:4;" d="M 197.697917 124.802083 L 196.598958 127.802083 " transform="matrix(0.75,0,0,0.75,0,0)"/>
<path style="fill:none;stroke-width:1;stroke-linecap:butt;stroke-linejoin:miter;stroke:rgb(0%,0%,0%);stroke-opacity:1;stroke-miterlimit:4;" d="M 191.901042 121.697917 L 190.197917 126.197917 " transform="matrix(0.75,0,0,0.75,0,0)"/>
<path style="fill:none;stroke-width:1;stroke-linecap:butt;stroke-linejoin:miter;stroke:rgb(0%,0%,0%);stroke-opacity:1;stroke-miterlimit:4;" d="M 186.098958 118.598958 L 183.802083 124.598958 " transform="matrix(0.75,0,0,0.75,0,0)"/>
<path style="fill:none;stroke-width:1;stroke-linecap:butt;stroke-linejoin:miter;stroke:rgb(0%,0%,0%);stroke-opacity:1;stroke-miterlimit:4;" d="M 180.197917 115.5 L 177.401042 123 " transform="matrix(0.75,0,0,0.75,0,0)"/>
<path style="fill:none;stroke-width:1;stroke-linecap:butt;stroke-linejoin:miter;stroke:rgb(0%,0%,0%);stroke-opacity:1;stroke-miterlimit:4;" d="M 174.401042 112.401042 L 171 121.5 " transform="matrix(0.75,0,0,0.75,0,0)"/>
<path style=" stroke:none;fill-rule:nonzero;fill:rgb(100%,0%,0%);fill-opacity:1;" d="M 339.75 243.523438 C 339.75 241.875 340.148438 240.601562 340.949219 239.699219 C 341.800781 238.800781 342.976562 238.351562 344.476562 238.351562 C 345.976562 238.351562 347.148438 238.800781 348 239.699219 C 348.800781 240.601562 349.199219 241.875 349.199219 243.523438 C 349.199219 245.226562 348.773438 246.550781 347.925781 247.5 C 347.125 248.398438 345.976562 248.851562 344.476562 248.851562 C 342.976562 248.851562 341.800781 248.398438 340.949219 247.5 C 340.148438 246.550781 339.75 245.226562 339.75 243.523438 M 344.476562 247.726562 C 345.523438 247.726562 346.324219 247.375 346.875 246.675781 C 347.425781 245.976562 347.699219 244.925781 347.699219 243.523438 C 347.699219 242.175781 347.425781 241.175781 346.875 240.523438 C 346.324219 239.824219 345.523438 239.476562 344.476562 239.476562 C 343.425781 239.476562 342.625 239.824219 342.074219 240.523438 C 341.476562 241.175781 341.175781 242.175781 341.175781 243.523438 C 341.175781 244.925781 341.476562 245.976562 342.074219 246.675781 C 342.625 247.375 343.425781 247.726562 344.476562 247.726562 "/>
<path style=" stroke:none;fill-rule:nonzero;fill:rgb(100%,0%,0%);fill-opacity:1;" d="M 349.949219 238.425781 L 351.300781 238.425781 L 351.300781 242.773438 L 356.550781 242.773438 L 356.550781 238.425781 L 357.976562 238.425781 L 357.976562 248.699219 L 356.550781 248.699219 L 356.550781 243.976562 L 351.300781 243.976562 L 351.300781 248.699219 L 349.949219 248.699219 L 349.949219 238.425781 "/>
<path style=" stroke:none;fill-rule:nonzero;fill:rgb(100%,0%,0%);fill-opacity:1;" d="M 288.675781 207 C 288.675781 205.351562 289.074219 204.050781 289.875 203.101562 C 290.675781 202.199219 291.824219 201.75 293.324219 201.75 C 294.875 201.75 296.050781 202.199219 296.851562 203.101562 C 297.648438 204.050781 298.050781 205.351562 298.050781 207 C 298.050781 208.648438 297.648438 209.949219 296.851562 210.898438 C 296 211.851562 294.824219 212.324219 293.324219 212.324219 C 291.824219 212.324219 290.675781 211.851562 289.875 210.898438 C 289.074219 209.949219 288.675781 208.648438 288.675781 207 M 293.324219 211.125 C 294.375 211.125 295.199219 210.773438 295.800781 210.074219 C 296.351562 209.375 296.625 208.351562 296.625 207 C 296.625 205.648438 296.351562 204.625 295.800781 203.925781 C 295.199219 203.273438 294.375 202.949219 293.324219 202.949219 C 292.324219 202.949219 291.523438 203.273438 290.925781 203.925781 C 290.375 204.625 290.101562 205.648438 290.101562 207 C 290.101562 208.351562 290.375 209.375 290.925781 210.074219 C 291.523438 210.773438 292.324219 211.125 293.324219 211.125 "/>
<path style=" stroke:none;fill-rule:nonzero;fill:rgb(80%,80%,0%);fill-opacity:1;" d="M 266.625 329.023438 C 266.675781 329.023438 266.875 329.101562 267.226562 329.25 C 267.523438 329.398438 267.851562 329.5 268.199219 329.550781 C 268.550781 329.648438 268.898438 329.699219 269.25 329.699219 C 269.898438 329.699219 270.425781 329.550781 270.824219 329.25 C 271.175781 328.898438 271.351562 328.449219 271.351562 327.898438 C 271.351562 327.550781 271.25 327.25 271.050781 327 C 270.898438 326.75 270.675781 326.574219 270.375 326.476562 C 270.074219 326.324219 269.675781 326.199219 269.175781 326.101562 C 268.574219 325.898438 268.101562 325.699219 267.75 325.5 C 267.398438 325.351562 267.074219 325.101562 266.773438 324.75 C 266.523438 324.351562 266.398438 323.851562 266.398438 323.25 C 266.398438 322.398438 266.699219 321.699219 267.300781 321.148438 C 267.898438 320.601562 268.773438 320.324219 269.925781 320.324219 C 270.726562 320.324219 271.574219 320.523438 272.476562 320.925781 L 272.101562 322.050781 C 271.300781 321.699219 270.601562 321.523438 270 321.523438 C 269.300781 321.523438 268.773438 321.675781 268.425781 321.976562 C 268.074219 322.226562 267.898438 322.574219 267.898438 323.023438 C 267.898438 323.425781 267.976562 323.726562 268.125 323.925781 C 268.324219 324.175781 268.574219 324.351562 268.875 324.449219 C 269.125 324.601562 269.5 324.75 270 324.898438 C 270.601562 325.101562 271.074219 325.273438 271.425781 325.425781 C 271.824219 325.625 272.148438 325.925781 272.398438 326.324219 C 272.648438 326.726562 272.773438 327.25 272.773438 327.898438 C 272.773438 328.851562 272.476562 329.601562 271.875 330.148438 C 271.226562 330.648438 270.375 330.898438 269.324219 330.898438 C 268.726562 330.898438 268.175781 330.824219 267.675781 330.675781 C 267.226562 330.523438 266.726562 330.351562 266.175781 330.148438 L 266.625 329.023438 "/>
<path style=" stroke:none;fill-rule:nonzero;fill:rgb(0%,0%,100%);fill-opacity:1;" d="M 170.925781 304.949219 L 174.300781 310.425781 C 174.5 310.773438 174.773438 311.273438 175.125 311.925781 C 175.523438 312.574219 175.726562 312.925781 175.726562 312.976562 L 175.726562 304.949219 L 177.074219 304.949219 L 177.074219 315.226562 L 175.648438 315.226562 L 172.050781 309.300781 C 171.800781 308.851562 171.523438 308.351562 171.226562 307.800781 C 170.925781 307.25 170.726562 306.898438 170.625 306.75 L 170.625 315.226562 L 169.273438 315.226562 L 169.273438 304.949219 L 170.925781 304.949219 "/>
<path style=" stroke:none;fill-rule:nonzero;fill:rgb(0%,0%,100%);fill-opacity:1;" d="M 169.199219 316.273438 L 170.550781 316.273438 L 170.550781 320.625 L 175.800781 320.625 L 175.800781 316.273438 L 177.226562 316.273438 L 177.226562 326.550781 L 175.800781 326.550781 L 175.800781 321.824219 L 170.550781 321.824219 L 170.550781 326.550781 L 169.199219 326.550781 L 169.199219 316.273438 "/>
<path style=" stroke:none;fill-rule:nonzero;fill:rgb(0%,0%,100%);fill-opacity:1;" d="M 106.5 338.398438 L 109.875 343.800781 C 110.074219 344.199219 110.375 344.726562 110.773438 345.375 C 111.125 345.976562 111.300781 346.300781 111.300781 346.351562 L 111.300781 338.398438 L 112.648438 338.398438 L 112.648438 348.675781 L 111.226562 348.675781 L 107.625 342.675781 C 107.375 342.226562 107.101562 341.75 106.800781 341.25 C 106.5 340.699219 106.300781 340.351562 106.199219 340.199219 L 106.199219 348.675781 L 104.851562 348.675781 L 104.851562 338.398438 L 106.5 338.398438 "/>
<path style=" stroke:none;fill-rule:nonzero;fill:rgb(0%,0%,100%);fill-opacity:1;" d="M 113.851562 338.398438 L 115.273438 338.398438 L 115.273438 342.75 L 120.523438 342.75 L 120.523438 338.398438 L 121.949219 338.398438 L 121.949219 348.675781 L 120.523438 348.675781 L 120.523438 343.949219 L 115.273438 343.949219 L 115.273438 348.675781 L 113.851562 348.675781 L 113.851562 338.398438 "/>
<path style=" stroke:none;fill-rule:nonzero;fill:rgb(0%,0%,100%);fill-opacity:1;" d="M 123.148438 348.300781 C 123.351562 347.851562 123.625 347.523438 123.976562 347.324219 C 124.375 347.074219 124.851562 346.949219 125.398438 346.949219 C 126.101562 346.949219 126.648438 347.125 127.050781 347.476562 C 127.398438 347.875 127.574219 348.398438 127.574219 349.050781 C 127.574219 349.699219 127.324219 350.351562 126.824219 351 C 126.375 351.601562 125.625 352.273438 124.574219 353.023438 L 127.726562 353.023438 L 127.726562 353.773438 L 123.148438 353.773438 L 123.148438 353.175781 C 124 352.574219 124.675781 352.050781 125.175781 351.601562 C 125.675781 351.148438 126.050781 350.726562 126.300781 350.324219 C 126.550781 349.925781 126.675781 349.523438 126.675781 349.125 C 126.675781 348.675781 126.550781 348.324219 126.300781 348.074219 C 126.101562 347.824219 125.800781 347.699219 125.398438 347.699219 C 125.050781 347.699219 124.75 347.773438 124.5 347.925781 C 124.25 348.074219 124.050781 348.324219 123.898438 348.675781 L 123.148438 348.300781 "/>
<path style=" stroke:none;fill-rule:nonzero;fill:rgb(100%,0%,0%);fill-opacity:1;" d="M 139.5 254.324219 C 139.5 252.675781 139.925781 251.398438 140.773438 250.5 C 141.574219 249.601562 142.726562 249.148438 144.226562 249.148438 C 145.773438 249.148438 146.949219 249.601562 147.75 250.5 C 148.550781 251.398438 148.949219 252.675781 148.949219 254.324219 C 148.949219 256.023438 148.550781 257.351562 147.75 258.300781 C 146.898438 259.199219 145.726562 259.648438 144.226562 259.648438 C 142.726562 259.648438 141.574219 259.199219 140.773438 258.300781 C 139.925781 257.351562 139.5 256.023438 139.5 254.324219 M 144.226562 258.523438 C 145.273438 258.523438 146.074219 258.175781 146.625 257.476562 C 147.226562 256.773438 147.523438 255.726562 147.523438 254.324219 C 147.523438 252.976562 147.226562 251.976562 146.625 251.324219 C 146.074219 250.625 145.273438 250.273438 144.226562 250.273438 C 143.175781 250.273438 142.375 250.625 141.824219 251.324219 C 141.273438 251.976562 141 252.976562 141 254.324219 C 141 255.726562 141.273438 256.773438 141.824219 257.476562 C 142.375 258.175781 143.175781 258.523438 144.226562 258.523438 "/>
<path style=" stroke:none;fill-rule:nonzero;fill:rgb(0%,0%,100%);fill-opacity:1;" d="M 248.699219 264.601562 L 252.074219 270.074219 C 252.273438 270.425781 252.550781 270.925781 252.898438 271.574219 C 253.25 272.226562 253.449219 272.574219 253.5 272.625 L 253.5 264.601562 L 254.851562 264.601562 L 254.851562 274.875 L 253.425781 274.875 L 249.824219 268.949219 C 249.523438 268.5 249.226562 268 248.925781 267.449219 C 248.675781 266.898438 248.5 266.550781 248.398438 266.398438 L 248.398438 274.875 L 247.050781 274.875 L 247.050781 264.601562 L 248.699219 264.601562 "/>
<path style=" stroke:none;fill-rule:nonzero;fill:rgb(100%,0%,0%);fill-opacity:1;" d="M 194.925781 226.648438 C 194.925781 225 195.324219 223.699219 196.125 222.75 C 196.976562 221.851562 198.148438 221.398438 199.648438 221.398438 C 201.148438 221.398438 202.324219 221.851562 203.175781 222.75 C 203.976562 223.699219 204.375 225 204.375 226.648438 C 204.375 228.300781 203.976562 229.601562 203.175781 230.550781 C 202.324219 231.5 201.148438 231.976562 199.648438 231.976562 C 198.148438 231.976562 196.976562 231.5 196.125 230.550781 C 195.324219 229.601562 194.925781 228.300781 194.925781 226.648438 M 199.648438 230.773438 C 200.699219 230.773438 201.5 230.425781 202.050781 229.726562 C 202.648438 229.023438 202.949219 228 202.949219 226.648438 C 202.949219 225.300781 202.648438 224.273438 202.050781 223.574219 C 201.5 222.875 200.699219 222.523438 199.648438 222.523438 C 198.601562 222.523438 197.800781 222.875 197.25 223.574219 C 196.699219 224.273438 196.425781 225.300781 196.425781 226.648438 C 196.425781 228 196.699219 229.023438 197.25 229.726562 C 197.800781 230.425781 198.601562 230.773438 199.648438 230.773438 "/>
<path style=" stroke:none;fill-rule:nonzero;fill:rgb(100%,0%,0%);fill-opacity:1;" d="M 257.476562 133.875 C 257.476562 132.226562 257.875 130.949219 258.675781 130.050781 C 259.523438 129.148438 260.699219 128.699219 262.199219 128.699219 C 263.699219 128.699219 264.875 129.148438 265.726562 130.050781 C 266.523438 130.949219 266.925781 132.226562 266.925781 133.875 C 266.925781 135.574219 266.5 136.898438 265.648438 137.851562 C 264.851562 138.75 263.699219 139.199219 262.199219 139.199219 C 260.699219 139.199219 259.523438 138.75 258.675781 137.851562 C 257.875 136.898438 257.476562 135.574219 257.476562 133.875 M 262.199219 138.074219 C 263.25 138.074219 264.050781 137.726562 264.601562 137.023438 C 265.199219 136.324219 265.5 135.273438 265.5 133.875 C 265.5 132.523438 265.199219 131.523438 264.601562 130.875 C 264.050781 130.175781 263.25 129.824219 262.199219 129.824219 C 261.148438 129.824219 260.351562 130.175781 259.800781 130.875 C 259.199219 131.523438 258.898438 132.523438 258.898438 133.875 C 258.898438 135.273438 259.199219 136.324219 259.800781 137.023438 C 260.351562 137.726562 261.148438 138.074219 262.199219 138.074219 "/>
<path style=" stroke:none;fill-rule:nonzero;fill:rgb(100%,0%,0%);fill-opacity:1;" d="M 267.675781 128.773438 L 269.023438 128.773438 L 269.023438 133.125 L 274.273438 133.125 L 274.273438 128.773438 L 275.699219 128.773438 L 275.699219 139.050781 L 274.273438 139.050781 L 274.273438 134.324219 L 269.023438 134.324219 L 269.023438 139.050781 L 267.675781 139.050781 L 267.675781 128.773438 "/>
<path style=" stroke:none;fill-rule:nonzero;fill:rgb(100%,0%,0%);fill-opacity:1;" d="M 270.375 72.375 C 270.375 70.726562 270.800781 69.449219 271.648438 68.550781 C 272.449219 67.648438 273.601562 67.199219 275.101562 67.199219 C 276.648438 67.199219 277.824219 67.648438 278.625 68.550781 C 279.425781 69.449219 279.824219 70.726562 279.824219 72.375 C 279.824219 74.023438 279.425781 75.324219 278.625 76.273438 C 277.773438 77.226562 276.601562 77.699219 275.101562 77.699219 C 273.601562 77.699219 272.449219 77.226562 271.648438 76.273438 C 270.800781 75.375 270.375 74.074219 270.375 72.375 M 275.101562 76.574219 C 276.148438 76.574219 276.949219 76.226562 277.5 75.523438 C 278.101562 74.824219 278.398438 73.773438 278.398438 72.375 C 278.398438 71.023438 278.101562 70.023438 277.5 69.375 C 276.949219 68.675781 276.148438 68.324219 275.101562 68.324219 C 274.050781 68.324219 273.25 68.675781 272.699219 69.375 C 272.148438 70.023438 271.875 71.023438 271.875 72.375 C 271.875 73.773438 272.148438 74.824219 272.699219 75.523438 C 273.25 76.226562 274.050781 76.574219 275.101562 76.574219 "/>
<path style=" stroke:none;fill-rule:nonzero;fill:rgb(0%,0%,100%);fill-opacity:1;" d="M 186.226562 111.148438 L 189.601562 116.550781 C 189.800781 116.898438 190.074219 117.398438 190.425781 118.050781 C 190.824219 118.699219 191.023438 119.050781 191.023438 119.101562 L 191.023438 111.148438 L 192.375 111.148438 L 192.375 121.425781 L 190.949219 121.425781 L 187.351562 115.425781 C 187.101562 114.976562 186.824219 114.476562 186.523438 113.925781 C 186.226562 113.425781 186.023438 113.074219 185.925781 112.875 L 185.925781 121.425781 L 184.574219 121.425781 L 184.574219 111.148438 L 186.226562 111.148438 "/>
<path style=" stroke:none;fill-rule:nonzero;fill:rgb(100%,0%,0%);fill-opacity:1;" d="M 175.199219 182.773438 C 175.199219 181.125 175.601562 179.851562 176.398438 178.949219 C 177.199219 178 178.351562 177.523438 179.851562 177.523438 C 181.398438 177.523438 182.574219 178 183.375 178.949219 C 184.175781 179.851562 184.574219 181.125 184.574219 182.773438 C 184.574219 184.425781 184.175781 185.726562 183.375 186.675781 C 182.523438 187.625 181.351562 188.101562 179.851562 188.101562 C 178.351562 188.101562 177.199219 187.625 176.398438 186.675781 C 175.601562 185.773438 175.199219 184.476562 175.199219 182.773438 M 179.851562 186.976562 C 180.898438 186.976562 181.726562 186.625 182.324219 185.925781 C 182.875 185.226562 183.148438 184.175781 183.148438 182.773438 C 183.148438 181.425781 182.875 180.425781 182.324219 179.773438 C 181.726562 179.074219 180.898438 178.726562 179.851562 178.726562 C 178.851562 178.726562 178.050781 179.074219 177.449219 179.773438 C 176.898438 180.425781 176.625 181.425781 176.625 182.773438 C 176.625 184.175781 176.898438 185.226562 177.449219 185.925781 C 178.050781 186.625 178.851562 186.976562 179.851562 186.976562 "/>
<path style=" stroke:none;fill-rule:nonzero;fill:rgb(80%,80%,0%);fill-opacity:1;" d="M 161.550781 66.226562 C 161.648438 66.226562 161.851562 66.300781 162.148438 66.449219 C 162.5 66.601562 162.851562 66.726562 163.199219 66.824219 C 163.550781 66.875 163.898438 66.898438 164.25 66.898438 C 164.898438 66.898438 165.398438 66.75 165.75 66.449219 C 166.148438 66.101562 166.351562 65.648438 166.351562 65.101562 C 166.351562 64.75 166.25 64.449219 166.050781 64.199219 C 165.851562 64 165.601562 63.824219 165.300781 63.675781 C 165.050781 63.574219 164.675781 63.449219 164.175781 63.300781 C 163.574219 63.101562 163.074219 62.925781 162.675781 62.773438 C 162.324219 62.574219 162.023438 62.300781 161.773438 61.949219 C 161.523438 61.550781 161.398438 61.050781 161.398438 60.449219 C 161.398438 59.601562 161.699219 58.898438 162.300781 58.351562 C 162.851562 57.800781 163.726562 57.523438 164.925781 57.523438 C 165.726562 57.523438 166.574219 57.726562 167.476562 58.125 L 167.101562 59.25 C 166.300781 58.898438 165.574219 58.726562 164.925781 58.726562 C 164.273438 58.726562 163.773438 58.875 163.425781 59.175781 C 163.023438 59.425781 162.824219 59.800781 162.824219 60.300781 C 162.824219 60.648438 162.925781 60.925781 163.125 61.125 C 163.324219 61.375 163.550781 61.550781 163.800781 61.648438 C 164.101562 61.800781 164.476562 61.949219 164.925781 62.101562 C 165.574219 62.300781 166.074219 62.5 166.425781 62.699219 C 166.773438 62.851562 167.101562 63.125 167.398438 63.523438 C 167.648438 63.925781 167.773438 64.449219 167.773438 65.101562 C 167.773438 66.050781 167.449219 66.800781 166.800781 67.351562 C 166.199219 67.851562 165.375 68.101562 164.324219 68.101562 C 163.675781 68.101562 163.125 68.023438 162.675781 67.875 C 162.226562 67.773438 161.726562 67.601562 161.175781 67.351562 L 161.550781 66.226562 "/>
<path style=" stroke:none;fill-rule:nonzero;fill:rgb(100%,0%,0%);fill-opacity:1;" d="M 159.675781 26.398438 C 159.675781 24.75 160.074219 23.476562 160.875 22.574219 C 161.726562 21.675781 162.898438 21.226562 164.398438 21.226562 C 165.898438 21.226562 167.074219 21.675781 167.925781 22.574219 C 168.726562 23.476562 169.125 24.75 169.125 26.398438 C 169.125 28.101562 168.699219 29.425781 167.851562 30.375 C 167.050781 31.273438 165.898438 31.726562 164.398438 31.726562 C 162.898438 31.726562 161.726562 31.273438 160.875 30.375 C 160.074219 29.425781 159.675781 28.101562 159.675781 26.398438 M 164.398438 30.601562 C 165.449219 30.601562 166.25 30.25 166.800781 29.550781 C 167.398438 28.851562 167.699219 27.800781 167.699219 26.398438 C 167.699219 25.050781 167.398438 24.050781 166.800781 23.398438 C 166.25 22.699219 165.449219 22.351562 164.398438 22.351562 C 163.351562 22.351562 162.550781 22.699219 162 23.398438 C 161.398438 24.050781 161.101562 25.050781 161.101562 26.398438 C 161.101562 27.800781 161.398438 28.851562 162 29.550781 C 162.550781 30.25 163.351562 30.601562 164.398438 30.601562 "/>
<path style=" stroke:none;fill-rule:nonzero;fill:rgb(100%,0%,0%);fill-opacity:1;" d="M 123.675781 59.023438 C 123.675781 57.375 124.074219 56.074219 124.875 55.125 C 125.675781 54.226562 126.851562 53.773438 128.398438 53.773438 C 129.898438 53.773438 131.050781 54.226562 131.851562 55.125 C 132.699219 56.074219 133.125 57.375 133.125 59.023438 C 133.125 60.675781 132.699219 61.976562 131.851562 62.925781 C 131.050781 63.875 129.898438 64.351562 128.398438 64.351562 C 126.898438 64.351562 125.726562 63.875 124.875 62.925781 C 124.074219 61.976562 123.675781 60.675781 123.675781 59.023438 M 128.398438 63.148438 C 129.449219 63.148438 130.25 62.800781 130.800781 62.101562 C 131.351562 61.398438 131.625 60.375 131.625 59.023438 C 131.625 57.675781 131.351562 56.648438 130.800781 55.949219 C 130.25 55.25 129.449219 54.898438 128.398438 54.898438 C 127.351562 54.898438 126.523438 55.25 125.925781 55.949219 C 125.375 56.648438 125.101562 57.675781 125.101562 59.023438 C 125.101562 60.375 125.375 61.398438 125.925781 62.101562 C 126.523438 62.800781 127.351562 63.148438 128.398438 63.148438 "/>
<path style=" stroke:none;fill-rule:nonzero;fill:rgb(0%,0%,0%);fill-opacity:1;" d="M 219.75 331.648438 L 221.101562 331.648438 L 221.101562 336.074219 L 226.351562 336.074219 L 226.351562 331.648438 L 227.773438 331.648438 L 227.773438 341.925781 L 226.351562 341.925781 L 226.351562 337.199219 L 221.101562 337.199219 L 221.101562 341.925781 L 219.75 341.925781 L 219.75 331.648438 "/>
<path style=" stroke:none;fill-rule:nonzero;fill:rgb(0%,0%,0%);fill-opacity:1;" d="M 119.101562 80.101562 L 120.449219 80.101562 L 120.449219 84.523438 L 125.773438 84.523438 L 125.773438 80.101562 L 127.125 80.101562 L 127.125 90.375 L 125.773438 90.375 L 125.773438 85.648438 L 120.449219 85.648438 L 120.449219 90.375 L 119.101562 90.375 L 119.101562 80.101562 "/>
</g>
</svg>
