<?xml version="1.0" encoding="UTF-8"?>
<svg xmlns="http://www.w3.org/2000/svg" xmlns:xlink="http://www.w3.org/1999/xlink" width="375pt" height="375pt" viewBox="0 0 375 375" version="1.1">
<g id="surface206">
<rect x="0" y="0" width="375" height="375" style="fill:rgb(100%,100%,100%);fill-opacity:1;stroke:none;"/>
<path style="fill:none;stroke-width:2;stroke-linecap:butt;stroke-linejoin:miter;stroke:rgb(0%,0%,0%);stroke-opacity:1;stroke-miterlimit:4;" d="M 181 128.598958 L 181.598958 142.5 " transform="matrix(0.75,0,0,0.75,0,0)"/>
<path style="fill:none;stroke-width:2;stroke-linecap:butt;stroke-linejoin:miter;stroke:rgb(100%,0%,0%);stroke-opacity:1;stroke-miterlimit:4;" d="M 181.598958 142.5 L 182.197917 156.5 " transform="matrix(0.75,0,0,0.75,0,0)"/>
<path style="fill:none;stroke-width:2;stroke-linecap:butt;stroke-linejoin:miter;stroke:rgb(100%,0%,0%);stroke-opacity:1;stroke-miterlimit:4;" d="M 176.901042 165.901042 L 167.697917 171.802083 " transform="matrix(0.75,0,0,0.75,0,0)"/>
<path style="fill:none;stroke-width:2;stroke-linecap:butt;stroke-linejoin:miter;stroke:rgb(0%,0%,100%);stroke-opacity:1;stroke-miterlimit:4;" d="M 167.697917 171.802083 L 158.598958 177.598958 " transform="matrix(0.75,0,0,0.75,0,0)"/>
<path style="fill:none;stroke-width:2;stroke-linecap:butt;stroke-linejoin:miter;stroke:rgb(0%,0%,100%);stroke-opacity:1;stroke-miterlimit:4;" d="M 154.098958 186.5 L 154.697917 200.401042 " transform="matrix(0.75,0,0,0.75,0,0)"/>
<path style="fill:none;stroke-width:2;stroke-linecap:butt;stroke-linejoin:miter;stroke:rgb(0%,0%,0%);stroke-opacity:1;stroke-miterlimit:4;" d="M 154.697917 200.401042 L 155.302083 214.401042 " transform="matrix(0.75,0,0,0.75,0,0)"/>
<path style="fill:none;stroke-width:2;stroke-linecap:butt;stroke-linejoin:miter;stroke:rgb(0%,0%,100%);stroke-opacity:1;stroke-miterlimit:4;" d="M 161 190.401042 L 161.401042 200.197917 " transform="matrix(0.75,0,0,0.75,0,0)"/>
<path style="fill:none;stroke-width:2;stroke-linecap:butt;stroke-linejoin:miter;stroke:rgb(0%,0%,0%);stroke-opacity:1;stroke-miterlimit:4;" d="M 161.401042 200.197917 L 161.901042 209.901042 " transform="matrix(0.75,0,0,0.75,0,0)"/>
<path style="fill:none;stroke-width:2;stroke-linecap:butt;stroke-linejoin:miter;stroke:rgb(0%,0%,0%);stroke-opacity:1;stroke-miterlimit:4;" d="M 155.302083 214.401042 L 185.302083 230.098958 " transform="matrix(0.75,0,0,0.75,0,0)"/>
<path style="fill:none;stroke-width:2;stroke-linecap:butt;stroke-linejoin:miter;stroke:rgb(0%,0%,0%);stroke-opacity:1;stroke-miterlimit:4;" d="M 183.5 227.197917 L 195 219.901042 " transform="matrix(0.75,0,0,0.75,0,0)"/>
<path style="fill:none;stroke-width:2;stroke-linecap:butt;stroke-linejoin:miter;stroke:rgb(100%,0%,0%);stroke-opacity:1;stroke-miterlimit:4;" d="M 195 219.901042 L 206.598958 212.598958 " transform="matrix(0.75,0,0,0.75,0,0)"/>
<path style="fill:none;stroke-width:2;stroke-linecap:butt;stroke-linejoin:miter;stroke:rgb(0%,0%,0%);stroke-opacity:1;stroke-miterlimit:4;" d="M 187.098958 233 L 198.598958 225.598958 " transform="matrix(0.75,0,0,0.75,0,0)"/>
<path style="fill:none;stroke-width:2;stroke-linecap:butt;stroke-linejoin:miter;stroke:rgb(100%,0%,0%);stroke-opacity:1;stroke-miterlimit:4;" d="M 198.598958 225.598958 L 210.197917 218.302083 " transform="matrix(0.75,0,0,0.75,0,0)"/>
<path style="fill:none;stroke-width:2;stroke-linecap:butt;stroke-linejoin:miter;stroke:rgb(0%,0%,0%);stroke-opacity:1;stroke-miterlimit:4;" d="M 185.302083 230.098958 L 185.901042 244.098958 " transform="matrix(0.75,0,0,0.75,0,0)"/>
<path style="fill:none;stroke-width:2;stroke-linecap:butt;stroke-linejoin:miter;stroke:rgb(0%,0%,100%);stroke-opacity:1;stroke-miterlimit:4;" d="M 185.901042 244.098958 L 186.5 258 " transform="matrix(0.75,0,0,0.75,0,0)"/>
<path style="fill-rule:evenodd;fill:rgb(0%,0%,0%);fill-opacity:1;stroke-width:1;stroke-linecap:butt;stroke-linejoin:miter;stroke:rgb(0%,0%,0%);stroke-opacity:1;stroke-miterlimit:4;" d="M 216.697917 279.598958 L 203.901042 274.802083 L 205.401042 271.802083 Z M 216.697917 279.598958 " transform="matrix(0.75,0,0,0.75,0,0)"/>
<path style="fill-rule:evenodd;fill:rgb(0%,0%,100%);fill-opacity:1;stroke-width:1;stroke-linecap:butt;stroke-linejoin:miter;stroke:rgb(0%,0%,100%);stroke-opacity:1;stroke-miterlimit:4;" d="M 203.901042 274.802083 L 194.098958 264 L 191 269.901042 Z M 203.901042 274.802083 " transform="matrix(0.75,0,0,0.75,0,0)"/>
<path style="fill-rule:evenodd;fill:rgb(0%,0%,100%);fill-opacity:1;stroke-width:1;stroke-linecap:butt;stroke-linejoin:miter;stroke:rgb(0%,0%,100%);stroke-opacity:1;stroke-miterlimit:4;" d="M 203.901042 274.802083 L 205.401042 271.802083 L 194.098958 264 Z M 203.901042 274.802083 " transform="matrix(0.75,0,0,0.75,0,0)"/>
<path style="fill:none;stroke-width:2;stroke-linecap:butt;stroke-linejoin:miter;stroke:rgb(0%,0%,0%);stroke-opacity:1;stroke-miterlimit:4;" d="M 216.697917 279.598958 L 226.901042 311.901042 " transform="matrix(0.75,0,0,0.75,0,0)"/>
<path style="fill:none;stroke-width:2;stroke-linecap:butt;stroke-linejoin:miter;stroke:rgb(0%,0%,0%);stroke-opacity:1;stroke-miterlimit:4;" d="M 229.901042 313.5 L 223.598958 325.5 " transform="matrix(0.75,0,0,0.75,0,0)"/>
<path style="fill:none;stroke-width:2;stroke-linecap:butt;stroke-linejoin:miter;stroke:rgb(100%,0%,0%);stroke-opacity:1;stroke-miterlimit:4;" d="M 223.598958 325.5 L 217.302083 337.598958 " transform="matrix(0.75,0,0,0.75,0,0)"/>
<path style="fill:none;stroke-width:2;stroke-linecap:butt;stroke-linejoin:miter;stroke:rgb(0%,0%,0%);stroke-opacity:1;stroke-miterlimit:4;" d="M 223.901042 310.302083 L 217.598958 322.401042 " transform="matrix(0.75,0,0,0.75,0,0)"/>
<path style="fill:none;stroke-width:2;stroke-linecap:butt;stroke-linejoin:miter;stroke:rgb(100%,0%,0%);stroke-opacity:1;stroke-miterlimit:4;" d="M 217.598958 322.401042 L 211.302083 334.401042 " transform="matrix(0.75,0,0,0.75,0,0)"/>
<path style="fill:none;stroke-width:2;stroke-linecap:butt;stroke-linejoin:miter;stroke:rgb(0%,0%,0%);stroke-opacity:1;stroke-miterlimit:4;" d="M 226.901042 311.901042 L 240.598958 307.598958 " transform="matrix(0.75,0,0,0.75,0,0)"/>
<path style="fill:none;stroke-width:2;stroke-linecap:butt;stroke-linejoin:miter;stroke:rgb(0%,0%,100%);stroke-opacity:1;stroke-miterlimit:4;" d="M 240.598958 307.598958 L 254.401042 303.302083 " transform="matrix(0.75,0,0,0.75,0,0)"/>
<path style="fill:none;stroke-width:2;stroke-linecap:butt;stroke-linejoin:miter;stroke:rgb(0%,0%,100%);stroke-opacity:1;stroke-miterlimit:4;" d="M 263.901042 302.802083 L 278.098958 306 " transform="matrix(0.75,0,0,0.75,0,0)"/>
<path style="fill:none;stroke-width:2;stroke-linecap:butt;stroke-linejoin:miter;stroke:rgb(0%,0%,0%);stroke-opacity:1;stroke-miterlimit:4;" d="M 278.098958 306 L 292.197917 309.197917 " transform="matrix(0.75,0,0,0.75,0,0)"/>
<path style="fill:none;stroke-width:2;stroke-linecap:butt;stroke-linejoin:miter;stroke:rgb(0%,0%,0%);stroke-opacity:1;stroke-miterlimit:4;" d="M 292.197917 309.197917 L 302.302083 341.5 " transform="matrix(0.75,0,0,0.75,0,0)"/>
<path style="fill:none;stroke-width:2;stroke-linecap:butt;stroke-linejoin:miter;stroke:rgb(0%,0%,0%);stroke-opacity:1;stroke-miterlimit:4;" d="M 303.098958 338.197917 L 316.901042 341.197917 " transform="matrix(0.75,0,0,0.75,0,0)"/>
<path style="fill:none;stroke-width:2;stroke-linecap:butt;stroke-linejoin:miter;stroke:rgb(100%,0%,0%);stroke-opacity:1;stroke-miterlimit:4;" d="M 316.901042 341.197917 L 330.598958 344.302083 " transform="matrix(0.75,0,0,0.75,0,0)"/>
<path style="fill:none;stroke-width:2;stroke-linecap:butt;stroke-linejoin:miter;stroke:rgb(0%,0%,0%);stroke-opacity:1;stroke-miterlimit:4;" d="M 301.598958 344.802083 L 315.401042 347.802083 " transform="matrix(0.75,0,0,0.75,0,0)"/>
<path style="fill:none;stroke-width:2;stroke-linecap:butt;stroke-linejoin:miter;stroke:rgb(100%,0%,0%);stroke-opacity:1;stroke-miterlimit:4;" d="M 315.401042 347.802083 L 329.197917 350.901042 " transform="matrix(0.75,0,0,0.75,0,0)"/>
<path style="fill:none;stroke-width:2;stroke-linecap:butt;stroke-linejoin:miter;stroke:rgb(0%,0%,0%);stroke-opacity:1;stroke-miterlimit:4;" d="M 302.302083 341.5 L 293.598958 351 " transform="matrix(0.75,0,0,0.75,0,0)"/>
<path style="fill:none;stroke-width:2;stroke-linecap:butt;stroke-linejoin:miter;stroke:rgb(100%,0%,0%);stroke-opacity:1;stroke-miterlimit:4;" d="M 293.598958 351 L 284.901042 360.5 " transform="matrix(0.75,0,0,0.75,0,0)"/>
<path style="fill:none;stroke-width:2;stroke-linecap:butt;stroke-linejoin:miter;stroke:rgb(0%,0%,0%);stroke-opacity:1;stroke-miterlimit:4;" d="M 292.197917 309.197917 L 315.098958 284.197917 " transform="matrix(0.75,0,0,0.75,0,0)"/>
<path style="fill:none;stroke-width:2;stroke-linecap:butt;stroke-linejoin:miter;stroke:rgb(0%,0%,0%);stroke-opacity:1;stroke-miterlimit:4;" d="M 290.697917 300.802083 L 306.697917 283.401042 " transform="matrix(0.75,0,0,0.75,0,0)"/>
<path style="fill:none;stroke-width:2;stroke-linecap:butt;stroke-linejoin:miter;stroke:rgb(0%,0%,0%);stroke-opacity:1;stroke-miterlimit:4;" d="M 315.098958 284.197917 L 348.197917 291.598958 " transform="matrix(0.75,0,0,0.75,0,0)"/>
<path style="fill:none;stroke-width:2;stroke-linecap:butt;stroke-linejoin:miter;stroke:rgb(0%,0%,0%);stroke-opacity:1;stroke-miterlimit:4;" d="M 348.197917 291.598958 L 357.302083 281.697917 " transform="matrix(0.75,0,0,0.75,0,0)"/>
<path style="fill:none;stroke-width:2;stroke-linecap:butt;stroke-linejoin:miter;stroke:rgb(0%,0%,100%);stroke-opacity:1;stroke-miterlimit:4;" d="M 357.302083 281.697917 L 366.401042 271.802083 " transform="matrix(0.75,0,0,0.75,0,0)"/>
<path style="fill:none;stroke-width:2;stroke-linecap:butt;stroke-linejoin:miter;stroke:rgb(0%,0%,100%);stroke-opacity:1;stroke-miterlimit:4;" d="M 369.197917 260.802083 L 365.098958 247.598958 " transform="matrix(0.75,0,0,0.75,0,0)"/>
<path style="fill:none;stroke-width:2;stroke-linecap:butt;stroke-linejoin:miter;stroke:rgb(0%,0%,0%);stroke-opacity:1;stroke-miterlimit:4;" d="M 365.098958 247.598958 L 360.901042 234.401042 " transform="matrix(0.75,0,0,0.75,0,0)"/>
<path style="fill:none;stroke-width:2;stroke-linecap:butt;stroke-linejoin:miter;stroke:rgb(0%,0%,0%);stroke-opacity:1;stroke-miterlimit:4;" d="M 360.901042 234.401042 L 383.901042 209.401042 " transform="matrix(0.75,0,0,0.75,0,0)"/>
<path style="fill:none;stroke-width:2;stroke-linecap:butt;stroke-linejoin:miter;stroke:rgb(0%,0%,0%);stroke-opacity:1;stroke-miterlimit:4;" d="M 383.901042 209.401042 L 416.901042 216.802083 " transform="matrix(0.75,0,0,0.75,0,0)"/>
<path style="fill:none;stroke-width:2;stroke-linecap:butt;stroke-linejoin:miter;stroke:rgb(0%,0%,0%);stroke-opacity:1;stroke-miterlimit:4;" d="M 416.901042 216.802083 L 439.802083 191.901042 " transform="matrix(0.75,0,0,0.75,0,0)"/>
<path style="fill:none;stroke-width:2;stroke-linecap:butt;stroke-linejoin:miter;stroke:rgb(0%,0%,0%);stroke-opacity:1;stroke-miterlimit:4;" d="M 439.802083 191.901042 L 435.697917 178.697917 " transform="matrix(0.75,0,0,0.75,0,0)"/>
<path style="fill:none;stroke-width:2;stroke-linecap:butt;stroke-linejoin:miter;stroke:rgb(0%,0%,100%);stroke-opacity:1;stroke-miterlimit:4;" d="M 435.697917 178.697917 L 431.5 165.401042 " transform="matrix(0.75,0,0,0.75,0,0)"/>
<path style="fill:none;stroke-width:2;stroke-linecap:butt;stroke-linejoin:miter;stroke:rgb(0%,0%,0%);stroke-opacity:1;stroke-miterlimit:4;" d="M 440.598958 188.598958 L 454.302083 191.598958 " transform="matrix(0.75,0,0,0.75,0,0)"/>
<path style="fill:none;stroke-width:2;stroke-linecap:butt;stroke-linejoin:miter;stroke:rgb(100%,0%,0%);stroke-opacity:1;stroke-miterlimit:4;" d="M 454.302083 191.598958 L 468.098958 194.697917 " transform="matrix(0.75,0,0,0.75,0,0)"/>
<path style="fill:none;stroke-width:2;stroke-linecap:butt;stroke-linejoin:miter;stroke:rgb(0%,0%,0%);stroke-opacity:1;stroke-miterlimit:4;" d="M 439.098958 195.197917 L 452.901042 198.302083 " transform="matrix(0.75,0,0,0.75,0,0)"/>
<path style="fill:none;stroke-width:2;stroke-linecap:butt;stroke-linejoin:miter;stroke:rgb(100%,0%,0%);stroke-opacity:1;stroke-miterlimit:4;" d="M 452.901042 198.302083 L 466.598958 201.302083 " transform="matrix(0.75,0,0,0.75,0,0)"/>
<path style="fill:none;stroke-width:2;stroke-linecap:butt;stroke-linejoin:miter;stroke:rgb(0%,0%,0%);stroke-opacity:1;stroke-miterlimit:4;" d="M 416.901042 216.802083 L 427 249.098958 " transform="matrix(0.75,0,0,0.75,0,0)"/>
<path style="fill:none;stroke-width:2;stroke-linecap:butt;stroke-linejoin:miter;stroke:rgb(0%,0%,0%);stroke-opacity:1;stroke-miterlimit:4;" d="M 427 249.098958 L 404.098958 274 " transform="matrix(0.75,0,0,0.75,0,0)"/>
<path style="fill:none;stroke-width:2;stroke-linecap:butt;stroke-linejoin:miter;stroke:rgb(0%,0%,0%);stroke-opacity:1;stroke-miterlimit:4;" d="M 416.901042 216.802083 L 410 225.302083 " transform="matrix(0.75,0,0,0.75,0,0)"/>
<path style="fill:none;stroke-width:2;stroke-linecap:butt;stroke-linejoin:miter;stroke:rgb(0%,0%,0%);stroke-opacity:1;stroke-miterlimit:4;" d="M 400.401042 236.401042 L 389.302083 248.598958 " transform="matrix(0.75,0,0,0.75,0,0)"/>
<path style="fill:none;stroke-width:2;stroke-linecap:butt;stroke-linejoin:miter;stroke:rgb(0%,0%,0%);stroke-opacity:1;stroke-miterlimit:4;" d="M 315.098958 284.197917 L 305 251.901042 " transform="matrix(0.75,0,0,0.75,0,0)"/>
<path style="fill:none;stroke-width:2;stroke-linecap:butt;stroke-linejoin:miter;stroke:rgb(0%,0%,0%);stroke-opacity:1;stroke-miterlimit:4;" d="M 305 251.901042 L 290.5 248.697917 " transform="matrix(0.75,0,0,0.75,0,0)"/>
<path style="fill:none;stroke-width:2;stroke-linecap:butt;stroke-linejoin:miter;stroke:rgb(80%,80%,0%);stroke-opacity:1;stroke-miterlimit:4;" d="M 290.5 248.697917 L 276.098958 245.5 " transform="matrix(0.75,0,0,0.75,0,0)"/>
<path style="fill:none;stroke-width:2;stroke-linecap:butt;stroke-linejoin:miter;stroke:rgb(80%,80%,0%);stroke-opacity:1;stroke-miterlimit:4;" d="M 267.802083 249.098958 L 258.401042 259.302083 " transform="matrix(0.75,0,0,0.75,0,0)"/>
<path style="fill:none;stroke-width:2;stroke-linecap:butt;stroke-linejoin:miter;stroke:rgb(0%,0%,0%);stroke-opacity:1;stroke-miterlimit:4;" d="M 258.401042 259.302083 L 249 269.5 " transform="matrix(0.75,0,0,0.75,0,0)"/>
<path style="fill:none;stroke-width:2;stroke-linecap:butt;stroke-linejoin:miter;stroke:rgb(0%,0%,0%);stroke-opacity:1;stroke-miterlimit:4;" d="M 155.302083 214.401042 L 126.697917 232.598958 " transform="matrix(0.75,0,0,0.75,0,0)"/>
<path style="fill:none;stroke-width:2;stroke-linecap:butt;stroke-linejoin:miter;stroke:rgb(0%,0%,0%);stroke-opacity:1;stroke-miterlimit:4;" d="M 126.697917 232.598958 L 125.802083 246.5 " transform="matrix(0.75,0,0,0.75,0,0)"/>
<path style="fill:none;stroke-width:2;stroke-linecap:butt;stroke-linejoin:miter;stroke:rgb(0%,0%,100%);stroke-opacity:1;stroke-miterlimit:4;" d="M 125.802083 246.5 L 124.901042 260.5 " transform="matrix(0.75,0,0,0.75,0,0)"/>
<path style="fill:none;stroke-width:2;stroke-linecap:butt;stroke-linejoin:miter;stroke:rgb(0%,0%,0%);stroke-opacity:1;stroke-miterlimit:4;" d="M 119.697917 236.302083 L 119 246.098958 " transform="matrix(0.75,0,0,0.75,0,0)"/>
<path style="fill:none;stroke-width:2;stroke-linecap:butt;stroke-linejoin:miter;stroke:rgb(0%,0%,100%);stroke-opacity:1;stroke-miterlimit:4;" d="M 119 246.098958 L 118.401042 255.901042 " transform="matrix(0.75,0,0,0.75,0,0)"/>
<path style="fill:none;stroke-width:2;stroke-linecap:butt;stroke-linejoin:miter;stroke:rgb(0%,0%,100%);stroke-opacity:1;stroke-miterlimit:4;" d="M 119.802083 267.598958 L 107.901042 270.697917 " transform="matrix(0.75,0,0,0.75,0,0)"/>
<path style="fill:none;stroke-width:2;stroke-linecap:butt;stroke-linejoin:miter;stroke:rgb(80%,80%,0%);stroke-opacity:1;stroke-miterlimit:4;" d="M 107.901042 270.697917 L 95.901042 273.697917 " transform="matrix(0.75,0,0,0.75,0,0)"/>
<path style="fill:none;stroke-width:2;stroke-linecap:butt;stroke-linejoin:miter;stroke:rgb(80%,80%,0%);stroke-opacity:1;stroke-miterlimit:4;" d="M 88 268.901042 L 80.802083 257.598958 " transform="matrix(0.75,0,0,0.75,0,0)"/>
<path style="fill:none;stroke-width:2;stroke-linecap:butt;stroke-linejoin:miter;stroke:rgb(0%,0%,0%);stroke-opacity:1;stroke-miterlimit:4;" d="M 80.802083 257.598958 L 73.598958 246.197917 " transform="matrix(0.75,0,0,0.75,0,0)"/>
<path style="fill:none;stroke-width:2;stroke-linecap:butt;stroke-linejoin:miter;stroke:rgb(0%,0%,0%);stroke-opacity:1;stroke-miterlimit:4;" d="M 73.598958 246.197917 L 59.098958 245.302083 " transform="matrix(0.75,0,0,0.75,0,0)"/>
<path style="fill:none;stroke-width:2;stroke-linecap:butt;stroke-linejoin:miter;stroke:rgb(0%,0%,100%);stroke-opacity:1;stroke-miterlimit:4;" d="M 59.098958 245.302083 L 44.5 244.401042 " transform="matrix(0.75,0,0,0.75,0,0)"/>
<path style="fill:none;stroke-width:2;stroke-linecap:butt;stroke-linejoin:miter;stroke:rgb(0%,0%,0%);stroke-opacity:1;stroke-miterlimit:4;" d="M 73.598958 246.197917 L 82 236 " transform="matrix(0.75,0,0,0.75,0,0)"/>
<path style="fill:none;stroke-width:2;stroke-linecap:butt;stroke-linejoin:miter;stroke:rgb(0%,0%,100%);stroke-opacity:1;stroke-miterlimit:4;" d="M 82 236 L 90.5 225.802083 " transform="matrix(0.75,0,0,0.75,0,0)"/>
<path style="fill:none;stroke-width:2;stroke-linecap:butt;stroke-linejoin:miter;stroke:rgb(0%,0%,0%);stroke-opacity:1;stroke-miterlimit:4;" d="M 81.401042 247.5 L 87.302083 240.302083 " transform="matrix(0.75,0,0,0.75,0,0)"/>
<path style="fill:none;stroke-width:2;stroke-linecap:butt;stroke-linejoin:miter;stroke:rgb(0%,0%,100%);stroke-opacity:1;stroke-miterlimit:4;" d="M 87.302083 240.302083 L 93.197917 233.197917 " transform="matrix(0.75,0,0,0.75,0,0)"/>
<path style="fill:none;stroke-width:2;stroke-linecap:butt;stroke-linejoin:miter;stroke:rgb(0%,0%,0%);stroke-opacity:1;stroke-miterlimit:4;" d="M 249 269.5 L 216.697917 279.598958 " transform="matrix(0.75,0,0,0.75,0,0)"/>
<path style="fill:none;stroke-width:2;stroke-linecap:butt;stroke-linejoin:miter;stroke:rgb(0%,0%,100%);stroke-opacity:1;stroke-miterlimit:4;" d="M 99.901042 222 L 113.302083 227.302083 " transform="matrix(0.75,0,0,0.75,0,0)"/>
<path style="fill:none;stroke-width:2;stroke-linecap:butt;stroke-linejoin:miter;stroke:rgb(0%,0%,0%);stroke-opacity:1;stroke-miterlimit:4;" d="M 113.302083 227.302083 L 126.697917 232.598958 " transform="matrix(0.75,0,0,0.75,0,0)"/>
<path style="fill:none;stroke-width:2;stroke-linecap:butt;stroke-linejoin:miter;stroke:rgb(0%,0%,0%);stroke-opacity:1;stroke-miterlimit:4;" d="M 249 269.5 L 253.197917 282.697917 " transform="matrix(0.75,0,0,0.75,0,0)"/>
<path style="fill:none;stroke-width:2;stroke-linecap:butt;stroke-linejoin:miter;stroke:rgb(0%,0%,100%);stroke-opacity:1;stroke-miterlimit:4;" d="M 253.197917 282.697917 L 257.302083 295.901042 " transform="matrix(0.75,0,0,0.75,0,0)"/>
<path style="fill:none;stroke-width:2;stroke-linecap:butt;stroke-linejoin:miter;stroke:rgb(0%,0%,0%);stroke-opacity:1;stroke-miterlimit:4;" d="M 404.098958 274 L 390 270.901042 " transform="matrix(0.75,0,0,0.75,0,0)"/>
<path style="fill:none;stroke-width:2;stroke-linecap:butt;stroke-linejoin:miter;stroke:rgb(0%,0%,100%);stroke-opacity:1;stroke-miterlimit:4;" d="M 390 270.901042 L 375.802083 267.697917 " transform="matrix(0.75,0,0,0.75,0,0)"/>
<path style="fill:none;stroke-width:2;stroke-linecap:butt;stroke-linejoin:miter;stroke:rgb(0%,0%,0%);stroke-opacity:1;stroke-miterlimit:4;" d="M 379.697917 258.401042 L 378.5 259.598958 " transform="matrix(0.75,0,0,0.75,0,0)"/>
<path style="fill:none;stroke-width:2;stroke-linecap:butt;stroke-linejoin:miter;stroke:rgb(0%,0%,100%);stroke-opacity:1;stroke-miterlimit:4;" d="M 378.5 259.598958 L 377.302083 260.697917 " transform="matrix(0.75,0,0,0.75,0,0)"/>
<path style="fill:none;stroke-width:1;stroke-linecap:butt;stroke-linejoin:miter;stroke:rgb(0%,0%,0%);stroke-opacity:1;stroke-miterlimit:4;" d="M 246.802083 264.802083 L 245.697917 265.5 " transform="matrix(0.75,0,0,0.75,0,0)"/>
<path style="fill:none;stroke-width:1;stroke-linecap:butt;stroke-linejoin:miter;stroke:rgb(0%,0%,0%);stroke-opacity:1;stroke-miterlimit:4;" d="M 244.697917 260.098958 L 242.401042 261.5 " transform="matrix(0.75,0,0,0.75,0,0)"/>
<path style="fill:none;stroke-width:1;stroke-linecap:butt;stroke-linejoin:miter;stroke:rgb(0%,0%,0%);stroke-opacity:1;stroke-miterlimit:4;" d="M 242.5 255.401042 L 239.098958 257.598958 " transform="matrix(0.75,0,0,0.75,0,0)"/>
<path style="fill:none;stroke-width:1;stroke-linecap:butt;stroke-linejoin:miter;stroke:rgb(0%,0%,0%);stroke-opacity:1;stroke-miterlimit:4;" d="M 240.302083 250.802083 L 235.802083 253.598958 " transform="matrix(0.75,0,0,0.75,0,0)"/>
<path style="fill:none;stroke-width:1;stroke-linecap:butt;stroke-linejoin:miter;stroke:rgb(0%,0%,0%);stroke-opacity:1;stroke-miterlimit:4;" d="M 238.098958 246.098958 L 232.5 249.598958 " transform="matrix(0.75,0,0,0.75,0,0)"/>
<path style=" stroke:none;fill-rule:nonzero;fill:rgb(100%,0%,0%);fill-opacity:1;" d="M 133.5 121.875 C 133.5 120.726562 133.800781 119.824219 134.398438 119.175781 C 134.949219 118.523438 135.75 118.199219 136.800781 118.199219 C 137.851562 118.199219 138.675781 118.523438 139.273438 119.175781 C 139.824219 119.824219 140.101562 120.726562 140.101562 121.875 C 140.101562 123.023438 139.824219 123.925781 139.273438 124.574219 C 138.675781 125.226562 137.851562 125.550781 136.800781 125.550781 C 135.75 125.550781 134.949219 125.226562 134.398438 124.574219 C 133.800781 123.925781 133.5 123.023438 133.5 121.875 M 136.800781 124.726562 C 137.550781 124.726562 138.125 124.5 138.523438 124.050781 C 138.925781 123.550781 139.125 122.824219 139.125 121.875 C 139.125 120.925781 138.925781 120.199219 138.523438 119.699219 C 138.125 119.25 137.550781 119.023438 136.800781 119.023438 C 136.101562 119.023438 135.550781 119.25 135.148438 119.699219 C 134.75 120.199219 134.550781 120.925781 134.550781 121.875 C 134.550781 122.824219 134.75 123.550781 135.148438 124.050781 C 135.550781 124.5 136.101562 124.726562 136.800781 124.726562 "/>
<path style=" stroke:none;fill-rule:nonzero;fill:rgb(0%,0%,100%);fill-opacity:1;" d="M 113.773438 131.851562 L 116.175781 135.675781 C 116.324219 135.925781 116.523438 136.273438 116.773438 136.726562 C 117.023438 137.175781 117.148438 137.398438 117.148438 137.398438 L 117.148438 131.851562 L 118.125 131.851562 L 118.125 139.050781 L 117.148438 139.050781 L 114.601562 134.851562 C 114.398438 134.550781 114.199219 134.199219 114 133.800781 C 113.800781 133.449219 113.648438 133.226562 113.550781 133.125 L 113.550781 139.050781 L 112.648438 139.050781 L 112.648438 131.851562 L 113.773438 131.851562 "/>
<path style=" stroke:none;fill-rule:nonzero;fill:rgb(100%,0%,0%);fill-opacity:1;" d="M 157.125 159 C 157.125 157.851562 157.398438 156.949219 157.949219 156.300781 C 158.5 155.648438 159.324219 155.324219 160.425781 155.324219 C 161.476562 155.324219 162.273438 155.648438 162.824219 156.300781 C 163.425781 156.949219 163.726562 157.851562 163.726562 159 C 163.726562 160.148438 163.425781 161.050781 162.824219 161.699219 C 162.273438 162.351562 161.476562 162.675781 160.425781 162.675781 C 159.324219 162.675781 158.5 162.351562 157.949219 161.699219 C 157.398438 161.050781 157.125 160.148438 157.125 159 M 160.425781 161.925781 C 161.125 161.925781 161.675781 161.675781 162.074219 161.175781 C 162.476562 160.675781 162.675781 159.949219 162.675781 159 C 162.675781 158.050781 162.476562 157.324219 162.074219 156.824219 C 161.675781 156.375 161.125 156.148438 160.425781 156.148438 C 159.675781 156.148438 159.101562 156.375 158.699219 156.824219 C 158.300781 157.324219 158.101562 158.050781 158.101562 159 C 158.101562 159.949219 158.300781 160.675781 158.699219 161.175781 C 159.101562 161.675781 159.675781 161.925781 160.425781 161.925781 "/>
<path style=" stroke:none;fill-rule:nonzero;fill:rgb(0%,0%,100%);fill-opacity:1;" d="M 130.800781 194.324219 L 131.773438 194.324219 L 131.773438 197.398438 L 135.449219 197.398438 L 135.449219 194.324219 L 136.425781 194.324219 L 136.425781 201.523438 L 135.449219 201.523438 L 135.449219 198.226562 L 131.773438 198.226562 L 131.773438 201.523438 L 130.800781 201.523438 L 130.800781 194.324219 "/>
<path style=" stroke:none;fill-rule:nonzero;fill:rgb(0%,0%,100%);fill-opacity:1;" d="M 138.449219 194.324219 L 140.773438 198.148438 C 140.925781 198.398438 141.125 198.75 141.375 199.199219 C 141.625 199.648438 141.773438 199.898438 141.824219 199.949219 L 141.824219 194.324219 L 142.726562 194.324219 L 142.726562 201.523438 L 141.75 201.523438 L 139.273438 197.398438 C 139.074219 197.050781 138.851562 196.699219 138.601562 196.351562 C 138.398438 195.949219 138.273438 195.699219 138.226562 195.601562 L 138.226562 201.523438 L 137.324219 201.523438 L 137.324219 194.324219 L 138.449219 194.324219 "/>
<path style=" stroke:none;fill-rule:nonzero;fill:rgb(100%,0%,0%);fill-opacity:1;" d="M 155.101562 256.5 C 155.101562 255.351562 155.375 254.449219 155.925781 253.800781 C 156.476562 253.148438 157.300781 252.824219 158.398438 252.824219 C 159.449219 252.824219 160.25 253.148438 160.800781 253.800781 C 161.398438 254.449219 161.699219 255.351562 161.699219 256.5 C 161.699219 257.648438 161.398438 258.550781 160.800781 259.199219 C 160.25 259.851562 159.449219 260.175781 158.398438 260.175781 C 157.351562 260.175781 156.523438 259.851562 155.925781 259.199219 C 155.375 258.550781 155.101562 257.648438 155.101562 256.5 M 158.398438 259.351562 C 159.101562 259.351562 159.648438 259.125 160.050781 258.675781 C 160.449219 258.175781 160.648438 257.449219 160.648438 256.5 C 160.648438 255.550781 160.449219 254.824219 160.050781 254.324219 C 159.648438 253.875 159.101562 253.648438 158.398438 253.648438 C 157.648438 253.648438 157.074219 253.875 156.675781 254.324219 C 156.273438 254.824219 156.074219 255.550781 156.074219 256.5 C 156.074219 257.449219 156.273438 258.175781 156.675781 258.675781 C 157.074219 259.125 157.648438 259.351562 158.398438 259.351562 "/>
<path style=" stroke:none;fill-rule:nonzero;fill:rgb(0%,0%,100%);fill-opacity:1;" d="M 192.75 222.75 L 195.148438 226.574219 C 195.300781 226.824219 195.5 227.175781 195.75 227.625 C 196 228.074219 196.125 228.300781 196.125 228.300781 L 196.125 222.75 L 197.101562 222.75 L 197.101562 229.949219 L 196.125 229.949219 L 193.574219 225.75 C 193.375 225.449219 193.175781 225.101562 192.976562 224.699219 C 192.773438 224.351562 192.648438 224.125 192.601562 224.023438 L 192.601562 229.949219 L 191.625 229.949219 L 191.625 222.75 L 192.75 222.75 "/>
<path style=" stroke:none;fill-rule:nonzero;fill:rgb(100%,0%,0%);fill-opacity:1;" d="M 248.25 261.675781 C 248.25 260.523438 248.523438 259.625 249.074219 258.976562 C 249.675781 258.324219 250.5 258 251.550781 258 C 252.601562 258 253.425781 258.324219 254.023438 258.976562 C 254.574219 259.625 254.851562 260.523438 254.851562 261.675781 C 254.851562 262.824219 254.550781 263.726562 253.949219 264.375 C 253.398438 265.023438 252.601562 265.351562 251.550781 265.351562 C 250.5 265.351562 249.675781 265.023438 249.074219 264.375 C 248.523438 263.726562 248.25 262.824219 248.25 261.675781 M 251.550781 264.601562 C 252.300781 264.601562 252.851562 264.351562 253.199219 263.851562 C 253.601562 263.351562 253.800781 262.625 253.800781 261.675781 C 253.800781 260.726562 253.601562 260 253.199219 259.5 C 252.851562 259.050781 252.300781 258.824219 251.550781 258.824219 C 250.800781 258.824219 250.226562 259.050781 249.824219 259.5 C 249.425781 260 249.226562 260.726562 249.226562 261.675781 C 249.226562 262.625 249.425781 263.351562 249.824219 263.851562 C 250.226562 264.351562 250.800781 264.601562 251.550781 264.601562 "/>
<path style=" stroke:none;fill-rule:nonzero;fill:rgb(100%,0%,0%);fill-opacity:1;" d="M 206.25 274.800781 C 206.25 273.648438 206.550781 272.75 207.148438 272.101562 C 207.699219 271.5 208.5 271.199219 209.550781 271.199219 C 210.648438 271.199219 211.476562 271.5 212.023438 272.101562 C 212.574219 272.75 212.851562 273.648438 212.851562 274.800781 C 212.851562 276 212.574219 276.925781 212.023438 277.574219 C 211.425781 278.226562 210.601562 278.550781 209.550781 278.550781 C 208.5 278.550781 207.699219 278.226562 207.148438 277.574219 C 206.550781 276.925781 206.25 276 206.25 274.800781 M 209.550781 277.726562 C 210.300781 277.726562 210.875 277.476562 211.273438 276.976562 C 211.675781 276.476562 211.875 275.75 211.875 274.800781 C 211.875 273.851562 211.675781 273.148438 211.273438 272.699219 C 210.875 272.199219 210.300781 271.949219 209.550781 271.949219 C 208.851562 271.949219 208.300781 272.199219 207.898438 272.699219 C 207.5 273.148438 207.300781 273.851562 207.300781 274.800781 C 207.300781 275.800781 207.5 276.523438 207.898438 276.976562 C 208.300781 277.476562 208.851562 277.726562 209.550781 277.726562 "/>
<path style=" stroke:none;fill-rule:nonzero;fill:rgb(100%,0%,0%);fill-opacity:1;" d="M 213.375 272.324219 L 215.851562 272.324219 L 215.851562 272.851562 L 213.375 272.851562 L 213.375 272.324219 "/>
<path style=" stroke:none;fill-rule:nonzero;fill:rgb(0%,0%,100%);fill-opacity:1;" d="M 276.75 196.425781 L 279.074219 200.25 C 279.226562 200.5 279.425781 200.851562 279.675781 201.300781 C 279.925781 201.75 280.050781 201.976562 280.050781 201.976562 L 280.050781 196.425781 L 281.023438 196.425781 L 281.023438 203.625 L 280.050781 203.625 L 277.5 199.425781 C 277.300781 199.125 277.101562 198.773438 276.898438 198.375 C 276.699219 198.023438 276.574219 197.773438 276.523438 197.625 L 276.523438 203.625 L 275.550781 203.625 L 275.550781 196.425781 L 276.75 196.425781 "/>
<path style=" stroke:none;fill-rule:nonzero;fill:rgb(0%,0%,100%);fill-opacity:1;" d="M 281.851562 197.699219 L 283.125 197.699219 L 283.125 196.351562 L 283.726562 196.351562 L 283.726562 197.699219 L 285 197.699219 L 285 198.148438 L 283.726562 198.148438 L 283.726562 199.5 L 283.125 199.5 L 283.125 198.148438 L 281.851562 198.148438 L 281.851562 197.699219 "/>
<path style=" stroke:none;fill-rule:nonzero;fill:rgb(0%,0%,100%);fill-opacity:1;" d="M 320.699219 116.101562 L 323.023438 119.851562 C 323.175781 120.101562 323.375 120.476562 323.625 120.976562 C 323.875 121.425781 324.023438 121.648438 324.074219 121.648438 L 324.074219 116.101562 L 324.976562 116.101562 L 324.976562 123.300781 L 324 123.300781 L 321.449219 119.101562 C 321.25 118.800781 321.050781 118.449219 320.851562 118.050781 C 320.648438 117.699219 320.523438 117.449219 320.476562 117.300781 L 320.476562 123.300781 L 319.5 123.300781 L 319.5 116.101562 L 320.699219 116.101562 "/>
<path style=" stroke:none;fill-rule:nonzero;fill:rgb(0%,0%,100%);fill-opacity:1;" d="M 325.800781 116.101562 L 326.773438 116.101562 L 326.773438 119.101562 L 330.523438 119.101562 L 330.523438 116.101562 L 331.5 116.101562 L 331.5 123.300781 L 330.523438 123.300781 L 330.523438 119.925781 L 326.773438 119.925781 L 326.773438 123.300781 L 325.800781 123.300781 L 325.800781 116.101562 "/>
<path style=" stroke:none;fill-rule:nonzero;fill:rgb(0%,0%,100%);fill-opacity:1;" d="M 332.324219 123 C 332.476562 122.699219 332.675781 122.476562 332.925781 122.324219 C 333.226562 122.175781 333.550781 122.101562 333.898438 122.101562 C 334.398438 122.101562 334.773438 122.226562 335.023438 122.476562 C 335.324219 122.726562 335.476562 123.074219 335.476562 123.523438 C 335.476562 123.976562 335.300781 124.425781 334.949219 124.875 C 334.601562 125.324219 334.050781 125.800781 333.300781 126.300781 L 335.550781 126.300781 L 335.550781 126.898438 L 332.324219 126.898438 L 332.324219 126.449219 C 332.925781 126 333.398438 125.625 333.75 125.324219 C 334.101562 125.023438 334.351562 124.726562 334.5 124.425781 C 334.699219 124.125 334.800781 123.851562 334.800781 123.601562 C 334.800781 123.25 334.726562 123 334.574219 122.851562 C 334.425781 122.699219 334.199219 122.625 333.898438 122.625 C 333.648438 122.625 333.449219 122.675781 333.300781 122.773438 C 333.101562 122.875 332.949219 123.023438 332.851562 123.226562 L 332.324219 123 "/>
<path style=" stroke:none;fill-rule:nonzero;fill:rgb(100%,0%,0%);fill-opacity:1;" d="M 351.375 149.476562 C 351.375 148.324219 351.648438 147.425781 352.199219 146.773438 C 352.75 146.125 353.574219 145.800781 354.675781 145.800781 C 355.726562 145.800781 356.523438 146.125 357.074219 146.773438 C 357.675781 147.425781 357.976562 148.324219 357.976562 149.476562 C 357.976562 150.625 357.675781 151.523438 357.074219 152.175781 C 356.523438 152.824219 355.726562 153.148438 354.675781 153.148438 C 353.625 153.148438 352.800781 152.824219 352.199219 152.175781 C 351.648438 151.523438 351.375 150.625 351.375 149.476562 M 354.675781 152.398438 C 355.375 152.398438 355.925781 152.148438 356.324219 151.648438 C 356.726562 151.148438 356.925781 150.425781 356.925781 149.476562 C 356.925781 148.523438 356.726562 147.800781 356.324219 147.300781 C 355.925781 146.851562 355.375 146.625 354.675781 146.625 C 353.925781 146.625 353.351562 146.851562 352.949219 147.300781 C 352.550781 147.800781 352.351562 148.523438 352.351562 149.476562 C 352.351562 150.425781 352.550781 151.148438 352.949219 151.648438 C 353.351562 152.148438 353.925781 152.398438 354.675781 152.398438 "/>
<path style=" stroke:none;fill-rule:nonzero;fill:rgb(0%,0%,0%);fill-opacity:1;" d="M 301.125 173.476562 C 301.125 172.273438 301.398438 171.351562 301.949219 170.699219 C 302.5 170.101562 303.324219 169.800781 304.425781 169.800781 C 305.375 169.800781 306.125 170.148438 306.675781 170.851562 L 306 171.375 C 305.601562 170.875 305.074219 170.625 304.425781 170.625 C 303.675781 170.625 303.101562 170.875 302.699219 171.375 C 302.351562 171.824219 302.175781 172.523438 302.175781 173.476562 C 302.175781 174.425781 302.375 175.125 302.773438 175.574219 C 303.175781 176.074219 303.75 176.324219 304.5 176.324219 C 305.050781 176.324219 305.625 176.175781 306.226562 175.875 L 306.523438 176.625 C 306.273438 176.773438 305.949219 176.898438 305.550781 177 C 305.199219 177.101562 304.800781 177.148438 304.351562 177.148438 C 303.300781 177.148438 302.5 176.824219 301.949219 176.175781 C 301.398438 175.574219 301.125 174.675781 301.125 173.476562 "/>
<path style=" stroke:none;fill-rule:nonzero;fill:rgb(0%,0%,0%);fill-opacity:1;" d="M 285.601562 190.351562 C 285.601562 189.148438 285.875 188.25 286.425781 187.648438 C 286.976562 187 287.773438 186.675781 288.824219 186.675781 C 289.824219 186.675781 290.601562 187.023438 291.148438 187.726562 L 290.476562 188.324219 C 290.074219 187.773438 289.523438 187.5 288.824219 187.5 C 288.125 187.5 287.574219 187.75 287.175781 188.25 C 286.824219 188.75 286.648438 189.449219 286.648438 190.351562 C 286.648438 191.300781 286.824219 192.023438 287.175781 192.523438 C 287.574219 193.023438 288.175781 193.273438 288.976562 193.273438 C 289.476562 193.273438 290.050781 193.101562 290.699219 192.75 L 291 193.5 C 290.75 193.699219 290.425781 193.851562 290.023438 193.949219 C 289.625 194.050781 289.226562 194.101562 288.824219 194.101562 C 287.773438 194.101562 286.976562 193.773438 286.425781 193.125 C 285.875 192.476562 285.601562 191.550781 285.601562 190.351562 "/>
<path style=" stroke:none;fill-rule:nonzero;fill:rgb(80%,80%,0%);fill-opacity:1;" d="M 201.898438 185.851562 C 201.949219 185.898438 202.101562 185.976562 202.351562 186.074219 C 202.550781 186.175781 202.773438 186.25 203.023438 186.300781 C 203.273438 186.351562 203.523438 186.375 203.773438 186.375 C 204.226562 186.375 204.574219 186.25 204.824219 186 C 205.125 185.800781 205.273438 185.5 205.273438 185.101562 C 205.273438 184.851562 205.199219 184.648438 205.050781 184.5 C 204.898438 184.351562 204.726562 184.226562 204.523438 184.125 C 204.324219 184.023438 204.074219 183.925781 203.773438 183.824219 C 203.324219 183.675781 202.976562 183.550781 202.726562 183.449219 C 202.476562 183.351562 202.25 183.148438 202.050781 182.851562 C 201.898438 182.601562 201.824219 182.273438 201.824219 181.875 C 201.824219 181.226562 202.023438 180.726562 202.425781 180.375 C 202.824219 180.023438 203.425781 179.851562 204.226562 179.851562 C 204.773438 179.851562 205.375 179.976562 206.023438 180.226562 L 205.800781 180.976562 C 205.199219 180.773438 204.699219 180.675781 204.300781 180.675781 C 203.800781 180.675781 203.425781 180.75 203.175781 180.898438 C 202.925781 181.101562 202.800781 181.375 202.800781 181.726562 C 202.800781 181.976562 202.875 182.175781 203.023438 182.324219 C 203.175781 182.476562 203.324219 182.601562 203.476562 182.699219 C 203.675781 182.800781 203.949219 182.898438 204.300781 183 C 204.699219 183.148438 205.050781 183.273438 205.351562 183.375 C 205.601562 183.523438 205.800781 183.75 205.949219 184.050781 C 206.148438 184.300781 206.25 184.648438 206.25 185.101562 C 206.25 185.800781 206.023438 186.324219 205.574219 186.675781 C 205.125 187.023438 204.550781 187.199219 203.851562 187.199219 C 203.398438 187.199219 203.023438 187.148438 202.726562 187.050781 C 202.375 186.949219 202.023438 186.824219 201.675781 186.675781 L 201.898438 185.851562 "/>
<path style=" stroke:none;fill-rule:nonzero;fill:rgb(0%,0%,100%);fill-opacity:1;" d="M 91.800781 196.199219 L 94.199219 200.023438 C 94.351562 200.273438 94.550781 200.625 94.800781 201.074219 C 95.050781 201.523438 95.175781 201.75 95.175781 201.75 L 95.175781 196.199219 L 96.148438 196.199219 L 96.148438 203.398438 L 95.175781 203.398438 L 92.625 199.199219 C 92.425781 198.898438 92.226562 198.550781 92.023438 198.148438 C 91.824219 197.800781 91.699219 197.550781 91.648438 197.398438 L 91.648438 203.398438 L 90.675781 203.398438 L 90.675781 196.199219 L 91.800781 196.199219 "/>
<path style=" stroke:none;fill-rule:nonzero;fill:rgb(80%,80%,0%);fill-opacity:1;" d="M 66.824219 208.574219 C 66.875 208.574219 67 208.625 67.199219 208.726562 C 67.449219 208.824219 67.675781 208.898438 67.875 208.949219 C 68.125 209 68.375 209.023438 68.625 209.023438 C 69.074219 209.023438 69.449219 208.925781 69.75 208.726562 C 70 208.523438 70.125 208.226562 70.125 207.824219 C 70.125 207.574219 70.050781 207.351562 69.898438 207.148438 C 69.800781 207 69.648438 206.875 69.449219 206.773438 C 69.25 206.726562 68.976562 206.648438 68.625 206.550781 C 68.175781 206.398438 67.824219 206.273438 67.574219 206.175781 C 67.324219 206.023438 67.101562 205.824219 66.898438 205.574219 C 66.75 205.324219 66.675781 204.976562 66.675781 204.523438 C 66.675781 203.925781 66.875 203.449219 67.273438 203.101562 C 67.675781 202.699219 68.300781 202.5 69.148438 202.5 C 69.699219 202.5 70.273438 202.625 70.875 202.875 L 70.648438 203.699219 C 70.101562 203.449219 69.601562 203.324219 69.148438 203.324219 C 68.699219 203.324219 68.351562 203.425781 68.101562 203.625 C 67.800781 203.824219 67.675781 204.074219 67.726562 204.375 C 67.726562 204.675781 67.773438 204.898438 67.875 205.050781 C 68.023438 205.199219 68.199219 205.324219 68.398438 205.425781 C 68.601562 205.476562 68.851562 205.550781 69.148438 205.648438 C 69.601562 205.800781 69.949219 205.949219 70.199219 206.101562 C 70.449219 206.25 70.675781 206.449219 70.875 206.699219 C 71.023438 207 71.101562 207.375 71.101562 207.824219 C 71.101562 208.476562 70.875 208.976562 70.425781 209.324219 C 70.023438 209.675781 69.449219 209.851562 68.699219 209.851562 C 68.25 209.851562 67.875 209.800781 67.574219 209.699219 C 67.273438 209.648438 66.925781 209.550781 66.523438 209.398438 L 66.824219 208.574219 "/>
<path style=" stroke:none;fill-rule:nonzero;fill:rgb(0%,0%,100%);fill-opacity:1;" d="M 17.023438 179.476562 L 18 179.476562 L 18 182.550781 L 21.675781 182.550781 L 21.675781 179.476562 L 22.648438 179.476562 L 22.648438 186.675781 L 21.675781 186.675781 L 21.675781 183.375 L 18 183.375 L 18 186.675781 L 17.023438 186.675781 L 17.023438 179.476562 "/>
<path style=" stroke:none;fill-rule:nonzero;fill:rgb(0%,0%,100%);fill-opacity:1;" d="M 23.550781 186.449219 C 23.648438 186.148438 23.851562 185.898438 24.148438 185.699219 C 24.398438 185.550781 24.726562 185.476562 25.125 185.476562 C 25.625 185.476562 26 185.601562 26.25 185.851562 C 26.5 186.101562 26.625 186.449219 26.625 186.898438 C 26.625 187.398438 26.449219 187.875 26.101562 188.324219 C 25.800781 188.726562 25.273438 189.199219 24.523438 189.75 L 26.699219 189.75 L 26.699219 190.273438 L 23.550781 190.273438 L 23.550781 189.824219 C 24.148438 189.375 24.625 189 24.976562 188.699219 C 25.324219 188.398438 25.574219 188.101562 25.726562 187.800781 C 25.875 187.550781 25.949219 187.273438 25.949219 186.976562 C 25.949219 186.675781 25.875 186.425781 25.726562 186.226562 C 25.574219 186.074219 25.375 186 25.125 186 C 24.875 186 24.675781 186.050781 24.523438 186.148438 C 24.324219 186.25 24.175781 186.425781 24.074219 186.675781 L 23.550781 186.449219 "/>
<path style=" stroke:none;fill-rule:nonzero;fill:rgb(0%,0%,100%);fill-opacity:1;" d="M 28.273438 179.476562 L 30.601562 183.300781 C 30.800781 183.550781 31.023438 183.898438 31.273438 184.351562 C 31.523438 184.800781 31.648438 185.050781 31.648438 185.101562 L 31.648438 179.476562 L 32.625 179.476562 L 32.625 186.675781 L 31.574219 186.675781 L 29.101562 182.476562 C 28.898438 182.175781 28.699219 181.824219 28.5 181.425781 C 28.300781 181.074219 28.148438 180.851562 28.050781 180.75 L 28.050781 186.675781 L 27.148438 186.675781 L 27.148438 179.476562 L 28.273438 179.476562 "/>
<path style=" stroke:none;fill-rule:nonzero;fill:rgb(0%,0%,100%);fill-opacity:1;" d="M 69.824219 161.476562 L 72.148438 165.300781 C 72.300781 165.550781 72.5 165.898438 72.75 166.351562 C 73 166.800781 73.148438 167.050781 73.199219 167.101562 L 73.199219 161.476562 L 74.101562 161.476562 L 74.101562 168.675781 L 73.125 168.675781 L 70.574219 164.550781 C 70.375 164.199219 70.175781 163.851562 69.976562 163.5 C 69.773438 163.101562 69.648438 162.851562 69.601562 162.75 L 69.601562 168.675781 L 68.699219 168.675781 L 68.699219 161.476562 L 69.824219 161.476562 "/>
<path style=" stroke:none;fill-rule:nonzero;fill:rgb(0%,0%,0%);fill-opacity:1;" d="M 170.324219 177.074219 L 171.300781 177.074219 L 171.300781 180.148438 L 174.976562 180.148438 L 174.976562 177.074219 L 175.949219 177.074219 L 175.949219 184.273438 L 174.976562 184.273438 L 174.976562 180.976562 L 171.300781 180.976562 L 171.300781 184.273438 L 170.324219 184.273438 L 170.324219 177.074219 "/>
</g>
</svg>
