<?xml version="1.0" encoding="UTF-8"?>
<svg xmlns="http://www.w3.org/2000/svg" xmlns:xlink="http://www.w3.org/1999/xlink" width="375pt" height="375pt" viewBox="0 0 375 375" version="1.1">
<g id="surface141">
<rect x="0" y="0" width="375" height="375" style="fill:rgb(100%,100%,100%);fill-opacity:1;stroke:none;"/>
<path style="fill:none;stroke-width:2;stroke-linecap:butt;stroke-linejoin:miter;stroke:rgb(0%,0%,0%);stroke-opacity:1;stroke-miterlimit:4;" d="M 22.697917 269.5 L 52.098958 292.5 " transform="matrix(0.75,0,0,0.75,0,0)"/>
<path style="fill:none;stroke-width:2;stroke-linecap:butt;stroke-linejoin:miter;stroke:rgb(0%,0%,0%);stroke-opacity:1;stroke-miterlimit:4;" d="M 55.802083 293.098958 L 53.697917 308.197917 " transform="matrix(0.75,0,0,0.75,0,0)"/>
<path style="fill:none;stroke-width:2;stroke-linecap:butt;stroke-linejoin:miter;stroke:rgb(100%,0%,0%);stroke-opacity:1;stroke-miterlimit:4;" d="M 53.697917 308.197917 L 51.5 323.401042 " transform="matrix(0.75,0,0,0.75,0,0)"/>
<path style="fill:none;stroke-width:2;stroke-linecap:butt;stroke-linejoin:miter;stroke:rgb(0%,0%,0%);stroke-opacity:1;stroke-miterlimit:4;" d="M 48.401042 292 L 46.302083 307.197917 " transform="matrix(0.75,0,0,0.75,0,0)"/>
<path style="fill:none;stroke-width:2;stroke-linecap:butt;stroke-linejoin:miter;stroke:rgb(100%,0%,0%);stroke-opacity:1;stroke-miterlimit:4;" d="M 46.302083 307.197917 L 44.098958 322.401042 " transform="matrix(0.75,0,0,0.75,0,0)"/>
<path style="fill:none;stroke-width:2;stroke-linecap:butt;stroke-linejoin:miter;stroke:rgb(0%,0%,0%);stroke-opacity:1;stroke-miterlimit:4;" d="M 52.098958 292.5 L 66.401042 286.802083 " transform="matrix(0.75,0,0,0.75,0,0)"/>
<path style="fill:none;stroke-width:2;stroke-linecap:butt;stroke-linejoin:miter;stroke:rgb(100%,0%,0%);stroke-opacity:1;stroke-miterlimit:4;" d="M 66.401042 286.802083 L 80.697917 281 " transform="matrix(0.75,0,0,0.75,0,0)"/>
<path style="fill:none;stroke-width:2;stroke-linecap:butt;stroke-linejoin:miter;stroke:rgb(100%,0%,0%);stroke-opacity:1;stroke-miterlimit:4;" d="M 92.802083 283.401042 L 104.5 292.5 " transform="matrix(0.75,0,0,0.75,0,0)"/>
<path style="fill:none;stroke-width:2;stroke-linecap:butt;stroke-linejoin:miter;stroke:rgb(0%,0%,0%);stroke-opacity:1;stroke-miterlimit:4;" d="M 104.5 292.5 L 116.098958 301.598958 " transform="matrix(0.75,0,0,0.75,0,0)"/>
<path style="fill:none;stroke-width:2;stroke-linecap:butt;stroke-linejoin:miter;stroke:rgb(0%,0%,0%);stroke-opacity:1;stroke-miterlimit:4;" d="M 116.098958 301.598958 L 150.802083 287.697917 " transform="matrix(0.75,0,0,0.75,0,0)"/>
<path style="fill:none;stroke-width:2;stroke-linecap:butt;stroke-linejoin:miter;stroke:rgb(0%,0%,0%);stroke-opacity:1;stroke-miterlimit:4;" d="M 150.802083 287.697917 L 156 250.697917 " transform="matrix(0.75,0,0,0.75,0,0)"/>
<path style="fill:none;stroke-width:2;stroke-linecap:butt;stroke-linejoin:miter;stroke:rgb(0%,0%,0%);stroke-opacity:1;stroke-miterlimit:4;" d="M 159 283.197917 L 162.598958 257.302083 " transform="matrix(0.75,0,0,0.75,0,0)"/>
<path style="fill:none;stroke-width:2;stroke-linecap:butt;stroke-linejoin:miter;stroke:rgb(0%,0%,0%);stroke-opacity:1;stroke-miterlimit:4;" d="M 156 250.697917 L 126.598958 227.697917 " transform="matrix(0.75,0,0,0.75,0,0)"/>
<path style="fill:none;stroke-width:2;stroke-linecap:butt;stroke-linejoin:miter;stroke:rgb(0%,0%,0%);stroke-opacity:1;stroke-miterlimit:4;" d="M 122.901042 227.197917 L 125.098958 212.098958 " transform="matrix(0.75,0,0,0.75,0,0)"/>
<path style="fill:none;stroke-width:2;stroke-linecap:butt;stroke-linejoin:miter;stroke:rgb(100%,0%,0%);stroke-opacity:1;stroke-miterlimit:4;" d="M 125.098958 212.098958 L 127.197917 196.901042 " transform="matrix(0.75,0,0,0.75,0,0)"/>
<path style="fill:none;stroke-width:2;stroke-linecap:butt;stroke-linejoin:miter;stroke:rgb(0%,0%,0%);stroke-opacity:1;stroke-miterlimit:4;" d="M 130.302083 228.197917 L 132.5 213.098958 " transform="matrix(0.75,0,0,0.75,0,0)"/>
<path style="fill:none;stroke-width:2;stroke-linecap:butt;stroke-linejoin:miter;stroke:rgb(100%,0%,0%);stroke-opacity:1;stroke-miterlimit:4;" d="M 132.5 213.098958 L 134.598958 198 " transform="matrix(0.75,0,0,0.75,0,0)"/>
<path style="fill:none;stroke-width:2;stroke-linecap:butt;stroke-linejoin:miter;stroke:rgb(0%,0%,0%);stroke-opacity:1;stroke-miterlimit:4;" d="M 126.598958 227.697917 L 112.401042 233.401042 " transform="matrix(0.75,0,0,0.75,0,0)"/>
<path style="fill:none;stroke-width:2;stroke-linecap:butt;stroke-linejoin:miter;stroke:rgb(100%,0%,0%);stroke-opacity:1;stroke-miterlimit:4;" d="M 112.401042 233.401042 L 98.098958 239.197917 " transform="matrix(0.75,0,0,0.75,0,0)"/>
<path style="fill:none;stroke-width:2;stroke-linecap:butt;stroke-linejoin:miter;stroke:rgb(0%,0%,0%);stroke-opacity:1;stroke-miterlimit:4;" d="M 156 250.697917 L 170.697917 244.802083 " transform="matrix(0.75,0,0,0.75,0,0)"/>
<path style="fill:none;stroke-width:2;stroke-linecap:butt;stroke-linejoin:miter;stroke:rgb(0%,0%,100%);stroke-opacity:1;stroke-miterlimit:4;" d="M 170.697917 244.802083 L 185.401042 238.901042 " transform="matrix(0.75,0,0,0.75,0,0)"/>
<path style="fill:none;stroke-width:2;stroke-linecap:butt;stroke-linejoin:miter;stroke:rgb(0%,0%,100%);stroke-opacity:1;stroke-miterlimit:4;" d="M 195.802083 230.302083 L 204.697917 218.802083 " transform="matrix(0.75,0,0,0.75,0,0)"/>
<path style="fill:none;stroke-width:2;stroke-linecap:butt;stroke-linejoin:miter;stroke:rgb(0%,0%,0%);stroke-opacity:1;stroke-miterlimit:4;" d="M 204.697917 218.802083 L 213.697917 207.401042 " transform="matrix(0.75,0,0,0.75,0,0)"/>
<path style="fill:none;stroke-width:2;stroke-linecap:butt;stroke-linejoin:miter;stroke:rgb(0%,0%,0%);stroke-opacity:1;stroke-miterlimit:4;" d="M 210 207.901042 L 208.197917 192.697917 " transform="matrix(0.75,0,0,0.75,0,0)"/>
<path style="fill:none;stroke-width:2;stroke-linecap:butt;stroke-linejoin:miter;stroke:rgb(100%,0%,0%);stroke-opacity:1;stroke-miterlimit:4;" d="M 208.197917 192.697917 L 206.302083 177.5 " transform="matrix(0.75,0,0,0.75,0,0)"/>
<path style="fill:none;stroke-width:2;stroke-linecap:butt;stroke-linejoin:miter;stroke:rgb(0%,0%,0%);stroke-opacity:1;stroke-miterlimit:4;" d="M 217.401042 207 L 215.598958 191.802083 " transform="matrix(0.75,0,0,0.75,0,0)"/>
<path style="fill:none;stroke-width:2;stroke-linecap:butt;stroke-linejoin:miter;stroke:rgb(100%,0%,0%);stroke-opacity:1;stroke-miterlimit:4;" d="M 215.598958 191.802083 L 213.697917 176.598958 " transform="matrix(0.75,0,0,0.75,0,0)"/>
<path style="fill:none;stroke-width:2;stroke-linecap:butt;stroke-linejoin:miter;stroke:rgb(0%,0%,0%);stroke-opacity:1;stroke-miterlimit:4;" d="M 213.697917 207.401042 L 243.098958 230.401042 " transform="matrix(0.75,0,0,0.75,0,0)"/>
<path style="fill-rule:evenodd;fill:rgb(0%,0%,0%);fill-opacity:1;stroke-width:1;stroke-linecap:butt;stroke-linejoin:miter;stroke:rgb(0%,0%,0%);stroke-opacity:1;stroke-miterlimit:4;" d="M 243.098958 230.401042 L 258.197917 226.697917 L 258.598958 230.401042 Z M 243.098958 230.401042 " transform="matrix(0.75,0,0,0.75,0,0)"/>
<path style="fill-rule:evenodd;fill:rgb(0%,0%,100%);fill-opacity:1;stroke-width:1;stroke-linecap:butt;stroke-linejoin:miter;stroke:rgb(0%,0%,100%);stroke-opacity:1;stroke-miterlimit:4;" d="M 258.197917 226.697917 L 274.098958 230.401042 L 273.197917 223 Z M 258.197917 226.697917 " transform="matrix(0.75,0,0,0.75,0,0)"/>
<path style="fill-rule:evenodd;fill:rgb(0%,0%,100%);fill-opacity:1;stroke-width:1;stroke-linecap:butt;stroke-linejoin:miter;stroke:rgb(0%,0%,100%);stroke-opacity:1;stroke-miterlimit:4;" d="M 258.197917 226.697917 L 258.598958 230.401042 L 274.098958 230.401042 Z M 258.197917 226.697917 " transform="matrix(0.75,0,0,0.75,0,0)"/>
<path style="fill:none;stroke-width:2;stroke-linecap:butt;stroke-linejoin:miter;stroke:rgb(0%,0%,100%);stroke-opacity:1;stroke-miterlimit:4;" d="M 285.098958 232.5 L 293.802083 244.098958 " transform="matrix(0.75,0,0,0.75,0,0)"/>
<path style="fill:none;stroke-width:2;stroke-linecap:butt;stroke-linejoin:miter;stroke:rgb(0%,0%,0%);stroke-opacity:1;stroke-miterlimit:4;" d="M 293.802083 244.098958 L 302.598958 255.802083 " transform="matrix(0.75,0,0,0.75,0,0)"/>
<path style="fill:none;stroke-width:2;stroke-linecap:butt;stroke-linejoin:miter;stroke:rgb(0%,0%,0%);stroke-opacity:1;stroke-miterlimit:4;" d="M 306 257.302083 L 300.098958 271.098958 " transform="matrix(0.75,0,0,0.75,0,0)"/>
<path style="fill:none;stroke-width:2;stroke-linecap:butt;stroke-linejoin:miter;stroke:rgb(100%,0%,0%);stroke-opacity:1;stroke-miterlimit:4;" d="M 300.098958 271.098958 L 294.197917 285 " transform="matrix(0.75,0,0,0.75,0,0)"/>
<path style="fill:none;stroke-width:2;stroke-linecap:butt;stroke-linejoin:miter;stroke:rgb(0%,0%,0%);stroke-opacity:1;stroke-miterlimit:4;" d="M 299.098958 254.302083 L 293.197917 268.197917 " transform="matrix(0.75,0,0,0.75,0,0)"/>
<path style="fill:none;stroke-width:2;stroke-linecap:butt;stroke-linejoin:miter;stroke:rgb(100%,0%,0%);stroke-opacity:1;stroke-miterlimit:4;" d="M 293.197917 268.197917 L 287.302083 282.098958 " transform="matrix(0.75,0,0,0.75,0,0)"/>
<path style="fill:none;stroke-width:2;stroke-linecap:butt;stroke-linejoin:miter;stroke:rgb(0%,0%,0%);stroke-opacity:1;stroke-miterlimit:4;" d="M 302.598958 255.802083 L 339.598958 251.302083 " transform="matrix(0.75,0,0,0.75,0,0)"/>
<path style="fill:none;stroke-width:2;stroke-linecap:butt;stroke-linejoin:miter;stroke:rgb(0%,0%,0%);stroke-opacity:1;stroke-miterlimit:4;" d="M 339.598958 251.302083 L 348.5 263.197917 " transform="matrix(0.75,0,0,0.75,0,0)"/>
<path style="fill:none;stroke-width:2;stroke-linecap:butt;stroke-linejoin:miter;stroke:rgb(80%,80%,0%);stroke-opacity:1;stroke-miterlimit:4;" d="M 348.5 263.197917 L 357.401042 275 " transform="matrix(0.75,0,0,0.75,0,0)"/>
<path style="fill:none;stroke-width:2;stroke-linecap:butt;stroke-linejoin:miter;stroke:rgb(80%,80%,0%);stroke-opacity:1;stroke-miterlimit:4;" d="M 366.697917 280.598958 L 382.901042 278.598958 " transform="matrix(0.75,0,0,0.75,0,0)"/>
<path style="fill:none;stroke-width:2;stroke-linecap:butt;stroke-linejoin:miter;stroke:rgb(0%,0%,0%);stroke-opacity:1;stroke-miterlimit:4;" d="M 382.901042 278.598958 L 399.098958 276.697917 " transform="matrix(0.75,0,0,0.75,0,0)"/>
<path style="fill:none;stroke-width:2;stroke-linecap:butt;stroke-linejoin:miter;stroke:rgb(0%,0%,0%);stroke-opacity:1;stroke-miterlimit:4;" d="M 399.098958 276.697917 L 421.598958 306.5 " transform="matrix(0.75,0,0,0.75,0,0)"/>
<path style="fill:none;stroke-width:2;stroke-linecap:butt;stroke-linejoin:miter;stroke:rgb(0%,0%,0%);stroke-opacity:1;stroke-miterlimit:4;" d="M 408.5 276.697917 L 424.197917 297.598958 " transform="matrix(0.75,0,0,0.75,0,0)"/>
<path style="fill:none;stroke-width:2;stroke-linecap:butt;stroke-linejoin:miter;stroke:rgb(0%,0%,0%);stroke-opacity:1;stroke-miterlimit:4;" d="M 421.598958 306.5 L 458.598958 302 " transform="matrix(0.75,0,0,0.75,0,0)"/>
<path style="fill:none;stroke-width:2;stroke-linecap:butt;stroke-linejoin:miter;stroke:rgb(0%,0%,0%);stroke-opacity:1;stroke-miterlimit:4;" d="M 458.598958 302 L 464.598958 288.098958 " transform="matrix(0.75,0,0,0.75,0,0)"/>
<path style="fill:none;stroke-width:2;stroke-linecap:butt;stroke-linejoin:miter;stroke:rgb(0%,0%,100%);stroke-opacity:1;stroke-miterlimit:4;" d="M 464.598958 288.098958 L 470.5 274.197917 " transform="matrix(0.75,0,0,0.75,0,0)"/>
<path style="fill:none;stroke-width:2;stroke-linecap:butt;stroke-linejoin:miter;stroke:rgb(0%,0%,0%);stroke-opacity:1;stroke-miterlimit:4;" d="M 453.5 294.901042 L 457.697917 285.197917 " transform="matrix(0.75,0,0,0.75,0,0)"/>
<path style="fill:none;stroke-width:2;stroke-linecap:butt;stroke-linejoin:miter;stroke:rgb(0%,0%,100%);stroke-opacity:1;stroke-miterlimit:4;" d="M 457.697917 285.197917 L 461.802083 275.401042 " transform="matrix(0.75,0,0,0.75,0,0)"/>
<path style="fill:none;stroke-width:2;stroke-linecap:butt;stroke-linejoin:miter;stroke:rgb(0%,0%,100%);stroke-opacity:1;stroke-miterlimit:4;" d="M 468.401042 261.197917 L 459.598958 249.5 " transform="matrix(0.75,0,0,0.75,0,0)"/>
<path style="fill:none;stroke-width:2;stroke-linecap:butt;stroke-linejoin:miter;stroke:rgb(0%,0%,0%);stroke-opacity:1;stroke-miterlimit:4;" d="M 459.598958 249.5 L 450.802083 237.802083 " transform="matrix(0.75,0,0,0.75,0,0)"/>
<path style="fill:none;stroke-width:2;stroke-linecap:butt;stroke-linejoin:miter;stroke:rgb(0%,0%,0%);stroke-opacity:1;stroke-miterlimit:4;" d="M 450.802083 237.802083 L 413.802083 242.302083 " transform="matrix(0.75,0,0,0.75,0,0)"/>
<path style="fill:none;stroke-width:2;stroke-linecap:butt;stroke-linejoin:miter;stroke:rgb(0%,0%,0%);stroke-opacity:1;stroke-miterlimit:4;" d="M 446.197917 245.901042 L 420.197917 249.098958 " transform="matrix(0.75,0,0,0.75,0,0)"/>
<path style="fill:none;stroke-width:2;stroke-linecap:butt;stroke-linejoin:miter;stroke:rgb(0%,0%,0%);stroke-opacity:1;stroke-miterlimit:4;" d="M 243.098958 230.401042 L 220.098958 259.802083 " transform="matrix(0.75,0,0,0.75,0,0)"/>
<path style="fill:none;stroke-width:2;stroke-linecap:butt;stroke-linejoin:miter;stroke:rgb(0%,0%,0%);stroke-opacity:1;stroke-miterlimit:4;" d="M 220.098958 259.802083 L 217.901042 275.098958 " transform="matrix(0.75,0,0,0.75,0,0)"/>
<path style="fill:none;stroke-width:2;stroke-linecap:butt;stroke-linejoin:miter;stroke:rgb(80%,80%,0%);stroke-opacity:1;stroke-miterlimit:4;" d="M 217.901042 275.098958 L 215.697917 290.302083 " transform="matrix(0.75,0,0,0.75,0,0)"/>
<path style="fill:none;stroke-width:2;stroke-linecap:butt;stroke-linejoin:miter;stroke:rgb(80%,80%,0%);stroke-opacity:1;stroke-miterlimit:4;" d="M 210.197917 298.697917 L 195.197917 304.697917 " transform="matrix(0.75,0,0,0.75,0,0)"/>
<path style="fill:none;stroke-width:2;stroke-linecap:butt;stroke-linejoin:miter;stroke:rgb(0%,0%,0%);stroke-opacity:1;stroke-miterlimit:4;" d="M 195.197917 304.697917 L 180.197917 310.697917 " transform="matrix(0.75,0,0,0.75,0,0)"/>
<path style="fill:none;stroke-width:2;stroke-linecap:butt;stroke-linejoin:miter;stroke:rgb(0%,0%,0%);stroke-opacity:1;stroke-miterlimit:4;" d="M 180.197917 310.697917 L 150.802083 287.697917 " transform="matrix(0.75,0,0,0.75,0,0)"/>
<path style="fill:none;stroke-width:2;stroke-linecap:butt;stroke-linejoin:miter;stroke:rgb(0%,0%,0%);stroke-opacity:1;stroke-miterlimit:4;" d="M 220.098958 259.802083 L 208 250.401042 " transform="matrix(0.75,0,0,0.75,0,0)"/>
<path style="fill:none;stroke-width:2;stroke-linecap:butt;stroke-linejoin:miter;stroke:rgb(0%,0%,100%);stroke-opacity:1;stroke-miterlimit:4;" d="M 208 250.401042 L 195.901042 240.901042 " transform="matrix(0.75,0,0,0.75,0,0)"/>
<path style="fill:none;stroke-width:2;stroke-linecap:butt;stroke-linejoin:miter;stroke:rgb(0%,0%,0%);stroke-opacity:1;stroke-miterlimit:4;" d="M 413.802083 242.302083 L 399.098958 276.697917 " transform="matrix(0.75,0,0,0.75,0,0)"/>
<path style="fill:none;stroke-width:1;stroke-linecap:butt;stroke-linejoin:miter;stroke:rgb(0%,0%,0%);stroke-opacity:1;stroke-miterlimit:4;" d="M 224.401042 262.401042 L 224.901042 261.197917 " transform="matrix(0.75,0,0,0.75,0,0)"/>
<path style="fill:none;stroke-width:1;stroke-linecap:butt;stroke-linejoin:miter;stroke:rgb(0%,0%,0%);stroke-opacity:1;stroke-miterlimit:4;" d="M 228.802083 264.901042 L 229.802083 262.598958 " transform="matrix(0.75,0,0,0.75,0,0)"/>
<path style="fill:none;stroke-width:1;stroke-linecap:butt;stroke-linejoin:miter;stroke:rgb(0%,0%,0%);stroke-opacity:1;stroke-miterlimit:4;" d="M 233.197917 267.5 L 234.697917 264 " transform="matrix(0.75,0,0,0.75,0,0)"/>
<path style="fill:none;stroke-width:1;stroke-linecap:butt;stroke-linejoin:miter;stroke:rgb(0%,0%,0%);stroke-opacity:1;stroke-miterlimit:4;" d="M 237.598958 270 L 239.5 265.401042 " transform="matrix(0.75,0,0,0.75,0,0)"/>
<path style="fill:none;stroke-width:1;stroke-linecap:butt;stroke-linejoin:miter;stroke:rgb(0%,0%,0%);stroke-opacity:1;stroke-miterlimit:4;" d="M 242 272.5 L 244.401042 266.802083 " transform="matrix(0.75,0,0,0.75,0,0)"/>
<path style="fill:none;stroke-width:1;stroke-linecap:butt;stroke-linejoin:miter;stroke:rgb(0%,0%,0%);stroke-opacity:1;stroke-miterlimit:4;" d="M 246.302083 275.098958 L 249.302083 268.197917 " transform="matrix(0.75,0,0,0.75,0,0)"/>
<path style=" stroke:none;fill-rule:nonzero;fill:rgb(100%,0%,0%);fill-opacity:1;" d="M 31.5 247.125 C 31.5 245.875 31.824219 244.898438 32.476562 244.199219 C 33.074219 243.449219 33.976562 243.074219 35.175781 243.074219 C 36.324219 243.074219 37.226562 243.449219 37.875 244.199219 C 38.476562 244.898438 38.773438 245.875 38.773438 247.125 C 38.773438 248.425781 38.449219 249.449219 37.800781 250.199219 C 37.199219 250.898438 36.324219 251.25 35.175781 251.25 C 33.976562 251.25 33.074219 250.898438 32.476562 250.199219 C 31.824219 249.449219 31.5 248.425781 31.5 247.125 M 35.175781 250.351562 C 35.976562 250.351562 36.574219 250.074219 36.976562 249.523438 C 37.425781 248.976562 37.648438 248.175781 37.648438 247.125 C 37.648438 246.074219 37.425781 245.300781 36.976562 244.800781 C 36.574219 244.25 35.976562 243.976562 35.175781 243.976562 C 34.324219 243.976562 33.699219 244.25 33.300781 244.800781 C 32.851562 245.300781 32.625 246.074219 32.625 247.125 C 32.625 248.226562 32.851562 249.023438 33.300781 249.523438 C 33.699219 250.074219 34.324219 250.351562 35.175781 250.351562 "/>
<path style=" stroke:none;fill-rule:nonzero;fill:rgb(100%,0%,0%);fill-opacity:1;" d="M 61.425781 208.949219 C 61.425781 207.699219 61.75 206.726562 62.398438 206.023438 C 63 205.273438 63.898438 204.898438 65.101562 204.898438 C 66.25 204.898438 67.148438 205.273438 67.800781 206.023438 C 68.398438 206.726562 68.699219 207.699219 68.699219 208.949219 C 68.699219 210.25 68.375 211.273438 67.726562 212.023438 C 67.125 212.726562 66.25 213.074219 65.101562 213.074219 C 63.898438 213.074219 63 212.726562 62.398438 212.023438 C 61.75 211.273438 61.425781 210.25 61.425781 208.949219 M 65.101562 212.175781 C 65.898438 212.175781 66.5 211.898438 66.898438 211.351562 C 67.351562 210.800781 67.574219 210 67.574219 208.949219 C 67.574219 207.898438 67.351562 207.125 66.898438 206.625 C 66.5 206.074219 65.898438 205.800781 65.101562 205.800781 C 64.25 205.800781 63.625 206.074219 63.226562 206.625 C 62.773438 207.125 62.550781 207.898438 62.550781 208.949219 C 62.550781 210.050781 62.773438 210.851562 63.226562 211.351562 C 63.625 211.898438 64.25 212.175781 65.101562 212.175781 "/>
<path style=" stroke:none;fill-rule:nonzero;fill:rgb(100%,0%,0%);fill-opacity:1;" d="M 95.25 143.101562 C 95.25 141.800781 95.574219 140.800781 96.226562 140.101562 C 96.875 139.398438 97.773438 139.050781 98.925781 139.050781 C 100.074219 139.050781 100.976562 139.398438 101.625 140.101562 C 102.273438 140.800781 102.601562 141.800781 102.601562 143.101562 C 102.601562 144.351562 102.273438 145.351562 101.625 146.101562 C 100.976562 146.800781 100.074219 147.148438 98.925781 147.148438 C 97.773438 147.148438 96.875 146.800781 96.226562 146.101562 C 95.574219 145.351562 95.25 144.351562 95.25 143.101562 M 98.925781 146.25 C 99.726562 146.25 100.351562 146 100.800781 145.5 C 101.25 144.949219 101.476562 144.148438 101.476562 143.101562 C 101.476562 142.050781 101.25 141.25 100.800781 140.699219 C 100.351562 140.199219 99.726562 139.949219 98.925781 139.949219 C 98.125 139.949219 97.5 140.199219 97.050781 140.699219 C 96.601562 141.25 96.375 142.050781 96.375 143.101562 C 96.375 144.148438 96.601562 144.949219 97.050781 145.5 C 97.5 146 98.125 146.25 98.925781 146.25 "/>
<path style=" stroke:none;fill-rule:nonzero;fill:rgb(100%,0%,0%);fill-opacity:1;" d="M 58.199219 177.300781 L 59.25 177.300781 L 59.25 180.675781 L 63.300781 180.675781 L 63.300781 177.300781 L 64.425781 177.300781 L 64.425781 185.25 L 63.300781 185.25 L 63.300781 181.574219 L 59.25 181.574219 L 59.25 185.25 L 58.199219 185.25 L 58.199219 177.300781 "/>
<path style=" stroke:none;fill-rule:nonzero;fill:rgb(100%,0%,0%);fill-opacity:1;" d="M 65.398438 181.273438 C 65.398438 179.976562 65.699219 178.976562 66.300781 178.273438 C 66.949219 177.574219 67.851562 177.226562 69 177.226562 C 70.199219 177.226562 71.101562 177.574219 71.699219 178.273438 C 72.351562 178.976562 72.675781 179.976562 72.675781 181.273438 C 72.675781 182.523438 72.351562 183.523438 71.699219 184.273438 C 71.050781 184.976562 70.148438 185.324219 69 185.324219 C 67.851562 185.324219 66.949219 184.976562 66.300781 184.273438 C 65.699219 183.523438 65.398438 182.523438 65.398438 181.273438 M 69 184.425781 C 69.800781 184.425781 70.425781 184.175781 70.875 183.675781 C 71.324219 183.125 71.550781 182.324219 71.550781 181.273438 C 71.550781 180.226562 71.324219 179.425781 70.875 178.875 C 70.425781 178.375 69.800781 178.125 69 178.125 C 68.199219 178.125 67.574219 178.375 67.125 178.875 C 66.675781 179.425781 66.449219 180.226562 66.449219 181.273438 C 66.449219 182.324219 66.675781 183.125 67.125 183.675781 C 67.574219 184.175781 68.199219 184.425781 69 184.425781 "/>
<path style=" stroke:none;fill-rule:nonzero;fill:rgb(0%,0%,100%);fill-opacity:1;" d="M 141.226562 173.625 L 143.851562 177.824219 C 144 178.125 144.226562 178.523438 144.523438 179.023438 C 144.773438 179.523438 144.925781 179.773438 144.976562 179.773438 L 144.976562 173.625 L 146.023438 173.625 L 146.023438 181.574219 L 144.898438 181.574219 L 142.125 177 C 141.925781 176.601562 141.699219 176.199219 141.449219 175.800781 C 141.25 175.398438 141.101562 175.125 141 174.976562 L 141 181.574219 L 140.023438 181.574219 L 140.023438 173.625 L 141.226562 173.625 "/>
<path style=" stroke:none;fill-rule:nonzero;fill:rgb(100%,0%,0%);fill-opacity:1;" d="M 153.300781 127.800781 C 153.300781 126.5 153.601562 125.5 154.199219 124.800781 C 154.851562 124.101562 155.75 123.75 156.898438 123.75 C 158.101562 123.75 159 124.101562 159.601562 124.800781 C 160.25 125.5 160.574219 126.5 160.574219 127.800781 C 160.574219 129.050781 160.25 130.050781 159.601562 130.800781 C 158.949219 131.550781 158.050781 131.925781 156.898438 131.925781 C 155.75 131.925781 154.851562 131.550781 154.199219 130.800781 C 153.601562 130.101562 153.300781 129.101562 153.300781 127.800781 M 156.898438 131.023438 C 157.699219 131.023438 158.324219 130.75 158.773438 130.199219 C 159.226562 129.648438 159.449219 128.851562 159.449219 127.800781 C 159.449219 126.75 159.226562 125.976562 158.773438 125.476562 C 158.324219 124.925781 157.699219 124.648438 156.898438 124.648438 C 156.101562 124.648438 155.476562 124.898438 155.023438 125.398438 C 154.574219 125.949219 154.351562 126.75 154.351562 127.800781 C 154.351562 128.851562 154.574219 129.648438 155.023438 130.199219 C 155.476562 130.75 156.101562 131.023438 156.898438 131.023438 "/>
<path style=" stroke:none;fill-rule:nonzero;fill:rgb(0%,0%,100%);fill-opacity:1;" d="M 208.351562 165.523438 L 210.976562 169.726562 C 211.125 169.976562 211.351562 170.351562 211.648438 170.851562 C 211.898438 171.351562 212.050781 171.625 212.101562 171.675781 L 212.101562 165.523438 L 213.148438 165.523438 L 213.148438 173.398438 L 212.023438 173.398438 L 209.25 168.824219 C 209.050781 168.476562 208.824219 168.101562 208.574219 167.699219 C 208.375 167.300781 208.226562 167.023438 208.125 166.875 L 208.125 173.398438 L 207.074219 173.398438 L 207.074219 165.523438 L 208.351562 165.523438 "/>
<path style=" stroke:none;fill-rule:nonzero;fill:rgb(0%,0%,100%);fill-opacity:1;" d="M 214.050781 165.523438 L 215.101562 165.523438 L 215.101562 168.898438 L 219.148438 168.898438 L 219.148438 165.523438 L 220.273438 165.523438 L 220.273438 173.398438 L 219.148438 173.398438 L 219.148438 169.800781 L 215.101562 169.800781 L 215.101562 173.398438 L 214.050781 173.398438 L 214.050781 165.523438 "/>
<path style=" stroke:none;fill-rule:nonzero;fill:rgb(100%,0%,0%);fill-opacity:1;" d="M 212.324219 217.648438 C 212.324219 216.351562 212.625 215.351562 213.226562 214.648438 C 213.875 213.949219 214.773438 213.601562 215.925781 213.601562 C 217.125 213.601562 218.023438 213.949219 218.625 214.648438 C 219.273438 215.351562 219.601562 216.351562 219.601562 217.648438 C 219.601562 218.898438 219.273438 219.898438 218.625 220.648438 C 218.023438 221.398438 217.125 221.773438 215.925781 221.773438 C 214.773438 221.773438 213.875 221.398438 213.226562 220.648438 C 212.625 219.949219 212.324219 218.949219 212.324219 217.648438 M 215.925781 220.875 C 216.726562 220.875 217.351562 220.601562 217.800781 220.050781 C 218.25 219.5 218.476562 218.699219 218.476562 217.648438 C 218.476562 216.601562 218.25 215.824219 217.800781 215.324219 C 217.351562 214.773438 216.726562 214.5 215.925781 214.5 C 215.125 214.5 214.5 214.75 214.050781 215.25 C 213.648438 215.800781 213.449219 216.601562 213.449219 217.648438 C 213.449219 218.699219 213.648438 219.5 214.050781 220.050781 C 214.5 220.601562 215.125 220.875 215.925781 220.875 "/>
<path style=" stroke:none;fill-rule:nonzero;fill:rgb(80%,80%,0%);fill-opacity:1;" d="M 269.324219 213.601562 C 269.375 213.601562 269.523438 213.648438 269.773438 213.75 C 270.023438 213.898438 270.273438 214 270.523438 214.050781 C 270.824219 214.101562 271.101562 214.125 271.351562 214.125 C 271.851562 214.125 272.25 214 272.550781 213.75 C 272.851562 213.5 273 213.175781 273 212.773438 C 273 212.476562 272.925781 212.226562 272.773438 212.023438 C 272.625 211.875 272.425781 211.75 272.175781 211.648438 C 271.976562 211.550781 271.699219 211.449219 271.351562 211.351562 C 270.851562 211.199219 270.449219 211.050781 270.148438 210.898438 C 269.898438 210.800781 269.675781 210.601562 269.476562 210.300781 C 269.273438 210 269.175781 209.625 269.175781 209.175781 C 269.175781 208.476562 269.398438 207.925781 269.851562 207.523438 C 270.300781 207.125 270.976562 206.925781 271.875 206.925781 C 272.476562 206.925781 273.125 207.074219 273.824219 207.375 L 273.601562 208.199219 C 272.949219 207.949219 272.375 207.824219 271.875 207.824219 C 271.375 207.824219 270.976562 207.925781 270.675781 208.125 C 270.425781 208.324219 270.300781 208.625 270.300781 209.023438 C 270.300781 209.273438 270.375 209.5 270.523438 209.699219 C 270.675781 209.851562 270.851562 209.976562 271.050781 210.074219 C 271.25 210.175781 271.523438 210.273438 271.875 210.375 C 272.375 210.523438 272.773438 210.675781 273.074219 210.824219 C 273.324219 210.976562 273.550781 211.226562 273.75 211.574219 C 274 211.875 274.125 212.273438 274.125 212.773438 C 274.125 213.476562 273.875 214.023438 273.375 214.425781 C 272.875 214.824219 272.226562 215.023438 271.425781 215.023438 C 270.925781 215.023438 270.5 214.976562 270.148438 214.875 C 269.800781 214.773438 269.425781 214.648438 269.023438 214.5 L 269.324219 213.601562 "/>
<path style=" stroke:none;fill-rule:nonzero;fill:rgb(0%,0%,100%);fill-opacity:1;" d="M 353.175781 196.800781 L 355.800781 201 C 355.949219 201.25 356.175781 201.625 356.476562 202.125 C 356.726562 202.625 356.875 202.898438 356.925781 202.949219 L 356.925781 196.800781 L 357.976562 196.800781 L 357.976562 204.75 L 356.851562 204.75 L 354.074219 200.101562 C 353.875 199.75 353.648438 199.375 353.398438 198.976562 C 353.199219 198.574219 353.050781 198.300781 352.949219 198.148438 L 352.949219 204.75 L 351.976562 204.75 L 351.976562 196.800781 L 353.175781 196.800781 "/>
<path style=" stroke:none;fill-rule:nonzero;fill:rgb(80%,80%,0%);fill-opacity:1;" d="M 158.851562 225.300781 C 158.898438 225.351562 159.050781 225.425781 159.300781 225.523438 C 159.550781 225.625 159.824219 225.699219 160.125 225.75 C 160.375 225.800781 160.648438 225.824219 160.949219 225.824219 C 161.449219 225.824219 161.824219 225.726562 162.074219 225.523438 C 162.375 225.273438 162.523438 224.925781 162.523438 224.476562 C 162.523438 224.175781 162.449219 223.949219 162.300781 223.800781 C 162.148438 223.601562 161.976562 223.449219 161.773438 223.351562 C 161.523438 223.25 161.226562 223.148438 160.875 223.050781 C 160.375 222.898438 160 222.773438 159.75 222.675781 C 159.449219 222.523438 159.199219 222.300781 159 222 C 158.800781 221.699219 158.699219 221.324219 158.699219 220.875 C 158.699219 220.226562 158.925781 219.675781 159.375 219.226562 C 159.824219 218.824219 160.5 218.625 161.398438 218.625 C 162.050781 218.625 162.726562 218.773438 163.425781 219.074219 L 163.125 219.976562 C 162.476562 219.675781 161.925781 219.523438 161.476562 219.523438 C 160.976562 219.523438 160.574219 219.648438 160.273438 219.898438 C 159.976562 220.101562 159.824219 220.375 159.824219 220.726562 C 159.824219 221.023438 159.898438 221.25 160.050781 221.398438 C 160.199219 221.601562 160.375 221.75 160.574219 221.851562 C 160.824219 221.949219 161.125 222.050781 161.476562 222.148438 C 161.925781 222.300781 162.300781 222.449219 162.601562 222.601562 C 162.898438 222.75 163.148438 222.976562 163.351562 223.273438 C 163.550781 223.574219 163.648438 223.976562 163.648438 224.476562 C 163.648438 225.226562 163.398438 225.800781 162.898438 226.199219 C 162.398438 226.550781 161.75 226.726562 160.949219 226.726562 C 160.5 226.726562 160.101562 226.675781 159.75 226.574219 C 159.398438 226.476562 159 226.351562 158.550781 226.199219 L 158.851562 225.300781 "/>
<path style=" stroke:none;fill-rule:nonzero;fill:rgb(0%,0%,0%);fill-opacity:1;" d="M 187.726562 201.898438 L 188.773438 201.898438 L 188.773438 205.273438 L 192.824219 205.273438 L 192.824219 201.898438 L 193.875 201.898438 L 193.875 209.851562 L 192.824219 209.851562 L 192.824219 206.175781 L 188.773438 206.175781 L 188.773438 209.851562 L 187.726562 209.851562 L 187.726562 201.898438 "/>
</g>
</svg>
