<?xml version="1.0" encoding="UTF-8"?>
<svg xmlns="http://www.w3.org/2000/svg" xmlns:xlink="http://www.w3.org/1999/xlink" width="375pt" height="375pt" viewBox="0 0 375 375" version="1.1">
<g id="surface221">
<rect x="0" y="0" width="375" height="375" style="fill:rgb(100%,100%,100%);fill-opacity:1;stroke:none;"/>
<path style="fill:none;stroke-width:2;stroke-linecap:butt;stroke-linejoin:miter;stroke:rgb(0%,0%,0%);stroke-opacity:1;stroke-miterlimit:4;" d="M 73.302083 165.098958 L 79.598958 177.901042 " transform="matrix(0.75,0,0,0.75,0,0)"/>
<path style="fill:none;stroke-width:2;stroke-linecap:butt;stroke-linejoin:miter;stroke:rgb(100%,0%,0%);stroke-opacity:1;stroke-miterlimit:4;" d="M 79.598958 177.901042 L 86 190.697917 " transform="matrix(0.75,0,0,0.75,0,0)"/>
<path style="fill:none;stroke-width:2;stroke-linecap:butt;stroke-linejoin:miter;stroke:rgb(100%,0%,0%);stroke-opacity:1;stroke-miterlimit:4;" d="M 94.802083 197.302083 L 107.197917 198.098958 " transform="matrix(0.75,0,0,0.75,0,0)"/>
<path style="fill:none;stroke-width:2;stroke-linecap:butt;stroke-linejoin:miter;stroke:rgb(0%,0%,100%);stroke-opacity:1;stroke-miterlimit:4;" d="M 107.197917 198.098958 L 119.5 198.901042 " transform="matrix(0.75,0,0,0.75,0,0)"/>
<path style="fill:none;stroke-width:2;stroke-linecap:butt;stroke-linejoin:miter;stroke:rgb(0%,0%,100%);stroke-opacity:1;stroke-miterlimit:4;" d="M 127.598958 205.5 L 133.901042 218.302083 " transform="matrix(0.75,0,0,0.75,0,0)"/>
<path style="fill:none;stroke-width:2;stroke-linecap:butt;stroke-linejoin:miter;stroke:rgb(0%,0%,0%);stroke-opacity:1;stroke-miterlimit:4;" d="M 133.901042 218.302083 L 140.302083 231.098958 " transform="matrix(0.75,0,0,0.75,0,0)"/>
<path style="fill:none;stroke-width:2;stroke-linecap:butt;stroke-linejoin:miter;stroke:rgb(0%,0%,100%);stroke-opacity:1;stroke-miterlimit:4;" d="M 123.901042 210.098958 L 129 220.401042 " transform="matrix(0.75,0,0,0.75,0,0)"/>
<path style="fill:none;stroke-width:2;stroke-linecap:butt;stroke-linejoin:miter;stroke:rgb(0%,0%,0%);stroke-opacity:1;stroke-miterlimit:4;" d="M 129 220.401042 L 134.098958 230.697917 " transform="matrix(0.75,0,0,0.75,0,0)"/>
<path style="fill:none;stroke-width:2;stroke-linecap:butt;stroke-linejoin:miter;stroke:rgb(0%,0%,0%);stroke-opacity:1;stroke-miterlimit:4;" d="M 140.302083 231.098958 L 175.697917 233.401042 " transform="matrix(0.75,0,0,0.75,0,0)"/>
<path style="fill:none;stroke-width:2;stroke-linecap:butt;stroke-linejoin:miter;stroke:rgb(0%,0%,0%);stroke-opacity:1;stroke-miterlimit:4;" d="M 177.098958 236.098958 L 185.197917 223.901042 " transform="matrix(0.75,0,0,0.75,0,0)"/>
<path style="fill:none;stroke-width:2;stroke-linecap:butt;stroke-linejoin:miter;stroke:rgb(100%,0%,0%);stroke-opacity:1;stroke-miterlimit:4;" d="M 185.197917 223.901042 L 193.302083 211.697917 " transform="matrix(0.75,0,0,0.75,0,0)"/>
<path style="fill:none;stroke-width:2;stroke-linecap:butt;stroke-linejoin:miter;stroke:rgb(0%,0%,0%);stroke-opacity:1;stroke-miterlimit:4;" d="M 172.598958 233.197917 L 180.802083 221 " transform="matrix(0.75,0,0,0.75,0,0)"/>
<path style="fill:none;stroke-width:2;stroke-linecap:butt;stroke-linejoin:miter;stroke:rgb(100%,0%,0%);stroke-opacity:1;stroke-miterlimit:4;" d="M 180.802083 221 L 188.901042 208.802083 " transform="matrix(0.75,0,0,0.75,0,0)"/>
<path style="fill:none;stroke-width:2;stroke-linecap:butt;stroke-linejoin:miter;stroke:rgb(0%,0%,0%);stroke-opacity:1;stroke-miterlimit:4;" d="M 175.697917 233.401042 L 182 246.197917 " transform="matrix(0.75,0,0,0.75,0,0)"/>
<path style="fill:none;stroke-width:2;stroke-linecap:butt;stroke-linejoin:miter;stroke:rgb(0%,0%,100%);stroke-opacity:1;stroke-miterlimit:4;" d="M 182 246.197917 L 188.401042 259 " transform="matrix(0.75,0,0,0.75,0,0)"/>
<path style="fill-rule:evenodd;fill:rgb(0%,0%,0%);fill-opacity:1;stroke-width:0.5;stroke-linecap:butt;stroke-linejoin:miter;stroke:rgb(0%,0%,0%);stroke-opacity:1;stroke-miterlimit:4;" d="M 226.901042 267.5 L 212.197917 267.901042 L 212.302083 265.197917 Z M 226.901042 267.5 " transform="matrix(0.75,0,0,0.75,0,0)"/>
<path style="fill-rule:evenodd;fill:rgb(0%,0%,100%);fill-opacity:1;stroke-width:0.5;stroke-linecap:butt;stroke-linejoin:miter;stroke:rgb(0%,0%,100%);stroke-opacity:1;stroke-miterlimit:4;" d="M 212.197917 267.901042 L 197.802083 263 L 197.401042 268.302083 Z M 212.197917 267.901042 " transform="matrix(0.75,0,0,0.75,0,0)"/>
<path style="fill-rule:evenodd;fill:rgb(0%,0%,100%);fill-opacity:1;stroke-width:0.5;stroke-linecap:butt;stroke-linejoin:miter;stroke:rgb(0%,0%,100%);stroke-opacity:1;stroke-miterlimit:4;" d="M 212.197917 267.901042 L 212.302083 265.197917 L 197.802083 263 Z M 212.197917 267.901042 " transform="matrix(0.75,0,0,0.75,0,0)"/>
<path style="fill:none;stroke-width:2;stroke-linecap:butt;stroke-linejoin:miter;stroke:rgb(0%,0%,0%);stroke-opacity:1;stroke-miterlimit:4;" d="M 226.901042 267.5 L 250.401042 294.197917 " transform="matrix(0.75,0,0,0.75,0,0)"/>
<path style="fill:none;stroke-width:2;stroke-linecap:butt;stroke-linejoin:miter;stroke:rgb(0%,0%,0%);stroke-opacity:1;stroke-miterlimit:4;" d="M 247.901042 291.302083 L 246.802083 307.302083 " transform="matrix(0.75,0,0,0.75,0,0)"/>
<path style="fill:none;stroke-width:2;stroke-linecap:butt;stroke-linejoin:miter;stroke:rgb(100%,0%,0%);stroke-opacity:1;stroke-miterlimit:4;" d="M 246.802083 307.302083 L 245.802083 323.197917 " transform="matrix(0.75,0,0,0.75,0,0)"/>
<path style="fill:none;stroke-width:2;stroke-linecap:butt;stroke-linejoin:miter;stroke:rgb(0%,0%,0%);stroke-opacity:1;stroke-miterlimit:4;" d="M 253.197917 291.697917 L 252.197917 307.598958 " transform="matrix(0.75,0,0,0.75,0,0)"/>
<path style="fill:none;stroke-width:2;stroke-linecap:butt;stroke-linejoin:miter;stroke:rgb(100%,0%,0%);stroke-opacity:1;stroke-miterlimit:4;" d="M 252.197917 307.598958 L 251.098958 323.5 " transform="matrix(0.75,0,0,0.75,0,0)"/>
<path style="fill:none;stroke-width:2;stroke-linecap:butt;stroke-linejoin:miter;stroke:rgb(0%,0%,0%);stroke-opacity:1;stroke-miterlimit:4;" d="M 250.401042 294.197917 L 261.197917 284.598958 " transform="matrix(0.75,0,0,0.75,0,0)"/>
<path style="fill:none;stroke-width:2;stroke-linecap:butt;stroke-linejoin:miter;stroke:rgb(0%,0%,100%);stroke-opacity:1;stroke-miterlimit:4;" d="M 261.197917 284.598958 L 272.098958 275.098958 " transform="matrix(0.75,0,0,0.75,0,0)"/>
<path style="fill:none;stroke-width:2;stroke-linecap:butt;stroke-linejoin:miter;stroke:rgb(0%,0%,100%);stroke-opacity:1;stroke-miterlimit:4;" d="M 282 269.697917 L 296.901042 266.697917 " transform="matrix(0.75,0,0,0.75,0,0)"/>
<path style="fill:none;stroke-width:2;stroke-linecap:butt;stroke-linejoin:miter;stroke:rgb(0%,0%,0%);stroke-opacity:1;stroke-miterlimit:4;" d="M 296.901042 266.697917 L 311.901042 263.697917 " transform="matrix(0.75,0,0,0.75,0,0)"/>
<path style="fill:none;stroke-width:2;stroke-linecap:butt;stroke-linejoin:miter;stroke:rgb(0%,0%,0%);stroke-opacity:1;stroke-miterlimit:4;" d="M 311.901042 263.697917 L 335.302083 290.401042 " transform="matrix(0.75,0,0,0.75,0,0)"/>
<path style="fill:none;stroke-width:2;stroke-linecap:butt;stroke-linejoin:miter;stroke:rgb(0%,0%,0%);stroke-opacity:1;stroke-miterlimit:4;" d="M 334.302083 293.302083 L 349.598958 290.302083 " transform="matrix(0.75,0,0,0.75,0,0)"/>
<path style="fill:none;stroke-width:2;stroke-linecap:butt;stroke-linejoin:miter;stroke:rgb(100%,0%,0%);stroke-opacity:1;stroke-miterlimit:4;" d="M 349.598958 290.302083 L 364.901042 287.197917 " transform="matrix(0.75,0,0,0.75,0,0)"/>
<path style="fill:none;stroke-width:2;stroke-linecap:butt;stroke-linejoin:miter;stroke:rgb(0%,0%,0%);stroke-opacity:1;stroke-miterlimit:4;" d="M 333.302083 288.098958 L 348.598958 285.098958 " transform="matrix(0.75,0,0,0.75,0,0)"/>
<path style="fill:none;stroke-width:2;stroke-linecap:butt;stroke-linejoin:miter;stroke:rgb(100%,0%,0%);stroke-opacity:1;stroke-miterlimit:4;" d="M 348.598958 285.098958 L 363.802083 282 " transform="matrix(0.75,0,0,0.75,0,0)"/>
<path style="fill:none;stroke-width:2;stroke-linecap:butt;stroke-linejoin:miter;stroke:rgb(0%,0%,0%);stroke-opacity:1;stroke-miterlimit:4;" d="M 335.302083 290.401042 L 330.697917 304.098958 " transform="matrix(0.75,0,0,0.75,0,0)"/>
<path style="fill:none;stroke-width:2;stroke-linecap:butt;stroke-linejoin:miter;stroke:rgb(100%,0%,0%);stroke-opacity:1;stroke-miterlimit:4;" d="M 330.697917 304.098958 L 326.098958 317.802083 " transform="matrix(0.75,0,0,0.75,0,0)"/>
<path style="fill:none;stroke-width:2;stroke-linecap:butt;stroke-linejoin:miter;stroke:rgb(0%,0%,0%);stroke-opacity:1;stroke-miterlimit:4;" d="M 311.901042 263.697917 L 323.197917 230.098958 " transform="matrix(0.75,0,0,0.75,0,0)"/>
<path style="fill:none;stroke-width:2;stroke-linecap:butt;stroke-linejoin:miter;stroke:rgb(0%,0%,0%);stroke-opacity:1;stroke-miterlimit:4;" d="M 307.802083 259.098958 L 317.197917 231.302083 " transform="matrix(0.75,0,0,0.75,0,0)"/>
<path style="fill:none;stroke-width:2;stroke-linecap:butt;stroke-linejoin:miter;stroke:rgb(0%,0%,0%);stroke-opacity:1;stroke-miterlimit:4;" d="M 323.197917 230.098958 L 358.098958 223.098958 " transform="matrix(0.75,0,0,0.75,0,0)"/>
<path style="fill:none;stroke-width:2;stroke-linecap:butt;stroke-linejoin:miter;stroke:rgb(0%,0%,0%);stroke-opacity:1;stroke-miterlimit:4;" d="M 358.098958 223.098958 L 367.598958 234 " transform="matrix(0.75,0,0,0.75,0,0)"/>
<path style="fill:none;stroke-width:2;stroke-linecap:butt;stroke-linejoin:miter;stroke:rgb(80%,80%,0%);stroke-opacity:1;stroke-miterlimit:4;" d="M 367.598958 234 L 377.098958 244.802083 " transform="matrix(0.75,0,0,0.75,0,0)"/>
<path style="fill:none;stroke-width:2;stroke-linecap:butt;stroke-linejoin:miter;stroke:rgb(80%,80%,0%);stroke-opacity:1;stroke-miterlimit:4;" d="M 385.901042 248.901042 L 401.197917 245.901042 " transform="matrix(0.75,0,0,0.75,0,0)"/>
<path style="fill:none;stroke-width:2;stroke-linecap:butt;stroke-linejoin:miter;stroke:rgb(0%,0%,0%);stroke-opacity:1;stroke-miterlimit:4;" d="M 401.197917 245.901042 L 416.401042 242.802083 " transform="matrix(0.75,0,0,0.75,0,0)"/>
<path style="fill:none;stroke-width:2;stroke-linecap:butt;stroke-linejoin:miter;stroke:rgb(0%,0%,0%);stroke-opacity:1;stroke-miterlimit:4;" d="M 416.401042 242.802083 L 422.401042 229.802083 " transform="matrix(0.75,0,0,0.75,0,0)"/>
<path style="fill:none;stroke-width:2;stroke-linecap:butt;stroke-linejoin:miter;stroke:rgb(0%,0%,100%);stroke-opacity:1;stroke-miterlimit:4;" d="M 422.401042 229.802083 L 428.401042 216.802083 " transform="matrix(0.75,0,0,0.75,0,0)"/>
<path style="fill:none;stroke-width:2;stroke-linecap:butt;stroke-linejoin:miter;stroke:rgb(0%,0%,0%);stroke-opacity:1;stroke-miterlimit:4;" d="M 422.802083 241.5 L 428 230.302083 " transform="matrix(0.75,0,0,0.75,0,0)"/>
<path style="fill:none;stroke-width:2;stroke-linecap:butt;stroke-linejoin:miter;stroke:rgb(0%,0%,100%);stroke-opacity:1;stroke-miterlimit:4;" d="M 428 230.302083 L 433.197917 219 " transform="matrix(0.75,0,0,0.75,0,0)"/>
<path style="fill:none;stroke-width:2;stroke-linecap:butt;stroke-linejoin:miter;stroke:rgb(0%,0%,100%);stroke-opacity:1;stroke-miterlimit:4;" d="M 436.197917 211.098958 L 461.5 214.098958 " transform="matrix(0.75,0,0,0.75,0,0)"/>
<path style="fill:none;stroke-width:2;stroke-linecap:butt;stroke-linejoin:miter;stroke:rgb(0%,0%,100%);stroke-opacity:1;stroke-miterlimit:4;" d="M 467.697917 220.901042 L 472.197917 243.302083 " transform="matrix(0.75,0,0,0.75,0,0)"/>
<path style="fill:none;stroke-width:2;stroke-linecap:butt;stroke-linejoin:miter;stroke:rgb(0%,0%,100%);stroke-opacity:1;stroke-miterlimit:4;" d="M 462.5 221.901042 L 467 244.401042 " transform="matrix(0.75,0,0,0.75,0,0)"/>
<path style="fill:none;stroke-width:2;stroke-linecap:butt;stroke-linejoin:miter;stroke:rgb(0%,0%,100%);stroke-opacity:1;stroke-miterlimit:4;" d="M 468.5 252.302083 L 447.5 264.098958 " transform="matrix(0.75,0,0,0.75,0,0)"/>
<path style="fill:none;stroke-width:2;stroke-linecap:butt;stroke-linejoin:miter;stroke:rgb(0%,0%,100%);stroke-opacity:1;stroke-miterlimit:4;" d="M 441.802083 273.098958 L 440.098958 287.697917 " transform="matrix(0.75,0,0,0.75,0,0)"/>
<path style="fill:none;stroke-width:2;stroke-linecap:butt;stroke-linejoin:miter;stroke:rgb(0%,0%,0%);stroke-opacity:1;stroke-miterlimit:4;" d="M 440.098958 287.697917 L 438.401042 302.197917 " transform="matrix(0.75,0,0,0.75,0,0)"/>
<path style="fill:none;stroke-width:2;stroke-linecap:butt;stroke-linejoin:miter;stroke:rgb(0%,0%,0%);stroke-opacity:1;stroke-miterlimit:4;" d="M 323.197917 230.098958 L 299.802083 203.401042 " transform="matrix(0.75,0,0,0.75,0,0)"/>
<path style="fill:none;stroke-width:2;stroke-linecap:butt;stroke-linejoin:miter;stroke:rgb(0%,0%,0%);stroke-opacity:1;stroke-miterlimit:4;" d="M 299.802083 203.401042 L 284.598958 206.5 " transform="matrix(0.75,0,0,0.75,0,0)"/>
<path style="fill:none;stroke-width:2;stroke-linecap:butt;stroke-linejoin:miter;stroke:rgb(80%,80%,0%);stroke-opacity:1;stroke-miterlimit:4;" d="M 284.598958 206.5 L 269.401042 209.5 " transform="matrix(0.75,0,0,0.75,0,0)"/>
<path style="fill:none;stroke-width:2;stroke-linecap:butt;stroke-linejoin:miter;stroke:rgb(80%,80%,0%);stroke-opacity:1;stroke-miterlimit:4;" d="M 262.802083 216.802083 L 258.197917 230.401042 " transform="matrix(0.75,0,0,0.75,0,0)"/>
<path style="fill:none;stroke-width:2;stroke-linecap:butt;stroke-linejoin:miter;stroke:rgb(0%,0%,0%);stroke-opacity:1;stroke-miterlimit:4;" d="M 258.197917 230.401042 L 253.598958 244 " transform="matrix(0.75,0,0,0.75,0,0)"/>
<path style="fill:none;stroke-width:2;stroke-linecap:butt;stroke-linejoin:miter;stroke:rgb(0%,0%,0%);stroke-opacity:1;stroke-miterlimit:4;" d="M 140.302083 231.098958 L 120.598958 260.697917 " transform="matrix(0.75,0,0,0.75,0,0)"/>
<path style="fill:none;stroke-width:2;stroke-linecap:butt;stroke-linejoin:miter;stroke:rgb(0%,0%,0%);stroke-opacity:1;stroke-miterlimit:4;" d="M 120.598958 260.697917 L 132.901042 294 " transform="matrix(0.75,0,0,0.75,0,0)"/>
<path style="fill:none;stroke-width:2;stroke-linecap:butt;stroke-linejoin:miter;stroke:rgb(0%,0%,0%);stroke-opacity:1;stroke-miterlimit:4;" d="M 116.901042 266.098958 L 126.5 292.197917 " transform="matrix(0.75,0,0,0.75,0,0)"/>
<path style="fill:none;stroke-width:2;stroke-linecap:butt;stroke-linejoin:miter;stroke:rgb(0%,0%,0%);stroke-opacity:1;stroke-miterlimit:4;" d="M 132.901042 294 L 121.197917 303.197917 " transform="matrix(0.75,0,0,0.75,0,0)"/>
<path style="fill:none;stroke-width:2;stroke-linecap:butt;stroke-linejoin:miter;stroke:rgb(80%,80%,0%);stroke-opacity:1;stroke-miterlimit:4;" d="M 121.197917 303.197917 L 109.401042 312.5 " transform="matrix(0.75,0,0,0.75,0,0)"/>
<path style="fill:none;stroke-width:2;stroke-linecap:butt;stroke-linejoin:miter;stroke:rgb(80%,80%,0%);stroke-opacity:1;stroke-miterlimit:4;" d="M 100.598958 313.098958 L 88 304.697917 " transform="matrix(0.75,0,0,0.75,0,0)"/>
<path style="fill:none;stroke-width:2;stroke-linecap:butt;stroke-linejoin:miter;stroke:rgb(0%,0%,0%);stroke-opacity:1;stroke-miterlimit:4;" d="M 88 304.697917 L 75.5 296.302083 " transform="matrix(0.75,0,0,0.75,0,0)"/>
<path style="fill:none;stroke-width:2;stroke-linecap:butt;stroke-linejoin:miter;stroke:rgb(0%,0%,0%);stroke-opacity:1;stroke-miterlimit:4;" d="M 75.5 296.302083 L 61.302083 301.5 " transform="matrix(0.75,0,0,0.75,0,0)"/>
<path style="fill:none;stroke-width:2;stroke-linecap:butt;stroke-linejoin:miter;stroke:rgb(0%,0%,100%);stroke-opacity:1;stroke-miterlimit:4;" d="M 61.302083 301.5 L 47.098958 306.802083 " transform="matrix(0.75,0,0,0.75,0,0)"/>
<path style="fill:none;stroke-width:2;stroke-linecap:butt;stroke-linejoin:miter;stroke:rgb(0%,0%,0%);stroke-opacity:1;stroke-miterlimit:4;" d="M 75.5 296.302083 L 79.401042 282.302083 " transform="matrix(0.75,0,0,0.75,0,0)"/>
<path style="fill:none;stroke-width:2;stroke-linecap:butt;stroke-linejoin:miter;stroke:rgb(0%,0%,100%);stroke-opacity:1;stroke-miterlimit:4;" d="M 79.401042 282.302083 L 83.302083 268.302083 " transform="matrix(0.75,0,0,0.75,0,0)"/>
<path style="fill:none;stroke-width:2;stroke-linecap:butt;stroke-linejoin:miter;stroke:rgb(0%,0%,0%);stroke-opacity:1;stroke-miterlimit:4;" d="M 81.598958 294 L 85 281.901042 " transform="matrix(0.75,0,0,0.75,0,0)"/>
<path style="fill:none;stroke-width:2;stroke-linecap:butt;stroke-linejoin:miter;stroke:rgb(0%,0%,100%);stroke-opacity:1;stroke-miterlimit:4;" d="M 85 281.901042 L 88.401042 269.697917 " transform="matrix(0.75,0,0,0.75,0,0)"/>
<path style="fill:none;stroke-width:2;stroke-linecap:butt;stroke-linejoin:miter;stroke:rgb(0%,0%,0%);stroke-opacity:1;stroke-miterlimit:4;" d="M 253.598958 244 L 226.901042 267.5 " transform="matrix(0.75,0,0,0.75,0,0)"/>
<path style="fill:none;stroke-width:2;stroke-linecap:butt;stroke-linejoin:miter;stroke:rgb(0%,0%,100%);stroke-opacity:1;stroke-miterlimit:4;" d="M 90 261.901042 L 105.302083 261.302083 " transform="matrix(0.75,0,0,0.75,0,0)"/>
<path style="fill:none;stroke-width:2;stroke-linecap:butt;stroke-linejoin:miter;stroke:rgb(0%,0%,0%);stroke-opacity:1;stroke-miterlimit:4;" d="M 105.302083 261.302083 L 120.598958 260.697917 " transform="matrix(0.75,0,0,0.75,0,0)"/>
<path style="fill:none;stroke-width:2;stroke-linecap:butt;stroke-linejoin:miter;stroke:rgb(0%,0%,0%);stroke-opacity:1;stroke-miterlimit:4;" d="M 253.598958 244 L 262.802083 254.5 " transform="matrix(0.75,0,0,0.75,0,0)"/>
<path style="fill:none;stroke-width:2;stroke-linecap:butt;stroke-linejoin:miter;stroke:rgb(0%,0%,100%);stroke-opacity:1;stroke-miterlimit:4;" d="M 262.802083 254.5 L 272.098958 265 " transform="matrix(0.75,0,0,0.75,0,0)"/>
<path style="fill:none;stroke-width:2;stroke-linecap:butt;stroke-linejoin:miter;stroke:rgb(0%,0%,100%);stroke-opacity:1;stroke-miterlimit:4;" d="M 437.5 262.302083 L 426.901042 252.598958 " transform="matrix(0.75,0,0,0.75,0,0)"/>
<path style="fill:none;stroke-width:2;stroke-linecap:butt;stroke-linejoin:miter;stroke:rgb(0%,0%,0%);stroke-opacity:1;stroke-miterlimit:4;" d="M 426.901042 252.598958 L 416.401042 242.802083 " transform="matrix(0.75,0,0,0.75,0,0)"/>
<path style="fill:none;stroke-width:1;stroke-linecap:butt;stroke-linejoin:miter;stroke:rgb(0%,0%,0%);stroke-opacity:1;stroke-miterlimit:4;" d="M 250.5 242.401042 L 250.901042 241.802083 " transform="matrix(0.75,0,0,0.75,0,0)"/>
<path style="fill:none;stroke-width:1;stroke-linecap:butt;stroke-linejoin:miter;stroke:rgb(0%,0%,0%);stroke-opacity:1;stroke-miterlimit:4;" d="M 247.401042 240.697917 L 248.098958 239.598958 " transform="matrix(0.75,0,0,0.75,0,0)"/>
<path style="fill:none;stroke-width:1;stroke-linecap:butt;stroke-linejoin:miter;stroke:rgb(0%,0%,0%);stroke-opacity:1;stroke-miterlimit:4;" d="M 244.302083 239.098958 L 245.401042 237.401042 " transform="matrix(0.75,0,0,0.75,0,0)"/>
<path style="fill:none;stroke-width:1;stroke-linecap:butt;stroke-linejoin:miter;stroke:rgb(0%,0%,0%);stroke-opacity:1;stroke-miterlimit:4;" d="M 241.197917 237.401042 L 242.697917 235.197917 " transform="matrix(0.75,0,0,0.75,0,0)"/>
<path style="fill:none;stroke-width:1;stroke-linecap:butt;stroke-linejoin:miter;stroke:rgb(0%,0%,0%);stroke-opacity:1;stroke-miterlimit:4;" d="M 238.098958 235.697917 L 240 233 " transform="matrix(0.75,0,0,0.75,0,0)"/>
<path style="fill:none;stroke-width:1;stroke-linecap:butt;stroke-linejoin:miter;stroke:rgb(0%,0%,0%);stroke-opacity:1;stroke-miterlimit:4;" d="M 235 234.098958 L 237.197917 230.697917 " transform="matrix(0.75,0,0,0.75,0,0)"/>
<path style="fill:none;stroke-width:1;stroke-linecap:butt;stroke-linejoin:miter;stroke:rgb(0%,0%,0%);stroke-opacity:1;stroke-miterlimit:4;" d="M 231.901042 232.401042 L 234.5 228.5 " transform="matrix(0.75,0,0,0.75,0,0)"/>
<path style="fill:none;stroke-width:1;stroke-linecap:butt;stroke-linejoin:miter;stroke:rgb(0%,0%,0%);stroke-opacity:1;stroke-miterlimit:4;" d="M 228.802083 230.697917 L 231.802083 226.302083 " transform="matrix(0.75,0,0,0.75,0,0)"/>
<path style="fill:none;stroke-width:2;stroke-linecap:butt;stroke-linejoin:miter;stroke:rgb(0%,0%,0%);stroke-opacity:1;stroke-miterlimit:4;" d="M 173.901042 233.302083 L 175.697917 233.401042 L 176 234 " transform="matrix(0.75,0,0,0.75,0,0)"/>
<path style="fill:none;stroke-width:2;stroke-linecap:butt;stroke-linejoin:miter;stroke:rgb(0%,0%,0%);stroke-opacity:1;stroke-miterlimit:4;" d="M 228.098958 268.802083 L 226.901042 267.5 L 228.197917 266.302083 " transform="matrix(0.75,0,0,0.75,0,0)"/>
<path style="fill:none;stroke-width:2;stroke-linecap:butt;stroke-linejoin:miter;stroke:rgb(0%,0%,0%);stroke-opacity:1;stroke-miterlimit:4;" d="M 249.197917 292.802083 L 250.401042 294.197917 L 250.901042 293.697917 " transform="matrix(0.75,0,0,0.75,0,0)"/>
<path style="fill:none;stroke-width:2;stroke-linecap:butt;stroke-linejoin:miter;stroke:rgb(0%,0%,0%);stroke-opacity:1;stroke-miterlimit:4;" d="M 334.197917 289.098958 L 335.302083 290.401042 L 335.098958 291.098958 " transform="matrix(0.75,0,0,0.75,0,0)"/>
<path style="fill:none;stroke-width:2;stroke-linecap:butt;stroke-linejoin:miter;stroke:rgb(0%,0%,0%);stroke-opacity:1;stroke-miterlimit:4;" d="M 356.302083 223.5 L 358.098958 223.098958 L 358.598958 223.697917 " transform="matrix(0.75,0,0,0.75,0,0)"/>
<path style="fill:none;stroke-width:2;stroke-linecap:butt;stroke-linejoin:miter;stroke:rgb(0%,0%,0%);stroke-opacity:1;stroke-miterlimit:4;" d="M 301 204.697917 L 299.802083 203.401042 L 299 203.598958 " transform="matrix(0.75,0,0,0.75,0,0)"/>
<path style="fill:none;stroke-width:2;stroke-linecap:butt;stroke-linejoin:miter;stroke:rgb(0%,0%,0%);stroke-opacity:1;stroke-miterlimit:4;" d="M 132.302083 292.302083 L 132.901042 294 L 132.302083 294.401042 " transform="matrix(0.75,0,0,0.75,0,0)"/>
<path style=" stroke:none;fill-rule:nonzero;fill:rgb(100%,0%,0%);fill-opacity:1;" d="M 63.300781 147.75 C 63.300781 146.550781 63.601562 145.601562 64.199219 144.898438 C 64.800781 144.25 65.675781 143.925781 66.824219 143.925781 C 67.925781 143.925781 68.773438 144.25 69.375 144.898438 C 69.976562 145.601562 70.273438 146.550781 70.273438 147.75 C 70.273438 148.949219 69.976562 149.898438 69.375 150.601562 C 68.773438 151.300781 67.925781 151.648438 66.824219 151.648438 C 65.675781 151.648438 64.800781 151.300781 64.199219 150.601562 C 63.601562 149.949219 63.300781 149 63.300781 147.75 M 66.824219 150.824219 C 67.574219 150.824219 68.148438 150.574219 68.550781 150.074219 C 68.949219 149.523438 69.148438 148.75 69.148438 147.75 C 69.148438 146.75 68.949219 146 68.550781 145.5 C 68.148438 145 67.574219 144.75 66.824219 144.75 C 66.023438 144.75 65.425781 145 65.023438 145.5 C 64.625 146 64.425781 146.75 64.425781 147.75 C 64.425781 148.75 64.625 149.523438 65.023438 150.074219 C 65.425781 150.574219 66.023438 150.824219 66.824219 150.824219 "/>
<path style=" stroke:none;fill-rule:nonzero;fill:rgb(0%,0%,100%);fill-opacity:1;" d="M 91.726562 145.648438 L 94.199219 149.699219 C 94.351562 149.949219 94.550781 150.300781 94.800781 150.75 C 95.101562 151.25 95.25 151.5 95.25 151.5 L 95.25 145.648438 L 96.226562 145.648438 L 96.226562 153.226562 L 95.175781 153.226562 L 92.550781 148.875 C 92.351562 148.523438 92.125 148.148438 91.875 147.75 C 91.675781 147.351562 91.550781 147.101562 91.5 147 L 91.5 153.226562 L 90.523438 153.226562 L 90.523438 145.648438 L 91.726562 145.648438 "/>
<path style=" stroke:none;fill-rule:nonzero;fill:rgb(100%,0%,0%);fill-opacity:1;" d="M 143.101562 152.851562 C 143.101562 151.648438 143.398438 150.726562 144 150.074219 C 144.601562 149.375 145.449219 149.023438 146.550781 149.023438 C 147.648438 149.023438 148.5 149.375 149.101562 150.074219 C 149.699219 150.726562 150 151.648438 150 152.851562 C 150 154.101562 149.699219 155.074219 149.101562 155.773438 C 148.5 156.476562 147.648438 156.824219 146.550781 156.824219 C 145.449219 156.824219 144.601562 156.476562 144 155.773438 C 143.398438 155.074219 143.101562 154.101562 143.101562 152.851562 M 146.550781 155.925781 C 147.300781 155.925781 147.898438 155.675781 148.351562 155.175781 C 148.75 154.675781 148.949219 153.898438 148.949219 152.851562 C 148.949219 151.898438 148.75 151.175781 148.351562 150.675781 C 147.898438 150.175781 147.300781 149.925781 146.550781 149.925781 C 145.800781 149.925781 145.199219 150.175781 144.75 150.675781 C 144.351562 151.175781 144.148438 151.898438 144.148438 152.851562 C 144.148438 153.898438 144.351562 154.675781 144.75 155.175781 C 145.199219 155.675781 145.800781 155.925781 146.550781 155.925781 "/>
<path style=" stroke:none;fill-rule:nonzero;fill:rgb(0%,0%,100%);fill-opacity:1;" d="M 133.351562 195.148438 L 134.324219 195.148438 L 134.324219 198.375 L 138.226562 198.375 L 138.226562 195.148438 L 139.273438 195.148438 L 139.273438 202.648438 L 138.226562 202.648438 L 138.226562 199.199219 L 134.324219 199.199219 L 134.324219 202.648438 L 133.351562 202.648438 L 133.351562 195.148438 "/>
<path style=" stroke:none;fill-rule:nonzero;fill:rgb(0%,0%,100%);fill-opacity:1;" d="M 141.898438 195.148438 L 144.375 199.125 C 144.574219 199.375 144.800781 199.75 145.050781 200.25 C 145.300781 200.699219 145.425781 200.949219 145.425781 201 L 145.425781 195.148438 L 146.476562 195.148438 L 146.476562 202.648438 L 145.425781 202.648438 L 142.800781 198.300781 C 142.550781 197.949219 142.324219 197.601562 142.125 197.25 C 141.925781 196.851562 141.773438 196.574219 141.675781 196.425781 L 141.675781 202.648438 L 140.699219 202.648438 L 140.699219 195.148438 L 141.898438 195.148438 "/>
<path style=" stroke:none;fill-rule:nonzero;fill:rgb(100%,0%,0%);fill-opacity:1;" d="M 182.625 247.273438 C 182.625 246.023438 182.925781 245.074219 183.523438 244.425781 C 184.074219 243.726562 184.925781 243.375 186.074219 243.375 C 187.175781 243.375 188.023438 243.726562 188.625 244.425781 C 189.226562 245.074219 189.523438 246.023438 189.523438 247.273438 C 189.523438 248.476562 189.226562 249.425781 188.625 250.125 C 188.023438 250.824219 187.175781 251.175781 186.074219 251.175781 C 184.976562 251.175781 184.125 250.824219 183.523438 250.125 C 182.925781 249.425781 182.625 248.476562 182.625 247.273438 M 186.074219 250.273438 C 186.824219 250.273438 187.398438 250.023438 187.800781 249.523438 C 188.25 249.023438 188.476562 248.273438 188.476562 247.273438 C 188.476562 246.273438 188.25 245.523438 187.800781 245.023438 C 187.398438 244.523438 186.824219 244.273438 186.074219 244.273438 C 185.273438 244.273438 184.675781 244.523438 184.273438 245.023438 C 183.875 245.523438 183.675781 246.273438 183.675781 247.273438 C 183.675781 248.273438 183.875 249.023438 184.273438 249.523438 C 184.675781 250.023438 185.273438 250.273438 186.074219 250.273438 "/>
<path style=" stroke:none;fill-rule:nonzero;fill:rgb(0%,0%,100%);fill-opacity:1;" d="M 206.101562 199.273438 L 208.574219 203.25 C 208.726562 203.5 208.949219 203.875 209.25 204.375 C 209.5 204.824219 209.625 205.074219 209.625 205.125 L 209.625 199.273438 L 210.675781 199.273438 L 210.675781 206.773438 L 209.625 206.773438 L 206.925781 202.425781 C 206.726562 202.074219 206.523438 201.726562 206.324219 201.375 C 206.125 200.976562 205.976562 200.699219 205.875 200.550781 L 205.875 206.773438 L 204.898438 206.773438 L 204.898438 199.273438 L 206.101562 199.273438 "/>
<path style=" stroke:none;fill-rule:nonzero;fill:rgb(100%,0%,0%);fill-opacity:1;" d="M 274.125 212.625 C 274.125 211.425781 274.425781 210.476562 275.023438 209.773438 C 275.625 209.125 276.5 208.800781 277.648438 208.800781 C 278.75 208.800781 279.601562 209.125 280.199219 209.773438 C 280.800781 210.476562 281.101562 211.425781 281.101562 212.625 C 281.101562 213.824219 280.800781 214.773438 280.199219 215.476562 C 279.601562 216.175781 278.75 216.523438 277.648438 216.523438 C 276.5 216.523438 275.625 216.175781 275.023438 215.476562 C 274.425781 214.773438 274.125 213.824219 274.125 212.625 M 277.648438 215.699219 C 278.398438 215.699219 278.976562 215.425781 279.375 214.875 C 279.824219 214.375 280.050781 213.625 280.050781 212.625 C 280.050781 211.625 279.824219 210.875 279.375 210.375 C 278.976562 209.875 278.398438 209.625 277.648438 209.625 C 276.851562 209.625 276.25 209.875 275.851562 210.375 C 275.449219 210.875 275.25 211.625 275.25 212.625 C 275.25 213.625 275.449219 214.375 275.851562 214.875 C 276.25 215.425781 276.851562 215.699219 277.648438 215.699219 "/>
<path style=" stroke:none;fill-rule:nonzero;fill:rgb(100%,0%,0%);fill-opacity:1;" d="M 239.476562 243.074219 C 239.476562 241.875 239.773438 240.925781 240.375 240.226562 C 240.976562 239.574219 241.824219 239.25 242.925781 239.25 C 244.074219 239.25 244.949219 239.574219 245.550781 240.226562 C 246.148438 240.925781 246.449219 241.875 246.449219 243.074219 C 246.449219 244.324219 246.148438 245.273438 245.550781 245.925781 C 244.949219 246.625 244.074219 246.976562 242.925781 246.976562 C 241.824219 246.976562 240.976562 246.625 240.375 245.925781 C 239.773438 245.273438 239.476562 244.324219 239.476562 243.074219 M 242.925781 246.148438 C 243.726562 246.148438 244.324219 245.898438 244.726562 245.398438 C 245.125 244.851562 245.324219 244.074219 245.324219 243.074219 C 245.324219 242.074219 245.125 241.324219 244.726562 240.824219 C 244.324219 240.324219 243.726562 240.074219 242.925781 240.074219 C 242.175781 240.074219 241.601562 240.324219 241.199219 240.824219 C 240.800781 241.324219 240.601562 242.074219 240.601562 243.074219 C 240.601562 244.074219 240.800781 244.851562 241.199219 245.398438 C 241.601562 245.898438 242.175781 246.148438 242.925781 246.148438 "/>
<path style=" stroke:none;fill-rule:nonzero;fill:rgb(100%,0%,0%);fill-opacity:1;" d="M 247.574219 239.324219 L 248.625 239.324219 L 248.625 242.550781 L 252.449219 242.550781 L 252.449219 239.324219 L 253.5 239.324219 L 253.5 246.898438 L 252.449219 246.898438 L 252.449219 243.375 L 248.625 243.375 L 248.625 246.898438 L 247.574219 246.898438 L 247.574219 239.324219 "/>
<path style=" stroke:none;fill-rule:nonzero;fill:rgb(80%,80%,0%);fill-opacity:1;" d="M 284.023438 189.976562 C 284.074219 189.976562 284.226562 190.023438 284.476562 190.125 C 284.675781 190.226562 284.925781 190.300781 285.226562 190.351562 C 285.476562 190.398438 285.726562 190.425781 285.976562 190.425781 C 286.425781 190.425781 286.800781 190.324219 287.101562 190.125 C 287.398438 189.875 287.550781 189.550781 287.550781 189.148438 C 287.550781 188.851562 287.476562 188.625 287.324219 188.476562 C 287.175781 188.324219 287 188.199219 286.800781 188.101562 C 286.550781 188 286.25 187.898438 285.898438 187.800781 C 285.449219 187.648438 285.101562 187.523438 284.851562 187.425781 C 284.601562 187.273438 284.375 187.074219 284.175781 186.824219 C 283.976562 186.523438 283.875 186.148438 283.875 185.699219 C 283.875 185.050781 284.101562 184.550781 284.550781 184.199219 C 284.949219 183.800781 285.574219 183.601562 286.425781 183.601562 C 287.023438 183.601562 287.648438 183.726562 288.300781 183.976562 L 288.074219 184.800781 C 287.476562 184.550781 286.949219 184.425781 286.5 184.425781 C 286 184.425781 285.625 184.523438 285.375 184.726562 C 285.074219 184.925781 284.925781 185.199219 284.925781 185.550781 C 284.925781 185.851562 285 186.074219 285.148438 186.226562 C 285.300781 186.375 285.476562 186.5 285.675781 186.601562 C 285.875 186.699219 286.148438 186.800781 286.5 186.898438 C 286.949219 187.050781 287.300781 187.199219 287.550781 187.351562 C 287.851562 187.5 288.101562 187.726562 288.300781 188.023438 C 288.5 188.273438 288.601562 188.648438 288.601562 189.148438 C 288.601562 189.851562 288.351562 190.375 287.851562 190.726562 C 287.398438 191.125 286.800781 191.324219 286.050781 191.324219 C 285.601562 191.324219 285.199219 191.273438 284.851562 191.175781 C 284.5 191.074219 284.125 190.949219 283.726562 190.800781 L 284.023438 189.976562 "/>
<path style=" stroke:none;fill-rule:nonzero;fill:rgb(0%,0%,100%);fill-opacity:1;" d="M 321.75 154.125 L 324.226562 158.101562 C 324.375 158.398438 324.574219 158.773438 324.824219 159.226562 C 325.125 159.726562 325.273438 159.976562 325.273438 159.976562 L 325.273438 154.125 L 326.25 154.125 L 326.25 161.699219 L 325.199219 161.699219 L 322.574219 157.351562 C 322.375 157 322.148438 156.625 321.898438 156.226562 C 321.699219 155.824219 321.574219 155.574219 321.523438 155.476562 L 321.523438 161.699219 L 320.550781 161.699219 L 320.550781 154.125 L 321.75 154.125 "/>
<path style=" stroke:none;fill-rule:nonzero;fill:rgb(0%,0%,100%);fill-opacity:1;" d="M 348.226562 157.273438 L 350.699219 161.25 C 350.851562 161.5 351.050781 161.875 351.300781 162.375 C 351.550781 162.824219 351.699219 163.074219 351.75 163.125 L 351.75 157.273438 L 352.726562 157.273438 L 352.726562 164.773438 L 351.675781 164.773438 L 349.050781 160.425781 C 348.851562 160.074219 348.625 159.699219 348.375 159.300781 C 348.175781 158.898438 348.050781 158.648438 348 158.550781 L 348 164.773438 L 347.023438 164.773438 L 347.023438 157.273438 L 348.226562 157.273438 "/>
<path style=" stroke:none;fill-rule:nonzero;fill:rgb(0%,0%,100%);fill-opacity:1;" d="M 353.398438 183.375 L 355.875 187.351562 C 356.074219 187.601562 356.300781 187.976562 356.550781 188.476562 C 356.800781 188.925781 356.925781 189.175781 356.925781 189.226562 L 356.925781 183.375 L 357.976562 183.375 L 357.976562 190.875 L 356.925781 190.875 L 354.300781 186.523438 C 354.050781 186.175781 353.824219 185.824219 353.625 185.476562 C 353.425781 185.074219 353.273438 184.800781 353.175781 184.648438 L 353.175781 190.875 L 352.199219 190.875 L 352.199219 183.375 L 353.398438 183.375 "/>
<path style=" stroke:none;fill-rule:nonzero;fill:rgb(0%,0%,100%);fill-opacity:1;" d="M 330.226562 196.425781 L 332.699219 200.398438 C 332.851562 200.648438 333.050781 201.023438 333.300781 201.523438 C 333.550781 201.976562 333.699219 202.226562 333.75 202.273438 L 333.75 196.425781 L 334.726562 196.425781 L 334.726562 203.925781 L 333.675781 203.925781 L 331.050781 199.574219 C 330.851562 199.226562 330.625 198.875 330.375 198.523438 C 330.175781 198.125 330.050781 197.851562 330 197.699219 L 330 203.925781 L 329.023438 203.925781 L 329.023438 196.425781 L 330.226562 196.425781 "/>
<path style=" stroke:none;fill-rule:nonzero;fill:rgb(80%,80%,0%);fill-opacity:1;" d="M 196.574219 160.351562 C 196.625 160.398438 196.773438 160.476562 197.023438 160.574219 C 197.273438 160.675781 197.523438 160.75 197.773438 160.800781 C 198.023438 160.851562 198.273438 160.875 198.523438 160.875 C 199.023438 160.875 199.398438 160.773438 199.648438 160.574219 C 199.949219 160.324219 200.101562 160 200.101562 159.601562 C 200.101562 159.300781 200.023438 159.074219 199.875 158.925781 C 199.726562 158.773438 199.550781 158.648438 199.351562 158.550781 C 199.148438 158.449219 198.875 158.351562 198.523438 158.25 C 198.074219 158.101562 197.699219 157.949219 197.398438 157.800781 C 197.148438 157.699219 196.925781 157.5 196.726562 157.199219 C 196.523438 156.949219 196.425781 156.601562 196.425781 156.148438 C 196.425781 155.5 196.648438 155 197.101562 154.648438 C 197.550781 154.25 198.199219 154.050781 199.050781 154.050781 C 199.601562 154.050781 200.226562 154.175781 200.925781 154.425781 L 200.625 155.25 C 200.023438 155 199.5 154.875 199.050781 154.875 C 198.550781 154.875 198.175781 154.976562 197.925781 155.175781 C 197.675781 155.375 197.550781 155.648438 197.550781 156 C 197.550781 156.300781 197.601562 156.523438 197.699219 156.675781 C 197.851562 156.824219 198.023438 156.949219 198.226562 157.050781 C 198.425781 157.148438 198.699219 157.25 199.050781 157.351562 C 199.5 157.5 199.875 157.648438 200.175781 157.800781 C 200.425781 157.949219 200.648438 158.148438 200.851562 158.398438 C 201.050781 158.699219 201.148438 159.101562 201.148438 159.601562 C 201.148438 160.300781 200.898438 160.824219 200.398438 161.175781 C 199.949219 161.574219 199.351562 161.773438 198.601562 161.773438 C 198.148438 161.773438 197.75 161.726562 197.398438 161.625 C 197.050781 161.523438 196.675781 161.398438 196.273438 161.25 L 196.574219 160.351562 "/>
<path style=" stroke:none;fill-rule:nonzero;fill:rgb(80%,80%,0%);fill-opacity:1;" d="M 76.648438 239.550781 C 76.699219 239.601562 76.851562 239.675781 77.101562 239.773438 C 77.300781 239.875 77.523438 239.949219 77.773438 240 C 78.074219 240.050781 78.351562 240.074219 78.601562 240.074219 C 79.050781 240.074219 79.425781 239.976562 79.726562 239.773438 C 79.976562 239.523438 80.101562 239.199219 80.101562 238.800781 C 80.101562 238.5 80.050781 238.273438 79.949219 238.125 C 79.800781 237.976562 79.625 237.851562 79.425781 237.75 C 79.175781 237.648438 78.875 237.550781 78.523438 237.449219 C 78.074219 237.300781 77.726562 237.175781 77.476562 237.074219 C 77.226562 236.925781 77 236.726562 76.800781 236.476562 C 76.601562 236.175781 76.5 235.800781 76.5 235.351562 C 76.5 234.699219 76.726562 234.199219 77.175781 233.851562 C 77.574219 233.449219 78.199219 233.25 79.050781 233.25 C 79.648438 233.25 80.273438 233.375 80.925781 233.625 L 80.699219 234.449219 C 80.101562 234.199219 79.574219 234.074219 79.125 234.074219 C 78.625 234.074219 78.25 234.175781 78 234.375 C 77.699219 234.574219 77.550781 234.851562 77.550781 235.199219 C 77.550781 235.5 77.625 235.726562 77.773438 235.875 C 77.925781 236.023438 78.101562 236.148438 78.300781 236.25 C 78.5 236.351562 78.773438 236.449219 79.125 236.550781 C 79.574219 236.699219 79.925781 236.851562 80.175781 237 C 80.476562 237.148438 80.699219 237.351562 80.851562 237.601562 C 81.050781 237.898438 81.148438 238.300781 81.148438 238.800781 C 81.148438 239.5 80.925781 240.023438 80.476562 240.375 C 80.023438 240.773438 79.398438 240.976562 78.601562 240.976562 C 78.148438 240.976562 77.773438 240.925781 77.476562 240.824219 C 77.125 240.726562 76.75 240.601562 76.351562 240.449219 L 76.648438 239.550781 "/>
<path style=" stroke:none;fill-rule:nonzero;fill:rgb(0%,0%,100%);fill-opacity:1;" d="M 17.023438 227.699219 L 18.074219 227.699219 L 18.074219 230.925781 L 21.898438 230.925781 L 21.898438 227.699219 L 22.949219 227.699219 L 22.949219 235.273438 L 21.898438 235.273438 L 21.898438 231.75 L 18.074219 231.75 L 18.074219 235.273438 L 17.023438 235.273438 L 17.023438 227.699219 "/>
<path style=" stroke:none;fill-rule:nonzero;fill:rgb(0%,0%,100%);fill-opacity:1;" d="M 24.449219 234.976562 C 24.550781 234.675781 24.75 234.425781 25.050781 234.226562 C 25.351562 234.074219 25.699219 234 26.101562 234 C 26.601562 234 26.976562 234.125 27.226562 234.375 C 27.523438 234.675781 27.675781 235.050781 27.675781 235.5 C 27.675781 236 27.5 236.476562 27.148438 236.925781 C 26.800781 237.425781 26.25 237.925781 25.5 238.425781 L 27.75 238.425781 L 27.75 239.023438 L 24.375 239.023438 L 24.375 238.574219 C 25.023438 238.125 25.523438 237.726562 25.875 237.375 C 26.273438 237.074219 26.550781 236.773438 26.699219 236.476562 C 26.898438 236.175781 27 235.875 27 235.574219 C 27 235.226562 26.925781 234.976562 26.773438 234.824219 C 26.574219 234.625 26.351562 234.523438 26.101562 234.523438 C 25.800781 234.523438 25.574219 234.574219 25.425781 234.675781 C 25.226562 234.824219 25.074219 235 24.976562 235.199219 L 24.449219 234.976562 "/>
<path style=" stroke:none;fill-rule:nonzero;fill:rgb(0%,0%,100%);fill-opacity:1;" d="M 29.925781 227.699219 L 32.398438 231.675781 C 32.550781 231.976562 32.773438 232.351562 33.074219 232.800781 C 33.324219 233.300781 33.449219 233.550781 33.449219 233.550781 L 33.449219 227.699219 L 34.5 227.699219 L 34.5 235.273438 L 33.449219 235.273438 L 30.75 230.851562 C 30.550781 230.550781 30.351562 230.199219 30.148438 229.800781 C 29.949219 229.398438 29.800781 229.125 29.699219 228.976562 L 29.699219 235.273438 L 28.726562 235.273438 L 28.726562 227.699219 L 29.925781 227.699219 "/>
<path style=" stroke:none;fill-rule:nonzero;fill:rgb(0%,0%,100%);fill-opacity:1;" d="M 62.101562 192.824219 L 64.574219 196.800781 C 64.773438 197.050781 65 197.425781 65.25 197.925781 C 65.5 198.375 65.625 198.625 65.625 198.675781 L 65.625 192.824219 L 66.675781 192.824219 L 66.675781 200.324219 L 65.625 200.324219 L 63 195.976562 C 62.75 195.625 62.523438 195.25 62.324219 194.851562 C 62.125 194.5 61.976562 194.25 61.875 194.101562 L 61.875 200.324219 L 60.898438 200.324219 L 60.898438 192.824219 L 62.101562 192.824219 "/>
<path style=" stroke:none;fill-rule:nonzero;fill:rgb(0%,0%,0%);fill-opacity:1;" d="M 165.074219 164.476562 L 166.125 164.476562 L 166.125 167.699219 L 169.949219 167.699219 L 169.949219 164.476562 L 171 164.476562 L 171 172.050781 L 169.949219 172.050781 L 169.949219 168.523438 L 166.125 168.523438 L 166.125 172.050781 L 165.074219 172.050781 L 165.074219 164.476562 "/>
</g>
</svg>
