<?xml version="1.0" encoding="UTF-8"?>
<svg xmlns="http://www.w3.org/2000/svg" xmlns:xlink="http://www.w3.org/1999/xlink" width="375pt" height="375pt" viewBox="0 0 375 375" version="1.1">
<g id="surface76">
<rect x="0" y="0" width="375" height="375" style="fill:rgb(100%,100%,100%);fill-opacity:1;stroke:none;"/>
<path style="fill:none;stroke-width:2;stroke-linecap:butt;stroke-linejoin:miter;stroke:rgb(0%,0%,0%);stroke-opacity:1;stroke-miterlimit:4;" d="M 159 363.302083 L 145.302083 315.401042 " transform="matrix(0.75,0,0,0.75,0,0)"/>
<path style="fill:none;stroke-width:2;stroke-linecap:butt;stroke-linejoin:miter;stroke:rgb(0%,0%,0%);stroke-opacity:1;stroke-miterlimit:4;" d="M 145.302083 315.401042 L 99.098958 334 " transform="matrix(0.75,0,0,0.75,0,0)"/>
<path style="fill:none;stroke-width:2;stroke-linecap:butt;stroke-linejoin:miter;stroke:rgb(0%,0%,0%);stroke-opacity:1;stroke-miterlimit:4;" d="M 145.302083 315.401042 L 166.697917 311.697917 " transform="matrix(0.75,0,0,0.75,0,0)"/>
<path style="fill:none;stroke-width:2;stroke-linecap:butt;stroke-linejoin:miter;stroke:rgb(80%,80%,0%);stroke-opacity:1;stroke-miterlimit:4;" d="M 166.697917 311.697917 L 188.197917 307.901042 " transform="matrix(0.75,0,0,0.75,0,0)"/>
<path style="fill:none;stroke-width:2;stroke-linecap:butt;stroke-linejoin:miter;stroke:rgb(80%,80%,0%);stroke-opacity:1;stroke-miterlimit:4;" d="M 195.598958 298.197917 L 198.5 277.901042 " transform="matrix(0.75,0,0,0.75,0,0)"/>
<path style="fill:none;stroke-width:2;stroke-linecap:butt;stroke-linejoin:miter;stroke:rgb(0%,0%,0%);stroke-opacity:1;stroke-miterlimit:4;" d="M 198.5 277.901042 L 201.401042 257.598958 " transform="matrix(0.75,0,0,0.75,0,0)"/>
<path style="fill:none;stroke-width:2;stroke-linecap:butt;stroke-linejoin:miter;stroke:rgb(0%,0%,0%);stroke-opacity:1;stroke-miterlimit:4;" d="M 201.401042 257.598958 L 223.302083 212.802083 " transform="matrix(0.75,0,0,0.75,0,0)"/>
<path style="fill-rule:evenodd;fill:rgb(0%,0%,0%);fill-opacity:1;stroke-width:1;stroke-linecap:butt;stroke-linejoin:miter;stroke:rgb(0%,0%,0%);stroke-opacity:1;stroke-miterlimit:4;" d="M 223.302083 212.802083 L 241.697917 203.901042 L 243.302083 208.598958 Z M 223.302083 212.802083 " transform="matrix(0.75,0,0,0.75,0,0)"/>
<path style="fill-rule:evenodd;fill:rgb(0%,0%,100%);fill-opacity:1;stroke-width:1;stroke-linecap:butt;stroke-linejoin:miter;stroke:rgb(0%,0%,100%);stroke-opacity:1;stroke-miterlimit:4;" d="M 241.697917 203.901042 L 263.401042 204.302083 L 260.098958 194.901042 Z M 241.697917 203.901042 " transform="matrix(0.75,0,0,0.75,0,0)"/>
<path style="fill-rule:evenodd;fill:rgb(0%,0%,100%);fill-opacity:1;stroke-width:1;stroke-linecap:butt;stroke-linejoin:miter;stroke:rgb(0%,0%,100%);stroke-opacity:1;stroke-miterlimit:4;" d="M 241.697917 203.901042 L 243.302083 208.598958 L 263.401042 204.302083 Z M 241.697917 203.901042 " transform="matrix(0.75,0,0,0.75,0,0)"/>
<path style="fill:none;stroke-width:2;stroke-linecap:butt;stroke-linejoin:miter;stroke:rgb(0%,0%,100%);stroke-opacity:1;stroke-miterlimit:4;" d="M 277.401042 202.802083 L 292.697917 216.098958 " transform="matrix(0.75,0,0,0.75,0,0)"/>
<path style="fill:none;stroke-width:2;stroke-linecap:butt;stroke-linejoin:miter;stroke:rgb(0%,0%,0%);stroke-opacity:1;stroke-miterlimit:4;" d="M 292.697917 216.098958 L 307.901042 229.401042 " transform="matrix(0.75,0,0,0.75,0,0)"/>
<path style="fill:none;stroke-width:2;stroke-linecap:butt;stroke-linejoin:miter;stroke:rgb(0%,0%,0%);stroke-opacity:1;stroke-miterlimit:4;" d="M 312.802083 230.401042 L 308.901042 250.401042 " transform="matrix(0.75,0,0,0.75,0,0)"/>
<path style="fill:none;stroke-width:2;stroke-linecap:butt;stroke-linejoin:miter;stroke:rgb(100%,0%,0%);stroke-opacity:1;stroke-miterlimit:4;" d="M 308.901042 250.401042 L 305 270.5 " transform="matrix(0.75,0,0,0.75,0,0)"/>
<path style="fill:none;stroke-width:2;stroke-linecap:butt;stroke-linejoin:miter;stroke:rgb(0%,0%,0%);stroke-opacity:1;stroke-miterlimit:4;" d="M 303.098958 228.401042 L 299.098958 248.5 " transform="matrix(0.75,0,0,0.75,0,0)"/>
<path style="fill:none;stroke-width:2;stroke-linecap:butt;stroke-linejoin:miter;stroke:rgb(100%,0%,0%);stroke-opacity:1;stroke-miterlimit:4;" d="M 299.098958 248.5 L 295.197917 268.598958 " transform="matrix(0.75,0,0,0.75,0,0)"/>
<path style="fill:none;stroke-width:2;stroke-linecap:butt;stroke-linejoin:miter;stroke:rgb(0%,0%,0%);stroke-opacity:1;stroke-miterlimit:4;" d="M 307.901042 229.401042 L 355.098958 213.302083 " transform="matrix(0.75,0,0,0.75,0,0)"/>
<path style="fill:none;stroke-width:2;stroke-linecap:butt;stroke-linejoin:miter;stroke:rgb(0%,0%,0%);stroke-opacity:1;stroke-miterlimit:4;" d="M 355.098958 213.302083 L 392.598958 246 " transform="matrix(0.75,0,0,0.75,0,0)"/>
<path style="fill:none;stroke-width:2;stroke-linecap:butt;stroke-linejoin:miter;stroke:rgb(0%,0%,0%);stroke-opacity:1;stroke-miterlimit:4;" d="M 392.598958 246 L 383 294.901042 " transform="matrix(0.75,0,0,0.75,0,0)"/>
<path style="fill:none;stroke-width:2;stroke-linecap:butt;stroke-linejoin:miter;stroke:rgb(0%,0%,0%);stroke-opacity:1;stroke-miterlimit:4;" d="M 400.901042 255.197917 L 394.197917 289.5 " transform="matrix(0.75,0,0,0.75,0,0)"/>
<path style="fill:none;stroke-width:2;stroke-linecap:butt;stroke-linejoin:miter;stroke:rgb(0%,0%,0%);stroke-opacity:1;stroke-miterlimit:4;" d="M 383 294.901042 L 420.598958 327.598958 " transform="matrix(0.75,0,0,0.75,0,0)"/>
<path style="fill:none;stroke-width:2;stroke-linecap:butt;stroke-linejoin:miter;stroke:rgb(0%,0%,0%);stroke-opacity:1;stroke-miterlimit:4;" d="M 420.598958 327.598958 L 467.697917 311.5 " transform="matrix(0.75,0,0,0.75,0,0)"/>
<path style="fill:none;stroke-width:2;stroke-linecap:butt;stroke-linejoin:miter;stroke:rgb(0%,0%,0%);stroke-opacity:1;stroke-miterlimit:4;" d="M 424.401042 315.802083 L 457.401042 304.5 " transform="matrix(0.75,0,0,0.75,0,0)"/>
<path style="fill:none;stroke-width:2;stroke-linecap:butt;stroke-linejoin:miter;stroke:rgb(0%,0%,0%);stroke-opacity:1;stroke-miterlimit:4;" d="M 467.697917 311.5 L 477.302083 262.598958 " transform="matrix(0.75,0,0,0.75,0,0)"/>
<path style="fill:none;stroke-width:2;stroke-linecap:butt;stroke-linejoin:miter;stroke:rgb(0%,0%,0%);stroke-opacity:1;stroke-miterlimit:4;" d="M 477.302083 262.598958 L 439.697917 229.802083 " transform="matrix(0.75,0,0,0.75,0,0)"/>
<path style="fill:none;stroke-width:2;stroke-linecap:butt;stroke-linejoin:miter;stroke:rgb(0%,0%,0%);stroke-opacity:1;stroke-miterlimit:4;" d="M 465.098958 265.197917 L 438.802083 242.302083 " transform="matrix(0.75,0,0,0.75,0,0)"/>
<path style="fill:none;stroke-width:2;stroke-linecap:butt;stroke-linejoin:miter;stroke:rgb(0%,0%,0%);stroke-opacity:1;stroke-miterlimit:4;" d="M 223.302083 212.802083 L 178.5 190.901042 " transform="matrix(0.75,0,0,0.75,0,0)"/>
<path style="fill:none;stroke-width:2;stroke-linecap:butt;stroke-linejoin:miter;stroke:rgb(0%,0%,0%);stroke-opacity:1;stroke-miterlimit:4;" d="M 173.802083 192.5 L 167.302083 173.5 " transform="matrix(0.75,0,0,0.75,0,0)"/>
<path style="fill:none;stroke-width:2;stroke-linecap:butt;stroke-linejoin:miter;stroke:rgb(100%,0%,0%);stroke-opacity:1;stroke-miterlimit:4;" d="M 167.302083 173.5 L 160.802083 154.401042 " transform="matrix(0.75,0,0,0.75,0,0)"/>
<path style="fill:none;stroke-width:2;stroke-linecap:butt;stroke-linejoin:miter;stroke:rgb(0%,0%,0%);stroke-opacity:1;stroke-miterlimit:4;" d="M 183.197917 189.302083 L 176.697917 170.197917 " transform="matrix(0.75,0,0,0.75,0,0)"/>
<path style="fill:none;stroke-width:2;stroke-linecap:butt;stroke-linejoin:miter;stroke:rgb(100%,0%,0%);stroke-opacity:1;stroke-miterlimit:4;" d="M 176.697917 170.197917 L 170.197917 151.197917 " transform="matrix(0.75,0,0,0.75,0,0)"/>
<path style="fill:none;stroke-width:2;stroke-linecap:butt;stroke-linejoin:miter;stroke:rgb(0%,0%,0%);stroke-opacity:1;stroke-miterlimit:4;" d="M 178.5 190.901042 L 169.697917 208.901042 " transform="matrix(0.75,0,0,0.75,0,0)"/>
<path style="fill:none;stroke-width:2;stroke-linecap:butt;stroke-linejoin:miter;stroke:rgb(0%,0%,100%);stroke-opacity:1;stroke-miterlimit:4;" d="M 169.697917 208.901042 L 160.901042 227 " transform="matrix(0.75,0,0,0.75,0,0)"/>
<path style="fill:none;stroke-width:2;stroke-linecap:butt;stroke-linejoin:miter;stroke:rgb(0%,0%,100%);stroke-opacity:1;stroke-miterlimit:4;" d="M 149.598958 242.901042 L 135.802083 257.098958 " transform="matrix(0.75,0,0,0.75,0,0)"/>
<path style="fill:none;stroke-width:2;stroke-linecap:butt;stroke-linejoin:miter;stroke:rgb(0%,0%,0%);stroke-opacity:1;stroke-miterlimit:4;" d="M 135.802083 257.098958 L 122 271.401042 " transform="matrix(0.75,0,0,0.75,0,0)"/>
<path style="fill:none;stroke-width:1;stroke-linecap:butt;stroke-linejoin:miter;stroke:rgb(0%,0%,0%);stroke-opacity:1;stroke-miterlimit:4;" d="M 113.901042 269.401042 L 113.598958 271.098958 " transform="matrix(0.75,0,0,0.75,0,0)"/>
<path style="fill:none;stroke-width:1;stroke-linecap:butt;stroke-linejoin:miter;stroke:rgb(0%,0%,0%);stroke-opacity:1;stroke-miterlimit:4;" d="M 105.802083 267.401042 L 105.302083 270.697917 " transform="matrix(0.75,0,0,0.75,0,0)"/>
<path style="fill:none;stroke-width:1;stroke-linecap:butt;stroke-linejoin:miter;stroke:rgb(0%,0%,0%);stroke-opacity:1;stroke-miterlimit:4;" d="M 97.697917 265.5 L 97 270.401042 " transform="matrix(0.75,0,0,0.75,0,0)"/>
<path style="fill:none;stroke-width:1;stroke-linecap:butt;stroke-linejoin:miter;stroke:rgb(0%,0%,0%);stroke-opacity:1;stroke-miterlimit:4;" d="M 89.598958 263.5 L 88.598958 270 " transform="matrix(0.75,0,0,0.75,0,0)"/>
<path style="fill:none;stroke-width:1;stroke-linecap:butt;stroke-linejoin:miter;stroke:rgb(0%,0%,0%);stroke-opacity:1;stroke-miterlimit:4;" d="M 81.5 261.5 L 80.302083 269.697917 " transform="matrix(0.75,0,0,0.75,0,0)"/>
<path style="fill:none;stroke-width:1;stroke-linecap:butt;stroke-linejoin:miter;stroke:rgb(0%,0%,0%);stroke-opacity:1;stroke-miterlimit:4;" d="M 73.401042 259.5 L 72 269.401042 " transform="matrix(0.75,0,0,0.75,0,0)"/>
<path style="fill:none;stroke-width:2;stroke-linecap:butt;stroke-linejoin:miter;stroke:rgb(0%,0%,0%);stroke-opacity:1;stroke-miterlimit:4;" d="M 68 266.302083 L 60.598958 247.697917 " transform="matrix(0.75,0,0,0.75,0,0)"/>
<path style="fill:none;stroke-width:2;stroke-linecap:butt;stroke-linejoin:miter;stroke:rgb(100%,0%,0%);stroke-opacity:1;stroke-miterlimit:4;" d="M 60.598958 247.697917 L 53.098958 229.098958 " transform="matrix(0.75,0,0,0.75,0,0)"/>
<path style="fill:none;stroke-width:2;stroke-linecap:butt;stroke-linejoin:miter;stroke:rgb(0%,0%,0%);stroke-opacity:1;stroke-miterlimit:4;" d="M 77.302083 262.598958 L 69.802083 244 " transform="matrix(0.75,0,0,0.75,0,0)"/>
<path style="fill:none;stroke-width:2;stroke-linecap:butt;stroke-linejoin:miter;stroke:rgb(100%,0%,0%);stroke-opacity:1;stroke-miterlimit:4;" d="M 69.802083 244 L 62.302083 225.302083 " transform="matrix(0.75,0,0,0.75,0,0)"/>
<path style="fill:none;stroke-width:2;stroke-linecap:butt;stroke-linejoin:miter;stroke:rgb(0%,0%,0%);stroke-opacity:1;stroke-miterlimit:4;" d="M 72.697917 264.401042 L 60.697917 279.598958 " transform="matrix(0.75,0,0,0.75,0,0)"/>
<path style="fill:none;stroke-width:2;stroke-linecap:butt;stroke-linejoin:miter;stroke:rgb(100%,0%,0%);stroke-opacity:1;stroke-miterlimit:4;" d="M 60.697917 279.598958 L 48.802083 294.802083 " transform="matrix(0.75,0,0,0.75,0,0)"/>
<path style="fill:none;stroke-width:2;stroke-linecap:butt;stroke-linejoin:miter;stroke:rgb(0%,0%,0%);stroke-opacity:1;stroke-miterlimit:4;" d="M 122 271.401042 L 145.302083 315.401042 " transform="matrix(0.75,0,0,0.75,0,0)"/>
<path style="fill:none;stroke-width:2;stroke-linecap:butt;stroke-linejoin:miter;stroke:rgb(0%,0%,100%);stroke-opacity:1;stroke-miterlimit:4;" d="M 163.598958 239.098958 L 182.5 248.302083 " transform="matrix(0.75,0,0,0.75,0,0)"/>
<path style="fill:none;stroke-width:2;stroke-linecap:butt;stroke-linejoin:miter;stroke:rgb(0%,0%,0%);stroke-opacity:1;stroke-miterlimit:4;" d="M 182.5 248.302083 L 201.401042 257.598958 " transform="matrix(0.75,0,0,0.75,0,0)"/>
<path style="fill:none;stroke-width:2;stroke-linecap:butt;stroke-linejoin:miter;stroke:rgb(0%,0%,0%);stroke-opacity:1;stroke-miterlimit:4;" d="M 439.697917 229.802083 L 392.598958 246 " transform="matrix(0.75,0,0,0.75,0,0)"/>
<path style="fill:none;stroke-width:1;stroke-linecap:butt;stroke-linejoin:miter;stroke:rgb(0%,0%,0%);stroke-opacity:1;stroke-miterlimit:4;" d="M 207.598958 260.302083 L 208.098958 258.697917 " transform="matrix(0.75,0,0,0.75,0,0)"/>
<path style="fill:none;stroke-width:1;stroke-linecap:butt;stroke-linejoin:miter;stroke:rgb(0%,0%,0%);stroke-opacity:1;stroke-miterlimit:4;" d="M 213.802083 263.098958 L 214.802083 259.901042 " transform="matrix(0.75,0,0,0.75,0,0)"/>
<path style="fill:none;stroke-width:1;stroke-linecap:butt;stroke-linejoin:miter;stroke:rgb(0%,0%,0%);stroke-opacity:1;stroke-miterlimit:4;" d="M 220 265.901042 L 221.5 261.098958 " transform="matrix(0.75,0,0,0.75,0,0)"/>
<path style="fill:none;stroke-width:1;stroke-linecap:butt;stroke-linejoin:miter;stroke:rgb(0%,0%,0%);stroke-opacity:1;stroke-miterlimit:4;" d="M 226.302083 268.697917 L 228.197917 262.302083 " transform="matrix(0.75,0,0,0.75,0,0)"/>
<path style="fill:none;stroke-width:1;stroke-linecap:butt;stroke-linejoin:miter;stroke:rgb(0%,0%,0%);stroke-opacity:1;stroke-miterlimit:4;" d="M 232.5 271.5 L 234.901042 263.5 " transform="matrix(0.75,0,0,0.75,0,0)"/>
<path style="fill:none;stroke-width:1;stroke-linecap:butt;stroke-linejoin:miter;stroke:rgb(0%,0%,0%);stroke-opacity:1;stroke-miterlimit:4;" d="M 238.697917 274.197917 L 241.598958 264.697917 " transform="matrix(0.75,0,0,0.75,0,0)"/>
<path style=" stroke:none;fill-rule:nonzero;fill:rgb(80%,80%,0%);fill-opacity:1;" d="M 142.800781 233.773438 C 142.851562 233.824219 143.050781 233.898438 143.398438 234 C 143.75 234.148438 144.101562 234.273438 144.449219 234.375 C 144.800781 234.476562 145.148438 234.523438 145.5 234.523438 C 146.199219 234.523438 146.726562 234.351562 147.074219 234 C 147.476562 233.699219 147.675781 233.25 147.675781 232.648438 C 147.675781 232.300781 147.574219 232 147.375 231.75 C 147.175781 231.5 146.925781 231.300781 146.625 231.148438 C 146.324219 231.050781 145.925781 230.925781 145.425781 230.773438 C 144.824219 230.574219 144.324219 230.375 143.925781 230.175781 C 143.574219 230.023438 143.273438 229.75 143.023438 229.351562 C 142.726562 229 142.574219 228.5 142.574219 227.851562 C 142.574219 226.949219 142.875 226.226562 143.476562 225.675781 C 144.125 225.125 145.023438 224.851562 146.175781 224.851562 C 147.023438 224.851562 147.898438 225.050781 148.800781 225.449219 L 148.5 226.574219 C 147.648438 226.226562 146.898438 226.050781 146.25 226.050781 C 145.550781 226.050781 145.023438 226.199219 144.675781 226.5 C 144.273438 226.800781 144.074219 227.199219 144.074219 227.699219 C 144.074219 228.050781 144.175781 228.351562 144.375 228.601562 C 144.574219 228.800781 144.824219 228.976562 145.125 229.125 C 145.375 229.273438 145.75 229.425781 146.25 229.574219 C 146.898438 229.726562 147.398438 229.898438 147.75 230.101562 C 148.148438 230.300781 148.476562 230.625 148.726562 231.074219 C 149.023438 231.476562 149.175781 232 149.175781 232.648438 C 149.175781 233.648438 148.851562 234.398438 148.199219 234.898438 C 147.550781 235.449219 146.675781 235.726562 145.574219 235.726562 C 144.925781 235.726562 144.375 235.648438 143.925781 235.5 C 143.476562 235.351562 142.949219 235.175781 142.351562 234.976562 L 142.800781 233.773438 "/>
<path style=" stroke:none;fill-rule:nonzero;fill:rgb(0%,0%,100%);fill-opacity:1;" d="M 200.476562 142.199219 L 203.925781 147.824219 C 204.175781 148.175781 204.476562 148.699219 204.824219 149.398438 C 205.175781 150.050781 205.375 150.398438 205.425781 150.449219 L 205.425781 142.199219 L 206.773438 142.199219 L 206.773438 152.773438 L 205.351562 152.773438 L 201.675781 146.699219 C 201.375 146.199219 201.074219 145.675781 200.773438 145.125 C 200.476562 144.574219 200.273438 144.226562 200.175781 144.074219 L 200.175781 152.773438 L 198.75 152.773438 L 198.75 142.199219 L 200.476562 142.199219 "/>
<path style=" stroke:none;fill-rule:nonzero;fill:rgb(0%,0%,100%);fill-opacity:1;" d="M 198.675781 130.574219 L 200.101562 130.574219 L 200.101562 135.074219 L 205.5 135.074219 L 205.5 130.574219 L 206.925781 130.574219 L 206.925781 141.148438 L 205.5 141.148438 L 205.5 136.273438 L 200.101562 136.273438 L 200.101562 141.148438 L 198.675781 141.148438 L 198.675781 130.574219 "/>
<path style=" stroke:none;fill-rule:nonzero;fill:rgb(100%,0%,0%);fill-opacity:1;" d="M 218.925781 208.726562 C 218.925781 207.023438 219.351562 205.699219 220.199219 204.75 C 221 203.851562 222.199219 203.398438 223.800781 203.398438 C 225.351562 203.398438 226.550781 203.851562 227.398438 204.75 C 228.199219 205.699219 228.601562 207.023438 228.601562 208.726562 C 228.601562 210.476562 228.175781 211.824219 227.324219 212.773438 C 226.523438 213.726562 225.351562 214.199219 223.800781 214.199219 C 222.25 214.199219 221.050781 213.726562 220.199219 212.773438 C 219.351562 211.824219 218.925781 210.476562 218.925781 208.726562 M 223.800781 213 C 224.851562 213 225.675781 212.648438 226.273438 211.949219 C 226.824219 211.25 227.101562 210.175781 227.101562 208.726562 C 227.101562 207.375 226.824219 206.351562 226.273438 205.648438 C 225.675781 204.898438 224.851562 204.523438 223.800781 204.523438 C 222.699219 204.523438 221.851562 204.875 221.25 205.574219 C 220.699219 206.273438 220.425781 207.324219 220.425781 208.726562 C 220.425781 210.175781 220.699219 211.25 221.25 211.949219 C 221.851562 212.648438 222.699219 213 223.800781 213 "/>
<path style=" stroke:none;fill-rule:nonzero;fill:rgb(100%,0%,0%);fill-opacity:1;" d="M 116.925781 107.851562 C 116.925781 106.148438 117.351562 104.824219 118.199219 103.875 C 119.050781 102.976562 120.25 102.523438 121.800781 102.523438 C 123.351562 102.523438 124.550781 102.976562 125.398438 103.875 C 126.25 104.824219 126.675781 106.148438 126.675781 107.851562 C 126.675781 109.601562 126.25 110.949219 125.398438 111.898438 C 124.550781 112.851562 123.351562 113.324219 121.800781 113.324219 C 120.25 113.324219 119.050781 112.851562 118.199219 111.898438 C 117.351562 110.949219 116.925781 109.601562 116.925781 107.851562 M 121.800781 112.125 C 122.851562 112.125 123.675781 111.773438 124.273438 111.074219 C 124.875 110.375 125.175781 109.300781 125.175781 107.851562 C 125.175781 106.5 124.875 105.476562 124.273438 104.773438 C 123.675781 104.023438 122.851562 103.648438 121.800781 103.648438 C 120.699219 103.648438 119.875 104 119.324219 104.699219 C 118.726562 105.398438 118.425781 106.449219 118.425781 107.851562 C 118.425781 109.300781 118.726562 110.375 119.324219 111.074219 C 119.875 111.773438 120.699219 112.125 121.800781 112.125 "/>
<path style=" stroke:none;fill-rule:nonzero;fill:rgb(0%,0%,100%);fill-opacity:1;" d="M 115.125 171.449219 L 118.574219 177.074219 C 118.824219 177.425781 119.125 177.925781 119.476562 178.574219 C 119.875 179.273438 120.074219 179.648438 120.074219 179.699219 L 120.074219 171.449219 L 121.5 171.449219 L 121.5 182.023438 L 120.074219 182.023438 L 116.324219 175.875 C 116.023438 175.425781 115.726562 174.925781 115.425781 174.375 C 115.125 173.824219 114.925781 173.449219 114.824219 173.25 L 114.824219 182.023438 L 113.476562 182.023438 L 113.476562 171.449219 L 115.125 171.449219 "/>
<path style=" stroke:none;fill-rule:nonzero;fill:rgb(100%,0%,0%);fill-opacity:1;" d="M 35.699219 163.648438 C 35.699219 162 36.125 160.699219 36.976562 159.75 C 37.773438 158.800781 38.976562 158.324219 40.574219 158.324219 C 42.125 158.324219 43.324219 158.800781 44.175781 159.75 C 44.976562 160.699219 45.375 162 45.375 163.648438 C 45.375 165.398438 44.976562 166.75 44.175781 167.699219 C 43.324219 168.699219 42.125 169.199219 40.574219 169.199219 C 39.023438 169.199219 37.824219 168.699219 36.976562 167.699219 C 36.125 166.75 35.699219 165.398438 35.699219 163.648438 M 40.574219 168 C 41.625 168 42.449219 167.625 43.050781 166.875 C 43.648438 166.175781 43.949219 165.101562 43.949219 163.648438 C 43.949219 162.300781 43.648438 161.273438 43.050781 160.574219 C 42.449219 159.875 41.625 159.523438 40.574219 159.523438 C 39.476562 159.523438 38.625 159.875 38.023438 160.574219 C 37.476562 161.273438 37.199219 162.300781 37.199219 163.648438 C 37.199219 165.101562 37.476562 166.175781 38.023438 166.875 C 38.625 167.625 39.476562 168 40.574219 168 "/>
<path style=" stroke:none;fill-rule:nonzero;fill:rgb(100%,0%,0%);fill-opacity:1;" d="M 17.023438 222.523438 L 18.449219 222.523438 L 18.449219 226.949219 L 23.925781 226.949219 L 23.925781 222.523438 L 25.351562 222.523438 L 25.351562 233.101562 L 23.925781 233.101562 L 23.925781 228.148438 L 18.449219 228.148438 L 18.449219 233.101562 L 17.023438 233.101562 L 17.023438 222.523438 "/>
<path style=" stroke:none;fill-rule:nonzero;fill:rgb(100%,0%,0%);fill-opacity:1;" d="M 26.625 227.773438 C 26.625 226.074219 27.023438 224.75 27.824219 223.800781 C 28.675781 222.851562 29.875 222.375 31.425781 222.375 C 33.023438 222.375 34.226562 222.851562 35.023438 223.800781 C 35.875 224.75 36.300781 226.074219 36.300781 227.773438 C 36.300781 229.476562 35.875 230.800781 35.023438 231.75 C 34.175781 232.75 32.976562 233.25 31.425781 233.25 C 29.875 233.25 28.675781 232.75 27.824219 231.75 C 27.023438 230.800781 26.625 229.476562 26.625 227.773438 M 31.425781 232.050781 C 32.523438 232.050781 33.351562 231.675781 33.898438 230.925781 C 34.5 230.226562 34.800781 229.175781 34.800781 227.773438 C 34.800781 226.375 34.5 225.324219 33.898438 224.625 C 33.351562 223.925781 32.523438 223.574219 31.425781 223.574219 C 30.375 223.574219 29.550781 223.925781 28.949219 224.625 C 28.398438 225.324219 28.125 226.375 28.125 227.773438 C 28.125 229.175781 28.398438 230.226562 28.949219 230.925781 C 29.550781 231.675781 30.375 232.050781 31.425781 232.050781 "/>
<path style=" stroke:none;fill-rule:nonzero;fill:rgb(0%,0%,0%);fill-opacity:1;" d="M 182.625 198.824219 L 184.050781 198.824219 L 184.050781 203.324219 L 189.449219 203.324219 L 189.449219 198.824219 L 190.875 198.824219 L 190.875 209.398438 L 189.449219 209.398438 L 189.449219 204.523438 L 184.050781 204.523438 L 184.050781 209.398438 L 182.625 209.398438 L 182.625 198.824219 "/>
</g>
</svg>
