<?xml version="1.0" encoding="UTF-8"?>
<svg xmlns="http://www.w3.org/2000/svg" xmlns:xlink="http://www.w3.org/1999/xlink" width="375pt" height="375pt" viewBox="0 0 375 375" version="1.1">
<g id="surface41">
<rect x="0" y="0" width="375" height="375" style="fill:rgb(100%,100%,100%);fill-opacity:1;stroke:none;"/>
<path style="fill:none;stroke-width:2;stroke-linecap:butt;stroke-linejoin:miter;stroke:rgb(0%,0%,0%);stroke-opacity:1;stroke-miterlimit:4;" d="M 147.401042 352.697917 L 134 309.598958 " transform="matrix(0.75,0,0,0.75,0,0)"/>
<path style="fill:none;stroke-width:2;stroke-linecap:butt;stroke-linejoin:miter;stroke:rgb(0%,0%,0%);stroke-opacity:1;stroke-miterlimit:4;" d="M 134 309.598958 L 92.5 327.401042 " transform="matrix(0.75,0,0,0.75,0,0)"/>
<path style="fill:none;stroke-width:2;stroke-linecap:butt;stroke-linejoin:miter;stroke:rgb(0%,0%,0%);stroke-opacity:1;stroke-miterlimit:4;" d="M 134 309.598958 L 153.302083 305.697917 " transform="matrix(0.75,0,0,0.75,0,0)"/>
<path style="fill:none;stroke-width:2;stroke-linecap:butt;stroke-linejoin:miter;stroke:rgb(80%,80%,0%);stroke-opacity:1;stroke-miterlimit:4;" d="M 153.302083 305.697917 L 172.598958 301.901042 " transform="matrix(0.75,0,0,0.75,0,0)"/>
<path style="fill:none;stroke-width:2;stroke-linecap:butt;stroke-linejoin:miter;stroke:rgb(80%,80%,0%);stroke-opacity:1;stroke-miterlimit:4;" d="M 179.098958 292.901042 L 181.302083 274.401042 " transform="matrix(0.75,0,0,0.75,0,0)"/>
<path style="fill:none;stroke-width:2;stroke-linecap:butt;stroke-linejoin:miter;stroke:rgb(0%,0%,0%);stroke-opacity:1;stroke-miterlimit:4;" d="M 181.302083 274.401042 L 183.5 255.901042 " transform="matrix(0.75,0,0,0.75,0,0)"/>
<path style="fill:none;stroke-width:2;stroke-linecap:butt;stroke-linejoin:miter;stroke:rgb(0%,0%,0%);stroke-opacity:1;stroke-miterlimit:4;" d="M 183.5 255.901042 L 202.302083 215 " transform="matrix(0.75,0,0,0.75,0,0)"/>
<path style="fill-rule:evenodd;fill:rgb(0%,0%,0%);fill-opacity:1;stroke-width:1;stroke-linecap:butt;stroke-linejoin:miter;stroke:rgb(0%,0%,0%);stroke-opacity:1;stroke-miterlimit:4;" d="M 202.302083 215 L 218.802083 206.5 L 220.401042 210.697917 Z M 202.302083 215 " transform="matrix(0.75,0,0,0.75,0,0)"/>
<path style="fill-rule:evenodd;fill:rgb(0%,0%,100%);fill-opacity:1;stroke-width:1;stroke-linecap:butt;stroke-linejoin:miter;stroke:rgb(0%,0%,100%);stroke-opacity:1;stroke-miterlimit:4;" d="M 218.802083 206.5 L 238.401042 206.401042 L 235.302083 198 Z M 218.802083 206.5 " transform="matrix(0.75,0,0,0.75,0,0)"/>
<path style="fill-rule:evenodd;fill:rgb(0%,0%,100%);fill-opacity:1;stroke-width:1;stroke-linecap:butt;stroke-linejoin:miter;stroke:rgb(0%,0%,100%);stroke-opacity:1;stroke-miterlimit:4;" d="M 218.802083 206.5 L 220.401042 210.697917 L 238.401042 206.401042 Z M 218.802083 206.5 " transform="matrix(0.75,0,0,0.75,0,0)"/>
<path style="fill:none;stroke-width:2;stroke-linecap:butt;stroke-linejoin:miter;stroke:rgb(0%,0%,100%);stroke-opacity:1;stroke-miterlimit:4;" d="M 251 204.598958 L 265.197917 216.302083 " transform="matrix(0.75,0,0,0.75,0,0)"/>
<path style="fill:none;stroke-width:2;stroke-linecap:butt;stroke-linejoin:miter;stroke:rgb(0%,0%,0%);stroke-opacity:1;stroke-miterlimit:4;" d="M 265.197917 216.302083 L 279.401042 228.098958 " transform="matrix(0.75,0,0,0.75,0,0)"/>
<path style="fill:none;stroke-width:2;stroke-linecap:butt;stroke-linejoin:miter;stroke:rgb(0%,0%,0%);stroke-opacity:1;stroke-miterlimit:4;" d="M 283.802083 228.901042 L 280.697917 247.098958 " transform="matrix(0.75,0,0,0.75,0,0)"/>
<path style="fill:none;stroke-width:2;stroke-linecap:butt;stroke-linejoin:miter;stroke:rgb(100%,0%,0%);stroke-opacity:1;stroke-miterlimit:4;" d="M 280.697917 247.098958 L 277.598958 265.401042 " transform="matrix(0.75,0,0,0.75,0,0)"/>
<path style="fill:none;stroke-width:2;stroke-linecap:butt;stroke-linejoin:miter;stroke:rgb(0%,0%,0%);stroke-opacity:1;stroke-miterlimit:4;" d="M 274.901042 227.401042 L 271.802083 245.598958 " transform="matrix(0.75,0,0,0.75,0,0)"/>
<path style="fill:none;stroke-width:2;stroke-linecap:butt;stroke-linejoin:miter;stroke:rgb(100%,0%,0%);stroke-opacity:1;stroke-miterlimit:4;" d="M 271.802083 245.598958 L 268.697917 263.901042 " transform="matrix(0.75,0,0,0.75,0,0)"/>
<path style="fill:none;stroke-width:2;stroke-linecap:butt;stroke-linejoin:miter;stroke:rgb(0%,0%,0%);stroke-opacity:1;stroke-miterlimit:4;" d="M 279.401042 228.098958 L 321.697917 212.5 " transform="matrix(0.75,0,0,0.75,0,0)"/>
<path style="fill:none;stroke-width:1;stroke-linecap:butt;stroke-linejoin:miter;stroke:rgb(0%,0%,0%);stroke-opacity:1;stroke-miterlimit:4;" d="M 323.401042 206.697917 L 321.901042 206.5 " transform="matrix(0.75,0,0,0.75,0,0)"/>
<path style="fill:none;stroke-width:1;stroke-linecap:butt;stroke-linejoin:miter;stroke:rgb(0%,0%,0%);stroke-opacity:1;stroke-miterlimit:4;" d="M 325.098958 201 L 322.197917 200.5 " transform="matrix(0.75,0,0,0.75,0,0)"/>
<path style="fill:none;stroke-width:1;stroke-linecap:butt;stroke-linejoin:miter;stroke:rgb(0%,0%,0%);stroke-opacity:1;stroke-miterlimit:4;" d="M 326.901042 195.302083 L 322.401042 194.5 " transform="matrix(0.75,0,0,0.75,0,0)"/>
<path style="fill:none;stroke-width:1;stroke-linecap:butt;stroke-linejoin:miter;stroke:rgb(0%,0%,100%);stroke-opacity:1;stroke-miterlimit:4;" d="M 328.598958 189.598958 L 322.697917 188.598958 " transform="matrix(0.75,0,0,0.75,0,0)"/>
<path style="fill:none;stroke-width:1;stroke-linecap:butt;stroke-linejoin:miter;stroke:rgb(0%,0%,100%);stroke-opacity:1;stroke-miterlimit:4;" d="M 330.401042 183.901042 L 323 182.598958 " transform="matrix(0.75,0,0,0.75,0,0)"/>
<path style="fill:none;stroke-width:1;stroke-linecap:butt;stroke-linejoin:miter;stroke:rgb(0%,0%,100%);stroke-opacity:1;stroke-miterlimit:4;" d="M 332.098958 178.098958 L 323.197917 176.598958 " transform="matrix(0.75,0,0,0.75,0,0)"/>
<path style="fill:none;stroke-width:2;stroke-linecap:butt;stroke-linejoin:miter;stroke:rgb(0%,0%,0%);stroke-opacity:1;stroke-miterlimit:4;" d="M 321.697917 212.5 L 356.401042 241.302083 " transform="matrix(0.75,0,0,0.75,0,0)"/>
<path style="fill:none;stroke-width:2;stroke-linecap:butt;stroke-linejoin:miter;stroke:rgb(0%,0%,0%);stroke-opacity:1;stroke-miterlimit:4;" d="M 356.401042 241.302083 L 348.802083 285.802083 " transform="matrix(0.75,0,0,0.75,0,0)"/>
<path style="fill:none;stroke-width:2;stroke-linecap:butt;stroke-linejoin:miter;stroke:rgb(0%,0%,0%);stroke-opacity:1;stroke-miterlimit:4;" d="M 364.098958 249.5 L 358.802083 280.598958 " transform="matrix(0.75,0,0,0.75,0,0)"/>
<path style="fill:none;stroke-width:2;stroke-linecap:butt;stroke-linejoin:miter;stroke:rgb(0%,0%,0%);stroke-opacity:1;stroke-miterlimit:4;" d="M 348.802083 285.802083 L 383.5 314.598958 " transform="matrix(0.75,0,0,0.75,0,0)"/>
<path style="fill:none;stroke-width:2;stroke-linecap:butt;stroke-linejoin:miter;stroke:rgb(0%,0%,0%);stroke-opacity:1;stroke-miterlimit:4;" d="M 383.5 314.598958 L 425.802083 298.901042 " transform="matrix(0.75,0,0,0.75,0,0)"/>
<path style="fill:none;stroke-width:2;stroke-linecap:butt;stroke-linejoin:miter;stroke:rgb(0%,0%,0%);stroke-opacity:1;stroke-miterlimit:4;" d="M 386.697917 303.802083 L 416.302083 292.802083 " transform="matrix(0.75,0,0,0.75,0,0)"/>
<path style="fill:none;stroke-width:2;stroke-linecap:butt;stroke-linejoin:miter;stroke:rgb(0%,0%,0%);stroke-opacity:1;stroke-miterlimit:4;" d="M 425.802083 298.901042 L 439.5 310.302083 " transform="matrix(0.75,0,0,0.75,0,0)"/>
<path style="fill:none;stroke-width:2;stroke-linecap:butt;stroke-linejoin:miter;stroke:rgb(100%,0%,0%);stroke-opacity:1;stroke-miterlimit:4;" d="M 439.5 310.302083 L 453.197917 321.598958 " transform="matrix(0.75,0,0,0.75,0,0)"/>
<path style="fill:none;stroke-width:2;stroke-linecap:butt;stroke-linejoin:miter;stroke:rgb(0%,0%,0%);stroke-opacity:1;stroke-miterlimit:4;" d="M 425.802083 298.901042 L 433.401042 254.5 " transform="matrix(0.75,0,0,0.75,0,0)"/>
<path style="fill:none;stroke-width:2;stroke-linecap:butt;stroke-linejoin:miter;stroke:rgb(0%,0%,0%);stroke-opacity:1;stroke-miterlimit:4;" d="M 433.401042 254.5 L 398.697917 225.598958 " transform="matrix(0.75,0,0,0.75,0,0)"/>
<path style="fill:none;stroke-width:2;stroke-linecap:butt;stroke-linejoin:miter;stroke:rgb(0%,0%,0%);stroke-opacity:1;stroke-miterlimit:4;" d="M 422.401042 257.098958 L 398.098958 236.901042 " transform="matrix(0.75,0,0,0.75,0,0)"/>
<path style="fill:none;stroke-width:2;stroke-linecap:butt;stroke-linejoin:miter;stroke:rgb(0%,0%,0%);stroke-opacity:1;stroke-miterlimit:4;" d="M 202.302083 215 L 161.302083 196.098958 " transform="matrix(0.75,0,0,0.75,0,0)"/>
<path style="fill:none;stroke-width:2;stroke-linecap:butt;stroke-linejoin:miter;stroke:rgb(0%,0%,0%);stroke-opacity:1;stroke-miterlimit:4;" d="M 157.098958 197.697917 L 150.802083 180.598958 " transform="matrix(0.75,0,0,0.75,0,0)"/>
<path style="fill:none;stroke-width:2;stroke-linecap:butt;stroke-linejoin:miter;stroke:rgb(100%,0%,0%);stroke-opacity:1;stroke-miterlimit:4;" d="M 150.802083 180.598958 L 144.5 163.5 " transform="matrix(0.75,0,0,0.75,0,0)"/>
<path style="fill:none;stroke-width:2;stroke-linecap:butt;stroke-linejoin:miter;stroke:rgb(0%,0%,0%);stroke-opacity:1;stroke-miterlimit:4;" d="M 165.598958 194.5 L 159.302083 177.5 " transform="matrix(0.75,0,0,0.75,0,0)"/>
<path style="fill:none;stroke-width:2;stroke-linecap:butt;stroke-linejoin:miter;stroke:rgb(100%,0%,0%);stroke-opacity:1;stroke-miterlimit:4;" d="M 159.302083 177.5 L 152.901042 160.401042 " transform="matrix(0.75,0,0,0.75,0,0)"/>
<path style="fill:none;stroke-width:2;stroke-linecap:butt;stroke-linejoin:miter;stroke:rgb(0%,0%,0%);stroke-opacity:1;stroke-miterlimit:4;" d="M 161.302083 196.098958 L 153.697917 212.697917 " transform="matrix(0.75,0,0,0.75,0,0)"/>
<path style="fill:none;stroke-width:2;stroke-linecap:butt;stroke-linejoin:miter;stroke:rgb(0%,0%,100%);stroke-opacity:1;stroke-miterlimit:4;" d="M 153.697917 212.697917 L 146.098958 229.197917 " transform="matrix(0.75,0,0,0.75,0,0)"/>
<path style="fill:none;stroke-width:2;stroke-linecap:butt;stroke-linejoin:miter;stroke:rgb(0%,0%,100%);stroke-opacity:1;stroke-miterlimit:4;" d="M 136.197917 244 L 124 257.098958 " transform="matrix(0.75,0,0,0.75,0,0)"/>
<path style="fill:none;stroke-width:2;stroke-linecap:butt;stroke-linejoin:miter;stroke:rgb(0%,0%,0%);stroke-opacity:1;stroke-miterlimit:4;" d="M 124 257.098958 L 111.901042 270.197917 " transform="matrix(0.75,0,0,0.75,0,0)"/>
<path style="fill:none;stroke-width:1;stroke-linecap:butt;stroke-linejoin:miter;stroke:rgb(0%,0%,0%);stroke-opacity:1;stroke-miterlimit:4;" d="M 104.5 268.598958 L 104.302083 270.098958 " transform="matrix(0.75,0,0,0.75,0,0)"/>
<path style="fill:none;stroke-width:1;stroke-linecap:butt;stroke-linejoin:miter;stroke:rgb(0%,0%,0%);stroke-opacity:1;stroke-miterlimit:4;" d="M 97.098958 267 L 96.802083 270 " transform="matrix(0.75,0,0,0.75,0,0)"/>
<path style="fill:none;stroke-width:1;stroke-linecap:butt;stroke-linejoin:miter;stroke:rgb(0%,0%,0%);stroke-opacity:1;stroke-miterlimit:4;" d="M 89.802083 265.401042 L 89.197917 269.901042 " transform="matrix(0.75,0,0,0.75,0,0)"/>
<path style="fill:none;stroke-width:1;stroke-linecap:butt;stroke-linejoin:miter;stroke:rgb(0%,0%,0%);stroke-opacity:1;stroke-miterlimit:4;" d="M 82.401042 263.802083 L 81.697917 269.697917 " transform="matrix(0.75,0,0,0.75,0,0)"/>
<path style="fill:none;stroke-width:1;stroke-linecap:butt;stroke-linejoin:miter;stroke:rgb(0%,0%,0%);stroke-opacity:1;stroke-miterlimit:4;" d="M 75 262.098958 L 74.098958 269.598958 " transform="matrix(0.75,0,0,0.75,0,0)"/>
<path style="fill:none;stroke-width:1;stroke-linecap:butt;stroke-linejoin:miter;stroke:rgb(0%,0%,0%);stroke-opacity:1;stroke-miterlimit:4;" d="M 67.598958 260.5 L 66.598958 269.5 " transform="matrix(0.75,0,0,0.75,0,0)"/>
<path style="fill:none;stroke-width:2;stroke-linecap:butt;stroke-linejoin:miter;stroke:rgb(0%,0%,0%);stroke-opacity:1;stroke-miterlimit:4;" d="M 62.901042 266.802083 L 55.802083 250.098958 " transform="matrix(0.75,0,0,0.75,0,0)"/>
<path style="fill:none;stroke-width:2;stroke-linecap:butt;stroke-linejoin:miter;stroke:rgb(100%,0%,0%);stroke-opacity:1;stroke-miterlimit:4;" d="M 55.802083 250.098958 L 48.598958 233.5 " transform="matrix(0.75,0,0,0.75,0,0)"/>
<path style="fill:none;stroke-width:2;stroke-linecap:butt;stroke-linejoin:miter;stroke:rgb(0%,0%,0%);stroke-opacity:1;stroke-miterlimit:4;" d="M 71.197917 263.197917 L 64.098958 246.598958 " transform="matrix(0.75,0,0,0.75,0,0)"/>
<path style="fill:none;stroke-width:2;stroke-linecap:butt;stroke-linejoin:miter;stroke:rgb(100%,0%,0%);stroke-opacity:1;stroke-miterlimit:4;" d="M 64.098958 246.598958 L 56.901042 229.901042 " transform="matrix(0.75,0,0,0.75,0,0)"/>
<path style="fill:none;stroke-width:2;stroke-linecap:butt;stroke-linejoin:miter;stroke:rgb(0%,0%,0%);stroke-opacity:1;stroke-miterlimit:4;" d="M 67.098958 265 L 56.598958 279.098958 " transform="matrix(0.75,0,0,0.75,0,0)"/>
<path style="fill:none;stroke-width:2;stroke-linecap:butt;stroke-linejoin:miter;stroke:rgb(100%,0%,0%);stroke-opacity:1;stroke-miterlimit:4;" d="M 56.598958 279.098958 L 46 293.197917 " transform="matrix(0.75,0,0,0.75,0,0)"/>
<path style="fill:none;stroke-width:2;stroke-linecap:butt;stroke-linejoin:miter;stroke:rgb(0%,0%,0%);stroke-opacity:1;stroke-miterlimit:4;" d="M 111.901042 270.197917 L 134 309.598958 " transform="matrix(0.75,0,0,0.75,0,0)"/>
<path style="fill:none;stroke-width:2;stroke-linecap:butt;stroke-linejoin:miter;stroke:rgb(0%,0%,100%);stroke-opacity:1;stroke-miterlimit:4;" d="M 148.802083 240 L 166.098958 248 " transform="matrix(0.75,0,0,0.75,0,0)"/>
<path style="fill:none;stroke-width:2;stroke-linecap:butt;stroke-linejoin:miter;stroke:rgb(0%,0%,0%);stroke-opacity:1;stroke-miterlimit:4;" d="M 166.098958 248 L 183.5 255.901042 " transform="matrix(0.75,0,0,0.75,0,0)"/>
<path style="fill:none;stroke-width:2;stroke-linecap:butt;stroke-linejoin:miter;stroke:rgb(0%,0%,0%);stroke-opacity:1;stroke-miterlimit:4;" d="M 398.697917 225.598958 L 356.401042 241.302083 " transform="matrix(0.75,0,0,0.75,0,0)"/>
<path style="fill:none;stroke-width:1;stroke-linecap:butt;stroke-linejoin:miter;stroke:rgb(0%,0%,0%);stroke-opacity:1;stroke-miterlimit:4;" d="M 189.197917 258.302083 L 189.598958 256.901042 " transform="matrix(0.75,0,0,0.75,0,0)"/>
<path style="fill:none;stroke-width:1;stroke-linecap:butt;stroke-linejoin:miter;stroke:rgb(0%,0%,0%);stroke-opacity:1;stroke-miterlimit:4;" d="M 194.901042 260.697917 L 195.697917 257.802083 " transform="matrix(0.75,0,0,0.75,0,0)"/>
<path style="fill:none;stroke-width:1;stroke-linecap:butt;stroke-linejoin:miter;stroke:rgb(0%,0%,0%);stroke-opacity:1;stroke-miterlimit:4;" d="M 200.598958 263.098958 L 201.802083 258.802083 " transform="matrix(0.75,0,0,0.75,0,0)"/>
<path style="fill:none;stroke-width:1;stroke-linecap:butt;stroke-linejoin:miter;stroke:rgb(0%,0%,0%);stroke-opacity:1;stroke-miterlimit:4;" d="M 206.302083 265.5 L 207.901042 259.697917 " transform="matrix(0.75,0,0,0.75,0,0)"/>
<path style="fill:none;stroke-width:1;stroke-linecap:butt;stroke-linejoin:miter;stroke:rgb(0%,0%,0%);stroke-opacity:1;stroke-miterlimit:4;" d="M 212 267.901042 L 214 260.598958 " transform="matrix(0.75,0,0,0.75,0,0)"/>
<path style="fill:none;stroke-width:1;stroke-linecap:butt;stroke-linejoin:miter;stroke:rgb(0%,0%,0%);stroke-opacity:1;stroke-miterlimit:4;" d="M 217.697917 270.302083 L 220.197917 261.598958 " transform="matrix(0.75,0,0,0.75,0,0)"/>
<path style=" stroke:none;fill-rule:nonzero;fill:rgb(80%,80%,0%);fill-opacity:1;" d="M 130.949219 228.824219 C 131 228.875 131.175781 228.949219 131.476562 229.050781 C 131.773438 229.199219 132.101562 229.324219 132.449219 229.425781 C 132.800781 229.476562 133.125 229.5 133.425781 229.5 C 134.023438 229.5 134.5 229.351562 134.851562 229.050781 C 135.199219 228.75 135.375 228.351562 135.375 227.851562 C 135.375 227.5 135.300781 227.226562 135.148438 227.023438 C 134.949219 226.773438 134.726562 226.601562 134.476562 226.5 C 134.175781 226.398438 133.800781 226.273438 133.351562 226.125 C 132.800781 225.925781 132.351562 225.75 132 225.601562 C 131.648438 225.449219 131.375 225.199219 131.175781 224.851562 C 130.925781 224.5 130.800781 224.050781 130.800781 223.5 C 130.800781 222.699219 131.074219 222.050781 131.625 221.550781 C 132.175781 221.050781 132.976562 220.800781 134.023438 220.800781 C 134.773438 220.800781 135.574219 220.976562 136.425781 221.324219 L 136.125 222.375 C 135.324219 222.023438 134.648438 221.851562 134.101562 221.851562 C 133.449219 221.851562 132.976562 222 132.675781 222.300781 C 132.324219 222.550781 132.148438 222.898438 132.148438 223.351562 C 132.148438 223.648438 132.226562 223.925781 132.375 224.175781 C 132.574219 224.375 132.800781 224.523438 133.050781 224.625 C 133.300781 224.726562 133.648438 224.851562 134.101562 225 C 134.648438 225.199219 135.101562 225.375 135.449219 225.523438 C 135.800781 225.726562 136.101562 226 136.351562 226.351562 C 136.601562 226.75 136.726562 227.25 136.726562 227.851562 C 136.726562 228.75 136.425781 229.425781 135.824219 229.875 C 135.226562 230.375 134.449219 230.625 133.5 230.625 C 132.898438 230.625 132.398438 230.550781 132 230.398438 C 131.550781 230.300781 131.074219 230.148438 130.574219 229.949219 L 130.949219 228.824219 "/>
<path style=" stroke:none;fill-rule:nonzero;fill:rgb(0%,0%,100%);fill-opacity:1;" d="M 181.351562 144.675781 L 184.5 149.773438 C 184.699219 150.125 184.976562 150.601562 185.324219 151.199219 C 185.675781 151.800781 185.851562 152.101562 185.851562 152.101562 L 185.851562 144.675781 L 187.125 144.675781 L 187.125 154.273438 L 185.773438 154.273438 L 182.398438 148.726562 C 182.148438 148.273438 181.898438 147.800781 181.648438 147.300781 C 181.351562 146.800781 181.175781 146.476562 181.125 146.324219 L 181.125 154.273438 L 179.851562 154.273438 L 179.851562 144.675781 L 181.351562 144.675781 "/>
<path style=" stroke:none;fill-rule:nonzero;fill:rgb(0%,0%,100%);fill-opacity:1;" d="M 179.699219 134.175781 L 181.050781 134.175781 L 181.050781 138.226562 L 185.925781 138.226562 L 185.925781 134.175781 L 187.199219 134.175781 L 187.199219 143.699219 L 185.925781 143.699219 L 185.925781 139.273438 L 181.050781 139.273438 L 181.050781 143.699219 L 179.699219 143.699219 L 179.699219 134.175781 "/>
<path style=" stroke:none;fill-rule:nonzero;fill:rgb(100%,0%,0%);fill-opacity:1;" d="M 199.425781 204.449219 C 199.425781 202.949219 199.800781 201.75 200.550781 200.851562 C 201.300781 200 202.375 199.574219 203.773438 199.574219 C 205.226562 199.574219 206.324219 200 207.074219 200.851562 C 207.824219 201.75 208.199219 202.949219 208.199219 204.449219 C 208.199219 206 207.824219 207.226562 207.074219 208.125 C 206.273438 209.023438 205.175781 209.476562 203.773438 209.476562 C 202.375 209.476562 201.300781 209.023438 200.550781 208.125 C 199.800781 207.273438 199.425781 206.050781 199.425781 204.449219 M 203.773438 208.351562 C 204.773438 208.351562 205.523438 208.023438 206.023438 207.375 C 206.574219 206.726562 206.851562 205.75 206.851562 204.449219 C 206.851562 203.199219 206.574219 202.273438 206.023438 201.675781 C 205.523438 201.023438 204.773438 200.699219 203.773438 200.699219 C 202.824219 200.699219 202.074219 201 201.523438 201.601562 C 201.023438 202.25 200.773438 203.199219 200.773438 204.449219 C 200.773438 205.75 201.023438 206.726562 201.523438 207.375 C 202.074219 208.023438 202.824219 208.351562 203.773438 208.351562 "/>
<path style=" stroke:none;fill-rule:nonzero;fill:rgb(0%,0%,100%);fill-opacity:1;" d="M 244.800781 121.199219 L 247.949219 126.300781 C 248.148438 126.648438 248.425781 127.125 248.773438 127.726562 C 249.125 128.324219 249.300781 128.625 249.300781 128.625 L 249.300781 121.199219 L 250.574219 121.199219 L 250.574219 130.800781 L 249.300781 130.800781 L 245.925781 125.25 C 245.625 124.800781 245.351562 124.324219 245.101562 123.824219 C 244.800781 123.324219 244.625 123 244.574219 122.851562 L 244.574219 130.800781 L 243.300781 130.800781 L 243.300781 121.199219 L 244.800781 121.199219 "/>
<path style=" stroke:none;fill-rule:nonzero;fill:rgb(0%,0%,100%);fill-opacity:1;" d="M 251.699219 121.199219 L 252.976562 121.199219 L 252.976562 125.25 L 257.925781 125.25 L 257.925781 121.199219 L 259.199219 121.199219 L 259.199219 130.800781 L 257.925781 130.800781 L 257.925781 126.375 L 252.976562 126.375 L 252.976562 130.800781 L 251.699219 130.800781 L 251.699219 121.199219 "/>
<path style=" stroke:none;fill-rule:nonzero;fill:rgb(0%,0%,100%);fill-opacity:1;" d="M 260.398438 130.425781 C 260.550781 130.023438 260.800781 129.726562 261.148438 129.523438 C 261.5 129.324219 261.949219 129.226562 262.5 129.226562 C 263.101562 129.226562 263.601562 129.375 264 129.675781 C 264.351562 130.023438 264.523438 130.523438 264.523438 131.175781 C 264.523438 131.773438 264.273438 132.375 263.773438 132.976562 C 263.324219 133.523438 262.625 134.148438 261.675781 134.851562 L 264.601562 134.851562 L 264.601562 135.601562 L 260.324219 135.601562 L 260.324219 135 C 261.125 134.449219 261.75 133.949219 262.199219 133.5 C 262.699219 133.101562 263.050781 132.699219 263.25 132.300781 C 263.5 131.949219 263.625 131.574219 263.625 131.175781 C 263.625 130.773438 263.523438 130.476562 263.324219 130.273438 C 263.125 130.023438 262.851562 129.898438 262.5 129.898438 C 262.148438 129.898438 261.851562 129.976562 261.601562 130.125 C 261.398438 130.273438 261.226562 130.5 261.074219 130.800781 L 260.398438 130.425781 "/>
<path style=" stroke:none;fill-rule:nonzero;fill:rgb(100%,0%,0%);fill-opacity:1;" d="M 340.949219 245.851562 C 340.949219 244.300781 341.351562 243.101562 342.148438 242.25 C 342.898438 241.398438 343.976562 240.976562 345.375 240.976562 C 346.773438 240.976562 347.875 241.398438 348.675781 242.25 C 349.425781 243.101562 349.800781 244.300781 349.800781 245.851562 C 349.800781 247.398438 349.398438 248.625 348.601562 249.523438 C 347.851562 250.375 346.773438 250.800781 345.375 250.800781 C 343.976562 250.800781 342.898438 250.375 342.148438 249.523438 C 341.351562 248.625 340.949219 247.398438 340.949219 245.851562 M 345.375 249.75 C 346.375 249.75 347.125 249.425781 347.625 248.773438 C 348.175781 248.074219 348.449219 247.101562 348.449219 245.851562 C 348.449219 244.601562 348.175781 243.648438 347.625 243 C 347.125 242.351562 346.375 242.023438 345.375 242.023438 C 344.425781 242.023438 343.675781 242.351562 343.125 243 C 342.574219 243.648438 342.300781 244.601562 342.300781 245.851562 C 342.300781 247.148438 342.574219 248.125 343.125 248.773438 C 343.675781 249.425781 344.425781 249.75 345.375 249.75 "/>
<path style=" stroke:none;fill-rule:nonzero;fill:rgb(100%,0%,0%);fill-opacity:1;" d="M 350.476562 241.050781 L 351.75 241.050781 L 351.75 245.175781 L 356.625 245.175781 L 356.625 241.050781 L 357.976562 241.050781 L 357.976562 250.648438 L 356.625 250.648438 L 356.625 246.226562 L 351.75 246.226562 L 351.75 250.648438 L 350.476562 250.648438 L 350.476562 241.050781 "/>
<path style=" stroke:none;fill-rule:nonzero;fill:rgb(100%,0%,0%);fill-opacity:1;" d="M 104.851562 115.351562 C 104.851562 113.851562 105.226562 112.648438 105.976562 111.75 C 106.773438 110.898438 107.875 110.476562 109.273438 110.476562 C 110.675781 110.476562 111.75 110.898438 112.5 111.75 C 113.300781 112.648438 113.699219 113.851562 113.699219 115.351562 C 113.699219 116.898438 113.300781 118.125 112.5 119.023438 C 111.75 119.925781 110.675781 120.375 109.273438 120.375 C 107.875 120.375 106.773438 119.925781 105.976562 119.023438 C 105.226562 118.175781 104.851562 116.949219 104.851562 115.351562 M 109.273438 119.25 C 110.226562 119.25 110.976562 118.925781 111.523438 118.273438 C 112.023438 117.625 112.273438 116.648438 112.273438 115.351562 C 112.273438 114.101562 112.023438 113.175781 111.523438 112.574219 C 110.976562 111.925781 110.226562 111.601562 109.273438 111.601562 C 108.273438 111.601562 107.523438 111.898438 107.023438 112.5 C 106.476562 113.148438 106.199219 114.101562 106.199219 115.351562 C 106.199219 116.648438 106.476562 117.625 107.023438 118.273438 C 107.523438 118.925781 108.273438 119.25 109.273438 119.25 "/>
<path style=" stroke:none;fill-rule:nonzero;fill:rgb(0%,0%,100%);fill-opacity:1;" d="M 104.773438 173.023438 L 107.851562 178.125 C 108.101562 178.425781 108.375 178.875 108.675781 179.476562 C 109.023438 180.125 109.199219 180.449219 109.199219 180.449219 L 109.199219 173.023438 L 110.476562 173.023438 L 110.476562 182.625 L 109.199219 182.625 L 105.824219 177.074219 C 105.574219 176.625 105.300781 176.148438 105 175.648438 C 104.75 175.148438 104.574219 174.824219 104.476562 174.675781 L 104.476562 182.625 L 103.199219 182.625 L 103.199219 173.023438 L 104.773438 173.023438 "/>
<path style=" stroke:none;fill-rule:nonzero;fill:rgb(100%,0%,0%);fill-opacity:1;" d="M 32.550781 167.699219 C 32.550781 166.148438 32.925781 164.949219 33.675781 164.101562 C 34.425781 163.25 35.5 162.824219 36.898438 162.824219 C 38.351562 162.824219 39.449219 163.25 40.199219 164.101562 C 40.949219 164.949219 41.324219 166.148438 41.324219 167.699219 C 41.324219 169.25 40.949219 170.476562 40.199219 171.375 C 39.398438 172.226562 38.300781 172.648438 36.898438 172.648438 C 35.5 172.648438 34.425781 172.226562 33.675781 171.375 C 32.925781 170.476562 32.550781 169.25 32.550781 167.699219 M 36.898438 171.601562 C 37.898438 171.601562 38.648438 171.273438 39.148438 170.625 C 39.699219 169.925781 39.976562 168.949219 39.976562 167.699219 C 39.976562 166.449219 39.699219 165.5 39.148438 164.851562 C 38.648438 164.199219 37.898438 163.875 36.898438 163.875 C 35.949219 163.875 35.199219 164.199219 34.648438 164.851562 C 34.148438 165.5 33.898438 166.449219 33.898438 167.699219 C 33.898438 169 34.148438 169.976562 34.648438 170.625 C 35.199219 171.273438 35.949219 171.601562 36.898438 171.601562 "/>
<path style=" stroke:none;fill-rule:nonzero;fill:rgb(100%,0%,0%);fill-opacity:1;" d="M 17.023438 221.101562 L 18.375 221.101562 L 18.375 225.226562 L 23.25 225.226562 L 23.25 221.101562 L 24.523438 221.101562 L 24.523438 230.699219 L 23.25 230.699219 L 23.25 226.273438 L 18.375 226.273438 L 18.375 230.699219 L 17.023438 230.699219 L 17.023438 221.101562 "/>
<path style=" stroke:none;fill-rule:nonzero;fill:rgb(100%,0%,0%);fill-opacity:1;" d="M 25.726562 225.898438 C 25.726562 224.351562 26.101562 223.148438 26.851562 222.300781 C 27.601562 221.449219 28.675781 221.023438 30.074219 221.023438 C 31.523438 221.023438 32.625 221.449219 33.375 222.300781 C 34.125 223.148438 34.5 224.351562 34.5 225.898438 C 34.5 227.449219 34.125 228.675781 33.375 229.574219 C 32.574219 230.425781 31.476562 230.851562 30.074219 230.851562 C 28.675781 230.851562 27.601562 230.425781 26.851562 229.574219 C 26.101562 228.675781 25.726562 227.449219 25.726562 225.898438 M 30.074219 229.800781 C 31.074219 229.800781 31.824219 229.476562 32.324219 228.824219 C 32.875 228.175781 33.148438 227.199219 33.148438 225.898438 C 33.148438 224.648438 32.875 223.699219 32.324219 223.050781 C 31.824219 222.398438 31.074219 222.074219 30.074219 222.074219 C 29.125 222.074219 28.375 222.398438 27.824219 223.050781 C 27.324219 223.699219 27.074219 224.648438 27.074219 225.898438 C 27.074219 227.199219 27.324219 228.175781 27.824219 228.824219 C 28.375 229.476562 29.125 229.800781 30.074219 229.800781 "/>
<path style=" stroke:none;fill-rule:nonzero;fill:rgb(0%,0%,0%);fill-opacity:1;" d="M 166.425781 196.351562 L 167.699219 196.351562 L 167.699219 200.398438 L 172.648438 200.398438 L 172.648438 196.351562 L 173.925781 196.351562 L 173.925781 205.875 L 172.648438 205.875 L 172.648438 201.449219 L 167.699219 201.449219 L 167.699219 205.875 L 166.425781 205.875 L 166.425781 196.351562 "/>
</g>
</svg>
