<?xml version="1.0" encoding="UTF-8"?>
<svg xmlns="http://www.w3.org/2000/svg" xmlns:xlink="http://www.w3.org/1999/xlink" width="375pt" height="375pt" viewBox="0 0 375 375" version="1.1">
<g id="surface266">
<rect x="0" y="0" width="375" height="375" style="fill:rgb(100%,100%,100%);fill-opacity:1;stroke:none;"/>
<path style="fill-rule:evenodd;fill:rgb(0%,0%,0%);fill-opacity:1;stroke-width:1;stroke-linecap:butt;stroke-linejoin:miter;stroke:rgb(0%,0%,0%);stroke-opacity:1;stroke-miterlimit:4;" d="M 273.5 326 L 253.5 311.401042 L 256.802083 307.697917 Z M 273.5 326 " transform="matrix(0.75,0,0,0.75,0,0)"/>
<path style="fill:none;stroke-width:2;stroke-linecap:butt;stroke-linejoin:miter;stroke:rgb(0%,0%,0%);stroke-opacity:1;stroke-miterlimit:4;" d="M 273.5 326 L 255.197917 342.5 " transform="matrix(0.75,0,0,0.75,0,0)"/>
<path style="fill:none;stroke-width:2;stroke-linecap:butt;stroke-linejoin:miter;stroke:rgb(0%,0%,0%);stroke-opacity:1;stroke-miterlimit:4;" d="M 255.197917 342.5 L 245.197917 339.302083 " transform="matrix(0.75,0,0,0.75,0,0)"/>
<path style="fill:none;stroke-width:2;stroke-linecap:butt;stroke-linejoin:miter;stroke:rgb(0%,0%,100%);stroke-opacity:1;stroke-miterlimit:4;" d="M 245.197917 339.302083 L 235.197917 336 " transform="matrix(0.75,0,0,0.75,0,0)"/>
<path style="fill:none;stroke-width:2;stroke-linecap:butt;stroke-linejoin:miter;stroke:rgb(0%,0%,100%);stroke-opacity:1;stroke-miterlimit:4;" d="M 228.302083 337.401042 L 220.098958 343.401042 " transform="matrix(0.75,0,0,0.75,0,0)"/>
<path style="fill:none;stroke-width:2;stroke-linecap:butt;stroke-linejoin:miter;stroke:rgb(0%,0%,0%);stroke-opacity:1;stroke-miterlimit:4;" d="M 220.098958 343.401042 L 211.802083 349.401042 " transform="matrix(0.75,0,0,0.75,0,0)"/>
<path style="fill:none;stroke-width:2;stroke-linecap:butt;stroke-linejoin:miter;stroke:rgb(0%,0%,0%);stroke-opacity:1;stroke-miterlimit:4;" d="M 211.802083 349.401042 L 191.901042 335 " transform="matrix(0.75,0,0,0.75,0,0)"/>
<path style="fill:none;stroke-width:2;stroke-linecap:butt;stroke-linejoin:miter;stroke:rgb(0%,0%,0%);stroke-opacity:1;stroke-miterlimit:4;" d="M 211.697917 343.302083 L 197.802083 333.197917 " transform="matrix(0.75,0,0,0.75,0,0)"/>
<path style="fill:none;stroke-width:2;stroke-linecap:butt;stroke-linejoin:miter;stroke:rgb(0%,0%,0%);stroke-opacity:1;stroke-miterlimit:4;" d="M 191.901042 335 L 195 325.401042 " transform="matrix(0.75,0,0,0.75,0,0)"/>
<path style="fill:none;stroke-width:2;stroke-linecap:butt;stroke-linejoin:miter;stroke:rgb(0%,0%,100%);stroke-opacity:1;stroke-miterlimit:4;" d="M 195 325.401042 L 198.098958 315.802083 " transform="matrix(0.75,0,0,0.75,0,0)"/>
<path style="fill:none;stroke-width:2;stroke-linecap:butt;stroke-linejoin:miter;stroke:rgb(0%,0%,100%);stroke-opacity:1;stroke-miterlimit:4;" d="M 202.901042 311.5 L 220.598958 311.5 " transform="matrix(0.75,0,0,0.75,0,0)"/>
<path style="fill:none;stroke-width:2;stroke-linecap:butt;stroke-linejoin:miter;stroke:rgb(0%,0%,100%);stroke-opacity:1;stroke-miterlimit:4;" d="M 205.598958 316.5 L 218 316.401042 " transform="matrix(0.75,0,0,0.75,0,0)"/>
<path style="fill:none;stroke-width:2;stroke-linecap:butt;stroke-linejoin:miter;stroke:rgb(0%,0%,0%);stroke-opacity:1;stroke-miterlimit:4;" d="M 273.5 326 L 288 345.901042 " transform="matrix(0.75,0,0,0.75,0,0)"/>
<path style="fill-rule:evenodd;fill:rgb(0%,0%,0%);fill-opacity:1;stroke-width:1;stroke-linecap:butt;stroke-linejoin:miter;stroke:rgb(0%,0%,0%);stroke-opacity:1;stroke-miterlimit:4;" d="M 288 345.901042 L 282.802083 370.098958 L 278.098958 368.598958 Z M 288 345.901042 " transform="matrix(0.75,0,0,0.75,0,0)"/>
<path style="fill:none;stroke-width:2;stroke-linecap:butt;stroke-linejoin:miter;stroke:rgb(0%,0%,0%);stroke-opacity:1;stroke-miterlimit:4;" d="M 282.197917 367.697917 L 288.5 374.697917 " transform="matrix(0.75,0,0,0.75,0,0)"/>
<path style="fill:none;stroke-width:2;stroke-linecap:butt;stroke-linejoin:miter;stroke:rgb(100%,0%,0%);stroke-opacity:1;stroke-miterlimit:4;" d="M 288.5 374.697917 L 294.802083 381.598958 " transform="matrix(0.75,0,0,0.75,0,0)"/>
<path style="fill:none;stroke-width:2;stroke-linecap:butt;stroke-linejoin:miter;stroke:rgb(0%,0%,0%);stroke-opacity:1;stroke-miterlimit:4;" d="M 278.598958 371 L 284.901042 378 " transform="matrix(0.75,0,0,0.75,0,0)"/>
<path style="fill:none;stroke-width:2;stroke-linecap:butt;stroke-linejoin:miter;stroke:rgb(100%,0%,0%);stroke-opacity:1;stroke-miterlimit:4;" d="M 284.901042 378 L 291.197917 384.901042 " transform="matrix(0.75,0,0,0.75,0,0)"/>
<path style="fill:none;stroke-width:2;stroke-linecap:butt;stroke-linejoin:miter;stroke:rgb(0%,0%,0%);stroke-opacity:1;stroke-miterlimit:4;" d="M 280.401042 369.302083 L 270.401042 371.5 " transform="matrix(0.75,0,0,0.75,0,0)"/>
<path style="fill:none;stroke-width:2;stroke-linecap:butt;stroke-linejoin:miter;stroke:rgb(100%,0%,0%);stroke-opacity:1;stroke-miterlimit:4;" d="M 270.401042 371.5 L 260.302083 373.598958 " transform="matrix(0.75,0,0,0.75,0,0)"/>
<path style="fill:none;stroke-width:2;stroke-linecap:butt;stroke-linejoin:miter;stroke:rgb(0%,0%,0%);stroke-opacity:1;stroke-miterlimit:4;" d="M 288 345.901042 L 298 342.598958 " transform="matrix(0.75,0,0,0.75,0,0)"/>
<path style="fill:none;stroke-width:2;stroke-linecap:butt;stroke-linejoin:miter;stroke:rgb(0%,0%,100%);stroke-opacity:1;stroke-miterlimit:4;" d="M 298 342.598958 L 308 339.401042 " transform="matrix(0.75,0,0,0.75,0,0)"/>
<path style="fill:none;stroke-width:2;stroke-linecap:butt;stroke-linejoin:miter;stroke:rgb(0%,0%,100%);stroke-opacity:1;stroke-miterlimit:4;" d="M 314.901042 338.197917 L 325.5 338.197917 " transform="matrix(0.75,0,0,0.75,0,0)"/>
<path style="fill:none;stroke-width:2;stroke-linecap:butt;stroke-linejoin:miter;stroke:rgb(0%,0%,0%);stroke-opacity:1;stroke-miterlimit:4;" d="M 325.5 338.197917 L 336 338.197917 " transform="matrix(0.75,0,0,0.75,0,0)"/>
<path style="fill:none;stroke-width:2;stroke-linecap:butt;stroke-linejoin:miter;stroke:rgb(0%,0%,0%);stroke-opacity:1;stroke-miterlimit:4;" d="M 337.802083 336.401042 L 344.5 343.098958 " transform="matrix(0.75,0,0,0.75,0,0)"/>
<path style="fill:none;stroke-width:2;stroke-linecap:butt;stroke-linejoin:miter;stroke:rgb(100%,0%,0%);stroke-opacity:1;stroke-miterlimit:4;" d="M 344.5 343.098958 L 351.197917 349.802083 " transform="matrix(0.75,0,0,0.75,0,0)"/>
<path style="fill:none;stroke-width:2;stroke-linecap:butt;stroke-linejoin:miter;stroke:rgb(0%,0%,0%);stroke-opacity:1;stroke-miterlimit:4;" d="M 334.302083 339.901042 L 341 346.598958 " transform="matrix(0.75,0,0,0.75,0,0)"/>
<path style="fill:none;stroke-width:2;stroke-linecap:butt;stroke-linejoin:miter;stroke:rgb(100%,0%,0%);stroke-opacity:1;stroke-miterlimit:4;" d="M 341 346.598958 L 347.697917 353.302083 " transform="matrix(0.75,0,0,0.75,0,0)"/>
<path style="fill:none;stroke-width:2;stroke-linecap:butt;stroke-linejoin:miter;stroke:rgb(0%,0%,0%);stroke-opacity:1;stroke-miterlimit:4;" d="M 336 338.197917 L 336 313.598958 " transform="matrix(0.75,0,0,0.75,0,0)"/>
<path style="fill:none;stroke-width:2;stroke-linecap:butt;stroke-linejoin:miter;stroke:rgb(0%,0%,0%);stroke-opacity:1;stroke-miterlimit:4;" d="M 336 313.598958 L 311.401042 313.598958 " transform="matrix(0.75,0,0,0.75,0,0)"/>
<path style="fill:none;stroke-width:2;stroke-linecap:butt;stroke-linejoin:miter;stroke:rgb(0%,0%,0%);stroke-opacity:1;stroke-miterlimit:4;" d="M 311.401042 313.598958 L 301.197917 310.302083 " transform="matrix(0.75,0,0,0.75,0,0)"/>
<path style="fill:none;stroke-width:2;stroke-linecap:butt;stroke-linejoin:miter;stroke:rgb(80%,80%,0%);stroke-opacity:1;stroke-miterlimit:4;" d="M 301.197917 310.302083 L 291 307 " transform="matrix(0.75,0,0,0.75,0,0)"/>
<path style="fill:none;stroke-width:2;stroke-linecap:butt;stroke-linejoin:miter;stroke:rgb(80%,80%,0%);stroke-opacity:1;stroke-miterlimit:4;" d="M 287.598958 300.697917 L 290.598958 293.802083 " transform="matrix(0.75,0,0,0.75,0,0)"/>
<path style="fill:none;stroke-width:2;stroke-linecap:butt;stroke-linejoin:miter;stroke:rgb(100%,0%,0%);stroke-opacity:1;stroke-miterlimit:4;" d="M 290.598958 293.802083 L 293.697917 287 " transform="matrix(0.75,0,0,0.75,0,0)"/>
<path style="fill:none;stroke-width:2;stroke-linecap:butt;stroke-linejoin:miter;stroke:rgb(80%,80%,0%);stroke-opacity:1;stroke-miterlimit:4;" d="M 292.098958 302.697917 L 295.098958 295.802083 " transform="matrix(0.75,0,0,0.75,0,0)"/>
<path style="fill:none;stroke-width:2;stroke-linecap:butt;stroke-linejoin:miter;stroke:rgb(100%,0%,0%);stroke-opacity:1;stroke-miterlimit:4;" d="M 295.098958 295.802083 L 298.197917 288.901042 " transform="matrix(0.75,0,0,0.75,0,0)"/>
<path style="fill:none;stroke-width:2;stroke-linecap:butt;stroke-linejoin:miter;stroke:rgb(80%,80%,0%);stroke-opacity:1;stroke-miterlimit:4;" d="M 283.598958 306.401042 L 276.5 302.302083 " transform="matrix(0.75,0,0,0.75,0,0)"/>
<path style="fill:none;stroke-width:2;stroke-linecap:butt;stroke-linejoin:miter;stroke:rgb(100%,0%,0%);stroke-opacity:1;stroke-miterlimit:4;" d="M 276.5 302.302083 L 269.401042 298.197917 " transform="matrix(0.75,0,0,0.75,0,0)"/>
<path style="fill:none;stroke-width:2;stroke-linecap:butt;stroke-linejoin:miter;stroke:rgb(80%,80%,0%);stroke-opacity:1;stroke-miterlimit:4;" d="M 286.098958 302.098958 L 279 298 " transform="matrix(0.75,0,0,0.75,0,0)"/>
<path style="fill:none;stroke-width:2;stroke-linecap:butt;stroke-linejoin:miter;stroke:rgb(100%,0%,0%);stroke-opacity:1;stroke-miterlimit:4;" d="M 279 298 L 271.802083 293.901042 " transform="matrix(0.75,0,0,0.75,0,0)"/>
<path style="fill:none;stroke-width:2;stroke-linecap:butt;stroke-linejoin:miter;stroke:rgb(0%,0%,0%);stroke-opacity:1;stroke-miterlimit:4;" d="M 218.197917 160.302083 L 208.802083 164.697917 " transform="matrix(0.75,0,0,0.75,0,0)"/>
<path style="fill:none;stroke-width:2;stroke-linecap:butt;stroke-linejoin:miter;stroke:rgb(0%,0%,100%);stroke-opacity:1;stroke-miterlimit:4;" d="M 208.802083 164.697917 L 199.302083 169.098958 " transform="matrix(0.75,0,0,0.75,0,0)"/>
<path style="fill:none;stroke-width:2;stroke-linecap:butt;stroke-linejoin:miter;stroke:rgb(0%,0%,100%);stroke-opacity:1;stroke-miterlimit:4;" d="M 192.401042 168.802083 L 183.401042 163.802083 " transform="matrix(0.75,0,0,0.75,0,0)"/>
<path style="fill:none;stroke-width:2;stroke-linecap:butt;stroke-linejoin:miter;stroke:rgb(0%,0%,0%);stroke-opacity:1;stroke-miterlimit:4;" d="M 183.401042 163.802083 L 174.302083 158.697917 " transform="matrix(0.75,0,0,0.75,0,0)"/>
<path style="fill:none;stroke-width:2;stroke-linecap:butt;stroke-linejoin:miter;stroke:rgb(0%,0%,0%);stroke-opacity:1;stroke-miterlimit:4;" d="M 174.302083 158.697917 L 173.098958 148.697917 " transform="matrix(0.75,0,0,0.75,0,0)"/>
<path style="fill:none;stroke-width:2;stroke-linecap:butt;stroke-linejoin:miter;stroke:rgb(0%,0%,100%);stroke-opacity:1;stroke-miterlimit:4;" d="M 173.098958 148.697917 L 171.901042 138.598958 " transform="matrix(0.75,0,0,0.75,0,0)"/>
<path style="fill:none;stroke-width:2;stroke-linecap:butt;stroke-linejoin:miter;stroke:rgb(0%,0%,0%);stroke-opacity:1;stroke-miterlimit:4;" d="M 174.302083 158.697917 L 156.302083 175.5 " transform="matrix(0.75,0,0,0.75,0,0)"/>
<path style="fill:none;stroke-width:2;stroke-linecap:butt;stroke-linejoin:miter;stroke:rgb(0%,0%,0%);stroke-opacity:1;stroke-miterlimit:4;" d="M 175 164.901042 L 162.302083 176.598958 " transform="matrix(0.75,0,0,0.75,0,0)"/>
<path style="fill:none;stroke-width:2;stroke-linecap:butt;stroke-linejoin:miter;stroke:rgb(0%,0%,0%);stroke-opacity:1;stroke-miterlimit:4;" d="M 156.302083 175.5 L 145.901042 173.5 " transform="matrix(0.75,0,0,0.75,0,0)"/>
<path style="fill:none;stroke-width:2;stroke-linecap:butt;stroke-linejoin:miter;stroke:rgb(0%,0%,100%);stroke-opacity:1;stroke-miterlimit:4;" d="M 145.901042 173.5 L 135.598958 171.401042 " transform="matrix(0.75,0,0,0.75,0,0)"/>
<path style="fill:none;stroke-width:2;stroke-linecap:butt;stroke-linejoin:miter;stroke:rgb(0%,0%,100%);stroke-opacity:1;stroke-miterlimit:4;" d="M 128.598958 174.697917 L 122.302083 182 " transform="matrix(0.75,0,0,0.75,0,0)"/>
<path style="fill:none;stroke-width:2;stroke-linecap:butt;stroke-linejoin:miter;stroke:rgb(0%,0%,0%);stroke-opacity:1;stroke-miterlimit:4;" d="M 122.302083 182 L 115.901042 189.302083 " transform="matrix(0.75,0,0,0.75,0,0)"/>
<path style="fill:none;stroke-width:2;stroke-linecap:butt;stroke-linejoin:miter;stroke:rgb(0%,0%,0%);stroke-opacity:1;stroke-miterlimit:4;" d="M 118.197917 188.5 L 121.5 198 " transform="matrix(0.75,0,0,0.75,0,0)"/>
<path style="fill:none;stroke-width:2;stroke-linecap:butt;stroke-linejoin:miter;stroke:rgb(100%,0%,0%);stroke-opacity:1;stroke-miterlimit:4;" d="M 121.5 198 L 124.697917 207.5 " transform="matrix(0.75,0,0,0.75,0,0)"/>
<path style="fill:none;stroke-width:2;stroke-linecap:butt;stroke-linejoin:miter;stroke:rgb(0%,0%,0%);stroke-opacity:1;stroke-miterlimit:4;" d="M 113.598958 190.098958 L 116.802083 199.598958 " transform="matrix(0.75,0,0,0.75,0,0)"/>
<path style="fill:none;stroke-width:2;stroke-linecap:butt;stroke-linejoin:miter;stroke:rgb(100%,0%,0%);stroke-opacity:1;stroke-miterlimit:4;" d="M 116.802083 199.598958 L 120.098958 209.098958 " transform="matrix(0.75,0,0,0.75,0,0)"/>
<path style="fill:none;stroke-width:2;stroke-linecap:butt;stroke-linejoin:miter;stroke:rgb(0%,0%,0%);stroke-opacity:1;stroke-miterlimit:4;" d="M 115.901042 189.302083 L 105.5 187.302083 " transform="matrix(0.75,0,0,0.75,0,0)"/>
<path style="fill:none;stroke-width:2;stroke-linecap:butt;stroke-linejoin:miter;stroke:rgb(0%,0%,100%);stroke-opacity:1;stroke-miterlimit:4;" d="M 105.5 187.302083 L 95.197917 185.302083 " transform="matrix(0.75,0,0,0.75,0,0)"/>
<path style="fill:none;stroke-width:2;stroke-linecap:butt;stroke-linejoin:miter;stroke:rgb(0%,0%,100%);stroke-opacity:1;stroke-miterlimit:4;" d="M 88.302083 188.598958 L 81.901042 195.901042 " transform="matrix(0.75,0,0,0.75,0,0)"/>
<path style="fill:none;stroke-width:2;stroke-linecap:butt;stroke-linejoin:miter;stroke:rgb(0%,0%,0%);stroke-opacity:1;stroke-miterlimit:4;" d="M 81.901042 195.901042 L 75.5 203.197917 " transform="matrix(0.75,0,0,0.75,0,0)"/>
<path style="fill:none;stroke-width:2;stroke-linecap:butt;stroke-linejoin:miter;stroke:rgb(0%,0%,0%);stroke-opacity:1;stroke-miterlimit:4;" d="M 75.5 203.197917 L 51.401042 198.401042 " transform="matrix(0.75,0,0,0.75,0,0)"/>
<path style="fill:none;stroke-width:2;stroke-linecap:butt;stroke-linejoin:miter;stroke:rgb(0%,0%,0%);stroke-opacity:1;stroke-miterlimit:4;" d="M 51.401042 198.401042 L 45 205.697917 " transform="matrix(0.75,0,0,0.75,0,0)"/>
<path style="fill:none;stroke-width:2;stroke-linecap:butt;stroke-linejoin:miter;stroke:rgb(0%,0%,100%);stroke-opacity:1;stroke-miterlimit:4;" d="M 45 205.697917 L 38.598958 213 " transform="matrix(0.75,0,0,0.75,0,0)"/>
<path style="fill:none;stroke-width:2;stroke-linecap:butt;stroke-linejoin:miter;stroke:rgb(0%,0%,0%);stroke-opacity:1;stroke-miterlimit:4;" d="M 156.302083 175.5 L 166.697917 197.901042 " transform="matrix(0.75,0,0,0.75,0,0)"/>
<path style="fill:none;stroke-width:2;stroke-linecap:butt;stroke-linejoin:miter;stroke:rgb(0%,0%,0%);stroke-opacity:1;stroke-miterlimit:4;" d="M 166.697917 197.901042 L 177.197917 196.598958 " transform="matrix(0.75,0,0,0.75,0,0)"/>
<path style="fill:none;stroke-width:2;stroke-linecap:butt;stroke-linejoin:miter;stroke:rgb(0%,0%,100%);stroke-opacity:1;stroke-miterlimit:4;" d="M 177.197917 196.598958 L 187.697917 195.302083 " transform="matrix(0.75,0,0,0.75,0,0)"/>
<path style="fill:none;stroke-width:2;stroke-linecap:butt;stroke-linejoin:miter;stroke:rgb(0%,0%,0%);stroke-opacity:1;stroke-miterlimit:4;" d="M 169.197917 192.598958 L 176.598958 191.697917 " transform="matrix(0.75,0,0,0.75,0,0)"/>
<path style="fill:none;stroke-width:2;stroke-linecap:butt;stroke-linejoin:miter;stroke:rgb(0%,0%,100%);stroke-opacity:1;stroke-miterlimit:4;" d="M 176.598958 191.697917 L 183.901042 190.802083 " transform="matrix(0.75,0,0,0.75,0,0)"/>
<path style="fill:none;stroke-width:2;stroke-linecap:butt;stroke-linejoin:miter;stroke:rgb(0%,0%,100%);stroke-opacity:1;stroke-miterlimit:4;" d="M 194.598958 198.598958 L 201.197917 205.802083 " transform="matrix(0.75,0,0,0.75,0,0)"/>
<path style="fill:none;stroke-width:2;stroke-linecap:butt;stroke-linejoin:miter;stroke:rgb(0%,0%,0%);stroke-opacity:1;stroke-miterlimit:4;" d="M 201.197917 205.802083 L 207.901042 212.901042 " transform="matrix(0.75,0,0,0.75,0,0)"/>
<path style="fill:none;stroke-width:2;stroke-linecap:butt;stroke-linejoin:miter;stroke:rgb(0%,0%,0%);stroke-opacity:1;stroke-miterlimit:4;" d="M 207.901042 212.901042 L 231.901042 207.401042 " transform="matrix(0.75,0,0,0.75,0,0)"/>
<path style="fill:none;stroke-width:2;stroke-linecap:butt;stroke-linejoin:miter;stroke:rgb(0%,0%,0%);stroke-opacity:1;stroke-miterlimit:4;" d="M 231.901042 207.401042 L 248.697917 225.5 " transform="matrix(0.75,0,0,0.75,0,0)"/>
<path style="fill:none;stroke-width:2;stroke-linecap:butt;stroke-linejoin:miter;stroke:rgb(0%,0%,0%);stroke-opacity:1;stroke-miterlimit:4;" d="M 238 206.802083 L 249.802083 219.401042 " transform="matrix(0.75,0,0,0.75,0,0)"/>
<path style="fill:none;stroke-width:2;stroke-linecap:butt;stroke-linejoin:miter;stroke:rgb(0%,0%,0%);stroke-opacity:1;stroke-miterlimit:4;" d="M 248.697917 225.5 L 241.401042 249 " transform="matrix(0.75,0,0,0.75,0,0)"/>
<path style="fill:none;stroke-width:2;stroke-linecap:butt;stroke-linejoin:miter;stroke:rgb(0%,0%,0%);stroke-opacity:1;stroke-miterlimit:4;" d="M 242 251.401042 L 232 253.697917 " transform="matrix(0.75,0,0,0.75,0,0)"/>
<path style="fill:none;stroke-width:2;stroke-linecap:butt;stroke-linejoin:miter;stroke:rgb(100%,0%,0%);stroke-opacity:1;stroke-miterlimit:4;" d="M 232 253.697917 L 222 256 " transform="matrix(0.75,0,0,0.75,0,0)"/>
<path style="fill:none;stroke-width:2;stroke-linecap:butt;stroke-linejoin:miter;stroke:rgb(0%,0%,0%);stroke-opacity:1;stroke-miterlimit:4;" d="M 240.901042 246.598958 L 230.901042 248.901042 " transform="matrix(0.75,0,0,0.75,0,0)"/>
<path style="fill:none;stroke-width:2;stroke-linecap:butt;stroke-linejoin:miter;stroke:rgb(100%,0%,0%);stroke-opacity:1;stroke-miterlimit:4;" d="M 230.901042 248.901042 L 220.901042 251.197917 " transform="matrix(0.75,0,0,0.75,0,0)"/>
<path style="fill:none;stroke-width:2;stroke-linecap:butt;stroke-linejoin:miter;stroke:rgb(0%,0%,0%);stroke-opacity:1;stroke-miterlimit:4;" d="M 241.401042 249 L 247.802083 255.901042 " transform="matrix(0.75,0,0,0.75,0,0)"/>
<path style="fill:none;stroke-width:2;stroke-linecap:butt;stroke-linejoin:miter;stroke:rgb(100%,0%,0%);stroke-opacity:1;stroke-miterlimit:4;" d="M 247.802083 255.901042 L 254.197917 262.802083 " transform="matrix(0.75,0,0,0.75,0,0)"/>
<path style="fill:none;stroke-width:2;stroke-linecap:butt;stroke-linejoin:miter;stroke:rgb(0%,0%,0%);stroke-opacity:1;stroke-miterlimit:4;" d="M 248.697917 225.5 L 259 223.098958 " transform="matrix(0.75,0,0,0.75,0,0)"/>
<path style="fill:none;stroke-width:2;stroke-linecap:butt;stroke-linejoin:miter;stroke:rgb(0%,0%,100%);stroke-opacity:1;stroke-miterlimit:4;" d="M 259 223.098958 L 269.197917 220.802083 " transform="matrix(0.75,0,0,0.75,0,0)"/>
<path style="fill:none;stroke-width:2;stroke-linecap:butt;stroke-linejoin:miter;stroke:rgb(0%,0%,100%);stroke-opacity:1;stroke-miterlimit:4;" d="M 276.197917 221 L 286.197917 224.098958 " transform="matrix(0.75,0,0,0.75,0,0)"/>
<path style="fill:none;stroke-width:2;stroke-linecap:butt;stroke-linejoin:miter;stroke:rgb(0%,0%,0%);stroke-opacity:1;stroke-miterlimit:4;" d="M 286.197917 224.098958 L 296.197917 227.197917 " transform="matrix(0.75,0,0,0.75,0,0)"/>
<path style="fill:none;stroke-width:2;stroke-linecap:butt;stroke-linejoin:miter;stroke:rgb(0%,0%,0%);stroke-opacity:1;stroke-miterlimit:4;" d="M 298.401042 226.098958 L 303 234.802083 " transform="matrix(0.75,0,0,0.75,0,0)"/>
<path style="fill:none;stroke-width:2;stroke-linecap:butt;stroke-linejoin:miter;stroke:rgb(100%,0%,0%);stroke-opacity:1;stroke-miterlimit:4;" d="M 303 234.802083 L 307.697917 243.5 " transform="matrix(0.75,0,0,0.75,0,0)"/>
<path style="fill:none;stroke-width:2;stroke-linecap:butt;stroke-linejoin:miter;stroke:rgb(0%,0%,0%);stroke-opacity:1;stroke-miterlimit:4;" d="M 294.098958 228.401042 L 298.697917 237.098958 " transform="matrix(0.75,0,0,0.75,0,0)"/>
<path style="fill:none;stroke-width:2;stroke-linecap:butt;stroke-linejoin:miter;stroke:rgb(100%,0%,0%);stroke-opacity:1;stroke-miterlimit:4;" d="M 298.697917 237.098958 L 303.302083 245.802083 " transform="matrix(0.75,0,0,0.75,0,0)"/>
<path style="fill:none;stroke-width:2;stroke-linecap:butt;stroke-linejoin:miter;stroke:rgb(0%,0%,0%);stroke-opacity:1;stroke-miterlimit:4;" d="M 296.197917 227.197917 L 303.5 203.697917 " transform="matrix(0.75,0,0,0.75,0,0)"/>
<path style="fill:none;stroke-width:1;stroke-linecap:butt;stroke-linejoin:miter;stroke:rgb(0%,0%,0%);stroke-opacity:1;stroke-miterlimit:4;" d="M 309.697917 201.302083 L 308.901042 199.802083 " transform="matrix(0.75,0,0,0.75,0,0)"/>
<path style="fill:none;stroke-width:1;stroke-linecap:butt;stroke-linejoin:miter;stroke:rgb(0%,0%,100%);stroke-opacity:1;stroke-miterlimit:4;" d="M 315.901042 198.901042 L 314.401042 196 " transform="matrix(0.75,0,0,0.75,0,0)"/>
<path style="fill:none;stroke-width:1;stroke-linecap:butt;stroke-linejoin:miter;stroke:rgb(0%,0%,100%);stroke-opacity:1;stroke-miterlimit:4;" d="M 322.098958 196.598958 L 319.802083 192.197917 " transform="matrix(0.75,0,0,0.75,0,0)"/>
<path style="fill:none;stroke-width:2;stroke-linecap:butt;stroke-linejoin:miter;stroke:rgb(0%,0%,100%);stroke-opacity:1;stroke-miterlimit:4;" d="M 328.697917 194.302083 L 337.401042 199.802083 " transform="matrix(0.75,0,0,0.75,0,0)"/>
<path style="fill:none;stroke-width:2;stroke-linecap:butt;stroke-linejoin:miter;stroke:rgb(0%,0%,0%);stroke-opacity:1;stroke-miterlimit:4;" d="M 337.401042 199.802083 L 346.098958 205.197917 " transform="matrix(0.75,0,0,0.75,0,0)"/>
<path style="fill:none;stroke-width:2;stroke-linecap:butt;stroke-linejoin:miter;stroke:rgb(0%,0%,0%);stroke-opacity:1;stroke-miterlimit:4;" d="M 348.598958 205.302083 L 348.197917 215.5 " transform="matrix(0.75,0,0,0.75,0,0)"/>
<path style="fill:none;stroke-width:2;stroke-linecap:butt;stroke-linejoin:miter;stroke:rgb(100%,0%,0%);stroke-opacity:1;stroke-miterlimit:4;" d="M 348.197917 215.5 L 347.901042 225.598958 " transform="matrix(0.75,0,0,0.75,0,0)"/>
<path style="fill:none;stroke-width:2;stroke-linecap:butt;stroke-linejoin:miter;stroke:rgb(0%,0%,0%);stroke-opacity:1;stroke-miterlimit:4;" d="M 343.697917 205.098958 L 343.302083 215.302083 " transform="matrix(0.75,0,0,0.75,0,0)"/>
<path style="fill:none;stroke-width:2;stroke-linecap:butt;stroke-linejoin:miter;stroke:rgb(100%,0%,0%);stroke-opacity:1;stroke-miterlimit:4;" d="M 343.302083 215.302083 L 342.901042 225.401042 " transform="matrix(0.75,0,0,0.75,0,0)"/>
<path style="fill:none;stroke-width:2;stroke-linecap:butt;stroke-linejoin:miter;stroke:rgb(0%,0%,0%);stroke-opacity:1;stroke-miterlimit:4;" d="M 346.098958 205.197917 L 367.901042 193.697917 " transform="matrix(0.75,0,0,0.75,0,0)"/>
<path style="fill:none;stroke-width:2;stroke-linecap:butt;stroke-linejoin:miter;stroke:rgb(0%,0%,0%);stroke-opacity:1;stroke-miterlimit:4;" d="M 367.901042 193.697917 L 376.598958 199.098958 " transform="matrix(0.75,0,0,0.75,0,0)"/>
<path style="fill:none;stroke-width:2;stroke-linecap:butt;stroke-linejoin:miter;stroke:rgb(0%,0%,100%);stroke-opacity:1;stroke-miterlimit:4;" d="M 376.598958 199.098958 L 385.302083 204.598958 " transform="matrix(0.75,0,0,0.75,0,0)"/>
<path style="fill:none;stroke-width:2;stroke-linecap:butt;stroke-linejoin:miter;stroke:rgb(0%,0%,0%);stroke-opacity:1;stroke-miterlimit:4;" d="M 367.901042 199.5 L 374 203.302083 " transform="matrix(0.75,0,0,0.75,0,0)"/>
<path style="fill:none;stroke-width:2;stroke-linecap:butt;stroke-linejoin:miter;stroke:rgb(0%,0%,100%);stroke-opacity:1;stroke-miterlimit:4;" d="M 374 203.302083 L 380.098958 207.098958 " transform="matrix(0.75,0,0,0.75,0,0)"/>
<path style="fill:none;stroke-width:2;stroke-linecap:butt;stroke-linejoin:miter;stroke:rgb(0%,0%,100%);stroke-opacity:1;stroke-miterlimit:4;" d="M 392.197917 204.901042 L 399.401042 201.197917 " transform="matrix(0.75,0,0,0.75,0,0)"/>
<path style="fill:none;stroke-width:2;stroke-linecap:butt;stroke-linejoin:miter;stroke:rgb(100%,0%,0%);stroke-opacity:1;stroke-miterlimit:4;" d="M 399.401042 201.197917 L 406.5 197.401042 " transform="matrix(0.75,0,0,0.75,0,0)"/>
<path style="fill:none;stroke-width:2;stroke-linecap:butt;stroke-linejoin:miter;stroke:rgb(100%,0%,0%);stroke-opacity:1;stroke-miterlimit:4;" d="M 414.598958 197.802083 L 423 203 " transform="matrix(0.75,0,0,0.75,0,0)"/>
<path style="fill:none;stroke-width:2;stroke-linecap:butt;stroke-linejoin:miter;stroke:rgb(0%,0%,0%);stroke-opacity:1;stroke-miterlimit:4;" d="M 423 203 L 431.401042 208.302083 " transform="matrix(0.75,0,0,0.75,0,0)"/>
<path style="fill:none;stroke-width:2;stroke-linecap:butt;stroke-linejoin:miter;stroke:rgb(0%,0%,0%);stroke-opacity:1;stroke-miterlimit:4;" d="M 431.401042 208.302083 L 444.5 187.5 " transform="matrix(0.75,0,0,0.75,0,0)"/>
<path style="fill:none;stroke-width:2;stroke-linecap:butt;stroke-linejoin:miter;stroke:rgb(0%,0%,0%);stroke-opacity:1;stroke-miterlimit:4;" d="M 431.401042 208.302083 L 418.302083 229.197917 " transform="matrix(0.75,0,0,0.75,0,0)"/>
<path style="fill:none;stroke-width:2;stroke-linecap:butt;stroke-linejoin:miter;stroke:rgb(0%,0%,0%);stroke-opacity:1;stroke-miterlimit:4;" d="M 431.401042 208.302083 L 452.302083 221.401042 " transform="matrix(0.75,0,0,0.75,0,0)"/>
<path style="fill:none;stroke-width:2;stroke-linecap:butt;stroke-linejoin:miter;stroke:rgb(0%,0%,0%);stroke-opacity:1;stroke-miterlimit:4;" d="M 451.098958 219.197917 L 460 214.5 " transform="matrix(0.75,0,0,0.75,0,0)"/>
<path style="fill:none;stroke-width:2;stroke-linecap:butt;stroke-linejoin:miter;stroke:rgb(100%,0%,0%);stroke-opacity:1;stroke-miterlimit:4;" d="M 460 214.5 L 468.901042 209.802083 " transform="matrix(0.75,0,0,0.75,0,0)"/>
<path style="fill:none;stroke-width:2;stroke-linecap:butt;stroke-linejoin:miter;stroke:rgb(0%,0%,0%);stroke-opacity:1;stroke-miterlimit:4;" d="M 453.5 223.598958 L 462.302083 218.901042 " transform="matrix(0.75,0,0,0.75,0,0)"/>
<path style="fill:none;stroke-width:2;stroke-linecap:butt;stroke-linejoin:miter;stroke:rgb(100%,0%,0%);stroke-opacity:1;stroke-miterlimit:4;" d="M 462.302083 218.901042 L 471.197917 214.197917 " transform="matrix(0.75,0,0,0.75,0,0)"/>
<path style="fill:none;stroke-width:2;stroke-linecap:butt;stroke-linejoin:miter;stroke:rgb(0%,0%,0%);stroke-opacity:1;stroke-miterlimit:4;" d="M 452.302083 221.401042 L 451.901042 231.598958 " transform="matrix(0.75,0,0,0.75,0,0)"/>
<path style="fill:none;stroke-width:2;stroke-linecap:butt;stroke-linejoin:miter;stroke:rgb(100%,0%,0%);stroke-opacity:1;stroke-miterlimit:4;" d="M 451.901042 231.598958 L 451.598958 241.697917 " transform="matrix(0.75,0,0,0.75,0,0)"/>
<path style="fill:none;stroke-width:2;stroke-linecap:butt;stroke-linejoin:miter;stroke:rgb(0%,0%,0%);stroke-opacity:1;stroke-miterlimit:4;" d="M 367.901042 193.697917 L 368.802083 169.098958 " transform="matrix(0.75,0,0,0.75,0,0)"/>
<path style="fill:none;stroke-width:2;stroke-linecap:butt;stroke-linejoin:miter;stroke:rgb(0%,0%,0%);stroke-opacity:1;stroke-miterlimit:4;" d="M 368.802083 169.098958 L 360.802083 162.802083 " transform="matrix(0.75,0,0,0.75,0,0)"/>
<path style="fill:none;stroke-width:2;stroke-linecap:butt;stroke-linejoin:miter;stroke:rgb(0%,0%,100%);stroke-opacity:1;stroke-miterlimit:4;" d="M 360.802083 162.802083 L 352.901042 156.598958 " transform="matrix(0.75,0,0,0.75,0,0)"/>
<path style="fill:none;stroke-width:2;stroke-linecap:butt;stroke-linejoin:miter;stroke:rgb(0%,0%,0%);stroke-opacity:1;stroke-miterlimit:4;" d="M 369.5 163.302083 L 363.901042 158.901042 " transform="matrix(0.75,0,0,0.75,0,0)"/>
<path style="fill:none;stroke-width:2;stroke-linecap:butt;stroke-linejoin:miter;stroke:rgb(0%,0%,100%);stroke-opacity:1;stroke-miterlimit:4;" d="M 363.901042 158.901042 L 358.302083 154.598958 " transform="matrix(0.75,0,0,0.75,0,0)"/>
<path style="fill:none;stroke-width:2;stroke-linecap:butt;stroke-linejoin:miter;stroke:rgb(0%,0%,100%);stroke-opacity:1;stroke-miterlimit:4;" d="M 351 149.598958 L 353.598958 142.401042 " transform="matrix(0.75,0,0,0.75,0,0)"/>
<path style="fill:none;stroke-width:2;stroke-linecap:butt;stroke-linejoin:miter;stroke:rgb(80%,80%,0%);stroke-opacity:1;stroke-miterlimit:4;" d="M 353.598958 142.401042 L 356.197917 135.197917 " transform="matrix(0.75,0,0,0.75,0,0)"/>
<path style="fill:none;stroke-width:2;stroke-linecap:butt;stroke-linejoin:miter;stroke:rgb(80%,80%,0%);stroke-opacity:1;stroke-miterlimit:4;" d="M 360.901042 130.802083 L 371.697917 131.197917 " transform="matrix(0.75,0,0,0.75,0,0)"/>
<path style="fill:none;stroke-width:2;stroke-linecap:butt;stroke-linejoin:miter;stroke:rgb(0%,0%,0%);stroke-opacity:1;stroke-miterlimit:4;" d="M 371.697917 131.197917 L 382.5 131.598958 " transform="matrix(0.75,0,0,0.75,0,0)"/>
<path style="fill:none;stroke-width:2;stroke-linecap:butt;stroke-linejoin:miter;stroke:rgb(0%,0%,0%);stroke-opacity:1;stroke-miterlimit:4;" d="M 382.5 131.598958 L 388.401042 124.098958 " transform="matrix(0.75,0,0,0.75,0,0)"/>
<path style="fill:none;stroke-width:2;stroke-linecap:butt;stroke-linejoin:miter;stroke:rgb(0%,0%,100%);stroke-opacity:1;stroke-miterlimit:4;" d="M 388.401042 124.098958 L 394.302083 116.5 " transform="matrix(0.75,0,0,0.75,0,0)"/>
<path style="fill:none;stroke-width:2;stroke-linecap:butt;stroke-linejoin:miter;stroke:rgb(0%,0%,0%);stroke-opacity:1;stroke-miterlimit:4;" d="M 382.5 131.598958 L 385.302083 141.302083 " transform="matrix(0.75,0,0,0.75,0,0)"/>
<path style="fill:none;stroke-width:2;stroke-linecap:butt;stroke-linejoin:miter;stroke:rgb(0%,0%,100%);stroke-opacity:1;stroke-miterlimit:4;" d="M 385.302083 141.302083 L 388 151 " transform="matrix(0.75,0,0,0.75,0,0)"/>
<path style="fill:none;stroke-width:2;stroke-linecap:butt;stroke-linejoin:miter;stroke:rgb(0%,0%,0%);stroke-opacity:1;stroke-miterlimit:4;" d="M 378.598958 135.901042 L 380.5 142.697917 " transform="matrix(0.75,0,0,0.75,0,0)"/>
<path style="fill:none;stroke-width:2;stroke-linecap:butt;stroke-linejoin:miter;stroke:rgb(0%,0%,100%);stroke-opacity:1;stroke-miterlimit:4;" d="M 380.5 142.697917 L 382.5 149.5 " transform="matrix(0.75,0,0,0.75,0,0)"/>
<path style="fill:none;stroke-width:2;stroke-linecap:butt;stroke-linejoin:miter;stroke:rgb(0%,0%,0%);stroke-opacity:1;stroke-miterlimit:4;" d="M 303.5 203.697917 L 279.901042 196.401042 " transform="matrix(0.75,0,0,0.75,0,0)"/>
<path style="fill:none;stroke-width:2;stroke-linecap:butt;stroke-linejoin:miter;stroke:rgb(0%,0%,0%);stroke-opacity:1;stroke-miterlimit:4;" d="M 279.901042 196.401042 L 273.098958 189 " transform="matrix(0.75,0,0,0.75,0,0)"/>
<path style="fill:none;stroke-width:2;stroke-linecap:butt;stroke-linejoin:miter;stroke:rgb(80%,80%,0%);stroke-opacity:1;stroke-miterlimit:4;" d="M 273.098958 189 L 266.197917 181.697917 " transform="matrix(0.75,0,0,0.75,0,0)"/>
<path style="fill:none;stroke-width:2;stroke-linecap:butt;stroke-linejoin:miter;stroke:rgb(80%,80%,0%);stroke-opacity:1;stroke-miterlimit:4;" d="M 260.098958 179.098958 L 249.598958 181.5 " transform="matrix(0.75,0,0,0.75,0,0)"/>
<path style="fill:none;stroke-width:2;stroke-linecap:butt;stroke-linejoin:miter;stroke:rgb(0%,0%,0%);stroke-opacity:1;stroke-miterlimit:4;" d="M 249.598958 181.5 L 239.098958 183.901042 " transform="matrix(0.75,0,0,0.75,0,0)"/>
<path style="fill:none;stroke-width:2;stroke-linecap:butt;stroke-linejoin:miter;stroke:rgb(80%,80%,0%);stroke-opacity:1;stroke-miterlimit:4;" d="M 284.901042 310.197917 L 279.197917 318.098958 " transform="matrix(0.75,0,0,0.75,0,0)"/>
<path style="fill:none;stroke-width:2;stroke-linecap:butt;stroke-linejoin:miter;stroke:rgb(0%,0%,0%);stroke-opacity:1;stroke-miterlimit:4;" d="M 279.197917 318.098958 L 273.5 326 " transform="matrix(0.75,0,0,0.75,0,0)"/>
<path style="fill:none;stroke-width:2;stroke-linecap:butt;stroke-linejoin:miter;stroke:rgb(0%,0%,100%);stroke-opacity:1;stroke-miterlimit:4;" d="M 192 190.598958 L 195 175 " transform="matrix(0.75,0,0,0.75,0,0)"/>
<path style="fill:none;stroke-width:2;stroke-linecap:butt;stroke-linejoin:miter;stroke:rgb(0%,0%,0%);stroke-opacity:1;stroke-miterlimit:4;" d="M 239.098958 183.901042 L 231.901042 207.401042 " transform="matrix(0.75,0,0,0.75,0,0)"/>
<path style="fill:none;stroke-width:2;stroke-linecap:butt;stroke-linejoin:miter;stroke:rgb(0%,0%,100%);stroke-opacity:1;stroke-miterlimit:4;" d="M 225.5 315.802083 L 230.302083 330.598958 " transform="matrix(0.75,0,0,0.75,0,0)"/>
<path style="fill:none;stroke-width:2;stroke-linecap:butt;stroke-linejoin:miter;stroke:rgb(0%,0%,0%);stroke-opacity:1;stroke-miterlimit:4;" d="M 311.401042 313.598958 L 311.401042 323.802083 " transform="matrix(0.75,0,0,0.75,0,0)"/>
<path style="fill:none;stroke-width:2;stroke-linecap:butt;stroke-linejoin:miter;stroke:rgb(0%,0%,100%);stroke-opacity:1;stroke-miterlimit:4;" d="M 311.401042 323.802083 L 311.401042 333.901042 " transform="matrix(0.75,0,0,0.75,0,0)"/>
<path style="fill:none;stroke-width:2;stroke-linecap:butt;stroke-linejoin:miter;stroke:rgb(0%,0%,0%);stroke-opacity:1;stroke-miterlimit:4;" d="M 279.901042 196.401042 L 277 206 " transform="matrix(0.75,0,0,0.75,0,0)"/>
<path style="fill:none;stroke-width:2;stroke-linecap:butt;stroke-linejoin:miter;stroke:rgb(0%,0%,100%);stroke-opacity:1;stroke-miterlimit:4;" d="M 277 206 L 274 215.697917 " transform="matrix(0.75,0,0,0.75,0,0)"/>
<path style="fill:none;stroke-width:2;stroke-linecap:butt;stroke-linejoin:miter;stroke:rgb(0%,0%,100%);stroke-opacity:1;stroke-miterlimit:4;" d="M 385.802083 157.598958 L 377.302083 163.401042 " transform="matrix(0.75,0,0,0.75,0,0)"/>
<path style="fill:none;stroke-width:2;stroke-linecap:butt;stroke-linejoin:miter;stroke:rgb(0%,0%,0%);stroke-opacity:1;stroke-miterlimit:4;" d="M 377.302083 163.401042 L 368.802083 169.098958 " transform="matrix(0.75,0,0,0.75,0,0)"/>
<path style="fill-rule:evenodd;fill:rgb(0%,0%,0%);fill-opacity:1;stroke-width:1;stroke-linecap:butt;stroke-linejoin:miter;stroke:rgb(0%,0%,0%);stroke-opacity:1;stroke-miterlimit:4;" d="M 311.401042 313.598958 L 311.901042 294 L 316.802083 294.802083 Z M 311.401042 313.598958 " transform="matrix(0.75,0,0,0.75,0,0)"/>
<path style="fill-rule:evenodd;fill:rgb(0%,0%,0%);fill-opacity:1;stroke-width:1;stroke-linecap:butt;stroke-linejoin:miter;stroke:rgb(0%,0%,0%);stroke-opacity:1;stroke-miterlimit:4;" d="M 279.901042 196.401042 L 287.697917 179.401042 L 291.901042 182 Z M 279.901042 196.401042 " transform="matrix(0.75,0,0,0.75,0,0)"/>
<path style=" stroke:none;fill-rule:nonzero;fill:rgb(0%,0%,100%);fill-opacity:1;" d="M 172.648438 248.550781 L 174.375 251.324219 C 174.476562 251.523438 174.625 251.800781 174.824219 252.148438 C 174.976562 252.449219 175.074219 252.625 175.125 252.675781 L 175.125 248.550781 L 175.800781 248.550781 L 175.800781 253.800781 L 175.050781 253.800781 L 173.25 250.800781 C 173.101562 250.550781 172.949219 250.300781 172.800781 250.050781 C 172.648438 249.75 172.550781 249.550781 172.5 249.449219 L 172.5 253.800781 L 171.824219 253.800781 L 171.824219 248.550781 L 172.648438 248.550781 "/>
<path style=" stroke:none;fill-rule:nonzero;fill:rgb(0%,0%,100%);fill-opacity:1;" d="M 148.425781 231.074219 L 150.148438 233.851562 C 150.25 234 150.398438 234.25 150.601562 234.601562 C 150.800781 234.898438 150.898438 235.074219 150.898438 235.125 L 150.898438 231.074219 L 151.574219 231.074219 L 151.574219 236.25 L 150.824219 236.25 L 149.023438 233.25 C 148.875 233 148.726562 232.75 148.574219 232.5 C 148.425781 232.199219 148.324219 232.023438 148.273438 231.976562 L 148.273438 236.25 L 147.601562 236.25 L 147.601562 231.074219 L 148.425781 231.074219 "/>
<path style=" stroke:none;fill-rule:nonzero;fill:rgb(0%,0%,100%);fill-opacity:1;" d="M 166.949219 231 L 168.601562 233.773438 C 168.75 233.976562 168.898438 234.226562 169.050781 234.523438 C 169.25 234.875 169.351562 235.050781 169.351562 235.050781 L 169.351562 231 L 170.023438 231 L 170.023438 236.25 L 169.351562 236.25 L 167.476562 233.25 C 167.324219 233 167.175781 232.726562 167.023438 232.425781 C 166.875 232.175781 166.800781 232 166.800781 231.898438 L 166.800781 236.25 L 166.125 236.25 L 166.125 231 L 166.949219 231 "/>
<path style=" stroke:none;fill-rule:nonzero;fill:rgb(100%,0%,0%);fill-opacity:1;" d="M 220.273438 290.699219 C 220.273438 289.898438 220.5 289.25 220.949219 288.75 C 221.351562 288.300781 221.925781 288.074219 222.675781 288.074219 C 223.476562 288.074219 224.074219 288.300781 224.476562 288.75 C 224.875 289.25 225.074219 289.898438 225.074219 290.699219 C 225.074219 291.550781 224.875 292.226562 224.476562 292.726562 C 224.074219 293.226562 223.476562 293.476562 222.675781 293.476562 C 221.925781 293.476562 221.351562 293.226562 220.949219 292.726562 C 220.5 292.226562 220.273438 291.550781 220.273438 290.699219 M 222.675781 292.875 C 223.226562 292.875 223.648438 292.699219 223.949219 292.351562 C 224.25 291.949219 224.398438 291.398438 224.398438 290.699219 C 224.398438 290.050781 224.25 289.550781 223.949219 289.199219 C 223.648438 288.851562 223.226562 288.675781 222.675781 288.675781 C 222.175781 288.675781 221.773438 288.851562 221.476562 289.199219 C 221.175781 289.550781 221.023438 290.050781 221.023438 290.699219 C 221.023438 291.398438 221.175781 291.949219 221.476562 292.351562 C 221.773438 292.699219 222.175781 292.875 222.675781 292.875 "/>
<path style=" stroke:none;fill-rule:nonzero;fill:rgb(100%,0%,0%);fill-opacity:1;" d="M 185.101562 278.25 L 185.851562 278.25 L 185.851562 280.5 L 188.476562 280.5 L 188.476562 278.25 L 189.226562 278.25 L 189.226562 283.5 L 188.476562 283.5 L 188.476562 281.101562 L 185.851562 281.101562 L 185.851562 283.5 L 185.101562 283.5 L 185.101562 278.25 "/>
<path style=" stroke:none;fill-rule:nonzero;fill:rgb(100%,0%,0%);fill-opacity:1;" d="M 189.824219 280.875 C 189.824219 280.023438 190.050781 279.375 190.5 278.925781 C 190.898438 278.476562 191.476562 278.25 192.226562 278.25 C 193.023438 278.25 193.625 278.476562 194.023438 278.925781 C 194.425781 279.375 194.625 280.023438 194.625 280.875 C 194.625 281.726562 194.425781 282.398438 194.023438 282.898438 C 193.625 283.351562 193.023438 283.574219 192.226562 283.574219 C 191.476562 283.574219 190.898438 283.351562 190.5 282.898438 C 190.050781 282.398438 189.824219 281.726562 189.824219 280.875 M 192.226562 282.976562 C 192.773438 282.976562 193.199219 282.800781 193.5 282.449219 C 193.75 282.101562 193.875 281.574219 193.875 280.875 C 193.875 280.175781 193.75 279.675781 193.5 279.375 C 193.199219 279.023438 192.773438 278.851562 192.226562 278.851562 C 191.726562 278.851562 191.324219 279 191.023438 279.300781 C 190.726562 279.648438 190.574219 280.175781 190.574219 280.875 C 190.574219 281.574219 190.726562 282.101562 191.023438 282.449219 C 191.324219 282.800781 191.726562 282.976562 192.226562 282.976562 "/>
<path style=" stroke:none;fill-rule:nonzero;fill:rgb(0%,0%,100%);fill-opacity:1;" d="M 232.425781 251.023438 L 234.148438 253.800781 C 234.25 254 234.375 254.273438 234.523438 254.625 C 234.726562 254.925781 234.824219 255.101562 234.824219 255.148438 L 234.824219 251.023438 L 235.574219 251.023438 L 235.574219 256.273438 L 234.824219 256.273438 L 232.949219 253.273438 C 232.851562 253.023438 232.726562 252.773438 232.574219 252.523438 C 232.425781 252.226562 232.324219 252.050781 232.273438 252 L 232.273438 256.273438 L 231.601562 256.273438 L 231.601562 251.023438 L 232.425781 251.023438 "/>
<path style=" stroke:none;fill-rule:nonzero;fill:rgb(100%,0%,0%);fill-opacity:1;" d="M 262.726562 266.699219 C 262.726562 265.851562 262.925781 265.199219 263.324219 264.75 C 263.773438 264.300781 264.375 264.074219 265.125 264.074219 C 265.875 264.074219 266.476562 264.300781 266.925781 264.75 C 267.324219 265.199219 267.523438 265.851562 267.523438 266.699219 C 267.523438 267.550781 267.324219 268.226562 266.925781 268.726562 C 266.476562 269.175781 265.875 269.398438 265.125 269.398438 C 264.375 269.398438 263.773438 269.175781 263.324219 268.726562 C 262.925781 268.226562 262.726562 267.550781 262.726562 266.699219 M 265.125 268.800781 C 265.675781 268.800781 266.074219 268.625 266.324219 268.273438 C 266.625 267.925781 266.773438 267.398438 266.773438 266.699219 C 266.773438 266 266.625 265.476562 266.324219 265.125 C 266.074219 264.773438 265.675781 264.601562 265.125 264.601562 C 264.574219 264.601562 264.175781 264.773438 263.925781 265.125 C 263.625 265.476562 263.476562 266 263.476562 266.699219 C 263.476562 267.398438 263.625 267.925781 263.925781 268.273438 C 264.175781 268.625 264.574219 268.800781 265.125 268.800781 "/>
<path style=" stroke:none;fill-rule:nonzero;fill:rgb(80%,80%,0%);fill-opacity:1;" d="M 214.5 231.300781 C 214.5 231.300781 214.601562 231.351562 214.800781 231.449219 C 214.949219 231.5 215.101562 231.550781 215.25 231.601562 C 215.449219 231.648438 215.648438 231.675781 215.851562 231.675781 C 216.148438 231.675781 216.398438 231.601562 216.601562 231.449219 C 216.800781 231.300781 216.898438 231.074219 216.898438 230.773438 C 216.898438 230.574219 216.851562 230.425781 216.75 230.324219 C 216.648438 230.175781 216.523438 230.074219 216.375 230.023438 C 216.226562 229.976562 216.023438 229.898438 215.773438 229.800781 C 215.476562 229.699219 215.226562 229.625 215.023438 229.574219 C 214.875 229.476562 214.726562 229.324219 214.574219 229.125 C 214.425781 228.925781 214.351562 228.675781 214.351562 228.375 C 214.351562 227.925781 214.5 227.574219 214.800781 227.324219 C 215.101562 227.023438 215.550781 226.875 216.148438 226.875 C 216.550781 226.875 216.976562 226.976562 217.425781 227.175781 L 217.273438 227.773438 C 216.875 227.574219 216.5 227.476562 216.148438 227.476562 C 215.851562 227.476562 215.601562 227.550781 215.398438 227.699219 C 215.199219 227.851562 215.101562 228.050781 215.101562 228.300781 C 215.101562 228.5 215.148438 228.648438 215.25 228.75 C 215.351562 228.851562 215.476562 228.925781 215.625 228.976562 C 215.773438 229.074219 215.949219 229.148438 216.148438 229.199219 C 216.5 229.300781 216.75 229.398438 216.898438 229.5 C 217.101562 229.601562 217.273438 229.75 217.425781 229.949219 C 217.574219 230.148438 217.648438 230.425781 217.648438 230.773438 C 217.648438 231.273438 217.476562 231.648438 217.125 231.898438 C 216.824219 232.148438 216.398438 232.273438 215.851562 232.273438 C 215.550781 232.273438 215.273438 232.25 215.023438 232.199219 C 214.773438 232.101562 214.523438 232 214.273438 231.898438 L 214.5 231.300781 "/>
<path style=" stroke:none;fill-rule:nonzero;fill:rgb(100%,0%,0%);fill-opacity:1;" d="M 221.023438 212.625 C 221.023438 211.773438 221.226562 211.125 221.625 210.675781 C 222.074219 210.226562 222.675781 210 223.425781 210 C 224.226562 210 224.824219 210.226562 225.226562 210.675781 C 225.625 211.125 225.824219 211.773438 225.824219 212.625 C 225.824219 213.476562 225.625 214.148438 225.226562 214.648438 C 224.773438 215.101562 224.175781 215.324219 223.425781 215.324219 C 222.675781 215.324219 222.074219 215.101562 221.625 214.648438 C 221.226562 214.148438 221.023438 213.476562 221.023438 212.625 M 223.425781 214.726562 C 223.976562 214.726562 224.375 214.550781 224.625 214.199219 C 224.925781 213.851562 225.074219 213.324219 225.074219 212.625 C 225.074219 211.925781 224.925781 211.425781 224.625 211.125 C 224.375 210.773438 223.976562 210.601562 223.425781 210.601562 C 222.875 210.601562 222.476562 210.75 222.226562 211.050781 C 221.925781 211.398438 221.773438 211.925781 221.773438 212.625 C 221.773438 213.324219 221.925781 213.851562 222.226562 214.199219 C 222.476562 214.550781 222.875 214.726562 223.425781 214.726562 "/>
<path style=" stroke:none;fill-rule:nonzero;fill:rgb(100%,0%,0%);fill-opacity:1;" d="M 197.550781 220.351562 C 197.550781 219.5 197.75 218.824219 198.148438 218.324219 C 198.550781 217.875 199.148438 217.648438 199.949219 217.648438 C 200.699219 217.648438 201.273438 217.875 201.675781 218.324219 C 202.125 218.824219 202.351562 219.5 202.351562 220.351562 C 202.351562 221.199219 202.125 221.851562 201.675781 222.300781 C 201.273438 222.800781 200.699219 223.050781 199.949219 223.050781 C 199.148438 223.050781 198.550781 222.800781 198.148438 222.300781 C 197.75 221.851562 197.550781 221.199219 197.550781 220.351562 M 199.949219 222.449219 C 200.449219 222.449219 200.851562 222.273438 201.148438 221.925781 C 201.449219 221.574219 201.601562 221.050781 201.601562 220.351562 C 201.601562 219.648438 201.449219 219.125 201.148438 218.773438 C 200.851562 218.425781 200.449219 218.25 199.949219 218.25 C 199.398438 218.25 198.976562 218.425781 198.675781 218.773438 C 198.375 219.125 198.226562 219.648438 198.226562 220.351562 C 198.226562 221.050781 198.375 221.574219 198.675781 221.925781 C 198.976562 222.273438 199.398438 222.449219 199.949219 222.449219 "/>
<path style=" stroke:none;fill-rule:nonzero;fill:rgb(0%,0%,100%);fill-opacity:1;" d="M 145.726562 125.398438 L 147.449219 128.175781 C 147.550781 128.375 147.699219 128.625 147.898438 128.925781 C 148.101562 129.273438 148.199219 129.449219 148.199219 129.449219 L 148.199219 125.398438 L 148.875 125.398438 L 148.875 130.648438 L 148.125 130.648438 L 146.324219 127.648438 C 146.175781 127.398438 146.023438 127.125 145.875 126.824219 C 145.726562 126.574219 145.625 126.398438 145.574219 126.300781 L 145.574219 130.648438 L 144.898438 130.648438 L 144.898438 125.398438 L 145.726562 125.398438 "/>
<path style=" stroke:none;fill-rule:nonzero;fill:rgb(0%,0%,100%);fill-opacity:1;" d="M 127.351562 98.101562 L 129.074219 100.875 C 129.175781 101.023438 129.324219 101.273438 129.523438 101.625 C 129.726562 101.976562 129.824219 102.148438 129.824219 102.148438 L 129.824219 98.101562 L 130.5 98.101562 L 130.5 103.351562 L 129.75 103.351562 L 127.949219 100.273438 C 127.800781 100.074219 127.648438 99.824219 127.5 99.523438 C 127.351562 99.273438 127.25 99.101562 127.199219 99 L 127.199219 103.351562 L 126.523438 103.351562 L 126.523438 98.101562 L 127.351562 98.101562 "/>
<path style=" stroke:none;fill-rule:nonzero;fill:rgb(0%,0%,100%);fill-opacity:1;" d="M 131.101562 98.101562 L 131.851562 98.101562 L 131.851562 100.351562 L 134.476562 100.351562 L 134.476562 98.101562 L 135.226562 98.101562 L 135.226562 103.351562 L 134.476562 103.351562 L 134.476562 100.875 L 131.851562 100.875 L 131.851562 103.351562 L 131.101562 103.351562 L 131.101562 98.101562 "/>
<path style=" stroke:none;fill-rule:nonzero;fill:rgb(0%,0%,100%);fill-opacity:1;" d="M 135.824219 103.125 C 135.925781 102.925781 136.074219 102.75 136.273438 102.601562 C 136.476562 102.5 136.726562 102.449219 137.023438 102.449219 C 137.375 102.449219 137.648438 102.550781 137.851562 102.75 C 138 102.949219 138.074219 103.199219 138.074219 103.5 C 138.074219 103.851562 137.949219 104.175781 137.699219 104.476562 C 137.449219 104.824219 137.074219 105.175781 136.574219 105.523438 L 138.148438 105.523438 L 138.148438 105.976562 L 135.824219 105.976562 L 135.824219 105.601562 C 136.273438 105.300781 136.625 105.050781 136.875 104.851562 C 137.125 104.601562 137.300781 104.375 137.398438 104.175781 C 137.550781 103.976562 137.625 103.773438 137.625 103.574219 C 137.625 103.324219 137.574219 103.148438 137.476562 103.050781 C 137.375 102.898438 137.226562 102.824219 137.023438 102.824219 C 136.824219 102.824219 136.675781 102.875 136.574219 102.976562 C 136.425781 103.023438 136.300781 103.125 136.199219 103.273438 L 135.824219 103.125 "/>
<path style=" stroke:none;fill-rule:nonzero;fill:rgb(0%,0%,100%);fill-opacity:1;" d="M 97.949219 125.476562 L 99.601562 128.25 C 99.75 128.398438 99.898438 128.648438 100.050781 129 C 100.25 129.351562 100.351562 129.523438 100.351562 129.523438 L 100.351562 125.476562 L 101.023438 125.476562 L 101.023438 130.726562 L 100.351562 130.726562 L 98.476562 127.648438 C 98.375 127.398438 98.226562 127.148438 98.023438 126.898438 C 97.875 126.648438 97.800781 126.476562 97.800781 126.375 L 97.800781 130.726562 L 97.125 130.726562 L 97.125 125.476562 L 97.949219 125.476562 "/>
<path style=" stroke:none;fill-rule:nonzero;fill:rgb(0%,0%,100%);fill-opacity:1;" d="M 97.050781 119.699219 L 97.726562 119.699219 L 97.726562 121.949219 L 100.425781 121.949219 L 100.425781 119.699219 L 101.101562 119.699219 L 101.101562 124.949219 L 100.425781 124.949219 L 100.425781 122.550781 L 97.726562 122.550781 L 97.726562 124.949219 L 97.050781 124.949219 L 97.050781 119.699219 "/>
<path style=" stroke:none;fill-rule:nonzero;fill:rgb(100%,0%,0%);fill-opacity:1;" d="M 90.523438 159.523438 C 90.523438 158.675781 90.726562 158.023438 91.125 157.574219 C 91.523438 157.074219 92.125 156.824219 92.925781 156.824219 C 93.675781 156.824219 94.273438 157.074219 94.726562 157.574219 C 95.125 158.023438 95.324219 158.675781 95.324219 159.523438 C 95.324219 160.375 95.125 161.023438 94.726562 161.476562 C 94.273438 161.976562 93.675781 162.226562 92.925781 162.226562 C 92.175781 162.226562 91.574219 161.976562 91.125 161.476562 C 90.726562 161.023438 90.523438 160.375 90.523438 159.523438 M 92.925781 161.625 C 93.476562 161.625 93.875 161.449219 94.125 161.101562 C 94.425781 160.75 94.574219 160.226562 94.574219 159.523438 C 94.574219 158.824219 94.425781 158.300781 94.125 157.949219 C 93.875 157.601562 93.476562 157.425781 92.925781 157.425781 C 92.375 157.425781 91.949219 157.601562 91.648438 157.949219 C 91.398438 158.300781 91.273438 158.824219 91.273438 159.523438 C 91.273438 160.226562 91.398438 160.75 91.648438 161.101562 C 91.949219 161.449219 92.375 161.625 92.925781 161.625 "/>
<path style=" stroke:none;fill-rule:nonzero;fill:rgb(0%,0%,100%);fill-opacity:1;" d="M 67.648438 135.824219 L 69.375 138.601562 C 69.476562 138.800781 69.625 139.050781 69.824219 139.351562 C 69.976562 139.699219 70.050781 139.875 70.050781 139.875 L 70.050781 135.824219 L 70.800781 135.824219 L 70.800781 141.074219 L 70.050781 141.074219 L 68.25 138 C 68.101562 137.800781 67.949219 137.550781 67.800781 137.25 C 67.648438 137 67.550781 136.824219 67.5 136.726562 L 67.5 141.074219 L 66.824219 141.074219 L 66.824219 135.824219 L 67.648438 135.824219 "/>
<path style=" stroke:none;fill-rule:nonzero;fill:rgb(0%,0%,100%);fill-opacity:1;" d="M 66.75 130.050781 L 67.425781 130.050781 L 67.425781 132.300781 L 70.125 132.300781 L 70.125 130.050781 L 70.875 130.050781 L 70.875 135.300781 L 70.125 135.300781 L 70.125 132.898438 L 67.425781 132.898438 L 67.425781 135.300781 L 66.75 135.300781 L 66.75 130.050781 "/>
<path style=" stroke:none;fill-rule:nonzero;fill:rgb(0%,0%,100%);fill-opacity:1;" d="M 17.023438 160.125 L 17.773438 160.125 L 17.773438 162.375 L 20.398438 162.375 L 20.398438 160.125 L 21.148438 160.125 L 21.148438 165.375 L 20.398438 165.375 L 20.398438 162.976562 L 17.773438 162.976562 L 17.773438 165.375 L 17.023438 165.375 L 17.023438 160.125 "/>
<path style=" stroke:none;fill-rule:nonzero;fill:rgb(0%,0%,100%);fill-opacity:1;" d="M 21.75 165.148438 C 21.851562 164.949219 22 164.800781 22.199219 164.699219 C 22.398438 164.550781 22.648438 164.476562 22.949219 164.476562 C 23.300781 164.476562 23.574219 164.574219 23.773438 164.773438 C 23.925781 164.976562 24 165.226562 24 165.523438 C 24 165.875 23.875 166.226562 23.625 166.574219 C 23.375 166.875 23 167.226562 22.5 167.625 L 24.074219 167.625 L 24.074219 168 L 21.75 168 L 21.75 167.625 C 22.199219 167.324219 22.550781 167.074219 22.800781 166.875 C 23.050781 166.625 23.25 166.398438 23.398438 166.199219 C 23.5 166 23.550781 165.800781 23.550781 165.601562 C 23.550781 165.351562 23.5 165.175781 23.398438 165.074219 C 23.300781 164.925781 23.148438 164.851562 22.949219 164.851562 C 22.75 164.851562 22.601562 164.898438 22.5 165 C 22.351562 165.050781 22.226562 165.175781 22.125 165.375 L 21.75 165.148438 "/>
<path style=" stroke:none;fill-rule:nonzero;fill:rgb(0%,0%,100%);fill-opacity:1;" d="M 25.199219 160.125 L 26.925781 162.898438 C 27.023438 163.101562 27.175781 163.351562 27.375 163.648438 C 27.574219 164 27.675781 164.175781 27.675781 164.175781 L 27.675781 160.125 L 28.351562 160.125 L 28.351562 165.375 L 27.675781 165.375 L 25.800781 162.300781 C 25.648438 162.101562 25.5 161.851562 25.351562 161.550781 C 25.199219 161.300781 25.101562 161.125 25.050781 161.023438 L 25.050781 165.375 L 24.375 165.375 L 24.375 160.125 L 25.199219 160.125 "/>
<path style=" stroke:none;fill-rule:nonzero;fill:rgb(0%,0%,100%);fill-opacity:1;" d="M 142.199219 143.550781 L 143.925781 146.324219 C 144.023438 146.523438 144.148438 146.773438 144.300781 147.074219 C 144.5 147.425781 144.601562 147.601562 144.601562 147.601562 L 144.601562 143.550781 L 145.351562 143.550781 L 145.351562 148.800781 L 144.601562 148.800781 L 142.800781 145.726562 C 142.648438 145.523438 142.5 145.273438 142.351562 144.976562 C 142.199219 144.726562 142.101562 144.550781 142.050781 144.449219 L 142.050781 148.800781 L 141.375 148.800781 L 141.375 143.550781 L 142.199219 143.550781 "/>
<path style=" stroke:none;fill-rule:nonzero;fill:rgb(0%,0%,100%);fill-opacity:1;" d="M 145.949219 144.523438 L 146.851562 144.523438 L 146.851562 143.550781 L 147.300781 143.550781 L 147.300781 144.523438 L 148.199219 144.523438 L 148.199219 144.824219 L 147.300781 144.824219 L 147.300781 145.800781 L 146.851562 145.800781 L 146.851562 144.824219 L 145.949219 144.824219 L 145.949219 144.523438 "/>
<path style=" stroke:none;fill-rule:nonzero;fill:rgb(100%,0%,0%);fill-opacity:1;" d="M 160.648438 190.949219 C 160.648438 190.101562 160.851562 189.425781 161.25 188.925781 C 161.699219 188.476562 162.300781 188.25 163.050781 188.25 C 163.851562 188.25 164.449219 188.476562 164.851562 188.925781 C 165.25 189.425781 165.449219 190.101562 165.449219 190.949219 C 165.449219 191.75 165.25 192.398438 164.851562 192.898438 C 164.449219 193.398438 163.851562 193.648438 163.050781 193.648438 C 162.300781 193.648438 161.699219 193.398438 161.25 192.898438 C 160.851562 192.449219 160.648438 191.800781 160.648438 190.949219 M 163.050781 193.050781 C 163.601562 193.050781 164.023438 192.875 164.324219 192.523438 C 164.574219 192.175781 164.699219 191.648438 164.699219 190.949219 C 164.699219 190.25 164.574219 189.726562 164.324219 189.375 C 164.023438 189.023438 163.601562 188.851562 163.050781 188.851562 C 162.550781 188.851562 162.148438 189.023438 161.851562 189.375 C 161.550781 189.726562 161.398438 190.25 161.398438 190.949219 C 161.398438 191.648438 161.550781 192.175781 161.851562 192.523438 C 162.148438 192.875 162.550781 193.050781 163.050781 193.050781 "/>
<path style=" stroke:none;fill-rule:nonzero;fill:rgb(100%,0%,0%);fill-opacity:1;" d="M 191.25 200.324219 C 191.25 199.476562 191.449219 198.824219 191.851562 198.375 C 192.300781 197.875 192.898438 197.625 193.648438 197.625 C 194.449219 197.625 195.050781 197.875 195.449219 198.375 C 195.851562 198.824219 196.050781 199.476562 196.050781 200.324219 C 196.050781 201.175781 195.851562 201.851562 195.449219 202.351562 C 195 202.800781 194.398438 203.023438 193.648438 203.023438 C 192.898438 203.023438 192.300781 202.800781 191.851562 202.351562 C 191.449219 201.851562 191.25 201.175781 191.25 200.324219 M 193.648438 202.425781 C 194.199219 202.425781 194.601562 202.25 194.851562 201.898438 C 195.148438 201.550781 195.300781 201.023438 195.300781 200.324219 C 195.300781 199.625 195.148438 199.101562 194.851562 198.75 C 194.601562 198.398438 194.199219 198.226562 193.648438 198.226562 C 193.101562 198.226562 192.699219 198.398438 192.449219 198.75 C 192.148438 199.101562 192 199.625 192 200.324219 C 192 201.023438 192.148438 201.550781 192.449219 201.898438 C 192.699219 202.25 193.101562 202.425781 193.648438 202.425781 "/>
<path style=" stroke:none;fill-rule:nonzero;fill:rgb(100%,0%,0%);fill-opacity:1;" d="M 196.425781 198.523438 L 198.226562 198.523438 L 198.226562 198.898438 L 196.425781 198.898438 L 196.425781 198.523438 "/>
<path style=" stroke:none;fill-rule:nonzero;fill:rgb(0%,0%,100%);fill-opacity:1;" d="M 203.398438 162.375 L 205.050781 165.148438 C 205.199219 165.300781 205.351562 165.550781 205.5 165.898438 C 205.699219 166.25 205.800781 166.425781 205.800781 166.425781 L 205.800781 162.375 L 206.476562 162.375 L 206.476562 167.625 L 205.800781 167.625 L 203.925781 164.550781 C 203.773438 164.300781 203.625 164.050781 203.476562 163.800781 C 203.324219 163.550781 203.25 163.375 203.25 163.273438 L 203.25 167.625 L 202.5 167.625 L 202.5 162.375 L 203.398438 162.375 "/>
<path style=" stroke:none;fill-rule:nonzero;fill:rgb(100%,0%,0%);fill-opacity:1;" d="M 228.449219 186.75 C 228.449219 185.898438 228.648438 185.25 229.050781 184.800781 C 229.449219 184.351562 230.050781 184.125 230.851562 184.125 C 231.601562 184.125 232.199219 184.351562 232.648438 184.800781 C 233.050781 185.25 233.25 185.898438 233.25 186.75 C 233.25 187.601562 233.023438 188.273438 232.574219 188.773438 C 232.175781 189.226562 231.601562 189.449219 230.851562 189.449219 C 230.050781 189.449219 229.449219 189.226562 229.050781 188.773438 C 228.648438 188.273438 228.449219 187.601562 228.449219 186.75 M 230.851562 188.851562 C 231.351562 188.851562 231.75 188.675781 232.050781 188.324219 C 232.351562 187.976562 232.5 187.449219 232.5 186.75 C 232.5 186.050781 232.351562 185.523438 232.050781 185.175781 C 231.75 184.824219 231.351562 184.648438 230.851562 184.648438 C 230.300781 184.648438 229.875 184.824219 229.574219 185.175781 C 229.324219 185.523438 229.199219 186.050781 229.199219 186.75 C 229.199219 187.449219 229.324219 187.976562 229.574219 188.324219 C 229.875 188.675781 230.300781 188.851562 230.851562 188.851562 "/>
<path style=" stroke:none;fill-rule:nonzero;fill:rgb(0%,0%,100%);fill-opacity:1;" d="M 242.773438 141.449219 L 244.5 144.226562 C 244.601562 144.425781 244.75 144.699219 244.949219 145.050781 C 245.148438 145.351562 245.25 145.523438 245.25 145.574219 L 245.25 141.449219 L 245.925781 141.449219 L 245.925781 146.699219 L 245.175781 146.699219 L 243.375 143.699219 C 243.226562 143.449219 243.074219 143.199219 242.925781 142.949219 C 242.773438 142.648438 242.675781 142.476562 242.625 142.425781 L 242.625 146.699219 L 241.949219 146.699219 L 241.949219 141.449219 L 242.773438 141.449219 "/>
<path style=" stroke:none;fill-rule:nonzero;fill:rgb(0%,0%,100%);fill-opacity:1;" d="M 241.875 135.75 L 242.625 135.75 L 242.625 137.925781 L 245.25 137.925781 L 245.25 135.75 L 246 135.75 L 246 140.925781 L 245.25 140.925781 L 245.25 138.523438 L 242.625 138.523438 L 242.625 140.925781 L 241.875 140.925781 L 241.875 135.75 "/>
<path style=" stroke:none;fill-rule:nonzero;fill:rgb(100%,0%,0%);fill-opacity:1;" d="M 256.5 172.425781 C 256.5 171.574219 256.726562 170.925781 257.175781 170.476562 C 257.574219 169.976562 258.148438 169.726562 258.898438 169.726562 C 259.699219 169.726562 260.300781 169.976562 260.699219 170.476562 C 261.101562 170.925781 261.300781 171.574219 261.300781 172.425781 C 261.300781 173.273438 261.101562 173.925781 260.699219 174.375 C 260.300781 174.875 259.699219 175.125 258.898438 175.125 C 258.148438 175.125 257.574219 174.875 257.175781 174.375 C 256.726562 173.925781 256.5 173.273438 256.5 172.425781 M 258.898438 174.523438 C 259.449219 174.523438 259.875 174.351562 260.175781 174 C 260.476562 173.648438 260.625 173.125 260.625 172.425781 C 260.625 171.726562 260.476562 171.199219 260.175781 170.851562 C 259.875 170.5 259.449219 170.324219 258.898438 170.324219 C 258.398438 170.324219 258 170.5 257.699219 170.851562 C 257.398438 171.199219 257.25 171.726562 257.25 172.425781 C 257.25 173.125 257.398438 173.648438 257.699219 174 C 258 174.351562 258.398438 174.523438 258.898438 174.523438 "/>
<path style=" stroke:none;fill-rule:nonzero;fill:rgb(0%,0%,100%);fill-opacity:1;" d="M 290.398438 152.476562 L 292.125 155.25 C 292.226562 155.398438 292.375 155.648438 292.574219 156 C 292.773438 156.351562 292.875 156.523438 292.875 156.523438 L 292.875 152.476562 L 293.550781 152.476562 L 293.550781 157.726562 L 292.875 157.726562 L 291 154.648438 C 290.851562 154.449219 290.699219 154.199219 290.550781 153.898438 C 290.398438 153.648438 290.300781 153.476562 290.25 153.375 L 290.25 157.726562 L 289.574219 157.726562 L 289.574219 152.476562 L 290.398438 152.476562 "/>
<path style=" stroke:none;fill-rule:nonzero;fill:rgb(100%,0%,0%);fill-opacity:1;" d="M 305.476562 146.476562 C 305.476562 145.625 305.699219 144.976562 306.148438 144.523438 C 306.550781 144.023438 307.125 143.773438 307.875 143.773438 C 308.675781 143.773438 309.273438 144.023438 309.675781 144.523438 C 310.125 144.976562 310.351562 145.625 310.351562 146.476562 C 310.351562 147.324219 310.125 147.976562 309.675781 148.425781 C 309.273438 148.925781 308.675781 149.175781 307.875 149.175781 C 307.125 149.175781 306.550781 148.925781 306.148438 148.425781 C 305.699219 147.976562 305.476562 147.324219 305.476562 146.476562 M 307.875 148.574219 C 308.425781 148.574219 308.851562 148.398438 309.148438 148.050781 C 309.449219 147.699219 309.601562 147.175781 309.601562 146.476562 C 309.601562 145.773438 309.449219 145.25 309.148438 144.898438 C 308.851562 144.550781 308.425781 144.375 307.875 144.375 C 307.375 144.375 306.976562 144.550781 306.675781 144.898438 C 306.375 145.25 306.226562 145.773438 306.226562 146.476562 C 306.226562 147.175781 306.375 147.699219 306.675781 148.050781 C 306.976562 148.398438 307.375 148.574219 307.875 148.574219 "/>
<path style=" stroke:none;fill-rule:nonzero;fill:rgb(100%,0%,0%);fill-opacity:1;" d="M 353.175781 157.425781 C 353.175781 156.574219 353.375 155.925781 353.773438 155.476562 C 354.175781 155.023438 354.773438 154.800781 355.574219 154.800781 C 356.324219 154.800781 356.898438 155.023438 357.300781 155.476562 C 357.75 155.925781 357.976562 156.574219 357.976562 157.425781 C 357.976562 158.273438 357.75 158.949219 357.300781 159.449219 C 356.898438 159.898438 356.324219 160.125 355.574219 160.125 C 354.773438 160.125 354.175781 159.898438 353.773438 159.449219 C 353.375 158.949219 353.175781 158.273438 353.175781 157.425781 M 355.574219 159.523438 C 356.074219 159.523438 356.476562 159.351562 356.773438 159 C 357.074219 158.648438 357.226562 158.125 357.226562 157.425781 C 357.226562 156.726562 357.074219 156.226562 356.773438 155.925781 C 356.476562 155.574219 356.074219 155.398438 355.574219 155.398438 C 355.023438 155.398438 354.601562 155.550781 354.300781 155.851562 C 354.050781 156.199219 353.925781 156.726562 353.925781 157.425781 C 353.925781 158.125 354.050781 158.648438 354.300781 159 C 354.601562 159.351562 355.023438 159.523438 355.574219 159.523438 "/>
<path style=" stroke:none;fill-rule:nonzero;fill:rgb(100%,0%,0%);fill-opacity:1;" d="M 336.148438 184.574219 C 336.148438 183.726562 336.351562 183.074219 336.75 182.625 C 337.199219 182.125 337.800781 181.875 338.550781 181.875 C 339.300781 181.875 339.898438 182.125 340.351562 182.625 C 340.75 183.074219 340.949219 183.726562 340.949219 184.574219 C 340.949219 185.425781 340.75 186.074219 340.351562 186.523438 C 339.898438 187.023438 339.300781 187.273438 338.550781 187.273438 C 337.800781 187.273438 337.199219 187.023438 336.75 186.523438 C 336.351562 186.074219 336.148438 185.425781 336.148438 184.574219 M 338.550781 186.675781 C 339.101562 186.675781 339.5 186.5 339.75 186.148438 C 340.050781 185.800781 340.199219 185.273438 340.199219 184.574219 C 340.199219 183.875 340.050781 183.351562 339.75 183 C 339.5 182.648438 339.101562 182.476562 338.550781 182.476562 C 338 182.476562 337.601562 182.648438 337.351562 183 C 337.050781 183.351562 336.898438 183.875 336.898438 184.574219 C 336.898438 185.273438 337.050781 185.800781 337.351562 186.148438 C 337.601562 186.5 338 186.675781 338.550781 186.675781 "/>
<path style=" stroke:none;fill-rule:nonzero;fill:rgb(100%,0%,0%);fill-opacity:1;" d="M 341.324219 181.949219 L 342 181.949219 L 342 184.199219 L 344.699219 184.199219 L 344.699219 181.949219 L 345.449219 181.949219 L 345.449219 187.199219 L 344.699219 187.199219 L 344.699219 184.800781 L 342 184.800781 L 342 187.199219 L 341.324219 187.199219 L 341.324219 181.949219 "/>
<path style=" stroke:none;fill-rule:nonzero;fill:rgb(0%,0%,100%);fill-opacity:1;" d="M 260.925781 112.800781 L 262.648438 115.574219 C 262.75 115.726562 262.875 115.976562 263.023438 116.324219 C 263.226562 116.675781 263.324219 116.851562 263.324219 116.851562 L 263.324219 112.800781 L 264.074219 112.800781 L 264.074219 118.050781 L 263.324219 118.050781 L 261.449219 114.976562 C 261.351562 114.726562 261.226562 114.476562 261.074219 114.226562 C 260.925781 113.976562 260.824219 113.800781 260.773438 113.699219 L 260.773438 118.050781 L 260.101562 118.050781 L 260.101562 112.800781 L 260.925781 112.800781 "/>
<path style=" stroke:none;fill-rule:nonzero;fill:rgb(80%,80%,0%);fill-opacity:1;" d="M 266.925781 99.824219 C 266.976562 99.875 267.074219 99.925781 267.226562 99.976562 C 267.375 100.023438 267.550781 100.074219 267.75 100.125 C 267.949219 100.175781 268.125 100.199219 268.273438 100.199219 C 268.625 100.199219 268.898438 100.125 269.101562 99.976562 C 269.25 99.824219 269.324219 99.601562 269.324219 99.300781 C 269.324219 99.101562 269.273438 98.949219 269.175781 98.851562 C 269.125 98.699219 269.023438 98.601562 268.875 98.550781 C 268.726562 98.5 268.523438 98.425781 268.273438 98.324219 C 267.925781 98.226562 267.675781 98.148438 267.523438 98.101562 C 267.324219 98 267.148438 97.851562 267 97.648438 C 266.898438 97.449219 266.851562 97.199219 266.851562 96.898438 C 266.851562 96.449219 267 96.101562 267.300781 95.851562 C 267.601562 95.550781 268.050781 95.398438 268.648438 95.398438 C 269.050781 95.398438 269.476562 95.5 269.925781 95.699219 L 269.773438 96.300781 C 269.324219 96.101562 268.949219 96 268.648438 96 C 268.300781 96 268.023438 96.074219 267.824219 96.226562 C 267.675781 96.375 267.601562 96.574219 267.601562 96.824219 C 267.601562 97.023438 267.648438 97.175781 267.75 97.273438 C 267.851562 97.375 267.949219 97.449219 268.050781 97.5 C 268.199219 97.601562 268.398438 97.675781 268.648438 97.726562 C 268.949219 97.824219 269.199219 97.925781 269.398438 98.023438 C 269.601562 98.125 269.75 98.273438 269.851562 98.476562 C 270 98.675781 270.074219 98.949219 270.074219 99.300781 C 270.074219 99.800781 269.925781 100.175781 269.625 100.425781 C 269.273438 100.675781 268.824219 100.800781 268.273438 100.800781 C 267.976562 100.800781 267.726562 100.773438 267.523438 100.726562 C 267.273438 100.625 267 100.523438 266.699219 100.425781 L 266.925781 99.824219 "/>
<path style=" stroke:none;fill-rule:nonzero;fill:rgb(0%,0%,100%);fill-opacity:1;" d="M 297.148438 81.523438 L 298.800781 84.300781 C 298.949219 84.5 299.101562 84.773438 299.25 85.125 C 299.449219 85.425781 299.550781 85.601562 299.550781 85.648438 L 299.550781 81.523438 L 300.226562 81.523438 L 300.226562 86.773438 L 299.550781 86.773438 L 297.675781 83.773438 C 297.523438 83.523438 297.375 83.273438 297.226562 83.023438 C 297.074219 82.726562 297 82.550781 297 82.5 L 297 86.773438 L 296.25 86.773438 L 296.25 81.523438 L 297.148438 81.523438 "/>
<path style=" stroke:none;fill-rule:nonzero;fill:rgb(0%,0%,100%);fill-opacity:1;" d="M 300.898438 81.523438 L 301.574219 81.523438 L 301.574219 83.773438 L 304.273438 83.773438 L 304.273438 81.523438 L 304.949219 81.523438 L 304.949219 86.773438 L 304.273438 86.773438 L 304.273438 84.375 L 301.574219 84.375 L 301.574219 86.773438 L 300.898438 86.773438 L 300.898438 81.523438 "/>
<path style=" stroke:none;fill-rule:nonzero;fill:rgb(0%,0%,100%);fill-opacity:1;" d="M 305.625 86.625 C 305.675781 86.375 305.800781 86.199219 306 86.101562 C 306.199219 86 306.449219 85.949219 306.75 85.949219 C 307.101562 85.949219 307.375 86.023438 307.574219 86.175781 C 307.773438 86.375 307.875 86.648438 307.875 87 C 307.875 87.351562 307.75 87.675781 307.5 87.976562 C 307.25 88.273438 306.851562 88.625 306.300781 89.023438 L 307.949219 89.023438 L 307.949219 89.398438 L 305.625 89.398438 L 305.625 89.101562 C 306.023438 88.800781 306.351562 88.523438 306.601562 88.273438 C 306.851562 88.074219 307.050781 87.851562 307.199219 87.601562 C 307.300781 87.398438 307.351562 87.199219 307.351562 87 C 307.351562 86.800781 307.300781 86.625 307.199219 86.476562 C 307.101562 86.375 306.949219 86.324219 306.75 86.324219 C 306.550781 86.324219 306.398438 86.351562 306.300781 86.398438 C 306.148438 86.5 306.050781 86.625 306 86.773438 L 305.625 86.625 "/>
<path style=" stroke:none;fill-rule:nonzero;fill:rgb(0%,0%,100%);fill-opacity:1;" d="M 290.773438 113.851562 L 292.5 116.625 C 292.601562 116.824219 292.75 117.101562 292.949219 117.449219 C 293.148438 117.75 293.25 117.925781 293.25 117.976562 L 293.25 113.851562 L 293.925781 113.851562 L 293.925781 119.101562 L 293.175781 119.101562 L 291.375 116.101562 C 291.226562 115.851562 291.074219 115.601562 290.925781 115.351562 C 290.773438 115.050781 290.675781 114.851562 290.625 114.75 L 290.625 119.101562 L 289.949219 119.101562 L 289.949219 113.851562 L 290.773438 113.851562 "/>
<path style=" stroke:none;fill-rule:nonzero;fill:rgb(80%,80%,0%);fill-opacity:1;" d="M 195.898438 135.601562 C 195.949219 135.601562 196.050781 135.625 196.199219 135.675781 C 196.351562 135.773438 196.523438 135.851562 196.726562 135.898438 C 196.875 135.898438 197.050781 135.898438 197.25 135.898438 C 197.601562 135.898438 197.851562 135.824219 198 135.675781 C 198.199219 135.523438 198.300781 135.300781 198.300781 135 C 198.300781 134.851562 198.25 134.699219 198.148438 134.550781 C 198.050781 134.449219 197.925781 134.375 197.773438 134.324219 C 197.625 134.226562 197.449219 134.148438 197.25 134.101562 C 196.898438 134 196.648438 133.898438 196.5 133.800781 C 196.300781 133.699219 196.125 133.574219 195.976562 133.425781 C 195.875 133.226562 195.824219 132.976562 195.824219 132.675781 C 195.824219 132.226562 195.976562 131.851562 196.273438 131.550781 C 196.574219 131.300781 197 131.175781 197.550781 131.175781 C 198 131.175781 198.449219 131.273438 198.898438 131.476562 L 198.675781 132 C 198.273438 131.851562 197.925781 131.773438 197.625 131.773438 C 197.273438 131.773438 197 131.851562 196.800781 132 C 196.601562 132.148438 196.523438 132.324219 196.574219 132.523438 C 196.574219 132.726562 196.601562 132.875 196.648438 132.976562 C 196.75 133.125 196.875 133.226562 197.023438 133.273438 C 197.175781 133.324219 197.375 133.398438 197.625 133.5 C 197.925781 133.601562 198.175781 133.699219 198.375 133.800781 C 198.574219 133.898438 198.726562 134.050781 198.824219 134.25 C 198.976562 134.449219 199.050781 134.699219 199.050781 135 C 199.050781 135.5 198.875 135.875 198.523438 136.125 C 198.226562 136.375 197.800781 136.5 197.25 136.5 C 196.949219 136.5 196.675781 136.476562 196.425781 136.425781 C 196.226562 136.375 195.976562 136.300781 195.675781 136.199219 L 195.898438 135.601562 "/>
<path style=" stroke:none;fill-rule:nonzero;fill:rgb(0%,0%,0%);fill-opacity:1;" d="M 234.375 214.351562 L 235.050781 214.351562 L 235.050781 216.523438 L 237.75 216.523438 L 237.75 214.351562 L 238.425781 214.351562 L 238.425781 219.523438 L 237.75 219.523438 L 237.75 217.125 L 235.050781 217.125 L 235.050781 219.523438 L 234.375 219.523438 L 234.375 214.351562 "/>
<path style=" stroke:none;fill-rule:nonzero;fill:rgb(0%,0%,0%);fill-opacity:1;" d="M 217.726562 129.074219 L 218.398438 129.074219 L 218.398438 131.25 L 221.101562 131.25 L 221.101562 129.074219 L 221.851562 129.074219 L 221.851562 134.25 L 221.101562 134.25 L 221.101562 131.851562 L 218.398438 131.851562 L 218.398438 134.25 L 217.726562 134.25 L 217.726562 129.074219 "/>
</g>
</svg>
