<?xml version="1.0" encoding="UTF-8"?>
<svg xmlns="http://www.w3.org/2000/svg" xmlns:xlink="http://www.w3.org/1999/xlink" width="375pt" height="375pt" viewBox="0 0 375 375" version="1.1">
<g id="surface96">
<rect x="0" y="0" width="375" height="375" style="fill:rgb(100%,100%,100%);fill-opacity:1;stroke:none;"/>
<path style="fill:none;stroke-width:2;stroke-linecap:butt;stroke-linejoin:miter;stroke:rgb(0%,0%,0%);stroke-opacity:1;stroke-miterlimit:4;" d="M 22.697917 270.598958 L 58.5 300.302083 " transform="matrix(0.75,0,0,0.75,0,0)"/>
<path style="fill:none;stroke-width:2;stroke-linecap:butt;stroke-linejoin:miter;stroke:rgb(0%,0%,0%);stroke-opacity:1;stroke-miterlimit:4;" d="M 63.098958 301.098958 L 59.901042 320 " transform="matrix(0.75,0,0,0.75,0,0)"/>
<path style="fill:none;stroke-width:2;stroke-linecap:butt;stroke-linejoin:miter;stroke:rgb(100%,0%,0%);stroke-opacity:1;stroke-miterlimit:4;" d="M 59.901042 320 L 56.697917 338.802083 " transform="matrix(0.75,0,0,0.75,0,0)"/>
<path style="fill:none;stroke-width:2;stroke-linecap:butt;stroke-linejoin:miter;stroke:rgb(0%,0%,0%);stroke-opacity:1;stroke-miterlimit:4;" d="M 54 299.5 L 50.697917 318.401042 " transform="matrix(0.75,0,0,0.75,0,0)"/>
<path style="fill:none;stroke-width:2;stroke-linecap:butt;stroke-linejoin:miter;stroke:rgb(100%,0%,0%);stroke-opacity:1;stroke-miterlimit:4;" d="M 50.697917 318.401042 L 47.5 337.197917 " transform="matrix(0.75,0,0,0.75,0,0)"/>
<path style="fill:none;stroke-width:2;stroke-linecap:butt;stroke-linejoin:miter;stroke:rgb(0%,0%,0%);stroke-opacity:1;stroke-miterlimit:4;" d="M 58.5 300.302083 L 76.598958 293.697917 " transform="matrix(0.75,0,0,0.75,0,0)"/>
<path style="fill:none;stroke-width:2;stroke-linecap:butt;stroke-linejoin:miter;stroke:rgb(100%,0%,0%);stroke-opacity:1;stroke-miterlimit:4;" d="M 76.598958 293.697917 L 94.598958 287 " transform="matrix(0.75,0,0,0.75,0,0)"/>
<path style="fill:none;stroke-width:2;stroke-linecap:butt;stroke-linejoin:miter;stroke:rgb(100%,0%,0%);stroke-opacity:1;stroke-miterlimit:4;" d="M 109.802083 290.5 L 123.901042 302.197917 " transform="matrix(0.75,0,0,0.75,0,0)"/>
<path style="fill:none;stroke-width:2;stroke-linecap:butt;stroke-linejoin:miter;stroke:rgb(0%,0%,0%);stroke-opacity:1;stroke-miterlimit:4;" d="M 123.901042 302.197917 L 138 313.901042 " transform="matrix(0.75,0,0,0.75,0,0)"/>
<path style="fill:none;stroke-width:2;stroke-linecap:butt;stroke-linejoin:miter;stroke:rgb(0%,0%,0%);stroke-opacity:1;stroke-miterlimit:4;" d="M 138 313.901042 L 181.697917 297.802083 " transform="matrix(0.75,0,0,0.75,0,0)"/>
<path style="fill:none;stroke-width:2;stroke-linecap:butt;stroke-linejoin:miter;stroke:rgb(0%,0%,0%);stroke-opacity:1;stroke-miterlimit:4;" d="M 181.697917 297.802083 L 189.598958 251.901042 " transform="matrix(0.75,0,0,0.75,0,0)"/>
<path style="fill:none;stroke-width:2;stroke-linecap:butt;stroke-linejoin:miter;stroke:rgb(0%,0%,0%);stroke-opacity:1;stroke-miterlimit:4;" d="M 192.098958 292.5 L 197.598958 260.401042 " transform="matrix(0.75,0,0,0.75,0,0)"/>
<path style="fill:none;stroke-width:2;stroke-linecap:butt;stroke-linejoin:miter;stroke:rgb(0%,0%,0%);stroke-opacity:1;stroke-miterlimit:4;" d="M 189.598958 251.901042 L 153.802083 222.098958 " transform="matrix(0.75,0,0,0.75,0,0)"/>
<path style="fill:none;stroke-width:2;stroke-linecap:butt;stroke-linejoin:miter;stroke:rgb(0%,0%,0%);stroke-opacity:1;stroke-miterlimit:4;" d="M 149.197917 221.401042 L 152.401042 202.598958 " transform="matrix(0.75,0,0,0.75,0,0)"/>
<path style="fill:none;stroke-width:2;stroke-linecap:butt;stroke-linejoin:miter;stroke:rgb(100%,0%,0%);stroke-opacity:1;stroke-miterlimit:4;" d="M 152.401042 202.598958 L 155.598958 183.901042 " transform="matrix(0.75,0,0,0.75,0,0)"/>
<path style="fill:none;stroke-width:2;stroke-linecap:butt;stroke-linejoin:miter;stroke:rgb(0%,0%,0%);stroke-opacity:1;stroke-miterlimit:4;" d="M 158.401042 222.901042 L 161.598958 204.197917 " transform="matrix(0.75,0,0,0.75,0,0)"/>
<path style="fill:none;stroke-width:2;stroke-linecap:butt;stroke-linejoin:miter;stroke:rgb(100%,0%,0%);stroke-opacity:1;stroke-miterlimit:4;" d="M 161.598958 204.197917 L 164.802083 185.401042 " transform="matrix(0.75,0,0,0.75,0,0)"/>
<path style="fill:none;stroke-width:2;stroke-linecap:butt;stroke-linejoin:miter;stroke:rgb(0%,0%,0%);stroke-opacity:1;stroke-miterlimit:4;" d="M 153.802083 222.098958 L 135.697917 228.802083 " transform="matrix(0.75,0,0,0.75,0,0)"/>
<path style="fill:none;stroke-width:2;stroke-linecap:butt;stroke-linejoin:miter;stroke:rgb(100%,0%,0%);stroke-opacity:1;stroke-miterlimit:4;" d="M 135.697917 228.802083 L 117.697917 235.5 " transform="matrix(0.75,0,0,0.75,0,0)"/>
<path style="fill:none;stroke-width:2;stroke-linecap:butt;stroke-linejoin:miter;stroke:rgb(0%,0%,0%);stroke-opacity:1;stroke-miterlimit:4;" d="M 189.598958 251.901042 L 208.197917 245 " transform="matrix(0.75,0,0,0.75,0,0)"/>
<path style="fill:none;stroke-width:2;stroke-linecap:butt;stroke-linejoin:miter;stroke:rgb(0%,0%,100%);stroke-opacity:1;stroke-miterlimit:4;" d="M 208.197917 245 L 226.697917 238.197917 " transform="matrix(0.75,0,0,0.75,0,0)"/>
<path style="fill:none;stroke-width:2;stroke-linecap:butt;stroke-linejoin:miter;stroke:rgb(0%,0%,100%);stroke-opacity:1;stroke-miterlimit:4;" d="M 239.802083 227.901042 L 251.401042 213.901042 " transform="matrix(0.75,0,0,0.75,0,0)"/>
<path style="fill:none;stroke-width:2;stroke-linecap:butt;stroke-linejoin:miter;stroke:rgb(0%,0%,0%);stroke-opacity:1;stroke-miterlimit:4;" d="M 251.401042 213.901042 L 263 199.901042 " transform="matrix(0.75,0,0,0.75,0,0)"/>
<path style="fill:none;stroke-width:2;stroke-linecap:butt;stroke-linejoin:miter;stroke:rgb(0%,0%,0%);stroke-opacity:1;stroke-miterlimit:4;" d="M 258.401042 200.401042 L 256.598958 181.401042 " transform="matrix(0.75,0,0,0.75,0,0)"/>
<path style="fill:none;stroke-width:2;stroke-linecap:butt;stroke-linejoin:miter;stroke:rgb(100%,0%,0%);stroke-opacity:1;stroke-miterlimit:4;" d="M 256.598958 181.401042 L 254.901042 162.401042 " transform="matrix(0.75,0,0,0.75,0,0)"/>
<path style="fill:none;stroke-width:2;stroke-linecap:butt;stroke-linejoin:miter;stroke:rgb(0%,0%,0%);stroke-opacity:1;stroke-miterlimit:4;" d="M 267.697917 199.5 L 265.901042 180.5 " transform="matrix(0.75,0,0,0.75,0,0)"/>
<path style="fill:none;stroke-width:2;stroke-linecap:butt;stroke-linejoin:miter;stroke:rgb(100%,0%,0%);stroke-opacity:1;stroke-miterlimit:4;" d="M 265.901042 180.5 L 264.197917 161.598958 " transform="matrix(0.75,0,0,0.75,0,0)"/>
<path style="fill:none;stroke-width:2;stroke-linecap:butt;stroke-linejoin:miter;stroke:rgb(0%,0%,0%);stroke-opacity:1;stroke-miterlimit:4;" d="M 263 199.901042 L 298.802083 229.697917 " transform="matrix(0.75,0,0,0.75,0,0)"/>
<path style="fill-rule:evenodd;fill:rgb(0%,0%,0%);fill-opacity:1;stroke-width:1;stroke-linecap:butt;stroke-linejoin:miter;stroke:rgb(0%,0%,0%);stroke-opacity:1;stroke-miterlimit:4;" d="M 298.802083 229.697917 L 317.802083 225.598958 L 318.197917 230.302083 Z M 298.802083 229.697917 " transform="matrix(0.75,0,0,0.75,0,0)"/>
<path style="fill-rule:evenodd;fill:rgb(0%,0%,100%);fill-opacity:1;stroke-width:1;stroke-linecap:butt;stroke-linejoin:miter;stroke:rgb(0%,0%,100%);stroke-opacity:1;stroke-miterlimit:4;" d="M 317.802083 225.598958 L 337.598958 230.802083 L 336.697917 221.5 Z M 317.802083 225.598958 " transform="matrix(0.75,0,0,0.75,0,0)"/>
<path style="fill-rule:evenodd;fill:rgb(0%,0%,100%);fill-opacity:1;stroke-width:1;stroke-linecap:butt;stroke-linejoin:miter;stroke:rgb(0%,0%,100%);stroke-opacity:1;stroke-miterlimit:4;" d="M 317.802083 225.598958 L 318.197917 230.302083 L 337.598958 230.802083 Z M 317.802083 225.598958 " transform="matrix(0.75,0,0,0.75,0,0)"/>
<path style="fill:none;stroke-width:2;stroke-linecap:butt;stroke-linejoin:miter;stroke:rgb(0%,0%,100%);stroke-opacity:1;stroke-miterlimit:4;" d="M 351 233.598958 L 361.5 248.5 " transform="matrix(0.75,0,0,0.75,0,0)"/>
<path style="fill:none;stroke-width:2;stroke-linecap:butt;stroke-linejoin:miter;stroke:rgb(0%,0%,0%);stroke-opacity:1;stroke-miterlimit:4;" d="M 361.5 248.5 L 372.098958 263.401042 " transform="matrix(0.75,0,0,0.75,0,0)"/>
<path style="fill:none;stroke-width:2;stroke-linecap:butt;stroke-linejoin:miter;stroke:rgb(0%,0%,0%);stroke-opacity:1;stroke-miterlimit:4;" d="M 376.302083 265.401042 L 368.5 282.401042 " transform="matrix(0.75,0,0,0.75,0,0)"/>
<path style="fill:none;stroke-width:2;stroke-linecap:butt;stroke-linejoin:miter;stroke:rgb(100%,0%,0%);stroke-opacity:1;stroke-miterlimit:4;" d="M 368.5 282.401042 L 360.598958 299.5 " transform="matrix(0.75,0,0,0.75,0,0)"/>
<path style="fill:none;stroke-width:2;stroke-linecap:butt;stroke-linejoin:miter;stroke:rgb(0%,0%,0%);stroke-opacity:1;stroke-miterlimit:4;" d="M 367.901042 261.5 L 360 278.5 " transform="matrix(0.75,0,0,0.75,0,0)"/>
<path style="fill:none;stroke-width:2;stroke-linecap:butt;stroke-linejoin:miter;stroke:rgb(100%,0%,0%);stroke-opacity:1;stroke-miterlimit:4;" d="M 360 278.5 L 352.197917 295.598958 " transform="matrix(0.75,0,0,0.75,0,0)"/>
<path style="fill:none;stroke-width:2;stroke-linecap:butt;stroke-linejoin:miter;stroke:rgb(0%,0%,0%);stroke-opacity:1;stroke-miterlimit:4;" d="M 372.098958 263.401042 L 418.5 259.197917 " transform="matrix(0.75,0,0,0.75,0,0)"/>
<path style="fill:none;stroke-width:2;stroke-linecap:butt;stroke-linejoin:miter;stroke:rgb(0%,0%,0%);stroke-opacity:1;stroke-miterlimit:4;" d="M 418.5 259.197917 L 445.401042 297.197917 " transform="matrix(0.75,0,0,0.75,0,0)"/>
<path style="fill:none;stroke-width:2;stroke-linecap:butt;stroke-linejoin:miter;stroke:rgb(0%,0%,0%);stroke-opacity:1;stroke-miterlimit:4;" d="M 445.401042 297.197917 L 455.901042 312.098958 " transform="matrix(0.75,0,0,0.75,0,0)"/>
<path style="fill:none;stroke-width:2;stroke-linecap:butt;stroke-linejoin:miter;stroke:rgb(0%,0%,100%);stroke-opacity:1;stroke-miterlimit:4;" d="M 455.901042 312.098958 L 466.5 327.098958 " transform="matrix(0.75,0,0,0.75,0,0)"/>
<path style="fill:none;stroke-width:2;stroke-linecap:butt;stroke-linejoin:miter;stroke:rgb(0%,0%,0%);stroke-opacity:1;stroke-miterlimit:4;" d="M 456.197917 296.302083 L 465.098958 309 " transform="matrix(0.75,0,0,0.75,0,0)"/>
<path style="fill:none;stroke-width:2;stroke-linecap:butt;stroke-linejoin:miter;stroke:rgb(0%,0%,100%);stroke-opacity:1;stroke-miterlimit:4;" d="M 465.098958 309 L 474.098958 321.697917 " transform="matrix(0.75,0,0,0.75,0,0)"/>
<path style="fill:none;stroke-width:2;stroke-linecap:butt;stroke-linejoin:miter;stroke:rgb(0%,0%,0%);stroke-opacity:1;stroke-miterlimit:4;" d="M 440.901042 307 L 449.901042 319.697917 " transform="matrix(0.75,0,0,0.75,0,0)"/>
<path style="fill:none;stroke-width:2;stroke-linecap:butt;stroke-linejoin:miter;stroke:rgb(0%,0%,100%);stroke-opacity:1;stroke-miterlimit:4;" d="M 449.901042 319.697917 L 458.901042 332.401042 " transform="matrix(0.75,0,0,0.75,0,0)"/>
<path style="fill:none;stroke-width:2;stroke-linecap:butt;stroke-linejoin:miter;stroke:rgb(0%,0%,0%);stroke-opacity:1;stroke-miterlimit:4;" d="M 298.802083 229.697917 L 269.098958 265.5 " transform="matrix(0.75,0,0,0.75,0,0)"/>
<path style="fill:none;stroke-width:2;stroke-linecap:butt;stroke-linejoin:miter;stroke:rgb(0%,0%,0%);stroke-opacity:1;stroke-miterlimit:4;" d="M 269.098958 265.5 L 265.901042 284.401042 " transform="matrix(0.75,0,0,0.75,0,0)"/>
<path style="fill:none;stroke-width:2;stroke-linecap:butt;stroke-linejoin:miter;stroke:rgb(80%,80%,0%);stroke-opacity:1;stroke-miterlimit:4;" d="M 265.901042 284.401042 L 262.598958 303.302083 " transform="matrix(0.75,0,0,0.75,0,0)"/>
<path style="fill:none;stroke-width:2;stroke-linecap:butt;stroke-linejoin:miter;stroke:rgb(80%,80%,0%);stroke-opacity:1;stroke-miterlimit:4;" d="M 255.5 313.598958 L 236.5 320.598958 " transform="matrix(0.75,0,0,0.75,0,0)"/>
<path style="fill:none;stroke-width:2;stroke-linecap:butt;stroke-linejoin:miter;stroke:rgb(0%,0%,0%);stroke-opacity:1;stroke-miterlimit:4;" d="M 236.5 320.598958 L 217.5 327.598958 " transform="matrix(0.75,0,0,0.75,0,0)"/>
<path style="fill:none;stroke-width:2;stroke-linecap:butt;stroke-linejoin:miter;stroke:rgb(0%,0%,0%);stroke-opacity:1;stroke-miterlimit:4;" d="M 217.5 327.598958 L 181.697917 297.802083 " transform="matrix(0.75,0,0,0.75,0,0)"/>
<path style="fill:none;stroke-width:2;stroke-linecap:butt;stroke-linejoin:miter;stroke:rgb(0%,0%,0%);stroke-opacity:1;stroke-miterlimit:4;" d="M 269.098958 265.5 L 254.401042 253.401042 " transform="matrix(0.75,0,0,0.75,0,0)"/>
<path style="fill:none;stroke-width:2;stroke-linecap:butt;stroke-linejoin:miter;stroke:rgb(0%,0%,100%);stroke-opacity:1;stroke-miterlimit:4;" d="M 254.401042 253.401042 L 239.802083 241.197917 " transform="matrix(0.75,0,0,0.75,0,0)"/>
<path style="fill:none;stroke-width:1;stroke-linecap:butt;stroke-linejoin:miter;stroke:rgb(0%,0%,0%);stroke-opacity:1;stroke-miterlimit:4;" d="M 274.401042 268.802083 L 275.098958 267.401042 " transform="matrix(0.75,0,0,0.75,0,0)"/>
<path style="fill:none;stroke-width:1;stroke-linecap:butt;stroke-linejoin:miter;stroke:rgb(0%,0%,0%);stroke-opacity:1;stroke-miterlimit:4;" d="M 279.802083 272.197917 L 281.098958 269.302083 " transform="matrix(0.75,0,0,0.75,0,0)"/>
<path style="fill:none;stroke-width:1;stroke-linecap:butt;stroke-linejoin:miter;stroke:rgb(0%,0%,0%);stroke-opacity:1;stroke-miterlimit:4;" d="M 285.098958 275.5 L 287.098958 271.302083 " transform="matrix(0.75,0,0,0.75,0,0)"/>
<path style="fill:none;stroke-width:1;stroke-linecap:butt;stroke-linejoin:miter;stroke:rgb(0%,0%,0%);stroke-opacity:1;stroke-miterlimit:4;" d="M 290.5 278.802083 L 293.098958 273.197917 " transform="matrix(0.75,0,0,0.75,0,0)"/>
<path style="fill:none;stroke-width:1;stroke-linecap:butt;stroke-linejoin:miter;stroke:rgb(0%,0%,0%);stroke-opacity:1;stroke-miterlimit:4;" d="M 295.901042 282.098958 L 299.098958 275.098958 " transform="matrix(0.75,0,0,0.75,0,0)"/>
<path style="fill:none;stroke-width:1;stroke-linecap:butt;stroke-linejoin:miter;stroke:rgb(0%,0%,0%);stroke-opacity:1;stroke-miterlimit:4;" d="M 301.197917 285.401042 L 305.098958 277 " transform="matrix(0.75,0,0,0.75,0,0)"/>
<path style=" stroke:none;fill-rule:nonzero;fill:rgb(100%,0%,0%);fill-opacity:1;" d="M 33.449219 259.726562 C 33.449219 258.125 33.851562 256.875 34.648438 255.976562 C 35.449219 255.074219 36.574219 254.625 38.023438 254.625 C 39.476562 254.625 40.601562 255.074219 41.398438 255.976562 C 42.148438 256.875 42.523438 258.125 42.523438 259.726562 C 42.523438 261.324219 42.125 262.574219 41.324219 263.476562 C 40.574219 264.375 39.476562 264.824219 38.023438 264.824219 C 36.574219 264.824219 35.449219 264.375 34.648438 263.476562 C 33.851562 262.574219 33.449219 261.324219 33.449219 259.726562 M 38.023438 263.699219 C 39.023438 263.699219 39.800781 263.375 40.351562 262.726562 C 40.898438 262.023438 41.175781 261.023438 41.175781 259.726562 C 41.175781 258.425781 40.898438 257.449219 40.351562 256.800781 C 39.800781 256.101562 39.023438 255.75 38.023438 255.75 C 37.023438 255.75 36.25 256.074219 35.699219 256.726562 C 35.148438 257.375 34.875 258.375 34.875 259.726562 C 34.875 261.023438 35.148438 262.023438 35.699219 262.726562 C 36.25 263.375 37.023438 263.699219 38.023438 263.699219 "/>
<path style=" stroke:none;fill-rule:nonzero;fill:rgb(100%,0%,0%);fill-opacity:1;" d="M 72.148438 213.148438 C 72.148438 211.601562 72.523438 210.375 73.273438 209.476562 C 74.074219 208.574219 75.199219 208.125 76.648438 208.125 C 78.148438 208.125 79.273438 208.574219 80.023438 209.476562 C 80.824219 210.375 81.226562 211.601562 81.226562 213.148438 C 81.226562 214.75 80.824219 216 80.023438 216.898438 C 79.226562 217.851562 78.101562 218.324219 76.648438 218.324219 C 75.199219 218.324219 74.074219 217.851562 73.273438 216.898438 C 72.523438 216 72.148438 214.75 72.148438 213.148438 M 76.648438 217.199219 C 77.648438 217.199219 78.425781 216.851562 78.976562 216.148438 C 79.523438 215.5 79.800781 214.5 79.800781 213.148438 C 79.800781 211.851562 79.523438 210.875 78.976562 210.226562 C 78.425781 209.574219 77.648438 209.25 76.648438 209.25 C 75.648438 209.25 74.875 209.574219 74.324219 210.226562 C 73.773438 210.875 73.5 211.851562 73.5 213.148438 C 73.5 214.5 73.773438 215.5 74.324219 216.148438 C 74.875 216.851562 75.648438 217.199219 76.648438 217.199219 "/>
<path style=" stroke:none;fill-rule:nonzero;fill:rgb(100%,0%,0%);fill-opacity:1;" d="M 116.699219 132.226562 C 116.699219 130.625 117.074219 129.375 117.824219 128.476562 C 118.625 127.625 119.75 127.199219 121.199219 127.199219 C 122.699219 127.199219 123.824219 127.625 124.574219 128.476562 C 125.375 129.375 125.773438 130.625 125.773438 132.226562 C 125.773438 133.824219 125.375 135.074219 124.574219 135.976562 C 123.773438 136.875 122.648438 137.324219 121.199219 137.324219 C 119.75 137.324219 118.625 136.875 117.824219 135.976562 C 117.074219 135.074219 116.699219 133.824219 116.699219 132.226562 M 121.199219 136.199219 C 122.199219 136.199219 122.976562 135.875 123.523438 135.226562 C 124.074219 134.523438 124.351562 133.523438 124.351562 132.226562 C 124.351562 130.925781 124.074219 129.949219 123.523438 129.300781 C 122.976562 128.648438 122.199219 128.324219 121.199219 128.324219 C 120.199219 128.324219 119.425781 128.648438 118.875 129.300781 C 118.324219 129.949219 118.050781 130.925781 118.050781 132.226562 C 118.050781 133.523438 118.324219 134.523438 118.875 135.226562 C 119.425781 135.875 120.199219 136.199219 121.199219 136.199219 "/>
<path style=" stroke:none;fill-rule:nonzero;fill:rgb(100%,0%,0%);fill-opacity:1;" d="M 69.074219 173.851562 L 70.425781 173.851562 L 70.425781 178.050781 L 75.523438 178.050781 L 75.523438 173.851562 L 76.875 173.851562 L 76.875 183.675781 L 75.523438 183.675781 L 75.523438 179.175781 L 70.425781 179.175781 L 70.425781 183.675781 L 69.074219 183.675781 L 69.074219 173.851562 "/>
<path style=" stroke:none;fill-rule:nonzero;fill:rgb(100%,0%,0%);fill-opacity:1;" d="M 78 178.726562 C 78 177.175781 78.398438 175.949219 79.199219 175.050781 C 80 174.148438 81.125 173.699219 82.574219 173.699219 C 84.023438 173.699219 85.148438 174.148438 85.949219 175.050781 C 86.699219 175.949219 87.074219 177.175781 87.074219 178.726562 C 87.074219 180.324219 86.699219 181.574219 85.949219 182.476562 C 85.148438 183.425781 84.023438 183.898438 82.574219 183.898438 C 81.125 183.898438 80 183.425781 79.199219 182.476562 C 78.398438 181.574219 78 180.324219 78 178.726562 M 82.574219 182.773438 C 83.574219 182.773438 84.351562 182.425781 84.898438 181.726562 C 85.449219 181.074219 85.726562 180.074219 85.726562 178.726562 C 85.726562 177.425781 85.449219 176.449219 84.898438 175.800781 C 84.351562 175.148438 83.574219 174.824219 82.574219 174.824219 C 81.574219 174.824219 80.800781 175.148438 80.25 175.800781 C 79.699219 176.449219 79.425781 177.425781 79.425781 178.726562 C 79.425781 180.074219 79.699219 181.074219 80.25 181.726562 C 80.800781 182.425781 81.574219 182.773438 82.574219 182.773438 "/>
<path style=" stroke:none;fill-rule:nonzero;fill:rgb(0%,0%,100%);fill-opacity:1;" d="M 172.800781 171.898438 L 176.023438 177.148438 C 176.226562 177.449219 176.5 177.925781 176.851562 178.574219 C 177.199219 179.175781 177.375 179.5 177.375 179.550781 L 177.375 171.898438 L 178.726562 171.898438 L 178.726562 181.800781 L 177.375 181.800781 L 173.851562 176.023438 C 173.601562 175.574219 173.324219 175.101562 173.023438 174.601562 C 172.773438 174.101562 172.601562 173.773438 172.5 173.625 L 172.5 181.800781 L 171.226562 181.800781 L 171.226562 171.898438 L 172.800781 171.898438 "/>
<path style=" stroke:none;fill-rule:nonzero;fill:rgb(100%,0%,0%);fill-opacity:1;" d="M 189.523438 115.199219 C 189.523438 113.601562 189.925781 112.375 190.726562 111.523438 C 191.476562 110.625 192.574219 110.175781 194.023438 110.175781 C 195.523438 110.175781 196.648438 110.625 197.398438 111.523438 C 198.199219 112.375 198.601562 113.601562 198.601562 115.199219 C 198.601562 116.800781 198.199219 118.050781 197.398438 118.949219 C 196.601562 119.898438 195.476562 120.375 194.023438 120.375 C 192.574219 120.375 191.476562 119.898438 190.726562 118.949219 C 189.925781 118.050781 189.523438 116.800781 189.523438 115.199219 M 194.023438 119.25 C 195.074219 119.25 195.851562 118.898438 196.351562 118.199219 C 196.898438 117.550781 197.175781 116.550781 197.175781 115.199219 C 197.175781 113.898438 196.898438 112.925781 196.351562 112.273438 C 195.851562 111.625 195.074219 111.300781 194.023438 111.300781 C 193.023438 111.300781 192.25 111.625 191.699219 112.273438 C 191.199219 112.925781 190.949219 113.898438 190.949219 115.199219 C 190.949219 116.550781 191.199219 117.550781 191.699219 118.199219 C 192.25 118.898438 193.023438 119.25 194.023438 119.25 "/>
<path style=" stroke:none;fill-rule:nonzero;fill:rgb(0%,0%,100%);fill-opacity:1;" d="M 256.726562 164.101562 L 259.949219 169.351562 C 260.199219 169.699219 260.476562 170.199219 260.773438 170.851562 C 261.125 171.449219 261.324219 171.773438 261.375 171.824219 L 261.375 164.101562 L 262.648438 164.101562 L 262.648438 174 L 261.300781 174 L 257.851562 168.300781 C 257.550781 167.851562 257.273438 167.375 257.023438 166.875 C 256.726562 166.324219 256.523438 165.976562 256.425781 165.824219 L 256.425781 174 L 255.148438 174 L 255.148438 164.101562 L 256.726562 164.101562 "/>
<path style=" stroke:none;fill-rule:nonzero;fill:rgb(0%,0%,100%);fill-opacity:1;" d="M 263.851562 164.101562 L 265.199219 164.101562 L 265.199219 168.300781 L 270.226562 168.300781 L 270.226562 164.101562 L 271.574219 164.101562 L 271.574219 174 L 270.226562 174 L 270.226562 169.425781 L 265.199219 169.425781 L 265.199219 174 L 263.851562 174 L 263.851562 164.101562 "/>
<path style=" stroke:none;fill-rule:nonzero;fill:rgb(100%,0%,0%);fill-opacity:1;" d="M 259.949219 229.351562 C 259.949219 227.75 260.324219 226.5 261.074219 225.601562 C 261.875 224.75 263 224.324219 264.449219 224.324219 C 265.949219 224.324219 267.074219 224.75 267.824219 225.601562 C 268.625 226.5 269.023438 227.75 269.023438 229.351562 C 269.023438 230.949219 268.625 232.199219 267.824219 233.101562 C 267.023438 234 265.898438 234.449219 264.449219 234.449219 C 263 234.449219 261.875 234 261.074219 233.101562 C 260.324219 232.199219 259.949219 230.949219 259.949219 229.351562 M 264.449219 233.324219 C 265.449219 233.324219 266.226562 233 266.773438 232.351562 C 267.324219 231.648438 267.601562 230.648438 267.601562 229.351562 C 267.601562 228.050781 267.324219 227.074219 266.773438 226.425781 C 266.226562 225.773438 265.449219 225.449219 264.449219 225.449219 C 263.449219 225.449219 262.675781 225.773438 262.125 226.425781 C 261.574219 227.074219 261.300781 228.050781 261.300781 229.351562 C 261.300781 230.648438 261.574219 231.648438 262.125 232.351562 C 262.675781 233 263.449219 233.324219 264.449219 233.324219 "/>
<path style=" stroke:none;fill-rule:nonzero;fill:rgb(0%,0%,100%);fill-opacity:1;" d="M 352.050781 246.449219 L 355.273438 251.699219 C 355.476562 252.050781 355.75 252.523438 356.101562 253.125 C 356.449219 253.773438 356.625 254.101562 356.625 254.101562 L 356.625 246.449219 L 357.976562 246.449219 L 357.976562 256.351562 L 356.625 256.351562 L 353.101562 250.648438 C 352.851562 250.199219 352.574219 249.699219 352.273438 249.148438 C 352.023438 248.648438 351.851562 248.324219 351.75 248.175781 L 351.75 256.351562 L 350.476562 256.351562 L 350.476562 246.449219 L 352.050781 246.449219 "/>
<path style=" stroke:none;fill-rule:nonzero;fill:rgb(80%,80%,0%);fill-opacity:1;" d="M 193.125 237 C 193.175781 237 193.375 237.074219 193.726562 237.226562 C 194.023438 237.324219 194.324219 237.425781 194.625 237.523438 C 194.976562 237.574219 195.324219 237.601562 195.675781 237.601562 C 196.324219 237.601562 196.824219 237.449219 197.175781 237.148438 C 197.523438 236.851562 197.699219 236.449219 197.699219 235.949219 C 197.699219 235.550781 197.601562 235.25 197.398438 235.050781 C 197.25 234.851562 197.023438 234.675781 196.726562 234.523438 C 196.476562 234.425781 196.101562 234.300781 195.601562 234.148438 C 195.050781 233.949219 194.601562 233.773438 194.25 233.625 C 193.898438 233.476562 193.601562 233.226562 193.351562 232.875 C 193.101562 232.476562 192.976562 232 192.976562 231.449219 C 192.976562 230.601562 193.25 229.925781 193.800781 229.425781 C 194.351562 228.875 195.199219 228.601562 196.351562 228.601562 C 197.101562 228.601562 197.898438 228.800781 198.75 229.199219 L 198.449219 230.25 C 197.648438 229.949219 196.949219 229.800781 196.351562 229.800781 C 195.699219 229.800781 195.199219 229.925781 194.851562 230.175781 C 194.5 230.425781 194.324219 230.773438 194.324219 231.226562 C 194.324219 231.574219 194.425781 231.875 194.625 232.125 C 194.824219 232.324219 195.050781 232.476562 195.300781 232.574219 C 195.550781 232.726562 195.898438 232.875 196.351562 233.023438 C 196.949219 233.175781 197.425781 233.351562 197.773438 233.550781 C 198.125 233.75 198.425781 234.023438 198.675781 234.375 C 198.976562 234.773438 199.125 235.300781 199.125 235.949219 C 199.125 236.851562 198.800781 237.550781 198.148438 238.050781 C 197.550781 238.550781 196.75 238.800781 195.75 238.800781 C 195.148438 238.800781 194.625 238.726562 194.175781 238.574219 C 193.726562 238.476562 193.25 238.300781 192.75 238.050781 L 193.125 237 "/>
<path style=" stroke:none;fill-rule:nonzero;fill:rgb(0%,0%,0%);fill-opacity:1;" d="M 229.648438 208.800781 L 231 208.800781 L 231 213 L 236.101562 213 L 236.101562 208.800781 L 237.375 208.800781 L 237.375 218.699219 L 236.101562 218.699219 L 236.101562 214.125 L 231 214.125 L 231 218.699219 L 229.648438 218.699219 L 229.648438 208.800781 "/>
</g>
</svg>
