<?xml version="1.0" encoding="UTF-8"?>
<svg xmlns="http://www.w3.org/2000/svg" xmlns:xlink="http://www.w3.org/1999/xlink" width="375pt" height="375pt" viewBox="0 0 375 375" version="1.1">
<g id="surface151">
<rect x="0" y="0" width="375" height="375" style="fill:rgb(100%,100%,100%);fill-opacity:1;stroke:none;"/>
<path style="fill:none;stroke-width:2;stroke-linecap:butt;stroke-linejoin:miter;stroke:rgb(0%,0%,0%);stroke-opacity:1;stroke-miterlimit:4;" d="M 61.901042 167.098958 L 60.302083 181.901042 " transform="matrix(0.75,0,0,0.75,0,0)"/>
<path style="fill:none;stroke-width:2;stroke-linecap:butt;stroke-linejoin:miter;stroke:rgb(0%,0%,100%);stroke-opacity:1;stroke-miterlimit:4;" d="M 60.302083 181.901042 L 58.697917 196.697917 " transform="matrix(0.75,0,0,0.75,0,0)"/>
<path style="fill:none;stroke-width:2;stroke-linecap:butt;stroke-linejoin:miter;stroke:rgb(0%,0%,100%);stroke-opacity:1;stroke-miterlimit:4;" d="M 52.901042 205.901042 L 31.697917 218.098958 " transform="matrix(0.75,0,0,0.75,0,0)"/>
<path style="fill:none;stroke-width:2;stroke-linecap:butt;stroke-linejoin:miter;stroke:rgb(0%,0%,100%);stroke-opacity:1;stroke-miterlimit:4;" d="M 27.901042 227.302083 L 32.697917 250 " transform="matrix(0.75,0,0,0.75,0,0)"/>
<path style="fill:none;stroke-width:2;stroke-linecap:butt;stroke-linejoin:miter;stroke:rgb(0%,0%,100%);stroke-opacity:1;stroke-miterlimit:4;" d="M 33.197917 226.197917 L 38 248.901042 " transform="matrix(0.75,0,0,0.75,0,0)"/>
<path style="fill:none;stroke-width:2;stroke-linecap:butt;stroke-linejoin:miter;stroke:rgb(0%,0%,100%);stroke-opacity:1;stroke-miterlimit:4;" d="M 39.098958 256.901042 L 64.901042 259.697917 " transform="matrix(0.75,0,0,0.75,0,0)"/>
<path style="fill:none;stroke-width:2;stroke-linecap:butt;stroke-linejoin:miter;stroke:rgb(0%,0%,100%);stroke-opacity:1;stroke-miterlimit:4;" d="M 72.802083 253.901042 L 78.802083 240.598958 " transform="matrix(0.75,0,0,0.75,0,0)"/>
<path style="fill:none;stroke-width:2;stroke-linecap:butt;stroke-linejoin:miter;stroke:rgb(0%,0%,0%);stroke-opacity:1;stroke-miterlimit:4;" d="M 78.802083 240.598958 L 84.802083 227.302083 " transform="matrix(0.75,0,0,0.75,0,0)"/>
<path style="fill:none;stroke-width:2;stroke-linecap:butt;stroke-linejoin:miter;stroke:rgb(0%,0%,100%);stroke-opacity:1;stroke-miterlimit:4;" d="M 67.802083 251.697917 L 73 240.197917 " transform="matrix(0.75,0,0,0.75,0,0)"/>
<path style="fill:none;stroke-width:2;stroke-linecap:butt;stroke-linejoin:miter;stroke:rgb(0%,0%,0%);stroke-opacity:1;stroke-miterlimit:4;" d="M 73 240.197917 L 78.197917 228.598958 " transform="matrix(0.75,0,0,0.75,0,0)"/>
<path style="fill:none;stroke-width:2;stroke-linecap:butt;stroke-linejoin:miter;stroke:rgb(0%,0%,0%);stroke-opacity:1;stroke-miterlimit:4;" d="M 84.802083 227.302083 L 100.197917 224 " transform="matrix(0.75,0,0,0.75,0,0)"/>
<path style="fill:none;stroke-width:2;stroke-linecap:butt;stroke-linejoin:miter;stroke:rgb(80%,80%,0%);stroke-opacity:1;stroke-miterlimit:4;" d="M 100.197917 224 L 115.697917 220.802083 " transform="matrix(0.75,0,0,0.75,0,0)"/>
<path style="fill:none;stroke-width:2;stroke-linecap:butt;stroke-linejoin:miter;stroke:rgb(80%,80%,0%);stroke-opacity:1;stroke-miterlimit:4;" d="M 124.598958 224.901042 L 134.401042 235.802083 " transform="matrix(0.75,0,0,0.75,0,0)"/>
<path style="fill:none;stroke-width:2;stroke-linecap:butt;stroke-linejoin:miter;stroke:rgb(0%,0%,0%);stroke-opacity:1;stroke-miterlimit:4;" d="M 134.401042 235.802083 L 144.197917 246.802083 " transform="matrix(0.75,0,0,0.75,0,0)"/>
<path style="fill:none;stroke-width:2;stroke-linecap:butt;stroke-linejoin:miter;stroke:rgb(0%,0%,0%);stroke-opacity:1;stroke-miterlimit:4;" d="M 144.197917 246.802083 L 179.598958 239.401042 " transform="matrix(0.75,0,0,0.75,0,0)"/>
<path style="fill:none;stroke-width:2;stroke-linecap:butt;stroke-linejoin:miter;stroke:rgb(0%,0%,0%);stroke-opacity:1;stroke-miterlimit:4;" d="M 179.598958 239.401042 L 203.697917 266.302083 " transform="matrix(0.75,0,0,0.75,0,0)"/>
<path style="fill:none;stroke-width:2;stroke-linecap:butt;stroke-linejoin:miter;stroke:rgb(0%,0%,0%);stroke-opacity:1;stroke-miterlimit:4;" d="M 185.697917 238.098958 L 205.697917 260.401042 " transform="matrix(0.75,0,0,0.75,0,0)"/>
<path style="fill:none;stroke-width:2;stroke-linecap:butt;stroke-linejoin:miter;stroke:rgb(0%,0%,0%);stroke-opacity:1;stroke-miterlimit:4;" d="M 203.697917 266.302083 L 192.401042 300.697917 " transform="matrix(0.75,0,0,0.75,0,0)"/>
<path style="fill:none;stroke-width:2;stroke-linecap:butt;stroke-linejoin:miter;stroke:rgb(0%,0%,0%);stroke-opacity:1;stroke-miterlimit:4;" d="M 189.401042 301.302083 L 199.098958 312.197917 " transform="matrix(0.75,0,0,0.75,0,0)"/>
<path style="fill:none;stroke-width:2;stroke-linecap:butt;stroke-linejoin:miter;stroke:rgb(100%,0%,0%);stroke-opacity:1;stroke-miterlimit:4;" d="M 199.098958 312.197917 L 208.802083 323 " transform="matrix(0.75,0,0,0.75,0,0)"/>
<path style="fill:none;stroke-width:2;stroke-linecap:butt;stroke-linejoin:miter;stroke:rgb(0%,0%,0%);stroke-opacity:1;stroke-miterlimit:4;" d="M 193.401042 297.697917 L 203.098958 308.598958 " transform="matrix(0.75,0,0,0.75,0,0)"/>
<path style="fill:none;stroke-width:2;stroke-linecap:butt;stroke-linejoin:miter;stroke:rgb(100%,0%,0%);stroke-opacity:1;stroke-miterlimit:4;" d="M 203.098958 308.598958 L 212.901042 319.401042 " transform="matrix(0.75,0,0,0.75,0,0)"/>
<path style="fill:none;stroke-width:2;stroke-linecap:butt;stroke-linejoin:miter;stroke:rgb(0%,0%,0%);stroke-opacity:1;stroke-miterlimit:4;" d="M 192.401042 300.697917 L 177.697917 303.802083 " transform="matrix(0.75,0,0,0.75,0,0)"/>
<path style="fill:none;stroke-width:2;stroke-linecap:butt;stroke-linejoin:miter;stroke:rgb(100%,0%,0%);stroke-opacity:1;stroke-miterlimit:4;" d="M 177.697917 303.802083 L 162.901042 306.802083 " transform="matrix(0.75,0,0,0.75,0,0)"/>
<path style="fill:none;stroke-width:2;stroke-linecap:butt;stroke-linejoin:miter;stroke:rgb(0%,0%,0%);stroke-opacity:1;stroke-miterlimit:4;" d="M 203.697917 266.302083 L 218.901042 263.197917 " transform="matrix(0.75,0,0,0.75,0,0)"/>
<path style="fill:none;stroke-width:2;stroke-linecap:butt;stroke-linejoin:miter;stroke:rgb(0%,0%,100%);stroke-opacity:1;stroke-miterlimit:4;" d="M 218.901042 263.197917 L 234 260 " transform="matrix(0.75,0,0,0.75,0,0)"/>
<path style="fill:none;stroke-width:2;stroke-linecap:butt;stroke-linejoin:miter;stroke:rgb(0%,0%,100%);stroke-opacity:1;stroke-miterlimit:4;" d="M 244.197917 260.598958 L 258.802083 265.401042 " transform="matrix(0.75,0,0,0.75,0,0)"/>
<path style="fill:none;stroke-width:2;stroke-linecap:butt;stroke-linejoin:miter;stroke:rgb(0%,0%,0%);stroke-opacity:1;stroke-miterlimit:4;" d="M 258.802083 265.401042 L 273.401042 270.197917 " transform="matrix(0.75,0,0,0.75,0,0)"/>
<path style="fill:none;stroke-width:2;stroke-linecap:butt;stroke-linejoin:miter;stroke:rgb(0%,0%,0%);stroke-opacity:1;stroke-miterlimit:4;" d="M 269.802083 269 L 276.901042 283.197917 " transform="matrix(0.75,0,0,0.75,0,0)"/>
<path style="fill:none;stroke-width:2;stroke-linecap:butt;stroke-linejoin:miter;stroke:rgb(100%,0%,0%);stroke-opacity:1;stroke-miterlimit:4;" d="M 276.901042 283.197917 L 284.098958 297.302083 " transform="matrix(0.75,0,0,0.75,0,0)"/>
<path style="fill:none;stroke-width:2;stroke-linecap:butt;stroke-linejoin:miter;stroke:rgb(0%,0%,0%);stroke-opacity:1;stroke-miterlimit:4;" d="M 274.598958 266.598958 L 281.802083 280.697917 " transform="matrix(0.75,0,0,0.75,0,0)"/>
<path style="fill:none;stroke-width:2;stroke-linecap:butt;stroke-linejoin:miter;stroke:rgb(100%,0%,0%);stroke-opacity:1;stroke-miterlimit:4;" d="M 281.802083 280.697917 L 288.901042 294.901042 " transform="matrix(0.75,0,0,0.75,0,0)"/>
<path style="fill:none;stroke-width:2;stroke-linecap:butt;stroke-linejoin:miter;stroke:rgb(0%,0%,0%);stroke-opacity:1;stroke-miterlimit:4;" d="M 273.401042 270.197917 L 284.697917 235.901042 " transform="matrix(0.75,0,0,0.75,0,0)"/>
<path style="fill:none;stroke-width:1;stroke-linecap:butt;stroke-linejoin:miter;stroke:rgb(0%,0%,0%);stroke-opacity:1;stroke-miterlimit:4;" d="M 288.098958 234.598958 L 287.802083 233.901042 " transform="matrix(0.75,0,0,0.75,0,0)"/>
<path style="fill:none;stroke-width:1;stroke-linecap:butt;stroke-linejoin:miter;stroke:rgb(0%,0%,0%);stroke-opacity:1;stroke-miterlimit:4;" d="M 291.5 233.302083 L 290.802083 231.901042 " transform="matrix(0.75,0,0,0.75,0,0)"/>
<path style="fill:none;stroke-width:1;stroke-linecap:butt;stroke-linejoin:miter;stroke:rgb(0%,0%,0%);stroke-opacity:1;stroke-miterlimit:4;" d="M 295 232 L 293.901042 229.901042 " transform="matrix(0.75,0,0,0.75,0,0)"/>
<path style="fill:none;stroke-width:1;stroke-linecap:butt;stroke-linejoin:miter;stroke:rgb(0%,0%,0%);stroke-opacity:1;stroke-miterlimit:4;" d="M 298.401042 230.697917 L 297 227.901042 " transform="matrix(0.75,0,0,0.75,0,0)"/>
<path style="fill:none;stroke-width:1;stroke-linecap:butt;stroke-linejoin:miter;stroke:rgb(0%,0%,100%);stroke-opacity:1;stroke-miterlimit:4;" d="M 301.802083 229.401042 L 300.098958 225.901042 " transform="matrix(0.75,0,0,0.75,0,0)"/>
<path style="fill:none;stroke-width:1;stroke-linecap:butt;stroke-linejoin:miter;stroke:rgb(0%,0%,100%);stroke-opacity:1;stroke-miterlimit:4;" d="M 305.197917 228.098958 L 303.098958 224 " transform="matrix(0.75,0,0,0.75,0,0)"/>
<path style="fill:none;stroke-width:1;stroke-linecap:butt;stroke-linejoin:miter;stroke:rgb(0%,0%,100%);stroke-opacity:1;stroke-miterlimit:4;" d="M 308.598958 226.802083 L 306.197917 222 " transform="matrix(0.75,0,0,0.75,0,0)"/>
<path style="fill:none;stroke-width:2;stroke-linecap:butt;stroke-linejoin:miter;stroke:rgb(0%,0%,100%);stroke-opacity:1;stroke-miterlimit:4;" d="M 322 222.901042 L 334.598958 231.098958 " transform="matrix(0.75,0,0,0.75,0,0)"/>
<path style="fill:none;stroke-width:2;stroke-linecap:butt;stroke-linejoin:miter;stroke:rgb(0%,0%,0%);stroke-opacity:1;stroke-miterlimit:4;" d="M 334.598958 231.098958 L 347.197917 239.302083 " transform="matrix(0.75,0,0,0.75,0,0)"/>
<path style="fill:none;stroke-width:2;stroke-linecap:butt;stroke-linejoin:miter;stroke:rgb(0%,0%,0%);stroke-opacity:1;stroke-miterlimit:4;" d="M 344.598958 237.598958 L 343.697917 253.302083 " transform="matrix(0.75,0,0,0.75,0,0)"/>
<path style="fill:none;stroke-width:2;stroke-linecap:butt;stroke-linejoin:miter;stroke:rgb(100%,0%,0%);stroke-opacity:1;stroke-miterlimit:4;" d="M 343.697917 253.302083 L 342.901042 268.901042 " transform="matrix(0.75,0,0,0.75,0,0)"/>
<path style="fill:none;stroke-width:2;stroke-linecap:butt;stroke-linejoin:miter;stroke:rgb(0%,0%,0%);stroke-opacity:1;stroke-miterlimit:4;" d="M 350 237.901042 L 349.098958 253.598958 " transform="matrix(0.75,0,0,0.75,0,0)"/>
<path style="fill:none;stroke-width:2;stroke-linecap:butt;stroke-linejoin:miter;stroke:rgb(100%,0%,0%);stroke-opacity:1;stroke-miterlimit:4;" d="M 349.098958 253.598958 L 348.302083 269.197917 " transform="matrix(0.75,0,0,0.75,0,0)"/>
<path style="fill:none;stroke-width:2;stroke-linecap:butt;stroke-linejoin:miter;stroke:rgb(0%,0%,0%);stroke-opacity:1;stroke-miterlimit:4;" d="M 347.197917 239.302083 L 379.5 223 " transform="matrix(0.75,0,0,0.75,0,0)"/>
<path style="fill:none;stroke-width:2;stroke-linecap:butt;stroke-linejoin:miter;stroke:rgb(0%,0%,0%);stroke-opacity:1;stroke-miterlimit:4;" d="M 379.5 223 L 392.401042 231.5 " transform="matrix(0.75,0,0,0.75,0,0)"/>
<path style="fill:none;stroke-width:2;stroke-linecap:butt;stroke-linejoin:miter;stroke:rgb(80%,80%,0%);stroke-opacity:1;stroke-miterlimit:4;" d="M 392.401042 231.5 L 405.197917 239.901042 " transform="matrix(0.75,0,0,0.75,0,0)"/>
<path style="fill:none;stroke-width:2;stroke-linecap:butt;stroke-linejoin:miter;stroke:rgb(80%,80%,0%);stroke-opacity:1;stroke-miterlimit:4;" d="M 414.197917 240.5 L 428.098958 233.5 " transform="matrix(0.75,0,0,0.75,0,0)"/>
<path style="fill:none;stroke-width:2;stroke-linecap:butt;stroke-linejoin:miter;stroke:rgb(0%,0%,0%);stroke-opacity:1;stroke-miterlimit:4;" d="M 428.098958 233.5 L 442 226.5 " transform="matrix(0.75,0,0,0.75,0,0)"/>
<path style="fill:none;stroke-width:2;stroke-linecap:butt;stroke-linejoin:miter;stroke:rgb(0%,0%,0%);stroke-opacity:1;stroke-miterlimit:4;" d="M 442 226.5 L 448.5 239.5 " transform="matrix(0.75,0,0,0.75,0,0)"/>
<path style="fill:none;stroke-width:2;stroke-linecap:butt;stroke-linejoin:miter;stroke:rgb(20%,80%,80%);stroke-opacity:1;stroke-miterlimit:4;" d="M 448.5 239.5 L 455.098958 252.401042 " transform="matrix(0.75,0,0,0.75,0,0)"/>
<path style="fill:none;stroke-width:2;stroke-linecap:butt;stroke-linejoin:miter;stroke:rgb(0%,0%,0%);stroke-opacity:1;stroke-miterlimit:4;" d="M 442 226.5 L 435.401042 213.5 " transform="matrix(0.75,0,0,0.75,0,0)"/>
<path style="fill:none;stroke-width:2;stroke-linecap:butt;stroke-linejoin:miter;stroke:rgb(20%,80%,80%);stroke-opacity:1;stroke-miterlimit:4;" d="M 435.401042 213.5 L 428.901042 200.598958 " transform="matrix(0.75,0,0,0.75,0,0)"/>
<path style="fill:none;stroke-width:2;stroke-linecap:butt;stroke-linejoin:miter;stroke:rgb(0%,0%,0%);stroke-opacity:1;stroke-miterlimit:4;" d="M 442 226.5 L 456 219.401042 " transform="matrix(0.75,0,0,0.75,0,0)"/>
<path style="fill:none;stroke-width:2;stroke-linecap:butt;stroke-linejoin:miter;stroke:rgb(20%,80%,80%);stroke-opacity:1;stroke-miterlimit:4;" d="M 456 219.401042 L 470 212.302083 " transform="matrix(0.75,0,0,0.75,0,0)"/>
<path style="fill:none;stroke-width:2;stroke-linecap:butt;stroke-linejoin:miter;stroke:rgb(0%,0%,0%);stroke-opacity:1;stroke-miterlimit:4;" d="M 284.697917 235.901042 L 250.401042 224.598958 " transform="matrix(0.75,0,0,0.75,0,0)"/>
<path style="fill:none;stroke-width:2;stroke-linecap:butt;stroke-linejoin:miter;stroke:rgb(0%,0%,0%);stroke-opacity:1;stroke-miterlimit:4;" d="M 250.401042 224.598958 L 240.598958 213.598958 " transform="matrix(0.75,0,0,0.75,0,0)"/>
<path style="fill:none;stroke-width:2;stroke-linecap:butt;stroke-linejoin:miter;stroke:rgb(80%,80%,0%);stroke-opacity:1;stroke-miterlimit:4;" d="M 240.598958 213.598958 L 230.697917 202.697917 " transform="matrix(0.75,0,0,0.75,0,0)"/>
<path style="fill:none;stroke-width:2;stroke-linecap:butt;stroke-linejoin:miter;stroke:rgb(80%,80%,0%);stroke-opacity:1;stroke-miterlimit:4;" d="M 221.802083 198.598958 L 206.302083 201.802083 " transform="matrix(0.75,0,0,0.75,0,0)"/>
<path style="fill:none;stroke-width:2;stroke-linecap:butt;stroke-linejoin:miter;stroke:rgb(0%,0%,0%);stroke-opacity:1;stroke-miterlimit:4;" d="M 206.302083 201.802083 L 190.901042 205.098958 " transform="matrix(0.75,0,0,0.75,0,0)"/>
<path style="fill:none;stroke-width:2;stroke-linecap:butt;stroke-linejoin:miter;stroke:rgb(0%,0%,0%);stroke-opacity:1;stroke-miterlimit:4;" d="M 84.802083 227.302083 L 73.901042 217.401042 " transform="matrix(0.75,0,0,0.75,0,0)"/>
<path style="fill:none;stroke-width:2;stroke-linecap:butt;stroke-linejoin:miter;stroke:rgb(0%,0%,100%);stroke-opacity:1;stroke-miterlimit:4;" d="M 73.901042 217.401042 L 63 207.598958 " transform="matrix(0.75,0,0,0.75,0,0)"/>
<path style="fill:none;stroke-width:2;stroke-linecap:butt;stroke-linejoin:miter;stroke:rgb(0%,0%,0%);stroke-opacity:1;stroke-miterlimit:4;" d="M 190.901042 205.098958 L 179.598958 239.401042 " transform="matrix(0.75,0,0,0.75,0,0)"/>
<path style="fill:none;stroke-width:2;stroke-linecap:butt;stroke-linejoin:miter;stroke:rgb(0%,0%,0%);stroke-opacity:1;stroke-miterlimit:4;" d="M 250.401042 224.598958 L 245.802083 238.598958 " transform="matrix(0.75,0,0,0.75,0,0)"/>
<path style="fill:none;stroke-width:2;stroke-linecap:butt;stroke-linejoin:miter;stroke:rgb(0%,0%,100%);stroke-opacity:1;stroke-miterlimit:4;" d="M 245.802083 238.598958 L 241.197917 252.598958 " transform="matrix(0.75,0,0,0.75,0,0)"/>
<path style="fill-rule:evenodd;fill:rgb(0%,0%,0%);fill-opacity:1;stroke-width:0.5;stroke-linecap:butt;stroke-linejoin:miter;stroke:rgb(0%,0%,0%);stroke-opacity:1;stroke-miterlimit:4;" d="M 250.401042 224.598958 L 263 200.401042 L 267.5 203.302083 Z M 250.401042 224.598958 " transform="matrix(0.75,0,0,0.75,0,0)"/>
<path style="fill:none;stroke-width:2;stroke-linecap:butt;stroke-linejoin:miter;stroke:rgb(0%,0%,0%);stroke-opacity:1;stroke-miterlimit:4;" d="M 143.697917 246.197917 L 144.197917 246.802083 L 146 246.401042 " transform="matrix(0.75,0,0,0.75,0,0)"/>
<path style="fill:none;stroke-width:2;stroke-linecap:butt;stroke-linejoin:miter;stroke:rgb(0%,0%,0%);stroke-opacity:1;stroke-miterlimit:4;" d="M 193 299 L 192.401042 300.697917 L 191.697917 300.802083 " transform="matrix(0.75,0,0,0.75,0,0)"/>
<path style="fill:none;stroke-width:2;stroke-linecap:butt;stroke-linejoin:miter;stroke:rgb(0%,0%,0%);stroke-opacity:1;stroke-miterlimit:4;" d="M 272.697917 270 L 273.401042 270.197917 L 274 268.5 " transform="matrix(0.75,0,0,0.75,0,0)"/>
<path style="fill:none;stroke-width:2;stroke-linecap:butt;stroke-linejoin:miter;stroke:rgb(0%,0%,0%);stroke-opacity:1;stroke-miterlimit:4;" d="M 284.098958 237.598958 L 284.697917 235.901042 L 283 235.302083 " transform="matrix(0.75,0,0,0.75,0,0)"/>
<path style="fill:none;stroke-width:2;stroke-linecap:butt;stroke-linejoin:miter;stroke:rgb(0%,0%,0%);stroke-opacity:1;stroke-miterlimit:4;" d="M 346.598958 238.901042 L 347.197917 239.302083 L 348.802083 238.5 " transform="matrix(0.75,0,0,0.75,0,0)"/>
<path style="fill:none;stroke-width:2;stroke-linecap:butt;stroke-linejoin:miter;stroke:rgb(0%,0%,0%);stroke-opacity:1;stroke-miterlimit:4;" d="M 377.901042 223.802083 L 379.5 223 L 380.098958 223.5 " transform="matrix(0.75,0,0,0.75,0,0)"/>
<path style="fill:none;stroke-width:2;stroke-linecap:butt;stroke-linejoin:miter;stroke:rgb(0%,0%,0%);stroke-opacity:1;stroke-miterlimit:4;" d="M 191.697917 204.901042 L 190.901042 205.098958 L 190.302083 206.802083 " transform="matrix(0.75,0,0,0.75,0,0)"/>
<path style=" stroke:none;fill-rule:nonzero;fill:rgb(0%,0%,100%);fill-opacity:1;" d="M 41.773438 148.425781 L 44.324219 152.476562 C 44.476562 152.726562 44.675781 153.101562 44.925781 153.601562 C 45.226562 154.101562 45.375 154.351562 45.375 154.351562 L 45.375 148.425781 L 46.351562 148.425781 L 46.351562 156.074219 L 45.300781 156.074219 L 42.601562 151.648438 C 42.398438 151.300781 42.199219 150.925781 42 150.523438 C 41.75 150.125 41.601562 149.875 41.550781 149.773438 L 41.550781 156.074219 L 40.574219 156.074219 L 40.574219 148.425781 L 41.773438 148.425781 "/>
<path style=" stroke:none;fill-rule:nonzero;fill:rgb(0%,0%,100%);fill-opacity:1;" d="M 18.226562 161.851562 L 20.773438 165.976562 C 20.925781 166.226562 21.148438 166.601562 21.449219 167.101562 C 21.699219 167.550781 21.824219 167.800781 21.824219 167.851562 L 21.824219 161.851562 L 22.875 161.851562 L 22.875 169.574219 L 21.824219 169.574219 L 19.125 165.148438 C 18.925781 164.800781 18.699219 164.425781 18.449219 164.023438 C 18.25 163.625 18.125 163.351562 18.074219 163.199219 L 18.074219 169.574219 L 17.023438 169.574219 L 17.023438 161.851562 L 18.226562 161.851562 "/>
<path style=" stroke:none;fill-rule:nonzero;fill:rgb(0%,0%,100%);fill-opacity:1;" d="M 23.773438 188.398438 L 26.324219 192.449219 C 26.476562 192.75 26.699219 193.148438 27 193.648438 C 27.25 194.101562 27.375 194.351562 27.375 194.398438 L 27.375 188.398438 L 28.425781 188.398438 L 28.425781 196.125 L 27.375 196.125 L 24.675781 191.625 C 24.476562 191.273438 24.25 190.898438 24 190.5 C 23.800781 190.148438 23.675781 189.898438 23.625 189.75 L 23.625 196.125 L 22.574219 196.125 L 22.574219 188.398438 L 23.773438 188.398438 "/>
<path style=" stroke:none;fill-rule:nonzero;fill:rgb(0%,0%,100%);fill-opacity:1;" d="M 50.773438 191.324219 L 53.25 195.375 C 53.449219 195.675781 53.675781 196.050781 53.925781 196.5 C 54.175781 197 54.324219 197.273438 54.375 197.324219 L 54.375 191.324219 L 55.351562 191.324219 L 55.351562 199.050781 L 54.300781 199.050781 L 51.601562 194.550781 C 51.398438 194.199219 51.199219 193.824219 51 193.425781 C 50.75 193.023438 50.601562 192.773438 50.550781 192.675781 L 50.550781 199.050781 L 49.574219 199.050781 L 49.574219 191.324219 L 50.773438 191.324219 "/>
<path style=" stroke:none;fill-rule:nonzero;fill:rgb(80%,80%,0%);fill-opacity:1;" d="M 87.898438 167.550781 C 88 167.550781 88.148438 167.601562 88.351562 167.699219 C 88.601562 167.800781 88.851562 167.898438 89.101562 168 C 89.398438 168.050781 89.675781 168.074219 89.925781 168.074219 C 90.425781 168.074219 90.800781 167.949219 91.050781 167.699219 C 91.351562 167.449219 91.5 167.125 91.5 166.726562 C 91.5 166.425781 91.425781 166.199219 91.273438 166.050781 C 91.125 165.851562 90.949219 165.726562 90.75 165.675781 C 90.5 165.574219 90.199219 165.476562 89.851562 165.375 C 89.398438 165.226562 89.050781 165.074219 88.800781 164.925781 C 88.5 164.824219 88.25 164.625 88.050781 164.324219 C 87.898438 164.074219 87.824219 163.699219 87.824219 163.199219 C 87.824219 162.550781 88.023438 162.050781 88.425781 161.699219 C 88.875 161.300781 89.523438 161.101562 90.375 161.101562 C 90.976562 161.101562 91.625 161.226562 92.324219 161.476562 L 92.023438 162.300781 C 91.425781 162.050781 90.898438 161.925781 90.449219 161.925781 C 89.949219 161.925781 89.550781 162.023438 89.25 162.226562 C 89 162.476562 88.875 162.773438 88.875 163.125 C 88.875 163.375 88.949219 163.574219 89.101562 163.726562 C 89.25 163.925781 89.425781 164.074219 89.625 164.175781 C 89.824219 164.273438 90.101562 164.375 90.449219 164.476562 C 90.898438 164.625 91.273438 164.75 91.574219 164.851562 C 91.824219 165 92.050781 165.226562 92.25 165.523438 C 92.449219 165.824219 92.550781 166.226562 92.550781 166.726562 C 92.550781 167.425781 92.324219 167.976562 91.875 168.375 C 91.375 168.726562 90.726562 168.898438 89.925781 168.898438 C 89.476562 168.898438 89.074219 168.851562 88.726562 168.75 C 88.425781 168.648438 88.050781 168.523438 87.601562 168.375 L 87.898438 167.550781 "/>
<path style=" stroke:none;fill-rule:nonzero;fill:rgb(100%,0%,0%);fill-opacity:1;" d="M 158.851562 245.699219 C 158.851562 244.5 159.148438 243.550781 159.75 242.851562 C 160.398438 242.148438 161.273438 241.800781 162.375 241.800781 C 163.523438 241.800781 164.398438 242.148438 165 242.851562 C 165.601562 243.550781 165.898438 244.5 165.898438 245.699219 C 165.898438 246.949219 165.601562 247.925781 165 248.625 C 164.398438 249.324219 163.523438 249.675781 162.375 249.675781 C 161.273438 249.675781 160.398438 249.324219 159.75 248.625 C 159.148438 247.925781 158.851562 246.949219 158.851562 245.699219 M 162.375 248.851562 C 163.175781 248.851562 163.773438 248.574219 164.175781 248.023438 C 164.625 247.523438 164.851562 246.75 164.851562 245.699219 C 164.851562 244.699219 164.625 243.949219 164.175781 243.449219 C 163.773438 242.949219 163.175781 242.699219 162.375 242.699219 C 161.625 242.699219 161.023438 242.949219 160.574219 243.449219 C 160.175781 243.949219 159.976562 244.699219 159.976562 245.699219 C 159.976562 246.75 160.175781 247.523438 160.574219 248.023438 C 161.023438 248.574219 161.625 248.851562 162.375 248.851562 "/>
<path style=" stroke:none;fill-rule:nonzero;fill:rgb(100%,0%,0%);fill-opacity:1;" d="M 106.648438 227.25 L 107.699219 227.25 L 107.699219 230.550781 L 111.675781 230.550781 L 111.675781 227.25 L 112.726562 227.25 L 112.726562 234.898438 L 111.675781 234.898438 L 111.675781 231.375 L 107.699219 231.375 L 107.699219 234.898438 L 106.648438 234.898438 L 106.648438 227.25 "/>
<path style=" stroke:none;fill-rule:nonzero;fill:rgb(100%,0%,0%);fill-opacity:1;" d="M 114.300781 231.074219 C 114.300781 229.824219 114.601562 228.875 115.199219 228.226562 C 115.800781 227.523438 116.675781 227.175781 117.824219 227.175781 C 118.925781 227.175781 119.773438 227.523438 120.375 228.226562 C 121.023438 228.875 121.351562 229.824219 121.351562 231.074219 C 121.351562 232.324219 121.023438 233.300781 120.375 234 C 119.773438 234.699219 118.925781 235.050781 117.824219 235.050781 C 116.675781 235.050781 115.800781 234.699219 115.199219 234 C 114.601562 233.300781 114.300781 232.324219 114.300781 231.074219 M 117.824219 234.226562 C 118.574219 234.226562 119.175781 233.949219 119.625 233.398438 C 120.023438 232.898438 120.226562 232.125 120.226562 231.074219 C 120.226562 230.074219 120.023438 229.324219 119.625 228.824219 C 119.175781 228.324219 118.574219 228.074219 117.824219 228.074219 C 117.023438 228.074219 116.398438 228.324219 115.949219 228.824219 C 115.550781 229.324219 115.351562 230.074219 115.351562 231.074219 C 115.351562 232.125 115.550781 232.898438 115.949219 233.398438 C 116.398438 233.949219 117.023438 234.226562 117.824219 234.226562 "/>
<path style=" stroke:none;fill-rule:nonzero;fill:rgb(0%,0%,100%);fill-opacity:1;" d="M 177.601562 190.351562 L 180.148438 194.398438 C 180.300781 194.699219 180.5 195.074219 180.75 195.523438 C 181.050781 196.023438 181.199219 196.300781 181.199219 196.351562 L 181.199219 190.351562 L 182.25 190.351562 L 182.25 198 L 181.199219 198 L 178.5 193.574219 C 178.25 193.226562 178.023438 192.851562 177.824219 192.449219 C 177.625 192.050781 177.476562 191.800781 177.375 191.699219 L 177.375 198 L 176.398438 198 L 176.398438 190.351562 L 177.601562 190.351562 "/>
<path style=" stroke:none;fill-rule:nonzero;fill:rgb(100%,0%,0%);fill-opacity:1;" d="M 213.75 226.875 C 213.75 225.625 214.050781 224.675781 214.648438 224.023438 C 215.300781 223.324219 216.175781 222.976562 217.273438 222.976562 C 218.425781 222.976562 219.300781 223.324219 219.898438 224.023438 C 220.5 224.675781 220.800781 225.625 220.800781 226.875 C 220.800781 228.125 220.5 229.101562 219.898438 229.800781 C 219.300781 230.5 218.425781 230.851562 217.273438 230.851562 C 216.175781 230.851562 215.300781 230.5 214.648438 229.800781 C 214.050781 229.101562 213.75 228.125 213.75 226.875 M 217.273438 229.949219 C 218.074219 229.949219 218.675781 229.699219 219.074219 229.199219 C 219.523438 228.648438 219.75 227.875 219.75 226.875 C 219.75 225.875 219.523438 225.125 219.074219 224.625 C 218.675781 224.074219 218.074219 223.800781 217.273438 223.800781 C 216.523438 223.800781 215.925781 224.074219 215.476562 224.625 C 215.074219 225.125 214.875 225.875 214.875 226.875 C 214.875 227.925781 215.074219 228.699219 215.476562 229.199219 C 215.925781 229.699219 216.523438 229.949219 217.273438 229.949219 "/>
<path style=" stroke:none;fill-rule:nonzero;fill:rgb(0%,0%,100%);fill-opacity:1;" d="M 236.023438 160.800781 L 238.574219 164.925781 C 238.726562 165.175781 238.925781 165.550781 239.175781 166.050781 C 239.476562 166.5 239.625 166.75 239.625 166.800781 L 239.625 160.800781 L 240.601562 160.800781 L 240.601562 168.523438 L 239.550781 168.523438 L 236.851562 164.023438 C 236.648438 163.726562 236.449219 163.375 236.25 162.976562 C 236 162.574219 235.851562 162.300781 235.800781 162.148438 L 235.800781 168.523438 L 234.824219 168.523438 L 234.824219 160.800781 L 236.023438 160.800781 "/>
<path style=" stroke:none;fill-rule:nonzero;fill:rgb(0%,0%,100%);fill-opacity:1;" d="M 234.75 152.398438 L 235.726562 152.398438 L 235.726562 155.625 L 239.699219 155.625 L 239.699219 152.398438 L 240.75 152.398438 L 240.75 160.050781 L 239.699219 160.050781 L 239.699219 156.523438 L 235.726562 156.523438 L 235.726562 160.050781 L 234.75 160.050781 L 234.75 152.398438 "/>
<path style=" stroke:none;fill-rule:nonzero;fill:rgb(100%,0%,0%);fill-opacity:1;" d="M 255.375 206.625 C 255.375 205.375 255.675781 204.398438 256.273438 203.699219 C 256.875 203.050781 257.75 202.726562 258.898438 202.726562 C 260.050781 202.726562 260.925781 203.050781 261.523438 203.699219 C 262.125 204.398438 262.425781 205.375 262.425781 206.625 C 262.425781 207.824219 262.125 208.800781 261.523438 209.550781 C 260.875 210.25 260 210.601562 258.898438 210.601562 C 257.75 210.601562 256.875 210.25 256.273438 209.550781 C 255.675781 208.851562 255.375 207.875 255.375 206.625 M 258.898438 209.699219 C 259.699219 209.699219 260.300781 209.449219 260.699219 208.949219 C 261.148438 208.398438 261.375 207.625 261.375 206.625 C 261.375 205.574219 261.148438 204.800781 260.699219 204.300781 C 260.300781 203.800781 259.699219 203.550781 258.898438 203.550781 C 258.101562 203.550781 257.5 203.800781 257.101562 204.300781 C 256.699219 204.800781 256.5 205.574219 256.5 206.625 C 256.5 207.625 256.699219 208.398438 257.101562 208.949219 C 257.5 209.449219 258.101562 209.699219 258.898438 209.699219 "/>
<path style=" stroke:none;fill-rule:nonzero;fill:rgb(80%,80%,0%);fill-opacity:1;" d="M 305.101562 184.726562 C 305.148438 184.773438 305.300781 184.851562 305.550781 184.949219 C 305.800781 185.050781 306.050781 185.125 306.300781 185.175781 C 306.601562 185.226562 306.875 185.25 307.125 185.25 C 307.574219 185.25 307.949219 185.148438 308.25 184.949219 C 308.550781 184.699219 308.699219 184.375 308.699219 183.976562 C 308.699219 183.675781 308.625 183.425781 308.476562 183.226562 C 308.324219 183.074219 308.148438 182.949219 307.949219 182.851562 C 307.699219 182.75 307.398438 182.648438 307.050781 182.550781 C 306.601562 182.398438 306.25 182.273438 306 182.175781 C 305.699219 182.023438 305.449219 181.824219 305.25 181.574219 C 305.101562 181.273438 305.023438 180.898438 305.023438 180.449219 C 305.023438 179.800781 305.226562 179.273438 305.625 178.875 C 306.074219 178.476562 306.726562 178.273438 307.574219 178.273438 C 308.175781 178.273438 308.824219 178.425781 309.523438 178.726562 L 309.226562 179.550781 C 308.625 179.300781 308.101562 179.175781 307.648438 179.175781 C 307.148438 179.175781 306.75 179.273438 306.449219 179.476562 C 306.199219 179.675781 306.074219 179.949219 306.074219 180.300781 C 306.074219 180.601562 306.148438 180.824219 306.300781 180.976562 C 306.449219 181.125 306.625 181.25 306.824219 181.351562 C 307.023438 181.449219 307.300781 181.550781 307.648438 181.648438 C 308.101562 181.800781 308.476562 181.949219 308.773438 182.101562 C 309.023438 182.25 309.25 182.476562 309.449219 182.773438 C 309.648438 183.074219 309.75 183.476562 309.75 183.976562 C 309.75 184.675781 309.5 185.199219 309 185.550781 C 308.550781 185.949219 307.925781 186.148438 307.125 186.148438 C 306.675781 186.148438 306.273438 186.101562 305.925781 186 C 305.574219 185.898438 305.199219 185.773438 304.800781 185.625 L 305.101562 184.726562 "/>
<path style=" stroke:none;fill-rule:nonzero;fill:rgb(20%,80%,80%);fill-opacity:1;" d="M 341.398438 190.199219 L 345.976562 190.199219 L 345.976562 191.101562 L 342.449219 191.101562 L 342.449219 193.425781 L 345.601562 193.425781 L 345.601562 194.324219 L 342.449219 194.324219 L 342.449219 197.925781 L 341.398438 197.925781 L 341.398438 190.199219 "/>
<path style=" stroke:none;fill-rule:nonzero;fill:rgb(20%,80%,80%);fill-opacity:1;" d="M 316.949219 141.824219 L 321.523438 141.824219 L 321.523438 142.726562 L 318 142.726562 L 318 145.050781 L 321.148438 145.050781 L 321.148438 145.949219 L 318 145.949219 L 318 149.550781 L 316.949219 149.550781 L 316.949219 141.824219 "/>
<path style=" stroke:none;fill-rule:nonzero;fill:rgb(20%,80%,80%);fill-opacity:1;" d="M 353.398438 153.824219 L 357.976562 153.824219 L 357.976562 154.648438 L 354.449219 154.648438 L 354.449219 157.050781 L 357.601562 157.050781 L 357.601562 157.875 L 354.449219 157.875 L 354.449219 161.476562 L 353.398438 161.476562 L 353.398438 153.824219 "/>
<path style=" stroke:none;fill-rule:nonzero;fill:rgb(80%,80%,0%);fill-opacity:1;" d="M 167.550781 150.898438 C 167.601562 150.898438 167.75 150.949219 168 151.050781 C 168.199219 151.148438 168.449219 151.226562 168.75 151.273438 C 169 151.375 169.25 151.425781 169.5 151.425781 C 170 151.425781 170.375 151.300781 170.625 151.050781 C 170.925781 150.800781 171.074219 150.476562 171.074219 150.074219 C 171.074219 149.773438 171 149.550781 170.851562 149.398438 C 170.699219 149.199219 170.523438 149.050781 170.324219 148.949219 C 170.125 148.898438 169.851562 148.800781 169.5 148.648438 C 169 148.550781 168.625 148.425781 168.375 148.273438 C 168.125 148.125 167.898438 147.925781 167.699219 147.675781 C 167.5 147.375 167.398438 147 167.398438 146.550781 C 167.398438 145.898438 167.625 145.375 168.074219 144.976562 C 168.476562 144.574219 169.125 144.375 170.023438 144.375 C 170.625 144.375 171.25 144.523438 171.898438 144.824219 L 171.675781 145.648438 C 171.074219 145.398438 170.523438 145.273438 170.023438 145.273438 C 169.523438 145.273438 169.148438 145.375 168.898438 145.574219 C 168.601562 145.773438 168.449219 146.074219 168.449219 146.476562 C 168.449219 146.726562 168.523438 146.925781 168.675781 147.074219 C 168.824219 147.273438 169 147.425781 169.199219 147.523438 C 169.398438 147.574219 169.675781 147.675781 170.023438 147.824219 C 170.523438 147.925781 170.898438 148.050781 171.148438 148.199219 C 171.398438 148.351562 171.625 148.574219 171.824219 148.875 C 172.023438 149.175781 172.125 149.574219 172.125 150.074219 C 172.125 150.773438 171.898438 151.324219 171.449219 151.726562 C 171 152.074219 170.375 152.25 169.574219 152.25 C 169.125 152.25 168.726562 152.199219 168.375 152.101562 C 168.023438 152 167.648438 151.875 167.25 151.726562 L 167.550781 150.898438 "/>
<path style=" stroke:none;fill-rule:nonzero;fill:rgb(0%,0%,0%);fill-opacity:1;" d="M 199.574219 141.898438 L 200.625 141.898438 L 200.625 145.199219 L 204.601562 145.199219 L 204.601562 141.898438 L 205.574219 141.898438 L 205.574219 149.625 L 204.601562 149.625 L 204.601562 146.023438 L 200.625 146.023438 L 200.625 149.625 L 199.574219 149.625 L 199.574219 141.898438 "/>
</g>
</svg>
