<?xml version="1.0" encoding="UTF-8"?>
<svg xmlns="http://www.w3.org/2000/svg" xmlns:xlink="http://www.w3.org/1999/xlink" width="375pt" height="375pt" viewBox="0 0 375 375" version="1.1">
<g id="surface231">
<rect x="0" y="0" width="375" height="375" style="fill:rgb(100%,100%,100%);fill-opacity:1;stroke:none;"/>
<path style="fill:none;stroke-width:2;stroke-linecap:butt;stroke-linejoin:miter;stroke:rgb(0%,0%,0%);stroke-opacity:1;stroke-miterlimit:4;" d="M 62.5 179.697917 L 68.098958 190.401042 " transform="matrix(0.75,0,0,0.75,0,0)"/>
<path style="fill:none;stroke-width:2;stroke-linecap:butt;stroke-linejoin:miter;stroke:rgb(100%,0%,0%);stroke-opacity:1;stroke-miterlimit:4;" d="M 68.098958 190.401042 L 73.802083 201.098958 " transform="matrix(0.75,0,0,0.75,0,0)"/>
<path style="fill:none;stroke-width:2;stroke-linecap:butt;stroke-linejoin:miter;stroke:rgb(100%,0%,0%);stroke-opacity:1;stroke-miterlimit:4;" d="M 81.598958 206.598958 L 92.098958 207 " transform="matrix(0.75,0,0,0.75,0,0)"/>
<path style="fill:none;stroke-width:2;stroke-linecap:butt;stroke-linejoin:miter;stroke:rgb(0%,0%,100%);stroke-opacity:1;stroke-miterlimit:4;" d="M 92.098958 207 L 102.697917 207.401042 " transform="matrix(0.75,0,0,0.75,0,0)"/>
<path style="fill:none;stroke-width:2;stroke-linecap:butt;stroke-linejoin:miter;stroke:rgb(0%,0%,100%);stroke-opacity:1;stroke-miterlimit:4;" d="M 109.802083 212.901042 L 115.401042 223.598958 " transform="matrix(0.75,0,0,0.75,0,0)"/>
<path style="fill:none;stroke-width:2;stroke-linecap:butt;stroke-linejoin:miter;stroke:rgb(0%,0%,0%);stroke-opacity:1;stroke-miterlimit:4;" d="M 115.401042 223.598958 L 121.098958 234.401042 " transform="matrix(0.75,0,0,0.75,0,0)"/>
<path style="fill:none;stroke-width:2;stroke-linecap:butt;stroke-linejoin:miter;stroke:rgb(0%,0%,100%);stroke-opacity:1;stroke-miterlimit:4;" d="M 106.802083 216.901042 L 111.302083 225.5 " transform="matrix(0.75,0,0,0.75,0,0)"/>
<path style="fill:none;stroke-width:2;stroke-linecap:butt;stroke-linejoin:miter;stroke:rgb(0%,0%,0%);stroke-opacity:1;stroke-miterlimit:4;" d="M 111.302083 225.5 L 115.901042 234.197917 " transform="matrix(0.75,0,0,0.75,0,0)"/>
<path style="fill:none;stroke-width:2;stroke-linecap:butt;stroke-linejoin:miter;stroke:rgb(0%,0%,0%);stroke-opacity:1;stroke-miterlimit:4;" d="M 121.098958 234.401042 L 151.401042 235.5 " transform="matrix(0.75,0,0,0.75,0,0)"/>
<path style="fill:none;stroke-width:2;stroke-linecap:butt;stroke-linejoin:miter;stroke:rgb(0%,0%,0%);stroke-opacity:1;stroke-miterlimit:4;" d="M 152.697917 237.802083 L 159.401042 227.098958 " transform="matrix(0.75,0,0,0.75,0,0)"/>
<path style="fill:none;stroke-width:2;stroke-linecap:butt;stroke-linejoin:miter;stroke:rgb(100%,0%,0%);stroke-opacity:1;stroke-miterlimit:4;" d="M 159.401042 227.098958 L 166 216.5 " transform="matrix(0.75,0,0,0.75,0,0)"/>
<path style="fill:none;stroke-width:2;stroke-linecap:butt;stroke-linejoin:miter;stroke:rgb(0%,0%,0%);stroke-opacity:1;stroke-miterlimit:4;" d="M 148.802083 235.401042 L 155.5 224.697917 " transform="matrix(0.75,0,0,0.75,0,0)"/>
<path style="fill:none;stroke-width:2;stroke-linecap:butt;stroke-linejoin:miter;stroke:rgb(100%,0%,0%);stroke-opacity:1;stroke-miterlimit:4;" d="M 155.5 224.697917 L 162.197917 214 " transform="matrix(0.75,0,0,0.75,0,0)"/>
<path style="fill:none;stroke-width:2;stroke-linecap:butt;stroke-linejoin:miter;stroke:rgb(0%,0%,0%);stroke-opacity:1;stroke-miterlimit:4;" d="M 151.401042 235.5 L 157.098958 246.197917 " transform="matrix(0.75,0,0,0.75,0,0)"/>
<path style="fill:none;stroke-width:2;stroke-linecap:butt;stroke-linejoin:miter;stroke:rgb(0%,0%,100%);stroke-opacity:1;stroke-miterlimit:4;" d="M 157.098958 246.197917 L 162.802083 257 " transform="matrix(0.75,0,0,0.75,0,0)"/>
<path style="fill-rule:evenodd;fill:rgb(0%,0%,0%);fill-opacity:1;stroke-width:0.5;stroke-linecap:butt;stroke-linejoin:miter;stroke:rgb(0%,0%,0%);stroke-opacity:1;stroke-miterlimit:4;" d="M 195.901042 263.302083 L 183.401042 264 L 183.5 261.802083 Z M 195.901042 263.302083 " transform="matrix(0.75,0,0,0.75,0,0)"/>
<path style="fill-rule:evenodd;fill:rgb(0%,0%,100%);fill-opacity:1;stroke-width:0.5;stroke-linecap:butt;stroke-linejoin:miter;stroke:rgb(0%,0%,100%);stroke-opacity:1;stroke-miterlimit:4;" d="M 183.401042 264 L 171 260.197917 L 170.802083 264.697917 Z M 183.401042 264 " transform="matrix(0.75,0,0,0.75,0,0)"/>
<path style="fill-rule:evenodd;fill:rgb(0%,0%,100%);fill-opacity:1;stroke-width:0.5;stroke-linecap:butt;stroke-linejoin:miter;stroke:rgb(0%,0%,100%);stroke-opacity:1;stroke-miterlimit:4;" d="M 183.401042 264 L 183.5 261.802083 L 171 260.197917 Z M 183.401042 264 " transform="matrix(0.75,0,0,0.75,0,0)"/>
<path style="fill:none;stroke-width:2;stroke-linecap:butt;stroke-linejoin:miter;stroke:rgb(0%,0%,0%);stroke-opacity:1;stroke-miterlimit:4;" d="M 195.901042 263.302083 L 216.598958 285.5 " transform="matrix(0.75,0,0,0.75,0,0)"/>
<path style="fill:none;stroke-width:2;stroke-linecap:butt;stroke-linejoin:miter;stroke:rgb(0%,0%,0%);stroke-opacity:1;stroke-miterlimit:4;" d="M 214.401042 283.197917 L 213.901042 296.802083 " transform="matrix(0.75,0,0,0.75,0,0)"/>
<path style="fill:none;stroke-width:2;stroke-linecap:butt;stroke-linejoin:miter;stroke:rgb(100%,0%,0%);stroke-opacity:1;stroke-miterlimit:4;" d="M 213.901042 296.802083 L 213.401042 310.401042 " transform="matrix(0.75,0,0,0.75,0,0)"/>
<path style="fill:none;stroke-width:2;stroke-linecap:butt;stroke-linejoin:miter;stroke:rgb(0%,0%,0%);stroke-opacity:1;stroke-miterlimit:4;" d="M 218.901042 283.401042 L 218.401042 297 " transform="matrix(0.75,0,0,0.75,0,0)"/>
<path style="fill:none;stroke-width:2;stroke-linecap:butt;stroke-linejoin:miter;stroke:rgb(100%,0%,0%);stroke-opacity:1;stroke-miterlimit:4;" d="M 218.401042 297 L 217.901042 310.598958 " transform="matrix(0.75,0,0,0.75,0,0)"/>
<path style="fill:none;stroke-width:2;stroke-linecap:butt;stroke-linejoin:miter;stroke:rgb(0%,0%,0%);stroke-opacity:1;stroke-miterlimit:4;" d="M 216.598958 285.5 L 225.598958 277.197917 " transform="matrix(0.75,0,0,0.75,0,0)"/>
<path style="fill:none;stroke-width:2;stroke-linecap:butt;stroke-linejoin:miter;stroke:rgb(0%,0%,100%);stroke-opacity:1;stroke-miterlimit:4;" d="M 225.598958 277.197917 L 234.5 268.901042 " transform="matrix(0.75,0,0,0.75,0,0)"/>
<path style="fill:none;stroke-width:2;stroke-linecap:butt;stroke-linejoin:miter;stroke:rgb(0%,0%,100%);stroke-opacity:1;stroke-miterlimit:4;" d="M 243 263.901042 L 255.697917 261 " transform="matrix(0.75,0,0,0.75,0,0)"/>
<path style="fill:none;stroke-width:2;stroke-linecap:butt;stroke-linejoin:miter;stroke:rgb(0%,0%,0%);stroke-opacity:1;stroke-miterlimit:4;" d="M 255.697917 261 L 268.302083 258.098958 " transform="matrix(0.75,0,0,0.75,0,0)"/>
<path style="fill:none;stroke-width:2;stroke-linecap:butt;stroke-linejoin:miter;stroke:rgb(0%,0%,0%);stroke-opacity:1;stroke-miterlimit:4;" d="M 268.302083 258.098958 L 289 280.302083 " transform="matrix(0.75,0,0,0.75,0,0)"/>
<path style="fill:none;stroke-width:2;stroke-linecap:butt;stroke-linejoin:miter;stroke:rgb(0%,0%,0%);stroke-opacity:1;stroke-miterlimit:4;" d="M 288.197917 282.802083 L 301.197917 279.901042 " transform="matrix(0.75,0,0,0.75,0,0)"/>
<path style="fill:none;stroke-width:2;stroke-linecap:butt;stroke-linejoin:miter;stroke:rgb(100%,0%,0%);stroke-opacity:1;stroke-miterlimit:4;" d="M 301.197917 279.901042 L 314.098958 276.901042 " transform="matrix(0.75,0,0,0.75,0,0)"/>
<path style="fill:none;stroke-width:2;stroke-linecap:butt;stroke-linejoin:miter;stroke:rgb(0%,0%,0%);stroke-opacity:1;stroke-miterlimit:4;" d="M 287.197917 278.401042 L 300.098958 275.401042 " transform="matrix(0.75,0,0,0.75,0,0)"/>
<path style="fill:none;stroke-width:2;stroke-linecap:butt;stroke-linejoin:miter;stroke:rgb(100%,0%,0%);stroke-opacity:1;stroke-miterlimit:4;" d="M 300.098958 275.401042 L 313.098958 272.5 " transform="matrix(0.75,0,0,0.75,0,0)"/>
<path style="fill:none;stroke-width:2;stroke-linecap:butt;stroke-linejoin:miter;stroke:rgb(0%,0%,0%);stroke-opacity:1;stroke-miterlimit:4;" d="M 289 280.302083 L 285.302083 292.098958 " transform="matrix(0.75,0,0,0.75,0,0)"/>
<path style="fill:none;stroke-width:2;stroke-linecap:butt;stroke-linejoin:miter;stroke:rgb(100%,0%,0%);stroke-opacity:1;stroke-miterlimit:4;" d="M 285.302083 292.098958 L 281.697917 304 " transform="matrix(0.75,0,0,0.75,0,0)"/>
<path style="fill:none;stroke-width:2;stroke-linecap:butt;stroke-linejoin:miter;stroke:rgb(0%,0%,0%);stroke-opacity:1;stroke-miterlimit:4;" d="M 268.302083 258.098958 L 277.197917 229.098958 " transform="matrix(0.75,0,0,0.75,0,0)"/>
<path style="fill:none;stroke-width:2;stroke-linecap:butt;stroke-linejoin:miter;stroke:rgb(0%,0%,0%);stroke-opacity:1;stroke-miterlimit:4;" d="M 264.802083 254.302083 L 272.098958 230.302083 " transform="matrix(0.75,0,0,0.75,0,0)"/>
<path style="fill:none;stroke-width:2;stroke-linecap:butt;stroke-linejoin:miter;stroke:rgb(0%,0%,0%);stroke-opacity:1;stroke-miterlimit:4;" d="M 277.197917 229.098958 L 306.802083 222.401042 " transform="matrix(0.75,0,0,0.75,0,0)"/>
<path style="fill:none;stroke-width:2;stroke-linecap:butt;stroke-linejoin:miter;stroke:rgb(0%,0%,0%);stroke-opacity:1;stroke-miterlimit:4;" d="M 306.802083 222.401042 L 315.197917 231.401042 " transform="matrix(0.75,0,0,0.75,0,0)"/>
<path style="fill:none;stroke-width:2;stroke-linecap:butt;stroke-linejoin:miter;stroke:rgb(80%,80%,0%);stroke-opacity:1;stroke-miterlimit:4;" d="M 315.197917 231.401042 L 323.697917 240.5 " transform="matrix(0.75,0,0,0.75,0,0)"/>
<path style="fill:none;stroke-width:2;stroke-linecap:butt;stroke-linejoin:miter;stroke:rgb(80%,80%,0%);stroke-opacity:1;stroke-miterlimit:4;" d="M 331.197917 243.697917 L 344.098958 240.697917 " transform="matrix(0.75,0,0,0.75,0,0)"/>
<path style="fill:none;stroke-width:2;stroke-linecap:butt;stroke-linejoin:miter;stroke:rgb(0%,0%,0%);stroke-opacity:1;stroke-miterlimit:4;" d="M 344.098958 240.697917 L 357 237.802083 " transform="matrix(0.75,0,0,0.75,0,0)"/>
<path style="fill:none;stroke-width:2;stroke-linecap:butt;stroke-linejoin:miter;stroke:rgb(0%,0%,0%);stroke-opacity:1;stroke-miterlimit:4;" d="M 357 237.802083 L 361.802083 226.5 " transform="matrix(0.75,0,0,0.75,0,0)"/>
<path style="fill:none;stroke-width:2;stroke-linecap:butt;stroke-linejoin:miter;stroke:rgb(0%,0%,100%);stroke-opacity:1;stroke-miterlimit:4;" d="M 361.802083 226.5 L 366.598958 215.197917 " transform="matrix(0.75,0,0,0.75,0,0)"/>
<path style="fill:none;stroke-width:2;stroke-linecap:butt;stroke-linejoin:miter;stroke:rgb(0%,0%,0%);stroke-opacity:1;stroke-miterlimit:4;" d="M 362.5 236.5 L 366.598958 226.697917 " transform="matrix(0.75,0,0,0.75,0,0)"/>
<path style="fill:none;stroke-width:2;stroke-linecap:butt;stroke-linejoin:miter;stroke:rgb(0%,0%,100%);stroke-opacity:1;stroke-miterlimit:4;" d="M 366.598958 226.697917 L 370.802083 217 " transform="matrix(0.75,0,0,0.75,0,0)"/>
<path style="fill:none;stroke-width:2;stroke-linecap:butt;stroke-linejoin:miter;stroke:rgb(0%,0%,100%);stroke-opacity:1;stroke-miterlimit:4;" d="M 373.098958 210.302083 L 386.098958 211.401042 " transform="matrix(0.75,0,0,0.75,0,0)"/>
<path style="fill:none;stroke-width:2;stroke-linecap:butt;stroke-linejoin:miter;stroke:rgb(0%,0%,0%);stroke-opacity:1;stroke-miterlimit:4;" d="M 386.098958 211.401042 L 399.098958 212.598958 " transform="matrix(0.75,0,0,0.75,0,0)"/>
<path style="fill:none;stroke-width:2;stroke-linecap:butt;stroke-linejoin:miter;stroke:rgb(0%,0%,0%);stroke-opacity:1;stroke-miterlimit:4;" d="M 399.098958 212.598958 L 419 189.697917 " transform="matrix(0.75,0,0,0.75,0,0)"/>
<path style="fill:none;stroke-width:2;stroke-linecap:butt;stroke-linejoin:miter;stroke:rgb(0%,0%,0%);stroke-opacity:1;stroke-miterlimit:4;" d="M 399.098958 212.598958 L 405.802083 242.098958 " transform="matrix(0.75,0,0,0.75,0,0)"/>
<path style="fill:none;stroke-width:2;stroke-linecap:butt;stroke-linejoin:miter;stroke:rgb(0%,0%,0%);stroke-opacity:1;stroke-miterlimit:4;" d="M 395.401042 216.802083 L 400.697917 239.901042 " transform="matrix(0.75,0,0,0.75,0,0)"/>
<path style="fill:none;stroke-width:2;stroke-linecap:butt;stroke-linejoin:miter;stroke:rgb(0%,0%,0%);stroke-opacity:1;stroke-miterlimit:4;" d="M 405.802083 242.098958 L 433.697917 254 " transform="matrix(0.75,0,0,0.75,0,0)"/>
<path style="fill:none;stroke-width:2;stroke-linecap:butt;stroke-linejoin:miter;stroke:rgb(0%,0%,0%);stroke-opacity:1;stroke-miterlimit:4;" d="M 433.697917 254 L 437.401042 284.098958 " transform="matrix(0.75,0,0,0.75,0,0)"/>
<path style="fill:none;stroke-width:2;stroke-linecap:butt;stroke-linejoin:miter;stroke:rgb(0%,0%,0%);stroke-opacity:1;stroke-miterlimit:4;" d="M 437.098958 281.5 L 426.901042 289.098958 " transform="matrix(0.75,0,0,0.75,0,0)"/>
<path style="fill:none;stroke-width:2;stroke-linecap:butt;stroke-linejoin:miter;stroke:rgb(100%,0%,0%);stroke-opacity:1;stroke-miterlimit:4;" d="M 426.901042 289.098958 L 416.697917 296.802083 " transform="matrix(0.75,0,0,0.75,0,0)"/>
<path style="fill:none;stroke-width:2;stroke-linecap:butt;stroke-linejoin:miter;stroke:rgb(0%,0%,0%);stroke-opacity:1;stroke-miterlimit:4;" d="M 439.802083 285.098958 L 429.598958 292.802083 " transform="matrix(0.75,0,0,0.75,0,0)"/>
<path style="fill:none;stroke-width:2;stroke-linecap:butt;stroke-linejoin:miter;stroke:rgb(100%,0%,0%);stroke-opacity:1;stroke-miterlimit:4;" d="M 429.598958 292.802083 L 419.5 300.401042 " transform="matrix(0.75,0,0,0.75,0,0)"/>
<path style="fill:none;stroke-width:2;stroke-linecap:butt;stroke-linejoin:miter;stroke:rgb(0%,0%,0%);stroke-opacity:1;stroke-miterlimit:4;" d="M 437.401042 284.098958 L 448.901042 289 " transform="matrix(0.75,0,0,0.75,0,0)"/>
<path style="fill:none;stroke-width:2;stroke-linecap:butt;stroke-linejoin:miter;stroke:rgb(100%,0%,0%);stroke-opacity:1;stroke-miterlimit:4;" d="M 448.901042 289 L 460.302083 293.901042 " transform="matrix(0.75,0,0,0.75,0,0)"/>
<path style="fill:none;stroke-width:2;stroke-linecap:butt;stroke-linejoin:miter;stroke:rgb(0%,0%,0%);stroke-opacity:1;stroke-miterlimit:4;" d="M 405.802083 242.098958 L 394.697917 248.802083 " transform="matrix(0.75,0,0,0.75,0,0)"/>
<path style="fill:none;stroke-width:2;stroke-linecap:butt;stroke-linejoin:miter;stroke:rgb(80%,80%,0%);stroke-opacity:1;stroke-miterlimit:4;" d="M 394.697917 248.802083 L 383.598958 255.5 " transform="matrix(0.75,0,0,0.75,0,0)"/>
<path style="fill:none;stroke-width:2;stroke-linecap:butt;stroke-linejoin:miter;stroke:rgb(0%,0%,0%);stroke-opacity:1;stroke-miterlimit:4;" d="M 277.197917 229.098958 L 256.598958 206.901042 " transform="matrix(0.75,0,0,0.75,0,0)"/>
<path style="fill:none;stroke-width:2;stroke-linecap:butt;stroke-linejoin:miter;stroke:rgb(0%,0%,0%);stroke-opacity:1;stroke-miterlimit:4;" d="M 256.598958 206.901042 L 243.697917 209.901042 " transform="matrix(0.75,0,0,0.75,0,0)"/>
<path style="fill:none;stroke-width:2;stroke-linecap:butt;stroke-linejoin:miter;stroke:rgb(80%,80%,0%);stroke-opacity:1;stroke-miterlimit:4;" d="M 243.697917 209.901042 L 230.802083 212.901042 " transform="matrix(0.75,0,0,0.75,0,0)"/>
<path style="fill:none;stroke-width:2;stroke-linecap:butt;stroke-linejoin:miter;stroke:rgb(80%,80%,0%);stroke-opacity:1;stroke-miterlimit:4;" d="M 225.302083 219.197917 L 221.697917 231 " transform="matrix(0.75,0,0,0.75,0,0)"/>
<path style="fill:none;stroke-width:2;stroke-linecap:butt;stroke-linejoin:miter;stroke:rgb(0%,0%,0%);stroke-opacity:1;stroke-miterlimit:4;" d="M 221.697917 231 L 218.098958 242.697917 " transform="matrix(0.75,0,0,0.75,0,0)"/>
<path style="fill:none;stroke-width:2;stroke-linecap:butt;stroke-linejoin:miter;stroke:rgb(0%,0%,0%);stroke-opacity:1;stroke-miterlimit:4;" d="M 121.098958 234.401042 L 105 260 " transform="matrix(0.75,0,0,0.75,0,0)"/>
<path style="fill:none;stroke-width:2;stroke-linecap:butt;stroke-linejoin:miter;stroke:rgb(0%,0%,0%);stroke-opacity:1;stroke-miterlimit:4;" d="M 105 260 L 116.401042 288.197917 " transform="matrix(0.75,0,0,0.75,0,0)"/>
<path style="fill:none;stroke-width:2;stroke-linecap:butt;stroke-linejoin:miter;stroke:rgb(0%,0%,0%);stroke-opacity:1;stroke-miterlimit:4;" d="M 102.098958 264.802083 L 110.901042 286.802083 " transform="matrix(0.75,0,0,0.75,0,0)"/>
<path style="fill:none;stroke-width:2;stroke-linecap:butt;stroke-linejoin:miter;stroke:rgb(0%,0%,0%);stroke-opacity:1;stroke-miterlimit:4;" d="M 116.401042 288.197917 L 106.598958 296.302083 " transform="matrix(0.75,0,0,0.75,0,0)"/>
<path style="fill:none;stroke-width:2;stroke-linecap:butt;stroke-linejoin:miter;stroke:rgb(80%,80%,0%);stroke-opacity:1;stroke-miterlimit:4;" d="M 106.598958 296.302083 L 96.901042 304.5 " transform="matrix(0.75,0,0,0.75,0,0)"/>
<path style="fill:none;stroke-width:2;stroke-linecap:butt;stroke-linejoin:miter;stroke:rgb(80%,80%,0%);stroke-opacity:1;stroke-miterlimit:4;" d="M 89.401042 305.302083 L 78.401042 298.401042 " transform="matrix(0.75,0,0,0.75,0,0)"/>
<path style="fill:none;stroke-width:2;stroke-linecap:butt;stroke-linejoin:miter;stroke:rgb(0%,0%,0%);stroke-opacity:1;stroke-miterlimit:4;" d="M 78.401042 298.401042 L 67.401042 291.5 " transform="matrix(0.75,0,0,0.75,0,0)"/>
<path style="fill:none;stroke-width:2;stroke-linecap:butt;stroke-linejoin:miter;stroke:rgb(0%,0%,0%);stroke-opacity:1;stroke-miterlimit:4;" d="M 67.401042 291.5 L 55.5 296.302083 " transform="matrix(0.75,0,0,0.75,0,0)"/>
<path style="fill:none;stroke-width:2;stroke-linecap:butt;stroke-linejoin:miter;stroke:rgb(0%,0%,100%);stroke-opacity:1;stroke-miterlimit:4;" d="M 55.5 296.302083 L 43.598958 301.098958 " transform="matrix(0.75,0,0,0.75,0,0)"/>
<path style="fill:none;stroke-width:2;stroke-linecap:butt;stroke-linejoin:miter;stroke:rgb(0%,0%,0%);stroke-opacity:1;stroke-miterlimit:4;" d="M 67.401042 291.5 L 70.401042 279.5 " transform="matrix(0.75,0,0,0.75,0,0)"/>
<path style="fill:none;stroke-width:2;stroke-linecap:butt;stroke-linejoin:miter;stroke:rgb(0%,0%,100%);stroke-opacity:1;stroke-miterlimit:4;" d="M 70.401042 279.5 L 73.5 267.401042 " transform="matrix(0.75,0,0,0.75,0,0)"/>
<path style="fill:none;stroke-width:2;stroke-linecap:butt;stroke-linejoin:miter;stroke:rgb(0%,0%,0%);stroke-opacity:1;stroke-miterlimit:4;" d="M 72.598958 289.401042 L 75.302083 279 " transform="matrix(0.75,0,0,0.75,0,0)"/>
<path style="fill:none;stroke-width:2;stroke-linecap:butt;stroke-linejoin:miter;stroke:rgb(0%,0%,100%);stroke-opacity:1;stroke-miterlimit:4;" d="M 75.302083 279 L 77.901042 268.5 " transform="matrix(0.75,0,0,0.75,0,0)"/>
<path style="fill:none;stroke-width:2;stroke-linecap:butt;stroke-linejoin:miter;stroke:rgb(0%,0%,0%);stroke-opacity:1;stroke-miterlimit:4;" d="M 218.098958 242.697917 L 195.901042 263.302083 " transform="matrix(0.75,0,0,0.75,0,0)"/>
<path style="fill:none;stroke-width:2;stroke-linecap:butt;stroke-linejoin:miter;stroke:rgb(0%,0%,100%);stroke-opacity:1;stroke-miterlimit:4;" d="M 79.098958 261.802083 L 92 260.901042 " transform="matrix(0.75,0,0,0.75,0,0)"/>
<path style="fill:none;stroke-width:2;stroke-linecap:butt;stroke-linejoin:miter;stroke:rgb(0%,0%,0%);stroke-opacity:1;stroke-miterlimit:4;" d="M 92 260.901042 L 105 260 " transform="matrix(0.75,0,0,0.75,0,0)"/>
<path style="fill:none;stroke-width:2;stroke-linecap:butt;stroke-linejoin:miter;stroke:rgb(0%,0%,0%);stroke-opacity:1;stroke-miterlimit:4;" d="M 218.098958 242.697917 L 226.302083 251.5 " transform="matrix(0.75,0,0,0.75,0,0)"/>
<path style="fill:none;stroke-width:2;stroke-linecap:butt;stroke-linejoin:miter;stroke:rgb(0%,0%,100%);stroke-opacity:1;stroke-miterlimit:4;" d="M 226.302083 251.5 L 234.5 260.302083 " transform="matrix(0.75,0,0,0.75,0,0)"/>
<path style="fill:none;stroke-width:2;stroke-linecap:butt;stroke-linejoin:miter;stroke:rgb(80%,80%,0%);stroke-opacity:1;stroke-miterlimit:4;" d="M 376.098958 254.401042 L 366.5 246.098958 " transform="matrix(0.75,0,0,0.75,0,0)"/>
<path style="fill:none;stroke-width:2;stroke-linecap:butt;stroke-linejoin:miter;stroke:rgb(0%,0%,0%);stroke-opacity:1;stroke-miterlimit:4;" d="M 366.5 246.098958 L 357 237.802083 " transform="matrix(0.75,0,0,0.75,0,0)"/>
<path style="fill:none;stroke-width:1;stroke-linecap:butt;stroke-linejoin:miter;stroke:rgb(0%,0%,0%);stroke-opacity:1;stroke-miterlimit:4;" d="M 215.098958 241.197917 L 215.401042 240.598958 " transform="matrix(0.75,0,0,0.75,0,0)"/>
<path style="fill:none;stroke-width:1;stroke-linecap:butt;stroke-linejoin:miter;stroke:rgb(0%,0%,0%);stroke-opacity:1;stroke-miterlimit:4;" d="M 212 239.598958 L 212.697917 238.5 " transform="matrix(0.75,0,0,0.75,0,0)"/>
<path style="fill:none;stroke-width:1;stroke-linecap:butt;stroke-linejoin:miter;stroke:rgb(0%,0%,0%);stroke-opacity:1;stroke-miterlimit:4;" d="M 208.901042 238.098958 L 209.901042 236.401042 " transform="matrix(0.75,0,0,0.75,0,0)"/>
<path style="fill:none;stroke-width:1;stroke-linecap:butt;stroke-linejoin:miter;stroke:rgb(0%,0%,0%);stroke-opacity:1;stroke-miterlimit:4;" d="M 205.802083 236.5 L 207.197917 234.302083 " transform="matrix(0.75,0,0,0.75,0,0)"/>
<path style="fill:none;stroke-width:1;stroke-linecap:butt;stroke-linejoin:miter;stroke:rgb(0%,0%,0%);stroke-opacity:1;stroke-miterlimit:4;" d="M 202.802083 235 L 204.5 232.197917 " transform="matrix(0.75,0,0,0.75,0,0)"/>
<path style="fill:none;stroke-width:1;stroke-linecap:butt;stroke-linejoin:miter;stroke:rgb(0%,0%,0%);stroke-opacity:1;stroke-miterlimit:4;" d="M 199.697917 233.401042 L 201.697917 230.098958 " transform="matrix(0.75,0,0,0.75,0,0)"/>
<path style="fill:none;stroke-width:1;stroke-linecap:butt;stroke-linejoin:miter;stroke:rgb(0%,0%,0%);stroke-opacity:1;stroke-miterlimit:4;" d="M 196.598958 231.901042 L 199 228 " transform="matrix(0.75,0,0,0.75,0,0)"/>
<path style="fill:none;stroke-width:2;stroke-linecap:butt;stroke-linejoin:miter;stroke:rgb(0%,0%,0%);stroke-opacity:1;stroke-miterlimit:4;" d="M 149.901042 235.401042 L 151.401042 235.5 L 151.697917 236 " transform="matrix(0.75,0,0,0.75,0,0)"/>
<path style="fill:none;stroke-width:2;stroke-linecap:butt;stroke-linejoin:miter;stroke:rgb(0%,0%,0%);stroke-opacity:1;stroke-miterlimit:4;" d="M 197 264.5 L 195.901042 263.302083 L 197 262.302083 " transform="matrix(0.75,0,0,0.75,0,0)"/>
<path style="fill:none;stroke-width:2;stroke-linecap:butt;stroke-linejoin:miter;stroke:rgb(0%,0%,0%);stroke-opacity:1;stroke-miterlimit:4;" d="M 215.5 284.401042 L 216.598958 285.5 L 217 285.098958 " transform="matrix(0.75,0,0,0.75,0,0)"/>
<path style="fill:none;stroke-width:2;stroke-linecap:butt;stroke-linejoin:miter;stroke:rgb(0%,0%,0%);stroke-opacity:1;stroke-miterlimit:4;" d="M 287.901042 279.197917 L 289 280.302083 L 288.802083 280.901042 " transform="matrix(0.75,0,0,0.75,0,0)"/>
<path style="fill:none;stroke-width:2;stroke-linecap:butt;stroke-linejoin:miter;stroke:rgb(0%,0%,0%);stroke-opacity:1;stroke-miterlimit:4;" d="M 305.302083 222.697917 L 306.802083 222.401042 L 307.197917 222.802083 " transform="matrix(0.75,0,0,0.75,0,0)"/>
<path style="fill:none;stroke-width:2;stroke-linecap:butt;stroke-linejoin:miter;stroke:rgb(0%,0%,0%);stroke-opacity:1;stroke-miterlimit:4;" d="M 432.302083 253.401042 L 433.697917 254 L 433.901042 255.5 " transform="matrix(0.75,0,0,0.75,0,0)"/>
<path style="fill:none;stroke-width:2;stroke-linecap:butt;stroke-linejoin:miter;stroke:rgb(0%,0%,0%);stroke-opacity:1;stroke-miterlimit:4;" d="M 437.197917 282.598958 L 437.401042 284.098958 L 438 284.302083 " transform="matrix(0.75,0,0,0.75,0,0)"/>
<path style="fill:none;stroke-width:2;stroke-linecap:butt;stroke-linejoin:miter;stroke:rgb(0%,0%,0%);stroke-opacity:1;stroke-miterlimit:4;" d="M 257.598958 208 L 256.598958 206.901042 L 255.901042 207.098958 " transform="matrix(0.75,0,0,0.75,0,0)"/>
<path style="fill:none;stroke-width:2;stroke-linecap:butt;stroke-linejoin:miter;stroke:rgb(0%,0%,0%);stroke-opacity:1;stroke-miterlimit:4;" d="M 115.802083 286.802083 L 116.401042 288.197917 L 115.901042 288.598958 " transform="matrix(0.75,0,0,0.75,0,0)"/>
<path style=" stroke:none;fill-rule:nonzero;fill:rgb(100%,0%,0%);fill-opacity:1;" d="M 54.523438 154.875 C 54.523438 153.824219 54.773438 153.023438 55.273438 152.476562 C 55.773438 151.875 56.523438 151.574219 57.523438 151.574219 C 58.476562 151.574219 59.199219 151.875 59.699219 152.476562 C 60.199219 153.023438 60.449219 153.824219 60.449219 154.875 C 60.449219 155.925781 60.199219 156.75 59.699219 157.351562 C 59.148438 157.898438 58.425781 158.175781 57.523438 158.175781 C 56.574219 158.175781 55.824219 157.898438 55.273438 157.351562 C 54.773438 156.75 54.523438 155.925781 54.523438 154.875 M 57.523438 157.5 C 58.175781 157.5 58.675781 157.273438 59.023438 156.824219 C 59.375 156.375 59.550781 155.726562 59.550781 154.875 C 59.550781 154.023438 59.375 153.398438 59.023438 153 C 58.675781 152.550781 58.175781 152.324219 57.523438 152.324219 C 56.824219 152.324219 56.300781 152.523438 55.949219 152.925781 C 55.601562 153.375 55.425781 154.023438 55.425781 154.875 C 55.425781 155.726562 55.601562 156.375 55.949219 156.824219 C 56.300781 157.273438 56.824219 157.5 57.523438 157.5 "/>
<path style=" stroke:none;fill-rule:nonzero;fill:rgb(0%,0%,100%);fill-opacity:1;" d="M 78.824219 152.476562 L 80.925781 155.851562 C 81.023438 156.101562 81.199219 156.425781 81.449219 156.824219 C 81.648438 157.226562 81.773438 157.425781 81.824219 157.425781 L 81.824219 152.476562 L 82.648438 152.476562 L 82.648438 158.925781 L 81.75 158.925781 L 79.5 155.175781 C 79.351562 154.875 79.175781 154.550781 78.976562 154.199219 C 78.773438 153.898438 78.648438 153.699219 78.601562 153.601562 L 78.601562 158.925781 L 77.773438 158.925781 L 77.773438 152.476562 L 78.824219 152.476562 "/>
<path style=" stroke:none;fill-rule:nonzero;fill:rgb(100%,0%,0%);fill-opacity:1;" d="M 122.699219 157.351562 C 122.699219 156.300781 122.949219 155.5 123.449219 154.949219 C 123.949219 154.351562 124.675781 154.050781 125.625 154.050781 C 126.574219 154.050781 127.324219 154.351562 127.875 154.949219 C 128.375 155.5 128.625 156.300781 128.625 157.351562 C 128.625 158.398438 128.375 159.226562 127.875 159.824219 C 127.324219 160.375 126.574219 160.648438 125.625 160.648438 C 124.726562 160.648438 124 160.375 123.449219 159.824219 C 122.949219 159.226562 122.699219 158.398438 122.699219 157.351562 M 125.625 159.976562 C 126.324219 159.976562 126.851562 159.75 127.199219 159.300781 C 127.550781 158.851562 127.726562 158.199219 127.726562 157.351562 C 127.726562 156.5 127.550781 155.875 127.199219 155.476562 C 126.851562 155.023438 126.324219 154.800781 125.625 154.800781 C 124.976562 154.800781 124.476562 155 124.125 155.398438 C 123.773438 155.851562 123.601562 156.5 123.601562 157.351562 C 123.601562 158.199219 123.773438 158.851562 124.125 159.300781 C 124.476562 159.75 124.976562 159.976562 125.625 159.976562 "/>
<path style=" stroke:none;fill-rule:nonzero;fill:rgb(0%,0%,100%);fill-opacity:1;" d="M 115.5 193.5 L 116.324219 193.5 L 116.324219 196.199219 L 119.625 196.199219 L 119.625 193.5 L 120.523438 193.5 L 120.523438 199.875 L 119.625 199.875 L 119.625 196.949219 L 116.324219 196.949219 L 116.324219 199.875 L 115.5 199.875 L 115.5 193.5 "/>
<path style=" stroke:none;fill-rule:nonzero;fill:rgb(0%,0%,100%);fill-opacity:1;" d="M 122.773438 193.5 L 124.949219 196.875 C 125.050781 197.074219 125.226562 197.398438 125.476562 197.851562 C 125.675781 198.25 125.800781 198.449219 125.851562 198.449219 L 125.851562 193.5 L 126.675781 193.5 L 126.675781 199.875 L 125.773438 199.875 L 123.523438 196.199219 C 123.324219 195.898438 123.148438 195.574219 123 195.226562 C 122.800781 194.925781 122.675781 194.699219 122.625 194.550781 L 122.625 199.875 L 121.800781 199.875 L 121.800781 193.5 L 122.773438 193.5 "/>
<path style=" stroke:none;fill-rule:nonzero;fill:rgb(100%,0%,0%);fill-opacity:1;" d="M 158.625 236.925781 C 158.625 235.875 158.898438 235.074219 159.449219 234.523438 C 159.949219 233.925781 160.675781 233.625 161.625 233.625 C 162.574219 233.625 163.300781 233.925781 163.800781 234.523438 C 164.300781 235.074219 164.550781 235.875 164.550781 236.925781 C 164.550781 237.976562 164.300781 238.773438 163.800781 239.324219 C 163.300781 239.925781 162.574219 240.226562 161.625 240.226562 C 160.675781 240.226562 159.949219 239.925781 159.449219 239.324219 C 158.898438 238.773438 158.625 237.976562 158.625 236.925781 M 161.625 239.476562 C 162.273438 239.476562 162.773438 239.273438 163.125 238.875 C 163.476562 238.425781 163.648438 237.773438 163.648438 236.925781 C 163.648438 236.074219 163.476562 235.425781 163.125 234.976562 C 162.773438 234.574219 162.273438 234.375 161.625 234.375 C 160.976562 234.375 160.476562 234.574219 160.125 234.976562 C 159.773438 235.425781 159.601562 236.074219 159.601562 236.925781 C 159.601562 237.773438 159.773438 238.425781 160.125 238.875 C 160.476562 239.273438 160.976562 239.476562 161.625 239.476562 "/>
<path style=" stroke:none;fill-rule:nonzero;fill:rgb(0%,0%,100%);fill-opacity:1;" d="M 177.675781 195.449219 L 179.773438 198.898438 C 179.925781 199.101562 180.101562 199.398438 180.300781 199.800781 C 180.550781 200.199219 180.675781 200.425781 180.675781 200.476562 L 180.675781 195.449219 L 181.5 195.449219 L 181.5 201.898438 L 180.675781 201.898438 L 178.351562 198.148438 C 178.199219 197.851562 178.023438 197.550781 177.824219 197.25 C 177.675781 196.898438 177.550781 196.675781 177.449219 196.574219 L 177.449219 201.898438 L 176.625 201.898438 L 176.625 195.449219 L 177.675781 195.449219 "/>
<path style=" stroke:none;fill-rule:nonzero;fill:rgb(100%,0%,0%);fill-opacity:1;" d="M 235.949219 205.199219 C 235.949219 204.148438 236.199219 203.351562 236.699219 202.800781 C 237.199219 202.199219 237.925781 201.898438 238.875 201.898438 C 239.824219 201.898438 240.550781 202.199219 241.050781 202.800781 C 241.601562 203.351562 241.875 204.148438 241.875 205.199219 C 241.875 206.25 241.601562 207.050781 241.050781 207.601562 C 240.550781 208.199219 239.824219 208.5 238.875 208.5 C 237.925781 208.5 237.199219 208.199219 236.699219 207.601562 C 236.199219 207.050781 235.949219 206.25 235.949219 205.199219 M 238.875 207.75 C 239.523438 207.75 240.023438 207.550781 240.375 207.148438 C 240.773438 206.699219 240.976562 206.050781 240.976562 205.199219 C 240.976562 204.351562 240.773438 203.699219 240.375 203.25 C 240.023438 202.851562 239.523438 202.648438 238.875 202.648438 C 238.226562 202.648438 237.726562 202.851562 237.375 203.25 C 237.023438 203.699219 236.851562 204.351562 236.851562 205.199219 C 236.851562 206.050781 237.023438 206.699219 237.375 207.148438 C 237.726562 207.550781 238.226562 207.75 238.875 207.75 "/>
<path style=" stroke:none;fill-rule:nonzero;fill:rgb(100%,0%,0%);fill-opacity:1;" d="M 207.074219 231.976562 C 207.074219 230.976562 207.351562 230.175781 207.898438 229.574219 C 208.398438 229.023438 209.125 228.75 210.074219 228.75 C 211.023438 228.75 211.75 229.023438 212.25 229.574219 C 212.75 230.175781 213 230.976562 213 231.976562 C 213 233.023438 212.75 233.851562 212.25 234.449219 C 211.75 235.050781 211.023438 235.351562 210.074219 235.351562 C 209.125 235.351562 208.398438 235.050781 207.898438 234.449219 C 207.351562 233.851562 207.074219 233.023438 207.074219 231.976562 M 210.074219 234.601562 C 210.726562 234.601562 211.226562 234.375 211.574219 233.925781 C 211.925781 233.476562 212.101562 232.824219 212.101562 231.976562 C 212.101562 231.125 211.925781 230.5 211.574219 230.101562 C 211.226562 229.648438 210.726562 229.425781 210.074219 229.425781 C 209.425781 229.425781 208.898438 229.648438 208.5 230.101562 C 208.148438 230.5 207.976562 231.125 207.976562 231.976562 C 207.976562 232.875 208.148438 233.523438 208.5 233.925781 C 208.898438 234.375 209.425781 234.601562 210.074219 234.601562 "/>
<path style=" stroke:none;fill-rule:nonzero;fill:rgb(100%,0%,0%);fill-opacity:1;" d="M 214.050781 228.824219 L 214.875 228.824219 L 214.875 231.523438 L 218.175781 231.523438 L 218.175781 228.824219 L 219.074219 228.824219 L 219.074219 235.199219 L 218.175781 235.199219 L 218.175781 232.273438 L 214.875 232.273438 L 214.875 235.199219 L 214.050781 235.199219 L 214.050781 228.824219 "/>
<path style=" stroke:none;fill-rule:nonzero;fill:rgb(80%,80%,0%);fill-opacity:1;" d="M 243.75 185.625 C 243.800781 185.625 243.925781 185.675781 244.125 185.773438 C 244.324219 185.875 244.523438 185.949219 244.726562 186 C 244.976562 186.050781 245.199219 186.074219 245.398438 186.074219 C 245.800781 186.074219 246.125 185.976562 246.375 185.773438 C 246.625 185.574219 246.75 185.300781 246.75 184.949219 C 246.75 184.699219 246.675781 184.5 246.523438 184.351562 C 246.425781 184.25 246.273438 184.148438 246.074219 184.050781 C 245.925781 183.949219 245.699219 183.875 245.398438 183.824219 C 245 183.675781 244.699219 183.550781 244.5 183.449219 C 244.25 183.351562 244.050781 183.175781 243.898438 182.925781 C 243.75 182.726562 243.675781 182.425781 243.675781 182.023438 C 243.675781 181.476562 243.851562 181.023438 244.199219 180.675781 C 244.550781 180.375 245.101562 180.226562 245.851562 180.226562 C 246.351562 180.226562 246.875 180.351562 247.425781 180.601562 L 247.199219 181.273438 C 246.699219 181.074219 246.25 180.976562 245.851562 180.976562 C 245.449219 180.976562 245.125 181.050781 244.875 181.199219 C 244.675781 181.398438 244.574219 181.625 244.574219 181.875 C 244.574219 182.125 244.625 182.324219 244.726562 182.476562 C 244.824219 182.625 244.976562 182.726562 245.175781 182.773438 C 245.324219 182.875 245.550781 182.976562 245.851562 183.074219 C 246.25 183.175781 246.574219 183.273438 246.824219 183.375 C 247.023438 183.523438 247.199219 183.726562 247.351562 183.976562 C 247.550781 184.226562 247.648438 184.550781 247.648438 184.949219 C 247.648438 185.550781 247.449219 186 247.050781 186.300781 C 246.648438 186.648438 246.125 186.824219 245.476562 186.824219 C 245.074219 186.824219 244.726562 186.773438 244.425781 186.675781 C 244.175781 186.574219 243.875 186.476562 243.523438 186.375 L 243.75 185.625 "/>
<path style=" stroke:none;fill-rule:nonzero;fill:rgb(0%,0%,100%);fill-opacity:1;" d="M 275.25 154.199219 L 277.351562 157.574219 C 277.5 157.824219 277.675781 158.148438 277.875 158.550781 C 278.125 158.949219 278.25 159.175781 278.25 159.226562 L 278.25 154.199219 L 279.074219 154.199219 L 279.074219 160.648438 L 278.175781 160.648438 L 275.925781 156.898438 C 275.773438 156.601562 275.601562 156.300781 275.398438 156 C 275.199219 155.648438 275.074219 155.425781 275.023438 155.324219 L 275.023438 160.648438 L 274.199219 160.648438 L 274.199219 154.199219 L 275.25 154.199219 "/>
<path style=" stroke:none;fill-rule:nonzero;fill:rgb(100%,0%,0%);fill-opacity:1;" d="M 306.898438 226.726562 C 306.898438 225.726562 307.148438 224.925781 307.648438 224.324219 C 308.148438 223.773438 308.875 223.5 309.824219 223.5 C 310.824219 223.5 311.574219 223.773438 312.074219 224.324219 C 312.574219 224.925781 312.824219 225.726562 312.824219 226.726562 C 312.824219 227.773438 312.574219 228.601562 312.074219 229.199219 C 311.523438 229.800781 310.773438 230.101562 309.824219 230.101562 C 308.925781 230.101562 308.199219 229.800781 307.648438 229.199219 C 307.148438 228.601562 306.898438 227.773438 306.898438 226.726562 M 309.824219 229.351562 C 310.523438 229.351562 311.050781 229.125 311.398438 228.675781 C 311.75 228.273438 311.925781 227.625 311.925781 226.726562 C 311.925781 225.925781 311.75 225.300781 311.398438 224.851562 C 311.050781 224.398438 310.523438 224.175781 309.824219 224.175781 C 309.175781 224.175781 308.675781 224.398438 308.324219 224.851562 C 307.976562 225.25 307.800781 225.875 307.800781 226.726562 C 307.800781 227.625 307.976562 228.273438 308.324219 228.675781 C 308.675781 229.125 309.175781 229.351562 309.824219 229.351562 "/>
<path style=" stroke:none;fill-rule:nonzero;fill:rgb(100%,0%,0%);fill-opacity:1;" d="M 345.976562 222 C 345.976562 221 346.25 220.199219 346.800781 219.601562 C 347.300781 219 348.023438 218.699219 348.976562 218.699219 C 349.925781 218.699219 350.648438 219 351.148438 219.601562 C 351.648438 220.199219 351.898438 221 351.898438 222 C 351.898438 223.050781 351.648438 223.875 351.148438 224.476562 C 350.648438 225.074219 349.925781 225.375 348.976562 225.375 C 348.023438 225.375 347.300781 225.074219 346.800781 224.476562 C 346.25 223.875 345.976562 223.050781 345.976562 222 M 348.976562 224.625 C 349.625 224.625 350.125 224.398438 350.476562 223.949219 C 350.824219 223.5 351 222.851562 351 222 C 351 221.148438 350.824219 220.523438 350.476562 220.125 C 350.125 219.675781 349.625 219.449219 348.976562 219.449219 C 348.324219 219.449219 347.824219 219.675781 347.476562 220.125 C 347.074219 220.523438 346.875 221.148438 346.875 222 C 346.875 222.851562 347.074219 223.5 347.476562 223.949219 C 347.824219 224.398438 348.324219 224.625 348.976562 224.625 "/>
<path style=" stroke:none;fill-rule:nonzero;fill:rgb(100%,0%,0%);fill-opacity:1;" d="M 352.949219 218.773438 L 353.773438 218.773438 L 353.773438 221.550781 L 357.074219 221.550781 L 357.074219 218.773438 L 357.976562 218.773438 L 357.976562 225.226562 L 357.074219 225.226562 L 357.074219 222.300781 L 353.773438 222.300781 L 353.773438 225.226562 L 352.949219 225.226562 L 352.949219 218.773438 "/>
<path style=" stroke:none;fill-rule:nonzero;fill:rgb(80%,80%,0%);fill-opacity:1;" d="M 283.050781 195.449219 C 283.101562 195.5 283.226562 195.574219 283.425781 195.675781 C 283.625 195.726562 283.824219 195.773438 284.023438 195.824219 C 284.273438 195.875 284.5 195.898438 284.699219 195.898438 C 285.101562 195.898438 285.425781 195.800781 285.675781 195.601562 C 285.925781 195.398438 286.050781 195.148438 286.050781 194.851562 C 286.050781 194.601562 285.976562 194.398438 285.824219 194.25 C 285.726562 194.101562 285.574219 193.976562 285.375 193.875 C 285.226562 193.824219 285 193.75 284.699219 193.648438 C 284.300781 193.550781 284 193.449219 283.800781 193.351562 C 283.550781 193.199219 283.351562 193.023438 283.199219 192.824219 C 283.050781 192.574219 282.976562 192.25 282.976562 191.851562 C 282.976562 191.351562 283.148438 190.925781 283.5 190.574219 C 283.851562 190.226562 284.398438 190.050781 285.148438 190.050781 C 285.648438 190.050781 286.175781 190.175781 286.726562 190.425781 L 286.5 191.101562 C 286 190.898438 285.550781 190.800781 285.148438 190.800781 C 284.75 190.800781 284.425781 190.898438 284.175781 191.101562 C 283.976562 191.25 283.875 191.476562 283.875 191.773438 C 283.875 192.023438 283.925781 192.199219 284.023438 192.300781 C 284.125 192.449219 284.273438 192.574219 284.476562 192.675781 C 284.625 192.726562 284.851562 192.800781 285.148438 192.898438 C 285.550781 193 285.875 193.125 286.125 193.273438 C 286.324219 193.375 286.5 193.550781 286.648438 193.800781 C 286.851562 194.050781 286.949219 194.398438 286.949219 194.851562 C 286.949219 195.398438 286.75 195.851562 286.351562 196.199219 C 285.949219 196.5 285.425781 196.648438 284.773438 196.648438 C 284.375 196.648438 284.023438 196.601562 283.726562 196.5 C 283.476562 196.449219 283.175781 196.351562 282.824219 196.199219 L 283.050781 195.449219 "/>
<path style=" stroke:none;fill-rule:nonzero;fill:rgb(80%,80%,0%);fill-opacity:1;" d="M 168.449219 162.523438 C 168.5 162.523438 168.625 162.574219 168.824219 162.675781 C 169.023438 162.726562 169.226562 162.800781 169.425781 162.898438 C 169.675781 162.898438 169.898438 162.898438 170.101562 162.898438 C 170.5 162.898438 170.824219 162.824219 171.074219 162.675781 C 171.324219 162.476562 171.449219 162.199219 171.449219 161.851562 C 171.449219 161.601562 171.375 161.398438 171.226562 161.25 C 171.125 161.101562 171 161 170.851562 160.949219 C 170.648438 160.851562 170.398438 160.75 170.101562 160.648438 C 169.699219 160.550781 169.398438 160.449219 169.199219 160.351562 C 168.949219 160.199219 168.75 160.023438 168.601562 159.824219 C 168.449219 159.574219 168.375 159.273438 168.375 158.925781 C 168.375 158.375 168.550781 157.925781 168.898438 157.574219 C 169.25 157.226562 169.800781 157.050781 170.550781 157.050781 C 171.050781 157.050781 171.574219 157.175781 172.125 157.425781 L 171.898438 158.101562 C 171.398438 157.898438 170.949219 157.800781 170.550781 157.800781 C 170.148438 157.800781 169.824219 157.898438 169.574219 158.101562 C 169.375 158.25 169.273438 158.476562 169.273438 158.773438 C 169.273438 159.023438 169.324219 159.199219 169.425781 159.300781 C 169.574219 159.449219 169.726562 159.574219 169.875 159.675781 C 170.023438 159.726562 170.25 159.800781 170.550781 159.898438 C 170.949219 160.050781 171.273438 160.175781 171.523438 160.273438 C 171.726562 160.375 171.925781 160.550781 172.125 160.800781 C 172.273438 161.050781 172.351562 161.398438 172.351562 161.851562 C 172.351562 162.449219 172.148438 162.898438 171.75 163.199219 C 171.351562 163.5 170.824219 163.648438 170.175781 163.648438 C 169.773438 163.648438 169.425781 163.625 169.125 163.574219 C 168.875 163.476562 168.574219 163.351562 168.226562 163.199219 L 168.449219 162.523438 "/>
<path style=" stroke:none;fill-rule:nonzero;fill:rgb(80%,80%,0%);fill-opacity:1;" d="M 68.023438 232.949219 C 68.074219 232.949219 68.199219 233 68.398438 233.101562 C 68.601562 233.148438 68.800781 233.226562 69 233.324219 C 69.25 233.375 69.476562 233.398438 69.675781 233.398438 C 70.074219 233.398438 70.398438 233.300781 70.648438 233.101562 C 70.898438 232.898438 71.023438 232.625 71.023438 232.273438 C 71.023438 232.023438 70.949219 231.824219 70.800781 231.675781 C 70.699219 231.523438 70.550781 231.425781 70.351562 231.375 C 70.199219 231.273438 69.976562 231.175781 69.675781 231.074219 C 69.273438 230.976562 68.949219 230.875 68.699219 230.773438 C 68.5 230.675781 68.324219 230.5 68.175781 230.25 C 67.976562 230 67.875 229.699219 67.875 229.351562 C 67.875 228.800781 68.074219 228.351562 68.476562 228 C 68.824219 227.648438 69.375 227.476562 70.125 227.476562 C 70.625 227.476562 71.148438 227.601562 71.699219 227.851562 L 71.476562 228.601562 C 70.976562 228.351562 70.523438 228.226562 70.125 228.226562 C 69.726562 228.226562 69.398438 228.324219 69.148438 228.523438 C 68.898438 228.675781 68.800781 228.898438 68.851562 229.199219 C 68.851562 229.449219 68.898438 229.648438 69 229.800781 C 69.101562 229.898438 69.25 230 69.449219 230.101562 C 69.601562 230.148438 69.824219 230.226562 70.125 230.324219 C 70.523438 230.476562 70.824219 230.601562 71.023438 230.699219 C 71.273438 230.851562 71.476562 231.050781 71.625 231.300781 C 71.824219 231.5 71.925781 231.824219 71.925781 232.273438 C 71.925781 232.875 71.726562 233.324219 71.324219 233.625 C 70.925781 233.925781 70.398438 234.074219 69.75 234.074219 C 69.351562 234.074219 69 234.050781 68.699219 234 C 68.398438 233.898438 68.101562 233.773438 67.800781 233.625 L 68.023438 232.949219 "/>
<path style=" stroke:none;fill-rule:nonzero;fill:rgb(0%,0%,100%);fill-opacity:1;" d="M 17.023438 223.949219 L 17.925781 223.949219 L 17.925781 226.648438 L 21.226562 226.648438 L 21.226562 223.949219 L 22.050781 223.949219 L 22.050781 230.324219 L 21.226562 230.324219 L 21.226562 227.398438 L 17.925781 227.398438 L 17.925781 230.324219 L 17.023438 230.324219 L 17.023438 223.949219 "/>
<path style=" stroke:none;fill-rule:nonzero;fill:rgb(0%,0%,100%);fill-opacity:1;" d="M 23.324219 230.101562 C 23.425781 229.851562 23.601562 229.648438 23.851562 229.5 C 24.101562 229.351562 24.398438 229.273438 24.75 229.273438 C 25.199219 229.273438 25.550781 229.398438 25.800781 229.648438 C 26 229.851562 26.101562 230.175781 26.101562 230.625 C 26.101562 231.023438 25.949219 231.425781 25.648438 231.824219 C 25.351562 232.226562 24.875 232.648438 24.226562 233.101562 L 26.175781 233.101562 L 26.175781 233.550781 L 23.324219 233.550781 L 23.324219 233.175781 C 23.875 232.773438 24.300781 232.449219 24.601562 232.199219 C 24.898438 231.898438 25.125 231.625 25.273438 231.375 C 25.425781 231.125 25.5 230.875 25.5 230.625 C 25.5 230.324219 25.449219 230.101562 25.351562 229.949219 C 25.199219 229.800781 25 229.726562 24.75 229.726562 C 24.550781 229.726562 24.375 229.773438 24.226562 229.875 C 24.074219 229.976562 23.925781 230.125 23.773438 230.324219 L 23.324219 230.101562 "/>
<path style=" stroke:none;fill-rule:nonzero;fill:rgb(0%,0%,100%);fill-opacity:1;" d="M 28.050781 223.949219 L 30.148438 227.324219 C 30.300781 227.523438 30.476562 227.851562 30.675781 228.300781 C 30.925781 228.699219 31.050781 228.898438 31.050781 228.898438 L 31.050781 223.949219 L 31.949219 223.949219 L 31.949219 230.324219 L 31.050781 230.324219 L 28.800781 226.648438 C 28.601562 226.351562 28.398438 226.023438 28.199219 225.675781 C 28.050781 225.324219 27.949219 225.101562 27.898438 225 L 27.898438 230.324219 L 27 230.324219 L 27 223.949219 L 28.050781 223.949219 "/>
<path style=" stroke:none;fill-rule:nonzero;fill:rgb(0%,0%,100%);fill-opacity:1;" d="M 54.675781 193.351562 L 56.773438 196.800781 C 56.925781 197 57.101562 197.300781 57.300781 197.699219 C 57.550781 198.101562 57.675781 198.324219 57.675781 198.375 L 57.675781 193.351562 L 58.574219 193.351562 L 58.574219 199.800781 L 57.675781 199.800781 L 55.425781 196.050781 C 55.226562 195.800781 55.023438 195.5 54.824219 195.148438 C 54.675781 194.800781 54.574219 194.574219 54.523438 194.476562 L 54.523438 199.800781 L 53.625 199.800781 L 53.625 193.351562 L 54.675781 193.351562 "/>
<path style=" stroke:none;fill-rule:nonzero;fill:rgb(0%,0%,0%);fill-opacity:1;" d="M 141.824219 166.726562 L 142.726562 166.726562 L 142.726562 169.5 L 145.949219 169.5 L 145.949219 166.726562 L 146.851562 166.726562 L 146.851562 173.175781 L 145.949219 173.175781 L 145.949219 170.175781 L 142.726562 170.175781 L 142.726562 173.175781 L 141.824219 173.175781 L 141.824219 166.726562 "/>
</g>
</svg>
