<?xml version="1.0" encoding="UTF-8"?>
<svg xmlns="http://www.w3.org/2000/svg" xmlns:xlink="http://www.w3.org/1999/xlink" width="375pt" height="375pt" viewBox="0 0 375 375" version="1.1">
<g id="surface246">
<rect x="0" y="0" width="375" height="375" style="fill:rgb(100%,100%,100%);fill-opacity:1;stroke:none;"/>
<path style="fill:none;stroke-width:2;stroke-linecap:butt;stroke-linejoin:miter;stroke:rgb(0%,0%,0%);stroke-opacity:1;stroke-miterlimit:4;" d="M 153.302083 143.098958 L 156.302083 156.197917 " transform="matrix(0.75,0,0,0.75,0,0)"/>
<path style="fill:none;stroke-width:2;stroke-linecap:butt;stroke-linejoin:miter;stroke:rgb(100%,0%,0%);stroke-opacity:1;stroke-miterlimit:4;" d="M 156.302083 156.197917 L 159.302083 169.302083 " transform="matrix(0.75,0,0,0.75,0,0)"/>
<path style="fill:none;stroke-width:2;stroke-linecap:butt;stroke-linejoin:miter;stroke:rgb(100%,0%,0%);stroke-opacity:1;stroke-miterlimit:4;" d="M 155.302083 180 L 148.197917 186.5 " transform="matrix(0.75,0,0,0.75,0,0)"/>
<path style="fill:none;stroke-width:2;stroke-linecap:butt;stroke-linejoin:miter;stroke:rgb(0%,0%,100%);stroke-opacity:1;stroke-miterlimit:4;" d="M 148.197917 186.5 L 141.197917 193 " transform="matrix(0.75,0,0,0.75,0,0)"/>
<path style="fill:none;stroke-width:2;stroke-linecap:butt;stroke-linejoin:miter;stroke:rgb(0%,0%,100%);stroke-opacity:1;stroke-miterlimit:4;" d="M 137.901042 203 L 140.901042 216.098958 " transform="matrix(0.75,0,0,0.75,0,0)"/>
<path style="fill:none;stroke-width:2;stroke-linecap:butt;stroke-linejoin:miter;stroke:rgb(0%,0%,0%);stroke-opacity:1;stroke-miterlimit:4;" d="M 140.901042 216.098958 L 143.901042 229.197917 " transform="matrix(0.75,0,0,0.75,0,0)"/>
<path style="fill:none;stroke-width:2;stroke-linecap:butt;stroke-linejoin:miter;stroke:rgb(0%,0%,100%);stroke-opacity:1;stroke-miterlimit:4;" d="M 145.197917 205.5 L 147.302083 214.697917 " transform="matrix(0.75,0,0,0.75,0,0)"/>
<path style="fill:none;stroke-width:2;stroke-linecap:butt;stroke-linejoin:miter;stroke:rgb(0%,0%,0%);stroke-opacity:1;stroke-miterlimit:4;" d="M 147.302083 214.697917 L 149.302083 223.802083 " transform="matrix(0.75,0,0,0.75,0,0)"/>
<path style="fill:none;stroke-width:2;stroke-linecap:butt;stroke-linejoin:miter;stroke:rgb(0%,0%,0%);stroke-opacity:1;stroke-miterlimit:4;" d="M 143.901042 229.197917 L 175.098958 238.901042 " transform="matrix(0.75,0,0,0.75,0,0)"/>
<path style="fill:none;stroke-width:2;stroke-linecap:butt;stroke-linejoin:miter;stroke:rgb(0%,0%,0%);stroke-opacity:1;stroke-miterlimit:4;" d="M 172.901042 236.5 L 182.302083 227.802083 " transform="matrix(0.75,0,0,0.75,0,0)"/>
<path style="fill:none;stroke-width:2;stroke-linecap:butt;stroke-linejoin:miter;stroke:rgb(100%,0%,0%);stroke-opacity:1;stroke-miterlimit:4;" d="M 182.302083 227.802083 L 191.598958 219.197917 " transform="matrix(0.75,0,0,0.75,0,0)"/>
<path style="fill:none;stroke-width:2;stroke-linecap:butt;stroke-linejoin:miter;stroke:rgb(0%,0%,0%);stroke-opacity:1;stroke-miterlimit:4;" d="M 177.401042 241.302083 L 186.697917 232.598958 " transform="matrix(0.75,0,0,0.75,0,0)"/>
<path style="fill:none;stroke-width:2;stroke-linecap:butt;stroke-linejoin:miter;stroke:rgb(100%,0%,0%);stroke-opacity:1;stroke-miterlimit:4;" d="M 186.697917 232.598958 L 196 224 " transform="matrix(0.75,0,0,0.75,0,0)"/>
<path style="fill:none;stroke-width:2;stroke-linecap:butt;stroke-linejoin:miter;stroke:rgb(0%,0%,0%);stroke-opacity:1;stroke-miterlimit:4;" d="M 175.098958 238.901042 L 178.098958 252 " transform="matrix(0.75,0,0,0.75,0,0)"/>
<path style="fill:none;stroke-width:2;stroke-linecap:butt;stroke-linejoin:miter;stroke:rgb(0%,0%,100%);stroke-opacity:1;stroke-miterlimit:4;" d="M 178.098958 252 L 181.098958 265.098958 " transform="matrix(0.75,0,0,0.75,0,0)"/>
<path style="fill-rule:evenodd;fill:rgb(0%,0%,0%);fill-opacity:1;stroke-width:1;stroke-linecap:butt;stroke-linejoin:miter;stroke:rgb(0%,0%,0%);stroke-opacity:1;stroke-miterlimit:4;" d="M 213.697917 280.5 L 200.401042 278.098958 L 201.401042 275 Z M 213.697917 280.5 " transform="matrix(0.75,0,0,0.75,0,0)"/>
<path style="fill-rule:evenodd;fill:rgb(0%,0%,100%);fill-opacity:1;stroke-width:1;stroke-linecap:butt;stroke-linejoin:miter;stroke:rgb(0%,0%,100%);stroke-opacity:1;stroke-miterlimit:4;" d="M 200.401042 278.098958 L 189.098958 269.401042 L 187.098958 275.697917 Z M 200.401042 278.098958 " transform="matrix(0.75,0,0,0.75,0,0)"/>
<path style="fill-rule:evenodd;fill:rgb(0%,0%,100%);fill-opacity:1;stroke-width:1;stroke-linecap:butt;stroke-linejoin:miter;stroke:rgb(0%,0%,100%);stroke-opacity:1;stroke-miterlimit:4;" d="M 200.401042 278.098958 L 201.401042 275 L 189.098958 269.401042 Z M 200.401042 278.098958 " transform="matrix(0.75,0,0,0.75,0,0)"/>
<path style="fill:none;stroke-width:2;stroke-linecap:butt;stroke-linejoin:miter;stroke:rgb(0%,0%,0%);stroke-opacity:1;stroke-miterlimit:4;" d="M 213.697917 280.5 L 229 309.401042 " transform="matrix(0.75,0,0,0.75,0,0)"/>
<path style="fill:none;stroke-width:2;stroke-linecap:butt;stroke-linejoin:miter;stroke:rgb(0%,0%,0%);stroke-opacity:1;stroke-miterlimit:4;" d="M 232.098958 310.401042 L 228.197917 323.197917 " transform="matrix(0.75,0,0,0.75,0,0)"/>
<path style="fill:none;stroke-width:2;stroke-linecap:butt;stroke-linejoin:miter;stroke:rgb(100%,0%,0%);stroke-opacity:1;stroke-miterlimit:4;" d="M 228.197917 323.197917 L 224.197917 335.901042 " transform="matrix(0.75,0,0,0.75,0,0)"/>
<path style="fill:none;stroke-width:2;stroke-linecap:butt;stroke-linejoin:miter;stroke:rgb(0%,0%,0%);stroke-opacity:1;stroke-miterlimit:4;" d="M 225.802083 308.5 L 221.901042 321.197917 " transform="matrix(0.75,0,0,0.75,0,0)"/>
<path style="fill:none;stroke-width:2;stroke-linecap:butt;stroke-linejoin:miter;stroke:rgb(100%,0%,0%);stroke-opacity:1;stroke-miterlimit:4;" d="M 221.901042 321.197917 L 218 334 " transform="matrix(0.75,0,0,0.75,0,0)"/>
<path style="fill:none;stroke-width:2;stroke-linecap:butt;stroke-linejoin:miter;stroke:rgb(0%,0%,0%);stroke-opacity:1;stroke-miterlimit:4;" d="M 229 309.401042 L 241.197917 303 " transform="matrix(0.75,0,0,0.75,0,0)"/>
<path style="fill:none;stroke-width:2;stroke-linecap:butt;stroke-linejoin:miter;stroke:rgb(0%,0%,100%);stroke-opacity:1;stroke-miterlimit:4;" d="M 241.197917 303 L 253.302083 296.598958 " transform="matrix(0.75,0,0,0.75,0,0)"/>
<path style="fill:none;stroke-width:2;stroke-linecap:butt;stroke-linejoin:miter;stroke:rgb(0%,0%,100%);stroke-opacity:1;stroke-miterlimit:4;" d="M 262.5 294.302083 L 276.598958 294.901042 " transform="matrix(0.75,0,0,0.75,0,0)"/>
<path style="fill:none;stroke-width:2;stroke-linecap:butt;stroke-linejoin:miter;stroke:rgb(0%,0%,0%);stroke-opacity:1;stroke-miterlimit:4;" d="M 276.598958 294.901042 L 290.598958 295.401042 " transform="matrix(0.75,0,0,0.75,0,0)"/>
<path style="fill:none;stroke-width:2;stroke-linecap:butt;stroke-linejoin:miter;stroke:rgb(0%,0%,0%);stroke-opacity:1;stroke-miterlimit:4;" d="M 290.598958 295.401042 L 305.901042 324.302083 " transform="matrix(0.75,0,0,0.75,0,0)"/>
<path style="fill:none;stroke-width:2;stroke-linecap:butt;stroke-linejoin:miter;stroke:rgb(0%,0%,0%);stroke-opacity:1;stroke-miterlimit:4;" d="M 306.098958 321.098958 L 319.697917 321.598958 " transform="matrix(0.75,0,0,0.75,0,0)"/>
<path style="fill:none;stroke-width:2;stroke-linecap:butt;stroke-linejoin:miter;stroke:rgb(100%,0%,0%);stroke-opacity:1;stroke-miterlimit:4;" d="M 319.697917 321.598958 L 333.401042 322.098958 " transform="matrix(0.75,0,0,0.75,0,0)"/>
<path style="fill:none;stroke-width:2;stroke-linecap:butt;stroke-linejoin:miter;stroke:rgb(0%,0%,0%);stroke-opacity:1;stroke-miterlimit:4;" d="M 305.802083 327.598958 L 319.5 328.098958 " transform="matrix(0.75,0,0,0.75,0,0)"/>
<path style="fill:none;stroke-width:2;stroke-linecap:butt;stroke-linejoin:miter;stroke:rgb(100%,0%,0%);stroke-opacity:1;stroke-miterlimit:4;" d="M 319.5 328.098958 L 333.197917 328.697917 " transform="matrix(0.75,0,0,0.75,0,0)"/>
<path style="fill:none;stroke-width:2;stroke-linecap:butt;stroke-linejoin:miter;stroke:rgb(0%,0%,0%);stroke-opacity:1;stroke-miterlimit:4;" d="M 305.901042 324.302083 L 299 335.302083 " transform="matrix(0.75,0,0,0.75,0,0)"/>
<path style="fill:none;stroke-width:2;stroke-linecap:butt;stroke-linejoin:miter;stroke:rgb(100%,0%,0%);stroke-opacity:1;stroke-miterlimit:4;" d="M 299 335.302083 L 292.098958 346.302083 " transform="matrix(0.75,0,0,0.75,0,0)"/>
<path style="fill:none;stroke-width:2;stroke-linecap:butt;stroke-linejoin:miter;stroke:rgb(0%,0%,0%);stroke-opacity:1;stroke-miterlimit:4;" d="M 290.598958 295.401042 L 308.098958 267.697917 " transform="matrix(0.75,0,0,0.75,0,0)"/>
<path style="fill:none;stroke-width:2;stroke-linecap:butt;stroke-linejoin:miter;stroke:rgb(0%,0%,0%);stroke-opacity:1;stroke-miterlimit:4;" d="M 287.697917 287.697917 L 299.901042 268.302083 " transform="matrix(0.75,0,0,0.75,0,0)"/>
<path style="fill:none;stroke-width:2;stroke-linecap:butt;stroke-linejoin:miter;stroke:rgb(0%,0%,0%);stroke-opacity:1;stroke-miterlimit:4;" d="M 308.098958 267.697917 L 340.802083 268.901042 " transform="matrix(0.75,0,0,0.75,0,0)"/>
<path style="fill:none;stroke-width:2;stroke-linecap:butt;stroke-linejoin:miter;stroke:rgb(0%,0%,0%);stroke-opacity:1;stroke-miterlimit:4;" d="M 340.802083 268.901042 L 347.697917 257.901042 " transform="matrix(0.75,0,0,0.75,0,0)"/>
<path style="fill:none;stroke-width:2;stroke-linecap:butt;stroke-linejoin:miter;stroke:rgb(0%,0%,100%);stroke-opacity:1;stroke-miterlimit:4;" d="M 347.697917 257.901042 L 354.598958 246.901042 " transform="matrix(0.75,0,0,0.75,0,0)"/>
<path style="fill:none;stroke-width:2;stroke-linecap:butt;stroke-linejoin:miter;stroke:rgb(0%,0%,100%);stroke-opacity:1;stroke-miterlimit:4;" d="M 355.901042 235.5 L 351 223.098958 " transform="matrix(0.75,0,0,0.75,0,0)"/>
<path style="fill:none;stroke-width:2;stroke-linecap:butt;stroke-linejoin:miter;stroke:rgb(0%,0%,0%);stroke-opacity:1;stroke-miterlimit:4;" d="M 351 223.098958 L 346.098958 210.802083 " transform="matrix(0.75,0,0,0.75,0,0)"/>
<path style="fill:none;stroke-width:2;stroke-linecap:butt;stroke-linejoin:miter;stroke:rgb(0%,0%,100%);stroke-opacity:1;stroke-miterlimit:4;" d="M 360.5 229.302083 L 357.098958 220.697917 " transform="matrix(0.75,0,0,0.75,0,0)"/>
<path style="fill:none;stroke-width:2;stroke-linecap:butt;stroke-linejoin:miter;stroke:rgb(0%,0%,0%);stroke-opacity:1;stroke-miterlimit:4;" d="M 357.098958 220.697917 L 353.598958 212.098958 " transform="matrix(0.75,0,0,0.75,0,0)"/>
<path style="fill:none;stroke-width:2;stroke-linecap:butt;stroke-linejoin:miter;stroke:rgb(0%,0%,0%);stroke-opacity:1;stroke-miterlimit:4;" d="M 346.098958 210.802083 L 371.197917 189.802083 " transform="matrix(0.75,0,0,0.75,0,0)"/>
<path style="fill:none;stroke-width:2;stroke-linecap:butt;stroke-linejoin:miter;stroke:rgb(0%,0%,0%);stroke-opacity:1;stroke-miterlimit:4;" d="M 371.197917 189.802083 L 398.901042 207.302083 " transform="matrix(0.75,0,0,0.75,0,0)"/>
<path style="fill:none;stroke-width:2;stroke-linecap:butt;stroke-linejoin:miter;stroke:rgb(0%,0%,0%);stroke-opacity:1;stroke-miterlimit:4;" d="M 371.901042 198 L 391.302083 210.197917 " transform="matrix(0.75,0,0,0.75,0,0)"/>
<path style="fill:none;stroke-width:2;stroke-linecap:butt;stroke-linejoin:miter;stroke:rgb(0%,0%,0%);stroke-opacity:1;stroke-miterlimit:4;" d="M 398.901042 207.302083 L 411.802083 202.098958 " transform="matrix(0.75,0,0,0.75,0,0)"/>
<path style="fill:none;stroke-width:2;stroke-linecap:butt;stroke-linejoin:miter;stroke:rgb(0%,0%,100%);stroke-opacity:1;stroke-miterlimit:4;" d="M 411.802083 202.098958 L 424.697917 196.901042 " transform="matrix(0.75,0,0,0.75,0,0)"/>
<path style="fill:none;stroke-width:2;stroke-linecap:butt;stroke-linejoin:miter;stroke:rgb(0%,0%,0%);stroke-opacity:1;stroke-miterlimit:4;" d="M 398.901042 207.302083 L 395.598958 220.302083 " transform="matrix(0.75,0,0,0.75,0,0)"/>
<path style="fill:none;stroke-width:2;stroke-linecap:butt;stroke-linejoin:miter;stroke:rgb(0%,0%,100%);stroke-opacity:1;stroke-miterlimit:4;" d="M 395.598958 220.302083 L 392.302083 233.302083 " transform="matrix(0.75,0,0,0.75,0,0)"/>
<path style="fill:none;stroke-width:2;stroke-linecap:butt;stroke-linejoin:miter;stroke:rgb(0%,0%,100%);stroke-opacity:1;stroke-miterlimit:4;" d="M 395.5 244.5 L 403.697917 254.302083 " transform="matrix(0.75,0,0,0.75,0,0)"/>
<path style="fill:none;stroke-width:2;stroke-linecap:butt;stroke-linejoin:miter;stroke:rgb(0%,0%,0%);stroke-opacity:1;stroke-miterlimit:4;" d="M 403.697917 254.302083 L 411.901042 264.197917 " transform="matrix(0.75,0,0,0.75,0,0)"/>
<path style="fill:none;stroke-width:2;stroke-linecap:butt;stroke-linejoin:miter;stroke:rgb(0%,0%,0%);stroke-opacity:1;stroke-miterlimit:4;" d="M 411.901042 264.197917 L 444.098958 258.598958 " transform="matrix(0.75,0,0,0.75,0,0)"/>
<path style="fill:none;stroke-width:2;stroke-linecap:butt;stroke-linejoin:miter;stroke:rgb(0%,0%,0%);stroke-opacity:1;stroke-miterlimit:4;" d="M 444.098958 258.598958 L 452.197917 268.302083 " transform="matrix(0.75,0,0,0.75,0,0)"/>
<path style="fill:none;stroke-width:2;stroke-linecap:butt;stroke-linejoin:miter;stroke:rgb(100%,0%,0%);stroke-opacity:1;stroke-miterlimit:4;" d="M 452.197917 268.302083 L 460.302083 277.901042 " transform="matrix(0.75,0,0,0.75,0,0)"/>
<path style="fill:none;stroke-width:2;stroke-linecap:butt;stroke-linejoin:miter;stroke:rgb(0%,0%,0%);stroke-opacity:1;stroke-miterlimit:4;" d="M 308.098958 267.697917 L 292.802083 238.697917 " transform="matrix(0.75,0,0,0.75,0,0)"/>
<path style="fill:none;stroke-width:2;stroke-linecap:butt;stroke-linejoin:miter;stroke:rgb(0%,0%,0%);stroke-opacity:1;stroke-miterlimit:4;" d="M 292.802083 238.697917 L 278.5 238.197917 " transform="matrix(0.75,0,0,0.75,0,0)"/>
<path style="fill:none;stroke-width:2;stroke-linecap:butt;stroke-linejoin:miter;stroke:rgb(80%,80%,0%);stroke-opacity:1;stroke-miterlimit:4;" d="M 278.5 238.197917 L 264.098958 237.598958 " transform="matrix(0.75,0,0,0.75,0,0)"/>
<path style="fill:none;stroke-width:2;stroke-linecap:butt;stroke-linejoin:miter;stroke:rgb(80%,80%,0%);stroke-opacity:1;stroke-miterlimit:4;" d="M 256.302083 243.401042 L 249.5 254.302083 " transform="matrix(0.75,0,0,0.75,0,0)"/>
<path style="fill:none;stroke-width:2;stroke-linecap:butt;stroke-linejoin:miter;stroke:rgb(0%,0%,0%);stroke-opacity:1;stroke-miterlimit:4;" d="M 249.5 254.302083 L 242.598958 265.197917 " transform="matrix(0.75,0,0,0.75,0,0)"/>
<path style="fill:none;stroke-width:2;stroke-linecap:butt;stroke-linejoin:miter;stroke:rgb(0%,0%,0%);stroke-opacity:1;stroke-miterlimit:4;" d="M 143.901042 229.197917 L 119.802083 251.5 " transform="matrix(0.75,0,0,0.75,0,0)"/>
<path style="fill:none;stroke-width:2;stroke-linecap:butt;stroke-linejoin:miter;stroke:rgb(0%,0%,0%);stroke-opacity:1;stroke-miterlimit:4;" d="M 119.802083 251.5 L 123.697917 284 " transform="matrix(0.75,0,0,0.75,0,0)"/>
<path style="fill:none;stroke-width:2;stroke-linecap:butt;stroke-linejoin:miter;stroke:rgb(0%,0%,0%);stroke-opacity:1;stroke-miterlimit:4;" d="M 113.901042 257.098958 L 116.697917 279.901042 " transform="matrix(0.75,0,0,0.75,0,0)"/>
<path style="fill:none;stroke-width:2;stroke-linecap:butt;stroke-linejoin:miter;stroke:rgb(0%,0%,0%);stroke-opacity:1;stroke-miterlimit:4;" d="M 123.697917 284 L 110.901042 289.901042 " transform="matrix(0.75,0,0,0.75,0,0)"/>
<path style="fill:none;stroke-width:2;stroke-linecap:butt;stroke-linejoin:miter;stroke:rgb(80%,80%,0%);stroke-opacity:1;stroke-miterlimit:4;" d="M 110.901042 289.901042 L 98.098958 295.901042 " transform="matrix(0.75,0,0,0.75,0,0)"/>
<path style="fill:none;stroke-width:2;stroke-linecap:butt;stroke-linejoin:miter;stroke:rgb(80%,80%,0%);stroke-opacity:1;stroke-miterlimit:4;" d="M 90 293.401042 L 80.901042 283.5 " transform="matrix(0.75,0,0,0.75,0,0)"/>
<path style="fill:none;stroke-width:2;stroke-linecap:butt;stroke-linejoin:miter;stroke:rgb(0%,0%,0%);stroke-opacity:1;stroke-miterlimit:4;" d="M 80.901042 283.5 L 71.802083 273.697917 " transform="matrix(0.75,0,0,0.75,0,0)"/>
<path style="fill:none;stroke-width:2;stroke-linecap:butt;stroke-linejoin:miter;stroke:rgb(0%,0%,0%);stroke-opacity:1;stroke-miterlimit:4;" d="M 71.802083 273.697917 L 57.802083 275.401042 " transform="matrix(0.75,0,0,0.75,0,0)"/>
<path style="fill:none;stroke-width:2;stroke-linecap:butt;stroke-linejoin:miter;stroke:rgb(0%,0%,100%);stroke-opacity:1;stroke-miterlimit:4;" d="M 57.802083 275.401042 L 43.901042 277.098958 " transform="matrix(0.75,0,0,0.75,0,0)"/>
<path style="fill:none;stroke-width:2;stroke-linecap:butt;stroke-linejoin:miter;stroke:rgb(0%,0%,0%);stroke-opacity:1;stroke-miterlimit:4;" d="M 71.802083 273.697917 L 78.098958 262.302083 " transform="matrix(0.75,0,0,0.75,0,0)"/>
<path style="fill:none;stroke-width:2;stroke-linecap:butt;stroke-linejoin:miter;stroke:rgb(0%,0%,100%);stroke-opacity:1;stroke-miterlimit:4;" d="M 78.098958 262.302083 L 84.5 250.802083 " transform="matrix(0.75,0,0,0.75,0,0)"/>
<path style="fill:none;stroke-width:2;stroke-linecap:butt;stroke-linejoin:miter;stroke:rgb(0%,0%,0%);stroke-opacity:1;stroke-miterlimit:4;" d="M 79.401042 273.5 L 83.901042 265.5 " transform="matrix(0.75,0,0,0.75,0,0)"/>
<path style="fill:none;stroke-width:2;stroke-linecap:butt;stroke-linejoin:miter;stroke:rgb(0%,0%,100%);stroke-opacity:1;stroke-miterlimit:4;" d="M 83.901042 265.5 L 88.302083 257.5 " transform="matrix(0.75,0,0,0.75,0,0)"/>
<path style="fill:none;stroke-width:2;stroke-linecap:butt;stroke-linejoin:miter;stroke:rgb(0%,0%,0%);stroke-opacity:1;stroke-miterlimit:4;" d="M 242.598958 265.197917 L 213.697917 280.5 " transform="matrix(0.75,0,0,0.75,0,0)"/>
<path style="fill:none;stroke-width:2;stroke-linecap:butt;stroke-linejoin:miter;stroke:rgb(0%,0%,100%);stroke-opacity:1;stroke-miterlimit:4;" d="M 92.302083 246 L 106.098958 248.802083 " transform="matrix(0.75,0,0,0.75,0,0)"/>
<path style="fill:none;stroke-width:2;stroke-linecap:butt;stroke-linejoin:miter;stroke:rgb(0%,0%,0%);stroke-opacity:1;stroke-miterlimit:4;" d="M 106.098958 248.802083 L 119.802083 251.5 " transform="matrix(0.75,0,0,0.75,0,0)"/>
<path style="fill:none;stroke-width:2;stroke-linecap:butt;stroke-linejoin:miter;stroke:rgb(0%,0%,0%);stroke-opacity:1;stroke-miterlimit:4;" d="M 242.598958 265.197917 L 248.802083 276.802083 " transform="matrix(0.75,0,0,0.75,0,0)"/>
<path style="fill:none;stroke-width:2;stroke-linecap:butt;stroke-linejoin:miter;stroke:rgb(0%,0%,100%);stroke-opacity:1;stroke-miterlimit:4;" d="M 248.802083 276.802083 L 254.901042 288.401042 " transform="matrix(0.75,0,0,0.75,0,0)"/>
<path style="fill:none;stroke-width:2;stroke-linecap:butt;stroke-linejoin:miter;stroke:rgb(0%,0%,100%);stroke-opacity:1;stroke-miterlimit:4;" d="M 386.302083 239.302083 L 368 240.5 " transform="matrix(0.75,0,0,0.75,0,0)"/>
<path style="fill:none;stroke-width:1;stroke-linecap:butt;stroke-linejoin:miter;stroke:rgb(0%,0%,0%);stroke-opacity:1;stroke-miterlimit:4;" d="M 239.098958 260.197917 L 237.901042 261.302083 " transform="matrix(0.75,0,0,0.75,0,0)"/>
<path style="fill:none;stroke-width:1;stroke-linecap:butt;stroke-linejoin:miter;stroke:rgb(0%,0%,0%);stroke-opacity:1;stroke-miterlimit:4;" d="M 235.598958 255.197917 L 233.197917 257.401042 " transform="matrix(0.75,0,0,0.75,0,0)"/>
<path style="fill:none;stroke-width:1;stroke-linecap:butt;stroke-linejoin:miter;stroke:rgb(0%,0%,0%);stroke-opacity:1;stroke-miterlimit:4;" d="M 232.098958 250.197917 L 228.5 253.5 " transform="matrix(0.75,0,0,0.75,0,0)"/>
<path style="fill:none;stroke-width:1;stroke-linecap:butt;stroke-linejoin:miter;stroke:rgb(0%,0%,0%);stroke-opacity:1;stroke-miterlimit:4;" d="M 228.598958 245.197917 L 223.802083 249.598958 " transform="matrix(0.75,0,0,0.75,0,0)"/>
<path style=" stroke:none;fill-rule:nonzero;fill:rgb(100%,0%,0%);fill-opacity:1;" d="M 117.226562 131.324219 C 117.226562 130.175781 117.5 129.300781 118.050781 128.699219 C 118.601562 128.050781 119.398438 127.726562 120.449219 127.726562 C 121.5 127.726562 122.300781 128.050781 122.851562 128.699219 C 123.398438 129.300781 123.675781 130.175781 123.675781 131.324219 C 123.675781 132.425781 123.375 133.300781 122.773438 133.949219 C 122.226562 134.601562 121.449219 134.925781 120.449219 134.925781 C 119.449219 134.925781 118.648438 134.601562 118.050781 133.949219 C 117.5 133.300781 117.226562 132.425781 117.226562 131.324219 M 120.449219 134.101562 C 121.148438 134.101562 121.699219 133.875 122.101562 133.425781 C 122.449219 132.925781 122.625 132.226562 122.625 131.324219 C 122.625 130.375 122.449219 129.675781 122.101562 129.226562 C 121.699219 128.773438 121.148438 128.550781 120.449219 128.550781 C 119.75 128.550781 119.199219 128.773438 118.800781 129.226562 C 118.449219 129.675781 118.273438 130.375 118.273438 131.324219 C 118.273438 132.226562 118.449219 132.925781 118.800781 133.425781 C 119.199219 133.875 119.75 134.101562 120.449219 134.101562 "/>
<path style=" stroke:none;fill-rule:nonzero;fill:rgb(0%,0%,100%);fill-opacity:1;" d="M 100.875 144.523438 L 103.199219 148.199219 C 103.351562 148.449219 103.550781 148.773438 103.800781 149.175781 C 104 149.625 104.125 149.875 104.175781 149.925781 L 104.175781 144.523438 L 105.074219 144.523438 L 105.074219 151.425781 L 104.101562 151.425781 L 101.699219 147.449219 C 101.5 147.101562 101.300781 146.75 101.101562 146.398438 C 100.898438 146.050781 100.773438 145.824219 100.726562 145.726562 L 100.726562 151.425781 L 99.824219 151.425781 L 99.824219 144.523438 L 100.875 144.523438 "/>
<path style=" stroke:none;fill-rule:nonzero;fill:rgb(100%,0%,0%);fill-opacity:1;" d="M 146.175781 162.523438 C 146.175781 161.375 146.449219 160.5 147 159.898438 C 147.550781 159.25 148.351562 158.925781 149.398438 158.925781 C 150.398438 158.925781 151.175781 159.25 151.726562 159.898438 C 152.273438 160.5 152.550781 161.375 152.550781 162.523438 C 152.550781 163.625 152.273438 164.5 151.726562 165.148438 C 151.175781 165.800781 150.398438 166.125 149.398438 166.125 C 148.351562 166.125 147.550781 165.800781 147 165.148438 C 146.449219 164.5 146.175781 163.625 146.175781 162.523438 M 149.398438 165.300781 C 150.101562 165.300781 150.625 165.074219 150.976562 164.625 C 151.375 164.125 151.574219 163.425781 151.574219 162.523438 C 151.574219 161.574219 151.375 160.875 150.976562 160.425781 C 150.625 159.976562 150.101562 159.75 149.398438 159.75 C 148.648438 159.75 148.101562 159.976562 147.75 160.425781 C 147.351562 160.875 147.148438 161.574219 147.148438 162.523438 C 147.148438 163.425781 147.351562 164.125 147.75 164.625 C 148.101562 165.074219 148.648438 165.300781 149.398438 165.300781 "/>
<path style=" stroke:none;fill-rule:nonzero;fill:rgb(0%,0%,100%);fill-opacity:1;" d="M 127.875 199.648438 L 128.851562 199.648438 L 128.851562 202.574219 L 132.375 202.574219 L 132.375 199.648438 L 133.351562 199.648438 L 133.351562 206.550781 L 132.375 206.550781 L 132.375 203.398438 L 128.851562 203.398438 L 128.851562 206.550781 L 127.875 206.550781 L 127.875 199.648438 "/>
<path style=" stroke:none;fill-rule:nonzero;fill:rgb(0%,0%,100%);fill-opacity:1;" d="M 135.300781 199.648438 L 137.550781 203.324219 C 137.699219 203.574219 137.898438 203.898438 138.148438 204.300781 C 138.398438 204.75 138.523438 205 138.523438 205.050781 L 138.523438 199.648438 L 139.425781 199.648438 L 139.425781 206.550781 L 138.523438 206.550781 L 136.050781 202.574219 C 135.851562 202.226562 135.648438 201.875 135.449219 201.523438 C 135.25 201.175781 135.125 200.949219 135.074219 200.851562 L 135.074219 206.550781 L 134.175781 206.550781 L 134.175781 199.648438 L 135.300781 199.648438 "/>
<path style=" stroke:none;fill-rule:nonzero;fill:rgb(100%,0%,0%);fill-opacity:1;" d="M 161.324219 255.523438 C 161.324219 254.425781 161.601562 253.574219 162.148438 252.976562 C 162.699219 252.324219 163.476562 252 164.476562 252 C 165.523438 252 166.324219 252.324219 166.875 252.976562 C 167.425781 253.574219 167.699219 254.425781 167.699219 255.523438 C 167.699219 256.675781 167.425781 257.574219 166.875 258.226562 C 166.273438 258.824219 165.476562 259.125 164.476562 259.125 C 163.476562 259.125 162.699219 258.824219 162.148438 258.226562 C 161.601562 257.574219 161.324219 256.675781 161.324219 255.523438 M 164.476562 258.375 C 165.175781 258.375 165.726562 258.148438 166.125 257.699219 C 166.523438 257.199219 166.726562 256.476562 166.726562 255.523438 C 166.726562 254.625 166.523438 253.949219 166.125 253.5 C 165.726562 253.050781 165.175781 252.824219 164.476562 252.824219 C 163.773438 252.824219 163.226562 253.050781 162.824219 253.5 C 162.476562 253.949219 162.300781 254.625 162.300781 255.523438 C 162.300781 256.476562 162.476562 257.199219 162.824219 257.699219 C 163.226562 258.148438 163.773438 258.375 164.476562 258.375 "/>
<path style=" stroke:none;fill-rule:nonzero;fill:rgb(0%,0%,100%);fill-opacity:1;" d="M 191.925781 217.125 L 194.175781 220.800781 C 194.324219 221.050781 194.523438 221.398438 194.773438 221.851562 C 195.023438 222.300781 195.148438 222.523438 195.148438 222.523438 L 195.148438 217.125 L 196.050781 217.125 L 196.050781 224.101562 L 195.148438 224.101562 L 192.675781 220.050781 C 192.476562 219.75 192.273438 219.425781 192.074219 219.074219 C 191.875 218.675781 191.75 218.425781 191.699219 218.324219 L 191.699219 224.101562 L 190.800781 224.101562 L 190.800781 217.125 L 191.925781 217.125 "/>
<path style=" stroke:none;fill-rule:nonzero;fill:rgb(100%,0%,0%);fill-opacity:1;" d="M 250.800781 244.199219 C 250.800781 243.101562 251.074219 242.226562 251.625 241.574219 C 252.175781 240.976562 252.976562 240.675781 254.023438 240.675781 C 255.023438 240.675781 255.800781 240.976562 256.351562 241.574219 C 256.898438 242.226562 257.175781 243.101562 257.175781 244.199219 C 257.175781 245.351562 256.898438 246.226562 256.351562 246.824219 C 255.800781 247.476562 255.023438 247.800781 254.023438 247.800781 C 252.976562 247.800781 252.175781 247.476562 251.625 246.824219 C 251.074219 246.226562 250.800781 245.351562 250.800781 244.199219 M 254.023438 247.050781 C 254.726562 247.050781 255.25 246.800781 255.601562 246.300781 C 256 245.851562 256.199219 245.148438 256.199219 244.199219 C 256.199219 243.300781 256 242.625 255.601562 242.175781 C 255.25 241.675781 254.726562 241.425781 254.023438 241.425781 C 253.273438 241.425781 252.726562 241.675781 252.375 242.175781 C 251.976562 242.625 251.773438 243.300781 251.773438 244.199219 C 251.773438 245.148438 251.976562 245.851562 252.375 246.300781 C 252.726562 246.800781 253.273438 247.050781 254.023438 247.050781 "/>
<path style=" stroke:none;fill-rule:nonzero;fill:rgb(100%,0%,0%);fill-opacity:1;" d="M 213.148438 264.074219 C 213.148438 262.976562 213.425781 262.101562 213.976562 261.449219 C 214.523438 260.851562 215.324219 260.550781 216.375 260.550781 C 217.425781 260.550781 218.226562 260.851562 218.773438 261.449219 C 219.324219 262.101562 219.601562 262.976562 219.601562 264.074219 C 219.601562 265.175781 219.300781 266.050781 218.699219 266.699219 C 218.148438 267.351562 217.375 267.675781 216.375 267.675781 C 215.375 267.675781 214.574219 267.351562 213.976562 266.699219 C 213.425781 266.050781 213.148438 265.175781 213.148438 264.074219 M 216.375 266.851562 C 217.074219 266.851562 217.625 266.625 218.023438 266.175781 C 218.375 265.675781 218.550781 264.976562 218.550781 264.074219 C 218.550781 263.175781 218.375 262.476562 218.023438 261.976562 C 217.625 261.523438 217.074219 261.300781 216.375 261.300781 C 215.675781 261.300781 215.125 261.523438 214.726562 261.976562 C 214.375 262.425781 214.199219 263.125 214.199219 264.074219 C 214.199219 265.023438 214.375 265.726562 214.726562 266.175781 C 215.125 266.625 215.675781 266.851562 216.375 266.851562 "/>
<path style=" stroke:none;fill-rule:nonzero;fill:rgb(100%,0%,0%);fill-opacity:1;" d="M 220.050781 261.675781 L 222.449219 261.675781 L 222.449219 262.199219 L 220.050781 262.199219 L 220.050781 261.675781 "/>
<path style=" stroke:none;fill-rule:nonzero;fill:rgb(0%,0%,100%);fill-opacity:1;" d="M 267.148438 177.449219 L 269.398438 181.125 C 269.550781 181.375 269.75 181.699219 270 182.101562 C 270.25 182.550781 270.375 182.800781 270.375 182.851562 L 270.375 177.449219 L 271.351562 177.449219 L 271.351562 184.351562 L 270.375 184.351562 L 267.898438 180.375 C 267.699219 180.023438 267.5 179.675781 267.300781 179.324219 C 267.101562 178.976562 266.976562 178.75 266.925781 178.648438 L 266.925781 184.351562 L 266.023438 184.351562 L 266.023438 177.449219 L 267.148438 177.449219 "/>
<path style=" stroke:none;fill-rule:nonzero;fill:rgb(0%,0%,100%);fill-opacity:1;" d="M 272.101562 178.648438 L 273.375 178.648438 L 273.375 177.375 L 273.898438 177.375 L 273.898438 178.648438 L 275.175781 178.648438 L 275.175781 179.175781 L 273.898438 179.175781 L 273.898438 180.449219 L 273.375 180.449219 L 273.375 179.175781 L 272.101562 179.175781 L 272.101562 178.648438 "/>
<path style=" stroke:none;fill-rule:nonzero;fill:rgb(0%,0%,100%);fill-opacity:1;" d="M 320.476562 142.875 L 322.726562 146.550781 C 322.875 146.800781 323.074219 147.125 323.324219 147.523438 C 323.574219 147.976562 323.699219 148.226562 323.699219 148.273438 L 323.699219 142.875 L 324.601562 142.875 L 324.601562 149.773438 L 323.699219 149.773438 L 321.226562 145.800781 C 321.023438 145.449219 320.824219 145.101562 320.625 144.75 C 320.425781 144.398438 320.300781 144.175781 320.25 144.074219 L 320.25 149.773438 L 319.351562 149.773438 L 319.351562 142.875 L 320.476562 142.875 "/>
<path style=" stroke:none;fill-rule:nonzero;fill:rgb(0%,0%,100%);fill-opacity:1;" d="M 325.425781 142.875 L 326.398438 142.875 L 326.398438 145.800781 L 329.925781 145.800781 L 329.925781 142.875 L 330.898438 142.875 L 330.898438 149.773438 L 329.925781 149.773438 L 329.925781 146.550781 L 326.398438 146.550781 L 326.398438 149.773438 L 325.425781 149.773438 L 325.425781 142.875 "/>
<path style=" stroke:none;fill-rule:nonzero;fill:rgb(0%,0%,100%);fill-opacity:1;" d="M 331.726562 149.550781 C 331.824219 149.25 332.023438 149.023438 332.324219 148.875 C 332.574219 148.726562 332.875 148.648438 333.226562 148.648438 C 333.726562 148.648438 334.101562 148.773438 334.351562 149.023438 C 334.601562 149.273438 334.726562 149.625 334.726562 150.074219 C 334.726562 150.523438 334.550781 150.949219 334.199219 151.351562 C 333.898438 151.800781 333.398438 152.273438 332.699219 152.773438 L 334.800781 152.773438 L 334.800781 153.300781 L 331.726562 153.300781 L 331.726562 152.851562 C 332.273438 152.449219 332.726562 152.101562 333.074219 151.800781 C 333.425781 151.5 333.675781 151.199219 333.824219 150.898438 C 333.976562 150.648438 334.050781 150.375 334.050781 150.074219 C 334.050781 149.773438 333.976562 149.550781 333.824219 149.398438 C 333.726562 149.25 333.523438 149.175781 333.226562 149.175781 C 332.976562 149.175781 332.773438 149.226562 332.625 149.324219 C 332.476562 149.425781 332.351562 149.574219 332.25 149.773438 L 331.726562 149.550781 "/>
<path style=" stroke:none;fill-rule:nonzero;fill:rgb(0%,0%,100%);fill-opacity:1;" d="M 291.675781 175.800781 L 293.925781 179.476562 C 294.074219 179.726562 294.273438 180.050781 294.523438 180.449219 C 294.773438 180.898438 294.898438 181.148438 294.898438 181.199219 L 294.898438 175.800781 L 295.800781 175.800781 L 295.800781 182.699219 L 294.824219 182.699219 L 292.425781 178.726562 C 292.226562 178.375 292.023438 178.023438 291.824219 177.675781 C 291.625 177.324219 291.5 177.101562 291.449219 177 L 291.449219 182.699219 L 290.550781 182.699219 L 290.550781 175.800781 L 291.675781 175.800781 "/>
<path style=" stroke:none;fill-rule:nonzero;fill:rgb(100%,0%,0%);fill-opacity:1;" d="M 345.601562 212.773438 C 345.601562 211.675781 345.875 210.824219 346.425781 210.226562 C 346.976562 209.574219 347.773438 209.25 348.824219 209.25 C 349.875 209.25 350.675781 209.574219 351.226562 210.226562 C 351.773438 210.824219 352.050781 211.675781 352.050781 212.773438 C 352.050781 213.925781 351.75 214.824219 351.148438 215.476562 C 350.601562 216.074219 349.824219 216.375 348.824219 216.375 C 347.824219 216.375 347.023438 216.074219 346.425781 215.476562 C 345.875 214.824219 345.601562 213.925781 345.601562 212.773438 M 348.824219 215.625 C 349.523438 215.625 350.074219 215.398438 350.476562 214.949219 C 350.875 214.449219 351.074219 213.726562 351.074219 212.773438 C 351.074219 211.875 350.875 211.199219 350.476562 210.75 C 350.074219 210.300781 349.523438 210.074219 348.824219 210.074219 C 348.125 210.074219 347.574219 210.300781 347.175781 210.75 C 346.824219 211.199219 346.648438 211.875 346.648438 212.773438 C 346.648438 213.726562 346.824219 214.449219 347.175781 214.949219 C 347.574219 215.398438 348.125 215.625 348.824219 215.625 "/>
<path style=" stroke:none;fill-rule:nonzero;fill:rgb(100%,0%,0%);fill-opacity:1;" d="M 352.5 209.324219 L 353.476562 209.324219 L 353.476562 212.324219 L 357 212.324219 L 357 209.324219 L 357.976562 209.324219 L 357.976562 216.300781 L 357 216.300781 L 357 213.074219 L 353.476562 213.074219 L 353.476562 216.300781 L 352.5 216.300781 L 352.5 209.324219 "/>
<path style=" stroke:none;fill-rule:nonzero;fill:rgb(80%,80%,0%);fill-opacity:1;" d="M 193.125 180.523438 C 193.175781 180.523438 193.300781 180.574219 193.5 180.675781 C 193.699219 180.773438 193.925781 180.851562 194.175781 180.898438 C 194.425781 180.949219 194.675781 180.976562 194.925781 180.976562 C 195.324219 180.976562 195.648438 180.875 195.898438 180.675781 C 196.199219 180.425781 196.351562 180.125 196.351562 179.773438 C 196.351562 179.523438 196.273438 179.324219 196.125 179.175781 C 195.976562 179.023438 195.824219 178.898438 195.675781 178.800781 C 195.476562 178.699219 195.199219 178.601562 194.851562 178.5 C 194.449219 178.398438 194.125 178.273438 193.875 178.125 C 193.625 178.023438 193.398438 177.851562 193.199219 177.601562 C 193.050781 177.351562 192.976562 177.023438 192.976562 176.625 C 192.976562 176.023438 193.175781 175.550781 193.574219 175.199219 C 193.976562 174.851562 194.574219 174.675781 195.375 174.675781 C 195.875 174.675781 196.449219 174.800781 197.101562 175.050781 L 196.875 175.800781 C 196.273438 175.550781 195.773438 175.425781 195.375 175.425781 C 194.925781 175.425781 194.574219 175.523438 194.324219 175.726562 C 194.074219 175.925781 193.949219 176.175781 193.949219 176.476562 C 193.949219 176.726562 194.023438 176.925781 194.175781 177.074219 C 194.273438 177.226562 194.425781 177.351562 194.625 177.449219 C 194.824219 177.5 195.074219 177.574219 195.375 177.675781 C 195.773438 177.824219 196.101562 177.976562 196.351562 178.125 C 196.601562 178.226562 196.824219 178.425781 197.023438 178.726562 C 197.226562 178.976562 197.324219 179.324219 197.324219 179.773438 C 197.324219 180.425781 197.101562 180.925781 196.648438 181.273438 C 196.199219 181.574219 195.625 181.726562 194.925781 181.726562 C 194.523438 181.726562 194.175781 181.699219 193.875 181.648438 C 193.523438 181.550781 193.175781 181.425781 192.824219 181.273438 L 193.125 180.523438 "/>
<path style=" stroke:none;fill-rule:nonzero;fill:rgb(80%,80%,0%);fill-opacity:1;" d="M 68.550781 225.675781 C 68.601562 225.726562 68.726562 225.773438 68.925781 225.824219 C 69.175781 225.925781 69.398438 226 69.601562 226.050781 C 69.851562 226.101562 70.101562 226.125 70.351562 226.125 C 70.800781 226.125 71.148438 226.023438 71.398438 225.824219 C 71.648438 225.625 71.773438 225.324219 71.773438 224.925781 C 71.773438 224.675781 71.699219 224.476562 71.550781 224.324219 C 71.449219 224.175781 71.300781 224.050781 71.101562 223.949219 C 70.898438 223.898438 70.625 223.824219 70.273438 223.726562 C 69.875 223.574219 69.550781 223.449219 69.300781 223.351562 C 69.050781 223.25 68.851562 223.074219 68.699219 222.824219 C 68.5 222.574219 68.398438 222.226562 68.398438 221.773438 C 68.398438 221.226562 68.601562 220.75 69 220.351562 C 69.398438 220 70 219.824219 70.800781 219.824219 C 71.351562 219.824219 71.925781 219.949219 72.523438 220.199219 L 72.300781 220.949219 C 71.75 220.75 71.25 220.648438 70.800781 220.648438 C 70.351562 220.648438 70 220.75 69.75 220.949219 C 69.5 221.101562 69.398438 221.351562 69.449219 221.699219 C 69.449219 221.949219 69.5 222.148438 69.601562 222.300781 C 69.75 222.449219 69.898438 222.550781 70.050781 222.601562 C 70.25 222.699219 70.5 222.800781 70.800781 222.898438 C 71.25 223.050781 71.601562 223.175781 71.851562 223.273438 C 72.101562 223.425781 72.300781 223.625 72.449219 223.875 C 72.648438 224.125 72.75 224.476562 72.75 224.925781 C 72.75 225.574219 72.523438 226.074219 72.074219 226.425781 C 71.675781 226.773438 71.125 226.949219 70.425781 226.949219 C 69.976562 226.949219 69.601562 226.898438 69.300781 226.800781 C 69 226.75 68.648438 226.648438 68.25 226.5 L 68.550781 225.675781 "/>
<path style=" stroke:none;fill-rule:nonzero;fill:rgb(0%,0%,100%);fill-opacity:1;" d="M 17.023438 204.75 L 18 204.75 L 18 207.675781 L 21.523438 207.675781 L 21.523438 204.75 L 22.5 204.75 L 22.5 211.726562 L 21.523438 211.726562 L 21.523438 208.5 L 18 208.5 L 18 211.726562 L 17.023438 211.726562 L 17.023438 204.75 "/>
<path style=" stroke:none;fill-rule:nonzero;fill:rgb(0%,0%,100%);fill-opacity:1;" d="M 23.324219 211.425781 C 23.425781 211.125 23.625 210.898438 23.925781 210.75 C 24.175781 210.601562 24.5 210.523438 24.898438 210.523438 C 25.351562 210.523438 25.699219 210.648438 25.949219 210.898438 C 26.199219 211.148438 26.324219 211.5 26.324219 211.949219 C 26.324219 212.398438 26.148438 212.824219 25.800781 213.226562 C 25.5 213.675781 25 214.148438 24.300781 214.648438 L 26.398438 214.648438 L 26.398438 215.175781 L 23.324219 215.175781 L 23.324219 214.726562 C 23.875 214.324219 24.324219 213.976562 24.675781 213.675781 C 25.023438 213.375 25.273438 213.074219 25.425781 212.773438 C 25.625 212.523438 25.726562 212.25 25.726562 211.949219 C 25.726562 211.648438 25.648438 211.425781 25.5 211.273438 C 25.351562 211.125 25.148438 211.050781 24.898438 211.050781 C 24.648438 211.050781 24.425781 211.101562 24.226562 211.199219 C 24.074219 211.300781 23.949219 211.449219 23.851562 211.648438 L 23.324219 211.425781 "/>
<path style=" stroke:none;fill-rule:nonzero;fill:rgb(0%,0%,100%);fill-opacity:1;" d="M 27.898438 204.75 L 30.148438 208.425781 C 30.300781 208.675781 30.5 209.023438 30.75 209.476562 C 31 209.875 31.125 210.101562 31.125 210.148438 L 31.125 204.75 L 32.101562 204.75 L 32.101562 211.726562 L 31.125 211.726562 L 28.648438 207.675781 C 28.5 207.375 28.324219 207.023438 28.125 206.625 C 27.925781 206.273438 27.773438 206.050781 27.675781 205.949219 L 27.675781 211.726562 L 26.773438 211.726562 L 26.773438 204.75 L 27.898438 204.75 "/>
<path style=" stroke:none;fill-rule:nonzero;fill:rgb(0%,0%,100%);fill-opacity:1;" d="M 64.273438 180.375 L 66.523438 184.050781 C 66.675781 184.300781 66.875 184.648438 67.125 185.101562 C 67.375 185.5 67.5 185.726562 67.5 185.773438 L 67.5 180.375 L 68.398438 180.375 L 68.398438 187.351562 L 67.5 187.351562 L 65.023438 183.300781 C 64.824219 183 64.625 182.675781 64.425781 182.324219 C 64.226562 181.925781 64.101562 181.675781 64.050781 181.574219 L 64.050781 187.351562 L 63.148438 187.351562 L 63.148438 180.375 L 64.273438 180.375 "/>
<path style=" stroke:none;fill-rule:nonzero;fill:rgb(0%,0%,0%);fill-opacity:1;" d="M 162.601562 177.375 L 163.5 177.375 L 163.5 180.375 L 167.101562 180.375 L 167.101562 177.375 L 168 177.375 L 168 184.351562 L 167.101562 184.351562 L 167.101562 181.125 L 163.5 181.125 L 163.5 184.351562 L 162.601562 184.351562 L 162.601562 177.375 "/>
</g>
</svg>
