<?xml version="1.0" encoding="UTF-8"?>
<svg xmlns="http://www.w3.org/2000/svg" xmlns:xlink="http://www.w3.org/1999/xlink" width="375pt" height="375pt" viewBox="0 0 375 375" version="1.1">
<g id="surface261">
<rect x="0" y="0" width="375" height="375" style="fill:rgb(100%,100%,100%);fill-opacity:1;stroke:none;"/>
<path style="fill:none;stroke-width:2;stroke-linecap:butt;stroke-linejoin:miter;stroke:rgb(0%,0%,0%);stroke-opacity:1;stroke-miterlimit:4;" d="M 172.302083 129 L 175.197917 143.697917 " transform="matrix(0.75,0,0,0.75,0,0)"/>
<path style="fill:none;stroke-width:2;stroke-linecap:butt;stroke-linejoin:miter;stroke:rgb(100%,0%,0%);stroke-opacity:1;stroke-miterlimit:4;" d="M 175.197917 143.697917 L 178 158.302083 " transform="matrix(0.75,0,0,0.75,0,0)"/>
<path style="fill:none;stroke-width:2;stroke-linecap:butt;stroke-linejoin:miter;stroke:rgb(100%,0%,0%);stroke-opacity:1;stroke-miterlimit:4;" d="M 173.401042 169.901042 L 165.197917 177.098958 " transform="matrix(0.75,0,0,0.75,0,0)"/>
<path style="fill:none;stroke-width:2;stroke-linecap:butt;stroke-linejoin:miter;stroke:rgb(0%,0%,100%);stroke-opacity:1;stroke-miterlimit:4;" d="M 165.197917 177.098958 L 157 184.197917 " transform="matrix(0.75,0,0,0.75,0,0)"/>
<path style="fill:none;stroke-width:2;stroke-linecap:butt;stroke-linejoin:miter;stroke:rgb(0%,0%,100%);stroke-opacity:1;stroke-miterlimit:4;" d="M 153.098958 195 L 156 209.697917 " transform="matrix(0.75,0,0,0.75,0,0)"/>
<path style="fill:none;stroke-width:2;stroke-linecap:butt;stroke-linejoin:miter;stroke:rgb(0%,0%,0%);stroke-opacity:1;stroke-miterlimit:4;" d="M 156 209.697917 L 158.901042 224.401042 " transform="matrix(0.75,0,0,0.75,0,0)"/>
<path style="fill:none;stroke-width:2;stroke-linecap:butt;stroke-linejoin:miter;stroke:rgb(0%,0%,100%);stroke-opacity:1;stroke-miterlimit:4;" d="M 161.197917 198 L 163.197917 208.302083 " transform="matrix(0.75,0,0,0.75,0,0)"/>
<path style="fill:none;stroke-width:2;stroke-linecap:butt;stroke-linejoin:miter;stroke:rgb(0%,0%,0%);stroke-opacity:1;stroke-miterlimit:4;" d="M 163.197917 208.302083 L 165.197917 218.598958 " transform="matrix(0.75,0,0,0.75,0,0)"/>
<path style="fill:none;stroke-width:2;stroke-linecap:butt;stroke-linejoin:miter;stroke:rgb(0%,0%,0%);stroke-opacity:1;stroke-miterlimit:4;" d="M 158.901042 224.401042 L 193.401042 236.098958 " transform="matrix(0.75,0,0,0.75,0,0)"/>
<path style="fill:none;stroke-width:2;stroke-linecap:butt;stroke-linejoin:miter;stroke:rgb(0%,0%,0%);stroke-opacity:1;stroke-miterlimit:4;" d="M 191 233.401042 L 201.697917 224 " transform="matrix(0.75,0,0,0.75,0,0)"/>
<path style="fill:none;stroke-width:2;stroke-linecap:butt;stroke-linejoin:miter;stroke:rgb(100%,0%,0%);stroke-opacity:1;stroke-miterlimit:4;" d="M 201.697917 224 L 212.5 214.598958 " transform="matrix(0.75,0,0,0.75,0,0)"/>
<path style="fill:none;stroke-width:2;stroke-linecap:butt;stroke-linejoin:miter;stroke:rgb(0%,0%,0%);stroke-opacity:1;stroke-miterlimit:4;" d="M 195.802083 238.901042 L 206.5 229.5 " transform="matrix(0.75,0,0,0.75,0,0)"/>
<path style="fill:none;stroke-width:2;stroke-linecap:butt;stroke-linejoin:miter;stroke:rgb(100%,0%,0%);stroke-opacity:1;stroke-miterlimit:4;" d="M 206.5 229.5 L 217.302083 220.098958 " transform="matrix(0.75,0,0,0.75,0,0)"/>
<path style="fill:none;stroke-width:2;stroke-linecap:butt;stroke-linejoin:miter;stroke:rgb(0%,0%,0%);stroke-opacity:1;stroke-miterlimit:4;" d="M 193.401042 236.098958 L 196.302083 250.802083 " transform="matrix(0.75,0,0,0.75,0,0)"/>
<path style="fill:none;stroke-width:2;stroke-linecap:butt;stroke-linejoin:miter;stroke:rgb(0%,0%,100%);stroke-opacity:1;stroke-miterlimit:4;" d="M 196.302083 250.802083 L 199.197917 265.5 " transform="matrix(0.75,0,0,0.75,0,0)"/>
<path style="fill-rule:evenodd;fill:rgb(0%,0%,0%);fill-opacity:1;stroke-width:1;stroke-linecap:butt;stroke-linejoin:miter;stroke:rgb(0%,0%,0%);stroke-opacity:1;stroke-miterlimit:4;" d="M 234.901042 283.598958 L 220.197917 280.5 L 221.401042 277.098958 Z M 234.901042 283.598958 " transform="matrix(0.75,0,0,0.75,0,0)"/>
<path style="fill-rule:evenodd;fill:rgb(0%,0%,100%);fill-opacity:1;stroke-width:1;stroke-linecap:butt;stroke-linejoin:miter;stroke:rgb(0%,0%,100%);stroke-opacity:1;stroke-miterlimit:4;" d="M 220.197917 280.5 L 207.901042 270.598958 L 205.5 277.5 Z M 220.197917 280.5 " transform="matrix(0.75,0,0,0.75,0,0)"/>
<path style="fill-rule:evenodd;fill:rgb(0%,0%,100%);fill-opacity:1;stroke-width:1;stroke-linecap:butt;stroke-linejoin:miter;stroke:rgb(0%,0%,100%);stroke-opacity:1;stroke-miterlimit:4;" d="M 220.197917 280.5 L 221.401042 277.098958 L 207.901042 270.598958 Z M 220.197917 280.5 " transform="matrix(0.75,0,0,0.75,0,0)"/>
<path style="fill:none;stroke-width:2;stroke-linecap:butt;stroke-linejoin:miter;stroke:rgb(0%,0%,0%);stroke-opacity:1;stroke-miterlimit:4;" d="M 234.901042 283.598958 L 250.901042 316.302083 " transform="matrix(0.75,0,0,0.75,0,0)"/>
<path style="fill:none;stroke-width:2;stroke-linecap:butt;stroke-linejoin:miter;stroke:rgb(0%,0%,0%);stroke-opacity:1;stroke-miterlimit:4;" d="M 254.302083 317.5 L 249.598958 331.5 " transform="matrix(0.75,0,0,0.75,0,0)"/>
<path style="fill:none;stroke-width:2;stroke-linecap:butt;stroke-linejoin:miter;stroke:rgb(100%,0%,0%);stroke-opacity:1;stroke-miterlimit:4;" d="M 249.598958 331.5 L 244.802083 345.5 " transform="matrix(0.75,0,0,0.75,0,0)"/>
<path style="fill:none;stroke-width:2;stroke-linecap:butt;stroke-linejoin:miter;stroke:rgb(0%,0%,0%);stroke-opacity:1;stroke-miterlimit:4;" d="M 247.5 315.098958 L 242.697917 329.098958 " transform="matrix(0.75,0,0,0.75,0,0)"/>
<path style="fill:none;stroke-width:2;stroke-linecap:butt;stroke-linejoin:miter;stroke:rgb(100%,0%,0%);stroke-opacity:1;stroke-miterlimit:4;" d="M 242.697917 329.098958 L 237.901042 343.197917 " transform="matrix(0.75,0,0,0.75,0,0)"/>
<path style="fill:none;stroke-width:2;stroke-linecap:butt;stroke-linejoin:miter;stroke:rgb(0%,0%,0%);stroke-opacity:1;stroke-miterlimit:4;" d="M 250.901042 316.302083 L 264.697917 309.5 " transform="matrix(0.75,0,0,0.75,0,0)"/>
<path style="fill:none;stroke-width:2;stroke-linecap:butt;stroke-linejoin:miter;stroke:rgb(0%,0%,100%);stroke-opacity:1;stroke-miterlimit:4;" d="M 264.697917 309.5 L 278.5 302.802083 " transform="matrix(0.75,0,0,0.75,0,0)"/>
<path style="fill:none;stroke-width:2;stroke-linecap:butt;stroke-linejoin:miter;stroke:rgb(0%,0%,100%);stroke-opacity:1;stroke-miterlimit:4;" d="M 288.697917 300.598958 L 304.302083 301.697917 " transform="matrix(0.75,0,0,0.75,0,0)"/>
<path style="fill:none;stroke-width:2;stroke-linecap:butt;stroke-linejoin:miter;stroke:rgb(0%,0%,0%);stroke-opacity:1;stroke-miterlimit:4;" d="M 304.302083 301.697917 L 319.901042 302.697917 " transform="matrix(0.75,0,0,0.75,0,0)"/>
<path style="fill:none;stroke-width:2;stroke-linecap:butt;stroke-linejoin:miter;stroke:rgb(0%,0%,0%);stroke-opacity:1;stroke-miterlimit:4;" d="M 319.901042 302.697917 L 335.901042 335.401042 " transform="matrix(0.75,0,0,0.75,0,0)"/>
<path style="fill:none;stroke-width:2;stroke-linecap:butt;stroke-linejoin:miter;stroke:rgb(0%,0%,0%);stroke-opacity:1;stroke-miterlimit:4;" d="M 336.197917 331.802083 L 351.401042 332.802083 " transform="matrix(0.75,0,0,0.75,0,0)"/>
<path style="fill:none;stroke-width:2;stroke-linecap:butt;stroke-linejoin:miter;stroke:rgb(100%,0%,0%);stroke-opacity:1;stroke-miterlimit:4;" d="M 351.401042 332.802083 L 366.598958 333.802083 " transform="matrix(0.75,0,0,0.75,0,0)"/>
<path style="fill:none;stroke-width:2;stroke-linecap:butt;stroke-linejoin:miter;stroke:rgb(0%,0%,0%);stroke-opacity:1;stroke-miterlimit:4;" d="M 335.697917 339 L 350.901042 340.098958 " transform="matrix(0.75,0,0,0.75,0,0)"/>
<path style="fill:none;stroke-width:2;stroke-linecap:butt;stroke-linejoin:miter;stroke:rgb(100%,0%,0%);stroke-opacity:1;stroke-miterlimit:4;" d="M 350.901042 340.098958 L 366.098958 341.098958 " transform="matrix(0.75,0,0,0.75,0,0)"/>
<path style="fill:none;stroke-width:2;stroke-linecap:butt;stroke-linejoin:miter;stroke:rgb(0%,0%,0%);stroke-opacity:1;stroke-miterlimit:4;" d="M 335.901042 335.401042 L 327.901042 347.302083 " transform="matrix(0.75,0,0,0.75,0,0)"/>
<path style="fill:none;stroke-width:2;stroke-linecap:butt;stroke-linejoin:miter;stroke:rgb(100%,0%,0%);stroke-opacity:1;stroke-miterlimit:4;" d="M 327.901042 347.302083 L 320 359.197917 " transform="matrix(0.75,0,0,0.75,0,0)"/>
<path style="fill:none;stroke-width:2;stroke-linecap:butt;stroke-linejoin:miter;stroke:rgb(0%,0%,0%);stroke-opacity:1;stroke-miterlimit:4;" d="M 319.901042 302.697917 L 340.197917 272.5 " transform="matrix(0.75,0,0,0.75,0,0)"/>
<path style="fill:none;stroke-width:2;stroke-linecap:butt;stroke-linejoin:miter;stroke:rgb(0%,0%,0%);stroke-opacity:1;stroke-miterlimit:4;" d="M 316.901042 294.098958 L 331.098958 273 " transform="matrix(0.75,0,0,0.75,0,0)"/>
<path style="fill:none;stroke-width:2;stroke-linecap:butt;stroke-linejoin:miter;stroke:rgb(0%,0%,0%);stroke-opacity:1;stroke-miterlimit:4;" d="M 340.197917 272.5 L 376.5 274.901042 " transform="matrix(0.75,0,0,0.75,0,0)"/>
<path style="fill:none;stroke-width:2;stroke-linecap:butt;stroke-linejoin:miter;stroke:rgb(0%,0%,0%);stroke-opacity:1;stroke-miterlimit:4;" d="M 376.5 274.901042 L 384.5 263 " transform="matrix(0.75,0,0,0.75,0,0)"/>
<path style="fill:none;stroke-width:2;stroke-linecap:butt;stroke-linejoin:miter;stroke:rgb(0%,0%,100%);stroke-opacity:1;stroke-miterlimit:4;" d="M 384.5 263 L 392.5 251.098958 " transform="matrix(0.75,0,0,0.75,0,0)"/>
<path style="fill:none;stroke-width:2;stroke-linecap:butt;stroke-linejoin:miter;stroke:rgb(0%,0%,100%);stroke-opacity:1;stroke-miterlimit:4;" d="M 394.401042 238.401042 L 386.598958 216.901042 " transform="matrix(0.75,0,0,0.75,0,0)"/>
<path style="fill:none;stroke-width:2;stroke-linecap:butt;stroke-linejoin:miter;stroke:rgb(0%,0%,100%);stroke-opacity:1;stroke-miterlimit:4;" d="M 389.401042 206.5 L 407.802083 192.098958 " transform="matrix(0.75,0,0,0.75,0,0)"/>
<path style="fill:none;stroke-width:2;stroke-linecap:butt;stroke-linejoin:miter;stroke:rgb(0%,0%,100%);stroke-opacity:1;stroke-miterlimit:4;" d="M 396.598958 210.098958 L 409.5 200 " transform="matrix(0.75,0,0,0.75,0,0)"/>
<path style="fill:none;stroke-width:2;stroke-linecap:butt;stroke-linejoin:miter;stroke:rgb(0%,0%,100%);stroke-opacity:1;stroke-miterlimit:4;" d="M 418 191.5 L 430.5 199.901042 " transform="matrix(0.75,0,0,0.75,0,0)"/>
<path style="fill:none;stroke-width:2;stroke-linecap:butt;stroke-linejoin:miter;stroke:rgb(0%,0%,0%);stroke-opacity:1;stroke-miterlimit:4;" d="M 430.5 199.901042 L 443.098958 208.302083 " transform="matrix(0.75,0,0,0.75,0,0)"/>
<path style="fill:none;stroke-width:2;stroke-linecap:butt;stroke-linejoin:miter;stroke:rgb(0%,0%,0%);stroke-opacity:1;stroke-miterlimit:4;" d="M 443.098958 208.302083 L 477.302083 195.802083 " transform="matrix(0.75,0,0,0.75,0,0)"/>
<path style="fill:none;stroke-width:2;stroke-linecap:butt;stroke-linejoin:miter;stroke:rgb(0%,0%,0%);stroke-opacity:1;stroke-miterlimit:4;" d="M 443.098958 208.302083 L 439 222.697917 " transform="matrix(0.75,0,0,0.75,0,0)"/>
<path style="fill:none;stroke-width:2;stroke-linecap:butt;stroke-linejoin:miter;stroke:rgb(0%,0%,100%);stroke-opacity:1;stroke-miterlimit:4;" d="M 439 222.697917 L 435 237 " transform="matrix(0.75,0,0,0.75,0,0)"/>
<path style="fill:none;stroke-width:2;stroke-linecap:butt;stroke-linejoin:miter;stroke:rgb(0%,0%,0%);stroke-opacity:1;stroke-miterlimit:4;" d="M 434.901042 210.598958 L 432 220.697917 " transform="matrix(0.75,0,0,0.75,0,0)"/>
<path style="fill:none;stroke-width:2;stroke-linecap:butt;stroke-linejoin:miter;stroke:rgb(0%,0%,100%);stroke-opacity:1;stroke-miterlimit:4;" d="M 432 220.697917 L 429.197917 230.697917 " transform="matrix(0.75,0,0,0.75,0,0)"/>
<path style="fill:none;stroke-width:2;stroke-linecap:butt;stroke-linejoin:miter;stroke:rgb(0%,0%,0%);stroke-opacity:1;stroke-miterlimit:4;" d="M 340.197917 272.5 L 324.098958 239.802083 " transform="matrix(0.75,0,0,0.75,0,0)"/>
<path style="fill:none;stroke-width:2;stroke-linecap:butt;stroke-linejoin:miter;stroke:rgb(0%,0%,0%);stroke-opacity:1;stroke-miterlimit:4;" d="M 324.098958 239.802083 L 308.197917 238.697917 " transform="matrix(0.75,0,0,0.75,0,0)"/>
<path style="fill:none;stroke-width:2;stroke-linecap:butt;stroke-linejoin:miter;stroke:rgb(80%,80%,0%);stroke-opacity:1;stroke-miterlimit:4;" d="M 308.197917 238.697917 L 292.302083 237.697917 " transform="matrix(0.75,0,0,0.75,0,0)"/>
<path style="fill:none;stroke-width:2;stroke-linecap:butt;stroke-linejoin:miter;stroke:rgb(80%,80%,0%);stroke-opacity:1;stroke-miterlimit:4;" d="M 283.401042 244 L 275.5 255.802083 " transform="matrix(0.75,0,0,0.75,0,0)"/>
<path style="fill:none;stroke-width:2;stroke-linecap:butt;stroke-linejoin:miter;stroke:rgb(0%,0%,0%);stroke-opacity:1;stroke-miterlimit:4;" d="M 275.5 255.802083 L 267.5 267.598958 " transform="matrix(0.75,0,0,0.75,0,0)"/>
<path style="fill:none;stroke-width:2;stroke-linecap:butt;stroke-linejoin:miter;stroke:rgb(0%,0%,0%);stroke-opacity:1;stroke-miterlimit:4;" d="M 158.901042 224.401042 L 131.5 248.302083 " transform="matrix(0.75,0,0,0.75,0,0)"/>
<path style="fill:none;stroke-width:2;stroke-linecap:butt;stroke-linejoin:miter;stroke:rgb(0%,0%,0%);stroke-opacity:1;stroke-miterlimit:4;" d="M 131.5 248.302083 L 134.802083 284.598958 " transform="matrix(0.75,0,0,0.75,0,0)"/>
<path style="fill:none;stroke-width:2;stroke-linecap:butt;stroke-linejoin:miter;stroke:rgb(0%,0%,0%);stroke-opacity:1;stroke-miterlimit:4;" d="M 124.802083 254.401042 L 127 279.802083 " transform="matrix(0.75,0,0,0.75,0,0)"/>
<path style="fill:none;stroke-width:2;stroke-linecap:butt;stroke-linejoin:miter;stroke:rgb(0%,0%,0%);stroke-opacity:1;stroke-miterlimit:4;" d="M 134.802083 284.598958 L 120.302083 290.802083 " transform="matrix(0.75,0,0,0.75,0,0)"/>
<path style="fill:none;stroke-width:2;stroke-linecap:butt;stroke-linejoin:miter;stroke:rgb(80%,80%,0%);stroke-opacity:1;stroke-miterlimit:4;" d="M 120.302083 290.802083 L 105.802083 297 " transform="matrix(0.75,0,0,0.75,0,0)"/>
<path style="fill:none;stroke-width:2;stroke-linecap:butt;stroke-linejoin:miter;stroke:rgb(80%,80%,0%);stroke-opacity:1;stroke-miterlimit:4;" d="M 96.802083 293.697917 L 87.098958 282.598958 " transform="matrix(0.75,0,0,0.75,0,0)"/>
<path style="fill:none;stroke-width:2;stroke-linecap:butt;stroke-linejoin:miter;stroke:rgb(0%,0%,0%);stroke-opacity:1;stroke-miterlimit:4;" d="M 87.098958 282.598958 L 77.401042 271.5 " transform="matrix(0.75,0,0,0.75,0,0)"/>
<path style="fill:none;stroke-width:2;stroke-linecap:butt;stroke-linejoin:miter;stroke:rgb(0%,0%,0%);stroke-opacity:1;stroke-miterlimit:4;" d="M 77.401042 271.5 L 61.802083 272.901042 " transform="matrix(0.75,0,0,0.75,0,0)"/>
<path style="fill:none;stroke-width:2;stroke-linecap:butt;stroke-linejoin:miter;stroke:rgb(0%,0%,100%);stroke-opacity:1;stroke-miterlimit:4;" d="M 61.802083 272.901042 L 46.197917 274.302083 " transform="matrix(0.75,0,0,0.75,0,0)"/>
<path style="fill:none;stroke-width:2;stroke-linecap:butt;stroke-linejoin:miter;stroke:rgb(0%,0%,0%);stroke-opacity:1;stroke-miterlimit:4;" d="M 77.401042 271.5 L 84.802083 259 " transform="matrix(0.75,0,0,0.75,0,0)"/>
<path style="fill:none;stroke-width:2;stroke-linecap:butt;stroke-linejoin:miter;stroke:rgb(0%,0%,100%);stroke-opacity:1;stroke-miterlimit:4;" d="M 84.802083 259 L 92.197917 246.598958 " transform="matrix(0.75,0,0,0.75,0,0)"/>
<path style="fill:none;stroke-width:2;stroke-linecap:butt;stroke-linejoin:miter;stroke:rgb(0%,0%,0%);stroke-opacity:1;stroke-miterlimit:4;" d="M 85.802083 271.5 L 91 262.802083 " transform="matrix(0.75,0,0,0.75,0,0)"/>
<path style="fill:none;stroke-width:2;stroke-linecap:butt;stroke-linejoin:miter;stroke:rgb(0%,0%,100%);stroke-opacity:1;stroke-miterlimit:4;" d="M 91 262.802083 L 96.197917 254.098958 " transform="matrix(0.75,0,0,0.75,0,0)"/>
<path style="fill:none;stroke-width:2;stroke-linecap:butt;stroke-linejoin:miter;stroke:rgb(0%,0%,0%);stroke-opacity:1;stroke-miterlimit:4;" d="M 267.5 267.598958 L 234.901042 283.598958 " transform="matrix(0.75,0,0,0.75,0,0)"/>
<path style="fill:none;stroke-width:2;stroke-linecap:butt;stroke-linejoin:miter;stroke:rgb(0%,0%,100%);stroke-opacity:1;stroke-miterlimit:4;" d="M 101.098958 241.401042 L 116.302083 244.901042 " transform="matrix(0.75,0,0,0.75,0,0)"/>
<path style="fill:none;stroke-width:2;stroke-linecap:butt;stroke-linejoin:miter;stroke:rgb(0%,0%,0%);stroke-opacity:1;stroke-miterlimit:4;" d="M 116.302083 244.901042 L 131.5 248.302083 " transform="matrix(0.75,0,0,0.75,0,0)"/>
<path style="fill:none;stroke-width:2;stroke-linecap:butt;stroke-linejoin:miter;stroke:rgb(0%,0%,0%);stroke-opacity:1;stroke-miterlimit:4;" d="M 267.5 267.598958 L 274 280.802083 " transform="matrix(0.75,0,0,0.75,0,0)"/>
<path style="fill:none;stroke-width:2;stroke-linecap:butt;stroke-linejoin:miter;stroke:rgb(0%,0%,100%);stroke-opacity:1;stroke-miterlimit:4;" d="M 274 280.802083 L 280.5 293.901042 " transform="matrix(0.75,0,0,0.75,0,0)"/>
<path style="fill:none;stroke-width:2;stroke-linecap:butt;stroke-linejoin:miter;stroke:rgb(0%,0%,100%);stroke-opacity:1;stroke-miterlimit:4;" d="M 428 243.5 L 401.901042 244.5 " transform="matrix(0.75,0,0,0.75,0,0)"/>
<path style="fill:none;stroke-width:1;stroke-linecap:butt;stroke-linejoin:miter;stroke:rgb(0%,0%,0%);stroke-opacity:1;stroke-miterlimit:4;" d="M 264.598958 263.098958 L 263.5 264.098958 " transform="matrix(0.75,0,0,0.75,0,0)"/>
<path style="fill:none;stroke-width:1;stroke-linecap:butt;stroke-linejoin:miter;stroke:rgb(0%,0%,0%);stroke-opacity:1;stroke-miterlimit:4;" d="M 261.598958 258.598958 L 259.401042 260.5 " transform="matrix(0.75,0,0,0.75,0,0)"/>
<path style="fill:none;stroke-width:1;stroke-linecap:butt;stroke-linejoin:miter;stroke:rgb(0%,0%,0%);stroke-opacity:1;stroke-miterlimit:4;" d="M 258.697917 254.098958 L 255.401042 257 " transform="matrix(0.75,0,0,0.75,0,0)"/>
<path style="fill:none;stroke-width:1;stroke-linecap:butt;stroke-linejoin:miter;stroke:rgb(0%,0%,0%);stroke-opacity:1;stroke-miterlimit:4;" d="M 255.697917 249.598958 L 251.302083 253.5 " transform="matrix(0.75,0,0,0.75,0,0)"/>
<path style="fill:none;stroke-width:1;stroke-linecap:butt;stroke-linejoin:miter;stroke:rgb(0%,0%,0%);stroke-opacity:1;stroke-miterlimit:4;" d="M 252.802083 245.098958 L 247.302083 249.901042 " transform="matrix(0.75,0,0,0.75,0,0)"/>
<path style=" stroke:none;fill-rule:nonzero;fill:rgb(100%,0%,0%);fill-opacity:1;" d="M 130.949219 123.523438 C 130.949219 122.324219 131.25 121.375 131.851562 120.675781 C 132.449219 119.976562 133.324219 119.625 134.476562 119.625 C 135.625 119.625 136.5 119.976562 137.101562 120.675781 C 137.699219 121.375 138 122.324219 138 123.523438 C 138 124.824219 137.699219 125.824219 137.101562 126.523438 C 136.5 127.226562 135.625 127.574219 134.476562 127.574219 C 133.324219 127.574219 132.449219 127.226562 131.851562 126.523438 C 131.25 125.824219 130.949219 124.824219 130.949219 123.523438 M 134.476562 126.675781 C 135.273438 126.675781 135.875 126.425781 136.273438 125.925781 C 136.726562 125.375 136.949219 124.574219 136.949219 123.523438 C 136.949219 122.523438 136.726562 121.773438 136.273438 121.273438 C 135.875 120.773438 135.273438 120.523438 134.476562 120.523438 C 133.675781 120.523438 133.074219 120.773438 132.675781 121.273438 C 132.226562 121.773438 132 122.523438 132 123.523438 C 132 124.574219 132.226562 125.375 132.675781 125.925781 C 133.074219 126.425781 133.675781 126.675781 134.476562 126.675781 "/>
<path style=" stroke:none;fill-rule:nonzero;fill:rgb(0%,0%,100%);fill-opacity:1;" d="M 112.199219 137.625 L 114.75 141.75 C 114.898438 142 115.125 142.375 115.425781 142.875 C 115.675781 143.375 115.800781 143.625 115.800781 143.625 L 115.800781 137.625 L 116.851562 137.625 L 116.851562 145.351562 L 115.800781 145.351562 L 113.101562 140.925781 C 112.851562 140.574219 112.625 140.199219 112.425781 139.800781 C 112.226562 139.398438 112.074219 139.125 111.976562 138.976562 L 111.976562 145.351562 L 111 145.351562 L 111 137.625 L 112.199219 137.625 "/>
<path style=" stroke:none;fill-rule:nonzero;fill:rgb(100%,0%,0%);fill-opacity:1;" d="M 162.074219 159.148438 C 162.074219 157.949219 162.375 157 162.976562 156.300781 C 163.574219 155.601562 164.449219 155.25 165.601562 155.25 C 166.75 155.25 167.625 155.601562 168.226562 156.300781 C 168.824219 157 169.125 157.949219 169.125 159.148438 C 169.125 160.398438 168.824219 161.398438 168.226562 162.148438 C 167.574219 162.851562 166.699219 163.199219 165.601562 163.199219 C 164.449219 163.199219 163.574219 162.851562 162.976562 162.148438 C 162.375 161.398438 162.074219 160.398438 162.074219 159.148438 M 165.601562 162.300781 C 166.398438 162.300781 167 162.050781 167.398438 161.550781 C 167.851562 161 168.074219 160.199219 168.074219 159.148438 C 168.074219 158.148438 167.851562 157.398438 167.398438 156.898438 C 167 156.398438 166.398438 156.148438 165.601562 156.148438 C 164.800781 156.148438 164.199219 156.398438 163.800781 156.898438 C 163.351562 157.398438 163.125 158.148438 163.125 159.148438 C 163.125 160.199219 163.351562 161 163.800781 161.550781 C 164.199219 162.050781 164.800781 162.300781 165.601562 162.300781 "/>
<path style=" stroke:none;fill-rule:nonzero;fill:rgb(0%,0%,100%);fill-opacity:1;" d="M 140.398438 200.023438 L 141.449219 200.023438 L 141.449219 203.324219 L 145.425781 203.324219 L 145.425781 200.023438 L 146.476562 200.023438 L 146.476562 207.75 L 145.425781 207.75 L 145.425781 204.226562 L 141.449219 204.226562 L 141.449219 207.75 L 140.398438 207.75 L 140.398438 200.023438 "/>
<path style=" stroke:none;fill-rule:nonzero;fill:rgb(0%,0%,100%);fill-opacity:1;" d="M 148.574219 200.023438 L 151.125 204.148438 C 151.273438 204.398438 151.5 204.773438 151.800781 205.273438 C 152.050781 205.773438 152.199219 206.023438 152.25 206.023438 L 152.25 200.023438 L 153.226562 200.023438 L 153.226562 207.75 L 152.175781 207.75 L 149.476562 203.25 C 149.273438 202.898438 149.050781 202.523438 148.800781 202.125 C 148.601562 201.726562 148.449219 201.476562 148.351562 201.375 L 148.351562 207.75 L 147.375 207.75 L 147.375 200.023438 L 148.574219 200.023438 "/>
<path style=" stroke:none;fill-rule:nonzero;fill:rgb(100%,0%,0%);fill-opacity:1;" d="M 175.800781 263.101562 C 175.800781 261.851562 176.101562 260.875 176.699219 260.175781 C 177.300781 259.476562 178.175781 259.125 179.324219 259.125 C 180.476562 259.125 181.351562 259.476562 181.949219 260.175781 C 182.601562 260.875 182.925781 261.851562 182.925781 263.101562 C 182.925781 264.351562 182.601562 265.324219 181.949219 266.023438 C 181.351562 266.726562 180.476562 267.074219 179.324219 267.074219 C 178.226562 267.074219 177.351562 266.726562 176.699219 266.023438 C 176.101562 265.324219 175.800781 264.351562 175.800781 263.101562 M 179.324219 266.25 C 180.125 266.25 180.726562 265.976562 181.125 265.425781 C 181.574219 264.925781 181.800781 264.148438 181.800781 263.101562 C 181.800781 262.101562 181.574219 261.324219 181.125 260.773438 C 180.726562 260.273438 180.125 260.023438 179.324219 260.023438 C 178.574219 260.023438 177.976562 260.273438 177.523438 260.773438 C 177.125 261.273438 176.925781 262.050781 176.925781 263.101562 C 176.925781 264.148438 177.125 264.925781 177.523438 265.425781 C 177.976562 265.976562 178.574219 266.25 179.324219 266.25 "/>
<path style=" stroke:none;fill-rule:nonzero;fill:rgb(0%,0%,100%);fill-opacity:1;" d="M 210.976562 221.324219 L 213.523438 225.449219 C 213.675781 225.699219 213.875 226.074219 214.125 226.574219 C 214.425781 227.074219 214.574219 227.324219 214.574219 227.324219 L 214.574219 221.324219 L 215.625 221.324219 L 215.625 229.050781 L 214.574219 229.050781 L 211.800781 224.625 C 211.601562 224.273438 211.398438 223.898438 211.199219 223.5 C 210.949219 223.101562 210.800781 222.824219 210.75 222.675781 L 210.75 229.050781 L 209.773438 229.050781 L 209.773438 221.324219 L 210.976562 221.324219 "/>
<path style=" stroke:none;fill-rule:nonzero;fill:rgb(100%,0%,0%);fill-opacity:1;" d="M 275.625 253.425781 C 275.625 252.175781 275.925781 251.199219 276.523438 250.5 C 277.175781 249.800781 278.074219 249.449219 279.226562 249.449219 C 280.324219 249.449219 281.199219 249.800781 281.851562 250.5 C 282.449219 251.199219 282.75 252.175781 282.75 253.425781 C 282.75 254.675781 282.425781 255.648438 281.773438 256.351562 C 281.175781 257.050781 280.324219 257.398438 279.226562 257.398438 C 278.074219 257.398438 277.175781 257.050781 276.523438 256.351562 C 275.925781 255.648438 275.625 254.675781 275.625 253.425781 M 279.226562 256.574219 C 279.976562 256.574219 280.574219 256.300781 281.023438 255.75 C 281.425781 255.199219 281.625 254.425781 281.625 253.425781 C 281.625 252.425781 281.425781 251.648438 281.023438 251.101562 C 280.574219 250.601562 279.976562 250.351562 279.226562 250.351562 C 278.425781 250.351562 277.800781 250.601562 277.351562 251.101562 C 276.949219 251.601562 276.75 252.375 276.75 253.425781 C 276.75 254.476562 276.949219 255.25 277.351562 255.75 C 277.800781 256.300781 278.425781 256.574219 279.226562 256.574219 "/>
<path style=" stroke:none;fill-rule:nonzero;fill:rgb(100%,0%,0%);fill-opacity:1;" d="M 226.199219 270.375 L 227.25 270.375 L 227.25 273.675781 L 231.226562 273.675781 L 231.226562 270.375 L 232.273438 270.375 L 232.273438 278.101562 L 231.226562 278.101562 L 231.226562 274.574219 L 227.25 274.574219 L 227.25 278.101562 L 226.199219 278.101562 L 226.199219 270.375 "/>
<path style=" stroke:none;fill-rule:nonzero;fill:rgb(100%,0%,0%);fill-opacity:1;" d="M 233.175781 274.273438 C 233.175781 273.023438 233.476562 272.050781 234.074219 271.351562 C 234.726562 270.648438 235.625 270.300781 236.773438 270.300781 C 237.875 270.300781 238.75 270.648438 239.398438 271.351562 C 240 272.050781 240.300781 273.023438 240.300781 274.273438 C 240.300781 275.523438 239.976562 276.5 239.324219 277.199219 C 238.726562 277.898438 237.875 278.25 236.773438 278.25 C 235.625 278.25 234.726562 277.898438 234.074219 277.199219 C 233.476562 276.5 233.175781 275.523438 233.175781 274.273438 M 236.773438 277.351562 C 237.523438 277.351562 238.125 277.101562 238.574219 276.601562 C 238.976562 276.050781 239.175781 275.273438 239.175781 274.273438 C 239.175781 273.226562 238.976562 272.449219 238.574219 271.949219 C 238.125 271.449219 237.523438 271.199219 236.773438 271.199219 C 235.976562 271.199219 235.351562 271.449219 234.898438 271.949219 C 234.5 272.449219 234.300781 273.226562 234.300781 274.273438 C 234.300781 275.273438 234.5 276.050781 234.898438 276.601562 C 235.351562 277.101562 235.976562 277.351562 236.773438 277.351562 "/>
<path style=" stroke:none;fill-rule:nonzero;fill:rgb(0%,0%,100%);fill-opacity:1;" d="M 295.875 179.699219 L 298.425781 183.75 C 298.574219 184.050781 298.773438 184.425781 299.023438 184.875 C 299.324219 185.375 299.476562 185.648438 299.476562 185.699219 L 299.476562 179.699219 L 300.523438 179.699219 L 300.523438 187.425781 L 299.476562 187.425781 L 296.699219 182.925781 C 296.5 182.574219 296.300781 182.199219 296.101562 181.800781 C 295.851562 181.398438 295.699219 181.125 295.648438 180.976562 L 295.648438 187.425781 L 294.675781 187.425781 L 294.675781 179.699219 L 295.875 179.699219 "/>
<path style=" stroke:none;fill-rule:nonzero;fill:rgb(0%,0%,100%);fill-opacity:1;" d="M 286.5 154.050781 L 288.976562 158.101562 C 289.175781 158.398438 289.398438 158.800781 289.648438 159.300781 C 289.949219 159.75 290.101562 160 290.101562 160.050781 L 290.101562 154.050781 L 291.074219 154.050781 L 291.074219 161.773438 L 290.023438 161.773438 L 287.324219 157.273438 C 287.125 156.925781 286.898438 156.550781 286.648438 156.148438 C 286.449219 155.75 286.324219 155.5 286.273438 155.398438 L 286.273438 161.773438 L 285.226562 161.773438 L 285.226562 154.050781 L 286.5 154.050781 "/>
<path style=" stroke:none;fill-rule:nonzero;fill:rgb(0%,0%,100%);fill-opacity:1;" d="M 307.949219 137.175781 L 310.5 141.300781 C 310.648438 141.550781 310.851562 141.925781 311.101562 142.425781 C 311.398438 142.875 311.550781 143.125 311.550781 143.175781 L 311.550781 137.175781 L 312.601562 137.175781 L 312.601562 144.898438 L 311.550781 144.898438 L 308.773438 140.398438 C 308.574219 140.050781 308.375 139.675781 308.175781 139.273438 C 307.925781 138.875 307.773438 138.625 307.726562 138.523438 L 307.726562 144.898438 L 306.75 144.898438 L 306.75 137.175781 L 307.949219 137.175781 "/>
<path style=" stroke:none;fill-rule:nonzero;fill:rgb(0%,0%,100%);fill-opacity:1;" d="M 323.175781 178.648438 L 325.726562 182.773438 C 325.875 183.023438 326.074219 183.398438 326.324219 183.898438 C 326.625 184.351562 326.773438 184.601562 326.773438 184.648438 L 326.773438 178.648438 L 327.824219 178.648438 L 327.824219 186.375 L 326.699219 186.375 L 324 181.875 C 323.800781 181.523438 323.574219 181.148438 323.324219 180.75 C 323.125 180.351562 323 180.101562 322.949219 180 L 322.949219 186.375 L 321.898438 186.375 L 321.898438 178.648438 L 323.175781 178.648438 "/>
<path style=" stroke:none;fill-rule:nonzero;fill:rgb(80%,80%,0%);fill-opacity:1;" d="M 213.675781 180.675781 C 213.726562 180.675781 213.875 180.726562 214.125 180.824219 C 214.375 180.976562 214.625 181.074219 214.875 181.125 C 215.125 181.175781 215.398438 181.199219 215.699219 181.199219 C 216.148438 181.199219 216.523438 181.074219 216.824219 180.824219 C 217.125 180.625 217.273438 180.300781 217.273438 179.851562 C 217.273438 179.601562 217.199219 179.375 217.050781 179.175781 C 216.898438 179.023438 216.726562 178.898438 216.523438 178.800781 C 216.273438 178.699219 215.976562 178.601562 215.625 178.5 C 215.175781 178.351562 214.800781 178.199219 214.5 178.050781 C 214.25 177.949219 214.023438 177.75 213.824219 177.449219 C 213.625 177.199219 213.523438 176.824219 213.523438 176.324219 C 213.523438 175.675781 213.75 175.148438 214.199219 174.75 C 214.648438 174.351562 215.300781 174.148438 216.148438 174.148438 C 216.75 174.148438 217.398438 174.300781 218.101562 174.601562 L 217.875 175.425781 C 217.226562 175.175781 216.675781 175.050781 216.226562 175.050781 C 215.726562 175.050781 215.324219 175.148438 215.023438 175.351562 C 214.773438 175.550781 214.648438 175.824219 214.648438 176.175781 C 214.648438 176.476562 214.726562 176.699219 214.875 176.851562 C 215.023438 177.050781 215.199219 177.199219 215.398438 177.300781 C 215.601562 177.351562 215.875 177.449219 216.226562 177.601562 C 216.675781 177.75 217.050781 177.875 217.351562 177.976562 C 217.601562 178.125 217.824219 178.351562 218.023438 178.648438 C 218.226562 178.949219 218.324219 179.351562 218.324219 179.851562 C 218.324219 180.601562 218.101562 181.148438 217.648438 181.5 C 217.148438 181.898438 216.5 182.101562 215.699219 182.101562 C 215.25 182.101562 214.851562 182.050781 214.5 181.949219 C 214.148438 181.851562 213.773438 181.726562 213.375 181.574219 L 213.675781 180.675781 "/>
<path style=" stroke:none;fill-rule:nonzero;fill:rgb(80%,80%,0%);fill-opacity:1;" d="M 73.800781 226.800781 C 73.851562 226.851562 74 226.925781 74.25 227.023438 C 74.5 227.125 74.75 227.199219 75 227.25 C 75.25 227.300781 75.523438 227.324219 75.824219 227.324219 C 76.273438 227.324219 76.648438 227.226562 76.949219 227.023438 C 77.25 226.773438 77.398438 226.449219 77.398438 226.050781 C 77.398438 225.75 77.324219 225.5 77.175781 225.300781 C 77.023438 225.148438 76.851562 225.023438 76.648438 224.925781 C 76.398438 224.824219 76.101562 224.726562 75.75 224.625 C 75.300781 224.476562 74.925781 224.351562 74.625 224.25 C 74.375 224.101562 74.148438 223.875 73.949219 223.574219 C 73.75 223.324219 73.648438 222.976562 73.648438 222.523438 C 73.648438 221.875 73.875 221.351562 74.324219 220.949219 C 74.773438 220.550781 75.425781 220.351562 76.273438 220.351562 C 76.875 220.351562 77.523438 220.476562 78.226562 220.726562 L 77.925781 221.550781 C 77.324219 221.300781 76.800781 221.175781 76.351562 221.175781 C 75.851562 221.175781 75.449219 221.300781 75.148438 221.550781 C 74.898438 221.75 74.773438 222.023438 74.773438 222.375 C 74.773438 222.625 74.851562 222.851562 75 223.050781 C 75.101562 223.199219 75.273438 223.324219 75.523438 223.425781 C 75.726562 223.523438 76 223.625 76.351562 223.726562 C 76.800781 223.875 77.175781 224.023438 77.476562 224.175781 C 77.726562 224.324219 77.949219 224.550781 78.148438 224.851562 C 78.351562 225.148438 78.449219 225.550781 78.449219 226.050781 C 78.449219 226.75 78.226562 227.300781 77.773438 227.699219 C 77.273438 228.050781 76.625 228.226562 75.824219 228.226562 C 75.375 228.226562 74.976562 228.175781 74.625 228.074219 C 74.273438 227.976562 73.898438 227.851562 73.5 227.699219 L 73.800781 226.800781 "/>
<path style=" stroke:none;fill-rule:nonzero;fill:rgb(0%,0%,100%);fill-opacity:1;" d="M 17.023438 202.199219 L 18.074219 202.199219 L 18.074219 205.5 L 22.050781 205.5 L 22.050781 202.199219 L 23.101562 202.199219 L 23.101562 209.925781 L 22.050781 209.925781 L 22.050781 206.324219 L 18.074219 206.324219 L 18.074219 209.925781 L 17.023438 209.925781 L 17.023438 202.199219 "/>
<path style=" stroke:none;fill-rule:nonzero;fill:rgb(0%,0%,100%);fill-opacity:1;" d="M 24.074219 209.625 C 24.175781 209.324219 24.375 209.074219 24.675781 208.875 C 24.976562 208.726562 25.324219 208.648438 25.726562 208.648438 C 26.226562 208.648438 26.625 208.773438 26.925781 209.023438 C 27.226562 209.324219 27.375 209.726562 27.375 210.226562 C 27.375 210.726562 27.199219 211.199219 26.851562 211.648438 C 26.449219 212.148438 25.875 212.675781 25.125 213.226562 L 27.449219 213.226562 L 27.449219 213.824219 L 24 213.824219 L 24 213.300781 C 24.648438 212.851562 25.148438 212.449219 25.5 212.101562 C 25.898438 211.800781 26.199219 211.5 26.398438 211.199219 C 26.550781 210.851562 26.625 210.523438 26.625 210.226562 C 26.625 209.925781 26.550781 209.675781 26.398438 209.476562 C 26.25 209.273438 26.023438 209.175781 25.726562 209.175781 C 25.476562 209.175781 25.25 209.25 25.050781 209.398438 C 24.851562 209.5 24.699219 209.675781 24.601562 209.925781 L 24.074219 209.625 "/>
<path style=" stroke:none;fill-rule:nonzero;fill:rgb(0%,0%,100%);fill-opacity:1;" d="M 29.101562 202.199219 L 31.648438 206.25 C 31.800781 206.550781 32.023438 206.949219 32.324219 207.449219 C 32.574219 207.898438 32.699219 208.148438 32.699219 208.199219 L 32.699219 202.199219 L 33.75 202.199219 L 33.75 209.925781 L 32.699219 209.925781 L 30 205.425781 C 29.800781 205.074219 29.574219 204.699219 29.324219 204.300781 C 29.125 203.898438 28.976562 203.648438 28.875 203.550781 L 28.875 209.925781 L 27.898438 209.925781 L 27.898438 202.199219 L 29.101562 202.199219 "/>
<path style=" stroke:none;fill-rule:nonzero;fill:rgb(0%,0%,100%);fill-opacity:1;" d="M 70.273438 176.324219 L 72.824219 180.375 C 73.023438 180.675781 73.25 181.074219 73.5 181.574219 C 73.75 182.023438 73.898438 182.273438 73.949219 182.324219 L 73.949219 176.324219 L 74.925781 176.324219 L 74.925781 184.050781 L 73.875 184.050781 L 71.175781 179.550781 C 70.976562 179.199219 70.75 178.824219 70.5 178.425781 C 70.300781 178.023438 70.175781 177.773438 70.125 177.675781 L 70.125 184.050781 L 69.074219 184.050781 L 69.074219 176.324219 L 70.273438 176.324219 "/>
<path style=" stroke:none;fill-rule:nonzero;fill:rgb(0%,0%,0%);fill-opacity:1;" d="M 179.699219 176.25 L 180.75 176.25 L 180.75 179.550781 L 184.648438 179.550781 L 184.648438 176.25 L 185.699219 176.25 L 185.699219 183.976562 L 184.648438 183.976562 L 184.648438 180.449219 L 180.75 180.449219 L 180.75 183.976562 L 179.699219 183.976562 L 179.699219 176.25 "/>
</g>
</svg>
