<?xml version="1.0" encoding="UTF-8"?>
<svg xmlns="http://www.w3.org/2000/svg" xmlns:xlink="http://www.w3.org/1999/xlink" width="375pt" height="375pt" viewBox="0 0 375 375" version="1.1">
<g id="surface326">
<rect x="0" y="0" width="375" height="375" style="fill:rgb(100%,100%,100%);fill-opacity:1;stroke:none;"/>
<path style="fill:none;stroke-width:2;stroke-linecap:butt;stroke-linejoin:miter;stroke:rgb(0%,0%,0%);stroke-opacity:1;stroke-miterlimit:4;" d="M 95.098958 345.302083 L 109.901042 297.302083 " transform="matrix(0.75,0,0,0.75,0,0)"/>
<path style="fill:none;stroke-width:2;stroke-linecap:butt;stroke-linejoin:miter;stroke:rgb(0%,0%,0%);stroke-opacity:1;stroke-miterlimit:4;" d="M 109.901042 297.302083 L 60.697917 287.598958 " transform="matrix(0.75,0,0,0.75,0,0)"/>
<path style="fill:none;stroke-width:2;stroke-linecap:butt;stroke-linejoin:miter;stroke:rgb(0%,0%,0%);stroke-opacity:1;stroke-miterlimit:4;" d="M 109.901042 297.302083 L 129.901042 305.901042 " transform="matrix(0.75,0,0,0.75,0,0)"/>
<path style="fill:none;stroke-width:2;stroke-linecap:butt;stroke-linejoin:miter;stroke:rgb(80%,80%,0%);stroke-opacity:1;stroke-miterlimit:4;" d="M 129.901042 305.901042 L 149.802083 314.401042 " transform="matrix(0.75,0,0,0.75,0,0)"/>
<path style="fill:none;stroke-width:2;stroke-linecap:butt;stroke-linejoin:miter;stroke:rgb(80%,80%,0%);stroke-opacity:1;stroke-miterlimit:4;" d="M 162.302083 310 L 175.697917 294.697917 " transform="matrix(0.75,0,0,0.75,0,0)"/>
<path style="fill:none;stroke-width:2;stroke-linecap:butt;stroke-linejoin:miter;stroke:rgb(0%,0%,0%);stroke-opacity:1;stroke-miterlimit:4;" d="M 175.697917 294.697917 L 189.098958 279.401042 " transform="matrix(0.75,0,0,0.75,0,0)"/>
<path style="fill:none;stroke-width:2;stroke-linecap:butt;stroke-linejoin:miter;stroke:rgb(0%,0%,0%);stroke-opacity:1;stroke-miterlimit:4;" d="M 189.098958 279.401042 L 232.197917 253.697917 " transform="matrix(0.75,0,0,0.75,0,0)"/>
<path style="fill-rule:evenodd;fill:rgb(0%,0%,0%);fill-opacity:1;stroke-width:1;stroke-linecap:butt;stroke-linejoin:miter;stroke:rgb(0%,0%,0%);stroke-opacity:1;stroke-miterlimit:4;" d="M 232.197917 253.697917 L 252.802083 256.302083 L 251.598958 261.197917 Z M 232.197917 253.697917 " transform="matrix(0.75,0,0,0.75,0,0)"/>
<path style="fill-rule:evenodd;fill:rgb(0%,0%,100%);fill-opacity:1;stroke-width:1;stroke-linecap:butt;stroke-linejoin:miter;stroke:rgb(0%,0%,100%);stroke-opacity:1;stroke-miterlimit:4;" d="M 252.802083 256.302083 L 271 268.697917 L 273.401042 259 Z M 252.802083 256.302083 " transform="matrix(0.75,0,0,0.75,0,0)"/>
<path style="fill-rule:evenodd;fill:rgb(0%,0%,100%);fill-opacity:1;stroke-width:1;stroke-linecap:butt;stroke-linejoin:miter;stroke:rgb(0%,0%,100%);stroke-opacity:1;stroke-miterlimit:4;" d="M 252.802083 256.302083 L 251.598958 261.197917 L 271 268.697917 Z M 252.802083 256.302083 " transform="matrix(0.75,0,0,0.75,0,0)"/>
<path style="fill:none;stroke-width:2;stroke-linecap:butt;stroke-linejoin:miter;stroke:rgb(0%,0%,100%);stroke-opacity:1;stroke-miterlimit:4;" d="M 287.901042 258.802083 L 301.901042 244.401042 " transform="matrix(0.75,0,0,0.75,0,0)"/>
<path style="fill:none;stroke-width:2;stroke-linecap:butt;stroke-linejoin:miter;stroke:rgb(0%,0%,0%);stroke-opacity:1;stroke-miterlimit:4;" d="M 301.901042 244.401042 L 315.901042 230.098958 " transform="matrix(0.75,0,0,0.75,0,0)"/>
<path style="fill:none;stroke-width:2;stroke-linecap:butt;stroke-linejoin:miter;stroke:rgb(0%,0%,100%);stroke-opacity:1;stroke-miterlimit:4;" d="M 284.901042 247.5 L 294.697917 237.401042 " transform="matrix(0.75,0,0,0.75,0,0)"/>
<path style="fill:none;stroke-width:2;stroke-linecap:butt;stroke-linejoin:miter;stroke:rgb(0%,0%,0%);stroke-opacity:1;stroke-miterlimit:4;" d="M 294.697917 237.401042 L 304.5 227.401042 " transform="matrix(0.75,0,0,0.75,0,0)"/>
<path style="fill:none;stroke-width:2;stroke-linecap:butt;stroke-linejoin:miter;stroke:rgb(0%,0%,0%);stroke-opacity:1;stroke-miterlimit:4;" d="M 315.901042 230.098958 L 336.697917 235.302083 " transform="matrix(0.75,0,0,0.75,0,0)"/>
<path style="fill:none;stroke-width:2;stroke-linecap:butt;stroke-linejoin:miter;stroke:rgb(0%,0%,100%);stroke-opacity:1;stroke-miterlimit:4;" d="M 336.697917 235.302083 L 357.5 240.598958 " transform="matrix(0.75,0,0,0.75,0,0)"/>
<path style="fill:none;stroke-width:2;stroke-linecap:butt;stroke-linejoin:miter;stroke:rgb(0%,0%,100%);stroke-opacity:1;stroke-miterlimit:4;" d="M 371.598958 234 L 384.197917 218.901042 " transform="matrix(0.75,0,0,0.75,0,0)"/>
<path style="fill:none;stroke-width:2;stroke-linecap:butt;stroke-linejoin:miter;stroke:rgb(0%,0%,0%);stroke-opacity:1;stroke-miterlimit:4;" d="M 384.197917 218.901042 L 396.802083 203.901042 " transform="matrix(0.75,0,0,0.75,0,0)"/>
<path style="fill:none;stroke-width:2;stroke-linecap:butt;stroke-linejoin:miter;stroke:rgb(0%,0%,0%);stroke-opacity:1;stroke-miterlimit:4;" d="M 396.802083 203.901042 L 446.901042 205.098958 " transform="matrix(0.75,0,0,0.75,0,0)"/>
<path style="fill:none;stroke-width:2;stroke-linecap:butt;stroke-linejoin:miter;stroke:rgb(0%,0%,0%);stroke-opacity:1;stroke-miterlimit:4;" d="M 446.901042 205.098958 L 477.302083 245.098958 " transform="matrix(0.75,0,0,0.75,0,0)"/>
<path style="fill:none;stroke-width:2;stroke-linecap:butt;stroke-linejoin:miter;stroke:rgb(0%,0%,0%);stroke-opacity:1;stroke-miterlimit:4;" d="M 477.302083 245.098958 L 464.901042 293.697917 " transform="matrix(0.75,0,0,0.75,0,0)"/>
<path style="fill:none;stroke-width:2;stroke-linecap:butt;stroke-linejoin:miter;stroke:rgb(0%,0%,0%);stroke-opacity:1;stroke-miterlimit:4;" d="M 464.901042 293.697917 L 419.197917 314.401042 " transform="matrix(0.75,0,0,0.75,0,0)"/>
<path style="fill:none;stroke-width:2;stroke-linecap:butt;stroke-linejoin:miter;stroke:rgb(0%,0%,0%);stroke-opacity:1;stroke-miterlimit:4;" d="M 419.197917 314.401042 L 374.5 291.598958 " transform="matrix(0.75,0,0,0.75,0,0)"/>
<path style="fill:none;stroke-width:2;stroke-linecap:butt;stroke-linejoin:miter;stroke:rgb(0%,0%,0%);stroke-opacity:1;stroke-miterlimit:4;" d="M 232.197917 253.697917 L 206.598958 210.598958 " transform="matrix(0.75,0,0,0.75,0,0)"/>
<path style="fill:none;stroke-width:2;stroke-linecap:butt;stroke-linejoin:miter;stroke:rgb(0%,0%,0%);stroke-opacity:1;stroke-miterlimit:4;" d="M 201.697917 209.302083 L 206.697917 189.5 " transform="matrix(0.75,0,0,0.75,0,0)"/>
<path style="fill:none;stroke-width:2;stroke-linecap:butt;stroke-linejoin:miter;stroke:rgb(100%,0%,0%);stroke-opacity:1;stroke-miterlimit:4;" d="M 206.697917 189.5 L 211.697917 169.802083 " transform="matrix(0.75,0,0,0.75,0,0)"/>
<path style="fill:none;stroke-width:2;stroke-linecap:butt;stroke-linejoin:miter;stroke:rgb(0%,0%,0%);stroke-opacity:1;stroke-miterlimit:4;" d="M 211.401042 211.802083 L 216.5 192 " transform="matrix(0.75,0,0,0.75,0,0)"/>
<path style="fill:none;stroke-width:2;stroke-linecap:butt;stroke-linejoin:miter;stroke:rgb(100%,0%,0%);stroke-opacity:1;stroke-miterlimit:4;" d="M 216.5 192 L 221.5 172.197917 " transform="matrix(0.75,0,0,0.75,0,0)"/>
<path style="fill:none;stroke-width:2;stroke-linecap:butt;stroke-linejoin:miter;stroke:rgb(0%,0%,0%);stroke-opacity:1;stroke-miterlimit:4;" d="M 206.598958 210.598958 L 188.5 221.302083 " transform="matrix(0.75,0,0,0.75,0,0)"/>
<path style="fill:none;stroke-width:2;stroke-linecap:butt;stroke-linejoin:miter;stroke:rgb(0%,0%,100%);stroke-opacity:1;stroke-miterlimit:4;" d="M 188.5 221.302083 L 170.5 232.098958 " transform="matrix(0.75,0,0,0.75,0,0)"/>
<path style="fill:none;stroke-width:2;stroke-linecap:butt;stroke-linejoin:miter;stroke:rgb(0%,0%,100%);stroke-opacity:1;stroke-miterlimit:4;" d="M 156.401042 237.802083 L 135.5 242.598958 " transform="matrix(0.75,0,0,0.75,0,0)"/>
<path style="fill:none;stroke-width:2;stroke-linecap:butt;stroke-linejoin:miter;stroke:rgb(0%,0%,0%);stroke-opacity:1;stroke-miterlimit:4;" d="M 135.5 242.598958 L 114.5 247.302083 " transform="matrix(0.75,0,0,0.75,0,0)"/>
<path style="fill:none;stroke-width:1;stroke-linecap:butt;stroke-linejoin:miter;stroke:rgb(0%,0%,0%);stroke-opacity:1;stroke-miterlimit:4;" d="M 108.802083 241.197917 L 107.697917 242.5 " transform="matrix(0.75,0,0,0.75,0,0)"/>
<path style="fill:none;stroke-width:1;stroke-linecap:butt;stroke-linejoin:miter;stroke:rgb(0%,0%,0%);stroke-opacity:1;stroke-miterlimit:4;" d="M 103 235.098958 L 100.802083 237.598958 " transform="matrix(0.75,0,0,0.75,0,0)"/>
<path style="fill:none;stroke-width:1;stroke-linecap:butt;stroke-linejoin:miter;stroke:rgb(0%,0%,0%);stroke-opacity:1;stroke-miterlimit:4;" d="M 97.302083 228.901042 L 94 232.697917 " transform="matrix(0.75,0,0,0.75,0,0)"/>
<path style="fill:none;stroke-width:1;stroke-linecap:butt;stroke-linejoin:miter;stroke:rgb(0%,0%,0%);stroke-opacity:1;stroke-miterlimit:4;" d="M 91.598958 222.802083 L 87.098958 227.802083 " transform="matrix(0.75,0,0,0.75,0,0)"/>
<path style="fill:none;stroke-width:1;stroke-linecap:butt;stroke-linejoin:miter;stroke:rgb(0%,0%,0%);stroke-opacity:1;stroke-miterlimit:4;" d="M 85.802083 216.598958 L 80.302083 222.901042 " transform="matrix(0.75,0,0,0.75,0,0)"/>
<path style="fill:none;stroke-width:1;stroke-linecap:butt;stroke-linejoin:miter;stroke:rgb(0%,0%,0%);stroke-opacity:1;stroke-miterlimit:4;" d="M 80.098958 210.5 L 73.5 218.098958 " transform="matrix(0.75,0,0,0.75,0,0)"/>
<path style="fill:none;stroke-width:2;stroke-linecap:butt;stroke-linejoin:miter;stroke:rgb(0%,0%,0%);stroke-opacity:1;stroke-miterlimit:4;" d="M 78.401042 219 L 58.697917 225.697917 " transform="matrix(0.75,0,0,0.75,0,0)"/>
<path style="fill:none;stroke-width:2;stroke-linecap:butt;stroke-linejoin:miter;stroke:rgb(100%,0%,0%);stroke-opacity:1;stroke-miterlimit:4;" d="M 58.697917 225.697917 L 39 232.401042 " transform="matrix(0.75,0,0,0.75,0,0)"/>
<path style="fill:none;stroke-width:2;stroke-linecap:butt;stroke-linejoin:miter;stroke:rgb(0%,0%,0%);stroke-opacity:1;stroke-miterlimit:4;" d="M 75.098958 209.5 L 55.5 216.197917 " transform="matrix(0.75,0,0,0.75,0,0)"/>
<path style="fill:none;stroke-width:2;stroke-linecap:butt;stroke-linejoin:miter;stroke:rgb(100%,0%,0%);stroke-opacity:1;stroke-miterlimit:4;" d="M 55.5 216.197917 L 35.802083 222.901042 " transform="matrix(0.75,0,0,0.75,0,0)"/>
<path style="fill:none;stroke-width:2;stroke-linecap:butt;stroke-linejoin:miter;stroke:rgb(0%,0%,0%);stroke-opacity:1;stroke-miterlimit:4;" d="M 76.802083 214.302083 L 80.697917 194.197917 " transform="matrix(0.75,0,0,0.75,0,0)"/>
<path style="fill:none;stroke-width:2;stroke-linecap:butt;stroke-linejoin:miter;stroke:rgb(100%,0%,0%);stroke-opacity:1;stroke-miterlimit:4;" d="M 80.697917 194.197917 L 84.697917 174.098958 " transform="matrix(0.75,0,0,0.75,0,0)"/>
<path style="fill:none;stroke-width:2;stroke-linecap:butt;stroke-linejoin:miter;stroke:rgb(0%,0%,0%);stroke-opacity:1;stroke-miterlimit:4;" d="M 114.5 247.302083 L 109.901042 297.302083 " transform="matrix(0.75,0,0,0.75,0,0)"/>
<path style="fill:none;stroke-width:2;stroke-linecap:butt;stroke-linejoin:miter;stroke:rgb(0%,0%,100%);stroke-opacity:1;stroke-miterlimit:4;" d="M 168.697917 245 L 178.901042 262.197917 " transform="matrix(0.75,0,0,0.75,0,0)"/>
<path style="fill:none;stroke-width:2;stroke-linecap:butt;stroke-linejoin:miter;stroke:rgb(0%,0%,0%);stroke-opacity:1;stroke-miterlimit:4;" d="M 178.901042 262.197917 L 189.098958 279.401042 " transform="matrix(0.75,0,0,0.75,0,0)"/>
<path style="fill:none;stroke-width:2;stroke-linecap:butt;stroke-linejoin:miter;stroke:rgb(0%,0%,0%);stroke-opacity:1;stroke-miterlimit:4;" d="M 374.5 291.598958 L 370.401042 271.401042 " transform="matrix(0.75,0,0,0.75,0,0)"/>
<path style="fill:none;stroke-width:2;stroke-linecap:butt;stroke-linejoin:miter;stroke:rgb(0%,0%,100%);stroke-opacity:1;stroke-miterlimit:4;" d="M 370.401042 271.401042 L 366.302083 251.197917 " transform="matrix(0.75,0,0,0.75,0,0)"/>
<path style="fill:none;stroke-width:1;stroke-linecap:butt;stroke-linejoin:miter;stroke:rgb(0%,0%,0%);stroke-opacity:1;stroke-miterlimit:4;" d="M 192.401042 284.598958 L 193.697917 283.5 " transform="matrix(0.75,0,0,0.75,0,0)"/>
<path style="fill:none;stroke-width:1;stroke-linecap:butt;stroke-linejoin:miter;stroke:rgb(0%,0%,0%);stroke-opacity:1;stroke-miterlimit:4;" d="M 195.697917 289.802083 L 198.197917 287.697917 " transform="matrix(0.75,0,0,0.75,0,0)"/>
<path style="fill:none;stroke-width:1;stroke-linecap:butt;stroke-linejoin:miter;stroke:rgb(0%,0%,0%);stroke-opacity:1;stroke-miterlimit:4;" d="M 198.901042 295 L 202.802083 291.802083 " transform="matrix(0.75,0,0,0.75,0,0)"/>
<path style="fill:none;stroke-width:1;stroke-linecap:butt;stroke-linejoin:miter;stroke:rgb(0%,0%,0%);stroke-opacity:1;stroke-miterlimit:4;" d="M 202.197917 300.302083 L 207.302083 296 " transform="matrix(0.75,0,0,0.75,0,0)"/>
<path style="fill:none;stroke-width:1;stroke-linecap:butt;stroke-linejoin:miter;stroke:rgb(0%,0%,0%);stroke-opacity:1;stroke-miterlimit:4;" d="M 205.401042 305.5 L 211.901042 300.197917 " transform="matrix(0.75,0,0,0.75,0,0)"/>
<path style="fill:none;stroke-width:1;stroke-linecap:butt;stroke-linejoin:miter;stroke:rgb(0%,0%,0%);stroke-opacity:1;stroke-miterlimit:4;" d="M 208.697917 310.697917 L 216.401042 304.302083 " transform="matrix(0.75,0,0,0.75,0,0)"/>
<path style=" stroke:none;fill-rule:nonzero;fill:rgb(80%,80%,0%);fill-opacity:1;" d="M 114 241.5 C 114.101562 241.550781 114.324219 241.625 114.675781 241.726562 C 114.976562 241.875 115.324219 242 115.726562 242.101562 C 116.074219 242.199219 116.425781 242.25 116.773438 242.25 C 117.476562 242.25 118 242.074219 118.351562 241.726562 C 118.75 241.425781 118.949219 240.976562 118.949219 240.375 C 118.949219 239.976562 118.851562 239.648438 118.648438 239.398438 C 118.449219 239.199219 118.199219 239.023438 117.898438 238.875 C 117.601562 238.726562 117.199219 238.574219 116.699219 238.425781 C 116.101562 238.273438 115.601562 238.101562 115.199219 237.898438 C 114.851562 237.699219 114.523438 237.425781 114.226562 237.074219 C 113.976562 236.675781 113.851562 236.148438 113.851562 235.5 C 113.851562 234.601562 114.148438 233.875 114.75 233.324219 C 115.351562 232.773438 116.25 232.5 117.449219 232.5 C 118.300781 232.5 119.199219 232.699219 120.148438 233.101562 L 119.773438 234.300781 C 118.925781 233.949219 118.175781 233.773438 117.523438 233.773438 C 116.824219 233.773438 116.300781 233.898438 115.949219 234.148438 C 115.550781 234.449219 115.351562 234.851562 115.351562 235.351562 C 115.351562 235.699219 115.449219 236 115.648438 236.25 C 115.851562 236.5 116.101562 236.675781 116.398438 236.773438 C 116.648438 236.925781 117.023438 237.074219 117.523438 237.226562 C 118.175781 237.425781 118.675781 237.625 119.023438 237.824219 C 119.425781 238.023438 119.773438 238.324219 120.074219 238.726562 C 120.324219 239.125 120.449219 239.675781 120.449219 240.375 C 120.449219 241.375 120.125 242.125 119.476562 242.625 C 118.824219 243.175781 117.949219 243.449219 116.851562 243.449219 C 116.199219 243.449219 115.648438 243.375 115.199219 243.226562 C 114.699219 243.074219 114.175781 242.898438 113.625 242.699219 L 114 241.5 "/>
<path style=" stroke:none;fill-rule:nonzero;fill:rgb(0%,0%,100%);fill-opacity:1;" d="M 208.351562 194.175781 L 211.800781 199.800781 C 212.050781 200.199219 212.351562 200.726562 212.699219 201.375 C 213.101562 202.074219 213.300781 202.449219 213.300781 202.5 L 213.300781 194.175781 L 214.726562 194.175781 L 214.726562 204.824219 L 213.226562 204.824219 L 209.476562 198.675781 C 209.226562 198.175781 208.925781 197.648438 208.574219 197.101562 C 208.273438 196.550781 208.101562 196.199219 208.050781 196.050781 L 208.050781 204.824219 L 206.625 204.824219 L 206.625 194.175781 L 208.351562 194.175781 "/>
<path style=" stroke:none;fill-rule:nonzero;fill:rgb(0%,0%,100%);fill-opacity:1;" d="M 271.050781 176.476562 L 274.574219 182.101562 C 274.773438 182.5 275.074219 183.023438 275.476562 183.675781 C 275.824219 184.324219 276 184.675781 276 184.726562 L 276 176.476562 L 277.425781 176.476562 L 277.425781 187.125 L 276 187.125 L 272.25 180.976562 C 271.949219 180.476562 271.648438 179.949219 271.351562 179.398438 C 271.050781 178.851562 270.851562 178.5 270.75 178.351562 L 270.75 187.125 L 269.398438 187.125 L 269.398438 176.476562 L 271.050781 176.476562 "/>
<path style=" stroke:none;fill-rule:nonzero;fill:rgb(100%,0%,0%);fill-opacity:1;" d="M 159.300781 121.5 C 159.300781 119.800781 159.726562 118.449219 160.574219 117.449219 C 161.375 116.5 162.574219 116.023438 164.175781 116.023438 C 165.773438 116.023438 166.976562 116.5 167.773438 117.449219 C 168.625 118.449219 169.050781 119.800781 169.050781 121.5 C 169.050781 123.199219 168.625 124.550781 167.773438 125.550781 C 166.925781 126.5 165.726562 126.976562 164.175781 126.976562 C 162.625 126.976562 161.425781 126.5 160.574219 125.550781 C 159.726562 124.550781 159.300781 123.199219 159.300781 121.5 M 164.175781 125.773438 C 165.273438 125.773438 166.101562 125.425781 166.648438 124.726562 C 167.25 123.976562 167.550781 122.898438 167.550781 121.5 C 167.550781 120.101562 167.25 119.050781 166.648438 118.351562 C 166.101562 117.601562 165.273438 117.226562 164.175781 117.226562 C 163.074219 117.226562 162.226562 117.601562 161.625 118.351562 C 161.074219 119.050781 160.800781 120.101562 160.800781 121.5 C 160.800781 122.898438 161.074219 123.976562 161.625 124.726562 C 162.226562 125.425781 163.074219 125.773438 164.175781 125.773438 "/>
<path style=" stroke:none;fill-rule:nonzero;fill:rgb(0%,0%,100%);fill-opacity:1;" d="M 120.226562 171.824219 L 123.75 177.523438 C 123.949219 177.875 124.25 178.398438 124.648438 179.101562 C 125 179.75 125.199219 180.101562 125.25 180.148438 L 125.25 171.824219 L 126.601562 171.824219 L 126.601562 182.550781 L 125.175781 182.550781 L 121.425781 176.324219 C 121.125 175.875 120.824219 175.375 120.523438 174.824219 C 120.226562 174.273438 120.023438 173.898438 119.925781 173.699219 L 119.925781 182.550781 L 118.574219 182.550781 L 118.574219 171.824219 L 120.226562 171.824219 "/>
<path style=" stroke:none;fill-rule:nonzero;fill:rgb(100%,0%,0%);fill-opacity:1;" d="M 17.023438 172.875 C 17.023438 171.175781 17.449219 169.851562 18.300781 168.898438 C 19.148438 167.898438 20.375 167.398438 21.976562 167.398438 C 23.523438 167.398438 24.726562 167.898438 25.574219 168.898438 C 26.425781 169.851562 26.851562 171.175781 26.851562 172.875 C 26.851562 174.574219 26.425781 175.925781 25.574219 176.925781 C 24.726562 177.875 23.523438 178.351562 21.976562 178.351562 C 20.375 178.351562 19.148438 177.875 18.300781 176.925781 C 17.449219 175.925781 17.023438 174.574219 17.023438 172.875 M 21.976562 177.148438 C 23.023438 177.148438 23.851562 176.800781 24.449219 176.101562 C 25.050781 175.351562 25.351562 174.273438 25.351562 172.875 C 25.351562 171.476562 25.050781 170.425781 24.449219 169.726562 C 23.851562 168.976562 23.023438 168.601562 21.976562 168.601562 C 20.875 168.601562 20.023438 168.976562 19.425781 169.726562 C 18.824219 170.425781 18.523438 171.476562 18.523438 172.875 C 18.523438 174.273438 18.824219 175.351562 19.425781 176.101562 C 20.023438 176.800781 20.875 177.148438 21.976562 177.148438 "/>
<path style=" stroke:none;fill-rule:nonzero;fill:rgb(100%,0%,0%);fill-opacity:1;" d="M 60 123.824219 C 60 122.125 60.425781 120.800781 61.273438 119.851562 C 62.125 118.898438 63.324219 118.425781 64.875 118.425781 C 66.476562 118.425781 67.699219 118.898438 68.550781 119.851562 C 69.398438 120.800781 69.824219 122.125 69.824219 123.824219 C 69.824219 125.523438 69.398438 126.875 68.550781 127.875 C 67.648438 128.875 66.425781 129.375 64.875 129.375 C 63.324219 129.375 62.125 128.875 61.273438 127.875 C 60.425781 126.925781 60 125.574219 60 123.824219 M 64.875 128.175781 C 65.976562 128.175781 66.824219 127.800781 67.425781 127.050781 C 67.976562 126.300781 68.25 125.226562 68.25 123.824219 C 68.25 122.425781 67.976562 121.375 67.425781 120.675781 C 66.824219 119.976562 65.976562 119.625 64.875 119.625 C 63.824219 119.625 63 119.976562 62.398438 120.675781 C 61.800781 121.375 61.5 122.425781 61.5 123.824219 C 61.5 125.273438 61.800781 126.351562 62.398438 127.050781 C 63 127.800781 63.824219 128.175781 64.875 128.175781 "/>
<path style=" stroke:none;fill-rule:nonzero;fill:rgb(100%,0%,0%);fill-opacity:1;" d="M 70.574219 118.5 L 72 118.5 L 72 123.074219 L 77.476562 123.074219 L 77.476562 118.5 L 78.898438 118.5 L 78.898438 129.148438 L 77.476562 129.148438 L 77.476562 124.273438 L 72 124.273438 L 72 129.148438 L 70.574219 129.148438 L 70.574219 118.5 "/>
<path style=" stroke:none;fill-rule:nonzero;fill:rgb(0%,0%,0%);fill-opacity:1;" d="M 161.773438 233.101562 L 163.199219 233.101562 L 163.199219 237.675781 L 168.675781 237.675781 L 168.675781 233.101562 L 170.101562 233.101562 L 170.101562 243.75 L 168.675781 243.75 L 168.675781 238.875 L 163.199219 238.875 L 163.199219 243.75 L 161.773438 243.75 L 161.773438 233.101562 "/>
</g>
</svg>
