<?xml version="1.0" encoding="UTF-8"?>
<svg xmlns="http://www.w3.org/2000/svg" xmlns:xlink="http://www.w3.org/1999/xlink" width="375pt" height="375pt" viewBox="0 0 375 375" version="1.1">
<g id="surface11">
<rect x="0" y="0" width="375" height="375" style="fill:rgb(100%,100%,100%);fill-opacity:1;stroke:none;"/>
<path style="fill:none;stroke-width:2;stroke-linecap:butt;stroke-linejoin:miter;stroke:rgb(0%,0%,0%);stroke-opacity:1;stroke-miterlimit:4;" d="M 140.598958 454.401042 L 126.901042 410.5 " transform="matrix(0.75,0,0,0.75,0,0)"/>
<path style="fill:none;stroke-width:2;stroke-linecap:butt;stroke-linejoin:miter;stroke:rgb(0%,0%,0%);stroke-opacity:1;stroke-miterlimit:4;" d="M 126.901042 410.5 L 84.697917 428.697917 " transform="matrix(0.75,0,0,0.75,0,0)"/>
<path style="fill:none;stroke-width:2;stroke-linecap:butt;stroke-linejoin:miter;stroke:rgb(0%,0%,0%);stroke-opacity:1;stroke-miterlimit:4;" d="M 126.901042 410.5 L 146.697917 406.598958 " transform="matrix(0.75,0,0,0.75,0,0)"/>
<path style="fill:none;stroke-width:2;stroke-linecap:butt;stroke-linejoin:miter;stroke:rgb(80%,80%,0%);stroke-opacity:1;stroke-miterlimit:4;" d="M 146.697917 406.598958 L 166.401042 402.598958 " transform="matrix(0.75,0,0,0.75,0,0)"/>
<path style="fill:none;stroke-width:2;stroke-linecap:butt;stroke-linejoin:miter;stroke:rgb(80%,80%,0%);stroke-opacity:1;stroke-miterlimit:4;" d="M 173 393.5 L 175.197917 374.598958 " transform="matrix(0.75,0,0,0.75,0,0)"/>
<path style="fill:none;stroke-width:2;stroke-linecap:butt;stroke-linejoin:miter;stroke:rgb(0%,0%,0%);stroke-opacity:1;stroke-miterlimit:4;" d="M 175.197917 374.598958 L 177.5 355.697917 " transform="matrix(0.75,0,0,0.75,0,0)"/>
<path style="fill:none;stroke-width:2;stroke-linecap:butt;stroke-linejoin:miter;stroke:rgb(0%,0%,0%);stroke-opacity:1;stroke-miterlimit:4;" d="M 177.5 355.697917 L 196.697917 313.901042 " transform="matrix(0.75,0,0,0.75,0,0)"/>
<path style="fill-rule:evenodd;fill:rgb(0%,0%,0%);fill-opacity:1;stroke-width:1;stroke-linecap:butt;stroke-linejoin:miter;stroke:rgb(0%,0%,0%);stroke-opacity:1;stroke-miterlimit:4;" d="M 196.697917 313.901042 L 213.5 305.302083 L 215.098958 309.598958 Z M 196.697917 313.901042 " transform="matrix(0.75,0,0,0.75,0,0)"/>
<path style="fill-rule:evenodd;fill:rgb(0%,0%,100%);fill-opacity:1;stroke-width:1;stroke-linecap:butt;stroke-linejoin:miter;stroke:rgb(0%,0%,100%);stroke-opacity:1;stroke-miterlimit:4;" d="M 213.5 305.302083 L 233.5 305.197917 L 230.302083 296.598958 Z M 213.5 305.302083 " transform="matrix(0.75,0,0,0.75,0,0)"/>
<path style="fill-rule:evenodd;fill:rgb(0%,0%,100%);fill-opacity:1;stroke-width:1;stroke-linecap:butt;stroke-linejoin:miter;stroke:rgb(0%,0%,100%);stroke-opacity:1;stroke-miterlimit:4;" d="M 213.5 305.302083 L 215.098958 309.598958 L 233.5 305.197917 Z M 213.5 305.302083 " transform="matrix(0.75,0,0,0.75,0,0)"/>
<path style="fill:none;stroke-width:2;stroke-linecap:butt;stroke-linejoin:miter;stroke:rgb(0%,0%,100%);stroke-opacity:1;stroke-miterlimit:4;" d="M 246.302083 303.302083 L 260.802083 315.302083 " transform="matrix(0.75,0,0,0.75,0,0)"/>
<path style="fill:none;stroke-width:2;stroke-linecap:butt;stroke-linejoin:miter;stroke:rgb(0%,0%,0%);stroke-opacity:1;stroke-miterlimit:4;" d="M 260.802083 315.302083 L 275.302083 327.401042 " transform="matrix(0.75,0,0,0.75,0,0)"/>
<path style="fill:none;stroke-width:2;stroke-linecap:butt;stroke-linejoin:miter;stroke:rgb(0%,0%,0%);stroke-opacity:1;stroke-miterlimit:4;" d="M 279.802083 328.098958 L 276.697917 346.802083 " transform="matrix(0.75,0,0,0.75,0,0)"/>
<path style="fill:none;stroke-width:2;stroke-linecap:butt;stroke-linejoin:miter;stroke:rgb(100%,0%,0%);stroke-opacity:1;stroke-miterlimit:4;" d="M 276.697917 346.802083 L 273.5 365.401042 " transform="matrix(0.75,0,0,0.75,0,0)"/>
<path style="fill:none;stroke-width:2;stroke-linecap:butt;stroke-linejoin:miter;stroke:rgb(0%,0%,0%);stroke-opacity:1;stroke-miterlimit:4;" d="M 270.802083 326.598958 L 267.598958 345.197917 " transform="matrix(0.75,0,0,0.75,0,0)"/>
<path style="fill:none;stroke-width:2;stroke-linecap:butt;stroke-linejoin:miter;stroke:rgb(100%,0%,0%);stroke-opacity:1;stroke-miterlimit:4;" d="M 267.598958 345.197917 L 264.401042 363.901042 " transform="matrix(0.75,0,0,0.75,0,0)"/>
<path style="fill:none;stroke-width:2;stroke-linecap:butt;stroke-linejoin:miter;stroke:rgb(0%,0%,0%);stroke-opacity:1;stroke-miterlimit:4;" d="M 275.302083 327.401042 L 318.5 311.401042 " transform="matrix(0.75,0,0,0.75,0,0)"/>
<path style="fill:none;stroke-width:1;stroke-linecap:butt;stroke-linejoin:miter;stroke:rgb(0%,0%,0%);stroke-opacity:1;stroke-miterlimit:4;" d="M 320.302083 305.5 L 318.697917 305.302083 " transform="matrix(0.75,0,0,0.75,0,0)"/>
<path style="fill:none;stroke-width:1;stroke-linecap:butt;stroke-linejoin:miter;stroke:rgb(0%,0%,0%);stroke-opacity:1;stroke-miterlimit:4;" d="M 322 299.697917 L 319 299.197917 " transform="matrix(0.75,0,0,0.75,0,0)"/>
<path style="fill:none;stroke-width:1;stroke-linecap:butt;stroke-linejoin:miter;stroke:rgb(0%,0%,0%);stroke-opacity:1;stroke-miterlimit:4;" d="M 323.802083 293.901042 L 319.302083 293.098958 " transform="matrix(0.75,0,0,0.75,0,0)"/>
<path style="fill:none;stroke-width:1;stroke-linecap:butt;stroke-linejoin:miter;stroke:rgb(0%,0%,100%);stroke-opacity:1;stroke-miterlimit:4;" d="M 325.598958 288 L 319.5 287 " transform="matrix(0.75,0,0,0.75,0,0)"/>
<path style="fill:none;stroke-width:1;stroke-linecap:butt;stroke-linejoin:miter;stroke:rgb(0%,0%,100%);stroke-opacity:1;stroke-miterlimit:4;" d="M 327.401042 282.197917 L 319.802083 280.901042 " transform="matrix(0.75,0,0,0.75,0,0)"/>
<path style="fill:none;stroke-width:1;stroke-linecap:butt;stroke-linejoin:miter;stroke:rgb(0%,0%,100%);stroke-opacity:1;stroke-miterlimit:4;" d="M 329.098958 276.302083 L 320.098958 274.802083 " transform="matrix(0.75,0,0,0.75,0,0)"/>
<path style="fill:none;stroke-width:2;stroke-linecap:butt;stroke-linejoin:miter;stroke:rgb(0%,0%,0%);stroke-opacity:1;stroke-miterlimit:4;" d="M 318.5 311.401042 L 353.901042 340.802083 " transform="matrix(0.75,0,0,0.75,0,0)"/>
<path style="fill:none;stroke-width:2;stroke-linecap:butt;stroke-linejoin:miter;stroke:rgb(0%,0%,0%);stroke-opacity:1;stroke-miterlimit:4;" d="M 353.901042 340.802083 L 346.098958 386.197917 " transform="matrix(0.75,0,0,0.75,0,0)"/>
<path style="fill:none;stroke-width:2;stroke-linecap:butt;stroke-linejoin:miter;stroke:rgb(0%,0%,0%);stroke-opacity:1;stroke-miterlimit:4;" d="M 361.802083 349.197917 L 356.401042 380.901042 " transform="matrix(0.75,0,0,0.75,0,0)"/>
<path style="fill:none;stroke-width:2;stroke-linecap:butt;stroke-linejoin:miter;stroke:rgb(0%,0%,0%);stroke-opacity:1;stroke-miterlimit:4;" d="M 346.098958 386.197917 L 381.598958 415.598958 " transform="matrix(0.75,0,0,0.75,0,0)"/>
<path style="fill:none;stroke-width:2;stroke-linecap:butt;stroke-linejoin:miter;stroke:rgb(0%,0%,0%);stroke-opacity:1;stroke-miterlimit:4;" d="M 381.598958 415.598958 L 424.697917 399.598958 " transform="matrix(0.75,0,0,0.75,0,0)"/>
<path style="fill:none;stroke-width:2;stroke-linecap:butt;stroke-linejoin:miter;stroke:rgb(0%,0%,0%);stroke-opacity:1;stroke-miterlimit:4;" d="M 384.802083 404.598958 L 415.098958 393.401042 " transform="matrix(0.75,0,0,0.75,0,0)"/>
<path style="fill:none;stroke-width:2;stroke-linecap:butt;stroke-linejoin:miter;stroke:rgb(0%,0%,0%);stroke-opacity:1;stroke-miterlimit:4;" d="M 424.697917 399.598958 L 438.697917 411.197917 " transform="matrix(0.75,0,0,0.75,0,0)"/>
<path style="fill:none;stroke-width:2;stroke-linecap:butt;stroke-linejoin:miter;stroke:rgb(100%,0%,0%);stroke-opacity:1;stroke-miterlimit:4;" d="M 438.697917 411.197917 L 452.697917 422.802083 " transform="matrix(0.75,0,0,0.75,0,0)"/>
<path style="fill:none;stroke-width:2;stroke-linecap:butt;stroke-linejoin:miter;stroke:rgb(0%,0%,0%);stroke-opacity:1;stroke-miterlimit:4;" d="M 424.697917 399.598958 L 432.5 354.197917 " transform="matrix(0.75,0,0,0.75,0,0)"/>
<path style="fill:none;stroke-width:2;stroke-linecap:butt;stroke-linejoin:miter;stroke:rgb(0%,0%,0%);stroke-opacity:1;stroke-miterlimit:4;" d="M 432.5 354.197917 L 397.098958 324.802083 " transform="matrix(0.75,0,0,0.75,0,0)"/>
<path style="fill:none;stroke-width:2;stroke-linecap:butt;stroke-linejoin:miter;stroke:rgb(0%,0%,0%);stroke-opacity:1;stroke-miterlimit:4;" d="M 421.302083 356.901042 L 396.5 336.302083 " transform="matrix(0.75,0,0,0.75,0,0)"/>
<path style="fill:none;stroke-width:2;stroke-linecap:butt;stroke-linejoin:miter;stroke:rgb(0%,0%,0%);stroke-opacity:1;stroke-miterlimit:4;" d="M 196.697917 313.901042 L 154.901042 294.697917 " transform="matrix(0.75,0,0,0.75,0,0)"/>
<path style="fill:none;stroke-width:2;stroke-linecap:butt;stroke-linejoin:miter;stroke:rgb(0%,0%,0%);stroke-opacity:1;stroke-miterlimit:4;" d="M 150.598958 296.302083 L 144.098958 278.802083 " transform="matrix(0.75,0,0,0.75,0,0)"/>
<path style="fill:none;stroke-width:2;stroke-linecap:butt;stroke-linejoin:miter;stroke:rgb(100%,0%,0%);stroke-opacity:1;stroke-miterlimit:4;" d="M 144.098958 278.802083 L 137.697917 261.401042 " transform="matrix(0.75,0,0,0.75,0,0)"/>
<path style="fill:none;stroke-width:2;stroke-linecap:butt;stroke-linejoin:miter;stroke:rgb(0%,0%,0%);stroke-opacity:1;stroke-miterlimit:4;" d="M 159.197917 293.098958 L 152.697917 275.697917 " transform="matrix(0.75,0,0,0.75,0,0)"/>
<path style="fill:none;stroke-width:2;stroke-linecap:butt;stroke-linejoin:miter;stroke:rgb(100%,0%,0%);stroke-opacity:1;stroke-miterlimit:4;" d="M 152.697917 275.697917 L 146.302083 258.197917 " transform="matrix(0.75,0,0,0.75,0,0)"/>
<path style="fill:none;stroke-width:2;stroke-linecap:butt;stroke-linejoin:miter;stroke:rgb(0%,0%,0%);stroke-opacity:1;stroke-miterlimit:4;" d="M 154.901042 294.697917 L 147.098958 311.598958 " transform="matrix(0.75,0,0,0.75,0,0)"/>
<path style="fill:none;stroke-width:2;stroke-linecap:butt;stroke-linejoin:miter;stroke:rgb(0%,0%,100%);stroke-opacity:1;stroke-miterlimit:4;" d="M 147.098958 311.598958 L 139.302083 328.5 " transform="matrix(0.75,0,0,0.75,0,0)"/>
<path style="fill:none;stroke-width:2;stroke-linecap:butt;stroke-linejoin:miter;stroke:rgb(0%,0%,100%);stroke-opacity:1;stroke-miterlimit:4;" d="M 129.197917 343.5 L 116.802083 356.901042 " transform="matrix(0.75,0,0,0.75,0,0)"/>
<path style="fill:none;stroke-width:2;stroke-linecap:butt;stroke-linejoin:miter;stroke:rgb(0%,0%,0%);stroke-opacity:1;stroke-miterlimit:4;" d="M 116.802083 356.901042 L 104.401042 370.302083 " transform="matrix(0.75,0,0,0.75,0,0)"/>
<path style="fill:none;stroke-width:1;stroke-linecap:butt;stroke-linejoin:miter;stroke:rgb(0%,0%,0%);stroke-opacity:1;stroke-miterlimit:4;" d="M 96.901042 368.697917 L 96.697917 370.197917 " transform="matrix(0.75,0,0,0.75,0,0)"/>
<path style="fill:none;stroke-width:1;stroke-linecap:butt;stroke-linejoin:miter;stroke:rgb(0%,0%,0%);stroke-opacity:1;stroke-miterlimit:4;" d="M 89.401042 367 L 89 370.098958 " transform="matrix(0.75,0,0,0.75,0,0)"/>
<path style="fill:none;stroke-width:1;stroke-linecap:butt;stroke-linejoin:miter;stroke:rgb(0%,0%,0%);stroke-opacity:1;stroke-miterlimit:4;" d="M 81.802083 365.401042 L 81.302083 369.901042 " transform="matrix(0.75,0,0,0.75,0,0)"/>
<path style="fill:none;stroke-width:1;stroke-linecap:butt;stroke-linejoin:miter;stroke:rgb(0%,0%,0%);stroke-opacity:1;stroke-miterlimit:4;" d="M 74.302083 363.697917 L 73.598958 369.802083 " transform="matrix(0.75,0,0,0.75,0,0)"/>
<path style="fill:none;stroke-width:1;stroke-linecap:butt;stroke-linejoin:miter;stroke:rgb(0%,0%,0%);stroke-opacity:1;stroke-miterlimit:4;" d="M 66.802083 362.098958 L 65.901042 369.697917 " transform="matrix(0.75,0,0,0.75,0,0)"/>
<path style="fill:none;stroke-width:1;stroke-linecap:butt;stroke-linejoin:miter;stroke:rgb(0%,0%,0%);stroke-opacity:1;stroke-miterlimit:4;" d="M 59.197917 360.401042 L 58.197917 369.5 " transform="matrix(0.75,0,0,0.75,0,0)"/>
<path style="fill:none;stroke-width:2;stroke-linecap:butt;stroke-linejoin:miter;stroke:rgb(0%,0%,0%);stroke-opacity:1;stroke-miterlimit:4;" d="M 62.401042 367.697917 L 51.598958 382.098958 " transform="matrix(0.75,0,0,0.75,0,0)"/>
<path style="fill:none;stroke-width:2;stroke-linecap:butt;stroke-linejoin:miter;stroke:rgb(100%,0%,0%);stroke-opacity:1;stroke-miterlimit:4;" d="M 51.598958 382.098958 L 40.901042 396.5 " transform="matrix(0.75,0,0,0.75,0,0)"/>
<path style="fill:none;stroke-width:2;stroke-linecap:butt;stroke-linejoin:miter;stroke:rgb(0%,0%,0%);stroke-opacity:1;stroke-miterlimit:4;" d="M 55 362.197917 L 44.302083 376.598958 " transform="matrix(0.75,0,0,0.75,0,0)"/>
<path style="fill:none;stroke-width:2;stroke-linecap:butt;stroke-linejoin:miter;stroke:rgb(100%,0%,0%);stroke-opacity:1;stroke-miterlimit:4;" d="M 44.302083 376.598958 L 33.5 391 " transform="matrix(0.75,0,0,0.75,0,0)"/>
<path style="fill:none;stroke-width:2;stroke-linecap:butt;stroke-linejoin:miter;stroke:rgb(0%,0%,0%);stroke-opacity:1;stroke-miterlimit:4;" d="M 58.697917 365 L 51.401042 348 " transform="matrix(0.75,0,0,0.75,0,0)"/>
<path style="fill:none;stroke-width:2;stroke-linecap:butt;stroke-linejoin:miter;stroke:rgb(100%,0%,0%);stroke-opacity:1;stroke-miterlimit:4;" d="M 51.401042 348 L 44.098958 331 " transform="matrix(0.75,0,0,0.75,0,0)"/>
<path style="fill:none;stroke-width:2;stroke-linecap:butt;stroke-linejoin:miter;stroke:rgb(100%,0%,0%);stroke-opacity:1;stroke-miterlimit:4;" d="M 160.901042 90.5 L 180.098958 89.5 " transform="matrix(0.75,0,0,0.75,0,0)"/>
<path style="fill:none;stroke-width:2;stroke-linecap:butt;stroke-linejoin:miter;stroke:rgb(0%,0%,0%);stroke-opacity:1;stroke-miterlimit:4;" d="M 180.098958 89.5 L 199.401042 88.5 " transform="matrix(0.75,0,0,0.75,0,0)"/>
<path style="fill:none;stroke-width:2;stroke-linecap:butt;stroke-linejoin:miter;stroke:rgb(100%,0%,0%);stroke-opacity:1;stroke-miterlimit:4;" d="M 161.401042 99.697917 L 180.598958 98.697917 " transform="matrix(0.75,0,0,0.75,0,0)"/>
<path style="fill:none;stroke-width:2;stroke-linecap:butt;stroke-linejoin:miter;stroke:rgb(0%,0%,0%);stroke-opacity:1;stroke-miterlimit:4;" d="M 180.598958 98.697917 L 199.802083 97.697917 " transform="matrix(0.75,0,0,0.75,0,0)"/>
<path style="fill:none;stroke-width:2;stroke-linecap:butt;stroke-linejoin:miter;stroke:rgb(0%,0%,0%);stroke-opacity:1;stroke-miterlimit:4;" d="M 199.598958 93.098958 L 208 76.802083 " transform="matrix(0.75,0,0,0.75,0,0)"/>
<path style="fill:none;stroke-width:2;stroke-linecap:butt;stroke-linejoin:miter;stroke:rgb(100%,0%,0%);stroke-opacity:1;stroke-miterlimit:4;" d="M 208 76.802083 L 216.302083 60.5 " transform="matrix(0.75,0,0,0.75,0,0)"/>
<path style="fill:none;stroke-width:1;stroke-linecap:butt;stroke-linejoin:miter;stroke:rgb(0%,0%,0%);stroke-opacity:1;stroke-miterlimit:4;" d="M 221.098958 124.901042 L 219.802083 125.802083 " transform="matrix(0.75,0,0,0.75,0,0)"/>
<path style="fill:none;stroke-width:1;stroke-linecap:butt;stroke-linejoin:miter;stroke:rgb(0%,0%,0%);stroke-opacity:1;stroke-miterlimit:4;" d="M 217.598958 118.098958 L 215 119.697917 " transform="matrix(0.75,0,0,0.75,0,0)"/>
<path style="fill:none;stroke-width:1;stroke-linecap:butt;stroke-linejoin:miter;stroke:rgb(0%,0%,0%);stroke-opacity:1;stroke-miterlimit:4;" d="M 214.098958 111.197917 L 210.197917 113.697917 " transform="matrix(0.75,0,0,0.75,0,0)"/>
<path style="fill:none;stroke-width:1;stroke-linecap:butt;stroke-linejoin:miter;stroke:rgb(0%,0%,0%);stroke-opacity:1;stroke-miterlimit:4;" d="M 210.5 104.401042 L 205.401042 107.697917 " transform="matrix(0.75,0,0,0.75,0,0)"/>
<path style="fill:none;stroke-width:1;stroke-linecap:butt;stroke-linejoin:miter;stroke:rgb(0%,0%,0%);stroke-opacity:1;stroke-miterlimit:4;" d="M 207 97.5 L 200.598958 101.697917 " transform="matrix(0.75,0,0,0.75,0,0)"/>
<path style="fill:none;stroke-width:1;stroke-linecap:butt;stroke-linejoin:miter;stroke:rgb(0%,0%,0%);stroke-opacity:1;stroke-miterlimit:4;" d="M 203.5 90.598958 L 195.802083 95.598958 " transform="matrix(0.75,0,0,0.75,0,0)"/>
<path style="fill:none;stroke-width:2;stroke-linecap:butt;stroke-linejoin:miter;stroke:rgb(0%,0%,0%);stroke-opacity:1;stroke-miterlimit:4;" d="M 224.598958 131.802083 L 208.098958 174.697917 " transform="matrix(0.75,0,0,0.75,0,0)"/>
<path style="fill:none;stroke-width:2;stroke-linecap:butt;stroke-linejoin:miter;stroke:rgb(0%,0%,0%);stroke-opacity:1;stroke-miterlimit:4;" d="M 208.098958 174.697917 L 163.598958 186.598958 " transform="matrix(0.75,0,0,0.75,0,0)"/>
<path style="fill:none;stroke-width:2;stroke-linecap:butt;stroke-linejoin:miter;stroke:rgb(0%,0%,0%);stroke-opacity:1;stroke-miterlimit:4;" d="M 199 167.598958 L 167.901042 175.901042 " transform="matrix(0.75,0,0,0.75,0,0)"/>
<path style="fill:none;stroke-width:2;stroke-linecap:butt;stroke-linejoin:miter;stroke:rgb(0%,0%,0%);stroke-opacity:1;stroke-miterlimit:4;" d="M 163.598958 186.598958 L 131.098958 154 " transform="matrix(0.75,0,0,0.75,0,0)"/>
<path style="fill:none;stroke-width:2;stroke-linecap:butt;stroke-linejoin:miter;stroke:rgb(0%,0%,0%);stroke-opacity:1;stroke-miterlimit:4;" d="M 131.098958 154 L 112.598958 158.901042 " transform="matrix(0.75,0,0,0.75,0,0)"/>
<path style="fill:none;stroke-width:2;stroke-linecap:butt;stroke-linejoin:miter;stroke:rgb(100%,0%,0%);stroke-opacity:1;stroke-miterlimit:4;" d="M 112.598958 158.901042 L 94.098958 163.901042 " transform="matrix(0.75,0,0,0.75,0,0)"/>
<path style="fill:none;stroke-width:2;stroke-linecap:butt;stroke-linejoin:miter;stroke:rgb(0%,0%,0%);stroke-opacity:1;stroke-miterlimit:4;" d="M 208.098958 174.697917 L 222.197917 186.197917 " transform="matrix(0.75,0,0,0.75,0,0)"/>
<path style="fill:none;stroke-width:2;stroke-linecap:butt;stroke-linejoin:miter;stroke:rgb(100%,0%,0%);stroke-opacity:1;stroke-miterlimit:4;" d="M 222.197917 186.197917 L 236.302083 197.697917 " transform="matrix(0.75,0,0,0.75,0,0)"/>
<path style="fill:none;stroke-width:2;stroke-linecap:butt;stroke-linejoin:miter;stroke:rgb(100%,0%,0%);stroke-opacity:1;stroke-miterlimit:4;" d="M 251.302083 198.901042 L 266.901042 188.802083 " transform="matrix(0.75,0,0,0.75,0,0)"/>
<path style="fill:none;stroke-width:2;stroke-linecap:butt;stroke-linejoin:miter;stroke:rgb(0%,0%,0%);stroke-opacity:1;stroke-miterlimit:4;" d="M 266.901042 188.802083 L 282.5 178.697917 " transform="matrix(0.75,0,0,0.75,0,0)"/>
<path style="fill:none;stroke-width:2;stroke-linecap:butt;stroke-linejoin:miter;stroke:rgb(0%,0%,0%);stroke-opacity:1;stroke-miterlimit:4;" d="M 282.5 178.697917 L 327 166.901042 " transform="matrix(0.75,0,0,0.75,0,0)"/>
<path style="fill:none;stroke-width:2;stroke-linecap:butt;stroke-linejoin:miter;stroke:rgb(0%,0%,0%);stroke-opacity:1;stroke-miterlimit:4;" d="M 327 166.901042 L 315.098958 122.401042 " transform="matrix(0.75,0,0,0.75,0,0)"/>
<path style="fill:none;stroke-width:2;stroke-linecap:butt;stroke-linejoin:miter;stroke:rgb(0%,0%,0%);stroke-opacity:1;stroke-miterlimit:4;" d="M 311.098958 120.098958 L 320.197917 104.302083 " transform="matrix(0.75,0,0,0.75,0,0)"/>
<path style="fill:none;stroke-width:2;stroke-linecap:butt;stroke-linejoin:miter;stroke:rgb(100%,0%,0%);stroke-opacity:1;stroke-miterlimit:4;" d="M 320.197917 104.302083 L 329.401042 88.598958 " transform="matrix(0.75,0,0,0.75,0,0)"/>
<path style="fill:none;stroke-width:2;stroke-linecap:butt;stroke-linejoin:miter;stroke:rgb(0%,0%,0%);stroke-opacity:1;stroke-miterlimit:4;" d="M 319.098958 124.697917 L 328.197917 108.901042 " transform="matrix(0.75,0,0,0.75,0,0)"/>
<path style="fill:none;stroke-width:2;stroke-linecap:butt;stroke-linejoin:miter;stroke:rgb(100%,0%,0%);stroke-opacity:1;stroke-miterlimit:4;" d="M 328.197917 108.901042 L 337.302083 93.197917 " transform="matrix(0.75,0,0,0.75,0,0)"/>
<path style="fill:none;stroke-width:2;stroke-linecap:butt;stroke-linejoin:miter;stroke:rgb(0%,0%,0%);stroke-opacity:1;stroke-miterlimit:4;" d="M 315.098958 122.401042 L 296.098958 127.5 " transform="matrix(0.75,0,0,0.75,0,0)"/>
<path style="fill:none;stroke-width:2;stroke-linecap:butt;stroke-linejoin:miter;stroke:rgb(0%,0%,100%);stroke-opacity:1;stroke-miterlimit:4;" d="M 296.098958 127.5 L 277.098958 132.5 " transform="matrix(0.75,0,0,0.75,0,0)"/>
<path style="fill:none;stroke-width:2;stroke-linecap:butt;stroke-linejoin:miter;stroke:rgb(0%,0%,0%);stroke-opacity:1;stroke-miterlimit:4;" d="M 104.401042 370.302083 L 126.901042 410.5 " transform="matrix(0.75,0,0,0.75,0,0)"/>
<path style="fill:none;stroke-width:2;stroke-linecap:butt;stroke-linejoin:miter;stroke:rgb(0%,0%,100%);stroke-opacity:1;stroke-miterlimit:4;" d="M 264.098958 133.901042 L 244.401042 132.802083 " transform="matrix(0.75,0,0,0.75,0,0)"/>
<path style="fill:none;stroke-width:2;stroke-linecap:butt;stroke-linejoin:miter;stroke:rgb(0%,0%,0%);stroke-opacity:1;stroke-miterlimit:4;" d="M 244.401042 132.802083 L 224.598958 131.802083 " transform="matrix(0.75,0,0,0.75,0,0)"/>
<path style="fill:none;stroke-width:2;stroke-linecap:butt;stroke-linejoin:miter;stroke:rgb(0%,0%,100%);stroke-opacity:1;stroke-miterlimit:4;" d="M 142.098958 339.5 L 159.802083 347.598958 " transform="matrix(0.75,0,0,0.75,0,0)"/>
<path style="fill:none;stroke-width:2;stroke-linecap:butt;stroke-linejoin:miter;stroke:rgb(0%,0%,0%);stroke-opacity:1;stroke-miterlimit:4;" d="M 159.802083 347.598958 L 177.5 355.697917 " transform="matrix(0.75,0,0,0.75,0,0)"/>
<path style="fill:none;stroke-width:2;stroke-linecap:butt;stroke-linejoin:miter;stroke:rgb(0%,0%,100%);stroke-opacity:1;stroke-miterlimit:4;" d="M 272.802083 142.302083 L 277.598958 160.5 " transform="matrix(0.75,0,0,0.75,0,0)"/>
<path style="fill:none;stroke-width:2;stroke-linecap:butt;stroke-linejoin:miter;stroke:rgb(0%,0%,0%);stroke-opacity:1;stroke-miterlimit:4;" d="M 277.598958 160.5 L 282.5 178.697917 " transform="matrix(0.75,0,0,0.75,0,0)"/>
<path style="fill:none;stroke-width:2;stroke-linecap:butt;stroke-linejoin:miter;stroke:rgb(0%,0%,0%);stroke-opacity:1;stroke-miterlimit:4;" d="M 397.098958 324.802083 L 353.901042 340.802083 " transform="matrix(0.75,0,0,0.75,0,0)"/>
<path style="fill:none;stroke-width:1;stroke-linecap:butt;stroke-linejoin:miter;stroke:rgb(0%,0%,0%);stroke-opacity:1;stroke-miterlimit:4;" d="M 183.302083 358.197917 L 183.697917 356.697917 " transform="matrix(0.75,0,0,0.75,0,0)"/>
<path style="fill:none;stroke-width:1;stroke-linecap:butt;stroke-linejoin:miter;stroke:rgb(0%,0%,0%);stroke-opacity:1;stroke-miterlimit:4;" d="M 189.098958 360.598958 L 189.901042 357.697917 " transform="matrix(0.75,0,0,0.75,0,0)"/>
<path style="fill:none;stroke-width:1;stroke-linecap:butt;stroke-linejoin:miter;stroke:rgb(0%,0%,0%);stroke-opacity:1;stroke-miterlimit:4;" d="M 194.901042 363 L 196.197917 358.598958 " transform="matrix(0.75,0,0,0.75,0,0)"/>
<path style="fill:none;stroke-width:1;stroke-linecap:butt;stroke-linejoin:miter;stroke:rgb(0%,0%,0%);stroke-opacity:1;stroke-miterlimit:4;" d="M 200.802083 365.5 L 202.401042 359.598958 " transform="matrix(0.75,0,0,0.75,0,0)"/>
<path style="fill:none;stroke-width:1;stroke-linecap:butt;stroke-linejoin:miter;stroke:rgb(0%,0%,0%);stroke-opacity:1;stroke-miterlimit:4;" d="M 206.598958 367.901042 L 208.598958 360.5 " transform="matrix(0.75,0,0,0.75,0,0)"/>
<path style="fill:none;stroke-width:1;stroke-linecap:butt;stroke-linejoin:miter;stroke:rgb(0%,0%,0%);stroke-opacity:1;stroke-miterlimit:4;" d="M 212.401042 370.401042 L 214.901042 361.5 " transform="matrix(0.75,0,0,0.75,0,0)"/>
<path style="fill:none;stroke-width:1;stroke-linecap:butt;stroke-linejoin:miter;stroke:rgb(0%,0%,0%);stroke-opacity:1;stroke-miterlimit:4;" d="M 284.197917 184.5 L 285.598958 183.802083 " transform="matrix(0.75,0,0,0.75,0,0)"/>
<path style="fill:none;stroke-width:1;stroke-linecap:butt;stroke-linejoin:miter;stroke:rgb(0%,0%,0%);stroke-opacity:1;stroke-miterlimit:4;" d="M 285.901042 190.197917 L 288.697917 189 " transform="matrix(0.75,0,0,0.75,0,0)"/>
<path style="fill:none;stroke-width:1;stroke-linecap:butt;stroke-linejoin:miter;stroke:rgb(0%,0%,0%);stroke-opacity:1;stroke-miterlimit:4;" d="M 287.598958 195.901042 L 291.802083 194.098958 " transform="matrix(0.75,0,0,0.75,0,0)"/>
<path style="fill:none;stroke-width:1;stroke-linecap:butt;stroke-linejoin:miter;stroke:rgb(0%,0%,0%);stroke-opacity:1;stroke-miterlimit:4;" d="M 289.302083 201.697917 L 294.901042 199.197917 " transform="matrix(0.75,0,0,0.75,0,0)"/>
<path style="fill:none;stroke-width:1;stroke-linecap:butt;stroke-linejoin:miter;stroke:rgb(0%,0%,0%);stroke-opacity:1;stroke-miterlimit:4;" d="M 291 207.401042 L 298 204.302083 " transform="matrix(0.75,0,0,0.75,0,0)"/>
<path style="fill:none;stroke-width:1;stroke-linecap:butt;stroke-linejoin:miter;stroke:rgb(0%,0%,0%);stroke-opacity:1;stroke-miterlimit:4;" d="M 292.697917 213.098958 L 301.098958 209.401042 " transform="matrix(0.75,0,0,0.75,0,0)"/>
<path style=" stroke:none;fill-rule:nonzero;fill:rgb(80%,80%,0%);fill-opacity:1;" d="M 126.300781 304.425781 C 126.398438 304.476562 126.601562 304.574219 126.898438 304.726562 C 127.199219 304.824219 127.5 304.925781 127.800781 305.023438 C 128.148438 305.074219 128.5 305.101562 128.851562 305.101562 C 129.449219 305.101562 129.925781 304.949219 130.273438 304.648438 C 130.625 304.351562 130.800781 303.949219 130.800781 303.449219 C 130.800781 303.101562 130.726562 302.800781 130.574219 302.550781 C 130.375 302.351562 130.148438 302.175781 129.898438 302.023438 C 129.601562 301.925781 129.226562 301.800781 128.773438 301.648438 C 128.175781 301.5 127.699219 301.324219 127.351562 301.125 C 127.050781 300.976562 126.773438 300.726562 126.523438 300.375 C 126.273438 300.023438 126.148438 299.550781 126.148438 298.949219 C 126.148438 298.148438 126.425781 297.5 126.976562 297 C 127.523438 296.5 128.351562 296.25 129.449219 296.25 C 130.199219 296.25 131 296.425781 131.851562 296.773438 L 131.550781 297.824219 C 130.800781 297.523438 130.125 297.375 129.523438 297.375 C 128.875 297.375 128.375 297.5 128.023438 297.75 C 127.675781 298 127.5 298.351562 127.5 298.800781 C 127.5 299.148438 127.601562 299.425781 127.800781 299.625 C 127.949219 299.875 128.175781 300.050781 128.476562 300.148438 C 128.726562 300.25 129.074219 300.375 129.523438 300.523438 C 130.125 300.726562 130.601562 300.925781 130.949219 301.125 C 131.300781 301.273438 131.601562 301.550781 131.851562 301.949219 C 132.101562 302.300781 132.226562 302.800781 132.226562 303.449219 C 132.226562 304.351562 131.925781 305.050781 131.324219 305.550781 C 130.726562 306 129.898438 306.226562 128.851562 306.226562 C 128.300781 306.226562 127.800781 306.175781 127.351562 306.074219 C 126.898438 305.925781 126.425781 305.75 125.925781 305.550781 L 126.300781 304.425781 "/>
<path style=" stroke:none;fill-rule:nonzero;fill:rgb(0%,0%,100%);fill-opacity:1;" d="M 177.75 218.550781 L 180.976562 223.726562 C 181.175781 224.074219 181.449219 224.574219 181.800781 225.226562 C 182.148438 225.824219 182.324219 226.148438 182.324219 226.199219 L 182.324219 218.550781 L 183.601562 218.550781 L 183.601562 228.375 L 182.25 228.375 L 178.875 222.675781 C 178.574219 222.226562 178.273438 221.75 177.976562 221.25 C 177.726562 220.75 177.550781 220.425781 177.449219 220.273438 L 177.449219 228.375 L 176.175781 228.375 L 176.175781 218.550781 L 177.75 218.550781 "/>
<path style=" stroke:none;fill-rule:nonzero;fill:rgb(0%,0%,100%);fill-opacity:1;" d="M 176.101562 207.824219 L 177.375 207.824219 L 177.375 211.949219 L 182.398438 211.949219 L 182.398438 207.824219 L 183.75 207.824219 L 183.75 217.574219 L 182.398438 217.574219 L 182.398438 213.074219 L 177.375 213.074219 L 177.375 217.574219 L 176.101562 217.574219 L 176.101562 207.824219 "/>
<path style=" stroke:none;fill-rule:nonzero;fill:rgb(100%,0%,0%);fill-opacity:1;" d="M 196.199219 279.601562 C 196.199219 278 196.574219 276.773438 197.324219 275.925781 C 198.125 275.023438 199.226562 274.574219 200.625 274.574219 C 202.074219 274.574219 203.199219 275.023438 204 275.925781 C 204.75 276.773438 205.125 278 205.125 279.601562 C 205.125 281.148438 204.75 282.375 204 283.273438 C 203.199219 284.175781 202.074219 284.625 200.625 284.625 C 199.226562 284.625 198.125 284.175781 197.324219 283.273438 C 196.574219 282.425781 196.199219 281.199219 196.199219 279.601562 M 200.625 283.574219 C 201.625 283.574219 202.398438 283.226562 202.949219 282.523438 C 203.5 281.875 203.773438 280.898438 203.773438 279.601562 C 203.773438 278.300781 203.5 277.324219 202.949219 276.675781 C 202.398438 276.023438 201.625 275.699219 200.625 275.699219 C 199.675781 275.699219 198.925781 276.023438 198.375 276.675781 C 197.824219 277.324219 197.550781 278.300781 197.550781 279.601562 C 197.550781 280.898438 197.824219 281.875 198.375 282.523438 C 198.925781 283.226562 199.675781 283.574219 200.625 283.574219 "/>
<path style=" stroke:none;fill-rule:nonzero;fill:rgb(0%,0%,100%);fill-opacity:1;" d="M 242.550781 194.625 L 245.699219 199.800781 C 245.898438 200.148438 246.175781 200.625 246.523438 201.226562 C 246.875 201.824219 247.050781 202.148438 247.050781 202.199219 L 247.050781 194.625 L 248.398438 194.625 L 248.398438 204.375 L 247.050781 204.375 L 243.601562 198.75 C 243.351562 198.300781 243.074219 197.824219 242.773438 197.324219 C 242.523438 196.824219 242.351562 196.5 242.25 196.351562 L 242.25 204.375 L 240.976562 204.375 L 240.976562 194.625 L 242.550781 194.625 "/>
<path style=" stroke:none;fill-rule:nonzero;fill:rgb(0%,0%,100%);fill-opacity:1;" d="M 249.523438 194.625 L 250.875 194.625 L 250.875 198.75 L 255.824219 198.75 L 255.824219 194.625 L 257.175781 194.625 L 257.175781 204.375 L 255.824219 204.375 L 255.824219 199.875 L 250.875 199.875 L 250.875 204.375 L 249.523438 204.375 L 249.523438 194.625 "/>
<path style=" stroke:none;fill-rule:nonzero;fill:rgb(0%,0%,100%);fill-opacity:1;" d="M 258.375 204.074219 C 258.523438 203.675781 258.800781 203.351562 259.199219 203.101562 C 259.550781 202.851562 260 202.726562 260.550781 202.726562 C 261.199219 202.726562 261.699219 202.898438 262.050781 203.25 C 262.398438 203.648438 262.574219 204.148438 262.574219 204.75 C 262.574219 205.398438 262.351562 206.023438 261.898438 206.625 C 261.398438 207.226562 260.675781 207.875 259.726562 208.574219 L 262.726562 208.574219 L 262.726562 209.25 L 258.375 209.25 L 258.375 208.648438 C 259.175781 208.101562 259.800781 207.601562 260.25 207.148438 C 260.75 206.75 261.125 206.351562 261.375 205.949219 C 261.574219 205.601562 261.675781 205.226562 261.675781 204.824219 C 261.675781 204.375 261.574219 204.050781 261.375 203.851562 C 261.175781 203.601562 260.898438 203.476562 260.550781 203.476562 C 260.199219 203.476562 259.898438 203.550781 259.648438 203.699219 C 259.449219 203.851562 259.25 204.074219 259.050781 204.375 L 258.375 204.074219 "/>
<path style=" stroke:none;fill-rule:nonzero;fill:rgb(100%,0%,0%);fill-opacity:1;" d="M 340.648438 321.824219 C 340.648438 320.226562 341.023438 319 341.773438 318.148438 C 342.574219 317.25 343.699219 316.800781 345.148438 316.800781 C 346.601562 316.800781 347.699219 317.25 348.449219 318.148438 C 349.199219 319 349.574219 320.226562 349.574219 321.824219 C 349.574219 323.375 349.199219 324.601562 348.449219 325.5 C 347.648438 326.398438 346.550781 326.851562 345.148438 326.851562 C 343.699219 326.851562 342.574219 326.398438 341.773438 325.5 C 341.023438 324.601562 340.648438 323.375 340.648438 321.824219 M 345.148438 325.726562 C 346.148438 325.726562 346.898438 325.398438 347.398438 324.75 C 347.949219 324.101562 348.226562 323.125 348.226562 321.824219 C 348.226562 320.523438 347.949219 319.550781 347.398438 318.898438 C 346.898438 318.25 346.148438 317.925781 345.148438 317.925781 C 344.148438 317.925781 343.375 318.25 342.824219 318.898438 C 342.273438 319.550781 342 320.523438 342 321.824219 C 342 323.125 342.273438 324.101562 342.824219 324.75 C 343.375 325.398438 344.148438 325.726562 345.148438 325.726562 "/>
<path style=" stroke:none;fill-rule:nonzero;fill:rgb(100%,0%,0%);fill-opacity:1;" d="M 350.324219 316.949219 L 351.601562 316.949219 L 351.601562 321.074219 L 356.625 321.074219 L 356.625 316.949219 L 357.976562 316.949219 L 357.976562 326.699219 L 356.625 326.699219 L 356.625 322.199219 L 351.601562 322.199219 L 351.601562 326.699219 L 350.324219 326.699219 L 350.324219 316.949219 "/>
<path style=" stroke:none;fill-rule:nonzero;fill:rgb(100%,0%,0%);fill-opacity:1;" d="M 99.675781 188.625 C 99.675781 187.074219 100.074219 185.875 100.875 185.023438 C 101.625 184.125 102.726562 183.675781 104.175781 183.675781 C 105.625 183.675781 106.726562 184.125 107.476562 185.023438 C 108.273438 185.875 108.675781 187.074219 108.675781 188.625 C 108.675781 190.226562 108.273438 191.476562 107.476562 192.375 C 106.726562 193.273438 105.625 193.726562 104.175781 193.726562 C 102.726562 193.726562 101.625 193.273438 100.875 192.375 C 100.074219 191.476562 99.675781 190.226562 99.675781 188.625 M 104.175781 192.601562 C 105.175781 192.601562 105.949219 192.273438 106.5 191.625 C 107 190.976562 107.25 189.976562 107.25 188.625 C 107.25 187.375 107 186.425781 106.5 185.773438 C 105.949219 185.125 105.175781 184.800781 104.175781 184.800781 C 103.175781 184.800781 102.398438 185.125 101.851562 185.773438 C 101.351562 186.425781 101.101562 187.375 101.101562 188.625 C 101.101562 189.976562 101.351562 190.976562 101.851562 191.625 C 102.398438 192.273438 103.175781 192.601562 104.175781 192.601562 "/>
<path style=" stroke:none;fill-rule:nonzero;fill:rgb(0%,0%,100%);fill-opacity:1;" d="M 99.601562 247.5 L 102.75 252.675781 C 102.949219 253.023438 103.226562 253.5 103.574219 254.101562 C 103.925781 254.699219 104.101562 255.023438 104.101562 255.074219 L 104.101562 247.5 L 105.449219 247.5 L 105.449219 257.25 L 104.101562 257.25 L 100.648438 251.625 C 100.398438 251.175781 100.125 250.699219 99.824219 250.199219 C 99.574219 249.699219 99.398438 249.375 99.300781 249.226562 L 99.300781 257.25 L 98.023438 257.25 L 98.023438 247.5 L 99.601562 247.5 "/>
<path style=" stroke:none;fill-rule:nonzero;fill:rgb(100%,0%,0%);fill-opacity:1;" d="M 18.898438 301.425781 C 18.898438 299.875 19.273438 298.648438 20.023438 297.75 C 20.824219 296.898438 21.949219 296.476562 23.398438 296.476562 C 24.851562 296.476562 25.949219 296.898438 26.699219 297.75 C 27.5 298.648438 27.898438 299.875 27.898438 301.425781 C 27.898438 303.023438 27.5 304.273438 26.699219 305.175781 C 25.898438 306.074219 24.800781 306.523438 23.398438 306.523438 C 21.949219 306.523438 20.824219 306.074219 20.023438 305.175781 C 19.273438 304.273438 18.898438 303.023438 18.898438 301.425781 M 23.398438 305.398438 C 24.398438 305.398438 25.148438 305.074219 25.648438 304.425781 C 26.199219 303.726562 26.476562 302.726562 26.476562 301.425781 C 26.476562 300.175781 26.199219 299.226562 25.648438 298.574219 C 25.148438 297.925781 24.398438 297.601562 23.398438 297.601562 C 22.398438 297.601562 21.625 297.925781 21.074219 298.574219 C 20.523438 299.175781 20.25 300.125 20.25 301.425781 C 20.25 302.773438 20.523438 303.773438 21.074219 304.425781 C 21.625 305.074219 22.398438 305.398438 23.398438 305.398438 "/>
<path style=" stroke:none;fill-rule:nonzero;fill:rgb(100%,0%,0%);fill-opacity:1;" d="M 17.023438 237.148438 L 18.375 237.148438 L 18.375 241.351562 L 23.398438 241.351562 L 23.398438 237.148438 L 24.675781 237.148438 L 24.675781 246.976562 L 23.398438 246.976562 L 23.398438 242.476562 L 18.375 242.476562 L 18.375 246.976562 L 17.023438 246.976562 L 17.023438 237.148438 "/>
<path style=" stroke:none;fill-rule:nonzero;fill:rgb(100%,0%,0%);fill-opacity:1;" d="M 25.875 242.023438 C 25.875 240.476562 26.25 239.25 27 238.351562 C 27.800781 237.5 28.925781 237.074219 30.375 237.074219 C 31.824219 237.074219 32.925781 237.5 33.675781 238.351562 C 34.476562 239.25 34.875 240.476562 34.875 242.023438 C 34.875 243.625 34.476562 244.875 33.675781 245.773438 C 32.875 246.675781 31.773438 247.125 30.375 247.125 C 28.925781 247.125 27.800781 246.675781 27 245.773438 C 26.25 244.875 25.875 243.625 25.875 242.023438 M 30.375 246 C 31.375 246 32.125 245.675781 32.625 245.023438 C 33.175781 244.324219 33.449219 243.324219 33.449219 242.023438 C 33.449219 240.773438 33.175781 239.824219 32.625 239.175781 C 32.125 238.523438 31.375 238.199219 30.375 238.199219 C 29.375 238.199219 28.601562 238.523438 28.050781 239.175781 C 27.5 239.773438 27.226562 240.726562 27.226562 242.023438 C 27.226562 243.375 27.5 244.375 28.050781 245.023438 C 28.601562 245.675781 29.375 246 30.375 246 "/>
<path style=" stroke:none;fill-rule:nonzero;fill:rgb(100%,0%,0%);fill-opacity:1;" d="M 110.773438 71.625 C 110.773438 70.074219 111.148438 68.851562 111.898438 67.949219 C 112.648438 67.101562 113.75 66.675781 115.199219 66.675781 C 116.648438 66.675781 117.773438 67.101562 118.574219 67.949219 C 119.324219 68.851562 119.699219 70.074219 119.699219 71.625 C 119.699219 73.226562 119.324219 74.476562 118.574219 75.375 C 117.773438 76.273438 116.648438 76.726562 115.199219 76.726562 C 113.800781 76.726562 112.699219 76.273438 111.898438 75.375 C 111.148438 74.476562 110.773438 73.226562 110.773438 71.625 M 115.199219 75.601562 C 116.199219 75.601562 116.976562 75.273438 117.523438 74.625 C 118.074219 73.925781 118.351562 72.925781 118.351562 71.625 C 118.351562 70.375 118.074219 69.425781 117.523438 68.773438 C 116.976562 68.125 116.199219 67.800781 115.199219 67.800781 C 114.199219 67.800781 113.449219 68.125 112.949219 68.773438 C 112.398438 69.375 112.125 70.324219 112.125 71.625 C 112.125 72.976562 112.398438 73.976562 112.949219 74.625 C 113.449219 75.273438 114.199219 75.601562 115.199219 75.601562 "/>
<path style=" stroke:none;fill-rule:nonzero;fill:rgb(100%,0%,0%);fill-opacity:1;" d="M 160.949219 39.148438 C 160.949219 37.601562 161.324219 36.375 162.074219 35.476562 C 162.875 34.625 164 34.199219 165.449219 34.199219 C 166.898438 34.199219 168 34.625 168.75 35.476562 C 169.550781 36.375 169.949219 37.601562 169.949219 39.148438 C 169.949219 40.699219 169.550781 41.949219 168.75 42.898438 C 167.949219 43.75 166.851562 44.175781 165.449219 44.175781 C 164 44.175781 162.875 43.75 162.074219 42.898438 C 161.324219 42 160.949219 40.75 160.949219 39.148438 M 165.449219 43.125 C 166.449219 43.125 167.199219 42.773438 167.699219 42.074219 C 168.25 41.425781 168.523438 40.449219 168.523438 39.148438 C 168.523438 37.851562 168.25 36.875 167.699219 36.226562 C 167.199219 35.574219 166.449219 35.25 165.449219 35.25 C 164.449219 35.25 163.675781 35.574219 163.125 36.226562 C 162.574219 36.875 162.300781 37.851562 162.300781 39.148438 C 162.300781 40.449219 162.574219 41.425781 163.125 42.074219 C 163.675781 42.773438 164.449219 43.125 165.449219 43.125 "/>
<path style=" stroke:none;fill-rule:nonzero;fill:rgb(100%,0%,0%);fill-opacity:1;" d="M 170.625 34.273438 L 171.898438 34.273438 L 171.898438 38.398438 L 176.925781 38.398438 L 176.925781 34.273438 L 178.273438 34.273438 L 178.273438 44.023438 L 176.925781 44.023438 L 176.925781 39.523438 L 171.898438 39.523438 L 171.898438 44.023438 L 170.625 44.023438 L 170.625 34.273438 "/>
<path style=" stroke:none;fill-rule:nonzero;fill:rgb(100%,0%,0%);fill-opacity:1;" d="M 51.675781 119.550781 L 52.949219 119.550781 L 52.949219 123.75 L 57.976562 123.75 L 57.976562 119.550781 L 59.324219 119.550781 L 59.324219 129.375 L 57.976562 129.375 L 57.976562 124.800781 L 52.949219 124.800781 L 52.949219 129.375 L 51.675781 129.375 L 51.675781 119.550781 "/>
<path style=" stroke:none;fill-rule:nonzero;fill:rgb(100%,0%,0%);fill-opacity:1;" d="M 60.449219 124.425781 C 60.449219 122.875 60.851562 121.648438 61.648438 120.75 C 62.398438 119.898438 63.5 119.476562 64.949219 119.476562 C 66.398438 119.476562 67.5 119.898438 68.25 120.75 C 69.050781 121.648438 69.449219 122.875 69.449219 124.425781 C 69.449219 126.023438 69.050781 127.273438 68.25 128.175781 C 67.5 129.074219 66.398438 129.523438 64.949219 129.523438 C 63.5 129.523438 62.398438 129.074219 61.648438 128.175781 C 60.851562 127.273438 60.449219 126.023438 60.449219 124.425781 M 64.949219 128.398438 C 65.949219 128.398438 66.726562 128.074219 67.273438 127.425781 C 67.824219 126.726562 68.101562 125.726562 68.101562 124.425781 C 68.101562 123.125 67.824219 122.175781 67.273438 121.574219 C 66.726562 120.875 65.949219 120.523438 64.949219 120.523438 C 63.949219 120.523438 63.175781 120.851562 62.625 121.5 C 62.125 122.148438 61.875 123.125 61.875 124.425781 C 61.875 125.726562 62.125 126.726562 62.625 127.425781 C 63.175781 128.074219 63.949219 128.398438 64.949219 128.398438 "/>
<path style=" stroke:none;fill-rule:nonzero;fill:rgb(100%,0%,0%);fill-opacity:1;" d="M 178.351562 152.851562 C 178.351562 151.300781 178.75 150.074219 179.550781 149.175781 C 180.300781 148.324219 181.398438 147.898438 182.851562 147.898438 C 184.300781 147.898438 185.425781 148.324219 186.226562 149.175781 C 186.976562 150.074219 187.351562 151.300781 187.351562 152.851562 C 187.351562 154.449219 186.976562 155.699219 186.226562 156.601562 C 185.425781 157.5 184.300781 157.949219 182.851562 157.949219 C 181.449219 157.949219 180.351562 157.5 179.550781 156.601562 C 178.75 155.699219 178.351562 154.449219 178.351562 152.851562 M 182.851562 156.824219 C 183.851562 156.824219 184.625 156.5 185.175781 155.851562 C 185.726562 155.148438 186 154.148438 186 152.851562 C 186 151.550781 185.726562 150.574219 185.175781 149.925781 C 184.625 149.273438 183.851562 148.949219 182.851562 148.949219 C 181.851562 148.949219 181.101562 149.273438 180.601562 149.925781 C 180.050781 150.574219 179.773438 151.550781 179.773438 152.851562 C 179.773438 154.148438 180.050781 155.148438 180.601562 155.851562 C 181.101562 156.5 181.851562 156.824219 182.851562 156.824219 "/>
<path style=" stroke:none;fill-rule:nonzero;fill:rgb(100%,0%,0%);fill-opacity:1;" d="M 249.148438 61.949219 C 249.148438 60.398438 249.523438 59.175781 250.273438 58.273438 C 251.074219 57.425781 252.199219 57 253.648438 57 C 255.101562 57 256.199219 57.425781 256.949219 58.273438 C 257.75 59.175781 258.148438 60.398438 258.148438 61.949219 C 258.148438 63.5 257.75 64.75 256.949219 65.699219 C 256.148438 66.550781 255.050781 66.976562 253.648438 66.976562 C 252.199219 66.976562 251.074219 66.550781 250.273438 65.699219 C 249.523438 64.800781 249.148438 63.550781 249.148438 61.949219 M 253.648438 65.925781 C 254.648438 65.925781 255.398438 65.574219 255.898438 64.875 C 256.449219 64.226562 256.726562 63.25 256.726562 61.949219 C 256.726562 60.648438 256.449219 59.675781 255.898438 59.023438 C 255.398438 58.375 254.648438 58.050781 253.648438 58.050781 C 252.648438 58.050781 251.875 58.375 251.324219 59.023438 C 250.773438 59.675781 250.5 60.648438 250.5 61.949219 C 250.5 63.25 250.773438 64.226562 251.324219 64.875 C 251.875 65.574219 252.648438 65.925781 253.648438 65.925781 "/>
<path style=" stroke:none;fill-rule:nonzero;fill:rgb(0%,0%,100%);fill-opacity:1;" d="M 200.773438 95.773438 L 204 100.949219 C 204.199219 101.300781 204.476562 101.773438 204.824219 102.375 C 205.175781 103.023438 205.351562 103.375 205.351562 103.425781 L 205.351562 95.773438 L 206.699219 95.773438 L 206.699219 105.601562 L 205.351562 105.601562 L 201.898438 99.898438 C 201.648438 99.449219 201.375 98.976562 201.074219 98.476562 C 200.773438 97.976562 200.601562 97.648438 200.550781 97.5 L 200.550781 105.601562 L 199.273438 105.601562 L 199.273438 95.773438 L 200.773438 95.773438 "/>
<path style=" stroke:none;fill-rule:nonzero;fill:rgb(0%,0%,0%);fill-opacity:1;" d="M 162.523438 271.273438 L 163.800781 271.273438 L 163.800781 275.398438 L 168.824219 275.398438 L 168.824219 271.273438 L 170.175781 271.273438 L 170.175781 281.023438 L 168.824219 281.023438 L 168.824219 276.523438 L 163.800781 276.523438 L 163.800781 281.023438 L 162.523438 281.023438 L 162.523438 271.273438 "/>
<path style=" stroke:none;fill-rule:nonzero;fill:rgb(0%,0%,0%);fill-opacity:1;" d="M 222 160.726562 L 223.351562 160.726562 L 223.351562 164.851562 L 228.375 164.851562 L 228.375 160.726562 L 229.648438 160.726562 L 229.648438 170.476562 L 228.375 170.476562 L 228.375 165.976562 L 223.351562 165.976562 L 223.351562 170.476562 L 222 170.476562 L 222 160.726562 "/>
</g>
</svg>
