<?xml version="1.0" encoding="UTF-8"?>
<svg xmlns="http://www.w3.org/2000/svg" xmlns:xlink="http://www.w3.org/1999/xlink" width="375pt" height="375pt" viewBox="0 0 375 375" version="1.1">
<g id="surface189">
<rect x="0" y="0" width="375" height="375" style="fill:rgb(100%,100%,100%);fill-opacity:1;stroke:none;"/>
<path style="fill:none;stroke-width:2;stroke-linecap:butt;stroke-linejoin:miter;stroke:rgb(0%,0%,0%);stroke-opacity:1;stroke-miterlimit:4;" d="M 195.302083 114.302083 L 197.598958 130.5 " transform="matrix(0.75,0,0,0.75,0,0)"/>
<path style="fill:none;stroke-width:2;stroke-linecap:butt;stroke-linejoin:miter;stroke:rgb(100%,0%,0%);stroke-opacity:1;stroke-miterlimit:4;" d="M 197.598958 130.5 L 199.901042 146.598958 " transform="matrix(0.75,0,0,0.75,0,0)"/>
<path style="fill:none;stroke-width:2;stroke-linecap:butt;stroke-linejoin:miter;stroke:rgb(100%,0%,0%);stroke-opacity:1;stroke-miterlimit:4;" d="M 194.5 158.697917 L 184.901042 166.197917 " transform="matrix(0.75,0,0,0.75,0,0)"/>
<path style="fill:none;stroke-width:2;stroke-linecap:butt;stroke-linejoin:miter;stroke:rgb(0%,0%,100%);stroke-opacity:1;stroke-miterlimit:4;" d="M 184.901042 166.197917 L 175.302083 173.697917 " transform="matrix(0.75,0,0,0.75,0,0)"/>
<path style="fill:none;stroke-width:2;stroke-linecap:butt;stroke-linejoin:miter;stroke:rgb(0%,0%,100%);stroke-opacity:1;stroke-miterlimit:4;" d="M 170.802083 185.098958 L 173.098958 201.197917 " transform="matrix(0.75,0,0,0.75,0,0)"/>
<path style="fill:none;stroke-width:2;stroke-linecap:butt;stroke-linejoin:miter;stroke:rgb(0%,0%,0%);stroke-opacity:1;stroke-miterlimit:4;" d="M 173.098958 201.197917 L 175.401042 217.401042 " transform="matrix(0.75,0,0,0.75,0,0)"/>
<path style="fill:none;stroke-width:2;stroke-linecap:butt;stroke-linejoin:miter;stroke:rgb(0%,0%,100%);stroke-opacity:1;stroke-miterlimit:4;" d="M 177.098958 187.098958 L 178.901042 200.098958 " transform="matrix(0.75,0,0,0.75,0,0)"/>
<path style="fill:none;stroke-width:2;stroke-linecap:butt;stroke-linejoin:miter;stroke:rgb(0%,0%,0%);stroke-opacity:1;stroke-miterlimit:4;" d="M 178.901042 200.098958 L 180.802083 213.098958 " transform="matrix(0.75,0,0,0.75,0,0)"/>
<path style="fill:none;stroke-width:2;stroke-linecap:butt;stroke-linejoin:miter;stroke:rgb(0%,0%,0%);stroke-opacity:1;stroke-miterlimit:4;" d="M 175.401042 217.401042 L 212.302083 232.098958 " transform="matrix(0.75,0,0,0.75,0,0)"/>
<path style="fill:none;stroke-width:2;stroke-linecap:butt;stroke-linejoin:miter;stroke:rgb(0%,0%,0%);stroke-opacity:1;stroke-miterlimit:4;" d="M 212.697917 235.5 L 225.802083 225.302083 " transform="matrix(0.75,0,0,0.75,0,0)"/>
<path style="fill:none;stroke-width:2;stroke-linecap:butt;stroke-linejoin:miter;stroke:rgb(100%,0%,0%);stroke-opacity:1;stroke-miterlimit:4;" d="M 225.802083 225.302083 L 238.802083 215 " transform="matrix(0.75,0,0,0.75,0,0)"/>
<path style="fill:none;stroke-width:2;stroke-linecap:butt;stroke-linejoin:miter;stroke:rgb(0%,0%,0%);stroke-opacity:1;stroke-miterlimit:4;" d="M 209.098958 230.802083 L 222.098958 220.598958 " transform="matrix(0.75,0,0,0.75,0,0)"/>
<path style="fill:none;stroke-width:2;stroke-linecap:butt;stroke-linejoin:miter;stroke:rgb(100%,0%,0%);stroke-opacity:1;stroke-miterlimit:4;" d="M 222.098958 220.598958 L 235.098958 210.302083 " transform="matrix(0.75,0,0,0.75,0,0)"/>
<path style="fill:none;stroke-width:2;stroke-linecap:butt;stroke-linejoin:miter;stroke:rgb(0%,0%,0%);stroke-opacity:1;stroke-miterlimit:4;" d="M 212.302083 232.098958 L 214.598958 248.302083 " transform="matrix(0.75,0,0,0.75,0,0)"/>
<path style="fill:none;stroke-width:2;stroke-linecap:butt;stroke-linejoin:miter;stroke:rgb(0%,0%,100%);stroke-opacity:1;stroke-miterlimit:4;" d="M 214.598958 248.302083 L 216.901042 264.401042 " transform="matrix(0.75,0,0,0.75,0,0)"/>
<path style="fill-rule:evenodd;fill:rgb(0%,0%,0%);fill-opacity:1;stroke-width:0.5;stroke-linecap:butt;stroke-linejoin:miter;stroke:rgb(0%,0%,0%);stroke-opacity:1;stroke-miterlimit:4;" d="M 254.697917 286.098958 L 239.197917 281.5 L 240.302083 278.697917 Z M 254.697917 286.098958 " transform="matrix(0.75,0,0,0.75,0,0)"/>
<path style="fill-rule:evenodd;fill:rgb(0%,0%,100%);fill-opacity:1;stroke-width:0.5;stroke-linecap:butt;stroke-linejoin:miter;stroke:rgb(0%,0%,100%);stroke-opacity:1;stroke-miterlimit:4;" d="M 239.197917 281.5 L 225.901042 271.302083 L 223.697917 276.901042 Z M 239.197917 281.5 " transform="matrix(0.75,0,0,0.75,0,0)"/>
<path style="fill-rule:evenodd;fill:rgb(0%,0%,100%);fill-opacity:1;stroke-width:0.5;stroke-linecap:butt;stroke-linejoin:miter;stroke:rgb(0%,0%,100%);stroke-opacity:1;stroke-miterlimit:4;" d="M 239.197917 281.5 L 240.302083 278.697917 L 225.901042 271.302083 Z M 239.197917 281.5 " transform="matrix(0.75,0,0,0.75,0,0)"/>
<path style="fill:none;stroke-width:2;stroke-linecap:butt;stroke-linejoin:miter;stroke:rgb(0%,0%,0%);stroke-opacity:1;stroke-miterlimit:4;" d="M 254.697917 286.098958 L 270.401042 322.5 " transform="matrix(0.75,0,0,0.75,0,0)"/>
<path style="fill:none;stroke-width:2;stroke-linecap:butt;stroke-linejoin:miter;stroke:rgb(0%,0%,0%);stroke-opacity:1;stroke-miterlimit:4;" d="M 268.697917 318.697917 L 262.197917 335 " transform="matrix(0.75,0,0,0.75,0,0)"/>
<path style="fill:none;stroke-width:2;stroke-linecap:butt;stroke-linejoin:miter;stroke:rgb(100%,0%,0%);stroke-opacity:1;stroke-miterlimit:4;" d="M 262.197917 335 L 255.697917 351.302083 " transform="matrix(0.75,0,0,0.75,0,0)"/>
<path style="fill:none;stroke-width:2;stroke-linecap:butt;stroke-linejoin:miter;stroke:rgb(0%,0%,0%);stroke-opacity:1;stroke-miterlimit:4;" d="M 274.197917 320.901042 L 267.697917 337.197917 " transform="matrix(0.75,0,0,0.75,0,0)"/>
<path style="fill:none;stroke-width:2;stroke-linecap:butt;stroke-linejoin:miter;stroke:rgb(100%,0%,0%);stroke-opacity:1;stroke-miterlimit:4;" d="M 267.697917 337.197917 L 261.197917 353.5 " transform="matrix(0.75,0,0,0.75,0,0)"/>
<path style="fill:none;stroke-width:2;stroke-linecap:butt;stroke-linejoin:miter;stroke:rgb(0%,0%,0%);stroke-opacity:1;stroke-miterlimit:4;" d="M 270.401042 322.5 L 285.802083 315.901042 " transform="matrix(0.75,0,0,0.75,0,0)"/>
<path style="fill:none;stroke-width:2;stroke-linecap:butt;stroke-linejoin:miter;stroke:rgb(0%,0%,100%);stroke-opacity:1;stroke-miterlimit:4;" d="M 285.802083 315.901042 L 301.302083 309.302083 " transform="matrix(0.75,0,0,0.75,0,0)"/>
<path style="fill:none;stroke-width:2;stroke-linecap:butt;stroke-linejoin:miter;stroke:rgb(0%,0%,100%);stroke-opacity:1;stroke-miterlimit:4;" d="M 312.401042 307.598958 L 329.302083 309.598958 " transform="matrix(0.75,0,0,0.75,0,0)"/>
<path style="fill:none;stroke-width:2;stroke-linecap:butt;stroke-linejoin:miter;stroke:rgb(0%,0%,0%);stroke-opacity:1;stroke-miterlimit:4;" d="M 329.302083 309.598958 L 346.197917 311.598958 " transform="matrix(0.75,0,0,0.75,0,0)"/>
<path style="fill:none;stroke-width:2;stroke-linecap:butt;stroke-linejoin:miter;stroke:rgb(0%,0%,0%);stroke-opacity:1;stroke-miterlimit:4;" d="M 346.197917 311.598958 L 361.802083 348 " transform="matrix(0.75,0,0,0.75,0,0)"/>
<path style="fill:none;stroke-width:2;stroke-linecap:butt;stroke-linejoin:miter;stroke:rgb(0%,0%,0%);stroke-opacity:1;stroke-miterlimit:4;" d="M 359.802083 350.802083 L 377.098958 352.901042 " transform="matrix(0.75,0,0,0.75,0,0)"/>
<path style="fill:none;stroke-width:2;stroke-linecap:butt;stroke-linejoin:miter;stroke:rgb(100%,0%,0%);stroke-opacity:1;stroke-miterlimit:4;" d="M 377.098958 352.901042 L 394.401042 354.901042 " transform="matrix(0.75,0,0,0.75,0,0)"/>
<path style="fill:none;stroke-width:2;stroke-linecap:butt;stroke-linejoin:miter;stroke:rgb(0%,0%,0%);stroke-opacity:1;stroke-miterlimit:4;" d="M 360.5 344.901042 L 377.802083 347 " transform="matrix(0.75,0,0,0.75,0,0)"/>
<path style="fill:none;stroke-width:2;stroke-linecap:butt;stroke-linejoin:miter;stroke:rgb(100%,0%,0%);stroke-opacity:1;stroke-miterlimit:4;" d="M 377.802083 347 L 395.098958 349 " transform="matrix(0.75,0,0,0.75,0,0)"/>
<path style="fill:none;stroke-width:2;stroke-linecap:butt;stroke-linejoin:miter;stroke:rgb(0%,0%,0%);stroke-opacity:1;stroke-miterlimit:4;" d="M 361.802083 348 L 352.598958 360.401042 " transform="matrix(0.75,0,0,0.75,0,0)"/>
<path style="fill:none;stroke-width:2;stroke-linecap:butt;stroke-linejoin:miter;stroke:rgb(100%,0%,0%);stroke-opacity:1;stroke-miterlimit:4;" d="M 352.598958 360.401042 L 343.302083 372.802083 " transform="matrix(0.75,0,0,0.75,0,0)"/>
<path style="fill:none;stroke-width:2;stroke-linecap:butt;stroke-linejoin:miter;stroke:rgb(0%,0%,0%);stroke-opacity:1;stroke-miterlimit:4;" d="M 346.197917 311.598958 L 370 279.802083 " transform="matrix(0.75,0,0,0.75,0,0)"/>
<path style="fill:none;stroke-width:2;stroke-linecap:butt;stroke-linejoin:miter;stroke:rgb(0%,0%,0%);stroke-opacity:1;stroke-miterlimit:4;" d="M 343.5 305.302083 L 363.098958 279 " transform="matrix(0.75,0,0,0.75,0,0)"/>
<path style="fill:none;stroke-width:2;stroke-linecap:butt;stroke-linejoin:miter;stroke:rgb(0%,0%,0%);stroke-opacity:1;stroke-miterlimit:4;" d="M 370 279.802083 L 409.302083 284.5 " transform="matrix(0.75,0,0,0.75,0,0)"/>
<path style="fill:none;stroke-width:2;stroke-linecap:butt;stroke-linejoin:miter;stroke:rgb(0%,0%,0%);stroke-opacity:1;stroke-miterlimit:4;" d="M 409.302083 284.5 L 433.098958 252.802083 " transform="matrix(0.75,0,0,0.75,0,0)"/>
<path style="fill:none;stroke-width:2;stroke-linecap:butt;stroke-linejoin:miter;stroke:rgb(0%,0%,0%);stroke-opacity:1;stroke-miterlimit:4;" d="M 406.598958 278.197917 L 426.302083 251.901042 " transform="matrix(0.75,0,0,0.75,0,0)"/>
<path style="fill:none;stroke-width:2;stroke-linecap:butt;stroke-linejoin:miter;stroke:rgb(0%,0%,0%);stroke-opacity:1;stroke-miterlimit:4;" d="M 433.098958 252.802083 L 417.5 216.302083 " transform="matrix(0.75,0,0,0.75,0,0)"/>
<path style="fill:none;stroke-width:2;stroke-linecap:butt;stroke-linejoin:miter;stroke:rgb(0%,0%,0%);stroke-opacity:1;stroke-miterlimit:4;" d="M 417.5 216.302083 L 400.598958 212.5 " transform="matrix(0.75,0,0,0.75,0,0)"/>
<path style="fill:none;stroke-width:2;stroke-linecap:butt;stroke-linejoin:miter;stroke:rgb(80%,80%,0%);stroke-opacity:1;stroke-miterlimit:4;" d="M 400.598958 212.5 L 383.697917 208.598958 " transform="matrix(0.75,0,0,0.75,0,0)"/>
<path style="fill:none;stroke-width:2;stroke-linecap:butt;stroke-linejoin:miter;stroke:rgb(80%,80%,0%);stroke-opacity:1;stroke-miterlimit:4;" d="M 378.197917 200.598958 L 376.697917 184.302083 " transform="matrix(0.75,0,0,0.75,0,0)"/>
<path style="fill:none;stroke-width:2;stroke-linecap:butt;stroke-linejoin:miter;stroke:rgb(0%,0%,0%);stroke-opacity:1;stroke-miterlimit:4;" d="M 376.697917 184.302083 L 375.197917 168 " transform="matrix(0.75,0,0,0.75,0,0)"/>
<path style="fill:none;stroke-width:2;stroke-linecap:butt;stroke-linejoin:miter;stroke:rgb(0%,0%,0%);stroke-opacity:1;stroke-miterlimit:4;" d="M 375.197917 168 L 390.598958 161.401042 " transform="matrix(0.75,0,0,0.75,0,0)"/>
<path style="fill:none;stroke-width:2;stroke-linecap:butt;stroke-linejoin:miter;stroke:rgb(0%,0%,100%);stroke-opacity:1;stroke-miterlimit:4;" d="M 390.598958 161.401042 L 406.098958 154.802083 " transform="matrix(0.75,0,0,0.75,0,0)"/>
<path style="fill:none;stroke-width:2;stroke-linecap:butt;stroke-linejoin:miter;stroke:rgb(0%,0%,0%);stroke-opacity:1;stroke-miterlimit:4;" d="M 381.5 171.802083 L 395 166 " transform="matrix(0.75,0,0,0.75,0,0)"/>
<path style="fill:none;stroke-width:2;stroke-linecap:butt;stroke-linejoin:miter;stroke:rgb(0%,0%,100%);stroke-opacity:1;stroke-miterlimit:4;" d="M 395 166 L 408.401042 160.302083 " transform="matrix(0.75,0,0,0.75,0,0)"/>
<path style="fill:none;stroke-width:2;stroke-linecap:butt;stroke-linejoin:miter;stroke:rgb(0%,0%,100%);stroke-opacity:1;stroke-miterlimit:4;" d="M 417.197917 158.802083 L 427.5 170.5 " transform="matrix(0.75,0,0,0.75,0,0)"/>
<path style="fill:none;stroke-width:2;stroke-linecap:butt;stroke-linejoin:miter;stroke:rgb(0%,0%,0%);stroke-opacity:1;stroke-miterlimit:4;" d="M 427.5 170.5 L 437.802083 182.197917 " transform="matrix(0.75,0,0,0.75,0,0)"/>
<path style="fill:none;stroke-width:2;stroke-linecap:butt;stroke-linejoin:miter;stroke:rgb(0%,0%,0%);stroke-opacity:1;stroke-miterlimit:4;" d="M 437.802083 182.197917 L 477.302083 178.598958 " transform="matrix(0.75,0,0,0.75,0,0)"/>
<path style="fill:none;stroke-width:2;stroke-linecap:butt;stroke-linejoin:miter;stroke:rgb(0%,0%,0%);stroke-opacity:1;stroke-miterlimit:4;" d="M 370 279.802083 L 354.302083 243.401042 " transform="matrix(0.75,0,0,0.75,0,0)"/>
<path style="fill:none;stroke-width:2;stroke-linecap:butt;stroke-linejoin:miter;stroke:rgb(0%,0%,0%);stroke-opacity:1;stroke-miterlimit:4;" d="M 354.302083 243.401042 L 337.098958 241.302083 " transform="matrix(0.75,0,0,0.75,0,0)"/>
<path style="fill:none;stroke-width:2;stroke-linecap:butt;stroke-linejoin:miter;stroke:rgb(80%,80%,0%);stroke-opacity:1;stroke-miterlimit:4;" d="M 337.098958 241.302083 L 319.901042 239.302083 " transform="matrix(0.75,0,0,0.75,0,0)"/>
<path style="fill:none;stroke-width:2;stroke-linecap:butt;stroke-linejoin:miter;stroke:rgb(80%,80%,0%);stroke-opacity:1;stroke-miterlimit:4;" d="M 310 245.302083 L 300.598958 257.901042 " transform="matrix(0.75,0,0,0.75,0,0)"/>
<path style="fill:none;stroke-width:2;stroke-linecap:butt;stroke-linejoin:miter;stroke:rgb(0%,0%,0%);stroke-opacity:1;stroke-miterlimit:4;" d="M 300.598958 257.901042 L 291.197917 270.5 " transform="matrix(0.75,0,0,0.75,0,0)"/>
<path style="fill:none;stroke-width:2;stroke-linecap:butt;stroke-linejoin:miter;stroke:rgb(0%,0%,0%);stroke-opacity:1;stroke-miterlimit:4;" d="M 175.401042 217.401042 L 144.302083 241.901042 " transform="matrix(0.75,0,0,0.75,0,0)"/>
<path style="fill:none;stroke-width:2;stroke-linecap:butt;stroke-linejoin:miter;stroke:rgb(0%,0%,0%);stroke-opacity:1;stroke-miterlimit:4;" d="M 144.302083 241.901042 L 145.802083 281.5 " transform="matrix(0.75,0,0,0.75,0,0)"/>
<path style="fill:none;stroke-width:2;stroke-linecap:butt;stroke-linejoin:miter;stroke:rgb(0%,0%,0%);stroke-opacity:1;stroke-miterlimit:4;" d="M 138.5 246.5 L 139.697917 277.5 " transform="matrix(0.75,0,0,0.75,0,0)"/>
<path style="fill:none;stroke-width:2;stroke-linecap:butt;stroke-linejoin:miter;stroke:rgb(0%,0%,0%);stroke-opacity:1;stroke-miterlimit:4;" d="M 145.802083 281.5 L 129.598958 287.5 " transform="matrix(0.75,0,0,0.75,0,0)"/>
<path style="fill:none;stroke-width:2;stroke-linecap:butt;stroke-linejoin:miter;stroke:rgb(80%,80%,0%);stroke-opacity:1;stroke-miterlimit:4;" d="M 129.598958 287.5 L 113.5 293.401042 " transform="matrix(0.75,0,0,0.75,0,0)"/>
<path style="fill:none;stroke-width:2;stroke-linecap:butt;stroke-linejoin:miter;stroke:rgb(80%,80%,0%);stroke-opacity:1;stroke-miterlimit:4;" d="M 103.697917 289 L 93.802083 276.5 " transform="matrix(0.75,0,0,0.75,0,0)"/>
<path style="fill:none;stroke-width:2;stroke-linecap:butt;stroke-linejoin:miter;stroke:rgb(0%,0%,0%);stroke-opacity:1;stroke-miterlimit:4;" d="M 93.802083 276.5 L 84 264.098958 " transform="matrix(0.75,0,0,0.75,0,0)"/>
<path style="fill:none;stroke-width:2;stroke-linecap:butt;stroke-linejoin:miter;stroke:rgb(0%,0%,0%);stroke-opacity:1;stroke-miterlimit:4;" d="M 84 264.098958 L 67 264.697917 " transform="matrix(0.75,0,0,0.75,0,0)"/>
<path style="fill:none;stroke-width:2;stroke-linecap:butt;stroke-linejoin:miter;stroke:rgb(0%,0%,100%);stroke-opacity:1;stroke-miterlimit:4;" d="M 67 264.697917 L 50 265.401042 " transform="matrix(0.75,0,0,0.75,0,0)"/>
<path style="fill:none;stroke-width:2;stroke-linecap:butt;stroke-linejoin:miter;stroke:rgb(0%,0%,0%);stroke-opacity:1;stroke-miterlimit:4;" d="M 84 264.098958 L 92.802083 251.098958 " transform="matrix(0.75,0,0,0.75,0,0)"/>
<path style="fill:none;stroke-width:2;stroke-linecap:butt;stroke-linejoin:miter;stroke:rgb(0%,0%,100%);stroke-opacity:1;stroke-miterlimit:4;" d="M 92.802083 251.098958 L 101.5 238 " transform="matrix(0.75,0,0,0.75,0,0)"/>
<path style="fill:none;stroke-width:2;stroke-linecap:butt;stroke-linejoin:miter;stroke:rgb(0%,0%,0%);stroke-opacity:1;stroke-miterlimit:4;" d="M 91.401042 263.802083 L 98.901042 252.598958 " transform="matrix(0.75,0,0,0.75,0,0)"/>
<path style="fill:none;stroke-width:2;stroke-linecap:butt;stroke-linejoin:miter;stroke:rgb(0%,0%,100%);stroke-opacity:1;stroke-miterlimit:4;" d="M 98.901042 252.598958 L 106.401042 241.401042 " transform="matrix(0.75,0,0,0.75,0,0)"/>
<path style="fill:none;stroke-width:2;stroke-linecap:butt;stroke-linejoin:miter;stroke:rgb(0%,0%,0%);stroke-opacity:1;stroke-miterlimit:4;" d="M 291.197917 270.5 L 254.697917 286.098958 " transform="matrix(0.75,0,0,0.75,0,0)"/>
<path style="fill:none;stroke-width:2;stroke-linecap:butt;stroke-linejoin:miter;stroke:rgb(0%,0%,100%);stroke-opacity:1;stroke-miterlimit:4;" d="M 111.697917 232.697917 L 128 237.302083 " transform="matrix(0.75,0,0,0.75,0,0)"/>
<path style="fill:none;stroke-width:2;stroke-linecap:butt;stroke-linejoin:miter;stroke:rgb(0%,0%,0%);stroke-opacity:1;stroke-miterlimit:4;" d="M 128 237.302083 L 144.302083 241.901042 " transform="matrix(0.75,0,0,0.75,0,0)"/>
<path style="fill:none;stroke-width:2;stroke-linecap:butt;stroke-linejoin:miter;stroke:rgb(0%,0%,0%);stroke-opacity:1;stroke-miterlimit:4;" d="M 291.197917 270.5 L 297.5 285.197917 " transform="matrix(0.75,0,0,0.75,0,0)"/>
<path style="fill:none;stroke-width:2;stroke-linecap:butt;stroke-linejoin:miter;stroke:rgb(0%,0%,100%);stroke-opacity:1;stroke-miterlimit:4;" d="M 297.5 285.197917 L 303.901042 300 " transform="matrix(0.75,0,0,0.75,0,0)"/>
<path style="fill:none;stroke-width:2;stroke-linecap:butt;stroke-linejoin:miter;stroke:rgb(0%,0%,0%);stroke-opacity:1;stroke-miterlimit:4;" d="M 437.802083 182.197917 L 417.5 216.302083 " transform="matrix(0.75,0,0,0.75,0,0)"/>
<path style="fill:none;stroke-width:2;stroke-linecap:butt;stroke-linejoin:miter;stroke:rgb(0%,0%,0%);stroke-opacity:1;stroke-miterlimit:4;" d="M 430.5 182.901042 L 414.598958 209.5 " transform="matrix(0.75,0,0,0.75,0,0)"/>
<path style="fill:none;stroke-width:1;stroke-linecap:butt;stroke-linejoin:miter;stroke:rgb(0%,0%,0%);stroke-opacity:1;stroke-miterlimit:4;" d="M 288.598958 267.802083 L 289.197917 267.401042 " transform="matrix(0.75,0,0,0.75,0,0)"/>
<path style="fill:none;stroke-width:1;stroke-linecap:butt;stroke-linejoin:miter;stroke:rgb(0%,0%,0%);stroke-opacity:1;stroke-miterlimit:4;" d="M 286.098958 265.197917 L 287.302083 264.302083 " transform="matrix(0.75,0,0,0.75,0,0)"/>
<path style="fill:none;stroke-width:1;stroke-linecap:butt;stroke-linejoin:miter;stroke:rgb(0%,0%,0%);stroke-opacity:1;stroke-miterlimit:4;" d="M 283.598958 262.5 L 285.302083 261.197917 " transform="matrix(0.75,0,0,0.75,0,0)"/>
<path style="fill:none;stroke-width:1;stroke-linecap:butt;stroke-linejoin:miter;stroke:rgb(0%,0%,0%);stroke-opacity:1;stroke-miterlimit:4;" d="M 281 259.901042 L 283.302083 258.098958 " transform="matrix(0.75,0,0,0.75,0,0)"/>
<path style="fill:none;stroke-width:1;stroke-linecap:butt;stroke-linejoin:miter;stroke:rgb(0%,0%,0%);stroke-opacity:1;stroke-miterlimit:4;" d="M 278.5 257.302083 L 281.401042 255 " transform="matrix(0.75,0,0,0.75,0,0)"/>
<path style="fill:none;stroke-width:1;stroke-linecap:butt;stroke-linejoin:miter;stroke:rgb(0%,0%,0%);stroke-opacity:1;stroke-miterlimit:4;" d="M 275.901042 254.598958 L 279.401042 251.901042 " transform="matrix(0.75,0,0,0.75,0,0)"/>
<path style="fill:none;stroke-width:1;stroke-linecap:butt;stroke-linejoin:miter;stroke:rgb(0%,0%,0%);stroke-opacity:1;stroke-miterlimit:4;" d="M 273.401042 252 L 277.401042 248.802083 " transform="matrix(0.75,0,0,0.75,0,0)"/>
<path style="fill:none;stroke-width:1;stroke-linecap:butt;stroke-linejoin:miter;stroke:rgb(0%,0%,0%);stroke-opacity:1;stroke-miterlimit:4;" d="M 270.802083 249.401042 L 275.5 245.697917 " transform="matrix(0.75,0,0,0.75,0,0)"/>
<path style="fill:none;stroke-width:2;stroke-linecap:butt;stroke-linejoin:miter;stroke:rgb(0%,0%,0%);stroke-opacity:1;stroke-miterlimit:4;" d="M 210.401042 231.401042 L 212.302083 232.098958 L 212.401042 232.901042 " transform="matrix(0.75,0,0,0.75,0,0)"/>
<path style="fill:none;stroke-width:2;stroke-linecap:butt;stroke-linejoin:miter;stroke:rgb(0%,0%,0%);stroke-opacity:1;stroke-miterlimit:4;" d="M 255.5 287.901042 L 254.697917 286.098958 L 256.598958 285.302083 " transform="matrix(0.75,0,0,0.75,0,0)"/>
<path style="fill:none;stroke-width:2;stroke-linecap:butt;stroke-linejoin:miter;stroke:rgb(0%,0%,0%);stroke-opacity:1;stroke-miterlimit:4;" d="M 269.598958 320.697917 L 270.401042 322.5 L 271.098958 322.197917 " transform="matrix(0.75,0,0,0.75,0,0)"/>
<path style="fill:none;stroke-width:2;stroke-linecap:butt;stroke-linejoin:miter;stroke:rgb(0%,0%,0%);stroke-opacity:1;stroke-miterlimit:4;" d="M 361.098958 346.197917 L 361.802083 348 L 361.401042 348.697917 " transform="matrix(0.75,0,0,0.75,0,0)"/>
<path style="fill:none;stroke-width:2;stroke-linecap:butt;stroke-linejoin:miter;stroke:rgb(0%,0%,0%);stroke-opacity:1;stroke-miterlimit:4;" d="M 407.401042 284.302083 L 409.302083 284.5 L 410.5 282.901042 " transform="matrix(0.75,0,0,0.75,0,0)"/>
<path style="fill:none;stroke-width:2;stroke-linecap:butt;stroke-linejoin:miter;stroke:rgb(0%,0%,0%);stroke-opacity:1;stroke-miterlimit:4;" d="M 431.901042 254.302083 L 433.098958 252.802083 L 432.302083 250.901042 " transform="matrix(0.75,0,0,0.75,0,0)"/>
<path style="fill:none;stroke-width:2;stroke-linecap:butt;stroke-linejoin:miter;stroke:rgb(0%,0%,0%);stroke-opacity:1;stroke-miterlimit:4;" d="M 375.302083 168.802083 L 375.197917 168 L 376 167.697917 " transform="matrix(0.75,0,0,0.75,0,0)"/>
<path style="fill:none;stroke-width:2;stroke-linecap:butt;stroke-linejoin:miter;stroke:rgb(0%,0%,0%);stroke-opacity:1;stroke-miterlimit:4;" d="M 355.098958 245.197917 L 354.302083 243.401042 L 353.5 243.302083 " transform="matrix(0.75,0,0,0.75,0,0)"/>
<path style="fill:none;stroke-width:2;stroke-linecap:butt;stroke-linejoin:miter;stroke:rgb(0%,0%,0%);stroke-opacity:1;stroke-miterlimit:4;" d="M 145.697917 279.598958 L 145.802083 281.5 L 145 281.802083 " transform="matrix(0.75,0,0,0.75,0,0)"/>
<path style=" stroke:none;fill-rule:nonzero;fill:rgb(100%,0%,0%);fill-opacity:1;" d="M 146.851562 115.199219 C 146.851562 113.851562 147.175781 112.800781 147.824219 112.050781 C 148.476562 111.300781 149.425781 110.925781 150.675781 110.925781 C 151.925781 110.925781 152.898438 111.300781 153.601562 112.050781 C 154.25 112.800781 154.574219 113.851562 154.574219 115.199219 C 154.574219 116.601562 154.226562 117.675781 153.523438 118.425781 C 152.875 119.175781 151.925781 119.550781 150.675781 119.550781 C 149.476562 119.550781 148.523438 119.175781 147.824219 118.425781 C 147.175781 117.675781 146.851562 116.601562 146.851562 115.199219 M 150.675781 118.648438 C 151.523438 118.648438 152.199219 118.351562 152.699219 117.75 C 153.148438 117.199219 153.375 116.351562 153.375 115.199219 C 153.375 114.101562 153.148438 113.273438 152.699219 112.726562 C 152.199219 112.175781 151.523438 111.898438 150.675781 111.898438 C 149.824219 111.898438 149.175781 112.175781 148.726562 112.726562 C 148.273438 113.273438 148.050781 114.101562 148.050781 115.199219 C 148.050781 116.351562 148.273438 117.199219 148.726562 117.75 C 149.175781 118.351562 149.824219 118.648438 150.675781 118.648438 "/>
<path style=" stroke:none;fill-rule:nonzero;fill:rgb(0%,0%,100%);fill-opacity:1;" d="M 125.476562 129.375 L 128.25 133.875 C 128.398438 134.125 128.625 134.523438 128.925781 135.074219 C 129.226562 135.625 129.375 135.898438 129.375 135.898438 L 129.375 129.375 L 130.5 129.375 L 130.5 137.773438 L 129.375 137.773438 L 126.375 132.898438 C 126.175781 132.550781 125.949219 132.148438 125.699219 131.699219 C 125.449219 131.25 125.300781 130.976562 125.25 130.875 L 125.25 137.773438 L 124.125 137.773438 L 124.125 129.375 L 125.476562 129.375 "/>
<path style=" stroke:none;fill-rule:nonzero;fill:rgb(100%,0%,0%);fill-opacity:1;" d="M 178.726562 155.699219 C 178.726562 154.351562 179.050781 153.300781 179.699219 152.550781 C 180.351562 151.800781 181.300781 151.425781 182.550781 151.425781 C 183.800781 151.425781 184.75 151.800781 185.398438 152.550781 C 186.101562 153.300781 186.449219 154.351562 186.449219 155.699219 C 186.449219 157.050781 186.101562 158.125 185.398438 158.925781 C 184.75 159.675781 183.800781 160.050781 182.550781 160.050781 C 181.300781 160.050781 180.351562 159.675781 179.699219 158.925781 C 179.050781 158.125 178.726562 157.050781 178.726562 155.699219 M 182.550781 159.148438 C 183.398438 159.148438 184.074219 158.851562 184.574219 158.25 C 185.023438 157.699219 185.25 156.851562 185.25 155.699219 C 185.25 154.601562 185.023438 153.773438 184.574219 153.226562 C 184.074219 152.675781 183.398438 152.398438 182.550781 152.398438 C 181.699219 152.398438 181.050781 152.675781 180.601562 153.226562 C 180.101562 153.773438 179.851562 154.601562 179.851562 155.699219 C 179.851562 156.851562 180.101562 157.699219 180.601562 158.25 C 181.050781 158.851562 181.699219 159.148438 182.550781 159.148438 "/>
<path style=" stroke:none;fill-rule:nonzero;fill:rgb(0%,0%,100%);fill-opacity:1;" d="M 152.023438 199.273438 L 153.148438 199.273438 L 153.148438 202.875 L 157.425781 202.875 L 157.425781 199.273438 L 158.550781 199.273438 L 158.550781 207.75 L 157.425781 207.75 L 157.425781 203.851562 L 153.148438 203.851562 L 153.148438 207.75 L 152.023438 207.75 L 152.023438 199.273438 "/>
<path style=" stroke:none;fill-rule:nonzero;fill:rgb(0%,0%,100%);fill-opacity:1;" d="M 161.550781 199.273438 L 164.324219 203.773438 C 164.523438 204.074219 164.773438 204.476562 165.074219 204.976562 C 165.375 205.523438 165.523438 205.824219 165.523438 205.875 L 165.523438 199.273438 L 166.648438 199.273438 L 166.648438 207.75 L 165.449219 207.75 L 162.523438 202.875 C 162.273438 202.476562 162.023438 202.050781 161.773438 201.601562 C 161.574219 201.199219 161.425781 200.925781 161.324219 200.773438 L 161.324219 207.75 L 160.273438 207.75 L 160.273438 199.273438 L 161.550781 199.273438 "/>
<path style=" stroke:none;fill-rule:nonzero;fill:rgb(100%,0%,0%);fill-opacity:1;" d="M 187.875 269.550781 C 187.875 268.199219 188.199219 267.148438 188.851562 266.398438 C 189.550781 265.648438 190.523438 265.273438 191.773438 265.273438 C 192.976562 265.273438 193.925781 265.648438 194.625 266.398438 C 195.273438 267.148438 195.601562 268.199219 195.601562 269.550781 C 195.601562 270.898438 195.273438 271.976562 194.625 272.773438 C 193.925781 273.523438 192.976562 273.898438 191.773438 273.898438 C 190.523438 273.898438 189.550781 273.523438 188.851562 272.773438 C 188.199219 271.976562 187.875 270.898438 187.875 269.550781 M 191.773438 272.925781 C 192.625 272.925781 193.273438 272.648438 193.726562 272.101562 C 194.175781 271.5 194.398438 270.648438 194.398438 269.550781 C 194.398438 268.449219 194.175781 267.625 193.726562 267.074219 C 193.273438 266.523438 192.625 266.25 191.773438 266.25 C 190.875 266.25 190.199219 266.523438 189.75 267.074219 C 189.300781 267.625 189.074219 268.449219 189.074219 269.550781 C 189.074219 270.699219 189.300781 271.550781 189.75 272.101562 C 190.199219 272.648438 190.875 272.925781 191.773438 272.925781 "/>
<path style=" stroke:none;fill-rule:nonzero;fill:rgb(0%,0%,100%);fill-opacity:1;" d="M 228.226562 225.976562 L 231 230.398438 C 231.199219 230.699219 231.449219 231.125 231.75 231.675781 C 232.050781 232.226562 232.199219 232.5 232.199219 232.5 L 232.199219 225.976562 L 233.324219 225.976562 L 233.324219 234.375 L 232.125 234.375 L 229.199219 229.5 C 228.949219 229.148438 228.699219 228.75 228.449219 228.300781 C 228.25 227.851562 228.101562 227.550781 228 227.398438 L 228 234.375 L 226.949219 234.375 L 226.949219 225.976562 L 228.226562 225.976562 "/>
<path style=" stroke:none;fill-rule:nonzero;fill:rgb(100%,0%,0%);fill-opacity:1;" d="M 297.074219 264.601562 C 297.074219 263.25 297.398438 262.199219 298.050781 261.449219 C 298.699219 260.699219 299.648438 260.324219 300.898438 260.324219 C 302.148438 260.324219 303.125 260.699219 303.824219 261.449219 C 304.476562 262.199219 304.800781 263.25 304.800781 264.601562 C 304.800781 265.949219 304.449219 267.023438 303.75 267.824219 C 303.101562 268.574219 302.148438 268.949219 300.898438 268.949219 C 299.699219 268.949219 298.75 268.574219 298.050781 267.824219 C 297.398438 267.023438 297.074219 265.949219 297.074219 264.601562 M 300.898438 267.976562 C 301.75 267.976562 302.425781 267.699219 302.925781 267.148438 C 303.375 266.550781 303.601562 265.699219 303.601562 264.601562 C 303.601562 263.5 303.375 262.675781 302.925781 262.125 C 302.425781 261.523438 301.75 261.226562 300.898438 261.226562 C 300.050781 261.226562 299.398438 261.5 298.949219 262.050781 C 298.5 262.601562 298.273438 263.449219 298.273438 264.601562 C 298.273438 265.699219 298.5 266.550781 298.949219 267.148438 C 299.398438 267.699219 300.050781 267.976562 300.898438 267.976562 "/>
<path style=" stroke:none;fill-rule:nonzero;fill:rgb(100%,0%,0%);fill-opacity:1;" d="M 241.351562 280.726562 L 242.550781 280.726562 L 242.550781 284.25 L 246.824219 284.25 L 246.824219 280.726562 L 247.949219 280.726562 L 247.949219 289.125 L 246.824219 289.125 L 246.824219 285.226562 L 242.550781 285.226562 L 242.550781 289.125 L 241.351562 289.125 L 241.351562 280.726562 "/>
<path style=" stroke:none;fill-rule:nonzero;fill:rgb(100%,0%,0%);fill-opacity:1;" d="M 249.675781 284.851562 C 249.675781 283.5 250.023438 282.449219 250.726562 281.699219 C 251.375 280.949219 252.324219 280.574219 253.574219 280.574219 C 254.824219 280.574219 255.773438 280.949219 256.425781 281.699219 C 257.074219 282.449219 257.398438 283.5 257.398438 284.851562 C 257.398438 286.25 257.074219 287.324219 256.425781 288.074219 C 255.726562 288.875 254.773438 289.273438 253.574219 289.273438 C 252.324219 289.273438 251.375 288.875 250.726562 288.074219 C 250.023438 287.324219 249.675781 286.25 249.675781 284.851562 M 253.574219 288.300781 C 254.425781 288.300781 255.074219 288.023438 255.523438 287.476562 C 256.023438 286.875 256.273438 286 256.273438 284.851562 C 256.273438 283.75 256.023438 282.925781 255.523438 282.375 C 255.074219 281.824219 254.425781 281.550781 253.574219 281.550781 C 252.726562 281.550781 252.050781 281.824219 251.550781 282.375 C 251.101562 282.925781 250.875 283.75 250.875 284.851562 C 250.875 286 251.101562 286.875 251.550781 287.476562 C 252.050781 288.023438 252.726562 288.300781 253.574219 288.300781 "/>
<path style=" stroke:none;fill-rule:nonzero;fill:rgb(80%,80%,0%);fill-opacity:1;" d="M 281.699219 158.550781 C 281.75 158.550781 281.925781 158.625 282.226562 158.773438 C 282.476562 158.875 282.75 158.949219 283.050781 159 C 283.351562 159.050781 283.625 159.074219 283.875 159.074219 C 284.425781 159.074219 284.851562 158.949219 285.148438 158.699219 C 285.449219 158.449219 285.601562 158.101562 285.601562 157.648438 C 285.601562 157.351562 285.523438 157.101562 285.375 156.898438 C 285.226562 156.699219 285.023438 156.550781 284.773438 156.449219 C 284.574219 156.351562 284.273438 156.25 283.875 156.148438 C 283.375 156 282.976562 155.851562 282.675781 155.699219 C 282.375 155.550781 282.101562 155.324219 281.851562 155.023438 C 281.648438 154.726562 281.550781 154.324219 281.550781 153.824219 C 281.550781 153.125 281.800781 152.550781 282.300781 152.101562 C 282.800781 151.648438 283.523438 151.425781 284.476562 151.425781 C 285.125 151.425781 285.800781 151.574219 286.5 151.875 L 286.273438 152.851562 C 285.574219 152.550781 284.976562 152.398438 284.476562 152.398438 C 283.925781 152.398438 283.5 152.523438 283.199219 152.773438 C 282.898438 152.976562 282.75 153.273438 282.75 153.675781 C 282.75 153.976562 282.824219 154.226562 282.976562 154.425781 C 283.125 154.574219 283.324219 154.699219 283.574219 154.800781 C 283.773438 154.898438 284.074219 155.023438 284.476562 155.175781 C 284.976562 155.324219 285.375 155.476562 285.675781 155.625 C 285.976562 155.773438 286.25 156.023438 286.5 156.375 C 286.699219 156.675781 286.800781 157.101562 286.800781 157.648438 C 286.800781 158.449219 286.523438 159.050781 285.976562 159.449219 C 285.476562 159.851562 284.800781 160.050781 283.949219 160.050781 C 283.449219 160.050781 283 160 282.601562 159.898438 C 282.25 159.800781 281.851562 159.648438 281.398438 159.449219 L 281.699219 158.550781 "/>
<path style=" stroke:none;fill-rule:nonzero;fill:rgb(0%,0%,100%);fill-opacity:1;" d="M 306.898438 110.101562 L 309.601562 114.523438 C 309.800781 114.824219 310.050781 115.25 310.351562 115.800781 C 310.648438 116.300781 310.800781 116.574219 310.800781 116.625 L 310.800781 110.101562 L 311.925781 110.101562 L 311.925781 118.5 L 310.800781 118.5 L 307.800781 113.625 C 307.601562 113.226562 307.375 112.824219 307.125 112.425781 C 306.875 111.976562 306.699219 111.675781 306.601562 111.523438 L 306.601562 118.5 L 305.550781 118.5 L 305.550781 110.101562 L 306.898438 110.101562 "/>
<path style=" stroke:none;fill-rule:nonzero;fill:rgb(80%,80%,0%);fill-opacity:1;" d="M 233.851562 181.875 C 233.898438 181.925781 234.050781 182 234.300781 182.101562 C 234.601562 182.199219 234.875 182.300781 235.125 182.398438 C 235.425781 182.449219 235.726562 182.476562 236.023438 182.476562 C 236.523438 182.476562 236.949219 182.351562 237.300781 182.101562 C 237.601562 181.851562 237.75 181.5 237.75 181.050781 C 237.75 180.75 237.675781 180.5 237.523438 180.300781 C 237.375 180.101562 237.175781 179.949219 236.925781 179.851562 C 236.675781 179.75 236.351562 179.625 235.949219 179.476562 C 235.449219 179.324219 235.050781 179.199219 234.75 179.101562 C 234.449219 178.949219 234.199219 178.726562 234 178.425781 C 233.800781 178.125 233.699219 177.699219 233.699219 177.148438 C 233.699219 176.449219 233.925781 175.898438 234.375 175.5 C 234.875 175.050781 235.601562 174.824219 236.550781 174.824219 C 237.199219 174.824219 237.898438 174.976562 238.648438 175.273438 L 238.351562 176.175781 C 237.699219 175.925781 237.125 175.800781 236.625 175.800781 C 236.074219 175.800781 235.648438 175.898438 235.351562 176.101562 C 235.050781 176.351562 234.898438 176.675781 234.898438 177.074219 C 234.898438 177.375 234.976562 177.601562 235.125 177.75 C 235.273438 177.949219 235.449219 178.101562 235.648438 178.199219 C 235.898438 178.300781 236.226562 178.398438 236.625 178.5 C 237.125 178.699219 237.523438 178.875 237.824219 179.023438 C 238.125 179.175781 238.375 179.398438 238.574219 179.699219 C 238.824219 180.050781 238.949219 180.5 238.949219 181.050781 C 238.949219 181.800781 238.675781 182.398438 238.125 182.851562 C 237.625 183.25 236.925781 183.449219 236.023438 183.449219 C 235.523438 183.449219 235.101562 183.398438 234.75 183.300781 C 234.351562 183.199219 233.925781 183.050781 233.476562 182.851562 L 233.851562 181.875 "/>
<path style=" stroke:none;fill-rule:nonzero;fill:rgb(80%,80%,0%);fill-opacity:1;" d="M 79.050781 224.324219 C 79.101562 224.375 79.25 224.449219 79.5 224.550781 C 79.800781 224.648438 80.074219 224.726562 80.324219 224.773438 C 80.625 224.875 80.925781 224.925781 81.226562 224.925781 C 81.773438 224.925781 82.199219 224.800781 82.5 224.550781 C 82.800781 224.25 82.949219 223.875 82.949219 223.425781 C 82.949219 223.125 82.875 222.875 82.726562 222.675781 C 82.574219 222.476562 82.375 222.324219 82.125 222.226562 C 81.875 222.125 81.550781 222.023438 81.148438 221.925781 C 80.648438 221.773438 80.25 221.625 79.949219 221.476562 C 79.648438 221.324219 79.398438 221.101562 79.199219 220.800781 C 79 220.5 78.898438 220.101562 78.898438 219.601562 C 78.898438 218.898438 79.148438 218.324219 79.648438 217.875 C 80.101562 217.425781 80.800781 217.199219 81.75 217.199219 C 82.398438 217.199219 83.101562 217.375 83.851562 217.726562 L 83.550781 218.625 C 82.898438 218.324219 82.324219 218.175781 81.824219 218.175781 C 81.273438 218.175781 80.851562 218.300781 80.550781 218.550781 C 80.25 218.75 80.101562 219.050781 80.101562 219.449219 C 80.101562 219.75 80.175781 220 80.324219 220.199219 C 80.476562 220.351562 80.675781 220.5 80.925781 220.648438 C 81.125 220.75 81.425781 220.851562 81.824219 220.949219 C 82.324219 221.101562 82.726562 221.25 83.023438 221.398438 C 83.324219 221.550781 83.574219 221.800781 83.773438 222.148438 C 84.023438 222.449219 84.148438 222.875 84.148438 223.425781 C 84.148438 224.226562 83.875 224.824219 83.324219 225.226562 C 82.824219 225.625 82.148438 225.824219 81.300781 225.824219 C 80.800781 225.824219 80.351562 225.773438 79.949219 225.675781 C 79.601562 225.574219 79.199219 225.449219 78.75 225.300781 L 79.050781 224.324219 "/>
<path style=" stroke:none;fill-rule:nonzero;fill:rgb(0%,0%,100%);fill-opacity:1;" d="M 17.023438 195 L 18.226562 195 L 18.226562 198.601562 L 22.5 198.601562 L 22.5 195 L 23.625 195 L 23.625 203.398438 L 22.5 203.398438 L 22.5 199.5 L 18.226562 199.5 L 18.226562 203.398438 L 17.023438 203.398438 L 17.023438 195 "/>
<path style=" stroke:none;fill-rule:nonzero;fill:rgb(0%,0%,100%);fill-opacity:1;" d="M 25.273438 203.101562 C 25.425781 202.75 25.648438 202.476562 25.949219 202.273438 C 26.300781 202.074219 26.699219 201.976562 27.148438 201.976562 C 27.699219 201.976562 28.125 202.148438 28.425781 202.5 C 28.773438 202.800781 28.949219 203.199219 28.949219 203.699219 C 28.949219 204.25 28.726562 204.800781 28.273438 205.351562 C 27.875 205.851562 27.273438 206.398438 26.476562 207 L 29.023438 207 L 29.023438 207.601562 L 25.273438 207.601562 L 25.273438 207.074219 C 25.976562 206.625 26.523438 206.199219 26.925781 205.800781 C 27.324219 205.449219 27.625 205.101562 27.824219 204.75 C 28.023438 204.449219 28.125 204.125 28.125 203.773438 C 28.125 203.425781 28.050781 203.148438 27.898438 202.949219 C 27.699219 202.75 27.449219 202.648438 27.148438 202.648438 C 26.851562 202.648438 26.601562 202.699219 26.398438 202.800781 C 26.199219 202.949219 26.023438 203.148438 25.875 203.398438 L 25.273438 203.101562 "/>
<path style=" stroke:none;fill-rule:nonzero;fill:rgb(0%,0%,100%);fill-opacity:1;" d="M 31.425781 195 L 34.199219 199.425781 C 34.398438 199.726562 34.648438 200.148438 34.949219 200.699219 C 35.199219 201.25 35.351562 201.523438 35.398438 201.523438 L 35.398438 195 L 36.523438 195 L 36.523438 203.398438 L 35.324219 203.398438 L 32.398438 198.523438 C 32.148438 198.175781 31.898438 197.773438 31.648438 197.324219 C 31.398438 196.875 31.25 196.574219 31.199219 196.425781 L 31.199219 203.398438 L 30.074219 203.398438 L 30.074219 195 L 31.425781 195 "/>
<path style=" stroke:none;fill-rule:nonzero;fill:rgb(0%,0%,100%);fill-opacity:1;" d="M 77.699219 169.125 L 80.476562 173.625 C 80.675781 173.875 80.898438 174.273438 81.148438 174.824219 C 81.449219 175.375 81.625 175.648438 81.675781 175.648438 L 81.675781 169.125 L 82.800781 169.125 L 82.800781 177.523438 L 81.601562 177.523438 L 78.675781 172.648438 C 78.425781 172.300781 78.175781 171.898438 77.925781 171.449219 C 77.675781 171 77.523438 170.726562 77.476562 170.625 L 77.476562 177.523438 L 76.351562 177.523438 L 76.351562 169.125 L 77.699219 169.125 "/>
<path style=" stroke:none;fill-rule:nonzero;fill:rgb(0%,0%,0%);fill-opacity:1;" d="M 196.726562 175.273438 L 197.851562 175.273438 L 197.851562 178.800781 L 202.125 178.800781 L 202.125 175.273438 L 203.324219 175.273438 L 203.324219 183.675781 L 202.125 183.675781 L 202.125 179.773438 L 197.851562 179.773438 L 197.851562 183.675781 L 196.726562 183.675781 L 196.726562 175.273438 "/>
</g>
</svg>
