<?xml version="1.0" encoding="UTF-8"?>
<svg xmlns="http://www.w3.org/2000/svg" xmlns:xlink="http://www.w3.org/1999/xlink" width="375pt" height="375pt" viewBox="0 0 375 375" version="1.1">
<g id="surface1">
<rect x="0" y="0" width="375" height="375" style="fill:rgb(100%,100%,100%);fill-opacity:1;stroke:none;"/>
<path style="fill:none;stroke-width:2;stroke-linecap:butt;stroke-linejoin:miter;stroke:rgb(0%,0%,100%);stroke-opacity:1;stroke-miterlimit:4;" d="M 91.5 87.5 L 103.901042 99 " transform="matrix(0.75,0,0,0.75,0,0)"/>
<path style="fill:none;stroke-width:2;stroke-linecap:butt;stroke-linejoin:miter;stroke:rgb(0%,0%,0%);stroke-opacity:1;stroke-miterlimit:4;" d="M 103.901042 99 L 116.401042 110.401042 " transform="matrix(0.75,0,0,0.75,0,0)"/>
<path style="fill:none;stroke-width:2;stroke-linecap:butt;stroke-linejoin:miter;stroke:rgb(0%,0%,0%);stroke-opacity:1;stroke-miterlimit:4;" d="M 116.401042 110.401042 L 107.197917 151.197917 " transform="matrix(0.75,0,0,0.75,0,0)"/>
<path style="fill:none;stroke-width:2;stroke-linecap:butt;stroke-linejoin:miter;stroke:rgb(0%,0%,0%);stroke-opacity:1;stroke-miterlimit:4;" d="M 107.197917 151.197917 L 138 179.598958 " transform="matrix(0.75,0,0,0.75,0,0)"/>
<path style="fill:none;stroke-width:1;stroke-linecap:butt;stroke-linejoin:miter;stroke:rgb(0%,0%,0%);stroke-opacity:1;stroke-miterlimit:4;" d="M 141.401042 178.098958 L 141.598958 178.802083 " transform="matrix(0.75,0,0,0.75,0,0)"/>
<path style="fill:none;stroke-width:1;stroke-linecap:butt;stroke-linejoin:miter;stroke:rgb(0%,0%,0%);stroke-opacity:1;stroke-miterlimit:4;" d="M 144.901042 176.697917 L 145.302083 178 " transform="matrix(0.75,0,0,0.75,0,0)"/>
<path style="fill:none;stroke-width:1;stroke-linecap:butt;stroke-linejoin:miter;stroke:rgb(0%,0%,0%);stroke-opacity:1;stroke-miterlimit:4;" d="M 148.302083 175.302083 L 148.901042 177.302083 " transform="matrix(0.75,0,0,0.75,0,0)"/>
<path style="fill:none;stroke-width:1;stroke-linecap:butt;stroke-linejoin:miter;stroke:rgb(0%,0%,0%);stroke-opacity:1;stroke-miterlimit:4;" d="M 151.697917 173.802083 L 152.5 176.5 " transform="matrix(0.75,0,0,0.75,0,0)"/>
<path style="fill:none;stroke-width:1;stroke-linecap:butt;stroke-linejoin:miter;stroke:rgb(100%,0%,0%);stroke-opacity:1;stroke-miterlimit:4;" d="M 155.098958 172.401042 L 156.197917 175.697917 " transform="matrix(0.75,0,0,0.75,0,0)"/>
<path style="fill:none;stroke-width:1;stroke-linecap:butt;stroke-linejoin:miter;stroke:rgb(100%,0%,0%);stroke-opacity:1;stroke-miterlimit:4;" d="M 158.5 171 L 159.802083 175 " transform="matrix(0.75,0,0,0.75,0,0)"/>
<path style="fill:none;stroke-width:1;stroke-linecap:butt;stroke-linejoin:miter;stroke:rgb(100%,0%,0%);stroke-opacity:1;stroke-miterlimit:4;" d="M 162 169.5 L 163.401042 174.197917 " transform="matrix(0.75,0,0,0.75,0,0)"/>
<path style="fill:none;stroke-width:1;stroke-linecap:butt;stroke-linejoin:miter;stroke:rgb(100%,0%,0%);stroke-opacity:1;stroke-miterlimit:4;" d="M 165.401042 168.098958 L 167 173.401042 " transform="matrix(0.75,0,0,0.75,0,0)"/>
<path style="fill:none;stroke-width:1;stroke-linecap:butt;stroke-linejoin:miter;stroke:rgb(100%,0%,0%);stroke-opacity:1;stroke-miterlimit:4;" d="M 168.802083 166.697917 L 170.697917 172.598958 " transform="matrix(0.75,0,0,0.75,0,0)"/>
<path style="fill:none;stroke-width:2;stroke-linecap:butt;stroke-linejoin:miter;stroke:rgb(0%,0%,0%);stroke-opacity:1;stroke-miterlimit:4;" d="M 138 179.598958 L 128.901042 220.401042 " transform="matrix(0.75,0,0,0.75,0,0)"/>
<path style="fill:none;stroke-width:2;stroke-linecap:butt;stroke-linejoin:miter;stroke:rgb(0%,0%,0%);stroke-opacity:1;stroke-miterlimit:4;" d="M 129.697917 216.901042 L 112.197917 222.302083 " transform="matrix(0.75,0,0,0.75,0,0)"/>
<path style="fill:none;stroke-width:2;stroke-linecap:butt;stroke-linejoin:miter;stroke:rgb(100%,0%,0%);stroke-opacity:1;stroke-miterlimit:4;" d="M 112.197917 222.302083 L 94.802083 227.697917 " transform="matrix(0.75,0,0,0.75,0,0)"/>
<path style="fill:none;stroke-width:2;stroke-linecap:butt;stroke-linejoin:miter;stroke:rgb(0%,0%,0%);stroke-opacity:1;stroke-miterlimit:4;" d="M 131.5 222.802083 L 114.098958 228.302083 " transform="matrix(0.75,0,0,0.75,0,0)"/>
<path style="fill:none;stroke-width:2;stroke-linecap:butt;stroke-linejoin:miter;stroke:rgb(100%,0%,0%);stroke-opacity:1;stroke-miterlimit:4;" d="M 114.098958 228.302083 L 96.697917 233.697917 " transform="matrix(0.75,0,0,0.75,0,0)"/>
<path style="fill:none;stroke-width:2;stroke-linecap:butt;stroke-linejoin:miter;stroke:rgb(0%,0%,0%);stroke-opacity:1;stroke-miterlimit:4;" d="M 128.901042 220.401042 L 141.302083 231.901042 " transform="matrix(0.75,0,0,0.75,0,0)"/>
<path style="fill:none;stroke-width:2;stroke-linecap:butt;stroke-linejoin:miter;stroke:rgb(0%,0%,100%);stroke-opacity:1;stroke-miterlimit:4;" d="M 141.302083 231.901042 L 153.802083 243.302083 " transform="matrix(0.75,0,0,0.75,0,0)"/>
<path style="fill:none;stroke-width:1;stroke-linecap:butt;stroke-linejoin:miter;stroke:rgb(0%,0%,0%);stroke-opacity:1;stroke-miterlimit:4;" d="M 196.197917 236.901042 L 196.401042 237.598958 " transform="matrix(0.75,0,0,0.75,0,0)"/>
<path style="fill:none;stroke-width:1;stroke-linecap:butt;stroke-linejoin:miter;stroke:rgb(0%,0%,0%);stroke-opacity:1;stroke-miterlimit:4;" d="M 192.802083 237.598958 L 193.197917 238.901042 " transform="matrix(0.75,0,0,0.75,0,0)"/>
<path style="fill:none;stroke-width:1;stroke-linecap:butt;stroke-linejoin:miter;stroke:rgb(0%,0%,0%);stroke-opacity:1;stroke-miterlimit:4;" d="M 189.5 238.302083 L 190.098958 240.302083 " transform="matrix(0.75,0,0,0.75,0,0)"/>
<path style="fill:none;stroke-width:1;stroke-linecap:butt;stroke-linejoin:miter;stroke:rgb(0%,0%,0%);stroke-opacity:1;stroke-miterlimit:4;" d="M 186.098958 239 L 186.901042 241.598958 " transform="matrix(0.75,0,0,0.75,0,0)"/>
<path style="fill:none;stroke-width:1;stroke-linecap:butt;stroke-linejoin:miter;stroke:rgb(0%,0%,0%);stroke-opacity:1;stroke-miterlimit:4;" d="M 182.697917 239.697917 L 183.802083 243 " transform="matrix(0.75,0,0,0.75,0,0)"/>
<path style="fill:none;stroke-width:1;stroke-linecap:butt;stroke-linejoin:miter;stroke:rgb(0%,0%,100%);stroke-opacity:1;stroke-miterlimit:4;" d="M 179.401042 240.401042 L 180.598958 244.401042 " transform="matrix(0.75,0,0,0.75,0,0)"/>
<path style="fill:none;stroke-width:1;stroke-linecap:butt;stroke-linejoin:miter;stroke:rgb(0%,0%,100%);stroke-opacity:1;stroke-miterlimit:4;" d="M 176 241.098958 L 177.401042 245.697917 " transform="matrix(0.75,0,0,0.75,0,0)"/>
<path style="fill:none;stroke-width:1;stroke-linecap:butt;stroke-linejoin:miter;stroke:rgb(0%,0%,100%);stroke-opacity:1;stroke-miterlimit:4;" d="M 172.598958 241.697917 L 174.302083 247.098958 " transform="matrix(0.75,0,0,0.75,0,0)"/>
<path style="fill:none;stroke-width:1;stroke-linecap:butt;stroke-linejoin:miter;stroke:rgb(0%,0%,100%);stroke-opacity:1;stroke-miterlimit:4;" d="M 169.197917 242.401042 L 171.098958 248.401042 " transform="matrix(0.75,0,0,0.75,0,0)"/>
<path style="fill:none;stroke-width:2;stroke-linecap:butt;stroke-linejoin:miter;stroke:rgb(0%,0%,0%);stroke-opacity:1;stroke-miterlimit:4;" d="M 199.598958 236.197917 L 208.697917 195.401042 " transform="matrix(0.75,0,0,0.75,0,0)"/>
<path style="fill:none;stroke-width:2;stroke-linecap:butt;stroke-linejoin:miter;stroke:rgb(0%,0%,0%);stroke-opacity:1;stroke-miterlimit:4;" d="M 208.697917 195.401042 L 248.598958 182.901042 " transform="matrix(0.75,0,0,0.75,0,0)"/>
<path style="fill:none;stroke-width:1;stroke-linecap:butt;stroke-linejoin:miter;stroke:rgb(0%,0%,0%);stroke-opacity:1;stroke-miterlimit:4;" d="M 249.098958 179.302083 L 249.802083 179.401042 " transform="matrix(0.75,0,0,0.75,0,0)"/>
<path style="fill:none;stroke-width:1;stroke-linecap:butt;stroke-linejoin:miter;stroke:rgb(0%,0%,0%);stroke-opacity:1;stroke-miterlimit:4;" d="M 249.598958 175.598958 L 250.901042 175.901042 " transform="matrix(0.75,0,0,0.75,0,0)"/>
<path style="fill:none;stroke-width:1;stroke-linecap:butt;stroke-linejoin:miter;stroke:rgb(0%,0%,0%);stroke-opacity:1;stroke-miterlimit:4;" d="M 250 172 L 252.098958 172.5 " transform="matrix(0.75,0,0,0.75,0,0)"/>
<path style="fill:none;stroke-width:1;stroke-linecap:butt;stroke-linejoin:miter;stroke:rgb(0%,0%,0%);stroke-opacity:1;stroke-miterlimit:4;" d="M 250.5 168.401042 L 253.197917 169 " transform="matrix(0.75,0,0,0.75,0,0)"/>
<path style="fill:none;stroke-width:1;stroke-linecap:butt;stroke-linejoin:miter;stroke:rgb(0%,0%,100%);stroke-opacity:1;stroke-miterlimit:4;" d="M 250.901042 164.697917 L 254.302083 165.5 " transform="matrix(0.75,0,0,0.75,0,0)"/>
<path style="fill:none;stroke-width:1;stroke-linecap:butt;stroke-linejoin:miter;stroke:rgb(0%,0%,100%);stroke-opacity:1;stroke-miterlimit:4;" d="M 251.401042 161.098958 L 255.5 162 " transform="matrix(0.75,0,0,0.75,0,0)"/>
<path style="fill:none;stroke-width:1;stroke-linecap:butt;stroke-linejoin:miter;stroke:rgb(0%,0%,100%);stroke-opacity:1;stroke-miterlimit:4;" d="M 251.901042 157.401042 L 256.598958 158.5 " transform="matrix(0.75,0,0,0.75,0,0)"/>
<path style="fill:none;stroke-width:1;stroke-linecap:butt;stroke-linejoin:miter;stroke:rgb(0%,0%,100%);stroke-opacity:1;stroke-miterlimit:4;" d="M 252.302083 153.802083 L 257.802083 155 " transform="matrix(0.75,0,0,0.75,0,0)"/>
<path style="fill:none;stroke-width:1;stroke-linecap:butt;stroke-linejoin:miter;stroke:rgb(0%,0%,100%);stroke-opacity:1;stroke-miterlimit:4;" d="M 252.802083 150.098958 L 258.901042 151.5 " transform="matrix(0.75,0,0,0.75,0,0)"/>
<path style="fill:none;stroke-width:2;stroke-linecap:butt;stroke-linejoin:miter;stroke:rgb(0%,0%,0%);stroke-opacity:1;stroke-miterlimit:4;" d="M 248.598958 182.901042 L 279.401042 211.302083 " transform="matrix(0.75,0,0,0.75,0,0)"/>
<path style="fill-rule:evenodd;fill:rgb(0%,0%,0%);fill-opacity:1;stroke-width:0.5;stroke-linecap:butt;stroke-linejoin:miter;stroke:rgb(0%,0%,0%);stroke-opacity:1;stroke-miterlimit:4;" d="M 279.401042 211.302083 L 294.802083 204.802083 L 295.697917 207.802083 Z M 279.401042 211.302083 " transform="matrix(0.75,0,0,0.75,0,0)"/>
<path style="fill-rule:evenodd;fill:rgb(100%,0%,0%);fill-opacity:1;stroke-width:0.5;stroke-linecap:butt;stroke-linejoin:miter;stroke:rgb(100%,0%,0%);stroke-opacity:1;stroke-miterlimit:4;" d="M 294.802083 204.802083 L 312.098958 204.302083 L 310.197917 198.401042 Z M 294.802083 204.802083 " transform="matrix(0.75,0,0,0.75,0,0)"/>
<path style="fill-rule:evenodd;fill:rgb(100%,0%,0%);fill-opacity:1;stroke-width:0.5;stroke-linecap:butt;stroke-linejoin:miter;stroke:rgb(100%,0%,0%);stroke-opacity:1;stroke-miterlimit:4;" d="M 294.802083 204.802083 L 295.697917 207.802083 L 312.098958 204.302083 Z M 294.802083 204.802083 " transform="matrix(0.75,0,0,0.75,0,0)"/>
<path style="fill:none;stroke-width:1;stroke-linecap:butt;stroke-linejoin:miter;stroke:rgb(0%,0%,0%);stroke-opacity:1;stroke-miterlimit:4;" d="M 347.901042 224.5 L 347.302083 225.098958 " transform="matrix(0.75,0,0,0.75,0,0)"/>
<path style="fill:none;stroke-width:1;stroke-linecap:butt;stroke-linejoin:miter;stroke:rgb(0%,0%,0%);stroke-opacity:1;stroke-miterlimit:4;" d="M 345.598958 221.901042 L 344.598958 223.098958 " transform="matrix(0.75,0,0,0.75,0,0)"/>
<path style="fill:none;stroke-width:1;stroke-linecap:butt;stroke-linejoin:miter;stroke:rgb(0%,0%,0%);stroke-opacity:1;stroke-miterlimit:4;" d="M 343.401042 219.302083 L 341.802083 221.098958 " transform="matrix(0.75,0,0,0.75,0,0)"/>
<path style="fill:none;stroke-width:1;stroke-linecap:butt;stroke-linejoin:miter;stroke:rgb(0%,0%,0%);stroke-opacity:1;stroke-miterlimit:4;" d="M 341.098958 216.697917 L 339 219 " transform="matrix(0.75,0,0,0.75,0,0)"/>
<path style="fill:none;stroke-width:1;stroke-linecap:butt;stroke-linejoin:miter;stroke:rgb(100%,0%,0%);stroke-opacity:1;stroke-miterlimit:4;" d="M 338.901042 214.098958 L 336.302083 217 " transform="matrix(0.75,0,0,0.75,0,0)"/>
<path style="fill:none;stroke-width:1;stroke-linecap:butt;stroke-linejoin:miter;stroke:rgb(100%,0%,0%);stroke-opacity:1;stroke-miterlimit:4;" d="M 336.697917 211.598958 L 333.5 215 " transform="matrix(0.75,0,0,0.75,0,0)"/>
<path style="fill:none;stroke-width:1;stroke-linecap:butt;stroke-linejoin:miter;stroke:rgb(100%,0%,0%);stroke-opacity:1;stroke-miterlimit:4;" d="M 334.401042 209 L 330.697917 213 " transform="matrix(0.75,0,0,0.75,0,0)"/>
<path style="fill:none;stroke-width:1;stroke-linecap:butt;stroke-linejoin:miter;stroke:rgb(100%,0%,0%);stroke-opacity:1;stroke-miterlimit:4;" d="M 332.197917 206.401042 L 327.901042 211 " transform="matrix(0.75,0,0,0.75,0,0)"/>
<path style="fill:none;stroke-width:2;stroke-linecap:butt;stroke-linejoin:miter;stroke:rgb(0%,0%,0%);stroke-opacity:1;stroke-miterlimit:4;" d="M 350.098958 227.098958 L 346.401042 243.802083 " transform="matrix(0.75,0,0,0.75,0,0)"/>
<path style="fill:none;stroke-width:2;stroke-linecap:butt;stroke-linejoin:miter;stroke:rgb(100%,0%,0%);stroke-opacity:1;stroke-miterlimit:4;" d="M 346.401042 243.802083 L 342.598958 260.598958 " transform="matrix(0.75,0,0,0.75,0,0)"/>
<path style="fill:none;stroke-width:2;stroke-linecap:butt;stroke-linejoin:miter;stroke:rgb(100%,0%,0%);stroke-opacity:1;stroke-miterlimit:4;" d="M 347.802083 274.197917 L 359.697917 285.197917 " transform="matrix(0.75,0,0,0.75,0,0)"/>
<path style="fill:none;stroke-width:2;stroke-linecap:butt;stroke-linejoin:miter;stroke:rgb(0%,0%,0%);stroke-opacity:1;stroke-miterlimit:4;" d="M 359.697917 285.197917 L 371.697917 296.302083 " transform="matrix(0.75,0,0,0.75,0,0)"/>
<path style="fill-rule:evenodd;fill:rgb(0%,0%,0%);fill-opacity:1;stroke-width:0.5;stroke-linecap:butt;stroke-linejoin:miter;stroke:rgb(0%,0%,0%);stroke-opacity:1;stroke-miterlimit:4;" d="M 371.697917 296.302083 L 365.401042 339.598958 L 360 334.697917 Z M 371.697917 296.302083 " transform="matrix(0.75,0,0,0.75,0,0)"/>
<path style="fill:none;stroke-width:2;stroke-linecap:butt;stroke-linejoin:miter;stroke:rgb(0%,0%,0%);stroke-opacity:1;stroke-miterlimit:4;" d="M 360 334.697917 L 375 348.5 " transform="matrix(0.75,0,0,0.75,0,0)"/>
<path style="fill:none;stroke-width:2;stroke-linecap:butt;stroke-linejoin:miter;stroke:rgb(0%,0%,100%);stroke-opacity:1;stroke-miterlimit:4;" d="M 375 348.5 L 387.5 360 " transform="matrix(0.75,0,0,0.75,0,0)"/>
<path style="fill:none;stroke-width:2;stroke-linecap:butt;stroke-linejoin:miter;stroke:rgb(0%,0%,0%);stroke-opacity:1;stroke-miterlimit:4;" d="M 371.697917 296.302083 L 411.598958 283.802083 " transform="matrix(0.75,0,0,0.75,0,0)"/>
<path style="fill:none;stroke-width:1;stroke-linecap:butt;stroke-linejoin:miter;stroke:rgb(0%,0%,0%);stroke-opacity:1;stroke-miterlimit:4;" d="M 414.401042 285.802083 L 413.901042 286.302083 " transform="matrix(0.75,0,0,0.75,0,0)"/>
<path style="fill:none;stroke-width:1;stroke-linecap:butt;stroke-linejoin:miter;stroke:rgb(0%,0%,0%);stroke-opacity:1;stroke-miterlimit:4;" d="M 417.098958 287.901042 L 416.197917 288.901042 " transform="matrix(0.75,0,0,0.75,0,0)"/>
<path style="fill:none;stroke-width:1;stroke-linecap:butt;stroke-linejoin:miter;stroke:rgb(0%,0%,0%);stroke-opacity:1;stroke-miterlimit:4;" d="M 419.901042 289.901042 L 418.5 291.5 " transform="matrix(0.75,0,0,0.75,0,0)"/>
<path style="fill:none;stroke-width:1;stroke-linecap:butt;stroke-linejoin:miter;stroke:rgb(0%,0%,0%);stroke-opacity:1;stroke-miterlimit:4;" d="M 422.598958 292 L 420.697917 294 " transform="matrix(0.75,0,0,0.75,0,0)"/>
<path style="fill:none;stroke-width:1;stroke-linecap:butt;stroke-linejoin:miter;stroke:rgb(100%,0%,0%);stroke-opacity:1;stroke-miterlimit:4;" d="M 425.401042 294 L 423 296.598958 " transform="matrix(0.75,0,0,0.75,0,0)"/>
<path style="fill:none;stroke-width:1;stroke-linecap:butt;stroke-linejoin:miter;stroke:rgb(100%,0%,0%);stroke-opacity:1;stroke-miterlimit:4;" d="M 428.098958 296.098958 L 425.302083 299.197917 " transform="matrix(0.75,0,0,0.75,0,0)"/>
<path style="fill:none;stroke-width:1;stroke-linecap:butt;stroke-linejoin:miter;stroke:rgb(100%,0%,0%);stroke-opacity:1;stroke-miterlimit:4;" d="M 430.901042 298.197917 L 427.598958 301.697917 " transform="matrix(0.75,0,0,0.75,0,0)"/>
<path style="fill:none;stroke-width:1;stroke-linecap:butt;stroke-linejoin:miter;stroke:rgb(100%,0%,0%);stroke-opacity:1;stroke-miterlimit:4;" d="M 433.598958 300.197917 L 429.802083 304.302083 " transform="matrix(0.75,0,0,0.75,0,0)"/>
<path style="fill:none;stroke-width:1;stroke-linecap:butt;stroke-linejoin:miter;stroke:rgb(100%,0%,0%);stroke-opacity:1;stroke-miterlimit:4;" d="M 436.302083 302.302083 L 432.098958 306.901042 " transform="matrix(0.75,0,0,0.75,0,0)"/>
<path style="fill:none;stroke-width:2;stroke-linecap:butt;stroke-linejoin:miter;stroke:rgb(0%,0%,0%);stroke-opacity:1;stroke-miterlimit:4;" d="M 411.598958 283.802083 L 420.802083 243 " transform="matrix(0.75,0,0,0.75,0,0)"/>
<path style="fill-rule:evenodd;fill:rgb(0%,0%,0%);fill-opacity:1;stroke-width:0.5;stroke-linecap:butt;stroke-linejoin:miter;stroke:rgb(0%,0%,0%);stroke-opacity:1;stroke-miterlimit:4;" d="M 420.802083 243 L 436.197917 236.5 L 437.098958 239.5 Z M 420.802083 243 " transform="matrix(0.75,0,0,0.75,0,0)"/>
<path style="fill-rule:evenodd;fill:rgb(100%,0%,0%);fill-opacity:1;stroke-width:0.5;stroke-linecap:butt;stroke-linejoin:miter;stroke:rgb(100%,0%,0%);stroke-opacity:1;stroke-miterlimit:4;" d="M 436.197917 236.5 L 453.5 236 L 451.598958 230.098958 Z M 436.197917 236.5 " transform="matrix(0.75,0,0,0.75,0,0)"/>
<path style="fill-rule:evenodd;fill:rgb(100%,0%,0%);fill-opacity:1;stroke-width:0.5;stroke-linecap:butt;stroke-linejoin:miter;stroke:rgb(100%,0%,0%);stroke-opacity:1;stroke-miterlimit:4;" d="M 436.197917 236.5 L 437.098958 239.5 L 453.5 236 Z M 436.197917 236.5 " transform="matrix(0.75,0,0,0.75,0,0)"/>
<path style="fill:none;stroke-width:2;stroke-linecap:butt;stroke-linejoin:miter;stroke:rgb(0%,0%,0%);stroke-opacity:1;stroke-miterlimit:4;" d="M 420.802083 243 L 390 214.598958 " transform="matrix(0.75,0,0,0.75,0,0)"/>
<path style="fill:none;stroke-width:1;stroke-linecap:butt;stroke-linejoin:miter;stroke:rgb(0%,0%,0%);stroke-opacity:1;stroke-miterlimit:4;" d="M 390.5 211 L 391.197917 211.197917 " transform="matrix(0.75,0,0,0.75,0,0)"/>
<path style="fill:none;stroke-width:1;stroke-linecap:butt;stroke-linejoin:miter;stroke:rgb(0%,0%,0%);stroke-opacity:1;stroke-miterlimit:4;" d="M 390.901042 207.401042 L 392.302083 207.697917 " transform="matrix(0.75,0,0,0.75,0,0)"/>
<path style="fill:none;stroke-width:1;stroke-linecap:butt;stroke-linejoin:miter;stroke:rgb(0%,0%,0%);stroke-opacity:1;stroke-miterlimit:4;" d="M 391.401042 203.802083 L 393.401042 204.197917 " transform="matrix(0.75,0,0,0.75,0,0)"/>
<path style="fill:none;stroke-width:1;stroke-linecap:butt;stroke-linejoin:miter;stroke:rgb(0%,0%,0%);stroke-opacity:1;stroke-miterlimit:4;" d="M 391.802083 200.197917 L 394.598958 200.802083 " transform="matrix(0.75,0,0,0.75,0,0)"/>
<path style="fill:none;stroke-width:1;stroke-linecap:butt;stroke-linejoin:miter;stroke:rgb(100%,0%,0%);stroke-opacity:1;stroke-miterlimit:4;" d="M 392.302083 196.5 L 395.697917 197.302083 " transform="matrix(0.75,0,0,0.75,0,0)"/>
<path style="fill:none;stroke-width:1;stroke-linecap:butt;stroke-linejoin:miter;stroke:rgb(100%,0%,0%);stroke-opacity:1;stroke-miterlimit:4;" d="M 392.697917 192.901042 L 396.802083 193.802083 " transform="matrix(0.75,0,0,0.75,0,0)"/>
<path style="fill:none;stroke-width:1;stroke-linecap:butt;stroke-linejoin:miter;stroke:rgb(100%,0%,0%);stroke-opacity:1;stroke-miterlimit:4;" d="M 393.197917 189.302083 L 398 190.401042 " transform="matrix(0.75,0,0,0.75,0,0)"/>
<path style="fill:none;stroke-width:1;stroke-linecap:butt;stroke-linejoin:miter;stroke:rgb(100%,0%,0%);stroke-opacity:1;stroke-miterlimit:4;" d="M 393.697917 185.697917 L 399.098958 186.901042 " transform="matrix(0.75,0,0,0.75,0,0)"/>
<path style="fill:none;stroke-width:1;stroke-linecap:butt;stroke-linejoin:miter;stroke:rgb(100%,0%,0%);stroke-opacity:1;stroke-miterlimit:4;" d="M 394.098958 182.098958 L 400.197917 183.401042 " transform="matrix(0.75,0,0,0.75,0,0)"/>
<path style="fill:none;stroke-width:2;stroke-linecap:butt;stroke-linejoin:miter;stroke:rgb(0%,0%,0%);stroke-opacity:1;stroke-miterlimit:4;" d="M 279.401042 211.302083 L 270.302083 252.098958 " transform="matrix(0.75,0,0,0.75,0,0)"/>
<path style="fill:none;stroke-width:1;stroke-linecap:butt;stroke-linejoin:miter;stroke:rgb(0%,0%,0%);stroke-opacity:1;stroke-miterlimit:4;" d="M 273 254.098958 L 272.5 254.697917 " transform="matrix(0.75,0,0,0.75,0,0)"/>
<path style="fill:none;stroke-width:1;stroke-linecap:butt;stroke-linejoin:miter;stroke:rgb(0%,0%,0%);stroke-opacity:1;stroke-miterlimit:4;" d="M 275.697917 256.197917 L 274.802083 257.197917 " transform="matrix(0.75,0,0,0.75,0,0)"/>
<path style="fill:none;stroke-width:1;stroke-linecap:butt;stroke-linejoin:miter;stroke:rgb(0%,0%,0%);stroke-opacity:1;stroke-miterlimit:4;" d="M 278.5 258.197917 L 277.098958 259.802083 " transform="matrix(0.75,0,0,0.75,0,0)"/>
<path style="fill:none;stroke-width:1;stroke-linecap:butt;stroke-linejoin:miter;stroke:rgb(0%,0%,0%);stroke-opacity:1;stroke-miterlimit:4;" d="M 281.197917 260.302083 L 279.302083 262.302083 " transform="matrix(0.75,0,0,0.75,0,0)"/>
<path style="fill:none;stroke-width:1;stroke-linecap:butt;stroke-linejoin:miter;stroke:rgb(100%,0%,0%);stroke-opacity:1;stroke-miterlimit:4;" d="M 284 262.401042 L 281.598958 264.901042 " transform="matrix(0.75,0,0,0.75,0,0)"/>
<path style="fill:none;stroke-width:1;stroke-linecap:butt;stroke-linejoin:miter;stroke:rgb(100%,0%,0%);stroke-opacity:1;stroke-miterlimit:4;" d="M 286.697917 264.401042 L 283.901042 267.5 " transform="matrix(0.75,0,0,0.75,0,0)"/>
<path style="fill:none;stroke-width:1;stroke-linecap:butt;stroke-linejoin:miter;stroke:rgb(100%,0%,0%);stroke-opacity:1;stroke-miterlimit:4;" d="M 289.5 266.5 L 286.197917 270 " transform="matrix(0.75,0,0,0.75,0,0)"/>
<path style="fill:none;stroke-width:1;stroke-linecap:butt;stroke-linejoin:miter;stroke:rgb(100%,0%,0%);stroke-opacity:1;stroke-miterlimit:4;" d="M 292.197917 268.5 L 288.401042 272.598958 " transform="matrix(0.75,0,0,0.75,0,0)"/>
<path style="fill:none;stroke-width:1;stroke-linecap:butt;stroke-linejoin:miter;stroke:rgb(100%,0%,0%);stroke-opacity:1;stroke-miterlimit:4;" d="M 295 270.598958 L 290.697917 275.197917 " transform="matrix(0.75,0,0,0.75,0,0)"/>
<path style="fill:none;stroke-width:2;stroke-linecap:butt;stroke-linejoin:miter;stroke:rgb(0%,0%,0%);stroke-opacity:1;stroke-miterlimit:4;" d="M 270.302083 252.098958 L 230.302083 264.598958 " transform="matrix(0.75,0,0,0.75,0,0)"/>
<path style="fill-rule:evenodd;fill:rgb(0%,0%,0%);fill-opacity:1;stroke-width:0.5;stroke-linecap:butt;stroke-linejoin:miter;stroke:rgb(0%,0%,0%);stroke-opacity:1;stroke-miterlimit:4;" d="M 230.302083 264.598958 L 228.302083 280.901042 L 225.197917 280.302083 Z M 230.302083 264.598958 " transform="matrix(0.75,0,0,0.75,0,0)"/>
<path style="fill-rule:evenodd;fill:rgb(100%,0%,0%);fill-opacity:1;stroke-width:0.5;stroke-linecap:butt;stroke-linejoin:miter;stroke:rgb(100%,0%,0%);stroke-opacity:1;stroke-miterlimit:4;" d="M 228.302083 280.901042 L 220.098958 295.901042 L 226.197917 297.302083 Z M 228.302083 280.901042 " transform="matrix(0.75,0,0,0.75,0,0)"/>
<path style="fill-rule:evenodd;fill:rgb(100%,0%,0%);fill-opacity:1;stroke-width:0.5;stroke-linecap:butt;stroke-linejoin:miter;stroke:rgb(100%,0%,0%);stroke-opacity:1;stroke-miterlimit:4;" d="M 228.302083 280.901042 L 225.197917 280.302083 L 220.098958 295.901042 Z M 228.302083 280.901042 " transform="matrix(0.75,0,0,0.75,0,0)"/>
<path style="fill:none;stroke-width:1;stroke-linecap:butt;stroke-linejoin:miter;stroke:rgb(0%,0%,0%);stroke-opacity:1;stroke-miterlimit:4;" d="M 184.901042 317.098958 L 184.697917 316.401042 " transform="matrix(0.75,0,0,0.75,0,0)"/>
<path style="fill:none;stroke-width:1;stroke-linecap:butt;stroke-linejoin:miter;stroke:rgb(0%,0%,0%);stroke-opacity:1;stroke-miterlimit:4;" d="M 188.5 316.401042 L 188.098958 314.901042 " transform="matrix(0.75,0,0,0.75,0,0)"/>
<path style="fill:none;stroke-width:1;stroke-linecap:butt;stroke-linejoin:miter;stroke:rgb(0%,0%,0%);stroke-opacity:1;stroke-miterlimit:4;" d="M 192.197917 315.697917 L 191.5 313.401042 " transform="matrix(0.75,0,0,0.75,0,0)"/>
<path style="fill:none;stroke-width:1;stroke-linecap:butt;stroke-linejoin:miter;stroke:rgb(0%,0%,0%);stroke-opacity:1;stroke-miterlimit:4;" d="M 195.802083 315 L 194.901042 312 " transform="matrix(0.75,0,0,0.75,0,0)"/>
<path style="fill:none;stroke-width:1;stroke-linecap:butt;stroke-linejoin:miter;stroke:rgb(100%,0%,0%);stroke-opacity:1;stroke-miterlimit:4;" d="M 199.401042 314.197917 L 198.302083 310.5 " transform="matrix(0.75,0,0,0.75,0,0)"/>
<path style="fill:none;stroke-width:1;stroke-linecap:butt;stroke-linejoin:miter;stroke:rgb(100%,0%,0%);stroke-opacity:1;stroke-miterlimit:4;" d="M 203.098958 313.5 L 201.697917 309 " transform="matrix(0.75,0,0,0.75,0,0)"/>
<path style="fill:none;stroke-width:1;stroke-linecap:butt;stroke-linejoin:miter;stroke:rgb(100%,0%,0%);stroke-opacity:1;stroke-miterlimit:4;" d="M 206.697917 312.802083 L 205.098958 307.5 " transform="matrix(0.75,0,0,0.75,0,0)"/>
<path style="fill:none;stroke-width:1;stroke-linecap:butt;stroke-linejoin:miter;stroke:rgb(100%,0%,0%);stroke-opacity:1;stroke-miterlimit:4;" d="M 210.401042 312.098958 L 208.5 306.098958 " transform="matrix(0.75,0,0,0.75,0,0)"/>
<path style="fill:none;stroke-width:2;stroke-linecap:butt;stroke-linejoin:miter;stroke:rgb(0%,0%,0%);stroke-opacity:1;stroke-miterlimit:4;" d="M 181.302083 317.901042 L 169.302083 306.802083 " transform="matrix(0.75,0,0,0.75,0,0)"/>
<path style="fill:none;stroke-width:2;stroke-linecap:butt;stroke-linejoin:miter;stroke:rgb(100%,0%,0%);stroke-opacity:1;stroke-miterlimit:4;" d="M 169.302083 306.802083 L 157.302083 295.802083 " transform="matrix(0.75,0,0,0.75,0,0)"/>
<path style="fill:none;stroke-width:2;stroke-linecap:butt;stroke-linejoin:miter;stroke:rgb(100%,0%,0%);stroke-opacity:1;stroke-miterlimit:4;" d="M 143.697917 291.697917 L 127.098958 296.802083 " transform="matrix(0.75,0,0,0.75,0,0)"/>
<path style="fill:none;stroke-width:2;stroke-linecap:butt;stroke-linejoin:miter;stroke:rgb(0%,0%,0%);stroke-opacity:1;stroke-miterlimit:4;" d="M 127.098958 296.802083 L 110.598958 302 " transform="matrix(0.75,0,0,0.75,0,0)"/>
<path style="fill-rule:evenodd;fill:rgb(0%,0%,0%);fill-opacity:1;stroke-width:0.5;stroke-linecap:butt;stroke-linejoin:miter;stroke:rgb(0%,0%,0%);stroke-opacity:1;stroke-miterlimit:4;" d="M 110.598958 302 L 76.197917 274.802083 L 83.098958 272.697917 Z M 110.598958 302 " transform="matrix(0.75,0,0,0.75,0,0)"/>
<path style="fill:none;stroke-width:2;stroke-linecap:butt;stroke-linejoin:miter;stroke:rgb(0%,0%,0%);stroke-opacity:1;stroke-miterlimit:4;" d="M 83.098958 272.697917 L 63.197917 278.901042 " transform="matrix(0.75,0,0,0.75,0,0)"/>
<path style="fill:none;stroke-width:2;stroke-linecap:butt;stroke-linejoin:miter;stroke:rgb(100%,0%,0%);stroke-opacity:1;stroke-miterlimit:4;" d="M 63.197917 278.901042 L 46.697917 284 " transform="matrix(0.75,0,0,0.75,0,0)"/>
<path style="fill:none;stroke-width:2;stroke-linecap:butt;stroke-linejoin:miter;stroke:rgb(0%,0%,0%);stroke-opacity:1;stroke-miterlimit:4;" d="M 110.598958 302 L 101.401042 342.802083 " transform="matrix(0.75,0,0,0.75,0,0)"/>
<path style="fill:none;stroke-width:1;stroke-linecap:butt;stroke-linejoin:miter;stroke:rgb(0%,0%,0%);stroke-opacity:1;stroke-miterlimit:4;" d="M 98 344.302083 L 97.802083 343.598958 " transform="matrix(0.75,0,0,0.75,0,0)"/>
<path style="fill:none;stroke-width:1;stroke-linecap:butt;stroke-linejoin:miter;stroke:rgb(0%,0%,0%);stroke-opacity:1;stroke-miterlimit:4;" d="M 94.598958 345.697917 L 94.197917 344.401042 " transform="matrix(0.75,0,0,0.75,0,0)"/>
<path style="fill:none;stroke-width:1;stroke-linecap:butt;stroke-linejoin:miter;stroke:rgb(0%,0%,0%);stroke-opacity:1;stroke-miterlimit:4;" d="M 91.098958 347.098958 L 90.5 345.098958 " transform="matrix(0.75,0,0,0.75,0,0)"/>
<path style="fill:none;stroke-width:1;stroke-linecap:butt;stroke-linejoin:miter;stroke:rgb(0%,0%,0%);stroke-opacity:1;stroke-miterlimit:4;" d="M 87.697917 348.598958 L 86.901042 345.901042 " transform="matrix(0.75,0,0,0.75,0,0)"/>
<path style="fill:none;stroke-width:1;stroke-linecap:butt;stroke-linejoin:miter;stroke:rgb(100%,0%,0%);stroke-opacity:1;stroke-miterlimit:4;" d="M 84.302083 350 L 83.302083 346.697917 " transform="matrix(0.75,0,0,0.75,0,0)"/>
<path style="fill:none;stroke-width:1;stroke-linecap:butt;stroke-linejoin:miter;stroke:rgb(100%,0%,0%);stroke-opacity:1;stroke-miterlimit:4;" d="M 80.901042 351.401042 L 79.598958 347.5 " transform="matrix(0.75,0,0,0.75,0,0)"/>
<path style="fill:none;stroke-width:1;stroke-linecap:butt;stroke-linejoin:miter;stroke:rgb(100%,0%,0%);stroke-opacity:1;stroke-miterlimit:4;" d="M 77.5 352.901042 L 76 348.197917 " transform="matrix(0.75,0,0,0.75,0,0)"/>
<path style="fill:none;stroke-width:1;stroke-linecap:butt;stroke-linejoin:miter;stroke:rgb(100%,0%,0%);stroke-opacity:1;stroke-miterlimit:4;" d="M 74 354.302083 L 72.401042 349 " transform="matrix(0.75,0,0,0.75,0,0)"/>
<path style="fill:none;stroke-width:1;stroke-linecap:butt;stroke-linejoin:miter;stroke:rgb(100%,0%,0%);stroke-opacity:1;stroke-miterlimit:4;" d="M 70.598958 355.802083 L 68.697917 349.802083 " transform="matrix(0.75,0,0,0.75,0,0)"/>
<path style="fill:none;stroke-width:2;stroke-linecap:butt;stroke-linejoin:miter;stroke:rgb(0%,0%,0%);stroke-opacity:1;stroke-miterlimit:4;" d="M 101.401042 342.802083 L 132.197917 371.197917 " transform="matrix(0.75,0,0,0.75,0,0)"/>
<path style="fill-rule:evenodd;fill:rgb(0%,0%,0%);fill-opacity:1;stroke-width:0.5;stroke-linecap:butt;stroke-linejoin:miter;stroke:rgb(0%,0%,0%);stroke-opacity:1;stroke-miterlimit:4;" d="M 132.197917 371.197917 L 130.098958 387.598958 L 127.098958 386.901042 Z M 132.197917 371.197917 " transform="matrix(0.75,0,0,0.75,0,0)"/>
<path style="fill-rule:evenodd;fill:rgb(0%,0%,100%);fill-opacity:1;stroke-width:0.5;stroke-linecap:butt;stroke-linejoin:miter;stroke:rgb(0%,0%,100%);stroke-opacity:1;stroke-miterlimit:4;" d="M 130.098958 387.598958 L 121.901042 402.598958 L 128 404 Z M 130.098958 387.598958 " transform="matrix(0.75,0,0,0.75,0,0)"/>
<path style="fill-rule:evenodd;fill:rgb(0%,0%,100%);fill-opacity:1;stroke-width:0.5;stroke-linecap:butt;stroke-linejoin:miter;stroke:rgb(0%,0%,100%);stroke-opacity:1;stroke-miterlimit:4;" d="M 130.098958 387.598958 L 127.098958 386.901042 L 121.901042 402.598958 Z M 130.098958 387.598958 " transform="matrix(0.75,0,0,0.75,0,0)"/>
<path style="fill:none;stroke-width:2;stroke-linecap:butt;stroke-linejoin:miter;stroke:rgb(0%,0%,0%);stroke-opacity:1;stroke-miterlimit:4;" d="M 132.197917 371.197917 L 172.098958 358.697917 " transform="matrix(0.75,0,0,0.75,0,0)"/>
<path style="fill:none;stroke-width:1;stroke-linecap:butt;stroke-linejoin:miter;stroke:rgb(0%,0%,0%);stroke-opacity:1;stroke-miterlimit:4;" d="M 174.901042 360.697917 L 174.401042 361.302083 " transform="matrix(0.75,0,0,0.75,0,0)"/>
<path style="fill:none;stroke-width:1;stroke-linecap:butt;stroke-linejoin:miter;stroke:rgb(0%,0%,0%);stroke-opacity:1;stroke-miterlimit:4;" d="M 177.598958 362.802083 L 176.697917 363.802083 " transform="matrix(0.75,0,0,0.75,0,0)"/>
<path style="fill:none;stroke-width:1;stroke-linecap:butt;stroke-linejoin:miter;stroke:rgb(0%,0%,0%);stroke-opacity:1;stroke-miterlimit:4;" d="M 180.302083 364.802083 L 178.901042 366.401042 " transform="matrix(0.75,0,0,0.75,0,0)"/>
<path style="fill:none;stroke-width:1;stroke-linecap:butt;stroke-linejoin:miter;stroke:rgb(0%,0%,0%);stroke-opacity:1;stroke-miterlimit:4;" d="M 183.098958 366.901042 L 181.197917 369 " transform="matrix(0.75,0,0,0.75,0,0)"/>
<path style="fill:none;stroke-width:1;stroke-linecap:butt;stroke-linejoin:miter;stroke:rgb(100%,0%,0%);stroke-opacity:1;stroke-miterlimit:4;" d="M 185.802083 369 L 183.5 371.5 " transform="matrix(0.75,0,0,0.75,0,0)"/>
<path style="fill:none;stroke-width:1;stroke-linecap:butt;stroke-linejoin:miter;stroke:rgb(100%,0%,0%);stroke-opacity:1;stroke-miterlimit:4;" d="M 188.598958 371 L 185.697917 374.098958 " transform="matrix(0.75,0,0,0.75,0,0)"/>
<path style="fill:none;stroke-width:1;stroke-linecap:butt;stroke-linejoin:miter;stroke:rgb(100%,0%,0%);stroke-opacity:1;stroke-miterlimit:4;" d="M 191.302083 373.098958 L 188 376.598958 " transform="matrix(0.75,0,0,0.75,0,0)"/>
<path style="fill:none;stroke-width:1;stroke-linecap:butt;stroke-linejoin:miter;stroke:rgb(100%,0%,0%);stroke-opacity:1;stroke-miterlimit:4;" d="M 194.098958 375.098958 L 190.302083 379.197917 " transform="matrix(0.75,0,0,0.75,0,0)"/>
<path style="fill:none;stroke-width:1;stroke-linecap:butt;stroke-linejoin:miter;stroke:rgb(100%,0%,0%);stroke-opacity:1;stroke-miterlimit:4;" d="M 196.802083 377.197917 L 192.598958 381.802083 " transform="matrix(0.75,0,0,0.75,0,0)"/>
<path style="fill:none;stroke-width:2;stroke-linecap:butt;stroke-linejoin:miter;stroke:rgb(0%,0%,0%);stroke-opacity:1;stroke-miterlimit:4;" d="M 230.302083 264.598958 L 199.598958 236.197917 " transform="matrix(0.75,0,0,0.75,0,0)"/>
<path style="fill:none;stroke-width:2;stroke-linecap:butt;stroke-linejoin:miter;stroke:rgb(0%,0%,0%);stroke-opacity:1;stroke-miterlimit:4;" d="M 172.098958 358.697917 L 181.302083 317.901042 " transform="matrix(0.75,0,0,0.75,0,0)"/>
<path style="fill:none;stroke-width:2;stroke-linecap:butt;stroke-linejoin:miter;stroke:rgb(0%,0%,0%);stroke-opacity:1;stroke-miterlimit:4;" d="M 390 214.598958 L 350.098958 227.098958 " transform="matrix(0.75,0,0,0.75,0,0)"/>
<path style="fill:none;stroke-width:2;stroke-linecap:butt;stroke-linejoin:miter;stroke:rgb(0%,0%,0%);stroke-opacity:1;stroke-miterlimit:4;" d="M 115.802083 109.802083 L 116.401042 110.401042 L 115.901042 112.5 " transform="matrix(0.75,0,0,0.75,0,0)"/>
<path style="fill:none;stroke-width:2;stroke-linecap:butt;stroke-linejoin:miter;stroke:rgb(0%,0%,0%);stroke-opacity:1;stroke-miterlimit:4;" d="M 107.697917 149.197917 L 107.197917 151.197917 L 108.802083 152.697917 " transform="matrix(0.75,0,0,0.75,0,0)"/>
<path style="fill:none;stroke-width:2;stroke-linecap:butt;stroke-linejoin:miter;stroke:rgb(0%,0%,0%);stroke-opacity:1;stroke-miterlimit:4;" d="M 136.5 178.197917 L 138 179.598958 L 137.598958 181.598958 " transform="matrix(0.75,0,0,0.75,0,0)"/>
<path style="fill:none;stroke-width:2;stroke-linecap:butt;stroke-linejoin:miter;stroke:rgb(0%,0%,0%);stroke-opacity:1;stroke-miterlimit:4;" d="M 129.302083 218.302083 L 128.901042 220.401042 L 129.5 221 " transform="matrix(0.75,0,0,0.75,0,0)"/>
<path style="fill:none;stroke-width:2;stroke-linecap:butt;stroke-linejoin:miter;stroke:rgb(0%,0%,0%);stroke-opacity:1;stroke-miterlimit:4;" d="M 200 234.197917 L 199.598958 236.197917 L 201.098958 237.697917 " transform="matrix(0.75,0,0,0.75,0,0)"/>
<path style="fill:none;stroke-width:2;stroke-linecap:butt;stroke-linejoin:miter;stroke:rgb(0%,0%,0%);stroke-opacity:1;stroke-miterlimit:4;" d="M 208.302083 197.5 L 208.697917 195.401042 L 210.697917 194.802083 " transform="matrix(0.75,0,0,0.75,0,0)"/>
<path style="fill:none;stroke-width:2;stroke-linecap:butt;stroke-linejoin:miter;stroke:rgb(0%,0%,0%);stroke-opacity:1;stroke-miterlimit:4;" d="M 246.598958 183.598958 L 248.598958 182.901042 L 250.197917 184.401042 " transform="matrix(0.75,0,0,0.75,0,0)"/>
<path style="fill:none;stroke-width:2;stroke-linecap:butt;stroke-linejoin:miter;stroke:rgb(0%,0%,0%);stroke-opacity:1;stroke-miterlimit:4;" d="M 277.901042 209.901042 L 279.401042 211.302083 L 278.901042 213.302083 " transform="matrix(0.75,0,0,0.75,0,0)"/>
<path style="fill:none;stroke-width:2;stroke-linecap:butt;stroke-linejoin:miter;stroke:rgb(0%,0%,0%);stroke-opacity:1;stroke-miterlimit:4;" d="M 349.901042 228 L 350.098958 227.098958 L 352.098958 226.5 " transform="matrix(0.75,0,0,0.75,0,0)"/>
<path style="fill:none;stroke-width:2;stroke-linecap:butt;stroke-linejoin:miter;stroke:rgb(0%,0%,0%);stroke-opacity:1;stroke-miterlimit:4;" d="M 371.098958 295.697917 L 371.697917 296.302083 L 373.697917 295.598958 " transform="matrix(0.75,0,0,0.75,0,0)"/>
<path style="fill:none;stroke-width:2;stroke-linecap:butt;stroke-linejoin:miter;stroke:rgb(0%,0%,0%);stroke-opacity:1;stroke-miterlimit:4;" d="M 409.697917 284.401042 L 411.598958 283.802083 L 412.098958 281.697917 " transform="matrix(0.75,0,0,0.75,0,0)"/>
<path style="fill:none;stroke-width:2;stroke-linecap:butt;stroke-linejoin:miter;stroke:rgb(0%,0%,0%);stroke-opacity:1;stroke-miterlimit:4;" d="M 420.302083 245 L 420.802083 243 L 419.302083 241.598958 " transform="matrix(0.75,0,0,0.75,0,0)"/>
<path style="fill:none;stroke-width:2;stroke-linecap:butt;stroke-linejoin:miter;stroke:rgb(0%,0%,0%);stroke-opacity:1;stroke-miterlimit:4;" d="M 391.598958 216.098958 L 390 214.598958 L 388 215.302083 " transform="matrix(0.75,0,0,0.75,0,0)"/>
<path style="fill:none;stroke-width:2;stroke-linecap:butt;stroke-linejoin:miter;stroke:rgb(0%,0%,0%);stroke-opacity:1;stroke-miterlimit:4;" d="M 270.697917 250 L 270.302083 252.098958 L 268.302083 252.697917 " transform="matrix(0.75,0,0,0.75,0,0)"/>
<path style="fill:none;stroke-width:2;stroke-linecap:butt;stroke-linejoin:miter;stroke:rgb(0%,0%,0%);stroke-opacity:1;stroke-miterlimit:4;" d="M 232.302083 263.901042 L 230.302083 264.598958 L 228.802083 263.197917 " transform="matrix(0.75,0,0,0.75,0,0)"/>
<path style="fill:none;stroke-width:2;stroke-linecap:butt;stroke-linejoin:miter;stroke:rgb(0%,0%,0%);stroke-opacity:1;stroke-miterlimit:4;" d="M 180.697917 317.302083 L 181.302083 317.901042 L 180.802083 319.901042 " transform="matrix(0.75,0,0,0.75,0,0)"/>
<path style="fill:none;stroke-width:2;stroke-linecap:butt;stroke-linejoin:miter;stroke:rgb(0%,0%,0%);stroke-opacity:1;stroke-miterlimit:4;" d="M 111.401042 301.802083 L 110.598958 302 L 110.098958 304.098958 " transform="matrix(0.75,0,0,0.75,0,0)"/>
<path style="fill:none;stroke-width:2;stroke-linecap:butt;stroke-linejoin:miter;stroke:rgb(0%,0%,0%);stroke-opacity:1;stroke-miterlimit:4;" d="M 101.901042 340.802083 L 101.401042 342.802083 L 102.901042 344.302083 " transform="matrix(0.75,0,0,0.75,0,0)"/>
<path style="fill:none;stroke-width:2;stroke-linecap:butt;stroke-linejoin:miter;stroke:rgb(0%,0%,0%);stroke-opacity:1;stroke-miterlimit:4;" d="M 130.598958 369.802083 L 132.197917 371.197917 L 134.197917 370.5 " transform="matrix(0.75,0,0,0.75,0,0)"/>
<path style="fill:none;stroke-width:2;stroke-linecap:butt;stroke-linejoin:miter;stroke:rgb(0%,0%,0%);stroke-opacity:1;stroke-miterlimit:4;" d="M 170.098958 359.302083 L 172.098958 358.697917 L 172.598958 356.598958 " transform="matrix(0.75,0,0,0.75,0,0)"/>
<path style=" stroke:none;fill-rule:nonzero;fill:rgb(0%,0%,100%);fill-opacity:1;" d="M 47.101562 57.148438 L 48.300781 57.148438 L 48.300781 60.898438 L 52.800781 60.898438 L 52.800781 57.148438 L 54 57.148438 L 54 66 L 52.800781 66 L 52.800781 61.875 L 48.300781 61.875 L 48.300781 66 L 47.101562 66 L 47.101562 57.148438 "/>
<path style=" stroke:none;fill-rule:nonzero;fill:rgb(0%,0%,100%);fill-opacity:1;" d="M 55.726562 65.699219 C 55.875 65.351562 56.125 65.050781 56.476562 64.800781 C 56.824219 64.601562 57.226562 64.5 57.675781 64.5 C 58.273438 64.5 58.75 64.675781 59.101562 65.023438 C 59.449219 65.324219 59.625 65.75 59.625 66.300781 C 59.625 66.898438 59.398438 67.476562 58.949219 68.023438 C 58.5 68.574219 57.851562 69.175781 57 69.824219 L 59.699219 69.824219 L 59.699219 70.425781 L 55.726562 70.425781 L 55.726562 69.898438 C 56.476562 69.398438 57.050781 68.949219 57.449219 68.550781 C 57.898438 68.148438 58.226562 67.773438 58.425781 67.425781 C 58.625 67.074219 58.726562 66.726562 58.726562 66.375 C 58.726562 66.023438 58.648438 65.726562 58.5 65.476562 C 58.300781 65.273438 58.023438 65.175781 57.675781 65.175781 C 57.375 65.175781 57.125 65.25 56.925781 65.398438 C 56.726562 65.5 56.550781 65.699219 56.398438 66 L 55.726562 65.699219 "/>
<path style=" stroke:none;fill-rule:nonzero;fill:rgb(0%,0%,100%);fill-opacity:1;" d="M 62.25 57.148438 L 65.175781 61.800781 C 65.375 62.148438 65.625 62.601562 65.925781 63.148438 C 66.226562 63.699219 66.375 64 66.375 64.050781 L 66.375 57.148438 L 67.574219 57.148438 L 67.574219 66 L 66.375 66 L 63.226562 60.898438 C 62.976562 60.449219 62.726562 60 62.476562 59.550781 C 62.226562 59.101562 62.074219 58.800781 62.023438 58.648438 L 62.023438 66 L 60.824219 66 L 60.824219 57.148438 L 62.25 57.148438 "/>
<path style=" stroke:none;fill-rule:nonzero;fill:rgb(100%,0%,0%);fill-opacity:1;" d="M 129.375 125.324219 C 129.375 123.925781 129.726562 122.824219 130.425781 122.023438 C 131.125 121.226562 132.125 120.824219 133.425781 120.824219 C 134.773438 120.824219 135.800781 121.226562 136.5 122.023438 C 137.199219 122.824219 137.550781 123.925781 137.550781 125.324219 C 137.550781 126.773438 137.199219 127.898438 136.5 128.699219 C 135.75 129.550781 134.726562 129.976562 133.425781 129.976562 C 132.125 129.976562 131.125 129.550781 130.425781 128.699219 C 129.726562 127.898438 129.375 126.773438 129.375 125.324219 M 133.425781 128.925781 C 134.324219 128.925781 135.023438 128.625 135.523438 128.023438 C 136.023438 127.425781 136.273438 126.523438 136.273438 125.324219 C 136.273438 124.175781 136.023438 123.300781 135.523438 122.699219 C 135.023438 122.101562 134.324219 121.800781 133.425781 121.800781 C 132.523438 121.800781 131.824219 122.101562 131.324219 122.699219 C 130.875 123.300781 130.648438 124.175781 130.648438 125.324219 C 130.648438 126.523438 130.875 127.425781 131.324219 128.023438 C 131.824219 128.625 132.523438 128.925781 133.425781 128.925781 "/>
<path style=" stroke:none;fill-rule:nonzero;fill:rgb(100%,0%,0%);fill-opacity:1;" d="M 138.898438 120.898438 L 140.101562 120.898438 L 140.101562 124.726562 L 144.675781 124.726562 L 144.675781 120.898438 L 145.875 120.898438 L 145.875 129.824219 L 144.675781 129.824219 L 144.675781 125.699219 L 140.101562 125.699219 L 140.101562 129.824219 L 138.898438 129.824219 L 138.898438 120.898438 "/>
<path style=" stroke:none;fill-rule:nonzero;fill:rgb(100%,0%,0%);fill-opacity:1;" d="M 62.625 174.675781 C 62.625 173.273438 62.976562 172.175781 63.675781 171.375 C 64.375 170.574219 65.375 170.175781 66.675781 170.175781 C 68.023438 170.175781 69.050781 170.574219 69.75 171.375 C 70.449219 172.175781 70.800781 173.273438 70.800781 174.675781 C 70.800781 176.125 70.449219 177.25 69.75 178.050781 C 69 178.851562 67.976562 179.25 66.675781 179.25 C 65.375 179.25 64.375 178.851562 63.675781 178.050781 C 62.976562 177.25 62.625 176.125 62.625 174.675781 M 66.675781 178.273438 C 67.574219 178.273438 68.273438 177.976562 68.773438 177.375 C 69.273438 176.773438 69.523438 175.875 69.523438 174.675781 C 69.523438 173.523438 69.273438 172.648438 68.773438 172.050781 C 68.273438 171.449219 67.574219 171.148438 66.675781 171.148438 C 65.773438 171.148438 65.074219 171.449219 64.574219 172.050781 C 64.125 172.648438 63.898438 173.523438 63.898438 174.675781 C 63.898438 175.875 64.125 176.773438 64.574219 177.375 C 65.074219 177.976562 65.773438 178.273438 66.675781 178.273438 "/>
<path style=" stroke:none;fill-rule:nonzero;fill:rgb(0%,0%,100%);fill-opacity:1;" d="M 117.75 182.101562 L 120.675781 186.824219 C 120.875 187.125 121.125 187.550781 121.425781 188.101562 C 121.726562 188.648438 121.898438 188.949219 121.949219 189 L 121.949219 182.101562 L 123.074219 182.101562 L 123.074219 190.949219 L 121.875 190.949219 L 118.726562 185.851562 C 118.523438 185.449219 118.273438 185.023438 117.976562 184.574219 C 117.726562 184.074219 117.574219 183.773438 117.523438 183.675781 L 117.523438 190.949219 L 116.324219 190.949219 L 116.324219 182.101562 L 117.75 182.101562 "/>
<path style=" stroke:none;fill-rule:nonzero;fill:rgb(0%,0%,100%);fill-opacity:1;" d="M 116.25 191.851562 L 117.449219 191.851562 L 117.449219 195.675781 L 122.023438 195.675781 L 122.023438 191.851562 L 123.226562 191.851562 L 123.226562 200.773438 L 122.023438 200.773438 L 122.023438 196.648438 L 117.449219 196.648438 L 117.449219 200.773438 L 116.25 200.773438 L 116.25 191.851562 "/>
<path style=" stroke:none;fill-rule:nonzero;fill:rgb(0%,0%,100%);fill-opacity:1;" d="M 191.398438 102.148438 L 194.25 106.875 C 194.449219 107.175781 194.699219 107.601562 195 108.148438 C 195.351562 108.699219 195.523438 109 195.523438 109.050781 L 195.523438 102.148438 L 196.726562 102.148438 L 196.726562 111 L 195.523438 111 L 192.375 105.898438 C 192.125 105.5 191.875 105.074219 191.625 104.625 C 191.375 104.125 191.199219 103.824219 191.101562 103.726562 L 191.101562 111 L 189.976562 111 L 189.976562 102.148438 L 191.398438 102.148438 "/>
<path style=" stroke:none;fill-rule:nonzero;fill:rgb(0%,0%,100%);fill-opacity:1;" d="M 198.375 102.148438 L 199.574219 102.148438 L 199.574219 105.898438 L 204.148438 105.898438 L 204.148438 102.148438 L 205.351562 102.148438 L 205.351562 111 L 204.148438 111 L 204.148438 106.949219 L 199.574219 106.949219 L 199.574219 111 L 198.375 111 L 198.375 102.148438 "/>
<path style=" stroke:none;fill-rule:nonzero;fill:rgb(0%,0%,100%);fill-opacity:1;" d="M 207.074219 110.699219 C 207.226562 110.351562 207.476562 110.074219 207.824219 109.875 C 208.175781 109.675781 208.574219 109.574219 209.023438 109.574219 C 209.625 109.574219 210.101562 109.726562 210.449219 110.023438 C 210.75 110.324219 210.898438 110.773438 210.898438 111.375 C 210.898438 111.925781 210.699219 112.476562 210.300781 113.023438 C 209.851562 113.574219 209.199219 114.175781 208.351562 114.824219 L 211.050781 114.824219 L 211.050781 115.5 L 207.074219 115.5 L 207.074219 114.898438 C 207.824219 114.398438 208.398438 113.949219 208.800781 113.550781 C 209.25 113.148438 209.574219 112.773438 209.773438 112.425781 C 209.976562 112.125 210.074219 111.773438 210.074219 111.375 C 210.074219 111.023438 210 110.75 209.851562 110.550781 C 209.648438 110.300781 209.375 110.175781 209.023438 110.175781 C 208.726562 110.175781 208.476562 110.25 208.273438 110.398438 C 208.074219 110.550781 207.898438 110.75 207.75 111 L 207.074219 110.699219 "/>
<path style=" stroke:none;fill-rule:nonzero;fill:rgb(100%,0%,0%);fill-opacity:1;" d="M 235.425781 149.101562 C 235.425781 147.699219 235.773438 146.601562 236.476562 145.800781 C 237.175781 145 238.175781 144.601562 239.476562 144.601562 C 240.824219 144.601562 241.851562 145 242.550781 145.800781 C 243.25 146.601562 243.601562 147.699219 243.601562 149.101562 C 243.601562 150.550781 243.226562 151.675781 242.476562 152.476562 C 241.773438 153.324219 240.773438 153.75 239.476562 153.75 C 238.175781 153.75 237.175781 153.324219 236.476562 152.476562 C 235.773438 151.675781 235.425781 150.550781 235.425781 149.101562 M 239.476562 152.699219 C 240.375 152.699219 241.074219 152.398438 241.574219 151.800781 C 242.074219 151.199219 242.324219 150.300781 242.324219 149.101562 C 242.324219 147.949219 242.074219 147.074219 241.574219 146.476562 C 241.074219 145.875 240.375 145.574219 239.476562 145.574219 C 238.574219 145.574219 237.875 145.875 237.375 146.476562 C 236.925781 147.074219 236.699219 147.949219 236.699219 149.101562 C 236.699219 150.300781 236.925781 151.199219 237.375 151.800781 C 237.875 152.398438 238.574219 152.699219 239.476562 152.699219 "/>
<path style=" stroke:none;fill-rule:nonzero;fill:rgb(100%,0%,0%);fill-opacity:1;" d="M 251.625 201 C 251.625 199.550781 251.976562 198.425781 252.675781 197.625 C 253.375 196.824219 254.398438 196.425781 255.75 196.425781 C 257.050781 196.425781 258.050781 196.824219 258.75 197.625 C 259.449219 198.425781 259.800781 199.550781 259.800781 201 C 259.800781 202.398438 259.449219 203.523438 258.75 204.375 C 258 205.175781 257 205.574219 255.75 205.574219 C 254.398438 205.574219 253.375 205.175781 252.675781 204.375 C 251.976562 203.574219 251.625 202.449219 251.625 201 M 255.75 204.601562 C 256.648438 204.601562 257.324219 204.300781 257.773438 203.699219 C 258.273438 203.050781 258.523438 202.148438 258.523438 201 C 258.523438 199.800781 258.273438 198.925781 257.773438 198.375 C 257.324219 197.773438 256.648438 197.476562 255.75 197.476562 C 254.800781 197.476562 254.101562 197.773438 253.648438 198.375 C 253.148438 198.925781 252.898438 199.800781 252.898438 201 C 252.898438 202.199219 253.148438 203.101562 253.648438 203.699219 C 254.101562 204.300781 254.800781 204.601562 255.75 204.601562 "/>
<path style=" stroke:none;fill-rule:nonzero;fill:rgb(0%,0%,100%);fill-opacity:1;" d="M 293.023438 269.625 L 295.949219 274.351562 C 296.148438 274.648438 296.398438 275.074219 296.699219 275.625 C 297 276.175781 297.175781 276.476562 297.226562 276.523438 L 297.226562 269.625 L 298.351562 269.625 L 298.351562 278.476562 L 297.148438 278.476562 L 294.074219 273.375 C 293.824219 272.976562 293.550781 272.550781 293.25 272.101562 C 293 271.601562 292.851562 271.300781 292.800781 271.199219 L 292.800781 278.476562 L 291.675781 278.476562 L 291.675781 269.625 L 293.023438 269.625 "/>
<path style=" stroke:none;fill-rule:nonzero;fill:rgb(0%,0%,100%);fill-opacity:1;" d="M 300.074219 269.625 L 301.273438 269.625 L 301.273438 273.375 L 305.851562 273.375 L 305.851562 269.625 L 307.050781 269.625 L 307.050781 278.476562 L 305.851562 278.476562 L 305.851562 274.425781 L 301.273438 274.425781 L 301.273438 278.476562 L 300.074219 278.476562 L 300.074219 269.625 "/>
<path style=" stroke:none;fill-rule:nonzero;fill:rgb(0%,0%,100%);fill-opacity:1;" d="M 308.773438 278.175781 C 308.925781 277.824219 309.175781 277.550781 309.523438 277.351562 C 309.824219 277.148438 310.226562 277.050781 310.726562 277.050781 C 311.324219 277.050781 311.773438 277.199219 312.074219 277.5 C 312.425781 277.800781 312.601562 278.25 312.601562 278.851562 C 312.601562 279.398438 312.375 279.949219 311.925781 280.5 C 311.523438 281.050781 310.875 281.648438 309.976562 282.300781 L 312.675781 282.300781 L 312.675781 282.976562 L 308.773438 282.976562 L 308.773438 282.375 C 309.476562 281.875 310.050781 281.425781 310.5 281.023438 C 310.949219 280.625 311.273438 280.25 311.476562 279.898438 C 311.675781 279.550781 311.773438 279.199219 311.773438 278.851562 C 311.773438 278.5 311.675781 278.226562 311.476562 278.023438 C 311.273438 277.773438 311.023438 277.648438 310.726562 277.648438 C 310.425781 277.648438 310.148438 277.726562 309.898438 277.875 C 309.699219 277.976562 309.523438 278.175781 309.375 278.476562 L 308.773438 278.175781 "/>
<path style=" stroke:none;fill-rule:nonzero;fill:rgb(100%,0%,0%);fill-opacity:1;" d="M 327.75 234.148438 C 327.75 232.699219 328.101562 231.574219 328.800781 230.773438 C 329.5 229.976562 330.5 229.574219 331.800781 229.574219 C 333.101562 229.574219 334.125 229.976562 334.875 230.773438 C 335.574219 231.574219 335.925781 232.699219 335.925781 234.148438 C 335.925781 235.550781 335.550781 236.675781 334.800781 237.523438 C 334.101562 238.324219 333.101562 238.726562 331.800781 238.726562 C 330.5 238.726562 329.5 238.324219 328.800781 237.523438 C 328.101562 236.675781 327.75 235.550781 327.75 234.148438 M 331.800781 237.75 C 332.699219 237.75 333.398438 237.425781 333.898438 236.773438 C 334.398438 236.175781 334.648438 235.300781 334.648438 234.148438 C 334.648438 232.949219 334.398438 232.074219 333.898438 231.523438 C 333.398438 230.925781 332.699219 230.625 331.800781 230.625 C 330.898438 230.625 330.199219 230.898438 329.699219 231.449219 C 329.25 232.050781 329.023438 232.949219 329.023438 234.148438 C 329.023438 235.300781 329.25 236.175781 329.699219 236.773438 C 330.199219 237.425781 330.898438 237.75 331.800781 237.75 "/>
<path style=" stroke:none;fill-rule:nonzero;fill:rgb(100%,0%,0%);fill-opacity:1;" d="M 337.273438 229.726562 L 338.476562 229.726562 L 338.476562 233.476562 L 343.050781 233.476562 L 343.050781 229.726562 L 344.25 229.726562 L 344.25 238.574219 L 343.050781 238.574219 L 343.050781 234.449219 L 338.476562 234.449219 L 338.476562 238.574219 L 337.273438 238.574219 L 337.273438 229.726562 "/>
<path style=" stroke:none;fill-rule:nonzero;fill:rgb(100%,0%,0%);fill-opacity:1;" d="M 341.476562 172.875 C 341.476562 171.476562 341.824219 170.375 342.523438 169.574219 C 343.226562 168.773438 344.226562 168.375 345.523438 168.375 C 346.824219 168.375 347.851562 168.773438 348.601562 169.574219 C 349.300781 170.375 349.648438 171.476562 349.648438 172.875 C 349.648438 174.324219 349.273438 175.449219 348.523438 176.25 C 347.824219 177.101562 346.824219 177.523438 345.523438 177.523438 C 344.226562 177.523438 343.226562 177.101562 342.523438 176.25 C 341.824219 175.449219 341.476562 174.324219 341.476562 172.875 M 345.523438 176.476562 C 346.425781 176.476562 347.125 176.175781 347.625 175.574219 C 348.125 174.976562 348.375 174.074219 348.375 172.875 C 348.375 171.726562 348.125 170.851562 347.625 170.25 C 347.125 169.648438 346.425781 169.351562 345.523438 169.351562 C 344.625 169.351562 343.925781 169.648438 343.425781 170.25 C 342.976562 170.851562 342.75 171.726562 342.75 172.875 C 342.75 174.074219 342.976562 174.976562 343.425781 175.574219 C 343.925781 176.175781 344.625 176.476562 345.523438 176.476562 "/>
<path style=" stroke:none;fill-rule:nonzero;fill:rgb(100%,0%,0%);fill-opacity:1;" d="M 351 168.449219 L 352.199219 168.449219 L 352.199219 172.273438 L 356.773438 172.273438 L 356.773438 168.449219 L 357.976562 168.449219 L 357.976562 177.375 L 356.773438 177.375 L 356.773438 173.25 L 352.199219 173.25 L 352.199219 177.375 L 351 177.375 L 351 168.449219 "/>
<path style=" stroke:none;fill-rule:nonzero;fill:rgb(100%,0%,0%);fill-opacity:1;" d="M 295.273438 130.425781 C 295.273438 128.976562 295.625 127.851562 296.324219 127.050781 C 297.023438 126.25 298.050781 125.851562 299.398438 125.851562 C 300.699219 125.851562 301.699219 126.25 302.398438 127.050781 C 303.101562 127.851562 303.449219 128.976562 303.449219 130.425781 C 303.449219 131.824219 303.101562 132.949219 302.398438 133.800781 C 301.699219 134.601562 300.699219 135 299.398438 135 C 298.101562 135 297.074219 134.601562 296.324219 133.800781 C 295.625 132.949219 295.273438 131.824219 295.273438 130.425781 M 299.398438 134.023438 C 300.300781 134.023438 301 133.699219 301.5 133.050781 C 301.949219 132.449219 302.175781 131.574219 302.175781 130.425781 C 302.175781 129.226562 301.949219 128.351562 301.5 127.800781 C 301 127.199219 300.300781 126.898438 299.398438 126.898438 C 298.5 126.898438 297.800781 127.175781 297.300781 127.726562 C 296.800781 128.324219 296.550781 129.226562 296.550781 130.425781 C 296.550781 131.574219 296.800781 132.449219 297.300781 133.050781 C 297.800781 133.699219 298.5 134.023438 299.398438 134.023438 "/>
<path style=" stroke:none;fill-rule:nonzero;fill:rgb(100%,0%,0%);fill-opacity:1;" d="M 304.875 126 L 306.074219 126 L 306.074219 129.75 L 310.574219 129.75 L 310.574219 126 L 311.773438 126 L 311.773438 134.851562 L 310.574219 134.851562 L 310.574219 130.726562 L 306.074219 130.726562 L 306.074219 134.851562 L 304.875 134.851562 L 304.875 126 "/>
<path style=" stroke:none;fill-rule:nonzero;fill:rgb(100%,0%,0%);fill-opacity:1;" d="M 221.699219 210.375 C 221.699219 208.925781 222.050781 207.800781 222.75 207 C 223.449219 206.199219 224.449219 205.800781 225.75 205.800781 C 227.101562 205.800781 228.125 206.199219 228.824219 207 C 229.523438 207.800781 229.875 208.925781 229.875 210.375 C 229.875 211.773438 229.5 212.898438 228.75 213.75 C 228.050781 214.550781 227.050781 214.949219 225.75 214.949219 C 224.449219 214.949219 223.449219 214.550781 222.75 213.75 C 222.050781 212.898438 221.699219 211.773438 221.699219 210.375 M 225.75 213.976562 C 226.648438 213.976562 227.351562 213.648438 227.851562 213 C 228.351562 212.398438 228.601562 211.523438 228.601562 210.375 C 228.601562 209.175781 228.351562 208.300781 227.851562 207.75 C 227.351562 207.148438 226.648438 206.851562 225.75 206.851562 C 224.851562 206.851562 224.148438 207.125 223.648438 207.675781 C 223.199219 208.273438 222.976562 209.175781 222.976562 210.375 C 222.976562 211.523438 223.199219 212.398438 223.648438 213 C 224.148438 213.648438 224.851562 213.976562 225.75 213.976562 "/>
<path style=" stroke:none;fill-rule:nonzero;fill:rgb(100%,0%,0%);fill-opacity:1;" d="M 231.226562 205.949219 L 232.425781 205.949219 L 232.425781 209.699219 L 237 209.699219 L 237 205.949219 L 238.199219 205.949219 L 238.199219 214.800781 L 237 214.800781 L 237 210.675781 L 232.425781 210.675781 L 232.425781 214.800781 L 231.226562 214.800781 L 231.226562 205.949219 "/>
<path style=" stroke:none;fill-rule:nonzero;fill:rgb(100%,0%,0%);fill-opacity:1;" d="M 161.773438 229.050781 C 161.773438 227.648438 162.125 226.550781 162.824219 225.75 C 163.574219 224.949219 164.601562 224.550781 165.898438 224.550781 C 167.199219 224.550781 168.199219 224.949219 168.898438 225.75 C 169.601562 226.550781 169.949219 227.648438 169.949219 229.050781 C 169.949219 230.5 169.601562 231.625 168.898438 232.425781 C 168.199219 233.273438 167.199219 233.699219 165.898438 233.699219 C 164.601562 233.699219 163.574219 233.273438 162.824219 232.425781 C 162.125 231.625 161.773438 230.5 161.773438 229.050781 M 165.898438 232.648438 C 166.800781 232.648438 167.5 232.351562 168 231.75 C 168.449219 231.148438 168.675781 230.25 168.675781 229.050781 C 168.675781 227.898438 168.449219 227.023438 168 226.425781 C 167.5 225.824219 166.800781 225.523438 165.898438 225.523438 C 165 225.523438 164.300781 225.824219 163.800781 226.425781 C 163.300781 227.023438 163.050781 227.898438 163.050781 229.050781 C 163.050781 230.25 163.300781 231.148438 163.800781 231.75 C 164.300781 232.351562 165 232.648438 165.898438 232.648438 "/>
<path style=" stroke:none;fill-rule:nonzero;fill:rgb(100%,0%,0%);fill-opacity:1;" d="M 108.75 217.199219 C 108.75 215.75 109.125 214.625 109.875 213.824219 C 110.574219 213.023438 111.574219 212.625 112.875 212.625 C 114.175781 212.625 115.175781 213.023438 115.875 213.824219 C 116.574219 214.625 116.925781 215.75 116.925781 217.199219 C 116.925781 218.601562 116.574219 219.726562 115.875 220.574219 C 115.175781 221.375 114.175781 221.773438 112.875 221.773438 C 111.574219 221.773438 110.574219 221.375 109.875 220.574219 C 109.125 219.773438 108.75 218.648438 108.75 217.199219 M 112.875 220.800781 C 113.773438 220.800781 114.476562 220.5 114.976562 219.898438 C 115.425781 219.25 115.648438 218.351562 115.648438 217.199219 C 115.648438 216 115.425781 215.125 114.976562 214.574219 C 114.476562 213.976562 113.773438 213.675781 112.875 213.675781 C 111.976562 213.675781 111.273438 213.976562 110.773438 214.574219 C 110.273438 215.125 110.023438 216 110.023438 217.199219 C 110.023438 218.398438 110.273438 219.300781 110.773438 219.898438 C 111.273438 220.5 111.976562 220.800781 112.875 220.800781 "/>
<path style=" stroke:none;fill-rule:nonzero;fill:rgb(100%,0%,0%);fill-opacity:1;" d="M 17.023438 210.226562 L 18.226562 210.226562 L 18.226562 214.050781 L 22.800781 214.050781 L 22.800781 210.226562 L 24 210.226562 L 24 219.148438 L 22.800781 219.148438 L 22.800781 215.023438 L 18.226562 215.023438 L 18.226562 219.148438 L 17.023438 219.148438 L 17.023438 210.226562 "/>
<path style=" stroke:none;fill-rule:nonzero;fill:rgb(100%,0%,0%);fill-opacity:1;" d="M 25.800781 214.648438 C 25.800781 213.25 26.148438 212.148438 26.851562 211.351562 C 27.550781 210.550781 28.574219 210.148438 29.925781 210.148438 C 31.226562 210.148438 32.226562 210.550781 32.925781 211.351562 C 33.625 212.148438 33.976562 213.25 33.976562 214.648438 C 33.976562 216.101562 33.625 217.226562 32.925781 218.023438 C 32.226562 218.824219 31.226562 219.226562 29.925781 219.226562 C 28.625 219.226562 27.601562 218.824219 26.851562 218.023438 C 26.148438 217.226562 25.800781 216.101562 25.800781 214.648438 M 29.925781 218.25 C 30.824219 218.25 31.5 217.949219 31.949219 217.351562 C 32.449219 216.75 32.699219 215.851562 32.699219 214.648438 C 32.699219 213.5 32.449219 212.625 31.949219 212.023438 C 31.5 211.425781 30.824219 211.125 29.925781 211.125 C 29.023438 211.125 28.324219 211.425781 27.824219 212.023438 C 27.324219 212.625 27.074219 213.5 27.074219 214.648438 C 27.074219 215.851562 27.324219 216.75 27.824219 217.351562 C 28.324219 217.949219 29.023438 218.25 29.925781 218.25 "/>
<path style=" stroke:none;fill-rule:nonzero;fill:rgb(100%,0%,0%);fill-opacity:1;" d="M 33.226562 262.125 L 34.5 262.125 L 34.5 265.875 L 39 265.875 L 39 262.125 L 40.199219 262.125 L 40.199219 270.976562 L 39 270.976562 L 39 266.851562 L 34.5 266.851562 L 34.5 270.976562 L 33.226562 270.976562 L 33.226562 262.125 "/>
<path style=" stroke:none;fill-rule:nonzero;fill:rgb(100%,0%,0%);fill-opacity:1;" d="M 42 266.550781 C 42 265.101562 42.375 263.976562 43.125 263.175781 C 43.824219 262.375 44.824219 261.976562 46.125 261.976562 C 47.425781 261.976562 48.425781 262.375 49.125 263.175781 C 49.824219 263.976562 50.175781 265.101562 50.175781 266.550781 C 50.175781 267.949219 49.824219 269.074219 49.125 269.925781 C 48.425781 270.726562 47.425781 271.125 46.125 271.125 C 44.824219 271.125 43.824219 270.726562 43.125 269.925781 C 42.375 269.125 42 268 42 266.550781 M 46.125 270.148438 C 47.023438 270.148438 47.726562 269.851562 48.226562 269.25 C 48.726562 268.601562 48.976562 267.699219 48.976562 266.550781 C 48.976562 265.351562 48.726562 264.476562 48.226562 263.925781 C 47.726562 263.324219 47.023438 263.023438 46.125 263.023438 C 45.226562 263.023438 44.523438 263.300781 44.023438 263.851562 C 43.523438 264.449219 43.273438 265.351562 43.273438 266.550781 C 43.273438 267.699219 43.523438 268.601562 44.023438 269.25 C 44.523438 269.851562 45.226562 270.148438 46.125 270.148438 "/>
<path style=" stroke:none;fill-rule:nonzero;fill:rgb(0%,0%,100%);fill-opacity:1;" d="M 90.300781 304.574219 L 93.226562 309.226562 C 93.425781 309.574219 93.675781 310.023438 93.976562 310.574219 C 94.273438 311.125 94.449219 311.425781 94.5 311.476562 L 94.5 304.574219 L 95.625 304.574219 L 95.625 313.425781 L 94.425781 313.425781 L 91.273438 308.324219 C 91.074219 307.875 90.824219 307.425781 90.523438 306.976562 C 90.273438 306.523438 90.125 306.226562 90.074219 306.074219 L 90.074219 313.425781 L 88.875 313.425781 L 88.875 304.574219 L 90.300781 304.574219 "/>
<path style=" stroke:none;fill-rule:nonzero;fill:rgb(0%,0%,100%);fill-opacity:1;" d="M 97.351562 304.574219 L 98.550781 304.574219 L 98.550781 308.324219 L 103.125 308.324219 L 103.125 304.574219 L 104.324219 304.574219 L 104.324219 313.425781 L 103.125 313.425781 L 103.125 309.300781 L 98.550781 309.300781 L 98.550781 313.425781 L 97.351562 313.425781 L 97.351562 304.574219 "/>
<path style=" stroke:none;fill-rule:nonzero;fill:rgb(0%,0%,100%);fill-opacity:1;" d="M 106.050781 313.125 C 106.199219 312.773438 106.425781 312.476562 106.726562 312.226562 C 107.074219 312.023438 107.5 311.925781 108 311.925781 C 108.601562 311.925781 109.050781 312.101562 109.351562 312.449219 C 109.699219 312.75 109.875 313.175781 109.875 313.726562 C 109.875 314.324219 109.648438 314.898438 109.199219 315.449219 C 108.800781 316 108.148438 316.601562 107.25 317.25 L 109.949219 317.25 L 109.949219 317.851562 L 106.050781 317.851562 L 106.050781 317.324219 C 106.75 316.824219 107.324219 316.375 107.773438 315.976562 C 108.175781 315.574219 108.5 315.199219 108.75 314.851562 C 108.949219 314.5 109.050781 314.148438 109.050781 313.800781 C 109.050781 313.398438 108.949219 313.101562 108.75 312.898438 C 108.550781 312.699219 108.300781 312.601562 108 312.601562 C 107.699219 312.601562 107.425781 312.675781 107.175781 312.824219 C 106.976562 312.925781 106.800781 313.125 106.648438 313.425781 L 106.050781 313.125 "/>
<path style=" stroke:none;fill-rule:nonzero;fill:rgb(100%,0%,0%);fill-opacity:1;" d="M 148.050781 290.324219 C 148.050781 288.875 148.398438 287.75 149.101562 286.949219 C 149.851562 286.148438 150.875 285.75 152.175781 285.75 C 153.476562 285.75 154.476562 286.148438 155.175781 286.949219 C 155.875 287.75 156.226562 288.875 156.226562 290.324219 C 156.226562 291.726562 155.875 292.851562 155.175781 293.699219 C 154.476562 294.5 153.476562 294.898438 152.175781 294.898438 C 150.875 294.898438 149.851562 294.5 149.101562 293.699219 C 148.398438 292.851562 148.050781 291.726562 148.050781 290.324219 M 152.175781 293.925781 C 153.074219 293.925781 153.773438 293.625 154.273438 293.023438 C 154.726562 292.375 154.949219 291.476562 154.949219 290.324219 C 154.949219 289.125 154.726562 288.25 154.273438 287.699219 C 153.773438 287.101562 153.074219 286.800781 152.175781 286.800781 C 151.273438 286.800781 150.574219 287.074219 150.074219 287.625 C 149.574219 288.226562 149.324219 289.125 149.324219 290.324219 C 149.324219 291.476562 149.574219 292.375 150.074219 293.023438 C 150.574219 293.625 151.273438 293.925781 152.175781 293.925781 "/>
<path style=" stroke:none;fill-rule:nonzero;fill:rgb(100%,0%,0%);fill-opacity:1;" d="M 157.648438 285.898438 L 158.851562 285.898438 L 158.851562 289.648438 L 163.351562 289.648438 L 163.351562 285.898438 L 164.550781 285.898438 L 164.550781 294.75 L 163.351562 294.75 L 163.351562 290.625 L 158.851562 290.625 L 158.851562 294.75 L 157.648438 294.75 L 157.648438 285.898438 "/>
</g>
</svg>
