<?xml version="1.0" encoding="UTF-8"?>
<svg xmlns="http://www.w3.org/2000/svg" xmlns:xlink="http://www.w3.org/1999/xlink" width="375pt" height="375pt" viewBox="0 0 375 375" version="1.1">
<g id="surface126">
<rect x="0" y="0" width="375" height="375" style="fill:rgb(100%,100%,100%);fill-opacity:1;stroke:none;"/>
<path style="fill:none;stroke-width:2;stroke-linecap:butt;stroke-linejoin:miter;stroke:rgb(100%,0%,0%);stroke-opacity:1;stroke-miterlimit:4;" d="M 173.598958 229.598958 L 162.598958 246.598958 " transform="matrix(0.75,0,0,0.75,0,0)"/>
<path style="fill:none;stroke-width:2;stroke-linecap:butt;stroke-linejoin:miter;stroke:rgb(0%,0%,0%);stroke-opacity:1;stroke-miterlimit:4;" d="M 162.598958 246.598958 L 151.697917 263.598958 " transform="matrix(0.75,0,0,0.75,0,0)"/>
<path style="fill:none;stroke-width:2;stroke-linecap:butt;stroke-linejoin:miter;stroke:rgb(100%,0%,0%);stroke-opacity:1;stroke-miterlimit:4;" d="M 167.401042 225.598958 L 156.5 242.598958 " transform="matrix(0.75,0,0,0.75,0,0)"/>
<path style="fill:none;stroke-width:2;stroke-linecap:butt;stroke-linejoin:miter;stroke:rgb(0%,0%,0%);stroke-opacity:1;stroke-miterlimit:4;" d="M 156.5 242.598958 L 145.5 259.598958 " transform="matrix(0.75,0,0,0.75,0,0)"/>
<path style="fill:none;stroke-width:2;stroke-linecap:butt;stroke-linejoin:miter;stroke:rgb(0%,0%,0%);stroke-opacity:1;stroke-miterlimit:4;" d="M 149.802083 259.802083 L 101 257.401042 " transform="matrix(0.75,0,0,0.75,0,0)"/>
<path style="fill:none;stroke-width:2;stroke-linecap:butt;stroke-linejoin:miter;stroke:rgb(0%,0%,0%);stroke-opacity:1;stroke-miterlimit:4;" d="M 101 257.401042 L 78.697917 214.098958 " transform="matrix(0.75,0,0,0.75,0,0)"/>
<path style="fill:none;stroke-width:2;stroke-linecap:butt;stroke-linejoin:miter;stroke:rgb(0%,0%,0%);stroke-opacity:1;stroke-miterlimit:4;" d="M 78.697917 214.098958 L 30.5 206.598958 " transform="matrix(0.75,0,0,0.75,0,0)"/>
<path style="fill:none;stroke-width:2;stroke-linecap:butt;stroke-linejoin:miter;stroke:rgb(0%,0%,0%);stroke-opacity:1;stroke-miterlimit:4;" d="M 74.598958 206 L 36.901042 200.197917 " transform="matrix(0.75,0,0,0.75,0,0)"/>
<path style="fill:none;stroke-width:2;stroke-linecap:butt;stroke-linejoin:miter;stroke:rgb(0%,0%,0%);stroke-opacity:1;stroke-miterlimit:4;" d="M 30.5 206.598958 L 22.697917 158.5 " transform="matrix(0.75,0,0,0.75,0,0)"/>
<path style="fill:none;stroke-width:2;stroke-linecap:butt;stroke-linejoin:miter;stroke:rgb(0%,0%,0%);stroke-opacity:1;stroke-miterlimit:4;" d="M 22.697917 158.5 L 66.098958 136.197917 " transform="matrix(0.75,0,0,0.75,0,0)"/>
<path style="fill:none;stroke-width:2;stroke-linecap:butt;stroke-linejoin:miter;stroke:rgb(0%,0%,0%);stroke-opacity:1;stroke-miterlimit:4;" d="M 30.802083 162.598958 L 64.697917 145.098958 " transform="matrix(0.75,0,0,0.75,0,0)"/>
<path style="fill:none;stroke-width:2;stroke-linecap:butt;stroke-linejoin:miter;stroke:rgb(0%,0%,0%);stroke-opacity:1;stroke-miterlimit:4;" d="M 66.098958 136.197917 L 80.401042 150.401042 " transform="matrix(0.75,0,0,0.75,0,0)"/>
<path style="fill:none;stroke-width:2;stroke-linecap:butt;stroke-linejoin:miter;stroke:rgb(80%,80%,0%);stroke-opacity:1;stroke-miterlimit:4;" d="M 80.401042 150.401042 L 94.697917 164.598958 " transform="matrix(0.75,0,0,0.75,0,0)"/>
<path style="fill:none;stroke-width:2;stroke-linecap:butt;stroke-linejoin:miter;stroke:rgb(0%,0%,0%);stroke-opacity:1;stroke-miterlimit:4;" d="M 149.802083 259.802083 L 158.697917 277.197917 " transform="matrix(0.75,0,0,0.75,0,0)"/>
<path style="fill:none;stroke-width:2;stroke-linecap:butt;stroke-linejoin:miter;stroke:rgb(0%,0%,100%);stroke-opacity:1;stroke-miterlimit:4;" d="M 158.697917 277.197917 L 167.697917 294.598958 " transform="matrix(0.75,0,0,0.75,0,0)"/>
<path style="fill-rule:evenodd;fill:rgb(0%,0%,0%);fill-opacity:1;stroke-width:0.5;stroke-linecap:butt;stroke-linejoin:miter;stroke:rgb(0%,0%,0%);stroke-opacity:1;stroke-miterlimit:4;" d="M 220.802083 305.5 L 200.598958 306.401042 L 200.697917 302.697917 Z M 220.802083 305.5 " transform="matrix(0.75,0,0,0.75,0,0)"/>
<path style="fill-rule:evenodd;fill:rgb(0%,0%,100%);fill-opacity:1;stroke-width:0.5;stroke-linecap:butt;stroke-linejoin:miter;stroke:rgb(0%,0%,100%);stroke-opacity:1;stroke-miterlimit:4;" d="M 200.598958 306.401042 L 180.697917 299.901042 L 180.302083 307.197917 Z M 200.598958 306.401042 " transform="matrix(0.75,0,0,0.75,0,0)"/>
<path style="fill-rule:evenodd;fill:rgb(0%,0%,100%);fill-opacity:1;stroke-width:0.5;stroke-linecap:butt;stroke-linejoin:miter;stroke:rgb(0%,0%,100%);stroke-opacity:1;stroke-miterlimit:4;" d="M 200.598958 306.401042 L 200.697917 302.697917 L 180.697917 299.901042 Z M 200.598958 306.401042 " transform="matrix(0.75,0,0,0.75,0,0)"/>
<path style="fill:none;stroke-width:2;stroke-linecap:butt;stroke-linejoin:miter;stroke:rgb(0%,0%,0%);stroke-opacity:1;stroke-miterlimit:4;" d="M 220.802083 305.5 L 253.5 341.598958 " transform="matrix(0.75,0,0,0.75,0,0)"/>
<path style="fill:none;stroke-width:2;stroke-linecap:butt;stroke-linejoin:miter;stroke:rgb(0%,0%,0%);stroke-opacity:1;stroke-miterlimit:4;" d="M 250.098958 337.802083 L 249 359.697917 " transform="matrix(0.75,0,0,0.75,0,0)"/>
<path style="fill:none;stroke-width:2;stroke-linecap:butt;stroke-linejoin:miter;stroke:rgb(100%,0%,0%);stroke-opacity:1;stroke-miterlimit:4;" d="M 249 359.697917 L 247.901042 381.598958 " transform="matrix(0.75,0,0,0.75,0,0)"/>
<path style="fill:none;stroke-width:2;stroke-linecap:butt;stroke-linejoin:miter;stroke:rgb(0%,0%,0%);stroke-opacity:1;stroke-miterlimit:4;" d="M 257.401042 338.197917 L 256.302083 360 " transform="matrix(0.75,0,0,0.75,0,0)"/>
<path style="fill:none;stroke-width:2;stroke-linecap:butt;stroke-linejoin:miter;stroke:rgb(100%,0%,0%);stroke-opacity:1;stroke-miterlimit:4;" d="M 256.302083 360 L 255.197917 381.901042 " transform="matrix(0.75,0,0,0.75,0,0)"/>
<path style="fill:none;stroke-width:2;stroke-linecap:butt;stroke-linejoin:miter;stroke:rgb(0%,0%,0%);stroke-opacity:1;stroke-miterlimit:4;" d="M 253.5 341.598958 L 268.197917 328.401042 " transform="matrix(0.75,0,0,0.75,0,0)"/>
<path style="fill:none;stroke-width:2;stroke-linecap:butt;stroke-linejoin:miter;stroke:rgb(0%,0%,100%);stroke-opacity:1;stroke-miterlimit:4;" d="M 268.197917 328.401042 L 282.802083 315.098958 " transform="matrix(0.75,0,0,0.75,0,0)"/>
<path style="fill:none;stroke-width:2;stroke-linecap:butt;stroke-linejoin:miter;stroke:rgb(0%,0%,100%);stroke-opacity:1;stroke-miterlimit:4;" d="M 296.5 307.401042 L 316.901042 303 " transform="matrix(0.75,0,0,0.75,0,0)"/>
<path style="fill:none;stroke-width:2;stroke-linecap:butt;stroke-linejoin:miter;stroke:rgb(0%,0%,0%);stroke-opacity:1;stroke-miterlimit:4;" d="M 316.901042 303 L 337.302083 298.5 " transform="matrix(0.75,0,0,0.75,0,0)"/>
<path style="fill:none;stroke-width:2;stroke-linecap:butt;stroke-linejoin:miter;stroke:rgb(0%,0%,0%);stroke-opacity:1;stroke-miterlimit:4;" d="M 337.302083 298.5 L 370.098958 334.598958 " transform="matrix(0.75,0,0,0.75,0,0)"/>
<path style="fill:none;stroke-width:2;stroke-linecap:butt;stroke-linejoin:miter;stroke:rgb(0%,0%,0%);stroke-opacity:1;stroke-miterlimit:4;" d="M 367.197917 331.5 L 360.802083 351.401042 " transform="matrix(0.75,0,0,0.75,0,0)"/>
<path style="fill:none;stroke-width:2;stroke-linecap:butt;stroke-linejoin:miter;stroke:rgb(100%,0%,0%);stroke-opacity:1;stroke-miterlimit:4;" d="M 360.802083 351.401042 L 354.5 371.401042 " transform="matrix(0.75,0,0,0.75,0,0)"/>
<path style="fill:none;stroke-width:2;stroke-linecap:butt;stroke-linejoin:miter;stroke:rgb(0%,0%,0%);stroke-opacity:1;stroke-miterlimit:4;" d="M 374.197917 333.697917 L 367.802083 353.697917 " transform="matrix(0.75,0,0,0.75,0,0)"/>
<path style="fill:none;stroke-width:2;stroke-linecap:butt;stroke-linejoin:miter;stroke:rgb(100%,0%,0%);stroke-opacity:1;stroke-miterlimit:4;" d="M 367.802083 353.697917 L 361.401042 373.598958 " transform="matrix(0.75,0,0,0.75,0,0)"/>
<path style="fill:none;stroke-width:2;stroke-linecap:butt;stroke-linejoin:miter;stroke:rgb(0%,0%,0%);stroke-opacity:1;stroke-miterlimit:4;" d="M 370.098958 334.598958 L 389.901042 330.302083 " transform="matrix(0.75,0,0,0.75,0,0)"/>
<path style="fill:none;stroke-width:2;stroke-linecap:butt;stroke-linejoin:miter;stroke:rgb(100%,0%,0%);stroke-opacity:1;stroke-miterlimit:4;" d="M 389.901042 330.302083 L 409.802083 326 " transform="matrix(0.75,0,0,0.75,0,0)"/>
<path style="fill:none;stroke-width:2;stroke-linecap:butt;stroke-linejoin:miter;stroke:rgb(0%,0%,0%);stroke-opacity:1;stroke-miterlimit:4;" d="M 337.302083 298.5 L 352.197917 252.098958 " transform="matrix(0.75,0,0,0.75,0,0)"/>
<path style="fill:none;stroke-width:2;stroke-linecap:butt;stroke-linejoin:miter;stroke:rgb(0%,0%,0%);stroke-opacity:1;stroke-miterlimit:4;" d="M 331.598958 292.302083 L 343.901042 253.901042 " transform="matrix(0.75,0,0,0.75,0,0)"/>
<path style="fill:none;stroke-width:2;stroke-linecap:butt;stroke-linejoin:miter;stroke:rgb(0%,0%,0%);stroke-opacity:1;stroke-miterlimit:4;" d="M 352.197917 252.098958 L 399.802083 241.802083 " transform="matrix(0.75,0,0,0.75,0,0)"/>
<path style="fill:none;stroke-width:2;stroke-linecap:butt;stroke-linejoin:miter;stroke:rgb(0%,0%,0%);stroke-opacity:1;stroke-miterlimit:4;" d="M 399.802083 241.802083 L 405.901042 222.802083 " transform="matrix(0.75,0,0,0.75,0,0)"/>
<path style="fill:none;stroke-width:2;stroke-linecap:butt;stroke-linejoin:miter;stroke:rgb(0%,0%,100%);stroke-opacity:1;stroke-miterlimit:4;" d="M 405.901042 222.802083 L 412 203.901042 " transform="matrix(0.75,0,0,0.75,0,0)"/>
<path style="fill:none;stroke-width:2;stroke-linecap:butt;stroke-linejoin:miter;stroke:rgb(0%,0%,100%);stroke-opacity:1;stroke-miterlimit:4;" d="M 430.197917 192 L 446.302083 188.5 " transform="matrix(0.75,0,0,0.75,0,0)"/>
<path style="fill:none;stroke-width:2;stroke-linecap:butt;stroke-linejoin:miter;stroke:rgb(0%,0%,0%);stroke-opacity:1;stroke-miterlimit:4;" d="M 446.302083 188.5 L 462.401042 185 " transform="matrix(0.75,0,0,0.75,0,0)"/>
<path style="fill:none;stroke-width:2;stroke-linecap:butt;stroke-linejoin:miter;stroke:rgb(0%,0%,100%);stroke-opacity:1;stroke-miterlimit:4;" d="M 428.598958 184.802083 L 442.697917 181.802083 " transform="matrix(0.75,0,0,0.75,0,0)"/>
<path style="fill:none;stroke-width:2;stroke-linecap:butt;stroke-linejoin:miter;stroke:rgb(0%,0%,0%);stroke-opacity:1;stroke-miterlimit:4;" d="M 442.697917 181.802083 L 456.697917 178.802083 " transform="matrix(0.75,0,0,0.75,0,0)"/>
<path style="fill:none;stroke-width:2;stroke-linecap:butt;stroke-linejoin:miter;stroke:rgb(0%,0%,0%);stroke-opacity:1;stroke-miterlimit:4;" d="M 462.401042 185 L 477.302083 138.598958 " transform="matrix(0.75,0,0,0.75,0,0)"/>
<path style="fill:none;stroke-width:2;stroke-linecap:butt;stroke-linejoin:miter;stroke:rgb(0%,0%,0%);stroke-opacity:1;stroke-miterlimit:4;" d="M 477.302083 138.598958 L 444.5 102.5 " transform="matrix(0.75,0,0,0.75,0,0)"/>
<path style="fill:none;stroke-width:2;stroke-linecap:butt;stroke-linejoin:miter;stroke:rgb(0%,0%,0%);stroke-opacity:1;stroke-miterlimit:4;" d="M 469 140.401042 L 441.901042 110.5 " transform="matrix(0.75,0,0,0.75,0,0)"/>
<path style="fill:none;stroke-width:2;stroke-linecap:butt;stroke-linejoin:miter;stroke:rgb(0%,0%,0%);stroke-opacity:1;stroke-miterlimit:4;" d="M 444.5 102.5 L 396.802083 112.802083 " transform="matrix(0.75,0,0,0.75,0,0)"/>
<path style="fill:none;stroke-width:2;stroke-linecap:butt;stroke-linejoin:miter;stroke:rgb(0%,0%,0%);stroke-opacity:1;stroke-miterlimit:4;" d="M 396.802083 112.802083 L 382 159.197917 " transform="matrix(0.75,0,0,0.75,0,0)"/>
<path style="fill:none;stroke-width:2;stroke-linecap:butt;stroke-linejoin:miter;stroke:rgb(0%,0%,0%);stroke-opacity:1;stroke-miterlimit:4;" d="M 402.5 119 L 390.197917 157.401042 " transform="matrix(0.75,0,0,0.75,0,0)"/>
<path style="fill:none;stroke-width:2;stroke-linecap:butt;stroke-linejoin:miter;stroke:rgb(0%,0%,0%);stroke-opacity:1;stroke-miterlimit:4;" d="M 352.197917 252.098958 L 319.401042 216 " transform="matrix(0.75,0,0,0.75,0,0)"/>
<path style="fill:none;stroke-width:2;stroke-linecap:butt;stroke-linejoin:miter;stroke:rgb(0%,0%,0%);stroke-opacity:1;stroke-miterlimit:4;" d="M 319.401042 216 L 298.598958 220.5 " transform="matrix(0.75,0,0,0.75,0,0)"/>
<path style="fill:none;stroke-width:2;stroke-linecap:butt;stroke-linejoin:miter;stroke:rgb(80%,80%,0%);stroke-opacity:1;stroke-miterlimit:4;" d="M 298.598958 220.5 L 277.802083 225 " transform="matrix(0.75,0,0,0.75,0,0)"/>
<path style="fill:none;stroke-width:2;stroke-linecap:butt;stroke-linejoin:miter;stroke:rgb(80%,80%,0%);stroke-opacity:1;stroke-miterlimit:4;" d="M 268.901042 235.197917 L 262.901042 254 " transform="matrix(0.75,0,0,0.75,0,0)"/>
<path style="fill:none;stroke-width:2;stroke-linecap:butt;stroke-linejoin:miter;stroke:rgb(0%,0%,0%);stroke-opacity:1;stroke-miterlimit:4;" d="M 262.901042 254 L 256.901042 272.697917 " transform="matrix(0.75,0,0,0.75,0,0)"/>
<path style="fill:none;stroke-width:2;stroke-linecap:butt;stroke-linejoin:miter;stroke:rgb(80%,80%,0%);stroke-opacity:1;stroke-miterlimit:4;" d="M 96.197917 179.401042 L 87.5 196.697917 " transform="matrix(0.75,0,0,0.75,0,0)"/>
<path style="fill:none;stroke-width:2;stroke-linecap:butt;stroke-linejoin:miter;stroke:rgb(0%,0%,0%);stroke-opacity:1;stroke-miterlimit:4;" d="M 87.5 196.697917 L 78.697917 214.098958 " transform="matrix(0.75,0,0,0.75,0,0)"/>
<path style="fill:none;stroke-width:2;stroke-linecap:butt;stroke-linejoin:miter;stroke:rgb(0%,0%,0%);stroke-opacity:1;stroke-miterlimit:4;" d="M 256.901042 272.697917 L 220.802083 305.5 " transform="matrix(0.75,0,0,0.75,0,0)"/>
<path style="fill:none;stroke-width:2;stroke-linecap:butt;stroke-linejoin:miter;stroke:rgb(0%,0%,0%);stroke-opacity:1;stroke-miterlimit:4;" d="M 256.901042 272.697917 L 269.802083 287 " transform="matrix(0.75,0,0,0.75,0,0)"/>
<path style="fill:none;stroke-width:2;stroke-linecap:butt;stroke-linejoin:miter;stroke:rgb(0%,0%,100%);stroke-opacity:1;stroke-miterlimit:4;" d="M 269.802083 287 L 282.802083 301.302083 " transform="matrix(0.75,0,0,0.75,0,0)"/>
<path style="fill:none;stroke-width:2;stroke-linecap:butt;stroke-linejoin:miter;stroke:rgb(0%,0%,0%);stroke-opacity:1;stroke-miterlimit:4;" d="M 382 159.197917 L 394.901042 173.5 " transform="matrix(0.75,0,0,0.75,0,0)"/>
<path style="fill:none;stroke-width:2;stroke-linecap:butt;stroke-linejoin:miter;stroke:rgb(0%,0%,100%);stroke-opacity:1;stroke-miterlimit:4;" d="M 394.901042 173.5 L 407.901042 187.802083 " transform="matrix(0.75,0,0,0.75,0,0)"/>
<path style="fill:none;stroke-width:1;stroke-linecap:butt;stroke-linejoin:miter;stroke:rgb(0%,0%,0%);stroke-opacity:1;stroke-miterlimit:4;" d="M 253.802083 271.098958 L 254.098958 270.598958 " transform="matrix(0.75,0,0,0.75,0,0)"/>
<path style="fill:none;stroke-width:1;stroke-linecap:butt;stroke-linejoin:miter;stroke:rgb(0%,0%,0%);stroke-opacity:1;stroke-miterlimit:4;" d="M 250.598958 269.5 L 251.302083 268.401042 " transform="matrix(0.75,0,0,0.75,0,0)"/>
<path style="fill:none;stroke-width:1;stroke-linecap:butt;stroke-linejoin:miter;stroke:rgb(0%,0%,0%);stroke-opacity:1;stroke-miterlimit:4;" d="M 247.5 267.901042 L 248.598958 266.197917 " transform="matrix(0.75,0,0,0.75,0,0)"/>
<path style="fill:none;stroke-width:1;stroke-linecap:butt;stroke-linejoin:miter;stroke:rgb(0%,0%,0%);stroke-opacity:1;stroke-miterlimit:4;" d="M 244.401042 266.302083 L 245.802083 264.098958 " transform="matrix(0.75,0,0,0.75,0,0)"/>
<path style="fill:none;stroke-width:1;stroke-linecap:butt;stroke-linejoin:miter;stroke:rgb(0%,0%,0%);stroke-opacity:1;stroke-miterlimit:4;" d="M 241.302083 264.697917 L 243.098958 261.901042 " transform="matrix(0.75,0,0,0.75,0,0)"/>
<path style="fill:none;stroke-width:1;stroke-linecap:butt;stroke-linejoin:miter;stroke:rgb(0%,0%,0%);stroke-opacity:1;stroke-miterlimit:4;" d="M 238.098958 263.098958 L 240.302083 259.697917 " transform="matrix(0.75,0,0,0.75,0,0)"/>
<path style="fill:none;stroke-width:1;stroke-linecap:butt;stroke-linejoin:miter;stroke:rgb(0%,0%,0%);stroke-opacity:1;stroke-miterlimit:4;" d="M 235 261.401042 L 237.5 257.5 " transform="matrix(0.75,0,0,0.75,0,0)"/>
<path style="fill:none;stroke-width:1;stroke-linecap:butt;stroke-linejoin:miter;stroke:rgb(0%,0%,0%);stroke-opacity:1;stroke-miterlimit:4;" d="M 231.901042 259.802083 L 234.802083 255.401042 " transform="matrix(0.75,0,0,0.75,0,0)"/>
<path style="fill:none;stroke-width:1;stroke-linecap:butt;stroke-linejoin:miter;stroke:rgb(0%,0%,0%);stroke-opacity:1;stroke-miterlimit:4;" d="M 228.802083 258.197917 L 232 253.197917 " transform="matrix(0.75,0,0,0.75,0,0)"/>
<path style="fill:none;stroke-width:1;stroke-linecap:butt;stroke-linejoin:miter;stroke:rgb(0%,0%,0%);stroke-opacity:1;stroke-miterlimit:4;" d="M 225.598958 256.598958 L 229.197917 251 " transform="matrix(0.75,0,0,0.75,0,0)"/>
<path style="fill:none;stroke-width:1;stroke-linecap:butt;stroke-linejoin:miter;stroke:rgb(0%,0%,0%);stroke-opacity:1;stroke-miterlimit:4;" d="M 222.5 255 L 226.5 248.802083 " transform="matrix(0.75,0,0,0.75,0,0)"/>
<path style="fill:none;stroke-width:2;stroke-linecap:butt;stroke-linejoin:miter;stroke:rgb(0%,0%,0%);stroke-opacity:1;stroke-miterlimit:4;" d="M 147.302083 259.697917 L 149.802083 259.802083 L 150.197917 260.697917 " transform="matrix(0.75,0,0,0.75,0,0)"/>
<path style="fill:none;stroke-width:2;stroke-linecap:butt;stroke-linejoin:miter;stroke:rgb(0%,0%,0%);stroke-opacity:1;stroke-miterlimit:4;" d="M 103.5 257.598958 L 101 257.401042 L 99.901042 255.302083 " transform="matrix(0.75,0,0,0.75,0,0)"/>
<path style="fill:none;stroke-width:2;stroke-linecap:butt;stroke-linejoin:miter;stroke:rgb(0%,0%,0%);stroke-opacity:1;stroke-miterlimit:4;" d="M 33 207 L 30.5 206.598958 L 30.197917 204.197917 " transform="matrix(0.75,0,0,0.75,0,0)"/>
<path style="fill:none;stroke-width:2;stroke-linecap:butt;stroke-linejoin:miter;stroke:rgb(0%,0%,0%);stroke-opacity:1;stroke-miterlimit:4;" d="M 23.098958 160.901042 L 22.697917 158.5 L 24.901042 157.401042 " transform="matrix(0.75,0,0,0.75,0,0)"/>
<path style="fill:none;stroke-width:2;stroke-linecap:butt;stroke-linejoin:miter;stroke:rgb(0%,0%,0%);stroke-opacity:1;stroke-miterlimit:4;" d="M 63.901042 137.302083 L 66.098958 136.197917 L 66.802083 136.901042 " transform="matrix(0.75,0,0,0.75,0,0)"/>
<path style="fill:none;stroke-width:2;stroke-linecap:butt;stroke-linejoin:miter;stroke:rgb(0%,0%,0%);stroke-opacity:1;stroke-miterlimit:4;" d="M 222.401042 307.302083 L 220.802083 305.5 L 222.598958 303.901042 " transform="matrix(0.75,0,0,0.75,0,0)"/>
<path style="fill:none;stroke-width:2;stroke-linecap:butt;stroke-linejoin:miter;stroke:rgb(0%,0%,0%);stroke-opacity:1;stroke-miterlimit:4;" d="M 251.901042 339.802083 L 253.5 341.598958 L 254.302083 341 " transform="matrix(0.75,0,0,0.75,0,0)"/>
<path style="fill:none;stroke-width:2;stroke-linecap:butt;stroke-linejoin:miter;stroke:rgb(0%,0%,0%);stroke-opacity:1;stroke-miterlimit:4;" d="M 368.401042 332.802083 L 370.098958 334.598958 L 371.098958 334.401042 " transform="matrix(0.75,0,0,0.75,0,0)"/>
<path style="fill:none;stroke-width:2;stroke-linecap:butt;stroke-linejoin:miter;stroke:rgb(0%,0%,0%);stroke-opacity:1;stroke-miterlimit:4;" d="M 397.5 242.302083 L 399.802083 241.802083 L 400.098958 240.802083 " transform="matrix(0.75,0,0,0.75,0,0)"/>
<path style="fill:none;stroke-width:2;stroke-linecap:butt;stroke-linejoin:miter;stroke:rgb(0%,0%,0%);stroke-opacity:1;stroke-miterlimit:4;" d="M 461.598958 185.197917 L 462.401042 185 L 463.098958 182.697917 " transform="matrix(0.75,0,0,0.75,0,0)"/>
<path style="fill:none;stroke-width:2;stroke-linecap:butt;stroke-linejoin:miter;stroke:rgb(0%,0%,0%);stroke-opacity:1;stroke-miterlimit:4;" d="M 476.5 140.901042 L 477.302083 138.598958 L 475.598958 136.802083 " transform="matrix(0.75,0,0,0.75,0,0)"/>
<path style="fill:none;stroke-width:2;stroke-linecap:butt;stroke-linejoin:miter;stroke:rgb(0%,0%,0%);stroke-opacity:1;stroke-miterlimit:4;" d="M 446.098958 104.302083 L 444.5 102.5 L 442.098958 103 " transform="matrix(0.75,0,0,0.75,0,0)"/>
<path style="fill:none;stroke-width:2;stroke-linecap:butt;stroke-linejoin:miter;stroke:rgb(0%,0%,0%);stroke-opacity:1;stroke-miterlimit:4;" d="M 399.197917 112.302083 L 396.802083 112.802083 L 396.098958 115.098958 " transform="matrix(0.75,0,0,0.75,0,0)"/>
<path style="fill:none;stroke-width:2;stroke-linecap:butt;stroke-linejoin:miter;stroke:rgb(0%,0%,0%);stroke-opacity:1;stroke-miterlimit:4;" d="M 382.697917 156.901042 L 382 159.197917 L 382.598958 159.901042 " transform="matrix(0.75,0,0,0.75,0,0)"/>
<path style="fill:none;stroke-width:2;stroke-linecap:butt;stroke-linejoin:miter;stroke:rgb(0%,0%,0%);stroke-opacity:1;stroke-miterlimit:4;" d="M 321.098958 217.802083 L 319.401042 216 L 318.401042 216.197917 " transform="matrix(0.75,0,0,0.75,0,0)"/>
<path style=" stroke:none;fill-rule:nonzero;fill:rgb(100%,0%,0%);fill-opacity:1;" d="M 127.351562 164.101562 C 127.351562 162.449219 127.75 161.175781 128.550781 160.273438 C 129.398438 159.324219 130.574219 158.851562 132.074219 158.851562 C 133.625 158.851562 134.800781 159.324219 135.601562 160.273438 C 136.449219 161.175781 136.875 162.449219 136.875 164.101562 C 136.875 165.800781 136.449219 167.125 135.601562 168.074219 C 134.800781 169.023438 133.625 169.5 132.074219 169.5 C 130.574219 169.5 129.398438 169.023438 128.550781 168.074219 C 127.75 167.125 127.351562 165.800781 127.351562 164.101562 M 132.074219 168.300781 C 133.175781 168.300781 134 167.949219 134.550781 167.25 C 135.101562 166.550781 135.375 165.5 135.375 164.101562 C 135.375 162.75 135.101562 161.75 134.550781 161.101562 C 134 160.398438 133.175781 160.050781 132.074219 160.050781 C 131.023438 160.050781 130.226562 160.375 129.675781 161.023438 C 129.125 161.726562 128.851562 162.75 128.851562 164.101562 C 128.851562 165.5 129.125 166.550781 129.675781 167.25 C 130.226562 167.949219 131.023438 168.300781 132.074219 168.300781 "/>
<path style=" stroke:none;fill-rule:nonzero;fill:rgb(80%,80%,0%);fill-opacity:1;" d="M 72.601562 131.476562 C 72.699219 131.476562 72.898438 131.550781 73.199219 131.699219 C 73.5 131.851562 73.824219 131.976562 74.175781 132.074219 C 74.574219 132.125 74.949219 132.148438 75.300781 132.148438 C 75.949219 132.148438 76.449219 132 76.800781 131.699219 C 77.199219 131.398438 77.398438 130.949219 77.398438 130.351562 C 77.398438 130 77.300781 129.699219 77.101562 129.449219 C 76.898438 129.199219 76.675781 129.023438 76.425781 128.925781 C 76.125 128.773438 75.726562 128.625 75.226562 128.476562 C 74.625 128.324219 74.125 128.148438 73.726562 127.949219 C 73.375 127.800781 73.074219 127.523438 72.824219 127.125 C 72.574219 126.773438 72.449219 126.273438 72.449219 125.625 C 72.449219 124.773438 72.726562 124.074219 73.273438 123.523438 C 73.875 123.023438 74.773438 122.773438 75.976562 122.773438 C 76.773438 122.773438 77.625 122.949219 78.523438 123.300781 L 78.148438 124.425781 C 77.351562 124.074219 76.625 123.898438 75.976562 123.898438 C 75.324219 123.898438 74.800781 124.050781 74.398438 124.351562 C 74.050781 124.648438 73.875 125.023438 73.875 125.476562 C 73.875 125.824219 73.976562 126.125 74.175781 126.375 C 74.375 126.574219 74.601562 126.75 74.851562 126.898438 C 75.148438 127.050781 75.523438 127.175781 75.976562 127.273438 C 76.625 127.476562 77.125 127.675781 77.476562 127.875 C 77.875 128.074219 78.199219 128.375 78.449219 128.773438 C 78.699219 129.175781 78.824219 129.699219 78.824219 130.351562 C 78.824219 131.351562 78.5 132.101562 77.851562 132.601562 C 77.25 133.101562 76.398438 133.351562 75.300781 133.351562 C 74.699219 133.351562 74.175781 133.273438 73.726562 133.125 C 73.273438 133.023438 72.773438 132.851562 72.226562 132.601562 L 72.601562 131.476562 "/>
<path style=" stroke:none;fill-rule:nonzero;fill:rgb(0%,0%,100%);fill-opacity:1;" d="M 114.976562 222.226562 L 116.398438 222.226562 L 116.398438 226.574219 L 121.648438 226.574219 L 121.648438 222.226562 L 123.074219 222.226562 L 123.074219 232.574219 L 121.648438 232.574219 L 121.648438 227.773438 L 116.398438 227.773438 L 116.398438 232.574219 L 114.976562 232.574219 L 114.976562 222.226562 "/>
<path style=" stroke:none;fill-rule:nonzero;fill:rgb(0%,0%,100%);fill-opacity:1;" d="M 126.75 222.226562 L 130.125 227.699219 C 130.375 228.050781 130.675781 228.550781 131.023438 229.199219 C 131.375 229.851562 131.574219 230.199219 131.625 230.25 L 131.625 222.226562 L 132.976562 222.226562 L 132.976562 232.574219 L 131.550781 232.574219 L 127.875 226.574219 C 127.625 226.074219 127.351562 225.574219 127.050781 225.074219 C 126.75 224.523438 126.550781 224.175781 126.449219 224.023438 L 126.449219 232.574219 L 125.101562 232.574219 L 125.101562 222.226562 L 126.75 222.226562 "/>
<path style=" stroke:none;fill-rule:nonzero;fill:rgb(100%,0%,0%);fill-opacity:1;" d="M 183.601562 292.800781 C 183.601562 291.148438 184.023438 289.851562 184.875 288.898438 C 185.675781 288 186.851562 287.550781 188.398438 287.550781 C 189.898438 287.550781 191.074219 288 191.925781 288.898438 C 192.726562 289.851562 193.125 291.148438 193.125 292.800781 C 193.125 294.449219 192.726562 295.75 191.925781 296.699219 C 191.074219 297.648438 189.898438 298.125 188.398438 298.125 C 186.851562 298.125 185.675781 297.648438 184.875 296.699219 C 184.023438 295.75 183.601562 294.449219 183.601562 292.800781 M 188.398438 297 C 189.449219 297 190.25 296.648438 190.800781 295.949219 C 191.398438 295.199219 191.699219 294.148438 191.699219 292.800781 C 191.699219 291.449219 191.398438 290.425781 190.800781 289.726562 C 190.25 289.023438 189.449219 288.675781 188.398438 288.675781 C 187.351562 288.675781 186.523438 289.023438 185.925781 289.726562 C 185.375 290.375 185.101562 291.398438 185.101562 292.800781 C 185.101562 294.199219 185.375 295.25 185.925781 295.949219 C 186.523438 296.648438 187.351562 297 188.398438 297 "/>
<path style=" stroke:none;fill-rule:nonzero;fill:rgb(0%,0%,100%);fill-opacity:1;" d="M 214.949219 226.5 L 218.324219 231.976562 C 218.574219 232.324219 218.875 232.824219 219.226562 233.476562 C 219.574219 234.125 219.75 234.476562 219.75 234.523438 L 219.75 226.5 L 221.175781 226.5 L 221.175781 236.851562 L 219.75 236.851562 L 216.074219 230.851562 C 215.824219 230.351562 215.550781 229.851562 215.25 229.351562 C 214.949219 228.800781 214.75 228.449219 214.648438 228.300781 L 214.648438 236.851562 L 213.300781 236.851562 L 213.300781 226.5 L 214.949219 226.5 "/>
<path style=" stroke:none;fill-rule:nonzero;fill:rgb(100%,0%,0%);fill-opacity:1;" d="M 261.601562 285.824219 C 261.601562 284.175781 262.023438 282.875 262.875 281.925781 C 263.675781 281.023438 264.851562 280.574219 266.398438 280.574219 C 267.898438 280.574219 269.074219 281.023438 269.925781 281.925781 C 270.726562 282.875 271.125 284.175781 271.125 285.824219 C 271.125 287.523438 270.726562 288.851562 269.925781 289.800781 C 269.074219 290.75 267.898438 291.226562 266.398438 291.226562 C 264.851562 291.226562 263.675781 290.75 262.875 289.800781 C 262.023438 288.851562 261.601562 287.523438 261.601562 285.824219 M 266.398438 290.023438 C 267.449219 290.023438 268.25 289.675781 268.800781 288.976562 C 269.398438 288.273438 269.699219 287.226562 269.699219 285.824219 C 269.699219 284.476562 269.398438 283.449219 268.800781 282.75 C 268.25 282.101562 267.449219 281.773438 266.398438 281.773438 C 265.351562 281.773438 264.523438 282.101562 263.925781 282.75 C 263.375 283.449219 263.101562 284.476562 263.101562 285.824219 C 263.101562 287.226562 263.375 288.273438 263.925781 288.976562 C 264.523438 289.675781 265.351562 290.023438 266.398438 290.023438 "/>
<path style=" stroke:none;fill-rule:nonzero;fill:rgb(100%,0%,0%);fill-opacity:1;" d="M 308.550781 243.300781 C 308.550781 241.601562 308.949219 240.300781 309.75 239.398438 C 310.601562 238.449219 311.773438 237.976562 313.273438 237.976562 C 314.824219 237.976562 316 238.449219 316.800781 239.398438 C 317.648438 240.300781 318.074219 241.601562 318.074219 243.300781 C 318.074219 244.949219 317.648438 246.25 316.800781 247.199219 C 316 248.148438 314.824219 248.625 313.273438 248.625 C 311.773438 248.625 310.601562 248.148438 309.75 247.199219 C 308.949219 246.25 308.550781 244.949219 308.550781 243.300781 M 313.273438 247.5 C 314.324219 247.5 315.148438 247.125 315.75 246.375 C 316.300781 245.675781 316.574219 244.648438 316.574219 243.300781 C 316.574219 241.898438 316.300781 240.875 315.75 240.226562 C 315.148438 239.523438 314.324219 239.175781 313.273438 239.175781 C 312.226562 239.175781 311.425781 239.523438 310.875 240.226562 C 310.273438 240.875 309.976562 241.898438 309.976562 243.300781 C 309.976562 244.648438 310.273438 245.675781 310.875 246.375 C 311.425781 247.125 312.226562 247.5 313.273438 247.5 "/>
<path style=" stroke:none;fill-rule:nonzero;fill:rgb(100%,0%,0%);fill-opacity:1;" d="M 319.5 239.699219 L 323.101562 239.699219 L 323.101562 240.449219 L 319.5 240.449219 L 319.5 239.699219 "/>
<path style=" stroke:none;fill-rule:nonzero;fill:rgb(0%,0%,100%);fill-opacity:1;" d="M 308.773438 141.300781 L 312.148438 146.773438 C 312.398438 147.175781 312.699219 147.699219 313.050781 148.351562 C 313.398438 149 313.574219 149.351562 313.574219 149.398438 L 313.574219 141.300781 L 315 141.300781 L 315 151.648438 L 313.574219 151.648438 L 309.898438 145.648438 C 309.648438 145.199219 309.351562 144.699219 309 144.148438 C 308.75 143.648438 308.574219 143.300781 308.476562 143.101562 L 308.476562 151.648438 L 307.125 151.648438 L 307.125 141.300781 L 308.773438 141.300781 "/>
<path style=" stroke:none;fill-rule:nonzero;fill:rgb(0%,0%,100%);fill-opacity:1;" d="M 316.949219 143.175781 L 318.75 143.175781 L 318.75 141.300781 L 319.574219 141.300781 L 319.574219 143.175781 L 321.449219 143.175781 L 321.449219 143.851562 L 319.574219 143.851562 L 319.574219 145.800781 L 318.75 145.800781 L 318.75 143.851562 L 316.949219 143.851562 L 316.949219 143.175781 "/>
<path style=" stroke:none;fill-rule:nonzero;fill:rgb(80%,80%,0%);fill-opacity:1;" d="M 200.925781 173.324219 C 200.976562 173.324219 201.175781 173.398438 201.523438 173.550781 C 201.824219 173.699219 202.148438 173.800781 202.5 173.851562 C 202.851562 173.949219 203.199219 174 203.550781 174 C 204.199219 174 204.726562 173.851562 205.125 173.550781 C 205.523438 173.199219 205.726562 172.75 205.726562 172.199219 C 205.726562 171.851562 205.625 171.550781 205.425781 171.300781 C 205.226562 171.050781 204.976562 170.875 204.675781 170.773438 C 204.375 170.625 203.976562 170.476562 203.476562 170.324219 C 202.875 170.125 202.398438 169.949219 202.050781 169.800781 C 201.699219 169.601562 201.375 169.324219 201.074219 168.976562 C 200.824219 168.625 200.699219 168.125 200.699219 167.476562 C 200.699219 166.625 201 165.925781 201.601562 165.375 C 202.199219 164.824219 203.074219 164.550781 204.226562 164.550781 C 205.023438 164.550781 205.875 164.75 206.773438 165.148438 L 206.476562 166.273438 C 205.625 165.925781 204.898438 165.75 204.300781 165.75 C 203.601562 165.75 203.074219 165.898438 202.726562 166.199219 C 202.375 166.449219 202.199219 166.824219 202.199219 167.324219 C 202.199219 167.675781 202.273438 167.976562 202.425781 168.226562 C 202.625 168.425781 202.875 168.601562 203.175781 168.75 C 203.425781 168.851562 203.800781 168.976562 204.300781 169.125 C 204.898438 169.324219 205.398438 169.523438 205.800781 169.726562 C 206.148438 169.925781 206.449219 170.226562 206.699219 170.625 C 207 171.023438 207.148438 171.550781 207.148438 172.199219 C 207.148438 173.148438 206.824219 173.898438 206.175781 174.449219 C 205.523438 174.949219 204.675781 175.199219 203.625 175.199219 C 203.023438 175.199219 202.476562 175.125 201.976562 174.976562 C 201.523438 174.824219 201.023438 174.648438 200.476562 174.449219 L 200.925781 173.324219 "/>
<path style=" stroke:none;fill-rule:nonzero;fill:rgb(0%,0%,0%);fill-opacity:1;" d="M 157.875 179.550781 L 159.226562 179.550781 L 159.226562 183.976562 L 164.550781 183.976562 L 164.550781 179.550781 L 165.976562 179.550781 L 165.976562 189.976562 L 164.550781 189.976562 L 164.550781 185.175781 L 159.226562 185.175781 L 159.226562 189.976562 L 157.875 189.976562 L 157.875 179.550781 "/>
</g>
</svg>
