<?xml version="1.0" encoding="UTF-8"?>
<svg xmlns="http://www.w3.org/2000/svg" xmlns:xlink="http://www.w3.org/1999/xlink" width="375pt" height="375pt" viewBox="0 0 375 375" version="1.1">
<g id="surface99">
<rect x="0" y="0" width="375" height="375" style="fill:rgb(100%,100%,100%);fill-opacity:1;stroke:none;"/>
<path style="fill:none;stroke-width:1;stroke-linecap:butt;stroke-linejoin:miter;stroke:rgb(0%,0%,0%);stroke-opacity:1;stroke-miterlimit:4;" d="M 141.697917 284.401042 L 141.098958 284.302083 " transform="matrix(0.75,0,0,0.75,0,0)"/>
<path style="fill:none;stroke-width:1;stroke-linecap:butt;stroke-linejoin:miter;stroke:rgb(0%,0%,0%);stroke-opacity:1;stroke-miterlimit:4;" d="M 141.401042 287.901042 L 140.098958 287.697917 " transform="matrix(0.75,0,0,0.75,0,0)"/>
<path style="fill:none;stroke-width:1;stroke-linecap:butt;stroke-linejoin:miter;stroke:rgb(0%,0%,0%);stroke-opacity:1;stroke-miterlimit:4;" d="M 141.098958 291.401042 L 139.197917 291 " transform="matrix(0.75,0,0,0.75,0,0)"/>
<path style="fill:none;stroke-width:1;stroke-linecap:butt;stroke-linejoin:miter;stroke:rgb(0%,0%,0%);stroke-opacity:1;stroke-miterlimit:4;" d="M 140.802083 294.901042 L 138.197917 294.401042 " transform="matrix(0.75,0,0,0.75,0,0)"/>
<path style="fill:none;stroke-width:1;stroke-linecap:butt;stroke-linejoin:miter;stroke:rgb(0%,0%,0%);stroke-opacity:1;stroke-miterlimit:4;" d="M 140.5 298.302083 L 137.302083 297.697917 " transform="matrix(0.75,0,0,0.75,0,0)"/>
<path style="fill:none;stroke-width:1;stroke-linecap:butt;stroke-linejoin:miter;stroke:rgb(0%,0%,100%);stroke-opacity:1;stroke-miterlimit:4;" d="M 140.197917 301.802083 L 136.302083 301.098958 " transform="matrix(0.75,0,0,0.75,0,0)"/>
<path style="fill:none;stroke-width:1;stroke-linecap:butt;stroke-linejoin:miter;stroke:rgb(0%,0%,100%);stroke-opacity:1;stroke-miterlimit:4;" d="M 139.901042 305.302083 L 135.401042 304.401042 " transform="matrix(0.75,0,0,0.75,0,0)"/>
<path style="fill:none;stroke-width:1;stroke-linecap:butt;stroke-linejoin:miter;stroke:rgb(0%,0%,100%);stroke-opacity:1;stroke-miterlimit:4;" d="M 139.598958 308.802083 L 134.401042 307.802083 " transform="matrix(0.75,0,0,0.75,0,0)"/>
<path style="fill:none;stroke-width:1;stroke-linecap:butt;stroke-linejoin:miter;stroke:rgb(0%,0%,100%);stroke-opacity:1;stroke-miterlimit:4;" d="M 139.302083 312.197917 L 133.5 311.197917 " transform="matrix(0.75,0,0,0.75,0,0)"/>
<path style="fill:none;stroke-width:1;stroke-linecap:butt;stroke-linejoin:miter;stroke:rgb(0%,0%,100%);stroke-opacity:1;stroke-miterlimit:4;" d="M 139 315.697917 L 132.5 314.5 " transform="matrix(0.75,0,0,0.75,0,0)"/>
<path style="fill:none;stroke-width:1;stroke-linecap:butt;stroke-linejoin:miter;stroke:rgb(0%,0%,100%);stroke-opacity:1;stroke-miterlimit:4;" d="M 138.697917 319.197917 L 131.598958 317.901042 " transform="matrix(0.75,0,0,0.75,0,0)"/>
<path style="fill:none;stroke-width:2;stroke-linecap:butt;stroke-linejoin:miter;stroke:rgb(0%,0%,0%);stroke-opacity:1;stroke-miterlimit:4;" d="M 142 281 L 187.697917 264.802083 " transform="matrix(0.75,0,0,0.75,0,0)"/>
<path style="fill:none;stroke-width:2;stroke-linecap:butt;stroke-linejoin:miter;stroke:rgb(0%,0%,0%);stroke-opacity:1;stroke-miterlimit:4;" d="M 190.901042 267.5 L 194.598958 247 " transform="matrix(0.75,0,0,0.75,0,0)"/>
<path style="fill:none;stroke-width:2;stroke-linecap:butt;stroke-linejoin:miter;stroke:rgb(100%,0%,0%);stroke-opacity:1;stroke-miterlimit:4;" d="M 194.598958 247 L 198.401042 226.5 " transform="matrix(0.75,0,0,0.75,0,0)"/>
<path style="fill:none;stroke-width:2;stroke-linecap:butt;stroke-linejoin:miter;stroke:rgb(0%,0%,0%);stroke-opacity:1;stroke-miterlimit:4;" d="M 183.697917 266.197917 L 187.5 245.697917 " transform="matrix(0.75,0,0,0.75,0,0)"/>
<path style="fill:none;stroke-width:2;stroke-linecap:butt;stroke-linejoin:miter;stroke:rgb(100%,0%,0%);stroke-opacity:1;stroke-miterlimit:4;" d="M 187.5 245.697917 L 191.302083 225.197917 " transform="matrix(0.75,0,0,0.75,0,0)"/>
<path style="fill:none;stroke-width:2;stroke-linecap:butt;stroke-linejoin:miter;stroke:rgb(0%,0%,0%);stroke-opacity:1;stroke-miterlimit:4;" d="M 187.697917 264.802083 L 202.697917 277.598958 " transform="matrix(0.75,0,0,0.75,0,0)"/>
<path style="fill:none;stroke-width:2;stroke-linecap:butt;stroke-linejoin:miter;stroke:rgb(0%,0%,100%);stroke-opacity:1;stroke-miterlimit:4;" d="M 202.697917 277.598958 L 217.697917 290.401042 " transform="matrix(0.75,0,0,0.75,0,0)"/>
<path style="fill-rule:evenodd;fill:rgb(0%,0%,0%);fill-opacity:1;stroke-width:0.5;stroke-linecap:butt;stroke-linejoin:miter;stroke:rgb(0%,0%,0%);stroke-opacity:1;stroke-miterlimit:4;" d="M 270.098958 279.901042 L 252.098958 288.302083 L 250.901042 284.901042 Z M 270.098958 279.901042 " transform="matrix(0.75,0,0,0.75,0,0)"/>
<path style="fill-rule:evenodd;fill:rgb(0%,0%,100%);fill-opacity:1;stroke-width:0.5;stroke-linecap:butt;stroke-linejoin:miter;stroke:rgb(0%,0%,100%);stroke-opacity:1;stroke-miterlimit:4;" d="M 252.098958 288.302083 L 231.697917 289.802083 L 234.098958 296.598958 Z M 252.098958 288.302083 " transform="matrix(0.75,0,0,0.75,0,0)"/>
<path style="fill-rule:evenodd;fill:rgb(0%,0%,100%);fill-opacity:1;stroke-width:0.5;stroke-linecap:butt;stroke-linejoin:miter;stroke:rgb(0%,0%,100%);stroke-opacity:1;stroke-miterlimit:4;" d="M 252.098958 288.302083 L 250.901042 284.901042 L 231.697917 289.802083 Z M 252.098958 288.302083 " transform="matrix(0.75,0,0,0.75,0,0)"/>
<path style="fill:none;stroke-width:2;stroke-linecap:butt;stroke-linejoin:miter;stroke:rgb(0%,0%,0%);stroke-opacity:1;stroke-miterlimit:4;" d="M 270.098958 279.901042 L 313.901042 300.697917 " transform="matrix(0.75,0,0,0.75,0,0)"/>
<path style="fill:none;stroke-width:2;stroke-linecap:butt;stroke-linejoin:miter;stroke:rgb(0%,0%,0%);stroke-opacity:1;stroke-miterlimit:4;" d="M 309.197917 298.5 L 316.401042 318.802083 " transform="matrix(0.75,0,0,0.75,0,0)"/>
<path style="fill:none;stroke-width:2;stroke-linecap:butt;stroke-linejoin:miter;stroke:rgb(100%,0%,0%);stroke-opacity:1;stroke-miterlimit:4;" d="M 316.401042 318.802083 L 323.598958 339.098958 " transform="matrix(0.75,0,0,0.75,0,0)"/>
<path style="fill:none;stroke-width:2;stroke-linecap:butt;stroke-linejoin:miter;stroke:rgb(0%,0%,0%);stroke-opacity:1;stroke-miterlimit:4;" d="M 316.098958 296.098958 L 323.302083 316.401042 " transform="matrix(0.75,0,0,0.75,0,0)"/>
<path style="fill:none;stroke-width:2;stroke-linecap:butt;stroke-linejoin:miter;stroke:rgb(100%,0%,0%);stroke-opacity:1;stroke-miterlimit:4;" d="M 323.302083 316.401042 L 330.5 336.598958 " transform="matrix(0.75,0,0,0.75,0,0)"/>
<path style="fill:none;stroke-width:2;stroke-linecap:butt;stroke-linejoin:miter;stroke:rgb(0%,0%,0%);stroke-opacity:1;stroke-miterlimit:4;" d="M 313.901042 300.697917 L 322.197917 283.098958 " transform="matrix(0.75,0,0,0.75,0,0)"/>
<path style="fill:none;stroke-width:2;stroke-linecap:butt;stroke-linejoin:miter;stroke:rgb(0%,0%,100%);stroke-opacity:1;stroke-miterlimit:4;" d="M 322.197917 283.098958 L 330.598958 265.5 " transform="matrix(0.75,0,0,0.75,0,0)"/>
<path style="fill:none;stroke-width:2;stroke-linecap:butt;stroke-linejoin:miter;stroke:rgb(0%,0%,100%);stroke-opacity:1;stroke-miterlimit:4;" d="M 341.401042 252.302083 L 358 241 " transform="matrix(0.75,0,0,0.75,0,0)"/>
<path style="fill:none;stroke-width:2;stroke-linecap:butt;stroke-linejoin:miter;stroke:rgb(0%,0%,0%);stroke-opacity:1;stroke-miterlimit:4;" d="M 358 241 L 374.5 229.598958 " transform="matrix(0.75,0,0,0.75,0,0)"/>
<path style="fill:none;stroke-width:2;stroke-linecap:butt;stroke-linejoin:miter;stroke:rgb(0%,0%,0%);stroke-opacity:1;stroke-miterlimit:4;" d="M 374.5 229.598958 L 418.197917 250.401042 " transform="matrix(0.75,0,0,0.75,0,0)"/>
<path style="fill:none;stroke-width:2;stroke-linecap:butt;stroke-linejoin:miter;stroke:rgb(0%,0%,0%);stroke-opacity:1;stroke-miterlimit:4;" d="M 414.5 248.598958 L 416.098958 269.5 " transform="matrix(0.75,0,0,0.75,0,0)"/>
<path style="fill:none;stroke-width:2;stroke-linecap:butt;stroke-linejoin:miter;stroke:rgb(100%,0%,0%);stroke-opacity:1;stroke-miterlimit:4;" d="M 416.098958 269.5 L 417.802083 290.401042 " transform="matrix(0.75,0,0,0.75,0,0)"/>
<path style="fill:none;stroke-width:2;stroke-linecap:butt;stroke-linejoin:miter;stroke:rgb(0%,0%,0%);stroke-opacity:1;stroke-miterlimit:4;" d="M 421.697917 248 L 423.401042 268.901042 " transform="matrix(0.75,0,0,0.75,0,0)"/>
<path style="fill:none;stroke-width:2;stroke-linecap:butt;stroke-linejoin:miter;stroke:rgb(100%,0%,0%);stroke-opacity:1;stroke-miterlimit:4;" d="M 423.401042 268.901042 L 425 289.802083 " transform="matrix(0.75,0,0,0.75,0,0)"/>
<path style="fill:none;stroke-width:2;stroke-linecap:butt;stroke-linejoin:miter;stroke:rgb(0%,0%,0%);stroke-opacity:1;stroke-miterlimit:4;" d="M 418.197917 250.401042 L 434.197917 239.302083 " transform="matrix(0.75,0,0,0.75,0,0)"/>
<path style="fill:none;stroke-width:2;stroke-linecap:butt;stroke-linejoin:miter;stroke:rgb(100%,0%,0%);stroke-opacity:1;stroke-miterlimit:4;" d="M 434.197917 239.302083 L 450.197917 228.302083 " transform="matrix(0.75,0,0,0.75,0,0)"/>
<path style="fill:none;stroke-width:2;stroke-linecap:butt;stroke-linejoin:miter;stroke:rgb(0%,0%,0%);stroke-opacity:1;stroke-miterlimit:4;" d="M 374.5 229.598958 L 370.697917 181.302083 " transform="matrix(0.75,0,0,0.75,0,0)"/>
<path style="fill:none;stroke-width:2;stroke-linecap:butt;stroke-linejoin:miter;stroke:rgb(0%,0%,0%);stroke-opacity:1;stroke-miterlimit:4;" d="M 367 226 L 363.802083 186.098958 " transform="matrix(0.75,0,0,0.75,0,0)"/>
<path style="fill:none;stroke-width:2;stroke-linecap:butt;stroke-linejoin:miter;stroke:rgb(0%,0%,0%);stroke-opacity:1;stroke-miterlimit:4;" d="M 370.697917 181.302083 L 387.197917 169.901042 " transform="matrix(0.75,0,0,0.75,0,0)"/>
<path style="fill:none;stroke-width:2;stroke-linecap:butt;stroke-linejoin:miter;stroke:rgb(0%,80%,0%);stroke-opacity:1;stroke-miterlimit:4;" d="M 387.197917 169.901042 L 403.697917 158.598958 " transform="matrix(0.75,0,0,0.75,0,0)"/>
<path style="fill:none;stroke-width:2;stroke-linecap:butt;stroke-linejoin:miter;stroke:rgb(0%,0%,0%);stroke-opacity:1;stroke-miterlimit:4;" d="M 370.697917 181.302083 L 327 160.5 " transform="matrix(0.75,0,0,0.75,0,0)"/>
<path style="fill:none;stroke-width:2;stroke-linecap:butt;stroke-linejoin:miter;stroke:rgb(0%,0%,0%);stroke-opacity:1;stroke-miterlimit:4;" d="M 327 160.5 L 310 172.197917 " transform="matrix(0.75,0,0,0.75,0,0)"/>
<path style="fill:none;stroke-width:2;stroke-linecap:butt;stroke-linejoin:miter;stroke:rgb(80%,80%,0%);stroke-opacity:1;stroke-miterlimit:4;" d="M 310 172.197917 L 293.098958 183.802083 " transform="matrix(0.75,0,0,0.75,0,0)"/>
<path style="fill:none;stroke-width:2;stroke-linecap:butt;stroke-linejoin:miter;stroke:rgb(80%,80%,0%);stroke-opacity:1;stroke-miterlimit:4;" d="M 287.802083 196.802083 L 289.401042 216.5 " transform="matrix(0.75,0,0,0.75,0,0)"/>
<path style="fill:none;stroke-width:2;stroke-linecap:butt;stroke-linejoin:miter;stroke:rgb(0%,0%,0%);stroke-opacity:1;stroke-miterlimit:4;" d="M 289.401042 216.5 L 290.901042 236.197917 " transform="matrix(0.75,0,0,0.75,0,0)"/>
<path style="fill:none;stroke-width:2;stroke-linecap:butt;stroke-linejoin:miter;stroke:rgb(0%,0%,0%);stroke-opacity:1;stroke-miterlimit:4;" d="M 142 281 L 105.197917 249.598958 " transform="matrix(0.75,0,0,0.75,0,0)"/>
<path style="fill:none;stroke-width:2;stroke-linecap:butt;stroke-linejoin:miter;stroke:rgb(0%,0%,0%);stroke-opacity:1;stroke-miterlimit:4;" d="M 105.197917 249.598958 L 114 201.901042 " transform="matrix(0.75,0,0,0.75,0,0)"/>
<path style="fill:none;stroke-width:2;stroke-linecap:butt;stroke-linejoin:miter;stroke:rgb(0%,0%,0%);stroke-opacity:1;stroke-miterlimit:4;" d="M 98.802083 244.098958 L 106.098958 204.802083 " transform="matrix(0.75,0,0,0.75,0,0)"/>
<path style="fill:none;stroke-width:2;stroke-linecap:butt;stroke-linejoin:miter;stroke:rgb(0%,0%,0%);stroke-opacity:1;stroke-miterlimit:4;" d="M 114 201.901042 L 77.098958 170.5 " transform="matrix(0.75,0,0,0.75,0,0)"/>
<path style="fill:none;stroke-width:2;stroke-linecap:butt;stroke-linejoin:miter;stroke:rgb(0%,0%,0%);stroke-opacity:1;stroke-miterlimit:4;" d="M 77.098958 170.5 L 31.5 186.697917 " transform="matrix(0.75,0,0,0.75,0,0)"/>
<path style="fill:none;stroke-width:2;stroke-linecap:butt;stroke-linejoin:miter;stroke:rgb(0%,0%,0%);stroke-opacity:1;stroke-miterlimit:4;" d="M 75.598958 178.802083 L 37.901042 192.197917 " transform="matrix(0.75,0,0,0.75,0,0)"/>
<path style="fill:none;stroke-width:2;stroke-linecap:butt;stroke-linejoin:miter;stroke:rgb(0%,0%,0%);stroke-opacity:1;stroke-miterlimit:4;" d="M 31.5 186.697917 L 22.697917 234.401042 " transform="matrix(0.75,0,0,0.75,0,0)"/>
<path style="fill:none;stroke-width:2;stroke-linecap:butt;stroke-linejoin:miter;stroke:rgb(0%,0%,0%);stroke-opacity:1;stroke-miterlimit:4;" d="M 22.697917 234.401042 L 59.598958 265.802083 " transform="matrix(0.75,0,0,0.75,0,0)"/>
<path style="fill:none;stroke-width:2;stroke-linecap:butt;stroke-linejoin:miter;stroke:rgb(0%,0%,0%);stroke-opacity:1;stroke-miterlimit:4;" d="M 30.598958 231.598958 L 61.098958 257.5 " transform="matrix(0.75,0,0,0.75,0,0)"/>
<path style="fill:none;stroke-width:2;stroke-linecap:butt;stroke-linejoin:miter;stroke:rgb(0%,0%,0%);stroke-opacity:1;stroke-miterlimit:4;" d="M 290.901042 236.197917 L 270.098958 279.901042 " transform="matrix(0.75,0,0,0.75,0,0)"/>
<path style="fill:none;stroke-width:2;stroke-linecap:butt;stroke-linejoin:miter;stroke:rgb(0%,0%,0%);stroke-opacity:1;stroke-miterlimit:4;" d="M 59.598958 265.802083 L 105.197917 249.598958 " transform="matrix(0.75,0,0,0.75,0,0)"/>
<path style="fill:none;stroke-width:2;stroke-linecap:butt;stroke-linejoin:miter;stroke:rgb(0%,0%,0%);stroke-opacity:1;stroke-miterlimit:4;" d="M 290.901042 236.197917 L 309.401042 245 " transform="matrix(0.75,0,0,0.75,0,0)"/>
<path style="fill:none;stroke-width:2;stroke-linecap:butt;stroke-linejoin:miter;stroke:rgb(0%,0%,100%);stroke-opacity:1;stroke-miterlimit:4;" d="M 309.401042 245 L 327.901042 253.802083 " transform="matrix(0.75,0,0,0.75,0,0)"/>
<path style="fill:none;stroke-width:1;stroke-linecap:butt;stroke-linejoin:miter;stroke:rgb(0%,0%,0%);stroke-opacity:1;stroke-miterlimit:4;" d="M 287.302083 235.901042 L 287.401042 235.197917 " transform="matrix(0.75,0,0,0.75,0,0)"/>
<path style="fill:none;stroke-width:1;stroke-linecap:butt;stroke-linejoin:miter;stroke:rgb(0%,0%,0%);stroke-opacity:1;stroke-miterlimit:4;" d="M 283.697917 235.598958 L 284 234.302083 " transform="matrix(0.75,0,0,0.75,0,0)"/>
<path style="fill:none;stroke-width:1;stroke-linecap:butt;stroke-linejoin:miter;stroke:rgb(0%,0%,0%);stroke-opacity:1;stroke-miterlimit:4;" d="M 280.098958 235.197917 L 280.5 233.302083 " transform="matrix(0.75,0,0,0.75,0,0)"/>
<path style="fill:none;stroke-width:1;stroke-linecap:butt;stroke-linejoin:miter;stroke:rgb(0%,0%,0%);stroke-opacity:1;stroke-miterlimit:4;" d="M 276.5 234.901042 L 277 232.302083 " transform="matrix(0.75,0,0,0.75,0,0)"/>
<path style="fill:none;stroke-width:1;stroke-linecap:butt;stroke-linejoin:miter;stroke:rgb(0%,0%,0%);stroke-opacity:1;stroke-miterlimit:4;" d="M 272.901042 234.598958 L 273.5 231.302083 " transform="matrix(0.75,0,0,0.75,0,0)"/>
<path style="fill:none;stroke-width:1;stroke-linecap:butt;stroke-linejoin:miter;stroke:rgb(0%,0%,0%);stroke-opacity:1;stroke-miterlimit:4;" d="M 269.302083 234.302083 L 270 230.401042 " transform="matrix(0.75,0,0,0.75,0,0)"/>
<path style="fill:none;stroke-width:1;stroke-linecap:butt;stroke-linejoin:miter;stroke:rgb(0%,0%,0%);stroke-opacity:1;stroke-miterlimit:4;" d="M 265.697917 233.901042 L 266.5 229.401042 " transform="matrix(0.75,0,0,0.75,0,0)"/>
<path style="fill:none;stroke-width:1;stroke-linecap:butt;stroke-linejoin:miter;stroke:rgb(0%,0%,0%);stroke-opacity:1;stroke-miterlimit:4;" d="M 262.098958 233.598958 L 263 228.401042 " transform="matrix(0.75,0,0,0.75,0,0)"/>
<path style="fill:none;stroke-width:1;stroke-linecap:butt;stroke-linejoin:miter;stroke:rgb(0%,0%,0%);stroke-opacity:1;stroke-miterlimit:4;" d="M 258.401042 233.302083 L 259.5 227.401042 " transform="matrix(0.75,0,0,0.75,0,0)"/>
<path style="fill:none;stroke-width:1;stroke-linecap:butt;stroke-linejoin:miter;stroke:rgb(0%,0%,0%);stroke-opacity:1;stroke-miterlimit:4;" d="M 254.802083 232.901042 L 256 226.401042 " transform="matrix(0.75,0,0,0.75,0,0)"/>
<path style="fill:none;stroke-width:1;stroke-linecap:butt;stroke-linejoin:miter;stroke:rgb(0%,0%,0%);stroke-opacity:1;stroke-miterlimit:4;" d="M 251.197917 232.598958 L 252.5 225.5 " transform="matrix(0.75,0,0,0.75,0,0)"/>
<path style="fill:none;stroke-width:2;stroke-linecap:butt;stroke-linejoin:miter;stroke:rgb(0%,0%,0%);stroke-opacity:1;stroke-miterlimit:4;" d="M 144.302083 280.197917 L 142 281 L 140.197917 279.401042 " transform="matrix(0.75,0,0,0.75,0,0)"/>
<path style="fill:none;stroke-width:2;stroke-linecap:butt;stroke-linejoin:miter;stroke:rgb(0%,0%,0%);stroke-opacity:1;stroke-miterlimit:4;" d="M 185.401042 265.598958 L 187.697917 264.802083 L 188.401042 265.401042 " transform="matrix(0.75,0,0,0.75,0,0)"/>
<path style="fill:none;stroke-width:2;stroke-linecap:butt;stroke-linejoin:miter;stroke:rgb(0%,0%,0%);stroke-opacity:1;stroke-miterlimit:4;" d="M 272.302083 281 L 270.098958 279.901042 L 271.197917 277.802083 " transform="matrix(0.75,0,0,0.75,0,0)"/>
<path style="fill:none;stroke-width:2;stroke-linecap:butt;stroke-linejoin:miter;stroke:rgb(0%,0%,0%);stroke-opacity:1;stroke-miterlimit:4;" d="M 311.697917 299.697917 L 313.901042 300.697917 L 314.302083 299.901042 " transform="matrix(0.75,0,0,0.75,0,0)"/>
<path style="fill:none;stroke-width:2;stroke-linecap:butt;stroke-linejoin:miter;stroke:rgb(0%,0%,0%);stroke-opacity:1;stroke-miterlimit:4;" d="M 416.098958 249.302083 L 418.197917 250.401042 L 419 249.802083 " transform="matrix(0.75,0,0,0.75,0,0)"/>
<path style="fill:none;stroke-width:2;stroke-linecap:butt;stroke-linejoin:miter;stroke:rgb(0%,0%,0%);stroke-opacity:1;stroke-miterlimit:4;" d="M 329.098958 161.5 L 327 160.5 L 326.098958 161.098958 " transform="matrix(0.75,0,0,0.75,0,0)"/>
<path style="fill:none;stroke-width:2;stroke-linecap:butt;stroke-linejoin:miter;stroke:rgb(0%,0%,0%);stroke-opacity:1;stroke-miterlimit:4;" d="M 113.5 204.302083 L 114 201.901042 L 112.098958 200.401042 " transform="matrix(0.75,0,0,0.75,0,0)"/>
<path style="fill:none;stroke-width:2;stroke-linecap:butt;stroke-linejoin:miter;stroke:rgb(0%,0%,0%);stroke-opacity:1;stroke-miterlimit:4;" d="M 79 172.098958 L 77.098958 170.5 L 74.802083 171.401042 " transform="matrix(0.75,0,0,0.75,0,0)"/>
<path style="fill:none;stroke-width:2;stroke-linecap:butt;stroke-linejoin:miter;stroke:rgb(0%,0%,0%);stroke-opacity:1;stroke-miterlimit:4;" d="M 33.802083 185.901042 L 31.5 186.697917 L 31.098958 189.098958 " transform="matrix(0.75,0,0,0.75,0,0)"/>
<path style="fill:none;stroke-width:2;stroke-linecap:butt;stroke-linejoin:miter;stroke:rgb(0%,0%,0%);stroke-opacity:1;stroke-miterlimit:4;" d="M 23.197917 232 L 22.697917 234.401042 L 24.598958 235.901042 " transform="matrix(0.75,0,0,0.75,0,0)"/>
<path style="fill:none;stroke-width:2;stroke-linecap:butt;stroke-linejoin:miter;stroke:rgb(0%,0%,0%);stroke-opacity:1;stroke-miterlimit:4;" d="M 57.697917 264.197917 L 59.598958 265.802083 L 61.901042 265 " transform="matrix(0.75,0,0,0.75,0,0)"/>
<path style=" stroke:none;fill-rule:nonzero;fill:rgb(0%,0%,100%);fill-opacity:1;" d="M 97.648438 241.273438 L 101.023438 246.75 C 101.273438 247.101562 101.574219 247.601562 101.925781 248.25 C 102.273438 248.898438 102.476562 249.25 102.523438 249.300781 L 102.523438 241.273438 L 103.875 241.273438 L 103.875 251.550781 L 102.449219 251.550781 L 98.851562 245.625 C 98.550781 245.175781 98.25 244.675781 97.949219 244.125 C 97.648438 243.574219 97.476562 243.226562 97.425781 243.074219 L 97.425781 251.550781 L 96.074219 251.550781 L 96.074219 241.273438 L 97.648438 241.273438 "/>
<path style=" stroke:none;fill-rule:nonzero;fill:rgb(0%,0%,100%);fill-opacity:1;" d="M 105.824219 241.273438 L 107.175781 241.273438 L 107.175781 245.625 L 112.5 245.625 L 112.5 241.273438 L 113.851562 241.273438 L 113.851562 251.550781 L 112.5 251.550781 L 112.5 246.824219 L 107.175781 246.824219 L 107.175781 251.550781 L 105.824219 251.550781 L 105.824219 241.273438 "/>
<path style=" stroke:none;fill-rule:nonzero;fill:rgb(0%,0%,100%);fill-opacity:1;" d="M 115.875 251.25 C 116.023438 250.800781 116.300781 250.449219 116.699219 250.199219 C 117.101562 249.949219 117.574219 249.824219 118.125 249.824219 C 118.824219 249.824219 119.375 250.023438 119.773438 250.425781 C 120.125 250.773438 120.300781 251.273438 120.300781 251.925781 C 120.300781 252.625 120.050781 253.273438 119.550781 253.875 C 119.050781 254.523438 118.300781 255.226562 117.300781 255.976562 L 120.449219 255.976562 L 120.449219 256.726562 L 115.875 256.726562 L 115.875 256.050781 C 116.726562 255.449219 117.398438 254.925781 117.898438 254.476562 C 118.398438 254.023438 118.773438 253.601562 119.023438 253.199219 C 119.226562 252.800781 119.324219 252.398438 119.324219 252 C 119.324219 251.550781 119.226562 251.199219 119.023438 250.949219 C 118.824219 250.75 118.523438 250.648438 118.125 250.648438 C 117.773438 250.648438 117.476562 250.726562 117.226562 250.875 C 116.976562 250.976562 116.773438 251.199219 116.625 251.550781 L 115.875 251.25 "/>
<path style=" stroke:none;fill-rule:nonzero;fill:rgb(100%,0%,0%);fill-opacity:1;" d="M 142.574219 162.898438 C 142.574219 161.25 143 159.949219 143.851562 159 C 144.648438 158.101562 145.800781 157.648438 147.300781 157.648438 C 148.851562 157.648438 150.023438 158.101562 150.824219 159 C 151.625 159.949219 152.023438 161.25 152.023438 162.898438 C 152.023438 164.550781 151.625 165.851562 150.824219 166.800781 C 149.976562 167.75 148.800781 168.226562 147.300781 168.226562 C 145.800781 168.226562 144.648438 167.75 143.851562 166.800781 C 143 165.851562 142.574219 164.550781 142.574219 162.898438 M 147.300781 167.023438 C 148.351562 167.023438 149.175781 166.675781 149.773438 165.976562 C 150.324219 165.273438 150.601562 164.25 150.601562 162.898438 C 150.601562 161.550781 150.324219 160.523438 149.773438 159.824219 C 149.175781 159.175781 148.351562 158.851562 147.300781 158.851562 C 146.25 158.851562 145.449219 159.175781 144.898438 159.824219 C 144.351562 160.523438 144.074219 161.550781 144.074219 162.898438 C 144.074219 164.25 144.351562 165.273438 144.898438 165.976562 C 145.449219 166.675781 146.25 167.023438 147.300781 167.023438 "/>
<path style=" stroke:none;fill-rule:nonzero;fill:rgb(0%,0%,100%);fill-opacity:1;" d="M 166.125 216.976562 L 169.5 222.449219 C 169.699219 222.800781 169.976562 223.300781 170.324219 223.949219 C 170.726562 224.601562 170.925781 224.949219 170.925781 225 L 170.925781 216.976562 L 172.273438 216.976562 L 172.273438 227.25 L 170.851562 227.25 L 167.25 221.324219 C 167 220.824219 166.726562 220.324219 166.425781 219.824219 C 166.125 219.273438 165.925781 218.925781 165.824219 218.773438 L 165.824219 227.25 L 164.476562 227.25 L 164.476562 216.976562 L 166.125 216.976562 "/>
<path style=" stroke:none;fill-rule:nonzero;fill:rgb(0%,0%,100%);fill-opacity:1;" d="M 164.324219 228.300781 L 165.75 228.300781 L 165.75 232.648438 L 171 232.648438 L 171 228.300781 L 172.425781 228.300781 L 172.425781 238.574219 L 171 238.574219 L 171 233.851562 L 165.75 233.851562 L 165.75 238.574219 L 164.324219 238.574219 L 164.324219 228.300781 "/>
<path style=" stroke:none;fill-rule:nonzero;fill:rgb(100%,0%,0%);fill-opacity:1;" d="M 242.851562 259.800781 C 242.851562 258.148438 243.25 256.875 244.050781 255.976562 C 244.851562 255.023438 246.023438 254.550781 247.574219 254.550781 C 249.074219 254.550781 250.226562 255.023438 251.023438 255.976562 C 251.875 256.875 252.300781 258.148438 252.300781 259.800781 C 252.300781 261.449219 251.875 262.75 251.023438 263.699219 C 250.226562 264.648438 249.074219 265.125 247.574219 265.125 C 246.023438 265.125 244.851562 264.648438 244.050781 263.699219 C 243.25 262.800781 242.851562 261.5 242.851562 259.800781 M 247.574219 264 C 248.625 264 249.425781 263.648438 249.976562 262.949219 C 250.523438 262.25 250.800781 261.199219 250.800781 259.800781 C 250.800781 258.449219 250.523438 257.449219 249.976562 256.800781 C 249.425781 256.101562 248.625 255.75 247.574219 255.75 C 246.523438 255.75 245.699219 256.074219 245.101562 256.726562 C 244.550781 257.425781 244.273438 258.449219 244.273438 259.800781 C 244.273438 261.199219 244.550781 262.25 245.101562 262.949219 C 245.699219 263.648438 246.523438 264 247.574219 264 "/>
<path style=" stroke:none;fill-rule:nonzero;fill:rgb(0%,0%,100%);fill-opacity:1;" d="M 248.699219 187.648438 L 252.074219 193.050781 C 252.324219 193.398438 252.625 193.898438 252.976562 194.550781 C 253.324219 195.199219 253.5 195.550781 253.5 195.601562 L 253.5 187.648438 L 254.925781 187.648438 L 254.925781 197.925781 L 253.5 197.925781 L 249.898438 191.925781 C 249.601562 191.476562 249.300781 190.976562 249 190.425781 C 248.699219 189.925781 248.5 189.601562 248.398438 189.449219 L 248.398438 197.925781 L 247.125 197.925781 L 247.125 187.648438 L 248.699219 187.648438 "/>
<path style=" stroke:none;fill-rule:nonzero;fill:rgb(100%,0%,0%);fill-opacity:1;" d="M 311.851562 224.023438 C 311.851562 222.375 312.25 221.074219 313.050781 220.125 C 313.898438 219.226562 315.074219 218.773438 316.574219 218.773438 C 318.074219 218.773438 319.25 219.226562 320.101562 220.125 C 320.898438 221.074219 321.300781 222.375 321.300781 224.023438 C 321.300781 225.675781 320.875 226.976562 320.023438 227.925781 C 319.226562 228.875 318.074219 229.351562 316.574219 229.351562 C 315.074219 229.351562 313.898438 228.875 313.050781 227.925781 C 312.25 226.976562 311.851562 225.675781 311.851562 224.023438 M 316.574219 228.148438 C 317.625 228.148438 318.425781 227.800781 318.976562 227.101562 C 319.574219 226.398438 319.875 225.375 319.875 224.023438 C 319.875 222.675781 319.574219 221.648438 318.976562 220.949219 C 318.425781 220.25 317.625 219.898438 316.574219 219.898438 C 315.523438 219.898438 314.726562 220.25 314.175781 220.949219 C 313.574219 221.601562 313.273438 222.625 313.273438 224.023438 C 313.273438 225.375 313.574219 226.398438 314.175781 227.101562 C 314.726562 227.800781 315.523438 228.148438 316.574219 228.148438 "/>
<path style=" stroke:none;fill-rule:nonzero;fill:rgb(100%,0%,0%);fill-opacity:1;" d="M 338.851562 167.175781 C 338.851562 165.523438 339.25 164.25 340.050781 163.351562 C 340.898438 162.449219 342.074219 162 343.574219 162 C 345.125 162 346.300781 162.449219 347.101562 163.351562 C 347.898438 164.25 348.300781 165.523438 348.300781 167.175781 C 348.300781 168.875 347.898438 170.199219 347.101562 171.148438 C 346.25 172.050781 345.074219 172.5 343.574219 172.5 C 342.074219 172.5 340.898438 172.050781 340.050781 171.148438 C 339.25 170.199219 338.851562 168.875 338.851562 167.175781 M 343.574219 171.375 C 344.625 171.375 345.425781 171.023438 345.976562 170.324219 C 346.574219 169.625 346.875 168.574219 346.875 167.175781 C 346.875 165.824219 346.574219 164.824219 345.976562 164.175781 C 345.425781 163.476562 344.625 163.125 343.574219 163.125 C 342.523438 163.125 341.726562 163.476562 341.175781 164.175781 C 340.625 164.824219 340.351562 165.824219 340.351562 167.175781 C 340.351562 168.574219 340.625 169.625 341.175781 170.324219 C 341.726562 171.023438 342.523438 171.375 343.574219 171.375 "/>
<path style=" stroke:none;fill-rule:nonzero;fill:rgb(100%,0%,0%);fill-opacity:1;" d="M 349.875 162.074219 L 351.300781 162.074219 L 351.300781 166.425781 L 356.550781 166.425781 L 356.550781 162.074219 L 357.976562 162.074219 L 357.976562 172.351562 L 356.550781 172.351562 L 356.550781 167.625 L 351.300781 167.625 L 351.300781 172.351562 L 349.875 172.351562 L 349.875 162.074219 "/>
<path style=" stroke:none;fill-rule:nonzero;fill:rgb(0%,80%,0%);fill-opacity:1;" d="M 303.976562 115.726562 C 303.976562 114.023438 304.351562 112.726562 305.101562 111.824219 C 305.949219 110.925781 307.125 110.476562 308.625 110.476562 C 310.023438 110.476562 311.101562 110.976562 311.851562 111.976562 L 310.949219 112.800781 C 310.398438 112.050781 309.625 111.675781 308.625 111.675781 C 307.574219 111.675781 306.773438 112.023438 306.226562 112.726562 C 305.675781 113.425781 305.398438 114.425781 305.398438 115.726562 C 305.398438 117.074219 305.699219 118.101562 306.300781 118.800781 C 306.851562 119.5 307.675781 119.851562 308.773438 119.851562 C 309.523438 119.851562 310.351562 119.625 311.25 119.175781 L 311.625 120.300781 C 311.273438 120.5 310.824219 120.675781 310.273438 120.824219 C 309.726562 120.976562 309.148438 121.050781 308.550781 121.050781 C 307.101562 121.050781 305.949219 120.574219 305.101562 119.625 C 304.351562 118.726562 303.976562 117.425781 303.976562 115.726562 "/>
<path style=" stroke:none;fill-rule:nonzero;fill:rgb(0%,80%,0%);fill-opacity:1;" d="M 312.898438 109.875 L 314.25 109.875 L 314.25 120.898438 L 312.898438 120.898438 L 312.898438 109.875 "/>
<path style=" stroke:none;fill-rule:nonzero;fill:rgb(80%,80%,0%);fill-opacity:1;" d="M 212.398438 144.523438 C 212.5 144.523438 212.699219 144.601562 213 144.75 C 213.300781 144.898438 213.625 145 213.976562 145.050781 C 214.375 145.148438 214.75 145.199219 215.101562 145.199219 C 215.75 145.199219 216.25 145.050781 216.601562 144.75 C 217 144.398438 217.199219 143.949219 217.199219 143.398438 C 217.199219 143.050781 217.101562 142.75 216.898438 142.5 C 216.699219 142.300781 216.449219 142.125 216.148438 141.976562 C 215.851562 141.875 215.476562 141.75 215.023438 141.601562 C 214.425781 141.398438 213.925781 141.199219 213.523438 141 C 213.175781 140.851562 212.875 140.601562 212.625 140.25 C 212.375 139.851562 212.25 139.351562 212.25 138.75 C 212.25 137.898438 212.523438 137.199219 213.074219 136.648438 C 213.675781 136.101562 214.550781 135.824219 215.699219 135.824219 C 216.5 135.824219 217.351562 136.023438 218.25 136.425781 L 217.949219 137.550781 C 217.101562 137.199219 216.375 137.023438 215.773438 137.023438 C 215.125 137.023438 214.601562 137.175781 214.199219 137.476562 C 213.851562 137.726562 213.675781 138.101562 213.675781 138.601562 C 213.675781 138.949219 213.773438 139.226562 213.976562 139.425781 C 214.175781 139.675781 214.398438 139.851562 214.648438 139.949219 C 214.949219 140.101562 215.324219 140.25 215.773438 140.398438 C 216.375 140.601562 216.875 140.773438 217.273438 140.925781 C 217.625 141.125 217.925781 141.425781 218.175781 141.824219 C 218.476562 142.226562 218.625 142.75 218.625 143.398438 C 218.625 144.351562 218.300781 145.101562 217.648438 145.648438 C 217 146.148438 216.148438 146.398438 215.101562 146.398438 C 214.5 146.398438 213.976562 146.324219 213.523438 146.175781 C 213.074219 146.023438 212.574219 145.851562 212.023438 145.648438 L 212.398438 144.523438 "/>
<path style=" stroke:none;fill-rule:nonzero;fill:rgb(0%,0%,0%);fill-opacity:1;" d="M 178.5 165.449219 L 179.851562 165.449219 L 179.851562 169.800781 L 185.101562 169.800781 L 185.101562 165.449219 L 186.523438 165.449219 L 186.523438 175.726562 L 185.101562 175.726562 L 185.101562 171 L 179.851562 171 L 179.851562 175.726562 L 178.5 175.726562 L 178.5 165.449219 "/>
</g>
</svg>
