<?xml version="1.0" encoding="UTF-8"?>
<svg xmlns="http://www.w3.org/2000/svg" xmlns:xlink="http://www.w3.org/1999/xlink" width="375pt" height="375pt" viewBox="0 0 375 375" version="1.1">
<g id="surface206">
<rect x="0" y="0" width="375" height="375" style="fill:rgb(100%,100%,100%);fill-opacity:1;stroke:none;"/>
<path style="fill:none;stroke-width:2;stroke-linecap:butt;stroke-linejoin:miter;stroke:rgb(0%,0%,0%);stroke-opacity:1;stroke-miterlimit:4;" d="M 79.598958 145.401042 L 88.5 161.5 " transform="matrix(0.75,0,0,0.75,0,0)"/>
<path style="fill:none;stroke-width:2;stroke-linecap:butt;stroke-linejoin:miter;stroke:rgb(100%,0%,0%);stroke-opacity:1;stroke-miterlimit:4;" d="M 88.5 161.5 L 97.401042 177.5 " transform="matrix(0.75,0,0,0.75,0,0)"/>
<path style="fill:none;stroke-width:2;stroke-linecap:butt;stroke-linejoin:miter;stroke:rgb(100%,0%,0%);stroke-opacity:1;stroke-miterlimit:4;" d="M 109.401042 185.802083 L 125.401042 186.098958 " transform="matrix(0.75,0,0,0.75,0,0)"/>
<path style="fill:none;stroke-width:2;stroke-linecap:butt;stroke-linejoin:miter;stroke:rgb(0%,0%,100%);stroke-opacity:1;stroke-miterlimit:4;" d="M 125.401042 186.098958 L 141.5 186.302083 " transform="matrix(0.75,0,0,0.75,0,0)"/>
<path style="fill:none;stroke-width:2;stroke-linecap:butt;stroke-linejoin:miter;stroke:rgb(0%,0%,100%);stroke-opacity:1;stroke-miterlimit:4;" d="M 152.401042 194.5 L 161.302083 210.598958 " transform="matrix(0.75,0,0,0.75,0,0)"/>
<path style="fill:none;stroke-width:2;stroke-linecap:butt;stroke-linejoin:miter;stroke:rgb(0%,0%,0%);stroke-opacity:1;stroke-miterlimit:4;" d="M 161.302083 210.598958 L 170.302083 226.697917 " transform="matrix(0.75,0,0,0.75,0,0)"/>
<path style="fill:none;stroke-width:2;stroke-linecap:butt;stroke-linejoin:miter;stroke:rgb(0%,0%,100%);stroke-opacity:1;stroke-miterlimit:4;" d="M 148 200.697917 L 155.098958 213.697917 " transform="matrix(0.75,0,0,0.75,0,0)"/>
<path style="fill:none;stroke-width:2;stroke-linecap:butt;stroke-linejoin:miter;stroke:rgb(0%,0%,0%);stroke-opacity:1;stroke-miterlimit:4;" d="M 155.098958 213.697917 L 162.302083 226.598958 " transform="matrix(0.75,0,0,0.75,0,0)"/>
<path style="fill:none;stroke-width:2;stroke-linecap:butt;stroke-linejoin:miter;stroke:rgb(0%,0%,0%);stroke-opacity:1;stroke-miterlimit:4;" d="M 170.302083 226.697917 L 216.302083 227.5 " transform="matrix(0.75,0,0,0.75,0,0)"/>
<path style="fill:none;stroke-width:2;stroke-linecap:butt;stroke-linejoin:miter;stroke:rgb(0%,0%,0%);stroke-opacity:1;stroke-miterlimit:4;" d="M 218.302083 231 L 228.197917 214.598958 " transform="matrix(0.75,0,0,0.75,0,0)"/>
<path style="fill:none;stroke-width:2;stroke-linecap:butt;stroke-linejoin:miter;stroke:rgb(100%,0%,0%);stroke-opacity:1;stroke-miterlimit:4;" d="M 228.197917 214.598958 L 238 198.197917 " transform="matrix(0.75,0,0,0.75,0,0)"/>
<path style="fill:none;stroke-width:2;stroke-linecap:butt;stroke-linejoin:miter;stroke:rgb(0%,0%,0%);stroke-opacity:1;stroke-miterlimit:4;" d="M 212.401042 227.5 L 222.197917 211 " transform="matrix(0.75,0,0,0.75,0,0)"/>
<path style="fill:none;stroke-width:2;stroke-linecap:butt;stroke-linejoin:miter;stroke:rgb(100%,0%,0%);stroke-opacity:1;stroke-miterlimit:4;" d="M 222.197917 211 L 232.098958 194.598958 " transform="matrix(0.75,0,0,0.75,0,0)"/>
<path style="fill:none;stroke-width:2;stroke-linecap:butt;stroke-linejoin:miter;stroke:rgb(0%,0%,0%);stroke-opacity:1;stroke-miterlimit:4;" d="M 216.302083 227.5 L 225.302083 243.697917 " transform="matrix(0.75,0,0,0.75,0,0)"/>
<path style="fill:none;stroke-width:2;stroke-linecap:butt;stroke-linejoin:miter;stroke:rgb(0%,0%,100%);stroke-opacity:1;stroke-miterlimit:4;" d="M 225.302083 243.697917 L 234.197917 259.802083 " transform="matrix(0.75,0,0,0.75,0,0)"/>
<path style="fill-rule:evenodd;fill:rgb(0%,0%,0%);fill-opacity:1;stroke-width:0.5;stroke-linecap:butt;stroke-linejoin:miter;stroke:rgb(0%,0%,0%);stroke-opacity:1;stroke-miterlimit:4;" d="M 284.697917 268.598958 L 265.697917 270 L 265.697917 266.598958 Z M 284.697917 268.598958 " transform="matrix(0.75,0,0,0.75,0,0)"/>
<path style="fill-rule:evenodd;fill:rgb(0%,0%,100%);fill-opacity:1;stroke-width:0.5;stroke-linecap:butt;stroke-linejoin:miter;stroke:rgb(0%,0%,100%);stroke-opacity:1;stroke-miterlimit:4;" d="M 265.697917 270 L 246.697917 264.5 L 246.598958 271.401042 Z M 265.697917 270 " transform="matrix(0.75,0,0,0.75,0,0)"/>
<path style="fill-rule:evenodd;fill:rgb(0%,0%,100%);fill-opacity:1;stroke-width:0.5;stroke-linecap:butt;stroke-linejoin:miter;stroke:rgb(0%,0%,100%);stroke-opacity:1;stroke-miterlimit:4;" d="M 265.697917 270 L 265.697917 266.598958 L 246.697917 264.5 Z M 265.697917 270 " transform="matrix(0.75,0,0,0.75,0,0)"/>
<path style="fill:none;stroke-width:2;stroke-linecap:butt;stroke-linejoin:miter;stroke:rgb(0%,0%,0%);stroke-opacity:1;stroke-miterlimit:4;" d="M 284.697917 268.598958 L 316.697917 301.802083 " transform="matrix(0.75,0,0,0.75,0,0)"/>
<path style="fill:none;stroke-width:2;stroke-linecap:butt;stroke-linejoin:miter;stroke:rgb(0%,0%,0%);stroke-opacity:1;stroke-miterlimit:4;" d="M 313.401042 298.302083 L 313 319 " transform="matrix(0.75,0,0,0.75,0,0)"/>
<path style="fill:none;stroke-width:2;stroke-linecap:butt;stroke-linejoin:miter;stroke:rgb(100%,0%,0%);stroke-opacity:1;stroke-miterlimit:4;" d="M 313 319 L 312.598958 339.697917 " transform="matrix(0.75,0,0,0.75,0,0)"/>
<path style="fill:none;stroke-width:2;stroke-linecap:butt;stroke-linejoin:miter;stroke:rgb(0%,0%,0%);stroke-opacity:1;stroke-miterlimit:4;" d="M 320.302083 298.401042 L 319.901042 319.098958 " transform="matrix(0.75,0,0,0.75,0,0)"/>
<path style="fill:none;stroke-width:2;stroke-linecap:butt;stroke-linejoin:miter;stroke:rgb(100%,0%,0%);stroke-opacity:1;stroke-miterlimit:4;" d="M 319.901042 319.098958 L 319.5 339.802083 " transform="matrix(0.75,0,0,0.75,0,0)"/>
<path style="fill:none;stroke-width:2;stroke-linecap:butt;stroke-linejoin:miter;stroke:rgb(0%,0%,0%);stroke-opacity:1;stroke-miterlimit:4;" d="M 316.697917 301.802083 L 330.098958 288.901042 " transform="matrix(0.75,0,0,0.75,0,0)"/>
<path style="fill:none;stroke-width:2;stroke-linecap:butt;stroke-linejoin:miter;stroke:rgb(0%,0%,100%);stroke-opacity:1;stroke-miterlimit:4;" d="M 330.098958 288.901042 L 343.401042 276 " transform="matrix(0.75,0,0,0.75,0,0)"/>
<path style="fill:none;stroke-width:2;stroke-linecap:butt;stroke-linejoin:miter;stroke:rgb(0%,0%,100%);stroke-opacity:1;stroke-miterlimit:4;" d="M 356.401042 268.197917 L 375.5 263.401042 " transform="matrix(0.75,0,0,0.75,0,0)"/>
<path style="fill:none;stroke-width:2;stroke-linecap:butt;stroke-linejoin:miter;stroke:rgb(0%,0%,0%);stroke-opacity:1;stroke-miterlimit:4;" d="M 375.5 263.401042 L 394.598958 258.598958 " transform="matrix(0.75,0,0,0.75,0,0)"/>
<path style="fill:none;stroke-width:2;stroke-linecap:butt;stroke-linejoin:miter;stroke:rgb(0%,0%,0%);stroke-opacity:1;stroke-miterlimit:4;" d="M 394.598958 258.598958 L 426.598958 291.802083 " transform="matrix(0.75,0,0,0.75,0,0)"/>
<path style="fill:none;stroke-width:2;stroke-linecap:butt;stroke-linejoin:miter;stroke:rgb(0%,0%,0%);stroke-opacity:1;stroke-miterlimit:4;" d="M 425.5 295.598958 L 445 290.697917 " transform="matrix(0.75,0,0,0.75,0,0)"/>
<path style="fill:none;stroke-width:2;stroke-linecap:butt;stroke-linejoin:miter;stroke:rgb(100%,0%,0%);stroke-opacity:1;stroke-miterlimit:4;" d="M 445 290.697917 L 464.598958 285.802083 " transform="matrix(0.75,0,0,0.75,0,0)"/>
<path style="fill:none;stroke-width:2;stroke-linecap:butt;stroke-linejoin:miter;stroke:rgb(0%,0%,0%);stroke-opacity:1;stroke-miterlimit:4;" d="M 423.802083 288.901042 L 443.401042 284 " transform="matrix(0.75,0,0,0.75,0,0)"/>
<path style="fill:none;stroke-width:2;stroke-linecap:butt;stroke-linejoin:miter;stroke:rgb(100%,0%,0%);stroke-opacity:1;stroke-miterlimit:4;" d="M 443.401042 284 L 462.901042 279.098958 " transform="matrix(0.75,0,0,0.75,0,0)"/>
<path style="fill:none;stroke-width:2;stroke-linecap:butt;stroke-linejoin:miter;stroke:rgb(0%,0%,0%);stroke-opacity:1;stroke-miterlimit:4;" d="M 426.598958 291.802083 L 421.401042 309.802083 " transform="matrix(0.75,0,0,0.75,0,0)"/>
<path style="fill:none;stroke-width:2;stroke-linecap:butt;stroke-linejoin:miter;stroke:rgb(100%,0%,0%);stroke-opacity:1;stroke-miterlimit:4;" d="M 421.401042 309.802083 L 416.197917 327.901042 " transform="matrix(0.75,0,0,0.75,0,0)"/>
<path style="fill:none;stroke-width:2;stroke-linecap:butt;stroke-linejoin:miter;stroke:rgb(0%,0%,0%);stroke-opacity:1;stroke-miterlimit:4;" d="M 394.598958 258.598958 L 407.302083 214.302083 " transform="matrix(0.75,0,0,0.75,0,0)"/>
<path style="fill:none;stroke-width:2;stroke-linecap:butt;stroke-linejoin:miter;stroke:rgb(0%,0%,0%);stroke-opacity:1;stroke-miterlimit:4;" d="M 389 252.901042 L 399.5 216.302083 " transform="matrix(0.75,0,0,0.75,0,0)"/>
<path style="fill:none;stroke-width:2;stroke-linecap:butt;stroke-linejoin:miter;stroke:rgb(0%,0%,0%);stroke-opacity:1;stroke-miterlimit:4;" d="M 407.302083 214.302083 L 452 203.197917 " transform="matrix(0.75,0,0,0.75,0,0)"/>
<path style="fill:none;stroke-width:2;stroke-linecap:butt;stroke-linejoin:miter;stroke:rgb(0%,0%,0%);stroke-opacity:1;stroke-miterlimit:4;" d="M 407.302083 214.302083 L 375.302083 181.197917 " transform="matrix(0.75,0,0,0.75,0,0)"/>
<path style="fill:none;stroke-width:2;stroke-linecap:butt;stroke-linejoin:miter;stroke:rgb(0%,0%,0%);stroke-opacity:1;stroke-miterlimit:4;" d="M 375.302083 181.197917 L 355.802083 186.098958 " transform="matrix(0.75,0,0,0.75,0,0)"/>
<path style="fill:none;stroke-width:2;stroke-linecap:butt;stroke-linejoin:miter;stroke:rgb(80%,80%,0%);stroke-opacity:1;stroke-miterlimit:4;" d="M 355.802083 186.098958 L 336.302083 190.901042 " transform="matrix(0.75,0,0,0.75,0,0)"/>
<path style="fill:none;stroke-width:2;stroke-linecap:butt;stroke-linejoin:miter;stroke:rgb(80%,80%,0%);stroke-opacity:1;stroke-miterlimit:4;" d="M 328.197917 200.697917 L 323 218.697917 " transform="matrix(0.75,0,0,0.75,0,0)"/>
<path style="fill:none;stroke-width:2;stroke-linecap:butt;stroke-linejoin:miter;stroke:rgb(0%,0%,0%);stroke-opacity:1;stroke-miterlimit:4;" d="M 323 218.697917 L 317.901042 236.598958 " transform="matrix(0.75,0,0,0.75,0,0)"/>
<path style="fill:none;stroke-width:2;stroke-linecap:butt;stroke-linejoin:miter;stroke:rgb(0%,0%,0%);stroke-opacity:1;stroke-miterlimit:4;" d="M 170.302083 226.697917 L 146.598958 266.197917 " transform="matrix(0.75,0,0,0.75,0,0)"/>
<path style="fill:none;stroke-width:2;stroke-linecap:butt;stroke-linejoin:miter;stroke:rgb(0%,0%,0%);stroke-opacity:1;stroke-miterlimit:4;" d="M 146.598958 266.197917 L 164.598958 308.598958 " transform="matrix(0.75,0,0,0.75,0,0)"/>
<path style="fill:none;stroke-width:2;stroke-linecap:butt;stroke-linejoin:miter;stroke:rgb(0%,0%,0%);stroke-opacity:1;stroke-miterlimit:4;" d="M 142.197917 273.598958 L 156.197917 306.697917 " transform="matrix(0.75,0,0,0.75,0,0)"/>
<path style="fill:none;stroke-width:2;stroke-linecap:butt;stroke-linejoin:miter;stroke:rgb(0%,0%,0%);stroke-opacity:1;stroke-miterlimit:4;" d="M 164.598958 308.598958 L 150 321.302083 " transform="matrix(0.75,0,0,0.75,0,0)"/>
<path style="fill:none;stroke-width:2;stroke-linecap:butt;stroke-linejoin:miter;stroke:rgb(80%,80%,0%);stroke-opacity:1;stroke-miterlimit:4;" d="M 150 321.302083 L 135.5 333.901042 " transform="matrix(0.75,0,0,0.75,0,0)"/>
<path style="fill:none;stroke-width:2;stroke-linecap:butt;stroke-linejoin:miter;stroke:rgb(80%,80%,0%);stroke-opacity:1;stroke-miterlimit:4;" d="M 124.098958 335.401042 L 107.197917 325.302083 " transform="matrix(0.75,0,0,0.75,0,0)"/>
<path style="fill:none;stroke-width:2;stroke-linecap:butt;stroke-linejoin:miter;stroke:rgb(0%,0%,0%);stroke-opacity:1;stroke-miterlimit:4;" d="M 107.197917 325.302083 L 90.302083 315.098958 " transform="matrix(0.75,0,0,0.75,0,0)"/>
<path style="fill:none;stroke-width:2;stroke-linecap:butt;stroke-linejoin:miter;stroke:rgb(0%,0%,0%);stroke-opacity:1;stroke-miterlimit:4;" d="M 90.302083 315.098958 L 72.302083 322.802083 " transform="matrix(0.75,0,0,0.75,0,0)"/>
<path style="fill:none;stroke-width:2;stroke-linecap:butt;stroke-linejoin:miter;stroke:rgb(0%,0%,100%);stroke-opacity:1;stroke-miterlimit:4;" d="M 72.302083 322.802083 L 54.401042 330.401042 " transform="matrix(0.75,0,0,0.75,0,0)"/>
<path style="fill:none;stroke-width:2;stroke-linecap:butt;stroke-linejoin:miter;stroke:rgb(0%,0%,0%);stroke-opacity:1;stroke-miterlimit:4;" d="M 90.302083 315.098958 L 94.598958 296.697917 " transform="matrix(0.75,0,0,0.75,0,0)"/>
<path style="fill:none;stroke-width:2;stroke-linecap:butt;stroke-linejoin:miter;stroke:rgb(0%,0%,100%);stroke-opacity:1;stroke-miterlimit:4;" d="M 94.598958 296.697917 L 98.802083 278.302083 " transform="matrix(0.75,0,0,0.75,0,0)"/>
<path style="fill:none;stroke-width:2;stroke-linecap:butt;stroke-linejoin:miter;stroke:rgb(0%,0%,0%);stroke-opacity:1;stroke-miterlimit:4;" d="M 98.197917 311.802083 L 101.901042 295.802083 " transform="matrix(0.75,0,0,0.75,0,0)"/>
<path style="fill:none;stroke-width:2;stroke-linecap:butt;stroke-linejoin:miter;stroke:rgb(0%,0%,100%);stroke-opacity:1;stroke-miterlimit:4;" d="M 101.901042 295.802083 L 105.5 279.802083 " transform="matrix(0.75,0,0,0.75,0,0)"/>
<path style="fill:none;stroke-width:2;stroke-linecap:butt;stroke-linejoin:miter;stroke:rgb(0%,0%,0%);stroke-opacity:1;stroke-miterlimit:4;" d="M 317.901042 236.598958 L 284.697917 268.598958 " transform="matrix(0.75,0,0,0.75,0,0)"/>
<path style="fill:none;stroke-width:2;stroke-linecap:butt;stroke-linejoin:miter;stroke:rgb(0%,0%,100%);stroke-opacity:1;stroke-miterlimit:4;" d="M 107.098958 269.697917 L 126.901042 268 " transform="matrix(0.75,0,0,0.75,0,0)"/>
<path style="fill:none;stroke-width:2;stroke-linecap:butt;stroke-linejoin:miter;stroke:rgb(0%,0%,0%);stroke-opacity:1;stroke-miterlimit:4;" d="M 126.901042 268 L 146.598958 266.197917 " transform="matrix(0.75,0,0,0.75,0,0)"/>
<path style="fill:none;stroke-width:2;stroke-linecap:butt;stroke-linejoin:miter;stroke:rgb(0%,0%,0%);stroke-opacity:1;stroke-miterlimit:4;" d="M 317.901042 236.598958 L 330.598958 249.901042 " transform="matrix(0.75,0,0,0.75,0,0)"/>
<path style="fill:none;stroke-width:2;stroke-linecap:butt;stroke-linejoin:miter;stroke:rgb(0%,0%,100%);stroke-opacity:1;stroke-miterlimit:4;" d="M 330.598958 249.901042 L 343.401042 263.098958 " transform="matrix(0.75,0,0,0.75,0,0)"/>
<path style="fill:none;stroke-width:1;stroke-linecap:butt;stroke-linejoin:miter;stroke:rgb(0%,0%,0%);stroke-opacity:1;stroke-miterlimit:4;" d="M 314.598958 235 L 314.901042 234.5 " transform="matrix(0.75,0,0,0.75,0,0)"/>
<path style="fill:none;stroke-width:1;stroke-linecap:butt;stroke-linejoin:miter;stroke:rgb(0%,0%,0%);stroke-opacity:1;stroke-miterlimit:4;" d="M 311.302083 233.5 L 312 232.302083 " transform="matrix(0.75,0,0,0.75,0,0)"/>
<path style="fill:none;stroke-width:1;stroke-linecap:butt;stroke-linejoin:miter;stroke:rgb(0%,0%,0%);stroke-opacity:1;stroke-miterlimit:4;" d="M 307.901042 231.901042 L 309 230.098958 " transform="matrix(0.75,0,0,0.75,0,0)"/>
<path style="fill:none;stroke-width:1;stroke-linecap:butt;stroke-linejoin:miter;stroke:rgb(0%,0%,0%);stroke-opacity:1;stroke-miterlimit:4;" d="M 304.598958 230.302083 L 306.098958 227.901042 " transform="matrix(0.75,0,0,0.75,0,0)"/>
<path style="fill:none;stroke-width:1;stroke-linecap:butt;stroke-linejoin:miter;stroke:rgb(0%,0%,0%);stroke-opacity:1;stroke-miterlimit:4;" d="M 301.302083 228.697917 L 303.098958 225.697917 " transform="matrix(0.75,0,0,0.75,0,0)"/>
<path style="fill:none;stroke-width:1;stroke-linecap:butt;stroke-linejoin:miter;stroke:rgb(0%,0%,0%);stroke-opacity:1;stroke-miterlimit:4;" d="M 298 227.098958 L 300.098958 223.598958 " transform="matrix(0.75,0,0,0.75,0,0)"/>
<path style="fill:none;stroke-width:1;stroke-linecap:butt;stroke-linejoin:miter;stroke:rgb(0%,0%,0%);stroke-opacity:1;stroke-miterlimit:4;" d="M 294.697917 225.5 L 297.197917 221.401042 " transform="matrix(0.75,0,0,0.75,0,0)"/>
<path style="fill:none;stroke-width:1;stroke-linecap:butt;stroke-linejoin:miter;stroke:rgb(0%,0%,0%);stroke-opacity:1;stroke-miterlimit:4;" d="M 291.401042 223.901042 L 294.197917 219.197917 " transform="matrix(0.75,0,0,0.75,0,0)"/>
<path style="fill:none;stroke-width:1;stroke-linecap:butt;stroke-linejoin:miter;stroke:rgb(0%,0%,0%);stroke-opacity:1;stroke-miterlimit:4;" d="M 288.098958 222.401042 L 291.302083 217 " transform="matrix(0.75,0,0,0.75,0,0)"/>
<path style="fill:none;stroke-width:1;stroke-linecap:butt;stroke-linejoin:miter;stroke:rgb(0%,0%,0%);stroke-opacity:1;stroke-miterlimit:4;" d="M 284.802083 220.802083 L 288.302083 214.802083 " transform="matrix(0.75,0,0,0.75,0,0)"/>
<path style="fill:none;stroke-width:2;stroke-linecap:butt;stroke-linejoin:miter;stroke:rgb(0%,0%,0%);stroke-opacity:1;stroke-miterlimit:4;" d="M 214 227.5 L 216.302083 227.5 L 216.802083 228.401042 " transform="matrix(0.75,0,0,0.75,0,0)"/>
<path style="fill:none;stroke-width:2;stroke-linecap:butt;stroke-linejoin:miter;stroke:rgb(0%,0%,0%);stroke-opacity:1;stroke-miterlimit:4;" d="M 286.302083 270.302083 L 284.697917 268.598958 L 286.401042 267 " transform="matrix(0.75,0,0,0.75,0,0)"/>
<path style="fill:none;stroke-width:2;stroke-linecap:butt;stroke-linejoin:miter;stroke:rgb(0%,0%,0%);stroke-opacity:1;stroke-miterlimit:4;" d="M 315.098958 300.098958 L 316.697917 301.802083 L 317.401042 301.098958 " transform="matrix(0.75,0,0,0.75,0,0)"/>
<path style="fill:none;stroke-width:2;stroke-linecap:butt;stroke-linejoin:miter;stroke:rgb(0%,0%,0%);stroke-opacity:1;stroke-miterlimit:4;" d="M 425 290.098958 L 426.598958 291.802083 L 426.302083 292.697917 " transform="matrix(0.75,0,0,0.75,0,0)"/>
<path style="fill:none;stroke-width:2;stroke-linecap:butt;stroke-linejoin:miter;stroke:rgb(0%,0%,0%);stroke-opacity:1;stroke-miterlimit:4;" d="M 376.901042 182.901042 L 375.302083 181.197917 L 374.302083 181.401042 " transform="matrix(0.75,0,0,0.75,0,0)"/>
<path style="fill:none;stroke-width:2;stroke-linecap:butt;stroke-linejoin:miter;stroke:rgb(0%,0%,0%);stroke-opacity:1;stroke-miterlimit:4;" d="M 163.697917 306.5 L 164.598958 308.598958 L 163.802083 309.302083 " transform="matrix(0.75,0,0,0.75,0,0)"/>
<path style=" stroke:none;fill-rule:nonzero;fill:rgb(100%,0%,0%);fill-opacity:1;" d="M 71.925781 139.273438 C 71.925781 137.726562 72.324219 136.5 73.125 135.601562 C 73.875 134.75 74.976562 134.324219 76.425781 134.324219 C 77.875 134.324219 78.976562 134.75 79.726562 135.601562 C 80.523438 136.5 80.925781 137.726562 80.925781 139.273438 C 80.925781 140.875 80.523438 142.125 79.726562 143.023438 C 78.925781 143.925781 77.824219 144.375 76.425781 144.375 C 74.976562 144.375 73.875 143.925781 73.125 143.023438 C 72.324219 142.125 71.925781 140.875 71.925781 139.273438 M 76.425781 143.25 C 77.425781 143.25 78.199219 142.925781 78.75 142.273438 C 79.25 141.574219 79.5 140.574219 79.5 139.273438 C 79.5 137.976562 79.25 137 78.75 136.351562 C 78.199219 135.699219 77.425781 135.375 76.425781 135.375 C 75.425781 135.375 74.648438 135.699219 74.101562 136.351562 C 73.550781 137 73.273438 137.976562 73.273438 139.273438 C 73.273438 140.574219 73.550781 141.574219 74.101562 142.273438 C 74.648438 142.925781 75.425781 143.25 76.425781 143.25 "/>
<path style=" stroke:none;fill-rule:nonzero;fill:rgb(0%,0%,100%);fill-opacity:1;" d="M 108.824219 134.925781 L 111.976562 140.101562 C 112.226562 140.449219 112.5 140.949219 112.800781 141.601562 C 113.148438 142.199219 113.351562 142.523438 113.398438 142.574219 L 113.398438 134.925781 L 114.675781 134.925781 L 114.675781 144.75 L 113.324219 144.75 L 109.875 139.050781 C 109.625 138.601562 109.351562 138.125 109.050781 137.625 C 108.800781 137.125 108.625 136.800781 108.523438 136.648438 L 108.523438 144.75 L 107.25 144.75 L 107.25 134.925781 L 108.824219 134.925781 "/>
<path style=" stroke:none;fill-rule:nonzero;fill:rgb(100%,0%,0%);fill-opacity:1;" d="M 175.574219 141.074219 C 175.574219 139.523438 175.949219 138.300781 176.699219 137.398438 C 177.5 136.550781 178.625 136.125 180.074219 136.125 C 181.523438 136.125 182.625 136.550781 183.375 137.398438 C 184.175781 138.300781 184.574219 139.523438 184.574219 141.074219 C 184.574219 142.675781 184.175781 143.925781 183.375 144.824219 C 182.574219 145.726562 181.476562 146.175781 180.074219 146.175781 C 178.625 146.175781 177.5 145.726562 176.699219 144.824219 C 175.949219 143.925781 175.574219 142.675781 175.574219 141.074219 M 180.074219 145.050781 C 181.074219 145.050781 181.824219 144.726562 182.324219 144.074219 C 182.875 143.375 183.148438 142.375 183.148438 141.074219 C 183.148438 139.773438 182.875 138.800781 182.324219 138.148438 C 181.824219 137.5 181.074219 137.175781 180.074219 137.175781 C 179.074219 137.175781 178.300781 137.5 177.75 138.148438 C 177.199219 138.800781 176.925781 139.773438 176.925781 141.074219 C 176.925781 142.375 177.199219 143.375 177.75 144.074219 C 178.300781 144.726562 179.074219 145.050781 180.074219 145.050781 "/>
<path style=" stroke:none;fill-rule:nonzero;fill:rgb(0%,0%,100%);fill-opacity:1;" d="M 165.75 195.976562 L 167.023438 195.976562 L 167.023438 200.175781 L 172.050781 200.175781 L 172.050781 195.976562 L 173.398438 195.976562 L 173.398438 205.800781 L 172.050781 205.800781 L 172.050781 201.226562 L 167.023438 201.226562 L 167.023438 205.800781 L 165.75 205.800781 L 165.75 195.976562 "/>
<path style=" stroke:none;fill-rule:nonzero;fill:rgb(0%,0%,100%);fill-opacity:1;" d="M 176.851562 195.976562 L 180.074219 201.148438 C 180.273438 201.5 180.550781 201.976562 180.898438 202.574219 C 181.25 203.226562 181.425781 203.550781 181.425781 203.550781 L 181.425781 195.976562 L 182.699219 195.976562 L 182.699219 205.800781 L 181.351562 205.800781 L 177.976562 200.101562 C 177.675781 199.648438 177.398438 199.175781 177.148438 198.675781 C 176.851562 198.175781 176.648438 197.851562 176.550781 197.699219 L 176.550781 205.800781 L 175.273438 205.800781 L 175.273438 195.976562 L 176.851562 195.976562 "/>
<path style=" stroke:none;fill-rule:nonzero;fill:rgb(100%,0%,0%);fill-opacity:1;" d="M 232.5 260.925781 C 232.5 259.324219 232.875 258.101562 233.625 257.25 C 234.425781 256.351562 235.523438 255.898438 236.925781 255.898438 C 238.375 255.898438 239.5 256.351562 240.300781 257.25 C 241.050781 258.101562 241.425781 259.324219 241.425781 260.925781 C 241.425781 262.476562 241.050781 263.699219 240.300781 264.601562 C 239.5 265.5 238.375 265.949219 236.925781 265.949219 C 235.523438 265.949219 234.425781 265.5 233.625 264.601562 C 232.875 263.75 232.5 262.523438 232.5 260.925781 M 236.925781 264.898438 C 237.925781 264.898438 238.699219 264.550781 239.25 263.851562 C 239.800781 263.199219 240.074219 262.226562 240.074219 260.925781 C 240.074219 259.625 239.800781 258.648438 239.25 258 C 238.699219 257.351562 237.925781 257.023438 236.925781 257.023438 C 235.976562 257.023438 235.226562 257.351562 234.675781 258 C 234.125 258.648438 233.851562 259.625 233.851562 260.925781 C 233.851562 262.226562 234.125 263.199219 234.675781 263.851562 C 235.226562 264.550781 235.976562 264.898438 236.925781 264.898438 "/>
<path style=" stroke:none;fill-rule:nonzero;fill:rgb(0%,0%,100%);fill-opacity:1;" d="M 260.25 197.398438 L 263.476562 202.648438 C 263.675781 202.949219 263.949219 203.425781 264.300781 204.074219 C 264.648438 204.675781 264.824219 205 264.824219 205.050781 L 264.824219 197.398438 L 266.101562 197.398438 L 266.101562 207.226562 L 264.75 207.226562 L 261.375 201.523438 C 261.074219 201.125 260.800781 200.648438 260.550781 200.101562 C 260.25 199.601562 260.050781 199.273438 259.949219 199.125 L 259.949219 207.226562 L 258.675781 207.226562 L 258.675781 197.398438 L 260.25 197.398438 "/>
<path style=" stroke:none;fill-rule:nonzero;fill:rgb(100%,0%,0%);fill-opacity:1;" d="M 348.976562 210.523438 C 348.976562 208.925781 349.351562 207.699219 350.101562 206.851562 C 350.898438 205.949219 352.023438 205.5 353.476562 205.5 C 354.925781 205.5 356.023438 205.949219 356.773438 206.851562 C 357.574219 207.699219 357.976562 208.925781 357.976562 210.523438 C 357.976562 212.074219 357.574219 213.300781 356.773438 214.199219 C 355.976562 215.101562 354.875 215.550781 353.476562 215.550781 C 352.023438 215.550781 350.898438 215.101562 350.101562 214.199219 C 349.351562 213.300781 348.976562 212.074219 348.976562 210.523438 M 353.476562 214.425781 C 354.476562 214.425781 355.226562 214.101562 355.726562 213.449219 C 356.273438 212.800781 356.550781 211.824219 356.550781 210.523438 C 356.550781 209.226562 356.273438 208.25 355.726562 207.601562 C 355.226562 206.949219 354.476562 206.625 353.476562 206.625 C 352.476562 206.625 351.699219 206.949219 351.148438 207.601562 C 350.601562 208.25 350.324219 209.226562 350.324219 210.523438 C 350.324219 211.824219 350.601562 212.800781 351.148438 213.449219 C 351.699219 214.101562 352.476562 214.425781 353.476562 214.425781 "/>
<path style=" stroke:none;fill-rule:nonzero;fill:rgb(100%,0%,0%);fill-opacity:1;" d="M 305.925781 252.074219 C 305.925781 250.476562 306.300781 249.25 307.050781 248.398438 C 307.851562 247.5 308.976562 247.050781 310.425781 247.050781 C 311.875 247.050781 312.976562 247.5 313.726562 248.398438 C 314.523438 249.25 314.925781 250.476562 314.925781 252.074219 C 314.925781 253.675781 314.523438 254.925781 313.726562 255.824219 C 312.925781 256.675781 311.824219 257.101562 310.425781 257.101562 C 308.976562 257.101562 307.851562 256.675781 307.050781 255.824219 C 306.300781 254.925781 305.925781 253.675781 305.925781 252.074219 M 310.425781 256.050781 C 311.425781 256.050781 312.175781 255.699219 312.675781 255 C 313.226562 254.351562 313.5 253.375 313.5 252.074219 C 313.5 250.773438 313.226562 249.800781 312.675781 249.148438 C 312.175781 248.5 311.425781 248.175781 310.425781 248.175781 C 309.425781 248.175781 308.648438 248.5 308.101562 249.148438 C 307.550781 249.800781 307.273438 250.773438 307.273438 252.074219 C 307.273438 253.375 307.550781 254.351562 308.101562 255 C 308.648438 255.699219 309.425781 256.050781 310.425781 256.050781 "/>
<path style=" stroke:none;fill-rule:nonzero;fill:rgb(100%,0%,0%);fill-opacity:1;" d="M 316.425781 247.199219 L 317.773438 247.199219 L 317.773438 251.324219 L 322.726562 251.324219 L 322.726562 247.199219 L 324.074219 247.199219 L 324.074219 256.949219 L 322.726562 256.949219 L 322.726562 252.449219 L 317.773438 252.449219 L 317.773438 256.949219 L 316.425781 256.949219 L 316.425781 247.199219 "/>
<path style=" stroke:none;fill-rule:nonzero;fill:rgb(80%,80%,0%);fill-opacity:1;" d="M 245.175781 147.601562 C 245.226562 147.648438 245.398438 147.726562 245.699219 147.824219 C 246.050781 147.976562 246.375 148.101562 246.675781 148.199219 C 247.023438 148.25 247.375 148.273438 247.726562 148.273438 C 248.324219 148.273438 248.800781 148.125 249.148438 147.824219 C 249.5 147.523438 249.675781 147.125 249.675781 146.625 C 249.675781 146.226562 249.601562 145.925781 249.449219 145.726562 C 249.25 145.523438 249.023438 145.351562 248.773438 145.199219 C 248.476562 145.101562 248.101562 144.976562 247.648438 144.824219 C 247.050781 144.675781 246.574219 144.5 246.226562 144.300781 C 245.875 144.148438 245.574219 143.898438 245.324219 143.550781 C 245.125 143.199219 245.023438 142.726562 245.023438 142.125 C 245.023438 141.324219 245.300781 140.675781 245.851562 140.175781 C 246.398438 139.625 247.226562 139.351562 248.324219 139.351562 C 249.074219 139.351562 249.875 139.550781 250.726562 139.949219 L 250.425781 141 C 249.625 140.648438 248.949219 140.476562 248.398438 140.476562 C 247.75 140.476562 247.25 140.625 246.898438 140.925781 C 246.550781 141.175781 246.375 141.523438 246.375 141.976562 C 246.375 142.324219 246.476562 142.601562 246.675781 142.800781 C 246.824219 143 247.023438 143.175781 247.273438 143.324219 C 247.574219 143.425781 247.949219 143.550781 248.398438 143.699219 C 248.949219 143.898438 249.398438 144.074219 249.75 144.226562 C 250.101562 144.425781 250.398438 144.726562 250.648438 145.125 C 250.949219 145.476562 251.101562 145.976562 251.101562 146.625 C 251.101562 147.523438 250.773438 148.199219 250.125 148.648438 C 249.523438 149.148438 248.726562 149.398438 247.726562 149.398438 C 247.175781 149.398438 246.675781 149.324219 246.226562 149.175781 C 245.773438 149.074219 245.300781 148.925781 244.800781 148.726562 L 245.175781 147.601562 "/>
<path style=" stroke:none;fill-rule:nonzero;fill:rgb(80%,80%,0%);fill-opacity:1;" d="M 94.574219 257.476562 C 94.675781 257.523438 94.875 257.625 95.175781 257.773438 C 95.476562 257.875 95.773438 257.976562 96.074219 258.074219 C 96.425781 258.125 96.773438 258.148438 97.125 258.148438 C 97.726562 258.148438 98.199219 258 98.550781 257.699219 C 98.949219 257.398438 99.148438 257 99.148438 256.5 C 99.148438 256.148438 99.050781 255.851562 98.851562 255.601562 C 98.648438 255.398438 98.425781 255.226562 98.175781 255.074219 C 97.875 254.976562 97.5 254.851562 97.050781 254.699219 C 96.5 254.550781 96.050781 254.375 95.699219 254.175781 C 95.351562 254.023438 95.050781 253.773438 94.800781 253.425781 C 94.550781 253.074219 94.425781 252.601562 94.425781 252 C 94.425781 251.199219 94.699219 250.550781 95.25 250.050781 C 95.800781 249.550781 96.625 249.300781 97.726562 249.300781 C 98.476562 249.300781 99.300781 249.476562 100.199219 249.824219 L 99.824219 250.875 C 99.074219 250.574219 98.398438 250.425781 97.800781 250.425781 C 97.148438 250.425781 96.648438 250.550781 96.300781 250.800781 C 95.949219 251.050781 95.773438 251.398438 95.773438 251.851562 C 95.773438 252.199219 95.875 252.476562 96.074219 252.675781 C 96.273438 252.925781 96.5 253.101562 96.75 253.199219 C 97 253.300781 97.351562 253.425781 97.800781 253.574219 C 98.398438 253.773438 98.875 253.949219 99.226562 254.101562 C 99.574219 254.300781 99.875 254.601562 100.125 255 C 100.375 255.351562 100.5 255.851562 100.5 256.5 C 100.5 257.398438 100.199219 258.101562 99.601562 258.601562 C 99 259.050781 98.199219 259.273438 97.199219 259.273438 C 96.601562 259.273438 96.074219 259.226562 95.625 259.125 C 95.175781 258.976562 94.699219 258.800781 94.199219 258.601562 L 94.574219 257.476562 "/>
<path style=" stroke:none;fill-rule:nonzero;fill:rgb(0%,0%,100%);fill-opacity:1;" d="M 17.023438 244.949219 L 18.375 244.949219 L 18.375 249.148438 L 23.398438 249.148438 L 23.398438 244.949219 L 24.675781 244.949219 L 24.675781 254.773438 L 23.398438 254.773438 L 23.398438 250.199219 L 18.375 250.199219 L 18.375 254.773438 L 17.023438 254.773438 L 17.023438 244.949219 "/>
<path style=" stroke:none;fill-rule:nonzero;fill:rgb(0%,0%,100%);fill-opacity:1;" d="M 26.625 254.398438 C 26.773438 254 27.050781 253.675781 27.449219 253.425781 C 27.800781 253.226562 28.25 253.125 28.800781 253.125 C 29.449219 253.125 29.949219 253.300781 30.300781 253.648438 C 30.648438 254 30.824219 254.476562 30.824219 255.074219 C 30.824219 255.726562 30.601562 256.351562 30.148438 256.949219 C 29.648438 257.550781 28.925781 258.199219 27.976562 258.898438 L 30.976562 258.898438 L 30.976562 259.648438 L 26.625 259.648438 L 26.625 259.050781 C 27.425781 258.449219 28.050781 257.949219 28.5 257.550781 C 29 257.101562 29.351562 256.699219 29.550781 256.351562 C 29.800781 255.949219 29.925781 255.550781 29.925781 255.148438 C 29.925781 254.75 29.824219 254.425781 29.625 254.175781 C 29.425781 253.976562 29.148438 253.875 28.800781 253.875 C 28.449219 253.875 28.148438 253.925781 27.898438 254.023438 C 27.648438 254.175781 27.449219 254.398438 27.300781 254.699219 L 26.625 254.398438 "/>
<path style=" stroke:none;fill-rule:nonzero;fill:rgb(0%,0%,100%);fill-opacity:1;" d="M 33.75 244.949219 L 36.976562 250.125 C 37.175781 250.476562 37.449219 250.949219 37.800781 251.550781 C 38.148438 252.199219 38.324219 252.550781 38.324219 252.601562 L 38.324219 244.949219 L 39.675781 244.949219 L 39.675781 254.773438 L 38.324219 254.773438 L 34.875 249.074219 C 34.574219 248.625 34.300781 248.148438 34.050781 247.648438 C 33.75 247.148438 33.574219 246.824219 33.523438 246.675781 L 33.523438 254.773438 L 32.25 254.773438 L 32.25 244.949219 L 33.75 244.949219 "/>
<path style=" stroke:none;fill-rule:nonzero;fill:rgb(0%,0%,100%);fill-opacity:1;" d="M 73.351562 197.773438 L 76.574219 202.949219 C 76.773438 203.300781 77.050781 203.800781 77.398438 204.449219 C 77.75 205.050781 77.925781 205.375 77.925781 205.425781 L 77.925781 197.773438 L 79.199219 197.773438 L 79.199219 207.601562 L 77.851562 207.601562 L 74.398438 201.898438 C 74.148438 201.449219 73.875 200.976562 73.574219 200.476562 C 73.324219 199.976562 73.148438 199.648438 73.050781 199.5 L 73.050781 207.601562 L 71.773438 207.601562 L 71.773438 197.773438 L 73.351562 197.773438 "/>
<path style=" stroke:none;fill-rule:nonzero;fill:rgb(0%,0%,0%);fill-opacity:1;" d="M 204.976562 154.800781 L 206.324219 154.800781 L 206.324219 158.925781 L 211.273438 158.925781 L 211.273438 154.800781 L 212.625 154.800781 L 212.625 164.550781 L 211.273438 164.550781 L 211.273438 160.050781 L 206.324219 160.050781 L 206.324219 164.550781 L 204.976562 164.550781 L 204.976562 154.800781 "/>
</g>
</svg>
