<?xml version="1.0" encoding="UTF-8"?>
<svg xmlns="http://www.w3.org/2000/svg" xmlns:xlink="http://www.w3.org/1999/xlink" width="375pt" height="375pt" viewBox="0 0 375 375" version="1.1">
<g id="surface341">
<rect x="0" y="0" width="375" height="375" style="fill:rgb(100%,100%,100%);fill-opacity:1;stroke:none;"/>
<path style="fill:none;stroke-width:2;stroke-linecap:butt;stroke-linejoin:miter;stroke:rgb(0%,0%,0%);stroke-opacity:1;stroke-miterlimit:4;" d="M 477.302083 313.401042 L 404.197917 296.197917 " transform="matrix(0.75,0,0,0.75,0,0)"/>
<path style="fill:none;stroke-width:2;stroke-linecap:butt;stroke-linejoin:miter;stroke:rgb(0%,0%,0%);stroke-opacity:1;stroke-miterlimit:4;" d="M 404.197917 296.197917 L 382.697917 224.302083 " transform="matrix(0.75,0,0,0.75,0,0)"/>
<path style="fill:none;stroke-width:2;stroke-linecap:butt;stroke-linejoin:miter;stroke:rgb(0%,0%,0%);stroke-opacity:1;stroke-miterlimit:4;" d="M 382.697917 224.302083 L 309.598958 207 " transform="matrix(0.75,0,0,0.75,0,0)"/>
<path style="fill:none;stroke-width:2;stroke-linecap:butt;stroke-linejoin:miter;stroke:rgb(0%,0%,0%);stroke-opacity:1;stroke-miterlimit:4;" d="M 309.598958 207 L 258.197917 261.697917 " transform="matrix(0.75,0,0,0.75,0,0)"/>
<path style="fill:none;stroke-width:2;stroke-linecap:butt;stroke-linejoin:miter;stroke:rgb(0%,0%,0%);stroke-opacity:1;stroke-miterlimit:4;" d="M 291 204.901042 L 254.901042 243.197917 " transform="matrix(0.75,0,0,0.75,0,0)"/>
<path style="fill:none;stroke-width:2;stroke-linecap:butt;stroke-linejoin:miter;stroke:rgb(0%,0%,0%);stroke-opacity:1;stroke-miterlimit:4;" d="M 258.197917 261.697917 L 185.098958 244.401042 " transform="matrix(0.75,0,0,0.75,0,0)"/>
<path style="fill:none;stroke-width:2;stroke-linecap:butt;stroke-linejoin:miter;stroke:rgb(0%,0%,0%);stroke-opacity:1;stroke-miterlimit:4;" d="M 185.098958 244.401042 L 133.697917 299 " transform="matrix(0.75,0,0,0.75,0,0)"/>
<path style="fill:none;stroke-width:2;stroke-linecap:butt;stroke-linejoin:miter;stroke:rgb(0%,0%,0%);stroke-opacity:1;stroke-miterlimit:4;" d="M 133.697917 299 L 102.401042 291.697917 " transform="matrix(0.75,0,0,0.75,0,0)"/>
<path style="fill:none;stroke-width:2;stroke-linecap:butt;stroke-linejoin:miter;stroke:rgb(0%,0%,100%);stroke-opacity:1;stroke-miterlimit:4;" d="M 102.401042 291.697917 L 71.098958 284.302083 " transform="matrix(0.75,0,0,0.75,0,0)"/>
<path style="fill:none;stroke-width:2;stroke-linecap:butt;stroke-linejoin:miter;stroke:rgb(0%,0%,0%);stroke-opacity:1;stroke-miterlimit:4;" d="M 140.802083 296.901042 L 149.697917 326.302083 " transform="matrix(0.75,0,0,0.75,0,0)"/>
<path style="fill:none;stroke-width:2;stroke-linecap:butt;stroke-linejoin:miter;stroke:rgb(80%,80%,0%);stroke-opacity:1;stroke-miterlimit:4;" d="M 149.697917 326.302083 L 158.5 355.697917 " transform="matrix(0.75,0,0,0.75,0,0)"/>
<path style="fill:none;stroke-width:2;stroke-linecap:butt;stroke-linejoin:miter;stroke:rgb(0%,0%,0%);stroke-opacity:1;stroke-miterlimit:4;" d="M 126.5 301.197917 L 135.302083 330.598958 " transform="matrix(0.75,0,0,0.75,0,0)"/>
<path style="fill:none;stroke-width:2;stroke-linecap:butt;stroke-linejoin:miter;stroke:rgb(80%,80%,0%);stroke-opacity:1;stroke-miterlimit:4;" d="M 135.302083 330.598958 L 144.098958 360 " transform="matrix(0.75,0,0,0.75,0,0)"/>
<path style="fill:none;stroke-width:2;stroke-linecap:butt;stroke-linejoin:miter;stroke:rgb(0%,0%,0%);stroke-opacity:1;stroke-miterlimit:4;" d="M 185.098958 244.401042 L 163.5 172.5 " transform="matrix(0.75,0,0,0.75,0,0)"/>
<path style="fill:none;stroke-width:2;stroke-linecap:butt;stroke-linejoin:miter;stroke:rgb(0%,0%,0%);stroke-opacity:1;stroke-miterlimit:4;" d="M 196.302083 229.302083 L 181.098958 179 " transform="matrix(0.75,0,0,0.75,0,0)"/>
<path style="fill:none;stroke-width:2;stroke-linecap:butt;stroke-linejoin:miter;stroke:rgb(0%,0%,0%);stroke-opacity:1;stroke-miterlimit:4;" d="M 163.5 172.5 L 215 117.901042 " transform="matrix(0.75,0,0,0.75,0,0)"/>
<path style="fill:none;stroke-width:2;stroke-linecap:butt;stroke-linejoin:miter;stroke:rgb(0%,0%,0%);stroke-opacity:1;stroke-miterlimit:4;" d="M 215 117.901042 L 246.197917 125.302083 " transform="matrix(0.75,0,0,0.75,0,0)"/>
<path style="fill:none;stroke-width:2;stroke-linecap:butt;stroke-linejoin:miter;stroke:rgb(0%,0%,100%);stroke-opacity:1;stroke-miterlimit:4;" d="M 246.197917 125.302083 L 277.5 132.697917 " transform="matrix(0.75,0,0,0.75,0,0)"/>
<path style="fill:none;stroke-width:2;stroke-linecap:butt;stroke-linejoin:miter;stroke:rgb(0%,0%,0%);stroke-opacity:1;stroke-miterlimit:4;" d="M 220.901042 134.697917 L 242.802083 139.901042 " transform="matrix(0.75,0,0,0.75,0,0)"/>
<path style="fill:none;stroke-width:2;stroke-linecap:butt;stroke-linejoin:miter;stroke:rgb(0%,0%,100%);stroke-opacity:1;stroke-miterlimit:4;" d="M 242.802083 139.901042 L 264.697917 145.098958 " transform="matrix(0.75,0,0,0.75,0,0)"/>
<path style="fill:none;stroke-width:2;stroke-linecap:butt;stroke-linejoin:miter;stroke:rgb(0%,0%,100%);stroke-opacity:1;stroke-miterlimit:4;" d="M 292 148.302083 L 300.802083 177.697917 " transform="matrix(0.75,0,0,0.75,0,0)"/>
<path style="fill:none;stroke-width:2;stroke-linecap:butt;stroke-linejoin:miter;stroke:rgb(0%,0%,0%);stroke-opacity:1;stroke-miterlimit:4;" d="M 300.802083 177.697917 L 309.598958 207 " transform="matrix(0.75,0,0,0.75,0,0)"/>
<path style=" stroke:none;fill-rule:nonzero;fill:rgb(0%,0%,100%);fill-opacity:1;" d="M 17.023438 203.398438 L 19.199219 203.398438 L 19.199219 210.148438 L 27.375 210.148438 L 27.375 203.398438 L 29.550781 203.398438 L 29.550781 219.300781 L 27.375 219.300781 L 27.375 211.949219 L 19.199219 211.949219 L 19.199219 219.300781 L 17.023438 219.300781 L 17.023438 203.398438 "/>
<path style=" stroke:none;fill-rule:nonzero;fill:rgb(0%,0%,100%);fill-opacity:1;" d="M 31.425781 218.773438 C 31.726562 218.074219 32.175781 217.550781 32.773438 217.199219 C 33.375 216.851562 34.101562 216.675781 34.949219 216.675781 C 36 216.675781 36.824219 216.949219 37.425781 217.5 C 38.023438 218.101562 38.324219 218.898438 38.324219 219.898438 C 38.324219 220.949219 37.949219 221.949219 37.199219 222.898438 C 36.449219 223.898438 35.273438 224.976562 33.675781 226.125 L 38.550781 226.125 L 38.550781 227.25 L 31.425781 227.25 L 31.425781 226.273438 C 32.726562 225.375 33.773438 224.574219 34.574219 223.875 C 35.324219 223.175781 35.898438 222.5 36.300781 221.851562 C 36.648438 221.25 36.824219 220.625 36.824219 219.976562 C 36.824219 219.273438 36.675781 218.75 36.375 218.398438 C 36.023438 218 35.550781 217.800781 34.949219 217.800781 C 34.398438 217.800781 33.925781 217.925781 33.523438 218.175781 C 33.175781 218.425781 32.875 218.800781 32.625 219.300781 L 31.425781 218.773438 "/>
<path style=" stroke:none;fill-rule:nonzero;fill:rgb(0%,0%,100%);fill-opacity:1;" d="M 41.925781 203.398438 L 47.175781 211.800781 C 47.523438 212.351562 47.976562 213.125 48.523438 214.125 C 49.074219 215.175781 49.351562 215.726562 49.351562 215.773438 L 49.351562 203.398438 L 51.523438 203.398438 L 51.523438 219.300781 L 49.351562 219.300781 L 43.726562 210.074219 C 43.273438 209.375 42.824219 208.601562 42.375 207.75 C 41.925781 206.949219 41.625 206.425781 41.476562 206.175781 L 41.476562 219.300781 L 39.375 219.300781 L 39.375 203.398438 L 41.925781 203.398438 "/>
<path style=" stroke:none;fill-rule:nonzero;fill:rgb(80%,80%,0%);fill-opacity:1;" d="M 111.898438 283.648438 C 112.050781 283.699219 112.375 283.824219 112.875 284.023438 C 113.324219 284.273438 113.824219 284.449219 114.375 284.550781 C 114.925781 284.699219 115.476562 284.773438 116.023438 284.773438 C 117.023438 284.773438 117.824219 284.523438 118.425781 284.023438 C 119.023438 283.523438 119.324219 282.851562 119.324219 282 C 119.324219 281.398438 119.175781 280.925781 118.875 280.574219 C 118.574219 280.226562 118.199219 279.949219 117.75 279.75 C 117.300781 279.550781 116.699219 279.351562 115.949219 279.148438 C 115 278.851562 114.25 278.550781 113.699219 278.25 C 113.148438 278 112.648438 277.601562 112.199219 277.050781 C 111.851562 276.449219 111.675781 275.675781 111.675781 274.726562 C 111.675781 273.375 112.125 272.300781 113.023438 271.5 C 113.925781 270.648438 115.273438 270.226562 117.074219 270.226562 C 118.324219 270.226562 119.648438 270.523438 121.050781 271.125 L 120.523438 272.851562 C 119.226562 272.351562 118.101562 272.101562 117.148438 272.101562 C 116.101562 272.101562 115.300781 272.300781 114.75 272.699219 C 114.148438 273.148438 113.875 273.726562 113.925781 274.425781 C 113.925781 275.023438 114.050781 275.5 114.300781 275.851562 C 114.601562 276.199219 114.976562 276.476562 115.425781 276.675781 C 115.824219 276.824219 116.398438 277.023438 117.148438 277.273438 C 118.101562 277.574219 118.875 277.875 119.476562 278.175781 C 120.023438 278.476562 120.5 278.925781 120.898438 279.523438 C 121.300781 280.125 121.5 280.949219 121.5 282 C 121.5 283.449219 121.023438 284.574219 120.074219 285.375 C 119.074219 286.175781 117.75 286.574219 116.101562 286.574219 C 115.148438 286.574219 114.324219 286.476562 113.625 286.273438 C 112.925781 286.074219 112.148438 285.800781 111.300781 285.449219 L 111.898438 283.648438 "/>
<path style=" stroke:none;fill-rule:nonzero;fill:rgb(0%,0%,100%);fill-opacity:1;" d="M 212.476562 93.375 L 217.726562 101.851562 C 218.074219 102.398438 218.523438 103.175781 219.074219 104.175781 C 219.625 105.175781 219.925781 105.699219 219.976562 105.75 L 219.976562 93.375 L 222.074219 93.375 L 222.074219 109.351562 L 219.898438 109.351562 L 214.273438 100.125 C 213.824219 99.375 213.375 98.601562 212.925781 97.800781 C 212.476562 96.949219 212.175781 96.398438 212.023438 96.148438 L 212.023438 109.351562 L 210 109.351562 L 210 93.375 L 212.476562 93.375 "/>
</g>
</svg>
