<?xml version="1.0" encoding="UTF-8"?>
<svg xmlns="http://www.w3.org/2000/svg" xmlns:xlink="http://www.w3.org/1999/xlink" width="375pt" height="375pt" viewBox="0 0 375 375" version="1.1">
<g id="surface221">
<rect x="0" y="0" width="375" height="375" style="fill:rgb(100%,100%,100%);fill-opacity:1;stroke:none;"/>
<path style="fill:none;stroke-width:2;stroke-linecap:butt;stroke-linejoin:miter;stroke:rgb(0%,0%,0%);stroke-opacity:1;stroke-miterlimit:4;" d="M 72 164.901042 L 78.302083 177.697917 " transform="matrix(0.75,0,0,0.75,0,0)"/>
<path style="fill:none;stroke-width:2;stroke-linecap:butt;stroke-linejoin:miter;stroke:rgb(100%,0%,0%);stroke-opacity:1;stroke-miterlimit:4;" d="M 78.302083 177.697917 L 84.697917 190.5 " transform="matrix(0.75,0,0,0.75,0,0)"/>
<path style="fill:none;stroke-width:2;stroke-linecap:butt;stroke-linejoin:miter;stroke:rgb(100%,0%,0%);stroke-opacity:1;stroke-miterlimit:4;" d="M 93.598958 197.197917 L 106 198 " transform="matrix(0.75,0,0,0.75,0,0)"/>
<path style="fill:none;stroke-width:2;stroke-linecap:butt;stroke-linejoin:miter;stroke:rgb(0%,0%,100%);stroke-opacity:1;stroke-miterlimit:4;" d="M 106 198 L 118.302083 198.802083 " transform="matrix(0.75,0,0,0.75,0,0)"/>
<path style="fill:none;stroke-width:2;stroke-linecap:butt;stroke-linejoin:miter;stroke:rgb(0%,0%,100%);stroke-opacity:1;stroke-miterlimit:4;" d="M 126.401042 205.302083 L 132.802083 218.197917 " transform="matrix(0.75,0,0,0.75,0,0)"/>
<path style="fill:none;stroke-width:2;stroke-linecap:butt;stroke-linejoin:miter;stroke:rgb(0%,0%,0%);stroke-opacity:1;stroke-miterlimit:4;" d="M 132.802083 218.197917 L 139.098958 231 " transform="matrix(0.75,0,0,0.75,0,0)"/>
<path style="fill:none;stroke-width:2;stroke-linecap:butt;stroke-linejoin:miter;stroke:rgb(0%,0%,100%);stroke-opacity:1;stroke-miterlimit:4;" d="M 121.901042 212.302083 L 126.401042 221.302083 " transform="matrix(0.75,0,0,0.75,0,0)"/>
<path style="fill:none;stroke-width:2;stroke-linecap:butt;stroke-linejoin:miter;stroke:rgb(0%,0%,0%);stroke-opacity:1;stroke-miterlimit:4;" d="M 126.401042 221.302083 L 130.802083 230.302083 " transform="matrix(0.75,0,0,0.75,0,0)"/>
<path style="fill:none;stroke-width:2;stroke-linecap:butt;stroke-linejoin:miter;stroke:rgb(0%,0%,0%);stroke-opacity:1;stroke-miterlimit:4;" d="M 139.098958 231 L 174.697917 233.302083 " transform="matrix(0.75,0,0,0.75,0,0)"/>
<path style="fill:none;stroke-width:2;stroke-linecap:butt;stroke-linejoin:miter;stroke:rgb(0%,0%,0%);stroke-opacity:1;stroke-miterlimit:4;" d="M 171.697917 231.302083 L 179.5 219.697917 " transform="matrix(0.75,0,0,0.75,0,0)"/>
<path style="fill:none;stroke-width:2;stroke-linecap:butt;stroke-linejoin:miter;stroke:rgb(100%,0%,0%);stroke-opacity:1;stroke-miterlimit:4;" d="M 179.5 219.697917 L 187.197917 208.098958 " transform="matrix(0.75,0,0,0.75,0,0)"/>
<path style="fill:none;stroke-width:2;stroke-linecap:butt;stroke-linejoin:miter;stroke:rgb(0%,0%,0%);stroke-opacity:1;stroke-miterlimit:4;" d="M 177.697917 235.302083 L 185.401042 223.697917 " transform="matrix(0.75,0,0,0.75,0,0)"/>
<path style="fill:none;stroke-width:2;stroke-linecap:butt;stroke-linejoin:miter;stroke:rgb(100%,0%,0%);stroke-opacity:1;stroke-miterlimit:4;" d="M 185.401042 223.697917 L 193.197917 212.098958 " transform="matrix(0.75,0,0,0.75,0,0)"/>
<path style="fill:none;stroke-width:2;stroke-linecap:butt;stroke-linejoin:miter;stroke:rgb(0%,0%,0%);stroke-opacity:1;stroke-miterlimit:4;" d="M 174.697917 233.302083 L 181.098958 246.197917 " transform="matrix(0.75,0,0,0.75,0,0)"/>
<path style="fill:none;stroke-width:2;stroke-linecap:butt;stroke-linejoin:miter;stroke:rgb(0%,0%,100%);stroke-opacity:1;stroke-miterlimit:4;" d="M 181.098958 246.197917 L 187.401042 259 " transform="matrix(0.75,0,0,0.75,0,0)"/>
<path style="fill-rule:evenodd;fill:rgb(0%,0%,0%);fill-opacity:1;stroke-width:1;stroke-linecap:butt;stroke-linejoin:miter;stroke:rgb(0%,0%,0%);stroke-opacity:1;stroke-miterlimit:4;" d="M 226.098958 267.598958 L 211.302083 268.401042 L 211.5 264.802083 Z M 226.098958 267.598958 " transform="matrix(0.75,0,0,0.75,0,0)"/>
<path style="fill-rule:evenodd;fill:rgb(0%,0%,100%);fill-opacity:1;stroke-width:1;stroke-linecap:butt;stroke-linejoin:miter;stroke:rgb(0%,0%,100%);stroke-opacity:1;stroke-miterlimit:4;" d="M 211.302083 268.401042 L 196.901042 262.098958 L 196.5 269.197917 Z M 211.302083 268.401042 " transform="matrix(0.75,0,0,0.75,0,0)"/>
<path style="fill-rule:evenodd;fill:rgb(0%,0%,100%);fill-opacity:1;stroke-width:1;stroke-linecap:butt;stroke-linejoin:miter;stroke:rgb(0%,0%,100%);stroke-opacity:1;stroke-miterlimit:4;" d="M 211.302083 268.401042 L 211.5 264.802083 L 196.901042 262.098958 Z M 211.302083 268.401042 " transform="matrix(0.75,0,0,0.75,0,0)"/>
<path style="fill:none;stroke-width:2;stroke-linecap:butt;stroke-linejoin:miter;stroke:rgb(0%,0%,0%);stroke-opacity:1;stroke-miterlimit:4;" d="M 226.098958 267.598958 L 249.598958 294.302083 " transform="matrix(0.75,0,0,0.75,0,0)"/>
<path style="fill:none;stroke-width:2;stroke-linecap:butt;stroke-linejoin:miter;stroke:rgb(0%,0%,0%);stroke-opacity:1;stroke-miterlimit:4;" d="M 253.197917 294.5 L 252.197917 309.197917 " transform="matrix(0.75,0,0,0.75,0,0)"/>
<path style="fill:none;stroke-width:2;stroke-linecap:butt;stroke-linejoin:miter;stroke:rgb(100%,0%,0%);stroke-opacity:1;stroke-miterlimit:4;" d="M 252.197917 309.197917 L 251.302083 323.802083 " transform="matrix(0.75,0,0,0.75,0,0)"/>
<path style="fill:none;stroke-width:2;stroke-linecap:butt;stroke-linejoin:miter;stroke:rgb(0%,0%,0%);stroke-opacity:1;stroke-miterlimit:4;" d="M 246.098958 294.098958 L 245.098958 308.697917 " transform="matrix(0.75,0,0,0.75,0,0)"/>
<path style="fill:none;stroke-width:2;stroke-linecap:butt;stroke-linejoin:miter;stroke:rgb(100%,0%,0%);stroke-opacity:1;stroke-miterlimit:4;" d="M 245.098958 308.697917 L 244.197917 323.401042 " transform="matrix(0.75,0,0,0.75,0,0)"/>
<path style="fill:none;stroke-width:2;stroke-linecap:butt;stroke-linejoin:miter;stroke:rgb(0%,0%,0%);stroke-opacity:1;stroke-miterlimit:4;" d="M 249.598958 294.302083 L 260.5 284.802083 " transform="matrix(0.75,0,0,0.75,0,0)"/>
<path style="fill:none;stroke-width:2;stroke-linecap:butt;stroke-linejoin:miter;stroke:rgb(0%,0%,100%);stroke-opacity:1;stroke-miterlimit:4;" d="M 260.5 284.802083 L 271.401042 275.197917 " transform="matrix(0.75,0,0,0.75,0,0)"/>
<path style="fill:none;stroke-width:2;stroke-linecap:butt;stroke-linejoin:miter;stroke:rgb(0%,0%,100%);stroke-opacity:1;stroke-miterlimit:4;" d="M 281.401042 269.802083 L 296.401042 266.802083 " transform="matrix(0.75,0,0,0.75,0,0)"/>
<path style="fill:none;stroke-width:2;stroke-linecap:butt;stroke-linejoin:miter;stroke:rgb(0%,0%,0%);stroke-opacity:1;stroke-miterlimit:4;" d="M 296.401042 266.802083 L 311.302083 263.802083 " transform="matrix(0.75,0,0,0.75,0,0)"/>
<path style="fill:none;stroke-width:2;stroke-linecap:butt;stroke-linejoin:miter;stroke:rgb(0%,0%,0%);stroke-opacity:1;stroke-miterlimit:4;" d="M 311.302083 263.802083 L 334.901042 290.598958 " transform="matrix(0.75,0,0,0.75,0,0)"/>
<path style="fill:none;stroke-width:2;stroke-linecap:butt;stroke-linejoin:miter;stroke:rgb(0%,0%,0%);stroke-opacity:1;stroke-miterlimit:4;" d="M 334.197917 287.098958 L 348.697917 284.098958 " transform="matrix(0.75,0,0,0.75,0,0)"/>
<path style="fill:none;stroke-width:2;stroke-linecap:butt;stroke-linejoin:miter;stroke:rgb(100%,0%,0%);stroke-opacity:1;stroke-miterlimit:4;" d="M 348.697917 284.098958 L 363.302083 281.197917 " transform="matrix(0.75,0,0,0.75,0,0)"/>
<path style="fill:none;stroke-width:2;stroke-linecap:butt;stroke-linejoin:miter;stroke:rgb(0%,0%,0%);stroke-opacity:1;stroke-miterlimit:4;" d="M 335.598958 294.098958 L 350.098958 291.098958 " transform="matrix(0.75,0,0,0.75,0,0)"/>
<path style="fill:none;stroke-width:2;stroke-linecap:butt;stroke-linejoin:miter;stroke:rgb(100%,0%,0%);stroke-opacity:1;stroke-miterlimit:4;" d="M 350.098958 291.098958 L 364.697917 288.197917 " transform="matrix(0.75,0,0,0.75,0,0)"/>
<path style="fill:none;stroke-width:2;stroke-linecap:butt;stroke-linejoin:miter;stroke:rgb(0%,0%,0%);stroke-opacity:1;stroke-miterlimit:4;" d="M 334.901042 290.598958 L 330.197917 304.302083 " transform="matrix(0.75,0,0,0.75,0,0)"/>
<path style="fill:none;stroke-width:2;stroke-linecap:butt;stroke-linejoin:miter;stroke:rgb(100%,0%,0%);stroke-opacity:1;stroke-miterlimit:4;" d="M 330.197917 304.302083 L 325.598958 318 " transform="matrix(0.75,0,0,0.75,0,0)"/>
<path style="fill:none;stroke-width:2;stroke-linecap:butt;stroke-linejoin:miter;stroke:rgb(0%,0%,0%);stroke-opacity:1;stroke-miterlimit:4;" d="M 311.302083 263.802083 L 322.697917 230 " transform="matrix(0.75,0,0,0.75,0,0)"/>
<path style="fill:none;stroke-width:2;stroke-linecap:butt;stroke-linejoin:miter;stroke:rgb(0%,0%,0%);stroke-opacity:1;stroke-miterlimit:4;" d="M 306.302083 256.401042 L 314.302083 232.802083 " transform="matrix(0.75,0,0,0.75,0,0)"/>
<path style="fill:none;stroke-width:2;stroke-linecap:butt;stroke-linejoin:miter;stroke:rgb(0%,0%,0%);stroke-opacity:1;stroke-miterlimit:4;" d="M 322.697917 230 L 357.697917 223 " transform="matrix(0.75,0,0,0.75,0,0)"/>
<path style="fill:none;stroke-width:2;stroke-linecap:butt;stroke-linejoin:miter;stroke:rgb(0%,0%,0%);stroke-opacity:1;stroke-miterlimit:4;" d="M 357.697917 223 L 367.302083 233.901042 " transform="matrix(0.75,0,0,0.75,0,0)"/>
<path style="fill:none;stroke-width:2;stroke-linecap:butt;stroke-linejoin:miter;stroke:rgb(80%,80%,0%);stroke-opacity:1;stroke-miterlimit:4;" d="M 367.302083 233.901042 L 376.802083 244.802083 " transform="matrix(0.75,0,0,0.75,0,0)"/>
<path style="fill:none;stroke-width:2;stroke-linecap:butt;stroke-linejoin:miter;stroke:rgb(80%,80%,0%);stroke-opacity:1;stroke-miterlimit:4;" d="M 385.598958 248.901042 L 400.901042 245.901042 " transform="matrix(0.75,0,0,0.75,0,0)"/>
<path style="fill:none;stroke-width:2;stroke-linecap:butt;stroke-linejoin:miter;stroke:rgb(0%,0%,0%);stroke-opacity:1;stroke-miterlimit:4;" d="M 400.901042 245.901042 L 416.197917 242.802083 " transform="matrix(0.75,0,0,0.75,0,0)"/>
<path style="fill:none;stroke-width:2;stroke-linecap:butt;stroke-linejoin:miter;stroke:rgb(0%,0%,0%);stroke-opacity:1;stroke-miterlimit:4;" d="M 416.197917 242.802083 L 422.197917 229.697917 " transform="matrix(0.75,0,0,0.75,0,0)"/>
<path style="fill:none;stroke-width:2;stroke-linecap:butt;stroke-linejoin:miter;stroke:rgb(0%,0%,100%);stroke-opacity:1;stroke-miterlimit:4;" d="M 422.197917 229.697917 L 428.197917 216.598958 " transform="matrix(0.75,0,0,0.75,0,0)"/>
<path style="fill:none;stroke-width:2;stroke-linecap:butt;stroke-linejoin:miter;stroke:rgb(0%,0%,0%);stroke-opacity:1;stroke-miterlimit:4;" d="M 424.401042 241.901042 L 428.697917 232.697917 " transform="matrix(0.75,0,0,0.75,0,0)"/>
<path style="fill:none;stroke-width:2;stroke-linecap:butt;stroke-linejoin:miter;stroke:rgb(0%,0%,100%);stroke-opacity:1;stroke-miterlimit:4;" d="M 428.697917 232.697917 L 432.901042 223.5 " transform="matrix(0.75,0,0,0.75,0,0)"/>
<path style="fill:none;stroke-width:2;stroke-linecap:butt;stroke-linejoin:miter;stroke:rgb(0%,0%,100%);stroke-opacity:1;stroke-miterlimit:4;" d="M 436.098958 211 L 461.401042 214 " transform="matrix(0.75,0,0,0.75,0,0)"/>
<path style="fill:none;stroke-width:2;stroke-linecap:butt;stroke-linejoin:miter;stroke:rgb(0%,0%,100%);stroke-opacity:1;stroke-miterlimit:4;" d="M 467.697917 220.802083 L 472.197917 243.302083 " transform="matrix(0.75,0,0,0.75,0,0)"/>
<path style="fill:none;stroke-width:2;stroke-linecap:butt;stroke-linejoin:miter;stroke:rgb(0%,0%,100%);stroke-opacity:1;stroke-miterlimit:4;" d="M 461.401042 225.598958 L 464.5 241.302083 " transform="matrix(0.75,0,0,0.75,0,0)"/>
<path style="fill:none;stroke-width:2;stroke-linecap:butt;stroke-linejoin:miter;stroke:rgb(0%,0%,100%);stroke-opacity:1;stroke-miterlimit:4;" d="M 468.401042 252.302083 L 447.401042 264.197917 " transform="matrix(0.75,0,0,0.75,0,0)"/>
<path style="fill:none;stroke-width:2;stroke-linecap:butt;stroke-linejoin:miter;stroke:rgb(0%,0%,100%);stroke-opacity:1;stroke-miterlimit:4;" d="M 441.598958 273.197917 L 439.901042 287.802083 " transform="matrix(0.75,0,0,0.75,0,0)"/>
<path style="fill:none;stroke-width:2;stroke-linecap:butt;stroke-linejoin:miter;stroke:rgb(0%,0%,0%);stroke-opacity:1;stroke-miterlimit:4;" d="M 439.901042 287.802083 L 438.197917 302.401042 " transform="matrix(0.75,0,0,0.75,0,0)"/>
<path style="fill:none;stroke-width:2;stroke-linecap:butt;stroke-linejoin:miter;stroke:rgb(0%,0%,0%);stroke-opacity:1;stroke-miterlimit:4;" d="M 322.697917 230 L 299.197917 203.302083 " transform="matrix(0.75,0,0,0.75,0,0)"/>
<path style="fill:none;stroke-width:2;stroke-linecap:butt;stroke-linejoin:miter;stroke:rgb(0%,0%,0%);stroke-opacity:1;stroke-miterlimit:4;" d="M 299.197917 203.302083 L 283.901042 206.302083 " transform="matrix(0.75,0,0,0.75,0,0)"/>
<path style="fill:none;stroke-width:2;stroke-linecap:butt;stroke-linejoin:miter;stroke:rgb(80%,80%,0%);stroke-opacity:1;stroke-miterlimit:4;" d="M 283.901042 206.302083 L 268.697917 209.401042 " transform="matrix(0.75,0,0,0.75,0,0)"/>
<path style="fill:none;stroke-width:2;stroke-linecap:butt;stroke-linejoin:miter;stroke:rgb(80%,80%,0%);stroke-opacity:1;stroke-miterlimit:4;" d="M 262.098958 216.697917 L 257.5 230.401042 " transform="matrix(0.75,0,0,0.75,0,0)"/>
<path style="fill:none;stroke-width:2;stroke-linecap:butt;stroke-linejoin:miter;stroke:rgb(0%,0%,0%);stroke-opacity:1;stroke-miterlimit:4;" d="M 257.5 230.401042 L 252.901042 244 " transform="matrix(0.75,0,0,0.75,0,0)"/>
<path style="fill:none;stroke-width:2;stroke-linecap:butt;stroke-linejoin:miter;stroke:rgb(0%,0%,0%);stroke-opacity:1;stroke-miterlimit:4;" d="M 139.098958 231 L 119.401042 260.697917 " transform="matrix(0.75,0,0,0.75,0,0)"/>
<path style="fill:none;stroke-width:2;stroke-linecap:butt;stroke-linejoin:miter;stroke:rgb(0%,0%,0%);stroke-opacity:1;stroke-miterlimit:4;" d="M 119.401042 260.697917 L 131.802083 294.098958 " transform="matrix(0.75,0,0,0.75,0,0)"/>
<path style="fill:none;stroke-width:2;stroke-linecap:butt;stroke-linejoin:miter;stroke:rgb(0%,0%,0%);stroke-opacity:1;stroke-miterlimit:4;" d="M 114.598958 268.197917 L 123.197917 291.598958 " transform="matrix(0.75,0,0,0.75,0,0)"/>
<path style="fill:none;stroke-width:2;stroke-linecap:butt;stroke-linejoin:miter;stroke:rgb(0%,0%,0%);stroke-opacity:1;stroke-miterlimit:4;" d="M 131.802083 294.098958 L 120 303.401042 " transform="matrix(0.75,0,0,0.75,0,0)"/>
<path style="fill:none;stroke-width:2;stroke-linecap:butt;stroke-linejoin:miter;stroke:rgb(80%,80%,0%);stroke-opacity:1;stroke-miterlimit:4;" d="M 120 303.401042 L 108.197917 312.697917 " transform="matrix(0.75,0,0,0.75,0,0)"/>
<path style="fill:none;stroke-width:2;stroke-linecap:butt;stroke-linejoin:miter;stroke:rgb(80%,80%,0%);stroke-opacity:1;stroke-miterlimit:4;" d="M 99.401042 313.302083 L 86.802083 304.901042 " transform="matrix(0.75,0,0,0.75,0,0)"/>
<path style="fill:none;stroke-width:2;stroke-linecap:butt;stroke-linejoin:miter;stroke:rgb(0%,0%,0%);stroke-opacity:1;stroke-miterlimit:4;" d="M 86.802083 304.901042 L 74.098958 296.401042 " transform="matrix(0.75,0,0,0.75,0,0)"/>
<path style="fill:none;stroke-width:2;stroke-linecap:butt;stroke-linejoin:miter;stroke:rgb(0%,0%,0%);stroke-opacity:1;stroke-miterlimit:4;" d="M 74.098958 296.401042 L 59.901042 301.697917 " transform="matrix(0.75,0,0,0.75,0,0)"/>
<path style="fill:none;stroke-width:2;stroke-linecap:butt;stroke-linejoin:miter;stroke:rgb(0%,0%,100%);stroke-opacity:1;stroke-miterlimit:4;" d="M 59.901042 301.697917 L 45.697917 307 " transform="matrix(0.75,0,0,0.75,0,0)"/>
<path style="fill:none;stroke-width:2;stroke-linecap:butt;stroke-linejoin:miter;stroke:rgb(0%,0%,0%);stroke-opacity:1;stroke-miterlimit:4;" d="M 74.098958 296.401042 L 78.098958 282.401042 " transform="matrix(0.75,0,0,0.75,0,0)"/>
<path style="fill:none;stroke-width:2;stroke-linecap:butt;stroke-linejoin:miter;stroke:rgb(0%,0%,100%);stroke-opacity:1;stroke-miterlimit:4;" d="M 78.098958 282.401042 L 82 268.401042 " transform="matrix(0.75,0,0,0.75,0,0)"/>
<path style="fill:none;stroke-width:2;stroke-linecap:butt;stroke-linejoin:miter;stroke:rgb(0%,0%,0%);stroke-opacity:1;stroke-miterlimit:4;" d="M 82.197917 294.197917 L 84.901042 284.302083 " transform="matrix(0.75,0,0,0.75,0,0)"/>
<path style="fill:none;stroke-width:2;stroke-linecap:butt;stroke-linejoin:miter;stroke:rgb(0%,0%,100%);stroke-opacity:1;stroke-miterlimit:4;" d="M 84.901042 284.302083 L 87.697917 274.5 " transform="matrix(0.75,0,0,0.75,0,0)"/>
<path style="fill:none;stroke-width:2;stroke-linecap:butt;stroke-linejoin:miter;stroke:rgb(0%,0%,0%);stroke-opacity:1;stroke-miterlimit:4;" d="M 252.901042 244 L 226.098958 267.598958 " transform="matrix(0.75,0,0,0.75,0,0)"/>
<path style="fill:none;stroke-width:2;stroke-linecap:butt;stroke-linejoin:miter;stroke:rgb(0%,0%,100%);stroke-opacity:1;stroke-miterlimit:4;" d="M 88.802083 261.901042 L 104.098958 261.302083 " transform="matrix(0.75,0,0,0.75,0,0)"/>
<path style="fill:none;stroke-width:2;stroke-linecap:butt;stroke-linejoin:miter;stroke:rgb(0%,0%,0%);stroke-opacity:1;stroke-miterlimit:4;" d="M 104.098958 261.302083 L 119.401042 260.697917 " transform="matrix(0.75,0,0,0.75,0,0)"/>
<path style="fill:none;stroke-width:2;stroke-linecap:butt;stroke-linejoin:miter;stroke:rgb(0%,0%,0%);stroke-opacity:1;stroke-miterlimit:4;" d="M 252.901042 244 L 262.098958 254.598958 " transform="matrix(0.75,0,0,0.75,0,0)"/>
<path style="fill:none;stroke-width:2;stroke-linecap:butt;stroke-linejoin:miter;stroke:rgb(0%,0%,100%);stroke-opacity:1;stroke-miterlimit:4;" d="M 262.098958 254.598958 L 271.401042 265.098958 " transform="matrix(0.75,0,0,0.75,0,0)"/>
<path style="fill:none;stroke-width:2;stroke-linecap:butt;stroke-linejoin:miter;stroke:rgb(0%,0%,100%);stroke-opacity:1;stroke-miterlimit:4;" d="M 437.401042 262.401042 L 426.802083 252.598958 " transform="matrix(0.75,0,0,0.75,0,0)"/>
<path style="fill:none;stroke-width:2;stroke-linecap:butt;stroke-linejoin:miter;stroke:rgb(0%,0%,0%);stroke-opacity:1;stroke-miterlimit:4;" d="M 426.802083 252.598958 L 416.197917 242.802083 " transform="matrix(0.75,0,0,0.75,0,0)"/>
<path style="fill:none;stroke-width:1;stroke-linecap:butt;stroke-linejoin:miter;stroke:rgb(0%,0%,0%);stroke-opacity:1;stroke-miterlimit:4;" d="M 248.598958 240.302083 L 247.802083 241.5 " transform="matrix(0.75,0,0,0.75,0,0)"/>
<path style="fill:none;stroke-width:1;stroke-linecap:butt;stroke-linejoin:miter;stroke:rgb(0%,0%,0%);stroke-opacity:1;stroke-miterlimit:4;" d="M 244.302083 236.598958 L 242.697917 239 " transform="matrix(0.75,0,0,0.75,0,0)"/>
<path style="fill:none;stroke-width:1;stroke-linecap:butt;stroke-linejoin:miter;stroke:rgb(0%,0%,0%);stroke-opacity:1;stroke-miterlimit:4;" d="M 240 232.901042 L 237.697917 236.5 " transform="matrix(0.75,0,0,0.75,0,0)"/>
<path style="fill:none;stroke-width:1;stroke-linecap:butt;stroke-linejoin:miter;stroke:rgb(0%,0%,0%);stroke-opacity:1;stroke-miterlimit:4;" d="M 235.697917 229.197917 L 232.598958 233.901042 " transform="matrix(0.75,0,0,0.75,0,0)"/>
<path style="fill:none;stroke-width:1;stroke-linecap:butt;stroke-linejoin:miter;stroke:rgb(0%,0%,0%);stroke-opacity:1;stroke-miterlimit:4;" d="M 231.5 225.5 L 227.5 231.401042 " transform="matrix(0.75,0,0,0.75,0,0)"/>
<path style=" stroke:none;fill-rule:nonzero;fill:rgb(100%,0%,0%);fill-opacity:1;" d="M 62.324219 147.601562 C 62.324219 146.398438 62.625 145.449219 63.226562 144.75 C 63.824219 144.101562 64.699219 143.773438 65.851562 143.773438 C 66.949219 143.773438 67.800781 144.101562 68.398438 144.75 C 69 145.449219 69.300781 146.398438 69.300781 147.601562 C 69.300781 148.851562 69 149.824219 68.398438 150.523438 C 67.800781 151.226562 66.949219 151.574219 65.851562 151.574219 C 64.75 151.574219 63.875 151.226562 63.226562 150.523438 C 62.625 149.824219 62.324219 148.851562 62.324219 147.601562 M 65.851562 150.675781 C 66.601562 150.675781 67.175781 150.425781 67.574219 149.925781 C 68.023438 149.425781 68.25 148.648438 68.25 147.601562 C 68.25 146.601562 68.023438 145.851562 67.574219 145.351562 C 67.175781 144.851562 66.601562 144.601562 65.851562 144.601562 C 65.050781 144.601562 64.449219 144.851562 64.050781 145.351562 C 63.648438 145.851562 63.449219 146.601562 63.449219 147.601562 C 63.449219 148.648438 63.648438 149.425781 64.050781 149.925781 C 64.449219 150.425781 65.050781 150.675781 65.851562 150.675781 "/>
<path style=" stroke:none;fill-rule:nonzero;fill:rgb(0%,0%,100%);fill-opacity:1;" d="M 90.824219 145.5 L 93.300781 149.550781 C 93.449219 149.800781 93.675781 150.175781 93.976562 150.675781 C 94.226562 151.125 94.351562 151.375 94.351562 151.425781 L 94.351562 145.5 L 95.398438 145.5 L 95.398438 153.074219 L 94.351562 153.074219 L 91.648438 148.726562 C 91.449219 148.375 91.25 148 91.050781 147.601562 C 90.851562 147.199219 90.699219 146.949219 90.601562 146.851562 L 90.601562 153.074219 L 89.625 153.074219 L 89.625 145.5 L 90.824219 145.5 "/>
<path style=" stroke:none;fill-rule:nonzero;fill:rgb(100%,0%,0%);fill-opacity:1;" d="M 142.351562 152.773438 C 142.351562 151.574219 142.648438 150.625 143.25 149.925781 C 143.851562 149.273438 144.726562 148.949219 145.875 148.949219 C 146.976562 148.949219 147.824219 149.273438 148.425781 149.925781 C 149.023438 150.625 149.324219 151.574219 149.324219 152.773438 C 149.324219 153.976562 149.023438 154.925781 148.425781 155.625 C 147.824219 156.324219 146.976562 156.675781 145.875 156.675781 C 144.773438 156.675781 143.898438 156.324219 143.25 155.625 C 142.648438 154.976562 142.351562 154.023438 142.351562 152.773438 M 145.875 155.851562 C 146.625 155.851562 147.199219 155.601562 147.601562 155.101562 C 148.050781 154.550781 148.273438 153.773438 148.273438 152.773438 C 148.273438 151.773438 148.050781 151.023438 147.601562 150.523438 C 147.199219 150.023438 146.625 149.773438 145.875 149.773438 C 145.074219 149.773438 144.476562 150.023438 144.074219 150.523438 C 143.675781 151.023438 143.476562 151.773438 143.476562 152.773438 C 143.476562 153.773438 143.675781 154.550781 144.074219 155.101562 C 144.476562 155.601562 145.074219 155.851562 145.875 155.851562 "/>
<path style=" stroke:none;fill-rule:nonzero;fill:rgb(0%,0%,100%);fill-opacity:1;" d="M 133.199219 195.148438 L 134.175781 195.148438 L 134.175781 198.375 L 138.074219 198.375 L 138.074219 195.148438 L 139.125 195.148438 L 139.125 202.726562 L 138.074219 202.726562 L 138.074219 199.199219 L 134.175781 199.199219 L 134.175781 202.726562 L 133.199219 202.726562 L 133.199219 195.148438 "/>
<path style=" stroke:none;fill-rule:nonzero;fill:rgb(0%,0%,100%);fill-opacity:1;" d="M 141.226562 195.148438 L 143.699219 199.199219 C 143.851562 199.449219 144.050781 199.800781 144.300781 200.25 C 144.601562 200.75 144.75 201.023438 144.75 201.074219 L 144.75 195.148438 L 145.726562 195.148438 L 145.726562 202.726562 L 144.75 202.726562 L 142.050781 198.375 C 141.851562 198.023438 141.648438 197.648438 141.449219 197.25 C 141.199219 196.851562 141.050781 196.601562 141 196.5 L 141 202.726562 L 140.023438 202.726562 L 140.023438 195.148438 L 141.226562 195.148438 "/>
<path style=" stroke:none;fill-rule:nonzero;fill:rgb(100%,0%,0%);fill-opacity:1;" d="M 182.023438 247.425781 C 182.023438 246.226562 182.324219 245.273438 182.925781 244.574219 C 183.523438 243.925781 184.375 243.601562 185.476562 243.601562 C 186.625 243.601562 187.5 243.925781 188.101562 244.574219 C 188.699219 245.273438 189 246.226562 189 247.425781 C 189 248.675781 188.675781 249.648438 188.023438 250.351562 C 187.425781 251 186.574219 251.324219 185.476562 251.324219 C 184.375 251.324219 183.523438 251 182.925781 250.351562 C 182.324219 249.648438 182.023438 248.675781 182.023438 247.425781 M 185.476562 250.5 C 186.273438 250.5 186.875 250.25 187.273438 249.75 C 187.675781 249.199219 187.875 248.425781 187.875 247.425781 C 187.875 246.425781 187.675781 245.675781 187.273438 245.175781 C 186.875 244.675781 186.273438 244.425781 185.476562 244.425781 C 184.726562 244.425781 184.125 244.675781 183.675781 245.175781 C 183.273438 245.675781 183.074219 246.425781 183.074219 247.425781 C 183.074219 248.476562 183.273438 249.25 183.675781 249.75 C 184.125 250.25 184.726562 250.5 185.476562 250.5 "/>
<path style=" stroke:none;fill-rule:nonzero;fill:rgb(0%,0%,100%);fill-opacity:1;" d="M 205.648438 199.273438 L 208.125 203.324219 C 208.273438 203.574219 208.476562 203.949219 208.726562 204.449219 C 208.976562 204.898438 209.125 205.148438 209.175781 205.199219 L 209.175781 199.273438 L 210.148438 199.273438 L 210.148438 206.851562 L 209.101562 206.851562 L 206.476562 202.5 C 206.273438 202.148438 206.050781 201.773438 205.800781 201.375 C 205.601562 200.976562 205.476562 200.726562 205.425781 200.625 L 205.425781 206.851562 L 204.449219 206.851562 L 204.449219 199.273438 L 205.648438 199.273438 "/>
<path style=" stroke:none;fill-rule:nonzero;fill:rgb(100%,0%,0%);fill-opacity:1;" d="M 273.898438 212.699219 C 273.898438 211.5 274.199219 210.550781 274.800781 209.851562 C 275.398438 209.199219 276.25 208.875 277.351562 208.875 C 278.449219 208.875 279.300781 209.199219 279.898438 209.851562 C 280.5 210.550781 280.800781 211.5 280.800781 212.699219 C 280.800781 213.898438 280.5 214.851562 279.898438 215.550781 C 279.300781 216.25 278.449219 216.601562 277.351562 216.601562 C 276.25 216.601562 275.398438 216.25 274.800781 215.550781 C 274.199219 214.898438 273.898438 213.949219 273.898438 212.699219 M 277.351562 215.773438 C 278.101562 215.773438 278.699219 215.523438 279.148438 215.023438 C 279.550781 214.476562 279.75 213.699219 279.75 212.699219 C 279.75 211.699219 279.550781 210.949219 279.148438 210.449219 C 278.699219 209.949219 278.101562 209.699219 277.351562 209.699219 C 276.601562 209.699219 276 209.949219 275.550781 210.449219 C 275.148438 210.949219 274.949219 211.699219 274.949219 212.699219 C 274.949219 213.699219 275.148438 214.476562 275.550781 215.023438 C 276 215.523438 276.601562 215.773438 277.351562 215.773438 "/>
<path style=" stroke:none;fill-rule:nonzero;fill:rgb(100%,0%,0%);fill-opacity:1;" d="M 239.101562 243.300781 C 239.101562 242.050781 239.398438 241.101562 240 240.449219 C 240.601562 239.75 241.449219 239.398438 242.550781 239.398438 C 243.699219 239.398438 244.574219 239.75 245.175781 240.449219 C 245.773438 241.101562 246.074219 242.050781 246.074219 243.300781 C 246.074219 244.5 245.773438 245.449219 245.175781 246.148438 C 244.574219 246.851562 243.699219 247.199219 242.550781 247.199219 C 241.449219 247.199219 240.601562 246.851562 240 246.148438 C 239.398438 245.449219 239.101562 244.5 239.101562 243.300781 M 242.550781 246.300781 C 243.351562 246.300781 243.949219 246.050781 244.351562 245.550781 C 244.800781 245.050781 245.023438 244.300781 245.023438 243.300781 C 245.023438 242.300781 244.800781 241.550781 244.351562 241.050781 C 243.949219 240.550781 243.351562 240.300781 242.550781 240.300781 C 241.800781 240.300781 241.226562 240.550781 240.824219 241.050781 C 240.375 241.550781 240.148438 242.300781 240.148438 243.300781 C 240.148438 244.300781 240.375 245.050781 240.824219 245.550781 C 241.226562 246.050781 241.800781 246.300781 242.550781 246.300781 "/>
<path style=" stroke:none;fill-rule:nonzero;fill:rgb(100%,0%,0%);fill-opacity:1;" d="M 246.601562 239.476562 L 247.648438 239.476562 L 247.648438 242.699219 L 251.476562 242.699219 L 251.476562 239.476562 L 252.523438 239.476562 L 252.523438 247.050781 L 251.476562 247.050781 L 251.476562 243.601562 L 247.648438 243.601562 L 247.648438 247.050781 L 246.601562 247.050781 L 246.601562 239.476562 "/>
<path style=" stroke:none;fill-rule:nonzero;fill:rgb(80%,80%,0%);fill-opacity:1;" d="M 283.800781 189.976562 C 283.851562 189.976562 284 190.023438 284.25 190.125 C 284.449219 190.226562 284.675781 190.300781 284.925781 190.351562 C 285.226562 190.398438 285.5 190.425781 285.75 190.425781 C 286.199219 190.425781 286.574219 190.324219 286.875 190.125 C 287.125 189.875 287.25 189.550781 287.25 189.148438 C 287.25 188.898438 287.199219 188.675781 287.101562 188.476562 C 286.949219 188.324219 286.773438 188.199219 286.574219 188.101562 C 286.324219 188 286.023438 187.898438 285.675781 187.800781 C 285.226562 187.648438 284.875 187.523438 284.625 187.425781 C 284.375 187.273438 284.148438 187.074219 283.949219 186.824219 C 283.75 186.523438 283.648438 186.148438 283.648438 185.699219 C 283.648438 185.050781 283.875 184.550781 284.324219 184.199219 C 284.726562 183.800781 285.351562 183.601562 286.199219 183.601562 C 286.800781 183.601562 287.425781 183.726562 288.074219 183.976562 L 287.851562 184.800781 C 287.25 184.550781 286.726562 184.425781 286.273438 184.425781 C 285.773438 184.425781 285.398438 184.523438 285.148438 184.726562 C 284.851562 184.925781 284.699219 185.199219 284.699219 185.550781 C 284.699219 185.851562 284.773438 186.074219 284.925781 186.226562 C 285.074219 186.375 285.25 186.5 285.449219 186.601562 C 285.648438 186.699219 285.925781 186.800781 286.273438 186.898438 C 286.726562 187.050781 287.074219 187.199219 287.324219 187.351562 C 287.625 187.5 287.875 187.726562 288.074219 188.023438 C 288.273438 188.273438 288.375 188.648438 288.375 189.148438 C 288.375 189.851562 288.125 190.398438 287.625 190.800781 C 287.175781 191.148438 286.550781 191.324219 285.75 191.324219 C 285.300781 191.324219 284.925781 191.273438 284.625 191.175781 C 284.273438 191.074219 283.898438 190.949219 283.5 190.800781 L 283.800781 189.976562 "/>
<path style=" stroke:none;fill-rule:nonzero;fill:rgb(0%,0%,100%);fill-opacity:1;" d="M 321.601562 154.050781 L 324.074219 158.023438 C 324.273438 158.273438 324.5 158.648438 324.75 159.148438 C 325 159.648438 325.125 159.898438 325.125 159.898438 L 325.125 154.050781 L 326.175781 154.050781 L 326.175781 161.625 L 325.125 161.625 L 322.425781 157.199219 C 322.226562 156.851562 322.023438 156.5 321.824219 156.148438 C 321.625 155.75 321.476562 155.476562 321.375 155.324219 L 321.375 161.625 L 320.398438 161.625 L 320.398438 154.050781 L 321.601562 154.050781 "/>
<path style=" stroke:none;fill-rule:nonzero;fill:rgb(0%,0%,100%);fill-opacity:1;" d="M 348.148438 157.125 L 350.625 161.175781 C 350.824219 161.425781 351.050781 161.773438 351.300781 162.226562 C 351.550781 162.726562 351.675781 163 351.675781 163.050781 L 351.675781 157.125 L 352.726562 157.125 L 352.726562 164.699219 L 351.675781 164.699219 L 348.976562 160.351562 C 348.773438 160 348.574219 159.625 348.375 159.226562 C 348.175781 158.824219 348.023438 158.574219 347.925781 158.476562 L 347.925781 164.699219 L 346.949219 164.699219 L 346.949219 157.125 L 348.148438 157.125 "/>
<path style=" stroke:none;fill-rule:nonzero;fill:rgb(0%,0%,100%);fill-opacity:1;" d="M 353.398438 183.375 L 355.875 187.351562 C 356.023438 187.601562 356.25 187.976562 356.550781 188.476562 C 356.800781 188.976562 356.925781 189.226562 356.925781 189.226562 L 356.925781 183.375 L 357.976562 183.375 L 357.976562 190.949219 L 356.925781 190.949219 L 354.226562 186.523438 C 354.023438 186.175781 353.824219 185.800781 353.625 185.398438 C 353.425781 185.050781 353.273438 184.800781 353.175781 184.648438 L 353.175781 190.949219 L 352.199219 190.949219 L 352.199219 183.375 L 353.398438 183.375 "/>
<path style=" stroke:none;fill-rule:nonzero;fill:rgb(0%,0%,100%);fill-opacity:1;" d="M 330.074219 196.425781 L 332.550781 200.476562 C 332.75 200.726562 332.976562 201.074219 333.226562 201.523438 C 333.476562 202.023438 333.625 202.300781 333.675781 202.351562 L 333.675781 196.425781 L 334.648438 196.425781 L 334.648438 204 L 333.601562 204 L 330.976562 199.648438 C 330.773438 199.300781 330.550781 198.925781 330.300781 198.523438 C 330.101562 198.125 329.976562 197.875 329.925781 197.773438 L 329.925781 204 L 328.875 204 L 328.875 196.425781 L 330.074219 196.425781 "/>
<path style=" stroke:none;fill-rule:nonzero;fill:rgb(80%,80%,0%);fill-opacity:1;" d="M 196.050781 160.273438 C 196.101562 160.324219 196.25 160.398438 196.5 160.5 C 196.75 160.601562 197 160.675781 197.25 160.726562 C 197.5 160.773438 197.75 160.800781 198 160.800781 C 198.5 160.800781 198.875 160.699219 199.125 160.5 C 199.425781 160.25 199.574219 159.925781 199.574219 159.523438 C 199.574219 159.226562 199.5 159 199.351562 158.851562 C 199.199219 158.648438 199.023438 158.5 198.824219 158.398438 C 198.625 158.351562 198.351562 158.25 198 158.101562 C 197.550781 158 197.175781 157.875 196.875 157.726562 C 196.625 157.625 196.398438 157.425781 196.199219 157.125 C 196 156.875 195.898438 156.523438 195.898438 156.074219 C 195.898438 155.425781 196.125 154.898438 196.574219 154.5 C 197.023438 154.101562 197.675781 153.898438 198.523438 153.898438 C 199.074219 153.898438 199.699219 154.050781 200.398438 154.351562 L 200.101562 155.175781 C 199.5 154.925781 198.976562 154.800781 198.523438 154.800781 C 198.023438 154.800781 197.648438 154.898438 197.398438 155.101562 C 197.148438 155.300781 197.023438 155.574219 197.023438 155.925781 C 197.023438 156.175781 197.074219 156.398438 197.175781 156.601562 C 197.324219 156.75 197.5 156.875 197.699219 156.976562 C 197.898438 157.074219 198.175781 157.175781 198.523438 157.273438 C 198.976562 157.425781 199.351562 157.550781 199.648438 157.648438 C 199.898438 157.800781 200.125 158.023438 200.324219 158.324219 C 200.523438 158.625 200.625 159.023438 200.625 159.523438 C 200.625 160.226562 200.398438 160.75 199.949219 161.101562 C 199.449219 161.5 198.824219 161.699219 198.074219 161.699219 C 197.625 161.699219 197.226562 161.648438 196.875 161.550781 C 196.523438 161.449219 196.148438 161.300781 195.75 161.101562 L 196.050781 160.273438 "/>
<path style=" stroke:none;fill-rule:nonzero;fill:rgb(80%,80%,0%);fill-opacity:1;" d="M 75.675781 239.773438 C 75.773438 239.773438 75.925781 239.824219 76.125 239.925781 C 76.375 240.023438 76.625 240.101562 76.875 240.148438 C 77.125 240.25 77.398438 240.300781 77.699219 240.300781 C 78.148438 240.300781 78.523438 240.175781 78.824219 239.925781 C 79.074219 239.675781 79.199219 239.351562 79.199219 238.949219 C 79.199219 238.699219 79.125 238.476562 78.976562 238.273438 C 78.875 238.125 78.699219 238 78.449219 237.898438 C 78.25 237.800781 77.976562 237.699219 77.625 237.601562 C 77.175781 237.449219 76.824219 237.324219 76.574219 237.226562 C 76.273438 237.074219 76.023438 236.875 75.824219 236.625 C 75.675781 236.324219 75.601562 235.949219 75.601562 235.5 C 75.601562 234.851562 75.800781 234.351562 76.199219 234 C 76.648438 233.601562 77.300781 233.398438 78.148438 233.398438 C 78.75 233.398438 79.375 233.523438 80.023438 233.773438 L 79.800781 234.601562 C 79.199219 234.351562 78.675781 234.226562 78.226562 234.226562 C 77.726562 234.226562 77.324219 234.324219 77.023438 234.523438 C 76.773438 234.726562 76.648438 235 76.648438 235.351562 C 76.648438 235.648438 76.726562 235.875 76.875 236.023438 C 77.023438 236.175781 77.199219 236.300781 77.398438 236.398438 C 77.601562 236.5 77.875 236.601562 78.226562 236.699219 C 78.675781 236.851562 79.023438 237 79.273438 237.148438 C 79.523438 237.300781 79.75 237.523438 79.949219 237.824219 C 80.148438 238.074219 80.25 238.449219 80.25 238.949219 C 80.25 239.648438 80.023438 240.199219 79.574219 240.601562 C 79.125 240.949219 78.5 241.125 77.699219 241.125 C 77.25 241.125 76.851562 241.074219 76.5 240.976562 C 76.199219 240.875 75.851562 240.75 75.449219 240.601562 L 75.675781 239.773438 "/>
<path style=" stroke:none;fill-rule:nonzero;fill:rgb(0%,0%,100%);fill-opacity:1;" d="M 17.023438 227.851562 L 18.074219 227.851562 L 18.074219 231.074219 L 21.976562 231.074219 L 21.976562 227.851562 L 22.949219 227.851562 L 22.949219 235.425781 L 21.976562 235.425781 L 21.976562 231.898438 L 18.074219 231.898438 L 18.074219 235.425781 L 17.023438 235.425781 L 17.023438 227.851562 "/>
<path style=" stroke:none;fill-rule:nonzero;fill:rgb(0%,0%,100%);fill-opacity:1;" d="M 23.925781 235.125 C 24.023438 234.824219 24.226562 234.574219 24.523438 234.375 C 24.824219 234.226562 25.175781 234.148438 25.574219 234.148438 C 26.074219 234.148438 26.449219 234.273438 26.699219 234.523438 C 27 234.824219 27.148438 235.199219 27.148438 235.648438 C 27.148438 236.148438 26.976562 236.625 26.625 237.074219 C 26.273438 237.574219 25.699219 238.101562 24.898438 238.648438 L 27.226562 238.648438 L 27.226562 239.175781 L 23.851562 239.175781 L 23.851562 238.726562 C 24.5 238.273438 25 237.875 25.351562 237.523438 C 25.75 237.226562 26.023438 236.925781 26.175781 236.625 C 26.375 236.324219 26.476562 236.023438 26.476562 235.726562 C 26.476562 235.375 26.398438 235.125 26.25 234.976562 C 26.050781 234.773438 25.824219 234.675781 25.574219 234.675781 C 25.273438 234.675781 25.050781 234.726562 24.898438 234.824219 C 24.699219 234.976562 24.550781 235.148438 24.449219 235.351562 L 23.925781 235.125 "/>
<path style=" stroke:none;fill-rule:nonzero;fill:rgb(0%,0%,100%);fill-opacity:1;" d="M 28.875 227.851562 L 31.351562 231.824219 C 31.5 232.074219 31.699219 232.449219 31.949219 232.949219 C 32.25 233.449219 32.398438 233.699219 32.398438 233.699219 L 32.398438 227.851562 L 33.375 227.851562 L 33.375 235.425781 L 32.398438 235.425781 L 29.699219 231 C 29.5 230.648438 29.300781 230.300781 29.101562 229.949219 C 28.851562 229.550781 28.699219 229.273438 28.648438 229.125 L 28.648438 235.425781 L 27.675781 235.425781 L 27.675781 227.851562 L 28.875 227.851562 "/>
<path style=" stroke:none;fill-rule:nonzero;fill:rgb(0%,0%,100%);fill-opacity:1;" d="M 61.125 192.824219 L 63.601562 196.800781 C 63.800781 197.101562 64.023438 197.476562 64.273438 197.925781 C 64.523438 198.425781 64.675781 198.675781 64.726562 198.675781 L 64.726562 192.824219 L 65.699219 192.824219 L 65.699219 200.398438 L 64.648438 200.398438 L 62.023438 195.976562 C 61.824219 195.625 61.601562 195.273438 61.351562 194.925781 C 61.148438 194.523438 61.023438 194.25 60.976562 194.101562 L 60.976562 200.398438 L 59.925781 200.398438 L 59.925781 192.824219 L 61.125 192.824219 "/>
<path style=" stroke:none;fill-rule:nonzero;fill:rgb(0%,0%,0%);fill-opacity:1;" d="M 164.398438 164.398438 L 165.449219 164.398438 L 165.449219 167.625 L 169.351562 167.625 L 169.351562 164.398438 L 170.324219 164.398438 L 170.324219 171.976562 L 169.351562 171.976562 L 169.351562 168.449219 L 165.449219 168.449219 L 165.449219 171.976562 L 164.398438 171.976562 L 164.398438 164.398438 "/>
</g>
</svg>
