<?xml version="1.0" encoding="UTF-8"?>
<svg xmlns="http://www.w3.org/2000/svg" xmlns:xlink="http://www.w3.org/1999/xlink" width="375pt" height="375pt" viewBox="0 0 375 375" version="1.1">
<g id="surface179">
<rect x="0" y="0" width="375" height="375" style="fill:rgb(100%,100%,100%);fill-opacity:1;stroke:none;"/>
<path style="fill:none;stroke-width:2;stroke-linecap:butt;stroke-linejoin:miter;stroke:rgb(0%,0%,0%);stroke-opacity:1;stroke-miterlimit:4;" d="M 22.697917 261.5 L 51.598958 295.697917 " transform="matrix(0.75,0,0,0.75,0,0)"/>
<path style="fill:none;stroke-width:2;stroke-linecap:butt;stroke-linejoin:miter;stroke:rgb(0%,0%,0%);stroke-opacity:1;stroke-miterlimit:4;" d="M 27.901042 257.197917 L 54.197917 288.401042 " transform="matrix(0.75,0,0,0.75,0,0)"/>
<path style="fill:none;stroke-width:2;stroke-linecap:butt;stroke-linejoin:miter;stroke:rgb(0%,0%,0%);stroke-opacity:1;stroke-miterlimit:4;" d="M 51.598958 295.697917 L 95.697917 287.802083 " transform="matrix(0.75,0,0,0.75,0,0)"/>
<path style="fill:none;stroke-width:2;stroke-linecap:butt;stroke-linejoin:miter;stroke:rgb(0%,0%,0%);stroke-opacity:1;stroke-miterlimit:4;" d="M 95.697917 287.802083 L 110.901042 245.697917 " transform="matrix(0.75,0,0,0.75,0,0)"/>
<path style="fill:none;stroke-width:2;stroke-linecap:butt;stroke-linejoin:miter;stroke:rgb(0%,0%,0%);stroke-opacity:1;stroke-miterlimit:4;" d="M 103.302083 286.5 L 115.901042 251.598958 " transform="matrix(0.75,0,0,0.75,0,0)"/>
<path style="fill:none;stroke-width:2;stroke-linecap:butt;stroke-linejoin:miter;stroke:rgb(0%,0%,0%);stroke-opacity:1;stroke-miterlimit:4;" d="M 110.901042 245.697917 L 82 211.5 " transform="matrix(0.75,0,0,0.75,0,0)"/>
<path style="fill:none;stroke-width:2;stroke-linecap:butt;stroke-linejoin:miter;stroke:rgb(0%,0%,0%);stroke-opacity:1;stroke-miterlimit:4;" d="M 83.302083 207.802083 L 64 211.302083 " transform="matrix(0.75,0,0,0.75,0,0)"/>
<path style="fill:none;stroke-width:2;stroke-linecap:butt;stroke-linejoin:miter;stroke:rgb(100%,0%,0%);stroke-opacity:1;stroke-miterlimit:4;" d="M 64 211.302083 L 44.598958 214.802083 " transform="matrix(0.75,0,0,0.75,0,0)"/>
<path style="fill:none;stroke-width:2;stroke-linecap:butt;stroke-linejoin:miter;stroke:rgb(0%,0%,0%);stroke-opacity:1;stroke-miterlimit:4;" d="M 84.5 214.401042 L 65.197917 217.901042 " transform="matrix(0.75,0,0,0.75,0,0)"/>
<path style="fill:none;stroke-width:2;stroke-linecap:butt;stroke-linejoin:miter;stroke:rgb(100%,0%,0%);stroke-opacity:1;stroke-miterlimit:4;" d="M 65.197917 217.901042 L 45.802083 221.401042 " transform="matrix(0.75,0,0,0.75,0,0)"/>
<path style="fill:none;stroke-width:2;stroke-linecap:butt;stroke-linejoin:miter;stroke:rgb(0%,0%,0%);stroke-opacity:1;stroke-miterlimit:4;" d="M 82 211.5 L 88.098958 194.5 " transform="matrix(0.75,0,0,0.75,0,0)"/>
<path style="fill:none;stroke-width:2;stroke-linecap:butt;stroke-linejoin:miter;stroke:rgb(100%,0%,0%);stroke-opacity:1;stroke-miterlimit:4;" d="M 88.098958 194.5 L 94.302083 177.401042 " transform="matrix(0.75,0,0,0.75,0,0)"/>
<path style="fill:none;stroke-width:2;stroke-linecap:butt;stroke-linejoin:miter;stroke:rgb(0%,0%,0%);stroke-opacity:1;stroke-miterlimit:4;" d="M 110.901042 245.697917 L 129.802083 242.302083 " transform="matrix(0.75,0,0,0.75,0,0)"/>
<path style="fill:none;stroke-width:2;stroke-linecap:butt;stroke-linejoin:miter;stroke:rgb(0%,0%,100%);stroke-opacity:1;stroke-miterlimit:4;" d="M 129.802083 242.302083 L 148.697917 238.901042 " transform="matrix(0.75,0,0,0.75,0,0)"/>
<path style="fill:none;stroke-width:2;stroke-linecap:butt;stroke-linejoin:miter;stroke:rgb(0%,0%,100%);stroke-opacity:1;stroke-miterlimit:4;" d="M 161.302083 232.5 L 175.197917 220.697917 " transform="matrix(0.75,0,0,0.75,0,0)"/>
<path style="fill:none;stroke-width:2;stroke-linecap:butt;stroke-linejoin:miter;stroke:rgb(0%,0%,0%);stroke-opacity:1;stroke-miterlimit:4;" d="M 175.197917 220.697917 L 189.197917 208.901042 " transform="matrix(0.75,0,0,0.75,0,0)"/>
<path style="fill:none;stroke-width:2;stroke-linecap:butt;stroke-linejoin:miter;stroke:rgb(0%,0%,0%);stroke-opacity:1;stroke-miterlimit:4;" d="M 192.302083 212.5 L 193.901042 192.598958 " transform="matrix(0.75,0,0,0.75,0,0)"/>
<path style="fill:none;stroke-width:2;stroke-linecap:butt;stroke-linejoin:miter;stroke:rgb(100%,0%,0%);stroke-opacity:1;stroke-miterlimit:4;" d="M 193.901042 192.598958 L 195.598958 172.697917 " transform="matrix(0.75,0,0,0.75,0,0)"/>
<path style="fill:none;stroke-width:2;stroke-linecap:butt;stroke-linejoin:miter;stroke:rgb(0%,0%,0%);stroke-opacity:1;stroke-miterlimit:4;" d="M 185.598958 212 L 187.302083 192 " transform="matrix(0.75,0,0,0.75,0,0)"/>
<path style="fill:none;stroke-width:2;stroke-linecap:butt;stroke-linejoin:miter;stroke:rgb(100%,0%,0%);stroke-opacity:1;stroke-miterlimit:4;" d="M 187.302083 192 L 188.901042 172.098958 " transform="matrix(0.75,0,0,0.75,0,0)"/>
<path style="fill:none;stroke-width:2;stroke-linecap:butt;stroke-linejoin:miter;stroke:rgb(0%,0%,0%);stroke-opacity:1;stroke-miterlimit:4;" d="M 189.197917 208.901042 L 218.098958 243.098958 " transform="matrix(0.75,0,0,0.75,0,0)"/>
<path style="fill-rule:evenodd;fill:rgb(0%,0%,0%);fill-opacity:1;stroke-width:0.5;stroke-linecap:butt;stroke-linejoin:miter;stroke:rgb(0%,0%,0%);stroke-opacity:1;stroke-miterlimit:4;" d="M 218.098958 243.098958 L 236.697917 243 L 236.401042 246.401042 Z M 218.098958 243.098958 " transform="matrix(0.75,0,0,0.75,0,0)"/>
<path style="fill-rule:evenodd;fill:rgb(0%,0%,100%);fill-opacity:1;stroke-width:0.5;stroke-linecap:butt;stroke-linejoin:miter;stroke:rgb(0%,0%,100%);stroke-opacity:1;stroke-miterlimit:4;" d="M 236.697917 243 L 254.697917 249.598958 L 255.197917 242.901042 Z M 236.697917 243 " transform="matrix(0.75,0,0,0.75,0,0)"/>
<path style="fill-rule:evenodd;fill:rgb(0%,0%,100%);fill-opacity:1;stroke-width:0.5;stroke-linecap:butt;stroke-linejoin:miter;stroke:rgb(0%,0%,100%);stroke-opacity:1;stroke-miterlimit:4;" d="M 236.697917 243 L 236.401042 246.401042 L 254.697917 249.598958 Z M 236.697917 243 " transform="matrix(0.75,0,0,0.75,0,0)"/>
<path style="fill:none;stroke-width:2;stroke-linecap:butt;stroke-linejoin:miter;stroke:rgb(0%,0%,100%);stroke-opacity:1;stroke-miterlimit:4;" d="M 266.401042 254.697917 L 274.098958 271.098958 " transform="matrix(0.75,0,0,0.75,0,0)"/>
<path style="fill:none;stroke-width:2;stroke-linecap:butt;stroke-linejoin:miter;stroke:rgb(0%,0%,0%);stroke-opacity:1;stroke-miterlimit:4;" d="M 274.098958 271.098958 L 281.802083 287.401042 " transform="matrix(0.75,0,0,0.75,0,0)"/>
<path style="fill:none;stroke-width:2;stroke-linecap:butt;stroke-linejoin:miter;stroke:rgb(0%,0%,0%);stroke-opacity:1;stroke-miterlimit:4;" d="M 280.098958 283.901042 L 269.5 299.197917 " transform="matrix(0.75,0,0,0.75,0,0)"/>
<path style="fill:none;stroke-width:2;stroke-linecap:butt;stroke-linejoin:miter;stroke:rgb(100%,0%,0%);stroke-opacity:1;stroke-miterlimit:4;" d="M 269.5 299.197917 L 258.901042 314.401042 " transform="matrix(0.75,0,0,0.75,0,0)"/>
<path style="fill:none;stroke-width:2;stroke-linecap:butt;stroke-linejoin:miter;stroke:rgb(0%,0%,0%);stroke-opacity:1;stroke-miterlimit:4;" d="M 285.598958 287.802083 L 275 303 " transform="matrix(0.75,0,0,0.75,0,0)"/>
<path style="fill:none;stroke-width:2;stroke-linecap:butt;stroke-linejoin:miter;stroke:rgb(100%,0%,0%);stroke-opacity:1;stroke-miterlimit:4;" d="M 275 303 L 264.401042 318.197917 " transform="matrix(0.75,0,0,0.75,0,0)"/>
<path style="fill:none;stroke-width:2;stroke-linecap:butt;stroke-linejoin:miter;stroke:rgb(0%,0%,0%);stroke-opacity:1;stroke-miterlimit:4;" d="M 281.802083 287.401042 L 326.401042 291.197917 " transform="matrix(0.75,0,0,0.75,0,0)"/>
<path style="fill:none;stroke-width:2;stroke-linecap:butt;stroke-linejoin:miter;stroke:rgb(0%,0%,0%);stroke-opacity:1;stroke-miterlimit:4;" d="M 326.401042 291.197917 L 334.098958 307.598958 " transform="matrix(0.75,0,0,0.75,0,0)"/>
<path style="fill:none;stroke-width:2;stroke-linecap:butt;stroke-linejoin:miter;stroke:rgb(0%,0%,100%);stroke-opacity:1;stroke-miterlimit:4;" d="M 334.098958 307.598958 L 341.802083 323.901042 " transform="matrix(0.75,0,0,0.75,0,0)"/>
<path style="fill:none;stroke-width:2;stroke-linecap:butt;stroke-linejoin:miter;stroke:rgb(0%,0%,0%);stroke-opacity:1;stroke-miterlimit:4;" d="M 334.098958 291.901042 L 340.302083 305 " transform="matrix(0.75,0,0,0.75,0,0)"/>
<path style="fill:none;stroke-width:2;stroke-linecap:butt;stroke-linejoin:miter;stroke:rgb(0%,0%,100%);stroke-opacity:1;stroke-miterlimit:4;" d="M 340.302083 305 L 346.5 318.098958 " transform="matrix(0.75,0,0,0.75,0,0)"/>
<path style="fill:none;stroke-width:2;stroke-linecap:butt;stroke-linejoin:miter;stroke:rgb(0%,0%,100%);stroke-opacity:1;stroke-miterlimit:4;" d="M 351.697917 332.302083 L 367.197917 333.598958 " transform="matrix(0.75,0,0,0.75,0,0)"/>
<path style="fill:none;stroke-width:2;stroke-linecap:butt;stroke-linejoin:miter;stroke:rgb(100%,0%,0%);stroke-opacity:1;stroke-miterlimit:4;" d="M 367.197917 333.598958 L 382.802083 334.901042 " transform="matrix(0.75,0,0,0.75,0,0)"/>
<path style="fill:none;stroke-width:2;stroke-linecap:butt;stroke-linejoin:miter;stroke:rgb(0%,0%,0%);stroke-opacity:1;stroke-miterlimit:4;" d="M 326.401042 291.197917 L 352 254.5 " transform="matrix(0.75,0,0,0.75,0,0)"/>
<path style="fill:none;stroke-width:2;stroke-linecap:butt;stroke-linejoin:miter;stroke:rgb(0%,0%,0%);stroke-opacity:1;stroke-miterlimit:4;" d="M 352 254.5 L 337.302083 212.098958 " transform="matrix(0.75,0,0,0.75,0,0)"/>
<path style="fill:none;stroke-width:2;stroke-linecap:butt;stroke-linejoin:miter;stroke:rgb(0%,0%,0%);stroke-opacity:1;stroke-miterlimit:4;" d="M 356.697917 247.598958 L 345.197917 214.598958 " transform="matrix(0.75,0,0,0.75,0,0)"/>
<path style="fill:none;stroke-width:2;stroke-linecap:butt;stroke-linejoin:miter;stroke:rgb(0%,0%,0%);stroke-opacity:1;stroke-miterlimit:4;" d="M 337.302083 212.098958 L 352.302083 200.697917 " transform="matrix(0.75,0,0,0.75,0,0)"/>
<path style="fill:none;stroke-width:2;stroke-linecap:butt;stroke-linejoin:miter;stroke:rgb(80%,80%,0%);stroke-opacity:1;stroke-miterlimit:4;" d="M 352.302083 200.697917 L 367.401042 189.302083 " transform="matrix(0.75,0,0,0.75,0,0)"/>
<path style="fill:none;stroke-width:2;stroke-linecap:butt;stroke-linejoin:miter;stroke:rgb(80%,80%,0%);stroke-opacity:1;stroke-miterlimit:4;" d="M 378.5 188.901042 L 394.098958 199.802083 " transform="matrix(0.75,0,0,0.75,0,0)"/>
<path style="fill:none;stroke-width:2;stroke-linecap:butt;stroke-linejoin:miter;stroke:rgb(0%,0%,0%);stroke-opacity:1;stroke-miterlimit:4;" d="M 394.098958 199.802083 L 409.697917 210.697917 " transform="matrix(0.75,0,0,0.75,0,0)"/>
<path style="fill:none;stroke-width:2;stroke-linecap:butt;stroke-linejoin:miter;stroke:rgb(0%,0%,0%);stroke-opacity:1;stroke-miterlimit:4;" d="M 409.697917 210.697917 L 427.697917 204.401042 " transform="matrix(0.75,0,0,0.75,0,0)"/>
<path style="fill:none;stroke-width:2;stroke-linecap:butt;stroke-linejoin:miter;stroke:rgb(0%,0%,100%);stroke-opacity:1;stroke-miterlimit:4;" d="M 427.697917 204.401042 L 445.697917 198.197917 " transform="matrix(0.75,0,0,0.75,0,0)"/>
<path style="fill:none;stroke-width:2;stroke-linecap:butt;stroke-linejoin:miter;stroke:rgb(0%,0%,0%);stroke-opacity:1;stroke-miterlimit:4;" d="M 409.697917 210.697917 L 404.401042 228.197917 " transform="matrix(0.75,0,0,0.75,0,0)"/>
<path style="fill:none;stroke-width:2;stroke-linecap:butt;stroke-linejoin:miter;stroke:rgb(0%,0%,100%);stroke-opacity:1;stroke-miterlimit:4;" d="M 404.401042 228.197917 L 399.098958 245.697917 " transform="matrix(0.75,0,0,0.75,0,0)"/>
<path style="fill:none;stroke-width:2;stroke-linecap:butt;stroke-linejoin:miter;stroke:rgb(0%,0%,0%);stroke-opacity:1;stroke-miterlimit:4;" d="M 401.901042 213.401042 L 397.302083 228.598958 " transform="matrix(0.75,0,0,0.75,0,0)"/>
<path style="fill:none;stroke-width:2;stroke-linecap:butt;stroke-linejoin:miter;stroke:rgb(0%,0%,100%);stroke-opacity:1;stroke-miterlimit:4;" d="M 397.302083 228.598958 L 392.697917 243.802083 " transform="matrix(0.75,0,0,0.75,0,0)"/>
<path style="fill:none;stroke-width:2;stroke-linecap:butt;stroke-linejoin:miter;stroke:rgb(0%,0%,0%);stroke-opacity:1;stroke-miterlimit:4;" d="M 218.098958 243.098958 L 183.901042 272 " transform="matrix(0.75,0,0,0.75,0,0)"/>
<path style="fill:none;stroke-width:2;stroke-linecap:butt;stroke-linejoin:miter;stroke:rgb(0%,0%,0%);stroke-opacity:1;stroke-miterlimit:4;" d="M 183.901042 272 L 177.697917 289.197917 " transform="matrix(0.75,0,0,0.75,0,0)"/>
<path style="fill:none;stroke-width:2;stroke-linecap:butt;stroke-linejoin:miter;stroke:rgb(80%,80%,0%);stroke-opacity:1;stroke-miterlimit:4;" d="M 177.697917 289.197917 L 171.5 306.401042 " transform="matrix(0.75,0,0,0.75,0,0)"/>
<path style="fill:none;stroke-width:2;stroke-linecap:butt;stroke-linejoin:miter;stroke:rgb(80%,80%,0%);stroke-opacity:1;stroke-miterlimit:4;" d="M 163.098958 315.098958 L 143.901042 318.598958 " transform="matrix(0.75,0,0,0.75,0,0)"/>
<path style="fill:none;stroke-width:2;stroke-linecap:butt;stroke-linejoin:miter;stroke:rgb(0%,0%,0%);stroke-opacity:1;stroke-miterlimit:4;" d="M 143.901042 318.598958 L 124.598958 322.098958 " transform="matrix(0.75,0,0,0.75,0,0)"/>
<path style="fill:none;stroke-width:2;stroke-linecap:butt;stroke-linejoin:miter;stroke:rgb(0%,0%,0%);stroke-opacity:1;stroke-miterlimit:4;" d="M 124.598958 322.098958 L 95.697917 287.802083 " transform="matrix(0.75,0,0,0.75,0,0)"/>
<path style="fill:none;stroke-width:2;stroke-linecap:butt;stroke-linejoin:miter;stroke:rgb(0%,0%,0%);stroke-opacity:1;stroke-miterlimit:4;" d="M 183.901042 272 L 172.598958 258.598958 " transform="matrix(0.75,0,0,0.75,0,0)"/>
<path style="fill:none;stroke-width:2;stroke-linecap:butt;stroke-linejoin:miter;stroke:rgb(0%,0%,100%);stroke-opacity:1;stroke-miterlimit:4;" d="M 172.598958 258.598958 L 161.302083 245.197917 " transform="matrix(0.75,0,0,0.75,0,0)"/>
<path style="fill:none;stroke-width:2;stroke-linecap:butt;stroke-linejoin:miter;stroke:rgb(0%,0%,100%);stroke-opacity:1;stroke-miterlimit:4;" d="M 390.5 253.697917 L 371.197917 254.098958 " transform="matrix(0.75,0,0,0.75,0,0)"/>
<path style="fill:none;stroke-width:2;stroke-linecap:butt;stroke-linejoin:miter;stroke:rgb(0%,0%,0%);stroke-opacity:1;stroke-miterlimit:4;" d="M 371.197917 254.098958 L 352 254.5 " transform="matrix(0.75,0,0,0.75,0,0)"/>
<path style="fill:none;stroke-width:1;stroke-linecap:butt;stroke-linejoin:miter;stroke:rgb(0%,0%,0%);stroke-opacity:1;stroke-miterlimit:4;" d="M 186.901042 273.802083 L 186.598958 274.302083 " transform="matrix(0.75,0,0,0.75,0,0)"/>
<path style="fill:none;stroke-width:1;stroke-linecap:butt;stroke-linejoin:miter;stroke:rgb(0%,0%,0%);stroke-opacity:1;stroke-miterlimit:4;" d="M 190 275.5 L 189.197917 276.598958 " transform="matrix(0.75,0,0,0.75,0,0)"/>
<path style="fill:none;stroke-width:1;stroke-linecap:butt;stroke-linejoin:miter;stroke:rgb(0%,0%,0%);stroke-opacity:1;stroke-miterlimit:4;" d="M 193.098958 277.197917 L 191.901042 278.901042 " transform="matrix(0.75,0,0,0.75,0,0)"/>
<path style="fill:none;stroke-width:1;stroke-linecap:butt;stroke-linejoin:miter;stroke:rgb(0%,0%,0%);stroke-opacity:1;stroke-miterlimit:4;" d="M 196.197917 278.901042 L 194.598958 281.197917 " transform="matrix(0.75,0,0,0.75,0,0)"/>
<path style="fill:none;stroke-width:1;stroke-linecap:butt;stroke-linejoin:miter;stroke:rgb(0%,0%,0%);stroke-opacity:1;stroke-miterlimit:4;" d="M 199.197917 280.697917 L 197.302083 283.401042 " transform="matrix(0.75,0,0,0.75,0,0)"/>
<path style="fill:none;stroke-width:1;stroke-linecap:butt;stroke-linejoin:miter;stroke:rgb(0%,0%,0%);stroke-opacity:1;stroke-miterlimit:4;" d="M 202.302083 282.401042 L 200 285.697917 " transform="matrix(0.75,0,0,0.75,0,0)"/>
<path style="fill:none;stroke-width:1;stroke-linecap:butt;stroke-linejoin:miter;stroke:rgb(0%,0%,0%);stroke-opacity:1;stroke-miterlimit:4;" d="M 205.401042 284.098958 L 202.697917 288 " transform="matrix(0.75,0,0,0.75,0,0)"/>
<path style="fill:none;stroke-width:1;stroke-linecap:butt;stroke-linejoin:miter;stroke:rgb(0%,0%,0%);stroke-opacity:1;stroke-miterlimit:4;" d="M 208.5 285.901042 L 205.401042 290.302083 " transform="matrix(0.75,0,0,0.75,0,0)"/>
<path style="fill:none;stroke-width:1;stroke-linecap:butt;stroke-linejoin:miter;stroke:rgb(0%,0%,0%);stroke-opacity:1;stroke-miterlimit:4;" d="M 211.5 287.598958 L 208.098958 292.598958 " transform="matrix(0.75,0,0,0.75,0,0)"/>
<path style="fill:none;stroke-width:1;stroke-linecap:butt;stroke-linejoin:miter;stroke:rgb(0%,0%,0%);stroke-opacity:1;stroke-miterlimit:4;" d="M 214.598958 289.302083 L 210.802083 294.802083 " transform="matrix(0.75,0,0,0.75,0,0)"/>
<path style="fill:none;stroke-width:2;stroke-linecap:butt;stroke-linejoin:miter;stroke:rgb(0%,0%,0%);stroke-opacity:1;stroke-miterlimit:4;" d="M 50.197917 294 L 51.598958 295.697917 L 53.802083 295.302083 " transform="matrix(0.75,0,0,0.75,0,0)"/>
<path style="fill:none;stroke-width:2;stroke-linecap:butt;stroke-linejoin:miter;stroke:rgb(0%,0%,0%);stroke-opacity:1;stroke-miterlimit:4;" d="M 83.401042 213.197917 L 82 211.5 L 82.302083 210.598958 " transform="matrix(0.75,0,0,0.75,0,0)"/>
<path style="fill:none;stroke-width:2;stroke-linecap:butt;stroke-linejoin:miter;stroke:rgb(0%,0%,0%);stroke-opacity:1;stroke-miterlimit:4;" d="M 188.5 209.5 L 189.197917 208.901042 L 190.598958 210.598958 " transform="matrix(0.75,0,0,0.75,0,0)"/>
<path style="fill:none;stroke-width:2;stroke-linecap:butt;stroke-linejoin:miter;stroke:rgb(0%,0%,0%);stroke-opacity:1;stroke-miterlimit:4;" d="M 216.598958 241.401042 L 218.098958 243.098958 L 216.401042 244.598958 " transform="matrix(0.75,0,0,0.75,0,0)"/>
<path style="fill:none;stroke-width:2;stroke-linecap:butt;stroke-linejoin:miter;stroke:rgb(0%,0%,0%);stroke-opacity:1;stroke-miterlimit:4;" d="M 281.401042 286.598958 L 281.802083 287.401042 L 284 287.598958 " transform="matrix(0.75,0,0,0.75,0,0)"/>
<path style="fill:none;stroke-width:2;stroke-linecap:butt;stroke-linejoin:miter;stroke:rgb(0%,0%,0%);stroke-opacity:1;stroke-miterlimit:4;" d="M 338 214.302083 L 337.302083 212.098958 L 338 211.598958 " transform="matrix(0.75,0,0,0.75,0,0)"/>
<path style="fill:none;stroke-width:2;stroke-linecap:butt;stroke-linejoin:miter;stroke:rgb(0%,0%,0%);stroke-opacity:1;stroke-miterlimit:4;" d="M 125.598958 321.901042 L 124.598958 322.098958 L 123.098958 320.302083 " transform="matrix(0.75,0,0,0.75,0,0)"/>
<path style=" stroke:none;fill-rule:nonzero;fill:rgb(100%,0%,0%);fill-opacity:1;" d="M 24.074219 164.550781 C 24.074219 163.050781 24.449219 161.875 25.199219 161.023438 C 25.949219 160.175781 27.023438 159.75 28.425781 159.75 C 29.824219 159.75 30.898438 160.175781 31.648438 161.023438 C 32.398438 161.875 32.773438 163.050781 32.773438 164.550781 C 32.773438 166.101562 32.398438 167.324219 31.648438 168.226562 C 30.898438 169.074219 29.824219 169.5 28.425781 169.5 C 27.023438 169.5 25.949219 169.074219 25.199219 168.226562 C 24.449219 167.324219 24.074219 166.101562 24.074219 164.550781 M 28.425781 168.449219 C 29.425781 168.449219 30.175781 168.125 30.675781 167.476562 C 31.226562 166.824219 31.5 165.851562 31.5 164.550781 C 31.5 163.300781 31.226562 162.375 30.675781 161.773438 C 30.175781 161.125 29.425781 160.800781 28.425781 160.800781 C 27.476562 160.800781 26.726562 161.125 26.175781 161.773438 C 25.675781 162.375 25.425781 163.300781 25.425781 164.550781 C 25.425781 165.851562 25.675781 166.824219 26.175781 167.476562 C 26.726562 168.125 27.476562 168.449219 28.425781 168.449219 "/>
<path style=" stroke:none;fill-rule:nonzero;fill:rgb(100%,0%,0%);fill-opacity:1;" d="M 68.550781 127.050781 C 68.550781 125.5 68.925781 124.300781 69.675781 123.449219 C 70.425781 122.601562 71.5 122.175781 72.898438 122.175781 C 74.300781 122.175781 75.375 122.601562 76.125 123.449219 C 76.875 124.300781 77.25 125.5 77.25 127.050781 C 77.25 128.601562 76.875 129.800781 76.125 130.648438 C 75.375 131.550781 74.300781 132 72.898438 132 C 71.5 132 70.425781 131.550781 69.675781 130.648438 C 68.925781 129.800781 68.550781 128.601562 68.550781 127.050781 M 72.898438 130.875 C 73.851562 130.875 74.601562 130.550781 75.148438 129.898438 C 75.648438 129.25 75.898438 128.300781 75.898438 127.050781 C 75.898438 125.800781 75.648438 124.851562 75.148438 124.199219 C 74.601562 123.601562 73.851562 123.300781 72.898438 123.300781 C 71.949219 123.300781 71.199219 123.601562 70.648438 124.199219 C 70.148438 124.851562 69.898438 125.800781 69.898438 127.050781 C 69.898438 128.300781 70.148438 129.25 70.648438 129.898438 C 71.199219 130.550781 71.949219 130.875 72.898438 130.875 "/>
<path style=" stroke:none;fill-rule:nonzero;fill:rgb(100%,0%,0%);fill-opacity:1;" d="M 78.75 122.324219 L 80.023438 122.324219 L 80.023438 126.375 L 84.898438 126.375 L 84.898438 122.324219 L 86.175781 122.324219 L 86.175781 131.851562 L 84.898438 131.851562 L 84.898438 127.425781 L 80.023438 127.425781 L 80.023438 131.851562 L 78.75 131.851562 L 78.75 122.324219 "/>
<path style=" stroke:none;fill-rule:nonzero;fill:rgb(0%,0%,100%);fill-opacity:1;" d="M 114.148438 173.625 L 117.226562 178.648438 C 117.425781 178.949219 117.699219 179.398438 118.050781 180 C 118.398438 180.601562 118.574219 180.925781 118.574219 180.976562 L 118.574219 173.625 L 119.851562 173.625 L 119.851562 183.074219 L 118.5 183.074219 L 115.199219 177.601562 C 114.949219 177.148438 114.675781 176.699219 114.375 176.25 C 114.125 175.75 113.949219 175.425781 113.851562 175.273438 L 113.851562 183.074219 L 112.648438 183.074219 L 112.648438 173.625 L 114.148438 173.625 "/>
<path style=" stroke:none;fill-rule:nonzero;fill:rgb(100%,0%,0%);fill-opacity:1;" d="M 140.324219 123.226562 C 140.324219 121.726562 140.726562 120.550781 141.523438 119.699219 C 142.273438 118.851562 143.351562 118.425781 144.75 118.425781 C 146.148438 118.425781 147.226562 118.851562 147.976562 119.699219 C 148.726562 120.550781 149.101562 121.726562 149.101562 123.226562 C 149.101562 124.773438 148.726562 126 147.976562 126.898438 C 147.175781 127.75 146.101562 128.175781 144.75 128.175781 C 143.351562 128.175781 142.273438 127.75 141.523438 126.898438 C 140.726562 126 140.324219 124.773438 140.324219 123.226562 M 144.75 127.125 C 145.699219 127.125 146.425781 126.800781 146.925781 126.148438 C 147.476562 125.5 147.75 124.523438 147.75 123.226562 C 147.75 121.976562 147.476562 121.050781 146.925781 120.449219 C 146.425781 119.800781 145.699219 119.476562 144.75 119.476562 C 143.75 119.476562 143 119.800781 142.5 120.449219 C 141.949219 121.050781 141.675781 121.976562 141.675781 123.226562 C 141.675781 124.523438 141.949219 125.5 142.5 126.148438 C 143 126.800781 143.75 127.125 144.75 127.125 "/>
<path style=" stroke:none;fill-rule:nonzero;fill:rgb(0%,0%,100%);fill-opacity:1;" d="M 194.925781 180.449219 L 198.074219 185.476562 C 198.273438 185.773438 198.523438 186.226562 198.824219 186.824219 C 199.175781 187.425781 199.351562 187.75 199.351562 187.800781 L 199.351562 180.449219 L 200.625 180.449219 L 200.625 189.898438 L 199.351562 189.898438 L 195.976562 184.425781 C 195.726562 183.976562 195.476562 183.523438 195.226562 183.074219 C 194.925781 182.574219 194.75 182.25 194.699219 182.101562 L 194.699219 189.898438 L 193.425781 189.898438 L 193.425781 180.449219 L 194.925781 180.449219 "/>
<path style=" stroke:none;fill-rule:nonzero;fill:rgb(0%,0%,100%);fill-opacity:1;" d="M 202.5 180.449219 L 203.773438 180.449219 L 203.773438 184.5 L 208.648438 184.5 L 208.648438 180.449219 L 209.925781 180.449219 L 209.925781 189.898438 L 208.648438 189.898438 L 208.648438 185.550781 L 203.773438 185.550781 L 203.773438 189.898438 L 202.5 189.898438 L 202.5 180.449219 "/>
<path style=" stroke:none;fill-rule:nonzero;fill:rgb(100%,0%,0%);fill-opacity:1;" d="M 187.800781 243.148438 C 187.800781 241.648438 188.175781 240.476562 188.925781 239.625 C 189.675781 238.773438 190.75 238.351562 192.148438 238.351562 C 193.550781 238.351562 194.625 238.773438 195.375 239.625 C 196.125 240.476562 196.5 241.648438 196.5 243.148438 C 196.5 244.699219 196.125 245.925781 195.375 246.824219 C 194.625 247.675781 193.550781 248.101562 192.148438 248.101562 C 190.75 248.101562 189.675781 247.675781 188.925781 246.824219 C 188.175781 245.925781 187.800781 244.699219 187.800781 243.148438 M 192.148438 247.050781 C 193.101562 247.050781 193.851562 246.726562 194.398438 246.074219 C 194.898438 245.425781 195.148438 244.449219 195.148438 243.148438 C 195.148438 241.898438 194.898438 240.976562 194.398438 240.375 C 193.851562 239.726562 193.101562 239.398438 192.148438 239.398438 C 191.148438 239.398438 190.398438 239.726562 189.898438 240.375 C 189.351562 240.976562 189.074219 241.898438 189.074219 243.148438 C 189.074219 244.449219 189.351562 245.425781 189.898438 246.074219 C 190.398438 246.726562 191.148438 247.050781 192.148438 247.050781 "/>
<path style=" stroke:none;fill-rule:nonzero;fill:rgb(0%,0%,100%);fill-opacity:1;" d="M 256.949219 244.050781 L 260.101562 249.074219 C 260.300781 249.425781 260.574219 249.898438 260.925781 250.5 C 261.226562 251.101562 261.398438 251.425781 261.449219 251.476562 L 261.449219 244.050781 L 262.648438 244.050781 L 262.648438 253.574219 L 261.375 253.574219 L 258 248.023438 C 257.75 247.625 257.5 247.175781 257.25 246.675781 C 256.949219 246.175781 256.773438 245.851562 256.726562 245.699219 L 256.726562 253.574219 L 255.449219 253.574219 L 255.449219 244.050781 L 256.949219 244.050781 "/>
<path style=" stroke:none;fill-rule:nonzero;fill:rgb(100%,0%,0%);fill-opacity:1;" d="M 288.148438 251.699219 C 288.148438 250.148438 288.523438 248.949219 289.273438 248.101562 C 290.023438 247.25 291.125 246.824219 292.574219 246.824219 C 293.976562 246.824219 295.050781 247.25 295.800781 248.101562 C 296.550781 248.949219 296.925781 250.148438 296.925781 251.699219 C 296.925781 253.199219 296.550781 254.398438 295.800781 255.300781 C 295 256.148438 293.925781 256.574219 292.574219 256.574219 C 291.175781 256.574219 290.074219 256.148438 289.273438 255.300781 C 288.523438 254.449219 288.148438 253.25 288.148438 251.699219 M 292.574219 255.523438 C 293.523438 255.523438 294.25 255.199219 294.75 254.550781 C 295.300781 253.898438 295.574219 252.949219 295.574219 251.699219 C 295.574219 250.449219 295.300781 249.5 294.75 248.851562 C 294.25 248.199219 293.523438 247.875 292.574219 247.875 C 291.574219 247.875 290.824219 248.199219 290.324219 248.851562 C 289.773438 249.449219 289.5 250.398438 289.5 251.699219 C 289.5 252.949219 289.773438 253.898438 290.324219 254.550781 C 290.824219 255.199219 291.574219 255.523438 292.574219 255.523438 "/>
<path style=" stroke:none;fill-rule:nonzero;fill:rgb(100%,0%,0%);fill-opacity:1;" d="M 298.425781 246.898438 L 299.699219 246.898438 L 299.699219 250.949219 L 304.574219 250.949219 L 304.574219 246.898438 L 305.851562 246.898438 L 305.851562 256.425781 L 304.574219 256.425781 L 304.574219 252.074219 L 299.699219 252.074219 L 299.699219 256.425781 L 298.425781 256.425781 L 298.425781 246.898438 "/>
<path style=" stroke:none;fill-rule:nonzero;fill:rgb(80%,80%,0%);fill-opacity:1;" d="M 277.050781 142.050781 C 277.101562 142.101562 277.273438 142.175781 277.574219 142.273438 C 277.875 142.425781 278.175781 142.550781 278.476562 142.648438 C 278.824219 142.699219 279.148438 142.726562 279.449219 142.726562 C 280.050781 142.726562 280.523438 142.574219 280.875 142.273438 C 281.226562 141.976562 281.398438 141.574219 281.398438 141.074219 C 281.398438 140.726562 281.324219 140.449219 281.175781 140.25 C 280.976562 140.050781 280.75 139.875 280.5 139.726562 C 280.25 139.625 279.898438 139.5 279.449219 139.351562 C 278.851562 139.199219 278.398438 139.050781 278.101562 138.898438 C 277.75 138.699219 277.449219 138.449219 277.199219 138.148438 C 277 137.800781 276.898438 137.324219 276.898438 136.726562 C 276.898438 135.925781 277.148438 135.300781 277.648438 134.851562 C 278.199219 134.351562 279.023438 134.101562 280.125 134.101562 C 280.824219 134.101562 281.601562 134.273438 282.449219 134.625 L 282.148438 135.601562 C 281.398438 135.300781 280.726562 135.148438 280.125 135.148438 C 279.523438 135.148438 279.050781 135.273438 278.699219 135.523438 C 278.351562 135.773438 278.175781 136.125 278.175781 136.574219 C 278.175781 136.925781 278.273438 137.199219 278.476562 137.398438 C 278.625 137.601562 278.824219 137.773438 279.074219 137.925781 C 279.375 138.023438 279.726562 138.148438 280.125 138.300781 C 280.726562 138.449219 281.199219 138.625 281.550781 138.824219 C 281.851562 138.976562 282.125 139.25 282.375 139.648438 C 282.625 140 282.75 140.476562 282.75 141.074219 C 282.75 141.976562 282.449219 142.648438 281.851562 143.101562 C 281.300781 143.601562 280.523438 143.851562 279.523438 143.851562 C 278.976562 143.851562 278.476562 143.773438 278.023438 143.625 C 277.625 143.523438 277.175781 143.375 276.675781 143.175781 L 277.050781 142.050781 "/>
<path style=" stroke:none;fill-rule:nonzero;fill:rgb(0%,0%,100%);fill-opacity:1;" d="M 336.898438 142.199219 L 340.050781 147.226562 C 340.25 147.574219 340.5 148.050781 340.800781 148.648438 C 341.148438 149.25 341.324219 149.574219 341.324219 149.625 L 341.324219 142.199219 L 342.601562 142.199219 L 342.601562 151.726562 L 341.324219 151.726562 L 337.949219 146.25 C 337.699219 145.800781 337.449219 145.324219 337.199219 144.824219 C 336.898438 144.324219 336.726562 144 336.675781 143.851562 L 336.675781 151.726562 L 335.398438 151.726562 L 335.398438 142.199219 L 336.898438 142.199219 "/>
<path style=" stroke:none;fill-rule:nonzero;fill:rgb(0%,0%,100%);fill-opacity:1;" d="M 344.398438 142.199219 L 345.75 142.199219 L 345.75 146.25 L 350.625 146.25 L 350.625 142.199219 L 351.898438 142.199219 L 351.898438 151.726562 L 350.625 151.726562 L 350.625 147.300781 L 345.75 147.300781 L 345.75 151.726562 L 344.398438 151.726562 L 344.398438 142.199219 "/>
<path style=" stroke:none;fill-rule:nonzero;fill:rgb(0%,0%,100%);fill-opacity:1;" d="M 353.773438 151.425781 C 353.925781 151.023438 354.175781 150.699219 354.523438 150.449219 C 354.875 150.25 355.300781 150.148438 355.800781 150.148438 C 356.449219 150.148438 356.949219 150.324219 357.300781 150.675781 C 357.648438 151.023438 357.824219 151.5 357.824219 152.101562 C 357.824219 152.699219 357.601562 153.300781 357.148438 153.898438 C 356.699219 154.449219 356 155.074219 355.050781 155.773438 L 357.976562 155.773438 L 357.976562 156.449219 L 353.699219 156.449219 L 353.699219 155.925781 C 354.5 155.324219 355.125 154.824219 355.574219 154.425781 C 356.023438 154.023438 356.375 153.625 356.625 153.226562 C 356.824219 152.875 356.925781 152.5 356.925781 152.101562 C 356.925781 151.699219 356.824219 151.398438 356.625 151.199219 C 356.425781 150.949219 356.148438 150.824219 355.800781 150.824219 C 355.5 150.824219 355.226562 150.898438 354.976562 151.050781 C 354.773438 151.199219 354.601562 151.425781 354.449219 151.726562 L 353.773438 151.425781 "/>
<path style=" stroke:none;fill-rule:nonzero;fill:rgb(0%,0%,100%);fill-opacity:1;" d="M 295.425781 185.398438 L 298.574219 190.425781 C 298.773438 190.773438 299.050781 191.25 299.398438 191.851562 C 299.699219 192.449219 299.875 192.75 299.925781 192.75 L 299.925781 185.398438 L 301.199219 185.398438 L 301.199219 194.925781 L 299.851562 194.925781 L 296.550781 189.375 C 296.25 188.976562 295.976562 188.523438 295.726562 188.023438 C 295.425781 187.523438 295.25 187.199219 295.199219 187.050781 L 295.199219 194.925781 L 293.925781 194.925781 L 293.925781 185.398438 L 295.425781 185.398438 "/>
<path style=" stroke:none;fill-rule:nonzero;fill:rgb(80%,80%,0%);fill-opacity:1;" d="M 123.824219 238.875 C 123.875 238.925781 124.050781 239 124.351562 239.101562 C 124.648438 239.25 124.976562 239.351562 125.324219 239.398438 C 125.625 239.5 125.949219 239.550781 126.300781 239.550781 C 126.898438 239.550781 127.375 239.398438 127.726562 239.101562 C 128.074219 238.800781 128.25 238.398438 128.25 237.898438 C 128.25 237.550781 128.148438 237.273438 127.949219 237.074219 C 127.800781 236.824219 127.574219 236.648438 127.273438 236.550781 C 127.023438 236.449219 126.675781 236.324219 126.226562 236.175781 C 125.675781 235.976562 125.226562 235.800781 124.875 235.648438 C 124.523438 235.5 124.226562 235.25 123.976562 234.898438 C 123.773438 234.550781 123.675781 234.101562 123.675781 233.550781 C 123.675781 232.75 123.925781 232.101562 124.425781 231.601562 C 124.976562 231.101562 125.800781 230.851562 126.898438 230.851562 C 127.648438 230.851562 128.425781 231.023438 129.226562 231.375 L 128.925781 232.425781 C 128.175781 232.125 127.5 231.976562 126.898438 231.976562 C 126.300781 231.976562 125.824219 232.101562 125.476562 232.351562 C 125.125 232.601562 124.976562 232.949219 125.023438 233.398438 C 125.023438 233.75 125.101562 234.023438 125.25 234.226562 C 125.449219 234.425781 125.675781 234.574219 125.925781 234.675781 C 126.175781 234.773438 126.5 234.898438 126.898438 235.050781 C 127.5 235.25 127.976562 235.425781 128.324219 235.574219 C 128.675781 235.773438 128.949219 236.050781 129.148438 236.398438 C 129.398438 236.75 129.523438 237.25 129.523438 237.898438 C 129.523438 238.75 129.25 239.425781 128.699219 239.925781 C 128.101562 240.375 127.300781 240.601562 126.300781 240.601562 C 125.75 240.601562 125.25 240.550781 124.800781 240.449219 C 124.398438 240.300781 123.949219 240.125 123.449219 239.925781 L 123.824219 238.875 "/>
<path style=" stroke:none;fill-rule:nonzero;fill:rgb(0%,0%,0%);fill-opacity:1;" d="M 161.773438 218.476562 L 163.050781 218.476562 L 163.050781 222.523438 L 167.925781 222.523438 L 167.925781 218.476562 L 169.199219 218.476562 L 169.199219 227.925781 L 167.925781 227.925781 L 167.925781 223.574219 L 163.050781 223.574219 L 163.050781 227.925781 L 161.773438 227.925781 L 161.773438 218.476562 "/>
</g>
</svg>
