<?xml version="1.0" encoding="UTF-8"?>
<svg xmlns="http://www.w3.org/2000/svg" xmlns:xlink="http://www.w3.org/1999/xlink" width="375pt" height="375pt" viewBox="0 0 375 375" version="1.1">
<g id="surface51">
<rect x="0" y="0" width="375" height="375" style="fill:rgb(100%,100%,100%);fill-opacity:1;stroke:none;"/>
<path style="fill:none;stroke-width:2;stroke-linecap:butt;stroke-linejoin:miter;stroke:rgb(0%,0%,0%);stroke-opacity:1;stroke-miterlimit:4;" d="M 111.802083 312.5 L 116.901042 270.598958 " transform="matrix(0.75,0,0,0.75,0,0)"/>
<path style="fill:none;stroke-width:2;stroke-linecap:butt;stroke-linejoin:miter;stroke:rgb(0%,0%,0%);stroke-opacity:1;stroke-miterlimit:4;" d="M 116.901042 270.598958 L 74.697917 269.901042 " transform="matrix(0.75,0,0,0.75,0,0)"/>
<path style="fill:none;stroke-width:2;stroke-linecap:butt;stroke-linejoin:miter;stroke:rgb(0%,0%,0%);stroke-opacity:1;stroke-miterlimit:4;" d="M 116.901042 270.598958 L 134.901042 274.697917 " transform="matrix(0.75,0,0,0.75,0,0)"/>
<path style="fill:none;stroke-width:2;stroke-linecap:butt;stroke-linejoin:miter;stroke:rgb(80%,80%,0%);stroke-opacity:1;stroke-miterlimit:4;" d="M 134.901042 274.697917 L 152.802083 278.802083 " transform="matrix(0.75,0,0,0.75,0,0)"/>
<path style="fill:none;stroke-width:2;stroke-linecap:butt;stroke-linejoin:miter;stroke:rgb(80%,80%,0%);stroke-opacity:1;stroke-miterlimit:4;" d="M 162.5 272.598958 L 171.098958 258.197917 " transform="matrix(0.75,0,0,0.75,0,0)"/>
<path style="fill:none;stroke-width:2;stroke-linecap:butt;stroke-linejoin:miter;stroke:rgb(0%,0%,0%);stroke-opacity:1;stroke-miterlimit:4;" d="M 171.098958 258.197917 L 179.697917 243.802083 " transform="matrix(0.75,0,0,0.75,0,0)"/>
<path style="fill:none;stroke-width:2;stroke-linecap:butt;stroke-linejoin:miter;stroke:rgb(0%,0%,0%);stroke-opacity:1;stroke-miterlimit:4;" d="M 179.697917 243.802083 L 211.5 216 " transform="matrix(0.75,0,0,0.75,0,0)"/>
<path style="fill-rule:evenodd;fill:rgb(0%,0%,0%);fill-opacity:1;stroke-width:0.5;stroke-linecap:butt;stroke-linejoin:miter;stroke:rgb(0%,0%,0%);stroke-opacity:1;stroke-miterlimit:4;" d="M 211.5 216 L 229 215.598958 L 228.802083 218.802083 Z M 211.5 216 " transform="matrix(0.75,0,0,0.75,0,0)"/>
<path style="fill-rule:evenodd;fill:rgb(0%,0%,100%);fill-opacity:1;stroke-width:0.5;stroke-linecap:butt;stroke-linejoin:miter;stroke:rgb(0%,0%,100%);stroke-opacity:1;stroke-miterlimit:4;" d="M 229 215.598958 L 246.098958 221.5 L 246.5 215.197917 Z M 229 215.598958 " transform="matrix(0.75,0,0,0.75,0,0)"/>
<path style="fill-rule:evenodd;fill:rgb(0%,0%,100%);fill-opacity:1;stroke-width:0.5;stroke-linecap:butt;stroke-linejoin:miter;stroke:rgb(0%,0%,100%);stroke-opacity:1;stroke-miterlimit:4;" d="M 229 215.598958 L 228.802083 218.802083 L 246.098958 221.5 Z M 229 215.598958 " transform="matrix(0.75,0,0,0.75,0,0)"/>
<path style="fill:none;stroke-width:2;stroke-linecap:butt;stroke-linejoin:miter;stroke:rgb(0%,0%,100%);stroke-opacity:1;stroke-miterlimit:4;" d="M 257.302083 226.197917 L 264.697917 241.5 " transform="matrix(0.75,0,0,0.75,0,0)"/>
<path style="fill:none;stroke-width:2;stroke-linecap:butt;stroke-linejoin:miter;stroke:rgb(0%,0%,0%);stroke-opacity:1;stroke-miterlimit:4;" d="M 264.697917 241.5 L 272.197917 256.802083 " transform="matrix(0.75,0,0,0.75,0,0)"/>
<path style="fill:none;stroke-width:2;stroke-linecap:butt;stroke-linejoin:miter;stroke:rgb(0%,0%,0%);stroke-opacity:1;stroke-miterlimit:4;" d="M 270.598958 253.5 L 260.802083 268 " transform="matrix(0.75,0,0,0.75,0,0)"/>
<path style="fill:none;stroke-width:2;stroke-linecap:butt;stroke-linejoin:miter;stroke:rgb(100%,0%,0%);stroke-opacity:1;stroke-miterlimit:4;" d="M 260.802083 268 L 251.098958 282.598958 " transform="matrix(0.75,0,0,0.75,0,0)"/>
<path style="fill:none;stroke-width:2;stroke-linecap:butt;stroke-linejoin:miter;stroke:rgb(0%,0%,0%);stroke-opacity:1;stroke-miterlimit:4;" d="M 275.901042 257 L 266.098958 271.598958 " transform="matrix(0.75,0,0,0.75,0,0)"/>
<path style="fill:none;stroke-width:2;stroke-linecap:butt;stroke-linejoin:miter;stroke:rgb(100%,0%,0%);stroke-opacity:1;stroke-miterlimit:4;" d="M 266.098958 271.598958 L 256.302083 286.098958 " transform="matrix(0.75,0,0,0.75,0,0)"/>
<path style="fill:none;stroke-width:2;stroke-linecap:butt;stroke-linejoin:miter;stroke:rgb(0%,0%,0%);stroke-opacity:1;stroke-miterlimit:4;" d="M 272.197917 256.802083 L 314.401042 259.598958 " transform="matrix(0.75,0,0,0.75,0,0)"/>
<path style="fill:none;stroke-width:1;stroke-linecap:butt;stroke-linejoin:miter;stroke:rgb(0%,0%,0%);stroke-opacity:1;stroke-miterlimit:4;" d="M 316.598958 256.901042 L 316 256.5 " transform="matrix(0.75,0,0,0.75,0,0)"/>
<path style="fill:none;stroke-width:1;stroke-linecap:butt;stroke-linejoin:miter;stroke:rgb(0%,0%,0%);stroke-opacity:1;stroke-miterlimit:4;" d="M 318.901042 254.197917 L 317.598958 253.302083 " transform="matrix(0.75,0,0,0.75,0,0)"/>
<path style="fill:none;stroke-width:1;stroke-linecap:butt;stroke-linejoin:miter;stroke:rgb(0%,0%,0%);stroke-opacity:1;stroke-miterlimit:4;" d="M 321.197917 251.5 L 319.197917 250.197917 " transform="matrix(0.75,0,0,0.75,0,0)"/>
<path style="fill:none;stroke-width:1;stroke-linecap:butt;stroke-linejoin:miter;stroke:rgb(0%,0%,0%);stroke-opacity:1;stroke-miterlimit:4;" d="M 323.5 248.802083 L 320.901042 247.098958 " transform="matrix(0.75,0,0,0.75,0,0)"/>
<path style="fill:none;stroke-width:1;stroke-linecap:butt;stroke-linejoin:miter;stroke:rgb(0%,0%,100%);stroke-opacity:1;stroke-miterlimit:4;" d="M 325.802083 246.098958 L 322.5 243.901042 " transform="matrix(0.75,0,0,0.75,0,0)"/>
<path style="fill:none;stroke-width:1;stroke-linecap:butt;stroke-linejoin:miter;stroke:rgb(0%,0%,100%);stroke-opacity:1;stroke-miterlimit:4;" d="M 328.098958 243.401042 L 324.098958 240.802083 " transform="matrix(0.75,0,0,0.75,0,0)"/>
<path style="fill:none;stroke-width:1;stroke-linecap:butt;stroke-linejoin:miter;stroke:rgb(0%,0%,100%);stroke-opacity:1;stroke-miterlimit:4;" d="M 330.401042 240.697917 L 325.802083 237.697917 " transform="matrix(0.75,0,0,0.75,0,0)"/>
<path style="fill:none;stroke-width:1;stroke-linecap:butt;stroke-linejoin:miter;stroke:rgb(0%,0%,100%);stroke-opacity:1;stroke-miterlimit:4;" d="M 332.598958 238 L 327.401042 234.5 " transform="matrix(0.75,0,0,0.75,0,0)"/>
<path style="fill:none;stroke-width:2;stroke-linecap:butt;stroke-linejoin:miter;stroke:rgb(0%,0%,100%);stroke-opacity:1;stroke-miterlimit:4;" d="M 343.802083 225 L 361.901042 226.197917 " transform="matrix(0.75,0,0,0.75,0,0)"/>
<path style="fill:none;stroke-width:2;stroke-linecap:butt;stroke-linejoin:miter;stroke:rgb(0%,0%,0%);stroke-opacity:1;stroke-miterlimit:4;" d="M 361.901042 226.197917 L 380 227.401042 " transform="matrix(0.75,0,0,0.75,0,0)"/>
<path style="fill:none;stroke-width:2;stroke-linecap:butt;stroke-linejoin:miter;stroke:rgb(0%,0%,0%);stroke-opacity:1;stroke-miterlimit:4;" d="M 376.401042 227.197917 L 384.197917 243.197917 " transform="matrix(0.75,0,0,0.75,0,0)"/>
<path style="fill:none;stroke-width:2;stroke-linecap:butt;stroke-linejoin:miter;stroke:rgb(100%,0%,0%);stroke-opacity:1;stroke-miterlimit:4;" d="M 384.197917 243.197917 L 392.098958 259.302083 " transform="matrix(0.75,0,0,0.75,0,0)"/>
<path style="fill:none;stroke-width:2;stroke-linecap:butt;stroke-linejoin:miter;stroke:rgb(0%,0%,0%);stroke-opacity:1;stroke-miterlimit:4;" d="M 382 224.401042 L 389.901042 240.401042 " transform="matrix(0.75,0,0,0.75,0,0)"/>
<path style="fill:none;stroke-width:2;stroke-linecap:butt;stroke-linejoin:miter;stroke:rgb(100%,0%,0%);stroke-opacity:1;stroke-miterlimit:4;" d="M 389.901042 240.401042 L 397.802083 256.5 " transform="matrix(0.75,0,0,0.75,0,0)"/>
<path style="fill:none;stroke-width:2;stroke-linecap:butt;stroke-linejoin:miter;stroke:rgb(0%,0%,0%);stroke-opacity:1;stroke-miterlimit:4;" d="M 380 227.401042 L 389.302083 213.598958 " transform="matrix(0.75,0,0,0.75,0,0)"/>
<path style="fill:none;stroke-width:2;stroke-linecap:butt;stroke-linejoin:miter;stroke:rgb(0%,0%,100%);stroke-opacity:1;stroke-miterlimit:4;" d="M 389.302083 213.598958 L 398.598958 199.697917 " transform="matrix(0.75,0,0,0.75,0,0)"/>
<path style="fill:none;stroke-width:2;stroke-linecap:butt;stroke-linejoin:miter;stroke:rgb(0%,0%,100%);stroke-opacity:1;stroke-miterlimit:4;" d="M 400.802083 185 L 394.901042 168.901042 " transform="matrix(0.75,0,0,0.75,0,0)"/>
<path style="fill:none;stroke-width:2;stroke-linecap:butt;stroke-linejoin:miter;stroke:rgb(0%,0%,0%);stroke-opacity:1;stroke-miterlimit:4;" d="M 394.901042 168.901042 L 389 152.697917 " transform="matrix(0.75,0,0,0.75,0,0)"/>
<path style="fill:none;stroke-width:2;stroke-linecap:butt;stroke-linejoin:miter;stroke:rgb(0%,0%,0%);stroke-opacity:1;stroke-miterlimit:4;" d="M 389 152.697917 L 422.197917 126.697917 " transform="matrix(0.75,0,0,0.75,0,0)"/>
<path style="fill:none;stroke-width:2;stroke-linecap:butt;stroke-linejoin:miter;stroke:rgb(0%,0%,0%);stroke-opacity:1;stroke-miterlimit:4;" d="M 422.197917 126.697917 L 436.802083 136.401042 " transform="matrix(0.75,0,0,0.75,0,0)"/>
<path style="fill:none;stroke-width:2;stroke-linecap:butt;stroke-linejoin:miter;stroke:rgb(0%,0%,100%);stroke-opacity:1;stroke-miterlimit:4;" d="M 436.802083 136.401042 L 451.302083 146.197917 " transform="matrix(0.75,0,0,0.75,0,0)"/>
<path style="fill:none;stroke-width:2;stroke-linecap:butt;stroke-linejoin:miter;stroke:rgb(0%,0%,100%);stroke-opacity:1;stroke-miterlimit:4;" d="M 455.197917 157.598958 L 450.5 174.197917 " transform="matrix(0.75,0,0,0.75,0,0)"/>
<path style="fill:none;stroke-width:2;stroke-linecap:butt;stroke-linejoin:miter;stroke:rgb(0%,0%,0%);stroke-opacity:1;stroke-miterlimit:4;" d="M 450.5 174.197917 L 445.697917 190.802083 " transform="matrix(0.75,0,0,0.75,0,0)"/>
<path style="fill:none;stroke-width:2;stroke-linecap:butt;stroke-linejoin:miter;stroke:rgb(0%,0%,0%);stroke-opacity:1;stroke-miterlimit:4;" d="M 441.802083 191 L 452.598958 204.697917 " transform="matrix(0.75,0,0,0.75,0,0)"/>
<path style="fill:none;stroke-width:2;stroke-linecap:butt;stroke-linejoin:miter;stroke:rgb(100%,0%,0%);stroke-opacity:1;stroke-miterlimit:4;" d="M 452.598958 204.697917 L 463.5 218.5 " transform="matrix(0.75,0,0,0.75,0,0)"/>
<path style="fill:none;stroke-width:2;stroke-linecap:butt;stroke-linejoin:miter;stroke:rgb(0%,0%,0%);stroke-opacity:1;stroke-miterlimit:4;" d="M 446.802083 187 L 457.598958 200.802083 " transform="matrix(0.75,0,0,0.75,0,0)"/>
<path style="fill:none;stroke-width:2;stroke-linecap:butt;stroke-linejoin:miter;stroke:rgb(100%,0%,0%);stroke-opacity:1;stroke-miterlimit:4;" d="M 457.598958 200.802083 L 468.401042 214.598958 " transform="matrix(0.75,0,0,0.75,0,0)"/>
<path style="fill:none;stroke-width:2;stroke-linecap:butt;stroke-linejoin:miter;stroke:rgb(0%,0%,0%);stroke-opacity:1;stroke-miterlimit:4;" d="M 314.401042 259.598958 L 332.901042 297.5 " transform="matrix(0.75,0,0,0.75,0,0)"/>
<path style="fill:none;stroke-width:2;stroke-linecap:butt;stroke-linejoin:miter;stroke:rgb(0%,0%,0%);stroke-opacity:1;stroke-miterlimit:4;" d="M 332.901042 297.5 L 309.401042 332.598958 " transform="matrix(0.75,0,0,0.75,0,0)"/>
<path style="fill:none;stroke-width:2;stroke-linecap:butt;stroke-linejoin:miter;stroke:rgb(0%,0%,0%);stroke-opacity:1;stroke-miterlimit:4;" d="M 336.197917 304.098958 L 316.697917 333.098958 " transform="matrix(0.75,0,0,0.75,0,0)"/>
<path style="fill:none;stroke-width:2;stroke-linecap:butt;stroke-linejoin:miter;stroke:rgb(0%,0%,0%);stroke-opacity:1;stroke-miterlimit:4;" d="M 309.401042 332.598958 L 328 370.5 " transform="matrix(0.75,0,0,0.75,0,0)"/>
<path style="fill:none;stroke-width:2;stroke-linecap:butt;stroke-linejoin:miter;stroke:rgb(0%,0%,0%);stroke-opacity:1;stroke-miterlimit:4;" d="M 328 370.5 L 370.098958 373.302083 " transform="matrix(0.75,0,0,0.75,0,0)"/>
<path style="fill:none;stroke-width:2;stroke-linecap:butt;stroke-linejoin:miter;stroke:rgb(0%,0%,0%);stroke-opacity:1;stroke-miterlimit:4;" d="M 332.098958 364.401042 L 366.901042 366.802083 " transform="matrix(0.75,0,0,0.75,0,0)"/>
<path style="fill:none;stroke-width:2;stroke-linecap:butt;stroke-linejoin:miter;stroke:rgb(0%,0%,0%);stroke-opacity:1;stroke-miterlimit:4;" d="M 370.098958 373.302083 L 393.598958 338.302083 " transform="matrix(0.75,0,0,0.75,0,0)"/>
<path style="fill:none;stroke-width:2;stroke-linecap:butt;stroke-linejoin:miter;stroke:rgb(0%,0%,0%);stroke-opacity:1;stroke-miterlimit:4;" d="M 393.598958 338.302083 L 375.098958 300.401042 " transform="matrix(0.75,0,0,0.75,0,0)"/>
<path style="fill:none;stroke-width:2;stroke-linecap:butt;stroke-linejoin:miter;stroke:rgb(0%,0%,0%);stroke-opacity:1;stroke-miterlimit:4;" d="M 386.302083 337.802083 L 371 306.401042 " transform="matrix(0.75,0,0,0.75,0,0)"/>
<path style="fill:none;stroke-width:2;stroke-linecap:butt;stroke-linejoin:miter;stroke:rgb(0%,0%,0%);stroke-opacity:1;stroke-miterlimit:4;" d="M 211.5 216 L 183.802083 184.197917 " transform="matrix(0.75,0,0,0.75,0,0)"/>
<path style="fill:none;stroke-width:2;stroke-linecap:butt;stroke-linejoin:miter;stroke:rgb(0%,0%,0%);stroke-opacity:1;stroke-miterlimit:4;" d="M 186.697917 187.598958 L 188 168.697917 " transform="matrix(0.75,0,0,0.75,0,0)"/>
<path style="fill:none;stroke-width:2;stroke-linecap:butt;stroke-linejoin:miter;stroke:rgb(100%,0%,0%);stroke-opacity:1;stroke-miterlimit:4;" d="M 188 168.697917 L 189.302083 149.901042 " transform="matrix(0.75,0,0,0.75,0,0)"/>
<path style="fill:none;stroke-width:2;stroke-linecap:butt;stroke-linejoin:miter;stroke:rgb(0%,0%,0%);stroke-opacity:1;stroke-miterlimit:4;" d="M 180.401042 187.098958 L 181.697917 168.302083 " transform="matrix(0.75,0,0,0.75,0,0)"/>
<path style="fill:none;stroke-width:2;stroke-linecap:butt;stroke-linejoin:miter;stroke:rgb(100%,0%,0%);stroke-opacity:1;stroke-miterlimit:4;" d="M 181.697917 168.302083 L 182.901042 149.5 " transform="matrix(0.75,0,0,0.75,0,0)"/>
<path style="fill:none;stroke-width:2;stroke-linecap:butt;stroke-linejoin:miter;stroke:rgb(0%,0%,0%);stroke-opacity:1;stroke-miterlimit:4;" d="M 183.802083 184.197917 L 170.802083 195.5 " transform="matrix(0.75,0,0,0.75,0,0)"/>
<path style="fill:none;stroke-width:2;stroke-linecap:butt;stroke-linejoin:miter;stroke:rgb(0%,0%,100%);stroke-opacity:1;stroke-miterlimit:4;" d="M 170.802083 195.5 L 157.901042 206.802083 " transform="matrix(0.75,0,0,0.75,0,0)"/>
<path style="fill:none;stroke-width:2;stroke-linecap:butt;stroke-linejoin:miter;stroke:rgb(0%,0%,100%);stroke-opacity:1;stroke-miterlimit:4;" d="M 146 214.5 L 129.598958 221.5 " transform="matrix(0.75,0,0,0.75,0,0)"/>
<path style="fill:none;stroke-width:2;stroke-linecap:butt;stroke-linejoin:miter;stroke:rgb(0%,0%,0%);stroke-opacity:1;stroke-miterlimit:4;" d="M 129.598958 221.5 L 113.098958 228.5 " transform="matrix(0.75,0,0,0.75,0,0)"/>
<path style="fill:none;stroke-width:1;stroke-linecap:butt;stroke-linejoin:miter;stroke:rgb(0%,0%,0%);stroke-opacity:1;stroke-miterlimit:4;" d="M 110.302083 226.5 L 110 227 " transform="matrix(0.75,0,0,0.75,0,0)"/>
<path style="fill:none;stroke-width:1;stroke-linecap:butt;stroke-linejoin:miter;stroke:rgb(0%,0%,0%);stroke-opacity:1;stroke-miterlimit:4;" d="M 107.401042 224.401042 L 106.802083 225.401042 " transform="matrix(0.75,0,0,0.75,0,0)"/>
<path style="fill:none;stroke-width:1;stroke-linecap:butt;stroke-linejoin:miter;stroke:rgb(0%,0%,0%);stroke-opacity:1;stroke-miterlimit:4;" d="M 104.5 222.401042 L 103.598958 223.901042 " transform="matrix(0.75,0,0,0.75,0,0)"/>
<path style="fill:none;stroke-width:1;stroke-linecap:butt;stroke-linejoin:miter;stroke:rgb(0%,0%,0%);stroke-opacity:1;stroke-miterlimit:4;" d="M 101.697917 220.302083 L 100.5 222.302083 " transform="matrix(0.75,0,0,0.75,0,0)"/>
<path style="fill:none;stroke-width:1;stroke-linecap:butt;stroke-linejoin:miter;stroke:rgb(0%,0%,0%);stroke-opacity:1;stroke-miterlimit:4;" d="M 98.802083 218.302083 L 97.302083 220.697917 " transform="matrix(0.75,0,0,0.75,0,0)"/>
<path style="fill:none;stroke-width:1;stroke-linecap:butt;stroke-linejoin:miter;stroke:rgb(0%,0%,0%);stroke-opacity:1;stroke-miterlimit:4;" d="M 95.901042 216.197917 L 94.098958 219.197917 " transform="matrix(0.75,0,0,0.75,0,0)"/>
<path style="fill:none;stroke-width:1;stroke-linecap:butt;stroke-linejoin:miter;stroke:rgb(0%,0%,0%);stroke-opacity:1;stroke-miterlimit:4;" d="M 93 214.197917 L 91 217.598958 " transform="matrix(0.75,0,0,0.75,0,0)"/>
<path style="fill:none;stroke-width:1;stroke-linecap:butt;stroke-linejoin:miter;stroke:rgb(0%,0%,0%);stroke-opacity:1;stroke-miterlimit:4;" d="M 90.197917 212.098958 L 87.802083 216.098958 " transform="matrix(0.75,0,0,0.75,0,0)"/>
<path style="fill:none;stroke-width:1;stroke-linecap:butt;stroke-linejoin:miter;stroke:rgb(0%,0%,0%);stroke-opacity:1;stroke-miterlimit:4;" d="M 87.302083 210.098958 L 84.598958 214.5 " transform="matrix(0.75,0,0,0.75,0,0)"/>
<path style="fill:none;stroke-width:1;stroke-linecap:butt;stroke-linejoin:miter;stroke:rgb(0%,0%,0%);stroke-opacity:1;stroke-miterlimit:4;" d="M 84.401042 208 L 81.5 213 " transform="matrix(0.75,0,0,0.75,0,0)"/>
<path style="fill:none;stroke-width:1;stroke-linecap:butt;stroke-linejoin:miter;stroke:rgb(0%,0%,0%);stroke-opacity:1;stroke-miterlimit:4;" d="M 81.598958 206 L 78.302083 211.401042 " transform="matrix(0.75,0,0,0.75,0,0)"/>
<path style="fill:none;stroke-width:2;stroke-linecap:butt;stroke-linejoin:miter;stroke:rgb(0%,0%,0%);stroke-opacity:1;stroke-miterlimit:4;" d="M 80 208.697917 L 80.302083 190.5 " transform="matrix(0.75,0,0,0.75,0,0)"/>
<path style="fill:none;stroke-width:2;stroke-linecap:butt;stroke-linejoin:miter;stroke:rgb(100%,0%,0%);stroke-opacity:1;stroke-miterlimit:4;" d="M 80.302083 190.5 L 80.598958 172.302083 " transform="matrix(0.75,0,0,0.75,0,0)"/>
<path style="fill:none;stroke-width:2;stroke-linecap:butt;stroke-linejoin:miter;stroke:rgb(0%,0%,0%);stroke-opacity:1;stroke-miterlimit:4;" d="M 73.697917 208.598958 L 74 190.401042 " transform="matrix(0.75,0,0,0.75,0,0)"/>
<path style="fill:none;stroke-width:2;stroke-linecap:butt;stroke-linejoin:miter;stroke:rgb(100%,0%,0%);stroke-opacity:1;stroke-miterlimit:4;" d="M 74 190.401042 L 74.302083 172.197917 " transform="matrix(0.75,0,0,0.75,0,0)"/>
<path style="fill:none;stroke-width:2;stroke-linecap:butt;stroke-linejoin:miter;stroke:rgb(0%,0%,0%);stroke-opacity:1;stroke-miterlimit:4;" d="M 76.901042 206.901042 L 61.901042 215.197917 " transform="matrix(0.75,0,0,0.75,0,0)"/>
<path style="fill:none;stroke-width:2;stroke-linecap:butt;stroke-linejoin:miter;stroke:rgb(100%,0%,0%);stroke-opacity:1;stroke-miterlimit:4;" d="M 61.901042 215.197917 L 46.901042 223.598958 " transform="matrix(0.75,0,0,0.75,0,0)"/>
<path style="fill:none;stroke-width:2;stroke-linecap:butt;stroke-linejoin:miter;stroke:rgb(0%,0%,0%);stroke-opacity:1;stroke-miterlimit:4;" d="M 113.098958 228.5 L 116.901042 270.598958 " transform="matrix(0.75,0,0,0.75,0,0)"/>
<path style="fill:none;stroke-width:2;stroke-linecap:butt;stroke-linejoin:miter;stroke:rgb(0%,0%,100%);stroke-opacity:1;stroke-miterlimit:4;" d="M 157.901042 218.697917 L 168.802083 231.302083 " transform="matrix(0.75,0,0,0.75,0,0)"/>
<path style="fill:none;stroke-width:2;stroke-linecap:butt;stroke-linejoin:miter;stroke:rgb(0%,0%,0%);stroke-opacity:1;stroke-miterlimit:4;" d="M 168.802083 231.302083 L 179.697917 243.802083 " transform="matrix(0.75,0,0,0.75,0,0)"/>
<path style="fill:none;stroke-width:2;stroke-linecap:butt;stroke-linejoin:miter;stroke:rgb(0%,0%,0%);stroke-opacity:1;stroke-miterlimit:4;" d="M 445.697917 190.802083 L 427.598958 191.5 " transform="matrix(0.75,0,0,0.75,0,0)"/>
<path style="fill:none;stroke-width:2;stroke-linecap:butt;stroke-linejoin:miter;stroke:rgb(0%,0%,100%);stroke-opacity:1;stroke-miterlimit:4;" d="M 427.598958 191.5 L 409.5 192.197917 " transform="matrix(0.75,0,0,0.75,0,0)"/>
<path style="fill:none;stroke-width:2;stroke-linecap:butt;stroke-linejoin:miter;stroke:rgb(0%,0%,0%);stroke-opacity:1;stroke-miterlimit:4;" d="M 375.098958 300.401042 L 332.901042 297.5 " transform="matrix(0.75,0,0,0.75,0,0)"/>
<path style="fill:none;stroke-width:1;stroke-linecap:butt;stroke-linejoin:miter;stroke:rgb(0%,0%,0%);stroke-opacity:1;stroke-miterlimit:4;" d="M 182.697917 245.802083 L 182.302083 246.302083 " transform="matrix(0.75,0,0,0.75,0,0)"/>
<path style="fill:none;stroke-width:1;stroke-linecap:butt;stroke-linejoin:miter;stroke:rgb(0%,0%,0%);stroke-opacity:1;stroke-miterlimit:4;" d="M 185.697917 247.901042 L 184.802083 248.901042 " transform="matrix(0.75,0,0,0.75,0,0)"/>
<path style="fill:none;stroke-width:1;stroke-linecap:butt;stroke-linejoin:miter;stroke:rgb(0%,0%,0%);stroke-opacity:1;stroke-miterlimit:4;" d="M 188.697917 249.901042 L 187.401042 251.5 " transform="matrix(0.75,0,0,0.75,0,0)"/>
<path style="fill:none;stroke-width:1;stroke-linecap:butt;stroke-linejoin:miter;stroke:rgb(0%,0%,0%);stroke-opacity:1;stroke-miterlimit:4;" d="M 191.697917 251.901042 L 189.901042 254.098958 " transform="matrix(0.75,0,0,0.75,0,0)"/>
<path style="fill:none;stroke-width:1;stroke-linecap:butt;stroke-linejoin:miter;stroke:rgb(0%,0%,0%);stroke-opacity:1;stroke-miterlimit:4;" d="M 194.697917 254 L 192.401042 256.697917 " transform="matrix(0.75,0,0,0.75,0,0)"/>
<path style="fill:none;stroke-width:1;stroke-linecap:butt;stroke-linejoin:miter;stroke:rgb(0%,0%,0%);stroke-opacity:1;stroke-miterlimit:4;" d="M 197.697917 256 L 195 259.302083 " transform="matrix(0.75,0,0,0.75,0,0)"/>
<path style="fill:none;stroke-width:1;stroke-linecap:butt;stroke-linejoin:miter;stroke:rgb(0%,0%,0%);stroke-opacity:1;stroke-miterlimit:4;" d="M 200.697917 258.098958 L 197.5 261.901042 " transform="matrix(0.75,0,0,0.75,0,0)"/>
<path style="fill:none;stroke-width:1;stroke-linecap:butt;stroke-linejoin:miter;stroke:rgb(0%,0%,0%);stroke-opacity:1;stroke-miterlimit:4;" d="M 203.697917 260.098958 L 200.098958 264.401042 " transform="matrix(0.75,0,0,0.75,0,0)"/>
<path style="fill:none;stroke-width:1;stroke-linecap:butt;stroke-linejoin:miter;stroke:rgb(0%,0%,0%);stroke-opacity:1;stroke-miterlimit:4;" d="M 206.697917 262.197917 L 202.598958 267 " transform="matrix(0.75,0,0,0.75,0,0)"/>
<path style="fill:none;stroke-width:2;stroke-linecap:butt;stroke-linejoin:miter;stroke:rgb(0%,0%,0%);stroke-opacity:1;stroke-miterlimit:4;" d="M 209.901042 217.401042 L 211.5 216 L 210.098958 214.401042 " transform="matrix(0.75,0,0,0.75,0,0)"/>
<path style="fill:none;stroke-width:2;stroke-linecap:butt;stroke-linejoin:miter;stroke:rgb(0%,0%,0%);stroke-opacity:1;stroke-miterlimit:4;" d="M 271.901042 256 L 272.197917 256.802083 L 274.302083 256.901042 " transform="matrix(0.75,0,0,0.75,0,0)"/>
<path style="fill:none;stroke-width:2;stroke-linecap:butt;stroke-linejoin:miter;stroke:rgb(0%,0%,0%);stroke-opacity:1;stroke-miterlimit:4;" d="M 312.197917 259.5 L 314.401042 259.598958 L 315.302083 261.5 " transform="matrix(0.75,0,0,0.75,0,0)"/>
<path style="fill:none;stroke-width:2;stroke-linecap:butt;stroke-linejoin:miter;stroke:rgb(0%,0%,0%);stroke-opacity:1;stroke-miterlimit:4;" d="M 379.098958 227.401042 L 380 227.401042 L 380.5 226.697917 " transform="matrix(0.75,0,0,0.75,0,0)"/>
<path style="fill:none;stroke-width:2;stroke-linecap:butt;stroke-linejoin:miter;stroke:rgb(0%,0%,0%);stroke-opacity:1;stroke-miterlimit:4;" d="M 389.302083 153.5 L 389 152.697917 L 390.697917 151.401042 " transform="matrix(0.75,0,0,0.75,0,0)"/>
<path style="fill:none;stroke-width:2;stroke-linecap:butt;stroke-linejoin:miter;stroke:rgb(0%,0%,0%);stroke-opacity:1;stroke-miterlimit:4;" d="M 420.598958 128 L 422.197917 126.697917 L 423 127.197917 " transform="matrix(0.75,0,0,0.75,0,0)"/>
<path style="fill:none;stroke-width:2;stroke-linecap:butt;stroke-linejoin:miter;stroke:rgb(0%,0%,0%);stroke-opacity:1;stroke-miterlimit:4;" d="M 446 190 L 445.697917 190.802083 L 444.802083 190.802083 " transform="matrix(0.75,0,0,0.75,0,0)"/>
<path style="fill:none;stroke-width:2;stroke-linecap:butt;stroke-linejoin:miter;stroke:rgb(0%,0%,0%);stroke-opacity:1;stroke-miterlimit:4;" d="M 310.598958 330.802083 L 309.401042 332.598958 L 310.302083 334.5 " transform="matrix(0.75,0,0,0.75,0,0)"/>
<path style="fill:none;stroke-width:2;stroke-linecap:butt;stroke-linejoin:miter;stroke:rgb(0%,0%,0%);stroke-opacity:1;stroke-miterlimit:4;" d="M 327.098958 368.598958 L 328 370.5 L 330.098958 370.598958 " transform="matrix(0.75,0,0,0.75,0,0)"/>
<path style="fill:none;stroke-width:2;stroke-linecap:butt;stroke-linejoin:miter;stroke:rgb(0%,0%,0%);stroke-opacity:1;stroke-miterlimit:4;" d="M 368 373.197917 L 370.098958 373.302083 L 371.302083 371.598958 " transform="matrix(0.75,0,0,0.75,0,0)"/>
<path style="fill:none;stroke-width:2;stroke-linecap:butt;stroke-linejoin:miter;stroke:rgb(0%,0%,0%);stroke-opacity:1;stroke-miterlimit:4;" d="M 392.5 340 L 393.598958 338.302083 L 392.697917 336.401042 " transform="matrix(0.75,0,0,0.75,0,0)"/>
<path style="fill:none;stroke-width:2;stroke-linecap:butt;stroke-linejoin:miter;stroke:rgb(0%,0%,0%);stroke-opacity:1;stroke-miterlimit:4;" d="M 376 302.302083 L 375.098958 300.401042 L 373 300.197917 " transform="matrix(0.75,0,0,0.75,0,0)"/>
<path style="fill:none;stroke-width:2;stroke-linecap:butt;stroke-linejoin:miter;stroke:rgb(0%,0%,0%);stroke-opacity:1;stroke-miterlimit:4;" d="M 185.197917 185.802083 L 183.802083 184.197917 L 183.098958 184.802083 " transform="matrix(0.75,0,0,0.75,0,0)"/>
<path style="fill:none;stroke-width:2;stroke-linecap:butt;stroke-linejoin:miter;stroke:rgb(0%,0%,0%);stroke-opacity:1;stroke-miterlimit:4;" d="M 114 228.197917 L 113.098958 228.5 L 113.302083 230.598958 " transform="matrix(0.75,0,0,0.75,0,0)"/>
<path style=" stroke:none;fill-rule:nonzero;fill:rgb(80%,80%,0%);fill-opacity:1;" d="M 116.023438 213.074219 C 116.074219 213.074219 116.25 213.148438 116.550781 213.300781 C 116.800781 213.398438 117.074219 213.5 117.375 213.601562 C 117.726562 213.648438 118.050781 213.675781 118.351562 213.675781 C 118.898438 213.675781 119.351562 213.550781 119.699219 213.300781 C 120 213 120.148438 212.601562 120.148438 212.101562 C 120.148438 211.800781 120.074219 211.550781 119.925781 211.351562 C 119.773438 211.148438 119.574219 211 119.324219 210.898438 C 119.023438 210.75 118.675781 210.625 118.273438 210.523438 C 117.726562 210.375 117.300781 210.226562 117 210.074219 C 116.699219 209.925781 116.425781 209.675781 116.175781 209.324219 C 115.976562 209.023438 115.875 208.601562 115.875 208.050781 C 115.875 207.300781 116.125 206.699219 116.625 206.25 C 117.125 205.75 117.875 205.5 118.875 205.5 C 119.574219 205.5 120.324219 205.675781 121.125 206.023438 L 120.824219 207 C 120.125 206.699219 119.5 206.550781 118.949219 206.550781 C 118.351562 206.550781 117.898438 206.675781 117.601562 206.925781 C 117.25 207.175781 117.101562 207.5 117.148438 207.898438 C 117.148438 208.199219 117.226562 208.449219 117.375 208.648438 C 117.523438 208.851562 117.726562 209 117.976562 209.101562 C 118.226562 209.199219 118.550781 209.324219 118.949219 209.476562 C 119.5 209.625 119.925781 209.800781 120.226562 210 C 120.574219 210.148438 120.851562 210.398438 121.050781 210.75 C 121.300781 211.101562 121.425781 211.550781 121.425781 212.101562 C 121.425781 212.949219 121.148438 213.601562 120.601562 214.050781 C 120.050781 214.5 119.300781 214.726562 118.351562 214.726562 C 117.851562 214.726562 117.398438 214.648438 117 214.5 C 116.601562 214.398438 116.148438 214.25 115.648438 214.050781 L 116.023438 213.074219 "/>
<path style=" stroke:none;fill-rule:nonzero;fill:rgb(0%,0%,100%);fill-opacity:1;" d="M 188.25 159.675781 L 191.175781 164.398438 C 191.375 164.699219 191.625 165.148438 191.925781 165.75 C 192.273438 166.300781 192.449219 166.601562 192.449219 166.648438 L 192.449219 159.675781 L 193.648438 159.675781 L 193.648438 168.601562 L 192.375 168.601562 L 189.226562 163.425781 C 188.976562 163.023438 188.726562 162.601562 188.476562 162.148438 C 188.226562 161.648438 188.074219 161.351562 188.023438 161.25 L 188.023438 168.601562 L 186.824219 168.601562 L 186.824219 159.675781 L 188.25 159.675781 "/>
<path style=" stroke:none;fill-rule:nonzero;fill:rgb(0%,0%,100%);fill-opacity:1;" d="M 195.375 159.675781 L 196.574219 159.675781 L 196.574219 163.5 L 201.148438 163.5 L 201.148438 159.675781 L 202.425781 159.675781 L 202.425781 168.601562 L 201.148438 168.601562 L 201.148438 164.476562 L 196.574219 164.476562 L 196.574219 168.601562 L 195.375 168.601562 L 195.375 159.675781 "/>
<path style=" stroke:none;fill-rule:nonzero;fill:rgb(100%,0%,0%);fill-opacity:1;" d="M 182.398438 218.851562 C 182.398438 217.449219 182.75 216.351562 183.449219 215.550781 C 184.148438 214.75 185.175781 214.351562 186.523438 214.351562 C 187.824219 214.351562 188.851562 214.75 189.601562 215.550781 C 190.300781 216.351562 190.648438 217.449219 190.648438 218.851562 C 190.648438 220.300781 190.300781 221.449219 189.601562 222.300781 C 188.851562 223.101562 187.824219 223.5 186.523438 223.5 C 185.226562 223.5 184.199219 223.101562 183.449219 222.300781 C 182.75 221.5 182.398438 220.351562 182.398438 218.851562 M 186.523438 222.523438 C 187.425781 222.523438 188.125 222.226562 188.625 221.625 C 189.125 220.976562 189.375 220.050781 189.375 218.851562 C 189.375 217.699219 189.125 216.824219 188.625 216.226562 C 188.125 215.625 187.425781 215.324219 186.523438 215.324219 C 185.625 215.324219 184.925781 215.625 184.425781 216.226562 C 183.925781 216.824219 183.675781 217.699219 183.675781 218.851562 C 183.675781 220.101562 183.925781 221.023438 184.425781 221.625 C 184.925781 222.226562 185.625 222.523438 186.523438 222.523438 "/>
<path style=" stroke:none;fill-rule:nonzero;fill:rgb(0%,0%,100%);fill-opacity:1;" d="M 241.199219 163.949219 L 242.476562 163.949219 L 242.476562 167.773438 L 247.050781 167.773438 L 247.050781 163.949219 L 248.25 163.949219 L 248.25 172.875 L 247.050781 172.875 L 247.050781 168.75 L 242.476562 168.75 L 242.476562 172.875 L 241.199219 172.875 L 241.199219 163.949219 "/>
<path style=" stroke:none;fill-rule:nonzero;fill:rgb(0%,0%,100%);fill-opacity:1;" d="M 251.398438 163.949219 L 254.398438 168.675781 C 254.550781 168.976562 254.800781 169.425781 255.148438 170.023438 C 255.449219 170.574219 255.601562 170.875 255.601562 170.925781 L 255.601562 163.949219 L 256.800781 163.949219 L 256.800781 172.875 L 255.601562 172.875 L 252.449219 167.699219 C 252.199219 167.300781 251.949219 166.875 251.699219 166.425781 C 251.449219 165.976562 251.273438 165.675781 251.175781 165.523438 L 251.175781 172.875 L 249.976562 172.875 L 249.976562 163.949219 L 251.398438 163.949219 "/>
<path style=" stroke:none;fill-rule:nonzero;fill:rgb(100%,0%,0%);fill-opacity:1;" d="M 294.824219 199.050781 C 294.824219 197.601562 295.175781 196.476562 295.875 195.675781 C 296.574219 194.875 297.601562 194.476562 298.949219 194.476562 C 300.25 194.476562 301.273438 194.875 302.023438 195.675781 C 302.726562 196.476562 303.074219 197.601562 303.074219 199.050781 C 303.074219 200.5 302.699219 201.625 301.949219 202.425781 C 301.25 203.273438 300.25 203.699219 298.949219 203.699219 C 297.648438 203.699219 296.625 203.273438 295.875 202.425781 C 295.175781 201.625 294.824219 200.5 294.824219 199.050781 M 298.949219 202.648438 C 299.851562 202.648438 300.550781 202.351562 301.050781 201.75 C 301.550781 201.148438 301.800781 200.25 301.800781 199.050781 C 301.800781 197.851562 301.550781 196.949219 301.050781 196.351562 C 300.550781 195.75 299.851562 195.449219 298.949219 195.449219 C 298.050781 195.449219 297.351562 195.75 296.851562 196.351562 C 296.351562 196.949219 296.101562 197.851562 296.101562 199.050781 C 296.101562 200.25 296.351562 201.148438 296.851562 201.75 C 297.351562 202.351562 298.050781 202.648438 298.949219 202.648438 "/>
<path style=" stroke:none;fill-rule:nonzero;fill:rgb(0%,0%,100%);fill-opacity:1;" d="M 300.675781 139.800781 L 303.601562 144.523438 C 303.800781 144.875 304.050781 145.324219 304.351562 145.875 C 304.648438 146.425781 304.824219 146.726562 304.875 146.773438 L 304.875 139.800781 L 306.074219 139.800781 L 306.074219 148.800781 L 304.800781 148.800781 L 301.648438 143.550781 C 301.398438 143.148438 301.148438 142.726562 300.898438 142.273438 C 300.648438 141.824219 300.5 141.523438 300.449219 141.375 L 300.449219 148.800781 L 299.25 148.800781 L 299.25 139.800781 L 300.675781 139.800781 "/>
<path style=" stroke:none;fill-rule:nonzero;fill:rgb(0%,0%,100%);fill-opacity:1;" d="M 340.949219 108.148438 L 343.875 112.949219 C 344.074219 113.25 344.351562 113.675781 344.699219 114.226562 C 345 114.773438 345.148438 115.074219 345.148438 115.125 L 345.148438 108.148438 L 346.351562 108.148438 L 346.351562 117.148438 L 345.148438 117.148438 L 342 111.976562 C 341.75 111.523438 341.5 111.074219 341.25 110.625 C 340.949219 110.175781 340.773438 109.875 340.726562 109.726562 L 340.726562 117.148438 L 339.523438 117.148438 L 339.523438 108.148438 L 340.949219 108.148438 "/>
<path style=" stroke:none;fill-rule:nonzero;fill:rgb(0%,0%,100%);fill-opacity:1;" d="M 348.074219 108.148438 L 349.351562 108.148438 L 349.351562 111.976562 L 353.925781 111.976562 L 353.925781 108.148438 L 355.125 108.148438 L 355.125 117.148438 L 353.925781 117.148438 L 353.925781 113.023438 L 349.351562 113.023438 L 349.351562 117.148438 L 348.074219 117.148438 L 348.074219 108.148438 "/>
<path style=" stroke:none;fill-rule:nonzero;fill:rgb(100%,0%,0%);fill-opacity:1;" d="M 349.726562 168.074219 C 349.726562 166.625 350.074219 165.5 350.773438 164.699219 C 351.476562 163.898438 352.5 163.5 353.851562 163.5 C 355.148438 163.5 356.175781 163.898438 356.925781 164.699219 C 357.625 165.5 357.976562 166.625 357.976562 168.074219 C 357.976562 169.523438 357.601562 170.648438 356.851562 171.449219 C 356.148438 172.300781 355.148438 172.726562 353.851562 172.726562 C 352.550781 172.726562 351.523438 172.300781 350.773438 171.449219 C 350.074219 170.648438 349.726562 169.523438 349.726562 168.074219 M 353.851562 171.675781 C 354.75 171.675781 355.449219 171.375 355.949219 170.773438 C 356.449219 170.175781 356.699219 169.273438 356.699219 168.074219 C 356.699219 166.875 356.449219 165.976562 355.949219 165.375 C 355.449219 164.773438 354.75 164.476562 353.851562 164.476562 C 352.949219 164.476562 352.25 164.773438 351.75 165.375 C 351.25 165.976562 351 166.875 351 168.074219 C 351 169.273438 351.25 170.175781 351.75 170.773438 C 352.25 171.375 352.949219 171.675781 353.851562 171.675781 "/>
<path style=" stroke:none;fill-rule:nonzero;fill:rgb(100%,0%,0%);fill-opacity:1;" d="M 135.824219 106.574219 C 135.824219 105.125 136.175781 104 136.875 103.199219 C 137.625 102.398438 138.648438 102 139.949219 102 C 141.300781 102 142.324219 102.398438 143.023438 103.199219 C 143.726562 104 144.074219 105.125 144.074219 106.574219 C 144.074219 108.023438 143.726562 109.175781 143.023438 110.023438 C 142.273438 110.824219 141.25 111.226562 139.949219 111.226562 C 138.648438 111.226562 137.625 110.824219 136.875 110.023438 C 136.175781 109.175781 135.824219 108.023438 135.824219 106.574219 M 139.949219 110.25 C 140.851562 110.25 141.550781 109.925781 142.050781 109.273438 C 142.550781 108.675781 142.800781 107.773438 142.800781 106.574219 C 142.800781 105.425781 142.550781 104.550781 142.050781 103.949219 C 141.550781 103.351562 140.851562 103.050781 139.949219 103.050781 C 139.050781 103.050781 138.351562 103.351562 137.851562 103.949219 C 137.351562 104.5 137.101562 105.375 137.101562 106.574219 C 137.101562 107.773438 137.351562 108.675781 137.851562 109.273438 C 138.351562 109.925781 139.050781 110.25 139.949219 110.25 "/>
<path style=" stroke:none;fill-rule:nonzero;fill:rgb(0%,0%,100%);fill-opacity:1;" d="M 111.976562 154.5 L 114.898438 159.226562 C 115.101562 159.523438 115.351562 159.976562 115.648438 160.574219 C 116 161.125 116.175781 161.425781 116.175781 161.476562 L 116.175781 154.5 L 117.375 154.5 L 117.375 163.425781 L 116.175781 163.425781 L 113.023438 158.25 C 112.773438 157.851562 112.5 157.425781 112.199219 156.976562 C 111.949219 156.476562 111.800781 156.175781 111.75 156.074219 L 111.75 163.425781 L 110.550781 163.425781 L 110.550781 154.5 L 111.976562 154.5 "/>
<path style=" stroke:none;fill-rule:nonzero;fill:rgb(100%,0%,0%);fill-opacity:1;" d="M 54.074219 123.523438 C 54.074219 122.074219 54.425781 120.949219 55.125 120.148438 C 55.824219 119.351562 56.824219 118.949219 58.125 118.949219 C 59.476562 118.949219 60.5 119.351562 61.199219 120.148438 C 61.898438 120.949219 62.25 122.074219 62.25 123.523438 C 62.25 124.976562 61.898438 126.125 61.199219 126.976562 C 60.5 127.773438 59.476562 128.175781 58.125 128.175781 C 56.824219 128.175781 55.824219 127.773438 55.125 126.976562 C 54.425781 126.125 54.074219 124.976562 54.074219 123.523438 M 58.125 127.125 C 59.074219 127.125 59.800781 126.824219 60.300781 126.226562 C 60.75 125.625 60.976562 124.726562 60.976562 123.523438 C 60.976562 122.324219 60.75 121.449219 60.300781 120.898438 C 59.800781 120.300781 59.074219 120 58.125 120 C 57.226562 120 56.523438 120.273438 56.023438 120.824219 C 55.574219 121.425781 55.351562 122.324219 55.351562 123.523438 C 55.351562 124.726562 55.574219 125.625 56.023438 126.226562 C 56.523438 126.824219 57.226562 127.125 58.125 127.125 "/>
<path style=" stroke:none;fill-rule:nonzero;fill:rgb(100%,0%,0%);fill-opacity:1;" d="M 17.023438 166.125 L 18.226562 166.125 L 18.226562 169.949219 L 22.875 169.949219 L 22.875 166.125 L 24.074219 166.125 L 24.074219 175.125 L 22.875 175.125 L 22.875 170.925781 L 18.226562 170.925781 L 18.226562 175.125 L 17.023438 175.125 L 17.023438 166.125 "/>
<path style=" stroke:none;fill-rule:nonzero;fill:rgb(100%,0%,0%);fill-opacity:1;" d="M 25.875 170.550781 C 25.875 169.148438 26.25 168.050781 27 167.25 C 27.699219 166.449219 28.699219 166.050781 30 166.050781 C 31.351562 166.050781 32.375 166.449219 33.074219 167.25 C 33.773438 168.050781 34.125 169.148438 34.125 170.550781 C 34.125 172.050781 33.773438 173.199219 33.074219 174 C 32.324219 174.800781 31.300781 175.199219 30 175.199219 C 28.699219 175.199219 27.699219 174.800781 27 174 C 26.25 173.199219 25.875 172.050781 25.875 170.550781 M 30 174.226562 C 30.898438 174.226562 31.601562 173.925781 32.101562 173.324219 C 32.601562 172.675781 32.851562 171.75 32.851562 170.550781 C 32.851562 169.398438 32.601562 168.523438 32.101562 167.925781 C 31.601562 167.324219 30.898438 167.023438 30 167.023438 C 29.101562 167.023438 28.398438 167.324219 27.898438 167.925781 C 27.398438 168.523438 27.148438 169.398438 27.148438 170.550781 C 27.148438 171.800781 27.398438 172.726562 27.898438 173.324219 C 28.398438 173.925781 29.101562 174.226562 30 174.226562 "/>
<path style=" stroke:none;fill-rule:nonzero;fill:rgb(0%,0%,0%);fill-opacity:1;" d="M 155.550781 198.675781 L 156.824219 198.675781 L 156.824219 202.425781 L 161.398438 202.425781 L 161.398438 198.675781 L 162.601562 198.675781 L 162.601562 207.601562 L 161.398438 207.601562 L 161.398438 203.476562 L 156.824219 203.476562 L 156.824219 207.601562 L 155.550781 207.601562 L 155.550781 198.675781 "/>
</g>
</svg>
