<?xml version="1.0" encoding="UTF-8"?>
<svg xmlns="http://www.w3.org/2000/svg" xmlns:xlink="http://www.w3.org/1999/xlink" width="375pt" height="375pt" viewBox="0 0 375 375" version="1.1">
<g id="surface346">
<rect x="0" y="0" width="375" height="375" style="fill:rgb(100%,100%,100%);fill-opacity:1;stroke:none;"/>
<path style="fill:none;stroke-width:2;stroke-linecap:butt;stroke-linejoin:miter;stroke:rgb(0%,0%,100%);stroke-opacity:1;stroke-miterlimit:4;" d="M 411.302083 323 L 388.197917 283 " transform="matrix(0.75,0,0,0.75,0,0)"/>
<path style="fill:none;stroke-width:2;stroke-linecap:butt;stroke-linejoin:miter;stroke:rgb(0%,0%,0%);stroke-opacity:1;stroke-miterlimit:4;" d="M 388.197917 283 L 365.197917 243 " transform="matrix(0.75,0,0,0.75,0,0)"/>
<path style="fill:none;stroke-width:2;stroke-linecap:butt;stroke-linejoin:miter;stroke:rgb(0%,0%,0%);stroke-opacity:1;stroke-miterlimit:4;" d="M 355.401042 237.302083 L 378.302083 197.697917 " transform="matrix(0.75,0,0,0.75,0,0)"/>
<path style="fill:none;stroke-width:2;stroke-linecap:butt;stroke-linejoin:miter;stroke:rgb(100%,0%,0%);stroke-opacity:1;stroke-miterlimit:4;" d="M 378.302083 197.697917 L 401.197917 158 " transform="matrix(0.75,0,0,0.75,0,0)"/>
<path style="fill:none;stroke-width:2;stroke-linecap:butt;stroke-linejoin:miter;stroke:rgb(0%,0%,0%);stroke-opacity:1;stroke-miterlimit:4;" d="M 374.901042 248.697917 L 397.901042 209 " transform="matrix(0.75,0,0,0.75,0,0)"/>
<path style="fill:none;stroke-width:2;stroke-linecap:butt;stroke-linejoin:miter;stroke:rgb(100%,0%,0%);stroke-opacity:1;stroke-miterlimit:4;" d="M 397.901042 209 L 420.802083 169.302083 " transform="matrix(0.75,0,0,0.75,0,0)"/>
<path style="fill:none;stroke-width:2;stroke-linecap:butt;stroke-linejoin:miter;stroke:rgb(0%,0%,0%);stroke-opacity:1;stroke-miterlimit:4;" d="M 365.197917 243 L 252.098958 243 " transform="matrix(0.75,0,0,0.75,0,0)"/>
<path style="fill:none;stroke-width:2;stroke-linecap:butt;stroke-linejoin:miter;stroke:rgb(0%,0%,0%);stroke-opacity:1;stroke-miterlimit:4;" d="M 252.098958 243 L 195.598958 340.901042 " transform="matrix(0.75,0,0,0.75,0,0)"/>
<path style="fill:none;stroke-width:2;stroke-linecap:butt;stroke-linejoin:miter;stroke:rgb(0%,0%,0%);stroke-opacity:1;stroke-miterlimit:4;" d="M 224.098958 246.401042 L 184.5 314.901042 " transform="matrix(0.75,0,0,0.75,0,0)"/>
<path style="fill:none;stroke-width:2;stroke-linecap:butt;stroke-linejoin:miter;stroke:rgb(0%,0%,0%);stroke-opacity:1;stroke-miterlimit:4;" d="M 195.598958 340.901042 L 146.401042 340.901042 " transform="matrix(0.75,0,0,0.75,0,0)"/>
<path style="fill:none;stroke-width:2;stroke-linecap:butt;stroke-linejoin:miter;stroke:rgb(0%,0%,100%);stroke-opacity:1;stroke-miterlimit:4;" d="M 146.401042 340.901042 L 97.098958 340.901042 " transform="matrix(0.75,0,0,0.75,0,0)"/>
<path style="fill:none;stroke-width:2;stroke-linecap:butt;stroke-linejoin:miter;stroke:rgb(0%,0%,100%);stroke-opacity:1;stroke-miterlimit:4;" d="M 72.302083 323 L 49.197917 283 " transform="matrix(0.75,0,0,0.75,0,0)"/>
<path style="fill:none;stroke-width:2;stroke-linecap:butt;stroke-linejoin:miter;stroke:rgb(0%,0%,0%);stroke-opacity:1;stroke-miterlimit:4;" d="M 49.197917 283 L 26.098958 243 " transform="matrix(0.75,0,0,0.75,0,0)"/>
<path style="fill:none;stroke-width:2;stroke-linecap:butt;stroke-linejoin:miter;stroke:rgb(0%,0%,100%);stroke-opacity:1;stroke-miterlimit:4;" d="M 84.901042 299.697917 L 68.802083 271.697917 " transform="matrix(0.75,0,0,0.75,0,0)"/>
<path style="fill:none;stroke-width:2;stroke-linecap:butt;stroke-linejoin:miter;stroke:rgb(0%,0%,0%);stroke-opacity:1;stroke-miterlimit:4;" d="M 68.802083 271.697917 L 52.598958 243.697917 " transform="matrix(0.75,0,0,0.75,0,0)"/>
<path style="fill:none;stroke-width:2;stroke-linecap:butt;stroke-linejoin:miter;stroke:rgb(0%,0%,0%);stroke-opacity:1;stroke-miterlimit:4;" d="M 26.098958 243 L 82.598958 145.098958 " transform="matrix(0.75,0,0,0.75,0,0)"/>
<path style="fill:none;stroke-width:2;stroke-linecap:butt;stroke-linejoin:miter;stroke:rgb(0%,0%,0%);stroke-opacity:1;stroke-miterlimit:4;" d="M 82.598958 145.098958 L 131.901042 145.098958 " transform="matrix(0.75,0,0,0.75,0,0)"/>
<path style="fill:none;stroke-width:2;stroke-linecap:butt;stroke-linejoin:miter;stroke:rgb(0%,0%,100%);stroke-opacity:1;stroke-miterlimit:4;" d="M 131.901042 145.098958 L 181.197917 145.098958 " transform="matrix(0.75,0,0,0.75,0,0)"/>
<path style="fill:none;stroke-width:2;stroke-linecap:butt;stroke-linejoin:miter;stroke:rgb(0%,0%,0%);stroke-opacity:1;stroke-miterlimit:4;" d="M 97.401042 167.697917 L 131.901042 167.697917 " transform="matrix(0.75,0,0,0.75,0,0)"/>
<path style="fill:none;stroke-width:2;stroke-linecap:butt;stroke-linejoin:miter;stroke:rgb(0%,0%,100%);stroke-opacity:1;stroke-miterlimit:4;" d="M 131.901042 167.697917 L 166.401042 167.697917 " transform="matrix(0.75,0,0,0.75,0,0)"/>
<path style="fill:none;stroke-width:2;stroke-linecap:butt;stroke-linejoin:miter;stroke:rgb(0%,0%,100%);stroke-opacity:1;stroke-miterlimit:4;" d="M 206 163 L 229.098958 203 " transform="matrix(0.75,0,0,0.75,0,0)"/>
<path style="fill:none;stroke-width:2;stroke-linecap:butt;stroke-linejoin:miter;stroke:rgb(0%,0%,0%);stroke-opacity:1;stroke-miterlimit:4;" d="M 229.098958 203 L 252.098958 243 " transform="matrix(0.75,0,0,0.75,0,0)"/>
<path style=" stroke:none;fill-rule:nonzero;fill:rgb(0%,0%,100%);fill-opacity:1;" d="M 311.550781 245.023438 L 318.523438 256.273438 C 318.976562 257.023438 319.574219 258.074219 320.324219 259.425781 C 321.074219 260.773438 321.449219 261.476562 321.449219 261.523438 L 321.449219 245.023438 L 324.300781 245.023438 L 324.300781 266.25 L 321.375 266.25 L 313.949219 253.949219 C 313.351562 253 312.75 251.976562 312.148438 250.875 C 311.550781 249.773438 311.148438 249.050781 310.949219 248.699219 L 310.949219 266.25 L 308.175781 266.25 L 308.175781 245.023438 L 311.550781 245.023438 "/>
<path style=" stroke:none;fill-rule:nonzero;fill:rgb(0%,0%,100%);fill-opacity:1;" d="M 326.773438 245.023438 L 329.699219 245.023438 L 329.699219 254.101562 L 340.5 254.101562 L 340.5 245.023438 L 343.425781 245.023438 L 343.425781 266.25 L 340.5 266.25 L 340.5 256.5 L 329.699219 256.5 L 329.699219 266.25 L 326.773438 266.25 L 326.773438 245.023438 "/>
<path style=" stroke:none;fill-rule:nonzero;fill:rgb(0%,0%,100%);fill-opacity:1;" d="M 345.976562 265.5 C 346.324219 264.648438 346.925781 263.976562 347.773438 263.476562 C 348.574219 262.976562 349.550781 262.726562 350.699219 262.726562 C 352.101562 262.726562 353.199219 263.101562 354 263.851562 C 354.800781 264.648438 355.199219 265.726562 355.199219 267.074219 C 355.199219 268.425781 354.675781 269.75 353.625 271.050781 C 352.625 272.351562 351.050781 273.773438 348.898438 275.324219 L 355.425781 275.324219 L 355.425781 276.898438 L 345.976562 276.898438 L 345.976562 275.550781 C 347.726562 274.300781 349.101562 273.226562 350.101562 272.324219 C 351.148438 271.375 351.925781 270.5 352.425781 269.699219 C 352.925781 268.851562 353.175781 268 353.175781 267.148438 C 353.175781 266.25 352.949219 265.550781 352.5 265.050781 C 352.050781 264.550781 351.449219 264.300781 350.699219 264.300781 C 349.949219 264.300781 349.324219 264.449219 348.824219 264.75 C 348.324219 265.050781 347.875 265.550781 347.476562 266.25 L 345.976562 265.5 "/>
<path style=" stroke:none;fill-rule:nonzero;fill:rgb(100%,0%,0%);fill-opacity:1;" d="M 306.523438 108.898438 C 306.523438 105.5 307.351562 102.851562 309 100.949219 C 310.699219 99.050781 313.125 98.101562 316.273438 98.101562 C 319.375 98.101562 321.773438 99.050781 323.476562 100.949219 C 325.175781 102.851562 326.023438 105.5 326.023438 108.898438 C 326.023438 112.351562 325.175781 115.050781 323.476562 117 C 321.773438 118.949219 319.375 119.925781 316.273438 119.925781 C 313.125 119.925781 310.699219 118.949219 309 117 C 307.351562 115.050781 306.523438 112.351562 306.523438 108.898438 M 316.273438 117.523438 C 318.425781 117.523438 320.074219 116.800781 321.226562 115.351562 C 322.425781 113.898438 323.023438 111.75 323.023438 108.898438 C 323.023438 106.101562 322.425781 104 321.226562 102.601562 C 320.074219 101.199219 318.425781 100.5 316.273438 100.5 C 314.074219 100.5 312.398438 101.199219 311.25 102.601562 C 310.101562 104 309.523438 106.101562 309.523438 108.898438 C 309.523438 111.75 310.101562 113.898438 311.25 115.351562 C 312.398438 116.800781 314.074219 117.523438 316.273438 117.523438 "/>
<path style=" stroke:none;fill-rule:nonzero;fill:rgb(0%,0%,100%);fill-opacity:1;" d="M 57.300781 245.023438 L 64.199219 256.273438 C 64.699219 257.023438 65.300781 258.074219 66 259.425781 C 66.75 260.773438 67.148438 261.476562 67.199219 261.523438 L 67.199219 245.023438 L 70.050781 245.023438 L 70.050781 266.25 L 67.125 266.25 L 59.625 253.949219 C 59.074219 253 58.476562 251.976562 57.824219 250.875 C 57.226562 249.773438 56.851562 249.050781 56.699219 248.699219 L 56.699219 266.25 L 53.925781 266.25 L 53.925781 245.023438 L 57.300781 245.023438 "/>
<path style=" stroke:none;fill-rule:nonzero;fill:rgb(0%,0%,100%);fill-opacity:1;" d="M 142.050781 98.25 L 149.023438 109.5 C 149.476562 110.199219 150.074219 111.226562 150.824219 112.574219 C 151.523438 113.925781 151.898438 114.648438 151.949219 114.75 L 151.949219 98.25 L 154.800781 98.25 L 154.800781 119.476562 L 151.875 119.476562 L 144.375 107.175781 C 143.824219 106.226562 143.226562 105.199219 142.574219 104.101562 C 141.976562 103 141.601562 102.273438 141.449219 101.925781 L 141.449219 119.476562 L 138.675781 119.476562 L 138.675781 98.25 L 142.050781 98.25 "/>
</g>
</svg>
