<?xml version="1.0" encoding="UTF-8"?>
<svg xmlns="http://www.w3.org/2000/svg" xmlns:xlink="http://www.w3.org/1999/xlink" width="375pt" height="375pt" viewBox="0 0 375 375" version="1.1">
<g id="surface156">
<rect x="0" y="0" width="375" height="375" style="fill:rgb(100%,100%,100%);fill-opacity:1;stroke:none;"/>
<path style="fill:none;stroke-width:2;stroke-linecap:butt;stroke-linejoin:miter;stroke:rgb(0%,0%,0%);stroke-opacity:1;stroke-miterlimit:4;" d="M 22.697917 220.5 L 52.697917 231 " transform="matrix(0.75,0,0,0.75,0,0)"/>
<path style="fill:none;stroke-width:2;stroke-linecap:butt;stroke-linejoin:miter;stroke:rgb(0%,0%,0%);stroke-opacity:1;stroke-miterlimit:4;" d="M 52.697917 231 L 56.401042 243.401042 " transform="matrix(0.75,0,0,0.75,0,0)"/>
<path style="fill:none;stroke-width:2;stroke-linecap:butt;stroke-linejoin:miter;stroke:rgb(0%,0%,100%);stroke-opacity:1;stroke-miterlimit:4;" d="M 56.401042 243.401042 L 60.098958 255.802083 " transform="matrix(0.75,0,0,0.75,0,0)"/>
<path style="fill:none;stroke-width:2;stroke-linecap:butt;stroke-linejoin:miter;stroke:rgb(0%,0%,0%);stroke-opacity:1;stroke-miterlimit:4;" d="M 59.901042 232.901042 L 62.5 241.598958 " transform="matrix(0.75,0,0,0.75,0,0)"/>
<path style="fill:none;stroke-width:2;stroke-linecap:butt;stroke-linejoin:miter;stroke:rgb(0%,0%,100%);stroke-opacity:1;stroke-miterlimit:4;" d="M 62.5 241.598958 L 65.098958 250.302083 " transform="matrix(0.75,0,0,0.75,0,0)"/>
<path style="fill:none;stroke-width:2;stroke-linecap:butt;stroke-linejoin:miter;stroke:rgb(0%,0%,100%);stroke-opacity:1;stroke-miterlimit:4;" d="M 66.197917 261.5 L 89 262 " transform="matrix(0.75,0,0,0.75,0,0)"/>
<path style="fill:none;stroke-width:2;stroke-linecap:butt;stroke-linejoin:miter;stroke:rgb(0%,0%,100%);stroke-opacity:1;stroke-miterlimit:4;" d="M 95.401042 256.598958 L 99.697917 244.401042 " transform="matrix(0.75,0,0,0.75,0,0)"/>
<path style="fill:none;stroke-width:2;stroke-linecap:butt;stroke-linejoin:miter;stroke:rgb(0%,0%,0%);stroke-opacity:1;stroke-miterlimit:4;" d="M 99.697917 244.401042 L 104 232.197917 " transform="matrix(0.75,0,0,0.75,0,0)"/>
<path style="fill:none;stroke-width:2;stroke-linecap:butt;stroke-linejoin:miter;stroke:rgb(0%,0%,100%);stroke-opacity:1;stroke-miterlimit:4;" d="M 90.697917 250.802083 L 93.697917 242.302083 " transform="matrix(0.75,0,0,0.75,0,0)"/>
<path style="fill:none;stroke-width:2;stroke-linecap:butt;stroke-linejoin:miter;stroke:rgb(0%,0%,0%);stroke-opacity:1;stroke-miterlimit:4;" d="M 93.697917 242.302083 L 96.697917 233.697917 " transform="matrix(0.75,0,0,0.75,0,0)"/>
<path style="fill:none;stroke-width:2;stroke-linecap:butt;stroke-linejoin:miter;stroke:rgb(0%,0%,0%);stroke-opacity:1;stroke-miterlimit:4;" d="M 104 232.197917 L 117.197917 228.197917 " transform="matrix(0.75,0,0,0.75,0,0)"/>
<path style="fill:none;stroke-width:2;stroke-linecap:butt;stroke-linejoin:miter;stroke:rgb(80%,80%,0%);stroke-opacity:1;stroke-miterlimit:4;" d="M 117.197917 228.197917 L 130.5 224.302083 " transform="matrix(0.75,0,0,0.75,0,0)"/>
<path style="fill:none;stroke-width:2;stroke-linecap:butt;stroke-linejoin:miter;stroke:rgb(80%,80%,0%);stroke-opacity:1;stroke-miterlimit:4;" d="M 138.302083 226.802083 L 147.901042 235.802083 " transform="matrix(0.75,0,0,0.75,0,0)"/>
<path style="fill:none;stroke-width:2;stroke-linecap:butt;stroke-linejoin:miter;stroke:rgb(0%,0%,0%);stroke-opacity:1;stroke-miterlimit:4;" d="M 147.901042 235.802083 L 157.5 244.901042 " transform="matrix(0.75,0,0,0.75,0,0)"/>
<path style="fill:none;stroke-width:2;stroke-linecap:butt;stroke-linejoin:miter;stroke:rgb(0%,0%,0%);stroke-opacity:1;stroke-miterlimit:4;" d="M 157.5 244.901042 L 187.901042 235.802083 " transform="matrix(0.75,0,0,0.75,0,0)"/>
<path style="fill:none;stroke-width:2;stroke-linecap:butt;stroke-linejoin:miter;stroke:rgb(0%,0%,0%);stroke-opacity:1;stroke-miterlimit:4;" d="M 187.901042 235.802083 L 210.901042 257.5 " transform="matrix(0.75,0,0,0.75,0,0)"/>
<path style="fill:none;stroke-width:2;stroke-linecap:butt;stroke-linejoin:miter;stroke:rgb(0%,0%,0%);stroke-opacity:1;stroke-miterlimit:4;" d="M 195.697917 234.401042 L 211.802083 249.697917 " transform="matrix(0.75,0,0,0.75,0,0)"/>
<path style="fill:none;stroke-width:2;stroke-linecap:butt;stroke-linejoin:miter;stroke:rgb(0%,0%,0%);stroke-opacity:1;stroke-miterlimit:4;" d="M 210.901042 257.5 L 203.598958 288.401042 " transform="matrix(0.75,0,0,0.75,0,0)"/>
<path style="fill:none;stroke-width:2;stroke-linecap:butt;stroke-linejoin:miter;stroke:rgb(0%,0%,0%);stroke-opacity:1;stroke-miterlimit:4;" d="M 205.802083 286.098958 L 214.697917 294.5 " transform="matrix(0.75,0,0,0.75,0,0)"/>
<path style="fill:none;stroke-width:2;stroke-linecap:butt;stroke-linejoin:miter;stroke:rgb(100%,0%,0%);stroke-opacity:1;stroke-miterlimit:4;" d="M 214.697917 294.5 L 223.697917 303 " transform="matrix(0.75,0,0,0.75,0,0)"/>
<path style="fill:none;stroke-width:2;stroke-linecap:butt;stroke-linejoin:miter;stroke:rgb(0%,0%,0%);stroke-opacity:1;stroke-miterlimit:4;" d="M 201.401042 290.697917 L 210.401042 299.197917 " transform="matrix(0.75,0,0,0.75,0,0)"/>
<path style="fill:none;stroke-width:2;stroke-linecap:butt;stroke-linejoin:miter;stroke:rgb(100%,0%,0%);stroke-opacity:1;stroke-miterlimit:4;" d="M 210.401042 299.197917 L 219.302083 307.598958 " transform="matrix(0.75,0,0,0.75,0,0)"/>
<path style="fill:none;stroke-width:2;stroke-linecap:butt;stroke-linejoin:miter;stroke:rgb(0%,0%,0%);stroke-opacity:1;stroke-miterlimit:4;" d="M 203.598958 288.401042 L 191 292.197917 " transform="matrix(0.75,0,0,0.75,0,0)"/>
<path style="fill:none;stroke-width:2;stroke-linecap:butt;stroke-linejoin:miter;stroke:rgb(100%,0%,0%);stroke-opacity:1;stroke-miterlimit:4;" d="M 191 292.197917 L 178.401042 296 " transform="matrix(0.75,0,0,0.75,0,0)"/>
<path style="fill:none;stroke-width:2;stroke-linecap:butt;stroke-linejoin:miter;stroke:rgb(0%,0%,0%);stroke-opacity:1;stroke-miterlimit:4;" d="M 210.901042 257.5 L 223.901042 253.598958 " transform="matrix(0.75,0,0,0.75,0,0)"/>
<path style="fill:none;stroke-width:2;stroke-linecap:butt;stroke-linejoin:miter;stroke:rgb(0%,0%,100%);stroke-opacity:1;stroke-miterlimit:4;" d="M 223.901042 253.598958 L 236.901042 249.802083 " transform="matrix(0.75,0,0,0.75,0,0)"/>
<path style="fill:none;stroke-width:2;stroke-linecap:butt;stroke-linejoin:miter;stroke:rgb(0%,0%,100%);stroke-opacity:1;stroke-miterlimit:4;" d="M 245.802083 249.5 L 259 252.598958 " transform="matrix(0.75,0,0,0.75,0,0)"/>
<path style="fill:none;stroke-width:2;stroke-linecap:butt;stroke-linejoin:miter;stroke:rgb(0%,0%,0%);stroke-opacity:1;stroke-miterlimit:4;" d="M 259 252.598958 L 272.197917 255.697917 " transform="matrix(0.75,0,0,0.75,0,0)"/>
<path style="fill:none;stroke-width:2;stroke-linecap:butt;stroke-linejoin:miter;stroke:rgb(0%,0%,0%);stroke-opacity:1;stroke-miterlimit:4;" d="M 274.901042 254.098958 L 281.5 264.802083 " transform="matrix(0.75,0,0,0.75,0,0)"/>
<path style="fill:none;stroke-width:2;stroke-linecap:butt;stroke-linejoin:miter;stroke:rgb(100%,0%,0%);stroke-opacity:1;stroke-miterlimit:4;" d="M 281.5 264.802083 L 288.098958 275.5 " transform="matrix(0.75,0,0,0.75,0,0)"/>
<path style="fill:none;stroke-width:2;stroke-linecap:butt;stroke-linejoin:miter;stroke:rgb(0%,0%,0%);stroke-opacity:1;stroke-miterlimit:4;" d="M 269.5 257.401042 L 276.098958 268.098958 " transform="matrix(0.75,0,0,0.75,0,0)"/>
<path style="fill:none;stroke-width:2;stroke-linecap:butt;stroke-linejoin:miter;stroke:rgb(100%,0%,0%);stroke-opacity:1;stroke-miterlimit:4;" d="M 276.098958 268.098958 L 282.697917 278.802083 " transform="matrix(0.75,0,0,0.75,0,0)"/>
<path style="fill:none;stroke-width:2;stroke-linecap:butt;stroke-linejoin:miter;stroke:rgb(0%,0%,0%);stroke-opacity:1;stroke-miterlimit:4;" d="M 272.197917 255.697917 L 279.5 224.901042 " transform="matrix(0.75,0,0,0.75,0,0)"/>
<path style="fill:none;stroke-width:1;stroke-linecap:butt;stroke-linejoin:miter;stroke:rgb(0%,0%,0%);stroke-opacity:1;stroke-miterlimit:4;" d="M 284.098958 222.802083 L 283.5 221.697917 " transform="matrix(0.75,0,0,0.75,0,0)"/>
<path style="fill:none;stroke-width:1;stroke-linecap:butt;stroke-linejoin:miter;stroke:rgb(0%,0%,0%);stroke-opacity:1;stroke-miterlimit:4;" d="M 288.802083 220.697917 L 287.401042 218.5 " transform="matrix(0.75,0,0,0.75,0,0)"/>
<path style="fill:none;stroke-width:1;stroke-linecap:butt;stroke-linejoin:miter;stroke:rgb(0%,0%,100%);stroke-opacity:1;stroke-miterlimit:4;" d="M 293.401042 218.5 L 291.401042 215.302083 " transform="matrix(0.75,0,0,0.75,0,0)"/>
<path style="fill:none;stroke-width:1;stroke-linecap:butt;stroke-linejoin:miter;stroke:rgb(0%,0%,100%);stroke-opacity:1;stroke-miterlimit:4;" d="M 298 216.401042 L 295.401042 212.098958 " transform="matrix(0.75,0,0,0.75,0,0)"/>
<path style="fill:none;stroke-width:1;stroke-linecap:butt;stroke-linejoin:miter;stroke:rgb(0%,0%,100%);stroke-opacity:1;stroke-miterlimit:4;" d="M 302.697917 214.302083 L 299.302083 208.901042 " transform="matrix(0.75,0,0,0.75,0,0)"/>
<path style="fill:none;stroke-width:2;stroke-linecap:butt;stroke-linejoin:miter;stroke:rgb(0%,0%,100%);stroke-opacity:1;stroke-miterlimit:4;" d="M 311 210.598958 L 322.697917 216.901042 " transform="matrix(0.75,0,0,0.75,0,0)"/>
<path style="fill:none;stroke-width:2;stroke-linecap:butt;stroke-linejoin:miter;stroke:rgb(0%,0%,0%);stroke-opacity:1;stroke-miterlimit:4;" d="M 322.697917 216.901042 L 334.401042 223.302083 " transform="matrix(0.75,0,0,0.75,0,0)"/>
<path style="fill:none;stroke-width:2;stroke-linecap:butt;stroke-linejoin:miter;stroke:rgb(0%,0%,0%);stroke-opacity:1;stroke-miterlimit:4;" d="M 337.598958 223.197917 L 338 236.197917 " transform="matrix(0.75,0,0,0.75,0,0)"/>
<path style="fill:none;stroke-width:2;stroke-linecap:butt;stroke-linejoin:miter;stroke:rgb(100%,0%,0%);stroke-opacity:1;stroke-miterlimit:4;" d="M 338 236.197917 L 338.401042 249.302083 " transform="matrix(0.75,0,0,0.75,0,0)"/>
<path style="fill:none;stroke-width:2;stroke-linecap:butt;stroke-linejoin:miter;stroke:rgb(0%,0%,0%);stroke-opacity:1;stroke-miterlimit:4;" d="M 331.302083 223.401042 L 331.598958 236.401042 " transform="matrix(0.75,0,0,0.75,0,0)"/>
<path style="fill:none;stroke-width:2;stroke-linecap:butt;stroke-linejoin:miter;stroke:rgb(100%,0%,0%);stroke-opacity:1;stroke-miterlimit:4;" d="M 331.598958 236.401042 L 332 249.5 " transform="matrix(0.75,0,0,0.75,0,0)"/>
<path style="fill:none;stroke-width:2;stroke-linecap:butt;stroke-linejoin:miter;stroke:rgb(0%,0%,0%);stroke-opacity:1;stroke-miterlimit:4;" d="M 334.401042 223.302083 L 361.401042 206.598958 " transform="matrix(0.75,0,0,0.75,0,0)"/>
<path style="fill:none;stroke-width:2;stroke-linecap:butt;stroke-linejoin:miter;stroke:rgb(0%,0%,0%);stroke-opacity:1;stroke-miterlimit:4;" d="M 361.401042 206.598958 L 373.197917 212.901042 " transform="matrix(0.75,0,0,0.75,0,0)"/>
<path style="fill:none;stroke-width:2;stroke-linecap:butt;stroke-linejoin:miter;stroke:rgb(0%,0%,100%);stroke-opacity:1;stroke-miterlimit:4;" d="M 373.197917 212.901042 L 384.901042 219.302083 " transform="matrix(0.75,0,0,0.75,0,0)"/>
<path style="fill:none;stroke-width:2;stroke-linecap:butt;stroke-linejoin:miter;stroke:rgb(0%,0%,100%);stroke-opacity:1;stroke-miterlimit:4;" d="M 389.5 227.197917 L 389.901042 240.302083 " transform="matrix(0.75,0,0,0.75,0,0)"/>
<path style="fill:none;stroke-width:2;stroke-linecap:butt;stroke-linejoin:miter;stroke:rgb(0%,0%,0%);stroke-opacity:1;stroke-miterlimit:4;" d="M 389.901042 240.302083 L 390.302083 253.401042 " transform="matrix(0.75,0,0,0.75,0,0)"/>
<path style="fill:none;stroke-width:2;stroke-linecap:butt;stroke-linejoin:miter;stroke:rgb(0%,0%,0%);stroke-opacity:1;stroke-miterlimit:4;" d="M 390.302083 253.401042 L 418.197917 268.401042 " transform="matrix(0.75,0,0,0.75,0,0)"/>
<path style="fill:none;stroke-width:2;stroke-linecap:butt;stroke-linejoin:miter;stroke:rgb(0%,0%,0%);stroke-opacity:1;stroke-miterlimit:4;" d="M 397.5 250.098958 L 417 260.598958 " transform="matrix(0.75,0,0,0.75,0,0)"/>
<path style="fill:none;stroke-width:2;stroke-linecap:butt;stroke-linejoin:miter;stroke:rgb(0%,0%,0%);stroke-opacity:1;stroke-miterlimit:4;" d="M 418.197917 268.401042 L 418.598958 281.598958 " transform="matrix(0.75,0,0,0.75,0,0)"/>
<path style="fill:none;stroke-width:2;stroke-linecap:butt;stroke-linejoin:miter;stroke:rgb(0%,80%,0%);stroke-opacity:1;stroke-miterlimit:4;" d="M 418.598958 281.598958 L 419 294.802083 " transform="matrix(0.75,0,0,0.75,0,0)"/>
<path style="fill:none;stroke-width:2;stroke-linecap:butt;stroke-linejoin:miter;stroke:rgb(0%,0%,0%);stroke-opacity:1;stroke-miterlimit:4;" d="M 418.197917 268.401042 L 445.197917 251.802083 " transform="matrix(0.75,0,0,0.75,0,0)"/>
<path style="fill:none;stroke-width:2;stroke-linecap:butt;stroke-linejoin:miter;stroke:rgb(0%,0%,0%);stroke-opacity:1;stroke-miterlimit:4;" d="M 446.697917 249 L 458.098958 255.098958 " transform="matrix(0.75,0,0,0.75,0,0)"/>
<path style="fill:none;stroke-width:2;stroke-linecap:butt;stroke-linejoin:miter;stroke:rgb(100%,0%,0%);stroke-opacity:1;stroke-miterlimit:4;" d="M 458.098958 255.098958 L 469.5 261.302083 " transform="matrix(0.75,0,0,0.75,0,0)"/>
<path style="fill:none;stroke-width:2;stroke-linecap:butt;stroke-linejoin:miter;stroke:rgb(0%,0%,0%);stroke-opacity:1;stroke-miterlimit:4;" d="M 443.697917 254.598958 L 455.098958 260.697917 " transform="matrix(0.75,0,0,0.75,0,0)"/>
<path style="fill:none;stroke-width:2;stroke-linecap:butt;stroke-linejoin:miter;stroke:rgb(100%,0%,0%);stroke-opacity:1;stroke-miterlimit:4;" d="M 455.098958 260.697917 L 466.5 266.901042 " transform="matrix(0.75,0,0,0.75,0,0)"/>
<path style="fill:none;stroke-width:2;stroke-linecap:butt;stroke-linejoin:miter;stroke:rgb(0%,0%,0%);stroke-opacity:1;stroke-miterlimit:4;" d="M 445.197917 251.802083 L 444.302083 220.098958 " transform="matrix(0.75,0,0,0.75,0,0)"/>
<path style="fill:none;stroke-width:2;stroke-linecap:butt;stroke-linejoin:miter;stroke:rgb(0%,0%,0%);stroke-opacity:1;stroke-miterlimit:4;" d="M 444.302083 220.098958 L 455.5 213.098958 " transform="matrix(0.75,0,0,0.75,0,0)"/>
<path style="fill:none;stroke-width:2;stroke-linecap:butt;stroke-linejoin:miter;stroke:rgb(0%,80%,0%);stroke-opacity:1;stroke-miterlimit:4;" d="M 455.5 213.098958 L 466.802083 206.197917 " transform="matrix(0.75,0,0,0.75,0,0)"/>
<path style="fill:none;stroke-width:2;stroke-linecap:butt;stroke-linejoin:miter;stroke:rgb(0%,0%,0%);stroke-opacity:1;stroke-miterlimit:4;" d="M 444.302083 220.098958 L 416.401042 205 " transform="matrix(0.75,0,0,0.75,0,0)"/>
<path style="fill:none;stroke-width:2;stroke-linecap:butt;stroke-linejoin:miter;stroke:rgb(0%,0%,0%);stroke-opacity:1;stroke-miterlimit:4;" d="M 437.098958 223.401042 L 417.5 212.901042 " transform="matrix(0.75,0,0,0.75,0,0)"/>
<path style="fill:none;stroke-width:2;stroke-linecap:butt;stroke-linejoin:miter;stroke:rgb(0%,0%,0%);stroke-opacity:1;stroke-miterlimit:4;" d="M 279.5 224.901042 L 248.598958 217.598958 " transform="matrix(0.75,0,0,0.75,0,0)"/>
<path style="fill:none;stroke-width:2;stroke-linecap:butt;stroke-linejoin:miter;stroke:rgb(0%,0%,0%);stroke-opacity:1;stroke-miterlimit:4;" d="M 248.598958 217.598958 L 239.098958 208.5 " transform="matrix(0.75,0,0,0.75,0,0)"/>
<path style="fill:none;stroke-width:2;stroke-linecap:butt;stroke-linejoin:miter;stroke:rgb(80%,80%,0%);stroke-opacity:1;stroke-miterlimit:4;" d="M 239.098958 208.5 L 229.5 199.5 " transform="matrix(0.75,0,0,0.75,0,0)"/>
<path style="fill:none;stroke-width:2;stroke-linecap:butt;stroke-linejoin:miter;stroke:rgb(80%,80%,0%);stroke-opacity:1;stroke-miterlimit:4;" d="M 221.598958 197 L 208.401042 200.901042 " transform="matrix(0.75,0,0,0.75,0,0)"/>
<path style="fill:none;stroke-width:2;stroke-linecap:butt;stroke-linejoin:miter;stroke:rgb(0%,0%,0%);stroke-opacity:1;stroke-miterlimit:4;" d="M 208.401042 200.901042 L 195.197917 204.901042 " transform="matrix(0.75,0,0,0.75,0,0)"/>
<path style="fill:none;stroke-width:2;stroke-linecap:butt;stroke-linejoin:miter;stroke:rgb(0%,0%,0%);stroke-opacity:1;stroke-miterlimit:4;" d="M 104 232.197917 L 93.302083 224.098958 " transform="matrix(0.75,0,0,0.75,0,0)"/>
<path style="fill:none;stroke-width:2;stroke-linecap:butt;stroke-linejoin:miter;stroke:rgb(80%,80%,0%);stroke-opacity:1;stroke-miterlimit:4;" d="M 93.302083 224.098958 L 82.697917 215.901042 " transform="matrix(0.75,0,0,0.75,0,0)"/>
<path style="fill:none;stroke-width:2;stroke-linecap:butt;stroke-linejoin:miter;stroke:rgb(80%,80%,0%);stroke-opacity:1;stroke-miterlimit:4;" d="M 74.802083 215.697917 L 63.697917 223.302083 " transform="matrix(0.75,0,0,0.75,0,0)"/>
<path style="fill:none;stroke-width:2;stroke-linecap:butt;stroke-linejoin:miter;stroke:rgb(0%,0%,0%);stroke-opacity:1;stroke-miterlimit:4;" d="M 63.697917 223.302083 L 52.697917 231 " transform="matrix(0.75,0,0,0.75,0,0)"/>
<path style="fill:none;stroke-width:2;stroke-linecap:butt;stroke-linejoin:miter;stroke:rgb(0%,0%,0%);stroke-opacity:1;stroke-miterlimit:4;" d="M 195.197917 204.901042 L 187.901042 235.802083 " transform="matrix(0.75,0,0,0.75,0,0)"/>
<path style="fill:none;stroke-width:2;stroke-linecap:butt;stroke-linejoin:miter;stroke:rgb(0%,0%,0%);stroke-opacity:1;stroke-miterlimit:4;" d="M 248.598958 217.598958 L 245.598958 230.197917 " transform="matrix(0.75,0,0,0.75,0,0)"/>
<path style="fill:none;stroke-width:2;stroke-linecap:butt;stroke-linejoin:miter;stroke:rgb(0%,0%,100%);stroke-opacity:1;stroke-miterlimit:4;" d="M 245.598958 230.197917 L 242.598958 242.901042 " transform="matrix(0.75,0,0,0.75,0,0)"/>
<path style="fill:none;stroke-width:2;stroke-linecap:butt;stroke-linejoin:miter;stroke:rgb(0%,0%,0%);stroke-opacity:1;stroke-miterlimit:4;" d="M 416.401042 205 L 405.098958 212 " transform="matrix(0.75,0,0,0.75,0,0)"/>
<path style="fill:none;stroke-width:2;stroke-linecap:butt;stroke-linejoin:miter;stroke:rgb(0%,0%,100%);stroke-opacity:1;stroke-miterlimit:4;" d="M 405.098958 212 L 393.802083 218.901042 " transform="matrix(0.75,0,0,0.75,0,0)"/>
<path style="fill-rule:evenodd;fill:rgb(0%,0%,0%);fill-opacity:1;stroke-width:1;stroke-linecap:butt;stroke-linejoin:miter;stroke:rgb(0%,0%,0%);stroke-opacity:1;stroke-miterlimit:4;" d="M 248.598958 217.598958 L 257.401042 194.697917 L 262.901042 197.697917 Z M 248.598958 217.598958 " transform="matrix(0.75,0,0,0.75,0,0)"/>
<path style=" stroke:none;fill-rule:nonzero;fill:rgb(0%,0%,100%);fill-opacity:1;" d="M 44.851562 192.675781 L 47.023438 196.273438 C 47.175781 196.476562 47.375 196.800781 47.625 197.25 C 47.875 197.648438 48 197.875 48 197.925781 L 48 192.675781 L 48.898438 192.675781 L 48.898438 199.425781 L 47.925781 199.425781 L 45.601562 195.523438 C 45.398438 195.226562 45.199219 194.898438 45 194.550781 C 44.800781 194.199219 44.675781 193.976562 44.625 193.875 L 44.625 199.425781 L 43.800781 199.425781 L 43.800781 192.675781 L 44.851562 192.675781 "/>
<path style=" stroke:none;fill-rule:nonzero;fill:rgb(0%,0%,100%);fill-opacity:1;" d="M 68.625 193.199219 L 70.800781 196.800781 C 70.949219 197.050781 71.148438 197.375 71.398438 197.773438 C 71.648438 198.226562 71.773438 198.449219 71.773438 198.449219 L 71.773438 193.199219 L 72.675781 193.199219 L 72.675781 199.949219 L 71.773438 199.949219 L 69.375 196.050781 C 69.175781 195.75 68.976562 195.425781 68.773438 195.074219 C 68.625 194.726562 68.5 194.5 68.398438 194.398438 L 68.398438 199.949219 L 67.574219 199.949219 L 67.574219 193.199219 L 68.625 193.199219 "/>
<path style=" stroke:none;fill-rule:nonzero;fill:rgb(80%,80%,0%);fill-opacity:1;" d="M 98.851562 169.648438 C 98.898438 169.648438 99.050781 169.699219 99.300781 169.800781 C 99.5 169.898438 99.699219 169.976562 99.898438 170.023438 C 100.148438 170.074219 100.398438 170.101562 100.648438 170.101562 C 101.050781 170.101562 101.375 170 101.625 169.800781 C 101.875 169.601562 102 169.300781 102 168.898438 C 102 168.648438 101.949219 168.449219 101.851562 168.300781 C 101.699219 168.148438 101.523438 168.050781 101.324219 168 C 101.125 167.898438 100.875 167.800781 100.574219 167.699219 C 100.175781 167.601562 99.851562 167.476562 99.601562 167.324219 C 99.398438 167.226562 99.199219 167.050781 99 166.800781 C 98.851562 166.550781 98.773438 166.226562 98.773438 165.824219 C 98.773438 165.273438 98.976562 164.824219 99.375 164.476562 C 99.726562 164.125 100.273438 163.949219 101.023438 163.949219 C 101.574219 163.949219 102.148438 164.074219 102.75 164.324219 L 102.523438 165.074219 C 101.976562 164.824219 101.5 164.699219 101.101562 164.699219 C 100.648438 164.699219 100.300781 164.800781 100.050781 165 C 99.800781 165.199219 99.699219 165.449219 99.75 165.75 C 99.75 166 99.800781 166.199219 99.898438 166.351562 C 100.050781 166.449219 100.199219 166.550781 100.351562 166.648438 C 100.550781 166.75 100.800781 166.851562 101.101562 166.949219 C 101.5 167.050781 101.824219 167.175781 102.074219 167.324219 C 102.324219 167.425781 102.523438 167.625 102.675781 167.925781 C 102.875 168.175781 102.976562 168.5 102.976562 168.898438 C 102.976562 169.550781 102.75 170.023438 102.300781 170.324219 C 101.898438 170.675781 101.351562 170.851562 100.648438 170.851562 C 100.25 170.851562 99.898438 170.800781 99.601562 170.699219 C 99.300781 170.648438 98.976562 170.550781 98.625 170.398438 L 98.851562 169.648438 "/>
<path style=" stroke:none;fill-rule:nonzero;fill:rgb(100%,0%,0%);fill-opacity:1;" d="M 166.949219 232.648438 C 166.949219 231.550781 167.199219 230.699219 167.699219 230.101562 C 168.25 229.5 169.023438 229.199219 170.023438 229.199219 C 171.023438 229.199219 171.773438 229.5 172.273438 230.101562 C 172.824219 230.699219 173.101562 231.550781 173.101562 232.648438 C 173.101562 233.75 172.824219 234.601562 172.273438 235.199219 C 171.773438 235.851562 171.023438 236.175781 170.023438 236.175781 C 169.023438 236.175781 168.25 235.851562 167.699219 235.199219 C 167.199219 234.601562 166.949219 233.75 166.949219 232.648438 M 170.023438 235.351562 C 170.726562 235.351562 171.25 235.125 171.601562 234.675781 C 171.949219 234.226562 172.125 233.550781 172.125 232.648438 C 172.125 231.75 171.949219 231.074219 171.601562 230.625 C 171.25 230.175781 170.726562 229.949219 170.023438 229.949219 C 169.324219 229.949219 168.800781 230.175781 168.449219 230.625 C 168.050781 231.074219 167.851562 231.75 167.851562 232.648438 C 167.851562 233.550781 168.050781 234.226562 168.449219 234.675781 C 168.800781 235.125 169.324219 235.351562 170.023438 235.351562 "/>
<path style=" stroke:none;fill-rule:nonzero;fill:rgb(100%,0%,0%);fill-opacity:1;" d="M 120.75 219.824219 L 121.648438 219.824219 L 121.648438 222.675781 L 125.101562 222.675781 L 125.101562 219.824219 L 126 219.824219 L 126 226.5 L 125.101562 226.5 L 125.101562 223.425781 L 121.648438 223.425781 L 121.648438 226.5 L 120.75 226.5 L 120.75 219.824219 "/>
<path style=" stroke:none;fill-rule:nonzero;fill:rgb(100%,0%,0%);fill-opacity:1;" d="M 126.824219 223.125 C 126.824219 222.074219 127.101562 221.25 127.648438 220.648438 C 128.148438 220.050781 128.898438 219.75 129.898438 219.75 C 130.898438 219.75 131.675781 220.050781 132.226562 220.648438 C 132.726562 221.25 132.976562 222.074219 132.976562 223.125 C 132.976562 224.226562 132.726562 225.101562 132.226562 225.75 C 131.675781 226.351562 130.898438 226.648438 129.898438 226.648438 C 128.898438 226.648438 128.148438 226.351562 127.648438 225.75 C 127.101562 225.101562 126.824219 224.226562 126.824219 223.125 M 129.898438 225.898438 C 130.601562 225.898438 131.125 225.675781 131.476562 225.226562 C 131.875 224.726562 132.074219 224.023438 132.074219 223.125 C 132.074219 222.273438 131.875 221.625 131.476562 221.175781 C 131.125 220.726562 130.601562 220.5 129.898438 220.5 C 129.199219 220.5 128.675781 220.726562 128.324219 221.175781 C 127.976562 221.625 127.800781 222.273438 127.800781 223.125 C 127.800781 224.023438 127.976562 224.726562 128.324219 225.226562 C 128.675781 225.675781 129.199219 225.898438 129.898438 225.898438 "/>
<path style=" stroke:none;fill-rule:nonzero;fill:rgb(0%,0%,100%);fill-opacity:1;" d="M 179.476562 182.925781 L 181.726562 186.523438 C 181.875 186.773438 182.050781 187.101562 182.25 187.5 C 182.5 187.949219 182.625 188.175781 182.625 188.175781 L 182.625 182.925781 L 183.523438 182.925781 L 183.523438 189.675781 L 182.625 189.675781 L 180.226562 185.773438 C 180.074219 185.476562 179.898438 185.148438 179.699219 184.800781 C 179.5 184.449219 179.375 184.226562 179.324219 184.125 L 179.324219 189.675781 L 178.425781 189.675781 L 178.425781 182.925781 L 179.476562 182.925781 "/>
<path style=" stroke:none;fill-rule:nonzero;fill:rgb(100%,0%,0%);fill-opacity:1;" d="M 213.523438 212.101562 C 213.523438 211 213.800781 210.148438 214.351562 209.550781 C 214.898438 208.949219 215.675781 208.648438 216.675781 208.648438 C 217.625 208.648438 218.375 208.949219 218.925781 209.550781 C 219.476562 210.148438 219.75 211 219.75 212.101562 C 219.75 213.199219 219.476562 214.050781 218.925781 214.648438 C 218.375 215.25 217.625 215.550781 216.675781 215.550781 C 215.675781 215.550781 214.898438 215.25 214.351562 214.648438 C 213.800781 214.050781 213.523438 213.199219 213.523438 212.101562 M 216.675781 214.800781 C 217.324219 214.800781 217.851562 214.574219 218.25 214.125 C 218.601562 213.675781 218.773438 213 218.773438 212.101562 C 218.773438 211.199219 218.601562 210.523438 218.25 210.074219 C 217.851562 209.625 217.324219 209.398438 216.675781 209.398438 C 215.976562 209.398438 215.425781 209.625 215.023438 210.074219 C 214.675781 210.523438 214.5 211.199219 214.5 212.101562 C 214.5 213 214.675781 213.675781 215.023438 214.125 C 215.425781 214.574219 215.976562 214.800781 216.675781 214.800781 "/>
<path style=" stroke:none;fill-rule:nonzero;fill:rgb(0%,0%,100%);fill-opacity:1;" d="M 228.375 152.773438 L 230.625 156.375 C 230.773438 156.625 230.949219 156.949219 231.148438 157.351562 C 231.398438 157.800781 231.523438 158.023438 231.523438 158.023438 L 231.523438 152.773438 L 232.425781 152.773438 L 232.425781 159.523438 L 231.523438 159.523438 L 229.125 155.625 C 228.976562 155.324219 228.800781 155 228.601562 154.648438 C 228.398438 154.300781 228.273438 154.074219 228.226562 153.976562 L 228.226562 159.523438 L 227.324219 159.523438 L 227.324219 152.773438 L 228.375 152.773438 "/>
<path style=" stroke:none;fill-rule:nonzero;fill:rgb(0%,0%,100%);fill-opacity:1;" d="M 227.25 145.351562 L 228.148438 145.351562 L 228.148438 148.273438 L 231.601562 148.273438 L 231.601562 145.351562 L 232.5 145.351562 L 232.5 152.101562 L 231.601562 152.101562 L 231.601562 149.023438 L 228.148438 149.023438 L 228.148438 152.101562 L 227.25 152.101562 L 227.25 145.351562 "/>
<path style=" stroke:none;fill-rule:nonzero;fill:rgb(100%,0%,0%);fill-opacity:1;" d="M 248.398438 191.25 C 248.398438 190.199219 248.675781 189.375 249.226562 188.773438 C 249.773438 188.125 250.550781 187.800781 251.550781 187.800781 C 252.550781 187.800781 253.300781 188.125 253.800781 188.773438 C 254.351562 189.375 254.625 190.199219 254.625 191.25 C 254.625 192.351562 254.351562 193.199219 253.800781 193.800781 C 253.25 194.449219 252.5 194.773438 251.550781 194.773438 C 250.550781 194.773438 249.773438 194.449219 249.226562 193.800781 C 248.675781 193.199219 248.398438 192.351562 248.398438 191.25 M 251.550781 194.023438 C 252.199219 194.023438 252.726562 193.773438 253.125 193.273438 C 253.476562 192.824219 253.648438 192.148438 253.648438 191.25 C 253.648438 190.398438 253.476562 189.75 253.125 189.300781 C 252.726562 188.851562 252.199219 188.625 251.550781 188.625 C 250.851562 188.625 250.300781 188.851562 249.898438 189.300781 C 249.550781 189.699219 249.375 190.351562 249.375 191.25 C 249.375 192.148438 249.550781 192.824219 249.898438 193.273438 C 250.300781 193.773438 250.851562 194.023438 251.550781 194.023438 "/>
<path style=" stroke:none;fill-rule:nonzero;fill:rgb(0%,0%,100%);fill-opacity:1;" d="M 290.550781 162.898438 L 292.726562 166.425781 C 292.875 166.675781 293.074219 167.023438 293.324219 167.476562 C 293.574219 167.875 293.699219 168.101562 293.699219 168.148438 L 293.699219 162.898438 L 294.601562 162.898438 L 294.601562 169.648438 L 293.625 169.648438 L 291.300781 165.75 C 291.101562 165.449219 290.898438 165.125 290.699219 164.773438 C 290.5 164.425781 290.375 164.175781 290.324219 164.023438 L 290.324219 169.648438 L 289.5 169.648438 L 289.5 162.898438 L 290.550781 162.898438 "/>
<path style=" stroke:none;fill-rule:nonzero;fill:rgb(0%,80%,0%);fill-opacity:1;" d="M 311.773438 225.375 C 311.773438 224.226562 312.023438 223.375 312.523438 222.824219 C 313.074219 222.226562 313.851562 221.925781 314.851562 221.925781 C 315.75 221.925781 316.449219 222.25 316.949219 222.898438 L 316.351562 223.425781 C 315.949219 222.925781 315.449219 222.675781 314.851562 222.675781 C 314.148438 222.675781 313.625 222.898438 313.273438 223.351562 C 312.925781 223.800781 312.75 224.476562 312.75 225.375 C 312.75 226.226562 312.925781 226.898438 313.273438 227.398438 C 313.675781 227.851562 314.226562 228.074219 314.925781 228.074219 C 315.425781 228.074219 315.949219 227.925781 316.5 227.625 L 316.800781 228.300781 C 316.550781 228.449219 316.25 228.574219 315.898438 228.675781 C 315.550781 228.773438 315.175781 228.824219 314.773438 228.824219 C 313.824219 228.824219 313.074219 228.523438 312.523438 227.925781 C 312.023438 227.324219 311.773438 226.476562 311.773438 225.375 "/>
<path style=" stroke:none;fill-rule:nonzero;fill:rgb(0%,80%,0%);fill-opacity:1;" d="M 317.324219 221.476562 L 318.226562 221.476562 L 318.226562 228.75 L 317.324219 228.75 L 317.324219 221.476562 "/>
<path style=" stroke:none;fill-rule:nonzero;fill:rgb(100%,0%,0%);fill-opacity:1;" d="M 351.75 200.175781 C 351.75 199.074219 352.023438 198.226562 352.574219 197.625 C 353.125 197.023438 353.875 196.726562 354.824219 196.726562 C 355.824219 196.726562 356.601562 197.023438 357.148438 197.625 C 357.699219 198.226562 357.976562 199.074219 357.976562 200.175781 C 357.976562 201.273438 357.699219 202.125 357.148438 202.726562 C 356.601562 203.324219 355.824219 203.625 354.824219 203.625 C 353.875 203.625 353.125 203.324219 352.574219 202.726562 C 352.023438 202.125 351.75 201.273438 351.75 200.175781 M 354.824219 202.875 C 355.523438 202.875 356.074219 202.648438 356.476562 202.199219 C 356.824219 201.75 357 201.074219 357 200.175781 C 357 199.273438 356.824219 198.601562 356.476562 198.148438 C 356.074219 197.699219 355.523438 197.476562 354.824219 197.476562 C 354.175781 197.476562 353.648438 197.699219 353.25 198.148438 C 352.898438 198.601562 352.726562 199.273438 352.726562 200.175781 C 352.726562 201.074219 352.898438 201.75 353.25 202.199219 C 353.648438 202.648438 354.175781 202.875 354.824219 202.875 "/>
<path style=" stroke:none;fill-rule:nonzero;fill:rgb(0%,80%,0%);fill-opacity:1;" d="M 350.851562 152.773438 C 350.851562 151.675781 351.125 150.824219 351.675781 150.226562 C 352.175781 149.675781 352.925781 149.398438 353.925781 149.398438 C 354.875 149.398438 355.601562 149.726562 356.101562 150.375 L 355.425781 150.824219 C 355.074219 150.375 354.574219 150.148438 353.925781 150.148438 C 353.273438 150.148438 352.75 150.375 352.351562 150.824219 C 352 151.273438 351.824219 151.925781 351.824219 152.773438 C 351.824219 153.675781 352.023438 154.351562 352.425781 154.800781 C 352.773438 155.25 353.324219 155.476562 354.074219 155.476562 C 354.574219 155.476562 355.101562 155.324219 355.648438 155.023438 L 355.949219 155.773438 C 355.699219 155.925781 355.398438 156.050781 355.050781 156.148438 C 354.699219 156.25 354.324219 156.300781 353.925781 156.300781 C 352.925781 156.300781 352.175781 156 351.675781 155.398438 C 351.125 154.800781 350.851562 153.925781 350.851562 152.773438 "/>
<path style=" stroke:none;fill-rule:nonzero;fill:rgb(0%,80%,0%);fill-opacity:1;" d="M 356.476562 148.949219 L 357.300781 148.949219 L 357.300781 156.148438 L 356.476562 156.148438 L 356.476562 148.949219 "/>
<path style=" stroke:none;fill-rule:nonzero;fill:rgb(80%,80%,0%);fill-opacity:1;" d="M 167.25 149.175781 C 167.300781 149.175781 167.425781 149.226562 167.625 149.324219 C 167.875 149.425781 168.101562 149.5 168.300781 149.550781 C 168.550781 149.601562 168.773438 149.625 168.976562 149.625 C 169.425781 149.625 169.773438 149.523438 170.023438 149.324219 C 170.273438 149.125 170.398438 148.824219 170.398438 148.425781 C 170.398438 148.175781 170.324219 147.976562 170.175781 147.824219 C 170.074219 147.675781 169.925781 147.574219 169.726562 147.523438 C 169.523438 147.425781 169.273438 147.324219 168.976562 147.226562 C 168.574219 147.125 168.25 147 168 146.851562 C 167.75 146.75 167.550781 146.574219 167.398438 146.324219 C 167.25 146.074219 167.175781 145.75 167.175781 145.351562 C 167.175781 144.800781 167.351562 144.351562 167.699219 144 C 168.101562 143.648438 168.675781 143.476562 169.425781 143.476562 C 169.976562 143.476562 170.550781 143.601562 171.148438 143.851562 L 170.925781 144.601562 C 170.375 144.351562 169.898438 144.226562 169.5 144.226562 C 169.050781 144.226562 168.699219 144.324219 168.449219 144.523438 C 168.199219 144.726562 168.074219 144.976562 168.074219 145.273438 C 168.074219 145.523438 168.148438 145.726562 168.300781 145.875 C 168.398438 145.976562 168.550781 146.074219 168.75 146.175781 C 168.949219 146.273438 169.199219 146.375 169.5 146.476562 C 169.898438 146.574219 170.226562 146.699219 170.476562 146.851562 C 170.675781 146.949219 170.875 147.125 171.074219 147.375 C 171.226562 147.675781 171.300781 148.023438 171.300781 148.425781 C 171.300781 149.074219 171.101562 149.550781 170.699219 149.851562 C 170.300781 150.199219 169.75 150.375 169.050781 150.375 C 168.648438 150.375 168.300781 150.324219 168 150.226562 C 167.699219 150.175781 167.375 150.074219 167.023438 149.925781 L 167.25 149.175781 "/>
<path style=" stroke:none;fill-rule:nonzero;fill:rgb(80%,80%,0%);fill-opacity:1;" d="M 57.148438 162 C 57.199219 162.050781 57.324219 162.101562 57.523438 162.148438 C 57.773438 162.25 58 162.324219 58.199219 162.375 C 58.449219 162.425781 58.675781 162.449219 58.875 162.449219 C 59.324219 162.449219 59.675781 162.351562 59.925781 162.148438 C 60.175781 161.949219 60.300781 161.675781 60.300781 161.324219 C 60.300781 161.074219 60.226562 160.875 60.074219 160.726562 C 59.976562 160.574219 59.824219 160.449219 59.625 160.351562 C 59.425781 160.300781 59.175781 160.226562 58.875 160.125 C 58.476562 159.976562 58.148438 159.851562 57.898438 159.75 C 57.648438 159.648438 57.449219 159.476562 57.300781 159.226562 C 57.148438 158.976562 57.074219 158.648438 57.074219 158.25 C 57.074219 157.699219 57.25 157.25 57.601562 156.898438 C 58 156.550781 58.574219 156.375 59.324219 156.375 C 59.875 156.375 60.425781 156.5 60.976562 156.75 L 60.824219 157.425781 C 60.273438 157.226562 59.800781 157.125 59.398438 157.125 C 58.949219 157.125 58.601562 157.226562 58.351562 157.425781 C 58.101562 157.574219 57.976562 157.800781 57.976562 158.101562 C 57.976562 158.351562 58.050781 158.550781 58.199219 158.699219 C 58.300781 158.851562 58.449219 158.976562 58.648438 159.074219 C 58.851562 159.125 59.101562 159.199219 59.398438 159.300781 C 59.800781 159.449219 60.125 159.574219 60.375 159.675781 C 60.574219 159.824219 60.773438 160.023438 60.976562 160.273438 C 61.125 160.523438 61.199219 160.875 61.199219 161.324219 C 61.199219 161.925781 61 162.398438 60.601562 162.75 C 60.199219 163.101562 59.648438 163.273438 58.949219 163.273438 C 58.550781 163.273438 58.199219 163.226562 57.898438 163.125 C 57.601562 163.023438 57.273438 162.898438 56.925781 162.75 L 57.148438 162 "/>
<path style=" stroke:none;fill-rule:nonzero;fill:rgb(0%,0%,0%);fill-opacity:1;" d="M 195.148438 138.824219 L 196.050781 138.824219 L 196.050781 141.75 L 199.5 141.75 L 199.5 138.824219 L 200.398438 138.824219 L 200.398438 145.574219 L 199.5 145.574219 L 199.5 142.5 L 196.050781 142.5 L 196.050781 145.574219 L 195.148438 145.574219 L 195.148438 138.824219 "/>
</g>
</svg>
