<?xml version="1.0" encoding="UTF-8"?>
<svg xmlns="http://www.w3.org/2000/svg" xmlns:xlink="http://www.w3.org/1999/xlink" width="375pt" height="375pt" viewBox="0 0 375 375" version="1.1">
<g id="surface16">
<rect x="0" y="0" width="375" height="375" style="fill:rgb(100%,100%,100%);fill-opacity:1;stroke:none;"/>
<path style="fill-rule:evenodd;fill:rgb(0%,0%,0%);fill-opacity:1;stroke-width:0.5;stroke-linecap:butt;stroke-linejoin:miter;stroke:rgb(0%,0%,0%);stroke-opacity:1;stroke-miterlimit:4;" d="M 435.697917 307.5 L 461 313.401042 L 459.802083 317.098958 Z M 435.697917 307.5 " transform="matrix(0.75,0,0,0.75,0,0)"/>
<path style="fill:none;stroke-width:2;stroke-linecap:butt;stroke-linejoin:miter;stroke:rgb(0%,0%,0%);stroke-opacity:1;stroke-miterlimit:4;" d="M 435.697917 307.5 L 425.697917 331.5 " transform="matrix(0.75,0,0,0.75,0,0)"/>
<path style="fill:none;stroke-width:2;stroke-linecap:butt;stroke-linejoin:miter;stroke:rgb(0%,0%,0%);stroke-opacity:1;stroke-miterlimit:4;" d="M 425.697917 331.5 L 411.802083 353.401042 " transform="matrix(0.75,0,0,0.75,0,0)"/>
<path style="fill:none;stroke-width:2;stroke-linecap:butt;stroke-linejoin:miter;stroke:rgb(0%,0%,0%);stroke-opacity:1;stroke-miterlimit:4;" d="M 422.302083 329.697917 L 408.5 351.302083 " transform="matrix(0.75,0,0,0.75,0,0)"/>
<path style="fill:none;stroke-width:2;stroke-linecap:butt;stroke-linejoin:miter;stroke:rgb(0%,0%,0%);stroke-opacity:1;stroke-miterlimit:4;" d="M 411.802083 353.401042 L 394.302083 372.598958 " transform="matrix(0.75,0,0,0.75,0,0)"/>
<path style="fill:none;stroke-width:2;stroke-linecap:butt;stroke-linejoin:miter;stroke:rgb(0%,0%,0%);stroke-opacity:1;stroke-miterlimit:4;" d="M 394.302083 372.598958 L 373.697917 388.401042 " transform="matrix(0.75,0,0,0.75,0,0)"/>
<path style="fill:none;stroke-width:2;stroke-linecap:butt;stroke-linejoin:miter;stroke:rgb(0%,0%,0%);stroke-opacity:1;stroke-miterlimit:4;" d="M 391.697917 369.697917 L 371.302083 385.302083 " transform="matrix(0.75,0,0,0.75,0,0)"/>
<path style="fill:none;stroke-width:2;stroke-linecap:butt;stroke-linejoin:miter;stroke:rgb(0%,0%,0%);stroke-opacity:1;stroke-miterlimit:4;" d="M 373.697917 388.401042 L 350.697917 400.401042 " transform="matrix(0.75,0,0,0.75,0,0)"/>
<path style="fill:none;stroke-width:2;stroke-linecap:butt;stroke-linejoin:miter;stroke:rgb(0%,0%,0%);stroke-opacity:1;stroke-miterlimit:4;" d="M 350.697917 400.401042 L 325.901042 408.197917 " transform="matrix(0.75,0,0,0.75,0,0)"/>
<path style="fill:none;stroke-width:2;stroke-linecap:butt;stroke-linejoin:miter;stroke:rgb(0%,0%,0%);stroke-opacity:1;stroke-miterlimit:4;" d="M 349.197917 396.802083 L 324.697917 404.5 " transform="matrix(0.75,0,0,0.75,0,0)"/>
<path style="fill:none;stroke-width:2;stroke-linecap:butt;stroke-linejoin:miter;stroke:rgb(0%,0%,0%);stroke-opacity:1;stroke-miterlimit:4;" d="M 325.901042 408.197917 L 300.197917 411.697917 " transform="matrix(0.75,0,0,0.75,0,0)"/>
<path style="fill:none;stroke-width:2;stroke-linecap:butt;stroke-linejoin:miter;stroke:rgb(0%,0%,0%);stroke-opacity:1;stroke-miterlimit:4;" d="M 300.197917 411.697917 L 274.197917 410.598958 " transform="matrix(0.75,0,0,0.75,0,0)"/>
<path style="fill:none;stroke-width:2;stroke-linecap:butt;stroke-linejoin:miter;stroke:rgb(0%,0%,0%);stroke-opacity:1;stroke-miterlimit:4;" d="M 300 407.802083 L 274.401042 406.697917 " transform="matrix(0.75,0,0,0.75,0,0)"/>
<path style="fill:none;stroke-width:2;stroke-linecap:butt;stroke-linejoin:miter;stroke:rgb(0%,0%,0%);stroke-opacity:1;stroke-miterlimit:4;" d="M 274.197917 410.598958 L 248.901042 405 " transform="matrix(0.75,0,0,0.75,0,0)"/>
<path style="fill:none;stroke-width:2;stroke-linecap:butt;stroke-linejoin:miter;stroke:rgb(0%,0%,0%);stroke-opacity:1;stroke-miterlimit:4;" d="M 248.901042 405 L 224.901042 395.098958 " transform="matrix(0.75,0,0,0.75,0,0)"/>
<path style="fill:none;stroke-width:2;stroke-linecap:butt;stroke-linejoin:miter;stroke:rgb(0%,0%,0%);stroke-opacity:1;stroke-miterlimit:4;" d="M 250 401.197917 L 226.401042 391.5 " transform="matrix(0.75,0,0,0.75,0,0)"/>
<path style="fill:none;stroke-width:2;stroke-linecap:butt;stroke-linejoin:miter;stroke:rgb(0%,0%,0%);stroke-opacity:1;stroke-miterlimit:4;" d="M 224.901042 395.098958 L 203 381.098958 " transform="matrix(0.75,0,0,0.75,0,0)"/>
<path style="fill:none;stroke-width:2;stroke-linecap:butt;stroke-linejoin:miter;stroke:rgb(0%,0%,0%);stroke-opacity:1;stroke-miterlimit:4;" d="M 203 381.098958 L 183.802083 363.598958 " transform="matrix(0.75,0,0,0.75,0,0)"/>
<path style="fill:none;stroke-width:2;stroke-linecap:butt;stroke-linejoin:miter;stroke:rgb(0%,0%,0%);stroke-opacity:1;stroke-miterlimit:4;" d="M 205.302083 378 L 186.401042 360.697917 " transform="matrix(0.75,0,0,0.75,0,0)"/>
<path style="fill:none;stroke-width:2;stroke-linecap:butt;stroke-linejoin:miter;stroke:rgb(0%,0%,0%);stroke-opacity:1;stroke-miterlimit:4;" d="M 183.802083 363.598958 L 168 343 " transform="matrix(0.75,0,0,0.75,0,0)"/>
<path style="fill:none;stroke-width:2;stroke-linecap:butt;stroke-linejoin:miter;stroke:rgb(0%,0%,0%);stroke-opacity:1;stroke-miterlimit:4;" d="M 168 343 L 155.901042 320 " transform="matrix(0.75,0,0,0.75,0,0)"/>
<path style="fill:none;stroke-width:2;stroke-linecap:butt;stroke-linejoin:miter;stroke:rgb(0%,0%,0%);stroke-opacity:1;stroke-miterlimit:4;" d="M 171.197917 340.901042 L 159.401042 318.197917 " transform="matrix(0.75,0,0,0.75,0,0)"/>
<path style="fill:none;stroke-width:2;stroke-linecap:butt;stroke-linejoin:miter;stroke:rgb(0%,0%,0%);stroke-opacity:1;stroke-miterlimit:4;" d="M 155.901042 320 L 148.098958 295.197917 " transform="matrix(0.75,0,0,0.75,0,0)"/>
<path style="fill-rule:evenodd;fill:rgb(0%,0%,0%);fill-opacity:1;stroke-width:0.5;stroke-linecap:butt;stroke-linejoin:miter;stroke:rgb(0%,0%,0%);stroke-opacity:1;stroke-miterlimit:4;" d="M 148.098958 295.197917 L 138.197917 298.401042 L 137.802083 296.5 Z M 148.098958 295.197917 " transform="matrix(0.75,0,0,0.75,0,0)"/>
<path style="fill-rule:evenodd;fill:rgb(100%,0%,0%);fill-opacity:1;stroke-width:0.5;stroke-linecap:butt;stroke-linejoin:miter;stroke:rgb(100%,0%,0%);stroke-opacity:1;stroke-miterlimit:4;" d="M 138.197917 298.401042 L 127.401042 297.901042 L 128.302083 301.598958 Z M 138.197917 298.401042 " transform="matrix(0.75,0,0,0.75,0,0)"/>
<path style="fill-rule:evenodd;fill:rgb(100%,0%,0%);fill-opacity:1;stroke-width:0.5;stroke-linecap:butt;stroke-linejoin:miter;stroke:rgb(100%,0%,0%);stroke-opacity:1;stroke-miterlimit:4;" d="M 138.197917 298.401042 L 137.802083 296.5 L 127.401042 297.901042 Z M 138.197917 298.401042 " transform="matrix(0.75,0,0,0.75,0,0)"/>
<path style="fill-rule:evenodd;fill:rgb(0%,0%,0%);fill-opacity:1;stroke-width:0.5;stroke-linecap:butt;stroke-linejoin:miter;stroke:rgb(0%,0%,0%);stroke-opacity:1;stroke-miterlimit:4;" d="M 105.197917 281.802083 L 112.197917 287.901042 L 110.802083 289.302083 Z M 105.197917 281.802083 " transform="matrix(0.75,0,0,0.75,0,0)"/>
<path style="fill-rule:evenodd;fill:rgb(100%,0%,0%);fill-opacity:1;stroke-width:0.5;stroke-linecap:butt;stroke-linejoin:miter;stroke:rgb(100%,0%,0%);stroke-opacity:1;stroke-miterlimit:4;" d="M 112.197917 287.901042 L 116.302083 296.802083 L 119.197917 294.098958 Z M 112.197917 287.901042 " transform="matrix(0.75,0,0,0.75,0,0)"/>
<path style="fill-rule:evenodd;fill:rgb(100%,0%,0%);fill-opacity:1;stroke-width:0.5;stroke-linecap:butt;stroke-linejoin:miter;stroke:rgb(100%,0%,0%);stroke-opacity:1;stroke-miterlimit:4;" d="M 112.197917 287.901042 L 110.802083 289.302083 L 116.302083 296.802083 Z M 112.197917 287.901042 " transform="matrix(0.75,0,0,0.75,0,0)"/>
<path style="fill:none;stroke-width:2;stroke-linecap:butt;stroke-linejoin:miter;stroke:rgb(0%,0%,0%);stroke-opacity:1;stroke-miterlimit:4;" d="M 105.197917 281.802083 L 108.302083 271.697917 " transform="matrix(0.75,0,0,0.75,0,0)"/>
<path style="fill:none;stroke-width:2;stroke-linecap:butt;stroke-linejoin:miter;stroke:rgb(100%,0%,0%);stroke-opacity:1;stroke-miterlimit:4;" d="M 108.302083 271.697917 L 111.5 261.697917 " transform="matrix(0.75,0,0,0.75,0,0)"/>
<path style="fill:none;stroke-width:2;stroke-linecap:butt;stroke-linejoin:miter;stroke:rgb(100%,0%,0%);stroke-opacity:1;stroke-miterlimit:4;" d="M 108.802083 252.401042 L 102.098958 245.098958 " transform="matrix(0.75,0,0,0.75,0,0)"/>
<path style="fill:none;stroke-width:2;stroke-linecap:butt;stroke-linejoin:miter;stroke:rgb(0%,0%,0%);stroke-opacity:1;stroke-miterlimit:4;" d="M 102.098958 245.098958 L 95.401042 237.901042 " transform="matrix(0.75,0,0,0.75,0,0)"/>
<path style="fill-rule:evenodd;fill:rgb(0%,0%,0%);fill-opacity:1;stroke-width:0.5;stroke-linecap:butt;stroke-linejoin:miter;stroke:rgb(0%,0%,0%);stroke-opacity:1;stroke-miterlimit:4;" d="M 95.401042 237.901042 L 101.302083 212.5 L 105 213.697917 Z M 95.401042 237.901042 " transform="matrix(0.75,0,0,0.75,0,0)"/>
<path style="fill:none;stroke-width:2;stroke-linecap:butt;stroke-linejoin:miter;stroke:rgb(0%,0%,0%);stroke-opacity:1;stroke-miterlimit:4;" d="M 95.401042 237.901042 L 70.098958 243.5 " transform="matrix(0.75,0,0,0.75,0,0)"/>
<path style="fill:none;stroke-width:1;stroke-linecap:butt;stroke-linejoin:miter;stroke:rgb(0%,0%,0%);stroke-opacity:1;stroke-miterlimit:4;" d="M 67.302083 241 L 67.802083 240.5 " transform="matrix(0.75,0,0,0.75,0,0)"/>
<path style="fill:none;stroke-width:1;stroke-linecap:butt;stroke-linejoin:miter;stroke:rgb(0%,0%,0%);stroke-opacity:1;stroke-miterlimit:4;" d="M 64.5 238.598958 L 65.598958 237.5 " transform="matrix(0.75,0,0,0.75,0,0)"/>
<path style="fill:none;stroke-width:1;stroke-linecap:butt;stroke-linejoin:miter;stroke:rgb(100%,0%,0%);stroke-opacity:1;stroke-miterlimit:4;" d="M 61.697917 236.098958 L 63.401042 234.598958 " transform="matrix(0.75,0,0,0.75,0,0)"/>
<path style="fill:none;stroke-width:1;stroke-linecap:butt;stroke-linejoin:miter;stroke:rgb(100%,0%,0%);stroke-opacity:1;stroke-miterlimit:4;" d="M 58.901042 233.697917 L 61.197917 231.598958 " transform="matrix(0.75,0,0,0.75,0,0)"/>
<path style="fill:none;stroke-width:1;stroke-linecap:butt;stroke-linejoin:miter;stroke:rgb(100%,0%,0%);stroke-opacity:1;stroke-miterlimit:4;" d="M 56.098958 231.197917 L 59 228.598958 " transform="matrix(0.75,0,0,0.75,0,0)"/>
<path style="fill:none;stroke-width:2;stroke-linecap:butt;stroke-linejoin:miter;stroke:rgb(0%,0%,0%);stroke-opacity:1;stroke-miterlimit:4;" d="M 70.098958 243.5 L 62.302083 268.302083 " transform="matrix(0.75,0,0,0.75,0,0)"/>
<path style="fill-rule:evenodd;fill:rgb(0%,0%,0%);fill-opacity:1;stroke-width:0.5;stroke-linecap:butt;stroke-linejoin:miter;stroke:rgb(0%,0%,0%);stroke-opacity:1;stroke-miterlimit:4;" d="M 62.302083 268.302083 L 52.098958 271.5 L 51.598958 269.697917 Z M 62.302083 268.302083 " transform="matrix(0.75,0,0,0.75,0,0)"/>
<path style="fill-rule:evenodd;fill:rgb(0%,0%,100%);fill-opacity:1;stroke-width:0.5;stroke-linecap:butt;stroke-linejoin:miter;stroke:rgb(0%,0%,100%);stroke-opacity:1;stroke-miterlimit:4;" d="M 52.098958 271.5 L 41 271 L 41.802083 274.802083 Z M 52.098958 271.5 " transform="matrix(0.75,0,0,0.75,0,0)"/>
<path style="fill-rule:evenodd;fill:rgb(0%,0%,100%);fill-opacity:1;stroke-width:0.5;stroke-linecap:butt;stroke-linejoin:miter;stroke:rgb(0%,0%,100%);stroke-opacity:1;stroke-miterlimit:4;" d="M 52.098958 271.5 L 51.598958 269.697917 L 41 271 Z M 52.098958 271.5 " transform="matrix(0.75,0,0,0.75,0,0)"/>
<path style="fill:none;stroke-width:2;stroke-linecap:butt;stroke-linejoin:miter;stroke:rgb(0%,0%,0%);stroke-opacity:1;stroke-miterlimit:4;" d="M 62.302083 268.302083 L 79.802083 287.401042 " transform="matrix(0.75,0,0,0.75,0,0)"/>
<path style="fill-rule:evenodd;fill:rgb(0%,0%,0%);fill-opacity:1;stroke-width:0.5;stroke-linecap:butt;stroke-linejoin:miter;stroke:rgb(0%,0%,0%);stroke-opacity:1;stroke-miterlimit:4;" d="M 79.802083 287.401042 L 77.697917 297.401042 L 75.901042 296.802083 Z M 79.802083 287.401042 " transform="matrix(0.75,0,0,0.75,0,0)"/>
<path style="fill-rule:evenodd;fill:rgb(100%,0%,0%);fill-opacity:1;stroke-width:0.5;stroke-linecap:butt;stroke-linejoin:miter;stroke:rgb(100%,0%,0%);stroke-opacity:1;stroke-miterlimit:4;" d="M 77.697917 297.401042 L 71.901042 306.197917 L 75.598958 307.302083 Z M 77.697917 297.401042 " transform="matrix(0.75,0,0,0.75,0,0)"/>
<path style="fill-rule:evenodd;fill:rgb(100%,0%,0%);fill-opacity:1;stroke-width:0.5;stroke-linecap:butt;stroke-linejoin:miter;stroke:rgb(100%,0%,0%);stroke-opacity:1;stroke-miterlimit:4;" d="M 77.697917 297.401042 L 75.901042 296.802083 L 71.901042 306.197917 Z M 77.697917 297.401042 " transform="matrix(0.75,0,0,0.75,0,0)"/>
<path style="fill:none;stroke-width:2;stroke-linecap:butt;stroke-linejoin:miter;stroke:rgb(0%,0%,0%);stroke-opacity:1;stroke-miterlimit:4;" d="M 148.098958 295.197917 L 145.302083 274.197917 " transform="matrix(0.75,0,0,0.75,0,0)"/>
<path style="fill:none;stroke-width:2;stroke-linecap:butt;stroke-linejoin:miter;stroke:rgb(0%,0%,0%);stroke-opacity:1;stroke-miterlimit:4;" d="M 145.098958 264.901042 L 147.802083 237.098958 " transform="matrix(0.75,0,0,0.75,0,0)"/>
<path style="fill:none;stroke-width:2;stroke-linecap:butt;stroke-linejoin:miter;stroke:rgb(0%,0%,0%);stroke-opacity:1;stroke-miterlimit:4;" d="M 147.802083 237.098958 L 155.302083 230.302083 " transform="matrix(0.75,0,0,0.75,0,0)"/>
<path style="fill:none;stroke-width:2;stroke-linecap:butt;stroke-linejoin:miter;stroke:rgb(100%,0%,0%);stroke-opacity:1;stroke-miterlimit:4;" d="M 155.302083 230.302083 L 162.697917 223.401042 " transform="matrix(0.75,0,0,0.75,0,0)"/>
<path style="fill:none;stroke-width:2;stroke-linecap:butt;stroke-linejoin:miter;stroke:rgb(100%,0%,0%);stroke-opacity:1;stroke-miterlimit:4;" d="M 165.901042 215 L 163.598958 204.598958 " transform="matrix(0.75,0,0,0.75,0,0)"/>
<path style="fill:none;stroke-width:2;stroke-linecap:butt;stroke-linejoin:miter;stroke:rgb(0%,0%,0%);stroke-opacity:1;stroke-miterlimit:4;" d="M 163.598958 204.598958 L 161.302083 194.197917 " transform="matrix(0.75,0,0,0.75,0,0)"/>
<path style="fill:none;stroke-width:1;stroke-linecap:butt;stroke-linejoin:miter;stroke:rgb(0%,0%,0%);stroke-opacity:1;stroke-miterlimit:4;" d="M 163.802083 192.098958 L 164.401042 193.197917 " transform="matrix(0.75,0,0,0.75,0,0)"/>
<path style="fill:none;stroke-width:1;stroke-linecap:butt;stroke-linejoin:miter;stroke:rgb(100%,0%,0%);stroke-opacity:1;stroke-miterlimit:4;" d="M 166.302083 190 L 167.5 192.302083 " transform="matrix(0.75,0,0,0.75,0,0)"/>
<path style="fill:none;stroke-width:1;stroke-linecap:butt;stroke-linejoin:miter;stroke:rgb(100%,0%,0%);stroke-opacity:1;stroke-miterlimit:4;" d="M 168.697917 187.901042 L 170.598958 191.302083 " transform="matrix(0.75,0,0,0.75,0,0)"/>
<path style="fill:none;stroke-width:2;stroke-linecap:butt;stroke-linejoin:miter;stroke:rgb(0%,0%,0%);stroke-opacity:1;stroke-miterlimit:4;" d="M 161.302083 194.197917 L 172.302083 176.901042 " transform="matrix(0.75,0,0,0.75,0,0)"/>
<path style="fill:none;stroke-width:2;stroke-linecap:butt;stroke-linejoin:miter;stroke:rgb(0%,0%,0%);stroke-opacity:1;stroke-miterlimit:4;" d="M 178.901042 168.197917 L 192.697917 153.098958 " transform="matrix(0.75,0,0,0.75,0,0)"/>
<path style="fill-rule:evenodd;fill:rgb(0%,0%,0%);fill-opacity:1;stroke-width:0.5;stroke-linecap:butt;stroke-linejoin:miter;stroke:rgb(0%,0%,0%);stroke-opacity:1;stroke-miterlimit:4;" d="M 192.697917 153.098958 L 185.802083 147 L 187.197917 145.598958 Z M 192.697917 153.098958 " transform="matrix(0.75,0,0,0.75,0,0)"/>
<path style="fill-rule:evenodd;fill:rgb(100%,0%,0%);fill-opacity:1;stroke-width:0.5;stroke-linecap:butt;stroke-linejoin:miter;stroke:rgb(100%,0%,0%);stroke-opacity:1;stroke-miterlimit:4;" d="M 185.802083 147 L 181.697917 138.197917 L 178.802083 140.802083 Z M 185.802083 147 " transform="matrix(0.75,0,0,0.75,0,0)"/>
<path style="fill-rule:evenodd;fill:rgb(100%,0%,0%);fill-opacity:1;stroke-width:0.5;stroke-linecap:butt;stroke-linejoin:miter;stroke:rgb(100%,0%,0%);stroke-opacity:1;stroke-miterlimit:4;" d="M 185.802083 147 L 187.197917 145.598958 L 181.697917 138.197917 Z M 185.802083 147 " transform="matrix(0.75,0,0,0.75,0,0)"/>
<path style="fill:none;stroke-width:2;stroke-linecap:butt;stroke-linejoin:miter;stroke:rgb(0%,0%,0%);stroke-opacity:1;stroke-miterlimit:4;" d="M 192.697917 153.098958 L 209.598958 140.098958 " transform="matrix(0.75,0,0,0.75,0,0)"/>
<path style="fill:none;stroke-width:2;stroke-linecap:butt;stroke-linejoin:miter;stroke:rgb(0%,0%,0%);stroke-opacity:1;stroke-miterlimit:4;" d="M 217 135.302083 L 236.302083 125.197917 " transform="matrix(0.75,0,0,0.75,0,0)"/>
<path style="fill-rule:evenodd;fill:rgb(0%,0%,0%);fill-opacity:1;stroke-width:0.5;stroke-linecap:butt;stroke-linejoin:miter;stroke:rgb(0%,0%,0%);stroke-opacity:1;stroke-miterlimit:4;" d="M 236.302083 125.197917 L 231.598958 116.401042 L 233.401042 115.697917 Z M 236.302083 125.197917 " transform="matrix(0.75,0,0,0.75,0,0)"/>
<path style="fill-rule:evenodd;fill:rgb(100%,0%,0%);fill-opacity:1;stroke-width:0.5;stroke-linecap:butt;stroke-linejoin:miter;stroke:rgb(100%,0%,0%);stroke-opacity:1;stroke-miterlimit:4;" d="M 231.598958 116.401042 L 230.5 106.098958 L 226.901042 107.598958 Z M 231.598958 116.401042 " transform="matrix(0.75,0,0,0.75,0,0)"/>
<path style="fill-rule:evenodd;fill:rgb(100%,0%,0%);fill-opacity:1;stroke-width:0.5;stroke-linecap:butt;stroke-linejoin:miter;stroke:rgb(100%,0%,0%);stroke-opacity:1;stroke-miterlimit:4;" d="M 231.598958 116.401042 L 233.401042 115.697917 L 230.5 106.098958 Z M 231.598958 116.401042 " transform="matrix(0.75,0,0,0.75,0,0)"/>
<path style="fill:none;stroke-width:2;stroke-linecap:butt;stroke-linejoin:miter;stroke:rgb(0%,0%,0%);stroke-opacity:1;stroke-miterlimit:4;" d="M 236.302083 125.197917 L 261.098958 117.401042 " transform="matrix(0.75,0,0,0.75,0,0)"/>
<path style="fill:none;stroke-width:1;stroke-linecap:butt;stroke-linejoin:miter;stroke:rgb(0%,0%,0%);stroke-opacity:1;stroke-miterlimit:4;" d="M 260.098958 114.197917 L 260.697917 114 " transform="matrix(0.75,0,0,0.75,0,0)"/>
<path style="fill:none;stroke-width:1;stroke-linecap:butt;stroke-linejoin:miter;stroke:rgb(0%,0%,0%);stroke-opacity:1;stroke-miterlimit:4;" d="M 259 110.901042 L 260.302083 110.697917 " transform="matrix(0.75,0,0,0.75,0,0)"/>
<path style="fill:none;stroke-width:1;stroke-linecap:butt;stroke-linejoin:miter;stroke:rgb(0%,0%,0%);stroke-opacity:1;stroke-miterlimit:4;" d="M 258 107.697917 L 259.802083 107.302083 " transform="matrix(0.75,0,0,0.75,0,0)"/>
<path style="fill:none;stroke-width:1;stroke-linecap:butt;stroke-linejoin:miter;stroke:rgb(100%,0%,0%);stroke-opacity:1;stroke-miterlimit:4;" d="M 256.901042 104.5 L 259.401042 103.901042 " transform="matrix(0.75,0,0,0.75,0,0)"/>
<path style="fill:none;stroke-width:1;stroke-linecap:butt;stroke-linejoin:miter;stroke:rgb(100%,0%,0%);stroke-opacity:1;stroke-miterlimit:4;" d="M 255.802083 101.302083 L 259 100.598958 " transform="matrix(0.75,0,0,0.75,0,0)"/>
<path style="fill:none;stroke-width:1;stroke-linecap:butt;stroke-linejoin:miter;stroke:rgb(100%,0%,0%);stroke-opacity:1;stroke-miterlimit:4;" d="M 254.802083 98 L 258.598958 97.197917 " transform="matrix(0.75,0,0,0.75,0,0)"/>
<path style="fill:none;stroke-width:2;stroke-linecap:butt;stroke-linejoin:miter;stroke:rgb(0%,0%,0%);stroke-opacity:1;stroke-miterlimit:4;" d="M 261.098958 117.401042 L 283.197917 114.5 " transform="matrix(0.75,0,0,0.75,0,0)"/>
<path style="fill:none;stroke-width:2;stroke-linecap:butt;stroke-linejoin:miter;stroke:rgb(0%,0%,0%);stroke-opacity:1;stroke-miterlimit:4;" d="M 290.5 114.098958 L 309.098958 114.901042 " transform="matrix(0.75,0,0,0.75,0,0)"/>
<path style="fill:none;stroke-width:2;stroke-linecap:butt;stroke-linejoin:miter;stroke:rgb(0%,0%,0%);stroke-opacity:1;stroke-miterlimit:4;" d="M 316.5 115.901042 L 338.197917 120.697917 " transform="matrix(0.75,0,0,0.75,0,0)"/>
<path style="fill-rule:evenodd;fill:rgb(0%,0%,0%);fill-opacity:1;stroke-width:0.5;stroke-linecap:butt;stroke-linejoin:miter;stroke:rgb(0%,0%,0%);stroke-opacity:1;stroke-miterlimit:4;" d="M 338.197917 120.697917 L 340.197917 110.802083 L 342.098958 111.401042 Z M 338.197917 120.697917 " transform="matrix(0.75,0,0,0.75,0,0)"/>
<path style="fill-rule:evenodd;fill:rgb(100%,0%,0%);fill-opacity:1;stroke-width:0.5;stroke-linecap:butt;stroke-linejoin:miter;stroke:rgb(100%,0%,0%);stroke-opacity:1;stroke-miterlimit:4;" d="M 340.197917 110.802083 L 346.098958 102 L 342.302083 100.901042 Z M 340.197917 110.802083 " transform="matrix(0.75,0,0,0.75,0,0)"/>
<path style="fill-rule:evenodd;fill:rgb(100%,0%,0%);fill-opacity:1;stroke-width:0.5;stroke-linecap:butt;stroke-linejoin:miter;stroke:rgb(100%,0%,0%);stroke-opacity:1;stroke-miterlimit:4;" d="M 340.197917 110.802083 L 342.098958 111.401042 L 346.098958 102 Z M 340.197917 110.802083 " transform="matrix(0.75,0,0,0.75,0,0)"/>
<path style="fill:none;stroke-width:2;stroke-linecap:butt;stroke-linejoin:miter;stroke:rgb(0%,0%,0%);stroke-opacity:1;stroke-miterlimit:4;" d="M 338.197917 120.697917 L 358.5 129.098958 " transform="matrix(0.75,0,0,0.75,0,0)"/>
<path style="fill:none;stroke-width:2;stroke-linecap:butt;stroke-linejoin:miter;stroke:rgb(0%,0%,0%);stroke-opacity:1;stroke-miterlimit:4;" d="M 365.901042 132.901042 L 384.098958 144.5 " transform="matrix(0.75,0,0,0.75,0,0)"/>
<path style="fill-rule:evenodd;fill:rgb(0%,0%,0%);fill-opacity:1;stroke-width:0.5;stroke-linecap:butt;stroke-linejoin:miter;stroke:rgb(0%,0%,0%);stroke-opacity:1;stroke-miterlimit:4;" d="M 384.098958 144.5 L 389.098958 136.401042 L 390.598958 137.598958 Z M 384.098958 144.5 " transform="matrix(0.75,0,0,0.75,0,0)"/>
<path style="fill-rule:evenodd;fill:rgb(100%,0%,0%);fill-opacity:1;stroke-width:0.5;stroke-linecap:butt;stroke-linejoin:miter;stroke:rgb(100%,0%,0%);stroke-opacity:1;stroke-miterlimit:4;" d="M 389.098958 136.401042 L 397.197917 130.598958 L 394.098958 128.302083 Z M 389.098958 136.401042 " transform="matrix(0.75,0,0,0.75,0,0)"/>
<path style="fill-rule:evenodd;fill:rgb(100%,0%,0%);fill-opacity:1;stroke-width:0.5;stroke-linecap:butt;stroke-linejoin:miter;stroke:rgb(100%,0%,0%);stroke-opacity:1;stroke-miterlimit:4;" d="M 389.098958 136.401042 L 390.598958 137.598958 L 397.197917 130.598958 Z M 389.098958 136.401042 " transform="matrix(0.75,0,0,0.75,0,0)"/>
<path style="fill:none;stroke-width:2;stroke-linecap:butt;stroke-linejoin:miter;stroke:rgb(0%,0%,0%);stroke-opacity:1;stroke-miterlimit:4;" d="M 384.098958 144.5 L 399.598958 158.697917 " transform="matrix(0.75,0,0,0.75,0,0)"/>
<path style="fill:none;stroke-width:2;stroke-linecap:butt;stroke-linejoin:miter;stroke:rgb(0%,0%,0%);stroke-opacity:1;stroke-miterlimit:4;" d="M 406.802083 166.697917 L 419.098958 182.598958 " transform="matrix(0.75,0,0,0.75,0,0)"/>
<path style="fill:none;stroke-width:2;stroke-linecap:butt;stroke-linejoin:miter;stroke:rgb(0%,0%,0%);stroke-opacity:1;stroke-miterlimit:4;" d="M 420 184.401042 L 428.901042 178.697917 " transform="matrix(0.75,0,0,0.75,0,0)"/>
<path style="fill:none;stroke-width:2;stroke-linecap:butt;stroke-linejoin:miter;stroke:rgb(100%,0%,0%);stroke-opacity:1;stroke-miterlimit:4;" d="M 428.901042 178.697917 L 437.802083 173 " transform="matrix(0.75,0,0,0.75,0,0)"/>
<path style="fill:none;stroke-width:2;stroke-linecap:butt;stroke-linejoin:miter;stroke:rgb(0%,0%,0%);stroke-opacity:1;stroke-miterlimit:4;" d="M 417.901042 181.098958 L 426.802083 175.401042 " transform="matrix(0.75,0,0,0.75,0,0)"/>
<path style="fill:none;stroke-width:2;stroke-linecap:butt;stroke-linejoin:miter;stroke:rgb(100%,0%,0%);stroke-opacity:1;stroke-miterlimit:4;" d="M 426.802083 175.401042 L 435.697917 169.697917 " transform="matrix(0.75,0,0,0.75,0,0)"/>
<path style="fill:none;stroke-width:2;stroke-linecap:butt;stroke-linejoin:miter;stroke:rgb(0%,0%,0%);stroke-opacity:1;stroke-miterlimit:4;" d="M 419.098958 182.598958 L 423.901042 191.901042 " transform="matrix(0.75,0,0,0.75,0,0)"/>
<path style="fill:none;stroke-width:2;stroke-linecap:butt;stroke-linejoin:miter;stroke:rgb(100%,0%,0%);stroke-opacity:1;stroke-miterlimit:4;" d="M 423.901042 191.901042 L 428.697917 201.098958 " transform="matrix(0.75,0,0,0.75,0,0)"/>
<path style="fill:none;stroke-width:2;stroke-linecap:butt;stroke-linejoin:miter;stroke:rgb(100%,0%,0%);stroke-opacity:1;stroke-miterlimit:4;" d="M 432.598958 210.302083 L 435.802083 220.401042 " transform="matrix(0.75,0,0,0.75,0,0)"/>
<path style="fill:none;stroke-width:2;stroke-linecap:butt;stroke-linejoin:miter;stroke:rgb(0%,0%,0%);stroke-opacity:1;stroke-miterlimit:4;" d="M 435.802083 220.401042 L 438.901042 230.401042 " transform="matrix(0.75,0,0,0.75,0,0)"/>
<path style="fill:none;stroke-width:1;stroke-linecap:butt;stroke-linejoin:miter;stroke:rgb(0%,0%,0%);stroke-opacity:1;stroke-miterlimit:4;" d="M 442.5 229.302083 L 442.598958 229.901042 " transform="matrix(0.75,0,0,0.75,0,0)"/>
<path style="fill:none;stroke-width:1;stroke-linecap:butt;stroke-linejoin:miter;stroke:rgb(0%,0%,0%);stroke-opacity:1;stroke-miterlimit:4;" d="M 446.098958 228.302083 L 446.302083 229.302083 " transform="matrix(0.75,0,0,0.75,0,0)"/>
<path style="fill:none;stroke-width:1;stroke-linecap:butt;stroke-linejoin:miter;stroke:rgb(0%,0%,0%);stroke-opacity:1;stroke-miterlimit:4;" d="M 449.598958 227.197917 L 450 228.802083 " transform="matrix(0.75,0,0,0.75,0,0)"/>
<path style="fill:none;stroke-width:1;stroke-linecap:butt;stroke-linejoin:miter;stroke:rgb(0%,0%,0%);stroke-opacity:1;stroke-miterlimit:4;" d="M 453.197917 226.098958 L 453.697917 228.302083 " transform="matrix(0.75,0,0,0.75,0,0)"/>
<path style="fill:none;stroke-width:1;stroke-linecap:butt;stroke-linejoin:miter;stroke:rgb(0%,0%,0%);stroke-opacity:1;stroke-miterlimit:4;" d="M 456.697917 225 L 457.302083 227.697917 " transform="matrix(0.75,0,0,0.75,0,0)"/>
<path style="fill:none;stroke-width:1;stroke-linecap:butt;stroke-linejoin:miter;stroke:rgb(0%,0%,0%);stroke-opacity:1;stroke-miterlimit:4;" d="M 460.302083 223.901042 L 461 227.197917 " transform="matrix(0.75,0,0,0.75,0,0)"/>
<path style="fill:none;stroke-width:1;stroke-linecap:butt;stroke-linejoin:miter;stroke:rgb(0%,0%,0%);stroke-opacity:1;stroke-miterlimit:4;" d="M 463.901042 222.901042 L 464.697917 226.697917 " transform="matrix(0.75,0,0,0.75,0,0)"/>
<path style="fill:none;stroke-width:2;stroke-linecap:butt;stroke-linejoin:miter;stroke:rgb(0%,0%,0%);stroke-opacity:1;stroke-miterlimit:4;" d="M 438.901042 230.401042 L 442.302083 256.197917 " transform="matrix(0.75,0,0,0.75,0,0)"/>
<path style="fill:none;stroke-width:1;stroke-linecap:butt;stroke-linejoin:miter;stroke:rgb(0%,0%,0%);stroke-opacity:1;stroke-miterlimit:4;" d="M 446 255.697917 L 446.098958 256.302083 " transform="matrix(0.75,0,0,0.75,0,0)"/>
<path style="fill:none;stroke-width:1;stroke-linecap:butt;stroke-linejoin:miter;stroke:rgb(0%,0%,0%);stroke-opacity:1;stroke-miterlimit:4;" d="M 449.697917 255.302083 L 449.802083 256.401042 " transform="matrix(0.75,0,0,0.75,0,0)"/>
<path style="fill:none;stroke-width:1;stroke-linecap:butt;stroke-linejoin:miter;stroke:rgb(0%,0%,0%);stroke-opacity:1;stroke-miterlimit:4;" d="M 453.401042 254.802083 L 453.5 256.5 " transform="matrix(0.75,0,0,0.75,0,0)"/>
<path style="fill:none;stroke-width:1;stroke-linecap:butt;stroke-linejoin:miter;stroke:rgb(0%,0%,0%);stroke-opacity:1;stroke-miterlimit:4;" d="M 457.098958 254.401042 L 457.197917 256.598958 " transform="matrix(0.75,0,0,0.75,0,0)"/>
<path style="fill:none;stroke-width:1;stroke-linecap:butt;stroke-linejoin:miter;stroke:rgb(0%,0%,0%);stroke-opacity:1;stroke-miterlimit:4;" d="M 460.802083 253.901042 L 460.901042 256.697917 " transform="matrix(0.75,0,0,0.75,0,0)"/>
<path style="fill:none;stroke-width:1;stroke-linecap:butt;stroke-linejoin:miter;stroke:rgb(0%,0%,0%);stroke-opacity:1;stroke-miterlimit:4;" d="M 464.5 253.5 L 464.697917 256.802083 " transform="matrix(0.75,0,0,0.75,0,0)"/>
<path style="fill:none;stroke-width:1;stroke-linecap:butt;stroke-linejoin:miter;stroke:rgb(0%,0%,0%);stroke-opacity:1;stroke-miterlimit:4;" d="M 468.197917 253.098958 L 468.401042 256.901042 " transform="matrix(0.75,0,0,0.75,0,0)"/>
<path style="fill:none;stroke-width:2;stroke-linecap:butt;stroke-linejoin:miter;stroke:rgb(0%,0%,0%);stroke-opacity:1;stroke-miterlimit:4;" d="M 442.302083 256.197917 L 441.197917 282.098958 " transform="matrix(0.75,0,0,0.75,0,0)"/>
<path style="fill:none;stroke-width:1;stroke-linecap:butt;stroke-linejoin:miter;stroke:rgb(0%,0%,0%);stroke-opacity:1;stroke-miterlimit:4;" d="M 444.697917 282.197917 L 444.598958 282.901042 " transform="matrix(0.75,0,0,0.75,0,0)"/>
<path style="fill:none;stroke-width:1;stroke-linecap:butt;stroke-linejoin:miter;stroke:rgb(0%,0%,0%);stroke-opacity:1;stroke-miterlimit:4;" d="M 448.197917 282.401042 L 448.098958 283.598958 " transform="matrix(0.75,0,0,0.75,0,0)"/>
<path style="fill:none;stroke-width:1;stroke-linecap:butt;stroke-linejoin:miter;stroke:rgb(0%,0%,0%);stroke-opacity:1;stroke-miterlimit:4;" d="M 451.697917 282.5 L 451.5 284.401042 " transform="matrix(0.75,0,0,0.75,0,0)"/>
<path style="fill:none;stroke-width:1;stroke-linecap:butt;stroke-linejoin:miter;stroke:rgb(100%,0%,0%);stroke-opacity:1;stroke-miterlimit:4;" d="M 455.197917 282.598958 L 454.901042 285.197917 " transform="matrix(0.75,0,0,0.75,0,0)"/>
<path style="fill:none;stroke-width:1;stroke-linecap:butt;stroke-linejoin:miter;stroke:rgb(100%,0%,0%);stroke-opacity:1;stroke-miterlimit:4;" d="M 458.697917 282.697917 L 458.302083 286 " transform="matrix(0.75,0,0,0.75,0,0)"/>
<path style="fill:none;stroke-width:1;stroke-linecap:butt;stroke-linejoin:miter;stroke:rgb(100%,0%,0%);stroke-opacity:1;stroke-miterlimit:4;" d="M 462.197917 282.901042 L 461.697917 286.697917 " transform="matrix(0.75,0,0,0.75,0,0)"/>
<path style="fill:none;stroke-width:2;stroke-linecap:butt;stroke-linejoin:miter;stroke:rgb(0%,0%,0%);stroke-opacity:1;stroke-miterlimit:4;" d="M 161.302083 194.197917 L 136.5 186.401042 " transform="matrix(0.75,0,0,0.75,0,0)"/>
<path style="fill:none;stroke-width:2;stroke-linecap:butt;stroke-linejoin:miter;stroke:rgb(0%,0%,0%);stroke-opacity:1;stroke-miterlimit:4;" d="M 136.5 186.401042 L 117.401042 204 " transform="matrix(0.75,0,0,0.75,0,0)"/>
<path style="fill-rule:evenodd;fill:rgb(0%,0%,0%);fill-opacity:1;stroke-width:0.5;stroke-linecap:butt;stroke-linejoin:miter;stroke:rgb(0%,0%,0%);stroke-opacity:1;stroke-miterlimit:4;" d="M 117.401042 204 L 107.197917 201.802083 L 107.802083 199.901042 Z M 117.401042 204 " transform="matrix(0.75,0,0,0.75,0,0)"/>
<path style="fill-rule:evenodd;fill:rgb(100%,0%,0%);fill-opacity:1;stroke-width:0.5;stroke-linecap:butt;stroke-linejoin:miter;stroke:rgb(100%,0%,0%);stroke-opacity:1;stroke-miterlimit:4;" d="M 107.197917 201.802083 L 98.302083 195.901042 L 97.098958 199.598958 Z M 107.197917 201.802083 " transform="matrix(0.75,0,0,0.75,0,0)"/>
<path style="fill-rule:evenodd;fill:rgb(100%,0%,0%);fill-opacity:1;stroke-width:0.5;stroke-linecap:butt;stroke-linejoin:miter;stroke:rgb(100%,0%,0%);stroke-opacity:1;stroke-miterlimit:4;" d="M 107.197917 201.802083 L 107.802083 199.901042 L 98.302083 195.901042 Z M 107.197917 201.802083 " transform="matrix(0.75,0,0,0.75,0,0)"/>
<path style="fill:none;stroke-width:2;stroke-linecap:butt;stroke-linejoin:miter;stroke:rgb(0%,0%,0%);stroke-opacity:1;stroke-miterlimit:4;" d="M 117.401042 204 L 123 229.302083 " transform="matrix(0.75,0,0,0.75,0,0)"/>
<path style="fill:none;stroke-width:1;stroke-linecap:butt;stroke-linejoin:miter;stroke:rgb(0%,0%,0%);stroke-opacity:1;stroke-miterlimit:4;" d="M 120.098958 231.598958 L 120.5 232.098958 " transform="matrix(0.75,0,0,0.75,0,0)"/>
<path style="fill:none;stroke-width:1;stroke-linecap:butt;stroke-linejoin:miter;stroke:rgb(0%,0%,0%);stroke-opacity:1;stroke-miterlimit:4;" d="M 117.098958 233.802083 L 118 234.802083 " transform="matrix(0.75,0,0,0.75,0,0)"/>
<path style="fill:none;stroke-width:1;stroke-linecap:butt;stroke-linejoin:miter;stroke:rgb(0%,0%,0%);stroke-opacity:1;stroke-miterlimit:4;" d="M 114.197917 236.098958 L 115.5 237.5 " transform="matrix(0.75,0,0,0.75,0,0)"/>
<path style="fill:none;stroke-width:1;stroke-linecap:butt;stroke-linejoin:miter;stroke:rgb(0%,0%,0%);stroke-opacity:1;stroke-miterlimit:4;" d="M 111.197917 238.401042 L 113 240.302083 " transform="matrix(0.75,0,0,0.75,0,0)"/>
<path style="fill:none;stroke-width:1;stroke-linecap:butt;stroke-linejoin:miter;stroke:rgb(0%,0%,0%);stroke-opacity:1;stroke-miterlimit:4;" d="M 108.302083 240.697917 L 110.5 243 " transform="matrix(0.75,0,0,0.75,0,0)"/>
<path style="fill:none;stroke-width:1;stroke-linecap:butt;stroke-linejoin:miter;stroke:rgb(0%,0%,0%);stroke-opacity:1;stroke-miterlimit:4;" d="M 105.302083 242.901042 L 108 245.802083 " transform="matrix(0.75,0,0,0.75,0,0)"/>
<path style="fill:none;stroke-width:2;stroke-linecap:butt;stroke-linejoin:miter;stroke:rgb(0%,0%,0%);stroke-opacity:1;stroke-miterlimit:4;" d="M 101.901042 246.802083 L 99.197917 256.802083 " transform="matrix(0.75,0,0,0.75,0,0)"/>
<path style="fill:none;stroke-width:2;stroke-linecap:butt;stroke-linejoin:miter;stroke:rgb(100%,0%,0%);stroke-opacity:1;stroke-miterlimit:4;" d="M 99.197917 256.802083 L 96.401042 266.802083 " transform="matrix(0.75,0,0,0.75,0,0)"/>
<path style="fill:none;stroke-width:2;stroke-linecap:butt;stroke-linejoin:miter;stroke:rgb(0%,0%,0%);stroke-opacity:1;stroke-miterlimit:4;" d="M 106.598958 244.401042 L 102.901042 257.802083 " transform="matrix(0.75,0,0,0.75,0,0)"/>
<path style="fill:none;stroke-width:2;stroke-linecap:butt;stroke-linejoin:miter;stroke:rgb(100%,0%,0%);stroke-opacity:1;stroke-miterlimit:4;" d="M 102.901042 257.802083 L 100.098958 267.901042 " transform="matrix(0.75,0,0,0.75,0,0)"/>
<path style="fill:none;stroke-width:2;stroke-linecap:butt;stroke-linejoin:miter;stroke:rgb(0%,0%,0%);stroke-opacity:1;stroke-miterlimit:4;" d="M 103.901042 246.901042 L 93.098958 246.197917 " transform="matrix(0.75,0,0,0.75,0,0)"/>
<path style="fill:none;stroke-width:2;stroke-linecap:butt;stroke-linejoin:miter;stroke:rgb(100%,0%,0%);stroke-opacity:1;stroke-miterlimit:4;" d="M 93.098958 246.197917 L 82.197917 245.598958 " transform="matrix(0.75,0,0,0.75,0,0)"/>
<path style="fill:none;stroke-width:2;stroke-linecap:butt;stroke-linejoin:miter;stroke:rgb(0%,0%,0%);stroke-opacity:1;stroke-miterlimit:4;" d="M 441.197917 282.098958 L 435.697917 307.5 " transform="matrix(0.75,0,0,0.75,0,0)"/>
<path style="fill:none;stroke-width:2;stroke-linecap:butt;stroke-linejoin:miter;stroke:rgb(0%,0%,0%);stroke-opacity:1;stroke-miterlimit:4;" d="M 79.802083 287.401042 L 105.197917 281.802083 " transform="matrix(0.75,0,0,0.75,0,0)"/>
<path style="fill:none;stroke-width:2;stroke-linecap:butt;stroke-linejoin:miter;stroke:rgb(0%,0%,0%);stroke-opacity:1;stroke-miterlimit:4;" d="M 123 229.302083 L 147.802083 237.098958 " transform="matrix(0.75,0,0,0.75,0,0)"/>
<path style="fill:none;stroke-width:1;stroke-linecap:butt;stroke-linejoin:miter;stroke:rgb(0%,0%,0%);stroke-opacity:1;stroke-miterlimit:4;" d="M 149.598958 239.901042 L 149 240.197917 " transform="matrix(0.75,0,0,0.75,0,0)"/>
<path style="fill:none;stroke-width:1;stroke-linecap:butt;stroke-linejoin:miter;stroke:rgb(0%,0%,0%);stroke-opacity:1;stroke-miterlimit:4;" d="M 151.401042 242.697917 L 150.197917 243.302083 " transform="matrix(0.75,0,0,0.75,0,0)"/>
<path style="fill:none;stroke-width:1;stroke-linecap:butt;stroke-linejoin:miter;stroke:rgb(0%,0%,0%);stroke-opacity:1;stroke-miterlimit:4;" d="M 153.098958 245.598958 L 151.401042 246.401042 " transform="matrix(0.75,0,0,0.75,0,0)"/>
<path style="fill:none;stroke-width:1;stroke-linecap:butt;stroke-linejoin:miter;stroke:rgb(0%,0%,0%);stroke-opacity:1;stroke-miterlimit:4;" d="M 154.901042 248.401042 L 152.598958 249.598958 " transform="matrix(0.75,0,0,0.75,0,0)"/>
<path style="fill:none;stroke-width:1;stroke-linecap:butt;stroke-linejoin:miter;stroke:rgb(0%,0%,0%);stroke-opacity:1;stroke-miterlimit:4;" d="M 156.697917 251.197917 L 153.802083 252.697917 " transform="matrix(0.75,0,0,0.75,0,0)"/>
<path style="fill:none;stroke-width:1;stroke-linecap:butt;stroke-linejoin:miter;stroke:rgb(0%,0%,0%);stroke-opacity:1;stroke-miterlimit:4;" d="M 158.5 254.098958 L 155 255.802083 " transform="matrix(0.75,0,0,0.75,0,0)"/>
<path style="fill:none;stroke-width:2;stroke-linecap:butt;stroke-linejoin:miter;stroke:rgb(0%,0%,0%);stroke-opacity:1;stroke-miterlimit:4;" d="M 435.197917 308.697917 L 435.697917 307.5 L 435.901042 306.197917 " transform="matrix(0.75,0,0,0.75,0,0)"/>
<path style="fill:none;stroke-width:2;stroke-linecap:butt;stroke-linejoin:miter;stroke:rgb(0%,0%,0%);stroke-opacity:1;stroke-miterlimit:4;" d="M 426.197917 330.302083 L 425.697917 331.5 L 425 332.598958 " transform="matrix(0.75,0,0,0.75,0,0)"/>
<path style="fill:none;stroke-width:2;stroke-linecap:butt;stroke-linejoin:miter;stroke:rgb(0%,0%,0%);stroke-opacity:1;stroke-miterlimit:4;" d="M 412.5 352.302083 L 411.802083 353.401042 L 410.901042 354.302083 " transform="matrix(0.75,0,0,0.75,0,0)"/>
<path style="fill:none;stroke-width:2;stroke-linecap:butt;stroke-linejoin:miter;stroke:rgb(0%,0%,0%);stroke-opacity:1;stroke-miterlimit:4;" d="M 395.197917 371.598958 L 394.302083 372.598958 L 393.302083 373.302083 " transform="matrix(0.75,0,0,0.75,0,0)"/>
<path style="fill:none;stroke-width:2;stroke-linecap:butt;stroke-linejoin:miter;stroke:rgb(0%,0%,0%);stroke-opacity:1;stroke-miterlimit:4;" d="M 374.697917 387.598958 L 373.697917 388.401042 L 372.598958 389 " transform="matrix(0.75,0,0,0.75,0,0)"/>
<path style="fill:none;stroke-width:2;stroke-linecap:butt;stroke-linejoin:miter;stroke:rgb(0%,0%,0%);stroke-opacity:1;stroke-miterlimit:4;" d="M 351.802083 399.802083 L 350.697917 400.401042 L 349.401042 400.802083 " transform="matrix(0.75,0,0,0.75,0,0)"/>
<path style="fill:none;stroke-width:2;stroke-linecap:butt;stroke-linejoin:miter;stroke:rgb(0%,0%,0%);stroke-opacity:1;stroke-miterlimit:4;" d="M 327.197917 407.802083 L 325.901042 408.197917 L 324.598958 408.401042 " transform="matrix(0.75,0,0,0.75,0,0)"/>
<path style="fill:none;stroke-width:2;stroke-linecap:butt;stroke-linejoin:miter;stroke:rgb(0%,0%,0%);stroke-opacity:1;stroke-miterlimit:4;" d="M 301.5 411.5 L 300.197917 411.697917 L 298.901042 411.598958 " transform="matrix(0.75,0,0,0.75,0,0)"/>
<path style="fill:none;stroke-width:2;stroke-linecap:butt;stroke-linejoin:miter;stroke:rgb(0%,0%,0%);stroke-opacity:1;stroke-miterlimit:4;" d="M 275.5 410.598958 L 274.197917 410.598958 L 273 410.302083 " transform="matrix(0.75,0,0,0.75,0,0)"/>
<path style="fill:none;stroke-width:2;stroke-linecap:butt;stroke-linejoin:miter;stroke:rgb(0%,0%,0%);stroke-opacity:1;stroke-miterlimit:4;" d="M 250.098958 405.197917 L 248.901042 405 L 247.697917 404.5 " transform="matrix(0.75,0,0,0.75,0,0)"/>
<path style="fill:none;stroke-width:2;stroke-linecap:butt;stroke-linejoin:miter;stroke:rgb(0%,0%,0%);stroke-opacity:1;stroke-miterlimit:4;" d="M 226.098958 395.5 L 224.901042 395.098958 L 223.802083 394.401042 " transform="matrix(0.75,0,0,0.75,0,0)"/>
<path style="fill:none;stroke-width:2;stroke-linecap:butt;stroke-linejoin:miter;stroke:rgb(0%,0%,0%);stroke-opacity:1;stroke-miterlimit:4;" d="M 204 381.802083 L 203 381.098958 L 202 380.197917 " transform="matrix(0.75,0,0,0.75,0,0)"/>
<path style="fill:none;stroke-width:2;stroke-linecap:butt;stroke-linejoin:miter;stroke:rgb(0%,0%,0%);stroke-opacity:1;stroke-miterlimit:4;" d="M 184.697917 364.5 L 183.802083 363.598958 L 183 362.598958 " transform="matrix(0.75,0,0,0.75,0,0)"/>
<path style="fill:none;stroke-width:2;stroke-linecap:butt;stroke-linejoin:miter;stroke:rgb(0%,0%,0%);stroke-opacity:1;stroke-miterlimit:4;" d="M 168.697917 344 L 168 343 L 167.401042 341.901042 " transform="matrix(0.75,0,0,0.75,0,0)"/>
<path style="fill:none;stroke-width:2;stroke-linecap:butt;stroke-linejoin:miter;stroke:rgb(0%,0%,0%);stroke-opacity:1;stroke-miterlimit:4;" d="M 156.5 321.098958 L 155.901042 320 L 155.5 318.802083 " transform="matrix(0.75,0,0,0.75,0,0)"/>
<path style="fill:none;stroke-width:2;stroke-linecap:butt;stroke-linejoin:miter;stroke:rgb(0%,0%,0%);stroke-opacity:1;stroke-miterlimit:4;" d="M 148.5 296.5 L 148.098958 295.197917 L 148 294.197917 " transform="matrix(0.75,0,0,0.75,0,0)"/>
<path style="fill:none;stroke-width:2;stroke-linecap:butt;stroke-linejoin:miter;stroke:rgb(0%,0%,0%);stroke-opacity:1;stroke-miterlimit:4;" d="M 105.302083 281.302083 L 105.197917 281.802083 L 103.901042 282 " transform="matrix(0.75,0,0,0.75,0,0)"/>
<path style="fill:none;stroke-width:2;stroke-linecap:butt;stroke-linejoin:miter;stroke:rgb(0%,0%,0%);stroke-opacity:1;stroke-miterlimit:4;" d="M 95.697917 238.197917 L 95.401042 237.901042 L 94.098958 238.098958 " transform="matrix(0.75,0,0,0.75,0,0)"/>
<path style="fill:none;stroke-width:2;stroke-linecap:butt;stroke-linejoin:miter;stroke:rgb(0%,0%,0%);stroke-opacity:1;stroke-miterlimit:4;" d="M 71.302083 243.197917 L 70.098958 243.5 L 69.697917 244.697917 " transform="matrix(0.75,0,0,0.75,0,0)"/>
<path style="fill:none;stroke-width:2;stroke-linecap:butt;stroke-linejoin:miter;stroke:rgb(0%,0%,0%);stroke-opacity:1;stroke-miterlimit:4;" d="M 62.697917 267 L 62.302083 268.302083 L 63.098958 269.197917 " transform="matrix(0.75,0,0,0.75,0,0)"/>
<path style="fill:none;stroke-width:2;stroke-linecap:butt;stroke-linejoin:miter;stroke:rgb(0%,0%,0%);stroke-opacity:1;stroke-miterlimit:4;" d="M 79 286.401042 L 79.802083 287.401042 L 81.098958 287.098958 " transform="matrix(0.75,0,0,0.75,0,0)"/>
<path style="fill:none;stroke-width:2;stroke-linecap:butt;stroke-linejoin:miter;stroke:rgb(0%,0%,0%);stroke-opacity:1;stroke-miterlimit:4;" d="M 192 153.901042 L 192.697917 153.098958 L 193.598958 152.401042 " transform="matrix(0.75,0,0,0.75,0,0)"/>
<path style="fill:none;stroke-width:2;stroke-linecap:butt;stroke-linejoin:miter;stroke:rgb(0%,0%,0%);stroke-opacity:1;stroke-miterlimit:4;" d="M 235.401042 125.697917 L 236.302083 125.197917 L 237.598958 124.901042 " transform="matrix(0.75,0,0,0.75,0,0)"/>
<path style="fill:none;stroke-width:2;stroke-linecap:butt;stroke-linejoin:miter;stroke:rgb(0%,0%,0%);stroke-opacity:1;stroke-miterlimit:4;" d="M 259.901042 117.802083 L 261.098958 117.401042 L 262.197917 117.302083 " transform="matrix(0.75,0,0,0.75,0,0)"/>
<path style="fill:none;stroke-width:2;stroke-linecap:butt;stroke-linejoin:miter;stroke:rgb(0%,0%,0%);stroke-opacity:1;stroke-miterlimit:4;" d="M 337.098958 120.401042 L 338.197917 120.697917 L 339.197917 121.098958 " transform="matrix(0.75,0,0,0.75,0,0)"/>
<path style="fill:none;stroke-width:2;stroke-linecap:butt;stroke-linejoin:miter;stroke:rgb(0%,0%,0%);stroke-opacity:1;stroke-miterlimit:4;" d="M 383.197917 143.901042 L 384.098958 144.5 L 384.901042 145.197917 " transform="matrix(0.75,0,0,0.75,0,0)"/>
<path style="fill:none;stroke-width:2;stroke-linecap:butt;stroke-linejoin:miter;stroke:rgb(0%,0%,0%);stroke-opacity:1;stroke-miterlimit:4;" d="M 418.5 181.802083 L 419.098958 182.598958 L 419.302083 183.098958 " transform="matrix(0.75,0,0,0.75,0,0)"/>
<path style="fill:none;stroke-width:2;stroke-linecap:butt;stroke-linejoin:miter;stroke:rgb(0%,0%,0%);stroke-opacity:1;stroke-miterlimit:4;" d="M 438.802083 229.901042 L 438.901042 230.401042 L 439.098958 231.697917 " transform="matrix(0.75,0,0,0.75,0,0)"/>
<path style="fill:none;stroke-width:2;stroke-linecap:butt;stroke-linejoin:miter;stroke:rgb(0%,0%,0%);stroke-opacity:1;stroke-miterlimit:4;" d="M 442.197917 254.901042 L 442.302083 256.197917 L 442.302083 257.5 " transform="matrix(0.75,0,0,0.75,0,0)"/>
<path style="fill:none;stroke-width:2;stroke-linecap:butt;stroke-linejoin:miter;stroke:rgb(0%,0%,0%);stroke-opacity:1;stroke-miterlimit:4;" d="M 441.302083 280.802083 L 441.197917 282.098958 L 441 283.401042 " transform="matrix(0.75,0,0,0.75,0,0)"/>
<path style="fill:none;stroke-width:2;stroke-linecap:butt;stroke-linejoin:miter;stroke:rgb(0%,0%,0%);stroke-opacity:1;stroke-miterlimit:4;" d="M 137.697917 186.802083 L 136.5 186.401042 L 135.598958 187.302083 " transform="matrix(0.75,0,0,0.75,0,0)"/>
<path style="fill:none;stroke-width:2;stroke-linecap:butt;stroke-linejoin:miter;stroke:rgb(0%,0%,0%);stroke-opacity:1;stroke-miterlimit:4;" d="M 118.302083 203.098958 L 117.401042 204 L 117.697917 205.197917 " transform="matrix(0.75,0,0,0.75,0,0)"/>
<path style="fill:none;stroke-width:2;stroke-linecap:butt;stroke-linejoin:miter;stroke:rgb(0%,0%,0%);stroke-opacity:1;stroke-miterlimit:4;" d="M 122.802083 228 L 123 229.302083 L 124.302083 229.697917 " transform="matrix(0.75,0,0,0.75,0,0)"/>
<path style=" stroke:none;fill-rule:nonzero;fill:rgb(100%,0%,0%);fill-opacity:1;" d="M 89.550781 225.675781 C 89.550781 224.773438 89.75 224.074219 90.148438 223.574219 C 90.601562 223.125 91.226562 222.898438 92.023438 222.898438 C 92.875 222.898438 93.523438 223.125 93.976562 223.574219 C 94.375 224.074219 94.574219 224.773438 94.574219 225.675781 C 94.574219 226.574219 94.351562 227.273438 93.898438 227.773438 C 93.5 228.273438 92.875 228.523438 92.023438 228.523438 C 91.226562 228.523438 90.601562 228.273438 90.148438 227.773438 C 89.75 227.273438 89.550781 226.574219 89.550781 225.675781 M 92.023438 227.925781 C 92.625 227.925781 93.074219 227.726562 93.375 227.324219 C 93.675781 226.976562 93.824219 226.425781 93.824219 225.675781 C 93.824219 224.976562 93.675781 224.425781 93.375 224.023438 C 93.074219 223.675781 92.625 223.5 92.023438 223.5 C 91.476562 223.5 91.050781 223.675781 90.75 224.023438 C 90.449219 224.375 90.300781 224.925781 90.300781 225.675781 C 90.300781 226.425781 90.449219 226.976562 90.75 227.324219 C 91.050781 227.726562 91.476562 227.925781 92.023438 227.925781 "/>
<path style=" stroke:none;fill-rule:nonzero;fill:rgb(100%,0%,0%);fill-opacity:1;" d="M 82.199219 192.75 C 82.199219 191.851562 82.425781 191.148438 82.875 190.648438 C 83.273438 190.199219 83.898438 189.976562 84.75 189.976562 C 85.550781 189.976562 86.175781 190.199219 86.625 190.648438 C 87.023438 191.148438 87.226562 191.851562 87.226562 192.75 C 87.226562 193.648438 87.023438 194.351562 86.625 194.851562 C 86.175781 195.351562 85.550781 195.601562 84.75 195.601562 C 83.898438 195.601562 83.273438 195.351562 82.875 194.851562 C 82.425781 194.351562 82.199219 193.648438 82.199219 192.75 M 84.75 195 C 85.300781 195 85.726562 194.800781 86.023438 194.398438 C 86.324219 194.050781 86.476562 193.5 86.476562 192.75 C 86.476562 192.050781 86.324219 191.5 86.023438 191.101562 C 85.726562 190.75 85.300781 190.574219 84.75 190.574219 C 84.148438 190.574219 83.699219 190.75 83.398438 191.101562 C 83.101562 191.449219 82.949219 192 82.949219 192.75 C 82.949219 193.5 83.101562 194.050781 83.398438 194.398438 C 83.699219 194.800781 84.148438 195 84.75 195 "/>
<path style=" stroke:none;fill-rule:nonzero;fill:rgb(100%,0%,0%);fill-opacity:1;" d="M 31.351562 165.523438 L 32.101562 165.523438 L 32.101562 167.925781 L 34.949219 167.925781 L 34.949219 165.523438 L 35.699219 165.523438 L 35.699219 171.074219 L 34.949219 171.074219 L 34.949219 168.523438 L 32.101562 168.523438 L 32.101562 171.074219 L 31.351562 171.074219 L 31.351562 165.523438 "/>
<path style=" stroke:none;fill-rule:nonzero;fill:rgb(100%,0%,0%);fill-opacity:1;" d="M 36.824219 168.300781 C 36.824219 167.398438 37.050781 166.699219 37.5 166.199219 C 37.949219 165.75 38.574219 165.523438 39.375 165.523438 C 40.175781 165.523438 40.800781 165.75 41.25 166.199219 C 41.699219 166.699219 41.925781 167.398438 41.925781 168.300781 C 41.925781 169.199219 41.699219 169.898438 41.25 170.398438 C 40.800781 170.898438 40.175781 171.148438 39.375 171.148438 C 38.574219 171.148438 37.949219 170.898438 37.5 170.398438 C 37.050781 169.898438 36.824219 169.199219 36.824219 168.300781 M 39.375 170.550781 C 39.925781 170.550781 40.351562 170.351562 40.648438 169.949219 C 40.949219 169.601562 41.101562 169.050781 41.101562 168.300781 C 41.101562 167.550781 40.949219 167 40.648438 166.648438 C 40.351562 166.300781 39.925781 166.125 39.375 166.125 C 38.824219 166.125 38.398438 166.300781 38.101562 166.648438 C 37.75 167 37.574219 167.550781 37.574219 168.300781 C 37.574219 169.050781 37.75 169.601562 38.101562 169.949219 C 38.398438 170.351562 38.824219 170.550781 39.375 170.550781 "/>
<path style=" stroke:none;fill-rule:nonzero;fill:rgb(0%,0%,100%);fill-opacity:1;" d="M 17.023438 202.648438 L 17.773438 202.648438 L 17.773438 205.050781 L 20.625 205.050781 L 20.625 202.648438 L 21.375 202.648438 L 21.375 208.199219 L 20.625 208.199219 L 20.625 205.648438 L 17.773438 205.648438 L 17.773438 208.199219 L 17.023438 208.199219 L 17.023438 202.648438 "/>
<path style=" stroke:none;fill-rule:nonzero;fill:rgb(0%,0%,100%);fill-opacity:1;" d="M 22.425781 207.976562 C 22.523438 207.773438 22.675781 207.601562 22.875 207.449219 C 23.125 207.351562 23.375 207.300781 23.625 207.300781 C 24.023438 207.300781 24.324219 207.398438 24.523438 207.601562 C 24.726562 207.800781 24.824219 208.074219 24.824219 208.425781 C 24.824219 208.773438 24.699219 209.125 24.449219 209.476562 C 24.148438 209.773438 23.726562 210.125 23.175781 210.523438 L 24.898438 210.523438 L 24.898438 210.976562 L 22.425781 210.976562 L 22.425781 210.601562 C 22.875 210.300781 23.226562 210.023438 23.476562 209.773438 C 23.773438 209.523438 23.976562 209.300781 24.074219 209.101562 C 24.226562 208.898438 24.300781 208.675781 24.300781 208.425781 C 24.300781 208.175781 24.25 208 24.148438 207.898438 C 24 207.75 23.824219 207.675781 23.625 207.675781 C 23.425781 207.675781 23.273438 207.726562 23.175781 207.824219 C 23.023438 207.875 22.898438 208 22.800781 208.199219 L 22.425781 207.976562 "/>
<path style=" stroke:none;fill-rule:nonzero;fill:rgb(0%,0%,100%);fill-opacity:1;" d="M 26.476562 202.648438 L 28.273438 205.574219 C 28.375 205.773438 28.523438 206.050781 28.726562 206.398438 C 28.925781 206.75 29.023438 206.949219 29.023438 207 L 29.023438 202.648438 L 29.773438 202.648438 L 29.773438 208.199219 L 29.023438 208.199219 L 27.074219 204.976562 C 26.925781 204.726562 26.773438 204.476562 26.625 204.226562 C 26.476562 203.925781 26.375 203.726562 26.324219 203.625 L 26.324219 208.199219 L 25.574219 208.199219 L 25.574219 202.648438 L 26.476562 202.648438 "/>
<path style=" stroke:none;fill-rule:nonzero;fill:rgb(100%,0%,0%);fill-opacity:1;" d="M 51.523438 234.148438 C 51.523438 233.25 51.75 232.550781 52.199219 232.050781 C 52.601562 231.601562 53.226562 231.375 54.074219 231.375 C 54.875 231.375 55.5 231.601562 55.949219 232.050781 C 56.351562 232.550781 56.550781 233.25 56.550781 234.148438 C 56.550781 235.050781 56.324219 235.75 55.875 236.25 C 55.476562 236.75 54.875 237 54.074219 237 C 53.226562 237 52.601562 236.75 52.199219 236.25 C 51.75 235.75 51.523438 235.050781 51.523438 234.148438 M 54.074219 236.398438 C 54.625 236.398438 55.050781 236.199219 55.351562 235.800781 C 55.648438 235.449219 55.800781 234.898438 55.800781 234.148438 C 55.800781 233.449219 55.648438 232.898438 55.351562 232.5 C 55.050781 232.148438 54.625 231.976562 54.074219 231.976562 C 53.476562 231.976562 53.023438 232.148438 52.726562 232.5 C 52.425781 232.851562 52.273438 233.398438 52.273438 234.148438 C 52.273438 234.898438 52.425781 235.449219 52.726562 235.800781 C 53.023438 236.199219 53.476562 236.398438 54.074219 236.398438 "/>
<path style=" stroke:none;fill-rule:nonzero;fill:rgb(100%,0%,0%);fill-opacity:1;" d="M 57.449219 231.375 L 58.199219 231.375 L 58.199219 233.773438 L 60.976562 233.773438 L 60.976562 231.375 L 61.726562 231.375 L 61.726562 236.925781 L 60.976562 236.925781 L 60.976562 234.375 L 58.199219 234.375 L 58.199219 236.925781 L 57.449219 236.925781 L 57.449219 231.375 "/>
<path style=" stroke:none;fill-rule:nonzero;fill:rgb(0%,0%,0%);fill-opacity:1;" d="M 106.351562 202.125 C 106.351562 201.226562 106.574219 200.523438 107.023438 200.023438 C 107.476562 199.574219 108.101562 199.351562 108.898438 199.351562 C 109.648438 199.351562 110.226562 199.601562 110.625 200.101562 L 110.101562 200.550781 C 109.800781 200.148438 109.398438 199.949219 108.898438 199.949219 C 108.351562 199.949219 107.925781 200.148438 107.625 200.550781 C 107.324219 200.898438 107.175781 201.425781 107.175781 202.125 C 107.175781 202.875 107.324219 203.425781 107.625 203.773438 C 107.925781 204.175781 108.375 204.375 108.976562 204.375 C 109.375 204.375 109.824219 204.25 110.324219 204 L 110.476562 204.601562 C 110.324219 204.699219 110.101562 204.800781 109.800781 204.898438 C 109.5 204.949219 109.199219 204.976562 108.898438 204.976562 C 108.101562 204.976562 107.476562 204.726562 107.023438 204.226562 C 106.574219 203.726562 106.351562 203.023438 106.351562 202.125 "/>
<path style=" stroke:none;fill-rule:nonzero;fill:rgb(100%,0%,0%);fill-opacity:1;" d="M 122.699219 164.625 C 122.699219 163.773438 122.898438 163.101562 123.300781 162.601562 C 123.75 162.101562 124.375 161.851562 125.175781 161.851562 C 126.023438 161.851562 126.648438 162.101562 127.050781 162.601562 C 127.5 163.101562 127.726562 163.773438 127.726562 164.625 C 127.726562 165.523438 127.5 166.25 127.050781 166.800781 C 126.601562 167.300781 125.976562 167.550781 125.175781 167.550781 C 124.375 167.550781 123.75 167.300781 123.300781 166.800781 C 122.898438 166.25 122.699219 165.523438 122.699219 164.625 M 125.175781 166.875 C 125.773438 166.875 126.226562 166.699219 126.523438 166.351562 C 126.824219 165.949219 126.976562 165.375 126.976562 164.625 C 126.976562 163.925781 126.824219 163.398438 126.523438 163.050781 C 126.226562 162.648438 125.773438 162.449219 125.175781 162.449219 C 124.625 162.449219 124.199219 162.648438 123.898438 163.050781 C 123.601562 163.398438 123.449219 163.925781 123.449219 164.625 C 123.449219 165.375 123.601562 165.949219 123.898438 166.351562 C 124.199219 166.699219 124.625 166.875 125.175781 166.875 "/>
<path style=" stroke:none;fill-rule:nonzero;fill:rgb(100%,0%,0%);fill-opacity:1;" d="M 128.550781 140.175781 C 128.550781 139.273438 128.773438 138.574219 129.226562 138.074219 C 129.625 137.574219 130.25 137.324219 131.101562 137.324219 C 131.898438 137.324219 132.523438 137.574219 132.976562 138.074219 C 133.375 138.574219 133.574219 139.273438 133.574219 140.175781 C 133.574219 141.074219 133.351562 141.773438 132.898438 142.273438 C 132.5 142.773438 131.898438 143.023438 131.101562 143.023438 C 130.25 143.023438 129.625 142.773438 129.226562 142.273438 C 128.773438 141.773438 128.550781 141.074219 128.550781 140.175781 M 131.101562 142.351562 C 131.648438 142.351562 132.074219 142.175781 132.375 141.824219 C 132.675781 141.425781 132.824219 140.875 132.824219 140.175781 C 132.824219 139.425781 132.675781 138.875 132.375 138.523438 C 132.074219 138.175781 131.648438 138 131.101562 138 C 130.5 138 130.050781 138.175781 129.75 138.523438 C 129.449219 138.875 129.300781 139.425781 129.300781 140.175781 C 129.300781 140.925781 129.449219 141.476562 129.75 141.824219 C 130.050781 142.175781 130.5 142.351562 131.101562 142.351562 "/>
<path style=" stroke:none;fill-rule:nonzero;fill:rgb(100%,0%,0%);fill-opacity:1;" d="M 134.476562 137.398438 L 135.226562 137.398438 L 135.226562 139.726562 L 138 139.726562 L 138 137.398438 L 138.75 137.398438 L 138.75 142.949219 L 138 142.949219 L 138 140.398438 L 135.226562 140.398438 L 135.226562 142.949219 L 134.476562 142.949219 L 134.476562 137.398438 "/>
<path style=" stroke:none;fill-rule:nonzero;fill:rgb(0%,0%,0%);fill-opacity:1;" d="M 129.300781 129.226562 C 129.300781 128.324219 129.5 127.625 129.898438 127.125 C 130.351562 126.625 130.976562 126.375 131.773438 126.375 C 132.523438 126.375 133.125 126.648438 133.574219 127.199219 L 133.050781 127.648438 C 132.75 127.25 132.324219 127.050781 131.773438 127.050781 C 131.226562 127.050781 130.800781 127.226562 130.5 127.574219 C 130.199219 127.976562 130.050781 128.523438 130.050781 129.226562 C 130.050781 129.925781 130.199219 130.476562 130.5 130.875 C 130.851562 131.226562 131.300781 131.398438 131.851562 131.398438 C 132.25 131.398438 132.699219 131.300781 133.199219 131.101562 L 133.425781 131.625 C 133.226562 131.773438 132.976562 131.875 132.675781 131.925781 C 132.375 132.023438 132.074219 132.074219 131.773438 132.074219 C 130.976562 132.074219 130.351562 131.824219 129.898438 131.324219 C 129.5 130.824219 129.300781 130.125 129.300781 129.226562 "/>
<path style=" stroke:none;fill-rule:nonzero;fill:rgb(100%,0%,0%);fill-opacity:1;" d="M 123.375 97.726562 L 124.125 97.726562 L 124.125 100.125 L 126.976562 100.125 L 126.976562 97.726562 L 127.726562 97.726562 L 127.726562 103.273438 L 126.976562 103.273438 L 126.976562 100.726562 L 124.125 100.726562 L 124.125 103.273438 L 123.375 103.273438 L 123.375 97.726562 "/>
<path style=" stroke:none;fill-rule:nonzero;fill:rgb(100%,0%,0%);fill-opacity:1;" d="M 128.851562 100.5 C 128.851562 99.601562 129.074219 98.898438 129.523438 98.398438 C 129.925781 97.898438 130.550781 97.648438 131.398438 97.648438 C 132.199219 97.648438 132.824219 97.898438 133.273438 98.398438 C 133.675781 98.898438 133.875 99.601562 133.875 100.5 C 133.875 101.398438 133.675781 102.101562 133.273438 102.601562 C 132.824219 103.101562 132.199219 103.351562 131.398438 103.351562 C 130.601562 103.351562 129.976562 103.101562 129.523438 102.601562 C 129.074219 102.101562 128.851562 101.398438 128.851562 100.5 M 131.398438 102.75 C 131.949219 102.75 132.375 102.550781 132.675781 102.148438 C 132.976562 101.800781 133.125 101.25 133.125 100.5 C 133.125 99.75 132.976562 99.199219 132.675781 98.851562 C 132.375 98.5 131.949219 98.324219 131.398438 98.324219 C 130.851562 98.324219 130.398438 98.5 130.050781 98.851562 C 129.75 99.199219 129.601562 99.75 129.601562 100.5 C 129.601562 101.25 129.75 101.800781 130.050781 102.148438 C 130.398438 102.550781 130.851562 102.75 131.398438 102.75 "/>
<path style=" stroke:none;fill-rule:nonzero;fill:rgb(0%,0%,0%);fill-opacity:1;" d="M 157.875 102.976562 C 157.875 102.074219 158.074219 101.375 158.476562 100.875 C 158.925781 100.375 159.550781 100.125 160.351562 100.125 C 161.148438 100.125 161.75 100.398438 162.148438 100.949219 L 161.625 101.398438 C 161.324219 101 160.898438 100.800781 160.351562 100.800781 C 159.800781 100.800781 159.375 100.976562 159.074219 101.324219 C 158.773438 101.726562 158.625 102.273438 158.625 102.976562 C 158.625 103.675781 158.800781 104.226562 159.148438 104.625 C 159.449219 104.976562 159.875 105.148438 160.425781 105.148438 C 160.875 105.148438 161.324219 105.050781 161.773438 104.851562 L 162 105.375 C 161.800781 105.523438 161.550781 105.625 161.25 105.675781 C 160.949219 105.773438 160.648438 105.824219 160.351562 105.824219 C 159.550781 105.824219 158.925781 105.574219 158.476562 105.074219 C 158.074219 104.574219 157.875 103.875 157.875 102.976562 "/>
<path style=" stroke:none;fill-rule:nonzero;fill:rgb(100%,0%,0%);fill-opacity:1;" d="M 161.773438 73.199219 L 162.523438 73.199219 L 162.523438 75.601562 L 165.375 75.601562 L 165.375 73.199219 L 166.125 73.199219 L 166.125 78.75 L 165.375 78.75 L 165.375 76.199219 L 162.523438 76.199219 L 162.523438 78.75 L 161.773438 78.75 L 161.773438 73.199219 "/>
<path style=" stroke:none;fill-rule:nonzero;fill:rgb(100%,0%,0%);fill-opacity:1;" d="M 167.25 75.976562 C 167.25 75.074219 167.476562 74.375 167.925781 73.875 C 168.375 73.375 169 73.125 169.800781 73.125 C 170.601562 73.125 171.226562 73.375 171.675781 73.875 C 172.125 74.375 172.351562 75.074219 172.351562 75.976562 C 172.351562 76.875 172.125 77.574219 171.675781 78.074219 C 171.226562 78.574219 170.601562 78.824219 169.800781 78.824219 C 169 78.824219 168.375 78.574219 167.925781 78.074219 C 167.476562 77.574219 167.25 76.875 167.25 75.976562 M 169.800781 78.226562 C 170.351562 78.226562 170.773438 78.023438 171.074219 77.625 C 171.375 77.273438 171.523438 76.726562 171.523438 75.976562 C 171.523438 75.226562 171.375 74.675781 171.074219 74.324219 C 170.773438 73.976562 170.351562 73.800781 169.800781 73.800781 C 169.25 73.800781 168.800781 73.976562 168.449219 74.324219 C 168.148438 74.675781 168 75.226562 168 75.976562 C 168 76.726562 168.148438 77.273438 168.449219 77.625 C 168.800781 78.023438 169.25 78.226562 169.800781 78.226562 "/>
<path style=" stroke:none;fill-rule:nonzero;fill:rgb(100%,0%,0%);fill-opacity:1;" d="M 189.074219 69.074219 C 189.074219 68.175781 189.300781 67.476562 189.75 66.976562 C 190.148438 66.476562 190.773438 66.226562 191.625 66.226562 C 192.425781 66.226562 193.050781 66.476562 193.5 66.976562 C 193.898438 67.476562 194.101562 68.175781 194.101562 69.074219 C 194.101562 69.976562 193.898438 70.675781 193.5 71.175781 C 193.050781 71.675781 192.425781 71.925781 191.625 71.925781 C 190.773438 71.925781 190.148438 71.675781 189.75 71.175781 C 189.300781 70.675781 189.074219 69.976562 189.074219 69.074219 M 191.625 71.324219 C 192.175781 71.324219 192.601562 71.125 192.898438 70.726562 C 193.199219 70.375 193.351562 69.824219 193.351562 69.074219 C 193.351562 68.324219 193.199219 67.773438 192.898438 67.425781 C 192.601562 67.074219 192.175781 66.898438 191.625 66.898438 C 191.023438 66.898438 190.574219 67.074219 190.273438 67.425781 C 189.976562 67.773438 189.824219 68.324219 189.824219 69.074219 C 189.824219 69.824219 189.976562 70.375 190.273438 70.726562 C 190.574219 71.125 191.023438 71.324219 191.625 71.324219 "/>
<path style=" stroke:none;fill-rule:nonzero;fill:rgb(100%,0%,0%);fill-opacity:1;" d="M 195 66.300781 L 195.75 66.300781 L 195.75 68.699219 L 198.523438 68.699219 L 198.523438 66.300781 L 199.273438 66.300781 L 199.273438 71.851562 L 198.523438 71.851562 L 198.523438 69.300781 L 195.75 69.300781 L 195.75 71.851562 L 195 71.851562 L 195 66.300781 "/>
<path style=" stroke:none;fill-rule:nonzero;fill:rgb(0%,0%,0%);fill-opacity:1;" d="M 213 85.5 C 213 84.601562 213.226562 83.898438 213.675781 83.398438 C 214.074219 82.949219 214.699219 82.726562 215.550781 82.726562 C 216.300781 82.726562 216.875 82.976562 217.273438 83.476562 L 216.75 83.925781 C 216.449219 83.523438 216.050781 83.324219 215.550781 83.324219 C 214.949219 83.324219 214.523438 83.523438 214.273438 83.925781 C 213.976562 84.273438 213.824219 84.800781 213.824219 85.5 C 213.824219 86.25 213.976562 86.800781 214.273438 87.148438 C 214.574219 87.550781 215.023438 87.75 215.625 87.75 C 216.023438 87.75 216.449219 87.625 216.898438 87.375 L 217.125 87.976562 C 216.925781 88.074219 216.699219 88.175781 216.449219 88.273438 C 216.148438 88.324219 215.824219 88.351562 215.476562 88.351562 C 214.675781 88.351562 214.074219 88.101562 213.675781 87.601562 C 213.226562 87.101562 213 86.398438 213 85.5 "/>
<path style=" stroke:none;fill-rule:nonzero;fill:rgb(0%,0%,0%);fill-opacity:1;" d="M 232.5 86.324219 C 232.5 85.425781 232.699219 84.726562 233.101562 84.226562 C 233.550781 83.773438 234.175781 83.550781 234.976562 83.550781 C 235.726562 83.550781 236.300781 83.800781 236.699219 84.300781 L 236.175781 84.75 C 235.925781 84.351562 235.523438 84.148438 234.976562 84.148438 C 234.425781 84.148438 234 84.351562 233.699219 84.75 C 233.398438 85.101562 233.25 85.625 233.25 86.324219 C 233.25 87.074219 233.398438 87.625 233.699219 87.976562 C 234 88.375 234.449219 88.574219 235.050781 88.574219 C 235.449219 88.574219 235.898438 88.449219 236.398438 88.199219 L 236.625 88.800781 C 236.425781 88.898438 236.175781 89 235.875 89.101562 C 235.574219 89.148438 235.273438 89.175781 234.976562 89.175781 C 234.175781 89.175781 233.550781 88.925781 233.101562 88.425781 C 232.699219 87.976562 232.5 87.273438 232.5 86.324219 "/>
<path style=" stroke:none;fill-rule:nonzero;fill:rgb(100%,0%,0%);fill-opacity:1;" d="M 256.949219 71.925781 C 256.949219 71.074219 257.148438 70.398438 257.550781 69.898438 C 258 69.398438 258.625 69.148438 259.425781 69.148438 C 260.273438 69.148438 260.898438 69.398438 261.300781 69.898438 C 261.75 70.398438 261.976562 71.074219 261.976562 71.925781 C 261.976562 72.824219 261.75 73.523438 261.300781 74.023438 C 260.851562 74.523438 260.226562 74.773438 259.425781 74.773438 C 258.625 74.773438 258 74.523438 257.550781 74.023438 C 257.148438 73.523438 256.949219 72.824219 256.949219 71.925781 M 259.425781 74.175781 C 260.023438 74.175781 260.476562 74 260.773438 73.648438 C 261.074219 73.25 261.226562 72.675781 261.226562 71.925781 C 261.226562 71.226562 261.074219 70.699219 260.773438 70.351562 C 260.476562 69.949219 260.023438 69.75 259.425781 69.75 C 258.875 69.75 258.449219 69.925781 258.148438 70.273438 C 257.851562 70.675781 257.699219 71.226562 257.699219 71.925781 C 257.699219 72.675781 257.851562 73.25 258.148438 73.648438 C 258.449219 74 258.875 74.175781 259.425781 74.175781 "/>
<path style=" stroke:none;fill-rule:nonzero;fill:rgb(100%,0%,0%);fill-opacity:1;" d="M 262.875 69.226562 L 263.625 69.226562 L 263.625 71.550781 L 266.398438 71.550781 L 266.398438 69.226562 L 267.148438 69.226562 L 267.148438 74.699219 L 266.398438 74.699219 L 266.398438 72.148438 L 263.625 72.148438 L 263.625 74.699219 L 262.875 74.699219 L 262.875 69.226562 "/>
<path style=" stroke:none;fill-rule:nonzero;fill:rgb(0%,0%,0%);fill-opacity:1;" d="M 269.476562 97.949219 C 269.476562 97.050781 269.699219 96.351562 270.148438 95.851562 C 270.550781 95.398438 271.175781 95.175781 272.023438 95.175781 C 272.773438 95.175781 273.351562 95.425781 273.75 95.925781 L 273.226562 96.375 C 272.925781 95.976562 272.523438 95.773438 272.023438 95.773438 C 271.476562 95.773438 271.050781 95.976562 270.75 96.375 C 270.449219 96.726562 270.300781 97.25 270.300781 97.949219 C 270.300781 98.699219 270.449219 99.25 270.75 99.601562 C 271.050781 100 271.5 100.199219 272.101562 100.199219 C 272.5 100.199219 272.925781 100.074219 273.375 99.824219 L 273.601562 100.425781 C 273.398438 100.523438 273.175781 100.625 272.925781 100.726562 C 272.625 100.773438 272.300781 100.800781 271.949219 100.800781 C 271.148438 100.800781 270.550781 100.550781 270.148438 100.050781 C 269.699219 99.601562 269.476562 98.898438 269.476562 97.949219 "/>
<path style=" stroke:none;fill-rule:nonzero;fill:rgb(100%,0%,0%);fill-opacity:1;" d="M 297.375 92.925781 C 297.375 92.074219 297.601562 91.398438 298.050781 90.898438 C 298.449219 90.398438 299.074219 90.148438 299.925781 90.148438 C 300.726562 90.148438 301.351562 90.398438 301.800781 90.898438 C 302.199219 91.398438 302.398438 92.074219 302.398438 92.925781 C 302.398438 93.824219 302.199219 94.523438 301.800781 95.023438 C 301.351562 95.523438 300.726562 95.773438 299.925781 95.773438 C 299.074219 95.773438 298.449219 95.523438 298.050781 95.023438 C 297.601562 94.523438 297.375 93.824219 297.375 92.925781 M 299.925781 95.175781 C 300.476562 95.175781 300.898438 95 301.199219 94.648438 C 301.5 94.25 301.648438 93.675781 301.648438 92.925781 C 301.648438 92.226562 301.5 91.699219 301.199219 91.351562 C 300.898438 90.949219 300.476562 90.75 299.925781 90.75 C 299.324219 90.75 298.875 90.925781 298.574219 91.273438 C 298.273438 91.675781 298.125 92.226562 298.125 92.925781 C 298.125 93.675781 298.273438 94.25 298.574219 94.648438 C 298.875 95 299.324219 95.175781 299.925781 95.175781 "/>
<path style=" stroke:none;fill-rule:nonzero;fill:rgb(100%,0%,0%);fill-opacity:1;" d="M 303.300781 90.226562 L 304.050781 90.226562 L 304.050781 92.550781 L 306.824219 92.550781 L 306.824219 90.226562 L 307.574219 90.226562 L 307.574219 95.699219 L 306.824219 95.699219 L 306.824219 93.148438 L 304.050781 93.148438 L 304.050781 95.699219 L 303.300781 95.699219 L 303.300781 90.226562 "/>
<path style=" stroke:none;fill-rule:nonzero;fill:rgb(0%,0%,0%);fill-opacity:1;" d="M 300.300781 121.574219 C 300.300781 120.675781 300.523438 119.976562 300.976562 119.476562 C 301.375 118.976562 302 118.726562 302.851562 118.726562 C 303.601562 118.726562 304.175781 119 304.574219 119.550781 L 304.050781 120 C 303.75 119.601562 303.351562 119.398438 302.851562 119.398438 C 302.25 119.398438 301.824219 119.574219 301.574219 119.925781 C 301.273438 120.324219 301.125 120.875 301.125 121.574219 C 301.125 122.273438 301.273438 122.824219 301.574219 123.226562 C 301.875 123.574219 302.324219 123.75 302.925781 123.75 C 303.324219 123.75 303.75 123.625 304.199219 123.375 L 304.425781 123.976562 C 304.226562 124.125 303.976562 124.226562 303.675781 124.273438 C 303.425781 124.375 303.125 124.425781 302.773438 124.425781 C 301.976562 124.425781 301.375 124.175781 300.976562 123.675781 C 300.523438 123.175781 300.300781 122.476562 300.300781 121.574219 "/>
<path style=" stroke:none;fill-rule:nonzero;fill:rgb(100%,0%,0%);fill-opacity:1;" d="M 328.199219 126.523438 C 328.199219 125.625 328.425781 124.925781 328.875 124.425781 C 329.273438 123.925781 329.898438 123.675781 330.75 123.675781 C 331.550781 123.675781 332.175781 123.925781 332.625 124.425781 C 333.023438 124.925781 333.226562 125.625 333.226562 126.523438 C 333.226562 127.425781 333.023438 128.125 332.625 128.625 C 332.175781 129.125 331.550781 129.375 330.75 129.375 C 329.898438 129.375 329.273438 129.125 328.875 128.625 C 328.425781 128.125 328.199219 127.425781 328.199219 126.523438 M 330.75 128.773438 C 331.300781 128.773438 331.726562 128.574219 332.023438 128.175781 C 332.324219 127.824219 332.476562 127.273438 332.476562 126.523438 C 332.476562 125.773438 332.324219 125.226562 332.023438 124.875 C 331.726562 124.523438 331.300781 124.351562 330.75 124.351562 C 330.148438 124.351562 329.699219 124.523438 329.398438 124.875 C 329.101562 125.226562 328.949219 125.773438 328.949219 126.523438 C 328.949219 127.273438 329.101562 127.824219 329.398438 128.175781 C 329.699219 128.574219 330.148438 128.773438 330.75 128.773438 "/>
<path style=" stroke:none;fill-rule:nonzero;fill:rgb(100%,0%,0%);fill-opacity:1;" d="M 320.773438 154.273438 C 320.773438 153.375 321 152.675781 321.449219 152.175781 C 321.898438 151.675781 322.523438 151.425781 323.324219 151.425781 C 324.125 151.425781 324.75 151.675781 325.199219 152.175781 C 325.648438 152.675781 325.875 153.375 325.875 154.273438 C 325.875 155.175781 325.648438 155.875 325.199219 156.375 C 324.75 156.875 324.125 157.125 323.324219 157.125 C 322.523438 157.125 321.898438 156.875 321.449219 156.375 C 321 155.875 320.773438 155.175781 320.773438 154.273438 M 323.324219 156.523438 C 323.875 156.523438 324.300781 156.324219 324.601562 155.925781 C 324.898438 155.574219 325.050781 155.023438 325.050781 154.273438 C 325.050781 153.523438 324.898438 152.976562 324.601562 152.625 C 324.300781 152.273438 323.875 152.101562 323.324219 152.101562 C 322.773438 152.101562 322.351562 152.273438 322.050781 152.625 C 321.75 152.976562 321.601562 153.523438 321.601562 154.273438 C 321.601562 155.023438 321.75 155.574219 322.050781 155.925781 C 322.351562 156.324219 322.773438 156.523438 323.324219 156.523438 "/>
<path style=" stroke:none;fill-rule:nonzero;fill:rgb(100%,0%,0%);fill-opacity:1;" d="M 347.699219 214.125 C 347.699219 213.226562 347.925781 212.523438 348.375 212.023438 C 348.824219 211.523438 349.449219 211.273438 350.25 211.273438 C 351.050781 211.273438 351.675781 211.523438 352.125 212.023438 C 352.574219 212.523438 352.800781 213.226562 352.800781 214.125 C 352.800781 215.023438 352.574219 215.726562 352.125 216.226562 C 351.675781 216.726562 351.050781 216.976562 350.25 216.976562 C 349.449219 216.976562 348.824219 216.726562 348.375 216.226562 C 347.925781 215.726562 347.699219 215.023438 347.699219 214.125 M 350.25 216.375 C 350.800781 216.375 351.226562 216.175781 351.523438 215.773438 C 351.824219 215.425781 351.976562 214.875 351.976562 214.125 C 351.976562 213.375 351.824219 212.824219 351.523438 212.476562 C 351.226562 212.125 350.800781 211.949219 350.25 211.949219 C 349.699219 211.949219 349.273438 212.125 348.976562 212.476562 C 348.675781 212.824219 348.523438 213.375 348.523438 214.125 C 348.523438 214.875 348.675781 215.425781 348.976562 215.773438 C 349.273438 216.175781 349.699219 216.375 350.25 216.375 "/>
<path style=" stroke:none;fill-rule:nonzero;fill:rgb(100%,0%,0%);fill-opacity:1;" d="M 353.625 211.351562 L 354.375 211.351562 L 354.375 213.75 L 357.226562 213.75 L 357.226562 211.351562 L 357.976562 211.351562 L 357.976562 216.898438 L 357.226562 216.898438 L 357.226562 214.351562 L 354.375 214.351562 L 354.375 216.898438 L 353.625 216.898438 L 353.625 211.351562 "/>
<path style=" stroke:none;fill-rule:nonzero;fill:rgb(100%,0%,0%);fill-opacity:1;" d="M 61.5 144.375 L 62.25 144.375 L 62.25 146.773438 L 65.023438 146.773438 L 65.023438 144.375 L 65.773438 144.375 L 65.773438 149.925781 L 65.023438 149.925781 L 65.023438 147.375 L 62.25 147.375 L 62.25 149.925781 L 61.5 149.925781 L 61.5 144.375 "/>
<path style=" stroke:none;fill-rule:nonzero;fill:rgb(100%,0%,0%);fill-opacity:1;" d="M 66.898438 147.148438 C 66.898438 146.25 67.125 145.550781 67.574219 145.050781 C 68.023438 144.601562 68.648438 144.375 69.449219 144.375 C 70.25 144.375 70.875 144.601562 71.324219 145.050781 C 71.773438 145.550781 72 146.25 72 147.148438 C 72 148.050781 71.773438 148.75 71.324219 149.25 C 70.875 149.75 70.25 150 69.449219 150 C 68.648438 150 68.023438 149.75 67.574219 149.25 C 67.125 148.75 66.898438 148.050781 66.898438 147.148438 M 69.449219 149.398438 C 70 149.398438 70.425781 149.199219 70.726562 148.800781 C 71.023438 148.449219 71.175781 147.898438 71.175781 147.148438 C 71.175781 146.449219 71.023438 145.898438 70.726562 145.5 C 70.425781 145.148438 70 144.976562 69.449219 144.976562 C 68.898438 144.976562 68.476562 145.148438 68.175781 145.5 C 67.875 145.851562 67.726562 146.398438 67.726562 147.148438 C 67.726562 147.898438 67.875 148.449219 68.175781 148.800781 C 68.476562 149.199219 68.898438 149.398438 69.449219 149.398438 "/>
<path style=" stroke:none;fill-rule:nonzero;fill:rgb(100%,0%,0%);fill-opacity:1;" d="M 70.199219 203.925781 C 70.199219 203.074219 70.425781 202.398438 70.875 201.898438 C 71.324219 201.398438 71.949219 201.148438 72.75 201.148438 C 73.550781 201.148438 74.175781 201.398438 74.625 201.898438 C 75.074219 202.398438 75.300781 203.074219 75.300781 203.925781 C 75.300781 204.824219 75.074219 205.523438 74.625 206.023438 C 74.175781 206.523438 73.550781 206.773438 72.75 206.773438 C 71.949219 206.773438 71.324219 206.523438 70.875 206.023438 C 70.425781 205.523438 70.199219 204.824219 70.199219 203.925781 M 72.75 206.175781 C 73.300781 206.175781 73.726562 206 74.023438 205.648438 C 74.324219 205.25 74.476562 204.675781 74.476562 203.925781 C 74.476562 203.226562 74.324219 202.699219 74.023438 202.351562 C 73.726562 201.949219 73.300781 201.75 72.75 201.75 C 72.199219 201.75 71.773438 201.925781 71.476562 202.273438 C 71.175781 202.675781 71.023438 203.226562 71.023438 203.925781 C 71.023438 204.675781 71.175781 205.25 71.476562 205.648438 C 71.773438 206 72.199219 206.175781 72.75 206.175781 "/>
<path style=" stroke:none;fill-rule:nonzero;fill:rgb(100%,0%,0%);fill-opacity:1;" d="M 50.476562 181.273438 L 51.226562 181.273438 L 51.226562 183.601562 L 54.074219 183.601562 L 54.074219 181.273438 L 54.824219 181.273438 L 54.824219 186.75 L 54.074219 186.75 L 54.074219 184.199219 L 51.226562 184.199219 L 51.226562 186.75 L 50.476562 186.75 L 50.476562 181.273438 "/>
<path style=" stroke:none;fill-rule:nonzero;fill:rgb(100%,0%,0%);fill-opacity:1;" d="M 55.949219 183.976562 C 55.949219 183.125 56.175781 182.449219 56.625 181.949219 C 57.074219 181.449219 57.699219 181.199219 58.5 181.199219 C 59.300781 181.199219 59.925781 181.449219 60.375 181.949219 C 60.824219 182.449219 61.050781 183.125 61.050781 183.976562 C 61.050781 184.875 60.824219 185.574219 60.375 186.074219 C 59.925781 186.625 59.300781 186.898438 58.5 186.898438 C 57.699219 186.898438 57.074219 186.625 56.625 186.074219 C 56.175781 185.574219 55.949219 184.875 55.949219 183.976562 M 58.5 186.226562 C 59.050781 186.226562 59.476562 186.050781 59.773438 185.699219 C 60.074219 185.300781 60.226562 184.726562 60.226562 183.976562 C 60.226562 183.273438 60.074219 182.75 59.773438 182.398438 C 59.476562 182 59.050781 181.800781 58.5 181.800781 C 57.949219 181.800781 57.5 182 57.148438 182.398438 C 56.851562 182.75 56.699219 183.273438 56.699219 183.976562 C 56.699219 184.726562 56.851562 185.300781 57.148438 185.699219 C 57.5 186.050781 57.949219 186.226562 58.5 186.226562 "/>
<path style=" stroke:none;fill-rule:nonzero;fill:rgb(0%,0%,0%);fill-opacity:1;" d="M 117.375 192.449219 L 118.125 192.449219 L 118.125 194.851562 L 120.976562 194.851562 L 120.976562 192.449219 L 121.726562 192.449219 L 121.726562 198 L 120.976562 198 L 120.976562 195.449219 L 118.125 195.449219 L 118.125 198 L 117.375 198 L 117.375 192.449219 "/>
</g>
</svg>
