<?xml version="1.0" encoding="UTF-8"?>
<svg xmlns="http://www.w3.org/2000/svg" xmlns:xlink="http://www.w3.org/1999/xlink" width="375pt" height="375pt" viewBox="0 0 375 375" version="1.1">
<g id="surface159">
<rect x="0" y="0" width="375" height="375" style="fill:rgb(100%,100%,100%);fill-opacity:1;stroke:none;"/>
<path style="fill:none;stroke-width:2;stroke-linecap:butt;stroke-linejoin:miter;stroke:rgb(0%,0%,0%);stroke-opacity:1;stroke-miterlimit:4;" d="M 22.697917 212 L 54.802083 224.197917 " transform="matrix(0.75,0,0,0.75,0,0)"/>
<path style="fill:none;stroke-width:2;stroke-linecap:butt;stroke-linejoin:miter;stroke:rgb(0%,0%,0%);stroke-opacity:1;stroke-miterlimit:4;" d="M 54.802083 224.197917 L 58.5 237.802083 " transform="matrix(0.75,0,0,0.75,0,0)"/>
<path style="fill:none;stroke-width:2;stroke-linecap:butt;stroke-linejoin:miter;stroke:rgb(0%,0%,100%);stroke-opacity:1;stroke-miterlimit:4;" d="M 58.5 237.802083 L 62.197917 251.302083 " transform="matrix(0.75,0,0,0.75,0,0)"/>
<path style="fill:none;stroke-width:2;stroke-linecap:butt;stroke-linejoin:miter;stroke:rgb(0%,0%,0%);stroke-opacity:1;stroke-miterlimit:4;" d="M 60.802083 226.5 L 64 238.197917 " transform="matrix(0.75,0,0,0.75,0,0)"/>
<path style="fill:none;stroke-width:2;stroke-linecap:butt;stroke-linejoin:miter;stroke:rgb(0%,0%,100%);stroke-opacity:1;stroke-miterlimit:4;" d="M 64 238.197917 L 67.197917 250 " transform="matrix(0.75,0,0,0.75,0,0)"/>
<path style="fill:none;stroke-width:2;stroke-linecap:butt;stroke-linejoin:miter;stroke:rgb(0%,0%,100%);stroke-opacity:1;stroke-miterlimit:4;" d="M 68.697917 257.598958 L 93.302083 258.802083 " transform="matrix(0.75,0,0,0.75,0,0)"/>
<path style="fill:none;stroke-width:2;stroke-linecap:butt;stroke-linejoin:miter;stroke:rgb(0%,0%,100%);stroke-opacity:1;stroke-miterlimit:4;" d="M 100.401042 253 L 105.302083 239.901042 " transform="matrix(0.75,0,0,0.75,0,0)"/>
<path style="fill:none;stroke-width:2;stroke-linecap:butt;stroke-linejoin:miter;stroke:rgb(0%,0%,0%);stroke-opacity:1;stroke-miterlimit:4;" d="M 105.302083 239.901042 L 110.302083 226.901042 " transform="matrix(0.75,0,0,0.75,0,0)"/>
<path style="fill:none;stroke-width:2;stroke-linecap:butt;stroke-linejoin:miter;stroke:rgb(0%,0%,100%);stroke-opacity:1;stroke-miterlimit:4;" d="M 95.598958 251.197917 L 99.901042 239.901042 " transform="matrix(0.75,0,0,0.75,0,0)"/>
<path style="fill:none;stroke-width:2;stroke-linecap:butt;stroke-linejoin:miter;stroke:rgb(0%,0%,0%);stroke-opacity:1;stroke-miterlimit:4;" d="M 99.901042 239.901042 L 104.197917 228.598958 " transform="matrix(0.75,0,0,0.75,0,0)"/>
<path style="fill:none;stroke-width:2;stroke-linecap:butt;stroke-linejoin:miter;stroke:rgb(0%,0%,0%);stroke-opacity:1;stroke-miterlimit:4;" d="M 110.302083 226.901042 L 124.697917 223 " transform="matrix(0.75,0,0,0.75,0,0)"/>
<path style="fill:none;stroke-width:2;stroke-linecap:butt;stroke-linejoin:miter;stroke:rgb(80%,80%,0%);stroke-opacity:1;stroke-miterlimit:4;" d="M 124.697917 223 L 139.197917 219 " transform="matrix(0.75,0,0,0.75,0,0)"/>
<path style="fill:none;stroke-width:2;stroke-linecap:butt;stroke-linejoin:miter;stroke:rgb(80%,80%,0%);stroke-opacity:1;stroke-miterlimit:4;" d="M 147.697917 222.098958 L 157.697917 232.098958 " transform="matrix(0.75,0,0,0.75,0,0)"/>
<path style="fill:none;stroke-width:2;stroke-linecap:butt;stroke-linejoin:miter;stroke:rgb(0%,0%,0%);stroke-opacity:1;stroke-miterlimit:4;" d="M 157.697917 232.098958 L 167.802083 242.098958 " transform="matrix(0.75,0,0,0.75,0,0)"/>
<path style="fill:none;stroke-width:2;stroke-linecap:butt;stroke-linejoin:miter;stroke:rgb(0%,0%,0%);stroke-opacity:1;stroke-miterlimit:4;" d="M 167.802083 242.098958 L 200.901042 233 " transform="matrix(0.75,0,0,0.75,0,0)"/>
<path style="fill:none;stroke-width:2;stroke-linecap:butt;stroke-linejoin:miter;stroke:rgb(0%,0%,0%);stroke-opacity:1;stroke-miterlimit:4;" d="M 200.901042 233 L 225.302083 257.197917 " transform="matrix(0.75,0,0,0.75,0,0)"/>
<path style="fill:none;stroke-width:2;stroke-linecap:butt;stroke-linejoin:miter;stroke:rgb(0%,0%,0%);stroke-opacity:1;stroke-miterlimit:4;" d="M 206.598958 231.5 L 226.802083 251.5 " transform="matrix(0.75,0,0,0.75,0,0)"/>
<path style="fill:none;stroke-width:2;stroke-linecap:butt;stroke-linejoin:miter;stroke:rgb(0%,0%,0%);stroke-opacity:1;stroke-miterlimit:4;" d="M 225.302083 257.197917 L 216.5 290.401042 " transform="matrix(0.75,0,0,0.75,0,0)"/>
<path style="fill:none;stroke-width:2;stroke-linecap:butt;stroke-linejoin:miter;stroke:rgb(0%,0%,0%);stroke-opacity:1;stroke-miterlimit:4;" d="M 213.598958 291.197917 L 223.598958 301 " transform="matrix(0.75,0,0,0.75,0,0)"/>
<path style="fill:none;stroke-width:2;stroke-linecap:butt;stroke-linejoin:miter;stroke:rgb(100%,0%,0%);stroke-opacity:1;stroke-miterlimit:4;" d="M 223.598958 301 L 233.5 310.901042 " transform="matrix(0.75,0,0,0.75,0,0)"/>
<path style="fill:none;stroke-width:2;stroke-linecap:butt;stroke-linejoin:miter;stroke:rgb(0%,0%,0%);stroke-opacity:1;stroke-miterlimit:4;" d="M 217.302083 287.5 L 227.197917 297.401042 " transform="matrix(0.75,0,0,0.75,0,0)"/>
<path style="fill:none;stroke-width:2;stroke-linecap:butt;stroke-linejoin:miter;stroke:rgb(100%,0%,0%);stroke-opacity:1;stroke-miterlimit:4;" d="M 227.197917 297.401042 L 237.098958 307.197917 " transform="matrix(0.75,0,0,0.75,0,0)"/>
<path style="fill:none;stroke-width:2;stroke-linecap:butt;stroke-linejoin:miter;stroke:rgb(0%,0%,0%);stroke-opacity:1;stroke-miterlimit:4;" d="M 216.5 290.401042 L 202.697917 294.098958 " transform="matrix(0.75,0,0,0.75,0,0)"/>
<path style="fill:none;stroke-width:2;stroke-linecap:butt;stroke-linejoin:miter;stroke:rgb(100%,0%,0%);stroke-opacity:1;stroke-miterlimit:4;" d="M 202.697917 294.098958 L 189 297.901042 " transform="matrix(0.75,0,0,0.75,0,0)"/>
<path style="fill:none;stroke-width:2;stroke-linecap:butt;stroke-linejoin:miter;stroke:rgb(0%,0%,0%);stroke-opacity:1;stroke-miterlimit:4;" d="M 225.302083 257.197917 L 239.401042 253.401042 " transform="matrix(0.75,0,0,0.75,0,0)"/>
<path style="fill:none;stroke-width:2;stroke-linecap:butt;stroke-linejoin:miter;stroke:rgb(0%,0%,100%);stroke-opacity:1;stroke-miterlimit:4;" d="M 239.401042 253.401042 L 253.598958 249.5 " transform="matrix(0.75,0,0,0.75,0,0)"/>
<path style="fill:none;stroke-width:2;stroke-linecap:butt;stroke-linejoin:miter;stroke:rgb(0%,0%,100%);stroke-opacity:1;stroke-miterlimit:4;" d="M 263.197917 249.5 L 277.401042 253.197917 " transform="matrix(0.75,0,0,0.75,0,0)"/>
<path style="fill:none;stroke-width:2;stroke-linecap:butt;stroke-linejoin:miter;stroke:rgb(0%,0%,0%);stroke-opacity:1;stroke-miterlimit:4;" d="M 277.401042 253.197917 L 291.598958 257 " transform="matrix(0.75,0,0,0.75,0,0)"/>
<path style="fill:none;stroke-width:2;stroke-linecap:butt;stroke-linejoin:miter;stroke:rgb(0%,0%,0%);stroke-opacity:1;stroke-miterlimit:4;" d="M 288 256 L 295.598958 268.901042 " transform="matrix(0.75,0,0,0.75,0,0)"/>
<path style="fill:none;stroke-width:2;stroke-linecap:butt;stroke-linejoin:miter;stroke:rgb(100%,0%,0%);stroke-opacity:1;stroke-miterlimit:4;" d="M 295.598958 268.901042 L 303.098958 281.901042 " transform="matrix(0.75,0,0,0.75,0,0)"/>
<path style="fill:none;stroke-width:2;stroke-linecap:butt;stroke-linejoin:miter;stroke:rgb(0%,0%,0%);stroke-opacity:1;stroke-miterlimit:4;" d="M 292.5 253.401042 L 300 266.302083 " transform="matrix(0.75,0,0,0.75,0,0)"/>
<path style="fill:none;stroke-width:2;stroke-linecap:butt;stroke-linejoin:miter;stroke:rgb(100%,0%,0%);stroke-opacity:1;stroke-miterlimit:4;" d="M 300 266.302083 L 307.5 279.302083 " transform="matrix(0.75,0,0,0.75,0,0)"/>
<path style="fill:none;stroke-width:2;stroke-linecap:butt;stroke-linejoin:miter;stroke:rgb(0%,0%,0%);stroke-opacity:1;stroke-miterlimit:4;" d="M 291.598958 257 L 300.302083 223.802083 " transform="matrix(0.75,0,0,0.75,0,0)"/>
<path style="fill:none;stroke-width:1;stroke-linecap:butt;stroke-linejoin:miter;stroke:rgb(0%,0%,0%);stroke-opacity:1;stroke-miterlimit:4;" d="M 303.5 222.401042 L 303.098958 221.697917 " transform="matrix(0.75,0,0,0.75,0,0)"/>
<path style="fill:none;stroke-width:1;stroke-linecap:butt;stroke-linejoin:miter;stroke:rgb(0%,0%,0%);stroke-opacity:1;stroke-miterlimit:4;" d="M 306.598958 220.901042 L 305.901042 219.697917 " transform="matrix(0.75,0,0,0.75,0,0)"/>
<path style="fill:none;stroke-width:1;stroke-linecap:butt;stroke-linejoin:miter;stroke:rgb(0%,0%,0%);stroke-opacity:1;stroke-miterlimit:4;" d="M 309.802083 219.5 L 308.598958 217.598958 " transform="matrix(0.75,0,0,0.75,0,0)"/>
<path style="fill:none;stroke-width:1;stroke-linecap:butt;stroke-linejoin:miter;stroke:rgb(0%,0%,0%);stroke-opacity:1;stroke-miterlimit:4;" d="M 312.901042 218.098958 L 311.401042 215.598958 " transform="matrix(0.75,0,0,0.75,0,0)"/>
<path style="fill:none;stroke-width:1;stroke-linecap:butt;stroke-linejoin:miter;stroke:rgb(0%,0%,100%);stroke-opacity:1;stroke-miterlimit:4;" d="M 316 216.697917 L 314.197917 213.598958 " transform="matrix(0.75,0,0,0.75,0,0)"/>
<path style="fill:none;stroke-width:1;stroke-linecap:butt;stroke-linejoin:miter;stroke:rgb(0%,0%,100%);stroke-opacity:1;stroke-miterlimit:4;" d="M 319.197917 215.302083 L 317 211.5 " transform="matrix(0.75,0,0,0.75,0,0)"/>
<path style="fill:none;stroke-width:1;stroke-linecap:butt;stroke-linejoin:miter;stroke:rgb(0%,0%,100%);stroke-opacity:1;stroke-miterlimit:4;" d="M 322.302083 213.901042 L 319.697917 209.5 " transform="matrix(0.75,0,0,0.75,0,0)"/>
<path style="fill:none;stroke-width:2;stroke-linecap:butt;stroke-linejoin:miter;stroke:rgb(0%,0%,100%);stroke-opacity:1;stroke-miterlimit:4;" d="M 334.802083 209.197917 L 347.302083 216.401042 " transform="matrix(0.75,0,0,0.75,0,0)"/>
<path style="fill:none;stroke-width:2;stroke-linecap:butt;stroke-linejoin:miter;stroke:rgb(0%,0%,0%);stroke-opacity:1;stroke-miterlimit:4;" d="M 347.302083 216.401042 L 359.802083 223.5 " transform="matrix(0.75,0,0,0.75,0,0)"/>
<path style="fill:none;stroke-width:2;stroke-linecap:butt;stroke-linejoin:miter;stroke:rgb(0%,0%,0%);stroke-opacity:1;stroke-miterlimit:4;" d="M 357.197917 222 L 357.197917 236.901042 " transform="matrix(0.75,0,0,0.75,0,0)"/>
<path style="fill:none;stroke-width:2;stroke-linecap:butt;stroke-linejoin:miter;stroke:rgb(100%,0%,0%);stroke-opacity:1;stroke-miterlimit:4;" d="M 357.197917 236.901042 L 357.302083 251.802083 " transform="matrix(0.75,0,0,0.75,0,0)"/>
<path style="fill:none;stroke-width:2;stroke-linecap:butt;stroke-linejoin:miter;stroke:rgb(0%,0%,0%);stroke-opacity:1;stroke-miterlimit:4;" d="M 362.302083 222 L 362.401042 236.901042 " transform="matrix(0.75,0,0,0.75,0,0)"/>
<path style="fill:none;stroke-width:2;stroke-linecap:butt;stroke-linejoin:miter;stroke:rgb(100%,0%,0%);stroke-opacity:1;stroke-miterlimit:4;" d="M 362.401042 236.901042 L 362.5 251.802083 " transform="matrix(0.75,0,0,0.75,0,0)"/>
<path style="fill:none;stroke-width:2;stroke-linecap:butt;stroke-linejoin:miter;stroke:rgb(0%,0%,0%);stroke-opacity:1;stroke-miterlimit:4;" d="M 359.802083 223.5 L 389.401042 206.197917 " transform="matrix(0.75,0,0,0.75,0,0)"/>
<path style="fill:none;stroke-width:2;stroke-linecap:butt;stroke-linejoin:miter;stroke:rgb(0%,0%,0%);stroke-opacity:1;stroke-miterlimit:4;" d="M 389.401042 206.197917 L 401.901042 213.401042 " transform="matrix(0.75,0,0,0.75,0,0)"/>
<path style="fill:none;stroke-width:2;stroke-linecap:butt;stroke-linejoin:miter;stroke:rgb(0%,0%,100%);stroke-opacity:1;stroke-miterlimit:4;" d="M 401.901042 213.401042 L 414.401042 220.5 " transform="matrix(0.75,0,0,0.75,0,0)"/>
<path style="fill:none;stroke-width:2;stroke-linecap:butt;stroke-linejoin:miter;stroke:rgb(0%,0%,100%);stroke-opacity:1;stroke-miterlimit:4;" d="M 424 221.098958 L 437.302083 215.197917 " transform="matrix(0.75,0,0,0.75,0,0)"/>
<path style="fill:none;stroke-width:2;stroke-linecap:butt;stroke-linejoin:miter;stroke:rgb(0%,0%,0%);stroke-opacity:1;stroke-miterlimit:4;" d="M 437.302083 215.197917 L 450.5 209.197917 " transform="matrix(0.75,0,0,0.75,0,0)"/>
<path style="fill:none;stroke-width:2;stroke-linecap:butt;stroke-linejoin:miter;stroke:rgb(0%,0%,0%);stroke-opacity:1;stroke-miterlimit:4;" d="M 450.5 209.197917 L 459.598958 219.302083 " transform="matrix(0.75,0,0,0.75,0,0)"/>
<path style="fill:none;stroke-width:2;stroke-linecap:butt;stroke-linejoin:miter;stroke:rgb(0%,0%,100%);stroke-opacity:1;stroke-miterlimit:4;" d="M 459.598958 219.302083 L 468.802083 229.302083 " transform="matrix(0.75,0,0,0.75,0,0)"/>
<path style="fill:none;stroke-width:2;stroke-linecap:butt;stroke-linejoin:miter;stroke:rgb(0%,0%,0%);stroke-opacity:1;stroke-miterlimit:4;" d="M 449.197917 215.401042 L 457.098958 224.098958 " transform="matrix(0.75,0,0,0.75,0,0)"/>
<path style="fill:none;stroke-width:2;stroke-linecap:butt;stroke-linejoin:miter;stroke:rgb(0%,0%,100%);stroke-opacity:1;stroke-miterlimit:4;" d="M 457.098958 224.098958 L 465 232.802083 " transform="matrix(0.75,0,0,0.75,0,0)"/>
<path style="fill:none;stroke-width:2;stroke-linecap:butt;stroke-linejoin:miter;stroke:rgb(0%,0%,100%);stroke-opacity:1;stroke-miterlimit:4;" d="M 470.197917 240.598958 L 460 258.401042 " transform="matrix(0.75,0,0,0.75,0,0)"/>
<path style="fill:none;stroke-width:2;stroke-linecap:butt;stroke-linejoin:miter;stroke:rgb(0%,0%,100%);stroke-opacity:1;stroke-miterlimit:4;" d="M 451.697917 263.401042 L 427.802083 258.401042 " transform="matrix(0.75,0,0,0.75,0,0)"/>
<path style="fill:none;stroke-width:2;stroke-linecap:butt;stroke-linejoin:miter;stroke:rgb(0%,0%,100%);stroke-opacity:1;stroke-miterlimit:4;" d="M 452.802083 258.401042 L 428.802083 253.401042 " transform="matrix(0.75,0,0,0.75,0,0)"/>
<path style="fill:none;stroke-width:2;stroke-linecap:butt;stroke-linejoin:miter;stroke:rgb(0%,0%,0%);stroke-opacity:1;stroke-miterlimit:4;" d="M 300.302083 223.802083 L 267.098958 215 " transform="matrix(0.75,0,0,0.75,0,0)"/>
<path style="fill:none;stroke-width:2;stroke-linecap:butt;stroke-linejoin:miter;stroke:rgb(0%,0%,0%);stroke-opacity:1;stroke-miterlimit:4;" d="M 267.098958 215 L 257.098958 205 " transform="matrix(0.75,0,0,0.75,0,0)"/>
<path style="fill:none;stroke-width:2;stroke-linecap:butt;stroke-linejoin:miter;stroke:rgb(80%,80%,0%);stroke-opacity:1;stroke-miterlimit:4;" d="M 257.098958 205 L 247 195.098958 " transform="matrix(0.75,0,0,0.75,0,0)"/>
<path style="fill:none;stroke-width:2;stroke-linecap:butt;stroke-linejoin:miter;stroke:rgb(80%,80%,0%);stroke-opacity:1;stroke-miterlimit:4;" d="M 238.5 192 L 224.098958 195.901042 " transform="matrix(0.75,0,0,0.75,0,0)"/>
<path style="fill:none;stroke-width:2;stroke-linecap:butt;stroke-linejoin:miter;stroke:rgb(0%,0%,0%);stroke-opacity:1;stroke-miterlimit:4;" d="M 224.098958 195.901042 L 209.598958 199.901042 " transform="matrix(0.75,0,0,0.75,0,0)"/>
<path style="fill:none;stroke-width:2;stroke-linecap:butt;stroke-linejoin:miter;stroke:rgb(0%,0%,0%);stroke-opacity:1;stroke-miterlimit:4;" d="M 110.302083 226.901042 L 99 217.901042 " transform="matrix(0.75,0,0,0.75,0,0)"/>
<path style="fill:none;stroke-width:2;stroke-linecap:butt;stroke-linejoin:miter;stroke:rgb(80%,80%,0%);stroke-opacity:1;stroke-miterlimit:4;" d="M 99 217.901042 L 87.802083 208.802083 " transform="matrix(0.75,0,0,0.75,0,0)"/>
<path style="fill:none;stroke-width:2;stroke-linecap:butt;stroke-linejoin:miter;stroke:rgb(80%,80%,0%);stroke-opacity:1;stroke-miterlimit:4;" d="M 79.302083 208.197917 L 67.098958 216.197917 " transform="matrix(0.75,0,0,0.75,0,0)"/>
<path style="fill:none;stroke-width:2;stroke-linecap:butt;stroke-linejoin:miter;stroke:rgb(0%,0%,0%);stroke-opacity:1;stroke-miterlimit:4;" d="M 67.098958 216.197917 L 54.802083 224.197917 " transform="matrix(0.75,0,0,0.75,0,0)"/>
<path style="fill:none;stroke-width:2;stroke-linecap:butt;stroke-linejoin:miter;stroke:rgb(0%,0%,0%);stroke-opacity:1;stroke-miterlimit:4;" d="M 209.598958 199.901042 L 200.901042 233 " transform="matrix(0.75,0,0,0.75,0,0)"/>
<path style="fill:none;stroke-width:2;stroke-linecap:butt;stroke-linejoin:miter;stroke:rgb(0%,0%,0%);stroke-opacity:1;stroke-miterlimit:4;" d="M 267.098958 215 L 263.5 228.598958 " transform="matrix(0.75,0,0,0.75,0,0)"/>
<path style="fill:none;stroke-width:2;stroke-linecap:butt;stroke-linejoin:miter;stroke:rgb(0%,0%,100%);stroke-opacity:1;stroke-miterlimit:4;" d="M 263.5 228.598958 L 260 242.197917 " transform="matrix(0.75,0,0,0.75,0,0)"/>
<path style="fill:none;stroke-width:2;stroke-linecap:butt;stroke-linejoin:miter;stroke:rgb(0%,0%,100%);stroke-opacity:1;stroke-miterlimit:4;" d="M 422.302083 251.401042 L 419.901042 229.302083 " transform="matrix(0.75,0,0,0.75,0,0)"/>
<path style="fill-rule:evenodd;fill:rgb(0%,0%,0%);fill-opacity:1;stroke-width:0.5;stroke-linecap:butt;stroke-linejoin:miter;stroke:rgb(0%,0%,0%);stroke-opacity:1;stroke-miterlimit:4;" d="M 267.098958 215 L 277.901042 191.098958 L 282.302083 193.598958 Z M 267.098958 215 " transform="matrix(0.75,0,0,0.75,0,0)"/>
<path style="fill:none;stroke-width:2;stroke-linecap:butt;stroke-linejoin:miter;stroke:rgb(0%,0%,0%);stroke-opacity:1;stroke-miterlimit:4;" d="M 167.302083 241.598958 L 167.802083 242.098958 L 169.401042 241.598958 " transform="matrix(0.75,0,0,0.75,0,0)"/>
<path style="fill:none;stroke-width:2;stroke-linecap:butt;stroke-linejoin:miter;stroke:rgb(0%,0%,0%);stroke-opacity:1;stroke-miterlimit:4;" d="M 216.901042 288.697917 L 216.5 290.401042 L 215.802083 290.598958 " transform="matrix(0.75,0,0,0.75,0,0)"/>
<path style="fill:none;stroke-width:2;stroke-linecap:butt;stroke-linejoin:miter;stroke:rgb(0%,0%,0%);stroke-opacity:1;stroke-miterlimit:4;" d="M 290.901042 256.802083 L 291.598958 257 L 292 255.302083 " transform="matrix(0.75,0,0,0.75,0,0)"/>
<path style="fill:none;stroke-width:2;stroke-linecap:butt;stroke-linejoin:miter;stroke:rgb(0%,0%,0%);stroke-opacity:1;stroke-miterlimit:4;" d="M 299.901042 225.401042 L 300.302083 223.802083 L 298.697917 223.302083 " transform="matrix(0.75,0,0,0.75,0,0)"/>
<path style="fill:none;stroke-width:2;stroke-linecap:butt;stroke-linejoin:miter;stroke:rgb(0%,0%,0%);stroke-opacity:1;stroke-miterlimit:4;" d="M 359.098958 223.197917 L 359.802083 223.5 L 361.302083 222.697917 " transform="matrix(0.75,0,0,0.75,0,0)"/>
<path style="fill:none;stroke-width:2;stroke-linecap:butt;stroke-linejoin:miter;stroke:rgb(0%,0%,0%);stroke-opacity:1;stroke-miterlimit:4;" d="M 387.901042 207.098958 L 389.401042 206.197917 L 390 206.598958 " transform="matrix(0.75,0,0,0.75,0,0)"/>
<path style="fill:none;stroke-width:2;stroke-linecap:butt;stroke-linejoin:miter;stroke:rgb(0%,0%,0%);stroke-opacity:1;stroke-miterlimit:4;" d="M 449.901042 209.5 L 450.5 209.197917 L 451 209.697917 " transform="matrix(0.75,0,0,0.75,0,0)"/>
<path style="fill:none;stroke-width:2;stroke-linecap:butt;stroke-linejoin:miter;stroke:rgb(0%,0%,0%);stroke-opacity:1;stroke-miterlimit:4;" d="M 210.401042 199.697917 L 209.598958 199.901042 L 209.197917 201.5 " transform="matrix(0.75,0,0,0.75,0,0)"/>
<path style=" stroke:none;fill-rule:nonzero;fill:rgb(0%,0%,100%);fill-opacity:1;" d="M 46.273438 189.375 L 48.675781 193.199219 C 48.824219 193.449219 49.023438 193.800781 49.273438 194.25 C 49.523438 194.75 49.648438 195 49.648438 195 L 49.648438 189.375 L 50.625 189.375 L 50.625 196.648438 L 49.648438 196.648438 L 47.101562 192.449219 C 46.898438 192.101562 46.675781 191.726562 46.425781 191.324219 C 46.226562 190.976562 46.101562 190.75 46.050781 190.648438 L 46.050781 196.648438 L 45.074219 196.648438 L 45.074219 189.375 L 46.273438 189.375 "/>
<path style=" stroke:none;fill-rule:nonzero;fill:rgb(0%,0%,100%);fill-opacity:1;" d="M 72 190.574219 L 74.398438 194.476562 C 74.550781 194.726562 74.75 195.074219 75 195.523438 C 75.25 195.976562 75.375 196.226562 75.375 196.273438 L 75.375 190.574219 L 76.351562 190.574219 L 76.351562 197.925781 L 75.375 197.925781 L 72.824219 193.648438 C 72.625 193.351562 72.398438 193 72.148438 192.601562 C 71.949219 192.25 71.824219 192 71.773438 191.851562 L 71.773438 197.925781 L 70.800781 197.925781 L 70.800781 190.574219 L 72 190.574219 "/>
<path style=" stroke:none;fill-rule:nonzero;fill:rgb(80%,80%,0%);fill-opacity:1;" d="M 105.523438 165.898438 C 105.574219 165.949219 105.699219 166.023438 105.898438 166.125 C 106.148438 166.175781 106.398438 166.25 106.648438 166.351562 C 106.898438 166.398438 107.148438 166.425781 107.398438 166.425781 C 107.851562 166.425781 108.199219 166.300781 108.449219 166.050781 C 108.75 165.851562 108.898438 165.550781 108.898438 165.148438 C 108.898438 164.898438 108.824219 164.675781 108.675781 164.476562 C 108.523438 164.324219 108.351562 164.199219 108.148438 164.101562 C 107.949219 164.050781 107.675781 163.949219 107.324219 163.800781 C 106.925781 163.699219 106.574219 163.574219 106.273438 163.425781 C 106.023438 163.324219 105.824219 163.148438 105.675781 162.898438 C 105.476562 162.601562 105.375 162.25 105.375 161.851562 C 105.375 161.199219 105.574219 160.699219 105.976562 160.351562 C 106.425781 159.949219 107.050781 159.75 107.851562 159.75 C 108.398438 159.75 109 159.898438 109.648438 160.199219 L 109.425781 160.949219 C 108.824219 160.699219 108.300781 160.574219 107.851562 160.574219 C 107.398438 160.574219 107.050781 160.675781 106.800781 160.875 C 106.550781 161.074219 106.425781 161.351562 106.425781 161.699219 C 106.425781 161.949219 106.476562 162.148438 106.574219 162.300781 C 106.726562 162.5 106.898438 162.625 107.101562 162.675781 C 107.300781 162.773438 107.550781 162.875 107.851562 162.976562 C 108.300781 163.125 108.648438 163.273438 108.898438 163.425781 C 109.199219 163.523438 109.425781 163.726562 109.574219 164.023438 C 109.773438 164.324219 109.875 164.699219 109.875 165.148438 C 109.875 165.800781 109.648438 166.324219 109.199219 166.726562 C 108.75 167.074219 108.148438 167.25 107.398438 167.25 C 107 167.25 106.625 167.199219 106.273438 167.101562 C 105.976562 167 105.625 166.875 105.226562 166.726562 L 105.523438 165.898438 "/>
<path style=" stroke:none;fill-rule:nonzero;fill:rgb(100%,0%,0%);fill-opacity:1;" d="M 177.300781 235.949219 C 177.300781 234.800781 177.601562 233.898438 178.199219 233.25 C 178.75 232.601562 179.574219 232.273438 180.675781 232.273438 C 181.726562 232.273438 182.550781 232.601562 183.148438 233.25 C 183.699219 233.898438 183.976562 234.800781 183.976562 235.949219 C 183.976562 237.148438 183.699219 238.074219 183.148438 238.726562 C 182.550781 239.375 181.726562 239.699219 180.675781 239.699219 C 179.574219 239.699219 178.75 239.375 178.199219 238.726562 C 177.601562 238.074219 177.300781 237.148438 177.300781 235.949219 M 180.675781 238.875 C 181.425781 238.875 182 238.648438 182.398438 238.199219 C 182.800781 237.699219 183 236.949219 183 235.949219 C 183 235 182.800781 234.273438 182.398438 233.773438 C 182 233.324219 181.425781 233.101562 180.675781 233.101562 C 179.925781 233.101562 179.351562 233.324219 178.949219 233.773438 C 178.550781 234.273438 178.351562 235 178.351562 235.949219 C 178.351562 236.949219 178.550781 237.699219 178.949219 238.199219 C 179.351562 238.648438 179.925781 238.875 180.675781 238.875 "/>
<path style=" stroke:none;fill-rule:nonzero;fill:rgb(100%,0%,0%);fill-opacity:1;" d="M 126.976562 220.949219 L 127.949219 220.949219 L 127.949219 224.023438 L 131.699219 224.023438 L 131.699219 220.949219 L 132.675781 220.949219 L 132.675781 228.226562 L 131.699219 228.226562 L 131.699219 224.851562 L 127.949219 224.851562 L 127.949219 228.226562 L 126.976562 228.226562 L 126.976562 220.949219 "/>
<path style=" stroke:none;fill-rule:nonzero;fill:rgb(100%,0%,0%);fill-opacity:1;" d="M 134.175781 224.550781 C 134.175781 223.398438 134.476562 222.5 135.074219 221.851562 C 135.625 221.199219 136.449219 220.875 137.550781 220.875 C 138.601562 220.875 139.425781 221.199219 140.023438 221.851562 C 140.625 222.5 140.925781 223.398438 140.925781 224.550781 C 140.925781 225.75 140.625 226.699219 140.023438 227.398438 C 139.425781 228.050781 138.601562 228.375 137.550781 228.375 C 136.449219 228.375 135.625 228.050781 135.074219 227.398438 C 134.476562 226.699219 134.175781 225.75 134.175781 224.550781 M 137.550781 227.550781 C 138.300781 227.550781 138.875 227.300781 139.273438 226.800781 C 139.675781 226.300781 139.875 225.550781 139.875 224.550781 C 139.875 223.601562 139.675781 222.898438 139.273438 222.449219 C 138.875 221.949219 138.300781 221.699219 137.550781 221.699219 C 136.800781 221.699219 136.226562 221.949219 135.824219 222.449219 C 135.425781 222.898438 135.226562 223.601562 135.226562 224.550781 C 135.226562 225.550781 135.425781 226.300781 135.824219 226.800781 C 136.226562 227.300781 136.800781 227.550781 137.550781 227.550781 "/>
<path style=" stroke:none;fill-rule:nonzero;fill:rgb(0%,0%,100%);fill-opacity:1;" d="M 192.148438 182.476562 L 194.550781 186.375 C 194.699219 186.625 194.898438 186.976562 195.148438 187.425781 C 195.398438 187.875 195.550781 188.125 195.601562 188.175781 L 195.601562 182.476562 L 196.574219 182.476562 L 196.574219 189.824219 L 195.523438 189.824219 L 192.976562 185.550781 C 192.773438 185.25 192.574219 184.898438 192.375 184.5 C 192.175781 184.148438 192.050781 183.898438 192 183.75 L 192 189.824219 L 191.023438 189.824219 L 191.023438 182.476562 L 192.148438 182.476562 "/>
<path style=" stroke:none;fill-rule:nonzero;fill:rgb(100%,0%,0%);fill-opacity:1;" d="M 228.300781 214.949219 C 228.300781 213.800781 228.574219 212.898438 229.125 212.25 C 229.726562 211.601562 230.550781 211.273438 231.601562 211.273438 C 232.699219 211.273438 233.550781 211.601562 234.148438 212.25 C 234.699219 212.898438 234.976562 213.800781 234.976562 214.949219 C 234.976562 216.148438 234.675781 217.074219 234.074219 217.726562 C 233.523438 218.425781 232.699219 218.773438 231.601562 218.773438 C 230.550781 218.773438 229.726562 218.425781 229.125 217.726562 C 228.574219 217.074219 228.300781 216.148438 228.300781 214.949219 M 231.601562 217.949219 C 232.351562 217.949219 232.925781 217.699219 233.324219 217.199219 C 233.726562 216.699219 233.925781 215.949219 233.925781 214.949219 C 233.925781 214 233.726562 213.300781 233.324219 212.851562 C 232.925781 212.351562 232.351562 212.101562 231.601562 212.101562 C 230.898438 212.101562 230.351562 212.351562 229.949219 212.851562 C 229.550781 213.300781 229.351562 214 229.351562 214.949219 C 229.351562 215.949219 229.550781 216.699219 229.949219 217.199219 C 230.351562 217.699219 230.898438 217.949219 231.601562 217.949219 "/>
<path style=" stroke:none;fill-rule:nonzero;fill:rgb(0%,0%,100%);fill-opacity:1;" d="M 245.851562 151.199219 L 248.25 155.101562 C 248.398438 155.351562 248.601562 155.699219 248.851562 156.148438 C 249.101562 156.601562 249.25 156.851562 249.300781 156.898438 L 249.300781 151.199219 L 250.273438 151.199219 L 250.273438 158.476562 L 249.226562 158.476562 L 246.675781 154.273438 C 246.476562 153.976562 246.273438 153.625 246.074219 153.226562 C 245.875 152.824219 245.75 152.574219 245.699219 152.476562 L 245.699219 158.476562 L 244.726562 158.476562 L 244.726562 151.199219 L 245.851562 151.199219 "/>
<path style=" stroke:none;fill-rule:nonzero;fill:rgb(0%,0%,100%);fill-opacity:1;" d="M 244.648438 143.175781 L 245.625 143.175781 L 245.625 146.324219 L 249.375 146.324219 L 249.375 143.175781 L 250.351562 143.175781 L 250.351562 150.449219 L 249.375 150.449219 L 249.375 147.148438 L 245.625 147.148438 L 245.625 150.449219 L 244.648438 150.449219 L 244.648438 143.175781 "/>
<path style=" stroke:none;fill-rule:nonzero;fill:rgb(100%,0%,0%);fill-opacity:1;" d="M 266.550781 193.425781 C 266.550781 192.226562 266.851562 191.300781 267.449219 190.648438 C 268.050781 190 268.875 189.675781 269.925781 189.675781 C 271.023438 189.675781 271.851562 190 272.398438 190.648438 C 273 191.300781 273.300781 192.226562 273.300781 193.425781 C 273.300781 194.574219 273 195.5 272.398438 196.199219 C 271.800781 196.851562 270.976562 197.175781 269.925781 197.175781 C 268.875 197.175781 268.050781 196.851562 267.449219 196.199219 C 266.851562 195.550781 266.550781 194.625 266.550781 193.425781 M 269.925781 196.351562 C 270.675781 196.351562 271.25 196.101562 271.648438 195.601562 C 272.050781 195.101562 272.25 194.375 272.25 193.425781 C 272.25 192.476562 272.050781 191.75 271.648438 191.25 C 271.25 190.75 270.675781 190.5 269.925781 190.5 C 269.175781 190.5 268.601562 190.75 268.199219 191.25 C 267.800781 191.75 267.601562 192.476562 267.601562 193.425781 C 267.601562 194.375 267.800781 195.101562 268.199219 195.601562 C 268.601562 196.101562 269.175781 196.351562 269.925781 196.351562 "/>
<path style=" stroke:none;fill-rule:nonzero;fill:rgb(0%,0%,100%);fill-opacity:1;" d="M 312.824219 163.800781 L 315.226562 167.699219 C 315.375 167.949219 315.574219 168.300781 315.824219 168.75 C 316.074219 169.199219 316.199219 169.449219 316.199219 169.5 L 316.199219 163.800781 L 317.175781 163.800781 L 317.175781 171.074219 L 316.199219 171.074219 L 313.648438 166.875 C 313.449219 166.574219 313.226562 166.226562 312.976562 165.824219 C 312.773438 165.425781 312.648438 165.175781 312.601562 165.074219 L 312.601562 171.074219 L 311.625 171.074219 L 311.625 163.800781 L 312.824219 163.800781 "/>
<path style=" stroke:none;fill-rule:nonzero;fill:rgb(0%,0%,100%);fill-opacity:1;" d="M 353.550781 172.351562 L 355.949219 176.175781 C 356.101562 176.425781 356.300781 176.773438 356.550781 177.226562 C 356.851562 177.726562 357 177.976562 357 177.976562 L 357 172.351562 L 357.976562 172.351562 L 357.976562 179.625 L 356.925781 179.625 L 354.375 175.351562 C 354.175781 175.050781 353.976562 174.699219 353.773438 174.300781 C 353.574219 173.949219 353.449219 173.699219 353.398438 173.550781 L 353.398438 179.625 L 352.425781 179.625 L 352.425781 172.351562 L 353.550781 172.351562 "/>
<path style=" stroke:none;fill-rule:nonzero;fill:rgb(0%,0%,100%);fill-opacity:1;" d="M 340.800781 194.699219 L 343.199219 198.523438 C 343.351562 198.773438 343.550781 199.125 343.800781 199.574219 C 344.050781 200.023438 344.175781 200.273438 344.175781 200.324219 L 344.175781 194.699219 L 345.148438 194.699219 L 345.148438 201.976562 L 344.175781 201.976562 L 341.625 197.699219 C 341.425781 197.398438 341.226562 197.050781 341.023438 196.648438 C 340.773438 196.300781 340.625 196.050781 340.574219 195.898438 L 340.574219 201.976562 L 339.675781 201.976562 L 339.675781 194.699219 L 340.800781 194.699219 "/>
<path style=" stroke:none;fill-rule:nonzero;fill:rgb(0%,0%,100%);fill-opacity:1;" d="M 315.601562 189.375 L 318 193.273438 C 318.148438 193.523438 318.351562 193.875 318.601562 194.324219 C 318.851562 194.773438 318.976562 195.023438 318.976562 195.074219 L 318.976562 189.375 L 319.949219 189.375 L 319.949219 196.726562 L 318.976562 196.726562 L 316.425781 192.449219 C 316.226562 192.148438 316.023438 191.800781 315.824219 191.398438 C 315.574219 191.050781 315.425781 190.800781 315.375 190.648438 L 315.375 196.726562 L 314.476562 196.726562 L 314.476562 189.375 L 315.601562 189.375 "/>
<path style=" stroke:none;fill-rule:nonzero;fill:rgb(80%,80%,0%);fill-opacity:1;" d="M 180 145.648438 C 180.050781 145.648438 180.199219 145.699219 180.449219 145.800781 C 180.648438 145.898438 180.875 145.976562 181.125 146.023438 C 181.375 146.074219 181.625 146.101562 181.875 146.101562 C 182.375 146.101562 182.75 146 183 145.800781 C 183.25 145.550781 183.375 145.25 183.375 144.898438 C 183.375 144.601562 183.300781 144.375 183.148438 144.226562 C 183.050781 144.074219 182.898438 143.949219 182.699219 143.851562 C 182.5 143.75 182.226562 143.648438 181.875 143.550781 C 181.425781 143.398438 181.074219 143.273438 180.824219 143.175781 C 180.574219 143.023438 180.351562 142.824219 180.148438 142.574219 C 180 142.324219 179.925781 141.976562 179.925781 141.523438 C 179.925781 140.925781 180.125 140.425781 180.523438 140.023438 C 180.925781 139.675781 181.550781 139.5 182.398438 139.5 C 182.949219 139.5 183.550781 139.625 184.199219 139.875 L 183.898438 140.699219 C 183.351562 140.449219 182.851562 140.324219 182.398438 140.324219 C 181.949219 140.324219 181.574219 140.425781 181.273438 140.625 C 181.023438 140.824219 180.898438 141.101562 180.898438 141.449219 C 180.898438 141.699219 180.976562 141.898438 181.125 142.050781 C 181.273438 142.199219 181.425781 142.324219 181.574219 142.425781 C 181.773438 142.523438 182.050781 142.625 182.398438 142.726562 C 182.851562 142.824219 183.199219 142.949219 183.449219 143.101562 C 183.699219 143.25 183.925781 143.476562 184.125 143.773438 C 184.324219 144.023438 184.425781 144.398438 184.425781 144.898438 C 184.425781 145.550781 184.199219 146.050781 183.75 146.398438 C 183.300781 146.75 182.699219 146.925781 181.949219 146.925781 C 181.5 146.925781 181.125 146.898438 180.824219 146.851562 C 180.476562 146.75 180.101562 146.625 179.699219 146.476562 L 180 145.648438 "/>
<path style=" stroke:none;fill-rule:nonzero;fill:rgb(80%,80%,0%);fill-opacity:1;" d="M 60.601562 156.523438 C 60.648438 156.574219 60.773438 156.648438 60.976562 156.75 C 61.226562 156.851562 61.476562 156.925781 61.726562 156.976562 C 61.976562 157.023438 62.226562 157.050781 62.476562 157.050781 C 62.925781 157.050781 63.300781 156.949219 63.601562 156.75 C 63.851562 156.5 63.976562 156.175781 63.976562 155.773438 C 63.976562 155.523438 63.898438 155.324219 63.75 155.175781 C 63.648438 154.976562 63.476562 154.851562 63.226562 154.800781 C 63.023438 154.699219 62.75 154.601562 62.398438 154.5 C 62 154.351562 61.675781 154.226562 61.425781 154.125 C 61.125 153.976562 60.898438 153.773438 60.75 153.523438 C 60.550781 153.273438 60.449219 152.925781 60.449219 152.476562 C 60.449219 151.875 60.648438 151.375 61.050781 150.976562 C 61.5 150.625 62.125 150.449219 62.925781 150.449219 C 63.523438 150.449219 64.125 150.574219 64.726562 150.824219 L 64.5 151.648438 C 63.898438 151.398438 63.398438 151.273438 63 151.273438 C 62.5 151.273438 62.125 151.375 61.875 151.574219 C 61.625 151.773438 61.5 152.023438 61.5 152.324219 C 61.5 152.574219 61.574219 152.800781 61.726562 153 C 61.824219 153.148438 61.976562 153.273438 62.175781 153.375 C 62.375 153.425781 62.648438 153.5 63 153.601562 C 63.398438 153.75 63.75 153.898438 64.050781 154.050781 C 64.300781 154.199219 64.523438 154.398438 64.726562 154.648438 C 64.875 154.949219 64.949219 155.324219 64.949219 155.773438 C 64.949219 156.476562 64.726562 157 64.273438 157.351562 C 63.824219 157.699219 63.25 157.875 62.550781 157.875 C 62.101562 157.875 61.699219 157.824219 61.351562 157.726562 C 61.050781 157.625 60.699219 157.5 60.300781 157.351562 L 60.601562 156.523438 "/>
<path style=" stroke:none;fill-rule:nonzero;fill:rgb(0%,0%,0%);fill-opacity:1;" d="M 210.300781 135.300781 L 211.273438 135.300781 L 211.273438 138.375 L 215.023438 138.375 L 215.023438 135.300781 L 216 135.300781 L 216 142.574219 L 215.023438 142.574219 L 215.023438 139.199219 L 211.273438 139.199219 L 211.273438 142.574219 L 210.300781 142.574219 L 210.300781 135.300781 "/>
</g>
</svg>
