<?xml version="1.0" encoding="UTF-8"?>
<svg xmlns="http://www.w3.org/2000/svg" xmlns:xlink="http://www.w3.org/1999/xlink" width="375pt" height="375pt" viewBox="0 0 375 375" version="1.1">
<g id="surface176">
<rect x="0" y="0" width="375" height="375" style="fill:rgb(100%,100%,100%);fill-opacity:1;stroke:none;"/>
<path style="fill:none;stroke-width:2;stroke-linecap:butt;stroke-linejoin:miter;stroke:rgb(0%,0%,0%);stroke-opacity:1;stroke-miterlimit:4;" d="M 22.697917 265.302083 L 39.598958 262.401042 " transform="matrix(0.75,0,0,0.75,0,0)"/>
<path style="fill:none;stroke-width:2;stroke-linecap:butt;stroke-linejoin:miter;stroke:rgb(100%,0%,0%);stroke-opacity:1;stroke-miterlimit:4;" d="M 39.598958 262.401042 L 56.401042 259.598958 " transform="matrix(0.75,0,0,0.75,0,0)"/>
<path style="fill:none;stroke-width:2;stroke-linecap:butt;stroke-linejoin:miter;stroke:rgb(100%,0%,0%);stroke-opacity:1;stroke-miterlimit:4;" d="M 69.197917 265.802083 L 79.197917 277.901042 " transform="matrix(0.75,0,0,0.75,0,0)"/>
<path style="fill:none;stroke-width:2;stroke-linecap:butt;stroke-linejoin:miter;stroke:rgb(0%,0%,0%);stroke-opacity:1;stroke-miterlimit:4;" d="M 79.197917 277.901042 L 89.197917 289.901042 " transform="matrix(0.75,0,0,0.75,0,0)"/>
<path style="fill:none;stroke-width:2;stroke-linecap:butt;stroke-linejoin:miter;stroke:rgb(0%,0%,0%);stroke-opacity:1;stroke-miterlimit:4;" d="M 89.197917 289.901042 L 129.598958 283.098958 " transform="matrix(0.75,0,0,0.75,0,0)"/>
<path style="fill:none;stroke-width:2;stroke-linecap:butt;stroke-linejoin:miter;stroke:rgb(0%,0%,0%);stroke-opacity:1;stroke-miterlimit:4;" d="M 129.598958 283.098958 L 143.802083 244.697917 " transform="matrix(0.75,0,0,0.75,0,0)"/>
<path style="fill:none;stroke-width:2;stroke-linecap:butt;stroke-linejoin:miter;stroke:rgb(0%,0%,0%);stroke-opacity:1;stroke-miterlimit:4;" d="M 139.401042 280.098958 L 149.302083 253.302083 " transform="matrix(0.75,0,0,0.75,0,0)"/>
<path style="fill:none;stroke-width:2;stroke-linecap:butt;stroke-linejoin:miter;stroke:rgb(0%,0%,0%);stroke-opacity:1;stroke-miterlimit:4;" d="M 143.802083 244.697917 L 117.598958 213.197917 " transform="matrix(0.75,0,0,0.75,0,0)"/>
<path style="fill:none;stroke-width:2;stroke-linecap:butt;stroke-linejoin:miter;stroke:rgb(0%,0%,0%);stroke-opacity:1;stroke-miterlimit:4;" d="M 118.302083 217.197917 L 101.5 220.098958 " transform="matrix(0.75,0,0,0.75,0,0)"/>
<path style="fill:none;stroke-width:2;stroke-linecap:butt;stroke-linejoin:miter;stroke:rgb(100%,0%,0%);stroke-opacity:1;stroke-miterlimit:4;" d="M 101.5 220.098958 L 84.598958 222.901042 " transform="matrix(0.75,0,0,0.75,0,0)"/>
<path style="fill:none;stroke-width:2;stroke-linecap:butt;stroke-linejoin:miter;stroke:rgb(0%,0%,0%);stroke-opacity:1;stroke-miterlimit:4;" d="M 116.901042 209.098958 L 100.098958 212 " transform="matrix(0.75,0,0,0.75,0,0)"/>
<path style="fill:none;stroke-width:2;stroke-linecap:butt;stroke-linejoin:miter;stroke:rgb(100%,0%,0%);stroke-opacity:1;stroke-miterlimit:4;" d="M 100.098958 212 L 83.302083 214.901042 " transform="matrix(0.75,0,0,0.75,0,0)"/>
<path style="fill:none;stroke-width:2;stroke-linecap:butt;stroke-linejoin:miter;stroke:rgb(0%,0%,0%);stroke-opacity:1;stroke-miterlimit:4;" d="M 117.598958 213.197917 L 123.401042 197.697917 " transform="matrix(0.75,0,0,0.75,0,0)"/>
<path style="fill:none;stroke-width:2;stroke-linecap:butt;stroke-linejoin:miter;stroke:rgb(100%,0%,0%);stroke-opacity:1;stroke-miterlimit:4;" d="M 123.401042 197.697917 L 129.098958 182.197917 " transform="matrix(0.75,0,0,0.75,0,0)"/>
<path style="fill:none;stroke-width:2;stroke-linecap:butt;stroke-linejoin:miter;stroke:rgb(0%,0%,0%);stroke-opacity:1;stroke-miterlimit:4;" d="M 143.802083 244.697917 L 161.098958 241.697917 " transform="matrix(0.75,0,0,0.75,0,0)"/>
<path style="fill:none;stroke-width:2;stroke-linecap:butt;stroke-linejoin:miter;stroke:rgb(0%,0%,100%);stroke-opacity:1;stroke-miterlimit:4;" d="M 161.098958 241.697917 L 178.401042 238.802083 " transform="matrix(0.75,0,0,0.75,0,0)"/>
<path style="fill:none;stroke-width:2;stroke-linecap:butt;stroke-linejoin:miter;stroke:rgb(0%,0%,100%);stroke-opacity:1;stroke-miterlimit:4;" d="M 189.901042 233 L 202.697917 222.302083 " transform="matrix(0.75,0,0,0.75,0,0)"/>
<path style="fill:none;stroke-width:2;stroke-linecap:butt;stroke-linejoin:miter;stroke:rgb(0%,0%,0%);stroke-opacity:1;stroke-miterlimit:4;" d="M 202.697917 222.302083 L 215.598958 211.697917 " transform="matrix(0.75,0,0,0.75,0,0)"/>
<path style="fill:none;stroke-width:2;stroke-linecap:butt;stroke-linejoin:miter;stroke:rgb(0%,0%,0%);stroke-opacity:1;stroke-miterlimit:4;" d="M 211.5 211.302083 L 213.098958 194.598958 " transform="matrix(0.75,0,0,0.75,0,0)"/>
<path style="fill:none;stroke-width:2;stroke-linecap:butt;stroke-linejoin:miter;stroke:rgb(100%,0%,0%);stroke-opacity:1;stroke-miterlimit:4;" d="M 213.098958 194.598958 L 214.598958 177.901042 " transform="matrix(0.75,0,0,0.75,0,0)"/>
<path style="fill:none;stroke-width:2;stroke-linecap:butt;stroke-linejoin:miter;stroke:rgb(0%,0%,0%);stroke-opacity:1;stroke-miterlimit:4;" d="M 219.697917 212 L 221.197917 195.401042 " transform="matrix(0.75,0,0,0.75,0,0)"/>
<path style="fill:none;stroke-width:2;stroke-linecap:butt;stroke-linejoin:miter;stroke:rgb(100%,0%,0%);stroke-opacity:1;stroke-miterlimit:4;" d="M 221.197917 195.401042 L 222.802083 178.697917 " transform="matrix(0.75,0,0,0.75,0,0)"/>
<path style="fill:none;stroke-width:2;stroke-linecap:butt;stroke-linejoin:miter;stroke:rgb(0%,0%,0%);stroke-opacity:1;stroke-miterlimit:4;" d="M 215.598958 211.697917 L 241.802083 243.197917 " transform="matrix(0.75,0,0,0.75,0,0)"/>
<path style="fill-rule:evenodd;fill:rgb(0%,0%,0%);fill-opacity:1;stroke-width:1;stroke-linecap:butt;stroke-linejoin:miter;stroke:rgb(0%,0%,0%);stroke-opacity:1;stroke-miterlimit:4;" d="M 241.802083 243.197917 L 258.802083 242.697917 L 258.401042 246.802083 Z M 241.802083 243.197917 " transform="matrix(0.75,0,0,0.75,0,0)"/>
<path style="fill-rule:evenodd;fill:rgb(0%,0%,100%);fill-opacity:1;stroke-width:1;stroke-linecap:butt;stroke-linejoin:miter;stroke:rgb(0%,0%,100%);stroke-opacity:1;stroke-miterlimit:4;" d="M 258.802083 242.697917 L 275 250.401042 L 275.802083 242.197917 Z M 258.802083 242.697917 " transform="matrix(0.75,0,0,0.75,0,0)"/>
<path style="fill-rule:evenodd;fill:rgb(0%,0%,100%);fill-opacity:1;stroke-width:1;stroke-linecap:butt;stroke-linejoin:miter;stroke:rgb(0%,0%,100%);stroke-opacity:1;stroke-miterlimit:4;" d="M 258.802083 242.697917 L 258.401042 246.802083 L 275 250.401042 Z M 258.802083 242.697917 " transform="matrix(0.75,0,0,0.75,0,0)"/>
<path style="fill:none;stroke-width:2;stroke-linecap:butt;stroke-linejoin:miter;stroke:rgb(0%,0%,100%);stroke-opacity:1;stroke-miterlimit:4;" d="M 285.802083 254.098958 L 292.697917 269.098958 " transform="matrix(0.75,0,0,0.75,0,0)"/>
<path style="fill:none;stroke-width:2;stroke-linecap:butt;stroke-linejoin:miter;stroke:rgb(0%,0%,0%);stroke-opacity:1;stroke-miterlimit:4;" d="M 292.697917 269.098958 L 299.598958 284.098958 " transform="matrix(0.75,0,0,0.75,0,0)"/>
<path style="fill:none;stroke-width:2;stroke-linecap:butt;stroke-linejoin:miter;stroke:rgb(0%,0%,0%);stroke-opacity:1;stroke-miterlimit:4;" d="M 302.901042 286.5 L 293.697917 299.598958 " transform="matrix(0.75,0,0,0.75,0,0)"/>
<path style="fill:none;stroke-width:2;stroke-linecap:butt;stroke-linejoin:miter;stroke:rgb(100%,0%,0%);stroke-opacity:1;stroke-miterlimit:4;" d="M 293.697917 299.598958 L 284.401042 312.697917 " transform="matrix(0.75,0,0,0.75,0,0)"/>
<path style="fill:none;stroke-width:2;stroke-linecap:butt;stroke-linejoin:miter;stroke:rgb(0%,0%,0%);stroke-opacity:1;stroke-miterlimit:4;" d="M 296.302083 281.802083 L 287 294.901042 " transform="matrix(0.75,0,0,0.75,0,0)"/>
<path style="fill:none;stroke-width:2;stroke-linecap:butt;stroke-linejoin:miter;stroke:rgb(100%,0%,0%);stroke-opacity:1;stroke-miterlimit:4;" d="M 287 294.901042 L 277.697917 308 " transform="matrix(0.75,0,0,0.75,0,0)"/>
<path style="fill:none;stroke-width:2;stroke-linecap:butt;stroke-linejoin:miter;stroke:rgb(0%,0%,0%);stroke-opacity:1;stroke-miterlimit:4;" d="M 299.598958 284.098958 L 340.401042 287.901042 " transform="matrix(0.75,0,0,0.75,0,0)"/>
<path style="fill:none;stroke-width:2;stroke-linecap:butt;stroke-linejoin:miter;stroke:rgb(0%,0%,0%);stroke-opacity:1;stroke-miterlimit:4;" d="M 340.401042 287.901042 L 347.302083 303 " transform="matrix(0.75,0,0,0.75,0,0)"/>
<path style="fill:none;stroke-width:2;stroke-linecap:butt;stroke-linejoin:miter;stroke:rgb(0%,0%,100%);stroke-opacity:1;stroke-miterlimit:4;" d="M 347.302083 303 L 354.197917 318 " transform="matrix(0.75,0,0,0.75,0,0)"/>
<path style="fill:none;stroke-width:2;stroke-linecap:butt;stroke-linejoin:miter;stroke:rgb(0%,0%,0%);stroke-opacity:1;stroke-miterlimit:4;" d="M 335 295.901042 L 339.802083 306.401042 " transform="matrix(0.75,0,0,0.75,0,0)"/>
<path style="fill:none;stroke-width:2;stroke-linecap:butt;stroke-linejoin:miter;stroke:rgb(0%,0%,100%);stroke-opacity:1;stroke-miterlimit:4;" d="M 339.802083 306.401042 L 344.598958 316.901042 " transform="matrix(0.75,0,0,0.75,0,0)"/>
<path style="fill:none;stroke-width:2;stroke-linecap:butt;stroke-linejoin:miter;stroke:rgb(0%,0%,100%);stroke-opacity:1;stroke-miterlimit:4;" d="M 363.197917 325.697917 L 377.401042 327 " transform="matrix(0.75,0,0,0.75,0,0)"/>
<path style="fill:none;stroke-width:2;stroke-linecap:butt;stroke-linejoin:miter;stroke:rgb(100%,0%,0%);stroke-opacity:1;stroke-miterlimit:4;" d="M 377.401042 327 L 391.5 328.302083 " transform="matrix(0.75,0,0,0.75,0,0)"/>
<path style="fill:none;stroke-width:2;stroke-linecap:butt;stroke-linejoin:miter;stroke:rgb(0%,0%,0%);stroke-opacity:1;stroke-miterlimit:4;" d="M 340.401042 287.901042 L 364 254.5 " transform="matrix(0.75,0,0,0.75,0,0)"/>
<path style="fill:none;stroke-width:2;stroke-linecap:butt;stroke-linejoin:miter;stroke:rgb(0%,0%,0%);stroke-opacity:1;stroke-miterlimit:4;" d="M 364 254.5 L 350.901042 215.802083 " transform="matrix(0.75,0,0,0.75,0,0)"/>
<path style="fill:none;stroke-width:2;stroke-linecap:butt;stroke-linejoin:miter;stroke:rgb(0%,0%,0%);stroke-opacity:1;stroke-miterlimit:4;" d="M 369.802083 246.098958 L 360.598958 219 " transform="matrix(0.75,0,0,0.75,0,0)"/>
<path style="fill:none;stroke-width:2;stroke-linecap:butt;stroke-linejoin:miter;stroke:rgb(0%,0%,0%);stroke-opacity:1;stroke-miterlimit:4;" d="M 350.901042 215.802083 L 364.802083 205.401042 " transform="matrix(0.75,0,0,0.75,0,0)"/>
<path style="fill:none;stroke-width:2;stroke-linecap:butt;stroke-linejoin:miter;stroke:rgb(80%,80%,0%);stroke-opacity:1;stroke-miterlimit:4;" d="M 364.802083 205.401042 L 378.697917 195.098958 " transform="matrix(0.75,0,0,0.75,0,0)"/>
<path style="fill:none;stroke-width:2;stroke-linecap:butt;stroke-linejoin:miter;stroke:rgb(80%,80%,0%);stroke-opacity:1;stroke-miterlimit:4;" d="M 388.802083 194.901042 L 403 204.901042 " transform="matrix(0.75,0,0,0.75,0,0)"/>
<path style="fill:none;stroke-width:2;stroke-linecap:butt;stroke-linejoin:miter;stroke:rgb(0%,0%,0%);stroke-opacity:1;stroke-miterlimit:4;" d="M 403 204.901042 L 417.098958 215 " transform="matrix(0.75,0,0,0.75,0,0)"/>
<path style="fill:none;stroke-width:2;stroke-linecap:butt;stroke-linejoin:miter;stroke:rgb(0%,0%,0%);stroke-opacity:1;stroke-miterlimit:4;" d="M 417.098958 215 L 433.598958 209.401042 " transform="matrix(0.75,0,0,0.75,0,0)"/>
<path style="fill:none;stroke-width:2;stroke-linecap:butt;stroke-linejoin:miter;stroke:rgb(0%,0%,100%);stroke-opacity:1;stroke-miterlimit:4;" d="M 433.598958 209.401042 L 450.197917 203.802083 " transform="matrix(0.75,0,0,0.75,0,0)"/>
<path style="fill:none;stroke-width:2;stroke-linecap:butt;stroke-linejoin:miter;stroke:rgb(0%,0%,0%);stroke-opacity:1;stroke-miterlimit:4;" d="M 417.098958 215 L 412.098958 230.901042 " transform="matrix(0.75,0,0,0.75,0,0)"/>
<path style="fill:none;stroke-width:2;stroke-linecap:butt;stroke-linejoin:miter;stroke:rgb(0%,0%,100%);stroke-opacity:1;stroke-miterlimit:4;" d="M 412.098958 230.901042 L 407.197917 246.901042 " transform="matrix(0.75,0,0,0.75,0,0)"/>
<path style="fill:none;stroke-width:2;stroke-linecap:butt;stroke-linejoin:miter;stroke:rgb(0%,0%,0%);stroke-opacity:1;stroke-miterlimit:4;" d="M 407.802083 217.302083 L 404.302083 228.5 " transform="matrix(0.75,0,0,0.75,0,0)"/>
<path style="fill:none;stroke-width:2;stroke-linecap:butt;stroke-linejoin:miter;stroke:rgb(0%,0%,100%);stroke-opacity:1;stroke-miterlimit:4;" d="M 404.302083 228.5 L 400.802083 239.697917 " transform="matrix(0.75,0,0,0.75,0,0)"/>
<path style="fill:none;stroke-width:2;stroke-linecap:butt;stroke-linejoin:miter;stroke:rgb(0%,0%,0%);stroke-opacity:1;stroke-miterlimit:4;" d="M 241.802083 243.197917 L 210.302083 269.302083 " transform="matrix(0.75,0,0,0.75,0,0)"/>
<path style="fill:none;stroke-width:2;stroke-linecap:butt;stroke-linejoin:miter;stroke:rgb(0%,0%,0%);stroke-opacity:1;stroke-miterlimit:4;" d="M 210.302083 269.302083 L 204.5 284.901042 " transform="matrix(0.75,0,0,0.75,0,0)"/>
<path style="fill:none;stroke-width:2;stroke-linecap:butt;stroke-linejoin:miter;stroke:rgb(80%,80%,0%);stroke-opacity:1;stroke-miterlimit:4;" d="M 204.5 284.901042 L 198.697917 300.5 " transform="matrix(0.75,0,0,0.75,0,0)"/>
<path style="fill:none;stroke-width:2;stroke-linecap:butt;stroke-linejoin:miter;stroke:rgb(80%,80%,0%);stroke-opacity:1;stroke-miterlimit:4;" d="M 191 308.5 L 173.302083 311.5 " transform="matrix(0.75,0,0,0.75,0,0)"/>
<path style="fill:none;stroke-width:2;stroke-linecap:butt;stroke-linejoin:miter;stroke:rgb(0%,0%,0%);stroke-opacity:1;stroke-miterlimit:4;" d="M 173.302083 311.5 L 155.697917 314.598958 " transform="matrix(0.75,0,0,0.75,0,0)"/>
<path style="fill:none;stroke-width:2;stroke-linecap:butt;stroke-linejoin:miter;stroke:rgb(0%,0%,0%);stroke-opacity:1;stroke-miterlimit:4;" d="M 155.697917 314.598958 L 129.598958 283.098958 " transform="matrix(0.75,0,0,0.75,0,0)"/>
<path style="fill:none;stroke-width:2;stroke-linecap:butt;stroke-linejoin:miter;stroke:rgb(0%,0%,0%);stroke-opacity:1;stroke-miterlimit:4;" d="M 210.302083 269.302083 L 200.098958 257 " transform="matrix(0.75,0,0,0.75,0,0)"/>
<path style="fill:none;stroke-width:2;stroke-linecap:butt;stroke-linejoin:miter;stroke:rgb(0%,0%,100%);stroke-opacity:1;stroke-miterlimit:4;" d="M 200.098958 257 L 189.901042 244.697917 " transform="matrix(0.75,0,0,0.75,0,0)"/>
<path style="fill:none;stroke-width:2;stroke-linecap:butt;stroke-linejoin:miter;stroke:rgb(0%,0%,100%);stroke-opacity:1;stroke-miterlimit:4;" d="M 399.197917 254.098958 L 381.598958 254.302083 " transform="matrix(0.75,0,0,0.75,0,0)"/>
<path style="fill:none;stroke-width:2;stroke-linecap:butt;stroke-linejoin:miter;stroke:rgb(0%,0%,0%);stroke-opacity:1;stroke-miterlimit:4;" d="M 381.598958 254.302083 L 364 254.5 " transform="matrix(0.75,0,0,0.75,0,0)"/>
<path style="fill:none;stroke-width:1;stroke-linecap:butt;stroke-linejoin:miter;stroke:rgb(0%,0%,0%);stroke-opacity:1;stroke-miterlimit:4;" d="M 214.197917 272.901042 L 215 271.802083 " transform="matrix(0.75,0,0,0.75,0,0)"/>
<path style="fill:none;stroke-width:1;stroke-linecap:butt;stroke-linejoin:miter;stroke:rgb(0%,0%,0%);stroke-opacity:1;stroke-miterlimit:4;" d="M 218.197917 276.598958 L 219.802083 274.401042 " transform="matrix(0.75,0,0,0.75,0,0)"/>
<path style="fill:none;stroke-width:1;stroke-linecap:butt;stroke-linejoin:miter;stroke:rgb(0%,0%,0%);stroke-opacity:1;stroke-miterlimit:4;" d="M 222.098958 280.197917 L 224.5 276.901042 " transform="matrix(0.75,0,0,0.75,0,0)"/>
<path style="fill:none;stroke-width:1;stroke-linecap:butt;stroke-linejoin:miter;stroke:rgb(0%,0%,0%);stroke-opacity:1;stroke-miterlimit:4;" d="M 226.098958 283.901042 L 229.302083 279.401042 " transform="matrix(0.75,0,0,0.75,0,0)"/>
<path style="fill:none;stroke-width:1;stroke-linecap:butt;stroke-linejoin:miter;stroke:rgb(0%,0%,0%);stroke-opacity:1;stroke-miterlimit:4;" d="M 230.098958 287.5 L 234 282 " transform="matrix(0.75,0,0,0.75,0,0)"/>
<path style="fill:none;stroke-width:1;stroke-linecap:butt;stroke-linejoin:miter;stroke:rgb(0%,0%,0%);stroke-opacity:1;stroke-miterlimit:4;" d="M 234 291.197917 L 238.802083 284.5 " transform="matrix(0.75,0,0,0.75,0,0)"/>
<path style=" stroke:none;fill-rule:nonzero;fill:rgb(100%,0%,0%);fill-opacity:1;" d="M 43.351562 193.875 C 43.351562 192.476562 43.675781 191.375 44.324219 190.574219 C 45.023438 189.824219 46.023438 189.449219 47.324219 189.449219 C 48.574219 189.449219 49.550781 189.824219 50.25 190.574219 C 50.949219 191.375 51.300781 192.476562 51.300781 193.875 C 51.300781 195.273438 50.949219 196.375 50.25 197.175781 C 49.550781 197.976562 48.574219 198.375 47.324219 198.375 C 46.023438 198.375 45.023438 197.976562 44.324219 197.175781 C 43.675781 196.375 43.351562 195.273438 43.351562 193.875 M 47.324219 197.398438 C 48.175781 197.398438 48.851562 197.101562 49.351562 196.5 C 49.851562 195.898438 50.101562 195.023438 50.101562 193.875 C 50.101562 192.726562 49.851562 191.851562 49.351562 191.25 C 48.851562 190.699219 48.175781 190.425781 47.324219 190.425781 C 46.425781 190.425781 45.726562 190.699219 45.226562 191.25 C 44.773438 191.851562 44.550781 192.726562 44.550781 193.875 C 44.550781 195.023438 44.773438 195.898438 45.226562 196.5 C 45.726562 197.101562 46.425781 197.398438 47.324219 197.398438 "/>
<path style=" stroke:none;fill-rule:nonzero;fill:rgb(100%,0%,0%);fill-opacity:1;" d="M 54 165.074219 C 54 163.675781 54.324219 162.574219 54.976562 161.773438 C 55.675781 161.023438 56.675781 160.648438 57.976562 160.648438 C 59.273438 160.648438 60.25 161.023438 60.898438 161.773438 C 61.601562 162.574219 61.949219 163.675781 61.949219 165.074219 C 61.949219 166.476562 61.601562 167.574219 60.898438 168.375 C 60.199219 169.175781 59.226562 169.574219 57.976562 169.574219 C 56.675781 169.574219 55.675781 169.175781 54.976562 168.375 C 54.324219 167.574219 54 166.476562 54 165.074219 M 57.976562 168.601562 C 58.875 168.601562 59.550781 168.300781 60 167.699219 C 60.5 167.101562 60.75 166.226562 60.75 165.074219 C 60.75 163.925781 60.5 163.074219 60 162.523438 C 59.550781 161.925781 58.875 161.625 57.976562 161.625 C 57.074219 161.625 56.398438 161.898438 55.949219 162.449219 C 55.449219 163.050781 55.199219 163.925781 55.199219 165.074219 C 55.199219 166.226562 55.449219 167.101562 55.949219 167.699219 C 56.398438 168.300781 57.074219 168.601562 57.976562 168.601562 "/>
<path style=" stroke:none;fill-rule:nonzero;fill:rgb(100%,0%,0%);fill-opacity:1;" d="M 94.875 131.101562 C 94.875 129.699219 95.226562 128.625 95.925781 127.875 C 96.625 127.074219 97.601562 126.675781 98.851562 126.675781 C 100.148438 126.675781 101.148438 127.074219 101.851562 127.875 C 102.550781 128.625 102.898438 129.699219 102.898438 131.101562 C 102.898438 132.5 102.550781 133.601562 101.851562 134.398438 C 101.148438 135.199219 100.148438 135.601562 98.851562 135.601562 C 97.601562 135.601562 96.625 135.199219 95.925781 134.398438 C 95.226562 133.648438 94.875 132.550781 94.875 131.101562 M 98.851562 134.625 C 99.75 134.625 100.449219 134.324219 100.949219 133.726562 C 101.398438 133.125 101.625 132.25 101.625 131.101562 C 101.625 129.949219 101.398438 129.101562 100.949219 128.550781 C 100.449219 127.949219 99.75 127.648438 98.851562 127.648438 C 98 127.648438 97.324219 127.949219 96.824219 128.550781 C 96.375 129.101562 96.148438 129.949219 96.148438 131.101562 C 96.148438 132.300781 96.375 133.175781 96.824219 133.726562 C 97.324219 134.324219 98 134.625 98.851562 134.625 "/>
<path style=" stroke:none;fill-rule:nonzero;fill:rgb(100%,0%,0%);fill-opacity:1;" d="M 103.5 126.824219 L 104.699219 126.824219 L 104.699219 130.5 L 109.125 130.5 L 109.125 126.824219 L 110.324219 126.824219 L 110.324219 135.449219 L 109.125 135.449219 L 109.125 131.476562 L 104.699219 131.476562 L 104.699219 135.449219 L 103.5 135.449219 L 103.5 126.824219 "/>
<path style=" stroke:none;fill-rule:nonzero;fill:rgb(0%,0%,100%);fill-opacity:1;" d="M 136.199219 174 L 139.050781 178.574219 C 139.199219 178.875 139.425781 179.300781 139.726562 179.851562 C 140.023438 180.398438 140.199219 180.699219 140.25 180.75 L 140.25 174 L 141.375 174 L 141.375 182.699219 L 140.175781 182.699219 L 137.101562 177.675781 C 136.898438 177.273438 136.675781 176.851562 136.425781 176.398438 C 136.175781 175.949219 136 175.648438 135.898438 175.5 L 135.898438 182.699219 L 134.773438 182.699219 L 134.773438 174 L 136.199219 174 "/>
<path style=" stroke:none;fill-rule:nonzero;fill:rgb(100%,0%,0%);fill-opacity:1;" d="M 160.574219 128.175781 C 160.574219 126.773438 160.925781 125.699219 161.625 124.949219 C 162.273438 124.148438 163.25 123.75 164.550781 123.75 C 165.851562 123.75 166.851562 124.148438 167.550781 124.949219 C 168.199219 125.699219 168.523438 126.773438 168.523438 128.175781 C 168.523438 129.574219 168.175781 130.699219 167.476562 131.550781 C 166.824219 132.300781 165.851562 132.675781 164.550781 132.675781 C 163.300781 132.675781 162.324219 132.300781 161.625 131.550781 C 160.925781 130.75 160.574219 129.625 160.574219 128.175781 M 164.550781 131.699219 C 165.449219 131.699219 166.125 131.425781 166.574219 130.875 C 167.074219 130.273438 167.324219 129.375 167.324219 128.175781 C 167.324219 127.074219 167.074219 126.226562 166.574219 125.625 C 166.125 125.023438 165.449219 124.726562 164.550781 124.726562 C 163.648438 124.726562 162.976562 125.023438 162.523438 125.625 C 162.023438 126.175781 161.773438 127.023438 161.773438 128.175781 C 161.773438 129.375 162.023438 130.273438 162.523438 130.875 C 162.976562 131.425781 163.648438 131.699219 164.550781 131.699219 "/>
<path style=" stroke:none;fill-rule:nonzero;fill:rgb(0%,0%,100%);fill-opacity:1;" d="M 209.925781 180.898438 L 212.773438 185.476562 C 212.976562 185.773438 213.226562 186.199219 213.523438 186.75 C 213.824219 187.300781 214 187.601562 214.050781 187.648438 L 214.050781 180.898438 L 215.175781 180.898438 L 215.175781 189.523438 L 213.976562 189.523438 L 210.898438 184.5 C 210.699219 184.101562 210.476562 183.675781 210.226562 183.226562 C 209.976562 182.773438 209.800781 182.5 209.699219 182.398438 L 209.699219 189.523438 L 208.574219 189.523438 L 208.574219 180.898438 L 209.925781 180.898438 "/>
<path style=" stroke:none;fill-rule:nonzero;fill:rgb(0%,0%,100%);fill-opacity:1;" d="M 216.226562 180.898438 L 217.351562 180.898438 L 217.351562 184.574219 L 221.851562 184.574219 L 221.851562 180.898438 L 222.976562 180.898438 L 222.976562 189.523438 L 221.851562 189.523438 L 221.851562 185.550781 L 217.351562 185.550781 L 217.351562 189.523438 L 216.226562 189.523438 L 216.226562 180.898438 "/>
<path style=" stroke:none;fill-rule:nonzero;fill:rgb(100%,0%,0%);fill-opacity:1;" d="M 202.949219 238.199219 C 202.949219 236.800781 203.300781 235.699219 204 234.898438 C 204.699219 234.148438 205.675781 233.773438 206.925781 233.773438 C 208.226562 233.773438 209.226562 234.148438 209.925781 234.898438 C 210.625 235.699219 210.976562 236.800781 210.976562 238.199219 C 210.976562 239.601562 210.625 240.699219 209.925781 241.5 C 209.226562 242.300781 208.226562 242.699219 206.925781 242.699219 C 205.675781 242.699219 204.699219 242.300781 204 241.5 C 203.300781 240.699219 202.949219 239.601562 202.949219 238.199219 M 206.925781 241.726562 C 207.824219 241.726562 208.523438 241.425781 209.023438 240.824219 C 209.476562 240.226562 209.699219 239.351562 209.699219 238.199219 C 209.699219 237.050781 209.476562 236.175781 209.023438 235.574219 C 208.523438 235.023438 207.824219 234.75 206.925781 234.75 C 206.074219 234.75 205.398438 235.023438 204.898438 235.574219 C 204.449219 236.175781 204.226562 237.050781 204.226562 238.199219 C 204.226562 239.351562 204.449219 240.226562 204.898438 240.824219 C 205.398438 241.425781 206.074219 241.726562 206.925781 241.726562 "/>
<path style=" stroke:none;fill-rule:nonzero;fill:rgb(0%,0%,100%);fill-opacity:1;" d="M 266.175781 239.476562 L 269.023438 244.125 C 269.226562 244.425781 269.476562 244.851562 269.773438 245.398438 C 270.074219 245.949219 270.226562 246.226562 270.226562 246.226562 L 270.226562 239.476562 L 271.351562 239.476562 L 271.351562 248.175781 L 270.148438 248.175781 L 267.148438 243.148438 C 266.898438 242.75 266.648438 242.324219 266.398438 241.875 C 266.148438 241.425781 266 241.125 265.949219 240.976562 L 265.949219 248.175781 L 264.75 248.175781 L 264.75 239.476562 L 266.175781 239.476562 "/>
<path style=" stroke:none;fill-rule:nonzero;fill:rgb(100%,0%,0%);fill-opacity:1;" d="M 294.675781 246.75 C 294.675781 245.351562 295.023438 244.25 295.726562 243.449219 C 296.375 242.699219 297.351562 242.324219 298.648438 242.324219 C 299.949219 242.324219 300.925781 242.699219 301.574219 243.449219 C 302.273438 244.25 302.625 245.351562 302.625 246.75 C 302.625 248.148438 302.273438 249.25 301.574219 250.050781 C 300.875 250.851562 299.898438 251.25 298.648438 251.25 C 297.351562 251.25 296.375 250.851562 295.726562 250.050781 C 295.023438 249.25 294.675781 248.148438 294.675781 246.75 M 298.648438 250.273438 C 299.550781 250.273438 300.226562 249.976562 300.675781 249.375 C 301.175781 248.773438 301.425781 247.898438 301.425781 246.75 C 301.425781 245.601562 301.175781 244.726562 300.675781 244.125 C 300.226562 243.574219 299.550781 243.300781 298.648438 243.300781 C 297.75 243.300781 297.074219 243.574219 296.625 244.125 C 296.125 244.726562 295.875 245.601562 295.875 246.75 C 295.875 247.898438 296.125 248.773438 296.625 249.375 C 297.074219 249.976562 297.75 250.273438 298.648438 250.273438 "/>
<path style=" stroke:none;fill-rule:nonzero;fill:rgb(100%,0%,0%);fill-opacity:1;" d="M 303.226562 242.398438 L 304.425781 242.398438 L 304.425781 246.074219 L 308.851562 246.074219 L 308.851562 242.398438 L 310.050781 242.398438 L 310.050781 251.101562 L 308.851562 251.101562 L 308.851562 247.050781 L 304.425781 247.050781 L 304.425781 251.101562 L 303.226562 251.101562 L 303.226562 242.398438 "/>
<path style=" stroke:none;fill-rule:nonzero;fill:rgb(80%,80%,0%);fill-opacity:1;" d="M 285.375 146.476562 C 285.425781 146.476562 285.574219 146.550781 285.824219 146.699219 C 286.125 146.800781 286.425781 146.875 286.726562 146.925781 C 287.023438 147.023438 287.324219 147.074219 287.625 147.074219 C 288.125 147.074219 288.550781 146.949219 288.898438 146.699219 C 289.199219 146.398438 289.351562 146.023438 289.351562 145.574219 C 289.351562 145.226562 289.273438 144.949219 289.125 144.75 C 288.976562 144.601562 288.773438 144.449219 288.523438 144.300781 C 288.273438 144.199219 287.949219 144.101562 287.550781 144 C 287.050781 143.851562 286.625 143.699219 286.273438 143.550781 C 285.976562 143.398438 285.726562 143.175781 285.523438 142.875 C 285.324219 142.523438 285.226562 142.101562 285.226562 141.601562 C 285.226562 140.851562 285.449219 140.25 285.898438 139.800781 C 286.398438 139.351562 287.148438 139.125 288.148438 139.125 C 288.800781 139.125 289.523438 139.300781 290.324219 139.648438 L 290.023438 140.550781 C 289.324219 140.300781 288.726562 140.175781 288.226562 140.175781 C 287.625 140.175781 287.175781 140.273438 286.875 140.476562 C 286.574219 140.726562 286.425781 141.050781 286.425781 141.449219 C 286.425781 141.75 286.5 142 286.648438 142.199219 C 286.800781 142.398438 287 142.550781 287.25 142.648438 C 287.5 142.75 287.824219 142.851562 288.226562 142.949219 C 288.726562 143.148438 289.125 143.324219 289.425781 143.476562 C 289.726562 143.625 290 143.875 290.25 144.226562 C 290.449219 144.574219 290.550781 145.023438 290.550781 145.574219 C 290.550781 146.375 290.300781 147 289.800781 147.449219 C 289.25 147.851562 288.523438 148.050781 287.625 148.050781 C 287.125 148.050781 286.675781 148 286.273438 147.898438 C 285.875 147.800781 285.449219 147.648438 285 147.449219 L 285.375 146.476562 "/>
<path style=" stroke:none;fill-rule:nonzero;fill:rgb(0%,0%,100%);fill-opacity:1;" d="M 339.976562 147.074219 L 342.824219 151.648438 C 343.023438 151.949219 343.273438 152.375 343.574219 152.925781 C 343.875 153.476562 344.050781 153.773438 344.101562 153.824219 L 344.101562 147.074219 L 345.226562 147.074219 L 345.226562 155.773438 L 344.023438 155.773438 L 340.949219 150.75 C 340.75 150.351562 340.523438 149.925781 340.273438 149.476562 C 340.023438 149.023438 339.851562 148.726562 339.75 148.574219 L 339.75 155.773438 L 338.625 155.773438 L 338.625 147.074219 L 339.976562 147.074219 "/>
<path style=" stroke:none;fill-rule:nonzero;fill:rgb(0%,0%,100%);fill-opacity:1;" d="M 346.273438 147.074219 L 347.398438 147.074219 L 347.398438 150.75 L 351.898438 150.75 L 351.898438 147.074219 L 353.023438 147.074219 L 353.023438 155.773438 L 351.898438 155.773438 L 351.898438 151.726562 L 347.398438 151.726562 L 347.398438 155.773438 L 346.273438 155.773438 L 346.273438 147.074219 "/>
<path style=" stroke:none;fill-rule:nonzero;fill:rgb(0%,0%,100%);fill-opacity:1;" d="M 354.074219 155.476562 C 354.226562 155.074219 354.476562 154.773438 354.824219 154.574219 C 355.175781 154.375 355.574219 154.273438 356.023438 154.273438 C 356.574219 154.273438 357.023438 154.425781 357.375 154.726562 C 357.675781 155.074219 357.824219 155.523438 357.824219 156.074219 C 357.824219 156.625 357.625 157.175781 357.226562 157.726562 C 356.824219 158.226562 356.175781 158.800781 355.273438 159.449219 L 357.976562 159.449219 L 357.976562 160.125 L 354.074219 160.125 L 354.074219 159.523438 C 354.773438 159.023438 355.351562 158.601562 355.800781 158.25 C 356.199219 157.851562 356.523438 157.476562 356.773438 157.125 C 356.976562 156.773438 357.074219 156.425781 357.074219 156.074219 C 357.074219 155.726562 356.976562 155.449219 356.773438 155.25 C 356.574219 155.050781 356.324219 154.949219 356.023438 154.949219 C 355.726562 154.949219 355.476562 155 355.273438 155.101562 C 355.074219 155.25 354.898438 155.449219 354.75 155.699219 L 354.074219 155.476562 "/>
<path style=" stroke:none;fill-rule:nonzero;fill:rgb(0%,0%,100%);fill-opacity:1;" d="M 301.800781 186.226562 L 304.648438 190.800781 C 304.851562 191.101562 305.101562 191.523438 305.398438 192.074219 C 305.699219 192.625 305.851562 192.925781 305.851562 192.976562 L 305.851562 186.226562 L 306.976562 186.226562 L 306.976562 194.851562 L 305.851562 194.851562 L 302.773438 189.824219 C 302.523438 189.425781 302.273438 189 302.023438 188.550781 C 301.773438 188.101562 301.625 187.824219 301.574219 187.726562 L 301.574219 194.851562 L 300.375 194.851562 L 300.375 186.226562 L 301.800781 186.226562 "/>
<path style=" stroke:none;fill-rule:nonzero;fill:rgb(80%,80%,0%);fill-opacity:1;" d="M 144.601562 233.699219 C 144.648438 233.75 144.800781 233.824219 145.050781 233.925781 C 145.351562 234.074219 145.648438 234.175781 145.949219 234.226562 C 146.25 234.273438 146.550781 234.300781 146.851562 234.300781 C 147.398438 234.300781 147.824219 234.175781 148.125 233.925781 C 148.425781 233.675781 148.574219 233.300781 148.574219 232.800781 C 148.574219 232.5 148.5 232.25 148.351562 232.050781 C 148.199219 231.851562 148 231.699219 147.75 231.601562 C 147.5 231.5 147.175781 231.375 146.773438 231.226562 C 146.273438 231.074219 145.851562 230.925781 145.5 230.773438 C 145.199219 230.625 144.949219 230.398438 144.75 230.101562 C 144.550781 229.800781 144.449219 229.375 144.449219 228.824219 C 144.449219 228.125 144.675781 227.550781 145.125 227.101562 C 145.625 226.648438 146.375 226.425781 147.375 226.425781 C 148.074219 226.425781 148.800781 226.574219 149.550781 226.875 L 149.25 227.851562 C 148.550781 227.550781 147.949219 227.398438 147.449219 227.398438 C 146.851562 227.398438 146.398438 227.523438 146.101562 227.773438 C 145.800781 228.023438 145.648438 228.351562 145.648438 228.75 C 145.648438 229.050781 145.726562 229.300781 145.875 229.5 C 146.023438 229.648438 146.226562 229.773438 146.476562 229.875 C 146.726562 230.023438 147.050781 230.148438 147.449219 230.25 C 147.949219 230.398438 148.351562 230.574219 148.648438 230.773438 C 149 230.925781 149.273438 231.175781 149.476562 231.523438 C 149.726562 231.824219 149.851562 232.25 149.851562 232.800781 C 149.851562 233.601562 149.574219 234.226562 149.023438 234.675781 C 148.476562 235.125 147.75 235.351562 146.851562 235.351562 C 146.351562 235.351562 145.898438 235.273438 145.5 235.125 C 145.101562 235.023438 144.675781 234.875 144.226562 234.675781 L 144.601562 233.699219 "/>
<path style=" stroke:none;fill-rule:nonzero;fill:rgb(0%,0%,0%);fill-opacity:1;" d="M 179.324219 215.398438 L 180.523438 215.398438 L 180.523438 219.074219 L 184.949219 219.074219 L 184.949219 215.398438 L 186.148438 215.398438 L 186.148438 224.023438 L 184.949219 224.023438 L 184.949219 220.050781 L 180.523438 220.050781 L 180.523438 224.023438 L 179.324219 224.023438 L 179.324219 215.398438 "/>
</g>
</svg>
