<?xml version="1.0" encoding="UTF-8"?>
<svg xmlns="http://www.w3.org/2000/svg" xmlns:xlink="http://www.w3.org/1999/xlink" width="375pt" height="375pt" viewBox="0 0 375 375" version="1.1">
<g id="surface221">
<rect x="0" y="0" width="375" height="375" style="fill:rgb(100%,100%,100%);fill-opacity:1;stroke:none;"/>
<path style="fill:none;stroke-width:2;stroke-linecap:butt;stroke-linejoin:miter;stroke:rgb(0%,0%,0%);stroke-opacity:1;stroke-miterlimit:4;" d="M 121.302083 121.901042 L 124.302083 138.098958 " transform="matrix(0.75,0,0,0.75,0,0)"/>
<path style="fill:none;stroke-width:2;stroke-linecap:butt;stroke-linejoin:miter;stroke:rgb(100%,0%,0%);stroke-opacity:1;stroke-miterlimit:4;" d="M 124.302083 138.098958 L 127.302083 154.302083 " transform="matrix(0.75,0,0,0.75,0,0)"/>
<path style="fill:none;stroke-width:2;stroke-linecap:butt;stroke-linejoin:miter;stroke:rgb(100%,0%,0%);stroke-opacity:1;stroke-miterlimit:4;" d="M 135.098958 163.697917 L 147.901042 168.197917 " transform="matrix(0.75,0,0,0.75,0,0)"/>
<path style="fill:none;stroke-width:2;stroke-linecap:butt;stroke-linejoin:miter;stroke:rgb(0%,0%,100%);stroke-opacity:1;stroke-miterlimit:4;" d="M 147.901042 168.197917 L 160.697917 172.802083 " transform="matrix(0.75,0,0,0.75,0,0)"/>
<path style="fill:none;stroke-width:2;stroke-linecap:butt;stroke-linejoin:miter;stroke:rgb(0%,0%,100%);stroke-opacity:1;stroke-miterlimit:4;" d="M 167.598958 181.802083 L 170.598958 198 " transform="matrix(0.75,0,0,0.75,0,0)"/>
<path style="fill:none;stroke-width:2;stroke-linecap:butt;stroke-linejoin:miter;stroke:rgb(0%,0%,0%);stroke-opacity:1;stroke-miterlimit:4;" d="M 170.598958 198 L 173.598958 214.302083 " transform="matrix(0.75,0,0,0.75,0,0)"/>
<path style="fill:none;stroke-width:2;stroke-linecap:butt;stroke-linejoin:miter;stroke:rgb(0%,0%,100%);stroke-opacity:1;stroke-miterlimit:4;" d="M 160.598958 188.098958 L 162.697917 199.5 " transform="matrix(0.75,0,0,0.75,0,0)"/>
<path style="fill:none;stroke-width:2;stroke-linecap:butt;stroke-linejoin:miter;stroke:rgb(0%,0%,0%);stroke-opacity:1;stroke-miterlimit:4;" d="M 162.697917 199.5 L 164.802083 210.802083 " transform="matrix(0.75,0,0,0.75,0,0)"/>
<path style="fill:none;stroke-width:2;stroke-linecap:butt;stroke-linejoin:miter;stroke:rgb(0%,0%,0%);stroke-opacity:1;stroke-miterlimit:4;" d="M 173.598958 214.302083 L 211.401042 227.697917 " transform="matrix(0.75,0,0,0.75,0,0)"/>
<path style="fill:none;stroke-width:2;stroke-linecap:butt;stroke-linejoin:miter;stroke:rgb(0%,0%,0%);stroke-opacity:1;stroke-miterlimit:4;" d="M 208.802083 224.697917 L 220.802083 214.5 " transform="matrix(0.75,0,0,0.75,0,0)"/>
<path style="fill:none;stroke-width:2;stroke-linecap:butt;stroke-linejoin:miter;stroke:rgb(100%,0%,0%);stroke-opacity:1;stroke-miterlimit:4;" d="M 220.802083 214.5 L 232.802083 204.197917 " transform="matrix(0.75,0,0,0.75,0,0)"/>
<path style="fill:none;stroke-width:2;stroke-linecap:butt;stroke-linejoin:miter;stroke:rgb(0%,0%,0%);stroke-opacity:1;stroke-miterlimit:4;" d="M 214 230.802083 L 226 220.598958 " transform="matrix(0.75,0,0,0.75,0,0)"/>
<path style="fill:none;stroke-width:2;stroke-linecap:butt;stroke-linejoin:miter;stroke:rgb(100%,0%,0%);stroke-opacity:1;stroke-miterlimit:4;" d="M 226 220.598958 L 238 210.401042 " transform="matrix(0.75,0,0,0.75,0,0)"/>
<path style="fill:none;stroke-width:2;stroke-linecap:butt;stroke-linejoin:miter;stroke:rgb(0%,0%,0%);stroke-opacity:1;stroke-miterlimit:4;" d="M 211.401042 227.697917 L 214.401042 244 " transform="matrix(0.75,0,0,0.75,0,0)"/>
<path style="fill:none;stroke-width:2;stroke-linecap:butt;stroke-linejoin:miter;stroke:rgb(0%,0%,100%);stroke-opacity:1;stroke-miterlimit:4;" d="M 214.401042 244 L 217.302083 260.197917 " transform="matrix(0.75,0,0,0.75,0,0)"/>
<path style="fill-rule:evenodd;fill:rgb(0%,0%,0%);fill-opacity:1;stroke-width:1;stroke-linecap:butt;stroke-linejoin:miter;stroke:rgb(0%,0%,0%);stroke-opacity:1;stroke-miterlimit:4;" d="M 256.401042 280.697917 L 240.302083 277.098958 L 241.697917 273.302083 Z M 256.401042 280.697917 " transform="matrix(0.75,0,0,0.75,0,0)"/>
<path style="fill-rule:evenodd;fill:rgb(0%,0%,100%);fill-opacity:1;stroke-width:1;stroke-linecap:butt;stroke-linejoin:miter;stroke:rgb(0%,0%,100%);stroke-opacity:1;stroke-miterlimit:4;" d="M 240.302083 277.098958 L 226.901042 265.901042 L 224.197917 273.5 Z M 240.302083 277.098958 " transform="matrix(0.75,0,0,0.75,0,0)"/>
<path style="fill-rule:evenodd;fill:rgb(0%,0%,100%);fill-opacity:1;stroke-width:1;stroke-linecap:butt;stroke-linejoin:miter;stroke:rgb(0%,0%,100%);stroke-opacity:1;stroke-miterlimit:4;" d="M 240.302083 277.098958 L 241.697917 273.302083 L 226.901042 265.901042 Z M 240.302083 277.098958 " transform="matrix(0.75,0,0,0.75,0,0)"/>
<path style="fill:none;stroke-width:2;stroke-linecap:butt;stroke-linejoin:miter;stroke:rgb(0%,0%,0%);stroke-opacity:1;stroke-miterlimit:4;" d="M 256.401042 280.697917 L 273.598958 316.901042 " transform="matrix(0.75,0,0,0.75,0,0)"/>
<path style="fill:none;stroke-width:2;stroke-linecap:butt;stroke-linejoin:miter;stroke:rgb(0%,0%,0%);stroke-opacity:1;stroke-miterlimit:4;" d="M 277.401042 318.302083 L 271.901042 333.598958 " transform="matrix(0.75,0,0,0.75,0,0)"/>
<path style="fill:none;stroke-width:2;stroke-linecap:butt;stroke-linejoin:miter;stroke:rgb(100%,0%,0%);stroke-opacity:1;stroke-miterlimit:4;" d="M 271.901042 333.598958 L 266.5 349 " transform="matrix(0.75,0,0,0.75,0,0)"/>
<path style="fill:none;stroke-width:2;stroke-linecap:butt;stroke-linejoin:miter;stroke:rgb(0%,0%,0%);stroke-opacity:1;stroke-miterlimit:4;" d="M 269.901042 315.598958 L 264.401042 330.901042 " transform="matrix(0.75,0,0,0.75,0,0)"/>
<path style="fill:none;stroke-width:2;stroke-linecap:butt;stroke-linejoin:miter;stroke:rgb(100%,0%,0%);stroke-opacity:1;stroke-miterlimit:4;" d="M 264.401042 330.901042 L 258.901042 346.302083 " transform="matrix(0.75,0,0,0.75,0,0)"/>
<path style="fill:none;stroke-width:2;stroke-linecap:butt;stroke-linejoin:miter;stroke:rgb(0%,0%,0%);stroke-opacity:1;stroke-miterlimit:4;" d="M 273.598958 316.901042 L 288.901042 309.697917 " transform="matrix(0.75,0,0,0.75,0,0)"/>
<path style="fill:none;stroke-width:2;stroke-linecap:butt;stroke-linejoin:miter;stroke:rgb(0%,0%,100%);stroke-opacity:1;stroke-miterlimit:4;" d="M 288.901042 309.697917 L 304.302083 302.401042 " transform="matrix(0.75,0,0,0.75,0,0)"/>
<path style="fill:none;stroke-width:2;stroke-linecap:butt;stroke-linejoin:miter;stroke:rgb(0%,0%,100%);stroke-opacity:1;stroke-miterlimit:4;" d="M 315.5 300.197917 L 332.697917 301.598958 " transform="matrix(0.75,0,0,0.75,0,0)"/>
<path style="fill:none;stroke-width:2;stroke-linecap:butt;stroke-linejoin:miter;stroke:rgb(0%,0%,0%);stroke-opacity:1;stroke-miterlimit:4;" d="M 332.697917 301.598958 L 349.901042 302.901042 " transform="matrix(0.75,0,0,0.75,0,0)"/>
<path style="fill:none;stroke-width:2;stroke-linecap:butt;stroke-linejoin:miter;stroke:rgb(0%,0%,0%);stroke-opacity:1;stroke-miterlimit:4;" d="M 349.901042 302.901042 L 367.098958 339.197917 " transform="matrix(0.75,0,0,0.75,0,0)"/>
<path style="fill:none;stroke-width:2;stroke-linecap:butt;stroke-linejoin:miter;stroke:rgb(0%,0%,0%);stroke-opacity:1;stroke-miterlimit:4;" d="M 367.401042 335.197917 L 384.098958 336.5 " transform="matrix(0.75,0,0,0.75,0,0)"/>
<path style="fill:none;stroke-width:2;stroke-linecap:butt;stroke-linejoin:miter;stroke:rgb(100%,0%,0%);stroke-opacity:1;stroke-miterlimit:4;" d="M 384.098958 336.5 L 400.901042 337.901042 " transform="matrix(0.75,0,0,0.75,0,0)"/>
<path style="fill:none;stroke-width:2;stroke-linecap:butt;stroke-linejoin:miter;stroke:rgb(0%,0%,0%);stroke-opacity:1;stroke-miterlimit:4;" d="M 366.802083 343.197917 L 383.5 344.5 " transform="matrix(0.75,0,0,0.75,0,0)"/>
<path style="fill:none;stroke-width:2;stroke-linecap:butt;stroke-linejoin:miter;stroke:rgb(100%,0%,0%);stroke-opacity:1;stroke-miterlimit:4;" d="M 383.5 344.5 L 400.197917 345.901042 " transform="matrix(0.75,0,0,0.75,0,0)"/>
<path style="fill:none;stroke-width:2;stroke-linecap:butt;stroke-linejoin:miter;stroke:rgb(0%,0%,0%);stroke-opacity:1;stroke-miterlimit:4;" d="M 367.098958 339.197917 L 358.098958 352.197917 " transform="matrix(0.75,0,0,0.75,0,0)"/>
<path style="fill:none;stroke-width:2;stroke-linecap:butt;stroke-linejoin:miter;stroke:rgb(100%,0%,0%);stroke-opacity:1;stroke-miterlimit:4;" d="M 358.098958 352.197917 L 349.197917 365.098958 " transform="matrix(0.75,0,0,0.75,0,0)"/>
<path style="fill:none;stroke-width:2;stroke-linecap:butt;stroke-linejoin:miter;stroke:rgb(0%,0%,0%);stroke-opacity:1;stroke-miterlimit:4;" d="M 349.901042 302.901042 L 372.697917 269.901042 " transform="matrix(0.75,0,0,0.75,0,0)"/>
<path style="fill:none;stroke-width:2;stroke-linecap:butt;stroke-linejoin:miter;stroke:rgb(0%,0%,0%);stroke-opacity:1;stroke-miterlimit:4;" d="M 346.697917 293.401042 L 362.697917 270.302083 " transform="matrix(0.75,0,0,0.75,0,0)"/>
<path style="fill:none;stroke-width:2;stroke-linecap:butt;stroke-linejoin:miter;stroke:rgb(0%,0%,0%);stroke-opacity:1;stroke-miterlimit:4;" d="M 372.697917 269.901042 L 412.697917 273.098958 " transform="matrix(0.75,0,0,0.75,0,0)"/>
<path style="fill:none;stroke-width:2;stroke-linecap:butt;stroke-linejoin:miter;stroke:rgb(0%,0%,0%);stroke-opacity:1;stroke-miterlimit:4;" d="M 412.697917 273.098958 L 435.5 240.098958 " transform="matrix(0.75,0,0,0.75,0,0)"/>
<path style="fill:none;stroke-width:2;stroke-linecap:butt;stroke-linejoin:miter;stroke:rgb(0%,0%,0%);stroke-opacity:1;stroke-miterlimit:4;" d="M 409.5 263.598958 L 425.401042 240.5 " transform="matrix(0.75,0,0,0.75,0,0)"/>
<path style="fill:none;stroke-width:2;stroke-linecap:butt;stroke-linejoin:miter;stroke:rgb(0%,0%,0%);stroke-opacity:1;stroke-miterlimit:4;" d="M 435.5 240.098958 L 418.302083 203.901042 " transform="matrix(0.75,0,0,0.75,0,0)"/>
<path style="fill:none;stroke-width:2;stroke-linecap:butt;stroke-linejoin:miter;stroke:rgb(0%,0%,0%);stroke-opacity:1;stroke-miterlimit:4;" d="M 418.302083 203.901042 L 401 200.598958 " transform="matrix(0.75,0,0,0.75,0,0)"/>
<path style="fill:none;stroke-width:2;stroke-linecap:butt;stroke-linejoin:miter;stroke:rgb(80%,80%,0%);stroke-opacity:1;stroke-miterlimit:4;" d="M 401 200.598958 L 383.802083 197.401042 " transform="matrix(0.75,0,0,0.75,0,0)"/>
<path style="fill:none;stroke-width:2;stroke-linecap:butt;stroke-linejoin:miter;stroke:rgb(80%,80%,0%);stroke-opacity:1;stroke-miterlimit:4;" d="M 377.901042 189.5 L 375.802083 173.098958 " transform="matrix(0.75,0,0,0.75,0,0)"/>
<path style="fill:none;stroke-width:2;stroke-linecap:butt;stroke-linejoin:miter;stroke:rgb(0%,0%,0%);stroke-opacity:1;stroke-miterlimit:4;" d="M 375.802083 173.098958 L 373.697917 156.697917 " transform="matrix(0.75,0,0,0.75,0,0)"/>
<path style="fill:none;stroke-width:2;stroke-linecap:butt;stroke-linejoin:miter;stroke:rgb(0%,0%,0%);stroke-opacity:1;stroke-miterlimit:4;" d="M 373.697917 156.697917 L 389 149.401042 " transform="matrix(0.75,0,0,0.75,0,0)"/>
<path style="fill:none;stroke-width:2;stroke-linecap:butt;stroke-linejoin:miter;stroke:rgb(0%,0%,100%);stroke-opacity:1;stroke-miterlimit:4;" d="M 389 149.401042 L 404.302083 142.098958 " transform="matrix(0.75,0,0,0.75,0,0)"/>
<path style="fill:none;stroke-width:2;stroke-linecap:butt;stroke-linejoin:miter;stroke:rgb(0%,0%,0%);stroke-opacity:1;stroke-miterlimit:4;" d="M 381.697917 161.697917 L 392.401042 156.697917 " transform="matrix(0.75,0,0,0.75,0,0)"/>
<path style="fill:none;stroke-width:2;stroke-linecap:butt;stroke-linejoin:miter;stroke:rgb(0%,0%,100%);stroke-opacity:1;stroke-miterlimit:4;" d="M 392.401042 156.697917 L 403.098958 151.598958 " transform="matrix(0.75,0,0,0.75,0,0)"/>
<path style="fill:none;stroke-width:2;stroke-linecap:butt;stroke-linejoin:miter;stroke:rgb(0%,0%,100%);stroke-opacity:1;stroke-miterlimit:4;" d="M 415.5 145.401042 L 426.5 157 " transform="matrix(0.75,0,0,0.75,0,0)"/>
<path style="fill:none;stroke-width:2;stroke-linecap:butt;stroke-linejoin:miter;stroke:rgb(0%,0%,0%);stroke-opacity:1;stroke-miterlimit:4;" d="M 426.5 157 L 437.5 168.598958 " transform="matrix(0.75,0,0,0.75,0,0)"/>
<path style="fill:none;stroke-width:2;stroke-linecap:butt;stroke-linejoin:miter;stroke:rgb(0%,0%,0%);stroke-opacity:1;stroke-miterlimit:4;" d="M 437.5 168.598958 L 477.302083 163.5 " transform="matrix(0.75,0,0,0.75,0,0)"/>
<path style="fill:none;stroke-width:2;stroke-linecap:butt;stroke-linejoin:miter;stroke:rgb(0%,0%,0%);stroke-opacity:1;stroke-miterlimit:4;" d="M 372.697917 269.901042 L 355.5 233.697917 " transform="matrix(0.75,0,0,0.75,0,0)"/>
<path style="fill:none;stroke-width:2;stroke-linecap:butt;stroke-linejoin:miter;stroke:rgb(0%,0%,0%);stroke-opacity:1;stroke-miterlimit:4;" d="M 355.5 233.697917 L 338 232.197917 " transform="matrix(0.75,0,0,0.75,0,0)"/>
<path style="fill:none;stroke-width:2;stroke-linecap:butt;stroke-linejoin:miter;stroke:rgb(80%,80%,0%);stroke-opacity:1;stroke-miterlimit:4;" d="M 338 232.197917 L 320.401042 230.802083 " transform="matrix(0.75,0,0,0.75,0,0)"/>
<path style="fill:none;stroke-width:2;stroke-linecap:butt;stroke-linejoin:miter;stroke:rgb(80%,80%,0%);stroke-opacity:1;stroke-miterlimit:4;" d="M 310.5 237.598958 L 301.598958 250.5 " transform="matrix(0.75,0,0,0.75,0,0)"/>
<path style="fill:none;stroke-width:2;stroke-linecap:butt;stroke-linejoin:miter;stroke:rgb(0%,0%,0%);stroke-opacity:1;stroke-miterlimit:4;" d="M 301.598958 250.5 L 292.697917 263.5 " transform="matrix(0.75,0,0,0.75,0,0)"/>
<path style="fill:none;stroke-width:2;stroke-linecap:butt;stroke-linejoin:miter;stroke:rgb(0%,0%,0%);stroke-opacity:1;stroke-miterlimit:4;" d="M 173.598958 214.302083 L 143 240.302083 " transform="matrix(0.75,0,0,0.75,0,0)"/>
<path style="fill:none;stroke-width:2;stroke-linecap:butt;stroke-linejoin:miter;stroke:rgb(0%,0%,0%);stroke-opacity:1;stroke-miterlimit:4;" d="M 143 240.302083 L 146.098958 280.302083 " transform="matrix(0.75,0,0,0.75,0,0)"/>
<path style="fill:none;stroke-width:2;stroke-linecap:butt;stroke-linejoin:miter;stroke:rgb(0%,0%,0%);stroke-opacity:1;stroke-miterlimit:4;" d="M 135.5 246.901042 L 137.598958 274.901042 " transform="matrix(0.75,0,0,0.75,0,0)"/>
<path style="fill:none;stroke-width:2;stroke-linecap:butt;stroke-linejoin:miter;stroke:rgb(0%,0%,0%);stroke-opacity:1;stroke-miterlimit:4;" d="M 146.098958 280.302083 L 130 286.901042 " transform="matrix(0.75,0,0,0.75,0,0)"/>
<path style="fill:none;stroke-width:2;stroke-linecap:butt;stroke-linejoin:miter;stroke:rgb(80%,80%,0%);stroke-opacity:1;stroke-miterlimit:4;" d="M 130 286.901042 L 114 293.5 " transform="matrix(0.75,0,0,0.75,0,0)"/>
<path style="fill:none;stroke-width:2;stroke-linecap:butt;stroke-linejoin:miter;stroke:rgb(80%,80%,0%);stroke-opacity:1;stroke-miterlimit:4;" d="M 104 289.697917 L 93.5 277.401042 " transform="matrix(0.75,0,0,0.75,0,0)"/>
<path style="fill:none;stroke-width:2;stroke-linecap:butt;stroke-linejoin:miter;stroke:rgb(0%,0%,0%);stroke-opacity:1;stroke-miterlimit:4;" d="M 93.5 277.401042 L 83 265 " transform="matrix(0.75,0,0,0.75,0,0)"/>
<path style="fill:none;stroke-width:2;stroke-linecap:butt;stroke-linejoin:miter;stroke:rgb(0%,0%,0%);stroke-opacity:1;stroke-miterlimit:4;" d="M 83 265 L 65.802083 266.302083 " transform="matrix(0.75,0,0,0.75,0,0)"/>
<path style="fill:none;stroke-width:2;stroke-linecap:butt;stroke-linejoin:miter;stroke:rgb(0%,0%,100%);stroke-opacity:1;stroke-miterlimit:4;" d="M 65.802083 266.302083 L 48.598958 267.598958 " transform="matrix(0.75,0,0,0.75,0,0)"/>
<path style="fill:none;stroke-width:2;stroke-linecap:butt;stroke-linejoin:miter;stroke:rgb(0%,0%,0%);stroke-opacity:1;stroke-miterlimit:4;" d="M 83 265 L 91.401042 251.401042 " transform="matrix(0.75,0,0,0.75,0,0)"/>
<path style="fill:none;stroke-width:2;stroke-linecap:butt;stroke-linejoin:miter;stroke:rgb(0%,0%,100%);stroke-opacity:1;stroke-miterlimit:4;" d="M 91.401042 251.401042 L 99.697917 237.802083 " transform="matrix(0.75,0,0,0.75,0,0)"/>
<path style="fill:none;stroke-width:2;stroke-linecap:butt;stroke-linejoin:miter;stroke:rgb(0%,0%,0%);stroke-opacity:1;stroke-miterlimit:4;" d="M 92.302083 265.098958 L 98.197917 255.598958 " transform="matrix(0.75,0,0,0.75,0,0)"/>
<path style="fill:none;stroke-width:2;stroke-linecap:butt;stroke-linejoin:miter;stroke:rgb(0%,0%,100%);stroke-opacity:1;stroke-miterlimit:4;" d="M 98.197917 255.598958 L 104 246.098958 " transform="matrix(0.75,0,0,0.75,0,0)"/>
<path style="fill:none;stroke-width:2;stroke-linecap:butt;stroke-linejoin:miter;stroke:rgb(0%,0%,0%);stroke-opacity:1;stroke-miterlimit:4;" d="M 292.697917 263.5 L 256.401042 280.697917 " transform="matrix(0.75,0,0,0.75,0,0)"/>
<path style="fill:none;stroke-width:2;stroke-linecap:butt;stroke-linejoin:miter;stroke:rgb(0%,0%,100%);stroke-opacity:1;stroke-miterlimit:4;" d="M 109.697917 232.197917 L 126.302083 236.197917 " transform="matrix(0.75,0,0,0.75,0,0)"/>
<path style="fill:none;stroke-width:2;stroke-linecap:butt;stroke-linejoin:miter;stroke:rgb(0%,0%,0%);stroke-opacity:1;stroke-miterlimit:4;" d="M 126.302083 236.197917 L 143 240.302083 " transform="matrix(0.75,0,0,0.75,0,0)"/>
<path style="fill:none;stroke-width:2;stroke-linecap:butt;stroke-linejoin:miter;stroke:rgb(0%,0%,0%);stroke-opacity:1;stroke-miterlimit:4;" d="M 292.697917 263.5 L 299.598958 278.098958 " transform="matrix(0.75,0,0,0.75,0,0)"/>
<path style="fill:none;stroke-width:2;stroke-linecap:butt;stroke-linejoin:miter;stroke:rgb(0%,0%,100%);stroke-opacity:1;stroke-miterlimit:4;" d="M 299.598958 278.098958 L 306.598958 292.697917 " transform="matrix(0.75,0,0,0.75,0,0)"/>
<path style="fill:none;stroke-width:2;stroke-linecap:butt;stroke-linejoin:miter;stroke:rgb(0%,0%,0%);stroke-opacity:1;stroke-miterlimit:4;" d="M 437.5 168.598958 L 418.302083 203.901042 " transform="matrix(0.75,0,0,0.75,0,0)"/>
<path style="fill:none;stroke-width:2;stroke-linecap:butt;stroke-linejoin:miter;stroke:rgb(0%,0%,0%);stroke-opacity:1;stroke-miterlimit:4;" d="M 427.5 170.098958 L 414.098958 194.697917 " transform="matrix(0.75,0,0,0.75,0,0)"/>
<path style="fill:none;stroke-width:1;stroke-linecap:butt;stroke-linejoin:miter;stroke:rgb(0%,0%,0%);stroke-opacity:1;stroke-miterlimit:4;" d="M 289.5 258.5 L 288.302083 259.5 " transform="matrix(0.75,0,0,0.75,0,0)"/>
<path style="fill:none;stroke-width:1;stroke-linecap:butt;stroke-linejoin:miter;stroke:rgb(0%,0%,0%);stroke-opacity:1;stroke-miterlimit:4;" d="M 286.302083 253.5 L 283.901042 255.598958 " transform="matrix(0.75,0,0,0.75,0,0)"/>
<path style="fill:none;stroke-width:1;stroke-linecap:butt;stroke-linejoin:miter;stroke:rgb(0%,0%,0%);stroke-opacity:1;stroke-miterlimit:4;" d="M 283.197917 248.598958 L 279.5 251.697917 " transform="matrix(0.75,0,0,0.75,0,0)"/>
<path style="fill:none;stroke-width:1;stroke-linecap:butt;stroke-linejoin:miter;stroke:rgb(0%,0%,0%);stroke-opacity:1;stroke-miterlimit:4;" d="M 280 243.598958 L 275.098958 247.802083 " transform="matrix(0.75,0,0,0.75,0,0)"/>
<path style="fill:none;stroke-width:1;stroke-linecap:butt;stroke-linejoin:miter;stroke:rgb(0%,0%,0%);stroke-opacity:1;stroke-miterlimit:4;" d="M 276.802083 238.598958 L 270.697917 243.802083 " transform="matrix(0.75,0,0,0.75,0,0)"/>
<path style=" stroke:none;fill-rule:nonzero;fill:rgb(100%,0%,0%);fill-opacity:1;" d="M 92.476562 121.050781 C 92.476562 119.648438 92.824219 118.574219 93.523438 117.824219 C 94.175781 117.074219 95.148438 116.699219 96.449219 116.699219 C 97.699219 116.699219 98.648438 117.074219 99.300781 117.824219 C 100 118.574219 100.351562 119.648438 100.351562 121.050781 C 100.351562 122.398438 100 123.476562 99.300781 124.273438 C 98.601562 125.023438 97.648438 125.398438 96.449219 125.398438 C 95.148438 125.398438 94.175781 125.023438 93.523438 124.273438 C 92.824219 123.476562 92.476562 122.398438 92.476562 121.050781 M 96.449219 124.5 C 97.300781 124.5 97.949219 124.199219 98.398438 123.601562 C 98.898438 123 99.148438 122.148438 99.148438 121.050781 C 99.148438 119.898438 98.898438 119.050781 98.398438 118.5 C 97.949219 117.949219 97.300781 117.675781 96.449219 117.675781 C 95.550781 117.675781 94.875 117.949219 94.425781 118.5 C 93.925781 119.050781 93.675781 119.898438 93.675781 121.050781 C 93.675781 122.199219 93.925781 123.050781 94.425781 123.601562 C 94.875 124.199219 95.550781 124.5 96.449219 124.5 "/>
<path style=" stroke:none;fill-rule:nonzero;fill:rgb(0%,0%,100%);fill-opacity:1;" d="M 122.851562 126.824219 L 125.699219 131.324219 C 125.851562 131.625 126.074219 132.050781 126.375 132.601562 C 126.675781 133.148438 126.851562 133.425781 126.898438 133.425781 L 126.898438 126.824219 L 128.023438 126.824219 L 128.023438 135.375 L 126.824219 135.375 L 123.824219 130.425781 C 123.574219 130.023438 123.324219 129.601562 123.074219 129.148438 C 122.875 128.75 122.726562 128.476562 122.625 128.324219 L 122.625 135.375 L 121.5 135.375 L 121.5 126.824219 L 122.851562 126.824219 "/>
<path style=" stroke:none;fill-rule:nonzero;fill:rgb(100%,0%,0%);fill-opacity:1;" d="M 177.523438 151.351562 C 177.523438 149.949219 177.875 148.875 178.574219 148.125 C 179.226562 147.375 180.199219 147 181.5 147 C 182.75 147 183.699219 147.375 184.351562 148.125 C 185.050781 148.875 185.398438 149.949219 185.398438 151.351562 C 185.398438 152.699219 185.050781 153.773438 184.351562 154.574219 C 183.648438 155.375 182.699219 155.773438 181.5 155.773438 C 180.25 155.773438 179.273438 155.375 178.574219 154.574219 C 177.875 153.773438 177.523438 152.699219 177.523438 151.351562 M 181.5 154.800781 C 182.351562 154.800781 183 154.5 183.449219 153.898438 C 183.949219 153.300781 184.199219 152.449219 184.199219 151.351562 C 184.199219 150.199219 183.949219 149.351562 183.449219 148.800781 C 183 148.25 182.351562 147.976562 181.5 147.976562 C 180.601562 147.976562 179.925781 148.25 179.476562 148.800781 C 178.976562 149.351562 178.726562 150.199219 178.726562 151.351562 C 178.726562 152.5 178.976562 153.351562 179.476562 153.898438 C 179.925781 154.5 180.601562 154.800781 181.5 154.800781 "/>
<path style=" stroke:none;fill-rule:nonzero;fill:rgb(0%,0%,100%);fill-opacity:1;" d="M 153.074219 196.125 L 154.199219 196.125 L 154.199219 199.800781 L 158.550781 199.800781 L 158.550781 196.125 L 159.75 196.125 L 159.75 204.675781 L 158.550781 204.675781 L 158.550781 200.699219 L 154.199219 200.699219 L 154.199219 204.675781 L 153.074219 204.675781 L 153.074219 196.125 "/>
<path style=" stroke:none;fill-rule:nonzero;fill:rgb(0%,0%,100%);fill-opacity:1;" d="M 162.074219 196.125 L 164.851562 200.625 C 165.050781 200.925781 165.300781 201.351562 165.601562 201.898438 C 165.898438 202.449219 166.050781 202.726562 166.050781 202.726562 L 166.050781 196.125 L 167.175781 196.125 L 167.175781 204.675781 L 166.050781 204.675781 L 163.050781 199.726562 C 162.800781 199.324219 162.550781 198.925781 162.300781 198.523438 C 162.050781 198.074219 161.898438 197.773438 161.851562 197.625 L 161.851562 204.675781 L 160.726562 204.675781 L 160.726562 196.125 L 162.074219 196.125 "/>
<path style=" stroke:none;fill-rule:nonzero;fill:rgb(100%,0%,0%);fill-opacity:1;" d="M 191.25 266.101562 C 191.25 264.699219 191.574219 263.625 192.226562 262.875 C 192.875 262.125 193.851562 261.75 195.148438 261.75 C 196.398438 261.75 197.351562 262.125 198 262.875 C 198.699219 263.625 199.050781 264.699219 199.050781 266.101562 C 199.050781 267.449219 198.699219 268.523438 198 269.324219 C 197.351562 270.074219 196.398438 270.449219 195.148438 270.449219 C 193.898438 270.449219 192.925781 270.074219 192.226562 269.324219 C 191.574219 268.523438 191.25 267.449219 191.25 266.101562 M 195.148438 269.550781 C 196 269.550781 196.648438 269.25 197.101562 268.648438 C 197.601562 268.050781 197.851562 267.199219 197.851562 266.101562 C 197.851562 264.949219 197.601562 264.101562 197.101562 263.550781 C 196.648438 263 196 262.726562 195.148438 262.726562 C 194.25 262.726562 193.574219 263 193.125 263.550781 C 192.675781 264.101562 192.449219 264.949219 192.449219 266.101562 C 192.449219 267.25 192.675781 268.101562 193.125 268.648438 C 193.574219 269.25 194.25 269.550781 195.148438 269.550781 "/>
<path style=" stroke:none;fill-rule:nonzero;fill:rgb(0%,0%,100%);fill-opacity:1;" d="M 230.550781 220.5 L 233.324219 225.074219 C 233.523438 225.324219 233.773438 225.726562 234.074219 226.273438 C 234.375 226.824219 234.523438 227.125 234.523438 227.175781 L 234.523438 220.5 L 235.648438 220.5 L 235.648438 229.050781 L 234.449219 229.050781 L 231.449219 224.101562 C 231.25 223.699219 231.023438 223.300781 230.773438 222.898438 C 230.523438 222.449219 230.375 222.148438 230.324219 222 L 230.324219 229.050781 L 229.199219 229.050781 L 229.199219 220.5 L 230.550781 220.5 "/>
<path style=" stroke:none;fill-rule:nonzero;fill:rgb(100%,0%,0%);fill-opacity:1;" d="M 301.425781 256.875 C 301.425781 255.476562 301.75 254.398438 302.398438 253.648438 C 303.101562 252.898438 304.074219 252.523438 305.324219 252.523438 C 306.574219 252.523438 307.550781 252.898438 308.25 253.648438 C 308.898438 254.398438 309.226562 255.476562 309.226562 256.875 C 309.226562 258.226562 308.875 259.300781 308.175781 260.101562 C 307.523438 260.851562 306.574219 261.226562 305.324219 261.226562 C 304.074219 261.226562 303.101562 260.851562 302.398438 260.101562 C 301.75 259.300781 301.425781 258.226562 301.425781 256.875 M 305.324219 260.324219 C 306.175781 260.324219 306.851562 260.023438 307.351562 259.425781 C 307.800781 258.824219 308.023438 257.976562 308.023438 256.875 C 308.023438 255.726562 307.800781 254.875 307.351562 254.324219 C 306.851562 253.773438 306.175781 253.5 305.324219 253.5 C 304.476562 253.5 303.800781 253.773438 303.300781 254.324219 C 302.851562 254.875 302.625 255.726562 302.625 256.875 C 302.625 257.976562 302.851562 258.824219 303.300781 259.425781 C 303.800781 260.023438 304.476562 260.324219 305.324219 260.324219 "/>
<path style=" stroke:none;fill-rule:nonzero;fill:rgb(100%,0%,0%);fill-opacity:1;" d="M 246.601562 274.949219 L 247.800781 274.949219 L 247.800781 278.550781 L 252.148438 278.550781 L 252.148438 274.949219 L 253.273438 274.949219 L 253.273438 283.5 L 252.148438 283.5 L 252.148438 279.523438 L 247.800781 279.523438 L 247.800781 283.5 L 246.601562 283.5 L 246.601562 274.949219 "/>
<path style=" stroke:none;fill-rule:nonzero;fill:rgb(100%,0%,0%);fill-opacity:1;" d="M 254.324219 279.226562 C 254.324219 277.824219 254.648438 276.75 255.300781 276 C 256 275.25 256.976562 274.875 258.226562 274.875 C 259.476562 274.875 260.449219 275.25 261.148438 276 C 261.800781 276.75 262.125 277.824219 262.125 279.226562 C 262.125 280.574219 261.800781 281.648438 261.148438 282.449219 C 260.449219 283.199219 259.476562 283.574219 258.226562 283.574219 C 256.976562 283.574219 256 283.199219 255.300781 282.449219 C 254.648438 281.648438 254.324219 280.574219 254.324219 279.226562 M 258.226562 282.675781 C 259.074219 282.675781 259.75 282.375 260.25 281.773438 C 260.699219 281.175781 260.925781 280.324219 260.925781 279.226562 C 260.925781 278.074219 260.699219 277.226562 260.25 276.675781 C 259.75 276.125 259.074219 275.851562 258.226562 275.851562 C 257.375 275.851562 256.699219 276.125 256.199219 276.675781 C 255.75 277.226562 255.523438 278.074219 255.523438 279.226562 C 255.523438 280.324219 255.75 281.175781 256.199219 281.773438 C 256.699219 282.375 257.375 282.675781 258.226562 282.675781 "/>
<path style=" stroke:none;fill-rule:nonzero;fill:rgb(80%,80%,0%);fill-opacity:1;" d="M 281.699219 150.300781 C 281.75 150.300781 281.925781 150.351562 282.226562 150.449219 C 282.476562 150.601562 282.75 150.699219 283.050781 150.75 C 283.351562 150.800781 283.625 150.824219 283.875 150.824219 C 284.425781 150.824219 284.851562 150.699219 285.148438 150.449219 C 285.5 150.199219 285.675781 149.851562 285.675781 149.398438 C 285.675781 149.101562 285.601562 148.851562 285.449219 148.648438 C 285.25 148.449219 285.050781 148.300781 284.851562 148.199219 C 284.601562 148.101562 284.273438 147.976562 283.875 147.824219 C 283.375 147.675781 282.976562 147.523438 282.675781 147.375 C 282.375 147.226562 282.101562 147 281.851562 146.699219 C 281.648438 146.398438 281.550781 146 281.550781 145.5 C 281.550781 144.800781 281.800781 144.226562 282.300781 143.773438 C 282.800781 143.324219 283.523438 143.101562 284.476562 143.101562 C 285.125 143.101562 285.824219 143.25 286.574219 143.550781 L 286.273438 144.523438 C 285.625 144.226562 285.023438 144.074219 284.476562 144.074219 C 283.925781 144.074219 283.5 144.199219 283.199219 144.449219 C 282.898438 144.648438 282.75 144.949219 282.75 145.351562 C 282.75 145.648438 282.824219 145.898438 282.976562 146.101562 C 283.125 146.300781 283.324219 146.449219 283.574219 146.550781 C 283.824219 146.648438 284.125 146.75 284.476562 146.851562 C 285.023438 147 285.449219 147.175781 285.75 147.375 C 286.050781 147.523438 286.300781 147.75 286.5 148.050781 C 286.75 148.398438 286.875 148.851562 286.875 149.398438 C 286.875 150.199219 286.601562 150.800781 286.050781 151.199219 C 285.550781 151.601562 284.851562 151.800781 283.949219 151.800781 C 283.449219 151.800781 283 151.75 282.601562 151.648438 C 282.25 151.550781 281.851562 151.398438 281.398438 151.199219 L 281.699219 150.300781 "/>
<path style=" stroke:none;fill-rule:nonzero;fill:rgb(0%,0%,100%);fill-opacity:1;" d="M 305.550781 100.351562 L 308.324219 104.851562 C 308.523438 105.148438 308.773438 105.574219 309.074219 106.125 C 309.375 106.675781 309.523438 106.949219 309.523438 106.949219 L 309.523438 100.351562 L 310.648438 100.351562 L 310.648438 108.898438 L 309.523438 108.898438 L 306.523438 103.949219 C 306.273438 103.550781 306.023438 103.125 305.773438 102.675781 C 305.523438 102.226562 305.375 101.949219 305.324219 101.851562 L 305.324219 108.898438 L 304.199219 108.898438 L 304.199219 100.351562 L 305.550781 100.351562 "/>
<path style=" stroke:none;fill-rule:nonzero;fill:rgb(80%,80%,0%);fill-opacity:1;" d="M 234.226562 175.726562 C 234.273438 175.773438 234.425781 175.851562 234.675781 175.949219 C 234.976562 176.050781 235.25 176.148438 235.5 176.25 C 235.800781 176.300781 236.101562 176.324219 236.398438 176.324219 C 236.949219 176.324219 237.375 176.199219 237.675781 175.949219 C 237.976562 175.699219 238.125 175.324219 238.125 174.824219 C 238.125 174.523438 238.050781 174.273438 237.898438 174.074219 C 237.75 173.925781 237.550781 173.773438 237.300781 173.625 C 237.050781 173.523438 236.726562 173.425781 236.324219 173.324219 C 235.824219 173.175781 235.425781 173.023438 235.125 172.875 C 234.824219 172.726562 234.574219 172.5 234.375 172.199219 C 234.175781 171.898438 234.074219 171.5 234.074219 171 C 234.074219 170.25 234.300781 169.675781 234.75 169.273438 C 235.25 168.824219 235.976562 168.601562 236.925781 168.601562 C 237.625 168.601562 238.324219 168.75 239.023438 169.050781 L 238.800781 169.949219 C 238.101562 169.699219 237.5 169.574219 237 169.574219 C 236.449219 169.574219 236.023438 169.675781 235.726562 169.875 C 235.425781 170.125 235.273438 170.449219 235.273438 170.851562 C 235.273438 171.148438 235.351562 171.398438 235.5 171.601562 C 235.648438 171.75 235.851562 171.875 236.101562 171.976562 C 236.300781 172.074219 236.601562 172.199219 237 172.351562 C 237.5 172.5 237.898438 172.648438 238.199219 172.800781 C 238.5 172.949219 238.773438 173.199219 239.023438 173.550781 C 239.226562 173.851562 239.324219 174.273438 239.324219 174.824219 C 239.324219 175.625 239.074219 176.25 238.574219 176.699219 C 238.023438 177.101562 237.324219 177.300781 236.476562 177.300781 C 235.976562 177.300781 235.523438 177.25 235.125 177.148438 C 234.726562 177.050781 234.300781 176.898438 233.851562 176.699219 L 234.226562 175.726562 "/>
<path style=" stroke:none;fill-rule:nonzero;fill:rgb(80%,80%,0%);fill-opacity:1;" d="M 79.351562 224.625 C 79.398438 224.625 79.550781 224.675781 79.800781 224.773438 C 80.101562 224.925781 80.398438 225.023438 80.699219 225.074219 C 80.949219 225.125 81.226562 225.148438 81.523438 225.148438 C 82.074219 225.148438 82.5 225.023438 82.800781 224.773438 C 83.148438 224.523438 83.324219 224.175781 83.324219 223.726562 C 83.324219 223.375 83.226562 223.125 83.023438 222.976562 C 82.875 222.773438 82.675781 222.625 82.425781 222.523438 C 82.226562 222.425781 81.925781 222.300781 81.523438 222.148438 C 80.976562 222 80.550781 221.851562 80.25 221.699219 C 79.949219 221.550781 79.699219 221.324219 79.5 221.023438 C 79.300781 220.726562 79.199219 220.324219 79.199219 219.824219 C 79.199219 219.125 79.449219 218.550781 79.949219 218.101562 C 80.398438 217.648438 81.125 217.425781 82.125 217.425781 C 82.773438 217.425781 83.476562 217.574219 84.226562 217.875 L 83.925781 218.851562 C 83.226562 218.550781 82.625 218.398438 82.125 218.398438 C 81.574219 218.398438 81.148438 218.523438 80.851562 218.773438 C 80.550781 218.976562 80.398438 219.273438 80.398438 219.675781 C 80.398438 219.976562 80.476562 220.226562 80.625 220.425781 C 80.773438 220.574219 80.976562 220.726562 81.226562 220.875 C 81.425781 220.976562 81.726562 221.074219 82.125 221.175781 C 82.625 221.324219 83.023438 221.476562 83.324219 221.625 C 83.675781 221.824219 83.949219 222.074219 84.148438 222.375 C 84.351562 222.726562 84.449219 223.175781 84.449219 223.726562 C 84.449219 224.476562 84.199219 225.074219 83.699219 225.523438 C 83.148438 225.925781 82.449219 226.125 81.601562 226.125 C 81.101562 226.125 80.648438 226.074219 80.25 225.976562 C 79.898438 225.875 79.5 225.726562 79.050781 225.523438 L 79.351562 224.625 "/>
<path style=" stroke:none;fill-rule:nonzero;fill:rgb(0%,0%,100%);fill-opacity:1;" d="M 17.023438 196.800781 L 18.226562 196.800781 L 18.226562 200.398438 L 22.574219 200.398438 L 22.574219 196.800781 L 23.699219 196.800781 L 23.699219 205.351562 L 22.574219 205.351562 L 22.574219 201.375 L 18.226562 201.375 L 18.226562 205.351562 L 17.023438 205.351562 L 17.023438 196.800781 "/>
<path style=" stroke:none;fill-rule:nonzero;fill:rgb(0%,0%,100%);fill-opacity:1;" d="M 24.75 205.050781 C 24.898438 204.648438 25.125 204.375 25.425781 204.226562 C 25.773438 203.976562 26.175781 203.851562 26.625 203.851562 C 27.175781 203.851562 27.625 204.023438 27.976562 204.375 C 28.273438 204.675781 28.425781 205.101562 28.425781 205.648438 C 28.425781 206.199219 28.226562 206.726562 27.824219 207.226562 C 27.425781 207.773438 26.800781 208.351562 25.949219 208.949219 L 28.5 208.949219 L 28.5 209.550781 L 24.75 209.550781 L 24.75 209.023438 C 25.449219 208.523438 26 208.101562 26.398438 207.75 C 26.800781 207.351562 27.101562 207 27.300781 206.699219 C 27.550781 206.351562 27.675781 206 27.675781 205.648438 C 27.675781 205.300781 27.574219 205.023438 27.375 204.824219 C 27.175781 204.625 26.925781 204.523438 26.625 204.523438 C 26.324219 204.523438 26.074219 204.574219 25.875 204.675781 C 25.675781 204.824219 25.5 205.023438 25.351562 205.273438 L 24.75 205.050781 "/>
<path style=" stroke:none;fill-rule:nonzero;fill:rgb(0%,0%,100%);fill-opacity:1;" d="M 30.375 196.800781 L 33.148438 201.300781 C 33.351562 201.601562 33.601562 202.023438 33.898438 202.574219 C 34.199219 203.125 34.351562 203.398438 34.351562 203.398438 L 34.351562 196.800781 L 35.476562 196.800781 L 35.476562 205.351562 L 34.273438 205.351562 L 31.273438 200.398438 C 31.074219 200 30.851562 199.574219 30.601562 199.125 C 30.351562 198.675781 30.175781 198.398438 30.074219 198.300781 L 30.074219 205.351562 L 29.023438 205.351562 L 29.023438 196.800781 L 30.375 196.800781 "/>
<path style=" stroke:none;fill-rule:nonzero;fill:rgb(0%,0%,100%);fill-opacity:1;" d="M 76.125 168.824219 L 78.898438 173.398438 C 79.101562 173.699219 79.351562 174.101562 79.648438 174.601562 C 79.949219 175.148438 80.101562 175.449219 80.101562 175.5 L 80.101562 168.824219 L 81.226562 168.824219 L 81.226562 177.375 L 80.101562 177.375 L 77.101562 172.425781 C 76.851562 172.074219 76.601562 171.675781 76.351562 171.226562 C 76.101562 170.773438 75.949219 170.476562 75.898438 170.324219 L 75.898438 177.375 L 74.773438 177.375 L 74.773438 168.824219 L 76.125 168.824219 "/>
<path style=" stroke:none;fill-rule:nonzero;fill:rgb(0%,0%,0%);fill-opacity:1;" d="M 196.648438 170.398438 L 197.851562 170.398438 L 197.851562 174 L 202.199219 174 L 202.199219 170.398438 L 203.324219 170.398438 L 203.324219 178.949219 L 202.199219 178.949219 L 202.199219 174.976562 L 197.851562 174.976562 L 197.851562 178.949219 L 196.648438 178.949219 L 196.648438 170.398438 "/>
</g>
</svg>
