<?xml version="1.0" encoding="UTF-8"?>
<svg xmlns="http://www.w3.org/2000/svg" xmlns:xlink="http://www.w3.org/1999/xlink" width="375pt" height="375pt" viewBox="0 0 375 375" version="1.1">
<g id="surface186">
<rect x="0" y="0" width="375" height="375" style="fill:rgb(100%,100%,100%);fill-opacity:1;stroke:none;"/>
<path style="fill:none;stroke-width:2;stroke-linecap:butt;stroke-linejoin:miter;stroke:rgb(0%,0%,0%);stroke-opacity:1;stroke-miterlimit:4;" d="M 122.598958 122.302083 L 125.598958 138.5 " transform="matrix(0.75,0,0,0.75,0,0)"/>
<path style="fill:none;stroke-width:2;stroke-linecap:butt;stroke-linejoin:miter;stroke:rgb(100%,0%,0%);stroke-opacity:1;stroke-miterlimit:4;" d="M 125.598958 138.5 L 128.5 154.598958 " transform="matrix(0.75,0,0,0.75,0,0)"/>
<path style="fill:none;stroke-width:2;stroke-linecap:butt;stroke-linejoin:miter;stroke:rgb(100%,0%,0%);stroke-opacity:1;stroke-miterlimit:4;" d="M 136.401042 164 L 149.098958 168.5 " transform="matrix(0.75,0,0,0.75,0,0)"/>
<path style="fill:none;stroke-width:2;stroke-linecap:butt;stroke-linejoin:miter;stroke:rgb(0%,0%,100%);stroke-opacity:1;stroke-miterlimit:4;" d="M 149.098958 168.5 L 161.901042 173.098958 " transform="matrix(0.75,0,0,0.75,0,0)"/>
<path style="fill:none;stroke-width:2;stroke-linecap:butt;stroke-linejoin:miter;stroke:rgb(0%,0%,100%);stroke-opacity:1;stroke-miterlimit:4;" d="M 168.802083 182.098958 L 171.697917 198.197917 " transform="matrix(0.75,0,0,0.75,0,0)"/>
<path style="fill:none;stroke-width:2;stroke-linecap:butt;stroke-linejoin:miter;stroke:rgb(0%,0%,0%);stroke-opacity:1;stroke-miterlimit:4;" d="M 171.697917 198.197917 L 174.697917 214.401042 " transform="matrix(0.75,0,0,0.75,0,0)"/>
<path style="fill:none;stroke-width:2;stroke-linecap:butt;stroke-linejoin:miter;stroke:rgb(0%,0%,100%);stroke-opacity:1;stroke-miterlimit:4;" d="M 163.401042 186 L 165.802083 199 " transform="matrix(0.75,0,0,0.75,0,0)"/>
<path style="fill:none;stroke-width:2;stroke-linecap:butt;stroke-linejoin:miter;stroke:rgb(0%,0%,0%);stroke-opacity:1;stroke-miterlimit:4;" d="M 165.802083 199 L 168.197917 212.098958 " transform="matrix(0.75,0,0,0.75,0,0)"/>
<path style="fill:none;stroke-width:2;stroke-linecap:butt;stroke-linejoin:miter;stroke:rgb(0%,0%,0%);stroke-opacity:1;stroke-miterlimit:4;" d="M 174.697917 214.401042 L 212.401042 227.802083 " transform="matrix(0.75,0,0,0.75,0,0)"/>
<path style="fill:none;stroke-width:2;stroke-linecap:butt;stroke-linejoin:miter;stroke:rgb(0%,0%,0%);stroke-opacity:1;stroke-miterlimit:4;" d="M 213 231.197917 L 225.598958 220.5 " transform="matrix(0.75,0,0,0.75,0,0)"/>
<path style="fill:none;stroke-width:2;stroke-linecap:butt;stroke-linejoin:miter;stroke:rgb(100%,0%,0%);stroke-opacity:1;stroke-miterlimit:4;" d="M 225.598958 220.5 L 238.197917 209.697917 " transform="matrix(0.75,0,0,0.75,0,0)"/>
<path style="fill:none;stroke-width:2;stroke-linecap:butt;stroke-linejoin:miter;stroke:rgb(0%,0%,0%);stroke-opacity:1;stroke-miterlimit:4;" d="M 209.098958 226.697917 L 221.697917 215.901042 " transform="matrix(0.75,0,0,0.75,0,0)"/>
<path style="fill:none;stroke-width:2;stroke-linecap:butt;stroke-linejoin:miter;stroke:rgb(100%,0%,0%);stroke-opacity:1;stroke-miterlimit:4;" d="M 221.697917 215.901042 L 234.401042 205.197917 " transform="matrix(0.75,0,0,0.75,0,0)"/>
<path style="fill:none;stroke-width:2;stroke-linecap:butt;stroke-linejoin:miter;stroke:rgb(0%,0%,0%);stroke-opacity:1;stroke-miterlimit:4;" d="M 212.401042 227.802083 L 215.302083 244 " transform="matrix(0.75,0,0,0.75,0,0)"/>
<path style="fill:none;stroke-width:2;stroke-linecap:butt;stroke-linejoin:miter;stroke:rgb(0%,0%,100%);stroke-opacity:1;stroke-miterlimit:4;" d="M 215.302083 244 L 218.302083 260.197917 " transform="matrix(0.75,0,0,0.75,0,0)"/>
<path style="fill-rule:evenodd;fill:rgb(0%,0%,0%);fill-opacity:1;stroke-width:0.5;stroke-linecap:butt;stroke-linejoin:miter;stroke:rgb(0%,0%,0%);stroke-opacity:1;stroke-miterlimit:4;" d="M 257.197917 280.598958 L 241.401042 276.5 L 242.401042 273.697917 Z M 257.197917 280.598958 " transform="matrix(0.75,0,0,0.75,0,0)"/>
<path style="fill-rule:evenodd;fill:rgb(0%,0%,100%);fill-opacity:1;stroke-width:0.5;stroke-linecap:butt;stroke-linejoin:miter;stroke:rgb(0%,0%,100%);stroke-opacity:1;stroke-miterlimit:4;" d="M 241.401042 276.5 L 227.5 266.802083 L 225.5 272.401042 Z M 241.401042 276.5 " transform="matrix(0.75,0,0,0.75,0,0)"/>
<path style="fill-rule:evenodd;fill:rgb(0%,0%,100%);fill-opacity:1;stroke-width:0.5;stroke-linecap:butt;stroke-linejoin:miter;stroke:rgb(0%,0%,100%);stroke-opacity:1;stroke-miterlimit:4;" d="M 241.401042 276.5 L 242.401042 273.697917 L 227.5 266.802083 Z M 241.401042 276.5 " transform="matrix(0.75,0,0,0.75,0,0)"/>
<path style="fill:none;stroke-width:2;stroke-linecap:butt;stroke-linejoin:miter;stroke:rgb(0%,0%,0%);stroke-opacity:1;stroke-miterlimit:4;" d="M 257.197917 280.598958 L 274.401042 316.697917 " transform="matrix(0.75,0,0,0.75,0,0)"/>
<path style="fill:none;stroke-width:2;stroke-linecap:butt;stroke-linejoin:miter;stroke:rgb(0%,0%,0%);stroke-opacity:1;stroke-miterlimit:4;" d="M 272.598958 312.802083 L 266.598958 329.598958 " transform="matrix(0.75,0,0,0.75,0,0)"/>
<path style="fill:none;stroke-width:2;stroke-linecap:butt;stroke-linejoin:miter;stroke:rgb(100%,0%,0%);stroke-opacity:1;stroke-miterlimit:4;" d="M 266.598958 329.598958 L 260.697917 346.302083 " transform="matrix(0.75,0,0,0.75,0,0)"/>
<path style="fill:none;stroke-width:2;stroke-linecap:butt;stroke-linejoin:miter;stroke:rgb(0%,0%,0%);stroke-opacity:1;stroke-miterlimit:4;" d="M 278.197917 314.901042 L 272.302083 331.598958 " transform="matrix(0.75,0,0,0.75,0,0)"/>
<path style="fill:none;stroke-width:2;stroke-linecap:butt;stroke-linejoin:miter;stroke:rgb(100%,0%,0%);stroke-opacity:1;stroke-miterlimit:4;" d="M 272.302083 331.598958 L 266.302083 348.302083 " transform="matrix(0.75,0,0,0.75,0,0)"/>
<path style="fill:none;stroke-width:2;stroke-linecap:butt;stroke-linejoin:miter;stroke:rgb(0%,0%,0%);stroke-opacity:1;stroke-miterlimit:4;" d="M 274.401042 316.697917 L 289.598958 309.401042 " transform="matrix(0.75,0,0,0.75,0,0)"/>
<path style="fill:none;stroke-width:2;stroke-linecap:butt;stroke-linejoin:miter;stroke:rgb(0%,0%,100%);stroke-opacity:1;stroke-miterlimit:4;" d="M 289.598958 309.401042 L 304.901042 302.197917 " transform="matrix(0.75,0,0,0.75,0,0)"/>
<path style="fill:none;stroke-width:2;stroke-linecap:butt;stroke-linejoin:miter;stroke:rgb(0%,0%,100%);stroke-opacity:1;stroke-miterlimit:4;" d="M 316.098958 300 L 333.197917 301.401042 " transform="matrix(0.75,0,0,0.75,0,0)"/>
<path style="fill:none;stroke-width:2;stroke-linecap:butt;stroke-linejoin:miter;stroke:rgb(0%,0%,0%);stroke-opacity:1;stroke-miterlimit:4;" d="M 333.197917 301.401042 L 350.401042 302.697917 " transform="matrix(0.75,0,0,0.75,0,0)"/>
<path style="fill:none;stroke-width:2;stroke-linecap:butt;stroke-linejoin:miter;stroke:rgb(0%,0%,0%);stroke-opacity:1;stroke-miterlimit:4;" d="M 350.401042 302.697917 L 367.5 338.901042 " transform="matrix(0.75,0,0,0.75,0,0)"/>
<path style="fill:none;stroke-width:2;stroke-linecap:butt;stroke-linejoin:miter;stroke:rgb(0%,0%,0%);stroke-opacity:1;stroke-miterlimit:4;" d="M 365.5 341.697917 L 383.098958 343.098958 " transform="matrix(0.75,0,0,0.75,0,0)"/>
<path style="fill:none;stroke-width:2;stroke-linecap:butt;stroke-linejoin:miter;stroke:rgb(100%,0%,0%);stroke-opacity:1;stroke-miterlimit:4;" d="M 383.098958 343.098958 L 400.598958 344.5 " transform="matrix(0.75,0,0,0.75,0,0)"/>
<path style="fill:none;stroke-width:2;stroke-linecap:butt;stroke-linejoin:miter;stroke:rgb(0%,0%,0%);stroke-opacity:1;stroke-miterlimit:4;" d="M 366 335.697917 L 383.5 337.197917 " transform="matrix(0.75,0,0,0.75,0,0)"/>
<path style="fill:none;stroke-width:2;stroke-linecap:butt;stroke-linejoin:miter;stroke:rgb(100%,0%,0%);stroke-opacity:1;stroke-miterlimit:4;" d="M 383.5 337.197917 L 401.098958 338.598958 " transform="matrix(0.75,0,0,0.75,0,0)"/>
<path style="fill:none;stroke-width:2;stroke-linecap:butt;stroke-linejoin:miter;stroke:rgb(0%,0%,0%);stroke-opacity:1;stroke-miterlimit:4;" d="M 367.5 338.901042 L 358.598958 351.802083 " transform="matrix(0.75,0,0,0.75,0,0)"/>
<path style="fill:none;stroke-width:2;stroke-linecap:butt;stroke-linejoin:miter;stroke:rgb(100%,0%,0%);stroke-opacity:1;stroke-miterlimit:4;" d="M 358.598958 351.802083 L 349.697917 364.697917 " transform="matrix(0.75,0,0,0.75,0,0)"/>
<path style="fill:none;stroke-width:2;stroke-linecap:butt;stroke-linejoin:miter;stroke:rgb(0%,0%,0%);stroke-opacity:1;stroke-miterlimit:4;" d="M 350.401042 302.697917 L 373.098958 269.802083 " transform="matrix(0.75,0,0,0.75,0,0)"/>
<path style="fill:none;stroke-width:2;stroke-linecap:butt;stroke-linejoin:miter;stroke:rgb(0%,0%,0%);stroke-opacity:1;stroke-miterlimit:4;" d="M 347.401042 296.5 L 366.197917 269.302083 " transform="matrix(0.75,0,0,0.75,0,0)"/>
<path style="fill:none;stroke-width:2;stroke-linecap:butt;stroke-linejoin:miter;stroke:rgb(0%,0%,0%);stroke-opacity:1;stroke-miterlimit:4;" d="M 373.098958 269.802083 L 412.901042 273.098958 " transform="matrix(0.75,0,0,0.75,0,0)"/>
<path style="fill:none;stroke-width:2;stroke-linecap:butt;stroke-linejoin:miter;stroke:rgb(0%,0%,0%);stroke-opacity:1;stroke-miterlimit:4;" d="M 412.901042 273.098958 L 435.598958 240.098958 " transform="matrix(0.75,0,0,0.75,0,0)"/>
<path style="fill:none;stroke-width:2;stroke-linecap:butt;stroke-linejoin:miter;stroke:rgb(0%,0%,0%);stroke-opacity:1;stroke-miterlimit:4;" d="M 409.901042 266.802083 L 428.697917 239.598958 " transform="matrix(0.75,0,0,0.75,0,0)"/>
<path style="fill:none;stroke-width:2;stroke-linecap:butt;stroke-linejoin:miter;stroke:rgb(0%,0%,0%);stroke-opacity:1;stroke-miterlimit:4;" d="M 435.598958 240.098958 L 418.5 204 " transform="matrix(0.75,0,0,0.75,0,0)"/>
<path style="fill:none;stroke-width:2;stroke-linecap:butt;stroke-linejoin:miter;stroke:rgb(0%,0%,0%);stroke-opacity:1;stroke-miterlimit:4;" d="M 418.5 204 L 401.302083 200.802083 " transform="matrix(0.75,0,0,0.75,0,0)"/>
<path style="fill:none;stroke-width:2;stroke-linecap:butt;stroke-linejoin:miter;stroke:rgb(80%,80%,0%);stroke-opacity:1;stroke-miterlimit:4;" d="M 401.302083 200.802083 L 384.098958 197.598958 " transform="matrix(0.75,0,0,0.75,0,0)"/>
<path style="fill:none;stroke-width:2;stroke-linecap:butt;stroke-linejoin:miter;stroke:rgb(80%,80%,0%);stroke-opacity:1;stroke-miterlimit:4;" d="M 378.302083 189.697917 L 376.197917 173.401042 " transform="matrix(0.75,0,0,0.75,0,0)"/>
<path style="fill:none;stroke-width:2;stroke-linecap:butt;stroke-linejoin:miter;stroke:rgb(0%,0%,0%);stroke-opacity:1;stroke-miterlimit:4;" d="M 376.197917 173.401042 L 374 157 " transform="matrix(0.75,0,0,0.75,0,0)"/>
<path style="fill:none;stroke-width:2;stroke-linecap:butt;stroke-linejoin:miter;stroke:rgb(0%,0%,0%);stroke-opacity:1;stroke-miterlimit:4;" d="M 374 157 L 389.302083 149.802083 " transform="matrix(0.75,0,0,0.75,0,0)"/>
<path style="fill:none;stroke-width:2;stroke-linecap:butt;stroke-linejoin:miter;stroke:rgb(0%,0%,100%);stroke-opacity:1;stroke-miterlimit:4;" d="M 389.302083 149.802083 L 404.5 142.5 " transform="matrix(0.75,0,0,0.75,0,0)"/>
<path style="fill:none;stroke-width:2;stroke-linecap:butt;stroke-linejoin:miter;stroke:rgb(0%,0%,0%);stroke-opacity:1;stroke-miterlimit:4;" d="M 380.5 160.598958 L 393.802083 154.302083 " transform="matrix(0.75,0,0,0.75,0,0)"/>
<path style="fill:none;stroke-width:2;stroke-linecap:butt;stroke-linejoin:miter;stroke:rgb(0%,0%,100%);stroke-opacity:1;stroke-miterlimit:4;" d="M 393.802083 154.302083 L 407.098958 148 " transform="matrix(0.75,0,0,0.75,0,0)"/>
<path style="fill:none;stroke-width:2;stroke-linecap:butt;stroke-linejoin:miter;stroke:rgb(0%,0%,100%);stroke-opacity:1;stroke-miterlimit:4;" d="M 415.802083 145.802083 L 426.697917 157.401042 " transform="matrix(0.75,0,0,0.75,0,0)"/>
<path style="fill:none;stroke-width:2;stroke-linecap:butt;stroke-linejoin:miter;stroke:rgb(0%,0%,0%);stroke-opacity:1;stroke-miterlimit:4;" d="M 426.697917 157.401042 L 437.598958 168.901042 " transform="matrix(0.75,0,0,0.75,0,0)"/>
<path style="fill:none;stroke-width:2;stroke-linecap:butt;stroke-linejoin:miter;stroke:rgb(0%,0%,0%);stroke-opacity:1;stroke-miterlimit:4;" d="M 437.598958 168.901042 L 477.302083 163.802083 " transform="matrix(0.75,0,0,0.75,0,0)"/>
<path style="fill:none;stroke-width:2;stroke-linecap:butt;stroke-linejoin:miter;stroke:rgb(0%,0%,0%);stroke-opacity:1;stroke-miterlimit:4;" d="M 373.098958 269.802083 L 355.901042 233.697917 " transform="matrix(0.75,0,0,0.75,0,0)"/>
<path style="fill:none;stroke-width:2;stroke-linecap:butt;stroke-linejoin:miter;stroke:rgb(0%,0%,0%);stroke-opacity:1;stroke-miterlimit:4;" d="M 355.901042 233.697917 L 338.5 232.302083 " transform="matrix(0.75,0,0,0.75,0,0)"/>
<path style="fill:none;stroke-width:2;stroke-linecap:butt;stroke-linejoin:miter;stroke:rgb(80%,80%,0%);stroke-opacity:1;stroke-miterlimit:4;" d="M 338.5 232.302083 L 321 230.901042 " transform="matrix(0.75,0,0,0.75,0,0)"/>
<path style="fill:none;stroke-width:2;stroke-linecap:butt;stroke-linejoin:miter;stroke:rgb(80%,80%,0%);stroke-opacity:1;stroke-miterlimit:4;" d="M 311.098958 237.697917 L 302.197917 250.5 " transform="matrix(0.75,0,0,0.75,0,0)"/>
<path style="fill:none;stroke-width:2;stroke-linecap:butt;stroke-linejoin:miter;stroke:rgb(0%,0%,0%);stroke-opacity:1;stroke-miterlimit:4;" d="M 302.197917 250.5 L 293.401042 263.401042 " transform="matrix(0.75,0,0,0.75,0,0)"/>
<path style="fill:none;stroke-width:2;stroke-linecap:butt;stroke-linejoin:miter;stroke:rgb(0%,0%,0%);stroke-opacity:1;stroke-miterlimit:4;" d="M 174.697917 214.401042 L 144.302083 240.302083 " transform="matrix(0.75,0,0,0.75,0,0)"/>
<path style="fill:none;stroke-width:2;stroke-linecap:butt;stroke-linejoin:miter;stroke:rgb(0%,0%,0%);stroke-opacity:1;stroke-miterlimit:4;" d="M 144.302083 240.302083 L 147.302083 280.197917 " transform="matrix(0.75,0,0,0.75,0,0)"/>
<path style="fill:none;stroke-width:2;stroke-linecap:butt;stroke-linejoin:miter;stroke:rgb(0%,0%,0%);stroke-opacity:1;stroke-miterlimit:4;" d="M 138.598958 245.098958 L 141 276.302083 " transform="matrix(0.75,0,0,0.75,0,0)"/>
<path style="fill:none;stroke-width:2;stroke-linecap:butt;stroke-linejoin:miter;stroke:rgb(0%,0%,0%);stroke-opacity:1;stroke-miterlimit:4;" d="M 147.302083 280.197917 L 131.302083 286.802083 " transform="matrix(0.75,0,0,0.75,0,0)"/>
<path style="fill:none;stroke-width:2;stroke-linecap:butt;stroke-linejoin:miter;stroke:rgb(80%,80%,0%);stroke-opacity:1;stroke-miterlimit:4;" d="M 131.302083 286.802083 L 115.302083 293.401042 " transform="matrix(0.75,0,0,0.75,0,0)"/>
<path style="fill:none;stroke-width:2;stroke-linecap:butt;stroke-linejoin:miter;stroke:rgb(80%,80%,0%);stroke-opacity:1;stroke-miterlimit:4;" d="M 105.401042 289.598958 L 94.901042 277.302083 " transform="matrix(0.75,0,0,0.75,0,0)"/>
<path style="fill:none;stroke-width:2;stroke-linecap:butt;stroke-linejoin:miter;stroke:rgb(0%,0%,0%);stroke-opacity:1;stroke-miterlimit:4;" d="M 94.901042 277.302083 L 84.401042 264.901042 " transform="matrix(0.75,0,0,0.75,0,0)"/>
<path style="fill:none;stroke-width:2;stroke-linecap:butt;stroke-linejoin:miter;stroke:rgb(0%,0%,0%);stroke-opacity:1;stroke-miterlimit:4;" d="M 84.401042 264.901042 L 67.302083 266.302083 " transform="matrix(0.75,0,0,0.75,0,0)"/>
<path style="fill:none;stroke-width:2;stroke-linecap:butt;stroke-linejoin:miter;stroke:rgb(0%,0%,100%);stroke-opacity:1;stroke-miterlimit:4;" d="M 67.302083 266.302083 L 50.197917 267.598958 " transform="matrix(0.75,0,0,0.75,0,0)"/>
<path style="fill:none;stroke-width:2;stroke-linecap:butt;stroke-linejoin:miter;stroke:rgb(0%,0%,0%);stroke-opacity:1;stroke-miterlimit:4;" d="M 84.401042 264.901042 L 92.802083 251.401042 " transform="matrix(0.75,0,0,0.75,0,0)"/>
<path style="fill:none;stroke-width:2;stroke-linecap:butt;stroke-linejoin:miter;stroke:rgb(0%,0%,100%);stroke-opacity:1;stroke-miterlimit:4;" d="M 92.802083 251.401042 L 101.098958 237.901042 " transform="matrix(0.75,0,0,0.75,0,0)"/>
<path style="fill:none;stroke-width:2;stroke-linecap:butt;stroke-linejoin:miter;stroke:rgb(0%,0%,0%);stroke-opacity:1;stroke-miterlimit:4;" d="M 91.802083 264.401042 L 99 252.697917 " transform="matrix(0.75,0,0,0.75,0,0)"/>
<path style="fill:none;stroke-width:2;stroke-linecap:butt;stroke-linejoin:miter;stroke:rgb(0%,0%,100%);stroke-opacity:1;stroke-miterlimit:4;" d="M 99 252.697917 L 106.197917 241 " transform="matrix(0.75,0,0,0.75,0,0)"/>
<path style="fill:none;stroke-width:2;stroke-linecap:butt;stroke-linejoin:miter;stroke:rgb(0%,0%,0%);stroke-opacity:1;stroke-miterlimit:4;" d="M 293.401042 263.401042 L 257.197917 280.598958 " transform="matrix(0.75,0,0,0.75,0,0)"/>
<path style="fill:none;stroke-width:2;stroke-linecap:butt;stroke-linejoin:miter;stroke:rgb(0%,0%,100%);stroke-opacity:1;stroke-miterlimit:4;" d="M 111 232.302083 L 127.598958 236.302083 " transform="matrix(0.75,0,0,0.75,0,0)"/>
<path style="fill:none;stroke-width:2;stroke-linecap:butt;stroke-linejoin:miter;stroke:rgb(0%,0%,0%);stroke-opacity:1;stroke-miterlimit:4;" d="M 127.598958 236.302083 L 144.302083 240.302083 " transform="matrix(0.75,0,0,0.75,0,0)"/>
<path style="fill:none;stroke-width:2;stroke-linecap:butt;stroke-linejoin:miter;stroke:rgb(0%,0%,0%);stroke-opacity:1;stroke-miterlimit:4;" d="M 293.401042 263.401042 L 300.302083 278 " transform="matrix(0.75,0,0,0.75,0,0)"/>
<path style="fill:none;stroke-width:2;stroke-linecap:butt;stroke-linejoin:miter;stroke:rgb(0%,0%,100%);stroke-opacity:1;stroke-miterlimit:4;" d="M 300.302083 278 L 307.197917 292.598958 " transform="matrix(0.75,0,0,0.75,0,0)"/>
<path style="fill:none;stroke-width:2;stroke-linecap:butt;stroke-linejoin:miter;stroke:rgb(0%,0%,0%);stroke-opacity:1;stroke-miterlimit:4;" d="M 437.598958 168.901042 L 418.5 204 " transform="matrix(0.75,0,0,0.75,0,0)"/>
<path style="fill:none;stroke-width:2;stroke-linecap:butt;stroke-linejoin:miter;stroke:rgb(0%,0%,0%);stroke-opacity:1;stroke-miterlimit:4;" d="M 430.302083 169.901042 L 415.302083 197.302083 " transform="matrix(0.75,0,0,0.75,0,0)"/>
<path style="fill:none;stroke-width:1;stroke-linecap:butt;stroke-linejoin:miter;stroke:rgb(0%,0%,0%);stroke-opacity:1;stroke-miterlimit:4;" d="M 290.697917 260.901042 L 291.302083 260.401042 " transform="matrix(0.75,0,0,0.75,0,0)"/>
<path style="fill:none;stroke-width:1;stroke-linecap:butt;stroke-linejoin:miter;stroke:rgb(0%,0%,0%);stroke-opacity:1;stroke-miterlimit:4;" d="M 288.098958 258.401042 L 289.197917 257.401042 " transform="matrix(0.75,0,0,0.75,0,0)"/>
<path style="fill:none;stroke-width:1;stroke-linecap:butt;stroke-linejoin:miter;stroke:rgb(0%,0%,0%);stroke-opacity:1;stroke-miterlimit:4;" d="M 285.401042 255.802083 L 287.098958 254.401042 " transform="matrix(0.75,0,0,0.75,0,0)"/>
<path style="fill:none;stroke-width:1;stroke-linecap:butt;stroke-linejoin:miter;stroke:rgb(0%,0%,0%);stroke-opacity:1;stroke-miterlimit:4;" d="M 282.802083 253.302083 L 285.098958 251.401042 " transform="matrix(0.75,0,0,0.75,0,0)"/>
<path style="fill:none;stroke-width:1;stroke-linecap:butt;stroke-linejoin:miter;stroke:rgb(0%,0%,0%);stroke-opacity:1;stroke-miterlimit:4;" d="M 280.197917 250.802083 L 283 248.401042 " transform="matrix(0.75,0,0,0.75,0,0)"/>
<path style="fill:none;stroke-width:1;stroke-linecap:butt;stroke-linejoin:miter;stroke:rgb(0%,0%,0%);stroke-opacity:1;stroke-miterlimit:4;" d="M 277.5 248.302083 L 280.901042 245.302083 " transform="matrix(0.75,0,0,0.75,0,0)"/>
<path style="fill:none;stroke-width:1;stroke-linecap:butt;stroke-linejoin:miter;stroke:rgb(0%,0%,0%);stroke-opacity:1;stroke-miterlimit:4;" d="M 274.901042 245.697917 L 278.901042 242.302083 " transform="matrix(0.75,0,0,0.75,0,0)"/>
<path style="fill:none;stroke-width:1;stroke-linecap:butt;stroke-linejoin:miter;stroke:rgb(0%,0%,0%);stroke-opacity:1;stroke-miterlimit:4;" d="M 272.197917 243.197917 L 276.802083 239.302083 " transform="matrix(0.75,0,0,0.75,0,0)"/>
<path style="fill:none;stroke-width:2;stroke-linecap:butt;stroke-linejoin:miter;stroke:rgb(0%,0%,0%);stroke-opacity:1;stroke-miterlimit:4;" d="M 210.5 227.098958 L 212.401042 227.802083 L 212.5 228.598958 " transform="matrix(0.75,0,0,0.75,0,0)"/>
<path style="fill:none;stroke-width:2;stroke-linecap:butt;stroke-linejoin:miter;stroke:rgb(0%,0%,0%);stroke-opacity:1;stroke-miterlimit:4;" d="M 258.098958 282.401042 L 257.197917 280.598958 L 259 279.697917 " transform="matrix(0.75,0,0,0.75,0,0)"/>
<path style="fill:none;stroke-width:2;stroke-linecap:butt;stroke-linejoin:miter;stroke:rgb(0%,0%,0%);stroke-opacity:1;stroke-miterlimit:4;" d="M 273.5 314.901042 L 274.401042 316.697917 L 275.098958 316.302083 " transform="matrix(0.75,0,0,0.75,0,0)"/>
<path style="fill:none;stroke-width:2;stroke-linecap:butt;stroke-linejoin:miter;stroke:rgb(0%,0%,0%);stroke-opacity:1;stroke-miterlimit:4;" d="M 366.598958 337.098958 L 367.5 338.901042 L 367.098958 339.5 " transform="matrix(0.75,0,0,0.75,0,0)"/>
<path style="fill:none;stroke-width:2;stroke-linecap:butt;stroke-linejoin:miter;stroke:rgb(0%,0%,0%);stroke-opacity:1;stroke-miterlimit:4;" d="M 410.901042 272.901042 L 412.901042 273.098958 L 414 271.401042 " transform="matrix(0.75,0,0,0.75,0,0)"/>
<path style="fill:none;stroke-width:2;stroke-linecap:butt;stroke-linejoin:miter;stroke:rgb(0%,0%,0%);stroke-opacity:1;stroke-miterlimit:4;" d="M 434.5 241.802083 L 435.598958 240.098958 L 434.802083 238.302083 " transform="matrix(0.75,0,0,0.75,0,0)"/>
<path style="fill:none;stroke-width:2;stroke-linecap:butt;stroke-linejoin:miter;stroke:rgb(0%,0%,0%);stroke-opacity:1;stroke-miterlimit:4;" d="M 374.098958 157.802083 L 374 157 L 374.802083 156.697917 " transform="matrix(0.75,0,0,0.75,0,0)"/>
<path style="fill:none;stroke-width:2;stroke-linecap:butt;stroke-linejoin:miter;stroke:rgb(0%,0%,0%);stroke-opacity:1;stroke-miterlimit:4;" d="M 356.802083 235.5 L 355.901042 233.697917 L 355 233.697917 " transform="matrix(0.75,0,0,0.75,0,0)"/>
<path style="fill:none;stroke-width:2;stroke-linecap:butt;stroke-linejoin:miter;stroke:rgb(0%,0%,0%);stroke-opacity:1;stroke-miterlimit:4;" d="M 147.197917 278.197917 L 147.302083 280.197917 L 146.5 280.5 " transform="matrix(0.75,0,0,0.75,0,0)"/>
<path style=" stroke:none;fill-rule:nonzero;fill:rgb(100%,0%,0%);fill-opacity:1;" d="M 93.449219 121.273438 C 93.449219 119.925781 93.800781 118.851562 94.5 118.050781 C 95.148438 117.300781 96.101562 116.925781 97.351562 116.925781 C 98.601562 116.925781 99.574219 117.300781 100.273438 118.050781 C 100.925781 118.851562 101.25 119.925781 101.25 121.273438 C 101.25 122.625 100.925781 123.699219 100.273438 124.5 C 99.574219 125.300781 98.601562 125.699219 97.351562 125.699219 C 96.101562 125.699219 95.148438 125.300781 94.5 124.5 C 93.800781 123.75 93.449219 122.675781 93.449219 121.273438 M 97.351562 124.726562 C 98.25 124.726562 98.925781 124.425781 99.375 123.824219 C 99.824219 123.273438 100.050781 122.425781 100.050781 121.273438 C 100.050781 120.175781 99.824219 119.324219 99.375 118.726562 C 98.925781 118.175781 98.25 117.898438 97.351562 117.898438 C 96.5 117.898438 95.851562 118.175781 95.398438 118.726562 C 94.898438 119.273438 94.648438 120.125 94.648438 121.273438 C 94.648438 122.425781 94.898438 123.273438 95.398438 123.824219 C 95.851562 124.425781 96.5 124.726562 97.351562 124.726562 "/>
<path style=" stroke:none;fill-rule:nonzero;fill:rgb(0%,0%,100%);fill-opacity:1;" d="M 123.75 127.050781 L 126.523438 131.550781 C 126.726562 131.851562 126.976562 132.273438 127.273438 132.824219 C 127.574219 133.324219 127.726562 133.601562 127.726562 133.648438 L 127.726562 127.050781 L 128.851562 127.050781 L 128.851562 135.523438 L 127.648438 135.523438 L 124.726562 130.648438 C 124.476562 130.25 124.226562 129.824219 123.976562 129.375 C 123.726562 128.925781 123.574219 128.648438 123.523438 128.550781 L 123.523438 135.523438 L 122.398438 135.523438 L 122.398438 127.050781 L 123.75 127.050781 "/>
<path style=" stroke:none;fill-rule:nonzero;fill:rgb(100%,0%,0%);fill-opacity:1;" d="M 178.199219 151.425781 C 178.199219 150.074219 178.550781 149.023438 179.25 148.273438 C 179.898438 147.523438 180.851562 147.148438 182.101562 147.148438 C 183.351562 147.148438 184.324219 147.523438 185.023438 148.273438 C 185.675781 149.023438 186 150.074219 186 151.425781 C 186 152.824219 185.675781 153.925781 185.023438 154.726562 C 184.324219 155.476562 183.351562 155.851562 182.101562 155.851562 C 180.851562 155.851562 179.898438 155.476562 179.25 154.726562 C 178.550781 153.925781 178.199219 152.824219 178.199219 151.425781 M 182.101562 154.875 C 182.949219 154.875 183.625 154.601562 184.125 154.050781 C 184.574219 153.449219 184.800781 152.574219 184.800781 151.425781 C 184.800781 150.324219 184.574219 149.5 184.125 148.949219 C 183.625 148.398438 182.949219 148.125 182.101562 148.125 C 181.25 148.125 180.574219 148.398438 180.074219 148.949219 C 179.625 149.5 179.398438 150.324219 179.398438 151.425781 C 179.398438 152.574219 179.625 153.449219 180.074219 154.050781 C 180.574219 154.601562 181.25 154.875 182.101562 154.875 "/>
<path style=" stroke:none;fill-rule:nonzero;fill:rgb(0%,0%,100%);fill-opacity:1;" d="M 153.148438 196.125 L 154.273438 196.125 L 154.273438 199.726562 L 158.625 199.726562 L 158.625 196.125 L 159.824219 196.125 L 159.824219 204.601562 L 158.625 204.601562 L 158.625 200.699219 L 154.273438 200.699219 L 154.273438 204.601562 L 153.148438 204.601562 L 153.148438 196.125 "/>
<path style=" stroke:none;fill-rule:nonzero;fill:rgb(0%,0%,100%);fill-opacity:1;" d="M 162.824219 196.125 L 165.601562 200.625 C 165.800781 200.925781 166.023438 201.324219 166.273438 201.824219 C 166.574219 202.375 166.75 202.675781 166.800781 202.726562 L 166.800781 196.125 L 167.925781 196.125 L 167.925781 204.601562 L 166.726562 204.601562 L 163.726562 199.648438 C 163.523438 199.300781 163.300781 198.898438 163.050781 198.449219 C 162.800781 198 162.648438 197.699219 162.601562 197.550781 L 162.601562 204.601562 L 161.476562 204.601562 L 161.476562 196.125 L 162.824219 196.125 "/>
<path style=" stroke:none;fill-rule:nonzero;fill:rgb(100%,0%,0%);fill-opacity:1;" d="M 191.851562 265.800781 C 191.851562 264.449219 192.175781 263.375 192.824219 262.574219 C 193.523438 261.824219 194.5 261.449219 195.75 261.449219 C 197 261.449219 197.949219 261.824219 198.601562 262.574219 C 199.300781 263.375 199.648438 264.449219 199.648438 265.800781 C 199.648438 267.148438 199.300781 268.226562 198.601562 269.023438 C 197.898438 269.773438 196.949219 270.148438 195.75 270.148438 C 194.5 270.148438 193.523438 269.773438 192.824219 269.023438 C 192.175781 268.226562 191.851562 267.148438 191.851562 265.800781 M 195.75 269.25 C 196.601562 269.25 197.25 268.949219 197.699219 268.351562 C 198.199219 267.75 198.449219 266.898438 198.449219 265.800781 C 198.449219 264.648438 198.199219 263.800781 197.699219 263.25 C 197.25 262.699219 196.601562 262.425781 195.75 262.425781 C 194.851562 262.425781 194.175781 262.699219 193.726562 263.25 C 193.273438 263.800781 193.050781 264.648438 193.050781 265.800781 C 193.050781 266.949219 193.273438 267.800781 193.726562 268.351562 C 194.175781 268.949219 194.851562 269.25 195.75 269.25 "/>
<path style=" stroke:none;fill-rule:nonzero;fill:rgb(0%,0%,100%);fill-opacity:1;" d="M 231 220.425781 L 233.773438 224.925781 C 233.976562 225.226562 234.226562 225.625 234.523438 226.125 C 234.824219 226.675781 234.976562 226.976562 234.976562 227.023438 L 234.976562 220.425781 L 236.101562 220.425781 L 236.101562 228.898438 L 234.898438 228.898438 L 231.976562 223.949219 C 231.726562 223.601562 231.476562 223.199219 231.226562 222.75 C 230.976562 222.300781 230.824219 222 230.773438 221.851562 L 230.773438 228.898438 L 229.648438 228.898438 L 229.648438 220.425781 L 231 220.425781 "/>
<path style=" stroke:none;fill-rule:nonzero;fill:rgb(100%,0%,0%);fill-opacity:1;" d="M 301.648438 256.574219 C 301.648438 255.226562 301.976562 254.175781 302.625 253.425781 C 303.273438 252.675781 304.226562 252.300781 305.476562 252.300781 C 306.773438 252.300781 307.75 252.675781 308.398438 253.425781 C 309.050781 254.175781 309.375 255.226562 309.375 256.574219 C 309.375 257.976562 309.050781 259.050781 308.398438 259.800781 C 307.699219 260.601562 306.726562 261 305.476562 261 C 304.273438 261 303.324219 260.601562 302.625 259.800781 C 301.976562 259.050781 301.648438 257.976562 301.648438 256.574219 M 305.476562 260.023438 C 306.375 260.023438 307.050781 259.726562 307.5 259.125 C 307.949219 258.574219 308.175781 257.726562 308.175781 256.574219 C 308.175781 255.476562 307.949219 254.648438 307.5 254.101562 C 307.050781 253.5 306.375 253.199219 305.476562 253.199219 C 304.625 253.199219 303.976562 253.5 303.523438 254.101562 C 303.074219 254.648438 302.851562 255.476562 302.851562 256.574219 C 302.851562 257.726562 303.074219 258.574219 303.523438 259.125 C 303.976562 259.726562 304.625 260.023438 305.476562 260.023438 "/>
<path style=" stroke:none;fill-rule:nonzero;fill:rgb(100%,0%,0%);fill-opacity:1;" d="M 246.300781 274.648438 L 247.425781 274.648438 L 247.425781 278.25 L 251.773438 278.25 L 251.773438 274.648438 L 252.976562 274.648438 L 252.976562 283.125 L 251.773438 283.125 L 251.773438 279.226562 L 247.425781 279.226562 L 247.425781 283.125 L 246.300781 283.125 L 246.300781 274.648438 "/>
<path style=" stroke:none;fill-rule:nonzero;fill:rgb(100%,0%,0%);fill-opacity:1;" d="M 254.699219 278.851562 C 254.699219 277.5 255.023438 276.449219 255.675781 275.699219 C 256.375 274.898438 257.351562 274.5 258.601562 274.5 C 259.851562 274.5 260.800781 274.898438 261.449219 275.699219 C 262.148438 276.449219 262.5 277.5 262.5 278.851562 C 262.5 280.25 262.148438 281.324219 261.449219 282.074219 C 260.800781 282.875 259.851562 283.273438 258.601562 283.273438 C 257.351562 283.273438 256.375 282.875 255.675781 282.074219 C 255.023438 281.324219 254.699219 280.25 254.699219 278.851562 M 258.601562 282.300781 C 259.449219 282.300781 260.101562 282 260.550781 281.398438 C 261.050781 280.851562 261.300781 280 261.300781 278.851562 C 261.300781 277.75 261.050781 276.925781 260.550781 276.375 C 260.101562 275.773438 259.449219 275.476562 258.601562 275.476562 C 257.75 275.476562 257.074219 275.75 256.574219 276.300781 C 256.125 276.898438 255.898438 277.75 255.898438 278.851562 C 255.898438 280 256.125 280.851562 256.574219 281.398438 C 257.074219 282 257.75 282.300781 258.601562 282.300781 "/>
<path style=" stroke:none;fill-rule:nonzero;fill:rgb(80%,80%,0%);fill-opacity:1;" d="M 282 150.449219 C 282.050781 150.449219 282.199219 150.5 282.449219 150.601562 C 282.75 150.75 283.023438 150.851562 283.273438 150.898438 C 283.574219 150.949219 283.875 150.976562 284.175781 150.976562 C 284.726562 150.976562 285.148438 150.851562 285.449219 150.601562 C 285.75 150.351562 285.898438 150 285.898438 149.550781 C 285.898438 149.199219 285.824219 148.949219 285.675781 148.800781 C 285.523438 148.601562 285.324219 148.449219 285.074219 148.351562 C 284.824219 148.25 284.5 148.125 284.101562 147.976562 C 283.601562 147.824219 283.199219 147.675781 282.898438 147.523438 C 282.601562 147.375 282.351562 147.148438 282.148438 146.851562 C 281.949219 146.550781 281.851562 146.148438 281.851562 145.648438 C 281.851562 144.949219 282.101562 144.375 282.601562 143.925781 C 283.050781 143.476562 283.75 143.25 284.699219 143.25 C 285.398438 143.25 286.101562 143.398438 286.800781 143.699219 L 286.574219 144.675781 C 285.875 144.375 285.273438 144.226562 284.773438 144.226562 C 284.226562 144.226562 283.800781 144.351562 283.5 144.601562 C 283.199219 144.800781 283.050781 145.101562 283.050781 145.5 C 283.050781 145.800781 283.125 146.050781 283.273438 146.25 C 283.425781 146.449219 283.625 146.601562 283.875 146.699219 C 284.074219 146.800781 284.375 146.898438 284.773438 147 C 285.273438 147.148438 285.675781 147.324219 285.976562 147.523438 C 286.273438 147.675781 286.550781 147.898438 286.800781 148.199219 C 287 148.550781 287.101562 149 287.101562 149.550781 C 287.101562 150.300781 286.851562 150.898438 286.351562 151.351562 C 285.800781 151.75 285.101562 151.949219 284.25 151.949219 C 283.75 151.949219 283.300781 151.898438 282.898438 151.800781 C 282.5 151.699219 282.101562 151.550781 281.699219 151.351562 L 282 150.449219 "/>
<path style=" stroke:none;fill-rule:nonzero;fill:rgb(0%,0%,100%);fill-opacity:1;" d="M 305.773438 100.648438 L 308.550781 105.148438 C 308.699219 105.449219 308.925781 105.875 309.226562 106.425781 C 309.523438 106.925781 309.675781 107.199219 309.675781 107.25 L 309.675781 100.648438 L 310.875 100.648438 L 310.875 109.125 L 309.675781 109.125 L 306.675781 104.25 C 306.476562 103.851562 306.25 103.425781 306 102.976562 C 305.75 102.574219 305.574219 102.300781 305.476562 102.148438 L 305.476562 109.125 L 304.425781 109.125 L 304.425781 100.648438 L 305.773438 100.648438 "/>
<path style=" stroke:none;fill-rule:nonzero;fill:rgb(80%,80%,0%);fill-opacity:1;" d="M 234.675781 175.800781 C 234.726562 175.800781 234.875 175.875 235.125 176.023438 C 235.425781 176.125 235.699219 176.199219 235.949219 176.25 C 236.25 176.351562 236.550781 176.398438 236.851562 176.398438 C 237.398438 176.398438 237.824219 176.273438 238.125 176.023438 C 238.425781 175.726562 238.574219 175.351562 238.574219 174.898438 C 238.574219 174.601562 238.5 174.351562 238.351562 174.148438 C 238.199219 173.949219 238 173.800781 237.75 173.699219 C 237.5 173.601562 237.175781 173.5 236.773438 173.398438 C 236.273438 173.25 235.875 173.101562 235.574219 172.949219 C 235.273438 172.800781 235.023438 172.574219 234.824219 172.273438 C 234.625 171.976562 234.523438 171.550781 234.523438 171 C 234.523438 170.300781 234.75 169.726562 235.199219 169.273438 C 235.699219 168.875 236.425781 168.675781 237.375 168.675781 C 238.023438 168.675781 238.726562 168.824219 239.476562 169.125 L 239.25 170.023438 C 238.550781 169.773438 237.949219 169.648438 237.449219 169.648438 C 236.898438 169.648438 236.476562 169.75 236.175781 169.949219 C 235.875 170.199219 235.726562 170.523438 235.726562 170.925781 C 235.726562 171.226562 235.800781 171.449219 235.949219 171.601562 C 236.101562 171.800781 236.273438 171.949219 236.476562 172.050781 C 236.726562 172.148438 237.050781 172.273438 237.449219 172.425781 C 237.949219 172.574219 238.351562 172.726562 238.648438 172.875 C 238.949219 173.023438 239.226562 173.273438 239.476562 173.625 C 239.675781 173.925781 239.773438 174.351562 239.773438 174.898438 C 239.773438 175.699219 239.5 176.300781 238.949219 176.699219 C 238.449219 177.148438 237.773438 177.375 236.925781 177.375 C 236.425781 177.375 235.976562 177.300781 235.574219 177.148438 C 235.175781 177.050781 234.75 176.925781 234.300781 176.773438 L 234.675781 175.800781 "/>
<path style=" stroke:none;fill-rule:nonzero;fill:rgb(80%,80%,0%);fill-opacity:1;" d="M 80.398438 224.476562 C 80.449219 224.476562 80.601562 224.550781 80.851562 224.699219 C 81.101562 224.800781 81.375 224.875 81.675781 224.925781 C 81.976562 224.976562 82.273438 225 82.574219 225 C 83.074219 225 83.5 224.875 83.851562 224.625 C 84.148438 224.375 84.300781 224.023438 84.300781 223.574219 C 84.300781 223.273438 84.226562 223.023438 84.074219 222.824219 C 83.925781 222.625 83.726562 222.476562 83.476562 222.375 C 83.226562 222.273438 82.898438 222.175781 82.5 222.074219 C 82 221.875 81.601562 221.726562 81.300781 221.625 C 81 221.476562 80.75 221.25 80.550781 220.949219 C 80.351562 220.648438 80.25 220.226562 80.25 219.675781 C 80.25 218.976562 80.476562 218.398438 80.925781 217.949219 C 81.425781 217.5 82.148438 217.273438 83.101562 217.273438 C 83.75 217.273438 84.449219 217.449219 85.199219 217.800781 L 84.898438 218.699219 C 84.25 218.398438 83.675781 218.25 83.175781 218.25 C 82.625 218.25 82.199219 218.375 81.898438 218.625 C 81.550781 218.875 81.398438 219.175781 81.449219 219.523438 C 81.449219 219.824219 81.523438 220.074219 81.675781 220.273438 C 81.824219 220.476562 82 220.625 82.199219 220.726562 C 82.449219 220.824219 82.773438 220.925781 83.175781 221.023438 C 83.675781 221.226562 84.074219 221.398438 84.375 221.550781 C 84.675781 221.699219 84.925781 221.949219 85.125 222.300781 C 85.375 222.601562 85.5 223.023438 85.5 223.574219 C 85.5 224.375 85.226562 224.976562 84.675781 225.375 C 84.175781 225.773438 83.476562 225.976562 82.574219 225.976562 C 82.074219 225.976562 81.648438 225.925781 81.300781 225.824219 C 80.898438 225.726562 80.476562 225.574219 80.023438 225.375 L 80.398438 224.476562 "/>
<path style=" stroke:none;fill-rule:nonzero;fill:rgb(0%,0%,100%);fill-opacity:1;" d="M 17.023438 196.726562 L 18.226562 196.726562 L 18.226562 200.398438 L 22.574219 200.398438 L 22.574219 196.726562 L 23.699219 196.726562 L 23.699219 205.273438 L 22.574219 205.273438 L 22.574219 201.300781 L 18.226562 201.300781 L 18.226562 205.273438 L 17.023438 205.273438 L 17.023438 196.726562 "/>
<path style=" stroke:none;fill-rule:nonzero;fill:rgb(0%,0%,100%);fill-opacity:1;" d="M 25.351562 204.976562 C 25.5 204.625 25.726562 204.351562 26.023438 204.148438 C 26.375 203.949219 26.773438 203.851562 27.226562 203.851562 C 27.773438 203.851562 28.226562 204 28.574219 204.300781 C 28.875 204.601562 29.023438 205.023438 29.023438 205.574219 C 29.023438 206.125 28.824219 206.648438 28.425781 207.148438 C 28.023438 207.699219 27.398438 208.273438 26.550781 208.875 L 29.101562 208.875 L 29.101562 209.476562 L 25.351562 209.476562 L 25.351562 208.949219 C 26.050781 208.449219 26.601562 208.023438 27 207.675781 C 27.398438 207.273438 27.699219 206.925781 27.898438 206.625 C 28.101562 206.273438 28.199219 205.925781 28.199219 205.574219 C 28.199219 205.226562 28.125 204.949219 27.976562 204.75 C 27.773438 204.550781 27.523438 204.449219 27.226562 204.449219 C 26.925781 204.449219 26.675781 204.523438 26.476562 204.675781 C 26.273438 204.773438 26.101562 204.949219 25.949219 205.199219 L 25.351562 204.976562 "/>
<path style=" stroke:none;fill-rule:nonzero;fill:rgb(0%,0%,100%);fill-opacity:1;" d="M 31.574219 196.726562 L 34.351562 201.226562 C 34.550781 201.523438 34.773438 201.949219 35.023438 202.5 C 35.324219 203.050781 35.5 203.324219 35.550781 203.324219 L 35.550781 196.726562 L 36.675781 196.726562 L 36.675781 205.273438 L 35.476562 205.273438 L 32.476562 200.324219 C 32.273438 199.925781 32.050781 199.523438 31.800781 199.125 C 31.550781 198.675781 31.398438 198.375 31.351562 198.226562 L 31.351562 205.273438 L 30.226562 205.273438 L 30.226562 196.726562 L 31.574219 196.726562 "/>
<path style=" stroke:none;fill-rule:nonzero;fill:rgb(0%,0%,100%);fill-opacity:1;" d="M 77.175781 168.898438 L 79.949219 173.398438 C 80.148438 173.699219 80.398438 174.125 80.699219 174.675781 C 81 175.226562 81.148438 175.5 81.148438 175.5 L 81.148438 168.898438 L 82.273438 168.898438 L 82.273438 177.449219 L 81.074219 177.449219 L 78.148438 172.5 C 77.898438 172.101562 77.648438 171.699219 77.398438 171.300781 C 77.148438 170.851562 77 170.550781 76.949219 170.398438 L 76.949219 177.449219 L 75.824219 177.449219 L 75.824219 168.898438 L 77.175781 168.898438 "/>
<path style=" stroke:none;fill-rule:nonzero;fill:rgb(0%,0%,0%);fill-opacity:1;" d="M 197.25 170.476562 L 198.449219 170.476562 L 198.449219 174.074219 L 202.726562 174.074219 L 202.726562 170.476562 L 203.925781 170.476562 L 203.925781 178.949219 L 202.726562 178.949219 L 202.726562 175.050781 L 198.449219 175.050781 L 198.449219 178.949219 L 197.25 178.949219 L 197.25 170.476562 "/>
</g>
</svg>
