<?xml version="1.0" encoding="UTF-8"?>
<svg xmlns="http://www.w3.org/2000/svg" xmlns:xlink="http://www.w3.org/1999/xlink" width="375pt" height="375pt" viewBox="0 0 375 375" version="1.1">
<g id="surface141">
<rect x="0" y="0" width="375" height="375" style="fill:rgb(100%,100%,100%);fill-opacity:1;stroke:none;"/>
<path style="fill:none;stroke-width:2;stroke-linecap:butt;stroke-linejoin:miter;stroke:rgb(0%,0%,0%);stroke-opacity:1;stroke-miterlimit:4;" d="M 85.697917 341.901042 L 120.401042 315.302083 " transform="matrix(0.75,0,0,0.75,0,0)"/>
<path style="fill:none;stroke-width:2;stroke-linecap:butt;stroke-linejoin:miter;stroke:rgb(0%,0%,0%);stroke-opacity:1;stroke-miterlimit:4;" d="M 120.401042 315.302083 L 114.802083 271.901042 " transform="matrix(0.75,0,0,0.75,0,0)"/>
<path style="fill:none;stroke-width:2;stroke-linecap:butt;stroke-linejoin:miter;stroke:rgb(0%,0%,0%);stroke-opacity:1;stroke-miterlimit:4;" d="M 128.197917 307.598958 L 124.302083 277.197917 " transform="matrix(0.75,0,0,0.75,0,0)"/>
<path style="fill:none;stroke-width:2;stroke-linecap:butt;stroke-linejoin:miter;stroke:rgb(0%,0%,0%);stroke-opacity:1;stroke-miterlimit:4;" d="M 114.802083 271.901042 L 74.302083 255.098958 " transform="matrix(0.75,0,0,0.75,0,0)"/>
<path style="fill:none;stroke-width:2;stroke-linecap:butt;stroke-linejoin:miter;stroke:rgb(0%,0%,0%);stroke-opacity:1;stroke-miterlimit:4;" d="M 70 255.598958 L 67.697917 237.901042 " transform="matrix(0.75,0,0,0.75,0,0)"/>
<path style="fill:none;stroke-width:2;stroke-linecap:butt;stroke-linejoin:miter;stroke:rgb(100%,0%,0%);stroke-opacity:1;stroke-miterlimit:4;" d="M 67.697917 237.901042 L 65.401042 220.197917 " transform="matrix(0.75,0,0,0.75,0,0)"/>
<path style="fill:none;stroke-width:2;stroke-linecap:butt;stroke-linejoin:miter;stroke:rgb(0%,0%,0%);stroke-opacity:1;stroke-miterlimit:4;" d="M 78.697917 254.5 L 76.401042 236.802083 " transform="matrix(0.75,0,0,0.75,0,0)"/>
<path style="fill:none;stroke-width:2;stroke-linecap:butt;stroke-linejoin:miter;stroke:rgb(100%,0%,0%);stroke-opacity:1;stroke-miterlimit:4;" d="M 76.401042 236.802083 L 74 219 " transform="matrix(0.75,0,0,0.75,0,0)"/>
<path style="fill:none;stroke-width:2;stroke-linecap:butt;stroke-linejoin:miter;stroke:rgb(0%,0%,0%);stroke-opacity:1;stroke-miterlimit:4;" d="M 74.302083 255.098958 L 60.5 265.697917 " transform="matrix(0.75,0,0,0.75,0,0)"/>
<path style="fill:none;stroke-width:2;stroke-linecap:butt;stroke-linejoin:miter;stroke:rgb(100%,0%,0%);stroke-opacity:1;stroke-miterlimit:4;" d="M 60.5 265.697917 L 46.697917 276.197917 " transform="matrix(0.75,0,0,0.75,0,0)"/>
<path style="fill:none;stroke-width:2;stroke-linecap:butt;stroke-linejoin:miter;stroke:rgb(0%,0%,0%);stroke-opacity:1;stroke-miterlimit:4;" d="M 114.802083 271.901042 L 129 260.901042 " transform="matrix(0.75,0,0,0.75,0,0)"/>
<path style="fill:none;stroke-width:2;stroke-linecap:butt;stroke-linejoin:miter;stroke:rgb(0%,0%,100%);stroke-opacity:1;stroke-miterlimit:4;" d="M 129 260.901042 L 143.302083 250 " transform="matrix(0.75,0,0,0.75,0,0)"/>
<path style="fill:none;stroke-width:2;stroke-linecap:butt;stroke-linejoin:miter;stroke:rgb(0%,0%,100%);stroke-opacity:1;stroke-miterlimit:4;" d="M 152.697917 237.598958 L 159.5 221.197917 " transform="matrix(0.75,0,0,0.75,0,0)"/>
<path style="fill:none;stroke-width:2;stroke-linecap:butt;stroke-linejoin:miter;stroke:rgb(0%,0%,0%);stroke-opacity:1;stroke-miterlimit:4;" d="M 159.5 221.197917 L 166.302083 204.901042 " transform="matrix(0.75,0,0,0.75,0,0)"/>
<path style="fill:none;stroke-width:2;stroke-linecap:butt;stroke-linejoin:miter;stroke:rgb(0%,0%,0%);stroke-opacity:1;stroke-miterlimit:4;" d="M 162.197917 206.5 L 155.5 190.302083 " transform="matrix(0.75,0,0,0.75,0,0)"/>
<path style="fill:none;stroke-width:2;stroke-linecap:butt;stroke-linejoin:miter;stroke:rgb(100%,0%,0%);stroke-opacity:1;stroke-miterlimit:4;" d="M 155.5 190.302083 L 148.802083 174 " transform="matrix(0.75,0,0,0.75,0,0)"/>
<path style="fill:none;stroke-width:2;stroke-linecap:butt;stroke-linejoin:miter;stroke:rgb(0%,0%,0%);stroke-opacity:1;stroke-miterlimit:4;" d="M 170.302083 203.197917 L 163.598958 186.901042 " transform="matrix(0.75,0,0,0.75,0,0)"/>
<path style="fill:none;stroke-width:2;stroke-linecap:butt;stroke-linejoin:miter;stroke:rgb(100%,0%,0%);stroke-opacity:1;stroke-miterlimit:4;" d="M 163.598958 186.901042 L 156.901042 170.598958 " transform="matrix(0.75,0,0,0.75,0,0)"/>
<path style="fill:none;stroke-width:2;stroke-linecap:butt;stroke-linejoin:miter;stroke:rgb(0%,0%,0%);stroke-opacity:1;stroke-miterlimit:4;" d="M 166.302083 204.901042 L 206.697917 221.598958 " transform="matrix(0.75,0,0,0.75,0,0)"/>
<path style="fill-rule:evenodd;fill:rgb(0%,0%,0%);fill-opacity:1;stroke-width:1;stroke-linecap:butt;stroke-linejoin:miter;stroke:rgb(0%,0%,0%);stroke-opacity:1;stroke-miterlimit:4;" d="M 206.697917 221.598958 L 222.302083 212.802083 L 223.901042 216.901042 Z M 206.697917 221.598958 " transform="matrix(0.75,0,0,0.75,0,0)"/>
<path style="fill-rule:evenodd;fill:rgb(0%,0%,100%);fill-opacity:1;stroke-width:1;stroke-linecap:butt;stroke-linejoin:miter;stroke:rgb(0%,0%,100%);stroke-opacity:1;stroke-miterlimit:4;" d="M 222.302083 212.802083 L 241.197917 212.098958 L 237.901042 204 Z M 222.302083 212.802083 " transform="matrix(0.75,0,0,0.75,0,0)"/>
<path style="fill-rule:evenodd;fill:rgb(0%,0%,100%);fill-opacity:1;stroke-width:1;stroke-linecap:butt;stroke-linejoin:miter;stroke:rgb(0%,0%,100%);stroke-opacity:1;stroke-miterlimit:4;" d="M 222.302083 212.802083 L 223.901042 216.901042 L 241.197917 212.098958 Z M 222.302083 212.802083 " transform="matrix(0.75,0,0,0.75,0,0)"/>
<path style="fill:none;stroke-width:2;stroke-linecap:butt;stroke-linejoin:miter;stroke:rgb(0%,0%,100%);stroke-opacity:1;stroke-miterlimit:4;" d="M 253.302083 209.697917 L 267.5 220.598958 " transform="matrix(0.75,0,0,0.75,0,0)"/>
<path style="fill:none;stroke-width:2;stroke-linecap:butt;stroke-linejoin:miter;stroke:rgb(0%,0%,0%);stroke-opacity:1;stroke-miterlimit:4;" d="M 267.5 220.598958 L 281.802083 231.598958 " transform="matrix(0.75,0,0,0.75,0,0)"/>
<path style="fill:none;stroke-width:2;stroke-linecap:butt;stroke-linejoin:miter;stroke:rgb(0%,0%,0%);stroke-opacity:1;stroke-miterlimit:4;" d="M 286.197917 232.197917 L 283.802083 250 " transform="matrix(0.75,0,0,0.75,0,0)"/>
<path style="fill:none;stroke-width:2;stroke-linecap:butt;stroke-linejoin:miter;stroke:rgb(100%,0%,0%);stroke-opacity:1;stroke-miterlimit:4;" d="M 283.802083 250 L 281.401042 267.802083 " transform="matrix(0.75,0,0,0.75,0,0)"/>
<path style="fill:none;stroke-width:2;stroke-linecap:butt;stroke-linejoin:miter;stroke:rgb(0%,0%,0%);stroke-opacity:1;stroke-miterlimit:4;" d="M 277.5 231 L 275.098958 248.901042 " transform="matrix(0.75,0,0,0.75,0,0)"/>
<path style="fill:none;stroke-width:2;stroke-linecap:butt;stroke-linejoin:miter;stroke:rgb(100%,0%,0%);stroke-opacity:1;stroke-miterlimit:4;" d="M 275.098958 248.901042 L 272.697917 266.697917 " transform="matrix(0.75,0,0,0.75,0,0)"/>
<path style="fill:none;stroke-width:2;stroke-linecap:butt;stroke-linejoin:miter;stroke:rgb(0%,0%,0%);stroke-opacity:1;stroke-miterlimit:4;" d="M 281.802083 231.598958 L 322.302083 214.901042 " transform="matrix(0.75,0,0,0.75,0,0)"/>
<path style="fill:none;stroke-width:1;stroke-linecap:butt;stroke-linejoin:miter;stroke:rgb(0%,0%,0%);stroke-opacity:1;stroke-miterlimit:4;" d="M 323.697917 209.302083 L 322.302083 209.098958 " transform="matrix(0.75,0,0,0.75,0,0)"/>
<path style="fill:none;stroke-width:1;stroke-linecap:butt;stroke-linejoin:miter;stroke:rgb(0%,0%,0%);stroke-opacity:1;stroke-miterlimit:4;" d="M 325.197917 203.697917 L 322.302083 203.302083 " transform="matrix(0.75,0,0,0.75,0,0)"/>
<path style="fill:none;stroke-width:1;stroke-linecap:butt;stroke-linejoin:miter;stroke:rgb(0%,0%,0%);stroke-opacity:1;stroke-miterlimit:4;" d="M 326.697917 198 L 322.401042 197.5 " transform="matrix(0.75,0,0,0.75,0,0)"/>
<path style="fill:none;stroke-width:1;stroke-linecap:butt;stroke-linejoin:miter;stroke:rgb(0%,0%,100%);stroke-opacity:1;stroke-miterlimit:4;" d="M 328.197917 192.401042 L 322.401042 191.697917 " transform="matrix(0.75,0,0,0.75,0,0)"/>
<path style="fill:none;stroke-width:1;stroke-linecap:butt;stroke-linejoin:miter;stroke:rgb(0%,0%,100%);stroke-opacity:1;stroke-miterlimit:4;" d="M 329.697917 186.802083 L 322.401042 185.802083 " transform="matrix(0.75,0,0,0.75,0,0)"/>
<path style="fill:none;stroke-width:1;stroke-linecap:butt;stroke-linejoin:miter;stroke:rgb(0%,0%,100%);stroke-opacity:1;stroke-miterlimit:4;" d="M 331.098958 181.197917 L 322.5 180 " transform="matrix(0.75,0,0,0.75,0,0)"/>
<path style="fill:none;stroke-width:2;stroke-linecap:butt;stroke-linejoin:miter;stroke:rgb(0%,0%,0%);stroke-opacity:1;stroke-miterlimit:4;" d="M 322.302083 214.901042 L 356.901042 241.598958 " transform="matrix(0.75,0,0,0.75,0,0)"/>
<path style="fill:none;stroke-width:2;stroke-linecap:butt;stroke-linejoin:miter;stroke:rgb(0%,0%,0%);stroke-opacity:1;stroke-miterlimit:4;" d="M 356.901042 241.598958 L 351.197917 284.901042 " transform="matrix(0.75,0,0,0.75,0,0)"/>
<path style="fill:none;stroke-width:2;stroke-linecap:butt;stroke-linejoin:miter;stroke:rgb(0%,0%,0%);stroke-opacity:1;stroke-miterlimit:4;" d="M 364.802083 249.197917 L 360.697917 279.598958 " transform="matrix(0.75,0,0,0.75,0,0)"/>
<path style="fill:none;stroke-width:2;stroke-linecap:butt;stroke-linejoin:miter;stroke:rgb(0%,0%,0%);stroke-opacity:1;stroke-miterlimit:4;" d="M 351.197917 284.901042 L 385.901042 311.598958 " transform="matrix(0.75,0,0,0.75,0,0)"/>
<path style="fill:none;stroke-width:2;stroke-linecap:butt;stroke-linejoin:miter;stroke:rgb(0%,0%,0%);stroke-opacity:1;stroke-miterlimit:4;" d="M 385.901042 311.598958 L 426.302083 294.901042 " transform="matrix(0.75,0,0,0.75,0,0)"/>
<path style="fill:none;stroke-width:2;stroke-linecap:butt;stroke-linejoin:miter;stroke:rgb(0%,0%,0%);stroke-opacity:1;stroke-miterlimit:4;" d="M 388.598958 301 L 416.901042 289.302083 " transform="matrix(0.75,0,0,0.75,0,0)"/>
<path style="fill:none;stroke-width:2;stroke-linecap:butt;stroke-linejoin:miter;stroke:rgb(0%,0%,0%);stroke-opacity:1;stroke-miterlimit:4;" d="M 426.302083 294.901042 L 440.098958 305.5 " transform="matrix(0.75,0,0,0.75,0,0)"/>
<path style="fill:none;stroke-width:2;stroke-linecap:butt;stroke-linejoin:miter;stroke:rgb(100%,0%,0%);stroke-opacity:1;stroke-miterlimit:4;" d="M 440.098958 305.5 L 453.901042 316.098958 " transform="matrix(0.75,0,0,0.75,0,0)"/>
<path style="fill:none;stroke-width:2;stroke-linecap:butt;stroke-linejoin:miter;stroke:rgb(0%,0%,0%);stroke-opacity:1;stroke-miterlimit:4;" d="M 426.302083 294.901042 L 432.098958 251.5 " transform="matrix(0.75,0,0,0.75,0,0)"/>
<path style="fill:none;stroke-width:2;stroke-linecap:butt;stroke-linejoin:miter;stroke:rgb(0%,0%,0%);stroke-opacity:1;stroke-miterlimit:4;" d="M 432.098958 251.5 L 397.401042 224.901042 " transform="matrix(0.75,0,0,0.75,0,0)"/>
<path style="fill:none;stroke-width:2;stroke-linecap:butt;stroke-linejoin:miter;stroke:rgb(0%,0%,0%);stroke-opacity:1;stroke-miterlimit:4;" d="M 421.5 254.5 L 397.302083 235.802083 " transform="matrix(0.75,0,0,0.75,0,0)"/>
<path style="fill:none;stroke-width:2;stroke-linecap:butt;stroke-linejoin:miter;stroke:rgb(0%,0%,0%);stroke-opacity:1;stroke-miterlimit:4;" d="M 206.697917 221.598958 L 189.901042 262 " transform="matrix(0.75,0,0,0.75,0,0)"/>
<path style="fill:none;stroke-width:2;stroke-linecap:butt;stroke-linejoin:miter;stroke:rgb(0%,0%,0%);stroke-opacity:1;stroke-miterlimit:4;" d="M 189.901042 262 L 192.197917 279.901042 " transform="matrix(0.75,0,0,0.75,0,0)"/>
<path style="fill:none;stroke-width:2;stroke-linecap:butt;stroke-linejoin:miter;stroke:rgb(80%,80%,0%);stroke-opacity:1;stroke-miterlimit:4;" d="M 192.197917 279.901042 L 194.598958 297.802083 " transform="matrix(0.75,0,0,0.75,0,0)"/>
<path style="fill:none;stroke-width:2;stroke-linecap:butt;stroke-linejoin:miter;stroke:rgb(80%,80%,0%);stroke-opacity:1;stroke-miterlimit:4;" d="M 190.197917 309.598958 L 175.5 320.802083 " transform="matrix(0.75,0,0,0.75,0,0)"/>
<path style="fill:none;stroke-width:2;stroke-linecap:butt;stroke-linejoin:miter;stroke:rgb(0%,0%,0%);stroke-opacity:1;stroke-miterlimit:4;" d="M 175.5 320.802083 L 160.802083 332 " transform="matrix(0.75,0,0,0.75,0,0)"/>
<path style="fill:none;stroke-width:2;stroke-linecap:butt;stroke-linejoin:miter;stroke:rgb(0%,0%,0%);stroke-opacity:1;stroke-miterlimit:4;" d="M 160.802083 332 L 120.401042 315.302083 " transform="matrix(0.75,0,0,0.75,0,0)"/>
<path style="fill:none;stroke-width:2;stroke-linecap:butt;stroke-linejoin:miter;stroke:rgb(0%,0%,0%);stroke-opacity:1;stroke-miterlimit:4;" d="M 189.901042 262 L 172.802083 254.901042 " transform="matrix(0.75,0,0,0.75,0,0)"/>
<path style="fill:none;stroke-width:2;stroke-linecap:butt;stroke-linejoin:miter;stroke:rgb(0%,0%,100%);stroke-opacity:1;stroke-miterlimit:4;" d="M 172.802083 254.901042 L 155.598958 247.802083 " transform="matrix(0.75,0,0,0.75,0,0)"/>
<path style="fill:none;stroke-width:2;stroke-linecap:butt;stroke-linejoin:miter;stroke:rgb(0%,0%,0%);stroke-opacity:1;stroke-miterlimit:4;" d="M 397.401042 224.901042 L 356.901042 241.598958 " transform="matrix(0.75,0,0,0.75,0,0)"/>
<path style="fill:none;stroke-width:1;stroke-linecap:butt;stroke-linejoin:miter;stroke:rgb(0%,0%,0%);stroke-opacity:1;stroke-miterlimit:4;" d="M 195.697917 263.598958 L 195.901042 262.098958 " transform="matrix(0.75,0,0,0.75,0,0)"/>
<path style="fill:none;stroke-width:1;stroke-linecap:butt;stroke-linejoin:miter;stroke:rgb(0%,0%,0%);stroke-opacity:1;stroke-miterlimit:4;" d="M 201.598958 265.098958 L 202 262.197917 " transform="matrix(0.75,0,0,0.75,0,0)"/>
<path style="fill:none;stroke-width:1;stroke-linecap:butt;stroke-linejoin:miter;stroke:rgb(0%,0%,0%);stroke-opacity:1;stroke-miterlimit:4;" d="M 207.401042 266.598958 L 208 262.197917 " transform="matrix(0.75,0,0,0.75,0,0)"/>
<path style="fill:none;stroke-width:1;stroke-linecap:butt;stroke-linejoin:miter;stroke:rgb(0%,0%,0%);stroke-opacity:1;stroke-miterlimit:4;" d="M 213.302083 268.098958 L 214 262.302083 " transform="matrix(0.75,0,0,0.75,0,0)"/>
<path style="fill:none;stroke-width:1;stroke-linecap:butt;stroke-linejoin:miter;stroke:rgb(0%,0%,0%);stroke-opacity:1;stroke-miterlimit:4;" d="M 219.098958 269.598958 L 220.098958 262.401042 " transform="matrix(0.75,0,0,0.75,0,0)"/>
<path style="fill:none;stroke-width:1;stroke-linecap:butt;stroke-linejoin:miter;stroke:rgb(0%,0%,0%);stroke-opacity:1;stroke-miterlimit:4;" d="M 225 271.098958 L 226.098958 262.401042 " transform="matrix(0.75,0,0,0.75,0,0)"/>
<path style=" stroke:none;fill-rule:nonzero;fill:rgb(100%,0%,0%);fill-opacity:1;" d="M 47.25 158.773438 C 47.25 157.324219 47.625 156.175781 48.375 155.324219 C 49.074219 154.476562 50.125 154.050781 51.523438 154.050781 C 52.875 154.050781 53.925781 154.476562 54.675781 155.324219 C 55.425781 156.175781 55.800781 157.324219 55.800781 158.773438 C 55.800781 160.273438 55.425781 161.476562 54.675781 162.375 C 53.925781 163.226562 52.875 163.648438 51.523438 163.648438 C 50.125 163.648438 49.074219 163.226562 48.375 162.375 C 47.625 161.523438 47.25 160.324219 47.25 158.773438 M 51.523438 162.601562 C 52.476562 162.601562 53.199219 162.273438 53.699219 161.625 C 54.199219 160.976562 54.449219 160.023438 54.449219 158.773438 C 54.449219 157.574219 54.199219 156.675781 53.699219 156.074219 C 53.199219 155.425781 52.476562 155.101562 51.523438 155.101562 C 50.574219 155.101562 49.824219 155.425781 49.273438 156.074219 C 48.773438 156.675781 48.523438 157.574219 48.523438 158.773438 C 48.523438 160.023438 48.773438 160.976562 49.273438 161.625 C 49.824219 162.273438 50.574219 162.601562 51.523438 162.601562 "/>
<path style=" stroke:none;fill-rule:nonzero;fill:rgb(100%,0%,0%);fill-opacity:1;" d="M 17.023438 206.699219 L 18.300781 206.699219 L 18.300781 210.601562 L 23.023438 210.601562 L 23.023438 206.699219 L 24.300781 206.699219 L 24.300781 215.925781 L 23.023438 215.925781 L 23.023438 211.648438 L 18.300781 211.648438 L 18.300781 215.925781 L 17.023438 215.925781 L 17.023438 206.699219 "/>
<path style=" stroke:none;fill-rule:nonzero;fill:rgb(100%,0%,0%);fill-opacity:1;" d="M 25.425781 211.273438 C 25.425781 209.773438 25.800781 208.625 26.550781 207.824219 C 27.300781 206.976562 28.351562 206.550781 29.699219 206.550781 C 31.050781 206.550781 32.101562 206.976562 32.851562 207.824219 C 33.601562 208.625 33.976562 209.773438 33.976562 211.273438 C 33.976562 212.773438 33.601562 213.949219 32.851562 214.800781 C 32.101562 215.648438 31.050781 216.074219 29.699219 216.074219 C 28.351562 216.074219 27.300781 215.648438 26.550781 214.800781 C 25.800781 213.949219 25.425781 212.773438 25.425781 211.273438 M 29.699219 215.023438 C 30.648438 215.023438 31.375 214.726562 31.875 214.125 C 32.375 213.476562 32.625 212.523438 32.625 211.273438 C 32.625 210.074219 32.375 209.175781 31.875 208.574219 C 31.375 207.925781 30.648438 207.601562 29.699219 207.601562 C 28.75 207.601562 28.023438 207.898438 27.523438 208.5 C 27.023438 209.148438 26.773438 210.074219 26.773438 211.273438 C 26.773438 212.523438 27.023438 213.476562 27.523438 214.125 C 28.023438 214.726562 28.75 215.023438 29.699219 215.023438 "/>
<path style=" stroke:none;fill-rule:nonzero;fill:rgb(0%,0%,100%);fill-opacity:1;" d="M 110.101562 179.324219 L 113.101562 184.199219 C 113.300781 184.550781 113.574219 185 113.925781 185.550781 C 114.226562 186.148438 114.375 186.476562 114.375 186.523438 L 114.375 179.324219 L 115.648438 179.324219 L 115.648438 188.625 L 114.375 188.625 L 111.074219 183.226562 C 110.824219 182.773438 110.574219 182.324219 110.324219 181.875 C 110.074219 181.375 109.898438 181.050781 109.800781 180.898438 L 109.800781 188.625 L 108.601562 188.625 L 108.601562 179.324219 L 110.101562 179.324219 "/>
<path style=" stroke:none;fill-rule:nonzero;fill:rgb(100%,0%,0%);fill-opacity:1;" d="M 107.925781 123.300781 C 107.925781 121.851562 108.300781 120.699219 109.050781 119.851562 C 109.75 119 110.800781 118.574219 112.199219 118.574219 C 113.550781 118.574219 114.601562 119 115.351562 119.851562 C 116.101562 120.699219 116.476562 121.851562 116.476562 123.300781 C 116.476562 124.851562 116.101562 126.050781 115.351562 126.898438 C 114.601562 127.75 113.550781 128.175781 112.199219 128.175781 C 110.800781 128.175781 109.75 127.75 109.050781 126.898438 C 108.300781 126.050781 107.925781 124.851562 107.925781 123.300781 M 112.199219 127.125 C 113.148438 127.125 113.875 126.800781 114.375 126.148438 C 114.875 125.5 115.125 124.550781 115.125 123.300781 C 115.125 122.101562 114.875 121.199219 114.375 120.601562 C 113.875 119.949219 113.148438 119.625 112.199219 119.625 C 111.25 119.625 110.5 119.949219 109.949219 120.601562 C 109.449219 121.199219 109.199219 122.101562 109.199219 123.300781 C 109.199219 124.550781 109.449219 125.5 109.949219 126.148438 C 110.5 126.800781 111.25 127.125 112.199219 127.125 "/>
<path style=" stroke:none;fill-rule:nonzero;fill:rgb(0%,0%,100%);fill-opacity:1;" d="M 183.300781 149.023438 L 186.300781 153.976562 C 186.550781 154.273438 186.824219 154.726562 187.125 155.324219 C 187.425781 155.925781 187.601562 156.25 187.648438 156.300781 L 187.648438 149.023438 L 188.851562 149.023438 L 188.851562 158.324219 L 187.574219 158.324219 L 184.351562 153 C 184.101562 152.550781 183.824219 152.074219 183.523438 151.574219 C 183.273438 151.125 183.101562 150.824219 183 150.675781 L 183 158.324219 L 181.800781 158.324219 L 181.800781 149.023438 L 183.300781 149.023438 "/>
<path style=" stroke:none;fill-rule:nonzero;fill:rgb(0%,0%,100%);fill-opacity:1;" d="M 181.726562 138.824219 L 183 138.824219 L 183 142.800781 L 187.726562 142.800781 L 187.726562 138.824219 L 189 138.824219 L 189 148.125 L 187.726562 148.125 L 187.726562 143.851562 L 183 143.851562 L 183 148.125 L 181.726562 148.125 L 181.726562 138.824219 "/>
<path style=" stroke:none;fill-rule:nonzero;fill:rgb(100%,0%,0%);fill-opacity:1;" d="M 202.800781 206.25 C 202.800781 204.75 203.148438 203.601562 203.851562 202.800781 C 204.601562 201.949219 205.675781 201.523438 207.074219 201.523438 C 208.425781 201.523438 209.476562 201.949219 210.226562 202.800781 C 210.976562 203.601562 211.351562 204.75 211.351562 206.25 C 211.351562 207.75 210.976562 208.925781 210.226562 209.773438 C 209.476562 210.625 208.425781 211.050781 207.074219 211.050781 C 205.675781 211.050781 204.601562 210.625 203.851562 209.773438 C 203.148438 208.925781 202.800781 207.75 202.800781 206.25 M 207.074219 210 C 208.023438 210 208.75 209.699219 209.25 209.101562 C 209.75 208.449219 210 207.5 210 206.25 C 210 205.050781 209.75 204.148438 209.25 203.550781 C 208.75 202.898438 208.023438 202.574219 207.074219 202.574219 C 206.125 202.574219 205.375 202.875 204.824219 203.476562 C 204.324219 204.125 204.074219 205.050781 204.074219 206.25 C 204.074219 207.5 204.324219 208.449219 204.824219 209.101562 C 205.375 209.699219 206.125 210 207.074219 210 "/>
<path style=" stroke:none;fill-rule:nonzero;fill:rgb(0%,0%,100%);fill-opacity:1;" d="M 243.976562 123.976562 L 246.976562 128.925781 C 247.175781 129.226562 247.449219 129.675781 247.800781 130.273438 C 248.101562 130.875 248.273438 131.199219 248.324219 131.25 L 248.324219 123.976562 L 249.523438 123.976562 L 249.523438 133.273438 L 248.25 133.273438 L 245.023438 127.875 C 244.726562 127.476562 244.449219 127.023438 244.199219 126.523438 C 243.949219 126.074219 243.773438 125.773438 243.675781 125.625 L 243.675781 133.273438 L 242.476562 133.273438 L 242.476562 123.976562 L 243.976562 123.976562 "/>
<path style=" stroke:none;fill-rule:nonzero;fill:rgb(0%,0%,100%);fill-opacity:1;" d="M 250.648438 123.976562 L 251.851562 123.976562 L 251.851562 127.949219 L 256.648438 127.949219 L 256.648438 123.976562 L 257.925781 123.976562 L 257.925781 133.273438 L 256.648438 133.273438 L 256.648438 129 L 251.851562 129 L 251.851562 133.273438 L 250.648438 133.273438 L 250.648438 123.976562 "/>
<path style=" stroke:none;fill-rule:nonzero;fill:rgb(0%,0%,100%);fill-opacity:1;" d="M 259.050781 132.976562 C 259.199219 132.574219 259.449219 132.273438 259.800781 132.074219 C 260.148438 131.824219 260.574219 131.699219 261.074219 131.699219 C 261.675781 131.699219 262.148438 131.875 262.5 132.226562 C 262.851562 132.574219 263.023438 133.050781 263.023438 133.648438 C 263.023438 134.25 262.800781 134.824219 262.351562 135.375 C 261.898438 135.925781 261.226562 136.550781 260.324219 137.25 L 263.175781 137.25 L 263.175781 137.925781 L 258.976562 137.925781 L 258.976562 137.324219 C 259.773438 136.824219 260.398438 136.351562 260.851562 135.898438 C 261.300781 135.5 261.625 135.125 261.824219 134.773438 C 262.074219 134.425781 262.199219 134.050781 262.199219 133.648438 C 262.199219 133.25 262.101562 132.949219 261.898438 132.75 C 261.699219 132.550781 261.425781 132.449219 261.074219 132.449219 C 260.726562 132.449219 260.449219 132.5 260.25 132.601562 C 260.050781 132.75 259.875 132.976562 259.726562 133.273438 L 259.050781 132.976562 "/>
<path style=" stroke:none;fill-rule:nonzero;fill:rgb(100%,0%,0%);fill-opacity:1;" d="M 341.476562 241.199219 C 341.476562 239.699219 341.851562 238.550781 342.601562 237.75 C 343.351562 236.898438 344.398438 236.476562 345.75 236.476562 C 347.148438 236.476562 348.199219 236.898438 348.898438 237.75 C 349.648438 238.550781 350.023438 239.699219 350.023438 241.199219 C 350.023438 242.699219 349.648438 243.875 348.898438 244.726562 C 348.148438 245.574219 347.101562 246 345.75 246 C 344.398438 246 343.351562 245.574219 342.601562 244.726562 C 341.851562 243.875 341.476562 242.699219 341.476562 241.199219 M 345.75 244.949219 C 346.699219 244.949219 347.425781 244.648438 347.925781 244.050781 C 348.476562 243.398438 348.75 242.449219 348.75 241.199219 C 348.75 240 348.476562 239.101562 347.925781 238.5 C 347.425781 237.851562 346.699219 237.523438 345.75 237.523438 C 344.800781 237.523438 344.074219 237.824219 343.574219 238.425781 C 343.074219 239.074219 342.824219 240 342.824219 241.199219 C 342.824219 242.449219 343.074219 243.398438 343.574219 244.050781 C 344.074219 244.648438 344.800781 244.949219 345.75 244.949219 "/>
<path style=" stroke:none;fill-rule:nonzero;fill:rgb(100%,0%,0%);fill-opacity:1;" d="M 350.699219 236.625 L 351.976562 236.625 L 351.976562 240.523438 L 356.699219 240.523438 L 356.699219 236.625 L 357.976562 236.625 L 357.976562 245.851562 L 356.699219 245.851562 L 356.699219 241.574219 L 351.976562 241.574219 L 351.976562 245.851562 L 350.699219 245.851562 L 350.699219 236.625 "/>
<path style=" stroke:none;fill-rule:nonzero;fill:rgb(80%,80%,0%);fill-opacity:1;" d="M 144.074219 232.273438 C 144.125 232.273438 144.300781 232.351562 144.601562 232.5 C 144.898438 232.601562 145.199219 232.699219 145.5 232.800781 C 145.800781 232.851562 146.125 232.875 146.476562 232.875 C 147.023438 232.875 147.476562 232.75 147.824219 232.5 C 148.175781 232.199219 148.351562 231.800781 148.351562 231.300781 C 148.351562 230.949219 148.273438 230.675781 148.125 230.476562 C 147.925781 230.273438 147.699219 230.101562 147.449219 229.949219 C 147.199219 229.851562 146.851562 229.75 146.398438 229.648438 C 145.851562 229.449219 145.398438 229.273438 145.050781 229.125 C 144.75 228.976562 144.476562 228.726562 144.226562 228.375 C 144.023438 228.074219 143.925781 227.625 143.925781 227.023438 C 143.925781 226.273438 144.175781 225.648438 144.675781 225.148438 C 145.226562 224.699219 146.023438 224.476562 147.074219 224.476562 C 147.773438 224.476562 148.523438 224.625 149.324219 224.925781 L 149.023438 225.976562 C 148.273438 225.675781 147.625 225.523438 147.074219 225.523438 C 146.476562 225.523438 146.023438 225.648438 145.726562 225.898438 C 145.375 226.148438 145.199219 226.476562 145.199219 226.875 C 145.199219 227.226562 145.273438 227.5 145.425781 227.699219 C 145.625 227.898438 145.851562 228.050781 146.101562 228.148438 C 146.351562 228.300781 146.675781 228.425781 147.074219 228.523438 C 147.625 228.726562 148.074219 228.898438 148.425781 229.050781 C 148.773438 229.25 149.074219 229.523438 149.324219 229.875 C 149.523438 230.226562 149.625 230.699219 149.625 231.300781 C 149.625 232.148438 149.351562 232.800781 148.800781 233.25 C 148.199219 233.699219 147.425781 233.925781 146.476562 233.925781 C 145.925781 233.925781 145.449219 233.875 145.050781 233.773438 C 144.648438 233.675781 144.199219 233.523438 143.699219 233.324219 L 144.074219 232.273438 "/>
<path style=" stroke:none;fill-rule:nonzero;fill:rgb(0%,0%,0%);fill-opacity:1;" d="M 171.300781 196.199219 L 172.574219 196.199219 L 172.574219 200.175781 L 177.300781 200.175781 L 177.300781 196.199219 L 178.574219 196.199219 L 178.574219 205.5 L 177.300781 205.5 L 177.300781 201.226562 L 172.574219 201.226562 L 172.574219 205.5 L 171.300781 205.5 L 171.300781 196.199219 "/>
</g>
</svg>
