<?xml version="1.0" encoding="UTF-8"?>
<svg xmlns="http://www.w3.org/2000/svg" xmlns:xlink="http://www.w3.org/1999/xlink" width="375pt" height="375pt" viewBox="0 0 375 375" version="1.1">
<g id="surface6">
<rect x="0" y="0" width="375" height="375" style="fill:rgb(100%,100%,100%);fill-opacity:1;stroke:none;"/>
<path style="fill:none;stroke-width:2;stroke-linecap:butt;stroke-linejoin:miter;stroke:rgb(0%,0%,0%);stroke-opacity:1;stroke-miterlimit:4;" d="M 147.901042 352.197917 L 134.5 309.302083 " transform="matrix(0.75,0,0,0.75,0,0)"/>
<path style="fill:none;stroke-width:2;stroke-linecap:butt;stroke-linejoin:miter;stroke:rgb(0%,0%,0%);stroke-opacity:1;stroke-miterlimit:4;" d="M 134.5 309.302083 L 93.302083 327.098958 " transform="matrix(0.75,0,0,0.75,0,0)"/>
<path style="fill:none;stroke-width:2;stroke-linecap:butt;stroke-linejoin:miter;stroke:rgb(0%,0%,0%);stroke-opacity:1;stroke-miterlimit:4;" d="M 134.5 309.302083 L 153.802083 305.5 " transform="matrix(0.75,0,0,0.75,0,0)"/>
<path style="fill:none;stroke-width:2;stroke-linecap:butt;stroke-linejoin:miter;stroke:rgb(80%,80%,0%);stroke-opacity:1;stroke-miterlimit:4;" d="M 153.802083 305.5 L 173 301.598958 " transform="matrix(0.75,0,0,0.75,0,0)"/>
<path style="fill:none;stroke-width:2;stroke-linecap:butt;stroke-linejoin:miter;stroke:rgb(80%,80%,0%);stroke-opacity:1;stroke-miterlimit:4;" d="M 179.5 292.697917 L 181.598958 274.302083 " transform="matrix(0.75,0,0,0.75,0,0)"/>
<path style="fill:none;stroke-width:2;stroke-linecap:butt;stroke-linejoin:miter;stroke:rgb(0%,0%,0%);stroke-opacity:1;stroke-miterlimit:4;" d="M 181.598958 274.302083 L 183.802083 255.901042 " transform="matrix(0.75,0,0,0.75,0,0)"/>
<path style="fill:none;stroke-width:2;stroke-linecap:butt;stroke-linejoin:miter;stroke:rgb(0%,0%,0%);stroke-opacity:1;stroke-miterlimit:4;" d="M 183.802083 255.901042 L 202.598958 215.098958 " transform="matrix(0.75,0,0,0.75,0,0)"/>
<path style="fill-rule:evenodd;fill:rgb(0%,0%,0%);fill-opacity:1;stroke-width:0.5;stroke-linecap:butt;stroke-linejoin:miter;stroke:rgb(0%,0%,0%);stroke-opacity:1;stroke-miterlimit:4;" d="M 202.598958 215.098958 L 219.098958 207.197917 L 220.302083 210.401042 Z M 202.598958 215.098958 " transform="matrix(0.75,0,0,0.75,0,0)"/>
<path style="fill-rule:evenodd;fill:rgb(0%,0%,100%);fill-opacity:1;stroke-width:0.5;stroke-linecap:butt;stroke-linejoin:miter;stroke:rgb(0%,0%,100%);stroke-opacity:1;stroke-miterlimit:4;" d="M 219.098958 207.197917 L 238 205.598958 L 235.697917 199.302083 Z M 219.098958 207.197917 " transform="matrix(0.75,0,0,0.75,0,0)"/>
<path style="fill-rule:evenodd;fill:rgb(0%,0%,100%);fill-opacity:1;stroke-width:0.5;stroke-linecap:butt;stroke-linejoin:miter;stroke:rgb(0%,0%,100%);stroke-opacity:1;stroke-miterlimit:4;" d="M 219.098958 207.197917 L 220.302083 210.401042 L 238 205.598958 Z M 219.098958 207.197917 " transform="matrix(0.75,0,0,0.75,0,0)"/>
<path style="fill:none;stroke-width:2;stroke-linecap:butt;stroke-linejoin:miter;stroke:rgb(0%,0%,100%);stroke-opacity:1;stroke-miterlimit:4;" d="M 251 204.802083 L 265.098958 216.5 " transform="matrix(0.75,0,0,0.75,0,0)"/>
<path style="fill:none;stroke-width:2;stroke-linecap:butt;stroke-linejoin:miter;stroke:rgb(0%,0%,0%);stroke-opacity:1;stroke-miterlimit:4;" d="M 265.098958 216.5 L 279.197917 228.197917 " transform="matrix(0.75,0,0,0.75,0,0)"/>
<path style="fill:none;stroke-width:2;stroke-linecap:butt;stroke-linejoin:miter;stroke:rgb(0%,0%,0%);stroke-opacity:1;stroke-miterlimit:4;" d="M 276.197917 225.697917 L 272.901042 244.901042 " transform="matrix(0.75,0,0,0.75,0,0)"/>
<path style="fill:none;stroke-width:2;stroke-linecap:butt;stroke-linejoin:miter;stroke:rgb(100%,0%,0%);stroke-opacity:1;stroke-miterlimit:4;" d="M 272.901042 244.901042 L 269.697917 264 " transform="matrix(0.75,0,0,0.75,0,0)"/>
<path style="fill:none;stroke-width:2;stroke-linecap:butt;stroke-linejoin:miter;stroke:rgb(0%,0%,0%);stroke-opacity:1;stroke-miterlimit:4;" d="M 282.901042 226.901042 L 279.598958 246 " transform="matrix(0.75,0,0,0.75,0,0)"/>
<path style="fill:none;stroke-width:2;stroke-linecap:butt;stroke-linejoin:miter;stroke:rgb(100%,0%,0%);stroke-opacity:1;stroke-miterlimit:4;" d="M 279.598958 246 L 276.302083 265.098958 " transform="matrix(0.75,0,0,0.75,0,0)"/>
<path style="fill:none;stroke-width:2;stroke-linecap:butt;stroke-linejoin:miter;stroke:rgb(0%,0%,0%);stroke-opacity:1;stroke-miterlimit:4;" d="M 279.197917 228.197917 L 321.302083 212.697917 " transform="matrix(0.75,0,0,0.75,0,0)"/>
<path style="fill:none;stroke-width:1;stroke-linecap:butt;stroke-linejoin:miter;stroke:rgb(0%,0%,0%);stroke-opacity:1;stroke-miterlimit:4;" d="M 321.598958 209.098958 L 322.302083 209.197917 " transform="matrix(0.75,0,0,0.75,0,0)"/>
<path style="fill:none;stroke-width:1;stroke-linecap:butt;stroke-linejoin:miter;stroke:rgb(0%,0%,0%);stroke-opacity:1;stroke-miterlimit:4;" d="M 321.901042 205.598958 L 323.197917 205.802083 " transform="matrix(0.75,0,0,0.75,0,0)"/>
<path style="fill:none;stroke-width:1;stroke-linecap:butt;stroke-linejoin:miter;stroke:rgb(0%,0%,0%);stroke-opacity:1;stroke-miterlimit:4;" d="M 322.098958 202 L 324.098958 202.302083 " transform="matrix(0.75,0,0,0.75,0,0)"/>
<path style="fill:none;stroke-width:1;stroke-linecap:butt;stroke-linejoin:miter;stroke:rgb(0%,0%,0%);stroke-opacity:1;stroke-miterlimit:4;" d="M 322.401042 198.5 L 325 198.901042 " transform="matrix(0.75,0,0,0.75,0,0)"/>
<path style="fill:none;stroke-width:1;stroke-linecap:butt;stroke-linejoin:miter;stroke:rgb(0%,0%,0%);stroke-opacity:1;stroke-miterlimit:4;" d="M 322.598958 194.901042 L 326 195.5 " transform="matrix(0.75,0,0,0.75,0,0)"/>
<path style="fill:none;stroke-width:1;stroke-linecap:butt;stroke-linejoin:miter;stroke:rgb(0%,0%,100%);stroke-opacity:1;stroke-miterlimit:4;" d="M 322.901042 191.302083 L 326.901042 192 " transform="matrix(0.75,0,0,0.75,0,0)"/>
<path style="fill:none;stroke-width:1;stroke-linecap:butt;stroke-linejoin:miter;stroke:rgb(0%,0%,100%);stroke-opacity:1;stroke-miterlimit:4;" d="M 323.197917 187.802083 L 327.802083 188.598958 " transform="matrix(0.75,0,0,0.75,0,0)"/>
<path style="fill:none;stroke-width:1;stroke-linecap:butt;stroke-linejoin:miter;stroke:rgb(0%,0%,100%);stroke-opacity:1;stroke-miterlimit:4;" d="M 323.401042 184.197917 L 328.802083 185.197917 " transform="matrix(0.75,0,0,0.75,0,0)"/>
<path style="fill:none;stroke-width:1;stroke-linecap:butt;stroke-linejoin:miter;stroke:rgb(0%,0%,100%);stroke-opacity:1;stroke-miterlimit:4;" d="M 323.697917 180.697917 L 329.697917 181.697917 " transform="matrix(0.75,0,0,0.75,0,0)"/>
<path style="fill:none;stroke-width:1;stroke-linecap:butt;stroke-linejoin:miter;stroke:rgb(0%,0%,100%);stroke-opacity:1;stroke-miterlimit:4;" d="M 324 177.098958 L 330.598958 178.302083 " transform="matrix(0.75,0,0,0.75,0,0)"/>
<path style="fill:none;stroke-width:2;stroke-linecap:butt;stroke-linejoin:miter;stroke:rgb(0%,0%,0%);stroke-opacity:1;stroke-miterlimit:4;" d="M 321.302083 212.697917 L 355.901042 241.302083 " transform="matrix(0.75,0,0,0.75,0,0)"/>
<path style="fill:none;stroke-width:2;stroke-linecap:butt;stroke-linejoin:miter;stroke:rgb(0%,0%,0%);stroke-opacity:1;stroke-miterlimit:4;" d="M 355.901042 241.302083 L 348.302083 285.598958 " transform="matrix(0.75,0,0,0.75,0,0)"/>
<path style="fill:none;stroke-width:2;stroke-linecap:butt;stroke-linejoin:miter;stroke:rgb(0%,0%,0%);stroke-opacity:1;stroke-miterlimit:4;" d="M 361.901042 246.302083 L 355.598958 282.901042 " transform="matrix(0.75,0,0,0.75,0,0)"/>
<path style="fill:none;stroke-width:2;stroke-linecap:butt;stroke-linejoin:miter;stroke:rgb(0%,0%,0%);stroke-opacity:1;stroke-miterlimit:4;" d="M 348.302083 285.598958 L 382.802083 314.302083 " transform="matrix(0.75,0,0,0.75,0,0)"/>
<path style="fill:none;stroke-width:2;stroke-linecap:butt;stroke-linejoin:miter;stroke:rgb(0%,0%,0%);stroke-opacity:1;stroke-miterlimit:4;" d="M 382.802083 314.302083 L 425 298.697917 " transform="matrix(0.75,0,0,0.75,0,0)"/>
<path style="fill:none;stroke-width:2;stroke-linecap:butt;stroke-linejoin:miter;stroke:rgb(0%,0%,0%);stroke-opacity:1;stroke-miterlimit:4;" d="M 384.197917 306.598958 L 419 293.697917 " transform="matrix(0.75,0,0,0.75,0,0)"/>
<path style="fill:none;stroke-width:2;stroke-linecap:butt;stroke-linejoin:miter;stroke:rgb(0%,0%,0%);stroke-opacity:1;stroke-miterlimit:4;" d="M 425 298.697917 L 438.598958 310 " transform="matrix(0.75,0,0,0.75,0,0)"/>
<path style="fill:none;stroke-width:2;stroke-linecap:butt;stroke-linejoin:miter;stroke:rgb(100%,0%,0%);stroke-opacity:1;stroke-miterlimit:4;" d="M 438.598958 310 L 452.197917 321.302083 " transform="matrix(0.75,0,0,0.75,0,0)"/>
<path style="fill:none;stroke-width:2;stroke-linecap:butt;stroke-linejoin:miter;stroke:rgb(0%,0%,0%);stroke-opacity:1;stroke-miterlimit:4;" d="M 425 298.697917 L 432.5 254.401042 " transform="matrix(0.75,0,0,0.75,0,0)"/>
<path style="fill:none;stroke-width:2;stroke-linecap:butt;stroke-linejoin:miter;stroke:rgb(0%,0%,0%);stroke-opacity:1;stroke-miterlimit:4;" d="M 432.5 254.401042 L 398 225.802083 " transform="matrix(0.75,0,0,0.75,0,0)"/>
<path style="fill:none;stroke-width:2;stroke-linecap:butt;stroke-linejoin:miter;stroke:rgb(0%,0%,0%);stroke-opacity:1;stroke-miterlimit:4;" d="M 425.197917 257.098958 L 396.697917 233.401042 " transform="matrix(0.75,0,0,0.75,0,0)"/>
<path style="fill:none;stroke-width:2;stroke-linecap:butt;stroke-linejoin:miter;stroke:rgb(0%,0%,0%);stroke-opacity:1;stroke-miterlimit:4;" d="M 202.598958 215.098958 L 161.802083 196.401042 " transform="matrix(0.75,0,0,0.75,0,0)"/>
<path style="fill:none;stroke-width:2;stroke-linecap:butt;stroke-linejoin:miter;stroke:rgb(0%,0%,0%);stroke-opacity:1;stroke-miterlimit:4;" d="M 166.098958 198.401042 L 159.197917 179.802083 " transform="matrix(0.75,0,0,0.75,0,0)"/>
<path style="fill:none;stroke-width:2;stroke-linecap:butt;stroke-linejoin:miter;stroke:rgb(100%,0%,0%);stroke-opacity:1;stroke-miterlimit:4;" d="M 159.197917 179.802083 L 152.302083 161.197917 " transform="matrix(0.75,0,0,0.75,0,0)"/>
<path style="fill:none;stroke-width:2;stroke-linecap:butt;stroke-linejoin:miter;stroke:rgb(0%,0%,0%);stroke-opacity:1;stroke-miterlimit:4;" d="M 159.802083 200.697917 L 152.901042 182.098958 " transform="matrix(0.75,0,0,0.75,0,0)"/>
<path style="fill:none;stroke-width:2;stroke-linecap:butt;stroke-linejoin:miter;stroke:rgb(100%,0%,0%);stroke-opacity:1;stroke-miterlimit:4;" d="M 152.901042 182.098958 L 146 163.5 " transform="matrix(0.75,0,0,0.75,0,0)"/>
<path style="fill:none;stroke-width:2;stroke-linecap:butt;stroke-linejoin:miter;stroke:rgb(0%,0%,0%);stroke-opacity:1;stroke-miterlimit:4;" d="M 161.802083 196.401042 L 154.197917 212.802083 " transform="matrix(0.75,0,0,0.75,0,0)"/>
<path style="fill:none;stroke-width:2;stroke-linecap:butt;stroke-linejoin:miter;stroke:rgb(0%,0%,100%);stroke-opacity:1;stroke-miterlimit:4;" d="M 154.197917 212.802083 L 146.598958 229.302083 " transform="matrix(0.75,0,0,0.75,0,0)"/>
<path style="fill:none;stroke-width:2;stroke-linecap:butt;stroke-linejoin:miter;stroke:rgb(0%,0%,100%);stroke-opacity:1;stroke-miterlimit:4;" d="M 136.697917 244 L 124.598958 257.098958 " transform="matrix(0.75,0,0,0.75,0,0)"/>
<path style="fill:none;stroke-width:2;stroke-linecap:butt;stroke-linejoin:miter;stroke:rgb(0%,0%,0%);stroke-opacity:1;stroke-miterlimit:4;" d="M 124.598958 257.098958 L 112.5 270.197917 " transform="matrix(0.75,0,0,0.75,0,0)"/>
<path style="fill:none;stroke-width:1;stroke-linecap:butt;stroke-linejoin:miter;stroke:rgb(0%,0%,0%);stroke-opacity:1;stroke-miterlimit:4;" d="M 109.197917 269.5 L 109.098958 270 " transform="matrix(0.75,0,0,0.75,0,0)"/>
<path style="fill:none;stroke-width:1;stroke-linecap:butt;stroke-linejoin:miter;stroke:rgb(0%,0%,0%);stroke-opacity:1;stroke-miterlimit:4;" d="M 105.802083 268.802083 L 105.598958 269.901042 " transform="matrix(0.75,0,0,0.75,0,0)"/>
<path style="fill:none;stroke-width:1;stroke-linecap:butt;stroke-linejoin:miter;stroke:rgb(0%,0%,0%);stroke-opacity:1;stroke-miterlimit:4;" d="M 102.401042 268.098958 L 102.197917 269.802083 " transform="matrix(0.75,0,0,0.75,0,0)"/>
<path style="fill:none;stroke-width:1;stroke-linecap:butt;stroke-linejoin:miter;stroke:rgb(0%,0%,0%);stroke-opacity:1;stroke-miterlimit:4;" d="M 99 267.401042 L 98.697917 269.697917 " transform="matrix(0.75,0,0,0.75,0,0)"/>
<path style="fill:none;stroke-width:1;stroke-linecap:butt;stroke-linejoin:miter;stroke:rgb(0%,0%,0%);stroke-opacity:1;stroke-miterlimit:4;" d="M 95.598958 266.697917 L 95.197917 269.5 " transform="matrix(0.75,0,0,0.75,0,0)"/>
<path style="fill:none;stroke-width:1;stroke-linecap:butt;stroke-linejoin:miter;stroke:rgb(0%,0%,0%);stroke-opacity:1;stroke-miterlimit:4;" d="M 92.197917 266.098958 L 91.802083 269.401042 " transform="matrix(0.75,0,0,0.75,0,0)"/>
<path style="fill:none;stroke-width:1;stroke-linecap:butt;stroke-linejoin:miter;stroke:rgb(0%,0%,0%);stroke-opacity:1;stroke-miterlimit:4;" d="M 88.802083 265.401042 L 88.302083 269.302083 " transform="matrix(0.75,0,0,0.75,0,0)"/>
<path style="fill:none;stroke-width:1;stroke-linecap:butt;stroke-linejoin:miter;stroke:rgb(0%,0%,0%);stroke-opacity:1;stroke-miterlimit:4;" d="M 85.401042 264.697917 L 84.901042 269.197917 " transform="matrix(0.75,0,0,0.75,0,0)"/>
<path style="fill:none;stroke-width:1;stroke-linecap:butt;stroke-linejoin:miter;stroke:rgb(0%,0%,0%);stroke-opacity:1;stroke-miterlimit:4;" d="M 82 264 L 81.401042 269 " transform="matrix(0.75,0,0,0.75,0,0)"/>
<path style="fill:none;stroke-width:1;stroke-linecap:butt;stroke-linejoin:miter;stroke:rgb(0%,0%,0%);stroke-opacity:1;stroke-miterlimit:4;" d="M 78.598958 263.302083 L 77.901042 268.901042 " transform="matrix(0.75,0,0,0.75,0,0)"/>
<path style="fill:none;stroke-width:1;stroke-linecap:butt;stroke-linejoin:miter;stroke:rgb(0%,0%,0%);stroke-opacity:1;stroke-miterlimit:4;" d="M 75.197917 262.697917 L 74.5 268.802083 " transform="matrix(0.75,0,0,0.75,0,0)"/>
<path style="fill:none;stroke-width:1;stroke-linecap:butt;stroke-linejoin:miter;stroke:rgb(0%,0%,0%);stroke-opacity:1;stroke-miterlimit:4;" d="M 71.802083 262 L 71 268.697917 " transform="matrix(0.75,0,0,0.75,0,0)"/>
<path style="fill:none;stroke-width:2;stroke-linecap:butt;stroke-linejoin:miter;stroke:rgb(0%,0%,0%);stroke-opacity:1;stroke-miterlimit:4;" d="M 71.802083 265.401042 L 64.302083 247.901042 " transform="matrix(0.75,0,0,0.75,0,0)"/>
<path style="fill:none;stroke-width:2;stroke-linecap:butt;stroke-linejoin:miter;stroke:rgb(100%,0%,0%);stroke-opacity:1;stroke-miterlimit:4;" d="M 64.302083 247.901042 L 56.802083 230.5 " transform="matrix(0.75,0,0,0.75,0,0)"/>
<path style="fill:none;stroke-width:2;stroke-linecap:butt;stroke-linejoin:miter;stroke:rgb(0%,0%,0%);stroke-opacity:1;stroke-miterlimit:4;" d="M 65.598958 268 L 58.098958 250.598958 " transform="matrix(0.75,0,0,0.75,0,0)"/>
<path style="fill:none;stroke-width:2;stroke-linecap:butt;stroke-linejoin:miter;stroke:rgb(100%,0%,0%);stroke-opacity:1;stroke-miterlimit:4;" d="M 58.098958 250.598958 L 50.598958 233.098958 " transform="matrix(0.75,0,0,0.75,0,0)"/>
<path style="fill:none;stroke-width:2;stroke-linecap:butt;stroke-linejoin:miter;stroke:rgb(0%,0%,0%);stroke-opacity:1;stroke-miterlimit:4;" d="M 68 264.901042 L 57.5 279 " transform="matrix(0.75,0,0,0.75,0,0)"/>
<path style="fill:none;stroke-width:2;stroke-linecap:butt;stroke-linejoin:miter;stroke:rgb(100%,0%,0%);stroke-opacity:1;stroke-miterlimit:4;" d="M 57.5 279 L 47 293 " transform="matrix(0.75,0,0,0.75,0,0)"/>
<path style="fill:none;stroke-width:2;stroke-linecap:butt;stroke-linejoin:miter;stroke:rgb(0%,0%,0%);stroke-opacity:1;stroke-miterlimit:4;" d="M 112.5 270.197917 L 134.5 309.302083 " transform="matrix(0.75,0,0,0.75,0,0)"/>
<path style="fill:none;stroke-width:2;stroke-linecap:butt;stroke-linejoin:miter;stroke:rgb(0%,0%,100%);stroke-opacity:1;stroke-miterlimit:4;" d="M 149.302083 240.098958 L 166.5 248 " transform="matrix(0.75,0,0,0.75,0,0)"/>
<path style="fill:none;stroke-width:2;stroke-linecap:butt;stroke-linejoin:miter;stroke:rgb(0%,0%,0%);stroke-opacity:1;stroke-miterlimit:4;" d="M 166.5 248 L 183.802083 255.901042 " transform="matrix(0.75,0,0,0.75,0,0)"/>
<path style="fill:none;stroke-width:2;stroke-linecap:butt;stroke-linejoin:miter;stroke:rgb(0%,0%,0%);stroke-opacity:1;stroke-miterlimit:4;" d="M 398 225.802083 L 355.901042 241.302083 " transform="matrix(0.75,0,0,0.75,0,0)"/>
<path style="fill:none;stroke-width:1;stroke-linecap:butt;stroke-linejoin:miter;stroke:rgb(0%,0%,0%);stroke-opacity:1;stroke-miterlimit:4;" d="M 187.401042 256.598958 L 187.197917 257.197917 " transform="matrix(0.75,0,0,0.75,0,0)"/>
<path style="fill:none;stroke-width:1;stroke-linecap:butt;stroke-linejoin:miter;stroke:rgb(0%,0%,0%);stroke-opacity:1;stroke-miterlimit:4;" d="M 191 257.302083 L 190.697917 258.5 " transform="matrix(0.75,0,0,0.75,0,0)"/>
<path style="fill:none;stroke-width:1;stroke-linecap:butt;stroke-linejoin:miter;stroke:rgb(0%,0%,0%);stroke-opacity:1;stroke-miterlimit:4;" d="M 194.697917 257.901042 L 194.098958 259.901042 " transform="matrix(0.75,0,0,0.75,0,0)"/>
<path style="fill:none;stroke-width:1;stroke-linecap:butt;stroke-linejoin:miter;stroke:rgb(0%,0%,0%);stroke-opacity:1;stroke-miterlimit:4;" d="M 198.302083 258.598958 L 197.5 261.197917 " transform="matrix(0.75,0,0,0.75,0,0)"/>
<path style="fill:none;stroke-width:1;stroke-linecap:butt;stroke-linejoin:miter;stroke:rgb(0%,0%,0%);stroke-opacity:1;stroke-miterlimit:4;" d="M 201.901042 259.302083 L 201 262.5 " transform="matrix(0.75,0,0,0.75,0,0)"/>
<path style="fill:none;stroke-width:1;stroke-linecap:butt;stroke-linejoin:miter;stroke:rgb(0%,0%,0%);stroke-opacity:1;stroke-miterlimit:4;" d="M 205.5 259.901042 L 204.401042 263.802083 " transform="matrix(0.75,0,0,0.75,0,0)"/>
<path style="fill:none;stroke-width:1;stroke-linecap:butt;stroke-linejoin:miter;stroke:rgb(0%,0%,0%);stroke-opacity:1;stroke-miterlimit:4;" d="M 209.098958 260.598958 L 207.901042 265.098958 " transform="matrix(0.75,0,0,0.75,0,0)"/>
<path style="fill:none;stroke-width:1;stroke-linecap:butt;stroke-linejoin:miter;stroke:rgb(0%,0%,0%);stroke-opacity:1;stroke-miterlimit:4;" d="M 212.697917 261.302083 L 211.302083 266.401042 " transform="matrix(0.75,0,0,0.75,0,0)"/>
<path style="fill:none;stroke-width:1;stroke-linecap:butt;stroke-linejoin:miter;stroke:rgb(0%,0%,0%);stroke-opacity:1;stroke-miterlimit:4;" d="M 216.401042 261.901042 L 214.697917 267.802083 " transform="matrix(0.75,0,0,0.75,0,0)"/>
<path style="fill:none;stroke-width:1;stroke-linecap:butt;stroke-linejoin:miter;stroke:rgb(0%,0%,0%);stroke-opacity:1;stroke-miterlimit:4;" d="M 220 262.598958 L 218.197917 269.098958 " transform="matrix(0.75,0,0,0.75,0,0)"/>
<path style="fill:none;stroke-width:2;stroke-linecap:butt;stroke-linejoin:miter;stroke:rgb(0%,0%,0%);stroke-opacity:1;stroke-miterlimit:4;" d="M 201.598958 217.197917 L 202.598958 215.098958 L 200.5 214.197917 " transform="matrix(0.75,0,0,0.75,0,0)"/>
<path style="fill:none;stroke-width:2;stroke-linecap:butt;stroke-linejoin:miter;stroke:rgb(0%,0%,0%);stroke-opacity:1;stroke-miterlimit:4;" d="M 278.5 227.598958 L 279.197917 228.197917 L 281.302083 227.5 " transform="matrix(0.75,0,0,0.75,0,0)"/>
<path style="fill:none;stroke-width:2;stroke-linecap:butt;stroke-linejoin:miter;stroke:rgb(0%,0%,0%);stroke-opacity:1;stroke-miterlimit:4;" d="M 319.197917 213.401042 L 321.302083 212.697917 L 323 214.098958 " transform="matrix(0.75,0,0,0.75,0,0)"/>
<path style="fill:none;stroke-width:2;stroke-linecap:butt;stroke-linejoin:miter;stroke:rgb(0%,0%,0%);stroke-opacity:1;stroke-miterlimit:4;" d="M 348.697917 283.401042 L 348.302083 285.598958 L 350 287 " transform="matrix(0.75,0,0,0.75,0,0)"/>
<path style="fill:none;stroke-width:2;stroke-linecap:butt;stroke-linejoin:miter;stroke:rgb(0%,0%,0%);stroke-opacity:1;stroke-miterlimit:4;" d="M 381.098958 312.802083 L 382.802083 314.302083 L 385 313.5 " transform="matrix(0.75,0,0,0.75,0,0)"/>
<path style="fill:none;stroke-width:2;stroke-linecap:butt;stroke-linejoin:miter;stroke:rgb(0%,0%,0%);stroke-opacity:1;stroke-miterlimit:4;" d="M 432.098958 256.598958 L 432.5 254.401042 L 430.802083 253 " transform="matrix(0.75,0,0,0.75,0,0)"/>
<path style="fill:none;stroke-width:2;stroke-linecap:butt;stroke-linejoin:miter;stroke:rgb(0%,0%,0%);stroke-opacity:1;stroke-miterlimit:4;" d="M 399.697917 227.197917 L 398 225.802083 L 395.901042 226.5 " transform="matrix(0.75,0,0,0.75,0,0)"/>
<path style="fill:none;stroke-width:2;stroke-linecap:butt;stroke-linejoin:miter;stroke:rgb(0%,0%,0%);stroke-opacity:1;stroke-miterlimit:4;" d="M 163.802083 197.302083 L 161.802083 196.401042 L 161.401042 197.197917 " transform="matrix(0.75,0,0,0.75,0,0)"/>
<path style="fill:none;stroke-width:2;stroke-linecap:butt;stroke-linejoin:miter;stroke:rgb(0%,0%,0%);stroke-opacity:1;stroke-miterlimit:4;" d="M 113.197917 269.5 L 112.5 270.197917 L 113.598958 272.098958 " transform="matrix(0.75,0,0,0.75,0,0)"/>
<path style=" stroke:none;fill-rule:nonzero;fill:rgb(80%,80%,0%);fill-opacity:1;" d="M 131.25 228.675781 C 131.300781 228.675781 131.476562 228.75 131.773438 228.898438 C 132.074219 229 132.375 229.101562 132.675781 229.199219 C 133.023438 229.25 133.351562 229.273438 133.648438 229.273438 C 134.300781 229.273438 134.800781 229.148438 135.148438 228.898438 C 135.5 228.601562 135.675781 228.175781 135.675781 227.625 C 135.675781 227.273438 135.574219 227 135.375 226.800781 C 135.226562 226.601562 135 226.449219 134.699219 226.351562 C 134.449219 226.199219 134.101562 226.050781 133.648438 225.898438 C 133.050781 225.75 132.601562 225.601562 132.300781 225.449219 C 131.949219 225.300781 131.648438 225.050781 131.398438 224.699219 C 131.148438 224.351562 131.023438 223.875 131.023438 223.273438 C 131.023438 222.476562 131.300781 221.851562 131.851562 221.398438 C 132.398438 220.898438 133.226562 220.648438 134.324219 220.648438 C 135.023438 220.648438 135.800781 220.824219 136.648438 221.175781 L 136.351562 222.226562 C 135.601562 221.875 134.925781 221.699219 134.324219 221.699219 C 133.726562 221.699219 133.25 221.824219 132.898438 222.074219 C 132.550781 222.324219 132.375 222.675781 132.375 223.125 C 132.375 223.476562 132.476562 223.75 132.675781 223.949219 C 132.824219 224.148438 133.023438 224.324219 133.273438 224.476562 C 133.574219 224.574219 133.925781 224.699219 134.324219 224.851562 C 134.925781 225 135.398438 225.175781 135.75 225.375 C 136.050781 225.574219 136.324219 225.851562 136.574219 226.199219 C 136.824219 226.550781 136.949219 227.023438 136.949219 227.625 C 136.949219 228.523438 136.648438 229.226562 136.050781 229.726562 C 135.5 230.175781 134.726562 230.398438 133.726562 230.398438 C 133.175781 230.398438 132.675781 230.324219 132.226562 230.175781 C 131.824219 230.074219 131.375 229.925781 130.875 229.726562 L 131.25 228.675781 "/>
<path style=" stroke:none;fill-rule:nonzero;fill:rgb(0%,0%,100%);fill-opacity:1;" d="M 181.425781 144.898438 L 184.5 149.925781 C 184.699219 150.273438 184.976562 150.75 185.324219 151.351562 C 185.675781 151.949219 185.851562 152.273438 185.851562 152.324219 L 185.851562 144.898438 L 187.125 144.898438 L 187.125 154.425781 L 185.773438 154.425781 L 182.476562 148.875 C 182.226562 148.476562 181.949219 148.023438 181.648438 147.523438 C 181.398438 147.023438 181.226562 146.699219 181.125 146.550781 L 181.125 154.425781 L 179.851562 154.425781 L 179.851562 144.898438 L 181.425781 144.898438 "/>
<path style=" stroke:none;fill-rule:nonzero;fill:rgb(0%,0%,100%);fill-opacity:1;" d="M 179.773438 134.398438 L 181.050781 134.398438 L 181.050781 138.449219 L 185.925781 138.449219 L 185.925781 134.398438 L 187.199219 134.398438 L 187.199219 143.925781 L 185.925781 143.925781 L 185.925781 139.5 L 181.050781 139.5 L 181.050781 143.925781 L 179.773438 143.925781 L 179.773438 134.398438 "/>
<path style=" stroke:none;fill-rule:nonzero;fill:rgb(100%,0%,0%);fill-opacity:1;" d="M 199.351562 204.375 C 199.351562 202.875 199.726562 201.699219 200.476562 200.851562 C 201.226562 200 202.300781 199.574219 203.699219 199.574219 C 205.148438 199.574219 206.25 200 207 200.851562 C 207.75 201.699219 208.125 202.875 208.125 204.375 C 208.125 205.925781 207.75 207.148438 207 208.050781 C 206.199219 208.898438 205.101562 209.324219 203.699219 209.324219 C 202.300781 209.324219 201.226562 208.898438 200.476562 208.050781 C 199.726562 207.148438 199.351562 205.925781 199.351562 204.375 M 203.699219 208.273438 C 204.699219 208.273438 205.449219 207.949219 205.949219 207.300781 C 206.5 206.648438 206.773438 205.675781 206.773438 204.375 C 206.773438 203.125 206.5 202.199219 205.949219 201.601562 C 205.449219 200.949219 204.699219 200.625 203.699219 200.625 C 202.75 200.625 202 200.949219 201.449219 201.601562 C 200.949219 202.199219 200.699219 203.125 200.699219 204.375 C 200.699219 205.675781 200.949219 206.648438 201.449219 207.300781 C 202 207.949219 202.75 208.273438 203.699219 208.273438 "/>
<path style=" stroke:none;fill-rule:nonzero;fill:rgb(0%,0%,100%);fill-opacity:1;" d="M 244.574219 121.5 L 247.648438 126.601562 C 247.898438 126.898438 248.175781 127.351562 248.476562 127.949219 C 248.824219 128.550781 249 128.875 249 128.925781 L 249 121.5 L 250.273438 121.5 L 250.273438 131.101562 L 249 131.101562 L 245.625 125.550781 C 245.375 125.101562 245.101562 124.625 244.800781 124.125 C 244.550781 123.675781 244.375 123.351562 244.273438 123.148438 L 244.273438 131.101562 L 243.074219 131.101562 L 243.074219 121.5 L 244.574219 121.5 "/>
<path style=" stroke:none;fill-rule:nonzero;fill:rgb(0%,0%,100%);fill-opacity:1;" d="M 252.074219 121.5 L 253.425781 121.5 L 253.425781 125.550781 L 258.300781 125.550781 L 258.300781 121.5 L 259.574219 121.5 L 259.574219 131.101562 L 258.300781 131.101562 L 258.300781 126.675781 L 253.425781 126.675781 L 253.425781 131.101562 L 252.074219 131.101562 L 252.074219 121.5 "/>
<path style=" stroke:none;fill-rule:nonzero;fill:rgb(0%,0%,100%);fill-opacity:1;" d="M 261.449219 130.726562 C 261.601562 130.324219 261.851562 130.023438 262.199219 129.824219 C 262.601562 129.574219 263.050781 129.449219 263.550781 129.449219 C 264.148438 129.449219 264.648438 129.625 265.050781 129.976562 C 265.398438 130.324219 265.574219 130.800781 265.574219 131.398438 C 265.574219 132.050781 265.324219 132.648438 264.824219 133.199219 C 264.375 133.800781 263.675781 134.449219 262.726562 135.148438 L 265.648438 135.148438 L 265.648438 135.824219 L 261.449219 135.824219 L 261.449219 135.226562 C 262.199219 134.675781 262.800781 134.199219 263.25 133.800781 C 263.75 133.351562 264.101562 132.949219 264.300781 132.601562 C 264.550781 132.199219 264.675781 131.824219 264.675781 131.476562 C 264.675781 131.074219 264.574219 130.75 264.375 130.5 C 264.175781 130.300781 263.898438 130.199219 263.550781 130.199219 C 263.199219 130.199219 262.898438 130.25 262.648438 130.351562 C 262.449219 130.5 262.273438 130.726562 262.125 131.023438 L 261.449219 130.726562 "/>
<path style=" stroke:none;fill-rule:nonzero;fill:rgb(100%,0%,0%);fill-opacity:1;" d="M 340.273438 245.550781 C 340.273438 244.050781 340.648438 242.875 341.398438 242.023438 C 342.148438 241.125 343.226562 240.675781 344.625 240.675781 C 346.023438 240.675781 347.101562 241.125 347.851562 242.023438 C 348.601562 242.875 348.976562 244.050781 348.976562 245.550781 C 348.976562 247.101562 348.601562 248.324219 347.851562 249.226562 C 347.101562 250.074219 346.023438 250.5 344.625 250.5 C 343.226562 250.5 342.148438 250.074219 341.398438 249.226562 C 340.648438 248.324219 340.273438 247.101562 340.273438 245.550781 M 344.625 249.449219 C 345.574219 249.449219 346.324219 249.125 346.875 248.476562 C 347.375 247.824219 347.625 246.851562 347.625 245.550781 C 347.625 244.300781 347.375 243.375 346.875 242.773438 C 346.324219 242.125 345.574219 241.800781 344.625 241.800781 C 343.675781 241.800781 342.925781 242.101562 342.375 242.699219 C 341.875 243.351562 341.625 244.300781 341.625 245.550781 C 341.625 246.851562 341.875 247.824219 342.375 248.476562 C 342.925781 249.125 343.675781 249.449219 344.625 249.449219 "/>
<path style=" stroke:none;fill-rule:nonzero;fill:rgb(100%,0%,0%);fill-opacity:1;" d="M 350.476562 240.824219 L 351.75 240.824219 L 351.75 244.875 L 356.625 244.875 L 356.625 240.824219 L 357.976562 240.824219 L 357.976562 250.351562 L 356.625 250.351562 L 356.625 245.925781 L 351.75 245.925781 L 351.75 250.351562 L 350.476562 250.351562 L 350.476562 240.824219 "/>
<path style=" stroke:none;fill-rule:nonzero;fill:rgb(100%,0%,0%);fill-opacity:1;" d="M 105.226562 115.726562 C 105.226562 114.175781 105.625 112.976562 106.425781 112.125 C 107.175781 111.273438 108.25 110.851562 109.648438 110.851562 C 111.050781 110.851562 112.125 111.273438 112.875 112.125 C 113.625 112.976562 114 114.175781 114 115.726562 C 114 117.273438 113.625 118.476562 112.875 119.324219 C 112.125 120.226562 111.050781 120.675781 109.648438 120.675781 C 108.25 120.675781 107.175781 120.226562 106.425781 119.324219 C 105.625 118.476562 105.226562 117.273438 105.226562 115.726562 M 109.648438 119.550781 C 110.601562 119.550781 111.351562 119.226562 111.898438 118.574219 C 112.398438 117.925781 112.648438 116.976562 112.648438 115.726562 C 112.648438 114.476562 112.398438 113.523438 111.898438 112.875 C 111.351562 112.273438 110.601562 111.976562 109.648438 111.976562 C 108.648438 111.976562 107.898438 112.273438 107.398438 112.875 C 106.851562 113.523438 106.574219 114.476562 106.574219 115.726562 C 106.574219 117.023438 106.851562 117.976562 107.398438 118.574219 C 107.898438 119.226562 108.648438 119.550781 109.648438 119.550781 "/>
<path style=" stroke:none;fill-rule:nonzero;fill:rgb(0%,0%,100%);fill-opacity:1;" d="M 105.148438 173.101562 L 108.300781 178.125 C 108.5 178.476562 108.75 178.949219 109.050781 179.550781 C 109.398438 180.148438 109.574219 180.476562 109.574219 180.523438 L 109.574219 173.101562 L 110.851562 173.101562 L 110.851562 182.625 L 109.574219 182.625 L 106.199219 177.074219 C 105.949219 176.675781 105.675781 176.226562 105.375 175.726562 C 105.125 175.226562 104.949219 174.898438 104.851562 174.75 L 104.851562 182.625 L 103.648438 182.625 L 103.648438 173.101562 L 105.148438 173.101562 "/>
<path style=" stroke:none;fill-rule:nonzero;fill:rgb(100%,0%,0%);fill-opacity:1;" d="M 33.300781 167.773438 C 33.300781 166.273438 33.675781 165.101562 34.425781 164.25 C 35.175781 163.351562 36.25 162.898438 37.648438 162.898438 C 39.050781 162.898438 40.125 163.351562 40.875 164.25 C 41.625 165.101562 42 166.273438 42 167.773438 C 42 169.324219 41.625 170.550781 40.875 171.449219 C 40.125 172.300781 39.050781 172.726562 37.648438 172.726562 C 36.25 172.726562 35.175781 172.300781 34.425781 171.449219 C 33.675781 170.550781 33.300781 169.324219 33.300781 167.773438 M 37.648438 171.675781 C 38.601562 171.675781 39.351562 171.351562 39.898438 170.699219 C 40.398438 170.050781 40.648438 169.074219 40.648438 167.773438 C 40.648438 166.523438 40.398438 165.601562 39.898438 165 C 39.351562 164.351562 38.601562 164.023438 37.648438 164.023438 C 36.699219 164.023438 35.949219 164.324219 35.398438 164.925781 C 34.898438 165.574219 34.648438 166.523438 34.648438 167.773438 C 34.648438 169.074219 34.898438 170.050781 35.398438 170.699219 C 35.949219 171.351562 36.699219 171.675781 37.648438 171.675781 "/>
<path style=" stroke:none;fill-rule:nonzero;fill:rgb(100%,0%,0%);fill-opacity:1;" d="M 17.023438 220.949219 L 18.375 220.949219 L 18.375 225 L 23.25 225 L 23.25 220.949219 L 24.523438 220.949219 L 24.523438 230.476562 L 23.25 230.476562 L 23.25 226.125 L 18.375 226.125 L 18.375 230.476562 L 17.023438 230.476562 L 17.023438 220.949219 "/>
<path style=" stroke:none;fill-rule:nonzero;fill:rgb(100%,0%,0%);fill-opacity:1;" d="M 26.476562 225.675781 C 26.476562 224.175781 26.851562 223 27.601562 222.148438 C 28.351562 221.300781 29.425781 220.875 30.824219 220.875 C 32.226562 220.875 33.324219 221.300781 34.125 222.148438 C 34.875 223 35.25 224.175781 35.25 225.675781 C 35.25 227.226562 34.851562 228.449219 34.050781 229.351562 C 33.300781 230.199219 32.226562 230.625 30.824219 230.625 C 29.425781 230.625 28.351562 230.199219 27.601562 229.351562 C 26.851562 228.5 26.476562 227.273438 26.476562 225.675781 M 30.824219 229.574219 C 31.824219 229.574219 32.574219 229.25 33.074219 228.601562 C 33.625 227.949219 33.898438 226.976562 33.898438 225.675781 C 33.898438 224.476562 33.625 223.550781 33.074219 222.898438 C 32.574219 222.25 31.824219 221.925781 30.824219 221.925781 C 29.875 221.925781 29.125 222.25 28.574219 222.898438 C 28.074219 223.5 27.824219 224.425781 27.824219 225.675781 C 27.824219 226.976562 28.074219 227.949219 28.574219 228.601562 C 29.125 229.25 29.875 229.574219 30.824219 229.574219 "/>
<path style=" stroke:none;fill-rule:nonzero;fill:rgb(0%,0%,0%);fill-opacity:1;" d="M 166.5 196.273438 L 167.851562 196.273438 L 167.851562 200.324219 L 172.726562 200.324219 L 172.726562 196.273438 L 174 196.273438 L 174 205.800781 L 172.726562 205.800781 L 172.726562 201.449219 L 167.851562 201.449219 L 167.851562 205.800781 L 166.5 205.800781 L 166.5 196.273438 "/>
</g>
</svg>
