<?xml version="1.0" encoding="UTF-8"?>
<svg xmlns="http://www.w3.org/2000/svg" xmlns:xlink="http://www.w3.org/1999/xlink" width="375pt" height="375pt" viewBox="0 0 375 375" version="1.1">
<g id="surface46">
<rect x="0" y="0" width="375" height="375" style="fill:rgb(100%,100%,100%);fill-opacity:1;stroke:none;"/>
<path style="fill:none;stroke-width:2;stroke-linecap:butt;stroke-linejoin:miter;stroke:rgb(0%,0%,0%);stroke-opacity:1;stroke-miterlimit:4;" d="M 333.098958 415.697917 L 338.5 376.302083 " transform="matrix(0.75,0,0,0.75,0,0)"/>
<path style="fill:none;stroke-width:1;stroke-linecap:butt;stroke-linejoin:miter;stroke:rgb(0%,0%,0%);stroke-opacity:1;stroke-miterlimit:4;" d="M 312 356.401042 L 312.802083 355.401042 " transform="matrix(0.75,0,0,0.75,0,0)"/>
<path style="fill:none;stroke-width:1;stroke-linecap:butt;stroke-linejoin:miter;stroke:rgb(0%,0%,0%);stroke-opacity:1;stroke-miterlimit:4;" d="M 316.802083 361 L 318.401042 359 " transform="matrix(0.75,0,0,0.75,0,0)"/>
<path style="fill:none;stroke-width:1;stroke-linecap:butt;stroke-linejoin:miter;stroke:rgb(0%,0%,0%);stroke-opacity:1;stroke-miterlimit:4;" d="M 321.598958 365.598958 L 324 362.5 " transform="matrix(0.75,0,0,0.75,0,0)"/>
<path style="fill:none;stroke-width:1;stroke-linecap:butt;stroke-linejoin:miter;stroke:rgb(0%,0%,0%);stroke-opacity:1;stroke-miterlimit:4;" d="M 326.5 370.197917 L 329.697917 366.098958 " transform="matrix(0.75,0,0,0.75,0,0)"/>
<path style="fill:none;stroke-width:1;stroke-linecap:butt;stroke-linejoin:miter;stroke:rgb(0%,0%,0%);stroke-opacity:1;stroke-miterlimit:4;" d="M 331.302083 374.802083 L 335.302083 369.598958 " transform="matrix(0.75,0,0,0.75,0,0)"/>
<path style="fill:none;stroke-width:1;stroke-linecap:butt;stroke-linejoin:miter;stroke:rgb(0%,0%,0%);stroke-opacity:1;stroke-miterlimit:4;" d="M 336.098958 379.401042 L 340.901042 373.197917 " transform="matrix(0.75,0,0,0.75,0,0)"/>
<path style="fill:none;stroke-width:2;stroke-linecap:butt;stroke-linejoin:miter;stroke:rgb(0%,0%,0%);stroke-opacity:1;stroke-miterlimit:4;" d="M 307.098958 351.802083 L 314.098958 337.5 " transform="matrix(0.75,0,0,0.75,0,0)"/>
<path style="fill:none;stroke-width:2;stroke-linecap:butt;stroke-linejoin:miter;stroke:rgb(100%,0%,0%);stroke-opacity:1;stroke-miterlimit:4;" d="M 314.098958 337.5 L 321 323.197917 " transform="matrix(0.75,0,0,0.75,0,0)"/>
<path style="fill:none;stroke-width:2;stroke-linecap:butt;stroke-linejoin:miter;stroke:rgb(100%,0%,0%);stroke-opacity:1;stroke-miterlimit:4;" d="M 324.802083 309 L 325.302083 292.598958 " transform="matrix(0.75,0,0,0.75,0,0)"/>
<path style="fill:none;stroke-width:2;stroke-linecap:butt;stroke-linejoin:miter;stroke:rgb(0%,0%,0%);stroke-opacity:1;stroke-miterlimit:4;" d="M 325.302083 292.598958 L 325.901042 276.197917 " transform="matrix(0.75,0,0,0.75,0,0)"/>
<path style="fill:none;stroke-width:2;stroke-linecap:butt;stroke-linejoin:miter;stroke:rgb(0%,0%,0%);stroke-opacity:1;stroke-miterlimit:4;" d="M 325.197917 272.302083 L 341.5 269.401042 " transform="matrix(0.75,0,0,0.75,0,0)"/>
<path style="fill:none;stroke-width:2;stroke-linecap:butt;stroke-linejoin:miter;stroke:rgb(100%,0%,0%);stroke-opacity:1;stroke-miterlimit:4;" d="M 341.5 269.401042 L 357.901042 266.401042 " transform="matrix(0.75,0,0,0.75,0,0)"/>
<path style="fill:none;stroke-width:2;stroke-linecap:butt;stroke-linejoin:miter;stroke:rgb(0%,0%,0%);stroke-opacity:1;stroke-miterlimit:4;" d="M 326.598958 280.098958 L 342.901042 277.197917 " transform="matrix(0.75,0,0,0.75,0,0)"/>
<path style="fill:none;stroke-width:2;stroke-linecap:butt;stroke-linejoin:miter;stroke:rgb(100%,0%,0%);stroke-opacity:1;stroke-miterlimit:4;" d="M 342.901042 277.197917 L 359.302083 274.302083 " transform="matrix(0.75,0,0,0.75,0,0)"/>
<path style="fill:none;stroke-width:2;stroke-linecap:butt;stroke-linejoin:miter;stroke:rgb(0%,0%,0%);stroke-opacity:1;stroke-miterlimit:4;" d="M 325.901042 276.197917 L 310.901042 239.302083 " transform="matrix(0.75,0,0,0.75,0,0)"/>
<path style="fill-rule:evenodd;fill:rgb(0%,0%,0%);fill-opacity:1;stroke-width:1;stroke-linecap:butt;stroke-linejoin:miter;stroke:rgb(0%,0%,0%);stroke-opacity:1;stroke-miterlimit:4;" d="M 310.901042 239.302083 L 343.197917 223.302083 L 345.901042 230.598958 Z M 310.901042 239.302083 " transform="matrix(0.75,0,0,0.75,0,0)"/>
<path style="fill:none;stroke-width:2;stroke-linecap:butt;stroke-linejoin:miter;stroke:rgb(0%,0%,0%);stroke-opacity:1;stroke-miterlimit:4;" d="M 310.901042 239.302083 L 282.197917 211.697917 " transform="matrix(0.75,0,0,0.75,0,0)"/>
<path style="fill:none;stroke-width:1;stroke-linecap:butt;stroke-linejoin:miter;stroke:rgb(0%,0%,0%);stroke-opacity:1;stroke-miterlimit:4;" d="M 285.401042 207.802083 L 284.302083 207.098958 " transform="matrix(0.75,0,0,0.75,0,0)"/>
<path style="fill:none;stroke-width:1;stroke-linecap:butt;stroke-linejoin:miter;stroke:rgb(0%,0%,0%);stroke-opacity:1;stroke-miterlimit:4;" d="M 288.5 203.901042 L 286.302083 202.5 " transform="matrix(0.75,0,0,0.75,0,0)"/>
<path style="fill:none;stroke-width:1;stroke-linecap:butt;stroke-linejoin:miter;stroke:rgb(0%,0%,0%);stroke-opacity:1;stroke-miterlimit:4;" d="M 291.697917 200 L 288.401042 197.901042 " transform="matrix(0.75,0,0,0.75,0,0)"/>
<path style="fill:none;stroke-width:1;stroke-linecap:butt;stroke-linejoin:miter;stroke:rgb(100%,0%,0%);stroke-opacity:1;stroke-miterlimit:4;" d="M 294.901042 196.098958 L 290.5 193.401042 " transform="matrix(0.75,0,0,0.75,0,0)"/>
<path style="fill:none;stroke-width:1;stroke-linecap:butt;stroke-linejoin:miter;stroke:rgb(100%,0%,0%);stroke-opacity:1;stroke-miterlimit:4;" d="M 298.098958 192.197917 L 292.598958 188.802083 " transform="matrix(0.75,0,0,0.75,0,0)"/>
<path style="fill:none;stroke-width:1;stroke-linecap:butt;stroke-linejoin:miter;stroke:rgb(100%,0%,0%);stroke-opacity:1;stroke-miterlimit:4;" d="M 301.302083 188.401042 L 294.697917 184.197917 " transform="matrix(0.75,0,0,0.75,0,0)"/>
<path style="fill-rule:evenodd;fill:rgb(0%,0%,0%);fill-opacity:1;stroke-width:1;stroke-linecap:butt;stroke-linejoin:miter;stroke:rgb(0%,0%,0%);stroke-opacity:1;stroke-miterlimit:4;" d="M 343 179.197917 L 327 180.598958 L 327.098958 176.697917 Z M 343 179.197917 " transform="matrix(0.75,0,0,0.75,0,0)"/>
<path style="fill-rule:evenodd;fill:rgb(100%,0%,0%);fill-opacity:1;stroke-width:1;stroke-linecap:butt;stroke-linejoin:miter;stroke:rgb(100%,0%,0%);stroke-opacity:1;stroke-miterlimit:4;" d="M 327 180.598958 L 311.098958 174.197917 L 310.901042 182 Z M 327 180.598958 " transform="matrix(0.75,0,0,0.75,0,0)"/>
<path style="fill-rule:evenodd;fill:rgb(100%,0%,0%);fill-opacity:1;stroke-width:1;stroke-linecap:butt;stroke-linejoin:miter;stroke:rgb(100%,0%,0%);stroke-opacity:1;stroke-miterlimit:4;" d="M 327 180.598958 L 327.098958 176.697917 L 311.098958 174.197917 Z M 327 180.598958 " transform="matrix(0.75,0,0,0.75,0,0)"/>
<path style="fill:none;stroke-width:2;stroke-linecap:butt;stroke-linejoin:miter;stroke:rgb(0%,0%,0%);stroke-opacity:1;stroke-miterlimit:4;" d="M 343 179.197917 L 364.098958 145.401042 " transform="matrix(0.75,0,0,0.75,0,0)"/>
<path style="fill:none;stroke-width:2;stroke-linecap:butt;stroke-linejoin:miter;stroke:rgb(0%,0%,0%);stroke-opacity:1;stroke-miterlimit:4;" d="M 364.098958 145.401042 L 403.901042 146.697917 " transform="matrix(0.75,0,0,0.75,0,0)"/>
<path style="fill:none;stroke-width:1;stroke-linecap:butt;stroke-linejoin:miter;stroke:rgb(0%,0%,0%);stroke-opacity:1;stroke-miterlimit:4;" d="M 410.401042 145.197917 L 410 144 " transform="matrix(0.75,0,0,0.75,0,0)"/>
<path style="fill:none;stroke-width:1;stroke-linecap:butt;stroke-linejoin:miter;stroke:rgb(0%,0%,0%);stroke-opacity:1;stroke-miterlimit:4;" d="M 416.901042 143.802083 L 416.098958 141.302083 " transform="matrix(0.75,0,0,0.75,0,0)"/>
<path style="fill:none;stroke-width:1;stroke-linecap:butt;stroke-linejoin:miter;stroke:rgb(0%,0%,0%);stroke-opacity:1;stroke-miterlimit:4;" d="M 423.401042 142.401042 L 422.197917 138.598958 " transform="matrix(0.75,0,0,0.75,0,0)"/>
<path style="fill:none;stroke-width:1;stroke-linecap:butt;stroke-linejoin:miter;stroke:rgb(0%,0%,0%);stroke-opacity:1;stroke-miterlimit:4;" d="M 430 140.901042 L 428.302083 136 " transform="matrix(0.75,0,0,0.75,0,0)"/>
<path style="fill:none;stroke-width:1;stroke-linecap:butt;stroke-linejoin:miter;stroke:rgb(0%,0%,0%);stroke-opacity:1;stroke-miterlimit:4;" d="M 436.5 139.5 L 434.401042 133.302083 " transform="matrix(0.75,0,0,0.75,0,0)"/>
<path style="fill:none;stroke-width:1;stroke-linecap:butt;stroke-linejoin:miter;stroke:rgb(0%,0%,0%);stroke-opacity:1;stroke-miterlimit:4;" d="M 443 138 L 440.598958 130.598958 " transform="matrix(0.75,0,0,0.75,0,0)"/>
<path style="fill:none;stroke-width:2;stroke-linecap:butt;stroke-linejoin:miter;stroke:rgb(0%,0%,0%);stroke-opacity:1;stroke-miterlimit:4;" d="M 403.901042 146.697917 L 401.598958 130.598958 " transform="matrix(0.75,0,0,0.75,0,0)"/>
<path style="fill:none;stroke-width:2;stroke-linecap:butt;stroke-linejoin:miter;stroke:rgb(100%,0%,0%);stroke-opacity:1;stroke-miterlimit:4;" d="M 401.598958 130.598958 L 399.302083 114.401042 " transform="matrix(0.75,0,0,0.75,0,0)"/>
<path style="fill:none;stroke-width:2;stroke-linecap:butt;stroke-linejoin:miter;stroke:rgb(100%,0%,0%);stroke-opacity:1;stroke-miterlimit:4;" d="M 404.802083 102.197917 L 417.197917 92.401042 " transform="matrix(0.75,0,0,0.75,0,0)"/>
<path style="fill:none;stroke-width:2;stroke-linecap:butt;stroke-linejoin:miter;stroke:rgb(0%,0%,0%);stroke-opacity:1;stroke-miterlimit:4;" d="M 417.197917 92.401042 L 429.697917 82.697917 " transform="matrix(0.75,0,0,0.75,0,0)"/>
<path style="fill:none;stroke-width:2;stroke-linecap:butt;stroke-linejoin:miter;stroke:rgb(0%,0%,0%);stroke-opacity:1;stroke-miterlimit:4;" d="M 403.901042 146.697917 L 422.697917 181.802083 " transform="matrix(0.75,0,0,0.75,0,0)"/>
<path style="fill-rule:evenodd;fill:rgb(0%,0%,0%);fill-opacity:1;stroke-width:1;stroke-linecap:butt;stroke-linejoin:miter;stroke:rgb(0%,0%,0%);stroke-opacity:1;stroke-miterlimit:4;" d="M 422.697917 181.802083 L 438.802083 180.401042 L 438.598958 184.302083 Z M 422.697917 181.802083 " transform="matrix(0.75,0,0,0.75,0,0)"/>
<path style="fill-rule:evenodd;fill:rgb(100%,0%,0%);fill-opacity:1;stroke-width:1;stroke-linecap:butt;stroke-linejoin:miter;stroke:rgb(100%,0%,0%);stroke-opacity:1;stroke-miterlimit:4;" d="M 438.802083 180.401042 L 454.598958 186.802083 L 454.802083 179 Z M 438.802083 180.401042 " transform="matrix(0.75,0,0,0.75,0,0)"/>
<path style="fill-rule:evenodd;fill:rgb(100%,0%,0%);fill-opacity:1;stroke-width:1;stroke-linecap:butt;stroke-linejoin:miter;stroke:rgb(100%,0%,0%);stroke-opacity:1;stroke-miterlimit:4;" d="M 438.802083 180.401042 L 438.598958 184.302083 L 454.598958 186.802083 Z M 438.802083 180.401042 " transform="matrix(0.75,0,0,0.75,0,0)"/>
<path style="fill:none;stroke-width:2;stroke-linecap:butt;stroke-linejoin:miter;stroke:rgb(0%,0%,0%);stroke-opacity:1;stroke-miterlimit:4;" d="M 422.697917 181.802083 L 401.598958 215.598958 " transform="matrix(0.75,0,0,0.75,0,0)"/>
<path style="fill:none;stroke-width:1;stroke-linecap:butt;stroke-linejoin:miter;stroke:rgb(0%,0%,0%);stroke-opacity:1;stroke-miterlimit:4;" d="M 404.197917 221.802083 L 405.302083 221.197917 " transform="matrix(0.75,0,0,0.75,0,0)"/>
<path style="fill:none;stroke-width:1;stroke-linecap:butt;stroke-linejoin:miter;stroke:rgb(0%,0%,0%);stroke-opacity:1;stroke-miterlimit:4;" d="M 406.697917 228 L 409 226.697917 " transform="matrix(0.75,0,0,0.75,0,0)"/>
<path style="fill:none;stroke-width:1;stroke-linecap:butt;stroke-linejoin:miter;stroke:rgb(0%,0%,0%);stroke-opacity:1;stroke-miterlimit:4;" d="M 409.302083 234.098958 L 412.697917 232.302083 " transform="matrix(0.75,0,0,0.75,0,0)"/>
<path style="fill:none;stroke-width:1;stroke-linecap:butt;stroke-linejoin:miter;stroke:rgb(0%,0%,0%);stroke-opacity:1;stroke-miterlimit:4;" d="M 411.802083 240.302083 L 416.401042 237.802083 " transform="matrix(0.75,0,0,0.75,0,0)"/>
<path style="fill:none;stroke-width:1;stroke-linecap:butt;stroke-linejoin:miter;stroke:rgb(0%,0%,0%);stroke-opacity:1;stroke-miterlimit:4;" d="M 414.401042 246.5 L 420.098958 243.401042 " transform="matrix(0.75,0,0,0.75,0,0)"/>
<path style="fill:none;stroke-width:1;stroke-linecap:butt;stroke-linejoin:miter;stroke:rgb(0%,0%,0%);stroke-opacity:1;stroke-miterlimit:4;" d="M 416.901042 252.598958 L 423.802083 248.901042 " transform="matrix(0.75,0,0,0.75,0,0)"/>
<path style="fill:none;stroke-width:2;stroke-linecap:butt;stroke-linejoin:miter;stroke:rgb(0%,0%,0%);stroke-opacity:1;stroke-miterlimit:4;" d="M 401.598958 215.598958 L 384.901042 215.098958 " transform="matrix(0.75,0,0,0.75,0,0)"/>
<path style="fill:none;stroke-width:2;stroke-linecap:butt;stroke-linejoin:miter;stroke:rgb(100%,0%,0%);stroke-opacity:1;stroke-miterlimit:4;" d="M 384.901042 215.098958 L 368.302083 214.5 " transform="matrix(0.75,0,0,0.75,0,0)"/>
<path style="fill:none;stroke-width:2;stroke-linecap:butt;stroke-linejoin:miter;stroke:rgb(0%,0%,0%);stroke-opacity:1;stroke-miterlimit:4;" d="M 282.197917 211.697917 L 244.697917 198.098958 " transform="matrix(0.75,0,0,0.75,0,0)"/>
<path style="fill-rule:evenodd;fill:rgb(0%,0%,0%);fill-opacity:1;stroke-width:1;stroke-linecap:butt;stroke-linejoin:miter;stroke:rgb(0%,0%,0%);stroke-opacity:1;stroke-miterlimit:4;" d="M 244.697917 198.098958 L 246.302083 158.098958 L 254.098958 159.197917 Z M 244.697917 198.098958 " transform="matrix(0.75,0,0,0.75,0,0)"/>
<path style="fill:none;stroke-width:2;stroke-linecap:butt;stroke-linejoin:miter;stroke:rgb(0%,0%,0%);stroke-opacity:1;stroke-miterlimit:4;" d="M 244.697917 198.098958 L 205 200.901042 " transform="matrix(0.75,0,0,0.75,0,0)"/>
<path style="fill:none;stroke-width:1;stroke-linecap:butt;stroke-linejoin:miter;stroke:rgb(0%,0%,0%);stroke-opacity:1;stroke-miterlimit:4;" d="M 204.197917 195.802083 L 202.901042 196.098958 " transform="matrix(0.75,0,0,0.75,0,0)"/>
<path style="fill:none;stroke-width:1;stroke-linecap:butt;stroke-linejoin:miter;stroke:rgb(0%,0%,0%);stroke-opacity:1;stroke-miterlimit:4;" d="M 203.401042 190.598958 L 200.901042 191.401042 " transform="matrix(0.75,0,0,0.75,0,0)"/>
<path style="fill:none;stroke-width:1;stroke-linecap:butt;stroke-linejoin:miter;stroke:rgb(0%,0%,0%);stroke-opacity:1;stroke-miterlimit:4;" d="M 202.598958 185.5 L 198.802083 186.598958 " transform="matrix(0.75,0,0,0.75,0,0)"/>
<path style="fill:none;stroke-width:1;stroke-linecap:butt;stroke-linejoin:miter;stroke:rgb(100%,0%,0%);stroke-opacity:1;stroke-miterlimit:4;" d="M 201.802083 180.302083 L 196.802083 181.802083 " transform="matrix(0.75,0,0,0.75,0,0)"/>
<path style="fill:none;stroke-width:1;stroke-linecap:butt;stroke-linejoin:miter;stroke:rgb(100%,0%,0%);stroke-opacity:1;stroke-miterlimit:4;" d="M 201 175.197917 L 194.697917 177 " transform="matrix(0.75,0,0,0.75,0,0)"/>
<path style="fill:none;stroke-width:1;stroke-linecap:butt;stroke-linejoin:miter;stroke:rgb(100%,0%,0%);stroke-opacity:1;stroke-miterlimit:4;" d="M 200.197917 170 L 192.598958 172.197917 " transform="matrix(0.75,0,0,0.75,0,0)"/>
<path style="fill-rule:evenodd;fill:rgb(0%,0%,0%);fill-opacity:1;stroke-width:1;stroke-linecap:butt;stroke-linejoin:miter;stroke:rgb(0%,0%,0%);stroke-opacity:1;stroke-miterlimit:4;" d="M 155.302083 153.098958 L 171.197917 155 L 170.302083 158.802083 Z M 155.302083 153.098958 " transform="matrix(0.75,0,0,0.75,0,0)"/>
<path style="fill-rule:evenodd;fill:rgb(100%,0%,0%);fill-opacity:1;stroke-width:1;stroke-linecap:butt;stroke-linejoin:miter;stroke:rgb(100%,0%,0%);stroke-opacity:1;stroke-miterlimit:4;" d="M 171.197917 155 L 185.302083 164.5 L 187.098958 156.901042 Z M 171.197917 155 " transform="matrix(0.75,0,0,0.75,0,0)"/>
<path style="fill-rule:evenodd;fill:rgb(100%,0%,0%);fill-opacity:1;stroke-width:1;stroke-linecap:butt;stroke-linejoin:miter;stroke:rgb(100%,0%,0%);stroke-opacity:1;stroke-miterlimit:4;" d="M 171.197917 155 L 170.302083 158.802083 L 185.302083 164.5 Z M 171.197917 155 " transform="matrix(0.75,0,0,0.75,0,0)"/>
<path style="fill:none;stroke-width:2;stroke-linecap:butt;stroke-linejoin:miter;stroke:rgb(0%,0%,0%);stroke-opacity:1;stroke-miterlimit:4;" d="M 155.302083 153.098958 L 150.802083 137.5 " transform="matrix(0.75,0,0,0.75,0,0)"/>
<path style="fill:none;stroke-width:2;stroke-linecap:butt;stroke-linejoin:miter;stroke:rgb(100%,0%,0%);stroke-opacity:1;stroke-miterlimit:4;" d="M 150.802083 137.5 L 146.302083 122 " transform="matrix(0.75,0,0,0.75,0,0)"/>
<path style="fill:none;stroke-width:2;stroke-linecap:butt;stroke-linejoin:miter;stroke:rgb(100%,0%,0%);stroke-opacity:1;stroke-miterlimit:4;" d="M 137.802083 113.197917 L 121.697917 109.197917 " transform="matrix(0.75,0,0,0.75,0,0)"/>
<path style="fill:none;stroke-width:2;stroke-linecap:butt;stroke-linejoin:miter;stroke:rgb(0%,0%,0%);stroke-opacity:1;stroke-miterlimit:4;" d="M 121.697917 109.197917 L 105.598958 105.197917 " transform="matrix(0.75,0,0,0.75,0,0)"/>
<path style="fill-rule:evenodd;fill:rgb(0%,0%,0%);fill-opacity:1;stroke-width:1;stroke-linecap:butt;stroke-linejoin:miter;stroke:rgb(0%,0%,0%);stroke-opacity:1;stroke-miterlimit:4;" d="M 105.598958 105.197917 L 90.802083 68 L 98.302083 65.901042 Z M 105.598958 105.197917 " transform="matrix(0.75,0,0,0.75,0,0)"/>
<path style="fill:none;stroke-width:2;stroke-linecap:butt;stroke-linejoin:miter;stroke:rgb(0%,0%,0%);stroke-opacity:1;stroke-miterlimit:4;" d="M 105.598958 105.197917 L 78 133.901042 " transform="matrix(0.75,0,0,0.75,0,0)"/>
<path style="fill:none;stroke-width:2;stroke-linecap:butt;stroke-linejoin:miter;stroke:rgb(0%,0%,0%);stroke-opacity:1;stroke-miterlimit:4;" d="M 78 133.901042 L 89 172.197917 " transform="matrix(0.75,0,0,0.75,0,0)"/>
<path style="fill-rule:evenodd;fill:rgb(0%,0%,0%);fill-opacity:1;stroke-width:1;stroke-linecap:butt;stroke-linejoin:miter;stroke:rgb(0%,0%,0%);stroke-opacity:1;stroke-miterlimit:4;" d="M 89 172.197917 L 80 184.302083 L 77.197917 181.598958 Z M 89 172.197917 " transform="matrix(0.75,0,0,0.75,0,0)"/>
<path style="fill-rule:evenodd;fill:rgb(0%,0%,100%);fill-opacity:1;stroke-width:1;stroke-linecap:butt;stroke-linejoin:miter;stroke:rgb(0%,0%,100%);stroke-opacity:1;stroke-miterlimit:4;" d="M 80 184.302083 L 65.401042 191.098958 L 71.098958 196.5 Z M 80 184.302083 " transform="matrix(0.75,0,0,0.75,0,0)"/>
<path style="fill-rule:evenodd;fill:rgb(0%,0%,100%);fill-opacity:1;stroke-width:1;stroke-linecap:butt;stroke-linejoin:miter;stroke:rgb(0%,0%,100%);stroke-opacity:1;stroke-miterlimit:4;" d="M 80 184.302083 L 77.197917 181.598958 L 65.401042 191.098958 Z M 80 184.302083 " transform="matrix(0.75,0,0,0.75,0,0)"/>
<path style="fill:none;stroke-width:2;stroke-linecap:butt;stroke-linejoin:miter;stroke:rgb(0%,0%,100%);stroke-opacity:1;stroke-miterlimit:4;" d="M 55.802083 199.5 L 39.302083 195.401042 " transform="matrix(0.75,0,0,0.75,0,0)"/>
<path style="fill:none;stroke-width:2;stroke-linecap:butt;stroke-linejoin:miter;stroke:rgb(0%,0%,0%);stroke-opacity:1;stroke-miterlimit:4;" d="M 39.302083 195.401042 L 22.697917 191.302083 " transform="matrix(0.75,0,0,0.75,0,0)"/>
<path style="fill:none;stroke-width:2;stroke-linecap:butt;stroke-linejoin:miter;stroke:rgb(0%,0%,100%);stroke-opacity:1;stroke-miterlimit:4;" d="M 63.401042 207.802083 L 67.901042 223.5 " transform="matrix(0.75,0,0,0.75,0,0)"/>
<path style="fill:none;stroke-width:2;stroke-linecap:butt;stroke-linejoin:miter;stroke:rgb(0%,0%,0%);stroke-opacity:1;stroke-miterlimit:4;" d="M 67.901042 223.5 L 72.401042 239.197917 " transform="matrix(0.75,0,0,0.75,0,0)"/>
<path style="fill:none;stroke-width:2;stroke-linecap:butt;stroke-linejoin:miter;stroke:rgb(0%,0%,0%);stroke-opacity:1;stroke-miterlimit:4;" d="M 89 172.197917 L 127.697917 181.802083 " transform="matrix(0.75,0,0,0.75,0,0)"/>
<path style="fill:none;stroke-width:1;stroke-linecap:butt;stroke-linejoin:miter;stroke:rgb(0%,0%,0%);stroke-opacity:1;stroke-miterlimit:4;" d="M 127.098958 186.197917 L 129.598958 185.802083 " transform="matrix(0.75,0,0,0.75,0,0)"/>
<path style="fill:none;stroke-width:1;stroke-linecap:butt;stroke-linejoin:miter;stroke:rgb(100%,0%,0%);stroke-opacity:1;stroke-miterlimit:4;" d="M 126.5 190.598958 L 131.598958 189.802083 " transform="matrix(0.75,0,0,0.75,0,0)"/>
<path style="fill:none;stroke-width:1;stroke-linecap:butt;stroke-linejoin:miter;stroke:rgb(100%,0%,0%);stroke-opacity:1;stroke-miterlimit:4;" d="M 125.802083 195 L 133.598958 193.802083 " transform="matrix(0.75,0,0,0.75,0,0)"/>
<path style="fill:none;stroke-width:2;stroke-linecap:butt;stroke-linejoin:miter;stroke:rgb(0%,0%,0%);stroke-opacity:1;stroke-miterlimit:4;" d="M 205 200.901042 L 169.901042 219.697917 " transform="matrix(0.75,0,0,0.75,0,0)"/>
<path style="fill:none;stroke-width:1;stroke-linecap:butt;stroke-linejoin:miter;stroke:rgb(0%,0%,0%);stroke-opacity:1;stroke-miterlimit:4;" d="M 164.802083 217.901042 L 164.5 219.802083 " transform="matrix(0.75,0,0,0.75,0,0)"/>
<path style="fill:none;stroke-width:1;stroke-linecap:butt;stroke-linejoin:miter;stroke:rgb(0%,0%,0%);stroke-opacity:1;stroke-miterlimit:4;" d="M 159.697917 216.098958 L 159.098958 220 " transform="matrix(0.75,0,0,0.75,0,0)"/>
<path style="fill:none;stroke-width:1;stroke-linecap:butt;stroke-linejoin:miter;stroke:rgb(0%,0%,0%);stroke-opacity:1;stroke-miterlimit:4;" d="M 154.598958 214.302083 L 153.697917 220.098958 " transform="matrix(0.75,0,0,0.75,0,0)"/>
<path style="fill:none;stroke-width:1;stroke-linecap:butt;stroke-linejoin:miter;stroke:rgb(0%,0%,0%);stroke-opacity:1;stroke-miterlimit:4;" d="M 149.598958 212.5 L 148.302083 220.302083 " transform="matrix(0.75,0,0,0.75,0,0)"/>
<path style="fill:none;stroke-width:2;stroke-linecap:butt;stroke-linejoin:miter;stroke:rgb(0%,0%,0%);stroke-opacity:1;stroke-miterlimit:4;" d="M 169.901042 219.697917 L 168.098958 203.5 " transform="matrix(0.75,0,0,0.75,0,0)"/>
<path style="fill:none;stroke-width:2;stroke-linecap:butt;stroke-linejoin:miter;stroke:rgb(100%,0%,0%);stroke-opacity:1;stroke-miterlimit:4;" d="M 168.098958 203.5 L 166.401042 187.197917 " transform="matrix(0.75,0,0,0.75,0,0)"/>
<path style="fill:none;stroke-width:2;stroke-linecap:butt;stroke-linejoin:miter;stroke:rgb(0%,0%,0%);stroke-opacity:1;stroke-miterlimit:4;" d="M 169.901042 219.697917 L 145.401042 251.098958 " transform="matrix(0.75,0,0,0.75,0,0)"/>
<path style="fill:none;stroke-width:2;stroke-linecap:butt;stroke-linejoin:miter;stroke:rgb(0%,0%,0%);stroke-opacity:1;stroke-miterlimit:4;" d="M 145.401042 251.098958 L 135.802083 289.802083 " transform="matrix(0.75,0,0,0.75,0,0)"/>
<path style="fill:none;stroke-width:1;stroke-linecap:butt;stroke-linejoin:miter;stroke:rgb(0%,0%,0%);stroke-opacity:1;stroke-miterlimit:4;" d="M 129.197917 288.901042 L 129.197917 290.197917 " transform="matrix(0.75,0,0,0.75,0,0)"/>
<path style="fill:none;stroke-width:1;stroke-linecap:butt;stroke-linejoin:miter;stroke:rgb(0%,0%,0%);stroke-opacity:1;stroke-miterlimit:4;" d="M 122.598958 288 L 122.5 290.598958 " transform="matrix(0.75,0,0,0.75,0,0)"/>
<path style="fill:none;stroke-width:1;stroke-linecap:butt;stroke-linejoin:miter;stroke:rgb(0%,0%,0%);stroke-opacity:1;stroke-miterlimit:4;" d="M 116 287.197917 L 115.802083 291.098958 " transform="matrix(0.75,0,0,0.75,0,0)"/>
<path style="fill:none;stroke-width:1;stroke-linecap:butt;stroke-linejoin:miter;stroke:rgb(0%,0%,0%);stroke-opacity:1;stroke-miterlimit:4;" d="M 109.401042 286.302083 L 109.197917 291.5 " transform="matrix(0.75,0,0,0.75,0,0)"/>
<path style="fill:none;stroke-width:1;stroke-linecap:butt;stroke-linejoin:miter;stroke:rgb(0%,0%,0%);stroke-opacity:1;stroke-miterlimit:4;" d="M 102.697917 285.401042 L 102.5 291.901042 " transform="matrix(0.75,0,0,0.75,0,0)"/>
<path style="fill:none;stroke-width:1;stroke-linecap:butt;stroke-linejoin:miter;stroke:rgb(0%,0%,0%);stroke-opacity:1;stroke-miterlimit:4;" d="M 96.098958 284.5 L 95.901042 292.302083 " transform="matrix(0.75,0,0,0.75,0,0)"/>
<path style="fill:none;stroke-width:2;stroke-linecap:butt;stroke-linejoin:miter;stroke:rgb(0%,0%,0%);stroke-opacity:1;stroke-miterlimit:4;" d="M 135.802083 289.802083 L 142.802083 329 " transform="matrix(0.75,0,0,0.75,0,0)"/>
<path style="fill:none;stroke-width:2;stroke-linecap:butt;stroke-linejoin:miter;stroke:rgb(0%,0%,0%);stroke-opacity:1;stroke-miterlimit:4;" d="M 142.802083 329 L 151.598958 342 " transform="matrix(0.75,0,0,0.75,0,0)"/>
<path style="fill:none;stroke-width:2;stroke-linecap:butt;stroke-linejoin:miter;stroke:rgb(0%,0%,100%);stroke-opacity:1;stroke-miterlimit:4;" d="M 151.598958 342 L 160.401042 355 " transform="matrix(0.75,0,0,0.75,0,0)"/>
<path style="fill:none;stroke-width:2;stroke-linecap:butt;stroke-linejoin:miter;stroke:rgb(0%,0%,100%);stroke-opacity:1;stroke-miterlimit:4;" d="M 159.5 367.802083 L 148.5 379.197917 " transform="matrix(0.75,0,0,0.75,0,0)"/>
<path style="fill:none;stroke-width:2;stroke-linecap:butt;stroke-linejoin:miter;stroke:rgb(0%,0%,0%);stroke-opacity:1;stroke-miterlimit:4;" d="M 148.5 379.197917 L 137.5 390.697917 " transform="matrix(0.75,0,0,0.75,0,0)"/>
<path style="fill:none;stroke-width:2;stroke-linecap:butt;stroke-linejoin:miter;stroke:rgb(0%,0%,100%);stroke-opacity:1;stroke-miterlimit:4;" d="M 170.697917 365.401042 L 184.802083 374.197917 " transform="matrix(0.75,0,0,0.75,0,0)"/>
<path style="fill:none;stroke-width:2;stroke-linecap:butt;stroke-linejoin:miter;stroke:rgb(0%,0%,0%);stroke-opacity:1;stroke-miterlimit:4;" d="M 184.802083 374.197917 L 198.901042 383 " transform="matrix(0.75,0,0,0.75,0,0)"/>
<path style="fill-rule:evenodd;fill:rgb(0%,0%,0%);fill-opacity:1;stroke-width:1;stroke-linecap:butt;stroke-linejoin:miter;stroke:rgb(0%,0%,0%);stroke-opacity:1;stroke-miterlimit:4;" d="M 198.901042 383 L 189 421.802083 L 181.697917 419.098958 Z M 198.901042 383 " transform="matrix(0.75,0,0,0.75,0,0)"/>
<path style="fill:none;stroke-width:2;stroke-linecap:butt;stroke-linejoin:miter;stroke:rgb(0%,0%,0%);stroke-opacity:1;stroke-miterlimit:4;" d="M 198.901042 383 L 238.401042 388.5 " transform="matrix(0.75,0,0,0.75,0,0)"/>
<path style="fill:none;stroke-width:1;stroke-linecap:butt;stroke-linejoin:miter;stroke:rgb(0%,0%,0%);stroke-opacity:1;stroke-miterlimit:4;" d="M 238.098958 393.802083 L 239.401042 393.697917 " transform="matrix(0.75,0,0,0.75,0,0)"/>
<path style="fill:none;stroke-width:1;stroke-linecap:butt;stroke-linejoin:miter;stroke:rgb(0%,0%,0%);stroke-opacity:1;stroke-miterlimit:4;" d="M 237.802083 399.098958 L 240.401042 398.901042 " transform="matrix(0.75,0,0,0.75,0,0)"/>
<path style="fill:none;stroke-width:1;stroke-linecap:butt;stroke-linejoin:miter;stroke:rgb(0%,0%,0%);stroke-opacity:1;stroke-miterlimit:4;" d="M 237.598958 404.401042 L 241.5 404.098958 " transform="matrix(0.75,0,0,0.75,0,0)"/>
<path style="fill:none;stroke-width:1;stroke-linecap:butt;stroke-linejoin:miter;stroke:rgb(100%,0%,0%);stroke-opacity:1;stroke-miterlimit:4;" d="M 237.302083 409.697917 L 242.5 409.302083 " transform="matrix(0.75,0,0,0.75,0,0)"/>
<path style="fill:none;stroke-width:1;stroke-linecap:butt;stroke-linejoin:miter;stroke:rgb(100%,0%,0%);stroke-opacity:1;stroke-miterlimit:4;" d="M 237 414.901042 L 243.5 414.5 " transform="matrix(0.75,0,0,0.75,0,0)"/>
<path style="fill:none;stroke-width:1;stroke-linecap:butt;stroke-linejoin:miter;stroke:rgb(100%,0%,0%);stroke-opacity:1;stroke-miterlimit:4;" d="M 236.697917 420.197917 L 244.5 419.697917 " transform="matrix(0.75,0,0,0.75,0,0)"/>
<path style="fill:none;stroke-width:2;stroke-linecap:butt;stroke-linejoin:miter;stroke:rgb(0%,0%,0%);stroke-opacity:1;stroke-miterlimit:4;" d="M 238.401042 388.5 L 276.598958 377.5 " transform="matrix(0.75,0,0,0.75,0,0)"/>
<path style="fill:none;stroke-width:1;stroke-linecap:butt;stroke-linejoin:miter;stroke:rgb(0%,0%,0%);stroke-opacity:1;stroke-miterlimit:4;" d="M 282.197917 381.197917 L 282.802083 380 " transform="matrix(0.75,0,0,0.75,0,0)"/>
<path style="fill:none;stroke-width:1;stroke-linecap:butt;stroke-linejoin:miter;stroke:rgb(0%,0%,0%);stroke-opacity:1;stroke-miterlimit:4;" d="M 287.802083 384.802083 L 289 382.5 " transform="matrix(0.75,0,0,0.75,0,0)"/>
<path style="fill:none;stroke-width:1;stroke-linecap:butt;stroke-linejoin:miter;stroke:rgb(0%,0%,0%);stroke-opacity:1;stroke-miterlimit:4;" d="M 293.302083 388.5 L 295.197917 385.098958 " transform="matrix(0.75,0,0,0.75,0,0)"/>
<path style="fill:none;stroke-width:1;stroke-linecap:butt;stroke-linejoin:miter;stroke:rgb(0%,0%,0%);stroke-opacity:1;stroke-miterlimit:4;" d="M 298.901042 392.197917 L 301.302083 387.598958 " transform="matrix(0.75,0,0,0.75,0,0)"/>
<path style="fill:none;stroke-width:1;stroke-linecap:butt;stroke-linejoin:miter;stroke:rgb(0%,0%,0%);stroke-opacity:1;stroke-miterlimit:4;" d="M 304.5 395.901042 L 307.5 390.098958 " transform="matrix(0.75,0,0,0.75,0,0)"/>
<path style="fill:none;stroke-width:1;stroke-linecap:butt;stroke-linejoin:miter;stroke:rgb(0%,0%,0%);stroke-opacity:1;stroke-miterlimit:4;" d="M 310 399.598958 L 313.697917 392.697917 " transform="matrix(0.75,0,0,0.75,0,0)"/>
<path style="fill:none;stroke-width:2;stroke-linecap:butt;stroke-linejoin:miter;stroke:rgb(0%,0%,0%);stroke-opacity:1;stroke-miterlimit:4;" d="M 276.598958 377.5 L 275 393.802083 " transform="matrix(0.75,0,0,0.75,0,0)"/>
<path style="fill:none;stroke-width:2;stroke-linecap:butt;stroke-linejoin:miter;stroke:rgb(100%,0%,0%);stroke-opacity:1;stroke-miterlimit:4;" d="M 275 393.802083 L 273.302083 410.098958 " transform="matrix(0.75,0,0,0.75,0,0)"/>
<path style="fill:none;stroke-width:2;stroke-linecap:butt;stroke-linejoin:miter;stroke:rgb(0%,0%,0%);stroke-opacity:1;stroke-miterlimit:4;" d="M 276.598958 377.5 L 307.098958 351.802083 " transform="matrix(0.75,0,0,0.75,0,0)"/>
<path style="fill:none;stroke-width:2;stroke-linecap:butt;stroke-linejoin:miter;stroke:rgb(100%,0%,0%);stroke-opacity:1;stroke-miterlimit:4;" d="M 358.098958 207.302083 L 350.598958 193.197917 " transform="matrix(0.75,0,0,0.75,0,0)"/>
<path style="fill:none;stroke-width:2;stroke-linecap:butt;stroke-linejoin:miter;stroke:rgb(0%,0%,0%);stroke-opacity:1;stroke-miterlimit:4;" d="M 350.598958 193.197917 L 343 179.197917 " transform="matrix(0.75,0,0,0.75,0,0)"/>
<path style="fill:none;stroke-width:2;stroke-linecap:butt;stroke-linejoin:miter;stroke:rgb(0%,0%,0%);stroke-opacity:1;stroke-miterlimit:4;" d="M 127.697917 181.802083 L 155.302083 153.098958 " transform="matrix(0.75,0,0,0.75,0,0)"/>
<path style=" stroke:none;fill-rule:nonzero;fill:rgb(100%,0%,0%);fill-opacity:1;" d="M 239.476562 237 C 239.476562 235.648438 239.824219 234.601562 240.523438 233.851562 C 241.175781 233.101562 242.125 232.726562 243.375 232.726562 C 244.625 232.726562 245.601562 233.101562 246.300781 233.851562 C 246.949219 234.601562 247.273438 235.648438 247.273438 237 C 247.273438 238.398438 246.949219 239.476562 246.300781 240.226562 C 245.601562 241.023438 244.625 241.425781 243.375 241.425781 C 242.125 241.425781 241.175781 241.023438 240.523438 240.226562 C 239.824219 239.476562 239.476562 238.398438 239.476562 237 M 243.375 240.449219 C 244.226562 240.449219 244.898438 240.175781 245.398438 239.625 C 245.851562 239.023438 246.074219 238.148438 246.074219 237 C 246.074219 235.898438 245.851562 235.074219 245.398438 234.523438 C 244.898438 233.976562 244.226562 233.699219 243.375 233.699219 C 242.523438 233.699219 241.875 233.976562 241.425781 234.523438 C 240.925781 235.074219 240.675781 235.898438 240.675781 237 C 240.675781 238.148438 240.925781 239.023438 241.425781 239.625 C 241.875 240.175781 242.523438 240.449219 243.375 240.449219 "/>
<path style=" stroke:none;fill-rule:nonzero;fill:rgb(100%,0%,0%);fill-opacity:1;" d="M 269.925781 201.898438 C 269.925781 200.550781 270.25 199.5 270.898438 198.75 C 271.601562 198 272.574219 197.625 273.824219 197.625 C 275.074219 197.625 276.023438 198 276.675781 198.75 C 277.324219 199.5 277.648438 200.550781 277.648438 201.898438 C 277.648438 203.300781 277.324219 204.375 276.675781 205.125 C 275.976562 205.925781 275.023438 206.324219 273.824219 206.324219 C 272.574219 206.324219 271.601562 205.925781 270.898438 205.125 C 270.25 204.375 269.925781 203.300781 269.925781 201.898438 M 273.824219 205.351562 C 274.675781 205.351562 275.324219 205.074219 275.773438 204.523438 C 276.273438 203.925781 276.523438 203.050781 276.523438 201.898438 C 276.523438 200.800781 276.273438 199.976562 275.773438 199.425781 C 275.324219 198.875 274.675781 198.601562 273.824219 198.601562 C 272.925781 198.601562 272.25 198.875 271.800781 199.425781 C 271.351562 199.976562 271.125 200.800781 271.125 201.898438 C 271.125 203.050781 271.351562 203.925781 271.800781 204.523438 C 272.25 205.074219 272.925781 205.351562 273.824219 205.351562 "/>
<path style=" stroke:none;fill-rule:nonzero;fill:rgb(100%,0%,0%);fill-opacity:1;" d="M 223.574219 133.425781 C 223.574219 132.074219 223.898438 131.023438 224.550781 130.273438 C 225.199219 129.476562 226.148438 129.074219 227.398438 129.074219 C 228.648438 129.074219 229.625 129.476562 230.324219 130.273438 C 230.976562 131.023438 231.300781 132.074219 231.300781 133.425781 C 231.300781 134.773438 230.976562 135.851562 230.324219 136.648438 C 229.625 137.398438 228.648438 137.773438 227.398438 137.773438 C 226.199219 137.773438 225.25 137.398438 224.550781 136.648438 C 223.898438 135.851562 223.574219 134.773438 223.574219 133.425781 M 227.398438 136.800781 C 228.300781 136.800781 228.976562 136.523438 229.425781 135.976562 C 229.875 135.375 230.101562 134.523438 230.101562 133.425781 C 230.101562 132.324219 229.875 131.476562 229.425781 130.875 C 228.976562 130.324219 228.300781 130.050781 227.398438 130.050781 C 226.550781 130.050781 225.898438 130.324219 225.449219 130.875 C 225 131.425781 224.773438 132.273438 224.773438 133.425781 C 224.773438 134.574219 225 135.425781 225.449219 135.976562 C 225.898438 136.523438 226.550781 136.800781 227.398438 136.800781 "/>
<path style=" stroke:none;fill-rule:nonzero;fill:rgb(100%,0%,0%);fill-opacity:1;" d="M 294.824219 80.476562 C 294.824219 79.125 295.175781 78.074219 295.875 77.324219 C 296.523438 76.523438 297.476562 76.125 298.726562 76.125 C 299.976562 76.125 300.925781 76.523438 301.574219 77.324219 C 302.273438 78.074219 302.625 79.125 302.625 80.476562 C 302.625 81.824219 302.273438 82.898438 301.574219 83.699219 C 300.925781 84.449219 299.976562 84.824219 298.726562 84.824219 C 297.476562 84.824219 296.523438 84.449219 295.875 83.699219 C 295.175781 82.898438 294.824219 81.824219 294.824219 80.476562 M 298.726562 83.925781 C 299.574219 83.925781 300.226562 83.625 300.675781 83.023438 C 301.175781 82.425781 301.425781 81.574219 301.425781 80.476562 C 301.425781 79.375 301.175781 78.550781 300.675781 78 C 300.226562 77.398438 299.574219 77.101562 298.726562 77.101562 C 297.875 77.101562 297.199219 77.375 296.699219 77.925781 C 296.25 78.523438 296.023438 79.375 296.023438 80.476562 C 296.023438 81.625 296.25 82.476562 296.699219 83.023438 C 297.199219 83.625 297.875 83.925781 298.726562 83.925781 "/>
<path style=" stroke:none;fill-rule:nonzero;fill:rgb(100%,0%,0%);fill-opacity:1;" d="M 342.976562 137.398438 C 342.976562 136.050781 343.300781 135 343.949219 134.25 C 344.648438 133.5 345.625 133.125 346.875 133.125 C 348.125 133.125 349.074219 133.5 349.726562 134.25 C 350.375 135 350.699219 136.050781 350.699219 137.398438 C 350.699219 138.75 350.375 139.824219 349.726562 140.625 C 349.023438 141.375 348.074219 141.75 346.875 141.75 C 345.625 141.75 344.648438 141.375 343.949219 140.625 C 343.300781 139.824219 342.976562 138.75 342.976562 137.398438 M 346.875 140.851562 C 347.726562 140.851562 348.375 140.550781 348.824219 139.949219 C 349.324219 139.351562 349.574219 138.5 349.574219 137.398438 C 349.574219 136.300781 349.324219 135.476562 348.824219 134.925781 C 348.375 134.324219 347.726562 134.023438 346.875 134.023438 C 346.023438 134.023438 345.351562 134.300781 344.851562 134.851562 C 344.398438 135.449219 344.175781 136.300781 344.175781 137.398438 C 344.175781 138.550781 344.398438 139.398438 344.851562 139.949219 C 345.351562 140.550781 346.023438 140.851562 346.875 140.851562 "/>
<path style=" stroke:none;fill-rule:nonzero;fill:rgb(100%,0%,0%);fill-opacity:1;" d="M 351.300781 133.199219 L 352.5 133.199219 L 352.5 136.800781 L 356.773438 136.800781 L 356.773438 133.199219 L 357.976562 133.199219 L 357.976562 141.675781 L 356.773438 141.675781 L 356.773438 137.699219 L 352.5 137.699219 L 352.5 141.675781 L 351.300781 141.675781 L 351.300781 133.199219 "/>
<path style=" stroke:none;fill-rule:nonzero;fill:rgb(100%,0%,0%);fill-opacity:1;" d="M 267.449219 160.726562 C 267.449219 159.375 267.800781 158.324219 268.5 157.574219 C 269.148438 156.824219 270.101562 156.449219 271.351562 156.449219 C 272.601562 156.449219 273.550781 156.824219 274.199219 157.574219 C 274.898438 158.324219 275.25 159.375 275.25 160.726562 C 275.25 162.125 274.898438 163.199219 274.199219 163.949219 C 273.550781 164.75 272.601562 165.148438 271.351562 165.148438 C 270.101562 165.148438 269.148438 164.75 268.5 163.949219 C 267.800781 163.199219 267.449219 162.125 267.449219 160.726562 M 271.351562 164.175781 C 272.199219 164.175781 272.851562 163.898438 273.300781 163.351562 C 273.800781 162.75 274.050781 161.875 274.050781 160.726562 C 274.050781 159.625 273.800781 158.800781 273.300781 158.25 C 272.851562 157.699219 272.199219 157.425781 271.351562 157.425781 C 270.5 157.425781 269.824219 157.699219 269.324219 158.25 C 268.875 158.800781 268.648438 159.625 268.648438 160.726562 C 268.648438 161.875 268.875 162.75 269.324219 163.351562 C 269.824219 163.898438 270.5 164.175781 271.351562 164.175781 "/>
<path style=" stroke:none;fill-rule:nonzero;fill:rgb(100%,0%,0%);fill-opacity:1;" d="M 141.601562 122.023438 C 141.601562 120.675781 141.925781 119.625 142.574219 118.875 C 143.273438 118.125 144.25 117.75 145.5 117.75 C 146.75 117.75 147.699219 118.125 148.351562 118.875 C 149 119.625 149.324219 120.675781 149.324219 122.023438 C 149.324219 123.375 149 124.449219 148.351562 125.25 C 147.648438 126 146.699219 126.375 145.5 126.375 C 144.25 126.375 143.273438 126 142.574219 125.25 C 141.925781 124.449219 141.601562 123.375 141.601562 122.023438 M 145.5 125.476562 C 146.351562 125.476562 147 125.175781 147.449219 124.574219 C 147.898438 124.023438 148.125 123.175781 148.125 122.023438 C 148.125 120.925781 147.898438 120.101562 147.449219 119.550781 C 147 118.949219 146.351562 118.648438 145.5 118.648438 C 144.601562 118.648438 143.925781 118.925781 143.476562 119.476562 C 143.023438 120.074219 142.800781 120.925781 142.800781 122.023438 C 142.800781 123.175781 143.023438 124.023438 143.476562 124.574219 C 143.925781 125.175781 144.601562 125.476562 145.5 125.476562 "/>
<path style=" stroke:none;fill-rule:nonzero;fill:rgb(100%,0%,0%);fill-opacity:1;" d="M 104.324219 86.101562 C 104.324219 84.75 104.648438 83.699219 105.300781 82.949219 C 106 82.199219 106.976562 81.824219 108.226562 81.824219 C 109.476562 81.824219 110.425781 82.199219 111.074219 82.949219 C 111.726562 83.699219 112.050781 84.75 112.050781 86.101562 C 112.050781 87.5 111.726562 88.574219 111.074219 89.324219 C 110.375 90.125 109.425781 90.523438 108.226562 90.523438 C 106.976562 90.523438 106 90.125 105.300781 89.324219 C 104.648438 88.574219 104.324219 87.5 104.324219 86.101562 M 108.226562 89.550781 C 109.074219 89.550781 109.726562 89.273438 110.175781 88.726562 C 110.625 88.125 110.851562 87.25 110.851562 86.101562 C 110.851562 85 110.625 84.175781 110.175781 83.625 C 109.726562 83.074219 109.074219 82.800781 108.226562 82.800781 C 107.324219 82.800781 106.648438 83.074219 106.199219 83.625 C 105.75 84.175781 105.523438 85 105.523438 86.101562 C 105.523438 87.25 105.75 88.125 106.199219 88.726562 C 106.648438 89.273438 107.324219 89.550781 108.226562 89.550781 "/>
<path style=" stroke:none;fill-rule:nonzero;fill:rgb(0%,0%,100%);fill-opacity:1;" d="M 44.175781 146.476562 L 46.949219 150.898438 C 47.148438 151.199219 47.375 151.625 47.625 152.175781 C 47.925781 152.726562 48.101562 153 48.148438 153 L 48.148438 146.476562 L 49.273438 146.476562 L 49.273438 154.875 L 48.074219 154.875 L 45.148438 150 C 44.898438 149.601562 44.648438 149.199219 44.398438 148.800781 C 44.148438 148.351562 44 148.050781 43.949219 147.898438 L 43.949219 154.875 L 42.824219 154.875 L 42.824219 146.476562 L 44.175781 146.476562 "/>
<path style=" stroke:none;fill-rule:nonzero;fill:rgb(100%,0%,0%);fill-opacity:1;" d="M 94.351562 152.023438 C 94.351562 150.675781 94.699219 149.625 95.398438 148.875 C 96.050781 148.125 97 147.75 98.25 147.75 C 99.5 147.75 100.476562 148.125 101.175781 148.875 C 101.824219 149.625 102.148438 150.675781 102.148438 152.023438 C 102.148438 153.425781 101.800781 154.5 101.101562 155.25 C 100.449219 156.050781 99.5 156.449219 98.25 156.449219 C 97 156.449219 96.050781 156.050781 95.398438 155.25 C 94.699219 154.5 94.351562 153.425781 94.351562 152.023438 M 98.25 155.476562 C 99.101562 155.476562 99.773438 155.175781 100.273438 154.574219 C 100.726562 154.023438 100.949219 153.175781 100.949219 152.023438 C 100.949219 150.925781 100.726562 150.101562 100.273438 149.550781 C 99.773438 149 99.101562 148.726562 98.25 148.726562 C 97.398438 148.726562 96.75 149 96.300781 149.550781 C 95.800781 150.101562 95.550781 150.925781 95.550781 152.023438 C 95.550781 153.175781 95.800781 154.023438 96.300781 154.574219 C 96.75 155.175781 97.398438 155.476562 98.25 155.476562 "/>
<path style=" stroke:none;fill-rule:nonzero;fill:rgb(100%,0%,0%);fill-opacity:1;" d="M 102.75 147.824219 L 103.875 147.824219 L 103.875 151.425781 L 108.226562 151.425781 L 108.226562 147.824219 L 109.351562 147.824219 L 109.351562 156.300781 L 108.226562 156.300781 L 108.226562 152.398438 L 103.875 152.398438 L 103.875 156.300781 L 102.75 156.300781 L 102.75 147.824219 "/>
<path style=" stroke:none;fill-rule:nonzero;fill:rgb(100%,0%,0%);fill-opacity:1;" d="M 120.375 135.074219 C 120.375 133.726562 120.699219 132.675781 121.351562 131.925781 C 122 131.175781 122.949219 130.800781 124.199219 130.800781 C 125.449219 130.800781 126.425781 131.175781 127.125 131.925781 C 127.773438 132.675781 128.101562 133.726562 128.101562 135.074219 C 128.101562 136.425781 127.773438 137.5 127.125 138.300781 C 126.425781 139.101562 125.449219 139.5 124.199219 139.5 C 123 139.5 122.050781 139.101562 121.351562 138.300781 C 120.699219 137.550781 120.375 136.476562 120.375 135.074219 M 124.199219 138.523438 C 125.101562 138.523438 125.773438 138.226562 126.226562 137.625 C 126.675781 137.074219 126.898438 136.226562 126.898438 135.074219 C 126.898438 133.976562 126.675781 133.148438 126.226562 132.601562 C 125.773438 132 125.101562 131.699219 124.199219 131.699219 C 123.351562 131.699219 122.699219 132 122.25 132.601562 C 121.800781 133.148438 121.574219 133.976562 121.574219 135.074219 C 121.574219 136.226562 121.800781 137.074219 122.25 137.625 C 122.699219 138.226562 123.351562 138.523438 124.199219 138.523438 "/>
<path style=" stroke:none;fill-rule:nonzero;fill:rgb(100%,0%,0%);fill-opacity:1;" d="M 128.699219 130.875 L 129.824219 130.875 L 129.824219 134.476562 L 134.175781 134.476562 L 134.175781 130.875 L 135.300781 130.875 L 135.300781 139.351562 L 134.175781 139.351562 L 134.175781 135.449219 L 129.824219 135.449219 L 129.824219 139.351562 L 128.699219 139.351562 L 128.699219 130.875 "/>
<path style=" stroke:none;fill-rule:nonzero;fill:rgb(0%,0%,100%);fill-opacity:1;" d="M 121.949219 267.226562 L 124.726562 271.726562 C 124.925781 272.023438 125.175781 272.449219 125.476562 273 C 125.773438 273.5 125.925781 273.773438 125.925781 273.824219 L 125.925781 267.226562 L 127.050781 267.226562 L 127.050781 275.699219 L 125.851562 275.699219 L 122.925781 270.824219 C 122.675781 270.425781 122.425781 270 122.175781 269.550781 C 121.925781 269.148438 121.773438 268.875 121.726562 268.726562 L 121.726562 275.699219 L 120.601562 275.699219 L 120.601562 267.226562 L 121.949219 267.226562 "/>
<path style=" stroke:none;fill-rule:nonzero;fill:rgb(100%,0%,0%);fill-opacity:1;" d="M 177 321.226562 C 177 319.875 177.351562 318.800781 178.050781 318 C 178.699219 317.25 179.648438 316.875 180.898438 316.875 C 182.148438 316.875 183.125 317.25 183.824219 318 C 184.476562 318.800781 184.800781 319.875 184.800781 321.226562 C 184.800781 322.574219 184.449219 323.648438 183.75 324.449219 C 183.101562 325.199219 182.148438 325.574219 180.898438 325.574219 C 179.648438 325.574219 178.699219 325.199219 178.050781 324.449219 C 177.351562 323.648438 177 322.574219 177 321.226562 M 180.898438 324.601562 C 181.75 324.601562 182.425781 324.324219 182.925781 323.773438 C 183.375 323.175781 183.601562 322.324219 183.601562 321.226562 C 183.601562 320.125 183.375 319.273438 182.925781 318.675781 C 182.425781 318.125 181.75 317.851562 180.898438 317.851562 C 180.050781 317.851562 179.398438 318.125 178.949219 318.675781 C 178.449219 319.226562 178.199219 320.074219 178.199219 321.226562 C 178.199219 322.324219 178.449219 323.175781 178.949219 323.773438 C 179.398438 324.324219 180.050781 324.601562 180.898438 324.601562 "/>
<path style=" stroke:none;fill-rule:nonzero;fill:rgb(100%,0%,0%);fill-opacity:1;" d="M 185.398438 317.023438 L 186.523438 317.023438 L 186.523438 320.625 L 190.875 320.625 L 190.875 317.023438 L 192 317.023438 L 192 325.425781 L 190.875 325.425781 L 190.875 321.523438 L 186.523438 321.523438 L 186.523438 325.425781 L 185.398438 325.425781 L 185.398438 317.023438 "/>
<path style=" stroke:none;fill-rule:nonzero;fill:rgb(100%,0%,0%);fill-opacity:1;" d="M 200.550781 312.824219 C 200.550781 311.476562 200.875 310.425781 201.523438 309.675781 C 202.175781 308.925781 203.125 308.550781 204.375 308.550781 C 205.625 308.550781 206.601562 308.925781 207.300781 309.675781 C 207.949219 310.425781 208.273438 311.476562 208.273438 312.824219 C 208.273438 314.226562 207.949219 315.300781 207.300781 316.050781 C 206.601562 316.851562 205.625 317.25 204.375 317.25 C 203.175781 317.25 202.226562 316.851562 201.523438 316.050781 C 200.875 315.300781 200.550781 314.226562 200.550781 312.824219 M 204.375 316.273438 C 205.273438 316.273438 205.949219 315.976562 206.398438 315.375 C 206.851562 314.824219 207.074219 313.976562 207.074219 312.824219 C 207.074219 311.726562 206.851562 310.898438 206.398438 310.351562 C 205.949219 309.800781 205.273438 309.523438 204.375 309.523438 C 203.523438 309.523438 202.875 309.800781 202.425781 310.351562 C 201.976562 310.898438 201.75 311.726562 201.75 312.824219 C 201.75 313.976562 201.976562 314.824219 202.425781 315.375 C 202.875 315.976562 203.523438 316.273438 204.375 316.273438 "/>
<path style=" stroke:none;fill-rule:nonzero;fill:rgb(100%,0%,0%);fill-opacity:1;" d="M 208.875 308.625 L 210.074219 308.625 L 210.074219 312.226562 L 214.351562 312.226562 L 214.351562 308.625 L 215.476562 308.625 L 215.476562 317.101562 L 214.351562 317.101562 L 214.351562 313.199219 L 210.074219 313.199219 L 210.074219 317.101562 L 208.875 317.101562 L 208.875 308.625 "/>
</g>
</svg>
