<?xml version="1.0" encoding="UTF-8"?>
<svg xmlns="http://www.w3.org/2000/svg" xmlns:xlink="http://www.w3.org/1999/xlink" width="375pt" height="375pt" viewBox="0 0 375 375" version="1.1">
<g id="surface51">
<rect x="0" y="0" width="375" height="375" style="fill:rgb(100%,100%,100%);fill-opacity:1;stroke:none;"/>
<path style="fill:none;stroke-width:2;stroke-linecap:butt;stroke-linejoin:miter;stroke:rgb(0%,0%,0%);stroke-opacity:1;stroke-miterlimit:4;" d="M 111 312.598958 L 116.098958 270.598958 " transform="matrix(0.75,0,0,0.75,0,0)"/>
<path style="fill:none;stroke-width:2;stroke-linecap:butt;stroke-linejoin:miter;stroke:rgb(0%,0%,0%);stroke-opacity:1;stroke-miterlimit:4;" d="M 116.098958 270.598958 L 73.802083 270 " transform="matrix(0.75,0,0,0.75,0,0)"/>
<path style="fill:none;stroke-width:2;stroke-linecap:butt;stroke-linejoin:miter;stroke:rgb(0%,0%,0%);stroke-opacity:1;stroke-miterlimit:4;" d="M 116.098958 270.598958 L 134.098958 274.697917 " transform="matrix(0.75,0,0,0.75,0,0)"/>
<path style="fill:none;stroke-width:2;stroke-linecap:butt;stroke-linejoin:miter;stroke:rgb(80%,80%,0%);stroke-opacity:1;stroke-miterlimit:4;" d="M 134.098958 274.697917 L 152.098958 278.901042 " transform="matrix(0.75,0,0,0.75,0,0)"/>
<path style="fill:none;stroke-width:2;stroke-linecap:butt;stroke-linejoin:miter;stroke:rgb(80%,80%,0%);stroke-opacity:1;stroke-miterlimit:4;" d="M 161.697917 272.697917 L 170.401042 258.197917 " transform="matrix(0.75,0,0,0.75,0,0)"/>
<path style="fill:none;stroke-width:2;stroke-linecap:butt;stroke-linejoin:miter;stroke:rgb(0%,0%,0%);stroke-opacity:1;stroke-miterlimit:4;" d="M 170.401042 258.197917 L 179.098958 243.697917 " transform="matrix(0.75,0,0,0.75,0,0)"/>
<path style="fill:none;stroke-width:2;stroke-linecap:butt;stroke-linejoin:miter;stroke:rgb(0%,0%,0%);stroke-opacity:1;stroke-miterlimit:4;" d="M 179.098958 243.697917 L 210.901042 215.901042 " transform="matrix(0.75,0,0,0.75,0,0)"/>
<path style="fill-rule:evenodd;fill:rgb(0%,0%,0%);fill-opacity:1;stroke-width:1;stroke-linecap:butt;stroke-linejoin:miter;stroke:rgb(0%,0%,0%);stroke-opacity:1;stroke-miterlimit:4;" d="M 210.901042 215.901042 L 228.5 215 L 228.197917 219.197917 Z M 210.901042 215.901042 " transform="matrix(0.75,0,0,0.75,0,0)"/>
<path style="fill-rule:evenodd;fill:rgb(0%,0%,100%);fill-opacity:1;stroke-width:1;stroke-linecap:butt;stroke-linejoin:miter;stroke:rgb(0%,0%,100%);stroke-opacity:1;stroke-miterlimit:4;" d="M 228.5 215 L 245.5 222.5 L 246.098958 214.098958 Z M 228.5 215 " transform="matrix(0.75,0,0,0.75,0,0)"/>
<path style="fill-rule:evenodd;fill:rgb(0%,0%,100%);fill-opacity:1;stroke-width:1;stroke-linecap:butt;stroke-linejoin:miter;stroke:rgb(0%,0%,100%);stroke-opacity:1;stroke-miterlimit:4;" d="M 228.5 215 L 228.197917 219.197917 L 245.5 222.5 Z M 228.5 215 " transform="matrix(0.75,0,0,0.75,0,0)"/>
<path style="fill:none;stroke-width:2;stroke-linecap:butt;stroke-linejoin:miter;stroke:rgb(0%,0%,100%);stroke-opacity:1;stroke-miterlimit:4;" d="M 256.802083 226.197917 L 264.302083 241.5 " transform="matrix(0.75,0,0,0.75,0,0)"/>
<path style="fill:none;stroke-width:2;stroke-linecap:butt;stroke-linejoin:miter;stroke:rgb(0%,0%,0%);stroke-opacity:1;stroke-miterlimit:4;" d="M 264.302083 241.5 L 271.802083 256.802083 " transform="matrix(0.75,0,0,0.75,0,0)"/>
<path style="fill:none;stroke-width:2;stroke-linecap:butt;stroke-linejoin:miter;stroke:rgb(0%,0%,0%);stroke-opacity:1;stroke-miterlimit:4;" d="M 275.302083 259.098958 L 266 273 " transform="matrix(0.75,0,0,0.75,0,0)"/>
<path style="fill:none;stroke-width:2;stroke-linecap:butt;stroke-linejoin:miter;stroke:rgb(100%,0%,0%);stroke-opacity:1;stroke-miterlimit:4;" d="M 266 273 L 256.697917 286.802083 " transform="matrix(0.75,0,0,0.75,0,0)"/>
<path style="fill:none;stroke-width:2;stroke-linecap:butt;stroke-linejoin:miter;stroke:rgb(0%,0%,0%);stroke-opacity:1;stroke-miterlimit:4;" d="M 268.302083 254.401042 L 259 268.302083 " transform="matrix(0.75,0,0,0.75,0,0)"/>
<path style="fill:none;stroke-width:2;stroke-linecap:butt;stroke-linejoin:miter;stroke:rgb(100%,0%,0%);stroke-opacity:1;stroke-miterlimit:4;" d="M 259 268.302083 L 249.697917 282.098958 " transform="matrix(0.75,0,0,0.75,0,0)"/>
<path style="fill:none;stroke-width:2;stroke-linecap:butt;stroke-linejoin:miter;stroke:rgb(0%,0%,0%);stroke-opacity:1;stroke-miterlimit:4;" d="M 271.802083 256.802083 L 314 259.598958 " transform="matrix(0.75,0,0,0.75,0,0)"/>
<path style="fill:none;stroke-width:1;stroke-linecap:butt;stroke-linejoin:miter;stroke:rgb(0%,0%,0%);stroke-opacity:1;stroke-miterlimit:4;" d="M 317.5 255.598958 L 316.302083 254.901042 " transform="matrix(0.75,0,0,0.75,0,0)"/>
<path style="fill:none;stroke-width:1;stroke-linecap:butt;stroke-linejoin:miter;stroke:rgb(0%,0%,0%);stroke-opacity:1;stroke-miterlimit:4;" d="M 321.098958 251.598958 L 318.697917 250.098958 " transform="matrix(0.75,0,0,0.75,0,0)"/>
<path style="fill:none;stroke-width:1;stroke-linecap:butt;stroke-linejoin:miter;stroke:rgb(0%,0%,0%);stroke-opacity:1;stroke-miterlimit:4;" d="M 324.598958 247.598958 L 321.098958 245.302083 " transform="matrix(0.75,0,0,0.75,0,0)"/>
<path style="fill:none;stroke-width:1;stroke-linecap:butt;stroke-linejoin:miter;stroke:rgb(0%,0%,100%);stroke-opacity:1;stroke-miterlimit:4;" d="M 328.098958 243.598958 L 323.401042 240.5 " transform="matrix(0.75,0,0,0.75,0,0)"/>
<path style="fill:none;stroke-width:1;stroke-linecap:butt;stroke-linejoin:miter;stroke:rgb(0%,0%,100%);stroke-opacity:1;stroke-miterlimit:4;" d="M 331.697917 239.598958 L 325.802083 235.697917 " transform="matrix(0.75,0,0,0.75,0,0)"/>
<path style="fill:none;stroke-width:1;stroke-linecap:butt;stroke-linejoin:miter;stroke:rgb(0%,0%,100%);stroke-opacity:1;stroke-miterlimit:4;" d="M 335.197917 235.697917 L 328.197917 230.901042 " transform="matrix(0.75,0,0,0.75,0,0)"/>
<path style="fill:none;stroke-width:2;stroke-linecap:butt;stroke-linejoin:miter;stroke:rgb(0%,0%,100%);stroke-opacity:1;stroke-miterlimit:4;" d="M 343.5 224.901042 L 361.598958 226.098958 " transform="matrix(0.75,0,0,0.75,0,0)"/>
<path style="fill:none;stroke-width:2;stroke-linecap:butt;stroke-linejoin:miter;stroke:rgb(0%,0%,0%);stroke-opacity:1;stroke-miterlimit:4;" d="M 361.598958 226.098958 L 379.802083 227.401042 " transform="matrix(0.75,0,0,0.75,0,0)"/>
<path style="fill:none;stroke-width:2;stroke-linecap:butt;stroke-linejoin:miter;stroke:rgb(0%,0%,0%);stroke-opacity:1;stroke-miterlimit:4;" d="M 383.598958 225.5 L 391.098958 240.802083 " transform="matrix(0.75,0,0,0.75,0,0)"/>
<path style="fill:none;stroke-width:2;stroke-linecap:butt;stroke-linejoin:miter;stroke:rgb(100%,0%,0%);stroke-opacity:1;stroke-miterlimit:4;" d="M 391.098958 240.802083 L 398.598958 256 " transform="matrix(0.75,0,0,0.75,0,0)"/>
<path style="fill:none;stroke-width:2;stroke-linecap:butt;stroke-linejoin:miter;stroke:rgb(0%,0%,0%);stroke-opacity:1;stroke-miterlimit:4;" d="M 376 229.197917 L 383.5 244.5 " transform="matrix(0.75,0,0,0.75,0,0)"/>
<path style="fill:none;stroke-width:2;stroke-linecap:butt;stroke-linejoin:miter;stroke:rgb(100%,0%,0%);stroke-opacity:1;stroke-miterlimit:4;" d="M 383.5 244.5 L 391 259.802083 " transform="matrix(0.75,0,0,0.75,0,0)"/>
<path style="fill:none;stroke-width:2;stroke-linecap:butt;stroke-linejoin:miter;stroke:rgb(0%,0%,0%);stroke-opacity:1;stroke-miterlimit:4;" d="M 379.802083 227.401042 L 389.098958 213.5 " transform="matrix(0.75,0,0,0.75,0,0)"/>
<path style="fill:none;stroke-width:2;stroke-linecap:butt;stroke-linejoin:miter;stroke:rgb(0%,0%,100%);stroke-opacity:1;stroke-miterlimit:4;" d="M 389.098958 213.5 L 398.401042 199.598958 " transform="matrix(0.75,0,0,0.75,0,0)"/>
<path style="fill:none;stroke-width:2;stroke-linecap:butt;stroke-linejoin:miter;stroke:rgb(0%,0%,100%);stroke-opacity:1;stroke-miterlimit:4;" d="M 400.697917 184.901042 L 394.697917 168.697917 " transform="matrix(0.75,0,0,0.75,0,0)"/>
<path style="fill:none;stroke-width:2;stroke-linecap:butt;stroke-linejoin:miter;stroke:rgb(0%,0%,0%);stroke-opacity:1;stroke-miterlimit:4;" d="M 394.697917 168.697917 L 388.802083 152.5 " transform="matrix(0.75,0,0,0.75,0,0)"/>
<path style="fill:none;stroke-width:2;stroke-linecap:butt;stroke-linejoin:miter;stroke:rgb(0%,0%,0%);stroke-opacity:1;stroke-miterlimit:4;" d="M 388.802083 152.5 L 422.098958 126.401042 " transform="matrix(0.75,0,0,0.75,0,0)"/>
<path style="fill:none;stroke-width:2;stroke-linecap:butt;stroke-linejoin:miter;stroke:rgb(0%,0%,0%);stroke-opacity:1;stroke-miterlimit:4;" d="M 422.098958 126.401042 L 436.697917 136.197917 " transform="matrix(0.75,0,0,0.75,0,0)"/>
<path style="fill:none;stroke-width:2;stroke-linecap:butt;stroke-linejoin:miter;stroke:rgb(0%,0%,100%);stroke-opacity:1;stroke-miterlimit:4;" d="M 436.697917 136.197917 L 451.302083 146 " transform="matrix(0.75,0,0,0.75,0,0)"/>
<path style="fill:none;stroke-width:2;stroke-linecap:butt;stroke-linejoin:miter;stroke:rgb(0%,0%,100%);stroke-opacity:1;stroke-miterlimit:4;" d="M 455.098958 157.401042 L 450.401042 174 " transform="matrix(0.75,0,0,0.75,0,0)"/>
<path style="fill:none;stroke-width:2;stroke-linecap:butt;stroke-linejoin:miter;stroke:rgb(0%,0%,0%);stroke-opacity:1;stroke-miterlimit:4;" d="M 450.401042 174 L 445.697917 190.697917 " transform="matrix(0.75,0,0,0.75,0,0)"/>
<path style="fill:none;stroke-width:2;stroke-linecap:butt;stroke-linejoin:miter;stroke:rgb(0%,0%,0%);stroke-opacity:1;stroke-miterlimit:4;" d="M 449 188.098958 L 459.098958 201 " transform="matrix(0.75,0,0,0.75,0,0)"/>
<path style="fill:none;stroke-width:2;stroke-linecap:butt;stroke-linejoin:miter;stroke:rgb(100%,0%,0%);stroke-opacity:1;stroke-miterlimit:4;" d="M 459.098958 201 L 469.302083 213.901042 " transform="matrix(0.75,0,0,0.75,0,0)"/>
<path style="fill:none;stroke-width:2;stroke-linecap:butt;stroke-linejoin:miter;stroke:rgb(0%,0%,0%);stroke-opacity:1;stroke-miterlimit:4;" d="M 442.302083 193.302083 L 452.5 206.197917 " transform="matrix(0.75,0,0,0.75,0,0)"/>
<path style="fill:none;stroke-width:2;stroke-linecap:butt;stroke-linejoin:miter;stroke:rgb(100%,0%,0%);stroke-opacity:1;stroke-miterlimit:4;" d="M 452.5 206.197917 L 462.598958 219.098958 " transform="matrix(0.75,0,0,0.75,0,0)"/>
<path style="fill:none;stroke-width:2;stroke-linecap:butt;stroke-linejoin:miter;stroke:rgb(0%,0%,0%);stroke-opacity:1;stroke-miterlimit:4;" d="M 314 259.598958 L 332.598958 297.598958 " transform="matrix(0.75,0,0,0.75,0,0)"/>
<path style="fill:none;stroke-width:2;stroke-linecap:butt;stroke-linejoin:miter;stroke:rgb(0%,0%,0%);stroke-opacity:1;stroke-miterlimit:4;" d="M 332.598958 297.598958 L 309 332.802083 " transform="matrix(0.75,0,0,0.75,0,0)"/>
<path style="fill:none;stroke-width:2;stroke-linecap:butt;stroke-linejoin:miter;stroke:rgb(0%,0%,0%);stroke-opacity:1;stroke-miterlimit:4;" d="M 336.098958 307.598958 L 319.598958 332.197917 " transform="matrix(0.75,0,0,0.75,0,0)"/>
<path style="fill:none;stroke-width:2;stroke-linecap:butt;stroke-linejoin:miter;stroke:rgb(0%,0%,0%);stroke-opacity:1;stroke-miterlimit:4;" d="M 309 332.802083 L 327.697917 370.697917 " transform="matrix(0.75,0,0,0.75,0,0)"/>
<path style="fill:none;stroke-width:2;stroke-linecap:butt;stroke-linejoin:miter;stroke:rgb(0%,0%,0%);stroke-opacity:1;stroke-miterlimit:4;" d="M 327.697917 370.697917 L 369.901042 373.598958 " transform="matrix(0.75,0,0,0.75,0,0)"/>
<path style="fill:none;stroke-width:2;stroke-linecap:butt;stroke-linejoin:miter;stroke:rgb(0%,0%,0%);stroke-opacity:1;stroke-miterlimit:4;" d="M 334.598958 362.697917 L 364.098958 364.697917 " transform="matrix(0.75,0,0,0.75,0,0)"/>
<path style="fill:none;stroke-width:2;stroke-linecap:butt;stroke-linejoin:miter;stroke:rgb(0%,0%,0%);stroke-opacity:1;stroke-miterlimit:4;" d="M 369.901042 373.598958 L 393.5 338.5 " transform="matrix(0.75,0,0,0.75,0,0)"/>
<path style="fill:none;stroke-width:2;stroke-linecap:butt;stroke-linejoin:miter;stroke:rgb(0%,0%,0%);stroke-opacity:1;stroke-miterlimit:4;" d="M 393.5 338.5 L 374.802083 300.5 " transform="matrix(0.75,0,0,0.75,0,0)"/>
<path style="fill:none;stroke-width:2;stroke-linecap:butt;stroke-linejoin:miter;stroke:rgb(0%,0%,0%);stroke-opacity:1;stroke-miterlimit:4;" d="M 383.098958 336.5 L 370 309.901042 " transform="matrix(0.75,0,0,0.75,0,0)"/>
<path style="fill:none;stroke-width:2;stroke-linecap:butt;stroke-linejoin:miter;stroke:rgb(0%,0%,0%);stroke-opacity:1;stroke-miterlimit:4;" d="M 210.901042 215.901042 L 183.098958 184 " transform="matrix(0.75,0,0,0.75,0,0)"/>
<path style="fill:none;stroke-width:2;stroke-linecap:butt;stroke-linejoin:miter;stroke:rgb(0%,0%,0%);stroke-opacity:1;stroke-miterlimit:4;" d="M 178.901042 183.802083 L 180.098958 166.5 " transform="matrix(0.75,0,0,0.75,0,0)"/>
<path style="fill:none;stroke-width:2;stroke-linecap:butt;stroke-linejoin:miter;stroke:rgb(100%,0%,0%);stroke-opacity:1;stroke-miterlimit:4;" d="M 180.098958 166.5 L 181.197917 149.197917 " transform="matrix(0.75,0,0,0.75,0,0)"/>
<path style="fill:none;stroke-width:2;stroke-linecap:butt;stroke-linejoin:miter;stroke:rgb(0%,0%,0%);stroke-opacity:1;stroke-miterlimit:4;" d="M 187.302083 184.302083 L 188.5 167 " transform="matrix(0.75,0,0,0.75,0,0)"/>
<path style="fill:none;stroke-width:2;stroke-linecap:butt;stroke-linejoin:miter;stroke:rgb(100%,0%,0%);stroke-opacity:1;stroke-miterlimit:4;" d="M 188.5 167 L 189.697917 149.802083 " transform="matrix(0.75,0,0,0.75,0,0)"/>
<path style="fill:none;stroke-width:2;stroke-linecap:butt;stroke-linejoin:miter;stroke:rgb(0%,0%,0%);stroke-opacity:1;stroke-miterlimit:4;" d="M 183.098958 184 L 170.098958 195.401042 " transform="matrix(0.75,0,0,0.75,0,0)"/>
<path style="fill:none;stroke-width:2;stroke-linecap:butt;stroke-linejoin:miter;stroke:rgb(0%,0%,100%);stroke-opacity:1;stroke-miterlimit:4;" d="M 170.098958 195.401042 L 157.197917 206.697917 " transform="matrix(0.75,0,0,0.75,0,0)"/>
<path style="fill:none;stroke-width:2;stroke-linecap:butt;stroke-linejoin:miter;stroke:rgb(0%,0%,100%);stroke-opacity:1;stroke-miterlimit:4;" d="M 145.302083 214.401042 L 128.802083 221.401042 " transform="matrix(0.75,0,0,0.75,0,0)"/>
<path style="fill:none;stroke-width:2;stroke-linecap:butt;stroke-linejoin:miter;stroke:rgb(0%,0%,0%);stroke-opacity:1;stroke-miterlimit:4;" d="M 128.802083 221.401042 L 112.302083 228.5 " transform="matrix(0.75,0,0,0.75,0,0)"/>
<path style="fill:none;stroke-width:1;stroke-linecap:butt;stroke-linejoin:miter;stroke:rgb(0%,0%,0%);stroke-opacity:1;stroke-miterlimit:4;" d="M 106.598958 224.302083 L 105.901042 225.5 " transform="matrix(0.75,0,0,0.75,0,0)"/>
<path style="fill:none;stroke-width:1;stroke-linecap:butt;stroke-linejoin:miter;stroke:rgb(0%,0%,0%);stroke-opacity:1;stroke-miterlimit:4;" d="M 100.901042 220 L 99.5 222.5 " transform="matrix(0.75,0,0,0.75,0,0)"/>
<path style="fill:none;stroke-width:1;stroke-linecap:butt;stroke-linejoin:miter;stroke:rgb(0%,0%,0%);stroke-opacity:1;stroke-miterlimit:4;" d="M 95.197917 215.802083 L 93.098958 219.401042 " transform="matrix(0.75,0,0,0.75,0,0)"/>
<path style="fill:none;stroke-width:1;stroke-linecap:butt;stroke-linejoin:miter;stroke:rgb(0%,0%,0%);stroke-opacity:1;stroke-miterlimit:4;" d="M 89.598958 211.598958 L 86.697917 216.401042 " transform="matrix(0.75,0,0,0.75,0,0)"/>
<path style="fill:none;stroke-width:1;stroke-linecap:butt;stroke-linejoin:miter;stroke:rgb(0%,0%,0%);stroke-opacity:1;stroke-miterlimit:4;" d="M 83.901042 207.401042 L 80.197917 213.401042 " transform="matrix(0.75,0,0,0.75,0,0)"/>
<path style="fill:none;stroke-width:1;stroke-linecap:butt;stroke-linejoin:miter;stroke:rgb(0%,0%,0%);stroke-opacity:1;stroke-miterlimit:4;" d="M 78.197917 203.098958 L 73.802083 210.401042 " transform="matrix(0.75,0,0,0.75,0,0)"/>
<path style="fill:none;stroke-width:2;stroke-linecap:butt;stroke-linejoin:miter;stroke:rgb(0%,0%,0%);stroke-opacity:1;stroke-miterlimit:4;" d="M 71.802083 206.697917 L 72 189.401042 " transform="matrix(0.75,0,0,0.75,0,0)"/>
<path style="fill:none;stroke-width:2;stroke-linecap:butt;stroke-linejoin:miter;stroke:rgb(100%,0%,0%);stroke-opacity:1;stroke-miterlimit:4;" d="M 72 189.401042 L 72.302083 172 " transform="matrix(0.75,0,0,0.75,0,0)"/>
<path style="fill:none;stroke-width:2;stroke-linecap:butt;stroke-linejoin:miter;stroke:rgb(0%,0%,0%);stroke-opacity:1;stroke-miterlimit:4;" d="M 80.197917 206.802083 L 80.5 189.5 " transform="matrix(0.75,0,0,0.75,0,0)"/>
<path style="fill:none;stroke-width:2;stroke-linecap:butt;stroke-linejoin:miter;stroke:rgb(100%,0%,0%);stroke-opacity:1;stroke-miterlimit:4;" d="M 80.5 189.5 L 80.802083 172.197917 " transform="matrix(0.75,0,0,0.75,0,0)"/>
<path style="fill:none;stroke-width:2;stroke-linecap:butt;stroke-linejoin:miter;stroke:rgb(0%,0%,0%);stroke-opacity:1;stroke-miterlimit:4;" d="M 76 206.802083 L 61 215.098958 " transform="matrix(0.75,0,0,0.75,0,0)"/>
<path style="fill:none;stroke-width:2;stroke-linecap:butt;stroke-linejoin:miter;stroke:rgb(100%,0%,0%);stroke-opacity:1;stroke-miterlimit:4;" d="M 61 215.098958 L 45.901042 223.5 " transform="matrix(0.75,0,0,0.75,0,0)"/>
<path style="fill:none;stroke-width:2;stroke-linecap:butt;stroke-linejoin:miter;stroke:rgb(0%,0%,0%);stroke-opacity:1;stroke-miterlimit:4;" d="M 112.302083 228.5 L 116.098958 270.598958 " transform="matrix(0.75,0,0,0.75,0,0)"/>
<path style="fill:none;stroke-width:2;stroke-linecap:butt;stroke-linejoin:miter;stroke:rgb(0%,0%,100%);stroke-opacity:1;stroke-miterlimit:4;" d="M 157.197917 218.697917 L 168.098958 231.197917 " transform="matrix(0.75,0,0,0.75,0,0)"/>
<path style="fill:none;stroke-width:2;stroke-linecap:butt;stroke-linejoin:miter;stroke:rgb(0%,0%,0%);stroke-opacity:1;stroke-miterlimit:4;" d="M 168.098958 231.197917 L 179.098958 243.697917 " transform="matrix(0.75,0,0,0.75,0,0)"/>
<path style="fill:none;stroke-width:2;stroke-linecap:butt;stroke-linejoin:miter;stroke:rgb(0%,0%,0%);stroke-opacity:1;stroke-miterlimit:4;" d="M 445.697917 190.697917 L 427.5 191.401042 " transform="matrix(0.75,0,0,0.75,0,0)"/>
<path style="fill:none;stroke-width:2;stroke-linecap:butt;stroke-linejoin:miter;stroke:rgb(0%,0%,100%);stroke-opacity:1;stroke-miterlimit:4;" d="M 427.5 191.401042 L 409.302083 192 " transform="matrix(0.75,0,0,0.75,0,0)"/>
<path style="fill:none;stroke-width:2;stroke-linecap:butt;stroke-linejoin:miter;stroke:rgb(0%,0%,0%);stroke-opacity:1;stroke-miterlimit:4;" d="M 374.802083 300.5 L 332.598958 297.598958 " transform="matrix(0.75,0,0,0.75,0,0)"/>
<path style="fill:none;stroke-width:1;stroke-linecap:butt;stroke-linejoin:miter;stroke:rgb(0%,0%,0%);stroke-opacity:1;stroke-miterlimit:4;" d="M 182.802083 247.802083 L 183.697917 246.697917 " transform="matrix(0.75,0,0,0.75,0,0)"/>
<path style="fill:none;stroke-width:1;stroke-linecap:butt;stroke-linejoin:miter;stroke:rgb(0%,0%,0%);stroke-opacity:1;stroke-miterlimit:4;" d="M 186.5 251.802083 L 188.302083 249.598958 " transform="matrix(0.75,0,0,0.75,0,0)"/>
<path style="fill:none;stroke-width:1;stroke-linecap:butt;stroke-linejoin:miter;stroke:rgb(0%,0%,0%);stroke-opacity:1;stroke-miterlimit:4;" d="M 190.197917 255.802083 L 192.901042 252.598958 " transform="matrix(0.75,0,0,0.75,0,0)"/>
<path style="fill:none;stroke-width:1;stroke-linecap:butt;stroke-linejoin:miter;stroke:rgb(0%,0%,0%);stroke-opacity:1;stroke-miterlimit:4;" d="M 193.901042 259.802083 L 197.5 255.5 " transform="matrix(0.75,0,0,0.75,0,0)"/>
<path style="fill:none;stroke-width:1;stroke-linecap:butt;stroke-linejoin:miter;stroke:rgb(0%,0%,0%);stroke-opacity:1;stroke-miterlimit:4;" d="M 197.598958 263.901042 L 202.098958 258.401042 " transform="matrix(0.75,0,0,0.75,0,0)"/>
<path style="fill:none;stroke-width:1;stroke-linecap:butt;stroke-linejoin:miter;stroke:rgb(0%,0%,0%);stroke-opacity:1;stroke-miterlimit:4;" d="M 201.302083 267.901042 L 206.802083 261.401042 " transform="matrix(0.75,0,0,0.75,0,0)"/>
<path style=" stroke:none;fill-rule:nonzero;fill:rgb(80%,80%,0%);fill-opacity:1;" d="M 115.5 213.148438 C 115.550781 213.148438 115.726562 213.226562 116.023438 213.375 C 116.273438 213.476562 116.550781 213.574219 116.851562 213.675781 C 117.148438 213.726562 117.476562 213.75 117.824219 213.75 C 118.375 213.75 118.800781 213.601562 119.101562 213.300781 C 119.449219 213.050781 119.625 212.675781 119.625 212.175781 C 119.625 211.875 119.550781 211.625 119.398438 211.425781 C 119.199219 211.175781 118.976562 211 118.726562 210.898438 C 118.476562 210.800781 118.148438 210.699219 117.75 210.601562 C 117.199219 210.398438 116.773438 210.226562 116.476562 210.074219 C 116.175781 209.925781 115.898438 209.699219 115.648438 209.398438 C 115.449219 209.050781 115.351562 208.625 115.351562 208.125 C 115.351562 207.324219 115.601562 206.699219 116.101562 206.25 C 116.601562 205.800781 117.351562 205.574219 118.351562 205.574219 C 119.050781 205.574219 119.800781 205.726562 120.601562 206.023438 L 120.300781 207.074219 C 119.601562 206.773438 118.976562 206.625 118.425781 206.625 C 117.824219 206.625 117.375 206.726562 117.074219 206.925781 C 116.726562 207.175781 116.550781 207.523438 116.550781 207.976562 C 116.550781 208.273438 116.648438 208.523438 116.851562 208.726562 C 117 208.925781 117.199219 209.074219 117.449219 209.175781 C 117.699219 209.273438 118.023438 209.398438 118.425781 209.550781 C 118.976562 209.699219 119.398438 209.851562 119.699219 210 C 120.050781 210.199219 120.324219 210.476562 120.523438 210.824219 C 120.773438 211.175781 120.898438 211.625 120.898438 212.175781 C 120.898438 213.023438 120.625 213.675781 120.074219 214.125 C 119.523438 214.574219 118.773438 214.800781 117.824219 214.800781 C 117.324219 214.800781 116.851562 214.726562 116.398438 214.574219 C 116 214.476562 115.574219 214.324219 115.125 214.125 L 115.5 213.148438 "/>
<path style=" stroke:none;fill-rule:nonzero;fill:rgb(0%,0%,100%);fill-opacity:1;" d="M 187.875 159.601562 L 190.800781 164.324219 C 191 164.675781 191.25 165.125 191.550781 165.675781 C 191.898438 166.226562 192.074219 166.523438 192.074219 166.574219 L 192.074219 159.601562 L 193.273438 159.601562 L 193.273438 168.601562 L 192 168.601562 L 188.851562 163.351562 C 188.601562 162.949219 188.351562 162.523438 188.101562 162.074219 C 187.851562 161.625 187.699219 161.324219 187.648438 161.175781 L 187.648438 168.601562 L 186.449219 168.601562 L 186.449219 159.601562 L 187.875 159.601562 "/>
<path style=" stroke:none;fill-rule:nonzero;fill:rgb(0%,0%,100%);fill-opacity:1;" d="M 194.324219 159.601562 L 195.523438 159.601562 L 195.523438 163.425781 L 200.101562 163.425781 L 200.101562 159.601562 L 201.375 159.601562 L 201.375 168.601562 L 200.101562 168.601562 L 200.101562 164.398438 L 195.523438 164.398438 L 195.523438 168.601562 L 194.324219 168.601562 L 194.324219 159.601562 "/>
<path style=" stroke:none;fill-rule:nonzero;fill:rgb(100%,0%,0%);fill-opacity:1;" d="M 182.023438 218.925781 C 182.023438 217.523438 182.375 216.398438 183.074219 215.550781 C 183.773438 214.75 184.800781 214.351562 186.148438 214.351562 C 187.449219 214.351562 188.476562 214.75 189.226562 215.550781 C 189.925781 216.398438 190.273438 217.523438 190.273438 218.925781 C 190.273438 220.375 189.898438 221.523438 189.148438 222.375 C 188.449219 223.175781 187.449219 223.574219 186.148438 223.574219 C 184.800781 223.574219 183.773438 223.175781 183.074219 222.375 C 182.375 221.574219 182.023438 220.425781 182.023438 218.925781 M 186.148438 222.601562 C 187.050781 222.601562 187.75 222.300781 188.25 221.699219 C 188.75 221.050781 189 220.125 189 218.925781 C 189 217.773438 188.75 216.898438 188.25 216.300781 C 187.75 215.699219 187.050781 215.398438 186.148438 215.398438 C 185.25 215.398438 184.550781 215.699219 184.050781 216.300781 C 183.550781 216.898438 183.300781 217.773438 183.300781 218.925781 C 183.300781 220.175781 183.550781 221.101562 184.050781 221.699219 C 184.550781 222.300781 185.25 222.601562 186.148438 222.601562 "/>
<path style=" stroke:none;fill-rule:nonzero;fill:rgb(0%,0%,100%);fill-opacity:1;" d="M 241.648438 163.875 L 242.851562 163.875 L 242.851562 167.699219 L 247.5 167.699219 L 247.5 163.875 L 248.699219 163.875 L 248.699219 172.875 L 247.5 172.875 L 247.5 168.75 L 242.851562 168.75 L 242.851562 172.875 L 241.648438 172.875 L 241.648438 163.875 "/>
<path style=" stroke:none;fill-rule:nonzero;fill:rgb(0%,0%,100%);fill-opacity:1;" d="M 251.175781 163.875 L 254.101562 168.675781 C 254.300781 168.976562 254.574219 169.398438 254.925781 169.949219 C 255.226562 170.550781 255.375 170.851562 255.375 170.851562 L 255.375 163.875 L 256.574219 163.875 L 256.574219 172.875 L 255.375 172.875 L 252.226562 167.699219 C 251.976562 167.25 251.699219 166.800781 251.398438 166.351562 C 251.148438 165.898438 251 165.601562 250.949219 165.449219 L 250.949219 172.875 L 249.75 172.875 L 249.75 163.875 L 251.175781 163.875 "/>
<path style=" stroke:none;fill-rule:nonzero;fill:rgb(100%,0%,0%);fill-opacity:1;" d="M 294.675781 199.050781 C 294.675781 197.601562 295.023438 196.476562 295.726562 195.675781 C 296.476562 194.875 297.5 194.476562 298.800781 194.476562 C 300.148438 194.476562 301.175781 194.875 301.875 195.675781 C 302.574219 196.476562 302.925781 197.601562 302.925781 199.050781 C 302.925781 200.5 302.574219 201.648438 301.875 202.5 C 301.125 203.300781 300.101562 203.699219 298.800781 203.699219 C 297.5 203.699219 296.476562 203.300781 295.726562 202.5 C 295.023438 201.648438 294.675781 200.5 294.675781 199.050781 M 298.800781 202.726562 C 299.699219 202.726562 300.398438 202.398438 300.898438 201.75 C 301.398438 201.148438 301.648438 200.25 301.648438 199.050781 C 301.648438 197.851562 301.398438 196.976562 300.898438 196.425781 C 300.398438 195.824219 299.699219 195.523438 298.800781 195.523438 C 297.898438 195.523438 297.199219 195.800781 296.699219 196.351562 C 296.199219 196.949219 295.949219 197.851562 295.949219 199.050781 C 295.949219 200.25 296.199219 201.148438 296.699219 201.75 C 297.199219 202.398438 297.898438 202.726562 298.800781 202.726562 "/>
<path style=" stroke:none;fill-rule:nonzero;fill:rgb(0%,0%,100%);fill-opacity:1;" d="M 300.523438 139.726562 L 303.449219 144.449219 C 303.648438 144.75 303.925781 145.199219 304.273438 145.800781 C 304.574219 146.351562 304.726562 146.648438 304.726562 146.699219 L 304.726562 139.726562 L 305.925781 139.726562 L 305.925781 148.648438 L 304.726562 148.648438 L 301.574219 143.476562 C 301.324219 143.074219 301.050781 142.648438 300.75 142.199219 C 300.5 141.699219 300.351562 141.375 300.300781 141.226562 L 300.300781 148.648438 L 299.101562 148.648438 L 299.101562 139.726562 L 300.523438 139.726562 "/>
<path style=" stroke:none;fill-rule:nonzero;fill:rgb(0%,0%,100%);fill-opacity:1;" d="M 340.949219 108 L 343.875 112.726562 C 344.074219 113.074219 344.324219 113.523438 344.625 114.074219 C 344.925781 114.625 345.101562 114.925781 345.148438 114.976562 L 345.148438 108 L 346.351562 108 L 346.351562 117 L 345.074219 117 L 341.925781 111.75 C 341.675781 111.351562 341.425781 110.925781 341.175781 110.476562 C 340.925781 110.023438 340.75 109.726562 340.648438 109.574219 L 340.648438 117 L 339.523438 117 L 339.523438 108 L 340.949219 108 "/>
<path style=" stroke:none;fill-rule:nonzero;fill:rgb(0%,0%,100%);fill-opacity:1;" d="M 347.398438 108 L 348.601562 108 L 348.601562 111.824219 L 353.175781 111.824219 L 353.175781 108 L 354.449219 108 L 354.449219 117 L 353.175781 117 L 353.175781 112.800781 L 348.601562 112.800781 L 348.601562 117 L 347.398438 117 L 347.398438 108 "/>
<path style=" stroke:none;fill-rule:nonzero;fill:rgb(100%,0%,0%);fill-opacity:1;" d="M 349.726562 168 C 349.726562 166.550781 350.074219 165.425781 350.773438 164.625 C 351.476562 163.824219 352.5 163.425781 353.851562 163.425781 C 355.148438 163.425781 356.175781 163.824219 356.925781 164.625 C 357.625 165.425781 357.976562 166.550781 357.976562 168 C 357.976562 169.449219 357.601562 170.601562 356.851562 171.449219 C 356.148438 172.25 355.148438 172.648438 353.851562 172.648438 C 352.5 172.648438 351.476562 172.25 350.773438 171.449219 C 350.074219 170.601562 349.726562 169.449219 349.726562 168 M 353.851562 171.675781 C 354.75 171.675781 355.449219 171.351562 355.949219 170.699219 C 356.449219 170.101562 356.699219 169.199219 356.699219 168 C 356.699219 166.800781 356.449219 165.925781 355.949219 165.375 C 355.449219 164.773438 354.75 164.476562 353.851562 164.476562 C 352.898438 164.476562 352.175781 164.75 351.675781 165.300781 C 351.226562 165.898438 351 166.800781 351 168 C 351 169.199219 351.226562 170.101562 351.675781 170.699219 C 352.175781 171.351562 352.898438 171.675781 353.851562 171.675781 "/>
<path style=" stroke:none;fill-rule:nonzero;fill:rgb(100%,0%,0%);fill-opacity:1;" d="M 135.375 106.425781 C 135.375 104.976562 135.726562 103.851562 136.425781 103.050781 C 137.125 102.25 138.148438 101.851562 139.5 101.851562 C 140.800781 101.851562 141.800781 102.25 142.5 103.050781 C 143.25 103.851562 143.625 104.976562 143.625 106.425781 C 143.625 107.875 143.25 109 142.5 109.800781 C 141.800781 110.648438 140.800781 111.074219 139.5 111.074219 C 138.148438 111.074219 137.125 110.648438 136.425781 109.800781 C 135.726562 109 135.375 107.875 135.375 106.425781 M 139.5 110.023438 C 140.398438 110.023438 141.101562 109.726562 141.601562 109.125 C 142.101562 108.523438 142.351562 107.625 142.351562 106.425781 C 142.351562 105.226562 142.101562 104.324219 141.601562 103.726562 C 141.101562 103.125 140.398438 102.824219 139.5 102.824219 C 138.550781 102.824219 137.824219 103.125 137.324219 103.726562 C 136.875 104.324219 136.648438 105.226562 136.648438 106.425781 C 136.648438 107.625 136.875 108.523438 137.324219 109.125 C 137.824219 109.726562 138.550781 110.023438 139.5 110.023438 "/>
<path style=" stroke:none;fill-rule:nonzero;fill:rgb(0%,0%,100%);fill-opacity:1;" d="M 111.449219 154.425781 L 114.375 159.148438 C 114.574219 159.5 114.824219 159.949219 115.125 160.5 C 115.425781 161.050781 115.601562 161.351562 115.648438 161.398438 L 115.648438 154.425781 L 116.851562 154.425781 L 116.851562 163.425781 L 115.574219 163.425781 L 112.425781 158.175781 C 112.175781 157.773438 111.925781 157.351562 111.675781 156.898438 C 111.425781 156.449219 111.25 156.148438 111.148438 156 L 111.148438 163.425781 L 110.023438 163.425781 L 110.023438 154.425781 L 111.449219 154.425781 "/>
<path style=" stroke:none;fill-rule:nonzero;fill:rgb(100%,0%,0%);fill-opacity:1;" d="M 53.398438 123.375 C 53.398438 121.925781 53.75 120.800781 54.449219 120 C 55.148438 119.199219 56.175781 118.800781 57.523438 118.800781 C 58.824219 118.800781 59.824219 119.199219 60.523438 120 C 61.273438 120.800781 61.648438 121.925781 61.648438 123.375 C 61.648438 124.824219 61.273438 125.976562 60.523438 126.824219 C 59.824219 127.625 58.824219 128.023438 57.523438 128.023438 C 56.175781 128.023438 55.148438 127.625 54.449219 126.824219 C 53.75 125.976562 53.398438 124.824219 53.398438 123.375 M 57.523438 127.050781 C 58.425781 127.050781 59.125 126.726562 59.625 126.074219 C 60.125 125.476562 60.375 124.574219 60.375 123.375 C 60.375 122.175781 60.125 121.300781 59.625 120.75 C 59.125 120.148438 58.425781 119.851562 57.523438 119.851562 C 56.574219 119.851562 55.851562 120.125 55.351562 120.675781 C 54.851562 121.273438 54.601562 122.175781 54.601562 123.375 C 54.601562 124.574219 54.851562 125.476562 55.351562 126.074219 C 55.851562 126.726562 56.574219 127.050781 57.523438 127.050781 "/>
<path style=" stroke:none;fill-rule:nonzero;fill:rgb(100%,0%,0%);fill-opacity:1;" d="M 17.023438 166.050781 L 18.300781 166.050781 L 18.300781 169.875 L 22.875 169.875 L 22.875 166.050781 L 24.074219 166.050781 L 24.074219 175.050781 L 22.875 175.050781 L 22.875 170.925781 L 18.300781 170.925781 L 18.300781 175.050781 L 17.023438 175.050781 L 17.023438 166.050781 "/>
<path style=" stroke:none;fill-rule:nonzero;fill:rgb(100%,0%,0%);fill-opacity:1;" d="M 25.125 170.550781 C 25.125 169.101562 25.5 167.976562 26.25 167.175781 C 26.949219 166.375 27.949219 165.976562 29.25 165.976562 C 30.601562 165.976562 31.625 166.375 32.324219 167.175781 C 33.023438 167.976562 33.375 169.101562 33.375 170.550781 C 33.375 172 33.023438 173.148438 32.324219 174 C 31.625 174.800781 30.601562 175.199219 29.25 175.199219 C 27.949219 175.199219 26.949219 174.800781 26.25 174 C 25.5 173.148438 25.125 172 25.125 170.550781 M 29.25 174.226562 C 30.199219 174.226562 30.925781 173.898438 31.425781 173.25 C 31.925781 172.648438 32.175781 171.75 32.175781 170.550781 C 32.175781 169.351562 31.925781 168.476562 31.425781 167.925781 C 30.925781 167.324219 30.199219 167.023438 29.25 167.023438 C 28.351562 167.023438 27.648438 167.300781 27.148438 167.851562 C 26.648438 168.449219 26.398438 169.351562 26.398438 170.550781 C 26.398438 171.75 26.648438 172.648438 27.148438 173.25 C 27.648438 173.898438 28.351562 174.226562 29.25 174.226562 "/>
<path style=" stroke:none;fill-rule:nonzero;fill:rgb(0%,0%,0%);fill-opacity:1;" d="M 155.101562 198.675781 L 156.375 198.675781 L 156.375 202.5 L 160.949219 202.5 L 160.949219 198.675781 L 162.148438 198.675781 L 162.148438 207.675781 L 160.949219 207.675781 L 160.949219 203.476562 L 156.375 203.476562 L 156.375 207.675781 L 155.101562 207.675781 L 155.101562 198.675781 "/>
</g>
</svg>
