<?xml version="1.0" encoding="UTF-8"?>
<svg xmlns="http://www.w3.org/2000/svg" xmlns:xlink="http://www.w3.org/1999/xlink" width="375pt" height="375pt" viewBox="0 0 375 375" version="1.1">
<g id="surface61">
<rect x="0" y="0" width="375" height="375" style="fill:rgb(100%,100%,100%);fill-opacity:1;stroke:none;"/>
<path style="fill-rule:evenodd;fill:rgb(0%,0%,0%);fill-opacity:1;stroke-width:0.5;stroke-linecap:butt;stroke-linejoin:miter;stroke:rgb(0%,0%,0%);stroke-opacity:1;stroke-miterlimit:4;" d="M 331.5 359.098958 L 333.598958 404 L 326.901042 403.802083 Z M 331.5 359.098958 " transform="matrix(0.75,0,0,0.75,0,0)"/>
<path style="fill:none;stroke-width:2;stroke-linecap:butt;stroke-linejoin:miter;stroke:rgb(0%,0%,0%);stroke-opacity:1;stroke-miterlimit:4;" d="M 331.5 359.098958 L 300.802083 326.598958 " transform="matrix(0.75,0,0,0.75,0,0)"/>
<path style="fill:none;stroke-width:1;stroke-linecap:butt;stroke-linejoin:miter;stroke:rgb(0%,0%,0%);stroke-opacity:1;stroke-miterlimit:4;" d="M 297.401042 326.197917 L 297.401042 326.901042 " transform="matrix(0.75,0,0,0.75,0,0)"/>
<path style="fill:none;stroke-width:1;stroke-linecap:butt;stroke-linejoin:miter;stroke:rgb(0%,0%,0%);stroke-opacity:1;stroke-miterlimit:4;" d="M 294.098958 325.802083 L 294 327.098958 " transform="matrix(0.75,0,0,0.75,0,0)"/>
<path style="fill:none;stroke-width:1;stroke-linecap:butt;stroke-linejoin:miter;stroke:rgb(0%,0%,0%);stroke-opacity:1;stroke-miterlimit:4;" d="M 290.697917 325.302083 L 290.697917 327.302083 " transform="matrix(0.75,0,0,0.75,0,0)"/>
<path style="fill:none;stroke-width:1;stroke-linecap:butt;stroke-linejoin:miter;stroke:rgb(0%,0%,0%);stroke-opacity:1;stroke-miterlimit:4;" d="M 287.401042 324.901042 L 287.302083 327.598958 " transform="matrix(0.75,0,0,0.75,0,0)"/>
<path style="fill:none;stroke-width:1;stroke-linecap:butt;stroke-linejoin:miter;stroke:rgb(0%,0%,0%);stroke-opacity:1;stroke-miterlimit:4;" d="M 284 324.5 L 283.901042 327.802083 " transform="matrix(0.75,0,0,0.75,0,0)"/>
<path style="fill:none;stroke-width:1;stroke-linecap:butt;stroke-linejoin:miter;stroke:rgb(0%,0%,100%);stroke-opacity:1;stroke-miterlimit:4;" d="M 280.697917 324 L 280.598958 328.098958 " transform="matrix(0.75,0,0,0.75,0,0)"/>
<path style="fill:none;stroke-width:1;stroke-linecap:butt;stroke-linejoin:miter;stroke:rgb(0%,0%,100%);stroke-opacity:1;stroke-miterlimit:4;" d="M 277.302083 323.598958 L 277.197917 328.302083 " transform="matrix(0.75,0,0,0.75,0,0)"/>
<path style="fill:none;stroke-width:1;stroke-linecap:butt;stroke-linejoin:miter;stroke:rgb(0%,0%,100%);stroke-opacity:1;stroke-miterlimit:4;" d="M 274 323.197917 L 273.802083 328.5 " transform="matrix(0.75,0,0,0.75,0,0)"/>
<path style="fill:none;stroke-width:1;stroke-linecap:butt;stroke-linejoin:miter;stroke:rgb(0%,0%,100%);stroke-opacity:1;stroke-miterlimit:4;" d="M 270.598958 322.697917 L 270.5 328.802083 " transform="matrix(0.75,0,0,0.75,0,0)"/>
<path style="fill:none;stroke-width:1;stroke-linecap:butt;stroke-linejoin:miter;stroke:rgb(0%,0%,100%);stroke-opacity:1;stroke-miterlimit:4;" d="M 267.302083 322.302083 L 267.098958 329 " transform="matrix(0.75,0,0,0.75,0,0)"/>
<path style="fill:none;stroke-width:2;stroke-linecap:butt;stroke-linejoin:miter;stroke:rgb(0%,0%,100%);stroke-opacity:1;stroke-miterlimit:4;" d="M 251.197917 333.197917 L 241.901042 348.302083 " transform="matrix(0.75,0,0,0.75,0,0)"/>
<path style="fill:none;stroke-width:2;stroke-linecap:butt;stroke-linejoin:miter;stroke:rgb(0%,0%,0%);stroke-opacity:1;stroke-miterlimit:4;" d="M 241.901042 348.302083 L 232.598958 363.401042 " transform="matrix(0.75,0,0,0.75,0,0)"/>
<path style="fill:none;stroke-width:2;stroke-linecap:butt;stroke-linejoin:miter;stroke:rgb(0%,0%,0%);stroke-opacity:1;stroke-miterlimit:4;" d="M 228.697917 363.302083 L 237.697917 379.901042 " transform="matrix(0.75,0,0,0.75,0,0)"/>
<path style="fill:none;stroke-width:2;stroke-linecap:butt;stroke-linejoin:miter;stroke:rgb(100%,0%,0%);stroke-opacity:1;stroke-miterlimit:4;" d="M 237.697917 379.901042 L 246.598958 396.5 " transform="matrix(0.75,0,0,0.75,0,0)"/>
<path style="fill:none;stroke-width:2;stroke-linecap:butt;stroke-linejoin:miter;stroke:rgb(0%,0%,0%);stroke-opacity:1;stroke-miterlimit:4;" d="M 234.598958 360.098958 L 243.598958 376.697917 " transform="matrix(0.75,0,0,0.75,0,0)"/>
<path style="fill:none;stroke-width:2;stroke-linecap:butt;stroke-linejoin:miter;stroke:rgb(100%,0%,0%);stroke-opacity:1;stroke-miterlimit:4;" d="M 243.598958 376.697917 L 252.5 393.302083 " transform="matrix(0.75,0,0,0.75,0,0)"/>
<path style="fill:none;stroke-width:2;stroke-linecap:butt;stroke-linejoin:miter;stroke:rgb(0%,0%,0%);stroke-opacity:1;stroke-miterlimit:4;" d="M 232.598958 363.401042 L 187.901042 362.197917 " transform="matrix(0.75,0,0,0.75,0,0)"/>
<path style="fill:none;stroke-width:2;stroke-linecap:butt;stroke-linejoin:miter;stroke:rgb(0%,0%,0%);stroke-opacity:1;stroke-miterlimit:4;" d="M 187.901042 362.197917 L 179.302083 346.401042 " transform="matrix(0.75,0,0,0.75,0,0)"/>
<path style="fill:none;stroke-width:2;stroke-linecap:butt;stroke-linejoin:miter;stroke:rgb(0%,0%,100%);stroke-opacity:1;stroke-miterlimit:4;" d="M 179.302083 346.401042 L 170.802083 330.598958 " transform="matrix(0.75,0,0,0.75,0,0)"/>
<path style="fill:none;stroke-width:2;stroke-linecap:butt;stroke-linejoin:miter;stroke:rgb(0%,0%,0%);stroke-opacity:1;stroke-miterlimit:4;" d="M 180.098958 361.901042 L 173.302083 349.302083 " transform="matrix(0.75,0,0,0.75,0,0)"/>
<path style="fill:none;stroke-width:2;stroke-linecap:butt;stroke-linejoin:miter;stroke:rgb(0%,0%,100%);stroke-opacity:1;stroke-miterlimit:4;" d="M 173.302083 349.302083 L 166.401042 336.598958 " transform="matrix(0.75,0,0,0.75,0,0)"/>
<path style="fill:none;stroke-width:2;stroke-linecap:butt;stroke-linejoin:miter;stroke:rgb(0%,0%,100%);stroke-opacity:1;stroke-miterlimit:4;" d="M 160.302083 322.598958 L 144.697917 322.197917 " transform="matrix(0.75,0,0,0.75,0,0)"/>
<path style="fill:none;stroke-width:2;stroke-linecap:butt;stroke-linejoin:miter;stroke:rgb(100%,0%,0%);stroke-opacity:1;stroke-miterlimit:4;" d="M 144.697917 322.197917 L 129.197917 321.697917 " transform="matrix(0.75,0,0,0.75,0,0)"/>
<path style="fill:none;stroke-width:2;stroke-linecap:butt;stroke-linejoin:miter;stroke:rgb(100%,0%,0%);stroke-opacity:1;stroke-miterlimit:4;" d="M 117.598958 313.598958 L 109.098958 297.901042 " transform="matrix(0.75,0,0,0.75,0,0)"/>
<path style="fill:none;stroke-width:2;stroke-linecap:butt;stroke-linejoin:miter;stroke:rgb(0%,0%,0%);stroke-opacity:1;stroke-miterlimit:4;" d="M 109.098958 297.901042 L 100.598958 282.098958 " transform="matrix(0.75,0,0,0.75,0,0)"/>
<path style="fill:none;stroke-width:2;stroke-linecap:butt;stroke-linejoin:miter;stroke:rgb(0%,0%,0%);stroke-opacity:1;stroke-miterlimit:4;" d="M 100.598958 282.098958 L 61.197917 303.401042 " transform="matrix(0.75,0,0,0.75,0,0)"/>
<path style="fill:none;stroke-width:2;stroke-linecap:butt;stroke-linejoin:miter;stroke:rgb(0%,0%,0%);stroke-opacity:1;stroke-miterlimit:4;" d="M 100.598958 282.098958 L 140 260.901042 " transform="matrix(0.75,0,0,0.75,0,0)"/>
<path style="fill:none;stroke-width:2;stroke-linecap:butt;stroke-linejoin:miter;stroke:rgb(0%,0%,0%);stroke-opacity:1;stroke-miterlimit:4;" d="M 100.598958 282.098958 L 79.401042 242.802083 " transform="matrix(0.75,0,0,0.75,0,0)"/>
<path style="fill:none;stroke-width:2;stroke-linecap:butt;stroke-linejoin:miter;stroke:rgb(0%,0%,0%);stroke-opacity:1;stroke-miterlimit:4;" d="M 81.401042 239.5 L 61.697917 238.901042 " transform="matrix(0.75,0,0,0.75,0,0)"/>
<path style="fill:none;stroke-width:2;stroke-linecap:butt;stroke-linejoin:miter;stroke:rgb(100%,0%,0%);stroke-opacity:1;stroke-miterlimit:4;" d="M 61.697917 238.901042 L 42 238.401042 " transform="matrix(0.75,0,0,0.75,0,0)"/>
<path style="fill:none;stroke-width:2;stroke-linecap:butt;stroke-linejoin:miter;stroke:rgb(0%,0%,0%);stroke-opacity:1;stroke-miterlimit:4;" d="M 81.197917 246.197917 L 61.5 245.598958 " transform="matrix(0.75,0,0,0.75,0,0)"/>
<path style="fill:none;stroke-width:2;stroke-linecap:butt;stroke-linejoin:miter;stroke:rgb(100%,0%,0%);stroke-opacity:1;stroke-miterlimit:4;" d="M 61.5 245.598958 L 41.802083 245.098958 " transform="matrix(0.75,0,0,0.75,0,0)"/>
<path style="fill:none;stroke-width:2;stroke-linecap:butt;stroke-linejoin:miter;stroke:rgb(0%,0%,0%);stroke-opacity:1;stroke-miterlimit:4;" d="M 79.401042 242.802083 L 88.598958 227.802083 " transform="matrix(0.75,0,0,0.75,0,0)"/>
<path style="fill:none;stroke-width:2;stroke-linecap:butt;stroke-linejoin:miter;stroke:rgb(100%,0%,0%);stroke-opacity:1;stroke-miterlimit:4;" d="M 88.598958 227.802083 L 97.901042 212.802083 " transform="matrix(0.75,0,0,0.75,0,0)"/>
<path style="fill:none;stroke-width:2;stroke-linecap:butt;stroke-linejoin:miter;stroke:rgb(0%,0%,0%);stroke-opacity:1;stroke-miterlimit:4;" d="M 187.901042 362.197917 L 164.401042 400.302083 " transform="matrix(0.75,0,0,0.75,0,0)"/>
<path style="fill:none;stroke-width:2;stroke-linecap:butt;stroke-linejoin:miter;stroke:rgb(0%,0%,0%);stroke-opacity:1;stroke-miterlimit:4;" d="M 164.401042 400.302083 L 181.401042 441.598958 " transform="matrix(0.75,0,0,0.75,0,0)"/>
<path style="fill:none;stroke-width:2;stroke-linecap:butt;stroke-linejoin:miter;stroke:rgb(0%,0%,0%);stroke-opacity:1;stroke-miterlimit:4;" d="M 160 407.302083 L 173.302083 439.697917 " transform="matrix(0.75,0,0,0.75,0,0)"/>
<path style="fill:none;stroke-width:2;stroke-linecap:butt;stroke-linejoin:miter;stroke:rgb(0%,0%,0%);stroke-opacity:1;stroke-miterlimit:4;" d="M 181.401042 441.598958 L 167.098958 453.802083 " transform="matrix(0.75,0,0,0.75,0,0)"/>
<path style="fill:none;stroke-width:2;stroke-linecap:butt;stroke-linejoin:miter;stroke:rgb(80%,80%,0%);stroke-opacity:1;stroke-miterlimit:4;" d="M 167.098958 453.802083 L 152.901042 465.901042 " transform="matrix(0.75,0,0,0.75,0,0)"/>
<path style="fill:none;stroke-width:2;stroke-linecap:butt;stroke-linejoin:miter;stroke:rgb(80%,80%,0%);stroke-opacity:1;stroke-miterlimit:4;" d="M 141.802083 467.197917 L 125.5 457.197917 " transform="matrix(0.75,0,0,0.75,0,0)"/>
<path style="fill:none;stroke-width:2;stroke-linecap:butt;stroke-linejoin:miter;stroke:rgb(0%,0%,0%);stroke-opacity:1;stroke-miterlimit:4;" d="M 125.5 457.197917 L 109.197917 447.098958 " transform="matrix(0.75,0,0,0.75,0,0)"/>
<path style="fill:none;stroke-width:2;stroke-linecap:butt;stroke-linejoin:miter;stroke:rgb(0%,0%,0%);stroke-opacity:1;stroke-miterlimit:4;" d="M 109.197917 447.098958 L 91.697917 454.401042 " transform="matrix(0.75,0,0,0.75,0,0)"/>
<path style="fill:none;stroke-width:2;stroke-linecap:butt;stroke-linejoin:miter;stroke:rgb(0%,0%,100%);stroke-opacity:1;stroke-miterlimit:4;" d="M 91.697917 454.401042 L 74.098958 461.598958 " transform="matrix(0.75,0,0,0.75,0,0)"/>
<path style="fill:none;stroke-width:2;stroke-linecap:butt;stroke-linejoin:miter;stroke:rgb(0%,0%,0%);stroke-opacity:1;stroke-miterlimit:4;" d="M 109.197917 447.098958 L 113.598958 429.302083 " transform="matrix(0.75,0,0,0.75,0,0)"/>
<path style="fill:none;stroke-width:2;stroke-linecap:butt;stroke-linejoin:miter;stroke:rgb(0%,0%,100%);stroke-opacity:1;stroke-miterlimit:4;" d="M 113.598958 429.302083 L 117.901042 411.5 " transform="matrix(0.75,0,0,0.75,0,0)"/>
<path style="fill:none;stroke-width:2;stroke-linecap:butt;stroke-linejoin:miter;stroke:rgb(0%,0%,0%);stroke-opacity:1;stroke-miterlimit:4;" d="M 116.901042 444 L 120.697917 428.5 " transform="matrix(0.75,0,0,0.75,0,0)"/>
<path style="fill:none;stroke-width:2;stroke-linecap:butt;stroke-linejoin:miter;stroke:rgb(0%,0%,100%);stroke-opacity:1;stroke-miterlimit:4;" d="M 120.697917 428.5 L 124.401042 413.098958 " transform="matrix(0.75,0,0,0.75,0,0)"/>
<path style="fill:none;stroke-width:2;stroke-linecap:butt;stroke-linejoin:miter;stroke:rgb(0%,0%,0%);stroke-opacity:1;stroke-miterlimit:4;" d="M 300.802083 326.598958 L 333.302083 295.901042 " transform="matrix(0.75,0,0,0.75,0,0)"/>
<path style="fill:none;stroke-width:2;stroke-linecap:butt;stroke-linejoin:miter;stroke:rgb(0%,0%,0%);stroke-opacity:1;stroke-miterlimit:4;" d="M 336.598958 299.401042 L 337.098958 279.401042 " transform="matrix(0.75,0,0,0.75,0,0)"/>
<path style="fill:none;stroke-width:2;stroke-linecap:butt;stroke-linejoin:miter;stroke:rgb(100%,0%,0%);stroke-opacity:1;stroke-miterlimit:4;" d="M 337.098958 279.401042 L 337.697917 259.401042 " transform="matrix(0.75,0,0,0.75,0,0)"/>
<path style="fill:none;stroke-width:2;stroke-linecap:butt;stroke-linejoin:miter;stroke:rgb(0%,0%,0%);stroke-opacity:1;stroke-miterlimit:4;" d="M 329.802083 299.197917 L 330.401042 279.197917 " transform="matrix(0.75,0,0,0.75,0,0)"/>
<path style="fill:none;stroke-width:2;stroke-linecap:butt;stroke-linejoin:miter;stroke:rgb(100%,0%,0%);stroke-opacity:1;stroke-miterlimit:4;" d="M 330.401042 279.197917 L 331 259.197917 " transform="matrix(0.75,0,0,0.75,0,0)"/>
<path style="fill:none;stroke-width:2;stroke-linecap:butt;stroke-linejoin:miter;stroke:rgb(0%,0%,0%);stroke-opacity:1;stroke-miterlimit:4;" d="M 333.302083 295.901042 L 345.5 308.802083 " transform="matrix(0.75,0,0,0.75,0,0)"/>
<path style="fill:none;stroke-width:2;stroke-linecap:butt;stroke-linejoin:miter;stroke:rgb(0%,0%,100%);stroke-opacity:1;stroke-miterlimit:4;" d="M 345.5 308.802083 L 357.697917 321.802083 " transform="matrix(0.75,0,0,0.75,0,0)"/>
<path style="fill:none;stroke-width:2;stroke-linecap:butt;stroke-linejoin:miter;stroke:rgb(0%,0%,100%);stroke-opacity:1;stroke-miterlimit:4;" d="M 370.302083 328.598958 L 386.802083 329.098958 " transform="matrix(0.75,0,0,0.75,0,0)"/>
<path style="fill:none;stroke-width:2;stroke-linecap:butt;stroke-linejoin:miter;stroke:rgb(80%,80%,0%);stroke-opacity:1;stroke-miterlimit:4;" d="M 386.802083 329.098958 L 403.197917 329.5 " transform="matrix(0.75,0,0,0.75,0,0)"/>
<path style="fill:none;stroke-width:2;stroke-linecap:butt;stroke-linejoin:miter;stroke:rgb(80%,80%,0%);stroke-opacity:1;stroke-miterlimit:4;" d="M 405.197917 337.697917 L 404.802083 352.098958 " transform="matrix(0.75,0,0,0.75,0,0)"/>
<path style="fill:none;stroke-width:2;stroke-linecap:butt;stroke-linejoin:miter;stroke:rgb(100%,0%,0%);stroke-opacity:1;stroke-miterlimit:4;" d="M 404.802083 352.098958 L 404.302083 366.401042 " transform="matrix(0.75,0,0,0.75,0,0)"/>
<path style="fill:none;stroke-width:2;stroke-linecap:butt;stroke-linejoin:miter;stroke:rgb(80%,80%,0%);stroke-opacity:1;stroke-miterlimit:4;" d="M 411.901042 337.901042 L 411.5 352.302083 " transform="matrix(0.75,0,0,0.75,0,0)"/>
<path style="fill:none;stroke-width:2;stroke-linecap:butt;stroke-linejoin:miter;stroke:rgb(100%,0%,0%);stroke-opacity:1;stroke-miterlimit:4;" d="M 411.5 352.302083 L 411.098958 366.598958 " transform="matrix(0.75,0,0,0.75,0,0)"/>
<path style="fill:none;stroke-width:2;stroke-linecap:butt;stroke-linejoin:miter;stroke:rgb(80%,80%,0%);stroke-opacity:1;stroke-miterlimit:4;" d="M 412.302083 322 L 412.697917 307.598958 " transform="matrix(0.75,0,0,0.75,0,0)"/>
<path style="fill:none;stroke-width:2;stroke-linecap:butt;stroke-linejoin:miter;stroke:rgb(100%,0%,0%);stroke-opacity:1;stroke-miterlimit:4;" d="M 412.697917 307.598958 L 413.197917 293.197917 " transform="matrix(0.75,0,0,0.75,0,0)"/>
<path style="fill:none;stroke-width:2;stroke-linecap:butt;stroke-linejoin:miter;stroke:rgb(80%,80%,0%);stroke-opacity:1;stroke-miterlimit:4;" d="M 405.598958 321.802083 L 406 307.401042 " transform="matrix(0.75,0,0,0.75,0,0)"/>
<path style="fill:none;stroke-width:2;stroke-linecap:butt;stroke-linejoin:miter;stroke:rgb(100%,0%,0%);stroke-opacity:1;stroke-miterlimit:4;" d="M 406 307.401042 L 406.401042 293 " transform="matrix(0.75,0,0,0.75,0,0)"/>
<path style="fill:none;stroke-width:2;stroke-linecap:butt;stroke-linejoin:miter;stroke:rgb(80%,80%,0%);stroke-opacity:1;stroke-miterlimit:4;" d="M 414.302083 329.901042 L 430.197917 330.302083 " transform="matrix(0.75,0,0,0.75,0,0)"/>
<path style="fill:none;stroke-width:2;stroke-linecap:butt;stroke-linejoin:miter;stroke:rgb(100%,0%,0%);stroke-opacity:1;stroke-miterlimit:4;" d="M 430.197917 330.302083 L 446.197917 330.802083 " transform="matrix(0.75,0,0,0.75,0,0)"/>
<path style="fill:none;stroke-width:2;stroke-linecap:butt;stroke-linejoin:miter;stroke:rgb(0%,0%,100%);stroke-opacity:1;stroke-miterlimit:4;" d="M 83.302083 56.401042 L 94.901042 69.598958 " transform="matrix(0.75,0,0,0.75,0,0)"/>
<path style="fill:none;stroke-width:2;stroke-linecap:butt;stroke-linejoin:miter;stroke:rgb(0%,0%,0%);stroke-opacity:1;stroke-miterlimit:4;" d="M 94.901042 69.598958 L 106.598958 82.802083 " transform="matrix(0.75,0,0,0.75,0,0)"/>
<path style="fill:none;stroke-width:2;stroke-linecap:butt;stroke-linejoin:miter;stroke:rgb(0%,0%,0%);stroke-opacity:1;stroke-miterlimit:4;" d="M 104 79.901042 L 97.901042 98.098958 " transform="matrix(0.75,0,0,0.75,0,0)"/>
<path style="fill:none;stroke-width:2;stroke-linecap:butt;stroke-linejoin:miter;stroke:rgb(100%,0%,0%);stroke-opacity:1;stroke-miterlimit:4;" d="M 97.901042 98.098958 L 91.802083 116.302083 " transform="matrix(0.75,0,0,0.75,0,0)"/>
<path style="fill:none;stroke-width:2;stroke-linecap:butt;stroke-linejoin:miter;stroke:rgb(0%,0%,0%);stroke-opacity:1;stroke-miterlimit:4;" d="M 110.401042 82.098958 L 104.302083 100.302083 " transform="matrix(0.75,0,0,0.75,0,0)"/>
<path style="fill:none;stroke-width:2;stroke-linecap:butt;stroke-linejoin:miter;stroke:rgb(100%,0%,0%);stroke-opacity:1;stroke-miterlimit:4;" d="M 104.302083 100.302083 L 98.197917 118.401042 " transform="matrix(0.75,0,0,0.75,0,0)"/>
<path style="fill:none;stroke-width:1;stroke-linecap:butt;stroke-linejoin:miter;stroke:rgb(0%,0%,0%);stroke-opacity:1;stroke-miterlimit:4;" d="M 147 74.401042 L 147.098958 74.901042 " transform="matrix(0.75,0,0,0.75,0,0)"/>
<path style="fill:none;stroke-width:1;stroke-linecap:butt;stroke-linejoin:miter;stroke:rgb(0%,0%,0%);stroke-opacity:1;stroke-miterlimit:4;" d="M 143.598958 74.802083 L 143.802083 75.901042 " transform="matrix(0.75,0,0,0.75,0,0)"/>
<path style="fill:none;stroke-width:1;stroke-linecap:butt;stroke-linejoin:miter;stroke:rgb(0%,0%,0%);stroke-opacity:1;stroke-miterlimit:4;" d="M 140.197917 75.197917 L 140.5 76.901042 " transform="matrix(0.75,0,0,0.75,0,0)"/>
<path style="fill:none;stroke-width:1;stroke-linecap:butt;stroke-linejoin:miter;stroke:rgb(0%,0%,0%);stroke-opacity:1;stroke-miterlimit:4;" d="M 136.697917 75.598958 L 137.197917 77.802083 " transform="matrix(0.75,0,0,0.75,0,0)"/>
<path style="fill:none;stroke-width:1;stroke-linecap:butt;stroke-linejoin:miter;stroke:rgb(0%,0%,0%);stroke-opacity:1;stroke-miterlimit:4;" d="M 133.302083 76 L 133.901042 78.802083 " transform="matrix(0.75,0,0,0.75,0,0)"/>
<path style="fill:none;stroke-width:1;stroke-linecap:butt;stroke-linejoin:miter;stroke:rgb(0%,0%,0%);stroke-opacity:1;stroke-miterlimit:4;" d="M 129.901042 76.401042 L 130.5 79.697917 " transform="matrix(0.75,0,0,0.75,0,0)"/>
<path style="fill:none;stroke-width:1;stroke-linecap:butt;stroke-linejoin:miter;stroke:rgb(0%,0%,0%);stroke-opacity:1;stroke-miterlimit:4;" d="M 126.401042 76.802083 L 127.197917 80.697917 " transform="matrix(0.75,0,0,0.75,0,0)"/>
<path style="fill:none;stroke-width:1;stroke-linecap:butt;stroke-linejoin:miter;stroke:rgb(0%,0%,0%);stroke-opacity:1;stroke-miterlimit:4;" d="M 123 77.197917 L 123.901042 81.598958 " transform="matrix(0.75,0,0,0.75,0,0)"/>
<path style="fill:none;stroke-width:1;stroke-linecap:butt;stroke-linejoin:miter;stroke:rgb(0%,0%,0%);stroke-opacity:1;stroke-miterlimit:4;" d="M 119.598958 77.697917 L 120.598958 82.598958 " transform="matrix(0.75,0,0,0.75,0,0)"/>
<path style="fill:none;stroke-width:1;stroke-linecap:butt;stroke-linejoin:miter;stroke:rgb(0%,0%,0%);stroke-opacity:1;stroke-miterlimit:4;" d="M 116.197917 78.098958 L 117.302083 83.5 " transform="matrix(0.75,0,0,0.75,0,0)"/>
<path style="fill:none;stroke-width:1;stroke-linecap:butt;stroke-linejoin:miter;stroke:rgb(0%,0%,0%);stroke-opacity:1;stroke-miterlimit:4;" d="M 112.697917 78.5 L 114 84.5 " transform="matrix(0.75,0,0,0.75,0,0)"/>
<path style="fill:none;stroke-width:1;stroke-linecap:butt;stroke-linejoin:miter;stroke:rgb(0%,0%,0%);stroke-opacity:1;stroke-miterlimit:4;" d="M 109.302083 78.901042 L 110.598958 85.5 " transform="matrix(0.75,0,0,0.75,0,0)"/>
<path style="fill:none;stroke-width:2;stroke-linecap:butt;stroke-linejoin:miter;stroke:rgb(0%,0%,0%);stroke-opacity:1;stroke-miterlimit:4;" d="M 150.401042 74 L 164.697917 31.598958 " transform="matrix(0.75,0,0,0.75,0,0)"/>
<path style="fill:none;stroke-width:2;stroke-linecap:butt;stroke-linejoin:miter;stroke:rgb(0%,0%,0%);stroke-opacity:1;stroke-miterlimit:4;" d="M 164.697917 31.598958 L 208.598958 22.697917 " transform="matrix(0.75,0,0,0.75,0,0)"/>
<path style="fill:none;stroke-width:2;stroke-linecap:butt;stroke-linejoin:miter;stroke:rgb(0%,0%,0%);stroke-opacity:1;stroke-miterlimit:4;" d="M 208.598958 22.697917 L 238.098958 56.302083 " transform="matrix(0.75,0,0,0.75,0,0)"/>
<path style="fill:none;stroke-width:2;stroke-linecap:butt;stroke-linejoin:miter;stroke:rgb(0%,0%,0%);stroke-opacity:1;stroke-miterlimit:4;" d="M 238.098958 56.302083 L 223.901042 98.697917 " transform="matrix(0.75,0,0,0.75,0,0)"/>
<path style="fill:none;stroke-width:2;stroke-linecap:butt;stroke-linejoin:miter;stroke:rgb(0%,0%,0%);stroke-opacity:1;stroke-miterlimit:4;" d="M 223.901042 98.697917 L 205.098958 102.5 " transform="matrix(0.75,0,0,0.75,0,0)"/>
<path style="fill:none;stroke-width:2;stroke-linecap:butt;stroke-linejoin:miter;stroke:rgb(0%,0%,100%);stroke-opacity:1;stroke-miterlimit:4;" d="M 205.098958 102.5 L 186.302083 106.302083 " transform="matrix(0.75,0,0,0.75,0,0)"/>
<path style="fill:none;stroke-width:2;stroke-linecap:butt;stroke-linejoin:miter;stroke:rgb(0%,0%,100%);stroke-opacity:1;stroke-miterlimit:4;" d="M 186.302083 111.302083 L 202.401042 120.802083 " transform="matrix(0.75,0,0,0.75,0,0)"/>
<path style="fill:none;stroke-width:2;stroke-linecap:butt;stroke-linejoin:miter;stroke:rgb(0%,0%,0%);stroke-opacity:1;stroke-miterlimit:4;" d="M 202.401042 120.802083 L 218.5 130.302083 " transform="matrix(0.75,0,0,0.75,0,0)"/>
<path style="fill:none;stroke-width:2;stroke-linecap:butt;stroke-linejoin:miter;stroke:rgb(0%,0%,0%);stroke-opacity:1;stroke-miterlimit:4;" d="M 215 128.197917 L 216.802083 147.697917 " transform="matrix(0.75,0,0,0.75,0,0)"/>
<path style="fill:none;stroke-width:2;stroke-linecap:butt;stroke-linejoin:miter;stroke:rgb(100%,0%,0%);stroke-opacity:1;stroke-miterlimit:4;" d="M 216.802083 147.697917 L 218.697917 167.302083 " transform="matrix(0.75,0,0,0.75,0,0)"/>
<path style="fill:none;stroke-width:2;stroke-linecap:butt;stroke-linejoin:miter;stroke:rgb(0%,0%,0%);stroke-opacity:1;stroke-miterlimit:4;" d="M 221.697917 127.598958 L 223.5 147.098958 " transform="matrix(0.75,0,0,0.75,0,0)"/>
<path style="fill:none;stroke-width:2;stroke-linecap:butt;stroke-linejoin:miter;stroke:rgb(100%,0%,0%);stroke-opacity:1;stroke-miterlimit:4;" d="M 223.5 147.098958 L 225.401042 166.697917 " transform="matrix(0.75,0,0,0.75,0,0)"/>
<path style="fill:none;stroke-width:2;stroke-linecap:butt;stroke-linejoin:miter;stroke:rgb(0%,0%,0%);stroke-opacity:1;stroke-miterlimit:4;" d="M 218.5 130.302083 L 232.197917 118.302083 " transform="matrix(0.75,0,0,0.75,0,0)"/>
<path style="fill:none;stroke-width:2;stroke-linecap:butt;stroke-linejoin:miter;stroke:rgb(0%,0%,100%);stroke-opacity:1;stroke-miterlimit:4;" d="M 232.197917 118.302083 L 245.802083 106.302083 " transform="matrix(0.75,0,0,0.75,0,0)"/>
<path style="fill:none;stroke-width:2;stroke-linecap:butt;stroke-linejoin:miter;stroke:rgb(0%,0%,100%);stroke-opacity:1;stroke-miterlimit:4;" d="M 258.401042 102.098958 L 273.401042 105.5 " transform="matrix(0.75,0,0,0.75,0,0)"/>
<path style="fill:none;stroke-width:2;stroke-linecap:butt;stroke-linejoin:miter;stroke:rgb(100%,0%,0%);stroke-opacity:1;stroke-miterlimit:4;" d="M 273.401042 105.5 L 288.5 108.802083 " transform="matrix(0.75,0,0,0.75,0,0)"/>
<path style="fill:none;stroke-width:2;stroke-linecap:butt;stroke-linejoin:miter;stroke:rgb(100%,0%,0%);stroke-opacity:1;stroke-miterlimit:4;" d="M 303 102.598958 L 311.802083 93.098958 " transform="matrix(0.75,0,0,0.75,0,0)"/>
<path style="fill:none;stroke-width:2;stroke-linecap:butt;stroke-linejoin:miter;stroke:rgb(80%,80%,0%);stroke-opacity:1;stroke-miterlimit:4;" d="M 311.802083 93.098958 L 320.5 83.5 " transform="matrix(0.75,0,0,0.75,0,0)"/>
<path style="fill:none;stroke-width:2;stroke-linecap:butt;stroke-linejoin:miter;stroke:rgb(80%,80%,0%);stroke-opacity:1;stroke-miterlimit:4;" d="M 322.802083 70 L 312.697917 60.697917 " transform="matrix(0.75,0,0,0.75,0,0)"/>
<path style="fill:none;stroke-width:2;stroke-linecap:butt;stroke-linejoin:miter;stroke:rgb(100%,0%,0%);stroke-opacity:1;stroke-miterlimit:4;" d="M 312.697917 60.697917 L 302.697917 51.5 " transform="matrix(0.75,0,0,0.75,0,0)"/>
<path style="fill:none;stroke-width:2;stroke-linecap:butt;stroke-linejoin:miter;stroke:rgb(80%,80%,0%);stroke-opacity:1;stroke-miterlimit:4;" d="M 318.197917 74.901042 L 308.197917 65.697917 " transform="matrix(0.75,0,0,0.75,0,0)"/>
<path style="fill:none;stroke-width:2;stroke-linecap:butt;stroke-linejoin:miter;stroke:rgb(100%,0%,0%);stroke-opacity:1;stroke-miterlimit:4;" d="M 308.197917 65.697917 L 298.098958 56.401042 " transform="matrix(0.75,0,0,0.75,0,0)"/>
<path style="fill:none;stroke-width:2;stroke-linecap:butt;stroke-linejoin:miter;stroke:rgb(80%,80%,0%);stroke-opacity:1;stroke-miterlimit:4;" d="M 329.302083 85.098958 L 339.401042 94.302083 " transform="matrix(0.75,0,0,0.75,0,0)"/>
<path style="fill:none;stroke-width:2;stroke-linecap:butt;stroke-linejoin:miter;stroke:rgb(100%,0%,0%);stroke-opacity:1;stroke-miterlimit:4;" d="M 339.401042 94.302083 L 349.401042 103.598958 " transform="matrix(0.75,0,0,0.75,0,0)"/>
<path style="fill:none;stroke-width:2;stroke-linecap:butt;stroke-linejoin:miter;stroke:rgb(80%,80%,0%);stroke-opacity:1;stroke-miterlimit:4;" d="M 333.901042 80.098958 L 343.901042 89.401042 " transform="matrix(0.75,0,0,0.75,0,0)"/>
<path style="fill:none;stroke-width:2;stroke-linecap:butt;stroke-linejoin:miter;stroke:rgb(100%,0%,0%);stroke-opacity:1;stroke-miterlimit:4;" d="M 343.901042 89.401042 L 354 98.598958 " transform="matrix(0.75,0,0,0.75,0,0)"/>
<path style="fill:none;stroke-width:2;stroke-linecap:butt;stroke-linejoin:miter;stroke:rgb(80%,80%,0%);stroke-opacity:1;stroke-miterlimit:4;" d="M 331.598958 71.5 L 340.302083 62 " transform="matrix(0.75,0,0,0.75,0,0)"/>
<path style="fill:none;stroke-width:2;stroke-linecap:butt;stroke-linejoin:miter;stroke:rgb(100%,0%,0%);stroke-opacity:1;stroke-miterlimit:4;" d="M 340.302083 62 L 349 52.5 " transform="matrix(0.75,0,0,0.75,0,0)"/>
<path style="fill:none;stroke-width:2;stroke-linecap:butt;stroke-linejoin:miter;stroke:rgb(0%,0%,100%);stroke-opacity:1;stroke-miterlimit:4;" d="M 357.697917 334.401042 L 344.598958 346.802083 " transform="matrix(0.75,0,0,0.75,0,0)"/>
<path style="fill:none;stroke-width:2;stroke-linecap:butt;stroke-linejoin:miter;stroke:rgb(0%,0%,0%);stroke-opacity:1;stroke-miterlimit:4;" d="M 344.598958 346.802083 L 331.5 359.098958 " transform="matrix(0.75,0,0,0.75,0,0)"/>
<path style="fill:none;stroke-width:2;stroke-linecap:butt;stroke-linejoin:miter;stroke:rgb(0%,0%,100%);stroke-opacity:1;stroke-miterlimit:4;" d="M 173.697917 100.401042 L 162.098958 87.197917 " transform="matrix(0.75,0,0,0.75,0,0)"/>
<path style="fill:none;stroke-width:2;stroke-linecap:butt;stroke-linejoin:miter;stroke:rgb(0%,0%,0%);stroke-opacity:1;stroke-miterlimit:4;" d="M 162.098958 87.197917 L 150.401042 74 " transform="matrix(0.75,0,0,0.75,0,0)"/>
<path style="fill:none;stroke-width:2;stroke-linecap:butt;stroke-linejoin:miter;stroke:rgb(0%,0%,100%);stroke-opacity:1;stroke-miterlimit:4;" d="M 126.098958 403.197917 L 145.197917 401.697917 " transform="matrix(0.75,0,0,0.75,0,0)"/>
<path style="fill:none;stroke-width:2;stroke-linecap:butt;stroke-linejoin:miter;stroke:rgb(0%,0%,0%);stroke-opacity:1;stroke-miterlimit:4;" d="M 145.197917 401.697917 L 164.401042 400.302083 " transform="matrix(0.75,0,0,0.75,0,0)"/>
<path style="fill:none;stroke-width:2;stroke-linecap:butt;stroke-linejoin:miter;stroke:rgb(0%,0%,100%);stroke-opacity:1;stroke-miterlimit:4;" d="M 249.598958 92.901042 L 243.901042 74.598958 " transform="matrix(0.75,0,0,0.75,0,0)"/>
<path style="fill:none;stroke-width:2;stroke-linecap:butt;stroke-linejoin:miter;stroke:rgb(0%,0%,0%);stroke-opacity:1;stroke-miterlimit:4;" d="M 243.901042 74.598958 L 238.098958 56.302083 " transform="matrix(0.75,0,0,0.75,0,0)"/>
<path style="fill:none;stroke-width:2;stroke-linecap:butt;stroke-linejoin:miter;stroke:rgb(0%,0%,0%);stroke-opacity:1;stroke-miterlimit:4;" d="M 330 357.5 L 331.5 359.098958 L 332.197917 358.5 " transform="matrix(0.75,0,0,0.75,0,0)"/>
<path style="fill:none;stroke-width:2;stroke-linecap:butt;stroke-linejoin:miter;stroke:rgb(0%,0%,0%);stroke-opacity:1;stroke-miterlimit:4;" d="M 302.302083 328.197917 L 300.802083 326.598958 L 302.401042 325.098958 " transform="matrix(0.75,0,0,0.75,0,0)"/>
<path style="fill:none;stroke-width:2;stroke-linecap:butt;stroke-linejoin:miter;stroke:rgb(0%,0%,0%);stroke-opacity:1;stroke-miterlimit:4;" d="M 233.098958 362.697917 L 232.598958 363.401042 L 230.302083 363.401042 " transform="matrix(0.75,0,0,0.75,0,0)"/>
<path style="fill:none;stroke-width:2;stroke-linecap:butt;stroke-linejoin:miter;stroke:rgb(0%,0%,0%);stroke-opacity:1;stroke-miterlimit:4;" d="M 80.401042 244.697917 L 79.401042 242.802083 L 79.802083 242 " transform="matrix(0.75,0,0,0.75,0,0)"/>
<path style="fill:none;stroke-width:2;stroke-linecap:butt;stroke-linejoin:miter;stroke:rgb(0%,0%,0%);stroke-opacity:1;stroke-miterlimit:4;" d="M 180.598958 439.598958 L 181.401042 441.598958 L 180.697917 442.197917 " transform="matrix(0.75,0,0,0.75,0,0)"/>
<path style="fill:none;stroke-width:2;stroke-linecap:butt;stroke-linejoin:miter;stroke:rgb(0%,0%,0%);stroke-opacity:1;stroke-miterlimit:4;" d="M 331.697917 297.401042 L 333.302083 295.901042 L 333.901042 296.5 " transform="matrix(0.75,0,0,0.75,0,0)"/>
<path style="fill:none;stroke-width:2;stroke-linecap:butt;stroke-linejoin:miter;stroke:rgb(0%,0%,0%);stroke-opacity:1;stroke-miterlimit:4;" d="M 151.098958 71.901042 L 150.401042 74 L 151 74.697917 " transform="matrix(0.75,0,0,0.75,0,0)"/>
<path style="fill:none;stroke-width:2;stroke-linecap:butt;stroke-linejoin:miter;stroke:rgb(0%,0%,0%);stroke-opacity:1;stroke-miterlimit:4;" d="M 164 33.697917 L 164.697917 31.598958 L 166.901042 31.098958 " transform="matrix(0.75,0,0,0.75,0,0)"/>
<path style="fill:none;stroke-width:2;stroke-linecap:butt;stroke-linejoin:miter;stroke:rgb(0%,0%,0%);stroke-opacity:1;stroke-miterlimit:4;" d="M 206.401042 23.197917 L 208.598958 22.697917 L 210 24.401042 " transform="matrix(0.75,0,0,0.75,0,0)"/>
<path style="fill:none;stroke-width:2;stroke-linecap:butt;stroke-linejoin:miter;stroke:rgb(0%,0%,0%);stroke-opacity:1;stroke-miterlimit:4;" d="M 224.598958 96.598958 L 223.901042 98.697917 L 222.901042 98.901042 " transform="matrix(0.75,0,0,0.75,0,0)"/>
<path style="fill:none;stroke-width:2;stroke-linecap:butt;stroke-linejoin:miter;stroke:rgb(0%,0%,0%);stroke-opacity:1;stroke-miterlimit:4;" d="M 217.697917 129.802083 L 218.5 130.302083 L 219.197917 129.697917 " transform="matrix(0.75,0,0,0.75,0,0)"/>
<path style=" stroke:none;fill-rule:nonzero;fill:rgb(0%,0%,100%);fill-opacity:1;" d="M 179.101562 239.25 L 180.449219 239.25 L 180.449219 243.300781 L 185.25 243.300781 L 185.25 239.25 L 186.523438 239.25 L 186.523438 248.773438 L 185.25 248.773438 L 185.25 244.351562 L 180.449219 244.351562 L 180.449219 248.773438 L 179.101562 248.773438 L 179.101562 239.25 "/>
<path style=" stroke:none;fill-rule:nonzero;fill:rgb(0%,0%,100%);fill-opacity:1;" d="M 189.976562 239.25 L 193.050781 244.273438 C 193.25 244.625 193.523438 245.101562 193.875 245.699219 C 194.175781 246.300781 194.351562 246.625 194.398438 246.675781 L 194.398438 239.25 L 195.675781 239.25 L 195.675781 248.773438 L 194.324219 248.773438 L 191.023438 243.226562 C 190.726562 242.824219 190.449219 242.375 190.199219 241.875 C 189.949219 241.375 189.773438 241.050781 189.675781 240.898438 L 189.675781 248.773438 L 188.398438 248.773438 L 188.398438 239.25 L 189.976562 239.25 "/>
<path style=" stroke:none;fill-rule:nonzero;fill:rgb(100%,0%,0%);fill-opacity:1;" d="M 186 302.101562 C 186 300.601562 186.375 299.425781 187.125 298.574219 C 187.875 297.726562 188.949219 297.300781 190.351562 297.300781 C 191.800781 297.300781 192.898438 297.726562 193.648438 298.574219 C 194.398438 299.425781 194.773438 300.601562 194.773438 302.101562 C 194.773438 303.648438 194.375 304.875 193.574219 305.773438 C 192.824219 306.625 191.75 307.050781 190.351562 307.050781 C 188.949219 307.050781 187.875 306.625 187.125 305.773438 C 186.375 304.875 186 303.648438 186 302.101562 M 190.351562 306 C 191.351562 306 192.101562 305.675781 192.601562 305.023438 C 193.148438 304.375 193.425781 303.398438 193.425781 302.101562 C 193.425781 300.898438 193.148438 299.976562 192.601562 299.324219 C 192.101562 298.675781 191.351562 298.351562 190.351562 298.351562 C 189.398438 298.351562 188.675781 298.675781 188.175781 299.324219 C 187.625 299.925781 187.351562 300.851562 187.351562 302.101562 C 187.351562 303.398438 187.625 304.375 188.175781 305.023438 C 188.675781 305.675781 189.398438 306 190.351562 306 "/>
<path style=" stroke:none;fill-rule:nonzero;fill:rgb(0%,0%,100%);fill-opacity:1;" d="M 122.851562 237.375 L 126 242.398438 C 126.199219 242.699219 126.449219 243.148438 126.75 243.75 C 127.101562 244.351562 127.273438 244.675781 127.273438 244.726562 L 127.273438 237.375 L 128.550781 237.375 L 128.550781 246.824219 L 127.273438 246.824219 L 123.898438 241.351562 C 123.648438 240.898438 123.375 240.425781 123.074219 239.925781 C 122.824219 239.476562 122.648438 239.175781 122.550781 239.023438 L 122.550781 246.824219 L 121.351562 246.824219 L 121.351562 237.375 L 122.851562 237.375 "/>
<path style=" stroke:none;fill-rule:nonzero;fill:rgb(100%,0%,0%);fill-opacity:1;" d="M 87.074219 241.199219 C 87.074219 239.648438 87.449219 238.449219 88.199219 237.601562 C 88.949219 236.75 90.023438 236.324219 91.425781 236.324219 C 92.824219 236.324219 93.898438 236.75 94.648438 237.601562 C 95.398438 238.449219 95.773438 239.648438 95.773438 241.199219 C 95.773438 242.699219 95.398438 243.898438 94.648438 244.800781 C 93.898438 245.648438 92.824219 246.074219 91.425781 246.074219 C 90.023438 246.074219 88.949219 245.648438 88.199219 244.800781 C 87.449219 243.949219 87.074219 242.75 87.074219 241.199219 M 91.425781 245.023438 C 92.375 245.023438 93.101562 244.699219 93.601562 244.050781 C 94.148438 243.398438 94.425781 242.449219 94.425781 241.199219 C 94.425781 239.949219 94.148438 239 93.601562 238.351562 C 93.101562 237.699219 92.375 237.375 91.425781 237.375 C 90.425781 237.375 89.675781 237.699219 89.175781 238.351562 C 88.675781 238.949219 88.425781 239.898438 88.425781 241.199219 C 88.425781 242.449219 88.675781 243.398438 89.175781 244.050781 C 89.675781 244.699219 90.425781 245.023438 91.425781 245.023438 "/>
<path style=" stroke:none;fill-rule:nonzero;fill:rgb(100%,0%,0%);fill-opacity:1;" d="M 21.601562 181.125 C 21.601562 179.625 21.976562 178.449219 22.726562 177.601562 C 23.476562 176.75 24.550781 176.324219 25.949219 176.324219 C 27.351562 176.324219 28.449219 176.75 29.25 177.601562 C 30 178.449219 30.375 179.625 30.375 181.125 C 30.375 182.675781 29.976562 183.898438 29.175781 184.800781 C 28.425781 185.648438 27.351562 186.074219 25.949219 186.074219 C 24.550781 186.074219 23.476562 185.648438 22.726562 184.800781 C 21.976562 183.898438 21.601562 182.675781 21.601562 181.125 M 25.949219 185.023438 C 26.949219 185.023438 27.699219 184.699219 28.199219 184.050781 C 28.75 183.398438 29.023438 182.425781 29.023438 181.125 C 29.023438 179.925781 28.75 179 28.199219 178.351562 C 27.699219 177.699219 26.949219 177.375 25.949219 177.375 C 25 177.375 24.25 177.699219 23.699219 178.351562 C 23.199219 178.949219 22.949219 179.875 22.949219 181.125 C 22.949219 182.425781 23.199219 183.398438 23.699219 184.050781 C 24.25 184.699219 25 185.023438 25.949219 185.023438 "/>
<path style=" stroke:none;fill-rule:nonzero;fill:rgb(100%,0%,0%);fill-opacity:1;" d="M 72.75 153.523438 C 72.75 152.023438 73.125 150.851562 73.875 150 C 74.625 149.148438 75.699219 148.726562 77.101562 148.726562 C 78.5 148.726562 79.574219 149.148438 80.324219 150 C 81.074219 150.851562 81.449219 152.023438 81.449219 153.523438 C 81.449219 155.074219 81.074219 156.300781 80.324219 157.199219 C 79.574219 158.050781 78.5 158.476562 77.101562 158.476562 C 75.699219 158.476562 74.625 158.050781 73.875 157.199219 C 73.125 156.300781 72.75 155.074219 72.75 153.523438 M 77.101562 157.425781 C 78.101562 157.425781 78.851562 157.101562 79.351562 156.449219 C 79.898438 155.800781 80.175781 154.824219 80.175781 153.523438 C 80.175781 152.273438 79.898438 151.351562 79.351562 150.75 C 78.851562 150.101562 78.101562 149.773438 77.101562 149.773438 C 76.148438 149.773438 75.398438 150.101562 74.851562 150.75 C 74.351562 151.351562 74.101562 152.273438 74.101562 153.523438 C 74.101562 154.824219 74.351562 155.800781 74.851562 156.449219 C 75.398438 157.101562 76.148438 157.425781 77.101562 157.425781 "/>
<path style=" stroke:none;fill-rule:nonzero;fill:rgb(100%,0%,0%);fill-opacity:1;" d="M 82.949219 148.800781 L 84.226562 148.800781 L 84.226562 152.851562 L 89.101562 152.851562 L 89.101562 148.800781 L 90.375 148.800781 L 90.375 158.324219 L 89.101562 158.324219 L 89.101562 153.898438 L 84.226562 153.898438 L 84.226562 158.324219 L 82.949219 158.324219 L 82.949219 148.800781 "/>
<path style=" stroke:none;fill-rule:nonzero;fill:rgb(80%,80%,0%);fill-opacity:1;" d="M 107.773438 356.25 C 107.875 356.25 108.074219 356.324219 108.375 356.476562 C 108.675781 356.574219 108.976562 356.675781 109.273438 356.773438 C 109.625 356.824219 109.949219 356.851562 110.25 356.851562 C 110.851562 356.851562 111.324219 356.726562 111.675781 356.476562 C 112.023438 356.175781 112.199219 355.75 112.199219 355.199219 C 112.199219 354.851562 112.125 354.574219 111.976562 354.375 C 111.773438 354.175781 111.550781 354 111.300781 353.851562 C 111 353.75 110.648438 353.625 110.25 353.476562 C 109.648438 353.324219 109.175781 353.175781 108.824219 353.023438 C 108.523438 352.875 108.25 352.625 108 352.273438 C 107.75 351.925781 107.625 351.476562 107.625 350.925781 C 107.625 350.125 107.898438 349.476562 108.449219 348.976562 C 109 348.476562 109.800781 348.226562 110.851562 348.226562 C 111.601562 348.226562 112.398438 348.398438 113.25 348.75 L 112.949219 349.800781 C 112.148438 349.449219 111.476562 349.273438 110.925781 349.273438 C 110.324219 349.273438 109.851562 349.425781 109.5 349.726562 C 109.148438 349.976562 108.976562 350.300781 108.976562 350.699219 C 108.976562 351.050781 109.074219 351.324219 109.273438 351.523438 C 109.425781 351.726562 109.625 351.898438 109.875 352.050781 C 110.125 352.148438 110.476562 352.273438 110.925781 352.425781 C 111.476562 352.574219 111.925781 352.75 112.273438 352.949219 C 112.625 353.148438 112.925781 353.425781 113.175781 353.773438 C 113.425781 354.125 113.550781 354.601562 113.550781 355.199219 C 113.550781 356.101562 113.25 356.773438 112.648438 357.226562 C 112.050781 357.726562 111.273438 357.976562 110.324219 357.976562 C 109.773438 357.976562 109.273438 357.898438 108.824219 357.75 C 108.425781 357.648438 107.976562 357.5 107.476562 357.300781 L 107.773438 356.25 "/>
<path style=" stroke:none;fill-rule:nonzero;fill:rgb(0%,0%,100%);fill-opacity:1;" d="M 32.550781 343.351562 L 33.824219 343.351562 L 33.824219 347.398438 L 38.699219 347.398438 L 38.699219 343.351562 L 39.976562 343.351562 L 39.976562 352.875 L 38.699219 352.875 L 38.699219 348.523438 L 33.824219 348.523438 L 33.824219 352.875 L 32.550781 352.875 L 32.550781 343.351562 "/>
<path style=" stroke:none;fill-rule:nonzero;fill:rgb(0%,0%,100%);fill-opacity:1;" d="M 41.851562 352.574219 C 42 352.175781 42.25 351.851562 42.601562 351.601562 C 43 351.398438 43.449219 351.300781 43.949219 351.300781 C 44.550781 351.300781 45.050781 351.476562 45.449219 351.824219 C 45.800781 352.175781 45.976562 352.648438 45.976562 353.25 C 45.976562 353.851562 45.726562 354.449219 45.226562 355.050781 C 44.773438 355.601562 44.074219 356.226562 43.125 356.925781 L 46.050781 356.925781 L 46.050781 357.601562 L 41.851562 357.601562 L 41.851562 357.074219 C 42.601562 356.476562 43.226562 355.976562 43.726562 355.574219 C 44.175781 355.175781 44.5 354.773438 44.699219 354.375 C 44.949219 354.023438 45.074219 353.648438 45.074219 353.25 C 45.074219 352.851562 44.976562 352.550781 44.773438 352.351562 C 44.574219 352.101562 44.300781 351.976562 43.949219 351.976562 C 43.601562 351.976562 43.324219 352.050781 43.125 352.199219 C 42.875 352.351562 42.675781 352.574219 42.523438 352.875 L 41.851562 352.574219 "/>
<path style=" stroke:none;fill-rule:nonzero;fill:rgb(0%,0%,100%);fill-opacity:1;" d="M 48.824219 343.351562 L 51.898438 348.375 C 52.101562 348.726562 52.375 349.199219 52.726562 349.800781 C 53.023438 350.398438 53.199219 350.726562 53.25 350.773438 L 53.25 343.351562 L 54.523438 343.351562 L 54.523438 352.875 L 53.175781 352.875 L 49.875 347.398438 C 49.625 346.949219 49.351562 346.476562 49.050781 345.976562 C 48.800781 345.476562 48.625 345.148438 48.523438 345 L 48.523438 352.875 L 47.324219 352.875 L 47.324219 343.351562 L 48.824219 343.351562 "/>
<path style=" stroke:none;fill-rule:nonzero;fill:rgb(0%,0%,100%);fill-opacity:1;" d="M 87.75 297.976562 L 90.824219 303 C 91.023438 303.351562 91.300781 303.824219 91.648438 304.425781 C 92 305.023438 92.175781 305.351562 92.175781 305.398438 L 92.175781 297.976562 L 93.449219 297.976562 L 93.449219 307.5 L 92.101562 307.5 L 88.800781 302.023438 C 88.550781 301.574219 88.273438 301.101562 87.976562 300.601562 C 87.726562 300.101562 87.550781 299.773438 87.449219 299.625 L 87.449219 307.5 L 86.25 307.5 L 86.25 297.976562 L 87.75 297.976562 "/>
<path style=" stroke:none;fill-rule:nonzero;fill:rgb(100%,0%,0%);fill-opacity:1;" d="M 246.601562 188.398438 C 246.601562 186.898438 246.976562 185.726562 247.726562 184.875 C 248.476562 184.023438 249.550781 183.601562 250.949219 183.601562 C 252.351562 183.601562 253.425781 184.023438 254.175781 184.875 C 254.925781 185.726562 255.300781 186.898438 255.300781 188.398438 C 255.300781 189.949219 254.925781 191.148438 254.175781 192 C 253.425781 192.898438 252.351562 193.351562 250.949219 193.351562 C 249.550781 193.351562 248.476562 192.898438 247.726562 192 C 246.976562 191.148438 246.601562 189.949219 246.601562 188.398438 M 250.949219 192.226562 C 251.898438 192.226562 252.625 191.925781 253.125 191.324219 C 253.675781 190.675781 253.949219 189.699219 253.949219 188.398438 C 253.949219 187.148438 253.675781 186.226562 253.125 185.625 C 252.625 184.976562 251.898438 184.648438 250.949219 184.648438 C 249.949219 184.648438 249.199219 184.976562 248.699219 185.625 C 248.199219 186.226562 247.949219 187.148438 247.949219 188.398438 C 247.949219 189.699219 248.199219 190.675781 248.699219 191.324219 C 249.199219 191.925781 249.949219 192.226562 250.949219 192.226562 "/>
<path style=" stroke:none;fill-rule:nonzero;fill:rgb(0%,0%,100%);fill-opacity:1;" d="M 270.898438 241.574219 L 274.050781 246.601562 C 274.25 246.949219 274.523438 247.425781 274.875 248.023438 C 275.175781 248.625 275.324219 248.925781 275.324219 248.925781 L 275.324219 241.574219 L 276.601562 241.574219 L 276.601562 251.101562 L 275.324219 251.101562 L 271.949219 245.550781 C 271.699219 245.148438 271.449219 244.699219 271.199219 244.199219 C 270.898438 243.699219 270.726562 243.375 270.675781 243.226562 L 270.675781 251.101562 L 269.398438 251.101562 L 269.398438 241.574219 L 270.898438 241.574219 "/>
<path style=" stroke:none;fill-rule:nonzero;fill:rgb(80%,80%,0%);fill-opacity:1;" d="M 303.898438 250.574219 C 303.949219 250.574219 304.125 250.648438 304.425781 250.800781 C 304.726562 250.898438 305.023438 251 305.324219 251.101562 C 305.675781 251.148438 306 251.175781 306.300781 251.175781 C 306.898438 251.175781 307.375 251.023438 307.726562 250.726562 C 308.074219 250.425781 308.25 250.023438 308.25 249.523438 C 308.25 249.175781 308.175781 248.898438 308.023438 248.699219 C 307.824219 248.5 307.601562 248.324219 307.351562 248.175781 C 307.101562 248.074219 306.75 247.949219 306.300781 247.800781 C 305.699219 247.648438 305.25 247.5 304.949219 247.351562 C 304.601562 247.199219 304.300781 246.949219 304.050781 246.601562 C 303.851562 246.25 303.75 245.773438 303.75 245.175781 C 303.75 244.425781 304 243.800781 304.5 243.300781 C 305.050781 242.800781 305.875 242.550781 306.976562 242.550781 C 307.675781 242.550781 308.449219 242.726562 309.300781 243.074219 L 309 244.125 C 308.25 243.773438 307.574219 243.601562 306.976562 243.601562 C 306.375 243.601562 305.898438 243.75 305.550781 244.050781 C 305.199219 244.300781 305.023438 244.625 305.023438 245.023438 C 305.023438 245.375 305.125 245.648438 305.324219 245.851562 C 305.476562 246.050781 305.675781 246.226562 305.925781 246.375 C 306.226562 246.476562 306.574219 246.601562 306.976562 246.75 C 307.574219 246.898438 308.023438 247.074219 308.324219 247.273438 C 308.675781 247.425781 308.976562 247.699219 309.226562 248.101562 C 309.476562 248.449219 309.601562 248.925781 309.601562 249.523438 C 309.601562 250.425781 309.300781 251.101562 308.699219 251.550781 C 308.148438 252.050781 307.375 252.300781 306.375 252.300781 C 305.824219 252.300781 305.324219 252.226562 304.875 252.074219 C 304.476562 251.976562 304.023438 251.824219 303.523438 251.625 L 303.898438 250.574219 "/>
<path style=" stroke:none;fill-rule:nonzero;fill:rgb(100%,0%,0%);fill-opacity:1;" d="M 301.273438 280.875 C 301.273438 279.324219 301.648438 278.125 302.398438 277.273438 C 303.148438 276.425781 304.226562 276 305.625 276 C 307.023438 276 308.101562 276.425781 308.851562 277.273438 C 309.601562 278.125 309.976562 279.324219 309.976562 280.875 C 309.976562 282.375 309.601562 283.574219 308.851562 284.476562 C 308.050781 285.324219 306.976562 285.75 305.625 285.75 C 304.226562 285.75 303.148438 285.324219 302.398438 284.476562 C 301.648438 283.625 301.273438 282.425781 301.273438 280.875 M 305.625 284.699219 C 306.574219 284.699219 307.300781 284.375 307.800781 283.726562 C 308.351562 283.074219 308.625 282.125 308.625 280.875 C 308.625 279.625 308.351562 278.675781 307.800781 278.023438 C 307.300781 277.425781 306.574219 277.125 305.625 277.125 C 304.625 277.125 303.875 277.425781 303.375 278.023438 C 302.824219 278.675781 302.550781 279.625 302.550781 280.875 C 302.550781 282.125 302.824219 283.074219 303.375 283.726562 C 303.875 284.375 304.625 284.699219 305.625 284.699219 "/>
<path style=" stroke:none;fill-rule:nonzero;fill:rgb(100%,0%,0%);fill-opacity:1;" d="M 303.148438 213.75 C 303.148438 212.25 303.523438 211.074219 304.273438 210.226562 C 305.023438 209.375 306.101562 208.949219 307.5 208.949219 C 308.898438 208.949219 309.976562 209.375 310.726562 210.226562 C 311.476562 211.074219 311.851562 212.25 311.851562 213.75 C 311.851562 215.300781 311.476562 216.5 310.726562 217.351562 C 309.976562 218.25 308.898438 218.699219 307.5 218.699219 C 306.101562 218.699219 305.023438 218.25 304.273438 217.351562 C 303.523438 216.5 303.148438 215.300781 303.148438 213.75 M 307.5 217.574219 C 308.5 217.574219 309.25 217.273438 309.75 216.675781 C 310.300781 216.023438 310.574219 215.050781 310.574219 213.75 C 310.574219 212.5 310.300781 211.574219 309.75 210.976562 C 309.25 210.324219 308.5 210 307.5 210 C 306.550781 210 305.800781 210.324219 305.25 210.976562 C 304.75 211.574219 304.5 212.5 304.5 213.75 C 304.5 215.050781 304.75 216.023438 305.25 216.675781 C 305.800781 217.273438 306.550781 217.574219 307.5 217.574219 "/>
<path style=" stroke:none;fill-rule:nonzero;fill:rgb(100%,0%,0%);fill-opacity:1;" d="M 335.773438 248.25 C 335.773438 246.75 336.148438 245.574219 336.898438 244.726562 C 337.648438 243.875 338.726562 243.449219 340.125 243.449219 C 341.523438 243.449219 342.601562 243.875 343.351562 244.726562 C 344.101562 245.574219 344.476562 246.75 344.476562 248.25 C 344.476562 249.800781 344.101562 251 343.351562 251.851562 C 342.550781 252.75 341.476562 253.199219 340.125 253.199219 C 338.726562 253.199219 337.648438 252.75 336.898438 251.851562 C 336.148438 251 335.773438 249.800781 335.773438 248.25 M 340.125 252.074219 C 341.074219 252.074219 341.800781 251.773438 342.300781 251.175781 C 342.851562 250.523438 343.125 249.550781 343.125 248.25 C 343.125 247 342.851562 246.074219 342.300781 245.476562 C 341.800781 244.824219 341.074219 244.5 340.125 244.5 C 339.125 244.5 338.375 244.824219 337.875 245.476562 C 337.324219 246.074219 337.050781 247 337.050781 248.25 C 337.050781 249.550781 337.324219 250.523438 337.875 251.175781 C 338.375 251.773438 339.125 252.074219 340.125 252.074219 "/>
<path style=" stroke:none;fill-rule:nonzero;fill:rgb(100%,0%,0%);fill-opacity:1;" d="M 345.976562 243.523438 L 347.25 243.523438 L 347.25 247.574219 L 352.125 247.574219 L 352.125 243.523438 L 353.398438 243.523438 L 353.398438 253.050781 L 352.125 253.050781 L 352.125 248.625 L 347.25 248.625 L 347.25 253.050781 L 345.976562 253.050781 L 345.976562 243.523438 "/>
<path style=" stroke:none;fill-rule:nonzero;fill:rgb(0%,0%,100%);fill-opacity:1;" d="M 39.375 32.25 L 40.648438 32.25 L 40.648438 36.226562 L 45.523438 36.226562 L 45.523438 32.25 L 46.800781 32.25 L 46.800781 41.699219 L 45.523438 41.699219 L 45.523438 37.351562 L 40.648438 37.351562 L 40.648438 41.699219 L 39.375 41.699219 L 39.375 32.25 "/>
<path style=" stroke:none;fill-rule:nonzero;fill:rgb(0%,0%,100%);fill-opacity:1;" d="M 48.675781 41.398438 C 48.824219 41 49.101562 40.699219 49.5 40.5 C 49.851562 40.25 50.273438 40.125 50.773438 40.125 C 51.425781 40.125 51.925781 40.300781 52.273438 40.648438 C 52.625 41 52.800781 41.476562 52.800781 42.074219 C 52.800781 42.675781 52.574219 43.273438 52.125 43.875 C 51.675781 44.476562 50.976562 45.101562 50.023438 45.75 L 52.875 45.75 L 52.875 46.5 L 48.675781 46.5 L 48.675781 45.898438 C 49.476562 45.351562 50.101562 44.851562 50.550781 44.398438 C 51 44 51.351562 43.625 51.601562 43.273438 C 51.800781 42.875 51.898438 42.5 51.898438 42.148438 C 51.898438 41.75 51.800781 41.425781 51.601562 41.175781 C 51.398438 40.976562 51.125 40.875 50.773438 40.875 C 50.425781 40.875 50.148438 40.925781 49.949219 41.023438 C 49.699219 41.175781 49.5 41.398438 49.351562 41.699219 L 48.675781 41.398438 "/>
<path style=" stroke:none;fill-rule:nonzero;fill:rgb(0%,0%,100%);fill-opacity:1;" d="M 55.648438 32.25 L 58.726562 37.273438 C 58.925781 37.574219 59.199219 38.023438 59.550781 38.625 C 59.898438 39.226562 60.074219 39.550781 60.074219 39.601562 L 60.074219 32.25 L 61.351562 32.25 L 61.351562 41.699219 L 60 41.699219 L 56.699219 36.226562 C 56.449219 35.773438 56.175781 35.300781 55.875 34.800781 C 55.625 34.351562 55.449219 34.050781 55.351562 33.898438 L 55.351562 41.699219 L 54.148438 41.699219 L 54.148438 32.25 L 55.648438 32.25 "/>
<path style=" stroke:none;fill-rule:nonzero;fill:rgb(100%,0%,0%);fill-opacity:1;" d="M 64.875 93.976562 C 64.875 92.476562 65.25 91.300781 66 90.449219 C 66.75 89.601562 67.824219 89.175781 69.226562 89.175781 C 70.625 89.175781 71.699219 89.601562 72.449219 90.449219 C 73.199219 91.300781 73.574219 92.476562 73.574219 93.976562 C 73.574219 95.523438 73.199219 96.726562 72.449219 97.574219 C 71.699219 98.476562 70.625 98.925781 69.226562 98.925781 C 67.824219 98.925781 66.75 98.476562 66 97.574219 C 65.25 96.726562 64.875 95.523438 64.875 93.976562 M 69.226562 97.800781 C 70.175781 97.800781 70.925781 97.476562 71.476562 96.824219 C 71.976562 96.175781 72.226562 95.226562 72.226562 93.976562 C 72.226562 92.726562 71.976562 91.800781 71.476562 91.199219 C 70.925781 90.550781 70.175781 90.226562 69.226562 90.226562 C 68.273438 90.226562 67.523438 90.523438 66.976562 91.125 C 66.476562 91.773438 66.226562 92.726562 66.226562 93.976562 C 66.226562 95.273438 66.476562 96.226562 66.976562 96.824219 C 67.523438 97.476562 68.273438 97.800781 69.226562 97.800781 "/>
<path style=" stroke:none;fill-rule:nonzero;fill:rgb(0%,0%,100%);fill-opacity:1;" d="M 132.898438 75.898438 L 136.050781 80.925781 C 136.25 81.273438 136.523438 81.75 136.875 82.351562 C 137.175781 82.949219 137.351562 83.273438 137.398438 83.324219 L 137.398438 75.898438 L 138.601562 75.898438 L 138.601562 85.425781 L 137.324219 85.425781 L 133.949219 79.875 C 133.699219 79.476562 133.449219 79.023438 133.199219 78.523438 C 132.898438 78.023438 132.726562 77.699219 132.675781 77.550781 L 132.675781 85.425781 L 131.398438 85.425781 L 131.398438 75.898438 L 132.898438 75.898438 "/>
<path style=" stroke:none;fill-rule:nonzero;fill:rgb(100%,0%,0%);fill-opacity:1;" d="M 162.75 131.175781 C 162.75 129.625 163.125 128.425781 163.875 127.574219 C 164.625 126.726562 165.699219 126.300781 167.101562 126.300781 C 168.5 126.300781 169.574219 126.726562 170.324219 127.574219 C 171.074219 128.425781 171.449219 129.625 171.449219 131.175781 C 171.449219 132.726562 171.074219 133.925781 170.324219 134.773438 C 169.523438 135.675781 168.449219 136.125 167.101562 136.125 C 165.699219 136.125 164.625 135.675781 163.875 134.773438 C 163.125 133.925781 162.75 132.726562 162.75 131.175781 M 167.101562 135 C 168.050781 135 168.773438 134.675781 169.273438 134.023438 C 169.824219 133.375 170.101562 132.425781 170.101562 131.175781 C 170.101562 129.925781 169.824219 129 169.273438 128.398438 C 168.773438 127.75 168.050781 127.425781 167.101562 127.425781 C 166.101562 127.425781 165.351562 127.726562 164.851562 128.324219 C 164.300781 128.976562 164.023438 129.925781 164.023438 131.175781 C 164.023438 132.425781 164.300781 133.375 164.851562 134.023438 C 165.351562 134.675781 166.101562 135 167.101562 135 "/>
<path style=" stroke:none;fill-rule:nonzero;fill:rgb(0%,0%,100%);fill-opacity:1;" d="M 186.976562 70.800781 L 190.125 75.824219 C 190.324219 76.175781 190.574219 76.648438 190.875 77.25 C 191.226562 77.800781 191.398438 78.101562 191.398438 78.148438 L 191.398438 70.800781 L 192.675781 70.800781 L 192.675781 80.25 L 191.398438 80.25 L 188.023438 74.773438 C 187.773438 74.375 187.5 73.925781 187.199219 73.425781 C 186.949219 72.925781 186.773438 72.601562 186.675781 72.449219 L 186.675781 80.25 L 185.476562 80.25 L 185.476562 70.800781 L 186.976562 70.800781 "/>
<path style=" stroke:none;fill-rule:nonzero;fill:rgb(100%,0%,0%);fill-opacity:1;" d="M 217.5 82.875 C 217.5 81.375 217.875 80.199219 218.625 79.351562 C 219.375 78.5 220.449219 78.074219 221.851562 78.074219 C 223.25 78.074219 224.324219 78.5 225.074219 79.351562 C 225.824219 80.199219 226.199219 81.375 226.199219 82.875 C 226.199219 84.425781 225.824219 85.625 225.074219 86.476562 C 224.273438 87.375 223.199219 87.824219 221.851562 87.824219 C 220.449219 87.824219 219.375 87.375 218.625 86.476562 C 217.875 85.625 217.5 84.425781 217.5 82.875 M 221.851562 86.699219 C 222.800781 86.699219 223.523438 86.375 224.023438 85.726562 C 224.574219 85.074219 224.851562 84.125 224.851562 82.875 C 224.851562 81.625 224.574219 80.699219 224.023438 80.101562 C 223.523438 79.449219 222.800781 79.125 221.851562 79.125 C 220.851562 79.125 220.101562 79.425781 219.601562 80.023438 C 219.050781 80.675781 218.773438 81.625 218.773438 82.875 C 218.773438 84.175781 219.050781 85.125 219.601562 85.726562 C 220.101562 86.375 220.851562 86.699219 221.851562 86.699219 "/>
<path style=" stroke:none;fill-rule:nonzero;fill:rgb(80%,80%,0%);fill-opacity:1;" d="M 241.875 61.425781 C 241.925781 61.425781 242.101562 61.5 242.398438 61.648438 C 242.699219 61.75 243 61.851562 243.300781 61.949219 C 243.648438 62 243.976562 62.023438 244.273438 62.023438 C 244.875 62.023438 245.351562 61.898438 245.699219 61.648438 C 246.050781 61.351562 246.226562 60.925781 246.226562 60.375 C 246.226562 60.023438 246.148438 59.75 246 59.550781 C 245.800781 59.351562 245.574219 59.199219 245.324219 59.101562 C 245.074219 58.949219 244.726562 58.824219 244.273438 58.726562 C 243.675781 58.523438 243.226562 58.351562 242.925781 58.199219 C 242.574219 58.050781 242.273438 57.800781 242.023438 57.449219 C 241.824219 57.101562 241.726562 56.648438 241.726562 56.101562 C 241.726562 55.300781 241.976562 54.648438 242.476562 54.148438 C 243.023438 53.648438 243.851562 53.398438 244.949219 53.398438 C 245.648438 53.398438 246.425781 53.574219 247.273438 53.925781 L 246.976562 54.976562 C 246.226562 54.675781 245.550781 54.523438 244.949219 54.523438 C 244.351562 54.523438 243.875 54.648438 243.523438 54.898438 C 243.175781 55.148438 243 55.476562 243 55.875 C 243 56.226562 243.101562 56.5 243.300781 56.699219 C 243.449219 56.949219 243.648438 57.125 243.898438 57.226562 C 244.199219 57.324219 244.550781 57.449219 244.949219 57.601562 C 245.550781 57.75 246 57.925781 246.300781 58.125 C 246.648438 58.324219 246.949219 58.601562 247.199219 58.949219 C 247.449219 59.300781 247.574219 59.773438 247.574219 60.375 C 247.574219 61.273438 247.273438 61.949219 246.675781 62.398438 C 246.125 62.898438 245.351562 63.148438 244.351562 63.148438 C 243.800781 63.148438 243.300781 63.074219 242.851562 62.925781 C 242.449219 62.824219 242 62.675781 241.5 62.476562 L 241.875 61.425781 "/>
<path style=" stroke:none;fill-rule:nonzero;fill:rgb(100%,0%,0%);fill-opacity:1;" d="M 215.476562 35.476562 C 215.476562 33.925781 215.851562 32.726562 216.601562 31.875 C 217.351562 31.023438 218.425781 30.601562 219.824219 30.601562 C 221.226562 30.601562 222.300781 31.023438 223.050781 31.875 C 223.800781 32.726562 224.175781 33.925781 224.175781 35.476562 C 224.175781 37.023438 223.800781 38.226562 223.050781 39.074219 C 222.300781 39.925781 221.226562 40.351562 219.824219 40.351562 C 218.425781 40.351562 217.351562 39.925781 216.601562 39.074219 C 215.851562 38.226562 215.476562 37.023438 215.476562 35.476562 M 219.824219 39.300781 C 220.773438 39.300781 221.523438 38.976562 222.074219 38.324219 C 222.574219 37.675781 222.824219 36.726562 222.824219 35.476562 C 222.824219 34.226562 222.574219 33.273438 222.074219 32.625 C 221.523438 32.023438 220.773438 31.726562 219.824219 31.726562 C 218.875 31.726562 218.125 32.023438 217.574219 32.625 C 217.074219 33.273438 216.824219 34.226562 216.824219 35.476562 C 216.824219 36.726562 217.074219 37.675781 217.574219 38.324219 C 218.125 38.976562 218.875 39.300781 219.824219 39.300781 "/>
<path style=" stroke:none;fill-rule:nonzero;fill:rgb(100%,0%,0%);fill-opacity:1;" d="M 264.898438 80.851562 C 264.898438 79.351562 265.273438 78.175781 266.023438 77.324219 C 266.773438 76.476562 267.851562 76.050781 269.25 76.050781 C 270.648438 76.050781 271.726562 76.476562 272.476562 77.324219 C 273.226562 78.175781 273.601562 79.351562 273.601562 80.851562 C 273.601562 82.398438 273.226562 83.625 272.476562 84.523438 C 271.726562 85.375 270.648438 85.800781 269.25 85.800781 C 267.851562 85.800781 266.773438 85.375 266.023438 84.523438 C 265.273438 83.625 264.898438 82.398438 264.898438 80.851562 M 269.25 84.75 C 270.199219 84.75 270.949219 84.425781 271.5 83.773438 C 272 83.125 272.25 82.148438 272.25 80.851562 C 272.25 79.601562 272 78.675781 271.5 78.074219 C 270.949219 77.425781 270.199219 77.101562 269.25 77.101562 C 268.300781 77.101562 267.550781 77.425781 267 78.074219 C 266.5 78.675781 266.25 79.601562 266.25 80.851562 C 266.25 82.148438 266.5 83.125 267 83.773438 C 267.550781 84.425781 268.300781 84.75 269.25 84.75 "/>
<path style=" stroke:none;fill-rule:nonzero;fill:rgb(100%,0%,0%);fill-opacity:1;" d="M 262.875 33.449219 C 262.875 31.949219 263.25 30.773438 264 29.925781 C 264.75 29.074219 265.824219 28.648438 267.226562 28.648438 C 268.625 28.648438 269.699219 29.074219 270.449219 29.925781 C 271.199219 30.773438 271.574219 31.949219 271.574219 33.449219 C 271.574219 35 271.199219 36.199219 270.449219 37.050781 C 269.699219 37.949219 268.625 38.398438 267.226562 38.398438 C 265.824219 38.398438 264.75 37.949219 264 37.050781 C 263.25 36.199219 262.875 35 262.875 33.449219 M 267.226562 37.273438 C 268.226562 37.273438 268.976562 36.976562 269.476562 36.375 C 270.023438 35.726562 270.300781 34.75 270.300781 33.449219 C 270.300781 32.199219 270.023438 31.273438 269.476562 30.675781 C 268.976562 30.023438 268.226562 29.699219 267.226562 29.699219 C 266.273438 29.699219 265.523438 30.023438 264.976562 30.675781 C 264.476562 31.273438 264.226562 32.199219 264.226562 33.449219 C 264.226562 34.75 264.476562 35.726562 264.976562 36.375 C 265.523438 36.976562 266.273438 37.273438 267.226562 37.273438 "/>
<path style=" stroke:none;fill-rule:nonzero;fill:rgb(100%,0%,0%);fill-opacity:1;" d="M 273.074219 28.726562 L 274.351562 28.726562 L 274.351562 32.773438 L 279.226562 32.773438 L 279.226562 28.726562 L 280.5 28.726562 L 280.5 38.25 L 279.226562 38.25 L 279.226562 33.824219 L 274.351562 33.824219 L 274.351562 38.25 L 273.074219 38.25 L 273.074219 28.726562 "/>
<path style=" stroke:none;fill-rule:evenodd;fill:rgb(0%,0%,0%);fill-opacity:1;" d="M 183.300781 42.226562 L 183.300781 42.449219 L 183.226562 42.523438 L 183.226562 42.601562 L 183.148438 42.601562 L 183.148438 42.675781 L 183.074219 42.75 L 183 42.75 L 182.925781 42.824219 L 182.851562 42.824219 L 182.773438 42.898438 L 182.476562 42.898438 L 182.398438 42.824219 L 182.324219 42.824219 L 182.023438 42.523438 L 182.023438 42.375 L 181.949219 42.375 L 181.949219 42.074219 L 182.023438 42 L 182.023438 41.925781 L 182.101562 41.851562 L 182.101562 41.773438 L 182.175781 41.773438 L 182.175781 41.699219 L 182.25 41.699219 L 182.25 41.625 L 182.398438 41.625 L 182.398438 41.550781 L 182.851562 41.550781 L 182.925781 41.625 L 183 41.625 L 183 41.699219 L 183.074219 41.699219 L 183.226562 41.851562 L 183.226562 41.925781 L 183.300781 42 L 183.300781 42.226562 L 182.625 42.226562 Z M 183.300781 42.226562 "/>
</g>
</svg>
