<?xml version="1.0" encoding="UTF-8"?>
<svg xmlns="http://www.w3.org/2000/svg" xmlns:xlink="http://www.w3.org/1999/xlink" width="375pt" height="375pt" viewBox="0 0 375 375" version="1.1">
<g id="surface336">
<rect x="0" y="0" width="375" height="375" style="fill:rgb(100%,100%,100%);fill-opacity:1;stroke:none;"/>
<path style="fill:none;stroke-width:2;stroke-linecap:butt;stroke-linejoin:miter;stroke:rgb(0%,0%,0%);stroke-opacity:1;stroke-miterlimit:4;" d="M 467.197917 226 L 429.302083 222.197917 " transform="matrix(0.75,0,0,0.75,0,0)"/>
<path style="fill:none;stroke-width:2;stroke-linecap:butt;stroke-linejoin:miter;stroke:rgb(0%,0%,0%);stroke-opacity:1;stroke-miterlimit:4;" d="M 429.302083 222.197917 L 420.598958 234.401042 " transform="matrix(0.75,0,0,0.75,0,0)"/>
<path style="fill:none;stroke-width:2;stroke-linecap:butt;stroke-linejoin:miter;stroke:rgb(0%,0%,100%);stroke-opacity:1;stroke-miterlimit:4;" d="M 420.598958 234.401042 L 411.802083 246.5 " transform="matrix(0.75,0,0,0.75,0,0)"/>
<path style="fill:none;stroke-width:2;stroke-linecap:butt;stroke-linejoin:miter;stroke:rgb(0%,0%,100%);stroke-opacity:1;stroke-miterlimit:4;" d="M 410 259.802083 L 416.401042 273.901042 " transform="matrix(0.75,0,0,0.75,0,0)"/>
<path style="fill:none;stroke-width:2;stroke-linecap:butt;stroke-linejoin:miter;stroke:rgb(0%,0%,0%);stroke-opacity:1;stroke-miterlimit:4;" d="M 416.401042 273.901042 L 422.697917 287.901042 " transform="matrix(0.75,0,0,0.75,0,0)"/>
<path style="fill:none;stroke-width:2;stroke-linecap:butt;stroke-linejoin:miter;stroke:rgb(0%,0%,0%);stroke-opacity:1;stroke-miterlimit:4;" d="M 422.697917 287.901042 L 400.5 318.802083 " transform="matrix(0.75,0,0,0.75,0,0)"/>
<path style="fill:none;stroke-width:2;stroke-linecap:butt;stroke-linejoin:miter;stroke:rgb(0%,0%,0%);stroke-opacity:1;stroke-miterlimit:4;" d="M 400.5 318.802083 L 384.197917 317.197917 " transform="matrix(0.75,0,0,0.75,0,0)"/>
<path style="fill:none;stroke-width:2;stroke-linecap:butt;stroke-linejoin:miter;stroke:rgb(0%,0%,100%);stroke-opacity:1;stroke-miterlimit:4;" d="M 384.197917 317.197917 L 367.901042 315.5 " transform="matrix(0.75,0,0,0.75,0,0)"/>
<path style="fill:none;stroke-width:2;stroke-linecap:butt;stroke-linejoin:miter;stroke:rgb(0%,0%,100%);stroke-opacity:1;stroke-miterlimit:4;" d="M 357.697917 321.697917 L 349 333.802083 " transform="matrix(0.75,0,0,0.75,0,0)"/>
<path style="fill:none;stroke-width:2;stroke-linecap:butt;stroke-linejoin:miter;stroke:rgb(0%,0%,0%);stroke-opacity:1;stroke-miterlimit:4;" d="M 349 333.802083 L 340.302083 345.901042 " transform="matrix(0.75,0,0,0.75,0,0)"/>
<path style="fill:none;stroke-width:2;stroke-linecap:butt;stroke-linejoin:miter;stroke:rgb(0%,0%,0%);stroke-opacity:1;stroke-miterlimit:4;" d="M 343.802083 344.401042 L 350.098958 358.401042 " transform="matrix(0.75,0,0,0.75,0,0)"/>
<path style="fill:none;stroke-width:2;stroke-linecap:butt;stroke-linejoin:miter;stroke:rgb(100%,0%,0%);stroke-opacity:1;stroke-miterlimit:4;" d="M 350.098958 358.401042 L 356.401042 372.401042 " transform="matrix(0.75,0,0,0.75,0,0)"/>
<path style="fill:none;stroke-width:2;stroke-linecap:butt;stroke-linejoin:miter;stroke:rgb(0%,0%,0%);stroke-opacity:1;stroke-miterlimit:4;" d="M 336.802083 347.5 L 343.098958 361.5 " transform="matrix(0.75,0,0,0.75,0,0)"/>
<path style="fill:none;stroke-width:2;stroke-linecap:butt;stroke-linejoin:miter;stroke:rgb(100%,0%,0%);stroke-opacity:1;stroke-miterlimit:4;" d="M 343.098958 361.5 L 349.401042 375.5 " transform="matrix(0.75,0,0,0.75,0,0)"/>
<path style="fill:none;stroke-width:2;stroke-linecap:butt;stroke-linejoin:miter;stroke:rgb(0%,0%,0%);stroke-opacity:1;stroke-miterlimit:4;" d="M 340.302083 345.901042 L 324 344.302083 " transform="matrix(0.75,0,0,0.75,0,0)"/>
<path style="fill:none;stroke-width:2;stroke-linecap:butt;stroke-linejoin:miter;stroke:rgb(0%,0%,100%);stroke-opacity:1;stroke-miterlimit:4;" d="M 324 344.302083 L 307.697917 342.697917 " transform="matrix(0.75,0,0,0.75,0,0)"/>
<path style="fill:none;stroke-width:1;stroke-linecap:butt;stroke-linejoin:miter;stroke:rgb(0%,0%,0%);stroke-opacity:1;stroke-miterlimit:4;" d="M 284 368.901042 L 282.802083 368 " transform="matrix(0.75,0,0,0.75,0,0)"/>
<path style="fill:none;stroke-width:1;stroke-linecap:butt;stroke-linejoin:miter;stroke:rgb(0%,0%,0%);stroke-opacity:1;stroke-miterlimit:4;" d="M 288 364.697917 L 285.5 363 " transform="matrix(0.75,0,0,0.75,0,0)"/>
<path style="fill:none;stroke-width:1;stroke-linecap:butt;stroke-linejoin:miter;stroke:rgb(0%,0%,100%);stroke-opacity:1;stroke-miterlimit:4;" d="M 291.901042 360.598958 L 288.197917 357.901042 " transform="matrix(0.75,0,0,0.75,0,0)"/>
<path style="fill:none;stroke-width:1;stroke-linecap:butt;stroke-linejoin:miter;stroke:rgb(0%,0%,100%);stroke-opacity:1;stroke-miterlimit:4;" d="M 295.802083 356.401042 L 290.901042 352.901042 " transform="matrix(0.75,0,0,0.75,0,0)"/>
<path style="fill:none;stroke-width:1;stroke-linecap:butt;stroke-linejoin:miter;stroke:rgb(0%,0%,100%);stroke-opacity:1;stroke-miterlimit:4;" d="M 299.802083 352.302083 L 293.598958 347.802083 " transform="matrix(0.75,0,0,0.75,0,0)"/>
<path style="fill:none;stroke-width:2;stroke-linecap:butt;stroke-linejoin:miter;stroke:rgb(0%,0%,0%);stroke-opacity:1;stroke-miterlimit:4;" d="M 280.098958 373.098958 L 242.197917 369.197917 " transform="matrix(0.75,0,0,0.75,0,0)"/>
<path style="fill:none;stroke-width:2;stroke-linecap:butt;stroke-linejoin:miter;stroke:rgb(0%,0%,0%);stroke-opacity:1;stroke-miterlimit:4;" d="M 245.302083 371.5 L 236.598958 383.598958 " transform="matrix(0.75,0,0,0.75,0,0)"/>
<path style="fill:none;stroke-width:2;stroke-linecap:butt;stroke-linejoin:miter;stroke:rgb(100%,0%,0%);stroke-opacity:1;stroke-miterlimit:4;" d="M 236.598958 383.598958 L 227.901042 395.697917 " transform="matrix(0.75,0,0,0.75,0,0)"/>
<path style="fill:none;stroke-width:2;stroke-linecap:butt;stroke-linejoin:miter;stroke:rgb(0%,0%,0%);stroke-opacity:1;stroke-miterlimit:4;" d="M 239.098958 367 L 230.401042 379.098958 " transform="matrix(0.75,0,0,0.75,0,0)"/>
<path style="fill:none;stroke-width:2;stroke-linecap:butt;stroke-linejoin:miter;stroke:rgb(100%,0%,0%);stroke-opacity:1;stroke-miterlimit:4;" d="M 230.401042 379.098958 L 221.697917 391.197917 " transform="matrix(0.75,0,0,0.75,0,0)"/>
<path style="fill:none;stroke-width:2;stroke-linecap:butt;stroke-linejoin:miter;stroke:rgb(0%,0%,0%);stroke-opacity:1;stroke-miterlimit:4;" d="M 242.197917 369.197917 L 235.901042 355.197917 " transform="matrix(0.75,0,0,0.75,0,0)"/>
<path style="fill:none;stroke-width:2;stroke-linecap:butt;stroke-linejoin:miter;stroke:rgb(0%,0%,100%);stroke-opacity:1;stroke-miterlimit:4;" d="M 235.901042 355.197917 L 229.5 341.197917 " transform="matrix(0.75,0,0,0.75,0,0)"/>
<path style="fill:none;stroke-width:1;stroke-linecap:butt;stroke-linejoin:miter;stroke:rgb(0%,0%,0%);stroke-opacity:1;stroke-miterlimit:4;" d="M 193.802083 331.901042 L 193.901042 330.598958 " transform="matrix(0.75,0,0,0.75,0,0)"/>
<path style="fill:none;stroke-width:1;stroke-linecap:butt;stroke-linejoin:miter;stroke:rgb(0%,0%,0%);stroke-opacity:1;stroke-miterlimit:4;" d="M 198.901042 333 L 199.197917 330.5 " transform="matrix(0.75,0,0,0.75,0,0)"/>
<path style="fill:none;stroke-width:1;stroke-linecap:butt;stroke-linejoin:miter;stroke:rgb(0%,0%,0%);stroke-opacity:1;stroke-miterlimit:4;" d="M 204.098958 334.197917 L 204.5 330.401042 " transform="matrix(0.75,0,0,0.75,0,0)"/>
<path style="fill:none;stroke-width:1;stroke-linecap:butt;stroke-linejoin:miter;stroke:rgb(0%,0%,100%);stroke-opacity:1;stroke-miterlimit:4;" d="M 209.197917 335.302083 L 209.802083 330.302083 " transform="matrix(0.75,0,0,0.75,0,0)"/>
<path style="fill:none;stroke-width:1;stroke-linecap:butt;stroke-linejoin:miter;stroke:rgb(0%,0%,100%);stroke-opacity:1;stroke-miterlimit:4;" d="M 214.401042 336.5 L 215 330.197917 " transform="matrix(0.75,0,0,0.75,0,0)"/>
<path style="fill:none;stroke-width:1;stroke-linecap:butt;stroke-linejoin:miter;stroke:rgb(0%,0%,100%);stroke-opacity:1;stroke-miterlimit:4;" d="M 219.598958 337.598958 L 220.302083 330.098958 " transform="matrix(0.75,0,0,0.75,0,0)"/>
<path style="fill:none;stroke-width:2;stroke-linecap:butt;stroke-linejoin:miter;stroke:rgb(0%,0%,0%);stroke-opacity:1;stroke-miterlimit:4;" d="M 188.598958 330.697917 L 159.098958 354.802083 " transform="matrix(0.75,0,0,0.75,0,0)"/>
<path style="fill:none;stroke-width:2;stroke-linecap:butt;stroke-linejoin:miter;stroke:rgb(0%,0%,0%);stroke-opacity:1;stroke-miterlimit:4;" d="M 162.901042 355.197917 L 161.401042 370.802083 " transform="matrix(0.75,0,0,0.75,0,0)"/>
<path style="fill:none;stroke-width:2;stroke-linecap:butt;stroke-linejoin:miter;stroke:rgb(100%,0%,0%);stroke-opacity:1;stroke-miterlimit:4;" d="M 161.401042 370.802083 L 159.802083 386.401042 " transform="matrix(0.75,0,0,0.75,0,0)"/>
<path style="fill:none;stroke-width:2;stroke-linecap:butt;stroke-linejoin:miter;stroke:rgb(0%,0%,0%);stroke-opacity:1;stroke-miterlimit:4;" d="M 155.302083 354.401042 L 153.802083 370 " transform="matrix(0.75,0,0,0.75,0,0)"/>
<path style="fill:none;stroke-width:2;stroke-linecap:butt;stroke-linejoin:miter;stroke:rgb(100%,0%,0%);stroke-opacity:1;stroke-miterlimit:4;" d="M 153.802083 370 L 152.197917 385.598958 " transform="matrix(0.75,0,0,0.75,0,0)"/>
<path style="fill:none;stroke-width:2;stroke-linecap:butt;stroke-linejoin:miter;stroke:rgb(0%,0%,0%);stroke-opacity:1;stroke-miterlimit:4;" d="M 159.098958 354.802083 L 149.697917 343.302083 " transform="matrix(0.75,0,0,0.75,0,0)"/>
<path style="fill:none;stroke-width:2;stroke-linecap:butt;stroke-linejoin:miter;stroke:rgb(0%,0%,100%);stroke-opacity:1;stroke-miterlimit:4;" d="M 149.697917 343.302083 L 140.401042 331.901042 " transform="matrix(0.75,0,0,0.75,0,0)"/>
<path style="fill:none;stroke-width:2;stroke-linecap:butt;stroke-linejoin:miter;stroke:rgb(0%,0%,100%);stroke-opacity:1;stroke-miterlimit:4;" d="M 129.697917 321.901042 L 116.302083 313.302083 " transform="matrix(0.75,0,0,0.75,0,0)"/>
<path style="fill:none;stroke-width:2;stroke-linecap:butt;stroke-linejoin:miter;stroke:rgb(0%,0%,0%);stroke-opacity:1;stroke-miterlimit:4;" d="M 116.302083 313.302083 L 103 304.697917 " transform="matrix(0.75,0,0,0.75,0,0)"/>
<path style="fill-rule:evenodd;fill:rgb(0%,0%,0%);fill-opacity:1;stroke-width:1;stroke-linecap:butt;stroke-linejoin:miter;stroke:rgb(0%,0%,0%);stroke-opacity:1;stroke-miterlimit:4;" d="M 103 304.697917 L 68.802083 322.098958 L 66.098958 315 Z M 103 304.697917 " transform="matrix(0.75,0,0,0.75,0,0)"/>
<path style="fill:none;stroke-width:2;stroke-linecap:butt;stroke-linejoin:miter;stroke:rgb(0%,0%,0%);stroke-opacity:1;stroke-miterlimit:4;" d="M 65.098958 321.5 L 53.302083 312.098958 " transform="matrix(0.75,0,0,0.75,0,0)"/>
<path style="fill:none;stroke-width:2;stroke-linecap:butt;stroke-linejoin:miter;stroke:rgb(100%,0%,0%);stroke-opacity:1;stroke-miterlimit:4;" d="M 53.302083 312.098958 L 41.598958 302.598958 " transform="matrix(0.75,0,0,0.75,0,0)"/>
<path style="fill:none;stroke-width:2;stroke-linecap:butt;stroke-linejoin:miter;stroke:rgb(0%,0%,0%);stroke-opacity:1;stroke-miterlimit:4;" d="M 69.802083 315.5 L 58.098958 306.098958 " transform="matrix(0.75,0,0,0.75,0,0)"/>
<path style="fill:none;stroke-width:2;stroke-linecap:butt;stroke-linejoin:miter;stroke:rgb(100%,0%,0%);stroke-opacity:1;stroke-miterlimit:4;" d="M 58.098958 306.098958 L 46.302083 296.697917 " transform="matrix(0.75,0,0,0.75,0,0)"/>
<path style="fill:none;stroke-width:2;stroke-linecap:butt;stroke-linejoin:miter;stroke:rgb(0%,0%,0%);stroke-opacity:1;stroke-miterlimit:4;" d="M 67.5 318.5 L 65.098958 334 " transform="matrix(0.75,0,0,0.75,0,0)"/>
<path style="fill:none;stroke-width:2;stroke-linecap:butt;stroke-linejoin:miter;stroke:rgb(100%,0%,0%);stroke-opacity:1;stroke-miterlimit:4;" d="M 65.098958 334 L 62.697917 349.5 " transform="matrix(0.75,0,0,0.75,0,0)"/>
<path style="fill:none;stroke-width:2;stroke-linecap:butt;stroke-linejoin:miter;stroke:rgb(0%,0%,0%);stroke-opacity:1;stroke-miterlimit:4;" d="M 103 304.697917 L 112.697917 267.802083 " transform="matrix(0.75,0,0,0.75,0,0)"/>
<path style="fill:none;stroke-width:2;stroke-linecap:butt;stroke-linejoin:miter;stroke:rgb(0%,0%,0%);stroke-opacity:1;stroke-miterlimit:4;" d="M 112.697917 267.802083 L 75 262.098958 " transform="matrix(0.75,0,0,0.75,0,0)"/>
<path style="fill:none;stroke-width:2;stroke-linecap:butt;stroke-linejoin:miter;stroke:rgb(0%,0%,0%);stroke-opacity:1;stroke-miterlimit:4;" d="M 112.697917 267.802083 L 114.5 229.802083 " transform="matrix(0.75,0,0,0.75,0,0)"/>
<path style="fill:none;stroke-width:2;stroke-linecap:butt;stroke-linejoin:miter;stroke:rgb(0%,0%,0%);stroke-opacity:1;stroke-miterlimit:4;" d="M 112.697917 267.802083 L 129.302083 266.901042 " transform="matrix(0.75,0,0,0.75,0,0)"/>
<path style="fill:none;stroke-width:2;stroke-linecap:butt;stroke-linejoin:miter;stroke:rgb(80%,80%,0%);stroke-opacity:1;stroke-miterlimit:4;" d="M 129.302083 266.901042 L 146 265.901042 " transform="matrix(0.75,0,0,0.75,0,0)"/>
<path style="fill:none;stroke-width:2;stroke-linecap:butt;stroke-linejoin:miter;stroke:rgb(80%,80%,0%);stroke-opacity:1;stroke-miterlimit:4;" d="M 153.401042 272.598958 L 159 286.901042 " transform="matrix(0.75,0,0,0.75,0,0)"/>
<path style="fill:none;stroke-width:2;stroke-linecap:butt;stroke-linejoin:miter;stroke:rgb(0%,0%,0%);stroke-opacity:1;stroke-miterlimit:4;" d="M 159 286.901042 L 164.5 301.197917 " transform="matrix(0.75,0,0,0.75,0,0)"/>
<path style="fill:none;stroke-width:2;stroke-linecap:butt;stroke-linejoin:miter;stroke:rgb(0%,0%,0%);stroke-opacity:1;stroke-miterlimit:4;" d="M 280.098958 373.098958 L 295.802083 407.802083 " transform="matrix(0.75,0,0,0.75,0,0)"/>
<path style="fill:none;stroke-width:2;stroke-linecap:butt;stroke-linejoin:miter;stroke:rgb(0%,0%,0%);stroke-opacity:1;stroke-miterlimit:4;" d="M 295.802083 407.802083 L 273.5 438.697917 " transform="matrix(0.75,0,0,0.75,0,0)"/>
<path style="fill:none;stroke-width:2;stroke-linecap:butt;stroke-linejoin:miter;stroke:rgb(0%,0%,0%);stroke-opacity:1;stroke-miterlimit:4;" d="M 298.598958 416.901042 L 283 438.5 " transform="matrix(0.75,0,0,0.75,0,0)"/>
<path style="fill:none;stroke-width:2;stroke-linecap:butt;stroke-linejoin:miter;stroke:rgb(0%,0%,0%);stroke-opacity:1;stroke-miterlimit:4;" d="M 273.5 438.697917 L 289.197917 473.5 " transform="matrix(0.75,0,0,0.75,0,0)"/>
<path style="fill:none;stroke-width:2;stroke-linecap:butt;stroke-linejoin:miter;stroke:rgb(0%,0%,0%);stroke-opacity:1;stroke-miterlimit:4;" d="M 289.197917 473.5 L 327.098958 477.302083 " transform="matrix(0.75,0,0,0.75,0,0)"/>
<path style="fill:none;stroke-width:2;stroke-linecap:butt;stroke-linejoin:miter;stroke:rgb(0%,0%,0%);stroke-opacity:1;stroke-miterlimit:4;" d="M 295.598958 466.5 L 322.197917 469.098958 " transform="matrix(0.75,0,0,0.75,0,0)"/>
<path style="fill:none;stroke-width:2;stroke-linecap:butt;stroke-linejoin:miter;stroke:rgb(0%,0%,0%);stroke-opacity:1;stroke-miterlimit:4;" d="M 327.098958 477.302083 L 349.302083 446.302083 " transform="matrix(0.75,0,0,0.75,0,0)"/>
<path style="fill:none;stroke-width:2;stroke-linecap:butt;stroke-linejoin:miter;stroke:rgb(0%,0%,0%);stroke-opacity:1;stroke-miterlimit:4;" d="M 349.302083 446.302083 L 333.697917 411.598958 " transform="matrix(0.75,0,0,0.75,0,0)"/>
<path style="fill:none;stroke-width:2;stroke-linecap:butt;stroke-linejoin:miter;stroke:rgb(0%,0%,0%);stroke-opacity:1;stroke-miterlimit:4;" d="M 340 444.302083 L 329.098958 419.901042 " transform="matrix(0.75,0,0,0.75,0,0)"/>
<path style="fill:none;stroke-width:2;stroke-linecap:butt;stroke-linejoin:miter;stroke:rgb(0%,0%,100%);stroke-opacity:1;stroke-miterlimit:4;" d="M 359.5 308.401042 L 353.197917 294.302083 " transform="matrix(0.75,0,0,0.75,0,0)"/>
<path style="fill:none;stroke-width:2;stroke-linecap:butt;stroke-linejoin:miter;stroke:rgb(0%,0%,0%);stroke-opacity:1;stroke-miterlimit:4;" d="M 353.197917 294.302083 L 346.901042 280.302083 " transform="matrix(0.75,0,0,0.75,0,0)"/>
<path style="fill:none;stroke-width:2;stroke-linecap:butt;stroke-linejoin:miter;stroke:rgb(0%,0%,0%);stroke-opacity:1;stroke-miterlimit:4;" d="M 346.5 284.098958 L 330.598958 282.5 " transform="matrix(0.75,0,0,0.75,0,0)"/>
<path style="fill:none;stroke-width:2;stroke-linecap:butt;stroke-linejoin:miter;stroke:rgb(100%,0%,0%);stroke-opacity:1;stroke-miterlimit:4;" d="M 330.598958 282.5 L 314.802083 280.901042 " transform="matrix(0.75,0,0,0.75,0,0)"/>
<path style="fill:none;stroke-width:2;stroke-linecap:butt;stroke-linejoin:miter;stroke:rgb(0%,0%,0%);stroke-opacity:1;stroke-miterlimit:4;" d="M 347.302083 276.5 L 331.401042 274.901042 " transform="matrix(0.75,0,0,0.75,0,0)"/>
<path style="fill:none;stroke-width:2;stroke-linecap:butt;stroke-linejoin:miter;stroke:rgb(100%,0%,0%);stroke-opacity:1;stroke-miterlimit:4;" d="M 331.401042 274.901042 L 315.598958 273.302083 " transform="matrix(0.75,0,0,0.75,0,0)"/>
<path style="fill:none;stroke-width:2;stroke-linecap:butt;stroke-linejoin:miter;stroke:rgb(0%,0%,0%);stroke-opacity:1;stroke-miterlimit:4;" d="M 346.901042 280.302083 L 369.098958 249.302083 " transform="matrix(0.75,0,0,0.75,0,0)"/>
<path style="fill:none;stroke-width:2;stroke-linecap:butt;stroke-linejoin:miter;stroke:rgb(0%,0%,0%);stroke-opacity:1;stroke-miterlimit:4;" d="M 365.697917 250.901042 L 359.401042 237 " transform="matrix(0.75,0,0,0.75,0,0)"/>
<path style="fill:none;stroke-width:2;stroke-linecap:butt;stroke-linejoin:miter;stroke:rgb(100%,0%,0%);stroke-opacity:1;stroke-miterlimit:4;" d="M 359.401042 237 L 353.098958 223.098958 " transform="matrix(0.75,0,0,0.75,0,0)"/>
<path style="fill:none;stroke-width:2;stroke-linecap:butt;stroke-linejoin:miter;stroke:rgb(0%,0%,0%);stroke-opacity:1;stroke-miterlimit:4;" d="M 372.598958 247.802083 L 366.302083 233.901042 " transform="matrix(0.75,0,0,0.75,0,0)"/>
<path style="fill:none;stroke-width:2;stroke-linecap:butt;stroke-linejoin:miter;stroke:rgb(100%,0%,0%);stroke-opacity:1;stroke-miterlimit:4;" d="M 366.302083 233.901042 L 360.098958 219.901042 " transform="matrix(0.75,0,0,0.75,0,0)"/>
<path style="fill-rule:evenodd;fill:rgb(0%,0%,0%);fill-opacity:1;stroke-width:1;stroke-linecap:butt;stroke-linejoin:miter;stroke:rgb(0%,0%,0%);stroke-opacity:1;stroke-miterlimit:4;" d="M 252 93.901042 L 221.098958 71.302083 L 226.197917 65.598958 Z M 252 93.901042 " transform="matrix(0.75,0,0,0.75,0,0)"/>
<path style="fill:none;stroke-width:2;stroke-linecap:butt;stroke-linejoin:miter;stroke:rgb(0%,0%,0%);stroke-opacity:1;stroke-miterlimit:4;" d="M 252 93.901042 L 223.697917 119.401042 " transform="matrix(0.75,0,0,0.75,0,0)"/>
<path style="fill:none;stroke-width:2;stroke-linecap:butt;stroke-linejoin:miter;stroke:rgb(0%,0%,0%);stroke-opacity:1;stroke-miterlimit:4;" d="M 223.697917 119.401042 L 208.302083 114.401042 " transform="matrix(0.75,0,0,0.75,0,0)"/>
<path style="fill:none;stroke-width:2;stroke-linecap:butt;stroke-linejoin:miter;stroke:rgb(0%,0%,100%);stroke-opacity:1;stroke-miterlimit:4;" d="M 208.302083 114.401042 L 192.802083 109.401042 " transform="matrix(0.75,0,0,0.75,0,0)"/>
<path style="fill:none;stroke-width:2;stroke-linecap:butt;stroke-linejoin:miter;stroke:rgb(0%,0%,100%);stroke-opacity:1;stroke-miterlimit:4;" d="M 182.098958 111.598958 L 169.401042 120.901042 " transform="matrix(0.75,0,0,0.75,0,0)"/>
<path style="fill:none;stroke-width:2;stroke-linecap:butt;stroke-linejoin:miter;stroke:rgb(0%,0%,0%);stroke-opacity:1;stroke-miterlimit:4;" d="M 169.401042 120.901042 L 156.697917 130.197917 " transform="matrix(0.75,0,0,0.75,0,0)"/>
<path style="fill:none;stroke-width:2;stroke-linecap:butt;stroke-linejoin:miter;stroke:rgb(0%,0%,0%);stroke-opacity:1;stroke-miterlimit:4;" d="M 156.697917 130.197917 L 125.802083 107.802083 " transform="matrix(0.75,0,0,0.75,0,0)"/>
<path style="fill:none;stroke-width:2;stroke-linecap:butt;stroke-linejoin:miter;stroke:rgb(0%,0%,0%);stroke-opacity:1;stroke-miterlimit:4;" d="M 156.5 120.598958 L 134.901042 105 " transform="matrix(0.75,0,0,0.75,0,0)"/>
<path style="fill:none;stroke-width:2;stroke-linecap:butt;stroke-linejoin:miter;stroke:rgb(0%,0%,0%);stroke-opacity:1;stroke-miterlimit:4;" d="M 125.802083 107.802083 L 130.598958 93 " transform="matrix(0.75,0,0,0.75,0,0)"/>
<path style="fill:none;stroke-width:2;stroke-linecap:butt;stroke-linejoin:miter;stroke:rgb(0%,0%,100%);stroke-opacity:1;stroke-miterlimit:4;" d="M 130.598958 93 L 135.401042 78.197917 " transform="matrix(0.75,0,0,0.75,0,0)"/>
<path style="fill:none;stroke-width:2;stroke-linecap:butt;stroke-linejoin:miter;stroke:rgb(0%,0%,100%);stroke-opacity:1;stroke-miterlimit:4;" d="M 142.901042 71.598958 L 170.302083 71.5 " transform="matrix(0.75,0,0,0.75,0,0)"/>
<path style="fill:none;stroke-width:2;stroke-linecap:butt;stroke-linejoin:miter;stroke:rgb(0%,0%,100%);stroke-opacity:1;stroke-miterlimit:4;" d="M 147 79.197917 L 166.197917 79.098958 " transform="matrix(0.75,0,0,0.75,0,0)"/>
<path style="fill:none;stroke-width:2;stroke-linecap:butt;stroke-linejoin:miter;stroke:rgb(0%,0%,0%);stroke-opacity:1;stroke-miterlimit:4;" d="M 252 93.901042 L 274.5 124.697917 " transform="matrix(0.75,0,0,0.75,0,0)"/>
<path style="fill-rule:evenodd;fill:rgb(0%,0%,0%);fill-opacity:1;stroke-width:1;stroke-linecap:butt;stroke-linejoin:miter;stroke:rgb(0%,0%,0%);stroke-opacity:1;stroke-miterlimit:4;" d="M 274.5 124.697917 L 266.401042 162.098958 L 259.098958 159.802083 Z M 274.5 124.697917 " transform="matrix(0.75,0,0,0.75,0,0)"/>
<path style="fill:none;stroke-width:2;stroke-linecap:butt;stroke-linejoin:miter;stroke:rgb(0%,0%,0%);stroke-opacity:1;stroke-miterlimit:4;" d="M 263.5 164.697917 L 248 168 " transform="matrix(0.75,0,0,0.75,0,0)"/>
<path style="fill:none;stroke-width:2;stroke-linecap:butt;stroke-linejoin:miter;stroke:rgb(100%,0%,0%);stroke-opacity:1;stroke-miterlimit:4;" d="M 248 168 L 232.5 171.302083 " transform="matrix(0.75,0,0,0.75,0,0)"/>
<path style="fill:none;stroke-width:2;stroke-linecap:butt;stroke-linejoin:miter;stroke:rgb(0%,0%,0%);stroke-opacity:1;stroke-miterlimit:4;" d="M 261.901042 157.197917 L 246.401042 160.5 " transform="matrix(0.75,0,0,0.75,0,0)"/>
<path style="fill:none;stroke-width:2;stroke-linecap:butt;stroke-linejoin:miter;stroke:rgb(100%,0%,0%);stroke-opacity:1;stroke-miterlimit:4;" d="M 246.401042 160.5 L 230.901042 163.901042 " transform="matrix(0.75,0,0,0.75,0,0)"/>
<path style="fill:none;stroke-width:2;stroke-linecap:butt;stroke-linejoin:miter;stroke:rgb(0%,0%,0%);stroke-opacity:1;stroke-miterlimit:4;" d="M 262.697917 160.901042 L 272.5 171.697917 " transform="matrix(0.75,0,0,0.75,0,0)"/>
<path style="fill:none;stroke-width:2;stroke-linecap:butt;stroke-linejoin:miter;stroke:rgb(100%,0%,0%);stroke-opacity:1;stroke-miterlimit:4;" d="M 272.5 171.697917 L 282.197917 182.5 " transform="matrix(0.75,0,0,0.75,0,0)"/>
<path style="fill:none;stroke-width:2;stroke-linecap:butt;stroke-linejoin:miter;stroke:rgb(0%,0%,0%);stroke-opacity:1;stroke-miterlimit:4;" d="M 274.5 124.697917 L 289.901042 119.598958 " transform="matrix(0.75,0,0,0.75,0,0)"/>
<path style="fill:none;stroke-width:2;stroke-linecap:butt;stroke-linejoin:miter;stroke:rgb(0%,0%,100%);stroke-opacity:1;stroke-miterlimit:4;" d="M 289.901042 119.598958 L 305.302083 114.598958 " transform="matrix(0.75,0,0,0.75,0,0)"/>
<path style="fill:none;stroke-width:2;stroke-linecap:butt;stroke-linejoin:miter;stroke:rgb(0%,0%,100%);stroke-opacity:1;stroke-miterlimit:4;" d="M 316 112.802083 L 332.401042 112.802083 " transform="matrix(0.75,0,0,0.75,0,0)"/>
<path style="fill:none;stroke-width:2;stroke-linecap:butt;stroke-linejoin:miter;stroke:rgb(0%,0%,0%);stroke-opacity:1;stroke-miterlimit:4;" d="M 332.401042 112.802083 L 348.802083 112.802083 " transform="matrix(0.75,0,0,0.75,0,0)"/>
<path style="fill:none;stroke-width:2;stroke-linecap:butt;stroke-linejoin:miter;stroke:rgb(0%,0%,0%);stroke-opacity:1;stroke-miterlimit:4;" d="M 351.5 110.098958 L 361.901042 120.401042 " transform="matrix(0.75,0,0,0.75,0,0)"/>
<path style="fill:none;stroke-width:2;stroke-linecap:butt;stroke-linejoin:miter;stroke:rgb(100%,0%,0%);stroke-opacity:1;stroke-miterlimit:4;" d="M 361.901042 120.401042 L 372.197917 130.802083 " transform="matrix(0.75,0,0,0.75,0,0)"/>
<path style="fill:none;stroke-width:2;stroke-linecap:butt;stroke-linejoin:miter;stroke:rgb(0%,0%,0%);stroke-opacity:1;stroke-miterlimit:4;" d="M 346.098958 115.5 L 356.5 125.802083 " transform="matrix(0.75,0,0,0.75,0,0)"/>
<path style="fill:none;stroke-width:2;stroke-linecap:butt;stroke-linejoin:miter;stroke:rgb(100%,0%,0%);stroke-opacity:1;stroke-miterlimit:4;" d="M 356.5 125.802083 L 366.901042 136.197917 " transform="matrix(0.75,0,0,0.75,0,0)"/>
<path style="fill:none;stroke-width:2;stroke-linecap:butt;stroke-linejoin:miter;stroke:rgb(0%,0%,0%);stroke-opacity:1;stroke-miterlimit:4;" d="M 348.802083 112.802083 L 348.697917 74.697917 " transform="matrix(0.75,0,0,0.75,0,0)"/>
<path style="fill:none;stroke-width:2;stroke-linecap:butt;stroke-linejoin:miter;stroke:rgb(0%,0%,0%);stroke-opacity:1;stroke-miterlimit:4;" d="M 348.697917 74.697917 L 310.598958 74.697917 " transform="matrix(0.75,0,0,0.75,0,0)"/>
<path style="fill:none;stroke-width:2;stroke-linecap:butt;stroke-linejoin:miter;stroke:rgb(0%,0%,0%);stroke-opacity:1;stroke-miterlimit:4;" d="M 310.598958 74.697917 L 294.802083 69.598958 " transform="matrix(0.75,0,0,0.75,0,0)"/>
<path style="fill:none;stroke-width:2;stroke-linecap:butt;stroke-linejoin:miter;stroke:rgb(80%,80%,0%);stroke-opacity:1;stroke-miterlimit:4;" d="M 294.802083 69.598958 L 279.098958 64.5 " transform="matrix(0.75,0,0,0.75,0,0)"/>
<path style="fill:none;stroke-width:2;stroke-linecap:butt;stroke-linejoin:miter;stroke:rgb(80%,80%,0%);stroke-opacity:1;stroke-miterlimit:4;" d="M 273.802083 54.802083 L 278.5 44.197917 " transform="matrix(0.75,0,0,0.75,0,0)"/>
<path style="fill:none;stroke-width:2;stroke-linecap:butt;stroke-linejoin:miter;stroke:rgb(100%,0%,0%);stroke-opacity:1;stroke-miterlimit:4;" d="M 278.5 44.197917 L 283.302083 33.5 " transform="matrix(0.75,0,0,0.75,0,0)"/>
<path style="fill:none;stroke-width:2;stroke-linecap:butt;stroke-linejoin:miter;stroke:rgb(80%,80%,0%);stroke-opacity:1;stroke-miterlimit:4;" d="M 280.802083 57.901042 L 285.5 47.302083 " transform="matrix(0.75,0,0,0.75,0,0)"/>
<path style="fill:none;stroke-width:2;stroke-linecap:butt;stroke-linejoin:miter;stroke:rgb(100%,0%,0%);stroke-opacity:1;stroke-miterlimit:4;" d="M 285.5 47.302083 L 290.197917 36.598958 " transform="matrix(0.75,0,0,0.75,0,0)"/>
<path style="fill:none;stroke-width:2;stroke-linecap:butt;stroke-linejoin:miter;stroke:rgb(80%,80%,0%);stroke-opacity:1;stroke-miterlimit:4;" d="M 267.697917 63.598958 L 256.697917 57.302083 " transform="matrix(0.75,0,0,0.75,0,0)"/>
<path style="fill:none;stroke-width:2;stroke-linecap:butt;stroke-linejoin:miter;stroke:rgb(100%,0%,0%);stroke-opacity:1;stroke-miterlimit:4;" d="M 256.697917 57.302083 L 245.598958 50.901042 " transform="matrix(0.75,0,0,0.75,0,0)"/>
<path style="fill:none;stroke-width:2;stroke-linecap:butt;stroke-linejoin:miter;stroke:rgb(80%,80%,0%);stroke-opacity:1;stroke-miterlimit:4;" d="M 271.5 57 L 260.5 50.598958 " transform="matrix(0.75,0,0,0.75,0,0)"/>
<path style="fill:none;stroke-width:2;stroke-linecap:butt;stroke-linejoin:miter;stroke:rgb(100%,0%,0%);stroke-opacity:1;stroke-miterlimit:4;" d="M 260.5 50.598958 L 249.401042 44.302083 " transform="matrix(0.75,0,0,0.75,0,0)"/>
<path style="fill:none;stroke-width:2;stroke-linecap:butt;stroke-linejoin:miter;stroke:rgb(0%,0%,0%);stroke-opacity:1;stroke-miterlimit:4;" d="M 369.098958 249.302083 L 385.401042 251 " transform="matrix(0.75,0,0,0.75,0,0)"/>
<path style="fill:none;stroke-width:2;stroke-linecap:butt;stroke-linejoin:miter;stroke:rgb(0%,0%,100%);stroke-opacity:1;stroke-miterlimit:4;" d="M 385.401042 251 L 401.697917 252.598958 " transform="matrix(0.75,0,0,0.75,0,0)"/>
<path style="fill:none;stroke-width:2;stroke-linecap:butt;stroke-linejoin:miter;stroke:rgb(80%,80%,0%);stroke-opacity:1;stroke-miterlimit:4;" d="M 269.598958 69.5 L 260.802083 81.697917 " transform="matrix(0.75,0,0,0.75,0,0)"/>
<path style="fill:none;stroke-width:2;stroke-linecap:butt;stroke-linejoin:miter;stroke:rgb(0%,0%,0%);stroke-opacity:1;stroke-miterlimit:4;" d="M 260.802083 81.697917 L 252 93.901042 " transform="matrix(0.75,0,0,0.75,0,0)"/>
<path style="fill:none;stroke-width:2;stroke-linecap:butt;stroke-linejoin:miter;stroke:rgb(0%,0%,0%);stroke-opacity:1;stroke-miterlimit:4;" d="M 164.5 301.197917 L 188.598958 330.697917 " transform="matrix(0.75,0,0,0.75,0,0)"/>
<path style="fill:none;stroke-width:2;stroke-linecap:butt;stroke-linejoin:miter;stroke:rgb(0%,0%,0%);stroke-opacity:1;stroke-miterlimit:4;" d="M 333.697917 411.598958 L 295.802083 407.802083 " transform="matrix(0.75,0,0,0.75,0,0)"/>
<path style="fill:none;stroke-width:2;stroke-linecap:butt;stroke-linejoin:miter;stroke:rgb(0%,0%,100%);stroke-opacity:1;stroke-miterlimit:4;" d="M 177.802083 78.098958 L 185.302083 101.098958 " transform="matrix(0.75,0,0,0.75,0,0)"/>
<path style="fill:none;stroke-width:2;stroke-linecap:butt;stroke-linejoin:miter;stroke:rgb(0%,0%,0%);stroke-opacity:1;stroke-miterlimit:4;" d="M 310.598958 74.697917 L 310.598958 90.5 " transform="matrix(0.75,0,0,0.75,0,0)"/>
<path style="fill:none;stroke-width:2;stroke-linecap:butt;stroke-linejoin:miter;stroke:rgb(0%,0%,100%);stroke-opacity:1;stroke-miterlimit:4;" d="M 310.598958 90.5 L 310.697917 106.197917 " transform="matrix(0.75,0,0,0.75,0,0)"/>
<path style="fill:none;stroke-width:2;stroke-linecap:butt;stroke-linejoin:miter;stroke:rgb(0%,0%,0%);stroke-opacity:1;stroke-miterlimit:4;" d="M 164.5 301.197917 L 152.401042 311.098958 " transform="matrix(0.75,0,0,0.75,0,0)"/>
<path style="fill:none;stroke-width:2;stroke-linecap:butt;stroke-linejoin:miter;stroke:rgb(0%,0%,100%);stroke-opacity:1;stroke-miterlimit:4;" d="M 152.401042 311.098958 L 140.401042 320.901042 " transform="matrix(0.75,0,0,0.75,0,0)"/>
<path style="fill-rule:evenodd;fill:rgb(0%,0%,0%);fill-opacity:1;stroke-width:1;stroke-linecap:butt;stroke-linejoin:miter;stroke:rgb(0%,0%,0%);stroke-opacity:1;stroke-miterlimit:4;" d="M 164.5 301.197917 L 188.802083 282.598958 L 192.598958 289.197917 Z M 164.5 301.197917 " transform="matrix(0.75,0,0,0.75,0,0)"/>
<path style="fill-rule:evenodd;fill:rgb(0%,0%,0%);fill-opacity:1;stroke-width:1;stroke-linecap:butt;stroke-linejoin:miter;stroke:rgb(0%,0%,0%);stroke-opacity:1;stroke-miterlimit:4;" d="M 310.598958 74.697917 L 311.5 44.401042 L 319 45.598958 Z M 310.598958 74.697917 " transform="matrix(0.75,0,0,0.75,0,0)"/>
<path style=" stroke:none;fill-rule:nonzero;fill:rgb(0%,0%,100%);fill-opacity:1;" d="M 303.523438 185.851562 L 306.148438 190.125 C 306.351562 190.375 306.574219 190.773438 306.824219 191.324219 C 307.125 191.824219 307.273438 192.074219 307.273438 192.074219 L 307.273438 185.851562 L 308.324219 185.851562 L 308.324219 193.949219 L 307.273438 193.949219 L 304.425781 189.226562 C 304.175781 188.875 303.949219 188.476562 303.75 188.023438 C 303.5 187.625 303.351562 187.351562 303.300781 187.199219 L 303.300781 193.949219 L 302.25 193.949219 L 302.25 185.851562 L 303.523438 185.851562 "/>
<path style=" stroke:none;fill-rule:nonzero;fill:rgb(0%,0%,100%);fill-opacity:1;" d="M 270.148438 232.199219 L 272.773438 236.476562 C 272.925781 236.773438 273.148438 237.175781 273.449219 237.675781 C 273.75 238.175781 273.898438 238.449219 273.898438 238.5 L 273.898438 232.199219 L 274.949219 232.199219 L 274.949219 240.300781 L 273.898438 240.300781 L 271.050781 235.648438 C 270.800781 235.25 270.550781 234.851562 270.300781 234.449219 C 270.101562 234.050781 269.949219 233.773438 269.851562 233.625 L 269.851562 240.300781 L 268.800781 240.300781 L 268.800781 232.199219 L 270.148438 232.199219 "/>
<path style=" stroke:none;fill-rule:nonzero;fill:rgb(100%,0%,0%);fill-opacity:1;" d="M 263.25 285.523438 C 263.25 284.226562 263.574219 283.226562 264.226562 282.523438 C 264.824219 281.773438 265.726562 281.398438 266.925781 281.398438 C 268.125 281.398438 269.050781 281.773438 269.699219 282.523438 C 270.351562 283.226562 270.675781 284.226562 270.675781 285.523438 C 270.675781 286.824219 270.351562 287.851562 269.699219 288.601562 C 269.050781 289.351562 268.125 289.726562 266.925781 289.726562 C 265.773438 289.726562 264.875 289.351562 264.226562 288.601562 C 263.574219 287.851562 263.25 286.824219 263.25 285.523438 M 266.925781 288.824219 C 267.773438 288.824219 268.425781 288.550781 268.875 288 C 269.324219 287.449219 269.550781 286.625 269.550781 285.523438 C 269.550781 284.476562 269.324219 283.675781 268.875 283.125 C 268.425781 282.574219 267.773438 282.300781 266.925781 282.300781 C 266.125 282.300781 265.5 282.574219 265.050781 283.125 C 264.601562 283.675781 264.375 284.476562 264.375 285.523438 C 264.375 286.625 264.601562 287.449219 265.050781 288 C 265.5 288.550781 266.125 288.824219 266.925781 288.824219 "/>
<path style=" stroke:none;fill-rule:nonzero;fill:rgb(0%,0%,100%);fill-opacity:1;" d="M 216.375 252.523438 L 217.5 252.523438 L 217.5 255.976562 L 221.625 255.976562 L 221.625 252.523438 L 222.75 252.523438 L 222.75 260.625 L 221.625 260.625 L 221.625 256.875 L 217.5 256.875 L 217.5 260.625 L 216.375 260.625 L 216.375 252.523438 "/>
<path style=" stroke:none;fill-rule:nonzero;fill:rgb(0%,0%,100%);fill-opacity:1;" d="M 225 252.523438 L 227.625 256.800781 C 227.824219 257.101562 228.050781 257.5 228.300781 258 C 228.601562 258.550781 228.75 258.824219 228.75 258.824219 L 228.75 252.523438 L 229.875 252.523438 L 229.875 260.625 L 228.75 260.625 L 225.898438 255.976562 C 225.648438 255.574219 225.425781 255.175781 225.226562 254.773438 C 224.976562 254.375 224.824219 254.101562 224.773438 253.949219 L 224.773438 260.625 L 223.726562 260.625 L 223.726562 252.523438 L 225 252.523438 "/>
<path style=" stroke:none;fill-rule:nonzero;fill:rgb(100%,0%,0%);fill-opacity:1;" d="M 161.25 300.148438 C 161.25 298.851562 161.574219 297.851562 162.226562 297.148438 C 162.824219 296.398438 163.726562 296.023438 164.925781 296.023438 C 166.125 296.023438 167.050781 296.398438 167.699219 297.148438 C 168.351562 297.851562 168.675781 298.851562 168.675781 300.148438 C 168.675781 301.449219 168.351562 302.476562 167.699219 303.226562 C 167.050781 303.976562 166.125 304.351562 164.925781 304.351562 C 163.773438 304.351562 162.875 303.976562 162.226562 303.226562 C 161.574219 302.476562 161.25 301.449219 161.25 300.148438 M 164.925781 303.449219 C 165.773438 303.449219 166.425781 303.175781 166.875 302.625 C 167.324219 302.074219 167.550781 301.25 167.550781 300.148438 C 167.550781 299.101562 167.324219 298.300781 166.875 297.75 C 166.425781 297.199219 165.773438 296.925781 164.925781 296.925781 C 164.125 296.925781 163.5 297.199219 163.050781 297.75 C 162.601562 298.300781 162.375 299.101562 162.375 300.148438 C 162.375 301.25 162.601562 302.074219 163.050781 302.625 C 163.5 303.175781 164.125 303.449219 164.925781 303.449219 "/>
<path style=" stroke:none;fill-rule:nonzero;fill:rgb(0%,0%,100%);fill-opacity:1;" d="M 168.148438 246.824219 L 170.773438 251.101562 C 170.925781 251.398438 171.148438 251.800781 171.449219 252.300781 C 171.75 252.800781 171.898438 253.074219 171.898438 253.125 L 171.898438 246.824219 L 172.949219 246.824219 L 172.949219 254.925781 L 171.898438 254.925781 L 169.050781 250.273438 C 168.800781 249.875 168.550781 249.476562 168.300781 249.074219 C 168.101562 248.625 167.976562 248.351562 167.925781 248.25 L 167.925781 254.925781 L 166.875 254.925781 L 166.875 246.824219 L 168.148438 246.824219 "/>
<path style=" stroke:none;fill-rule:nonzero;fill:rgb(0%,0%,100%);fill-opacity:1;" d="M 173.925781 246.824219 L 175.050781 246.824219 L 175.050781 250.273438 L 179.175781 250.273438 L 179.175781 246.824219 L 180.226562 246.824219 L 180.226562 254.925781 L 179.175781 254.925781 L 179.175781 251.175781 L 175.050781 251.175781 L 175.050781 254.925781 L 173.925781 254.925781 L 173.925781 246.824219 "/>
<path style=" stroke:none;fill-rule:nonzero;fill:rgb(100%,0%,0%);fill-opacity:1;" d="M 112.800781 294.601562 C 112.800781 293.300781 113.101562 292.273438 113.699219 291.523438 C 114.351562 290.824219 115.273438 290.476562 116.476562 290.476562 C 117.675781 290.476562 118.601562 290.824219 119.25 291.523438 C 119.898438 292.273438 120.226562 293.300781 120.226562 294.601562 C 120.226562 295.898438 119.898438 296.925781 119.25 297.675781 C 118.601562 298.375 117.675781 298.726562 116.476562 298.726562 C 115.273438 298.726562 114.351562 298.375 113.699219 297.675781 C 113.101562 296.925781 112.800781 295.898438 112.800781 294.601562 M 116.476562 297.824219 C 117.324219 297.824219 117.949219 297.550781 118.351562 297 C 118.800781 296.449219 119.023438 295.648438 119.023438 294.601562 C 119.023438 293.5 118.800781 292.699219 118.351562 292.199219 C 117.949219 291.648438 117.324219 291.375 116.476562 291.375 C 115.675781 291.375 115.050781 291.648438 114.601562 292.199219 C 114.148438 292.699219 113.925781 293.5 113.925781 294.601562 C 113.925781 295.648438 114.148438 296.449219 114.601562 297 C 115.050781 297.550781 115.675781 297.824219 116.476562 297.824219 "/>
<path style=" stroke:none;fill-rule:nonzero;fill:rgb(0%,0%,100%);fill-opacity:1;" d="M 99.449219 239.925781 L 102.148438 244.199219 C 102.300781 244.5 102.523438 244.898438 102.824219 245.398438 C 103.074219 245.898438 103.226562 246.175781 103.273438 246.226562 L 103.273438 239.925781 L 104.324219 239.925781 L 104.324219 248.023438 L 103.199219 248.023438 L 100.351562 243.375 C 100.148438 242.976562 99.925781 242.574219 99.675781 242.175781 C 99.476562 241.726562 99.324219 241.449219 99.226562 241.351562 L 99.226562 248.023438 L 98.175781 248.023438 L 98.175781 239.925781 L 99.449219 239.925781 "/>
<path style=" stroke:none;fill-rule:nonzero;fill:rgb(100%,0%,0%);fill-opacity:1;" d="M 24.601562 221.023438 C 24.601562 219.726562 24.925781 218.726562 25.574219 218.023438 C 26.175781 217.273438 27.074219 216.898438 28.273438 216.898438 C 29.476562 216.898438 30.398438 217.273438 31.050781 218.023438 C 31.699219 218.726562 32.023438 219.726562 32.023438 221.023438 C 32.023438 222.324219 31.699219 223.351562 31.050781 224.101562 C 30.398438 224.851562 29.476562 225.226562 28.273438 225.226562 C 27.125 225.226562 26.226562 224.851562 25.574219 224.101562 C 24.925781 223.351562 24.601562 222.324219 24.601562 221.023438 M 28.273438 224.324219 C 29.125 224.324219 29.773438 224.050781 30.226562 223.5 C 30.675781 222.949219 30.898438 222.125 30.898438 221.023438 C 30.898438 219.976562 30.675781 219.175781 30.226562 218.625 C 29.773438 218.074219 29.125 217.800781 28.273438 217.800781 C 27.476562 217.800781 26.851562 218.074219 26.398438 218.625 C 25.949219 219.175781 25.726562 219.976562 25.726562 221.023438 C 25.726562 222.125 25.949219 222.949219 26.398438 223.5 C 26.851562 224.050781 27.476562 224.324219 28.273438 224.324219 "/>
<path style=" stroke:none;fill-rule:nonzero;fill:rgb(100%,0%,0%);fill-opacity:1;" d="M 42.523438 267.148438 C 42.523438 265.851562 42.851562 264.851562 43.5 264.148438 C 44.148438 263.398438 45.074219 263.023438 46.273438 263.023438 C 47.476562 263.023438 48.375 263.398438 48.976562 264.148438 C 49.625 264.851562 49.949219 265.851562 49.949219 267.148438 C 49.949219 268.449219 49.625 269.476562 48.976562 270.226562 C 48.324219 270.976562 47.425781 271.351562 46.273438 271.351562 C 45.074219 271.351562 44.148438 270.976562 43.5 270.226562 C 42.851562 269.476562 42.523438 268.449219 42.523438 267.148438 M 46.273438 270.449219 C 47.074219 270.449219 47.699219 270.175781 48.148438 269.625 C 48.601562 269.074219 48.824219 268.25 48.824219 267.148438 C 48.824219 266.101562 48.601562 265.300781 48.148438 264.75 C 47.699219 264.199219 47.074219 263.925781 46.273438 263.925781 C 45.425781 263.925781 44.773438 264.199219 44.324219 264.75 C 43.875 265.300781 43.648438 266.101562 43.648438 267.148438 C 43.648438 268.25 43.875 269.074219 44.324219 269.625 C 44.773438 270.175781 45.425781 270.449219 46.273438 270.449219 "/>
<path style=" stroke:none;fill-rule:nonzero;fill:rgb(100%,0%,0%);fill-opacity:1;" d="M 50.550781 263.101562 L 51.601562 263.101562 L 51.601562 266.550781 L 55.800781 266.550781 L 55.800781 263.101562 L 56.851562 263.101562 L 56.851562 271.199219 L 55.800781 271.199219 L 55.800781 267.449219 L 51.601562 267.449219 L 51.601562 271.199219 L 50.550781 271.199219 L 50.550781 263.101562 "/>
<path style=" stroke:none;fill-rule:nonzero;fill:rgb(80%,80%,0%);fill-opacity:1;" d="M 110.773438 202.050781 C 110.824219 202.050781 110.976562 202.101562 111.226562 202.199219 C 111.476562 202.351562 111.726562 202.449219 111.976562 202.5 C 112.273438 202.550781 112.550781 202.574219 112.800781 202.574219 C 113.351562 202.574219 113.773438 202.449219 114.074219 202.199219 C 114.375 201.949219 114.523438 201.625 114.523438 201.226562 C 114.523438 200.925781 114.425781 200.675781 114.226562 200.476562 C 114.125 200.273438 113.949219 200.125 113.699219 200.023438 C 113.449219 199.925781 113.148438 199.824219 112.800781 199.726562 C 112.300781 199.574219 111.898438 199.425781 111.601562 199.273438 C 111.351562 199.175781 111.125 198.976562 110.925781 198.675781 C 110.726562 198.375 110.625 197.976562 110.625 197.476562 C 110.625 196.824219 110.851562 196.273438 111.300781 195.824219 C 111.75 195.425781 112.425781 195.226562 113.324219 195.226562 C 113.976562 195.226562 114.648438 195.375 115.351562 195.675781 L 115.125 196.574219 C 114.476562 196.273438 113.898438 196.125 113.398438 196.125 C 112.851562 196.125 112.449219 196.25 112.199219 196.5 C 111.898438 196.699219 111.75 197 111.75 197.398438 C 111.75 197.648438 111.824219 197.875 111.976562 198.074219 C 112.125 198.226562 112.300781 198.351562 112.5 198.449219 C 112.75 198.550781 113.050781 198.675781 113.398438 198.824219 C 113.898438 198.976562 114.273438 199.125 114.523438 199.273438 C 114.824219 199.425781 115.074219 199.648438 115.273438 199.949219 C 115.523438 200.25 115.648438 200.675781 115.648438 201.226562 C 115.648438 201.976562 115.398438 202.550781 114.898438 202.949219 C 114.398438 203.351562 113.726562 203.550781 112.875 203.550781 C 112.375 203.550781 111.949219 203.476562 111.601562 203.324219 C 111.25 203.226562 110.851562 203.101562 110.398438 202.949219 L 110.773438 202.050781 "/>
<path style=" stroke:none;fill-rule:nonzero;fill:rgb(100%,0%,0%);fill-opacity:1;" d="M 228 207.375 C 228 206.074219 228.324219 205.074219 228.976562 204.375 C 229.625 203.625 230.550781 203.25 231.75 203.25 C 232.949219 203.25 233.851562 203.625 234.449219 204.375 C 235.101562 205.074219 235.425781 206.074219 235.425781 207.375 C 235.425781 208.675781 235.101562 209.699219 234.449219 210.449219 C 233.800781 211.199219 232.898438 211.574219 231.75 211.574219 C 230.550781 211.574219 229.625 211.199219 228.976562 210.449219 C 228.324219 209.699219 228 208.675781 228 207.375 M 231.75 210.675781 C 232.550781 210.675781 233.175781 210.398438 233.625 209.851562 C 234.074219 209.300781 234.300781 208.476562 234.300781 207.375 C 234.300781 206.324219 234.074219 205.523438 233.625 204.976562 C 233.175781 204.425781 232.550781 204.148438 231.75 204.148438 C 230.898438 204.148438 230.25 204.425781 229.800781 204.976562 C 229.351562 205.523438 229.125 206.324219 229.125 207.375 C 229.125 208.476562 229.351562 209.300781 229.800781 209.851562 C 230.25 210.398438 230.898438 210.675781 231.75 210.675781 "/>
<path style=" stroke:none;fill-rule:nonzero;fill:rgb(100%,0%,0%);fill-opacity:1;" d="M 261.375 160.949219 C 261.375 159.648438 261.699219 158.648438 262.351562 157.949219 C 263 157.25 263.925781 156.898438 265.125 156.898438 C 266.324219 156.898438 267.25 157.25 267.898438 157.949219 C 268.5 158.648438 268.800781 159.648438 268.800781 160.949219 C 268.800781 162.300781 268.476562 163.351562 267.824219 164.101562 C 267.175781 164.800781 266.273438 165.148438 265.125 165.148438 C 263.925781 165.148438 263 164.800781 262.351562 164.101562 C 261.699219 163.351562 261.375 162.300781 261.375 160.949219 M 265.125 164.25 C 265.925781 164.25 266.550781 163.976562 267 163.425781 C 267.449219 162.875 267.675781 162.050781 267.675781 160.949219 C 267.675781 159.898438 267.449219 159.125 267 158.625 C 266.550781 158.074219 265.925781 157.800781 265.125 157.800781 C 264.273438 157.800781 263.625 158.050781 263.175781 158.550781 C 262.773438 159.101562 262.574219 159.898438 262.574219 160.949219 C 262.574219 162.050781 262.773438 162.875 263.175781 163.425781 C 263.625 163.976562 264.273438 164.25 265.125 164.25 "/>
<path style=" stroke:none;fill-rule:nonzero;fill:rgb(0%,0%,100%);fill-opacity:1;" d="M 138.824219 76.726562 L 141.449219 81 C 141.648438 81.300781 141.875 81.699219 142.125 82.199219 C 142.425781 82.699219 142.574219 82.976562 142.574219 83.023438 L 142.574219 76.726562 L 143.699219 76.726562 L 143.699219 84.824219 L 142.574219 84.824219 L 139.726562 80.175781 C 139.523438 79.773438 139.300781 79.375 139.050781 78.976562 C 138.800781 78.574219 138.648438 78.300781 138.601562 78.148438 L 138.601562 84.824219 L 137.550781 84.824219 L 137.550781 76.726562 L 138.824219 76.726562 "/>
<path style=" stroke:none;fill-rule:nonzero;fill:rgb(0%,0%,100%);fill-opacity:1;" d="M 101.398438 49.648438 L 104.023438 53.925781 C 104.175781 54.175781 104.398438 54.574219 104.699219 55.125 C 105 55.625 105.148438 55.875 105.148438 55.875 L 105.148438 49.648438 L 106.199219 49.648438 L 106.199219 57.75 L 105.148438 57.75 L 102.300781 53.023438 C 102.050781 52.675781 101.800781 52.273438 101.550781 51.824219 C 101.351562 51.425781 101.199219 51.148438 101.101562 51 L 101.101562 57.75 L 100.050781 57.75 L 100.050781 49.648438 L 101.398438 49.648438 "/>
<path style=" stroke:none;fill-rule:nonzero;fill:rgb(0%,0%,100%);fill-opacity:1;" d="M 129.976562 49.574219 L 132.601562 53.851562 C 132.75 54.148438 132.976562 54.550781 133.273438 55.050781 C 133.574219 55.550781 133.726562 55.824219 133.726562 55.875 L 133.726562 49.574219 L 134.773438 49.574219 L 134.773438 57.675781 L 133.726562 57.675781 L 130.875 52.949219 C 130.625 52.601562 130.375 52.226562 130.125 51.824219 C 129.925781 51.375 129.800781 51.101562 129.75 51 L 129.75 57.675781 L 128.625 57.675781 L 128.625 49.574219 L 129.976562 49.574219 "/>
<path style=" stroke:none;fill-rule:nonzero;fill:rgb(100%,0%,0%);fill-opacity:1;" d="M 165.375 126.675781 C 165.375 125.425781 165.699219 124.425781 166.351562 123.675781 C 167 122.976562 167.925781 122.625 169.125 122.625 C 170.324219 122.625 171.25 122.976562 171.898438 123.675781 C 172.5 124.425781 172.800781 125.425781 172.800781 126.675781 C 172.800781 128.023438 172.476562 129.074219 171.824219 129.824219 C 171.226562 130.523438 170.324219 130.875 169.125 130.875 C 167.925781 130.875 167 130.523438 166.351562 129.824219 C 165.699219 129.074219 165.375 128.023438 165.375 126.675781 M 169.125 129.976562 C 169.925781 129.976562 170.550781 129.699219 171 129.148438 C 171.449219 128.601562 171.675781 127.773438 171.675781 126.675781 C 171.675781 125.625 171.449219 124.851562 171 124.351562 C 170.550781 123.800781 169.925781 123.523438 169.125 123.523438 C 168.273438 123.523438 167.625 123.773438 167.175781 124.273438 C 166.773438 124.824219 166.574219 125.625 166.574219 126.675781 C 166.574219 127.773438 166.773438 128.601562 167.175781 129.148438 C 167.625 129.699219 168.273438 129.976562 169.125 129.976562 "/>
<path style=" stroke:none;fill-rule:nonzero;fill:rgb(100%,0%,0%);fill-opacity:1;" d="M 212.476562 141.898438 C 212.476562 140.601562 212.800781 139.601562 213.449219 138.898438 C 214.101562 138.148438 215.023438 137.773438 216.226562 137.773438 C 217.425781 137.773438 218.351562 138.148438 219 138.898438 C 219.601562 139.601562 219.898438 140.601562 219.898438 141.898438 C 219.898438 143.25 219.574219 144.273438 218.925781 144.976562 C 218.324219 145.726562 217.425781 146.101562 216.226562 146.101562 C 215.023438 146.101562 214.101562 145.726562 213.449219 144.976562 C 212.800781 144.273438 212.476562 143.25 212.476562 141.898438 M 216.226562 145.199219 C 217.023438 145.199219 217.648438 144.925781 218.101562 144.375 C 218.550781 143.824219 218.773438 143 218.773438 141.898438 C 218.773438 140.851562 218.550781 140.050781 218.101562 139.5 C 217.648438 139 217.023438 138.75 216.226562 138.75 C 215.375 138.75 214.726562 139 214.273438 139.5 C 213.875 140.050781 213.675781 140.851562 213.675781 141.898438 C 213.675781 143 213.875 143.824219 214.273438 144.375 C 214.726562 144.925781 215.375 145.199219 216.226562 145.199219 "/>
<path style=" stroke:none;fill-rule:nonzero;fill:rgb(100%,0%,0%);fill-opacity:1;" d="M 220.5 137.925781 L 221.625 137.925781 L 221.625 141.375 L 225.75 141.375 L 225.75 137.925781 L 226.800781 137.925781 L 226.800781 146.023438 L 225.75 146.023438 L 225.75 142.273438 L 221.625 142.273438 L 221.625 146.023438 L 220.5 146.023438 L 220.5 137.925781 "/>
<path style=" stroke:none;fill-rule:nonzero;fill:rgb(0%,0%,100%);fill-opacity:1;" d="M 231.226562 80.550781 L 233.851562 84.898438 C 234.050781 85.148438 234.273438 85.523438 234.523438 86.023438 C 234.824219 86.574219 234.976562 86.851562 234.976562 86.851562 L 234.976562 80.550781 L 236.101562 80.550781 L 236.101562 88.648438 L 234.976562 88.648438 L 232.125 84 C 231.925781 83.648438 231.699219 83.25 231.449219 82.800781 C 231.199219 82.398438 231.050781 82.125 231 81.976562 L 231 88.648438 L 229.949219 88.648438 L 229.949219 80.550781 L 231.226562 80.550781 "/>
<path style=" stroke:none;fill-rule:nonzero;fill:rgb(100%,0%,0%);fill-opacity:1;" d="M 278.101562 104.773438 C 278.101562 103.476562 278.425781 102.476562 279.074219 101.773438 C 279.726562 101.023438 280.648438 100.648438 281.851562 100.648438 C 283.050781 100.648438 283.949219 101.023438 284.550781 101.773438 C 285.199219 102.476562 285.523438 103.476562 285.523438 104.773438 C 285.523438 106.074219 285.199219 107.101562 284.550781 107.851562 C 283.898438 108.601562 283 108.976562 281.851562 108.976562 C 280.648438 108.976562 279.726562 108.601562 279.074219 107.851562 C 278.425781 107.101562 278.101562 106.074219 278.101562 104.773438 M 281.851562 108.074219 C 282.648438 108.074219 283.273438 107.800781 283.726562 107.25 C 284.175781 106.699219 284.398438 105.875 284.398438 104.773438 C 284.398438 103.726562 284.175781 102.925781 283.726562 102.375 C 283.273438 101.824219 282.648438 101.550781 281.851562 101.550781 C 281 101.550781 280.351562 101.824219 279.898438 102.375 C 279.449219 102.925781 279.226562 103.726562 279.226562 104.773438 C 279.226562 105.875 279.449219 106.699219 279.898438 107.25 C 280.351562 107.800781 281 108.074219 281.851562 108.074219 "/>
<path style=" stroke:none;fill-rule:nonzero;fill:rgb(80%,80%,0%);fill-opacity:1;" d="M 203.476562 50.023438 C 203.523438 50.074219 203.675781 50.148438 203.925781 50.25 C 204.175781 50.351562 204.449219 50.425781 204.75 50.476562 C 205 50.574219 205.273438 50.625 205.574219 50.625 C 206.074219 50.625 206.476562 50.5 206.773438 50.25 C 207.074219 50 207.226562 49.648438 207.226562 49.199219 C 207.226562 48.898438 207.148438 48.648438 207 48.449219 C 206.851562 48.300781 206.675781 48.175781 206.476562 48.074219 C 206.226562 47.976562 205.898438 47.851562 205.5 47.699219 C 205.050781 47.601562 204.675781 47.476562 204.375 47.324219 C 204.074219 47.175781 203.824219 46.949219 203.625 46.648438 C 203.425781 46.351562 203.324219 45.976562 203.324219 45.523438 C 203.324219 44.824219 203.550781 44.273438 204 43.875 C 204.5 43.425781 205.199219 43.199219 206.101562 43.199219 C 206.699219 43.199219 207.375 43.351562 208.125 43.648438 L 207.824219 44.550781 C 207.175781 44.300781 206.601562 44.175781 206.101562 44.175781 C 205.601562 44.175781 205.199219 44.273438 204.898438 44.476562 C 204.601562 44.675781 204.449219 44.976562 204.449219 45.375 C 204.449219 45.675781 204.523438 45.898438 204.675781 46.050781 C 204.824219 46.25 205.023438 46.398438 205.273438 46.5 C 205.476562 46.601562 205.75 46.699219 206.101562 46.800781 C 206.601562 46.949219 207 47.101562 207.300781 47.25 C 207.601562 47.398438 207.851562 47.625 208.050781 47.925781 C 208.25 48.226562 208.351562 48.648438 208.351562 49.199219 C 208.351562 49.949219 208.101562 50.523438 207.601562 50.925781 C 207.101562 51.324219 206.449219 51.523438 205.648438 51.523438 C 205.148438 51.523438 204.726562 51.476562 204.375 51.375 C 203.976562 51.273438 203.574219 51.125 203.175781 50.925781 L 203.476562 50.023438 "/>
<path style=" stroke:none;fill-rule:nonzero;fill:rgb(100%,0%,0%);fill-opacity:1;" d="M 213.601562 21.148438 C 213.601562 19.851562 213.925781 18.851562 214.574219 18.148438 C 215.226562 17.398438 216.148438 17.023438 217.351562 17.023438 C 218.550781 17.023438 219.476562 17.398438 220.125 18.148438 C 220.726562 18.851562 221.023438 19.851562 221.023438 21.148438 C 221.023438 22.449219 220.726562 23.476562 220.125 24.226562 C 219.476562 24.976562 218.550781 25.351562 217.351562 25.351562 C 216.148438 25.351562 215.226562 24.976562 214.574219 24.226562 C 213.925781 23.523438 213.601562 22.5 213.601562 21.148438 M 217.351562 24.449219 C 218.148438 24.449219 218.773438 24.175781 219.226562 23.625 C 219.675781 23.074219 219.898438 22.25 219.898438 21.148438 C 219.898438 20.101562 219.675781 19.300781 219.226562 18.75 C 218.773438 18.199219 218.148438 17.925781 217.351562 17.925781 C 216.5 17.925781 215.851562 18.199219 215.398438 18.75 C 215 19.300781 214.800781 20.101562 214.800781 21.148438 C 214.800781 22.25 215 23.074219 215.398438 23.625 C 215.851562 24.175781 216.5 24.449219 217.351562 24.449219 "/>
<path style=" stroke:none;fill-rule:nonzero;fill:rgb(100%,0%,0%);fill-opacity:1;" d="M 177.300781 33.074219 C 177.300781 31.773438 177.601562 30.75 178.199219 30 C 178.851562 29.300781 179.773438 28.949219 180.976562 28.949219 C 182.175781 28.949219 183.101562 29.300781 183.75 30 C 184.398438 30.75 184.726562 31.773438 184.726562 33.074219 C 184.726562 34.375 184.398438 35.398438 183.75 36.148438 C 183.101562 36.851562 182.175781 37.199219 180.976562 37.199219 C 179.773438 37.199219 178.851562 36.851562 178.199219 36.148438 C 177.601562 35.398438 177.300781 34.375 177.300781 33.074219 M 180.976562 36.300781 C 181.824219 36.300781 182.476562 36.023438 182.925781 35.476562 C 183.375 34.925781 183.601562 34.125 183.601562 33.074219 C 183.601562 31.976562 183.375 31.175781 182.925781 30.675781 C 182.476562 30.125 181.824219 29.851562 180.976562 29.851562 C 180.175781 29.851562 179.550781 30.125 179.101562 30.675781 C 178.648438 31.175781 178.425781 31.976562 178.425781 33.074219 C 178.425781 34.125 178.648438 34.925781 179.101562 35.476562 C 179.550781 36.023438 180.175781 36.300781 180.976562 36.300781 "/>
<path style=" stroke:none;fill-rule:nonzero;fill:rgb(0%,0%,0%);fill-opacity:1;" d="M 144.898438 207.449219 L 146.023438 207.449219 L 146.023438 210.898438 L 150.148438 210.898438 L 150.148438 207.449219 L 151.273438 207.449219 L 151.273438 215.550781 L 150.148438 215.550781 L 150.148438 211.800781 L 146.023438 211.800781 L 146.023438 215.550781 L 144.898438 215.550781 L 144.898438 207.449219 "/>
<path style=" stroke:none;fill-rule:nonzero;fill:rgb(0%,0%,0%);fill-opacity:1;" d="M 234.226562 23.773438 L 235.351562 23.773438 L 235.351562 27.226562 L 239.476562 27.226562 L 239.476562 23.773438 L 240.523438 23.773438 L 240.523438 31.875 L 239.476562 31.875 L 239.476562 28.125 L 235.351562 28.125 L 235.351562 31.875 L 234.226562 31.875 L 234.226562 23.773438 "/>
</g>
</svg>
