<?xml version="1.0" encoding="UTF-8"?>
<svg xmlns="http://www.w3.org/2000/svg" xmlns:xlink="http://www.w3.org/1999/xlink" width="375pt" height="375pt" viewBox="0 0 375 375" version="1.1">
<g id="surface26">
<rect x="0" y="0" width="375" height="375" style="fill:rgb(100%,100%,100%);fill-opacity:1;stroke:none;"/>
<path style="fill:none;stroke-width:2;stroke-linecap:butt;stroke-linejoin:miter;stroke:rgb(0%,0%,0%);stroke-opacity:1;stroke-miterlimit:4;" d="M 160.401042 477.302083 L 148.802083 431 " transform="matrix(0.75,0,0,0.75,0,0)"/>
<path style="fill:none;stroke-width:2;stroke-linecap:butt;stroke-linejoin:miter;stroke:rgb(0%,0%,0%);stroke-opacity:1;stroke-miterlimit:4;" d="M 148.802083 431 L 103.901042 447.401042 " transform="matrix(0.75,0,0,0.75,0,0)"/>
<path style="fill:none;stroke-width:2;stroke-linecap:butt;stroke-linejoin:miter;stroke:rgb(0%,0%,0%);stroke-opacity:1;stroke-miterlimit:4;" d="M 148.802083 431 L 169.401042 428 " transform="matrix(0.75,0,0,0.75,0,0)"/>
<path style="fill:none;stroke-width:2;stroke-linecap:butt;stroke-linejoin:miter;stroke:rgb(80%,80%,0%);stroke-opacity:1;stroke-miterlimit:4;" d="M 169.401042 428 L 190.098958 425.098958 " transform="matrix(0.75,0,0,0.75,0,0)"/>
<path style="fill:none;stroke-width:2;stroke-linecap:butt;stroke-linejoin:miter;stroke:rgb(80%,80%,0%);stroke-opacity:1;stroke-miterlimit:4;" d="M 197.5 415.901042 L 200.802083 396.598958 " transform="matrix(0.75,0,0,0.75,0,0)"/>
<path style="fill:none;stroke-width:2;stroke-linecap:butt;stroke-linejoin:miter;stroke:rgb(0%,0%,0%);stroke-opacity:1;stroke-miterlimit:4;" d="M 200.802083 396.598958 L 204.197917 377.197917 " transform="matrix(0.75,0,0,0.75,0,0)"/>
<path style="fill:none;stroke-width:2;stroke-linecap:butt;stroke-linejoin:miter;stroke:rgb(0%,0%,0%);stroke-opacity:1;stroke-miterlimit:4;" d="M 204.197917 377.197917 L 226.5 335 " transform="matrix(0.75,0,0,0.75,0,0)"/>
<path style="fill-rule:evenodd;fill:rgb(0%,0%,0%);fill-opacity:1;stroke-width:1;stroke-linecap:butt;stroke-linejoin:miter;stroke:rgb(0%,0%,0%);stroke-opacity:1;stroke-miterlimit:4;" d="M 226.5 335 L 244.5 327 L 245.901042 331.5 Z M 226.5 335 " transform="matrix(0.75,0,0,0.75,0,0)"/>
<path style="fill-rule:evenodd;fill:rgb(0%,0%,100%);fill-opacity:1;stroke-width:1;stroke-linecap:butt;stroke-linejoin:miter;stroke:rgb(0%,0%,100%);stroke-opacity:1;stroke-miterlimit:4;" d="M 244.5 327 L 265.302083 328.098958 L 262.401042 318.901042 Z M 244.5 327 " transform="matrix(0.75,0,0,0.75,0,0)"/>
<path style="fill-rule:evenodd;fill:rgb(0%,0%,100%);fill-opacity:1;stroke-width:1;stroke-linecap:butt;stroke-linejoin:miter;stroke:rgb(0%,0%,100%);stroke-opacity:1;stroke-miterlimit:4;" d="M 244.5 327 L 245.901042 331.5 L 265.302083 328.098958 Z M 244.5 327 " transform="matrix(0.75,0,0,0.75,0,0)"/>
<path style="fill:none;stroke-width:2;stroke-linecap:butt;stroke-linejoin:miter;stroke:rgb(0%,0%,100%);stroke-opacity:1;stroke-miterlimit:4;" d="M 278.802083 327.197917 L 293 340.302083 " transform="matrix(0.75,0,0,0.75,0,0)"/>
<path style="fill:none;stroke-width:2;stroke-linecap:butt;stroke-linejoin:miter;stroke:rgb(0%,0%,0%);stroke-opacity:1;stroke-miterlimit:4;" d="M 293 340.302083 L 307.098958 353.401042 " transform="matrix(0.75,0,0,0.75,0,0)"/>
<path style="fill:none;stroke-width:2;stroke-linecap:butt;stroke-linejoin:miter;stroke:rgb(0%,0%,0%);stroke-opacity:1;stroke-miterlimit:4;" d="M 311.802083 354.5 L 307.401042 373.598958 " transform="matrix(0.75,0,0,0.75,0,0)"/>
<path style="fill:none;stroke-width:2;stroke-linecap:butt;stroke-linejoin:miter;stroke:rgb(100%,0%,0%);stroke-opacity:1;stroke-miterlimit:4;" d="M 307.401042 373.598958 L 303 392.598958 " transform="matrix(0.75,0,0,0.75,0,0)"/>
<path style="fill:none;stroke-width:2;stroke-linecap:butt;stroke-linejoin:miter;stroke:rgb(0%,0%,0%);stroke-opacity:1;stroke-miterlimit:4;" d="M 302.5 352.401042 L 298.098958 371.401042 " transform="matrix(0.75,0,0,0.75,0,0)"/>
<path style="fill:none;stroke-width:2;stroke-linecap:butt;stroke-linejoin:miter;stroke:rgb(100%,0%,0%);stroke-opacity:1;stroke-miterlimit:4;" d="M 298.098958 371.401042 L 293.697917 390.5 " transform="matrix(0.75,0,0,0.75,0,0)"/>
<path style="fill:none;stroke-width:2;stroke-linecap:butt;stroke-linejoin:miter;stroke:rgb(0%,0%,0%);stroke-opacity:1;stroke-miterlimit:4;" d="M 307.098958 353.401042 L 352.697917 339.401042 " transform="matrix(0.75,0,0,0.75,0,0)"/>
<path style="fill:none;stroke-width:1;stroke-linecap:butt;stroke-linejoin:miter;stroke:rgb(0%,0%,0%);stroke-opacity:1;stroke-miterlimit:4;" d="M 354.901042 333.401042 L 353.302083 333.098958 " transform="matrix(0.75,0,0,0.75,0,0)"/>
<path style="fill:none;stroke-width:1;stroke-linecap:butt;stroke-linejoin:miter;stroke:rgb(0%,0%,0%);stroke-opacity:1;stroke-miterlimit:4;" d="M 357.098958 327.5 L 354 326.802083 " transform="matrix(0.75,0,0,0.75,0,0)"/>
<path style="fill:none;stroke-width:1;stroke-linecap:butt;stroke-linejoin:miter;stroke:rgb(0%,0%,0%);stroke-opacity:1;stroke-miterlimit:4;" d="M 359.197917 321.598958 L 354.598958 320.5 " transform="matrix(0.75,0,0,0.75,0,0)"/>
<path style="fill:none;stroke-width:1;stroke-linecap:butt;stroke-linejoin:miter;stroke:rgb(0%,0%,100%);stroke-opacity:1;stroke-miterlimit:4;" d="M 361.401042 315.697917 L 355.197917 314.197917 " transform="matrix(0.75,0,0,0.75,0,0)"/>
<path style="fill:none;stroke-width:1;stroke-linecap:butt;stroke-linejoin:miter;stroke:rgb(0%,0%,100%);stroke-opacity:1;stroke-miterlimit:4;" d="M 363.598958 309.697917 L 355.802083 308 " transform="matrix(0.75,0,0,0.75,0,0)"/>
<path style="fill:none;stroke-width:1;stroke-linecap:butt;stroke-linejoin:miter;stroke:rgb(0%,0%,100%);stroke-opacity:1;stroke-miterlimit:4;" d="M 365.697917 303.802083 L 356.401042 301.697917 " transform="matrix(0.75,0,0,0.75,0,0)"/>
<path style="fill:none;stroke-width:2;stroke-linecap:butt;stroke-linejoin:miter;stroke:rgb(0%,0%,0%);stroke-opacity:1;stroke-miterlimit:4;" d="M 352.697917 339.401042 L 387.697917 371.802083 " transform="matrix(0.75,0,0,0.75,0,0)"/>
<path style="fill:none;stroke-width:2;stroke-linecap:butt;stroke-linejoin:miter;stroke:rgb(0%,0%,0%);stroke-opacity:1;stroke-miterlimit:4;" d="M 387.697917 371.802083 L 377.098958 418.401042 " transform="matrix(0.75,0,0,0.75,0,0)"/>
<path style="fill:none;stroke-width:2;stroke-linecap:butt;stroke-linejoin:miter;stroke:rgb(0%,0%,0%);stroke-opacity:1;stroke-miterlimit:4;" d="M 395.401042 381 L 388 413.5 " transform="matrix(0.75,0,0,0.75,0,0)"/>
<path style="fill:none;stroke-width:2;stroke-linecap:butt;stroke-linejoin:miter;stroke:rgb(0%,0%,0%);stroke-opacity:1;stroke-miterlimit:4;" d="M 377.098958 418.401042 L 412.098958 450.901042 " transform="matrix(0.75,0,0,0.75,0,0)"/>
<path style="fill:none;stroke-width:2;stroke-linecap:butt;stroke-linejoin:miter;stroke:rgb(0%,0%,0%);stroke-opacity:1;stroke-miterlimit:4;" d="M 412.098958 450.901042 L 457.697917 436.802083 " transform="matrix(0.75,0,0,0.75,0,0)"/>
<path style="fill:none;stroke-width:2;stroke-linecap:butt;stroke-linejoin:miter;stroke:rgb(0%,0%,0%);stroke-opacity:1;stroke-miterlimit:4;" d="M 416.098958 439.598958 L 448 429.802083 " transform="matrix(0.75,0,0,0.75,0,0)"/>
<path style="fill:none;stroke-width:2;stroke-linecap:butt;stroke-linejoin:miter;stroke:rgb(0%,0%,0%);stroke-opacity:1;stroke-miterlimit:4;" d="M 457.697917 436.802083 L 468.302083 390.302083 " transform="matrix(0.75,0,0,0.75,0,0)"/>
<path style="fill:none;stroke-width:2;stroke-linecap:butt;stroke-linejoin:miter;stroke:rgb(0%,0%,0%);stroke-opacity:1;stroke-miterlimit:4;" d="M 468.302083 390.302083 L 433.302083 357.802083 " transform="matrix(0.75,0,0,0.75,0,0)"/>
<path style="fill:none;stroke-width:2;stroke-linecap:butt;stroke-linejoin:miter;stroke:rgb(0%,0%,0%);stroke-opacity:1;stroke-miterlimit:4;" d="M 456.598958 392.401042 L 432.098958 369.697917 " transform="matrix(0.75,0,0,0.75,0,0)"/>
<path style="fill:none;stroke-width:2;stroke-linecap:butt;stroke-linejoin:miter;stroke:rgb(0%,0%,0%);stroke-opacity:1;stroke-miterlimit:4;" d="M 226.5 335 L 184.302083 312.697917 " transform="matrix(0.75,0,0,0.75,0,0)"/>
<path style="fill:none;stroke-width:2;stroke-linecap:butt;stroke-linejoin:miter;stroke:rgb(0%,0%,0%);stroke-opacity:1;stroke-miterlimit:4;" d="M 179.697917 314.098958 L 174 295.598958 " transform="matrix(0.75,0,0,0.75,0,0)"/>
<path style="fill:none;stroke-width:2;stroke-linecap:butt;stroke-linejoin:miter;stroke:rgb(100%,0%,0%);stroke-opacity:1;stroke-miterlimit:4;" d="M 174 295.598958 L 168.302083 277.098958 " transform="matrix(0.75,0,0,0.75,0,0)"/>
<path style="fill:none;stroke-width:2;stroke-linecap:butt;stroke-linejoin:miter;stroke:rgb(0%,0%,0%);stroke-opacity:1;stroke-miterlimit:4;" d="M 188.901042 311.302083 L 183.197917 292.802083 " transform="matrix(0.75,0,0,0.75,0,0)"/>
<path style="fill:none;stroke-width:2;stroke-linecap:butt;stroke-linejoin:miter;stroke:rgb(100%,0%,0%);stroke-opacity:1;stroke-miterlimit:4;" d="M 183.197917 292.802083 L 177.5 274.302083 " transform="matrix(0.75,0,0,0.75,0,0)"/>
<path style="fill:none;stroke-width:2;stroke-linecap:butt;stroke-linejoin:miter;stroke:rgb(0%,0%,0%);stroke-opacity:1;stroke-miterlimit:4;" d="M 184.302083 312.697917 L 175.401042 329.598958 " transform="matrix(0.75,0,0,0.75,0,0)"/>
<path style="fill:none;stroke-width:2;stroke-linecap:butt;stroke-linejoin:miter;stroke:rgb(0%,0%,100%);stroke-opacity:1;stroke-miterlimit:4;" d="M 175.401042 329.598958 L 166.401042 346.598958 " transform="matrix(0.75,0,0,0.75,0,0)"/>
<path style="fill:none;stroke-width:2;stroke-linecap:butt;stroke-linejoin:miter;stroke:rgb(0%,0%,100%);stroke-opacity:1;stroke-miterlimit:4;" d="M 155.302083 361.401042 L 141.5 374.802083 " transform="matrix(0.75,0,0,0.75,0,0)"/>
<path style="fill:none;stroke-width:2;stroke-linecap:butt;stroke-linejoin:miter;stroke:rgb(0%,0%,0%);stroke-opacity:1;stroke-miterlimit:4;" d="M 141.5 374.802083 L 127.697917 388.098958 " transform="matrix(0.75,0,0,0.75,0,0)"/>
<path style="fill:none;stroke-width:1;stroke-linecap:butt;stroke-linejoin:miter;stroke:rgb(0%,0%,0%);stroke-opacity:1;stroke-miterlimit:4;" d="M 120 386 L 119.802083 387.5 " transform="matrix(0.75,0,0,0.75,0,0)"/>
<path style="fill:none;stroke-width:1;stroke-linecap:butt;stroke-linejoin:miter;stroke:rgb(0%,0%,0%);stroke-opacity:1;stroke-miterlimit:4;" d="M 112.302083 383.802083 L 111.802083 387 " transform="matrix(0.75,0,0,0.75,0,0)"/>
<path style="fill:none;stroke-width:1;stroke-linecap:butt;stroke-linejoin:miter;stroke:rgb(0%,0%,0%);stroke-opacity:1;stroke-miterlimit:4;" d="M 104.598958 381.697917 L 103.802083 386.401042 " transform="matrix(0.75,0,0,0.75,0,0)"/>
<path style="fill:none;stroke-width:1;stroke-linecap:butt;stroke-linejoin:miter;stroke:rgb(0%,0%,0%);stroke-opacity:1;stroke-miterlimit:4;" d="M 96.901042 379.5 L 95.802083 385.802083 " transform="matrix(0.75,0,0,0.75,0,0)"/>
<path style="fill:none;stroke-width:1;stroke-linecap:butt;stroke-linejoin:miter;stroke:rgb(0%,0%,0%);stroke-opacity:1;stroke-miterlimit:4;" d="M 89.197917 377.401042 L 87.901042 385.197917 " transform="matrix(0.75,0,0,0.75,0,0)"/>
<path style="fill:none;stroke-width:1;stroke-linecap:butt;stroke-linejoin:miter;stroke:rgb(0%,0%,0%);stroke-opacity:1;stroke-miterlimit:4;" d="M 81.5 375.197917 L 79.901042 384.598958 " transform="matrix(0.75,0,0,0.75,0,0)"/>
<path style="fill:none;stroke-width:2;stroke-linecap:butt;stroke-linejoin:miter;stroke:rgb(0%,0%,0%);stroke-opacity:1;stroke-miterlimit:4;" d="M 76.197917 381.598958 L 69.598958 363.5 " transform="matrix(0.75,0,0,0.75,0,0)"/>
<path style="fill:none;stroke-width:2;stroke-linecap:butt;stroke-linejoin:miter;stroke:rgb(100%,0%,0%);stroke-opacity:1;stroke-miterlimit:4;" d="M 69.598958 363.5 L 63 345.401042 " transform="matrix(0.75,0,0,0.75,0,0)"/>
<path style="fill:none;stroke-width:2;stroke-linecap:butt;stroke-linejoin:miter;stroke:rgb(0%,0%,0%);stroke-opacity:1;stroke-miterlimit:4;" d="M 85.197917 378.302083 L 78.598958 360.197917 " transform="matrix(0.75,0,0,0.75,0,0)"/>
<path style="fill:none;stroke-width:2;stroke-linecap:butt;stroke-linejoin:miter;stroke:rgb(100%,0%,0%);stroke-opacity:1;stroke-miterlimit:4;" d="M 78.598958 360.197917 L 71.901042 342.098958 " transform="matrix(0.75,0,0,0.75,0,0)"/>
<path style="fill:none;stroke-width:2;stroke-linecap:butt;stroke-linejoin:miter;stroke:rgb(0%,0%,0%);stroke-opacity:1;stroke-miterlimit:4;" d="M 80.697917 379.901042 L 68.901042 394.098958 " transform="matrix(0.75,0,0,0.75,0,0)"/>
<path style="fill:none;stroke-width:2;stroke-linecap:butt;stroke-linejoin:miter;stroke:rgb(100%,0%,0%);stroke-opacity:1;stroke-miterlimit:4;" d="M 68.901042 394.098958 L 57.098958 408.197917 " transform="matrix(0.75,0,0,0.75,0,0)"/>
<path style="fill:none;stroke-width:2;stroke-linecap:butt;stroke-linejoin:miter;stroke:rgb(0%,0%,0%);stroke-opacity:1;stroke-miterlimit:4;" d="M 191.598958 57.302083 L 237 72.197917 " transform="matrix(0.75,0,0,0.75,0,0)"/>
<path style="fill:none;stroke-width:2;stroke-linecap:butt;stroke-linejoin:miter;stroke:rgb(0%,0%,0%);stroke-opacity:1;stroke-miterlimit:4;" d="M 237 72.197917 L 247 25.5 " transform="matrix(0.75,0,0,0.75,0,0)"/>
<path style="fill:none;stroke-width:2;stroke-linecap:butt;stroke-linejoin:miter;stroke:rgb(0%,0%,0%);stroke-opacity:1;stroke-miterlimit:4;" d="M 237 72.197917 L 217.401042 115.802083 " transform="matrix(0.75,0,0,0.75,0,0)"/>
<path style="fill-rule:evenodd;fill:rgb(0%,0%,0%);fill-opacity:1;stroke-width:1;stroke-linecap:butt;stroke-linejoin:miter;stroke:rgb(0%,0%,0%);stroke-opacity:1;stroke-miterlimit:4;" d="M 217.401042 115.802083 L 171.697917 130.197917 L 169.802083 120.901042 Z M 217.401042 115.802083 " transform="matrix(0.75,0,0,0.75,0,0)"/>
<path style="fill:none;stroke-width:2;stroke-linecap:butt;stroke-linejoin:miter;stroke:rgb(0%,0%,0%);stroke-opacity:1;stroke-miterlimit:4;" d="M 167.197917 128.802083 L 155.098958 115.302083 " transform="matrix(0.75,0,0,0.75,0,0)"/>
<path style="fill:none;stroke-width:2;stroke-linecap:butt;stroke-linejoin:miter;stroke:rgb(100%,0%,0%);stroke-opacity:1;stroke-miterlimit:4;" d="M 155.098958 115.302083 L 143 101.802083 " transform="matrix(0.75,0,0,0.75,0,0)"/>
<path style="fill:none;stroke-width:2;stroke-linecap:butt;stroke-linejoin:miter;stroke:rgb(0%,0%,0%);stroke-opacity:1;stroke-miterlimit:4;" d="M 174.302083 122.401042 L 162.197917 108.901042 " transform="matrix(0.75,0,0,0.75,0,0)"/>
<path style="fill:none;stroke-width:2;stroke-linecap:butt;stroke-linejoin:miter;stroke:rgb(100%,0%,0%);stroke-opacity:1;stroke-miterlimit:4;" d="M 162.197917 108.901042 L 150.197917 95.5 " transform="matrix(0.75,0,0,0.75,0,0)"/>
<path style="fill:none;stroke-width:2;stroke-linecap:butt;stroke-linejoin:miter;stroke:rgb(0%,0%,0%);stroke-opacity:1;stroke-miterlimit:4;" d="M 170.697917 125.598958 L 164.697917 144.098958 " transform="matrix(0.75,0,0,0.75,0,0)"/>
<path style="fill:none;stroke-width:2;stroke-linecap:butt;stroke-linejoin:miter;stroke:rgb(100%,0%,0%);stroke-opacity:1;stroke-miterlimit:4;" d="M 164.697917 144.098958 L 158.598958 162.5 " transform="matrix(0.75,0,0,0.75,0,0)"/>
<path style="fill:none;stroke-width:2;stroke-linecap:butt;stroke-linejoin:miter;stroke:rgb(0%,0%,0%);stroke-opacity:1;stroke-miterlimit:4;" d="M 217.401042 115.802083 L 231.802083 128.697917 " transform="matrix(0.75,0,0,0.75,0,0)"/>
<path style="fill:none;stroke-width:2;stroke-linecap:butt;stroke-linejoin:miter;stroke:rgb(0%,0%,100%);stroke-opacity:1;stroke-miterlimit:4;" d="M 231.802083 128.697917 L 246.098958 141.697917 " transform="matrix(0.75,0,0,0.75,0,0)"/>
<path style="fill:none;stroke-width:2;stroke-linecap:butt;stroke-linejoin:miter;stroke:rgb(0%,0%,100%);stroke-opacity:1;stroke-miterlimit:4;" d="M 257.598958 156.098958 L 267.098958 172.598958 " transform="matrix(0.75,0,0,0.75,0,0)"/>
<path style="fill:none;stroke-width:2;stroke-linecap:butt;stroke-linejoin:miter;stroke:rgb(0%,0%,0%);stroke-opacity:1;stroke-miterlimit:4;" d="M 267.098958 172.598958 L 276.598958 189.197917 " transform="matrix(0.75,0,0,0.75,0,0)"/>
<path style="fill:none;stroke-width:2;stroke-linecap:butt;stroke-linejoin:miter;stroke:rgb(0%,0%,0%);stroke-opacity:1;stroke-miterlimit:4;" d="M 281.197917 190.401042 L 276.098958 209.302083 " transform="matrix(0.75,0,0,0.75,0,0)"/>
<path style="fill:none;stroke-width:2;stroke-linecap:butt;stroke-linejoin:miter;stroke:rgb(100%,0%,0%);stroke-opacity:1;stroke-miterlimit:4;" d="M 276.098958 209.302083 L 271 228.098958 " transform="matrix(0.75,0,0,0.75,0,0)"/>
<path style="fill:none;stroke-width:2;stroke-linecap:butt;stroke-linejoin:miter;stroke:rgb(0%,0%,0%);stroke-opacity:1;stroke-miterlimit:4;" d="M 272 187.901042 L 266.901042 206.802083 " transform="matrix(0.75,0,0,0.75,0,0)"/>
<path style="fill:none;stroke-width:2;stroke-linecap:butt;stroke-linejoin:miter;stroke:rgb(100%,0%,0%);stroke-opacity:1;stroke-miterlimit:4;" d="M 266.901042 206.802083 L 261.802083 225.598958 " transform="matrix(0.75,0,0,0.75,0,0)"/>
<path style="fill:none;stroke-width:2;stroke-linecap:butt;stroke-linejoin:miter;stroke:rgb(0%,0%,0%);stroke-opacity:1;stroke-miterlimit:4;" d="M 276.598958 189.197917 L 318 165.401042 " transform="matrix(0.75,0,0,0.75,0,0)"/>
<path style="fill:none;stroke-width:2;stroke-linecap:butt;stroke-linejoin:miter;stroke:rgb(0%,0%,0%);stroke-opacity:1;stroke-miterlimit:4;" d="M 318 165.401042 L 294.197917 124 " transform="matrix(0.75,0,0,0.75,0,0)"/>
<path style="fill:none;stroke-width:2;stroke-linecap:butt;stroke-linejoin:miter;stroke:rgb(0%,0%,0%);stroke-opacity:1;stroke-miterlimit:4;" d="M 294.197917 124 L 290.197917 105 " transform="matrix(0.75,0,0,0.75,0,0)"/>
<path style="fill:none;stroke-width:2;stroke-linecap:butt;stroke-linejoin:miter;stroke:rgb(80%,80%,0%);stroke-opacity:1;stroke-miterlimit:4;" d="M 290.197917 105 L 286.197917 86 " transform="matrix(0.75,0,0,0.75,0,0)"/>
<path style="fill:none;stroke-width:2;stroke-linecap:butt;stroke-linejoin:miter;stroke:rgb(80%,80%,0%);stroke-opacity:1;stroke-miterlimit:4;" d="M 279.697917 69 L 279.697917 53.598958 " transform="matrix(0.75,0,0,0.75,0,0)"/>
<path style="fill:none;stroke-width:2;stroke-linecap:butt;stroke-linejoin:miter;stroke:rgb(100%,0%,0%);stroke-opacity:1;stroke-miterlimit:4;" d="M 279.697917 53.598958 L 279.697917 38.197917 " transform="matrix(0.75,0,0,0.75,0,0)"/>
<path style="fill:none;stroke-width:2;stroke-linecap:butt;stroke-linejoin:miter;stroke:rgb(80%,80%,0%);stroke-opacity:1;stroke-miterlimit:4;" d="M 289.197917 69 L 289.302083 53.598958 " transform="matrix(0.75,0,0,0.75,0,0)"/>
<path style="fill:none;stroke-width:2;stroke-linecap:butt;stroke-linejoin:miter;stroke:rgb(100%,0%,0%);stroke-opacity:1;stroke-miterlimit:4;" d="M 289.302083 53.598958 L 289.302083 38.197917 " transform="matrix(0.75,0,0,0.75,0,0)"/>
<path style="fill:none;stroke-width:2;stroke-linecap:butt;stroke-linejoin:miter;stroke:rgb(80%,80%,0%);stroke-opacity:1;stroke-miterlimit:4;" d="M 289.802083 71.901042 L 306.697917 70.197917 " transform="matrix(0.75,0,0,0.75,0,0)"/>
<path style="fill:none;stroke-width:2;stroke-linecap:butt;stroke-linejoin:miter;stroke:rgb(100%,0%,0%);stroke-opacity:1;stroke-miterlimit:4;" d="M 306.697917 70.197917 L 323.598958 68.5 " transform="matrix(0.75,0,0,0.75,0,0)"/>
<path style="fill:none;stroke-width:2;stroke-linecap:butt;stroke-linejoin:miter;stroke:rgb(80%,80%,0%);stroke-opacity:1;stroke-miterlimit:4;" d="M 290.802083 81.401042 L 307.697917 79.697917 " transform="matrix(0.75,0,0,0.75,0,0)"/>
<path style="fill:none;stroke-width:2;stroke-linecap:butt;stroke-linejoin:miter;stroke:rgb(100%,0%,0%);stroke-opacity:1;stroke-miterlimit:4;" d="M 307.697917 79.697917 L 324.598958 78 " transform="matrix(0.75,0,0,0.75,0,0)"/>
<path style="fill:none;stroke-width:2;stroke-linecap:butt;stroke-linejoin:miter;stroke:rgb(0%,0%,0%);stroke-opacity:1;stroke-miterlimit:4;" d="M 127.697917 388.098958 L 148.802083 431 " transform="matrix(0.75,0,0,0.75,0,0)"/>
<path style="fill:none;stroke-width:2;stroke-linecap:butt;stroke-linejoin:miter;stroke:rgb(80%,80%,0%);stroke-opacity:1;stroke-miterlimit:4;" d="M 278.5 76.697917 L 257.697917 74.401042 " transform="matrix(0.75,0,0,0.75,0,0)"/>
<path style="fill:none;stroke-width:2;stroke-linecap:butt;stroke-linejoin:miter;stroke:rgb(0%,0%,0%);stroke-opacity:1;stroke-miterlimit:4;" d="M 257.697917 74.401042 L 237 72.197917 " transform="matrix(0.75,0,0,0.75,0,0)"/>
<path style="fill:none;stroke-width:2;stroke-linecap:butt;stroke-linejoin:miter;stroke:rgb(0%,0%,100%);stroke-opacity:1;stroke-miterlimit:4;" d="M 168.697917 358.401042 L 186.401042 367.802083 " transform="matrix(0.75,0,0,0.75,0,0)"/>
<path style="fill:none;stroke-width:2;stroke-linecap:butt;stroke-linejoin:miter;stroke:rgb(0%,0%,0%);stroke-opacity:1;stroke-miterlimit:4;" d="M 186.401042 367.802083 L 204.197917 377.197917 " transform="matrix(0.75,0,0,0.75,0,0)"/>
<path style="fill:none;stroke-width:2;stroke-linecap:butt;stroke-linejoin:miter;stroke:rgb(0%,0%,0%);stroke-opacity:1;stroke-miterlimit:4;" d="M 294.197917 124 L 276.901042 134 " transform="matrix(0.75,0,0,0.75,0,0)"/>
<path style="fill:none;stroke-width:2;stroke-linecap:butt;stroke-linejoin:miter;stroke:rgb(0%,0%,100%);stroke-opacity:1;stroke-miterlimit:4;" d="M 276.901042 134 L 259.598958 143.901042 " transform="matrix(0.75,0,0,0.75,0,0)"/>
<path style="fill:none;stroke-width:2;stroke-linecap:butt;stroke-linejoin:miter;stroke:rgb(0%,0%,0%);stroke-opacity:1;stroke-miterlimit:4;" d="M 433.302083 357.802083 L 387.697917 371.802083 " transform="matrix(0.75,0,0,0.75,0,0)"/>
<path style="fill:none;stroke-width:1;stroke-linecap:butt;stroke-linejoin:miter;stroke:rgb(0%,0%,0%);stroke-opacity:1;stroke-miterlimit:4;" d="M 210.098958 380.098958 L 210.598958 378.5 " transform="matrix(0.75,0,0,0.75,0,0)"/>
<path style="fill:none;stroke-width:1;stroke-linecap:butt;stroke-linejoin:miter;stroke:rgb(0%,0%,0%);stroke-opacity:1;stroke-miterlimit:4;" d="M 215.901042 382.901042 L 216.901042 379.901042 " transform="matrix(0.75,0,0,0.75,0,0)"/>
<path style="fill:none;stroke-width:1;stroke-linecap:butt;stroke-linejoin:miter;stroke:rgb(0%,0%,0%);stroke-opacity:1;stroke-miterlimit:4;" d="M 221.802083 385.697917 L 223.302083 381.197917 " transform="matrix(0.75,0,0,0.75,0,0)"/>
<path style="fill:none;stroke-width:1;stroke-linecap:butt;stroke-linejoin:miter;stroke:rgb(0%,0%,0%);stroke-opacity:1;stroke-miterlimit:4;" d="M 227.598958 388.598958 L 229.697917 382.598958 " transform="matrix(0.75,0,0,0.75,0,0)"/>
<path style="fill:none;stroke-width:1;stroke-linecap:butt;stroke-linejoin:miter;stroke:rgb(0%,0%,0%);stroke-opacity:1;stroke-miterlimit:4;" d="M 233.5 391.401042 L 236.098958 383.901042 " transform="matrix(0.75,0,0,0.75,0,0)"/>
<path style="fill:none;stroke-width:1;stroke-linecap:butt;stroke-linejoin:miter;stroke:rgb(0%,0%,0%);stroke-opacity:1;stroke-miterlimit:4;" d="M 239.401042 394.302083 L 242.5 385.197917 " transform="matrix(0.75,0,0,0.75,0,0)"/>
<path style="fill-rule:evenodd;fill:rgb(0%,0%,0%);fill-opacity:1;stroke-width:1;stroke-linecap:butt;stroke-linejoin:miter;stroke:rgb(0%,0%,0%);stroke-opacity:1;stroke-miterlimit:4;" d="M 294.197917 124 L 328.697917 105.802083 L 332.098958 114.697917 Z M 294.197917 124 " transform="matrix(0.75,0,0,0.75,0,0)"/>
<path style=" stroke:none;fill-rule:nonzero;fill:rgb(80%,80%,0%);fill-opacity:1;" d="M 144.148438 321.675781 C 144.199219 321.675781 144.398438 321.75 144.75 321.898438 C 145.050781 322.050781 145.375 322.148438 145.726562 322.199219 C 146.074219 322.300781 146.425781 322.351562 146.773438 322.351562 C 147.425781 322.351562 147.925781 322.199219 148.273438 321.898438 C 148.625 321.550781 148.800781 321.125 148.800781 320.625 C 148.800781 320.226562 148.726562 319.925781 148.574219 319.726562 C 148.375 319.476562 148.125 319.300781 147.824219 319.199219 C 147.574219 319.050781 147.199219 318.898438 146.699219 318.75 C 146.101562 318.601562 145.625 318.425781 145.273438 318.226562 C 144.925781 318.074219 144.625 317.800781 144.375 317.398438 C 144.125 317.050781 144 316.574219 144 315.976562 C 144 315.125 144.273438 314.425781 144.824219 313.875 C 145.425781 313.375 146.300781 313.125 147.449219 313.125 C 148.199219 313.125 149.023438 313.300781 149.925781 313.648438 L 149.625 314.773438 C 148.773438 314.425781 148.050781 314.25 147.449219 314.25 C 146.800781 314.25 146.300781 314.398438 145.949219 314.699219 C 145.550781 314.949219 145.375 315.324219 145.425781 315.824219 C 145.425781 316.175781 145.5 316.449219 145.648438 316.648438 C 145.851562 316.898438 146.074219 317.074219 146.324219 317.175781 C 146.625 317.324219 147 317.476562 147.449219 317.625 C 148.050781 317.773438 148.550781 317.949219 148.949219 318.148438 C 149.300781 318.351562 149.601562 318.648438 149.851562 319.050781 C 150.101562 319.398438 150.226562 319.925781 150.226562 320.625 C 150.226562 321.523438 149.925781 322.226562 149.324219 322.726562 C 148.675781 323.226562 147.851562 323.476562 146.851562 323.476562 C 146.25 323.476562 145.699219 323.425781 145.199219 323.324219 C 144.75 323.175781 144.273438 323 143.773438 322.800781 L 144.148438 321.675781 "/>
<path style=" stroke:none;fill-rule:nonzero;fill:rgb(0%,0%,100%);fill-opacity:1;" d="M 201.824219 235.648438 L 205.199219 241.050781 C 205.398438 241.398438 205.675781 241.875 206.023438 242.476562 C 206.375 243.125 206.574219 243.476562 206.625 243.523438 L 206.625 235.648438 L 207.898438 235.648438 L 207.898438 245.773438 L 206.550781 245.773438 L 202.949219 239.925781 C 202.699219 239.476562 202.425781 238.976562 202.125 238.425781 C 201.824219 237.925781 201.648438 237.574219 201.601562 237.375 L 201.601562 245.773438 L 200.25 245.773438 L 200.25 235.648438 L 201.824219 235.648438 "/>
<path style=" stroke:none;fill-rule:nonzero;fill:rgb(0%,0%,100%);fill-opacity:1;" d="M 200.101562 224.476562 L 201.523438 224.476562 L 201.523438 228.824219 L 206.699219 228.824219 L 206.699219 224.476562 L 208.050781 224.476562 L 208.050781 234.601562 L 206.699219 234.601562 L 206.699219 229.949219 L 201.523438 229.949219 L 201.523438 234.601562 L 200.101562 234.601562 L 200.101562 224.476562 "/>
<path style=" stroke:none;fill-rule:nonzero;fill:rgb(100%,0%,0%);fill-opacity:1;" d="M 217.726562 300 C 217.726562 298.398438 218.125 297.125 218.925781 296.175781 C 219.726562 295.273438 220.875 294.824219 222.375 294.824219 C 223.875 294.824219 225.023438 295.273438 225.824219 296.175781 C 226.625 297.125 227.023438 298.398438 227.023438 300 C 227.023438 301.648438 226.625 302.949219 225.824219 303.898438 C 224.976562 304.800781 223.824219 305.25 222.375 305.25 C 220.875 305.25 219.726562 304.800781 218.925781 303.898438 C 218.125 302.949219 217.726562 301.648438 217.726562 300 M 222.375 304.125 C 223.375 304.125 224.148438 303.773438 224.699219 303.074219 C 225.300781 302.375 225.601562 301.351562 225.601562 300 C 225.601562 298.648438 225.300781 297.648438 224.699219 297 C 224.148438 296.351562 223.375 296.023438 222.375 296.023438 C 221.324219 296.023438 220.523438 296.351562 219.976562 297 C 219.425781 297.648438 219.148438 298.648438 219.148438 300 C 219.148438 301.351562 219.425781 302.375 219.976562 303.074219 C 220.523438 303.773438 221.324219 304.125 222.375 304.125 "/>
<path style=" stroke:none;fill-rule:nonzero;fill:rgb(0%,0%,100%);fill-opacity:1;" d="M 270.300781 214.574219 L 273.601562 219.898438 C 273.800781 220.25 274.074219 220.75 274.425781 221.398438 C 274.773438 222.050781 274.976562 222.398438 275.023438 222.449219 L 275.023438 214.574219 L 276.375 214.574219 L 276.375 224.699219 L 274.949219 224.699219 L 271.425781 218.851562 C 271.125 218.398438 270.824219 217.898438 270.523438 217.351562 C 270.273438 216.800781 270.101562 216.449219 270 216.300781 L 270 224.699219 L 268.648438 224.699219 L 268.648438 214.574219 L 270.300781 214.574219 "/>
<path style=" stroke:none;fill-rule:nonzero;fill:rgb(0%,0%,100%);fill-opacity:1;" d="M 277.574219 214.574219 L 278.925781 214.574219 L 278.925781 218.851562 L 284.101562 218.851562 L 284.101562 214.574219 L 285.449219 214.574219 L 285.449219 224.699219 L 284.101562 224.699219 L 284.101562 220.050781 L 278.925781 220.050781 L 278.925781 224.699219 L 277.574219 224.699219 L 277.574219 214.574219 "/>
<path style=" stroke:none;fill-rule:nonzero;fill:rgb(0%,0%,100%);fill-opacity:1;" d="M 286.726562 224.324219 C 286.875 223.925781 287.148438 223.601562 287.550781 223.351562 C 287.949219 223.101562 288.425781 222.976562 288.976562 222.976562 C 289.625 222.976562 290.148438 223.175781 290.550781 223.574219 C 290.898438 223.925781 291.074219 224.425781 291.074219 225.074219 C 291.074219 225.726562 290.824219 226.351562 290.324219 226.949219 C 289.875 227.601562 289.148438 228.273438 288.148438 228.976562 L 291.226562 228.976562 L 291.226562 229.800781 L 286.726562 229.800781 L 286.726562 229.125 C 287.523438 228.523438 288.175781 228 288.675781 227.550781 C 289.175781 227.148438 289.550781 226.75 289.800781 226.351562 C 290.050781 225.949219 290.175781 225.550781 290.175781 225.148438 C 290.175781 224.699219 290.050781 224.351562 289.800781 224.101562 C 289.601562 223.851562 289.324219 223.726562 288.976562 223.726562 C 288.574219 223.726562 288.273438 223.800781 288.074219 223.949219 C 287.824219 224.101562 287.625 224.351562 287.476562 224.699219 L 286.726562 224.324219 "/>
<path style=" stroke:none;fill-rule:nonzero;fill:rgb(100%,0%,0%);fill-opacity:1;" d="M 123 200.324219 C 123 198.726562 123.398438 197.476562 124.199219 196.574219 C 125.050781 195.625 126.226562 195.148438 127.726562 195.148438 C 129.175781 195.148438 130.324219 195.625 131.175781 196.574219 C 131.976562 197.476562 132.375 198.726562 132.375 200.324219 C 132.375 201.976562 131.949219 203.273438 131.101562 204.226562 C 130.300781 205.125 129.175781 205.574219 127.726562 205.574219 C 126.226562 205.574219 125.050781 205.125 124.199219 204.226562 C 123.398438 203.273438 123 201.976562 123 200.324219 M 127.726562 204.449219 C 128.726562 204.449219 129.5 204.101562 130.050781 203.398438 C 130.601562 202.699219 130.875 201.675781 130.875 200.324219 C 130.875 199.023438 130.601562 198.023438 130.050781 197.324219 C 129.5 196.675781 128.726562 196.351562 127.726562 196.351562 C 126.675781 196.351562 125.875 196.675781 125.324219 197.324219 C 124.773438 197.976562 124.5 198.976562 124.5 200.324219 C 124.5 201.675781 124.773438 202.699219 125.324219 203.398438 C 125.875 204.101562 126.675781 204.449219 127.726562 204.449219 "/>
<path style=" stroke:none;fill-rule:nonzero;fill:rgb(0%,0%,100%);fill-opacity:1;" d="M 119.25 261.074219 L 122.550781 266.476562 C 122.800781 266.824219 123.101562 267.324219 123.449219 267.976562 C 123.800781 268.625 123.976562 268.949219 123.976562 268.949219 L 123.976562 261.074219 L 125.324219 261.074219 L 125.324219 271.273438 L 123.976562 271.273438 L 120.375 265.351562 C 120.125 264.898438 119.851562 264.425781 119.550781 263.925781 C 119.25 263.375 119.050781 263.023438 118.949219 262.875 L 118.949219 271.273438 L 117.675781 271.273438 L 117.675781 261.074219 L 119.25 261.074219 "/>
<path style=" stroke:none;fill-rule:nonzero;fill:rgb(100%,0%,0%);fill-opacity:1;" d="M 43.574219 251.398438 C 43.574219 249.75 43.976562 248.476562 44.773438 247.574219 C 45.574219 246.675781 46.726562 246.226562 48.226562 246.226562 C 49.726562 246.226562 50.875 246.675781 51.675781 247.574219 C 52.476562 248.476562 52.875 249.75 52.875 251.398438 C 52.875 253 52.476562 254.273438 51.675781 255.226562 C 50.824219 256.175781 49.675781 256.648438 48.226562 256.648438 C 46.726562 256.648438 45.574219 256.175781 44.773438 255.226562 C 43.976562 254.324219 43.574219 253.050781 43.574219 251.398438 M 48.226562 255.449219 C 49.226562 255.449219 50 255.125 50.550781 254.476562 C 51.148438 253.773438 51.449219 252.75 51.449219 251.398438 C 51.449219 250.050781 51.148438 249.050781 50.550781 248.398438 C 50 247.699219 49.226562 247.351562 48.226562 247.351562 C 47.175781 247.351562 46.375 247.699219 45.824219 248.398438 C 45.273438 249.050781 45 250.050781 45 251.398438 C 45 252.75 45.273438 253.773438 45.824219 254.476562 C 46.375 255.125 47.175781 255.449219 48.226562 255.449219 "/>
<path style=" stroke:none;fill-rule:nonzero;fill:rgb(100%,0%,0%);fill-opacity:1;" d="M 23.773438 307.425781 L 25.125 307.425781 L 25.125 311.699219 L 30.300781 311.699219 L 30.300781 307.425781 L 31.726562 307.425781 L 31.726562 317.550781 L 30.300781 317.550781 L 30.300781 312.898438 L 25.125 312.898438 L 25.125 317.550781 L 23.773438 317.550781 L 23.773438 307.425781 "/>
<path style=" stroke:none;fill-rule:nonzero;fill:rgb(100%,0%,0%);fill-opacity:1;" d="M 32.925781 312.449219 C 32.925781 310.851562 33.324219 309.601562 34.125 308.699219 C 34.925781 307.75 36.074219 307.273438 37.574219 307.273438 C 39.074219 307.273438 40.226562 307.75 41.023438 308.699219 C 41.824219 309.601562 42.226562 310.851562 42.226562 312.449219 C 42.226562 314.101562 41.824219 315.398438 41.023438 316.351562 C 40.226562 317.25 39.074219 317.699219 37.574219 317.699219 C 36.074219 317.699219 34.925781 317.25 34.125 316.351562 C 33.324219 315.398438 32.925781 314.101562 32.925781 312.449219 M 37.574219 316.574219 C 38.625 316.574219 39.425781 316.226562 39.976562 315.523438 C 40.523438 314.824219 40.800781 313.800781 40.800781 312.449219 C 40.800781 311.148438 40.523438 310.148438 39.976562 309.449219 C 39.425781 308.800781 38.625 308.476562 37.574219 308.476562 C 36.523438 308.476562 35.726562 308.800781 35.175781 309.449219 C 34.625 310.101562 34.351562 311.101562 34.351562 312.449219 C 34.351562 313.800781 34.625 314.824219 35.175781 315.523438 C 35.726562 316.226562 36.523438 316.574219 37.574219 316.574219 "/>
<path style=" stroke:none;fill-rule:nonzero;fill:rgb(100%,0%,0%);fill-opacity:1;" d="M 99.523438 67.574219 C 99.523438 65.925781 99.925781 64.648438 100.726562 63.75 C 101.523438 62.851562 102.675781 62.398438 104.175781 62.398438 C 105.675781 62.398438 106.824219 62.851562 107.625 63.75 C 108.425781 64.648438 108.824219 65.925781 108.824219 67.574219 C 108.824219 69.226562 108.425781 70.5 107.625 71.398438 C 106.773438 72.351562 105.625 72.824219 104.175781 72.824219 C 102.675781 72.824219 101.523438 72.351562 100.726562 71.398438 C 99.925781 70.5 99.523438 69.226562 99.523438 67.574219 M 104.175781 71.625 C 105.175781 71.625 105.949219 71.300781 106.5 70.648438 C 107.101562 69.949219 107.398438 68.925781 107.398438 67.574219 C 107.398438 66.226562 107.101562 65.226562 106.5 64.574219 C 105.949219 63.875 105.175781 63.523438 104.175781 63.523438 C 103.125 63.523438 102.324219 63.875 101.773438 64.574219 C 101.226562 65.226562 100.949219 66.226562 100.949219 67.574219 C 100.949219 68.925781 101.226562 69.949219 101.773438 70.648438 C 102.324219 71.300781 103.125 71.625 104.175781 71.625 "/>
<path style=" stroke:none;fill-rule:nonzero;fill:rgb(100%,0%,0%);fill-opacity:1;" d="M 112.273438 128.25 C 112.273438 126.601562 112.675781 125.324219 113.476562 124.425781 C 114.273438 123.523438 115.425781 123.074219 116.925781 123.074219 C 118.425781 123.074219 119.574219 123.523438 120.375 124.425781 C 121.175781 125.324219 121.574219 126.601562 121.574219 128.25 C 121.574219 129.898438 121.175781 131.175781 120.375 132.074219 C 119.523438 133.023438 118.375 133.5 116.925781 133.5 C 115.425781 133.5 114.273438 133.023438 113.476562 132.074219 C 112.675781 131.175781 112.273438 129.898438 112.273438 128.25 M 116.925781 132.375 C 117.925781 132.375 118.699219 132.023438 119.25 131.324219 C 119.851562 130.625 120.148438 129.601562 120.148438 128.25 C 120.148438 126.898438 119.851562 125.898438 119.25 125.25 C 118.699219 124.550781 117.925781 124.199219 116.925781 124.199219 C 115.875 124.199219 115.074219 124.550781 114.523438 125.25 C 113.976562 125.898438 113.699219 126.898438 113.699219 128.25 C 113.699219 129.601562 113.976562 130.625 114.523438 131.324219 C 115.074219 132.023438 115.875 132.375 116.925781 132.375 "/>
<path style=" stroke:none;fill-rule:nonzero;fill:rgb(100%,0%,0%);fill-opacity:1;" d="M 122.25 123.226562 L 123.675781 123.226562 L 123.675781 127.5 L 128.851562 127.5 L 128.851562 123.226562 L 130.199219 123.226562 L 130.199219 133.351562 L 128.851562 133.351562 L 128.851562 128.625 L 123.675781 128.625 L 123.675781 133.351562 L 122.25 133.351562 L 122.25 123.226562 "/>
<path style=" stroke:none;fill-rule:nonzero;fill:rgb(0%,0%,100%);fill-opacity:1;" d="M 187.425781 105.75 L 190.726562 111.148438 C 190.925781 111.5 191.199219 112 191.550781 112.648438 C 191.898438 113.25 192.101562 113.574219 192.148438 113.625 L 192.148438 105.75 L 193.5 105.75 L 193.5 115.875 L 192.074219 115.875 L 188.550781 110.023438 C 188.25 109.574219 187.949219 109.074219 187.648438 108.523438 C 187.398438 108.023438 187.226562 107.699219 187.125 107.550781 L 187.125 115.875 L 185.773438 115.875 L 185.773438 105.75 L 187.425781 105.75 "/>
<path style=" stroke:none;fill-rule:nonzero;fill:rgb(100%,0%,0%);fill-opacity:1;" d="M 193.5 176.476562 C 193.5 174.824219 193.898438 173.550781 194.699219 172.648438 C 195.5 171.75 196.648438 171.300781 198.148438 171.300781 C 199.648438 171.300781 200.800781 171.75 201.601562 172.648438 C 202.398438 173.550781 202.800781 174.824219 202.800781 176.476562 C 202.800781 178.125 202.375 179.398438 201.523438 180.300781 C 200.726562 181.25 199.601562 181.726562 198.148438 181.726562 C 196.648438 181.726562 195.5 181.25 194.699219 180.300781 C 193.898438 179.398438 193.5 178.125 193.5 176.476562 M 198.148438 180.601562 C 199.148438 180.601562 199.925781 180.25 200.476562 179.550781 C 201.074219 178.851562 201.375 177.824219 201.375 176.476562 C 201.375 175.125 201.074219 174.125 200.476562 173.476562 C 199.925781 172.773438 199.148438 172.425781 198.148438 172.425781 C 197.101562 172.425781 196.300781 172.773438 195.75 173.476562 C 195.199219 174.125 194.925781 175.125 194.925781 176.476562 C 194.925781 177.824219 195.199219 178.851562 195.75 179.550781 C 196.300781 180.25 197.101562 180.601562 198.148438 180.601562 "/>
<path style=" stroke:none;fill-rule:nonzero;fill:rgb(80%,80%,0%);fill-opacity:1;" d="M 210.449219 61.425781 C 210.550781 61.476562 210.75 61.574219 211.050781 61.726562 C 211.351562 61.824219 211.675781 61.925781 212.023438 62.023438 C 212.375 62.125 212.726562 62.175781 213.074219 62.175781 C 213.726562 62.175781 214.226562 62 214.574219 61.648438 C 214.976562 61.351562 215.175781 60.925781 215.175781 60.375 C 215.175781 60.023438 215.074219 59.726562 214.875 59.476562 C 214.675781 59.273438 214.449219 59.101562 214.199219 58.949219 C 213.898438 58.851562 213.5 58.726562 213 58.574219 C 212.398438 58.375 211.925781 58.199219 211.574219 58.050781 C 211.226562 57.851562 210.925781 57.574219 210.675781 57.226562 C 210.425781 56.875 210.300781 56.398438 210.300781 55.800781 C 210.300781 54.949219 210.574219 54.25 211.125 53.699219 C 211.726562 53.199219 212.601562 52.949219 213.75 52.949219 C 214.5 52.949219 215.324219 53.125 216.226562 53.476562 L 215.925781 54.601562 C 215.125 54.25 214.398438 54.074219 213.75 54.074219 C 213.101562 54.074219 212.601562 54.226562 212.25 54.523438 C 211.898438 54.773438 211.726562 55.125 211.726562 55.574219 C 211.726562 55.976562 211.800781 56.273438 211.949219 56.476562 C 212.148438 56.675781 212.398438 56.851562 212.699219 57 C 212.949219 57.101562 213.300781 57.226562 213.75 57.375 C 214.398438 57.574219 214.898438 57.773438 215.25 57.976562 C 215.601562 58.175781 215.898438 58.449219 216.148438 58.800781 C 216.449219 59.199219 216.601562 59.726562 216.601562 60.375 C 216.601562 61.324219 216.273438 62.050781 215.625 62.550781 C 215.023438 63.050781 214.199219 63.300781 213.148438 63.300781 C 212.550781 63.300781 212.023438 63.226562 211.574219 63.074219 C 211.125 62.976562 210.625 62.800781 210.074219 62.550781 L 210.449219 61.425781 "/>
<path style=" stroke:none;fill-rule:nonzero;fill:rgb(100%,0%,0%);fill-opacity:1;" d="M 208.726562 22.199219 C 208.726562 20.601562 209.125 19.324219 209.925781 18.375 C 210.726562 17.476562 211.875 17.023438 213.375 17.023438 C 214.875 17.023438 216.023438 17.476562 216.824219 18.375 C 217.625 19.324219 218.023438 20.601562 218.023438 22.199219 C 218.023438 23.851562 217.625 25.148438 216.824219 26.101562 C 216.023438 27 214.875 27.449219 213.375 27.449219 C 211.925781 27.449219 210.773438 27 209.925781 26.101562 C 209.125 25.148438 208.726562 23.851562 208.726562 22.199219 M 213.375 26.324219 C 214.425781 26.324219 215.226562 25.976562 215.773438 25.273438 C 216.324219 24.574219 216.601562 23.550781 216.601562 22.199219 C 216.601562 20.851562 216.324219 19.851562 215.773438 19.199219 C 215.226562 18.550781 214.425781 18.226562 213.375 18.226562 C 212.375 18.226562 211.574219 18.550781 210.976562 19.199219 C 210.425781 19.851562 210.148438 20.851562 210.148438 22.199219 C 210.148438 23.550781 210.425781 24.574219 210.976562 25.273438 C 211.574219 25.976562 212.375 26.324219 213.375 26.324219 "/>
<path style=" stroke:none;fill-rule:nonzero;fill:rgb(100%,0%,0%);fill-opacity:1;" d="M 244.273438 54.375 C 244.273438 52.726562 244.675781 51.449219 245.476562 50.550781 C 246.273438 49.648438 247.425781 49.199219 248.925781 49.199219 C 250.425781 49.199219 251.574219 49.648438 252.375 50.550781 C 253.175781 51.449219 253.574219 52.726562 253.574219 54.375 C 253.574219 55.976562 253.175781 57.25 252.375 58.199219 C 251.574219 59.148438 250.425781 59.625 248.925781 59.625 C 247.425781 59.625 246.273438 59.148438 245.476562 58.199219 C 244.675781 57.300781 244.273438 56.023438 244.273438 54.375 M 248.925781 58.425781 C 249.976562 58.425781 250.773438 58.101562 251.324219 57.449219 C 251.875 56.75 252.148438 55.726562 252.148438 54.375 C 252.148438 53.023438 251.875 52.023438 251.324219 51.375 C 250.773438 50.675781 249.976562 50.324219 248.925781 50.324219 C 247.875 50.324219 247.074219 50.648438 246.523438 51.300781 C 245.976562 52 245.699219 53.023438 245.699219 54.375 C 245.699219 55.726562 245.976562 56.75 246.523438 57.449219 C 247.074219 58.101562 247.875 58.425781 248.925781 58.425781 "/>
<path style=" stroke:none;fill-rule:nonzero;fill:rgb(0%,0%,0%);fill-opacity:1;" d="M 183.074219 289.425781 L 184.425781 289.425781 L 184.425781 293.699219 L 189.601562 293.699219 L 189.601562 289.425781 L 190.949219 289.425781 L 190.949219 299.550781 L 189.601562 299.550781 L 189.601562 294.898438 L 184.425781 294.898438 L 184.425781 299.550781 L 183.074219 299.550781 L 183.074219 289.425781 "/>
<path style=" stroke:none;fill-rule:nonzero;fill:rgb(0%,0%,0%);fill-opacity:1;" d="M 250.199219 75.148438 L 251.550781 75.148438 L 251.550781 79.5 L 256.726562 79.5 L 256.726562 75.148438 L 258.074219 75.148438 L 258.074219 85.351562 L 256.726562 85.351562 L 256.726562 80.625 L 251.550781 80.625 L 251.550781 85.351562 L 250.199219 85.351562 L 250.199219 75.148438 "/>
</g>
</svg>
