<?xml version="1.0" encoding="UTF-8"?>
<svg xmlns="http://www.w3.org/2000/svg" xmlns:xlink="http://www.w3.org/1999/xlink" width="375pt" height="375pt" viewBox="0 0 375 375" version="1.1">
<g id="surface174">
<rect x="0" y="0" width="375" height="375" style="fill:rgb(100%,100%,100%);fill-opacity:1;stroke:none;"/>
<path style="fill:none;stroke-width:2;stroke-linecap:butt;stroke-linejoin:miter;stroke:rgb(0%,0%,0%);stroke-opacity:1;stroke-miterlimit:4;" d="M 22.697917 265.302083 L 39.5 262.401042 " transform="matrix(0.75,0,0,0.75,0,0)"/>
<path style="fill:none;stroke-width:2;stroke-linecap:butt;stroke-linejoin:miter;stroke:rgb(100%,0%,0%);stroke-opacity:1;stroke-miterlimit:4;" d="M 39.5 262.401042 L 56.302083 259.5 " transform="matrix(0.75,0,0,0.75,0,0)"/>
<path style="fill:none;stroke-width:2;stroke-linecap:butt;stroke-linejoin:miter;stroke:rgb(100%,0%,0%);stroke-opacity:1;stroke-miterlimit:4;" d="M 69 265.802083 L 79 277.802083 " transform="matrix(0.75,0,0,0.75,0,0)"/>
<path style="fill:none;stroke-width:2;stroke-linecap:butt;stroke-linejoin:miter;stroke:rgb(0%,0%,0%);stroke-opacity:1;stroke-miterlimit:4;" d="M 79 277.802083 L 89 289.802083 " transform="matrix(0.75,0,0,0.75,0,0)"/>
<path style="fill:none;stroke-width:2;stroke-linecap:butt;stroke-linejoin:miter;stroke:rgb(0%,0%,0%);stroke-opacity:1;stroke-miterlimit:4;" d="M 89 289.802083 L 129.197917 282.901042 " transform="matrix(0.75,0,0,0.75,0,0)"/>
<path style="fill:none;stroke-width:2;stroke-linecap:butt;stroke-linejoin:miter;stroke:rgb(0%,0%,0%);stroke-opacity:1;stroke-miterlimit:4;" d="M 129.197917 282.901042 L 143.302083 244.697917 " transform="matrix(0.75,0,0,0.75,0,0)"/>
<path style="fill:none;stroke-width:2;stroke-linecap:butt;stroke-linejoin:miter;stroke:rgb(0%,0%,0%);stroke-opacity:1;stroke-miterlimit:4;" d="M 136.098958 281.697917 L 147.802083 250.098958 " transform="matrix(0.75,0,0,0.75,0,0)"/>
<path style="fill:none;stroke-width:2;stroke-linecap:butt;stroke-linejoin:miter;stroke:rgb(0%,0%,0%);stroke-opacity:1;stroke-miterlimit:4;" d="M 143.302083 244.697917 L 117.302083 213.302083 " transform="matrix(0.75,0,0,0.75,0,0)"/>
<path style="fill:none;stroke-width:2;stroke-linecap:butt;stroke-linejoin:miter;stroke:rgb(0%,0%,0%);stroke-opacity:1;stroke-miterlimit:4;" d="M 118.5 210 L 100.901042 213 " transform="matrix(0.75,0,0,0.75,0,0)"/>
<path style="fill:none;stroke-width:2;stroke-linecap:butt;stroke-linejoin:miter;stroke:rgb(100%,0%,0%);stroke-opacity:1;stroke-miterlimit:4;" d="M 100.901042 213 L 83.197917 216 " transform="matrix(0.75,0,0,0.75,0,0)"/>
<path style="fill:none;stroke-width:2;stroke-linecap:butt;stroke-linejoin:miter;stroke:rgb(0%,0%,0%);stroke-opacity:1;stroke-miterlimit:4;" d="M 119.5 216 L 101.901042 219 " transform="matrix(0.75,0,0,0.75,0,0)"/>
<path style="fill:none;stroke-width:2;stroke-linecap:butt;stroke-linejoin:miter;stroke:rgb(100%,0%,0%);stroke-opacity:1;stroke-miterlimit:4;" d="M 101.901042 219 L 84.197917 222 " transform="matrix(0.75,0,0,0.75,0,0)"/>
<path style="fill:none;stroke-width:2;stroke-linecap:butt;stroke-linejoin:miter;stroke:rgb(0%,0%,0%);stroke-opacity:1;stroke-miterlimit:4;" d="M 117.302083 213.302083 L 123 197.901042 " transform="matrix(0.75,0,0,0.75,0,0)"/>
<path style="fill:none;stroke-width:2;stroke-linecap:butt;stroke-linejoin:miter;stroke:rgb(100%,0%,0%);stroke-opacity:1;stroke-miterlimit:4;" d="M 123 197.901042 L 128.697917 182.401042 " transform="matrix(0.75,0,0,0.75,0,0)"/>
<path style="fill:none;stroke-width:2;stroke-linecap:butt;stroke-linejoin:miter;stroke:rgb(0%,0%,0%);stroke-opacity:1;stroke-miterlimit:4;" d="M 143.302083 244.697917 L 160.598958 241.697917 " transform="matrix(0.75,0,0,0.75,0,0)"/>
<path style="fill:none;stroke-width:2;stroke-linecap:butt;stroke-linejoin:miter;stroke:rgb(0%,0%,100%);stroke-opacity:1;stroke-miterlimit:4;" d="M 160.598958 241.697917 L 177.802083 238.802083 " transform="matrix(0.75,0,0,0.75,0,0)"/>
<path style="fill:none;stroke-width:2;stroke-linecap:butt;stroke-linejoin:miter;stroke:rgb(0%,0%,100%);stroke-opacity:1;stroke-miterlimit:4;" d="M 189.197917 233.098958 L 202.098958 222.401042 " transform="matrix(0.75,0,0,0.75,0,0)"/>
<path style="fill:none;stroke-width:2;stroke-linecap:butt;stroke-linejoin:miter;stroke:rgb(0%,0%,0%);stroke-opacity:1;stroke-miterlimit:4;" d="M 202.098958 222.401042 L 214.901042 211.802083 " transform="matrix(0.75,0,0,0.75,0,0)"/>
<path style="fill:none;stroke-width:2;stroke-linecap:butt;stroke-linejoin:miter;stroke:rgb(0%,0%,0%);stroke-opacity:1;stroke-miterlimit:4;" d="M 217.697917 215.098958 L 219.302083 197 " transform="matrix(0.75,0,0,0.75,0,0)"/>
<path style="fill:none;stroke-width:2;stroke-linecap:butt;stroke-linejoin:miter;stroke:rgb(100%,0%,0%);stroke-opacity:1;stroke-miterlimit:4;" d="M 219.302083 197 L 221 178.802083 " transform="matrix(0.75,0,0,0.75,0,0)"/>
<path style="fill:none;stroke-width:2;stroke-linecap:butt;stroke-linejoin:miter;stroke:rgb(0%,0%,0%);stroke-opacity:1;stroke-miterlimit:4;" d="M 211.598958 214.598958 L 213.302083 196.401042 " transform="matrix(0.75,0,0,0.75,0,0)"/>
<path style="fill:none;stroke-width:2;stroke-linecap:butt;stroke-linejoin:miter;stroke:rgb(100%,0%,0%);stroke-opacity:1;stroke-miterlimit:4;" d="M 213.302083 196.401042 L 214.901042 178.302083 " transform="matrix(0.75,0,0,0.75,0,0)"/>
<path style="fill:none;stroke-width:2;stroke-linecap:butt;stroke-linejoin:miter;stroke:rgb(0%,0%,0%);stroke-opacity:1;stroke-miterlimit:4;" d="M 214.901042 211.802083 L 240.901042 243.197917 " transform="matrix(0.75,0,0,0.75,0,0)"/>
<path style="fill-rule:evenodd;fill:rgb(0%,0%,0%);fill-opacity:1;stroke-width:0.5;stroke-linecap:butt;stroke-linejoin:miter;stroke:rgb(0%,0%,0%);stroke-opacity:1;stroke-miterlimit:4;" d="M 240.901042 243.197917 L 257.802083 243.197917 L 257.598958 246.302083 Z M 240.901042 243.197917 " transform="matrix(0.75,0,0,0.75,0,0)"/>
<path style="fill-rule:evenodd;fill:rgb(0%,0%,100%);fill-opacity:1;stroke-width:0.5;stroke-linecap:butt;stroke-linejoin:miter;stroke:rgb(0%,0%,100%);stroke-opacity:1;stroke-miterlimit:4;" d="M 257.802083 243.197917 L 274.197917 249.302083 L 274.697917 243.302083 Z M 257.802083 243.197917 " transform="matrix(0.75,0,0,0.75,0,0)"/>
<path style="fill-rule:evenodd;fill:rgb(0%,0%,100%);fill-opacity:1;stroke-width:0.5;stroke-linecap:butt;stroke-linejoin:miter;stroke:rgb(0%,0%,100%);stroke-opacity:1;stroke-miterlimit:4;" d="M 257.802083 243.197917 L 257.598958 246.302083 L 274.197917 249.302083 Z M 257.802083 243.197917 " transform="matrix(0.75,0,0,0.75,0,0)"/>
<path style="fill:none;stroke-width:2;stroke-linecap:butt;stroke-linejoin:miter;stroke:rgb(0%,0%,100%);stroke-opacity:1;stroke-miterlimit:4;" d="M 284.802083 254.098958 L 291.697917 269 " transform="matrix(0.75,0,0,0.75,0,0)"/>
<path style="fill:none;stroke-width:2;stroke-linecap:butt;stroke-linejoin:miter;stroke:rgb(0%,0%,0%);stroke-opacity:1;stroke-miterlimit:4;" d="M 291.697917 269 L 298.598958 284 " transform="matrix(0.75,0,0,0.75,0,0)"/>
<path style="fill:none;stroke-width:2;stroke-linecap:butt;stroke-linejoin:miter;stroke:rgb(0%,0%,0%);stroke-opacity:1;stroke-miterlimit:4;" d="M 297.098958 280.802083 L 287.302083 294.598958 " transform="matrix(0.75,0,0,0.75,0,0)"/>
<path style="fill:none;stroke-width:2;stroke-linecap:butt;stroke-linejoin:miter;stroke:rgb(100%,0%,0%);stroke-opacity:1;stroke-miterlimit:4;" d="M 287.302083 294.598958 L 277.598958 308.302083 " transform="matrix(0.75,0,0,0.75,0,0)"/>
<path style="fill:none;stroke-width:2;stroke-linecap:butt;stroke-linejoin:miter;stroke:rgb(0%,0%,0%);stroke-opacity:1;stroke-miterlimit:4;" d="M 302.098958 284.302083 L 292.302083 298.098958 " transform="matrix(0.75,0,0,0.75,0,0)"/>
<path style="fill:none;stroke-width:2;stroke-linecap:butt;stroke-linejoin:miter;stroke:rgb(100%,0%,0%);stroke-opacity:1;stroke-miterlimit:4;" d="M 292.302083 298.098958 L 282.598958 311.901042 " transform="matrix(0.75,0,0,0.75,0,0)"/>
<path style="fill:none;stroke-width:2;stroke-linecap:butt;stroke-linejoin:miter;stroke:rgb(0%,0%,0%);stroke-opacity:1;stroke-miterlimit:4;" d="M 298.598958 284 L 339.197917 287.802083 " transform="matrix(0.75,0,0,0.75,0,0)"/>
<path style="fill:none;stroke-width:2;stroke-linecap:butt;stroke-linejoin:miter;stroke:rgb(0%,0%,0%);stroke-opacity:1;stroke-miterlimit:4;" d="M 339.197917 287.802083 L 346 302.802083 " transform="matrix(0.75,0,0,0.75,0,0)"/>
<path style="fill:none;stroke-width:2;stroke-linecap:butt;stroke-linejoin:miter;stroke:rgb(0%,0%,100%);stroke-opacity:1;stroke-miterlimit:4;" d="M 346 302.802083 L 352.901042 317.697917 " transform="matrix(0.75,0,0,0.75,0,0)"/>
<path style="fill:none;stroke-width:2;stroke-linecap:butt;stroke-linejoin:miter;stroke:rgb(0%,0%,0%);stroke-opacity:1;stroke-miterlimit:4;" d="M 346.197917 288.401042 L 351.697917 300.5 " transform="matrix(0.75,0,0,0.75,0,0)"/>
<path style="fill:none;stroke-width:2;stroke-linecap:butt;stroke-linejoin:miter;stroke:rgb(0%,0%,100%);stroke-opacity:1;stroke-miterlimit:4;" d="M 351.697917 300.5 L 357.197917 312.5 " transform="matrix(0.75,0,0,0.75,0,0)"/>
<path style="fill:none;stroke-width:2;stroke-linecap:butt;stroke-linejoin:miter;stroke:rgb(0%,0%,100%);stroke-opacity:1;stroke-miterlimit:4;" d="M 361.901042 325.401042 L 376 326.697917 " transform="matrix(0.75,0,0,0.75,0,0)"/>
<path style="fill:none;stroke-width:2;stroke-linecap:butt;stroke-linejoin:miter;stroke:rgb(100%,0%,0%);stroke-opacity:1;stroke-miterlimit:4;" d="M 376 326.697917 L 390.098958 328 " transform="matrix(0.75,0,0,0.75,0,0)"/>
<path style="fill:none;stroke-width:2;stroke-linecap:butt;stroke-linejoin:miter;stroke:rgb(0%,0%,0%);stroke-opacity:1;stroke-miterlimit:4;" d="M 339.197917 287.802083 L 362.697917 254.5 " transform="matrix(0.75,0,0,0.75,0,0)"/>
<path style="fill:none;stroke-width:2;stroke-linecap:butt;stroke-linejoin:miter;stroke:rgb(0%,0%,0%);stroke-opacity:1;stroke-miterlimit:4;" d="M 362.697917 254.5 L 349.697917 215.901042 " transform="matrix(0.75,0,0,0.75,0,0)"/>
<path style="fill:none;stroke-width:2;stroke-linecap:butt;stroke-linejoin:miter;stroke:rgb(0%,0%,0%);stroke-opacity:1;stroke-miterlimit:4;" d="M 367.098958 248.401042 L 356.901042 218.098958 " transform="matrix(0.75,0,0,0.75,0,0)"/>
<path style="fill:none;stroke-width:2;stroke-linecap:butt;stroke-linejoin:miter;stroke:rgb(0%,0%,0%);stroke-opacity:1;stroke-miterlimit:4;" d="M 349.697917 215.901042 L 363.5 205.598958 " transform="matrix(0.75,0,0,0.75,0,0)"/>
<path style="fill:none;stroke-width:2;stroke-linecap:butt;stroke-linejoin:miter;stroke:rgb(80%,80%,0%);stroke-opacity:1;stroke-miterlimit:4;" d="M 363.5 205.598958 L 377.302083 195.302083 " transform="matrix(0.75,0,0,0.75,0,0)"/>
<path style="fill:none;stroke-width:2;stroke-linecap:butt;stroke-linejoin:miter;stroke:rgb(80%,80%,0%);stroke-opacity:1;stroke-miterlimit:4;" d="M 387.401042 195.098958 L 401.5 205.098958 " transform="matrix(0.75,0,0,0.75,0,0)"/>
<path style="fill:none;stroke-width:2;stroke-linecap:butt;stroke-linejoin:miter;stroke:rgb(0%,0%,0%);stroke-opacity:1;stroke-miterlimit:4;" d="M 401.5 205.098958 L 415.598958 215.098958 " transform="matrix(0.75,0,0,0.75,0,0)"/>
<path style="fill:none;stroke-width:2;stroke-linecap:butt;stroke-linejoin:miter;stroke:rgb(0%,0%,0%);stroke-opacity:1;stroke-miterlimit:4;" d="M 415.598958 215.098958 L 432.098958 209.5 " transform="matrix(0.75,0,0,0.75,0,0)"/>
<path style="fill:none;stroke-width:2;stroke-linecap:butt;stroke-linejoin:miter;stroke:rgb(0%,0%,100%);stroke-opacity:1;stroke-miterlimit:4;" d="M 432.098958 209.5 L 448.598958 204 " transform="matrix(0.75,0,0,0.75,0,0)"/>
<path style="fill:none;stroke-width:2;stroke-linecap:butt;stroke-linejoin:miter;stroke:rgb(0%,0%,0%);stroke-opacity:1;stroke-miterlimit:4;" d="M 415.598958 215.098958 L 410.697917 231 " transform="matrix(0.75,0,0,0.75,0,0)"/>
<path style="fill:none;stroke-width:2;stroke-linecap:butt;stroke-linejoin:miter;stroke:rgb(0%,0%,100%);stroke-opacity:1;stroke-miterlimit:4;" d="M 410.697917 231 L 405.697917 246.901042 " transform="matrix(0.75,0,0,0.75,0,0)"/>
<path style="fill:none;stroke-width:2;stroke-linecap:butt;stroke-linejoin:miter;stroke:rgb(0%,0%,0%);stroke-opacity:1;stroke-miterlimit:4;" d="M 408.5 217.5 L 404.197917 231.302083 " transform="matrix(0.75,0,0,0.75,0,0)"/>
<path style="fill:none;stroke-width:2;stroke-linecap:butt;stroke-linejoin:miter;stroke:rgb(0%,0%,100%);stroke-opacity:1;stroke-miterlimit:4;" d="M 404.197917 231.302083 L 399.901042 245.098958 " transform="matrix(0.75,0,0,0.75,0,0)"/>
<path style="fill:none;stroke-width:2;stroke-linecap:butt;stroke-linejoin:miter;stroke:rgb(0%,0%,0%);stroke-opacity:1;stroke-miterlimit:4;" d="M 240.901042 243.197917 L 209.5 269.197917 " transform="matrix(0.75,0,0,0.75,0,0)"/>
<path style="fill:none;stroke-width:2;stroke-linecap:butt;stroke-linejoin:miter;stroke:rgb(0%,0%,0%);stroke-opacity:1;stroke-miterlimit:4;" d="M 209.5 269.197917 L 203.802083 284.802083 " transform="matrix(0.75,0,0,0.75,0,0)"/>
<path style="fill:none;stroke-width:2;stroke-linecap:butt;stroke-linejoin:miter;stroke:rgb(80%,80%,0%);stroke-opacity:1;stroke-miterlimit:4;" d="M 203.802083 284.802083 L 198 300.401042 " transform="matrix(0.75,0,0,0.75,0,0)"/>
<path style="fill:none;stroke-width:2;stroke-linecap:butt;stroke-linejoin:miter;stroke:rgb(80%,80%,0%);stroke-opacity:1;stroke-miterlimit:4;" d="M 190.302083 308.302083 L 172.802083 311.302083 " transform="matrix(0.75,0,0,0.75,0,0)"/>
<path style="fill:none;stroke-width:2;stroke-linecap:butt;stroke-linejoin:miter;stroke:rgb(0%,0%,0%);stroke-opacity:1;stroke-miterlimit:4;" d="M 172.802083 311.302083 L 155.197917 314.302083 " transform="matrix(0.75,0,0,0.75,0,0)"/>
<path style="fill:none;stroke-width:2;stroke-linecap:butt;stroke-linejoin:miter;stroke:rgb(0%,0%,0%);stroke-opacity:1;stroke-miterlimit:4;" d="M 155.197917 314.302083 L 129.197917 282.901042 " transform="matrix(0.75,0,0,0.75,0,0)"/>
<path style="fill:none;stroke-width:2;stroke-linecap:butt;stroke-linejoin:miter;stroke:rgb(0%,0%,0%);stroke-opacity:1;stroke-miterlimit:4;" d="M 209.5 269.197917 L 199.401042 257 " transform="matrix(0.75,0,0,0.75,0,0)"/>
<path style="fill:none;stroke-width:2;stroke-linecap:butt;stroke-linejoin:miter;stroke:rgb(0%,0%,100%);stroke-opacity:1;stroke-miterlimit:4;" d="M 199.401042 257 L 189.197917 244.697917 " transform="matrix(0.75,0,0,0.75,0,0)"/>
<path style="fill:none;stroke-width:2;stroke-linecap:butt;stroke-linejoin:miter;stroke:rgb(0%,0%,100%);stroke-opacity:1;stroke-miterlimit:4;" d="M 397.802083 254.098958 L 380.302083 254.302083 " transform="matrix(0.75,0,0,0.75,0,0)"/>
<path style="fill:none;stroke-width:2;stroke-linecap:butt;stroke-linejoin:miter;stroke:rgb(0%,0%,0%);stroke-opacity:1;stroke-miterlimit:4;" d="M 380.302083 254.302083 L 362.697917 254.5 " transform="matrix(0.75,0,0,0.75,0,0)"/>
<path style="fill:none;stroke-width:1;stroke-linecap:butt;stroke-linejoin:miter;stroke:rgb(0%,0%,0%);stroke-opacity:1;stroke-miterlimit:4;" d="M 212.598958 271 L 212.197917 271.5 " transform="matrix(0.75,0,0,0.75,0,0)"/>
<path style="fill:none;stroke-width:1;stroke-linecap:butt;stroke-linejoin:miter;stroke:rgb(0%,0%,0%);stroke-opacity:1;stroke-miterlimit:4;" d="M 215.697917 272.802083 L 214.901042 273.901042 " transform="matrix(0.75,0,0,0.75,0,0)"/>
<path style="fill:none;stroke-width:1;stroke-linecap:butt;stroke-linejoin:miter;stroke:rgb(0%,0%,0%);stroke-opacity:1;stroke-miterlimit:4;" d="M 218.802083 274.5 L 217.598958 276.197917 " transform="matrix(0.75,0,0,0.75,0,0)"/>
<path style="fill:none;stroke-width:1;stroke-linecap:butt;stroke-linejoin:miter;stroke:rgb(0%,0%,0%);stroke-opacity:1;stroke-miterlimit:4;" d="M 221.901042 276.302083 L 220.302083 278.5 " transform="matrix(0.75,0,0,0.75,0,0)"/>
<path style="fill:none;stroke-width:1;stroke-linecap:butt;stroke-linejoin:miter;stroke:rgb(0%,0%,0%);stroke-opacity:1;stroke-miterlimit:4;" d="M 225 278.098958 L 223 280.901042 " transform="matrix(0.75,0,0,0.75,0,0)"/>
<path style="fill:none;stroke-width:1;stroke-linecap:butt;stroke-linejoin:miter;stroke:rgb(0%,0%,0%);stroke-opacity:1;stroke-miterlimit:4;" d="M 228.098958 279.901042 L 225.697917 283.197917 " transform="matrix(0.75,0,0,0.75,0,0)"/>
<path style="fill:none;stroke-width:1;stroke-linecap:butt;stroke-linejoin:miter;stroke:rgb(0%,0%,0%);stroke-opacity:1;stroke-miterlimit:4;" d="M 231.197917 281.598958 L 228.401042 285.5 " transform="matrix(0.75,0,0,0.75,0,0)"/>
<path style="fill:none;stroke-width:1;stroke-linecap:butt;stroke-linejoin:miter;stroke:rgb(0%,0%,0%);stroke-opacity:1;stroke-miterlimit:4;" d="M 234.302083 283.401042 L 231.098958 287.802083 " transform="matrix(0.75,0,0,0.75,0,0)"/>
<path style="fill:none;stroke-width:1;stroke-linecap:butt;stroke-linejoin:miter;stroke:rgb(0%,0%,0%);stroke-opacity:1;stroke-miterlimit:4;" d="M 237.401042 285.197917 L 233.802083 290.197917 " transform="matrix(0.75,0,0,0.75,0,0)"/>
<path style="fill:none;stroke-width:2;stroke-linecap:butt;stroke-linejoin:miter;stroke:rgb(0%,0%,0%);stroke-opacity:1;stroke-miterlimit:4;" d="M 88.5 289.197917 L 89 289.802083 L 91 289.401042 " transform="matrix(0.75,0,0,0.75,0,0)"/>
<path style="fill:none;stroke-width:2;stroke-linecap:butt;stroke-linejoin:miter;stroke:rgb(0%,0%,0%);stroke-opacity:1;stroke-miterlimit:4;" d="M 118.598958 214.901042 L 117.302083 213.302083 L 117.598958 212.5 " transform="matrix(0.75,0,0,0.75,0,0)"/>
<path style="fill:none;stroke-width:2;stroke-linecap:butt;stroke-linejoin:miter;stroke:rgb(0%,0%,0%);stroke-opacity:1;stroke-miterlimit:4;" d="M 214.302083 212.302083 L 214.901042 211.802083 L 216.197917 213.401042 " transform="matrix(0.75,0,0,0.75,0,0)"/>
<path style="fill:none;stroke-width:2;stroke-linecap:butt;stroke-linejoin:miter;stroke:rgb(0%,0%,0%);stroke-opacity:1;stroke-miterlimit:4;" d="M 239.598958 241.598958 L 240.901042 243.197917 L 239.401042 244.5 " transform="matrix(0.75,0,0,0.75,0,0)"/>
<path style="fill:none;stroke-width:2;stroke-linecap:butt;stroke-linejoin:miter;stroke:rgb(0%,0%,0%);stroke-opacity:1;stroke-miterlimit:4;" d="M 298.197917 283.302083 L 298.598958 284 L 300.598958 284.197917 " transform="matrix(0.75,0,0,0.75,0,0)"/>
<path style="fill:none;stroke-width:2;stroke-linecap:butt;stroke-linejoin:miter;stroke:rgb(0%,0%,0%);stroke-opacity:1;stroke-miterlimit:4;" d="M 350.302083 217.802083 L 349.697917 215.901042 L 350.401042 215.401042 " transform="matrix(0.75,0,0,0.75,0,0)"/>
<path style="fill:none;stroke-width:2;stroke-linecap:butt;stroke-linejoin:miter;stroke:rgb(0%,0%,0%);stroke-opacity:1;stroke-miterlimit:4;" d="M 156.098958 314.197917 L 155.197917 314.302083 L 153.901042 312.697917 " transform="matrix(0.75,0,0,0.75,0,0)"/>
<path style=" stroke:none;fill-rule:nonzero;fill:rgb(100%,0%,0%);fill-opacity:1;" d="M 43.199219 193.800781 C 43.199219 192.449219 43.550781 191.375 44.25 190.574219 C 44.949219 189.824219 45.925781 189.449219 47.175781 189.449219 C 48.476562 189.449219 49.476562 189.824219 50.175781 190.574219 C 50.824219 191.375 51.148438 192.449219 51.148438 193.800781 C 51.148438 195.199219 50.800781 196.300781 50.101562 197.101562 C 49.449219 197.898438 48.476562 198.300781 47.175781 198.300781 C 45.925781 198.300781 44.949219 197.898438 44.25 197.101562 C 43.550781 196.351562 43.199219 195.25 43.199219 193.800781 M 47.175781 197.324219 C 48.074219 197.324219 48.75 197.023438 49.199219 196.425781 C 49.699219 195.875 49.949219 195 49.949219 193.800781 C 49.949219 192.699219 49.699219 191.851562 49.199219 191.25 C 48.75 190.699219 48.074219 190.425781 47.175781 190.425781 C 46.324219 190.425781 45.648438 190.699219 45.148438 191.25 C 44.699219 191.851562 44.476562 192.699219 44.476562 193.800781 C 44.476562 195 44.699219 195.875 45.148438 196.425781 C 45.648438 197.023438 46.324219 197.324219 47.175781 197.324219 "/>
<path style=" stroke:none;fill-rule:nonzero;fill:rgb(100%,0%,0%);fill-opacity:1;" d="M 53.851562 165.148438 C 53.851562 163.75 54.199219 162.675781 54.898438 161.925781 C 55.550781 161.125 56.523438 160.726562 57.824219 160.726562 C 59.074219 160.726562 60.050781 161.125 60.75 161.925781 C 61.449219 162.675781 61.800781 163.75 61.800781 165.148438 C 61.800781 166.550781 61.449219 167.648438 60.75 168.449219 C 60.050781 169.25 59.074219 169.648438 57.824219 169.648438 C 56.523438 169.648438 55.550781 169.25 54.898438 168.449219 C 54.199219 167.648438 53.851562 166.550781 53.851562 165.148438 M 57.824219 168.675781 C 58.675781 168.675781 59.351562 168.375 59.851562 167.773438 C 60.351562 167.175781 60.601562 166.300781 60.601562 165.148438 C 60.601562 164 60.351562 163.148438 59.851562 162.601562 C 59.351562 162 58.675781 161.699219 57.824219 161.699219 C 56.925781 161.699219 56.25 162 55.800781 162.601562 C 55.300781 163.148438 55.050781 164 55.050781 165.148438 C 55.050781 166.300781 55.300781 167.175781 55.800781 167.773438 C 56.25 168.375 56.925781 168.675781 57.824219 168.675781 "/>
<path style=" stroke:none;fill-rule:nonzero;fill:rgb(100%,0%,0%);fill-opacity:1;" d="M 94.574219 131.324219 C 94.574219 129.925781 94.925781 128.851562 95.625 128.101562 C 96.324219 127.300781 97.300781 126.898438 98.550781 126.898438 C 99.851562 126.898438 100.851562 127.300781 101.550781 128.101562 C 102.199219 128.851562 102.523438 129.925781 102.523438 131.324219 C 102.523438 132.726562 102.199219 133.824219 101.550781 134.625 C 100.851562 135.425781 99.851562 135.824219 98.550781 135.824219 C 97.300781 135.824219 96.324219 135.425781 95.625 134.625 C 94.925781 133.824219 94.574219 132.726562 94.574219 131.324219 M 98.550781 134.851562 C 99.449219 134.851562 100.125 134.550781 100.574219 133.949219 C 101.074219 133.351562 101.324219 132.476562 101.324219 131.324219 C 101.324219 130.175781 101.074219 129.324219 100.574219 128.773438 C 100.125 128.175781 99.449219 127.875 98.550781 127.875 C 97.699219 127.875 97.023438 128.175781 96.523438 128.773438 C 96.074219 129.324219 95.851562 130.175781 95.851562 131.324219 C 95.851562 132.476562 96.074219 133.351562 96.523438 133.949219 C 97.023438 134.550781 97.699219 134.851562 98.550781 134.851562 "/>
<path style=" stroke:none;fill-rule:nonzero;fill:rgb(100%,0%,0%);fill-opacity:1;" d="M 103.875 127.050781 L 105.074219 127.050781 L 105.074219 130.726562 L 109.5 130.726562 L 109.5 127.050781 L 110.699219 127.050781 L 110.699219 135.675781 L 109.5 135.675781 L 109.5 131.699219 L 105.074219 131.699219 L 105.074219 135.675781 L 103.875 135.675781 L 103.875 127.050781 "/>
<path style=" stroke:none;fill-rule:nonzero;fill:rgb(0%,0%,100%);fill-opacity:1;" d="M 135.75 174.074219 L 138.523438 178.648438 C 138.726562 178.949219 138.976562 179.375 139.273438 179.925781 C 139.574219 180.476562 139.75 180.75 139.800781 180.75 L 139.800781 174.074219 L 140.925781 174.074219 L 140.925781 182.699219 L 139.726562 182.699219 L 136.648438 177.675781 C 136.449219 177.273438 136.226562 176.851562 135.976562 176.398438 C 135.726562 175.949219 135.550781 175.675781 135.449219 175.574219 L 135.449219 182.699219 L 134.324219 182.699219 L 134.324219 174.074219 L 135.75 174.074219 "/>
<path style=" stroke:none;fill-rule:nonzero;fill:rgb(100%,0%,0%);fill-opacity:1;" d="M 160.050781 128.398438 C 160.050781 127.050781 160.375 125.976562 161.023438 125.175781 C 161.726562 124.425781 162.726562 124.050781 164.023438 124.050781 C 165.273438 124.050781 166.25 124.425781 166.949219 125.175781 C 167.648438 125.976562 168 127.050781 168 128.398438 C 168 129.800781 167.648438 130.898438 166.949219 131.699219 C 166.25 132.5 165.273438 132.898438 164.023438 132.898438 C 162.726562 132.898438 161.726562 132.5 161.023438 131.699219 C 160.375 130.898438 160.050781 129.800781 160.050781 128.398438 M 164.023438 131.925781 C 164.875 131.925781 165.550781 131.625 166.050781 131.023438 C 166.5 130.425781 166.726562 129.550781 166.726562 128.398438 C 166.726562 127.300781 166.5 126.449219 166.050781 125.851562 C 165.550781 125.300781 164.875 125.023438 164.023438 125.023438 C 163.125 125.023438 162.449219 125.300781 162 125.851562 C 161.5 126.398438 161.25 127.25 161.25 128.398438 C 161.25 129.601562 161.5 130.476562 162 131.023438 C 162.449219 131.625 163.125 131.925781 164.023438 131.925781 "/>
<path style=" stroke:none;fill-rule:nonzero;fill:rgb(0%,0%,100%);fill-opacity:1;" d="M 209.25 180.898438 L 212.101562 185.476562 C 212.25 185.773438 212.476562 186.199219 212.773438 186.75 C 213.074219 187.300781 213.25 187.601562 213.300781 187.648438 L 213.300781 180.898438 L 214.425781 180.898438 L 214.425781 189.523438 L 213.226562 189.523438 L 210.226562 184.5 C 209.976562 184.148438 209.726562 183.75 209.476562 183.300781 C 209.226562 182.851562 209.074219 182.550781 209.023438 182.398438 L 209.023438 189.523438 L 207.898438 189.523438 L 207.898438 180.898438 L 209.25 180.898438 "/>
<path style=" stroke:none;fill-rule:nonzero;fill:rgb(0%,0%,100%);fill-opacity:1;" d="M 216.148438 180.898438 L 217.273438 180.898438 L 217.273438 184.574219 L 221.699219 184.574219 L 221.699219 180.898438 L 222.898438 180.898438 L 222.898438 189.523438 L 221.699219 189.523438 L 221.699219 185.550781 L 217.273438 185.550781 L 217.273438 189.523438 L 216.148438 189.523438 L 216.148438 180.898438 "/>
<path style=" stroke:none;fill-rule:nonzero;fill:rgb(100%,0%,0%);fill-opacity:1;" d="M 202.273438 237.976562 C 202.273438 236.574219 202.625 235.5 203.324219 234.75 C 203.976562 233.949219 204.949219 233.550781 206.25 233.550781 C 207.5 233.550781 208.476562 233.949219 209.175781 234.75 C 209.875 235.5 210.226562 236.574219 210.226562 237.976562 C 210.226562 239.375 209.875 240.476562 209.175781 241.273438 C 208.476562 242.074219 207.5 242.476562 206.25 242.476562 C 204.949219 242.476562 203.976562 242.074219 203.324219 241.273438 C 202.625 240.476562 202.273438 239.375 202.273438 237.976562 M 206.25 241.5 C 207.101562 241.5 207.773438 241.199219 208.273438 240.601562 C 208.773438 240 209.023438 239.125 209.023438 237.976562 C 209.023438 236.824219 208.773438 235.976562 208.273438 235.425781 C 207.773438 234.824219 207.101562 234.523438 206.25 234.523438 C 205.351562 234.523438 204.675781 234.824219 204.226562 235.425781 C 203.726562 235.976562 203.476562 236.824219 203.476562 237.976562 C 203.476562 239.125 203.726562 240 204.226562 240.601562 C 204.675781 241.199219 205.351562 241.5 206.25 241.5 "/>
<path style=" stroke:none;fill-rule:nonzero;fill:rgb(0%,0%,100%);fill-opacity:1;" d="M 265.199219 239.324219 L 268.050781 243.898438 C 268.25 244.199219 268.5 244.625 268.800781 245.175781 C 269.101562 245.726562 269.25 246 269.25 246 L 269.25 239.324219 L 270.449219 239.324219 L 270.449219 247.949219 L 269.25 247.949219 L 266.175781 242.925781 C 265.925781 242.523438 265.675781 242.125 265.425781 241.726562 C 265.226562 241.273438 265.074219 240.976562 264.976562 240.824219 L 264.976562 247.949219 L 263.851562 247.949219 L 263.851562 239.324219 L 265.199219 239.324219 "/>
<path style=" stroke:none;fill-rule:nonzero;fill:rgb(100%,0%,0%);fill-opacity:1;" d="M 293.625 246.523438 C 293.625 245.125 293.976562 244.023438 294.675781 243.226562 C 295.324219 242.476562 296.300781 242.101562 297.601562 242.101562 C 298.851562 242.101562 299.824219 242.476562 300.523438 243.226562 C 301.226562 244.023438 301.574219 245.125 301.574219 246.523438 C 301.574219 247.925781 301.226562 249.023438 300.523438 249.824219 C 299.824219 250.574219 298.851562 250.949219 297.601562 250.949219 C 296.300781 250.949219 295.324219 250.574219 294.675781 249.824219 C 293.976562 249.023438 293.625 247.925781 293.625 246.523438 M 297.601562 249.976562 C 298.449219 249.976562 299.125 249.699219 299.625 249.148438 C 300.125 248.550781 300.375 247.675781 300.375 246.523438 C 300.375 245.375 300.125 244.5 299.625 243.898438 C 299.125 243.351562 298.449219 243.074219 297.601562 243.074219 C 296.699219 243.074219 296.023438 243.351562 295.574219 243.898438 C 295.074219 244.5 294.824219 245.375 294.824219 246.523438 C 294.824219 247.675781 295.074219 248.550781 295.574219 249.148438 C 296.023438 249.699219 296.699219 249.976562 297.601562 249.976562 "/>
<path style=" stroke:none;fill-rule:nonzero;fill:rgb(100%,0%,0%);fill-opacity:1;" d="M 302.925781 242.175781 L 304.125 242.175781 L 304.125 245.851562 L 308.550781 245.851562 L 308.550781 242.175781 L 309.675781 242.175781 L 309.675781 250.875 L 308.550781 250.875 L 308.550781 246.824219 L 304.125 246.824219 L 304.125 250.875 L 302.925781 250.875 L 302.925781 242.175781 "/>
<path style=" stroke:none;fill-rule:nonzero;fill:rgb(80%,80%,0%);fill-opacity:1;" d="M 284.324219 146.625 C 284.375 146.625 284.550781 146.699219 284.851562 146.851562 C 285.101562 146.949219 285.375 147.050781 285.675781 147.148438 C 285.976562 147.199219 286.273438 147.226562 286.574219 147.226562 C 287.125 147.226562 287.550781 147.101562 287.851562 146.851562 C 288.199219 146.550781 288.375 146.175781 288.375 145.726562 C 288.375 145.425781 288.273438 145.175781 288.074219 144.976562 C 287.925781 144.773438 287.726562 144.625 287.476562 144.523438 C 287.226562 144.375 286.898438 144.25 286.5 144.148438 C 286 144 285.601562 143.851562 285.300781 143.699219 C 285 143.550781 284.726562 143.324219 284.476562 143.023438 C 284.273438 142.726562 284.175781 142.300781 284.175781 141.75 C 284.175781 141.050781 284.425781 140.476562 284.925781 140.023438 C 285.425781 139.574219 286.148438 139.351562 287.101562 139.351562 C 287.800781 139.351562 288.523438 139.5 289.273438 139.800781 L 288.976562 140.773438 C 288.273438 140.476562 287.675781 140.324219 287.175781 140.324219 C 286.625 140.324219 286.199219 140.449219 285.898438 140.699219 C 285.550781 140.898438 285.398438 141.199219 285.449219 141.601562 C 285.449219 141.898438 285.523438 142.148438 285.675781 142.351562 C 285.824219 142.550781 286 142.699219 286.199219 142.800781 C 286.449219 142.898438 286.773438 143.023438 287.175781 143.175781 C 287.675781 143.324219 288.101562 143.476562 288.449219 143.625 C 288.75 143.773438 289 144.023438 289.199219 144.375 C 289.449219 144.726562 289.574219 145.175781 289.574219 145.726562 C 289.574219 146.523438 289.300781 147.148438 288.75 147.601562 C 288.199219 148 287.5 148.199219 286.648438 148.199219 C 286.101562 148.199219 285.648438 148.148438 285.300781 148.050781 C 284.898438 147.949219 284.476562 147.800781 284.023438 147.601562 L 284.324219 146.625 "/>
<path style=" stroke:none;fill-rule:nonzero;fill:rgb(0%,0%,100%);fill-opacity:1;" d="M 338.773438 147.226562 L 341.625 151.800781 C 341.824219 152.101562 342.074219 152.523438 342.375 153.074219 C 342.675781 153.625 342.824219 153.898438 342.824219 153.898438 L 342.824219 147.226562 L 344.023438 147.226562 L 344.023438 155.851562 L 342.824219 155.851562 L 339.75 150.824219 C 339.5 150.476562 339.25 150.074219 339 149.625 C 338.75 149.175781 338.601562 148.875 338.550781 148.726562 L 338.550781 155.851562 L 337.425781 155.851562 L 337.425781 147.226562 L 338.773438 147.226562 "/>
<path style=" stroke:none;fill-rule:nonzero;fill:rgb(0%,0%,100%);fill-opacity:1;" d="M 345.675781 147.226562 L 346.800781 147.226562 L 346.800781 150.898438 L 351.226562 150.898438 L 351.226562 147.226562 L 352.425781 147.226562 L 352.425781 155.851562 L 351.226562 155.851562 L 351.226562 151.875 L 346.800781 151.875 L 346.800781 155.851562 L 345.675781 155.851562 L 345.675781 147.226562 "/>
<path style=" stroke:none;fill-rule:nonzero;fill:rgb(0%,0%,100%);fill-opacity:1;" d="M 354.148438 155.550781 C 354.25 155.199219 354.476562 154.925781 354.824219 154.726562 C 355.175781 154.523438 355.574219 154.425781 356.023438 154.425781 C 356.625 154.425781 357.074219 154.574219 357.375 154.875 C 357.675781 155.175781 357.824219 155.601562 357.824219 156.148438 C 357.824219 156.75 357.625 157.300781 357.226562 157.800781 C 356.824219 158.351562 356.199219 158.925781 355.351562 159.523438 L 357.976562 159.523438 L 357.976562 160.199219 L 354.074219 160.199219 L 354.074219 159.675781 C 354.824219 159.175781 355.398438 158.726562 355.800781 158.324219 C 356.199219 157.976562 356.523438 157.625 356.773438 157.273438 C 356.976562 156.925781 357.074219 156.574219 357.074219 156.226562 C 357.074219 155.875 356.976562 155.601562 356.773438 155.398438 C 356.574219 155.199219 356.324219 155.101562 356.023438 155.101562 C 355.726562 155.101562 355.476562 155.148438 355.273438 155.25 C 355.074219 155.351562 354.898438 155.550781 354.75 155.851562 L 354.148438 155.550781 "/>
<path style=" stroke:none;fill-rule:nonzero;fill:rgb(0%,0%,100%);fill-opacity:1;" d="M 300.75 186.226562 L 303.523438 190.800781 C 303.726562 191.101562 303.976562 191.523438 304.273438 192.074219 C 304.574219 192.625 304.75 192.898438 304.800781 192.898438 L 304.800781 186.226562 L 305.925781 186.226562 L 305.925781 194.851562 L 304.726562 194.851562 L 301.648438 189.824219 C 301.449219 189.425781 301.226562 189 300.976562 188.550781 C 300.726562 188.101562 300.550781 187.824219 300.449219 187.726562 L 300.449219 194.851562 L 299.324219 194.851562 L 299.324219 186.226562 L 300.75 186.226562 "/>
<path style=" stroke:none;fill-rule:nonzero;fill:rgb(80%,80%,0%);fill-opacity:1;" d="M 144.074219 233.550781 C 144.175781 233.601562 144.351562 233.675781 144.601562 233.773438 C 144.851562 233.875 145.125 233.976562 145.425781 234.074219 C 145.726562 234.125 146.023438 234.148438 146.324219 234.148438 C 146.875 234.148438 147.300781 234.023438 147.601562 233.773438 C 147.949219 233.476562 148.125 233.101562 148.125 232.648438 C 148.125 232.351562 148.023438 232.101562 147.824219 231.898438 C 147.675781 231.699219 147.5 231.550781 147.300781 231.449219 C 147.050781 231.351562 146.699219 231.226562 146.25 231.074219 C 145.75 230.925781 145.351562 230.773438 145.050781 230.625 C 144.75 230.476562 144.5 230.25 144.300781 229.949219 C 144.050781 229.648438 143.925781 229.226562 143.925781 228.675781 C 143.925781 227.976562 144.175781 227.398438 144.675781 226.949219 C 145.175781 226.5 145.925781 226.273438 146.925781 226.273438 C 147.574219 226.273438 148.273438 226.425781 149.023438 226.726562 L 148.726562 227.699219 C 148.074219 227.398438 147.476562 227.25 146.925781 227.25 C 146.375 227.25 145.949219 227.375 145.648438 227.625 C 145.300781 227.824219 145.148438 228.125 145.199219 228.523438 C 145.199219 228.875 145.273438 229.125 145.425781 229.273438 C 145.574219 229.476562 145.773438 229.625 146.023438 229.726562 C 146.226562 229.824219 146.523438 229.949219 146.925781 230.101562 C 147.476562 230.25 147.898438 230.398438 148.199219 230.550781 C 148.5 230.75 148.75 231 148.949219 231.300781 C 149.199219 231.648438 149.324219 232.101562 149.324219 232.648438 C 149.324219 233.449219 149.050781 234.074219 148.5 234.523438 C 148 234.925781 147.300781 235.125 146.398438 235.125 C 145.851562 235.125 145.398438 235.074219 145.050781 234.976562 C 144.648438 234.875 144.226562 234.726562 143.773438 234.523438 L 144.074219 233.550781 "/>
<path style=" stroke:none;fill-rule:nonzero;fill:rgb(0%,0%,0%);fill-opacity:1;" d="M 178.726562 215.25 L 179.925781 215.25 L 179.925781 218.925781 L 184.351562 218.925781 L 184.351562 215.25 L 185.476562 215.25 L 185.476562 223.949219 L 184.351562 223.949219 L 184.351562 219.898438 L 179.925781 219.898438 L 179.925781 223.949219 L 178.726562 223.949219 L 178.726562 215.25 "/>
</g>
</svg>
