<?xml version="1.0" encoding="UTF-8"?>
<svg xmlns="http://www.w3.org/2000/svg" xmlns:xlink="http://www.w3.org/1999/xlink" width="375pt" height="375pt" viewBox="0 0 375 375" version="1.1">
<g id="surface21">
<rect x="0" y="0" width="375" height="375" style="fill:rgb(100%,100%,100%);fill-opacity:1;stroke:none;"/>
<path style="fill:none;stroke-width:2;stroke-linecap:butt;stroke-linejoin:miter;stroke:rgb(0%,0%,0%);stroke-opacity:1;stroke-miterlimit:4;" d="M 442.302083 264.901042 L 398.302083 284.901042 " transform="matrix(0.75,0,0,0.75,0,0)"/>
<path style="fill:none;stroke-width:2;stroke-linecap:butt;stroke-linejoin:miter;stroke:rgb(0%,0%,0%);stroke-opacity:1;stroke-miterlimit:4;" d="M 398.302083 284.901042 L 422.802083 326.598958 " transform="matrix(0.75,0,0,0.75,0,0)"/>
<path style="fill:none;stroke-width:2;stroke-linecap:butt;stroke-linejoin:miter;stroke:rgb(0%,0%,0%);stroke-opacity:1;stroke-miterlimit:4;" d="M 398.302083 284.901042 L 383 239 " transform="matrix(0.75,0,0,0.75,0,0)"/>
<path style="fill-rule:evenodd;fill:rgb(0%,0%,0%);fill-opacity:1;stroke-width:1;stroke-linecap:butt;stroke-linejoin:miter;stroke:rgb(0%,0%,0%);stroke-opacity:1;stroke-miterlimit:4;" d="M 383 239 L 407.197917 196.802083 L 415.098958 202.401042 Z M 383 239 " transform="matrix(0.75,0,0,0.75,0,0)"/>
<path style="fill:none;stroke-width:2;stroke-linecap:butt;stroke-linejoin:miter;stroke:rgb(0%,0%,0%);stroke-opacity:1;stroke-miterlimit:4;" d="M 411.098958 199.598958 L 431.302083 201.598958 " transform="matrix(0.75,0,0,0.75,0,0)"/>
<path style="fill:none;stroke-width:2;stroke-linecap:butt;stroke-linejoin:miter;stroke:rgb(100%,0%,0%);stroke-opacity:1;stroke-miterlimit:4;" d="M 431.302083 201.598958 L 451.401042 203.598958 " transform="matrix(0.75,0,0,0.75,0,0)"/>
<path style="fill:none;stroke-width:2;stroke-linecap:butt;stroke-linejoin:miter;stroke:rgb(0%,0%,0%);stroke-opacity:1;stroke-miterlimit:4;" d="M 406.697917 201.598958 L 398.697917 184 " transform="matrix(0.75,0,0,0.75,0,0)"/>
<path style="fill:none;stroke-width:2;stroke-linecap:butt;stroke-linejoin:miter;stroke:rgb(100%,0%,0%);stroke-opacity:1;stroke-miterlimit:4;" d="M 398.697917 184 L 390.697917 166.302083 " transform="matrix(0.75,0,0,0.75,0,0)"/>
<path style="fill:none;stroke-width:2;stroke-linecap:butt;stroke-linejoin:miter;stroke:rgb(0%,0%,0%);stroke-opacity:1;stroke-miterlimit:4;" d="M 415.5 197.598958 L 407.5 180 " transform="matrix(0.75,0,0,0.75,0,0)"/>
<path style="fill:none;stroke-width:2;stroke-linecap:butt;stroke-linejoin:miter;stroke:rgb(100%,0%,0%);stroke-opacity:1;stroke-miterlimit:4;" d="M 407.5 180 L 399.5 162.302083 " transform="matrix(0.75,0,0,0.75,0,0)"/>
<path style="fill:none;stroke-width:2;stroke-linecap:butt;stroke-linejoin:miter;stroke:rgb(0%,0%,0%);stroke-opacity:1;stroke-miterlimit:4;" d="M 398.302083 284.901042 L 381.802083 297 " transform="matrix(0.75,0,0,0.75,0,0)"/>
<path style="fill:none;stroke-width:2;stroke-linecap:butt;stroke-linejoin:miter;stroke:rgb(80%,80%,0%);stroke-opacity:1;stroke-miterlimit:4;" d="M 381.802083 297 L 365.302083 309.197917 " transform="matrix(0.75,0,0,0.75,0,0)"/>
<path style="fill:none;stroke-width:2;stroke-linecap:butt;stroke-linejoin:miter;stroke:rgb(80%,80%,0%);stroke-opacity:1;stroke-miterlimit:4;" d="M 353.401042 309.302083 L 336.697917 297.401042 " transform="matrix(0.75,0,0,0.75,0,0)"/>
<path style="fill:none;stroke-width:2;stroke-linecap:butt;stroke-linejoin:miter;stroke:rgb(0%,0%,0%);stroke-opacity:1;stroke-miterlimit:4;" d="M 336.697917 297.401042 L 320 285.401042 " transform="matrix(0.75,0,0,0.75,0,0)"/>
<path style="fill:none;stroke-width:2;stroke-linecap:butt;stroke-linejoin:miter;stroke:rgb(0%,0%,0%);stroke-opacity:1;stroke-miterlimit:4;" d="M 320 285.401042 L 273.901042 270.802083 " transform="matrix(0.75,0,0,0.75,0,0)"/>
<path style="fill:none;stroke-width:1;stroke-linecap:butt;stroke-linejoin:miter;stroke:rgb(0%,0%,0%);stroke-opacity:1;stroke-miterlimit:4;" d="M 267.697917 273.098958 L 268.5 274.5 " transform="matrix(0.75,0,0,0.75,0,0)"/>
<path style="fill:none;stroke-width:1;stroke-linecap:butt;stroke-linejoin:miter;stroke:rgb(0%,0%,0%);stroke-opacity:1;stroke-miterlimit:4;" d="M 261.598958 275.401042 L 263.098958 278.197917 " transform="matrix(0.75,0,0,0.75,0,0)"/>
<path style="fill:none;stroke-width:1;stroke-linecap:butt;stroke-linejoin:miter;stroke:rgb(0%,0%,0%);stroke-opacity:1;stroke-miterlimit:4;" d="M 255.5 277.598958 L 257.697917 281.901042 " transform="matrix(0.75,0,0,0.75,0,0)"/>
<path style="fill:none;stroke-width:1;stroke-linecap:butt;stroke-linejoin:miter;stroke:rgb(0%,0%,100%);stroke-opacity:1;stroke-miterlimit:4;" d="M 249.302083 279.901042 L 252.302083 285.598958 " transform="matrix(0.75,0,0,0.75,0,0)"/>
<path style="fill:none;stroke-width:1;stroke-linecap:butt;stroke-linejoin:miter;stroke:rgb(0%,0%,100%);stroke-opacity:1;stroke-miterlimit:4;" d="M 243.197917 282.197917 L 246.901042 289.302083 " transform="matrix(0.75,0,0,0.75,0,0)"/>
<path style="fill:none;stroke-width:1;stroke-linecap:butt;stroke-linejoin:miter;stroke:rgb(0%,0%,100%);stroke-opacity:1;stroke-miterlimit:4;" d="M 237.098958 284.5 L 241.5 293 " transform="matrix(0.75,0,0,0.75,0,0)"/>
<path style="fill:none;stroke-width:2;stroke-linecap:butt;stroke-linejoin:miter;stroke:rgb(0%,0%,100%);stroke-opacity:1;stroke-miterlimit:4;" d="M 224.098958 288.802083 L 207.098958 277.901042 " transform="matrix(0.75,0,0,0.75,0,0)"/>
<path style="fill:none;stroke-width:2;stroke-linecap:butt;stroke-linejoin:miter;stroke:rgb(0%,0%,0%);stroke-opacity:1;stroke-miterlimit:4;" d="M 207.098958 277.901042 L 190.197917 267.098958 " transform="matrix(0.75,0,0,0.75,0,0)"/>
<path style="fill:none;stroke-width:2;stroke-linecap:butt;stroke-linejoin:miter;stroke:rgb(0%,0%,0%);stroke-opacity:1;stroke-miterlimit:4;" d="M 190.197917 267.098958 L 147.197917 289.302083 " transform="matrix(0.75,0,0,0.75,0,0)"/>
<path style="fill:none;stroke-width:2;stroke-linecap:butt;stroke-linejoin:miter;stroke:rgb(0%,0%,0%);stroke-opacity:1;stroke-miterlimit:4;" d="M 147.197917 289.302083 L 106.401042 263.302083 " transform="matrix(0.75,0,0,0.75,0,0)"/>
<path style="fill:none;stroke-width:2;stroke-linecap:butt;stroke-linejoin:miter;stroke:rgb(0%,0%,0%);stroke-opacity:1;stroke-miterlimit:4;" d="M 106.401042 263.302083 L 108.598958 214.901042 " transform="matrix(0.75,0,0,0.75,0,0)"/>
<path style="fill:none;stroke-width:2;stroke-linecap:butt;stroke-linejoin:miter;stroke:rgb(0%,0%,0%);stroke-opacity:1;stroke-miterlimit:4;" d="M 97.098958 255.598958 L 98.598958 221.802083 " transform="matrix(0.75,0,0,0.75,0,0)"/>
<path style="fill:none;stroke-width:2;stroke-linecap:butt;stroke-linejoin:miter;stroke:rgb(0%,0%,0%);stroke-opacity:1;stroke-miterlimit:4;" d="M 108.598958 214.901042 L 67.901042 188.901042 " transform="matrix(0.75,0,0,0.75,0,0)"/>
<path style="fill:none;stroke-width:2;stroke-linecap:butt;stroke-linejoin:miter;stroke:rgb(0%,0%,0%);stroke-opacity:1;stroke-miterlimit:4;" d="M 67.901042 188.901042 L 24.901042 211.197917 " transform="matrix(0.75,0,0,0.75,0,0)"/>
<path style="fill:none;stroke-width:2;stroke-linecap:butt;stroke-linejoin:miter;stroke:rgb(0%,0%,0%);stroke-opacity:1;stroke-miterlimit:4;" d="M 65.901042 200.802083 L 35.802083 216.401042 " transform="matrix(0.75,0,0,0.75,0,0)"/>
<path style="fill:none;stroke-width:2;stroke-linecap:butt;stroke-linejoin:miter;stroke:rgb(0%,0%,0%);stroke-opacity:1;stroke-miterlimit:4;" d="M 24.901042 211.197917 L 22.697917 259.5 " transform="matrix(0.75,0,0,0.75,0,0)"/>
<path style="fill:none;stroke-width:2;stroke-linecap:butt;stroke-linejoin:miter;stroke:rgb(0%,0%,0%);stroke-opacity:1;stroke-miterlimit:4;" d="M 22.697917 259.5 L 63.5 285.598958 " transform="matrix(0.75,0,0,0.75,0,0)"/>
<path style="fill:none;stroke-width:2;stroke-linecap:butt;stroke-linejoin:miter;stroke:rgb(0%,0%,0%);stroke-opacity:1;stroke-miterlimit:4;" d="M 34.098958 255.302083 L 62.598958 273.5 " transform="matrix(0.75,0,0,0.75,0,0)"/>
<path style="fill:none;stroke-width:1;stroke-linecap:butt;stroke-linejoin:miter;stroke:rgb(0%,0%,0%);stroke-opacity:1;stroke-miterlimit:4;" d="M 146.098958 295.697917 L 147.697917 295.697917 " transform="matrix(0.75,0,0,0.75,0,0)"/>
<path style="fill:none;stroke-width:1;stroke-linecap:butt;stroke-linejoin:miter;stroke:rgb(0%,0%,0%);stroke-opacity:1;stroke-miterlimit:4;" d="M 145 302 L 148.197917 302.197917 " transform="matrix(0.75,0,0,0.75,0,0)"/>
<path style="fill:none;stroke-width:1;stroke-linecap:butt;stroke-linejoin:miter;stroke:rgb(0%,0%,0%);stroke-opacity:1;stroke-miterlimit:4;" d="M 143.901042 308.401042 L 148.802083 308.598958 " transform="matrix(0.75,0,0,0.75,0,0)"/>
<path style="fill:none;stroke-width:1;stroke-linecap:butt;stroke-linejoin:miter;stroke:rgb(0%,0%,100%);stroke-opacity:1;stroke-miterlimit:4;" d="M 142.802083 314.697917 L 149.302083 315 " transform="matrix(0.75,0,0,0.75,0,0)"/>
<path style="fill:none;stroke-width:1;stroke-linecap:butt;stroke-linejoin:miter;stroke:rgb(0%,0%,100%);stroke-opacity:1;stroke-miterlimit:4;" d="M 141.697917 321.098958 L 149.802083 321.401042 " transform="matrix(0.75,0,0,0.75,0,0)"/>
<path style="fill:none;stroke-width:1;stroke-linecap:butt;stroke-linejoin:miter;stroke:rgb(0%,0%,100%);stroke-opacity:1;stroke-miterlimit:4;" d="M 140.697917 327.401042 L 150.302083 327.802083 " transform="matrix(0.75,0,0,0.75,0,0)"/>
<path style="fill:none;stroke-width:2;stroke-linecap:butt;stroke-linejoin:miter;stroke:rgb(0%,0%,0%);stroke-opacity:1;stroke-miterlimit:4;" d="M 185.302083 266.802083 L 186.197917 247 " transform="matrix(0.75,0,0,0.75,0,0)"/>
<path style="fill:none;stroke-width:2;stroke-linecap:butt;stroke-linejoin:miter;stroke:rgb(100%,0%,0%);stroke-opacity:1;stroke-miterlimit:4;" d="M 186.197917 247 L 187.098958 227.197917 " transform="matrix(0.75,0,0,0.75,0,0)"/>
<path style="fill:none;stroke-width:2;stroke-linecap:butt;stroke-linejoin:miter;stroke:rgb(0%,0%,0%);stroke-opacity:1;stroke-miterlimit:4;" d="M 195 267.302083 L 195.901042 247.5 " transform="matrix(0.75,0,0,0.75,0,0)"/>
<path style="fill:none;stroke-width:2;stroke-linecap:butt;stroke-linejoin:miter;stroke:rgb(100%,0%,0%);stroke-opacity:1;stroke-miterlimit:4;" d="M 195.901042 247.5 L 196.802083 227.697917 " transform="matrix(0.75,0,0,0.75,0,0)"/>
<path style="fill:none;stroke-width:2;stroke-linecap:butt;stroke-linejoin:miter;stroke:rgb(0%,0%,0%);stroke-opacity:1;stroke-miterlimit:4;" d="M 320 285.401042 L 326 266.598958 " transform="matrix(0.75,0,0,0.75,0,0)"/>
<path style="fill:none;stroke-width:2;stroke-linecap:butt;stroke-linejoin:miter;stroke:rgb(0%,0%,100%);stroke-opacity:1;stroke-miterlimit:4;" d="M 326 266.598958 L 331.901042 247.802083 " transform="matrix(0.75,0,0,0.75,0,0)"/>
<path style="fill:none;stroke-width:2;stroke-linecap:butt;stroke-linejoin:miter;stroke:rgb(0%,0%,100%);stroke-opacity:1;stroke-miterlimit:4;" d="M 327.802083 237.197917 L 308.197917 230.901042 " transform="matrix(0.75,0,0,0.75,0,0)"/>
<path style="fill:none;stroke-width:2;stroke-linecap:butt;stroke-linejoin:miter;stroke:rgb(0%,0%,0%);stroke-opacity:1;stroke-miterlimit:4;" d="M 308.197917 230.901042 L 288.5 224.697917 " transform="matrix(0.75,0,0,0.75,0,0)"/>
<path style="fill:none;stroke-width:2;stroke-linecap:butt;stroke-linejoin:miter;stroke:rgb(0%,0%,0%);stroke-opacity:1;stroke-miterlimit:4;" d="M 284.197917 226.901042 L 275.302083 209.802083 " transform="matrix(0.75,0,0,0.75,0,0)"/>
<path style="fill:none;stroke-width:2;stroke-linecap:butt;stroke-linejoin:miter;stroke:rgb(100%,0%,0%);stroke-opacity:1;stroke-miterlimit:4;" d="M 275.302083 209.802083 L 266.401042 192.697917 " transform="matrix(0.75,0,0,0.75,0,0)"/>
<path style="fill:none;stroke-width:2;stroke-linecap:butt;stroke-linejoin:miter;stroke:rgb(0%,0%,0%);stroke-opacity:1;stroke-miterlimit:4;" d="M 292.802083 222.5 L 283.901042 205.401042 " transform="matrix(0.75,0,0,0.75,0,0)"/>
<path style="fill:none;stroke-width:2;stroke-linecap:butt;stroke-linejoin:miter;stroke:rgb(100%,0%,0%);stroke-opacity:1;stroke-miterlimit:4;" d="M 283.901042 205.401042 L 275 188.302083 " transform="matrix(0.75,0,0,0.75,0,0)"/>
<path style="fill:none;stroke-width:2;stroke-linecap:butt;stroke-linejoin:miter;stroke:rgb(0%,0%,100%);stroke-opacity:1;stroke-miterlimit:4;" d="M 341.401042 239.302083 L 362.197917 239.098958 " transform="matrix(0.75,0,0,0.75,0,0)"/>
<path style="fill:none;stroke-width:2;stroke-linecap:butt;stroke-linejoin:miter;stroke:rgb(0%,0%,0%);stroke-opacity:1;stroke-miterlimit:4;" d="M 362.197917 239.098958 L 383 239 " transform="matrix(0.75,0,0,0.75,0,0)"/>
<path style="fill:none;stroke-width:2;stroke-linecap:butt;stroke-linejoin:miter;stroke:rgb(0%,0%,0%);stroke-opacity:1;stroke-miterlimit:4;" d="M 288.5 224.697917 L 273.901042 270.802083 " transform="matrix(0.75,0,0,0.75,0,0)"/>
<path style="fill:none;stroke-width:2;stroke-linecap:butt;stroke-linejoin:miter;stroke:rgb(0%,0%,0%);stroke-opacity:1;stroke-miterlimit:4;" d="M 63.5 285.598958 L 106.401042 263.302083 " transform="matrix(0.75,0,0,0.75,0,0)"/>
<path style="fill-rule:evenodd;fill:rgb(0%,0%,0%);fill-opacity:1;stroke-width:1;stroke-linecap:butt;stroke-linejoin:miter;stroke:rgb(0%,0%,0%);stroke-opacity:1;stroke-miterlimit:4;" d="M 320 285.401042 L 307.697917 320.802083 L 299 316.5 Z M 320 285.401042 " transform="matrix(0.75,0,0,0.75,0,0)"/>
<path style=" stroke:none;fill-rule:nonzero;fill:rgb(100%,0%,0%);fill-opacity:1;" d="M 339.75 153.300781 C 339.75 151.648438 340.148438 150.351562 340.949219 149.398438 C 341.800781 148.5 342.976562 148.050781 344.476562 148.050781 C 345.976562 148.050781 347.148438 148.5 348 149.398438 C 348.800781 150.351562 349.199219 151.648438 349.199219 153.300781 C 349.199219 154.949219 348.773438 156.25 347.925781 157.199219 C 347.125 158.148438 345.976562 158.625 344.476562 158.625 C 342.976562 158.625 341.800781 158.148438 340.949219 157.199219 C 340.148438 156.25 339.75 154.949219 339.75 153.300781 M 344.476562 157.425781 C 345.523438 157.425781 346.324219 157.074219 346.875 156.375 C 347.425781 155.675781 347.699219 154.648438 347.699219 153.300781 C 347.699219 151.949219 347.425781 150.925781 346.875 150.226562 C 346.324219 149.523438 345.523438 149.175781 344.476562 149.175781 C 343.425781 149.175781 342.625 149.523438 342.074219 150.226562 C 341.476562 150.925781 341.175781 151.949219 341.175781 153.300781 C 341.175781 154.648438 341.476562 155.675781 342.074219 156.375 C 342.625 157.074219 343.425781 157.425781 344.476562 157.425781 "/>
<path style=" stroke:none;fill-rule:nonzero;fill:rgb(100%,0%,0%);fill-opacity:1;" d="M 349.949219 148.125 L 351.300781 148.125 L 351.300781 152.550781 L 356.550781 152.550781 L 356.550781 148.125 L 357.976562 148.125 L 357.976562 158.476562 L 356.550781 158.476562 L 356.550781 153.675781 L 351.300781 153.675781 L 351.300781 158.476562 L 349.949219 158.476562 L 349.949219 148.125 "/>
<path style=" stroke:none;fill-rule:nonzero;fill:rgb(100%,0%,0%);fill-opacity:1;" d="M 288.675781 116.699219 C 288.675781 115.050781 289.074219 113.773438 289.875 112.875 C 290.675781 111.925781 291.824219 111.449219 293.324219 111.449219 C 294.875 111.449219 296.050781 111.925781 296.851562 112.875 C 297.648438 113.773438 298.050781 115.050781 298.050781 116.699219 C 298.050781 118.351562 297.648438 119.648438 296.851562 120.601562 C 296 121.550781 294.824219 122.023438 293.324219 122.023438 C 291.824219 122.023438 290.675781 121.550781 289.875 120.601562 C 289.074219 119.648438 288.675781 118.351562 288.675781 116.699219 M 293.324219 120.898438 C 294.375 120.898438 295.199219 120.550781 295.800781 119.851562 C 296.351562 119.101562 296.625 118.050781 296.625 116.699219 C 296.625 115.351562 296.351562 114.351562 295.800781 113.699219 C 295.199219 113 294.375 112.648438 293.324219 112.648438 C 292.324219 112.648438 291.523438 112.976562 290.925781 113.625 C 290.375 114.324219 290.101562 115.351562 290.101562 116.699219 C 290.101562 118.101562 290.375 119.148438 290.925781 119.851562 C 291.523438 120.550781 292.324219 120.898438 293.324219 120.898438 "/>
<path style=" stroke:none;fill-rule:nonzero;fill:rgb(80%,80%,0%);fill-opacity:1;" d="M 266.625 238.726562 C 266.675781 238.773438 266.875 238.851562 267.226562 238.949219 C 267.523438 239.101562 267.851562 239.226562 268.199219 239.324219 C 268.550781 239.375 268.898438 239.398438 269.25 239.398438 C 269.898438 239.398438 270.425781 239.25 270.824219 238.949219 C 271.175781 238.648438 271.351562 238.226562 271.351562 237.675781 C 271.351562 237.273438 271.25 236.949219 271.050781 236.699219 C 270.898438 236.5 270.675781 236.324219 270.375 236.175781 C 270.074219 236.074219 269.675781 235.949219 269.175781 235.800781 C 268.574219 235.601562 268.101562 235.425781 267.75 235.273438 C 267.398438 235.074219 267.074219 234.800781 266.773438 234.449219 C 266.523438 234.101562 266.398438 233.601562 266.398438 232.949219 C 266.398438 232.101562 266.699219 231.398438 267.300781 230.851562 C 267.898438 230.351562 268.773438 230.101562 269.925781 230.101562 C 270.726562 230.101562 271.574219 230.273438 272.476562 230.625 L 272.101562 231.75 C 271.300781 231.398438 270.601562 231.226562 270 231.226562 C 269.300781 231.226562 268.773438 231.375 268.425781 231.675781 C 268.074219 231.925781 267.898438 232.300781 267.898438 232.800781 C 267.898438 233.148438 267.976562 233.449219 268.125 233.699219 C 268.324219 233.898438 268.574219 234.074219 268.875 234.226562 C 269.125 234.324219 269.5 234.449219 270 234.601562 C 270.601562 234.800781 271.074219 235 271.425781 235.199219 C 271.824219 235.398438 272.148438 235.699219 272.398438 236.101562 C 272.648438 236.449219 272.773438 236.976562 272.773438 237.675781 C 272.773438 238.625 272.476562 239.351562 271.875 239.851562 C 271.226562 240.351562 270.375 240.601562 269.324219 240.601562 C 268.726562 240.601562 268.175781 240.523438 267.675781 240.375 C 267.226562 240.273438 266.726562 240.101562 266.175781 239.851562 L 266.625 238.726562 "/>
<path style=" stroke:none;fill-rule:nonzero;fill:rgb(0%,0%,100%);fill-opacity:1;" d="M 170.925781 214.726562 L 174.300781 220.125 C 174.5 220.476562 174.773438 220.976562 175.125 221.625 C 175.523438 222.273438 175.726562 222.625 175.726562 222.675781 L 175.726562 214.726562 L 177.074219 214.726562 L 177.074219 225 L 175.648438 225 L 172.050781 219 C 171.800781 218.550781 171.523438 218.050781 171.226562 217.5 C 170.925781 217 170.726562 216.648438 170.625 216.449219 L 170.625 225 L 169.273438 225 L 169.273438 214.726562 L 170.925781 214.726562 "/>
<path style=" stroke:none;fill-rule:nonzero;fill:rgb(0%,0%,100%);fill-opacity:1;" d="M 169.199219 225.976562 L 170.550781 225.976562 L 170.550781 230.398438 L 175.800781 230.398438 L 175.800781 225.976562 L 177.226562 225.976562 L 177.226562 236.25 L 175.800781 236.25 L 175.800781 231.523438 L 170.550781 231.523438 L 170.550781 236.25 L 169.199219 236.25 L 169.199219 225.976562 "/>
<path style=" stroke:none;fill-rule:nonzero;fill:rgb(0%,0%,100%);fill-opacity:1;" d="M 106.5 248.101562 L 109.875 253.574219 C 110.074219 253.925781 110.375 254.425781 110.773438 255.074219 C 111.125 255.726562 111.300781 256.074219 111.300781 256.125 L 111.300781 248.101562 L 112.648438 248.101562 L 112.648438 258.375 L 111.226562 258.375 L 107.625 252.449219 C 107.375 252 107.101562 251.5 106.800781 250.949219 C 106.5 250.398438 106.300781 250.050781 106.199219 249.898438 L 106.199219 258.375 L 104.851562 258.375 L 104.851562 248.101562 L 106.5 248.101562 "/>
<path style=" stroke:none;fill-rule:nonzero;fill:rgb(0%,0%,100%);fill-opacity:1;" d="M 113.851562 248.101562 L 115.273438 248.101562 L 115.273438 252.449219 L 120.523438 252.449219 L 120.523438 248.101562 L 121.949219 248.101562 L 121.949219 258.375 L 120.523438 258.375 L 120.523438 253.648438 L 115.273438 253.648438 L 115.273438 258.375 L 113.851562 258.375 L 113.851562 248.101562 "/>
<path style=" stroke:none;fill-rule:nonzero;fill:rgb(0%,0%,100%);fill-opacity:1;" d="M 123.148438 258 C 123.351562 257.601562 123.625 257.273438 123.976562 257.023438 C 124.375 256.773438 124.851562 256.648438 125.398438 256.648438 C 126.101562 256.648438 126.648438 256.851562 127.050781 257.25 C 127.398438 257.601562 127.574219 258.101562 127.574219 258.75 C 127.574219 259.449219 127.324219 260.101562 126.824219 260.699219 C 126.375 261.351562 125.625 262.023438 124.574219 262.726562 L 127.726562 262.726562 L 127.726562 263.550781 L 123.148438 263.550781 L 123.148438 262.875 C 124 262.273438 124.675781 261.75 125.175781 261.300781 C 125.675781 260.851562 126.050781 260.425781 126.300781 260.023438 C 126.550781 259.625 126.675781 259.226562 126.675781 258.824219 C 126.675781 258.375 126.550781 258.023438 126.300781 257.773438 C 126.101562 257.523438 125.800781 257.398438 125.398438 257.398438 C 125.050781 257.398438 124.75 257.476562 124.5 257.625 C 124.25 257.773438 124.050781 258.023438 123.898438 258.375 L 123.148438 258 "/>
<path style=" stroke:none;fill-rule:nonzero;fill:rgb(100%,0%,0%);fill-opacity:1;" d="M 139.5 164.101562 C 139.5 162.449219 139.925781 161.148438 140.773438 160.199219 C 141.574219 159.300781 142.726562 158.851562 144.226562 158.851562 C 145.773438 158.851562 146.949219 159.300781 147.75 160.199219 C 148.550781 161.148438 148.949219 162.449219 148.949219 164.101562 C 148.949219 165.75 148.550781 167.050781 147.75 168 C 146.898438 168.949219 145.726562 169.425781 144.226562 169.425781 C 142.726562 169.425781 141.574219 168.949219 140.773438 168 C 139.925781 167.050781 139.5 165.75 139.5 164.101562 M 144.226562 168.226562 C 145.273438 168.226562 146.074219 167.875 146.625 167.175781 C 147.226562 166.476562 147.523438 165.449219 147.523438 164.101562 C 147.523438 162.75 147.226562 161.726562 146.625 161.023438 C 146.074219 160.324219 145.273438 159.976562 144.226562 159.976562 C 143.175781 159.976562 142.375 160.324219 141.824219 161.023438 C 141.273438 161.675781 141 162.699219 141 164.101562 C 141 165.449219 141.273438 166.476562 141.824219 167.175781 C 142.375 167.875 143.175781 168.226562 144.226562 168.226562 "/>
<path style=" stroke:none;fill-rule:nonzero;fill:rgb(0%,0%,100%);fill-opacity:1;" d="M 248.699219 174.375 L 252.074219 179.773438 C 252.273438 180.125 252.550781 180.625 252.898438 181.273438 C 253.25 181.925781 253.449219 182.273438 253.5 182.324219 L 253.5 174.375 L 254.851562 174.375 L 254.851562 184.648438 L 253.425781 184.648438 L 249.824219 178.648438 C 249.523438 178.199219 249.226562 177.699219 248.925781 177.148438 C 248.675781 176.648438 248.5 176.300781 248.398438 176.101562 L 248.398438 184.648438 L 247.050781 184.648438 L 247.050781 174.375 L 248.699219 174.375 "/>
<path style=" stroke:none;fill-rule:nonzero;fill:rgb(100%,0%,0%);fill-opacity:1;" d="M 194.925781 136.351562 C 194.925781 134.699219 195.324219 133.425781 196.125 132.523438 C 196.976562 131.574219 198.148438 131.101562 199.648438 131.101562 C 201.148438 131.101562 202.324219 131.574219 203.175781 132.523438 C 203.976562 133.425781 204.375 134.699219 204.375 136.351562 C 204.375 138 203.976562 139.300781 203.175781 140.25 C 202.324219 141.199219 201.148438 141.675781 199.648438 141.675781 C 198.148438 141.675781 196.976562 141.199219 196.125 140.25 C 195.324219 139.300781 194.925781 138 194.925781 136.351562 M 199.648438 140.550781 C 200.699219 140.550781 201.5 140.199219 202.050781 139.5 C 202.648438 138.75 202.949219 137.699219 202.949219 136.351562 C 202.949219 135 202.648438 134 202.050781 133.351562 C 201.5 132.648438 200.699219 132.300781 199.648438 132.300781 C 198.601562 132.300781 197.800781 132.625 197.25 133.273438 C 196.699219 133.976562 196.425781 135 196.425781 136.351562 C 196.425781 137.75 196.699219 138.800781 197.25 139.5 C 197.800781 140.199219 198.601562 140.550781 199.648438 140.550781 "/>
<path style=" stroke:none;fill-rule:nonzero;fill:rgb(0%,0%,0%);fill-opacity:1;" d="M 219.75 241.425781 L 221.101562 241.425781 L 221.101562 245.773438 L 226.351562 245.773438 L 226.351562 241.425781 L 227.773438 241.425781 L 227.773438 251.699219 L 226.351562 251.699219 L 226.351562 246.898438 L 221.101562 246.898438 L 221.101562 251.699219 L 219.75 251.699219 L 219.75 241.425781 "/>
</g>
</svg>
