<?xml version="1.0" encoding="UTF-8"?>
<svg xmlns="http://www.w3.org/2000/svg" xmlns:xlink="http://www.w3.org/1999/xlink" width="375pt" height="375pt" viewBox="0 0 375 375" version="1.1">
<g id="surface46">
<rect x="0" y="0" width="375" height="375" style="fill:rgb(100%,100%,100%);fill-opacity:1;stroke:none;"/>
<path style="fill:none;stroke-width:2;stroke-linecap:butt;stroke-linejoin:miter;stroke:rgb(0%,0%,0%);stroke-opacity:1;stroke-miterlimit:4;" d="M 124.697917 360.901042 L 161.598958 375.901042 " transform="matrix(0.75,0,0,0.75,0,0)"/>
<path style="fill-rule:evenodd;fill:rgb(0%,0%,0%);fill-opacity:1;stroke-width:1;stroke-linecap:butt;stroke-linejoin:miter;stroke:rgb(0%,0%,0%);stroke-opacity:1;stroke-miterlimit:4;" d="M 193 351.5 L 164 379 L 159.197917 372.802083 Z M 193 351.5 " transform="matrix(0.75,0,0,0.75,0,0)"/>
<path style="fill:none;stroke-width:2;stroke-linecap:butt;stroke-linejoin:miter;stroke:rgb(0%,0%,0%);stroke-opacity:1;stroke-miterlimit:4;" d="M 193 351.5 L 223.401042 377.197917 " transform="matrix(0.75,0,0,0.75,0,0)"/>
<path style="fill-rule:evenodd;fill:rgb(0%,0%,0%);fill-opacity:1;stroke-width:1;stroke-linecap:butt;stroke-linejoin:miter;stroke:rgb(0%,0%,0%);stroke-opacity:1;stroke-miterlimit:4;" d="M 223.401042 377.197917 L 231.302083 416.401042 L 223.598958 417.197917 Z M 223.401042 377.197917 " transform="matrix(0.75,0,0,0.75,0,0)"/>
<path style="fill:none;stroke-width:2;stroke-linecap:butt;stroke-linejoin:miter;stroke:rgb(0%,0%,0%);stroke-opacity:1;stroke-miterlimit:4;" d="M 223.401042 377.197917 L 261.598958 388.302083 " transform="matrix(0.75,0,0,0.75,0,0)"/>
<path style="fill:none;stroke-width:2;stroke-linecap:butt;stroke-linejoin:miter;stroke:rgb(0%,0%,0%);stroke-opacity:1;stroke-miterlimit:4;" d="M 261.598958 388.302083 L 301 382.802083 " transform="matrix(0.75,0,0,0.75,0,0)"/>
<path style="fill:none;stroke-width:1;stroke-linecap:butt;stroke-linejoin:miter;stroke:rgb(0%,0%,0%);stroke-opacity:1;stroke-miterlimit:4;" d="M 302.697917 389.302083 L 303.901042 388.802083 " transform="matrix(0.75,0,0,0.75,0,0)"/>
<path style="fill:none;stroke-width:1;stroke-linecap:butt;stroke-linejoin:miter;stroke:rgb(0%,0%,0%);stroke-opacity:1;stroke-miterlimit:4;" d="M 304.302083 395.697917 L 306.802083 394.901042 " transform="matrix(0.75,0,0,0.75,0,0)"/>
<path style="fill:none;stroke-width:1;stroke-linecap:butt;stroke-linejoin:miter;stroke:rgb(0%,0%,0%);stroke-opacity:1;stroke-miterlimit:4;" d="M 306 402.197917 L 309.598958 400.901042 " transform="matrix(0.75,0,0,0.75,0,0)"/>
<path style="fill:none;stroke-width:1;stroke-linecap:butt;stroke-linejoin:miter;stroke:rgb(0%,0%,0%);stroke-opacity:1;stroke-miterlimit:4;" d="M 307.598958 408.697917 L 312.5 406.901042 " transform="matrix(0.75,0,0,0.75,0,0)"/>
<path style="fill:none;stroke-width:1;stroke-linecap:butt;stroke-linejoin:miter;stroke:rgb(0%,0%,0%);stroke-opacity:1;stroke-miterlimit:4;" d="M 309.197917 415.098958 L 315.302083 412.901042 " transform="matrix(0.75,0,0,0.75,0,0)"/>
<path style="fill:none;stroke-width:1;stroke-linecap:butt;stroke-linejoin:miter;stroke:rgb(0%,0%,0%);stroke-opacity:1;stroke-miterlimit:4;" d="M 310.901042 421.598958 L 318.197917 418.901042 " transform="matrix(0.75,0,0,0.75,0,0)"/>
<path style="fill:none;stroke-width:2;stroke-linecap:butt;stroke-linejoin:miter;stroke:rgb(0%,0%,0%);stroke-opacity:1;stroke-miterlimit:4;" d="M 301 382.802083 L 315.197917 374.098958 " transform="matrix(0.75,0,0,0.75,0,0)"/>
<path style="fill:none;stroke-width:2;stroke-linecap:butt;stroke-linejoin:miter;stroke:rgb(0%,0%,100%);stroke-opacity:1;stroke-miterlimit:4;" d="M 315.197917 374.098958 L 329.302083 365.302083 " transform="matrix(0.75,0,0,0.75,0,0)"/>
<path style="fill:none;stroke-width:2;stroke-linecap:butt;stroke-linejoin:miter;stroke:rgb(0%,0%,100%);stroke-opacity:1;stroke-miterlimit:4;" d="M 340.401042 367.598958 L 351.401042 379.098958 " transform="matrix(0.75,0,0,0.75,0,0)"/>
<path style="fill:none;stroke-width:2;stroke-linecap:butt;stroke-linejoin:miter;stroke:rgb(0%,0%,0%);stroke-opacity:1;stroke-miterlimit:4;" d="M 351.401042 379.098958 L 362.401042 390.5 " transform="matrix(0.75,0,0,0.75,0,0)"/>
<path style="fill:none;stroke-width:2;stroke-linecap:butt;stroke-linejoin:miter;stroke:rgb(0%,0%,100%);stroke-opacity:1;stroke-miterlimit:4;" d="M 339.5 354.901042 L 348.401042 341.901042 " transform="matrix(0.75,0,0,0.75,0,0)"/>
<path style="fill:none;stroke-width:2;stroke-linecap:butt;stroke-linejoin:miter;stroke:rgb(0%,0%,0%);stroke-opacity:1;stroke-miterlimit:4;" d="M 348.401042 341.901042 L 357.197917 328.901042 " transform="matrix(0.75,0,0,0.75,0,0)"/>
<path style="fill:none;stroke-width:2;stroke-linecap:butt;stroke-linejoin:miter;stroke:rgb(0%,0%,0%);stroke-opacity:1;stroke-miterlimit:4;" d="M 357.197917 328.901042 L 364.197917 289.802083 " transform="matrix(0.75,0,0,0.75,0,0)"/>
<path style="fill-rule:evenodd;fill:rgb(0%,0%,0%);fill-opacity:1;stroke-width:1;stroke-linecap:butt;stroke-linejoin:miter;stroke:rgb(0%,0%,0%);stroke-opacity:1;stroke-miterlimit:4;" d="M 364.197917 289.802083 L 403.802083 284.598958 L 404.098958 292.401042 Z M 364.197917 289.802083 " transform="matrix(0.75,0,0,0.75,0,0)"/>
<path style="fill:none;stroke-width:2;stroke-linecap:butt;stroke-linejoin:miter;stroke:rgb(0%,0%,0%);stroke-opacity:1;stroke-miterlimit:4;" d="M 364.197917 289.802083 L 354.697917 251.098958 " transform="matrix(0.75,0,0,0.75,0,0)"/>
<path style="fill:none;stroke-width:2;stroke-linecap:butt;stroke-linejoin:miter;stroke:rgb(0%,0%,0%);stroke-opacity:1;stroke-miterlimit:4;" d="M 354.697917 251.098958 L 330.302083 219.697917 " transform="matrix(0.75,0,0,0.75,0,0)"/>
<path style="fill-rule:evenodd;fill:rgb(0%,0%,0%);fill-opacity:1;stroke-width:1;stroke-linecap:butt;stroke-linejoin:miter;stroke:rgb(0%,0%,0%);stroke-opacity:1;stroke-miterlimit:4;" d="M 330.302083 219.697917 L 330.697917 179.697917 L 338.401042 180.598958 Z M 330.302083 219.697917 " transform="matrix(0.75,0,0,0.75,0,0)"/>
<path style="fill:none;stroke-width:2;stroke-linecap:butt;stroke-linejoin:miter;stroke:rgb(0%,0%,0%);stroke-opacity:1;stroke-miterlimit:4;" d="M 330.302083 219.697917 L 295.197917 200.901042 " transform="matrix(0.75,0,0,0.75,0,0)"/>
<path style="fill:none;stroke-width:2;stroke-linecap:butt;stroke-linejoin:miter;stroke:rgb(0%,0%,0%);stroke-opacity:1;stroke-miterlimit:4;" d="M 295.197917 200.901042 L 255.5 198.098958 " transform="matrix(0.75,0,0,0.75,0,0)"/>
<path style="fill:none;stroke-width:1;stroke-linecap:butt;stroke-linejoin:miter;stroke:rgb(0%,0%,0%);stroke-opacity:1;stroke-miterlimit:4;" d="M 255.302083 191.401042 L 254 191.598958 " transform="matrix(0.75,0,0,0.75,0,0)"/>
<path style="fill:none;stroke-width:1;stroke-linecap:butt;stroke-linejoin:miter;stroke:rgb(0%,0%,0%);stroke-opacity:1;stroke-miterlimit:4;" d="M 255 184.697917 L 252.401042 185.098958 " transform="matrix(0.75,0,0,0.75,0,0)"/>
<path style="fill:none;stroke-width:1;stroke-linecap:butt;stroke-linejoin:miter;stroke:rgb(0%,0%,0%);stroke-opacity:1;stroke-miterlimit:4;" d="M 254.697917 178.098958 L 250.901042 178.598958 " transform="matrix(0.75,0,0,0.75,0,0)"/>
<path style="fill:none;stroke-width:1;stroke-linecap:butt;stroke-linejoin:miter;stroke:rgb(0%,0%,0%);stroke-opacity:1;stroke-miterlimit:4;" d="M 254.5 171.401042 L 249.302083 172.098958 " transform="matrix(0.75,0,0,0.75,0,0)"/>
<path style="fill:none;stroke-width:1;stroke-linecap:butt;stroke-linejoin:miter;stroke:rgb(0%,0%,0%);stroke-opacity:1;stroke-miterlimit:4;" d="M 254.197917 164.802083 L 247.802083 165.697917 " transform="matrix(0.75,0,0,0.75,0,0)"/>
<path style="fill:none;stroke-width:1;stroke-linecap:butt;stroke-linejoin:miter;stroke:rgb(0%,0%,0%);stroke-opacity:1;stroke-miterlimit:4;" d="M 254 158.098958 L 246.197917 159.197917 " transform="matrix(0.75,0,0,0.75,0,0)"/>
<path style="fill:none;stroke-width:2;stroke-linecap:butt;stroke-linejoin:miter;stroke:rgb(0%,0%,0%);stroke-opacity:1;stroke-miterlimit:4;" d="M 255.5 198.098958 L 218.098958 211.598958 " transform="matrix(0.75,0,0,0.75,0,0)"/>
<path style="fill:none;stroke-width:2;stroke-linecap:butt;stroke-linejoin:miter;stroke:rgb(0%,0%,0%);stroke-opacity:1;stroke-miterlimit:4;" d="M 218.098958 211.598958 L 189.401042 239.098958 " transform="matrix(0.75,0,0,0.75,0,0)"/>
<path style="fill:none;stroke-width:1;stroke-linecap:butt;stroke-linejoin:miter;stroke:rgb(0%,0%,0%);stroke-opacity:1;stroke-miterlimit:4;" d="M 184 236.401042 L 183.598958 237.697917 " transform="matrix(0.75,0,0,0.75,0,0)"/>
<path style="fill:none;stroke-width:1;stroke-linecap:butt;stroke-linejoin:miter;stroke:rgb(0%,0%,0%);stroke-opacity:1;stroke-miterlimit:4;" d="M 178.697917 233.802083 L 177.802083 236.197917 " transform="matrix(0.75,0,0,0.75,0,0)"/>
<path style="fill:none;stroke-width:1;stroke-linecap:butt;stroke-linejoin:miter;stroke:rgb(0%,0%,0%);stroke-opacity:1;stroke-miterlimit:4;" d="M 173.302083 231.098958 L 171.901042 234.802083 " transform="matrix(0.75,0,0,0.75,0,0)"/>
<path style="fill:none;stroke-width:1;stroke-linecap:butt;stroke-linejoin:miter;stroke:rgb(0%,0%,0%);stroke-opacity:1;stroke-miterlimit:4;" d="M 167.901042 228.401042 L 166.098958 233.302083 " transform="matrix(0.75,0,0,0.75,0,0)"/>
<path style="fill:none;stroke-width:1;stroke-linecap:butt;stroke-linejoin:miter;stroke:rgb(0%,0%,0%);stroke-opacity:1;stroke-miterlimit:4;" d="M 162.5 225.802083 L 160.302083 231.901042 " transform="matrix(0.75,0,0,0.75,0,0)"/>
<path style="fill:none;stroke-width:1;stroke-linecap:butt;stroke-linejoin:miter;stroke:rgb(0%,0%,0%);stroke-opacity:1;stroke-miterlimit:4;" d="M 157.098958 223.098958 L 154.5 230.401042 " transform="matrix(0.75,0,0,0.75,0,0)"/>
<path style="fill-rule:evenodd;fill:rgb(0%,0%,0%);fill-opacity:1;stroke-width:1;stroke-linecap:butt;stroke-linejoin:miter;stroke:rgb(0%,0%,0%);stroke-opacity:1;stroke-miterlimit:4;" d="M 218.098958 211.598958 L 208.598958 199.901042 L 211.901042 197.802083 Z M 218.098958 211.598958 " transform="matrix(0.75,0,0,0.75,0,0)"/>
<path style="fill-rule:evenodd;fill:rgb(100%,0%,0%);fill-opacity:1;stroke-width:1;stroke-linecap:butt;stroke-linejoin:miter;stroke:rgb(100%,0%,0%);stroke-opacity:1;stroke-miterlimit:4;" d="M 208.598958 199.901042 L 205.697917 184.098958 L 199 188.302083 Z M 208.598958 199.901042 " transform="matrix(0.75,0,0,0.75,0,0)"/>
<path style="fill-rule:evenodd;fill:rgb(100%,0%,0%);fill-opacity:1;stroke-width:1;stroke-linecap:butt;stroke-linejoin:miter;stroke:rgb(100%,0%,0%);stroke-opacity:1;stroke-miterlimit:4;" d="M 208.598958 199.901042 L 211.901042 197.802083 L 205.697917 184.098958 Z M 208.598958 199.901042 " transform="matrix(0.75,0,0,0.75,0,0)"/>
<path style="fill:none;stroke-width:1;stroke-linecap:butt;stroke-linejoin:miter;stroke:rgb(0%,0%,0%);stroke-opacity:1;stroke-miterlimit:4;" d="M 162.697917 179.5 L 162.697917 178.197917 " transform="matrix(0.75,0,0,0.75,0,0)"/>
<path style="fill:none;stroke-width:1;stroke-linecap:butt;stroke-linejoin:miter;stroke:rgb(0%,0%,0%);stroke-opacity:1;stroke-miterlimit:4;" d="M 168.098958 180 L 168 177.401042 " transform="matrix(0.75,0,0,0.75,0,0)"/>
<path style="fill:none;stroke-width:1;stroke-linecap:butt;stroke-linejoin:miter;stroke:rgb(0%,0%,0%);stroke-opacity:1;stroke-miterlimit:4;" d="M 173.401042 180.5 L 173.302083 176.598958 " transform="matrix(0.75,0,0,0.75,0,0)"/>
<path style="fill:none;stroke-width:1;stroke-linecap:butt;stroke-linejoin:miter;stroke:rgb(100%,0%,0%);stroke-opacity:1;stroke-miterlimit:4;" d="M 178.802083 180.901042 L 178.598958 175.697917 " transform="matrix(0.75,0,0,0.75,0,0)"/>
<path style="fill:none;stroke-width:1;stroke-linecap:butt;stroke-linejoin:miter;stroke:rgb(100%,0%,0%);stroke-opacity:1;stroke-miterlimit:4;" d="M 184.098958 181.401042 L 183.901042 174.901042 " transform="matrix(0.75,0,0,0.75,0,0)"/>
<path style="fill:none;stroke-width:1;stroke-linecap:butt;stroke-linejoin:miter;stroke:rgb(100%,0%,0%);stroke-opacity:1;stroke-miterlimit:4;" d="M 189.5 181.901042 L 189.197917 174.098958 " transform="matrix(0.75,0,0,0.75,0,0)"/>
<path style="fill:none;stroke-width:2;stroke-linecap:butt;stroke-linejoin:miter;stroke:rgb(0%,0%,0%);stroke-opacity:1;stroke-miterlimit:4;" d="M 157.401042 179 L 136.401042 145.197917 " transform="matrix(0.75,0,0,0.75,0,0)"/>
<path style="fill:none;stroke-width:2;stroke-linecap:butt;stroke-linejoin:miter;stroke:rgb(0%,0%,0%);stroke-opacity:1;stroke-miterlimit:4;" d="M 136.401042 145.197917 L 96.598958 146.5 " transform="matrix(0.75,0,0,0.75,0,0)"/>
<path style="fill-rule:evenodd;fill:rgb(0%,0%,0%);fill-opacity:1;stroke-width:1;stroke-linecap:butt;stroke-linejoin:miter;stroke:rgb(0%,0%,0%);stroke-opacity:1;stroke-miterlimit:4;" d="M 96.598958 146.5 L 57.598958 137.802083 L 60 130.401042 Z M 96.598958 146.5 " transform="matrix(0.75,0,0,0.75,0,0)"/>
<path style="fill:none;stroke-width:2;stroke-linecap:butt;stroke-linejoin:miter;stroke:rgb(0%,0%,0%);stroke-opacity:1;stroke-miterlimit:4;" d="M 96.598958 146.5 L 98.901042 130.401042 " transform="matrix(0.75,0,0,0.75,0,0)"/>
<path style="fill:none;stroke-width:2;stroke-linecap:butt;stroke-linejoin:miter;stroke:rgb(100%,0%,0%);stroke-opacity:1;stroke-miterlimit:4;" d="M 98.901042 130.401042 L 101.197917 114.302083 " transform="matrix(0.75,0,0,0.75,0,0)"/>
<path style="fill:none;stroke-width:2;stroke-linecap:butt;stroke-linejoin:miter;stroke:rgb(100%,0%,0%);stroke-opacity:1;stroke-miterlimit:4;" d="M 95.802083 102.098958 L 83.401042 92.302083 " transform="matrix(0.75,0,0,0.75,0,0)"/>
<path style="fill:none;stroke-width:2;stroke-linecap:butt;stroke-linejoin:miter;stroke:rgb(0%,0%,0%);stroke-opacity:1;stroke-miterlimit:4;" d="M 83.401042 92.302083 L 71 82.5 " transform="matrix(0.75,0,0,0.75,0,0)"/>
<path style="fill:none;stroke-width:2;stroke-linecap:butt;stroke-linejoin:miter;stroke:rgb(0%,0%,0%);stroke-opacity:1;stroke-miterlimit:4;" d="M 157.401042 179 L 149.802083 193.098958 " transform="matrix(0.75,0,0,0.75,0,0)"/>
<path style="fill:none;stroke-width:2;stroke-linecap:butt;stroke-linejoin:miter;stroke:rgb(100%,0%,0%);stroke-opacity:1;stroke-miterlimit:4;" d="M 149.802083 193.098958 L 142.302083 207.098958 " transform="matrix(0.75,0,0,0.75,0,0)"/>
<path style="fill:none;stroke-width:2;stroke-linecap:butt;stroke-linejoin:miter;stroke:rgb(100%,0%,0%);stroke-opacity:1;stroke-miterlimit:4;" d="M 132.098958 214.302083 L 115.5 214.802083 " transform="matrix(0.75,0,0,0.75,0,0)"/>
<path style="fill:none;stroke-width:2;stroke-linecap:butt;stroke-linejoin:miter;stroke:rgb(0%,0%,0%);stroke-opacity:1;stroke-miterlimit:4;" d="M 115.5 214.802083 L 98.802083 215.401042 " transform="matrix(0.75,0,0,0.75,0,0)"/>
<path style="fill-rule:evenodd;fill:rgb(0%,0%,0%);fill-opacity:1;stroke-width:1;stroke-linecap:butt;stroke-linejoin:miter;stroke:rgb(0%,0%,0%);stroke-opacity:1;stroke-miterlimit:4;" d="M 98.802083 215.401042 L 83.5 252.302083 L 76.598958 248.598958 Z M 98.802083 215.401042 " transform="matrix(0.75,0,0,0.75,0,0)"/>
<path style="fill:none;stroke-width:2;stroke-linecap:butt;stroke-linejoin:miter;stroke:rgb(0%,0%,0%);stroke-opacity:1;stroke-miterlimit:4;" d="M 98.802083 215.401042 L 77.802083 181.598958 " transform="matrix(0.75,0,0,0.75,0,0)"/>
<path style="fill:none;stroke-width:1;stroke-linecap:butt;stroke-linejoin:miter;stroke:rgb(0%,0%,0%);stroke-opacity:1;stroke-miterlimit:4;" d="M 72.5 181.098958 L 72.5 182.401042 " transform="matrix(0.75,0,0,0.75,0,0)"/>
<path style="fill:none;stroke-width:1;stroke-linecap:butt;stroke-linejoin:miter;stroke:rgb(0%,0%,0%);stroke-opacity:1;stroke-miterlimit:4;" d="M 67.098958 180.598958 L 67.197917 183.197917 " transform="matrix(0.75,0,0,0.75,0,0)"/>
<path style="fill:none;stroke-width:1;stroke-linecap:butt;stroke-linejoin:miter;stroke:rgb(0%,0%,0%);stroke-opacity:1;stroke-miterlimit:4;" d="M 61.802083 180.098958 L 61.901042 184 " transform="matrix(0.75,0,0,0.75,0,0)"/>
<path style="fill:none;stroke-width:1;stroke-linecap:butt;stroke-linejoin:miter;stroke:rgb(100%,0%,0%);stroke-opacity:1;stroke-miterlimit:4;" d="M 56.401042 179.697917 L 56.598958 184.901042 " transform="matrix(0.75,0,0,0.75,0,0)"/>
<path style="fill:none;stroke-width:1;stroke-linecap:butt;stroke-linejoin:miter;stroke:rgb(100%,0%,0%);stroke-opacity:1;stroke-miterlimit:4;" d="M 51 179.197917 L 51.302083 185.697917 " transform="matrix(0.75,0,0,0.75,0,0)"/>
<path style="fill:none;stroke-width:1;stroke-linecap:butt;stroke-linejoin:miter;stroke:rgb(100%,0%,0%);stroke-opacity:1;stroke-miterlimit:4;" d="M 45.697917 178.697917 L 45.901042 186.5 " transform="matrix(0.75,0,0,0.75,0,0)"/>
<path style="fill-rule:evenodd;fill:rgb(0%,0%,0%);fill-opacity:1;stroke-width:1;stroke-linecap:butt;stroke-linejoin:miter;stroke:rgb(0%,0%,0%);stroke-opacity:1;stroke-miterlimit:4;" d="M 295.197917 200.901042 L 297.598958 185.5 L 301.401042 186.598958 Z M 295.197917 200.901042 " transform="matrix(0.75,0,0,0.75,0,0)"/>
<path style="fill-rule:evenodd;fill:rgb(100%,0%,0%);fill-opacity:1;stroke-width:1;stroke-linecap:butt;stroke-linejoin:miter;stroke:rgb(100%,0%,0%);stroke-opacity:1;stroke-miterlimit:4;" d="M 297.598958 185.5 L 307.598958 172.302083 L 300.098958 170.098958 Z M 297.598958 185.5 " transform="matrix(0.75,0,0,0.75,0,0)"/>
<path style="fill-rule:evenodd;fill:rgb(100%,0%,0%);fill-opacity:1;stroke-width:1;stroke-linecap:butt;stroke-linejoin:miter;stroke:rgb(100%,0%,0%);stroke-opacity:1;stroke-miterlimit:4;" d="M 297.598958 185.5 L 301.401042 186.598958 L 307.598958 172.302083 Z M 297.598958 185.5 " transform="matrix(0.75,0,0,0.75,0,0)"/>
<path style="fill:none;stroke-width:1;stroke-linecap:butt;stroke-linejoin:miter;stroke:rgb(0%,0%,0%);stroke-opacity:1;stroke-miterlimit:4;" d="M 339.598958 153.901042 L 339.901042 155.098958 " transform="matrix(0.75,0,0,0.75,0,0)"/>
<path style="fill:none;stroke-width:1;stroke-linecap:butt;stroke-linejoin:miter;stroke:rgb(0%,0%,0%);stroke-opacity:1;stroke-miterlimit:4;" d="M 334.302083 154.5 L 334.901042 157 " transform="matrix(0.75,0,0,0.75,0,0)"/>
<path style="fill:none;stroke-width:1;stroke-linecap:butt;stroke-linejoin:miter;stroke:rgb(0%,0%,0%);stroke-opacity:1;stroke-miterlimit:4;" d="M 329 155.098958 L 329.901042 158.901042 " transform="matrix(0.75,0,0,0.75,0,0)"/>
<path style="fill:none;stroke-width:1;stroke-linecap:butt;stroke-linejoin:miter;stroke:rgb(100%,0%,0%);stroke-opacity:1;stroke-miterlimit:4;" d="M 323.697917 155.802083 L 324.901042 160.802083 " transform="matrix(0.75,0,0,0.75,0,0)"/>
<path style="fill:none;stroke-width:1;stroke-linecap:butt;stroke-linejoin:miter;stroke:rgb(100%,0%,0%);stroke-opacity:1;stroke-miterlimit:4;" d="M 318.401042 156.401042 L 320 162.697917 " transform="matrix(0.75,0,0,0.75,0,0)"/>
<path style="fill:none;stroke-width:1;stroke-linecap:butt;stroke-linejoin:miter;stroke:rgb(100%,0%,0%);stroke-opacity:1;stroke-miterlimit:4;" d="M 313.098958 157 L 315 164.598958 " transform="matrix(0.75,0,0,0.75,0,0)"/>
<path style="fill:none;stroke-width:2;stroke-linecap:butt;stroke-linejoin:miter;stroke:rgb(0%,0%,0%);stroke-opacity:1;stroke-miterlimit:4;" d="M 344.901042 153.197917 L 372.5 181.901042 " transform="matrix(0.75,0,0,0.75,0,0)"/>
<path style="fill-rule:evenodd;fill:rgb(0%,0%,0%);fill-opacity:1;stroke-width:1;stroke-linecap:butt;stroke-linejoin:miter;stroke:rgb(0%,0%,0%);stroke-opacity:1;stroke-miterlimit:4;" d="M 372.5 181.901042 L 373.401042 188.5 L 369.5 187.901042 Z M 372.5 181.901042 " transform="matrix(0.75,0,0,0.75,0,0)"/>
<path style="fill-rule:evenodd;fill:rgb(100%,0%,0%);fill-opacity:1;stroke-width:1;stroke-linecap:butt;stroke-linejoin:miter;stroke:rgb(100%,0%,0%);stroke-opacity:1;stroke-miterlimit:4;" d="M 373.401042 188.5 L 366.598958 193.901042 L 374.302083 195.098958 Z M 373.401042 188.5 " transform="matrix(0.75,0,0,0.75,0,0)"/>
<path style="fill-rule:evenodd;fill:rgb(100%,0%,0%);fill-opacity:1;stroke-width:1;stroke-linecap:butt;stroke-linejoin:miter;stroke:rgb(100%,0%,0%);stroke-opacity:1;stroke-miterlimit:4;" d="M 373.401042 188.5 L 369.5 187.901042 L 366.598958 193.901042 Z M 373.401042 188.5 " transform="matrix(0.75,0,0,0.75,0,0)"/>
<path style="fill:none;stroke-width:2;stroke-linecap:butt;stroke-linejoin:miter;stroke:rgb(0%,0%,0%);stroke-opacity:1;stroke-miterlimit:4;" d="M 344.901042 153.197917 L 349.401042 137.697917 " transform="matrix(0.75,0,0,0.75,0,0)"/>
<path style="fill:none;stroke-width:2;stroke-linecap:butt;stroke-linejoin:miter;stroke:rgb(100%,0%,0%);stroke-opacity:1;stroke-miterlimit:4;" d="M 349.401042 137.697917 L 353.901042 122.197917 " transform="matrix(0.75,0,0,0.75,0,0)"/>
<path style="fill:none;stroke-width:2;stroke-linecap:butt;stroke-linejoin:miter;stroke:rgb(100%,0%,0%);stroke-opacity:1;stroke-miterlimit:4;" d="M 362.401042 113.401042 L 378.5 109.5 " transform="matrix(0.75,0,0,0.75,0,0)"/>
<path style="fill:none;stroke-width:2;stroke-linecap:butt;stroke-linejoin:miter;stroke:rgb(0%,0%,0%);stroke-opacity:1;stroke-miterlimit:4;" d="M 378.5 109.5 L 394.598958 105.5 " transform="matrix(0.75,0,0,0.75,0,0)"/>
<path style="fill:none;stroke-width:1;stroke-linecap:butt;stroke-linejoin:miter;stroke:rgb(0%,0%,0%);stroke-opacity:1;stroke-miterlimit:4;" d="M 397.098958 99.302083 L 395.802083 98.901042 " transform="matrix(0.75,0,0,0.75,0,0)"/>
<path style="fill:none;stroke-width:1;stroke-linecap:butt;stroke-linejoin:miter;stroke:rgb(0%,0%,0%);stroke-opacity:1;stroke-miterlimit:4;" d="M 399.598958 93.098958 L 397.098958 92.401042 " transform="matrix(0.75,0,0,0.75,0,0)"/>
<path style="fill:none;stroke-width:1;stroke-linecap:butt;stroke-linejoin:miter;stroke:rgb(0%,0%,0%);stroke-opacity:1;stroke-miterlimit:4;" d="M 402 86.901042 L 398.302083 85.802083 " transform="matrix(0.75,0,0,0.75,0,0)"/>
<path style="fill:none;stroke-width:1;stroke-linecap:butt;stroke-linejoin:miter;stroke:rgb(0%,0%,0%);stroke-opacity:1;stroke-miterlimit:4;" d="M 404.5 80.697917 L 399.5 79.302083 " transform="matrix(0.75,0,0,0.75,0,0)"/>
<path style="fill:none;stroke-width:1;stroke-linecap:butt;stroke-linejoin:miter;stroke:rgb(0%,0%,0%);stroke-opacity:1;stroke-miterlimit:4;" d="M 407 74.598958 L 400.697917 72.697917 " transform="matrix(0.75,0,0,0.75,0,0)"/>
<path style="fill:none;stroke-width:1;stroke-linecap:butt;stroke-linejoin:miter;stroke:rgb(0%,0%,0%);stroke-opacity:1;stroke-miterlimit:4;" d="M 409.401042 68.401042 L 401.901042 66.197917 " transform="matrix(0.75,0,0,0.75,0,0)"/>
<path style="fill:none;stroke-width:2;stroke-linecap:butt;stroke-linejoin:miter;stroke:rgb(0%,0%,0%);stroke-opacity:1;stroke-miterlimit:4;" d="M 394.598958 105.5 L 422.197917 134.197917 " transform="matrix(0.75,0,0,0.75,0,0)"/>
<path style="fill:none;stroke-width:2;stroke-linecap:butt;stroke-linejoin:miter;stroke:rgb(0%,0%,0%);stroke-opacity:1;stroke-miterlimit:4;" d="M 422.197917 134.197917 L 411.098958 172.401042 " transform="matrix(0.75,0,0,0.75,0,0)"/>
<path style="fill:none;stroke-width:1;stroke-linecap:butt;stroke-linejoin:miter;stroke:rgb(0%,0%,0%);stroke-opacity:1;stroke-miterlimit:4;" d="M 414.098958 176.401042 L 415 175.5 " transform="matrix(0.75,0,0,0.75,0,0)"/>
<path style="fill:none;stroke-width:1;stroke-linecap:butt;stroke-linejoin:miter;stroke:rgb(0%,0%,0%);stroke-opacity:1;stroke-miterlimit:4;" d="M 417.098958 180.5 L 418.901042 178.697917 " transform="matrix(0.75,0,0,0.75,0,0)"/>
<path style="fill:none;stroke-width:1;stroke-linecap:butt;stroke-linejoin:miter;stroke:rgb(0%,0%,0%);stroke-opacity:1;stroke-miterlimit:4;" d="M 420 184.5 L 422.901042 181.802083 " transform="matrix(0.75,0,0,0.75,0,0)"/>
<path style="fill:none;stroke-width:1;stroke-linecap:butt;stroke-linejoin:miter;stroke:rgb(0%,0%,100%);stroke-opacity:1;stroke-miterlimit:4;" d="M 423 188.598958 L 426.802083 185 " transform="matrix(0.75,0,0,0.75,0,0)"/>
<path style="fill:none;stroke-width:1;stroke-linecap:butt;stroke-linejoin:miter;stroke:rgb(0%,0%,100%);stroke-opacity:1;stroke-miterlimit:4;" d="M 426 192.598958 L 430.697917 188.098958 " transform="matrix(0.75,0,0,0.75,0,0)"/>
<path style="fill:none;stroke-width:1;stroke-linecap:butt;stroke-linejoin:miter;stroke:rgb(0%,0%,100%);stroke-opacity:1;stroke-miterlimit:4;" d="M 429 196.697917 L 434.598958 191.302083 " transform="matrix(0.75,0,0,0.75,0,0)"/>
<path style="fill:none;stroke-width:2;stroke-linecap:butt;stroke-linejoin:miter;stroke:rgb(0%,0%,100%);stroke-opacity:1;stroke-miterlimit:4;" d="M 444.197917 199.697917 L 460.697917 195.697917 " transform="matrix(0.75,0,0,0.75,0,0)"/>
<path style="fill:none;stroke-width:2;stroke-linecap:butt;stroke-linejoin:miter;stroke:rgb(0%,0%,0%);stroke-opacity:1;stroke-miterlimit:4;" d="M 460.697917 195.697917 L 477.302083 191.598958 " transform="matrix(0.75,0,0,0.75,0,0)"/>
<path style="fill:none;stroke-width:2;stroke-linecap:butt;stroke-linejoin:miter;stroke:rgb(0%,0%,100%);stroke-opacity:1;stroke-miterlimit:4;" d="M 436.598958 208 L 432.098958 223.697917 " transform="matrix(0.75,0,0,0.75,0,0)"/>
<path style="fill:none;stroke-width:2;stroke-linecap:butt;stroke-linejoin:miter;stroke:rgb(0%,0%,0%);stroke-opacity:1;stroke-miterlimit:4;" d="M 432.098958 223.697917 L 427.598958 239.302083 " transform="matrix(0.75,0,0,0.75,0,0)"/>
<path style="fill:none;stroke-width:2;stroke-linecap:butt;stroke-linejoin:miter;stroke:rgb(0%,0%,0%);stroke-opacity:1;stroke-miterlimit:4;" d="M 330.302083 219.697917 L 337.5 218.598958 " transform="matrix(0.75,0,0,0.75,0,0)"/>
<path style="fill:none;stroke-width:2;stroke-linecap:butt;stroke-linejoin:miter;stroke:rgb(100%,0%,0%);stroke-opacity:1;stroke-miterlimit:4;" d="M 337.5 218.598958 L 344.697917 217.5 " transform="matrix(0.75,0,0,0.75,0,0)"/>
<path style="fill-rule:evenodd;fill:rgb(0%,0%,0%);fill-opacity:1;stroke-width:1;stroke-linecap:butt;stroke-linejoin:miter;stroke:rgb(0%,0%,0%);stroke-opacity:1;stroke-miterlimit:4;" d="M 261.598958 388.302083 L 262.401042 404.098958 L 258.5 403.802083 Z M 261.598958 388.302083 " transform="matrix(0.75,0,0,0.75,0,0)"/>
<path style="fill-rule:evenodd;fill:rgb(100%,0%,0%);fill-opacity:1;stroke-width:1;stroke-linecap:butt;stroke-linejoin:miter;stroke:rgb(100%,0%,0%);stroke-opacity:1;stroke-miterlimit:4;" d="M 262.401042 404.098958 L 255.401042 419.401042 L 263.197917 419.901042 Z M 262.401042 404.098958 " transform="matrix(0.75,0,0,0.75,0,0)"/>
<path style="fill-rule:evenodd;fill:rgb(100%,0%,0%);fill-opacity:1;stroke-width:1;stroke-linecap:butt;stroke-linejoin:miter;stroke:rgb(100%,0%,0%);stroke-opacity:1;stroke-miterlimit:4;" d="M 262.401042 404.098958 L 258.5 403.802083 L 255.401042 419.401042 Z M 262.401042 404.098958 " transform="matrix(0.75,0,0,0.75,0,0)"/>
<path style="fill:none;stroke-width:2;stroke-linecap:butt;stroke-linejoin:miter;stroke:rgb(0%,0%,0%);stroke-opacity:1;stroke-miterlimit:4;" d="M 223.401042 377.197917 L 209.098958 384.802083 " transform="matrix(0.75,0,0,0.75,0,0)"/>
<path style="fill:none;stroke-width:2;stroke-linecap:butt;stroke-linejoin:miter;stroke:rgb(100%,0%,0%);stroke-opacity:1;stroke-miterlimit:4;" d="M 209.098958 384.802083 L 194.697917 392.302083 " transform="matrix(0.75,0,0,0.75,0,0)"/>
<path style="fill:none;stroke-width:2;stroke-linecap:butt;stroke-linejoin:miter;stroke:rgb(0%,0%,0%);stroke-opacity:1;stroke-miterlimit:4;" d="M 193 351.5 L 186.098958 337.197917 " transform="matrix(0.75,0,0,0.75,0,0)"/>
<path style="fill:none;stroke-width:2;stroke-linecap:butt;stroke-linejoin:miter;stroke:rgb(100%,0%,0%);stroke-opacity:1;stroke-miterlimit:4;" d="M 186.098958 337.197917 L 179.098958 322.901042 " transform="matrix(0.75,0,0,0.75,0,0)"/>
<path style="fill:none;stroke-width:2;stroke-linecap:butt;stroke-linejoin:miter;stroke:rgb(100%,0%,0%);stroke-opacity:1;stroke-miterlimit:4;" d="M 175.5 308.697917 L 174.901042 292.302083 " transform="matrix(0.75,0,0,0.75,0,0)"/>
<path style="fill:none;stroke-width:2;stroke-linecap:butt;stroke-linejoin:miter;stroke:rgb(0%,0%,0%);stroke-opacity:1;stroke-miterlimit:4;" d="M 174.901042 292.302083 L 174.401042 276 " transform="matrix(0.75,0,0,0.75,0,0)"/>
<path style="fill:none;stroke-width:2;stroke-linecap:butt;stroke-linejoin:miter;stroke:rgb(0%,0%,0%);stroke-opacity:1;stroke-miterlimit:4;" d="M 173.697917 279.901042 L 157.302083 276.901042 " transform="matrix(0.75,0,0,0.75,0,0)"/>
<path style="fill:none;stroke-width:2;stroke-linecap:butt;stroke-linejoin:miter;stroke:rgb(100%,0%,0%);stroke-opacity:1;stroke-miterlimit:4;" d="M 157.302083 276.901042 L 141 274 " transform="matrix(0.75,0,0,0.75,0,0)"/>
<path style="fill:none;stroke-width:2;stroke-linecap:butt;stroke-linejoin:miter;stroke:rgb(0%,0%,0%);stroke-opacity:1;stroke-miterlimit:4;" d="M 175.098958 272 L 158.802083 269.098958 " transform="matrix(0.75,0,0,0.75,0,0)"/>
<path style="fill:none;stroke-width:2;stroke-linecap:butt;stroke-linejoin:miter;stroke:rgb(100%,0%,0%);stroke-opacity:1;stroke-miterlimit:4;" d="M 158.802083 269.098958 L 142.401042 266.197917 " transform="matrix(0.75,0,0,0.75,0,0)"/>
<path style="fill:none;stroke-width:2;stroke-linecap:butt;stroke-linejoin:miter;stroke:rgb(0%,0%,0%);stroke-opacity:1;stroke-miterlimit:4;" d="M 174.401042 276 L 189.401042 239.098958 " transform="matrix(0.75,0,0,0.75,0,0)"/>
<path style="fill:none;stroke-width:2;stroke-linecap:butt;stroke-linejoin:miter;stroke:rgb(0%,0%,0%);stroke-opacity:1;stroke-miterlimit:4;" d="M 77.802083 181.598958 L 96.598958 146.5 " transform="matrix(0.75,0,0,0.75,0,0)"/>
<path style="fill:none;stroke-width:2;stroke-linecap:butt;stroke-linejoin:miter;stroke:rgb(0%,0%,0%);stroke-opacity:1;stroke-miterlimit:4;" d="M 411.098958 172.401042 L 372.5 181.901042 " transform="matrix(0.75,0,0,0.75,0,0)"/>
<path style=" stroke:none;fill-rule:nonzero;fill:rgb(0%,0%,100%);fill-opacity:1;" d="M 249.226562 267.148438 L 252 271.648438 C 252.199219 271.949219 252.449219 272.351562 252.75 272.851562 C 253.050781 273.398438 253.199219 273.699219 253.199219 273.75 L 253.199219 267.148438 L 254.324219 267.148438 L 254.324219 275.625 L 253.199219 275.625 L 250.199219 270.75 C 249.949219 270.351562 249.699219 269.925781 249.449219 269.476562 C 249.25 269.023438 249.101562 268.75 249 268.648438 L 249 275.625 L 247.949219 275.625 L 247.949219 267.148438 L 249.226562 267.148438 "/>
<path style=" stroke:none;fill-rule:nonzero;fill:rgb(100%,0%,0%);fill-opacity:1;" d="M 143.925781 133.351562 C 143.925781 132 144.273438 130.949219 144.976562 130.199219 C 145.625 129.449219 146.574219 129.074219 147.824219 129.074219 C 149.074219 129.074219 150.050781 129.449219 150.75 130.199219 C 151.398438 130.949219 151.726562 132 151.726562 133.351562 C 151.726562 134.699219 151.375 135.773438 150.675781 136.574219 C 150.023438 137.324219 149.074219 137.699219 147.824219 137.699219 C 146.574219 137.699219 145.625 137.324219 144.976562 136.574219 C 144.273438 135.773438 143.925781 134.699219 143.925781 133.351562 M 147.824219 136.800781 C 148.675781 136.800781 149.351562 136.5 149.851562 135.898438 C 150.300781 135.300781 150.523438 134.449219 150.523438 133.351562 C 150.523438 132.25 150.300781 131.425781 149.851562 130.875 C 149.351562 130.273438 148.675781 129.976562 147.824219 129.976562 C 146.976562 129.976562 146.324219 130.25 145.875 130.800781 C 145.375 131.398438 145.125 132.25 145.125 133.351562 C 145.125 134.5 145.375 135.351562 145.875 135.898438 C 146.324219 136.5 146.976562 136.800781 147.824219 136.800781 "/>
<path style=" stroke:none;fill-rule:nonzero;fill:rgb(100%,0%,0%);fill-opacity:1;" d="M 72.824219 80.398438 C 72.824219 79.050781 73.148438 77.976562 73.800781 77.175781 C 74.5 76.425781 75.476562 76.050781 76.726562 76.050781 C 77.976562 76.050781 78.925781 76.425781 79.574219 77.175781 C 80.226562 77.976562 80.550781 79.050781 80.550781 80.398438 C 80.550781 81.75 80.226562 82.824219 79.574219 83.625 C 78.875 84.375 77.925781 84.75 76.726562 84.75 C 75.476562 84.75 74.5 84.375 73.800781 83.625 C 73.148438 82.824219 72.824219 81.75 72.824219 80.398438 M 76.726562 83.773438 C 77.574219 83.773438 78.226562 83.5 78.675781 82.949219 C 79.125 82.351562 79.351562 81.5 79.351562 80.398438 C 79.351562 79.25 79.125 78.398438 78.675781 77.851562 C 78.226562 77.300781 77.574219 77.023438 76.726562 77.023438 C 75.824219 77.023438 75.148438 77.300781 74.699219 77.851562 C 74.25 78.398438 74.023438 79.25 74.023438 80.398438 C 74.023438 81.5 74.25 82.351562 74.699219 82.949219 C 75.148438 83.5 75.824219 83.773438 76.726562 83.773438 "/>
<path style=" stroke:none;fill-rule:nonzero;fill:rgb(100%,0%,0%);fill-opacity:1;" d="M 100.050781 160.574219 C 100.050781 159.226562 100.375 158.175781 101.023438 157.425781 C 101.726562 156.675781 102.699219 156.300781 103.949219 156.300781 C 105.199219 156.300781 106.148438 156.675781 106.800781 157.425781 C 107.5 158.175781 107.851562 159.226562 107.851562 160.574219 C 107.851562 161.976562 107.5 163.050781 106.800781 163.800781 C 106.101562 164.601562 105.148438 165 103.949219 165 C 102.699219 165 101.726562 164.601562 101.023438 163.800781 C 100.375 163.050781 100.050781 161.976562 100.050781 160.574219 M 103.949219 164.023438 C 104.800781 164.023438 105.449219 163.75 105.898438 163.199219 C 106.398438 162.601562 106.648438 161.726562 106.648438 160.574219 C 106.648438 159.476562 106.398438 158.648438 105.898438 158.101562 C 105.449219 157.550781 104.800781 157.273438 103.949219 157.273438 C 103.101562 157.273438 102.425781 157.550781 101.925781 158.101562 C 101.476562 158.648438 101.25 159.476562 101.25 160.574219 C 101.25 161.726562 101.476562 162.601562 101.925781 163.199219 C 102.425781 163.75 103.101562 164.023438 103.949219 164.023438 "/>
<path style=" stroke:none;fill-rule:nonzero;fill:rgb(100%,0%,0%);fill-opacity:1;" d="M 17.023438 132.976562 L 18.226562 132.976562 L 18.226562 136.574219 L 22.5 136.574219 L 22.5 132.976562 L 23.625 132.976562 L 23.625 141.449219 L 22.5 141.449219 L 22.5 137.476562 L 18.226562 137.476562 L 18.226562 141.449219 L 17.023438 141.449219 L 17.023438 132.976562 "/>
<path style=" stroke:none;fill-rule:nonzero;fill:rgb(100%,0%,0%);fill-opacity:1;" d="M 24.675781 137.175781 C 24.675781 135.824219 25 134.773438 25.648438 134.023438 C 26.351562 133.273438 27.324219 132.898438 28.574219 132.898438 C 29.824219 132.898438 30.773438 133.273438 31.425781 134.023438 C 32.074219 134.773438 32.398438 135.824219 32.398438 137.175781 C 32.398438 138.523438 32.074219 139.601562 31.425781 140.398438 C 30.726562 141.148438 29.773438 141.523438 28.574219 141.523438 C 27.324219 141.523438 26.351562 141.148438 25.648438 140.398438 C 25 139.601562 24.675781 138.523438 24.675781 137.175781 M 28.574219 140.625 C 29.425781 140.625 30.074219 140.324219 30.523438 139.726562 C 30.976562 139.125 31.199219 138.273438 31.199219 137.175781 C 31.199219 136.074219 30.976562 135.25 30.523438 134.699219 C 30.074219 134.101562 29.425781 133.800781 28.574219 133.800781 C 27.675781 133.800781 27 134.074219 26.550781 134.625 C 26.101562 135.226562 25.875 136.074219 25.875 137.175781 C 25.875 138.324219 26.101562 139.175781 26.550781 139.726562 C 27 140.324219 27.675781 140.625 28.574219 140.625 "/>
<path style=" stroke:none;fill-rule:nonzero;fill:rgb(100%,0%,0%);fill-opacity:1;" d="M 225.824219 122.101562 C 225.824219 120.75 226.148438 119.675781 226.800781 118.875 C 227.5 118.125 228.476562 117.75 229.726562 117.75 C 230.976562 117.75 231.925781 118.125 232.574219 118.875 C 233.273438 119.675781 233.625 120.75 233.625 122.101562 C 233.625 123.449219 233.273438 124.523438 232.574219 125.324219 C 231.875 126.074219 230.925781 126.449219 229.726562 126.449219 C 228.476562 126.449219 227.5 126.074219 226.800781 125.324219 C 226.148438 124.523438 225.824219 123.449219 225.824219 122.101562 M 229.726562 125.476562 C 230.574219 125.476562 231.226562 125.199219 231.675781 124.648438 C 232.175781 124.050781 232.425781 123.199219 232.425781 122.101562 C 232.425781 121 232.175781 120.148438 231.675781 119.550781 C 231.226562 119 230.574219 118.726562 229.726562 118.726562 C 228.875 118.726562 228.199219 119 227.699219 119.550781 C 227.25 120.101562 227.023438 120.949219 227.023438 122.101562 C 227.023438 123.199219 227.25 124.050781 227.699219 124.648438 C 228.199219 125.199219 228.875 125.476562 229.726562 125.476562 "/>
<path style=" stroke:none;fill-rule:nonzero;fill:rgb(100%,0%,0%);fill-opacity:1;" d="M 272.925781 152.101562 C 272.925781 150.75 273.273438 149.699219 273.976562 148.949219 C 274.625 148.199219 275.574219 147.824219 276.824219 147.824219 C 278.074219 147.824219 279.023438 148.199219 279.675781 148.949219 C 280.375 149.699219 280.726562 150.75 280.726562 152.101562 C 280.726562 153.5 280.375 154.574219 279.675781 155.324219 C 279.023438 156.125 278.074219 156.523438 276.824219 156.523438 C 275.574219 156.523438 274.625 156.125 273.976562 155.324219 C 273.273438 154.574219 272.925781 153.5 272.925781 152.101562 M 276.824219 155.550781 C 277.675781 155.550781 278.324219 155.25 278.773438 154.648438 C 279.273438 154.101562 279.523438 153.25 279.523438 152.101562 C 279.523438 151 279.273438 150.175781 278.773438 149.625 C 278.324219 149.074219 277.675781 148.800781 276.824219 148.800781 C 275.976562 148.800781 275.300781 149.074219 274.800781 149.625 C 274.351562 150.175781 274.125 151 274.125 152.101562 C 274.125 153.25 274.351562 154.101562 274.800781 154.648438 C 275.300781 155.25 275.976562 155.550781 276.824219 155.550781 "/>
<path style=" stroke:none;fill-rule:nonzero;fill:rgb(100%,0%,0%);fill-opacity:1;" d="M 281.324219 147.898438 L 282.449219 147.898438 L 282.449219 151.5 L 286.800781 151.5 L 286.800781 147.898438 L 287.925781 147.898438 L 287.925781 156.375 L 286.800781 156.375 L 286.800781 152.476562 L 282.449219 152.476562 L 282.449219 156.375 L 281.324219 156.375 L 281.324219 147.898438 "/>
<path style=" stroke:none;fill-rule:nonzero;fill:rgb(100%,0%,0%);fill-opacity:1;" d="M 263.101562 86.25 C 263.101562 84.898438 263.425781 83.851562 264.074219 83.101562 C 264.773438 82.351562 265.75 81.976562 267 81.976562 C 268.25 81.976562 269.199219 82.351562 269.851562 83.101562 C 270.550781 83.851562 270.898438 84.898438 270.898438 86.25 C 270.898438 87.648438 270.550781 88.726562 269.851562 89.476562 C 269.148438 90.273438 268.199219 90.675781 267 90.675781 C 265.75 90.675781 264.773438 90.273438 264.074219 89.476562 C 263.425781 88.726562 263.101562 87.648438 263.101562 86.25 M 267 89.699219 C 267.851562 89.699219 268.5 89.425781 268.949219 88.875 C 269.449219 88.273438 269.699219 87.398438 269.699219 86.25 C 269.699219 85.148438 269.449219 84.324219 268.949219 83.773438 C 268.5 83.226562 267.851562 82.949219 267 82.949219 C 266.148438 82.949219 265.476562 83.226562 264.976562 83.773438 C 264.523438 84.324219 264.300781 85.148438 264.300781 86.25 C 264.300781 87.398438 264.523438 88.273438 264.976562 88.875 C 265.476562 89.425781 266.148438 89.699219 267 89.699219 "/>
<path style=" stroke:none;fill-rule:nonzero;fill:rgb(0%,0%,100%);fill-opacity:1;" d="M 327.148438 146.625 L 329.851562 151.050781 C 330.050781 151.351562 330.300781 151.773438 330.601562 152.324219 C 330.898438 152.875 331.050781 153.148438 331.050781 153.148438 L 331.050781 146.625 L 332.175781 146.625 L 332.175781 155.023438 L 331.050781 155.023438 L 328.050781 150.148438 C 327.800781 149.75 327.574219 149.351562 327.375 148.949219 C 327.125 148.5 326.949219 148.199219 326.851562 148.050781 L 326.851562 155.023438 L 325.800781 155.023438 L 325.800781 146.625 L 327.148438 146.625 "/>
<path style=" stroke:none;fill-rule:nonzero;fill:rgb(100%,0%,0%);fill-opacity:1;" d="M 259.5 162.375 C 259.5 161.023438 259.824219 159.976562 260.476562 159.226562 C 261.175781 158.476562 262.148438 158.101562 263.398438 158.101562 C 264.648438 158.101562 265.601562 158.476562 266.25 159.226562 C 266.898438 159.976562 267.226562 161.023438 267.226562 162.375 C 267.226562 163.726562 266.898438 164.800781 266.25 165.601562 C 265.550781 166.351562 264.601562 166.726562 263.398438 166.726562 C 262.148438 166.726562 261.175781 166.351562 260.476562 165.601562 C 259.824219 164.851562 259.5 163.773438 259.5 162.375 M 263.398438 165.824219 C 264.25 165.824219 264.898438 165.523438 265.351562 164.925781 C 265.800781 164.375 266.023438 163.523438 266.023438 162.375 C 266.023438 161.273438 265.800781 160.449219 265.351562 159.898438 C 264.898438 159.300781 264.25 159 263.398438 159 C 262.550781 159 261.875 159.300781 261.375 159.898438 C 260.925781 160.449219 260.699219 161.273438 260.699219 162.375 C 260.699219 163.523438 260.925781 164.375 261.375 164.925781 C 261.875 165.523438 262.550781 165.824219 263.398438 165.824219 "/>
<path style=" stroke:none;fill-rule:nonzero;fill:rgb(100%,0%,0%);fill-opacity:1;" d="M 267.824219 158.175781 L 269.023438 158.175781 L 269.023438 161.773438 L 273.300781 161.773438 L 273.300781 158.175781 L 274.5 158.175781 L 274.5 166.648438 L 273.300781 166.648438 L 273.300781 162.75 L 269.023438 162.75 L 269.023438 166.648438 L 267.824219 166.648438 L 267.824219 158.175781 "/>
<path style=" stroke:none;fill-rule:nonzero;fill:rgb(100%,0%,0%);fill-opacity:1;" d="M 190.199219 321 C 190.199219 319.648438 190.523438 318.574219 191.175781 317.773438 C 191.824219 317.023438 192.773438 316.648438 194.023438 316.648438 C 195.273438 316.648438 196.25 317.023438 196.949219 317.773438 C 197.601562 318.574219 197.925781 319.648438 197.925781 321 C 197.925781 322.351562 197.601562 323.425781 196.949219 324.226562 C 196.25 324.976562 195.273438 325.351562 194.023438 325.351562 C 192.824219 325.351562 191.875 324.976562 191.175781 324.226562 C 190.523438 323.425781 190.199219 322.351562 190.199219 321 M 194.023438 324.375 C 194.925781 324.375 195.601562 324.101562 196.050781 323.550781 C 196.5 322.949219 196.726562 322.101562 196.726562 321 C 196.726562 319.898438 196.5 319.050781 196.050781 318.449219 C 195.601562 317.898438 194.925781 317.625 194.023438 317.625 C 193.175781 317.625 192.523438 317.898438 192.074219 318.449219 C 191.625 319 191.398438 319.851562 191.398438 321 C 191.398438 322.101562 191.625 322.949219 192.074219 323.550781 C 192.523438 324.101562 193.175781 324.375 194.023438 324.375 "/>
<path style=" stroke:none;fill-rule:nonzero;fill:rgb(100%,0%,0%);fill-opacity:1;" d="M 198.523438 316.800781 L 199.648438 316.800781 L 199.648438 320.398438 L 204 320.398438 L 204 316.800781 L 205.125 316.800781 L 205.125 325.199219 L 204 325.199219 L 204 321.300781 L 199.648438 321.300781 L 199.648438 325.199219 L 198.523438 325.199219 L 198.523438 316.800781 "/>
<path style=" stroke:none;fill-rule:nonzero;fill:rgb(100%,0%,0%);fill-opacity:1;" d="M 129.675781 292.648438 L 130.800781 292.648438 L 130.800781 296.25 L 135.148438 296.25 L 135.148438 292.648438 L 136.273438 292.648438 L 136.273438 301.125 L 135.148438 301.125 L 135.148438 297.148438 L 130.800781 297.148438 L 130.800781 301.125 L 129.675781 301.125 L 129.675781 292.648438 "/>
<path style=" stroke:none;fill-rule:nonzero;fill:rgb(100%,0%,0%);fill-opacity:1;" d="M 137.324219 296.851562 C 137.324219 295.5 137.648438 294.449219 138.300781 293.699219 C 138.949219 292.949219 139.898438 292.574219 141.148438 292.574219 C 142.398438 292.574219 143.375 292.949219 144.074219 293.699219 C 144.726562 294.449219 145.050781 295.5 145.050781 296.851562 C 145.050781 298.199219 144.726562 299.273438 144.074219 300.074219 C 143.375 300.824219 142.398438 301.199219 141.148438 301.199219 C 139.949219 301.199219 139 300.824219 138.300781 300.074219 C 137.648438 299.273438 137.324219 298.199219 137.324219 296.851562 M 141.148438 300.300781 C 142.050781 300.300781 142.726562 300 143.175781 299.398438 C 143.625 298.800781 143.851562 297.949219 143.851562 296.851562 C 143.851562 295.75 143.625 294.925781 143.175781 294.375 C 142.726562 293.773438 142.050781 293.476562 141.148438 293.476562 C 140.300781 293.476562 139.648438 293.75 139.199219 294.300781 C 138.75 294.898438 138.523438 295.75 138.523438 296.851562 C 138.523438 298 138.75 298.851562 139.199219 299.398438 C 139.648438 300 140.300781 300.300781 141.148438 300.300781 "/>
<path style=" stroke:none;fill-rule:nonzero;fill:rgb(100%,0%,0%);fill-opacity:1;" d="M 127.875 236.773438 C 127.875 235.425781 128.199219 234.375 128.851562 233.625 C 129.550781 232.875 130.523438 232.5 131.773438 232.5 C 133.023438 232.5 133.976562 232.875 134.625 233.625 C 135.273438 234.375 135.601562 235.425781 135.601562 236.773438 C 135.601562 238.175781 135.273438 239.25 134.625 240 C 133.925781 240.800781 132.976562 241.199219 131.773438 241.199219 C 130.523438 241.199219 129.550781 240.800781 128.851562 240 C 128.199219 239.25 127.875 238.175781 127.875 236.773438 M 131.773438 240.226562 C 132.625 240.226562 133.273438 239.949219 133.726562 239.398438 C 134.226562 238.800781 134.476562 237.925781 134.476562 236.773438 C 134.476562 235.675781 134.226562 234.851562 133.726562 234.300781 C 133.273438 233.75 132.625 233.476562 131.773438 233.476562 C 130.925781 233.476562 130.25 233.75 129.75 234.300781 C 129.300781 234.851562 129.074219 235.675781 129.074219 236.773438 C 129.074219 237.925781 129.300781 238.800781 129.75 239.398438 C 130.25 239.949219 130.925781 240.226562 131.773438 240.226562 "/>
<path style=" stroke:none;fill-rule:nonzero;fill:rgb(100%,0%,0%);fill-opacity:1;" d="M 97.574219 201.75 C 97.574219 200.398438 97.898438 199.324219 98.550781 198.523438 C 99.199219 197.773438 100.148438 197.398438 101.398438 197.398438 C 102.648438 197.398438 103.625 197.773438 104.324219 198.523438 C 104.976562 199.324219 105.300781 200.398438 105.300781 201.75 C 105.300781 203.101562 104.976562 204.175781 104.324219 204.976562 C 103.625 205.726562 102.648438 206.101562 101.398438 206.101562 C 100.199219 206.101562 99.25 205.726562 98.550781 204.976562 C 97.898438 204.175781 97.574219 203.101562 97.574219 201.75 M 101.398438 205.125 C 102.300781 205.125 102.976562 204.851562 103.425781 204.300781 C 103.875 203.699219 104.101562 202.851562 104.101562 201.75 C 104.101562 200.648438 103.875 199.800781 103.425781 199.199219 C 102.976562 198.648438 102.300781 198.375 101.398438 198.375 C 100.550781 198.375 99.898438 198.648438 99.449219 199.199219 C 99 199.75 98.773438 200.601562 98.773438 201.75 C 98.773438 202.851562 99 203.699219 99.449219 204.300781 C 99.898438 204.851562 100.550781 205.125 101.398438 205.125 "/>
</g>
</svg>
