<?xml version="1.0" encoding="UTF-8"?>
<svg xmlns="http://www.w3.org/2000/svg" xmlns:xlink="http://www.w3.org/1999/xlink" width="375pt" height="375pt" viewBox="0 0 375 375" version="1.1">
<g id="surface111">
<rect x="0" y="0" width="375" height="375" style="fill:rgb(100%,100%,100%);fill-opacity:1;stroke:none;"/>
<path style="fill:none;stroke-width:2;stroke-linecap:butt;stroke-linejoin:miter;stroke:rgb(0%,0%,0%);stroke-opacity:1;stroke-miterlimit:4;" d="M 90 349.598958 L 129.802083 322.197917 " transform="matrix(0.75,0,0,0.75,0,0)"/>
<path style="fill:none;stroke-width:2;stroke-linecap:butt;stroke-linejoin:miter;stroke:rgb(0%,0%,0%);stroke-opacity:1;stroke-miterlimit:4;" d="M 129.802083 322.197917 L 126 274 " transform="matrix(0.75,0,0,0.75,0,0)"/>
<path style="fill:none;stroke-width:2;stroke-linecap:butt;stroke-linejoin:miter;stroke:rgb(0%,0%,0%);stroke-opacity:1;stroke-miterlimit:4;" d="M 136.697917 317.401042 L 133.598958 277.598958 " transform="matrix(0.75,0,0,0.75,0,0)"/>
<path style="fill:none;stroke-width:2;stroke-linecap:butt;stroke-linejoin:miter;stroke:rgb(0%,0%,0%);stroke-opacity:1;stroke-miterlimit:4;" d="M 126 274 L 82.302083 253.197917 " transform="matrix(0.75,0,0,0.75,0,0)"/>
<path style="fill:none;stroke-width:2;stroke-linecap:butt;stroke-linejoin:miter;stroke:rgb(0%,0%,0%);stroke-opacity:1;stroke-miterlimit:4;" d="M 86.098958 255 L 84.5 234.197917 " transform="matrix(0.75,0,0,0.75,0,0)"/>
<path style="fill:none;stroke-width:2;stroke-linecap:butt;stroke-linejoin:miter;stroke:rgb(100%,0%,0%);stroke-opacity:1;stroke-miterlimit:4;" d="M 84.5 234.197917 L 82.802083 213.5 " transform="matrix(0.75,0,0,0.75,0,0)"/>
<path style="fill:none;stroke-width:2;stroke-linecap:butt;stroke-linejoin:miter;stroke:rgb(0%,0%,0%);stroke-opacity:1;stroke-miterlimit:4;" d="M 78.901042 255.598958 L 77.197917 234.802083 " transform="matrix(0.75,0,0,0.75,0,0)"/>
<path style="fill:none;stroke-width:2;stroke-linecap:butt;stroke-linejoin:miter;stroke:rgb(100%,0%,0%);stroke-opacity:1;stroke-miterlimit:4;" d="M 77.197917 234.802083 L 75.598958 214 " transform="matrix(0.75,0,0,0.75,0,0)"/>
<path style="fill:none;stroke-width:2;stroke-linecap:butt;stroke-linejoin:miter;stroke:rgb(0%,0%,0%);stroke-opacity:1;stroke-miterlimit:4;" d="M 82.302083 253.197917 L 66.401042 264.197917 " transform="matrix(0.75,0,0,0.75,0,0)"/>
<path style="fill:none;stroke-width:2;stroke-linecap:butt;stroke-linejoin:miter;stroke:rgb(100%,0%,0%);stroke-opacity:1;stroke-miterlimit:4;" d="M 66.401042 264.197917 L 50.401042 275.197917 " transform="matrix(0.75,0,0,0.75,0,0)"/>
<path style="fill:none;stroke-width:2;stroke-linecap:butt;stroke-linejoin:miter;stroke:rgb(0%,0%,0%);stroke-opacity:1;stroke-miterlimit:4;" d="M 126 274 L 142.5 262.598958 " transform="matrix(0.75,0,0,0.75,0,0)"/>
<path style="fill:none;stroke-width:2;stroke-linecap:butt;stroke-linejoin:miter;stroke:rgb(0%,0%,100%);stroke-opacity:1;stroke-miterlimit:4;" d="M 142.5 262.598958 L 159 251.197917 " transform="matrix(0.75,0,0,0.75,0,0)"/>
<path style="fill:none;stroke-width:2;stroke-linecap:butt;stroke-linejoin:miter;stroke:rgb(0%,0%,100%);stroke-opacity:1;stroke-miterlimit:4;" d="M 169.802083 238.098958 L 178.197917 220.5 " transform="matrix(0.75,0,0,0.75,0,0)"/>
<path style="fill:none;stroke-width:2;stroke-linecap:butt;stroke-linejoin:miter;stroke:rgb(0%,0%,0%);stroke-opacity:1;stroke-miterlimit:4;" d="M 178.197917 220.5 L 186.598958 202.901042 " transform="matrix(0.75,0,0,0.75,0,0)"/>
<path style="fill:none;stroke-width:2;stroke-linecap:butt;stroke-linejoin:miter;stroke:rgb(0%,0%,0%);stroke-opacity:1;stroke-miterlimit:4;" d="M 191.197917 205.098958 L 184.098958 185 " transform="matrix(0.75,0,0,0.75,0,0)"/>
<path style="fill:none;stroke-width:2;stroke-linecap:butt;stroke-linejoin:miter;stroke:rgb(100%,0%,0%);stroke-opacity:1;stroke-miterlimit:4;" d="M 184.098958 185 L 176.901042 164.901042 " transform="matrix(0.75,0,0,0.75,0,0)"/>
<path style="fill:none;stroke-width:2;stroke-linecap:butt;stroke-linejoin:miter;stroke:rgb(0%,0%,0%);stroke-opacity:1;stroke-miterlimit:4;" d="M 184.401042 207.5 L 177.197917 187.401042 " transform="matrix(0.75,0,0,0.75,0,0)"/>
<path style="fill:none;stroke-width:2;stroke-linecap:butt;stroke-linejoin:miter;stroke:rgb(100%,0%,0%);stroke-opacity:1;stroke-miterlimit:4;" d="M 177.197917 187.401042 L 170.098958 167.302083 " transform="matrix(0.75,0,0,0.75,0,0)"/>
<path style="fill:none;stroke-width:2;stroke-linecap:butt;stroke-linejoin:miter;stroke:rgb(0%,0%,0%);stroke-opacity:1;stroke-miterlimit:4;" d="M 186.598958 202.901042 L 230.197917 223.697917 " transform="matrix(0.75,0,0,0.75,0,0)"/>
<path style="fill-rule:evenodd;fill:rgb(0%,0%,0%);fill-opacity:1;stroke-width:0.5;stroke-linecap:butt;stroke-linejoin:miter;stroke:rgb(0%,0%,0%);stroke-opacity:1;stroke-miterlimit:4;" d="M 230.197917 223.697917 L 248.197917 215.302083 L 249.401042 218.802083 Z M 230.197917 223.697917 " transform="matrix(0.75,0,0,0.75,0,0)"/>
<path style="fill-rule:evenodd;fill:rgb(0%,0%,100%);fill-opacity:1;stroke-width:0.5;stroke-linecap:butt;stroke-linejoin:miter;stroke:rgb(0%,0%,100%);stroke-opacity:1;stroke-miterlimit:4;" d="M 248.197917 215.302083 L 268.598958 213.901042 L 266.197917 207 Z M 248.197917 215.302083 " transform="matrix(0.75,0,0,0.75,0,0)"/>
<path style="fill-rule:evenodd;fill:rgb(0%,0%,100%);fill-opacity:1;stroke-width:0.5;stroke-linecap:butt;stroke-linejoin:miter;stroke:rgb(0%,0%,100%);stroke-opacity:1;stroke-miterlimit:4;" d="M 248.197917 215.302083 L 249.401042 218.802083 L 268.598958 213.901042 Z M 248.197917 215.302083 " transform="matrix(0.75,0,0,0.75,0,0)"/>
<path style="fill:none;stroke-width:2;stroke-linecap:butt;stroke-linejoin:miter;stroke:rgb(0%,0%,100%);stroke-opacity:1;stroke-miterlimit:4;" d="M 282.598958 213.302083 L 297.598958 226 " transform="matrix(0.75,0,0,0.75,0,0)"/>
<path style="fill:none;stroke-width:2;stroke-linecap:butt;stroke-linejoin:miter;stroke:rgb(0%,0%,0%);stroke-opacity:1;stroke-miterlimit:4;" d="M 297.598958 226 L 312.598958 238.802083 " transform="matrix(0.75,0,0,0.75,0,0)"/>
<path style="fill:none;stroke-width:2;stroke-linecap:butt;stroke-linejoin:miter;stroke:rgb(0%,0%,0%);stroke-opacity:1;stroke-miterlimit:4;" d="M 309.401042 236.098958 L 305.598958 256.697917 " transform="matrix(0.75,0,0,0.75,0,0)"/>
<path style="fill:none;stroke-width:2;stroke-linecap:butt;stroke-linejoin:miter;stroke:rgb(100%,0%,0%);stroke-opacity:1;stroke-miterlimit:4;" d="M 305.598958 256.697917 L 301.802083 277.197917 " transform="matrix(0.75,0,0,0.75,0,0)"/>
<path style="fill:none;stroke-width:2;stroke-linecap:butt;stroke-linejoin:miter;stroke:rgb(0%,0%,0%);stroke-opacity:1;stroke-miterlimit:4;" d="M 316.5 237.401042 L 312.697917 258 " transform="matrix(0.75,0,0,0.75,0,0)"/>
<path style="fill:none;stroke-width:2;stroke-linecap:butt;stroke-linejoin:miter;stroke:rgb(100%,0%,0%);stroke-opacity:1;stroke-miterlimit:4;" d="M 312.697917 258 L 309 278.5 " transform="matrix(0.75,0,0,0.75,0,0)"/>
<path style="fill:none;stroke-width:2;stroke-linecap:butt;stroke-linejoin:miter;stroke:rgb(0%,0%,0%);stroke-opacity:1;stroke-miterlimit:4;" d="M 312.598958 238.802083 L 358.098958 222.598958 " transform="matrix(0.75,0,0,0.75,0,0)"/>
<path style="fill:none;stroke-width:1;stroke-linecap:butt;stroke-linejoin:miter;stroke:rgb(0%,0%,0%);stroke-opacity:1;stroke-miterlimit:4;" d="M 358.401042 219.197917 L 359.098958 219.302083 " transform="matrix(0.75,0,0,0.75,0,0)"/>
<path style="fill:none;stroke-width:1;stroke-linecap:butt;stroke-linejoin:miter;stroke:rgb(0%,0%,0%);stroke-opacity:1;stroke-miterlimit:4;" d="M 358.697917 215.697917 L 360 215.901042 " transform="matrix(0.75,0,0,0.75,0,0)"/>
<path style="fill:none;stroke-width:1;stroke-linecap:butt;stroke-linejoin:miter;stroke:rgb(0%,0%,0%);stroke-opacity:1;stroke-miterlimit:4;" d="M 359 212.197917 L 361 212.598958 " transform="matrix(0.75,0,0,0.75,0,0)"/>
<path style="fill:none;stroke-width:1;stroke-linecap:butt;stroke-linejoin:miter;stroke:rgb(0%,0%,0%);stroke-opacity:1;stroke-miterlimit:4;" d="M 359.302083 208.802083 L 361.901042 209.197917 " transform="matrix(0.75,0,0,0.75,0,0)"/>
<path style="fill:none;stroke-width:1;stroke-linecap:butt;stroke-linejoin:miter;stroke:rgb(0%,0%,0%);stroke-opacity:1;stroke-miterlimit:4;" d="M 359.697917 205.302083 L 362.901042 205.901042 " transform="matrix(0.75,0,0,0.75,0,0)"/>
<path style="fill:none;stroke-width:1;stroke-linecap:butt;stroke-linejoin:miter;stroke:rgb(0%,0%,100%);stroke-opacity:1;stroke-miterlimit:4;" d="M 360 201.802083 L 363.802083 202.5 " transform="matrix(0.75,0,0,0.75,0,0)"/>
<path style="fill:none;stroke-width:1;stroke-linecap:butt;stroke-linejoin:miter;stroke:rgb(0%,0%,100%);stroke-opacity:1;stroke-miterlimit:4;" d="M 360.302083 198.401042 L 364.802083 199.197917 " transform="matrix(0.75,0,0,0.75,0,0)"/>
<path style="fill:none;stroke-width:1;stroke-linecap:butt;stroke-linejoin:miter;stroke:rgb(0%,0%,100%);stroke-opacity:1;stroke-miterlimit:4;" d="M 360.598958 194.901042 L 365.802083 195.802083 " transform="matrix(0.75,0,0,0.75,0,0)"/>
<path style="fill:none;stroke-width:1;stroke-linecap:butt;stroke-linejoin:miter;stroke:rgb(0%,0%,100%);stroke-opacity:1;stroke-miterlimit:4;" d="M 360.901042 191.401042 L 366.697917 192.5 " transform="matrix(0.75,0,0,0.75,0,0)"/>
<path style="fill:none;stroke-width:1;stroke-linecap:butt;stroke-linejoin:miter;stroke:rgb(0%,0%,100%);stroke-opacity:1;stroke-miterlimit:4;" d="M 361.197917 188 L 367.697917 189.098958 " transform="matrix(0.75,0,0,0.75,0,0)"/>
<path style="fill:none;stroke-width:1;stroke-linecap:butt;stroke-linejoin:miter;stroke:rgb(0%,0%,100%);stroke-opacity:1;stroke-miterlimit:4;" d="M 361.5 184.5 L 368.598958 185.802083 " transform="matrix(0.75,0,0,0.75,0,0)"/>
<path style="fill:none;stroke-width:2;stroke-linecap:butt;stroke-linejoin:miter;stroke:rgb(0%,0%,0%);stroke-opacity:1;stroke-miterlimit:4;" d="M 358.098958 222.598958 L 394.901042 254 " transform="matrix(0.75,0,0,0.75,0,0)"/>
<path style="fill:none;stroke-width:2;stroke-linecap:butt;stroke-linejoin:miter;stroke:rgb(0%,0%,0%);stroke-opacity:1;stroke-miterlimit:4;" d="M 394.901042 254 L 386.197917 301.5 " transform="matrix(0.75,0,0,0.75,0,0)"/>
<path style="fill:none;stroke-width:2;stroke-linecap:butt;stroke-linejoin:miter;stroke:rgb(0%,0%,0%);stroke-opacity:1;stroke-miterlimit:4;" d="M 401.302083 259.401042 L 394.098958 298.697917 " transform="matrix(0.75,0,0,0.75,0,0)"/>
<path style="fill:none;stroke-width:2;stroke-linecap:butt;stroke-linejoin:miter;stroke:rgb(0%,0%,0%);stroke-opacity:1;stroke-miterlimit:4;" d="M 386.197917 301.5 L 423 332.901042 " transform="matrix(0.75,0,0,0.75,0,0)"/>
<path style="fill:none;stroke-width:2;stroke-linecap:butt;stroke-linejoin:miter;stroke:rgb(0%,0%,0%);stroke-opacity:1;stroke-miterlimit:4;" d="M 423 332.901042 L 468.5 316.697917 " transform="matrix(0.75,0,0,0.75,0,0)"/>
<path style="fill:none;stroke-width:2;stroke-linecap:butt;stroke-linejoin:miter;stroke:rgb(0%,0%,0%);stroke-opacity:1;stroke-miterlimit:4;" d="M 424.5 324.697917 L 462.098958 311.302083 " transform="matrix(0.75,0,0,0.75,0,0)"/>
<path style="fill:none;stroke-width:2;stroke-linecap:butt;stroke-linejoin:miter;stroke:rgb(0%,0%,0%);stroke-opacity:1;stroke-miterlimit:4;" d="M 468.5 316.697917 L 477.302083 269.197917 " transform="matrix(0.75,0,0,0.75,0,0)"/>
<path style="fill:none;stroke-width:2;stroke-linecap:butt;stroke-linejoin:miter;stroke:rgb(0%,0%,0%);stroke-opacity:1;stroke-miterlimit:4;" d="M 477.302083 269.197917 L 440.5 237.802083 " transform="matrix(0.75,0,0,0.75,0,0)"/>
<path style="fill:none;stroke-width:2;stroke-linecap:butt;stroke-linejoin:miter;stroke:rgb(0%,0%,0%);stroke-opacity:1;stroke-miterlimit:4;" d="M 469.401042 272 L 439 246.098958 " transform="matrix(0.75,0,0,0.75,0,0)"/>
<path style="fill:none;stroke-width:2;stroke-linecap:butt;stroke-linejoin:miter;stroke:rgb(0%,0%,0%);stroke-opacity:1;stroke-miterlimit:4;" d="M 230.197917 223.697917 L 209.5 267.302083 " transform="matrix(0.75,0,0,0.75,0,0)"/>
<path style="fill:none;stroke-width:2;stroke-linecap:butt;stroke-linejoin:miter;stroke:rgb(0%,0%,0%);stroke-opacity:1;stroke-miterlimit:4;" d="M 209.5 267.302083 L 211.098958 287.197917 " transform="matrix(0.75,0,0,0.75,0,0)"/>
<path style="fill:none;stroke-width:2;stroke-linecap:butt;stroke-linejoin:miter;stroke:rgb(80%,80%,0%);stroke-opacity:1;stroke-miterlimit:4;" d="M 211.098958 287.197917 L 212.598958 307.098958 " transform="matrix(0.75,0,0,0.75,0,0)"/>
<path style="fill:none;stroke-width:2;stroke-linecap:butt;stroke-linejoin:miter;stroke:rgb(80%,80%,0%);stroke-opacity:1;stroke-miterlimit:4;" d="M 207.302083 319.598958 L 190.401042 331.302083 " transform="matrix(0.75,0,0,0.75,0,0)"/>
<path style="fill:none;stroke-width:2;stroke-linecap:butt;stroke-linejoin:miter;stroke:rgb(0%,0%,0%);stroke-opacity:1;stroke-miterlimit:4;" d="M 190.401042 331.302083 L 173.5 342.901042 " transform="matrix(0.75,0,0,0.75,0,0)"/>
<path style="fill:none;stroke-width:2;stroke-linecap:butt;stroke-linejoin:miter;stroke:rgb(0%,0%,0%);stroke-opacity:1;stroke-miterlimit:4;" d="M 173.5 342.901042 L 129.802083 322.197917 " transform="matrix(0.75,0,0,0.75,0,0)"/>
<path style="fill:none;stroke-width:2;stroke-linecap:butt;stroke-linejoin:miter;stroke:rgb(0%,0%,0%);stroke-opacity:1;stroke-miterlimit:4;" d="M 209.5 267.302083 L 191 258.5 " transform="matrix(0.75,0,0,0.75,0,0)"/>
<path style="fill:none;stroke-width:2;stroke-linecap:butt;stroke-linejoin:miter;stroke:rgb(0%,0%,100%);stroke-opacity:1;stroke-miterlimit:4;" d="M 191 258.5 L 172.598958 249.802083 " transform="matrix(0.75,0,0,0.75,0,0)"/>
<path style="fill:none;stroke-width:2;stroke-linecap:butt;stroke-linejoin:miter;stroke:rgb(0%,0%,0%);stroke-opacity:1;stroke-miterlimit:4;" d="M 440.5 237.802083 L 394.901042 254 " transform="matrix(0.75,0,0,0.75,0,0)"/>
<path style="fill:none;stroke-width:1;stroke-linecap:butt;stroke-linejoin:miter;stroke:rgb(0%,0%,0%);stroke-opacity:1;stroke-miterlimit:4;" d="M 213.098958 267.598958 L 213 268.302083 " transform="matrix(0.75,0,0,0.75,0,0)"/>
<path style="fill:none;stroke-width:1;stroke-linecap:butt;stroke-linejoin:miter;stroke:rgb(0%,0%,0%);stroke-opacity:1;stroke-miterlimit:4;" d="M 216.697917 268 L 216.401042 269.302083 " transform="matrix(0.75,0,0,0.75,0,0)"/>
<path style="fill:none;stroke-width:1;stroke-linecap:butt;stroke-linejoin:miter;stroke:rgb(0%,0%,0%);stroke-opacity:1;stroke-miterlimit:4;" d="M 220.302083 268.302083 L 219.901042 270.197917 " transform="matrix(0.75,0,0,0.75,0,0)"/>
<path style="fill:none;stroke-width:1;stroke-linecap:butt;stroke-linejoin:miter;stroke:rgb(0%,0%,0%);stroke-opacity:1;stroke-miterlimit:4;" d="M 223.901042 268.598958 L 223.401042 271.197917 " transform="matrix(0.75,0,0,0.75,0,0)"/>
<path style="fill:none;stroke-width:1;stroke-linecap:butt;stroke-linejoin:miter;stroke:rgb(0%,0%,0%);stroke-opacity:1;stroke-miterlimit:4;" d="M 227.5 269 L 226.901042 272.197917 " transform="matrix(0.75,0,0,0.75,0,0)"/>
<path style="fill:none;stroke-width:1;stroke-linecap:butt;stroke-linejoin:miter;stroke:rgb(0%,0%,0%);stroke-opacity:1;stroke-miterlimit:4;" d="M 231.098958 269.302083 L 230.401042 273.197917 " transform="matrix(0.75,0,0,0.75,0,0)"/>
<path style="fill:none;stroke-width:1;stroke-linecap:butt;stroke-linejoin:miter;stroke:rgb(0%,0%,0%);stroke-opacity:1;stroke-miterlimit:4;" d="M 234.697917 269.598958 L 233.901042 274.197917 " transform="matrix(0.75,0,0,0.75,0,0)"/>
<path style="fill:none;stroke-width:1;stroke-linecap:butt;stroke-linejoin:miter;stroke:rgb(0%,0%,0%);stroke-opacity:1;stroke-miterlimit:4;" d="M 238.302083 269.901042 L 237.302083 275.098958 " transform="matrix(0.75,0,0,0.75,0,0)"/>
<path style="fill:none;stroke-width:1;stroke-linecap:butt;stroke-linejoin:miter;stroke:rgb(0%,0%,0%);stroke-opacity:1;stroke-miterlimit:4;" d="M 241.901042 270.302083 L 240.802083 276.098958 " transform="matrix(0.75,0,0,0.75,0,0)"/>
<path style="fill:none;stroke-width:1;stroke-linecap:butt;stroke-linejoin:miter;stroke:rgb(0%,0%,0%);stroke-opacity:1;stroke-miterlimit:4;" d="M 245.5 270.598958 L 244.302083 277.098958 " transform="matrix(0.75,0,0,0.75,0,0)"/>
<path style="fill:none;stroke-width:1;stroke-linecap:butt;stroke-linejoin:miter;stroke:rgb(0%,0%,0%);stroke-opacity:1;stroke-miterlimit:4;" d="M 249.098958 270.901042 L 247.802083 278.098958 " transform="matrix(0.75,0,0,0.75,0,0)"/>
<path style="fill:none;stroke-width:2;stroke-linecap:butt;stroke-linejoin:miter;stroke:rgb(0%,0%,0%);stroke-opacity:1;stroke-miterlimit:4;" d="M 84.5 254.197917 L 82.302083 253.197917 L 81.5 253.802083 " transform="matrix(0.75,0,0,0.75,0,0)"/>
<path style="fill:none;stroke-width:2;stroke-linecap:butt;stroke-linejoin:miter;stroke:rgb(0%,0%,0%);stroke-opacity:1;stroke-miterlimit:4;" d="M 186.197917 203.802083 L 186.598958 202.901042 L 188.802083 203.901042 " transform="matrix(0.75,0,0,0.75,0,0)"/>
<path style="fill:none;stroke-width:2;stroke-linecap:butt;stroke-linejoin:miter;stroke:rgb(0%,0%,0%);stroke-opacity:1;stroke-miterlimit:4;" d="M 228.098958 222.598958 L 230.197917 223.697917 L 229.197917 225.802083 " transform="matrix(0.75,0,0,0.75,0,0)"/>
<path style="fill:none;stroke-width:2;stroke-linecap:butt;stroke-linejoin:miter;stroke:rgb(0%,0%,0%);stroke-opacity:1;stroke-miterlimit:4;" d="M 311.802083 238.197917 L 312.598958 238.802083 L 314.901042 238 " transform="matrix(0.75,0,0,0.75,0,0)"/>
<path style="fill:none;stroke-width:2;stroke-linecap:butt;stroke-linejoin:miter;stroke:rgb(0%,0%,0%);stroke-opacity:1;stroke-miterlimit:4;" d="M 355.901042 223.5 L 358.098958 222.598958 L 360 224.197917 " transform="matrix(0.75,0,0,0.75,0,0)"/>
<path style="fill:none;stroke-width:2;stroke-linecap:butt;stroke-linejoin:miter;stroke:rgb(0%,0%,0%);stroke-opacity:1;stroke-miterlimit:4;" d="M 386.598958 299.197917 L 386.197917 301.5 L 388 303.098958 " transform="matrix(0.75,0,0,0.75,0,0)"/>
<path style="fill:none;stroke-width:2;stroke-linecap:butt;stroke-linejoin:miter;stroke:rgb(0%,0%,0%);stroke-opacity:1;stroke-miterlimit:4;" d="M 421.098958 331.302083 L 423 332.901042 L 425.197917 332.098958 " transform="matrix(0.75,0,0,0.75,0,0)"/>
<path style="fill:none;stroke-width:2;stroke-linecap:butt;stroke-linejoin:miter;stroke:rgb(0%,0%,0%);stroke-opacity:1;stroke-miterlimit:4;" d="M 466.197917 317.5 L 468.5 316.697917 L 469 314.302083 " transform="matrix(0.75,0,0,0.75,0,0)"/>
<path style="fill:none;stroke-width:2;stroke-linecap:butt;stroke-linejoin:miter;stroke:rgb(0%,0%,0%);stroke-opacity:1;stroke-miterlimit:4;" d="M 476.802083 271.598958 L 477.302083 269.197917 L 475.401042 267.598958 " transform="matrix(0.75,0,0,0.75,0,0)"/>
<path style="fill:none;stroke-width:2;stroke-linecap:butt;stroke-linejoin:miter;stroke:rgb(0%,0%,0%);stroke-opacity:1;stroke-miterlimit:4;" d="M 442.302083 239.401042 L 440.5 237.802083 L 438.197917 238.598958 " transform="matrix(0.75,0,0,0.75,0,0)"/>
<path style="fill:none;stroke-width:2;stroke-linecap:butt;stroke-linejoin:miter;stroke:rgb(0%,0%,0%);stroke-opacity:1;stroke-miterlimit:4;" d="M 174.302083 342.302083 L 173.5 342.901042 L 171.302083 341.901042 " transform="matrix(0.75,0,0,0.75,0,0)"/>
<path style=" stroke:none;fill-rule:nonzero;fill:rgb(100%,0%,0%);fill-opacity:1;" d="M 54.148438 153.824219 C 54.148438 152.175781 54.550781 150.875 55.351562 149.925781 C 56.199219 149.023438 57.375 148.574219 58.875 148.574219 C 60.375 148.574219 61.550781 149.023438 62.398438 149.925781 C 63.199219 150.875 63.601562 152.175781 63.601562 153.824219 C 63.601562 155.476562 63.175781 156.773438 62.324219 157.726562 C 61.523438 158.625 60.375 159.074219 58.875 159.074219 C 57.375 159.074219 56.199219 158.625 55.351562 157.726562 C 54.550781 156.773438 54.148438 155.476562 54.148438 153.824219 M 58.875 157.949219 C 59.925781 157.949219 60.726562 157.601562 61.273438 156.898438 C 61.875 156.199219 62.175781 155.175781 62.175781 153.824219 C 62.175781 152.476562 61.875 151.449219 61.273438 150.75 C 60.726562 150.050781 59.925781 149.699219 58.875 149.699219 C 57.824219 149.699219 57.023438 150.050781 56.476562 150.75 C 55.925781 151.398438 55.648438 152.425781 55.648438 153.824219 C 55.648438 155.175781 55.925781 156.199219 56.476562 156.898438 C 57.023438 157.601562 57.824219 157.949219 58.875 157.949219 "/>
<path style=" stroke:none;fill-rule:nonzero;fill:rgb(100%,0%,0%);fill-opacity:1;" d="M 17.023438 205.425781 L 18.449219 205.425781 L 18.449219 209.773438 L 23.699219 209.773438 L 23.699219 205.425781 L 25.050781 205.425781 L 25.050781 215.699219 L 23.699219 215.699219 L 23.699219 210.898438 L 18.449219 210.898438 L 18.449219 215.699219 L 17.023438 215.699219 L 17.023438 205.425781 "/>
<path style=" stroke:none;fill-rule:nonzero;fill:rgb(100%,0%,0%);fill-opacity:1;" d="M 27.148438 210.523438 C 27.148438 208.875 27.574219 207.574219 28.425781 206.625 C 29.226562 205.726562 30.375 205.273438 31.875 205.273438 C 33.425781 205.273438 34.601562 205.726562 35.398438 206.625 C 36.199219 207.574219 36.601562 208.875 36.601562 210.523438 C 36.601562 212.175781 36.199219 213.476562 35.398438 214.425781 C 34.550781 215.375 33.375 215.851562 31.875 215.851562 C 30.375 215.851562 29.226562 215.375 28.425781 214.425781 C 27.574219 213.476562 27.148438 212.175781 27.148438 210.523438 M 31.875 214.648438 C 32.925781 214.648438 33.726562 214.300781 34.273438 213.601562 C 34.875 212.898438 35.175781 211.875 35.175781 210.523438 C 35.175781 209.175781 34.875 208.148438 34.273438 207.449219 C 33.726562 206.800781 32.925781 206.476562 31.875 206.476562 C 30.824219 206.476562 30.023438 206.800781 29.476562 207.449219 C 28.925781 208.148438 28.648438 209.175781 28.648438 210.523438 C 28.648438 211.875 28.925781 212.898438 29.476562 213.601562 C 30.023438 214.300781 30.824219 214.648438 31.875 214.648438 "/>
<path style=" stroke:none;fill-rule:nonzero;fill:rgb(0%,0%,100%);fill-opacity:1;" d="M 122.101562 179.773438 L 125.476562 185.25 C 125.675781 185.601562 125.949219 186.101562 126.300781 186.75 C 126.648438 187.398438 126.851562 187.726562 126.898438 187.726562 L 126.898438 179.773438 L 128.25 179.773438 L 128.25 190.050781 L 126.824219 190.050781 L 123.226562 184.125 C 122.976562 183.625 122.699219 183.125 122.398438 182.625 C 122.101562 182.074219 121.898438 181.726562 121.800781 181.574219 L 121.800781 190.050781 L 120.449219 190.050781 L 120.449219 179.773438 L 122.101562 179.773438 "/>
<path style=" stroke:none;fill-rule:nonzero;fill:rgb(100%,0%,0%);fill-opacity:1;" d="M 123.074219 118.050781 C 123.074219 116.398438 123.476562 115.125 124.273438 114.226562 C 125.125 113.273438 126.300781 112.800781 127.800781 112.800781 C 129.300781 112.800781 130.476562 113.273438 131.324219 114.226562 C 132.125 115.125 132.523438 116.398438 132.523438 118.050781 C 132.523438 119.699219 132.101562 121 131.25 121.949219 C 130.449219 122.898438 129.300781 123.375 127.800781 123.375 C 126.300781 123.375 125.125 122.898438 124.273438 121.949219 C 123.476562 121 123.074219 119.699219 123.074219 118.050781 M 127.800781 122.175781 C 128.851562 122.175781 129.648438 121.824219 130.199219 121.125 C 130.75 120.425781 131.023438 119.398438 131.023438 118.050781 C 131.023438 116.699219 130.75 115.675781 130.199219 114.976562 C 129.648438 114.324219 128.851562 114 127.800781 114 C 126.75 114 125.949219 114.324219 125.398438 114.976562 C 124.800781 115.675781 124.5 116.699219 124.5 118.050781 C 124.5 119.398438 124.800781 120.425781 125.398438 121.125 C 125.949219 121.824219 126.75 122.175781 127.800781 122.175781 "/>
<path style=" stroke:none;fill-rule:nonzero;fill:rgb(0%,0%,100%);fill-opacity:1;" d="M 204.601562 150.449219 L 207.898438 155.925781 C 208.148438 156.273438 208.449219 156.773438 208.800781 157.425781 C 209.148438 158.074219 209.351562 158.425781 209.398438 158.476562 L 209.398438 150.449219 L 210.75 150.449219 L 210.75 160.726562 L 209.324219 160.726562 L 205.726562 154.800781 C 205.425781 154.351562 205.125 153.851562 204.824219 153.300781 C 204.523438 152.75 204.351562 152.398438 204.300781 152.25 L 204.300781 160.726562 L 202.949219 160.726562 L 202.949219 150.449219 L 204.601562 150.449219 "/>
<path style=" stroke:none;fill-rule:nonzero;fill:rgb(0%,0%,100%);fill-opacity:1;" d="M 202.800781 139.199219 L 204.226562 139.199219 L 204.226562 143.550781 L 209.476562 143.550781 L 209.476562 139.199219 L 210.824219 139.199219 L 210.824219 149.476562 L 209.476562 149.476562 L 209.476562 144.675781 L 204.226562 144.675781 L 204.226562 149.476562 L 202.800781 149.476562 L 202.800781 139.199219 "/>
<path style=" stroke:none;fill-rule:nonzero;fill:rgb(100%,0%,0%);fill-opacity:1;" d="M 223.125 214.800781 C 223.125 213.148438 223.550781 211.875 224.398438 210.976562 C 225.199219 210.074219 226.351562 209.625 227.851562 209.625 C 229.398438 209.625 230.574219 210.074219 231.375 210.976562 C 232.175781 211.875 232.574219 213.148438 232.574219 214.800781 C 232.574219 216.449219 232.175781 217.75 231.375 218.699219 C 230.523438 219.648438 229.351562 220.125 227.851562 220.125 C 226.351562 220.125 225.199219 219.648438 224.398438 218.699219 C 223.550781 217.800781 223.125 216.5 223.125 214.800781 M 227.851562 219 C 228.898438 219 229.699219 218.648438 230.25 217.949219 C 230.851562 217.25 231.148438 216.199219 231.148438 214.800781 C 231.148438 213.449219 230.851562 212.449219 230.25 211.800781 C 229.699219 211.101562 228.898438 210.75 227.851562 210.75 C 226.800781 210.75 226 211.101562 225.449219 211.800781 C 224.898438 212.449219 224.625 213.449219 224.625 214.800781 C 224.625 216.199219 224.898438 217.25 225.449219 217.949219 C 226 218.648438 226.800781 219 227.851562 219 "/>
<path style=" stroke:none;fill-rule:nonzero;fill:rgb(0%,0%,100%);fill-opacity:1;" d="M 272.925781 126.226562 L 276.300781 131.625 C 276.5 131.976562 276.773438 132.476562 277.125 133.125 C 277.476562 133.773438 277.675781 134.125 277.726562 134.175781 L 277.726562 126.226562 L 279.074219 126.226562 L 279.074219 136.425781 L 277.648438 136.425781 L 274.050781 130.5 C 273.75 130.050781 273.449219 129.550781 273.148438 129 C 272.898438 128.5 272.726562 128.148438 272.625 127.949219 L 272.625 136.425781 L 271.273438 136.425781 L 271.273438 126.226562 L 272.925781 126.226562 "/>
<path style=" stroke:none;fill-rule:nonzero;fill:rgb(0%,0%,100%);fill-opacity:1;" d="M 281.023438 126.226562 L 282.449219 126.226562 L 282.449219 130.574219 L 287.699219 130.574219 L 287.699219 126.226562 L 289.050781 126.226562 L 289.050781 136.425781 L 287.699219 136.425781 L 287.699219 131.699219 L 282.449219 131.699219 L 282.449219 136.425781 L 281.023438 136.425781 L 281.023438 126.226562 "/>
<path style=" stroke:none;fill-rule:nonzero;fill:rgb(0%,0%,100%);fill-opacity:1;" d="M 291.074219 136.125 C 291.226562 135.675781 291.5 135.324219 291.898438 135.074219 C 292.300781 134.875 292.773438 134.773438 293.324219 134.773438 C 294.023438 134.773438 294.550781 134.949219 294.898438 135.300781 C 295.300781 135.648438 295.5 136.175781 295.5 136.875 C 295.5 137.523438 295.25 138.148438 294.75 138.75 C 294.25 139.398438 293.5 140.101562 292.5 140.851562 L 295.648438 140.851562 L 295.648438 141.601562 L 291.074219 141.601562 L 291.074219 140.925781 C 291.925781 140.324219 292.574219 139.800781 293.023438 139.351562 C 293.574219 138.949219 293.949219 138.523438 294.148438 138.074219 C 294.398438 137.675781 294.523438 137.273438 294.523438 136.875 C 294.523438 136.425781 294.425781 136.101562 294.226562 135.898438 C 294.023438 135.648438 293.726562 135.523438 293.324219 135.523438 C 292.976562 135.523438 292.675781 135.601562 292.425781 135.75 C 292.175781 135.898438 291.976562 136.125 291.824219 136.425781 L 291.074219 136.125 "/>
<path style=" stroke:none;fill-rule:nonzero;fill:rgb(80%,80%,0%);fill-opacity:1;" d="M 157.050781 240.148438 C 157.148438 240.199219 157.351562 240.273438 157.648438 240.375 C 158 240.523438 158.351562 240.648438 158.699219 240.75 C 159.050781 240.800781 159.398438 240.824219 159.75 240.824219 C 160.398438 240.824219 160.898438 240.675781 161.25 240.375 C 161.648438 240.074219 161.851562 239.648438 161.851562 239.101562 C 161.851562 238.699219 161.75 238.398438 161.550781 238.199219 C 161.351562 237.949219 161.125 237.75 160.875 237.601562 C 160.574219 237.5 160.175781 237.375 159.675781 237.226562 C 159.074219 237.023438 158.601562 236.851562 158.25 236.699219 C 157.851562 236.5 157.523438 236.226562 157.273438 235.875 C 157.023438 235.523438 156.898438 235.023438 156.898438 234.375 C 156.898438 233.523438 157.199219 232.824219 157.800781 232.273438 C 158.398438 231.773438 159.273438 231.523438 160.425781 231.523438 C 161.226562 231.523438 162.074219 231.699219 162.976562 232.050781 L 162.601562 233.175781 C 161.800781 232.824219 161.074219 232.648438 160.425781 232.648438 C 159.773438 232.648438 159.273438 232.800781 158.925781 233.101562 C 158.523438 233.351562 158.324219 233.726562 158.324219 234.226562 C 158.324219 234.574219 158.425781 234.875 158.625 235.125 C 158.824219 235.324219 159.050781 235.5 159.300781 235.648438 C 159.601562 235.75 159.976562 235.875 160.425781 236.023438 C 161.074219 236.226562 161.574219 236.425781 161.925781 236.625 C 162.273438 236.824219 162.601562 237.125 162.898438 237.523438 C 163.148438 237.875 163.273438 238.398438 163.273438 239.101562 C 163.273438 240.050781 162.949219 240.773438 162.300781 241.273438 C 161.699219 241.773438 160.875 242.023438 159.824219 242.023438 C 159.175781 242.023438 158.625 241.949219 158.175781 241.800781 C 157.726562 241.699219 157.226562 241.523438 156.675781 241.273438 L 157.050781 240.148438 "/>
<path style=" stroke:none;fill-rule:nonzero;fill:rgb(0%,0%,0%);fill-opacity:1;" d="M 188.773438 201.898438 L 190.125 201.898438 L 190.125 206.25 L 195.375 206.25 L 195.375 201.898438 L 196.800781 201.898438 L 196.800781 212.175781 L 195.375 212.175781 L 195.375 207.449219 L 190.125 207.449219 L 190.125 212.175781 L 188.773438 212.175781 L 188.773438 201.898438 "/>
</g>
</svg>
