<?xml version="1.0" encoding="UTF-8"?>
<svg xmlns="http://www.w3.org/2000/svg" xmlns:xlink="http://www.w3.org/1999/xlink" width="375pt" height="375pt" viewBox="0 0 375 375" version="1.1">
<g id="surface86">
<rect x="0" y="0" width="375" height="375" style="fill:rgb(100%,100%,100%);fill-opacity:1;stroke:none;"/>
<path style="fill:none;stroke-width:2;stroke-linecap:butt;stroke-linejoin:miter;stroke:rgb(0%,0%,0%);stroke-opacity:1;stroke-miterlimit:4;" d="M 125.697917 336 L 132.802083 286.098958 " transform="matrix(0.75,0,0,0.75,0,0)"/>
<path style="fill:none;stroke-width:2;stroke-linecap:butt;stroke-linejoin:miter;stroke:rgb(0%,0%,0%);stroke-opacity:1;stroke-miterlimit:4;" d="M 132.802083 286.098958 L 82.401042 284.197917 " transform="matrix(0.75,0,0,0.75,0,0)"/>
<path style="fill:none;stroke-width:2;stroke-linecap:butt;stroke-linejoin:miter;stroke:rgb(0%,0%,0%);stroke-opacity:1;stroke-miterlimit:4;" d="M 132.802083 286.098958 L 154.197917 291.5 " transform="matrix(0.75,0,0,0.75,0,0)"/>
<path style="fill:none;stroke-width:2;stroke-linecap:butt;stroke-linejoin:miter;stroke:rgb(80%,80%,0%);stroke-opacity:1;stroke-miterlimit:4;" d="M 154.197917 291.5 L 175.5 296.802083 " transform="matrix(0.75,0,0,0.75,0,0)"/>
<path style="fill:none;stroke-width:2;stroke-linecap:butt;stroke-linejoin:miter;stroke:rgb(80%,80%,0%);stroke-opacity:1;stroke-miterlimit:4;" d="M 187.197917 289.598958 L 197.901042 272.697917 " transform="matrix(0.75,0,0,0.75,0,0)"/>
<path style="fill:none;stroke-width:2;stroke-linecap:butt;stroke-linejoin:miter;stroke:rgb(0%,0%,0%);stroke-opacity:1;stroke-miterlimit:4;" d="M 197.901042 272.697917 L 208.598958 255.697917 " transform="matrix(0.75,0,0,0.75,0,0)"/>
<path style="fill:none;stroke-width:2;stroke-linecap:butt;stroke-linejoin:miter;stroke:rgb(0%,0%,0%);stroke-opacity:1;stroke-miterlimit:4;" d="M 208.598958 255.697917 L 247.302083 223.401042 " transform="matrix(0.75,0,0,0.75,0,0)"/>
<path style="fill-rule:evenodd;fill:rgb(0%,0%,0%);fill-opacity:1;stroke-width:1;stroke-linecap:butt;stroke-linejoin:miter;stroke:rgb(0%,0%,0%);stroke-opacity:1;stroke-miterlimit:4;" d="M 247.302083 223.401042 L 268.302083 222.802083 L 267.802083 227.802083 Z M 247.302083 223.401042 " transform="matrix(0.75,0,0,0.75,0,0)"/>
<path style="fill-rule:evenodd;fill:rgb(0%,0%,100%);fill-opacity:1;stroke-width:1;stroke-linecap:butt;stroke-linejoin:miter;stroke:rgb(0%,0%,100%);stroke-opacity:1;stroke-miterlimit:4;" d="M 268.302083 222.802083 L 288.302083 232.197917 L 289.197917 222.197917 Z M 268.302083 222.802083 " transform="matrix(0.75,0,0,0.75,0,0)"/>
<path style="fill-rule:evenodd;fill:rgb(0%,0%,100%);fill-opacity:1;stroke-width:1;stroke-linecap:butt;stroke-linejoin:miter;stroke:rgb(0%,0%,100%);stroke-opacity:1;stroke-miterlimit:4;" d="M 268.302083 222.802083 L 267.802083 227.802083 L 288.302083 232.197917 Z M 268.302083 222.802083 " transform="matrix(0.75,0,0,0.75,0,0)"/>
<path style="fill:none;stroke-width:2;stroke-linecap:butt;stroke-linejoin:miter;stroke:rgb(0%,0%,100%);stroke-opacity:1;stroke-miterlimit:4;" d="M 301.598958 236.802083 L 310.197917 255.302083 " transform="matrix(0.75,0,0,0.75,0,0)"/>
<path style="fill:none;stroke-width:2;stroke-linecap:butt;stroke-linejoin:miter;stroke:rgb(0%,0%,0%);stroke-opacity:1;stroke-miterlimit:4;" d="M 310.197917 255.302083 L 318.697917 273.802083 " transform="matrix(0.75,0,0,0.75,0,0)"/>
<path style="fill:none;stroke-width:2;stroke-linecap:butt;stroke-linejoin:miter;stroke:rgb(0%,0%,0%);stroke-opacity:1;stroke-miterlimit:4;" d="M 322.802083 276.697917 L 311.401042 292.802083 " transform="matrix(0.75,0,0,0.75,0,0)"/>
<path style="fill:none;stroke-width:2;stroke-linecap:butt;stroke-linejoin:miter;stroke:rgb(100%,0%,0%);stroke-opacity:1;stroke-miterlimit:4;" d="M 311.401042 292.802083 L 300 309 " transform="matrix(0.75,0,0,0.75,0,0)"/>
<path style="fill:none;stroke-width:2;stroke-linecap:butt;stroke-linejoin:miter;stroke:rgb(0%,0%,0%);stroke-opacity:1;stroke-miterlimit:4;" d="M 314.598958 270.901042 L 303.197917 287 " transform="matrix(0.75,0,0,0.75,0,0)"/>
<path style="fill:none;stroke-width:2;stroke-linecap:butt;stroke-linejoin:miter;stroke:rgb(100%,0%,0%);stroke-opacity:1;stroke-miterlimit:4;" d="M 303.197917 287 L 291.802083 303.197917 " transform="matrix(0.75,0,0,0.75,0,0)"/>
<path style="fill:none;stroke-width:2;stroke-linecap:butt;stroke-linejoin:miter;stroke:rgb(0%,0%,0%);stroke-opacity:1;stroke-miterlimit:4;" d="M 318.697917 273.802083 L 368.901042 278.302083 " transform="matrix(0.75,0,0,0.75,0,0)"/>
<path style="fill:none;stroke-width:2;stroke-linecap:butt;stroke-linejoin:miter;stroke:rgb(0%,0%,0%);stroke-opacity:1;stroke-miterlimit:4;" d="M 368.901042 278.302083 L 390.098958 324.098958 " transform="matrix(0.75,0,0,0.75,0,0)"/>
<path style="fill:none;stroke-width:2;stroke-linecap:butt;stroke-linejoin:miter;stroke:rgb(0%,0%,0%);stroke-opacity:1;stroke-miterlimit:4;" d="M 390.598958 319.098958 L 411.598958 321 " transform="matrix(0.75,0,0,0.75,0,0)"/>
<path style="fill:none;stroke-width:2;stroke-linecap:butt;stroke-linejoin:miter;stroke:rgb(100%,0%,0%);stroke-opacity:1;stroke-miterlimit:4;" d="M 411.598958 321 L 432.598958 322.901042 " transform="matrix(0.75,0,0,0.75,0,0)"/>
<path style="fill:none;stroke-width:2;stroke-linecap:butt;stroke-linejoin:miter;stroke:rgb(0%,0%,0%);stroke-opacity:1;stroke-miterlimit:4;" d="M 389.697917 329.098958 L 410.697917 331 " transform="matrix(0.75,0,0,0.75,0,0)"/>
<path style="fill:none;stroke-width:2;stroke-linecap:butt;stroke-linejoin:miter;stroke:rgb(100%,0%,0%);stroke-opacity:1;stroke-miterlimit:4;" d="M 410.697917 331 L 431.697917 332.901042 " transform="matrix(0.75,0,0,0.75,0,0)"/>
<path style="fill:none;stroke-width:2;stroke-linecap:butt;stroke-linejoin:miter;stroke:rgb(0%,0%,0%);stroke-opacity:1;stroke-miterlimit:4;" d="M 390.098958 324.098958 L 378.697917 340.197917 " transform="matrix(0.75,0,0,0.75,0,0)"/>
<path style="fill:none;stroke-width:2;stroke-linecap:butt;stroke-linejoin:miter;stroke:rgb(100%,0%,0%);stroke-opacity:1;stroke-miterlimit:4;" d="M 378.697917 340.197917 L 367.302083 356.401042 " transform="matrix(0.75,0,0,0.75,0,0)"/>
<path style="fill:none;stroke-width:2;stroke-linecap:butt;stroke-linejoin:miter;stroke:rgb(0%,0%,0%);stroke-opacity:1;stroke-miterlimit:4;" d="M 368.901042 278.302083 L 398 237.098958 " transform="matrix(0.75,0,0,0.75,0,0)"/>
<path style="fill:none;stroke-width:2;stroke-linecap:butt;stroke-linejoin:miter;stroke:rgb(0%,0%,0%);stroke-opacity:1;stroke-miterlimit:4;" d="M 398 237.098958 L 448.197917 241.598958 " transform="matrix(0.75,0,0,0.75,0,0)"/>
<path style="fill:none;stroke-width:2;stroke-linecap:butt;stroke-linejoin:miter;stroke:rgb(0%,0%,0%);stroke-opacity:1;stroke-miterlimit:4;" d="M 406.401042 227.697917 L 441.598958 230.901042 " transform="matrix(0.75,0,0,0.75,0,0)"/>
<path style="fill:none;stroke-width:2;stroke-linecap:butt;stroke-linejoin:miter;stroke:rgb(0%,0%,0%);stroke-opacity:1;stroke-miterlimit:4;" d="M 448.197917 241.598958 L 477.302083 200.401042 " transform="matrix(0.75,0,0,0.75,0,0)"/>
<path style="fill:none;stroke-width:2;stroke-linecap:butt;stroke-linejoin:miter;stroke:rgb(0%,0%,0%);stroke-opacity:1;stroke-miterlimit:4;" d="M 477.302083 200.401042 L 456.098958 154.598958 " transform="matrix(0.75,0,0,0.75,0,0)"/>
<path style="fill:none;stroke-width:2;stroke-linecap:butt;stroke-linejoin:miter;stroke:rgb(0%,0%,0%);stroke-opacity:1;stroke-miterlimit:4;" d="M 464.901042 197.802083 L 450.098958 165.697917 " transform="matrix(0.75,0,0,0.75,0,0)"/>
<path style="fill:none;stroke-width:2;stroke-linecap:butt;stroke-linejoin:miter;stroke:rgb(0%,0%,0%);stroke-opacity:1;stroke-miterlimit:4;" d="M 456.098958 154.598958 L 405.901042 150.098958 " transform="matrix(0.75,0,0,0.75,0,0)"/>
<path style="fill:none;stroke-width:2;stroke-linecap:butt;stroke-linejoin:miter;stroke:rgb(0%,0%,0%);stroke-opacity:1;stroke-miterlimit:4;" d="M 405.901042 150.098958 L 376.802083 191.302083 " transform="matrix(0.75,0,0,0.75,0,0)"/>
<path style="fill:none;stroke-width:2;stroke-linecap:butt;stroke-linejoin:miter;stroke:rgb(0%,0%,0%);stroke-opacity:1;stroke-miterlimit:4;" d="M 409.802083 162.098958 L 389.401042 190.901042 " transform="matrix(0.75,0,0,0.75,0,0)"/>
<path style="fill:none;stroke-width:2;stroke-linecap:butt;stroke-linejoin:miter;stroke:rgb(0%,0%,0%);stroke-opacity:1;stroke-miterlimit:4;" d="M 247.302083 223.401042 L 215 184.697917 " transform="matrix(0.75,0,0,0.75,0,0)"/>
<path style="fill:none;stroke-width:2;stroke-linecap:butt;stroke-linejoin:miter;stroke:rgb(0%,0%,0%);stroke-opacity:1;stroke-miterlimit:4;" d="M 210 184.197917 L 211.901042 163.697917 " transform="matrix(0.75,0,0,0.75,0,0)"/>
<path style="fill:none;stroke-width:2;stroke-linecap:butt;stroke-linejoin:miter;stroke:rgb(100%,0%,0%);stroke-opacity:1;stroke-miterlimit:4;" d="M 211.901042 163.697917 L 213.697917 143.098958 " transform="matrix(0.75,0,0,0.75,0,0)"/>
<path style="fill:none;stroke-width:2;stroke-linecap:butt;stroke-linejoin:miter;stroke:rgb(0%,0%,0%);stroke-opacity:1;stroke-miterlimit:4;" d="M 220 185.197917 L 221.901042 164.598958 " transform="matrix(0.75,0,0,0.75,0,0)"/>
<path style="fill:none;stroke-width:2;stroke-linecap:butt;stroke-linejoin:miter;stroke:rgb(100%,0%,0%);stroke-opacity:1;stroke-miterlimit:4;" d="M 221.901042 164.598958 L 223.802083 144 " transform="matrix(0.75,0,0,0.75,0,0)"/>
<path style="fill:none;stroke-width:2;stroke-linecap:butt;stroke-linejoin:miter;stroke:rgb(0%,0%,0%);stroke-opacity:1;stroke-miterlimit:4;" d="M 215 184.697917 L 199.197917 197.901042 " transform="matrix(0.75,0,0,0.75,0,0)"/>
<path style="fill:none;stroke-width:2;stroke-linecap:butt;stroke-linejoin:miter;stroke:rgb(0%,0%,100%);stroke-opacity:1;stroke-miterlimit:4;" d="M 199.197917 197.901042 L 183.401042 211.098958 " transform="matrix(0.75,0,0,0.75,0,0)"/>
<path style="fill:none;stroke-width:2;stroke-linecap:butt;stroke-linejoin:miter;stroke:rgb(0%,0%,100%);stroke-opacity:1;stroke-miterlimit:4;" d="M 169.197917 219.802083 L 149.302083 227.802083 " transform="matrix(0.75,0,0,0.75,0,0)"/>
<path style="fill:none;stroke-width:2;stroke-linecap:butt;stroke-linejoin:miter;stroke:rgb(0%,0%,0%);stroke-opacity:1;stroke-miterlimit:4;" d="M 149.302083 227.802083 L 129.5 235.697917 " transform="matrix(0.75,0,0,0.75,0,0)"/>
<path style="fill:none;stroke-width:1;stroke-linecap:butt;stroke-linejoin:miter;stroke:rgb(0%,0%,0%);stroke-opacity:1;stroke-miterlimit:4;" d="M 122.802083 230.598958 L 121.901042 232 " transform="matrix(0.75,0,0,0.75,0,0)"/>
<path style="fill:none;stroke-width:1;stroke-linecap:butt;stroke-linejoin:miter;stroke:rgb(0%,0%,0%);stroke-opacity:1;stroke-miterlimit:4;" d="M 116.098958 225.401042 L 114.302083 228.197917 " transform="matrix(0.75,0,0,0.75,0,0)"/>
<path style="fill:none;stroke-width:1;stroke-linecap:butt;stroke-linejoin:miter;stroke:rgb(0%,0%,0%);stroke-opacity:1;stroke-miterlimit:4;" d="M 109.5 220.197917 L 106.802083 224.5 " transform="matrix(0.75,0,0,0.75,0,0)"/>
<path style="fill:none;stroke-width:1;stroke-linecap:butt;stroke-linejoin:miter;stroke:rgb(0%,0%,0%);stroke-opacity:1;stroke-miterlimit:4;" d="M 102.802083 215 L 99.197917 220.697917 " transform="matrix(0.75,0,0,0.75,0,0)"/>
<path style="fill:none;stroke-width:1;stroke-linecap:butt;stroke-linejoin:miter;stroke:rgb(0%,0%,0%);stroke-opacity:1;stroke-miterlimit:4;" d="M 96.098958 209.802083 L 91.697917 216.901042 " transform="matrix(0.75,0,0,0.75,0,0)"/>
<path style="fill:none;stroke-width:1;stroke-linecap:butt;stroke-linejoin:miter;stroke:rgb(0%,0%,0%);stroke-opacity:1;stroke-miterlimit:4;" d="M 89.5 204.598958 L 84.098958 213.197917 " transform="matrix(0.75,0,0,0.75,0,0)"/>
<path style="fill:none;stroke-width:2;stroke-linecap:butt;stroke-linejoin:miter;stroke:rgb(0%,0%,0%);stroke-opacity:1;stroke-miterlimit:4;" d="M 81.697917 208.697917 L 82.5 188.098958 " transform="matrix(0.75,0,0,0.75,0,0)"/>
<path style="fill:none;stroke-width:2;stroke-linecap:butt;stroke-linejoin:miter;stroke:rgb(100%,0%,0%);stroke-opacity:1;stroke-miterlimit:4;" d="M 82.5 188.098958 L 83.302083 167.401042 " transform="matrix(0.75,0,0,0.75,0,0)"/>
<path style="fill:none;stroke-width:2;stroke-linecap:butt;stroke-linejoin:miter;stroke:rgb(0%,0%,0%);stroke-opacity:1;stroke-miterlimit:4;" d="M 91.802083 209.098958 L 92.598958 188.401042 " transform="matrix(0.75,0,0,0.75,0,0)"/>
<path style="fill:none;stroke-width:2;stroke-linecap:butt;stroke-linejoin:miter;stroke:rgb(100%,0%,0%);stroke-opacity:1;stroke-miterlimit:4;" d="M 92.598958 188.401042 L 93.401042 167.802083 " transform="matrix(0.75,0,0,0.75,0,0)"/>
<path style="fill:none;stroke-width:2;stroke-linecap:butt;stroke-linejoin:miter;stroke:rgb(0%,0%,0%);stroke-opacity:1;stroke-miterlimit:4;" d="M 86.802083 208.901042 L 68.598958 218.5 " transform="matrix(0.75,0,0,0.75,0,0)"/>
<path style="fill:none;stroke-width:2;stroke-linecap:butt;stroke-linejoin:miter;stroke:rgb(100%,0%,0%);stroke-opacity:1;stroke-miterlimit:4;" d="M 68.598958 218.5 L 50.401042 228.098958 " transform="matrix(0.75,0,0,0.75,0,0)"/>
<path style="fill:none;stroke-width:2;stroke-linecap:butt;stroke-linejoin:miter;stroke:rgb(0%,0%,0%);stroke-opacity:1;stroke-miterlimit:4;" d="M 129.5 235.697917 L 132.802083 286.098958 " transform="matrix(0.75,0,0,0.75,0,0)"/>
<path style="fill:none;stroke-width:2;stroke-linecap:butt;stroke-linejoin:miter;stroke:rgb(0%,0%,100%);stroke-opacity:1;stroke-miterlimit:4;" d="M 183.401042 225.5 L 196 240.598958 " transform="matrix(0.75,0,0,0.75,0,0)"/>
<path style="fill:none;stroke-width:2;stroke-linecap:butt;stroke-linejoin:miter;stroke:rgb(0%,0%,0%);stroke-opacity:1;stroke-miterlimit:4;" d="M 196 240.598958 L 208.598958 255.697917 " transform="matrix(0.75,0,0,0.75,0,0)"/>
<path style="fill:none;stroke-width:2;stroke-linecap:butt;stroke-linejoin:miter;stroke:rgb(0%,0%,0%);stroke-opacity:1;stroke-miterlimit:4;" d="M 376.802083 191.302083 L 398 237.098958 " transform="matrix(0.75,0,0,0.75,0,0)"/>
<path style="fill:none;stroke-width:1;stroke-linecap:butt;stroke-linejoin:miter;stroke:rgb(0%,0%,0%);stroke-opacity:1;stroke-miterlimit:4;" d="M 212.901042 260.598958 L 214 259.302083 " transform="matrix(0.75,0,0,0.75,0,0)"/>
<path style="fill:none;stroke-width:1;stroke-linecap:butt;stroke-linejoin:miter;stroke:rgb(0%,0%,0%);stroke-opacity:1;stroke-miterlimit:4;" d="M 217.197917 265.5 L 219.401042 262.901042 " transform="matrix(0.75,0,0,0.75,0,0)"/>
<path style="fill:none;stroke-width:1;stroke-linecap:butt;stroke-linejoin:miter;stroke:rgb(0%,0%,0%);stroke-opacity:1;stroke-miterlimit:4;" d="M 221.401042 270.302083 L 224.802083 266.5 " transform="matrix(0.75,0,0,0.75,0,0)"/>
<path style="fill:none;stroke-width:1;stroke-linecap:butt;stroke-linejoin:miter;stroke:rgb(0%,0%,0%);stroke-opacity:1;stroke-miterlimit:4;" d="M 225.697917 275.197917 L 230.197917 270.098958 " transform="matrix(0.75,0,0,0.75,0,0)"/>
<path style="fill:none;stroke-width:1;stroke-linecap:butt;stroke-linejoin:miter;stroke:rgb(0%,0%,0%);stroke-opacity:1;stroke-miterlimit:4;" d="M 230 280.098958 L 235.5 273.697917 " transform="matrix(0.75,0,0,0.75,0,0)"/>
<path style="fill:none;stroke-width:1;stroke-linecap:butt;stroke-linejoin:miter;stroke:rgb(0%,0%,0%);stroke-opacity:1;stroke-miterlimit:4;" d="M 234.302083 284.901042 L 240.901042 277.302083 " transform="matrix(0.75,0,0,0.75,0,0)"/>
<path style=" stroke:none;fill-rule:nonzero;fill:rgb(80%,80%,0%);fill-opacity:1;" d="M 133.273438 227.476562 C 133.324219 227.523438 133.523438 227.625 133.875 227.773438 C 134.226562 227.875 134.574219 227.976562 134.925781 228.074219 C 135.324219 228.175781 135.699219 228.226562 136.050781 228.226562 C 136.699219 228.226562 137.226562 228.050781 137.625 227.699219 C 138.023438 227.398438 138.226562 226.949219 138.226562 226.351562 C 138.226562 225.949219 138.125 225.648438 137.925781 225.449219 C 137.726562 225.199219 137.476562 225 137.175781 224.851562 C 136.875 224.75 136.476562 224.601562 135.976562 224.398438 C 135.324219 224.25 134.824219 224.074219 134.476562 223.875 C 134.074219 223.675781 133.75 223.398438 133.5 223.050781 C 133.199219 222.648438 133.050781 222.125 133.050781 221.476562 C 133.050781 220.574219 133.375 219.851562 134.023438 219.300781 C 134.625 218.75 135.523438 218.476562 136.726562 218.476562 C 137.574219 218.476562 138.449219 218.675781 139.351562 219.074219 L 139.050781 220.199219 C 138.199219 219.851562 137.449219 219.675781 136.800781 219.675781 C 136.101562 219.675781 135.550781 219.824219 135.148438 220.125 C 134.75 220.425781 134.574219 220.824219 134.625 221.324219 C 134.625 221.675781 134.699219 221.976562 134.851562 222.226562 C 135.050781 222.476562 135.300781 222.648438 135.601562 222.75 C 135.898438 222.898438 136.300781 223.050781 136.800781 223.199219 C 137.449219 223.398438 137.949219 223.601562 138.300781 223.800781 C 138.699219 224 139.023438 224.300781 139.273438 224.699219 C 139.574219 225.101562 139.726562 225.648438 139.726562 226.351562 C 139.726562 227.351562 139.398438 228.125 138.75 228.675781 C 138.101562 229.175781 137.226562 229.425781 136.125 229.425781 C 135.476562 229.425781 134.898438 229.351562 134.398438 229.199219 C 133.949219 229.101562 133.425781 228.925781 132.824219 228.675781 L 133.273438 227.476562 "/>
<path style=" stroke:none;fill-rule:nonzero;fill:rgb(0%,0%,100%);fill-opacity:1;" d="M 220.800781 165.601562 L 224.324219 171.300781 C 224.523438 171.699219 224.824219 172.226562 225.226562 172.875 C 225.574219 173.574219 225.773438 173.925781 225.824219 173.925781 L 225.824219 165.601562 L 227.25 165.601562 L 227.25 176.324219 L 225.75 176.324219 L 222 170.175781 C 221.699219 169.675781 221.398438 169.148438 221.101562 168.601562 C 220.800781 168.050781 220.601562 167.675781 220.5 167.476562 L 220.5 176.324219 L 219.074219 176.324219 L 219.074219 165.601562 L 220.800781 165.601562 "/>
<path style=" stroke:none;fill-rule:nonzero;fill:rgb(0%,0%,100%);fill-opacity:1;" d="M 228.449219 165.601562 L 229.949219 165.601562 L 229.949219 170.175781 L 235.425781 170.175781 L 235.425781 165.601562 L 236.851562 165.601562 L 236.851562 176.324219 L 235.425781 176.324219 L 235.425781 171.375 L 229.949219 171.375 L 229.949219 176.324219 L 228.449219 176.324219 L 228.449219 165.601562 "/>
<path style=" stroke:none;fill-rule:nonzero;fill:rgb(100%,0%,0%);fill-opacity:1;" d="M 212.324219 236.25 C 212.324219 234.550781 212.75 233.226562 213.601562 232.273438 C 214.449219 231.324219 215.675781 230.851562 217.273438 230.851562 C 218.824219 230.851562 220.023438 231.324219 220.875 232.273438 C 221.726562 233.226562 222.148438 234.550781 222.148438 236.25 C 222.148438 238 221.726562 239.375 220.875 240.375 C 220.023438 241.324219 218.824219 241.800781 217.273438 241.800781 C 215.675781 241.800781 214.449219 241.324219 213.601562 240.375 C 212.75 239.375 212.324219 238 212.324219 236.25 M 217.273438 240.601562 C 218.324219 240.601562 219.148438 240.25 219.75 239.550781 C 220.351562 238.800781 220.648438 237.699219 220.648438 236.25 C 220.648438 234.851562 220.351562 233.800781 219.75 233.101562 C 219.148438 232.398438 218.324219 232.050781 217.273438 232.050781 C 216.175781 232.050781 215.324219 232.398438 214.726562 233.101562 C 214.125 233.800781 213.824219 234.851562 213.824219 236.25 C 213.824219 237.699219 214.125 238.800781 214.726562 239.550781 C 215.324219 240.25 216.175781 240.601562 217.273438 240.601562 "/>
<path style=" stroke:none;fill-rule:nonzero;fill:rgb(100%,0%,0%);fill-opacity:1;" d="M 325.351562 246.523438 C 325.351562 244.773438 325.773438 243.425781 326.625 242.476562 C 327.476562 241.523438 328.675781 241.050781 330.226562 241.050781 C 331.824219 241.050781 333.050781 241.523438 333.898438 242.476562 C 334.75 243.425781 335.175781 244.773438 335.175781 246.523438 C 335.175781 248.226562 334.75 249.574219 333.898438 250.574219 C 333.050781 251.574219 331.824219 252.074219 330.226562 252.074219 C 328.675781 252.074219 327.476562 251.574219 326.625 250.574219 C 325.773438 249.625 325.351562 248.273438 325.351562 246.523438 M 330.226562 250.875 C 331.324219 250.875 332.175781 250.5 332.773438 249.75 C 333.375 249 333.675781 247.925781 333.675781 246.523438 C 333.675781 245.125 333.375 244.074219 332.773438 243.375 C 332.175781 242.625 331.324219 242.25 330.226562 242.25 C 329.175781 242.25 328.351562 242.601562 327.75 243.300781 C 327.148438 244 326.851562 245.074219 326.851562 246.523438 C 326.851562 247.976562 327.148438 249.050781 327.75 249.75 C 328.351562 250.5 329.175781 250.875 330.226562 250.875 "/>
<path style=" stroke:none;fill-rule:nonzero;fill:rgb(100%,0%,0%);fill-opacity:1;" d="M 256.199219 268.648438 L 257.625 268.648438 L 257.625 273.226562 L 263.175781 273.226562 L 263.175781 268.648438 L 264.601562 268.648438 L 264.601562 279.375 L 263.175781 279.375 L 263.175781 274.425781 L 257.625 274.425781 L 257.625 279.375 L 256.199219 279.375 L 256.199219 268.648438 "/>
<path style=" stroke:none;fill-rule:nonzero;fill:rgb(100%,0%,0%);fill-opacity:1;" d="M 265.875 273.976562 C 265.875 272.273438 266.300781 270.949219 267.148438 270 C 268 269.050781 269.226562 268.574219 270.824219 268.574219 C 272.375 268.574219 273.574219 269.050781 274.425781 270 C 275.273438 270.949219 275.699219 272.273438 275.699219 273.976562 C 275.699219 275.726562 275.273438 277.101562 274.425781 278.101562 C 273.574219 279.050781 272.375 279.523438 270.824219 279.523438 C 269.226562 279.523438 268 279.050781 267.148438 278.101562 C 266.300781 277.101562 265.875 275.726562 265.875 273.976562 M 270.824219 278.324219 C 271.875 278.324219 272.699219 277.976562 273.300781 277.273438 C 273.898438 276.523438 274.199219 275.425781 274.199219 273.976562 C 274.199219 272.574219 273.898438 271.523438 273.300781 270.824219 C 272.699219 270.125 271.875 269.773438 270.824219 269.773438 C 269.726562 269.773438 268.875 270.125 268.273438 270.824219 C 267.675781 271.523438 267.375 272.574219 267.375 273.976562 C 267.375 275.425781 267.675781 276.523438 268.273438 277.273438 C 268.875 277.976562 269.726562 278.324219 270.824219 278.324219 "/>
<path style=" stroke:none;fill-rule:nonzero;fill:rgb(100%,0%,0%);fill-opacity:1;" d="M 159.75 100.875 C 159.75 99.175781 160.175781 97.851562 161.023438 96.898438 C 161.875 95.949219 163.101562 95.476562 164.699219 95.476562 C 166.25 95.476562 167.449219 95.949219 168.300781 96.898438 C 169.148438 97.851562 169.574219 99.175781 169.574219 100.875 C 169.574219 102.625 169.148438 104 168.300781 105 C 167.449219 105.949219 166.25 106.425781 164.699219 106.425781 C 163.101562 106.425781 161.875 105.949219 161.023438 105 C 160.175781 104 159.75 102.625 159.75 100.875 M 164.699219 105.226562 C 165.75 105.226562 166.574219 104.875 167.175781 104.175781 C 167.773438 103.425781 168.074219 102.324219 168.074219 100.875 C 168.074219 99.476562 167.773438 98.425781 167.175781 97.726562 C 166.574219 97.023438 165.75 96.675781 164.699219 96.675781 C 163.601562 96.675781 162.75 97.023438 162.148438 97.726562 C 161.550781 98.425781 161.25 99.476562 161.25 100.875 C 161.25 102.324219 161.550781 103.425781 162.148438 104.175781 C 162.75 104.875 163.601562 105.226562 164.699219 105.226562 "/>
<path style=" stroke:none;fill-rule:nonzero;fill:rgb(0%,0%,100%);fill-opacity:1;" d="M 129.824219 157.425781 L 133.351562 163.050781 C 133.601562 163.449219 133.898438 163.976562 134.25 164.625 C 134.648438 165.324219 134.851562 165.699219 134.851562 165.75 L 134.851562 157.425781 L 136.273438 157.425781 L 136.273438 168.074219 L 134.773438 168.074219 L 131.023438 161.925781 C 130.726562 161.425781 130.425781 160.898438 130.125 160.351562 C 129.824219 159.800781 129.625 159.425781 129.523438 159.226562 L 129.523438 168.074219 L 128.175781 168.074219 L 128.175781 157.425781 L 129.824219 157.425781 "/>
<path style=" stroke:none;fill-rule:nonzero;fill:rgb(100%,0%,0%);fill-opacity:1;" d="M 61.574219 118.875 C 61.574219 117.175781 62 115.851562 62.851562 114.898438 C 63.699219 113.949219 64.925781 113.476562 66.523438 113.476562 C 68.125 113.476562 69.351562 113.949219 70.199219 114.898438 C 71 115.851562 71.398438 117.175781 71.398438 118.875 C 71.398438 120.625 70.976562 122 70.125 123 C 69.273438 123.949219 68.074219 124.425781 66.523438 124.425781 C 64.925781 124.425781 63.699219 123.949219 62.851562 123 C 62 122 61.574219 120.625 61.574219 118.875 M 66.523438 123.226562 C 67.625 123.226562 68.449219 122.875 69 122.175781 C 69.601562 121.425781 69.898438 120.324219 69.898438 118.875 C 69.898438 117.476562 69.601562 116.425781 69 115.726562 C 68.449219 115.023438 67.625 114.675781 66.523438 114.675781 C 65.425781 114.675781 64.574219 115.023438 63.976562 115.726562 C 63.425781 116.425781 63.148438 117.476562 63.148438 118.875 C 63.148438 120.324219 63.425781 121.425781 63.976562 122.175781 C 64.574219 122.875 65.425781 123.226562 66.523438 123.226562 "/>
<path style=" stroke:none;fill-rule:nonzero;fill:rgb(100%,0%,0%);fill-opacity:1;" d="M 17.023438 169.050781 L 18.523438 169.050781 L 18.523438 173.550781 L 24 173.550781 L 24 169.050781 L 25.425781 169.050781 L 25.425781 179.773438 L 24 179.773438 L 24 174.824219 L 18.523438 174.824219 L 18.523438 179.773438 L 17.023438 179.773438 L 17.023438 169.050781 "/>
<path style=" stroke:none;fill-rule:nonzero;fill:rgb(100%,0%,0%);fill-opacity:1;" d="M 26.699219 174.375 C 26.699219 172.625 27.125 171.273438 27.976562 170.324219 C 28.824219 169.375 30.050781 168.898438 31.648438 168.898438 C 33.199219 168.898438 34.398438 169.375 35.25 170.324219 C 36.101562 171.273438 36.523438 172.625 36.523438 174.375 C 36.523438 176.074219 36.101562 177.425781 35.25 178.425781 C 34.398438 179.425781 33.199219 179.925781 31.648438 179.925781 C 30.050781 179.925781 28.824219 179.425781 27.976562 178.425781 C 27.125 177.476562 26.699219 176.125 26.699219 174.375 M 31.648438 178.726562 C 32.75 178.726562 33.574219 178.351562 34.125 177.601562 C 34.726562 176.851562 35.023438 175.773438 35.023438 174.375 C 35.023438 172.976562 34.726562 171.925781 34.125 171.226562 C 33.574219 170.476562 32.75 170.101562 31.648438 170.101562 C 30.550781 170.101562 29.699219 170.449219 29.101562 171.148438 C 28.5 171.851562 28.199219 172.925781 28.199219 174.375 C 28.199219 175.824219 28.5 176.898438 29.101562 177.601562 C 29.699219 178.351562 30.550781 178.726562 31.648438 178.726562 "/>
<path style=" stroke:none;fill-rule:nonzero;fill:rgb(0%,0%,0%);fill-opacity:1;" d="M 180.75 211.351562 L 182.175781 211.351562 L 182.175781 215.925781 L 187.648438 215.925781 L 187.648438 211.351562 L 189.074219 211.351562 L 189.074219 222.074219 L 187.648438 222.074219 L 187.648438 217.125 L 182.175781 217.125 L 182.175781 222.074219 L 180.75 222.074219 L 180.75 211.351562 "/>
</g>
</svg>
