<?xml version="1.0" encoding="UTF-8"?>
<svg xmlns="http://www.w3.org/2000/svg" xmlns:xlink="http://www.w3.org/1999/xlink" width="375pt" height="375pt" viewBox="0 0 375 375" version="1.1">
<g id="surface111">
<rect x="0" y="0" width="375" height="375" style="fill:rgb(100%,100%,100%);fill-opacity:1;stroke:none;"/>
<path style="fill:none;stroke-width:2;stroke-linecap:butt;stroke-linejoin:miter;stroke:rgb(0%,0%,0%);stroke-opacity:1;stroke-miterlimit:4;" d="M 89 349.802083 L 129 322.302083 " transform="matrix(0.75,0,0,0.75,0,0)"/>
<path style="fill:none;stroke-width:2;stroke-linecap:butt;stroke-linejoin:miter;stroke:rgb(0%,0%,0%);stroke-opacity:1;stroke-miterlimit:4;" d="M 129 322.302083 L 125.098958 274 " transform="matrix(0.75,0,0,0.75,0,0)"/>
<path style="fill:none;stroke-width:2;stroke-linecap:butt;stroke-linejoin:miter;stroke:rgb(0%,0%,0%);stroke-opacity:1;stroke-miterlimit:4;" d="M 138 314.302083 L 135.302083 280.5 " transform="matrix(0.75,0,0,0.75,0,0)"/>
<path style="fill:none;stroke-width:2;stroke-linecap:butt;stroke-linejoin:miter;stroke:rgb(0%,0%,0%);stroke-opacity:1;stroke-miterlimit:4;" d="M 125.098958 274 L 81.302083 253.197917 " transform="matrix(0.75,0,0,0.75,0,0)"/>
<path style="fill:none;stroke-width:2;stroke-linecap:butt;stroke-linejoin:miter;stroke:rgb(0%,0%,0%);stroke-opacity:1;stroke-miterlimit:4;" d="M 76.5 253.598958 L 74.901042 233.802083 " transform="matrix(0.75,0,0,0.75,0,0)"/>
<path style="fill:none;stroke-width:2;stroke-linecap:butt;stroke-linejoin:miter;stroke:rgb(100%,0%,0%);stroke-opacity:1;stroke-miterlimit:4;" d="M 74.901042 233.802083 L 73.302083 214 " transform="matrix(0.75,0,0,0.75,0,0)"/>
<path style="fill:none;stroke-width:2;stroke-linecap:butt;stroke-linejoin:miter;stroke:rgb(0%,0%,0%);stroke-opacity:1;stroke-miterlimit:4;" d="M 86.197917 252.802083 L 84.598958 233 " transform="matrix(0.75,0,0,0.75,0,0)"/>
<path style="fill:none;stroke-width:2;stroke-linecap:butt;stroke-linejoin:miter;stroke:rgb(100%,0%,0%);stroke-opacity:1;stroke-miterlimit:4;" d="M 84.598958 233 L 83 213.302083 " transform="matrix(0.75,0,0,0.75,0,0)"/>
<path style="fill:none;stroke-width:2;stroke-linecap:butt;stroke-linejoin:miter;stroke:rgb(0%,0%,0%);stroke-opacity:1;stroke-miterlimit:4;" d="M 81.302083 253.197917 L 65.302083 264.197917 " transform="matrix(0.75,0,0,0.75,0,0)"/>
<path style="fill:none;stroke-width:2;stroke-linecap:butt;stroke-linejoin:miter;stroke:rgb(100%,0%,0%);stroke-opacity:1;stroke-miterlimit:4;" d="M 65.302083 264.197917 L 49.302083 275.302083 " transform="matrix(0.75,0,0,0.75,0,0)"/>
<path style="fill:none;stroke-width:2;stroke-linecap:butt;stroke-linejoin:miter;stroke:rgb(0%,0%,0%);stroke-opacity:1;stroke-miterlimit:4;" d="M 125.098958 274 L 141.697917 262.598958 " transform="matrix(0.75,0,0,0.75,0,0)"/>
<path style="fill:none;stroke-width:2;stroke-linecap:butt;stroke-linejoin:miter;stroke:rgb(0%,0%,100%);stroke-opacity:1;stroke-miterlimit:4;" d="M 141.697917 262.598958 L 158.197917 251.197917 " transform="matrix(0.75,0,0,0.75,0,0)"/>
<path style="fill:none;stroke-width:2;stroke-linecap:butt;stroke-linejoin:miter;stroke:rgb(0%,0%,100%);stroke-opacity:1;stroke-miterlimit:4;" d="M 169 238.098958 L 177.401042 220.401042 " transform="matrix(0.75,0,0,0.75,0,0)"/>
<path style="fill:none;stroke-width:2;stroke-linecap:butt;stroke-linejoin:miter;stroke:rgb(0%,0%,0%);stroke-opacity:1;stroke-miterlimit:4;" d="M 177.401042 220.401042 L 185.802083 202.802083 " transform="matrix(0.75,0,0,0.75,0,0)"/>
<path style="fill:none;stroke-width:2;stroke-linecap:butt;stroke-linejoin:miter;stroke:rgb(0%,0%,0%);stroke-opacity:1;stroke-miterlimit:4;" d="M 181.302083 204.401042 L 174.697917 185.901042 " transform="matrix(0.75,0,0,0.75,0,0)"/>
<path style="fill:none;stroke-width:2;stroke-linecap:butt;stroke-linejoin:miter;stroke:rgb(100%,0%,0%);stroke-opacity:1;stroke-miterlimit:4;" d="M 174.697917 185.901042 L 168.098958 167.5 " transform="matrix(0.75,0,0,0.75,0,0)"/>
<path style="fill:none;stroke-width:2;stroke-linecap:butt;stroke-linejoin:miter;stroke:rgb(0%,0%,0%);stroke-opacity:1;stroke-miterlimit:4;" d="M 190.401042 201.098958 L 183.802083 182.697917 " transform="matrix(0.75,0,0,0.75,0,0)"/>
<path style="fill:none;stroke-width:2;stroke-linecap:butt;stroke-linejoin:miter;stroke:rgb(100%,0%,0%);stroke-opacity:1;stroke-miterlimit:4;" d="M 183.802083 182.697917 L 177.302083 164.197917 " transform="matrix(0.75,0,0,0.75,0,0)"/>
<path style="fill:none;stroke-width:2;stroke-linecap:butt;stroke-linejoin:miter;stroke:rgb(0%,0%,0%);stroke-opacity:1;stroke-miterlimit:4;" d="M 185.802083 202.802083 L 229.598958 223.598958 " transform="matrix(0.75,0,0,0.75,0,0)"/>
<path style="fill-rule:evenodd;fill:rgb(0%,0%,0%);fill-opacity:1;stroke-width:1;stroke-linecap:butt;stroke-linejoin:miter;stroke:rgb(0%,0%,0%);stroke-opacity:1;stroke-miterlimit:4;" d="M 229.598958 223.598958 L 247.401042 214.697917 L 249 219.302083 Z M 229.598958 223.598958 " transform="matrix(0.75,0,0,0.75,0,0)"/>
<path style="fill-rule:evenodd;fill:rgb(0%,0%,100%);fill-opacity:1;stroke-width:1;stroke-linecap:butt;stroke-linejoin:miter;stroke:rgb(0%,0%,100%);stroke-opacity:1;stroke-miterlimit:4;" d="M 247.401042 214.697917 L 268.5 214.901042 L 265.197917 205.802083 Z M 247.401042 214.697917 " transform="matrix(0.75,0,0,0.75,0,0)"/>
<path style="fill-rule:evenodd;fill:rgb(0%,0%,100%);fill-opacity:1;stroke-width:1;stroke-linecap:butt;stroke-linejoin:miter;stroke:rgb(0%,0%,100%);stroke-opacity:1;stroke-miterlimit:4;" d="M 247.401042 214.697917 L 249 219.302083 L 268.5 214.901042 Z M 247.401042 214.697917 " transform="matrix(0.75,0,0,0.75,0,0)"/>
<path style="fill:none;stroke-width:2;stroke-linecap:butt;stroke-linejoin:miter;stroke:rgb(0%,0%,100%);stroke-opacity:1;stroke-miterlimit:4;" d="M 282.098958 213.197917 L 297.098958 226 " transform="matrix(0.75,0,0,0.75,0,0)"/>
<path style="fill:none;stroke-width:2;stroke-linecap:butt;stroke-linejoin:miter;stroke:rgb(0%,0%,0%);stroke-opacity:1;stroke-miterlimit:4;" d="M 297.098958 226 L 312.197917 238.802083 " transform="matrix(0.75,0,0,0.75,0,0)"/>
<path style="fill:none;stroke-width:2;stroke-linecap:butt;stroke-linejoin:miter;stroke:rgb(0%,0%,0%);stroke-opacity:1;stroke-miterlimit:4;" d="M 316.901042 239.697917 L 313.302083 259.197917 " transform="matrix(0.75,0,0,0.75,0,0)"/>
<path style="fill:none;stroke-width:2;stroke-linecap:butt;stroke-linejoin:miter;stroke:rgb(100%,0%,0%);stroke-opacity:1;stroke-miterlimit:4;" d="M 313.302083 259.197917 L 309.697917 278.802083 " transform="matrix(0.75,0,0,0.75,0,0)"/>
<path style="fill:none;stroke-width:2;stroke-linecap:butt;stroke-linejoin:miter;stroke:rgb(0%,0%,0%);stroke-opacity:1;stroke-miterlimit:4;" d="M 307.401042 237.901042 L 303.802083 257.5 " transform="matrix(0.75,0,0,0.75,0,0)"/>
<path style="fill:none;stroke-width:2;stroke-linecap:butt;stroke-linejoin:miter;stroke:rgb(100%,0%,0%);stroke-opacity:1;stroke-miterlimit:4;" d="M 303.802083 257.5 L 300.197917 277 " transform="matrix(0.75,0,0,0.75,0,0)"/>
<path style="fill:none;stroke-width:2;stroke-linecap:butt;stroke-linejoin:miter;stroke:rgb(0%,0%,0%);stroke-opacity:1;stroke-miterlimit:4;" d="M 312.197917 238.802083 L 357.802083 222.598958 " transform="matrix(0.75,0,0,0.75,0,0)"/>
<path style="fill:none;stroke-width:1;stroke-linecap:butt;stroke-linejoin:miter;stroke:rgb(0%,0%,0%);stroke-opacity:1;stroke-miterlimit:4;" d="M 359.802083 216.5 L 358.197917 216.197917 " transform="matrix(0.75,0,0,0.75,0,0)"/>
<path style="fill:none;stroke-width:1;stroke-linecap:butt;stroke-linejoin:miter;stroke:rgb(0%,0%,0%);stroke-opacity:1;stroke-miterlimit:4;" d="M 361.697917 210.302083 L 358.5 209.697917 " transform="matrix(0.75,0,0,0.75,0,0)"/>
<path style="fill:none;stroke-width:1;stroke-linecap:butt;stroke-linejoin:miter;stroke:rgb(0%,0%,0%);stroke-opacity:1;stroke-miterlimit:4;" d="M 363.697917 204.197917 L 358.901042 203.302083 " transform="matrix(0.75,0,0,0.75,0,0)"/>
<path style="fill:none;stroke-width:1;stroke-linecap:butt;stroke-linejoin:miter;stroke:rgb(0%,0%,100%);stroke-opacity:1;stroke-miterlimit:4;" d="M 365.598958 198.098958 L 359.302083 196.901042 " transform="matrix(0.75,0,0,0.75,0,0)"/>
<path style="fill:none;stroke-width:1;stroke-linecap:butt;stroke-linejoin:miter;stroke:rgb(0%,0%,100%);stroke-opacity:1;stroke-miterlimit:4;" d="M 367.598958 192 L 359.598958 190.5 " transform="matrix(0.75,0,0,0.75,0,0)"/>
<path style="fill:none;stroke-width:1;stroke-linecap:butt;stroke-linejoin:miter;stroke:rgb(0%,0%,100%);stroke-opacity:1;stroke-miterlimit:4;" d="M 369.5 185.901042 L 360 184.098958 " transform="matrix(0.75,0,0,0.75,0,0)"/>
<path style="fill:none;stroke-width:2;stroke-linecap:butt;stroke-linejoin:miter;stroke:rgb(0%,0%,0%);stroke-opacity:1;stroke-miterlimit:4;" d="M 357.802083 222.598958 L 394.697917 254 " transform="matrix(0.75,0,0,0.75,0,0)"/>
<path style="fill:none;stroke-width:2;stroke-linecap:butt;stroke-linejoin:miter;stroke:rgb(0%,0%,0%);stroke-opacity:1;stroke-miterlimit:4;" d="M 394.697917 254 L 385.901042 301.697917 " transform="matrix(0.75,0,0,0.75,0,0)"/>
<path style="fill:none;stroke-width:2;stroke-linecap:butt;stroke-linejoin:miter;stroke:rgb(0%,0%,0%);stroke-opacity:1;stroke-miterlimit:4;" d="M 402.901042 262.901042 L 396.802083 296.302083 " transform="matrix(0.75,0,0,0.75,0,0)"/>
<path style="fill:none;stroke-width:2;stroke-linecap:butt;stroke-linejoin:miter;stroke:rgb(0%,0%,0%);stroke-opacity:1;stroke-miterlimit:4;" d="M 385.901042 301.697917 L 422.802083 333.098958 " transform="matrix(0.75,0,0,0.75,0,0)"/>
<path style="fill:none;stroke-width:2;stroke-linecap:butt;stroke-linejoin:miter;stroke:rgb(0%,0%,0%);stroke-opacity:1;stroke-miterlimit:4;" d="M 422.802083 333.098958 L 468.5 316.901042 " transform="matrix(0.75,0,0,0.75,0,0)"/>
<path style="fill:none;stroke-width:2;stroke-linecap:butt;stroke-linejoin:miter;stroke:rgb(0%,0%,0%);stroke-opacity:1;stroke-miterlimit:4;" d="M 426.401042 321.5 L 458.401042 310.197917 " transform="matrix(0.75,0,0,0.75,0,0)"/>
<path style="fill:none;stroke-width:2;stroke-linecap:butt;stroke-linejoin:miter;stroke:rgb(0%,0%,0%);stroke-opacity:1;stroke-miterlimit:4;" d="M 468.5 316.901042 L 477.302083 269.197917 " transform="matrix(0.75,0,0,0.75,0,0)"/>
<path style="fill:none;stroke-width:2;stroke-linecap:butt;stroke-linejoin:miter;stroke:rgb(0%,0%,0%);stroke-opacity:1;stroke-miterlimit:4;" d="M 477.302083 269.197917 L 440.401042 237.802083 " transform="matrix(0.75,0,0,0.75,0,0)"/>
<path style="fill:none;stroke-width:2;stroke-linecap:butt;stroke-linejoin:miter;stroke:rgb(0%,0%,0%);stroke-opacity:1;stroke-miterlimit:4;" d="M 465.5 271.901042 L 439.598958 249.901042 " transform="matrix(0.75,0,0,0.75,0,0)"/>
<path style="fill:none;stroke-width:2;stroke-linecap:butt;stroke-linejoin:miter;stroke:rgb(0%,0%,0%);stroke-opacity:1;stroke-miterlimit:4;" d="M 229.598958 223.598958 L 208.802083 267.401042 " transform="matrix(0.75,0,0,0.75,0,0)"/>
<path style="fill:none;stroke-width:2;stroke-linecap:butt;stroke-linejoin:miter;stroke:rgb(0%,0%,0%);stroke-opacity:1;stroke-miterlimit:4;" d="M 208.802083 267.401042 L 210.401042 287.302083 " transform="matrix(0.75,0,0,0.75,0,0)"/>
<path style="fill:none;stroke-width:2;stroke-linecap:butt;stroke-linejoin:miter;stroke:rgb(80%,80%,0%);stroke-opacity:1;stroke-miterlimit:4;" d="M 210.401042 287.302083 L 212 307.197917 " transform="matrix(0.75,0,0,0.75,0,0)"/>
<path style="fill:none;stroke-width:2;stroke-linecap:butt;stroke-linejoin:miter;stroke:rgb(80%,80%,0%);stroke-opacity:1;stroke-miterlimit:4;" d="M 206.598958 319.802083 L 189.697917 331.5 " transform="matrix(0.75,0,0,0.75,0,0)"/>
<path style="fill:none;stroke-width:2;stroke-linecap:butt;stroke-linejoin:miter;stroke:rgb(0%,0%,0%);stroke-opacity:1;stroke-miterlimit:4;" d="M 189.697917 331.5 L 172.697917 343.197917 " transform="matrix(0.75,0,0,0.75,0,0)"/>
<path style="fill:none;stroke-width:2;stroke-linecap:butt;stroke-linejoin:miter;stroke:rgb(0%,0%,0%);stroke-opacity:1;stroke-miterlimit:4;" d="M 172.697917 343.197917 L 129 322.302083 " transform="matrix(0.75,0,0,0.75,0,0)"/>
<path style="fill:none;stroke-width:2;stroke-linecap:butt;stroke-linejoin:miter;stroke:rgb(0%,0%,0%);stroke-opacity:1;stroke-miterlimit:4;" d="M 208.802083 267.401042 L 190.302083 258.598958 " transform="matrix(0.75,0,0,0.75,0,0)"/>
<path style="fill:none;stroke-width:2;stroke-linecap:butt;stroke-linejoin:miter;stroke:rgb(0%,0%,100%);stroke-opacity:1;stroke-miterlimit:4;" d="M 190.302083 258.598958 L 171.802083 249.802083 " transform="matrix(0.75,0,0,0.75,0,0)"/>
<path style="fill:none;stroke-width:2;stroke-linecap:butt;stroke-linejoin:miter;stroke:rgb(0%,0%,0%);stroke-opacity:1;stroke-miterlimit:4;" d="M 440.401042 237.802083 L 394.697917 254 " transform="matrix(0.75,0,0,0.75,0,0)"/>
<path style="fill:none;stroke-width:1;stroke-linecap:butt;stroke-linejoin:miter;stroke:rgb(0%,0%,0%);stroke-opacity:1;stroke-miterlimit:4;" d="M 215.098958 269.401042 L 215.401042 267.802083 " transform="matrix(0.75,0,0,0.75,0,0)"/>
<path style="fill:none;stroke-width:1;stroke-linecap:butt;stroke-linejoin:miter;stroke:rgb(0%,0%,0%);stroke-opacity:1;stroke-miterlimit:4;" d="M 221.5 271.302083 L 222.098958 268.197917 " transform="matrix(0.75,0,0,0.75,0,0)"/>
<path style="fill:none;stroke-width:1;stroke-linecap:butt;stroke-linejoin:miter;stroke:rgb(0%,0%,0%);stroke-opacity:1;stroke-miterlimit:4;" d="M 227.901042 273.302083 L 228.802083 268.598958 " transform="matrix(0.75,0,0,0.75,0,0)"/>
<path style="fill:none;stroke-width:1;stroke-linecap:butt;stroke-linejoin:miter;stroke:rgb(0%,0%,0%);stroke-opacity:1;stroke-miterlimit:4;" d="M 234.302083 275.302083 L 235.401042 269 " transform="matrix(0.75,0,0,0.75,0,0)"/>
<path style="fill:none;stroke-width:1;stroke-linecap:butt;stroke-linejoin:miter;stroke:rgb(0%,0%,0%);stroke-opacity:1;stroke-miterlimit:4;" d="M 240.598958 277.302083 L 242.098958 269.401042 " transform="matrix(0.75,0,0,0.75,0,0)"/>
<path style="fill:none;stroke-width:1;stroke-linecap:butt;stroke-linejoin:miter;stroke:rgb(0%,0%,0%);stroke-opacity:1;stroke-miterlimit:4;" d="M 247 279.302083 L 248.802083 269.802083 " transform="matrix(0.75,0,0,0.75,0,0)"/>
<path style=" stroke:none;fill-rule:nonzero;fill:rgb(100%,0%,0%);fill-opacity:1;" d="M 53.398438 153.675781 C 53.398438 152.023438 53.800781 150.75 54.601562 149.851562 C 55.398438 148.949219 56.574219 148.5 58.125 148.5 C 59.625 148.5 60.773438 148.949219 61.574219 149.851562 C 62.425781 150.75 62.851562 152.023438 62.851562 153.675781 C 62.851562 155.375 62.425781 156.699219 61.574219 157.648438 C 60.773438 158.601562 59.625 159.074219 58.125 159.074219 C 56.625 159.074219 55.449219 158.601562 54.601562 157.648438 C 53.800781 156.699219 53.398438 155.375 53.398438 153.675781 M 58.125 157.875 C 59.175781 157.875 59.976562 157.523438 60.523438 156.824219 C 61.074219 156.125 61.351562 155.074219 61.351562 153.675781 C 61.351562 152.324219 61.074219 151.324219 60.523438 150.675781 C 59.976562 149.976562 59.175781 149.625 58.125 149.625 C 57.074219 149.625 56.25 149.976562 55.648438 150.675781 C 55.101562 151.324219 54.824219 152.324219 54.824219 153.675781 C 54.824219 155.074219 55.101562 156.125 55.648438 156.824219 C 56.25 157.523438 57.074219 157.875 58.125 157.875 "/>
<path style=" stroke:none;fill-rule:nonzero;fill:rgb(100%,0%,0%);fill-opacity:1;" d="M 17.023438 205.425781 L 18.449219 205.425781 L 18.449219 209.851562 L 23.699219 209.851562 L 23.699219 205.425781 L 25.125 205.425781 L 25.125 215.699219 L 23.699219 215.699219 L 23.699219 210.976562 L 18.449219 210.976562 L 18.449219 215.699219 L 17.023438 215.699219 L 17.023438 205.425781 "/>
<path style=" stroke:none;fill-rule:nonzero;fill:rgb(100%,0%,0%);fill-opacity:1;" d="M 26.324219 210.523438 C 26.324219 208.875 26.726562 207.601562 27.523438 206.699219 C 28.375 205.800781 29.550781 205.351562 31.050781 205.351562 C 32.601562 205.351562 33.773438 205.800781 34.574219 206.699219 C 35.375 207.601562 35.773438 208.875 35.773438 210.523438 C 35.773438 212.226562 35.375 213.550781 34.574219 214.5 C 33.726562 215.449219 32.550781 215.925781 31.050781 215.925781 C 29.550781 215.925781 28.375 215.449219 27.523438 214.5 C 26.726562 213.550781 26.324219 212.226562 26.324219 210.523438 M 31.050781 214.726562 C 32.101562 214.726562 32.898438 214.375 33.449219 213.675781 C 34.050781 212.976562 34.351562 211.925781 34.351562 210.523438 C 34.351562 209.226562 34.050781 208.226562 33.449219 207.523438 C 32.898438 206.824219 32.101562 206.476562 31.050781 206.476562 C 30 206.476562 29.199219 206.824219 28.648438 207.523438 C 28.101562 208.175781 27.824219 209.175781 27.824219 210.523438 C 27.824219 211.925781 28.101562 212.976562 28.648438 213.675781 C 29.199219 214.375 30 214.726562 31.050781 214.726562 "/>
<path style=" stroke:none;fill-rule:nonzero;fill:rgb(0%,0%,100%);fill-opacity:1;" d="M 121.5 179.773438 L 124.875 185.175781 C 125.074219 185.574219 125.351562 186.101562 125.699219 186.75 C 126.101562 187.398438 126.300781 187.726562 126.300781 187.726562 L 126.300781 179.773438 L 127.648438 179.773438 L 127.648438 190.050781 L 126.226562 190.050781 L 122.625 184.125 C 122.324219 183.625 122.023438 183.125 121.726562 182.625 C 121.476562 182.074219 121.300781 181.726562 121.199219 181.574219 L 121.199219 190.050781 L 119.851562 190.050781 L 119.851562 179.773438 L 121.5 179.773438 "/>
<path style=" stroke:none;fill-rule:nonzero;fill:rgb(100%,0%,0%);fill-opacity:1;" d="M 122.476562 117.824219 C 122.476562 116.175781 122.875 114.898438 123.675781 114 C 124.523438 113.101562 125.699219 112.648438 127.199219 112.648438 C 128.699219 112.648438 129.875 113.101562 130.726562 114 C 131.523438 114.898438 131.925781 116.175781 131.925781 117.824219 C 131.925781 119.523438 131.523438 120.851562 130.726562 121.800781 C 129.875 122.75 128.699219 123.226562 127.199219 123.226562 C 125.699219 123.226562 124.523438 122.75 123.675781 121.800781 C 122.875 120.851562 122.476562 119.523438 122.476562 117.824219 M 127.199219 122.023438 C 128.25 122.023438 129.050781 121.675781 129.601562 120.976562 C 130.199219 120.273438 130.5 119.226562 130.5 117.824219 C 130.5 116.476562 130.199219 115.476562 129.601562 114.824219 C 129.050781 114.125 128.25 113.773438 127.199219 113.773438 C 126.148438 113.773438 125.351562 114.125 124.800781 114.824219 C 124.199219 115.476562 123.898438 116.476562 123.898438 117.824219 C 123.898438 119.226562 124.199219 120.273438 124.800781 120.976562 C 125.351562 121.675781 126.148438 122.023438 127.199219 122.023438 "/>
<path style=" stroke:none;fill-rule:nonzero;fill:rgb(0%,0%,100%);fill-opacity:1;" d="M 204.148438 150.375 L 207.523438 155.851562 C 207.773438 156.199219 208.074219 156.699219 208.425781 157.351562 C 208.773438 158 208.976562 158.351562 209.023438 158.398438 L 209.023438 150.375 L 210.375 150.375 L 210.375 160.648438 L 208.949219 160.648438 L 205.351562 154.726562 C 205.050781 154.226562 204.75 153.726562 204.449219 153.226562 C 204.148438 152.675781 203.949219 152.324219 203.851562 152.175781 L 203.851562 160.648438 L 202.574219 160.648438 L 202.574219 150.375 L 204.148438 150.375 "/>
<path style=" stroke:none;fill-rule:nonzero;fill:rgb(0%,0%,100%);fill-opacity:1;" d="M 202.425781 139.050781 L 203.851562 139.050781 L 203.851562 143.398438 L 209.101562 143.398438 L 209.101562 139.050781 L 210.449219 139.050781 L 210.449219 149.324219 L 209.101562 149.324219 L 209.101562 144.601562 L 203.851562 144.601562 L 203.851562 149.324219 L 202.425781 149.324219 L 202.425781 139.050781 "/>
<path style=" stroke:none;fill-rule:nonzero;fill:rgb(100%,0%,0%);fill-opacity:1;" d="M 222.824219 214.875 C 222.824219 213.226562 223.226562 211.949219 224.023438 211.050781 C 224.824219 210.101562 226 209.625 227.550781 209.625 C 229.050781 209.625 230.199219 210.101562 231 211.050781 C 231.851562 211.949219 232.273438 213.226562 232.273438 214.875 C 232.273438 216.523438 231.851562 217.824219 231 218.773438 C 230.199219 219.726562 229.050781 220.199219 227.550781 220.199219 C 226.050781 220.199219 224.875 219.726562 224.023438 218.773438 C 223.226562 217.875 222.824219 216.574219 222.824219 214.875 M 227.550781 219.074219 C 228.601562 219.074219 229.398438 218.726562 229.949219 218.023438 C 230.5 217.324219 230.773438 216.273438 230.773438 214.875 C 230.773438 213.523438 230.5 212.523438 229.949219 211.875 C 229.398438 211.175781 228.601562 210.824219 227.550781 210.824219 C 226.5 210.824219 225.675781 211.148438 225.074219 211.800781 C 224.523438 212.5 224.25 213.523438 224.25 214.875 C 224.25 216.273438 224.523438 217.324219 225.074219 218.023438 C 225.675781 218.726562 226.5 219.074219 227.550781 219.074219 "/>
<path style=" stroke:none;fill-rule:nonzero;fill:rgb(0%,0%,100%);fill-opacity:1;" d="M 272.699219 126 L 276.074219 131.476562 C 276.273438 131.824219 276.550781 132.324219 276.898438 132.976562 C 277.300781 133.625 277.5 133.976562 277.5 134.023438 L 277.5 126 L 278.851562 126 L 278.851562 136.351562 L 277.425781 136.351562 L 273.824219 130.351562 C 273.523438 129.898438 273.226562 129.398438 272.925781 128.851562 C 272.675781 128.351562 272.5 128 272.398438 127.800781 L 272.398438 136.351562 L 271.050781 136.351562 L 271.050781 126 L 272.699219 126 "/>
<path style=" stroke:none;fill-rule:nonzero;fill:rgb(0%,0%,100%);fill-opacity:1;" d="M 280.050781 126 L 281.476562 126 L 281.476562 130.425781 L 286.726562 130.425781 L 286.726562 126 L 288.148438 126 L 288.148438 136.351562 L 286.726562 136.351562 L 286.726562 131.550781 L 281.476562 131.550781 L 281.476562 136.351562 L 280.050781 136.351562 L 280.050781 126 "/>
<path style=" stroke:none;fill-rule:nonzero;fill:rgb(0%,0%,100%);fill-opacity:1;" d="M 289.351562 135.976562 C 289.550781 135.523438 289.851562 135.199219 290.25 135 C 290.648438 134.75 291.125 134.625 291.675781 134.625 C 292.324219 134.625 292.851562 134.800781 293.25 135.148438 C 293.648438 135.550781 293.851562 136.074219 293.851562 136.726562 C 293.851562 137.375 293.601562 138.023438 293.101562 138.675781 C 292.601562 139.273438 291.824219 139.949219 290.773438 140.699219 L 293.925781 140.699219 L 293.925781 141.449219 L 289.351562 141.449219 L 289.351562 140.851562 C 290.199219 140.25 290.875 139.726562 291.375 139.273438 C 291.875 138.824219 292.25 138.398438 292.5 138 C 292.75 137.601562 292.875 137.175781 292.875 136.726562 C 292.875 136.324219 292.75 136 292.5 135.75 C 292.300781 135.5 292.023438 135.375 291.675781 135.375 C 291.273438 135.375 290.949219 135.449219 290.699219 135.601562 C 290.5 135.75 290.300781 135.976562 290.101562 136.273438 L 289.351562 135.976562 "/>
<path style=" stroke:none;fill-rule:nonzero;fill:rgb(80%,80%,0%);fill-opacity:1;" d="M 156.601562 240.300781 C 156.648438 240.300781 156.851562 240.375 157.199219 240.523438 C 157.5 240.675781 157.824219 240.800781 158.175781 240.898438 C 158.523438 240.949219 158.875 240.976562 159.226562 240.976562 C 159.875 240.976562 160.398438 240.824219 160.800781 240.523438 C 161.148438 240.226562 161.324219 239.773438 161.324219 239.175781 C 161.324219 238.824219 161.226562 238.523438 161.023438 238.273438 C 160.875 238.074219 160.648438 237.898438 160.351562 237.75 C 160.050781 237.648438 159.648438 237.523438 159.148438 237.375 C 158.550781 237.175781 158.074219 236.976562 157.726562 236.773438 C 157.375 236.625 157.050781 236.375 156.75 236.023438 C 156.5 235.625 156.375 235.125 156.375 234.523438 C 156.375 233.675781 156.675781 232.976562 157.273438 232.425781 C 157.875 231.875 158.75 231.601562 159.898438 231.601562 C 160.699219 231.601562 161.550781 231.800781 162.449219 232.199219 L 162.074219 233.324219 C 161.273438 232.976562 160.574219 232.800781 159.976562 232.800781 C 159.273438 232.800781 158.75 232.949219 158.398438 233.25 C 158 233.5 157.824219 233.875 157.875 234.375 C 157.875 234.726562 157.949219 235 158.101562 235.199219 C 158.300781 235.449219 158.550781 235.625 158.851562 235.726562 C 159.101562 235.875 159.476562 236.023438 159.976562 236.175781 C 160.574219 236.375 161.050781 236.574219 161.398438 236.773438 C 161.800781 236.925781 162.125 237.199219 162.375 237.601562 C 162.625 238 162.75 238.523438 162.75 239.175781 C 162.75 240.125 162.449219 240.875 161.851562 241.425781 C 161.199219 241.925781 160.351562 242.175781 159.300781 242.175781 C 158.699219 242.175781 158.148438 242.101562 157.648438 241.949219 C 157.199219 241.851562 156.699219 241.675781 156.148438 241.425781 L 156.601562 240.300781 "/>
<path style=" stroke:none;fill-rule:nonzero;fill:rgb(0%,0%,0%);fill-opacity:1;" d="M 188.324219 201.976562 L 189.675781 201.976562 L 189.675781 206.324219 L 195 206.324219 L 195 201.976562 L 196.351562 201.976562 L 196.351562 212.25 L 195 212.25 L 195 207.523438 L 189.675781 207.523438 L 189.675781 212.25 L 188.324219 212.25 L 188.324219 201.976562 "/>
</g>
</svg>
