<?xml version="1.0" encoding="UTF-8"?>
<svg xmlns="http://www.w3.org/2000/svg" xmlns:xlink="http://www.w3.org/1999/xlink" width="375pt" height="375pt" viewBox="0 0 375 375" version="1.1">
<g id="surface321">
<rect x="0" y="0" width="375" height="375" style="fill:rgb(100%,100%,100%);fill-opacity:1;stroke:none;"/>
<path style="fill:none;stroke-width:2;stroke-linecap:butt;stroke-linejoin:miter;stroke:rgb(0%,0%,0%);stroke-opacity:1;stroke-miterlimit:4;" d="M 172.697917 173.098958 L 187.098958 176.901042 " transform="matrix(0.75,0,0,0.75,0,0)"/>
<path style="fill:none;stroke-width:2;stroke-linecap:butt;stroke-linejoin:miter;stroke:rgb(100%,0%,0%);stroke-opacity:1;stroke-miterlimit:4;" d="M 187.098958 176.901042 L 201.598958 180.697917 " transform="matrix(0.75,0,0,0.75,0,0)"/>
<path style="fill:none;stroke-width:2;stroke-linecap:butt;stroke-linejoin:miter;stroke:rgb(100%,0%,0%);stroke-opacity:1;stroke-miterlimit:4;" d="M 209.197917 188.697917 L 213 202.697917 " transform="matrix(0.75,0,0,0.75,0,0)"/>
<path style="fill:none;stroke-width:2;stroke-linecap:butt;stroke-linejoin:miter;stroke:rgb(0%,0%,0%);stroke-opacity:1;stroke-miterlimit:4;" d="M 213 202.697917 L 216.802083 216.802083 " transform="matrix(0.75,0,0,0.75,0,0)"/>
<path style="fill-rule:evenodd;fill:rgb(0%,0%,0%);fill-opacity:1;stroke-width:1;stroke-linecap:butt;stroke-linejoin:miter;stroke:rgb(0%,0%,0%);stroke-opacity:1;stroke-miterlimit:4;" d="M 216.802083 216.802083 L 203.098958 222.401042 L 202.197917 219 Z M 216.802083 216.802083 " transform="matrix(0.75,0,0,0.75,0,0)"/>
<path style="fill-rule:evenodd;fill:rgb(0%,0%,100%);fill-opacity:1;stroke-width:1;stroke-linecap:butt;stroke-linejoin:miter;stroke:rgb(0%,0%,100%);stroke-opacity:1;stroke-miterlimit:4;" d="M 203.098958 222.401042 L 187.5 221.098958 L 189.401042 228 Z M 203.098958 222.401042 " transform="matrix(0.75,0,0,0.75,0,0)"/>
<path style="fill-rule:evenodd;fill:rgb(0%,0%,100%);fill-opacity:1;stroke-width:1;stroke-linecap:butt;stroke-linejoin:miter;stroke:rgb(0%,0%,100%);stroke-opacity:1;stroke-miterlimit:4;" d="M 203.098958 222.401042 L 202.197917 219 L 187.5 221.098958 Z M 203.098958 222.401042 " transform="matrix(0.75,0,0,0.75,0,0)"/>
<path style="fill:none;stroke-width:2;stroke-linecap:butt;stroke-linejoin:miter;stroke:rgb(0%,0%,100%);stroke-opacity:1;stroke-miterlimit:4;" d="M 180.598958 232.5 L 176.901042 246.697917 " transform="matrix(0.75,0,0,0.75,0,0)"/>
<path style="fill:none;stroke-width:2;stroke-linecap:butt;stroke-linejoin:miter;stroke:rgb(0%,0%,0%);stroke-opacity:1;stroke-miterlimit:4;" d="M 176.901042 246.697917 L 173.098958 261 " transform="matrix(0.75,0,0,0.75,0,0)"/>
<path style="fill:none;stroke-width:2;stroke-linecap:butt;stroke-linejoin:miter;stroke:rgb(0%,0%,0%);stroke-opacity:1;stroke-miterlimit:4;" d="M 176 258.697917 L 182.5 267 " transform="matrix(0.75,0,0,0.75,0,0)"/>
<path style="fill:none;stroke-width:2;stroke-linecap:butt;stroke-linejoin:miter;stroke:rgb(100%,0%,0%);stroke-opacity:1;stroke-miterlimit:4;" d="M 182.5 267 L 189 275.197917 " transform="matrix(0.75,0,0,0.75,0,0)"/>
<path style="fill:none;stroke-width:2;stroke-linecap:butt;stroke-linejoin:miter;stroke:rgb(0%,0%,0%);stroke-opacity:1;stroke-miterlimit:4;" d="M 170.302083 263.197917 L 176.802083 271.401042 " transform="matrix(0.75,0,0,0.75,0,0)"/>
<path style="fill:none;stroke-width:2;stroke-linecap:butt;stroke-linejoin:miter;stroke:rgb(100%,0%,0%);stroke-opacity:1;stroke-miterlimit:4;" d="M 176.802083 271.401042 L 183.302083 279.697917 " transform="matrix(0.75,0,0,0.75,0,0)"/>
<path style="fill:none;stroke-width:2;stroke-linecap:butt;stroke-linejoin:miter;stroke:rgb(0%,0%,0%);stroke-opacity:1;stroke-miterlimit:4;" d="M 173.098958 261 L 138.5 270.401042 " transform="matrix(0.75,0,0,0.75,0,0)"/>
<path style="fill:none;stroke-width:2;stroke-linecap:butt;stroke-linejoin:miter;stroke:rgb(0%,0%,0%);stroke-opacity:1;stroke-miterlimit:4;" d="M 138.5 270.401042 L 129.401042 305.098958 " transform="matrix(0.75,0,0,0.75,0,0)"/>
<path style="fill:none;stroke-width:2;stroke-linecap:butt;stroke-linejoin:miter;stroke:rgb(0%,0%,0%);stroke-opacity:1;stroke-miterlimit:4;" d="M 130.401042 308.598958 L 116 312.5 " transform="matrix(0.75,0,0,0.75,0,0)"/>
<path style="fill:none;stroke-width:2;stroke-linecap:butt;stroke-linejoin:miter;stroke:rgb(100%,0%,0%);stroke-opacity:1;stroke-miterlimit:4;" d="M 116 312.5 L 101.598958 316.401042 " transform="matrix(0.75,0,0,0.75,0,0)"/>
<path style="fill:none;stroke-width:2;stroke-linecap:butt;stroke-linejoin:miter;stroke:rgb(0%,0%,0%);stroke-opacity:1;stroke-miterlimit:4;" d="M 128.5 301.697917 L 114.098958 305.598958 " transform="matrix(0.75,0,0,0.75,0,0)"/>
<path style="fill:none;stroke-width:2;stroke-linecap:butt;stroke-linejoin:miter;stroke:rgb(100%,0%,0%);stroke-opacity:1;stroke-miterlimit:4;" d="M 114.098958 305.598958 L 99.697917 309.5 " transform="matrix(0.75,0,0,0.75,0,0)"/>
<path style="fill:none;stroke-width:2;stroke-linecap:butt;stroke-linejoin:miter;stroke:rgb(0%,0%,0%);stroke-opacity:1;stroke-miterlimit:4;" d="M 129.401042 305.098958 L 139.302083 314.901042 " transform="matrix(0.75,0,0,0.75,0,0)"/>
<path style="fill:none;stroke-width:2;stroke-linecap:butt;stroke-linejoin:miter;stroke:rgb(100%,0%,0%);stroke-opacity:1;stroke-miterlimit:4;" d="M 139.302083 314.901042 L 149.098958 324.598958 " transform="matrix(0.75,0,0,0.75,0,0)"/>
<path style="fill:none;stroke-width:2;stroke-linecap:butt;stroke-linejoin:miter;stroke:rgb(0%,0%,0%);stroke-opacity:1;stroke-miterlimit:4;" d="M 138.5 270.401042 L 113 245.197917 " transform="matrix(0.75,0,0,0.75,0,0)"/>
<path style="fill:none;stroke-width:2;stroke-linecap:butt;stroke-linejoin:miter;stroke:rgb(0%,0%,0%);stroke-opacity:1;stroke-miterlimit:4;" d="M 113 245.197917 L 78.401042 254.697917 " transform="matrix(0.75,0,0,0.75,0,0)"/>
<path style="fill:none;stroke-width:2;stroke-linecap:butt;stroke-linejoin:miter;stroke:rgb(0%,0%,0%);stroke-opacity:1;stroke-miterlimit:4;" d="M 106 239.697917 L 81.697917 246.302083 " transform="matrix(0.75,0,0,0.75,0,0)"/>
<path style="fill:none;stroke-width:2;stroke-linecap:butt;stroke-linejoin:miter;stroke:rgb(0%,0%,0%);stroke-opacity:1;stroke-miterlimit:4;" d="M 78.401042 254.697917 L 52.901042 229.401042 " transform="matrix(0.75,0,0,0.75,0,0)"/>
<path style="fill:none;stroke-width:2;stroke-linecap:butt;stroke-linejoin:miter;stroke:rgb(0%,0%,0%);stroke-opacity:1;stroke-miterlimit:4;" d="M 52.901042 229.401042 L 62.098958 194.697917 " transform="matrix(0.75,0,0,0.75,0,0)"/>
<path style="fill:none;stroke-width:2;stroke-linecap:butt;stroke-linejoin:miter;stroke:rgb(0%,0%,0%);stroke-opacity:1;stroke-miterlimit:4;" d="M 61.302083 226 L 67.598958 201.697917 " transform="matrix(0.75,0,0,0.75,0,0)"/>
<path style="fill:none;stroke-width:2;stroke-linecap:butt;stroke-linejoin:miter;stroke:rgb(0%,0%,0%);stroke-opacity:1;stroke-miterlimit:4;" d="M 62.098958 194.697917 L 52.197917 185 " transform="matrix(0.75,0,0,0.75,0,0)"/>
<path style="fill:none;stroke-width:2;stroke-linecap:butt;stroke-linejoin:miter;stroke:rgb(100%,0%,0%);stroke-opacity:1;stroke-miterlimit:4;" d="M 52.197917 185 L 42.401042 175.302083 " transform="matrix(0.75,0,0,0.75,0,0)"/>
<path style="fill:none;stroke-width:2;stroke-linecap:butt;stroke-linejoin:miter;stroke:rgb(0%,0%,0%);stroke-opacity:1;stroke-miterlimit:4;" d="M 62.098958 194.697917 L 96.697917 185.302083 " transform="matrix(0.75,0,0,0.75,0,0)"/>
<path style="fill:none;stroke-width:2;stroke-linecap:butt;stroke-linejoin:miter;stroke:rgb(0%,0%,0%);stroke-opacity:1;stroke-miterlimit:4;" d="M 96.697917 185.302083 L 122.098958 210.5 " transform="matrix(0.75,0,0,0.75,0,0)"/>
<path style="fill:none;stroke-width:2;stroke-linecap:butt;stroke-linejoin:miter;stroke:rgb(0%,0%,0%);stroke-opacity:1;stroke-miterlimit:4;" d="M 95.401042 194.098958 L 113.302083 211.802083 " transform="matrix(0.75,0,0,0.75,0,0)"/>
<path style="fill:none;stroke-width:2;stroke-linecap:butt;stroke-linejoin:miter;stroke:rgb(0%,0%,0%);stroke-opacity:1;stroke-miterlimit:4;" d="M 216.802083 216.802083 L 226.302083 251.401042 " transform="matrix(0.75,0,0,0.75,0,0)"/>
<path style="fill:none;stroke-width:2;stroke-linecap:butt;stroke-linejoin:miter;stroke:rgb(0%,0%,0%);stroke-opacity:1;stroke-miterlimit:4;" d="M 229.598958 252.802083 L 225.302083 263 " transform="matrix(0.75,0,0,0.75,0,0)"/>
<path style="fill:none;stroke-width:2;stroke-linecap:butt;stroke-linejoin:miter;stroke:rgb(100%,0%,0%);stroke-opacity:1;stroke-miterlimit:4;" d="M 225.302083 263 L 221 273.302083 " transform="matrix(0.75,0,0,0.75,0,0)"/>
<path style="fill:none;stroke-width:2;stroke-linecap:butt;stroke-linejoin:miter;stroke:rgb(0%,0%,0%);stroke-opacity:1;stroke-miterlimit:4;" d="M 223 250 L 218.697917 260.302083 " transform="matrix(0.75,0,0,0.75,0,0)"/>
<path style="fill:none;stroke-width:2;stroke-linecap:butt;stroke-linejoin:miter;stroke:rgb(100%,0%,0%);stroke-opacity:1;stroke-miterlimit:4;" d="M 218.697917 260.302083 L 214.401042 270.5 " transform="matrix(0.75,0,0,0.75,0,0)"/>
<path style="fill:none;stroke-width:2;stroke-linecap:butt;stroke-linejoin:miter;stroke:rgb(0%,0%,0%);stroke-opacity:1;stroke-miterlimit:4;" d="M 226.302083 251.401042 L 241.098958 247.401042 " transform="matrix(0.75,0,0,0.75,0,0)"/>
<path style="fill:none;stroke-width:2;stroke-linecap:butt;stroke-linejoin:miter;stroke:rgb(0%,0%,100%);stroke-opacity:1;stroke-miterlimit:4;" d="M 241.098958 247.401042 L 255.901042 243.302083 " transform="matrix(0.75,0,0,0.75,0,0)"/>
<path style="fill:none;stroke-width:2;stroke-linecap:butt;stroke-linejoin:miter;stroke:rgb(0%,0%,100%);stroke-opacity:1;stroke-miterlimit:4;" d="M 265.901042 243.302083 L 280.802083 247.197917 " transform="matrix(0.75,0,0,0.75,0,0)"/>
<path style="fill:none;stroke-width:2;stroke-linecap:butt;stroke-linejoin:miter;stroke:rgb(0%,0%,0%);stroke-opacity:1;stroke-miterlimit:4;" d="M 280.802083 247.197917 L 295.598958 251.098958 " transform="matrix(0.75,0,0,0.75,0,0)"/>
<path style="fill:none;stroke-width:2;stroke-linecap:butt;stroke-linejoin:miter;stroke:rgb(0%,0%,0%);stroke-opacity:1;stroke-miterlimit:4;" d="M 295.598958 251.098958 L 305.098958 285.697917 " transform="matrix(0.75,0,0,0.75,0,0)"/>
<path style="fill:none;stroke-width:2;stroke-linecap:butt;stroke-linejoin:miter;stroke:rgb(0%,0%,0%);stroke-opacity:1;stroke-miterlimit:4;" d="M 307.598958 288.197917 L 297.901042 298 " transform="matrix(0.75,0,0,0.75,0,0)"/>
<path style="fill:none;stroke-width:2;stroke-linecap:butt;stroke-linejoin:miter;stroke:rgb(100%,0%,0%);stroke-opacity:1;stroke-miterlimit:4;" d="M 297.901042 298 L 288.197917 307.802083 " transform="matrix(0.75,0,0,0.75,0,0)"/>
<path style="fill:none;stroke-width:2;stroke-linecap:butt;stroke-linejoin:miter;stroke:rgb(0%,0%,0%);stroke-opacity:1;stroke-miterlimit:4;" d="M 302.5 283.098958 L 292.802083 292.901042 " transform="matrix(0.75,0,0,0.75,0,0)"/>
<path style="fill:none;stroke-width:2;stroke-linecap:butt;stroke-linejoin:miter;stroke:rgb(100%,0%,0%);stroke-opacity:1;stroke-miterlimit:4;" d="M 292.802083 292.901042 L 283.098958 302.697917 " transform="matrix(0.75,0,0,0.75,0,0)"/>
<path style="fill:none;stroke-width:2;stroke-linecap:butt;stroke-linejoin:miter;stroke:rgb(0%,0%,0%);stroke-opacity:1;stroke-miterlimit:4;" d="M 305.098958 285.697917 L 319.5 289.5 " transform="matrix(0.75,0,0,0.75,0,0)"/>
<path style="fill:none;stroke-width:2;stroke-linecap:butt;stroke-linejoin:miter;stroke:rgb(100%,0%,0%);stroke-opacity:1;stroke-miterlimit:4;" d="M 319.5 289.5 L 333.901042 293.197917 " transform="matrix(0.75,0,0,0.75,0,0)"/>
<path style="fill:none;stroke-width:2;stroke-linecap:butt;stroke-linejoin:miter;stroke:rgb(0%,0%,0%);stroke-opacity:1;stroke-miterlimit:4;" d="M 295.598958 251.098958 L 320.802083 225.598958 " transform="matrix(0.75,0,0,0.75,0,0)"/>
<path style="fill:none;stroke-width:2;stroke-linecap:butt;stroke-linejoin:miter;stroke:rgb(0%,0%,0%);stroke-opacity:1;stroke-miterlimit:4;" d="M 294.302083 242.197917 L 312 224.302083 " transform="matrix(0.75,0,0,0.75,0,0)"/>
<path style="fill:none;stroke-width:2;stroke-linecap:butt;stroke-linejoin:miter;stroke:rgb(0%,0%,0%);stroke-opacity:1;stroke-miterlimit:4;" d="M 320.802083 225.598958 L 355.5 234.697917 " transform="matrix(0.75,0,0,0.75,0,0)"/>
<path style="fill:none;stroke-width:2;stroke-linecap:butt;stroke-linejoin:miter;stroke:rgb(0%,0%,0%);stroke-opacity:1;stroke-miterlimit:4;" d="M 355.5 234.697917 L 365.901042 224.197917 " transform="matrix(0.75,0,0,0.75,0,0)"/>
<path style="fill:none;stroke-width:2;stroke-linecap:butt;stroke-linejoin:miter;stroke:rgb(80%,80%,0%);stroke-opacity:1;stroke-miterlimit:4;" d="M 365.901042 224.197917 L 376.302083 213.697917 " transform="matrix(0.75,0,0,0.75,0,0)"/>
<path style="fill:none;stroke-width:2;stroke-linecap:butt;stroke-linejoin:miter;stroke:rgb(80%,80%,0%);stroke-opacity:1;stroke-miterlimit:4;" d="M 385.197917 210.302083 L 400.302083 214.302083 " transform="matrix(0.75,0,0,0.75,0,0)"/>
<path style="fill:none;stroke-width:2;stroke-linecap:butt;stroke-linejoin:miter;stroke:rgb(0%,0%,0%);stroke-opacity:1;stroke-miterlimit:4;" d="M 400.302083 214.302083 L 415.5 218.302083 " transform="matrix(0.75,0,0,0.75,0,0)"/>
<path style="fill:none;stroke-width:2;stroke-linecap:butt;stroke-linejoin:miter;stroke:rgb(0%,0%,0%);stroke-opacity:1;stroke-miterlimit:4;" d="M 415.5 218.302083 L 426.802083 209 " transform="matrix(0.75,0,0,0.75,0,0)"/>
<path style="fill:none;stroke-width:2;stroke-linecap:butt;stroke-linejoin:miter;stroke:rgb(0%,0%,100%);stroke-opacity:1;stroke-miterlimit:4;" d="M 426.802083 209 L 438.197917 199.697917 " transform="matrix(0.75,0,0,0.75,0,0)"/>
<path style="fill:none;stroke-width:2;stroke-linecap:butt;stroke-linejoin:miter;stroke:rgb(0%,0%,0%);stroke-opacity:1;stroke-miterlimit:4;" d="M 423.401042 221.098958 L 431.401042 214.5 " transform="matrix(0.75,0,0,0.75,0,0)"/>
<path style="fill:none;stroke-width:2;stroke-linecap:butt;stroke-linejoin:miter;stroke:rgb(0%,0%,100%);stroke-opacity:1;stroke-miterlimit:4;" d="M 431.401042 214.5 L 439.302083 208 " transform="matrix(0.75,0,0,0.75,0,0)"/>
<path style="fill:none;stroke-width:2;stroke-linecap:butt;stroke-linejoin:miter;stroke:rgb(0%,0%,100%);stroke-opacity:1;stroke-miterlimit:4;" d="M 448.302083 198.802083 L 468.401042 211.697917 " transform="matrix(0.75,0,0,0.75,0,0)"/>
<path style="fill:none;stroke-width:2;stroke-linecap:butt;stroke-linejoin:miter;stroke:rgb(0%,0%,100%);stroke-opacity:1;stroke-miterlimit:4;" d="M 471.802083 221.197917 L 466 243.401042 " transform="matrix(0.75,0,0,0.75,0,0)"/>
<path style="fill:none;stroke-width:2;stroke-linecap:butt;stroke-linejoin:miter;stroke:rgb(0%,0%,100%);stroke-opacity:1;stroke-miterlimit:4;" d="M 464 222.697917 L 459.901042 238.302083 " transform="matrix(0.75,0,0,0.75,0,0)"/>
<path style="fill:none;stroke-width:2;stroke-linecap:butt;stroke-linejoin:miter;stroke:rgb(0%,0%,100%);stroke-opacity:1;stroke-miterlimit:4;" d="M 459.302083 249.901042 L 433.5 251.401042 " transform="matrix(0.75,0,0,0.75,0,0)"/>
<path style="fill:none;stroke-width:2;stroke-linecap:butt;stroke-linejoin:miter;stroke:rgb(0%,0%,100%);stroke-opacity:1;stroke-miterlimit:4;" d="M 424.5 258 L 416.802083 269.901042 " transform="matrix(0.75,0,0,0.75,0,0)"/>
<path style="fill:none;stroke-width:2;stroke-linecap:butt;stroke-linejoin:miter;stroke:rgb(0%,0%,0%);stroke-opacity:1;stroke-miterlimit:4;" d="M 416.802083 269.901042 L 409.098958 281.901042 " transform="matrix(0.75,0,0,0.75,0,0)"/>
<path style="fill:none;stroke-width:2;stroke-linecap:butt;stroke-linejoin:miter;stroke:rgb(0%,0%,0%);stroke-opacity:1;stroke-miterlimit:4;" d="M 320.802083 225.598958 L 311.401042 191 " transform="matrix(0.75,0,0,0.75,0,0)"/>
<path style="fill:none;stroke-width:2;stroke-linecap:butt;stroke-linejoin:miter;stroke:rgb(0%,0%,0%);stroke-opacity:1;stroke-miterlimit:4;" d="M 311.401042 191 L 297 187.197917 " transform="matrix(0.75,0,0,0.75,0,0)"/>
<path style="fill:none;stroke-width:2;stroke-linecap:butt;stroke-linejoin:miter;stroke:rgb(100%,0%,0%);stroke-opacity:1;stroke-miterlimit:4;" d="M 297 187.197917 L 282.5 183.401042 " transform="matrix(0.75,0,0,0.75,0,0)"/>
<path style="fill:none;stroke-width:2;stroke-linecap:butt;stroke-linejoin:miter;stroke:rgb(100%,0%,0%);stroke-opacity:1;stroke-miterlimit:4;" d="M 270.901042 187.802083 L 261.197917 197.598958 " transform="matrix(0.75,0,0,0.75,0,0)"/>
<path style="fill:none;stroke-width:2;stroke-linecap:butt;stroke-linejoin:miter;stroke:rgb(0%,0%,0%);stroke-opacity:1;stroke-miterlimit:4;" d="M 261.197917 197.598958 L 251.5 207.302083 " transform="matrix(0.75,0,0,0.75,0,0)"/>
<path style="fill:none;stroke-width:2;stroke-linecap:butt;stroke-linejoin:miter;stroke:rgb(0%,0%,0%);stroke-opacity:1;stroke-miterlimit:4;" d="M 251.5 207.302083 L 216.802083 216.802083 " transform="matrix(0.75,0,0,0.75,0,0)"/>
<path style="fill:none;stroke-width:2;stroke-linecap:butt;stroke-linejoin:miter;stroke:rgb(0%,0%,0%);stroke-opacity:1;stroke-miterlimit:4;" d="M 122.098958 210.5 L 113 245.197917 " transform="matrix(0.75,0,0,0.75,0,0)"/>
<path style="fill:none;stroke-width:2;stroke-linecap:butt;stroke-linejoin:miter;stroke:rgb(0%,0%,0%);stroke-opacity:1;stroke-miterlimit:4;" d="M 251.5 207.302083 L 255.302083 221.5 " transform="matrix(0.75,0,0,0.75,0,0)"/>
<path style="fill:none;stroke-width:2;stroke-linecap:butt;stroke-linejoin:miter;stroke:rgb(0%,0%,100%);stroke-opacity:1;stroke-miterlimit:4;" d="M 255.302083 221.5 L 259.197917 235.697917 " transform="matrix(0.75,0,0,0.75,0,0)"/>
<path style="fill:none;stroke-width:2;stroke-linecap:butt;stroke-linejoin:miter;stroke:rgb(0%,0%,100%);stroke-opacity:1;stroke-miterlimit:4;" d="M 426.098958 245.5 L 420.802083 231.901042 " transform="matrix(0.75,0,0,0.75,0,0)"/>
<path style="fill:none;stroke-width:2;stroke-linecap:butt;stroke-linejoin:miter;stroke:rgb(0%,0%,0%);stroke-opacity:1;stroke-miterlimit:4;" d="M 420.802083 231.901042 L 415.5 218.302083 " transform="matrix(0.75,0,0,0.75,0,0)"/>
<path style="fill:none;stroke-width:1;stroke-linecap:butt;stroke-linejoin:miter;stroke:rgb(0%,0%,0%);stroke-opacity:1;stroke-miterlimit:4;" d="M 249.302083 202.302083 L 248.098958 203 " transform="matrix(0.75,0,0,0.75,0,0)"/>
<path style="fill:none;stroke-width:1;stroke-linecap:butt;stroke-linejoin:miter;stroke:rgb(0%,0%,0%);stroke-opacity:1;stroke-miterlimit:4;" d="M 247.197917 197.197917 L 244.697917 198.598958 " transform="matrix(0.75,0,0,0.75,0,0)"/>
<path style="fill:none;stroke-width:1;stroke-linecap:butt;stroke-linejoin:miter;stroke:rgb(0%,0%,0%);stroke-opacity:1;stroke-miterlimit:4;" d="M 245 192.098958 L 241.401042 194.302083 " transform="matrix(0.75,0,0,0.75,0,0)"/>
<path style="fill:none;stroke-width:1;stroke-linecap:butt;stroke-linejoin:miter;stroke:rgb(0%,0%,0%);stroke-opacity:1;stroke-miterlimit:4;" d="M 242.901042 187.098958 L 238 189.901042 " transform="matrix(0.75,0,0,0.75,0,0)"/>
<path style="fill:none;stroke-width:1;stroke-linecap:butt;stroke-linejoin:miter;stroke:rgb(0%,0%,0%);stroke-opacity:1;stroke-miterlimit:4;" d="M 240.802083 182 L 234.598958 185.598958 " transform="matrix(0.75,0,0,0.75,0,0)"/>
<path style=" stroke:none;fill-rule:nonzero;fill:rgb(100%,0%,0%);fill-opacity:1;" d="M 152.023438 136.648438 C 152.023438 135.449219 152.324219 134.5 152.925781 133.800781 C 153.523438 133.148438 154.398438 132.824219 155.550781 132.824219 C 156.648438 132.824219 157.5 133.148438 158.101562 133.800781 C 158.75 134.5 159.074219 135.449219 159.074219 136.648438 C 159.074219 137.898438 158.75 138.875 158.101562 139.574219 C 157.5 140.273438 156.648438 140.625 155.550781 140.625 C 154.398438 140.625 153.523438 140.273438 152.925781 139.574219 C 152.324219 138.875 152.023438 137.898438 152.023438 136.648438 M 155.550781 139.800781 C 156.300781 139.800781 156.898438 139.523438 157.351562 138.976562 C 157.75 138.476562 157.949219 137.699219 157.949219 136.648438 C 157.949219 135.648438 157.75 134.898438 157.351562 134.398438 C 156.898438 133.898438 156.300781 133.648438 155.550781 133.648438 C 154.75 133.648438 154.148438 133.898438 153.75 134.398438 C 153.351562 134.898438 153.148438 135.648438 153.148438 136.648438 C 153.148438 137.699219 153.351562 138.476562 153.75 138.976562 C 154.148438 139.523438 154.75 139.800781 155.550781 139.800781 "/>
<path style=" stroke:none;fill-rule:nonzero;fill:rgb(0%,0%,100%);fill-opacity:1;" d="M 126.898438 165.898438 L 127.949219 165.898438 L 127.949219 169.125 L 131.851562 169.125 L 131.851562 165.898438 L 132.898438 165.898438 L 132.898438 173.476562 L 131.851562 173.476562 L 131.851562 170.023438 L 127.949219 170.023438 L 127.949219 173.476562 L 126.898438 173.476562 L 126.898438 165.898438 "/>
<path style=" stroke:none;fill-rule:nonzero;fill:rgb(0%,0%,100%);fill-opacity:1;" d="M 135 165.898438 L 137.476562 169.949219 C 137.675781 170.199219 137.898438 170.574219 138.148438 171.074219 C 138.398438 171.523438 138.550781 171.773438 138.601562 171.824219 L 138.601562 165.898438 L 139.574219 165.898438 L 139.574219 173.476562 L 138.523438 173.476562 L 135.824219 169.125 C 135.625 168.773438 135.425781 168.398438 135.226562 168 C 134.976562 167.601562 134.824219 167.351562 134.773438 167.25 L 134.773438 173.476562 L 133.800781 173.476562 L 133.800781 165.898438 L 135 165.898438 "/>
<path style=" stroke:none;fill-rule:nonzero;fill:rgb(100%,0%,0%);fill-opacity:1;" d="M 139.875 212.851562 C 139.875 211.648438 140.175781 210.699219 140.773438 210 C 141.375 209.300781 142.226562 208.949219 143.324219 208.949219 C 144.476562 208.949219 145.351562 209.300781 145.949219 210 C 146.550781 210.699219 146.851562 211.648438 146.851562 212.851562 C 146.851562 214.101562 146.550781 215.074219 145.949219 215.773438 C 145.351562 216.476562 144.476562 216.824219 143.324219 216.824219 C 142.226562 216.824219 141.375 216.476562 140.773438 215.773438 C 140.175781 215.074219 139.875 214.101562 139.875 212.851562 M 143.324219 215.925781 C 144.125 215.925781 144.726562 215.675781 145.125 215.175781 C 145.574219 214.625 145.800781 213.851562 145.800781 212.851562 C 145.800781 211.851562 145.574219 211.101562 145.125 210.601562 C 144.726562 210.101562 144.125 209.851562 143.324219 209.851562 C 142.574219 209.851562 141.976562 210.101562 141.523438 210.601562 C 141.125 211.101562 140.925781 211.851562 140.925781 212.851562 C 140.925781 213.898438 141.125 214.675781 141.523438 215.175781 C 141.976562 215.675781 142.574219 215.925781 143.324219 215.925781 "/>
<path style=" stroke:none;fill-rule:nonzero;fill:rgb(100%,0%,0%);fill-opacity:1;" d="M 67.648438 235.949219 C 67.648438 234.75 67.949219 233.800781 68.550781 233.101562 C 69.148438 232.398438 70 232.050781 71.101562 232.050781 C 72.25 232.050781 73.125 232.398438 73.726562 233.101562 C 74.324219 233.800781 74.625 234.75 74.625 235.949219 C 74.625 237.199219 74.324219 238.175781 73.726562 238.875 C 73.074219 239.574219 72.199219 239.925781 71.101562 239.925781 C 70 239.925781 69.148438 239.574219 68.550781 238.875 C 67.949219 238.175781 67.648438 237.199219 67.648438 235.949219 M 71.101562 239.023438 C 71.898438 239.023438 72.5 238.773438 72.898438 238.273438 C 73.351562 237.773438 73.574219 237 73.574219 235.949219 C 73.574219 234.949219 73.351562 234.199219 72.898438 233.699219 C 72.5 233.199219 71.898438 232.949219 71.101562 232.949219 C 70.351562 232.949219 69.75 233.199219 69.300781 233.699219 C 68.898438 234.199219 68.699219 234.949219 68.699219 235.949219 C 68.699219 237 68.898438 237.773438 69.300781 238.273438 C 69.75 238.773438 70.351562 239.023438 71.101562 239.023438 "/>
<path style=" stroke:none;fill-rule:nonzero;fill:rgb(100%,0%,0%);fill-opacity:1;" d="M 112.726562 247.800781 C 112.726562 246.550781 113.023438 245.601562 113.625 244.949219 C 114.226562 244.25 115.074219 243.898438 116.175781 243.898438 C 117.324219 243.898438 118.199219 244.25 118.800781 244.949219 C 119.398438 245.601562 119.699219 246.550781 119.699219 247.800781 C 119.699219 249.050781 119.398438 250.023438 118.800781 250.726562 C 118.148438 251.425781 117.273438 251.773438 116.175781 251.773438 C 115.074219 251.773438 114.226562 251.425781 113.625 250.726562 C 113.023438 250.023438 112.726562 249.050781 112.726562 247.800781 M 116.175781 250.875 C 116.976562 250.875 117.574219 250.625 117.976562 250.125 C 118.425781 249.574219 118.648438 248.800781 118.648438 247.800781 C 118.648438 246.800781 118.425781 246.050781 117.976562 245.550781 C 117.574219 245.050781 116.976562 244.800781 116.175781 244.800781 C 115.425781 244.800781 114.824219 245.050781 114.375 245.550781 C 113.976562 246.050781 113.773438 246.800781 113.773438 247.800781 C 113.773438 248.800781 113.976562 249.574219 114.375 250.125 C 114.824219 250.625 115.425781 250.875 116.175781 250.875 "/>
<path style=" stroke:none;fill-rule:nonzero;fill:rgb(100%,0%,0%);fill-opacity:1;" d="M 120.226562 243.976562 L 121.273438 243.976562 L 121.273438 247.273438 L 125.175781 247.273438 L 125.175781 243.976562 L 126.226562 243.976562 L 126.226562 251.625 L 125.175781 251.625 L 125.175781 248.101562 L 121.273438 248.101562 L 121.273438 251.625 L 120.226562 251.625 L 120.226562 243.976562 "/>
<path style=" stroke:none;fill-rule:nonzero;fill:rgb(100%,0%,0%);fill-opacity:1;" d="M 17.023438 123.375 L 18.074219 123.375 L 18.074219 126.601562 L 21.976562 126.601562 L 21.976562 123.375 L 23.023438 123.375 L 23.023438 130.949219 L 21.976562 130.949219 L 21.976562 127.425781 L 18.074219 127.425781 L 18.074219 130.949219 L 17.023438 130.949219 L 17.023438 123.375 "/>
<path style=" stroke:none;fill-rule:nonzero;fill:rgb(100%,0%,0%);fill-opacity:1;" d="M 23.925781 127.125 C 23.925781 125.925781 24.226562 124.976562 24.824219 124.273438 C 25.425781 123.574219 26.300781 123.226562 27.449219 123.226562 C 28.550781 123.226562 29.398438 123.574219 30 124.273438 C 30.601562 124.976562 30.898438 125.925781 30.898438 127.125 C 30.898438 128.375 30.601562 129.351562 30 130.050781 C 29.398438 130.75 28.550781 131.101562 27.449219 131.101562 C 26.300781 131.101562 25.425781 130.75 24.824219 130.050781 C 24.226562 129.351562 23.925781 128.375 23.925781 127.125 M 27.449219 130.199219 C 28.199219 130.199219 28.773438 129.949219 29.175781 129.449219 C 29.625 128.898438 29.851562 128.125 29.851562 127.125 C 29.851562 126.125 29.625 125.375 29.175781 124.875 C 28.773438 124.375 28.199219 124.125 27.449219 124.125 C 26.648438 124.125 26.050781 124.375 25.648438 124.875 C 25.199219 125.375 24.976562 126.125 24.976562 127.125 C 24.976562 128.175781 25.199219 128.949219 25.648438 129.449219 C 26.050781 129.949219 26.648438 130.199219 27.449219 130.199219 "/>
<path style=" stroke:none;fill-rule:nonzero;fill:rgb(100%,0%,0%);fill-opacity:1;" d="M 157.800781 208.648438 C 157.800781 207.449219 158.101562 206.5 158.699219 205.800781 C 159.300781 205.148438 160.175781 204.824219 161.324219 204.824219 C 162.425781 204.824219 163.300781 205.148438 163.949219 205.800781 C 164.550781 206.5 164.851562 207.449219 164.851562 208.648438 C 164.851562 209.898438 164.523438 210.875 163.875 211.574219 C 163.273438 212.273438 162.425781 212.625 161.324219 212.625 C 160.226562 212.625 159.351562 212.273438 158.699219 211.574219 C 158.101562 210.875 157.800781 209.898438 157.800781 208.648438 M 161.324219 211.800781 C 162.074219 211.800781 162.675781 211.523438 163.125 210.976562 C 163.523438 210.476562 163.726562 209.699219 163.726562 208.648438 C 163.726562 207.699219 163.523438 206.949219 163.125 206.398438 C 162.675781 205.898438 162.074219 205.648438 161.324219 205.648438 C 160.523438 205.648438 159.925781 205.898438 159.523438 206.398438 C 159.125 206.898438 158.925781 207.648438 158.925781 208.648438 C 158.925781 209.699219 159.125 210.476562 159.523438 210.976562 C 159.925781 211.523438 160.523438 211.800781 161.324219 211.800781 "/>
<path style=" stroke:none;fill-rule:nonzero;fill:rgb(0%,0%,100%);fill-opacity:1;" d="M 194.023438 177.675781 L 196.5 181.726562 C 196.648438 181.976562 196.875 182.324219 197.175781 182.773438 C 197.425781 183.273438 197.550781 183.550781 197.550781 183.601562 L 197.550781 177.675781 L 198.601562 177.675781 L 198.601562 185.25 L 197.550781 185.25 L 194.851562 180.824219 C 194.648438 180.523438 194.425781 180.175781 194.175781 179.773438 C 193.976562 179.375 193.851562 179.101562 193.800781 178.949219 L 193.800781 185.25 L 192.824219 185.25 L 192.824219 177.675781 L 194.023438 177.675781 "/>
<path style=" stroke:none;fill-rule:nonzero;fill:rgb(100%,0%,0%);fill-opacity:1;" d="M 206.398438 233.398438 C 206.398438 232.148438 206.699219 231.199219 207.300781 230.550781 C 207.898438 229.851562 208.75 229.5 209.851562 229.5 C 211 229.5 211.875 229.851562 212.476562 230.550781 C 213.074219 231.199219 213.375 232.148438 213.375 233.398438 C 213.375 234.648438 213.074219 235.625 212.476562 236.324219 C 211.875 237.023438 211 237.375 209.851562 237.375 C 208.75 237.375 207.898438 237.023438 207.300781 236.324219 C 206.699219 235.625 206.398438 234.648438 206.398438 233.398438 M 209.851562 236.476562 C 210.648438 236.476562 211.25 236.226562 211.648438 235.726562 C 212.101562 235.175781 212.324219 234.398438 212.324219 233.398438 C 212.324219 232.398438 212.101562 231.648438 211.648438 231.148438 C 211.25 230.648438 210.648438 230.398438 209.851562 230.398438 C 209.101562 230.398438 208.5 230.648438 208.050781 231.148438 C 207.648438 231.648438 207.449219 232.398438 207.449219 233.398438 C 207.449219 234.398438 207.648438 235.175781 208.050781 235.726562 C 208.5 236.226562 209.101562 236.476562 209.851562 236.476562 "/>
<path style=" stroke:none;fill-rule:nonzero;fill:rgb(100%,0%,0%);fill-opacity:1;" d="M 251.324219 221.101562 C 251.324219 219.898438 251.625 218.949219 252.226562 218.25 C 252.824219 217.550781 253.699219 217.199219 254.851562 217.199219 C 255.949219 217.199219 256.800781 217.550781 257.398438 218.25 C 258 218.949219 258.300781 219.898438 258.300781 221.101562 C 258.300781 222.351562 258 223.324219 257.398438 224.023438 C 256.800781 224.726562 255.949219 225.074219 254.851562 225.074219 C 253.699219 225.074219 252.824219 224.726562 252.226562 224.023438 C 251.625 223.324219 251.324219 222.351562 251.324219 221.101562 M 254.851562 224.175781 C 255.601562 224.175781 256.175781 223.925781 256.574219 223.425781 C 257.023438 222.875 257.25 222.101562 257.25 221.101562 C 257.25 220.101562 257.023438 219.351562 256.574219 218.851562 C 256.175781 218.351562 255.601562 218.101562 254.851562 218.101562 C 254.050781 218.101562 253.449219 218.351562 253.050781 218.851562 C 252.601562 219.351562 252.375 220.101562 252.375 221.101562 C 252.375 222.148438 252.601562 222.925781 253.050781 223.425781 C 253.449219 223.925781 254.050781 224.175781 254.851562 224.175781 "/>
<path style=" stroke:none;fill-rule:nonzero;fill:rgb(100%,0%,0%);fill-opacity:1;" d="M 258.824219 217.273438 L 259.875 217.273438 L 259.875 220.574219 L 263.773438 220.574219 L 263.773438 217.273438 L 264.824219 217.273438 L 264.824219 224.925781 L 263.773438 224.925781 L 263.773438 221.398438 L 259.875 221.398438 L 259.875 224.925781 L 258.824219 224.925781 L 258.824219 217.273438 "/>
<path style=" stroke:none;fill-rule:nonzero;fill:rgb(80%,80%,0%);fill-opacity:1;" d="M 283.425781 159.523438 C 283.476562 159.523438 283.625 159.574219 283.875 159.675781 C 284.125 159.773438 284.375 159.851562 284.625 159.898438 C 284.875 160 285.125 160.050781 285.375 160.050781 C 285.875 160.050781 286.273438 159.925781 286.574219 159.675781 C 286.824219 159.425781 286.949219 159.101562 286.949219 158.699219 C 286.949219 158.398438 286.875 158.175781 286.726562 158.023438 C 286.625 157.875 286.449219 157.75 286.199219 157.648438 C 286 157.550781 285.726562 157.449219 285.375 157.351562 C 284.925781 157.199219 284.550781 157.050781 284.25 156.898438 C 284 156.800781 283.773438 156.601562 283.574219 156.300781 C 283.375 156.050781 283.273438 155.699219 283.273438 155.25 C 283.273438 154.601562 283.5 154.074219 283.949219 153.675781 C 284.398438 153.273438 285.050781 153.074219 285.898438 153.074219 C 286.5 153.074219 287.125 153.226562 287.773438 153.523438 L 287.550781 154.351562 C 286.949219 154.101562 286.398438 153.976562 285.898438 153.976562 C 285.398438 153.976562 285.023438 154.074219 284.773438 154.273438 C 284.523438 154.476562 284.398438 154.75 284.398438 155.101562 C 284.398438 155.351562 284.449219 155.574219 284.550781 155.773438 C 284.699219 155.925781 284.875 156.050781 285.074219 156.148438 C 285.273438 156.25 285.550781 156.351562 285.898438 156.449219 C 286.398438 156.601562 286.773438 156.75 287.023438 156.898438 C 287.273438 157.050781 287.5 157.25 287.699219 157.5 C 287.898438 157.800781 288 158.199219 288 158.699219 C 288 159.398438 287.773438 159.949219 287.324219 160.351562 C 286.875 160.699219 286.25 160.875 285.449219 160.875 C 285 160.875 284.601562 160.824219 284.25 160.726562 C 283.898438 160.625 283.523438 160.5 283.125 160.351562 L 283.425781 159.523438 "/>
<path style=" stroke:none;fill-rule:nonzero;fill:rgb(0%,0%,100%);fill-opacity:1;" d="M 330.75 142.875 L 333.226562 146.925781 C 333.375 147.175781 333.601562 147.550781 333.898438 148.050781 C 334.148438 148.5 334.273438 148.75 334.273438 148.800781 L 334.273438 142.875 L 335.324219 142.875 L 335.324219 150.523438 L 334.273438 150.523438 L 331.574219 146.101562 C 331.375 145.75 331.175781 145.375 330.976562 144.976562 C 330.726562 144.574219 330.574219 144.324219 330.523438 144.226562 L 330.523438 150.523438 L 329.550781 150.523438 L 329.550781 142.875 L 330.75 142.875 "/>
<path style=" stroke:none;fill-rule:nonzero;fill:rgb(0%,0%,100%);fill-opacity:1;" d="M 353.398438 157.425781 L 355.875 161.476562 C 356.023438 161.726562 356.25 162.074219 356.550781 162.523438 C 356.800781 163.023438 356.925781 163.300781 356.925781 163.351562 L 356.925781 157.425781 L 357.976562 157.425781 L 357.976562 165 L 356.925781 165 L 354.226562 160.648438 C 354.023438 160.300781 353.800781 159.925781 353.550781 159.523438 C 353.351562 159.125 353.226562 158.851562 353.175781 158.699219 L 353.175781 165 L 352.199219 165 L 352.199219 157.425781 L 353.398438 157.425781 "/>
<path style=" stroke:none;fill-rule:nonzero;fill:rgb(0%,0%,100%);fill-opacity:1;" d="M 346.574219 183.449219 L 349.050781 187.5 C 349.199219 187.75 349.425781 188.101562 349.726562 188.550781 C 349.976562 189.050781 350.101562 189.324219 350.101562 189.375 L 350.101562 183.449219 L 351.148438 183.449219 L 351.148438 191.023438 L 350.101562 191.023438 L 347.398438 186.601562 C 347.199219 186.300781 346.976562 185.949219 346.726562 185.550781 C 346.523438 185.148438 346.398438 184.875 346.351562 184.726562 L 346.351562 191.023438 L 345.375 191.023438 L 345.375 183.449219 L 346.574219 183.449219 "/>
<path style=" stroke:none;fill-rule:nonzero;fill:rgb(0%,0%,100%);fill-opacity:1;" d="M 319.726562 184.949219 L 322.199219 189 C 322.351562 189.25 322.550781 189.625 322.800781 190.125 C 323.101562 190.625 323.25 190.875 323.25 190.875 L 323.25 184.949219 L 324.300781 184.949219 L 324.300781 192.601562 L 323.25 192.601562 L 320.550781 188.175781 C 320.351562 187.824219 320.125 187.449219 319.875 187.050781 C 319.675781 186.648438 319.550781 186.398438 319.5 186.300781 L 319.5 192.601562 L 318.449219 192.601562 L 318.449219 184.949219 L 319.726562 184.949219 "/>
<path style=" stroke:none;fill-rule:nonzero;fill:rgb(100%,0%,0%);fill-opacity:1;" d="M 204 136.425781 C 204 135.175781 204.300781 134.226562 204.898438 133.574219 C 205.5 132.875 206.375 132.523438 207.523438 132.523438 C 208.625 132.523438 209.476562 132.875 210.074219 133.574219 C 210.726562 134.226562 211.050781 135.175781 211.050781 136.425781 C 211.050781 137.675781 210.726562 138.648438 210.074219 139.351562 C 209.476562 140.050781 208.625 140.398438 207.523438 140.398438 C 206.375 140.398438 205.5 140.050781 204.898438 139.351562 C 204.300781 138.648438 204 137.675781 204 136.425781 M 207.523438 139.5 C 208.273438 139.5 208.875 139.25 209.324219 138.75 C 209.726562 138.199219 209.925781 137.425781 209.925781 136.425781 C 209.925781 135.425781 209.726562 134.675781 209.324219 134.175781 C 208.875 133.675781 208.273438 133.425781 207.523438 133.425781 C 206.726562 133.425781 206.125 133.675781 205.726562 134.175781 C 205.324219 134.675781 205.125 135.425781 205.125 136.425781 C 205.125 137.425781 205.324219 138.199219 205.726562 138.75 C 206.125 139.25 206.726562 139.5 207.523438 139.5 "/>
<path style=" stroke:none;fill-rule:nonzero;fill:rgb(0%,0%,0%);fill-opacity:1;" d="M 172.050781 128.476562 L 173.101562 128.476562 L 173.101562 131.699219 L 177 131.699219 L 177 128.476562 L 177.976562 128.476562 L 177.976562 136.125 L 177 136.125 L 177 132.601562 L 173.101562 132.601562 L 173.101562 136.125 L 172.050781 136.125 L 172.050781 128.476562 "/>
</g>
</svg>
