<?xml version="1.0" encoding="UTF-8"?>
<svg xmlns="http://www.w3.org/2000/svg" xmlns:xlink="http://www.w3.org/1999/xlink" width="375pt" height="375pt" viewBox="0 0 375 375" version="1.1">
<g id="surface41">
<rect x="0" y="0" width="375" height="375" style="fill:rgb(100%,100%,100%);fill-opacity:1;stroke:none;"/>
<path style="fill:none;stroke-width:2;stroke-linecap:butt;stroke-linejoin:miter;stroke:rgb(0%,0%,100%);stroke-opacity:1;stroke-miterlimit:4;" d="M 63.901042 184.802083 L 80.598958 203.697917 " transform="matrix(0.75,0,0,0.75,0,0)"/>
<path style="fill:none;stroke-width:2;stroke-linecap:butt;stroke-linejoin:miter;stroke:rgb(0%,0%,0%);stroke-opacity:1;stroke-miterlimit:4;" d="M 80.598958 203.697917 L 97.197917 222.5 " transform="matrix(0.75,0,0,0.75,0,0)"/>
<path style="fill:none;stroke-width:2;stroke-linecap:butt;stroke-linejoin:miter;stroke:rgb(0%,0%,0%);stroke-opacity:1;stroke-miterlimit:4;" d="M 103.197917 224.598958 L 95 249.197917 " transform="matrix(0.75,0,0,0.75,0,0)"/>
<path style="fill:none;stroke-width:2;stroke-linecap:butt;stroke-linejoin:miter;stroke:rgb(100%,0%,0%);stroke-opacity:1;stroke-miterlimit:4;" d="M 95 249.197917 L 86.697917 273.802083 " transform="matrix(0.75,0,0,0.75,0,0)"/>
<path style="fill:none;stroke-width:2;stroke-linecap:butt;stroke-linejoin:miter;stroke:rgb(0%,0%,0%);stroke-opacity:1;stroke-miterlimit:4;" d="M 91.098958 220.5 L 82.901042 245.098958 " transform="matrix(0.75,0,0,0.75,0,0)"/>
<path style="fill:none;stroke-width:2;stroke-linecap:butt;stroke-linejoin:miter;stroke:rgb(100%,0%,0%);stroke-opacity:1;stroke-miterlimit:4;" d="M 82.901042 245.098958 L 74.598958 269.802083 " transform="matrix(0.75,0,0,0.75,0,0)"/>
<path style="fill:none;stroke-width:1;stroke-linecap:butt;stroke-linejoin:miter;stroke:rgb(0%,0%,0%);stroke-opacity:1;stroke-miterlimit:4;" d="M 149.098958 211 L 149.5 213.098958 " transform="matrix(0.75,0,0,0.75,0,0)"/>
<path style="fill:none;stroke-width:1;stroke-linecap:butt;stroke-linejoin:miter;stroke:rgb(0%,0%,0%);stroke-opacity:1;stroke-miterlimit:4;" d="M 138.5 212 L 139.302083 216.197917 " transform="matrix(0.75,0,0,0.75,0,0)"/>
<path style="fill:none;stroke-width:1;stroke-linecap:butt;stroke-linejoin:miter;stroke:rgb(0%,0%,0%);stroke-opacity:1;stroke-miterlimit:4;" d="M 127.802083 213.098958 L 129.098958 219.401042 " transform="matrix(0.75,0,0,0.75,0,0)"/>
<path style="fill:none;stroke-width:1;stroke-linecap:butt;stroke-linejoin:miter;stroke:rgb(0%,0%,0%);stroke-opacity:1;stroke-miterlimit:4;" d="M 117.197917 214.098958 L 118.901042 222.5 " transform="matrix(0.75,0,0,0.75,0,0)"/>
<path style="fill:none;stroke-width:1;stroke-linecap:butt;stroke-linejoin:miter;stroke:rgb(0%,0%,0%);stroke-opacity:1;stroke-miterlimit:4;" d="M 106.598958 215.197917 L 108.697917 225.697917 " transform="matrix(0.75,0,0,0.75,0,0)"/>
<path style="fill:none;stroke-width:1;stroke-linecap:butt;stroke-linejoin:miter;stroke:rgb(0%,0%,0%);stroke-opacity:1;stroke-miterlimit:4;" d="M 95.901042 216.302083 L 98.5 228.802083 " transform="matrix(0.75,0,0,0.75,0,0)"/>
<path style="fill:none;stroke-width:2;stroke-linecap:butt;stroke-linejoin:miter;stroke:rgb(0%,0%,0%);stroke-opacity:1;stroke-miterlimit:4;" d="M 159.802083 209.901042 L 180.098958 149.401042 " transform="matrix(0.75,0,0,0.75,0,0)"/>
<path style="fill:none;stroke-width:2;stroke-linecap:butt;stroke-linejoin:miter;stroke:rgb(0%,0%,0%);stroke-opacity:1;stroke-miterlimit:4;" d="M 180.098958 149.401042 L 242.697917 136.802083 " transform="matrix(0.75,0,0,0.75,0,0)"/>
<path style="fill:none;stroke-width:2;stroke-linecap:butt;stroke-linejoin:miter;stroke:rgb(0%,0%,0%);stroke-opacity:1;stroke-miterlimit:4;" d="M 242.697917 136.802083 L 284.901042 184.598958 " transform="matrix(0.75,0,0,0.75,0,0)"/>
<path style="fill:none;stroke-width:2;stroke-linecap:butt;stroke-linejoin:miter;stroke:rgb(0%,0%,0%);stroke-opacity:1;stroke-miterlimit:4;" d="M 284.901042 184.598958 L 264.598958 245.098958 " transform="matrix(0.75,0,0,0.75,0,0)"/>
<path style="fill:none;stroke-width:2;stroke-linecap:butt;stroke-linejoin:miter;stroke:rgb(0%,0%,0%);stroke-opacity:1;stroke-miterlimit:4;" d="M 264.598958 245.098958 L 237.802083 250.598958 " transform="matrix(0.75,0,0,0.75,0,0)"/>
<path style="fill:none;stroke-width:2;stroke-linecap:butt;stroke-linejoin:miter;stroke:rgb(0%,0%,100%);stroke-opacity:1;stroke-miterlimit:4;" d="M 237.802083 250.598958 L 211 256 " transform="matrix(0.75,0,0,0.75,0,0)"/>
<path style="fill:none;stroke-width:2;stroke-linecap:butt;stroke-linejoin:miter;stroke:rgb(0%,0%,100%);stroke-opacity:1;stroke-miterlimit:4;" d="M 211 263.098958 L 234 276.697917 " transform="matrix(0.75,0,0,0.75,0,0)"/>
<path style="fill:none;stroke-width:2;stroke-linecap:butt;stroke-linejoin:miter;stroke:rgb(0%,0%,0%);stroke-opacity:1;stroke-miterlimit:4;" d="M 234 276.697917 L 257 290.302083 " transform="matrix(0.75,0,0,0.75,0,0)"/>
<path style="fill:none;stroke-width:2;stroke-linecap:butt;stroke-linejoin:miter;stroke:rgb(0%,0%,0%);stroke-opacity:1;stroke-miterlimit:4;" d="M 263.302083 289.697917 L 265.802083 315.802083 " transform="matrix(0.75,0,0,0.75,0,0)"/>
<path style="fill:none;stroke-width:2;stroke-linecap:butt;stroke-linejoin:miter;stroke:rgb(100%,0%,0%);stroke-opacity:1;stroke-miterlimit:4;" d="M 265.802083 315.802083 L 268.302083 342 " transform="matrix(0.75,0,0,0.75,0,0)"/>
<path style="fill:none;stroke-width:2;stroke-linecap:butt;stroke-linejoin:miter;stroke:rgb(0%,0%,0%);stroke-opacity:1;stroke-miterlimit:4;" d="M 250.598958 290.901042 L 253.098958 317 " transform="matrix(0.75,0,0,0.75,0,0)"/>
<path style="fill:none;stroke-width:2;stroke-linecap:butt;stroke-linejoin:miter;stroke:rgb(100%,0%,0%);stroke-opacity:1;stroke-miterlimit:4;" d="M 253.098958 317 L 255.598958 343.197917 " transform="matrix(0.75,0,0,0.75,0,0)"/>
<path style="fill:none;stroke-width:2;stroke-linecap:butt;stroke-linejoin:miter;stroke:rgb(0%,0%,0%);stroke-opacity:1;stroke-miterlimit:4;" d="M 257 290.302083 L 276.401042 273.098958 " transform="matrix(0.75,0,0,0.75,0,0)"/>
<path style="fill:none;stroke-width:2;stroke-linecap:butt;stroke-linejoin:miter;stroke:rgb(0%,0%,100%);stroke-opacity:1;stroke-miterlimit:4;" d="M 276.401042 273.098958 L 295.901042 255.901042 " transform="matrix(0.75,0,0,0.75,0,0)"/>
<path style="fill:none;stroke-width:2;stroke-linecap:butt;stroke-linejoin:miter;stroke:rgb(0%,0%,100%);stroke-opacity:1;stroke-miterlimit:4;" d="M 313.802083 250 L 335.302083 254.802083 " transform="matrix(0.75,0,0,0.75,0,0)"/>
<path style="fill:none;stroke-width:2;stroke-linecap:butt;stroke-linejoin:miter;stroke:rgb(100%,0%,0%);stroke-opacity:1;stroke-miterlimit:4;" d="M 335.302083 254.802083 L 356.697917 259.598958 " transform="matrix(0.75,0,0,0.75,0,0)"/>
<path style="fill:none;stroke-width:2;stroke-linecap:butt;stroke-linejoin:miter;stroke:rgb(100%,0%,0%);stroke-opacity:1;stroke-miterlimit:4;" d="M 377.5 250.697917 L 390 237.098958 " transform="matrix(0.75,0,0,0.75,0,0)"/>
<path style="fill:none;stroke-width:2;stroke-linecap:butt;stroke-linejoin:miter;stroke:rgb(80%,80%,0%);stroke-opacity:1;stroke-miterlimit:4;" d="M 390 237.098958 L 402.401042 223.5 " transform="matrix(0.75,0,0,0.75,0,0)"/>
<path style="fill:none;stroke-width:2;stroke-linecap:butt;stroke-linejoin:miter;stroke:rgb(80%,80%,0%);stroke-opacity:1;stroke-miterlimit:4;" d="M 398.098958 212.401042 L 383.802083 199.197917 " transform="matrix(0.75,0,0,0.75,0,0)"/>
<path style="fill:none;stroke-width:2;stroke-linecap:butt;stroke-linejoin:miter;stroke:rgb(100%,0%,0%);stroke-opacity:1;stroke-miterlimit:4;" d="M 383.802083 199.197917 L 369.401042 186 " transform="matrix(0.75,0,0,0.75,0,0)"/>
<path style="fill:none;stroke-width:2;stroke-linecap:butt;stroke-linejoin:miter;stroke:rgb(80%,80%,0%);stroke-opacity:1;stroke-miterlimit:4;" d="M 406.802083 203 L 392.401042 189.802083 " transform="matrix(0.75,0,0,0.75,0,0)"/>
<path style="fill:none;stroke-width:2;stroke-linecap:butt;stroke-linejoin:miter;stroke:rgb(100%,0%,0%);stroke-opacity:1;stroke-miterlimit:4;" d="M 392.401042 189.802083 L 378.098958 176.598958 " transform="matrix(0.75,0,0,0.75,0,0)"/>
<path style="fill:none;stroke-width:2;stroke-linecap:butt;stroke-linejoin:miter;stroke:rgb(80%,80%,0%);stroke-opacity:1;stroke-miterlimit:4;" d="M 422.598958 217.5 L 436.901042 230.697917 " transform="matrix(0.75,0,0,0.75,0,0)"/>
<path style="fill:none;stroke-width:2;stroke-linecap:butt;stroke-linejoin:miter;stroke:rgb(100%,0%,0%);stroke-opacity:1;stroke-miterlimit:4;" d="M 436.901042 230.697917 L 451.302083 243.901042 " transform="matrix(0.75,0,0,0.75,0,0)"/>
<path style="fill:none;stroke-width:2;stroke-linecap:butt;stroke-linejoin:miter;stroke:rgb(80%,80%,0%);stroke-opacity:1;stroke-miterlimit:4;" d="M 413.901042 226.901042 L 428.302083 240.098958 " transform="matrix(0.75,0,0,0.75,0,0)"/>
<path style="fill:none;stroke-width:2;stroke-linecap:butt;stroke-linejoin:miter;stroke:rgb(100%,0%,0%);stroke-opacity:1;stroke-miterlimit:4;" d="M 428.302083 240.098958 L 442.598958 253.302083 " transform="matrix(0.75,0,0,0.75,0,0)"/>
<path style="fill:none;stroke-width:2;stroke-linecap:butt;stroke-linejoin:miter;stroke:rgb(80%,80%,0%);stroke-opacity:1;stroke-miterlimit:4;" d="M 418.302083 206.302083 L 430.697917 192.802083 " transform="matrix(0.75,0,0,0.75,0,0)"/>
<path style="fill:none;stroke-width:2;stroke-linecap:butt;stroke-linejoin:miter;stroke:rgb(100%,0%,0%);stroke-opacity:1;stroke-miterlimit:4;" d="M 430.697917 192.802083 L 443.098958 179.302083 " transform="matrix(0.75,0,0,0.75,0,0)"/>
<path style="fill:none;stroke-width:2;stroke-linecap:butt;stroke-linejoin:miter;stroke:rgb(0%,0%,100%);stroke-opacity:1;stroke-miterlimit:4;" d="M 193 247.598958 L 176.401042 228.802083 " transform="matrix(0.75,0,0,0.75,0,0)"/>
<path style="fill:none;stroke-width:2;stroke-linecap:butt;stroke-linejoin:miter;stroke:rgb(0%,0%,0%);stroke-opacity:1;stroke-miterlimit:4;" d="M 176.401042 228.802083 L 159.802083 209.901042 " transform="matrix(0.75,0,0,0.75,0,0)"/>
<path style="fill:none;stroke-width:2;stroke-linecap:butt;stroke-linejoin:miter;stroke:rgb(0%,0%,100%);stroke-opacity:1;stroke-miterlimit:4;" d="M 301.302083 236.901042 L 293.098958 210.802083 " transform="matrix(0.75,0,0,0.75,0,0)"/>
<path style="fill:none;stroke-width:2;stroke-linecap:butt;stroke-linejoin:miter;stroke:rgb(0%,0%,0%);stroke-opacity:1;stroke-miterlimit:4;" d="M 293.098958 210.802083 L 284.901042 184.598958 " transform="matrix(0.75,0,0,0.75,0,0)"/>
<path style=" stroke:none;fill-rule:nonzero;fill:rgb(0%,0%,100%);fill-opacity:1;" d="M 17.023438 124.199219 L 18.898438 124.199219 L 18.898438 129.976562 L 25.800781 129.976562 L 25.800781 124.199219 L 27.675781 124.199219 L 27.675781 137.773438 L 25.800781 137.773438 L 25.800781 131.550781 L 18.898438 131.550781 L 18.898438 137.773438 L 17.023438 137.773438 L 17.023438 124.199219 "/>
<path style=" stroke:none;fill-rule:nonzero;fill:rgb(0%,0%,100%);fill-opacity:1;" d="M 29.324219 137.324219 C 29.523438 136.726562 29.898438 136.273438 30.449219 135.976562 C 30.949219 135.675781 31.574219 135.523438 32.324219 135.523438 C 33.226562 135.523438 33.925781 135.773438 34.425781 136.273438 C 34.925781 136.726562 35.175781 137.398438 35.175781 138.300781 C 35.175781 139.148438 34.851562 140 34.199219 140.851562 C 33.550781 141.648438 32.550781 142.550781 31.199219 143.550781 L 35.324219 143.550781 L 35.324219 144.523438 L 29.25 144.523438 L 29.25 143.699219 C 30.398438 142.898438 31.300781 142.226562 31.949219 141.675781 C 32.601562 141.074219 33.101562 140.5 33.449219 139.949219 C 33.75 139.398438 33.898438 138.875 33.898438 138.375 C 33.898438 137.773438 33.75 137.324219 33.449219 137.023438 C 33.199219 136.675781 32.824219 136.5 32.324219 136.5 C 31.824219 136.5 31.425781 136.601562 31.125 136.800781 C 30.773438 137 30.5 137.324219 30.300781 137.773438 L 29.324219 137.324219 "/>
<path style=" stroke:none;fill-rule:nonzero;fill:rgb(0%,0%,100%);fill-opacity:1;" d="M 38.25 124.199219 L 42.675781 131.398438 C 42.976562 131.851562 43.351562 132.523438 43.800781 133.425781 C 44.300781 134.273438 44.550781 134.726562 44.550781 134.773438 L 44.550781 124.199219 L 46.351562 124.199219 L 46.351562 137.773438 L 44.476562 137.773438 L 39.75 129.898438 C 39.351562 129.300781 38.949219 128.648438 38.550781 127.949219 C 38.199219 127.25 37.949219 126.800781 37.800781 126.601562 L 37.800781 137.773438 L 36.074219 137.773438 L 36.074219 124.199219 L 38.25 124.199219 "/>
<path style=" stroke:none;fill-rule:nonzero;fill:rgb(100%,0%,0%);fill-opacity:1;" d="M 51.375 212.324219 C 51.375 210.175781 51.925781 208.476562 53.023438 207.226562 C 54.074219 206.023438 55.601562 205.425781 57.601562 205.425781 C 59.601562 205.425781 61.148438 206.023438 62.25 207.226562 C 63.300781 208.476562 63.824219 210.175781 63.824219 212.324219 C 63.824219 214.523438 63.300781 216.25 62.25 217.5 C 61.148438 218.75 59.601562 219.375 57.601562 219.375 C 55.648438 219.375 54.125 218.75 53.023438 217.5 C 51.925781 216.25 51.375 214.523438 51.375 212.324219 M 57.601562 217.800781 C 59 217.800781 60.074219 217.351562 60.824219 216.449219 C 61.574219 215.5 61.949219 214.125 61.949219 212.324219 C 61.949219 210.574219 61.574219 209.25 60.824219 208.351562 C 60.074219 207.449219 59 207 57.601562 207 C 56.25 207 55.199219 207.425781 54.449219 208.273438 C 53.699219 209.175781 53.324219 210.523438 53.324219 212.324219 C 53.324219 214.175781 53.699219 215.550781 54.449219 216.449219 C 55.199219 217.351562 56.25 217.800781 57.601562 217.800781 "/>
<path style=" stroke:none;fill-rule:nonzero;fill:rgb(0%,0%,100%);fill-opacity:1;" d="M 148.5 186.523438 L 152.925781 193.726562 C 153.226562 194.226562 153.625 194.898438 154.125 195.75 C 154.574219 196.601562 154.824219 197.050781 154.875 197.101562 L 154.875 186.523438 L 156.675781 186.523438 L 156.675781 200.101562 L 154.800781 200.101562 L 150 192.300781 C 149.648438 191.648438 149.273438 190.976562 148.875 190.273438 C 148.476562 189.574219 148.226562 189.125 148.125 188.925781 L 148.125 200.101562 L 146.324219 200.101562 L 146.324219 186.523438 L 148.5 186.523438 "/>
<path style=" stroke:none;fill-rule:nonzero;fill:rgb(100%,0%,0%);fill-opacity:1;" d="M 191.023438 265.425781 C 191.023438 263.226562 191.550781 261.523438 192.601562 260.324219 C 193.699219 259.125 195.25 258.523438 197.25 258.523438 C 199.25 258.523438 200.773438 259.125 201.824219 260.324219 C 202.925781 261.523438 203.476562 263.226562 203.476562 265.425781 C 203.476562 267.625 202.925781 269.351562 201.824219 270.601562 C 200.726562 271.800781 199.199219 272.398438 197.25 272.398438 C 195.25 272.398438 193.699219 271.800781 192.601562 270.601562 C 191.550781 269.351562 191.023438 267.625 191.023438 265.425781 M 197.25 270.898438 C 198.601562 270.898438 199.648438 270.449219 200.398438 269.550781 C 201.148438 268.601562 201.523438 267.226562 201.523438 265.425781 C 201.523438 263.625 201.148438 262.273438 200.398438 261.375 C 199.648438 260.476562 198.601562 260.023438 197.25 260.023438 C 195.851562 260.023438 194.773438 260.476562 194.023438 261.375 C 193.273438 262.273438 192.898438 263.625 192.898438 265.425781 C 192.898438 267.226562 193.273438 268.601562 194.023438 269.550781 C 194.773438 270.449219 195.851562 270.898438 197.25 270.898438 "/>
<path style=" stroke:none;fill-rule:nonzero;fill:rgb(0%,0%,100%);fill-opacity:1;" d="M 225.601562 179.25 L 230.101562 186.449219 C 230.398438 186.898438 230.773438 187.550781 231.226562 188.398438 C 231.675781 189.25 231.925781 189.699219 231.976562 189.75 L 231.976562 179.25 L 233.773438 179.25 L 233.773438 192.824219 L 231.898438 192.824219 L 227.175781 184.949219 C 226.773438 184.351562 226.375 183.699219 225.976562 183 C 225.625 182.300781 225.375 181.824219 225.226562 181.574219 L 225.226562 192.824219 L 223.5 192.824219 L 223.5 179.25 L 225.601562 179.25 "/>
<path style=" stroke:none;fill-rule:nonzero;fill:rgb(100%,0%,0%);fill-opacity:1;" d="M 269.101562 196.5 C 269.101562 194.351562 269.648438 192.648438 270.75 191.398438 C 271.800781 190.199219 273.324219 189.601562 275.324219 189.601562 C 277.375 189.601562 278.925781 190.199219 279.976562 191.398438 C 281.023438 192.648438 281.550781 194.351562 281.550781 196.5 C 281.550781 198.699219 281.023438 200.425781 279.976562 201.675781 C 278.875 202.925781 277.324219 203.550781 275.324219 203.550781 C 273.375 203.550781 271.851562 202.925781 270.75 201.675781 C 269.648438 200.425781 269.101562 198.699219 269.101562 196.5 M 275.324219 201.976562 C 276.726562 201.976562 277.800781 201.523438 278.550781 200.625 C 279.300781 199.675781 279.675781 198.300781 279.675781 196.5 C 279.675781 194.699219 279.300781 193.375 278.550781 192.523438 C 277.800781 191.574219 276.726562 191.101562 275.324219 191.101562 C 273.976562 191.101562 272.925781 191.550781 272.175781 192.449219 C 271.425781 193.351562 271.050781 194.699219 271.050781 196.5 C 271.050781 198.300781 271.425781 199.675781 272.175781 200.625 C 272.925781 201.523438 273.976562 201.976562 275.324219 201.976562 "/>
<path style=" stroke:none;fill-rule:nonzero;fill:rgb(80%,80%,0%);fill-opacity:1;" d="M 303.898438 165.824219 C 304 165.875 304.273438 166 304.726562 166.199219 C 305.125 166.351562 305.550781 166.5 306 166.648438 C 306.5 166.75 306.976562 166.800781 307.425781 166.800781 C 308.273438 166.800781 308.949219 166.574219 309.449219 166.125 C 309.949219 165.726562 310.199219 165.175781 310.199219 164.476562 C 310.199219 163.976562 310.074219 163.550781 309.824219 163.199219 C 309.574219 162.898438 309.273438 162.675781 308.925781 162.523438 C 308.523438 162.375 308 162.199219 307.351562 162 C 306.550781 161.75 305.898438 161.5 305.398438 161.25 C 304.949219 161.050781 304.550781 160.699219 304.199219 160.199219 C 303.851562 159.699219 303.675781 159.050781 303.675781 158.25 C 303.675781 157.101562 304.074219 156.175781 304.875 155.476562 C 305.625 154.773438 306.773438 154.425781 308.324219 154.425781 C 309.375 154.425781 310.5 154.675781 311.699219 155.175781 L 311.25 156.675781 C 310.148438 156.226562 309.199219 156 308.398438 156 C 307.5 156 306.800781 156.175781 306.300781 156.523438 C 305.851562 156.875 305.625 157.375 305.625 158.023438 C 305.625 158.523438 305.75 158.925781 306 159.226562 C 306.25 159.476562 306.550781 159.699219 306.898438 159.898438 C 307.25 160.050781 307.75 160.226562 308.398438 160.425781 C 309.199219 160.675781 309.851562 160.925781 310.351562 161.175781 C 310.800781 161.425781 311.199219 161.824219 311.550781 162.375 C 311.898438 162.875 312.074219 163.574219 312.074219 164.476562 C 312.074219 165.726562 311.675781 166.675781 310.875 167.324219 C 310.023438 167.976562 308.898438 168.300781 307.5 168.300781 C 306.699219 168.300781 306 168.226562 305.398438 168.074219 C 304.800781 167.875 304.148438 167.648438 303.449219 167.398438 L 303.898438 165.824219 "/>
<path style=" stroke:none;fill-rule:nonzero;fill:rgb(100%,0%,0%);fill-opacity:1;" d="M 266.25 128.851562 C 266.25 126.648438 266.800781 124.949219 267.898438 123.75 C 268.949219 122.550781 270.476562 121.949219 272.476562 121.949219 C 274.523438 121.949219 276.074219 122.550781 277.125 123.75 C 278.175781 124.949219 278.699219 126.648438 278.699219 128.851562 C 278.699219 131.050781 278.175781 132.773438 277.125 134.023438 C 276.023438 135.273438 274.476562 135.898438 272.476562 135.898438 C 270.523438 135.898438 269 135.273438 267.898438 134.023438 C 266.800781 132.773438 266.25 131.050781 266.25 128.851562 M 272.476562 134.324219 C 273.875 134.324219 274.949219 133.875 275.699219 132.976562 C 276.449219 132.023438 276.824219 130.648438 276.824219 128.851562 C 276.824219 127.050781 276.449219 125.699219 275.699219 124.800781 C 274.949219 123.898438 273.875 123.449219 272.476562 123.449219 C 271.125 123.449219 270.074219 123.898438 269.324219 124.800781 C 268.574219 125.699219 268.199219 127.050781 268.199219 128.851562 C 268.199219 130.648438 268.574219 132.023438 269.324219 132.976562 C 270.074219 133.875 271.125 134.324219 272.476562 134.324219 "/>
<path style=" stroke:none;fill-rule:nonzero;fill:rgb(100%,0%,0%);fill-opacity:1;" d="M 336.824219 193.648438 C 336.824219 191.449219 337.351562 189.75 338.398438 188.550781 C 339.449219 187.351562 341 186.75 343.050781 186.75 C 345.050781 186.75 346.574219 187.351562 347.625 188.550781 C 348.726562 189.75 349.273438 191.449219 349.273438 193.648438 C 349.273438 195.851562 348.726562 197.574219 347.625 198.824219 C 346.523438 200.074219 345 200.699219 343.050781 200.699219 C 341.050781 200.699219 339.5 200.074219 338.398438 198.824219 C 337.351562 197.574219 336.824219 195.851562 336.824219 193.648438 M 343.050781 199.125 C 344.398438 199.125 345.449219 198.675781 346.199219 197.773438 C 346.949219 196.824219 347.324219 195.449219 347.324219 193.648438 C 347.324219 191.851562 346.949219 190.5 346.199219 189.601562 C 345.449219 188.699219 344.398438 188.25 343.050781 188.25 C 341.648438 188.25 340.574219 188.699219 339.824219 189.601562 C 339.074219 190.5 338.699219 191.851562 338.699219 193.648438 C 338.699219 195.449219 339.074219 196.824219 339.824219 197.773438 C 340.574219 198.675781 341.648438 199.125 343.050781 199.125 "/>
<path style=" stroke:none;fill-rule:nonzero;fill:rgb(100%,0%,0%);fill-opacity:1;" d="M 333.898438 126 C 333.898438 123.800781 334.449219 122.101562 335.550781 120.898438 C 336.601562 119.699219 338.125 119.101562 340.125 119.101562 C 342.175781 119.101562 343.726562 119.699219 344.773438 120.898438 C 345.824219 122.101562 346.351562 123.800781 346.351562 126 C 346.351562 128.199219 345.824219 129.925781 344.773438 131.175781 C 343.675781 132.425781 342.125 133.050781 340.125 133.050781 C 338.175781 133.050781 336.648438 132.425781 335.550781 131.175781 C 334.449219 129.925781 333.898438 128.199219 333.898438 126 M 340.125 131.476562 C 341.523438 131.476562 342.601562 131.023438 343.351562 130.125 C 344.101562 129.175781 344.476562 127.800781 344.476562 126 C 344.476562 124.199219 344.101562 122.851562 343.351562 121.949219 C 342.601562 121.050781 341.523438 120.601562 340.125 120.601562 C 338.773438 120.601562 337.726562 121.050781 336.976562 121.949219 C 336.226562 122.851562 335.851562 124.199219 335.851562 126 C 335.851562 127.800781 336.226562 129.175781 336.976562 130.125 C 337.726562 131.023438 338.773438 131.476562 340.125 131.476562 "/>
<path style=" stroke:none;fill-rule:nonzero;fill:rgb(100%,0%,0%);fill-opacity:1;" d="M 347.324219 119.25 L 349.199219 119.25 L 349.199219 125.023438 L 356.101562 125.023438 L 356.101562 119.25 L 357.976562 119.25 L 357.976562 132.824219 L 356.101562 132.824219 L 356.101562 126.523438 L 349.199219 126.523438 L 349.199219 132.824219 L 347.324219 132.824219 L 347.324219 119.25 "/>
<path style=" stroke:none;fill-rule:evenodd;fill:rgb(0%,0%,0%);fill-opacity:1;" d="M 220.425781 138.449219 L 220.425781 138.523438 L 220.351562 138.675781 L 220.351562 138.824219 L 220.273438 138.898438 L 220.273438 138.976562 L 219.976562 139.273438 L 219.898438 139.273438 L 219.824219 139.351562 L 219.75 139.351562 L 219.675781 139.425781 L 219.226562 139.425781 L 219.148438 139.351562 L 219 139.351562 L 218.925781 139.273438 L 218.851562 139.199219 L 218.773438 139.199219 L 218.699219 139.125 L 218.699219 139.050781 L 218.625 138.976562 L 218.625 138.898438 L 218.550781 138.824219 L 218.550781 138.75 L 218.476562 138.675781 L 218.476562 138.300781 L 218.550781 138.226562 L 218.550781 138.074219 L 218.699219 137.925781 L 218.699219 137.851562 L 218.773438 137.773438 L 218.851562 137.699219 L 218.925781 137.699219 L 219 137.625 L 219.074219 137.625 L 219.148438 137.550781 L 219.75 137.550781 L 219.824219 137.625 L 219.898438 137.625 L 219.976562 137.699219 L 220.050781 137.773438 L 220.125 137.773438 L 220.199219 137.851562 L 220.199219 137.925781 L 220.273438 138 L 220.273438 138.074219 L 220.351562 138.148438 L 220.351562 138.300781 L 220.425781 138.375 L 220.425781 138.449219 L 219.449219 138.449219 Z M 220.425781 138.449219 "/>
</g>
</svg>
