<?xml version="1.0" encoding="UTF-8"?>
<svg xmlns="http://www.w3.org/2000/svg" xmlns:xlink="http://www.w3.org/1999/xlink" width="375pt" height="375pt" viewBox="0 0 375 375" version="1.1">
<g id="surface31">
<rect x="0" y="0" width="375" height="375" style="fill:rgb(100%,100%,100%);fill-opacity:1;stroke:none;"/>
<path style="fill:none;stroke-width:2;stroke-linecap:butt;stroke-linejoin:miter;stroke:rgb(0%,0%,0%);stroke-opacity:1;stroke-miterlimit:4;" d="M 22.697917 244.5 L 33.401042 257.302083 " transform="matrix(0.75,0,0,0.75,0,0)"/>
<path style="fill:none;stroke-width:2;stroke-linecap:butt;stroke-linejoin:miter;stroke:rgb(0%,0%,0%);stroke-opacity:1;stroke-miterlimit:4;" d="M 33.401042 257.302083 L 49.697917 254.401042 " transform="matrix(0.75,0,0,0.75,0,0)"/>
<path style="fill:none;stroke-width:2;stroke-linecap:butt;stroke-linejoin:miter;stroke:rgb(0%,0%,0%);stroke-opacity:1;stroke-miterlimit:4;" d="M 49.697917 254.401042 L 60.401042 267.197917 " transform="matrix(0.75,0,0,0.75,0,0)"/>
<path style="fill:none;stroke-width:2;stroke-linecap:butt;stroke-linejoin:miter;stroke:rgb(0%,0%,0%);stroke-opacity:1;stroke-miterlimit:4;" d="M 60.401042 267.197917 L 76.802083 264.401042 " transform="matrix(0.75,0,0,0.75,0,0)"/>
<path style="fill:none;stroke-width:2;stroke-linecap:butt;stroke-linejoin:miter;stroke:rgb(0%,0%,0%);stroke-opacity:1;stroke-miterlimit:4;" d="M 76.802083 264.401042 L 80.901042 269.302083 " transform="matrix(0.75,0,0,0.75,0,0)"/>
<path style="fill:none;stroke-width:2;stroke-linecap:butt;stroke-linejoin:miter;stroke:rgb(100%,0%,0%);stroke-opacity:1;stroke-miterlimit:4;" d="M 80.901042 269.302083 L 85 274.197917 " transform="matrix(0.75,0,0,0.75,0,0)"/>
<path style="fill:none;stroke-width:2;stroke-linecap:butt;stroke-linejoin:miter;stroke:rgb(100%,0%,0%);stroke-opacity:1;stroke-miterlimit:4;" d="M 90.098958 276.697917 L 96.901042 275.5 " transform="matrix(0.75,0,0,0.75,0,0)"/>
<path style="fill:none;stroke-width:2;stroke-linecap:butt;stroke-linejoin:miter;stroke:rgb(0%,0%,0%);stroke-opacity:1;stroke-miterlimit:4;" d="M 96.901042 275.5 L 103.802083 274.302083 " transform="matrix(0.75,0,0,0.75,0,0)"/>
<path style="fill:none;stroke-width:2;stroke-linecap:butt;stroke-linejoin:miter;stroke:rgb(0%,0%,0%);stroke-opacity:1;stroke-miterlimit:4;" d="M 103.802083 274.302083 L 109.5 258.697917 " transform="matrix(0.75,0,0,0.75,0,0)"/>
<path style="fill:none;stroke-width:2;stroke-linecap:butt;stroke-linejoin:miter;stroke:rgb(0%,0%,0%);stroke-opacity:1;stroke-miterlimit:4;" d="M 106.598958 273.802083 L 111.401042 260.901042 " transform="matrix(0.75,0,0,0.75,0,0)"/>
<path style="fill:none;stroke-width:2;stroke-linecap:butt;stroke-linejoin:miter;stroke:rgb(0%,0%,0%);stroke-opacity:1;stroke-miterlimit:4;" d="M 109.5 258.697917 L 125.901042 255.901042 " transform="matrix(0.75,0,0,0.75,0,0)"/>
<path style="fill:none;stroke-width:2;stroke-linecap:butt;stroke-linejoin:miter;stroke:rgb(0%,0%,0%);stroke-opacity:1;stroke-miterlimit:4;" d="M 125.901042 255.901042 L 136.5 268.697917 " transform="matrix(0.75,0,0,0.75,0,0)"/>
<path style="fill:none;stroke-width:2;stroke-linecap:butt;stroke-linejoin:miter;stroke:rgb(0%,0%,0%);stroke-opacity:1;stroke-miterlimit:4;" d="M 124.901042 258.598958 L 133.697917 269.197917 " transform="matrix(0.75,0,0,0.75,0,0)"/>
<path style="fill:none;stroke-width:2;stroke-linecap:butt;stroke-linejoin:miter;stroke:rgb(0%,0%,0%);stroke-opacity:1;stroke-miterlimit:4;" d="M 136.5 268.697917 L 152.901042 265.802083 " transform="matrix(0.75,0,0,0.75,0,0)"/>
<path style="fill:none;stroke-width:2;stroke-linecap:butt;stroke-linejoin:miter;stroke:rgb(0%,0%,0%);stroke-opacity:1;stroke-miterlimit:4;" d="M 152.901042 265.802083 L 163.5 278.598958 " transform="matrix(0.75,0,0,0.75,0,0)"/>
<path style="fill:none;stroke-width:2;stroke-linecap:butt;stroke-linejoin:miter;stroke:rgb(0%,0%,0%);stroke-opacity:1;stroke-miterlimit:4;" d="M 155.697917 265.401042 L 164.5 275.901042 " transform="matrix(0.75,0,0,0.75,0,0)"/>
<path style="fill:none;stroke-width:2;stroke-linecap:butt;stroke-linejoin:miter;stroke:rgb(0%,0%,0%);stroke-opacity:1;stroke-miterlimit:4;" d="M 163.5 278.598958 L 179.901042 275.802083 " transform="matrix(0.75,0,0,0.75,0,0)"/>
<path style="fill:none;stroke-width:2;stroke-linecap:butt;stroke-linejoin:miter;stroke:rgb(0%,0%,0%);stroke-opacity:1;stroke-miterlimit:4;" d="M 179.901042 275.802083 L 185.697917 260.197917 " transform="matrix(0.75,0,0,0.75,0,0)"/>
<path style="fill:none;stroke-width:2;stroke-linecap:butt;stroke-linejoin:miter;stroke:rgb(0%,0%,0%);stroke-opacity:1;stroke-miterlimit:4;" d="M 178.098958 273.598958 L 182.802083 260.697917 " transform="matrix(0.75,0,0,0.75,0,0)"/>
<path style="fill:none;stroke-width:2;stroke-linecap:butt;stroke-linejoin:miter;stroke:rgb(0%,0%,0%);stroke-opacity:1;stroke-miterlimit:4;" d="M 185.697917 260.197917 L 202 257.401042 " transform="matrix(0.75,0,0,0.75,0,0)"/>
<path style="fill:none;stroke-width:2;stroke-linecap:butt;stroke-linejoin:miter;stroke:rgb(0%,0%,0%);stroke-opacity:1;stroke-miterlimit:4;" d="M 202 257.401042 L 212.697917 270.098958 " transform="matrix(0.75,0,0,0.75,0,0)"/>
<path style="fill:none;stroke-width:2;stroke-linecap:butt;stroke-linejoin:miter;stroke:rgb(0%,0%,0%);stroke-opacity:1;stroke-miterlimit:4;" d="M 204.901042 256.901042 L 213.697917 267.401042 " transform="matrix(0.75,0,0,0.75,0,0)"/>
<path style="fill:none;stroke-width:2;stroke-linecap:butt;stroke-linejoin:miter;stroke:rgb(0%,0%,0%);stroke-opacity:1;stroke-miterlimit:4;" d="M 212.697917 270.098958 L 229.098958 267.302083 " transform="matrix(0.75,0,0,0.75,0,0)"/>
<path style="fill:none;stroke-width:2;stroke-linecap:butt;stroke-linejoin:miter;stroke:rgb(0%,0%,0%);stroke-opacity:1;stroke-miterlimit:4;" d="M 229.098958 267.302083 L 234.802083 251.697917 " transform="matrix(0.75,0,0,0.75,0,0)"/>
<path style="fill:none;stroke-width:2;stroke-linecap:butt;stroke-linejoin:miter;stroke:rgb(0%,0%,0%);stroke-opacity:1;stroke-miterlimit:4;" d="M 227.197917 265.098958 L 232 252.197917 " transform="matrix(0.75,0,0,0.75,0,0)"/>
<path style="fill:none;stroke-width:2;stroke-linecap:butt;stroke-linejoin:miter;stroke:rgb(0%,0%,0%);stroke-opacity:1;stroke-miterlimit:4;" d="M 234.802083 251.697917 L 251.197917 248.901042 " transform="matrix(0.75,0,0,0.75,0,0)"/>
<path style="fill:none;stroke-width:2;stroke-linecap:butt;stroke-linejoin:miter;stroke:rgb(0%,0%,0%);stroke-opacity:1;stroke-miterlimit:4;" d="M 252.098958 250 L 254.5 243.401042 " transform="matrix(0.75,0,0,0.75,0,0)"/>
<path style="fill:none;stroke-width:2;stroke-linecap:butt;stroke-linejoin:miter;stroke:rgb(100%,0%,0%);stroke-opacity:1;stroke-miterlimit:4;" d="M 254.5 243.401042 L 257 236.697917 " transform="matrix(0.75,0,0,0.75,0,0)"/>
<path style="fill:none;stroke-width:2;stroke-linecap:butt;stroke-linejoin:miter;stroke:rgb(0%,0%,0%);stroke-opacity:1;stroke-miterlimit:4;" d="M 249.802083 249.098958 L 252.197917 242.5 " transform="matrix(0.75,0,0,0.75,0,0)"/>
<path style="fill:none;stroke-width:2;stroke-linecap:butt;stroke-linejoin:miter;stroke:rgb(100%,0%,0%);stroke-opacity:1;stroke-miterlimit:4;" d="M 252.197917 242.5 L 254.598958 235.901042 " transform="matrix(0.75,0,0,0.75,0,0)"/>
<path style="fill:none;stroke-width:2;stroke-linecap:butt;stroke-linejoin:miter;stroke:rgb(0%,0%,0%);stroke-opacity:1;stroke-miterlimit:4;" d="M 251.197917 248.901042 L 255.302083 253.802083 " transform="matrix(0.75,0,0,0.75,0,0)"/>
<path style="fill:none;stroke-width:2;stroke-linecap:butt;stroke-linejoin:miter;stroke:rgb(0%,0%,100%);stroke-opacity:1;stroke-miterlimit:4;" d="M 255.302083 253.802083 L 259.401042 258.802083 " transform="matrix(0.75,0,0,0.75,0,0)"/>
<path style="fill-rule:evenodd;fill:rgb(0%,0%,0%);fill-opacity:1;stroke-width:0.5;stroke-linecap:butt;stroke-linejoin:miter;stroke:rgb(0%,0%,0%);stroke-opacity:1;stroke-miterlimit:4;" d="M 278.197917 258.802083 L 271.5 260.598958 L 271.302083 259.401042 Z M 278.197917 258.802083 " transform="matrix(0.75,0,0,0.75,0,0)"/>
<path style="fill-rule:evenodd;fill:rgb(0%,0%,100%);fill-opacity:1;stroke-width:0.5;stroke-linecap:butt;stroke-linejoin:miter;stroke:rgb(0%,0%,100%);stroke-opacity:1;stroke-miterlimit:4;" d="M 271.5 260.598958 L 264.5 259.901042 L 264.901042 262.401042 Z M 271.5 260.598958 " transform="matrix(0.75,0,0,0.75,0,0)"/>
<path style="fill-rule:evenodd;fill:rgb(0%,0%,100%);fill-opacity:1;stroke-width:0.5;stroke-linecap:butt;stroke-linejoin:miter;stroke:rgb(0%,0%,100%);stroke-opacity:1;stroke-miterlimit:4;" d="M 271.5 260.598958 L 271.302083 259.401042 L 264.5 259.901042 Z M 271.5 260.598958 " transform="matrix(0.75,0,0,0.75,0,0)"/>
<path style="fill:none;stroke-width:2;stroke-linecap:butt;stroke-linejoin:miter;stroke:rgb(0%,0%,0%);stroke-opacity:1;stroke-miterlimit:4;" d="M 278.197917 258.802083 L 277.901042 245.197917 " transform="matrix(0.75,0,0,0.75,0,0)"/>
<path style="fill:none;stroke-width:2;stroke-linecap:butt;stroke-linejoin:miter;stroke:rgb(0%,0%,0%);stroke-opacity:1;stroke-miterlimit:4;" d="M 278.697917 239.302083 L 282.401042 226.197917 " transform="matrix(0.75,0,0,0.75,0,0)"/>
<path style="fill-rule:evenodd;fill:rgb(0%,0%,0%);fill-opacity:1;stroke-width:0.5;stroke-linecap:butt;stroke-linejoin:miter;stroke:rgb(0%,0%,0%);stroke-opacity:1;stroke-miterlimit:4;" d="M 282.401042 226.197917 L 276.197917 224.098958 L 276.697917 223 Z M 282.401042 226.197917 " transform="matrix(0.75,0,0,0.75,0,0)"/>
<path style="fill-rule:evenodd;fill:rgb(100%,0%,0%);fill-opacity:1;stroke-width:0.5;stroke-linecap:butt;stroke-linejoin:miter;stroke:rgb(100%,0%,0%);stroke-opacity:1;stroke-miterlimit:4;" d="M 276.197917 224.098958 L 271 219.697917 L 270 222 Z M 276.197917 224.098958 " transform="matrix(0.75,0,0,0.75,0,0)"/>
<path style="fill-rule:evenodd;fill:rgb(100%,0%,0%);fill-opacity:1;stroke-width:0.5;stroke-linecap:butt;stroke-linejoin:miter;stroke:rgb(100%,0%,0%);stroke-opacity:1;stroke-miterlimit:4;" d="M 276.197917 224.098958 L 276.697917 223 L 271 219.697917 Z M 276.197917 224.098958 " transform="matrix(0.75,0,0,0.75,0,0)"/>
<path style="fill:none;stroke-width:2;stroke-linecap:butt;stroke-linejoin:miter;stroke:rgb(0%,0%,0%);stroke-opacity:1;stroke-miterlimit:4;" d="M 282.401042 226.197917 L 291.5 212.302083 " transform="matrix(0.75,0,0,0.75,0,0)"/>
<path style="fill-rule:evenodd;fill:rgb(0%,0%,0%);fill-opacity:1;stroke-width:0.5;stroke-linecap:butt;stroke-linejoin:miter;stroke:rgb(0%,0%,0%);stroke-opacity:1;stroke-miterlimit:4;" d="M 291.5 212.302083 L 286.5 208.697917 L 287.302083 207.802083 Z M 291.5 212.302083 " transform="matrix(0.75,0,0,0.75,0,0)"/>
<path style="fill-rule:evenodd;fill:rgb(100%,0%,0%);fill-opacity:1;stroke-width:0.5;stroke-linecap:butt;stroke-linejoin:miter;stroke:rgb(100%,0%,0%);stroke-opacity:1;stroke-miterlimit:4;" d="M 286.5 208.697917 L 283.098958 203.197917 L 281.5 205.098958 Z M 286.5 208.697917 " transform="matrix(0.75,0,0,0.75,0,0)"/>
<path style="fill-rule:evenodd;fill:rgb(100%,0%,0%);fill-opacity:1;stroke-width:0.5;stroke-linecap:butt;stroke-linejoin:miter;stroke:rgb(100%,0%,0%);stroke-opacity:1;stroke-miterlimit:4;" d="M 286.5 208.697917 L 287.302083 207.802083 L 283.098958 203.197917 Z M 286.5 208.697917 " transform="matrix(0.75,0,0,0.75,0,0)"/>
<path style="fill:none;stroke-width:2;stroke-linecap:butt;stroke-linejoin:miter;stroke:rgb(0%,0%,0%);stroke-opacity:1;stroke-miterlimit:4;" d="M 291.5 212.302083 L 296.098958 208.401042 " transform="matrix(0.75,0,0,0.75,0,0)"/>
<path style="fill:none;stroke-width:2;stroke-linecap:butt;stroke-linejoin:miter;stroke:rgb(0%,0%,100%);stroke-opacity:1;stroke-miterlimit:4;" d="M 296.098958 208.401042 L 300.697917 204.598958 " transform="matrix(0.75,0,0,0.75,0,0)"/>
<path style="fill:none;stroke-width:2;stroke-linecap:butt;stroke-linejoin:miter;stroke:rgb(0%,0%,100%);stroke-opacity:1;stroke-miterlimit:4;" d="M 306.598958 200.697917 L 313.098958 198 " transform="matrix(0.75,0,0,0.75,0,0)"/>
<path style="fill:none;stroke-width:2;stroke-linecap:butt;stroke-linejoin:miter;stroke:rgb(0%,0%,0%);stroke-opacity:1;stroke-miterlimit:4;" d="M 313.098958 198 L 319.598958 195.302083 " transform="matrix(0.75,0,0,0.75,0,0)"/>
<path style="fill:none;stroke-width:2;stroke-linecap:butt;stroke-linejoin:miter;stroke:rgb(0%,0%,0%);stroke-opacity:1;stroke-miterlimit:4;" d="M 320.802083 195.197917 L 319.197917 188.5 " transform="matrix(0.75,0,0,0.75,0,0)"/>
<path style="fill:none;stroke-width:2;stroke-linecap:butt;stroke-linejoin:miter;stroke:rgb(100%,0%,0%);stroke-opacity:1;stroke-miterlimit:4;" d="M 319.197917 188.5 L 317.5 181.901042 " transform="matrix(0.75,0,0,0.75,0,0)"/>
<path style="fill:none;stroke-width:2;stroke-linecap:butt;stroke-linejoin:miter;stroke:rgb(0%,0%,0%);stroke-opacity:1;stroke-miterlimit:4;" d="M 318.401042 195.802083 L 316.697917 189.098958 " transform="matrix(0.75,0,0,0.75,0,0)"/>
<path style="fill:none;stroke-width:2;stroke-linecap:butt;stroke-linejoin:miter;stroke:rgb(100%,0%,0%);stroke-opacity:1;stroke-miterlimit:4;" d="M 316.697917 189.098958 L 315.098958 182.5 " transform="matrix(0.75,0,0,0.75,0,0)"/>
<path style="fill:none;stroke-width:2;stroke-linecap:butt;stroke-linejoin:miter;stroke:rgb(0%,0%,0%);stroke-opacity:1;stroke-miterlimit:4;" d="M 319.598958 195.302083 L 336.098958 193.697917 " transform="matrix(0.75,0,0,0.75,0,0)"/>
<path style="fill:none;stroke-width:2;stroke-linecap:butt;stroke-linejoin:miter;stroke:rgb(0%,0%,0%);stroke-opacity:1;stroke-miterlimit:4;" d="M 336.098958 193.697917 L 334.302083 177.197917 " transform="matrix(0.75,0,0,0.75,0,0)"/>
<path style="fill-rule:evenodd;fill:rgb(0%,0%,0%);fill-opacity:1;stroke-width:0.5;stroke-linecap:butt;stroke-linejoin:miter;stroke:rgb(0%,0%,0%);stroke-opacity:1;stroke-miterlimit:4;" d="M 334.302083 177.197917 L 328.401042 174.5 L 329 173.401042 Z M 334.302083 177.197917 " transform="matrix(0.75,0,0,0.75,0,0)"/>
<path style="fill-rule:evenodd;fill:rgb(100%,0%,0%);fill-opacity:1;stroke-width:0.5;stroke-linecap:butt;stroke-linejoin:miter;stroke:rgb(100%,0%,0%);stroke-opacity:1;stroke-miterlimit:4;" d="M 328.401042 174.5 L 323.697917 169.697917 L 322.5 171.901042 Z M 328.401042 174.5 " transform="matrix(0.75,0,0,0.75,0,0)"/>
<path style="fill-rule:evenodd;fill:rgb(100%,0%,0%);fill-opacity:1;stroke-width:0.5;stroke-linecap:butt;stroke-linejoin:miter;stroke:rgb(100%,0%,0%);stroke-opacity:1;stroke-miterlimit:4;" d="M 328.401042 174.5 L 329 173.401042 L 323.697917 169.697917 Z M 328.401042 174.5 " transform="matrix(0.75,0,0,0.75,0,0)"/>
<path style="fill:none;stroke-width:2;stroke-linecap:butt;stroke-linejoin:miter;stroke:rgb(0%,0%,0%);stroke-opacity:1;stroke-miterlimit:4;" d="M 334.302083 177.197917 L 349.401042 170.302083 " transform="matrix(0.75,0,0,0.75,0,0)"/>
<path style="fill-rule:evenodd;fill:rgb(0%,0%,0%);fill-opacity:1;stroke-width:0.5;stroke-linecap:butt;stroke-linejoin:miter;stroke:rgb(0%,0%,0%);stroke-opacity:1;stroke-miterlimit:4;" d="M 349.401042 170.302083 L 351.5 153.802083 L 354 154.302083 Z M 349.401042 170.302083 " transform="matrix(0.75,0,0,0.75,0,0)"/>
<path style="fill:none;stroke-width:2;stroke-linecap:butt;stroke-linejoin:miter;stroke:rgb(0%,0%,0%);stroke-opacity:1;stroke-miterlimit:4;" d="M 349.401042 170.302083 L 360.598958 182.598958 " transform="matrix(0.75,0,0,0.75,0,0)"/>
<path style="fill:none;stroke-width:2;stroke-linecap:butt;stroke-linejoin:miter;stroke:rgb(0%,0%,0%);stroke-opacity:1;stroke-miterlimit:4;" d="M 360.598958 182.598958 L 357.302083 188.401042 " transform="matrix(0.75,0,0,0.75,0,0)"/>
<path style="fill:none;stroke-width:2;stroke-linecap:butt;stroke-linejoin:miter;stroke:rgb(0%,0%,100%);stroke-opacity:1;stroke-miterlimit:4;" d="M 357.302083 188.401042 L 354 194.098958 " transform="matrix(0.75,0,0,0.75,0,0)"/>
<path style="fill:none;stroke-width:2;stroke-linecap:butt;stroke-linejoin:miter;stroke:rgb(0%,0%,100%);stroke-opacity:1;stroke-miterlimit:4;" d="M 354.697917 198.302083 L 360.802083 201.697917 " transform="matrix(0.75,0,0,0.75,0,0)"/>
<path style="fill:none;stroke-width:2;stroke-linecap:butt;stroke-linejoin:miter;stroke:rgb(0%,0%,0%);stroke-opacity:1;stroke-miterlimit:4;" d="M 360.802083 201.697917 L 367 205 " transform="matrix(0.75,0,0,0.75,0,0)"/>
<path style="fill:none;stroke-width:2;stroke-linecap:butt;stroke-linejoin:miter;stroke:rgb(0%,0%,0%);stroke-opacity:1;stroke-miterlimit:4;" d="M 367.802083 205.901042 L 371.802083 200.802083 " transform="matrix(0.75,0,0,0.75,0,0)"/>
<path style="fill:none;stroke-width:2;stroke-linecap:butt;stroke-linejoin:miter;stroke:rgb(100%,0%,0%);stroke-opacity:1;stroke-miterlimit:4;" d="M 371.802083 200.802083 L 375.697917 195.598958 " transform="matrix(0.75,0,0,0.75,0,0)"/>
<path style="fill:none;stroke-width:2;stroke-linecap:butt;stroke-linejoin:miter;stroke:rgb(0%,0%,0%);stroke-opacity:1;stroke-miterlimit:4;" d="M 365.901042 204.401042 L 369.802083 199.302083 " transform="matrix(0.75,0,0,0.75,0,0)"/>
<path style="fill:none;stroke-width:2;stroke-linecap:butt;stroke-linejoin:miter;stroke:rgb(100%,0%,0%);stroke-opacity:1;stroke-miterlimit:4;" d="M 369.802083 199.302083 L 373.802083 194.098958 " transform="matrix(0.75,0,0,0.75,0,0)"/>
<path style="fill:none;stroke-width:2;stroke-linecap:butt;stroke-linejoin:miter;stroke:rgb(0%,0%,0%);stroke-opacity:1;stroke-miterlimit:4;" d="M 367 205 L 378.5 217 " transform="matrix(0.75,0,0,0.75,0,0)"/>
<path style="fill:none;stroke-width:2;stroke-linecap:butt;stroke-linejoin:miter;stroke:rgb(0%,0%,0%);stroke-opacity:1;stroke-miterlimit:4;" d="M 378.5 217 L 392.098958 207.302083 " transform="matrix(0.75,0,0,0.75,0,0)"/>
<path style="fill:none;stroke-width:1;stroke-linecap:butt;stroke-linejoin:miter;stroke:rgb(0%,0%,0%);stroke-opacity:1;stroke-miterlimit:4;" d="M 395.197917 208.5 L 395 208.901042 " transform="matrix(0.75,0,0,0.75,0,0)"/>
<path style="fill:none;stroke-width:1;stroke-linecap:butt;stroke-linejoin:miter;stroke:rgb(0%,0%,0%);stroke-opacity:1;stroke-miterlimit:4;" d="M 398.302083 209.598958 L 397.901042 210.5 " transform="matrix(0.75,0,0,0.75,0,0)"/>
<path style="fill:none;stroke-width:1;stroke-linecap:butt;stroke-linejoin:miter;stroke:rgb(0%,0%,0%);stroke-opacity:1;stroke-miterlimit:4;" d="M 401.401042 210.802083 L 400.802083 212.098958 " transform="matrix(0.75,0,0,0.75,0,0)"/>
<path style="fill:none;stroke-width:1;stroke-linecap:butt;stroke-linejoin:miter;stroke:rgb(0%,0%,0%);stroke-opacity:1;stroke-miterlimit:4;" d="M 404.598958 211.901042 L 403.697917 213.697917 " transform="matrix(0.75,0,0,0.75,0,0)"/>
<path style="fill:none;stroke-width:1;stroke-linecap:butt;stroke-linejoin:miter;stroke:rgb(0%,0%,0%);stroke-opacity:1;stroke-miterlimit:4;" d="M 407.697917 213.098958 L 406.697917 215.401042 " transform="matrix(0.75,0,0,0.75,0,0)"/>
<path style="fill:none;stroke-width:2;stroke-linecap:butt;stroke-linejoin:miter;stroke:rgb(0%,0%,0%);stroke-opacity:1;stroke-miterlimit:4;" d="M 392.098958 207.302083 L 391.401042 200.598958 " transform="matrix(0.75,0,0,0.75,0,0)"/>
<path style="fill:none;stroke-width:2;stroke-linecap:butt;stroke-linejoin:miter;stroke:rgb(100%,0%,0%);stroke-opacity:1;stroke-miterlimit:4;" d="M 391.401042 200.598958 L 390.697917 193.802083 " transform="matrix(0.75,0,0,0.75,0,0)"/>
<path style="fill:none;stroke-width:2;stroke-linecap:butt;stroke-linejoin:miter;stroke:rgb(0%,0%,0%);stroke-opacity:1;stroke-miterlimit:4;" d="M 378.5 217 L 381.5 222.901042 " transform="matrix(0.75,0,0,0.75,0,0)"/>
<path style="fill:none;stroke-width:2;stroke-linecap:butt;stroke-linejoin:miter;stroke:rgb(0%,0%,100%);stroke-opacity:1;stroke-miterlimit:4;" d="M 381.5 222.901042 L 384.598958 228.901042 " transform="matrix(0.75,0,0,0.75,0,0)"/>
<path style="fill:none;stroke-width:2;stroke-linecap:butt;stroke-linejoin:miter;stroke:rgb(0%,0%,100%);stroke-opacity:1;stroke-miterlimit:4;" d="M 386.5 234.697917 L 387.697917 241.401042 " transform="matrix(0.75,0,0,0.75,0,0)"/>
<path style="fill:none;stroke-width:2;stroke-linecap:butt;stroke-linejoin:miter;stroke:rgb(0%,0%,0%);stroke-opacity:1;stroke-miterlimit:4;" d="M 387.697917 241.401042 L 388.901042 248.197917 " transform="matrix(0.75,0,0,0.75,0,0)"/>
<path style="fill:none;stroke-width:2;stroke-linecap:butt;stroke-linejoin:miter;stroke:rgb(0%,0%,0%);stroke-opacity:1;stroke-miterlimit:4;" d="M 388.697917 249.401042 L 395.802083 249.302083 " transform="matrix(0.75,0,0,0.75,0,0)"/>
<path style="fill:none;stroke-width:2;stroke-linecap:butt;stroke-linejoin:miter;stroke:rgb(100%,0%,0%);stroke-opacity:1;stroke-miterlimit:4;" d="M 395.802083 249.302083 L 402.802083 249.098958 " transform="matrix(0.75,0,0,0.75,0,0)"/>
<path style="fill:none;stroke-width:2;stroke-linecap:butt;stroke-linejoin:miter;stroke:rgb(0%,0%,0%);stroke-opacity:1;stroke-miterlimit:4;" d="M 388.697917 246.901042 L 395.697917 246.802083 " transform="matrix(0.75,0,0,0.75,0,0)"/>
<path style="fill:none;stroke-width:2;stroke-linecap:butt;stroke-linejoin:miter;stroke:rgb(100%,0%,0%);stroke-opacity:1;stroke-miterlimit:4;" d="M 395.697917 246.802083 L 402.802083 246.598958 " transform="matrix(0.75,0,0,0.75,0,0)"/>
<path style="fill:none;stroke-width:2;stroke-linecap:butt;stroke-linejoin:miter;stroke:rgb(0%,0%,0%);stroke-opacity:1;stroke-miterlimit:4;" d="M 388.901042 248.197917 L 386.697917 264.697917 " transform="matrix(0.75,0,0,0.75,0,0)"/>
<path style="fill:none;stroke-width:2;stroke-linecap:butt;stroke-linejoin:miter;stroke:rgb(0%,0%,0%);stroke-opacity:1;stroke-miterlimit:4;" d="M 386.697917 264.697917 L 402.697917 269.197917 " transform="matrix(0.75,0,0,0.75,0,0)"/>
<path style="fill-rule:evenodd;fill:rgb(0%,0%,0%);fill-opacity:1;stroke-width:0.5;stroke-linecap:butt;stroke-linejoin:miter;stroke:rgb(0%,0%,0%);stroke-opacity:1;stroke-miterlimit:4;" d="M 402.697917 269.197917 L 406.598958 264.598958 L 407.5 265.5 Z M 402.697917 269.197917 " transform="matrix(0.75,0,0,0.75,0,0)"/>
<path style="fill-rule:evenodd;fill:rgb(100%,0%,0%);fill-opacity:1;stroke-width:0.5;stroke-linecap:butt;stroke-linejoin:miter;stroke:rgb(100%,0%,0%);stroke-opacity:1;stroke-miterlimit:4;" d="M 406.598958 264.598958 L 412.302083 261.697917 L 410.5 259.901042 Z M 406.598958 264.598958 " transform="matrix(0.75,0,0,0.75,0,0)"/>
<path style="fill-rule:evenodd;fill:rgb(100%,0%,0%);fill-opacity:1;stroke-width:0.5;stroke-linecap:butt;stroke-linejoin:miter;stroke:rgb(100%,0%,0%);stroke-opacity:1;stroke-miterlimit:4;" d="M 406.598958 264.598958 L 407.5 265.5 L 412.302083 261.697917 Z M 406.598958 264.598958 " transform="matrix(0.75,0,0,0.75,0,0)"/>
<path style="fill:none;stroke-width:2;stroke-linecap:butt;stroke-linejoin:miter;stroke:rgb(0%,0%,0%);stroke-opacity:1;stroke-miterlimit:4;" d="M 402.697917 269.197917 L 406.802083 285.302083 " transform="matrix(0.75,0,0,0.75,0,0)"/>
<path style="fill-rule:evenodd;fill:rgb(0%,0%,0%);fill-opacity:1;stroke-width:0.5;stroke-linecap:butt;stroke-linejoin:miter;stroke:rgb(0%,0%,0%);stroke-opacity:1;stroke-miterlimit:4;" d="M 406.802083 285.302083 L 402.901042 290 L 402 289.098958 Z M 406.802083 285.302083 " transform="matrix(0.75,0,0,0.75,0,0)"/>
<path style="fill-rule:evenodd;fill:rgb(100%,0%,0%);fill-opacity:1;stroke-width:0.5;stroke-linecap:butt;stroke-linejoin:miter;stroke:rgb(100%,0%,0%);stroke-opacity:1;stroke-miterlimit:4;" d="M 402.901042 290 L 397.197917 292.901042 L 399 294.598958 Z M 402.901042 290 " transform="matrix(0.75,0,0,0.75,0,0)"/>
<path style="fill-rule:evenodd;fill:rgb(100%,0%,0%);fill-opacity:1;stroke-width:0.5;stroke-linecap:butt;stroke-linejoin:miter;stroke:rgb(100%,0%,0%);stroke-opacity:1;stroke-miterlimit:4;" d="M 402.901042 290 L 402 289.098958 L 397.197917 292.901042 Z M 402.901042 290 " transform="matrix(0.75,0,0,0.75,0,0)"/>
<path style="fill:none;stroke-width:2;stroke-linecap:butt;stroke-linejoin:miter;stroke:rgb(0%,0%,0%);stroke-opacity:1;stroke-miterlimit:4;" d="M 406.802083 285.302083 L 422.802083 289.901042 " transform="matrix(0.75,0,0,0.75,0,0)"/>
<path style="fill:none;stroke-width:2;stroke-linecap:butt;stroke-linejoin:miter;stroke:rgb(0%,0%,0%);stroke-opacity:1;stroke-miterlimit:4;" d="M 422.802083 289.901042 L 426.802083 306 " transform="matrix(0.75,0,0,0.75,0,0)"/>
<path style="fill:none;stroke-width:2;stroke-linecap:butt;stroke-linejoin:miter;stroke:rgb(0%,0%,0%);stroke-opacity:1;stroke-miterlimit:4;" d="M 425.5 290.697917 L 428.901042 304 " transform="matrix(0.75,0,0,0.75,0,0)"/>
<path style="fill:none;stroke-width:2;stroke-linecap:butt;stroke-linejoin:miter;stroke:rgb(0%,0%,0%);stroke-opacity:1;stroke-miterlimit:4;" d="M 426.802083 306 L 442.802083 310.598958 " transform="matrix(0.75,0,0,0.75,0,0)"/>
<path style="fill:none;stroke-width:2;stroke-linecap:butt;stroke-linejoin:miter;stroke:rgb(0%,0%,0%);stroke-opacity:1;stroke-miterlimit:4;" d="M 442.802083 310.598958 L 454.697917 299 " transform="matrix(0.75,0,0,0.75,0,0)"/>
<path style="fill:none;stroke-width:2;stroke-linecap:butt;stroke-linejoin:miter;stroke:rgb(0%,0%,0%);stroke-opacity:1;stroke-miterlimit:4;" d="M 442.098958 307.802083 L 451.901042 298.197917 " transform="matrix(0.75,0,0,0.75,0,0)"/>
<path style="fill:none;stroke-width:2;stroke-linecap:butt;stroke-linejoin:miter;stroke:rgb(0%,0%,0%);stroke-opacity:1;stroke-miterlimit:4;" d="M 454.697917 299 L 461.401042 300.901042 " transform="matrix(0.75,0,0,0.75,0,0)"/>
<path style="fill:none;stroke-width:2;stroke-linecap:butt;stroke-linejoin:miter;stroke:rgb(100%,0%,0%);stroke-opacity:1;stroke-miterlimit:4;" d="M 461.401042 300.901042 L 468 302.802083 " transform="matrix(0.75,0,0,0.75,0,0)"/>
<path style="fill:none;stroke-width:2;stroke-linecap:butt;stroke-linejoin:miter;stroke:rgb(0%,0%,0%);stroke-opacity:1;stroke-miterlimit:4;" d="M 454.697917 299 L 450.697917 282.901042 " transform="matrix(0.75,0,0,0.75,0,0)"/>
<path style="fill:none;stroke-width:2;stroke-linecap:butt;stroke-linejoin:miter;stroke:rgb(0%,0%,0%);stroke-opacity:1;stroke-miterlimit:4;" d="M 450.697917 282.901042 L 434.697917 278.302083 " transform="matrix(0.75,0,0,0.75,0,0)"/>
<path style="fill:none;stroke-width:2;stroke-linecap:butt;stroke-linejoin:miter;stroke:rgb(0%,0%,0%);stroke-opacity:1;stroke-miterlimit:4;" d="M 448.598958 284.901042 L 435.401042 281.098958 " transform="matrix(0.75,0,0,0.75,0,0)"/>
<path style="fill:none;stroke-width:2;stroke-linecap:butt;stroke-linejoin:miter;stroke:rgb(0%,0%,0%);stroke-opacity:1;stroke-miterlimit:4;" d="M 386.697917 264.697917 L 384 270.802083 " transform="matrix(0.75,0,0,0.75,0,0)"/>
<path style="fill:none;stroke-width:2;stroke-linecap:butt;stroke-linejoin:miter;stroke:rgb(0%,0%,100%);stroke-opacity:1;stroke-miterlimit:4;" d="M 384 270.802083 L 381.197917 276.901042 " transform="matrix(0.75,0,0,0.75,0,0)"/>
<path style="fill:none;stroke-width:2;stroke-linecap:butt;stroke-linejoin:miter;stroke:rgb(0%,0%,100%);stroke-opacity:1;stroke-miterlimit:4;" d="M 377.5 282.401042 L 373.197917 287.302083 " transform="matrix(0.75,0,0,0.75,0,0)"/>
<path style="fill:none;stroke-width:2;stroke-linecap:butt;stroke-linejoin:miter;stroke:rgb(0%,0%,0%);stroke-opacity:1;stroke-miterlimit:4;" d="M 373.197917 287.302083 L 368.802083 292.197917 " transform="matrix(0.75,0,0,0.75,0,0)"/>
<path style="fill:none;stroke-width:2;stroke-linecap:butt;stroke-linejoin:miter;stroke:rgb(0%,0%,0%);stroke-opacity:1;stroke-miterlimit:4;" d="M 367.697917 292.901042 L 371.901042 297.802083 " transform="matrix(0.75,0,0,0.75,0,0)"/>
<path style="fill:none;stroke-width:2;stroke-linecap:butt;stroke-linejoin:miter;stroke:rgb(100%,0%,0%);stroke-opacity:1;stroke-miterlimit:4;" d="M 371.901042 297.802083 L 376 302.802083 " transform="matrix(0.75,0,0,0.75,0,0)"/>
<path style="fill:none;stroke-width:2;stroke-linecap:butt;stroke-linejoin:miter;stroke:rgb(0%,0%,0%);stroke-opacity:1;stroke-miterlimit:4;" d="M 369.598958 291.302083 L 373.802083 296.302083 " transform="matrix(0.75,0,0,0.75,0,0)"/>
<path style="fill:none;stroke-width:2;stroke-linecap:butt;stroke-linejoin:miter;stroke:rgb(100%,0%,0%);stroke-opacity:1;stroke-miterlimit:4;" d="M 373.802083 296.302083 L 378 301.197917 " transform="matrix(0.75,0,0,0.75,0,0)"/>
<path style="fill:none;stroke-width:2;stroke-linecap:butt;stroke-linejoin:miter;stroke:rgb(0%,0%,0%);stroke-opacity:1;stroke-miterlimit:4;" d="M 368.802083 292.197917 L 354.598958 300.802083 " transform="matrix(0.75,0,0,0.75,0,0)"/>
<path style="fill:none;stroke-width:2;stroke-linecap:butt;stroke-linejoin:miter;stroke:rgb(0%,0%,0%);stroke-opacity:1;stroke-miterlimit:4;" d="M 354.598958 300.802083 L 363.401042 314.901042 " transform="matrix(0.75,0,0,0.75,0,0)"/>
<path style="fill:none;stroke-width:2;stroke-linecap:butt;stroke-linejoin:miter;stroke:rgb(0%,0%,0%);stroke-opacity:1;stroke-miterlimit:4;" d="M 363.401042 314.901042 L 352.802083 327.598958 " transform="matrix(0.75,0,0,0.75,0,0)"/>
<path style="fill-rule:evenodd;fill:rgb(0%,0%,0%);fill-opacity:1;stroke-width:0.5;stroke-linecap:butt;stroke-linejoin:miter;stroke:rgb(0%,0%,0%);stroke-opacity:1;stroke-miterlimit:4;" d="M 352.802083 327.598958 L 354.901042 333.802083 L 353.697917 334.098958 Z M 352.802083 327.598958 " transform="matrix(0.75,0,0,0.75,0,0)"/>
<path style="fill-rule:evenodd;fill:rgb(100%,0%,0%);fill-opacity:1;stroke-width:0.5;stroke-linecap:butt;stroke-linejoin:miter;stroke:rgb(100%,0%,0%);stroke-opacity:1;stroke-miterlimit:4;" d="M 354.901042 333.802083 L 354.697917 340.598958 L 357.098958 340 Z M 354.901042 333.802083 " transform="matrix(0.75,0,0,0.75,0,0)"/>
<path style="fill-rule:evenodd;fill:rgb(100%,0%,0%);fill-opacity:1;stroke-width:0.5;stroke-linecap:butt;stroke-linejoin:miter;stroke:rgb(100%,0%,0%);stroke-opacity:1;stroke-miterlimit:4;" d="M 354.901042 333.802083 L 353.697917 334.098958 L 354.697917 340.598958 Z M 354.901042 333.802083 " transform="matrix(0.75,0,0,0.75,0,0)"/>
<path style="fill:none;stroke-width:2;stroke-linecap:butt;stroke-linejoin:miter;stroke:rgb(0%,0%,0%);stroke-opacity:1;stroke-miterlimit:4;" d="M 352.802083 327.598958 L 337.302083 321.401042 " transform="matrix(0.75,0,0,0.75,0,0)"/>
<path style="fill:none;stroke-width:2;stroke-linecap:butt;stroke-linejoin:miter;stroke:rgb(0%,0%,0%);stroke-opacity:1;stroke-miterlimit:4;" d="M 337.302083 321.401042 L 337.802083 314.598958 " transform="matrix(0.75,0,0,0.75,0,0)"/>
<path style="fill:none;stroke-width:2;stroke-linecap:butt;stroke-linejoin:miter;stroke:rgb(0%,0%,100%);stroke-opacity:1;stroke-miterlimit:4;" d="M 337.802083 314.598958 L 338.302083 307.802083 " transform="matrix(0.75,0,0,0.75,0,0)"/>
<path style="fill:none;stroke-width:2;stroke-linecap:butt;stroke-linejoin:miter;stroke:rgb(0%,0%,100%);stroke-opacity:1;stroke-miterlimit:4;" d="M 336.098958 304.697917 L 329 304.401042 " transform="matrix(0.75,0,0,0.75,0,0)"/>
<path style="fill:none;stroke-width:2;stroke-linecap:butt;stroke-linejoin:miter;stroke:rgb(0%,0%,0%);stroke-opacity:1;stroke-miterlimit:4;" d="M 329 304.401042 L 321.901042 304 " transform="matrix(0.75,0,0,0.75,0,0)"/>
<path style="fill:none;stroke-width:2;stroke-linecap:butt;stroke-linejoin:miter;stroke:rgb(0%,0%,0%);stroke-opacity:1;stroke-miterlimit:4;" d="M 320.697917 303.5 L 319.302083 310.302083 " transform="matrix(0.75,0,0,0.75,0,0)"/>
<path style="fill:none;stroke-width:2;stroke-linecap:butt;stroke-linejoin:miter;stroke:rgb(100%,0%,0%);stroke-opacity:1;stroke-miterlimit:4;" d="M 319.302083 310.302083 L 317.901042 317.098958 " transform="matrix(0.75,0,0,0.75,0,0)"/>
<path style="fill:none;stroke-width:2;stroke-linecap:butt;stroke-linejoin:miter;stroke:rgb(0%,0%,0%);stroke-opacity:1;stroke-miterlimit:4;" d="M 323.098958 304 L 321.697917 310.802083 " transform="matrix(0.75,0,0,0.75,0,0)"/>
<path style="fill:none;stroke-width:2;stroke-linecap:butt;stroke-linejoin:miter;stroke:rgb(100%,0%,0%);stroke-opacity:1;stroke-miterlimit:4;" d="M 321.697917 310.802083 L 320.302083 317.598958 " transform="matrix(0.75,0,0,0.75,0,0)"/>
<path style="fill:none;stroke-width:2;stroke-linecap:butt;stroke-linejoin:miter;stroke:rgb(0%,0%,0%);stroke-opacity:1;stroke-miterlimit:4;" d="M 321.901042 304 L 306.302083 298.197917 " transform="matrix(0.75,0,0,0.75,0,0)"/>
<path style="fill:none;stroke-width:2;stroke-linecap:butt;stroke-linejoin:miter;stroke:rgb(0%,0%,0%);stroke-opacity:1;stroke-miterlimit:4;" d="M 306.302083 298.197917 L 298.302083 312.802083 " transform="matrix(0.75,0,0,0.75,0,0)"/>
<path style="fill:none;stroke-width:1;stroke-linecap:butt;stroke-linejoin:miter;stroke:rgb(0%,0%,0%);stroke-opacity:1;stroke-miterlimit:4;" d="M 295 313.098958 L 295 312.598958 " transform="matrix(0.75,0,0,0.75,0,0)"/>
<path style="fill:none;stroke-width:1;stroke-linecap:butt;stroke-linejoin:miter;stroke:rgb(0%,0%,0%);stroke-opacity:1;stroke-miterlimit:4;" d="M 291.598958 313.401042 L 291.598958 312.401042 " transform="matrix(0.75,0,0,0.75,0,0)"/>
<path style="fill:none;stroke-width:1;stroke-linecap:butt;stroke-linejoin:miter;stroke:rgb(0%,0%,0%);stroke-opacity:1;stroke-miterlimit:4;" d="M 288.302083 313.802083 L 288.302083 312.302083 " transform="matrix(0.75,0,0,0.75,0,0)"/>
<path style="fill:none;stroke-width:1;stroke-linecap:butt;stroke-linejoin:miter;stroke:rgb(0%,0%,0%);stroke-opacity:1;stroke-miterlimit:4;" d="M 285 314.098958 L 285 312.098958 " transform="matrix(0.75,0,0,0.75,0,0)"/>
<path style="fill:none;stroke-width:1;stroke-linecap:butt;stroke-linejoin:miter;stroke:rgb(0%,0%,0%);stroke-opacity:1;stroke-miterlimit:4;" d="M 281.697917 314.401042 L 281.598958 311.901042 " transform="matrix(0.75,0,0,0.75,0,0)"/>
<path style="fill:none;stroke-width:2;stroke-linecap:butt;stroke-linejoin:miter;stroke:rgb(0%,0%,0%);stroke-opacity:1;stroke-miterlimit:4;" d="M 298.302083 312.802083 L 301.697917 318.401042 " transform="matrix(0.75,0,0,0.75,0,0)"/>
<path style="fill:none;stroke-width:2;stroke-linecap:butt;stroke-linejoin:miter;stroke:rgb(100%,0%,0%);stroke-opacity:1;stroke-miterlimit:4;" d="M 301.697917 318.401042 L 305.098958 324.098958 " transform="matrix(0.75,0,0,0.75,0,0)"/>
<path style="fill:none;stroke-width:2;stroke-linecap:butt;stroke-linejoin:miter;stroke:rgb(0%,0%,0%);stroke-opacity:1;stroke-miterlimit:4;" d="M 306.302083 298.197917 L 300.802083 294.098958 " transform="matrix(0.75,0,0,0.75,0,0)"/>
<path style="fill:none;stroke-width:2;stroke-linecap:butt;stroke-linejoin:miter;stroke:rgb(0%,0%,100%);stroke-opacity:1;stroke-miterlimit:4;" d="M 300.802083 294.098958 L 295.401042 289.901042 " transform="matrix(0.75,0,0,0.75,0,0)"/>
<path style="fill:none;stroke-width:2;stroke-linecap:butt;stroke-linejoin:miter;stroke:rgb(0%,0%,100%);stroke-opacity:1;stroke-miterlimit:4;" d="M 291 285.197917 L 287.197917 279.901042 " transform="matrix(0.75,0,0,0.75,0,0)"/>
<path style="fill:none;stroke-width:2;stroke-linecap:butt;stroke-linejoin:miter;stroke:rgb(0%,0%,0%);stroke-opacity:1;stroke-miterlimit:4;" d="M 287.197917 279.901042 L 283.401042 274.598958 " transform="matrix(0.75,0,0,0.75,0,0)"/>
<path style="fill:none;stroke-width:2;stroke-linecap:butt;stroke-linejoin:miter;stroke:rgb(0%,0%,0%);stroke-opacity:1;stroke-miterlimit:4;" d="M 283 273.401042 L 276.901042 276.5 " transform="matrix(0.75,0,0,0.75,0,0)"/>
<path style="fill:none;stroke-width:2;stroke-linecap:butt;stroke-linejoin:miter;stroke:rgb(100%,0%,0%);stroke-opacity:1;stroke-miterlimit:4;" d="M 276.901042 276.5 L 270.697917 279.697917 " transform="matrix(0.75,0,0,0.75,0,0)"/>
<path style="fill:none;stroke-width:2;stroke-linecap:butt;stroke-linejoin:miter;stroke:rgb(0%,0%,0%);stroke-opacity:1;stroke-miterlimit:4;" d="M 284.197917 275.598958 L 278 278.802083 " transform="matrix(0.75,0,0,0.75,0,0)"/>
<path style="fill:none;stroke-width:2;stroke-linecap:butt;stroke-linejoin:miter;stroke:rgb(100%,0%,0%);stroke-opacity:1;stroke-miterlimit:4;" d="M 278 278.802083 L 271.901042 281.901042 " transform="matrix(0.75,0,0,0.75,0,0)"/>
<path style="fill:none;stroke-width:2;stroke-linecap:butt;stroke-linejoin:miter;stroke:rgb(0%,0%,0%);stroke-opacity:1;stroke-miterlimit:4;" d="M 234.802083 251.697917 L 224.197917 238.901042 " transform="matrix(0.75,0,0,0.75,0,0)"/>
<path style="fill:none;stroke-width:2;stroke-linecap:butt;stroke-linejoin:miter;stroke:rgb(0%,0%,0%);stroke-opacity:1;stroke-miterlimit:4;" d="M 224.197917 238.901042 L 207.802083 241.802083 " transform="matrix(0.75,0,0,0.75,0,0)"/>
<path style="fill:none;stroke-width:2;stroke-linecap:butt;stroke-linejoin:miter;stroke:rgb(0%,0%,0%);stroke-opacity:1;stroke-miterlimit:4;" d="M 223.197917 241.598958 L 209.598958 244 " transform="matrix(0.75,0,0,0.75,0,0)"/>
<path style="fill:none;stroke-width:2;stroke-linecap:butt;stroke-linejoin:miter;stroke:rgb(0%,0%,0%);stroke-opacity:1;stroke-miterlimit:4;" d="M 185.697917 260.197917 L 175 247.401042 " transform="matrix(0.75,0,0,0.75,0,0)"/>
<path style="fill:none;stroke-width:2;stroke-linecap:butt;stroke-linejoin:miter;stroke:rgb(0%,0%,0%);stroke-opacity:1;stroke-miterlimit:4;" d="M 175 247.401042 L 158.598958 250.197917 " transform="matrix(0.75,0,0,0.75,0,0)"/>
<path style="fill:none;stroke-width:2;stroke-linecap:butt;stroke-linejoin:miter;stroke:rgb(0%,0%,0%);stroke-opacity:1;stroke-miterlimit:4;" d="M 174 250.098958 L 160.5 252.5 " transform="matrix(0.75,0,0,0.75,0,0)"/>
<path style="fill:none;stroke-width:2;stroke-linecap:butt;stroke-linejoin:miter;stroke:rgb(0%,0%,0%);stroke-opacity:1;stroke-miterlimit:4;" d="M 136.5 268.697917 L 130.802083 284.302083 " transform="matrix(0.75,0,0,0.75,0,0)"/>
<path style="fill:none;stroke-width:2;stroke-linecap:butt;stroke-linejoin:miter;stroke:rgb(0%,0%,0%);stroke-opacity:1;stroke-miterlimit:4;" d="M 130.802083 284.302083 L 114.401042 287.098958 " transform="matrix(0.75,0,0,0.75,0,0)"/>
<path style="fill:none;stroke-width:2;stroke-linecap:butt;stroke-linejoin:miter;stroke:rgb(0%,0%,0%);stroke-opacity:1;stroke-miterlimit:4;" d="M 128.901042 282.098958 L 115.401042 284.401042 " transform="matrix(0.75,0,0,0.75,0,0)"/>
<path style="fill:none;stroke-width:2;stroke-linecap:butt;stroke-linejoin:miter;stroke:rgb(0%,0%,0%);stroke-opacity:1;stroke-miterlimit:4;" d="M 114.401042 287.098958 L 103.802083 274.302083 " transform="matrix(0.75,0,0,0.75,0,0)"/>
<path style="fill:none;stroke-width:2;stroke-linecap:butt;stroke-linejoin:miter;stroke:rgb(0%,0%,0%);stroke-opacity:1;stroke-miterlimit:4;" d="M 158.598958 250.197917 L 152.901042 265.802083 " transform="matrix(0.75,0,0,0.75,0,0)"/>
<path style="fill:none;stroke-width:2;stroke-linecap:butt;stroke-linejoin:miter;stroke:rgb(0%,0%,0%);stroke-opacity:1;stroke-miterlimit:4;" d="M 207.802083 241.802083 L 202 257.401042 " transform="matrix(0.75,0,0,0.75,0,0)"/>
<path style="fill:none;stroke-width:2;stroke-linecap:butt;stroke-linejoin:miter;stroke:rgb(0%,0%,0%);stroke-opacity:1;stroke-miterlimit:4;" d="M 283.401042 274.598958 L 278.197917 258.802083 " transform="matrix(0.75,0,0,0.75,0,0)"/>
<path style="fill:none;stroke-width:2;stroke-linecap:butt;stroke-linejoin:miter;stroke:rgb(0%,0%,100%);stroke-opacity:1;stroke-miterlimit:4;" d="M 350.098958 196.598958 L 343.098958 195.098958 " transform="matrix(0.75,0,0,0.75,0,0)"/>
<path style="fill:none;stroke-width:2;stroke-linecap:butt;stroke-linejoin:miter;stroke:rgb(0%,0%,0%);stroke-opacity:1;stroke-miterlimit:4;" d="M 343.098958 195.098958 L 336.098958 193.697917 " transform="matrix(0.75,0,0,0.75,0,0)"/>
<path style="fill:none;stroke-width:2;stroke-linecap:butt;stroke-linejoin:miter;stroke:rgb(0%,0%,0%);stroke-opacity:1;stroke-miterlimit:4;" d="M 434.697917 278.302083 L 422.802083 289.901042 " transform="matrix(0.75,0,0,0.75,0,0)"/>
<path style="fill:none;stroke-width:2;stroke-linecap:butt;stroke-linejoin:miter;stroke:rgb(0%,0%,100%);stroke-opacity:1;stroke-miterlimit:4;" d="M 340.802083 304.302083 L 347.697917 302.5 " transform="matrix(0.75,0,0,0.75,0,0)"/>
<path style="fill:none;stroke-width:2;stroke-linecap:butt;stroke-linejoin:miter;stroke:rgb(0%,0%,0%);stroke-opacity:1;stroke-miterlimit:4;" d="M 347.697917 302.5 L 354.598958 300.802083 " transform="matrix(0.75,0,0,0.75,0,0)"/>
<path style="fill:none;stroke-width:2;stroke-linecap:butt;stroke-linejoin:miter;stroke:rgb(0%,0%,0%);stroke-opacity:1;stroke-miterlimit:4;" d="M 32.802083 256.598958 L 33.401042 257.302083 L 34.197917 257.098958 " transform="matrix(0.75,0,0,0.75,0,0)"/>
<path style="fill:none;stroke-width:2;stroke-linecap:butt;stroke-linejoin:miter;stroke:rgb(0%,0%,0%);stroke-opacity:1;stroke-miterlimit:4;" d="M 48.901042 254.598958 L 49.697917 254.401042 L 50.302083 255.098958 " transform="matrix(0.75,0,0,0.75,0,0)"/>
<path style="fill:none;stroke-width:2;stroke-linecap:butt;stroke-linejoin:miter;stroke:rgb(0%,0%,0%);stroke-opacity:1;stroke-miterlimit:4;" d="M 59.802083 266.598958 L 60.401042 267.197917 L 61.197917 267.098958 " transform="matrix(0.75,0,0,0.75,0,0)"/>
<path style="fill:none;stroke-width:2;stroke-linecap:butt;stroke-linejoin:miter;stroke:rgb(0%,0%,0%);stroke-opacity:1;stroke-miterlimit:4;" d="M 75.901042 264.5 L 76.802083 264.401042 L 77 264.598958 " transform="matrix(0.75,0,0,0.75,0,0)"/>
<path style="fill:none;stroke-width:2;stroke-linecap:butt;stroke-linejoin:miter;stroke:rgb(0%,0%,0%);stroke-opacity:1;stroke-miterlimit:4;" d="M 109.197917 259.5 L 109.5 258.697917 L 110.302083 258.598958 " transform="matrix(0.75,0,0,0.75,0,0)"/>
<path style="fill:none;stroke-width:2;stroke-linecap:butt;stroke-linejoin:miter;stroke:rgb(0%,0%,0%);stroke-opacity:1;stroke-miterlimit:4;" d="M 125.098958 256 L 125.901042 255.901042 L 126.401042 256.5 " transform="matrix(0.75,0,0,0.75,0,0)"/>
<path style="fill:none;stroke-width:2;stroke-linecap:butt;stroke-linejoin:miter;stroke:rgb(0%,0%,0%);stroke-opacity:1;stroke-miterlimit:4;" d="M 163 278 L 163.5 278.598958 L 164.401042 278.5 " transform="matrix(0.75,0,0,0.75,0,0)"/>
<path style="fill:none;stroke-width:2;stroke-linecap:butt;stroke-linejoin:miter;stroke:rgb(0%,0%,0%);stroke-opacity:1;stroke-miterlimit:4;" d="M 179.098958 275.901042 L 179.901042 275.802083 L 180.197917 275 " transform="matrix(0.75,0,0,0.75,0,0)"/>
<path style="fill:none;stroke-width:2;stroke-linecap:butt;stroke-linejoin:miter;stroke:rgb(0%,0%,0%);stroke-opacity:1;stroke-miterlimit:4;" d="M 212.098958 269.5 L 212.697917 270.098958 L 213.5 270 " transform="matrix(0.75,0,0,0.75,0,0)"/>
<path style="fill:none;stroke-width:2;stroke-linecap:butt;stroke-linejoin:miter;stroke:rgb(0%,0%,0%);stroke-opacity:1;stroke-miterlimit:4;" d="M 228.197917 267.5 L 229.098958 267.302083 L 229.302083 266.5 " transform="matrix(0.75,0,0,0.75,0,0)"/>
<path style="fill:none;stroke-width:2;stroke-linecap:butt;stroke-linejoin:miter;stroke:rgb(0%,0%,0%);stroke-opacity:1;stroke-miterlimit:4;" d="M 250.401042 249 L 251.197917 248.901042 L 251.401042 249.098958 " transform="matrix(0.75,0,0,0.75,0,0)"/>
<path style="fill:none;stroke-width:2;stroke-linecap:butt;stroke-linejoin:miter;stroke:rgb(0%,0%,0%);stroke-opacity:1;stroke-miterlimit:4;" d="M 278.197917 258.197917 L 278.197917 258.802083 L 278.401042 259.598958 " transform="matrix(0.75,0,0,0.75,0,0)"/>
<path style="fill:none;stroke-width:2;stroke-linecap:butt;stroke-linejoin:miter;stroke:rgb(0%,0%,0%);stroke-opacity:1;stroke-miterlimit:4;" d="M 282.197917 226.901042 L 282.401042 226.197917 L 282.802083 225.5 " transform="matrix(0.75,0,0,0.75,0,0)"/>
<path style="fill:none;stroke-width:2;stroke-linecap:butt;stroke-linejoin:miter;stroke:rgb(0%,0%,0%);stroke-opacity:1;stroke-miterlimit:4;" d="M 291 213 L 291.5 212.302083 L 291.697917 212.098958 " transform="matrix(0.75,0,0,0.75,0,0)"/>
<path style="fill:none;stroke-width:2;stroke-linecap:butt;stroke-linejoin:miter;stroke:rgb(0%,0%,0%);stroke-opacity:1;stroke-miterlimit:4;" d="M 319.197917 195.401042 L 319.598958 195.302083 L 320.401042 195.197917 " transform="matrix(0.75,0,0,0.75,0,0)"/>
<path style="fill:none;stroke-width:2;stroke-linecap:butt;stroke-linejoin:miter;stroke:rgb(0%,0%,0%);stroke-opacity:1;stroke-miterlimit:4;" d="M 334.401042 178 L 334.302083 177.197917 L 335 176.802083 " transform="matrix(0.75,0,0,0.75,0,0)"/>
<path style="fill:none;stroke-width:2;stroke-linecap:butt;stroke-linejoin:miter;stroke:rgb(0%,0%,0%);stroke-opacity:1;stroke-miterlimit:4;" d="M 348.697917 170.697917 L 349.401042 170.302083 L 350 170.901042 " transform="matrix(0.75,0,0,0.75,0,0)"/>
<path style="fill:none;stroke-width:2;stroke-linecap:butt;stroke-linejoin:miter;stroke:rgb(0%,0%,0%);stroke-opacity:1;stroke-miterlimit:4;" d="M 360.098958 182 L 360.598958 182.598958 L 360.401042 182.901042 " transform="matrix(0.75,0,0,0.75,0,0)"/>
<path style="fill:none;stroke-width:2;stroke-linecap:butt;stroke-linejoin:miter;stroke:rgb(0%,0%,0%);stroke-opacity:1;stroke-miterlimit:4;" d="M 366.697917 204.901042 L 367 205 L 367.5 205.598958 " transform="matrix(0.75,0,0,0.75,0,0)"/>
<path style="fill:none;stroke-width:2;stroke-linecap:butt;stroke-linejoin:miter;stroke:rgb(0%,0%,0%);stroke-opacity:1;stroke-miterlimit:4;" d="M 391.401042 207.802083 L 392.098958 207.302083 L 392 207 " transform="matrix(0.75,0,0,0.75,0,0)"/>
<path style="fill:none;stroke-width:2;stroke-linecap:butt;stroke-linejoin:miter;stroke:rgb(0%,0%,0%);stroke-opacity:1;stroke-miterlimit:4;" d="M 388.802083 247.802083 L 388.901042 248.197917 L 388.802083 249 " transform="matrix(0.75,0,0,0.75,0,0)"/>
<path style="fill:none;stroke-width:2;stroke-linecap:butt;stroke-linejoin:miter;stroke:rgb(0%,0%,0%);stroke-opacity:1;stroke-miterlimit:4;" d="M 401.901042 269 L 402.697917 269.197917 L 402.901042 270 " transform="matrix(0.75,0,0,0.75,0,0)"/>
<path style="fill:none;stroke-width:2;stroke-linecap:butt;stroke-linejoin:miter;stroke:rgb(0%,0%,0%);stroke-opacity:1;stroke-miterlimit:4;" d="M 406.598958 284.5 L 406.802083 285.302083 L 407.598958 285.598958 " transform="matrix(0.75,0,0,0.75,0,0)"/>
<path style="fill:none;stroke-width:2;stroke-linecap:butt;stroke-linejoin:miter;stroke:rgb(0%,0%,0%);stroke-opacity:1;stroke-miterlimit:4;" d="M 426.598958 305.197917 L 426.802083 306 L 427.598958 306.302083 " transform="matrix(0.75,0,0,0.75,0,0)"/>
<path style="fill:none;stroke-width:2;stroke-linecap:butt;stroke-linejoin:miter;stroke:rgb(0%,0%,0%);stroke-opacity:1;stroke-miterlimit:4;" d="M 442 310.401042 L 442.802083 310.598958 L 443.401042 310 " transform="matrix(0.75,0,0,0.75,0,0)"/>
<path style="fill:none;stroke-width:2;stroke-linecap:butt;stroke-linejoin:miter;stroke:rgb(0%,0%,0%);stroke-opacity:1;stroke-miterlimit:4;" d="M 450.901042 283.697917 L 450.697917 282.901042 L 449.901042 282.697917 " transform="matrix(0.75,0,0,0.75,0,0)"/>
<path style="fill:none;stroke-width:2;stroke-linecap:butt;stroke-linejoin:miter;stroke:rgb(0%,0%,0%);stroke-opacity:1;stroke-miterlimit:4;" d="M 435.5 278.598958 L 434.697917 278.302083 L 434.098958 278.901042 " transform="matrix(0.75,0,0,0.75,0,0)"/>
<path style="fill:none;stroke-width:2;stroke-linecap:butt;stroke-linejoin:miter;stroke:rgb(0%,0%,0%);stroke-opacity:1;stroke-miterlimit:4;" d="M 369 292 L 368.802083 292.197917 L 368.098958 292.598958 " transform="matrix(0.75,0,0,0.75,0,0)"/>
<path style="fill:none;stroke-width:2;stroke-linecap:butt;stroke-linejoin:miter;stroke:rgb(0%,0%,0%);stroke-opacity:1;stroke-miterlimit:4;" d="M 363 314.197917 L 363.401042 314.901042 L 362.901042 315.5 " transform="matrix(0.75,0,0,0.75,0,0)"/>
<path style="fill:none;stroke-width:2;stroke-linecap:butt;stroke-linejoin:miter;stroke:rgb(0%,0%,0%);stroke-opacity:1;stroke-miterlimit:4;" d="M 353.302083 327 L 352.802083 327.598958 L 352 327.302083 " transform="matrix(0.75,0,0,0.75,0,0)"/>
<path style="fill:none;stroke-width:2;stroke-linecap:butt;stroke-linejoin:miter;stroke:rgb(0%,0%,0%);stroke-opacity:1;stroke-miterlimit:4;" d="M 338.098958 321.697917 L 337.302083 321.401042 L 337.401042 321.098958 " transform="matrix(0.75,0,0,0.75,0,0)"/>
<path style="fill:none;stroke-width:2;stroke-linecap:butt;stroke-linejoin:miter;stroke:rgb(0%,0%,0%);stroke-opacity:1;stroke-miterlimit:4;" d="M 322.197917 304 L 321.901042 304 L 321.098958 303.697917 " transform="matrix(0.75,0,0,0.75,0,0)"/>
<path style="fill:none;stroke-width:2;stroke-linecap:butt;stroke-linejoin:miter;stroke:rgb(0%,0%,0%);stroke-opacity:1;stroke-miterlimit:4;" d="M 298.697917 312.098958 L 298.302083 312.802083 L 298.5 313.098958 " transform="matrix(0.75,0,0,0.75,0,0)"/>
<path style="fill:none;stroke-width:2;stroke-linecap:butt;stroke-linejoin:miter;stroke:rgb(0%,0%,0%);stroke-opacity:1;stroke-miterlimit:4;" d="M 283.598958 274.901042 L 283.401042 274.598958 L 283.197917 273.802083 " transform="matrix(0.75,0,0,0.75,0,0)"/>
<path style="fill:none;stroke-width:2;stroke-linecap:butt;stroke-linejoin:miter;stroke:rgb(0%,0%,0%);stroke-opacity:1;stroke-miterlimit:4;" d="M 224.697917 239.598958 L 224.197917 238.901042 L 223.302083 239.098958 " transform="matrix(0.75,0,0,0.75,0,0)"/>
<path style="fill:none;stroke-width:2;stroke-linecap:butt;stroke-linejoin:miter;stroke:rgb(0%,0%,0%);stroke-opacity:1;stroke-miterlimit:4;" d="M 208.598958 241.598958 L 207.802083 241.802083 L 207.5 242.5 " transform="matrix(0.75,0,0,0.75,0,0)"/>
<path style="fill:none;stroke-width:2;stroke-linecap:butt;stroke-linejoin:miter;stroke:rgb(0%,0%,0%);stroke-opacity:1;stroke-miterlimit:4;" d="M 175.598958 248.098958 L 175 247.401042 L 174.197917 247.598958 " transform="matrix(0.75,0,0,0.75,0,0)"/>
<path style="fill:none;stroke-width:2;stroke-linecap:butt;stroke-linejoin:miter;stroke:rgb(0%,0%,0%);stroke-opacity:1;stroke-miterlimit:4;" d="M 159.5 250.098958 L 158.598958 250.197917 L 158.401042 251 " transform="matrix(0.75,0,0,0.75,0,0)"/>
<path style="fill:none;stroke-width:2;stroke-linecap:butt;stroke-linejoin:miter;stroke:rgb(0%,0%,0%);stroke-opacity:1;stroke-miterlimit:4;" d="M 131.098958 283.5 L 130.802083 284.302083 L 130 284.401042 " transform="matrix(0.75,0,0,0.75,0,0)"/>
<path style="fill:none;stroke-width:2;stroke-linecap:butt;stroke-linejoin:miter;stroke:rgb(0%,0%,0%);stroke-opacity:1;stroke-miterlimit:4;" d="M 115.197917 286.901042 L 114.401042 287.098958 L 113.901042 286.5 " transform="matrix(0.75,0,0,0.75,0,0)"/>
<path style=" stroke:none;fill-rule:nonzero;fill:rgb(100%,0%,0%);fill-opacity:1;" d="M 63.898438 207.898438 C 63.898438 207.300781 64.050781 206.851562 64.351562 206.550781 C 64.601562 206.25 65 206.101562 65.550781 206.101562 C 66.050781 206.101562 66.449219 206.25 66.75 206.550781 C 67.050781 206.851562 67.199219 207.300781 67.199219 207.898438 C 67.199219 208.449219 67.050781 208.898438 66.75 209.25 C 66.449219 209.550781 66.050781 209.699219 65.550781 209.699219 C 65.050781 209.699219 64.648438 209.550781 64.351562 209.25 C 64.050781 208.898438 63.898438 208.449219 63.898438 207.898438 M 65.550781 209.324219 C 65.898438 209.324219 66.175781 209.199219 66.375 208.949219 C 66.574219 208.699219 66.675781 208.351562 66.675781 207.898438 C 66.675781 207.398438 66.574219 207.050781 66.375 206.851562 C 66.175781 206.601562 65.898438 206.476562 65.550781 206.476562 C 65.199219 206.476562 64.925781 206.601562 64.726562 206.851562 C 64.523438 207.050781 64.425781 207.398438 64.425781 207.898438 C 64.425781 208.351562 64.523438 208.699219 64.726562 208.949219 C 64.925781 209.199219 65.199219 209.324219 65.550781 209.324219 "/>
<path style=" stroke:none;fill-rule:nonzero;fill:rgb(100%,0%,0%);fill-opacity:1;" d="M 191.101562 174.976562 C 191.101562 174.425781 191.226562 173.976562 191.476562 173.625 C 191.773438 173.324219 192.175781 173.175781 192.675781 173.175781 C 193.226562 173.175781 193.625 173.324219 193.875 173.625 C 194.175781 173.976562 194.324219 174.425781 194.324219 174.976562 C 194.324219 175.574219 194.175781 176.023438 193.875 176.324219 C 193.574219 176.625 193.175781 176.773438 192.675781 176.773438 C 192.175781 176.773438 191.773438 176.625 191.476562 176.324219 C 191.226562 176.023438 191.101562 175.574219 191.101562 174.976562 M 192.675781 176.398438 C 193.023438 176.398438 193.300781 176.273438 193.5 176.023438 C 193.699219 175.824219 193.800781 175.476562 193.800781 174.976562 C 193.800781 174.523438 193.699219 174.175781 193.5 173.925781 C 193.300781 173.675781 193.023438 173.550781 192.675781 173.550781 C 192.324219 173.550781 192.050781 173.675781 191.851562 173.925781 C 191.648438 174.175781 191.550781 174.523438 191.550781 174.976562 C 191.550781 175.476562 191.648438 175.824219 191.851562 176.023438 C 192.050781 176.273438 192.324219 176.398438 192.675781 176.398438 "/>
<path style=" stroke:none;fill-rule:nonzero;fill:rgb(0%,0%,100%);fill-opacity:1;" d="M 191.550781 194.476562 L 192 194.476562 L 192 195.976562 L 193.875 195.976562 L 193.875 194.476562 L 194.324219 194.476562 L 194.324219 198 L 193.875 198 L 193.875 196.351562 L 192 196.351562 L 192 198 L 191.550781 198 L 191.550781 194.476562 "/>
<path style=" stroke:none;fill-rule:nonzero;fill:rgb(0%,0%,100%);fill-opacity:1;" d="M 195.601562 194.476562 L 196.726562 196.351562 C 196.824219 196.449219 196.925781 196.625 197.023438 196.875 C 197.175781 197.074219 197.25 197.199219 197.25 197.25 L 197.25 194.476562 L 197.699219 194.476562 L 197.699219 198 L 197.175781 198 L 195.976562 195.976562 C 195.875 195.824219 195.773438 195.648438 195.675781 195.449219 C 195.574219 195.25 195.5 195.125 195.449219 195.074219 L 195.449219 198 L 195 198 L 195 194.476562 L 195.601562 194.476562 "/>
<path style=" stroke:none;fill-rule:nonzero;fill:rgb(0%,0%,0%);fill-opacity:1;" d="M 207 181.648438 C 207 181.101562 207.148438 180.675781 207.449219 180.375 C 207.699219 180.023438 208.101562 179.851562 208.648438 179.851562 C 209.101562 179.851562 209.449219 180.023438 209.699219 180.375 L 209.398438 180.675781 C 209.199219 180.425781 208.949219 180.300781 208.648438 180.300781 C 208.25 180.300781 207.976562 180.425781 207.824219 180.675781 C 207.625 180.875 207.523438 181.199219 207.523438 181.648438 C 207.523438 182.148438 207.625 182.5 207.824219 182.699219 C 208.023438 182.949219 208.300781 183.074219 208.648438 183.074219 C 208.949219 183.074219 209.25 183 209.550781 182.851562 L 209.625 183.226562 C 209.523438 183.324219 209.375 183.398438 209.175781 183.449219 C 209.023438 183.5 208.824219 183.523438 208.574219 183.523438 C 208.074219 183.523438 207.699219 183.351562 207.449219 183 C 207.148438 182.699219 207 182.25 207 181.648438 "/>
<path style=" stroke:none;fill-rule:nonzero;fill:rgb(100%,0%,0%);fill-opacity:1;" d="M 195.375 162.75 L 195.824219 162.75 L 195.824219 164.25 L 197.625 164.25 L 197.625 162.75 L 198.074219 162.75 L 198.074219 166.273438 L 197.625 166.273438 L 197.625 164.699219 L 195.824219 164.699219 L 195.824219 166.273438 L 195.375 166.273438 L 195.375 162.75 "/>
<path style=" stroke:none;fill-rule:nonzero;fill:rgb(100%,0%,0%);fill-opacity:1;" d="M 198.824219 164.550781 C 198.824219 163.949219 198.976562 163.5 199.273438 163.199219 C 199.523438 162.898438 199.925781 162.75 200.476562 162.75 C 200.976562 162.75 201.375 162.898438 201.675781 163.199219 C 201.925781 163.5 202.050781 163.949219 202.050781 164.550781 C 202.050781 165.101562 201.925781 165.550781 201.675781 165.898438 C 201.375 166.199219 200.976562 166.351562 200.476562 166.351562 C 199.925781 166.351562 199.523438 166.199219 199.273438 165.898438 C 198.976562 165.550781 198.824219 165.101562 198.824219 164.550781 M 200.476562 165.976562 C 200.824219 165.976562 201.101562 165.851562 201.300781 165.601562 C 201.5 165.351562 201.601562 165 201.601562 164.550781 C 201.601562 164.050781 201.5 163.699219 201.300781 163.5 C 201.101562 163.25 200.824219 163.125 200.476562 163.125 C 200.125 163.125 199.851562 163.25 199.648438 163.5 C 199.449219 163.699219 199.351562 164.050781 199.351562 164.550781 C 199.351562 165 199.449219 165.351562 199.648438 165.601562 C 199.851562 165.851562 200.125 165.976562 200.476562 165.976562 "/>
<path style=" stroke:none;fill-rule:nonzero;fill:rgb(100%,0%,0%);fill-opacity:1;" d="M 204.148438 149.175781 L 204.675781 149.175781 L 204.675781 150.675781 L 206.476562 150.675781 L 206.476562 149.175781 L 206.925781 149.175781 L 206.925781 152.699219 L 206.476562 152.699219 L 206.476562 151.125 L 204.675781 151.125 L 204.675781 152.699219 L 204.148438 152.699219 L 204.148438 149.175781 "/>
<path style=" stroke:none;fill-rule:nonzero;fill:rgb(100%,0%,0%);fill-opacity:1;" d="M 207.675781 150.976562 C 207.675781 150.425781 207.800781 149.976562 208.050781 149.625 C 208.351562 149.324219 208.75 149.175781 209.25 149.175781 C 209.800781 149.175781 210.199219 149.324219 210.449219 149.625 C 210.75 149.976562 210.898438 150.425781 210.898438 150.976562 C 210.898438 151.523438 210.75 151.976562 210.449219 152.324219 C 210.199219 152.625 209.800781 152.773438 209.25 152.773438 C 208.75 152.773438 208.351562 152.625 208.050781 152.324219 C 207.800781 151.976562 207.675781 151.523438 207.675781 150.976562 M 209.25 152.398438 C 209.648438 152.398438 209.925781 152.273438 210.074219 152.023438 C 210.273438 151.773438 210.375 151.425781 210.375 150.976562 C 210.375 150.523438 210.273438 150.175781 210.074219 149.925781 C 209.925781 149.675781 209.648438 149.550781 209.25 149.550781 C 208.898438 149.550781 208.625 149.675781 208.425781 149.925781 C 208.226562 150.175781 208.125 150.523438 208.125 150.976562 C 208.125 151.425781 208.226562 151.773438 208.425781 152.023438 C 208.625 152.273438 208.898438 152.398438 209.25 152.398438 "/>
<path style=" stroke:none;fill-rule:nonzero;fill:rgb(0%,0%,100%);fill-opacity:1;" d="M 223.351562 149.476562 L 223.875 149.476562 L 223.875 150.976562 L 225.675781 150.976562 L 225.675781 149.476562 L 226.125 149.476562 L 226.125 153 L 225.675781 153 L 225.675781 151.425781 L 223.875 151.425781 L 223.875 153 L 223.351562 153 L 223.351562 149.476562 "/>
<path style=" stroke:none;fill-rule:nonzero;fill:rgb(0%,0%,100%);fill-opacity:1;" d="M 227.398438 149.476562 L 228.523438 151.351562 C 228.625 151.5 228.726562 151.675781 228.824219 151.875 C 228.976562 152.125 229.050781 152.25 229.050781 152.25 L 229.050781 149.476562 L 229.5 149.476562 L 229.5 153 L 229.050781 153 L 227.773438 150.976562 C 227.675781 150.824219 227.574219 150.648438 227.476562 150.449219 C 227.375 150.300781 227.324219 150.175781 227.324219 150.074219 L 227.324219 153 L 226.800781 153 L 226.800781 149.476562 L 227.398438 149.476562 "/>
<path style=" stroke:none;fill-rule:nonzero;fill:rgb(100%,0%,0%);fill-opacity:1;" d="M 235.050781 134.398438 C 235.050781 133.800781 235.175781 133.351562 235.425781 133.050781 C 235.726562 132.75 236.125 132.601562 236.625 132.601562 C 237.175781 132.601562 237.574219 132.75 237.824219 133.050781 C 238.125 133.351562 238.273438 133.800781 238.273438 134.398438 C 238.273438 134.949219 238.125 135.398438 237.824219 135.75 C 237.574219 136.050781 237.175781 136.199219 236.625 136.199219 C 236.125 136.199219 235.726562 136.050781 235.425781 135.75 C 235.175781 135.398438 235.050781 134.949219 235.050781 134.398438 M 236.625 135.824219 C 236.976562 135.824219 237.25 135.699219 237.449219 135.449219 C 237.648438 135.199219 237.75 134.851562 237.75 134.398438 C 237.75 133.898438 237.648438 133.550781 237.449219 133.351562 C 237.25 133.101562 236.976562 132.976562 236.625 132.976562 C 236.273438 132.976562 236 133.101562 235.800781 133.351562 C 235.601562 133.550781 235.5 133.898438 235.5 134.398438 C 235.5 134.851562 235.601562 135.199219 235.800781 135.449219 C 236 135.699219 236.273438 135.824219 236.625 135.824219 "/>
<path style=" stroke:none;fill-rule:nonzero;fill:rgb(100%,0%,0%);fill-opacity:1;" d="M 234.75 124.949219 L 235.273438 124.949219 L 235.273438 126.449219 L 237.074219 126.449219 L 237.074219 124.949219 L 237.523438 124.949219 L 237.523438 128.476562 L 237.074219 128.476562 L 237.074219 126.898438 L 235.273438 126.898438 L 235.273438 128.476562 L 234.75 128.476562 L 234.75 124.949219 "/>
<path style=" stroke:none;fill-rule:nonzero;fill:rgb(100%,0%,0%);fill-opacity:1;" d="M 238.273438 126.75 C 238.273438 126.148438 238.398438 125.699219 238.648438 125.398438 C 238.949219 125.101562 239.351562 124.949219 239.851562 124.949219 C 240.398438 124.949219 240.800781 125.101562 241.050781 125.398438 C 241.351562 125.699219 241.5 126.148438 241.5 126.75 C 241.5 127.300781 241.351562 127.75 241.050781 128.101562 C 240.800781 128.398438 240.398438 128.550781 239.851562 128.550781 C 239.351562 128.550781 238.949219 128.398438 238.648438 128.101562 C 238.398438 127.75 238.273438 127.300781 238.273438 126.75 M 239.851562 128.175781 C 240.199219 128.175781 240.476562 128.050781 240.675781 127.800781 C 240.875 127.550781 240.976562 127.199219 240.976562 126.75 C 240.976562 126.25 240.875 125.898438 240.675781 125.699219 C 240.476562 125.449219 240.199219 125.324219 239.851562 125.324219 C 239.5 125.324219 239.226562 125.449219 239.023438 125.699219 C 238.824219 125.898438 238.726562 126.25 238.726562 126.75 C 238.726562 127.199219 238.824219 127.550781 239.023438 127.800781 C 239.226562 128.050781 239.5 128.175781 239.851562 128.175781 "/>
<path style=" stroke:none;fill-rule:nonzero;fill:rgb(0%,0%,100%);fill-opacity:1;" d="M 263.550781 146.023438 L 264.675781 147.898438 C 264.726562 148 264.824219 148.175781 264.976562 148.425781 C 265.074219 148.625 265.148438 148.726562 265.199219 148.726562 L 265.199219 146.023438 L 265.648438 146.023438 L 265.648438 149.550781 L 265.125 149.550781 L 263.925781 147.523438 C 263.824219 147.324219 263.726562 147.148438 263.625 147 C 263.523438 146.800781 263.449219 146.675781 263.398438 146.625 L 263.398438 149.550781 L 262.949219 149.550781 L 262.949219 146.023438 L 263.550781 146.023438 "/>
<path style=" stroke:none;fill-rule:nonzero;fill:rgb(100%,0%,0%);fill-opacity:1;" d="M 281.175781 143.851562 C 281.175781 143.300781 281.300781 142.875 281.550781 142.574219 C 281.851562 142.226562 282.25 142.050781 282.75 142.050781 C 283.300781 142.050781 283.699219 142.226562 283.949219 142.574219 C 284.25 142.875 284.398438 143.300781 284.398438 143.851562 C 284.398438 144.449219 284.25 144.898438 283.949219 145.199219 C 283.699219 145.550781 283.300781 145.726562 282.75 145.726562 C 282.25 145.726562 281.851562 145.550781 281.550781 145.199219 C 281.300781 144.898438 281.175781 144.449219 281.175781 143.851562 M 282.75 145.273438 C 283.148438 145.273438 283.425781 145.175781 283.574219 144.976562 C 283.773438 144.726562 283.875 144.351562 283.875 143.851562 C 283.875 143.398438 283.773438 143.074219 283.574219 142.875 C 283.425781 142.625 283.148438 142.5 282.75 142.5 C 282.398438 142.5 282.125 142.601562 281.925781 142.800781 C 281.726562 143.050781 281.625 143.398438 281.625 143.851562 C 281.625 144.351562 281.726562 144.726562 281.925781 144.976562 C 282.125 145.175781 282.398438 145.273438 282.75 145.273438 "/>
<path style=" stroke:none;fill-rule:nonzero;fill:rgb(100%,0%,0%);fill-opacity:1;" d="M 291.226562 143.101562 C 291.226562 142.550781 291.375 142.101562 291.675781 141.75 C 291.925781 141.449219 292.324219 141.300781 292.875 141.300781 C 293.375 141.300781 293.773438 141.449219 294.074219 141.75 C 294.324219 142.101562 294.449219 142.550781 294.449219 143.101562 C 294.449219 143.648438 294.324219 144.101562 294.074219 144.449219 C 293.773438 144.75 293.375 144.898438 292.875 144.898438 C 292.324219 144.898438 291.925781 144.75 291.675781 144.449219 C 291.375 144.101562 291.226562 143.648438 291.226562 143.101562 M 292.875 144.523438 C 293.226562 144.523438 293.5 144.398438 293.699219 144.148438 C 293.898438 143.898438 294 143.550781 294 143.101562 C 294 142.648438 293.898438 142.300781 293.699219 142.050781 C 293.5 141.800781 293.226562 141.675781 292.875 141.675781 C 292.476562 141.675781 292.175781 141.800781 291.976562 142.050781 C 291.824219 142.300781 291.75 142.648438 291.75 143.101562 C 291.75 143.550781 291.824219 143.898438 291.976562 144.148438 C 292.175781 144.398438 292.476562 144.523438 292.875 144.523438 "/>
<path style=" stroke:none;fill-rule:nonzero;fill:rgb(100%,0%,0%);fill-opacity:1;" d="M 295.050781 141.375 L 295.5 141.375 L 295.5 142.875 L 297.300781 142.875 L 297.300781 141.375 L 297.75 141.375 L 297.75 144.898438 L 297.300781 144.898438 L 297.300781 143.25 L 295.5 143.25 L 295.5 144.898438 L 295.050781 144.898438 L 295.050781 141.375 "/>
<path style=" stroke:none;fill-rule:nonzero;fill:rgb(0%,0%,100%);fill-opacity:1;" d="M 288.75 172.050781 L 289.875 173.925781 C 289.976562 174.074219 290.074219 174.25 290.175781 174.449219 C 290.324219 174.699219 290.398438 174.824219 290.398438 174.824219 L 290.398438 172.050781 L 290.851562 172.050781 L 290.851562 175.648438 L 290.398438 175.648438 L 289.125 173.550781 C 289.023438 173.398438 288.925781 173.226562 288.824219 173.023438 C 288.726562 172.875 288.675781 172.773438 288.675781 172.726562 L 288.675781 175.648438 L 288.226562 175.648438 L 288.226562 172.050781 L 288.75 172.050781 "/>
<path style=" stroke:none;fill-rule:nonzero;fill:rgb(0%,0%,100%);fill-opacity:1;" d="M 291.523438 172.050781 L 292.050781 172.050781 L 292.050781 173.550781 L 293.851562 173.550781 L 293.851562 172.050781 L 294.300781 172.050781 L 294.300781 175.648438 L 293.851562 175.648438 L 293.851562 174 L 292.050781 174 L 292.050781 175.648438 L 291.523438 175.648438 L 291.523438 172.050781 "/>
<path style=" stroke:none;fill-rule:nonzero;fill:rgb(100%,0%,0%);fill-opacity:1;" d="M 302.476562 185.851562 C 302.476562 185.300781 302.625 184.875 302.925781 184.574219 C 303.175781 184.226562 303.574219 184.050781 304.125 184.050781 C 304.625 184.050781 305.023438 184.226562 305.324219 184.574219 C 305.625 184.875 305.773438 185.300781 305.773438 185.851562 C 305.773438 186.449219 305.625 186.898438 305.324219 187.199219 C 305.023438 187.550781 304.625 187.726562 304.125 187.726562 C 303.625 187.726562 303.226562 187.550781 302.925781 187.199219 C 302.625 186.898438 302.476562 186.449219 302.476562 185.851562 M 304.125 187.273438 C 304.476562 187.273438 304.75 187.175781 304.949219 186.976562 C 305.148438 186.726562 305.25 186.351562 305.25 185.851562 C 305.25 185.398438 305.148438 185.050781 304.949219 184.800781 C 304.75 184.601562 304.476562 184.5 304.125 184.5 C 303.773438 184.5 303.5 184.601562 303.300781 184.800781 C 303.101562 185.050781 303 185.398438 303 185.851562 C 303 186.351562 303.101562 186.726562 303.300781 186.976562 C 303.5 187.175781 303.773438 187.273438 304.125 187.273438 "/>
<path style=" stroke:none;fill-rule:nonzero;fill:rgb(100%,0%,0%);fill-opacity:1;" d="M 309.375 193.273438 C 309.375 192.675781 309.523438 192.226562 309.824219 191.925781 C 310.074219 191.625 310.476562 191.476562 311.023438 191.476562 C 311.523438 191.476562 311.925781 191.625 312.226562 191.925781 C 312.476562 192.226562 312.601562 192.675781 312.601562 193.273438 C 312.601562 193.824219 312.476562 194.273438 312.226562 194.625 C 311.925781 194.925781 311.523438 195.074219 311.023438 195.074219 C 310.476562 195.074219 310.074219 194.925781 309.824219 194.625 C 309.523438 194.273438 309.375 193.824219 309.375 193.273438 M 311.023438 194.699219 C 311.375 194.699219 311.648438 194.574219 311.851562 194.324219 C 312.050781 194.074219 312.148438 193.726562 312.148438 193.273438 C 312.148438 192.773438 312.050781 192.425781 311.851562 192.226562 C 311.648438 191.976562 311.375 191.851562 311.023438 191.851562 C 310.675781 191.851562 310.398438 191.976562 310.199219 192.226562 C 310 192.425781 309.898438 192.773438 309.898438 193.273438 C 309.898438 193.726562 310 194.074219 310.199219 194.324219 C 310.398438 194.574219 310.675781 194.699219 311.023438 194.699219 "/>
<path style=" stroke:none;fill-rule:nonzero;fill:rgb(100%,0%,0%);fill-opacity:1;" d="M 313.199219 191.476562 L 313.648438 191.476562 L 313.648438 192.976562 L 315.449219 192.976562 L 315.449219 191.476562 L 315.898438 191.476562 L 315.898438 195 L 315.449219 195 L 315.449219 193.425781 L 313.648438 193.425781 L 313.648438 195 L 313.199219 195 L 313.199219 191.476562 "/>
<path style=" stroke:none;fill-rule:nonzero;fill:rgb(100%,0%,0%);fill-opacity:1;" d="M 291 220.949219 L 291.523438 220.949219 L 291.523438 222.449219 L 293.324219 222.449219 L 293.324219 220.949219 L 293.773438 220.949219 L 293.773438 224.476562 L 293.324219 224.476562 L 293.324219 222.824219 L 291.523438 222.824219 L 291.523438 224.476562 L 291 224.476562 L 291 220.949219 "/>
<path style=" stroke:none;fill-rule:nonzero;fill:rgb(100%,0%,0%);fill-opacity:1;" d="M 294.523438 222.675781 C 294.523438 222.125 294.648438 221.699219 294.898438 221.398438 C 295.199219 221.050781 295.601562 220.875 296.101562 220.875 C 296.648438 220.875 297.050781 221.050781 297.300781 221.398438 C 297.601562 221.699219 297.75 222.125 297.75 222.675781 C 297.75 223.273438 297.601562 223.726562 297.300781 224.023438 C 297.050781 224.375 296.648438 224.550781 296.101562 224.550781 C 295.601562 224.550781 295.199219 224.375 294.898438 224.023438 C 294.648438 223.726562 294.523438 223.273438 294.523438 222.675781 M 296.101562 224.101562 C 296.449219 224.101562 296.726562 223.976562 296.925781 223.726562 C 297.125 223.523438 297.226562 223.175781 297.226562 222.675781 C 297.226562 222.226562 297.125 221.875 296.925781 221.625 C 296.726562 221.425781 296.449219 221.324219 296.101562 221.324219 C 295.75 221.324219 295.476562 221.425781 295.273438 221.625 C 295.074219 221.875 294.976562 222.226562 294.976562 222.675781 C 294.976562 223.175781 295.074219 223.523438 295.273438 223.726562 C 295.476562 223.976562 295.75 224.101562 296.101562 224.101562 "/>
<path style=" stroke:none;fill-rule:nonzero;fill:rgb(100%,0%,0%);fill-opacity:1;" d="M 351.375 227.699219 C 351.375 227.148438 351.523438 226.699219 351.824219 226.351562 C 352.125 226.050781 352.523438 225.898438 353.023438 225.898438 C 353.523438 225.898438 353.925781 226.050781 354.226562 226.351562 C 354.523438 226.699219 354.675781 227.148438 354.675781 227.699219 C 354.675781 228.25 354.523438 228.699219 354.226562 229.050781 C 353.925781 229.351562 353.523438 229.5 353.023438 229.5 C 352.523438 229.5 352.125 229.351562 351.824219 229.050781 C 351.523438 228.699219 351.375 228.25 351.375 227.699219 M 353.023438 229.125 C 353.375 229.125 353.648438 229 353.851562 228.75 C 354.050781 228.5 354.148438 228.148438 354.148438 227.699219 C 354.148438 227.25 354.050781 226.898438 353.851562 226.648438 C 353.648438 226.398438 353.375 226.273438 353.023438 226.273438 C 352.675781 226.273438 352.398438 226.398438 352.199219 226.648438 C 352 226.898438 351.898438 227.25 351.898438 227.699219 C 351.898438 228.148438 352 228.5 352.199219 228.75 C 352.398438 229 352.675781 229.125 353.023438 229.125 "/>
<path style=" stroke:none;fill-rule:nonzero;fill:rgb(100%,0%,0%);fill-opacity:1;" d="M 355.199219 225.976562 L 355.648438 225.976562 L 355.648438 227.476562 L 357.449219 227.476562 L 357.449219 225.976562 L 357.976562 225.976562 L 357.976562 229.5 L 357.449219 229.5 L 357.449219 227.851562 L 355.648438 227.851562 L 355.648438 229.5 L 355.199219 229.5 L 355.199219 225.976562 "/>
<path style=" stroke:none;fill-rule:nonzero;fill:rgb(0%,0%,100%);fill-opacity:1;" d="M 284.101562 208.050781 L 285.300781 209.925781 C 285.351562 210.074219 285.449219 210.25 285.601562 210.449219 C 285.699219 210.699219 285.75 210.824219 285.75 210.824219 L 285.75 208.050781 L 286.199219 208.050781 L 286.199219 211.574219 L 285.75 211.574219 L 284.476562 209.550781 C 284.375 209.398438 284.273438 209.226562 284.175781 209.023438 C 284.074219 208.875 284.023438 208.75 284.023438 208.648438 L 284.023438 211.574219 L 283.574219 211.574219 L 283.574219 208.050781 L 284.101562 208.050781 "/>
<path style=" stroke:none;fill-rule:nonzero;fill:rgb(0%,0%,100%);fill-opacity:1;" d="M 286.949219 208.050781 L 287.398438 208.050781 L 287.398438 209.550781 L 289.199219 209.550781 L 289.199219 208.050781 L 289.648438 208.050781 L 289.648438 211.574219 L 289.199219 211.574219 L 289.199219 210 L 287.398438 210 L 287.398438 211.574219 L 286.949219 211.574219 L 286.949219 208.050781 "/>
<path style=" stroke:none;fill-rule:nonzero;fill:rgb(100%,0%,0%);fill-opacity:1;" d="M 282.976562 228.75 C 282.976562 228.199219 283.101562 227.75 283.351562 227.398438 C 283.648438 227.101562 284.050781 226.949219 284.550781 226.949219 C 285.101562 226.949219 285.5 227.101562 285.75 227.398438 C 286.050781 227.75 286.199219 228.199219 286.199219 228.75 C 286.199219 229.300781 286.050781 229.75 285.75 230.101562 C 285.5 230.398438 285.101562 230.550781 284.550781 230.550781 C 284.050781 230.550781 283.648438 230.398438 283.351562 230.101562 C 283.101562 229.75 282.976562 229.300781 282.976562 228.75 M 284.550781 230.175781 C 284.949219 230.175781 285.226562 230.050781 285.375 229.800781 C 285.574219 229.550781 285.675781 229.199219 285.675781 228.75 C 285.675781 228.300781 285.574219 227.949219 285.375 227.699219 C 285.226562 227.449219 284.949219 227.324219 284.550781 227.324219 C 284.199219 227.324219 283.925781 227.449219 283.726562 227.699219 C 283.574219 227.949219 283.5 228.300781 283.5 228.75 C 283.5 229.199219 283.574219 229.550781 283.726562 229.800781 C 283.925781 230.050781 284.199219 230.175781 284.550781 230.175781 "/>
<path style=" stroke:none;fill-rule:nonzero;fill:rgb(100%,0%,0%);fill-opacity:1;" d="M 265.949219 257.851562 C 265.949219 257.25 266.101562 256.800781 266.398438 256.5 C 266.699219 256.199219 267.101562 256.050781 267.601562 256.050781 C 268.101562 256.050781 268.5 256.199219 268.800781 256.5 C 269.101562 256.800781 269.25 257.25 269.25 257.851562 C 269.25 258.398438 269.101562 258.851562 268.800781 259.199219 C 268.5 259.5 268.101562 259.648438 267.601562 259.648438 C 267.101562 259.648438 266.699219 259.5 266.398438 259.199219 C 266.101562 258.851562 265.949219 258.398438 265.949219 257.851562 M 267.601562 259.273438 C 267.949219 259.273438 268.226562 259.148438 268.425781 258.898438 C 268.625 258.648438 268.726562 258.300781 268.726562 257.851562 C 268.726562 257.398438 268.625 257.050781 268.425781 256.800781 C 268.226562 256.550781 267.949219 256.425781 267.601562 256.425781 C 267.25 256.425781 266.976562 256.550781 266.773438 256.800781 C 266.574219 257 266.476562 257.351562 266.476562 257.851562 C 266.476562 258.300781 266.574219 258.648438 266.773438 258.898438 C 266.976562 259.148438 267.25 259.273438 267.601562 259.273438 "/>
<path style=" stroke:none;fill-rule:nonzero;fill:rgb(100%,0%,0%);fill-opacity:1;" d="M 269.773438 256.050781 L 270.226562 256.050781 L 270.226562 257.550781 L 272.023438 257.550781 L 272.023438 256.050781 L 272.550781 256.050781 L 272.550781 259.574219 L 272.023438 259.574219 L 272.023438 258 L 270.226562 258 L 270.226562 259.574219 L 269.773438 259.574219 L 269.773438 256.050781 "/>
<path style=" stroke:none;fill-rule:nonzero;fill:rgb(0%,0%,100%);fill-opacity:1;" d="M 253.050781 226.875 L 254.25 228.75 C 254.300781 228.851562 254.398438 229.023438 254.550781 229.273438 C 254.648438 229.476562 254.699219 229.601562 254.699219 229.648438 L 254.699219 226.875 L 255.226562 226.875 L 255.226562 230.398438 L 254.699219 230.398438 L 253.5 228.375 C 253.398438 228.226562 253.300781 228.050781 253.199219 227.851562 C 253.101562 227.648438 253.023438 227.523438 252.976562 227.476562 L 252.976562 230.398438 L 252.523438 230.398438 L 252.523438 226.875 L 253.050781 226.875 "/>
<path style=" stroke:none;fill-rule:nonzero;fill:rgb(100%,0%,0%);fill-opacity:1;" d="M 237.300781 240.226562 C 237.300781 239.625 237.425781 239.175781 237.675781 238.875 C 237.976562 238.574219 238.375 238.425781 238.875 238.425781 C 239.425781 238.425781 239.824219 238.574219 240.074219 238.875 C 240.375 239.175781 240.523438 239.625 240.523438 240.226562 C 240.523438 240.773438 240.375 241.226562 240.074219 241.574219 C 239.824219 241.875 239.425781 242.023438 238.875 242.023438 C 238.375 242.023438 237.976562 241.875 237.675781 241.574219 C 237.425781 241.226562 237.300781 240.773438 237.300781 240.226562 M 238.875 241.648438 C 239.226562 241.648438 239.5 241.523438 239.699219 241.273438 C 239.898438 241.023438 240 240.675781 240 240.226562 C 240 239.726562 239.898438 239.375 239.699219 239.175781 C 239.5 238.925781 239.226562 238.800781 238.875 238.800781 C 238.523438 238.800781 238.25 238.925781 238.050781 239.175781 C 237.851562 239.375 237.75 239.726562 237.75 240.226562 C 237.75 240.675781 237.851562 241.023438 238.050781 241.273438 C 238.25 241.523438 238.523438 241.648438 238.875 241.648438 "/>
<path style=" stroke:none;fill-rule:nonzero;fill:rgb(100%,0%,0%);fill-opacity:1;" d="M 228.523438 245.25 C 228.523438 244.699219 228.675781 244.273438 228.976562 243.976562 C 229.226562 243.625 229.625 243.449219 230.175781 243.449219 C 230.675781 243.449219 231.074219 243.625 231.375 243.976562 C 231.675781 244.273438 231.824219 244.699219 231.824219 245.25 C 231.824219 245.851562 231.675781 246.300781 231.375 246.601562 C 231.074219 246.949219 230.675781 247.125 230.175781 247.125 C 229.675781 247.125 229.273438 246.949219 228.976562 246.601562 C 228.675781 246.300781 228.523438 245.851562 228.523438 245.25 M 230.175781 246.675781 C 230.523438 246.675781 230.800781 246.550781 231 246.300781 C 231.199219 246.101562 231.300781 245.75 231.300781 245.25 C 231.300781 244.800781 231.199219 244.449219 231 244.199219 C 230.800781 244 230.523438 243.898438 230.175781 243.898438 C 229.824219 243.898438 229.550781 244 229.351562 244.199219 C 229.148438 244.449219 229.050781 244.800781 229.050781 245.25 C 229.050781 245.75 229.148438 246.101562 229.351562 246.300781 C 229.550781 246.550781 229.824219 246.675781 230.175781 246.675781 "/>
<path style=" stroke:none;fill-rule:nonzero;fill:rgb(100%,0%,0%);fill-opacity:1;" d="M 232.351562 243.523438 L 232.800781 243.523438 L 232.800781 245.023438 L 234.601562 245.023438 L 234.601562 243.523438 L 235.125 243.523438 L 235.125 247.050781 L 234.601562 247.050781 L 234.601562 245.398438 L 232.800781 245.398438 L 232.800781 247.050781 L 232.351562 247.050781 L 232.351562 243.523438 "/>
<path style=" stroke:none;fill-rule:nonzero;fill:rgb(0%,0%,100%);fill-opacity:1;" d="M 215.023438 214.351562 L 215.476562 214.351562 L 215.476562 215.851562 L 217.273438 215.851562 L 217.273438 214.351562 L 217.800781 214.351562 L 217.800781 217.875 L 217.273438 217.875 L 217.273438 216.226562 L 215.476562 216.226562 L 215.476562 217.875 L 215.023438 217.875 L 215.023438 214.351562 "/>
<path style=" stroke:none;fill-rule:nonzero;fill:rgb(0%,0%,100%);fill-opacity:1;" d="M 219 214.351562 L 220.199219 216.226562 C 220.25 216.324219 220.351562 216.5 220.5 216.75 C 220.601562 216.949219 220.648438 217.050781 220.648438 217.050781 L 220.648438 214.351562 L 221.175781 214.351562 L 221.175781 217.875 L 220.648438 217.875 L 219.449219 215.851562 C 219.351562 215.648438 219.25 215.476562 219.148438 215.324219 C 219.050781 215.125 218.976562 215 218.925781 214.949219 L 218.925781 217.875 L 218.476562 217.875 L 218.476562 214.351562 L 219 214.351562 "/>
<path style=" stroke:none;fill-rule:nonzero;fill:rgb(100%,0%,0%);fill-opacity:1;" d="M 199.800781 211.648438 C 199.800781 211.050781 199.949219 210.601562 200.25 210.300781 C 200.550781 210 200.949219 209.851562 201.449219 209.851562 C 201.949219 209.851562 202.351562 210 202.648438 210.300781 C 202.949219 210.601562 203.101562 211.050781 203.101562 211.648438 C 203.101562 212.199219 202.949219 212.625 202.648438 212.925781 C 202.351562 213.273438 201.949219 213.449219 201.449219 213.449219 C 200.949219 213.449219 200.550781 213.273438 200.25 212.925781 C 199.949219 212.625 199.800781 212.199219 199.800781 211.648438 M 201.449219 213.074219 C 201.800781 213.074219 202.074219 212.949219 202.273438 212.699219 C 202.476562 212.449219 202.574219 212.101562 202.574219 211.648438 C 202.574219 211.148438 202.476562 210.800781 202.273438 210.601562 C 202.074219 210.351562 201.800781 210.226562 201.449219 210.226562 C 201.101562 210.226562 200.824219 210.351562 200.625 210.601562 C 200.425781 210.800781 200.324219 211.148438 200.324219 211.648438 C 200.324219 212.101562 200.425781 212.449219 200.625 212.699219 C 200.824219 212.949219 201.101562 213.074219 201.449219 213.074219 "/>
</g>
</svg>
