<?xml version="1.0" encoding="UTF-8"?>
<svg xmlns="http://www.w3.org/2000/svg" xmlns:xlink="http://www.w3.org/1999/xlink" width="375pt" height="375pt" viewBox="0 0 375 375" version="1.1">
<g id="surface56">
<rect x="0" y="0" width="375" height="375" style="fill:rgb(100%,100%,100%);fill-opacity:1;stroke:none;"/>
<path style="fill-rule:evenodd;fill:rgb(0%,0%,0%);fill-opacity:1;stroke-width:1;stroke-linecap:butt;stroke-linejoin:miter;stroke:rgb(0%,0%,0%);stroke-opacity:1;stroke-miterlimit:4;" d="M 334.5 272 L 337.802083 318.197917 L 328.598958 318 Z M 334.5 272 " transform="matrix(0.75,0,0,0.75,0,0)"/>
<path style="fill:none;stroke-width:2;stroke-linecap:butt;stroke-linejoin:miter;stroke:rgb(0%,0%,0%);stroke-opacity:1;stroke-miterlimit:4;" d="M 334.5 272 L 302.901042 238.5 " transform="matrix(0.75,0,0,0.75,0,0)"/>
<path style="fill:none;stroke-width:1;stroke-linecap:butt;stroke-linejoin:miter;stroke:rgb(0%,0%,0%);stroke-opacity:1;stroke-miterlimit:4;" d="M 296.5 237.598958 L 296.5 239.098958 " transform="matrix(0.75,0,0,0.75,0,0)"/>
<path style="fill:none;stroke-width:1;stroke-linecap:butt;stroke-linejoin:miter;stroke:rgb(0%,0%,0%);stroke-opacity:1;stroke-miterlimit:4;" d="M 290.197917 236.598958 L 290.098958 239.697917 " transform="matrix(0.75,0,0,0.75,0,0)"/>
<path style="fill:none;stroke-width:1;stroke-linecap:butt;stroke-linejoin:miter;stroke:rgb(0%,0%,0%);stroke-opacity:1;stroke-miterlimit:4;" d="M 283.901042 235.697917 L 283.802083 240.302083 " transform="matrix(0.75,0,0,0.75,0,0)"/>
<path style="fill:none;stroke-width:1;stroke-linecap:butt;stroke-linejoin:miter;stroke:rgb(0%,0%,100%);stroke-opacity:1;stroke-miterlimit:4;" d="M 277.598958 234.697917 L 277.401042 240.901042 " transform="matrix(0.75,0,0,0.75,0,0)"/>
<path style="fill:none;stroke-width:1;stroke-linecap:butt;stroke-linejoin:miter;stroke:rgb(0%,0%,100%);stroke-opacity:1;stroke-miterlimit:4;" d="M 271.197917 233.802083 L 271 241.401042 " transform="matrix(0.75,0,0,0.75,0,0)"/>
<path style="fill:none;stroke-width:1;stroke-linecap:butt;stroke-linejoin:miter;stroke:rgb(0%,0%,100%);stroke-opacity:1;stroke-miterlimit:4;" d="M 264.901042 232.802083 L 264.598958 242 " transform="matrix(0.75,0,0,0.75,0,0)"/>
<path style="fill:none;stroke-width:2;stroke-linecap:butt;stroke-linejoin:miter;stroke:rgb(0%,0%,100%);stroke-opacity:1;stroke-miterlimit:4;" d="M 251.802083 245.197917 L 242.197917 260.802083 " transform="matrix(0.75,0,0,0.75,0,0)"/>
<path style="fill:none;stroke-width:2;stroke-linecap:butt;stroke-linejoin:miter;stroke:rgb(0%,0%,0%);stroke-opacity:1;stroke-miterlimit:4;" d="M 242.197917 260.802083 L 232.598958 276.401042 " transform="matrix(0.75,0,0,0.75,0,0)"/>
<path style="fill:none;stroke-width:2;stroke-linecap:butt;stroke-linejoin:miter;stroke:rgb(0%,0%,0%);stroke-opacity:1;stroke-miterlimit:4;" d="M 236.697917 274.197917 L 245.401042 290.5 " transform="matrix(0.75,0,0,0.75,0,0)"/>
<path style="fill:none;stroke-width:2;stroke-linecap:butt;stroke-linejoin:miter;stroke:rgb(100%,0%,0%);stroke-opacity:1;stroke-miterlimit:4;" d="M 245.401042 290.5 L 254.197917 306.697917 " transform="matrix(0.75,0,0,0.75,0,0)"/>
<path style="fill:none;stroke-width:2;stroke-linecap:butt;stroke-linejoin:miter;stroke:rgb(0%,0%,0%);stroke-opacity:1;stroke-miterlimit:4;" d="M 228.598958 278.598958 L 237.302083 294.802083 " transform="matrix(0.75,0,0,0.75,0,0)"/>
<path style="fill:none;stroke-width:2;stroke-linecap:butt;stroke-linejoin:miter;stroke:rgb(100%,0%,0%);stroke-opacity:1;stroke-miterlimit:4;" d="M 237.302083 294.802083 L 246.098958 311.098958 " transform="matrix(0.75,0,0,0.75,0,0)"/>
<path style="fill:none;stroke-width:2;stroke-linecap:butt;stroke-linejoin:miter;stroke:rgb(0%,0%,0%);stroke-opacity:1;stroke-miterlimit:4;" d="M 232.598958 276.401042 L 186.5 275.098958 " transform="matrix(0.75,0,0,0.75,0,0)"/>
<path style="fill:none;stroke-width:2;stroke-linecap:butt;stroke-linejoin:miter;stroke:rgb(0%,0%,0%);stroke-opacity:1;stroke-miterlimit:4;" d="M 186.5 275.098958 L 177.802083 258.901042 " transform="matrix(0.75,0,0,0.75,0,0)"/>
<path style="fill:none;stroke-width:2;stroke-linecap:butt;stroke-linejoin:miter;stroke:rgb(0%,0%,100%);stroke-opacity:1;stroke-miterlimit:4;" d="M 177.802083 258.901042 L 169 242.598958 " transform="matrix(0.75,0,0,0.75,0,0)"/>
<path style="fill:none;stroke-width:2;stroke-linecap:butt;stroke-linejoin:miter;stroke:rgb(0%,0%,0%);stroke-opacity:1;stroke-miterlimit:4;" d="M 192 265.901042 L 185.901042 254.5 " transform="matrix(0.75,0,0,0.75,0,0)"/>
<path style="fill:none;stroke-width:2;stroke-linecap:butt;stroke-linejoin:miter;stroke:rgb(0%,0%,100%);stroke-opacity:1;stroke-miterlimit:4;" d="M 185.901042 254.5 L 179.697917 243.098958 " transform="matrix(0.75,0,0,0.75,0,0)"/>
<path style="fill:none;stroke-width:2;stroke-linecap:butt;stroke-linejoin:miter;stroke:rgb(0%,0%,100%);stroke-opacity:1;stroke-miterlimit:4;" d="M 158.197917 234.401042 L 142.098958 233.901042 " transform="matrix(0.75,0,0,0.75,0,0)"/>
<path style="fill:none;stroke-width:2;stroke-linecap:butt;stroke-linejoin:miter;stroke:rgb(100%,0%,0%);stroke-opacity:1;stroke-miterlimit:4;" d="M 142.098958 233.901042 L 126.098958 233.5 " transform="matrix(0.75,0,0,0.75,0,0)"/>
<path style="fill:none;stroke-width:2;stroke-linecap:butt;stroke-linejoin:miter;stroke:rgb(100%,0%,0%);stroke-opacity:1;stroke-miterlimit:4;" d="M 114.197917 225.098958 L 105.401042 208.901042 " transform="matrix(0.75,0,0,0.75,0,0)"/>
<path style="fill:none;stroke-width:2;stroke-linecap:butt;stroke-linejoin:miter;stroke:rgb(0%,0%,0%);stroke-opacity:1;stroke-miterlimit:4;" d="M 105.401042 208.901042 L 96.697917 192.697917 " transform="matrix(0.75,0,0,0.75,0,0)"/>
<path style="fill:none;stroke-width:2;stroke-linecap:butt;stroke-linejoin:miter;stroke:rgb(0%,0%,0%);stroke-opacity:1;stroke-miterlimit:4;" d="M 96.697917 192.697917 L 56.098958 214.598958 " transform="matrix(0.75,0,0,0.75,0,0)"/>
<path style="fill:none;stroke-width:2;stroke-linecap:butt;stroke-linejoin:miter;stroke:rgb(0%,0%,0%);stroke-opacity:1;stroke-miterlimit:4;" d="M 96.697917 192.697917 L 137.197917 170.802083 " transform="matrix(0.75,0,0,0.75,0,0)"/>
<path style="fill:none;stroke-width:2;stroke-linecap:butt;stroke-linejoin:miter;stroke:rgb(0%,0%,0%);stroke-opacity:1;stroke-miterlimit:4;" d="M 96.697917 192.697917 L 74.802083 152.098958 " transform="matrix(0.75,0,0,0.75,0,0)"/>
<path style="fill:none;stroke-width:2;stroke-linecap:butt;stroke-linejoin:miter;stroke:rgb(0%,0%,0%);stroke-opacity:1;stroke-miterlimit:4;" d="M 74.697917 156.802083 L 55.401042 156.197917 " transform="matrix(0.75,0,0,0.75,0,0)"/>
<path style="fill:none;stroke-width:2;stroke-linecap:butt;stroke-linejoin:miter;stroke:rgb(100%,0%,0%);stroke-opacity:1;stroke-miterlimit:4;" d="M 55.401042 156.197917 L 36.098958 155.697917 " transform="matrix(0.75,0,0,0.75,0,0)"/>
<path style="fill:none;stroke-width:2;stroke-linecap:butt;stroke-linejoin:miter;stroke:rgb(0%,0%,0%);stroke-opacity:1;stroke-miterlimit:4;" d="M 74.901042 147.5 L 55.598958 147 " transform="matrix(0.75,0,0,0.75,0,0)"/>
<path style="fill:none;stroke-width:2;stroke-linecap:butt;stroke-linejoin:miter;stroke:rgb(100%,0%,0%);stroke-opacity:1;stroke-miterlimit:4;" d="M 55.598958 147 L 36.401042 146.401042 " transform="matrix(0.75,0,0,0.75,0,0)"/>
<path style="fill:none;stroke-width:2;stroke-linecap:butt;stroke-linejoin:miter;stroke:rgb(0%,0%,0%);stroke-opacity:1;stroke-miterlimit:4;" d="M 74.802083 152.098958 L 84.302083 136.697917 " transform="matrix(0.75,0,0,0.75,0,0)"/>
<path style="fill:none;stroke-width:2;stroke-linecap:butt;stroke-linejoin:miter;stroke:rgb(100%,0%,0%);stroke-opacity:1;stroke-miterlimit:4;" d="M 84.302083 136.697917 L 93.802083 121.197917 " transform="matrix(0.75,0,0,0.75,0,0)"/>
<path style="fill:none;stroke-width:2;stroke-linecap:butt;stroke-linejoin:miter;stroke:rgb(0%,0%,0%);stroke-opacity:1;stroke-miterlimit:4;" d="M 186.5 275.098958 L 162.401042 314.401042 " transform="matrix(0.75,0,0,0.75,0,0)"/>
<path style="fill:none;stroke-width:2;stroke-linecap:butt;stroke-linejoin:miter;stroke:rgb(0%,0%,0%);stroke-opacity:1;stroke-miterlimit:4;" d="M 162.401042 314.401042 L 179.901042 357 " transform="matrix(0.75,0,0,0.75,0,0)"/>
<path style="fill:none;stroke-width:2;stroke-linecap:butt;stroke-linejoin:miter;stroke:rgb(0%,0%,0%);stroke-opacity:1;stroke-miterlimit:4;" d="M 156.5 324.302083 L 168.802083 354.098958 " transform="matrix(0.75,0,0,0.75,0,0)"/>
<path style="fill:none;stroke-width:2;stroke-linecap:butt;stroke-linejoin:miter;stroke:rgb(0%,0%,0%);stroke-opacity:1;stroke-miterlimit:4;" d="M 179.901042 357 L 165.197917 369.5 " transform="matrix(0.75,0,0,0.75,0,0)"/>
<path style="fill:none;stroke-width:2;stroke-linecap:butt;stroke-linejoin:miter;stroke:rgb(80%,80%,0%);stroke-opacity:1;stroke-miterlimit:4;" d="M 165.197917 369.5 L 150.5 382 " transform="matrix(0.75,0,0,0.75,0,0)"/>
<path style="fill:none;stroke-width:2;stroke-linecap:butt;stroke-linejoin:miter;stroke:rgb(80%,80%,0%);stroke-opacity:1;stroke-miterlimit:4;" d="M 139.098958 383.302083 L 122.302083 373 " transform="matrix(0.75,0,0,0.75,0,0)"/>
<path style="fill:none;stroke-width:2;stroke-linecap:butt;stroke-linejoin:miter;stroke:rgb(0%,0%,0%);stroke-opacity:1;stroke-miterlimit:4;" d="M 122.302083 373 L 105.598958 362.697917 " transform="matrix(0.75,0,0,0.75,0,0)"/>
<path style="fill:none;stroke-width:2;stroke-linecap:butt;stroke-linejoin:miter;stroke:rgb(0%,0%,0%);stroke-opacity:1;stroke-miterlimit:4;" d="M 105.598958 362.697917 L 87.5 370.098958 " transform="matrix(0.75,0,0,0.75,0,0)"/>
<path style="fill:none;stroke-width:2;stroke-linecap:butt;stroke-linejoin:miter;stroke:rgb(0%,0%,100%);stroke-opacity:1;stroke-miterlimit:4;" d="M 87.5 370.098958 L 69.401042 377.5 " transform="matrix(0.75,0,0,0.75,0,0)"/>
<path style="fill:none;stroke-width:2;stroke-linecap:butt;stroke-linejoin:miter;stroke:rgb(0%,0%,0%);stroke-opacity:1;stroke-miterlimit:4;" d="M 105.598958 362.697917 L 110 344.302083 " transform="matrix(0.75,0,0,0.75,0,0)"/>
<path style="fill:none;stroke-width:2;stroke-linecap:butt;stroke-linejoin:miter;stroke:rgb(0%,0%,100%);stroke-opacity:1;stroke-miterlimit:4;" d="M 110 344.302083 L 114.5 325.901042 " transform="matrix(0.75,0,0,0.75,0,0)"/>
<path style="fill:none;stroke-width:2;stroke-linecap:butt;stroke-linejoin:miter;stroke:rgb(0%,0%,0%);stroke-opacity:1;stroke-miterlimit:4;" d="M 115.901042 359.302083 L 119 346.5 " transform="matrix(0.75,0,0,0.75,0,0)"/>
<path style="fill:none;stroke-width:2;stroke-linecap:butt;stroke-linejoin:miter;stroke:rgb(0%,0%,100%);stroke-opacity:1;stroke-miterlimit:4;" d="M 119 346.5 L 122.098958 333.598958 " transform="matrix(0.75,0,0,0.75,0,0)"/>
<path style="fill:none;stroke-width:2;stroke-linecap:butt;stroke-linejoin:miter;stroke:rgb(0%,0%,0%);stroke-opacity:1;stroke-miterlimit:4;" d="M 302.901042 238.5 L 336.401042 206.901042 " transform="matrix(0.75,0,0,0.75,0,0)"/>
<path style="fill:none;stroke-width:2;stroke-linecap:butt;stroke-linejoin:miter;stroke:rgb(0%,0%,0%);stroke-opacity:1;stroke-miterlimit:4;" d="M 331.802083 206.697917 L 332.302083 187.901042 " transform="matrix(0.75,0,0,0.75,0,0)"/>
<path style="fill:none;stroke-width:2;stroke-linecap:butt;stroke-linejoin:miter;stroke:rgb(100%,0%,0%);stroke-opacity:1;stroke-miterlimit:4;" d="M 332.302083 187.901042 L 332.802083 169 " transform="matrix(0.75,0,0,0.75,0,0)"/>
<path style="fill:none;stroke-width:2;stroke-linecap:butt;stroke-linejoin:miter;stroke:rgb(0%,0%,0%);stroke-opacity:1;stroke-miterlimit:4;" d="M 341 207 L 341.5 188.098958 " transform="matrix(0.75,0,0,0.75,0,0)"/>
<path style="fill:none;stroke-width:2;stroke-linecap:butt;stroke-linejoin:miter;stroke:rgb(100%,0%,0%);stroke-opacity:1;stroke-miterlimit:4;" d="M 341.5 188.098958 L 342 169.302083 " transform="matrix(0.75,0,0,0.75,0,0)"/>
<path style="fill:none;stroke-width:2;stroke-linecap:butt;stroke-linejoin:miter;stroke:rgb(0%,0%,0%);stroke-opacity:1;stroke-miterlimit:4;" d="M 336.401042 206.901042 L 348.901042 220.197917 " transform="matrix(0.75,0,0,0.75,0,0)"/>
<path style="fill:none;stroke-width:2;stroke-linecap:butt;stroke-linejoin:miter;stroke:rgb(0%,0%,100%);stroke-opacity:1;stroke-miterlimit:4;" d="M 348.901042 220.197917 L 361.5 233.5 " transform="matrix(0.75,0,0,0.75,0,0)"/>
<path style="fill:none;stroke-width:2;stroke-linecap:butt;stroke-linejoin:miter;stroke:rgb(0%,0%,100%);stroke-opacity:1;stroke-miterlimit:4;" d="M 374.5 240.598958 L 391.401042 241 " transform="matrix(0.75,0,0,0.75,0,0)"/>
<path style="fill:none;stroke-width:2;stroke-linecap:butt;stroke-linejoin:miter;stroke:rgb(80%,80%,0%);stroke-opacity:1;stroke-miterlimit:4;" d="M 391.401042 241 L 408.401042 241.5 " transform="matrix(0.75,0,0,0.75,0,0)"/>
<path style="fill:none;stroke-width:2;stroke-linecap:butt;stroke-linejoin:miter;stroke:rgb(80%,80%,0%);stroke-opacity:1;stroke-miterlimit:4;" d="M 418.401042 250.197917 L 418 265 " transform="matrix(0.75,0,0,0.75,0,0)"/>
<path style="fill:none;stroke-width:2;stroke-linecap:butt;stroke-linejoin:miter;stroke:rgb(100%,0%,0%);stroke-opacity:1;stroke-miterlimit:4;" d="M 418 265 L 417.598958 279.802083 " transform="matrix(0.75,0,0,0.75,0,0)"/>
<path style="fill:none;stroke-width:2;stroke-linecap:butt;stroke-linejoin:miter;stroke:rgb(80%,80%,0%);stroke-opacity:1;stroke-miterlimit:4;" d="M 409.197917 249.901042 L 408.802083 264.697917 " transform="matrix(0.75,0,0,0.75,0,0)"/>
<path style="fill:none;stroke-width:2;stroke-linecap:butt;stroke-linejoin:miter;stroke:rgb(100%,0%,0%);stroke-opacity:1;stroke-miterlimit:4;" d="M 408.802083 264.697917 L 408.401042 279.5 " transform="matrix(0.75,0,0,0.75,0,0)"/>
<path style="fill:none;stroke-width:2;stroke-linecap:butt;stroke-linejoin:miter;stroke:rgb(80%,80%,0%);stroke-opacity:1;stroke-miterlimit:4;" d="M 409.697917 233.5 L 410.098958 218.697917 " transform="matrix(0.75,0,0,0.75,0,0)"/>
<path style="fill:none;stroke-width:2;stroke-linecap:butt;stroke-linejoin:miter;stroke:rgb(100%,0%,0%);stroke-opacity:1;stroke-miterlimit:4;" d="M 410.098958 218.697917 L 410.5 203.802083 " transform="matrix(0.75,0,0,0.75,0,0)"/>
<path style="fill:none;stroke-width:2;stroke-linecap:butt;stroke-linejoin:miter;stroke:rgb(80%,80%,0%);stroke-opacity:1;stroke-miterlimit:4;" d="M 418.901042 233.802083 L 419.302083 218.901042 " transform="matrix(0.75,0,0,0.75,0,0)"/>
<path style="fill:none;stroke-width:2;stroke-linecap:butt;stroke-linejoin:miter;stroke:rgb(100%,0%,0%);stroke-opacity:1;stroke-miterlimit:4;" d="M 419.302083 218.901042 L 419.802083 204.098958 " transform="matrix(0.75,0,0,0.75,0,0)"/>
<path style="fill:none;stroke-width:2;stroke-linecap:butt;stroke-linejoin:miter;stroke:rgb(80%,80%,0%);stroke-opacity:1;stroke-miterlimit:4;" d="M 419.802083 241.802083 L 436.197917 242.302083 " transform="matrix(0.75,0,0,0.75,0,0)"/>
<path style="fill:none;stroke-width:2;stroke-linecap:butt;stroke-linejoin:miter;stroke:rgb(100%,0%,0%);stroke-opacity:1;stroke-miterlimit:4;" d="M 436.197917 242.302083 L 452.598958 242.802083 " transform="matrix(0.75,0,0,0.75,0,0)"/>
<path style="fill:none;stroke-width:2;stroke-linecap:butt;stroke-linejoin:miter;stroke:rgb(0%,0%,100%);stroke-opacity:1;stroke-miterlimit:4;" d="M 361.5 246.5 L 348 259.197917 " transform="matrix(0.75,0,0,0.75,0,0)"/>
<path style="fill:none;stroke-width:2;stroke-linecap:butt;stroke-linejoin:miter;stroke:rgb(0%,0%,0%);stroke-opacity:1;stroke-miterlimit:4;" d="M 348 259.197917 L 334.5 272 " transform="matrix(0.75,0,0,0.75,0,0)"/>
<path style="fill:none;stroke-width:2;stroke-linecap:butt;stroke-linejoin:miter;stroke:rgb(0%,0%,100%);stroke-opacity:1;stroke-miterlimit:4;" d="M 122.901042 317.401042 L 142.598958 315.901042 " transform="matrix(0.75,0,0,0.75,0,0)"/>
<path style="fill:none;stroke-width:2;stroke-linecap:butt;stroke-linejoin:miter;stroke:rgb(0%,0%,0%);stroke-opacity:1;stroke-miterlimit:4;" d="M 142.598958 315.901042 L 162.401042 314.401042 " transform="matrix(0.75,0,0,0.75,0,0)"/>
<path style=" stroke:none;fill-rule:nonzero;fill:rgb(0%,0%,100%);fill-opacity:1;" d="M 180.074219 173.023438 L 181.351562 173.023438 L 181.351562 177.148438 L 186.375 177.148438 L 186.375 173.023438 L 187.726562 173.023438 L 187.726562 182.773438 L 186.375 182.773438 L 186.375 178.273438 L 181.351562 178.273438 L 181.351562 182.773438 L 180.074219 182.773438 L 180.074219 173.023438 "/>
<path style=" stroke:none;fill-rule:nonzero;fill:rgb(0%,0%,100%);fill-opacity:1;" d="M 190.425781 173.023438 L 193.648438 178.199219 C 193.851562 178.550781 194.125 179.023438 194.476562 179.625 C 194.824219 180.226562 195 180.550781 195 180.601562 L 195 173.023438 L 196.273438 173.023438 L 196.273438 182.773438 L 194.925781 182.773438 L 191.550781 177.148438 C 191.25 176.699219 190.976562 176.226562 190.726562 175.726562 C 190.425781 175.226562 190.226562 174.875 190.125 174.675781 L 190.125 182.773438 L 188.851562 182.773438 L 188.851562 173.023438 L 190.425781 173.023438 "/>
<path style=" stroke:none;fill-rule:nonzero;fill:rgb(100%,0%,0%);fill-opacity:1;" d="M 186.375 237.75 C 186.375 236.199219 186.773438 234.976562 187.574219 234.074219 C 188.324219 233.226562 189.425781 232.800781 190.875 232.800781 C 192.324219 232.800781 193.449219 233.226562 194.25 234.074219 C 195 234.976562 195.375 236.199219 195.375 237.75 C 195.375 239.351562 194.976562 240.601562 194.175781 241.5 C 193.425781 242.398438 192.324219 242.851562 190.875 242.851562 C 189.425781 242.851562 188.324219 242.398438 187.574219 241.5 C 186.773438 240.601562 186.375 239.351562 186.375 237.75 M 190.875 241.726562 C 191.875 241.726562 192.648438 241.398438 193.199219 240.75 C 193.75 240.050781 194.023438 239.050781 194.023438 237.75 C 194.023438 236.5 193.75 235.550781 193.199219 234.898438 C 192.648438 234.25 191.875 233.925781 190.875 233.925781 C 189.875 233.925781 189.101562 234.25 188.550781 234.898438 C 188.050781 235.5 187.800781 236.449219 187.800781 237.75 C 187.800781 239.101562 188.050781 240.101562 188.550781 240.75 C 189.101562 241.398438 189.875 241.726562 190.875 241.726562 "/>
<path style=" stroke:none;fill-rule:nonzero;fill:rgb(0%,0%,100%);fill-opacity:1;" d="M 121.351562 171 L 124.5 176.25 C 124.75 176.550781 125.023438 177.023438 125.324219 177.675781 C 125.675781 178.273438 125.875 178.601562 125.925781 178.648438 L 125.925781 171 L 127.199219 171 L 127.199219 180.824219 L 125.851562 180.824219 L 122.398438 175.125 C 122.148438 174.726562 121.875 174.25 121.574219 173.699219 C 121.324219 173.199219 121.148438 172.875 121.050781 172.726562 L 121.050781 180.824219 L 119.773438 180.824219 L 119.773438 171 L 121.351562 171 "/>
<path style=" stroke:none;fill-rule:nonzero;fill:rgb(100%,0%,0%);fill-opacity:1;" d="M 84.449219 174.976562 C 84.449219 173.425781 84.824219 172.199219 85.574219 171.300781 C 86.375 170.449219 87.5 170.023438 88.949219 170.023438 C 90.398438 170.023438 91.5 170.449219 92.25 171.300781 C 93.050781 172.199219 93.449219 173.425781 93.449219 174.976562 C 93.449219 176.574219 93.050781 177.824219 92.25 178.726562 C 91.449219 179.625 90.351562 180.074219 88.949219 180.074219 C 87.5 180.074219 86.375 179.625 85.574219 178.726562 C 84.824219 177.824219 84.449219 176.574219 84.449219 174.976562 M 88.949219 178.949219 C 89.949219 178.949219 90.699219 178.625 91.199219 177.976562 C 91.75 177.273438 92.023438 176.273438 92.023438 174.976562 C 92.023438 173.675781 91.75 172.699219 91.199219 172.050781 C 90.699219 171.398438 89.949219 171.074219 88.949219 171.074219 C 87.949219 171.074219 87.175781 171.398438 86.625 172.050781 C 86.074219 172.699219 85.800781 173.675781 85.800781 174.976562 C 85.800781 176.273438 86.074219 177.273438 86.625 177.976562 C 87.175781 178.625 87.949219 178.949219 88.949219 178.949219 "/>
<path style=" stroke:none;fill-rule:nonzero;fill:rgb(100%,0%,0%);fill-opacity:1;" d="M 17.023438 113.175781 C 17.023438 111.574219 17.425781 110.351562 18.226562 109.5 C 18.976562 108.601562 20.074219 108.148438 21.523438 108.148438 C 22.976562 108.148438 24.101562 108.601562 24.898438 109.5 C 25.648438 110.351562 26.023438 111.574219 26.023438 113.175781 C 26.023438 114.726562 25.625 115.949219 24.824219 116.851562 C 24.074219 117.75 22.976562 118.199219 21.523438 118.199219 C 20.074219 118.199219 18.976562 117.75 18.226562 116.851562 C 17.425781 116 17.023438 114.773438 17.023438 113.175781 M 21.523438 117.148438 C 22.523438 117.148438 23.300781 116.800781 23.851562 116.101562 C 24.398438 115.449219 24.675781 114.476562 24.675781 113.175781 C 24.675781 111.875 24.398438 110.898438 23.851562 110.25 C 23.300781 109.601562 22.523438 109.273438 21.523438 109.273438 C 20.523438 109.273438 19.75 109.601562 19.199219 110.25 C 18.699219 110.898438 18.449219 111.875 18.449219 113.175781 C 18.449219 114.476562 18.699219 115.449219 19.199219 116.101562 C 19.75 116.800781 20.523438 117.148438 21.523438 117.148438 "/>
<path style=" stroke:none;fill-rule:nonzero;fill:rgb(100%,0%,0%);fill-opacity:1;" d="M 69.75 84.675781 C 69.75 83.125 70.125 81.925781 70.875 81.074219 C 71.675781 80.175781 72.800781 79.726562 74.25 79.726562 C 75.699219 79.726562 76.800781 80.175781 77.550781 81.074219 C 78.351562 81.925781 78.75 83.125 78.75 84.675781 C 78.75 86.273438 78.351562 87.523438 77.550781 88.425781 C 76.75 89.324219 75.648438 89.773438 74.25 89.773438 C 72.800781 89.773438 71.675781 89.324219 70.875 88.425781 C 70.125 87.523438 69.75 86.273438 69.75 84.675781 M 74.25 88.648438 C 75.25 88.648438 76 88.324219 76.5 87.675781 C 77.050781 87.023438 77.324219 86.023438 77.324219 84.675781 C 77.324219 83.425781 77.050781 82.476562 76.5 81.824219 C 76 81.175781 75.25 80.851562 74.25 80.851562 C 73.25 80.851562 72.476562 81.175781 71.925781 81.824219 C 71.375 82.476562 71.101562 83.425781 71.101562 84.675781 C 71.101562 86.023438 71.375 87.023438 71.925781 87.675781 C 72.476562 88.324219 73.25 88.648438 74.25 88.648438 "/>
<path style=" stroke:none;fill-rule:nonzero;fill:rgb(100%,0%,0%);fill-opacity:1;" d="M 79.425781 79.875 L 80.699219 79.875 L 80.699219 84 L 85.726562 84 L 85.726562 79.875 L 87.074219 79.875 L 87.074219 89.625 L 85.726562 89.625 L 85.726562 85.125 L 80.699219 85.125 L 80.699219 89.625 L 79.425781 89.625 L 79.425781 79.875 "/>
<path style=" stroke:none;fill-rule:nonzero;fill:rgb(80%,80%,0%);fill-opacity:1;" d="M 105.824219 293.476562 C 105.925781 293.523438 106.125 293.601562 106.425781 293.699219 C 106.726562 293.851562 107.023438 293.976562 107.324219 294.074219 C 107.675781 294.125 108.023438 294.148438 108.375 294.148438 C 108.976562 294.148438 109.449219 294 109.800781 293.699219 C 110.199219 293.398438 110.398438 292.976562 110.398438 292.425781 C 110.398438 292.074219 110.300781 291.800781 110.101562 291.601562 C 109.898438 291.351562 109.675781 291.175781 109.425781 291.074219 C 109.125 290.976562 108.75 290.851562 108.300781 290.699219 C 107.699219 290.5 107.226562 290.324219 106.875 290.175781 C 106.574219 290.023438 106.300781 289.773438 106.050781 289.425781 C 105.800781 289.074219 105.675781 288.601562 105.675781 288 C 105.675781 287.199219 105.949219 286.523438 106.5 285.976562 C 107.050781 285.476562 107.875 285.226562 108.976562 285.226562 C 109.726562 285.226562 110.550781 285.398438 111.449219 285.75 L 111.074219 286.875 C 110.324219 286.523438 109.648438 286.351562 109.050781 286.351562 C 108.398438 286.351562 107.898438 286.5 107.550781 286.800781 C 107.199219 287.050781 107.023438 287.398438 107.023438 287.851562 C 107.023438 288.199219 107.125 288.476562 107.324219 288.675781 C 107.523438 288.875 107.75 289.050781 108 289.199219 C 108.25 289.300781 108.601562 289.425781 109.050781 289.574219 C 109.648438 289.726562 110.125 289.898438 110.476562 290.101562 C 110.824219 290.300781 111.125 290.574219 111.375 290.925781 C 111.625 291.324219 111.75 291.824219 111.75 292.425781 C 111.75 293.375 111.449219 294.074219 110.851562 294.523438 C 110.25 295.023438 109.449219 295.273438 108.449219 295.273438 C 107.851562 295.273438 107.324219 295.199219 106.875 295.050781 C 106.425781 294.949219 105.949219 294.800781 105.449219 294.601562 L 105.824219 293.476562 "/>
<path style=" stroke:none;fill-rule:nonzero;fill:rgb(0%,0%,100%);fill-opacity:1;" d="M 29.773438 280.273438 L 31.050781 280.273438 L 31.050781 284.398438 L 36.074219 284.398438 L 36.074219 280.273438 L 37.425781 280.273438 L 37.425781 290.023438 L 36.074219 290.023438 L 36.074219 285.523438 L 31.050781 285.523438 L 31.050781 290.023438 L 29.773438 290.023438 L 29.773438 280.273438 "/>
<path style=" stroke:none;fill-rule:nonzero;fill:rgb(0%,0%,100%);fill-opacity:1;" d="M 38.625 289.726562 C 38.773438 289.324219 39.023438 289 39.375 288.75 C 39.773438 288.5 40.226562 288.375 40.726562 288.375 C 41.375 288.375 41.898438 288.550781 42.300781 288.898438 C 42.648438 289.300781 42.824219 289.800781 42.824219 290.398438 C 42.824219 291.050781 42.601562 291.675781 42.148438 292.273438 C 41.648438 292.875 40.925781 293.523438 39.976562 294.226562 L 42.976562 294.226562 L 42.976562 294.976562 L 38.625 294.976562 L 38.625 294.300781 C 39.425781 293.75 40.050781 293.25 40.5 292.800781 C 41 292.398438 41.351562 292 41.550781 291.601562 C 41.800781 291.25 41.925781 290.875 41.925781 290.476562 C 41.925781 290.023438 41.824219 289.699219 41.625 289.5 C 41.425781 289.25 41.125 289.125 40.726562 289.125 C 40.425781 289.125 40.148438 289.199219 39.898438 289.351562 C 39.648438 289.5 39.449219 289.726562 39.300781 290.023438 L 38.625 289.726562 "/>
<path style=" stroke:none;fill-rule:nonzero;fill:rgb(0%,0%,100%);fill-opacity:1;" d="M 45.074219 280.273438 L 48.226562 285.449219 C 48.476562 285.800781 48.75 286.273438 49.050781 286.875 C 49.398438 287.476562 49.601562 287.800781 49.648438 287.851562 L 49.648438 280.273438 L 50.925781 280.273438 L 50.925781 290.023438 L 49.574219 290.023438 L 46.125 284.398438 C 45.875 283.949219 45.601562 283.476562 45.300781 282.976562 C 45 282.476562 44.824219 282.125 44.773438 281.925781 L 44.773438 290.023438 L 43.5 290.023438 L 43.5 280.273438 L 45.074219 280.273438 "/>
<path style=" stroke:none;fill-rule:nonzero;fill:rgb(0%,0%,100%);fill-opacity:1;" d="M 85.125 233.476562 L 88.351562 238.726562 C 88.550781 239.023438 88.824219 239.5 89.175781 240.148438 C 89.523438 240.75 89.699219 241.074219 89.699219 241.125 L 89.699219 233.476562 L 91.050781 233.476562 L 91.050781 243.300781 L 89.699219 243.300781 L 86.25 237.601562 C 86 237.199219 85.726562 236.726562 85.425781 236.175781 C 85.125 235.675781 84.949219 235.351562 84.898438 235.199219 L 84.898438 243.300781 L 83.625 243.300781 L 83.625 233.476562 L 85.125 233.476562 "/>
<path style=" stroke:none;fill-rule:nonzero;fill:rgb(100%,0%,0%);fill-opacity:1;" d="M 248.773438 120.601562 C 248.773438 119.050781 249.148438 117.824219 249.898438 116.925781 C 250.699219 116.074219 251.824219 115.648438 253.273438 115.648438 C 254.726562 115.648438 255.824219 116.074219 256.574219 116.925781 C 257.375 117.824219 257.773438 119.050781 257.773438 120.601562 C 257.773438 122.199219 257.375 123.449219 256.574219 124.351562 C 255.773438 125.25 254.675781 125.699219 253.273438 125.699219 C 251.824219 125.699219 250.699219 125.25 249.898438 124.351562 C 249.148438 123.449219 248.773438 122.199219 248.773438 120.601562 M 253.273438 124.574219 C 254.273438 124.574219 255.023438 124.25 255.523438 123.601562 C 256.074219 122.949219 256.351562 121.949219 256.351562 120.601562 C 256.351562 119.351562 256.074219 118.398438 255.523438 117.75 C 255.023438 117.101562 254.273438 116.773438 253.273438 116.773438 C 252.273438 116.773438 251.5 117.101562 250.949219 117.75 C 250.398438 118.398438 250.125 119.351562 250.125 120.601562 C 250.125 121.949219 250.398438 122.949219 250.949219 123.601562 C 251.5 124.25 252.273438 124.574219 253.273438 124.574219 "/>
<path style=" stroke:none;fill-rule:nonzero;fill:rgb(0%,0%,100%);fill-opacity:1;" d="M 273.824219 175.351562 L 277.050781 180.601562 C 277.25 180.898438 277.523438 181.375 277.875 182.023438 C 278.226562 182.625 278.398438 182.949219 278.398438 183 L 278.398438 175.351562 L 279.75 175.351562 L 279.75 185.175781 L 278.398438 185.175781 L 274.949219 179.476562 C 274.648438 179.074219 274.375 178.601562 274.125 178.050781 C 273.824219 177.550781 273.648438 177.226562 273.601562 177.074219 L 273.601562 185.175781 L 272.324219 185.175781 L 272.324219 175.351562 L 273.824219 175.351562 "/>
<path style=" stroke:none;fill-rule:nonzero;fill:rgb(80%,80%,0%);fill-opacity:1;" d="M 307.800781 184.648438 C 307.851562 184.648438 308.023438 184.726562 308.324219 184.875 C 308.675781 184.976562 309 185.074219 309.300781 185.175781 C 309.648438 185.226562 310 185.25 310.351562 185.25 C 310.949219 185.25 311.425781 185.125 311.773438 184.875 C 312.125 184.574219 312.300781 184.148438 312.300781 183.601562 C 312.300781 183.25 312.226562 182.949219 312.074219 182.699219 C 311.875 182.5 311.648438 182.351562 311.398438 182.25 C 311.101562 182.101562 310.726562 181.949219 310.273438 181.800781 C 309.675781 181.648438 309.199219 181.5 308.851562 181.351562 C 308.5 181.148438 308.199219 180.875 307.949219 180.523438 C 307.75 180.175781 307.648438 179.699219 307.648438 179.101562 C 307.648438 178.300781 307.925781 177.648438 308.476562 177.148438 C 309.023438 176.648438 309.851562 176.398438 310.949219 176.398438 C 311.699219 176.398438 312.5 176.574219 313.351562 176.925781 L 313.050781 177.976562 C 312.25 177.675781 311.574219 177.523438 311.023438 177.523438 C 310.375 177.523438 309.875 177.648438 309.523438 177.898438 C 309.175781 178.148438 309 178.5 309 178.949219 C 309 179.300781 309.101562 179.574219 309.300781 179.773438 C 309.449219 180.023438 309.648438 180.199219 309.898438 180.300781 C 310.199219 180.449219 310.574219 180.574219 311.023438 180.675781 C 311.574219 180.875 312.023438 181.074219 312.375 181.273438 C 312.726562 181.425781 313.023438 181.699219 313.273438 182.101562 C 313.574219 182.449219 313.726562 182.949219 313.726562 183.601562 C 313.726562 184.5 313.398438 185.199219 312.75 185.699219 C 312.148438 186.148438 311.351562 186.375 310.351562 186.375 C 309.800781 186.375 309.300781 186.324219 308.851562 186.226562 C 308.398438 186.074219 307.925781 185.898438 307.425781 185.699219 L 307.800781 184.648438 "/>
<path style=" stroke:none;fill-rule:nonzero;fill:rgb(100%,0%,0%);fill-opacity:1;" d="M 305.101562 215.851562 C 305.101562 214.300781 305.476562 213.074219 306.226562 212.175781 C 307.023438 211.324219 308.148438 210.898438 309.601562 210.898438 C 311.050781 210.898438 312.148438 211.324219 312.898438 212.175781 C 313.699219 213.074219 314.101562 214.300781 314.101562 215.851562 C 314.101562 217.449219 313.699219 218.699219 312.898438 219.601562 C 312.101562 220.5 311 220.949219 309.601562 220.949219 C 308.148438 220.949219 307.023438 220.5 306.226562 219.601562 C 305.476562 218.699219 305.101562 217.449219 305.101562 215.851562 M 309.601562 219.824219 C 310.601562 219.824219 311.351562 219.5 311.851562 218.851562 C 312.398438 218.148438 312.675781 217.148438 312.675781 215.851562 C 312.675781 214.550781 312.398438 213.574219 311.851562 212.925781 C 311.351562 212.273438 310.601562 211.949219 309.601562 211.949219 C 308.601562 211.949219 307.824219 212.273438 307.273438 212.925781 C 306.726562 213.574219 306.449219 214.550781 306.449219 215.851562 C 306.449219 217.148438 306.726562 218.148438 307.273438 218.851562 C 307.824219 219.5 308.601562 219.824219 309.601562 219.824219 "/>
<path style=" stroke:none;fill-rule:nonzero;fill:rgb(100%,0%,0%);fill-opacity:1;" d="M 307.050781 146.773438 C 307.050781 145.175781 307.425781 143.949219 308.175781 143.101562 C 308.976562 142.199219 310.101562 141.75 311.550781 141.75 C 313 141.75 314.101562 142.199219 314.851562 143.101562 C 315.648438 143.949219 316.050781 145.175781 316.050781 146.773438 C 316.050781 148.324219 315.648438 149.550781 314.851562 150.449219 C 314.050781 151.351562 312.949219 151.800781 311.550781 151.800781 C 310.101562 151.800781 308.976562 151.351562 308.175781 150.449219 C 307.425781 149.550781 307.050781 148.324219 307.050781 146.773438 M 311.550781 150.675781 C 312.550781 150.675781 313.324219 150.351562 313.875 149.699219 C 314.375 149.050781 314.625 148.074219 314.625 146.773438 C 314.625 145.476562 314.375 144.5 313.875 143.851562 C 313.324219 143.199219 312.550781 142.875 311.550781 142.875 C 310.550781 142.875 309.773438 143.199219 309.226562 143.851562 C 308.675781 144.5 308.398438 145.476562 308.398438 146.773438 C 308.398438 148.074219 308.675781 149.050781 309.226562 149.699219 C 309.773438 150.351562 310.550781 150.675781 311.550781 150.675781 "/>
<path style=" stroke:none;fill-rule:nonzero;fill:rgb(100%,0%,0%);fill-opacity:1;" d="M 340.648438 182.25 C 340.648438 180.699219 341.023438 179.5 341.773438 178.648438 C 342.574219 177.75 343.675781 177.300781 345.074219 177.300781 C 346.523438 177.300781 347.648438 177.75 348.449219 178.648438 C 349.199219 179.5 349.574219 180.699219 349.574219 182.25 C 349.574219 183.851562 349.199219 185.101562 348.449219 186 C 347.648438 186.898438 346.523438 187.351562 345.074219 187.351562 C 343.675781 187.351562 342.574219 186.898438 341.773438 186 C 341.023438 185.101562 340.648438 183.851562 340.648438 182.25 M 345.074219 186.226562 C 346.074219 186.226562 346.851562 185.898438 347.398438 185.25 C 347.949219 184.601562 348.226562 183.601562 348.226562 182.25 C 348.226562 181 347.949219 180.050781 347.398438 179.398438 C 346.851562 178.75 346.074219 178.425781 345.074219 178.425781 C 344.125 178.425781 343.375 178.75 342.824219 179.398438 C 342.273438 180.050781 342 181 342 182.25 C 342 183.601562 342.273438 184.601562 342.824219 185.25 C 343.375 185.898438 344.125 186.226562 345.074219 186.226562 "/>
<path style=" stroke:none;fill-rule:nonzero;fill:rgb(100%,0%,0%);fill-opacity:1;" d="M 350.324219 177.375 L 351.601562 177.375 L 351.601562 181.574219 L 356.625 181.574219 L 356.625 177.375 L 357.976562 177.375 L 357.976562 187.199219 L 356.625 187.199219 L 356.625 182.699219 L 351.601562 182.699219 L 351.601562 187.199219 L 350.324219 187.199219 L 350.324219 177.375 "/>
</g>
</svg>
