<?xml version="1.0" encoding="UTF-8"?>
<svg xmlns="http://www.w3.org/2000/svg" xmlns:xlink="http://www.w3.org/1999/xlink" width="375pt" height="375pt" viewBox="0 0 375 375" version="1.1">
<g id="surface181">
<rect x="0" y="0" width="375" height="375" style="fill:rgb(100%,100%,100%);fill-opacity:1;stroke:none;"/>
<path style="fill:none;stroke-width:1;stroke-linecap:butt;stroke-linejoin:miter;stroke:rgb(0%,0%,0%);stroke-opacity:1;stroke-miterlimit:4;" d="M 119.697917 272.697917 L 120.901042 273.302083 " transform="matrix(0.75,0,0,0.75,0,0)"/>
<path style="fill:none;stroke-width:1;stroke-linecap:butt;stroke-linejoin:miter;stroke:rgb(0%,0%,0%);stroke-opacity:1;stroke-miterlimit:4;" d="M 116.802083 276.802083 L 119.098958 278 " transform="matrix(0.75,0,0,0.75,0,0)"/>
<path style="fill:none;stroke-width:1;stroke-linecap:butt;stroke-linejoin:miter;stroke:rgb(0%,0%,0%);stroke-opacity:1;stroke-miterlimit:4;" d="M 113.901042 281 L 117.401042 282.802083 " transform="matrix(0.75,0,0,0.75,0,0)"/>
<path style="fill:none;stroke-width:1;stroke-linecap:butt;stroke-linejoin:miter;stroke:rgb(0%,0%,100%);stroke-opacity:1;stroke-miterlimit:4;" d="M 111 285.197917 L 115.598958 287.598958 " transform="matrix(0.75,0,0,0.75,0,0)"/>
<path style="fill:none;stroke-width:1;stroke-linecap:butt;stroke-linejoin:miter;stroke:rgb(0%,0%,100%);stroke-opacity:1;stroke-miterlimit:4;" d="M 108 289.302083 L 113.901042 292.401042 " transform="matrix(0.75,0,0,0.75,0,0)"/>
<path style="fill:none;stroke-width:1;stroke-linecap:butt;stroke-linejoin:miter;stroke:rgb(0%,0%,100%);stroke-opacity:1;stroke-miterlimit:4;" d="M 105.098958 293.5 L 112.098958 297.098958 " transform="matrix(0.75,0,0,0.75,0,0)"/>
<path style="fill:none;stroke-width:2;stroke-linecap:butt;stroke-linejoin:miter;stroke:rgb(0%,0%,0%);stroke-opacity:1;stroke-miterlimit:4;" d="M 122.598958 268.5 L 162.098958 266.901042 " transform="matrix(0.75,0,0,0.75,0,0)"/>
<path style="fill:none;stroke-width:2;stroke-linecap:butt;stroke-linejoin:miter;stroke:rgb(0%,0%,0%);stroke-opacity:1;stroke-miterlimit:4;" d="M 158.598958 265 L 165.901042 251.098958 " transform="matrix(0.75,0,0,0.75,0,0)"/>
<path style="fill:none;stroke-width:2;stroke-linecap:butt;stroke-linejoin:miter;stroke:rgb(100%,0%,0%);stroke-opacity:1;stroke-miterlimit:4;" d="M 165.901042 251.098958 L 173.197917 237.098958 " transform="matrix(0.75,0,0,0.75,0,0)"/>
<path style="fill:none;stroke-width:2;stroke-linecap:butt;stroke-linejoin:miter;stroke:rgb(0%,0%,0%);stroke-opacity:1;stroke-miterlimit:4;" d="M 165.598958 268.697917 L 172.901042 254.697917 " transform="matrix(0.75,0,0,0.75,0,0)"/>
<path style="fill:none;stroke-width:2;stroke-linecap:butt;stroke-linejoin:miter;stroke:rgb(100%,0%,0%);stroke-opacity:1;stroke-miterlimit:4;" d="M 172.901042 254.697917 L 180.197917 240.802083 " transform="matrix(0.75,0,0,0.75,0,0)"/>
<path style="fill:none;stroke-width:2;stroke-linecap:butt;stroke-linejoin:miter;stroke:rgb(0%,0%,0%);stroke-opacity:1;stroke-miterlimit:4;" d="M 162.098958 266.901042 L 170.5 280.098958 " transform="matrix(0.75,0,0,0.75,0,0)"/>
<path style="fill:none;stroke-width:2;stroke-linecap:butt;stroke-linejoin:miter;stroke:rgb(0%,0%,100%);stroke-opacity:1;stroke-miterlimit:4;" d="M 170.5 280.098958 L 178.901042 293.302083 " transform="matrix(0.75,0,0,0.75,0,0)"/>
<path style="fill-rule:evenodd;fill:rgb(0%,0%,0%);fill-opacity:1;stroke-width:1;stroke-linecap:butt;stroke-linejoin:miter;stroke:rgb(0%,0%,0%);stroke-opacity:1;stroke-miterlimit:4;" d="M 222.802083 298.598958 L 206.598958 301.197917 L 206.401042 297.302083 Z M 222.802083 298.598958 " transform="matrix(0.75,0,0,0.75,0,0)"/>
<path style="fill-rule:evenodd;fill:rgb(0%,0%,100%);fill-opacity:1;stroke-width:1;stroke-linecap:butt;stroke-linejoin:miter;stroke:rgb(0%,0%,100%);stroke-opacity:1;stroke-miterlimit:4;" d="M 206.598958 301.197917 L 190 296 L 190.302083 303.901042 Z M 206.598958 301.197917 " transform="matrix(0.75,0,0,0.75,0,0)"/>
<path style="fill-rule:evenodd;fill:rgb(0%,0%,100%);fill-opacity:1;stroke-width:1;stroke-linecap:butt;stroke-linejoin:miter;stroke:rgb(0%,0%,100%);stroke-opacity:1;stroke-miterlimit:4;" d="M 206.598958 301.197917 L 206.401042 297.302083 L 190 296 Z M 206.598958 301.197917 " transform="matrix(0.75,0,0,0.75,0,0)"/>
<path style="fill:none;stroke-width:2;stroke-linecap:butt;stroke-linejoin:miter;stroke:rgb(0%,0%,0%);stroke-opacity:1;stroke-miterlimit:4;" d="M 222.802083 298.598958 L 251.901042 325.401042 " transform="matrix(0.75,0,0,0.75,0,0)"/>
<path style="fill:none;stroke-width:2;stroke-linecap:butt;stroke-linejoin:miter;stroke:rgb(0%,0%,0%);stroke-opacity:1;stroke-miterlimit:4;" d="M 255.802083 325.197917 L 256.5 341.5 " transform="matrix(0.75,0,0,0.75,0,0)"/>
<path style="fill:none;stroke-width:2;stroke-linecap:butt;stroke-linejoin:miter;stroke:rgb(100%,0%,0%);stroke-opacity:1;stroke-miterlimit:4;" d="M 256.5 341.5 L 257.197917 357.697917 " transform="matrix(0.75,0,0,0.75,0,0)"/>
<path style="fill:none;stroke-width:2;stroke-linecap:butt;stroke-linejoin:miter;stroke:rgb(0%,0%,0%);stroke-opacity:1;stroke-miterlimit:4;" d="M 247.901042 325.5 L 248.598958 341.802083 " transform="matrix(0.75,0,0,0.75,0,0)"/>
<path style="fill:none;stroke-width:2;stroke-linecap:butt;stroke-linejoin:miter;stroke:rgb(100%,0%,0%);stroke-opacity:1;stroke-miterlimit:4;" d="M 248.598958 341.802083 L 249.302083 358 " transform="matrix(0.75,0,0,0.75,0,0)"/>
<path style="fill:none;stroke-width:2;stroke-linecap:butt;stroke-linejoin:miter;stroke:rgb(0%,0%,0%);stroke-opacity:1;stroke-miterlimit:4;" d="M 251.901042 325.401042 L 262.5 313.802083 " transform="matrix(0.75,0,0,0.75,0,0)"/>
<path style="fill:none;stroke-width:2;stroke-linecap:butt;stroke-linejoin:miter;stroke:rgb(0%,0%,100%);stroke-opacity:1;stroke-miterlimit:4;" d="M 262.5 313.802083 L 273.098958 302.302083 " transform="matrix(0.75,0,0,0.75,0,0)"/>
<path style="fill:none;stroke-width:2;stroke-linecap:butt;stroke-linejoin:miter;stroke:rgb(0%,0%,100%);stroke-opacity:1;stroke-miterlimit:4;" d="M 284.197917 294.5 L 300.302083 289.5 " transform="matrix(0.75,0,0,0.75,0,0)"/>
<path style="fill:none;stroke-width:2;stroke-linecap:butt;stroke-linejoin:miter;stroke:rgb(0%,0%,0%);stroke-opacity:1;stroke-miterlimit:4;" d="M 300.302083 289.5 L 316.401042 284.5 " transform="matrix(0.75,0,0,0.75,0,0)"/>
<path style="fill:none;stroke-width:2;stroke-linecap:butt;stroke-linejoin:miter;stroke:rgb(0%,0%,0%);stroke-opacity:1;stroke-miterlimit:4;" d="M 316.401042 284.5 L 345.5 311.197917 " transform="matrix(0.75,0,0,0.75,0,0)"/>
<path style="fill:none;stroke-width:2;stroke-linecap:butt;stroke-linejoin:miter;stroke:rgb(0%,0%,0%);stroke-opacity:1;stroke-miterlimit:4;" d="M 349.302083 312.098958 L 345.802083 327.901042 " transform="matrix(0.75,0,0,0.75,0,0)"/>
<path style="fill:none;stroke-width:2;stroke-linecap:butt;stroke-linejoin:miter;stroke:rgb(100%,0%,0%);stroke-opacity:1;stroke-miterlimit:4;" d="M 345.802083 327.901042 L 342.197917 343.697917 " transform="matrix(0.75,0,0,0.75,0,0)"/>
<path style="fill:none;stroke-width:2;stroke-linecap:butt;stroke-linejoin:miter;stroke:rgb(0%,0%,0%);stroke-opacity:1;stroke-miterlimit:4;" d="M 341.598958 310.401042 L 338.098958 326.197917 " transform="matrix(0.75,0,0,0.75,0,0)"/>
<path style="fill:none;stroke-width:2;stroke-linecap:butt;stroke-linejoin:miter;stroke:rgb(100%,0%,0%);stroke-opacity:1;stroke-miterlimit:4;" d="M 338.098958 326.197917 L 334.5 342 " transform="matrix(0.75,0,0,0.75,0,0)"/>
<path style="fill:none;stroke-width:2;stroke-linecap:butt;stroke-linejoin:miter;stroke:rgb(0%,0%,0%);stroke-opacity:1;stroke-miterlimit:4;" d="M 345.5 311.197917 L 361.098958 306.302083 " transform="matrix(0.75,0,0,0.75,0,0)"/>
<path style="fill:none;stroke-width:2;stroke-linecap:butt;stroke-linejoin:miter;stroke:rgb(100%,0%,0%);stroke-opacity:1;stroke-miterlimit:4;" d="M 361.098958 306.302083 L 376.697917 301.401042 " transform="matrix(0.75,0,0,0.75,0,0)"/>
<path style="fill:none;stroke-width:2;stroke-linecap:butt;stroke-linejoin:miter;stroke:rgb(0%,0%,0%);stroke-opacity:1;stroke-miterlimit:4;" d="M 316.401042 284.5 L 325 245.901042 " transform="matrix(0.75,0,0,0.75,0,0)"/>
<path style="fill:none;stroke-width:2;stroke-linecap:butt;stroke-linejoin:miter;stroke:rgb(0%,0%,0%);stroke-opacity:1;stroke-miterlimit:4;" d="M 309.901042 276.901042 L 316 249.901042 " transform="matrix(0.75,0,0,0.75,0,0)"/>
<path style="fill:none;stroke-width:2;stroke-linecap:butt;stroke-linejoin:miter;stroke:rgb(0%,0%,0%);stroke-opacity:1;stroke-miterlimit:4;" d="M 325 245.901042 L 362.697917 234.098958 " transform="matrix(0.75,0,0,0.75,0,0)"/>
<path style="fill:none;stroke-width:2;stroke-linecap:butt;stroke-linejoin:miter;stroke:rgb(0%,0%,0%);stroke-opacity:1;stroke-miterlimit:4;" d="M 362.697917 234.098958 L 366.197917 218.401042 " transform="matrix(0.75,0,0,0.75,0,0)"/>
<path style="fill:none;stroke-width:2;stroke-linecap:butt;stroke-linejoin:miter;stroke:rgb(80%,80%,0%);stroke-opacity:1;stroke-miterlimit:4;" d="M 366.197917 218.401042 L 369.697917 202.697917 " transform="matrix(0.75,0,0,0.75,0,0)"/>
<path style="fill:none;stroke-width:2;stroke-linecap:butt;stroke-linejoin:miter;stroke:rgb(80%,80%,0%);stroke-opacity:1;stroke-miterlimit:4;" d="M 376.197917 194 L 392.697917 188.802083 " transform="matrix(0.75,0,0,0.75,0,0)"/>
<path style="fill:none;stroke-width:2;stroke-linecap:butt;stroke-linejoin:miter;stroke:rgb(0%,0%,0%);stroke-opacity:1;stroke-miterlimit:4;" d="M 392.697917 188.802083 L 409.098958 183.697917 " transform="matrix(0.75,0,0,0.75,0,0)"/>
<path style="fill:none;stroke-width:2;stroke-linecap:butt;stroke-linejoin:miter;stroke:rgb(0%,0%,0%);stroke-opacity:1;stroke-miterlimit:4;" d="M 409.098958 183.697917 L 421.697917 146.197917 " transform="matrix(0.75,0,0,0.75,0,0)"/>
<path style="fill:none;stroke-width:2;stroke-linecap:butt;stroke-linejoin:miter;stroke:rgb(0%,0%,0%);stroke-opacity:1;stroke-miterlimit:4;" d="M 418.5 180.598958 L 427.302083 154.401042 " transform="matrix(0.75,0,0,0.75,0,0)"/>
<path style="fill:none;stroke-width:2;stroke-linecap:butt;stroke-linejoin:miter;stroke:rgb(0%,0%,0%);stroke-opacity:1;stroke-miterlimit:4;" d="M 421.697917 146.197917 L 438.697917 146.401042 " transform="matrix(0.75,0,0,0.75,0,0)"/>
<path style="fill:none;stroke-width:2;stroke-linecap:butt;stroke-linejoin:miter;stroke:rgb(0%,0%,100%);stroke-opacity:1;stroke-miterlimit:4;" d="M 438.697917 146.401042 L 455.697917 146.598958 " transform="matrix(0.75,0,0,0.75,0,0)"/>
<path style="fill:none;stroke-width:2;stroke-linecap:butt;stroke-linejoin:miter;stroke:rgb(0%,0%,100%);stroke-opacity:1;stroke-miterlimit:4;" d="M 463.401042 153.598958 L 470.901042 177.5 " transform="matrix(0.75,0,0,0.75,0,0)"/>
<path style="fill:none;stroke-width:2;stroke-linecap:butt;stroke-linejoin:miter;stroke:rgb(0%,0%,100%);stroke-opacity:1;stroke-miterlimit:4;" d="M 467.5 188.302083 L 446.401042 203.302083 " transform="matrix(0.75,0,0,0.75,0,0)"/>
<path style="fill:none;stroke-width:2;stroke-linecap:butt;stroke-linejoin:miter;stroke:rgb(0%,0%,100%);stroke-opacity:1;stroke-miterlimit:4;" d="M 459.697917 184.098958 L 444.901042 194.598958 " transform="matrix(0.75,0,0,0.75,0,0)"/>
<path style="fill:none;stroke-width:2;stroke-linecap:butt;stroke-linejoin:miter;stroke:rgb(0%,0%,0%);stroke-opacity:1;stroke-miterlimit:4;" d="M 325 245.901042 L 295.901042 219.098958 " transform="matrix(0.75,0,0,0.75,0,0)"/>
<path style="fill:none;stroke-width:2;stroke-linecap:butt;stroke-linejoin:miter;stroke:rgb(0%,0%,0%);stroke-opacity:1;stroke-miterlimit:4;" d="M 295.901042 219.098958 L 279.5 224.302083 " transform="matrix(0.75,0,0,0.75,0,0)"/>
<path style="fill:none;stroke-width:2;stroke-linecap:butt;stroke-linejoin:miter;stroke:rgb(80%,80%,0%);stroke-opacity:1;stroke-miterlimit:4;" d="M 279.5 224.302083 L 263.098958 229.401042 " transform="matrix(0.75,0,0,0.75,0,0)"/>
<path style="fill:none;stroke-width:2;stroke-linecap:butt;stroke-linejoin:miter;stroke:rgb(80%,80%,0%);stroke-opacity:1;stroke-miterlimit:4;" d="M 256.598958 238.098958 L 253.098958 253.802083 " transform="matrix(0.75,0,0,0.75,0,0)"/>
<path style="fill:none;stroke-width:2;stroke-linecap:butt;stroke-linejoin:miter;stroke:rgb(0%,0%,0%);stroke-opacity:1;stroke-miterlimit:4;" d="M 253.098958 253.802083 L 249.598958 269.5 " transform="matrix(0.75,0,0,0.75,0,0)"/>
<path style="fill:none;stroke-width:2;stroke-linecap:butt;stroke-linejoin:miter;stroke:rgb(0%,0%,0%);stroke-opacity:1;stroke-miterlimit:4;" d="M 122.598958 268.5 L 101.5 235.098958 " transform="matrix(0.75,0,0,0.75,0,0)"/>
<path style="fill:none;stroke-width:2;stroke-linecap:butt;stroke-linejoin:miter;stroke:rgb(0%,0%,0%);stroke-opacity:1;stroke-miterlimit:4;" d="M 101.5 235.098958 L 119.802083 200.098958 " transform="matrix(0.75,0,0,0.75,0,0)"/>
<path style="fill:none;stroke-width:2;stroke-linecap:butt;stroke-linejoin:miter;stroke:rgb(0%,0%,0%);stroke-opacity:1;stroke-miterlimit:4;" d="M 97.197917 226.197917 L 110 201.697917 " transform="matrix(0.75,0,0,0.75,0,0)"/>
<path style="fill:none;stroke-width:2;stroke-linecap:butt;stroke-linejoin:miter;stroke:rgb(0%,0%,0%);stroke-opacity:1;stroke-miterlimit:4;" d="M 119.802083 200.098958 L 98.598958 166.697917 " transform="matrix(0.75,0,0,0.75,0,0)"/>
<path style="fill:none;stroke-width:2;stroke-linecap:butt;stroke-linejoin:miter;stroke:rgb(0%,0%,0%);stroke-opacity:1;stroke-miterlimit:4;" d="M 98.598958 166.697917 L 59.098958 168.401042 " transform="matrix(0.75,0,0,0.75,0,0)"/>
<path style="fill:none;stroke-width:2;stroke-linecap:butt;stroke-linejoin:miter;stroke:rgb(0%,0%,0%);stroke-opacity:1;stroke-miterlimit:4;" d="M 93 174.901042 L 65.401042 176 " transform="matrix(0.75,0,0,0.75,0,0)"/>
<path style="fill:none;stroke-width:2;stroke-linecap:butt;stroke-linejoin:miter;stroke:rgb(0%,0%,0%);stroke-opacity:1;stroke-miterlimit:4;" d="M 59.098958 168.401042 L 50.802083 155.197917 " transform="matrix(0.75,0,0,0.75,0,0)"/>
<path style="fill:none;stroke-width:2;stroke-linecap:butt;stroke-linejoin:miter;stroke:rgb(100%,0%,0%);stroke-opacity:1;stroke-miterlimit:4;" d="M 50.802083 155.197917 L 42.5 142.098958 " transform="matrix(0.75,0,0,0.75,0,0)"/>
<path style="fill:none;stroke-width:2;stroke-linecap:butt;stroke-linejoin:miter;stroke:rgb(0%,0%,0%);stroke-opacity:1;stroke-miterlimit:4;" d="M 59.098958 168.401042 L 40.802083 203.401042 " transform="matrix(0.75,0,0,0.75,0,0)"/>
<path style="fill:none;stroke-width:2;stroke-linecap:butt;stroke-linejoin:miter;stroke:rgb(0%,0%,0%);stroke-opacity:1;stroke-miterlimit:4;" d="M 40.802083 203.401042 L 62 236.802083 " transform="matrix(0.75,0,0,0.75,0,0)"/>
<path style="fill:none;stroke-width:2;stroke-linecap:butt;stroke-linejoin:miter;stroke:rgb(0%,0%,0%);stroke-opacity:1;stroke-miterlimit:4;" d="M 50.697917 204.197917 L 65.5 227.5 " transform="matrix(0.75,0,0,0.75,0,0)"/>
<path style="fill:none;stroke-width:2;stroke-linecap:butt;stroke-linejoin:miter;stroke:rgb(0%,0%,0%);stroke-opacity:1;stroke-miterlimit:4;" d="M 249.598958 269.5 L 222.802083 298.598958 " transform="matrix(0.75,0,0,0.75,0,0)"/>
<path style="fill:none;stroke-width:2;stroke-linecap:butt;stroke-linejoin:miter;stroke:rgb(0%,0%,0%);stroke-opacity:1;stroke-miterlimit:4;" d="M 62 236.802083 L 101.5 235.098958 " transform="matrix(0.75,0,0,0.75,0,0)"/>
<path style="fill:none;stroke-width:2;stroke-linecap:butt;stroke-linejoin:miter;stroke:rgb(0%,0%,0%);stroke-opacity:1;stroke-miterlimit:4;" d="M 249.598958 269.5 L 261.302083 280.302083 " transform="matrix(0.75,0,0,0.75,0,0)"/>
<path style="fill:none;stroke-width:2;stroke-linecap:butt;stroke-linejoin:miter;stroke:rgb(0%,0%,100%);stroke-opacity:1;stroke-miterlimit:4;" d="M 261.302083 280.302083 L 273.098958 291.197917 " transform="matrix(0.75,0,0,0.75,0,0)"/>
<path style="fill:none;stroke-width:2;stroke-linecap:butt;stroke-linejoin:miter;stroke:rgb(0%,0%,100%);stroke-opacity:1;stroke-miterlimit:4;" d="M 435.302083 203.098958 L 422.197917 193.401042 " transform="matrix(0.75,0,0,0.75,0,0)"/>
<path style="fill:none;stroke-width:2;stroke-linecap:butt;stroke-linejoin:miter;stroke:rgb(0%,0%,0%);stroke-opacity:1;stroke-miterlimit:4;" d="M 422.197917 193.401042 L 409.098958 183.697917 " transform="matrix(0.75,0,0,0.75,0,0)"/>
<path style="fill:none;stroke-width:1;stroke-linecap:butt;stroke-linejoin:miter;stroke:rgb(0%,0%,0%);stroke-opacity:1;stroke-miterlimit:4;" d="M 245.197917 266.5 L 244.598958 267.598958 " transform="matrix(0.75,0,0,0.75,0,0)"/>
<path style="fill:none;stroke-width:1;stroke-linecap:butt;stroke-linejoin:miter;stroke:rgb(0%,0%,0%);stroke-opacity:1;stroke-miterlimit:4;" d="M 240.802083 263.401042 L 239.598958 265.802083 " transform="matrix(0.75,0,0,0.75,0,0)"/>
<path style="fill:none;stroke-width:1;stroke-linecap:butt;stroke-linejoin:miter;stroke:rgb(0%,0%,0%);stroke-opacity:1;stroke-miterlimit:4;" d="M 236.5 260.401042 L 234.598958 263.901042 " transform="matrix(0.75,0,0,0.75,0,0)"/>
<path style="fill:none;stroke-width:1;stroke-linecap:butt;stroke-linejoin:miter;stroke:rgb(0%,0%,0%);stroke-opacity:1;stroke-miterlimit:4;" d="M 232.098958 257.401042 L 229.598958 262.098958 " transform="matrix(0.75,0,0,0.75,0,0)"/>
<path style="fill:none;stroke-width:1;stroke-linecap:butt;stroke-linejoin:miter;stroke:rgb(0%,0%,0%);stroke-opacity:1;stroke-miterlimit:4;" d="M 227.697917 254.401042 L 224.697917 260.197917 " transform="matrix(0.75,0,0,0.75,0,0)"/>
<path style="fill:none;stroke-width:1;stroke-linecap:butt;stroke-linejoin:miter;stroke:rgb(0%,0%,0%);stroke-opacity:1;stroke-miterlimit:4;" d="M 223.401042 251.302083 L 219.697917 258.302083 " transform="matrix(0.75,0,0,0.75,0,0)"/>
<path style=" stroke:none;fill-rule:nonzero;fill:rgb(0%,0%,100%);fill-opacity:1;" d="M 63.300781 223.425781 L 64.425781 223.425781 L 64.425781 227.023438 L 68.699219 227.023438 L 68.699219 223.425781 L 69.824219 223.425781 L 69.824219 231.824219 L 68.699219 231.824219 L 68.699219 227.925781 L 64.425781 227.925781 L 64.425781 231.824219 L 63.300781 231.824219 L 63.300781 223.425781 "/>
<path style=" stroke:none;fill-rule:nonzero;fill:rgb(0%,0%,100%);fill-opacity:1;" d="M 70.875 231.523438 C 71.023438 231.175781 71.25 230.898438 71.550781 230.699219 C 71.898438 230.5 72.300781 230.398438 72.75 230.398438 C 73.300781 230.398438 73.726562 230.550781 74.023438 230.851562 C 74.324219 231.199219 74.476562 231.625 74.476562 232.125 C 74.476562 232.675781 74.273438 233.199219 73.875 233.699219 C 73.476562 234.25 72.851562 234.824219 72 235.425781 L 74.625 235.425781 L 74.625 236.023438 L 70.875 236.023438 L 70.875 235.5 C 71.574219 235 72.125 234.574219 72.523438 234.226562 C 72.925781 233.875 73.226562 233.523438 73.425781 233.175781 C 73.625 232.875 73.726562 232.550781 73.726562 232.199219 C 73.726562 231.851562 73.625 231.574219 73.425781 231.375 C 73.273438 231.175781 73.050781 231.074219 72.75 231.074219 C 72.449219 231.074219 72.199219 231.125 72 231.226562 C 71.800781 231.375 71.625 231.574219 71.476562 231.824219 L 70.875 231.523438 "/>
<path style=" stroke:none;fill-rule:nonzero;fill:rgb(0%,0%,100%);fill-opacity:1;" d="M 76.351562 223.425781 L 79.125 227.925781 C 79.324219 228.175781 79.574219 228.574219 79.875 229.125 C 80.125 229.675781 80.273438 229.949219 80.324219 229.949219 L 80.324219 223.425781 L 81.449219 223.425781 L 81.449219 231.824219 L 80.25 231.824219 L 77.324219 226.949219 C 77.074219 226.601562 76.824219 226.199219 76.574219 225.75 C 76.375 225.300781 76.226562 225.023438 76.125 224.925781 L 76.125 231.824219 L 75.074219 231.824219 L 75.074219 223.425781 L 76.351562 223.425781 "/>
<path style=" stroke:none;fill-rule:nonzero;fill:rgb(100%,0%,0%);fill-opacity:1;" d="M 131.476562 173.925781 C 131.476562 172.574219 131.800781 171.523438 132.449219 170.773438 C 133.148438 170.023438 134.125 169.648438 135.375 169.648438 C 136.574219 169.648438 137.523438 170.023438 138.226562 170.773438 C 138.875 171.523438 139.199219 172.574219 139.199219 173.925781 C 139.199219 175.273438 138.875 176.324219 138.226562 177.074219 C 137.523438 177.875 136.574219 178.273438 135.375 178.273438 C 134.125 178.273438 133.148438 177.875 132.449219 177.074219 C 131.800781 176.324219 131.476562 175.273438 131.476562 173.925781 M 135.375 177.300781 C 136.226562 177.300781 136.875 177.023438 137.324219 176.476562 C 137.773438 175.875 138 175.023438 138 173.925781 C 138 172.824219 137.773438 172 137.324219 171.449219 C 136.875 170.851562 136.226562 170.550781 135.375 170.550781 C 134.523438 170.550781 133.851562 170.824219 133.351562 171.375 C 132.898438 171.976562 132.675781 172.824219 132.675781 173.925781 C 132.675781 175.023438 132.898438 175.875 133.351562 176.476562 C 133.851562 177.023438 134.523438 177.300781 135.375 177.300781 "/>
<path style=" stroke:none;fill-rule:nonzero;fill:rgb(0%,0%,100%);fill-opacity:1;" d="M 126.75 220.949219 L 127.875 220.949219 L 127.875 224.550781 L 132.148438 224.550781 L 132.148438 220.949219 L 133.273438 220.949219 L 133.273438 229.351562 L 132.148438 229.351562 L 132.148438 225.523438 L 127.875 225.523438 L 127.875 229.351562 L 126.75 229.351562 L 126.75 220.949219 "/>
<path style=" stroke:none;fill-rule:nonzero;fill:rgb(0%,0%,100%);fill-opacity:1;" d="M 135.601562 220.949219 L 138.375 225.449219 C 138.574219 225.75 138.800781 226.148438 139.050781 226.648438 C 139.351562 227.199219 139.523438 227.476562 139.574219 227.476562 L 139.574219 220.949219 L 140.699219 220.949219 L 140.699219 229.351562 L 139.5 229.351562 L 136.574219 224.476562 C 136.324219 224.125 136.074219 223.726562 135.824219 223.273438 C 135.625 222.875 135.476562 222.601562 135.375 222.449219 L 135.375 229.351562 L 134.324219 229.351562 L 134.324219 220.949219 L 135.601562 220.949219 "/>
<path style=" stroke:none;fill-rule:nonzero;fill:rgb(100%,0%,0%);fill-opacity:1;" d="M 186.300781 273.675781 C 186.300781 272.324219 186.625 271.273438 187.273438 270.523438 C 187.925781 269.773438 188.875 269.398438 190.125 269.398438 C 191.375 269.398438 192.324219 269.773438 192.976562 270.523438 C 193.675781 271.273438 194.023438 272.324219 194.023438 273.675781 C 194.023438 275.023438 193.675781 276.074219 192.976562 276.824219 C 192.324219 277.625 191.375 278.023438 190.125 278.023438 C 188.925781 278.023438 187.976562 277.625 187.273438 276.824219 C 186.625 276.074219 186.300781 275.023438 186.300781 273.675781 M 190.125 277.050781 C 190.976562 277.050781 191.648438 276.773438 192.148438 276.226562 C 192.601562 275.625 192.824219 274.773438 192.824219 273.675781 C 192.824219 272.574219 192.601562 271.75 192.148438 271.199219 C 191.648438 270.601562 190.976562 270.300781 190.125 270.300781 C 189.273438 270.300781 188.625 270.601562 188.175781 271.199219 C 187.726562 271.75 187.5 272.574219 187.5 273.675781 C 187.5 274.773438 187.726562 275.625 188.175781 276.226562 C 188.625 276.773438 189.273438 277.050781 190.125 277.050781 "/>
<path style=" stroke:none;fill-rule:nonzero;fill:rgb(0%,0%,100%);fill-opacity:1;" d="M 207.148438 218.023438 L 209.851562 222.449219 C 210.050781 222.75 210.300781 223.148438 210.601562 223.648438 C 210.898438 224.199219 211.050781 224.5 211.050781 224.550781 L 211.050781 218.023438 L 212.175781 218.023438 L 212.175781 226.425781 L 211.050781 226.425781 L 208.050781 221.550781 C 207.851562 221.148438 207.625 220.75 207.375 220.351562 C 207.125 219.898438 206.976562 219.601562 206.925781 219.449219 L 206.925781 226.425781 L 205.800781 226.425781 L 205.800781 218.023438 L 207.148438 218.023438 "/>
<path style=" stroke:none;fill-rule:nonzero;fill:rgb(100%,0%,0%);fill-opacity:1;" d="M 248.773438 262.351562 C 248.773438 261 249.101562 259.949219 249.75 259.199219 C 250.398438 258.449219 251.351562 258.074219 252.601562 258.074219 C 253.851562 258.074219 254.800781 258.449219 255.449219 259.199219 C 256.148438 259.949219 256.5 261 256.5 262.351562 C 256.5 263.699219 256.148438 264.773438 255.449219 265.574219 C 254.800781 266.324219 253.851562 266.699219 252.601562 266.699219 C 251.398438 266.699219 250.449219 266.324219 249.75 265.574219 C 249.101562 264.824219 248.773438 263.75 248.773438 262.351562 M 252.601562 265.800781 C 253.449219 265.800781 254.101562 265.5 254.550781 264.898438 C 255.050781 264.351562 255.300781 263.5 255.300781 262.351562 C 255.300781 261.25 255.050781 260.425781 254.550781 259.875 C 254.101562 259.324219 253.449219 259.050781 252.601562 259.050781 C 251.75 259.050781 251.101562 259.324219 250.648438 259.875 C 250.199219 260.425781 249.976562 261.25 249.976562 262.351562 C 249.976562 263.5 250.199219 264.351562 250.648438 264.898438 C 251.101562 265.5 251.75 265.800781 252.601562 265.800781 "/>
<path style=" stroke:none;fill-rule:nonzero;fill:rgb(100%,0%,0%);fill-opacity:1;" d="M 283.5 224.550781 C 283.5 223.25 283.851562 222.226562 284.550781 221.476562 C 285.199219 220.726562 286.148438 220.351562 287.398438 220.351562 C 288.648438 220.351562 289.601562 220.726562 290.25 221.476562 C 290.898438 222.226562 291.226562 223.25 291.226562 224.550781 C 291.226562 225.949219 290.898438 227.023438 290.25 227.773438 C 289.550781 228.523438 288.601562 228.898438 287.398438 228.898438 C 286.148438 228.898438 285.199219 228.523438 284.550781 227.773438 C 283.851562 227.023438 283.5 225.949219 283.5 224.550781 M 287.398438 228 C 288.25 228 288.898438 227.699219 289.351562 227.101562 C 289.800781 226.550781 290.023438 225.699219 290.023438 224.550781 C 290.023438 223.449219 289.800781 222.625 289.351562 222.074219 C 288.898438 221.523438 288.25 221.25 287.398438 221.25 C 286.550781 221.25 285.875 221.523438 285.375 222.074219 C 284.925781 222.625 284.699219 223.449219 284.699219 224.550781 C 284.699219 225.699219 284.925781 226.550781 285.375 227.101562 C 285.875 227.699219 286.550781 228 287.398438 228 "/>
<path style=" stroke:none;fill-rule:nonzero;fill:rgb(100%,0%,0%);fill-opacity:1;" d="M 291.824219 220.425781 L 292.949219 220.425781 L 292.949219 223.949219 L 297.226562 223.949219 L 297.226562 220.425781 L 298.425781 220.425781 L 298.425781 228.824219 L 297.226562 228.824219 L 297.226562 224.925781 L 292.949219 224.925781 L 292.949219 228.824219 L 291.824219 228.824219 L 291.824219 220.425781 "/>
<path style=" stroke:none;fill-rule:nonzero;fill:rgb(80%,80%,0%);fill-opacity:1;" d="M 276.148438 149.476562 C 276.199219 149.523438 276.351562 149.601562 276.601562 149.699219 C 276.898438 149.800781 277.175781 149.898438 277.425781 150 C 277.726562 150.050781 278.023438 150.074219 278.324219 150.074219 C 278.824219 150.074219 279.25 149.949219 279.601562 149.699219 C 279.898438 149.449219 280.050781 149.101562 280.050781 148.648438 C 280.050781 148.351562 279.976562 148.101562 279.824219 147.898438 C 279.675781 147.699219 279.476562 147.550781 279.226562 147.449219 C 278.976562 147.351562 278.648438 147.25 278.25 147.148438 C 277.75 147 277.351562 146.851562 277.050781 146.699219 C 276.75 146.550781 276.5 146.324219 276.300781 146.023438 C 276.101562 145.726562 276 145.324219 276 144.824219 C 276 144.125 276.25 143.550781 276.75 143.101562 C 277.199219 142.648438 277.898438 142.425781 278.851562 142.425781 C 279.5 142.425781 280.199219 142.574219 280.949219 142.875 L 280.648438 143.851562 C 280 143.550781 279.425781 143.398438 278.925781 143.398438 C 278.375 143.398438 277.949219 143.523438 277.648438 143.773438 C 277.351562 143.976562 277.199219 144.273438 277.199219 144.675781 C 277.199219 144.976562 277.273438 145.199219 277.425781 145.351562 C 277.574219 145.550781 277.75 145.699219 277.949219 145.800781 C 278.199219 145.898438 278.523438 146.023438 278.925781 146.175781 C 279.425781 146.324219 279.824219 146.476562 280.125 146.625 C 280.425781 146.773438 280.675781 147.023438 280.875 147.375 C 281.074219 147.675781 281.175781 148.101562 281.175781 148.648438 C 281.175781 149.398438 280.925781 150 280.425781 150.449219 C 279.925781 150.851562 279.25 151.050781 278.398438 151.050781 C 277.898438 151.050781 277.449219 151 277.050781 150.898438 C 276.699219 150.800781 276.300781 150.648438 275.851562 150.449219 L 276.148438 149.476562 "/>
<path style=" stroke:none;fill-rule:nonzero;fill:rgb(0%,0%,100%);fill-opacity:1;" d="M 344.023438 105.824219 L 346.800781 110.25 C 347 110.550781 347.25 110.949219 347.550781 111.449219 C 347.800781 112 347.949219 112.300781 348 112.351562 L 348 105.824219 L 349.125 105.824219 L 349.125 114.226562 L 347.925781 114.226562 L 345 109.351562 C 344.75 108.949219 344.5 108.550781 344.25 108.148438 C 344.050781 107.699219 343.898438 107.398438 343.800781 107.25 L 343.800781 114.226562 L 342.75 114.226562 L 342.75 105.824219 L 344.023438 105.824219 "/>
<path style=" stroke:none;fill-rule:nonzero;fill:rgb(0%,0%,100%);fill-opacity:1;" d="M 350.101562 105.824219 L 351.226562 105.824219 L 351.226562 109.351562 L 355.5 109.351562 L 355.5 105.824219 L 356.625 105.824219 L 356.625 114.226562 L 355.5 114.226562 L 355.5 110.324219 L 351.226562 110.324219 L 351.226562 114.226562 L 350.101562 114.226562 L 350.101562 105.824219 "/>
<path style=" stroke:none;fill-rule:nonzero;fill:rgb(0%,0%,100%);fill-opacity:1;" d="M 352.949219 134.101562 L 355.648438 138.523438 C 355.851562 138.824219 356.101562 139.25 356.398438 139.800781 C 356.699219 140.300781 356.851562 140.574219 356.851562 140.625 L 356.851562 134.101562 L 357.976562 134.101562 L 357.976562 142.5 L 356.773438 142.5 L 353.851562 137.625 C 353.601562 137.226562 353.375 136.824219 353.175781 136.425781 C 352.925781 135.976562 352.75 135.675781 352.648438 135.523438 L 352.648438 142.5 L 351.601562 142.5 L 351.601562 134.101562 L 352.949219 134.101562 "/>
<path style=" stroke:none;fill-rule:nonzero;fill:rgb(0%,0%,100%);fill-opacity:1;" d="M 328.726562 151.273438 L 331.5 155.699219 C 331.699219 156 331.925781 156.425781 332.175781 156.976562 C 332.476562 157.476562 332.648438 157.75 332.699219 157.800781 L 332.699219 151.273438 L 333.75 151.273438 L 333.75 159.675781 L 332.625 159.675781 L 329.699219 154.800781 C 329.449219 154.398438 329.199219 154 328.949219 153.601562 C 328.75 153.148438 328.601562 152.851562 328.5 152.699219 L 328.5 159.675781 L 327.449219 159.675781 L 327.449219 151.273438 L 328.726562 151.273438 "/>
<path style=" stroke:none;fill-rule:nonzero;fill:rgb(80%,80%,0%);fill-opacity:1;" d="M 191.25 176.101562 C 191.351562 176.101562 191.523438 176.148438 191.773438 176.25 C 192.023438 176.398438 192.300781 176.5 192.601562 176.550781 C 192.898438 176.601562 193.175781 176.625 193.425781 176.625 C 193.976562 176.625 194.398438 176.5 194.699219 176.25 C 195 176 195.148438 175.648438 195.148438 175.199219 C 195.148438 174.898438 195.074219 174.648438 194.925781 174.449219 C 194.773438 174.25 194.574219 174.101562 194.324219 174 C 194.125 173.898438 193.824219 173.800781 193.425781 173.699219 C 192.925781 173.550781 192.523438 173.398438 192.226562 173.25 C 191.925781 173.101562 191.675781 172.875 191.476562 172.574219 C 191.226562 172.273438 191.101562 171.875 191.101562 171.375 C 191.101562 170.675781 191.351562 170.101562 191.851562 169.648438 C 192.351562 169.25 193.074219 169.050781 194.023438 169.050781 C 194.625 169.050781 195.300781 169.199219 196.050781 169.5 L 195.824219 170.398438 C 195.125 170.101562 194.523438 169.949219 194.023438 169.949219 C 193.476562 169.949219 193.050781 170.074219 192.75 170.324219 C 192.449219 170.523438 192.300781 170.824219 192.300781 171.226562 C 192.300781 171.523438 192.375 171.773438 192.523438 171.976562 C 192.675781 172.125 192.875 172.25 193.125 172.351562 C 193.324219 172.449219 193.625 172.574219 194.023438 172.726562 C 194.523438 172.875 194.925781 173.023438 195.226562 173.175781 C 195.523438 173.324219 195.773438 173.574219 195.976562 173.925781 C 196.226562 174.226562 196.351562 174.648438 196.351562 175.199219 C 196.351562 176 196.074219 176.601562 195.523438 177 C 195.023438 177.398438 194.351562 177.601562 193.5 177.601562 C 193 177.601562 192.550781 177.550781 192.148438 177.449219 C 191.800781 177.351562 191.398438 177.199219 190.949219 177 L 191.25 176.101562 "/>
<path style=" stroke:none;fill-rule:nonzero;fill:rgb(100%,0%,0%);fill-opacity:1;" d="M 17.023438 97.050781 L 18.148438 97.050781 L 18.148438 100.648438 L 22.5 100.648438 L 22.5 97.050781 L 23.625 97.050781 L 23.625 105.449219 L 22.5 105.449219 L 22.5 101.625 L 18.148438 101.625 L 18.148438 105.449219 L 17.023438 105.449219 L 17.023438 97.050781 "/>
<path style=" stroke:none;fill-rule:nonzero;fill:rgb(100%,0%,0%);fill-opacity:1;" d="M 24.601562 101.25 C 24.601562 99.898438 24.949219 98.851562 25.648438 98.101562 C 26.300781 97.351562 27.25 96.976562 28.5 96.976562 C 29.75 96.976562 30.699219 97.351562 31.351562 98.101562 C 32 98.851562 32.324219 99.898438 32.324219 101.25 C 32.324219 102.601562 32 103.675781 31.351562 104.476562 C 30.648438 105.226562 29.699219 105.601562 28.5 105.601562 C 27.25 105.601562 26.300781 105.226562 25.648438 104.476562 C 24.949219 103.675781 24.601562 102.601562 24.601562 101.25 M 28.5 104.699219 C 29.351562 104.699219 30 104.398438 30.449219 103.800781 C 30.898438 103.25 31.125 102.398438 31.125 101.25 C 31.125 100.148438 30.898438 99.324219 30.449219 98.773438 C 30 98.226562 29.351562 97.949219 28.5 97.949219 C 27.648438 97.949219 26.976562 98.226562 26.476562 98.773438 C 26.023438 99.324219 25.800781 100.148438 25.800781 101.25 C 25.800781 102.398438 26.023438 103.25 26.476562 103.800781 C 26.976562 104.398438 27.648438 104.699219 28.5 104.699219 "/>
<path style=" stroke:none;fill-rule:nonzero;fill:rgb(0%,0%,0%);fill-opacity:1;" d="M 157.648438 184.199219 L 158.773438 184.199219 L 158.773438 187.726562 L 163.050781 187.726562 L 163.050781 184.199219 L 164.175781 184.199219 L 164.175781 192.601562 L 163.050781 192.601562 L 163.050781 188.699219 L 158.773438 188.699219 L 158.773438 192.601562 L 157.648438 192.601562 L 157.648438 184.199219 "/>
</g>
</svg>
