<?xml version="1.0" encoding="UTF-8"?>
<svg xmlns="http://www.w3.org/2000/svg" xmlns:xlink="http://www.w3.org/1999/xlink" width="375pt" height="375pt" viewBox="0 0 375 375" version="1.1">
<g id="surface246">
<rect x="0" y="0" width="375" height="375" style="fill:rgb(100%,100%,100%);fill-opacity:1;stroke:none;"/>
<path style="fill:none;stroke-width:2;stroke-linecap:butt;stroke-linejoin:miter;stroke:rgb(0%,0%,0%);stroke-opacity:1;stroke-miterlimit:4;" d="M 27.901042 283.598958 L 60.197917 309.5 " transform="matrix(0.75,0,0,0.75,0,0)"/>
<path style="fill:none;stroke-width:2;stroke-linecap:butt;stroke-linejoin:miter;stroke:rgb(0%,0%,0%);stroke-opacity:1;stroke-miterlimit:4;" d="M 22.697917 290.098958 L 55.098958 315.901042 " transform="matrix(0.75,0,0,0.75,0,0)"/>
<path style="fill:none;stroke-width:2;stroke-linecap:butt;stroke-linejoin:miter;stroke:rgb(0%,0%,0%);stroke-opacity:1;stroke-miterlimit:4;" d="M 57.697917 312.697917 L 96.197917 297.598958 " transform="matrix(0.75,0,0,0.75,0,0)"/>
<path style="fill:none;stroke-width:2;stroke-linecap:butt;stroke-linejoin:miter;stroke:rgb(0%,0%,0%);stroke-opacity:1;stroke-miterlimit:4;" d="M 96.197917 297.598958 L 102.401042 256.598958 " transform="matrix(0.75,0,0,0.75,0,0)"/>
<path style="fill:none;stroke-width:2;stroke-linecap:butt;stroke-linejoin:miter;stroke:rgb(0%,0%,0%);stroke-opacity:1;stroke-miterlimit:4;" d="M 105.302083 292.697917 L 109.598958 264 " transform="matrix(0.75,0,0,0.75,0,0)"/>
<path style="fill:none;stroke-width:2;stroke-linecap:butt;stroke-linejoin:miter;stroke:rgb(0%,0%,0%);stroke-opacity:1;stroke-miterlimit:4;" d="M 102.401042 256.598958 L 70 230.802083 " transform="matrix(0.75,0,0,0.75,0,0)"/>
<path style="fill:none;stroke-width:2;stroke-linecap:butt;stroke-linejoin:miter;stroke:rgb(0%,0%,0%);stroke-opacity:1;stroke-miterlimit:4;" d="M 71.5 234.697917 L 55.598958 240.901042 " transform="matrix(0.75,0,0,0.75,0,0)"/>
<path style="fill:none;stroke-width:2;stroke-linecap:butt;stroke-linejoin:miter;stroke:rgb(100%,0%,0%);stroke-opacity:1;stroke-miterlimit:4;" d="M 55.598958 240.901042 L 39.697917 247.197917 " transform="matrix(0.75,0,0,0.75,0,0)"/>
<path style="fill:none;stroke-width:2;stroke-linecap:butt;stroke-linejoin:miter;stroke:rgb(0%,0%,0%);stroke-opacity:1;stroke-miterlimit:4;" d="M 68.5 227 L 52.598958 233.197917 " transform="matrix(0.75,0,0,0.75,0,0)"/>
<path style="fill:none;stroke-width:2;stroke-linecap:butt;stroke-linejoin:miter;stroke:rgb(100%,0%,0%);stroke-opacity:1;stroke-miterlimit:4;" d="M 52.598958 233.197917 L 36.697917 239.5 " transform="matrix(0.75,0,0,0.75,0,0)"/>
<path style="fill:none;stroke-width:2;stroke-linecap:butt;stroke-linejoin:miter;stroke:rgb(0%,0%,0%);stroke-opacity:1;stroke-miterlimit:4;" d="M 70 230.802083 L 72.5 214.098958 " transform="matrix(0.75,0,0,0.75,0,0)"/>
<path style="fill:none;stroke-width:2;stroke-linecap:butt;stroke-linejoin:miter;stroke:rgb(100%,0%,0%);stroke-opacity:1;stroke-miterlimit:4;" d="M 72.5 214.098958 L 75.098958 197.401042 " transform="matrix(0.75,0,0,0.75,0,0)"/>
<path style="fill:none;stroke-width:2;stroke-linecap:butt;stroke-linejoin:miter;stroke:rgb(0%,0%,0%);stroke-opacity:1;stroke-miterlimit:4;" d="M 102.401042 256.598958 L 118.697917 250.197917 " transform="matrix(0.75,0,0,0.75,0,0)"/>
<path style="fill:none;stroke-width:2;stroke-linecap:butt;stroke-linejoin:miter;stroke:rgb(0%,0%,100%);stroke-opacity:1;stroke-miterlimit:4;" d="M 118.697917 250.197917 L 135.098958 243.802083 " transform="matrix(0.75,0,0,0.75,0,0)"/>
<path style="fill:none;stroke-width:2;stroke-linecap:butt;stroke-linejoin:miter;stroke:rgb(0%,0%,100%);stroke-opacity:1;stroke-miterlimit:4;" d="M 146.697917 234.302083 L 156.697917 221.697917 " transform="matrix(0.75,0,0,0.75,0,0)"/>
<path style="fill:none;stroke-width:2;stroke-linecap:butt;stroke-linejoin:miter;stroke:rgb(0%,0%,0%);stroke-opacity:1;stroke-miterlimit:4;" d="M 156.697917 221.697917 L 166.697917 209.197917 " transform="matrix(0.75,0,0,0.75,0,0)"/>
<path style="fill:none;stroke-width:2;stroke-linecap:butt;stroke-linejoin:miter;stroke:rgb(0%,0%,0%);stroke-opacity:1;stroke-miterlimit:4;" d="M 162.598958 209.598958 L 160.697917 192.802083 " transform="matrix(0.75,0,0,0.75,0,0)"/>
<path style="fill:none;stroke-width:2;stroke-linecap:butt;stroke-linejoin:miter;stroke:rgb(100%,0%,0%);stroke-opacity:1;stroke-miterlimit:4;" d="M 160.697917 192.802083 L 158.802083 176 " transform="matrix(0.75,0,0,0.75,0,0)"/>
<path style="fill:none;stroke-width:2;stroke-linecap:butt;stroke-linejoin:miter;stroke:rgb(0%,0%,0%);stroke-opacity:1;stroke-miterlimit:4;" d="M 170.802083 208.697917 L 168.901042 191.901042 " transform="matrix(0.75,0,0,0.75,0,0)"/>
<path style="fill:none;stroke-width:2;stroke-linecap:butt;stroke-linejoin:miter;stroke:rgb(100%,0%,0%);stroke-opacity:1;stroke-miterlimit:4;" d="M 168.901042 191.901042 L 167 175.098958 " transform="matrix(0.75,0,0,0.75,0,0)"/>
<path style="fill:none;stroke-width:2;stroke-linecap:butt;stroke-linejoin:miter;stroke:rgb(0%,0%,0%);stroke-opacity:1;stroke-miterlimit:4;" d="M 166.697917 209.197917 L 199.098958 235 " transform="matrix(0.75,0,0,0.75,0,0)"/>
<path style="fill-rule:evenodd;fill:rgb(0%,0%,0%);fill-opacity:1;stroke-width:1;stroke-linecap:butt;stroke-linejoin:miter;stroke:rgb(0%,0%,0%);stroke-opacity:1;stroke-miterlimit:4;" d="M 199.098958 235 L 215.802083 231 L 216.302083 235.098958 Z M 199.098958 235 " transform="matrix(0.75,0,0,0.75,0,0)"/>
<path style="fill-rule:evenodd;fill:rgb(0%,0%,100%);fill-opacity:1;stroke-width:1;stroke-linecap:butt;stroke-linejoin:miter;stroke:rgb(0%,0%,100%);stroke-opacity:1;stroke-miterlimit:4;" d="M 215.802083 231 L 233.5 235.302083 L 232.598958 227.098958 Z M 215.802083 231 " transform="matrix(0.75,0,0,0.75,0,0)"/>
<path style="fill-rule:evenodd;fill:rgb(0%,0%,100%);fill-opacity:1;stroke-width:1;stroke-linecap:butt;stroke-linejoin:miter;stroke:rgb(0%,0%,100%);stroke-opacity:1;stroke-miterlimit:4;" d="M 215.802083 231 L 216.302083 235.098958 L 233.5 235.302083 Z M 215.802083 231 " transform="matrix(0.75,0,0,0.75,0,0)"/>
<path style="fill:none;stroke-width:2;stroke-linecap:butt;stroke-linejoin:miter;stroke:rgb(0%,0%,100%);stroke-opacity:1;stroke-miterlimit:4;" d="M 245.5 237.598958 L 255.197917 250.598958 " transform="matrix(0.75,0,0,0.75,0,0)"/>
<path style="fill:none;stroke-width:2;stroke-linecap:butt;stroke-linejoin:miter;stroke:rgb(0%,0%,0%);stroke-opacity:1;stroke-miterlimit:4;" d="M 255.197917 250.598958 L 264.802083 263.697917 " transform="matrix(0.75,0,0,0.75,0,0)"/>
<path style="fill:none;stroke-width:2;stroke-linecap:butt;stroke-linejoin:miter;stroke:rgb(0%,0%,0%);stroke-opacity:1;stroke-miterlimit:4;" d="M 268.598958 265.302083 L 261.901042 280.598958 " transform="matrix(0.75,0,0,0.75,0,0)"/>
<path style="fill:none;stroke-width:2;stroke-linecap:butt;stroke-linejoin:miter;stroke:rgb(100%,0%,0%);stroke-opacity:1;stroke-miterlimit:4;" d="M 261.901042 280.598958 L 255.197917 296 " transform="matrix(0.75,0,0,0.75,0,0)"/>
<path style="fill:none;stroke-width:2;stroke-linecap:butt;stroke-linejoin:miter;stroke:rgb(0%,0%,0%);stroke-opacity:1;stroke-miterlimit:4;" d="M 261 262 L 254.302083 277.302083 " transform="matrix(0.75,0,0,0.75,0,0)"/>
<path style="fill:none;stroke-width:2;stroke-linecap:butt;stroke-linejoin:miter;stroke:rgb(100%,0%,0%);stroke-opacity:1;stroke-miterlimit:4;" d="M 254.302083 277.302083 L 247.598958 292.697917 " transform="matrix(0.75,0,0,0.75,0,0)"/>
<path style="fill:none;stroke-width:2;stroke-linecap:butt;stroke-linejoin:miter;stroke:rgb(0%,0%,0%);stroke-opacity:1;stroke-miterlimit:4;" d="M 264.802083 263.697917 L 305.901042 259 " transform="matrix(0.75,0,0,0.75,0,0)"/>
<path style="fill:none;stroke-width:2;stroke-linecap:butt;stroke-linejoin:miter;stroke:rgb(0%,0%,0%);stroke-opacity:1;stroke-miterlimit:4;" d="M 305.901042 259 L 315.5 272.098958 " transform="matrix(0.75,0,0,0.75,0,0)"/>
<path style="fill:none;stroke-width:2;stroke-linecap:butt;stroke-linejoin:miter;stroke:rgb(0%,0%,100%);stroke-opacity:1;stroke-miterlimit:4;" d="M 315.5 272.098958 L 325.197917 285.098958 " transform="matrix(0.75,0,0,0.75,0,0)"/>
<path style="fill:none;stroke-width:2;stroke-linecap:butt;stroke-linejoin:miter;stroke:rgb(0%,0%,0%);stroke-opacity:1;stroke-miterlimit:4;" d="M 302.098958 267.901042 L 308.901042 277 " transform="matrix(0.75,0,0,0.75,0,0)"/>
<path style="fill:none;stroke-width:2;stroke-linecap:butt;stroke-linejoin:miter;stroke:rgb(0%,0%,100%);stroke-opacity:1;stroke-miterlimit:4;" d="M 308.901042 277 L 315.598958 286.098958 " transform="matrix(0.75,0,0,0.75,0,0)"/>
<path style="fill:none;stroke-width:2;stroke-linecap:butt;stroke-linejoin:miter;stroke:rgb(0%,0%,100%);stroke-opacity:1;stroke-miterlimit:4;" d="M 336.302083 291.697917 L 350.598958 290.098958 " transform="matrix(0.75,0,0,0.75,0,0)"/>
<path style="fill:none;stroke-width:2;stroke-linecap:butt;stroke-linejoin:miter;stroke:rgb(100%,0%,0%);stroke-opacity:1;stroke-miterlimit:4;" d="M 350.598958 290.098958 L 364.901042 288.5 " transform="matrix(0.75,0,0,0.75,0,0)"/>
<path style="fill:none;stroke-width:2;stroke-linecap:butt;stroke-linejoin:miter;stroke:rgb(100%,0%,0%);stroke-opacity:1;stroke-miterlimit:4;" d="M 377.098958 295.197917 L 386.697917 308.098958 " transform="matrix(0.75,0,0,0.75,0,0)"/>
<path style="fill:none;stroke-width:2;stroke-linecap:butt;stroke-linejoin:miter;stroke:rgb(0%,0%,0%);stroke-opacity:1;stroke-miterlimit:4;" d="M 386.697917 308.098958 L 396.197917 321 " transform="matrix(0.75,0,0,0.75,0,0)"/>
<path style="fill:none;stroke-width:2;stroke-linecap:butt;stroke-linejoin:miter;stroke:rgb(0%,0%,0%);stroke-opacity:1;stroke-miterlimit:4;" d="M 396.197917 321 L 437.302083 316.401042 " transform="matrix(0.75,0,0,0.75,0,0)"/>
<path style="fill:none;stroke-width:2;stroke-linecap:butt;stroke-linejoin:miter;stroke:rgb(0%,0%,0%);stroke-opacity:1;stroke-miterlimit:4;" d="M 433.5 314.697917 L 440.197917 299.5 " transform="matrix(0.75,0,0,0.75,0,0)"/>
<path style="fill:none;stroke-width:2;stroke-linecap:butt;stroke-linejoin:miter;stroke:rgb(100%,0%,0%);stroke-opacity:1;stroke-miterlimit:4;" d="M 440.197917 299.5 L 446.802083 284.302083 " transform="matrix(0.75,0,0,0.75,0,0)"/>
<path style="fill:none;stroke-width:2;stroke-linecap:butt;stroke-linejoin:miter;stroke:rgb(0%,0%,0%);stroke-opacity:1;stroke-miterlimit:4;" d="M 441.098958 318.098958 L 447.802083 302.802083 " transform="matrix(0.75,0,0,0.75,0,0)"/>
<path style="fill:none;stroke-width:2;stroke-linecap:butt;stroke-linejoin:miter;stroke:rgb(100%,0%,0%);stroke-opacity:1;stroke-miterlimit:4;" d="M 447.802083 302.802083 L 454.401042 287.598958 " transform="matrix(0.75,0,0,0.75,0,0)"/>
<path style="fill:none;stroke-width:2;stroke-linecap:butt;stroke-linejoin:miter;stroke:rgb(0%,0%,0%);stroke-opacity:1;stroke-miterlimit:4;" d="M 437.302083 316.401042 L 446.901042 329.401042 " transform="matrix(0.75,0,0,0.75,0,0)"/>
<path style="fill:none;stroke-width:2;stroke-linecap:butt;stroke-linejoin:miter;stroke:rgb(100%,0%,0%);stroke-opacity:1;stroke-miterlimit:4;" d="M 446.901042 329.401042 L 456.5 342.401042 " transform="matrix(0.75,0,0,0.75,0,0)"/>
<path style="fill:none;stroke-width:2;stroke-linecap:butt;stroke-linejoin:miter;stroke:rgb(0%,0%,0%);stroke-opacity:1;stroke-miterlimit:4;" d="M 305.901042 259 L 322.5 221.098958 " transform="matrix(0.75,0,0,0.75,0,0)"/>
<path style="fill:none;stroke-width:2;stroke-linecap:butt;stroke-linejoin:miter;stroke:rgb(0%,0%,0%);stroke-opacity:1;stroke-miterlimit:4;" d="M 322.5 221.098958 L 301.5 185.401042 " transform="matrix(0.75,0,0,0.75,0,0)"/>
<path style="fill:none;stroke-width:2;stroke-linecap:butt;stroke-linejoin:miter;stroke:rgb(0%,0%,0%);stroke-opacity:1;stroke-miterlimit:4;" d="M 326.5 211.598958 L 311.802083 186.598958 " transform="matrix(0.75,0,0,0.75,0,0)"/>
<path style="fill:none;stroke-width:2;stroke-linecap:butt;stroke-linejoin:miter;stroke:rgb(0%,0%,0%);stroke-opacity:1;stroke-miterlimit:4;" d="M 301.5 185.401042 L 312.697917 172.802083 " transform="matrix(0.75,0,0,0.75,0,0)"/>
<path style="fill:none;stroke-width:2;stroke-linecap:butt;stroke-linejoin:miter;stroke:rgb(80%,80%,0%);stroke-opacity:1;stroke-miterlimit:4;" d="M 312.697917 172.802083 L 323.901042 160.197917 " transform="matrix(0.75,0,0,0.75,0,0)"/>
<path style="fill:none;stroke-width:2;stroke-linecap:butt;stroke-linejoin:miter;stroke:rgb(80%,80%,0%);stroke-opacity:1;stroke-miterlimit:4;" d="M 334.098958 156.697917 L 350.5 163.802083 " transform="matrix(0.75,0,0,0.75,0,0)"/>
<path style="fill:none;stroke-width:2;stroke-linecap:butt;stroke-linejoin:miter;stroke:rgb(0%,0%,0%);stroke-opacity:1;stroke-miterlimit:4;" d="M 350.5 163.802083 L 366.901042 171 " transform="matrix(0.75,0,0,0.75,0,0)"/>
<path style="fill:none;stroke-width:2;stroke-linecap:butt;stroke-linejoin:miter;stroke:rgb(0%,0%,0%);stroke-opacity:1;stroke-miterlimit:4;" d="M 366.901042 171 L 381.901042 162.197917 " transform="matrix(0.75,0,0,0.75,0,0)"/>
<path style="fill:none;stroke-width:2;stroke-linecap:butt;stroke-linejoin:miter;stroke:rgb(0%,0%,100%);stroke-opacity:1;stroke-miterlimit:4;" d="M 381.901042 162.197917 L 396.802083 153.5 " transform="matrix(0.75,0,0,0.75,0,0)"/>
<path style="fill:none;stroke-width:2;stroke-linecap:butt;stroke-linejoin:miter;stroke:rgb(0%,0%,0%);stroke-opacity:1;stroke-miterlimit:4;" d="M 366.901042 171 L 365.302083 188 " transform="matrix(0.75,0,0,0.75,0,0)"/>
<path style="fill:none;stroke-width:2;stroke-linecap:butt;stroke-linejoin:miter;stroke:rgb(0%,0%,100%);stroke-opacity:1;stroke-miterlimit:4;" d="M 365.302083 188 L 363.598958 205 " transform="matrix(0.75,0,0,0.75,0,0)"/>
<path style="fill:none;stroke-width:2;stroke-linecap:butt;stroke-linejoin:miter;stroke:rgb(0%,0%,0%);stroke-opacity:1;stroke-miterlimit:4;" d="M 358.197917 175.302083 L 357 187.197917 " transform="matrix(0.75,0,0,0.75,0,0)"/>
<path style="fill:none;stroke-width:2;stroke-linecap:butt;stroke-linejoin:miter;stroke:rgb(0%,0%,100%);stroke-opacity:1;stroke-miterlimit:4;" d="M 357 187.197917 L 355.901042 199.098958 " transform="matrix(0.75,0,0,0.75,0,0)"/>
<path style="fill:none;stroke-width:2;stroke-linecap:butt;stroke-linejoin:miter;stroke:rgb(0%,0%,0%);stroke-opacity:1;stroke-miterlimit:4;" d="M 199.098958 235 L 173.302083 267.302083 " transform="matrix(0.75,0,0,0.75,0,0)"/>
<path style="fill:none;stroke-width:2;stroke-linecap:butt;stroke-linejoin:miter;stroke:rgb(0%,0%,0%);stroke-opacity:1;stroke-miterlimit:4;" d="M 173.302083 267.302083 L 170.697917 284.197917 " transform="matrix(0.75,0,0,0.75,0,0)"/>
<path style="fill:none;stroke-width:2;stroke-linecap:butt;stroke-linejoin:miter;stroke:rgb(80%,80%,0%);stroke-opacity:1;stroke-miterlimit:4;" d="M 170.697917 284.197917 L 168.197917 301.098958 " transform="matrix(0.75,0,0,0.75,0,0)"/>
<path style="fill:none;stroke-width:2;stroke-linecap:butt;stroke-linejoin:miter;stroke:rgb(80%,80%,0%);stroke-opacity:1;stroke-miterlimit:4;" d="M 162 310.302083 L 145.302083 316.802083 " transform="matrix(0.75,0,0,0.75,0,0)"/>
<path style="fill:none;stroke-width:2;stroke-linecap:butt;stroke-linejoin:miter;stroke:rgb(0%,0%,0%);stroke-opacity:1;stroke-miterlimit:4;" d="M 145.302083 316.802083 L 128.598958 323.401042 " transform="matrix(0.75,0,0,0.75,0,0)"/>
<path style="fill:none;stroke-width:2;stroke-linecap:butt;stroke-linejoin:miter;stroke:rgb(0%,0%,0%);stroke-opacity:1;stroke-miterlimit:4;" d="M 128.598958 323.401042 L 96.197917 297.598958 " transform="matrix(0.75,0,0,0.75,0,0)"/>
<path style="fill:none;stroke-width:2;stroke-linecap:butt;stroke-linejoin:miter;stroke:rgb(0%,0%,0%);stroke-opacity:1;stroke-miterlimit:4;" d="M 173.302083 267.302083 L 160 256.802083 " transform="matrix(0.75,0,0,0.75,0,0)"/>
<path style="fill:none;stroke-width:2;stroke-linecap:butt;stroke-linejoin:miter;stroke:rgb(0%,0%,100%);stroke-opacity:1;stroke-miterlimit:4;" d="M 160 256.802083 L 146.697917 246.197917 " transform="matrix(0.75,0,0,0.75,0,0)"/>
<path style="fill:none;stroke-width:2;stroke-linecap:butt;stroke-linejoin:miter;stroke:rgb(0%,0%,100%);stroke-opacity:1;stroke-miterlimit:4;" d="M 357.098958 213.5 L 339.802083 217.302083 " transform="matrix(0.75,0,0,0.75,0,0)"/>
<path style="fill:none;stroke-width:2;stroke-linecap:butt;stroke-linejoin:miter;stroke:rgb(0%,0%,0%);stroke-opacity:1;stroke-miterlimit:4;" d="M 339.802083 217.302083 L 322.5 221.098958 " transform="matrix(0.75,0,0,0.75,0,0)"/>
<path style="fill:none;stroke-width:1;stroke-linecap:butt;stroke-linejoin:miter;stroke:rgb(0%,0%,0%);stroke-opacity:1;stroke-miterlimit:4;" d="M 178.098958 270.197917 L 178.598958 268.901042 " transform="matrix(0.75,0,0,0.75,0,0)"/>
<path style="fill:none;stroke-width:1;stroke-linecap:butt;stroke-linejoin:miter;stroke:rgb(0%,0%,0%);stroke-opacity:1;stroke-miterlimit:4;" d="M 182.901042 273.098958 L 184 270.5 " transform="matrix(0.75,0,0,0.75,0,0)"/>
<path style="fill:none;stroke-width:1;stroke-linecap:butt;stroke-linejoin:miter;stroke:rgb(0%,0%,0%);stroke-opacity:1;stroke-miterlimit:4;" d="M 187.697917 275.901042 L 189.401042 272.098958 " transform="matrix(0.75,0,0,0.75,0,0)"/>
<path style="fill:none;stroke-width:1;stroke-linecap:butt;stroke-linejoin:miter;stroke:rgb(0%,0%,0%);stroke-opacity:1;stroke-miterlimit:4;" d="M 192.598958 278.802083 L 194.802083 273.697917 " transform="matrix(0.75,0,0,0.75,0,0)"/>
<path style="fill:none;stroke-width:1;stroke-linecap:butt;stroke-linejoin:miter;stroke:rgb(0%,0%,0%);stroke-opacity:1;stroke-miterlimit:4;" d="M 197.401042 281.598958 L 200.197917 275.302083 " transform="matrix(0.75,0,0,0.75,0,0)"/>
<path style="fill:none;stroke-width:1;stroke-linecap:butt;stroke-linejoin:miter;stroke:rgb(0%,0%,0%);stroke-opacity:1;stroke-miterlimit:4;" d="M 202.197917 284.5 L 205.5 276.901042 " transform="matrix(0.75,0,0,0.75,0,0)"/>
<path style=" stroke:none;fill-rule:nonzero;fill:rgb(100%,0%,0%);fill-opacity:1;" d="M 19.574219 184.5 C 19.574219 183.101562 19.925781 182 20.625 181.199219 C 21.324219 180.398438 22.324219 180 23.625 180 C 24.925781 180 25.925781 180.398438 26.625 181.199219 C 27.324219 182 27.675781 183.101562 27.675781 184.5 C 27.675781 185.898438 27.324219 187.023438 26.625 187.875 C 25.875 188.675781 24.875 189.074219 23.625 189.074219 C 22.324219 189.074219 21.324219 188.675781 20.625 187.875 C 19.925781 187.074219 19.574219 185.949219 19.574219 184.5 M 23.625 188.023438 C 24.523438 188.023438 25.199219 187.726562 25.648438 187.125 C 26.148438 186.523438 26.398438 185.648438 26.398438 184.5 C 26.398438 183.351562 26.148438 182.476562 25.648438 181.875 C 25.199219 181.324219 24.523438 181.050781 23.625 181.050781 C 22.726562 181.050781 22.023438 181.324219 21.523438 181.875 C 21.074219 182.476562 20.851562 183.351562 20.851562 184.5 C 20.851562 185.699219 21.074219 186.574219 21.523438 187.125 C 22.023438 187.726562 22.726562 188.023438 23.625 188.023438 "/>
<path style=" stroke:none;fill-rule:nonzero;fill:rgb(100%,0%,0%);fill-opacity:1;" d="M 53.101562 142.425781 C 53.101562 141.023438 53.449219 139.949219 54.148438 139.199219 C 54.851562 138.398438 55.851562 138 57.148438 138 C 58.449219 138 59.449219 138.398438 60.148438 139.199219 C 60.851562 139.949219 61.199219 141.023438 61.199219 142.425781 C 61.199219 143.875 60.851562 145 60.148438 145.800781 C 59.449219 146.601562 58.449219 147 57.148438 147 C 55.851562 147 54.851562 146.601562 54.148438 145.800781 C 53.449219 145 53.101562 143.875 53.101562 142.425781 M 57.148438 146.023438 C 58.050781 146.023438 58.726562 145.726562 59.175781 145.125 C 59.675781 144.523438 59.925781 143.625 59.925781 142.425781 C 59.925781 141.273438 59.675781 140.425781 59.175781 139.875 C 58.726562 139.273438 58.050781 138.976562 57.148438 138.976562 C 56.25 138.976562 55.550781 139.273438 55.050781 139.875 C 54.601562 140.425781 54.375 141.273438 54.375 142.425781 C 54.375 143.625 54.601562 144.523438 55.050781 145.125 C 55.550781 145.726562 56.25 146.023438 57.148438 146.023438 "/>
<path style=" stroke:none;fill-rule:nonzero;fill:rgb(100%,0%,0%);fill-opacity:1;" d="M 61.800781 138.074219 L 63 138.074219 L 63 141.824219 L 67.5 141.824219 L 67.5 138.074219 L 68.699219 138.074219 L 68.699219 146.851562 L 67.5 146.851562 L 67.5 142.800781 L 63 142.800781 L 63 146.851562 L 61.800781 146.851562 L 61.800781 138.074219 "/>
<path style=" stroke:none;fill-rule:nonzero;fill:rgb(0%,0%,100%);fill-opacity:1;" d="M 103.726562 176.773438 L 106.648438 181.425781 C 106.800781 181.726562 107.023438 182.148438 107.324219 182.699219 C 107.675781 183.25 107.851562 183.550781 107.851562 183.601562 L 107.851562 176.773438 L 108.976562 176.773438 L 108.976562 185.550781 L 107.773438 185.550781 L 104.699219 180.449219 C 104.449219 180.050781 104.199219 179.625 103.949219 179.175781 C 103.699219 178.726562 103.550781 178.425781 103.5 178.273438 L 103.5 185.550781 L 102.375 185.550781 L 102.375 176.773438 L 103.726562 176.773438 "/>
<path style=" stroke:none;fill-rule:nonzero;fill:rgb(100%,0%,0%);fill-opacity:1;" d="M 117.523438 126.074219 C 117.523438 124.675781 117.875 123.574219 118.574219 122.773438 C 119.273438 121.976562 120.273438 121.574219 121.574219 121.574219 C 122.875 121.574219 123.875 121.976562 124.574219 122.773438 C 125.273438 123.574219 125.625 124.675781 125.625 126.074219 C 125.625 127.476562 125.273438 128.574219 124.574219 129.375 C 123.875 130.226562 122.875 130.648438 121.574219 130.648438 C 120.273438 130.648438 119.273438 130.226562 118.574219 129.375 C 117.875 128.574219 117.523438 127.476562 117.523438 126.074219 M 121.574219 129.601562 C 122.476562 129.601562 123.148438 129.300781 123.601562 128.699219 C 124.101562 128.101562 124.351562 127.226562 124.351562 126.074219 C 124.351562 124.925781 124.101562 124.050781 123.601562 123.449219 C 123.148438 122.851562 122.476562 122.550781 121.574219 122.550781 C 120.675781 122.550781 119.976562 122.851562 119.476562 123.449219 C 119.023438 124.050781 118.800781 124.925781 118.800781 126.074219 C 118.800781 127.226562 119.023438 128.101562 119.476562 128.699219 C 119.976562 129.300781 120.675781 129.601562 121.574219 129.601562 "/>
<path style=" stroke:none;fill-rule:nonzero;fill:rgb(0%,0%,100%);fill-opacity:1;" d="M 178.199219 168.375 L 181.125 173.023438 C 181.273438 173.324219 181.5 173.75 181.800781 174.300781 C 182.148438 174.851562 182.324219 175.148438 182.324219 175.199219 L 182.324219 168.375 L 183.449219 168.375 L 183.449219 177.148438 L 182.25 177.148438 L 179.175781 172.050781 C 178.925781 171.648438 178.675781 171.226562 178.425781 170.773438 C 178.175781 170.324219 178.023438 170.023438 177.976562 169.875 L 177.976562 177.148438 L 176.851562 177.148438 L 176.851562 168.375 L 178.199219 168.375 "/>
<path style=" stroke:none;fill-rule:nonzero;fill:rgb(0%,0%,100%);fill-opacity:1;" d="M 184.5 168.375 L 185.699219 168.375 L 185.699219 172.125 L 190.199219 172.125 L 190.199219 168.375 L 191.398438 168.375 L 191.398438 177.148438 L 190.199219 177.148438 L 190.199219 173.101562 L 185.699219 173.101562 L 185.699219 177.148438 L 184.5 177.148438 L 184.5 168.375 "/>
<path style=" stroke:none;fill-rule:nonzero;fill:rgb(100%,0%,0%);fill-opacity:1;" d="M 182.101562 226.199219 C 182.101562 224.800781 182.449219 223.699219 183.148438 222.898438 C 183.851562 222.148438 184.851562 221.773438 186.148438 221.773438 C 187.449219 221.773438 188.449219 222.148438 189.148438 222.898438 C 189.851562 223.699219 190.199219 224.800781 190.199219 226.199219 C 190.199219 227.648438 189.851562 228.773438 189.148438 229.574219 C 188.449219 230.375 187.449219 230.773438 186.148438 230.773438 C 184.851562 230.773438 183.851562 230.375 183.148438 229.574219 C 182.449219 228.773438 182.101562 227.648438 182.101562 226.199219 M 186.148438 229.800781 C 187.050781 229.800781 187.75 229.5 188.25 228.898438 C 188.699219 228.300781 188.925781 227.398438 188.925781 226.199219 C 188.925781 225.050781 188.699219 224.199219 188.25 223.648438 C 187.75 223.050781 187.050781 222.75 186.148438 222.75 C 185.25 222.75 184.574219 223.050781 184.125 223.648438 C 183.625 224.199219 183.375 225.050781 183.375 226.199219 C 183.375 227.398438 183.625 228.300781 184.125 228.898438 C 184.574219 229.5 185.25 229.800781 186.148438 229.800781 "/>
<path style=" stroke:none;fill-rule:nonzero;fill:rgb(0%,0%,100%);fill-opacity:1;" d="M 245.925781 214.875 L 248.773438 219.523438 C 248.976562 219.824219 249.226562 220.25 249.523438 220.800781 C 249.824219 221.351562 250 221.648438 250.050781 221.699219 L 250.050781 214.875 L 251.175781 214.875 L 251.175781 223.648438 L 249.976562 223.648438 L 246.898438 218.550781 C 246.648438 218.148438 246.398438 217.726562 246.148438 217.273438 C 245.898438 216.824219 245.75 216.523438 245.699219 216.375 L 245.699219 223.648438 L 244.5 223.648438 L 244.5 214.875 L 245.925781 214.875 "/>
<path style=" stroke:none;fill-rule:nonzero;fill:rgb(100%,0%,0%);fill-opacity:1;" d="M 274.648438 215.851562 C 274.648438 214.398438 275 213.300781 275.699219 212.550781 C 276.398438 211.75 277.398438 211.351562 278.699219 211.351562 C 280 211.351562 281 211.75 281.699219 212.550781 C 282.398438 213.300781 282.75 214.398438 282.75 215.851562 C 282.75 217.25 282.398438 218.351562 281.699219 219.148438 C 281 219.949219 280 220.351562 278.699219 220.351562 C 277.398438 220.351562 276.398438 219.949219 275.699219 219.148438 C 275 218.351562 274.648438 217.25 274.648438 215.851562 M 278.699219 219.375 C 279.601562 219.375 280.300781 219.074219 280.800781 218.476562 C 281.25 217.875 281.476562 217 281.476562 215.851562 C 281.476562 214.648438 281.25 213.773438 280.800781 213.226562 C 280.300781 212.625 279.601562 212.324219 278.699219 212.324219 C 277.800781 212.324219 277.101562 212.625 276.601562 213.226562 C 276.148438 213.773438 275.925781 214.648438 275.925781 215.851562 C 275.925781 217 276.148438 217.875 276.601562 218.476562 C 277.101562 219.074219 277.800781 219.375 278.699219 219.375 "/>
<path style=" stroke:none;fill-rule:nonzero;fill:rgb(100%,0%,0%);fill-opacity:1;" d="M 336.375 208.875 C 336.375 207.476562 336.726562 206.375 337.425781 205.574219 C 338.125 204.773438 339.125 204.375 340.425781 204.375 C 341.726562 204.375 342.726562 204.773438 343.425781 205.574219 C 344.125 206.375 344.476562 207.476562 344.476562 208.875 C 344.476562 210.273438 344.101562 211.398438 343.351562 212.25 C 342.648438 213.050781 341.675781 213.449219 340.425781 213.449219 C 339.125 213.449219 338.125 213.050781 337.425781 212.25 C 336.726562 211.449219 336.375 210.324219 336.375 208.875 M 340.425781 212.398438 C 341.324219 212.398438 342 212.125 342.449219 211.574219 C 342.949219 210.925781 343.199219 210.023438 343.199219 208.875 C 343.199219 207.726562 342.949219 206.851562 342.449219 206.25 C 342 205.699219 341.324219 205.425781 340.425781 205.425781 C 339.523438 205.425781 338.824219 205.699219 338.324219 206.25 C 337.875 206.851562 337.648438 207.726562 337.648438 208.875 C 337.648438 210.074219 337.875 210.976562 338.324219 211.574219 C 338.824219 212.125 339.523438 212.398438 340.425781 212.398438 "/>
<path style=" stroke:none;fill-rule:nonzero;fill:rgb(100%,0%,0%);fill-opacity:1;" d="M 342.375 262.273438 C 342.375 260.875 342.726562 259.773438 343.425781 258.976562 C 344.125 258.226562 345.125 257.851562 346.425781 257.851562 C 347.726562 257.851562 348.726562 258.226562 349.425781 258.976562 C 350.125 259.773438 350.476562 260.875 350.476562 262.273438 C 350.476562 263.726562 350.125 264.851562 349.425781 265.648438 C 348.726562 266.449219 347.726562 266.851562 346.425781 266.851562 C 345.125 266.851562 344.125 266.449219 343.425781 265.648438 C 342.726562 264.851562 342.375 263.726562 342.375 262.273438 M 346.425781 265.875 C 347.324219 265.875 348 265.574219 348.449219 264.976562 C 348.949219 264.375 349.199219 263.476562 349.199219 262.273438 C 349.199219 261.125 348.949219 260.273438 348.449219 259.726562 C 348 259.125 347.324219 258.824219 346.425781 258.824219 C 345.523438 258.824219 344.824219 259.125 344.324219 259.726562 C 343.875 260.273438 343.648438 261.125 343.648438 262.273438 C 343.648438 263.476562 343.875 264.375 344.324219 264.976562 C 344.824219 265.574219 345.523438 265.875 346.425781 265.875 "/>
<path style=" stroke:none;fill-rule:nonzero;fill:rgb(100%,0%,0%);fill-opacity:1;" d="M 351.074219 257.925781 L 352.273438 257.925781 L 352.273438 261.675781 L 356.773438 261.675781 L 356.773438 257.925781 L 357.976562 257.925781 L 357.976562 266.699219 L 356.773438 266.699219 L 356.773438 262.648438 L 352.273438 262.648438 L 352.273438 266.699219 L 351.074219 266.699219 L 351.074219 257.925781 "/>
<path style=" stroke:none;fill-rule:nonzero;fill:rgb(80%,80%,0%);fill-opacity:1;" d="M 244.273438 118.875 C 244.324219 118.875 244.476562 118.949219 244.726562 119.101562 C 245.023438 119.199219 245.324219 119.273438 245.625 119.324219 C 245.925781 119.425781 246.226562 119.476562 246.523438 119.476562 C 247.074219 119.476562 247.523438 119.324219 247.875 119.023438 C 248.175781 118.773438 248.324219 118.398438 248.324219 117.898438 C 248.324219 117.601562 248.25 117.351562 248.101562 117.148438 C 247.949219 116.949219 247.75 116.800781 247.5 116.699219 C 247.25 116.601562 246.898438 116.476562 246.449219 116.324219 C 245.949219 116.175781 245.550781 116.023438 245.25 115.875 C 244.898438 115.726562 244.625 115.5 244.425781 115.199219 C 244.226562 114.898438 244.125 114.476562 244.125 113.925781 C 244.125 113.175781 244.375 112.574219 244.875 112.125 C 245.375 111.675781 246.125 111.449219 247.125 111.449219 C 247.773438 111.449219 248.5 111.625 249.300781 111.976562 L 249 112.875 C 248.300781 112.574219 247.675781 112.425781 247.125 112.425781 C 246.574219 112.425781 246.125 112.550781 245.773438 112.800781 C 245.476562 113.050781 245.324219 113.375 245.324219 113.773438 C 245.324219 114.074219 245.398438 114.324219 245.550781 114.523438 C 245.75 114.726562 245.949219 114.875 246.148438 114.976562 C 246.398438 115.074219 246.726562 115.199219 247.125 115.351562 C 247.675781 115.5 248.101562 115.648438 248.398438 115.800781 C 248.699219 116 248.976562 116.25 249.226562 116.550781 C 249.425781 116.898438 249.523438 117.351562 249.523438 117.898438 C 249.523438 118.75 249.25 119.375 248.699219 119.773438 C 248.199219 120.226562 247.5 120.449219 246.601562 120.449219 C 246.050781 120.449219 245.574219 120.398438 245.175781 120.300781 C 244.773438 120.199219 244.351562 120.050781 243.898438 119.851562 L 244.273438 118.875 "/>
<path style=" stroke:none;fill-rule:nonzero;fill:rgb(0%,0%,100%);fill-opacity:1;" d="M 300 108.148438 L 302.925781 112.800781 C 303.074219 113.101562 303.300781 113.523438 303.601562 114.074219 C 303.949219 114.625 304.125 114.925781 304.125 114.976562 L 304.125 108.148438 L 305.324219 108.148438 L 305.324219 116.925781 L 304.050781 116.925781 L 300.976562 111.824219 C 300.726562 111.425781 300.476562 111 300.226562 110.550781 C 299.976562 110.101562 299.824219 109.800781 299.773438 109.648438 L 299.773438 116.925781 L 298.648438 116.925781 L 298.648438 108.148438 L 300 108.148438 "/>
<path style=" stroke:none;fill-rule:nonzero;fill:rgb(0%,0%,100%);fill-opacity:1;" d="M 306.300781 108.148438 L 307.5 108.148438 L 307.5 111.898438 L 312 111.898438 L 312 108.148438 L 313.199219 108.148438 L 313.199219 116.925781 L 312 116.925781 L 312 112.875 L 307.5 112.875 L 307.5 116.925781 L 306.300781 116.925781 L 306.300781 108.148438 "/>
<path style=" stroke:none;fill-rule:nonzero;fill:rgb(0%,0%,100%);fill-opacity:1;" d="M 314.25 116.625 C 314.398438 116.273438 314.648438 116 315 115.800781 C 315.351562 115.550781 315.75 115.425781 316.199219 115.425781 C 316.800781 115.425781 317.25 115.601562 317.550781 115.949219 C 317.898438 116.25 318.074219 116.675781 318.074219 117.226562 C 318.074219 117.824219 317.851562 118.398438 317.398438 118.949219 C 317 119.449219 316.351562 120.023438 315.449219 120.675781 L 318.148438 120.675781 L 318.148438 121.351562 L 314.25 121.351562 L 314.25 120.75 C 314.949219 120.25 315.523438 119.800781 315.976562 119.398438 C 316.425781 119.050781 316.75 118.699219 316.949219 118.351562 C 317.148438 118 317.25 117.648438 317.25 117.300781 C 317.25 116.949219 317.148438 116.648438 316.949219 116.398438 C 316.800781 116.199219 316.550781 116.101562 316.199219 116.101562 C 315.898438 116.101562 315.648438 116.175781 315.449219 116.324219 C 315.25 116.425781 315.074219 116.625 314.925781 116.925781 L 314.25 116.625 "/>
<path style=" stroke:none;fill-rule:nonzero;fill:rgb(0%,0%,100%);fill-opacity:1;" d="M 270.226562 154.726562 L 273.074219 159.375 C 273.273438 159.726562 273.523438 160.175781 273.824219 160.726562 C 274.125 161.273438 274.300781 161.550781 274.351562 161.550781 L 274.351562 154.726562 L 275.476562 154.726562 L 275.476562 163.574219 L 274.273438 163.574219 L 271.199219 158.476562 C 270.949219 158.074219 270.699219 157.648438 270.449219 157.199219 C 270.199219 156.75 270.050781 156.449219 270 156.300781 L 270 163.574219 L 268.800781 163.574219 L 268.800781 154.726562 L 270.226562 154.726562 "/>
<path style=" stroke:none;fill-rule:nonzero;fill:rgb(80%,80%,0%);fill-opacity:1;" d="M 122.851562 234.226562 C 122.898438 234.226562 123.074219 234.300781 123.375 234.449219 C 123.625 234.550781 123.898438 234.648438 124.199219 234.75 C 124.5 234.800781 124.800781 234.824219 125.101562 234.824219 C 125.648438 234.824219 126.101562 234.699219 126.449219 234.449219 C 126.75 234.148438 126.898438 233.773438 126.898438 233.324219 C 126.898438 232.976562 126.824219 232.699219 126.675781 232.5 C 126.523438 232.300781 126.324219 232.148438 126.074219 232.050781 C 125.824219 231.949219 125.476562 231.851562 125.023438 231.75 C 124.523438 231.550781 124.125 231.375 123.824219 231.226562 C 123.523438 231.074219 123.25 230.851562 123 230.550781 C 122.800781 230.25 122.699219 229.824219 122.699219 229.273438 C 122.699219 228.523438 122.949219 227.925781 123.449219 227.476562 C 123.949219 227.023438 124.699219 226.800781 125.699219 226.800781 C 126.351562 226.800781 127.074219 226.976562 127.875 227.324219 L 127.574219 228.226562 C 126.875 227.976562 126.25 227.851562 125.699219 227.851562 C 125.148438 227.851562 124.699219 227.949219 124.351562 228.148438 C 124.050781 228.398438 123.898438 228.726562 123.898438 229.125 C 123.898438 229.476562 123.976562 229.726562 124.125 229.875 C 124.324219 230.074219 124.523438 230.226562 124.726562 230.324219 C 124.976562 230.425781 125.300781 230.550781 125.699219 230.699219 C 126.25 230.851562 126.675781 231.023438 126.976562 231.226562 C 127.273438 231.375 127.550781 231.625 127.800781 231.976562 C 128 232.273438 128.101562 232.726562 128.101562 233.324219 C 128.101562 234.125 127.851562 234.75 127.351562 235.199219 C 126.800781 235.601562 126.074219 235.800781 125.175781 235.800781 C 124.625 235.800781 124.148438 235.75 123.75 235.648438 C 123.398438 235.550781 122.976562 235.398438 122.476562 235.199219 L 122.851562 234.226562 "/>
<path style=" stroke:none;fill-rule:nonzero;fill:rgb(0%,0%,0%);fill-opacity:1;" d="M 154.949219 208.5 L 156.148438 208.5 L 156.148438 212.25 L 160.648438 212.25 L 160.648438 208.5 L 161.851562 208.5 L 161.851562 217.351562 L 160.648438 217.351562 L 160.648438 213.226562 L 156.148438 213.226562 L 156.148438 217.351562 L 154.949219 217.351562 L 154.949219 208.5 "/>
</g>
</svg>
