<?xml version="1.0" encoding="UTF-8"?>
<svg xmlns="http://www.w3.org/2000/svg" xmlns:xlink="http://www.w3.org/1999/xlink" width="375pt" height="375pt" viewBox="0 0 375 375" version="1.1">
<g id="surface216">
<rect x="0" y="0" width="375" height="375" style="fill:rgb(100%,100%,100%);fill-opacity:1;stroke:none;"/>
<path style="fill:none;stroke-width:2;stroke-linecap:butt;stroke-linejoin:miter;stroke:rgb(0%,0%,0%);stroke-opacity:1;stroke-miterlimit:4;" d="M 29.5 258.598958 L 58.302083 292.697917 " transform="matrix(0.75,0,0,0.75,0,0)"/>
<path style="fill:none;stroke-width:2;stroke-linecap:butt;stroke-linejoin:miter;stroke:rgb(0%,0%,0%);stroke-opacity:1;stroke-miterlimit:4;" d="M 22.697917 264.401042 L 51.5 298.5 " transform="matrix(0.75,0,0,0.75,0,0)"/>
<path style="fill:none;stroke-width:2;stroke-linecap:butt;stroke-linejoin:miter;stroke:rgb(0%,0%,0%);stroke-opacity:1;stroke-miterlimit:4;" d="M 54.901042 295.598958 L 98.901042 287.697917 " transform="matrix(0.75,0,0,0.75,0,0)"/>
<path style="fill:none;stroke-width:2;stroke-linecap:butt;stroke-linejoin:miter;stroke:rgb(0%,0%,0%);stroke-opacity:1;stroke-miterlimit:4;" d="M 98.901042 287.697917 L 114 245.697917 " transform="matrix(0.75,0,0,0.75,0,0)"/>
<path style="fill:none;stroke-width:2;stroke-linecap:butt;stroke-linejoin:miter;stroke:rgb(0%,0%,0%);stroke-opacity:1;stroke-miterlimit:4;" d="M 109.5 284.401042 L 120.098958 255 " transform="matrix(0.75,0,0,0.75,0,0)"/>
<path style="fill:none;stroke-width:2;stroke-linecap:butt;stroke-linejoin:miter;stroke:rgb(0%,0%,0%);stroke-opacity:1;stroke-miterlimit:4;" d="M 114 245.697917 L 85.197917 211.598958 " transform="matrix(0.75,0,0,0.75,0,0)"/>
<path style="fill:none;stroke-width:2;stroke-linecap:butt;stroke-linejoin:miter;stroke:rgb(0%,0%,0%);stroke-opacity:1;stroke-miterlimit:4;" d="M 86 216 L 67.697917 219.302083 " transform="matrix(0.75,0,0,0.75,0,0)"/>
<path style="fill:none;stroke-width:2;stroke-linecap:butt;stroke-linejoin:miter;stroke:rgb(100%,0%,0%);stroke-opacity:1;stroke-miterlimit:4;" d="M 67.697917 219.302083 L 49.302083 222.598958 " transform="matrix(0.75,0,0,0.75,0,0)"/>
<path style="fill:none;stroke-width:2;stroke-linecap:butt;stroke-linejoin:miter;stroke:rgb(0%,0%,0%);stroke-opacity:1;stroke-miterlimit:4;" d="M 84.401042 207.197917 L 66.098958 210.5 " transform="matrix(0.75,0,0,0.75,0,0)"/>
<path style="fill:none;stroke-width:2;stroke-linecap:butt;stroke-linejoin:miter;stroke:rgb(100%,0%,0%);stroke-opacity:1;stroke-miterlimit:4;" d="M 66.098958 210.5 L 47.802083 213.802083 " transform="matrix(0.75,0,0,0.75,0,0)"/>
<path style="fill:none;stroke-width:2;stroke-linecap:butt;stroke-linejoin:miter;stroke:rgb(0%,0%,0%);stroke-opacity:1;stroke-miterlimit:4;" d="M 85.197917 211.598958 L 91.302083 194.598958 " transform="matrix(0.75,0,0,0.75,0,0)"/>
<path style="fill:none;stroke-width:2;stroke-linecap:butt;stroke-linejoin:miter;stroke:rgb(100%,0%,0%);stroke-opacity:1;stroke-miterlimit:4;" d="M 91.302083 194.598958 L 97.401042 177.697917 " transform="matrix(0.75,0,0,0.75,0,0)"/>
<path style="fill:none;stroke-width:2;stroke-linecap:butt;stroke-linejoin:miter;stroke:rgb(0%,0%,0%);stroke-opacity:1;stroke-miterlimit:4;" d="M 114 245.697917 L 132.802083 242.302083 " transform="matrix(0.75,0,0,0.75,0,0)"/>
<path style="fill:none;stroke-width:2;stroke-linecap:butt;stroke-linejoin:miter;stroke:rgb(0%,0%,100%);stroke-opacity:1;stroke-miterlimit:4;" d="M 132.802083 242.302083 L 151.697917 239 " transform="matrix(0.75,0,0,0.75,0,0)"/>
<path style="fill:none;stroke-width:2;stroke-linecap:butt;stroke-linejoin:miter;stroke:rgb(0%,0%,100%);stroke-opacity:1;stroke-miterlimit:4;" d="M 164.197917 232.598958 L 178.098958 220.802083 " transform="matrix(0.75,0,0,0.75,0,0)"/>
<path style="fill:none;stroke-width:2;stroke-linecap:butt;stroke-linejoin:miter;stroke:rgb(0%,0%,0%);stroke-opacity:1;stroke-miterlimit:4;" d="M 178.098958 220.802083 L 192 209 " transform="matrix(0.75,0,0,0.75,0,0)"/>
<path style="fill:none;stroke-width:2;stroke-linecap:butt;stroke-linejoin:miter;stroke:rgb(0%,0%,0%);stroke-opacity:1;stroke-miterlimit:4;" d="M 187.598958 208.697917 L 189.098958 190.5 " transform="matrix(0.75,0,0,0.75,0,0)"/>
<path style="fill:none;stroke-width:2;stroke-linecap:butt;stroke-linejoin:miter;stroke:rgb(100%,0%,0%);stroke-opacity:1;stroke-miterlimit:4;" d="M 189.098958 190.5 L 190.697917 172.302083 " transform="matrix(0.75,0,0,0.75,0,0)"/>
<path style="fill:none;stroke-width:2;stroke-linecap:butt;stroke-linejoin:miter;stroke:rgb(0%,0%,0%);stroke-opacity:1;stroke-miterlimit:4;" d="M 196.5 209.401042 L 198 191.197917 " transform="matrix(0.75,0,0,0.75,0,0)"/>
<path style="fill:none;stroke-width:2;stroke-linecap:butt;stroke-linejoin:miter;stroke:rgb(100%,0%,0%);stroke-opacity:1;stroke-miterlimit:4;" d="M 198 191.197917 L 199.598958 173 " transform="matrix(0.75,0,0,0.75,0,0)"/>
<path style="fill:none;stroke-width:2;stroke-linecap:butt;stroke-linejoin:miter;stroke:rgb(0%,0%,0%);stroke-opacity:1;stroke-miterlimit:4;" d="M 192 209 L 220.802083 243.197917 " transform="matrix(0.75,0,0,0.75,0,0)"/>
<path style="fill-rule:evenodd;fill:rgb(0%,0%,0%);fill-opacity:1;stroke-width:1;stroke-linecap:butt;stroke-linejoin:miter;stroke:rgb(0%,0%,0%);stroke-opacity:1;stroke-miterlimit:4;" d="M 220.802083 243.197917 L 239.401042 242.5 L 239 246.901042 Z M 220.802083 243.197917 " transform="matrix(0.75,0,0,0.75,0,0)"/>
<path style="fill-rule:evenodd;fill:rgb(0%,0%,100%);fill-opacity:1;stroke-width:1;stroke-linecap:butt;stroke-linejoin:miter;stroke:rgb(0%,0%,100%);stroke-opacity:1;stroke-miterlimit:4;" d="M 239.401042 242.5 L 257.197917 250.697917 L 257.901042 241.802083 Z M 239.401042 242.5 " transform="matrix(0.75,0,0,0.75,0,0)"/>
<path style="fill-rule:evenodd;fill:rgb(0%,0%,100%);fill-opacity:1;stroke-width:1;stroke-linecap:butt;stroke-linejoin:miter;stroke:rgb(0%,0%,100%);stroke-opacity:1;stroke-miterlimit:4;" d="M 239.401042 242.5 L 239 246.901042 L 257.197917 250.697917 Z M 239.401042 242.5 " transform="matrix(0.75,0,0,0.75,0,0)"/>
<path style="fill:none;stroke-width:2;stroke-linecap:butt;stroke-linejoin:miter;stroke:rgb(0%,0%,100%);stroke-opacity:1;stroke-miterlimit:4;" d="M 269 254.697917 L 276.598958 271 " transform="matrix(0.75,0,0,0.75,0,0)"/>
<path style="fill:none;stroke-width:2;stroke-linecap:butt;stroke-linejoin:miter;stroke:rgb(0%,0%,0%);stroke-opacity:1;stroke-miterlimit:4;" d="M 276.598958 271 L 284.302083 287.302083 " transform="matrix(0.75,0,0,0.75,0,0)"/>
<path style="fill:none;stroke-width:2;stroke-linecap:butt;stroke-linejoin:miter;stroke:rgb(0%,0%,0%);stroke-opacity:1;stroke-miterlimit:4;" d="M 288 289.901042 L 277.901042 304.197917 " transform="matrix(0.75,0,0,0.75,0,0)"/>
<path style="fill:none;stroke-width:2;stroke-linecap:butt;stroke-linejoin:miter;stroke:rgb(100%,0%,0%);stroke-opacity:1;stroke-miterlimit:4;" d="M 277.901042 304.197917 L 267.901042 318.598958 " transform="matrix(0.75,0,0,0.75,0,0)"/>
<path style="fill:none;stroke-width:2;stroke-linecap:butt;stroke-linejoin:miter;stroke:rgb(0%,0%,0%);stroke-opacity:1;stroke-miterlimit:4;" d="M 280.598958 284.802083 L 270.598958 299.098958 " transform="matrix(0.75,0,0,0.75,0,0)"/>
<path style="fill:none;stroke-width:2;stroke-linecap:butt;stroke-linejoin:miter;stroke:rgb(100%,0%,0%);stroke-opacity:1;stroke-miterlimit:4;" d="M 270.598958 299.098958 L 260.598958 313.5 " transform="matrix(0.75,0,0,0.75,0,0)"/>
<path style="fill:none;stroke-width:2;stroke-linecap:butt;stroke-linejoin:miter;stroke:rgb(0%,0%,0%);stroke-opacity:1;stroke-miterlimit:4;" d="M 284.302083 287.302083 L 328.802083 291.098958 " transform="matrix(0.75,0,0,0.75,0,0)"/>
<path style="fill:none;stroke-width:2;stroke-linecap:butt;stroke-linejoin:miter;stroke:rgb(0%,0%,0%);stroke-opacity:1;stroke-miterlimit:4;" d="M 328.802083 291.098958 L 336.401042 307.401042 " transform="matrix(0.75,0,0,0.75,0,0)"/>
<path style="fill:none;stroke-width:2;stroke-linecap:butt;stroke-linejoin:miter;stroke:rgb(0%,0%,100%);stroke-opacity:1;stroke-miterlimit:4;" d="M 336.401042 307.401042 L 344.098958 323.697917 " transform="matrix(0.75,0,0,0.75,0,0)"/>
<path style="fill:none;stroke-width:2;stroke-linecap:butt;stroke-linejoin:miter;stroke:rgb(0%,0%,0%);stroke-opacity:1;stroke-miterlimit:4;" d="M 323 299.802083 L 328.302083 311.197917 " transform="matrix(0.75,0,0,0.75,0,0)"/>
<path style="fill:none;stroke-width:2;stroke-linecap:butt;stroke-linejoin:miter;stroke:rgb(0%,0%,100%);stroke-opacity:1;stroke-miterlimit:4;" d="M 328.302083 311.197917 L 333.697917 322.598958 " transform="matrix(0.75,0,0,0.75,0,0)"/>
<path style="fill:none;stroke-width:2;stroke-linecap:butt;stroke-linejoin:miter;stroke:rgb(0%,0%,100%);stroke-opacity:1;stroke-miterlimit:4;" d="M 354 332 L 369.5 333.302083 " transform="matrix(0.75,0,0,0.75,0,0)"/>
<path style="fill:none;stroke-width:2;stroke-linecap:butt;stroke-linejoin:miter;stroke:rgb(100%,0%,0%);stroke-opacity:1;stroke-miterlimit:4;" d="M 369.5 333.302083 L 384.901042 334.598958 " transform="matrix(0.75,0,0,0.75,0,0)"/>
<path style="fill:none;stroke-width:2;stroke-linecap:butt;stroke-linejoin:miter;stroke:rgb(0%,0%,0%);stroke-opacity:1;stroke-miterlimit:4;" d="M 328.802083 291.098958 L 354.302083 254.401042 " transform="matrix(0.75,0,0,0.75,0,0)"/>
<path style="fill:none;stroke-width:2;stroke-linecap:butt;stroke-linejoin:miter;stroke:rgb(0%,0%,0%);stroke-opacity:1;stroke-miterlimit:4;" d="M 354.302083 254.401042 L 339.598958 212.302083 " transform="matrix(0.75,0,0,0.75,0,0)"/>
<path style="fill:none;stroke-width:2;stroke-linecap:butt;stroke-linejoin:miter;stroke:rgb(0%,0%,0%);stroke-opacity:1;stroke-miterlimit:4;" d="M 360.5 245.197917 L 350.197917 215.697917 " transform="matrix(0.75,0,0,0.75,0,0)"/>
<path style="fill:none;stroke-width:2;stroke-linecap:butt;stroke-linejoin:miter;stroke:rgb(0%,0%,0%);stroke-opacity:1;stroke-miterlimit:4;" d="M 339.598958 212.302083 L 354.598958 200.901042 " transform="matrix(0.75,0,0,0.75,0,0)"/>
<path style="fill:none;stroke-width:2;stroke-linecap:butt;stroke-linejoin:miter;stroke:rgb(80%,80%,0%);stroke-opacity:1;stroke-miterlimit:4;" d="M 354.598958 200.901042 L 369.598958 189.5 " transform="matrix(0.75,0,0,0.75,0,0)"/>
<path style="fill:none;stroke-width:2;stroke-linecap:butt;stroke-linejoin:miter;stroke:rgb(80%,80%,0%);stroke-opacity:1;stroke-miterlimit:4;" d="M 380.697917 189.197917 L 396.302083 200 " transform="matrix(0.75,0,0,0.75,0,0)"/>
<path style="fill:none;stroke-width:2;stroke-linecap:butt;stroke-linejoin:miter;stroke:rgb(0%,0%,0%);stroke-opacity:1;stroke-miterlimit:4;" d="M 396.302083 200 L 411.802083 210.802083 " transform="matrix(0.75,0,0,0.75,0,0)"/>
<path style="fill:none;stroke-width:2;stroke-linecap:butt;stroke-linejoin:miter;stroke:rgb(0%,0%,0%);stroke-opacity:1;stroke-miterlimit:4;" d="M 411.802083 210.802083 L 429.802083 204.598958 " transform="matrix(0.75,0,0,0.75,0,0)"/>
<path style="fill:none;stroke-width:2;stroke-linecap:butt;stroke-linejoin:miter;stroke:rgb(0%,0%,100%);stroke-opacity:1;stroke-miterlimit:4;" d="M 429.802083 204.598958 L 447.697917 198.302083 " transform="matrix(0.75,0,0,0.75,0,0)"/>
<path style="fill:none;stroke-width:2;stroke-linecap:butt;stroke-linejoin:miter;stroke:rgb(0%,0%,0%);stroke-opacity:1;stroke-miterlimit:4;" d="M 411.802083 210.802083 L 406.5 228.302083 " transform="matrix(0.75,0,0,0.75,0,0)"/>
<path style="fill:none;stroke-width:2;stroke-linecap:butt;stroke-linejoin:miter;stroke:rgb(0%,0%,100%);stroke-opacity:1;stroke-miterlimit:4;" d="M 406.5 228.302083 L 401.197917 245.697917 " transform="matrix(0.75,0,0,0.75,0,0)"/>
<path style="fill:none;stroke-width:2;stroke-linecap:butt;stroke-linejoin:miter;stroke:rgb(0%,0%,0%);stroke-opacity:1;stroke-miterlimit:4;" d="M 401.697917 213.5 L 398 225.697917 " transform="matrix(0.75,0,0,0.75,0,0)"/>
<path style="fill:none;stroke-width:2;stroke-linecap:butt;stroke-linejoin:miter;stroke:rgb(0%,0%,100%);stroke-opacity:1;stroke-miterlimit:4;" d="M 398 225.697917 L 394.302083 237.901042 " transform="matrix(0.75,0,0,0.75,0,0)"/>
<path style="fill:none;stroke-width:2;stroke-linecap:butt;stroke-linejoin:miter;stroke:rgb(0%,0%,0%);stroke-opacity:1;stroke-miterlimit:4;" d="M 220.802083 243.197917 L 186.697917 271.901042 " transform="matrix(0.75,0,0,0.75,0,0)"/>
<path style="fill:none;stroke-width:2;stroke-linecap:butt;stroke-linejoin:miter;stroke:rgb(0%,0%,0%);stroke-opacity:1;stroke-miterlimit:4;" d="M 186.697917 271.901042 L 180.598958 289.098958 " transform="matrix(0.75,0,0,0.75,0,0)"/>
<path style="fill:none;stroke-width:2;stroke-linecap:butt;stroke-linejoin:miter;stroke:rgb(80%,80%,0%);stroke-opacity:1;stroke-miterlimit:4;" d="M 180.598958 289.098958 L 174.401042 306.197917 " transform="matrix(0.75,0,0,0.75,0,0)"/>
<path style="fill:none;stroke-width:2;stroke-linecap:butt;stroke-linejoin:miter;stroke:rgb(80%,80%,0%);stroke-opacity:1;stroke-miterlimit:4;" d="M 166.098958 314.901042 L 146.901042 318.401042 " transform="matrix(0.75,0,0,0.75,0,0)"/>
<path style="fill:none;stroke-width:2;stroke-linecap:butt;stroke-linejoin:miter;stroke:rgb(0%,0%,0%);stroke-opacity:1;stroke-miterlimit:4;" d="M 146.901042 318.401042 L 127.697917 321.802083 " transform="matrix(0.75,0,0,0.75,0,0)"/>
<path style="fill:none;stroke-width:2;stroke-linecap:butt;stroke-linejoin:miter;stroke:rgb(0%,0%,0%);stroke-opacity:1;stroke-miterlimit:4;" d="M 127.697917 321.802083 L 98.901042 287.697917 " transform="matrix(0.75,0,0,0.75,0,0)"/>
<path style="fill:none;stroke-width:2;stroke-linecap:butt;stroke-linejoin:miter;stroke:rgb(0%,0%,0%);stroke-opacity:1;stroke-miterlimit:4;" d="M 186.697917 271.901042 L 175.5 258.598958 " transform="matrix(0.75,0,0,0.75,0,0)"/>
<path style="fill:none;stroke-width:2;stroke-linecap:butt;stroke-linejoin:miter;stroke:rgb(0%,0%,100%);stroke-opacity:1;stroke-miterlimit:4;" d="M 175.5 258.598958 L 164.197917 245.302083 " transform="matrix(0.75,0,0,0.75,0,0)"/>
<path style="fill:none;stroke-width:2;stroke-linecap:butt;stroke-linejoin:miter;stroke:rgb(0%,0%,100%);stroke-opacity:1;stroke-miterlimit:4;" d="M 392.598958 253.697917 L 373.401042 254 " transform="matrix(0.75,0,0,0.75,0,0)"/>
<path style="fill:none;stroke-width:2;stroke-linecap:butt;stroke-linejoin:miter;stroke:rgb(0%,0%,0%);stroke-opacity:1;stroke-miterlimit:4;" d="M 373.401042 254 L 354.302083 254.401042 " transform="matrix(0.75,0,0,0.75,0,0)"/>
<path style="fill:none;stroke-width:1;stroke-linecap:butt;stroke-linejoin:miter;stroke:rgb(0%,0%,0%);stroke-opacity:1;stroke-miterlimit:4;" d="M 191.098958 275.901042 L 191.901042 274.697917 " transform="matrix(0.75,0,0,0.75,0,0)"/>
<path style="fill:none;stroke-width:1;stroke-linecap:butt;stroke-linejoin:miter;stroke:rgb(0%,0%,0%);stroke-opacity:1;stroke-miterlimit:4;" d="M 195.5 279.802083 L 197.197917 277.401042 " transform="matrix(0.75,0,0,0.75,0,0)"/>
<path style="fill:none;stroke-width:1;stroke-linecap:butt;stroke-linejoin:miter;stroke:rgb(0%,0%,0%);stroke-opacity:1;stroke-miterlimit:4;" d="M 199.802083 283.802083 L 202.401042 280.098958 " transform="matrix(0.75,0,0,0.75,0,0)"/>
<path style="fill:none;stroke-width:1;stroke-linecap:butt;stroke-linejoin:miter;stroke:rgb(0%,0%,0%);stroke-opacity:1;stroke-miterlimit:4;" d="M 204.197917 287.697917 L 207.598958 282.802083 " transform="matrix(0.75,0,0,0.75,0,0)"/>
<path style="fill:none;stroke-width:1;stroke-linecap:butt;stroke-linejoin:miter;stroke:rgb(0%,0%,0%);stroke-opacity:1;stroke-miterlimit:4;" d="M 208.598958 291.697917 L 212.802083 285.598958 " transform="matrix(0.75,0,0,0.75,0,0)"/>
<path style="fill:none;stroke-width:1;stroke-linecap:butt;stroke-linejoin:miter;stroke:rgb(0%,0%,0%);stroke-opacity:1;stroke-miterlimit:4;" d="M 212.901042 295.598958 L 218 288.302083 " transform="matrix(0.75,0,0,0.75,0,0)"/>
<path style=" stroke:none;fill-rule:nonzero;fill:rgb(100%,0%,0%);fill-opacity:1;" d="M 26.625 164.625 C 26.625 163.125 27 161.949219 27.75 161.101562 C 28.5 160.25 29.574219 159.824219 30.976562 159.824219 C 32.375 159.824219 33.449219 160.25 34.199219 161.101562 C 34.949219 161.949219 35.324219 163.125 35.324219 164.625 C 35.324219 166.175781 34.949219 167.375 34.199219 168.226562 C 33.398438 169.125 32.324219 169.574219 30.976562 169.574219 C 29.574219 169.574219 28.5 169.125 27.75 168.226562 C 27 167.375 26.625 166.175781 26.625 164.625 M 30.976562 168.523438 C 31.925781 168.523438 32.648438 168.199219 33.148438 167.550781 C 33.699219 166.898438 33.976562 165.925781 33.976562 164.625 C 33.976562 163.375 33.699219 162.449219 33.148438 161.851562 C 32.648438 161.199219 31.925781 160.875 30.976562 160.875 C 30.023438 160.875 29.273438 161.199219 28.726562 161.851562 C 28.226562 162.449219 27.976562 163.375 27.976562 164.625 C 27.976562 165.925781 28.226562 166.898438 28.726562 167.550781 C 29.273438 168.199219 30.023438 168.523438 30.976562 168.523438 "/>
<path style=" stroke:none;fill-rule:nonzero;fill:rgb(100%,0%,0%);fill-opacity:1;" d="M 70.949219 127.273438 C 70.949219 125.726562 71.324219 124.523438 72.074219 123.675781 C 72.824219 122.824219 73.898438 122.398438 75.300781 122.398438 C 76.699219 122.398438 77.773438 122.824219 78.523438 123.675781 C 79.273438 124.523438 79.648438 125.726562 79.648438 127.273438 C 79.648438 128.773438 79.25 129.976562 78.449219 130.875 C 77.699219 131.726562 76.648438 132.148438 75.300781 132.148438 C 73.898438 132.148438 72.824219 131.726562 72.074219 130.875 C 71.324219 129.976562 70.949219 128.773438 70.949219 127.273438 M 75.300781 131.101562 C 76.25 131.101562 76.976562 130.773438 77.476562 130.125 C 78.023438 129.476562 78.300781 128.523438 78.300781 127.273438 C 78.300781 126.023438 78.023438 125.074219 77.476562 124.425781 C 76.976562 123.824219 76.25 123.523438 75.300781 123.523438 C 74.300781 123.523438 73.550781 123.824219 73.050781 124.425781 C 72.5 125.074219 72.226562 126.023438 72.226562 127.273438 C 72.226562 128.523438 72.5 129.476562 73.050781 130.125 C 73.550781 130.773438 74.300781 131.101562 75.300781 131.101562 "/>
<path style=" stroke:none;fill-rule:nonzero;fill:rgb(100%,0%,0%);fill-opacity:1;" d="M 80.324219 122.550781 L 81.601562 122.550781 L 81.601562 126.601562 L 86.398438 126.601562 L 86.398438 122.550781 L 87.675781 122.550781 L 87.675781 132 L 86.398438 132 L 86.398438 127.648438 L 81.601562 127.648438 L 81.601562 132 L 80.324219 132 L 80.324219 122.550781 "/>
<path style=" stroke:none;fill-rule:nonzero;fill:rgb(0%,0%,100%);fill-opacity:1;" d="M 116.324219 173.625 L 119.476562 178.648438 C 119.675781 179 119.949219 179.476562 120.300781 180.074219 C 120.601562 180.675781 120.773438 180.976562 120.824219 180.976562 L 120.824219 173.625 L 122.023438 173.625 L 122.023438 183.148438 L 120.75 183.148438 L 117.449219 177.601562 C 117.148438 177.199219 116.875 176.75 116.625 176.25 C 116.324219 175.75 116.148438 175.425781 116.101562 175.273438 L 116.101562 183.148438 L 114.824219 183.148438 L 114.824219 173.625 L 116.324219 173.625 "/>
<path style=" stroke:none;fill-rule:nonzero;fill:rgb(100%,0%,0%);fill-opacity:1;" d="M 142.5 123.449219 C 142.5 121.949219 142.875 120.773438 143.625 119.925781 C 144.375 119.074219 145.449219 118.648438 146.851562 118.648438 C 148.25 118.648438 149.324219 119.074219 150.074219 119.925781 C 150.824219 120.773438 151.199219 121.949219 151.199219 123.449219 C 151.199219 125 150.824219 126.199219 150.074219 127.050781 C 149.324219 127.949219 148.25 128.398438 146.851562 128.398438 C 145.449219 128.398438 144.375 127.949219 143.625 127.050781 C 142.875 126.199219 142.5 125 142.5 123.449219 M 146.851562 127.273438 C 147.800781 127.273438 148.550781 126.949219 149.101562 126.300781 C 149.601562 125.648438 149.851562 124.699219 149.851562 123.449219 C 149.851562 122.199219 149.601562 121.273438 149.101562 120.675781 C 148.550781 120.023438 147.800781 119.699219 146.851562 119.699219 C 145.898438 119.699219 145.148438 120.023438 144.601562 120.675781 C 144.101562 121.273438 143.851562 122.199219 143.851562 123.449219 C 143.851562 124.75 144.101562 125.699219 144.601562 126.300781 C 145.148438 126.949219 145.898438 127.273438 146.851562 127.273438 "/>
<path style=" stroke:none;fill-rule:nonzero;fill:rgb(0%,0%,100%);fill-opacity:1;" d="M 196.875 180.449219 L 200.023438 185.476562 C 200.226562 185.824219 200.476562 186.273438 200.773438 186.824219 C 201.125 187.425781 201.300781 187.75 201.300781 187.800781 L 201.300781 180.449219 L 202.574219 180.449219 L 202.574219 189.898438 L 201.300781 189.898438 L 197.925781 184.425781 C 197.675781 184.023438 197.425781 183.574219 197.175781 183.074219 C 196.875 182.574219 196.699219 182.25 196.648438 182.101562 L 196.648438 189.898438 L 195.375 189.898438 L 195.375 180.449219 L 196.875 180.449219 "/>
<path style=" stroke:none;fill-rule:nonzero;fill:rgb(0%,0%,100%);fill-opacity:1;" d="M 203.699219 180.449219 L 204.976562 180.449219 L 204.976562 184.5 L 209.851562 184.5 L 209.851562 180.449219 L 211.125 180.449219 L 211.125 189.898438 L 209.851562 189.898438 L 209.851562 185.550781 L 204.976562 185.550781 L 204.976562 189.898438 L 203.699219 189.898438 L 203.699219 180.449219 "/>
<path style=" stroke:none;fill-rule:nonzero;fill:rgb(100%,0%,0%);fill-opacity:1;" d="M 189.75 243 C 189.75 241.5 190.125 240.324219 190.875 239.476562 C 191.625 238.625 192.699219 238.199219 194.101562 238.199219 C 195.5 238.199219 196.574219 238.625 197.324219 239.476562 C 198.074219 240.324219 198.449219 241.5 198.449219 243 C 198.449219 244.550781 198.074219 245.75 197.324219 246.601562 C 196.574219 247.449219 195.5 247.875 194.101562 247.875 C 192.699219 247.875 191.625 247.449219 190.875 246.601562 C 190.125 245.75 189.75 244.550781 189.75 243 M 194.101562 246.824219 C 195.050781 246.824219 195.800781 246.5 196.351562 245.851562 C 196.851562 245.199219 197.101562 244.25 197.101562 243 C 197.101562 241.75 196.851562 240.824219 196.351562 240.226562 C 195.800781 239.574219 195.050781 239.25 194.101562 239.25 C 193.148438 239.25 192.398438 239.550781 191.851562 240.148438 C 191.351562 240.800781 191.101562 241.75 191.101562 243 C 191.101562 244.25 191.351562 245.199219 191.851562 245.851562 C 192.398438 246.5 193.148438 246.824219 194.101562 246.824219 "/>
<path style=" stroke:none;fill-rule:nonzero;fill:rgb(0%,0%,100%);fill-opacity:1;" d="M 258.75 243.824219 L 261.824219 248.851562 C 262.023438 249.199219 262.300781 249.675781 262.648438 250.273438 C 262.949219 250.875 263.125 251.199219 263.175781 251.25 L 263.175781 243.824219 L 264.375 243.824219 L 264.375 253.351562 L 263.101562 253.351562 L 259.800781 247.875 C 259.5 247.425781 259.226562 246.949219 258.976562 246.449219 C 258.726562 245.949219 258.550781 245.625 258.449219 245.476562 L 258.449219 253.351562 L 257.25 253.351562 L 257.25 243.824219 L 258.75 243.824219 "/>
<path style=" stroke:none;fill-rule:nonzero;fill:rgb(100%,0%,0%);fill-opacity:1;" d="M 289.800781 251.476562 C 289.800781 249.925781 290.175781 248.726562 290.925781 247.875 C 291.675781 247.023438 292.75 246.601562 294.148438 246.601562 C 295.550781 246.601562 296.625 247.023438 297.375 247.875 C 298.125 248.726562 298.5 249.925781 298.5 251.476562 C 298.5 252.976562 298.125 254.175781 297.375 255.074219 C 296.625 255.925781 295.550781 256.351562 294.148438 256.351562 C 292.75 256.351562 291.675781 255.925781 290.925781 255.074219 C 290.175781 254.226562 289.800781 253.023438 289.800781 251.476562 M 294.148438 255.300781 C 295.148438 255.300781 295.898438 254.976562 296.398438 254.324219 C 296.898438 253.675781 297.148438 252.726562 297.148438 251.476562 C 297.148438 250.226562 296.898438 249.273438 296.398438 248.625 C 295.898438 248.023438 295.148438 247.726562 294.148438 247.726562 C 293.199219 247.726562 292.449219 248.023438 291.898438 248.625 C 291.398438 249.273438 291.148438 250.226562 291.148438 251.476562 C 291.148438 252.726562 291.398438 253.675781 291.898438 254.324219 C 292.449219 254.976562 293.199219 255.300781 294.148438 255.300781 "/>
<path style=" stroke:none;fill-rule:nonzero;fill:rgb(100%,0%,0%);fill-opacity:1;" d="M 299.175781 246.75 L 300.449219 246.75 L 300.449219 250.800781 L 305.324219 250.800781 L 305.324219 246.75 L 306.601562 246.75 L 306.601562 256.199219 L 305.324219 256.199219 L 305.324219 251.851562 L 300.449219 251.851562 L 300.449219 256.199219 L 299.175781 256.199219 L 299.175781 246.75 "/>
<path style=" stroke:none;fill-rule:nonzero;fill:rgb(80%,80%,0%);fill-opacity:1;" d="M 278.699219 142.199219 C 278.75 142.25 278.925781 142.351562 279.226562 142.5 C 279.523438 142.601562 279.851562 142.699219 280.199219 142.800781 C 280.5 142.851562 280.824219 142.875 281.175781 142.875 C 281.773438 142.875 282.25 142.726562 282.601562 142.425781 C 282.949219 142.125 283.125 141.726562 283.125 141.226562 C 283.125 140.875 283.023438 140.601562 282.824219 140.398438 C 282.675781 140.199219 282.449219 140.023438 282.148438 139.875 C 281.898438 139.773438 281.550781 139.648438 281.101562 139.5 C 280.550781 139.351562 280.101562 139.199219 279.75 139.050781 C 279.398438 138.898438 279.125 138.648438 278.925781 138.300781 C 278.675781 137.949219 278.550781 137.5 278.550781 136.949219 C 278.550781 136.148438 278.824219 135.5 279.375 135 C 279.875 134.5 280.675781 134.25 281.773438 134.25 C 282.523438 134.25 283.300781 134.425781 284.101562 134.773438 L 283.800781 135.824219 C 283.050781 135.523438 282.375 135.375 281.773438 135.375 C 281.175781 135.375 280.699219 135.5 280.351562 135.75 C 280.050781 136 279.898438 136.324219 279.898438 136.726562 C 279.898438 137.074219 279.976562 137.351562 280.125 137.550781 C 280.324219 137.75 280.550781 137.925781 280.800781 138.074219 C 281.050781 138.175781 281.375 138.300781 281.773438 138.449219 C 282.375 138.601562 282.851562 138.773438 283.199219 138.976562 C 283.5 139.175781 283.773438 139.449219 284.023438 139.800781 C 284.273438 140.148438 284.398438 140.625 284.398438 141.226562 C 284.398438 142.125 284.101562 142.800781 283.5 143.25 C 282.949219 143.75 282.175781 144 281.175781 144 C 280.625 144 280.148438 143.925781 279.75 143.773438 C 279.300781 143.675781 278.824219 143.523438 278.324219 143.324219 L 278.699219 142.199219 "/>
<path style=" stroke:none;fill-rule:nonzero;fill:rgb(0%,0%,100%);fill-opacity:1;" d="M 338.398438 142.351562 L 341.476562 147.375 C 341.675781 147.726562 341.949219 148.199219 342.300781 148.800781 C 342.601562 149.398438 342.773438 149.699219 342.824219 149.699219 L 342.824219 142.351562 L 344.101562 142.351562 L 344.101562 151.875 L 342.75 151.875 L 339.449219 146.324219 C 339.199219 145.925781 338.925781 145.476562 338.625 144.976562 C 338.375 144.476562 338.199219 144.148438 338.101562 144 L 338.101562 151.875 L 336.898438 151.875 L 336.898438 142.351562 L 338.398438 142.351562 "/>
<path style=" stroke:none;fill-rule:nonzero;fill:rgb(0%,0%,100%);fill-opacity:1;" d="M 345.148438 142.351562 L 346.5 142.351562 L 346.5 146.398438 L 351.300781 146.398438 L 351.300781 142.351562 L 352.574219 142.351562 L 352.574219 151.875 L 351.300781 151.875 L 351.300781 147.449219 L 346.5 147.449219 L 346.5 151.875 L 345.148438 151.875 L 345.148438 142.351562 "/>
<path style=" stroke:none;fill-rule:nonzero;fill:rgb(0%,0%,100%);fill-opacity:1;" d="M 353.773438 151.5 C 353.925781 151.101562 354.175781 150.800781 354.523438 150.601562 C 354.875 150.398438 355.324219 150.300781 355.875 150.300781 C 356.476562 150.300781 356.949219 150.449219 357.300781 150.75 C 357.648438 151.101562 357.824219 151.574219 357.824219 152.175781 C 357.824219 152.824219 357.601562 153.425781 357.148438 153.976562 C 356.699219 154.574219 356 155.199219 355.050781 155.851562 L 357.976562 155.851562 L 357.976562 156.601562 L 353.773438 156.601562 L 353.773438 156 C 354.523438 155.449219 355.125 154.976562 355.574219 154.574219 C 356.074219 154.125 356.425781 153.726562 356.625 153.375 C 356.875 153.023438 357 152.648438 357 152.25 C 357 151.851562 356.898438 151.523438 356.699219 151.273438 C 356.5 151.074219 356.226562 150.976562 355.875 150.976562 C 355.523438 150.976562 355.226562 151.050781 354.976562 151.199219 C 354.773438 151.300781 354.601562 151.5 354.449219 151.800781 L 353.773438 151.5 "/>
<path style=" stroke:none;fill-rule:nonzero;fill:rgb(0%,0%,100%);fill-opacity:1;" d="M 297.074219 185.398438 L 300.148438 190.425781 C 300.351562 190.773438 300.625 191.25 300.976562 191.851562 C 301.324219 192.449219 301.5 192.75 301.5 192.75 L 301.5 185.398438 L 302.773438 185.398438 L 302.773438 194.851562 L 301.425781 194.851562 L 298.125 189.375 C 297.875 188.976562 297.601562 188.523438 297.300781 188.023438 C 297.050781 187.523438 296.875 187.199219 296.773438 187.050781 L 296.773438 194.851562 L 295.574219 194.851562 L 295.574219 185.398438 L 297.074219 185.398438 "/>
<path style=" stroke:none;fill-rule:nonzero;fill:rgb(80%,80%,0%);fill-opacity:1;" d="M 126 238.726562 C 126.101562 238.726562 126.273438 238.800781 126.523438 238.949219 C 126.824219 239.050781 127.148438 239.148438 127.5 239.25 C 127.800781 239.300781 128.125 239.324219 128.476562 239.324219 C 129.074219 239.324219 129.550781 239.199219 129.898438 238.949219 C 130.25 238.648438 130.425781 238.25 130.425781 237.75 C 130.425781 237.398438 130.324219 237.101562 130.125 236.851562 C 129.976562 236.648438 129.75 236.5 129.449219 236.398438 C 129.199219 236.25 128.851562 236.125 128.398438 236.023438 C 127.851562 235.824219 127.398438 235.648438 127.050781 235.5 C 126.699219 235.351562 126.425781 235.101562 126.226562 234.75 C 125.976562 234.398438 125.851562 233.949219 125.851562 233.398438 C 125.851562 232.601562 126.125 231.949219 126.675781 231.449219 C 127.226562 230.949219 128.023438 230.699219 129.074219 230.699219 C 129.824219 230.699219 130.601562 230.875 131.398438 231.226562 L 131.101562 232.273438 C 130.351562 231.976562 129.699219 231.824219 129.148438 231.824219 C 128.5 231.824219 128 231.949219 127.648438 232.199219 C 127.351562 232.449219 127.199219 232.800781 127.199219 233.25 C 127.199219 233.550781 127.273438 233.824219 127.425781 234.074219 C 127.625 234.273438 127.851562 234.425781 128.101562 234.523438 C 128.351562 234.625 128.699219 234.75 129.148438 234.898438 C 129.699219 235.101562 130.148438 235.273438 130.5 235.425781 C 130.851562 235.625 131.125 235.898438 131.324219 236.25 C 131.574219 236.601562 131.699219 237.101562 131.699219 237.75 C 131.699219 238.601562 131.425781 239.25 130.875 239.699219 C 130.273438 240.199219 129.5 240.449219 128.550781 240.449219 C 127.949219 240.449219 127.449219 240.375 127.050781 240.226562 C 126.601562 240.125 126.125 239.976562 125.625 239.773438 L 126 238.726562 "/>
<path style=" stroke:none;fill-rule:nonzero;fill:rgb(0%,0%,0%);fill-opacity:1;" d="M 163.800781 218.324219 L 165.074219 218.324219 L 165.074219 222.375 L 169.949219 222.375 L 169.949219 218.324219 L 171.226562 218.324219 L 171.226562 227.851562 L 169.949219 227.851562 L 169.949219 223.425781 L 165.074219 223.425781 L 165.074219 227.851562 L 163.800781 227.851562 L 163.800781 218.324219 "/>
</g>
</svg>
