<?xml version="1.0" encoding="UTF-8"?>
<svg xmlns="http://www.w3.org/2000/svg" xmlns:xlink="http://www.w3.org/1999/xlink" width="375pt" height="375pt" viewBox="0 0 375 375" version="1.1">
<g id="surface144">
<rect x="0" y="0" width="375" height="375" style="fill:rgb(100%,100%,100%);fill-opacity:1;stroke:none;"/>
<path style="fill:none;stroke-width:1;stroke-linecap:butt;stroke-linejoin:miter;stroke:rgb(0%,0%,0%);stroke-opacity:1;stroke-miterlimit:4;" d="M 122.098958 271.598958 L 121.5 271.302083 " transform="matrix(0.75,0,0,0.75,0,0)"/>
<path style="fill:none;stroke-width:1;stroke-linecap:butt;stroke-linejoin:miter;stroke:rgb(0%,0%,0%);stroke-opacity:1;stroke-miterlimit:4;" d="M 120.901042 274.697917 L 119.697917 274.098958 " transform="matrix(0.75,0,0,0.75,0,0)"/>
<path style="fill:none;stroke-width:1;stroke-linecap:butt;stroke-linejoin:miter;stroke:rgb(0%,0%,0%);stroke-opacity:1;stroke-miterlimit:4;" d="M 119.598958 277.802083 L 117.802083 276.901042 " transform="matrix(0.75,0,0,0.75,0,0)"/>
<path style="fill:none;stroke-width:1;stroke-linecap:butt;stroke-linejoin:miter;stroke:rgb(0%,0%,0%);stroke-opacity:1;stroke-miterlimit:4;" d="M 118.302083 281 L 116 279.697917 " transform="matrix(0.75,0,0,0.75,0,0)"/>
<path style="fill:none;stroke-width:1;stroke-linecap:butt;stroke-linejoin:miter;stroke:rgb(0%,0%,100%);stroke-opacity:1;stroke-miterlimit:4;" d="M 117.098958 284.098958 L 114.197917 282.598958 " transform="matrix(0.75,0,0,0.75,0,0)"/>
<path style="fill:none;stroke-width:1;stroke-linecap:butt;stroke-linejoin:miter;stroke:rgb(0%,0%,100%);stroke-opacity:1;stroke-miterlimit:4;" d="M 115.802083 287.197917 L 112.302083 285.401042 " transform="matrix(0.75,0,0,0.75,0,0)"/>
<path style="fill:none;stroke-width:1;stroke-linecap:butt;stroke-linejoin:miter;stroke:rgb(0%,0%,100%);stroke-opacity:1;stroke-miterlimit:4;" d="M 114.5 290.302083 L 110.5 288.197917 " transform="matrix(0.75,0,0,0.75,0,0)"/>
<path style="fill:none;stroke-width:1;stroke-linecap:butt;stroke-linejoin:miter;stroke:rgb(0%,0%,100%);stroke-opacity:1;stroke-miterlimit:4;" d="M 113.302083 293.5 L 108.598958 291 " transform="matrix(0.75,0,0,0.75,0,0)"/>
<path style="fill:none;stroke-width:1;stroke-linecap:butt;stroke-linejoin:miter;stroke:rgb(0%,0%,100%);stroke-opacity:1;stroke-miterlimit:4;" d="M 112 296.598958 L 106.802083 293.802083 " transform="matrix(0.75,0,0,0.75,0,0)"/>
<path style="fill:none;stroke-width:2;stroke-linecap:butt;stroke-linejoin:miter;stroke:rgb(0%,0%,0%);stroke-opacity:1;stroke-miterlimit:4;" d="M 123.401042 268.5 L 162.802083 266.802083 " transform="matrix(0.75,0,0,0.75,0,0)"/>
<path style="fill:none;stroke-width:2;stroke-linecap:butt;stroke-linejoin:miter;stroke:rgb(0%,0%,0%);stroke-opacity:1;stroke-miterlimit:4;" d="M 164.598958 269.697917 L 172.302083 255 " transform="matrix(0.75,0,0,0.75,0,0)"/>
<path style="fill:none;stroke-width:2;stroke-linecap:butt;stroke-linejoin:miter;stroke:rgb(100%,0%,0%);stroke-opacity:1;stroke-miterlimit:4;" d="M 172.302083 255 L 180 240.401042 " transform="matrix(0.75,0,0,0.75,0,0)"/>
<path style="fill:none;stroke-width:2;stroke-linecap:butt;stroke-linejoin:miter;stroke:rgb(0%,0%,0%);stroke-opacity:1;stroke-miterlimit:4;" d="M 159.401042 267 L 167.098958 252.302083 " transform="matrix(0.75,0,0,0.75,0,0)"/>
<path style="fill:none;stroke-width:2;stroke-linecap:butt;stroke-linejoin:miter;stroke:rgb(100%,0%,0%);stroke-opacity:1;stroke-miterlimit:4;" d="M 167.098958 252.302083 L 174.697917 237.598958 " transform="matrix(0.75,0,0,0.75,0,0)"/>
<path style="fill:none;stroke-width:2;stroke-linecap:butt;stroke-linejoin:miter;stroke:rgb(0%,0%,0%);stroke-opacity:1;stroke-miterlimit:4;" d="M 162.802083 266.802083 L 171.197917 280 " transform="matrix(0.75,0,0,0.75,0,0)"/>
<path style="fill:none;stroke-width:2;stroke-linecap:butt;stroke-linejoin:miter;stroke:rgb(0%,0%,100%);stroke-opacity:1;stroke-miterlimit:4;" d="M 171.197917 280 L 179.598958 293.197917 " transform="matrix(0.75,0,0,0.75,0,0)"/>
<path style="fill-rule:evenodd;fill:rgb(0%,0%,0%);fill-opacity:1;stroke-width:0.5;stroke-linecap:butt;stroke-linejoin:miter;stroke:rgb(0%,0%,0%);stroke-opacity:1;stroke-miterlimit:4;" d="M 223.302083 298.5 L 207.098958 300.598958 L 207 297.697917 Z M 223.302083 298.5 " transform="matrix(0.75,0,0,0.75,0,0)"/>
<path style="fill-rule:evenodd;fill:rgb(0%,0%,100%);fill-opacity:1;stroke-width:0.5;stroke-linecap:butt;stroke-linejoin:miter;stroke:rgb(0%,0%,100%);stroke-opacity:1;stroke-miterlimit:4;" d="M 207.098958 300.598958 L 190.598958 296.901042 L 190.901042 302.802083 Z M 207.098958 300.598958 " transform="matrix(0.75,0,0,0.75,0,0)"/>
<path style="fill-rule:evenodd;fill:rgb(0%,0%,100%);fill-opacity:1;stroke-width:0.5;stroke-linecap:butt;stroke-linejoin:miter;stroke:rgb(0%,0%,100%);stroke-opacity:1;stroke-miterlimit:4;" d="M 207.098958 300.598958 L 207 297.697917 L 190.598958 296.901042 Z M 207.098958 300.598958 " transform="matrix(0.75,0,0,0.75,0,0)"/>
<path style="fill:none;stroke-width:2;stroke-linecap:butt;stroke-linejoin:miter;stroke:rgb(0%,0%,0%);stroke-opacity:1;stroke-miterlimit:4;" d="M 223.302083 298.5 L 252.401042 325.197917 " transform="matrix(0.75,0,0,0.75,0,0)"/>
<path style="fill:none;stroke-width:2;stroke-linecap:butt;stroke-linejoin:miter;stroke:rgb(0%,0%,0%);stroke-opacity:1;stroke-miterlimit:4;" d="M 249.302083 322.401042 L 250 340.098958 " transform="matrix(0.75,0,0,0.75,0,0)"/>
<path style="fill:none;stroke-width:2;stroke-linecap:butt;stroke-linejoin:miter;stroke:rgb(100%,0%,0%);stroke-opacity:1;stroke-miterlimit:4;" d="M 250 340.098958 L 250.697917 357.802083 " transform="matrix(0.75,0,0,0.75,0,0)"/>
<path style="fill:none;stroke-width:2;stroke-linecap:butt;stroke-linejoin:miter;stroke:rgb(0%,0%,0%);stroke-opacity:1;stroke-miterlimit:4;" d="M 255.197917 322.098958 L 255.901042 339.802083 " transform="matrix(0.75,0,0,0.75,0,0)"/>
<path style="fill:none;stroke-width:2;stroke-linecap:butt;stroke-linejoin:miter;stroke:rgb(100%,0%,0%);stroke-opacity:1;stroke-miterlimit:4;" d="M 255.901042 339.802083 L 256.697917 357.5 " transform="matrix(0.75,0,0,0.75,0,0)"/>
<path style="fill:none;stroke-width:2;stroke-linecap:butt;stroke-linejoin:miter;stroke:rgb(0%,0%,0%);stroke-opacity:1;stroke-miterlimit:4;" d="M 252.401042 325.197917 L 262.901042 313.697917 " transform="matrix(0.75,0,0,0.75,0,0)"/>
<path style="fill:none;stroke-width:2;stroke-linecap:butt;stroke-linejoin:miter;stroke:rgb(0%,0%,100%);stroke-opacity:1;stroke-miterlimit:4;" d="M 262.901042 313.697917 L 273.5 302.197917 " transform="matrix(0.75,0,0,0.75,0,0)"/>
<path style="fill:none;stroke-width:2;stroke-linecap:butt;stroke-linejoin:miter;stroke:rgb(0%,0%,100%);stroke-opacity:1;stroke-miterlimit:4;" d="M 284.598958 294.401042 L 300.697917 289.401042 " transform="matrix(0.75,0,0,0.75,0,0)"/>
<path style="fill:none;stroke-width:2;stroke-linecap:butt;stroke-linejoin:miter;stroke:rgb(0%,0%,0%);stroke-opacity:1;stroke-miterlimit:4;" d="M 300.697917 289.401042 L 316.697917 284.401042 " transform="matrix(0.75,0,0,0.75,0,0)"/>
<path style="fill:none;stroke-width:2;stroke-linecap:butt;stroke-linejoin:miter;stroke:rgb(0%,0%,0%);stroke-opacity:1;stroke-miterlimit:4;" d="M 316.697917 284.401042 L 345.697917 311.098958 " transform="matrix(0.75,0,0,0.75,0,0)"/>
<path style="fill:none;stroke-width:2;stroke-linecap:butt;stroke-linejoin:miter;stroke:rgb(0%,0%,0%);stroke-opacity:1;stroke-miterlimit:4;" d="M 343.197917 308.802083 L 339.5 325.401042 " transform="matrix(0.75,0,0,0.75,0,0)"/>
<path style="fill:none;stroke-width:2;stroke-linecap:butt;stroke-linejoin:miter;stroke:rgb(100%,0%,0%);stroke-opacity:1;stroke-miterlimit:4;" d="M 339.5 325.401042 L 335.802083 342 " transform="matrix(0.75,0,0,0.75,0,0)"/>
<path style="fill:none;stroke-width:2;stroke-linecap:butt;stroke-linejoin:miter;stroke:rgb(0%,0%,0%);stroke-opacity:1;stroke-miterlimit:4;" d="M 349 310.098958 L 345.302083 326.697917 " transform="matrix(0.75,0,0,0.75,0,0)"/>
<path style="fill:none;stroke-width:2;stroke-linecap:butt;stroke-linejoin:miter;stroke:rgb(100%,0%,0%);stroke-opacity:1;stroke-miterlimit:4;" d="M 345.302083 326.697917 L 341.598958 343.302083 " transform="matrix(0.75,0,0,0.75,0,0)"/>
<path style="fill:none;stroke-width:2;stroke-linecap:butt;stroke-linejoin:miter;stroke:rgb(0%,0%,0%);stroke-opacity:1;stroke-miterlimit:4;" d="M 345.697917 311.098958 L 361.302083 306.197917 " transform="matrix(0.75,0,0,0.75,0,0)"/>
<path style="fill:none;stroke-width:2;stroke-linecap:butt;stroke-linejoin:miter;stroke:rgb(100%,0%,0%);stroke-opacity:1;stroke-miterlimit:4;" d="M 361.302083 306.197917 L 376.901042 301.302083 " transform="matrix(0.75,0,0,0.75,0,0)"/>
<path style="fill:none;stroke-width:2;stroke-linecap:butt;stroke-linejoin:miter;stroke:rgb(0%,0%,0%);stroke-opacity:1;stroke-miterlimit:4;" d="M 316.697917 284.401042 L 325.302083 245.901042 " transform="matrix(0.75,0,0,0.75,0,0)"/>
<path style="fill:none;stroke-width:2;stroke-linecap:butt;stroke-linejoin:miter;stroke:rgb(0%,0%,0%);stroke-opacity:1;stroke-miterlimit:4;" d="M 311.697917 279.802083 L 318.802083 247.901042 " transform="matrix(0.75,0,0,0.75,0,0)"/>
<path style="fill:none;stroke-width:2;stroke-linecap:butt;stroke-linejoin:miter;stroke:rgb(0%,0%,0%);stroke-opacity:1;stroke-miterlimit:4;" d="M 325.302083 245.901042 L 363 234.098958 " transform="matrix(0.75,0,0,0.75,0,0)"/>
<path style="fill:none;stroke-width:2;stroke-linecap:butt;stroke-linejoin:miter;stroke:rgb(0%,0%,0%);stroke-opacity:1;stroke-miterlimit:4;" d="M 363 234.098958 L 366.5 218.5 " transform="matrix(0.75,0,0,0.75,0,0)"/>
<path style="fill:none;stroke-width:2;stroke-linecap:butt;stroke-linejoin:miter;stroke:rgb(80%,80%,0%);stroke-opacity:1;stroke-miterlimit:4;" d="M 366.5 218.5 L 370 202.802083 " transform="matrix(0.75,0,0,0.75,0,0)"/>
<path style="fill:none;stroke-width:2;stroke-linecap:butt;stroke-linejoin:miter;stroke:rgb(80%,80%,0%);stroke-opacity:1;stroke-miterlimit:4;" d="M 376.5 194.098958 L 392.802083 189 " transform="matrix(0.75,0,0,0.75,0,0)"/>
<path style="fill:none;stroke-width:2;stroke-linecap:butt;stroke-linejoin:miter;stroke:rgb(0%,0%,0%);stroke-opacity:1;stroke-miterlimit:4;" d="M 392.802083 189 L 409.197917 183.802083 " transform="matrix(0.75,0,0,0.75,0,0)"/>
<path style="fill:none;stroke-width:2;stroke-linecap:butt;stroke-linejoin:miter;stroke:rgb(0%,0%,0%);stroke-opacity:1;stroke-miterlimit:4;" d="M 409.197917 183.802083 L 421.802083 146.5 " transform="matrix(0.75,0,0,0.75,0,0)"/>
<path style="fill:none;stroke-width:2;stroke-linecap:butt;stroke-linejoin:miter;stroke:rgb(0%,0%,0%);stroke-opacity:1;stroke-miterlimit:4;" d="M 416.197917 181.697917 L 426 152.401042 " transform="matrix(0.75,0,0,0.75,0,0)"/>
<path style="fill:none;stroke-width:2;stroke-linecap:butt;stroke-linejoin:miter;stroke:rgb(0%,0%,0%);stroke-opacity:1;stroke-miterlimit:4;" d="M 421.802083 146.5 L 438.802083 146.598958 " transform="matrix(0.75,0,0,0.75,0,0)"/>
<path style="fill:none;stroke-width:2;stroke-linecap:butt;stroke-linejoin:miter;stroke:rgb(0%,0%,100%);stroke-opacity:1;stroke-miterlimit:4;" d="M 438.802083 146.598958 L 455.697917 146.802083 " transform="matrix(0.75,0,0,0.75,0,0)"/>
<path style="fill:none;stroke-width:2;stroke-linecap:butt;stroke-linejoin:miter;stroke:rgb(0%,0%,100%);stroke-opacity:1;stroke-miterlimit:4;" d="M 463.401042 153.802083 L 470.901042 177.598958 " transform="matrix(0.75,0,0,0.75,0,0)"/>
<path style="fill:none;stroke-width:2;stroke-linecap:butt;stroke-linejoin:miter;stroke:rgb(0%,0%,100%);stroke-opacity:1;stroke-miterlimit:4;" d="M 467.5 188.5 L 446.401042 203.401042 " transform="matrix(0.75,0,0,0.75,0,0)"/>
<path style="fill:none;stroke-width:2;stroke-linecap:butt;stroke-linejoin:miter;stroke:rgb(0%,0%,100%);stroke-opacity:1;stroke-miterlimit:4;" d="M 464.098958 183.598958 L 443 198.598958 " transform="matrix(0.75,0,0,0.75,0,0)"/>
<path style="fill:none;stroke-width:2;stroke-linecap:butt;stroke-linejoin:miter;stroke:rgb(0%,0%,0%);stroke-opacity:1;stroke-miterlimit:4;" d="M 325.302083 245.901042 L 296.302083 219.197917 " transform="matrix(0.75,0,0,0.75,0,0)"/>
<path style="fill:none;stroke-width:2;stroke-linecap:butt;stroke-linejoin:miter;stroke:rgb(0%,0%,0%);stroke-opacity:1;stroke-miterlimit:4;" d="M 296.302083 219.197917 L 279.901042 224.302083 " transform="matrix(0.75,0,0,0.75,0,0)"/>
<path style="fill:none;stroke-width:2;stroke-linecap:butt;stroke-linejoin:miter;stroke:rgb(80%,80%,0%);stroke-opacity:1;stroke-miterlimit:4;" d="M 279.901042 224.302083 L 263.5 229.401042 " transform="matrix(0.75,0,0,0.75,0,0)"/>
<path style="fill:none;stroke-width:2;stroke-linecap:butt;stroke-linejoin:miter;stroke:rgb(80%,80%,0%);stroke-opacity:1;stroke-miterlimit:4;" d="M 257 238.098958 L 253.5 253.802083 " transform="matrix(0.75,0,0,0.75,0,0)"/>
<path style="fill:none;stroke-width:2;stroke-linecap:butt;stroke-linejoin:miter;stroke:rgb(0%,0%,0%);stroke-opacity:1;stroke-miterlimit:4;" d="M 253.5 253.802083 L 250 269.5 " transform="matrix(0.75,0,0,0.75,0,0)"/>
<path style="fill:none;stroke-width:2;stroke-linecap:butt;stroke-linejoin:miter;stroke:rgb(0%,0%,0%);stroke-opacity:1;stroke-miterlimit:4;" d="M 123.401042 268.5 L 102.302083 235.098958 " transform="matrix(0.75,0,0,0.75,0,0)"/>
<path style="fill:none;stroke-width:2;stroke-linecap:butt;stroke-linejoin:miter;stroke:rgb(0%,0%,0%);stroke-opacity:1;stroke-miterlimit:4;" d="M 102.302083 235.098958 L 120.5 200.197917 " transform="matrix(0.75,0,0,0.75,0,0)"/>
<path style="fill:none;stroke-width:2;stroke-linecap:butt;stroke-linejoin:miter;stroke:rgb(0%,0%,0%);stroke-opacity:1;stroke-miterlimit:4;" d="M 98.598958 229.401042 L 113.697917 200.5 " transform="matrix(0.75,0,0,0.75,0,0)"/>
<path style="fill:none;stroke-width:2;stroke-linecap:butt;stroke-linejoin:miter;stroke:rgb(0%,0%,0%);stroke-opacity:1;stroke-miterlimit:4;" d="M 120.5 200.197917 L 99.401042 166.901042 " transform="matrix(0.75,0,0,0.75,0,0)"/>
<path style="fill:none;stroke-width:2;stroke-linecap:butt;stroke-linejoin:miter;stroke:rgb(0%,0%,0%);stroke-opacity:1;stroke-miterlimit:4;" d="M 99.401042 166.901042 L 60 168.5 " transform="matrix(0.75,0,0,0.75,0,0)"/>
<path style="fill:none;stroke-width:2;stroke-linecap:butt;stroke-linejoin:miter;stroke:rgb(0%,0%,0%);stroke-opacity:1;stroke-miterlimit:4;" d="M 96.302083 172.901042 L 63.697917 174.302083 " transform="matrix(0.75,0,0,0.75,0,0)"/>
<path style="fill:none;stroke-width:2;stroke-linecap:butt;stroke-linejoin:miter;stroke:rgb(0%,0%,0%);stroke-opacity:1;stroke-miterlimit:4;" d="M 60 168.5 L 51.697917 155.401042 " transform="matrix(0.75,0,0,0.75,0,0)"/>
<path style="fill:none;stroke-width:2;stroke-linecap:butt;stroke-linejoin:miter;stroke:rgb(100%,0%,0%);stroke-opacity:1;stroke-miterlimit:4;" d="M 51.697917 155.401042 L 43.401042 142.302083 " transform="matrix(0.75,0,0,0.75,0,0)"/>
<path style="fill:none;stroke-width:2;stroke-linecap:butt;stroke-linejoin:miter;stroke:rgb(0%,0%,0%);stroke-opacity:1;stroke-miterlimit:4;" d="M 60 168.5 L 41.697917 203.5 " transform="matrix(0.75,0,0,0.75,0,0)"/>
<path style="fill:none;stroke-width:2;stroke-linecap:butt;stroke-linejoin:miter;stroke:rgb(0%,0%,0%);stroke-opacity:1;stroke-miterlimit:4;" d="M 41.697917 203.5 L 62.901042 236.802083 " transform="matrix(0.75,0,0,0.75,0,0)"/>
<path style="fill:none;stroke-width:2;stroke-linecap:butt;stroke-linejoin:miter;stroke:rgb(0%,0%,0%);stroke-opacity:1;stroke-miterlimit:4;" d="M 48.598958 203.197917 L 66 230.697917 " transform="matrix(0.75,0,0,0.75,0,0)"/>
<path style="fill:none;stroke-width:2;stroke-linecap:butt;stroke-linejoin:miter;stroke:rgb(0%,0%,0%);stroke-opacity:1;stroke-miterlimit:4;" d="M 250 269.5 L 223.302083 298.5 " transform="matrix(0.75,0,0,0.75,0,0)"/>
<path style="fill:none;stroke-width:2;stroke-linecap:butt;stroke-linejoin:miter;stroke:rgb(0%,0%,0%);stroke-opacity:1;stroke-miterlimit:4;" d="M 62.901042 236.802083 L 102.302083 235.098958 " transform="matrix(0.75,0,0,0.75,0,0)"/>
<path style="fill:none;stroke-width:2;stroke-linecap:butt;stroke-linejoin:miter;stroke:rgb(0%,0%,0%);stroke-opacity:1;stroke-miterlimit:4;" d="M 250 269.5 L 261.802083 280.302083 " transform="matrix(0.75,0,0,0.75,0,0)"/>
<path style="fill:none;stroke-width:2;stroke-linecap:butt;stroke-linejoin:miter;stroke:rgb(0%,0%,100%);stroke-opacity:1;stroke-miterlimit:4;" d="M 261.802083 280.302083 L 273.5 291.098958 " transform="matrix(0.75,0,0,0.75,0,0)"/>
<path style="fill:none;stroke-width:2;stroke-linecap:butt;stroke-linejoin:miter;stroke:rgb(0%,0%,100%);stroke-opacity:1;stroke-miterlimit:4;" d="M 435.302083 203.197917 L 422.302083 193.5 " transform="matrix(0.75,0,0,0.75,0,0)"/>
<path style="fill:none;stroke-width:2;stroke-linecap:butt;stroke-linejoin:miter;stroke:rgb(0%,0%,0%);stroke-opacity:1;stroke-miterlimit:4;" d="M 422.302083 193.5 L 409.197917 183.802083 " transform="matrix(0.75,0,0,0.75,0,0)"/>
<path style="fill:none;stroke-width:1;stroke-linecap:butt;stroke-linejoin:miter;stroke:rgb(0%,0%,0%);stroke-opacity:1;stroke-miterlimit:4;" d="M 246.802083 268.098958 L 247.098958 267.5 " transform="matrix(0.75,0,0,0.75,0,0)"/>
<path style="fill:none;stroke-width:1;stroke-linecap:butt;stroke-linejoin:miter;stroke:rgb(0%,0%,0%);stroke-opacity:1;stroke-miterlimit:4;" d="M 243.5 266.802083 L 244.098958 265.598958 " transform="matrix(0.75,0,0,0.75,0,0)"/>
<path style="fill:none;stroke-width:1;stroke-linecap:butt;stroke-linejoin:miter;stroke:rgb(0%,0%,0%);stroke-opacity:1;stroke-miterlimit:4;" d="M 240.302083 265.5 L 241.197917 263.697917 " transform="matrix(0.75,0,0,0.75,0,0)"/>
<path style="fill:none;stroke-width:1;stroke-linecap:butt;stroke-linejoin:miter;stroke:rgb(0%,0%,0%);stroke-opacity:1;stroke-miterlimit:4;" d="M 237 264.098958 L 238.197917 261.802083 " transform="matrix(0.75,0,0,0.75,0,0)"/>
<path style="fill:none;stroke-width:1;stroke-linecap:butt;stroke-linejoin:miter;stroke:rgb(0%,0%,0%);stroke-opacity:1;stroke-miterlimit:4;" d="M 233.697917 262.802083 L 235.302083 259.901042 " transform="matrix(0.75,0,0,0.75,0,0)"/>
<path style="fill:none;stroke-width:1;stroke-linecap:butt;stroke-linejoin:miter;stroke:rgb(0%,0%,0%);stroke-opacity:1;stroke-miterlimit:4;" d="M 230.5 261.5 L 232.302083 258 " transform="matrix(0.75,0,0,0.75,0,0)"/>
<path style="fill:none;stroke-width:1;stroke-linecap:butt;stroke-linejoin:miter;stroke:rgb(0%,0%,0%);stroke-opacity:1;stroke-miterlimit:4;" d="M 227.197917 260.098958 L 229.302083 256 " transform="matrix(0.75,0,0,0.75,0,0)"/>
<path style="fill:none;stroke-width:1;stroke-linecap:butt;stroke-linejoin:miter;stroke:rgb(0%,0%,0%);stroke-opacity:1;stroke-miterlimit:4;" d="M 223.901042 258.802083 L 226.401042 254.098958 " transform="matrix(0.75,0,0,0.75,0,0)"/>
<path style="fill:none;stroke-width:1;stroke-linecap:butt;stroke-linejoin:miter;stroke:rgb(0%,0%,0%);stroke-opacity:1;stroke-miterlimit:4;" d="M 220.697917 257.401042 L 223.401042 252.197917 " transform="matrix(0.75,0,0,0.75,0,0)"/>
<path style="fill:none;stroke-width:2;stroke-linecap:butt;stroke-linejoin:miter;stroke:rgb(0%,0%,0%);stroke-opacity:1;stroke-miterlimit:4;" d="M 125.401042 268.401042 L 123.401042 268.5 L 122.302083 266.802083 " transform="matrix(0.75,0,0,0.75,0,0)"/>
<path style="fill:none;stroke-width:2;stroke-linecap:butt;stroke-linejoin:miter;stroke:rgb(0%,0%,0%);stroke-opacity:1;stroke-miterlimit:4;" d="M 160.802083 266.901042 L 162.802083 266.802083 L 163.197917 267.5 " transform="matrix(0.75,0,0,0.75,0,0)"/>
<path style="fill:none;stroke-width:2;stroke-linecap:butt;stroke-linejoin:miter;stroke:rgb(0%,0%,0%);stroke-opacity:1;stroke-miterlimit:4;" d="M 224.802083 299.802083 L 223.302083 298.5 L 224.697917 297 " transform="matrix(0.75,0,0,0.75,0,0)"/>
<path style="fill:none;stroke-width:2;stroke-linecap:butt;stroke-linejoin:miter;stroke:rgb(0%,0%,0%);stroke-opacity:1;stroke-miterlimit:4;" d="M 250.901042 323.901042 L 252.401042 325.197917 L 252.901042 324.598958 " transform="matrix(0.75,0,0,0.75,0,0)"/>
<path style="fill:none;stroke-width:2;stroke-linecap:butt;stroke-linejoin:miter;stroke:rgb(0%,0%,0%);stroke-opacity:1;stroke-miterlimit:4;" d="M 344.302083 309.802083 L 345.697917 311.098958 L 346.5 310.802083 " transform="matrix(0.75,0,0,0.75,0,0)"/>
<path style="fill:none;stroke-width:2;stroke-linecap:butt;stroke-linejoin:miter;stroke:rgb(0%,0%,0%);stroke-opacity:1;stroke-miterlimit:4;" d="M 361.098958 234.697917 L 363 234.098958 L 363.098958 233.302083 " transform="matrix(0.75,0,0,0.75,0,0)"/>
<path style="fill:none;stroke-width:2;stroke-linecap:butt;stroke-linejoin:miter;stroke:rgb(0%,0%,0%);stroke-opacity:1;stroke-miterlimit:4;" d="M 421.197917 148.302083 L 421.802083 146.5 L 422.697917 146.5 " transform="matrix(0.75,0,0,0.75,0,0)"/>
<path style="fill:none;stroke-width:2;stroke-linecap:butt;stroke-linejoin:miter;stroke:rgb(0%,0%,0%);stroke-opacity:1;stroke-miterlimit:4;" d="M 297.697917 220.5 L 296.302083 219.197917 L 295.5 219.401042 " transform="matrix(0.75,0,0,0.75,0,0)"/>
<path style="fill:none;stroke-width:2;stroke-linecap:butt;stroke-linejoin:miter;stroke:rgb(0%,0%,0%);stroke-opacity:1;stroke-miterlimit:4;" d="M 119.598958 201.901042 L 120.5 200.197917 L 119.5 198.5 " transform="matrix(0.75,0,0,0.75,0,0)"/>
<path style="fill:none;stroke-width:2;stroke-linecap:butt;stroke-linejoin:miter;stroke:rgb(0%,0%,0%);stroke-opacity:1;stroke-miterlimit:4;" d="M 100.5 168.598958 L 99.401042 166.901042 L 97.401042 167 " transform="matrix(0.75,0,0,0.75,0,0)"/>
<path style="fill:none;stroke-width:2;stroke-linecap:butt;stroke-linejoin:miter;stroke:rgb(0%,0%,0%);stroke-opacity:1;stroke-miterlimit:4;" d="M 42.598958 201.697917 L 41.697917 203.5 L 42.802083 205.098958 " transform="matrix(0.75,0,0,0.75,0,0)"/>
<path style="fill:none;stroke-width:2;stroke-linecap:butt;stroke-linejoin:miter;stroke:rgb(0%,0%,0%);stroke-opacity:1;stroke-miterlimit:4;" d="M 61.802083 235.098958 L 62.901042 236.802083 L 64.802083 236.697917 " transform="matrix(0.75,0,0,0.75,0,0)"/>
<path style=" stroke:none;fill-rule:nonzero;fill:rgb(0%,0%,100%);fill-opacity:1;" d="M 62.625 223.351562 L 63.824219 223.351562 L 63.824219 226.949219 L 68.101562 226.949219 L 68.101562 223.351562 L 69.226562 223.351562 L 69.226562 231.75 L 68.101562 231.75 L 68.101562 227.851562 L 63.824219 227.851562 L 63.824219 231.75 L 62.625 231.75 L 62.625 223.351562 "/>
<path style=" stroke:none;fill-rule:nonzero;fill:rgb(0%,0%,100%);fill-opacity:1;" d="M 70.875 231.449219 C 70.976562 231.101562 71.199219 230.824219 71.550781 230.625 C 71.851562 230.425781 72.226562 230.324219 72.675781 230.324219 C 73.226562 230.324219 73.675781 230.476562 74.023438 230.773438 C 74.324219 231.074219 74.476562 231.5 74.476562 232.050781 C 74.476562 232.601562 74.273438 233.125 73.875 233.625 C 73.476562 234.125 72.851562 234.675781 72 235.273438 L 74.550781 235.273438 L 74.550781 235.949219 L 70.800781 235.949219 L 70.800781 235.425781 C 71.5 234.925781 72.050781 234.5 72.449219 234.148438 C 72.898438 233.75 73.226562 233.398438 73.425781 233.101562 C 73.574219 232.75 73.648438 232.425781 73.648438 232.125 C 73.648438 231.726562 73.574219 231.449219 73.425781 231.300781 C 73.226562 231.101562 72.976562 231 72.675781 231 C 72.375 231 72.125 231.050781 71.925781 231.148438 C 71.726562 231.25 71.574219 231.449219 71.476562 231.75 L 70.875 231.449219 "/>
<path style=" stroke:none;fill-rule:nonzero;fill:rgb(0%,0%,100%);fill-opacity:1;" d="M 76.949219 223.351562 L 79.726562 227.773438 C 79.925781 228.074219 80.148438 228.5 80.398438 229.050781 C 80.699219 229.550781 80.875 229.824219 80.925781 229.875 L 80.925781 223.351562 L 81.976562 223.351562 L 81.976562 231.75 L 80.851562 231.75 L 77.925781 226.875 C 77.675781 226.523438 77.425781 226.125 77.175781 225.675781 C 76.976562 225.226562 76.824219 224.949219 76.726562 224.851562 L 76.726562 231.75 L 75.675781 231.75 L 75.675781 223.351562 L 76.949219 223.351562 "/>
<path style=" stroke:none;fill-rule:nonzero;fill:rgb(100%,0%,0%);fill-opacity:1;" d="M 132 173.925781 C 132 172.574219 132.324219 171.523438 132.976562 170.773438 C 133.625 170.023438 134.574219 169.648438 135.824219 169.648438 C 137.074219 169.648438 138.023438 170.023438 138.675781 170.773438 C 139.324219 171.523438 139.648438 172.574219 139.648438 173.925781 C 139.648438 175.273438 139.324219 176.351562 138.675781 177.148438 C 137.976562 177.898438 137.023438 178.273438 135.824219 178.273438 C 134.574219 178.273438 133.625 177.898438 132.976562 177.148438 C 132.324219 176.351562 132 175.273438 132 173.925781 M 135.824219 177.300781 C 136.675781 177.300781 137.324219 177.023438 137.773438 176.476562 C 138.226562 175.875 138.449219 175.023438 138.449219 173.925781 C 138.449219 172.824219 138.226562 172 137.773438 171.449219 C 137.324219 170.898438 136.675781 170.625 135.824219 170.625 C 134.976562 170.625 134.300781 170.898438 133.800781 171.449219 C 133.351562 172 133.125 172.824219 133.125 173.925781 C 133.125 175.074219 133.351562 175.925781 133.800781 176.476562 C 134.300781 177.023438 134.976562 177.300781 135.824219 177.300781 "/>
<path style=" stroke:none;fill-rule:nonzero;fill:rgb(0%,0%,100%);fill-opacity:1;" d="M 126.523438 220.875 L 127.726562 220.875 L 127.726562 224.476562 L 132 224.476562 L 132 220.875 L 133.125 220.875 L 133.125 229.273438 L 132 229.273438 L 132 225.449219 L 127.726562 225.449219 L 127.726562 229.273438 L 126.523438 229.273438 L 126.523438 220.875 "/>
<path style=" stroke:none;fill-rule:nonzero;fill:rgb(0%,0%,100%);fill-opacity:1;" d="M 136.125 220.875 L 138.824219 225.375 C 139.023438 225.625 139.273438 226.023438 139.574219 226.574219 C 139.824219 227.125 139.976562 227.398438 140.023438 227.398438 L 140.023438 220.875 L 141.148438 220.875 L 141.148438 229.273438 L 139.949219 229.273438 L 137.023438 224.398438 C 136.773438 224.050781 136.550781 223.648438 136.351562 223.199219 C 136.101562 222.800781 135.925781 222.523438 135.824219 222.375 L 135.824219 229.273438 L 134.773438 229.273438 L 134.773438 220.875 L 136.125 220.875 "/>
<path style=" stroke:none;fill-rule:nonzero;fill:rgb(100%,0%,0%);fill-opacity:1;" d="M 186.675781 273.449219 C 186.675781 272.148438 187 271.125 187.648438 270.375 C 188.300781 269.625 189.25 269.25 190.5 269.25 C 191.75 269.25 192.699219 269.625 193.351562 270.375 C 194 271.125 194.324219 272.148438 194.324219 273.449219 C 194.324219 274.851562 194 275.925781 193.351562 276.675781 C 192.648438 277.425781 191.699219 277.800781 190.5 277.800781 C 189.25 277.800781 188.300781 277.425781 187.648438 276.675781 C 187 275.925781 186.675781 274.851562 186.675781 273.449219 M 190.5 276.898438 C 191.351562 276.898438 192 276.601562 192.449219 276 C 192.898438 275.449219 193.125 274.601562 193.125 273.449219 C 193.125 272.351562 192.898438 271.523438 192.449219 270.976562 C 192 270.425781 191.351562 270.148438 190.5 270.148438 C 189.648438 270.148438 189 270.425781 188.550781 270.976562 C 188.050781 271.523438 187.800781 272.351562 187.800781 273.449219 C 187.800781 274.601562 188.050781 275.449219 188.550781 276 C 189 276.601562 189.648438 276.898438 190.5 276.898438 "/>
<path style=" stroke:none;fill-rule:nonzero;fill:rgb(0%,0%,100%);fill-opacity:1;" d="M 207.449219 217.949219 L 210.226562 222.375 C 210.375 222.675781 210.601562 223.074219 210.898438 223.574219 C 211.199219 224.125 211.351562 224.425781 211.351562 224.476562 L 211.351562 217.949219 L 212.476562 217.949219 L 212.476562 226.351562 L 211.351562 226.351562 L 208.351562 221.476562 C 208.148438 221.074219 207.925781 220.675781 207.675781 220.273438 C 207.425781 219.824219 207.273438 219.523438 207.226562 219.375 L 207.226562 226.351562 L 206.101562 226.351562 L 206.101562 217.949219 L 207.449219 217.949219 "/>
<path style=" stroke:none;fill-rule:nonzero;fill:rgb(100%,0%,0%);fill-opacity:1;" d="M 249 262.199219 C 249 260.851562 249.324219 259.800781 249.976562 259.050781 C 250.625 258.300781 251.574219 257.925781 252.824219 257.925781 C 254.074219 257.925781 255.023438 258.300781 255.675781 259.050781 C 256.324219 259.800781 256.648438 260.851562 256.648438 262.199219 C 256.648438 263.550781 256.324219 264.625 255.675781 265.425781 C 255.023438 266.175781 254.074219 266.550781 252.824219 266.550781 C 251.625 266.550781 250.675781 266.175781 249.976562 265.425781 C 249.324219 264.625 249 263.550781 249 262.199219 M 252.824219 265.574219 C 253.675781 265.574219 254.324219 265.300781 254.773438 264.75 C 255.273438 264.199219 255.523438 263.351562 255.523438 262.199219 C 255.523438 261.101562 255.273438 260.273438 254.773438 259.726562 C 254.324219 259.175781 253.675781 258.898438 252.824219 258.898438 C 251.976562 258.898438 251.324219 259.175781 250.875 259.726562 C 250.425781 260.273438 250.199219 261.101562 250.199219 262.199219 C 250.199219 263.351562 250.425781 264.199219 250.875 264.75 C 251.324219 265.300781 251.976562 265.574219 252.824219 265.574219 "/>
<path style=" stroke:none;fill-rule:nonzero;fill:rgb(100%,0%,0%);fill-opacity:1;" d="M 283.648438 224.476562 C 283.648438 223.175781 284 222.148438 284.699219 221.398438 C 285.351562 220.648438 286.300781 220.273438 287.550781 220.273438 C 288.75 220.273438 289.699219 220.648438 290.398438 221.398438 C 291.050781 222.148438 291.375 223.175781 291.375 224.476562 C 291.375 225.875 291.050781 226.949219 290.398438 227.699219 C 289.699219 228.449219 288.75 228.824219 287.550781 228.824219 C 286.300781 228.824219 285.351562 228.449219 284.699219 227.699219 C 284 226.949219 283.648438 225.875 283.648438 224.476562 M 287.550781 227.925781 C 288.398438 227.925781 289.050781 227.625 289.5 227.023438 C 289.949219 226.476562 290.175781 225.625 290.175781 224.476562 C 290.175781 223.375 289.949219 222.550781 289.5 222 C 289.050781 221.449219 288.398438 221.175781 287.550781 221.175781 C 286.699219 221.175781 286.023438 221.449219 285.523438 222 C 285.074219 222.550781 284.851562 223.375 284.851562 224.476562 C 284.851562 225.625 285.074219 226.476562 285.523438 227.023438 C 286.023438 227.625 286.699219 227.925781 287.550781 227.925781 "/>
<path style=" stroke:none;fill-rule:nonzero;fill:rgb(100%,0%,0%);fill-opacity:1;" d="M 292.648438 220.351562 L 293.851562 220.351562 L 293.851562 223.875 L 298.125 223.875 L 298.125 220.351562 L 299.25 220.351562 L 299.25 228.75 L 298.125 228.75 L 298.125 224.851562 L 293.851562 224.851562 L 293.851562 228.75 L 292.648438 228.75 L 292.648438 220.351562 "/>
<path style=" stroke:none;fill-rule:nonzero;fill:rgb(80%,80%,0%);fill-opacity:1;" d="M 276.300781 149.625 C 276.351562 149.625 276.523438 149.675781 276.824219 149.773438 C 277.074219 149.875 277.351562 149.976562 277.648438 150.074219 C 277.898438 150.125 278.175781 150.148438 278.476562 150.148438 C 279.023438 150.148438 279.449219 150.023438 279.75 149.773438 C 280.050781 149.523438 280.199219 149.175781 280.199219 148.726562 C 280.199219 148.425781 280.125 148.175781 279.976562 147.976562 C 279.824219 147.773438 279.625 147.625 279.375 147.523438 C 279.125 147.425781 278.800781 147.324219 278.398438 147.226562 C 277.949219 147.074219 277.574219 146.925781 277.273438 146.773438 C 276.976562 146.625 276.699219 146.398438 276.449219 146.101562 C 276.25 145.800781 276.148438 145.398438 276.148438 144.898438 C 276.148438 144.199219 276.398438 143.625 276.898438 143.175781 C 277.351562 142.773438 278.050781 142.574219 279 142.574219 C 279.648438 142.574219 280.351562 142.726562 281.101562 143.023438 L 280.800781 143.925781 C 280.148438 143.625 279.574219 143.476562 279.074219 143.476562 C 278.523438 143.476562 278.101562 143.601562 277.800781 143.851562 C 277.5 144.050781 277.351562 144.351562 277.351562 144.75 C 277.351562 145.050781 277.425781 145.300781 277.574219 145.5 C 277.726562 145.648438 277.925781 145.773438 278.175781 145.875 C 278.375 145.976562 278.675781 146.101562 279.074219 146.25 C 279.574219 146.398438 279.976562 146.550781 280.273438 146.699219 C 280.574219 146.851562 280.824219 147.101562 281.023438 147.449219 C 281.273438 147.75 281.398438 148.175781 281.398438 148.726562 C 281.398438 149.476562 281.125 150.074219 280.574219 150.523438 C 280.074219 150.925781 279.398438 151.125 278.550781 151.125 C 278.050781 151.125 277.601562 151.074219 277.199219 150.976562 C 276.851562 150.875 276.449219 150.726562 276 150.523438 L 276.300781 149.625 "/>
<path style=" stroke:none;fill-rule:nonzero;fill:rgb(0%,0%,100%);fill-opacity:1;" d="M 344.101562 105.976562 L 346.800781 110.398438 C 347 110.699219 347.25 111.125 347.550781 111.675781 C 347.851562 112.175781 348 112.449219 348 112.5 L 348 105.976562 L 349.125 105.976562 L 349.125 114.375 L 348 114.375 L 345 109.5 C 344.800781 109.101562 344.574219 108.699219 344.324219 108.300781 C 344.074219 107.851562 343.925781 107.550781 343.875 107.398438 L 343.875 114.375 L 342.75 114.375 L 342.75 105.976562 L 344.101562 105.976562 "/>
<path style=" stroke:none;fill-rule:nonzero;fill:rgb(0%,0%,100%);fill-opacity:1;" d="M 350.773438 105.976562 L 351.898438 105.976562 L 351.898438 109.5 L 356.175781 109.5 L 356.175781 105.976562 L 357.300781 105.976562 L 357.300781 114.375 L 356.175781 114.375 L 356.175781 110.476562 L 351.898438 110.476562 L 351.898438 114.375 L 350.773438 114.375 L 350.773438 105.976562 "/>
<path style=" stroke:none;fill-rule:nonzero;fill:rgb(0%,0%,100%);fill-opacity:1;" d="M 352.949219 134.175781 L 355.648438 138.675781 C 355.851562 138.925781 356.101562 139.324219 356.398438 139.875 C 356.699219 140.425781 356.851562 140.699219 356.851562 140.699219 L 356.851562 134.175781 L 357.976562 134.175781 L 357.976562 142.574219 L 356.773438 142.574219 L 353.851562 137.699219 C 353.648438 137.351562 353.425781 136.949219 353.175781 136.5 C 352.925781 136.050781 352.773438 135.773438 352.726562 135.675781 L 352.726562 142.574219 L 351.601562 142.574219 L 351.601562 134.175781 L 352.949219 134.175781 "/>
<path style=" stroke:none;fill-rule:nonzero;fill:rgb(0%,0%,100%);fill-opacity:1;" d="M 328.800781 151.351562 L 331.574219 155.773438 C 331.726562 156.074219 331.949219 156.476562 332.25 156.976562 C 332.550781 157.523438 332.699219 157.824219 332.699219 157.875 L 332.699219 151.351562 L 333.824219 151.351562 L 333.824219 159.675781 L 332.699219 159.675781 L 329.773438 154.875 C 329.523438 154.476562 329.273438 154.074219 329.023438 153.675781 C 328.773438 153.226562 328.625 152.925781 328.574219 152.773438 L 328.574219 159.675781 L 327.449219 159.675781 L 327.449219 151.351562 L 328.800781 151.351562 "/>
<path style=" stroke:none;fill-rule:nonzero;fill:rgb(80%,80%,0%);fill-opacity:1;" d="M 191.625 176.101562 C 191.675781 176.148438 191.824219 176.226562 192.074219 176.324219 C 192.375 176.425781 192.648438 176.5 192.898438 176.550781 C 193.199219 176.648438 193.5 176.699219 193.800781 176.699219 C 194.300781 176.699219 194.726562 176.574219 195.074219 176.324219 C 195.375 176.023438 195.523438 175.648438 195.523438 175.199219 C 195.523438 174.898438 195.449219 174.648438 195.300781 174.449219 C 195.148438 174.300781 194.949219 174.175781 194.699219 174.074219 C 194.449219 173.976562 194.125 173.851562 193.726562 173.699219 C 193.226562 173.550781 192.824219 173.398438 192.523438 173.25 C 192.226562 173.148438 191.976562 172.949219 191.773438 172.648438 C 191.574219 172.351562 191.476562 171.925781 191.476562 171.375 C 191.476562 170.675781 191.726562 170.125 192.226562 169.726562 C 192.675781 169.273438 193.375 169.050781 194.324219 169.050781 C 194.976562 169.050781 195.675781 169.199219 196.425781 169.5 L 196.125 170.398438 C 195.476562 170.148438 194.898438 170.023438 194.398438 170.023438 C 193.851562 170.023438 193.425781 170.125 193.125 170.324219 C 192.824219 170.574219 192.675781 170.898438 192.675781 171.300781 C 192.675781 171.601562 192.75 171.824219 192.898438 171.976562 C 193.050781 172.175781 193.226562 172.324219 193.425781 172.425781 C 193.675781 172.523438 194 172.625 194.398438 172.726562 C 194.898438 172.875 195.300781 173.050781 195.601562 173.25 C 195.898438 173.398438 196.148438 173.625 196.351562 173.925781 C 196.550781 174.226562 196.648438 174.648438 196.648438 175.199219 C 196.648438 176 196.398438 176.601562 195.898438 177 C 195.398438 177.398438 194.699219 177.601562 193.800781 177.601562 C 193.351562 177.601562 192.925781 177.550781 192.523438 177.449219 C 192.175781 177.351562 191.773438 177.226562 191.324219 177.074219 L 191.625 176.101562 "/>
<path style=" stroke:none;fill-rule:nonzero;fill:rgb(100%,0%,0%);fill-opacity:1;" d="M 17.023438 97.273438 L 18.148438 97.273438 L 18.148438 100.800781 L 22.5 100.800781 L 22.5 97.273438 L 23.625 97.273438 L 23.625 105.675781 L 22.5 105.675781 L 22.5 101.773438 L 18.148438 101.773438 L 18.148438 105.675781 L 17.023438 105.675781 L 17.023438 97.273438 "/>
<path style=" stroke:none;fill-rule:nonzero;fill:rgb(100%,0%,0%);fill-opacity:1;" d="M 25.351562 101.476562 C 25.351562 100.125 25.675781 99.074219 26.324219 98.324219 C 26.976562 97.574219 27.925781 97.199219 29.175781 97.199219 C 30.425781 97.199219 31.375 97.574219 32.023438 98.324219 C 32.675781 99.074219 33 100.125 33 101.476562 C 33 102.824219 32.675781 103.875 32.023438 104.625 C 31.324219 105.375 30.375 105.75 29.175781 105.75 C 27.925781 105.75 26.976562 105.375 26.324219 104.625 C 25.675781 103.875 25.351562 102.824219 25.351562 101.476562 M 29.175781 104.851562 C 30.023438 104.851562 30.675781 104.550781 31.125 103.949219 C 31.574219 103.398438 31.800781 102.574219 31.800781 101.476562 C 31.800781 100.375 31.574219 99.550781 31.125 99 C 30.675781 98.398438 30.023438 98.101562 29.175781 98.101562 C 28.324219 98.101562 27.675781 98.375 27.226562 98.925781 C 26.726562 99.476562 26.476562 100.324219 26.476562 101.476562 C 26.476562 102.574219 26.726562 103.398438 27.226562 103.949219 C 27.675781 104.550781 28.324219 104.851562 29.175781 104.851562 "/>
<path style=" stroke:none;fill-rule:nonzero;fill:rgb(0%,0%,0%);fill-opacity:1;" d="M 158.023438 184.199219 L 159.148438 184.199219 L 159.148438 187.726562 L 163.425781 187.726562 L 163.425781 184.199219 L 164.625 184.199219 L 164.625 192.601562 L 163.425781 192.601562 L 163.425781 188.699219 L 159.148438 188.699219 L 159.148438 192.601562 L 158.023438 192.601562 L 158.023438 184.199219 "/>
</g>
</svg>
