<?xml version="1.0" encoding="UTF-8"?>
<svg xmlns="http://www.w3.org/2000/svg" xmlns:xlink="http://www.w3.org/1999/xlink" width="375pt" height="375pt" viewBox="0 0 375 375" version="1.1">
<g id="surface91">
<rect x="0" y="0" width="375" height="375" style="fill:rgb(100%,100%,100%);fill-opacity:1;stroke:none;"/>
<path style="fill:none;stroke-width:2;stroke-linecap:butt;stroke-linejoin:miter;stroke:rgb(0%,0%,0%);stroke-opacity:1;stroke-miterlimit:4;" d="M 477.302083 233 L 459.901042 239.401042 " transform="matrix(0.75,0,0,0.75,0,0)"/>
<path style="fill:none;stroke-width:2;stroke-linecap:butt;stroke-linejoin:miter;stroke:rgb(0%,0%,0%);stroke-opacity:1;stroke-miterlimit:4;" d="M 459.901042 239.401042 L 445.697917 227.697917 " transform="matrix(0.75,0,0,0.75,0,0)"/>
<path style="fill-rule:evenodd;fill:rgb(0%,0%,0%);fill-opacity:1;stroke-width:0.5;stroke-linecap:butt;stroke-linejoin:miter;stroke:rgb(0%,0%,0%);stroke-opacity:1;stroke-miterlimit:4;" d="M 445.697917 227.697917 L 447.401042 209.197917 L 450.098958 209.697917 Z M 445.697917 227.697917 " transform="matrix(0.75,0,0,0.75,0,0)"/>
<path style="fill:none;stroke-width:2;stroke-linecap:butt;stroke-linejoin:miter;stroke:rgb(0%,0%,0%);stroke-opacity:1;stroke-miterlimit:4;" d="M 445.697917 227.697917 L 428.401042 234.098958 " transform="matrix(0.75,0,0,0.75,0,0)"/>
<path style="fill:none;stroke-width:2;stroke-linecap:butt;stroke-linejoin:miter;stroke:rgb(0%,0%,0%);stroke-opacity:1;stroke-miterlimit:4;" d="M 428.401042 234.098958 L 425.302083 252.401042 " transform="matrix(0.75,0,0,0.75,0,0)"/>
<path style="fill:none;stroke-width:1;stroke-linecap:butt;stroke-linejoin:miter;stroke:rgb(0%,0%,0%);stroke-opacity:1;stroke-miterlimit:4;" d="M 428.302083 254.5 L 428 254.901042 " transform="matrix(0.75,0,0,0.75,0,0)"/>
<path style="fill:none;stroke-width:1;stroke-linecap:butt;stroke-linejoin:miter;stroke:rgb(0%,0%,0%);stroke-opacity:1;stroke-miterlimit:4;" d="M 431.302083 256.697917 L 430.598958 257.5 " transform="matrix(0.75,0,0,0.75,0,0)"/>
<path style="fill:none;stroke-width:1;stroke-linecap:butt;stroke-linejoin:miter;stroke:rgb(0%,0%,0%);stroke-opacity:1;stroke-miterlimit:4;" d="M 434.401042 258.802083 L 433.302083 260.098958 " transform="matrix(0.75,0,0,0.75,0,0)"/>
<path style="fill:none;stroke-width:1;stroke-linecap:butt;stroke-linejoin:miter;stroke:rgb(0%,0%,0%);stroke-opacity:1;stroke-miterlimit:4;" d="M 437.401042 260.901042 L 436 262.598958 " transform="matrix(0.75,0,0,0.75,0,0)"/>
<path style="fill:none;stroke-width:1;stroke-linecap:butt;stroke-linejoin:miter;stroke:rgb(0%,0%,0%);stroke-opacity:1;stroke-miterlimit:4;" d="M 440.401042 263.098958 L 438.697917 265.197917 " transform="matrix(0.75,0,0,0.75,0,0)"/>
<path style="fill:none;stroke-width:2;stroke-linecap:butt;stroke-linejoin:miter;stroke:rgb(0%,0%,0%);stroke-opacity:1;stroke-miterlimit:4;" d="M 425.302083 252.401042 L 408 258.802083 " transform="matrix(0.75,0,0,0.75,0,0)"/>
<path style="fill:none;stroke-width:2;stroke-linecap:butt;stroke-linejoin:miter;stroke:rgb(0%,0%,0%);stroke-opacity:1;stroke-miterlimit:4;" d="M 408 258.802083 L 393.697917 247.098958 " transform="matrix(0.75,0,0,0.75,0,0)"/>
<path style="fill:none;stroke-width:2;stroke-linecap:butt;stroke-linejoin:miter;stroke:rgb(0%,0%,0%);stroke-opacity:1;stroke-miterlimit:4;" d="M 393.697917 247.098958 L 376.401042 253.5 " transform="matrix(0.75,0,0,0.75,0,0)"/>
<path style="fill:none;stroke-width:2;stroke-linecap:butt;stroke-linejoin:miter;stroke:rgb(0%,0%,0%);stroke-opacity:1;stroke-miterlimit:4;" d="M 376.401042 253.5 L 362.098958 241.697917 " transform="matrix(0.75,0,0,0.75,0,0)"/>
<path style="fill:none;stroke-width:2;stroke-linecap:butt;stroke-linejoin:miter;stroke:rgb(0%,0%,0%);stroke-opacity:1;stroke-miterlimit:4;" d="M 362.098958 241.697917 L 344.802083 248.197917 " transform="matrix(0.75,0,0,0.75,0,0)"/>
<path style="fill:none;stroke-width:2;stroke-linecap:butt;stroke-linejoin:miter;stroke:rgb(0%,0%,0%);stroke-opacity:1;stroke-miterlimit:4;" d="M 344.802083 248.197917 L 330.5 236.401042 " transform="matrix(0.75,0,0,0.75,0,0)"/>
<path style="fill:none;stroke-width:2;stroke-linecap:butt;stroke-linejoin:miter;stroke:rgb(0%,0%,0%);stroke-opacity:1;stroke-miterlimit:4;" d="M 330.5 236.401042 L 313.197917 242.901042 " transform="matrix(0.75,0,0,0.75,0,0)"/>
<path style="fill:none;stroke-width:2;stroke-linecap:butt;stroke-linejoin:miter;stroke:rgb(0%,0%,0%);stroke-opacity:1;stroke-miterlimit:4;" d="M 313.197917 242.901042 L 298.901042 231.098958 " transform="matrix(0.75,0,0,0.75,0,0)"/>
<path style="fill:none;stroke-width:2;stroke-linecap:butt;stroke-linejoin:miter;stroke:rgb(0%,0%,0%);stroke-opacity:1;stroke-miterlimit:4;" d="M 298.901042 231.098958 L 281.598958 237.598958 " transform="matrix(0.75,0,0,0.75,0,0)"/>
<path style="fill:none;stroke-width:2;stroke-linecap:butt;stroke-linejoin:miter;stroke:rgb(0%,0%,0%);stroke-opacity:1;stroke-miterlimit:4;" d="M 280.401042 236.5 L 279.098958 244.401042 " transform="matrix(0.75,0,0,0.75,0,0)"/>
<path style="fill:none;stroke-width:2;stroke-linecap:butt;stroke-linejoin:miter;stroke:rgb(100%,0%,0%);stroke-opacity:1;stroke-miterlimit:4;" d="M 279.098958 244.401042 L 277.697917 252.302083 " transform="matrix(0.75,0,0,0.75,0,0)"/>
<path style="fill:none;stroke-width:2;stroke-linecap:butt;stroke-linejoin:miter;stroke:rgb(0%,0%,0%);stroke-opacity:1;stroke-miterlimit:4;" d="M 283.098958 237 L 281.802083 244.901042 " transform="matrix(0.75,0,0,0.75,0,0)"/>
<path style="fill:none;stroke-width:2;stroke-linecap:butt;stroke-linejoin:miter;stroke:rgb(100%,0%,0%);stroke-opacity:1;stroke-miterlimit:4;" d="M 281.802083 244.901042 L 280.5 252.802083 " transform="matrix(0.75,0,0,0.75,0,0)"/>
<path style="fill:none;stroke-width:2;stroke-linecap:butt;stroke-linejoin:miter;stroke:rgb(0%,0%,0%);stroke-opacity:1;stroke-miterlimit:4;" d="M 281.598958 237.598958 L 275.802083 232.697917 " transform="matrix(0.75,0,0,0.75,0,0)"/>
<path style="fill:none;stroke-width:2;stroke-linecap:butt;stroke-linejoin:miter;stroke:rgb(0%,0%,100%);stroke-opacity:1;stroke-miterlimit:4;" d="M 275.802083 232.697917 L 270 227.901042 " transform="matrix(0.75,0,0,0.75,0,0)"/>
<path style="fill-rule:evenodd;fill:rgb(0%,0%,0%);fill-opacity:1;stroke-width:0.5;stroke-linecap:butt;stroke-linejoin:miter;stroke:rgb(0%,0%,0%);stroke-opacity:1;stroke-miterlimit:4;" d="M 250 232.197917 L 256.802083 229 L 257.302083 230.302083 Z M 250 232.197917 " transform="matrix(0.75,0,0,0.75,0,0)"/>
<path style="fill-rule:evenodd;fill:rgb(0%,0%,100%);fill-opacity:1;stroke-width:0.5;stroke-linecap:butt;stroke-linejoin:miter;stroke:rgb(0%,0%,100%);stroke-opacity:1;stroke-miterlimit:4;" d="M 256.802083 229 L 264.598958 228.302083 L 263.697917 225.697917 Z M 256.802083 229 " transform="matrix(0.75,0,0,0.75,0,0)"/>
<path style="fill-rule:evenodd;fill:rgb(0%,0%,100%);fill-opacity:1;stroke-width:0.5;stroke-linecap:butt;stroke-linejoin:miter;stroke:rgb(0%,0%,100%);stroke-opacity:1;stroke-miterlimit:4;" d="M 256.802083 229 L 257.302083 230.302083 L 264.598958 228.302083 Z M 256.802083 229 " transform="matrix(0.75,0,0,0.75,0,0)"/>
<path style="fill:none;stroke-width:2;stroke-linecap:butt;stroke-linejoin:miter;stroke:rgb(0%,0%,0%);stroke-opacity:1;stroke-miterlimit:4;" d="M 250 232.197917 L 253.098958 247.098958 " transform="matrix(0.75,0,0,0.75,0,0)"/>
<path style="fill:none;stroke-width:2;stroke-linecap:butt;stroke-linejoin:miter;stroke:rgb(0%,0%,0%);stroke-opacity:1;stroke-miterlimit:4;" d="M 253.5 253.697917 L 252.098958 268.802083 " transform="matrix(0.75,0,0,0.75,0,0)"/>
<path style="fill-rule:evenodd;fill:rgb(0%,0%,0%);fill-opacity:1;stroke-width:0.5;stroke-linecap:butt;stroke-linejoin:miter;stroke:rgb(0%,0%,0%);stroke-opacity:1;stroke-miterlimit:4;" d="M 252.098958 268.802083 L 259.5 269.802083 L 259.098958 271.197917 Z M 252.098958 268.802083 " transform="matrix(0.75,0,0,0.75,0,0)"/>
<path style="fill-rule:evenodd;fill:rgb(100%,0%,0%);fill-opacity:1;stroke-width:0.5;stroke-linecap:butt;stroke-linejoin:miter;stroke:rgb(100%,0%,0%);stroke-opacity:1;stroke-miterlimit:4;" d="M 259.5 269.802083 L 266.098958 273.598958 L 266.802083 270.901042 Z M 259.5 269.802083 " transform="matrix(0.75,0,0,0.75,0,0)"/>
<path style="fill-rule:evenodd;fill:rgb(100%,0%,0%);fill-opacity:1;stroke-width:0.5;stroke-linecap:butt;stroke-linejoin:miter;stroke:rgb(100%,0%,0%);stroke-opacity:1;stroke-miterlimit:4;" d="M 259.5 269.802083 L 259.098958 271.197917 L 266.098958 273.598958 Z M 259.5 269.802083 " transform="matrix(0.75,0,0,0.75,0,0)"/>
<path style="fill:none;stroke-width:2;stroke-linecap:butt;stroke-linejoin:miter;stroke:rgb(0%,0%,0%);stroke-opacity:1;stroke-miterlimit:4;" d="M 252.098958 268.802083 L 245.098958 285.802083 " transform="matrix(0.75,0,0,0.75,0,0)"/>
<path style="fill-rule:evenodd;fill:rgb(0%,0%,0%);fill-opacity:1;stroke-width:0.5;stroke-linecap:butt;stroke-linejoin:miter;stroke:rgb(0%,0%,0%);stroke-opacity:1;stroke-miterlimit:4;" d="M 245.098958 285.802083 L 251.802083 289.098958 L 251 290.197917 Z M 245.098958 285.802083 " transform="matrix(0.75,0,0,0.75,0,0)"/>
<path style="fill-rule:evenodd;fill:rgb(0%,0%,100%);fill-opacity:1;stroke-width:0.5;stroke-linecap:butt;stroke-linejoin:miter;stroke:rgb(0%,0%,100%);stroke-opacity:1;stroke-miterlimit:4;" d="M 251.802083 289.098958 L 257 294.598958 L 258.401042 292.302083 Z M 251.802083 289.098958 " transform="matrix(0.75,0,0,0.75,0,0)"/>
<path style="fill-rule:evenodd;fill:rgb(0%,0%,100%);fill-opacity:1;stroke-width:0.5;stroke-linecap:butt;stroke-linejoin:miter;stroke:rgb(0%,0%,100%);stroke-opacity:1;stroke-miterlimit:4;" d="M 251.802083 289.098958 L 251 290.197917 L 257 294.598958 Z M 251.802083 289.098958 " transform="matrix(0.75,0,0,0.75,0,0)"/>
<path style="fill:none;stroke-width:2;stroke-linecap:butt;stroke-linejoin:miter;stroke:rgb(0%,0%,100%);stroke-opacity:1;stroke-miterlimit:4;" d="M 260.901042 298.598958 L 260.697917 306.197917 " transform="matrix(0.75,0,0,0.75,0,0)"/>
<path style="fill:none;stroke-width:2;stroke-linecap:butt;stroke-linejoin:miter;stroke:rgb(0%,0%,0%);stroke-opacity:1;stroke-miterlimit:4;" d="M 260.697917 306.197917 L 260.598958 313.901042 " transform="matrix(0.75,0,0,0.75,0,0)"/>
<path style="fill:none;stroke-width:2;stroke-linecap:butt;stroke-linejoin:miter;stroke:rgb(0%,0%,0%);stroke-opacity:1;stroke-miterlimit:4;" d="M 260.598958 313.901042 L 276.5 323.401042 " transform="matrix(0.75,0,0,0.75,0,0)"/>
<path style="fill:none;stroke-width:2;stroke-linecap:butt;stroke-linejoin:miter;stroke:rgb(0%,0%,0%);stroke-opacity:1;stroke-miterlimit:4;" d="M 276.5 323.401042 L 276.302083 331 " transform="matrix(0.75,0,0,0.75,0,0)"/>
<path style="fill:none;stroke-width:2;stroke-linecap:butt;stroke-linejoin:miter;stroke:rgb(0%,0%,100%);stroke-opacity:1;stroke-miterlimit:4;" d="M 276.302083 331 L 276.197917 338.598958 " transform="matrix(0.75,0,0,0.75,0,0)"/>
<path style="fill:none;stroke-width:2;stroke-linecap:butt;stroke-linejoin:miter;stroke:rgb(0%,0%,0%);stroke-opacity:1;stroke-miterlimit:4;" d="M 245.098958 285.802083 L 240.5 291.401042 " transform="matrix(0.75,0,0,0.75,0,0)"/>
<path style="fill:none;stroke-width:2;stroke-linecap:butt;stroke-linejoin:miter;stroke:rgb(0%,0%,100%);stroke-opacity:1;stroke-miterlimit:4;" d="M 240.5 291.401042 L 236 296.901042 " transform="matrix(0.75,0,0,0.75,0,0)"/>
<path style="fill:none;stroke-width:2;stroke-linecap:butt;stroke-linejoin:miter;stroke:rgb(0%,0%,100%);stroke-opacity:1;stroke-miterlimit:4;" d="M 230.697917 301.802083 L 224.302083 306 " transform="matrix(0.75,0,0,0.75,0,0)"/>
<path style="fill:none;stroke-width:2;stroke-linecap:butt;stroke-linejoin:miter;stroke:rgb(0%,0%,0%);stroke-opacity:1;stroke-miterlimit:4;" d="M 224.302083 306 L 217.802083 310.302083 " transform="matrix(0.75,0,0,0.75,0,0)"/>
<path style="fill:none;stroke-width:2;stroke-linecap:butt;stroke-linejoin:miter;stroke:rgb(0%,0%,0%);stroke-opacity:1;stroke-miterlimit:4;" d="M 216.5 310.697917 L 220.401042 317.098958 " transform="matrix(0.75,0,0,0.75,0,0)"/>
<path style="fill:none;stroke-width:2;stroke-linecap:butt;stroke-linejoin:miter;stroke:rgb(100%,0%,0%);stroke-opacity:1;stroke-miterlimit:4;" d="M 220.401042 317.098958 L 224.401042 323.5 " transform="matrix(0.75,0,0,0.75,0,0)"/>
<path style="fill:none;stroke-width:2;stroke-linecap:butt;stroke-linejoin:miter;stroke:rgb(0%,0%,0%);stroke-opacity:1;stroke-miterlimit:4;" d="M 219 309.5 L 222.802083 315.598958 " transform="matrix(0.75,0,0,0.75,0,0)"/>
<path style="fill:none;stroke-width:2;stroke-linecap:butt;stroke-linejoin:miter;stroke:rgb(100%,0%,0%);stroke-opacity:1;stroke-miterlimit:4;" d="M 222.802083 315.598958 L 226.697917 322 " transform="matrix(0.75,0,0,0.75,0,0)"/>
<path style="fill:none;stroke-width:2;stroke-linecap:butt;stroke-linejoin:miter;stroke:rgb(0%,0%,0%);stroke-opacity:1;stroke-miterlimit:4;" d="M 217.802083 310.302083 L 200.098958 315.401042 " transform="matrix(0.75,0,0,0.75,0,0)"/>
<path style="fill:none;stroke-width:2;stroke-linecap:butt;stroke-linejoin:miter;stroke:rgb(0%,0%,0%);stroke-opacity:1;stroke-miterlimit:4;" d="M 200.098958 315.401042 L 205.5 333.098958 " transform="matrix(0.75,0,0,0.75,0,0)"/>
<path style="fill-rule:evenodd;fill:rgb(0%,0%,0%);fill-opacity:1;stroke-width:0.5;stroke-linecap:butt;stroke-linejoin:miter;stroke:rgb(0%,0%,0%);stroke-opacity:1;stroke-miterlimit:4;" d="M 205.5 333.098958 L 212.697917 334.802083 L 212.197917 336.098958 Z M 205.5 333.098958 " transform="matrix(0.75,0,0,0.75,0,0)"/>
<path style="fill-rule:evenodd;fill:rgb(100%,0%,0%);fill-opacity:1;stroke-width:0.5;stroke-linecap:butt;stroke-linejoin:miter;stroke:rgb(100%,0%,0%);stroke-opacity:1;stroke-miterlimit:4;" d="M 212.697917 334.802083 L 218.901042 339.197917 L 219.802083 336.5 Z M 212.697917 334.802083 " transform="matrix(0.75,0,0,0.75,0,0)"/>
<path style="fill-rule:evenodd;fill:rgb(100%,0%,0%);fill-opacity:1;stroke-width:0.5;stroke-linecap:butt;stroke-linejoin:miter;stroke:rgb(100%,0%,0%);stroke-opacity:1;stroke-miterlimit:4;" d="M 212.697917 334.802083 L 212.197917 336.098958 L 218.901042 339.197917 Z M 212.697917 334.802083 " transform="matrix(0.75,0,0,0.75,0,0)"/>
<path style="fill:none;stroke-width:2;stroke-linecap:butt;stroke-linejoin:miter;stroke:rgb(0%,0%,0%);stroke-opacity:1;stroke-miterlimit:4;" d="M 205.5 333.098958 L 190.302083 343.697917 " transform="matrix(0.75,0,0,0.75,0,0)"/>
<path style="fill:none;stroke-width:2;stroke-linecap:butt;stroke-linejoin:miter;stroke:rgb(0%,0%,0%);stroke-opacity:1;stroke-miterlimit:4;" d="M 190.302083 343.697917 L 175.598958 332.598958 " transform="matrix(0.75,0,0,0.75,0,0)"/>
<path style="fill:none;stroke-width:2;stroke-linecap:butt;stroke-linejoin:miter;stroke:rgb(0%,0%,0%);stroke-opacity:1;stroke-miterlimit:4;" d="M 175.598958 332.598958 L 178 325.401042 " transform="matrix(0.75,0,0,0.75,0,0)"/>
<path style="fill:none;stroke-width:2;stroke-linecap:butt;stroke-linejoin:miter;stroke:rgb(0%,0%,100%);stroke-opacity:1;stroke-miterlimit:4;" d="M 178 325.401042 L 180.5 318.302083 " transform="matrix(0.75,0,0,0.75,0,0)"/>
<path style="fill:none;stroke-width:2;stroke-linecap:butt;stroke-linejoin:miter;stroke:rgb(0%,0%,100%);stroke-opacity:1;stroke-miterlimit:4;" d="M 179 314.197917 L 171.5 311.802083 " transform="matrix(0.75,0,0,0.75,0,0)"/>
<path style="fill:none;stroke-width:2;stroke-linecap:butt;stroke-linejoin:miter;stroke:rgb(0%,0%,0%);stroke-opacity:1;stroke-miterlimit:4;" d="M 171.5 311.802083 L 164 309.302083 " transform="matrix(0.75,0,0,0.75,0,0)"/>
<path style="fill:none;stroke-width:2;stroke-linecap:butt;stroke-linejoin:miter;stroke:rgb(0%,0%,0%);stroke-opacity:1;stroke-miterlimit:4;" d="M 162.901042 308.5 L 159.5 315.197917 " transform="matrix(0.75,0,0,0.75,0,0)"/>
<path style="fill:none;stroke-width:2;stroke-linecap:butt;stroke-linejoin:miter;stroke:rgb(100%,0%,0%);stroke-opacity:1;stroke-miterlimit:4;" d="M 159.5 315.197917 L 156.098958 322 " transform="matrix(0.75,0,0,0.75,0,0)"/>
<path style="fill:none;stroke-width:2;stroke-linecap:butt;stroke-linejoin:miter;stroke:rgb(0%,0%,0%);stroke-opacity:1;stroke-miterlimit:4;" d="M 165.401042 309.802083 L 162 316.5 " transform="matrix(0.75,0,0,0.75,0,0)"/>
<path style="fill:none;stroke-width:2;stroke-linecap:butt;stroke-linejoin:miter;stroke:rgb(100%,0%,0%);stroke-opacity:1;stroke-miterlimit:4;" d="M 162 316.5 L 158.598958 323.197917 " transform="matrix(0.75,0,0,0.75,0,0)"/>
<path style="fill:none;stroke-width:2;stroke-linecap:butt;stroke-linejoin:miter;stroke:rgb(0%,0%,0%);stroke-opacity:1;stroke-miterlimit:4;" d="M 164 309.302083 L 148.901042 298.697917 " transform="matrix(0.75,0,0,0.75,0,0)"/>
<path style="fill:none;stroke-width:2;stroke-linecap:butt;stroke-linejoin:miter;stroke:rgb(0%,0%,0%);stroke-opacity:1;stroke-miterlimit:4;" d="M 148.901042 298.697917 L 136.098958 312 " transform="matrix(0.75,0,0,0.75,0,0)"/>
<path style="fill:none;stroke-width:1;stroke-linecap:butt;stroke-linejoin:miter;stroke:rgb(0%,0%,0%);stroke-opacity:1;stroke-miterlimit:4;" d="M 137.401042 315.401042 L 136.802083 315.598958 " transform="matrix(0.75,0,0,0.75,0,0)"/>
<path style="fill:none;stroke-width:1;stroke-linecap:butt;stroke-linejoin:miter;stroke:rgb(0%,0%,0%);stroke-opacity:1;stroke-miterlimit:4;" d="M 138.802083 318.697917 L 137.5 319.098958 " transform="matrix(0.75,0,0,0.75,0,0)"/>
<path style="fill:none;stroke-width:1;stroke-linecap:butt;stroke-linejoin:miter;stroke:rgb(100%,0%,0%);stroke-opacity:1;stroke-miterlimit:4;" d="M 140.098958 322.098958 L 138.098958 322.697917 " transform="matrix(0.75,0,0,0.75,0,0)"/>
<path style="fill:none;stroke-width:1;stroke-linecap:butt;stroke-linejoin:miter;stroke:rgb(100%,0%,0%);stroke-opacity:1;stroke-miterlimit:4;" d="M 141.5 325.5 L 138.802083 326.302083 " transform="matrix(0.75,0,0,0.75,0,0)"/>
<path style="fill:none;stroke-width:2;stroke-linecap:butt;stroke-linejoin:miter;stroke:rgb(0%,0%,0%);stroke-opacity:1;stroke-miterlimit:4;" d="M 136.098958 312 L 118.197917 307.598958 " transform="matrix(0.75,0,0,0.75,0,0)"/>
<path style="fill:none;stroke-width:2;stroke-linecap:butt;stroke-linejoin:miter;stroke:rgb(0%,0%,0%);stroke-opacity:1;stroke-miterlimit:4;" d="M 118.197917 307.598958 L 105.302083 320.901042 " transform="matrix(0.75,0,0,0.75,0,0)"/>
<path style="fill:none;stroke-width:2;stroke-linecap:butt;stroke-linejoin:miter;stroke:rgb(0%,0%,0%);stroke-opacity:1;stroke-miterlimit:4;" d="M 105.302083 320.901042 L 97.697917 319 " transform="matrix(0.75,0,0,0.75,0,0)"/>
<path style="fill:none;stroke-width:2;stroke-linecap:butt;stroke-linejoin:miter;stroke:rgb(0%,0%,100%);stroke-opacity:1;stroke-miterlimit:4;" d="M 97.697917 319 L 90 317.098958 " transform="matrix(0.75,0,0,0.75,0,0)"/>
<path style="fill:none;stroke-width:1;stroke-linecap:butt;stroke-linejoin:miter;stroke:rgb(0%,0%,0%);stroke-opacity:1;stroke-miterlimit:4;" d="M 147.197917 295.697917 L 146.5 296.197917 " transform="matrix(0.75,0,0,0.75,0,0)"/>
<path style="fill:none;stroke-width:1;stroke-linecap:butt;stroke-linejoin:miter;stroke:rgb(0%,0%,0%);stroke-opacity:1;stroke-miterlimit:4;" d="M 145.5 292.697917 L 144 293.802083 " transform="matrix(0.75,0,0,0.75,0,0)"/>
<path style="fill:none;stroke-width:1;stroke-linecap:butt;stroke-linejoin:miter;stroke:rgb(0%,0%,100%);stroke-opacity:1;stroke-miterlimit:4;" d="M 143.802083 289.697917 L 141.598958 291.401042 " transform="matrix(0.75,0,0,0.75,0,0)"/>
<path style="fill:none;stroke-width:2;stroke-linecap:butt;stroke-linejoin:miter;stroke:rgb(0%,0%,100%);stroke-opacity:1;stroke-miterlimit:4;" d="M 136.401042 280.802083 L 133.802083 273.697917 " transform="matrix(0.75,0,0,0.75,0,0)"/>
<path style="fill:none;stroke-width:2;stroke-linecap:butt;stroke-linejoin:miter;stroke:rgb(0%,0%,0%);stroke-opacity:1;stroke-miterlimit:4;" d="M 133.802083 273.697917 L 131.197917 266.697917 " transform="matrix(0.75,0,0,0.75,0,0)"/>
<path style="fill:none;stroke-width:2;stroke-linecap:butt;stroke-linejoin:miter;stroke:rgb(0%,0%,0%);stroke-opacity:1;stroke-miterlimit:4;" d="M 131.098958 265.302083 L 123.5 266.901042 " transform="matrix(0.75,0,0,0.75,0,0)"/>
<path style="fill:none;stroke-width:2;stroke-linecap:butt;stroke-linejoin:miter;stroke:rgb(100%,0%,0%);stroke-opacity:1;stroke-miterlimit:4;" d="M 123.5 266.901042 L 115.802083 268.5 " transform="matrix(0.75,0,0,0.75,0,0)"/>
<path style="fill:none;stroke-width:2;stroke-linecap:butt;stroke-linejoin:miter;stroke:rgb(0%,0%,0%);stroke-opacity:1;stroke-miterlimit:4;" d="M 131.697917 268 L 124 269.598958 " transform="matrix(0.75,0,0,0.75,0,0)"/>
<path style="fill:none;stroke-width:2;stroke-linecap:butt;stroke-linejoin:miter;stroke:rgb(100%,0%,0%);stroke-opacity:1;stroke-miterlimit:4;" d="M 124 269.598958 L 116.401042 271.197917 " transform="matrix(0.75,0,0,0.75,0,0)"/>
<path style="fill:none;stroke-width:2;stroke-linecap:butt;stroke-linejoin:miter;stroke:rgb(0%,0%,0%);stroke-opacity:1;stroke-miterlimit:4;" d="M 131.197917 266.697917 L 130.098958 248.197917 " transform="matrix(0.75,0,0,0.75,0,0)"/>
<path style="fill:none;stroke-width:2;stroke-linecap:butt;stroke-linejoin:miter;stroke:rgb(0%,0%,0%);stroke-opacity:1;stroke-miterlimit:4;" d="M 130.098958 248.197917 L 111.697917 246.5 " transform="matrix(0.75,0,0,0.75,0,0)"/>
<path style="fill:none;stroke-width:1;stroke-linecap:butt;stroke-linejoin:miter;stroke:rgb(0%,0%,0%);stroke-opacity:1;stroke-miterlimit:4;" d="M 110 249.5 L 109.401042 249.098958 " transform="matrix(0.75,0,0,0.75,0,0)"/>
<path style="fill:none;stroke-width:1;stroke-linecap:butt;stroke-linejoin:miter;stroke:rgb(0%,0%,0%);stroke-opacity:1;stroke-miterlimit:4;" d="M 108.302083 252.5 L 107.197917 251.697917 " transform="matrix(0.75,0,0,0.75,0,0)"/>
<path style="fill:none;stroke-width:1;stroke-linecap:butt;stroke-linejoin:miter;stroke:rgb(100%,0%,0%);stroke-opacity:1;stroke-miterlimit:4;" d="M 106.598958 255.5 L 104.901042 254.302083 " transform="matrix(0.75,0,0,0.75,0,0)"/>
<path style="fill:none;stroke-width:1;stroke-linecap:butt;stroke-linejoin:miter;stroke:rgb(100%,0%,0%);stroke-opacity:1;stroke-miterlimit:4;" d="M 104.901042 258.5 L 102.598958 256.901042 " transform="matrix(0.75,0,0,0.75,0,0)"/>
<path style="fill:none;stroke-width:2;stroke-linecap:butt;stroke-linejoin:miter;stroke:rgb(0%,0%,0%);stroke-opacity:1;stroke-miterlimit:4;" d="M 111.697917 246.5 L 104 229.697917 " transform="matrix(0.75,0,0,0.75,0,0)"/>
<path style="fill:none;stroke-width:1;stroke-linecap:butt;stroke-linejoin:miter;stroke:rgb(0%,0%,0%);stroke-opacity:1;stroke-miterlimit:4;" d="M 105.697917 226.697917 L 106.197917 227.098958 " transform="matrix(0.75,0,0,0.75,0,0)"/>
<path style="fill:none;stroke-width:1;stroke-linecap:butt;stroke-linejoin:miter;stroke:rgb(0%,0%,0%);stroke-opacity:1;stroke-miterlimit:4;" d="M 107.302083 223.697917 L 108.5 224.5 " transform="matrix(0.75,0,0,0.75,0,0)"/>
<path style="fill:none;stroke-width:1;stroke-linecap:butt;stroke-linejoin:miter;stroke:rgb(100%,0%,0%);stroke-opacity:1;stroke-miterlimit:4;" d="M 109 220.802083 L 110.697917 222 " transform="matrix(0.75,0,0,0.75,0,0)"/>
<path style="fill:none;stroke-width:1;stroke-linecap:butt;stroke-linejoin:miter;stroke:rgb(100%,0%,0%);stroke-opacity:1;stroke-miterlimit:4;" d="M 110.697917 217.802083 L 113 219.401042 " transform="matrix(0.75,0,0,0.75,0,0)"/>
<path style="fill:none;stroke-width:2;stroke-linecap:butt;stroke-linejoin:miter;stroke:rgb(0%,0%,0%);stroke-opacity:1;stroke-miterlimit:4;" d="M 104 229.697917 L 85.5 228 " transform="matrix(0.75,0,0,0.75,0,0)"/>
<path style="fill:none;stroke-width:2;stroke-linecap:butt;stroke-linejoin:miter;stroke:rgb(0%,0%,0%);stroke-opacity:1;stroke-miterlimit:4;" d="M 85.5 228 L 77.802083 211.197917 " transform="matrix(0.75,0,0,0.75,0,0)"/>
<path style="fill:none;stroke-width:2;stroke-linecap:butt;stroke-linejoin:miter;stroke:rgb(0%,0%,0%);stroke-opacity:1;stroke-miterlimit:4;" d="M 82.401042 227.697917 L 76 213.802083 " transform="matrix(0.75,0,0,0.75,0,0)"/>
<path style="fill:none;stroke-width:2;stroke-linecap:butt;stroke-linejoin:miter;stroke:rgb(0%,0%,0%);stroke-opacity:1;stroke-miterlimit:4;" d="M 77.802083 211.197917 L 59.401042 209.5 " transform="matrix(0.75,0,0,0.75,0,0)"/>
<path style="fill:none;stroke-width:2;stroke-linecap:butt;stroke-linejoin:miter;stroke:rgb(0%,0%,0%);stroke-opacity:1;stroke-miterlimit:4;" d="M 59.401042 209.5 L 48.697917 224.598958 " transform="matrix(0.75,0,0,0.75,0,0)"/>
<path style="fill:none;stroke-width:2;stroke-linecap:butt;stroke-linejoin:miter;stroke:rgb(0%,0%,0%);stroke-opacity:1;stroke-miterlimit:4;" d="M 60.697917 212.401042 L 51.901042 224.901042 " transform="matrix(0.75,0,0,0.75,0,0)"/>
<path style="fill:none;stroke-width:2;stroke-linecap:butt;stroke-linejoin:miter;stroke:rgb(0%,0%,0%);stroke-opacity:1;stroke-miterlimit:4;" d="M 48.697917 224.598958 L 41 223.901042 " transform="matrix(0.75,0,0,0.75,0,0)"/>
<path style="fill:none;stroke-width:2;stroke-linecap:butt;stroke-linejoin:miter;stroke:rgb(100%,0%,0%);stroke-opacity:1;stroke-miterlimit:4;" d="M 41 223.901042 L 33.302083 223.197917 " transform="matrix(0.75,0,0,0.75,0,0)"/>
<path style="fill:none;stroke-width:2;stroke-linecap:butt;stroke-linejoin:miter;stroke:rgb(0%,0%,0%);stroke-opacity:1;stroke-miterlimit:4;" d="M 48.697917 224.598958 L 56.5 241.401042 " transform="matrix(0.75,0,0,0.75,0,0)"/>
<path style="fill:none;stroke-width:2;stroke-linecap:butt;stroke-linejoin:miter;stroke:rgb(0%,0%,0%);stroke-opacity:1;stroke-miterlimit:4;" d="M 56.5 241.401042 L 74.901042 243.098958 " transform="matrix(0.75,0,0,0.75,0,0)"/>
<path style="fill:none;stroke-width:2;stroke-linecap:butt;stroke-linejoin:miter;stroke:rgb(0%,0%,0%);stroke-opacity:1;stroke-miterlimit:4;" d="M 58.302083 238.802083 L 73.5 240.197917 " transform="matrix(0.75,0,0,0.75,0,0)"/>
<path style="fill:none;stroke-width:1;stroke-linecap:butt;stroke-linejoin:miter;stroke:rgb(0%,0%,0%);stroke-opacity:1;stroke-miterlimit:4;" d="M 131.401042 244.802083 L 130.5 244.598958 " transform="matrix(0.75,0,0,0.75,0,0)"/>
<path style="fill:none;stroke-width:1;stroke-linecap:butt;stroke-linejoin:miter;stroke:rgb(0%,0%,0%);stroke-opacity:1;stroke-miterlimit:4;" d="M 132.697917 241.401042 L 131 241 " transform="matrix(0.75,0,0,0.75,0,0)"/>
<path style="fill:none;stroke-width:1;stroke-linecap:butt;stroke-linejoin:miter;stroke:rgb(0%,0%,100%);stroke-opacity:1;stroke-miterlimit:4;" d="M 134.098958 238 L 131.401042 237.302083 " transform="matrix(0.75,0,0,0.75,0,0)"/>
<path style="fill:none;stroke-width:2;stroke-linecap:butt;stroke-linejoin:miter;stroke:rgb(0%,0%,100%);stroke-opacity:1;stroke-miterlimit:4;" d="M 136.5 227 L 140.302083 220.697917 " transform="matrix(0.75,0,0,0.75,0,0)"/>
<path style="fill:none;stroke-width:2;stroke-linecap:butt;stroke-linejoin:miter;stroke:rgb(0%,0%,0%);stroke-opacity:1;stroke-miterlimit:4;" d="M 140.302083 220.697917 L 144.098958 214.401042 " transform="matrix(0.75,0,0,0.75,0,0)"/>
<path style="fill:none;stroke-width:2;stroke-linecap:butt;stroke-linejoin:miter;stroke:rgb(0%,0%,0%);stroke-opacity:1;stroke-miterlimit:4;" d="M 145.098958 213.401042 L 138.697917 209.302083 " transform="matrix(0.75,0,0,0.75,0,0)"/>
<path style="fill:none;stroke-width:2;stroke-linecap:butt;stroke-linejoin:miter;stroke:rgb(100%,0%,0%);stroke-opacity:1;stroke-miterlimit:4;" d="M 138.697917 209.302083 L 132.197917 205.197917 " transform="matrix(0.75,0,0,0.75,0,0)"/>
<path style="fill:none;stroke-width:2;stroke-linecap:butt;stroke-linejoin:miter;stroke:rgb(0%,0%,0%);stroke-opacity:1;stroke-miterlimit:4;" d="M 143.302083 215.598958 L 137.197917 211.697917 " transform="matrix(0.75,0,0,0.75,0,0)"/>
<path style="fill:none;stroke-width:2;stroke-linecap:butt;stroke-linejoin:miter;stroke:rgb(100%,0%,0%);stroke-opacity:1;stroke-miterlimit:4;" d="M 137.197917 211.697917 L 130.697917 207.5 " transform="matrix(0.75,0,0,0.75,0,0)"/>
<path style="fill:none;stroke-width:2;stroke-linecap:butt;stroke-linejoin:miter;stroke:rgb(0%,0%,0%);stroke-opacity:1;stroke-miterlimit:4;" d="M 144.098958 214.401042 L 157.802083 202.098958 " transform="matrix(0.75,0,0,0.75,0,0)"/>
<path style="fill:none;stroke-width:2;stroke-linecap:butt;stroke-linejoin:miter;stroke:rgb(0%,0%,0%);stroke-opacity:1;stroke-miterlimit:4;" d="M 157.802083 202.098958 L 145.302083 188.5 " transform="matrix(0.75,0,0,0.75,0,0)"/>
<path style="fill:none;stroke-width:2;stroke-linecap:butt;stroke-linejoin:miter;stroke:rgb(0%,0%,0%);stroke-opacity:1;stroke-miterlimit:4;" d="M 145.302083 188.5 L 154.302083 172.302083 " transform="matrix(0.75,0,0,0.75,0,0)"/>
<path style="fill-rule:evenodd;fill:rgb(0%,0%,0%);fill-opacity:1;stroke-width:0.5;stroke-linecap:butt;stroke-linejoin:miter;stroke:rgb(0%,0%,0%);stroke-opacity:1;stroke-miterlimit:4;" d="M 154.302083 172.302083 L 150.697917 166.197917 L 152 165.598958 Z M 154.302083 172.302083 " transform="matrix(0.75,0,0,0.75,0,0)"/>
<path style="fill-rule:evenodd;fill:rgb(100%,0%,0%);fill-opacity:1;stroke-width:0.5;stroke-linecap:butt;stroke-linejoin:miter;stroke:rgb(100%,0%,0%);stroke-opacity:1;stroke-miterlimit:4;" d="M 150.697917 166.197917 L 149.697917 158.901042 L 147.098958 160.098958 Z M 150.697917 166.197917 " transform="matrix(0.75,0,0,0.75,0,0)"/>
<path style="fill-rule:evenodd;fill:rgb(100%,0%,0%);fill-opacity:1;stroke-width:0.5;stroke-linecap:butt;stroke-linejoin:miter;stroke:rgb(100%,0%,0%);stroke-opacity:1;stroke-miterlimit:4;" d="M 150.697917 166.197917 L 152 165.598958 L 149.697917 158.901042 Z M 150.697917 166.197917 " transform="matrix(0.75,0,0,0.75,0,0)"/>
<path style="fill:none;stroke-width:2;stroke-linecap:butt;stroke-linejoin:miter;stroke:rgb(0%,0%,0%);stroke-opacity:1;stroke-miterlimit:4;" d="M 154.302083 172.302083 L 172.5 176 " transform="matrix(0.75,0,0,0.75,0,0)"/>
<path style="fill:none;stroke-width:2;stroke-linecap:butt;stroke-linejoin:miter;stroke:rgb(0%,0%,0%);stroke-opacity:1;stroke-miterlimit:4;" d="M 172.5 176 L 173.401042 183.5 " transform="matrix(0.75,0,0,0.75,0,0)"/>
<path style="fill:none;stroke-width:2;stroke-linecap:butt;stroke-linejoin:miter;stroke:rgb(0%,0%,100%);stroke-opacity:1;stroke-miterlimit:4;" d="M 173.401042 183.5 L 174.197917 191.098958 " transform="matrix(0.75,0,0,0.75,0,0)"/>
<path style="fill:none;stroke-width:2;stroke-linecap:butt;stroke-linejoin:miter;stroke:rgb(0%,0%,100%);stroke-opacity:1;stroke-miterlimit:4;" d="M 177.197917 194 L 185.098958 192.901042 " transform="matrix(0.75,0,0,0.75,0,0)"/>
<path style="fill:none;stroke-width:2;stroke-linecap:butt;stroke-linejoin:miter;stroke:rgb(0%,0%,0%);stroke-opacity:1;stroke-miterlimit:4;" d="M 185.098958 192.901042 L 193 191.901042 " transform="matrix(0.75,0,0,0.75,0,0)"/>
<path style="fill:none;stroke-width:2;stroke-linecap:butt;stroke-linejoin:miter;stroke:rgb(0%,0%,0%);stroke-opacity:1;stroke-miterlimit:4;" d="M 194.302083 192.098958 L 194.5 184.401042 " transform="matrix(0.75,0,0,0.75,0,0)"/>
<path style="fill:none;stroke-width:2;stroke-linecap:butt;stroke-linejoin:miter;stroke:rgb(100%,0%,0%);stroke-opacity:1;stroke-miterlimit:4;" d="M 194.5 184.401042 L 194.598958 176.802083 " transform="matrix(0.75,0,0,0.75,0,0)"/>
<path style="fill:none;stroke-width:2;stroke-linecap:butt;stroke-linejoin:miter;stroke:rgb(0%,0%,0%);stroke-opacity:1;stroke-miterlimit:4;" d="M 191.598958 192.098958 L 191.697917 184.401042 " transform="matrix(0.75,0,0,0.75,0,0)"/>
<path style="fill:none;stroke-width:2;stroke-linecap:butt;stroke-linejoin:miter;stroke:rgb(100%,0%,0%);stroke-opacity:1;stroke-miterlimit:4;" d="M 191.697917 184.401042 L 191.802083 176.697917 " transform="matrix(0.75,0,0,0.75,0,0)"/>
<path style="fill:none;stroke-width:2;stroke-linecap:butt;stroke-linejoin:miter;stroke:rgb(0%,0%,0%);stroke-opacity:1;stroke-miterlimit:4;" d="M 193 191.901042 L 211.197917 194.901042 " transform="matrix(0.75,0,0,0.75,0,0)"/>
<path style="fill:none;stroke-width:2;stroke-linecap:butt;stroke-linejoin:miter;stroke:rgb(0%,0%,0%);stroke-opacity:1;stroke-miterlimit:4;" d="M 211.197917 194.901042 L 216.901042 177.401042 " transform="matrix(0.75,0,0,0.75,0,0)"/>
<path style="fill:none;stroke-width:1;stroke-linecap:butt;stroke-linejoin:miter;stroke:rgb(0%,0%,0%);stroke-opacity:1;stroke-miterlimit:4;" d="M 220.5 176.302083 L 220.598958 176.901042 " transform="matrix(0.75,0,0,0.75,0,0)"/>
<path style="fill:none;stroke-width:1;stroke-linecap:butt;stroke-linejoin:miter;stroke:rgb(0%,0%,0%);stroke-opacity:1;stroke-miterlimit:4;" d="M 224.098958 175.302083 L 224.302083 176.401042 " transform="matrix(0.75,0,0,0.75,0,0)"/>
<path style="fill:none;stroke-width:1;stroke-linecap:butt;stroke-linejoin:miter;stroke:rgb(0%,0%,0%);stroke-opacity:1;stroke-miterlimit:4;" d="M 227.598958 174.302083 L 228 175.901042 " transform="matrix(0.75,0,0,0.75,0,0)"/>
<path style="fill:none;stroke-width:1;stroke-linecap:butt;stroke-linejoin:miter;stroke:rgb(0%,0%,0%);stroke-opacity:1;stroke-miterlimit:4;" d="M 231.197917 173.197917 L 231.697917 175.401042 " transform="matrix(0.75,0,0,0.75,0,0)"/>
<path style="fill:none;stroke-width:1;stroke-linecap:butt;stroke-linejoin:miter;stroke:rgb(0%,0%,0%);stroke-opacity:1;stroke-miterlimit:4;" d="M 234.802083 172.197917 L 235.302083 174.901042 " transform="matrix(0.75,0,0,0.75,0,0)"/>
<path style="fill:none;stroke-width:2;stroke-linecap:butt;stroke-linejoin:miter;stroke:rgb(0%,0%,0%);stroke-opacity:1;stroke-miterlimit:4;" d="M 216.901042 177.401042 L 212.302083 172.197917 " transform="matrix(0.75,0,0,0.75,0,0)"/>
<path style="fill:none;stroke-width:2;stroke-linecap:butt;stroke-linejoin:miter;stroke:rgb(100%,0%,0%);stroke-opacity:1;stroke-miterlimit:4;" d="M 212.302083 172.197917 L 207.598958 166.901042 " transform="matrix(0.75,0,0,0.75,0,0)"/>
<path style="fill:none;stroke-width:1;stroke-linecap:butt;stroke-linejoin:miter;stroke:rgb(0%,0%,0%);stroke-opacity:1;stroke-miterlimit:4;" d="M 214.302083 197 L 214.697917 196.197917 " transform="matrix(0.75,0,0,0.75,0,0)"/>
<path style="fill:none;stroke-width:1;stroke-linecap:butt;stroke-linejoin:miter;stroke:rgb(0%,0%,0%);stroke-opacity:1;stroke-miterlimit:4;" d="M 217.401042 199.098958 L 218.197917 197.5 " transform="matrix(0.75,0,0,0.75,0,0)"/>
<path style="fill:none;stroke-width:1;stroke-linecap:butt;stroke-linejoin:miter;stroke:rgb(0%,0%,100%);stroke-opacity:1;stroke-miterlimit:4;" d="M 220.5 201.197917 L 221.802083 198.697917 " transform="matrix(0.75,0,0,0.75,0,0)"/>
<path style="fill:none;stroke-width:2;stroke-linecap:butt;stroke-linejoin:miter;stroke:rgb(0%,0%,100%);stroke-opacity:1;stroke-miterlimit:4;" d="M 231.098958 206.5 L 236.098958 211.302083 " transform="matrix(0.75,0,0,0.75,0,0)"/>
<path style="fill:none;stroke-width:2;stroke-linecap:butt;stroke-linejoin:miter;stroke:rgb(0%,0%,0%);stroke-opacity:1;stroke-miterlimit:4;" d="M 236.098958 211.302083 L 241.098958 216.098958 " transform="matrix(0.75,0,0,0.75,0,0)"/>
<path style="fill:none;stroke-width:2;stroke-linecap:butt;stroke-linejoin:miter;stroke:rgb(0%,0%,0%);stroke-opacity:1;stroke-miterlimit:4;" d="M 241.697917 217.302083 L 247.598958 212.697917 " transform="matrix(0.75,0,0,0.75,0,0)"/>
<path style="fill:none;stroke-width:2;stroke-linecap:butt;stroke-linejoin:miter;stroke:rgb(100%,0%,0%);stroke-opacity:1;stroke-miterlimit:4;" d="M 247.598958 212.697917 L 253.5 208.197917 " transform="matrix(0.75,0,0,0.75,0,0)"/>
<path style="fill:none;stroke-width:2;stroke-linecap:butt;stroke-linejoin:miter;stroke:rgb(0%,0%,0%);stroke-opacity:1;stroke-miterlimit:4;" d="M 240 215.098958 L 245.901042 210.598958 " transform="matrix(0.75,0,0,0.75,0,0)"/>
<path style="fill:none;stroke-width:2;stroke-linecap:butt;stroke-linejoin:miter;stroke:rgb(100%,0%,0%);stroke-opacity:1;stroke-miterlimit:4;" d="M 245.901042 210.598958 L 251.802083 206 " transform="matrix(0.75,0,0,0.75,0,0)"/>
<path style="fill:none;stroke-width:2;stroke-linecap:butt;stroke-linejoin:miter;stroke:rgb(0%,0%,0%);stroke-opacity:1;stroke-miterlimit:4;" d="M 241.098958 216.098958 L 250 232.197917 " transform="matrix(0.75,0,0,0.75,0,0)"/>
<path style="fill:none;stroke-width:2;stroke-linecap:butt;stroke-linejoin:miter;stroke:rgb(0%,0%,100%);stroke-opacity:1;stroke-miterlimit:4;" d="M 184.197917 315.098958 L 192.098958 315.302083 " transform="matrix(0.75,0,0,0.75,0,0)"/>
<path style="fill:none;stroke-width:2;stroke-linecap:butt;stroke-linejoin:miter;stroke:rgb(0%,0%,0%);stroke-opacity:1;stroke-miterlimit:4;" d="M 192.098958 315.302083 L 200.098958 315.401042 " transform="matrix(0.75,0,0,0.75,0,0)"/>
<path style="fill:none;stroke-width:2;stroke-linecap:butt;stroke-linejoin:miter;stroke:rgb(0%,0%,0%);stroke-opacity:1;stroke-miterlimit:4;" d="M 74.901042 243.098958 L 85.5 228 " transform="matrix(0.75,0,0,0.75,0,0)"/>
<path style="fill:none;stroke-width:2;stroke-linecap:butt;stroke-linejoin:miter;stroke:rgb(0%,0%,100%);stroke-opacity:1;stroke-miterlimit:4;" d="M 172 195.5 L 164.901042 198.802083 " transform="matrix(0.75,0,0,0.75,0,0)"/>
<path style="fill:none;stroke-width:2;stroke-linecap:butt;stroke-linejoin:miter;stroke:rgb(0%,0%,0%);stroke-opacity:1;stroke-miterlimit:4;" d="M 164.901042 198.802083 L 157.802083 202.098958 " transform="matrix(0.75,0,0,0.75,0,0)"/>
<path style="fill-rule:evenodd;fill:rgb(0%,0%,0%);fill-opacity:1;stroke-width:0.5;stroke-linecap:butt;stroke-linejoin:miter;stroke:rgb(0%,0%,0%);stroke-opacity:1;stroke-miterlimit:4;" d="M 200.098958 315.401042 L 212.697917 322.697917 L 211.098958 324.901042 Z M 200.098958 315.401042 " transform="matrix(0.75,0,0,0.75,0,0)"/>
<path style="fill-rule:evenodd;fill:rgb(0%,0%,0%);fill-opacity:1;stroke-width:0.5;stroke-linecap:butt;stroke-linejoin:miter;stroke:rgb(0%,0%,0%);stroke-opacity:1;stroke-miterlimit:4;" d="M 157.802083 202.098958 L 142.598958 200.901042 L 143.098958 198.098958 Z M 157.802083 202.098958 " transform="matrix(0.75,0,0,0.75,0,0)"/>
<path style="fill:none;stroke-width:2;stroke-linecap:butt;stroke-linejoin:miter;stroke:rgb(0%,0%,0%);stroke-opacity:1;stroke-miterlimit:4;" d="M 460.802083 239.098958 L 459.901042 239.401042 L 459.197917 238.901042 " transform="matrix(0.75,0,0,0.75,0,0)"/>
<path style="fill:none;stroke-width:2;stroke-linecap:butt;stroke-linejoin:miter;stroke:rgb(0%,0%,0%);stroke-opacity:1;stroke-miterlimit:4;" d="M 446.401042 228.302083 L 445.697917 227.697917 L 444.802083 228 " transform="matrix(0.75,0,0,0.75,0,0)"/>
<path style="fill:none;stroke-width:2;stroke-linecap:butt;stroke-linejoin:miter;stroke:rgb(0%,0%,0%);stroke-opacity:1;stroke-miterlimit:4;" d="M 429.197917 233.802083 L 428.401042 234.098958 L 428.197917 235 " transform="matrix(0.75,0,0,0.75,0,0)"/>
<path style="fill:none;stroke-width:2;stroke-linecap:butt;stroke-linejoin:miter;stroke:rgb(0%,0%,0%);stroke-opacity:1;stroke-miterlimit:4;" d="M 425.401042 251.5 L 425.302083 252.401042 L 424.401042 252.697917 " transform="matrix(0.75,0,0,0.75,0,0)"/>
<path style="fill:none;stroke-width:2;stroke-linecap:butt;stroke-linejoin:miter;stroke:rgb(0%,0%,0%);stroke-opacity:1;stroke-miterlimit:4;" d="M 408.802083 258.5 L 408 258.802083 L 407.197917 258.197917 " transform="matrix(0.75,0,0,0.75,0,0)"/>
<path style="fill:none;stroke-width:2;stroke-linecap:butt;stroke-linejoin:miter;stroke:rgb(0%,0%,0%);stroke-opacity:1;stroke-miterlimit:4;" d="M 394.401042 247.598958 L 393.697917 247.098958 L 392.802083 247.401042 " transform="matrix(0.75,0,0,0.75,0,0)"/>
<path style="fill:none;stroke-width:2;stroke-linecap:butt;stroke-linejoin:miter;stroke:rgb(0%,0%,0%);stroke-opacity:1;stroke-miterlimit:4;" d="M 377.197917 253.197917 L 376.401042 253.5 L 375.697917 252.901042 " transform="matrix(0.75,0,0,0.75,0,0)"/>
<path style="fill:none;stroke-width:2;stroke-linecap:butt;stroke-linejoin:miter;stroke:rgb(0%,0%,0%);stroke-opacity:1;stroke-miterlimit:4;" d="M 362.802083 242.302083 L 362.098958 241.697917 L 361.197917 242.098958 " transform="matrix(0.75,0,0,0.75,0,0)"/>
<path style="fill:none;stroke-width:2;stroke-linecap:butt;stroke-linejoin:miter;stroke:rgb(0%,0%,0%);stroke-opacity:1;stroke-miterlimit:4;" d="M 345.697917 247.901042 L 344.802083 248.197917 L 344.098958 247.598958 " transform="matrix(0.75,0,0,0.75,0,0)"/>
<path style="fill:none;stroke-width:2;stroke-linecap:butt;stroke-linejoin:miter;stroke:rgb(0%,0%,0%);stroke-opacity:1;stroke-miterlimit:4;" d="M 331.197917 237 L 330.5 236.401042 L 329.697917 236.697917 " transform="matrix(0.75,0,0,0.75,0,0)"/>
<path style="fill:none;stroke-width:2;stroke-linecap:butt;stroke-linejoin:miter;stroke:rgb(0%,0%,0%);stroke-opacity:1;stroke-miterlimit:4;" d="M 314.098958 242.598958 L 313.197917 242.901042 L 312.5 242.302083 " transform="matrix(0.75,0,0,0.75,0,0)"/>
<path style="fill:none;stroke-width:2;stroke-linecap:butt;stroke-linejoin:miter;stroke:rgb(0%,0%,0%);stroke-opacity:1;stroke-miterlimit:4;" d="M 299.697917 231.697917 L 298.901042 231.098958 L 298.098958 231.401042 " transform="matrix(0.75,0,0,0.75,0,0)"/>
<path style="fill:none;stroke-width:2;stroke-linecap:butt;stroke-linejoin:miter;stroke:rgb(0%,0%,0%);stroke-opacity:1;stroke-miterlimit:4;" d="M 282.5 237.197917 L 281.598958 237.598958 L 281.302083 237.302083 " transform="matrix(0.75,0,0,0.75,0,0)"/>
<path style="fill:none;stroke-width:2;stroke-linecap:butt;stroke-linejoin:miter;stroke:rgb(0%,0%,0%);stroke-opacity:1;stroke-miterlimit:4;" d="M 250.197917 233 L 250 232.197917 L 249.598958 231.401042 " transform="matrix(0.75,0,0,0.75,0,0)"/>
<path style="fill:none;stroke-width:2;stroke-linecap:butt;stroke-linejoin:miter;stroke:rgb(0%,0%,0%);stroke-opacity:1;stroke-miterlimit:4;" d="M 252.197917 268 L 252.098958 268.802083 L 251.802083 269.598958 " transform="matrix(0.75,0,0,0.75,0,0)"/>
<path style="fill:none;stroke-width:2;stroke-linecap:butt;stroke-linejoin:miter;stroke:rgb(0%,0%,0%);stroke-opacity:1;stroke-miterlimit:4;" d="M 245.401042 285 L 245.098958 285.802083 L 244.901042 286.098958 " transform="matrix(0.75,0,0,0.75,0,0)"/>
<path style="fill:none;stroke-width:2;stroke-linecap:butt;stroke-linejoin:miter;stroke:rgb(0%,0%,0%);stroke-opacity:1;stroke-miterlimit:4;" d="M 260.598958 313.5 L 260.598958 313.901042 L 261.401042 314.302083 " transform="matrix(0.75,0,0,0.75,0,0)"/>
<path style="fill:none;stroke-width:2;stroke-linecap:butt;stroke-linejoin:miter;stroke:rgb(0%,0%,0%);stroke-opacity:1;stroke-miterlimit:4;" d="M 275.697917 322.901042 L 276.5 323.401042 L 276.5 323.802083 " transform="matrix(0.75,0,0,0.75,0,0)"/>
<path style="fill:none;stroke-width:2;stroke-linecap:butt;stroke-linejoin:miter;stroke:rgb(0%,0%,0%);stroke-opacity:1;stroke-miterlimit:4;" d="M 218.197917 310 L 217.802083 310.302083 L 217 310.5 " transform="matrix(0.75,0,0,0.75,0,0)"/>
<path style="fill:none;stroke-width:2;stroke-linecap:butt;stroke-linejoin:miter;stroke:rgb(0%,0%,0%);stroke-opacity:1;stroke-miterlimit:4;" d="M 205.197917 332.197917 L 205.5 333.098958 L 204.697917 333.598958 " transform="matrix(0.75,0,0,0.75,0,0)"/>
<path style="fill:none;stroke-width:2;stroke-linecap:butt;stroke-linejoin:miter;stroke:rgb(0%,0%,0%);stroke-opacity:1;stroke-miterlimit:4;" d="M 191.098958 343.197917 L 190.302083 343.697917 L 189.598958 343.098958 " transform="matrix(0.75,0,0,0.75,0,0)"/>
<path style="fill:none;stroke-width:2;stroke-linecap:butt;stroke-linejoin:miter;stroke:rgb(0%,0%,0%);stroke-opacity:1;stroke-miterlimit:4;" d="M 176.302083 333.098958 L 175.598958 332.598958 L 175.697917 332.197917 " transform="matrix(0.75,0,0,0.75,0,0)"/>
<path style="fill:none;stroke-width:2;stroke-linecap:butt;stroke-linejoin:miter;stroke:rgb(0%,0%,0%);stroke-opacity:1;stroke-miterlimit:4;" d="M 164.401042 309.5 L 164 309.302083 L 163.302083 308.802083 " transform="matrix(0.75,0,0,0.75,0,0)"/>
<path style="fill:none;stroke-width:2;stroke-linecap:butt;stroke-linejoin:miter;stroke:rgb(0%,0%,0%);stroke-opacity:1;stroke-miterlimit:4;" d="M 149.697917 299.197917 L 148.901042 298.697917 L 148.302083 299.302083 " transform="matrix(0.75,0,0,0.75,0,0)"/>
<path style="fill:none;stroke-width:2;stroke-linecap:butt;stroke-linejoin:miter;stroke:rgb(0%,0%,0%);stroke-opacity:1;stroke-miterlimit:4;" d="M 136.697917 311.302083 L 136.098958 312 L 135.197917 311.802083 " transform="matrix(0.75,0,0,0.75,0,0)"/>
<path style="fill:none;stroke-width:2;stroke-linecap:butt;stroke-linejoin:miter;stroke:rgb(0%,0%,0%);stroke-opacity:1;stroke-miterlimit:4;" d="M 119.098958 307.802083 L 118.197917 307.598958 L 117.5 308.197917 " transform="matrix(0.75,0,0,0.75,0,0)"/>
<path style="fill:none;stroke-width:2;stroke-linecap:butt;stroke-linejoin:miter;stroke:rgb(0%,0%,0%);stroke-opacity:1;stroke-miterlimit:4;" d="M 106 320.197917 L 105.302083 320.901042 L 105 320.802083 " transform="matrix(0.75,0,0,0.75,0,0)"/>
<path style="fill:none;stroke-width:2;stroke-linecap:butt;stroke-linejoin:miter;stroke:rgb(0%,0%,0%);stroke-opacity:1;stroke-miterlimit:4;" d="M 131.302083 267 L 131.197917 266.697917 L 131.098958 265.697917 " transform="matrix(0.75,0,0,0.75,0,0)"/>
<path style="fill:none;stroke-width:2;stroke-linecap:butt;stroke-linejoin:miter;stroke:rgb(0%,0%,0%);stroke-opacity:1;stroke-miterlimit:4;" d="M 130.197917 249.098958 L 130.098958 248.197917 L 129.197917 248.098958 " transform="matrix(0.75,0,0,0.75,0,0)"/>
<path style="fill:none;stroke-width:2;stroke-linecap:butt;stroke-linejoin:miter;stroke:rgb(0%,0%,0%);stroke-opacity:1;stroke-miterlimit:4;" d="M 112.598958 246.598958 L 111.697917 246.5 L 111.302083 245.697917 " transform="matrix(0.75,0,0,0.75,0,0)"/>
<path style="fill:none;stroke-width:2;stroke-linecap:butt;stroke-linejoin:miter;stroke:rgb(0%,0%,0%);stroke-opacity:1;stroke-miterlimit:4;" d="M 104.401042 230.598958 L 104 229.697917 L 103 229.598958 " transform="matrix(0.75,0,0,0.75,0,0)"/>
<path style="fill:none;stroke-width:2;stroke-linecap:butt;stroke-linejoin:miter;stroke:rgb(0%,0%,0%);stroke-opacity:1;stroke-miterlimit:4;" d="M 78.197917 212.098958 L 77.802083 211.197917 L 76.901042 211.098958 " transform="matrix(0.75,0,0,0.75,0,0)"/>
<path style="fill:none;stroke-width:2;stroke-linecap:butt;stroke-linejoin:miter;stroke:rgb(0%,0%,0%);stroke-opacity:1;stroke-miterlimit:4;" d="M 60.302083 209.598958 L 59.401042 209.5 L 58.901042 210.302083 " transform="matrix(0.75,0,0,0.75,0,0)"/>
<path style="fill:none;stroke-width:2;stroke-linecap:butt;stroke-linejoin:miter;stroke:rgb(0%,0%,0%);stroke-opacity:1;stroke-miterlimit:4;" d="M 56.098958 240.598958 L 56.5 241.401042 L 57.401042 241.5 " transform="matrix(0.75,0,0,0.75,0,0)"/>
<path style="fill:none;stroke-width:2;stroke-linecap:butt;stroke-linejoin:miter;stroke:rgb(0%,0%,0%);stroke-opacity:1;stroke-miterlimit:4;" d="M 73.901042 243 L 74.901042 243.098958 L 75.401042 242.401042 " transform="matrix(0.75,0,0,0.75,0,0)"/>
<path style="fill:none;stroke-width:2;stroke-linecap:butt;stroke-linejoin:miter;stroke:rgb(0%,0%,0%);stroke-opacity:1;stroke-miterlimit:4;" d="M 143.901042 214.697917 L 144.098958 214.401042 L 144.697917 213.802083 " transform="matrix(0.75,0,0,0.75,0,0)"/>
<path style="fill:none;stroke-width:2;stroke-linecap:butt;stroke-linejoin:miter;stroke:rgb(0%,0%,0%);stroke-opacity:1;stroke-miterlimit:4;" d="M 145.901042 189.098958 L 145.302083 188.5 L 145.697917 187.697917 " transform="matrix(0.75,0,0,0.75,0,0)"/>
<path style="fill:none;stroke-width:2;stroke-linecap:butt;stroke-linejoin:miter;stroke:rgb(0%,0%,0%);stroke-opacity:1;stroke-miterlimit:4;" d="M 153.901042 173.098958 L 154.302083 172.302083 L 155.197917 172.5 " transform="matrix(0.75,0,0,0.75,0,0)"/>
<path style="fill:none;stroke-width:2;stroke-linecap:butt;stroke-linejoin:miter;stroke:rgb(0%,0%,0%);stroke-opacity:1;stroke-miterlimit:4;" d="M 171.598958 175.802083 L 172.5 176 L 172.5 176.302083 " transform="matrix(0.75,0,0,0.75,0,0)"/>
<path style="fill:none;stroke-width:2;stroke-linecap:butt;stroke-linejoin:miter;stroke:rgb(0%,0%,0%);stroke-opacity:1;stroke-miterlimit:4;" d="M 192.598958 191.901042 L 193 191.901042 L 193.901042 192 " transform="matrix(0.75,0,0,0.75,0,0)"/>
<path style="fill:none;stroke-width:2;stroke-linecap:butt;stroke-linejoin:miter;stroke:rgb(0%,0%,0%);stroke-opacity:1;stroke-miterlimit:4;" d="M 210.302083 194.802083 L 211.197917 194.901042 L 211.5 194.098958 " transform="matrix(0.75,0,0,0.75,0,0)"/>
<path style="fill:none;stroke-width:2;stroke-linecap:butt;stroke-linejoin:miter;stroke:rgb(0%,0%,0%);stroke-opacity:1;stroke-miterlimit:4;" d="M 216.697917 178.302083 L 216.901042 177.401042 L 216.697917 177.098958 " transform="matrix(0.75,0,0,0.75,0,0)"/>
<path style="fill:none;stroke-width:2;stroke-linecap:butt;stroke-linejoin:miter;stroke:rgb(0%,0%,0%);stroke-opacity:1;stroke-miterlimit:4;" d="M 240.802083 215.802083 L 241.098958 216.098958 L 241.5 216.901042 " transform="matrix(0.75,0,0,0.75,0,0)"/>
<path style=" stroke:none;fill-rule:nonzero;fill:rgb(100%,0%,0%);fill-opacity:1;" d="M 207.074219 191.851562 C 207.074219 191.25 207.25 190.75 207.601562 190.351562 C 207.898438 190 208.324219 189.824219 208.875 189.824219 C 209.476562 189.824219 209.925781 190 210.226562 190.351562 C 210.523438 190.75 210.675781 191.25 210.675781 191.851562 C 210.675781 192.5 210.523438 193 210.226562 193.351562 C 209.925781 193.699219 209.476562 193.875 208.875 193.875 C 208.324219 193.875 207.898438 193.699219 207.601562 193.351562 C 207.25 193 207.074219 192.5 207.074219 191.851562 M 208.875 193.425781 C 209.273438 193.425781 209.601562 193.300781 209.851562 193.050781 C 210.050781 192.800781 210.148438 192.398438 210.148438 191.851562 C 210.148438 191.351562 210.050781 190.976562 209.851562 190.726562 C 209.601562 190.425781 209.273438 190.273438 208.875 190.273438 C 208.476562 190.273438 208.175781 190.425781 207.976562 190.726562 C 207.773438 190.976562 207.675781 191.351562 207.675781 191.851562 C 207.675781 192.398438 207.773438 192.800781 207.976562 193.050781 C 208.175781 193.300781 208.476562 193.425781 208.875 193.425781 "/>
<path style=" stroke:none;fill-rule:nonzero;fill:rgb(0%,0%,100%);fill-opacity:1;" d="M 199.648438 167.398438 L 200.925781 169.425781 C 201.023438 169.574219 201.148438 169.773438 201.300781 170.023438 C 201.398438 170.273438 201.449219 170.398438 201.449219 170.398438 L 201.449219 167.398438 L 201.976562 167.398438 L 201.976562 171.300781 L 201.449219 171.300781 L 200.101562 169.050781 C 200 168.851562 199.875 168.648438 199.726562 168.449219 C 199.625 168.25 199.550781 168.125 199.5 168.074219 L 199.5 171.300781 L 199.050781 171.300781 L 199.050781 167.398438 L 199.648438 167.398438 "/>
<path style=" stroke:none;fill-rule:nonzero;fill:rgb(0%,0%,100%);fill-opacity:1;" d="M 198.976562 163.050781 L 199.5 163.050781 L 199.5 164.699219 L 201.523438 164.699219 L 201.523438 163.050781 L 202.050781 163.050781 L 202.050781 166.949219 L 201.523438 166.949219 L 201.523438 165.148438 L 199.5 165.148438 L 199.5 166.949219 L 198.976562 166.949219 L 198.976562 163.050781 "/>
<path style=" stroke:none;fill-rule:nonzero;fill:rgb(0%,0%,0%);fill-opacity:1;" d="M 188.851562 187.800781 C 188.851562 187.148438 189 186.648438 189.300781 186.300781 C 189.601562 185.949219 190.050781 185.773438 190.648438 185.773438 C 191.199219 185.773438 191.601562 185.976562 191.851562 186.375 L 191.550781 186.601562 C 191.300781 186.351562 191 186.226562 190.648438 186.226562 C 190.25 186.226562 189.949219 186.351562 189.75 186.601562 C 189.550781 186.898438 189.449219 187.300781 189.449219 187.800781 C 189.449219 188.300781 189.550781 188.675781 189.75 188.925781 C 189.949219 189.226562 190.273438 189.375 190.726562 189.375 C 191.023438 189.375 191.324219 189.273438 191.625 189.074219 L 191.773438 189.523438 C 191.675781 189.574219 191.5 189.625 191.25 189.675781 C 191.050781 189.773438 190.851562 189.824219 190.648438 189.824219 C 190.050781 189.824219 189.601562 189.648438 189.300781 189.300781 C 189 188.949219 188.851562 188.449219 188.851562 187.800781 "/>
<path style=" stroke:none;fill-rule:nonzero;fill:rgb(100%,0%,0%);fill-opacity:1;" d="M 200.773438 204.898438 C 200.773438 204.25 200.925781 203.75 201.226562 203.398438 C 201.523438 203.050781 201.976562 202.875 202.574219 202.875 C 203.125 202.875 203.574219 203.050781 203.925781 203.398438 C 204.226562 203.75 204.375 204.25 204.375 204.898438 C 204.375 205.550781 204.226562 206.050781 203.925781 206.398438 C 203.574219 206.75 203.125 206.925781 202.574219 206.925781 C 201.976562 206.925781 201.523438 206.75 201.226562 206.398438 C 200.925781 206.050781 200.773438 205.550781 200.773438 204.898438 M 202.574219 206.476562 C 202.976562 206.476562 203.273438 206.351562 203.476562 206.101562 C 203.726562 205.800781 203.851562 205.398438 203.851562 204.898438 C 203.851562 204.398438 203.726562 204 203.476562 203.699219 C 203.273438 203.449219 202.976562 203.324219 202.574219 203.324219 C 202.175781 203.324219 201.875 203.449219 201.675781 203.699219 C 201.425781 204 201.300781 204.398438 201.300781 204.898438 C 201.300781 205.398438 201.425781 205.800781 201.675781 206.101562 C 201.875 206.351562 202.175781 206.476562 202.574219 206.476562 "/>
<path style=" stroke:none;fill-rule:nonzero;fill:rgb(100%,0%,0%);fill-opacity:1;" d="M 204.976562 202.949219 L 205.5 202.949219 L 205.5 204.601562 L 207.523438 204.601562 L 207.523438 202.949219 L 208.050781 202.949219 L 208.050781 206.851562 L 207.523438 206.851562 L 207.523438 205.050781 L 205.5 205.050781 L 205.5 206.851562 L 204.976562 206.851562 L 204.976562 202.949219 "/>
<path style=" stroke:none;fill-rule:nonzero;fill:rgb(0%,0%,100%);fill-opacity:1;" d="M 194.851562 219.523438 L 196.125 221.625 C 196.226562 221.773438 196.324219 221.976562 196.425781 222.226562 C 196.574219 222.476562 196.648438 222.601562 196.648438 222.601562 L 196.648438 219.523438 L 197.175781 219.523438 L 197.175781 223.5 L 196.648438 223.5 L 195.300781 221.25 C 195.148438 221.050781 195.023438 220.851562 194.925781 220.648438 C 194.824219 220.449219 194.75 220.324219 194.699219 220.273438 L 194.699219 223.5 L 194.175781 223.5 L 194.175781 219.523438 L 194.851562 219.523438 "/>
<path style=" stroke:none;fill-rule:nonzero;fill:rgb(0%,0%,100%);fill-opacity:1;" d="M 197.925781 219.523438 L 198.449219 219.523438 L 198.449219 221.25 L 200.476562 221.25 L 200.476562 219.523438 L 201 219.523438 L 201 223.5 L 200.476562 223.5 L 200.476562 221.699219 L 198.449219 221.699219 L 198.449219 223.5 L 197.925781 223.5 L 197.925781 219.523438 "/>
<path style=" stroke:none;fill-rule:nonzero;fill:rgb(0%,0%,100%);fill-opacity:1;" d="M 206.25 254.476562 L 207.523438 256.5 C 207.625 256.648438 207.75 256.851562 207.898438 257.101562 C 208 257.351562 208.050781 257.476562 208.050781 257.476562 L 208.050781 254.476562 L 208.574219 254.476562 L 208.574219 258.375 L 208.050781 258.375 L 206.699219 256.125 C 206.601562 255.925781 206.476562 255.726562 206.324219 255.523438 C 206.226562 255.324219 206.148438 255.199219 206.101562 255.148438 L 206.101562 258.375 L 205.648438 258.375 L 205.648438 254.476562 L 206.25 254.476562 "/>
<path style=" stroke:none;fill-rule:nonzero;fill:rgb(0%,0%,100%);fill-opacity:1;" d="M 209.324219 254.476562 L 209.851562 254.476562 L 209.851562 256.125 L 211.875 256.125 L 211.875 254.476562 L 212.398438 254.476562 L 212.398438 258.375 L 211.875 258.375 L 211.875 256.574219 L 209.851562 256.574219 L 209.851562 258.375 L 209.324219 258.375 L 209.324219 254.476562 "/>
<path style=" stroke:none;fill-rule:nonzero;fill:rgb(0%,0%,100%);fill-opacity:1;" d="M 213.226562 258.226562 C 213.273438 258.074219 213.375 257.949219 213.523438 257.851562 C 213.675781 257.75 213.851562 257.699219 214.050781 257.699219 C 214.300781 257.699219 214.5 257.773438 214.648438 257.925781 C 214.800781 258.074219 214.875 258.273438 214.875 258.523438 C 214.875 258.773438 214.773438 259.023438 214.574219 259.273438 C 214.425781 259.476562 214.148438 259.726562 213.75 260.023438 L 214.949219 260.023438 L 214.949219 260.324219 L 213.226562 260.324219 L 213.226562 260.101562 C 213.523438 259.851562 213.773438 259.648438 213.976562 259.5 C 214.175781 259.300781 214.300781 259.125 214.351562 258.976562 C 214.449219 258.824219 214.5 258.675781 214.5 258.523438 C 214.5 258.375 214.476562 258.25 214.425781 258.148438 C 214.324219 258.050781 214.199219 258 214.050781 258 C 213.898438 258 213.800781 258.023438 213.75 258.074219 C 213.648438 258.125 213.550781 258.226562 213.449219 258.375 L 213.226562 258.226562 "/>
<path style=" stroke:none;fill-rule:nonzero;fill:rgb(0%,0%,100%);fill-opacity:1;" d="M 174.074219 223.125 L 175.425781 225.226562 C 175.476562 225.324219 175.574219 225.5 175.726562 225.75 C 175.875 226 175.949219 226.148438 175.949219 226.199219 L 175.949219 223.125 L 176.476562 223.125 L 176.476562 227.023438 L 175.949219 227.023438 L 174.523438 224.773438 C 174.425781 224.574219 174.324219 224.375 174.226562 224.175781 C 174.125 223.976562 174.050781 223.851562 174 223.800781 L 174 227.023438 L 173.476562 227.023438 L 173.476562 223.125 L 174.074219 223.125 "/>
<path style=" stroke:none;fill-rule:nonzero;fill:rgb(0%,0%,100%);fill-opacity:1;" d="M 177.226562 223.125 L 177.75 223.125 L 177.75 224.773438 L 179.773438 224.773438 L 179.773438 223.125 L 180.300781 223.125 L 180.300781 227.023438 L 179.773438 227.023438 L 179.773438 225.226562 L 177.75 225.226562 L 177.75 227.023438 L 177.226562 227.023438 L 177.226562 223.125 "/>
<path style=" stroke:none;fill-rule:nonzero;fill:rgb(100%,0%,0%);fill-opacity:1;" d="M 168.898438 244.5 C 168.898438 243.851562 169.050781 243.351562 169.351562 243 C 169.648438 242.648438 170.101562 242.476562 170.699219 242.476562 C 171.25 242.476562 171.699219 242.648438 172.050781 243 C 172.351562 243.351562 172.5 243.851562 172.5 244.5 C 172.5 245.148438 172.324219 245.648438 171.976562 246 C 171.675781 246.351562 171.25 246.523438 170.699219 246.523438 C 170.101562 246.523438 169.648438 246.351562 169.351562 246 C 169.050781 245.648438 168.898438 245.148438 168.898438 244.5 M 170.699219 246.074219 C 171.101562 246.074219 171.398438 245.949219 171.601562 245.699219 C 171.800781 245.449219 171.898438 245.050781 171.898438 244.5 C 171.898438 244 171.800781 243.625 171.601562 243.375 C 171.398438 243.074219 171.101562 242.925781 170.699219 242.925781 C 170.300781 242.925781 169.976562 243.050781 169.726562 243.300781 C 169.523438 243.601562 169.425781 244 169.425781 244.5 C 169.425781 245.050781 169.523438 245.449219 169.726562 245.699219 C 169.976562 245.949219 170.300781 246.074219 170.699219 246.074219 "/>
<path style=" stroke:none;fill-rule:nonzero;fill:rgb(100%,0%,0%);fill-opacity:1;" d="M 165.449219 254.324219 C 165.449219 253.726562 165.601562 253.25 165.898438 252.898438 C 166.199219 252.550781 166.648438 252.375 167.25 252.375 C 167.800781 252.375 168.25 252.550781 168.601562 252.898438 C 168.898438 253.25 169.050781 253.726562 169.050781 254.324219 C 169.050781 254.976562 168.898438 255.476562 168.601562 255.824219 C 168.25 256.175781 167.800781 256.351562 167.25 256.351562 C 166.648438 256.351562 166.199219 256.175781 165.898438 255.824219 C 165.601562 255.476562 165.449219 254.976562 165.449219 254.324219 M 167.25 255.898438 C 167.648438 255.898438 167.949219 255.773438 168.148438 255.523438 C 168.351562 255.273438 168.449219 254.875 168.449219 254.324219 C 168.449219 253.824219 168.351562 253.449219 168.148438 253.199219 C 167.949219 252.898438 167.648438 252.75 167.25 252.75 C 166.851562 252.75 166.523438 252.898438 166.273438 253.199219 C 166.074219 253.449219 165.976562 253.824219 165.976562 254.324219 C 165.976562 254.875 166.074219 255.273438 166.273438 255.523438 C 166.523438 255.773438 166.851562 255.898438 167.25 255.898438 "/>
<path style=" stroke:none;fill-rule:nonzero;fill:rgb(100%,0%,0%);fill-opacity:1;" d="M 169.648438 252.375 L 170.175781 252.375 L 170.175781 254.023438 L 172.199219 254.023438 L 172.199219 252.375 L 172.726562 252.375 L 172.726562 256.351562 L 172.199219 256.351562 L 172.199219 254.476562 L 170.175781 254.476562 L 170.175781 256.351562 L 169.648438 256.351562 L 169.648438 252.375 "/>
<path style=" stroke:none;fill-rule:nonzero;fill:rgb(0%,0%,100%);fill-opacity:1;" d="M 135.300781 234.375 L 136.648438 236.398438 C 136.699219 236.550781 136.800781 236.75 136.949219 237 C 137.101562 237.25 137.175781 237.375 137.175781 237.375 L 137.175781 234.375 L 137.699219 234.375 L 137.699219 238.273438 L 137.175781 238.273438 L 135.75 236.023438 C 135.648438 235.824219 135.550781 235.625 135.449219 235.425781 C 135.351562 235.226562 135.273438 235.101562 135.226562 235.050781 L 135.226562 238.273438 L 134.699219 238.273438 L 134.699219 234.375 L 135.300781 234.375 "/>
<path style=" stroke:none;fill-rule:nonzero;fill:rgb(100%,0%,0%);fill-opacity:1;" d="M 114.976562 244.425781 C 114.976562 243.773438 115.125 243.273438 115.425781 242.925781 C 115.726562 242.574219 116.175781 242.398438 116.773438 242.398438 C 117.375 242.398438 117.824219 242.574219 118.125 242.925781 C 118.425781 243.273438 118.574219 243.773438 118.574219 244.425781 C 118.574219 245.023438 118.425781 245.523438 118.125 245.925781 C 117.824219 246.273438 117.375 246.449219 116.773438 246.449219 C 116.226562 246.449219 115.773438 246.273438 115.425781 245.925781 C 115.125 245.523438 114.976562 245.023438 114.976562 244.425781 M 116.773438 246 C 117.175781 246 117.476562 245.875 117.675781 245.625 C 117.925781 245.324219 118.050781 244.925781 118.050781 244.425781 C 118.050781 243.875 117.925781 243.476562 117.675781 243.226562 C 117.476562 242.976562 117.175781 242.851562 116.773438 242.851562 C 116.375 242.851562 116.074219 242.976562 115.875 243.226562 C 115.625 243.476562 115.5 243.875 115.5 244.425781 C 115.5 244.925781 115.625 245.324219 115.875 245.625 C 116.074219 245.875 116.375 246 116.773438 246 "/>
<path style=" stroke:none;fill-rule:nonzero;fill:rgb(100%,0%,0%);fill-opacity:1;" d="M 104.175781 247.351562 C 104.175781 246.699219 104.324219 246.199219 104.625 245.851562 C 104.925781 245.5 105.375 245.324219 105.976562 245.324219 C 106.523438 245.324219 106.949219 245.5 107.25 245.851562 C 107.601562 246.199219 107.773438 246.699219 107.773438 247.351562 C 107.773438 247.949219 107.601562 248.449219 107.25 248.851562 C 106.949219 249.199219 106.523438 249.375 105.976562 249.375 C 105.375 249.375 104.925781 249.199219 104.625 248.851562 C 104.324219 248.5 104.175781 248 104.175781 247.351562 M 105.976562 248.925781 C 106.375 248.925781 106.675781 248.800781 106.875 248.550781 C 107.074219 248.25 107.175781 247.851562 107.175781 247.351562 C 107.175781 246.800781 107.074219 246.398438 106.875 246.148438 C 106.675781 245.898438 106.375 245.773438 105.976562 245.773438 C 105.574219 245.773438 105.25 245.898438 105 246.148438 C 104.800781 246.398438 104.699219 246.800781 104.699219 247.351562 C 104.699219 247.851562 104.800781 248.25 105 248.550781 C 105.25 248.800781 105.574219 248.925781 105.976562 248.925781 "/>
<path style=" stroke:none;fill-rule:nonzero;fill:rgb(100%,0%,0%);fill-opacity:1;" d="M 108.375 245.398438 L 108.898438 245.398438 L 108.898438 247.050781 L 110.925781 247.050781 L 110.925781 245.398438 L 111.449219 245.398438 L 111.449219 249.300781 L 110.925781 249.300781 L 110.925781 247.5 L 108.898438 247.5 L 108.898438 249.300781 L 108.375 249.300781 L 108.375 245.398438 "/>
<path style=" stroke:none;fill-rule:nonzero;fill:rgb(0%,0%,100%);fill-opacity:1;" d="M 57.976562 235.425781 L 58.5 235.425781 L 58.5 237.074219 L 60.523438 237.074219 L 60.523438 235.425781 L 61.050781 235.425781 L 61.050781 239.324219 L 60.523438 239.324219 L 60.523438 237.523438 L 58.5 237.523438 L 58.5 239.324219 L 57.976562 239.324219 L 57.976562 235.425781 "/>
<path style=" stroke:none;fill-rule:nonzero;fill:rgb(0%,0%,100%);fill-opacity:1;" d="M 61.800781 239.175781 C 61.851562 239.023438 61.949219 238.898438 62.101562 238.800781 C 62.25 238.699219 62.449219 238.648438 62.699219 238.648438 C 62.949219 238.648438 63.148438 238.726562 63.300781 238.875 C 63.449219 239.023438 63.523438 239.226562 63.523438 239.476562 C 63.523438 239.726562 63.425781 239.976562 63.226562 240.226562 C 63.023438 240.476562 62.726562 240.726562 62.324219 240.976562 L 63.523438 240.976562 L 63.523438 241.273438 L 61.800781 241.273438 L 61.800781 241.050781 C 62.101562 240.800781 62.351562 240.601562 62.550781 240.449219 C 62.75 240.300781 62.898438 240.125 63 239.925781 C 63.101562 239.773438 63.148438 239.625 63.148438 239.476562 C 63.148438 239.324219 63.101562 239.199219 63 239.101562 C 62.898438 239 62.800781 238.949219 62.699219 238.949219 C 62.550781 238.949219 62.425781 238.976562 62.324219 239.023438 C 62.226562 239.074219 62.148438 239.175781 62.101562 239.324219 L 61.800781 239.175781 "/>
<path style=" stroke:none;fill-rule:nonzero;fill:rgb(0%,0%,100%);fill-opacity:1;" d="M 64.648438 235.425781 L 65.925781 237.449219 C 66.023438 237.601562 66.148438 237.800781 66.300781 238.050781 C 66.449219 238.300781 66.523438 238.425781 66.523438 238.425781 L 66.523438 235.425781 L 67.050781 235.425781 L 67.050781 239.324219 L 66.523438 239.324219 L 65.101562 237.074219 C 65 236.875 64.898438 236.675781 64.800781 236.476562 C 64.648438 236.273438 64.574219 236.148438 64.574219 236.101562 L 64.574219 239.324219 L 64.050781 239.324219 L 64.050781 235.425781 L 64.648438 235.425781 "/>
<path style=" stroke:none;fill-rule:nonzero;fill:rgb(0%,0%,100%);fill-opacity:1;" d="M 97.875 211.050781 L 98.398438 211.050781 L 98.398438 212.699219 L 100.425781 212.699219 L 100.425781 211.050781 L 100.949219 211.050781 L 100.949219 214.949219 L 100.425781 214.949219 L 100.425781 213.148438 L 98.398438 213.148438 L 98.398438 214.949219 L 97.875 214.949219 L 97.875 211.050781 "/>
<path style=" stroke:none;fill-rule:nonzero;fill:rgb(0%,0%,100%);fill-opacity:1;" d="M 102.375 211.050781 L 103.648438 213.148438 C 103.75 213.25 103.851562 213.425781 103.949219 213.675781 C 104.101562 213.925781 104.175781 214.074219 104.175781 214.125 L 104.175781 211.050781 L 104.699219 211.050781 L 104.699219 214.949219 L 104.175781 214.949219 L 102.824219 212.699219 C 102.726562 212.5 102.601562 212.300781 102.449219 212.101562 C 102.351562 211.898438 102.273438 211.773438 102.226562 211.726562 L 102.226562 214.949219 L 101.773438 214.949219 L 101.773438 211.050781 L 102.375 211.050781 "/>
<path style=" stroke:none;fill-rule:nonzero;fill:rgb(100%,0%,0%);fill-opacity:1;" d="M 83.023438 202.875 C 83.023438 202.226562 83.175781 201.726562 83.476562 201.375 C 83.773438 201.023438 84.226562 200.851562 84.824219 200.851562 C 85.375 200.851562 85.824219 201.023438 86.175781 201.375 C 86.476562 201.726562 86.625 202.226562 86.625 202.875 C 86.625 203.523438 86.476562 204.023438 86.175781 204.375 C 85.824219 204.726562 85.375 204.898438 84.824219 204.898438 C 84.226562 204.898438 83.773438 204.726562 83.476562 204.375 C 83.175781 204.023438 83.023438 203.523438 83.023438 202.875 M 84.824219 204.449219 C 85.226562 204.449219 85.523438 204.324219 85.726562 204.074219 C 85.925781 203.773438 86.023438 203.375 86.023438 202.875 C 86.023438 202.375 85.925781 201.976562 85.726562 201.675781 C 85.523438 201.425781 85.226562 201.300781 84.824219 201.300781 C 84.425781 201.300781 84.101562 201.425781 83.851562 201.675781 C 83.648438 201.976562 83.550781 202.375 83.550781 202.875 C 83.550781 203.375 83.648438 203.773438 83.851562 204.074219 C 84.101562 204.324219 84.425781 204.449219 84.824219 204.449219 "/>
<path style=" stroke:none;fill-rule:nonzero;fill:rgb(100%,0%,0%);fill-opacity:1;" d="M 70.050781 194.25 L 70.648438 194.25 L 70.648438 195.898438 L 72.601562 195.898438 L 72.601562 194.25 L 73.125 194.25 L 73.125 198.226562 L 72.601562 198.226562 L 72.601562 196.351562 L 70.648438 196.351562 L 70.648438 198.226562 L 70.050781 198.226562 L 70.050781 194.25 "/>
<path style=" stroke:none;fill-rule:nonzero;fill:rgb(100%,0%,0%);fill-opacity:1;" d="M 73.949219 196.199219 C 73.949219 195.601562 74.101562 195.125 74.398438 194.773438 C 74.75 194.425781 75.199219 194.25 75.75 194.25 C 76.351562 194.25 76.800781 194.425781 77.101562 194.773438 C 77.398438 195.125 77.550781 195.601562 77.550781 196.199219 C 77.550781 196.851562 77.398438 197.351562 77.101562 197.699219 C 76.800781 198.050781 76.351562 198.226562 75.75 198.226562 C 75.199219 198.226562 74.75 198.050781 74.398438 197.699219 C 74.101562 197.351562 73.949219 196.851562 73.949219 196.199219 M 75.75 197.773438 C 76.148438 197.773438 76.449219 197.648438 76.648438 197.398438 C 76.898438 197.148438 77.023438 196.75 77.023438 196.199219 C 77.023438 195.699219 76.898438 195.324219 76.648438 195.074219 C 76.449219 194.824219 76.148438 194.699219 75.75 194.699219 C 75.351562 194.699219 75.050781 194.824219 74.851562 195.074219 C 74.648438 195.324219 74.550781 195.699219 74.550781 196.199219 C 74.550781 196.75 74.648438 197.148438 74.851562 197.398438 C 75.050781 197.648438 75.351562 197.773438 75.75 197.773438 "/>
<path style=" stroke:none;fill-rule:nonzero;fill:rgb(100%,0%,0%);fill-opacity:1;" d="M 84.148438 160.949219 C 84.148438 160.351562 84.324219 159.875 84.675781 159.523438 C 84.976562 159.175781 85.398438 159 85.949219 159 C 86.550781 159 87 159.175781 87.300781 159.523438 C 87.601562 159.875 87.75 160.351562 87.75 160.949219 C 87.75 161.601562 87.601562 162.101562 87.300781 162.449219 C 87 162.800781 86.550781 162.976562 85.949219 162.976562 C 85.398438 162.976562 84.976562 162.800781 84.675781 162.449219 C 84.324219 162.101562 84.148438 161.601562 84.148438 160.949219 M 85.949219 162.601562 C 86.351562 162.601562 86.675781 162.449219 86.925781 162.148438 C 87.125 161.898438 87.226562 161.5 87.226562 160.949219 C 87.226562 160.449219 87.125 160.074219 86.925781 159.824219 C 86.675781 159.574219 86.351562 159.449219 85.949219 159.449219 C 85.550781 159.449219 85.25 159.574219 85.050781 159.824219 C 84.851562 160.074219 84.75 160.449219 84.75 160.949219 C 84.75 161.5 84.851562 161.898438 85.050781 162.148438 C 85.25 162.449219 85.550781 162.601562 85.949219 162.601562 "/>
<path style=" stroke:none;fill-rule:nonzero;fill:rgb(100%,0%,0%);fill-opacity:1;" d="M 88.425781 159 L 88.949219 159 L 88.949219 160.726562 L 90.898438 160.726562 L 90.898438 159 L 91.5 159 L 91.5 162.976562 L 90.898438 162.976562 L 90.898438 161.101562 L 88.949219 161.101562 L 88.949219 162.976562 L 88.425781 162.976562 L 88.425781 159 "/>
<path style=" stroke:none;fill-rule:nonzero;fill:rgb(100%,0%,0%);fill-opacity:1;" d="M 17.023438 165.226562 L 17.550781 165.226562 L 17.550781 166.949219 L 19.574219 166.949219 L 19.574219 165.226562 L 20.101562 165.226562 L 20.101562 169.199219 L 19.574219 169.199219 L 19.574219 167.324219 L 17.550781 167.324219 L 17.550781 169.199219 L 17.023438 169.199219 L 17.023438 165.226562 "/>
<path style=" stroke:none;fill-rule:nonzero;fill:rgb(100%,0%,0%);fill-opacity:1;" d="M 20.925781 167.175781 C 20.925781 166.574219 21.074219 166.101562 21.375 165.75 C 21.675781 165.398438 22.125 165.226562 22.726562 165.226562 C 23.324219 165.226562 23.773438 165.398438 24.074219 165.75 C 24.375 166.101562 24.523438 166.574219 24.523438 167.175781 C 24.523438 167.824219 24.375 168.324219 24.074219 168.675781 C 23.773438 169.023438 23.324219 169.199219 22.726562 169.199219 C 22.125 169.199219 21.675781 169.023438 21.375 168.675781 C 21.074219 168.324219 20.925781 167.824219 20.925781 167.175781 M 22.726562 168.824219 C 23.125 168.824219 23.425781 168.675781 23.625 168.375 C 23.875 168.125 24 167.726562 24 167.175781 C 24 166.675781 23.875 166.300781 23.625 166.050781 C 23.425781 165.800781 23.125 165.675781 22.726562 165.675781 C 22.324219 165.675781 22.023438 165.800781 21.824219 166.050781 C 21.574219 166.300781 21.449219 166.675781 21.449219 167.175781 C 21.449219 167.726562 21.574219 168.125 21.824219 168.375 C 22.023438 168.675781 22.324219 168.824219 22.726562 168.824219 "/>
<path style=" stroke:none;fill-rule:nonzero;fill:rgb(0%,0%,100%);fill-opacity:1;" d="M 95.550781 170.699219 L 96.074219 170.699219 L 96.074219 172.425781 L 98.101562 172.425781 L 98.101562 170.699219 L 98.625 170.699219 L 98.625 174.675781 L 98.101562 174.675781 L 98.101562 172.875 L 96.074219 172.875 L 96.074219 174.675781 L 95.550781 174.675781 L 95.550781 170.699219 "/>
<path style=" stroke:none;fill-rule:nonzero;fill:rgb(0%,0%,100%);fill-opacity:1;" d="M 100.050781 170.699219 L 101.324219 172.800781 C 101.425781 172.949219 101.523438 173.148438 101.625 173.398438 C 101.773438 173.648438 101.851562 173.773438 101.851562 173.773438 L 101.851562 170.699219 L 102.375 170.699219 L 102.375 174.675781 L 101.851562 174.675781 L 100.5 172.351562 C 100.398438 172.199219 100.273438 172.023438 100.125 171.824219 C 100.023438 171.625 99.949219 171.476562 99.898438 171.375 L 99.898438 174.675781 L 99.449219 174.675781 L 99.449219 170.699219 L 100.050781 170.699219 "/>
<path style=" stroke:none;fill-rule:nonzero;fill:rgb(100%,0%,0%);fill-opacity:1;" d="M 94.574219 153.375 C 94.574219 152.726562 94.726562 152.226562 95.023438 151.875 C 95.324219 151.523438 95.773438 151.351562 96.375 151.351562 C 96.925781 151.351562 97.375 151.523438 97.726562 151.875 C 98.023438 152.226562 98.175781 152.726562 98.175781 153.375 C 98.175781 153.976562 98 154.476562 97.648438 154.875 C 97.351562 155.226562 96.925781 155.398438 96.375 155.398438 C 95.773438 155.398438 95.324219 155.226562 95.023438 154.875 C 94.726562 154.476562 94.574219 153.976562 94.574219 153.375 M 96.375 154.949219 C 96.773438 154.949219 97.074219 154.824219 97.273438 154.574219 C 97.476562 154.273438 97.574219 153.875 97.574219 153.375 C 97.574219 152.824219 97.476562 152.425781 97.273438 152.175781 C 97.074219 151.925781 96.773438 151.800781 96.375 151.800781 C 95.976562 151.800781 95.648438 151.925781 95.398438 152.175781 C 95.199219 152.425781 95.101562 152.824219 95.101562 153.375 C 95.101562 153.875 95.199219 154.273438 95.398438 154.574219 C 95.648438 154.824219 95.976562 154.949219 96.375 154.949219 "/>
<path style=" stroke:none;fill-rule:nonzero;fill:rgb(100%,0%,0%);fill-opacity:1;" d="M 104.25 114.75 L 104.773438 114.75 L 104.773438 116.398438 L 106.800781 116.398438 L 106.800781 114.75 L 107.324219 114.75 L 107.324219 118.648438 L 106.800781 118.648438 L 106.800781 116.851562 L 104.773438 116.851562 L 104.773438 118.648438 L 104.25 118.648438 L 104.25 114.75 "/>
<path style=" stroke:none;fill-rule:nonzero;fill:rgb(100%,0%,0%);fill-opacity:1;" d="M 108.148438 116.699219 C 108.148438 116.050781 108.300781 115.550781 108.601562 115.199219 C 108.898438 114.851562 109.351562 114.675781 109.949219 114.675781 C 110.5 114.675781 110.949219 114.851562 111.300781 115.199219 C 111.601562 115.550781 111.75 116.050781 111.75 116.699219 C 111.75 117.300781 111.601562 117.800781 111.300781 118.199219 C 110.949219 118.550781 110.5 118.726562 109.949219 118.726562 C 109.351562 118.726562 108.898438 118.550781 108.601562 118.199219 C 108.300781 117.800781 108.148438 117.300781 108.148438 116.699219 M 109.949219 118.273438 C 110.351562 118.273438 110.648438 118.125 110.851562 117.824219 C 111.101562 117.574219 111.226562 117.199219 111.226562 116.699219 C 111.226562 116.148438 111.101562 115.75 110.851562 115.5 C 110.648438 115.25 110.351562 115.125 109.949219 115.125 C 109.550781 115.125 109.25 115.25 109.050781 115.5 C 108.800781 115.75 108.675781 116.148438 108.675781 116.699219 C 108.675781 117.199219 108.800781 117.574219 109.050781 117.824219 C 109.25 118.125 109.550781 118.273438 109.949219 118.273438 "/>
<path style=" stroke:none;fill-rule:nonzero;fill:rgb(0%,0%,100%);fill-opacity:1;" d="M 130.125 143.773438 L 131.398438 145.875 C 131.5 145.976562 131.601562 146.148438 131.699219 146.398438 C 131.851562 146.648438 131.925781 146.800781 131.925781 146.851562 L 131.925781 143.773438 L 132.449219 143.773438 L 132.449219 147.675781 L 131.925781 147.675781 L 130.574219 145.425781 C 130.425781 145.226562 130.300781 145.023438 130.199219 144.824219 C 130.101562 144.625 130.023438 144.5 129.976562 144.449219 L 129.976562 147.675781 L 129.449219 147.675781 L 129.449219 143.773438 L 130.125 143.773438 "/>
<path style=" stroke:none;fill-rule:nonzero;fill:rgb(100%,0%,0%);fill-opacity:1;" d="M 143.175781 130.050781 C 143.175781 129.398438 143.324219 128.898438 143.625 128.550781 C 143.925781 128.199219 144.375 128.023438 144.976562 128.023438 C 145.523438 128.023438 145.976562 128.199219 146.324219 128.550781 C 146.625 128.898438 146.773438 129.398438 146.773438 130.050781 C 146.773438 130.699219 146.625 131.199219 146.324219 131.550781 C 145.976562 131.898438 145.523438 132.074219 144.976562 132.074219 C 144.375 132.074219 143.925781 131.898438 143.625 131.550781 C 143.324219 131.199219 143.175781 130.699219 143.175781 130.050781 M 144.976562 131.625 C 145.375 131.625 145.675781 131.5 145.875 131.25 C 146.074219 131 146.175781 130.601562 146.175781 130.050781 C 146.175781 129.550781 146.074219 129.175781 145.875 128.925781 C 145.675781 128.625 145.375 128.476562 144.976562 128.476562 C 144.574219 128.476562 144.25 128.601562 144 128.851562 C 143.800781 129.148438 143.699219 129.550781 143.699219 130.050781 C 143.699219 130.601562 143.800781 131 144 131.25 C 144.25 131.5 144.574219 131.625 144.976562 131.625 "/>
<path style=" stroke:none;fill-rule:nonzero;fill:rgb(100%,0%,0%);fill-opacity:1;" d="M 147.75 120.75 L 148.273438 120.75 L 148.273438 122.398438 L 150.300781 122.398438 L 150.300781 120.75 L 150.824219 120.75 L 150.824219 124.648438 L 150.300781 124.648438 L 150.300781 122.851562 L 148.273438 122.851562 L 148.273438 124.648438 L 147.75 124.648438 L 147.75 120.75 "/>
<path style=" stroke:none;fill-rule:nonzero;fill:rgb(100%,0%,0%);fill-opacity:1;" d="M 151.648438 122.699219 C 151.648438 122.101562 151.800781 121.625 152.101562 121.273438 C 152.398438 120.925781 152.851562 120.75 153.449219 120.75 C 154.050781 120.75 154.5 120.925781 154.800781 121.273438 C 155.101562 121.625 155.25 122.101562 155.25 122.699219 C 155.25 123.351562 155.101562 123.851562 154.800781 124.199219 C 154.5 124.550781 154.050781 124.726562 153.449219 124.726562 C 152.898438 124.726562 152.449219 124.550781 152.101562 124.199219 C 151.800781 123.851562 151.648438 123.351562 151.648438 122.699219 M 153.449219 124.273438 C 153.851562 124.273438 154.148438 124.148438 154.351562 123.898438 C 154.601562 123.648438 154.726562 123.25 154.726562 122.699219 C 154.726562 122.199219 154.601562 121.824219 154.351562 121.574219 C 154.148438 121.273438 153.851562 121.125 153.449219 121.125 C 153.050781 121.125 152.75 121.273438 152.550781 121.574219 C 152.300781 121.824219 152.175781 122.199219 152.175781 122.699219 C 152.175781 123.25 152.300781 123.648438 152.550781 123.898438 C 152.75 124.148438 153.050781 124.273438 153.449219 124.273438 "/>
<path style=" stroke:none;fill-rule:nonzero;fill:rgb(0%,0%,100%);fill-opacity:1;" d="M 169.949219 150.449219 L 171.226562 152.550781 C 171.273438 152.699219 171.375 152.898438 171.523438 153.148438 C 171.675781 153.398438 171.75 153.523438 171.75 153.523438 L 171.75 150.449219 L 172.273438 150.449219 L 172.273438 154.425781 L 171.75 154.425781 L 170.324219 152.101562 C 170.226562 151.949219 170.125 151.773438 170.023438 151.574219 C 169.925781 151.375 169.851562 151.226562 169.800781 151.125 L 169.800781 154.425781 L 169.273438 154.425781 L 169.273438 150.449219 L 169.949219 150.449219 "/>
<path style=" stroke:none;fill-rule:nonzero;fill:rgb(0%,0%,100%);fill-opacity:1;" d="M 173.023438 150.449219 L 173.550781 150.449219 L 173.550781 152.175781 L 175.574219 152.175781 L 175.574219 150.449219 L 176.101562 150.449219 L 176.101562 154.425781 L 175.574219 154.425781 L 175.574219 152.625 L 173.550781 152.625 L 173.550781 154.425781 L 173.023438 154.425781 L 173.023438 150.449219 "/>
<path style=" stroke:none;fill-rule:nonzero;fill:rgb(100%,0%,0%);fill-opacity:1;" d="M 189.976562 153.601562 C 189.976562 152.949219 190.125 152.449219 190.425781 152.101562 C 190.726562 151.75 191.175781 151.574219 191.773438 151.574219 C 192.375 151.574219 192.824219 151.75 193.125 152.101562 C 193.425781 152.449219 193.574219 152.949219 193.574219 153.601562 C 193.574219 154.25 193.425781 154.75 193.125 155.101562 C 192.824219 155.449219 192.375 155.625 191.773438 155.625 C 191.226562 155.625 190.773438 155.449219 190.425781 155.101562 C 190.125 154.75 189.976562 154.25 189.976562 153.601562 M 191.773438 155.175781 C 192.175781 155.175781 192.476562 155.050781 192.675781 154.800781 C 192.925781 154.550781 193.050781 154.148438 193.050781 153.601562 C 193.050781 153.101562 192.925781 152.726562 192.675781 152.476562 C 192.476562 152.175781 192.175781 152.023438 191.773438 152.023438 C 191.375 152.023438 191.074219 152.148438 190.875 152.398438 C 190.625 152.699219 190.5 153.101562 190.5 153.601562 C 190.5 154.148438 190.625 154.550781 190.875 154.800781 C 191.074219 155.050781 191.375 155.175781 191.773438 155.175781 "/>
<path style=" stroke:none;fill-rule:nonzero;fill:rgb(0%,0%,0%);fill-opacity:1;" d="M 159.824219 242.625 L 160.351562 242.625 L 160.351562 244.273438 L 162.375 244.273438 L 162.375 242.625 L 162.898438 242.625 L 162.898438 246.523438 L 162.375 246.523438 L 162.375 244.726562 L 160.351562 244.726562 L 160.351562 246.523438 L 159.824219 246.523438 L 159.824219 242.625 "/>
<path style=" stroke:none;fill-rule:nonzero;fill:rgb(0%,0%,0%);fill-opacity:1;" d="M 103.199219 147.226562 L 103.726562 147.226562 L 103.726562 148.875 L 105.675781 148.875 L 105.675781 147.226562 L 106.273438 147.226562 L 106.273438 151.199219 L 105.675781 151.199219 L 105.675781 149.324219 L 103.726562 149.324219 L 103.726562 151.199219 L 103.199219 151.199219 L 103.199219 147.226562 "/>
</g>
</svg>
