<?xml version="1.0" encoding="UTF-8"?>
<svg xmlns="http://www.w3.org/2000/svg" xmlns:xlink="http://www.w3.org/1999/xlink" width="375pt" height="375pt" viewBox="0 0 375 375" version="1.1">
<g id="surface56">
<rect x="0" y="0" width="375" height="375" style="fill:rgb(100%,100%,100%);fill-opacity:1;stroke:none;"/>
<path style="fill-rule:evenodd;fill:rgb(0%,0%,0%);fill-opacity:1;stroke-width:0.5;stroke-linecap:butt;stroke-linejoin:miter;stroke:rgb(0%,0%,0%);stroke-opacity:1;stroke-miterlimit:4;" d="M 333.697917 272 L 335.901042 318 L 329 317.802083 Z M 333.697917 272 " transform="matrix(0.75,0,0,0.75,0,0)"/>
<path style="fill:none;stroke-width:2;stroke-linecap:butt;stroke-linejoin:miter;stroke:rgb(0%,0%,0%);stroke-opacity:1;stroke-miterlimit:4;" d="M 333.697917 272 L 302.197917 238.5 " transform="matrix(0.75,0,0,0.75,0,0)"/>
<path style="fill:none;stroke-width:1;stroke-linecap:butt;stroke-linejoin:miter;stroke:rgb(0%,0%,0%);stroke-opacity:1;stroke-miterlimit:4;" d="M 298.697917 238.098958 L 298.697917 238.802083 " transform="matrix(0.75,0,0,0.75,0,0)"/>
<path style="fill:none;stroke-width:1;stroke-linecap:butt;stroke-linejoin:miter;stroke:rgb(0%,0%,0%);stroke-opacity:1;stroke-miterlimit:4;" d="M 295.302083 237.697917 L 295.302083 239 " transform="matrix(0.75,0,0,0.75,0,0)"/>
<path style="fill:none;stroke-width:1;stroke-linecap:butt;stroke-linejoin:miter;stroke:rgb(0%,0%,0%);stroke-opacity:1;stroke-miterlimit:4;" d="M 291.901042 237.197917 L 291.802083 239.302083 " transform="matrix(0.75,0,0,0.75,0,0)"/>
<path style="fill:none;stroke-width:1;stroke-linecap:butt;stroke-linejoin:miter;stroke:rgb(0%,0%,0%);stroke-opacity:1;stroke-miterlimit:4;" d="M 288.401042 236.802083 L 288.302083 239.5 " transform="matrix(0.75,0,0,0.75,0,0)"/>
<path style="fill:none;stroke-width:1;stroke-linecap:butt;stroke-linejoin:miter;stroke:rgb(0%,0%,0%);stroke-opacity:1;stroke-miterlimit:4;" d="M 285 236.302083 L 284.901042 239.802083 " transform="matrix(0.75,0,0,0.75,0,0)"/>
<path style="fill:none;stroke-width:1;stroke-linecap:butt;stroke-linejoin:miter;stroke:rgb(0%,0%,100%);stroke-opacity:1;stroke-miterlimit:4;" d="M 281.5 235.901042 L 281.401042 240 " transform="matrix(0.75,0,0,0.75,0,0)"/>
<path style="fill:none;stroke-width:1;stroke-linecap:butt;stroke-linejoin:miter;stroke:rgb(0%,0%,100%);stroke-opacity:1;stroke-miterlimit:4;" d="M 278.098958 235.401042 L 278 240.302083 " transform="matrix(0.75,0,0,0.75,0,0)"/>
<path style="fill:none;stroke-width:1;stroke-linecap:butt;stroke-linejoin:miter;stroke:rgb(0%,0%,100%);stroke-opacity:1;stroke-miterlimit:4;" d="M 274.697917 235 L 274.5 240.5 " transform="matrix(0.75,0,0,0.75,0,0)"/>
<path style="fill:none;stroke-width:1;stroke-linecap:butt;stroke-linejoin:miter;stroke:rgb(0%,0%,100%);stroke-opacity:1;stroke-miterlimit:4;" d="M 271.197917 234.598958 L 271 240.802083 " transform="matrix(0.75,0,0,0.75,0,0)"/>
<path style="fill:none;stroke-width:1;stroke-linecap:butt;stroke-linejoin:miter;stroke:rgb(0%,0%,100%);stroke-opacity:1;stroke-miterlimit:4;" d="M 267.802083 234.098958 L 267.598958 241 " transform="matrix(0.75,0,0,0.75,0,0)"/>
<path style="fill:none;stroke-width:2;stroke-linecap:butt;stroke-linejoin:miter;stroke:rgb(0%,0%,100%);stroke-opacity:1;stroke-miterlimit:4;" d="M 251.302083 245.302083 L 241.697917 260.802083 " transform="matrix(0.75,0,0,0.75,0,0)"/>
<path style="fill:none;stroke-width:2;stroke-linecap:butt;stroke-linejoin:miter;stroke:rgb(0%,0%,0%);stroke-opacity:1;stroke-miterlimit:4;" d="M 241.697917 260.802083 L 232.098958 276.401042 " transform="matrix(0.75,0,0,0.75,0,0)"/>
<path style="fill:none;stroke-width:2;stroke-linecap:butt;stroke-linejoin:miter;stroke:rgb(0%,0%,0%);stroke-opacity:1;stroke-miterlimit:4;" d="M 228.098958 276.302083 L 237.302083 293.302083 " transform="matrix(0.75,0,0,0.75,0,0)"/>
<path style="fill:none;stroke-width:2;stroke-linecap:butt;stroke-linejoin:miter;stroke:rgb(100%,0%,0%);stroke-opacity:1;stroke-miterlimit:4;" d="M 237.302083 293.302083 L 246.5 310.401042 " transform="matrix(0.75,0,0,0.75,0,0)"/>
<path style="fill:none;stroke-width:2;stroke-linecap:butt;stroke-linejoin:miter;stroke:rgb(0%,0%,0%);stroke-opacity:1;stroke-miterlimit:4;" d="M 234.197917 273 L 243.401042 290 " transform="matrix(0.75,0,0,0.75,0,0)"/>
<path style="fill:none;stroke-width:2;stroke-linecap:butt;stroke-linejoin:miter;stroke:rgb(100%,0%,0%);stroke-opacity:1;stroke-miterlimit:4;" d="M 243.401042 290 L 252.598958 307.098958 " transform="matrix(0.75,0,0,0.75,0,0)"/>
<path style="fill:none;stroke-width:2;stroke-linecap:butt;stroke-linejoin:miter;stroke:rgb(0%,0%,0%);stroke-opacity:1;stroke-miterlimit:4;" d="M 232.098958 276.401042 L 186.098958 275.098958 " transform="matrix(0.75,0,0,0.75,0,0)"/>
<path style="fill:none;stroke-width:2;stroke-linecap:butt;stroke-linejoin:miter;stroke:rgb(0%,0%,0%);stroke-opacity:1;stroke-miterlimit:4;" d="M 186.098958 275.098958 L 177.401042 258.802083 " transform="matrix(0.75,0,0,0.75,0,0)"/>
<path style="fill:none;stroke-width:2;stroke-linecap:butt;stroke-linejoin:miter;stroke:rgb(0%,0%,100%);stroke-opacity:1;stroke-miterlimit:4;" d="M 177.401042 258.802083 L 168.598958 242.598958 " transform="matrix(0.75,0,0,0.75,0,0)"/>
<path style="fill:none;stroke-width:2;stroke-linecap:butt;stroke-linejoin:miter;stroke:rgb(0%,0%,0%);stroke-opacity:1;stroke-miterlimit:4;" d="M 178.197917 274.802083 L 171.197917 261.802083 " transform="matrix(0.75,0,0,0.75,0,0)"/>
<path style="fill:none;stroke-width:2;stroke-linecap:butt;stroke-linejoin:miter;stroke:rgb(0%,0%,100%);stroke-opacity:1;stroke-miterlimit:4;" d="M 171.197917 261.802083 L 164.098958 248.802083 " transform="matrix(0.75,0,0,0.75,0,0)"/>
<path style="fill:none;stroke-width:2;stroke-linecap:butt;stroke-linejoin:miter;stroke:rgb(0%,0%,100%);stroke-opacity:1;stroke-miterlimit:4;" d="M 157.802083 234.401042 L 141.802083 234 " transform="matrix(0.75,0,0,0.75,0,0)"/>
<path style="fill:none;stroke-width:2;stroke-linecap:butt;stroke-linejoin:miter;stroke:rgb(100%,0%,0%);stroke-opacity:1;stroke-miterlimit:4;" d="M 141.802083 234 L 125.802083 233.5 " transform="matrix(0.75,0,0,0.75,0,0)"/>
<path style="fill:none;stroke-width:2;stroke-linecap:butt;stroke-linejoin:miter;stroke:rgb(100%,0%,0%);stroke-opacity:1;stroke-miterlimit:4;" d="M 114 225.197917 L 105.197917 209 " transform="matrix(0.75,0,0,0.75,0,0)"/>
<path style="fill:none;stroke-width:2;stroke-linecap:butt;stroke-linejoin:miter;stroke:rgb(0%,0%,0%);stroke-opacity:1;stroke-miterlimit:4;" d="M 105.197917 209 L 96.5 192.802083 " transform="matrix(0.75,0,0,0.75,0,0)"/>
<path style="fill:none;stroke-width:2;stroke-linecap:butt;stroke-linejoin:miter;stroke:rgb(0%,0%,0%);stroke-opacity:1;stroke-miterlimit:4;" d="M 96.5 192.802083 L 56 214.697917 " transform="matrix(0.75,0,0,0.75,0,0)"/>
<path style="fill:none;stroke-width:2;stroke-linecap:butt;stroke-linejoin:miter;stroke:rgb(0%,0%,0%);stroke-opacity:1;stroke-miterlimit:4;" d="M 96.5 192.802083 L 137 171 " transform="matrix(0.75,0,0,0.75,0,0)"/>
<path style="fill:none;stroke-width:2;stroke-linecap:butt;stroke-linejoin:miter;stroke:rgb(0%,0%,0%);stroke-opacity:1;stroke-miterlimit:4;" d="M 96.5 192.802083 L 74.697917 152.401042 " transform="matrix(0.75,0,0,0.75,0,0)"/>
<path style="fill:none;stroke-width:2;stroke-linecap:butt;stroke-linejoin:miter;stroke:rgb(0%,0%,0%);stroke-opacity:1;stroke-miterlimit:4;" d="M 76.697917 149 L 56.5 148.401042 " transform="matrix(0.75,0,0,0.75,0,0)"/>
<path style="fill:none;stroke-width:2;stroke-linecap:butt;stroke-linejoin:miter;stroke:rgb(100%,0%,0%);stroke-opacity:1;stroke-miterlimit:4;" d="M 56.5 148.401042 L 36.302083 147.802083 " transform="matrix(0.75,0,0,0.75,0,0)"/>
<path style="fill:none;stroke-width:2;stroke-linecap:butt;stroke-linejoin:miter;stroke:rgb(0%,0%,0%);stroke-opacity:1;stroke-miterlimit:4;" d="M 76.598958 155.901042 L 56.302083 155.302083 " transform="matrix(0.75,0,0,0.75,0,0)"/>
<path style="fill:none;stroke-width:2;stroke-linecap:butt;stroke-linejoin:miter;stroke:rgb(100%,0%,0%);stroke-opacity:1;stroke-miterlimit:4;" d="M 56.302083 155.302083 L 36.098958 154.697917 " transform="matrix(0.75,0,0,0.75,0,0)"/>
<path style="fill:none;stroke-width:2;stroke-linecap:butt;stroke-linejoin:miter;stroke:rgb(0%,0%,0%);stroke-opacity:1;stroke-miterlimit:4;" d="M 74.697917 152.401042 L 84.197917 137 " transform="matrix(0.75,0,0,0.75,0,0)"/>
<path style="fill:none;stroke-width:2;stroke-linecap:butt;stroke-linejoin:miter;stroke:rgb(100%,0%,0%);stroke-opacity:1;stroke-miterlimit:4;" d="M 84.197917 137 L 93.697917 121.5 " transform="matrix(0.75,0,0,0.75,0,0)"/>
<path style="fill:none;stroke-width:2;stroke-linecap:butt;stroke-linejoin:miter;stroke:rgb(0%,0%,0%);stroke-opacity:1;stroke-miterlimit:4;" d="M 186.098958 275.098958 L 162 314.197917 " transform="matrix(0.75,0,0,0.75,0,0)"/>
<path style="fill:none;stroke-width:2;stroke-linecap:butt;stroke-linejoin:miter;stroke:rgb(0%,0%,0%);stroke-opacity:1;stroke-miterlimit:4;" d="M 162 314.197917 L 179.5 356.697917 " transform="matrix(0.75,0,0,0.75,0,0)"/>
<path style="fill:none;stroke-width:2;stroke-linecap:butt;stroke-linejoin:miter;stroke:rgb(0%,0%,0%);stroke-opacity:1;stroke-miterlimit:4;" d="M 157.598958 321.5 L 171.197917 354.697917 " transform="matrix(0.75,0,0,0.75,0,0)"/>
<path style="fill:none;stroke-width:2;stroke-linecap:butt;stroke-linejoin:miter;stroke:rgb(0%,0%,0%);stroke-opacity:1;stroke-miterlimit:4;" d="M 179.5 356.697917 L 164.901042 369.197917 " transform="matrix(0.75,0,0,0.75,0,0)"/>
<path style="fill:none;stroke-width:2;stroke-linecap:butt;stroke-linejoin:miter;stroke:rgb(80%,80%,0%);stroke-opacity:1;stroke-miterlimit:4;" d="M 164.901042 369.197917 L 150.197917 381.697917 " transform="matrix(0.75,0,0,0.75,0,0)"/>
<path style="fill:none;stroke-width:2;stroke-linecap:butt;stroke-linejoin:miter;stroke:rgb(80%,80%,0%);stroke-opacity:1;stroke-miterlimit:4;" d="M 138.802083 383 L 122.098958 372.697917 " transform="matrix(0.75,0,0,0.75,0,0)"/>
<path style="fill:none;stroke-width:2;stroke-linecap:butt;stroke-linejoin:miter;stroke:rgb(0%,0%,0%);stroke-opacity:1;stroke-miterlimit:4;" d="M 122.098958 372.697917 L 105.401042 362.401042 " transform="matrix(0.75,0,0,0.75,0,0)"/>
<path style="fill:none;stroke-width:2;stroke-linecap:butt;stroke-linejoin:miter;stroke:rgb(0%,0%,0%);stroke-opacity:1;stroke-miterlimit:4;" d="M 105.401042 362.401042 L 87.302083 369.802083 " transform="matrix(0.75,0,0,0.75,0,0)"/>
<path style="fill:none;stroke-width:2;stroke-linecap:butt;stroke-linejoin:miter;stroke:rgb(0%,0%,100%);stroke-opacity:1;stroke-miterlimit:4;" d="M 87.302083 369.802083 L 69.302083 377.197917 " transform="matrix(0.75,0,0,0.75,0,0)"/>
<path style="fill:none;stroke-width:2;stroke-linecap:butt;stroke-linejoin:miter;stroke:rgb(0%,0%,0%);stroke-opacity:1;stroke-miterlimit:4;" d="M 105.401042 362.401042 L 109.802083 344.098958 " transform="matrix(0.75,0,0,0.75,0,0)"/>
<path style="fill:none;stroke-width:2;stroke-linecap:butt;stroke-linejoin:miter;stroke:rgb(0%,0%,100%);stroke-opacity:1;stroke-miterlimit:4;" d="M 109.802083 344.098958 L 114.197917 325.697917 " transform="matrix(0.75,0,0,0.75,0,0)"/>
<path style="fill:none;stroke-width:2;stroke-linecap:butt;stroke-linejoin:miter;stroke:rgb(0%,0%,0%);stroke-opacity:1;stroke-miterlimit:4;" d="M 113.197917 359.098958 L 117.098958 343.302083 " transform="matrix(0.75,0,0,0.75,0,0)"/>
<path style="fill:none;stroke-width:2;stroke-linecap:butt;stroke-linejoin:miter;stroke:rgb(0%,0%,100%);stroke-opacity:1;stroke-miterlimit:4;" d="M 117.098958 343.302083 L 120.901042 327.401042 " transform="matrix(0.75,0,0,0.75,0,0)"/>
<path style="fill:none;stroke-width:2;stroke-linecap:butt;stroke-linejoin:miter;stroke:rgb(0%,0%,0%);stroke-opacity:1;stroke-miterlimit:4;" d="M 302.197917 238.5 L 335.598958 207 " transform="matrix(0.75,0,0,0.75,0,0)"/>
<path style="fill:none;stroke-width:2;stroke-linecap:butt;stroke-linejoin:miter;stroke:rgb(0%,0%,0%);stroke-opacity:1;stroke-miterlimit:4;" d="M 338.901042 210.5 L 339.5 190 " transform="matrix(0.75,0,0,0.75,0,0)"/>
<path style="fill:none;stroke-width:2;stroke-linecap:butt;stroke-linejoin:miter;stroke:rgb(100%,0%,0%);stroke-opacity:1;stroke-miterlimit:4;" d="M 339.5 190 L 340.098958 169.401042 " transform="matrix(0.75,0,0,0.75,0,0)"/>
<path style="fill:none;stroke-width:2;stroke-linecap:butt;stroke-linejoin:miter;stroke:rgb(0%,0%,0%);stroke-opacity:1;stroke-miterlimit:4;" d="M 332.098958 210.302083 L 332.598958 189.802083 " transform="matrix(0.75,0,0,0.75,0,0)"/>
<path style="fill:none;stroke-width:2;stroke-linecap:butt;stroke-linejoin:miter;stroke:rgb(100%,0%,0%);stroke-opacity:1;stroke-miterlimit:4;" d="M 332.598958 189.802083 L 333.197917 169.197917 " transform="matrix(0.75,0,0,0.75,0,0)"/>
<path style="fill:none;stroke-width:2;stroke-linecap:butt;stroke-linejoin:miter;stroke:rgb(0%,0%,0%);stroke-opacity:1;stroke-miterlimit:4;" d="M 335.598958 207 L 348.197917 220.302083 " transform="matrix(0.75,0,0,0.75,0,0)"/>
<path style="fill:none;stroke-width:2;stroke-linecap:butt;stroke-linejoin:miter;stroke:rgb(0%,0%,100%);stroke-opacity:1;stroke-miterlimit:4;" d="M 348.197917 220.302083 L 360.697917 233.598958 " transform="matrix(0.75,0,0,0.75,0,0)"/>
<path style="fill:none;stroke-width:2;stroke-linecap:butt;stroke-linejoin:miter;stroke:rgb(0%,0%,100%);stroke-opacity:1;stroke-miterlimit:4;" d="M 373.598958 240.598958 L 390.5 241.098958 " transform="matrix(0.75,0,0,0.75,0,0)"/>
<path style="fill:none;stroke-width:2;stroke-linecap:butt;stroke-linejoin:miter;stroke:rgb(80%,80%,0%);stroke-opacity:1;stroke-miterlimit:4;" d="M 390.5 241.098958 L 407.401042 241.5 " transform="matrix(0.75,0,0,0.75,0,0)"/>
<path style="fill:none;stroke-width:2;stroke-linecap:butt;stroke-linejoin:miter;stroke:rgb(80%,80%,0%);stroke-opacity:1;stroke-miterlimit:4;" d="M 409.401042 250 L 409 264.697917 " transform="matrix(0.75,0,0,0.75,0,0)"/>
<path style="fill:none;stroke-width:2;stroke-linecap:butt;stroke-linejoin:miter;stroke:rgb(100%,0%,0%);stroke-opacity:1;stroke-miterlimit:4;" d="M 409 264.697917 L 408.598958 279.5 " transform="matrix(0.75,0,0,0.75,0,0)"/>
<path style="fill:none;stroke-width:2;stroke-linecap:butt;stroke-linejoin:miter;stroke:rgb(80%,80%,0%);stroke-opacity:1;stroke-miterlimit:4;" d="M 416.302083 250.197917 L 415.901042 264.901042 " transform="matrix(0.75,0,0,0.75,0,0)"/>
<path style="fill:none;stroke-width:2;stroke-linecap:butt;stroke-linejoin:miter;stroke:rgb(100%,0%,0%);stroke-opacity:1;stroke-miterlimit:4;" d="M 415.901042 264.901042 L 415.5 279.697917 " transform="matrix(0.75,0,0,0.75,0,0)"/>
<path style="fill:none;stroke-width:2;stroke-linecap:butt;stroke-linejoin:miter;stroke:rgb(80%,80%,0%);stroke-opacity:1;stroke-miterlimit:4;" d="M 416.802083 233.802083 L 417.197917 219 " transform="matrix(0.75,0,0,0.75,0,0)"/>
<path style="fill:none;stroke-width:2;stroke-linecap:butt;stroke-linejoin:miter;stroke:rgb(100%,0%,0%);stroke-opacity:1;stroke-miterlimit:4;" d="M 417.197917 219 L 417.598958 204.098958 " transform="matrix(0.75,0,0,0.75,0,0)"/>
<path style="fill:none;stroke-width:2;stroke-linecap:butt;stroke-linejoin:miter;stroke:rgb(80%,80%,0%);stroke-opacity:1;stroke-miterlimit:4;" d="M 409.901042 233.598958 L 410.302083 218.802083 " transform="matrix(0.75,0,0,0.75,0,0)"/>
<path style="fill:none;stroke-width:2;stroke-linecap:butt;stroke-linejoin:miter;stroke:rgb(100%,0%,0%);stroke-opacity:1;stroke-miterlimit:4;" d="M 410.302083 218.802083 L 410.802083 204 " transform="matrix(0.75,0,0,0.75,0,0)"/>
<path style="fill:none;stroke-width:2;stroke-linecap:butt;stroke-linejoin:miter;stroke:rgb(80%,80%,0%);stroke-opacity:1;stroke-miterlimit:4;" d="M 418.802083 241.901042 L 435.197917 242.302083 " transform="matrix(0.75,0,0,0.75,0,0)"/>
<path style="fill:none;stroke-width:2;stroke-linecap:butt;stroke-linejoin:miter;stroke:rgb(100%,0%,0%);stroke-opacity:1;stroke-miterlimit:4;" d="M 435.197917 242.302083 L 451.598958 242.802083 " transform="matrix(0.75,0,0,0.75,0,0)"/>
<path style="fill:none;stroke-width:2;stroke-linecap:butt;stroke-linejoin:miter;stroke:rgb(0%,0%,100%);stroke-opacity:1;stroke-miterlimit:4;" d="M 360.697917 246.5 L 347.197917 259.197917 " transform="matrix(0.75,0,0,0.75,0,0)"/>
<path style="fill:none;stroke-width:2;stroke-linecap:butt;stroke-linejoin:miter;stroke:rgb(0%,0%,0%);stroke-opacity:1;stroke-miterlimit:4;" d="M 347.197917 259.197917 L 333.697917 272 " transform="matrix(0.75,0,0,0.75,0,0)"/>
<path style="fill:none;stroke-width:2;stroke-linecap:butt;stroke-linejoin:miter;stroke:rgb(0%,0%,100%);stroke-opacity:1;stroke-miterlimit:4;" d="M 122.598958 317.197917 L 142.302083 315.697917 " transform="matrix(0.75,0,0,0.75,0,0)"/>
<path style="fill:none;stroke-width:2;stroke-linecap:butt;stroke-linejoin:miter;stroke:rgb(0%,0%,0%);stroke-opacity:1;stroke-miterlimit:4;" d="M 142.302083 315.697917 L 162 314.197917 " transform="matrix(0.75,0,0,0.75,0,0)"/>
<path style="fill:none;stroke-width:2;stroke-linecap:butt;stroke-linejoin:miter;stroke:rgb(0%,0%,0%);stroke-opacity:1;stroke-miterlimit:4;" d="M 332.197917 270.302083 L 333.697917 272 L 334.401042 271.302083 " transform="matrix(0.75,0,0,0.75,0,0)"/>
<path style="fill:none;stroke-width:2;stroke-linecap:butt;stroke-linejoin:miter;stroke:rgb(0%,0%,0%);stroke-opacity:1;stroke-miterlimit:4;" d="M 303.802083 240.197917 L 302.197917 238.5 L 303.802083 237 " transform="matrix(0.75,0,0,0.75,0,0)"/>
<path style="fill:none;stroke-width:2;stroke-linecap:butt;stroke-linejoin:miter;stroke:rgb(0%,0%,0%);stroke-opacity:1;stroke-miterlimit:4;" d="M 232.598958 275.598958 L 232.098958 276.401042 L 229.802083 276.302083 " transform="matrix(0.75,0,0,0.75,0,0)"/>
<path style="fill:none;stroke-width:2;stroke-linecap:butt;stroke-linejoin:miter;stroke:rgb(0%,0%,0%);stroke-opacity:1;stroke-miterlimit:4;" d="M 75.802083 154.401042 L 74.697917 152.401042 L 75.098958 151.598958 " transform="matrix(0.75,0,0,0.75,0,0)"/>
<path style="fill:none;stroke-width:2;stroke-linecap:butt;stroke-linejoin:miter;stroke:rgb(0%,0%,0%);stroke-opacity:1;stroke-miterlimit:4;" d="M 178.697917 354.598958 L 179.5 356.697917 L 178.802083 357.302083 " transform="matrix(0.75,0,0,0.75,0,0)"/>
<path style="fill:none;stroke-width:2;stroke-linecap:butt;stroke-linejoin:miter;stroke:rgb(0%,0%,0%);stroke-opacity:1;stroke-miterlimit:4;" d="M 333.901042 208.5 L 335.598958 207 L 336.197917 207.598958 " transform="matrix(0.75,0,0,0.75,0,0)"/>
<path style=" stroke:none;fill-rule:nonzero;fill:rgb(0%,0%,100%);fill-opacity:1;" d="M 178.875 173.023438 L 180.226562 173.023438 L 180.226562 177.226562 L 185.175781 177.226562 L 185.175781 173.023438 L 186.523438 173.023438 L 186.523438 182.773438 L 185.175781 182.773438 L 185.175781 178.273438 L 180.226562 178.273438 L 180.226562 182.773438 L 178.875 182.773438 L 178.875 173.023438 "/>
<path style=" stroke:none;fill-rule:nonzero;fill:rgb(0%,0%,100%);fill-opacity:1;" d="M 189.976562 173.023438 L 193.199219 178.199219 C 193.398438 178.550781 193.675781 179.023438 194.023438 179.625 C 194.375 180.273438 194.550781 180.601562 194.550781 180.601562 L 194.550781 173.023438 L 195.898438 173.023438 L 195.898438 182.773438 L 194.550781 182.773438 L 191.101562 177.148438 C 190.851562 176.699219 190.574219 176.226562 190.273438 175.726562 C 189.976562 175.226562 189.800781 174.898438 189.75 174.75 L 189.75 182.773438 L 188.476562 182.773438 L 188.476562 173.023438 L 189.976562 173.023438 "/>
<path style=" stroke:none;fill-rule:nonzero;fill:rgb(100%,0%,0%);fill-opacity:1;" d="M 186 237.675781 C 186 236.074219 186.375 234.851562 187.125 234 C 187.925781 233.101562 189.023438 232.648438 190.425781 232.648438 C 191.875 232.648438 193 233.101562 193.800781 234 C 194.550781 234.851562 194.925781 236.074219 194.925781 237.675781 C 194.925781 239.226562 194.550781 240.449219 193.800781 241.351562 C 193 242.25 191.875 242.699219 190.425781 242.699219 C 189.023438 242.699219 187.925781 242.25 187.125 241.351562 C 186.375 240.449219 186 239.226562 186 237.675781 M 190.425781 241.574219 C 191.425781 241.574219 192.199219 241.25 192.75 240.601562 C 193.300781 239.949219 193.574219 238.976562 193.574219 237.675781 C 193.574219 236.375 193.300781 235.398438 192.75 234.75 C 192.199219 234.101562 191.425781 233.773438 190.425781 233.773438 C 189.476562 233.773438 188.726562 234.101562 188.175781 234.75 C 187.625 235.398438 187.351562 236.375 187.351562 237.675781 C 187.351562 238.976562 187.625 239.949219 188.175781 240.601562 C 188.726562 241.25 189.476562 241.574219 190.425781 241.574219 "/>
<path style=" stroke:none;fill-rule:nonzero;fill:rgb(0%,0%,100%);fill-opacity:1;" d="M 121.050781 171.074219 L 124.273438 176.25 C 124.476562 176.601562 124.75 177.074219 125.101562 177.675781 C 125.449219 178.273438 125.625 178.601562 125.625 178.648438 L 125.625 171.074219 L 126.898438 171.074219 L 126.898438 180.824219 L 125.625 180.824219 L 122.175781 175.199219 C 121.875 174.75 121.601562 174.273438 121.351562 173.773438 C 121.050781 173.273438 120.875 172.949219 120.824219 172.800781 L 120.824219 180.824219 L 119.550781 180.824219 L 119.550781 171.074219 L 121.050781 171.074219 "/>
<path style=" stroke:none;fill-rule:nonzero;fill:rgb(100%,0%,0%);fill-opacity:1;" d="M 84.300781 174.976562 C 84.300781 173.425781 84.675781 172.226562 85.425781 171.375 C 86.226562 170.476562 87.324219 170.023438 88.726562 170.023438 C 90.175781 170.023438 91.300781 170.476562 92.101562 171.375 C 92.851562 172.226562 93.226562 173.425781 93.226562 174.976562 C 93.226562 176.574219 92.851562 177.824219 92.101562 178.726562 C 91.300781 179.625 90.175781 180.074219 88.726562 180.074219 C 87.324219 180.074219 86.226562 179.625 85.425781 178.726562 C 84.675781 177.824219 84.300781 176.574219 84.300781 174.976562 M 88.726562 178.949219 C 89.726562 178.949219 90.5 178.625 91.050781 177.976562 C 91.601562 177.273438 91.875 176.273438 91.875 174.976562 C 91.875 173.726562 91.601562 172.773438 91.050781 172.125 C 90.5 171.476562 89.726562 171.148438 88.726562 171.148438 C 87.773438 171.148438 87.023438 171.476562 86.476562 172.125 C 85.925781 172.773438 85.648438 173.726562 85.648438 174.976562 C 85.648438 176.324219 85.925781 177.324219 86.476562 177.976562 C 87.023438 178.625 87.773438 178.949219 88.726562 178.949219 "/>
<path style=" stroke:none;fill-rule:nonzero;fill:rgb(100%,0%,0%);fill-opacity:1;" d="M 17.023438 113.324219 C 17.023438 111.773438 17.425781 110.550781 18.226562 109.648438 C 18.976562 108.800781 20.074219 108.375 21.523438 108.375 C 22.976562 108.375 24.074219 108.800781 24.824219 109.648438 C 25.625 110.550781 26.023438 111.773438 26.023438 113.324219 C 26.023438 114.925781 25.625 116.175781 24.824219 117.074219 C 24.074219 117.976562 22.976562 118.425781 21.523438 118.425781 C 20.074219 118.425781 18.976562 117.976562 18.226562 117.074219 C 17.425781 116.175781 17.023438 114.925781 17.023438 113.324219 M 21.523438 117.300781 C 22.523438 117.300781 23.300781 116.976562 23.851562 116.324219 C 24.351562 115.625 24.601562 114.625 24.601562 113.324219 C 24.601562 112.074219 24.351562 111.125 23.851562 110.476562 C 23.300781 109.824219 22.523438 109.5 21.523438 109.5 C 20.523438 109.5 19.75 109.800781 19.199219 110.398438 C 18.699219 111.050781 18.449219 112.023438 18.449219 113.324219 C 18.449219 114.625 18.699219 115.625 19.199219 116.324219 C 19.75 116.976562 20.523438 117.300781 21.523438 117.300781 "/>
<path style=" stroke:none;fill-rule:nonzero;fill:rgb(100%,0%,0%);fill-opacity:1;" d="M 69.601562 84.976562 C 69.601562 83.425781 69.976562 82.199219 70.726562 81.300781 C 71.523438 80.449219 72.648438 80.023438 74.101562 80.023438 C 75.550781 80.023438 76.648438 80.449219 77.398438 81.300781 C 78.199219 82.199219 78.601562 83.425781 78.601562 84.976562 C 78.601562 86.523438 78.199219 87.75 77.398438 88.648438 C 76.601562 89.550781 75.5 90 74.101562 90 C 72.648438 90 71.523438 89.550781 70.726562 88.648438 C 69.976562 87.800781 69.601562 86.574219 69.601562 84.976562 M 74.101562 88.949219 C 75.101562 88.949219 75.851562 88.601562 76.351562 87.898438 C 76.898438 87.25 77.175781 86.273438 77.175781 84.976562 C 77.175781 83.675781 76.898438 82.699219 76.351562 82.050781 C 75.851562 81.398438 75.101562 81.074219 74.101562 81.074219 C 73.101562 81.074219 72.324219 81.398438 71.773438 82.050781 C 71.226562 82.699219 70.949219 83.675781 70.949219 84.976562 C 70.949219 86.273438 71.226562 87.25 71.773438 87.898438 C 72.324219 88.601562 73.101562 88.949219 74.101562 88.949219 "/>
<path style=" stroke:none;fill-rule:nonzero;fill:rgb(100%,0%,0%);fill-opacity:1;" d="M 80.101562 80.101562 L 81.375 80.101562 L 81.375 84.226562 L 86.398438 84.226562 L 86.398438 80.101562 L 87.75 80.101562 L 87.75 89.851562 L 86.398438 89.851562 L 86.398438 85.351562 L 81.375 85.351562 L 81.375 89.851562 L 80.101562 89.851562 L 80.101562 80.101562 "/>
<path style=" stroke:none;fill-rule:nonzero;fill:rgb(80%,80%,0%);fill-opacity:1;" d="M 105.601562 293.25 C 105.699219 293.25 105.898438 293.324219 106.199219 293.476562 C 106.5 293.574219 106.800781 293.675781 107.101562 293.773438 C 107.449219 293.875 107.800781 293.925781 108.148438 293.925781 C 108.75 293.925781 109.226562 293.773438 109.574219 293.476562 C 109.976562 293.175781 110.175781 292.75 110.175781 292.199219 C 110.175781 291.851562 110.074219 291.574219 109.875 291.375 C 109.675781 291.125 109.449219 290.949219 109.199219 290.851562 C 108.898438 290.699219 108.523438 290.574219 108.074219 290.476562 C 107.523438 290.273438 107.074219 290.101562 106.726562 289.949219 C 106.375 289.75 106.074219 289.476562 105.824219 289.125 C 105.574219 288.773438 105.449219 288.324219 105.449219 287.773438 C 105.449219 286.925781 105.726562 286.25 106.273438 285.75 C 106.824219 285.25 107.648438 285 108.75 285 C 109.5 285 110.324219 285.175781 111.226562 285.523438 L 110.851562 286.574219 C 110.101562 286.273438 109.425781 286.125 108.824219 286.125 C 108.175781 286.125 107.675781 286.25 107.324219 286.5 C 106.976562 286.75 106.800781 287.101562 106.800781 287.550781 C 106.800781 287.898438 106.898438 288.199219 107.101562 288.449219 C 107.300781 288.648438 107.523438 288.800781 107.773438 288.898438 C 108.023438 289.050781 108.375 289.175781 108.824219 289.273438 C 109.425781 289.476562 109.898438 289.675781 110.25 289.875 C 110.601562 290.074219 110.898438 290.351562 111.148438 290.699219 C 111.398438 291.050781 111.523438 291.550781 111.523438 292.199219 C 111.523438 293.101562 111.226562 293.800781 110.625 294.300781 C 110.023438 294.75 109.226562 294.976562 108.226562 294.976562 C 107.625 294.976562 107.101562 294.925781 106.648438 294.824219 C 106.25 294.675781 105.773438 294.5 105.226562 294.300781 L 105.601562 293.25 "/>
<path style=" stroke:none;fill-rule:nonzero;fill:rgb(0%,0%,100%);fill-opacity:1;" d="M 28.273438 280.050781 L 29.625 280.050781 L 29.625 284.175781 L 34.574219 284.175781 L 34.574219 280.050781 L 35.925781 280.050781 L 35.925781 289.800781 L 34.574219 289.800781 L 34.574219 285.300781 L 29.625 285.300781 L 29.625 289.800781 L 28.273438 289.800781 L 28.273438 280.050781 "/>
<path style=" stroke:none;fill-rule:nonzero;fill:rgb(0%,0%,100%);fill-opacity:1;" d="M 37.800781 289.425781 C 38 289.023438 38.273438 288.726562 38.625 288.523438 C 39.023438 288.273438 39.476562 288.148438 39.976562 288.148438 C 40.625 288.148438 41.125 288.324219 41.476562 288.675781 C 41.875 289.023438 42.074219 289.523438 42.074219 290.175781 C 42.074219 290.773438 41.824219 291.375 41.324219 291.976562 C 40.875 292.574219 40.148438 293.226562 39.148438 293.925781 L 42.148438 293.925781 L 42.148438 294.675781 L 37.800781 294.675781 L 37.800781 294.074219 C 38.601562 293.476562 39.25 292.976562 39.75 292.574219 C 40.199219 292.125 40.550781 291.726562 40.800781 291.375 C 41.050781 290.976562 41.175781 290.574219 41.175781 290.175781 C 41.175781 289.773438 41.050781 289.449219 40.800781 289.199219 C 40.601562 289 40.324219 288.898438 39.976562 288.898438 C 39.625 288.898438 39.351562 288.976562 39.148438 289.125 C 38.898438 289.226562 38.699219 289.449219 38.550781 289.800781 L 37.800781 289.425781 "/>
<path style=" stroke:none;fill-rule:nonzero;fill:rgb(0%,0%,100%);fill-opacity:1;" d="M 45 280.050781 L 48.148438 285.226562 C 48.351562 285.523438 48.625 286 48.976562 286.648438 C 49.324219 287.25 49.5 287.574219 49.5 287.625 L 49.5 280.050781 L 50.851562 280.050781 L 50.851562 289.800781 L 49.5 289.800781 L 46.050781 284.175781 C 45.800781 283.726562 45.523438 283.25 45.226562 282.75 C 44.976562 282.199219 44.800781 281.851562 44.699219 281.699219 L 44.699219 289.800781 L 43.425781 289.800781 L 43.425781 280.050781 L 45 280.050781 "/>
<path style=" stroke:none;fill-rule:nonzero;fill:rgb(0%,0%,100%);fill-opacity:1;" d="M 84.976562 233.398438 L 88.199219 238.574219 C 88.398438 238.925781 88.675781 239.398438 89.023438 240 C 89.375 240.601562 89.550781 240.925781 89.550781 240.976562 L 89.550781 233.398438 L 90.824219 233.398438 L 90.824219 243.148438 L 89.476562 243.148438 L 86.101562 237.523438 C 85.800781 237.074219 85.523438 236.601562 85.273438 236.101562 C 84.976562 235.601562 84.773438 235.273438 84.675781 235.125 L 84.675781 243.148438 L 83.476562 243.148438 L 83.476562 233.398438 L 84.976562 233.398438 "/>
<path style=" stroke:none;fill-rule:nonzero;fill:rgb(100%,0%,0%);fill-opacity:1;" d="M 248.175781 120.824219 C 248.175781 119.226562 248.574219 118 249.375 117.148438 C 250.125 116.25 251.226562 115.800781 252.675781 115.800781 C 254.125 115.800781 255.226562 116.25 255.976562 117.148438 C 256.773438 118 257.175781 119.226562 257.175781 120.824219 C 257.175781 122.375 256.773438 123.601562 255.976562 124.5 C 255.226562 125.398438 254.125 125.851562 252.675781 125.851562 C 251.226562 125.851562 250.125 125.398438 249.375 124.5 C 248.574219 123.601562 248.175781 122.375 248.175781 120.824219 M 252.675781 124.726562 C 253.675781 124.726562 254.449219 124.398438 255 123.75 C 255.5 123.101562 255.75 122.125 255.75 120.824219 C 255.75 119.523438 255.5 118.550781 255 117.898438 C 254.449219 117.25 253.675781 116.925781 252.675781 116.925781 C 251.675781 116.925781 250.898438 117.25 250.351562 117.898438 C 249.851562 118.550781 249.601562 119.523438 249.601562 120.824219 C 249.601562 122.125 249.851562 123.101562 250.351562 123.75 C 250.898438 124.398438 251.675781 124.726562 252.675781 124.726562 "/>
<path style=" stroke:none;fill-rule:nonzero;fill:rgb(0%,0%,100%);fill-opacity:1;" d="M 273.226562 175.425781 L 276.449219 180.601562 C 276.648438 180.949219 276.925781 181.425781 277.273438 182.023438 C 277.574219 182.625 277.75 182.949219 277.800781 183 L 277.800781 175.425781 L 279.074219 175.425781 L 279.074219 185.175781 L 277.726562 185.175781 L 274.273438 179.550781 C 274.023438 179.101562 273.75 178.625 273.449219 178.125 C 273.199219 177.625 273.023438 177.273438 272.925781 177.074219 L 272.925781 185.175781 L 271.648438 185.175781 L 271.648438 175.425781 L 273.226562 175.425781 "/>
<path style=" stroke:none;fill-rule:nonzero;fill:rgb(80%,80%,0%);fill-opacity:1;" d="M 307.050781 184.648438 C 307.148438 184.648438 307.351562 184.726562 307.648438 184.875 C 307.949219 184.976562 308.273438 185.074219 308.625 185.175781 C 308.925781 185.273438 309.25 185.324219 309.601562 185.324219 C 310.199219 185.324219 310.699219 185.175781 311.101562 184.875 C 311.449219 184.574219 311.625 184.148438 311.625 183.601562 C 311.625 183.25 311.523438 182.976562 311.324219 182.773438 C 311.175781 182.523438 310.949219 182.351562 310.648438 182.25 C 310.398438 182.101562 310.023438 181.976562 309.523438 181.875 C 308.976562 181.675781 308.523438 181.5 308.175781 181.351562 C 307.824219 181.148438 307.523438 180.875 307.273438 180.523438 C 307.023438 180.175781 306.898438 179.726562 306.898438 179.175781 C 306.898438 178.324219 307.175781 177.648438 307.726562 177.148438 C 308.324219 176.648438 309.175781 176.398438 310.273438 176.398438 C 311.023438 176.398438 311.824219 176.574219 312.675781 176.925781 L 312.375 177.976562 C 311.574219 177.675781 310.875 177.523438 310.273438 177.523438 C 309.625 177.523438 309.125 177.648438 308.773438 177.898438 C 308.425781 178.199219 308.273438 178.574219 308.324219 179.023438 C 308.324219 179.375 308.398438 179.648438 308.550781 179.851562 C 308.75 180.050781 308.976562 180.199219 309.226562 180.300781 C 309.476562 180.449219 309.824219 180.601562 310.273438 180.75 C 310.875 180.898438 311.351562 181.074219 311.699219 181.273438 C 312.050781 181.476562 312.351562 181.75 312.601562 182.101562 C 312.851562 182.449219 312.976562 182.949219 312.976562 183.601562 C 312.976562 184.5 312.675781 185.199219 312.074219 185.699219 C 311.476562 186.148438 310.675781 186.375 309.675781 186.375 C 309.074219 186.375 308.550781 186.324219 308.101562 186.226562 C 307.699219 186.074219 307.226562 185.898438 306.675781 185.699219 L 307.050781 184.648438 "/>
<path style=" stroke:none;fill-rule:nonzero;fill:rgb(100%,0%,0%);fill-opacity:1;" d="M 304.351562 215.773438 C 304.351562 214.226562 304.75 213 305.550781 212.101562 C 306.300781 211.25 307.398438 210.824219 308.851562 210.824219 C 310.300781 210.824219 311.398438 211.25 312.148438 212.101562 C 312.949219 213 313.351562 214.226562 313.351562 215.773438 C 313.351562 217.375 312.949219 218.625 312.148438 219.523438 C 311.398438 220.375 310.300781 220.800781 308.851562 220.800781 C 307.398438 220.800781 306.300781 220.375 305.550781 219.523438 C 304.75 218.625 304.351562 217.375 304.351562 215.773438 M 308.851562 219.75 C 309.851562 219.75 310.625 219.425781 311.175781 218.773438 C 311.726562 218.074219 312 217.074219 312 215.773438 C 312 214.476562 311.726562 213.523438 311.175781 212.925781 C 310.625 212.226562 309.851562 211.875 308.851562 211.875 C 307.851562 211.875 307.074219 212.199219 306.523438 212.851562 C 306.023438 213.5 305.773438 214.476562 305.773438 215.773438 C 305.773438 217.074219 306.023438 218.074219 306.523438 218.773438 C 307.074219 219.425781 307.851562 219.75 308.851562 219.75 "/>
<path style=" stroke:none;fill-rule:nonzero;fill:rgb(100%,0%,0%);fill-opacity:1;" d="M 306.375 146.851562 C 306.375 145.300781 306.75 144.074219 307.5 143.175781 C 308.25 142.324219 309.351562 141.898438 310.800781 141.898438 C 312.25 141.898438 313.375 142.324219 314.175781 143.175781 C 314.925781 144.074219 315.300781 145.300781 315.300781 146.851562 C 315.300781 148.398438 314.898438 149.648438 314.101562 150.601562 C 313.351562 151.449219 312.25 151.875 310.800781 151.875 C 309.398438 151.875 308.300781 151.449219 307.5 150.601562 C 306.75 149.699219 306.375 148.449219 306.375 146.851562 M 310.800781 150.824219 C 311.800781 150.824219 312.574219 150.476562 313.125 149.773438 C 313.675781 149.125 313.949219 148.148438 313.949219 146.851562 C 313.949219 145.550781 313.675781 144.574219 313.125 143.925781 C 312.574219 143.273438 311.800781 142.949219 310.800781 142.949219 C 309.800781 142.949219 309.050781 143.273438 308.550781 143.925781 C 308 144.574219 307.726562 145.550781 307.726562 146.851562 C 307.726562 148.148438 308 149.125 308.550781 149.773438 C 309.050781 150.476562 309.800781 150.824219 310.800781 150.824219 "/>
<path style=" stroke:none;fill-rule:nonzero;fill:rgb(100%,0%,0%);fill-opacity:1;" d="M 339.824219 182.324219 C 339.824219 180.726562 340.199219 179.5 340.949219 178.648438 C 341.75 177.75 342.875 177.300781 344.324219 177.300781 C 345.773438 177.300781 346.875 177.75 347.625 178.648438 C 348.425781 179.5 348.824219 180.726562 348.824219 182.324219 C 348.824219 183.875 348.425781 185.101562 347.625 186 C 346.824219 186.898438 345.726562 187.351562 344.324219 187.351562 C 342.875 187.351562 341.75 186.898438 340.949219 186 C 340.199219 185.101562 339.824219 183.875 339.824219 182.324219 M 344.324219 186.226562 C 345.324219 186.226562 346.074219 185.898438 346.574219 185.25 C 347.125 184.601562 347.398438 183.625 347.398438 182.324219 C 347.398438 181.023438 347.125 180.050781 346.574219 179.398438 C 346.074219 178.75 345.324219 178.425781 344.324219 178.425781 C 343.324219 178.425781 342.550781 178.75 342 179.398438 C 341.449219 180.050781 341.175781 181.023438 341.175781 182.324219 C 341.175781 183.625 341.449219 184.601562 342 185.25 C 342.550781 185.898438 343.324219 186.226562 344.324219 186.226562 "/>
<path style=" stroke:none;fill-rule:nonzero;fill:rgb(100%,0%,0%);fill-opacity:1;" d="M 350.324219 177.449219 L 351.675781 177.449219 L 351.675781 181.574219 L 356.625 181.574219 L 356.625 177.449219 L 357.976562 177.449219 L 357.976562 187.199219 L 356.625 187.199219 L 356.625 182.699219 L 351.675781 182.699219 L 351.675781 187.199219 L 350.324219 187.199219 L 350.324219 177.449219 "/>
</g>
</svg>
