<?xml version="1.0" encoding="UTF-8"?>
<svg xmlns="http://www.w3.org/2000/svg" xmlns:xlink="http://www.w3.org/1999/xlink" width="375pt" height="375pt" viewBox="0 0 375 375" version="1.1">
<g id="surface136">
<rect x="0" y="0" width="375" height="375" style="fill:rgb(100%,100%,100%);fill-opacity:1;stroke:none;"/>
<path style="fill:none;stroke-width:2;stroke-linecap:butt;stroke-linejoin:miter;stroke:rgb(0%,0%,0%);stroke-opacity:1;stroke-miterlimit:4;" d="M 58.802083 173.598958 L 58.098958 188.598958 " transform="matrix(0.75,0,0,0.75,0,0)"/>
<path style="fill:none;stroke-width:2;stroke-linecap:butt;stroke-linejoin:miter;stroke:rgb(0%,0%,100%);stroke-opacity:1;stroke-miterlimit:4;" d="M 58.098958 188.598958 L 57.401042 203.697917 " transform="matrix(0.75,0,0,0.75,0,0)"/>
<path style="fill:none;stroke-width:2;stroke-linecap:butt;stroke-linejoin:miter;stroke:rgb(0%,0%,100%);stroke-opacity:1;stroke-miterlimit:4;" d="M 52 213.401042 L 31.802083 226.697917 " transform="matrix(0.75,0,0,0.75,0,0)"/>
<path style="fill:none;stroke-width:2;stroke-linecap:butt;stroke-linejoin:miter;stroke:rgb(0%,0%,100%);stroke-opacity:1;stroke-miterlimit:4;" d="M 28.401042 236.401042 L 34.5 258.901042 " transform="matrix(0.75,0,0,0.75,0,0)"/>
<path style="fill:none;stroke-width:2;stroke-linecap:butt;stroke-linejoin:miter;stroke:rgb(0%,0%,100%);stroke-opacity:1;stroke-miterlimit:4;" d="M 36.302083 237.901042 L 40.598958 253.598958 " transform="matrix(0.75,0,0,0.75,0,0)"/>
<path style="fill:none;stroke-width:2;stroke-linecap:butt;stroke-linejoin:miter;stroke:rgb(0%,0%,100%);stroke-opacity:1;stroke-miterlimit:4;" d="M 41.401042 265.5 L 67.598958 266.697917 " transform="matrix(0.75,0,0,0.75,0,0)"/>
<path style="fill:none;stroke-width:2;stroke-linecap:butt;stroke-linejoin:miter;stroke:rgb(0%,0%,100%);stroke-opacity:1;stroke-miterlimit:4;" d="M 75.098958 260.598958 L 80.401042 246.697917 " transform="matrix(0.75,0,0,0.75,0,0)"/>
<path style="fill:none;stroke-width:2;stroke-linecap:butt;stroke-linejoin:miter;stroke:rgb(0%,0%,0%);stroke-opacity:1;stroke-miterlimit:4;" d="M 80.401042 246.697917 L 85.598958 232.901042 " transform="matrix(0.75,0,0,0.75,0,0)"/>
<path style="fill:none;stroke-width:2;stroke-linecap:butt;stroke-linejoin:miter;stroke:rgb(0%,0%,100%);stroke-opacity:1;stroke-miterlimit:4;" d="M 69.901042 253.901042 L 73.5 244.197917 " transform="matrix(0.75,0,0,0.75,0,0)"/>
<path style="fill:none;stroke-width:2;stroke-linecap:butt;stroke-linejoin:miter;stroke:rgb(0%,0%,0%);stroke-opacity:1;stroke-miterlimit:4;" d="M 73.5 244.197917 L 77.197917 234.401042 " transform="matrix(0.75,0,0,0.75,0,0)"/>
<path style="fill:none;stroke-width:2;stroke-linecap:butt;stroke-linejoin:miter;stroke:rgb(0%,0%,0%);stroke-opacity:1;stroke-miterlimit:4;" d="M 85.598958 232.901042 L 100.901042 228.697917 " transform="matrix(0.75,0,0,0.75,0,0)"/>
<path style="fill:none;stroke-width:2;stroke-linecap:butt;stroke-linejoin:miter;stroke:rgb(80%,80%,0%);stroke-opacity:1;stroke-miterlimit:4;" d="M 100.901042 228.697917 L 116.302083 224.5 " transform="matrix(0.75,0,0,0.75,0,0)"/>
<path style="fill:none;stroke-width:2;stroke-linecap:butt;stroke-linejoin:miter;stroke:rgb(80%,80%,0%);stroke-opacity:1;stroke-miterlimit:4;" d="M 125.302083 227.697917 L 136 238.302083 " transform="matrix(0.75,0,0,0.75,0,0)"/>
<path style="fill:none;stroke-width:2;stroke-linecap:butt;stroke-linejoin:miter;stroke:rgb(0%,0%,0%);stroke-opacity:1;stroke-miterlimit:4;" d="M 136 238.302083 L 146.697917 248.901042 " transform="matrix(0.75,0,0,0.75,0,0)"/>
<path style="fill:none;stroke-width:2;stroke-linecap:butt;stroke-linejoin:miter;stroke:rgb(0%,0%,0%);stroke-opacity:1;stroke-miterlimit:4;" d="M 146.697917 248.901042 L 181.901042 239.197917 " transform="matrix(0.75,0,0,0.75,0,0)"/>
<path style="fill:none;stroke-width:2;stroke-linecap:butt;stroke-linejoin:miter;stroke:rgb(0%,0%,0%);stroke-opacity:1;stroke-miterlimit:4;" d="M 181.901042 239.197917 L 207.802083 264.901042 " transform="matrix(0.75,0,0,0.75,0,0)"/>
<path style="fill:none;stroke-width:2;stroke-linecap:butt;stroke-linejoin:miter;stroke:rgb(0%,0%,0%);stroke-opacity:1;stroke-miterlimit:4;" d="M 190.901042 237.901042 L 209.098958 255.901042 " transform="matrix(0.75,0,0,0.75,0,0)"/>
<path style="fill:none;stroke-width:2;stroke-linecap:butt;stroke-linejoin:miter;stroke:rgb(0%,0%,0%);stroke-opacity:1;stroke-miterlimit:4;" d="M 207.802083 264.901042 L 198.598958 300.197917 " transform="matrix(0.75,0,0,0.75,0,0)"/>
<path style="fill:none;stroke-width:2;stroke-linecap:butt;stroke-linejoin:miter;stroke:rgb(0%,0%,0%);stroke-opacity:1;stroke-miterlimit:4;" d="M 201.098958 297.598958 L 211.098958 307.5 " transform="matrix(0.75,0,0,0.75,0,0)"/>
<path style="fill:none;stroke-width:2;stroke-linecap:butt;stroke-linejoin:miter;stroke:rgb(100%,0%,0%);stroke-opacity:1;stroke-miterlimit:4;" d="M 211.098958 307.5 L 221.098958 317.401042 " transform="matrix(0.75,0,0,0.75,0,0)"/>
<path style="fill:none;stroke-width:2;stroke-linecap:butt;stroke-linejoin:miter;stroke:rgb(0%,0%,0%);stroke-opacity:1;stroke-miterlimit:4;" d="M 196 302.802083 L 206 312.697917 " transform="matrix(0.75,0,0,0.75,0,0)"/>
<path style="fill:none;stroke-width:2;stroke-linecap:butt;stroke-linejoin:miter;stroke:rgb(100%,0%,0%);stroke-opacity:1;stroke-miterlimit:4;" d="M 206 312.697917 L 216 322.5 " transform="matrix(0.75,0,0,0.75,0,0)"/>
<path style="fill:none;stroke-width:2;stroke-linecap:butt;stroke-linejoin:miter;stroke:rgb(0%,0%,0%);stroke-opacity:1;stroke-miterlimit:4;" d="M 198.598958 300.197917 L 184 304.197917 " transform="matrix(0.75,0,0,0.75,0,0)"/>
<path style="fill:none;stroke-width:2;stroke-linecap:butt;stroke-linejoin:miter;stroke:rgb(100%,0%,0%);stroke-opacity:1;stroke-miterlimit:4;" d="M 184 304.197917 L 169.302083 308.197917 " transform="matrix(0.75,0,0,0.75,0,0)"/>
<path style="fill:none;stroke-width:2;stroke-linecap:butt;stroke-linejoin:miter;stroke:rgb(0%,0%,0%);stroke-opacity:1;stroke-miterlimit:4;" d="M 207.802083 264.901042 L 222.901042 260.802083 " transform="matrix(0.75,0,0,0.75,0,0)"/>
<path style="fill:none;stroke-width:2;stroke-linecap:butt;stroke-linejoin:miter;stroke:rgb(0%,0%,100%);stroke-opacity:1;stroke-miterlimit:4;" d="M 222.901042 260.802083 L 237.901042 256.697917 " transform="matrix(0.75,0,0,0.75,0,0)"/>
<path style="fill:none;stroke-width:2;stroke-linecap:butt;stroke-linejoin:miter;stroke:rgb(0%,0%,100%);stroke-opacity:1;stroke-miterlimit:4;" d="M 248.098958 256.598958 L 263.197917 260.598958 " transform="matrix(0.75,0,0,0.75,0,0)"/>
<path style="fill:none;stroke-width:2;stroke-linecap:butt;stroke-linejoin:miter;stroke:rgb(0%,0%,0%);stroke-opacity:1;stroke-miterlimit:4;" d="M 263.197917 260.598958 L 278.302083 264.5 " transform="matrix(0.75,0,0,0.75,0,0)"/>
<path style="fill:none;stroke-width:2;stroke-linecap:butt;stroke-linejoin:miter;stroke:rgb(0%,0%,0%);stroke-opacity:1;stroke-miterlimit:4;" d="M 281.401042 262.697917 L 288.802083 275.197917 " transform="matrix(0.75,0,0,0.75,0,0)"/>
<path style="fill:none;stroke-width:2;stroke-linecap:butt;stroke-linejoin:miter;stroke:rgb(100%,0%,0%);stroke-opacity:1;stroke-miterlimit:4;" d="M 288.802083 275.197917 L 296.098958 287.697917 " transform="matrix(0.75,0,0,0.75,0,0)"/>
<path style="fill:none;stroke-width:2;stroke-linecap:butt;stroke-linejoin:miter;stroke:rgb(0%,0%,0%);stroke-opacity:1;stroke-miterlimit:4;" d="M 275.098958 266.401042 L 282.5 278.901042 " transform="matrix(0.75,0,0,0.75,0,0)"/>
<path style="fill:none;stroke-width:2;stroke-linecap:butt;stroke-linejoin:miter;stroke:rgb(100%,0%,0%);stroke-opacity:1;stroke-miterlimit:4;" d="M 282.5 278.901042 L 289.802083 291.401042 " transform="matrix(0.75,0,0,0.75,0,0)"/>
<path style="fill:none;stroke-width:2;stroke-linecap:butt;stroke-linejoin:miter;stroke:rgb(0%,0%,0%);stroke-opacity:1;stroke-miterlimit:4;" d="M 278.302083 264.5 L 287.5 229.197917 " transform="matrix(0.75,0,0,0.75,0,0)"/>
<path style="fill:none;stroke-width:1;stroke-linecap:butt;stroke-linejoin:miter;stroke:rgb(0%,0%,0%);stroke-opacity:1;stroke-miterlimit:4;" d="M 292.901042 226.901042 L 292.197917 225.697917 " transform="matrix(0.75,0,0,0.75,0,0)"/>
<path style="fill:none;stroke-width:1;stroke-linecap:butt;stroke-linejoin:miter;stroke:rgb(0%,0%,0%);stroke-opacity:1;stroke-miterlimit:4;" d="M 298.302083 224.598958 L 296.901042 222.098958 " transform="matrix(0.75,0,0,0.75,0,0)"/>
<path style="fill:none;stroke-width:1;stroke-linecap:butt;stroke-linejoin:miter;stroke:rgb(0%,0%,100%);stroke-opacity:1;stroke-miterlimit:4;" d="M 303.697917 222.302083 L 301.5 218.5 " transform="matrix(0.75,0,0,0.75,0,0)"/>
<path style="fill:none;stroke-width:1;stroke-linecap:butt;stroke-linejoin:miter;stroke:rgb(0%,0%,100%);stroke-opacity:1;stroke-miterlimit:4;" d="M 309.098958 220 L 306.197917 214.901042 " transform="matrix(0.75,0,0,0.75,0,0)"/>
<path style="fill:none;stroke-width:1;stroke-linecap:butt;stroke-linejoin:miter;stroke:rgb(0%,0%,100%);stroke-opacity:1;stroke-miterlimit:4;" d="M 314.5 217.697917 L 310.901042 211.401042 " transform="matrix(0.75,0,0,0.75,0,0)"/>
<path style="fill:none;stroke-width:2;stroke-linecap:butt;stroke-linejoin:miter;stroke:rgb(0%,0%,100%);stroke-opacity:1;stroke-miterlimit:4;" d="M 324.197917 213.697917 L 337.401042 221.302083 " transform="matrix(0.75,0,0,0.75,0,0)"/>
<path style="fill:none;stroke-width:2;stroke-linecap:butt;stroke-linejoin:miter;stroke:rgb(0%,0%,0%);stroke-opacity:1;stroke-miterlimit:4;" d="M 337.401042 221.302083 L 350.697917 228.901042 " transform="matrix(0.75,0,0,0.75,0,0)"/>
<path style="fill:none;stroke-width:2;stroke-linecap:butt;stroke-linejoin:miter;stroke:rgb(0%,0%,0%);stroke-opacity:1;stroke-miterlimit:4;" d="M 354.401042 228.901042 L 354.401042 243.901042 " transform="matrix(0.75,0,0,0.75,0,0)"/>
<path style="fill:none;stroke-width:2;stroke-linecap:butt;stroke-linejoin:miter;stroke:rgb(100%,0%,0%);stroke-opacity:1;stroke-miterlimit:4;" d="M 354.401042 243.901042 L 354.5 258.901042 " transform="matrix(0.75,0,0,0.75,0,0)"/>
<path style="fill:none;stroke-width:2;stroke-linecap:butt;stroke-linejoin:miter;stroke:rgb(0%,0%,0%);stroke-opacity:1;stroke-miterlimit:4;" d="M 347.098958 228.901042 L 347.197917 243.901042 " transform="matrix(0.75,0,0,0.75,0,0)"/>
<path style="fill:none;stroke-width:2;stroke-linecap:butt;stroke-linejoin:miter;stroke:rgb(100%,0%,0%);stroke-opacity:1;stroke-miterlimit:4;" d="M 347.197917 243.901042 L 347.197917 259 " transform="matrix(0.75,0,0,0.75,0,0)"/>
<path style="fill:none;stroke-width:2;stroke-linecap:butt;stroke-linejoin:miter;stroke:rgb(0%,0%,0%);stroke-opacity:1;stroke-miterlimit:4;" d="M 350.697917 228.901042 L 382.197917 210.5 " transform="matrix(0.75,0,0,0.75,0,0)"/>
<path style="fill:none;stroke-width:1;stroke-linecap:butt;stroke-linejoin:miter;stroke:rgb(0%,0%,0%);stroke-opacity:1;stroke-miterlimit:4;" d="M 382.901042 204.697917 L 381.5 204.697917 " transform="matrix(0.75,0,0,0.75,0,0)"/>
<path style="fill:none;stroke-width:1;stroke-linecap:butt;stroke-linejoin:miter;stroke:rgb(0%,0%,0%);stroke-opacity:1;stroke-miterlimit:4;" d="M 383.598958 199 L 380.697917 199 " transform="matrix(0.75,0,0,0.75,0,0)"/>
<path style="fill:none;stroke-width:1;stroke-linecap:butt;stroke-linejoin:miter;stroke:rgb(100%,0%,0%);stroke-opacity:1;stroke-miterlimit:4;" d="M 384.302083 193.302083 L 379.901042 193.302083 " transform="matrix(0.75,0,0,0.75,0,0)"/>
<path style="fill:none;stroke-width:1;stroke-linecap:butt;stroke-linejoin:miter;stroke:rgb(100%,0%,0%);stroke-opacity:1;stroke-miterlimit:4;" d="M 385 187.5 L 379.197917 187.598958 " transform="matrix(0.75,0,0,0.75,0,0)"/>
<path style="fill:none;stroke-width:1;stroke-linecap:butt;stroke-linejoin:miter;stroke:rgb(100%,0%,0%);stroke-opacity:1;stroke-miterlimit:4;" d="M 385.697917 181.802083 L 378.401042 181.802083 " transform="matrix(0.75,0,0,0.75,0,0)"/>
<path style="fill:none;stroke-width:2;stroke-linecap:butt;stroke-linejoin:miter;stroke:rgb(0%,0%,0%);stroke-opacity:1;stroke-miterlimit:4;" d="M 382.197917 210.5 L 413.901042 228.598958 " transform="matrix(0.75,0,0,0.75,0,0)"/>
<path style="fill:none;stroke-width:2;stroke-linecap:butt;stroke-linejoin:miter;stroke:rgb(0%,0%,0%);stroke-opacity:1;stroke-miterlimit:4;" d="M 413.901042 228.598958 L 414.098958 265 " transform="matrix(0.75,0,0,0.75,0,0)"/>
<path style="fill:none;stroke-width:2;stroke-linecap:butt;stroke-linejoin:miter;stroke:rgb(0%,0%,0%);stroke-opacity:1;stroke-miterlimit:4;" d="M 421.197917 234 L 421.401042 259.5 " transform="matrix(0.75,0,0,0.75,0,0)"/>
<path style="fill:none;stroke-width:2;stroke-linecap:butt;stroke-linejoin:miter;stroke:rgb(0%,0%,0%);stroke-opacity:1;stroke-miterlimit:4;" d="M 414.098958 265 L 445.802083 283.098958 " transform="matrix(0.75,0,0,0.75,0,0)"/>
<path style="fill:none;stroke-width:2;stroke-linecap:butt;stroke-linejoin:miter;stroke:rgb(0%,0%,0%);stroke-opacity:1;stroke-miterlimit:4;" d="M 445.802083 283.098958 L 477.302083 264.697917 " transform="matrix(0.75,0,0,0.75,0,0)"/>
<path style="fill:none;stroke-width:2;stroke-linecap:butt;stroke-linejoin:miter;stroke:rgb(0%,0%,0%);stroke-opacity:1;stroke-miterlimit:4;" d="M 446.802083 274 L 468.901042 261.098958 " transform="matrix(0.75,0,0,0.75,0,0)"/>
<path style="fill:none;stroke-width:2;stroke-linecap:butt;stroke-linejoin:miter;stroke:rgb(0%,0%,0%);stroke-opacity:1;stroke-miterlimit:4;" d="M 477.302083 264.697917 L 477.098958 228.197917 " transform="matrix(0.75,0,0,0.75,0,0)"/>
<path style="fill:none;stroke-width:2;stroke-linecap:butt;stroke-linejoin:miter;stroke:rgb(0%,0%,0%);stroke-opacity:1;stroke-miterlimit:4;" d="M 477.098958 228.197917 L 445.401042 210.098958 " transform="matrix(0.75,0,0,0.75,0,0)"/>
<path style="fill:none;stroke-width:2;stroke-linecap:butt;stroke-linejoin:miter;stroke:rgb(0%,0%,0%);stroke-opacity:1;stroke-miterlimit:4;" d="M 468.697917 231.802083 L 446.5 219.197917 " transform="matrix(0.75,0,0,0.75,0,0)"/>
<path style="fill:none;stroke-width:2;stroke-linecap:butt;stroke-linejoin:miter;stroke:rgb(0%,0%,0%);stroke-opacity:1;stroke-miterlimit:4;" d="M 287.5 229.197917 L 252.302083 220 " transform="matrix(0.75,0,0,0.75,0,0)"/>
<path style="fill:none;stroke-width:2;stroke-linecap:butt;stroke-linejoin:miter;stroke:rgb(0%,0%,0%);stroke-opacity:1;stroke-miterlimit:4;" d="M 252.302083 220 L 241.598958 209.401042 " transform="matrix(0.75,0,0,0.75,0,0)"/>
<path style="fill:none;stroke-width:2;stroke-linecap:butt;stroke-linejoin:miter;stroke:rgb(80%,80%,0%);stroke-opacity:1;stroke-miterlimit:4;" d="M 241.598958 209.401042 L 230.802083 198.802083 " transform="matrix(0.75,0,0,0.75,0,0)"/>
<path style="fill:none;stroke-width:2;stroke-linecap:butt;stroke-linejoin:miter;stroke:rgb(80%,80%,0%);stroke-opacity:1;stroke-miterlimit:4;" d="M 221.802083 195.598958 L 206.5 199.802083 " transform="matrix(0.75,0,0,0.75,0,0)"/>
<path style="fill:none;stroke-width:2;stroke-linecap:butt;stroke-linejoin:miter;stroke:rgb(0%,0%,0%);stroke-opacity:1;stroke-miterlimit:4;" d="M 206.5 199.802083 L 191.098958 204 " transform="matrix(0.75,0,0,0.75,0,0)"/>
<path style="fill:none;stroke-width:2;stroke-linecap:butt;stroke-linejoin:miter;stroke:rgb(0%,0%,0%);stroke-opacity:1;stroke-miterlimit:4;" d="M 85.598958 232.901042 L 73.901042 223.5 " transform="matrix(0.75,0,0,0.75,0,0)"/>
<path style="fill:none;stroke-width:2;stroke-linecap:butt;stroke-linejoin:miter;stroke:rgb(0%,0%,100%);stroke-opacity:1;stroke-miterlimit:4;" d="M 73.901042 223.5 L 62.302083 214.197917 " transform="matrix(0.75,0,0,0.75,0,0)"/>
<path style="fill:none;stroke-width:2;stroke-linecap:butt;stroke-linejoin:miter;stroke:rgb(0%,0%,0%);stroke-opacity:1;stroke-miterlimit:4;" d="M 191.098958 204 L 181.901042 239.197917 " transform="matrix(0.75,0,0,0.75,0,0)"/>
<path style="fill:none;stroke-width:2;stroke-linecap:butt;stroke-linejoin:miter;stroke:rgb(0%,0%,0%);stroke-opacity:1;stroke-miterlimit:4;" d="M 252.302083 220 L 248.5 234.401042 " transform="matrix(0.75,0,0,0.75,0,0)"/>
<path style="fill:none;stroke-width:2;stroke-linecap:butt;stroke-linejoin:miter;stroke:rgb(0%,0%,100%);stroke-opacity:1;stroke-miterlimit:4;" d="M 248.5 234.401042 L 244.697917 248.901042 " transform="matrix(0.75,0,0,0.75,0,0)"/>
<path style="fill:none;stroke-width:2;stroke-linecap:butt;stroke-linejoin:miter;stroke:rgb(0%,0%,0%);stroke-opacity:1;stroke-miterlimit:4;" d="M 445.401042 210.098958 L 413.901042 228.598958 " transform="matrix(0.75,0,0,0.75,0,0)"/>
<path style="fill-rule:evenodd;fill:rgb(0%,0%,0%);fill-opacity:1;stroke-width:1;stroke-linecap:butt;stroke-linejoin:miter;stroke:rgb(0%,0%,0%);stroke-opacity:1;stroke-miterlimit:4;" d="M 252.302083 220 L 262.802083 194.098958 L 269.197917 197.697917 Z M 252.302083 220 " transform="matrix(0.75,0,0,0.75,0,0)"/>
<path style=" stroke:none;fill-rule:nonzero;fill:rgb(0%,0%,100%);fill-opacity:1;" d="M 41.101562 153.675781 L 43.648438 157.800781 C 43.851562 158.050781 44.074219 158.425781 44.324219 158.925781 C 44.574219 159.425781 44.726562 159.675781 44.773438 159.675781 L 44.773438 153.675781 L 45.75 153.675781 L 45.75 161.398438 L 44.699219 161.398438 L 42 156.898438 C 41.800781 156.550781 41.574219 156.175781 41.324219 155.773438 C 41.125 155.375 41 155.125 40.949219 155.023438 L 40.949219 161.398438 L 39.898438 161.398438 L 39.898438 153.675781 L 41.101562 153.675781 "/>
<path style=" stroke:none;fill-rule:nonzero;fill:rgb(0%,0%,100%);fill-opacity:1;" d="M 18.300781 168.675781 L 20.773438 172.800781 C 20.976562 173.050781 21.199219 173.425781 21.449219 173.925781 C 21.75 174.425781 21.898438 174.675781 21.898438 174.675781 L 21.898438 168.675781 L 22.949219 168.675781 L 22.949219 176.398438 L 21.824219 176.398438 L 19.125 171.976562 C 18.925781 171.625 18.699219 171.25 18.449219 170.851562 C 18.25 170.449219 18.125 170.175781 18.074219 170.023438 L 18.074219 176.398438 L 17.023438 176.398438 L 17.023438 168.675781 L 18.300781 168.675781 "/>
<path style=" stroke:none;fill-rule:nonzero;fill:rgb(0%,0%,100%);fill-opacity:1;" d="M 25.5 195.074219 L 28.050781 199.199219 C 28.199219 199.449219 28.425781 199.824219 28.726562 200.324219 C 28.976562 200.824219 29.101562 201.074219 29.101562 201.074219 L 29.101562 195.074219 L 30.148438 195.074219 L 30.148438 202.800781 L 29.101562 202.800781 L 26.324219 198.300781 C 26.125 197.949219 25.925781 197.574219 25.726562 197.175781 C 25.476562 196.773438 25.324219 196.523438 25.273438 196.425781 L 25.273438 202.800781 L 24.300781 202.800781 L 24.300781 195.074219 L 25.5 195.074219 "/>
<path style=" stroke:none;fill-rule:nonzero;fill:rgb(0%,0%,100%);fill-opacity:1;" d="M 52.800781 196.351562 L 55.351562 200.476562 C 55.5 200.726562 55.726562 201.101562 56.023438 201.601562 C 56.273438 202.101562 56.425781 202.351562 56.476562 202.351562 L 56.476562 196.351562 L 57.449219 196.351562 L 57.449219 204.074219 L 56.398438 204.074219 L 53.699219 199.648438 C 53.5 199.300781 53.273438 198.925781 53.023438 198.523438 C 52.824219 198.125 52.675781 197.851562 52.574219 197.699219 L 52.574219 204.074219 L 51.601562 204.074219 L 51.601562 196.351562 L 52.800781 196.351562 "/>
<path style=" stroke:none;fill-rule:nonzero;fill:rgb(80%,80%,0%);fill-opacity:1;" d="M 88.425781 170.101562 C 88.476562 170.101562 88.625 170.148438 88.875 170.25 C 89.074219 170.351562 89.324219 170.425781 89.625 170.476562 C 89.875 170.574219 90.125 170.625 90.375 170.625 C 90.875 170.625 91.273438 170.5 91.574219 170.25 C 91.824219 170 91.949219 169.675781 91.949219 169.273438 C 91.949219 168.976562 91.898438 168.75 91.800781 168.601562 C 91.648438 168.398438 91.449219 168.25 91.199219 168.148438 C 91 168.050781 90.726562 167.949219 90.375 167.851562 C 89.925781 167.699219 89.550781 167.574219 89.25 167.476562 C 89 167.324219 88.773438 167.125 88.574219 166.875 C 88.375 166.574219 88.273438 166.199219 88.273438 165.75 C 88.273438 165.101562 88.5 164.574219 88.949219 164.175781 C 89.398438 163.773438 90.050781 163.574219 90.898438 163.574219 C 91.5 163.574219 92.148438 163.699219 92.851562 163.949219 L 92.550781 164.851562 C 91.949219 164.601562 91.398438 164.476562 90.898438 164.476562 C 90.398438 164.476562 90.023438 164.574219 89.773438 164.773438 C 89.476562 164.976562 89.324219 165.25 89.324219 165.601562 C 89.324219 165.898438 89.398438 166.125 89.550781 166.273438 C 89.699219 166.425781 89.875 166.550781 90.074219 166.648438 C 90.273438 166.75 90.550781 166.851562 90.898438 166.949219 C 91.398438 167.101562 91.773438 167.25 92.023438 167.398438 C 92.324219 167.550781 92.574219 167.773438 92.773438 168.074219 C 92.976562 168.375 93.074219 168.773438 93.074219 169.273438 C 93.074219 169.976562 92.824219 170.523438 92.324219 170.925781 C 91.875 171.273438 91.25 171.449219 90.449219 171.449219 C 90 171.449219 89.601562 171.398438 89.25 171.300781 C 88.898438 171.25 88.523438 171.125 88.125 170.925781 L 88.425781 170.101562 "/>
<path style=" stroke:none;fill-rule:nonzero;fill:rgb(100%,0%,0%);fill-opacity:1;" d="M 164.851562 244.425781 C 164.851562 243.175781 165.148438 242.199219 165.75 241.5 C 166.351562 240.800781 167.226562 240.449219 168.375 240.449219 C 169.523438 240.449219 170.398438 240.800781 171 241.5 C 171.601562 242.199219 171.898438 243.175781 171.898438 244.425781 C 171.898438 245.675781 171.601562 246.648438 171 247.351562 C 170.398438 248.050781 169.523438 248.398438 168.375 248.398438 C 167.226562 248.398438 166.351562 248.050781 165.75 247.351562 C 165.148438 246.648438 164.851562 245.675781 164.851562 244.425781 M 168.375 247.5 C 169.175781 247.5 169.773438 247.25 170.175781 246.75 C 170.625 246.199219 170.851562 245.425781 170.851562 244.425781 C 170.851562 243.375 170.625 242.601562 170.175781 242.101562 C 169.773438 241.601562 169.175781 241.351562 168.375 241.351562 C 167.574219 241.351562 166.976562 241.601562 166.574219 242.101562 C 166.125 242.601562 165.898438 243.375 165.898438 244.425781 C 165.898438 245.425781 166.125 246.199219 166.574219 246.75 C 166.976562 247.25 167.574219 247.5 168.375 247.5 "/>
<path style=" stroke:none;fill-rule:nonzero;fill:rgb(100%,0%,0%);fill-opacity:1;" d="M 111.976562 228.523438 L 113.023438 228.523438 L 113.023438 231.824219 L 117 231.824219 L 117 228.523438 L 118.050781 228.523438 L 118.050781 236.25 L 117 236.25 L 117 232.726562 L 113.023438 232.726562 L 113.023438 236.25 L 111.976562 236.25 L 111.976562 228.523438 "/>
<path style=" stroke:none;fill-rule:nonzero;fill:rgb(100%,0%,0%);fill-opacity:1;" d="M 119.023438 232.351562 C 119.023438 231.148438 119.324219 230.199219 119.925781 229.5 C 120.523438 228.800781 121.398438 228.449219 122.550781 228.449219 C 123.699219 228.449219 124.574219 228.800781 125.175781 229.5 C 125.773438 230.199219 126.074219 231.148438 126.074219 232.351562 C 126.074219 233.601562 125.773438 234.601562 125.175781 235.351562 C 124.574219 236.050781 123.699219 236.398438 122.550781 236.398438 C 121.398438 236.398438 120.523438 236.050781 119.925781 235.351562 C 119.324219 234.648438 119.023438 233.648438 119.023438 232.351562 M 122.550781 235.5 C 123.351562 235.5 123.949219 235.25 124.351562 234.75 C 124.800781 234.199219 125.023438 233.398438 125.023438 232.351562 C 125.023438 231.351562 124.800781 230.601562 124.351562 230.101562 C 123.949219 229.601562 123.351562 229.351562 122.550781 229.351562 C 121.75 229.351562 121.148438 229.601562 120.75 230.101562 C 120.300781 230.601562 120.074219 231.351562 120.074219 232.351562 C 120.074219 233.398438 120.300781 234.199219 120.75 234.75 C 121.148438 235.25 121.75 235.5 122.550781 235.5 "/>
<path style=" stroke:none;fill-rule:nonzero;fill:rgb(0%,0%,100%);fill-opacity:1;" d="M 180.523438 187.574219 L 183.074219 191.699219 C 183.226562 191.949219 183.449219 192.324219 183.75 192.824219 C 184 193.324219 184.148438 193.574219 184.199219 193.574219 L 184.199219 187.574219 L 185.175781 187.574219 L 185.175781 195.300781 L 184.125 195.300781 L 181.425781 190.800781 C 181.226562 190.449219 181 190.074219 180.75 189.675781 C 180.550781 189.273438 180.398438 189.023438 180.300781 188.925781 L 180.300781 195.300781 L 179.324219 195.300781 L 179.324219 187.574219 L 180.523438 187.574219 "/>
<path style=" stroke:none;fill-rule:nonzero;fill:rgb(100%,0%,0%);fill-opacity:1;" d="M 219 222 C 219 220.800781 219.300781 219.851562 219.898438 219.148438 C 220.5 218.449219 221.375 218.101562 222.523438 218.101562 C 223.675781 218.101562 224.550781 218.449219 225.148438 219.148438 C 225.75 219.851562 226.050781 220.800781 226.050781 222 C 226.050781 223.25 225.75 224.25 225.148438 225 C 224.550781 225.699219 223.675781 226.050781 222.523438 226.050781 C 221.375 226.050781 220.5 225.699219 219.898438 225 C 219.300781 224.300781 219 223.300781 219 222 M 222.523438 225.148438 C 223.324219 225.148438 223.925781 224.898438 224.324219 224.398438 C 224.773438 223.851562 225 223.050781 225 222 C 225 221 224.773438 220.25 224.324219 219.75 C 223.925781 219.199219 223.324219 218.925781 222.523438 218.925781 C 221.726562 218.925781 221.125 219.199219 220.726562 219.75 C 220.273438 220.25 220.050781 221 220.050781 222 C 220.050781 223.050781 220.273438 223.851562 220.726562 224.398438 C 221.125 224.898438 221.726562 225.148438 222.523438 225.148438 "/>
<path style=" stroke:none;fill-rule:nonzero;fill:rgb(0%,0%,100%);fill-opacity:1;" d="M 237.523438 154.273438 L 240.074219 158.324219 C 240.273438 158.625 240.5 159 240.75 159.449219 C 241 159.949219 241.148438 160.226562 241.199219 160.273438 L 241.199219 154.273438 L 242.25 154.273438 L 242.25 162 L 241.125 162 L 238.425781 157.5 C 238.226562 157.148438 238 156.773438 237.75 156.375 C 237.550781 155.976562 237.425781 155.726562 237.375 155.625 L 237.375 162 L 236.324219 162 L 236.324219 154.273438 L 237.523438 154.273438 "/>
<path style=" stroke:none;fill-rule:nonzero;fill:rgb(0%,0%,100%);fill-opacity:1;" d="M 236.25 145.726562 L 237.300781 145.726562 L 237.300781 149.023438 L 241.273438 149.023438 L 241.273438 145.726562 L 242.324219 145.726562 L 242.324219 153.449219 L 241.273438 153.449219 L 241.273438 149.925781 L 237.300781 149.925781 L 237.300781 153.449219 L 236.25 153.449219 L 236.25 145.726562 "/>
<path style=" stroke:none;fill-rule:nonzero;fill:rgb(100%,0%,0%);fill-opacity:1;" d="M 259.648438 199.050781 C 259.648438 197.800781 259.949219 196.824219 260.550781 196.125 C 261.148438 195.425781 262.023438 195.074219 263.175781 195.074219 C 264.324219 195.074219 265.199219 195.425781 265.800781 196.125 C 266.449219 196.824219 266.773438 197.800781 266.773438 199.050781 C 266.773438 200.300781 266.449219 201.273438 265.800781 201.976562 C 265.199219 202.726562 264.324219 203.101562 263.175781 203.101562 C 262.023438 203.101562 261.148438 202.726562 260.550781 201.976562 C 259.949219 201.273438 259.648438 200.300781 259.648438 199.050781 M 263.175781 202.199219 C 263.976562 202.199219 264.574219 201.925781 264.976562 201.375 C 265.425781 200.875 265.648438 200.101562 265.648438 199.050781 C 265.648438 198.050781 265.425781 197.273438 264.976562 196.726562 C 264.574219 196.226562 263.976562 195.976562 263.175781 195.976562 C 262.375 195.976562 261.773438 196.226562 261.375 196.726562 C 260.925781 197.273438 260.699219 198.050781 260.699219 199.050781 C 260.699219 200.101562 260.925781 200.875 261.375 201.375 C 261.773438 201.925781 262.375 202.199219 263.175781 202.199219 "/>
<path style=" stroke:none;fill-rule:nonzero;fill:rgb(100%,0%,0%);fill-opacity:1;" d="M 282.976562 130.5 C 282.976562 129.300781 283.273438 128.351562 283.875 127.648438 C 284.476562 126.949219 285.351562 126.601562 286.5 126.601562 C 287.648438 126.601562 288.523438 126.949219 289.125 127.648438 C 289.773438 128.351562 290.101562 129.300781 290.101562 130.5 C 290.101562 131.75 289.773438 132.75 289.125 133.5 C 288.523438 134.199219 287.648438 134.550781 286.5 134.550781 C 285.351562 134.550781 284.476562 134.199219 283.875 133.5 C 283.273438 132.800781 282.976562 131.800781 282.976562 130.5 M 286.5 133.648438 C 287.300781 133.648438 287.898438 133.398438 288.300781 132.898438 C 288.75 132.351562 288.976562 131.550781 288.976562 130.5 C 288.976562 129.5 288.75 128.75 288.300781 128.25 C 287.898438 127.75 287.300781 127.5 286.5 127.5 C 285.699219 127.5 285.101562 127.75 284.699219 128.25 C 284.25 128.75 284.023438 129.5 284.023438 130.5 C 284.023438 131.550781 284.25 132.351562 284.699219 132.898438 C 285.101562 133.398438 285.699219 133.648438 286.5 133.648438 "/>
<path style=" stroke:none;fill-rule:nonzero;fill:rgb(100%,0%,0%);fill-opacity:1;" d="M 290.625 126.675781 L 291.675781 126.675781 L 291.675781 129.976562 L 295.648438 129.976562 L 295.648438 126.675781 L 296.699219 126.675781 L 296.699219 134.398438 L 295.648438 134.398438 L 295.648438 130.875 L 291.675781 130.875 L 291.675781 134.398438 L 290.625 134.398438 L 290.625 126.675781 "/>
<path style=" stroke:none;fill-rule:nonzero;fill:rgb(80%,80%,0%);fill-opacity:1;" d="M 167.550781 148.425781 C 167.601562 148.425781 167.75 148.476562 168 148.574219 C 168.25 148.675781 168.5 148.773438 168.75 148.875 C 169.050781 148.925781 169.324219 148.949219 169.574219 148.949219 C 170.074219 148.949219 170.449219 148.824219 170.699219 148.574219 C 171 148.324219 171.148438 148 171.148438 147.601562 C 171.148438 147.300781 171.074219 147.074219 170.925781 146.925781 C 170.773438 146.726562 170.601562 146.574219 170.398438 146.476562 C 170.199219 146.375 169.898438 146.273438 169.5 146.175781 C 169.050781 146.023438 168.675781 145.898438 168.375 145.800781 C 168.125 145.648438 167.898438 145.449219 167.699219 145.199219 C 167.5 144.898438 167.398438 144.523438 167.398438 144.074219 C 167.398438 143.425781 167.625 142.898438 168.074219 142.5 C 168.523438 142.101562 169.199219 141.898438 170.101562 141.898438 C 170.648438 141.898438 171.273438 142.023438 171.976562 142.273438 L 171.75 143.175781 C 171.101562 142.925781 170.550781 142.800781 170.101562 142.800781 C 169.601562 142.800781 169.199219 142.898438 168.898438 143.101562 C 168.648438 143.300781 168.523438 143.574219 168.523438 143.925781 C 168.523438 144.226562 168.601562 144.449219 168.75 144.601562 C 168.898438 144.75 169.074219 144.875 169.273438 144.976562 C 169.476562 145.074219 169.75 145.175781 170.101562 145.273438 C 170.550781 145.425781 170.925781 145.574219 171.226562 145.726562 C 171.476562 145.875 171.699219 146.101562 171.898438 146.398438 C 172.101562 146.699219 172.199219 147.101562 172.199219 147.601562 C 172.199219 148.300781 171.976562 148.851562 171.523438 149.25 C 171.023438 149.648438 170.375 149.851562 169.574219 149.851562 C 169.125 149.851562 168.726562 149.800781 168.375 149.699219 C 168.023438 149.601562 167.648438 149.449219 167.25 149.25 L 167.550781 148.425781 "/>
<path style=" stroke:none;fill-rule:nonzero;fill:rgb(0%,0%,0%);fill-opacity:1;" d="M 199.726562 137.324219 L 200.773438 137.324219 L 200.773438 140.625 L 204.75 140.625 L 204.75 137.324219 L 205.800781 137.324219 L 205.800781 145.125 L 204.75 145.125 L 204.75 141.523438 L 200.773438 141.523438 L 200.773438 145.125 L 199.726562 145.125 L 199.726562 137.324219 "/>
</g>
</svg>
