<?xml version="1.0" encoding="UTF-8"?>
<svg xmlns="http://www.w3.org/2000/svg" xmlns:xlink="http://www.w3.org/1999/xlink" width="375pt" height="375pt" viewBox="0 0 375 375" version="1.1">
<g id="surface26">
<rect x="0" y="0" width="375" height="375" style="fill:rgb(100%,100%,100%);fill-opacity:1;stroke:none;"/>
<path style="fill:none;stroke-width:2;stroke-linecap:butt;stroke-linejoin:miter;stroke:rgb(0%,0%,0%);stroke-opacity:1;stroke-miterlimit:4;" d="M 161 477.302083 L 149.302083 431 " transform="matrix(0.75,0,0,0.75,0,0)"/>
<path style="fill:none;stroke-width:2;stroke-linecap:butt;stroke-linejoin:miter;stroke:rgb(0%,0%,0%);stroke-opacity:1;stroke-miterlimit:4;" d="M 149.302083 431 L 104.5 447.401042 " transform="matrix(0.75,0,0,0.75,0,0)"/>
<path style="fill:none;stroke-width:2;stroke-linecap:butt;stroke-linejoin:miter;stroke:rgb(0%,0%,0%);stroke-opacity:1;stroke-miterlimit:4;" d="M 149.302083 431 L 170 428 " transform="matrix(0.75,0,0,0.75,0,0)"/>
<path style="fill:none;stroke-width:2;stroke-linecap:butt;stroke-linejoin:miter;stroke:rgb(80%,80%,0%);stroke-opacity:1;stroke-miterlimit:4;" d="M 170 428 L 190.697917 425.098958 " transform="matrix(0.75,0,0,0.75,0,0)"/>
<path style="fill:none;stroke-width:2;stroke-linecap:butt;stroke-linejoin:miter;stroke:rgb(80%,80%,0%);stroke-opacity:1;stroke-miterlimit:4;" d="M 198 415.901042 L 201.401042 396.598958 " transform="matrix(0.75,0,0,0.75,0,0)"/>
<path style="fill:none;stroke-width:2;stroke-linecap:butt;stroke-linejoin:miter;stroke:rgb(0%,0%,0%);stroke-opacity:1;stroke-miterlimit:4;" d="M 201.401042 396.598958 L 204.802083 377.197917 " transform="matrix(0.75,0,0,0.75,0,0)"/>
<path style="fill:none;stroke-width:2;stroke-linecap:butt;stroke-linejoin:miter;stroke:rgb(0%,0%,0%);stroke-opacity:1;stroke-miterlimit:4;" d="M 204.802083 377.197917 L 227.098958 335 " transform="matrix(0.75,0,0,0.75,0,0)"/>
<path style="fill-rule:evenodd;fill:rgb(0%,0%,0%);fill-opacity:1;stroke-width:0.5;stroke-linecap:butt;stroke-linejoin:miter;stroke:rgb(0%,0%,0%);stroke-opacity:1;stroke-miterlimit:4;" d="M 227.098958 335 L 245.197917 327.5 L 246.302083 331 Z M 227.098958 335 " transform="matrix(0.75,0,0,0.75,0,0)"/>
<path style="fill-rule:evenodd;fill:rgb(0%,0%,100%);fill-opacity:1;stroke-width:0.5;stroke-linecap:butt;stroke-linejoin:miter;stroke:rgb(0%,0%,100%);stroke-opacity:1;stroke-miterlimit:4;" d="M 245.197917 327.5 L 265.5 326.901042 L 263.401042 320.098958 Z M 245.197917 327.5 " transform="matrix(0.75,0,0,0.75,0,0)"/>
<path style="fill-rule:evenodd;fill:rgb(0%,0%,100%);fill-opacity:1;stroke-width:0.5;stroke-linecap:butt;stroke-linejoin:miter;stroke:rgb(0%,0%,100%);stroke-opacity:1;stroke-miterlimit:4;" d="M 245.197917 327.5 L 246.302083 331 L 265.5 326.901042 Z M 245.197917 327.5 " transform="matrix(0.75,0,0,0.75,0,0)"/>
<path style="fill:none;stroke-width:2;stroke-linecap:butt;stroke-linejoin:miter;stroke:rgb(0%,0%,100%);stroke-opacity:1;stroke-miterlimit:4;" d="M 279.401042 327.197917 L 293.5 340.302083 " transform="matrix(0.75,0,0,0.75,0,0)"/>
<path style="fill:none;stroke-width:2;stroke-linecap:butt;stroke-linejoin:miter;stroke:rgb(0%,0%,0%);stroke-opacity:1;stroke-miterlimit:4;" d="M 293.5 340.302083 L 307.697917 353.401042 " transform="matrix(0.75,0,0,0.75,0,0)"/>
<path style="fill:none;stroke-width:2;stroke-linecap:butt;stroke-linejoin:miter;stroke:rgb(0%,0%,0%);stroke-opacity:1;stroke-miterlimit:4;" d="M 304.598958 350.598958 L 300.098958 370.697917 " transform="matrix(0.75,0,0,0.75,0,0)"/>
<path style="fill:none;stroke-width:2;stroke-linecap:butt;stroke-linejoin:miter;stroke:rgb(100%,0%,0%);stroke-opacity:1;stroke-miterlimit:4;" d="M 300.098958 370.697917 L 295.5 390.802083 " transform="matrix(0.75,0,0,0.75,0,0)"/>
<path style="fill:none;stroke-width:2;stroke-linecap:butt;stroke-linejoin:miter;stroke:rgb(0%,0%,0%);stroke-opacity:1;stroke-miterlimit:4;" d="M 311.598958 352.197917 L 307 372.302083 " transform="matrix(0.75,0,0,0.75,0,0)"/>
<path style="fill:none;stroke-width:2;stroke-linecap:butt;stroke-linejoin:miter;stroke:rgb(100%,0%,0%);stroke-opacity:1;stroke-miterlimit:4;" d="M 307 372.302083 L 302.5 392.302083 " transform="matrix(0.75,0,0,0.75,0,0)"/>
<path style="fill:none;stroke-width:2;stroke-linecap:butt;stroke-linejoin:miter;stroke:rgb(0%,0%,0%);stroke-opacity:1;stroke-miterlimit:4;" d="M 307.697917 353.401042 L 353.302083 339.401042 " transform="matrix(0.75,0,0,0.75,0,0)"/>
<path style="fill:none;stroke-width:1;stroke-linecap:butt;stroke-linejoin:miter;stroke:rgb(0%,0%,0%);stroke-opacity:1;stroke-miterlimit:4;" d="M 353.697917 336 L 354.401042 336.098958 " transform="matrix(0.75,0,0,0.75,0,0)"/>
<path style="fill:none;stroke-width:1;stroke-linecap:butt;stroke-linejoin:miter;stroke:rgb(0%,0%,0%);stroke-opacity:1;stroke-miterlimit:4;" d="M 354.197917 332.598958 L 355.5 332.901042 " transform="matrix(0.75,0,0,0.75,0,0)"/>
<path style="fill:none;stroke-width:1;stroke-linecap:butt;stroke-linejoin:miter;stroke:rgb(0%,0%,0%);stroke-opacity:1;stroke-miterlimit:4;" d="M 354.598958 329.197917 L 356.5 329.598958 " transform="matrix(0.75,0,0,0.75,0,0)"/>
<path style="fill:none;stroke-width:1;stroke-linecap:butt;stroke-linejoin:miter;stroke:rgb(0%,0%,0%);stroke-opacity:1;stroke-miterlimit:4;" d="M 355.098958 325.802083 L 357.598958 326.302083 " transform="matrix(0.75,0,0,0.75,0,0)"/>
<path style="fill:none;stroke-width:1;stroke-linecap:butt;stroke-linejoin:miter;stroke:rgb(0%,0%,0%);stroke-opacity:1;stroke-miterlimit:4;" d="M 355.5 322.401042 L 358.697917 323.098958 " transform="matrix(0.75,0,0,0.75,0,0)"/>
<path style="fill:none;stroke-width:1;stroke-linecap:butt;stroke-linejoin:miter;stroke:rgb(0%,0%,100%);stroke-opacity:1;stroke-miterlimit:4;" d="M 356 319 L 359.802083 319.802083 " transform="matrix(0.75,0,0,0.75,0,0)"/>
<path style="fill:none;stroke-width:1;stroke-linecap:butt;stroke-linejoin:miter;stroke:rgb(0%,0%,100%);stroke-opacity:1;stroke-miterlimit:4;" d="M 356.401042 315.598958 L 360.802083 316.598958 " transform="matrix(0.75,0,0,0.75,0,0)"/>
<path style="fill:none;stroke-width:1;stroke-linecap:butt;stroke-linejoin:miter;stroke:rgb(0%,0%,100%);stroke-opacity:1;stroke-miterlimit:4;" d="M 356.802083 312.197917 L 361.901042 313.302083 " transform="matrix(0.75,0,0,0.75,0,0)"/>
<path style="fill:none;stroke-width:1;stroke-linecap:butt;stroke-linejoin:miter;stroke:rgb(0%,0%,100%);stroke-opacity:1;stroke-miterlimit:4;" d="M 357.302083 308.802083 L 363 310.098958 " transform="matrix(0.75,0,0,0.75,0,0)"/>
<path style="fill:none;stroke-width:1;stroke-linecap:butt;stroke-linejoin:miter;stroke:rgb(0%,0%,100%);stroke-opacity:1;stroke-miterlimit:4;" d="M 357.697917 305.401042 L 364.098958 306.802083 " transform="matrix(0.75,0,0,0.75,0,0)"/>
<path style="fill:none;stroke-width:1;stroke-linecap:butt;stroke-linejoin:miter;stroke:rgb(0%,0%,100%);stroke-opacity:1;stroke-miterlimit:4;" d="M 358.197917 301.901042 L 365.197917 303.5 " transform="matrix(0.75,0,0,0.75,0,0)"/>
<path style="fill:none;stroke-width:2;stroke-linecap:butt;stroke-linejoin:miter;stroke:rgb(0%,0%,0%);stroke-opacity:1;stroke-miterlimit:4;" d="M 353.302083 339.401042 L 388.302083 371.802083 " transform="matrix(0.75,0,0,0.75,0,0)"/>
<path style="fill:none;stroke-width:2;stroke-linecap:butt;stroke-linejoin:miter;stroke:rgb(0%,0%,0%);stroke-opacity:1;stroke-miterlimit:4;" d="M 388.302083 371.802083 L 377.598958 418.401042 " transform="matrix(0.75,0,0,0.75,0,0)"/>
<path style="fill:none;stroke-width:2;stroke-linecap:butt;stroke-linejoin:miter;stroke:rgb(0%,0%,0%);stroke-opacity:1;stroke-miterlimit:4;" d="M 394.302083 377.5 L 385.5 415.901042 " transform="matrix(0.75,0,0,0.75,0,0)"/>
<path style="fill:none;stroke-width:2;stroke-linecap:butt;stroke-linejoin:miter;stroke:rgb(0%,0%,0%);stroke-opacity:1;stroke-miterlimit:4;" d="M 377.598958 418.401042 L 412.598958 450.901042 " transform="matrix(0.75,0,0,0.75,0,0)"/>
<path style="fill:none;stroke-width:2;stroke-linecap:butt;stroke-linejoin:miter;stroke:rgb(0%,0%,0%);stroke-opacity:1;stroke-miterlimit:4;" d="M 412.598958 450.901042 L 458.197917 436.802083 " transform="matrix(0.75,0,0,0.75,0,0)"/>
<path style="fill:none;stroke-width:2;stroke-linecap:butt;stroke-linejoin:miter;stroke:rgb(0%,0%,0%);stroke-opacity:1;stroke-miterlimit:4;" d="M 414.5 442.802083 L 452.197917 431.197917 " transform="matrix(0.75,0,0,0.75,0,0)"/>
<path style="fill:none;stroke-width:2;stroke-linecap:butt;stroke-linejoin:miter;stroke:rgb(0%,0%,0%);stroke-opacity:1;stroke-miterlimit:4;" d="M 458.197917 436.802083 L 468.901042 390.302083 " transform="matrix(0.75,0,0,0.75,0,0)"/>
<path style="fill:none;stroke-width:2;stroke-linecap:butt;stroke-linejoin:miter;stroke:rgb(0%,0%,0%);stroke-opacity:1;stroke-miterlimit:4;" d="M 468.901042 390.302083 L 433.901042 357.802083 " transform="matrix(0.75,0,0,0.75,0,0)"/>
<path style="fill:none;stroke-width:2;stroke-linecap:butt;stroke-linejoin:miter;stroke:rgb(0%,0%,0%);stroke-opacity:1;stroke-miterlimit:4;" d="M 461 392.697917 L 432.098958 365.802083 " transform="matrix(0.75,0,0,0.75,0,0)"/>
<path style="fill:none;stroke-width:2;stroke-linecap:butt;stroke-linejoin:miter;stroke:rgb(0%,0%,0%);stroke-opacity:1;stroke-miterlimit:4;" d="M 227.098958 335 L 184.901042 312.697917 " transform="matrix(0.75,0,0,0.75,0,0)"/>
<path style="fill:none;stroke-width:2;stroke-linecap:butt;stroke-linejoin:miter;stroke:rgb(0%,0%,0%);stroke-opacity:1;stroke-miterlimit:4;" d="M 189.401042 315.098958 L 183.098958 294.901042 " transform="matrix(0.75,0,0,0.75,0,0)"/>
<path style="fill:none;stroke-width:2;stroke-linecap:butt;stroke-linejoin:miter;stroke:rgb(100%,0%,0%);stroke-opacity:1;stroke-miterlimit:4;" d="M 183.098958 294.901042 L 176.901042 274.598958 " transform="matrix(0.75,0,0,0.75,0,0)"/>
<path style="fill:none;stroke-width:2;stroke-linecap:butt;stroke-linejoin:miter;stroke:rgb(0%,0%,0%);stroke-opacity:1;stroke-miterlimit:4;" d="M 182.5 317.197917 L 176.302083 297 " transform="matrix(0.75,0,0,0.75,0,0)"/>
<path style="fill:none;stroke-width:2;stroke-linecap:butt;stroke-linejoin:miter;stroke:rgb(100%,0%,0%);stroke-opacity:1;stroke-miterlimit:4;" d="M 176.302083 297 L 170.098958 276.802083 " transform="matrix(0.75,0,0,0.75,0,0)"/>
<path style="fill:none;stroke-width:2;stroke-linecap:butt;stroke-linejoin:miter;stroke:rgb(0%,0%,0%);stroke-opacity:1;stroke-miterlimit:4;" d="M 184.901042 312.697917 L 175.901042 329.598958 " transform="matrix(0.75,0,0,0.75,0,0)"/>
<path style="fill:none;stroke-width:2;stroke-linecap:butt;stroke-linejoin:miter;stroke:rgb(0%,0%,100%);stroke-opacity:1;stroke-miterlimit:4;" d="M 175.901042 329.598958 L 167 346.598958 " transform="matrix(0.75,0,0,0.75,0,0)"/>
<path style="fill:none;stroke-width:2;stroke-linecap:butt;stroke-linejoin:miter;stroke:rgb(0%,0%,100%);stroke-opacity:1;stroke-miterlimit:4;" d="M 155.901042 361.401042 L 142.098958 374.802083 " transform="matrix(0.75,0,0,0.75,0,0)"/>
<path style="fill:none;stroke-width:2;stroke-linecap:butt;stroke-linejoin:miter;stroke:rgb(0%,0%,0%);stroke-opacity:1;stroke-miterlimit:4;" d="M 142.098958 374.802083 L 128.302083 388.098958 " transform="matrix(0.75,0,0,0.75,0,0)"/>
<path style="fill:none;stroke-width:1;stroke-linecap:butt;stroke-linejoin:miter;stroke:rgb(0%,0%,0%);stroke-opacity:1;stroke-miterlimit:4;" d="M 125 387.302083 L 124.901042 387.802083 " transform="matrix(0.75,0,0,0.75,0,0)"/>
<path style="fill:none;stroke-width:1;stroke-linecap:butt;stroke-linejoin:miter;stroke:rgb(0%,0%,0%);stroke-opacity:1;stroke-miterlimit:4;" d="M 121.697917 386.401042 L 121.5 387.5 " transform="matrix(0.75,0,0,0.75,0,0)"/>
<path style="fill:none;stroke-width:1;stroke-linecap:butt;stroke-linejoin:miter;stroke:rgb(0%,0%,0%);stroke-opacity:1;stroke-miterlimit:4;" d="M 118.401042 385.598958 L 118.098958 387.197917 " transform="matrix(0.75,0,0,0.75,0,0)"/>
<path style="fill:none;stroke-width:1;stroke-linecap:butt;stroke-linejoin:miter;stroke:rgb(0%,0%,0%);stroke-opacity:1;stroke-miterlimit:4;" d="M 115.098958 384.697917 L 114.697917 386.901042 " transform="matrix(0.75,0,0,0.75,0,0)"/>
<path style="fill:none;stroke-width:1;stroke-linecap:butt;stroke-linejoin:miter;stroke:rgb(0%,0%,0%);stroke-opacity:1;stroke-miterlimit:4;" d="M 111.802083 383.802083 L 111.302083 386.598958 " transform="matrix(0.75,0,0,0.75,0,0)"/>
<path style="fill:none;stroke-width:1;stroke-linecap:butt;stroke-linejoin:miter;stroke:rgb(0%,0%,0%);stroke-opacity:1;stroke-miterlimit:4;" d="M 108.401042 383 L 107.901042 386.197917 " transform="matrix(0.75,0,0,0.75,0,0)"/>
<path style="fill:none;stroke-width:1;stroke-linecap:butt;stroke-linejoin:miter;stroke:rgb(0%,0%,0%);stroke-opacity:1;stroke-miterlimit:4;" d="M 105.098958 382.098958 L 104.5 385.901042 " transform="matrix(0.75,0,0,0.75,0,0)"/>
<path style="fill:none;stroke-width:1;stroke-linecap:butt;stroke-linejoin:miter;stroke:rgb(0%,0%,0%);stroke-opacity:1;stroke-miterlimit:4;" d="M 101.802083 381.302083 L 101.098958 385.598958 " transform="matrix(0.75,0,0,0.75,0,0)"/>
<path style="fill:none;stroke-width:1;stroke-linecap:butt;stroke-linejoin:miter;stroke:rgb(0%,0%,0%);stroke-opacity:1;stroke-miterlimit:4;" d="M 98.5 380.401042 L 97.697917 385.302083 " transform="matrix(0.75,0,0,0.75,0,0)"/>
<path style="fill:none;stroke-width:1;stroke-linecap:butt;stroke-linejoin:miter;stroke:rgb(0%,0%,0%);stroke-opacity:1;stroke-miterlimit:4;" d="M 95.197917 379.598958 L 94.302083 385 " transform="matrix(0.75,0,0,0.75,0,0)"/>
<path style="fill:none;stroke-width:1;stroke-linecap:butt;stroke-linejoin:miter;stroke:rgb(0%,0%,0%);stroke-opacity:1;stroke-miterlimit:4;" d="M 91.901042 378.697917 L 90.901042 384.697917 " transform="matrix(0.75,0,0,0.75,0,0)"/>
<path style="fill:none;stroke-width:1;stroke-linecap:butt;stroke-linejoin:miter;stroke:rgb(0%,0%,0%);stroke-opacity:1;stroke-miterlimit:4;" d="M 88.598958 377.901042 L 87.401042 384.401042 " transform="matrix(0.75,0,0,0.75,0,0)"/>
<path style="fill:none;stroke-width:1;stroke-linecap:butt;stroke-linejoin:miter;stroke:rgb(0%,0%,0%);stroke-opacity:1;stroke-miterlimit:4;" d="M 85.302083 377 L 84 384.098958 " transform="matrix(0.75,0,0,0.75,0,0)"/>
<path style="fill:none;stroke-width:2;stroke-linecap:butt;stroke-linejoin:miter;stroke:rgb(0%,0%,0%);stroke-opacity:1;stroke-miterlimit:4;" d="M 85.302083 380.697917 L 78.401042 361.598958 " transform="matrix(0.75,0,0,0.75,0,0)"/>
<path style="fill:none;stroke-width:2;stroke-linecap:butt;stroke-linejoin:miter;stroke:rgb(100%,0%,0%);stroke-opacity:1;stroke-miterlimit:4;" d="M 78.401042 361.598958 L 71.401042 342.5 " transform="matrix(0.75,0,0,0.75,0,0)"/>
<path style="fill:none;stroke-width:2;stroke-linecap:butt;stroke-linejoin:miter;stroke:rgb(0%,0%,0%);stroke-opacity:1;stroke-miterlimit:4;" d="M 78.598958 383.098958 L 71.598958 364 " transform="matrix(0.75,0,0,0.75,0,0)"/>
<path style="fill:none;stroke-width:2;stroke-linecap:butt;stroke-linejoin:miter;stroke:rgb(100%,0%,0%);stroke-opacity:1;stroke-miterlimit:4;" d="M 71.598958 364 L 64.598958 345 " transform="matrix(0.75,0,0,0.75,0,0)"/>
<path style="fill:none;stroke-width:2;stroke-linecap:butt;stroke-linejoin:miter;stroke:rgb(0%,0%,0%);stroke-opacity:1;stroke-miterlimit:4;" d="M 81.302083 379.901042 L 69.5 394.098958 " transform="matrix(0.75,0,0,0.75,0,0)"/>
<path style="fill:none;stroke-width:2;stroke-linecap:butt;stroke-linejoin:miter;stroke:rgb(100%,0%,0%);stroke-opacity:1;stroke-miterlimit:4;" d="M 69.5 394.098958 L 57.697917 408.197917 " transform="matrix(0.75,0,0,0.75,0,0)"/>
<path style="fill:none;stroke-width:2;stroke-linecap:butt;stroke-linejoin:miter;stroke:rgb(0%,0%,0%);stroke-opacity:1;stroke-miterlimit:4;" d="M 192.197917 57.302083 L 237.5 72.197917 " transform="matrix(0.75,0,0,0.75,0,0)"/>
<path style="fill:none;stroke-width:2;stroke-linecap:butt;stroke-linejoin:miter;stroke:rgb(0%,0%,0%);stroke-opacity:1;stroke-miterlimit:4;" d="M 237.5 72.197917 L 247.598958 25.5 " transform="matrix(0.75,0,0,0.75,0,0)"/>
<path style="fill:none;stroke-width:2;stroke-linecap:butt;stroke-linejoin:miter;stroke:rgb(0%,0%,0%);stroke-opacity:1;stroke-miterlimit:4;" d="M 237.5 72.197917 L 218 115.802083 " transform="matrix(0.75,0,0,0.75,0,0)"/>
<path style="fill-rule:evenodd;fill:rgb(0%,0%,0%);fill-opacity:1;stroke-width:0.5;stroke-linecap:butt;stroke-linejoin:miter;stroke:rgb(0%,0%,0%);stroke-opacity:1;stroke-miterlimit:4;" d="M 218 115.802083 L 170 129.697917 L 171.302083 125.598958 Z M 218 115.802083 " transform="matrix(0.75,0,0,0.75,0,0)"/>
<path style="fill-rule:evenodd;fill:rgb(0%,0%,0%);fill-opacity:1;stroke-width:0.5;stroke-linecap:butt;stroke-linejoin:miter;stroke:rgb(0%,0%,0%);stroke-opacity:1;stroke-miterlimit:4;" d="M 218 115.802083 L 171.302083 125.598958 L 168.401042 122.401042 Z M 218 115.802083 " transform="matrix(0.75,0,0,0.75,0,0)"/>
<path style="fill:none;stroke-width:2;stroke-linecap:butt;stroke-linejoin:miter;stroke:rgb(0%,0%,0%);stroke-opacity:1;stroke-miterlimit:4;" d="M 175.401042 124.697917 L 162.598958 110.5 " transform="matrix(0.75,0,0,0.75,0,0)"/>
<path style="fill:none;stroke-width:2;stroke-linecap:butt;stroke-linejoin:miter;stroke:rgb(100%,0%,0%);stroke-opacity:1;stroke-miterlimit:4;" d="M 162.598958 110.5 L 149.802083 96.302083 " transform="matrix(0.75,0,0,0.75,0,0)"/>
<path style="fill:none;stroke-width:2;stroke-linecap:butt;stroke-linejoin:miter;stroke:rgb(0%,0%,0%);stroke-opacity:1;stroke-miterlimit:4;" d="M 170 129.5 L 157.302083 115.302083 " transform="matrix(0.75,0,0,0.75,0,0)"/>
<path style="fill:none;stroke-width:2;stroke-linecap:butt;stroke-linejoin:miter;stroke:rgb(100%,0%,0%);stroke-opacity:1;stroke-miterlimit:4;" d="M 157.302083 115.302083 L 144.5 101 " transform="matrix(0.75,0,0,0.75,0,0)"/>
<path style="fill:none;stroke-width:2;stroke-linecap:butt;stroke-linejoin:miter;stroke:rgb(0%,0%,0%);stroke-opacity:1;stroke-miterlimit:4;" d="M 171.302083 125.598958 L 165.302083 144.098958 " transform="matrix(0.75,0,0,0.75,0,0)"/>
<path style="fill:none;stroke-width:2;stroke-linecap:butt;stroke-linejoin:miter;stroke:rgb(100%,0%,0%);stroke-opacity:1;stroke-miterlimit:4;" d="M 165.302083 144.098958 L 159.197917 162.5 " transform="matrix(0.75,0,0,0.75,0,0)"/>
<path style="fill:none;stroke-width:2;stroke-linecap:butt;stroke-linejoin:miter;stroke:rgb(0%,0%,0%);stroke-opacity:1;stroke-miterlimit:4;" d="M 218 115.802083 L 232.401042 128.697917 " transform="matrix(0.75,0,0,0.75,0,0)"/>
<path style="fill:none;stroke-width:2;stroke-linecap:butt;stroke-linejoin:miter;stroke:rgb(0%,0%,100%);stroke-opacity:1;stroke-miterlimit:4;" d="M 232.401042 128.697917 L 246.697917 141.697917 " transform="matrix(0.75,0,0,0.75,0,0)"/>
<path style="fill:none;stroke-width:2;stroke-linecap:butt;stroke-linejoin:miter;stroke:rgb(0%,0%,100%);stroke-opacity:1;stroke-miterlimit:4;" d="M 258.197917 156.098958 L 267.697917 172.598958 " transform="matrix(0.75,0,0,0.75,0,0)"/>
<path style="fill:none;stroke-width:2;stroke-linecap:butt;stroke-linejoin:miter;stroke:rgb(0%,0%,0%);stroke-opacity:1;stroke-miterlimit:4;" d="M 267.697917 172.598958 L 277.197917 189.197917 " transform="matrix(0.75,0,0,0.75,0,0)"/>
<path style="fill:none;stroke-width:2;stroke-linecap:butt;stroke-linejoin:miter;stroke:rgb(0%,0%,0%);stroke-opacity:1;stroke-miterlimit:4;" d="M 274.697917 184.802083 L 269.098958 205.302083 " transform="matrix(0.75,0,0,0.75,0,0)"/>
<path style="fill:none;stroke-width:2;stroke-linecap:butt;stroke-linejoin:miter;stroke:rgb(100%,0%,0%);stroke-opacity:1;stroke-miterlimit:4;" d="M 269.098958 205.302083 L 263.598958 225.901042 " transform="matrix(0.75,0,0,0.75,0,0)"/>
<path style="fill:none;stroke-width:2;stroke-linecap:butt;stroke-linejoin:miter;stroke:rgb(0%,0%,0%);stroke-opacity:1;stroke-miterlimit:4;" d="M 281.598958 186.697917 L 276 207.197917 " transform="matrix(0.75,0,0,0.75,0,0)"/>
<path style="fill:none;stroke-width:2;stroke-linecap:butt;stroke-linejoin:miter;stroke:rgb(100%,0%,0%);stroke-opacity:1;stroke-miterlimit:4;" d="M 276 207.197917 L 270.5 227.802083 " transform="matrix(0.75,0,0,0.75,0,0)"/>
<path style="fill:none;stroke-width:2;stroke-linecap:butt;stroke-linejoin:miter;stroke:rgb(0%,0%,0%);stroke-opacity:1;stroke-miterlimit:4;" d="M 277.197917 189.197917 L 318.598958 165.401042 " transform="matrix(0.75,0,0,0.75,0,0)"/>
<path style="fill:none;stroke-width:2;stroke-linecap:butt;stroke-linejoin:miter;stroke:rgb(0%,0%,0%);stroke-opacity:1;stroke-miterlimit:4;" d="M 318.598958 165.401042 L 294.802083 124 " transform="matrix(0.75,0,0,0.75,0,0)"/>
<path style="fill:none;stroke-width:2;stroke-linecap:butt;stroke-linejoin:miter;stroke:rgb(0%,0%,0%);stroke-opacity:1;stroke-miterlimit:4;" d="M 294.802083 124 L 290.802083 105 " transform="matrix(0.75,0,0,0.75,0,0)"/>
<path style="fill:none;stroke-width:2;stroke-linecap:butt;stroke-linejoin:miter;stroke:rgb(80%,80%,0%);stroke-opacity:1;stroke-miterlimit:4;" d="M 290.802083 105 L 286.802083 86 " transform="matrix(0.75,0,0,0.75,0,0)"/>
<path style="fill:none;stroke-width:2;stroke-linecap:butt;stroke-linejoin:miter;stroke:rgb(80%,80%,0%);stroke-opacity:1;stroke-miterlimit:4;" d="M 288.598958 69 L 288.598958 53.598958 " transform="matrix(0.75,0,0,0.75,0,0)"/>
<path style="fill:none;stroke-width:2;stroke-linecap:butt;stroke-linejoin:miter;stroke:rgb(100%,0%,0%);stroke-opacity:1;stroke-miterlimit:4;" d="M 288.598958 53.598958 L 288.697917 38.197917 " transform="matrix(0.75,0,0,0.75,0,0)"/>
<path style="fill:none;stroke-width:2;stroke-linecap:butt;stroke-linejoin:miter;stroke:rgb(80%,80%,0%);stroke-opacity:1;stroke-miterlimit:4;" d="M 281.401042 69 L 281.5 53.598958 " transform="matrix(0.75,0,0,0.75,0,0)"/>
<path style="fill:none;stroke-width:2;stroke-linecap:butt;stroke-linejoin:miter;stroke:rgb(100%,0%,0%);stroke-opacity:1;stroke-miterlimit:4;" d="M 281.5 53.598958 L 281.5 38.197917 " transform="matrix(0.75,0,0,0.75,0,0)"/>
<path style="fill:none;stroke-width:2;stroke-linecap:butt;stroke-linejoin:miter;stroke:rgb(80%,80%,0%);stroke-opacity:1;stroke-miterlimit:4;" d="M 291.302083 80.302083 L 308.197917 78.5 " transform="matrix(0.75,0,0,0.75,0,0)"/>
<path style="fill:none;stroke-width:2;stroke-linecap:butt;stroke-linejoin:miter;stroke:rgb(100%,0%,0%);stroke-opacity:1;stroke-miterlimit:4;" d="M 308.197917 78.5 L 325.098958 76.802083 " transform="matrix(0.75,0,0,0.75,0,0)"/>
<path style="fill:none;stroke-width:2;stroke-linecap:butt;stroke-linejoin:miter;stroke:rgb(80%,80%,0%);stroke-opacity:1;stroke-miterlimit:4;" d="M 290.5 73.098958 L 307.401042 71.401042 " transform="matrix(0.75,0,0,0.75,0,0)"/>
<path style="fill:none;stroke-width:2;stroke-linecap:butt;stroke-linejoin:miter;stroke:rgb(100%,0%,0%);stroke-opacity:1;stroke-miterlimit:4;" d="M 307.401042 71.401042 L 324.302083 69.697917 " transform="matrix(0.75,0,0,0.75,0,0)"/>
<path style="fill:none;stroke-width:2;stroke-linecap:butt;stroke-linejoin:miter;stroke:rgb(0%,0%,0%);stroke-opacity:1;stroke-miterlimit:4;" d="M 128.302083 388.098958 L 149.302083 431 " transform="matrix(0.75,0,0,0.75,0,0)"/>
<path style="fill:none;stroke-width:2;stroke-linecap:butt;stroke-linejoin:miter;stroke:rgb(80%,80%,0%);stroke-opacity:1;stroke-miterlimit:4;" d="M 279.098958 76.697917 L 258.302083 74.401042 " transform="matrix(0.75,0,0,0.75,0,0)"/>
<path style="fill:none;stroke-width:2;stroke-linecap:butt;stroke-linejoin:miter;stroke:rgb(0%,0%,0%);stroke-opacity:1;stroke-miterlimit:4;" d="M 258.302083 74.401042 L 237.5 72.197917 " transform="matrix(0.75,0,0,0.75,0,0)"/>
<path style="fill:none;stroke-width:2;stroke-linecap:butt;stroke-linejoin:miter;stroke:rgb(0%,0%,100%);stroke-opacity:1;stroke-miterlimit:4;" d="M 169.302083 358.401042 L 187 367.802083 " transform="matrix(0.75,0,0,0.75,0,0)"/>
<path style="fill:none;stroke-width:2;stroke-linecap:butt;stroke-linejoin:miter;stroke:rgb(0%,0%,0%);stroke-opacity:1;stroke-miterlimit:4;" d="M 187 367.802083 L 204.802083 377.197917 " transform="matrix(0.75,0,0,0.75,0,0)"/>
<path style="fill:none;stroke-width:2;stroke-linecap:butt;stroke-linejoin:miter;stroke:rgb(0%,0%,0%);stroke-opacity:1;stroke-miterlimit:4;" d="M 294.802083 124 L 277.5 134 " transform="matrix(0.75,0,0,0.75,0,0)"/>
<path style="fill:none;stroke-width:2;stroke-linecap:butt;stroke-linejoin:miter;stroke:rgb(0%,0%,100%);stroke-opacity:1;stroke-miterlimit:4;" d="M 277.5 134 L 260.098958 143.901042 " transform="matrix(0.75,0,0,0.75,0,0)"/>
<path style="fill:none;stroke-width:2;stroke-linecap:butt;stroke-linejoin:miter;stroke:rgb(0%,0%,0%);stroke-opacity:1;stroke-miterlimit:4;" d="M 433.901042 357.802083 L 388.302083 371.802083 " transform="matrix(0.75,0,0,0.75,0,0)"/>
<path style="fill:none;stroke-width:1;stroke-linecap:butt;stroke-linejoin:miter;stroke:rgb(0%,0%,0%);stroke-opacity:1;stroke-miterlimit:4;" d="M 208.197917 378 L 208 378.697917 " transform="matrix(0.75,0,0,0.75,0,0)"/>
<path style="fill:none;stroke-width:1;stroke-linecap:butt;stroke-linejoin:miter;stroke:rgb(0%,0%,0%);stroke-opacity:1;stroke-miterlimit:4;" d="M 211.697917 378.901042 L 211.197917 380.098958 " transform="matrix(0.75,0,0,0.75,0,0)"/>
<path style="fill:none;stroke-width:1;stroke-linecap:butt;stroke-linejoin:miter;stroke:rgb(0%,0%,0%);stroke-opacity:1;stroke-miterlimit:4;" d="M 215.098958 379.697917 L 214.5 381.598958 " transform="matrix(0.75,0,0,0.75,0,0)"/>
<path style="fill:none;stroke-width:1;stroke-linecap:butt;stroke-linejoin:miter;stroke:rgb(0%,0%,0%);stroke-opacity:1;stroke-miterlimit:4;" d="M 218.5 380.5 L 217.697917 383 " transform="matrix(0.75,0,0,0.75,0,0)"/>
<path style="fill:none;stroke-width:1;stroke-linecap:butt;stroke-linejoin:miter;stroke:rgb(0%,0%,0%);stroke-opacity:1;stroke-miterlimit:4;" d="M 222 381.401042 L 220.901042 384.5 " transform="matrix(0.75,0,0,0.75,0,0)"/>
<path style="fill:none;stroke-width:1;stroke-linecap:butt;stroke-linejoin:miter;stroke:rgb(0%,0%,0%);stroke-opacity:1;stroke-miterlimit:4;" d="M 225.401042 382.197917 L 224.197917 385.901042 " transform="matrix(0.75,0,0,0.75,0,0)"/>
<path style="fill:none;stroke-width:1;stroke-linecap:butt;stroke-linejoin:miter;stroke:rgb(0%,0%,0%);stroke-opacity:1;stroke-miterlimit:4;" d="M 228.901042 383 L 227.401042 387.401042 " transform="matrix(0.75,0,0,0.75,0,0)"/>
<path style="fill:none;stroke-width:1;stroke-linecap:butt;stroke-linejoin:miter;stroke:rgb(0%,0%,0%);stroke-opacity:1;stroke-miterlimit:4;" d="M 232.302083 383.901042 L 230.598958 388.802083 " transform="matrix(0.75,0,0,0.75,0,0)"/>
<path style="fill:none;stroke-width:1;stroke-linecap:butt;stroke-linejoin:miter;stroke:rgb(0%,0%,0%);stroke-opacity:1;stroke-miterlimit:4;" d="M 235.802083 384.697917 L 233.901042 390.302083 " transform="matrix(0.75,0,0,0.75,0,0)"/>
<path style="fill:none;stroke-width:1;stroke-linecap:butt;stroke-linejoin:miter;stroke:rgb(0%,0%,0%);stroke-opacity:1;stroke-miterlimit:4;" d="M 239.197917 385.5 L 237.098958 391.697917 " transform="matrix(0.75,0,0,0.75,0,0)"/>
<path style="fill:none;stroke-width:1;stroke-linecap:butt;stroke-linejoin:miter;stroke:rgb(0%,0%,0%);stroke-opacity:1;stroke-miterlimit:4;" d="M 242.697917 386.401042 L 240.302083 393.098958 " transform="matrix(0.75,0,0,0.75,0,0)"/>
<path style="fill-rule:evenodd;fill:rgb(0%,0%,0%);fill-opacity:1;stroke-width:0.5;stroke-linecap:butt;stroke-linejoin:miter;stroke:rgb(0%,0%,0%);stroke-opacity:1;stroke-miterlimit:4;" d="M 294.802083 124 L 329.697917 106.901042 L 332.302083 113.598958 Z M 294.802083 124 " transform="matrix(0.75,0,0,0.75,0,0)"/>
<path style="fill:none;stroke-width:2;stroke-linecap:butt;stroke-linejoin:miter;stroke:rgb(0%,0%,0%);stroke-opacity:1;stroke-miterlimit:4;" d="M 226 337.098958 L 227.098958 335 L 225 333.901042 " transform="matrix(0.75,0,0,0.75,0,0)"/>
<path style="fill:none;stroke-width:2;stroke-linecap:butt;stroke-linejoin:miter;stroke:rgb(0%,0%,0%);stroke-opacity:1;stroke-miterlimit:4;" d="M 307 352.802083 L 307.697917 353.401042 L 310 352.697917 " transform="matrix(0.75,0,0,0.75,0,0)"/>
<path style="fill:none;stroke-width:2;stroke-linecap:butt;stroke-linejoin:miter;stroke:rgb(0%,0%,0%);stroke-opacity:1;stroke-miterlimit:4;" d="M 351 340.098958 L 353.302083 339.401042 L 355 341 " transform="matrix(0.75,0,0,0.75,0,0)"/>
<path style="fill:none;stroke-width:2;stroke-linecap:butt;stroke-linejoin:miter;stroke:rgb(0%,0%,0%);stroke-opacity:1;stroke-miterlimit:4;" d="M 378.197917 416.098958 L 377.598958 418.401042 L 379.401042 420 " transform="matrix(0.75,0,0,0.75,0,0)"/>
<path style="fill:none;stroke-width:2;stroke-linecap:butt;stroke-linejoin:miter;stroke:rgb(0%,0%,0%);stroke-opacity:1;stroke-miterlimit:4;" d="M 410.901042 449.197917 L 412.598958 450.901042 L 414.901042 450.197917 " transform="matrix(0.75,0,0,0.75,0,0)"/>
<path style="fill:none;stroke-width:2;stroke-linecap:butt;stroke-linejoin:miter;stroke:rgb(0%,0%,0%);stroke-opacity:1;stroke-miterlimit:4;" d="M 456 437.5 L 458.197917 436.802083 L 458.802083 434.5 " transform="matrix(0.75,0,0,0.75,0,0)"/>
<path style="fill:none;stroke-width:2;stroke-linecap:butt;stroke-linejoin:miter;stroke:rgb(0%,0%,0%);stroke-opacity:1;stroke-miterlimit:4;" d="M 468.302083 392.598958 L 468.901042 390.302083 L 467.098958 388.598958 " transform="matrix(0.75,0,0,0.75,0,0)"/>
<path style="fill:none;stroke-width:2;stroke-linecap:butt;stroke-linejoin:miter;stroke:rgb(0%,0%,0%);stroke-opacity:1;stroke-miterlimit:4;" d="M 435.598958 359.401042 L 433.901042 357.802083 L 431.598958 358.5 " transform="matrix(0.75,0,0,0.75,0,0)"/>
<path style="fill:none;stroke-width:2;stroke-linecap:butt;stroke-linejoin:miter;stroke:rgb(0%,0%,0%);stroke-opacity:1;stroke-miterlimit:4;" d="M 187 313.802083 L 184.901042 312.697917 L 184.401042 313.5 " transform="matrix(0.75,0,0,0.75,0,0)"/>
<path style="fill:none;stroke-width:2;stroke-linecap:butt;stroke-linejoin:miter;stroke:rgb(0%,0%,0%);stroke-opacity:1;stroke-miterlimit:4;" d="M 129 387.5 L 128.302083 388.098958 L 129.401042 390.302083 " transform="matrix(0.75,0,0,0.75,0,0)"/>
<path style="fill:none;stroke-width:2;stroke-linecap:butt;stroke-linejoin:miter;stroke:rgb(0%,0%,0%);stroke-opacity:1;stroke-miterlimit:4;" d="M 219 113.598958 L 218 115.802083 L 218.697917 116.401042 " transform="matrix(0.75,0,0,0.75,0,0)"/>
<path style="fill:none;stroke-width:2;stroke-linecap:butt;stroke-linejoin:miter;stroke:rgb(0%,0%,0%);stroke-opacity:1;stroke-miterlimit:4;" d="M 276.697917 188.302083 L 277.197917 189.197917 L 279.302083 188 " transform="matrix(0.75,0,0,0.75,0,0)"/>
<path style="fill:none;stroke-width:2;stroke-linecap:butt;stroke-linejoin:miter;stroke:rgb(0%,0%,0%);stroke-opacity:1;stroke-miterlimit:4;" d="M 316.5 166.598958 L 318.598958 165.401042 L 317.401042 163.302083 " transform="matrix(0.75,0,0,0.75,0,0)"/>
<path style=" stroke:none;fill-rule:nonzero;fill:rgb(80%,80%,0%);fill-opacity:1;" d="M 144.601562 321.675781 C 144.648438 321.675781 144.824219 321.75 145.125 321.898438 C 145.476562 322.050781 145.824219 322.148438 146.175781 322.199219 C 146.523438 322.300781 146.875 322.351562 147.226562 322.351562 C 147.824219 322.351562 148.324219 322.199219 148.726562 321.898438 C 149.074219 321.550781 149.25 321.125 149.25 320.625 C 149.25 320.226562 149.148438 319.925781 148.949219 319.726562 C 148.800781 319.476562 148.574219 319.300781 148.273438 319.199219 C 147.976562 319.050781 147.601562 318.898438 147.148438 318.75 C 146.550781 318.601562 146.074219 318.425781 145.726562 318.226562 C 145.324219 318.074219 145 317.800781 144.75 317.398438 C 144.5 317.050781 144.375 316.574219 144.375 315.976562 C 144.375 315.125 144.675781 314.425781 145.273438 313.875 C 145.824219 313.375 146.675781 313.125 147.824219 313.125 C 148.625 313.125 149.476562 313.300781 150.375 313.648438 L 150 314.773438 C 149.199219 314.425781 148.5 314.25 147.898438 314.25 C 147.25 314.25 146.726562 314.398438 146.324219 314.699219 C 145.976562 314.949219 145.800781 315.324219 145.800781 315.824219 C 145.800781 316.175781 145.898438 316.449219 146.101562 316.648438 C 146.300781 316.898438 146.523438 317.074219 146.773438 317.175781 C 147.074219 317.324219 147.449219 317.476562 147.898438 317.625 C 148.5 317.773438 148.976562 317.949219 149.324219 318.148438 C 149.726562 318.351562 150.050781 318.648438 150.300781 319.050781 C 150.550781 319.398438 150.675781 319.925781 150.675781 320.625 C 150.675781 321.523438 150.375 322.226562 149.773438 322.726562 C 149.125 323.226562 148.273438 323.476562 147.226562 323.476562 C 146.625 323.476562 146.101562 323.425781 145.648438 323.324219 C 145.199219 323.175781 144.699219 323 144.148438 322.800781 L 144.601562 321.675781 "/>
<path style=" stroke:none;fill-rule:nonzero;fill:rgb(0%,0%,100%);fill-opacity:1;" d="M 202.273438 235.648438 L 205.574219 241.050781 C 205.824219 241.398438 206.125 241.875 206.476562 242.476562 C 206.824219 243.125 207 243.476562 207 243.523438 L 207 235.648438 L 208.351562 235.648438 L 208.351562 245.773438 L 207 245.773438 L 203.398438 239.925781 C 203.148438 239.476562 202.875 238.976562 202.574219 238.425781 C 202.273438 237.925781 202.074219 237.574219 201.976562 237.375 L 201.976562 245.773438 L 200.699219 245.773438 L 200.699219 235.648438 L 202.273438 235.648438 "/>
<path style=" stroke:none;fill-rule:nonzero;fill:rgb(0%,0%,100%);fill-opacity:1;" d="M 200.550781 224.476562 L 201.898438 224.476562 L 201.898438 228.824219 L 207.148438 228.824219 L 207.148438 224.476562 L 208.5 224.476562 L 208.5 234.601562 L 207.148438 234.601562 L 207.148438 229.949219 L 201.898438 229.949219 L 201.898438 234.601562 L 200.550781 234.601562 L 200.550781 224.476562 "/>
<path style=" stroke:none;fill-rule:nonzero;fill:rgb(100%,0%,0%);fill-opacity:1;" d="M 218.101562 300 C 218.101562 298.398438 218.5 297.125 219.300781 296.175781 C 220.101562 295.273438 221.25 294.824219 222.75 294.824219 C 224.25 294.824219 225.398438 295.273438 226.199219 296.175781 C 227.050781 297.125 227.476562 298.398438 227.476562 300 C 227.476562 301.648438 227.050781 302.949219 226.199219 303.898438 C 225.398438 304.800781 224.25 305.25 222.75 305.25 C 221.300781 305.25 220.148438 304.800781 219.300781 303.898438 C 218.5 302.949219 218.101562 301.648438 218.101562 300 M 222.75 304.125 C 223.800781 304.125 224.601562 303.773438 225.148438 303.074219 C 225.699219 302.375 225.976562 301.351562 225.976562 300 C 225.976562 298.648438 225.699219 297.648438 225.148438 297 C 224.601562 296.351562 223.800781 296.023438 222.75 296.023438 C 221.75 296.023438 220.976562 296.351562 220.425781 297 C 219.824219 297.648438 219.523438 298.648438 219.523438 300 C 219.523438 301.351562 219.824219 302.375 220.425781 303.074219 C 220.976562 303.773438 221.75 304.125 222.75 304.125 "/>
<path style=" stroke:none;fill-rule:nonzero;fill:rgb(0%,0%,100%);fill-opacity:1;" d="M 270.675781 214.574219 L 274.050781 219.898438 C 274.25 220.25 274.523438 220.75 274.875 221.398438 C 275.226562 222.050781 275.425781 222.398438 275.476562 222.449219 L 275.476562 214.574219 L 276.824219 214.574219 L 276.824219 224.699219 L 275.398438 224.699219 L 271.875 218.851562 C 271.574219 218.398438 271.273438 217.898438 270.976562 217.351562 C 270.675781 216.800781 270.5 216.449219 270.449219 216.300781 L 270.449219 224.699219 L 269.101562 224.699219 L 269.101562 214.574219 L 270.675781 214.574219 "/>
<path style=" stroke:none;fill-rule:nonzero;fill:rgb(0%,0%,100%);fill-opacity:1;" d="M 278.699219 214.574219 L 280.125 214.574219 L 280.125 218.851562 L 285.300781 218.851562 L 285.300781 214.574219 L 286.648438 214.574219 L 286.648438 224.699219 L 285.300781 224.699219 L 285.300781 220.050781 L 280.125 220.050781 L 280.125 224.699219 L 278.699219 224.699219 L 278.699219 214.574219 "/>
<path style=" stroke:none;fill-rule:nonzero;fill:rgb(0%,0%,100%);fill-opacity:1;" d="M 288.675781 224.324219 C 288.824219 223.925781 289.101562 223.601562 289.5 223.351562 C 289.898438 223.101562 290.351562 222.976562 290.851562 222.976562 C 291.550781 222.976562 292.074219 223.175781 292.425781 223.574219 C 292.824219 223.925781 293.023438 224.425781 293.023438 225.074219 C 293.023438 225.726562 292.773438 226.351562 292.273438 226.949219 C 291.773438 227.601562 291.023438 228.273438 290.023438 228.976562 L 293.101562 228.976562 L 293.101562 229.800781 L 288.601562 229.800781 L 288.601562 229.125 C 289.449219 228.523438 290.125 228 290.625 227.550781 C 291.125 227.148438 291.5 226.75 291.75 226.351562 C 291.949219 225.949219 292.050781 225.550781 292.050781 225.148438 C 292.050781 224.699219 291.949219 224.351562 291.75 224.101562 C 291.550781 223.851562 291.25 223.726562 290.851562 223.726562 C 290.5 223.726562 290.199219 223.800781 289.949219 223.949219 C 289.75 224.101562 289.550781 224.351562 289.351562 224.699219 L 288.675781 224.324219 "/>
<path style=" stroke:none;fill-rule:nonzero;fill:rgb(100%,0%,0%);fill-opacity:1;" d="M 123.449219 200.324219 C 123.449219 198.726562 123.851562 197.476562 124.648438 196.574219 C 125.449219 195.625 126.601562 195.148438 128.101562 195.148438 C 129.601562 195.148438 130.75 195.625 131.550781 196.574219 C 132.351562 197.476562 132.75 198.726562 132.75 200.324219 C 132.75 201.976562 132.351562 203.273438 131.550781 204.226562 C 130.75 205.125 129.601562 205.574219 128.101562 205.574219 C 126.601562 205.574219 125.449219 205.125 124.648438 204.226562 C 123.851562 203.273438 123.449219 201.976562 123.449219 200.324219 M 128.101562 204.449219 C 129.148438 204.449219 129.949219 204.101562 130.5 203.398438 C 131.050781 202.699219 131.324219 201.675781 131.324219 200.324219 C 131.324219 199.023438 131.050781 198.023438 130.5 197.324219 C 129.949219 196.675781 129.148438 196.351562 128.101562 196.351562 C 127.101562 196.351562 126.300781 196.675781 125.699219 197.324219 C 125.148438 197.976562 124.875 198.976562 124.875 200.324219 C 124.875 201.675781 125.148438 202.699219 125.699219 203.398438 C 126.300781 204.101562 127.101562 204.449219 128.101562 204.449219 "/>
<path style=" stroke:none;fill-rule:nonzero;fill:rgb(0%,0%,100%);fill-opacity:1;" d="M 119.699219 261.074219 L 123 266.476562 C 123.199219 266.824219 123.5 267.324219 123.898438 267.976562 C 124.25 268.625 124.425781 268.949219 124.425781 268.949219 L 124.425781 261.074219 L 125.773438 261.074219 L 125.773438 271.273438 L 124.351562 271.273438 L 120.824219 265.351562 C 120.523438 264.898438 120.226562 264.425781 119.925781 263.925781 C 119.675781 263.375 119.5 263.023438 119.398438 262.875 L 119.398438 271.273438 L 118.050781 271.273438 L 118.050781 261.074219 L 119.699219 261.074219 "/>
<path style=" stroke:none;fill-rule:nonzero;fill:rgb(100%,0%,0%);fill-opacity:1;" d="M 43.949219 251.398438 C 43.949219 249.75 44.351562 248.476562 45.148438 247.574219 C 46 246.675781 47.175781 246.226562 48.675781 246.226562 C 50.125 246.226562 51.273438 246.675781 52.125 247.574219 C 52.925781 248.476562 53.324219 249.75 53.324219 251.398438 C 53.324219 253 52.898438 254.273438 52.050781 255.226562 C 51.25 256.175781 50.125 256.648438 48.675781 256.648438 C 47.175781 256.648438 46 256.175781 45.148438 255.226562 C 44.351562 254.324219 43.949219 253.050781 43.949219 251.398438 M 48.675781 255.449219 C 49.675781 255.449219 50.449219 255.125 51 254.476562 C 51.550781 253.773438 51.824219 252.75 51.824219 251.398438 C 51.824219 250.050781 51.550781 249.050781 51 248.398438 C 50.449219 247.699219 49.675781 247.351562 48.675781 247.351562 C 47.625 247.351562 46.824219 247.699219 46.273438 248.398438 C 45.726562 249.050781 45.449219 250.050781 45.449219 251.398438 C 45.449219 252.75 45.726562 253.773438 46.273438 254.476562 C 46.824219 255.125 47.625 255.449219 48.675781 255.449219 "/>
<path style=" stroke:none;fill-rule:nonzero;fill:rgb(100%,0%,0%);fill-opacity:1;" d="M 23.324219 307.425781 L 24.75 307.425781 L 24.75 311.699219 L 29.925781 311.699219 L 29.925781 307.425781 L 31.273438 307.425781 L 31.273438 317.550781 L 29.925781 317.550781 L 29.925781 312.898438 L 24.75 312.898438 L 24.75 317.550781 L 23.324219 317.550781 L 23.324219 307.425781 "/>
<path style=" stroke:none;fill-rule:nonzero;fill:rgb(100%,0%,0%);fill-opacity:1;" d="M 33.375 312.449219 C 33.375 310.851562 33.773438 309.601562 34.574219 308.699219 C 35.375 307.75 36.523438 307.273438 38.023438 307.273438 C 39.523438 307.273438 40.675781 307.75 41.476562 308.699219 C 42.273438 309.601562 42.675781 310.851562 42.675781 312.449219 C 42.675781 314.101562 42.273438 315.398438 41.476562 316.351562 C 40.625 317.25 39.476562 317.699219 38.023438 317.699219 C 36.523438 317.699219 35.375 317.25 34.574219 316.351562 C 33.773438 315.398438 33.375 314.101562 33.375 312.449219 M 38.023438 316.574219 C 39.023438 316.574219 39.800781 316.226562 40.351562 315.523438 C 40.949219 314.824219 41.25 313.800781 41.25 312.449219 C 41.25 311.148438 40.949219 310.148438 40.351562 309.449219 C 39.800781 308.800781 39.023438 308.476562 38.023438 308.476562 C 36.976562 308.476562 36.175781 308.800781 35.625 309.449219 C 35.074219 310.101562 34.800781 311.101562 34.800781 312.449219 C 34.800781 313.800781 35.074219 314.824219 35.625 315.523438 C 36.175781 316.226562 36.976562 316.574219 38.023438 316.574219 "/>
<path style=" stroke:none;fill-rule:nonzero;fill:rgb(100%,0%,0%);fill-opacity:1;" d="M 99.898438 67.574219 C 99.898438 65.925781 100.300781 64.648438 101.101562 63.75 C 101.949219 62.851562 103.125 62.398438 104.625 62.398438 C 106.074219 62.398438 107.226562 62.851562 108.074219 63.75 C 108.875 64.648438 109.273438 65.925781 109.273438 67.574219 C 109.273438 69.226562 108.851562 70.5 108 71.398438 C 107.199219 72.351562 106.074219 72.824219 104.625 72.824219 C 103.125 72.824219 101.949219 72.351562 101.101562 71.398438 C 100.300781 70.5 99.898438 69.226562 99.898438 67.574219 M 104.625 71.625 C 105.625 71.625 106.398438 71.300781 106.949219 70.648438 C 107.5 69.949219 107.773438 68.925781 107.773438 67.574219 C 107.773438 66.226562 107.5 65.226562 106.949219 64.574219 C 106.398438 63.875 105.625 63.523438 104.625 63.523438 C 103.574219 63.523438 102.773438 63.875 102.226562 64.574219 C 101.675781 65.226562 101.398438 66.226562 101.398438 67.574219 C 101.398438 68.925781 101.675781 69.949219 102.226562 70.648438 C 102.773438 71.300781 103.574219 71.625 104.625 71.625 "/>
<path style=" stroke:none;fill-rule:nonzero;fill:rgb(100%,0%,0%);fill-opacity:1;" d="M 112.648438 128.25 C 112.648438 126.601562 113.074219 125.324219 113.925781 124.425781 C 114.726562 123.523438 115.875 123.074219 117.375 123.074219 C 118.875 123.074219 120.023438 123.523438 120.824219 124.425781 C 121.625 125.324219 122.023438 126.601562 122.023438 128.25 C 122.023438 129.898438 121.601562 131.175781 120.75 132.074219 C 119.949219 133.023438 118.824219 133.5 117.375 133.5 C 115.875 133.5 114.726562 133.023438 113.925781 132.074219 C 113.074219 131.175781 112.648438 129.898438 112.648438 128.25 M 117.375 132.375 C 118.375 132.375 119.148438 132.023438 119.699219 131.324219 C 120.300781 130.625 120.601562 129.601562 120.601562 128.25 C 120.601562 126.898438 120.300781 125.898438 119.699219 125.25 C 119.148438 124.550781 118.375 124.199219 117.375 124.199219 C 116.324219 124.199219 115.523438 124.550781 114.976562 125.25 C 114.425781 125.898438 114.148438 126.898438 114.148438 128.25 C 114.148438 129.601562 114.425781 130.625 114.976562 131.324219 C 115.523438 132.023438 116.324219 132.375 117.375 132.375 "/>
<path style=" stroke:none;fill-rule:nonzero;fill:rgb(100%,0%,0%);fill-opacity:1;" d="M 123.601562 123.226562 L 124.949219 123.226562 L 124.949219 127.5 L 130.125 127.5 L 130.125 123.226562 L 131.476562 123.226562 L 131.476562 133.351562 L 130.125 133.351562 L 130.125 128.625 L 124.949219 128.625 L 124.949219 133.351562 L 123.601562 133.351562 L 123.601562 123.226562 "/>
<path style=" stroke:none;fill-rule:nonzero;fill:rgb(0%,0%,100%);fill-opacity:1;" d="M 187.800781 105.75 L 191.175781 111.148438 C 191.375 111.5 191.648438 112 192 112.648438 C 192.351562 113.25 192.550781 113.574219 192.601562 113.625 L 192.601562 105.75 L 193.875 105.75 L 193.875 115.875 L 192.523438 115.875 L 188.925781 110.023438 C 188.675781 109.574219 188.398438 109.074219 188.101562 108.523438 C 187.800781 108.023438 187.625 107.699219 187.574219 107.550781 L 187.574219 115.875 L 186.226562 115.875 L 186.226562 105.75 L 187.800781 105.75 "/>
<path style=" stroke:none;fill-rule:nonzero;fill:rgb(100%,0%,0%);fill-opacity:1;" d="M 193.875 176.476562 C 193.875 174.824219 194.273438 173.550781 195.074219 172.648438 C 195.875 171.75 197.023438 171.300781 198.523438 171.300781 C 200.023438 171.300781 201.175781 171.75 201.976562 172.648438 C 202.773438 173.550781 203.175781 174.824219 203.175781 176.476562 C 203.175781 178.125 202.773438 179.398438 201.976562 180.300781 C 201.175781 181.25 200.023438 181.726562 198.523438 181.726562 C 197.074219 181.726562 195.925781 181.25 195.074219 180.300781 C 194.273438 179.398438 193.875 178.125 193.875 176.476562 M 198.523438 180.601562 C 199.574219 180.601562 200.375 180.25 200.925781 179.550781 C 201.476562 178.851562 201.75 177.824219 201.75 176.476562 C 201.75 175.125 201.476562 174.125 200.925781 173.476562 C 200.375 172.773438 199.574219 172.425781 198.523438 172.425781 C 197.523438 172.425781 196.726562 172.773438 196.125 173.476562 C 195.574219 174.125 195.300781 175.125 195.300781 176.476562 C 195.300781 177.824219 195.574219 178.851562 196.125 179.550781 C 196.726562 180.25 197.523438 180.601562 198.523438 180.601562 "/>
<path style=" stroke:none;fill-rule:nonzero;fill:rgb(80%,80%,0%);fill-opacity:1;" d="M 210.898438 61.425781 C 210.949219 61.476562 211.148438 61.574219 211.5 61.726562 C 211.800781 61.824219 212.125 61.925781 212.476562 62.023438 C 212.824219 62.125 213.175781 62.175781 213.523438 62.175781 C 214.175781 62.175781 214.675781 62 215.023438 61.648438 C 215.375 61.351562 215.550781 60.925781 215.550781 60.375 C 215.550781 60.023438 215.476562 59.726562 215.324219 59.476562 C 215.125 59.273438 214.875 59.101562 214.574219 58.949219 C 214.324219 58.851562 213.949219 58.726562 213.449219 58.574219 C 212.851562 58.375 212.375 58.199219 212.023438 58.050781 C 211.675781 57.851562 211.351562 57.574219 211.050781 57.226562 C 210.851562 56.875 210.75 56.398438 210.75 55.800781 C 210.75 54.949219 211.023438 54.25 211.574219 53.699219 C 212.175781 53.199219 213.050781 52.949219 214.199219 52.949219 C 214.949219 52.949219 215.773438 53.125 216.675781 53.476562 L 216.375 54.601562 C 215.523438 54.25 214.800781 54.074219 214.199219 54.074219 C 213.550781 54.074219 213.050781 54.226562 212.699219 54.523438 C 212.300781 54.773438 212.125 55.125 212.175781 55.574219 C 212.175781 55.976562 212.25 56.273438 212.398438 56.476562 C 212.601562 56.675781 212.824219 56.851562 213.074219 57 C 213.375 57.101562 213.75 57.226562 214.199219 57.375 C 214.800781 57.574219 215.300781 57.773438 215.699219 57.976562 C 216.050781 58.175781 216.351562 58.449219 216.601562 58.800781 C 216.851562 59.199219 216.976562 59.726562 216.976562 60.375 C 216.976562 61.324219 216.675781 62.050781 216.074219 62.550781 C 215.425781 63.050781 214.601562 63.300781 213.601562 63.300781 C 212.949219 63.300781 212.398438 63.226562 211.949219 63.074219 C 211.5 62.976562 211.023438 62.800781 210.523438 62.550781 L 210.898438 61.425781 "/>
<path style=" stroke:none;fill-rule:nonzero;fill:rgb(100%,0%,0%);fill-opacity:1;" d="M 209.175781 22.199219 C 209.175781 20.601562 209.574219 19.324219 210.375 18.375 C 211.175781 17.476562 212.324219 17.023438 213.824219 17.023438 C 215.324219 17.023438 216.476562 17.476562 217.273438 18.375 C 218.074219 19.324219 218.476562 20.601562 218.476562 22.199219 C 218.476562 23.851562 218.074219 25.148438 217.273438 26.101562 C 216.476562 27 215.324219 27.449219 213.824219 27.449219 C 212.324219 27.449219 211.175781 27 210.375 26.101562 C 209.574219 25.148438 209.175781 23.851562 209.175781 22.199219 M 213.824219 26.324219 C 214.875 26.324219 215.675781 25.976562 216.226562 25.273438 C 216.773438 24.574219 217.050781 23.550781 217.050781 22.199219 C 217.050781 20.851562 216.773438 19.851562 216.226562 19.199219 C 215.675781 18.550781 214.875 18.226562 213.824219 18.226562 C 212.773438 18.226562 211.976562 18.550781 211.425781 19.199219 C 210.875 19.851562 210.601562 20.851562 210.601562 22.199219 C 210.601562 23.550781 210.875 24.574219 211.425781 25.273438 C 211.976562 25.976562 212.773438 26.324219 213.824219 26.324219 "/>
<path style=" stroke:none;fill-rule:nonzero;fill:rgb(100%,0%,0%);fill-opacity:1;" d="M 244.726562 54.375 C 244.726562 52.726562 245.125 51.449219 245.925781 50.550781 C 246.726562 49.648438 247.875 49.199219 249.375 49.199219 C 250.875 49.199219 252.023438 49.648438 252.824219 50.550781 C 253.625 51.449219 254.023438 52.726562 254.023438 54.375 C 254.023438 55.976562 253.625 57.25 252.824219 58.199219 C 251.976562 59.148438 250.824219 59.625 249.375 59.625 C 247.875 59.625 246.726562 59.148438 245.925781 58.199219 C 245.125 57.300781 244.726562 56.023438 244.726562 54.375 M 249.375 58.425781 C 250.375 58.425781 251.175781 58.101562 251.773438 57.449219 C 252.324219 56.75 252.601562 55.726562 252.601562 54.375 C 252.601562 53.023438 252.324219 52.023438 251.773438 51.375 C 251.175781 50.675781 250.375 50.324219 249.375 50.324219 C 248.324219 50.324219 247.523438 50.648438 246.976562 51.300781 C 246.425781 52 246.148438 53.023438 246.148438 54.375 C 246.148438 55.726562 246.425781 56.75 246.976562 57.449219 C 247.523438 58.101562 248.324219 58.425781 249.375 58.425781 "/>
<path style=" stroke:none;fill-rule:nonzero;fill:rgb(0%,0%,0%);fill-opacity:1;" d="M 183.449219 289.425781 L 184.875 289.425781 L 184.875 293.699219 L 190.050781 293.699219 L 190.050781 289.425781 L 191.398438 289.425781 L 191.398438 299.550781 L 190.050781 299.550781 L 190.050781 294.898438 L 184.875 294.898438 L 184.875 299.550781 L 183.449219 299.550781 L 183.449219 289.425781 "/>
<path style=" stroke:none;fill-rule:nonzero;fill:rgb(0%,0%,0%);fill-opacity:1;" d="M 250.574219 75.148438 L 252 75.148438 L 252 79.5 L 257.175781 79.5 L 257.175781 75.148438 L 258.523438 75.148438 L 258.523438 85.351562 L 257.175781 85.351562 L 257.175781 80.625 L 252 80.625 L 252 85.351562 L 250.574219 85.351562 L 250.574219 75.148438 "/>
</g>
</svg>
