<?xml version="1.0" encoding="UTF-8"?>
<svg xmlns="http://www.w3.org/2000/svg" xmlns:xlink="http://www.w3.org/1999/xlink" width="375pt" height="375pt" viewBox="0 0 375 375" version="1.1">
<g id="surface246">
<rect x="0" y="0" width="375" height="375" style="fill:rgb(100%,100%,100%);fill-opacity:1;stroke:none;"/>
<path style="fill:none;stroke-width:2;stroke-linecap:butt;stroke-linejoin:miter;stroke:rgb(0%,0%,0%);stroke-opacity:1;stroke-miterlimit:4;" d="M 154.098958 143.598958 L 157 156.598958 " transform="matrix(0.75,0,0,0.75,0,0)"/>
<path style="fill:none;stroke-width:2;stroke-linecap:butt;stroke-linejoin:miter;stroke:rgb(100%,0%,0%);stroke-opacity:1;stroke-miterlimit:4;" d="M 157 156.598958 L 160 169.598958 " transform="matrix(0.75,0,0,0.75,0,0)"/>
<path style="fill:none;stroke-width:2;stroke-linecap:butt;stroke-linejoin:miter;stroke:rgb(100%,0%,0%);stroke-opacity:1;stroke-miterlimit:4;" d="M 156 180.302083 L 149 186.802083 " transform="matrix(0.75,0,0,0.75,0,0)"/>
<path style="fill:none;stroke-width:2;stroke-linecap:butt;stroke-linejoin:miter;stroke:rgb(0%,0%,100%);stroke-opacity:1;stroke-miterlimit:4;" d="M 149 186.802083 L 142 193.302083 " transform="matrix(0.75,0,0,0.75,0,0)"/>
<path style="fill:none;stroke-width:2;stroke-linecap:butt;stroke-linejoin:miter;stroke:rgb(0%,0%,100%);stroke-opacity:1;stroke-miterlimit:4;" d="M 138.697917 203.197917 L 141.697917 216.302083 " transform="matrix(0.75,0,0,0.75,0,0)"/>
<path style="fill:none;stroke-width:2;stroke-linecap:butt;stroke-linejoin:miter;stroke:rgb(0%,0%,0%);stroke-opacity:1;stroke-miterlimit:4;" d="M 141.697917 216.302083 L 144.598958 229.302083 " transform="matrix(0.75,0,0,0.75,0,0)"/>
<path style="fill:none;stroke-width:2;stroke-linecap:butt;stroke-linejoin:miter;stroke:rgb(0%,0%,100%);stroke-opacity:1;stroke-miterlimit:4;" d="M 144 204.5 L 146.401042 215 " transform="matrix(0.75,0,0,0.75,0,0)"/>
<path style="fill:none;stroke-width:2;stroke-linecap:butt;stroke-linejoin:miter;stroke:rgb(0%,0%,0%);stroke-opacity:1;stroke-miterlimit:4;" d="M 146.401042 215 L 148.802083 225.5 " transform="matrix(0.75,0,0,0.75,0,0)"/>
<path style="fill:none;stroke-width:2;stroke-linecap:butt;stroke-linejoin:miter;stroke:rgb(0%,0%,0%);stroke-opacity:1;stroke-miterlimit:4;" d="M 144.598958 229.302083 L 175.802083 238.901042 " transform="matrix(0.75,0,0,0.75,0,0)"/>
<path style="fill:none;stroke-width:2;stroke-linecap:butt;stroke-linejoin:miter;stroke:rgb(0%,0%,0%);stroke-opacity:1;stroke-miterlimit:4;" d="M 176.401042 241.697917 L 186.197917 232.598958 " transform="matrix(0.75,0,0,0.75,0,0)"/>
<path style="fill:none;stroke-width:2;stroke-linecap:butt;stroke-linejoin:miter;stroke:rgb(100%,0%,0%);stroke-opacity:1;stroke-miterlimit:4;" d="M 186.197917 232.598958 L 196 223.5 " transform="matrix(0.75,0,0,0.75,0,0)"/>
<path style="fill:none;stroke-width:2;stroke-linecap:butt;stroke-linejoin:miter;stroke:rgb(0%,0%,0%);stroke-opacity:1;stroke-miterlimit:4;" d="M 173.098958 238.098958 L 182.901042 229 " transform="matrix(0.75,0,0,0.75,0,0)"/>
<path style="fill:none;stroke-width:2;stroke-linecap:butt;stroke-linejoin:miter;stroke:rgb(100%,0%,0%);stroke-opacity:1;stroke-miterlimit:4;" d="M 182.901042 229 L 192.697917 219.901042 " transform="matrix(0.75,0,0,0.75,0,0)"/>
<path style="fill:none;stroke-width:2;stroke-linecap:butt;stroke-linejoin:miter;stroke:rgb(0%,0%,0%);stroke-opacity:1;stroke-miterlimit:4;" d="M 175.802083 238.901042 L 178.802083 252 " transform="matrix(0.75,0,0,0.75,0,0)"/>
<path style="fill:none;stroke-width:2;stroke-linecap:butt;stroke-linejoin:miter;stroke:rgb(0%,0%,100%);stroke-opacity:1;stroke-miterlimit:4;" d="M 178.802083 252 L 181.697917 265 " transform="matrix(0.75,0,0,0.75,0,0)"/>
<path style="fill-rule:evenodd;fill:rgb(0%,0%,0%);fill-opacity:1;stroke-width:0.5;stroke-linecap:butt;stroke-linejoin:miter;stroke:rgb(0%,0%,0%);stroke-opacity:1;stroke-miterlimit:4;" d="M 214.197917 280.302083 L 201 277.598958 L 201.802083 275.197917 Z M 214.197917 280.302083 " transform="matrix(0.75,0,0,0.75,0,0)"/>
<path style="fill-rule:evenodd;fill:rgb(0%,0%,100%);fill-opacity:1;stroke-width:0.5;stroke-linecap:butt;stroke-linejoin:miter;stroke:rgb(0%,0%,100%);stroke-opacity:1;stroke-miterlimit:4;" d="M 201 277.598958 L 189.401042 270.098958 L 187.901042 274.802083 Z M 201 277.598958 " transform="matrix(0.75,0,0,0.75,0,0)"/>
<path style="fill-rule:evenodd;fill:rgb(0%,0%,100%);fill-opacity:1;stroke-width:0.5;stroke-linecap:butt;stroke-linejoin:miter;stroke:rgb(0%,0%,100%);stroke-opacity:1;stroke-miterlimit:4;" d="M 201 277.598958 L 201.802083 275.197917 L 189.401042 270.098958 Z M 201 277.598958 " transform="matrix(0.75,0,0,0.75,0,0)"/>
<path style="fill:none;stroke-width:2;stroke-linecap:butt;stroke-linejoin:miter;stroke:rgb(0%,0%,0%);stroke-opacity:1;stroke-miterlimit:4;" d="M 214.197917 280.302083 L 229.401042 309.098958 " transform="matrix(0.75,0,0,0.75,0,0)"/>
<path style="fill:none;stroke-width:2;stroke-linecap:butt;stroke-linejoin:miter;stroke:rgb(0%,0%,0%);stroke-opacity:1;stroke-miterlimit:4;" d="M 227.802083 306.098958 L 223.5 320 " transform="matrix(0.75,0,0,0.75,0,0)"/>
<path style="fill:none;stroke-width:2;stroke-linecap:butt;stroke-linejoin:miter;stroke:rgb(100%,0%,0%);stroke-opacity:1;stroke-miterlimit:4;" d="M 223.5 320 L 219.197917 333.802083 " transform="matrix(0.75,0,0,0.75,0,0)"/>
<path style="fill:none;stroke-width:2;stroke-linecap:butt;stroke-linejoin:miter;stroke:rgb(0%,0%,0%);stroke-opacity:1;stroke-miterlimit:4;" d="M 232.401042 307.5 L 228.098958 321.401042 " transform="matrix(0.75,0,0,0.75,0,0)"/>
<path style="fill:none;stroke-width:2;stroke-linecap:butt;stroke-linejoin:miter;stroke:rgb(100%,0%,0%);stroke-opacity:1;stroke-miterlimit:4;" d="M 228.098958 321.401042 L 223.901042 335.302083 " transform="matrix(0.75,0,0,0.75,0,0)"/>
<path style="fill:none;stroke-width:2;stroke-linecap:butt;stroke-linejoin:miter;stroke:rgb(0%,0%,0%);stroke-opacity:1;stroke-miterlimit:4;" d="M 229.401042 309.098958 L 241.5 302.802083 " transform="matrix(0.75,0,0,0.75,0,0)"/>
<path style="fill:none;stroke-width:2;stroke-linecap:butt;stroke-linejoin:miter;stroke:rgb(0%,0%,100%);stroke-opacity:1;stroke-miterlimit:4;" d="M 241.5 302.802083 L 253.598958 296.401042 " transform="matrix(0.75,0,0,0.75,0,0)"/>
<path style="fill:none;stroke-width:2;stroke-linecap:butt;stroke-linejoin:miter;stroke:rgb(0%,0%,100%);stroke-opacity:1;stroke-miterlimit:4;" d="M 262.802083 294.098958 L 276.802083 294.598958 " transform="matrix(0.75,0,0,0.75,0,0)"/>
<path style="fill:none;stroke-width:2;stroke-linecap:butt;stroke-linejoin:miter;stroke:rgb(0%,0%,0%);stroke-opacity:1;stroke-miterlimit:4;" d="M 276.802083 294.598958 L 290.697917 295.197917 " transform="matrix(0.75,0,0,0.75,0,0)"/>
<path style="fill:none;stroke-width:2;stroke-linecap:butt;stroke-linejoin:miter;stroke:rgb(0%,0%,0%);stroke-opacity:1;stroke-miterlimit:4;" d="M 290.697917 295.197917 L 306 324 " transform="matrix(0.75,0,0,0.75,0,0)"/>
<path style="fill:none;stroke-width:2;stroke-linecap:butt;stroke-linejoin:miter;stroke:rgb(0%,0%,0%);stroke-opacity:1;stroke-miterlimit:4;" d="M 304.5 326.401042 L 318.802083 326.901042 " transform="matrix(0.75,0,0,0.75,0,0)"/>
<path style="fill:none;stroke-width:2;stroke-linecap:butt;stroke-linejoin:miter;stroke:rgb(100%,0%,0%);stroke-opacity:1;stroke-miterlimit:4;" d="M 318.802083 326.901042 L 333.098958 327.5 " transform="matrix(0.75,0,0,0.75,0,0)"/>
<path style="fill:none;stroke-width:2;stroke-linecap:butt;stroke-linejoin:miter;stroke:rgb(0%,0%,0%);stroke-opacity:1;stroke-miterlimit:4;" d="M 304.598958 321.5 L 319 322 " transform="matrix(0.75,0,0,0.75,0,0)"/>
<path style="fill:none;stroke-width:2;stroke-linecap:butt;stroke-linejoin:miter;stroke:rgb(100%,0%,0%);stroke-opacity:1;stroke-miterlimit:4;" d="M 319 322 L 333.302083 322.598958 " transform="matrix(0.75,0,0,0.75,0,0)"/>
<path style="fill:none;stroke-width:2;stroke-linecap:butt;stroke-linejoin:miter;stroke:rgb(0%,0%,0%);stroke-opacity:1;stroke-miterlimit:4;" d="M 306 324 L 299.098958 334.901042 " transform="matrix(0.75,0,0,0.75,0,0)"/>
<path style="fill:none;stroke-width:2;stroke-linecap:butt;stroke-linejoin:miter;stroke:rgb(100%,0%,0%);stroke-opacity:1;stroke-miterlimit:4;" d="M 299.098958 334.901042 L 292.197917 345.802083 " transform="matrix(0.75,0,0,0.75,0,0)"/>
<path style="fill:none;stroke-width:2;stroke-linecap:butt;stroke-linejoin:miter;stroke:rgb(0%,0%,0%);stroke-opacity:1;stroke-miterlimit:4;" d="M 290.697917 295.197917 L 308.098958 267.598958 " transform="matrix(0.75,0,0,0.75,0,0)"/>
<path style="fill:none;stroke-width:2;stroke-linecap:butt;stroke-linejoin:miter;stroke:rgb(0%,0%,0%);stroke-opacity:1;stroke-miterlimit:4;" d="M 288.098958 290.197917 L 302.5 267.401042 " transform="matrix(0.75,0,0,0.75,0,0)"/>
<path style="fill:none;stroke-width:2;stroke-linecap:butt;stroke-linejoin:miter;stroke:rgb(0%,0%,0%);stroke-opacity:1;stroke-miterlimit:4;" d="M 308.098958 267.598958 L 340.697917 268.802083 " transform="matrix(0.75,0,0,0.75,0,0)"/>
<path style="fill:none;stroke-width:2;stroke-linecap:butt;stroke-linejoin:miter;stroke:rgb(0%,0%,0%);stroke-opacity:1;stroke-miterlimit:4;" d="M 340.697917 268.802083 L 347.5 257.901042 " transform="matrix(0.75,0,0,0.75,0,0)"/>
<path style="fill:none;stroke-width:2;stroke-linecap:butt;stroke-linejoin:miter;stroke:rgb(0%,0%,100%);stroke-opacity:1;stroke-miterlimit:4;" d="M 347.5 257.901042 L 354.401042 246.901042 " transform="matrix(0.75,0,0,0.75,0,0)"/>
<path style="fill:none;stroke-width:2;stroke-linecap:butt;stroke-linejoin:miter;stroke:rgb(0%,0%,100%);stroke-opacity:1;stroke-miterlimit:4;" d="M 355.697917 235.5 L 350.802083 223.302083 " transform="matrix(0.75,0,0,0.75,0,0)"/>
<path style="fill:none;stroke-width:2;stroke-linecap:butt;stroke-linejoin:miter;stroke:rgb(0%,0%,0%);stroke-opacity:1;stroke-miterlimit:4;" d="M 350.802083 223.302083 L 345.901042 211 " transform="matrix(0.75,0,0,0.75,0,0)"/>
<path style="fill:none;stroke-width:2;stroke-linecap:butt;stroke-linejoin:miter;stroke:rgb(0%,0%,100%);stroke-opacity:1;stroke-miterlimit:4;" d="M 360.302083 233.697917 L 356 223.098958 " transform="matrix(0.75,0,0,0.75,0,0)"/>
<path style="fill:none;stroke-width:2;stroke-linecap:butt;stroke-linejoin:miter;stroke:rgb(0%,0%,0%);stroke-opacity:1;stroke-miterlimit:4;" d="M 356 223.098958 L 351.802083 212.5 " transform="matrix(0.75,0,0,0.75,0,0)"/>
<path style="fill:none;stroke-width:2;stroke-linecap:butt;stroke-linejoin:miter;stroke:rgb(0%,0%,0%);stroke-opacity:1;stroke-miterlimit:4;" d="M 345.901042 211 L 370.901042 190.098958 " transform="matrix(0.75,0,0,0.75,0,0)"/>
<path style="fill:none;stroke-width:2;stroke-linecap:butt;stroke-linejoin:miter;stroke:rgb(0%,0%,0%);stroke-opacity:1;stroke-miterlimit:4;" d="M 370.901042 190.098958 L 398.5 207.5 " transform="matrix(0.75,0,0,0.75,0,0)"/>
<path style="fill:none;stroke-width:2;stroke-linecap:butt;stroke-linejoin:miter;stroke:rgb(0%,0%,0%);stroke-opacity:1;stroke-miterlimit:4;" d="M 371.302083 196.098958 L 392.901042 209.697917 " transform="matrix(0.75,0,0,0.75,0,0)"/>
<path style="fill:none;stroke-width:2;stroke-linecap:butt;stroke-linejoin:miter;stroke:rgb(0%,0%,0%);stroke-opacity:1;stroke-miterlimit:4;" d="M 398.5 207.5 L 411.302083 202.302083 " transform="matrix(0.75,0,0,0.75,0,0)"/>
<path style="fill:none;stroke-width:2;stroke-linecap:butt;stroke-linejoin:miter;stroke:rgb(0%,0%,100%);stroke-opacity:1;stroke-miterlimit:4;" d="M 411.302083 202.302083 L 424.197917 197.197917 " transform="matrix(0.75,0,0,0.75,0,0)"/>
<path style="fill:none;stroke-width:2;stroke-linecap:butt;stroke-linejoin:miter;stroke:rgb(0%,0%,0%);stroke-opacity:1;stroke-miterlimit:4;" d="M 398.5 207.5 L 395.197917 220.401042 " transform="matrix(0.75,0,0,0.75,0,0)"/>
<path style="fill:none;stroke-width:2;stroke-linecap:butt;stroke-linejoin:miter;stroke:rgb(0%,0%,100%);stroke-opacity:1;stroke-miterlimit:4;" d="M 395.197917 220.401042 L 392 233.401042 " transform="matrix(0.75,0,0,0.75,0,0)"/>
<path style="fill:none;stroke-width:2;stroke-linecap:butt;stroke-linejoin:miter;stroke:rgb(0%,0%,100%);stroke-opacity:1;stroke-miterlimit:4;" d="M 395.098958 244.5 L 403.197917 254.302083 " transform="matrix(0.75,0,0,0.75,0,0)"/>
<path style="fill:none;stroke-width:2;stroke-linecap:butt;stroke-linejoin:miter;stroke:rgb(0%,0%,0%);stroke-opacity:1;stroke-miterlimit:4;" d="M 403.197917 254.302083 L 411.401042 264.098958 " transform="matrix(0.75,0,0,0.75,0,0)"/>
<path style="fill:none;stroke-width:2;stroke-linecap:butt;stroke-linejoin:miter;stroke:rgb(0%,0%,0%);stroke-opacity:1;stroke-miterlimit:4;" d="M 411.401042 264.098958 L 443.5 258.5 " transform="matrix(0.75,0,0,0.75,0,0)"/>
<path style="fill:none;stroke-width:2;stroke-linecap:butt;stroke-linejoin:miter;stroke:rgb(0%,0%,0%);stroke-opacity:1;stroke-miterlimit:4;" d="M 443.5 258.5 L 451.5 268.197917 " transform="matrix(0.75,0,0,0.75,0,0)"/>
<path style="fill:none;stroke-width:2;stroke-linecap:butt;stroke-linejoin:miter;stroke:rgb(100%,0%,0%);stroke-opacity:1;stroke-miterlimit:4;" d="M 451.5 268.197917 L 459.598958 277.802083 " transform="matrix(0.75,0,0,0.75,0,0)"/>
<path style="fill:none;stroke-width:2;stroke-linecap:butt;stroke-linejoin:miter;stroke:rgb(0%,0%,0%);stroke-opacity:1;stroke-miterlimit:4;" d="M 308.098958 267.598958 L 292.901042 238.802083 " transform="matrix(0.75,0,0,0.75,0,0)"/>
<path style="fill:none;stroke-width:2;stroke-linecap:butt;stroke-linejoin:miter;stroke:rgb(0%,0%,0%);stroke-opacity:1;stroke-miterlimit:4;" d="M 292.901042 238.802083 L 278.598958 238.197917 " transform="matrix(0.75,0,0,0.75,0,0)"/>
<path style="fill:none;stroke-width:2;stroke-linecap:butt;stroke-linejoin:miter;stroke:rgb(80%,80%,0%);stroke-opacity:1;stroke-miterlimit:4;" d="M 278.598958 238.197917 L 264.401042 237.697917 " transform="matrix(0.75,0,0,0.75,0,0)"/>
<path style="fill:none;stroke-width:2;stroke-linecap:butt;stroke-linejoin:miter;stroke:rgb(80%,80%,0%);stroke-opacity:1;stroke-miterlimit:4;" d="M 256.598958 243.5 L 249.802083 254.302083 " transform="matrix(0.75,0,0,0.75,0,0)"/>
<path style="fill:none;stroke-width:2;stroke-linecap:butt;stroke-linejoin:miter;stroke:rgb(0%,0%,0%);stroke-opacity:1;stroke-miterlimit:4;" d="M 249.802083 254.302083 L 243 265.098958 " transform="matrix(0.75,0,0,0.75,0,0)"/>
<path style="fill:none;stroke-width:2;stroke-linecap:butt;stroke-linejoin:miter;stroke:rgb(0%,0%,0%);stroke-opacity:1;stroke-miterlimit:4;" d="M 144.598958 229.302083 L 120.697917 251.5 " transform="matrix(0.75,0,0,0.75,0,0)"/>
<path style="fill:none;stroke-width:2;stroke-linecap:butt;stroke-linejoin:miter;stroke:rgb(0%,0%,0%);stroke-opacity:1;stroke-miterlimit:4;" d="M 120.697917 251.5 L 124.598958 283.802083 " transform="matrix(0.75,0,0,0.75,0,0)"/>
<path style="fill:none;stroke-width:2;stroke-linecap:butt;stroke-linejoin:miter;stroke:rgb(0%,0%,0%);stroke-opacity:1;stroke-miterlimit:4;" d="M 116.302083 255.598958 L 119.302083 280.901042 " transform="matrix(0.75,0,0,0.75,0,0)"/>
<path style="fill:none;stroke-width:2;stroke-linecap:butt;stroke-linejoin:miter;stroke:rgb(0%,0%,0%);stroke-opacity:1;stroke-miterlimit:4;" d="M 124.598958 283.802083 L 111.901042 289.697917 " transform="matrix(0.75,0,0,0.75,0,0)"/>
<path style="fill:none;stroke-width:2;stroke-linecap:butt;stroke-linejoin:miter;stroke:rgb(80%,80%,0%);stroke-opacity:1;stroke-miterlimit:4;" d="M 111.901042 289.697917 L 99.098958 295.598958 " transform="matrix(0.75,0,0,0.75,0,0)"/>
<path style="fill:none;stroke-width:2;stroke-linecap:butt;stroke-linejoin:miter;stroke:rgb(80%,80%,0%);stroke-opacity:1;stroke-miterlimit:4;" d="M 91 293.197917 L 82 283.401042 " transform="matrix(0.75,0,0,0.75,0,0)"/>
<path style="fill:none;stroke-width:2;stroke-linecap:butt;stroke-linejoin:miter;stroke:rgb(0%,0%,0%);stroke-opacity:1;stroke-miterlimit:4;" d="M 82 283.401042 L 72.901042 273.598958 " transform="matrix(0.75,0,0,0.75,0,0)"/>
<path style="fill:none;stroke-width:2;stroke-linecap:butt;stroke-linejoin:miter;stroke:rgb(0%,0%,0%);stroke-opacity:1;stroke-miterlimit:4;" d="M 72.901042 273.598958 L 59 275.302083 " transform="matrix(0.75,0,0,0.75,0,0)"/>
<path style="fill:none;stroke-width:2;stroke-linecap:butt;stroke-linejoin:miter;stroke:rgb(0%,0%,100%);stroke-opacity:1;stroke-miterlimit:4;" d="M 59 275.302083 L 45.098958 276.901042 " transform="matrix(0.75,0,0,0.75,0,0)"/>
<path style="fill:none;stroke-width:2;stroke-linecap:butt;stroke-linejoin:miter;stroke:rgb(0%,0%,0%);stroke-opacity:1;stroke-miterlimit:4;" d="M 72.901042 273.598958 L 79.197917 262.197917 " transform="matrix(0.75,0,0,0.75,0,0)"/>
<path style="fill:none;stroke-width:2;stroke-linecap:butt;stroke-linejoin:miter;stroke:rgb(0%,0%,100%);stroke-opacity:1;stroke-miterlimit:4;" d="M 79.197917 262.197917 L 85.598958 250.802083 " transform="matrix(0.75,0,0,0.75,0,0)"/>
<path style="fill:none;stroke-width:2;stroke-linecap:butt;stroke-linejoin:miter;stroke:rgb(0%,0%,0%);stroke-opacity:1;stroke-miterlimit:4;" d="M 78.901042 272.901042 L 84.401042 263.098958 " transform="matrix(0.75,0,0,0.75,0,0)"/>
<path style="fill:none;stroke-width:2;stroke-linecap:butt;stroke-linejoin:miter;stroke:rgb(0%,0%,100%);stroke-opacity:1;stroke-miterlimit:4;" d="M 84.401042 263.098958 L 89.901042 253.197917 " transform="matrix(0.75,0,0,0.75,0,0)"/>
<path style="fill:none;stroke-width:2;stroke-linecap:butt;stroke-linejoin:miter;stroke:rgb(0%,0%,0%);stroke-opacity:1;stroke-miterlimit:4;" d="M 243 265.098958 L 214.197917 280.302083 " transform="matrix(0.75,0,0,0.75,0,0)"/>
<path style="fill:none;stroke-width:2;stroke-linecap:butt;stroke-linejoin:miter;stroke:rgb(0%,0%,100%);stroke-opacity:1;stroke-miterlimit:4;" d="M 93.401042 246.098958 L 107.098958 248.802083 " transform="matrix(0.75,0,0,0.75,0,0)"/>
<path style="fill:none;stroke-width:2;stroke-linecap:butt;stroke-linejoin:miter;stroke:rgb(0%,0%,0%);stroke-opacity:1;stroke-miterlimit:4;" d="M 107.098958 248.802083 L 120.697917 251.5 " transform="matrix(0.75,0,0,0.75,0,0)"/>
<path style="fill:none;stroke-width:2;stroke-linecap:butt;stroke-linejoin:miter;stroke:rgb(0%,0%,0%);stroke-opacity:1;stroke-miterlimit:4;" d="M 243 265.098958 L 249.098958 276.697917 " transform="matrix(0.75,0,0,0.75,0,0)"/>
<path style="fill:none;stroke-width:2;stroke-linecap:butt;stroke-linejoin:miter;stroke:rgb(0%,0%,100%);stroke-opacity:1;stroke-miterlimit:4;" d="M 249.098958 276.697917 L 255.197917 288.197917 " transform="matrix(0.75,0,0,0.75,0,0)"/>
<path style="fill:none;stroke-width:2;stroke-linecap:butt;stroke-linejoin:miter;stroke:rgb(0%,0%,100%);stroke-opacity:1;stroke-miterlimit:4;" d="M 386 239.401042 L 368.302083 240.5 " transform="matrix(0.75,0,0,0.75,0,0)"/>
<path style="fill:none;stroke-width:1;stroke-linecap:butt;stroke-linejoin:miter;stroke:rgb(0%,0%,0%);stroke-opacity:1;stroke-miterlimit:4;" d="M 240.401042 262.802083 L 240.901042 262.401042 " transform="matrix(0.75,0,0,0.75,0,0)"/>
<path style="fill:none;stroke-width:1;stroke-linecap:butt;stroke-linejoin:miter;stroke:rgb(0%,0%,0%);stroke-opacity:1;stroke-miterlimit:4;" d="M 237.802083 260.5 L 238.802083 259.598958 " transform="matrix(0.75,0,0,0.75,0,0)"/>
<path style="fill:none;stroke-width:1;stroke-linecap:butt;stroke-linejoin:miter;stroke:rgb(0%,0%,0%);stroke-opacity:1;stroke-miterlimit:4;" d="M 235.197917 258.302083 L 236.697917 256.802083 " transform="matrix(0.75,0,0,0.75,0,0)"/>
<path style="fill:none;stroke-width:1;stroke-linecap:butt;stroke-linejoin:miter;stroke:rgb(0%,0%,0%);stroke-opacity:1;stroke-miterlimit:4;" d="M 232.598958 256 L 234.598958 254.098958 " transform="matrix(0.75,0,0,0.75,0,0)"/>
<path style="fill:none;stroke-width:1;stroke-linecap:butt;stroke-linejoin:miter;stroke:rgb(0%,0%,0%);stroke-opacity:1;stroke-miterlimit:4;" d="M 230 253.697917 L 232.5 251.302083 " transform="matrix(0.75,0,0,0.75,0,0)"/>
<path style="fill:none;stroke-width:1;stroke-linecap:butt;stroke-linejoin:miter;stroke:rgb(0%,0%,0%);stroke-opacity:1;stroke-miterlimit:4;" d="M 227.401042 251.401042 L 230.5 248.5 " transform="matrix(0.75,0,0,0.75,0,0)"/>
<path style="fill:none;stroke-width:1;stroke-linecap:butt;stroke-linejoin:miter;stroke:rgb(0%,0%,0%);stroke-opacity:1;stroke-miterlimit:4;" d="M 224.802083 249.098958 L 228.401042 245.802083 " transform="matrix(0.75,0,0,0.75,0,0)"/>
<path style="fill:none;stroke-width:2;stroke-linecap:butt;stroke-linejoin:miter;stroke:rgb(0%,0%,0%);stroke-opacity:1;stroke-miterlimit:4;" d="M 174.197917 238.5 L 175.802083 238.901042 L 175.901042 239.598958 " transform="matrix(0.75,0,0,0.75,0,0)"/>
<path style="fill:none;stroke-width:2;stroke-linecap:butt;stroke-linejoin:miter;stroke:rgb(0%,0%,0%);stroke-opacity:1;stroke-miterlimit:4;" d="M 214.901042 281.802083 L 214.197917 280.302083 L 215.598958 279.598958 " transform="matrix(0.75,0,0,0.75,0,0)"/>
<path style="fill:none;stroke-width:2;stroke-linecap:butt;stroke-linejoin:miter;stroke:rgb(0%,0%,0%);stroke-opacity:1;stroke-miterlimit:4;" d="M 228.598958 307.697917 L 229.401042 309.098958 L 230 308.802083 " transform="matrix(0.75,0,0,0.75,0,0)"/>
<path style="fill:none;stroke-width:2;stroke-linecap:butt;stroke-linejoin:miter;stroke:rgb(0%,0%,0%);stroke-opacity:1;stroke-miterlimit:4;" d="M 305.197917 322.5 L 306 324 L 305.598958 324.5 " transform="matrix(0.75,0,0,0.75,0,0)"/>
<path style="fill:none;stroke-width:2;stroke-linecap:butt;stroke-linejoin:miter;stroke:rgb(0%,0%,0%);stroke-opacity:1;stroke-miterlimit:4;" d="M 339 268.802083 L 340.697917 268.802083 L 341 268.302083 " transform="matrix(0.75,0,0,0.75,0,0)"/>
<path style="fill:none;stroke-width:2;stroke-linecap:butt;stroke-linejoin:miter;stroke:rgb(0%,0%,0%);stroke-opacity:1;stroke-miterlimit:4;" d="M 346.098958 211.598958 L 345.901042 211 L 347.098958 209.901042 " transform="matrix(0.75,0,0,0.75,0,0)"/>
<path style="fill:none;stroke-width:2;stroke-linecap:butt;stroke-linejoin:miter;stroke:rgb(0%,0%,0%);stroke-opacity:1;stroke-miterlimit:4;" d="M 369.697917 191.197917 L 370.901042 190.098958 L 372.302083 191 " transform="matrix(0.75,0,0,0.75,0,0)"/>
<path style="fill:none;stroke-width:2;stroke-linecap:butt;stroke-linejoin:miter;stroke:rgb(0%,0%,0%);stroke-opacity:1;stroke-miterlimit:4;" d="M 411 263.598958 L 411.401042 264.098958 L 413 263.802083 " transform="matrix(0.75,0,0,0.75,0,0)"/>
<path style="fill:none;stroke-width:2;stroke-linecap:butt;stroke-linejoin:miter;stroke:rgb(0%,0%,0%);stroke-opacity:1;stroke-miterlimit:4;" d="M 441.901042 258.802083 L 443.5 258.5 L 443.901042 259 " transform="matrix(0.75,0,0,0.75,0,0)"/>
<path style="fill:none;stroke-width:2;stroke-linecap:butt;stroke-linejoin:miter;stroke:rgb(0%,0%,0%);stroke-opacity:1;stroke-miterlimit:4;" d="M 293.598958 240.197917 L 292.901042 238.802083 L 292.197917 238.697917 " transform="matrix(0.75,0,0,0.75,0,0)"/>
<path style="fill:none;stroke-width:2;stroke-linecap:butt;stroke-linejoin:miter;stroke:rgb(0%,0%,0%);stroke-opacity:1;stroke-miterlimit:4;" d="M 124.401042 282.197917 L 124.598958 283.802083 L 124 284.098958 " transform="matrix(0.75,0,0,0.75,0,0)"/>
<path style=" stroke:none;fill-rule:nonzero;fill:rgb(100%,0%,0%);fill-opacity:1;" d="M 117.824219 131.550781 C 117.824219 130.449219 118.101562 129.601562 118.648438 129 C 119.199219 128.351562 119.976562 128.023438 120.976562 128.023438 C 122.023438 128.023438 122.824219 128.351562 123.375 129 C 123.875 129.601562 124.125 130.449219 124.125 131.550781 C 124.125 132.699219 123.851562 133.574219 123.300781 134.175781 C 122.75 134.824219 121.976562 135.148438 120.976562 135.148438 C 119.976562 135.148438 119.199219 134.824219 118.648438 134.175781 C 118.101562 133.574219 117.824219 132.699219 117.824219 131.550781 M 120.976562 134.398438 C 121.675781 134.398438 122.226562 134.148438 122.625 133.648438 C 122.976562 133.199219 123.148438 132.5 123.148438 131.550781 C 123.148438 130.648438 122.976562 129.976562 122.625 129.523438 C 122.226562 129.074219 121.675781 128.851562 120.976562 128.851562 C 120.273438 128.851562 119.726562 129.074219 119.324219 129.523438 C 118.976562 129.976562 118.800781 130.648438 118.800781 131.550781 C 118.800781 132.5 118.976562 133.199219 119.324219 133.648438 C 119.726562 134.148438 120.273438 134.398438 120.976562 134.398438 "/>
<path style=" stroke:none;fill-rule:nonzero;fill:rgb(0%,0%,100%);fill-opacity:1;" d="M 101.550781 144.675781 L 103.800781 148.351562 C 103.949219 148.601562 104.148438 148.949219 104.398438 149.398438 C 104.648438 149.800781 104.773438 150.023438 104.773438 150.074219 L 104.773438 144.675781 L 105.675781 144.675781 L 105.675781 151.648438 L 104.699219 151.648438 L 102.300781 147.601562 C 102.101562 147.300781 101.898438 146.976562 101.699219 146.625 C 101.5 146.273438 101.375 146.023438 101.324219 145.875 L 101.324219 151.648438 L 100.425781 151.648438 L 100.425781 144.675781 L 101.550781 144.675781 "/>
<path style=" stroke:none;fill-rule:nonzero;fill:rgb(100%,0%,0%);fill-opacity:1;" d="M 146.550781 162.601562 C 146.550781 161.5 146.824219 160.648438 147.375 160.050781 C 147.925781 159.398438 148.726562 159.074219 149.773438 159.074219 C 150.773438 159.074219 151.550781 159.398438 152.101562 160.050781 C 152.648438 160.648438 152.925781 161.5 152.925781 162.601562 C 152.925781 163.75 152.648438 164.625 152.101562 165.226562 C 151.550781 165.875 150.773438 166.199219 149.773438 166.199219 C 148.726562 166.199219 147.925781 165.875 147.375 165.226562 C 146.824219 164.625 146.550781 163.75 146.550781 162.601562 M 149.773438 165.449219 C 150.476562 165.449219 151 165.199219 151.351562 164.699219 C 151.75 164.25 151.949219 163.550781 151.949219 162.601562 C 151.949219 161.699219 151.75 161.023438 151.351562 160.574219 C 151 160.125 150.476562 159.898438 149.773438 159.898438 C 149.074219 159.898438 148.523438 160.125 148.125 160.574219 C 147.726562 161.023438 147.523438 161.699219 147.523438 162.601562 C 147.523438 163.550781 147.726562 164.25 148.125 164.699219 C 148.523438 165.199219 149.074219 165.449219 149.773438 165.449219 "/>
<path style=" stroke:none;fill-rule:nonzero;fill:rgb(0%,0%,100%);fill-opacity:1;" d="M 127.875 199.574219 L 128.773438 199.574219 L 128.773438 202.5 L 132.300781 202.5 L 132.300781 199.574219 L 133.273438 199.574219 L 133.273438 206.476562 L 132.300781 206.476562 L 132.300781 203.324219 L 128.773438 203.324219 L 128.773438 206.476562 L 127.875 206.476562 L 127.875 199.574219 "/>
<path style=" stroke:none;fill-rule:nonzero;fill:rgb(0%,0%,100%);fill-opacity:1;" d="M 135.75 199.574219 L 138 203.25 C 138.148438 203.5 138.351562 203.824219 138.601562 204.226562 C 138.851562 204.675781 138.976562 204.925781 138.976562 204.976562 L 138.976562 199.574219 L 139.875 199.574219 L 139.875 206.476562 L 138.976562 206.476562 L 136.5 202.5 C 136.300781 202.199219 136.101562 201.851562 135.898438 201.449219 C 135.699219 201.101562 135.574219 200.875 135.523438 200.773438 L 135.523438 206.476562 L 134.625 206.476562 L 134.625 199.574219 L 135.75 199.574219 "/>
<path style=" stroke:none;fill-rule:nonzero;fill:rgb(100%,0%,0%);fill-opacity:1;" d="M 161.625 255.226562 C 161.625 254.125 161.898438 253.273438 162.449219 252.675781 C 163 252.023438 163.773438 251.699219 164.773438 251.699219 C 165.824219 251.699219 166.625 252.023438 167.175781 252.675781 C 167.726562 253.273438 168 254.125 168 255.226562 C 168 256.375 167.726562 257.25 167.175781 257.851562 C 166.625 258.5 165.824219 258.824219 164.773438 258.824219 C 163.773438 258.824219 163 258.5 162.449219 257.851562 C 161.898438 257.25 161.625 256.375 161.625 255.226562 M 164.773438 258.074219 C 165.523438 258.074219 166.074219 257.824219 166.425781 257.324219 C 166.824219 256.875 167.023438 256.175781 167.023438 255.226562 C 167.023438 254.324219 166.824219 253.648438 166.425781 253.199219 C 166.074219 252.75 165.523438 252.523438 164.773438 252.523438 C 164.074219 252.523438 163.550781 252.75 163.199219 253.199219 C 162.800781 253.648438 162.601562 254.324219 162.601562 255.226562 C 162.601562 256.175781 162.800781 256.875 163.199219 257.324219 C 163.550781 257.824219 164.074219 258.074219 164.773438 258.074219 "/>
<path style=" stroke:none;fill-rule:nonzero;fill:rgb(0%,0%,100%);fill-opacity:1;" d="M 192.074219 216.976562 L 194.398438 220.648438 C 194.550781 220.898438 194.726562 221.25 194.925781 221.699219 C 195.175781 222.101562 195.324219 222.324219 195.375 222.375 L 195.375 216.976562 L 196.273438 216.976562 L 196.273438 223.949219 L 195.300781 223.949219 L 192.898438 219.898438 C 192.699219 219.601562 192.5 219.273438 192.300781 218.925781 C 192.101562 218.523438 191.976562 218.273438 191.925781 218.175781 L 191.925781 223.949219 L 191.023438 223.949219 L 191.023438 216.976562 L 192.074219 216.976562 "/>
<path style=" stroke:none;fill-rule:nonzero;fill:rgb(100%,0%,0%);fill-opacity:1;" d="M 250.726562 243.976562 C 250.726562 242.824219 251 241.949219 251.550781 241.351562 C 252.101562 240.75 252.875 240.449219 253.875 240.449219 C 254.925781 240.449219 255.726562 240.75 256.273438 241.351562 C 256.824219 241.949219 257.101562 242.824219 257.101562 243.976562 C 257.101562 245.074219 256.824219 245.949219 256.273438 246.601562 C 255.675781 247.199219 254.875 247.5 253.875 247.5 C 252.875 247.5 252.101562 247.199219 251.550781 246.601562 C 251 245.949219 250.726562 245.074219 250.726562 243.976562 M 253.875 246.75 C 254.574219 246.75 255.125 246.523438 255.523438 246.074219 C 255.925781 245.574219 256.125 244.875 256.125 243.976562 C 256.125 243.023438 255.925781 242.324219 255.523438 241.875 C 255.125 241.425781 254.574219 241.199219 253.875 241.199219 C 253.175781 241.199219 252.625 241.425781 252.226562 241.875 C 251.875 242.324219 251.699219 243.023438 251.699219 243.976562 C 251.699219 244.875 251.875 245.574219 252.226562 246.074219 C 252.625 246.523438 253.175781 246.75 253.875 246.75 "/>
<path style=" stroke:none;fill-rule:nonzero;fill:rgb(100%,0%,0%);fill-opacity:1;" d="M 213.300781 263.699219 C 213.300781 262.601562 213.574219 261.726562 214.125 261.074219 C 214.675781 260.476562 215.449219 260.175781 216.449219 260.175781 C 217.5 260.175781 218.273438 260.476562 218.773438 261.074219 C 219.324219 261.726562 219.601562 262.601562 219.601562 263.699219 C 219.601562 264.800781 219.324219 265.675781 218.773438 266.324219 C 218.226562 266.976562 217.449219 267.300781 216.449219 267.300781 C 215.449219 267.300781 214.675781 266.976562 214.125 266.324219 C 213.574219 265.726562 213.300781 264.851562 213.300781 263.699219 M 216.449219 266.476562 C 217.148438 266.476562 217.699219 266.25 218.101562 265.800781 C 218.449219 265.351562 218.625 264.648438 218.625 263.699219 C 218.625 262.800781 218.449219 262.125 218.101562 261.675781 C 217.699219 261.226562 217.148438 261 216.449219 261 C 215.75 261 215.199219 261.226562 214.800781 261.675781 C 214.449219 262.125 214.273438 262.800781 214.273438 263.699219 C 214.273438 264.648438 214.449219 265.351562 214.800781 265.800781 C 215.199219 266.25 215.75 266.476562 216.449219 266.476562 "/>
<path style=" stroke:none;fill-rule:nonzero;fill:rgb(100%,0%,0%);fill-opacity:1;" d="M 220.648438 261.300781 L 222.976562 261.300781 L 222.976562 261.824219 L 220.648438 261.824219 L 220.648438 261.300781 "/>
<path style=" stroke:none;fill-rule:nonzero;fill:rgb(0%,0%,100%);fill-opacity:1;" d="M 267 177.449219 L 269.25 181.125 C 269.398438 181.375 269.601562 181.726562 269.851562 182.175781 C 270.101562 182.574219 270.226562 182.800781 270.226562 182.851562 L 270.226562 177.449219 L 271.125 177.449219 L 271.125 184.425781 L 270.148438 184.425781 L 267.75 180.375 C 267.550781 180.074219 267.351562 179.75 267.148438 179.398438 C 266.949219 179 266.824219 178.75 266.773438 178.648438 L 266.773438 184.425781 L 265.875 184.425781 L 265.875 177.449219 L 267 177.449219 "/>
<path style=" stroke:none;fill-rule:nonzero;fill:rgb(0%,0%,100%);fill-opacity:1;" d="M 272.398438 178.726562 L 273.675781 178.726562 L 273.675781 177.449219 L 274.199219 177.449219 L 274.199219 178.726562 L 275.476562 178.726562 L 275.476562 179.175781 L 274.199219 179.175781 L 274.199219 180.449219 L 273.675781 180.449219 L 273.675781 179.175781 L 272.398438 179.175781 L 272.398438 178.726562 "/>
<path style=" stroke:none;fill-rule:nonzero;fill:rgb(0%,0%,100%);fill-opacity:1;" d="M 320.023438 143.023438 L 322.273438 146.699219 C 322.425781 146.949219 322.625 147.300781 322.875 147.75 C 323.125 148.199219 323.25 148.425781 323.25 148.425781 L 323.25 143.023438 L 324.226562 143.023438 L 324.226562 150 L 323.25 150 L 320.773438 145.949219 C 320.625 145.648438 320.449219 145.324219 320.25 144.976562 C 320.050781 144.625 319.925781 144.375 319.875 144.226562 L 319.875 150 L 318.976562 150 L 318.976562 143.023438 L 320.023438 143.023438 "/>
<path style=" stroke:none;fill-rule:nonzero;fill:rgb(0%,0%,100%);fill-opacity:1;" d="M 325.5 143.023438 L 326.476562 143.023438 L 326.476562 146.023438 L 330 146.023438 L 330 143.023438 L 330.898438 143.023438 L 330.898438 150 L 330 150 L 330 146.773438 L 326.476562 146.773438 L 326.476562 150 L 325.5 150 L 325.5 143.023438 "/>
<path style=" stroke:none;fill-rule:nonzero;fill:rgb(0%,0%,100%);fill-opacity:1;" d="M 332.25 149.699219 C 332.398438 149.449219 332.601562 149.226562 332.851562 149.023438 C 333.101562 148.875 333.425781 148.800781 333.824219 148.800781 C 334.273438 148.800781 334.625 148.925781 334.875 149.175781 C 335.125 149.425781 335.25 149.773438 335.25 150.226562 C 335.25 150.675781 335.101562 151.125 334.800781 151.574219 C 334.449219 151.976562 333.925781 152.425781 333.226562 152.925781 L 335.324219 152.925781 L 335.324219 153.449219 L 332.25 153.449219 L 332.25 153 C 332.851562 152.601562 333.300781 152.25 333.601562 151.949219 C 333.949219 151.648438 334.199219 151.351562 334.351562 151.050781 C 334.550781 150.800781 334.648438 150.523438 334.648438 150.226562 C 334.648438 149.976562 334.574219 149.75 334.425781 149.550781 C 334.273438 149.398438 334.074219 149.324219 333.824219 149.324219 C 333.574219 149.324219 333.375 149.375 333.226562 149.476562 C 333.023438 149.574219 332.875 149.726562 332.773438 149.925781 L 332.25 149.699219 "/>
<path style=" stroke:none;fill-rule:nonzero;fill:rgb(0%,0%,100%);fill-opacity:1;" d="M 291.375 175.800781 L 293.625 179.476562 C 293.773438 179.726562 293.976562 180.074219 294.226562 180.523438 C 294.476562 180.976562 294.601562 181.199219 294.601562 181.199219 L 294.601562 175.800781 L 295.5 175.800781 L 295.5 182.773438 L 294.601562 182.773438 L 292.125 178.726562 C 291.925781 178.425781 291.726562 178.101562 291.523438 177.75 C 291.324219 177.398438 291.199219 177.175781 291.148438 177.074219 L 291.148438 182.773438 L 290.25 182.773438 L 290.25 175.800781 L 291.375 175.800781 "/>
<path style=" stroke:none;fill-rule:nonzero;fill:rgb(100%,0%,0%);fill-opacity:1;" d="M 345.074219 212.699219 C 345.074219 211.601562 345.351562 210.726562 345.898438 210.074219 C 346.449219 209.476562 347.25 209.175781 348.300781 209.175781 C 349.300781 209.175781 350.074219 209.476562 350.625 210.074219 C 351.175781 210.726562 351.449219 211.601562 351.449219 212.699219 C 351.449219 213.800781 351.175781 214.675781 350.625 215.324219 C 350.074219 215.976562 349.300781 216.300781 348.300781 216.300781 C 347.25 216.300781 346.449219 215.976562 345.898438 215.324219 C 345.351562 214.675781 345.074219 213.800781 345.074219 212.699219 M 348.300781 215.476562 C 349 215.476562 349.523438 215.25 349.875 214.800781 C 350.273438 214.300781 350.476562 213.601562 350.476562 212.699219 C 350.476562 211.800781 350.273438 211.125 349.875 210.675781 C 349.523438 210.175781 349 209.925781 348.300781 209.925781 C 347.601562 209.925781 347.050781 210.148438 346.648438 210.601562 C 346.25 211.101562 346.050781 211.800781 346.050781 212.699219 C 346.050781 213.601562 346.25 214.300781 346.648438 214.800781 C 347.050781 215.25 347.601562 215.476562 348.300781 215.476562 "/>
<path style=" stroke:none;fill-rule:nonzero;fill:rgb(100%,0%,0%);fill-opacity:1;" d="M 352.574219 209.25 L 353.476562 209.25 L 353.476562 212.175781 L 357 212.175781 L 357 209.25 L 357.976562 209.25 L 357.976562 216.148438 L 357 216.148438 L 357 213 L 353.476562 213 L 353.476562 216.148438 L 352.574219 216.148438 L 352.574219 209.25 "/>
<path style=" stroke:none;fill-rule:nonzero;fill:rgb(80%,80%,0%);fill-opacity:1;" d="M 193.273438 180.523438 C 193.324219 180.523438 193.449219 180.574219 193.648438 180.675781 C 193.898438 180.773438 194.125 180.851562 194.324219 180.898438 C 194.574219 180.949219 194.824219 180.976562 195.074219 180.976562 C 195.523438 180.976562 195.875 180.875 196.125 180.675781 C 196.375 180.476562 196.5 180.175781 196.5 179.773438 C 196.5 179.523438 196.425781 179.324219 196.273438 179.175781 C 196.175781 179.023438 196.023438 178.898438 195.824219 178.800781 C 195.625 178.75 195.351562 178.675781 195 178.574219 C 194.601562 178.425781 194.273438 178.300781 194.023438 178.199219 C 193.773438 178.101562 193.574219 177.925781 193.425781 177.675781 C 193.273438 177.425781 193.199219 177.074219 193.199219 176.625 C 193.199219 176.074219 193.375 175.625 193.726562 175.273438 C 194.125 174.875 194.726562 174.675781 195.523438 174.675781 C 196.074219 174.675781 196.648438 174.800781 197.25 175.050781 L 197.023438 175.800781 C 196.476562 175.601562 195.976562 175.5 195.523438 175.5 C 195.074219 175.5 194.726562 175.601562 194.476562 175.800781 C 194.226562 175.949219 194.125 176.199219 194.175781 176.550781 C 194.175781 176.800781 194.226562 177 194.324219 177.148438 C 194.476562 177.300781 194.625 177.398438 194.773438 177.449219 C 194.976562 177.550781 195.226562 177.648438 195.523438 177.75 C 195.976562 177.898438 196.324219 178.023438 196.574219 178.125 C 196.824219 178.273438 197.023438 178.476562 197.175781 178.726562 C 197.375 178.976562 197.476562 179.324219 197.476562 179.773438 C 197.476562 180.425781 197.25 180.925781 196.800781 181.273438 C 196.398438 181.625 195.851562 181.800781 195.148438 181.800781 C 194.699219 181.800781 194.324219 181.75 194.023438 181.648438 C 193.726562 181.550781 193.398438 181.425781 193.050781 181.273438 L 193.273438 180.523438 "/>
<path style=" stroke:none;fill-rule:nonzero;fill:rgb(80%,80%,0%);fill-opacity:1;" d="M 69.300781 225.523438 C 69.351562 225.523438 69.5 225.574219 69.75 225.675781 C 69.949219 225.773438 70.175781 225.851562 70.425781 225.898438 C 70.675781 225.949219 70.898438 225.976562 71.101562 225.976562 C 71.550781 225.976562 71.898438 225.875 72.148438 225.675781 C 72.398438 225.476562 72.523438 225.175781 72.523438 224.773438 C 72.523438 224.523438 72.476562 224.324219 72.375 224.175781 C 72.226562 224.023438 72.050781 223.898438 71.851562 223.800781 C 71.648438 223.699219 71.398438 223.601562 71.101562 223.5 C 70.699219 223.398438 70.375 223.300781 70.125 223.199219 C 69.875 223.050781 69.648438 222.851562 69.449219 222.601562 C 69.300781 222.351562 69.226562 222.023438 69.226562 221.625 C 69.226562 221.023438 69.425781 220.550781 69.824219 220.199219 C 70.226562 219.851562 70.800781 219.675781 71.550781 219.675781 C 72.101562 219.675781 72.675781 219.800781 73.273438 220.050781 L 73.050781 220.800781 C 72.5 220.601562 72.023438 220.5 71.625 220.5 C 71.175781 220.5 70.824219 220.574219 70.574219 220.726562 C 70.324219 220.925781 70.199219 221.175781 70.199219 221.476562 C 70.199219 221.726562 70.25 221.925781 70.351562 222.074219 C 70.5 222.226562 70.675781 222.351562 70.875 222.449219 C 71.023438 222.550781 71.273438 222.648438 71.625 222.75 C 72.023438 222.851562 72.351562 222.976562 72.601562 223.125 C 72.851562 223.273438 73.050781 223.476562 73.199219 223.726562 C 73.398438 223.976562 73.5 224.324219 73.5 224.773438 C 73.5 225.425781 73.273438 225.925781 72.824219 226.273438 C 72.425781 226.625 71.875 226.800781 71.175781 226.800781 C 70.773438 226.800781 70.398438 226.75 70.050781 226.648438 C 69.75 226.550781 69.425781 226.425781 69.074219 226.273438 L 69.300781 225.523438 "/>
<path style=" stroke:none;fill-rule:nonzero;fill:rgb(0%,0%,100%);fill-opacity:1;" d="M 17.023438 204.675781 L 18 204.675781 L 18 207.601562 L 21.523438 207.601562 L 21.523438 204.675781 L 22.425781 204.675781 L 22.425781 211.574219 L 21.523438 211.574219 L 21.523438 208.351562 L 18 208.351562 L 18 211.574219 L 17.023438 211.574219 L 17.023438 204.675781 "/>
<path style=" stroke:none;fill-rule:nonzero;fill:rgb(0%,0%,100%);fill-opacity:1;" d="M 23.851562 211.351562 C 23.949219 211.050781 24.125 210.824219 24.375 210.675781 C 24.625 210.523438 24.949219 210.449219 25.351562 210.449219 C 25.800781 210.449219 26.148438 210.574219 26.398438 210.824219 C 26.648438 211.074219 26.773438 211.398438 26.773438 211.800781 C 26.773438 212.25 26.625 212.699219 26.324219 213.148438 C 25.976562 213.550781 25.449219 214 24.75 214.5 L 26.851562 214.5 L 26.851562 215.023438 L 23.773438 215.023438 L 23.773438 214.574219 C 24.375 214.175781 24.824219 213.824219 25.125 213.523438 C 25.476562 213.226562 25.75 212.949219 25.949219 212.699219 C 26.101562 212.398438 26.175781 212.125 26.175781 211.875 C 26.175781 211.574219 26.101562 211.351562 25.949219 211.199219 C 25.800781 211 25.601562 210.898438 25.351562 210.898438 C 25.101562 210.898438 24.898438 210.949219 24.75 211.050781 C 24.550781 211.148438 24.398438 211.324219 24.300781 211.574219 L 23.851562 211.351562 "/>
<path style=" stroke:none;fill-rule:nonzero;fill:rgb(0%,0%,100%);fill-opacity:1;" d="M 28.875 204.675781 L 31.125 208.351562 C 31.273438 208.550781 31.476562 208.875 31.726562 209.324219 C 31.976562 209.773438 32.101562 210 32.101562 210 L 32.101562 204.675781 L 33 204.675781 L 33 211.574219 L 32.101562 211.574219 L 29.625 207.601562 C 29.476562 207.25 29.273438 206.898438 29.023438 206.550781 C 28.875 206.199219 28.75 205.976562 28.648438 205.875 L 28.648438 211.574219 L 27.75 211.574219 L 27.75 204.675781 L 28.875 204.675781 "/>
<path style=" stroke:none;fill-rule:nonzero;fill:rgb(0%,0%,100%);fill-opacity:1;" d="M 65.023438 180.375 L 67.351562 184.050781 C 67.5 184.300781 67.675781 184.648438 67.875 185.101562 C 68.125 185.550781 68.273438 185.773438 68.324219 185.773438 L 68.324219 180.375 L 69.226562 180.375 L 69.226562 187.351562 L 68.25 187.351562 L 65.851562 183.300781 C 65.648438 183 65.449219 182.675781 65.25 182.324219 C 65.050781 181.976562 64.925781 181.726562 64.875 181.574219 L 64.875 187.351562 L 63.976562 187.351562 L 63.976562 180.375 L 65.023438 180.375 "/>
<path style=" stroke:none;fill-rule:nonzero;fill:rgb(0%,0%,0%);fill-opacity:1;" d="M 162.898438 177.449219 L 163.875 177.449219 L 163.875 180.375 L 167.398438 180.375 L 167.398438 177.449219 L 168.300781 177.449219 L 168.300781 184.351562 L 167.398438 184.351562 L 167.398438 181.199219 L 163.875 181.199219 L 163.875 184.351562 L 162.898438 184.351562 L 162.898438 177.449219 "/>
</g>
</svg>
