<?xml version="1.0" encoding="UTF-8"?>
<svg xmlns="http://www.w3.org/2000/svg" xmlns:xlink="http://www.w3.org/1999/xlink" width="375pt" height="375pt" viewBox="0 0 375 375" version="1.1">
<g id="surface271">
<rect x="0" y="0" width="375" height="375" style="fill:rgb(100%,100%,100%);fill-opacity:1;stroke:none;"/>
<path style="fill:none;stroke-width:2;stroke-linecap:butt;stroke-linejoin:miter;stroke:rgb(0%,0%,0%);stroke-opacity:1;stroke-miterlimit:4;" d="M 131.598958 149.901042 L 137.598958 162.901042 " transform="matrix(0.75,0,0,0.75,0,0)"/>
<path style="fill:none;stroke-width:2;stroke-linecap:butt;stroke-linejoin:miter;stroke:rgb(100%,0%,0%);stroke-opacity:1;stroke-miterlimit:4;" d="M 137.598958 162.901042 L 143.598958 175.901042 " transform="matrix(0.75,0,0,0.75,0,0)"/>
<path style="fill:none;stroke-width:2;stroke-linecap:butt;stroke-linejoin:miter;stroke:rgb(100%,0%,0%);stroke-opacity:1;stroke-miterlimit:4;" d="M 141.901042 188.598958 L 136.098958 196.802083 " transform="matrix(0.75,0,0,0.75,0,0)"/>
<path style="fill:none;stroke-width:2;stroke-linecap:butt;stroke-linejoin:miter;stroke:rgb(0%,0%,100%);stroke-opacity:1;stroke-miterlimit:4;" d="M 136.098958 196.802083 L 130.401042 205 " transform="matrix(0.75,0,0,0.75,0,0)"/>
<path style="fill:none;stroke-width:2;stroke-linecap:butt;stroke-linejoin:miter;stroke:rgb(0%,0%,100%);stroke-opacity:1;stroke-miterlimit:4;" d="M 128.802083 217.401042 L 134.802083 230.401042 " transform="matrix(0.75,0,0,0.75,0,0)"/>
<path style="fill:none;stroke-width:2;stroke-linecap:butt;stroke-linejoin:miter;stroke:rgb(0%,0%,0%);stroke-opacity:1;stroke-miterlimit:4;" d="M 134.802083 230.401042 L 140.901042 243.401042 " transform="matrix(0.75,0,0,0.75,0,0)"/>
<path style="fill:none;stroke-width:2;stroke-linecap:butt;stroke-linejoin:miter;stroke:rgb(0%,0%,100%);stroke-opacity:1;stroke-miterlimit:4;" d="M 137.098958 218.302083 L 141.302083 227.401042 " transform="matrix(0.75,0,0,0.75,0,0)"/>
<path style="fill:none;stroke-width:2;stroke-linecap:butt;stroke-linejoin:miter;stroke:rgb(0%,0%,0%);stroke-opacity:1;stroke-miterlimit:4;" d="M 141.302083 227.401042 L 145.5 236.5 " transform="matrix(0.75,0,0,0.75,0,0)"/>
<path style="fill:none;stroke-width:2;stroke-linecap:butt;stroke-linejoin:miter;stroke:rgb(0%,0%,0%);stroke-opacity:1;stroke-miterlimit:4;" d="M 140.901042 243.401042 L 176.197917 246.697917 " transform="matrix(0.75,0,0,0.75,0,0)"/>
<path style="fill:none;stroke-width:2;stroke-linecap:butt;stroke-linejoin:miter;stroke:rgb(0%,0%,0%);stroke-opacity:1;stroke-miterlimit:4;" d="M 173.302083 244.598958 L 181.302083 233.302083 " transform="matrix(0.75,0,0,0.75,0,0)"/>
<path style="fill:none;stroke-width:2;stroke-linecap:butt;stroke-linejoin:miter;stroke:rgb(100%,0%,0%);stroke-opacity:1;stroke-miterlimit:4;" d="M 181.302083 233.302083 L 189.302083 222 " transform="matrix(0.75,0,0,0.75,0,0)"/>
<path style="fill:none;stroke-width:2;stroke-linecap:butt;stroke-linejoin:miter;stroke:rgb(0%,0%,0%);stroke-opacity:1;stroke-miterlimit:4;" d="M 179.098958 248.697917 L 187.098958 237.401042 " transform="matrix(0.75,0,0,0.75,0,0)"/>
<path style="fill:none;stroke-width:2;stroke-linecap:butt;stroke-linejoin:miter;stroke:rgb(100%,0%,0%);stroke-opacity:1;stroke-miterlimit:4;" d="M 187.098958 237.401042 L 195.098958 226.098958 " transform="matrix(0.75,0,0,0.75,0,0)"/>
<path style="fill:none;stroke-width:2;stroke-linecap:butt;stroke-linejoin:miter;stroke:rgb(0%,0%,0%);stroke-opacity:1;stroke-miterlimit:4;" d="M 176.197917 246.697917 L 182.197917 259.697917 " transform="matrix(0.75,0,0,0.75,0,0)"/>
<path style="fill:none;stroke-width:2;stroke-linecap:butt;stroke-linejoin:miter;stroke:rgb(0%,0%,100%);stroke-opacity:1;stroke-miterlimit:4;" d="M 182.197917 259.697917 L 188.197917 272.697917 " transform="matrix(0.75,0,0,0.75,0,0)"/>
<path style="fill:none;stroke-width:2;stroke-linecap:butt;stroke-linejoin:miter;stroke:rgb(0%,0%,100%);stroke-opacity:1;stroke-miterlimit:4;" d="M 196.098958 279.401042 L 211.302083 280.802083 " transform="matrix(0.75,0,0,0.75,0,0)"/>
<path style="fill:none;stroke-width:2;stroke-linecap:butt;stroke-linejoin:miter;stroke:rgb(0%,0%,0%);stroke-opacity:1;stroke-miterlimit:4;" d="M 211.302083 280.802083 L 226.5 282.197917 " transform="matrix(0.75,0,0,0.75,0,0)"/>
<path style="fill:none;stroke-width:2;stroke-linecap:butt;stroke-linejoin:miter;stroke:rgb(0%,0%,0%);stroke-opacity:1;stroke-miterlimit:4;" d="M 226.5 282.197917 L 249.197917 309.5 " transform="matrix(0.75,0,0,0.75,0,0)"/>
<path style="fill:none;stroke-width:2;stroke-linecap:butt;stroke-linejoin:miter;stroke:rgb(0%,0%,0%);stroke-opacity:1;stroke-miterlimit:4;" d="M 252.697917 309.802083 L 251.401042 324.401042 " transform="matrix(0.75,0,0,0.75,0,0)"/>
<path style="fill:none;stroke-width:2;stroke-linecap:butt;stroke-linejoin:miter;stroke:rgb(100%,0%,0%);stroke-opacity:1;stroke-miterlimit:4;" d="M 251.401042 324.401042 L 250.098958 338.901042 " transform="matrix(0.75,0,0,0.75,0,0)"/>
<path style="fill:none;stroke-width:2;stroke-linecap:butt;stroke-linejoin:miter;stroke:rgb(0%,0%,0%);stroke-opacity:1;stroke-miterlimit:4;" d="M 245.697917 309.197917 L 244.302083 323.697917 " transform="matrix(0.75,0,0,0.75,0,0)"/>
<path style="fill:none;stroke-width:2;stroke-linecap:butt;stroke-linejoin:miter;stroke:rgb(100%,0%,0%);stroke-opacity:1;stroke-miterlimit:4;" d="M 244.302083 323.697917 L 243 338.302083 " transform="matrix(0.75,0,0,0.75,0,0)"/>
<path style="fill:none;stroke-width:2;stroke-linecap:butt;stroke-linejoin:miter;stroke:rgb(0%,0%,0%);stroke-opacity:1;stroke-miterlimit:4;" d="M 249.197917 309.5 L 260.401042 300.197917 " transform="matrix(0.75,0,0,0.75,0,0)"/>
<path style="fill:none;stroke-width:2;stroke-linecap:butt;stroke-linejoin:miter;stroke:rgb(0%,0%,100%);stroke-opacity:1;stroke-miterlimit:4;" d="M 260.401042 300.197917 L 271.5 290.901042 " transform="matrix(0.75,0,0,0.75,0,0)"/>
<path style="fill:none;stroke-width:2;stroke-linecap:butt;stroke-linejoin:miter;stroke:rgb(0%,0%,100%);stroke-opacity:1;stroke-miterlimit:4;" d="M 281.5 285.901042 L 296.5 283.302083 " transform="matrix(0.75,0,0,0.75,0,0)"/>
<path style="fill:none;stroke-width:2;stroke-linecap:butt;stroke-linejoin:miter;stroke:rgb(0%,0%,0%);stroke-opacity:1;stroke-miterlimit:4;" d="M 296.5 283.302083 L 311.5 280.697917 " transform="matrix(0.75,0,0,0.75,0,0)"/>
<path style="fill:none;stroke-width:2;stroke-linecap:butt;stroke-linejoin:miter;stroke:rgb(0%,0%,0%);stroke-opacity:1;stroke-miterlimit:4;" d="M 311.5 280.697917 L 334.302083 308.098958 " transform="matrix(0.75,0,0,0.75,0,0)"/>
<path style="fill:none;stroke-width:2;stroke-linecap:butt;stroke-linejoin:miter;stroke:rgb(0%,0%,0%);stroke-opacity:1;stroke-miterlimit:4;" d="M 333.598958 304.598958 L 348.302083 302 " transform="matrix(0.75,0,0,0.75,0,0)"/>
<path style="fill:none;stroke-width:2;stroke-linecap:butt;stroke-linejoin:miter;stroke:rgb(100%,0%,0%);stroke-opacity:1;stroke-miterlimit:4;" d="M 348.302083 302 L 362.901042 299.5 " transform="matrix(0.75,0,0,0.75,0,0)"/>
<path style="fill:none;stroke-width:2;stroke-linecap:butt;stroke-linejoin:miter;stroke:rgb(0%,0%,0%);stroke-opacity:1;stroke-miterlimit:4;" d="M 334.901042 311.598958 L 349.5 309 " transform="matrix(0.75,0,0,0.75,0,0)"/>
<path style="fill:none;stroke-width:2;stroke-linecap:butt;stroke-linejoin:miter;stroke:rgb(100%,0%,0%);stroke-opacity:1;stroke-miterlimit:4;" d="M 349.5 309 L 364.098958 306.5 " transform="matrix(0.75,0,0,0.75,0,0)"/>
<path style="fill:none;stroke-width:2;stroke-linecap:butt;stroke-linejoin:miter;stroke:rgb(0%,0%,0%);stroke-opacity:1;stroke-miterlimit:4;" d="M 334.302083 308.098958 L 329.302083 321.598958 " transform="matrix(0.75,0,0,0.75,0,0)"/>
<path style="fill:none;stroke-width:2;stroke-linecap:butt;stroke-linejoin:miter;stroke:rgb(100%,0%,0%);stroke-opacity:1;stroke-miterlimit:4;" d="M 329.302083 321.598958 L 324.302083 335.098958 " transform="matrix(0.75,0,0,0.75,0,0)"/>
<path style="fill:none;stroke-width:2;stroke-linecap:butt;stroke-linejoin:miter;stroke:rgb(0%,0%,0%);stroke-opacity:1;stroke-miterlimit:4;" d="M 311.5 280.697917 L 323.802083 247.401042 " transform="matrix(0.75,0,0,0.75,0,0)"/>
<path style="fill:none;stroke-width:2;stroke-linecap:butt;stroke-linejoin:miter;stroke:rgb(0%,0%,0%);stroke-opacity:1;stroke-miterlimit:4;" d="M 306.697917 273.302083 L 315.302083 250 " transform="matrix(0.75,0,0,0.75,0,0)"/>
<path style="fill:none;stroke-width:2;stroke-linecap:butt;stroke-linejoin:miter;stroke:rgb(0%,0%,0%);stroke-opacity:1;stroke-miterlimit:4;" d="M 323.802083 247.401042 L 358.802083 241.401042 " transform="matrix(0.75,0,0,0.75,0,0)"/>
<path style="fill:none;stroke-width:2;stroke-linecap:butt;stroke-linejoin:miter;stroke:rgb(0%,0%,0%);stroke-opacity:1;stroke-miterlimit:4;" d="M 358.802083 241.401042 L 368 252.401042 " transform="matrix(0.75,0,0,0.75,0,0)"/>
<path style="fill:none;stroke-width:2;stroke-linecap:butt;stroke-linejoin:miter;stroke:rgb(80%,80%,0%);stroke-opacity:1;stroke-miterlimit:4;" d="M 368 252.401042 L 377.197917 263.401042 " transform="matrix(0.75,0,0,0.75,0,0)"/>
<path style="fill:none;stroke-width:2;stroke-linecap:butt;stroke-linejoin:miter;stroke:rgb(80%,80%,0%);stroke-opacity:1;stroke-miterlimit:4;" d="M 386 267.901042 L 401.302083 265.302083 " transform="matrix(0.75,0,0,0.75,0,0)"/>
<path style="fill:none;stroke-width:2;stroke-linecap:butt;stroke-linejoin:miter;stroke:rgb(0%,0%,0%);stroke-opacity:1;stroke-miterlimit:4;" d="M 401.302083 265.302083 L 416.598958 262.697917 " transform="matrix(0.75,0,0,0.75,0,0)"/>
<path style="fill:none;stroke-width:2;stroke-linecap:butt;stroke-linejoin:miter;stroke:rgb(0%,0%,0%);stroke-opacity:1;stroke-miterlimit:4;" d="M 416.598958 262.697917 L 432.302083 230.802083 " transform="matrix(0.75,0,0,0.75,0,0)"/>
<path style="fill:none;stroke-width:2;stroke-linecap:butt;stroke-linejoin:miter;stroke:rgb(0%,0%,0%);stroke-opacity:1;stroke-miterlimit:4;" d="M 425.302083 261 L 436.302083 238.697917 " transform="matrix(0.75,0,0,0.75,0,0)"/>
<path style="fill:none;stroke-width:2;stroke-linecap:butt;stroke-linejoin:miter;stroke:rgb(0%,0%,0%);stroke-opacity:1;stroke-miterlimit:4;" d="M 432.302083 230.802083 L 447.401042 233 " transform="matrix(0.75,0,0,0.75,0,0)"/>
<path style="fill:none;stroke-width:2;stroke-linecap:butt;stroke-linejoin:miter;stroke:rgb(0%,0%,100%);stroke-opacity:1;stroke-miterlimit:4;" d="M 447.401042 233 L 462.401042 235.197917 " transform="matrix(0.75,0,0,0.75,0,0)"/>
<path style="fill:none;stroke-width:2;stroke-linecap:butt;stroke-linejoin:miter;stroke:rgb(0%,0%,100%);stroke-opacity:1;stroke-miterlimit:4;" d="M 468.5 242.098958 L 472.401042 264.697917 " transform="matrix(0.75,0,0,0.75,0,0)"/>
<path style="fill:none;stroke-width:2;stroke-linecap:butt;stroke-linejoin:miter;stroke:rgb(0%,0%,100%);stroke-opacity:1;stroke-miterlimit:4;" d="M 462.098958 246.697917 L 464.802083 262.5 " transform="matrix(0.75,0,0,0.75,0,0)"/>
<path style="fill:none;stroke-width:2;stroke-linecap:butt;stroke-linejoin:miter;stroke:rgb(0%,0%,100%);stroke-opacity:1;stroke-miterlimit:4;" d="M 468.5 273.5 L 457.401042 279.401042 " transform="matrix(0.75,0,0,0.75,0,0)"/>
<path style="fill:none;stroke-width:2;stroke-linecap:butt;stroke-linejoin:miter;stroke:rgb(80%,80%,0%);stroke-opacity:1;stroke-miterlimit:4;" d="M 457.401042 279.401042 L 446.401042 285.197917 " transform="matrix(0.75,0,0,0.75,0,0)"/>
<path style="fill:none;stroke-width:2;stroke-linecap:butt;stroke-linejoin:miter;stroke:rgb(0%,0%,0%);stroke-opacity:1;stroke-miterlimit:4;" d="M 323.802083 247.401042 L 301.098958 220.098958 " transform="matrix(0.75,0,0,0.75,0,0)"/>
<path style="fill:none;stroke-width:2;stroke-linecap:butt;stroke-linejoin:miter;stroke:rgb(0%,0%,0%);stroke-opacity:1;stroke-miterlimit:4;" d="M 301.098958 220.098958 L 285.802083 222.697917 " transform="matrix(0.75,0,0,0.75,0,0)"/>
<path style="fill:none;stroke-width:2;stroke-linecap:butt;stroke-linejoin:miter;stroke:rgb(80%,80%,0%);stroke-opacity:1;stroke-miterlimit:4;" d="M 285.802083 222.697917 L 270.5 225.401042 " transform="matrix(0.75,0,0,0.75,0,0)"/>
<path style="fill:none;stroke-width:2;stroke-linecap:butt;stroke-linejoin:miter;stroke:rgb(80%,80%,0%);stroke-opacity:1;stroke-miterlimit:4;" d="M 263.697917 232.598958 L 258.802083 246 " transform="matrix(0.75,0,0,0.75,0,0)"/>
<path style="fill:none;stroke-width:2;stroke-linecap:butt;stroke-linejoin:miter;stroke:rgb(0%,0%,0%);stroke-opacity:1;stroke-miterlimit:4;" d="M 258.802083 246 L 253.802083 259.5 " transform="matrix(0.75,0,0,0.75,0,0)"/>
<path style="fill:none;stroke-width:2;stroke-linecap:butt;stroke-linejoin:miter;stroke:rgb(0%,0%,0%);stroke-opacity:1;stroke-miterlimit:4;" d="M 140.901042 243.401042 L 120.401042 272.401042 " transform="matrix(0.75,0,0,0.75,0,0)"/>
<path style="fill:none;stroke-width:2;stroke-linecap:butt;stroke-linejoin:miter;stroke:rgb(0%,0%,0%);stroke-opacity:1;stroke-miterlimit:4;" d="M 120.401042 272.401042 L 131.802083 306.098958 " transform="matrix(0.75,0,0,0.75,0,0)"/>
<path style="fill:none;stroke-width:2;stroke-linecap:butt;stroke-linejoin:miter;stroke:rgb(0%,0%,0%);stroke-opacity:1;stroke-miterlimit:4;" d="M 115.302083 279.802083 L 123.302083 303.302083 " transform="matrix(0.75,0,0,0.75,0,0)"/>
<path style="fill:none;stroke-width:2;stroke-linecap:butt;stroke-linejoin:miter;stroke:rgb(0%,0%,0%);stroke-opacity:1;stroke-miterlimit:4;" d="M 131.802083 306.098958 L 119.697917 315.098958 " transform="matrix(0.75,0,0,0.75,0,0)"/>
<path style="fill:none;stroke-width:2;stroke-linecap:butt;stroke-linejoin:miter;stroke:rgb(80%,80%,0%);stroke-opacity:1;stroke-miterlimit:4;" d="M 119.697917 315.098958 L 107.697917 324.098958 " transform="matrix(0.75,0,0,0.75,0,0)"/>
<path style="fill:none;stroke-width:2;stroke-linecap:butt;stroke-linejoin:miter;stroke:rgb(80%,80%,0%);stroke-opacity:1;stroke-miterlimit:4;" d="M 98.901042 324.197917 L 86.598958 315.5 " transform="matrix(0.75,0,0,0.75,0,0)"/>
<path style="fill:none;stroke-width:2;stroke-linecap:butt;stroke-linejoin:miter;stroke:rgb(0%,0%,0%);stroke-opacity:1;stroke-miterlimit:4;" d="M 86.598958 315.5 L 74.302083 306.802083 " transform="matrix(0.75,0,0,0.75,0,0)"/>
<path style="fill:none;stroke-width:2;stroke-linecap:butt;stroke-linejoin:miter;stroke:rgb(0%,0%,0%);stroke-opacity:1;stroke-miterlimit:4;" d="M 74.302083 306.802083 L 60 311.697917 " transform="matrix(0.75,0,0,0.75,0,0)"/>
<path style="fill:none;stroke-width:2;stroke-linecap:butt;stroke-linejoin:miter;stroke:rgb(0%,0%,100%);stroke-opacity:1;stroke-miterlimit:4;" d="M 60 311.697917 L 45.598958 316.598958 " transform="matrix(0.75,0,0,0.75,0,0)"/>
<path style="fill:none;stroke-width:2;stroke-linecap:butt;stroke-linejoin:miter;stroke:rgb(0%,0%,0%);stroke-opacity:1;stroke-miterlimit:4;" d="M 74.302083 306.802083 L 78.598958 293 " transform="matrix(0.75,0,0,0.75,0,0)"/>
<path style="fill:none;stroke-width:2;stroke-linecap:butt;stroke-linejoin:miter;stroke:rgb(0%,0%,100%);stroke-opacity:1;stroke-miterlimit:4;" d="M 78.598958 293 L 82.901042 279.098958 " transform="matrix(0.75,0,0,0.75,0,0)"/>
<path style="fill:none;stroke-width:2;stroke-linecap:butt;stroke-linejoin:miter;stroke:rgb(0%,0%,0%);stroke-opacity:1;stroke-miterlimit:4;" d="M 82.401042 304.802083 L 85.401042 295.098958 " transform="matrix(0.75,0,0,0.75,0,0)"/>
<path style="fill:none;stroke-width:2;stroke-linecap:butt;stroke-linejoin:miter;stroke:rgb(0%,0%,100%);stroke-opacity:1;stroke-miterlimit:4;" d="M 85.401042 295.098958 L 88.401042 285.401042 " transform="matrix(0.75,0,0,0.75,0,0)"/>
<path style="fill:none;stroke-width:2;stroke-linecap:butt;stroke-linejoin:miter;stroke:rgb(0%,0%,0%);stroke-opacity:1;stroke-miterlimit:4;" d="M 253.802083 259.5 L 226.5 282.197917 " transform="matrix(0.75,0,0,0.75,0,0)"/>
<path style="fill:none;stroke-width:2;stroke-linecap:butt;stroke-linejoin:miter;stroke:rgb(0%,0%,100%);stroke-opacity:1;stroke-miterlimit:4;" d="M 89.802083 272.802083 L 105.098958 272.598958 " transform="matrix(0.75,0,0,0.75,0,0)"/>
<path style="fill:none;stroke-width:2;stroke-linecap:butt;stroke-linejoin:miter;stroke:rgb(0%,0%,0%);stroke-opacity:1;stroke-miterlimit:4;" d="M 105.098958 272.598958 L 120.401042 272.401042 " transform="matrix(0.75,0,0,0.75,0,0)"/>
<path style="fill:none;stroke-width:2;stroke-linecap:butt;stroke-linejoin:miter;stroke:rgb(0%,0%,0%);stroke-opacity:1;stroke-miterlimit:4;" d="M 253.802083 259.5 L 262.697917 270.098958 " transform="matrix(0.75,0,0,0.75,0,0)"/>
<path style="fill:none;stroke-width:2;stroke-linecap:butt;stroke-linejoin:miter;stroke:rgb(0%,0%,100%);stroke-opacity:1;stroke-miterlimit:4;" d="M 262.697917 270.098958 L 271.5 280.802083 " transform="matrix(0.75,0,0,0.75,0,0)"/>
<path style="fill:none;stroke-width:2;stroke-linecap:butt;stroke-linejoin:miter;stroke:rgb(80%,80%,0%);stroke-opacity:1;stroke-miterlimit:4;" d="M 437.598958 283.197917 L 427.098958 272.901042 " transform="matrix(0.75,0,0,0.75,0,0)"/>
<path style="fill:none;stroke-width:2;stroke-linecap:butt;stroke-linejoin:miter;stroke:rgb(0%,0%,0%);stroke-opacity:1;stroke-miterlimit:4;" d="M 427.098958 272.901042 L 416.598958 262.697917 " transform="matrix(0.75,0,0,0.75,0,0)"/>
<path style=" stroke:none;fill-rule:nonzero;fill:rgb(100%,0%,0%);fill-opacity:1;" d="M 106.425781 136.648438 C 106.425781 135.449219 106.699219 134.5 107.25 133.800781 C 107.851562 133.148438 108.726562 132.824219 109.875 132.824219 C 110.976562 132.824219 111.824219 133.148438 112.425781 133.800781 C 113.023438 134.5 113.324219 135.449219 113.324219 136.648438 C 113.324219 137.851562 113.023438 138.800781 112.425781 139.5 C 111.824219 140.199219 110.976562 140.550781 109.875 140.550781 C 108.773438 140.550781 107.898438 140.199219 107.25 139.5 C 106.699219 138.800781 106.425781 137.851562 106.425781 136.648438 M 109.875 139.726562 C 110.625 139.726562 111.199219 139.449219 111.601562 138.898438 C 112.050781 138.398438 112.273438 137.648438 112.273438 136.648438 C 112.273438 135.648438 112.050781 134.898438 111.601562 134.398438 C 111.199219 133.898438 110.625 133.648438 109.875 133.648438 C 109.074219 133.648438 108.476562 133.898438 108.074219 134.398438 C 107.675781 134.898438 107.476562 135.648438 107.476562 136.648438 C 107.476562 137.648438 107.675781 138.398438 108.074219 138.898438 C 108.476562 139.449219 109.074219 139.726562 109.875 139.726562 "/>
<path style=" stroke:none;fill-rule:nonzero;fill:rgb(0%,0%,100%);fill-opacity:1;" d="M 92.851562 154.574219 L 95.25 158.625 C 95.449219 158.875 95.675781 159.226562 95.925781 159.675781 C 96.175781 160.175781 96.324219 160.449219 96.375 160.5 L 96.375 154.574219 L 97.351562 154.574219 L 97.351562 162.148438 L 96.300781 162.148438 L 93.675781 157.800781 C 93.476562 157.449219 93.25 157.074219 93 156.675781 C 92.800781 156.273438 92.675781 156.023438 92.625 155.925781 L 92.625 162.148438 L 91.648438 162.148438 L 91.648438 154.574219 L 92.851562 154.574219 "/>
<path style=" stroke:none;fill-rule:nonzero;fill:rgb(100%,0%,0%);fill-opacity:1;" d="M 144.074219 163.273438 C 144.074219 162.074219 144.375 161.125 144.976562 160.425781 C 145.574219 159.773438 146.425781 159.449219 147.523438 159.449219 C 148.675781 159.449219 149.550781 159.773438 150.148438 160.425781 C 150.699219 161.125 150.976562 162.074219 150.976562 163.273438 C 150.976562 164.476562 150.675781 165.425781 150.074219 166.125 C 149.476562 166.824219 148.625 167.175781 147.523438 167.175781 C 146.425781 167.175781 145.574219 166.824219 144.976562 166.125 C 144.375 165.425781 144.074219 164.476562 144.074219 163.273438 M 147.523438 166.351562 C 148.324219 166.351562 148.925781 166.074219 149.324219 165.523438 C 149.726562 165.023438 149.925781 164.273438 149.925781 163.273438 C 149.925781 162.273438 149.726562 161.523438 149.324219 161.023438 C 148.925781 160.523438 148.324219 160.273438 147.523438 160.273438 C 146.773438 160.273438 146.199219 160.523438 145.800781 161.023438 C 145.351562 161.523438 145.125 162.273438 145.125 163.273438 C 145.125 164.273438 145.351562 165.023438 145.800781 165.523438 C 146.199219 166.074219 146.773438 166.351562 147.523438 166.351562 "/>
<path style=" stroke:none;fill-rule:nonzero;fill:rgb(0%,0%,100%);fill-opacity:1;" d="M 133.648438 205.425781 L 134.699219 205.425781 L 134.699219 208.648438 L 138.523438 208.648438 L 138.523438 205.425781 L 139.574219 205.425781 L 139.574219 213 L 138.523438 213 L 138.523438 209.476562 L 134.699219 209.476562 L 134.699219 213 L 133.648438 213 L 133.648438 205.425781 "/>
<path style=" stroke:none;fill-rule:nonzero;fill:rgb(0%,0%,100%);fill-opacity:1;" d="M 141.675781 205.425781 L 144.148438 209.398438 C 144.300781 209.699219 144.5 210.074219 144.75 210.523438 C 145.050781 211.023438 145.199219 211.273438 145.199219 211.273438 L 145.199219 205.425781 L 146.175781 205.425781 L 146.175781 213 L 145.125 213 L 142.5 208.574219 C 142.300781 208.273438 142.101562 207.925781 141.898438 207.523438 C 141.648438 207.125 141.5 206.875 141.449219 206.773438 L 141.449219 213 L 140.476562 213 L 140.476562 205.425781 L 141.675781 205.425781 "/>
<path style=" stroke:none;fill-rule:nonzero;fill:rgb(100%,0%,0%);fill-opacity:1;" d="M 180.976562 258.675781 C 180.976562 257.476562 181.273438 256.523438 181.875 255.824219 C 182.476562 255.175781 183.351562 254.851562 184.5 254.851562 C 185.601562 254.851562 186.449219 255.175781 187.050781 255.824219 C 187.648438 256.523438 187.949219 257.476562 187.949219 258.675781 C 187.949219 259.875 187.648438 260.824219 187.050781 261.523438 C 186.449219 262.226562 185.601562 262.574219 184.5 262.574219 C 183.351562 262.574219 182.476562 262.226562 181.875 261.523438 C 181.273438 260.875 180.976562 259.925781 180.976562 258.675781 M 184.5 261.75 C 185.25 261.75 185.824219 261.5 186.226562 261 C 186.675781 260.449219 186.898438 259.675781 186.898438 258.675781 C 186.898438 257.675781 186.675781 256.925781 186.226562 256.425781 C 185.824219 255.925781 185.25 255.675781 184.5 255.675781 C 183.699219 255.675781 183.101562 255.925781 182.699219 256.425781 C 182.300781 256.925781 182.101562 257.675781 182.101562 258.675781 C 182.101562 259.675781 182.300781 260.449219 182.699219 261 C 183.101562 261.5 183.699219 261.75 184.5 261.75 "/>
<path style=" stroke:none;fill-rule:nonzero;fill:rgb(0%,0%,100%);fill-opacity:1;" d="M 205.726562 211.273438 L 208.199219 215.324219 C 208.351562 215.574219 208.550781 215.925781 208.800781 216.375 C 209.101562 216.875 209.25 217.148438 209.25 217.199219 L 209.25 211.273438 L 210.226562 211.273438 L 210.226562 218.851562 L 209.25 218.851562 L 206.550781 214.5 C 206.351562 214.148438 206.148438 213.773438 205.949219 213.375 C 205.699219 212.976562 205.550781 212.726562 205.5 212.625 L 205.5 218.851562 L 204.523438 218.851562 L 204.523438 211.273438 L 205.726562 211.273438 "/>
<path style=" stroke:none;fill-rule:nonzero;fill:rgb(100%,0%,0%);fill-opacity:1;" d="M 273.449219 226.574219 C 273.449219 225.324219 273.75 224.375 274.351562 223.726562 C 274.949219 223.023438 275.824219 222.675781 276.976562 222.675781 C 278.074219 222.675781 278.925781 223.023438 279.523438 223.726562 C 280.125 224.375 280.425781 225.324219 280.425781 226.574219 C 280.425781 227.773438 280.125 228.726562 279.523438 229.425781 C 278.925781 230.125 278.074219 230.476562 276.976562 230.476562 C 275.824219 230.476562 274.949219 230.125 274.351562 229.425781 C 273.75 228.726562 273.449219 227.773438 273.449219 226.574219 M 276.976562 229.574219 C 277.726562 229.574219 278.300781 229.324219 278.699219 228.824219 C 279.148438 228.324219 279.375 227.574219 279.375 226.574219 C 279.375 225.574219 279.148438 224.824219 278.699219 224.324219 C 278.300781 223.824219 277.726562 223.574219 276.976562 223.574219 C 276.175781 223.574219 275.574219 223.824219 275.175781 224.324219 C 274.773438 224.824219 274.574219 225.574219 274.574219 226.574219 C 274.574219 227.574219 274.773438 228.324219 275.175781 228.824219 C 275.574219 229.324219 276.175781 229.574219 276.976562 229.574219 "/>
<path style=" stroke:none;fill-rule:nonzero;fill:rgb(100%,0%,0%);fill-opacity:1;" d="M 231.226562 252.300781 L 232.199219 252.300781 L 232.199219 255.523438 L 236.101562 255.523438 L 236.101562 252.300781 L 237.074219 252.300781 L 237.074219 259.875 L 236.101562 259.875 L 236.101562 256.351562 L 232.199219 256.351562 L 232.199219 259.875 L 231.226562 259.875 L 231.226562 252.300781 "/>
<path style=" stroke:none;fill-rule:nonzero;fill:rgb(100%,0%,0%);fill-opacity:1;" d="M 237.976562 256.050781 C 237.976562 254.851562 238.273438 253.925781 238.875 253.273438 C 239.476562 252.574219 240.351562 252.226562 241.5 252.226562 C 242.601562 252.226562 243.449219 252.574219 244.050781 253.273438 C 244.648438 253.925781 244.949219 254.851562 244.949219 256.050781 C 244.949219 257.300781 244.648438 258.273438 244.050781 258.976562 C 243.449219 259.625 242.601562 259.949219 241.5 259.949219 C 240.351562 259.949219 239.476562 259.625 238.875 258.976562 C 238.273438 258.273438 237.976562 257.300781 237.976562 256.050781 M 241.5 259.125 C 242.25 259.125 242.824219 258.875 243.226562 258.375 C 243.675781 257.824219 243.898438 257.050781 243.898438 256.050781 C 243.898438 255.050781 243.675781 254.300781 243.226562 253.800781 C 242.824219 253.300781 242.25 253.050781 241.5 253.050781 C 240.699219 253.050781 240.101562 253.300781 239.699219 253.800781 C 239.300781 254.300781 239.101562 255.050781 239.101562 256.050781 C 239.101562 257.101562 239.300781 257.875 239.699219 258.375 C 240.101562 258.875 240.699219 259.125 241.5 259.125 "/>
<path style=" stroke:none;fill-rule:nonzero;fill:rgb(80%,80%,0%);fill-opacity:1;" d="M 284.023438 204.148438 C 284.074219 204.148438 284.226562 204.199219 284.476562 204.300781 C 284.726562 204.398438 284.976562 204.476562 285.226562 204.523438 C 285.476562 204.574219 285.726562 204.601562 285.976562 204.601562 C 286.476562 204.601562 286.851562 204.5 287.101562 204.300781 C 287.398438 204.050781 287.550781 203.726562 287.550781 203.324219 C 287.550781 203.074219 287.476562 202.851562 287.324219 202.648438 C 287.175781 202.5 287 202.375 286.800781 202.273438 C 286.601562 202.175781 286.324219 202.074219 285.976562 201.976562 C 285.523438 201.824219 285.148438 201.699219 284.851562 201.601562 C 284.601562 201.449219 284.375 201.25 284.175781 201 C 283.976562 200.699219 283.875 200.324219 283.875 199.875 C 283.875 199.273438 284.101562 198.773438 284.550781 198.375 C 285 197.976562 285.648438 197.773438 286.5 197.773438 C 287.050781 197.773438 287.675781 197.898438 288.375 198.148438 L 288.074219 198.976562 C 287.476562 198.726562 286.949219 198.601562 286.5 198.601562 C 286 198.601562 285.625 198.726562 285.375 198.976562 C 285.074219 199.125 284.949219 199.375 285 199.726562 C 285 200.023438 285.050781 200.25 285.148438 200.398438 C 285.300781 200.550781 285.476562 200.675781 285.675781 200.773438 C 285.875 200.875 286.148438 200.976562 286.5 201.074219 C 286.949219 201.226562 287.324219 201.375 287.625 201.523438 C 287.875 201.675781 288.101562 201.898438 288.300781 202.199219 C 288.5 202.449219 288.601562 202.824219 288.601562 203.324219 C 288.601562 204.023438 288.351562 204.574219 287.851562 204.976562 C 287.398438 205.324219 286.800781 205.5 286.050781 205.5 C 285.601562 205.5 285.199219 205.449219 284.851562 205.351562 C 284.5 205.25 284.125 205.125 283.726562 204.976562 L 284.023438 204.148438 "/>
<path style=" stroke:none;fill-rule:nonzero;fill:rgb(0%,0%,100%);fill-opacity:1;" d="M 348.898438 173.175781 L 351.375 177.148438 C 351.523438 177.398438 351.75 177.773438 352.050781 178.273438 C 352.300781 178.726562 352.425781 178.976562 352.425781 179.023438 L 352.425781 173.175781 L 353.476562 173.175781 L 353.476562 180.675781 L 352.425781 180.675781 L 349.726562 176.324219 C 349.523438 175.976562 349.324219 175.625 349.125 175.273438 C 348.925781 174.875 348.773438 174.601562 348.675781 174.449219 L 348.675781 180.675781 L 347.699219 180.675781 L 347.699219 173.175781 L 348.898438 173.175781 "/>
<path style=" stroke:none;fill-rule:nonzero;fill:rgb(0%,0%,100%);fill-opacity:1;" d="M 353.398438 199.425781 L 355.875 203.398438 C 356.074219 203.648438 356.300781 204.023438 356.550781 204.523438 C 356.800781 205.023438 356.925781 205.273438 356.925781 205.273438 L 356.925781 199.425781 L 357.976562 199.425781 L 357.976562 207 L 356.925781 207 L 354.300781 202.574219 C 354.050781 202.226562 353.824219 201.875 353.625 201.523438 C 353.425781 201.125 353.273438 200.851562 353.175781 200.699219 L 353.175781 207 L 352.199219 207 L 352.199219 199.425781 L 353.398438 199.425781 "/>
<path style=" stroke:none;fill-rule:nonzero;fill:rgb(80%,80%,0%);fill-opacity:1;" d="M 329.398438 218.175781 C 329.449219 218.226562 329.601562 218.300781 329.851562 218.398438 C 330.050781 218.5 330.273438 218.574219 330.523438 218.625 C 330.824219 218.675781 331.101562 218.699219 331.351562 218.699219 C 331.800781 218.699219 332.175781 218.601562 332.476562 218.398438 C 332.726562 218.148438 332.851562 217.824219 332.851562 217.425781 C 332.851562 217.125 332.800781 216.898438 332.699219 216.75 C 332.550781 216.550781 332.375 216.425781 332.175781 216.375 C 331.925781 216.273438 331.625 216.175781 331.273438 216.074219 C 330.824219 215.925781 330.476562 215.773438 330.226562 215.625 C 329.976562 215.523438 329.75 215.324219 329.550781 215.023438 C 329.351562 214.773438 329.25 214.425781 329.25 213.976562 C 329.25 213.324219 329.476562 212.800781 329.925781 212.398438 C 330.324219 212.050781 330.949219 211.875 331.800781 211.875 C 332.398438 211.875 333.023438 212 333.675781 212.25 L 333.449219 213.074219 C 332.851562 212.824219 332.324219 212.699219 331.875 212.699219 C 331.375 212.699219 331 212.800781 330.75 213 C 330.449219 213.199219 330.300781 213.476562 330.300781 213.824219 C 330.300781 214.125 330.375 214.351562 330.523438 214.5 C 330.675781 214.648438 330.851562 214.773438 331.050781 214.875 C 331.25 214.976562 331.523438 215.074219 331.875 215.175781 C 332.324219 215.324219 332.675781 215.476562 332.925781 215.625 C 333.226562 215.726562 333.449219 215.925781 333.601562 216.226562 C 333.800781 216.523438 333.898438 216.925781 333.898438 217.425781 C 333.898438 218.125 333.675781 218.648438 333.226562 219 C 332.773438 219.398438 332.148438 219.601562 331.351562 219.601562 C 330.898438 219.601562 330.523438 219.550781 330.226562 219.449219 C 329.875 219.351562 329.5 219.199219 329.101562 219 L 329.398438 218.175781 "/>
<path style=" stroke:none;fill-rule:nonzero;fill:rgb(80%,80%,0%);fill-opacity:1;" d="M 197.398438 172.199219 C 197.5 172.199219 197.648438 172.25 197.851562 172.351562 C 198.101562 172.449219 198.351562 172.523438 198.601562 172.574219 C 198.851562 172.675781 199.101562 172.726562 199.351562 172.726562 C 199.851562 172.726562 200.25 172.601562 200.550781 172.351562 C 200.800781 172.101562 200.925781 171.773438 200.925781 171.375 C 200.925781 171.125 200.851562 170.898438 200.699219 170.699219 C 200.601562 170.550781 200.425781 170.425781 200.175781 170.324219 C 199.976562 170.226562 199.699219 170.125 199.351562 170.023438 C 198.898438 169.875 198.550781 169.75 198.300781 169.648438 C 198 169.5 197.75 169.300781 197.550781 169.050781 C 197.398438 168.75 197.324219 168.375 197.324219 167.925781 C 197.324219 167.324219 197.523438 166.824219 197.925781 166.425781 C 198.375 166.023438 199.023438 165.824219 199.875 165.824219 C 200.476562 165.824219 201.101562 165.976562 201.75 166.273438 L 201.523438 167.101562 C 200.925781 166.851562 200.375 166.726562 199.875 166.726562 C 199.425781 166.726562 199.050781 166.824219 198.75 167.023438 C 198.5 167.226562 198.375 167.5 198.375 167.851562 C 198.375 168.101562 198.449219 168.300781 198.601562 168.449219 C 198.75 168.648438 198.898438 168.773438 199.050781 168.824219 C 199.300781 168.925781 199.574219 169.023438 199.875 169.125 C 200.375 169.273438 200.75 169.425781 201 169.574219 C 201.25 169.726562 201.476562 169.949219 201.675781 170.25 C 201.875 170.5 201.976562 170.875 201.976562 171.375 C 201.976562 172.074219 201.75 172.625 201.300781 173.023438 C 200.851562 173.375 200.226562 173.550781 199.425781 173.550781 C 198.976562 173.550781 198.574219 173.5 198.226562 173.398438 C 197.925781 173.300781 197.574219 173.175781 197.175781 173.023438 L 197.398438 172.199219 "/>
<path style=" stroke:none;fill-rule:nonzero;fill:rgb(80%,80%,0%);fill-opacity:1;" d="M 75.375 248.101562 C 75.425781 248.101562 75.574219 248.148438 75.824219 248.25 C 76.023438 248.351562 76.25 248.449219 76.5 248.550781 C 76.800781 248.601562 77.074219 248.625 77.324219 248.625 C 77.773438 248.625 78.148438 248.5 78.449219 248.25 C 78.699219 248.050781 78.824219 247.726562 78.824219 247.273438 C 78.824219 247.023438 78.75 246.800781 78.601562 246.601562 C 78.5 246.449219 78.351562 246.324219 78.148438 246.226562 C 77.898438 246.125 77.601562 246.023438 77.25 245.925781 C 76.800781 245.824219 76.449219 245.699219 76.199219 245.550781 C 75.949219 245.398438 75.726562 245.199219 75.523438 244.949219 C 75.324219 244.699219 75.226562 244.351562 75.226562 243.898438 C 75.226562 243.25 75.449219 242.726562 75.898438 242.324219 C 76.300781 241.925781 76.925781 241.726562 77.773438 241.726562 C 78.375 241.726562 79 241.875 79.648438 242.175781 L 79.425781 243 C 78.824219 242.75 78.300781 242.625 77.851562 242.625 C 77.351562 242.625 76.949219 242.726562 76.648438 242.925781 C 76.398438 243.125 76.273438 243.398438 76.273438 243.75 C 76.273438 244 76.351562 244.199219 76.5 244.351562 C 76.648438 244.550781 76.824219 244.699219 77.023438 244.800781 C 77.226562 244.851562 77.5 244.949219 77.851562 245.101562 C 78.300781 245.199219 78.648438 245.324219 78.898438 245.476562 C 79.199219 245.625 79.425781 245.851562 79.574219 246.148438 C 79.773438 246.449219 79.875 246.824219 79.875 247.273438 C 79.875 247.976562 79.648438 248.523438 79.199219 248.925781 C 78.75 249.273438 78.125 249.449219 77.324219 249.449219 C 76.875 249.449219 76.5 249.398438 76.199219 249.300781 C 75.851562 249.199219 75.476562 249.074219 75.074219 248.925781 L 75.375 248.101562 "/>
<path style=" stroke:none;fill-rule:nonzero;fill:rgb(0%,0%,100%);fill-opacity:1;" d="M 17.023438 234.898438 L 18.074219 234.898438 L 18.074219 238.125 L 21.898438 238.125 L 21.898438 234.898438 L 22.949219 234.898438 L 22.949219 242.476562 L 21.898438 242.476562 L 21.898438 238.949219 L 18.074219 238.949219 L 18.074219 242.476562 L 17.023438 242.476562 L 17.023438 234.898438 "/>
<path style=" stroke:none;fill-rule:nonzero;fill:rgb(0%,0%,100%);fill-opacity:1;" d="M 23.851562 242.175781 C 24 241.875 24.226562 241.648438 24.523438 241.5 C 24.773438 241.300781 25.101562 241.199219 25.5 241.199219 C 26 241.199219 26.398438 241.351562 26.699219 241.648438 C 27 241.898438 27.148438 242.273438 27.148438 242.773438 C 27.148438 243.273438 26.949219 243.75 26.550781 244.199219 C 26.199219 244.648438 25.648438 245.148438 24.898438 245.699219 L 27.226562 245.699219 L 27.226562 246.226562 L 23.851562 246.226562 L 23.851562 245.773438 C 24.449219 245.324219 24.949219 244.949219 25.351562 244.648438 C 25.699219 244.300781 25.976562 243.976562 26.175781 243.675781 C 26.324219 243.375 26.398438 243.074219 26.398438 242.773438 C 26.398438 242.476562 26.324219 242.226562 26.175781 242.023438 C 26.023438 241.875 25.800781 241.800781 25.5 241.800781 C 25.25 241.800781 25.023438 241.851562 24.824219 241.949219 C 24.675781 242.050781 24.523438 242.226562 24.375 242.476562 L 23.851562 242.175781 "/>
<path style=" stroke:none;fill-rule:nonzero;fill:rgb(0%,0%,100%);fill-opacity:1;" d="M 28.800781 234.898438 L 31.273438 238.949219 C 31.476562 239.199219 31.699219 239.550781 31.949219 240 C 32.199219 240.5 32.324219 240.773438 32.324219 240.824219 L 32.324219 234.898438 L 33.375 234.898438 L 33.375 242.476562 L 32.324219 242.476562 L 29.699219 238.125 C 29.449219 237.773438 29.226562 237.398438 29.023438 237 C 28.824219 236.601562 28.699219 236.351562 28.648438 236.25 L 28.648438 242.476562 L 27.601562 242.476562 L 27.601562 234.898438 L 28.800781 234.898438 "/>
<path style=" stroke:none;fill-rule:nonzero;fill:rgb(0%,0%,100%);fill-opacity:1;" d="M 61.949219 200.925781 L 64.425781 204.898438 C 64.574219 205.148438 64.800781 205.523438 65.101562 206.023438 C 65.351562 206.476562 65.476562 206.726562 65.476562 206.773438 L 65.476562 200.925781 L 66.449219 200.925781 L 66.449219 208.425781 L 65.476562 208.425781 L 62.773438 204.074219 C 62.574219 203.726562 62.375 203.375 62.175781 203.023438 C 61.925781 202.625 61.773438 202.351562 61.726562 202.199219 L 61.726562 208.425781 L 60.75 208.425781 L 60.75 200.925781 L 61.949219 200.925781 "/>
</g>
</svg>
